<svg xmlns="http://www.w3.org/2000/svg" xmlns:xlink="http://www.w3.org/1999/xlink" viewBox="0 0 555.101 484.669"><defs><linearGradient id="e" x1="231.977" x2="369.325" y1="375.146" y2="160.319" gradientUnits="userSpaceOnUse"><stop offset="0" stop-color="#cf4d00" class="stopColorcf0000 svgShape"/><stop offset="1" stop-color="#e97835" class="stopColore93535 svgShape"/></linearGradient><linearGradient id="f" x1="312.571" x2="229.614" y1="194.627" y2="362.105" gradientUnits="userSpaceOnUse"><stop offset="0" stop-color="#e66315" class="stopColore61515 svgShape"/><stop offset="1" stop-color="#ff9150" class="stopColorff5050 svgShape"/></linearGradient><linearGradient id="b" x1="-3899.408" x2="-3899.408" y1="1108.016" y2="1291.949" gradientTransform="rotate(48.731 -551.346 5502.559)" gradientUnits="userSpaceOnUse"><stop offset=".059" stop-color="#ffba92" class="stopColor92d4ff svgShape"/><stop offset=".227" stop-color="#ffc29f" class="stopColor9fd9ff svgShape"/><stop offset=".538" stop-color="#ffd8c1" class="stopColorc1e7ff svgShape"/><stop offset=".954" stop-color="#fffbf8" class="stopColorf8fcff svgShape"/><stop offset="1" stop-color="#ffffff" class="stopColorfff svgShape"/></linearGradient><linearGradient id="a" x1="-3914.352" x2="-3914.352" y1="1121.613" y2="1109.506" gradientTransform="rotate(48.731 -551.346 5502.559)" gradientUnits="userSpaceOnUse"><stop offset="0" stop-color="#f66109" class="stopColorf63e09 svgShape"/><stop offset="1" stop-color="#fdb084" class="stopColorfd8487 svgShape"/></linearGradient><linearGradient id="g" x1="-3914.352" x2="-3914.352" y1="1144.719" y2="1132.613" xlink:href="#a"/><linearGradient id="h" x1="-3914.353" x2="-3914.353" y1="1167.826" y2="1155.72" xlink:href="#a"/><linearGradient id="i" x1="-3914.353" x2="-3914.353" y1="1190.933" y2="1178.827" xlink:href="#a"/><linearGradient id="j" x1="-3914.354" x2="-3914.354" y1="1214.806" y2="1202.7" xlink:href="#a"/><linearGradient id="k" x1="-3883.369" x2="-3883.369" y1="1139.814" y2="1127.708" xlink:href="#a"/><linearGradient id="l" x1="-3883.369" x2="-3883.369" y1="1162.921" y2="1150.815" xlink:href="#a"/><linearGradient id="m" x1="-3883.37" x2="-3883.37" y1="1186.028" y2="1173.922" xlink:href="#a"/><linearGradient id="n" x1="-3883.37" x2="-3883.37" y1="1209.134" y2="1197.028" xlink:href="#a"/><linearGradient id="o" x1="-3883.371" x2="-3883.371" y1="1233.007" y2="1220.901" xlink:href="#a"/><linearGradient id="p" x1="-5544.03" x2="-5544.03" y1="8418.471" y2="8630.25" gradientTransform="rotate(129.754 -822.796 5752.16)" xlink:href="#b"/><linearGradient id="q" x1="-5561.233" x2="-5561.233" y1="8434.127" y2="8420.188" gradientTransform="rotate(129.754 -822.796 5752.16)" xlink:href="#a"/><linearGradient id="r" x1="-5561.234" x2="-5561.234" y1="8460.731" y2="8446.792" gradientTransform="rotate(129.754 -822.796 5752.16)" xlink:href="#a"/><linearGradient id="s" x1="-5561.236" x2="-5561.236" y1="8487.336" y2="8473.397" gradientTransform="rotate(129.754 -822.796 5752.16)" xlink:href="#a"/><linearGradient id="t" x1="-5561.237" x2="-5561.237" y1="8513.941" y2="8500.002" gradientTransform="rotate(129.754 -822.796 5752.16)" xlink:href="#a"/><linearGradient id="u" x1="-5561.239" x2="-5561.239" y1="8541.428" y2="8527.489" gradientTransform="rotate(129.754 -822.796 5752.16)" xlink:href="#a"/><linearGradient id="v" x1="-5525.561" x2="-5525.561" y1="8455.085" y2="8441.146" gradientTransform="rotate(129.754 -822.796 5752.16)" xlink:href="#a"/><linearGradient id="w" x1="-5525.562" x2="-5525.562" y1="8481.689" y2="8467.75" gradientTransform="rotate(129.754 -822.796 5752.16)" xlink:href="#a"/><linearGradient id="x" x1="-5525.563" x2="-5525.563" y1="8508.294" y2="8494.355" gradientTransform="rotate(129.754 -822.796 5752.16)" xlink:href="#a"/><linearGradient id="y" x1="-5525.565" x2="-5525.565" y1="8534.899" y2="8520.96" gradientTransform="rotate(129.754 -822.796 5752.16)" xlink:href="#a"/><linearGradient id="z" x1="-5525.566" x2="-5525.566" y1="8562.386" y2="8548.447" gradientTransform="rotate(129.754 -822.796 5752.16)" xlink:href="#a"/><linearGradient id="c" x1="305.929" x2="352.428" y1="14.869" y2="14.869" gradientUnits="userSpaceOnUse"><stop offset=".059" stop-color="#fab38a" class="stopColor8ac9fa svgShape"/><stop offset=".232" stop-color="#fbbc97" class="stopColor97cffb svgShape"/><stop offset=".552" stop-color="#fcd2b9" class="stopColorb9defc svgShape"/><stop offset=".982" stop-color="#fff5f0" class="stopColorf0f6ff svgShape"/><stop offset="1" stop-color="#fff7f3" class="stopColorf3f7ff svgShape"/></linearGradient><linearGradient id="A" x1="348.334" x2="319.743" y1="6.383" y2="19.322" gradientUnits="userSpaceOnUse"><stop offset="0" stop-color="#eb5c07" class="stopColoreb3907 svgShape"/><stop offset="1" stop-color="#ff6103" class="stopColorfb621e svgShape"/></linearGradient><linearGradient id="B" x1="-4741.745" x2="-4695.245" y1="2416.881" y2="2416.881" gradientTransform="rotate(61.933 -506.753 5751.458)" xlink:href="#c"/><linearGradient id="d" x1="-4699.34" x2="-4727.931" y1="2408.395" y2="2421.334" gradientTransform="rotate(61.933 -506.753 5751.458)" gradientUnits="userSpaceOnUse"><stop offset="0" stop-color="#eb6d24" class="stopColor248beb svgShape"/><stop offset=".199" stop-color="#eb7531" class="stopColor3192eb svgShape"/><stop offset=".568" stop-color="#ec8b53" class="stopColor53a4ec svgShape"/><stop offset="1" stop-color="#edaa83" class="stopColor83beed svgShape"/></linearGradient><linearGradient id="C" x1="4290.933" x2="4331.212" y1="3207.495" y2="3201.234" gradientTransform="rotate(-53.892 -834.25 5804.483)" xlink:href="#c"/><linearGradient id="D" x1="4336.741" x2="4314.619" y1="3199.506" y2="3203.889" gradientTransform="rotate(-53.892 -834.25 5804.483)" xlink:href="#d"/></defs><path fill="url(#e)" d="m364.919 428.556-199.66-277.91s55.01-31.531 62.517-36.039c7.75-4.654 18.573-4.073 30.547 2.84l140.235 81.057c23.571 13.609 42.68 46.605 42.68 73.698v92.137c0 14.862-5.75 24.86-14.831 28.614-7.475 3.089-61.488 35.603-61.488 35.603Z"/><path fill="#ffbf66" d="m383.309 207.354-140.235-81.057c-11.974-6.913-22.796-7.494-30.547-2.84-7.507 4.507-10.294 6.157-4.029 2.395 7.75-4.654 18.573-4.074 30.547 2.84l140.235 81.057c23.572 13.608 42.68 46.604 42.68 73.698v92.137c0 12.16-3.96 20.598-10.333 25.49 8.742-3.937 14.362-13.345 14.362-27.885v-92.137c0-27.094-19.109-60.09-42.68-73.698Z" class="colorff5050 svgShape"/><path fill="#ffbf66" d="m339.947 422.645-140.235-81.057c-23.571-13.61-42.68-46.605-42.68-73.699v-92.137c0-27.093 19.109-38.025 42.68-24.416l140.235 81.057c23.571 13.609 42.68 46.605 42.68 73.698v92.138c0 27.093-19.109 38.025-42.68 24.416Z" class="colorff5050 svgShape"/><path fill="url(#f)" d="m335.743 425.058-140.236-81.057c-23.571-13.609-42.68-46.604-42.68-73.698v-92.137c0-27.094 19.109-38.025 42.68-24.416l140.236 81.057c23.57 13.609 42.68 46.605 42.68 73.698v92.137c0 27.094-19.11 38.025-42.68 24.416Z"/><path fill="#c4b8b1" d="M351.42 200.71a3.842 3.842 0 0 0 1.58-4.873l-4.338-9.817c-6.68-15.12-17.773-28.265-29.632-35.112l-17.896-10.159c-8.951-5.168-17.466-6.244-23.976-3.276-2.115.964-15.42 8.274-18.734 11.949l-4.071 4.514s-1.672 1.742.315 2.985c.626.392 1.376.795 2.118 1.214 2.063 1.167 5.448-1.367 5.448-1.367 6.002-6.655 15.97-6.956 26.626-.804l13.461 7.6c10.657 6.151 20.624 17.962 26.626 31.548l.414.937a17.12 17.12 0 0 0 7.1 7.908l.578.334a8.235 8.235 0 0 0 8.264-.017Z" class="colorb1bbc4 svgShape"/><path fill="#eae5e2" d="M336.459 186.65a218.923 218.923 0 0 0-14.45-21.926c-4.827-6.073-31.767-20.089-38.463-22.424s-11.081-1.075-16.531 1.208c-.7.293-2.058 1.397-2.786 1.801a25.278 25.278 0 0 0-3.507 2.585l-4.071 4.514s-2.062 1.435-.076 2.679c.627.392 1.376.794 2.118 1.213 2.063 1.167 5.448-1.367 5.448-1.367 6.003-6.655 15.97-6.956 26.626-.803l13.462 7.598c10.656 6.153 36.48 43.653 36.48 43.653a7.237 7.237 0 0 0 2.493-.254c.371-.135-.562-3.686-.715-4.293-.938-3.726-1.356-5.793-6.028-14.185Z" class="colore2e6ea svgShape"/><path fill="#eae5e2" d="M334.551 188.457a218.923 218.923 0 0 0-14.45-21.926c-4.827-6.073-31.767-20.088-38.463-22.424s-12.146-.934-17.596 1.349a21.986 21.986 0 0 0-2.149 1.057 23.1 23.1 0 0 0-3.469 2.881l-4.071 4.515s-1.672 1.742.315 2.985c.626.392 1.376.794 2.118 1.214 2.063 1.166 5.448-1.368 5.448-1.368 6.002-6.655 15.97-6.956 26.626-.803l13.461 7.599c10.656 6.152 20.624 17.962 26.626 31.548l.414.938a17.12 17.12 0 0 0 7.1 7.907l.578.334a8.13 8.13 0 0 0 3.67 1.118c.387.081.023-2.133-.13-2.74-.938-3.726-1.356-5.792-6.028-14.184Z" class="colore2e6ea svgShape"/><ellipse cx="265.625" cy="289.404" fill="#ffffff" rx="47.191" ry="81.739" transform="rotate(-30.227 265.625 289.404)" class="colorfff svgShape"/><path fill="#843d14" d="m273.967 337.55-14.071-11.422a9.9 9.9 0 0 1-4.49-7.751l-2.474-74.57s3.88-2.22 4.036-2.284a3.342 3.342 0 0 1 2.928.442l15.12 8.73a9.899 9.899 0 0 1 4.488 7.75v73.844a3.161 3.161 0 0 1-1.262 2.859c-.816.498-4.275 2.402-4.275 2.402Z" class="color143684 svgShape"/><path fill="#843d14" d="m230.845 275.964-2.558-18.073s3.06-1.73 3.872-2.196a3.168 3.168 0 0 1 3.174.322l64.244 37.091a9.9 9.9 0 0 1 4.49 7.751v17.379a3.28 3.28 0 0 1-1.105 2.752c-.14.103-4.47 2.527-4.47 2.527l-63.159-39.802a9.899 9.899 0 0 1-4.488-7.751Z" class="color143684 svgShape"/><path fill="#ff8239" d="m270.967 337.142-15.12-8.73a9.899 9.899 0 0 1-4.489-7.75v-73.844c0-2.85 2.01-3.999 4.489-2.568l15.12 8.73a9.899 9.899 0 0 1 4.489 7.75v73.844c0 2.85-2.01 4-4.49 2.568Z" class="color399eff svgShape"/><path fill="#ff8239" d="M226.796 278.249v-17.38c0-2.849 2.01-3.998 4.489-2.567l64.244 37.091a9.899 9.899 0 0 1 4.489 7.751v17.38c0 2.849-2.01 3.998-4.489 2.567L231.285 286a9.9 9.9 0 0 1-4.489-7.751Z" class="color399eff svgShape"/><path fill="#efa77d" fill-rule="evenodd" d="m445.704 148.052 9.967 50.022a12.088 12.088 0 0 1 .094 3.734s2.964 1.008 3.421 1.184c2.094.805 4.819.096 7.53-2.281l81.28-71.27c4.925-4.317 8.014-12.572 6.865-18.339l-9.967-50.022c-.538-2.698-1.91-4.394-3.724-4.993-.402-.133-3.815-1.312-3.815-1.312a28.9 28.9 0 0 1-3.506 3.667l-81.28 71.27c-4.926 4.318-8.015 12.57-6.865 18.34Z" class="color7db6ef svgShape"/><path fill="url(#b)" fill-rule="evenodd" d="m442.12 146.809 9.967 50.022c1.15 5.769 6.12 6.955 11.044 2.637l81.281-71.27c4.925-4.317 8.014-12.572 6.865-18.339l-9.967-50.022c-1.15-5.769-6.12-6.957-11.045-2.638l-81.28 71.27c-4.926 4.318-8.015 12.57-6.865 18.34Z"/><path fill="url(#a)" fill-rule="evenodd" d="M523.814 84.652c1.078 5.404 4.057 7.936 6.655 5.656 2.6-2.28 3.834-8.506 2.757-13.908s-4.055-7.935-6.654-5.658c-2.599 2.28-3.835 8.508-2.758 13.91Z"/><path fill="url(#g)" fill-rule="evenodd" d="M506.447 99.893c1.077 5.404 4.057 7.936 6.655 5.656 2.6-2.28 3.833-8.506 2.757-13.908s-4.055-7.935-6.655-5.658c-2.598 2.279-3.834 8.508-2.757 13.91Z"/><path fill="url(#h)" fill-rule="evenodd" d="M489.08 115.134c1.077 5.403 4.056 7.935 6.654 5.655 2.6-2.28 3.834-8.505 2.757-13.907s-4.054-7.935-6.654-5.658c-2.598 2.279-3.835 8.508-2.758 13.91Z"/><path fill="url(#i)" fill-rule="evenodd" d="M471.712 130.375c1.078 5.403 4.057 7.935 6.655 5.655 2.6-2.28 3.833-8.505 2.757-13.907s-4.055-7.935-6.654-5.658c-2.599 2.279-3.835 8.508-2.758 13.91Z"/><path fill="url(#j)" fill-rule="evenodd" d="M453.769 146.12c1.077 5.405 4.057 7.937 6.655 5.657 2.6-2.28 3.833-8.506 2.757-13.908s-4.055-7.935-6.655-5.658c-2.598 2.28-3.834 8.508-2.757 13.91Z"/><path fill="url(#k)" fill-rule="evenodd" d="M530.57 119.944c1.078 5.404 4.057 7.936 6.655 5.656 2.6-2.28 3.834-8.506 2.757-13.908s-4.055-7.935-6.654-5.657c-2.599 2.278-3.835 8.508-2.758 13.91Z"/><path fill="url(#l)" fill-rule="evenodd" d="M513.203 135.185c1.077 5.404 4.057 7.936 6.655 5.656 2.6-2.28 3.833-8.506 2.757-13.908s-4.055-7.935-6.655-5.658c-2.598 2.28-3.834 8.509-2.757 13.91Z"/><path fill="url(#m)" fill-rule="evenodd" d="M495.835 150.426c1.078 5.404 4.057 7.936 6.655 5.656 2.6-2.28 3.834-8.506 2.757-13.908s-4.054-7.935-6.654-5.658c-2.598 2.28-3.835 8.508-2.758 13.91Z"/><path fill="url(#n)" fill-rule="evenodd" d="M478.468 165.667c1.078 5.404 4.057 7.936 6.655 5.656 2.6-2.28 3.833-8.506 2.757-13.908s-4.055-7.935-6.654-5.658c-2.599 2.28-3.835 8.508-2.758 13.91Z"/><path fill="url(#o)" fill-rule="evenodd" d="M460.525 181.413c1.077 5.404 4.057 7.936 6.655 5.656 2.6-2.28 3.833-8.506 2.757-13.908s-4.055-7.935-6.655-5.657c-2.598 2.278-3.834 8.508-2.757 13.91Z"/><path fill="#e5864f" fill-rule="evenodd" d="M455.542 165.819c.057.288-.653.458-.653.458s1.158.366 1.272.405a1.05 1.05 0 0 0 1.016-.308l82.08-71.973a3.314 3.314 0 0 0 .96-2.83 1.05 1.05 0 0 0-.62-.863c-.296-.1-1.197-.366-1.197-.366l-81.898 72.645a3.314 3.314 0 0 0-.96 2.832Z" class="color4f98e5 svgShape"/><path fill="#eb9360" fill-rule="evenodd" d="M454.36 165.457a.912.912 0 0 0 1.635.556l82.08-71.973a3.314 3.314 0 0 0 .96-2.831.912.912 0 0 0-1.634-.556l-82.08 71.973a3.314 3.314 0 0 0-.96 2.831Z" class="color60a7eb svgShape"/><path fill="#efa77d" fill-rule="evenodd" d="m60.181 317.317-55.1 20.32a13.918 13.918 0 0 1-4.23.778s-.614 3.551-.732 4.104c-.54 2.525.756 5.497 3.946 8.153l95.654 79.641c5.795 4.825 15.737 6.856 22.09 4.514l55.1-20.32c2.972-1.096 4.654-2.962 5.01-5.132.08-.481.807-4.574.807-4.574a33.27 33.27 0 0 1-4.8-3.329l-95.653-79.641c-5.797-4.826-15.737-6.857-22.092-4.514Z" class="color7db6ef svgShape"/><path fill="url(#p)" fill-rule="evenodd" d="m60.951 313.018-55.1 20.32c-6.355 2.343-6.811 8.209-1.016 13.034l95.654 79.642c5.795 4.825 15.737 6.856 22.09 4.514l55.1-20.32c6.355-2.343 6.813-8.21 1.017-13.035L83.042 317.53c-5.796-4.826-15.736-6.856-22.091-4.513Z"/><path fill="url(#q)" fill-rule="evenodd" d="M146.315 394.767c-5.952 2.196-8.297 6.039-5.237 8.584 3.06 2.548 10.362 2.832 16.312.638s8.297-6.037 5.24-8.584c-3.059-2.546-10.365-2.833-16.315-.638Z"/><path fill="url(#r)" fill-rule="evenodd" d="M125.862 377.752c-5.952 2.196-8.297 6.039-5.237 8.584 3.06 2.548 10.362 2.832 16.313.638s8.296-6.037 5.239-8.584c-3.059-2.546-10.365-2.833-16.315-.638Z"/><path fill="url(#s)" fill-rule="evenodd" d="M105.41 360.737c-5.953 2.196-8.298 6.039-5.238 8.584 3.06 2.548 10.362 2.833 16.313.638s8.296-6.036 5.239-8.584c-3.058-2.546-10.365-2.833-16.315-.638Z"/><path fill="url(#t)" fill-rule="evenodd" d="M84.956 343.722c-5.952 2.196-8.296 6.04-5.237 8.585 3.06 2.547 10.362 2.832 16.313.637s8.296-6.036 5.24-8.584c-3.06-2.546-10.366-2.833-16.316-.638Z"/><path fill="url(#u)" fill-rule="evenodd" d="M63.825 326.143c-5.952 2.196-8.296 6.04-5.237 8.585 3.06 2.547 10.362 2.832 16.313.637s8.296-6.036 5.24-8.584c-3.06-2.546-10.366-2.833-16.316-.638Z"/><path fill="url(#v)" fill-rule="evenodd" d="M107.39 408.789c-5.952 2.196-8.297 6.039-5.237 8.584 3.06 2.548 10.362 2.833 16.313.638s8.296-6.037 5.239-8.584c-3.059-2.546-10.365-2.833-16.315-.638Z"/><path fill="url(#w)" fill-rule="evenodd" d="M86.937 391.774c-5.952 2.196-8.297 6.04-5.237 8.585 3.06 2.547 10.362 2.832 16.313.637s8.296-6.036 5.239-8.584c-3.059-2.546-10.365-2.833-16.315-.638Z"/><path fill="url(#x)" fill-rule="evenodd" d="M66.484 374.759c-5.952 2.196-8.296 6.04-5.237 8.585 3.06 2.547 10.362 2.832 16.313.637s8.296-6.036 5.24-8.584c-3.06-2.546-10.366-2.833-16.316-.638Z"/><path fill="url(#y)" fill-rule="evenodd" d="M46.031 357.744c-5.952 2.196-8.296 6.04-5.237 8.585 3.06 2.547 10.363 2.832 16.313.638s8.296-6.037 5.24-8.585c-3.06-2.546-10.366-2.833-16.316-.638Z"/><path fill="url(#z)" fill-rule="evenodd" d="M24.9 340.165c-5.952 2.196-8.296 6.04-5.237 8.585 3.06 2.547 10.362 2.832 16.313.638s8.296-6.037 5.24-8.585c-3.06-2.546-10.366-2.833-16.316-.638Z"/><path fill="#e5864f" fill-rule="evenodd" d="M41.741 331.697c-.317.117-.638-.66-.638-.66s-.208 1.383-.232 1.52a1.208 1.208 0 0 0 .532 1.1L138 414.08a3.816 3.816 0 0 0 3.392.583 1.209 1.209 0 0 0 .87-.86c.061-.354.2-1.427.2-1.427L45.135 332.28a3.816 3.816 0 0 0-3.393-.584Z" class="color4f98e5 svgShape"/><path fill="#eb9360" fill-rule="evenodd" d="M41.94 330.289a1.05 1.05 0 0 0-.338 1.959l96.597 80.425a3.816 3.816 0 0 0 3.392.582 1.05 1.05 0 0 0 .339-1.958l-96.597-80.425a3.816 3.816 0 0 0-3.393-.583Z" class="color60a7eb svgShape"/><path fill="url(#c)" fill-rule="evenodd" d="M311.141 13.233 340.448.69a8.601 8.601 0 0 1 6.768 15.815L317.91 29.047a8.6 8.6 0 0 1-6.77-15.814Z"/><path fill="url(#A)" fill-rule="evenodd" d="m325.91 6.912 14.536-6.22a8.601 8.601 0 0 1 6.769 15.814l-14.536 6.22a28.514 28.514 0 0 0-6.769-15.814Z"/><path fill="#ffffff" fill-rule="evenodd" d="m331.473 7.318 10.138-4.34a1.346 1.346 0 1 1 1.06 2.475l-9.722 4.161q-.673-1.17-1.476-2.296Z" opacity=".4" class="colorfff svgShape"/><path fill="url(#B)" fill-rule="evenodd" d="m447.01 449.412 24.856 19.959a8.601 8.601 0 0 1-10.77 13.413l-24.855-19.958a8.6 8.6 0 0 1 10.769-13.414Z"/><path fill="url(#d)" fill-rule="evenodd" d="m459.537 459.47 12.328 9.9a8.601 8.601 0 0 1-10.77 13.414l-12.33-9.9a28.514 28.514 0 0 0 10.772-13.414Z"/><path fill="#ffffff" fill-rule="evenodd" d="m461.796 464.57 8.599 6.904a1.346 1.346 0 1 1-1.685 2.099l-8.247-6.62q.716-1.145 1.333-2.384Z" opacity=".4" class="colorfff svgShape"/><path fill="url(#C)" fill-rule="evenodd" d="m84.524 122.336 13.605-28.827a8.601 8.601 0 0 1 15.557 7.342L100.08 129.68a8.601 8.601 0 0 1-15.556-7.343Z"/><path fill="url(#D)" fill-rule="evenodd" d="m91.38 107.81 6.749-14.3a8.601 8.601 0 0 1 15.556 7.342l-6.748 14.3a28.508 28.508 0 0 0-15.557-7.343Z"/><path fill="#ffffff" fill-rule="evenodd" d="m95.81 104.421 4.708-9.973a1.346 1.346 0 0 1 2.434 1.15l-4.514 9.563q-1.278-.428-2.628-.74Z" opacity=".4" class="colorfff svgShape"/><path fill="#aa9d96" d="M305.465 141.511a.746.746 0 1 1 .746-.746.746.746 0 0 1-.746.746ZM301.78 141.48a.715.715 0 1 1 .715-.715.715.715 0 0 1-.716.715ZM298.093 141.44a.675.675 0 1 1 .675-.675.675.675 0 0 1-.675.675ZM312.837 145.34a.89.89 0 1 1 .889-.89.89.89 0 0 1-.89.89ZM309.15 145.3a.848.848 0 1 1 .85-.85.848.848 0 0 1-.85.85ZM305.465 145.258a.807.807 0 1 1 .807-.807.807.807 0 0 1-.807.807ZM301.78 145.228a.777.777 0 1 1 .776-.777.777.777 0 0 1-.777.777ZM298.093 145.187a.736.736 0 1 1 .736-.736.736.736 0 0 1-.736.736ZM294.407 145.156a.705.705 0 1 1 .706-.705.705.705 0 0 1-.706.705ZM316.523 149.128a.991.991 0 1 1 .991-.991.991.991 0 0 1-.991.991ZM312.837 149.097a.96.96 0 1 1 .96-.96.96.96 0 0 1-.96.96ZM309.15 149.057a.92.92 0 1 1 .92-.92.92.92 0 0 1-.92.92Z" class="color96a1aa svgShape"/><circle cx="305.465" cy="148.137" r=".879" fill="#aa9d96" class="color96a1aa svgShape"/><circle cx="301.779" cy="148.137" r=".838" fill="#aa9d96" class="color96a1aa svgShape"/><path fill="#aa9d96" d="M298.093 148.934a.797.797 0 1 1 .798-.797.797.797 0 0 1-.798.797Z" class="color96a1aa svgShape"/><circle cx="294.407" cy="148.137" r=".542" fill="#aa9d96" class="color96a1aa svgShape"/><path fill="#aa9d96" d="M316.523 152.885a1.063 1.063 0 1 1 1.063-1.062 1.063 1.063 0 0 1-1.063 1.062Z" class="color96a1aa svgShape"/><circle cx="312.837" cy="151.823" r="1.022" fill="#aa9d96" class="color96a1aa svgShape"/><circle cx="309.151" cy="151.823" r=".981" fill="#aa9d96" class="color96a1aa svgShape"/><circle cx="305.465" cy="151.823" r=".94" fill="#aa9d96" class="color96a1aa svgShape"/><circle cx="301.779" cy="151.823" r=".797" fill="#aa9d96" class="color96a1aa svgShape"/><path fill="#aa9d96" d="M298.093 152.2a.378.378 0 1 1 .378-.377.378.378 0 0 1-.378.378ZM312.837 156.122a.613.613 0 1 1 .613-.614.613.613 0 0 1-.613.614ZM309.15 155.979a.47.47 0 1 1 .471-.47.47.47 0 0 1-.47.47Z" class="color96a1aa svgShape"/><circle cx="305.465" cy="155.508" r=".245" fill="#aa9d96" class="color96a1aa svgShape"/><path fill="#4a1c00" d="M301.359 147.093a19.742 19.742 0 0 1 2.41-1.185c.453-.265.965-1.388 1.415-1.893a.441.441 0 0 1 .505.015.947.947 0 0 1 .008.65 6.492 6.492 0 0 1-2.714 2.361 5.568 5.568 0 0 1-1.056.304v.411s-.389.517-.583.589a5.457 5.457 0 0 1-1.909-.262s-.028.046-.061-.71c.814.003 1.33.185 1.985-.28Z" class="color001c4a svgShape"/><path fill="#f95f03" d="M301.778 147.054c-.166.126-.394.462-.588.537a5.389 5.389 0 0 1-1.805-.155 6.048 6.048 0 0 1 .178-2.503 1.76 1.76 0 0 1 .799-.81 7.351 7.351 0 0 0 3.246-.504c.533-.3 1.792-.161 2.07.384.181.359-.9 1.418-1.975 2.1-.975.618-1.47.606-1.925.95Z" class="colorf9035c svgShape"/><path fill="#ffe1cf" d="M300.046 145.599a3.27 3.27 0 0 0 .93.162c.551.039 1.013-.073 1.097-.891.014-.134 0-1.986 0-1.986 0-.35-2.433-.417-2.499-.24-.105.278-.006 2.694.472 2.955Z" class="colorffd7cf svgShape"/><path fill="#4a1c00" d="M309.49 152.406a19.17 19.17 0 0 1 2.34-1.15 11.955 11.955 0 0 0 2.058-1.578c.058-.065.564.292.78.425a.919.919 0 0 1 .009.63 4.645 4.645 0 0 1-3.363 1.778c-.263.043-1.077.194-1.077.194v.314s-.677.388-.866.458c-.428.16-2.054-.82-2.054-.82s-.028.044-.06-.69c.79.002 1.597.89 2.233.44Z" class="color001c4a svgShape"/><path fill="#f95f03" d="M309.75 152.366a2.515 2.515 0 0 1-.529.379c-.41.158-1.953-.717-1.953-.717a3.653 3.653 0 0 1 .272-1.671c.165-.483.982-.835.982-.835a16.822 16.822 0 0 0 3.683-.124 2.08 2.08 0 0 1 2.271.633c.177.349-1.292 1.503-2.7 1.84-1.465.35-1.584.16-2.026.495Z" class="colorf9035c svgShape"/><path fill="#ffe1cf" d="M308.49 150.444a2.925 2.925 0 0 0 1.035.183c.43 0 1.013-.073 1.097-.892.014-.133 0-1.876 0-1.876 0-.35-2.445-.082-2.512.095-.105.278-.156 2.199.38 2.49Z" class="colorffd7cf svgShape"/><path fill="#ffffff" d="m309.7 92.815-1.248 1.754-4.167-4.166.953-2.68 4.462 5.092z" class="colorfff svgShape"/><path fill="#f6ded0" d="M305.238 92.856s1.143.787 1.504 1.076a.391.391 0 0 0 .556-.044c.493-.613 1.5-1.414 1.994-2.027a.393.393 0 0 0-.06-.55 17.47 17.47 0 0 1-1.308-1.616Z" class="colord0d1f6 svgShape"/><path fill="#e5dcd6" d="M292.313 71.202c.592 5.867 1.768 10.935 4.85 15.608 2.216 3.357 2.66 3.58 5.455 5.567.462.33 1.63 1.09 2.121.89.63-.255 2.853-3.06 2.11-3.984a43.28 43.28 0 0 1-4.871-7.201c-1.779-3.441-1.423-10.479-4.329-14.05-2.233-2.742-5.623.313-5.336 3.17Z" class="colord6dae5 svgShape"/><path fill="#ffffff" d="m313.328 94.324-2.25 3.1-1.805-1.419a2.643 2.643 0 0 1-.994-1.626l1.148-1.964s1.556.194 1.842.22a10.894 10.894 0 0 1 1.77.61Z" class="colorfff svgShape"/><path fill="#ffffff" d="M314.494 94.928c.327-.386-.449-.794-1.348-1.763-.57-.615-2.086-.553-2.086-.553l.106.822 1.17.523s1.9 1.275 2.158.971ZM311.054 97.409a13.753 13.753 0 0 0 1.439.709 3.871 3.871 0 0 0 1.188.11c.102-.011.301-.098.34-.227.052-.174-.032-.235-.15-.287a9.665 9.665 0 0 0-1.077-.296l-1.37-.95Z" class="colorfff svgShape"/><path fill="#ffffff" d="m312.117 95.85-.655.662s1.152.828 1.567 1.05a6.117 6.117 0 0 0 1.432.492.497.497 0 0 0 .515-.186c.098-.158-.078-.336-.177-.393 0 0-.999-.414-1.326-.595a11.65 11.65 0 0 1-1.356-1.03Z" class="colorfff svgShape"/><path fill="#ffffff" d="M312.157 95.795s1.113.835 1.512 1.069a7.393 7.393 0 0 0 1.436.81c.27.083.475-.006.542-.166.078-.184-.079-.393-.234-.491 0 0-.882-.59-1.243-.826-.391-.256-1.429-1.191-1.429-1.191Z" class="colorfff svgShape"/><path fill="#ffffff" d="m313.337 94.268-.696.718s1.102.624 1.558.952a9.332 9.332 0 0 0 1.233.811c.164.073.434.14.53-.035a.466.466 0 0 0-.13-.55c-.282-.242-.986-.657-1.295-.862-.33-.218-1.2-1.034-1.2-1.034Z" class="colorfff svgShape"/><path fill="#ffd8c2" d="M304.585 55.743a55.615 55.615 0 0 1 2.275 5.564c.622 3.093-.235 3.465-2.277 4.096-1.41.436-3.305.593-4.522-1.404a21.173 21.173 0 0 1-1.516-3.975c-.446-1.78 5.604-6.024 6.04-4.281Z" class="colorffccc2 svgShape"/><path fill="#f06c1d" d="M295.78 56.555c-.012-.734-.246-1.071.915-2.497.986-1.211 4.02-1.944 6.441-.977 2.486.993 2.014 1.982 1.43 2.406-.674.488-1.087.565-.908 1.755.143.958-4.067 2.458-4.067 2.458a1.143 1.143 0 0 1-.72-.027 1.543 1.543 0 0 0-1.271.218 4.495 4.495 0 0 1-1.82-3.336Z" class="colorf0a41d svgShape"/><path fill="#ffd8c2" d="m299.323 70.787 6.648.813-1.379-6.723-5.823-.762s.769 2.257.825 2.752c.336 3-.27 3.92-.27 3.92Z" class="colorffccc2 svgShape"/><path fill="#ffb58a" d="m304.586 65.186.1.483a2.01 2.01 0 0 1-1.372-.112 2.732 2.732 0 0 1-1.259-1.656l.351-.208a2.29 2.29 0 0 0 2.18 1.493Z" class="colorffa9a9 svgShape"/><path fill="#4a1c00" d="M298.397 134.118c.067-1.292.318-4.405.48-5.688a115.874 115.874 0 0 0 1.414-13.83c.07-4.756-.854-10.674-.854-12.817a40.894 40.894 0 0 1 .509-6.863l16.098 2.268s.76 9.029.87 10.893c.448 7.533-2.118 16.89-3.522 22.087-1.147 4.247-1.814 15.926-1.789 18.404-.1 1.815-4.16 1.367-4.181.373-.112-5.075-1.126-10.878-.955-15.136.034-.857.408-4.284.377-5.138a87.311 87.311 0 0 1 .103-9.45s-2.446 10.85-2.74 12.123a118.24 118.24 0 0 0-1.612 13.234c-.115 1.153-2.956 1.006-3.208.13a39.082 39.082 0 0 1-.99-10.59Z" class="color001c4a svgShape"/><path fill="#ff8239" d="M293.993 67.98c1.293-1.569 3.822-.454 5.683-.123a2.782 2.782 0 0 0 3.056 3.328 2.407 2.407 0 0 0 2.665-2.384c2.529.72 5.129.835 6.84 2.11 4.79 3.569 3.488 19.32 4.136 25.226.337 3.072-1.444 3.801-4.915 4.339-5.22.808-9.642.434-11.554-1.613-1.295-1.385-.637-2.784-.637-4.595 0-5.31.432-3.718-3.074-11.647-.983-2.223-5.365-10.8-2.2-14.64Z" class="color399eff svgShape"/><path fill="#f06c1d" d="M299.696 53.434c-2.898-1.053-5.09 2.058-5.886 3.556-.474.89-.5 1.429-.144 2.98a9.596 9.596 0 0 0 1.971 4.311c1.254 1.489 2.177 1.641 3.587 2.513.701.434 3.416.682 4.047-.64a10.166 10.166 0 0 0 .55-2.559c.298-5.832.417-8.51-4.125-10.16Z" class="colorf0a41d svgShape"/><path fill="#ffd8c2" d="m320.324 52.214 2.557-1.461.319 9.966-2.432 1.41-.444-9.915z" class="colorffccc2 svgShape"/><path fill="#ffd8c2" d="m319.058 48.25 3.3-1.252a18.94 18.94 0 0 1 .861 2.546c.39 2.367.089 2.907-.317 3.426l-2.5.349-1.266-2.247Z" class="colorffccc2 svgShape"/><path fill="#ffd8c2" d="M318.22 47.33c-.373-.07-.534.845-.148 2.087a10.608 10.608 0 0 0 1.44 2.259l.676-1.746-1.196-1.015s-.415-1.518-.771-1.585ZM322.358 46.998a12.603 12.603 0 0 0-.82-1.433 4.764 4.764 0 0 0-1-.82.377.377 0 0 0-.37.028.214.214 0 0 0-.012.318 9.153 9.153 0 0 0 .716.777l.652 1.478Z" class="colorffccc2 svgShape"/><path fill="#ffd8c2" d="m320.731 47.778.853-.162s-.605-1.593-.833-1.985a4.88 4.88 0 0 0-.823-1.019.425.425 0 0 0-.489-.092c-.148.088-.09.325-.037.422 0 0 .516.74.692 1.055a12.968 12.968 0 0 1 .637 1.781Z" class="colorffccc2 svgShape"/><path fill="#ffd8c2" d="M320.708 47.672s-.435-1.17-.644-1.563a7.201 7.201 0 0 0-.75-1.378c-.175-.202-.376-.226-.502-.122a.466.466 0 0 0-.036.534s.345.834.524 1.211c.193.41.59 1.713.59 1.713Z" class="colorffccc2 svgShape"/><path fill="#ffd8c2" d="m319.135 49.036.759-.977a6.018 6.018 0 0 0-.269-1.497 9.968 9.968 0 0 0-.638-1.317c-.096-.141-.28-.33-.434-.227a.432.432 0 0 0-.114.506c.114.345.696 3.512.696 3.512Z" class="colorffccc2 svgShape"/><path fill="#e5dcd6" d="M314.677 78.958c7.948-2.661 9.072-7.355 10.212-10.943 1.312-4.126-1.006-13.46-1.361-13.854-.455-.504-3.572-.232-3.576.954-.008 2.45-.177 8.648-.32 9.61-.129.858-2.152 3.896-8.254 6.308-3.289 1.3-2.699 9.933 3.3 7.925Z" class="colord6dae5 svgShape"/></svg>