<svg xmlns="http://www.w3.org/2000/svg" enable-background="new 0 0 2000 2000" viewBox="0 0 2000 2000"><path fill="#f7eee9" fill-rule="evenodd" d="M1002.9,388.2c179.6,0,159.1,317.2,288.8,414c171.6,128,466.9,64.6,466.9,284.3   c0,385.6-383,525.3-800.4,525.3c-417.4,0-773.6-213.9-649.3-598.5C433.3,628.7,585.5,388.2,1002.9,388.2z" clip-rule="evenodd" class="colore9eef7 svgShape"/><polygon fill="#fac5a7" fill-rule="evenodd" points="923.1 947.3 892.1 947.2 892.2 917 869.3 917 869.2 947.2 838.4 947.1 838.4 968.8 869.2 968.9 869.1 999.1 892.1 999.2 892.1 968.9 923.1 969" clip-rule="evenodd" class="colorfabea7 svgShape"/><polygon fill="#ff6103" fill-rule="evenodd" points="924 946 893 945.9 893.1 915.7 870.1 915.7 870.1 945.9 839.3 945.8 839.3 967.5 870.1 967.6 870 997.8 892.9 997.9 893 967.6 923.9 967.7" clip-rule="evenodd" class="colorf47a44 svgShape"/><polygon fill="#fba674" fill-rule="evenodd" points="1157.8 1116.5 1190 1215.7 1105.6 1154.4 1021.3 1215.7 1021.3 1215.7 1053.5 1116.5 969.2 1055.3 969.2 1055.3 1073.4 1055.3 1105.4 956.7 1105.6 956.2 1105.6 956.1 1105.7 956.3 1105.8 956.7 1137.9 1055.3 1242.1 1055.3" clip-rule="evenodd" class="colorfb9674 svgShape"/><polygon fill="#ff6103" fill-rule="evenodd" points="1105.4 958.8 1103.7 1155.9 1105.6 1154.4 1189.8 1215.6 1189.1 1212.9 1157.8 1116.5 1240.7 1056.3 1217.3 1055.3 1137.9 1055.3 1107 960.4 1105.9 957.4" clip-rule="evenodd" class="colorf47a44 svgShape"/><path fill="#ff6103" fill-rule="evenodd" d="M1113.1,969.8l29.5,78.7l81.3,3.6c2.9,0.1,5.2,0.2,7.2,0.3c7,0.2,10.5,0.3,11.1,2.9c0.6,2.3-1.9,4.3-6.9,8.1    c-1.8,1.4-4,3-6.9,5.3l-63.1,50.3l19.6,71.1c1.2,4.2,2.2,7.8,3.1,10.7c2.5,8.5,3.8,12.7,1.4,14.4c-2.3,1.7-6-0.8-13.2-5.8l0,0    c-2.5-1.7-5.6-3.8-9.3-6.3l-61.5-40.6l-68.8,45.4c-2.9,1.9-5.1,3.4-6.8,4.7l0,0c-4.4,3.1-6.7,4.7-8.6,3.6    c-2.3-1.3-1.5-4.4,0.4-11.1c0.5-1.8,1.1-3.8,1.5-5.2l22.4-80.9l-62.5-49.8l0,0c-3.2-2.6-5.7-4.5-7.8-6.1c-4.4-3.4-6.8-5.2-6.5-7.4    c0.4-3,4.2-3.1,12.6-3.3l4.8-0.2l82.3-3.7l29.3-78.3c1-2.6,1.8-4.8,2.4-6.7c1.8-5.3,2.8-7.9,5.1-8c2.5-0.1,3.4,2.7,5.5,8.3    C1111.6,965.6,1112.4,967.9,1113.1,969.8L1113.1,969.8z M1138.9,1051.4l-30-80.1c-1-2.8-1.7-4.6-2.2-6.1c-1.3-3.6-0.2-5.4-1.1-5.3    c-0.8,0,0.2,1.7-1,5c-0.6,1.8-1.4,4.1-2.5,6.8l-29.9,79.7l-0.5,1.4l-1.5,0.1l-83.8,3.7h0l-4.8,0.2h0c-5.7,0.2-8.1-1.5-8.2-0.6    c-0.1,0.4,1.7,0.9,4.8,3.2c2.2,1.6,4.9,3.7,7.9,6.2v0l63.6,50.7l1.2,0.9l-0.4,1.4l-22.8,82.3c-0.7,2.6-1.1,4-1.5,5.3    c-1.2,4.3-3.4,5.4-2.6,5.9c0.5,0.3,1-1.4,3.8-3.3h0c1.9-1.3,4.3-3,6.9-4.7l70-46.3l1.2-0.8l1.2,0.8l62.8,41.5    c3.6,2.4,6.8,4.5,9.3,6.3c5.5,3.8,7.8,6,8,5.9c0.2-0.2-1.2-3-3.1-9.5c-0.9-3-1.9-6.6-3.1-10.8l-20-72.5l-0.4-1.4l1.2-0.9    l64.2-51.2c2.5-2,4.9-3.8,6.9-5.4c3.4-2.6,5.4-2.8,5.3-3.3c-0.2-0.7-2.1,0.6-6.9,0.5c-2.1-0.1-4.6-0.1-7.3-0.3l-82.8-3.7l-1.5-0.1    L1138.9,1051.4z" clip-rule="evenodd" class="colorf47a44 svgShape"/><path fill="#ffb58a" fill-rule="evenodd" d="M600.1,720.1c67.5-0.7,129.2,45.2,159.1,111.4c18.2,36.6,70.8,126.3,81.3,130.4     c18.3-87.9-21.8-102.7-27.8-175.8c11.5-29.1,41.5-12.5,64.9,3.9c26,35.6,40.3,93.9,43,174.8c3.4,16.1,10.9,21,22.3,14.7     c18.6-32.8,21.4-114.3,8.3-244.4c-50-50.4-160-104-330-160.7C621.2,641,614.2,689.6,600.1,720.1z" clip-rule="evenodd" class="colorffb17d svgShape"/><path fill="#ed9969" fill-rule="evenodd" d="M425.3,734.3c40.6,1.2,82.4,2.3,125.3,3.3c10.9-47.4,14.1-109.5,14.4-199.6     c-55.4,51.6-101.1,115.5-140.9,190.2C424.5,730.3,424.9,732.3,425.3,734.3z" clip-rule="evenodd" class="color699ced svgShape"/><path fill="#ffffff" fill-rule="evenodd" d="M565,545.8c27.8,8.5,46.5,15.1,56.1,19.8c0.8,76.6-7.4,130.4-24.5,161.4c-14.9,0.7-29.6,1.1-44,1.2     C561.6,683.5,564.6,626,565,545.8z" clip-rule="evenodd" class="colorfff svgShape"/><path fill="#ca794a" fill-rule="evenodd" d="M558.7,688.8c-29.4-7.6-63-14-100.6-19.2c-11.8,18.7-23.1,38.3-33.9,58.7c0.4,2,0.8,4,1.2,6     c40.6,1.2,82.4,2.3,125.3,3.3c0.7-3.1,1.4-6.2,2-9.4C555.1,716.1,557,703,558.7,688.8z" clip-rule="evenodd" class="color4a75ca svgShape"/><path fill="#ebd2c4" fill-rule="evenodd" d="M558.7,688.8c-1.6,14.2-3.6,27.3-6,39.4c14.4-0.1,29.1-0.4,44-1.2c1.2-2.2,2.4-4.5,3.5-7     c2.3-5,4.4-10.5,6.3-16.4C592,698.3,576,693.3,558.7,688.8z" clip-rule="evenodd" class="colorc4d1eb svgShape"/><path fill="#ffbf66" fill-rule="evenodd" d="M606.5,703.6c-1.9,6-4,11.4-6.3,16.4c25.1-0.2,49.4,5.9,71.6,17.2C654.7,724.7,633,713.4,606.5,703.6z" clip-rule="evenodd" class="coloref8161 svgShape"/><path fill="#ffb58a" fill-rule="evenodd" d="M1517.6,1334.3c-5-4.4-8-7.4-12.4-12.4c-72.8-80.2-131.1-124.7-175-133.3c-11.7-2.3-27.7-1.1-40-1.1     c-104.6,0-168.6,0-192.2,0c-7.2,0-10.5-1.4-16,3.6c-5.7,5.2-3.8,11.8,5.7,19.9c23.7,18.9,59.6,28.6,107.6,29     c8.5,0.2,15.2,0.4,20,0.5c4.8,0.1,9.1-0.8,11.4,4.4c0.5,1,0.7,2.2,0.9,3.6c-81.6-0.7-122.4-1.1-122.4-1.1     c-14.9-0.3-31.3-8.2-49.3-23.9c-70-57.6-114.3-81.3-133-71.2c-9.1,4.8-8.7,11.8,1,20.9c73.7,90.8,145.1,141.9,214.4,153.4     c12.5,2.1,19.7,2.2,32.1,1.2c120.9-9.6,184.8-5.9,191.6,11.2c44.6,55.9,66.8,83.9,66.8,83.9     C1488.1,1363.8,1517.6,1334.3,1517.6,1334.3z" clip-rule="evenodd" class="colorffb17d svgShape"/><path fill="#ed9969" fill-rule="evenodd" d="M1449.8,1525.8c-9.6-13-19.3-26.1-29.1-39.3c32.7-36.3,82-74.9,156-127.3c13.3,11.2,30,25.7,48.2,42.3     c0.8,3.3,1.4,6.6,1.9,9.8C1578.3,1458.4,1518.2,1496.3,1449.8,1525.8z" clip-rule="evenodd" class="color699ced svgShape"/><path fill="#ffffff" fill-rule="evenodd" d="M1570.1,1363.9c-23-17.9-39.2-29.5-48.7-34.7c-63.4,43.6-102.9,81.4-118.6,113.3c8,12.7,16.2,24.9,24.4,36.8     C1458.9,1446.2,1504.4,1410.5,1570.1,1363.9z" clip-rule="evenodd" class="colorfff svgShape"/><path fill="#ca794a" fill-rule="evenodd" d="M1456.2,1451.7c16.1,13.6,32.8,29.2,50.1,46.8c-18.1,9.8-36.9,18.9-56.5,27.4c-9.6-13-19.3-26.1-29.1-39.3     c2.1-2.4,4.3-4.7,6.6-7.1C1435.8,1470.4,1445.4,1461.2,1456.2,1451.7z" clip-rule="evenodd" class="color4a75ca svgShape"/><path fill="#ebd2c4" fill-rule="evenodd" d="M1456.2,1451.7c-10.7,9.5-20.3,18.7-28.9,27.7c-8.3-11.9-16.4-24.2-24.4-36.8c1.1-2.3,2.3-4.6,3.7-6.9     c2.8-4.8,6.1-9.7,9.9-14.7C1429.2,1429.8,1442.4,1440,1456.2,1451.7z" clip-rule="evenodd" class="colorc4d1eb svgShape"/><path fill="#ffffff" fill-rule="evenodd" d="M1111.4,885.2L1111.4,885.2c1.7,0,3.2,1.4,3.2,3.2v40.1c0,1.7-1.4,3.2-3.2,3.2l0,0c-1.8,0-3.2-1.4-3.2-3.2   v-40.1C1108.2,886.7,1109.6,885.2,1111.4,885.2L1111.4,885.2z M984.4,959.3L984.4,959.3c-0.6,1.6,0.2,3.5,1.9,4.1l37.6,13.9   c1.6,0.6,3.5-0.2,4.1-1.9v0c0.6-1.6-0.2-3.5-1.9-4.1l-37.6-13.9C986.9,956.8,985,957.6,984.4,959.3L984.4,959.3z M1033.6,905.3   L1033.6,905.3c-1.4,1-1.7,3-0.7,4.5l24,32.2c1,1.4,3,1.7,4.5,0.7l0,0c1.4-1,1.7-3,0.7-4.5l-24-32.2   C1037,904.5,1035,904.3,1033.6,905.3L1033.6,905.3z M1238.3,959.3L1238.3,959.3c0.6,1.6-0.2,3.5-1.9,4.1l-37.6,13.9   c-1.6,0.6-3.5-0.2-4.1-1.9v0c-0.6-1.6,0.2-3.5,1.9-4.1l37.6-13.9C1235.8,956.8,1237.7,957.6,1238.3,959.3L1238.3,959.3z    M1189.1,905.3L1189.1,905.3c1.4,1,1.7,3,0.7,4.5l-24,32.2c-1,1.4-3,1.7-4.5,0.7l0,0c-1.4-1-1.7-3-0.7-4.5l24-32.2   C1185.7,904.5,1187.7,904.3,1189.1,905.3z" clip-rule="evenodd" class="colorfff svgShape"/><path fill="#fbc3a3" fill-rule="evenodd" d="M253.6 881.1h171.1c2.7 0 4.9-2.2 4.9-4.9 0-2.7-2.2-4.9-4.9-4.9H253.6c-2.7 0-4.9 2.2-4.9 4.9C248.7 878.8 250.9 881.1 253.6 881.1L253.6 881.1zM498.1 840.3h20.4c2.7 0 4.9-2.2 4.9-4.9 0-2.7-2.2-4.9-4.9-4.9l-20.4 0c-2.7 0-4.9 2.2-4.9 4.9C493.1 838.1 495.3 840.3 498.1 840.3L498.1 840.3zM465.5 881.1h16.3c2.7 0 4.9-2.2 4.9-4.9 0-2.7-2.2-4.9-4.9-4.9h-16.3c-2.7 0-4.9 2.2-4.9 4.9C460.6 878.8 462.7 881.1 465.5 881.1L465.5 881.1zM286.2 840.3h179.3c2.7 0 4.9-2.2 4.9-4.9s-2.2-4.9-4.9-4.9l-179.3 0c-2.7 0-4.9 2.2-4.9 4.9C281.3 838.1 283.5 840.3 286.2 840.3zM1047.9 620.8h171.1c2.7 0 4.9-2.2 4.9-4.9 0-2.7-2.2-4.9-4.9-4.9h-171.1c-2.7 0-4.9 2.2-4.9 4.9C1043 618.6 1045.2 620.8 1047.9 620.8L1047.9 620.8zM1292.4 580.1h20.4c2.7 0 4.9-2.2 4.9-4.9 0-2.7-2.2-4.9-4.9-4.9l-20.4 0c-2.7 0-4.9 2.2-4.9 4.9C1287.5 577.9 1289.7 580.1 1292.4 580.1L1292.4 580.1zM1259.8 620.8h16.3c2.7 0 4.9-2.2 4.9-4.9 0-2.7-2.2-4.9-4.9-4.9h-16.3c-2.7 0-4.9 2.2-4.9 4.9C1254.9 618.6 1257.1 620.8 1259.8 620.8L1259.8 620.8zM1080.5 580.1h179.3c2.7 0 4.9-2.2 4.9-4.9s-2.2-4.9-4.9-4.9l-179.3 0c-2.7 0-4.9 2.2-4.9 4.9C1075.6 577.9 1077.8 580.1 1080.5 580.1zM556.6 1328h171.1c2.7 0 4.9-2.2 4.9-4.9 0-2.7-2.2-4.9-4.9-4.9H556.6c-2.7 0-4.9 2.2-4.9 4.9C551.7 1325.8 553.9 1328 556.6 1328L556.6 1328zM801.1 1287.3h20.4c2.7 0 4.9-2.2 4.9-4.9 0-2.7-2.2-4.9-4.9-4.9l-20.4 0c-2.7 0-4.9 2.2-4.9 4.9C796.1 1285.1 798.3 1287.3 801.1 1287.3L801.1 1287.3zM768.5 1328h16.3c2.7 0 4.9-2.2 4.9-4.9 0-2.7-2.2-4.9-4.9-4.9h-16.3c-2.7 0-4.9 2.2-4.9 4.9C763.6 1325.8 765.7 1328 768.5 1328L768.5 1328zM589.2 1287.3h179.3c2.7 0 4.9-2.2 4.9-4.9 0-2.7-2.2-4.9-4.9-4.9l-179.3 0c-2.7 0-4.9 2.2-4.9 4.9C584.3 1285.1 586.5 1287.3 589.2 1287.3zM1392.7 1149.7h171.1c2.7 0 4.9-2.2 4.9-4.9 0-2.7-2.2-4.9-4.9-4.9h-171.1c-2.7 0-4.9 2.2-4.9 4.9C1387.8 1147.5 1390 1149.7 1392.7 1149.7L1392.7 1149.7zM1637.2 1108.9h20.4c2.7 0 4.9-2.2 4.9-4.9 0-2.7-2.2-4.9-4.9-4.9l-20.4 0c-2.7 0-4.9 2.2-4.9 4.9C1632.3 1106.7 1634.5 1108.9 1637.2 1108.9L1637.2 1108.9zM1604.6 1149.7h16.3c2.7 0 4.9-2.2 4.9-4.9 0-2.7-2.2-4.9-4.9-4.9h-16.3c-2.7 0-4.9 2.2-4.9 4.9C1599.7 1147.5 1601.9 1149.7 1604.6 1149.7L1604.6 1149.7zM1425.3 1108.9h179.3c2.7 0 4.9-2.2 4.9-4.9s-2.2-4.9-4.9-4.9l-179.3 0c-2.7 0-4.9 2.2-4.9 4.9C1420.4 1106.7 1422.6 1108.9 1425.3 1108.9z" clip-rule="evenodd" class="colora3cffb svgShape"/><path fill="#ffffff" fill-rule="evenodd" d="M976.4 583.3c-1.7-3-4.4-5.3-7.7-6.8-2.7-1.2-5.7-1.7-8.6-1.4-1.5.2-2.9.5-4.2 1.2-2.3 1.1-3.5 2.6-6.2 1.8-3.3-1-5.1-5.5-8-7.5-2.5-1.8-5.5-2.8-8.5-3.2-6-.8-11.9 1.1-16.1 5.3-6.7-22.1-17.3-47.1-43.9-48.3-13.2-.6-25.8 4.8-36 12.8-5.5 4.3-10.4 9.3-14.9 14.6-2 2.4-4 4.9-5.9 7.4-3.2 4.2-5.7 7.2-11.4 6-12.9-2.6-21.3 8-27.2 18.1H976.4zM1213.6 784.7c-19.3-47.6-54.8-8.5-54.8-8.5s-3.2-73.6-65.8-66.1c-60.9 7.3-45.2 77.1-45.2 77.1-14.5.9-22.6 6.1-27.1 12.2-2.5 3.4-2.8 7.4-1.8 11h251c4.7-5.6 5.6-14.9.2-21.8C1251.8 765.4 1213.6 784.7 1213.6 784.7zM428.6 1058.7l110.5 2.5 102.9-3.8-42.7-10c2.6-17.7-6.9-27.4-18.2-28-5.5-.2-14.1 2.9-15.9 12.2-.6-26.1-17.4-35.2-31.8-35.2-14.2.1-25.9 9-30.9 44-8.4-34.3-46.4-29.9-42.6 8.4L428.6 1058.7zM1076.5 1424.6c-1.7-3-4.4-5.3-7.7-6.8-2.7-1.2-5.7-1.7-8.6-1.4-1.5.2-2.9.5-4.2 1.2-2.3 1.1-3.5 2.6-6.2 1.7-3.3-1-5.1-5.5-8-7.5-2.5-1.8-5.5-2.8-8.5-3.2-6-.8-11.9 1.1-16.1 5.3-6.7-22.1-17.3-47.1-43.9-48.3-13.2-.6-25.8 4.8-36 12.8-5.5 4.3-10.4 9.3-14.9 14.6-2 2.4-4 4.9-5.9 7.4-3.2 4.2-5.7 7.2-11.4 6-12.9-2.6-21.3 8-27.2 18.1H1076.5z" clip-rule="evenodd" class="colorfff svgShape"/></svg>