<svg xmlns="http://www.w3.org/2000/svg" enable-background="new 0 0 2000 2000" viewBox="69.583 187.606 1890.621 1629.408"><g opacity=".62"><path fill="#ffcaab" d="M158.05 878.95L158.05 878.95c-1.71-119.57 118.94-197.86 237.71-183.38-63.62-48.54-21.63-151.17 59.25-148.33 0 0 136.55 0 136.55 0-45.64-34.63-15.78-108.26 42.23-106.22 0 0 342.87 0 342.87 0 35.8 0 64.82 27.06 64.82 60.44.47 87.61-140.43 54.57-193.2 60.44-47.95 27.5-52.89 100.82-8.26 133.69 154.56-.38 399.61-33.98 407.82 183.38l0 0c0 101.28-88.06 183.38-196.68 183.38h279.71c119.11 1.97 119.11 166.97 0 168.93 158.8-14.12 329.24 23.35 362.37 194.8 94.14-12.5 189.03 46.04 180.49 144.36-2.94 194.34-309.55 116.26-428.89 131.07-40.16.31-1025.73-.23-1034.62-.01-331.18-5.37-331.85-464.73.02-470.23-.01 0 441.45 0 441.45 0-119.16-1.99-119.08-166.97 0-168.93H354.73C246.11 1062.33 158.05 980.22 158.05 878.95zM1160.37 561.88c-77-.33-77-120.55 0-120.87C1237.38 441.34 1237.37 561.56 1160.37 561.88z" class="colorabe9ff svgShape"/></g><ellipse cx="1004.42" cy="1700.08" fill="#23201f" opacity=".15" rx="848.9" ry="42.87" class="color231f20 svgShape"/><path fill="#c66c38" d="M1787.46,866.17c0.54-0.71,1.06-1.42,1.56-2.15c0.34-0.5,0.66-1.01,0.98-1.53c0.46-0.73,0.9-1.48,1.32-2.24    c0.3-0.54,0.59-1.08,0.86-1.63c0.4-0.79,0.76-1.59,1.12-2.4c0.24-0.55,0.49-1.1,0.71-1.66c0.35-0.88,0.65-1.77,0.95-2.68    c0.17-0.52,0.36-1.03,0.52-1.56c0.34-1.17,0.63-2.36,0.89-3.57c0.06-0.28,0.14-0.55,0.2-0.83c0-0.02,0.01-0.03,0.01-0.05l0,0    c0.61-3.13,0.94-6.36,0.94-9.68c0-26.87-21.09-48.66-47.11-48.66c-26.02,0-47.11,21.78-47.11,48.66    c0,25.42,18.88,46.25,42.93,48.44l0.03,0.03c1.37,0.12,2.75,0.19,4.15,0.19c1.53,0,3.05-0.09,4.54-0.24    c0.49-0.05,0.97-0.14,1.46-0.2c1-0.13,1.99-0.27,2.97-0.47c0.56-0.11,1.11-0.25,1.67-0.39c0.88-0.21,1.76-0.44,2.63-0.7    c0.57-0.17,1.13-0.36,1.69-0.56c0.83-0.29,1.65-0.6,2.46-0.93c0.55-0.23,1.09-0.45,1.63-0.7c0.81-0.37,1.6-0.77,2.38-1.18    c0.5-0.26,1-0.52,1.49-0.8c0.82-0.48,1.62-0.99,2.41-1.51c0.41-0.27,0.84-0.53,1.24-0.81c1.05-0.74,2.07-1.53,3.06-2.36    c0.12-0.1,0.24-0.18,0.36-0.28c1.09-0.93,2.14-1.92,3.14-2.95c0.33-0.34,0.64-0.7,0.96-1.05c0.66-0.71,1.31-1.43,1.93-2.19    C1786.78,867.09,1787.11,866.63,1787.46,866.17z" class="color3885c6 svgShape"/><radialGradient id="a" cx="1363.821" cy="1025.781" r="2.573" gradientTransform="matrix(18.6521 0 0 18.1053 -23688.438 -17736.445)" gradientUnits="userSpaceOnUse"><stop offset="0" stop-color="#ffffff" class="stopColorfff svgShape"/><stop offset=".026" stop-color="#fffdfc" class="stopColorfcfeff svgShape"/><stop offset=".278" stop-color="#fbe9de" class="stopColordef2fb svgShape"/><stop offset=".527" stop-color="#f9dbc9" class="stopColorc9eaf9 svgShape"/><stop offset=".77" stop-color="#f7d2bc" class="stopColorbce6f7 svgShape"/><stop offset="1" stop-color="#f7cfb8" class="stopColorb8e4f7 svgShape"/></radialGradient><ellipse cx="1749.69" cy="835.62" fill="url(#a)" rx="46.4" ry="48.08"/><path fill="#c66c38" d="M1795.18,845.19l-39.87-40.61l-10.33,26.57l-6.2,1.63l-2.92-2.87l-13.73,29.33l23.47,24.28     c1.35,0.12,2.71,0.19,4.09,0.19C1772.16,883.7,1790.89,867.16,1795.18,845.19z" class="color3885c6 svgShape"/><path fill="#ffffff" d="M1774.16 832.44c2.04-.29 3.61-2.09 3.61-4.28l0 0c0-2.39-1.87-4.32-4.17-4.32l-15.99 0c-.6 0-1.04-.59-.89-1.19.63-2.56 1.88-8.84.6-14.53-1.07-4.74-3.92-5.77-5.81-5.9-.98-.07-1.8.74-1.77 1.75l.22 8.54c.02.69-.15 1.37-.47 1.97-2.36 4.3-6.6 13.1-7.73 15.45-.19.39-.45.74-.78 1.01l-2.17 1.84v21.46c.92 1.55 5.33 3.07 5.33 3.07l23.93 0c2.16 0 4.01-1.73 4.09-3.97.06-1.65-.83-3.09-2.14-3.8h1.8c2.17 0 4.03-1.75 4.09-4 .05-2.03-1.31-3.74-3.15-4.14l1.31 0c2.35 0 4.25-1.97 4.25-4.4v-.16C1778.3 834.44 1776.45 832.5 1774.16 832.44zM1734.62 829.36l-11.74 0c-.97 0-1.76.82-1.76 1.82l0 26.4c0 1.01.79 1.82 1.76 1.82h11.74c.97 0 1.76-.82 1.76-1.82v-26.4C1736.38 830.18 1735.59 829.36 1734.62 829.36z" class="colorfff svgShape"/><path fill="#c66c38" d="M1437.12,403.93c0.54-0.71,1.06-1.42,1.56-2.15c0.34-0.5,0.66-1.01,0.98-1.53c0.46-0.73,0.9-1.48,1.32-2.24    c0.3-0.54,0.59-1.08,0.86-1.63c0.4-0.79,0.76-1.59,1.12-2.4c0.24-0.55,0.49-1.1,0.71-1.66c0.35-0.88,0.65-1.77,0.95-2.68    c0.17-0.52,0.36-1.03,0.52-1.56c0.34-1.17,0.63-2.36,0.89-3.57c0.06-0.28,0.14-0.55,0.2-0.83c0-0.02,0.01-0.03,0.01-0.05l0,0    c0.61-3.13,0.94-6.36,0.94-9.68c0-26.87-21.09-48.66-47.11-48.66c-26.02,0-47.11,21.78-47.11,48.66    c0,25.42,18.88,46.25,42.93,48.44l0.03,0.03c1.37,0.12,2.75,0.19,4.15,0.19c1.53,0,3.05-0.09,4.54-0.24    c0.49-0.05,0.97-0.14,1.46-0.2c1-0.13,1.99-0.27,2.97-0.47c0.56-0.11,1.11-0.25,1.67-0.39c0.88-0.21,1.76-0.44,2.63-0.7    c0.57-0.17,1.13-0.36,1.69-0.56c0.83-0.29,1.65-0.6,2.46-0.93c0.55-0.23,1.09-0.45,1.63-0.7c0.81-0.37,1.6-0.77,2.38-1.18    c0.5-0.26,1-0.52,1.49-0.8c0.82-0.48,1.62-0.99,2.41-1.51c0.41-0.27,0.84-0.53,1.24-0.81c1.05-0.74,2.07-1.53,3.06-2.36    c0.12-0.1,0.24-0.18,0.36-0.28c1.09-0.93,2.14-1.92,3.14-2.95c0.33-0.34,0.64-0.7,0.96-1.05c0.66-0.71,1.31-1.43,1.93-2.19    C1436.44,404.85,1436.77,404.39,1437.12,403.93z" class="color3885c6 svgShape"/><radialGradient id="b" cx="1345.038" cy="1000.25" r="2.573" gradientTransform="matrix(18.6521 0 0 18.1053 -23688.438 -17736.445)" gradientUnits="userSpaceOnUse"><stop offset="0" stop-color="#ffffff" class="stopColorfff svgShape"/><stop offset=".026" stop-color="#fffdfc" class="stopColorfcfeff svgShape"/><stop offset=".278" stop-color="#fbe9de" class="stopColordef2fb svgShape"/><stop offset=".527" stop-color="#f9dbc9" class="stopColorc9eaf9 svgShape"/><stop offset=".77" stop-color="#f7d2bc" class="stopColorbce6f7 svgShape"/><stop offset="1" stop-color="#f7cfb8" class="stopColorb8e4f7 svgShape"/></radialGradient><ellipse cx="1399.35" cy="373.38" fill="url(#b)" rx="46.4" ry="48.08"/><path fill="#c66c38" d="M1444.83,382.95l-39.87-40.61l-10.33,26.57l-6.2,1.63l-2.92-2.87l-13.73,29.33l23.47,24.28     c1.35,0.12,2.71,0.19,4.09,0.19C1421.82,421.46,1440.55,404.92,1444.83,382.95z" class="color3885c6 svgShape"/><path fill="#ffffff" d="M1423.82 370.19c2.04-.29 3.61-2.09 3.61-4.28l0 0c0-2.39-1.87-4.32-4.17-4.32l-15.99 0c-.6 0-1.04-.59-.89-1.19.63-2.56 1.88-8.84.6-14.53-1.07-4.74-3.92-5.77-5.81-5.9-.98-.07-1.8.74-1.77 1.75l.22 8.54c.02.69-.15 1.37-.47 1.97-2.36 4.3-6.6 13.1-7.73 15.45-.19.39-.45.74-.78 1.01l-2.17 1.84 0 21.46c.92 1.55 5.33 3.07 5.33 3.07l23.93 0c2.16 0 4.01-1.73 4.09-3.97.06-1.65-.83-3.09-2.14-3.8h1.8c2.17 0 4.03-1.75 4.09-4 .05-2.03-1.31-3.74-3.15-4.14l1.31 0c2.35 0 4.25-1.97 4.25-4.4v-.16C1427.96 372.2 1426.11 370.25 1423.82 370.19zM1384.28 367.12l-11.74 0c-.97 0-1.76.82-1.76 1.82l0 26.4c0 1.01.79 1.82 1.76 1.82h11.74c.97 0 1.76-.82 1.76-1.82v-26.4C1386.04 367.94 1385.25 367.12 1384.28 367.12z" class="colorfff svgShape"/><radialGradient id="c" cx="1284.746" cy="959.318" r="2.923" gradientTransform="translate(-23688.438 -17575.363) scale(18.6521)" gradientUnits="userSpaceOnUse"><stop offset="0" stop-color="#ffffff" class="stopColorfff svgShape"/><stop offset=".026" stop-color="#fffdfc" class="stopColorfcfeff svgShape"/><stop offset=".278" stop-color="#fbe9de" class="stopColordef2fb svgShape"/><stop offset=".527" stop-color="#f9dbc9" class="stopColorc9eaf9 svgShape"/><stop offset=".77" stop-color="#f7d2bc" class="stopColorbce6f7 svgShape"/><stop offset="1" stop-color="#f7cfb8" class="stopColorb8e4f7 svgShape"/></radialGradient><ellipse cx="274.77" cy="317.93" fill="url(#c)" rx="52.71" ry="56.26"/><path fill="#c66c38" d="M310.85,297.73l-41.43,14.95l-7.04,1.91l-3.31-3.36l-3.99,8.78l19.89,34.59l4.59,19.36    c23.36-2.25,42.32-20.76,46.87-44.84L310.85,297.73z" class="color3885c6 svgShape"/><path fill="#ffffff" d="M309.13,295.14c-12.47-16.97-31.88,1.02-31.88,1.02s-20.41-20.02-34.73-1.08     c-14.32,18.94,13.37,36.89,32.45,59.53C308.85,323.99,321.6,312.11,309.13,295.14z" class="colorfff svgShape"/><path fill="#f7b792" d="M1609.3,1431.06H243.57c-18.24,0-33.03-14.79-33.03-33.03V524.11c0-18.24,14.79-33.03,33.03-33.03H1609.3    c18.24,0,33.03,14.79,33.03,33.03v873.92C1642.33,1416.27,1627.55,1431.06,1609.3,1431.06z" class="color92bff7 svgShape"/><rect width="1357.49" height="852.68" x="247.69" y="515.77" fill="#8c4d29" class="color29478c svgShape"/><path fill="#dd8d5f" d="M290.16 1403c0 8.34-6.89 15.1-15.4 15.1-8.5 0-15.4-6.76-15.4-15.1 0-8.34 6.89-15.1 15.4-15.1C283.27 1387.9 290.16 1394.65 290.16 1403zM341.85 1403c0 8.34-6.89 15.1-15.4 15.1-8.5 0-15.4-6.76-15.4-15.1 0-8.34 6.89-15.1 15.4-15.1C334.96 1387.9 341.85 1394.65 341.85 1403zM393.54 1403c0 8.34-6.89 15.1-15.4 15.1-8.5 0-15.4-6.76-15.4-15.1 0-8.34 6.89-15.1 15.4-15.1C386.65 1387.9 393.54 1394.65 393.54 1403z" class="color5f9bdd svgShape"/><g><path fill="#f9e0d2" d="M1326.01,1148.92H526.87c-27.48,0-49.76-22.28-49.76-49.76V989.44c0-27.48,22.28-49.76,49.76-49.76h799.14    c27.48,0,49.76,22.28,49.76,49.76v109.72C1375.77,1126.64,1353.49,1148.92,1326.01,1148.92z" class="colord2edf9 svgShape"/><polygon fill="#ff6103" points="653.41 989.3 671.28 1025.51 711.24 1031.32 682.32 1059.5 689.15 1099.3 653.41 1080.51 617.67 1099.3 624.49 1059.5 595.58 1031.32 635.54 1025.51" class="coloref8328 svgShape"/><polygon fill="#ff6103" points="789.92 989.3 807.79 1025.51 847.75 1031.32 818.84 1059.5 825.66 1099.3 789.92 1080.51 754.18 1099.3 761.01 1059.5 732.09 1031.32 772.05 1025.51" class="coloref8328 svgShape"/><polygon fill="#ff6103" points="926.44 989.3 944.31 1025.51 984.27 1031.32 955.35 1059.5 962.18 1099.3 926.44 1080.51 890.7 1099.3 897.52 1059.5 868.61 1031.32 908.57 1025.51" class="coloref8328 svgShape"/><polygon fill="#ff6103" points="1062.95 989.3 1080.82 1025.51 1120.78 1031.32 1091.87 1059.5 1098.69 1099.3 1062.95 1080.51 1027.21 1099.3 1034.04 1059.5 1005.13 1031.32 1045.08 1025.51" class="coloref8328 svgShape"/><polygon fill="#f7a779" points="1199.47 989.3 1217.34 1025.51 1257.3 1031.32 1228.38 1059.5 1235.21 1099.3 1199.47 1080.51 1163.73 1099.3 1170.56 1059.5 1141.64 1031.32 1181.6 1025.51" class="color79d0f7 svgShape"/></g><g><rect width="8.17" height="276.19" x="1365" y="1429.5" fill="#d6ae96" transform="rotate(-10.532 1368.835 1567.344)" class="color96b0d6 svgShape"/><rect width="8.17" height="276.19" x="1450.39" y="1429.5" fill="#d6ae96" transform="rotate(-10.532 1454.21 1567.35)" class="color96b0d6 svgShape"/><rect width="86.32" height="8.16" x="1357.6" y="1492.01" fill="#d6ae96" class="color96b0d6 svgShape"/><rect width="275.66" height="8.16" x="1211.96" y="1563.51" fill="#cc9f85" transform="rotate(-80.078 1349.875 1567.67)" class="color85a5cc svgShape"/><rect width="275.66" height="8.16" x="1123.5" y="1563.51" fill="#cc9f85" transform="rotate(-80.078 1261.413 1567.67)" class="color85a5cc svgShape"/><rect width="87.79" height="8.16" x="1276.93" y="1492.01" fill="#cc9f85" class="color85a5cc svgShape"/><rect width="85.65" height="8.16" x="1263.43" y="1567.52" fill="#cc9f85" class="color85a5cc svgShape"/><rect width="86.47" height="8.16" x="1249.35" y="1643.31" fill="#cc9f85" class="color85a5cc svgShape"/><rect width="88.61" height="8.16" x="1369.83" y="1567.52" fill="#d6ae96" class="color96b0d6 svgShape"/><rect width="86.75" height="8.16" x="1383.92" y="1643.31" fill="#d6ae96" class="color96b0d6 svgShape"/><polygon fill="#cc9f85" points="1434.77 1439.28 1281.07 1439.28 1281.07 1431.13 1433.23 1431.13" class="color85a5cc svgShape"/></g><g><path fill="#e58f5d" d="M1269.11,1045.34c0,0,28.51,24.19,31.62,32.03c0,0,30.81-7.39,43.16-4.62     c12.35,2.76,31.19,26.62,9.48,26.22c-21.72-0.4-56.78,3.36-68.13-6.32c-11.34-9.68-15.81-23.06-28.25-38.15L1269.11,1045.34z" class="colore55daa svgShape"/><polygon fill="#ff6103" points="1249.58 995.78 1259.15 1035.16 1297.01 1049.6 1262.52 1070.87 1260.48 1111.35 1229.59 1085.11 1190.47 1095.68 1205.88 1058.19 1183.73 1024.25 1224.14 1027.32" class="coloref8328 svgShape"/><path fill="#332a25" d="M1393.69,1396.36c0,0,4.32,28.71-0.42,31.23c-4.74,2.52-55.27-1.02-55.27-1.02s-4.98-7.08,2.16-9.66    c7.14-2.58,30.75-10.38,33.02-20.04L1393.69,1396.36z" class="color252933 svgShape"/><path fill="#3d332d" d="M1350.99,1397.42c0,0,4.32,28.71-0.42,31.23c-4.74,2.52-55.27-1.02-55.27-1.02s-4.98-7.08,2.16-9.66    c7.14-2.58,30.75-10.38,33.02-20.04L1350.99,1397.42z" class="color2d313d svgShape"/><path fill="#fbd1b8" d="M1377.94,1168.33c0,0-2.85,4.98-6.71,8.98c-3.86,4-13.11,5.6-4.12,12.35c9.06,6.8,11.25-0.32,12.36-3.23    c1.67-4.38-1.16-2.29,1.74-5.29s4.73-8.96,4.73-8.96L1377.94,1168.33z" class="colorfbddb8 svgShape"/><path fill="#ffd0b5" d="M1337.95,1019.34c0,0-4.68,15.81-4.44,25.41c0.24,9.6,14.82,16.44,14.82,16.44l0.21,8.4l28.37-0.71    c0,0-0.55-4.55-0.16-6.48C1377.14,1060.47,1355.05,1020.03,1337.95,1019.34z" class="colorffddb5 svgShape"/><path fill="#52463f" d="M1371.2,1399.29l24-0.6c0,0-3.96-62.35-14.34-93.31c0,0,7.47-37.42,9.27-61.48c0,0,6.9-12.18,3.72-43.33    l-67.27-0.72c0,0-14.82,79.63-16.86,94.1c-2.04,14.46,16.62,88.45,17.1,107.66l26.4-0.66c0,0-4.2-71.95-14.34-93.31    c0,0,11.52-19.5,18.42-31.69c0,0-3.84,38.53-1.26,45.67C1358.63,1328.75,1369.37,1374.11,1371.2,1399.29z" class="color3f4752 svgShape"/><path fill="#ffa977" d="M1332.46,1146.86c-2.76-14.34-5.76-32.56-5.76-32.56s-0.02-5.25-0.1-5.26c0-0.05-0.18-5.86-0.18-5.91    c-0.17-26.23,16.29-28.59,16.29-28.59s-0.02-0.01-0.03-0.02l4.66-4.9l33.61-0.84c0,0,16.92,4.38,19.86,25.92    c2.94,21.54-10.56,57.91-7.8,72.25c2.76,14.34,8.89,37.03,1.38,40.21c-7.5,3.18-57.97,2.04-67.81-7.32    C1316.74,1190.48,1335.22,1161.2,1332.46,1146.86z" class="colorff77c4 svgShape"/><path fill="#e58f5d" d="M1332.46,1146.86c-2.3-11.93-4.75-26.52-5.51-31.09c-0.02-0.33-0.04-0.65-0.05-0.97    c-0.01-0.26-0.03-0.52-0.04-0.78c-0.26-4.85-0.4-8.71-0.45-10.47c0.01-0.24,0.02-0.42,0.02-0.42c-0.02-2.94,0.2-5.55,0.55-7.92    c13.75-0.47,11.91,4.87,11.91,4.87s3.66,3.12,4.26,8.74c2.26,21.08,1.26,29.7,1.56,41.85c0.3,12.14-8.26,12.36-7.71,34.22    c0.3,11.8,13.79,19.01,26.14,23.16c-6.49-0.4-12.96-1.03-18.84-1.89c-8.06-1.43-14.75-3.5-17.72-6.32    C1316.74,1190.48,1335.22,1161.2,1332.46,1146.86z" class="colore55daa svgShape"/><path fill="#40352f" d="M1356.05,1321.6c-2.58-7.14,1.26-45.67,1.26-45.67c-0.69,1.21-1.43,2.51-2.19,3.84v0    c-1.56-18.99,12.12-38.92,12.12-38.92c-8.58,41.05-3.12,67.33,2.16,86.41c5.28,19.08,9.88,71.81,9.88,71.81l-8.07,0.2    C1369.37,1374.11,1358.63,1328.75,1356.05,1321.6z" class="color2f3740 svgShape"/><path fill="#542103" d="M1327.63,1001.66c3.69,3.51,13.29,3.27,13.29,3.27c-4.86-2.28-4.98-7.08-4.98-7.08    c7.32,4.62,20.37-1.71,34.78-2.07c14.4-0.36,19.56,13.92,19.56,13.92c2.34-2.46,2.28-4.86,2.28-4.86c2.52,4.74,0.24,9.6,0.24,9.6    c2.34-2.46,7.26,2.22,7.26,2.22c-2.4,0.06-4.74,2.52-4.74,2.52c2.76,14.34-7.71,27.81-12.45,30.34c-4.74,2.52-2.16,9.66-4.5,12.12    c-2.34,2.46-22.77,1.77-27.69-2.91c-4.92-4.68-3.18-31.14-3.18-31.14c-4.8,0.12-6.96,9.78-6.96,9.78    c-2.57-7.12,1.93-13.47,1.95-13.51C1331.64,1014.47,1327.63,1001.66,1327.63,1001.66z" class="color542003 svgShape"/><path fill="#ffd0b5" d="M1250.76,1069.51c0,0-5.69-1.49-6.8-4.24c-1-2.48-0.69-1.59-1.05-2.68c-0.12-0.37-0.42-1.09-0.42-1.09     s-2.71-6.78-4.98-6.97c-2.26-0.18-2.97,1.72-0.89,5.04c2.08,3.31-2.44,7.21-6.98,2.87c-4.54-4.34-11.1-7.82-11.46-5.28     c-0.35,2.54,4.06,5.5,4.06,5.5s-0.14,0.24-1.22-0.59c-1.07-0.82-2.88-3.88-3.27-3c-0.4,0.87-3.35,6.35,2.14,12.82     c5.49,6.48,11.28,6.33,13.64,6.59c2.36,0.26,10.32,3.06,12.12,5.19C1245.65,1083.67,1254.15,1072.89,1250.76,1069.51z" class="colorffddb5 svgShape"/><polygon fill="#f4e6de" points="1254.61 1070.67 1248.74 1067.97 1239.91 1082.74 1245.42 1085.93" class="colordeebf4 svgShape"/><path fill="#ffa977" d="M1360.3,1075.74c0,0-10.57-8.61-27.62-2.33c-17.26,6.37-32.32,12.23-32.32,12.23l-50.1-17.85l-8.98,16.24     c0,0,45.79,26.4,60.39,23.87C1308.36,1108.8,1346.7,1107.62,1360.3,1075.74z" class="colorff77c4 svgShape"/><path fill="#e58f5d" d="M1243.15,1080.65c14.55,8.1,54.86,20.97,76.24,14.69c0,0,10.86-2.81,20.56,3.46     c-15.75,9.38-33.88,9.7-38.29,9.1c-1.7,0.29-3.82,0.19-6.24-0.21l0.01-0.01c-18.38-3.03-54.16-23.65-54.16-23.65L1243.15,1080.65     z" class="colore55daa svgShape"/></g><g><path fill="#f9e0d2" d="M348.53 708.63c5.18-1.06 14.62-1.86 23.79-1.86 12.09 0 19.53 1.46 25.65 5.71 5.58 3.32 9.3 9.17 9.3 16.74 0 8.24-5.18 15.81-14.88 19.4v.27c9.43 2.39 18.07 9.83 18.07 22.19 0 7.97-3.46 14.22-8.64 18.47-6.38 5.58-16.88 8.37-33.22 8.37-9.04 0-15.95-.67-20.07-1.2V708.63zM364.74 743.98h8.37c11.3 0 17.67-5.32 17.67-12.89 0-8.37-6.38-12.23-16.74-12.23-4.78 0-7.57.27-9.3.67V743.98zM364.74 785.17c2.13.26 4.92.4 8.64.4 10.5 0 19.8-3.99 19.8-15.02 0-10.36-9.04-14.62-20.33-14.62h-8.11V785.17zM425.08 708.63c6.11-1.06 15.28-1.86 24.72-1.86 12.89 0 21.66 2.13 27.64 7.18 4.92 4.12 7.71 10.36 7.71 17.94 0 11.56-7.84 19.4-16.21 22.46v.4c6.38 2.39 10.23 8.64 12.49 17.28 2.79 11.16 5.18 21.53 7.04 24.98h-16.88c-1.33-2.66-3.46-9.97-5.98-21.13-2.52-11.7-6.78-15.42-16.08-15.68h-8.24V797h-16.21V708.63zM441.29 748.23h9.7c11.03 0 17.94-5.85 17.94-14.75 0-9.83-6.91-14.35-17.54-14.35-5.18 0-8.5.4-10.1.8V748.23zM519.57 771.62L511.86 797h-16.88l28.7-89.56h20.86l29.1 89.56h-17.54L548 771.62H519.57zM545.21 759.26l-7.04-22.06c-1.73-5.45-3.19-11.56-4.52-16.74h-.27c-1.33 5.18-2.66 11.43-4.25 16.74l-6.91 22.06H545.21zM586.15 797v-89.56h18.6l23.12 38.4c5.98 9.97 11.16 20.33 15.28 30.03h.27c-1.06-11.96-1.46-23.52-1.46-37.21v-31.23h15.15V797h-16.88l-23.39-39.33c-5.71-9.83-11.69-20.86-16.08-30.96l-.4.13c.67 11.56.8 23.39.8 38.14V797H586.15zM675.99 708.63c7.18-1.2 16.34-1.86 26.05-1.86 16.74 0 28.3 3.46 36.54 10.36 8.64 7.04 13.95 17.67 13.95 32.96 0 15.95-5.45 27.91-13.95 35.61-8.9 8.11-23.12 12.23-40.53 12.23-9.57 0-16.74-.53-22.06-1.2V708.63zM692.34 784.5c2.26.4 5.71.4 9.04.4 21.26.13 33.89-11.56 33.89-34.29.13-19.8-11.3-31.09-31.76-31.09-5.18 0-8.9.4-11.16.93V784.5zM794.27 708.63c6.11-1.06 15.28-1.86 24.72-1.86 12.89 0 21.66 2.13 27.64 7.18 4.92 4.12 7.71 10.36 7.71 17.94 0 11.56-7.84 19.4-16.21 22.46v.4c6.38 2.39 10.23 8.64 12.49 17.28 2.79 11.16 5.18 21.53 7.04 24.98h-16.88c-1.33-2.66-3.46-9.97-5.98-21.13-2.52-11.7-6.78-15.42-16.08-15.68h-8.24V797h-16.21V708.63zM810.48 748.23h9.7c11.03 0 17.94-5.85 17.94-14.75 0-9.83-6.91-14.35-17.54-14.35-5.18 0-8.5.4-10.1.8V748.23zM919.99 757.26h-33.75v26.31h37.74V797h-54.09v-89.56h52.09v13.42h-35.75v23.12h33.75V757.26zM938.33 708.63c5.85-1.06 13.95-1.86 24.98-1.86 11.96 0 20.73 2.53 26.44 7.31 5.32 4.38 8.77 11.43 8.77 19.8 0 8.5-2.66 15.55-7.71 20.33-6.51 6.51-16.74 9.57-28.3 9.57-3.06 0-5.85-.13-7.97-.53V797h-16.21V708.63zM954.55 750.35c1.99.53 4.65.66 7.97.66 12.23 0 19.67-5.98 19.67-16.48 0-9.97-6.91-15.28-18.2-15.28-4.52 0-7.71.4-9.43.8V750.35zM1028.84 707.43v52.22c0 17.54 7.31 25.65 18.34 25.65 11.83 0 18.87-8.11 18.87-25.65v-52.22h16.34v51.16c0 27.64-14.22 39.87-35.75 39.87-20.73 0-34.15-11.56-34.15-39.73v-51.29H1028.84zM1118.28 721.12h-25.51v-13.69h67.64v13.69h-25.78V797h-16.34V721.12zM1179.15 771.62l-7.71 25.38h-16.88l28.7-89.56h20.86l29.1 89.56h-17.54l-8.11-25.38H1179.15zM1204.8 759.26l-7.04-22.06c-1.73-5.45-3.19-11.56-4.52-16.74h-.27c-1.33 5.18-2.66 11.43-4.25 16.74l-6.91 22.06H1204.8zM1252.11 721.12h-25.51v-13.69h67.64v13.69h-25.78V797h-16.34V721.12zM1321.08 707.43V797h-16.34v-89.56H1321.08zM1419.29 751.28c0 30.03-18.21 47.17-42.92 47.17-25.25 0-41.19-19.27-41.19-45.58 0-27.51 17.27-46.91 42.52-46.91C1403.88 705.97 1419.29 725.77 1419.29 751.28zM1352.45 752.61c0 18.2 9.17 32.69 24.85 32.69 15.81 0 24.72-14.62 24.72-33.36 0-16.88-8.37-32.82-24.72-32.82C1361.09 719.13 1352.45 734.14 1352.45 752.61zM1433.39 797v-89.56h18.6l23.12 38.4c5.98 9.97 11.16 20.33 15.28 30.03h.27c-1.06-11.96-1.46-23.52-1.46-37.21v-31.23h15.15V797h-16.88l-23.39-39.33c-5.71-9.83-11.69-20.86-16.08-30.96l-.4.13c.67 11.56.8 23.39.8 38.14V797H1433.39z" class="colord2edf9 svgShape"/></g><g><path fill="#ce7846" d="M1731.66,1370.57c0,0,22.36,8.42,29.26-2.26c6.02-9.32-34.52-19.78-34.52-19.78L1731.66,1370.57z" class="colorce469a svgShape"/><path fill="#e8b395" d="M1718.12 1554.07c0 0-5.3 96.82-8.83 117.57 0 0 2.12 5.49 14.6 9 12.48 3.51 19.78 7.03 14.84 12.73 0 0-47.1 1.1-50.87-1.54-3.77-2.63-2.35-6.81 3.06-16.69 0 0-7.77-111.31-3.3-121.08H1718.12zM1679.38 1554.07c0 0-.71 28.43-9.89 47.97-9.18 19.54-26.61 58.84-26.61 65.21s0 15.81 0 15.81-10.36 6.59-15.78-4.61c0 0 2.35-16.91 4.47-30.08 2.12-13.17 10.36-53.57 13.42-66.09 3.06-12.51 3.77-28.21 3.77-28.21H1679.38z" class="colore8b795 svgShape"/><path fill="#3d332d" d="M1724.95 1680.95c11.82 3.41 18.58 6.89 13.78 12.43 0 0-47.1 1.1-50.87-1.54-3.5-2.45-2.52-6.23 1.97-14.67C1689.85 1677.18 1713.53 1687.4 1724.95 1680.95zM1642.88 1683.06c0 0 7.07 5.87 3.36 12.13-3.71 6.26-20.84 1.77-22.96-1.58-2.12-3.36 3.83-15.16 3.83-15.16L1642.88 1683.06z" class="color2d313d svgShape"/><path fill="#1c1815" d="M1676.25,1258.88c0,0-8.43-4.36-14.85,12.65c-6.42,17.01-6.75,43.52-4.44,52.55c0,0-18.64,20.07-3.41,33.19     c0,0,20.99,22.08,22.38,27.77c0.54-1.33,9.55-17.55,24.15-18.46c14.6-0.9,50.57-38.69,31.39-44.56c0,0,1.43,6.11-5.12,4.64     c-6.55-1.47-2.42-24.01-2.49-31.98c-0.07-7.97-4.87-27.62-18.83-35.95C1691.07,1250.39,1674.99,1250.97,1676.25,1258.88z" class="color1c1715 svgShape"/><path fill="#eba47a" d="M1700.07,1311.34c0,0,3.02,11.23,5,12.73c0,0,1.99,5.18-3.86,19.82c-5.85,14.64-20.67,6.46-23.05,2.47     c-2.37-4-7.61-11.64-2.83-19.25c0,0,6.54-4.75,3.12-15.07C1678.45,1312.04,1699.03,1307.89,1700.07,1311.34z" class="coloreba97a svgShape"/><path fill="#fdbc96" d="M1675.9,1312.3c0,0,9.92,7.7,18.03,4.73c8.11-2.97,15.3-10.82,17.52-18.67c2.22-7.85-1.39-23.61-6.84-29.21     c-5.46-5.61-25.73-9.29-31.43-1.99C1667.49,1274.46,1665.27,1303.91,1675.9,1312.3z" class="colorfdc596 svgShape"/><path fill="#bf4802" d="M1657.61,1451.26c0,0-21.58,11.62-22.77,17.47l23.78-7.61L1657.61,1451.26z" class="colorbf027c svgShape"/><path fill="#916247" d="M1720.33,1457.59c0,0,9.01,63.24,0.26,103.55c0,0-63.35,4.82-75.25-1.59c0,0-3.98-69.41,0.94-101.61     L1720.33,1457.59z" class="color476291 svgShape"/><path fill="#87593e" d="M1645.35,1559.55c0,0,0.11-5.99-0.57-12.01c5.34,2.67,17.17,9.7,35.23,6.9     c24.52-3.8,30.16-52.85,27.27-75.91c-1.08-8.62-4.1-16.39-7.46-22.75l20.52,1.81c0,0,9.01,63.24,0.26,103.55     C1720.59,1561.14,1657.25,1565.96,1645.35,1559.55z" class="color3e5c87 svgShape"/><path fill="#f6f6f6" d="M1678.66,1323.35c0,0,17.74,7.77,26.33-1.09c0,0,37.19,37.26,16.08,134.99c0,0-70.93,3.66-72.34,3.91     c-1.41,0.25,5.09-21.19,13.39-27.14c8.24-5.91,55.84-33.33,16.35-109.1C1678.21,1324.39,1678.25,1324.1,1678.66,1323.35z" class="colorf6f6f6 svgShape"/><path fill="#eae1dc" d="M1672,1459.76c56.14-12.74,38.78-70.15,40.7-81.66c1.59-9.57-14.26-41.22-19.64-51.62     c4.32,0.04,8.75-0.96,11.93-4.24c0,0,37.19,37.26,16.08,134.99c0,0-28.19,1.45-49.38,2.59     C1671.81,1459.81,1671.9,1459.79,1672,1459.76z" class="colordce2ea svgShape"/><path fill="#ffa977" d="M1733.56 1352.06c0 0-1.12-7.1-3.52-16.45-.69-2.69-2.48-5.89-4.97-7.42-5.39-3.32-14.03-4.97-20.69-5.94 0 0 18.5 70.48 17.23 124.18-.9 4.72-1.29 8.81-.54 10.82 0 0 4.41 1.74 11.97 6.8 6.94 4.65-2.69-35.15-4.32-41.73C1733.2 1396.7 1736.18 1378.71 1733.56 1352.06zM1678.14 1323.13c0 0-4.66.49-11.05 2.41-2.57.79-19.93 7.12-18.75 34.73 1.28 29.8 3.99 54.93-.3 65.17-4.29 10.24-14.07 27.26-14.6 45.62 22.13-17.84 48.88-37 63.53-67.79C1717.34 1360.44 1678.14 1323.13 1678.14 1323.13z" class="colorff77c4 svgShape"/><path fill="#e58f5d" d="M1662.19,1327.84c-5.93,3.69-14.71,12.53-13.85,32.42c1.28,29.8,3.99,54.93-0.3,65.17     c-4.29,10.24-14.07,27.26-14.6,45.62c0,0,9.58-30.63,25.18-46.66C1658.62,1424.38,1646.09,1359.93,1662.19,1327.84z" class="colore55daa svgShape"/><path fill="#e58f5d" d="M1606.58,1416.63c1.78,0.54,16.52-0.77,22-2.44c8.51-18.16,18.28-38.32,26.71-56.3     c1.76-3.75,5.42-18.93,2.28-21.76c-1.71-1.54-11.86-0.86-19.08,7.42c-15.1,17.32-24.85,44.08-32.7,63.17     c-1.13,2.75-1.25,5.85-0.1,8.6C1605.99,1416.02,1606.3,1416.54,1606.58,1416.63z" class="colore55daa svgShape"/><polygon fill="#e2b69c" points="1676.31 1323.11 1692.04 1336.12 1694.55 1326.85 1681.93 1323.3" class="color9cd6e2 svgShape"/><path fill="#e2b69c" d="M1704.39,1322.25l-9.23,4.23l8.73,10.04C1703.88,1336.52,1708.12,1326.25,1704.39,1322.25z" class="color9cd6e2 svgShape"/><path fill="#442919" d="M1664.63,1337.5c0,0-8.14,3.15-12.76-3.13c-4.62-6.28,3.13-10.06,3.13-10.06s-5.04,6.35,2.31,7.15     c7.36,0.8,7.4-11.55,4.82-18.36c-7.46-19.67-3.14-32.61,0.31-39.66c3.45-7.05,9.6-12.21,9.6-12.21l4.2-2.35l2.91,7.14     c0,0-5.29,8.09-7.98,15.55c-2.68,7.46-3.82,17.05,2.46,29.41C1679.92,1323.34,1681.5,1335.48,1664.63,1337.5z" class="color442b19 svgShape"/><path fill="#513626" d="M1679.16,1266.02l-2.91-7.14l0,0l0,0c0,0-8.43-4.36-14.85,12.65c-2.21,5.84-3.36,12.85-3.83,19.91     c2.88,10.57,11.05,22.76,15.5,33.12c5.61,13.07-11.56,9.58-11.56,9.58s5.72,9.69,14.33,2.23c9.46-8.2,1.21-21.75-2.4-28.83     c-3.61-7.09-3.01-20.52,0.46-28.15C1677.36,1271.73,1679.16,1266.02,1679.16,1266.02z" class="color513826 svgShape"/><path fill="#442919" d="M1679.16,1266.02c0,0,19.23-5.1,28.88,18.18c9.66,23.28-4.2,34-1.77,41.18c2.44,7.18,8.98,8.21,14.61,0.82     c0,0-6.91,4.46-7.94-0.58c-1.03-5.03,10.45-12.4,9.41-31.6c-0.37-6.74-1.46-12.55-2.72-17.24c-2.95-6.93-7.64-13.91-14.6-18.07     c-13.96-8.33-30.03-7.75-28.78,0.16L1679.16,1266.02z" class="color442b19 svgShape"/><path fill="#e58f5d" d="M1766.28,1362.81L1766.28,1362.81c2.33-6.14,0.28-12.81-4.52-14.73l-43.32-17.32     c-0.31-0.12-0.67,0.09-0.81,0.48l-6.3,16.61c-0.21,0.56-0.04,1.17,0.38,1.38l41.83,20.58     C1758.19,1372.12,1763.96,1368.94,1766.28,1362.81z" class="colore55daa svgShape"/><path fill="#e7dad3" d="M1712.06,1323.87l0.12,3.3c0.01,0.18-0.04,0.36-0.12,0.48l-0.64,0.96c-0.1,0.15-0.15,0.37-0.13,0.59      l0.73,7.24l1.44,1.54c0.12,0.13,0.19,0.33,0.2,0.55l0.15,4.16c0,0.13-0.11,0.22-0.2,0.15c-1.01-0.72-5.26-3.77-5.27-3.96      c-0.01-0.22-1.46-18.95-1.46-18.95L1712.06,1323.87z" class="colord3dde7 svgShape"/><polygon fill="#e7dad3" points="1713.77 1342.82 1711.19 1344.84 1709.26 1338.95" class="colord3dde7 svgShape"/><path fill="#fcf8f6" d="M1709.3,1325.91l0.12,3.3c0.01,0.18-0.05,0.36-0.15,0.49l-0.8,0.97c-0.13,0.15-0.19,0.37-0.16,0.59       l0.84,7.24l1.76,1.52c0.14,0.12,0.23,0.33,0.24,0.54l0.15,4.05c0.01,0.19-0.15,0.32-0.29,0.24c-1.31-0.75-6.41-3.7-6.41-3.89       c-0.01-0.22-1.63-18.95-1.63-18.95L1709.3,1325.91z" class="colorf6f8fc svgShape"/><path fill="#723511" d="M1697.34,1318.4l9.35,5.02l8.89-17.03l-9.67-4.75c-0.61-0.33-1.38-0.27-2.07,0.16       c-1.52,0.94-3.7,2.61-5.54,6.07c-1.89,3.57-2.08,6.86-1.99,8.7C1696.35,1317.4,1696.73,1318.08,1697.34,1318.4z" class="color112772 svgShape"/><path fill="#a8511f" d="M1699.15,1323.13l15.26,8.19l11.99-22.96l-15.73-7.85c-1-0.54-2.2-0.54-3.23-0.02       c-2.28,1.15-5.51,3.24-7.99,7.9c-2.56,4.81-2.47,9.43-2.12,12.03C1697.48,1321.59,1698.15,1322.59,1699.15,1323.13z" class="color1f49a8 svgShape"/><path fill="#723511" d="M1714.41,1331.32l-15.26-8.19c-1-0.54-1.68-1.54-1.83-2.7c-0.2-1.5-0.31-3.66,0.11-6.14l20.01,11.22       L1714.41,1331.32z" class="color112772 svgShape"/><path fill="#723511" d="M1715.5,1316.72c-3.53,6.64-4.23,13.18-1.57,14.61c2.66,1.43,7.68-2.79,11.21-9.43       c3.53-6.64,3.88-13.17,1.01-14.1C1723.75,1307.04,1719.03,1310.08,1715.5,1316.72z" class="color112772 svgShape"/><path fill="#fcf8f6" d="M1727.5,1308.82c3.44,1.27,12.32,3.76,24.92,1.74c0,0,0,0,0,0c-5.84,3.22-11.51,9.08-15.56,16.78       c-4.24,8.05-5.82,16.44-4.94,23.28c0,0-0.02,0.02-0.02,0.02s-6.35-12.58-16.71-18.82c-1.61-0.97-2.48-2.82-2.18-4.69       c0.82-5.02,3.32-14.36,10.83-18.12C1724.98,1308.45,1726.31,1308.39,1727.5,1308.82z" class="colorf6f8fc svgShape"/><path fill="#f2ece9" d="M1713.02,1327.14c0.15-0.95,0.37-2.05,0.67-3.24l19.3,13.37c-1.24,4.73-1.58,9.31-1.06,13.35       c0,0-0.02,0.02-0.02,0.02s-6.35-12.58-16.71-18.82C1713.59,1330.87,1712.71,1329.01,1713.02,1327.14z" class="colore9edf2 svgShape"/><path fill="#eb7028" d="M1736.86,1327.34c-7.9,15.01-6.65,31.27,2.81,36.31c9.45,5.04,23.52-3.05,31.42-18.07       c7.9-15.01,6.65-31.27-2.81-36.31C1758.83,1304.24,1744.76,1312.33,1736.86,1327.34z" class="color28a2eb svgShape"/><path fill="#a8511f" d="M1736.86,1327.34c7.9-15.01,21.97-23.1,31.42-18.07c0.29,0.16,0.58,0.32,0.86,0.5       c-8.73-4.1-21.87,4.27-29.63,19.01c-7.66,14.54-7.28,29.95,0.68,35.11c-0.17-0.08-0.35-0.16-0.52-0.25       C1730.21,1358.61,1728.95,1342.36,1736.86,1327.34z" class="color1f49a8 svgShape"/><ellipse cx="1753.35" cy="1337.22" fill="#f1e3db" rx="24.95" ry="13.27" transform="rotate(-62.356 1753.267 1337.149)" class="colordbdcf1 svgShape"/><path fill="#723511" d="M1765.06,1343.46c6.2-11.77,6.37-23.99,0.56-27.93c0.22,0.09,0.43,0.2,0.64,0.31       c7.18,3.84,7.8,16.83,1.39,29.03c-6.41,12.2-17.44,18.98-24.62,15.14c-0.25-0.13-0.49-0.28-0.72-0.43       C1748.81,1362.33,1758.83,1355.3,1765.06,1343.46z" class="color112772 svgShape"/><path fill="#723511" d="M1741.64,1330.98c1.61-3.06,3.47-5.79,5.46-8.12c0,0,0,0,0.01,0l8.05,6.76c0.92,0.77,1.53,1.84,1.68,3.03       c0.2,1.58,0.18,3.8-1.06,5.52c-2.16,2.98-6.22,4.81-7.96,4.56l-9.62-3.22C1739,1336.73,1740.14,1333.84,1741.64,1330.98z" class="color112772 svgShape"/><path fill="#a8511f" d="M1747.68,1334.2c1.46-2.78,3.36-5.01,5.28-6.43l2.2,1.84c0.92,0.77,1.53,1.84,1.68,3.03       c0.2,1.58,0.18,3.8-1.06,5.52c-2.16,2.98-6.22,4.81-7.96,4.56l-2.44-0.82C1745.51,1339.58,1746.27,1336.87,1747.68,1334.2z" class="color1f49a8 svgShape"/><path fill="#fdbc96" d="M1700.13,1326.58c-1.14-0.04-1.83,1.23-1.17,2.16c0.54,0.75,1.37,1.54,2.67,2.06     c3.2,1.27,5.59,3.83,5.03,4.3c-0.55,0.47-6.36-3.16-7.9-1.17c-1.54,2,7.34,4.53,7.45,5.77c0.11,1.25-6.15-1.81-6.39-0.07     c-0.23,1.73,7.43,3.97,7.67,4.91c0.24,0.95-4.34,0.08-3.7,1.27c0.63,1.18,2.88,2.7,7.99,1.95c0,0,8-0.74,8.15-5.47     C1720.08,1337.81,1712.56,1327,1700.13,1326.58z" class="colorfdc596 svgShape"/><path fill="#e58f5d" d="M1607.74,1406.89c4.33-3.52,18.81,0.88,21.56,5.77c6.55,15.56,15.47,49.34,15.47,49.34l-10.43,9.87      c0,0-22.35-43.19-27.08-51.74C1606.24,1418.27,1603.41,1410.42,1607.74,1406.89z" class="colore55daa svgShape"/><path fill="#ffb58a" d="M1636.88,1460.59c-2.72,6.34-1.94,18.14,0.71,19.28c2.65,1.14,6.23-4.99,8.95-11.32       c1.14-2.66,1.74-7.21,1.64-8.22C1648.18,1460.33,1639.6,1454.25,1636.88,1460.59z" class="colorfeb48c svgShape"/><path fill="#ffb58a" d="M1647.02 1474.63c-.41-.22-2.1-.34-2.66.14-1.48 1.24-2.7 3.52-4.93 4.45-.73.3-1.57-.3-2.13-.93-.49-.55-.52-1.6.12-2.06 1.89-1.38 4.11-3.63 6.21-4.69.96-.48 3.37.15 4.94.63 2.53.77 4.76 1.41 7.08 2.71 1.64.93-.47 2.22-2.23 1.47C1653.42 1476.35 1647.18 1474.72 1647.02 1474.63zM1642.21 1462.28l7.7-8.13c0 0 11.15-2.96 13.6-3.55s2.42 2.9-.82 3.74c-3.23.84-11.11 3.31-11.11 3.31s-4.02 5.46-5.05 6.85S1640.52 1465.49 1642.21 1462.28z" class="colorfeb48c svgShape"/><path fill="#ffb58a" d="M1645.12,1463.87l9.8-3.02c0,0,8.1,0.24,10.44,0.46c2.34,0.22,1.38,3.34-1.5,3.26       c-2.88-0.08-9.35,0.69-9.35,0.69s-9.52,3.79-10.39,4.44C1643.26,1470.35,1645.12,1463.87,1645.12,1463.87z" class="colorfeb48c svgShape"/><path fill="#ffb58a" d="M1642.63,1470.06l8.23-3.63c0,0,8.1,0.24,10.44,0.46c2.34,0.22,1.38,3.34-1.5,3.26       c-2.88-0.08-9.35,0.69-9.35,0.69s-7.75,3.68-8.62,4.33C1640.97,1475.81,1642.63,1470.06,1642.63,1470.06z" class="colorfeb48c svgShape"/><polygon fill="#a8511f" points="1771.8 1337.5 1800.27 1337.94 1799.55 1346.7 1772.62 1341.03" class="color1f49a8 svgShape"/><polygon fill="#a8511f" points="1758.6 1360.49 1779.06 1384.52 1773.58 1390.29 1757.2 1363.74" class="color1f49a8 svgShape"/><polygon fill="#a8511f" points="1772.93 1356.14 1799.41 1368.81 1796.18 1376.69 1772.66 1359.79" class="color1f49a8 svgShape"/></g><g><path fill="#fcbb96" d="M500.25,1325.51c2.26-6.1-10.16-10.58-10.16-10.58s3.71-5.56,6.82-9.85c3.11-4.28-0.27-3.26-0.27-3.26    c-10.1,6.16-20.62,17.51-20.49,23.85c0.13,6.34-5.42,11.36-5.42,11.36l10.5,7.51c0,0,8.41-8.33,10.1-10.22    C493.01,1332.42,497.99,1331.61,500.25,1325.51z" class="colorfcc596 svgShape"/><path fill="#f8e4d8" d="M470.69,1332.73l3.47-5.55c0,0,10.85,6.04,13.81,14.43l-5.42,3.69L470.69,1332.73z" class="colorf8e8d8 svgShape"/><path fill="#3e3733" d="M410.2,1308.26c2.12,4.61,22.34,53.61,22.34,53.61s5.71-6.29,5.25,0l32-32.84c0,0,14.76,5.01,15.94,18.02     c0,0-39.77,54.68-54.2,56.16c-14.43,1.48-27.52-39.13-27.52-39.13L410.2,1308.26z" class="color3e3533 svgShape"/><path fill="#e07d44" d="M410.2,1308.26c2.12,4.61,22.34,53.61,22.34,53.61s5.71-6.29,5.25,0l32-32.84c0,0,14.76,5.01,15.94,18.02     c0,0-39.77,54.68-54.2,56.16c-14.43,1.48-27.52-39.13-27.52-39.13L410.2,1308.26z" class="color4484e0 svgShape"/><path fill="#52463f" d="M338.81,1677.45l2.52-13.86l15.35,2.3l-0.83,13.01c0,0-2.89,5.83-10.94,5.97     C336.86,1685,338.81,1677.45,338.81,1677.45z" class="color3f4752 svgShape"/><polygon fill="#52463f" points="407.33 1668.64 406.83 1679.91 409.77 1687.25 422.44 1683.09 425.21 1674.73 426.13 1661.75" class="color3f4752 svgShape"/><path fill="#3d332d" d="M454.49,1687.78c-3.93-2.02-16.42-5.9-25.15-13.02c-0.96-0.79-2.2-1.08-3.41-0.85     c-0.01,0-0.67,0.13-0.67,0.13c0,0-1.14,6.04-7.59,8.17c-4.34,1.44-10.83-2.31-10.83-2.31l-1.17,15.98h50     c1.02-0.54,1.34-1.66,1.34-1.66S459.5,1690.35,454.49,1687.78z" class="color2d313d svgShape"/><path fill="#52463f" d="M409.79,1414.65c0,0,7.72,101.35,8.48,110.56c0.76,9.21,10.2,146.4,10.2,146.4     c-11.84,4.76-24.59,1.1-24.59,1.1l-20.68-138.29l-13.62-73.75l-4.59-1.31c0,0-1.56,89.79-1.59,89.33     c-0.03-0.46-1.96,120.56-1.96,120.56c-11.46,5.96-27.4-0.48-27.4-0.48s-4.96-117.41-6.36-124.27     c-1.4-6.86-1.77-138.56-1.77-138.56L409.79,1414.65z" class="color3f4752 svgShape"/><path fill="#9f572d" d="M412.12,1441.14c-16.88,5.85-55.1,14.58-86.2,1.82c-0.04-7.99,0.07-18.59,0.05-24.2l84.75,7.37     C411.1,1431.04,411.58,1434.32,412.12,1441.14z" class="color2d4f9f svgShape"/><path fill="#331300" d="M407,1405.5c-0.66-2.41-1.19-3.92-1.19-3.92l-74.82,3.07c0,0-0.26,1.53-0.67,4.14      c0.37,0.51,0.67,0.9,0.67,0.9C364.38,1423.31,388.56,1423.33,407,1405.5z" class="color330e00 svgShape"/><path fill="#d87034" d="M314.53,1341.87l13.11,48.18l-6.67,45.02c0,0,54.94,25.05,92.12,0.79l-3.34-103.14L314.53,1341.87z" class="color346ed8 svgShape"/><path fill="#e07d44" d="M397.76,1299.57c2.97,1.25,23.16,6.76,11.98,33.15l-3.41,71.16c0,0,3.8,10.97,1.4,13.29        c-18.45,17.89-42.65,17.89-76.08,4.25c0,0-1.76-2.24-1.99-3.14c-1.22-4.84,2.86-18.33,2.86-18.33l-18.68-58.08        c0,0-18.42-25.06-6.22-34.15C326.81,1293.41,366.35,1286.35,397.76,1299.57z" class="color4484e0 svgShape"/><path fill="#d87034" d="M413.09,1435.87l-1.95-60.11c-8.61,10.12-13.66,20.92-18.32,33.37c-19.74-10.24-37-25.2-49.95-43.28     c4.87,13.02,9.74,26.04,14.61,39.06c-12.63-14.82-32.54-54.85-45.17-69.67l15.34,54.82l-6.67,45.02     C320.97,1435.07,375.92,1460.12,413.09,1435.87z" class="color346ed8 svgShape"/><path fill="#ea915e" d="M378.64,1290.95c0,0,7.37-0.32,8.71,0.51c1.34,0.83,4.69,10.51,5.37,12.04c0.67,1.53-8.96,10.54-8.96,10.54     s7.95,13.05,7.62,14.1c-0.33,1.05-14.43,58.11-14.43,58.11s-34.18-50.98-34.88-53.52c-0.7-2.53,3.27-15.65,3.27-15.65     s-10.12-7.46-10.74-9.09c-0.62-1.63-1.91-12.02,0-13.34c1.17-0.81,7.98-2.34,7.98-2.34L378.64,1290.95z" class="color5e9eea svgShape"/><path fill="#f8e4d8" d="M342.58,1294.77L342.58,1294.77c0,0,10.48,27.04,19.7,50.84c7.26,18.73,15.27-0.86,15.27-0.86l2.26-53.68     c-0.5-0.04-1.55-0.17-2.05-0.2L342.58,1294.77z" class="colorf8e8d8 svgShape"/><defs fill="none"><filter id="d" width="35.45" height="88.73" x="344.36" y="1290.87" filterUnits="userSpaceOnUse"><feFlood flood-color="#fff" flood-opacity="1" result="back"/><feBlend in="SourceGraphic" in2="back"/></filter></defs><mask id="f" width="35.45" height="88.73" x="344.36" y="1290.87" maskUnits="userSpaceOnUse" fill="none"><g filter="url(#d)"><linearGradient id="e" x1="2203.072" x2="2230.117" y1="1306.668" y2="1380.541" gradientTransform="translate(-1836.614)" gradientUnits="userSpaceOnUse" fill="none"><stop offset="0" stop-color="#ffffff" class="stopColorfff svgShape"/><stop offset=".064" stop-color="#ececec" class="stopColorececec svgShape"/><stop offset=".414" stop-color="#888888" class="stopColor888 svgShape"/><stop offset=".698" stop-color="#3f3f3f" class="stopColor3f3f3f svgShape"/><stop offset=".899" stop-color="#111111" class="stopColor111 svgShape"/><stop offset="1" stop-color="#000000" class="stopColor000000 svgShape"/></linearGradient><path fill="url(#e)" d="       M377.2,1308.21c2.1-0.5,2.2-7.06,2.2-7.06l0.42-9.94c-0.02-0.05-0.04-0.1-0.07-0.15c-0.52-0.04-1.5-0.16-1.98-0.19l-32.43,3.59       c0.12,0.39-1.18,3.09-0.95,3.85c1.88,5.53,7.93,13.48,9.15,13.68c1.43,0.23,5.05-3.93,5.54-5.29c0.75,0.67,2.02,2.68,2.77,3.36       c0.4,9.66,0.05,22.38-0.11,34.14c5.62,14.5,10.86,28.02,13.12,33.85c0.41,0.54,0.82,1.06,1.23,1.55l1.21-28.72       c-3.66-13.83-7.32-27.66-10.97-41.49c1.16-1.59,2.66-2.77,3.82-4.36C372.09,1306.91,374.49,1308.21,377.2,1308.21z" mask="url(#f)"/></g></mask><linearGradient id="g" x1="2203.072" x2="2230.117" y1="1306.668" y2="1380.541" gradientTransform="translate(-1836.614)" gradientUnits="userSpaceOnUse" fill="none"><stop offset="0" stop-color="#d8d2cf" class="stopColorcfd4d8 svgShape"/><stop offset="1" stop-color="#d8d2cf" class="stopColorcfd4d8 svgShape"/></linearGradient><path fill="url(#g)" d="M377.2,1308.21     c2.1-0.5,2.2-7.06,2.2-7.06l0.42-9.94c-0.02-0.05-0.04-0.1-0.07-0.15c-0.52-0.04-1.5-0.16-1.98-0.19l-32.43,3.59     c0.12,0.39-1.18,3.09-0.95,3.85c1.88,5.53,7.93,13.48,9.15,13.68c1.43,0.23,5.05-3.93,5.54-5.29c0.75,0.67,2.02,2.68,2.77,3.36     c0.4,9.66,0.05,22.38-0.11,34.14c5.62,14.5,10.86,28.02,13.12,33.85c0.41,0.54,0.82,1.06,1.23,1.55l1.21-28.72     c-3.66-13.83-7.32-27.66-10.97-41.49c1.16-1.59,2.66-2.77,3.82-4.36C372.09,1306.91,374.49,1308.21,377.2,1308.21z"/><path fill="#d39d53" d="M370.64,1297.38c-3.47,1.7-11.85,2.34-15.64,2.24c-5.63-0.13-3.21-3.17-5.07-3.74L341.4,1272l24.59-1.5       l1.3,1.48L370.64,1297.38z" class="colord38753 svgShape"/><linearGradient id="h" x1="2193.632" x2="2214.17" y1="1339.224" y2="1339.224" gradientTransform="translate(-1836.614)" gradientUnits="userSpaceOnUse" fill="none"><stop offset="0" stop-color="#f5bfa0" class="stopColorf5a0aa svgShape"/><stop offset=".215" stop-color="#f3b38e" class="stopColorf38e99 svgShape"/><stop offset=".731" stop-color="#f09967" class="stopColorf06774 svgShape"/><stop offset="1" stop-color="#ef9058" class="stopColoref5866 svgShape"/></linearGradient><path fill="url(#h)" d="M377.56,1344.75l-10.96-37l4.8-5.38     l-8.14-4.98l-6.23,5.74l5.8,5.13c0,0-1.38,17.15-0.53,37.35c7.26,18.73,13.74,35.46,13.74,35.46L377.56,1344.75z"/><path fill="#f8e4d8" d="M345.73,1286.86c0,0,13.97,10.83,17.14,10.32c3.18-0.52,7.59-7.45,7.59-7.45s7.97-0.24,9.36,1.34       c1.38,1.58-1.42,15.53-2.91,16.28c-3.13,1.58-12.56-8.95-14.28-7.61c-1.72,1.34-6.58,10.34-8.18,10.16       c-1.6-0.18-14.35-12.76-13.63-17.38C341.53,1287.89,345.73,1286.86,345.73,1286.86z" class="colorf8e8d8 svgShape"/><path fill="#3d332d" d="M352.52,1679.7c-6.04-5.87-11.41-0.92-11.41-0.92l-2.3-1.34c-3.33,5.14-9.72,11.28-10.53,14.3     c-1.53,5.72,1.19,12.37,10.14,12.37c8.73,0,17.13-5.49,18.08-9.95c0.57-2.67-0.35-9.89-0.65-15.26L352.52,1679.7z" class="color2d313d svgShape"/><path fill="#40352f" d="M383.2 1534.42l-.41-2.2c4.51 16.23 10.81 38.15 11.93 38.21 1.79.09 19.69-2.86 20.47-5.28.35-1.09 1.85-17.61 3.4-35.6 1.84 25.36 9.88 142.06 9.88 142.06-11.84 4.76-24.59 1.1-24.59 1.1L383.2 1534.42zM334.05 1668.76c0-.01 0-.1-.01-.26 0-.03 0-.07 0-.11-.01-.12-.01-.27-.02-.46-.02-.52-.05-1.26-.09-2.22-.01-.22-.02-.45-.03-.69-.02-.44-.04-.9-.06-1.41-.01-.19-.02-.39-.03-.59-.05-1.11-.1-2.37-.16-3.76-.01-.23-.02-.46-.03-.69-.03-.79-.07-1.62-.11-2.48 0-.01 0-.03 0-.04-.04-.92-.08-1.88-.13-2.87-.01-.16-.01-.32-.02-.48-.11-2.45-.22-5.12-.35-7.97-.01-.28-.02-.56-.04-.84-.22-4.86-.45-10.21-.71-15.83 0-.09-.01-.19-.01-.28-.1-2.11-.19-4.25-.29-6.43 0-.07-.01-.15-.01-.22-.82-17.97-1.76-37.66-2.58-52.62 0-.02 0-.04 0-.06-.2-3.74-.4-7.18-.59-10.23 3.64 2.71 9.83 7.01 12.34 6.93 3.66-.12 16.03-10.47 16.75-15.07.58-3.68 4.79-38.24 6.46-51.97-.43 24.23-.9 50.83-.91 50.58 0-.02-.01.15-.01.49 0 .07 0 .14 0 .22-.03 1.38-.08 4.7-.16 9.4 0 .28-.01.56-.01.84-.03 1.71-.06 3.6-.09 5.62-.01.67-.02 1.36-.03 2.07-.05 2.82-.1 5.88-.15 9.11-.01.4-.01.81-.02 1.22-.58 35.67-1.47 91.58-1.47 91.58-2.15 1.12-4.46 1.8-6.79 2.17-.78.12-1.56.21-2.33.27-.78.06-1.55.09-2.32.09-.77 0-1.53-.02-2.27-.06-.75-.04-1.48-.11-2.2-.19-.72-.08-1.42-.18-2.09-.29-1.02-.16-1.98-.35-2.88-.55-.6-.13-1.17-.27-1.7-.41C335.93 1669.53 334.05 1668.77 334.05 1668.76L334.05 1668.76z" class="color2f3740 svgShape"/><polygon fill="#ffbf66" points="374.58 1415.56 280.93 1422.88 285.56 1483.66 379.76 1474.93" class="colore79355 svgShape"/><path fill="#b06e47" d="M322.71,1419.62c2.12,8.14,1.38,16.95,1.68,25.46c0.35,10.01,2.96,21.1,11.37,26.54     c7.83,5.06,18.22,3.54,26.94,0.24c5.66-2.14,11.06-4.96,16.07-8.36l1,11.43l-68.67,6.37c0.4-4.8-0.84-9.68-2.08-14.38     c-3.92-14.87-7.83-29.73-11.75-44.6c-0.06-0.23-0.12-0.46-0.18-0.69L322.71,1419.62z" class="colorb07347 svgShape"/><path fill="#ffc09b" d="M310.87,1456.65c0,0,1.15,6.2,1.26,8.79c0.11,2.59,0.07,5.51,1.08,9.49c1.01,3.98-2.73,3.17,2.04,7.47     c4.77,4.3,4.89,1.57,5.55,5.42c0.66,3.85,6.81,2.08,6.81,2.08s0.93,2.25,4.3,3.6c3.38,1.35,3.61-0.2,5.95-9.7     c0,0,6.56-2.37,5.78-4.72c-0.78-2.35-17.48-11.45-17.48-11.45l-4.84-12.59L310.87,1456.65z" class="colorffbd9b svgShape"/><path fill="#f8e4d8" d="M308.03,1462.09l1.66,8.39c0,0,17.02-2.35,21.77-5.37l-2.16-10.4L308.03,1462.09z" class="colorf8e8d8 svgShape"/><path fill="#e07d44" d="M293.14,1381.07c0,0,0.57-58.14,12.37-71.23l20.41,26.39l-3.74,53.67c0.39,10.54,10.85,69.02,10.85,69.02     s-13.38,5.97-27.56,6.85C305.47,1465.78,292.45,1398.4,293.14,1381.07z" class="color4484e0 svgShape"/><path fill="#f4ad84" d="M342.56,1266.79c0,0-9.39-0.91-9.13-9.5c0.25-8.34,10.89-6.47,13.04,2.21c0.04,0.18,0.29,0.18,0.32,0      c0.5-2.47,2.19-10.05,4.53-11.97c0,0-3.68-12.42,5.01-16.17c8.69-3.75,29.4-4.05,29.82,9.5c0.41,13.54-1.14,17.7-1.46,23.99      c-0.32,6.29-10.17,24.87-14.31,26.19c-4.15,1.32-24.47-11.28-27.61-14.45C339.62,1273.4,342.56,1266.79,342.56,1266.79z" class="colorf4be84 svgShape"/><path fill="#3e3733" d="M400.56,1224.63c0,0-3.72,0.79-5.98-0.58c0,0,4.63-11.23,1.54-15.94c0,0-6.82,8.15-27.12,4.27      c-20.31-3.88-38.74,2.57-43.86,19.88c-5.12,17.31,7.67,40.98,16.55,42.5c-1.15-3.37,0.89-7.97,0.89-7.97s-9.39-0.91-9.13-9.5      c0.25-8.34,10.89-6.47,13.04,2.21c0.04,0.18,0.29,0.18,0.32,0c0.5-2.47,2.19-10.05,4.53-11.97c0,0-3.68-12.42,5.01-16.17      c8.69-3.75,29.4-4.04,29.82,9.5c0.04,1.39,0.06,2.65,0.06,3.85l0,0C386.22,1244.7,401.8,1239.49,400.56,1224.63z" class="color3e3533 svgShape"/></g></svg>