<svg xmlns="http://www.w3.org/2000/svg" enable-background="new 0 0 2500 2500" viewBox="0 0 2500 2500"><path fill="#ffdac5" d="M1547.82,865.48l-75.69,90.95l-142.71-126.7l-72.17,63.29c0,0,126.99,215.57,220.26,227.93     c62.18,8.24,174.25-187.16,174.25-187.16" class="colorffcfc5 svgShape"/><path fill="#ffffff" d="M1243.04,960.61l125.39-193.67c11.86-18.33,6.63-42.83-11.7-54.69l-109.25-70.74     c-18.33-11.88-42.83-6.63-54.69,11.7l-125.39,193.64c-11.88,18.35-6.63,42.83,11.7,54.71l109.23,70.73     C1206.67,984.18,1231.16,978.94,1243.04,960.61z" class="colorfff svgShape"/><path d="M1209.75,980.59c-7.72,0-15.53-2.15-22.48-6.64l-109.23-70.74c-19.21-12.45-24.71-38.19-12.28-57.4l125.39-193.64     c6.02-9.3,15.31-15.7,26.14-18.03c10.84-2.33,21.94-0.28,31.23,5.74l109.25,70.74c19.2,12.43,24.71,38.16,12.28,57.38     l-125.4,193.67C1236.73,973.91,1223.37,980.59,1209.75,980.59z M1226.06,637.1c-2.64,0-5.31,0.28-7.95,0.85     c-9.83,2.11-18.24,7.91-23.7,16.34l-125.39,193.64c-11.27,17.41-6.28,40.74,11.12,52.02l109.23,70.74     c17.41,11.26,40.75,6.26,52.02-11.13l125.4-193.66c11.26-17.41,6.27-40.74-11.13-52l-109.25-70.74     C1240.26,639.16,1233.23,637.1,1226.06,637.1z" fill="#000000" class="color000 svgShape"/><rect width="43.29" height="11.98" x="1155.61" y="888.87" fill="#2b2724" transform="rotate(-57.078 1177.256 894.873)" class="color242b2b svgShape"/><rect width="43.29" height="11.98" x="1190.37" y="835.2" fill="#2b2724" transform="rotate(-57.078 1212.01 841.199)" class="color242b2b svgShape"/><rect width="43.29" height="11.98" x="1225.12" y="781.52" fill="#2b2724" transform="rotate(-57.078 1246.764 787.524)" class="color242b2b svgShape"/><rect width="43.29" height="11.98" x="1259.87" y="727.85" fill="#2b2724" transform="rotate(-57.078 1281.518 733.85)" class="color242b2b svgShape"/><path fill="#ffbf66" d="M1186.63,718.96c0.78,4.27,3.28,8.19,7.23,10.76l27.66,17.92c7.62,4.94,17.82,2.82,22.83-4.73l23.57-36.45     c2.01-3.7,2.51-7.9,1.55-11.78c-0.95-4.02-3.35-7.69-7.09-10.09l-27.66-17.92c-7.69-4.98-17.96-2.79-22.97,4.94l-22.79,35.18     C1186.52,710.53,1185.81,714.91,1186.63,718.96z" class="colorffd24f svgShape"/><path fill="#ff6103" d="M1189.27,726.76l4.59,2.96l27.66,17.92l0.85,0.56c7.23,4.66,16.87,2.58,21.56-4.62l0.42-0.67l23.57-36.45     c2.01-3.7,2.51-7.9,1.55-11.78c-0.18,0.46-0.42,0.88-0.71,1.31l-26.32,40.68c-4.69,7.23-14.33,9.28-21.56,4.62l-33.1-21.45     c-0.42-0.28-0.81-0.56-1.16-0.88c-0.95-0.81-1.73-1.73-2.33-2.79C1183.8,720.23,1185.6,724.4,1189.27,726.76z" class="colorffb902 svgShape"/><path d="M1230.63,751.92c-3.29,0-6.62-0.91-9.58-2.83l-28.3-18.31c-3.96-2.56-6.68-6.52-7.66-11.15     c-0.98-4.62-0.1-9.34,2.47-13.31l23.18-35.85c2.56-3.96,6.52-6.69,11.14-7.68c4.61-0.99,9.35-0.13,13.31,2.45l28.3,18.35     c3.95,2.54,6.68,6.49,7.66,11.12c0.98,4.61,0.12,9.33-2.43,13.3l-23.22,35.85C1242.12,749.08,1236.43,751.92,1230.63,751.92z      M1194.33,728.33l28.3,18.31c6.84,4.42,16,2.46,20.43-4.37l23.22-35.85c2.13-3.31,2.85-7.25,2.03-11.11     c-0.82-3.86-3.1-7.15-6.4-9.28l-28.3-18.35c-3.3-2.14-7.25-2.88-11.12-2.04c-3.86,0.83-7.17,3.1-9.31,6.41L1190,707.9     c-2.14,3.31-2.88,7.26-2.06,11.12C1188.76,722.88,1191.03,726.18,1194.33,728.33L1194.33,728.33z" fill="#000000" class="color000 svgShape"/><polygon points="1210.69 740.64 1208.25 739.05 1227.88 708.75 1199.57 690.42 1201.16 687.97 1231.91 707.88" fill="#000000" class="color000 svgShape"/><polygon points="1255.08 726.36 1229.1 709.54 1230.68 707.09 1256.67 723.91" fill="#000000" class="color000 svgShape"/><path d="M1240.49,716.91l-22.78-14.75l22-33.98l22.78,14.75L1240.49,716.91z M1221.74,701.3l17.89,11.58l18.84-29.09     l-17.89-11.58L1221.74,701.3z" fill="#000000" class="color000 svgShape"/><path fill="#fd5d00" d="M1148.78,837.09l-33.37,51.56c-2.1,3.19-6.33,4.12-9.52,2.02l-17.64-11.38c-3.19-2.06-4.08-6.33-2.02-9.52     l33.37-51.55c2.1-3.22,6.33-4.12,9.52-2.06l17.64,11.42C1149.94,829.63,1150.83,833.9,1148.78,837.09z" class="color007afd svgShape"/><path d="M1109.6,893.73c-1.69,0-3.34-0.49-4.79-1.45l-17.62-11.37c-4.07-2.64-5.24-8.11-2.6-12.21l33.37-51.55     c2.66-4.09,8.14-5.27,12.21-2.64l17.64,11.42c1.98,1.28,3.33,3.26,3.82,5.57c0.49,2.31,0.05,4.66-1.23,6.64l-33.37,51.55     c-1.31,1.99-3.29,3.35-5.57,3.84C1110.84,893.66,1110.22,893.73,1109.6,893.73z M1125.38,816.97c-1.61,0-3.18,0.8-4.15,2.29     l-33.37,51.55c-1.48,2.3-0.83,5.36,1.44,6.83l17.64,11.38c1.11,0.73,2.42,0.99,3.71,0.7c1.29-0.28,2.4-1.04,3.13-2.16     l33.36-51.54c1.48-2.3,0.84-5.36-1.44-6.83l-17.64-11.42C1127.22,817.24,1126.29,816.97,1125.38,816.97z" fill="#000000" class="color000 svgShape"/><rect width="75.43" height="11.51" x="1175.55" y="895.78" fill="#e3d0c5" transform="rotate(-57.078 1213.257 901.546)" class="colorc5cde3 svgShape"/><rect width="48.44" height="11.51" x="1202.85" y="920.79" fill="#e3d0c5" transform="rotate(-57.078 1227.063 926.558)" class="colorc5cde3 svgShape"/><path fill="#ffdac5" d="M1341.19,843.38c0,0-4.56-41.68-13.9-51.05c-12.26-12.28-63.04-17.31-69.4-0.79     c-6.36,16.51,37.68,36.49,37.68,36.49l14.84,28.54l-29.94,49.24L1341.19,843.38z" class="colorffcfc5 svgShape"/><polygon points="2026.27 2191 1936.77 1708.02 2003.6 1708.02 2067.24 2191" fill="#000000" class="color000 svgShape"/><polygon points="1438.07 2191 1501.71 1708.02 1568.54 1708.02 1479.04 2191" fill="#000000" class="color000 svgShape"/><polygon points="1760.91 2191 1824.56 1708.02 1891.39 1708.02 1801.88 2191" fill="#000000" class="color000 svgShape"/><path fill="#ffffff" d="M1404.35,1620.2c0,0,3.43,94.29,105.82,111.57c100.68,16.99,479.33,12.16,522.4-6             c-1.95,3.02,74.41-30.09,123.64-158.35c44.72-116.53,143.69-498.65,60.52-535.44c-84.49-37.38-313.55-23.59-339.16,33.99             c-25.62,57.58-64.42,427.73-64.42,427.73S1414.74,1487.84,1404.35,1620.2z" class="colorfff svgShape"/><path fill="#ffefe5" d="M1424.51,1679.1c14.93,22.73,40.81,45.12,85.65,52.69c100.66,16.95,479.33,12.13,522.39-6             c-1.94,3,74.43-30.12,123.63-158.36c44.72-116.54,143.69-498.64,60.54-535.46c-2.46-1.09-5.05-2.13-7.67-3.13             c36.77,98.68-44.15,405.1-83.39,507.29c-49.2,128.24-125.56,161.36-123.63,158.36c-43.06,18.13-421.73,22.95-522.39,6             C1456.64,1696.62,1438.6,1688.8,1424.51,1679.1z" class="colore5e8ff svgShape"/><path fill="#2b2724" d="M1741.37,1744.01c-96.52,0-189.63-3.26-231.53-10.33c-102.76-17.35-107.4-112.46-107.44-113.41             l0-0.11l0.01-0.11c10.17-129.5,376.34-128.67,408.97-128.32c3.27-30.95,39.58-370.77,64.39-426.55             c25.75-57.89,254.96-73.36,341.73-34.98c86.46,38.24-16.38,425.57-59.49,537.91             c-46.22,120.43-118.33,159.18-125.06,159.77l-0.59,0.05C2005.08,1738.21,1870.19,1744.01,1741.37,1744.01z              M1406.29,1620.23c0.19,3.57,6.1,93.06,104.19,109.62c98.2,16.58,478.23,12.3,521.32-5.87l5.8-2.44l-0.08,0.12             c17.18-9.14,75.51-47.19,116.86-154.93c47.23-123.08,141.76-497.49,61.55-532.97c-39.19-17.33-115.83-24.75-190.71-18.45             c-78.82,6.62-134.72,26.34-145.89,51.46c-25.2,56.65-63.88,423.44-64.26,427.14l-0.19,1.77l-1.78-0.03             C1809.15,1495.61,1416.66,1491.32,1406.29,1620.23z" class="color242b2b svgShape"/><path fill="#383838" d="M1898.46,1739.71c-35.83-124.21,43.7-182.96,107.62-230.16c19.48-14.39,37.89-27.98,51.82-42.26             c44.59-45.68,49.8-170.99,53.6-262.49c1.37-33,2.56-61.51,5.26-81.91c10.43-78.66,73.64-101.38,74.28-101.6l1.27,3.67             c-0.61,0.21-61.59,22.23-71.7,98.43c-2.69,20.23-3.87,48.65-5.24,81.56c-3.83,92.13-9.08,218.3-54.71,265.04             c-14.15,14.5-32.68,28.18-52.29,42.67c-66.22,48.91-141.28,104.34-106.19,225.95L1898.46,1739.71z" class="color383838 svgShape"/><rect width="496.56" height="3.89" x="1406" y="1620.78" fill="#383838" class="color383838 svgShape"/><path fill="#fd5d00" d="M1467.03,905.81l55.99,44.36l41.63,33.03l38.6,30.59l79.12-186.55l4.82-71.43            c0,0-56.23-14.93-105.43,22.13C1545.85,804.95,1467.03,905.81,1467.03,905.81z" class="color007afd svgShape"/><polygon points="1531.04 956.53 1590.24 1001.34 1589.79 872.05" fill="#000000" class="color000 svgShape"/><path d="M862.97,2127.55l113.81-45.36l31.88-22.15l114.57,31.18l-10.77,91.44c0.42,4.89-3.7,8.85-8.47,8.29               l-249.67-29.16c-4.2-0.49-7.2-4.29-6.71-8.49l1.06-9.06C849.61,2136.26,855.22,2129.71,862.97,2127.55z" fill="#000000" class="color000 svgShape"/><path fill="#ffdac5" d="M1008.67,2060.04l23.1-105.25l110.05,64.91l-18.57,71.52               C1073.59,2105.64,1031.62,2093.78,1008.67,2060.04z" class="colorffcfc5 svgShape"/><path fill="#ffffff" d="M966.24 2117.2c-5.91-14.99-19.43-18.06-19.99-18.18l.8-3.8c.66.14 16.11 3.56 22.81 20.55L966.24 2117.2zM941.37 2127.49c-5.91-14.99-19.43-18.06-19.99-18.18l.8-3.8c.66.14 16.11 3.56 22.81 20.55L941.37 2127.49z" class="colorfff svgShape"/><path fill="#2b2724" d="M1594.82,1341.85c0,0-266.46-12.6-332.55,43.7c-66.09,56.3-263.13,593.16-263.13,593.16              l164.75,68.27l253.76-506.75L1594.82,1341.85z" class="color242b2b svgShape"/><path d="M1294.69,2155.62l98.92-72.29l25.36-29.39l118.73,1.64l12.36,91.24c1.62,4.63-1.38,9.49-6.14,10.14                 l-249.06,33.98c-4.19,0.57-8.04-2.36-8.61-6.55l-1.23-9.04C1283.92,2167.38,1287.71,2159.64,1294.69,2155.62z" fill="#000000" class="color000 svgShape"/><path fill="#ffdac5" d="M1418.97,2053.93l-14.63-105.05l122.94,29.75l10.43,76.95                 C1493.2,2081.92,1449.61,2080.89,1418.97,2053.93z" class="colorffcfc5 svgShape"/><path fill="#ffffff" d="M1392.12 2119.86c-9.51-13.1-23.75-12.64-23.89-12.63l-.17-3.88c.69-.02 16.49-.56 27.21 14.22L1392.12 2119.86zM1370.6 2136.02c-9.46-13.04-23.3-12.67-23.89-12.62l-.17-3.88c.65-.06 16.49-.57 27.21 14.22L1370.6 2136.02z" class="colorfff svgShape"/><path fill="#2b2724" d="M1947.36,1362.92c-95.2-13.25-128.36-64.75-209.17-50.43c-33.71,5.97-134.05,37.37-134.05,37.37               s-2.09,1.26-35.68,9.73c-85.84,21.65-213.64,33.64-225.9,71.89c-29.39,91.66,24.19,615.49,24.19,615.49l193.95-49.73               l-19.97-374.52l269.38-2.12c97.49-4.02,161.55-64.05,153.77-161.31L1947.36,1362.92z" class="color242b2b svgShape"/><path fill="#ffffff" d="M1342.03,1778.54c-20.54-130.14-15.49-303.46-1.32-347.65l3.7,1.18               c-12.51,39-20.32,207.87,1.46,345.86L1342.03,1778.54z" class="colorfff svgShape"/><path fill="#2b2724" d="M1343.14,2033.24c1.77,8.93,6.98,16.48,13.61,21.15c6.06,4.27,13.43,6.2,20.53,4.76              c62.41-12.64,124.48-26.09,186.24-40.37c12.77-2.95,21.76-15.44,20.41-30.17c-0.94-10.22-6.2-18.79-13.29-23.78              c-5.88-4.15-13.14-5.89-20.21-4.26c-62.2,14.37-124.72,27.93-187.57,40.68              C1349.27,2004.01,1340.1,2017.94,1343.14,2033.24z" class="color242b2b svgShape"/><polygon points="1350.74 1964.86 1484.58 1974.96 1357.6 2002" fill="#000000" class="color000 svgShape"/><path fill="#2b2724" d="M973.93,1959.49c-3.13,8.55-2.59,17.71,0.65,25.14c2.96,6.79,8.26,12.27,15.07,14.73               c59.9,21.6,119.93,42.34,180.12,62.21c12.45,4.11,26.61-1.89,33.11-15.19c4.5-9.22,4.46-19.27,0.99-27.22               c-2.87-6.6-8.17-11.86-15.06-14.14c-60.62-20.02-121.09-40.9-181.42-62.64               C994.35,1937.69,979.28,1944.83,973.93,1959.49z" class="color242b2b svgShape"/><polygon points="1032.43 1892.6 1131.27 1985.75 1012.33 1944.17" fill="#000000" class="color000 svgShape"/><path fill="#fd5d00" d="M1625.04,769.15c35.8-42.11,251.07,4.7,310.93,56.71c72.64,63.13,47.45,535.11,47.45,535.11             c-4.54,42.85-431.42,19.06-426.87-23.8C1556.55,1337.17,1548.87,858.75,1625.04,769.15z" class="color007afd svgShape"/><path d="M1822.09,944.23l-1.99,212.87l-243,44.8c0,0,302.52-12.28,302.81-13.48c0.29-1.2,11.3-106.49,11.3-106.49             L1822.09,944.23z" fill="#000000" class="color000 svgShape"/><path fill="#ffdac5" d="M1438.15,1202.2c-3.59,10.61,12.53,9.94,23.41,11.81c-13.27-0.46-36.65,6.63-36.83,12.36     c-0.47,15.27,31.52,10.78,40.81,10.33c-9.01,0.68-35.27,9.62-34.18,14.82c2.02,9.62,28.83,7.55,40.77,7.47     c-10.45,0.35-25.76,13.5-22.53,16.81c11.01,11.3,122.58,11.19,122.58,11.19l4.93-85.09c0,0-59.07-40.29-76.35-31.7     c-17.29,8.59,21.08,30.21,21.08,30.21S1442.87,1188.24,1438.15,1202.2z" class="colorffcfc5 svgShape"/><path fill="#f5b38d" d="M1448.56 1276.82c-.55-.56-1.33-1.82-.46-4 2.22-5.52 14.66-14.98 23.98-15.29l.1 2.91c-8.02.27-19.51 8.83-21.38 13.46-.22.56-.19.85-.16.88L1448.56 1276.82zM1429.94 1251.81c-.2-.98.08-2 .84-3.02 4.33-5.77 26.49-12.93 34.65-13.55l.22 2.91c-7.94.6-29.07 7.76-32.55 12.39-.3.39-.33.62-.32.67L1429.94 1251.81zM1426.19 1226.41l-2.91-.09c.04-1.22.7-2.45 1.97-3.63 5.59-5.23 24.63-10.5 36.37-10.13l-.1 2.91c-11.03-.43-29.21 4.6-34.28 9.34C1426.58 1225.42 1426.2 1226.01 1426.19 1226.41z" class="colorf58da3 svgShape"/><path fill="#ffdac5" d="M1838.82,1009.91l0.43,171.65l-262.15,20.34l-4.93,85.09l323.07,3.87c62.1,2.39,108.53-53.71,101.33-118.87     l-7.03-162.08H1838.82z" class="colorffcfc5 svgShape"/><path fill="#fd5d00" d="M1902.97,807.93c91.07,26.19,114.7,251.03,114.7,251.03c-54.69,32.23-137.82,26.51-188.11,4.41     c0,0-8.12-100.8-9.44-171.39C1818.97,830.52,1878.5,800.89,1902.97,807.93z" class="color007afd svgShape"/><path fill="#2b2724" d="M1108.39,1213.19l67.86,5.3l166.42,13.04c7.2,0.61,13.52,3.86,18.13,8.83c4.48,4.92,7.29,11.5,7.29,18.75     c0,15.28-12.34,27.66-27.62,27.66h-232.09V1213.19z" class="color242b2b svgShape"/><polygon points="1108.39 1213.21 1208.76 1221.05 1219.11 1286.74 1108.39 1286.74" fill="#000000" class="color000 svgShape"/><path fill="#2b2724" d="M764.74,1011.13l40.23,238.96c3.37,21.13,21.54,36.66,42.95,36.66h339.15l-47.9-287.22     c-2.87-18.03-18.4-31.3-36.66-31.3H801.41C778.57,968.22,761.18,988.61,764.74,1011.13z" class="color242b2b svgShape"/><path fill="#ffffff" d="M912.59,1118.87c0,24.7,20,44.7,44.66,44.7c13.44,0,25.48-5.96,33.61-15.35c-3.91,0.96-8,1.43-12.22,1.43     c-29.66,0-53.75-24.05-53.75-53.75c0-2.87,0.22-5.74,0.65-8.48C917.55,1095.52,912.59,1106.61,912.59,1118.87z" class="colorfff svgShape"/><polygon fill="#ffefe5" points="337.59 2191 398.32 2191 589.25 1341.85 528.52 1341.85" class="colore5e8ff svgShape"/><path fill="#2b2724" d="M399.88,2192.95h-64.72l0.53-2.37l191.27-850.67h64.72l-0.53,2.37L399.88,2192.95z M340.01,2189.06h56.75     l190.06-845.27h-56.75L340.01,2189.06z" class="color242b2b svgShape"/><polygon fill="#ffefe5" points="2207.66 2191 2146.92 2191 1955.99 1341.85 2016.73 1341.85" class="colore5e8ff svgShape"/><path fill="#2b2724" d="M2210.09,2192.95h-64.72l-191.8-853.04h64.72L2210.09,2192.95z M2148.48,2189.06h56.75l-190.05-845.27     h-56.75L2148.48,2189.06z" class="color242b2b svgShape"/><rect width="1862.36" height="58.71" x="341.44" y="1283.13" fill="#ffffff" class="colorfff svgShape"/><path fill="#2b2724" d="M2205.75,1343.79H339.5v-62.6h1866.25V1343.79z M343.38,1339.91h1858.48v-54.83H343.38V1339.91z" class="color242b2b svgShape"/><path d="M1578.71,502.93c0,0,6.13,62.83,47.3,71.01s50.92-31.44,50.92-31.44l-20.55-47.63l-36.8,1.1" fill="#000000" class="color000 svgShape"/><path fill="#ffdac5" d="M1815.16,743.83l-22.64,51.12l-69.4,9.41l-38.07,9.94l9.21-60.87l-1.42-15.01l-3.83-39.68l115.22-79.26     c-0.27,5.23-0.44,10.42-0.5,15.51C1802.82,695.6,1815.16,743.83,1815.16,743.83z" class="colorffcfc5 svgShape"/><path fill="#ffb58a" d="M1804.24,619.49c-0.27,5.23-0.44,10.42-0.5,15.51c-0.75,0.14-1.46,0.25-2.17,0.33     c-1.2,3.17-2.01,6.8-2.46,10.82c-14.1,54.09-65.26,90.35-106.26,92.29l-3.83-39.68L1804.24,619.49z" class="colorfc9b88 svgShape"/><path fill="#b54300" d="M1815.18 743.84c-11.13 28.73-55.81 46.24-92.04 60.52 0 0 12.95 64.52 23.98 63.97 10.17-.51 101.62-36.83 98.85-87.28C1831.07 771.06 1826.87 758.29 1815.18 743.84zM1723.12 804.37c0 0-19.41 49.92-33.73 54.44-16.31 5.14-30.6-40.58-28.95-65.05l33.82-40.32C1691.71 770.35 1686.26 785.46 1723.12 804.37z" class="color0068b5 svgShape"/><path fill="#ffdac5" d="M1696.65,723.15c41.64,0.61,96.1-36.3,110.76-92.41c0.43-4,1.23-7.64,2.45-10.81     c9.75-1.07,20.1-7.46,27.38-17.81c11.54-16.42,11.04-36.81-1.26-45.34c-7.01-4.92-16.13-5.03-24.98-1     c-8.42-58.02-42.17-101.56-84.1-103.17c-27.98-1.07-53.7,16.67-71.6,45.53c-2.16,3.47-4.23,7.11-6.13,10.9     c-11,21.62-17.93,48.11-18.95,76.83C1627.23,661.3,1652.88,722.47,1696.65,723.15z" class="colorffcfc5 svgShape"/><path d="M1888.54,626.62c-6.15,16.28-20.75,28.4-37.02,34.71c-17.4,6.66-32.53,17.71-50.29,12.05l1.77-3.1     c-0.7-14.26,3.07-28.1,4.46-39.56c0.38-3.97,1.18-7.63,2.41-10.8c9.74-1.06,20.1-7.47,27.39-17.78     c11.51-16.49,10.99-36.84-1.27-45.39c-7.01-4.93-16.15-5.02-24.95-0.98c0,0-19.85,11.28-17.94,29.59l-13.65,5.73l-8.85-32.88     c0,0-24.01-15.15-14.44-34.4c0,0-170.01,58.01-177.18-17.62c-7.17-75.63,73.09-55.66,73.09-55.66s-7.5-10.55-13.22-23.98     c-11.48-26.58-16.16-64.4,57.84-53.2c84.96,12.88,116.71,77.27,127.01,107.01c10.62-3.59,24.53-0.73,33.02,6.29     c11.15,9.31,13.55,27.42,5.18,39.27c5.18-7.79,16.96-9.15,25.01-4.43c8.01,4.72,12.56,13.99,13.83,23.23     c2.37,16.89-5.28,34.81-19.03,44.81C1895.39,600.32,1894.64,610.34,1888.54,626.62z" fill="#000000" class="color000 svgShape"/><polygon fill="#ffb58a" points="1663.38 595.19 1652.94 642.37 1676.22 644.42" class="colorfc9b88 svgShape"/><path fill="#ffffff" d="M468.05,658.94l190.42,103.03c30.91,16.72,42.4,55.33,25.68,86.24l-36.19,66.89     c-2.32,4.29-2.84,9.33-1.45,14l11.08,37.15c2.9,9.73-2.64,19.98-12.37,22.88l-37.18,11.07c-4.67,1.39-8.6,4.58-10.92,8.87     l-36.21,66.93c-16.72,30.91-55.33,42.4-86.24,25.68L284.28,998.66c-30.94-16.74-42.44-55.36-25.72-86.26l123.25-227.78     C398.54,653.71,437.15,642.22,468.05,658.94z" class="colorfff svgShape"/><path d="M504.85,1111.31c-10.75,0-21.39-2.67-31.11-7.93l-190.38-103.01c-15.42-8.34-26.66-22.18-31.67-38.97     c-5-16.79-3.17-34.51,5.17-49.92l123.25-227.78c8.33-15.4,22.16-26.64,38.95-31.64c16.79-5,34.52-3.16,49.92,5.18L659.4,760.26     c15.4,8.33,26.64,22.16,31.64,38.95c5,16.78,3.16,34.51-5.18,49.92l-36.19,66.89c-2.09,3.86-2.55,8.31-1.29,12.52l11.08,37.15     c1.55,5.2,0.99,10.7-1.6,15.48c-2.58,4.78-6.87,8.26-12.08,9.82l-37.18,11.07c-4.21,1.25-7.68,4.07-9.77,7.93l-36.21,66.93     c-8.33,15.4-22.16,26.64-38.95,31.64C517.47,1110.4,511.14,1111.31,504.85,1111.31z M437.86,653.18c-5.91,0-11.86,0.86-17.69,2.6     c-15.79,4.7-28.8,15.27-36.65,29.77L260.27,913.33c-7.84,14.49-9.56,31.16-4.86,46.96c4.71,15.79,15.29,28.82,29.79,36.67     l190.38,103.01c29.9,16.18,67.42,5.02,83.61-24.9l36.21-66.93c2.58-4.77,6.87-8.26,12.08-9.81l37.18-11.07     c4.21-1.25,7.68-4.07,9.77-7.94c2.09-3.86,2.55-8.31,1.29-12.52l-11.08-37.15c-1.55-5.21-0.98-10.71,1.6-15.48l36.19-66.89     c16.19-29.92,5.02-67.42-24.9-83.61L467.13,660.65C457.98,655.7,447.97,653.18,437.86,653.18z" fill="#000000" class="color000 svgShape"/><path fill="#ffffff" d="M1051.42,357.15l19.96,186.71c3.24,30.3-18.7,57.5-49.01,60.74l-65.58,7.01c-4.21,0.45-8.06,2.55-10.72,5.85     l-21.1,26.17c-5.53,6.86-15.57,7.93-22.43,2.4l-26.19-21.13c-3.29-2.66-7.5-3.9-11.71-3.45l-65.62,7.01     c-30.3,3.24-57.5-18.7-60.74-49.01l-19.95-186.68c-3.24-30.33,18.7-57.53,49-60.77l223.35-23.87     C1020.99,304.91,1048.18,326.85,1051.42,357.15z" class="colorfff svgShape"/><path d="M912.52,651.51c-4.07,0-7.99-1.38-11.2-3.97l-26.19-21.13c-2.91-2.34-6.54-3.41-10.28-3.02l-65.62,7.02     c-31.32,3.35-59.52-19.41-62.87-50.73L716.4,392.99c-1.62-15.18,2.76-30.09,12.34-41.97c9.58-11.88,23.21-19.31,38.38-20.94     l223.35-23.88c15.16-1.62,30.06,2.76,41.94,12.34c11.88,9.58,19.31,23.22,20.93,38.39l19.96,186.71     c1.62,15.17-2.76,30.07-12.34,41.94c-9.58,11.88-23.22,19.31-38.39,20.93l-65.59,7.01c-3.72,0.4-7.06,2.22-9.41,5.14l-21.1,26.17     c-3,3.72-7.27,6.05-12.02,6.56C913.81,651.48,913.16,651.51,912.52,651.51z M866.37,619.42c4.07,0,7.99,1.38,11.2,3.96     l26.19,21.13c2.91,2.35,6.56,3.42,10.28,3.02c3.72-0.4,7.06-2.22,9.41-5.13l21.1-26.17c3-3.72,7.27-6.06,12.02-6.56l65.59-7.01     c14.14-1.51,26.84-8.44,35.77-19.51c8.93-11.07,13.01-24.95,11.5-39.09l-19.96-186.71c-1.51-14.14-8.44-26.85-19.51-35.78     c-11.07-8.93-24.93-13-39.09-11.5l-223.35,23.88c-14.14,1.51-26.84,8.44-35.77,19.51c-8.93,11.07-13.02,24.96-11.5,39.12     l19.95,186.68c3.12,29.19,29.4,50.4,58.6,47.28l65.62-7.02C865.09,619.46,865.73,619.42,866.37,619.42z" fill="#000000" class="color000 svgShape"/><path fill="#ffffff" d="M325.78,979.86l24.33-44.96c4.16-7.68,13.18-11.35,21.51-8.74l118.35,37.04c8.34,2.61,17.36-1.05,21.51-8.74     l60.76-112.3" class="colorfff svgShape"/><path d="M327.49,980.78l-3.41-1.85l24.33-44.96c4.59-8.48,14.6-12.55,23.8-9.67l118.34,37.04c7.45,2.34,15.52-0.96,19.23-7.81     l60.76-112.3l3.41,1.85l-60.76,112.3c-4.59,8.48-14.6,12.55-23.8,9.67l-118.34-37.04c-7.43-2.34-15.52,0.96-19.23,7.81     L327.49,980.78z" fill="#000000" class="color000 svgShape"/><path d="M479.08,960.18l-3.41-1.85l60.12-111.12c2.9-5.36,1.89-12.09-2.44-16.36l-51.09-50.35c-3.12-3.07-7.41-4.45-11.7-3.81     c-4.33,0.65-8,3.22-10.08,7.07l-78.94,145.9l-3.41-1.85l78.94-145.9c2.67-4.93,7.38-8.23,12.92-9.06     c5.54-0.82,11.01,0.95,15.01,4.89l51.09,50.35c5.56,5.48,6.85,14.11,3.13,20.98L479.08,960.18z" fill="#000000" class="color000 svgShape"/><circle cx="579.25" cy="883.08" r="13.26" fill="#000000" class="color000 svgShape"/><circle cx="543.56" cy="949.03" r="13.26" fill="#000000" class="color000 svgShape"/><polygon points="502.19 850.33 472.04 816.86 474.92 814.26 505.07 847.73" fill="#000000" class="color000 svgShape"/><rect width="3.88" height="42.74" x="472.1" y="837.75" transform="rotate(-54.823 474.037 859.094)" fill="#000000" class="color000 svgShape"/><rect width="3.89" height="42.74" x="457.59" y="864.57" transform="rotate(-68.345 459.537 885.962)" fill="#000000" class="color000 svgShape"/><rect width="3.89" height="45.05" x="443.07" y="890.24" transform="rotate(-81.153 445.02 912.767)" fill="#000000" class="color000 svgShape"/><path fill="#b54504" d="M895.03,575.81c-74.14-41.75-95.03-88.99-93.45-127.97c0.37-9.15,6.21-17.24,14.86-20.23      c30.99-10.72,48.91-24.12,59.07-34.79c7.4-7.76,19.54-8.95,28.3-2.77c12.03,8.5,32.21,18.18,64.68,22.71      c9.07,1.26,16.36,8.06,18.49,16.97c9.1,37.94-2.23,88.33-66.92,143.64C913.1,579.33,903.04,580.31,895.03,575.81z" class="color04b5a4 svgShape"/><path d="M905.79,580.56c-4.02,0-8.06-1.01-11.7-3.06c-80.57-45.37-95.83-95.59-94.44-129.74c0.41-10.1,6.76-18.73,16.17-21.99      c31.6-10.93,49.15-24.68,58.3-34.29c8.05-8.45,21.3-9.74,30.83-3.01c10.84,7.66,30.72,17.75,63.83,22.37      c9.86,1.37,17.76,8.61,20.12,18.44c7.98,33.24,2.74,85.48-67.55,145.57C916.92,578.61,911.37,580.56,905.79,580.56z       M891.31,388.04c-5.29,0-10.54,2.08-14.38,6.11c-9.45,9.92-27.51,24.1-59.85,35.28c-7.89,2.73-13.21,9.99-13.55,18.48      c-1.35,33.07,13.6,81.8,92.46,126.2l0,0c7.29,4.11,16.47,3.21,22.82-2.23c68.79-58.81,74.02-109.52,66.3-141.71      c-1.98-8.26-8.6-14.35-16.88-15.5c-33.88-4.72-54.34-15.14-65.53-23.04C899.29,389.22,895.29,388.04,891.31,388.04z" fill="#000000" class="color000 svgShape"/><circle cx="897.96" cy="476.27" r="47" fill="#ffffff" class="colorfff svgShape"/><path fill="#2b2724" d="M890.41,495.92c-1.16,0.11-2.36-0.22-3.33-1.01l-10.61-8.72c-1.94-1.6-2.22-4.47-0.63-6.41     c1.59-1.94,4.47-2.22,6.41-0.63l7.09,5.83l22.74-27.67c1.6-1.94,4.47-2.22,6.41-0.63c1.94,1.6,2.22,4.47,0.63,6.41l-25.64,31.18     C892.69,495.25,891.57,495.81,890.41,495.92z" class="color242b2b svgShape"/><path fill="#883200" d="M586.64,1869.44c0,0,27.97-16.14,31.74-43.58c3.77-27.44-40.89-45.19-40.89-45.19s10.22,51.64-2.69,51.11     s-8.07-58.64-8.07-58.64s-40.35-19.9-64.02-19.9c0,0,24.21,45.73,15.06,50.03s-40.89-52.72-40.89-52.72s-33.35-13.99-55.41,13.45     c-22.06,27.44,6.46,54.87,6.46,54.87s49.49-3.23,53.8,7.53s-46.8,10.22-46.8,10.22s22.59,43.04,37.66,47.88     c15.06,4.84,34.65-24.75,50.1-26.9c15.94-2.22,31.13,3.23,27.37,11.3s-47.33,10.34-53.79,34.54     C496.27,1903.44,566.19,1928.08,586.64,1869.44z" class="color00887d svgShape"/><path d="M616.66,2035.73c-0.09-1.32-9.59-132.67-31.63-165.21c-22.03-32.52-122.45-77.94-123.46-78.4l1.59-3.54     c4.17,1.88,102.44,46.34,125.08,79.76c22.62,33.4,31.91,161.67,32.29,167.11L616.66,2035.73z" fill="#000000" class="color000 svgShape"/><path fill="#883200" d="M689.83,1938.89c0,0-24.93-19.04-24.25-43.46s47.43-31.66,47.43-31.66s-18.31,42.82-5.53,44.7     s17.31-49.26,17.31-49.26s42.86-9.89,66.13-5.59c0,0-31.12,35.16-22.81,40.54c8.31,5.38,48.63-38.18,48.63-38.18     s35.03-6.04,52.34,21.7c17.3,27.74-15.12,46.29-15.12,46.29s-48.15-11.79-54.1-3.26c-5.95,8.53,44.39,17.35,44.39,17.35     s-29.1,33.12-44.68,34.57c-15.59,1.45-30.11-27.7-44.96-32.37c-15.32-4.82-31.13-2.87-28.72,4.8     c2.41,7.66,44.89,17.54,47.37,39.66C773.26,1984.73,700.56,1993.33,689.83,1938.89z" class="color00887d svgShape"/><path d="M660.1,2027.49l-3.88-0.25c0.17-2.63,4.49-64.8,32.31-89.79c27.63-24.82,131.36-45.42,135.77-46.29l0.75,3.81     c-1.07,0.21-107.09,21.26-133.92,45.37C664.49,1964.26,660.14,2026.86,660.1,2027.49z" fill="#000000" class="color000 svgShape"/><path fill="#b54504" d="M639.68,1892.64c0,0-36.24-20.91-41.12-56.45c-4.88-35.54,52.97-58.54,52.97-58.54s-13.24,66.91,3.48,66.21     s10.45-75.97,10.45-75.97s52.27-25.79,82.93-25.79c0,0-31.36,59.24-19.51,64.81c11.85,5.58,52.97-68.3,52.97-68.3     s43.21-18.12,71.78,17.42c28.57,35.54-8.36,71.09-8.36,71.09s-64.12-4.18-69.69,9.76s60.63,13.24,60.63,13.24     s-29.27,55.75-48.79,62.03c-19.51,6.27-44.88-32.06-64.9-34.85c-20.65-2.87-40.33,4.18-35.46,14.64     c4.88,10.45,73.18,6.97,81.54,38.33C768.61,1930.28,666.16,1968.61,639.68,1892.64z" class="color04b5a4 svgShape"/><path d="M618.23,2029.44c-0.4-3.84-9.49-94.59,19.84-137.89c29.24-43.17,156.4-100.7,161.8-103.13l1.59,3.54     c-1.31,0.59-131.55,59.51-160.18,101.76c-28.54,42.14-19.29,134.38-19.19,135.31L618.23,2029.44z" fill="#000000" class="color000 svgShape"/><g><path fill="#ffffff" d="M744.12,2012.16v24c0,3.86-3.12,6.98-6.98,6.98H548.42c-3.86,0-6.98-3.12-6.98-6.98v-24      c0-3.86,3.12-6.98,6.98-6.98h188.71C741,2005.18,744.12,2008.3,744.12,2012.16z" class="colorfff svgShape"/><path fill="#2b2724" d="M737.14,2045.08H548.42c-4.92,0-8.92-4-8.92-8.92v-24c0-4.92,4-8.92,8.92-8.92h188.72      c4.92,0,8.92,4,8.92,8.92v24C746.06,2041.08,742.06,2045.08,737.14,2045.08z M548.42,2007.12c-2.78,0-5.03,2.26-5.03,5.03v24      c0,2.78,2.26,5.03,5.03,5.03h188.72c2.78,0,5.03-2.26,5.03-5.03v-24c0-2.78-2.26-5.03-5.03-5.03H548.42z" class="color242b2b svgShape"/></g><g><path fill="#ffffff" d="M729.88,2043.15l-15.5,137.86c-0.72,6.36-6.11,11.16-12.5,11.16H585.41c-4.37,0-8.27-2.24-10.59-5.67     c-1.01-1.63-1.7-3.47-1.91-5.49l-13.8-122.65l-1.7-15.21H729.88z" class="colorfff svgShape"/></g><g><path fill="#ffefe5" d="M729.88,2043.15l-15.5,137.86c-0.72,6.36-6.11,11.16-12.5,11.16H585.41c-4.37,0-8.27-2.24-10.59-5.67     c78.83-20.95,113.06-62.68,132.37-128.58l-148.09,0.43l-1.7-15.21H729.88z" class="colore5e8ff svgShape"/></g><g><path fill="#2b2724" d="M701.88,2194.12H585.41c-4.88,0-9.44-2.44-12.2-6.53c-1.26-2.02-1.99-4.14-2.23-6.37l-15.74-140.01h176.82     l-15.74,140.02C715.48,2188.58,709.27,2194.12,701.88,2194.12z M559.58,2045.09l15.26,135.71c0.17,1.65,0.72,3.22,1.63,4.68     c1.99,2.96,5.35,4.75,8.93,4.75h116.48c5.41,0,9.96-4.06,10.57-9.44l15.26-135.7H559.58z" class="color242b2b svgShape"/></g></svg>