<svg xmlns="http://www.w3.org/2000/svg" enable-background="new 0 0 800 800" viewBox="191.55 136.33 416.9 527.34"><path fill="#ffb58a" d="M386 489.3v53.6h-87.5v96.8h110.7v-64.3h81.1v64.3h19.8v-120L386 489.3zm-13.4 140.9h-47.3v-54.8h47.3v54.8zm77.2-74.8c-5.8 0-10.6-4.7-10.6-10.6 0-5.8 4.7-10.6 10.6-10.6 5.9 0 10.6 4.7 10.6 10.6 0 5.9-4.7 10.6-10.6 10.6zM530.7 343.3c-69.9 69.9-183.2 69.9-253.1 0 69.9-69.9 183.2-69.9 253.1 0z" class="colore8e7fd svgShape"/><path fill="none" stroke="#9c4919" stroke-linecap="round" stroke-linejoin="round" stroke-miterlimit="10" stroke-width="2" d="M298.5 639.7v-96.8H386v-53.6l124.1 30.4v120" class="colorStroke31199c svgStroke"/><path fill="none" stroke="#f8c1a1" stroke-linecap="round" stroke-linejoin="round" stroke-miterlimit="10" stroke-width="2" d="M348.6 575.4v54.8" class="colorStrokea2a1f8 svgStroke"/><path fill="none" stroke="#9c4919" stroke-linecap="round" stroke-linejoin="round" stroke-miterlimit="10" stroke-width="2" d="M316.6 372.9c-14-7.8-27.1-17.7-39-29.6h0c69.9-69.9 183.2-69.9 253.1 0h0c-9.9 9.9-20.7 18.4-32.2 25.6" class="colorStroke31199c svgStroke"/><path fill="none" stroke="#f8c1a1" stroke-linecap="round" stroke-linejoin="round" stroke-miterlimit="10" stroke-width="2" d="M282.7 479.1c7.3 7.8 15.4 14.8 24.1 21" class="colorStrokea2a1f8 svgStroke"/><path fill="none" stroke="#f8c1a1" stroke-linecap="round" stroke-linejoin="round" stroke-width="2" d="M255.9 295.1c-11 21.9-17.2 46.7-17.2 72.9 0 8.8.7 17.4 2 25.9" class="colorStrokea2a1f8 svgStroke"/><path fill="#ff6103" d="m245.9 293 17-10.4.5 19.9z" class="colora2a1f8 svgShape"/><path fill="none" stroke="#f8c1a1" stroke-linecap="round" stroke-linejoin="round" stroke-miterlimit="10" stroke-width="2" d="M355.4 212.2c-32 9.3-60 28.3-80.5 53.5" class="colorStrokea2a1f8 svgStroke"/><path fill="none" stroke="#f8c1a1" stroke-linecap="round" stroke-linejoin="round" stroke-width="2" d="M532.3 273c-20.9-28.8-51-50.6-86-60.8" class="colorStrokea2a1f8 svgStroke"/><path fill="#ff6103" d="m538.9 265.1 1.3 19.9-17.9-8.8z" class="colora2a1f8 svgShape"/><path fill="none" stroke="#f8c1a1" stroke-linecap="round" stroke-linejoin="round" stroke-miterlimit="10" stroke-width="2" d="M549.4 302.7c8.8 20 13.7 42 13.7 65.2 0 9.9-.9 19.5-2.6 28.9M520 477.9c-6.4 7-13.5 13.4-21.1 19.1" class="colorStrokea2a1f8 svgStroke"/><circle cx="256" cy="439.3" r="45.5" fill="none" stroke="#9c4919" stroke-linecap="round" stroke-linejoin="round" stroke-miterlimit="10" stroke-width="2" class="colorStroke31199c svgStroke"/><circle cx="544" cy="439.3" r="45.5" fill="none" stroke="#9c4919" stroke-linecap="round" stroke-linejoin="round" stroke-miterlimit="10" stroke-width="2" class="colorStroke31199c svgStroke"/><path fill="none" stroke="#9c4919" stroke-linecap="round" stroke-linejoin="round" stroke-miterlimit="10" stroke-width="2" d="m320.4 299.6-11.1-11M363.5 295.5l-6.4-25.9M404.1 290.8v-25M479.9 307.6l19.1-19M447.4 285l3.8-15.4" class="colorStroke31199c svgStroke"/><path fill="#ffbf66" d="M255 425.4h-.1l-5.7 3.1-.9-3.4 7.2-3.9h3.8v33H255v-28.8zM534.4 449.1c1.3.8 4.2 2.1 7.3 2.1 5.7 0 7.5-3.6 7.5-6.4-.1-4.6-4.2-6.6-8.5-6.6h-2.5v-3.3h2.5c3.2 0 7.4-1.7 7.4-5.6 0-2.6-1.7-5-5.8-5-2.6 0-5.2 1.2-6.6 2.2l-1.2-3.2c1.7-1.3 5.1-2.5 8.6-2.5 6.5 0 9.4 3.9 9.4 7.9 0 3.4-2 6.3-6.1 7.8v.1c4.1.8 7.4 3.9 7.4 8.5 0 5.3-4.1 9.9-12 9.9-3.7 0-6.9-1.2-8.6-2.2l1.2-3.7z" class="color7069f6 svgShape"/><path fill="#ffbf66" stroke="#9c4919" stroke-linecap="round" stroke-linejoin="round" stroke-miterlimit="10" stroke-width="2" d="M345.4 371.3c0-32.4 26.3-58.7 58.7-58.7s58.7 26.3 58.7 58.7c-15.9-12-30 0-30 0-15.7-12.8-28.7 0-28.7 0s-12.9-12.8-28.7 0c.1 0-14-12-30 0z" class="color7069f6 svgShape colorStroke31199c svgStroke"/><path fill="none" stroke="#9c4919" stroke-linecap="round" stroke-linejoin="round" stroke-miterlimit="10" stroke-width="2" d="M404.1 371.3v82.1c0 3.5 2.9 6.4 6.4 6.4h0c3.5 0 6.4-2.9 6.4-6.4v-4.8" class="colorStroke31199c svgStroke"/><circle cx="400.8" cy="205.8" r="45.5" fill="none"/><path fill="none" stroke="#9c4919" stroke-linecap="round" stroke-linejoin="round" stroke-miterlimit="10" stroke-width="2" d="M446.3 205.8c0 25.1-20.4 45.5-45.5 45.5s-45.5-20.4-45.5-45.5c0-13.6 6-25.9 15.5-34.2 8-7 18.5-11.3 30-11.3 25.2 0 45.5 20.4 45.5 45.5z" class="colorStroke31199c svgStroke"/><path fill="#ffbf66" d="M390.1 220.7V218l3.5-3.4c8.4-8 12.2-12.3 12.3-17.2 0-3.3-1.6-6.4-6.5-6.4-3 0-5.5 1.5-7 2.8l-1.4-3.1c2.3-1.9 5.5-3.3 9.3-3.3 7.1 0 10.1 4.9 10.1 9.6 0 6.1-4.4 11-11.4 17.7l-2.6 2.4v.1h14.8v3.7h-21.1z" class="color7069f6 svgShape"/><path fill="none" stroke="#f8c1a1" stroke-linecap="round" stroke-linejoin="round" stroke-miterlimit="10" stroke-width="2" d="M428.5 575.4v64.3" class="colorStrokea2a1f8 svgStroke"/><path fill="none" stroke="#9c4919" stroke-linecap="round" stroke-linejoin="round" stroke-miterlimit="10" stroke-width="2" d="M325.3 575.4h47.3v54.8h-47.3zM409.3 639.7v-64.3h81.1v64.3" class="colorStroke31199c svgStroke"/><circle cx="449.8" cy="544.9" r="10.6" fill="none" stroke="#9c4919" stroke-linecap="round" stroke-linejoin="round" stroke-miterlimit="10" stroke-width="2" class="colorStroke31199c svgStroke"/></svg>