<svg xmlns="http://www.w3.org/2000/svg" enable-background="new 0 0 3000 3000" viewBox="0 0 3000 3000"><path fill="#fb600a" d="M1546.5,639.5h-278.1c-3.3,0-6,2.7-6,6v67.3c0,1.6,0.6,3.1,1.8,4.2c1.1,1.1,2.6,1.8,4.2,1.8c0,0,0,0,0,0     l5.9,0l271.1-0.2c0.3,0,0.6,0.2,0.7,0.3c0.1,0.1,0.3,0.4,0.3,0.7l0.5,1804.7c0,0.8-0.7,1.5-1.5,1.5H105.8c-0.8,0-1.5-0.7-1.5-1.5     V720.3c0-0.8,0.7-1.5,1.5-1.5h277.1c3.2,0,5.7-2.5,6-5.6c0-0.1,0-0.3,0-0.4v-67.3c0-0.1,0-0.3,0-0.4c-0.2-3.1-2.8-5.6-6-5.6     H105.8c-44.5,0-80.8,36.2-80.8,80.8v1803.9c0,44.5,36.2,80.8,80.8,80.8h1439.7c44.5,0,80.8-36.2,80.8-80.8v-1805     C1626.2,675.3,1590.5,639.5,1546.5,639.5z M1614.3,2524.2c0,38-30.9,68.8-68.8,68.8H105.8c-38,0-68.8-30.9-68.8-68.8V720.3     c0-38,30.9-68.8,68.8-68.8h271.1v55.4H105.8c-7.4,0-13.5,6-13.5,13.5v1803.9c0,7.4,6,13.5,13.5,13.5h1439.7     c7.4,0,13.5-6,13.5-13.5l-0.5-1804.7c0-3.5-1.3-6.7-3.8-9.2c-2.4-2.4-5.7-3.8-9.2-3.8h0l-271.1,0.2v-55.4h272.1     c37.4,0,67.7,30.4,67.7,67.7V2524.2z" class="color2e2d33 svgShape"/><path fill="#f5833f" d="M1614.3,719.2v1805c0,38-30.9,68.8-68.8,68.8H105.8c-38,0-68.8-30.9-68.8-68.8V720.3     c0-38,30.9-68.8,68.8-68.8h271.1v55.4H105.8c-7.4,0-13.5,6-13.5,13.5v1803.9c0,7.4,6,13.5,13.5,13.5h1439.7     c7.4,0,13.5-6,13.5-13.5l-0.5-1804.7c0-3.5-1.3-6.7-3.8-9.2c-2.4-2.4-5.7-3.8-9.2-3.8h0l-271.1,0.2v-55.4h272.1     C1583.9,651.5,1614.3,681.9,1614.3,719.2z" class="color3fa9f5 svgShape"/><path fill="#fb600a" d="M1234.9 541.7h-270C961.7 460.3 894.4 395 812.2 395c-82.3 0-149.6 65.3-152.7 146.7H416.3c-21.7 0-39.4 17.7-39.4 39.5v177c0 3.3 2.7 6 6 6h885.5c3.3 0 6-2.7 6-6v-177C1274.4 559.4 1256.6 541.7 1234.9 541.7zM1262.4 752.2H388.8v-171c0-15.2 12.3-27.5 27.4-27.5h249.1c3.3 0 6-2.7 6-6 0-77.6 63.2-140.7 140.9-140.7 77.7 0 140.9 63.1 140.9 140.7 0 3.3 2.7 6 6 6h275.9c15.2 0 27.5 12.4 27.5 27.5V752.2zM282.4 1052.2c-70.1 0-127 57-127 127 0 70.1 57 127 127 127 70 0 127-57 127-127C409.4 1109.2 352.5 1052.2 282.4 1052.2zM282.4 1294.3c-63.5 0-115.1-51.6-115.1-115.1 0-63.5 51.6-115.1 115.1-115.1 63.5 0 115.1 51.6 115.1 115.1C397.5 1242.7 345.9 1294.3 282.4 1294.3z" class="color2e2d33 svgShape"/><path fill="#bd7449" d="M282.4,1064.1c-63.5,0-115.1,51.6-115.1,115.1c0,63.5,51.6,115.1,115.1,115.1        c63.5,0,115.1-51.6,115.1-115.1C397.5,1115.8,345.9,1064.1,282.4,1064.1z M361.9,1136.2l-103.3,103.3        c-1.1,1.1-2.6,1.8-4.2,1.8c-1.6,0-3.1-0.6-4.2-1.8l-47.1-47.1c-2.3-2.3-2.3-6.1,0-8.5c2.3-2.3,6.1-2.3,8.4,0l42.9,42.9        l99.1-99.1c2.3-2.3,6.1-2.3,8.4,0C364.2,1130,364.2,1133.8,361.9,1136.2z" class="color49bda0 svgShape"/><path fill="#fb600a" d="M361.9 1136.2l-103.3 103.3c-1.1 1.1-2.6 1.8-4.2 1.8-1.6 0-3.1-.6-4.2-1.8l-47.1-47.1c-2.3-2.3-2.3-6.1 0-8.5 2.3-2.3 6.1-2.3 8.4 0l42.9 42.9 99.1-99.1c2.3-2.3 6.1-2.3 8.4 0C364.2 1130 364.2 1133.8 361.9 1136.2zM1489.9 1129.2H454.5c-3.3 0-6-2.7-6-6s2.7-6 6-6h1035.4c3.3 0 6 2.7 6 6S1493.2 1129.2 1489.9 1129.2zM1489.9 1241.2H454.5c-3.3 0-6-2.7-6-6s2.7-6 6-6h1035.4c3.3 0 6 2.7 6 6S1493.2 1241.2 1489.9 1241.2z" class="color2e2d33 svgShape"/><g><path fill="#fb600a" d="M282.4,1349.9c-70.1,0-127,57-127,127c0,70,57,127,127,127c70,0,127-57,127-127        C409.4,1406.8,352.5,1349.9,282.4,1349.9z M282.4,1592c-63.5,0-115.1-51.6-115.1-115.1c0-63.5,51.6-115.1,115.1-115.1        c63.5,0,115.1,51.6,115.1,115.1C397.5,1540.4,345.9,1592,282.4,1592z" class="color2e2d33 svgShape"/><path fill="#bd7449" d="M282.4,1361.8c-63.5,0-115.1,51.6-115.1,115.1c0,63.5,51.6,115.1,115.1,115.1        c63.5,0,115.1-51.6,115.1-115.1C397.5,1413.4,345.9,1361.8,282.4,1361.8z M361.9,1433.8l-103.3,103.3        c-1.1,1.1-2.6,1.8-4.2,1.8c-1.6,0-3.1-0.6-4.2-1.8l-47.1-47.1c-2.3-2.3-2.3-6.1,0-8.4c2.3-2.3,6.1-2.3,8.4,0l42.9,42.9        l99.1-99.1c2.3-2.3,6.1-2.3,8.4,0C364.2,1427.7,364.2,1431.5,361.9,1433.8z" class="color49bda0 svgShape"/><g fill="none"><path fill="#fb600a" d="M361.9,1433.8l-103.3,103.3c-1.1,1.1-2.6,1.8-4.2,1.8c-1.6,0-3.1-0.6-4.2-1.8l-47.1-47.1        c-2.3-2.3-2.3-6.1,0-8.4c2.3-2.3,6.1-2.3,8.4,0l42.9,42.9l99.1-99.1c2.3-2.3,6.1-2.3,8.4,0        C364.2,1427.7,364.2,1431.5,361.9,1433.8z" class="color2e2d33 svgShape"/></g><g fill="none"><path fill="#fb600a" d="M1489.9 1426.8H454.5c-3.3 0-6-2.7-6-6s2.7-6 6-6h1035.4c3.3 0 6 2.7 6 6S1493.2 1426.8 1489.9 1426.8zM1489.9 1538.9H454.5c-3.3 0-6-2.7-6-6s2.7-6 6-6h1035.4c3.3 0 6 2.7 6 6S1493.2 1538.9 1489.9 1538.9z" class="color2e2d33 svgShape"/></g></g><g><path fill="#fb600a" d="M282.4,1647.5c-70.1,0-127,57-127,127s57,127,127,127c70,0,127-57,127-127S352.5,1647.5,282.4,1647.5z         M282.4,1889.6c-63.5,0-115.1-51.6-115.1-115.1c0-63.5,51.6-115.1,115.1-115.1c63.5,0,115.1,51.6,115.1,115.1        C397.5,1838,345.9,1889.6,282.4,1889.6z" class="color2e2d33 svgShape"/><path fill="#bd7449" d="M282.4,1659.5c-63.5,0-115.1,51.6-115.1,115.1c0,63.5,51.6,115.1,115.1,115.1        c63.5,0,115.1-51.6,115.1-115.1C397.5,1711.1,345.9,1659.5,282.4,1659.5z M361.9,1731.5l-103.3,103.3        c-1.1,1.1-2.6,1.7-4.2,1.7c-1.6,0-3.1-0.6-4.2-1.7l-47.1-47.1c-2.3-2.3-2.3-6.1,0-8.4c2.3-2.3,6.1-2.3,8.4,0l42.9,42.9        l99.1-99.1c2.3-2.3,6.1-2.3,8.4,0C364.2,1725.4,364.2,1729.2,361.9,1731.5z" class="color49bda0 svgShape"/><g fill="none"><path fill="#fb600a" d="M361.9,1731.5l-103.3,103.3c-1.1,1.1-2.6,1.7-4.2,1.7c-1.6,0-3.1-0.6-4.2-1.7l-47.1-47.1        c-2.3-2.3-2.3-6.1,0-8.4c2.3-2.3,6.1-2.3,8.4,0l42.9,42.9l99.1-99.1c2.3-2.3,6.1-2.3,8.4,0        C364.2,1725.4,364.2,1729.2,361.9,1731.5z" class="color2e2d33 svgShape"/></g><g fill="none"><path fill="#fb600a" d="M1489.9 1724.5H454.5c-3.3 0-6-2.7-6-6s2.7-6 6-6h1035.4c3.3 0 6 2.7 6 6S1493.2 1724.5 1489.9 1724.5zM1489.9 1836.6H454.5c-3.3 0-6-2.7-6-6 0-3.3 2.7-6 6-6h1035.4c3.3 0 6 2.7 6 6C1495.8 1833.9 1493.2 1836.6 1489.9 1836.6z" class="color2e2d33 svgShape"/></g></g><g><path fill="#fb600a" d="M282.4,1944.7c-70.1,0-127,57-127,127c0,70,57,127,127,127c70,0,127-57,127-127        C409.4,2001.6,352.5,1944.7,282.4,1944.7z M282.4,2186.8c-63.5,0-115.1-51.6-115.1-115.1s51.6-115.1,115.1-115.1        c63.5,0,115.1,51.6,115.1,115.1S345.9,2186.8,282.4,2186.8z" class="color2e2d33 svgShape"/><path fill="#bd7449" d="M282.4,1956.6c-63.5,0-115.1,51.6-115.1,115.1s51.6,115.1,115.1,115.1c63.5,0,115.1-51.6,115.1-115.1        S345.9,1956.6,282.4,1956.6z M361.9,2028.6L258.5,2132c-1.2,1.2-2.7,1.7-4.2,1.7c-1.5,0-3.1-0.6-4.2-1.7l-47.1-47.1        c-2.3-2.3-2.3-6.1,0-8.4c2.3-2.3,6.1-2.3,8.4,0l42.9,42.9l99.1-99.1c2.3-2.3,6.1-2.3,8.4,0        C364.2,2022.5,364.2,2026.3,361.9,2028.6z" class="color49bda0 svgShape"/><g fill="none"><path fill="#fb600a" d="M361.9,2028.6L258.5,2132c-1.2,1.2-2.7,1.7-4.2,1.7c-1.5,0-3.1-0.6-4.2-1.7l-47.1-47.1        c-2.3-2.3-2.3-6.1,0-8.4c2.3-2.3,6.1-2.3,8.4,0l42.9,42.9l99.1-99.1c2.3-2.3,6.1-2.3,8.4,0        C364.2,2022.5,364.2,2026.3,361.9,2028.6z" class="color2e2d33 svgShape"/></g><g fill="none"><path fill="#fb600a" d="M1489.9 2021.6H454.5c-3.3 0-6-2.7-6-6s2.7-6 6-6h1035.4c3.3 0 6 2.7 6 6S1493.2 2021.6 1489.9 2021.6zM1489.9 2133.7H454.5c-3.3 0-6-2.7-6-6s2.7-6 6-6h1035.4c3.3 0 6 2.7 6 6S1493.2 2133.7 1489.9 2133.7z" class="color2e2d33 svgShape"/></g></g><g><path fill="#fb600a" d="M282.4,2242.9c-70.1,0-127,57-127,127c0,70,57,127,127,127c70,0,127-57,127-127        C409.4,2299.8,352.5,2242.9,282.4,2242.9z M282.4,2485c-63.5,0-115.1-51.6-115.1-115.1c0-63.5,51.6-115.1,115.1-115.1        c63.5,0,115.1,51.6,115.1,115.1C397.5,2433.4,345.9,2485,282.4,2485z" class="color2e2d33 svgShape"/><path fill="#bd7449" d="M282.4,2254.8c-63.5,0-115.1,51.6-115.1,115.1c0,63.5,51.6,115.1,115.1,115.1        c63.5,0,115.1-51.6,115.1-115.1C397.5,2306.4,345.9,2254.8,282.4,2254.8z M361.9,2326.8l-103.3,103.3        c-1.1,1.1-2.6,1.8-4.2,1.8c-1.6,0-3.1-0.6-4.2-1.8l-47.1-47.1c-2.3-2.3-2.3-6.1,0-8.5c2.3-2.3,6.1-2.3,8.4,0l42.9,42.9        l99.1-99.1c2.3-2.3,6.1-2.3,8.4,0C364.2,2320.7,364.2,2324.5,361.9,2326.8z" class="color49bda0 svgShape"/><g fill="none"><path fill="#fb600a" d="M361.9,2326.8l-103.3,103.3c-1.1,1.1-2.6,1.8-4.2,1.8c-1.6,0-3.1-0.6-4.2-1.8l-47.1-47.1        c-2.3-2.3-2.3-6.1,0-8.5c2.3-2.3,6.1-2.3,8.4,0l42.9,42.9l99.1-99.1c2.3-2.3,6.1-2.3,8.4,0        C364.2,2320.7,364.2,2324.5,361.9,2326.8z" class="color2e2d33 svgShape"/></g><g fill="none"><path fill="#fb600a" d="M1489.9 2319.8H454.5c-3.3 0-6-2.7-6-6s2.7-6 6-6h1035.4c3.3 0 6 2.7 6 6S1493.2 2319.8 1489.9 2319.8zM1489.9 2431.9H454.5c-3.3 0-6-2.7-6-6s2.7-6 6-6h1035.4c3.3 0 6 2.7 6 6S1493.2 2431.9 1489.9 2431.9z" class="color2e2d33 svgShape"/></g></g><g><path fill="#fb600a" d="M567.1 1004.7c0 1.7-.1 3.2-.2 4.4s-.3 2.4-.6 3.3c-.3 1-.6 1.8-1 2.5s-1.2 1.6-2.2 2.7c-1.1 1.1-3.3 2.7-6.7 4.8-3.4 2.2-7.6 4.3-12.6 6.3-5 2.1-10.8 3.8-17.3 5.2-6.5 1.4-13.6 2.1-21.3 2.1-13.3 0-25.4-2.2-36.1-6.7-10.7-4.4-19.9-11-27.4-19.7-7.6-8.7-13.4-19.4-17.5-32.1-4.1-12.7-6.1-27.4-6.1-44 0-17 2.2-32.2 6.6-45.5 4.4-13.3 10.6-24.6 18.5-33.9 7.9-9.3 17.4-16.3 28.5-21.2 11.1-4.9 23.3-7.3 36.7-7.3 5.9 0 11.7.6 17.3 1.7 5.6 1.1 10.8 2.5 15.5 4.2 4.8 1.7 9 3.6 12.7 5.9 3.7 2.2 6.3 4 7.7 5.5 1.4 1.4 2.4 2.5 2.8 3.3s.8 1.6 1 2.6c.3 1 .5 2.2.6 3.6.2 1.4.2 3 .2 4.9 0 2.1-.1 3.9-.3 5.4-.2 1.5-.5 2.7-1 3.7-.4 1-.9 1.7-1.5 2.2-.6.5-1.3.7-2.2.7-1.5 0-3.6-1-6.2-3.1-2.7-2.1-6.1-4.3-10.3-6.8-4.2-2.5-9.3-4.8-15.3-6.8-6-2.1-13.2-3.1-21.6-3.1-9.1 0-17.5 1.8-25 5.5s-13.9 9-19.2 16.1c-5.3 7.1-9.4 15.7-12.4 25.9-2.9 10.2-4.4 21.9-4.4 35 0 13 1.4 24.5 4.2 34.5 2.8 10 6.9 18.4 12.1 25.1 5.3 6.7 11.7 11.8 19.4 15.2 7.7 3.4 16.3 5.2 26 5.2 8.2 0 15.3-1 21.5-3 6.1-2 11.3-4.3 15.6-6.7 4.3-2.5 7.8-4.7 10.6-6.7 2.8-2 4.9-3 6.5-3 .7 0 1.4.2 1.9.5.5.3 1 .9 1.3 1.8.3.9.6 2.1.7 3.7C567.1 1000.3 567.1 1002.3 567.1 1004.7zM709.8 1021.9c0 2.1-.1 3.9-.3 5.3s-.6 2.6-1 3.6c-.5 1-1.1 1.7-1.7 2.2-.7.5-1.5.7-2.5.7h-90.8c-2.4 0-4.7-.8-6.9-2.5-2.2-1.6-3.3-4.5-3.3-8.6V832.6c0-.8.2-1.6.6-2.2s1.2-1.1 2.2-1.5c1.1-.4 2.5-.7 4.3-1 1.8-.3 4-.4 6.5-.4 2.6 0 4.8.1 6.6.4 1.7.3 3.1.6 4.2 1 1.1.4 1.8.9 2.2 1.5s.6 1.4.6 2.2v177.5h73.6c1 0 1.8.2 2.5.7.7.5 1.3 1.2 1.7 2.1.5.9.8 2.1 1 3.6C709.7 1018 709.8 1019.8 709.8 1021.9zM893.7 1024.1c.8 2.3 1.3 4.2 1.3 5.6.1 1.4-.3 2.5-1.2 3.3-.8.7-2.2 1.2-4.2 1.4s-4.6.3-7.9.3-5.9-.1-7.9-.2c-2-.2-3.4-.4-4.4-.8s-1.7-.9-2.2-1.5c-.5-.6-.9-1.4-1.3-2.4l-17.6-50h-85.4l-16.8 49.3c-.3 1-.7 1.8-1.3 2.5-.5.7-1.3 1.3-2.3 1.7-1 .5-2.4.8-4.3 1s-4.3.3-7.2.3c-3.1 0-5.6-.1-7.5-.4-2-.3-3.3-.8-4.1-1.5-.8-.7-1.2-1.8-1.1-3.3.1-1.4.5-3.3 1.3-5.6l68.9-190.7c.4-1.2 1-2.1 1.7-2.9.7-.7 1.7-1.3 3-1.7s3-.7 5.1-.9c2.1-.2 4.7-.2 7.9-.2 3.4 0 6.2.1 8.4.2 2.2.2 4 .4 5.4.9s2.4 1 3.2 1.8c.7.8 1.3 1.8 1.7 2.9L893.7 1024.1zM805.3 855.8h-.2l-35.4 102.3h71.4L805.3 855.8zM955.2 1029.6c0 .8-.2 1.6-.6 2.2s-1.2 1.1-2.2 1.5c-1.1.4-2.5.7-4.2 1-1.7.3-3.9.4-6.6.4-2.5 0-4.7-.1-6.5-.4-1.8-.3-3.2-.6-4.3-1-1.1-.4-1.8-.9-2.2-1.5s-.6-1.4-.6-2.2V832.6c0-.8.2-1.6.7-2.2.5-.6 1.3-1.1 2.4-1.5 1.1-.4 2.5-.7 4.3-1 1.7-.3 3.8-.4 6.3-.4 2.6 0 4.8.1 6.6.4 1.7.3 3.1.6 4.2 1 1.1.4 1.8.9 2.2 1.5s.6 1.4.6 2.2V1029.6zM1233.1 1029.6c0 .8-.2 1.6-.7 2.2-.4.6-1.2 1.1-2.3 1.5-1.1.4-2.5.7-4.2 1-1.7.3-3.9.4-6.6.4-2.5 0-4.7-.1-6.5-.4-1.8-.3-3.2-.6-4.2-1-1-.4-1.8-.9-2.2-1.5-.4-.6-.7-1.4-.7-2.2V850.8h-.3l-72.3 179.6c-.3.7-.8 1.4-1.3 1.9-.6.5-1.4 1-2.5 1.3s-2.4.6-4 .8c-1.5.2-3.4.2-5.5.2-2.2 0-4.1-.1-5.7-.3-1.6-.2-2.9-.5-4-.9-1.1-.4-1.9-.8-2.5-1.3-.6-.5-1-1.1-1.2-1.7l-69.2-179.6h-.2v178.8c0 .8-.2 1.6-.7 2.2-.4.6-1.2 1.1-2.3 1.5-1.1.4-2.5.7-4.2 1-1.7.3-4 .4-6.7.4-2.6 0-4.8-.1-6.5-.4-1.7-.3-3.1-.6-4.2-1-1-.4-1.7-.9-2.1-1.5-.4-.6-.6-1.4-.6-2.2V840.8c0-4.4 1.2-7.6 3.5-9.5 2.4-1.9 5-2.9 7.9-2.9h16.8c3.4 0 6.4.3 9 1 2.6.6 4.8 1.6 6.8 3 1.9 1.4 3.5 3.1 4.8 5.2 1.3 2.1 2.4 4.6 3.4 7.5l58.7 148.7h.8l61.1-148.2c1.2-3.2 2.5-5.9 3.9-8.1 1.4-2.2 2.9-4 4.6-5.3 1.7-1.3 3.5-2.3 5.6-2.9 2-.6 4.4-.9 7.1-.9h17.6c1.6 0 3.1.2 4.6.7 1.5.5 2.7 1.2 3.7 2.2 1 1 1.9 2.3 2.5 3.8.6 1.5 1 3.4 1 5.6V1029.6z" class="color2e2d33 svgShape"/></g><g><path fill="#fb600a" d="M2037.1,2211c-6.8-6.5-16.1-10.4-26.2-10.4h-639.1c-10.1,0-19.4,4-26.2,10.4c-7.4,7-12,16.8-12,27.7v335.1     c0,17.2,14,31.2,31.2,31.2h653.1c17.2,0,31.2-14,31.2-31.2v-335.1C2049.1,2227.8,2044.5,2218,2037.1,2211z M2037.1,2573.9     c0,10.6-8.6,19.2-19.3,19.2h-653.1c-10.6,0-19.2-8.6-19.2-19.2v-335.1c0-14.4,11.8-26.2,26.2-26.2h639.1     c14.5,0,26.2,11.8,26.2,26.2V2573.9z" class="color2e2d33 svgShape"/><path fill="#ffa30f" d="M2037.1,2238.7v335.1c0,10.6-8.6,19.2-19.3,19.2h-653.1c-10.6,0-19.2-8.6-19.2-19.2v-335.1     c0-14.4,11.8-26.2,26.2-26.2h639.1C2025.4,2212.5,2037.1,2224.3,2037.1,2238.7z" class="colorfbb03b svgShape"/><path fill="#fb600a" d="M2049.1,2045.2v161.4c0,3.3-2.7,6-6,6c-3.3,0-6-2.7-6-6v-161.4c0-10.6-8.6-19.2-19.3-19.2h-237.6     c-10.2,0-19.9,5-25.9,13.3l-27.5,38.2c-8.2,11.4-21.5,18.2-35.6,18.2h-331.8c-7.6,0-13.9,6.2-13.9,13.9v97.1c0,3.3-2.7,6-6,6     c-3.3,0-6-2.7-6-6v-97.1c0-14.2,11.6-25.8,25.8-25.8h331.8c10.2,0,19.9-5,25.9-13.3l27.5-38.2c8.2-11.4,21.5-18.2,35.6-18.2     h237.6C2035.1,2014,2049.1,2028,2049.1,2045.2z" class="color2e2d33 svgShape"/><path fill="#fb600a" d="M1345.6,2206.6v53.6c0,3.3-2.7,6-6,6c-3.3,0-6-2.7-6-6v-53.6c0-3.3,2.7-6,6-6     C1342.9,2200.6,1345.6,2203.3,1345.6,2206.6z" class="color2e2d33 svgShape"/><g fill="none"><path fill="#fbb890" d="M2037.1,2045.2V2211c-6.8-6.5-16.1-10.4-26.2-10.4h-639.1c-10.1,0-19.4,4-26.2,10.4v-101.5     c0-7.6,6.2-13.9,13.9-13.9h331.8c14.1,0,27.4-6.8,35.6-18.2l27.5-38.2c6-8.3,15.7-13.3,25.9-13.3h237.6     C2028.5,2025.9,2037.1,2034.6,2037.1,2045.2z" class="colorfff svgShape"/><path fill="#fb600a" d="M2049.1,2206.6v53.6c0,3.3-2.7,6-6,6c-3.3,0-6-2.7-6-6v-53.6c0-3.3,2.7-6,6-6     C2046.4,2200.6,2049.1,2203.3,2049.1,2206.6z" class="color2e2d33 svgShape"/></g></g><g><path fill="#fb600a" d="M2026.3 1350.1L2026.3 1350.1c.1 1.1-.1 2.2-.7 3.2-1.1 2-3.1 3.2-5.3 3.2-.9 0-1.9-.2-2.8-.7-.9-.5-1.9-1-2.8-1.5-13.8-8-22.7-18.1-26.4-30.1-3.9-12.7-1.6-27.1 6.7-42.6 2.6-4.9 6-8.9 10.3-11.9v0c.8-.6 1.7-1.1 2.5-1.7 2.8-1.7 6.5-.8 8.2 2.1.6 1.1.9 2.3.8 3.4l-.1.6 0 .1c0 .2-.1.4-.1.6-.1.2-.1.3-.2.5 0 .1-.1.1-.1.2-.1.1-.1.3-.2.4-.1.2-.2.4-.3.5-.1.2-.2.3-.3.5l0 0c-.1.1-.2.3-.4.4 0 0-.1.1-.1.1-.1.1-.3.2-.4.3-.2.1-.3.3-.5.4-1 .6-1.9 1.3-2.8 2 0 0 0 0 0 0-.2.1-.4.3-.6.5-.7.6-1.3 1.3-1.9 2-.1.2-.3.3-.4.5-.7.9-1.4 1.9-2 2.9v0c-.2.4-.4.7-.6 1.1-6.8 12.7-8.7 24-5.8 33.5 2 6.6 6.4 12.6 13 17.9 1.8 1.4 3.7 2.8 5.8 4.1.3.2.6.3.8.5 1.2.7 2.4 1.4 3.6 2.1.2.1.4.2.5.3.1 0 .1.1.2.1.1.1.3.2.4.4.2.1.3.3.5.5 0 0 0 0 0 0 .1.2.3.3.4.5.1.2.2.4.4.6.2.4.4.8.5 1.2 0 0 0 0 0 0 .1.2.1.4.1.6v0L2026.3 1350.1zM2877 1689.2c-.6-.6-1.1-1-1.5-1.4l-2.3-4.4c-1.4-2.6-4.4-3.7-7.1-2.9l-.3.1c-.2.1-.5.2-.7.3-2.9 1.6-4 5.2-2.5 8.1l2.5 4.6.4.7c.3.6.8 1.2 1.4 1.7.3.2 28.9 25.4 26.4 49.9-1.1 11.1-8.9 20.8-23 28.8-10.4 5.9-20.5 2.5-26.5-2.7-5.9-5.1-10.7-14.4-6.6-25.3.1-.3.2-.6.4-.9 0 0 0-.1 0-.1 1.2-3.1 0-6.6-2.9-8.3-2.9-1.7-6.5-1.1-8.6 1.4l-14.6 17.1c-.4.4-1 .5-1.5.1-.4-.3-.4-.7-.4-.8 0-.2 0-.4.1-.5l11.9-20.4c3.5-5.9 4.4-12.9 2.8-19.6l-1.3-5.1-1.3-5.2c-.8-3.2-4.1-5.1-7.3-4.3-.2 0-.3.1-.5.1-2.9 1-4.6 4.1-3.8 7.1l1.6 6.5.9 3.8c.9 3.6.4 7.4-1.5 10.7l-11.9 20.4c-1.2 2-1.8 4.3-1.8 6.6 0 4 1.8 7.7 4.9 10.2 5.5 4.4 13.5 3.7 18.1-1.7l3.4-4c1.1 8.2 5.2 15.8 11.9 21.5 6.6 5.7 14.7 8.6 22.9 8.6 5.9 0 11.8-1.5 17.2-4.6 17.7-10 27.5-22.8 29.1-38C2907.8 1721 2884.6 1696.5 2877 1689.2z" class="color2e2d33 svgShape"/><path fill="#fb600a" d="M2883.1 1684.9c-.6 1.5-1.9 2.7-3.4 3.3l-2.7 1-11.9 4.5-41.9 15.9-11.3 4.3-2.4.9c-.7.3-1.4.4-2.1.4-2 0-4-1-5.1-2.8l-9.5-15.3-11.9-19.1c-1.7-2.8-.9-6.5 1.9-8.2 2.8-1.7 6.5-.9 8.2 1.9l.2.4 18.5 29.8 4.2-1.6 51.7-19.6.3-.1 3.4-1.3-132.8-300.4c-19.5-44.1-42.4-81.7-74-121.9-28.5-30.4-61.6-50.1-98.3-58.7-14.4-3.4-29.2-4.9-44-4.6-2.4 0-4.8.1-7.2.3-2.7.2-5.1-1.5-6-3.9l-.2-.6c-.1-.4-.2-.7-.2-1.1-.2-3.3 2.3-6.1 5.6-6.3 1.6-.1 3.2-.2 4.8-.2 16.8-.6 33.6 1 49.9 4.8 39.2 9.1 74.4 30.1 104.5 62.4.1.1.2.2.3.4 32.4 41.1 55.7 79.5 75.7 124.6l135.4 306.2C2883.7 1681.7 2883.8 1683.4 2883.1 1684.9zM2505.1 1754.7c-.3 3.1-2.9 5.3-5.9 5.3-.2 0-.4 0-.6 0l-6.3-.7-8.4-.9c-3-.3-5.3-2.9-5.3-5.9 0-.6-.6-59.5-9.5-132.1-11.1-90.1-30.4-162.7-56-210.8l-49.6 75.4c-26.6 40.4-79.3 54.6-122.8 33.2-31.3-15.5-68.8-38.9-111.5-69.8-3.7-2.7-7.4-5.4-11.2-8.2-1.4-1-2.2-2.5-2.4-4.1-.2-1.5.2-3 1.1-4.2 2-2.7 5.7-3.2 8.4-1.3.7.5 1.4 1 2.1 1.5 46 33.8 85.9 59.1 118.8 75.4 38 18.8 84.3 6.3 107.5-29l55-83.6c1.1-1.7 3.1-2.7 5.1-2.7 2.1.1 4 1.2 5 3 29.1 49.9 50.1 125.3 62.3 224 7.5 60.6 9.2 111.8 9.5 128l9.3 1c.2 0 .4 0 .6.1 0 0 0 0 .1 0C2503.3 1748.8 2505.4 1751.6 2505.1 1754.7z" class="color2e2d33 svgShape"/><path fill="#fb600a" d="M2438.5 1215.7c-2.1 1.2-4.1 2.4-6.2 3.6-21.9 13.3-41.3 31.4-56.3 52.8l-96.3 136.8c-.2.3-.4.5-.6.8-2.7 2.7-6.8 5.2-14 5.2-12.2 0-33.5-7.1-72.6-31.8-28.8-18.2-58.5-40.3-78.5-55.7-4.3-3.3-8.1-6.3-11.4-8.9-1.3-1-2.1-2.5-2.2-4-.2-1.5.2-3.1 1.2-4.4 2.1-2.6 5.8-3 8.4-1 .6.5 1.3 1 1.9 1.5 18.9 14.8 53.6 41.3 86.9 62.4 55.9 35.3 68.9 30.5 71.4 28.5l95.9-136.2c16.5-23.5 38-43.3 62.3-57.6 1.4-.8 2.8-1.6 4.2-2.4 2.9-1.6 6.5-.6 8.1 2.3C2442.4 1210.5 2441.4 1214.1 2438.5 1215.7zM2792.9 1697C2792.9 1697 2792.9 1697 2792.9 1697c0 1.7-.6 3.3-1.8 4.4l-2.4 2.4-1.8 1.8c-1.2 1.1-2.7 1.7-4.2 1.7-1.5 0-3.1-.6-4.3-1.8-2.3-2.4-2.3-6.1 0-8.4l.2-.2 2.1-2.1c-.2-6.2-.4-12.5-.7-18.6l-84.9-190.5c-1.3-3 0-6.5 3-7.9 3-1.3 6.5 0 7.9 3l85.3 191.2.1.3c.3.7.5 1.4.5 2.2C2792.4 1681.9 2792.7 1689.4 2792.9 1697zM2920.2 2482.8c-.2.1-.4.2-.7.3l-.3.1c-.6.2-1.2.3-1.7.3-2.2 0-4.2-1.2-5.3-3.2l-3.2-6.1-13.4-25.8-2.5-4.9c-1.5-2.9-.4-6.5 2.5-8.1 2.9-1.5 6.5-.4 8.1 2.5l3 5.7 13.9 26.7 2.3 4.4C2924.2 2477.7 2923.1 2481.3 2920.2 2482.8zM2857 2504.7c-2.2 0-4.2-1.2-5.3-3.2l-17.2-33.1c-1.5-2.9-.4-6.5 2.5-8.1 2.9-1.5 6.5-.4 8.1 2.5l17.2 33.1c1.5 2.9.4 6.5-2.5 8.1C2858.9 2504.5 2857.9 2504.7 2857 2504.7z" class="color2e2d33 svgShape"/><path fill="#fb600a" d="M2974.8,2525.5c-0.6-4.7-2.6-9.2-5.8-13.1l-29.9-35.9c0,0,0,0,0,0c-4.3-5.1-11.6-7.5-18.7-6.1       c-1,0.2-2,0.4-3,0.8l-8.5,3l-49,17.2l-5.1,1.8c-0.3,0.1-0.6,0.2-0.9,0.4c-2.3,1.3-3.5,2.7-4.4,3.8c-0.1,0.1-0.1,0.1-0.2,0.2       c-0.1,0.1-0.2,0.3-0.3,0.4c-0.1,0.1-0.1,0.1-0.1,0.2l-52.8,68.8c-3.6,3.9-5.4,8.7-5.2,13.6c0.5,11.7,11.8,20.6,25.7,20.6h0.6       c10.6-0.2,20.8-2.2,30.3-5.8l108.3-42.1C2968.6,2548.2,2976.2,2537.1,2974.8,2525.5z M2951.5,2542.1l-108.3,42.1       c-8.1,3.1-17.1,4.9-26.2,5c-7.4,0.1-13.9-4.1-14.1-9.2c-0.1-2.3,1.1-4,2.2-5.1c0.1-0.1,0.3-0.3,0.4-0.5l52.9-69       c0.1-0.2,0.3-0.3,0.4-0.5c0.3-0.4,0.5-0.6,0.6-0.7l59.8-21l0.3-0.1l1.9-0.7c3.4-1.2,7.1,0,8.6,1.7l29.9,35.9       c1.7,2.1,2.8,4.5,3.1,6.9C2963.7,2533.1,2959.2,2539.1,2951.5,2542.1z" class="color2e2d33 svgShape"/><path fill="#d17705" d="M2951.5,2542.1l-108.3,42.1c-8.1,3.1-17.1,4.9-26.2,5c-7.4,0.1-13.9-4.1-14.1-9.2c-0.1-2.3,1.1-4,2.2-5.1       c0.1-0.1,0.3-0.3,0.4-0.5l52.9-69c0.1-0.2,0.3-0.3,0.4-0.5c0.3-0.4,0.5-0.6,0.6-0.7l59.8-21l0.3-0.1l1.9-0.7       c3.4-1.2,7.1,0,8.6,1.7l29.9,35.9c1.7,2.1,2.8,4.5,3.1,6.9C2963.7,2533.1,2959.2,2539.1,2951.5,2542.1z" class="color48495b svgShape"/><g fill="none"><path fill="#fb600a" d="M2516.3 2478.4l0 5.9-.2 31.9 0 4.5c0 3.3-2.7 5.9-6 5.9h0c-.2 0-.4 0-.6 0 0 0-.1 0-.2 0-2.9-.4-5.2-2.9-5.2-6l0-6.3.2-30 0-6c0-3.3 2.7-5.9 6-5.9h0C2513.7 2472.4 2516.3 2475.1 2516.3 2478.4zM2455.1 2478.4l0 5.9-.2 28.2 0 5.9c0 3.1-2.4 5.6-5.3 5.9-.1 0-.1 0-.2 0-.1 0-.3 0-.4 0h0c-3.3 0-6-2.7-5.9-6l0-4.5.2-29.5 0-6c0-3.3 2.7-5.9 6-5.9h0C2452.5 2472.4 2455.1 2475.1 2455.1 2478.4z" class="color2e2d33 svgShape"/></g><g fill="none"><path fill="#fb600a" d="M2541.9,2571.5l-15-44.2c-1.7-5-5.7-9-10.8-11.2c-2.3-1-4.9-1.6-7.5-1.7l-4.5-0.2l-49.3-1.8l-4.1-0.1       c-2.8-0.1-5.5,0.4-7.9,1.5c-0.6,0.3-1.2,0.6-1.8,0.9l-74,45.2c-4.7,2.3-8.2,6.2-9.8,10.9c-3.7,11,4,23.9,17.1,28.7       c9.9,3.6,20.1,5.5,30.3,5.5h0.1l110.1-0.1c13.7,0,24.9-7.7,27.7-19C2543.7,2581.3,2543.5,2576.3,2541.9,2571.5z M2531,2582.9       c-1.5,6.1-7.9,10-16.2,10l-110.1,0.1h-0.1c-8.6,0-17.7-1.6-26.2-4.8c-7-2.5-11.5-8.8-9.9-13.7c0.6-1.7,1.9-3.1,3.9-4       c0.2-0.1,0.4-0.2,0.6-0.3l74.3-45.4c0.5-0.3,1.2-0.5,2-0.6c0.1,0,0.1,0,0.2,0c0.2,0,0.4,0,0.6,0c0.1,0,0.2,0,0.3,0l57.8,2.1       c0.4,0,0.7,0,1.1,0.1c0.1,0,0.1,0,0.2,0c1.3,0.2,2.5,0.8,3.5,1.5c1.3,0.9,2.2,2,2.6,3.1l15,44.2       C2531.4,2578,2531.6,2580.6,2531,2582.9z" class="color2e2d33 svgShape"/><path fill="#d17705" d="M2531,2582.9c-1.5,6.1-7.9,10-16.2,10l-110.1,0.1h-0.1c-8.6,0-17.7-1.6-26.2-4.8c-7-2.5-11.5-8.8-9.9-13.7       c0.6-1.7,1.9-3.1,3.9-4c0.2-0.1,0.4-0.2,0.6-0.3l74.3-45.4c0.5-0.3,1.2-0.5,2-0.6c0.1,0,0.1,0,0.2,0c0.2,0,0.4,0,0.6,0       c0.1,0,0.2,0,0.3,0l57.8,2.1c0.4,0,0.7,0,1.1,0.1c0.1,0,0.1,0,0.2,0c1.3,0.2,2.5,0.8,3.5,1.5c1.3,0.9,2.2,2,2.6,3.1l15,44.2       C2531.4,2578,2531.6,2580.6,2531,2582.9z" class="color48495b svgShape"/></g><g fill="none"><path fill="#fb600a" d="M2449.2,2472.3c3.3,0,6,2.7,5.9,6l0,5.9h49.3l0-6c0-3.3,2.7-5.9,6-5.9H2449.2z M2915.1,2433.3l-97.5-210.6       c-18.1-39-27.3-80.6-27.5-123.6l-1.4-395.3l0-2.5c0-2.3-1.3-4.4-3.4-5.4c-2.1-1-4.5-0.7-6.3,0.7c-0.1,0.1-0.1,0.1-0.2,0.2       c-54,43.1-126.6,54.8-178,57.1c-54.9,2.4-98.1-5.2-100.4-5.6c-0.1,0-0.1,0-0.1,0c-0.2,0-0.4-0.1-0.6-0.1       c-1.4-0.1-2.8,0.2-4,1.1c-1.3,0.9-2.2,2.3-2.5,3.9l-1.1,6.3l-60.9,362.5c-1.5,9.1-2.3,18.4-2.3,27.6v328.8c0,3.3,2.7,6,6,6       h90.7c3.1,0,5.7-2.4,6-5.5l23.5-283c1.8-21.7,6-43.3,12.5-64.1l53.6-171.1l27.6,181.5c5.2,34.2,16.9,66.6,34.8,96.2       l141.5,234.4c1.5,2.5,4.7,3.6,7.5,2.4l4.5-1.9l11-4.7l47.5-20.2l11-4.7l5.5-2.3c1.5-0.6,2.7-1.8,3.2-3.4       C2915.8,2436.4,2915.8,2434.7,2915.1,2433.3z M2837.7,2460l-0.3,0.1l-4.7,2l-138.8-230c-17.1-28.3-28.3-59.2-33.2-91.8       l-31.5-207c-0.4-2.7-2.7-4.9-5.5-5.1c-2.8-0.2-5.3,1.5-6.2,4.2l-61.3,195.7c-6.8,21.6-11.2,44.1-13,66.7l-23,277.5h-79.2       v-322.8c0-8.6,0.7-17.2,2.1-25.6l61-362.9c14,2.2,51.1,6.8,97,4.9c33.9-1.5,65.4-6.3,93.8-14.3c31.3-8.9,58.8-21.7,82-38.2       l1.4,385.8c0.2,44.7,9.8,88,28.6,128.6l94.9,205L2837.7,2460z" class="color2e2d33 svgShape"/></g><g fill="none"><path fill="#fb600a" d="M2437.3,1202.5c-11.6,0-25.9-2.5-37.6-12.3c-32.4-26.9-32.7-93.2-32.7-96c0-3.3,2.7-6,6-6c0,0,0,0,0,0       c3.3,0,6,2.7,6,6l0,0c0,0.6,0.3,63.5,28.4,86.8c15,12.5,36.3,9.7,44.8,8c10.3-2.1,36.3-10.4,54-41.3c1.6-2.9,5.3-3.9,8.2-2.2       c2.9,1.6,3.9,5.3,2.2,8.2c-14.2,24.7-36.7,41.8-61.9,47C2450.6,1201.5,2444.4,1202.5,2437.3,1202.5z" class="color2e2d33 svgShape"/><path fill="#fb600a" d="M2538.9,1018.6c-16.3-35.2-42.3-44.5-60.5-48.5c-17-3.7-35-2.6-52.1,3.3c-7.3,2.5-13.3,3.9-17.1,4.5       c-4.7,0.8-9,2.1-12.9,3.8c-26.9,11.9-42.9,28.3-47.7,48.8c-7,30,12.7,58.5,18.2,65.8v0c0.7,1,1.2,1.6,1.4,1.7       c1.9,2.2,5.1,2.8,7.6,1.3c1-0.6,2-1.2,3-1.9c9.4-6.4,15.9-15.3,20-27.3c16.2,19.7,40.6,24.2,74,13.8l12.4,28.1       c1.1,2.5,3.8,3.9,6.5,3.5c2.7-0.5,4.7-2.7,5-5.4c0.7-8.6,2.4-15.3,5.1-19.8c2.9-4.9,7.7-5.3,11.2-4c3.5,1.3,7.2,4.9,6.1,10.8       c-2.4,13-15.1,27-15.2,27.2c-0.9,1-1.5,2.3-1.6,3.7c-0.3,5.2,0.7,10.7,1.7,16c0.3,1.9,0.7,3.7,1,5.4v0c0.1,0.7,0.2,1.3,0.3,1.9       c0.2,1.5,0.9,2.9,2,3.8c0,0,0,0,0,0c0.4,0.3,0.8,0.6,1.3,0.8c0.3,0.2,0.7,0.3,1.1,0.4c0.5,0.1,1,0.2,1.5,0.2       c1.9,0,3.6-0.9,4.8-2.4l0.2-0.2l0,0c9.2-12.3,16.9-25.7,22.9-39.8C2552.6,1082.8,2552.5,1047.9,2538.9,1018.6z M2528.1,1109.5       c-3.8,8.9-8.3,17.4-13.5,25.6c-0.2-1.5-0.4-3-0.4-4.4c3.9-4.7,14.1-17.8,16.6-31.3c2-10.5-3.6-20.4-13.6-24.2       c-9.9-3.7-20.2-0.1-25.7,9c-1.1,1.8-2,3.8-2.9,6l-7.1-16c-1.3-2.8-4.5-4.3-7.4-3.2c-36.7,12.7-59.1,7-72.6-18.4       c-1.2-2.3-3.7-3.5-6.3-3.1c-2.5,0.4-4.5,2.4-4.9,4.9c-2.4,14.8-7.4,24.8-16.1,31.6c-6.2-9.1-19-31-13.9-52.8       c3.9-16.7,17.6-30.3,40.9-40.6c3-1.4,6.4-2.3,10.1-3c4.2-0.7,10.9-2.2,18.9-5c15-5.2,30.8-6.2,45.6-3       c25.2,5.6,41.3,18.5,52.2,41.9C2540.3,1049.9,2540.3,1081.2,2528.1,1109.5z" class="color2e2d33 svgShape"/><path fill="#d17705" d="M2528.1,1109.5c-3.8,8.9-8.3,17.4-13.5,25.6c-0.2-1.5-0.4-3-0.4-4.4c3.9-4.7,14.1-17.8,16.6-31.3       c2-10.5-3.6-20.4-13.6-24.2c-9.9-3.7-20.2-0.1-25.7,9c-1.1,1.8-2,3.8-2.9,6l-7.1-16c-1.3-2.8-4.5-4.3-7.4-3.2       c-36.7,12.7-59.1,7-72.6-18.4c-1.2-2.3-3.7-3.5-6.3-3.1c-2.5,0.4-4.5,2.4-4.9,4.9c-2.4,14.8-7.4,24.8-16.1,31.6       c-6.2-9.1-19-31-13.9-52.8c3.9-16.7,17.6-30.3,40.9-40.6c3-1.4,6.4-2.3,10.1-3c4.2-0.7,10.9-2.2,18.9-5c15-5.2,30.8-6.2,45.6-3       c25.2,5.6,41.3,18.5,52.2,41.9C2540.3,1049.9,2540.3,1081.2,2528.1,1109.5z" class="color48495b svgShape"/><g fill="none"><path fill="#fb600a" d="M2487.9,1245.5c-4.4,1.3-8.8,1.9-13.1,1.9c-18.2,0-35.2-10.9-42.5-28.1c-0.7-1.6-1.3-3.3-1.8-5l-2-6.7       l-1.7-5.9l-1.1-3.8c-0.9-3.2,0.9-6.5,4-7.4c3.2-0.9,6.5,0.9,7.4,4l2.3,7.9l2.5,8.4c5.4,18.1,24.5,28.5,42.6,23.1       c18.1-5.4,28.5-24.5,23.1-42.6l-0.4-1.4l-0.2-0.6l-4.9-16.5l-3.2-10.7c-0.5-1.8-0.2-3.7,0.9-5.2c0,0,0.1-0.1,0.1-0.1       c0.7-1,1.8-1.7,3.1-2.1c1.5-0.4,3-0.3,4.3,0.3c0.5,0.2,0.9,0.5,1.3,0.8c0.9,0.7,1.5,1.7,1.9,2.9l0.8,2.8l6,20.1l1.8,6.2       c0.6,1.9,1,3.8,1.3,5.6C2524.1,1216.3,2510.5,1238.8,2487.9,1245.5z" class="color2e2d33 svgShape"/></g></g><g fill="none"><path fill="#fb600a" d="M2026.3,1349.5l-8.7-70.1l-0.6-5.2v0c0,0.2-0.1,0.4-0.1,0.6c-0.1,0.2-0.1,0.3-0.2,0.5         c0,0.1-0.1,0.1-0.1,0.2c-0.1,0.1-0.1,0.3-0.2,0.4c-0.1,0.2-0.2,0.4-0.3,0.5c-0.1,0.2-0.2,0.3-0.3,0.5l0,0         c-0.1,0.1-0.2,0.3-0.4,0.4c0,0-0.1,0.1-0.1,0.1c-0.1,0.1-0.3,0.2-0.4,0.3c-0.2,0.1-0.3,0.3-0.5,0.4c-1,0.6-1.9,1.3-2.8,2         c0,0,0,0,0,0c-0.2,0.2-0.4,0.3-0.6,0.5c-0.7,0.6-1.3,1.3-1.9,2c-0.1,0.2-0.3,0.3-0.4,0.5c-0.7,0.9-1.4,1.9-2,2.9v0l6.5,52.5         c1.8,1.4,3.7,2.8,5.8,4.1c0.3,0.2,0.6,0.3,0.8,0.5c1.2,0.7,2.4,1.4,3.6,2.1c0.2,0.1,0.4,0.2,0.5,0.3c0.1,0,0.1,0.1,0.2,0.1         c0.1,0.1,0.3,0.2,0.4,0.4c0.1,0.1,0.2,0.1,0.2,0.2c0.1,0.1,0.2,0.1,0.2,0.2c0,0,0,0,0,0c0.1,0.2,0.3,0.3,0.4,0.5         c0.1,0.2,0.2,0.4,0.4,0.6c0.2,0.4,0.4,0.8,0.5,1.2c0,0,0,0,0,0C2026.2,1349,2026.2,1349.2,2026.3,1349.5z M2016.9,1274.2         L2016.9,1274.2c0,0.2-0.1,0.4-0.1,0.6c-0.1,0.2-0.1,0.3-0.2,0.5c0,0.1-0.1,0.1-0.1,0.2c-0.1,0.1-0.1,0.3-0.2,0.4         c-0.1,0.2-0.2,0.4-0.3,0.5c-0.1,0.2-0.2,0.3-0.3,0.5l0,0c-0.1,0.1-0.2,0.3-0.4,0.4c0,0-0.1,0.1-0.1,0.1         c-0.1,0.1-0.3,0.2-0.4,0.3c-0.2,0.1-0.3,0.3-0.5,0.4c-1,0.6-1.9,1.3-2.8,2c0.1,0,0.2,0,0.3,0l5.9-0.7L2016.9,1274.2z          M2265.6,2547.8l-7.7-62.3c0,0,0,0,0-0.1c0,0,0-0.1,0-0.1l-128.8-1036.9l-2-16.3l-13-104.8l-2.1-16.8l-6-48         c0-0.2,0-0.3-0.1-0.5c0-0.1,0-0.1,0-0.2c-0.1-0.3-0.1-0.6-0.3-0.9l-37.4-96.1c0-0.1-0.1-0.2-0.1-0.3c0-0.1,0-0.1-0.1-0.2         l-0.1-0.2c0,0,0-0.1,0-0.1l-27.7-65c-1-2.4-3.6-3.9-6.2-3.6c-2.6,0.3-4.8,2.4-5.2,5l-11,69.8c0,0,0,0,0,0l0,0.2         c0,0.1,0,0.2,0,0.4l-12.3,98.6v0l-0.5,3.9c-0.1,0.4-0.1,0.9,0,1.3c0,0.1,0,0.1,0,0.2l1.4,11.1v0l6.5,52.5l2,15.7l142,1143.3         c0,0.1,0,0.3,0,0.4c0,0,0,0.1,0,0.1l7.7,62.3c1.7,13.5,8.5,25.5,19.2,33.8c9,7.1,19.9,10.8,31.2,10.8c2.1,0,4.3-0.1,6.4-0.4         c13.5-1.7,25.6-8.5,33.9-19.3C2263.6,2574.6,2267.3,2561.3,2265.6,2547.8z M2245.9,2578c-6.4,8.2-15.6,13.5-26,14.7         c-10.3,1.3-20.6-1.5-28.8-7.9c-8.2-6.4-13.4-15.6-14.7-25.9l-7-56.5l-1.5-11.9l-141.7-1140.4v0l-0.1-0.6v0l-8.7-70.1         l-0.6-5.2v0l0-0.1l0.1-0.6l0.8-6.1l11.3-90.5l0.6-4.5l1.2-7.7l6.6-41.7l16.5,38.8l3.1,7.2l1.7,4.3l33.1,85l2.5,6.5l0.6,5.2         l5.5,44.6l15.1,121.7l129.8,1044.8l1.5,11.9l7,56.5C2255,2559.6,2252.2,2569.8,2245.9,2578z M2026.3,1349.5l-8.7-70.1         l-0.6-5.2v0c0,0.2-0.1,0.4-0.1,0.6c-0.1,0.2-0.1,0.3-0.2,0.5c0,0.1-0.1,0.1-0.1,0.2c-0.1,0.1-0.1,0.3-0.2,0.4         c-0.1,0.2-0.2,0.4-0.3,0.5c-0.1,0.2-0.2,0.3-0.3,0.5l0,0c-0.1,0.1-0.2,0.3-0.4,0.4c0,0-0.1,0.1-0.1,0.1         c-0.1,0.1-0.3,0.2-0.4,0.3c-0.2,0.1-0.3,0.3-0.5,0.4c-1,0.6-1.9,1.3-2.8,2c0,0,0,0,0,0c-0.2,0.2-0.4,0.3-0.6,0.5         c-0.7,0.6-1.3,1.3-1.9,2c-0.1,0.2-0.3,0.3-0.4,0.5c-0.7,0.9-1.4,1.9-2,2.9v0l6.5,52.5c1.8,1.4,3.7,2.8,5.8,4.1         c0.3,0.2,0.6,0.3,0.8,0.5c1.2,0.7,2.4,1.4,3.6,2.1c0.2,0.1,0.4,0.2,0.5,0.3c0.1,0,0.1,0.1,0.2,0.1c0.1,0.1,0.3,0.2,0.4,0.4         c0.1,0.1,0.2,0.1,0.2,0.2c0.1,0.1,0.2,0.1,0.2,0.2c0,0,0,0,0,0c0.1,0.2,0.3,0.3,0.4,0.5c0.1,0.2,0.3,0.4,0.4,0.6         c0.2,0.4,0.4,0.8,0.5,1.2c0,0,0,0,0,0C2026.2,1349,2026.2,1349.2,2026.3,1349.5z" class="color2e2d33 svgShape"/><path fill="#ffa30f" d="M2245.3,2480.9l-77.3,9.6l-141.7-1140.4v0c0-0.2,0-0.4-0.1-0.6v0l-8.7-70.1l77.3-9.6l5.5,44.6         l15.1,121.7L2245.3,2480.9z" class="colorfbb03b svgShape"/><path fill="#bd7449" d="M2869.6,1679.2l-3.4,1.3l-0.3,0.1l-51.7,19.6l-4.2,1.6l-18.5-29.8l-85.3-191.2c-1.3-3-4.9-4.4-7.9-3         c-3,1.3-4.4,4.9-3,7.9l84.9,190.5c0.3,6.2,0.5,12.4,0.7,18.6l-2.1,2.1c-54,43.1-126.6,54.8-178,57.1         c-54.9,2.4-98.1-5.2-100.4-5.6c-0.1,0-0.1,0-0.1,0c-0.2,0-0.4-0.1-0.6-0.1l-9.3-1c-0.4-16.2-2-67.4-9.5-128         c-12.2-98.7-33.1-174-62.3-224c-1-1.8-2.9-2.9-5-3c-2.1-0.1-4,1-5.1,2.7l-55,83.6c-23.2,35.3-69.5,47.8-107.5,29         c-32.9-16.3-72.9-41.6-118.8-75.4l-13-104.8c20,15.4,49.7,37.5,78.5,55.7c39.2,24.7,60.4,31.8,72.6,31.8         c7.2,0,11.2-2.4,14-5.2c0.2-0.2,0.5-0.5,0.6-0.8l96.3-136.8c15-21.4,34.4-39.5,56.3-52.8c7.3,17.2,24.3,28.1,42.5,28.1         c4.3,0,8.7-0.6,13.1-1.9c22.5-6.7,36.2-29.2,32.5-51.8c14.8-0.3,29.6,1.2,44,4.6c36.8,8.6,69.9,28.3,98.3,58.7         c31.7,40.2,54.5,77.8,74,121.9L2869.6,1679.2z" class="color49bda0 svgShape"/><g fill="none"><path fill="#fb600a" d="M2252.7,2492l-5.9,0.7l-77.3,9.6l-5.9,0.7c-0.2,0-0.5,0-0.7,0c-2.9,0-5.5-2.1-5.9-5.1c0,0,0-0.1,0-0.1         c0-0.1,0-0.2,0-0.4c-0.2-3.1,2.1-5.9,5.2-6.3l5.9-0.7l77.3-9.6l5.9-0.7c3.3-0.4,6.2,1.9,6.7,5.1c0,0,0,0,0,0.1c0,0,0,0,0,0.1         C2258.2,2488.7,2255.9,2491.6,2252.7,2492z" class="color2e2d33 svgShape"/></g><g fill="none"><path fill="#fb600a" d="M2106,1262.6c0-0.2,0-0.3-0.1-0.5c0-0.1,0-0.1,0-0.2c-0.1-0.3-0.1-0.6-0.3-0.9l-37.4-96.1        c0-0.1-0.1-0.2-0.1-0.3c0-0.1,0-0.1-0.1-0.2l-0.1-0.2c0,0,0-0.1,0-0.1l-27.7-65c-1-2.4-3.6-3.9-6.2-3.6        c-2.6,0.3-4.8,2.4-5.2,5l-11,69.8c0,0,0,0,0,0l0,0.2c0,0.1,0,0.2,0,0.4l-12.3,98.6v0l-0.5,3.9c-0.1,0.4-0.1,0.9,0,1.3        c0.1,1.4,0.7,2.7,1.7,3.7c1.1,1.1,2.6,1.8,4.2,1.8c0.1,0,0.3,0,0.4,0c0,0,0,0,0,0c0.1,0,0.2,0,0.3,0l5.9-0.7l77.3-9.6l5.9-0.7        c1.8-0.2,3.5-1.3,4.4-2.9C2105.8,1265.1,2106.1,1263.8,2106,1262.6z M2017.8,1267.3l11.3-90.5l0.6-4.5l1.2-7.7l6.6-41.7        l16.5,38.8l3.1,7.2l1.7,4.3l33.1,85L2017.8,1267.3z" class="color2e2d33 svgShape"/><polygon fill="#d17705" points="2053.9 1161.7 2030.8 1164.6 2037.4 1122.9" class="color48495b svgShape"/></g><g fill="none"><path fill="#fb600a" d="M2063.2,1172.6l-4.6,0.6l-29.6,3.7l-4.6,0.6c-0.2,0-0.5,0-0.7,0c-3,0-5.5-2.2-5.9-5.2       c-0.1-0.4-0.1-0.9,0-1.3c0-0.1,0-0.2,0-0.4l0-0.2c0,0,0,0,0,0c0.5-2.4,2.5-4.4,5.1-4.7l7.9-1l23.1-2.9l7.9-1       c2.6-0.3,5,1.1,6.1,3.3c0,0,0,0.1,0,0.1l0.1,0.2c0,0.1,0,0.1,0.1,0.2c0.1,0.1,0.1,0.2,0.1,0.3c0.1,0.3,0.2,0.7,0.2,1.1       C2068.8,1169.2,2066.5,1172.2,2063.2,1172.6z" class="color2e2d33 svgShape"/></g></g></g></svg>