<svg xmlns="http://www.w3.org/2000/svg" viewBox="0 0 600 400"><path fill="#592f16" d="M320.459,245.195c-3.276,0-6.561-0.881-9.832-2.642c-13.007-7.004-18.335-22.948-23.489-38.366   c-3.505-10.489-6.817-20.395-12.325-26.683c-13.352-15.238-33.511-16.131-33.713-16.139c-0.292-0.01-0.521-0.256-0.51-0.548   c0.01-0.293,0.27-0.525,0.548-0.51c0.206,0.007,20.812,0.909,34.472,16.499c5.649,6.448,8.993,16.453,12.533,27.046   c5.088,15.223,10.349,30.965,22.986,37.769c5.761,3.102,11.565,3.33,17.253,0.678c12.208-5.694,21.98-24.164,24.978-38.651   c3.992-19.295,17.714-30.573,17.851-30.685c0.228-0.184,0.561-0.149,0.745,0.08c0.184,0.227,0.149,0.56-0.079,0.745   c-0.135,0.11-13.567,11.164-17.48,30.075c-3.049,14.74-13.047,33.556-25.567,39.396   C326.059,244.549,323.262,245.195,320.459,245.195" class="color591C16 svgShape"/><path fill="#da6826" d="M375.126,157.684h42.25v29.087h-42.25c-3.819,0-6.916-6.512-6.916-14.544   C368.21,164.194,371.307,157.684,375.126,157.684" class="color26A2DA svgShape"/><path fill="#ffffff" d="M369.715,181.285c0.822,2.171,1.933,3.835,3.212,4.734C371.649,185.119,370.537,183.455,369.715,181.285" class="colorFFF svgShape"/><path fill="#f48341" d="M379.133,157.687h-4.011c-3.82,0-6.91,6.511-6.91,14.54c0,3.425,0.562,6.573,1.503,9.058   c0.823,2.17,1.934,3.834,3.212,4.734c0.689,0.485,1.428,0.748,2.195,0.748h0.101c-2.46-2.229-4.181-7.37-4.181-13.35   c0-8.04,3.101-14.55,6.92-14.55h0.504C378.689,158.441,378.912,158.045,379.133,157.687 M417.215,157.687h-8.177   c0.01,0.393-0.124,0.784-0.357,1.181h5.956C415.431,158.148,416.301,157.731,417.215,157.687" class="color41E3F4 svgShape"/><path fill="#7f411d" d="M410.46,172.227c0,8.032,3.097,14.544,6.916,14.544c3.82,0,6.917-6.512,6.917-14.544   c0-8.032-3.097-14.543-6.917-14.543C413.557,157.684,410.46,164.194,410.46,172.227" class="color1D5A7F svgShape"/><path fill="#3f200e" d="M417.372,157.687c-0.48,0-0.939,0.101-1.39,0.3c3.149,1.36,5.51,7.221,5.51,14.24   c0,7.021-2.361,12.88-5.51,14.24c0.45,0.2,0.91,0.3,1.39,0.3c3.82,0,6.92-6.51,6.92-14.54   C424.292,164.198,421.192,157.687,417.372,157.687" class="color0E2D3F svgShape"/><path fill="#da6826" d="M243.462,147.166h-42.25v29.087h42.25c3.82,0,6.916-6.51,6.916-14.543   C250.378,153.678,247.281,147.166,243.462,147.166" class="color26A2DA svgShape"/><path fill="#ffffff" d="M248.902,170.69c-1.022,2.732-2.499,4.677-4.191,5.326C246.404,175.369,247.881,173.425,248.902,170.69    M248.904,170.685c0,0.001-0.001,0.002-0.001,0.003C248.903,170.687,248.904,170.686,248.904,170.685" class="colorFFF svgShape"/><path fill="#f48341" d="M211.136,147.171h-9.742c0.906,0.049,1.769,0.465,2.556,1.18h7.097   C211.077,147.943,211.107,147.547,211.136,147.171 M243.466,147.171h-2.15c-0.003,0.377-0.029,0.793-0.075,1.237   c3.532,0.654,6.305,6.889,6.305,14.493c0,5.981-1.721,11.12-4.181,13.351h0.101c0.425,0,0.841-0.081,1.245-0.235   c1.692-0.649,3.169-2.593,4.191-5.326c0,0,0.001-0.002,0.001-0.002s0.001-0.002,0.001-0.003c0.922-2.472,1.472-5.588,1.472-8.974   C250.376,153.681,247.286,147.171,243.466,147.171" class="color41E3F4 svgShape"/><path fill="#c75513" d="M214.192,162.106c1.282,1.07,2.537,2.598,2.811,4.313c0.5,3.125-2.125,9.833-2.125,9.833h15.594   l-14.31-1.359c0.073-0.029,0.331-0.357,0.973-3.065C219.262,162.859,214.309,162.123,214.192,162.106" class="color1373C7 svgShape"/><path fill="#f07e3b" d="M460.032,121.59c0,0-6.627-27.311,15.365-32.587c21.99-5.276,33.365,13.425,28.014,27.498   c-5.344,14.073-20.995,20.066-30.017,16.398C464.372,129.228,461.972,124.919,460.032,121.59" class="colorF05A3B svgShape"/><path fill="#7f7f7f" d="M459.981,121.364c-0.029,0.034-0.045,0.053-0.046,0.055v0.006l0.068,0.035   C459.996,121.432,459.989,121.4,459.981,121.364" class="color7F7F7F svgShape"/><path fill="#e8691d" d="M501.472,97.993c0.247,0.573,1.824,4.611,0.827,12.375c-1.04,8.132-7.501,14.547-13.983,14.547   c-0.216,0-0.433-0.007-0.649-0.022c-6.455-0.429-8.363-8.778-15.454-8.778c-0.261,0-0.529,0.011-0.804,0.035   c-7.261,0.614-10.978,4.688-11.427,5.213c0.008,0.036,0.015,0.069,0.021,0.096l0.136,0.07c0.708-0.391,4.866-2.575,9.56-2.575   c1.997,0,4.091,0.395,6.057,1.492c6.453,3.597,9.089,11.198,9.486,12.452c7.295-2.072,14.715-7.718,18.074-16.558   C505.604,110.322,504.822,103.465,501.472,97.993" class="colorE82D1D svgShape"/><path fill="#f07e3b" d="M430.768,165.253c0,0-6.109-8.324-1.39-21.903c6.447-18.572,27.748-27.327,48.179-18.043   c11.584,5.262,16.889,31.313,11.201,41.33c-5.68,10.016-9.534,12.985-9.534,12.985L430.768,165.253" class="colorF05A3B svgShape"/><path fill="#da6826" d="M460.032,121.59c0,0,3.155-0.282,10.137,1.327c6.981,1.609,15.127,10.158,15.127,10.158   s-2.494-8.701-9.541-12.629C468.712,116.519,460.032,121.59,460.032,121.59" class="color26A0DA svgShape"/><path fill="#ffffff" d="M429.144,144.046c-0.658,1.939-0.979,3.399-1.143,4.606C428.248,147.197,428.62,145.66,429.144,144.046    M460.028,121.578c-0.02,0-0.042,0.001-0.062,0.002C459.987,121.579,460.008,121.579,460.028,121.578   C460.028,121.578,460.028,121.578,460.028,121.578" class="colorFFF svgShape"/><path fill="#ffbf66" d="M460.028,121.578c-0.02,0-0.041,0.001-0.061,0.001c-13.894,0.359-25.85,8.626-30.573,21.753   c-0.088,0.245-0.171,0.482-0.25,0.713c-0.524,1.614-0.895,3.151-1.143,4.606c-0.294,2.163-0.083,3.513-0.403,5.359   c0.072-0.247,2.44-12.523,10.188-20.699C445.503,125.17,459.62,121.676,460.028,121.578" class="colorFB9964 svgShape"/><path fill="#7f7f7f" d="M487.353,169.043c-0.003,0.003-0.005,0.005-0.008,0.008c-3.233,5.34-5.737,8.237-7.065,9.589l0,0.002   C481.609,177.291,484.116,174.392,487.353,169.043 M490.948,158.343c-0.112,1.431-0.312,2.79-0.605,4.045c0,0.002,0,0.004,0,0.006   C490.636,161.136,490.836,159.776,490.948,158.343" class="color7F7F7F svgShape"/><path fill="#e8691d" d="M487.345,169.051c-1.689,1.62-3.842,2.471-5.409,2.979c-0.695,0.888-1.375,1.656-1.963,2.277l0.307,4.333   C481.608,177.288,484.112,174.391,487.345,169.051 M487.868,138.514c-0.015,0.115-1.042,7.941-4.795,7.941   c-0.322,0-0.666-0.058-1.029-0.183c-0.368-0.127-0.709-0.186-1.025-0.186c-2.934,0-3.692,5.058-3.876,7.051   c0.836-0.556,1.695-0.947,2.554-1.182c0.757-0.236,1.517-0.352,2.262-0.352c4.379,0.001,8.268,3.977,8.382,10.645   c0.001,0.047,0.001,0.094,0.001,0.14c0.293-1.256,0.493-2.615,0.605-4.045C491.422,152.252,490.294,144.854,487.868,138.514" class="colorE82D1D svgShape"/><polyline fill="#e8691d" points="460.06 121.574 460.058 121.574 460.05 121.578 460.053 121.578 460.06 121.574" class="colorE82D1D svgShape"/><path fill="#e8691d" d="M485.283,133.062c0.001,0.001,0.002,0.002,0.003,0.003C485.286,133.064,485.285,133.063,485.283,133.062    M463.877,121.788c1.578,0.186,3.664,0.524,6.292,1.129C467.542,122.311,465.456,121.973,463.877,121.788 M460.046,121.589   L460.046,121.589C460.046,121.589,460.046,121.589,460.046,121.589 M460.053,121.578c-0.001,0-0.002,0-0.003,0l-0.012,0.006   l0.002,0.001C460.044,121.583,460.048,121.581,460.053,121.578" class="colorE82D1D svgShape"/><path fill="#c75513" d="M476.695,121.03c0.205,0.205,1.217,1.317-0.1,1.884c-0.192,0.083-0.442,0.119-0.74,0.119   c-1.963,0-5.986-1.572-9.063-1.753c-0.614-0.037-1.218-0.052-1.796-0.052c-2.662,0-4.788,0.323-4.936,0.347   c-0.002,0.001-0.005,0.003-0.007,0.004c-0.005,0.003-0.01,0.005-0.013,0.007l0.006,0.004l0,0c0.03-0.003,0.239-0.019,0.637-0.019   c0.61,0,1.663,0.038,3.193,0.218c1.579,0.186,3.665,0.523,6.292,1.129l0,0c6.822,1.569,14.76,9.776,15.114,10.145   c0.001,0.001,0.002,0.002,0.003,0.003c0.006,0.006,0.009,0.01,0.009,0.01S483.021,125.17,476.695,121.03" class="color1370C7 svgShape"/><path fill="#ffffff" d="M484.108,88.124c0.002,0,0.005,0,0.007,0C484.113,88.125,484.11,88.124,484.108,88.124 M482.742,88.089   c-2.291,0-4.74,0.288-7.338,0.911c-0.602,0.145-1.182,0.305-1.742,0.482c0.558-0.176,1.136-0.336,1.736-0.48   c2.602-0.624,5.058-0.913,7.353-0.913c0.432,0,0.859,0.01,1.279,0.03C483.606,88.1,483.177,88.089,482.742,88.089" class="colorFFF svgShape"/><path fill="#ffbf66" d="M482.75,88.09c-2.295,0-4.75,0.289-7.353,0.913c-0.6,0.144-1.178,0.304-1.736,0.48   c-11.802,3.721-14.391,14.323-14.547,22.331c0.031-0.131,3.4-15.013,13.24-19.762c4.025-1.944,8.327-2.52,12.013-2.52   c5.232,0,9.222,1.161,9.411,1.219c-2.756-1.49-5.991-2.437-9.664-2.626c-0.002,0-0.005,0-0.007,0   c-0.026-0.001-0.053-0.003-0.079-0.004C483.609,88.1,483.182,88.09,482.75,88.09" class="colorFB9964 svgShape"/><path fill="#ffb58a" d="M434.115,179.228c2.159,4.3,5.576,7.647,10.033,9.084c0.207,0.071,0.431,0.128,0.647,0.193   c1.65,0.462,3.433,0.655,5.359,0.553c5.752-0.308,11.384-2.685,16.139-5.524c7.692-4.58,13.19-10.397,13.569-10.791   c0.585-0.622,10.318-1.542,10.149-10.484c-0.172-8.944-7.142-13.003-12.939-9.074c-2.139,1.447-2.979,3.609-3.298,5.408   c-0.322,1.82-0.108,3.254-0.108,3.254s-3.377,3.411-5.933,1.749c-2.349-1.504-2.845-6.705-2.845-6.705   c-0.703-0.562-1.449-1.148-2.241-1.759c-6.66-5.079-10.853-12.608-10.853-12.608s-4.299,4.785-10.501,7.097   c-6.204,2.313-12.36,1.171-12.36,1.171S431.081,173.172,434.115,179.228" class="colorF3BA95 svgShape"/><path fill="#ffb58a" d="M444.559,187.725l7.829,25.654c0,0,9.042-0.814,14.771-5.333c9.853-7.774,13.81-19.689,13.81-19.689   l-1.108-15.614L444.559,187.725" class="colorF3BA95 svgShape"/><path fill="#7f7f7f" d="M444.794,188.505l1.808,6.017c0.01-0.002,0.019-0.004,0.029-0.006l-1.834-6.009   C444.796,188.506,444.795,188.505,444.794,188.505" class="color7F7F7F svgShape"/><path fill="#edb260" d="M444.796,188.501c-0.009,0-0.01,0.001-0.002,0.003l0,0c0.001,0,0.002,0.001,0.003,0.001L444.796,188.501" class="colorED9760 svgShape"/><path fill="#edb260" d="M467.159,181.899c0,0-2.885,2.935-9.363,5.128c-3.942,1.327-7.736,1.593-10.199,1.593   c-0.823,0-1.497-0.03-1.979-0.06c-0.482-0.03-0.771-0.059-0.822-0.059c0,0,0,0-0.001,0l0.001,0.004l1.834,6.009   c0.537-0.12,1.285-0.292,2.166-0.502c4.405-2.367,9.271-4.308,14.102-5.692c1.427-1.533,2.634-3.45,3.393-4.786   C466.847,182.569,467.159,181.899,467.159,181.899" class="colorED9760 svgShape"/><path fill="#592f16" d="M446.151 172.686c-.876 0-1.592-.147-1.953-.537-.648-.703-.601-4.229.139-10.48.047-.403.412-.704.816-.644.403.048.691.413.643.815-.453 3.833-.758 8.371-.491 9.308.542.193 2.607-.022 4.568-.49.397-.096.792.149.885.545.094.395-.15.79-.544.885C448.896 172.401 447.368 172.686 446.151 172.686zM445.334 171.23h.01H445.334zM481.626 168.876c-.135 0-.271-.037-.393-.114-.122-.077-2.98-1.935-3.429-5.509-.425-3.435.533-5.686.574-5.779.162-.373.593-.542.967-.381.371.162.542.594.381.965-.009.021-.837 2.004-.464 5.014.361 2.871 2.738 4.437 2.762 4.452.34.219.439.673.221 1.014C482.105 168.757 481.868 168.876 481.626 168.876z" class="color591C16 svgShape"/><path fill="#592f16" d="M478.615 164.367l-.131-.013c-.397-.071-.662-.448-.593-.846.019-.104.475-2.566 3.123-3.373 2.455-.745 5.64.487 5.773.54.377.148.562.575.414.952s-.575.565-.953.415c-.028-.012-2.848-1.099-4.807-.501-1.765.537-2.091 2.155-2.104 2.224C479.271 164.118 478.961 164.367 478.615 164.367zM434.449 162.126c.151 1.347.937 2.364 1.756 2.268.816-.091 1.355-1.26 1.203-2.604-.155-1.346-.937-2.359-1.76-2.267C434.833 159.615 434.298 160.781 434.449 162.126zM456.244 155.968c-.173 0-.346-.061-.486-.184-.015-.013-1.463-1.272-3.08-1.443-1.704-.182-2.546-.009-2.554-.007-.394.084-.786-.167-.873-.561-.087-.395.158-.784.552-.874.105-.023 1.083-.225 3.03-.02 2.092.22 3.826 1.739 3.899 1.804.303.269.331.732.062 1.036C456.649 155.884 456.447 155.968 456.244 155.968zM431.874 158.817l-.156-.015c-.399-.075-.648-.507-.573-.905.057-.303.386-.985 1.952-2.15 1.728-1.288 4.521-1.466 4.64-1.473.41-.014.752.286.776.689.024.405-.284.753-.689.777-.025.002-2.476.161-3.849 1.185-1.203.896-1.409 1.334-1.411 1.338C432.497 158.609 432.209 158.817 431.874 158.817zM446.644 179.83c.18 2.085 1.406 3.682 2.738 3.567 1.332-.115 2.267-1.898 2.086-3.983-.18-2.085-1.404-3.683-2.736-3.567S446.465 177.745 446.644 179.83zM451.011 159.92c.148 1.357.937 2.378 1.763 2.287.819-.092 1.363-1.265 1.212-2.621-.146-1.352-.939-2.376-1.759-2.282C451.403 157.396 450.863 158.566 451.011 159.92z" class="color591C16 svgShape"/><path fill="#ffffff" d="M490.343,162.394c-0.125,0.534-0.266,1.05-0.424,1.544c-0.033,0.244-0.074,0.481-0.123,0.712   c0.031,0.52,0.044,0.875,0.047,0.946C490.153,164.66,490.344,163.61,490.343,162.394" class="colorFFF svgShape"/><path fill="#7f7f7f" d="M490.343,162.388c-0.124,0.533-0.265,1.046-0.423,1.54c0,0.003-0.001,0.007-0.001,0.01   c0.158-0.495,0.299-1.01,0.424-1.544C490.343,162.392,490.343,162.39,490.343,162.388" class="color7F7F7F svgShape"/><path fill="#ff6103" d="M481.959,151.604c-0.745,0-1.504,0.115-2.262,0.352c0.662-0.181,1.324-0.269,1.975-0.269   c4.349,0,8.211,3.946,8.338,10.573c0.011,0.591-0.021,1.146-0.091,1.669c0.158-0.494,0.298-1.007,0.423-1.54   c0-0.046,0-0.093-0.001-0.14C490.227,155.581,486.338,151.604,481.959,151.604" class="colorF13F29 svgShape"/><path fill="#f8d4bf" d="M481.672,151.686c-0.651,0-1.313,0.089-1.975,0.269c-0.789,0.246-1.574,0.624-2.341,1.141   c-0.73,0.489-1.297,1.066-1.76,1.678c0.173-0.12,2.691-1.842,5.463-1.842c0.731,0,1.48,0.12,2.208,0.421   c3.587,1.478,5.557,4.899,6.022,7.082c0.3,1.414,0.442,3.157,0.506,4.216c0.049-0.23,0.09-0.467,0.123-0.712   c0-0.003,0.001-0.007,0.001-0.01c0.07-0.523,0.102-1.079,0.091-1.669C489.883,155.631,486.022,151.686,481.672,151.686" class="colorF8D6BF svgShape"/><path fill="#da6826" d="M539.595,311.91H438.746l-6.11-37.33c0,0-1.01-7.26-1.82-17.18c-1.42-17.46-2.25-43.19,4.101-52.1   c9.96-13.98,40.359-23.28,52.27-17.73c11.92,5.561,28.84,26.15,37.42,56.61C533.186,274.64,539.595,311.91,539.595,311.91" class="color26A2DA svgShape"/><path fill="#c75513" d="M478.436,238.48l-0.003,0.001c-1.471,4.605-3.932,8.791-7.716,12.048   c-8.368,7.214-24.376,11.657-39.251,13.971c0.617,6.096,1.171,10.079,1.171,10.079l6.043,36.921h29.969   c-3.672-1.236-14.445-5.033-17.662-8.06c-3.9-3.67-7.17-28.331-7.17-28.331C476.065,260.44,478.436,238.48,478.436,238.48" class="color1373C7 svgShape"/><path fill="#da6826" d="M470.716,250.53c-9.43,8.13-28.56,12.74-44.84,14.75h-0.02c-9.05,1.12-17.229,1.44-22.35,1.101   c-2.29-0.151-3.97-0.431-4.851-0.821c-2.47-1.11-4.449-2.94-5.55-5.78c-1.77-4.47-1.38-11.43,2.56-21.939   c4.37-11.661,11.19-17.71,15.11-20.371c1.089-0.75,1.95-1.23,2.48-1.5c0.37-0.191,0.569-0.281,0.569-0.281   c1.49-1.3,7.061-4.87,13.761-8.92c11.72-7.09,26.899-15.63,29.739-16.031c4.461-0.63,8.421-0.56,14.53,5.581   C477.966,202.45,487.746,235.87,470.716,250.53" class="color26A2DA svgShape"/><path fill="#7e2e00" d="M188.405,250.341l-0.219,3.409l-0.38,5.89l-3.39,52.27H88.155l4.511-27.7l6.01-36.869v-0.04l0.019-0.08   l8.56-52.57l0.91-5.6c0,0,6.279-1.521,11.64-0.77c5.37,0.76,38.65,6.42,38.65,6.42s2.53,0.361,6.529,1.531   c0,0,0.051,0.009,0.151,0.04c2.42,0.71,5.37,1.71,8.62,3.101l0.26,0.119c1.54,0.66,2.96,2.01,4.26,3.87   C185.655,213.91,189.025,240.801,188.405,250.341" class="color00757E svgShape"/><path fill="#7e2e00" d="M98.676,247.301l-0.01,0.029l0.01,0.011c0.42,0.39,11.64,10.989,1.979,27.02   c-2.399,3.99-5.109,7.3-7.989,9.849c-8.891,7.891-19.36,8.54-27.28-0.3c-10.49-11.71-14.89-31.969,0-61.939   c2.91-5.86,6.32-10.69,9.92-14.66c14.809-16.34,32.86-18.26,32.86-18.26s1.609,1.59,2.54,4.939c0.47,1.731,0.77,3.921,0.56,6.601   c-0.59,7.619-11.86,44.34-12.57,46.63L98.676,247.301" class="color00757E svgShape"/><path fill="#ffb58a" d="M405.904,196.619c0,0-1.227-2.995-0.649-6.292c0.576-3.297,9.233-4.955,11.233-6.692   c1.998-1.736,0.668-6.072-0.366-6.967c-0.445-0.384-2.387,0.137-4.672,0.658c-3.027,0.69-6.659,1.38-8.214-0.035   c-2.73-2.485-0.514-10.13,1.066-13.06c1.582-2.929,4.926-4.746,4.728-6.668c-0.199-1.922-2.182-2.894-3.133-2.974   c-0.949-0.078-1.979,0.205-1.979,0.205s-0.804-1.507-2.834-2.357c-2.029-0.85-4.834,0.5-4.834,0.5s-1.637-1.598-4.058-1.113   c-2.422,0.485-5.518,3.571-5.518,3.571s-3.731-1.925-6.447,0.835c-2.717,2.759-6.314,13.549-6.207,19.718   c0.106,6.169,2.936,13.059,3.774,14.326c0.836,1.268,1.761,9.672,1.761,9.672L405.904,196.619" class="colorF3BA95 svgShape"/><path fill="#7f7f7f" d="M379.395,198.588l-0.001,0L379.395,198.588L379.395,198.588 M405.254,190.327L405.254,190.327   c-0.187,1.065-0.185,2.099-0.097,3.01l0.097-0.02V190.327" class="color7F7F7F svgShape"/><path fill="#edb260" d="M405.254,190.327l-25.859,8.261h0h0l25.762-5.251C405.069,192.426,405.068,191.392,405.254,190.327   L405.254,190.327" class="colorED9760 svgShape"/><path fill="#592f16" d="M394.299 170.381c-.218 0-.399-.173-.408-.393-.004-.115-.069-2.882 3.143-8.025 3.191-5.109 6.515-7.41 6.654-7.506.188-.127.441-.079.568.107s.079.44-.107.568c-.033.022-3.329 2.311-6.422 7.264-3.081 4.932-3.021 7.535-3.02 7.561.009.226-.167.415-.393.424H394.299zM387.337 165.091c-.207 0-.383-.152-.404-.361-.015-.139-.073-1.471 2.227-5.417 2.327-3.99 6.698-6.616 6.883-6.727.195-.116.445-.05.56.143.115.194.052.445-.142.561-.043.025-4.375 2.631-6.594 6.436-2.147 3.684-2.12 4.922-2.119 4.934.009.221-.158.415-.378.431L387.337 165.091zM381.586 162.981l-.185-.045c-.201-.103-.281-.349-.179-.55 2.404-4.732 5.064-7.189 5.177-7.292.167-.151.425-.141.577.026.152.166.14.425-.026.577-.026.024-2.667 2.469-5 7.06C381.879 162.899 381.735 162.981 381.586 162.981z" class="color591C16 svgShape"/><path fill="#7f411d" d="M208.128,161.71c0,8.031-3.096,14.543-6.916,14.543c-3.82,0-6.917-6.512-6.917-14.543   c0-8.032,3.097-14.544,6.917-14.544C205.031,147.166,208.128,153.678,208.128,161.71" class="color1D5A7F svgShape"/><path fill="#3f200e" d="M201.216,147.171c-3.82,0-6.92,6.51-6.92,14.54c0,8.029,3.099,14.54,6.92,14.54   c0.48,0,0.939-0.101,1.39-0.301c-3.15-1.359-5.51-7.22-5.51-14.239c0-7.021,2.36-12.88,5.51-14.24   C202.155,147.271,201.695,147.171,201.216,147.171" class="color0E2D3F svgShape"/><path fill="#592f16" d="M566.448,312.318H33.552c-0.226,0-0.409-0.183-0.409-0.409c0-0.225,0.183-0.408,0.409-0.408h532.897   c0.226,0,0.409,0.183,0.409,0.408C566.857,312.135,566.674,312.318,566.448,312.318" class="color591C16 svgShape"/><polyline fill="#7e2e00" points="58.403 239.691 41.544 311.909 88.151 311.909 96.86 258.427 58.403 239.691" class="color00757E svgShape"/><path fill="#7e2e00" d="M226.185,269.271c-1.55,1-3.219,1.63-4.97,1.821c-1.92,0.21-4.67-0.23-7.98-1.151l-0.099-0.03   c-6.82-1.899-16.01-5.81-25.33-10.27c-1.821-0.86-3.63-1.75-5.441-2.65c-13.46-6.689-26.25-13.939-31.489-17.3   c-9.21-5.91-6.391-32.84,4.97-41.149c2.61-1.92,5.67-2.841,9.139-2.311c0,0,0.051,0.009,0.151,0.04   c1.61,0.43,15.68,4.291,30.54,10.35c0.56,0.221,1.12,0.46,1.679,0.691c3.38,1.41,6.771,2.93,10.05,4.55l0.09,0.05   c9.699,4.81,18.35,10.46,22.38,16.589C240.166,244.16,235.506,263.311,226.185,269.271" class="color00757E svgShape"/><path fill="#7e2e00" d="M247.376,268.671l-1.04,0.71c-11.7,7.54-31.5,1.1-33.101,0.56l-0.099-0.03l-0.43-4.31l-3.66-37.11   l-1.641-16.63l-0.359-3.67l-2.11-21.42l42.441-7.85C247.376,178.921,259.376,259.671,247.376,268.671" class="color00757E svgShape"/><path fill="#ffb58a" d="M208.128,186.179c0,0-4.125-5.134-4.875-7.259c-0.75-2.125,7-18.625,8.25-18.375   c1.25,0.25,5,2.75,5.5,5.875c0.5,3.125-2.125,9.833-2.125,9.833h28.584v3.392L208.128,186.179" class="colorF3BA95 svgShape"/><path fill="#da6826" d="M413.886,221.5c-0.51,3.32,0.18,33.62-6.441,42.47c-1.089,1.47-2.399,2.35-3.939,2.41   c-10.81,0.419-18.06-0.981-27.91-15.551c-1.13-1.67-2.099-3.63-2.929-5.77c-0.401-1.03-0.771-2.101-1.101-3.22l-0.019-0.04v-0.01   c-5.02-16.619-3.3-40.93-3.3-40.93l39.199-7.989c0,0,1.271,4.46,2.681,9.879v0.01c1.14,4.38,2.38,9.4,3.13,13.21   c0.359,1.92,0.609,3.529,0.66,4.609C413.926,220.96,413.926,221.27,413.886,221.5" class="color26A2DA svgShape"/><path fill="#c75513" d="M407.445,263.971L407.445,263.971c-1.089,1.47-2.399,2.35-3.939,2.41c1.283,0.085,2.759,0.129,4.393,0.129   c4.883,0,11.176-0.39,17.957-1.229c-0.392,0.024-1.528,0.083-3.229,0.083C419.289,265.363,413.778,265.136,407.445,263.971" class="color1373C7 svgShape"/><path fill="#c75513" d="M371.546,241.801l0.019,0.04l1.101,3.22c0.83,2.14,1.8,4.1,2.929,5.77   c8.964,13.259,15.773,15.611,25.073,15.611c0.919,0,1.865-0.023,2.837-0.061l0,0c1.54-0.061,2.85-0.941,3.939-2.41l0,0l0,0   c-4.529-0.83-9.479-2.14-14.339-4.19C384.886,256.32,376.896,250.74,371.546,241.801" class="color1373C7 svgShape"/><path fill="#fbe9df" d="M478.086,185.941c-1.393,0-2.853,0.078-4.36,0.23c0.004,0,0.009,0.001,0.013,0.002   c1.506-0.153,2.966-0.232,4.359-0.232c0.082,0,0.166,0,0.248,0.001C478.259,185.941,478.173,185.941,478.086,185.941" class="colorFBEADF svgShape"/><path fill="#f48341" d="M478.098,185.941c-1.393,0-2.853,0.079-4.359,0.232c1.965,0.25,3.72,0.709,5.187,1.397   c11.92,5.561,28.84,26.15,37.42,56.61c8.055,28.595,14.198,63.192,14.919,67.32h8.259c-0.722-4.129-6.864-38.725-14.919-67.32   c-8.58-30.46-25.5-51.05-37.42-56.61l0,0c-2.337-1.087-5.378-1.604-8.84-1.628C478.264,185.941,478.18,185.941,478.098,185.941" class="color41E3F4 svgShape"/><path fill="#975025" d="M539.524,311.501L539.524,311.501h-8.259c0.047,0.269,0.071,0.409,0.071,0.409h8.259   C539.595,311.91,539.571,311.77,539.524,311.501" class="color973025 svgShape"/><path fill="#c75513" d="M427.586,206.771c-6.7,4.05-12.271,7.62-13.761,8.92c0,0-0.199,0.09-0.569,0.281   c0.359,1.92,0.609,3.529,0.66,4.609l0,0l0.38-1.319L427.586,206.771" class="color1373C7 svgShape"/><path fill="#c75513" d="M410.126,202.76l0.649,14.71l0.468,14.22l2.673-11.11c-0.051-1.08-0.301-2.689-0.66-4.609l0,0   C412.506,212.16,411.266,207.141,410.126,202.76" class="color1373C7 svgShape"/><path fill="#3f1700" d="M182.365,256.99c-0.316,24.579-3.823,50.938-4.313,54.511h6.39l3.363-51.861   C185.985,258.78,184.176,257.891,182.365,256.99L182.365,256.99" class="color003A3F svgShape"/><path fill="#2c170b" d="M184.443,311.501h-6.39c-0.037,0.269-0.057,0.409-0.057,0.409h6.42L184.443,311.501" class="color2C0E0B svgShape"/><path fill="#3f1700" d="M181.445 234.53c.781 6.75 1.011 14.51.92 22.46l0 0 0 0c1.811.9 3.62 1.79 5.441 2.65l0 0c9.32 4.46 18.51 8.37 25.33 10.27l-.43-4.31c-11.85-4.23-21.62-10.04-24.52-11.85-.571-.359-.88-.56-.88-.56L181.445 234.53M212.706 265.6L212.706 265.6l.43 4.31 0 0 .099.03c1.019.344 9.404 3.076 18.384 3.076 5.133 0 10.461-.893 14.716-3.635l1.04-.71c-3.522 1.101-7.263 1.573-11.089 1.573-3.333 0-6.73-.359-10.101-.974C221.575 268.44 217.006 267.12 212.706 265.6L212.706 265.6M197.355 207.311c5.97 5.26 10.081 16.28 11.691 21.18l-1.641-16.63C204.126 210.24 200.735 208.72 197.355 207.311M207.046 208.191l.359 3.67 0 0 1.641 16.63 0 0c.439 1.32.689 2.19.75 2.4l-2.3-18.98L207.046 208.191M98.292 277.936c-1.444 1.988-2.973 3.754-4.559 5.286l-5.503 28.278h5.876L98.292 277.936M104.593 227.413l-4.247 21.826c.404.53.846 1.166 1.288 1.901L104.593 227.413" class="color003A3F svgShape"/><path fill="#3f1700" d="M100.346,249.24l-6.613,33.983c1.587-1.532,3.115-3.299,4.559-5.286l3.342-26.796   C101.192,250.405,100.749,249.77,100.346,249.24" class="color003A3F svgShape"/><polyline fill="#2c170b" points="94.107 311.501 88.231 311.501 88.151 311.909 94.056 311.909 94.107 311.501" class="color2C0E0B svgShape"/><path fill="#d64f00" d="M116.571,188.073c-4.365,0-8.405,0.978-8.405,0.978s1.34,1.324,2.281,4.1   c0.036-0.007,0.072-0.013,0.108-0.02c3.261-0.551,6.67-0.82,10.173-0.82c2.05,0,4.132,0.092,6.233,0.274l0.667-3.06   c-3.649-0.599-6.536-1.062-7.823-1.245C118.745,188.132,117.648,188.073,116.571,188.073" class="color00C7D6 svgShape"/><path fill="#d64f00" d="M108.166 189.051c0 0-18.051 1.92-32.86 18.26 0 0 13.369-9.64 31.799-13.52 1.095-.223 2.209-.437 3.342-.64C109.506 190.375 108.166 189.051 108.166 189.051L108.166 189.051M169.332 197.461l-1.185 3.792c3.688.789 7.081 1.491 10.128 2.107 10.89 2.179 17.4 3.26 17.4 3.26C185.085 202.302 174.895 199.1 169.332 197.461" class="color00C7D6 svgShape"/><path fill="#f1b796" d="M169.335,197.45l-4.271,13.672l-2.042,6.489c0,0-11.399,0.098-21.284-7.203   c-9.867-7.276-15.923-12.568-15.923-12.568l5.144-23.594l17.376,10.521L169.335,197.45" class="colorF1BA96 svgShape"/><path fill="#eab161" d="M134.103,178.26c5.239,18.101,30.962,32.862,30.962,32.862l4.271-13.672l-0.457-0.276   c-0.98,0.165-1.976,0.263-2.983,0.297c-0.135,0.005-0.274,0.007-0.411,0.007C155.082,197.479,140.59,184.589,134.103,178.26" class="colorEA9761 svgShape"/><path fill="#592f16" d="M188.265,163.186c-0.233,0-0.455-0.139-0.548-0.368c-0.027-0.063-0.605-1.363-2.786-2.203   c-2.143-0.812-3.079-0.355-3.088-0.35c-0.284,0.146-0.642,0.043-0.797-0.236c-0.155-0.28-0.067-0.629,0.209-0.792   c0.135-0.079,1.397-0.751,4.1,0.271c2.707,1.042,3.432,2.791,3.461,2.865c0.122,0.304-0.026,0.648-0.331,0.77L188.265,163.186z" class="color591C16 svgShape"/><polygon fill="#592f16" points="138.185 145.581 137.868 170.228 151.678 166.844 157.962 149.368" class="color591C16 svgShape"/><path fill="#f1b796" d="M188.287,152.891c0,0-1.608,27.783-6.261,35.43c-3.75,6.162-9.744,8.93-16.131,9.15   c-13.777,0.461-35.166-22.633-35.166-22.633s-8.451-5.361-8.807-13.353c-0.346-7.982,5.358-13.449,13.428-12.845   c8.07,0.625,5.412,17.168,5.778,17.903c0.374,0.747,5.173-0.083,8.372-4.014c3.194-3.926,1.251-5.271,4.113-7.312   c1.685-1.207,6.352-0.777,11.575-0.346c3.649,0.3,7.569,0.601,10.935,0.343C184.3,154.575,188.287,152.891,188.287,152.891" class="colorF1BA96 svgShape"/><path fill="#592f16" d="M133.691,168.761c-0.188,0-0.373-0.09-0.488-0.257c-0.186-0.269-0.118-0.638,0.151-0.823   c0.01-0.008,1.514-1.126,2.465-4.707c0.963-3.648-0.663-7.438-0.679-7.476c-0.131-0.3,0.006-0.649,0.306-0.78   c0.299-0.135,0.649,0.006,0.78,0.306c0.074,0.17,1.807,4.209,0.739,8.254c-1.077,4.057-2.862,5.326-2.938,5.378   C133.924,168.727,133.807,168.761,133.691,168.761z" class="color591C16 svgShape"/><path fill="#592f16" d="M136.559 162.946c-.235 0-.458-.142-.55-.373-.023-.055-.655-1.492-3.119-2.401-2.468-.898-4.875.524-4.898.539-.281.169-.644.079-.813-.2s-.081-.643.198-.812c.118-.071 2.908-1.734 5.921-.639 2.996 1.105 3.78 2.994 3.812 3.074.121.304-.026.648-.331.77L136.559 162.946zM173.365 181.473c-.362 0-.602-.02-.642-.023-.326-.028-.566-.315-.538-.641.028-.326.316-.578.641-.539 1.005.089 3.756-.029 4.444-1.571.666-1.491-1.244-8.264-2.604-12.182-.107-.31.056-.646.365-.754.31-.107.646.056.754.365.376 1.083 3.641 10.646 2.566 13.053C177.439 181.229 174.642 181.473 173.365 181.473zM161.172 166.705c.019 1.317.79 2.362 1.709 2.353.927-.02 1.67-1.089 1.655-2.401-.025-1.319-.793-2.368-1.717-2.35C161.892 164.317 161.153 165.394 161.172 166.705zM181.448 166.811c.021 1.308.79 2.36 1.721 2.343.926-.013 1.664-1.093 1.643-2.396-.02-1.317-.785-2.369-1.707-2.352C182.179 164.421 181.441 165.498 181.448 166.811zM156.291 162.133c-.096 0-.194-.023-.284-.072-.284-.157-.391-.51-.238-.796.076-.142.815-1.418 3.275-2.442 2.496-1.05 5.436-.14 5.56-.102.312.099.484.432.386.743s-.429.485-.743.388c-.026-.009-2.653-.812-4.746.063-2.073.863-2.686 1.906-2.691 1.916C156.701 162.023 156.499 162.133 156.291 162.133z" class="color591C16 svgShape"/><path fill="#f07e3b" d="M188.287,152.891c0,0,20.622,1.253,22.546,8.036c1.92,6.796-26.121,4.382-37.172,1.642   c-11.05-2.75-20.047-7.351-20.047-7.351L188.287,152.891z" class="colorF05A3B svgShape"/><path fill="#f69b1c" d="M188.277,152.879l-34.667,2.332l-27.244,1.256l-1.604,0.081l-2.014,0.1l-0.248,0.017   c0,0-2.695-25.329,17.52-34.611c3.004-1.363,5.959-2.297,8.808-2.835c1.175-0.222,2.325-0.379,3.459-0.48   c14.912-1.383,26.984,7.24,31.087,16.11C188.501,146.069,188.277,152.879,188.277,152.879" class="colorF6AB1C svgShape"/><polyline fill="#fbeae0" points="124.761 156.548 122.747 156.648 124.719 156.594 124.761 156.548" class="colorFBEAE0 svgShape"/><path fill="#fca730" d="M152.285,118.738L152.285,118.738c-1.134,0.102-2.284,0.259-3.459,0.48   c-2.849,0.538-5.804,1.472-8.808,2.835c-15.95,7.324-17.637,24.639-17.639,31.618c0,1.866,0.119,2.993,0.119,2.993l0.248-0.017   l2.014-0.1c0,0,1.174-31.27,27.576-36.836L152.285,118.738" class="colorFCE630 svgShape"/><path fill="#f07e3b" d="M154.89,117.704c-0.369,1.445-1.79,2.304-3.174,1.912c-1.39-0.374-2.199-1.853-1.828-3.291   c0.365-1.432,1.787-2.291,3.17-1.91C154.442,114.801,155.255,116.277,154.89,117.704z" class="colorF05A3B svgShape"/><path fill="#592f16" d="M178.296,183.855c0,0-14.201,0.204-13.966,0.2c0.239-0.009,0.149,4.706,5.99,5.5   C176.155,190.349,178.147,184.974,178.296,183.855z" class="color591C16 svgShape"/><polyline fill="#edb260" points="243.462 177.44 208.128 186.179 243.462 179.645 243.462 177.44" class="colorED9760 svgShape"/><path fill="#7f7f7f" d="M214.38,141.97c-1.699,0-2.828,0.587-2.931,1.663c0,0-0.153,1.492-0.313,3.532h30.179   c0.007-0.877-0.112-1.544-0.403-1.854c-0.907-0.965-2.591-1.276-3.866-1.276c-0.668,0-1.224,0.085-1.496,0.206   c-0.804,0.343-1.066,0.797-1.066,0.797s-0.361-1.592-2.982-1.894c-0.249-0.029-0.491-0.042-0.724-0.042   c-2.225,0-3.705,1.201-3.705,1.201s-0.467-1.142-3.465-1.621c-0.359-0.056-0.694-0.081-1.004-0.081c-2.286,0-3.283,1.34-3.283,1.34   s0.229-1.021-2.679-1.688C215.818,142.062,215.054,141.97,214.38,141.97" class="color7F7F7F svgShape"/><path fill="#c75513" d="M240.626,148.351h-29.579c-0.293,4.094-0.521,9.467,0.24,10.132c0.865,0.757,2.536,1.183,3.802,1.183   c0.562,0,1.043-0.083,1.341-0.259c0.974-0.573,1.108-1.506,1.108-1.506s1.111,2.577,3.852,2.577c0.205,0,0.42-0.015,0.644-0.046   c3.212-0.448,3.42-2.318,3.42-2.318s0.418,2.829,3.843,2.829c0.028,0,0.056,0,0.084-0.001c3.501-0.05,3.586-2.48,3.586-2.48   s1.525,0.574,3.024,0.574c0.909,0,1.809-0.211,2.353-0.891c1.014-1.261,2.541-6.31,2.896-9.738   C241.038,148.37,240.833,148.351,240.626,148.351 M241.316,147.166h-30.179c0,0.002,0,0.003,0,0.005h30.18   C241.316,147.169,241.316,147.168,241.316,147.166" class="color1373C7 svgShape"/><path fill="#ee6c20" d="M241.316,147.171h-30.18c-0.03,0.376-0.059,0.772-0.089,1.18h29.579c0.207,0,0.412,0.019,0.615,0.057   C241.287,147.964,241.313,147.548,241.316,147.171" class="color20D5EE svgShape"/><path fill="#ffb58a" d="M211.325,142.686c0,0-1.404,13.756-0.163,14.854c1.249,1.09,4.177,1.49,5.142,0.923   c0.973-0.579,1.113-1.511,1.113-1.511s1.284,2.98,4.496,2.536c3.209-0.445,3.418-2.316,3.418-2.316s0.429,2.865,3.918,2.827   c3.514-0.049,3.588-2.485,3.588-2.485s3.941,1.488,5.39-0.316c1.438-1.802,3.941-11.356,2.565-12.821   c-1.385-1.482-4.576-1.432-5.373-1.087c-0.803,0.35-1.062,0.807-1.062,0.807s-0.356-1.595-2.977-1.894   c-2.627-0.312-4.431,1.151-4.431,1.151s-0.47-1.138-3.462-1.617c-3.006-0.476-4.285,1.267-4.285,1.267s0.223-1.027-2.689-1.701   C213.614,140.634,211.468,141.183,211.325,142.686z" class="colorF3BA95 svgShape"/><path fill="#592f16" d="M217.417 157.428l-.082-.007c-.259-.045-.432-.291-.387-.55.017-.098 1.7-9.812 1.778-13.877.005-.263.211-.427.485-.467.263.005.471.222.466.484-.08 4.138-1.722 13.62-1.792 14.021C217.845 157.265 217.645 157.428 217.417 157.428zM225.332 157.647l-.105-.012c-.256-.058-.417-.312-.359-.569.02-.087 1.963-8.751 1.607-13.679-.019-.262.178-.489.44-.509.259-.029.49.178.509.44.366 5.068-1.547 13.597-1.629 13.958C225.745 157.498 225.549 157.647 225.332 157.647zM232.837 157.989l-.115-.014c-.255-.063-.41-.321-.347-.576.021-.084 2.058-8.379 1.509-13.25-.029-.262.158-.497.419-.526.264-.02.497.159.526.419.568 5.042-1.444 13.239-1.53 13.586C233.245 157.845 233.051 157.989 232.837 157.989z" class="color591C16 svgShape"/></svg>