<svg xmlns="http://www.w3.org/2000/svg" xmlns:xlink="http://www.w3.org/1999/xlink" enable-background="new 0 0 3000 2000" viewBox="0 0 3000 2000"><switch><g><polygon points="1283.421 1420.239 533.085 1860.231 409.614 1789.492 1159.95 1349.5" opacity=".07" fill="none"/><path fill="#f0f0f0" d="M507.143,766.541l0.048,34.903l727.335-423.166l1.895,650.244         c0.091,31.981-22.4,70.936-50.232,87.005l-626.526,364.964c-27.849,16.079-50.487,3.179-50.577-28.803l-1.895-650.244          L507.143,766.541z" class="colorf0f0f0 svgShape"/><path fill="#3d3d3d" d="M1183.918,314.562c27.832-16.069,50.469-3.169,50.56,28.813l0.048,34.903L507.19,801.444          l-0.048-34.903c-0.091-31.981,22.4-70.936,50.249-87.015L1183.918,314.562z" class="color3d3d3d svgShape"/><path fill="#ff8f4d" d="M561.659,709.513c8.644-4.99,15.667-0.988,15.695,8.934           c0.028,9.922-6.949,22.007-15.593,26.998c-8.635,4.985-15.658,0.983-15.686-8.939           C546.047,726.583,553.024,714.498,561.659,709.513z" class="colorff5a4d svgShape"/><ellipse cx="608.13" cy="699.881" fill="#ffab36" rx="22.039" ry="12.766" transform="rotate(-59.834 608.176 699.877)" class="colorfff836 svgShape"/><path fill="#ffaa33" d="M652.989,655.073c8.635-4.985,15.658-0.983,15.686,8.939           c0.028,9.922-6.949,22.007-15.584,26.992c-8.634,4.985-15.657,0.983-15.686-8.939           C637.377,672.143,644.354,660.058,652.989,655.073z" class="color33ff52 svgShape"/><path fill="#545454" d="M1166.041,279.44c-9.163-5.325-21.854-4.575-35.859,3.511L503.656,647.915         c-27.849,16.079-50.34,55.034-50.249,87.015l0.048,34.903l53.736,31.612l-0.047-34.903         c-0.091-31.981,22.4-70.936,50.249-87.015l626.526-364.964c14.005-8.086,26.695-8.836,35.859-3.511L1166.041,279.44z" class="color545454 svgShape"/><path fill="#c9c9c9" d="M509.085,1451.688l-1.895-650.244l-53.736-31.612l1.895,650.244         c0.045,15.885,5.653,27.063,14.699,32.32l53.736,31.611C514.738,1478.751,509.13,1467.574,509.085,1451.688z" class="colorc9c9c9 svgShape"/><g fill="none"><polygon fill="#b3b3b3" points="1041.828 1097.001 1041.828 1108.397 739.865 1282.736 739.833 1271.358" class="colorb3b3b3 svgShape"/><polygon fill="#b3b3b3" points="1027.294 1066.878 1092.401 1029.289 1092.401 1040.671 1027.294 1078.26" class="colorb3b3b3 svgShape"/><polygon fill="#b3b3b3" points="996.873 1084.442 996.873 1095.824 740.22 1244.003 740.187 1232.639" class="colorb3b3b3 svgShape"/><polygon fill="#b3b3b3" points="980.142 1053.731 1163.353 947.954 1163.353 959.337 980.142 1065.113" class="colorb3b3b3 svgShape"/><polygon fill="#b3b3b3" points="915.722 1090.924 915.722 1102.306 737.016 1205.483 736.983 1194.119" class="colorb3b3b3 svgShape"/><g fill="none"><ellipse cx="650.021" cy="1275.711" fill="#e0b170" rx="73.722" ry="42.702" transform="rotate(-59.834 650.087 1275.72)" class="colorade070 svgShape"/></g><g fill="none"><polygon fill="#b3b3b3" points="1041.828 880.593 1041.828 891.99 739.865 1066.328 739.833 1054.95" class="colorb3b3b3 svgShape"/><polygon fill="#b3b3b3" points="1027.294 850.47 1092.401 812.881 1092.401 824.263 1027.294 861.853" class="colorb3b3b3 svgShape"/><polygon fill="#b3b3b3" points="996.873 868.034 996.873 879.416 740.22 1027.595 740.187 1016.231" class="colorb3b3b3 svgShape"/><polygon fill="#b3b3b3" points="980.142 837.323 1163.353 731.547 1163.353 742.929 980.142 848.706" class="colorb3b3b3 svgShape"/><polygon fill="#b3b3b3" points="915.722 874.516 915.722 885.899 737.016 989.075 736.983 977.711" class="colorb3b3b3 svgShape"/><g fill="none"><ellipse cx="650.021" cy="1059.303" fill="#e0b170" rx="73.722" ry="42.702" transform="rotate(-59.834 650.08 1059.307)" class="colorade070 svgShape"/></g></g><g fill="none"><polygon fill="#b3b3b3" points="1041.828 668.464 1041.828 679.86 739.865 854.199 739.833 842.821" class="colorb3b3b3 svgShape"/><polygon fill="#b3b3b3" points="1027.294 638.341 1092.401 600.752 1092.401 612.134 1027.294 649.724" class="colorb3b3b3 svgShape"/><polygon fill="#b3b3b3" points="996.873 655.904 996.873 667.287 740.22 815.466 740.187 804.102" class="colorb3b3b3 svgShape"/><polygon fill="#b3b3b3" points="980.142 625.194 1163.353 519.417 1163.353 530.8 980.142 636.576" class="colorb3b3b3 svgShape"/><polygon fill="#b3b3b3" points="915.722 662.387 915.722 673.769 737.016 776.946 736.983 765.582" class="colorb3b3b3 svgShape"/><g fill="none"><ellipse cx="650.021" cy="847.174" fill="#e0b170" rx="73.722" ry="42.702" transform="rotate(-59.834 650.07 847.172)" class="colorade070 svgShape"/></g></g></g><g fill="none"><polygon points="2131.726 958.591 1381.389 1398.583 1257.918 1327.845 2008.255 887.852" opacity=".07" fill="none"/><path fill="#f0f0f0" d="M1355.447,560.259l0.048,34.903l727.335-423.166l1.895,650.244          c0.091,31.981-22.4,70.936-50.232,87.005l-626.526,364.964c-27.849,16.079-50.487,3.179-50.577-28.802l-1.895-650.244          L1355.447,560.259z" class="colorf0f0f0 svgShape"/><path fill="#3d3d3d" d="M2032.222,108.28c27.832-16.069,50.469-3.168,50.56,28.813l0.048,34.903l-727.335,423.166          l-0.048-34.903c-0.091-31.981,22.4-70.936,50.249-87.015L2032.222,108.28z" class="color3d3d3d svgShape"/><path fill="#ff8f4d" d="M1409.963,503.231c8.644-4.99,15.667-0.988,15.695,8.934           c0.028,9.922-6.949,22.007-15.593,26.998c-8.635,4.985-15.658,0.983-15.686-8.939           C1394.351,520.302,1401.329,508.216,1409.963,503.231z" class="colorff5a4d svgShape"/><path fill="#ffab36" d="M1456.384,475.633c8.635-4.985,15.658-0.983,15.686,8.939           c0.028,9.922-6.949,22.007-15.584,26.993c-8.634,4.985-15.657,0.983-15.686-8.939           C1440.772,492.704,1447.749,480.618,1456.384,475.633z" class="colorfff836 svgShape"/><path fill="#ffaa33" d="M1501.293,448.791c8.635-4.985,15.658-0.983,15.686,8.939           c0.028,9.922-6.949,22.007-15.584,26.992c-8.635,4.985-15.658,0.983-15.686-8.939           C1485.681,465.861,1492.659,453.776,1501.293,448.791z" class="color33ff52 svgShape"/><path fill="#545454" d="M2014.345,73.158c-9.164-5.325-21.854-4.575-35.859,3.511L1351.96,441.633         c-27.85,16.079-50.34,55.034-50.249,87.015l0.047,34.903l53.736,31.612l-0.048-34.903         c-0.091-31.981,22.4-70.936,50.249-87.015l626.526-364.964c14.005-8.086,26.695-8.836,35.859-3.511L2014.345,73.158z" class="color545454 svgShape"/><path fill="#c9c9c9" d="M1357.39,1245.406l-1.895-650.244l-53.736-31.612l1.895,650.244         c0.045,15.885,5.653,27.063,14.699,32.32l53.736,31.612C1363.042,1272.469,1357.434,1261.292,1357.39,1245.406z" class="colorc9c9c9 svgShape"/><g fill="none"><polygon fill="#b3b3b3" points="1890.133 890.719 1890.133 902.115 1588.17 1076.454 1588.137 1065.076" class="colorb3b3b3 svgShape"/><polygon fill="#b3b3b3" points="1875.599 860.596 1940.705 823.007 1940.705 834.389 1875.599 871.979" class="colorb3b3b3 svgShape"/><polygon fill="#b3b3b3" points="1845.178 878.159 1845.178 889.542 1588.524 1037.721 1588.492 1026.357" class="colorb3b3b3 svgShape"/><polygon fill="#b3b3b3" points="1828.447 847.449 2011.658 741.672 2011.658 753.055 1828.447 858.831" class="colorb3b3b3 svgShape"/><polygon fill="#b3b3b3" points="1764.026 884.642 1764.026 896.024 1585.32 999.201 1585.288 987.837" class="colorb3b3b3 svgShape"/><g fill="none"><ellipse cx="1498.325" cy="1069.429" fill="#e0b170" rx="73.722" ry="42.702" transform="rotate(-59.834 1498.407 1069.4)" class="colorade070 svgShape"/></g><g fill="none"><polygon fill="#b3b3b3" points="1890.133 674.311 1890.133 685.708 1588.17 860.046 1588.137 848.668" class="colorb3b3b3 svgShape"/><polygon fill="#b3b3b3" points="1875.599 644.188 1940.705 606.599 1940.705 617.982 1875.599 655.571" class="colorb3b3b3 svgShape"/><polygon fill="#b3b3b3" points="1845.178 661.752 1845.178 673.134 1588.524 821.313 1588.492 809.949" class="colorb3b3b3 svgShape"/><polygon fill="#b3b3b3" points="1828.447 631.041 2011.658 525.265 2011.658 536.647 1828.447 642.424" class="colorb3b3b3 svgShape"/><polygon fill="#b3b3b3" points="1764.026 668.234 1764.026 679.617 1585.32 782.793 1585.288 771.429" class="colorb3b3b3 svgShape"/><g fill="none"><ellipse cx="1498.325" cy="853.021" fill="#e0b170" rx="73.722" ry="42.702" transform="rotate(-59.834 1498.4 852.987)" class="colorade070 svgShape"/></g></g><g fill="none"><polygon fill="#b3b3b3" points="1890.133 462.182 1890.133 473.578 1588.17 647.917 1588.137 636.539" class="colorb3b3b3 svgShape"/><polygon fill="#b3b3b3" points="1875.599 432.059 1940.705 394.47 1940.705 405.852 1875.599 443.441" class="colorb3b3b3 svgShape"/><polygon fill="#b3b3b3" points="1845.178 449.622 1845.178 461.005 1588.524 609.184 1588.492 597.82" class="colorb3b3b3 svgShape"/><polygon fill="#b3b3b3" points="1828.447 418.912 2011.658 313.135 2011.658 324.518 1828.447 430.294" class="colorb3b3b3 svgShape"/><polygon fill="#b3b3b3" points="1764.026 456.105 1764.026 467.487 1585.32 570.664 1585.288 559.3" class="colorb3b3b3 svgShape"/><g fill="none"><ellipse cx="1498.325" cy="640.892" fill="#e0b170" rx="73.722" ry="42.702" transform="rotate(-59.834 1498.39 640.852)" class="colorade070 svgShape"/></g></g></g></g><g fill="none"><defs fill="none"><path id="a" d="M507.143,766.541l0.048,34.903l727.335-423.166l1.895,650.244c0.091,31.981-22.4,70.936-50.232,87.005         l-626.526,364.964c-27.849,16.079-50.487,3.179-50.577-28.803l-1.895-650.244L507.143,766.541z"/></defs><clipPath id="b" fill="none"><use overflow="visible" xlink:href="#a"/></clipPath><path d="M1625.353,555.469l-0.044-15.312        c-0.083-29.171-20.731-40.937-46.117-26.281L845.647,937.39c-25.402,14.666-45.916,50.197-45.833,79.368l0.044,15.312        l1.729,609.625c0.083,29.171,20.731,40.938,46.133,26.271l733.546-423.514c25.386-14.657,45.9-50.188,45.818-79.359        L1625.353,555.469z" clip-path="url(#b)" opacity=".1" fill="none"/></g><g fill="none"><defs fill="none"><path id="c" d="M1355.447,560.259l0.048,34.903l727.335-423.166l1.895,650.244         c0.091,31.981-22.4,70.936-50.232,87.005l-626.526,364.964c-27.849,16.079-50.487,3.179-50.577-28.802l-1.895-650.244         L1355.447,560.259z"/></defs><clipPath id="d" fill="none"><use overflow="visible" xlink:href="#c"/></clipPath><path d="M1661.603,529.658l-0.044-15.312        c-0.083-29.171-20.731-40.938-46.117-26.281L881.897,911.579c-25.402,14.666-45.916,50.197-45.833,79.368l0.044,15.312        l1.729,609.625c0.083,29.171,20.731,40.938,46.133,26.272l733.546-423.514c25.386-14.657,45.9-50.188,45.818-79.359        L1661.603,529.658z" clip-path="url(#d)" opacity=".1" fill="none"/></g><g fill="none"><polygon points="1845.28 1298.378 998.804 1790.327 886.184 1725.805 1732.659 1233.856" opacity=".07" fill="none"/><path fill="#ffffff" d="M975.141,1083.039l0.043,15.312L1800.68,621.75l1.729,609.625           c0.083,29.171-20.431,64.702-45.817,79.359l-733.546,423.514c-25.402,14.666-46.05,2.899-46.133-26.271l-1.729-609.625           L975.141,1083.039z" class="colorfff svgShape"/><path fill="#666666" d="M1754.52,580.157c25.386-14.657,46.034-2.89,46.117,26.281l0.043,15.312l-825.496,476.601           l-0.043-15.312c-0.083-29.171,20.431-64.702,45.833-79.368L1754.52,580.157z" class="color666 svgShape"/><path fill="#ff9759" d="M1654.753,661.576c3.335-1.925,6.022-0.336,6.032,3.438l0.043,15.27           c0.011,3.774-2.659,8.397-5.994,10.323l-21.677,12.515c-3.284,1.896-6.022,0.394-6.032-3.38l-0.043-15.27           c-0.011-3.774,2.709-8.485,5.993-10.381L1654.753,661.576z" class="colorff5959 svgShape"/><path fill="#ffb247" d="M1705.594,632.185c3.335-1.925,6.022-0.336,6.033,3.438l0.043,15.27           c0.011,3.774-2.659,8.397-5.994,10.323l-21.626,12.486c-3.335,1.925-6.022,0.394-6.032-3.38l-0.043-15.27           c-0.011-3.774,2.658-8.456,5.993-10.381L1705.594,632.185z" class="color76ff47 svgShape"/><path fill="#ffa62b" d="M1758.067,602.237c3.284-1.896,6.022-0.336,6.033,3.438l0.043,15.27           c0.011,3.774-2.709,8.427-5.994,10.323l-21.677,12.515c-3.335,1.925-6.022,0.394-6.032-3.38l-0.043-15.27           c-0.011-3.774,2.658-8.456,5.993-10.381L1758.067,602.237z" class="colorffd92b svgShape"/><path fill="#4d4d4d" d="M1714.924,534.484c-8.358-4.857-19.933-4.173-32.708,3.203L948.671,961.2          c-25.402,14.666-45.916,50.197-45.833,79.368l0.043,15.312l72.304,42.471l-0.043-15.312          c-0.083-29.171,20.431-64.702,45.833-79.368l733.546-423.514c12.775-7.375,24.349-8.06,32.708-3.203L1714.924,534.484z" class="color4d4d4d svgShape"/><path fill="#c9c9c9" d="M976.913,1707.976l-1.729-609.625l-72.304-42.471l1.729,609.625          c0.041,14.489,5.156,24.685,13.407,29.48l72.304,42.471C982.07,1732.661,976.955,1722.466,976.913,1707.976z" class="colorc9c9c9 svgShape"/><g fill="none"><path fill="#cccccc" d="M1101.916 1112.146l60.879-35.149.198 69.955-60.879 35.149L1101.916 1112.146zM1156.228 1143.096l-.155-54.473-47.406 27.37.154 54.473L1156.228 1143.096 1156.228 1143.096zM1687.872 957.557v.014c.016 5.578-2.954 10.738-7.785 13.528l-407.035 235.003c-10.363 5.983-23.32-1.474-23.354-13.439l0-.014c-.016-5.578 2.954-10.739 7.785-13.528l407.035-235.003C1674.88 938.135 1687.838 945.591 1687.872 957.557zM1688.258 1093.816L1688.258 1093.816c.016 5.578-2.954 10.738-7.785 13.528l-407.035 235.003c-10.363 5.983-23.32-1.474-23.354-13.439l0 0c-.016-5.578 2.954-10.739 7.785-13.528l407.035-235.003C1675.267 1074.393 1688.224 1081.85 1688.258 1093.816zM1687.485 821.298v.014c.016 5.578-2.954 10.739-7.785 13.528l-407.035 235.003c-10.363 5.983-23.32-1.474-23.354-13.439v-.014c-.016-5.578 2.954-10.739 7.785-13.528l407.035-235.003C1674.494 801.876 1687.451 809.333 1687.485 821.298zM1102.302 1248.39l60.879-35.149.198 69.969-60.879 35.149L1102.302 1248.39zM1156.615 1279.355l-.154-54.473-47.406 27.37.155 54.473L1156.615 1279.355 1156.615 1279.355zM1102.688 1384.648l60.879-35.149.198 69.955-60.879 35.149L1102.688 1384.648zM1157.001 1415.614l-.155-54.473-47.406 27.37.154 54.473L1157.001 1415.614 1157.001 1415.614zM1103.075 1520.907l60.879-35.149.198 69.955-60.879 35.149L1103.075 1520.907zM1157.388 1551.872l-.154-54.487-47.406 27.37.155 54.487L1157.388 1551.872 1157.388 1551.872zM1688.645 1230.074L1688.645 1230.074c.016 5.578-2.954 10.739-7.785 13.528l-407.035 235.003c-10.363 5.983-23.32-1.474-23.354-13.439v0c-.016-5.578 2.954-10.739 7.785-13.528l407.035-235.003C1675.653 1210.652 1688.611 1218.108 1688.645 1230.074z" class="colorccc svgShape"/><g fill="none"><path fill="#ff9759" d="M1184.43,1170.466c-1.5,1.991-2.975,4.025-4.45,6.088c-1.5,2.077-2.95,4.183-4.399,6.318           c-2.899,4.298-5.723,8.697-8.496,13.182c-1.374,2.235-2.773,4.514-4.097,6.778c-1.349,2.278-2.698,4.585-4.021,6.907           c-1.324,2.322-2.622,4.657-3.895,6.979c-1.298,2.336-2.547,4.7-3.795,7.065c-2.496,4.729-4.892,9.515-7.212,14.315           c-2.345,4.844-4.54,9.687-6.66,14.544c-0.524,1.168-0.997,2.306-1.496,3.488c-0.957-1.207-1.964-2.298-3.021-3.331           c-1.158-1.177-2.391-2.225-3.724-3.128c-1.283-0.961-2.615-1.835-4.023-2.58c-0.679-0.416-1.408-0.745-2.136-1.045           c-0.729-0.329-1.458-0.658-2.211-0.915c-2.99-1.187-6.254-1.811-9.644-2.219c-1.707-0.139-3.489-0.149-5.296-0.115           c-1.807,0.034-3.714,0.298-5.62,0.563c-1.932,0.308-3.938,0.745-5.969,1.312c-2.056,0.582-4.162,1.307-6.343,2.192           c-2.131,0.855-4.386,1.956-6.667,3.157c-0.69,0.363-1.389,0.75-2.095,1.158c-1.603,0.926-3.243,1.957-4.896,3.051           c-2.405,1.619-4.859,3.469-7.338,5.505c-1.227,0.997-2.504,2.166-3.73,3.25c-1.252,1.126-2.528,2.382-3.779,3.624           l3.283-1.665c1.053-0.435,2.105-0.927,3.133-1.319c2.031-0.797,3.986-1.436,5.892-1.931           c1.881-0.509,3.712-0.817,5.493-1.066c1.756-0.264,3.463-0.326,5.119-0.36c1.681-0.048,3.263,0.106,4.844,0.231           c1.606,0.111,3.088,0.438,4.62,0.707l2.21,0.512c0.703,0.229,1.432,0.471,2.16,0.656c1.407,0.457,2.813,0.942,4.145,1.557           c1.357,0.572,2.689,1.187,3.971,1.889c0.679,0.3,1.282,0.73,1.911,1.089c0.653,0.315,1.282,0.702,1.885,1.132           c1.257,0.745,2.439,1.62,3.596,2.538c1.182,0.875,2.314,1.807,3.421,2.812c1.082,1.048,2.139,2.11,3.171,3.187           c1.057,1.091,2.039,2.254,2.946,3.519c0.932,1.25,1.864,2.5,2.671,3.879c0.882,1.308,1.564,2.846,2.296,4.327l0.151,0.288           c0.71,1.447,2.211,1.502,4.055,0.437c1.106-0.638,2.335-1.679,3.592-3.064c0.85-0.952,1.701-2.02,2.526-3.246           c2.299-3.346,4.021-7.08,4.865-10.22c0.472-1.743,0.969-3.501,1.541-5.36c0.572-1.859,1.194-3.746,1.841-5.677           c0.622-1.916,1.319-3.905,2.016-5.893c0.722-2.003,1.494-4.035,2.242-6.053c0.772-2.061,1.569-4.136,2.392-6.226           l2.542-6.312c1.72-4.223,3.54-8.504,5.385-12.828c1.895-4.324,3.79-8.706,5.785-13.088           c1.97-4.396,4.016-8.807,6.086-13.261l3.193-6.746l3.269-6.79l3.344-6.833L1184.43,1170.466z" class="colorff5959 svgShape"/></g><g fill="none"><path fill="#ff9759" d="M1184.43,1031.787c-1.5,1.991-2.975,4.025-4.45,6.088c-1.5,2.077-2.95,4.183-4.399,6.318           c-2.899,4.298-5.723,8.697-8.496,13.182c-1.374,2.235-2.773,4.514-4.097,6.777c-1.349,2.278-2.698,4.586-4.021,6.907           c-1.324,2.321-2.622,4.657-3.895,6.979c-1.298,2.336-2.547,4.7-3.795,7.065c-2.496,4.729-4.892,9.515-7.212,14.315           c-2.345,4.844-4.54,9.687-6.66,14.544c-0.524,1.168-0.997,2.306-1.496,3.488c-0.957-1.207-1.964-2.298-3.021-3.331           c-1.158-1.177-2.391-2.225-3.724-3.128c-1.283-0.961-2.615-1.835-4.023-2.58c-0.679-0.416-1.408-0.745-2.136-1.045           c-0.729-0.329-1.458-0.658-2.211-0.915c-2.99-1.187-6.254-1.811-9.644-2.219c-1.707-0.139-3.489-0.149-5.296-0.115           c-1.807,0.034-3.714,0.298-5.62,0.563c-1.932,0.308-3.938,0.745-5.969,1.312c-2.056,0.582-4.162,1.307-6.343,2.192           c-2.131,0.855-4.386,1.956-6.667,3.157c-0.69,0.363-1.389,0.75-2.095,1.158c-1.603,0.926-3.243,1.957-4.896,3.051           c-2.405,1.619-4.859,3.469-7.338,5.505c-1.227,0.997-2.504,2.167-3.73,3.25c-1.252,1.126-2.528,2.382-3.779,3.624           l3.283-1.665c1.053-0.435,2.105-0.927,3.133-1.319c2.031-0.797,3.986-1.436,5.892-1.931           c1.881-0.509,3.712-0.816,5.493-1.066c1.756-0.264,3.463-0.327,5.119-0.36c1.681-0.048,3.263,0.106,4.844,0.231           c1.606,0.111,3.088,0.438,4.62,0.707l2.21,0.512c0.703,0.228,1.432,0.471,2.16,0.656c1.407,0.457,2.813,0.942,4.145,1.558           c1.357,0.572,2.689,1.187,3.971,1.889c0.679,0.3,1.282,0.731,1.911,1.089c0.653,0.315,1.282,0.702,1.885,1.132           c1.257,0.745,2.439,1.62,3.596,2.538c1.182,0.875,2.314,1.807,3.421,2.812c1.082,1.048,2.139,2.11,3.171,3.187           c1.057,1.091,2.039,2.255,2.946,3.519c0.932,1.25,1.864,2.5,2.671,3.879c0.882,1.307,1.564,2.846,2.296,4.327l0.151,0.288           c0.71,1.447,2.211,1.502,4.055,0.437c1.106-0.638,2.335-1.679,3.592-3.064c0.85-0.952,1.701-2.02,2.526-3.246           c2.299-3.346,4.021-7.08,4.865-10.22c0.472-1.743,0.969-3.501,1.541-5.359c0.572-1.859,1.194-3.746,1.841-5.677           c0.622-1.916,1.319-3.905,2.016-5.894c0.722-2.003,1.494-4.035,2.242-6.052c0.772-2.061,1.569-4.136,2.392-6.226           l2.542-6.312c1.72-4.223,3.54-8.504,5.385-12.828c1.895-4.324,3.79-8.706,5.785-13.088           c1.97-4.396,4.016-8.807,6.086-13.261l3.193-6.746l3.269-6.79l3.344-6.833L1184.43,1031.787z" class="colorff5959 svgShape"/></g><g fill="none"><path fill="#ff9759" d="M1184.43,1304.515c-1.5,1.991-2.975,4.025-4.45,6.088c-1.5,2.077-2.95,4.183-4.399,6.318           c-2.899,4.298-5.723,8.697-8.496,13.182c-1.374,2.235-2.773,4.514-4.097,6.778c-1.349,2.278-2.698,4.585-4.021,6.907           c-1.324,2.321-2.622,4.657-3.895,6.979c-1.298,2.336-2.547,4.7-3.795,7.065c-2.496,4.729-4.892,9.515-7.212,14.315           c-2.345,4.844-4.54,9.687-6.66,14.544c-0.524,1.167-0.997,2.306-1.496,3.488c-0.957-1.207-1.964-2.298-3.021-3.331           c-1.158-1.177-2.391-2.225-3.724-3.128c-1.283-0.961-2.615-1.835-4.023-2.58c-0.679-0.416-1.408-0.745-2.136-1.045           c-0.729-0.329-1.458-0.658-2.211-0.915c-2.99-1.187-6.254-1.811-9.644-2.219c-1.707-0.139-3.489-0.149-5.296-0.115           c-1.807,0.034-3.714,0.298-5.62,0.563c-1.932,0.308-3.938,0.745-5.969,1.312c-2.056,0.582-4.162,1.307-6.343,2.192           c-2.131,0.855-4.386,1.956-6.667,3.157c-0.69,0.363-1.389,0.75-2.095,1.158c-1.603,0.926-3.243,1.957-4.896,3.051           c-2.405,1.619-4.859,3.469-7.338,5.505c-1.227,0.997-2.504,2.167-3.73,3.25c-1.252,1.126-2.528,2.382-3.779,3.624           l3.283-1.665c1.053-0.435,2.105-0.927,3.133-1.319c2.031-0.797,3.986-1.436,5.892-1.931           c1.881-0.509,3.712-0.816,5.493-1.066c1.756-0.264,3.463-0.326,5.119-0.36c1.681-0.048,3.263,0.106,4.844,0.231           c1.606,0.111,3.088,0.438,4.62,0.707l2.21,0.512c0.703,0.228,1.432,0.471,2.16,0.656c1.407,0.457,2.813,0.942,4.145,1.558           c1.357,0.572,2.689,1.187,3.971,1.889c0.679,0.3,1.282,0.731,1.911,1.089c0.653,0.315,1.282,0.702,1.885,1.132           c1.257,0.745,2.439,1.62,3.596,2.538c1.182,0.875,2.314,1.807,3.421,2.812c1.082,1.048,2.139,2.11,3.171,3.187           c1.057,1.091,2.039,2.254,2.946,3.519c0.932,1.25,1.864,2.5,2.671,3.879c0.882,1.307,1.564,2.846,2.296,4.327l0.151,0.288           c0.71,1.447,2.211,1.502,4.055,0.437c1.106-0.638,2.335-1.679,3.592-3.064c0.85-0.953,1.701-2.02,2.526-3.246           c2.299-3.346,4.021-7.08,4.865-10.22c0.472-1.743,0.969-3.501,1.541-5.359c0.572-1.859,1.194-3.746,1.841-5.677           c0.622-1.916,1.319-3.905,2.016-5.894c0.722-2.003,1.494-4.035,2.242-6.052c0.772-2.061,1.569-4.136,2.392-6.226           l2.542-6.312c1.72-4.223,3.54-8.504,5.385-12.828c1.895-4.324,3.79-8.706,5.785-13.088           c1.97-4.396,4.016-8.807,6.086-13.261l3.193-6.746l3.269-6.79l3.344-6.833L1184.43,1304.515z" class="colorff5959 svgShape"/></g><g fill="none"><path fill="#ff9759" d="M1184.43,1442.013c-1.5,1.991-2.975,4.025-4.45,6.088c-1.5,2.077-2.95,4.183-4.399,6.318           c-2.899,4.298-5.723,8.697-8.496,13.182c-1.374,2.235-2.773,4.514-4.097,6.778c-1.349,2.278-2.698,4.585-4.021,6.907           c-1.324,2.322-2.622,4.657-3.895,6.979c-1.298,2.336-2.547,4.7-3.795,7.065c-2.496,4.729-4.892,9.515-7.212,14.315           c-2.345,4.844-4.54,9.687-6.66,14.544c-0.524,1.168-0.997,2.306-1.496,3.488c-0.957-1.207-1.964-2.298-3.021-3.331           c-1.158-1.177-2.391-2.225-3.724-3.128c-1.283-0.961-2.615-1.835-4.023-2.58c-0.679-0.416-1.408-0.745-2.136-1.045           c-0.729-0.329-1.458-0.658-2.211-0.915c-2.99-1.187-6.254-1.811-9.644-2.219c-1.707-0.139-3.489-0.148-5.296-0.115           c-1.807,0.034-3.714,0.298-5.62,0.563c-1.932,0.308-3.938,0.745-5.969,1.312c-2.056,0.582-4.162,1.307-6.343,2.192           c-2.131,0.855-4.386,1.956-6.667,3.157c-0.69,0.363-1.389,0.75-2.095,1.158c-1.603,0.926-3.243,1.957-4.896,3.051           c-2.405,1.619-4.859,3.469-7.338,5.505c-1.227,0.997-2.504,2.166-3.73,3.25c-1.252,1.126-2.528,2.383-3.779,3.624           l3.283-1.665c1.053-0.435,2.105-0.927,3.133-1.319c2.031-0.797,3.986-1.436,5.892-1.931           c1.881-0.509,3.712-0.817,5.493-1.066c1.756-0.264,3.463-0.326,5.119-0.36c1.681-0.048,3.263,0.106,4.844,0.231           c1.606,0.111,3.088,0.438,4.62,0.707l2.21,0.512c0.703,0.228,1.432,0.471,2.16,0.656c1.407,0.457,2.813,0.942,4.145,1.557           c1.357,0.572,2.689,1.187,3.971,1.889c0.679,0.3,1.282,0.73,1.911,1.089c0.653,0.315,1.282,0.702,1.885,1.132           c1.257,0.745,2.439,1.62,3.596,2.538c1.182,0.875,2.314,1.807,3.421,2.812c1.082,1.048,2.139,2.11,3.171,3.187           c1.057,1.091,2.039,2.254,2.946,3.519c0.932,1.25,1.864,2.5,2.671,3.879c0.882,1.308,1.564,2.846,2.296,4.327l0.151,0.287           c0.71,1.447,2.211,1.502,4.055,0.437c1.106-0.639,2.335-1.679,3.592-3.064c0.85-0.952,1.701-2.02,2.526-3.246           c2.299-3.346,4.021-7.08,4.865-10.22c0.472-1.743,0.969-3.501,1.541-5.36c0.572-1.859,1.194-3.746,1.841-5.677           c0.622-1.916,1.319-3.905,2.016-5.894c0.722-2.003,1.494-4.035,2.242-6.053c0.772-2.061,1.569-4.136,2.392-6.226           l2.542-6.312c1.72-4.223,3.54-8.503,5.385-12.827c1.895-4.324,3.79-8.706,5.785-13.088           c1.97-4.396,4.016-8.807,6.086-13.261l3.193-6.746l3.269-6.79l3.344-6.833L1184.43,1442.013z" class="colorff5959 svgShape"/></g></g></g><g fill="none"><g opacity=".07" fill="none"><ellipse cx="1969.333" cy="1830.281" rx="110.628" ry="73.591" transform="rotate(-5.089 1968.71 1829.745)" fill="none"/><ellipse cx="2125.817" cy="1712.115" rx="91.199" ry="152.559" transform="rotate(-89.83 2125.765 1712.112)" fill="none"/><polygon points="2427.495 1604.94 2041.973 1836.629 1943.715 1778.081 2329.237 1546.393" fill="none"/></g><path fill="#545454" d="M2077.539,1738.424c-2.948-1.873-6.754-4.587-9.496-6.768            c-2.175-1.729-4.952-4.213-6.867-6.243c-2.612-2.77-5.995-6.58-8.271-9.65c-2.25-3.034-4.956-7.317-6.778-10.642            c-1.625-2.967-3.566-7.066-4.758-10.245c-1.462-3.901-3.051-9.248-4.065-13.298c-0.803-3.208-1.415-7.6-1.774-10.893            c-0.32-2.935-0.455-6.878-0.488-9.831c-0.036,13.136,8.173,26.309,24.7,36.505c33.606,20.733,88.876,21.31,123.45,1.287            c17.571-10.176,26.415-23.714,26.452-37.29c-0.089,2.167-0.043,5.069-0.297,7.221c-0.499,4.237-1.139,9.922-2.208,14.045            c-0.817,3.147-1.94,7.349-3.114,10.374c-1.312,3.381-3.109,8.011-5.975,13.046c-5.416,9.514-10.342,15.087-14.86,19.693            c-4.967,5.063-11.402,10.01-18.121,13.93c-2.711,1.582-6.458,3.457-9.337,4.684c-5.615,2.393-9.989,3.56-10.033,3.572            c-4.457,1.178-6.912,1.827-12.446,2.574c-5.734,0.774-11.547,0.702-11.792,0.698c-11.75-0.167-19.528-2.428-24.175-3.779            C2092.314,1745.969,2084.014,1742.54,2077.539,1738.424z" class="color545454 svgShape"/><path fill="#f35b00" d="M2035.041,1660.855l1.816-497.812c-0.036,13.136,8.173,26.309,24.7,36.505            c33.606,20.733,88.876,21.31,123.449,1.287c17.571-10.176,26.415-23.714,26.452-37.29l-1.816,497.812            c-0.037,13.576-8.881,27.114-26.452,37.289c-34.573,20.022-89.844,19.446-123.45-1.287            C2043.214,1687.163,2035.005,1673.991,2035.041,1660.855z" class="colorf3bf00 svgShape"/><path d="M2073.161,1205.544c-4.081-1.768-7.975-3.757-11.604-5.996            c-16.526-10.196-24.736-23.368-24.7-36.505l-1.816,497.812c-0.036,13.137,8.173,26.309,24.7,36.505            c4.167,2.571,8.668,4.83,13.42,6.78V1205.544z" opacity=".149" fill="none"/><path fill="#ffffff" d="M2188.556,1198.64c-1.144,0.746-2.317,1.482-3.55,2.195            c-16.393,9.494-37.441,14.298-58.625,14.577v497.779c20.567-0.526,40.884-5.322,56.809-14.544            c1.905-1.103,3.67-2.258,5.365-3.437V1198.64z" opacity=".651" class="colorfff svgShape"/><ellipse cx="2124.157" cy="1163.294" fill="#ffbf66" rx="52.188" ry="87.301" transform="rotate(-89.83 2124.113 1163.299)" class="colorffe173 svgShape"/><path fill="#454545" d="M2061.891,1032.606l-0.523,124.864c-0.026,9.272,5.769,18.569,17.434,25.766           c23.72,14.634,62.731,15.041,87.134,0.909c12.402-7.182,18.644-16.737,18.671-26.32l0.524-125.219H2061.891z" class="color454545 svgShape"/><path fill="#ffffff" d="M2168.893,1079.21h-33.705v114.541c11.213-1.326,21.937-4.504,30.748-9.607           c1.03-0.596,2.013-1.211,2.957-1.839V1079.21z" opacity=".651" class="colorfff svgShape"/><path d="M2210.234,1154.787c-2.733-9.75-10.117-19.134-22.17-26.899          c-10.97,8.228-28.181,20.991-38.849,28.169c-0.085,0.007-0.168,0.001-0.253,0.01c-24.517,2.633-90.694,6.11-111.687,12.056          c1.823,11.405,9.887,22.544,24.281,31.424c9.223,5.69,20.084,9.852,31.696,12.497c24.705-4.624,58.689-11.572,75.62-17.646          c0.585-0.21,1.086-0.518,1.543-0.875C2180.351,1188.762,2198.869,1168.151,2210.234,1154.787z" opacity=".149" fill="none"/><g fill="none"><path fill="#ad5f30" d="M2193.249,1032.107c105.263-62.722,190.347-214.778,190.005-339.612            c-0.171-62.029-21.389-105.665-55.605-126.187l-86.768-52.04c34.216,20.521,55.435,64.157,55.605,126.186            c0.343,124.834-84.741,276.89-190.005,339.612c-52.978,31.567-100.985,34.499-135.649,13.708l86.768,52.041            C2092.264,1066.605,2140.271,1063.675,2193.249,1032.107z" class="colorad5230 svgShape"/><path fill="#ffffff" d="M2280.876 903.039l19.14 26.539c.118-.166.234-.335.353-.501 1.735-2.442 3.446-4.908 5.139-7.39.328-.481.658-.959.985-1.442 1.741-2.573 3.457-5.167 5.151-7.78.344-.53.684-1.063 1.025-1.594 1.736-2.702 3.456-5.418 5.141-8.159.005-.008.01-.016.015-.024 1.69-2.75 3.345-5.526 4.981-8.313.188-.32.376-.639.562-.959l-17.409-32.982C2298.321 875.072 2289.922 889.333 2280.876 903.039zM2327.648 566.308l-86.768-52.04c11.469 6.878 21.469 16.367 29.714 28.262 50.522 10.639 83.826 59.487 84.04 137.259.126 45.836-11.265 95.342-30.944 142.749l23.483 24.612c22.818-50.964 36.217-104.966 36.08-154.655C2383.083 630.466 2361.865 586.83 2327.648 566.308z" opacity=".122" class="colorfff svgShape"/><path fill="#e68953" d="M2139.677,557.899c-105.264,62.722-190.348,214.779-190.005,339.649            c0.343,124.833,85.982,175.163,191.246,112.441c105.263-62.722,190.347-214.779,190.005-339.612            C2330.581,545.507,2244.941,495.177,2139.677,557.899L2139.677,557.899z" opacity=".4" class="color53d5e6 svgShape"/><path fill="#ffb58a" d="M2182.537,1095.582c66.337-39.529,128.849-107.734,176.021-192.057            c47.161-84.304,73.012-174.037,72.796-252.667c-0.2-73.878-23.467-128.314-65.508-153.283            c-42.382-25.172-100.316-18.422-163.125,19.001c-66.337,39.529-128.851,107.737-176.021,192.057            c-47.163,84.308-73.015,174.041-72.798,252.671c0.2,73.878,23.467,128.314,65.508,153.283            C2061.793,1139.755,2119.726,1133.009,2182.537,1095.582z M2002.002,919.665            c-0.342-124.87,84.741-276.927,190.005-339.649c105.262-62.722,190.903-12.392,191.246,112.479            c0.343,124.833-84.741,276.89-190.005,339.612C2087.985,1094.829,2002.345,1044.499,2002.002,919.665z" class="colorffa07d svgShape"/><defs fill="none"><path id="e" d="M2163.388,567.31c-105.264,62.722-190.347,214.779-190.004,339.649              c0.343,124.833,85.982,175.164,191.246,112.441c105.263-62.722,190.347-214.779,190.005-339.612              C2354.292,554.919,2268.651,504.589,2163.388,567.31L2163.388,567.31z"/></defs><clipPath id="f" fill="none"><use overflow="visible" xlink:href="#e"/></clipPath><g clip-path="url(#f)" opacity=".3" fill="none"><polygon fill="#ffffff" points="2162.129 362.889 2012.54 535.684 2500.734 985.943 2650.323 813.147" class="colorfff svgShape"/><polygon fill="#ffffff" points="1978.641 558.419 1947.516 594.373 2435.747 1044.585 2466.871 1008.632" class="colorfff svgShape"/></g><path fill="#ad5f30" d="M2302.82,459.605c-44.573-26.733-106.301-22.964-174.43,17.632            C1993,557.91,1883.608,753.458,1884.049,914.019c0.219,79.763,27.504,135.884,71.507,162.276l70.92,42.577            c-44.004-26.392-71.288-82.512-71.508-162.276c-0.44-160.56,108.952-356.108,244.341-436.782            c68.13-40.595,129.858-44.364,174.43-17.632L2302.82,459.605z" class="colorad5230 svgShape"/><path fill="#ffb58a" d="M2182.537,1095.582c66.337-39.529,128.849-107.734,176.021-192.057            c47.161-84.304,73.012-174.037,72.796-252.667c-0.2-73.878-23.467-128.314-65.508-153.283            c-42.382-25.172-100.316-18.422-163.125,19.001c-66.337,39.529-128.851,107.737-176.021,192.057            c-47.163,84.308-73.015,174.041-72.798,252.671c0.2,73.878,23.467,128.314,65.508,153.283            C2061.793,1139.755,2119.726,1133.009,2182.537,1095.582z M2002.002,919.665            c-0.342-124.87,84.741-276.927,190.005-339.649c105.262-62.722,190.903-12.392,191.246,112.479            c0.343,124.833-84.741,276.89-190.005,339.612C2087.985,1094.829,2002.345,1044.499,2002.002,919.665z" class="colorffa07d svgShape"/><g fill="none"><defs fill="none"><path id="g" d="M2182.537,1095.582c66.337-39.529,128.849-107.734,176.021-192.057             c47.161-84.304,73.012-174.037,72.796-252.667c-0.2-73.878-23.467-128.314-65.508-153.283             c-42.382-25.172-100.316-18.422-163.125,19.001c-66.337,39.529-128.851,107.737-176.021,192.057             c-47.163,84.308-73.015,174.041-72.798,252.671c0.2,73.878,23.467,128.314,65.508,153.283             C2061.793,1139.755,2119.726,1133.009,2182.537,1095.582z M2002.002,919.665             c-0.342-124.87,84.741-276.927,190.005-339.649c105.262-62.722,190.903-12.392,191.246,112.479             c0.343,124.833-84.741,276.89-190.005,339.612C2087.985,1094.829,2002.345,1044.499,2002.002,919.665z"/></defs><clipPath id="h" fill="none"><use overflow="visible" xlink:href="#g"/></clipPath><polygon fill="#ffffff" points="2140.19 362.882 1995.152 539.761 2494.886 976.325 2639.924 799.446" clip-path="url(#h)" opacity=".62" class="colorfff svgShape"/><polygon fill="#ffffff" points="2027.394 620.213 1999.585 652.336 2372.96 996.634 2400.768 964.512" clip-path="url(#h)" opacity=".529" class="colorfff svgShape"/></g></g><path d="M2033.246,1156.235c20.895-6.193,86.731-5.747,110.43-11.664         c15.998-11.139,25.171-18.053,38.351-24.287l24.954,23.962c-15.66,14.981-32.279,35.26-40.411,39.225         c-0.423,0.342-0.884,0.641-1.424,0.842c-28.3,10.532-104.604,24.099-104.604,24.099         c-17.382,4.577-43.798-4.356-43.147-22.858C2017.89,1171.525,2021.186,1159.81,2033.246,1156.235z" opacity=".2" fill="none"/><g fill="none"><path fill="#f7ccb3" d="M2221.665,1177.869l-8.625-2.22c0,0-8.642-17.313-1.714-25.307          c5.757-6.643,21.163,14.715,17.015,25.058L2221.665,1177.869z" class="colorf7cdb3 svgShape"/><path fill="#f7ccb3" d="M2226,1182.032c-4.355,5.598-13.503-1.744-12.417-6.973c2.674-4.574,5.694-7.293,8.844-7.257          c2.3,0.026,5.779,2.263,6.101,5.673C2228.778,1176.133,2226,1182.032,2226,1182.032z" class="colorf7cdb3 svgShape"/><path d="M2054.509,1372.167c1.078-50.014,23.678-154.26,9.016-165.256c-5.528-4.146-13.688-6.391-23.125-7.128          l0.117,469.778l1.321,1.461l21.759,45.131c6.584-31.425,12.614-76.57,4.431-114.733c-1.402-6.539-1.323-17.91-3.101-44.546          c-1.675-25.089-0.455-54.898,0.305-57.591c2.629-9.32,6.082-21.666,6.94-35.798c1.278-1.611,2.168-3.624,2.426-6.697          C2078.227,1434.452,2053.662,1411.469,2054.509,1372.167z" opacity=".251" fill="none"/><g fill="none"><path fill="#ffd3b9" d="M1923.597,1135.319c0.194,4.418,3.704,9.941,5.521,16.113             c3.654,12.411,6.017,23.963,12.836,34.509c7.912,12.238,14.81,21.866,27.891,8.587             c12.18-12.364,20.466-18.659,11.304-39.855c-4.786-11.071,37.322-14.647,34.712-32.293             c-4.632-31.316-33.466-46.166-55.985-39.177C1933.769,1091.304,1922.243,1104.518,1923.597,1135.319z" class="colorffd4b9 svgShape"/><path fill="#633d26" d="M1945.019,1244.149l18.636-3.825l-14.114-95.946l-13.381,3.247             C1949.603,1181.155,1948.056,1211.421,1945.019,1244.149z" class="color634126 svgShape"/><path fill="#707070" d="M2168.332,1207.689c7.814,5.28,17.975,19.407,11.782,26.52              c-7.697,8.842-109.734,18.049-124.652,12.5c-16.89-6.282-21.16-35.688-15.062-41.759              C2048.611,1196.775,2159.188,1201.509,2168.332,1207.689z" class="color707070 svgShape"/><path fill="#ffffff" d="M2225.753,1183.245c0,0-23.896,36.943-39.05,37.889              c-5.047,0.315-6.061-14.788-5.506-19.845c0.777-7.085,30.932-30.932,30.932-30.932              C2219.586,1168.24,2226.927,1175.386,2225.753,1183.245z" class="colorfff svgShape"/><path fill="#707070" d="M2222.408,1189.819c0,0-28.962,44.776-47.329,45.922              c-6.117,0.381-13.637-17.325-12.965-23.454c0.942-8.587,43.781-38.089,43.781-38.089              C2214.933,1171.632,2223.831,1180.293,2222.408,1189.819z" class="color707070 svgShape"/><path fill="#f0c6ad" d="M2042.953,1776.937l-41.867,34.145c12.997-16.379,12.542-42.227,13.213-72.005             l31.401,2.708L2042.953,1776.937z" class="colorf0c7ad svgShape"/><path fill="#3d3d3d" d="M2012.26,1607.505c7.397,14.889,12.586,26.868-0.79,142.916             c1.92,10.714,27.277,10.582,34.673,4.562c0,0,28.63-87.308,14.424-153.563c-1.402-6.539-1.322-17.91-3.101-44.546             c-1.675-25.089-0.455-54.898,0.305-57.591c5.309-18.824,13.999-49.985-2.176-83.303l-58.3,15.638             C1997.295,1431.618,1993.78,1570.309,2012.26,1607.505z" class="color3d3d3d svgShape"/><path fill="#474747" d="M1912.662,1624.387c10.266,9.135,45.626-24.089,45.626-24.089             c28.982-99.239,83.086-76.102,80.392-165.499l-89.611,4.868C1931.246,1503.089,1882.864,1597.87,1912.662,1624.387z" class="color474747 svgShape"/><polygon fill="#f0c6ad" points="1920.722 1802.667 1948.732 1801.044 1950.326 1775.542 1919.822 1764.455" class="colorf0c7ad svgShape"/><path fill="#ff6103" d="M1888.839,1859.911c5.137,2.808,12.612,4.369,17.07,1.941              c18.485-10.064,27.575-30.733,41.967-52.387l-27.316-11.967c0,0-2.554,34.917-18.054,42.434              c-7.429,3.603-10.89-1.544-17.654,4.982C1880.401,1849.21,1885.046,1857.837,1888.839,1859.911z" class="colorff3d30 svgShape"/><path fill="#474747" d="M1905.302,1862.276c0,0,18.17-3.177,22.269-6.241              c9.371-7.003,18.726-36.605,18.726-36.605c-6.361-3.266-14.648-0.423-19.627,5.862              C1915.176,1839.803,1913.352,1854.28,1905.302,1862.276z" class="color474747 svgShape"/><path fill="#ff6103" d="M1925.038,1825.429c9.31-7.686,13.735-7.237,21.715-6.234              c5.094-10.374,8.885-23.057,0.079-30.511c-6.426-5.44-17.535-2.947-24.927,6.274              C1915.279,1803.225,1918.873,1815.119,1925.038,1825.429z" class="colorff3d30 svgShape"/><path fill="#ff6103" d="M1936.346,1867.728c1.875,3.188,7.142,2.434,8.716-0.108l1.907-49.574l-13.997-0.285              L1936.346,1867.728z" class="colorff3d30 svgShape"/><path fill="#474747" d="M1917.597,1771.763c3.323,10.688,31.638,15.416,35.531,2.028             c-7.922-69.489,10.307-159.133,4.777-174.287c0,0-49.766,4.603-53.525,9.855             C1905.414,1619.776,1917.597,1771.763,1917.597,1771.763z" class="color474747 svgShape"/><path fill="#565656" d="M2067.137,1456.788c-0.645,7.7-5.222,8.786-10.087,13.413             c-0.738-1.472-7.502-31.266-7.502-31.266s2.837,32.906,2.51,35.158c-27.626,17.746-90.821,8.582-111.701-7.003             c-4.302-3.211,10.344-34.854,13.368-73.139c2.068-26.185-25.564-90.614-26.465-104.356             c-1.28-19.503,13.901-51.299,16.809-58.001c10.458-24.098,87.331-43.18,111.995-24.682             c14.662,10.996-7.938,115.242-9.016,165.256C2046.201,1411.469,2070.767,1434.452,2067.137,1456.788z" class="color565656 svgShape"/><path fill="#ffffff" d="M2039.096,1198.705c-25.502,27.686-48.532,28.626-94.498,21.719l25.5-11.438             c24.576,0.771,38.977-8.383,60.394-22.778L2039.096,1198.705z" class="colorfff svgShape"/><path fill="#707070" d="M1980.135,1376.084c3.375,8.623,24.663,6.974,29.663-0.82             c6.157-9.596-26.927-132.986-38.224-144.593c-10.519-10.807-30.466-0.89-32.14,17.531             C1937.97,1264.311,1975.505,1364.254,1980.135,1376.084z" class="color707070 svgShape"/><path fill="#633d26" d="M1978.778,1304.118c5.612,13.353,42.018,15.269,67.383,6.302             c16.41-5.802,20.765-17.222,25.847-24.907c8.471-21.829-0.275-38.091-33.647-86.713             c-24.993-36.414-11.193-95.671-31.686-114.733c-19.672-18.299-60.311-10.479-76.072,10.908             c-22.786,30.922,24.839,87.168,47.728,131.031C1997.322,1262.398,1969.885,1282.959,1978.778,1304.118z" class="color634126 svgShape"/><g fill="none"><path fill="#ff6103" d="M1982.992,1837.969c5.137,2.808,12.612,4.369,17.07,1.941              c18.485-10.064,27.575-30.733,41.968-52.387l-27.316-11.967c0,0-2.554,34.917-18.054,42.434              c-7.429,3.603-10.89-1.544-17.654,4.982C1974.554,1827.269,1979.198,1835.895,1982.992,1837.969z" class="colorff3d30 svgShape"/><path fill="#474747" d="M1999.455,1840.334c0,0,18.169-3.178,22.269-6.241              c9.371-7.003,18.726-36.605,18.726-36.605c-6.361-3.267-14.648-0.423-19.627,5.862              C2009.329,1817.861,2007.505,1832.339,1999.455,1840.334z" class="color474747 svgShape"/><path fill="#ff6103" d="M2019.19,1803.488c9.31-7.686,13.735-7.237,21.716-6.234              c5.094-10.374,8.885-23.057,0.079-30.512c-6.426-5.44-17.535-2.947-24.927,6.274              C2009.431,1781.284,2013.025,1793.178,2019.19,1803.488z" class="colorff3d30 svgShape"/><path fill="#ff6103" d="M2030.498,1845.786c1.875,3.188,7.142,2.434,8.716-0.108l1.907-49.574l-13.997-0.285              L2030.498,1845.786z" class="colorff3d30 svgShape"/><path fill="#f0c6ad" d="M1990.856,1823.139c0.769,1.358,6.626-3.928,10.977-9.023              c3.278-3.839,5.5-7.52,5.18-8.444c-1.6,0.663-3.522,1.806-4.719,3.775c-1.47,2.418-3.439,5.014-5.565,6.998              C1992.895,1820.022,1989.695,1821.089,1990.856,1823.139z" class="colorf0c7ad svgShape"/></g><g fill="none"><path fill="#636363" d="M1962.655,1499.299c-10.331-0.13-23.668-6.592-28.166-15.23l4.607-8.71l28.076,16.284            L1962.655,1499.299z" class="color636363 svgShape"/><path fill="#f0c6ad" d="M1965.488,1490.651c0.479-1.219,2.217-5.844,2.619-7.236             c1.03-3.56-0.663-8.611,0.605-12.79c1.211-3.992,8.786-21.593,8.786-21.593l-20.375-8.506c0,0-3.404,14.404-8.296,19.409             c-4.463,4.566-7.412,10.198-9.26,15.461C1937.552,1481.137,1958.273,1496.406,1965.488,1490.651z" class="colorf0c7ad svgShape"/><path fill="#ffffff" d="M1959.969,1429.512l-6.649,21.074c-0.412,7.805,11.315,13.034,19.794,11.76            c0,0,5.48-10.7,12.256-25.103C1983.963,1434.703,1959.969,1429.512,1959.969,1429.512z" class="colorfff svgShape"/><path fill="#707070" d="M1980,1452.028c0,0,36.291-73.739,30.564-88.464c-2.359-6.066-31.644,1.23-31.644,1.23            l-23.054,74.47C1955.451,1447.139,1971.445,1453.313,1980,1452.028z" class="color707070 svgShape"/></g></g></g></g><g fill="none"><g opacity=".07" fill="none"><path d="M1291.25,1925.732c3.038-1.227,5.326-3.808,5.807-7.012l7.906-88.638c0.381-2.544,1.977-4.807,4.366-6.19         l397.118-223.244c4.624-2.676,5.975-8.24,3.019-12.426c-2.956-4.186-9.104-5.41-13.727-2.732l-394.889,234.79         c-2.389,1.383-3.985,3.646-4.366,6.19l-19.076,89.511c-0.696,4.648,2.469,9.227,7.516,10.288         C1287.154,1926.738,1289.349,1926.5,1291.25,1925.732z" fill="none"/><path d="M1619.13,1795.246c-3.038,1.227-6.688,1.045-9.643-0.77l-78.163-53.868c-2.346-1.442-5.273-1.878-8.005-1.192         l-448.77,118.475c-5.288,1.328-10.766-1.477-12.233-6.265c-1.467-4.787,1.631-9.747,6.92-11.073l456.776-109.263         c2.732-0.686,5.66-0.25,8.005,1.192l86.34,46.925c4.286,2.635,5.938,7.825,3.44,11.934         C1622.693,1793.158,1621.032,1794.478,1619.13,1795.246z" fill="none"/><path d="M1064.266,1838.172c14.604-14.701,28.833-29.517,42.862-44.67c26.936-31.486,65.764-53.016,104.279-69.69          c30.36-13.144,65.338-20.266,99.443-20.26c1.073,0.089,2.247,0.119,3.503,0.1c0.028,0,0.056,0,0.083-0.001          c19.669-0.645,39.075-8.572,57.348-15.138l0.001,0c17.603-7.926,36.591-15.702,50.746-28.529          c0.019-0.018,0.038-0.036,0.056-0.055c0.851-0.833,1.614-1.645,2.257-2.427c21.121-22.113,0.636-0.638,0.636-0.638          s52.403-41.252,82.434-52.833c38.343-14.786,83.545-27.243,126.944-23.718c21.829,0.668,43.513,0.976,65.354,0.953          c4.977,9.516,7.275,13.889,11.793,22.476c0,0-14.143,6.585-7.749,19.857c11.61,24.101,13.757,54.93,0.585,79.177          c-12.39,22.807-36.63,40.847-62.523,50.588l-0.003,0.001c-43.436,14.724-88.122,19.898-133.445,12.935          c-28.473-4.374-58.896-9.281-83.454-23.71c-0.122-0.072-0.246-0.151-0.37-0.226c-0.034-0.021-0.051-0.031-0.085-0.051          c-9.233-5.493-19.577-7.165-28.424-3.591c-8.847,3.574-14.38,11.66-16.03,21.549c-0.006,0.037-0.009,0.055-0.015,0.092          c-0.021,0.133-0.039,0.269-0.061,0.4c-4.544,26.188-20.878,49.72-36.237,72.062c-24.253,35.28-59,62.01-99.756,81.273          l-0.003,0.001c-25.232,9.913-56.566,16.432-83.349,8.341c-27.778-8.392-53.041-28.677-64.713-53.271          c-6.28-13.231-21.503-8.04-21.503-8.04C1070.828,1852.349,1068.767,1847.881,1064.266,1838.172z M1426.874,1726.458          c22.092,19.621,57.179,24.124,87.242,28.343c32.161,4.514,66.95,2.138,98.302-5.811c14.42-3.656,27.748-9.038,39.899-15.172          c14.636-7.389,33.538-21.448,39.671-35.097c10.29-22.902,12.266-48.674-2.538-72.737          c-9.391-15.265-30.718-31.015-49.936-33.698c-23.175-3.236-48.538,1.172-71.307,6.27          c-18.534,4.15-38.027,10.344-55.356,17.392c-34.112,13.874-68.924,35.121-90.147,63.924          C1412.012,1698.747,1414.395,1715.375,1426.874,1726.458z M1167.049,1911.092c15.319,4.997,39.511,1.662,55.365-3.263          c13.159-4.088,26.379-9.61,39.121-16.751c27.811-15.587,52.655-38.296,70.404-62.397          c16.511-22.42,36.429-49.834,34.942-77.74c-0.845-15.862-12.85-28.497-35.5-33.88          c-37.689-5.575-78.659,4.631-112.746,18.086c-17.522,6.916-35.479,15.962-51.273,25.674          c-19.399,11.929-39.961,26.062-52.791,43.826c-10.635,14.724-11.94,39.596-5.661,56.106          C1118.816,1886.809,1141.339,1902.707,1167.049,1911.092z" fill="none"/><path d="M1167.049 1911.092c-27.26-7.577-49.396-25.941-58.14-50.338-7.18-20.033-2.106-36.964 5.661-56.106 13.827-17.861 33.168-31.779 52.791-43.826 15.781-9.688 33.714-18.787 51.273-25.675 34.094-13.374 75.099-24.122 112.746-18.086 22.139 5.152 34.802 19.074 35.5 33.88 1.285 27.228-18.512 54.954-34.942 77.74-18.892 23.996-42.517 46.991-70.404 62.397-12.705 7.018-26.135 12.602-39.12 16.751C1206.217 1913.005 1183.93 1915.19 1167.049 1911.092zM1691.988 1698.721c12.415-22.275 11.332-51.696-2.538-72.737-11.908-18.065-28.921-26.084-49.936-33.698-23.923-2.628-48.276 1.078-71.307 6.27-18.537 4.179-37.964 10.373-55.356 17.392-34.3 13.842-68.646 35.261-90.147 63.924-10.54 18.375-7.875 35.551 4.171 46.586 21.615 19.801 58.597 24.083 87.242 28.343 32.44 4.669 66.991 1.948 98.302-5.812 14.349-3.556 27.814-9.196 39.899-15.172C1667.388 1726.365 1684.071 1712.823 1691.988 1698.721z" opacity=".2" fill="none"/></g><path fill="#2e2d2c" d="M1288.384,1925.769c2.951-1.317,5.173-4.086,5.64-7.523l7.678-95.101         c0.37-2.729,1.921-5.157,4.241-6.641l385.69-239.522c4.491-2.871,5.803-8.841,2.932-13.332         c-2.871-4.491-8.842-5.805-13.332-2.932l-383.526,251.91c-2.32,1.484-3.871,3.912-4.241,6.641l-18.527,96.038         c-0.676,4.987,2.398,9.899,7.3,11.038C1284.406,1926.848,1286.537,1926.593,1288.384,1925.769z" class="color2c2e2e svgShape"/><path fill="#2e2d2c" d="M1606.829,1785.768c-2.951,1.317-6.496,1.121-9.366-0.827l-75.914-57.796         c-2.278-1.547-5.121-2.015-7.775-1.279l-435.856,127.115c-5.136,1.425-10.456-1.585-11.881-6.721         c-1.425-5.136,1.584-10.458,6.721-11.881l443.631-117.23c2.654-0.736,5.497-0.268,7.775,1.279l83.856,50.347         c4.163,2.827,5.767,8.396,3.341,12.805C1610.289,1783.528,1608.676,1784.944,1606.829,1785.768z" class="color2c2e2e svgShape"/><path fill="#403c3a" d="M1067.932,1831.824c14.184-15.773,28.003-31.669,41.629-47.927          c26.161-33.781,63.871-56.881,101.278-74.772c29.486-14.103,63.458-21.744,96.581-21.738          c1.042,0.095,2.182,0.128,3.402,0.107c0.027,0,0.054,0,0.08-0.001c19.103-0.692,37.95-9.197,55.697-16.242l0.001,0          c17.096-8.504,35.538-16.847,49.286-30.609c0.018-0.02,0.036-0.039,0.055-0.059c0.827-0.894,1.567-1.765,2.192-2.604          c20.513-23.725,0.618-0.685,0.618-0.685s50.895-44.26,80.062-56.685c37.24-15.864,81.14-29.229,123.291-25.448          c21.201,0.716,42.261,1.047,63.474,1.023c4.833,10.21,7.066,14.902,11.454,24.115c0,0-13.736,7.065-7.526,21.305          c11.276,25.858,13.361,58.935,0.568,84.951c-12.033,24.469-35.575,43.825-60.724,54.277l-0.003,0.001          c-42.186,15.798-85.586,21.349-129.605,13.878c-27.653-4.693-57.201-9.958-81.052-25.439          c-0.119-0.077-0.239-0.162-0.359-0.242c-0.033-0.022-0.05-0.033-0.083-0.055c-8.967-5.893-19.014-7.687-27.606-3.853          c-8.593,3.835-13.967,12.51-15.569,23.12c-0.006,0.039-0.009,0.059-0.015,0.099c-0.021,0.142-0.037,0.289-0.059,0.429          c-4.413,28.098-20.277,53.345-35.194,77.317c-23.556,37.852-57.302,66.532-96.885,87.199l-0.003,0.001          c-24.506,10.636-54.938,17.63-80.951,8.949c-26.979-9.004-51.515-30.768-62.851-57.155          c-6.099-14.195-20.884-8.626-20.884-8.626C1074.305,1847.035,1072.304,1842.241,1067.932,1831.824z M1420.105,1711.965          c21.456,21.052,55.533,25.883,84.732,30.41c31.236,4.843,65.023,2.294,95.473-6.235c14.005-3.923,26.95-9.697,38.751-16.279          c14.215-7.928,32.573-23.011,38.529-37.656c9.993-24.572,11.913-52.223-2.465-78.041          c-9.12-16.378-29.834-33.276-48.499-36.155c-22.508-3.471-47.141,1.257-69.255,6.727c-18,4.452-36.933,11.098-53.763,18.661          c-33.13,14.886-66.941,37.682-87.553,68.586C1405.671,1682.233,1407.985,1700.073,1420.105,1711.965z M1167.757,1910.061          c14.878,5.361,38.374,1.783,53.772-3.501c12.781-4.386,25.62-10.31,37.995-17.973c27.01-16.724,51.14-41.088,68.379-66.947          c16.036-24.055,35.381-53.468,33.937-83.409c-0.821-17.019-12.48-30.575-34.479-36.35          c-36.605-5.981-76.396,4.969-109.502,19.405c-17.018,7.42-34.458,17.126-49.797,27.547          c-18.84,12.799-38.811,27.962-51.272,47.021c-10.329,15.798-11.596,42.483-5.499,60.197          C1120.912,1884.007,1142.787,1901.064,1167.757,1910.061z" class="color3a4040 svgShape"/><path fill="#7d411e" d="M1167.757 1910.061c-26.476-8.129-47.974-27.833-56.467-54.009-6.974-21.494-2.045-39.66 5.499-60.197 13.429-19.164 32.213-34.096 51.272-47.021 15.328-10.395 32.744-20.157 49.797-27.547 33.113-14.349 72.938-25.881 109.502-19.405 21.502 5.528 33.8 20.465 34.479 36.351 1.248 29.214-17.979 58.961-33.937 83.409-18.348 25.746-41.294 50.418-68.378 66.947-12.339 7.53-25.383 13.521-37.995 17.973C1205.797 1912.114 1184.152 1914.458 1167.757 1910.061zM1677.59 1682.205c12.058-23.899 11.006-55.465-2.465-78.041-11.565-19.382-28.088-27.986-48.499-36.155-23.235-2.82-46.887 1.157-69.255 6.727-18.004 4.483-36.872 11.13-53.763 18.66-33.313 14.852-66.671 37.832-87.553 68.586-10.236 19.715-7.648 38.144 4.051 49.983 20.993 21.245 56.911 25.84 84.732 30.41 31.507 5.009 65.063 2.09 95.473-6.235 13.936-3.815 27.014-9.867 38.751-16.279C1653.698 1711.864 1669.901 1697.335 1677.59 1682.205z" opacity=".2" class="color1e537d svgShape"/></g></g></switch></svg>