<svg xmlns="http://www.w3.org/2000/svg" enable-background="new 0 0 600 500" viewBox="18.95 51.057 562.1 397.826"><path fill="#ffffff" d="M401.2 194.9v13.4h-3.3v-15.6c1 .9 2.1 1.6 3.3 2.2zM420.3 192.8v15.6H417V195c1.2-.7 2.3-1.4 3.3-2.2z" class="colorfff svgShape"/><circle cx="409.1" cy="179.4" r="17.5" fill="#ffffff" transform="rotate(-80.781 409.134 179.353)" class="colorfff svgShape"/><path fill="#ffbf66" d="M422.9 179.3c0 7.5-6.1 13.6-13.6 13.6s-13.6-6.1-13.6-13.6 6.1-13.6 13.6-13.6 13.6 6.1 13.6 13.6z" class="color46c671 svgShape"/><path fill="#ffffff" d="m414.3 181.5-3.7-2.1 3.7-2.1c.4-.2.5-.7.3-1-.2-.4-.7-.5-1-.3l-3.6 2.1v-4.2c0-.4-.3-.7-.7-.7-.4 0-.7.3-.7.7v4.3l-3.7-2.1c-.4-.2-.8-.1-1 .3-.2.4-.1.8.3 1l3.6 2.1-3.7 2.1c-.4.2-.5.7-.3 1 .2.4.7.5 1 .3l3.7-2.1v4.2c0 .4.3.7.7.7.4 0 .7-.3.7-.7v-4.2l3.7 2.1c.4.2.8.1 1-.3.2-.4.1-.9-.3-1.1z" class="colorfff svgShape"/><path fill="#f5f5f5" d="M502.7 354.6v-15c-.4-5.3-1.8-10.2-6.1-14-24.7-21.5-54.5-38.7-87.1-50.4-15.1-5.4-31.8-9.7-47.9-6.9-18.1 3.2-32.3 14.8-43.5 27.2-11.2 12.3-20.7 26.1-34.4 36.4-27.7 20.9-71.8 24.3-103.5 8.1-9.8-5-18.3-11.6-28.5-16-10.1-4.4-22.9-6.4-32.8-1.7-5.9 2.8-10.1 7.6-14 12.2-10.6 12.3-21.2 24.7-31.8 37l429.6-.8v-16.1z" class="colorf5f5f5 svgShape"/><path fill="#f5f5f5" d="M167.4 311.4c0 7-2.2 10.1-4.9 10.1s-4.9-3.1-4.9-10.1 2.2-15.2 4.9-15.2c2.8 0 4.9 8.2 4.9 15.2z" class="colorf5f5f5 svgShape"/><path fill="#f5f5f5" d="M162.4 337.2c-.1 0-.2-.1-.2-.2v-25.1c0-.1.1-.2.2-.2s.2.1.2.2V337c0 .1-.1.2-.2.2zM173.2 317.2c0 4.7-1.7 6.8-3.9 6.8-2.1 0-3.9-2.1-3.9-6.8 0-4.7 1.7-10.2 3.9-10.2 2.1 0 3.9 5.5 3.9 10.2z" class="colorf5f5f5 svgShape"/><path fill="#f5f5f5" d="M169.3 339.1c-.2 0-.3-.1-.3-.3v-21.2c0-.2.1-.3.3-.3.2 0 .3.1.3.3v21.2c0 .1-.1.3-.3.3zM163 93.8c-2.2-3-4.3-6-6.5-8.9-2-2.7-4.5-5.7-7.8-5.4-2.2.2-4.1 1.8-5.4 3.6-1.4 1.8-2.5 3.8-4.2 5.3-1.7 1.4-4.3 2.2-6.2.9-2.3-1.5-2.2-4.8-3.1-7.3-1.4-4-6-6.6-10.2-5.7-3 .6-5.5 2.7-7.6 4.9-2.1 2.2-4 4.7-6.5 6.4-2.5 1.8-5.8 2.7-8.6 1.5-2.7-1.2-4.2-3.9-6.5-5.7-2.8-2.2-6.9-2.8-10.3-1.5-2.7 1.1-6.9 6.3-5.9 12H163zM304.2 423.8c0 3.9-58.1 7-129.8 7-71.7 0-129.9-3.1-129.9-7s58.1-7 129.9-7c71.6 0 129.8 3.1 129.8 7z" class="colorf5f5f5 svgShape"/><path fill="#ffffff" d="m118.3 407.5 2.4 11.3-10.9-.9-3-9.9c2.8-.7 8.9.9 11.5-.5z" class="colorfff svgShape"/><path fill="#ffffff" d="M117.9 414.2c0-.9.7-1.7 1.6-1.7.7 0 1.3.4 1.6 1.1l1.3 3.4 11.1 3.5c1.5.5 2.5 1.8 2.5 3.4 0 .2-.2.5-.4.5l-30.7.5c-.2 0-.5-.2-.5-.4l-.1-4.2s0-5.2 4.3-6.3c0 0 2.2 4.4 6.4 3.9 2.6-.4 2.9-3.7 2.9-3.7zM128.8 422l-24.4.4M132.1 420.1l1.1 4.3M68.6 408v10l10.5.9v-11.4z" class="colorfff svgShape"/><path fill="#ffffff" d="M78.1 414.2c0-.9.7-1.7 1.6-1.7.7 0 1.3.4 1.6 1.1l1.3 3.4 11.1 3.5c1.5.5 2.5 1.8 2.5 3.4 0 .2-.2.5-.4.5l-30.7.5c-.2 0-.5-.2-.5-.4l-.1-4.2s0-5.2 4.3-6.3c0 0 2.2 4.4 6.4 3.9 2.6-.4 2.9-3.7 2.9-3.7z" class="colorfff svgShape"/><path fill="#db9267" d="M119.9 408.4c.1.4-.3.8-.7.8h-10.6c-4.4 0-4.7-4.8-5-5.3l-17.4-81.4-5.9 85.2c0 .8-.7 1.5-1.6 1.5H69c-1.6 0-3-1.3-3-2.9l-4.1-114h23.3c6.6-7.3 12.8-6.2 20.4 0l14.3 116.1z" class="color67db8a svgShape"/><path fill="#a87226" d="M70.8 385.2c-.2 3.2-.3 6.4.3 9.5.9 4.4 3.4 8.2 5 12.4.3.7.5 1.4.7 2.1H69c-1.6 0-3-1.3-3-2.9l-4.1-114h11c2 3.9 2.1 8.6 1.6 13-.7 5.1-2.1 10.2-1.8 15.3.4 8.4 5.2 16.3 4.6 24.7-.4 5.3-2.9 10.1-4.2 15.2-1.1 4.4-1.4 8.9-1.6 13.4-.3 3.9-.5 7.6-.7 11.3zM119.9 408.4c.1.4-.3.8-.7.8H111c-.1-.8-.6-8.7-2.2-31.2-.5-7-1-13.9-2.3-20.8-1.1-5.6-2.9-11.1-3.3-16.9-.5-6.9.9-13.9.1-20.7-1-8.5-7.6-22-.7-29.5 1 .7 2 1.4 3 2.2l14.3 116.1z" class="color26a851 svgShape"/><path fill="#ffffff" d="M88.5 217.5c-4.7-2.3-10.2-2.8-16.5-1.2V298c6.5-2.5 18.7-7.7 36.5-4.3-9.1-18.5-21.9-46.6-17.7-59.7l-2.3-16.5z" class="colorfff svgShape"/><path fill="#ffffff" d="M75.9 297.9c-4.5 3.9-17.4 2.6-20.3-2.7-2.4-4.3-4.2-61.1 1.6-72.7 1.8-3.6 14.7-6.3 14.8-6.4 0 0 8.6 28.1 8.8 39.8.1 11.4 3.6 34.7-4.9 42z" class="colorfff svgShape"/><path fill="#f5f5f5" d="M69.7 271.7c1-2.6.6-6-1.9-7.4-2.7-1.5-6.5.2-8.8-1.9-1.5-1.4-1.4-4-.5-5.9.9-1.9 2.3-3.6 3-5.6.8-2.1.7-4.4-.1-6.5h-7.5c-1.1 20.7.2 47.8 1.8 50.7 1.8 3.3 7.7 5.1 12.8 4.9 1.2-1.6 1.7-3.7 1.1-5.6-1.1-3.3-5.2-4.9-6.4-8.2-1-2.6.2-5.5 1.8-7.8 1.6-2.1 3.7-4.1 4.7-6.7z" class="colorf5f5f5 svgShape"/><path fill="#ffffff" d="M75.4 198.4c0-6.2 2.6-11.5 8.6-13 6.1-1.5 10.5-6.5 10.7 4.5.1 2.9-1.7 10.7-1.9 15.5-.4 9-7.4 7.1-7.4 7.1l-.1 10.2-9.1-7.1-.8-17.2z" class="colorfff svgShape"/><path fill="#ffffff" d="M76.2 201.9c-1.5 0-2.7-1.5-2.7-3.4s1.2-3.4 2.7-3.4c1.5 0 2.7 1.5 2.7 3.4M80.6 210.9s2.4 1.2 4.7 1.6M110.8 264.2l-6.9-31.4c-.7-3.4-2.7-6.3-5.5-8.3l-9.9-7.1s-4.6 80.1 7.3 81c3.6.3 12.7-.4 12.7-4 .1-10.5-6.8-47.8-6.8-47.8s4.9 15.1 9.1 17.6z" class="colorfff svgShape"/><path fill="#ffffff" d="M146.7 236.4 135 284.8c-.3 1.1-1.3 2-2.5 2H98.3c-1.7 0-2.9-1.5-2.5-3.2 15.2-63.1 10.8-45 11.7-48.4.3-1.2 1.3-2 2.5-2h34.2c1.7 0 2.9 1.6 2.5 3.2z" class="colorfff svgShape"/><path fill="#f5f5f5" d="m146.8 236.3-11.7 48.4c-.3 1.1-1.3 2-2.5 2H98.4c-1.7 0-2.9-1.5-2.5-3.2l1.1-4.7c8.2-3.3 13.8-1.1 17.8-1.2 2.1-.1 4.3-.7 5.6-2.2 3.4-3.9 0-10.5 2.5-15 3-5.4 11.9-4.2 15.5-9.2 1.7-2.3 1.7-5.4 1.8-8.2.1-2.8.6-6 2.8-7.8.8-.7 1.8-1.1 2.8-1.3.9.4 1.2 1.4 1 2.4z" class="colorf5f5f5 svgShape"/><path fill="#ffffff" d="M93.3 259.2c-.2 1.2.6-4.2-1.6 11.4-17.7.2-35.8-1.5-38.2-2.8-2.4-1.3 0-19.1 1-31.8l16.1 12.6v6.8l22.7 3.8z" class="colorfff svgShape"/><path fill="#f5f5f5" d="m92.3 266.4-.6 4.1c-17.7.2-35.8-1.5-38.2-2.8-1.5-.8-1.1-8.2-.4-16.7 3.8 3.2 1.9 7 4.1 9.6 1.5 1.8 4.1 1.9 6.4 1.6 2.3-.3 4.6-.9 6.8-.1 2.3.9 3.8 3.2 6 4.3 2.6 1.3 5.7.5 8.6-.2 2.4-.4 5.1-.8 7.3.2z" class="colorf5f5f5 svgShape"/><path fill="#ffffff" d="M107.8 262.6s4.9 2.1.4 3.3c0 0 3.6 2.5-.7 2.8 3.8 3.2-7.9 4.4-13.9 1.1-.1 0-2.3.8-2.1.8-1.1-.6-2.7-6.7-.8-9.6 3.2-1.1 4-1.5 5.7-1.9 1.8-2.2 4.3-3.8 6.5-4.8l-.9 4.3c1.4.1 2.7.4 4.7.7 8.5 1.3 1.1 3.3 1.1 3.3z" class="colorfff svgShape"/><path fill="#f5f5f5" d="M108.3 269.8c-.2 2.2-9.5 2.6-14.7-.1-.1 0-2.3.8-2.1.8-1.1-.6-2.7-6.7-.8-9.6.1 0 .2-.1.3-.1 1.8 1.5 1.1 3.1 1.7 4.3.4.8 1.4 1.2 2.2 1.1.6-.1 1.2-.5 1.8-.6 1-.1 1.8.6 2.4 1.4 1.3 1.7 1.8 2.8 4.6 2.5 1.5-.2 3.3-.7 4.6.3z" class="colorf5f5f5 svgShape"/><path fill="#ffffff" d="m101 241.5.6 5.1M300.8 166.2v30c0 1-.8 1.8-1.8 1.8h-30.8l-11.7 9.6c-.7.5-1.7.1-1.7-.8V198h-6.4c-1 0-1.8-.8-1.8-1.8v-30c0-1 .8-1.8 1.8-1.8H299c1-.1 1.8.8 1.8 1.8z" class="colorfff svgShape"/><path fill="#ffbf66" d="M296.8 170.1v21.7c0 .8-.6 1.4-1.4 1.4h-43.2c-.8 0-1.4-.6-1.4-1.4v-21.7c0-.7.6-1.4 1.4-1.4h43.2c.8 0 1.4.6 1.4 1.4z" class="color46c671 svgShape"/><path fill="#ffffff" d="M260.9 184.8c-2.5 0-4.6-2.1-4.6-4.6s2.1-4.6 4.6-4.6 4.6 2.1 4.6 4.6-2 4.6-4.6 4.6zm0-8.4c-2.1 0-3.9 1.7-3.9 3.9s1.7 3.9 3.9 3.9 3.9-1.7 3.9-3.9-1.7-3.9-3.9-3.9zM273.8 184.8c-2.5 0-4.6-2.1-4.6-4.6s2.1-4.6 4.6-4.6 4.6 2.1 4.6 4.6-2.1 4.6-4.6 4.6zm0-8.4c-2.1 0-3.9 1.7-3.9 3.9s1.7 3.9 3.9 3.9 3.9-1.7 3.9-3.9-1.8-3.9-3.9-3.9zM286.6 184.8c-2.5 0-4.6-2.1-4.6-4.6s2.1-4.6 4.6-4.6 4.6 2.1 4.6 4.6-2.1 4.6-4.6 4.6zm0-8.4c-2.1 0-3.9 1.7-3.9 3.9s1.7 3.9 3.9 3.9 3.9-1.7 3.9-3.9-1.8-3.9-3.9-3.9zM158.6 162.9v32.7c0 1.1-.9 2-2 2h-19.1L124.7 208c-.7.6-1.8.1-1.8-.9v-9.6H116c-1.1 0-2-.9-2-2v-32.7c0-1.1.9-2 2-2h40.6c1.1.1 2 1 2 2.1z" class="colorfff svgShape"/><path fill="#ffbf66" d="M154.2 167.1v23.6c0 .8-.7 1.5-1.5 1.5H120c-.8 0-1.5-.7-1.5-1.5v-23.6c0-.8.7-1.5 1.5-1.5h32.6c.9.1 1.6.7 1.6 1.5z" class="color46c671 svgShape"/><path fill="#ffffff" d="M136.3 182.1c-.2 0-.4-.2-.4-.4v-1.6c0-.7.5-1.4 1.2-1.6 2.6-.9 2.4-4.6-.1-5.3-1.8-.5-3.5.9-3.5 2.7 0 .2-.2.4-.4.4s-.4-.2-.4-.4c0-2.2 2.1-3.9 4.4-3.3 3.2.8 3.4 5.5.2 6.6-.5.2-.8.5-.8.9v1.6c.1.3 0 .4-.2.4zM136.3 184c-.2 0-.4-.2-.4-.4v-.3c0-.2.2-.4.4-.4s.4.2.4.4v.3c-.1.3-.2.4-.4.4z" class="colorfff svgShape"/><path fill="#db9267" d="m138.5 231.3-.6 1.8-.8 2.6c-.1.3-.3.5-.6.5h-17.6c-.5 0-.8-.4-.6-.9l.3-.8 1.2-3.5c.1-.3.3-.5.6-.5H138c.3-.1.6.3.5.8z" class="color67db8a svgShape"/><path fill="#a87226" d="m137.9 233-.8 2.6c-.1.3-.3.5-.6.5h-17.6c-.5 0-.8-.4-.6-.9l.3-.8c1.2-.1 2.3.4 3.4.7 1 .2 2.1.2 2.9-.5.4-.3.7-.8 1.1-1 .5-.3 1.1-.2 1.6 0s1 .4 1.5.7c1.6.6 3.4.4 4.8-.5.4-.3.8-.6 1.3-.8.8-.4 1.7-.3 2.5.1 0-.2.1-.1.2-.1z" class="color26a851 svgShape"/><path fill="#f5f5f5" d="M550.2 88.4c-5.4-1.2-10.2-4-14.1-6.9-5.5-4.2-10.6-9-18.3-11.2-7.5-2.2-16.9-1.2-23.1 2.4-4.1 2.4-6.8 5.7-10.7 8.3-4 2.5-10.3 4.1-14.9 2.1-4.1-1.8-4.8-5.7-8.2-8.2-3.4-2.5-9.2-3.1-13.9-1.9-4.7 1.2-8.3 3.8-10.5 6.8-1.9 2.7-2.8 5.6-3.3 8.6h117zM381.4 115.8l-9.3-11.1c-2.8-3.3-6.5-7.1-11.3-6.7-3.2.2-5.8 2.3-7.8 4.5-1.9 2.2-3.5 4.7-6 6.5-2.5 1.8-6.2 2.7-8.9 1.2-3.3-1.9-3.2-5.9-4.5-9.1-2.1-5-8.6-8.2-14.6-7.1-8.9 1.6-13.1 9.8-20.2 14.1-3.6 2.2-8.4 3.4-12.4 1.8-3.8-1.4-6-4.9-9.3-7.1-4.1-2.8-9.9-3.5-14.7-1.8-3.9 1.4-9.9 7.9-8.4 14.8h127.4z" class="colorf5f5f5 svgShape"/><path fill="#ffffff" d="m212.8 406.3-1.8 10-11 .9 1-11.4c2.9 1.4 8.9-.2 11.8.5z" class="colorfff svgShape"/><path fill="#ffffff" d="M201.8 412.7c0-.9-.8-1.7-1.7-1.7-.7 0-1.3.5-1.6 1.1l-1.2 3.5-11.2 3.9c-1.5.5-2.5 1.9-2.5 3.5 0 .3.2.5.5.5l31.2-.4c.3 0 .5-.2.5-.5l-.1-4.2s-.2-5.3-4.5-6.3c0 0-2.1 4.5-6.4 4.1-2.6-.2-3-3.5-3-3.5zM190.9 421l24.9-.4M187.5 419.1l-1 4.4M252.6 406.3v10.1l-10.7.9v-11.5z" class="colorfff svgShape"/><path fill="#ffffff" d="M243.1 412.5c0-.9-.8-1.7-1.7-1.7-.7 0-1.3.5-1.6 1.2l-1.2 3.5-11.1 4c-1.5.5-2.5 2-2.4 3.6 0 .3.2.5.5.4l31.2-.7c.3 0 .5-.2.4-.5l-.1-4.2s-.2-5.3-4.6-6.3c0 0-2 4.5-6.3 4.2-2.7-.2-3.1-3.5-3.1-3.5z" class="colorfff svgShape"/><path fill="#db9267" d="M254.6 404.5c-.1 1.7-1.4 3-3.1 3h-10c-.6 0-1.2-.4-1.4-.9-.1-.2-.1-.4-.2-.6l-17.7-84.9-2.4-11.7-4.1 94.6c-.6 2-2.4 3.4-4.5 3.4h-10.8c-.4 0-.8-.4-.7-.8l-2.1-127.9c3.4-2.8 6.8-4.9 10.3-5.1 3.4-.3 6.8 1.1 10.5 5.1H242l12.6 125.8z" class="color67db8a svgShape"/><path fill="#a87226" d="M218.1 306c-7.4 3.6-5.9 6.8-5.9 13.8 0 4.1 0 8.3-1.4 12.1-1 2.7-2.7 5.2-3.2 8.1-1.3 7 4.7 13.2 5.6 20.3.7 5.1-1.4 10.2-2.8 15.2-1.9 6.7-2.7 13.6-3.6 20.5-.5 3.9-.9 7.7-1.4 11.5h5.7c2.1 0 4-1.4 4.5-3.4l4.1-94.6.5 2.6-2.1-6.1zM254.6 404.5c-.1 1.7-1.4 3-3.1 3h-10c-.6 0-1.2-.4-1.4-.9 1-2.2 2.7-4.2 3.8-6.4 2.2-4.3 1.9-9.5 1.5-14.3-.9-12.1-1.8-24.3-5.6-35.8-1.6-4.9-3.7-9.7-3.7-14.9 0-6.3 3.2-12.1 3.6-18.4.6-10.6-7.1-20.6-5.7-31.2.3-2.4 1.2-4.9 2.7-6.9h5.3l12.6 125.8z" class="color26a851 svgShape"/><path fill="#ffffff" d="M244.5 279c-30.1 8-49.1 11.1-49 3.6.2-12.8 2.1-44.6 2.1-44.6l-14.2 8.3c-2.9 1.4-6.4.7-8.5-1.7-5.2-5.8-14.2-15.9-15-17.4 1.3.9 9.6-1.8 9.6-6.5 0-.1 0-.2-.1-.2l9.8 11.1s10.8-8.5 15-12.2c1.3-1.1 4.2-2.6 6.9-3.7 6.5-2.8 16.5-5.5 21.3-5s2.5 0 5.8.7c4 .8 9.5 3.6 10.8 6.5 3.3 7 4.6 22.5 5.1 36.2.7 13.5.4 24.7.4 24.9z" class="colorfff svgShape"/><path fill="#ffffff" d="m221.7 285-3.2 3.3-12.9 13.3c-.8.8-2.1.7-2.7-.3l-18-28.4c-.4-.7-.3-1.6.2-2.1l7.9-8.2 8.1-8.4c.8-.8 2.1-.7 2.7.3l18 28.3c.6.8.5 1.7-.1 2.2z" class="colorfff svgShape"/><path fill="#f5f5f5" d="m218.7 288.2-12.9 13.3c-.8.8-2.1.7-2.7-.3l-18-28.4c-.4-.7-.3-1.6.2-2.1l7.9-8.2c.6.3 1.1.6 1.7 1.1 1.9 1.8 2.7 4.8 1.9 7.3-.3 1-.9 2-1.2 3-.3 1-.3 2.3.5 3.1 1 1 2.6.8 4 1.1 2.4.4 4.3 2.7 4.5 5.1.1 1.6-.5 3.1-.8 4.7-.3 1.6-.3 3.4.8 4.5 1.4 1.4 3.7 1.1 5.4.2 1.7-.9 3-2.4 4.6-3.5 1.1-.6 2.7-1.1 4.1-.9z" class="colorf5f5f5 svgShape"/><path fill="#ffffff" d="m212.7 208.3-.2 3.7 3.4 6.5 6.5-7.9s1.6-15.1 1.6-16.8c0 0 .5-13.6-10.5-13.2-6.1.2-7.8 6.6-7.8 14.2 0 7.2-.8 13.6 7 13.5zM248.2 256.2c-4.8 3.6-20.3 14.8-22.7 15.5-8.6-12-5.8-8.1-6.5-9.1 27.1-20.3-14.4 10.8 18-13.5l-5.5-9.5 7.5-21.8 4.4 11.1 7.4 18.6c1.2 3.2.1 6.7-2.6 8.7z" class="colorfff svgShape"/><path fill="#f5f5f5" d="M248.3 256.1c-4.8 3.6-20.3 14.8-22.7 15.5l-1.6-2.2c.1-.5.2-1 .4-1.4 1.1-2.4 4-3.4 6.4-4.6 5.1-2.6 9.1-7.4 10.7-12.9.8-2.8 1.1-5.8.5-8.7-.5-2.4-1.6-4.8-1.5-7.3.1-2.4 1.3-4.4 3-5.7l7.4 18.6c1.2 3.2.1 6.7-2.6 8.7z" class="colorf5f5f5 svgShape"/><path fill="#ffffff" d="m152 207.1 3.8 3.9.8 1s-2.3-.2-1.8 1.8c0 0-1.9.5-.9 2.1-2.8 1.8 2.7 6.5 7.9 7.5.1.1 2.4 3.6 2.2 3.3 2.5-.9 5-2.7 5.5-5.3-3.7-6.8-10.7-13.4-17.3-16.7-.9-.3-.9 1.4-.2 2.4z" class="colorfff svgShape"/><path fill="#ffffff" d="M162.1 218.2c-2.6-2.7-.6-4.7-.6-4.7s-1.3-1.6-1.7-2.2c-.7-1.1-.4-2.7 0-3 1.6-1 8 10.3 8 10.3M156.6 211.9s1 1.9 1.6 2.6M155.9 217.8s.8 2.2-.5 2.3c-.2 0-.6-.3-1-.7M217.7 275.5c2.1-1.6 3.9-3.6 4.9-6 .1 0 3.1-1.3 2.9-1.2-.7-2.9-2.6-6.1-5.6-5.9-1 .4-.8.4-1 .4-6.7.8-8 2.8-8 2.8l1.3 2.2c-2.5 1.4-4.6 5.3-2.9 5l1.2-.3s-.6 2.2 1.4 2.1c0 .1.2 1.9 1.9 1.3.5 1.3 2.1.9 3.9-.4zM220 197.1c-.6-2.4 1.9-5.7 3.7-4.9 1.7.8.9 4.6-1.3 5.9" class="colorfff svgShape"/><path fill="#db9267" d="M204.9 233.7c.3 1.3 1.7 2.4 3.1 2.4 1.4 0 2.3-1.1 2-2.4-.3-1.3-1.7-2.4-3.1-2.4-1.5 0-2.3 1.1-2 2.4z" class="color67db8a svgShape"/><path fill="#ffffff" d="M205.1 233.1c.2.6.8 1.2 1.5 1.2s1.1-.5 1-1.2c-.2-.6-.8-1.2-1.5-1.2s-1.1.5-1 1.2z" class="colorfff svgShape"/><path fill="#f5f5f5" d="M555.5 401.5c0 3.8-60.4 6.9-134.8 6.9s-134.8-3.1-134.8-6.9c0-3.8 60.4-6.9 134.8-6.9s134.8 3.1 134.8 6.9z" class="colorf5f5f5 svgShape"/><path fill="#ffffff" d="M488.7 237.2v20.1H343v-20.1l72.8-31.4z" class="colorfff svgShape"/><path fill="#ffbf66" d="M493.9 236.7c-.1.1-.1.3-.2.4-.6 1-1.8 1.3-2.8.9l-75-32.3L341 238c-1.2.5-2.5-.2-3-1.3-.5-1.2.1-2.6 1.2-3.1l75.8-32.7c.5-.2 1.2-.2 1.7 0l75.8 32.7c1.3.5 1.8 1.9 1.4 3.1z" class="color46c671 svgShape"/><path fill="#db9267" d="M493.7 237.1c-.6 1-1.8 1.3-2.8.9l-75-32.3L341 238c-1 .4-2.2 0-2.8-.9.2-.4.6-.7 1-.9l75.8-32.7c.5-.2 1.2-.2 1.7 0l75.8 32.7c.6.2.9.5 1.2.9z" class="color67db8a svgShape"/><path fill="#ffb58a" d="M330.1 257.2h171.6v10.5H330.1z" class="colore1e5e2 svgShape"/><path fill="#f5f5f5" d="M311.1 280.6h209.7v7.5H311.1z" class="colorf5f5f5 svgShape"/><path fill="#ffffff" d="M304.2 288.2h223.2v12.9H304.2zM313.7 301.1h42.4v86.7h-42.4z" class="colorfff svgShape"/><path fill="#f5f5f5" d="M356.2 301h25.9v86.7h-25.9z" class="colorf5f5f5 svgShape"/><path fill="#ffffff" d="M475 301.1h42.4v86.7H475z" class="colorfff svgShape"/><path fill="#f5f5f5" d="M450.7 301h24.4v86.7h-24.4zM386.8 301h59.1v86.7h-59.1z" class="colorf5f5f5 svgShape"/><path fill="#ffffff" d="M336 267.8h159.6v12.9H336zM313.7 387.7h203.7v4.6H313.7zM308.7 392.4h213.7v4.6H308.7zM303.5 397h224.1v4.6H303.5z" class="colorfff svgShape"/><path fill="#db9267" d="M446 301h4.8v86.7H446zM382.1 301h4.8v86.7h-4.8z" class="color67db8a svgShape"/><path fill="#db9267" d="M456.2 286.6v17.3c0 .4-.3.8-.7.8h-78.1c-.4 0-.7-.3-.7-.8v-17.3c0-.4.3-.8.7-.8h78.1c.4.1.7.4.7.8z" class="color67db8a svgShape"/><path fill="#ffffff" d="M395.2 298.3v-7.5c0-.3.2-.6.5-.6s.5.3.5.6v3.2h4.3v-3.2c0-.3.2-.6.5-.6s.5.2.5.6v7.5c0 .3-.2.5-.5.5s-.5-.2-.5-.5v-3.2h-4.3v3.2c0 .3-.2.5-.5.5-.3.1-.5-.2-.5-.5zM403 295.7c0-1.8 1.1-3.2 2.9-3.2 1.8 0 2.9 1.4 2.9 3.2 0 1.9-1.1 3.2-2.9 3.2-1.8 0-2.9-1.4-2.9-3.2zm4.8 0c0-1.4-.9-2.2-1.9-2.2-1 0-1.9.7-1.9 2.2 0 1.5.9 2.2 1.9 2.2 1.1 0 1.9-.8 1.9-2.2zM410.1 298.4c-.4-.3-.1-1.1.5-.8.6.3 1.1.4 1.6.4.8 0 1.3-.3 1.3-.9 0-.4-.6-.6-1.2-.8-1.2-.3-2.2-.7-2.2-1.9 0-1.1.7-1.9 2.2-1.9.6 0 1.1.1 1.7.3.3.1.4.5.2.8-.1.1-.3.2-.5.1-.4-.1-.9-.2-1.3-.2-.6 0-1.3.2-1.3.9 0 .2.1.4.3.5.2.1.5.2 1 .3 1.2.3 2.1.7 2.1 1.9 0 1-.7 1.8-2.2 1.8-.8 0-1.5-.2-2.2-.5zM415.8 301.1v-8c0-.3.2-.5.5-.5s.5.2.5.5v.3c.6-.6 1.2-.9 2-.9 1.5 0 2.8 1.2 2.8 3.2s-1.3 3.2-2.8 3.2c-.7 0-1.4-.3-2-.9v3.1c0 .3-.2.6-.5.6s-.5-.3-.5-.6zm4.7-5.4c0-1.3-.7-2.2-1.9-2.2-.4 0-.7.1-1 .3-.3.2-.6.4-.8.7v2.6c.5.5 1.1.9 1.8.9 1.3-.1 1.9-1 1.9-2.3zM422.9 290.7c0-.4.3-.7.6-.7h.1c.3 0 .6.3.6.6s-.3.6-.6.6h-.1c-.3.1-.6-.2-.6-.5zm.1 7.6v-5.2c0-.3.2-.6.5-.6s.5.2.5.6v5.2c0 .3-.2.5-.5.5-.3.1-.5-.2-.5-.5zM426.2 297.3v-3.8h-.8c-.1 0-.2-.1-.2-.2s0-.2.1-.2l1.6-1.6c.1-.1.1-.1.2-.1s.2.1.2.2v1h1.3c.3 0 .4.2.4.5 0 .2-.2.5-.4.5h-1.3v3.7c0 .5.1.7.7.7.3 0 .5-.1.7-.1.2 0 .4.2.4.4s-.1.3-.3.4c-.3.1-.6.2-.9.2-1.2 0-1.7-.5-1.7-1.6zM429.8 297.1c0-1.4 1.2-2 2.6-2h1.4v-.1c0-1-.4-1.5-1.5-1.5-.5 0-.8.1-1.5.3-.4.1-.6-.2-.6-.4s.1-.4.3-.5c.6-.3 1.3-.4 2-.4 1.5 0 2.4 1 2.4 2.4v3.5c0 .3-.2.5-.5.5s-.5-.2-.5-.5v-.4c-1.4 1.5-4.1 1.2-4.1-.9zm3.2.6c.3-.2.6-.4.8-.7v-1h-1.2c-1.1 0-1.7.3-1.7 1 0 1.1 1.3 1.2 2.1.7zM436.6 298.3v-7.9c0-.3.2-.6.5-.6s.5.2.5.6v7.9c0 .3-.2.5-.5.5-.3.1-.5-.2-.5-.5z" class="colorfff svgShape"/><path fill="#a87226" d="M530.4 374.7c0 8.4 4.1 12.2 9.1 12.2 1.4 0 2.7-.3 3.8-.9 3.1-1.5 5.3-5.2 5.3-11.3 0-9.7-5.7-22.3-12.1-17.1-3.5 2.9-6.1 10.4-6.1 17.1z" class="color26a851 svgShape"/><path fill="#915e17" d="M530.4 374.7c0 8.4 4.1 12.2 9.1 12.2 1.4 0 2.7-.3 3.8-.9.2-2.3-.7-4.5-2.3-6.2-1.2-1.2-2.8-2.3-3-4-.3-2.5 2.5-4.7 1.5-7.1-.4-1-1.4-1.5-2.3-2.1-.9-.5-1.8-1.4-1.9-2.4-.1-1.6 1.7-2.7 2-4.2.1-.8-.2-1.7-.8-2.3-3.5 2.8-6.1 10.3-6.1 17z" class="color17913c svgShape"/><path fill="#ffbf66" d="M531.6 389.8c1.4 0 2.6-.4 3.6-1.3 5.8-4.8.5-22.5-5.2-18.7-4.9 3.2-7.6 20 1.6 20z" class="color46c671 svgShape"/><path fill="#b78034" d="M531.6 389.8c1.4 0 2.6-.4 3.6-1.3v-.2c-.3-1.1-1.1-1.9-1.9-2.6-.8-.7-1.8-1.3-2.5-2.1s-1.2-2-.9-3.1c.3-.9 1-1.7.9-2.7-.2-1.6-2.7-2.1-2.6-3.7.1-1.3 1.9-1.8 2.1-3.1.1-.5-.1-.9-.4-1.3-4.8 3.3-7.5 20.1 1.7 20.1z" class="color34b75c svgShape"/><path fill="#a87226" d="M304.8 374.7c0 8.4-4.1 12.2-9.1 12.2-1.4 0-2.7-.3-3.8-.9-3.1-1.5-5.3-5.2-5.3-11.3 0-9.7 5.7-22.3 12.1-17.1 3.6 2.9 6.1 10.4 6.1 17.1z" class="color26a851 svgShape"/><path fill="#915e17" d="M304.8 374.7c0 8.4-4.1 12.2-9.1 12.2-1.4 0-2.7-.3-3.8-.9-.1-.7 0-1.4.1-2.1.3-1.6 1.2-3 2.2-4.1 1.2-1.2 2.8-2.3 3-4 .2-1.2-.5-2.4-1-3.5-2.7-5.8 3.5-4.8 3.7-8.1.1-1.6-1.7-2.7-2-4.2-.1-.8.2-1.7.8-2.3 3.6 2.8 6.1 10.3 6.1 17z" class="color17913c svgShape"/><path fill="#ffbf66" d="M303.6 389.8c-4.2 0-6.1-3.8-6.1-8.2 0-5.7 2.8-12.3 6.1-12.3 5.9 0 10.1 20.5 0 20.5z" class="color46c671 svgShape"/><path fill="#b78034" d="M303.6 389.8c-1.4 0-2.6-.4-3.6-1.3v-.2c.6-2.2 3-3.1 4.4-4.7.7-.8 1.2-2 .9-3.1-.3-.9-1-1.7-.9-2.7.2-1.6 2.7-2.1 2.6-3.7-.1-1.3-1.9-1.8-2.1-3.1-.1-.5.1-.9.4-1.3 4.8 3.3 7.5 20.1-1.7 20.1z" class="color34b75c svgShape"/><path fill="#f5f5f5" d="M349.6 424.1c.4-1.9-.6-3.6-2.1-4.4-.2-1.3-1.4-2.4-2.9-2.3-1.5-2.9-5.5-3.1-7.3-.4-1.7-1.3-4.3-.2-4.5 1.9-.8-.5-1.8-.6-2.7-.1-1.6-2.5-5.3-2.1-6.4.6-1.2 0-2.1 1.2-1.8 2.4-.9.3-1.6 1.1-1.6 2.2h29.3zM502.5 430.7c.1-.4.1-.7.1-1.1 0-2.1-1.3-4-3.2-4.9-.3-1.8-2-3.3-4.2-3.2-2.1-4-8-4.3-10.6-.5-2.5-1.8-6.2-.3-6.6 2.7-1.2-.7-2.6-.8-3.9-.2-2.3-3.4-7.8-2.9-9.3.9-1.8.1-3.1 1.7-2.6 3.3-1.3.4-2.3 1.6-2.3 3h42.6z" class="colorf5f5f5 svgShape"/><path fill="#ff6103" d="M76.4 199c-.3-.7.1-.9.6-1.2.2 0 .3-.2.3-.3 0-.2-.2-.4-.4-.3-1.4.2-1.5 2.1-.9 2.3.1.1.2.1.3 0 0-.1.1-.3.1-.5zM88.1 203.4h.1c1.6 0 2.1-.7 2.1-1.7 0-.8-.2-2.6-.5-3.9-.1-.5-.8-.3-.7.1.3 1.2.4 2.5.5 3.8 0 .3 0 .6-.2.7-.2.2-.6.3-1.3.3-.2 0-.3.2-.4.3.1.2.2.4.4.4zM89.4 206.5c-.5.4-1 .6-1.5.5-.6-.1-1-.6-1-.6-.1-.2-.3-.2-.5-.1s-.2.3-.1.5c0 0 .5.8 1.5.9.6.1 1.3 0 2-.6.2-.1.2-.3.1-.5s-.3-.2-.5-.1z" class="color3c4150 svgShape"/><path fill="#ff6103" d="M55.4 295.4c1 1.9 3.3 3.4 6.4 4.3l3.8 106.7c.1 1.6 1.2 2.9 2.7 3.2v4.1c-3.8 1.3-4.1 4.9-4 7.9v2.8c0 .4.4.8.8.8.1 0 32.1-.5 30.7-.5.4 0 .8-.4.8-.8 0-1.7-1.1-3.2-2.8-3.7l-10.9-3.5-1.2-3.2c-.3-.8-1.2-1.4-2.2-1.3v-2.7c.7-.3 1.2-.9 1.2-1.7l5.8-83.2L88 330l15.3 74c.4.9.4 4.1 3.6 5.3l1.3 4.3c-2.1.7-3.1 2.4-3.6 3.9v.1c-.8 2.2-.4 3.9-.5 4.8v2c0 .5.4.8.8.8 33.4-.5 30.9-.4 31.2-.7.1-.1.2-.3.2-.6 0-1.7-1.1-3.2-2.8-3.7l-10.9-3.5-1.2-3.2c-.3-.8-1-1.3-1.8-1.3l-.5-2.5c.7 0 1.1-.6 1.1-1.2l-13.8-111.1c1.3-.6 2.4-1.5 2.4-2.9 0-2.4-.3-5-.5-7.4h24.2c1.4 0 2.5-.9 2.8-2.2l11.7-48.4c.4-1.8-1-3.6-2.8-3.6h-6c.2-.8.5-1.3.5-1.7 0-.5-.4-1-1-1h-17.6c-.4 0-.8.3-1 .7l-.7 2H110c-1.4 0-2.5.9-2.8 2.2l-1.3 5.3-1.7-7.6c-.8-3.4-2.8-6.5-5.6-8.5l-9.9-7c-.1-.1-1.6-.8-3-1.2V213c.9.1 2.9.3 4.7-1 1.7-1.2 2.6-3.4 2.8-6.6 0-1.2.2-2.5.4-3.8 3.4-.7 5.9-4.1 5.9-8.1 0-1.1-.2-2.2-.6-3.2.8-1.1 1.2-2.3 1.2-3.5 0-4.9-6.4-8.8-14.2-8.8-6.1 0-11.4 2.4-13.4 5.8-3.9.7-6.8 3.8-6.8 7.5 0 2.8 1.6 5.2 4 6.5-.2.9-.3 1.9-.3 3 0 5 2.7 9.2 6.3 10.4l.2 4c-3.8.5-17.1 3.6-18.9 7.3-2 3.9-3.2 15.1-3.2 17.9-1.1 12.7-2.7 25.8-.6 27.6 0 3.4.5 24.3 2.2 27.4zm.6-.4c-.8-1.5-1.6-9.7-2-20.5 4-.8 19.8-3.9 20.6-4 2.1.1 4.4.2 6.6.3.3 7.9.6 21.7-5.4 26.8-4.4 3.8-17 2.4-19.8-2.6zm25.9-24.2c2 0 4 .1 6 .1.4 6.3 1.2 15.5 3.1 21.5-4.8.5-8.9 1.6-12.3 2.6 3.6-6.1 3.5-17 3.2-24.2zm11.7 149.9c1.3.4 2.3 1.7 2.3 3.1 0 .2-.1.1-2.2.1l-.8-3.4.7.2zm-12.5-7.1 1.3 3.4c0 .1.1.2.2.2l9.5 3 .9 3.7-27.8.4s-.1 0-.1-.1v-1.6c.1 0 24-.3 24.1-.4.2 0 .3-.2.3-.4s-.2-.3-.4-.3l-20.6.3c.1-.4.2-.7.2-1.1 0-1.8-1.3-3.3-3.1-3.5.7-1.7 1.9-2.7 3.2-3.1 1.4 2.3 3.9 4.2 6.6 3.8 2.3-.3 3.1-2.6 3.2-3.9 0-.1 0-.5.3-.9.6-.6 1.8-.4 2.2.5zm-12.1-.1v-3.9h9.8v2.8c-.6.3-1 1-1 1.8 0 .2-.3 3-2.6 3.2-4 .4-5.8-3.8-6.2-3.9zm38.7-4c.3 0 .5.1.9.1h9.8l.6 2.6c-.8.3-1.4 1-1.4 1.9 0 .2-.4 3-2.6 3.2-4 .5-6-3.7-6.1-3.8l-1.2-4zm25.8 11.2c1.3.4 2.3 1.7 2.3 3.1 0 .2-.3.1-2.2.1l-.8-3.4.7.2zm-12.6-7.1 1.3 3.4c0 .1.1.2.2.2l9.5 3 .9 3.7c-6.2.1 15.2-.2-27.8.4 0 0-.1 0-.1-.1v-1.6c.1 0 24-.3 24.1-.4.2 0 .3-.2.3-.4s-.2-.3-.3-.3l-20.6.3c.7-2-.6-4.2-2.9-4.6.7-1.8 2-2.8 3.2-3.1.2.3.5.8 1 1.4 2 2.3 4.6 2.8 5.8 2.4 2.1-.4 2.8-2.6 2.9-3.8-.1-1.4 2-1.8 2.5-.5zm-1.3-5.2c0 .2-.1.4-.4.4-6.4 0-9.2.1-10.6 0-4.1-.2-4.1-3.8-4.6-5 0-.1.5 2.2-15.3-74l-2-18.5c0-.2-.2-.3-.4-.3s-.3.2-.3.4v11c-.1.1-.3 4.6-5.9 85.3 0 .7-.6 1.1-1.2 1.1h-9.8c-1.6 0-2.6-1.2-2.7-2.6l-3.8-106.4c4.3 1 10.5 1.1 13.7-1.7.7-.6 1.3-1.3 1.9-2.1 3.6-1.2 7.9-2.4 13.1-2.9 1.2 3.4 2.7 5.5 4.6 5.6 2.8.2 7.2-.1 10-1.2l13.7 110.9zM95.9 298c-5.7-.4-7-21.4-7.3-27.1h3.3c.2 0 .4-.2.6-.3l1.2-.4c1.3.7 2.9 1.1 4.5 1.4.1.2.1.3.2.5l-2.7 11.4c-.4 1.9 1 3.6 2.8 3.6h9.3c.2 2.1.5 5.3.5 7.4-.1 3.1-9.2 3.7-12.4 3.5zm6.2-39.2c.9 0 8.9 1.2 8.4 2-.3.5-2 1.1-2.6 1.3-1-.1-4-.3-4.1-.3-.5 0-.5.7-.1.7.3 0 3.9.3 4.1.4.9.4 2.1 1.2 2 1.7 0 .1-.2.5-1.6.9l-4.2-.4c-.5-.1-.5.7-.1.7.1 0 4.2.4 4.3.4.6.4 1.3 1.2 1.2 1.6 0 .1-.3.5-1.7.6-.1 0-2.8-.3-3.7-.4-.5 0-.5.6-.1.7.1 0 3.4.4 3.6.4.7.7.5 1 .4 1.1-.2.4-.8.6-1.7.9-3.4.8-9.1.3-12.4-1.5-.1 0-.2-.1-.3 0-.1 0-2.1.7-2 .7-1.2-1.2-2.1-6.7-.6-8.9 2.1-.7 3.9-1.5 5.6-1.8.1 0 .1-.1.2-.1 1.4-1.7 3.5-3.3 5.7-4.4l-.7 3.6c0-.1.1.1.4.1zm16.4-23.4c.2-.9 1.2-4 1.4-4.4.1-.4-.3-.1 18-.2.1 0 .3.1.3.3 0 .1-1.5 4.4-1.5 4.4-.1.4.5.1-17.9.2-.4 0-.3-.2-.3-.3zm-10.6-.2c.2-1 1.1-1.7 2.2-1.7h8.2l-.5 1.6c-.2.7.3 1.3 1 1.3h17.6c.4 0 .8-.3 1-.7l.7-2.2h6.2c1.4 0 2.5 1.2 2.2 2.7l-11.7 48.4c-.2 1-1.1 1.7-2.2 1.7H98.4c-1.4 0-2.5-1.3-2.1-2.7 3.9-16.3-1 4.3 2.8-11.9 2.4.3 8.1.6 9.3-1.3.2-.3.4-.9-.1-1.6 2.1-.3 2.2-1.6.7-2.9 2.2-.8 1.9-2.1-.2-3.3.8-.3 2.4-.9 2.4-1.8-.1-1.6-7.1-2.4-8.7-2.6 1.2-5.8 5.4-23.1 5.4-23zm-5.1 15.5c.1.3.3.7.4 1l-.1.5c-.1-.6-.2-1.1-.3-1.5zM88.9 218c.2.1 9.2 6.6 9.3 6.7 2.8 2 4.7 4.9 5.4 8.2l2 9-2.1 8.6c-.5-1.3-1-2.6-1.4-4l-.7-5.1c-.1-.4-.7-.4-.7.1 1 7.3.3 2.9 2 12.4v.1c-1.6.7-4.3 2.2-6.4 4.7-.8.2-2 .6-2.1.6-.2-.3-.4-.4-.6-.5h-.1l-5.4-.9c-.2-12.7.1-26.2.7-36.9 0-1 0-2 .1-3zM74 198.1c.1-1 .6-2 1.5-2.4 1.4-.8 3.3.6 3.3 2.8 0 .2.2.4.4.4s.3-.2.3-.4c0-.4-.1-.8-.2-1.2.9-.6 1.6-1.4 2.2-2.3 4 .9 8.8.6 12.6-1.1-.5 3.3-1.4 8-1.5 11.4-.3 7.2-4.9 8.4-11.5 5.3-.2-.1-.5-.3-.6.1-.1.2 0 .4.1.5.1.1 2.3 1.2 4.5 1.6 0 1.5-.1 9.7 0 9.2-.4-.3-2.2-1.7-8.3-6.5-.2-4.5-.4-7.7-.7-13.2h.3c.2 0 .4-.2.4-.4s-.2-.4-.4-.4c-1.3 0-2.6-1.3-2.4-3.4zm2.1 17.7 9.1 7.1c.2.2.6.1.6-.3v-6c.8.3 1.6.6 2.4 1-.2 2.7-1.1 21.4-.8 40.2l-6.2-1c0-10.1-5.7-30.6-8.7-40.3 1.3-.4 2.5-.6 3.6-.7zm-21.6 24.8c.4-4.2 1.1-13.7 3.2-17.9 1.5-3.1 11.9-5.6 14.1-6.1h.1c2.9 9.6 8.7 30 8.7 40.1-.1 0-9.1-1.5-9.6-1.6v-6.5c0-.2-.1-.4-.3-.4-.2 0-.3.2-.3.4v6.3l-6.1-1.1c-.5-.1-.6.6-.1.7 10.3 1.8-3.2-.4 28 4.8-1.4.8-2.2 2.4-2.4 4-.3 2.9.6 6.1 1.2 6.9v.1c-5.9.1-31.5-.3-36.9-2.7-.5-.1-.6-.6-.7-1.1-1.2-4.1.5-19.4 1.1-25.9z" class="color3c4150 svgShape"/><path fill="#ff6103" d="M85.8 199.7c0 .5.4.9.9.9s.9-.4.9-.9-.4-.9-.9-.9-.9.4-.9.9zM92.1 198.5c-.5 0-.9.4-.9.9s.4.9.9.9.9-.4.9-.9-.4-.9-.9-.9zM91.3 197.6c.9-.9 1.5-.4 1.6-.4.1.1.4.1.5 0 .1-.1.1-.4 0-.5 0 0-1.1-1.1-2.6.4-.3.3.1.8.5.5zM85.1 198.2c.3-.5.9-.9 1.4-.7.1.1.4.2.6 0 .1-.2.1-.4-.1-.5 0 0-.2-.1-.5-.2-.9-.1-1.5.3-2 1-.1.2-.1.4.1.5.2.1.4.1.5-.1zM248.6 198.3h6v8.4c0 1.1 1.3 1.8 2.2 1.1l11.6-9.5h30.7c1.2 0 2.2-1 2.2-2.2v-30c0-1.2-1-2.2-2.2-2.2h-50.5c-1.2 0-2.2 1-2.2 2.2v30c0 1.2 1 2.2 2.2 2.2zm-1.5-32.2c0-.8.7-1.5 1.5-1.5h50.5c.8 0 1.5.7 1.5 1.5v30c0 .8-.7 1.5-1.5 1.5h-30.8c-.1 0-.2 0-.2.1l-11.7 9.6c-.4.4-1.1 0-1.1-.5V198c0-.2-.2-.3-.4-.3h-6.4c-.8 0-1.5-.7-1.5-1.5v-30.1zM116.1 197.8h6.6v9.2c0 1.2 1.4 1.9 2.4 1.1l12.7-10.4h19c1.3 0 2.3-1.1 2.3-2.3v-32.7c0-1.3-1-2.3-2.3-2.3h-40.6c-1.3 0-2.3 1.1-2.3 2.3v32.7c-.2 1.4.9 2.4 2.2 2.4zm-1.7-35c0-.9.7-1.6 1.6-1.6h40.6c.9 0 1.6.7 1.6 1.6v32.7c0 .9-.7 1.6-1.6 1.6h-19.1c-.1 0-.2 0-.2.1l-12.8 10.4c-.5.4-1.2.1-1.2-.6v-9.6c0-.2-.2-.4-.4-.4H116c-.9 0-1.6-.7-1.6-1.6v-32.6zM364.3 191.1c-.2 0-.3.2-.3.4s.2.4.3.4c4.1 0 6.8 3.9 6.4 8.3 0 .4.7.5.7 0 .4-4.6 3.9-8.4 7.8-8.4.5 0 .5-.7 0-.7-3.5 0-6.7 2.7-8 6.4-.6-3.8-3.5-6.4-6.9-6.4zM344.7 184.2c2.5 0 4.2 2.5 4 5.2 0 .2.1.3.3.3.2 0 .3-.1.3-.3.2-2.9 2.4-5.2 4.9-5.2.5 0 .5-.7 0-.7-2.2 0-4.1 1.6-5 3.7-.6-2.2-2.4-3.7-4.5-3.7-.4 0-.4.7 0 .7zM358.7 172.2c3.1 0 5 3 4.7 6.2 0 .2.1.3.3.3.2 0 .3-.1.3-.3.3-3.4 2.9-6.2 5.8-6.2.5 0 .5-.7 0-.7-2.6 0-4.9 1.9-6 4.6-.6-2.7-2.7-4.6-5.3-4.6-.3 0-.3.7.2.7zM151.9 207.2l3.8 3.9.4.4c-1 .2-1.6.8-1.5 1.9-1 .4-1.4 1.2-1 2.2-.6.5-.8 1.1-.6 1.8.5 2.3 4.7 5.3 8.8 6.1l.3.4c-.8.6-2.7 2.4-2.3 3.3 1.9 2.8 12.9 15.1 15.1 17.6 2.2 2.5 5.9 3.2 9 1.7l13.6-8c-.2 2.4-.7 11-1.1 20.4L185 270.6c-.7.7-.8 1.7-.3 2.6l12.7 20 1.8 113.5c-.1.6.3 1.1.8 1.2.3.1.5 0 .6 0l-.2 2.8c-.8-.1-1.8.4-2.1 1.4l-1.1 3.3-11 3.8c-1.6.6-2.7 2.1-2.7 3.9 0 .4.4.8.8.8 18.6-.3 13.1-.2 31.3-.4.4 0 .8-.4.8-.8 0-.1 0-3.9-.1-4.2-.2-2.6-1.4-5.4-3.9-6.4l.8-4.5c1.4-.6 2.5-1.8 2.9-3.4l4-91.8 19.5 93.7c0 1 .9 1.9 2 1.9h.2v2.6h-.2c-.9 0-1.6.6-1.9 1.4l-1.1 3.3-11 3.9c-1.6.6-2.7 2.2-2.7 3.9 0 .4.3.8.8.8l31.2-.7c.5 0 .8-.4.8-.8v-2c0-1.9.1-3-.6-4.8-.6-1.5-1.7-3.2-3.9-3.9v-4c1.1-.6 1.8-1.6 1.9-3L242.8 283c1.3-1.3 2.2-3.9 2.2-4.1 0-.6.2-8.4-.1-19.9 1.5-1.1 2.8-2.1 3.6-2.7 2.8-2.1 4-5.7 2.9-9.1 0-.1-11.8-29.7-11.8-29.8-1.4-2.9-6.8-5.8-11-6.7-.9-.2-1.5-.3-2.2-.4-1.3-1.1-2.6-1.6-3.2-1.7.3-2.9.9-8.7 1.2-12.3 1.6-.7 2.8-3 3.6-6.8.9-4.3-.3-8.2-3.1-10.9-2.1-1.9-4.7-2.9-6.6-2.3-2.6.7-3.6 2.3-10.2 1.5-7.1-.8-9.9 7.5-4.9 9.9.3.1.6.3 1 .4-.2 1.6 0 3.4.5 5-.7 1.5-.2 3.2.9 4.2 0 4 0 7.5 2 9.4 1.1 1.1 2.7 1.7 4.9 1.7v1.1c-2.5.2-4.9 1.8-5.9 3.5-3.2 1.1-10 3.8-12.3 5.8-3.8 3.4-13 10.7-14.7 12-10.3-11.7-9.6-10.9-9.7-10.9-.1-.1-.3-.2-.5-.2-1.2-2.1-6.6-11.5-8.8-12-.5-.1-.9.1-1.2.8-3.1-2.6-6.7-4.5-6.9-4.5-1.4 0-1.6 2-.6 3.2zm3.5 5.4c.3-.3.8-.4 1.1-.4.3.5 1 1.8 1.5 2.4.1.3.3 1 .2 1.3 0 0-.1.2-.3.2-.3 0-1.5-1.2-2.6-2.6-.1-.4-.1-.7.1-.9zm.4 6.9c-.2.3-.4.1-.6 0-.6-.6-1.5-1.5-1.7-2.3-.1-.5 0-.9.4-1.1.5.6 1.1 1.3 1.7 1.8.3.5.4 1.3.2 1.6zm-1.7-4.3c-.2-.5-.1-.9.7-1.2.6.7 1.6 1.9 2.4 2.4v.1c.1.3.4 1 .2 1.3 0 0-.1.1-.3.2-.8-.1-2.8-2.8-3-2.8zm31.3 57.6c-.3-.7-.3-1.2.2-1.8 22.8-23.6 6.4-6.7 16-16.6.6-.7 1.7-.5 2.2.2l6.9 10.9v.1l1.1 1.9c-1.9 1.3-3.7 3.9-3.3 5 .3.9 1.5.3 1.7.3-.1 1.1.4 1.9 1.5 2 .2 1 .9 1.6 2 1.4.8 1.3 2.4.7 3.7-.1.1.1 4.4 7 4.4 6.9.4.6.3 1.3-.2 1.7-.1.1-16.1 16.7-16 16.6-.6.6-1.7.6-2.2-.2-9.1-14.3-12.7-20-18-28.3zm30.7 1.3.2-.2c.3-.3-.2-.8-.5-.5l-2.1 2.1c-.7.3-1.2-.1-1.3-.9.1-.1 2.2-2.2 2.1-2 .3-.3-.2-.8-.5-.5l-2.1 2.1c-.9 0-1.1-.7-1-1.6l2.1-2.1c.1-.1.1-.4 0-.5-.1-.1-.4-.1-.5 0l-2.1 2.1c-.1 0-.9.2-1 .3h-.2c-.2-.3.9-2.9 3.1-4.2.1 0 .1-.1.2-.1s2.4-.8 2.6-.8c.2-.1.3-.3.2-.4-.1-.2-.3-.3-.4-.2-.1 0-2.2.7-2.4.8l-1-1.7c2-2 7.5-2.4 7.6-2.5.2 0 .1 0 1-.4 2.5-.4 4.5 2.7 5.2 5.3-.4.1-2.5 1.1-2.5 1.1-.2.1-.3.1-.3.2-.1.1-.9 2.8-4.8 5.8-.9.7-2.7 1.7-3.3.7.1-.1 0 0 0 0-.1-.1.1-.3 1.7-1.9zm-31.9 149-.1-.1c0-1.4.9-2.7 2.2-3.2l.8-.3-.8 3.5-2.1.1zm30.7-7.6c-2.2.3-3.6 2.6-2.8 4.8l-21 .3c-.2 0-.3.2-.3.4s.1.3.3.3c2.7 0 22.5-.3 24.6-.3 0 1.6.1 1.8-.1 1.8l-28.4.4.8-3.8 9.6-3.4c.1 0 .2-.1.2-.2l1.2-3.5c.3-.9 1.4-1.2 2.1-.6.2.1.5.5.5 1.1.2 1.8 1.4 3.7 3.4 3.9 2.8.2 5.2-1.6 6.5-4v-.1c1.4.2 2.6 1.2 3.4 2.9zm-3.3-3.8c-.1 0-.1 0-.2-.1-.2 0-.3.1-.4.2 0 0-2 4.3-6 3.9-2.3-.2-2.7-2.9-2.7-3.2 0-.9-.6-1.6-1.2-1.8l.3-3h9.8c.4 0 .8-.1 1.2-.2l-.8 4.2zm16.2 11.3c-2 0-2.3.1-2.3-.1 0-1.4.9-2.7 2.2-3.2l.8-.3-.7 3.6zm28.4-7.8c-2.2.4-3.6 2.7-2.8 4.8l-21 .5c-.2 0-.3.2-.3.4s.1.3.4.3c-.1 0 17.4-.4 24.5-.5v1.7c0 .2 1.6 0-28.5.7l.8-3.8c10-3.6 9.7-3.3 9.8-3.6l1.2-3.5c.5-1.5 2.6-1 2.6.4.1 1.2 1 3.6 3.4 3.8 2.9.2 5.3-1.8 6.5-4.1 1.5.3 2.6 1.2 3.4 2.9zm-13.8-4.6v-2.8c9.6 0 9.3.1 10-.1v3.8c-.2.1-2 4.4-6.1 4.1-2.3-.2-2.7-2.9-2.8-3.2.1-.8-.4-1.5-1.1-1.8zm11.9-6.1c-.1 1.5-1.3 2.6-2.8 2.6h-10c-.7 0-1.2-.5-1.3-1.2 0-.1-20.1-96.4-20.1-96.5l-4.5-15.1c-.1-.5-.8-.2-.7.2l1.4 4.7 2.3 26.9c0 .1-3.4 79.6-3.4 77.9-.5 1.8-2.2 3.2-4.2 3.2h-10.7c-.3 0-.5-.2-.4-.5l-1.8-112.5 4.6 7.3c.7 1.1 2.3 1.3 3.3.3l16.1-16.6c.1-.1.3-.3.4-.5 6.2-1.3 13.2-3 19.3-4.6.6 5.6 10.5 104.9 12.5 124.4zm-10-125.8c-.3.1-11.2 3.1-21.6 5.3 0-.4-.1-.9-.3-1.3-.5-.8-4.6-7.2-4.4-6.9 1-.8 3.5-2.9 4.8-5.5.7.7 2.1 2 3 1.7.7-.2 1.9-1 2.6-1.4l16-3.7c0 6.8-.1 11.2-.1 11.8zm-19.5-68.4c-.9-.1-1.5-.1-1.9-.1 0-.2 0-.4.1-.7.4.1 1.1.4 1.8.8zm-18.2-21.5c3.9.6 9.1.3 13-.1-.3 1.3-.2 3 0 4.7l-1.9.2c-.5-1.5-1.8-2.2-3-2.2-1.3 0-2.5.8-3 2.3-.4-.1-.8-.1-1.2 0-.6-2-2.6-2.8-4.2-2.1.1-1.1.2-2 .3-2.8zm10.6 6c0 1.5-1.1 2.8-2.5 2.8s-2.5-1.3-2.5-2.8v-.1c.1-1.4 1.1-2.6 2.5-2.6 1.4-.1 2.5 1.1 2.5 2.7zm-11 1.4c.3.3.9-.1.9-.7s-.6-.9-.9-.7v-1.5c.1.1.3.2.5.1.2-.2.5-.3.7-.2.5.1.8.6.8.6.1.2.4.2.5.1.2-.1.2-.3.1-.5 0 0-.5-.7-1.3-.9-.4-.1-.9 0-1.3.3v-.6c1.7-1.1 3.7.3 3.7 2.4 0 1.4-1 2.8-2.5 2.8-.5 0-.9-.1-1.3-.4v-.8zm-.7.2c-.4-.7-.6-1.5-.4-2.1.1.3.3.6.5.9-.1.4-.1.8-.1 1.2zm2.5 10c-1.7-1.7-1.9-4.8-1.8-8.5.4.2.9.3 1.3.3 2 0 3.4-2 3.1-3.9.3-.1.6-.1.9 0v.5c0 1.8 1.4 3.4 3.2 3.4 2 0 3.4-2 3.1-4l1.9-.1c.1.6.1.8.2.9-.2.8-.3 1.5-.1 2.1.1.5.8.3.7-.2-.5-2.1 1.7-5.2 3.2-4.5 1.3.6.7 4.1-1.3 5.3-.3.2-.2.6.2.6.2 0 .9-.6 1-.7l-1.3 12.7s-5.7 7-6.1 7.4c-.1-.1-3.3-6.3-3.1-5.9 0-.1.1-3.5.1-3.3 2.3-.3 4.7-1.5 4.8-1.6.2-.1.2-.3.2-.5-.1-.2-.3-.2-.5-.1-3.2 1.6-7.2 2.5-9.7.1zm4.3 4-.1 1.2c-1.5.4-3.1.8-4.6 1.3 1.7-2.1 3.9-2.5 4.7-2.5zM170 221.3l8.9 10.1-2.1 1.4c-.2.1-.2.3-.1.5s.4.2.5.1l2.4-1.6c.1-.1 10.8-8.5 15-12.3 2.1-1.9 8.4-4.4 11.3-5.4-1.9 3.7-1.8 9.4.3 17-1.1.2-2 1.3-1.7 2.8.4 1.5 1.9 2.7 3.5 2.7 1.7 0 2.6-1.4 2.3-2.8-.3-1.4-1.8-2.6-3.4-2.7-2.7-9.6-1.6-14.6 0-17.2 1.8-.6 3.6-1.1 5.4-1.6l3.4 6.4c.1.2.4.2.6 0l6.3-7.7c1.6.1 3.2.3 3.3.3 4 3.4 3.5 9 1.8 14-.8.1-.3.7-2.8 5.4-1.8-.5-3.8-.3-5.8.7-.2.1-.3.2-.3.4-2.1 1.2-4.2 3.2-5.7 5.9-.9 1.5-.2 3.4 1.4 4l1.5.6c-.1.2 0 .3 0 .5.1.1.2.3.3.3l.8.3c.6.2 1.1-.1 1.3-.6.2-.5 0-1.1-.5-1.3l-.8-.3c-.3-.1-.6 0-.8.3v.1l-1.5-.6c-1.1-.4-1.7-1.9-1-3 1.5-2.5 3.4-4.4 5.5-5.6.2.1.3.1.5 0 3.9-1.9 7.5-.5 9 3.6.1.2.2.3.4.3.7 2.2.8 4.9.1 7.8-.3 1.3-1.6 1.9-2.8 1.4l-1.6-.6v-.1c.1-.3 0-.6-.3-.8-.7-.3-.8-.4-1.2-.4-.4 0-.8.2-.9.6-.2.5 0 1.1.5 1.3l.8.3c.3.1.6 0 .8-.3l1.6.6c1.5.6 3.4-.2 3.8-1.9.7-3 .6-5.8-.1-8.1.1-.2.2-.4.1-.6-.8-2-2-3.6-3.6-4.4.9-1.8 1.7-3.5 2.3-5 .1-.2 0-.5-.1-.7 1.7-4.8 2.3-10.3-1.2-14.1.4.1.8.1 1.1.2 4 .8 9.3 3.6 10.5 6.3.2.6 2.9 7.3 3 7.5l8.8 22.2c1 3-.1 6.3-2.6 8.3-4 3-17.3 12.7-21.8 15.1.3-2.9-2.1-9-5.9-9 4.2-3.2 16.8-12.6 16.9-12.7l3.4-2.3c.2-.1.2-.3.1-.5s-.3-.2-.5-.1l-3.1 2.1-5.3-9.1c-.1-.2-.3-.2-.5-.1s-.2.3-.1.5l5.3 9.2c-15.6 11.7-17.3 12.9-17.9 13.5-5 .6-7 1.9-7.7 2.5l-6.8-10.6c-.7-1.1-2.3-1.3-3.3-.3l-4.1 4.3c.5-10.6 1.1-20.1 1.1-20.3l.3-6.4c0-.2-.1-.4-.3-.4-.2 0-.4.1-.4.3l-.3 6.3-14 8.2c-2.7 1.3-6.1.7-8.1-1.6-7.7-8.5-12.9-14.6-14.5-16.7 4.8-.1 9.3-4.1 9.3-6.4zm37.1 10.5c0-.1 0-.1 0 0 1.1.1 2.2 1 2.5 2.1.3 1.1-.4 2-1.6 2-1.2 0-2.4-.9-2.7-2 .7.9 2 1 2.6.2.5-.8.1-1.8-.8-2.3zm.2 1c.4.7-.2 1.2-1 .9-.3-.1-.6-.4-.7-.8-.1-.6.4-.9 1-.7.3.2.5.4.7.6zm-47.6-21.4c.3.5 1.1 1.6 1.5 2-1 1.3-1 3.1.8 4.9.1.1.4.1.5 0 .1-.1.2-.4 0-.5-1.6-1.7-1.5-3.3-.6-4.2.1-.1.1-.3 0-.5 0 0-1.3-1.6-1.6-2.2-.6-1-.3-2.4-.1-2.5h.1c.9.2 2.6 2.5 4.3 5.2.1 0 4.2 6.9 4.6 7.6-.4 2.2-2.7 3.9-5 4.8-2.3-3.4-2.1-3.2-2.3-3.3-2.2-.4-4.3-1.5-5.9-2.6.5-.3.6-1.1.5-1.7.7.4 1.9-.2 1.4-1.8.5-.1.7-.3.8-.5.4-.7-.1-2-.2-2.1-.7-.9-1.5-2.6-1.6-2.6l-.8-1-3.8-3.8c-.5-.7-.6-1.9-.2-1.9 2.3 1.2 4.7 2.8 6.9 4.6.2.6.2 1.4.7 2.1z" class="color3c4150 svgShape"/><path fill="#ff6103" d="M210.6 199.9c.2.1.5.1.9.2.2 0 .3-.1.3-.3 0-.2-.1-.4-.3-.4-.3 0-.5-.1-.7-.1-.1 0-.1 0-.1-.1 0-.5.2-1.1.4-1.6.2-.4-.5-.7-.6-.3-.3.6-.4 1.2-.5 1.9 0 0 0 .4.6.7zM211.8 201.8s-.2.3-.6.3c-.3 0-.6-.1-.9-.3-.2-.1-.4-.1-.5.1-.1.2-.1.4.1.5.5.4 1 .5 1.4.4.6-.1 1-.6 1-.6.1-.1.1-.4-.1-.5-.1-.1-.3-.1-.4.1zM213.7 194.8c-.4 0-.7.3-.7.7 0 .4.3.8.7.8s.6-.3.6-.8c0-.4-.2-.7-.6-.7zM213.5 192.9c-.4.3.1.8.4.6.3-.2.5-.3.7-.2.5.1.8.6.8.6.2.4.8 0 .6-.4-.3-.7-1.4-1.4-2.5-.6zM222.3 194.4s.3.1.4.3c.1.1.1.3 0 .5s0 .4.2.4c.1.1.4 0 .4-.2.2-.5.1-.9 0-1.1-.3-.5-.8-.6-.9-.6-.5-.1-.6.6-.1.7zM517.9 392v-.6.6zM375.3 368.3V382H363v-13.7c0-3.6 2.8-6.5 6.2-6.5 3.3 0 6.1 2.9 6.1 6.5z" class="color3c4150 svgShape"/><g opacity=".1"><path fill="#ffffff" d="m371.3 363.6-6 9.2v-2.9c0-.3 0-.6.1-1l2.9-4.5c.9-.5 1.8-.8 3-.8-.1 0 0 0 0 0zM375.1 368.3v7.9l-3.6 5.5h-6.2v-3.2l8.9-13.6c.5 1 .9 2.2.9 3.4z" class="colorfff svgShape"/></g><path fill="#ffffff" d="M373.7 364c-.8-.4-1.6-.6-2.6-.6-3.4 0-6.2 2.9-6.2 6.5V382h-2v-13.7c0-3.6 2.8-6.5 6.2-6.5 1.7 0 3.2.7 4.4 1.9.1.1.2.1.2.3z" class="colorfff svgShape"/><path fill="#ff6103" d="M376.9 381.7h-1.3v-13.4c0-3.6-2.8-6.8-6.4-6.8-3.6 0-6.4 3.1-6.4 6.8v13.4h-1.3c-.1 0-.3.1-.3.3s.1.3.3.3H377c.1 0 .3-.1.3-.3s-.3-.3-.4-.3zm-12.1 0h-1.5v-13.4c0-3.5 2.7-6.3 5.9-6.3 1.2 0 2.5.4 3.6 1.3-.5-.1-1-.2-1.5-.2-3.5 0-6.4 3-6.4 6.7v11.9zm.5 0v-11.9c0-3.4 2.7-6.2 5.9-6.2.8 0 1.6.2 2.4.5.9 1.1 1.5 2.5 1.5 4.1v13.4h-9.8zM375.3 340.7v13.7H363v-13.7c0-3.6 2.8-6.5 6.2-6.5 3.3 0 6.1 2.9 6.1 6.5z" class="color3c4150 svgShape"/><g opacity=".1"><path fill="#ffffff" d="m371.3 336.1-6 9.2v-2.9c0-.3 0-.6.1-1l2.9-4.5c.9-.6 1.8-.9 3-.8-.1-.1 0-.1 0 0zM375.1 340.7v7.9l-3.6 5.5h-6.2V351l8.9-13.6c.5 1 .9 2.1.9 3.3z" class="colorfff svgShape"/></g><path fill="#ffffff" d="M373.7 336.4c-.8-.4-1.6-.6-2.6-.6-3.4 0-6.2 2.9-6.2 6.5v12.1h-2v-13.7c0-3.6 2.8-6.5 6.2-6.5 1.7 0 3.2.7 4.4 1.9.1.1.2.2.2.3z" class="colorfff svgShape"/><path fill="#ff6103" d="M376.9 354.1h-1.3v-13.4c0-3.6-2.8-6.8-6.4-6.8-3.6 0-6.4 3.1-6.4 6.8v13.4h-1.3c-.1 0-.3.1-.3.3s.1.3.3.3H377c.1 0 .3-.1.3-.3s-.3-.3-.4-.3zm-12.1 0h-1.5v-13.4c0-3.5 2.7-6.3 5.9-6.3 1.2 0 2.5.4 3.6 1.3-.5-.1-1-.2-1.5-.2-3.5 0-6.4 3-6.4 6.7v11.9zm.5 0v-11.9c0-3.4 2.7-6.2 5.9-6.2.8 0 1.6.2 2.4.5.9 1.1 1.5 2.5 1.5 4.1V354h-9.8zM375.3 313.1v13.7H363v-13.7c0-3.6 2.8-6.5 6.2-6.5 3.3 0 6.1 2.9 6.1 6.5z" class="color3c4150 svgShape"/><g opacity=".1"><path fill="#ffffff" d="m371.3 308.5-6 9.2v-2.9c0-.3 0-.6.1-1l2.9-4.5c.9-.5 1.8-.8 3-.8-.1 0 0 0 0 0zM375.1 313.1v7.9l-3.6 5.5h-6.2v-3.2l8.9-13.6c.5 1.1.9 2.2.9 3.4z" class="colorfff svgShape"/></g><path fill="#ffffff" d="M373.7 308.8c-.8-.4-1.6-.6-2.6-.6-3.4 0-6.2 2.9-6.2 6.5v12.1h-2v-13.7c0-3.6 2.8-6.5 6.2-6.5 2 0 3.9 1.2 4.6 2.2z" class="colorfff svgShape"/><path fill="#ff6103" d="M376.9 326.6h-1.3v-13.4c0-3.6-2.8-6.8-6.4-6.8-3.6 0-6.4 3.1-6.4 6.8v13.4h-1.3c-.1 0-.3.1-.3.3s.1.3.3.3H377c.1 0 .3-.1.3-.3s-.3-.3-.4-.3zm-12.1 0h-1.5v-13.4c0-3.5 2.7-6.3 5.9-6.3 1.2 0 2.5.4 3.6 1.3-.5-.1-1-.2-1.5-.2-3.5 0-6.4 3-6.4 6.7v11.9zm.5 0v-11.9c0-3.4 2.7-6.2 5.9-6.2.8 0 1.6.2 2.4.5.9 1.1 1.5 2.5 1.5 4.1v13.4h-9.8zM469.1 368.3V382h-12.3v-13.7c0-3.6 2.8-6.5 6.2-6.5 3.3 0 6.1 2.8 6.1 6.5z" class="color3c4150 svgShape"/><g opacity=".1"><path fill="#ffffff" d="m465.1 363.6-6 9.2v-2.9c0-.3 0-.6.1-1l2.9-4.5c.8-.5 1.8-.8 3-.8-.1 0-.1 0 0 0zM468.8 368.3v7.9l-3.6 5.5H459v-3.2l8.9-13.6c.6 1 .9 2.2.9 3.4z" class="colorfff svgShape"/></g><path fill="#ffffff" d="M467.5 364c-4-2-8.7 1.1-8.7 5.9V382h-2v-13.7c0-5.8 6.7-8.7 10.5-4.6.1.1.1.1.2.3z" class="colorfff svgShape"/><path fill="#ff6103" d="M470.7 381.7h-1.3v-13.4c0-3.6-2.8-6.8-6.4-6.8-3.6 0-6.4 3.1-6.4 6.8v13.4h-1.3c-.1 0-.3.1-.3.3s.1.3.3.3h15.5c.1 0 .3-.1.3-.3s-.3-.3-.4-.3zm-12.1 0H457v-13.4c0-5.2 5.6-8.1 9.5-5-4-1.1-8 2.2-8 6.5v11.9zm.5 0v-11.9c0-4.5 4.4-7.5 8.3-5.7.9 1.1 1.5 2.5 1.5 4.1v13.4h-9.8zM469.1 340.7v13.7h-12.3v-13.7c0-3.6 2.8-6.5 6.2-6.5 3.3 0 6.1 2.9 6.1 6.5z" class="color3c4150 svgShape"/><g opacity=".1"><path fill="#ffffff" d="m465.1 336.1-6 9.2v-2.9c0-.3 0-.6.1-1l2.9-4.5c.8-.6 1.8-.9 3-.8-.1-.1-.1-.1 0 0zM468.8 340.7v7.9l-3.6 5.5H459V351l8.9-13.6c.6 1 .9 2.1.9 3.3z" class="colorfff svgShape"/></g><path fill="#ffffff" d="M467.5 336.4c-4-2-8.7 1.1-8.7 5.9v12.1h-2v-13.7c0-3.6 2.8-6.5 6.2-6.5 1.7 0 3.2.7 4.4 1.9 0 .1 0 .2.1.3z" class="colorfff svgShape"/><path fill="#ff6103" d="M470.7 354.1h-1.3v-13.4c0-3.6-2.8-6.8-6.4-6.8-3.6 0-6.4 3.1-6.4 6.8v13.4h-1.3c-.1 0-.3.1-.3.3s.1.3.3.3h15.5c.1 0 .3-.1.3-.3s-.3-.3-.4-.3zm-12.1 0H457v-13.4c0-3.5 2.7-6.3 5.9-6.3 1.2 0 2.5.4 3.6 1.3-4-1.1-8 2.2-8 6.5v11.9zm.5 0v-11.9c0-4.5 4.4-7.5 8.3-5.7.9 1.1 1.5 2.5 1.5 4.1V354h-9.8zM469.1 313.1v13.7h-12.3v-13.7c0-3.6 2.8-6.5 6.2-6.5 3.3 0 6.1 2.9 6.1 6.5z" class="color3c4150 svgShape"/><g opacity=".1"><path fill="#ffffff" d="m465.1 308.5-6 9.2v-2.9c0-.3 0-.6.1-1l2.9-4.5c.8-.5 1.8-.8 3-.8-.1 0-.1 0 0 0zM468.8 313.1v7.9l-3.6 5.5H459v-3.2l8.9-13.6c.6 1.1.9 2.2.9 3.4z" class="colorfff svgShape"/></g><path fill="#ffffff" d="M467.5 308.8c-4-2-8.7 1.1-8.7 5.9v12.1h-2v-13.7c0-3.6 2.8-6.5 6.2-6.5 1.7 0 3.2.7 4.4 1.9 0 .1 0 .2.1.3z" class="colorfff svgShape"/><path fill="#ff6103" d="M470.7 326.6h-1.3v-13.4c0-3.6-2.8-6.8-6.4-6.8-3.6 0-6.4 3.1-6.4 6.8v13.4h-1.3c-.1 0-.3.1-.3.3s.1.3.3.3h15.5c.1 0 .3-.1.3-.3s-.3-.3-.4-.3zm-12.1 0H457v-13.4c0-3.5 2.7-6.3 5.9-6.3 1.2 0 2.5.4 3.6 1.3-4-1.1-8 2.2-8 6.5v11.9zm.5 0v-11.9c0-4.5 4.4-7.5 8.3-5.7.9 1.1 1.5 2.5 1.5 4.1v13.4h-9.8z" class="color3c4150 svgShape"/><path fill="#ffffff" d="M447.2 250.6h-63c0-18.4 14.1-33.3 31.5-33.3 17.4.1 31.5 15 31.5 33.3z" class="colorfff svgShape"/><path fill="#ff6103" d="M447.2 250.6h-60.6c1.2-14.6 11.3-26.5 24.6-29.5 1.6-.4 3.2-.6 4.8-.7.6-.1 1.3-.1 1.9-.1 2.1 0 4.1.2 6 .6 6.2 1.3 12.1 4.5 16.9 9.8.2.3 2.4 3.1 4.3 8.3 1.4 3.6 2.1 7.5 2.1 11.6z" class="color3c4150 svgShape"/><path fill="#ff6103" d="M447.4 250.3c-.1-18-13.9-33.2-31.8-33.2-17.5 0-31.8 15-31.8 33.5 0 .1.1.3.3.3h63.1c.1 0 .3-.1.3-.3-.1-.1-.1-.2-.1-.3zm-31.7-32.7c8.7 0 16.7 3.7 22.6 10.2-5.8-5.5-13.8-8.3-22.2-7.7-15.2.9-28.2 13.4-29.7 30.2h-2c.1-18 14.1-32.7 31.3-32.7zm-28.8 32.8c1.4-15.7 13.7-28.8 29.2-29.7 16.7-1.3 30.6 10.9 30.8 29.5v.3h-60z" class="color3c4150 svgShape"/><g opacity=".2"><path fill="#ffffff" d="m415.9 220.6-20.2 29.7h-4.9l20.2-29c1.6-.3 3.2-.6 4.9-.7zM446.1 242.9l-5.2 7.4h-6.2l9.1-14.3c1 2.2 1.8 4.5 2.3 6.9zM438.3 228.5l-15.6 21.9h-18.2l19.4-29.3c5.5 1 10.5 3.5 14.4 7.4z" class="colorfff svgShape"/></g><path fill="#ff6103" d="M397.4 342h37.1v45.7h-37.1z" class="color3c4150 svgShape"/><g opacity=".1"><path fill="#ffffff" d="m421.7 342-24.3 27.3v-4.9l19.9-22.4zM434.5 360v3.7l-21.3 24h-3.3zM434.5 342v11.1l-30.8 34.6h-6.3v-12.3l29.7-33.4z" class="colorfff svgShape"/></g><path fill="#ffffff" d="M434.5 342v2.8H400v42.9h-2.6V342zM438.1 342h-44.3v-5l44.2-.1z" class="colorfff svgShape"/><path fill="#ff6103" d="M393.8 342.3c-.1 0-.3-.1-.3-.3 0-.1.1-.3.3-.3h44v-4.5h-44c-.1 0-.3-.1-.3-.3 0-.1.1-.3.3-.3H438c.1 0 .1 0 .2.1s.1.1.1.2v5c0 .1-.1.3-.3.3l-44.2.1zM400.4 307.8h15.7v24h-15.7z" class="color3c4150 svgShape"/><g opacity=".2"><path fill="#ffffff" d="m411.2 307.8-11.1 16v-2.9l9.1-13.1zM413.5 331.8l2.7-3.9V324l-5.5 7.8zM406.4 331.8l9.8-14.1v-9.9H415l-14.9 21.4v2.6z" class="colorfff svgShape"/></g><path fill="#ffffff" d="M403.4 331.8v-20.5h12.8v-3.5h-15.9v24z" class="colorfff svgShape"/><path fill="#ff6103" d="M416.3 307.8H432v24h-15.7z" class="color3c4150 svgShape"/><g opacity=".2"><path fill="#ffffff" d="m427.1 307.8-11.1 16v-2.9l9.1-13.1zM429.4 331.8l2.6-3.9V324l-5.4 7.8zM422.3 331.8l9.7-14.1v-9.9h-1.2L416 329.2v2.6z" class="colorfff svgShape"/></g><path fill="#ffffff" d="M419.3 331.8v-20.5H432v-3.5h-15.8v24z" class="colorfff svgShape"/><path fill="#ff6103" d="M432 307.6h-31.8c-.1 0-.3.1-.3.3v24c0 .1.1.3.3.3H432c.1 0 .3-.1.3-.3v-24c0-.2-.1-.3-.3-.3zm-31.3 23.9V308h15.2v2.9h-12.5c-.1 0-.3.1-.3.3v20.3h-2.4zm3 0v-20h12.2v20h-12.2zm28.1 0h-12.2v-20h12.2v20zm0-20.5h-12.5c-.1 0-.3.1-.3.3v20.3h-2.5v-23.5h15.2v2.9z" class="color3c4150 svgShape"/><path fill="#ff6103" d="M547.4 401.3h-7.6v-14.2c2.8-.1 5.1-1.3 6.7-3.4 1.6-2.1 2.4-5.2 2.4-9.1 0-8.6-4.1-18.5-9.3-18.5-4.2 0-7.6 6.2-8.8 13.1-5.6 1.9-8.9 20.5.7 20.8v11.2H528v-4.4c0-.1-.1-.3-.3-.3h-5v-4.4c0-.1-.1-.3-.3-.3h-4.6c0 .1 0 .1 0 0h-.1c.1-2.4.1-1.4.1-.6 0-3.4-.1-20.7-.1-90.2h9.8c.1 0 .3-.1.3-.3v-12.9c0-.1-.1-.3-.3-.3H521v-7.3c0-.1-.1-.3-.3-.3H496V268h5.7c.1 0 .3-.1.3-.3v-10.5c0-.1-.1-.3-.3-.3H489v-19.5l1.7.8c1.4.6 2.8-.1 3.3-1.4.5-1.4-.1-2.9-1.4-3.5l-71.9-31v-9.5c3.8-3.3 6.3-8.1 6.3-13.6 0-9.8-8-17.8-17.8-17.8s-17.8 8-17.8 17.8c0 5.4 2.4 10.3 6.3 13.5V208l-58.5 25.3c-1.3.6-1.9 2.1-1.4 3.5.6 1.4 2.1 2 3.3 1.4l1.7-.7V257h-12.7c-.1 0-.3.1-.3.3v10.5c0 .1.1.3.3.3h5.7v12.4H311c-.1 0-.3.1-.3.3v7.3h-6.5c-.1 0-.3.1-.3.3V301c0 .1.1.3.3.3h9.2v90.8h-4.7c-.1 0-.3.1-.3.3v4.4h-4.7v-6.6c9.7-.4 6.3-19 .7-20.8-1.2-6.9-4.7-13.1-8.8-13.1-9.1 0-15.3 30.6-.3 31v14.2h-4.8c-.1 0-.3.1-.3.3 0 .1.1.3.3.3h256.7c.1 0 .3-.1.3-.3.1-.4 0-.5-.1-.5zm-20.1-112.9v12.4h-70.9v-12.4h70.9zm-213.2 99.5h203.2v4.1H314.1v-4.1zm0-.5v-86.2H356v86.2h-41.9zm63.2-82.4h4.5v82.5h-25.4v-86.2h19.9v2.7c.1.5.5 1 1 1zm78.6-1.1c0 .3-.2.5-.5.5h-78.1c-.3 0-.5-.2-.5-.5v-17.3c0-.3.2-.5.5-.5h78.1c.3 0 .5.2.5.5v17.3zm.5 0v-2.7h18.4v86.2H451V305h4.5c.5 0 .9-.5.9-1.1zm-5.9 1.1v82.5h-4.3V305h4.3zM400 344.6c-.1 0-.3.1-.3.3v42.6h-2.1v-45.2h.4-.1 36.2v2.3H400zm34.2.5v42.4h-34v-42.4h34zm-40.1-3.3v-4.5h43.7v4.5c-7-.1-41.5 0-43.7 0zm40.6.4h3.3c.1 0 .1 0 .2-.1 0 0 .1-.1.1-.2v-5c0-.1-.1-.2-.3-.2h-44.2c-.1 0-.3.1-.3.3v5c0 .1 0 .1.1.2s.1.1.2.1h3.3v45.2h-10V305h58.6v82.5h-11v-45.3zM386.6 305v82.5h-4.3V305h4.3zm88.8 82.4v-86.2h41.9v86.2h-41.9zm-83.3-208.1c0-9.4 7.7-17.1 17.1-17.1 9.4 0 17.1 7.7 17.1 17.1 0 9.5-7.8 17.1-17.1 17.1-9.5 0-17.1-7.8-17.1-17.1zm28 14.1v8.6l-2.6-1.1v-5.8c1.6-.9 2.4-1.5 2.6-1.7zm-3.3 2v5.2c-.6-.2-1.3-.2-1.8 0l-13.3 5.7v-11c2.3 1.1 4.9 1.7 7.6 1.7s5.2-.5 7.5-1.6zm-15.8-.3v11.6l-2.6 1.1v-14.4c.6.5 1.6 1.2 2.6 1.7zm-60.1 42.7c-1 .4-2.2-.1-2.7-1.2-.4-1.1.1-2.4 1.1-2.8 1.2-.5 73.5-31.7 75.8-32.7.5-.2 1-.2 1.5 0 73.2 31.6 75.7 32.7 75.8 32.7 1 .5 1.5 1.7 1.1 2.8-.4 1.1-1.7 1.6-2.6 1.2-4.4-1.9 1.4.6-75-32.3h-.2l-74.8 32.3zm147.7-.5V257H343.3v-19.7l72.6-31.3c16.3 7 57.1 24.6 72.7 31.3zm-158.2 30.2v-10h171.1v10H330.4zm157.8 9c-.1 0-.3.1-.3.3v3.6h-7.1v-3.6c0-.1-.1-.3-.3-.3s-.3.1-.3.3v3.6h-7.1v-3.6c0-.1-.1-.3-.3-.3-.1 0-.3.1-.3.3v3.6h-7.1v-3.6c0-.1-.1-.3-.3-.3-.1 0-.3.1-.3.3v3.6H458v-3.6c0-.1-.1-.3-.3-.3-.1 0-.3.1-.3.3v3.6h-7.1v-3.6c0-.1-.1-.3-.3-.3-.1 0-.3.1-.3.3v3.6h-7.1v-3.6c0-.1-.1-.3-.3-.3s-.3.1-.3.3v3.6h-7.1v-3.6c0-.1-.1-.3-.3-.3s-.3.1-.3.3v3.6h-7.1v-3.6c0-.1-.1-.3-.3-.3-.1 0-.3.1-.3.3v3.6H420v-3.6c0-.1-.1-.3-.3-.3-.1 0-.3.1-.3.3v3.6h-7.1v-3.6c0-.1-.1-.3-.3-.3s-.3.1-.3.3v3.6h-7.1v-3.6c0-.1-.1-.3-.3-.3-.1 0-.3.1-.3.3v3.6h-7.1v-3.6c0-.1-.1-.3-.3-.3s-.3.1-.3.3v3.6h-7.1v-3.6c0-.1-.1-.3-.3-.3-.1 0-.3.1-.3.3v3.6H382v-3.6c0-.1-.1-.3-.3-.3-.1 0-.3.1-.3.3v3.6h-7.1v-3.6c0-.1-.1-.3-.3-.3-.1 0-.3.1-.3.3v3.6h-7.1v-3.6c0-.1-.1-.3-.3-.3-.1 0-.3.1-.3.3v3.6h-7.1v-3.6c0-.1-.1-.3-.3-.3s-.3.1-.3.3v3.6h-7.1v-3.6c0-.1-.1-.3-.3-.3s-.3.1-.3.3v3.6H344V273c0-.1-.1-.3-.3-.3-.1 0-.3.1-.3.3v7.4h-7.1V268h159.1v12.4h-7.1v-3.6c.1-.2 0-.3-.1-.3zm-176.9 4.3h209.2v7h-64.1v-1.3c0-.6-.4-1-1-1h-78.1c-.5 0-1 .5-1 1v1.3h-65.1v-7zm-6.7 20v-12.4h71.8v12.4h-71.8zm4.5 91.7h213.2v4.1H309.1v-4.1zm-13.4-17.6c-.1 0-.3.1-.3.3v11.5c-14.4-.4-8.1-30 .3-30 3.8 0 7 6 8.3 12.5h-.4c-3.6 0-6.4 6.7-6.4 12.6 0 1.9.3 3.5.9 4.7-.7.2-1.4.3-2.1.3v-11.5c0-.3-.1-.4-.3-.4zm7.6 26.4H296v-14.2c.8 0 1.6-.1 2.3-.3 1.2 2.3 3.1 3.2 5.1 3.3v11.2zm0-19.4v7.6c-4-.1-5.6-3.8-5.6-7.9 0-5.5 2.6-12.1 5.9-12.1 5.5 0 9.8 19.6.3 20v-7.6c-.1-.3-.6-.3-.6 0zm224.2 19.4H303.8v-4.1h223.6v4.1zm3.9-19.4v7.6c-3.5-.1-5.6-3.1-5.6-7.9 0-4.3 2.1-12.1 5.9-12.1 5.5 0 9.7 19.7.3 20v-7.6c-.1-.3-.6-.3-.6 0zm7.9 19.4h-7.4v-11.2c1.9-.1 3.9-1 5.1-3.3.7.2 1.5.3 2.3.3v14.2zm.2-26.4c-.1 0-.3.1-.3.3v11.5c-.8 0-1.5-.1-2.1-.3 2.5-5.8-1-18-5.9-17.2 1.2-6.5 4.5-12.5 8.3-12.5 4.9 0 8.8 9.9 8.8 18 0 7.4-3.2 11.8-8.6 12v-11.5c.1-.2 0-.3-.2-.3z" class="color3c4150 svgShape"/><path fill="#ffffff" d="M322.2 348.5h18.5v3.4h-18.5zM322.2 378.1h18.5v3.4h-18.5zM322.2 351.9h6.9v26.2h-6.9zM340.7 351.9h6.9v26.2h-6.9z" class="colorfff svgShape"/><path fill="#ff6103" d="M322.3 381.7h18.5c.1 0 .3-.1.3-.3v-3.2h6.7c.1 0 .3-.1.3-.3v-26.1c0-.1-.1-.3-.3-.3H341v-3.2c0-.1-.1-.3-.3-.3h-18.5c-.2 0-.3.1-.3.3v33c.2.2.3.4.4.4zm18.7-29.6h6.4v3.7H341v-3.7zm0 4.2h6.4v5.4H341v-5.4zm0 5.9h6.4v5.4H341v-5.4zm0 5.9h6.4v5.4H341v-5.4zm0 6h6.4v3.7H341v-3.7zm-18.4-25.4h18v2.9h-18v-2.9zm0 3.4h6.4v3.7h-6.4v-3.7zm0 4.2h6.4v5.4h-6.4v-5.4zm0 5.9h6.4v5.4h-6.4v-5.4zm0 5.9h6.4v5.4h-6.4v-5.4zm0 6h6.4v3.7h-6.4v-3.7zm0 4.1h18v2.9h-18v-2.9z" class="color3c4150 svgShape"/><g opacity=".2"><path fill="#ffffff" d="m335.5 351.9-6.1 8.6v3.2l7.9-11.8zM340.2 377.8v-3.6l-1.7 3.6zM332 377.8l8.6-11.2v-14.1l-11.2 17.4v7.9z" class="colorfff svgShape"/></g><path fill="#ffffff" d="M322.2 307.3h18.5v3.4h-18.5zM322.2 336.9h18.5v3.4h-18.5z" class="colorfff svgShape"/><path fill="#ffffff" d="M322.2 310.8h6.9V337h-6.9zM340.7 310.8h6.9V337h-6.9z" class="colorfff svgShape"/><path fill="#ff6103" d="M322.3 340.5h18.5c.1 0 .3-.1.3-.3V337h6.7c.1 0 .3-.1.3-.3v-26.2c0-.1-.1-.3-.3-.3H341V307c0-.1-.1-.3-.3-.3h-18.5c-.2 0-.3.1-.3.3v33c.2.4.3.5.4.5zm18.7-29.6h6.4v3.7H341v-3.7zm0 4.2h6.4v5.4H341v-5.4zm0 5.9h6.4v5.4H341V321zm0 6h6.4v5.4H341V327zm0 5.9h6.4v3.7H341v-3.7zm-18.4-25.4h18v2.9h-18v-2.9zm0 3.4h6.4v3.7h-6.4v-3.7zm0 4.2h6.4v5.4h-6.4v-5.4zm0 5.9h6.4v5.4h-6.4V321zm0 6h6.4v5.4h-6.4V327zm0 5.9h6.4v3.7h-6.4v-3.7zm0 4.2h18v2.9h-18v-2.9z" class="color3c4150 svgShape"/><g opacity=".2"><path fill="#ffffff" d="m335.5 310.7-6.1 8.6v3.2l7.9-11.8zM340.2 336.6V333l-1.7 3.6zM332 336.6l8.6-11.2v-14.1l-11.2 17.4v7.9z" class="colorfff svgShape"/></g><path fill="#ffffff" d="M483.5 307.3H502v3.4h-18.5zM483.5 336.9H502v3.4h-18.5z" class="colorfff svgShape"/><path fill="#ffffff" d="M483.5 310.8h6.9V337h-6.9zM502 310.8h6.9V337H502z" class="colorfff svgShape"/><path fill="#ff6103" d="M509 310.4h-6.7v-3.2c0-.1-.1-.3-.3-.3h-18.5c-.1 0-.3.1-.3.3v33c0 .2.1.3.3.3H502c.1 0 .3-.1.3-.3V337h6.7c.1 0 .3-.1.3-.3v-26.2c0 .1-.1-.1-.3-.1zm-25.1.5h6.4v3.7h-6.4v-3.7zm0 4.2h6.4v5.4h-6.4v-5.4zm0 5.9h6.4v5.4h-6.4V321zm0 6h6.4v5.4h-6.4V327zm0 5.9h6.4v3.7h-6.4v-3.7zm18 7.1h-18v-2.9h18v2.9zm0-29.6h-18v-2.9h18v2.9zm6.9 26.2h-6.4v-3.7h6.4v3.7zm0-4.2h-6.4V327h6.4v5.4zm0-5.9h-6.4V321h6.4v5.5zm0-6h-6.4v-5.4h6.4v5.4zm0-5.9h-6.4v-3.7h6.4v3.7z" class="color3c4150 svgShape"/><g opacity=".2"><path fill="#ffffff" d="m497 310.7-6.2 8.6v3.2l7.9-11.8zM501.6 336.6V333l-1.7 3.6zM493.5 336.6l8.5-11.2v-14.1l-11.2 17.4v7.9z" class="colorfff svgShape"/></g><path fill="#ffffff" d="M483.5 348.5H502v3.4h-18.5zM483.5 378.1H502v3.4h-18.5zM483.5 351.9h6.9v26.2h-6.9zM502 351.9h6.9v26.2H502z" class="colorfff svgShape"/><path fill="#ff6103" d="M509 351.6h-6.7v-3.2c0-.1-.1-.3-.3-.3h-18.5c-.1 0-.3.1-.3.3v33c0 .1.1.3.3.3H502c.1 0 .3-.1.3-.3v-3.2h6.7c.1 0 .3-.1.3-.3v-26.1c0-.1-.1-.2-.3-.2zm-25.1.5h6.4v3.7h-6.4v-3.7zm0 4.2h6.4v5.4h-6.4v-5.4zm0 5.9h6.4v5.4h-6.4v-5.4zm0 5.9h6.4v5.4h-6.4v-5.4zm0 6h6.4v3.7h-6.4v-3.7zm18 7.1h-18v-2.9h18v2.9zm0-29.6h-18v-2.9h18v2.9zm6.9 26.1h-6.4V374h6.4v3.7zm0-4.1h-6.4v-5.4h6.4v5.4zm0-6h-6.4v-5.4h6.4v5.4zm0-5.9h-6.4v-5.4h6.4v5.4zm0-5.9h-6.4v-3.7h6.4v3.7z" class="color3c4150 svgShape"/><g opacity=".2"><path fill="#ffffff" d="m497 351.9-6.2 8.6v3.2l7.9-11.8zM501.6 377.8v-3.6l-1.7 3.6zM493.5 377.8l8.5-11.2v-14.1l-11.2 17.4v7.9z" class="colorfff svgShape"/></g></svg>