<svg xmlns="http://www.w3.org/2000/svg" enable-background="new 0 0 2000 2000" viewBox="45.707 426.939 1903.139 1441.451"><g opacity=".35"><path fill="#ffcaab" d="M137.67 932.69L137.67 932.69c0-101.81 88.52-184.34 197.71-184.34h41.24c-19.29-15.57-31.51-38.55-31.51-64.2v0c0-46.89 40.77-84.91 91.07-84.91h137.26c-13.88-11.14-22.71-27.61-22.71-46.03 0-33.55 29.17-60.75 65.16-60.75h344.67c35.99 0 65.16 27.2 65.16 60.75 0 33.55-29.17 60.75-65.16 60.75H831.51c-24.03 15.29-39.81 41.01-39.81 70.18v0c0 25.65 12.22 48.64 31.51 64.2h212.24c109.19 0 197.71 82.53 197.71 184.34l0 0c0 101.81-88.52 184.34-197.71 184.34h281.18c50.29 0 91.07 38.02 91.07 84.91 0 46.89-40.77 84.91-91.07 84.91h114.57c125.17 0 229.08 84.61 249.7 195.82h40.12c78.05 0 141.32 58.99 141.32 131.76v13.35c0 72.77-63.27 131.76-141.32 131.76h-289.82H482.7h-91.55c-139.99 0-253.49-105.81-253.49-236.34v0c0-130.53 113.49-236.34 253.49-236.34h443.77c-50.3 0-91.07-38.02-91.07-84.91 0-46.89 40.77-84.91 91.07-84.91H335.38C226.19 1117.03 137.67 1034.5 137.67 932.69zM1145.23 613.97c-32.69 0-59.2-27.2-59.2-60.75 0-33.55 26.5-60.75 59.2-60.75 32.69 0 59.2 27.2 59.2 60.75C1204.43 586.77 1177.93 613.97 1145.23 613.97z" class="colorabe9ff svgShape"/></g><ellipse cx="1000" cy="1762.22" fill="#23201f" opacity=".15" rx="857.84" ry="40.65" class="color231f20 svgShape"/><path fill="#e89666" d="M213.48,1708.2c2.29-1.67,6.93,0.33,22.02-5.95c22.01-9.17,30.61-56.54,30.61-56.54      c-33.49-4.19-31.37,44.07-44.34,52.32c-5.85,3.72-8.6,7.33-9.87,10.17H213.48z" class="color66e8c4 svgShape"/><path fill="#d2753f" d="M255.72,1659.82c-6.89,14.04-15.01,34.74-28.73,41.35c-3.83,1.84-6.63,3.93-8.72,5.98      c3.31-0.41,8.53-1.27,17.23-4.9c22.01-9.17,30.61-56.54,30.61-56.54S262.61,1645.78,255.72,1659.82z" class="color3fd2c5 svgShape"/><path fill="#e67635" d="M199.35,1708.2h3.63c2.36-5.02,3.12-14.44-4.77-31.76c-14.6-32.04-21.97-73.59-11.79-85.81      c0,0-34.84,24.83-26.92,50.66C166.94,1665.53,204.36,1681.68,199.35,1708.2z" class="color35bfe6 svgShape"/><path fill="#d2530a" d="M200.83,1708.2h2.15c2.36-5.01,3.12-14.44-4.77-31.76c-14.6-32.04-21.97-73.59-11.79-85.81      c0,0-22.99,25.57-14.27,50.06C180.76,1664.87,207.3,1677.45,200.83,1708.2z" class="color0a88d2 svgShape"/><path fill="#d57c49" d="M164.95,1694.66c13.26,5.4,18.93,8.99,22.63,13.54h4.65c-3.48-10.52-5.55-21.77-13.72-30.28      c-9.27-9.66-45.01-25.56-46.23-27.4C131.05,1648.68,147.04,1687.36,164.95,1694.66z" class="color49d3d5 svgShape"/><path fill="#b84d0f" d="M188.14,1705.23c0.28,0.84,0.68,1.87,1.16,2.97h2.93c-3.48-10.52-5.55-21.77-13.72-30.28      c-9.27-9.66-45.01-25.56-46.23-27.4c0,0,17.34,21.75,36.63,31.69C182.72,1689.33,186.38,1699.85,188.14,1705.23z" class="color0fa1b8 svgShape"/><path fill="#e89666" d="M209.41,1693.01c-0.45,6.34-1.88,11.41-3.4,15.19h2.54c8.7-11.24,22.09-33.04,19.58-58.5      c-3.66-37.21-7.65-83.86-7.65-83.86s-48.98,37.14-24.88,78.33C207.62,1664.71,210.25,1681.09,209.41,1693.01z" class="color66e8c7 svgShape"/><path fill="#d2753f" d="M211.9,1624.37c4.97,30.84,5.03,65.36-2.88,79.97c1.44-1.02,2.99-2.1,4.57-3.19       c7.97-12.15,16.61-30.57,14.55-51.45c-3.66-37.21-7.65-83.86-7.65-83.86S205.43,1584.23,211.9,1624.37z" class="color3fd2c5 svgShape"/><path fill="#f9dbca" d="M238.21,1705.94h-55.75c-4.94,0-8.69,4.46-7.84,9.32l7.12,41.03c1.11,5.83,6.2,10.04,12.13,10.04h32.93     c5.93,0,11.02-4.22,12.13-10.04l7.12-41.03C246.9,1710.4,243.15,1705.94,238.21,1705.94z" class="colorcadbf9 svgShape"/><path fill="#ebbca1" d="M246.16,1714.18c0.16-4.42-3.38-8.24-7.95-8.24h-55.75c-4.57,0-8.11,3.81-7.95,8.24H246.16z" class="colora1b7eb svgShape"/><path fill="#ebbca1" d="M238.21,1705.94h-15.5c4.94,0,8.69,4.45,7.85,9.32l-7.12,41.03c-1.11,5.83-6.2,10.04-12.13,10.04h15.5     c5.93,0,11.02-4.22,12.13-10.04l7.12-41.03C246.9,1710.4,243.15,1705.94,238.21,1705.94z" class="colora1b7eb svgShape"/><path fill="#e89666" d="M1773.04,1708.2c2.29-1.67,6.93,0.33,22.02-5.95c22.01-9.17,30.61-56.54,30.61-56.54      c-33.49-4.19-31.37,44.07-44.34,52.32c-5.85,3.72-8.6,7.33-9.87,10.17H1773.04z" class="color66e8c4 svgShape"/><path fill="#d2753f" d="M1815.28,1659.82c-6.89,14.04-15.01,34.74-28.73,41.35c-3.83,1.84-6.63,3.93-8.72,5.98      c3.31-0.41,8.53-1.27,17.23-4.9c22.01-9.17,30.61-56.54,30.61-56.54S1822.17,1645.78,1815.28,1659.82z" class="color3fd2c5 svgShape"/><path fill="#e67635" d="M1758.92,1708.2h3.63c2.36-5.02,3.12-14.44-4.77-31.76c-14.6-32.04-21.97-73.59-11.79-85.81      c0,0-34.84,24.83-26.92,50.66C1726.5,1665.53,1763.93,1681.68,1758.92,1708.2z" class="color35bfe6 svgShape"/><path fill="#d2530a" d="M1760.39,1708.2h2.15c2.36-5.01,3.12-14.44-4.77-31.76c-14.6-32.04-21.97-73.59-11.79-85.81      c0,0-22.99,25.57-14.27,50.06C1740.32,1664.87,1766.87,1677.45,1760.39,1708.2z" class="color0a88d2 svgShape"/><path fill="#d57c49" d="M1724.51,1694.66c13.26,5.4,18.93,8.99,22.63,13.54h4.65c-3.48-10.52-5.55-21.77-13.72-30.28      c-9.27-9.66-45.01-25.56-46.23-27.4C1690.61,1648.68,1706.61,1687.36,1724.51,1694.66z" class="color49d3d5 svgShape"/><path fill="#b84d0f" d="M1747.7,1705.23c0.28,0.84,0.68,1.87,1.16,2.97h2.93c-3.48-10.52-5.55-21.77-13.72-30.28      c-9.27-9.66-45.01-25.56-46.23-27.4c0,0,17.34,21.75,36.63,31.69C1742.29,1689.33,1745.94,1699.85,1747.7,1705.23z" class="color0fa1b8 svgShape"/><path fill="#e89666" d="M1768.97,1693.01c-0.45,6.34-1.88,11.41-3.4,15.19h2.54c8.7-11.24,22.09-33.04,19.58-58.5      c-3.66-37.21-7.65-83.86-7.65-83.86s-48.98,37.14-24.88,78.33C1767.18,1664.71,1769.81,1681.09,1768.97,1693.01z" class="color66e8c7 svgShape"/><path fill="#d2753f" d="M1771.46,1624.37c4.97,30.84,5.03,65.36-2.88,79.97c1.44-1.02,2.99-2.1,4.57-3.19       c7.97-12.15,16.61-30.57,14.55-51.45c-3.66-37.21-7.65-83.86-7.65-83.86S1764.99,1584.23,1771.46,1624.37z" class="color3fd2c5 svgShape"/><path fill="#f9dbca" d="M1797.77,1705.94h-55.75c-4.94,0-8.69,4.46-7.85,9.32l7.12,41.03c1.11,5.83,6.2,10.04,12.13,10.04h32.93     c5.93,0,11.02-4.22,12.13-10.04l7.12-41.03C1806.46,1710.4,1802.71,1705.94,1797.77,1705.94z" class="colorcadbf9 svgShape"/><path fill="#ebbca1" d="M1805.72,1714.18c0.16-4.42-3.38-8.24-7.95-8.24h-55.75c-4.57,0-8.11,3.81-7.95,8.24H1805.72z" class="colora1b7eb svgShape"/><path fill="#ebbca1" d="M1797.77,1705.94h-15.5c4.94,0,8.69,4.45,7.84,9.32l-7.12,41.03c-1.11,5.83-6.2,10.04-12.13,10.04h15.5     c5.93,0,11.02-4.22,12.13-10.04l7.12-41.03C1806.46,1710.4,1802.71,1705.94,1797.77,1705.94z" class="colora1b7eb svgShape"/><g><path fill="#f9ebe3" d="M453.4,1496.04h-48.56l2.46,198.57c0,0.08,0,0.16,0,0.25c0,0.32,0.01,0.63,0.02,0.95l0,0.08     c0,0.05,0,0.09,0.01,0.14c0.54,13.12,10.1,23.58,21.83,23.58c12.07,0,21.85-11.08,21.85-24.74c0-0.5-0.01-1-0.04-1.5     L453.4,1496.04z" class="colore3f7f9 svgShape"/><path fill="#fd833b" d="M448.11,1691.79c0-0.5-0.01-1-0.04-1.5l1.36-126.61c-12.12,0.33-31.19,0.72-40.63-0.67l1.38,128.53     c0,0.08,0,0.16,0,0.25c0,0.32,0.01,0.63,0.02,0.95l0,0.08c0,0.05,0,0.09,0.01,0.14c0.47,13.12,8.77,23.58,18.94,23.58     C439.62,1716.53,448.11,1705.45,448.11,1691.79z" class="colorfd3b4c svgShape"/><path fill="#efddd3" d="M456.03,1498.78h-53.62c-1.17,0-2.13-1.54-2.13-3.42l0,0c0-1.88,0.96-3.42,2.13-3.42h53.62     c1.17,0,2.13,1.54,2.13,3.42l0,0C458.16,1497.24,457.21,1498.78,456.03,1498.78z" class="colord3eeef svgShape"/><path fill="#ef762e" d="M442.23,1563.86v145.81c3.62-4.51,5.88-10.84,5.88-17.88c0-0.5-0.01-1-0.04-1.5l1.36-126.61     C447.23,1563.74,444.79,1563.81,442.23,1563.86z" class="coloref2e45 svgShape"/><path fill="#ffffff" d="M415.15,1613.83L415.15,1613.83c-0.88,0-1.59-0.71-1.59-1.59v-25.49c0-0.88,0.71-1.59,1.59-1.59l0,0     c0.88,0,1.59,0.71,1.59,1.59v25.49C416.74,1613.11,416.03,1613.83,415.15,1613.83z" class="colorfff svgShape"/><path fill="#f9ebe3" d="M536.73,1496.04h-48.56l2.46,198.57c0,0.08,0,0.16,0,0.25c0,0.32,0.01,0.63,0.02,0.95l0,0.08     c0,0.05,0,0.09,0.01,0.14c0.54,13.12,10.1,23.58,21.83,23.58c12.07,0,21.85-11.08,21.85-24.74c0-0.5-0.01-1-0.04-1.5     L536.73,1496.04z" class="colore3f7f9 svgShape"/><path fill="#f0884b" d="M532.46,1591.52h-40.02l1.08,100.02c0,0.08,0,0.16,0,0.25c0,0.32,0.01,0.63,0.02,0.95l0,0.08     c0,0.05,0,0.09,0.01,0.14c0.47,13.12,8.77,23.58,18.94,23.58c10.47,0,18.96-11.08,18.96-24.74c0-0.5-0.01-1-0.04-1.5     L532.46,1591.52z" class="color834bf0 svgShape"/><path fill="#efddd3" d="M539.35,1498.78h-53.62c-1.17,0-2.13-1.54-2.13-3.42l0,0c0-1.88,0.96-3.42,2.13-3.42h53.62     c1.17,0,2.13,1.54,2.13,3.42l0,0C541.49,1497.24,540.53,1498.78,539.35,1498.78z" class="colord3eeef svgShape"/><path fill="#c16e3d" d="M532.46,1591.52h-6.9v118.15c0,0,0,0,0,0c1.34-1.67,2.49-3.6,3.42-5.71c0.01-0.03,0.03-0.06,0.04-0.08     c0.28-0.65,0.53-1.32,0.77-2.01c0.03-0.07,0.06-0.14,0.08-0.22c0.22-0.64,0.4-1.31,0.58-1.98c0.03-0.12,0.07-0.24,0.1-0.36     c0.15-0.62,0.27-1.26,0.39-1.9c0.03-0.18,0.08-0.35,0.11-0.53c0.1-0.62,0.17-1.26,0.23-1.91c0.02-0.2,0.05-0.4,0.07-0.61     c0.07-0.85,0.1-1.7,0.1-2.57c0-0.5-0.01-1-0.04-1.5L532.46,1591.52z" class="color6b3dc1 svgShape"/><path fill="#ffffff" d="M498.47,1658.44L498.47,1658.44c-0.88,0-1.59-0.71-1.59-1.59v-25.49c0-0.88,0.71-1.59,1.59-1.59l0,0     c0.88,0,1.59,0.71,1.59,1.59v25.49C500.06,1657.72,499.35,1658.44,498.47,1658.44z" class="colorfff svgShape"/><path fill="#f9ebe3" d="M623.23,1496.04h-48.56l2.46,198.57c0,0.08,0,0.16,0,0.25c0,0.32,0.01,0.63,0.02,0.95l0,0.08     c0,0.05,0,0.09,0.01,0.14c0.54,13.12,10.1,23.58,21.83,23.58c12.07,0,21.85-11.08,21.85-24.74c0-0.5-0.01-1-0.04-1.5     L623.23,1496.04z" class="colore3f7f9 svgShape"/><path fill="#f95d00" d="M618.96,1591.52h-40.02l1.08,100.02c0,0.08,0,0.16,0,0.25c0,0.32,0.01,0.63,0.02,0.95l0,0.08     c0,0.05,0,0.09,0.01,0.14c0.47,13.12,8.77,23.58,18.94,23.58c10.47,0,18.96-11.08,18.96-24.74c0-0.5-0.01-1-0.04-1.5     L618.96,1591.52z" class="colorf99a00 svgShape"/><path fill="#efddd3" d="M625.86,1498.78h-53.62c-1.17,0-2.13-1.54-2.13-3.42l0,0c0-1.88,0.96-3.42,2.13-3.42h53.62     c1.17,0,2.13,1.54,2.13,3.42l0,0C627.99,1497.24,627.03,1498.78,625.86,1498.78z" class="colord3eeef svgShape"/><path fill="#e25b0a" d="M618.96,1591.52h-6.9v118.15c0,0,0,0,0,0c1.34-1.67,2.49-3.6,3.42-5.71c0.01-0.03,0.03-0.06,0.04-0.08     c0.28-0.65,0.53-1.32,0.77-2.01c0.03-0.07,0.06-0.14,0.08-0.22c0.22-0.64,0.4-1.31,0.58-1.98c0.03-0.12,0.07-0.24,0.1-0.36     c0.15-0.62,0.27-1.26,0.39-1.9c0.03-0.18,0.08-0.35,0.1-0.53c0.1-0.62,0.17-1.26,0.23-1.91c0.02-0.2,0.05-0.4,0.07-0.61     c0.07-0.85,0.1-1.7,0.1-2.57c0-0.5-0.01-1-0.04-1.5L618.96,1591.52z" class="colore2890a svgShape"/><path fill="#ffffff" d="M584.98,1658.44L584.98,1658.44c-0.88,0-1.59-0.71-1.59-1.59v-25.49c0-0.88,0.71-1.59,1.59-1.59l0,0     c0.88,0,1.59,0.71,1.59,1.59v25.49C586.57,1657.72,585.86,1658.44,584.98,1658.44z" class="colorfff svgShape"/><path fill="#e87736" d="M684.58,1760.47H347.96v-17.53c0-7.03,5.7-12.73,12.73-12.73h311.16c7.03,0,12.73,5.7,12.73,12.73V1760.47z" class="color7536e8 svgShape"/><rect width="336.62" height="11.35" x="347.96" y="1749.12" fill="#cc6225" class="color5a25cc svgShape"/><rect width="7.56" height="230.72" x="363.09" y="1499.49" fill="#e87736" class="color7536e8 svgShape"/><rect width="7.56" height="230.72" x="658.1" y="1499.49" fill="#e87736" class="color7536e8 svgShape"/><rect width="336.62" height="7.56" x="347.96" y="1499.49" fill="#543421" class="color232154 svgShape"/></g><g><path fill="#f9f9f9" d="M912.29,1465.76H225.34c-12.08,0-21.88-9.79-21.88-21.88v-424.42c0-12.08,9.79-21.88,21.88-21.88h686.95      c12.08,0,21.88,9.79,21.88,21.88v424.42C934.16,1455.97,924.37,1465.76,912.29,1465.76z" class="colorf9f9f9 svgShape"/><path fill="#efecea" d="M934.16,1443.88v-424.42c0-12.08-9.79-21.88-21.88-21.88h-58.51c5.02,87.43,10.72,295.69-42.71,367.54      c-52.94,71.19-437.2,79.34-607.57,79.41c0.35,11.78,9.98,21.23,21.84,21.23h686.95      C924.37,1465.76,934.16,1455.97,934.16,1443.88z" class="coloreaeaef svgShape"/><path fill="#fe843c" d="M912.29,997.59H225.34c-12.08,0-21.88,9.79-21.88,21.88v105.01h730.7v-105.01      C934.17,1007.38,924.37,997.59,912.29,997.59z" class="colorfe6d3c svgShape"/><path fill="#ff6103" d="M920.45,999.18c0.37,1.6,0.59,3.26,0.59,4.97v42.66c0,34.43-27.92,62.35-62.35,62.35H203.46v15.31h730.7      v-105.01C934.17,1010.27,928.49,1002.41,920.45,999.18z" class="colorf7562a svgShape"/><rect width="730.7" height="52.51" x="203.46" y="1365.13" fill="#c9835a" class="color5a93c9 svgShape"/><path fill="#da946b" d="M203.46,1365.13v41.03c64.98,1.6,189.29,3.39,367.54,0.54c153.6-2.46,215.4-23.55,240.07-41.57H203.46z" class="color6ba5da svgShape"/><path fill="#f8bc99" d="M389.34,1235.72c0,40.9-33.16,74.06-74.06,74.06c-40.9,0-74.06-33.16-74.06-74.06      c0-40.9,33.16-74.06,74.06-74.06C356.18,1161.67,389.34,1194.82,389.34,1235.72z" class="color99cff8 svgShape"/><circle cx="315.43" cy="1211.64" r="23.64" fill="#ffffff" transform="rotate(-85.268 315.446 1211.64)" class="colorfff svgShape"/><path fill="#ffffff" d="M354.77,1277.14c-0.6-21.32-18.02-38.42-39.48-38.42c-21.46,0-38.89,17.11-39.48,38.42H354.77z" class="colorfff svgShape"/><g fill="none"><path fill="#f9ccb2" d="M631.01 1342.72h213.94c4.87 0 8.82-4.17 8.82-9.31l0 0c0-5.14-3.95-9.31-8.82-9.31H631.01c-4.87 0-8.82 4.17-8.82 9.31l0 0C622.2 1338.55 626.14 1342.72 631.01 1342.72zM747.49 1305.46h97.46c4.87 0 8.82-4.17 8.82-9.31l0 0c0-5.14-3.95-9.31-8.82-9.31h-97.46c-4.87 0-8.82 4.17-8.82 9.31l0 0C738.68 1301.29 742.62 1305.46 747.49 1305.46z" class="colorb2e4f9 svgShape"/><path fill="#fbad80" d="M848.2,1181.36H451.87c-3.08,0-5.57-2.49-5.57-5.57v-10.74c0-3.08,2.49-5.57,5.57-5.57H848.2      c3.08,0,5.57,2.49,5.57,5.57v10.74C853.77,1178.86,851.27,1181.36,848.2,1181.36z" class="color80d3fb svgShape"/><path fill="#f9ccb2" d="M619.14 1225.93H454.17c-3.08 0-5.57-2.49-5.57-5.57v-10.74c0-3.08 2.49-5.57 5.57-5.57h164.97c3.08 0 5.57 2.49 5.57 5.57v10.74C624.71 1223.44 622.22 1225.93 619.14 1225.93zM784.22 1225.93h-137.8c-3.08 0-5.57-2.49-5.57-5.57v-10.74c0-3.08 2.49-5.57 5.57-5.57h137.8c3.08 0 5.57 2.49 5.57 5.57v10.74C789.79 1223.44 787.3 1225.93 784.22 1225.93zM675.63 1265.58H454.17c-3.08 0-5.57-2.49-5.57-5.57v-10.74c0-3.08 2.49-5.57 5.57-5.57h221.46c3.08 0 5.57 2.49 5.57 5.57v10.74C681.2 1263.09 678.71 1265.58 675.63 1265.58zM844.74 1265.58H696.86c-3.08 0-5.57-2.49-5.57-5.57v-10.74c0-3.08 2.49-5.57 5.57-5.57h147.88c3.08 0 5.57 2.49 5.57 5.57v10.74C850.31 1263.09 847.82 1265.58 844.74 1265.58z" class="colorb2e4f9 svgShape"/></g><g fill="none"><path fill="#ffffff" d="M279.64 1037.86v18.62h19.66v-18.62h8.48v46.49h-8.48v-20.49h-19.66v20.49h-8.48v-46.49H279.64zM343.51 1063.73h-17.52v13.66h19.59v6.97h-28.07v-46.49h27.04v6.97h-18.56v12h17.52V1063.73zM362.34 1071.18l-4 13.18h-8.76l14.9-46.49h10.83l15.11 46.49h-9.11l-4.21-13.18H362.34zM375.65 1064.76l-3.66-11.45c-.9-2.83-1.66-6-2.34-8.69h-.14c-.69 2.69-1.38 5.93-2.21 8.69l-3.59 11.45H375.65zM396.9 1037.86h8.48v39.39h19.11v7.11H396.9V1037.86zM433.11 1044.97h-13.24v-7.1h35.11v7.1h-13.38v39.39h-8.48V1044.97zM468.91 1037.86v18.62h19.66v-18.62h8.48v46.49h-8.48v-20.49h-19.66v20.49h-8.48v-46.49H468.91zM529.53 1037.86v46.49h-8.48v-46.49H529.53zM539.26 1084.35v-46.49h9.66l12 19.94c3.11 5.17 5.79 10.55 7.93 15.59h.14c-.55-6.21-.76-12.21-.76-19.31v-16.21h7.86v46.49h-8.76l-12.14-20.42c-2.97-5.1-6.07-10.83-8.35-16.07l-.21.07c.35 6 .41 12.14.41 19.8v16.62H539.26zM585.68 1075.11c2.76 1.59 6.9 2.96 11.24 2.96 5.45 0 8.48-2.55 8.48-6.35 0-3.52-2.35-5.59-8.28-7.73-7.66-2.76-12.55-6.83-12.55-13.52 0-7.59 6.35-13.38 16.42-13.38 5.04 0 8.76 1.1 11.17 2.34l-2.07 6.83c-1.66-.9-4.9-2.21-9.24-2.21-5.38 0-7.73 2.9-7.73 5.59 0 3.59 2.69 5.24 8.9 7.66 8.07 3.03 12 7.1 12 13.8 0 7.45-5.66 13.93-17.66 13.93-4.9 0-10-1.38-12.55-2.9L585.68 1075.11zM630.1 1037.86v27.11c0 9.1 3.79 13.31 9.52 13.31 6.14 0 9.79-4.21 9.79-13.31v-27.11h8.48v26.56c0 14.35-7.38 20.69-18.55 20.69-10.76 0-17.73-6-17.73-20.62v-26.63H630.1zM667.62 1038.48c3.17-.55 7.93-.97 12.83-.97 6.69 0 11.24 1.1 14.35 3.73 2.55 2.14 4 5.38 4 9.31 0 6-4.07 10.07-8.42 11.66v.21c3.31 1.24 5.31 4.48 6.48 8.97 1.45 5.79 2.69 11.17 3.66 12.97h-8.76c-.69-1.38-1.79-5.17-3.1-10.97-1.31-6.07-3.52-8-8.35-8.14h-4.28v19.11h-8.41V1038.48zM676.03 1059.04h5.04c5.72 0 9.31-3.03 9.31-7.66 0-5.1-3.59-7.45-9.1-7.45-2.69 0-4.41.21-5.24.41V1059.04zM716.66 1071.18l-4 13.18h-8.76l14.9-46.49h10.83l15.11 46.49h-9.11l-4.21-13.18H716.66zM729.97 1064.76l-3.66-11.45c-.9-2.83-1.66-6-2.35-8.69h-.14c-.69 2.69-1.38 5.93-2.21 8.69l-3.59 11.45H729.97zM751.22 1084.35v-46.49h9.66l12 19.94c3.1 5.17 5.79 10.55 7.93 15.59h.14c-.55-6.21-.76-12.21-.76-19.31v-16.21h7.86v46.49h-8.76l-12.14-20.42c-2.97-5.1-6.07-10.83-8.35-16.07l-.21.07c.35 6 .41 12.14.41 19.8v16.62H751.22zM831.16 1082.97c-2 1.04-6.42 2.07-12 2.07-14.76 0-23.73-9.24-23.73-23.38 0-15.31 10.62-24.56 24.83-24.56 5.59 0 9.59 1.17 11.31 2.07l-1.86 6.76c-2.21-.97-5.24-1.79-9.1-1.79-9.45 0-16.28 5.93-16.28 17.11 0 10.21 6 16.76 16.21 16.76 3.45 0 7.04-.69 9.24-1.72L831.16 1082.97zM864.4 1063.73h-17.52v13.66h19.59v6.97H838.4v-46.49h27.04v6.97h-18.55v12h17.52V1063.73z" class="colorfff svgShape"/></g></g><g><path fill="#ffb58a" d="M1044.3,1446.83c1.1,0.92,9.23-0.96,10.64-1.29c2.38,1.77,18.11,7.29,22.24,7.82     c4.3,0.55,26.88,0.15,34.28-2.4c7.39-2.57,19.9-18.95,13.82-18.32c-4.76,0.49-15.02,9.09-15.02,9.09s-9.64-1.99-14.02-2.99     c-3.89-0.89-11.88,3.43-11.88,3.43s0.88-0.59,2.26-1.38h0.01l0,0c1.07-0.61,2.46-1.33,4-2.01c0.02-0.01,0.04-0.01,0.06-0.03     c0.36-0.16,0.73-0.31,1.1-0.46c0.03-0.01,0.06-0.02,0.09-0.04c0.38-0.15,0.78-0.29,1.17-0.44c0.02,0,0.04-0.01,0.07-0.02     c0.38-0.13,0.77-0.25,1.16-0.37c0.04-0.02,0.07-0.03,0.1-0.03c0.4-0.12,0.81-0.23,1.23-0.32c4.53-1.03,8.84-1.37,10.71-2.72     c0.44-0.3,0.73-0.67,0.88-1.11c0.36-1.07,0.43-1.98,0.04-2.85c-0.46-1.03-1.56-2.01-3.63-3.13c-0.11-0.07-0.24-0.12-0.37-0.17     c-0.03-0.01-0.07-0.02-0.1-0.03c-0.1-0.04-0.2-0.07-0.31-0.1c-0.05-0.01-0.09-0.02-0.14-0.03c-0.1-0.02-0.21-0.04-0.31-0.06     c-0.06-0.01-0.11-0.02-0.16-0.02c-0.11-0.02-0.23-0.03-0.34-0.04c-0.06,0-0.12,0-0.17-0.01c-0.13-0.01-0.26-0.01-0.4-0.01     c-0.04-0.01-0.09-0.01-0.13,0c-0.17,0-0.34,0-0.52,0.01c-0.01,0-0.03,0.01-0.05,0.01c-4.58,0.19-12.13,2.52-18.31,0.6h-0.01v0.01     c-1.07-0.33-2.09-0.79-3.06-1.4c-8.07-5.18-22.3,0.85-22.3,0.85v0.02c-1.97-0.57-9.94-2.83-10.8-2.31     C1045.15,1425.18,1043.1,1445.83,1044.3,1446.83z" class="colorfbbd91 svgShape"/><path fill="#ffb58a" d="M1120.25,1432.14c0,0,2.37-1.5-2.06-2.13c-4.43-0.64-10.59,8.4-21.1,6.33c-10.5-2.08-12.86-1.69-15.09,1.01     c-2.24,2.69,0.26,7.32,1.58,7.14c1.31-0.17,18.03-1.14,25.12-1.73C1108.69,1442.75,1117.42,1437.36,1120.25,1432.14z" class="colorfbbd91 svgShape"/><path fill="#bf6f41" d="M1553.97,1762.33l-628.03,2.21c-12.24,0.04-22.2-9.6-22.24-21.52l-3.16-900.22    c-0.04-11.92,9.85-21.63,22.09-21.67l616.95-2.17c23.87-0.09,43.29,18.7,43.37,41.96l3.06,869.99    C1586.06,1748.2,1571.72,1762.27,1553.97,1762.33z" class="color4183bf svgShape"/><path fill="#f7b792" d="M1545.01,1756.97l-620.97,2.18c-12.16,0.04-22.04-9.68-22.09-21.72l-3.11-885.5    c-0.04-12.03,9.78-21.82,21.93-21.87l620.97-2.18c12.15-0.05,22.04,9.68,22.09,21.71l3.11,885.5    C1566.98,1747.14,1557.16,1756.93,1545.01,1756.97z" class="color92bff7 svgShape"/><path fill="#f9d0b9" d="M1371.07,1757.58l-447.03,1.57c-12.16,0.04-22.04-9.78-22.09-21.93l-1.78-505.63l447.03-1.57    c12.14-0.05,22.03,9.78,22.07,21.92L1371.07,1757.58z" class="colorb9d8f9 svgShape"/><path fill="#dd8d5f" d="M1563.81,846.26c-0.05-15.13-12.36-27.35-27.49-27.29l-610.2,2.14c-15.12,0.06-27.34,12.36-27.29,27.49    l0.84,241.05l664.99-2.33L1563.81,846.26z" class="color5f9bdd svgShape"/><path fill="#4c392d" d="M1062.48 1367.82l-99.42.35c-4.92.02-8.93-3.97-8.95-8.9l-.26-73.69c-.02-4.93 3.96-8.94 8.89-8.96l99.41-.34c4.94-.02 8.94 3.96 8.96 8.89l.26 73.7C1071.39 1363.79 1067.4 1367.8 1062.48 1367.82zM1191.05 1367.37l-99.41.35c-4.93.02-8.94-3.96-8.96-8.89l-.26-73.69c-.02-4.93 3.96-8.94 8.89-8.96l99.4-.35c4.93-.02 8.94 3.97 8.96 8.89l.26 73.69C1199.96 1363.34 1195.97 1367.35 1191.05 1367.37zM1319.62 1366.92l-99.41.34c-4.93.03-8.94-3.96-8.95-8.89l-.26-73.7c-.02-4.92 3.97-8.93 8.89-8.95l99.41-.35c4.93-.01 8.94 3.97 8.96 8.89l.26 73.7C1328.53 1362.89 1324.55 1366.9 1319.62 1366.92zM1062.86 1476.33l-99.41.35c-4.92.02-8.94-3.96-8.96-8.89l-.25-73.7c-.02-4.93 3.96-8.94 8.89-8.96l99.41-.35c4.93-.02 8.95 3.96 8.96 8.89l.26 73.69C1071.77 1472.3 1067.79 1476.31 1062.86 1476.33zM1191.43 1475.88l-99.41.35c-4.93.02-8.94-3.97-8.96-8.89l-.25-73.7c-.02-4.92 3.97-8.93 8.89-8.95l99.41-.35c4.93-.02 8.94 3.96 8.96 8.89l.26 73.7C1200.35 1471.85 1196.36 1475.86 1191.43 1475.88zM1320 1475.42l-99.4.35c-4.93.02-8.94-3.96-8.96-8.89l-.26-73.69c-.02-4.93 3.97-8.93 8.9-8.96l99.41-.35c4.93-.02 8.93 3.97 8.95 8.9l.27 73.69C1328.91 1471.4 1324.94 1475.41 1320 1475.42zM1063.25 1584.84l-99.42.35c-4.93.02-8.93-3.96-8.96-8.88l-.26-73.7c-.02-4.93 3.97-8.94 8.89-8.96l99.42-.34c4.93-.02 8.94 3.96 8.95 8.89l.27 73.69C1072.15 1580.81 1068.17 1584.82 1063.25 1584.84zM1191.82 1584.39l-99.41.35c-4.93.02-8.94-3.96-8.96-8.89l-.25-73.69c-.02-4.94 3.97-8.95 8.89-8.96l99.42-.34c4.93-.02 8.94 3.96 8.96 8.88l.25 73.7C1200.72 1580.36 1196.74 1584.37 1191.82 1584.39zM1320.38 1583.93l-99.41.36c-4.92.02-8.93-3.97-8.95-8.9l-.26-73.69c-.02-4.93 3.96-8.94 8.89-8.95l99.41-.35c4.93-.02 8.94 3.97 8.96 8.89l.26 73.7C1329.29 1579.91 1325.31 1583.92 1320.38 1583.93zM1063.62 1693.35l-99.41.35c-4.93.02-8.94-3.96-8.95-8.89l-.26-73.68c-.02-4.94 3.97-8.94 8.89-8.96l99.41-.35c4.93-.01 8.94 3.97 8.95 8.9l.26 73.69C1072.53 1689.32 1068.55 1693.33 1063.62 1693.35zM1192.19 1692.9l-99.42.35c-4.92.02-8.93-3.96-8.95-8.88l-.26-73.7c-.02-4.93 3.96-8.94 8.89-8.96l99.41-.35c4.93-.02 8.94 3.96 8.96 8.89l.25 73.7C1201.1 1688.87 1197.12 1692.88 1192.19 1692.9zM1320.77 1692.44l-99.41.36c-4.93.02-8.93-3.97-8.96-8.89l-.26-73.69c-.02-4.93 3.97-8.94 8.89-8.96l99.41-.35c4.93-.02 8.94 3.97 8.96 8.89l.25 73.7C1329.68 1688.42 1325.7 1692.42 1320.77 1692.44zM1487.25 1680.54l-65.77.23c-9.24.03-16.77-7.44-16.8-16.69l-.53-151.65c-.03-9.25 7.45-16.77 16.69-16.8l65.77-.24c9.25-.03 16.77 7.44 16.8 16.69l.54 151.65C1503.97 1672.99 1496.5 1680.51 1487.25 1680.54z" class="color2d3a4c svgShape"/><path fill="#8c4d29" d="M1485.2,1038.23l-506.42,1.78c-13.11,0.05-23.78-12.71-23.84-28.51l-0.37-104.71    c-0.06-15.78,10.53-28.62,23.63-28.67l506.42-1.78c13.11-0.04,23.79,12.71,23.83,28.5l0.37,104.71    C1508.89,1025.35,1498.3,1038.18,1485.2,1038.23z" class="color29478c svgShape"/><path fill="#4c392d" d="M1513.35 1415.08c.08 20.74-24.39 37.63-54.64 37.74-30.25.11-54.83-16.61-54.9-37.34-.07-20.74 24.39-37.63 54.64-37.73C1488.7 1377.63 1513.28 1394.36 1513.35 1415.08zM1512.9 1288.07c.08 20.74-24.39 37.63-54.64 37.73-30.24.1-54.83-16.61-54.9-37.34-.08-20.73 24.39-37.64 54.64-37.74C1488.25 1250.61 1512.83 1267.33 1512.9 1288.07zM1512.46 1164.13c.08 20.74-24.38 37.63-54.63 37.74-30.25.1-54.83-16.62-54.9-37.35-.08-20.73 24.39-37.63 54.64-37.73C1487.82 1126.67 1512.4 1143.4 1512.46 1164.13zM1358.95 1164.67c.07 20.74-24.38 37.63-54.64 37.73-30.25.11-54.83-16.61-54.91-37.35-.07-20.73 24.4-37.62 54.64-37.73C1334.3 1127.21 1358.88 1143.94 1358.95 1164.67zM1208.52 1165.2c.08 20.73-24.39 37.62-54.64 37.73-30.25.1-54.83-16.62-54.9-37.35-.08-20.73 24.39-37.63 54.63-37.73C1183.87 1127.74 1208.45 1144.46 1208.52 1165.2z" class="color2d3a4c svgShape"/><path fill="#d37842" d="M1065.81,1165.7c0.07,20.73-24.4,37.62-54.64,37.73c-30.26,0.1-54.83-16.61-54.91-37.35    c-0.07-20.74,24.39-37.63,54.64-37.73C1041.15,1128.24,1065.73,1144.96,1065.81,1165.7z" class="colord34a42 svgShape"/><path fill="#f5f4f4" d="M1006.9 1521.94h-.18l-11.46 5.5-2.35-10.54 15.9-7.47 11.67-.04.21 60.16-13.6.05L1006.9 1521.94zM1119.23 1567.68l-.04-8.51 7.76-7.07c13.1-11.8 19.47-18.58 19.63-25.61-.02-4.91-3-8.78-9.94-8.76-5.18.02-9.7 2.63-12.84 5.05l-4.02-10.07c4.52-3.44 11.55-6.25 19.7-6.28 13.6-.05 21.13 7.89 21.17 18.81.04 10.1-7.25 18.18-15.92 25.98l-5.54 4.65v.19l22.67-.08.05 11.57L1119.23 1567.68zM1251 1554.97c2.5 1.29 8.24 3.68 13.99 3.66 7.3-.03 11-3.55 10.99-8.09-.03-5.92-5.95-8.59-12.15-8.57l-5.74.03-.04-10.09 5.47-.02c4.72-.11 10.72-1.89 10.71-6.98-.01-3.61-2.98-6.29-8.91-6.26-4.91.01-10.08 2.16-12.57 3.65l-2.9-10.17c3.6-2.33 10.81-4.57 18.59-4.6 12.87-.05 20.01 6.69 20.04 14.93.03 6.39-3.56 11.4-10.96 14.01v.18c7.23 1.27 13.08 6.72 13.1 14.58.04 10.64-9.28 18.45-24.55 18.51-7.78.02-14.36-1.99-17.89-4.2L1251 1554.97zM1284.86 1410.99c-1.57-.09-3.24.01-5.46.2-12.49 1.06-18.03 7.47-19.58 14.51h.28c2.95-3.07 7.11-4.84 12.76-4.85 10.09-.04 18.63 7.06 18.68 19.56.04 11.94-9.1 21.78-22.14 21.83-16.02.05-23.92-11.86-23.97-26.21-.05-11.29 4.09-20.75 10.55-26.78 6-5.48 13.76-8.48 23.21-8.97 2.59-.19 4.25-.2 5.64-.11L1284.86 1410.99zM1277.29 1441.18c-.02-5.55-3-10.35-9.02-10.33-3.79.02-6.94 2.34-8.31 5.4-.37.74-.55 1.85-.55 3.52.3 6.38 3.38 12.11 9.77 12.09C1274.17 1451.84 1277.31 1447.29 1277.29 1441.18zM1452.47 1268.98l5.4 8.5c1.49 2.39 2.8 4.61 4.1 6.92h.28c1.28-2.51 2.58-4.82 3.86-7.14l4.97-8.35 12.4-.05-15.01 21.72 15.45 23.36-12.86.05-5.59-8.96c-1.49-2.39-2.8-4.8-4.1-7.29h-.19c-1.28 2.6-2.57 4.82-4.04 7.33l-5.16 8.99-12.59.04 15.56-23-15.17-22.07L1452.47 1268.98zM1439.11 1193.64l17.88-53.75 6.37-.02-17.89 53.75L1439.11 1193.64zM1300.08 1156.51c.04 10.14-5.87 15.28-12.46 15.3-6.74.03-12.24-5.14-12.35-14.4-.04-9.11 5.2-15.12 12.62-15.15C1295.52 1142.23 1300.05 1147.85 1300.08 1156.51zM1282.24 1157.09c-.06 5.55 1.95 9.62 5.59 9.61 3.62-.01 5.39-3.87 5.37-9.72-.02-5.33-1.52-9.62-5.44-9.61C1284.05 1147.38 1282.22 1151.69 1282.24 1157.09zM1287.84 1192.03l27.75-49.87 5.18-.02-27.74 49.87L1287.84 1192.03zM1333.33 1176.4c.04 10.07-5.79 15.27-12.46 15.3-6.67.02-12.24-5.15-12.27-14.47-.03-9.04 5.2-15.13 12.53-15.15C1328.76 1162.04 1333.31 1167.72 1333.33 1176.4zM1315.49 1176.98c-.05 5.48 1.96 9.62 5.59 9.6 3.7-.01 5.39-3.87 5.37-9.72-.02-5.4-1.51-9.62-5.44-9.61C1317.31 1167.26 1315.47 1171.57 1315.49 1176.98zM1119.59 1152.78c1.44-.31 4.08-.53 6.62-.54 3.37-.01 5.45.39 7.15 1.57 1.56.92 2.6 2.55 2.61 4.66.01 2.3-1.43 4.41-4.13 5.43l.01.07c2.63.65 5.04 2.72 5.05 6.16.01 2.22-.94 3.97-2.39 5.16-1.78 1.56-4.69 2.34-9.25 2.36-2.52.01-4.45-.17-5.59-.31L1119.59 1152.78zM1124.15 1162.62l2.33-.01c3.15-.02 4.92-1.5 4.91-3.61-.01-2.34-1.79-3.4-4.67-3.39-1.33.01-2.11.07-2.6.19L1124.15 1162.62zM1124.19 1174.1c.6.07 1.37.1 2.4.1 2.93-.01 5.51-1.12 5.5-4.2-.01-2.89-2.53-4.07-5.67-4.05l-2.26.01L1124.19 1174.1zM1151.08 1177.3l-.31-2h-.11c-1.11 1.41-2.99 2.41-5.33 2.42-3.62.01-5.68-2.61-5.69-5.35-.02-4.56 4.02-6.87 10.68-6.86v-.3c0-1.18-.49-3.14-3.68-3.13-1.78.01-3.63.57-4.85 1.35l-.9-2.96c1.33-.82 3.66-1.6 6.52-1.62 5.77-.02 7.46 3.64 7.47 7.57l.02 6.51c.01 1.63.09 3.22.28 4.33L1151.08 1177.3zM1150.46 1168.48c-3.22-.06-6.29.65-6.29 3.4.01 1.78 1.15 2.58 2.6 2.58 1.82-.01 3.15-1.19 3.55-2.49.11-.34.15-.7.15-1L1150.46 1168.48zM1172.99 1176.66c-.96.46-2.84.94-5.1.94-5.63.03-9.31-3.55-9.33-9.15-.02-5.41 3.68-9.65 10-9.67 1.67 0 3.37.36 4.41.84l-.81 3.41c-.74-.33-1.82-.69-3.45-.69-3.48.02-5.55 2.57-5.5 5.87 0 3.71 2.42 5.8 5.54 5.79 1.59-.01 2.69-.35 3.59-.71L1172.99 1176.66zM1180.89 1167.08h.08c.44-.71.96-1.48 1.43-2.11l4.35-5.83 5.49-.03-6.64 7.4 7.66 10.64-5.59.02-5.22-7.94-1.55 1.82.02 6.15-4.55.02-.09-26.29 4.55-.02L1180.89 1167.08zM1461.93 1569.16l.07 20.18 19.34-.07.03 8.7-19.34.07.07 20.36-9.06.03-.08-20.36-19.34.07-.03-8.71 19.35-.07-.07-20.18L1461.93 1569.16zM1466.31 1412.52l.04 9.34-24.26.09-.03-9.36L1466.31 1412.52zM1158.06 1413l-23.33.09-1.26 9.26c1.3-.19 2.4-.19 3.89-.2 5.74-.02 11.57 1.26 15.84 4.3 4.55 3.04 7.34 8.04 7.37 15.07.04 11.19-9.55 21.14-25.75 21.19-7.32.03-13.43-1.61-16.77-3.36l2.46-10.57c2.69 1.29 8.16 2.94 13.62 2.92 5.83-.03 12.02-2.82 12-9.21-.02-6.2-4.94-9.98-16.98-9.94-3.33.02-5.64.21-8.15.59l3.87-31.58 33.14-.11L1158.06 1413zM1010.77 1459.03l-.05-14.35-26.66.09-.04-9.16 22.64-36.74 17.22-.05.12 35.26 7.22-.02.03 10.55-7.22.03.05 14.34L1010.77 1459.03zM1010.68 1434.13l-.05-13.33c-.01-3.61.16-7.31.43-11.21l-.37.01c-1.93 3.89-3.49 7.41-5.51 11.21l-8.01 13.17v.19L1010.68 1434.13zM1033.55 1644.58c.07 18.61-7.39 31.4-22.75 31.47-15.55.05-22.45-13.9-22.61-30.94-.06-17.4 7.29-31.21 22.84-31.27C1027.15 1613.78 1033.49 1628.1 1033.55 1644.58zM1002.36 1645.06c-.04 13.79 3.31 20.35 8.78 20.33 5.46-.02 8.4-6.88 8.35-20.58-.05-13.33-2.94-20.36-8.6-20.34C1005.71 1624.5 1002.22 1631.08 1002.36 1645.06zM1133.06 1646.01c-.02-5 3.4-8.62 8.3-8.63 4.91-.02 8.25 3.48 8.27 8.57.02 4.91-3.3 8.53-8.3 8.55C1136.52 1654.51 1133.09 1650.92 1133.06 1646.01zM1247 1641.66l-.03-8.61 47.76-.17.03 8.61L1247 1641.66zM1247.07 1660.82l-.03-8.61 47.76-.17.03 8.61L1247.07 1660.82zM1253.26 1345.4c1.76.18 3.33.18 6.11-.02 4.26-.29 8.6-1.51 11.83-3.74 3.88-2.7 6.46-6.59 7.55-11.14l-.28-.09c-2.68 2.79-6.55 4.37-12.01 4.39-10.18.04-18.82-7.07-18.86-18.73-.04-11.75 9.37-21.7 22.61-21.73 15.45-.06 22.81 11.76 22.86 25.83.04 12.5-3.9 21.68-10.46 27.72-5.72 5.2-13.58 8.1-22.92 8.5-2.4.19-4.81.11-6.4.03L1253.26 1345.4zM1261.67 1315.19c.02 5.19 2.81 9.61 8.55 9.6 3.8-.02 6.48-1.87 7.77-4.01.46-.84.74-1.76.73-3.53-.02-6.39-2.45-12.67-8.84-12.65C1265.06 1304.63 1261.56 1308.9 1261.67 1315.19zM1119.29 1338.77c-.03-7.22 4.13-12.23 10.68-15.12l.01-.28c-5.85-2.94-8.73-7.83-8.75-13.11-.03-10.19 9.11-16.98 21.14-17.02 14.07-.05 19.93 8.08 19.96 15.39.02 5.18-2.74 10.28-8.65 13.26v.28c5.84 2.2 11.04 7.18 11.07 14.96.03 10.92-9.11 18.27-23.08 18.32C1126.38 1355.5 1119.32 1346.92 1119.29 1338.77zM1150.4 1338.2c-.02-5.28-3.91-8.42-9.48-9.87-4.62 1.31-7.29 4.65-7.28 9-.08 4.35 3.27 8.41 8.55 8.39C1147.19 1345.71 1150.41 1342.46 1150.4 1338.2zM1134.47 1309.75c.02 4.08 3.73 6.65 8.55 8.11 3.23-.94 6.09-3.91 6.07-7.7 0-3.71-2.14-7.4-7.33-7.38C1136.94 1302.8 1134.45 1305.95 1134.47 1309.75zM1031.02 1293.1l.03 8.9-24.62 51.36-14.91.05 24.64-48.5-.01-.19-27.58.1-.04-11.57L1031.02 1293.1zM1003.39 1152.5c.02 6.63-4.64 9.61-9.23 9.62-5.1.02-9.05-3.48-9.07-9.26-.02-5.92 3.86-9.57 9.3-9.58C999.77 1143.26 1003.38 1147.02 1003.39 1152.5zM989.81 1152.74c.01 3.48 1.72 6.11 4.5 6.1 2.59-.01 4.4-2.57 4.38-6.2-.02-2.81-1.28-6.03-4.39-6.02C991.08 1146.62 989.79 1149.74 989.81 1152.74zM1007.13 1149.01c-.01-2.08-.06-3.82-.17-5.37l4-.02.23 2.71.11-.01c.77-1.41 2.73-3.12 5.73-3.13 3.15-.01 6.41 2.01 6.43 7.72l.04 10.7-4.55.02-.04-10.19c-.01-2.59-.98-4.55-3.46-4.54-1.81.01-3.06 1.3-3.55 2.68-.15.41-.19.97-.18 1.48l.04 10.6-4.6.01L1007.13 1149.01zM1018.3 1191.31c-.97.45-2.85.94-5.11.95-5.63.02-9.31-3.55-9.32-9.15-.02-5.4 3.67-9.64 10-9.66 1.66 0 3.37.36 4.4.84l-.79 3.41c-.74-.33-1.82-.69-3.45-.69-3.48.01-5.54 2.58-5.49 5.87.01 3.7 2.42 5.8 5.53 5.79 1.59-.01 2.7-.34 3.59-.72L1018.3 1191.31zM1024.53 1184.11c.12 3.26 2.69 4.66 5.57 4.65 2.11-.01 3.63-.31 5-.83l.67 3.14c-1.55.63-3.7 1.13-6.29 1.13-5.85.03-9.31-3.56-9.33-9.08-.01-5 3-9.71 8.77-9.73 5.86-.02 7.8 4.79 7.81 8.75.01.85-.07 1.52-.14 1.93L1024.53 1184.11zM1032.45 1180.9c.03-1.67-.72-4.4-3.76-4.39-2.81.01-3.99 2.57-4.17 4.42L1032.45 1180.9z" class="colorf4f5f5 svgShape"/><rect width="46.09" height="4.13" x="988.1" y="1166.35" fill="#f5f4f4" transform="translate(-4.085 3.548)" class="colorf4f5f5 svgShape"/></g><g><path fill="#ffbf66" d="M1455.86,1762.48c0-9.56,0-17.12,0-26.73c28.48,4.31,62.74,7.62,101.55,7.59      c38.33-0.03,72.2-3.32,100.43-7.59c0,9.66,0,17.16,0,26.78c0.08,0.21,0.12,0.43,0.12,0.64c0,7.19-45.17,12.73-100.99,12.73      c-55.82,0-101.11-5.49-101.11-12.68C1455.85,1762.98,1455.85,1762.75,1455.86,1762.48z" class="colorffaf5d svgShape"/><path fill="#eb6211" d="M1455.86,1760c0-9.56,0-17.12,0-26.73c28.48,4.31,62.74,7.62,101.55,7.59      c38.33-0.03,72.2-3.32,100.43-7.59c0,9.66,0,17.16,0,26.78c0.08,0.21,0.12,0.43,0.12,0.64c0,7.19-45.17,12.73-100.99,12.73      c-55.82,0-101.11-5.49-101.11-12.68C1455.85,1760.5,1455.85,1760.27,1455.86,1760z" class="coloreb8511 svgShape"/><path fill="#ff9e17" d="M1633.5 1769.06v-32.39c2.55-.35 5.06-.71 7.54-1.08v32.22C1638.72 1768.25 1636.21 1768.66 1633.5 1769.06zM1612.29 1771.37v-32.23c1.77-.17 3.53-.35 5.28-.54v32.31C1615.85 1771.08 1614.09 1771.23 1612.29 1771.37zM1480.12 1769.05c-1.85-.27-3.61-.55-5.28-.84v-31.63h5.28V1769.05zM1626.39 1769.99v-32.4c.85-.1 1.7-.21 2.54-.32v32.41C1628.1 1769.78 1627.25 1769.88 1626.39 1769.99z" class="colorffb017 svgShape"/><path fill="#fd9c14" d="M1455.66,1733.31c0-7.19,45.49-12.72,101.31-12.72c55.82,0,101.07,5.82,101.07,13.01      c0,7.19-45.25,13.01-101.07,13.01C1501.15,1746.61,1455.66,1740.5,1455.66,1733.31z" class="colorfdce14 svgShape"/><path fill="#fe660c" d="M1468.28,1732.35c0-5.06,39.8-9.16,88.89-9.16c49.09,0,88.89,4.1,88.89,9.16c0,5.06-39.8,9.16-88.89,9.16      C1508.08,1741.51,1468.28,1737.41,1468.28,1732.35z" class="colorfe920c svgShape"/><path fill="#feba5b" d="M1529.07,1732.53c0.38-1.33,6.46-1.86,11.95-2.09c0.29-1.1,0.28-1.83,1.07-2.85      c-10.61,0.17-21.36,1.69-25.49,3.64l-8.51-0.01l-1.89,2.14l8.81,0.01c1.29,1.87,10.38,2.87,24.04,2.87      c11.82,0,21.35-0.69,27.95-3.96c4.15-2.05,7.51-2.67,14.72-2.8c6.49-0.12,10.28,0.37,9.82,1.83c-0.46,1.47-4.7,2.41-13.67,2.73      c-0.46,1.06-0.74,1.59-1.68,2.65c12.4-0.19,22.58-1.25,27.14-3.26l8.7,0.01l1.89-2.14l-8.05-0.01      c0.99-3.45-9.03-4.13-25.16-4.05c-12.53,0.06-22.97,0.94-30,4.28c-3.9,1.85-6.51,2.32-12.64,2.37      C1531.82,1733.95,1528.8,1733.43,1529.07,1732.53z" class="colorfeb05b svgShape"/><path fill="#ffbf66" d="M1474.49,1732.69c0-9.56,0-17.12,0-26.73c28.48,4.31,62.74,7.62,101.55,7.59      c38.33-0.03,72.2-3.32,100.43-7.59c0,9.66,0,17.16,0,26.78c0.08,0.21,0.12,0.43,0.12,0.64c0,7.19-45.17,12.73-100.99,12.73      c-55.82,0-101.11-5.49-101.11-12.68C1474.48,1733.19,1474.48,1732.96,1474.49,1732.69z" class="colorffaf5d svgShape"/><path fill="#eb6211" d="M1474.49,1730.21c0-9.56,0-17.12,0-26.73c28.48,4.31,62.74,7.62,101.55,7.59      c38.33-0.03,72.2-3.32,100.43-7.59c0,9.66,0,17.16,0,26.78c0.08,0.21,0.12,0.43,0.12,0.64c0,7.19-45.17,12.73-100.99,12.73      c-55.82,0-101.11-5.49-101.11-12.68C1474.48,1730.71,1474.48,1730.48,1474.49,1730.21z" class="coloreb8511 svgShape"/><path fill="#ff9e17" d="M1652.13 1739.27v-32.39c2.55-.35 5.06-.71 7.54-1.08v32.22C1657.35 1738.46 1654.84 1738.87 1652.13 1739.27zM1630.92 1741.59v-32.23c1.77-.17 3.53-.35 5.28-.54v32.31C1634.48 1741.29 1632.72 1741.44 1630.92 1741.59zM1498.75 1739.26c-1.85-.27-3.61-.55-5.28-.84v-31.63h5.28V1739.26zM1645.02 1740.2v-32.4c.85-.1 1.7-.21 2.54-.32v32.41C1646.73 1739.99 1645.88 1740.1 1645.02 1740.2z" class="colorffb017 svgShape"/><path fill="#ffbf66" d="M1474.29,1703.53c0-7.19,45.49-12.72,101.31-12.72c55.82,0,101.07,5.82,101.07,13.01      c0,7.19-45.25,13.01-101.07,13.01C1519.78,1716.83,1474.29,1710.71,1474.29,1703.53z" class="colorffaf5d svgShape"/><path fill="#fe660c" d="M1486.91,1702.56c0-5.06,39.8-9.16,88.89-9.16c49.09,0,88.89,4.1,88.89,9.16c0,5.06-39.8,9.16-88.89,9.16      C1526.71,1711.73,1486.91,1707.62,1486.91,1702.56z" class="colorfe920c svgShape"/><path fill="#feba5b" d="M1547.7,1702.74c0.38-1.33,6.46-1.86,11.95-2.09c0.29-1.1,0.28-1.83,1.07-2.85      c-10.61,0.17-21.36,1.69-25.49,3.64l-8.51-0.01l-1.89,2.14l8.81,0.01c1.29,1.87,10.38,2.87,24.04,2.87      c11.82,0,21.35-0.69,27.95-3.96c4.14-2.05,7.51-2.67,14.72-2.8c6.49-0.12,10.28,0.37,9.82,1.84c-0.46,1.47-4.7,2.41-13.67,2.73      c-0.46,1.06-0.74,1.59-1.68,2.65c12.4-0.19,22.58-1.25,27.14-3.26l8.7,0.01l1.89-2.14l-8.05-0.01      c0.99-3.45-9.03-4.13-25.16-4.05c-12.53,0.06-22.97,0.94-30,4.28c-3.9,1.85-6.51,2.32-12.64,2.37      C1550.45,1704.16,1547.43,1703.65,1547.7,1702.74z" class="colorfeb05b svgShape"/><g fill="none"><path fill="#ffbf66" d="M1450.89,1702.9c0-9.56,0-17.12,0-26.73c28.48,4.31,62.74,7.62,101.55,7.59      c38.33-0.03,72.2-3.32,100.43-7.59c0,9.66,0,17.16,0,26.78c0.08,0.21,0.12,0.43,0.12,0.64c0,7.19-45.17,12.73-100.99,12.73      s-101.11-5.49-101.11-12.68C1450.89,1703.41,1450.88,1703.17,1450.89,1702.9z" class="colorffaf5d svgShape"/><path fill="#eb6211" d="M1450.89,1700.42c0-9.56,0-17.12,0-26.73c28.48,4.31,62.74,7.62,101.55,7.59      c38.33-0.03,72.2-3.32,100.43-7.59c0,9.66,0,17.16,0,26.78c0.08,0.21,0.12,0.43,0.12,0.64c0,7.19-45.17,12.73-100.99,12.73      s-101.11-5.49-101.11-12.68C1450.89,1700.92,1450.88,1700.69,1450.89,1700.42z" class="coloreb8511 svgShape"/><path fill="#ff9e17" d="M1628.53 1709.48v-32.39c2.55-.35 5.06-.71 7.54-1.08v32.22C1633.76 1708.67 1631.24 1709.08 1628.53 1709.48zM1607.32 1711.8v-32.23c1.77-.17 3.53-.35 5.28-.54v32.31C1610.88 1711.5 1609.12 1711.65 1607.32 1711.8zM1475.16 1709.47c-1.85-.27-3.61-.55-5.28-.84V1677h5.28V1709.47zM1621.43 1710.41v-32.4c.85-.1 1.7-.21 2.54-.32v32.41C1623.14 1710.2 1622.29 1710.31 1621.43 1710.41z" class="colorffb017 svgShape"/><path fill="#ffbf66" d="M1450.69,1673.74c0-7.19,45.49-12.72,101.31-12.72s101.07,5.82,101.07,13.01      c0,7.19-45.25,13.01-101.07,13.01S1450.69,1680.92,1450.69,1673.74z" class="colorffaf5d svgShape"/><path fill="#fe660c" d="M1463.32,1672.77c0-5.06,39.8-9.16,88.89-9.16c49.09,0,88.89,4.1,88.89,9.16c0,5.06-39.8,9.16-88.89,9.16      C1503.11,1681.94,1463.32,1677.83,1463.32,1672.77z" class="colorfe920c svgShape"/><path fill="#feba5b" d="M1524.1,1672.95c0.38-1.33,6.46-1.86,11.95-2.09c0.29-1.1,0.28-1.83,1.07-2.85      c-10.61,0.17-21.36,1.69-25.49,3.64l-8.51-0.01l-1.89,2.14l8.81,0.01c1.29,1.87,10.38,2.87,24.04,2.87      c11.82,0,21.35-0.69,27.95-3.96c4.15-2.05,7.51-2.67,14.72-2.8c6.49-0.12,10.28,0.37,9.82,1.83c-0.46,1.47-4.7,2.41-13.67,2.74      c-0.46,1.06-0.74,1.59-1.68,2.65c12.4-0.19,22.58-1.25,27.14-3.26l8.7,0.01l1.89-2.14l-8.05-0.01      c0.99-3.45-9.03-4.13-25.16-4.05c-12.53,0.06-22.97,0.94-30,4.28c-3.9,1.85-6.51,2.32-12.64,2.37      C1526.86,1674.37,1523.84,1673.86,1524.1,1672.95z" class="colorfeb05b svgShape"/></g><g fill="none"><path fill="#ffbf66" d="M1268.36,1762.48c0-9.56,0-17.12,0-26.73c28.48,4.31,62.74,7.62,101.55,7.59      c38.33-0.03,72.2-3.32,100.43-7.59c0,9.66,0,17.16,0,26.78c0.08,0.21,0.12,0.43,0.12,0.64c0,7.19-45.17,12.73-100.99,12.73      c-55.82,0-101.11-5.49-101.11-12.68C1268.35,1762.98,1268.34,1762.75,1268.36,1762.48z" class="colorffaf5d svgShape"/><path fill="#eb6211" d="M1268.36,1760c0-9.56,0-17.12,0-26.73c28.48,4.31,62.74,7.62,101.55,7.59      c38.33-0.03,72.2-3.32,100.43-7.59c0,9.66,0,17.16,0,26.78c0.08,0.21,0.12,0.43,0.12,0.64c0,7.19-45.17,12.73-100.99,12.73      c-55.82,0-101.11-5.49-101.11-12.68C1268.35,1760.5,1268.34,1760.27,1268.36,1760z" class="coloreb8511 svgShape"/><path fill="#ff9e17" d="M1446 1769.06v-32.39c2.55-.35 5.06-.71 7.54-1.08v32.22C1451.22 1768.25 1448.71 1768.66 1446 1769.06zM1424.78 1771.37v-32.23c1.77-.17 3.53-.35 5.28-.54v32.31C1428.35 1771.08 1426.58 1771.23 1424.78 1771.37zM1292.62 1769.05c-1.85-.27-3.61-.55-5.28-.84v-31.63h5.28V1769.05zM1438.89 1769.99v-32.4c.85-.1 1.7-.21 2.54-.32v32.41C1440.6 1769.78 1439.75 1769.88 1438.89 1769.99z" class="colorffb017 svgShape"/><path fill="#fd9c14" d="M1268.15,1733.31c0-7.19,45.49-12.72,101.31-12.72c55.82,0,101.07,5.82,101.07,13.01      c0,7.19-45.25,13.01-101.07,13.01C1313.64,1746.61,1268.15,1740.5,1268.15,1733.31z" class="colorfdce14 svgShape"/><path fill="#fe660c" d="M1280.78,1732.35c0-5.06,39.8-9.16,88.89-9.16c49.09,0,88.89,4.1,88.89,9.16c0,5.06-39.8,9.16-88.89,9.16      C1320.58,1741.51,1280.78,1737.41,1280.78,1732.35z" class="colorfe920c svgShape"/><path fill="#feba5b" d="M1341.56,1732.53c0.38-1.33,6.46-1.86,11.95-2.09c0.29-1.1,0.28-1.83,1.07-2.85      c-10.61,0.17-21.36,1.69-25.49,3.64l-8.51-0.01l-1.89,2.14l8.81,0.01c1.29,1.87,10.38,2.87,24.04,2.87      c11.82,0,21.35-0.69,27.95-3.96c4.14-2.05,7.51-2.67,14.72-2.8c6.49-0.12,10.28,0.37,9.82,1.83c-0.46,1.47-4.7,2.41-13.67,2.73      c-0.46,1.06-0.74,1.59-1.68,2.65c12.4-0.19,22.58-1.25,27.14-3.26l8.7,0.01l1.89-2.14l-8.05-0.01      c0.99-3.45-9.03-4.13-25.16-4.05c-12.53,0.06-22.97,0.94-30,4.28c-3.9,1.85-6.51,2.32-12.64,2.37      C1344.32,1733.95,1341.3,1733.43,1341.56,1732.53z" class="colorfeb05b svgShape"/><path fill="#ffbf66" d="M1286.99,1732.69c0-9.56,0-17.12,0-26.73c28.48,4.31,62.74,7.62,101.55,7.59      c38.33-0.03,72.2-3.32,100.43-7.59c0,9.66,0,17.16,0,26.78c0.08,0.21,0.12,0.43,0.12,0.64c0,7.19-45.17,12.73-100.99,12.73      c-55.82,0-101.11-5.49-101.11-12.68C1286.98,1733.19,1286.97,1732.96,1286.99,1732.69z" class="colorffaf5d svgShape"/><path fill="#eb6211" d="M1286.99,1730.21c0-9.56,0-17.12,0-26.73c28.48,4.31,62.74,7.62,101.55,7.59      c38.33-0.03,72.2-3.32,100.43-7.59c0,9.66,0,17.16,0,26.78c0.08,0.21,0.12,0.43,0.12,0.64c0,7.19-45.17,12.73-100.99,12.73      c-55.82,0-101.11-5.49-101.11-12.68C1286.98,1730.71,1286.97,1730.48,1286.99,1730.21z" class="coloreb8511 svgShape"/><path fill="#ff9e17" d="M1464.62 1739.27v-32.39c2.55-.35 5.06-.71 7.54-1.08v32.22C1469.85 1738.46 1467.33 1738.87 1464.62 1739.27zM1443.41 1741.59v-32.23c1.77-.17 3.53-.35 5.28-.54v32.31C1446.97 1741.29 1445.21 1741.44 1443.41 1741.59zM1311.25 1739.26c-1.85-.27-3.61-.55-5.28-.84v-31.63h5.28V1739.26zM1457.52 1740.2v-32.4c.85-.1 1.7-.21 2.54-.32v32.41C1459.23 1739.99 1458.38 1740.1 1457.52 1740.2z" class="colorffb017 svgShape"/><path fill="#ffbf66" d="M1286.78,1703.53c0-7.19,45.49-12.72,101.31-12.72c55.82,0,101.07,5.82,101.07,13.01      c0,7.19-45.25,13.01-101.07,13.01C1332.27,1716.83,1286.78,1710.71,1286.78,1703.53z" class="colorffaf5d svgShape"/><path fill="#fe660c" d="M1299.41,1702.56c0-5.06,39.8-9.16,88.89-9.16c49.09,0,88.89,4.1,88.89,9.16c0,5.06-39.8,9.16-88.89,9.16      C1339.2,1711.73,1299.41,1707.62,1299.41,1702.56z" class="colorfe920c svgShape"/><path fill="#feba5b" d="M1360.19,1702.74c0.38-1.33,6.46-1.86,11.95-2.09c0.29-1.1,0.28-1.83,1.07-2.85      c-10.61,0.17-21.36,1.69-25.49,3.64l-8.51-0.01l-1.89,2.14l8.81,0.01c1.29,1.87,10.38,2.87,24.04,2.87      c11.82,0,21.35-0.69,27.95-3.96c4.14-2.05,7.51-2.67,14.72-2.8c6.49-0.12,10.28,0.37,9.82,1.84c-0.46,1.47-4.7,2.41-13.67,2.73      c-0.46,1.06-0.74,1.59-1.68,2.65c12.4-0.19,22.58-1.25,27.14-3.26l8.7,0.01l1.89-2.14l-8.05-0.01      c0.99-3.45-9.03-4.13-25.16-4.05c-12.53,0.06-22.97,0.94-30,4.28c-3.9,1.85-6.51,2.32-12.64,2.37      C1362.95,1704.16,1359.93,1703.65,1360.19,1702.74z" class="colorfeb05b svgShape"/><g fill="none"><path fill="#ffbf66" d="M1263.39,1702.9c0-9.56,0-17.12,0-26.73c28.48,4.31,62.74,7.62,101.55,7.59      c38.33-0.03,72.2-3.32,100.43-7.59c0,9.66,0,17.16,0,26.78c0.08,0.21,0.12,0.43,0.12,0.64c0,7.19-45.17,12.73-100.99,12.73      c-55.82,0-101.11-5.49-101.11-12.68C1263.39,1703.41,1263.38,1703.17,1263.39,1702.9z" class="colorffaf5d svgShape"/><path fill="#eb6211" d="M1263.39,1700.42c0-9.56,0-17.12,0-26.73c28.48,4.31,62.74,7.62,101.55,7.59      c38.33-0.03,72.2-3.32,100.43-7.59c0,9.66,0,17.16,0,26.78c0.08,0.21,0.12,0.43,0.12,0.64c0,7.19-45.17,12.73-100.99,12.73      c-55.82,0-101.11-5.49-101.11-12.68C1263.39,1700.92,1263.38,1700.69,1263.39,1700.42z" class="coloreb8511 svgShape"/><path fill="#ff9e17" d="M1441.03 1709.48v-32.39c2.55-.35 5.06-.71 7.54-1.08v32.22C1446.26 1708.67 1443.74 1709.08 1441.03 1709.48zM1419.82 1711.8v-32.23c1.77-.17 3.53-.35 5.28-.54v32.31C1423.38 1711.5 1421.62 1711.65 1419.82 1711.8zM1287.66 1709.47c-1.85-.27-3.61-.55-5.28-.84V1677h5.28V1709.47zM1433.93 1710.41v-32.4c.85-.1 1.7-.21 2.54-.32v32.41C1435.63 1710.2 1434.79 1710.31 1433.93 1710.41z" class="colorffb017 svgShape"/><path fill="#ffbf66" d="M1263.19,1673.74c0-7.19,45.49-12.72,101.31-12.72c55.82,0,101.07,5.82,101.07,13.01      c0,7.19-45.25,13.01-101.07,13.01C1308.68,1687.04,1263.19,1680.92,1263.19,1673.74z" class="colorffaf5d svgShape"/><path fill="#fe660c" d="M1275.81,1672.77c0-5.06,39.8-9.16,88.89-9.16c49.09,0,88.89,4.1,88.89,9.16c0,5.06-39.8,9.16-88.89,9.16      C1315.61,1681.94,1275.81,1677.83,1275.81,1672.77z" class="colorfe920c svgShape"/><path fill="#feba5b" d="M1336.6,1672.95c0.38-1.33,6.46-1.86,11.95-2.09c0.29-1.1,0.28-1.83,1.07-2.85      c-10.61,0.17-21.36,1.69-25.49,3.64l-8.51-0.01l-1.89,2.14l8.81,0.01c1.29,1.87,10.38,2.87,24.04,2.87      c11.82,0,21.35-0.69,27.95-3.96c4.14-2.05,7.51-2.67,14.72-2.8c6.49-0.12,10.28,0.37,9.82,1.83c-0.46,1.47-4.7,2.41-13.67,2.74      c-0.46,1.06-0.74,1.59-1.68,2.65c12.4-0.19,22.58-1.25,27.14-3.26l8.7,0.01l1.89-2.14l-8.05-0.01      c0.99-3.45-9.03-4.13-25.16-4.05c-12.53,0.06-22.97,0.94-30,4.28c-3.9,1.85-6.51,2.32-12.64,2.37      C1339.36,1674.37,1336.34,1673.86,1336.6,1672.95z" class="colorfeb05b svgShape"/></g><g fill="none"><path fill="#ffbf66" d="M1235.45,1673.12c0-9.56,0-17.12,0-26.73c28.48,4.31,62.74,7.62,101.55,7.59      c38.33-0.03,72.2-3.32,100.43-7.59c0,9.66,0,17.16,0,26.78c0.08,0.21,0.12,0.43,0.12,0.64c0,7.19-45.17,12.73-100.99,12.73      c-55.82,0-101.11-5.49-101.11-12.68C1235.44,1673.62,1235.44,1673.38,1235.45,1673.12z" class="colorffaf5d svgShape"/><path fill="#eb6211" d="M1235.45,1670.63c0-9.56,0-17.12,0-26.74c28.48,4.31,62.74,7.62,101.55,7.59      c38.33-0.03,72.2-3.32,100.43-7.59c0,9.66,0,17.16,0,26.78c0.08,0.21,0.12,0.43,0.12,0.64c0,7.19-45.17,12.73-100.99,12.73      c-55.82,0-101.11-5.49-101.11-12.68C1235.44,1671.13,1235.44,1670.9,1235.45,1670.63z" class="coloreb8511 svgShape"/><path fill="#ff9e17" d="M1413.09 1679.69v-32.39c2.55-.35 5.06-.71 7.54-1.08v32.22C1418.31 1678.88 1415.8 1679.3 1413.09 1679.69zM1391.88 1682.01v-32.23c1.77-.17 3.53-.35 5.28-.54v32.31C1395.44 1681.71 1393.68 1681.86 1391.88 1682.01zM1259.71 1679.68c-1.85-.27-3.61-.55-5.28-.84v-31.63h5.28V1679.68zM1405.98 1680.62v-32.4c.85-.1 1.7-.21 2.54-.32v32.41C1407.69 1680.42 1406.84 1680.52 1405.98 1680.62z" class="colorffb017 svgShape"/><path fill="#fd9c14" d="M1235.24,1643.95c0-7.19,45.49-12.72,101.31-12.72c55.82,0,101.07,5.82,101.07,13.01      c0,7.19-45.25,13.01-101.07,13.01C1280.73,1657.25,1235.24,1651.13,1235.24,1643.95z" class="colorfdce14 svgShape"/><path fill="#fe660c" d="M1247.87,1642.99c0-5.06,39.8-9.16,88.89-9.16c49.09,0,88.89,4.1,88.89,9.16c0,5.06-39.8,9.16-88.89,9.16      C1287.67,1652.15,1247.87,1648.05,1247.87,1642.99z" class="colorfe920c svgShape"/><path fill="#feba5b" d="M1308.66,1643.16c0.38-1.33,6.46-1.86,11.95-2.09c0.29-1.1,0.28-1.83,1.07-2.85      c-10.61,0.17-21.36,1.69-25.49,3.64l-8.51-0.01l-1.89,2.14l8.81,0.01c1.29,1.87,10.38,2.87,24.04,2.87      c11.82,0,21.35-0.69,27.95-3.96c4.14-2.05,7.51-2.67,14.72-2.8c6.49-0.12,10.28,0.37,9.82,1.83c-0.46,1.47-4.7,2.41-13.67,2.73      c-0.46,1.06-0.74,1.59-1.68,2.65c12.4-0.19,22.58-1.25,27.14-3.26l8.7,0.01l1.89-2.14l-8.05-0.01      c0.99-3.45-9.03-4.13-25.16-4.05c-12.53,0.06-22.97,0.94-30,4.28c-3.9,1.85-6.51,2.32-12.64,2.37      C1311.41,1644.58,1308.39,1644.07,1308.66,1643.16z" class="colorfeb05b svgShape"/></g><g fill="none"><path fill="#ffbf66" d="M1263.39,1643.33c0-9.56,0-17.12,0-26.74c28.48,4.31,62.74,7.62,101.55,7.59      c38.33-0.03,72.2-3.32,100.43-7.59c0,9.66,0,17.16,0,26.78c0.08,0.21,0.12,0.43,0.12,0.64c0,7.18-45.17,12.73-100.99,12.73      c-55.82,0-101.11-5.49-101.11-12.68C1263.39,1643.83,1263.38,1643.6,1263.39,1643.33z" class="colorffaf5d svgShape"/><path fill="#eb6211" d="M1263.39,1640.84c0-9.56,0-17.12,0-26.74c28.48,4.31,62.74,7.62,101.55,7.59      c38.33-0.03,72.2-3.32,100.43-7.59c0,9.66,0,17.16,0,26.78c0.08,0.21,0.12,0.43,0.12,0.64c0,7.19-45.17,12.73-100.99,12.73      c-55.82,0-101.11-5.49-101.11-12.68C1263.39,1641.35,1263.38,1641.11,1263.39,1640.84z" class="coloreb8511 svgShape"/><path fill="#ff9e17" d="M1441.03 1649.9v-32.39c2.55-.35 5.06-.71 7.54-1.08v32.22C1446.26 1649.09 1443.74 1649.51 1441.03 1649.9zM1419.82 1652.22V1620c1.77-.18 3.53-.35 5.28-.54v32.31C1423.38 1651.92 1421.62 1652.08 1419.82 1652.22zM1287.66 1649.89c-1.85-.27-3.61-.55-5.28-.84v-31.63h5.28V1649.89zM1433.93 1650.83v-32.4c.85-.1 1.7-.21 2.54-.32v32.41C1435.63 1650.63 1434.79 1650.73 1433.93 1650.83z" class="colorffb017 svgShape"/><path fill="#fd9c14" d="M1263.19,1614.16c0-7.19,45.49-12.72,101.31-12.72c55.82,0,101.07,5.82,101.07,13.01      s-45.25,13.01-101.07,13.01C1308.68,1627.46,1263.19,1621.35,1263.19,1614.16z" class="colorfdce14 svgShape"/><path fill="#fe660c" d="M1275.81,1613.2c0-5.06,39.8-9.16,88.89-9.16c49.09,0,88.89,4.1,88.89,9.16c0,5.06-39.8,9.16-88.89,9.16      C1315.61,1622.36,1275.81,1618.26,1275.81,1613.2z" class="colorfe920c svgShape"/><path fill="#feba5b" d="M1336.6,1613.37c0.38-1.33,6.46-1.86,11.95-2.09c0.29-1.1,0.28-1.83,1.07-2.85      c-10.61,0.17-21.36,1.69-25.49,3.64l-8.51-0.01l-1.89,2.14l8.81,0.01c1.29,1.87,10.38,2.87,24.04,2.87      c11.82,0,21.35-0.69,27.95-3.96c4.14-2.05,7.51-2.67,14.72-2.8c6.49-0.12,10.28,0.37,9.82,1.83c-0.46,1.47-4.7,2.41-13.67,2.73      c-0.46,1.06-0.74,1.59-1.68,2.65c12.4-0.19,22.58-1.25,27.14-3.26l8.7,0.01l1.89-2.14l-8.05-0.01      c0.99-3.45-9.03-4.13-25.16-4.05c-12.53,0.06-22.97,0.94-30,4.28c-3.9,1.85-6.51,2.32-12.64,2.37      C1339.36,1614.8,1336.34,1614.28,1336.6,1613.37z" class="colorfeb05b svgShape"/></g><g fill="none"><path fill="#ffbf66" d="M1273.32,1613.54c0-9.56,0-17.12,0-26.73c28.48,4.31,62.74,7.62,101.55,7.59      c38.33-0.03,72.2-3.32,100.43-7.59c0,9.66,0,17.16,0,26.78c0.08,0.21,0.12,0.43,0.12,0.64c0,7.19-45.17,12.73-100.99,12.73      c-55.82,0-101.11-5.49-101.11-12.68C1273.32,1614.04,1273.31,1613.81,1273.32,1613.54z" class="colorffaf5d svgShape"/><path fill="#eb6211" d="M1273.32,1611.06c0-9.56,0-17.12,0-26.73c28.48,4.31,62.74,7.62,101.55,7.59      c38.33-0.03,72.2-3.32,100.43-7.59c0,9.66,0,17.16,0,26.78c0.08,0.21,0.12,0.43,0.12,0.64c0,7.19-45.17,12.73-100.99,12.73      c-55.82,0-101.11-5.49-101.11-12.68C1273.32,1611.56,1273.31,1611.32,1273.32,1611.06z" class="coloreb8511 svgShape"/><path fill="#ff9e17" d="M1450.96 1620.11v-32.39c2.55-.35 5.06-.71 7.54-1.08v32.22C1456.19 1619.3 1453.67 1619.72 1450.96 1620.11zM1429.75 1622.43v-32.23c1.77-.17 3.53-.35 5.28-.54v32.31C1433.31 1622.13 1431.55 1622.29 1429.75 1622.43zM1297.59 1620.1c-1.85-.27-3.61-.55-5.28-.84v-31.63h5.28V1620.1zM1443.85 1621.04v-32.4c.85-.1 1.7-.21 2.54-.32v32.41C1445.56 1620.84 1444.72 1620.94 1443.85 1621.04z" class="colorffb017 svgShape"/><path fill="#fd9c14" d="M1273.12,1584.37c0-7.19,45.49-12.72,101.31-12.72c55.82,0,101.07,5.82,101.07,13.01      c0,7.19-45.25,13.01-101.07,13.01C1318.61,1597.67,1273.12,1591.56,1273.12,1584.37z" class="colorfdce14 svgShape"/><path fill="#fe660c" d="M1285.74,1583.41c0-5.06,39.8-9.16,88.89-9.16c49.09,0,88.89,4.1,88.89,9.16c0,5.06-39.8,9.16-88.89,9.16      C1325.54,1592.57,1285.74,1588.47,1285.74,1583.41z" class="colorfe920c svgShape"/><path fill="#feba5b" d="M1346.53,1583.59c0.38-1.33,6.46-1.86,11.95-2.09c0.29-1.1,0.28-1.83,1.07-2.85      c-10.61,0.17-21.36,1.69-25.49,3.64l-8.51-0.01l-1.89,2.14l8.81,0.01c1.29,1.87,10.38,2.87,24.04,2.87      c11.82,0,21.35-0.69,27.95-3.96c4.15-2.05,7.51-2.67,14.72-2.8c6.49-0.12,10.28,0.37,9.82,1.84c-0.46,1.47-4.7,2.41-13.67,2.73      c-0.46,1.06-0.74,1.59-1.68,2.65c12.4-0.19,22.58-1.25,27.14-3.26l8.7,0.01l1.89-2.14l-8.05-0.01      c0.99-3.45-9.03-4.13-25.16-4.05c-12.53,0.06-22.97,0.94-30,4.28c-3.9,1.85-6.51,2.32-12.64,2.37      C1349.29,1585.01,1346.27,1584.49,1346.53,1583.59z" class="colorfeb05b svgShape"/></g></g><g fill="none"><circle cx="1529.15" cy="1579.08" r="97.25" fill="#fd9c14" transform="rotate(-45.001 1529.144 1579.11)" class="colorfdce14 svgShape"/><circle cx="1528.06" cy="1584.54" r="74.97" fill="#ffbf67" class="colorffeb67 svgShape"/><circle cx="1529.15" cy="1579.08" r="74.97" fill="#ff5f00" transform="rotate(-79.724 1529.035 1579.013)" class="colororange svgShape"/><path fill="#eb600d" d="M1529.15,1513.94c39.75,0,72.26,30.95,74.79,70.06c0.1-1.63,0.18-3.26,0.18-4.91     c0-41.41-33.57-74.97-74.97-74.97c-41.4,0-74.97,33.57-74.97,74.97c0,1.65,0.07,3.29,0.18,4.91     C1456.89,1544.88,1489.4,1513.94,1529.15,1513.94z" class="coloreb860d svgShape"/><path fill="#eb600d" d="M1537.54,1572.92c-9-3.84-11.84-6-11.8-10.07c0.05-4.42,3.25-7.03,8.82-6.95c6.33,0.09,12.63,3,15.92,5.17     l4.28-18.52c-1.1-0.66-2.38-1.31-3.82-1.9l1.97-6.05l-13.8-4.05l-2.24,6.89c-0.94-0.07-1.89-0.11-2.85-0.13     c-18.24-0.25-30.13,11.79-30.32,27.89c-0.27,10.26,5.5,20.07,20.66,26.3c8.55,3.48,10.79,5.63,10.74,10.06     c-0.05,4.42-2.95,7.22-9.88,7.12c-6.78-0.09-15.48-3.75-19.67-6.82l-4.29,19.23c2.05,1.34,4.51,2.53,7.28,3.51l-2.07,6.36     l13.8,4.05l2.49-7.66c0.74,0.04,1.48,0.07,2.24,0.08c21.1,0.29,32.09-11.42,32.27-27.52     C1557.28,1587.17,1551.49,1578.77,1537.54,1572.92z" class="coloreb860d svgShape"/><path fill="#ff9604" d="M1535.89,1574.57c-9-3.84-11.84-6-11.8-10.07c0.05-4.42,3.25-7.03,8.82-6.95c6.33,0.09,12.63,3,15.92,5.17     l4.28-18.52c-1.1-0.66-2.38-1.31-3.82-1.9l1.97-6.05l-13.8-4.05l-2.24,6.89c-0.94-0.07-1.89-0.11-2.85-0.13     c-18.24-0.25-30.13,11.79-30.32,27.89c-0.27,10.26,5.5,20.07,20.66,26.3c8.55,3.48,10.79,5.63,10.74,10.06     c-0.05,4.42-2.95,7.22-9.88,7.12c-6.78-0.09-15.48-3.75-19.67-6.82l-4.29,19.23c2.05,1.34,4.51,2.53,7.28,3.51l-2.07,6.36     l13.8,4.05l2.49-7.66c0.74,0.04,1.48,0.07,2.24,0.08c21.1,0.29,32.09-11.42,32.27-27.51     C1555.63,1588.82,1549.85,1580.42,1535.89,1574.57z" class="colorffef04 svgShape"/></g></g><g><path fill="#c9500a" d="M1051.22,686.2c-68.69-1.66-144.42-43.8-144.42-43.8s-75.29,42.92-143.96,45.29     c0,0-26.15,215.71,145.7,290.03C1079.61,901.63,1051.22,686.2,1051.22,686.2z" class="color0a8cc9 svgShape"/><path fill="#d8936b" d="M1051.21,684.16c-68.69-1.57-144.41-41.75-144.41-41.75s-75.3,40.97-143.97,43.25     c0,0-26.2,205.82,145.63,276.69C1079.55,889.7,1051.21,684.16,1051.21,684.16z" class="color6ba3d8 svgShape"/><linearGradient id="a" x1="870.73" x2="870.73" y1="-312.565" y2="-22.752" gradientTransform="matrix(.9838 -.005 .0052 .9999 51.88 974.371)" gradientUnits="userSpaceOnUse" fill="none"><stop offset="0" stop-color="#e5e5e5" class="stopColore5e5e5 svgShape"/><stop offset=".156" stop-color="#e1e1e1" class="stopColore1e1e1 svgShape"/><stop offset=".298" stop-color="#d6d6d6" class="stopColord6d6d6 svgShape"/><stop offset=".434" stop-color="#c4c4c4" class="stopColorc4c4c4 svgShape"/><stop offset=".567" stop-color="#aaaaaa" class="stopColoraaa svgShape"/><stop offset=".697" stop-color="#888888" class="stopColor888 svgShape"/><stop offset=".825" stop-color="#5f5f5f" class="stopColor5f5f5f svgShape"/><stop offset=".95" stop-color="#303030" class="stopColor303030 svgShape"/><stop offset="1" stop-color="#1a1a1a" class="stopColor1a1a1a svgShape"/></linearGradient><path fill="url(#a)" d="M1037.9,695.3c-62.32-1.42-131.02-37.82-131.02-37.82s-68.32,37.11-130.62,39.17     c0,0-23.78,186.42,132.12,250.61C1063.6,881.46,1037.9,695.3,1037.9,695.3z"/><path fill="#939292" d="M1029.53,702.18c-58.32-1.33-122.6-35.39-122.6-35.39S843,701.52,784.7,703.45     c0,0-22.25,174.44,123.63,234.51C1053.58,876.38,1029.53,702.18,1029.53,702.18z" opacity=".54" class="color939292 svgShape"/><path fill="#ffffff" d="M1023.11,705.48c-55.25-1.29-116.16-34.24-116.16-34.24s-60.57,33.58-115.8,35.44     c0,0-21.06,168.71,117.16,226.82C1045.92,873.97,1023.11,705.48,1023.11,705.48z" class="colorfff svgShape"/><path fill="#c67d53" d="M1013.73,711.25c-50.77-1.22-106.74-32.22-106.74-32.22s-55.65,31.58-106.4,33.32     c0,0-19.33,158.69,107.68,213.36C1034.71,869.73,1013.73,711.25,1013.73,711.25z" class="color5388c6 svgShape"/><path fill="#ad663d" d="M906.99,679.03l1.28,246.68c126.44-55.99,105.46-214.47,105.46-214.47     C962.97,710.03,907,679.04,906.99,679.03z" class="color3d62ad svgShape"/><path fill="#ffffff" d="M899.04,834.56c-0.16,0-0.32,0-0.47-0.01c-4.18-0.11-8.08-1.98-10.96-5.25l-26.56-30.15     c-2.86-3.25-2.74-8.37,0.27-11.45c3.01-3.08,7.77-2.95,10.63,0.3l26.56,30.15c0.04,0.05,0.17,0.19,0.42,0.2     c0.29,0.01,0.39-0.13,0.43-0.18l54.47-56.12c3-3.09,7.75-2.97,10.63,0.26c2.87,3.24,2.76,8.37-0.24,11.46l-54.47,56.12     C906.83,832.9,903.05,834.54,899.04,834.56z" class="colorfff svgShape"/></g><g><path fill="#ead1c3" d="M979.33,1764.54H677.91c-17.87,0-32.36-14.49-32.36-32.36v-176.51c0-17.87,14.49-32.36,32.36-32.36h301.42    c17.87,0,32.36,14.49,32.36,32.36v176.51C1011.68,1750.05,997.2,1764.54,979.33,1764.54z" class="colorc3c5ea svgShape"/><path fill="#fdf6f2" d="M967.18,1764.54H676.62c-17.16,0-31.06-13.91-31.06-31.06V1564.8c0-17.16,13.91-31.06,31.06-31.06h290.56    c17.16,0,31.06,13.91,31.06,31.06v168.68C998.24,1750.63,984.33,1764.54,967.18,1764.54z" class="colorf2f2fd svgShape"/><path fill="#f3e4db" d="M650.69,1750.12c5.21,8.71,13.89,14.43,23.72,14.43h294.97c9.84,0,18.51-5.71,23.72-14.43H650.69z" class="colordbdcf3 svgShape"/><path fill="#ff9355" d="M879.6,1644.06c0.15,31.87-25.57,57.82-57.44,57.97c-31.87,0.15-57.82-25.57-57.97-57.44     c-0.15-31.87,25.57-57.82,57.44-57.97C853.5,1586.48,879.45,1612.19,879.6,1644.06z" class="colorff556c svgShape"/><rect width="23.23" height="76.84" x="809.96" y="1607.01" fill="#fffcfb" transform="matrix(1 -.00456 .00456 1 -7.5 3.766)" class="colorfffefb svgShape"/><rect width="76.84" height="23.23" x="783.16" y="1633.82" fill="#fffcfb" transform="matrix(1 -.00462 .00462 1 -7.598 3.816)" class="colorfffefb svgShape"/><path fill="#8c4d29" d="M955.46 1528.08h-36.02c-1.51 0-2.74-1.22-2.74-2.73v-5.27c0-1.51 1.22-2.73 2.74-2.73h36.02c1.51 0 2.73 1.22 2.73 2.73v5.27C958.2 1526.86 956.97 1528.08 955.46 1528.08zM728.58 1528.08h-36.02c-1.51 0-2.73-1.22-2.73-2.73v-5.27c0-1.51 1.22-2.73 2.73-2.73h36.02c1.51 0 2.74 1.22 2.74 2.74v5.27C731.31 1526.86 730.09 1528.08 728.58 1528.08zM784.75 1529.56v-37.08c0-.21.16-.38.35-.38h90.04c.19 0 .35.17.35.38v37.08h15.21v-37.08c0-9.32-6.98-16.9-15.56-16.9h-90.04c-8.58 0-15.56 7.58-15.56 16.9v37.08H784.75z" class="color29478c svgShape"/><rect width="8.96" height="230.81" x="683.07" y="1533.73" fill="#f6e7df" class="colordfe0f6 svgShape"/><rect width="8.96" height="230.81" x="959.4" y="1533.73" fill="#f6e7df" class="colordfe0f6 svgShape"/></g><g><linearGradient id="b" x1="352.875" x2="663.439" y1="760.837" y2="760.837" gradientUnits="userSpaceOnUse" fill="none"><stop offset="0" stop-color="#f18c51" class="stopColorf1517e svgShape"/><stop offset=".199" stop-color="#e98347" class="stopColore9477b svgShape"/><stop offset=".671" stop-color="#db7234" class="stopColordb3476 svgShape"/><stop offset="1" stop-color="#d66c2d" class="stopColord62d74 svgShape"/></linearGradient><path fill="url(#b)" d="M650.57,669.2    c-65.86-102.85-142.41-6.35-142.41-6.35s-76.55-96.5-142.41,6.35s142.41,230.68,142.41,230.68S716.42,772.05,650.57,669.2z"/><path fill="#ffffff" d="M615.46,779.33c-16.47,0.14-30.1,1.62-34.63,2.17l-18.08-31.2l-6.76,36.22l-19.92-9.2l-28.43,23.33    l-23.55-40.91l-13.05,26.04l-31.43-99.28l-16.52,88.52l-20.29-57.23l-14.57,78.06c1.33,1.69,2.67,3.38,4.04,5.05l12-64.25    l20.29,57.23l16.28-87.23l29.18,92.19l14.37-28.67l21.92,38.07l30.49-25.02l22.84,10.55l5.51-29.5l13.16,22.71l1.59-0.22    c0.41-0.06,27.58-3.73,56.21-1.69c1.14-1.62,2.25-3.25,3.33-4.89C632,779.54,624.01,779.26,615.46,779.33z" class="colorfff svgShape"/></g><g><path fill="#fcbb96" d="M1345.44,1163.22c-1.43-8.05,14.94-10.83,14.94-10.83s-3.35-7.71-6.24-13.71c-2.89-6,1.07-3.97,1.07-3.97     c11.12,9.88,21.61,26.27,20.04,34.09c-1.58,7.82,4.18,15.27,4.18,15.27l-14.67,6.94c0,0-8.55-12.19-10.22-14.91     C1352.86,1173.38,1346.87,1171.27,1345.44,1163.22z" class="colorfcc596 svgShape"/><path fill="#d07845" d="M1380.42,1178.75l-3.06-7.65c0,0-14.77,5.05-20.32,14.78l5.89,5.78L1380.42,1178.75z" class="color4579d0 svgShape"/><path fill="#fef8f5" d="M1454.94,1170.82c-11.19,17.22-33.81,52.53-33.81,52.53s-5.66-9.06-6.5-1.17l-32.28-47.8     c0,0-19.38,2.9-23.75,18.74c0,0,37.01,76.56,54.54,81.62c17.53,5.06,42.8-42.28,42.8-42.28l4.09-59.93     C1460.22,1169.68,1456.5,1168.41,1454.94,1170.82z" class="colorf5f8fe svgShape"/><path fill="#3b2b22" d="M1497.31,1634.94l1.72,17.38c0,0-17,7.24-20.02,3.8c-3.02-3.44-5.09-2.54-5.09-2.54l-1.44-21.98     L1497.31,1634.94z" class="color22313b svgShape"/><polygon fill="#3b2b22" points="1571.42 1629.62 1570.36 1646.29 1548.22 1645.18 1545.59 1626.61" class="color22313b svgShape"/><path fill="#52463f" d="M1565.5,1348.33c0,0,1.24,43.62-1.3,68.63c-2.54,25.02-7.27,87.51-3.49,106.11     c3.47,17.09,14.08,91.93,16.05,113.6c0.22,2.41-1.77,4.47-4.29,4.48c-9.76,0.04-25.38,1.65-28.04-3.12     c-3.42-6.14-28.84-101.21-32.62-119.81c-3.78-18.6-10.72-33.99-10.72-33.99s-2.54,25.02-2.01,43.71l3.13,110.21     c0.08,2.7-2.31,4.87-5.11,4.62c-8.9-0.8-19.74-0.95-26.97-3.04c0,0-11.63-73.28-15.85-107.46     c-4.22-34.18-10.79-158.57-1.84-172.89C1461.38,1345.05,1565.5,1348.33,1565.5,1348.33z" class="color3f4752 svgShape"/><path fill="#40352f" d="M1576.76 1636.68c.22 2.41-1.77 4.47-4.29 4.48-2.12.01-4.84-.01-7.8-.09-5.03-35.01-22.77-134.91-26.18-156.34-2.96-18.55 5.95-97.79 10.64-136.69 9.88.08 16.37.29 16.37.29s1.24 43.62-1.3 68.63c-2.54 25.02-7.27 87.51-3.49 106.11C1564.19 1540.17 1574.79 1615 1576.76 1636.68zM1490.98 1414.36c3.6 12.37 11.62 73.45 11.62 73.45l0 .01c-.91-2.27-1.5-3.59-1.5-3.59s-2.54 25.02-2.01 43.71l3.13 110.21c.08 2.7-2.31 4.87-5.11 4.62-7.43-.67-15.89-1.15-24.39-2.8 6.08-1.22 15.46-5.47 17.88-10.45 3.07-6.32-6.7-121.41-6.7-121.41C1489.77 1486.12 1490.98 1414.36 1490.98 1414.36z" class="color2f3740 svgShape"/><path fill="#3d332d" d="M1573.99 1647.05c0 0-24.19-8.17-30.09-5.05 0 0 .17 5.9-2.74 8.93-2.91 3.03-20.36 21.24-17.28 24.11 3.08 2.86 33.08 4.96 50.87-1.45L1573.99 1647.05zM1499.29 1648.62c1.02-.11 1.92.67 1.95 1.69l.63 22.3c0 0 2.78 2.61-13.46 3.07-16.25.46-59.58 1.69-62.36-.92-2.78-2.61-.15-5.37 13.24-11.13 13.39-5.76 28.01-15.59 33.28-21.12 0 0 10.83-.31 8.35 7.83C1480.91 1650.34 1483.42 1650.27 1499.29 1648.62z" class="color2d313d svgShape"/><path fill="#e9b874" d="M1528.18,1145.2l-3.93-15.85l-34.29,0.2l-2.44,20.2C1487.51,1149.74,1504.81,1174.87,1528.18,1145.2z" class="colore9ae74 svgShape"/><path fill="#fbbe9b" d="M1471.62,1085.15c0,0,0.25,16.83,0.87,25.81c0.62,8.98,1.78,29.57,19.95,31.32     c18.17,1.75,27.82-7.8,34.16-12.08c0,0,20.28-20.29,16.87-26.07c-3.41-5.78-7.65-23.54-25.62-22.3     C1499.9,1083.08,1471.62,1085.15,1471.62,1085.15z" class="colorfbcd9b svgShape"/><path fill="#52311e" d="M1551.78,1071.97l-6.4-5.57c0,0-1.99-4.84-5.67-10.03c-7.09-10.02-20.54-13.22-31.59-7.89l-31.07,15     c-4.83,2.33-9.9,4.15-15.15,5.22c-2.09,0.43-4.32,0.77-6.56,0.92c0,0,4.03,14.77,28.4,19.09c24.37,4.33,42.13,0.09,42.13,0.09     s-4.54,21.38-0.92,30.15c0,0,5.16-12.39,11.15-12.81c5.99-0.42,0.62,8.98-2.16,12.19c-2.79,3.2-11.15,12.81-8.15,12.6     c0,0,22.71-19.63,27.87-32.02C1558.81,1086.52,1558.19,1077.54,1551.78,1071.97z" class="color221e52 svgShape"/><path fill="#d07845" d="M1534.43,1143.02c0,0,6.12,20.19,2.88,22.51c-3.24,2.33-18.35,10.87-18.35,10.87s7.92,11.26,7.92,17.08    c0,5.82-57.91,81.56-57.91,81.56s-16.2-81.95-12.61-85.83c3.6-3.88,9.69-10.87,9.69-10.87s-5.06-16.3,0-20.19    c5.06-3.88,19.81-7.76,19.81-7.76l6.84,6.21l34.54-19.8L1534.43,1143.02z" class="color4579d0 svgShape"/><path fill="#fef8f5" d="M1451.68,1340.99c0-4.66-2.16-83.85-2.16-83.85s-7.92-57.45,0.72-77.64c3.46-8.08,8.76-13.77,13.87-17.72    c-1.28,6.16,1.94,16.55,1.94,16.55s-6.09,6.99-9.69,10.87c-3.6,3.88,12.61,85.83,12.61,85.83l8.27,93.26l-5.04,27.5    c0,0-16.55,4.02-29.14-13.75C1443.05,1382.06,1451.68,1345.65,1451.68,1340.99z" class="colorf5f8fe svgShape"/><path fill="#cbb4a6" d="M1467.78,1371.27c0,0-4.22-93.75-7.64-110.05c-1.72-8.2-0.39-18.46,1.35-26.63    c3.56,20.62,7.48,40.46,7.48,40.46l8.27,93.26l-5.04,27.5c0,0-9.21,2.23-19.12-4.01    C1457.5,1387.76,1463.62,1380.94,1467.78,1371.27z" opacity=".61" class="colora6adcb svgShape"/><path fill="#dfb49b" d="M1485.86,1150.4l6.84,6.21l34.54-19.8l1.21,1.04l0,0l-24.5,30.01l-10.52-8.25l-12.14,6.41l-6.44-12.13    C1480.3,1151.86,1485.86,1150.4,1485.86,1150.4z" class="color9bd4df svgShape"/><path fill="#de793d" d="M1485.22,1173.01l-2.53-7.73l10.73-5.66l9.23,7.23l-8.69,10.23l-5.67,46.21l-16.62,48.19    c-1.71,2.25-2.71,3.55-2.71,3.55s-0.45-2.29-1.18-6.08L1485.22,1173.01z" class="colorde3d73 svgShape"/><path fill="#f9eee8" d="M1471.67 1271.49L1471.67 1271.49c21.79-66.4 63.38-126.34 63.38-126.34l0 0c1.46 5.24 4.86 18.52 2.27 20.38-3.24 2.33-18.35 10.87-18.35 10.87s7.92 11.26 7.92 17.08C1526.88 1198.55 1483.08 1256.49 1471.67 1271.49zM1456.36 1189.21c3.6-3.88 9.69-10.87 9.69-10.87s-5.06-16.3 0-20.19c1.95-1.5 5.35-2.99 8.79-4.27l0 0c-.23 19.02-8.06 109.77-8.06 109.78C1462.48 1241.03 1453.6 1192.19 1456.36 1189.21z" class="colore8eff9 svgShape"/><path fill="#fef8f5" d="M1468.96,1275.04L1468.96,1275.04c0,0,57.91-75.74,57.91-81.56c0-5.82-7.92-17.08-7.92-17.08    s15.11-8.54,18.35-10.87c3.24-2.33-2.88-22.51-2.88-22.51s23.75,10.67,39.94,24.84l-4.69,101.7l-6.75,44.31l11.02,77.78    c0,0-62.86,6.48-92.4,1.74c0,0-18.35-103.06-15.11-111.21C1466.83,1281.17,1467.7,1278.68,1468.96,1275.04z" class="colorf5f8fe svgShape"/><path fill="#cbb4a6" d="M1524.42,1395l14.69-34.59c0,0,20.15-56.67,20.15-65.99c0-9.32-12.88-80.94-12.88-80.94l23.62,48.97    l-0.33,7.13l-6.75,44.31l11.45,78.36C1574.37,1392.24,1552.92,1392.72,1524.42,1395z" opacity=".61" class="colora6adcb svgShape"/><path fill="#fbc4a4" d="M1532.22,1357.92c0,0-0.98-10.99,13.99-9.47c3.45,0.35,5.55-2.82,6.99-8.11l14.28,4.73     c-6.72,14.6-12.33,25.5-14.32,27.53c-5.53,5.64-8.82,8.5-11.96,3.2c-3.14-5.29-9.05,1.55-10.85-3.31     c-1.8-4.86-9.62,1.88-9.36-3.94C1521.24,1362.74,1532.22,1357.92,1532.22,1357.92z" class="colorfbc0a4 svgShape"/><path fill="#d07845" d="M1570.33,1347.06l-3.94,8.85c0,0-13.27-1.74-21.67-9.6l3.68-8.27L1570.33,1347.06z" class="color4579d0 svgShape"/><path fill="#fef8f5" d="M1574.34,1167.78c0,0,43.55,92.76,41.17,111.3c-2.38,18.54-46.47,75.1-46.47,75.1l-25.12-9.33l37.65-72.39     C1581.57,1272.46,1509.64,1196.05,1574.34,1167.78z" class="colorf5f8fe svgShape"/><path fill="#cbb4a6" d="M1594.81,1304.47c10.6-23.73,2.85-35.52,2.85-35.52c1.82-12.56-17.66-88.84-17.68-88.88     c11.7,25.84,37.37,84.64,35.52,99c-1.89,14.73-30.1,53.44-41.61,68.73C1579.44,1336.87,1588.15,1319.39,1594.81,1304.47z" opacity=".61" class="colora6adcb svgShape"/><g fill="none"><path fill="#130e0b" d="M1465.34,1174.32c-3.37,8.38-4.01,16.33-1.82,23.45c0.12,0.38,0.54,0.59,0.91,0.46l1.58-0.53      c0.37-0.12,0.57-0.52,0.46-0.9c-6.23-20.4,14.96-42.14,20.43-47.31c0.69-0.65,0.74-1.73,0.12-2.45l-0.42-0.49      c-0.26-0.3-0.72-0.34-1.02-0.07c-1.88,1.7-8.17,7.67-13.79,15.96C1469.05,1166.47,1466.9,1170.44,1465.34,1174.32z" class="color130e0b svgShape"/><path fill="none" stroke="none" stroke-miterlimit="10" stroke-width=".409" d="M1473.03,1202.25c-1.22-2.5-3.74-3.93-6.34-3.88l-0.55-2.57c-0.17-0.78-0.93-1.27-1.71-1.11l-0.19,0.04     c-0.78,0.16-1.27,0.93-1.11,1.7l0.57,2.67c-3.38,1.7-4.77,5.81-3.1,9.22c1.68,3.43,5.82,4.85,9.25,3.18     C1473.29,1209.83,1474.71,1205.69,1473.03,1202.25z"/><path fill="#decfc6" d="M1473.03,1202.25c-1.22-2.5-3.74-3.93-6.34-3.88l-0.55-2.57c-0.17-0.78-0.93-1.27-1.71-1.11l-0.19,0.04     c-0.78,0.16-1.27,0.93-1.11,1.7l0.57,2.67c-3.38,1.7-4.77,5.81-3.1,9.22c1.68,3.43,5.82,4.85,9.25,3.18     C1473.29,1209.83,1474.71,1205.69,1473.03,1202.25z" class="colorc6cfde svgShape"/><path fill="#bfa190" d="M1462.17,1207.87c-1.67-3.41-0.27-7.51,3.1-9.22l-0.56-2.67c-0.1-0.47,0.05-0.94,0.35-1.28     c-0.2-0.05-0.41-0.05-0.62-0.01l-0.19,0.04c-0.78,0.16-1.27,0.93-1.11,1.7l0.57,2.67c-3.38,1.7-4.77,5.81-3.1,9.22     c1.63,3.33,5.58,4.77,8.95,3.32C1466.6,1212.15,1463.55,1210.69,1462.17,1207.87z" class="color9098bf svgShape"/><path fill="#f9eee8" d="M1466.43 1197.17l-.17-.79.02.75C1466.33 1197.15 1466.38 1197.16 1466.43 1197.17zM1473.03 1202.25c-.59-1.21-1.5-2.18-2.57-2.84.78.84 1.37 1.87 1.69 3.05 1.08 3.93-1.23 7.99-5.16 9.06-.88.24-1.77.31-2.63.23 1.72.65 3.7.62 5.49-.25C1473.29 1209.83 1474.71 1205.69 1473.03 1202.25z" class="colorebe8f9 svgShape"/><path fill="none" stroke="none" stroke-miterlimit="10" stroke-width=".409" d="M1469.3,1204.08c-0.67-1.37-2.33-1.94-3.7-1.27c-1.37,0.67-1.94,2.33-1.27,3.7     c0.67,1.37,2.33,1.94,3.7,1.27C1469.4,1207.11,1469.97,1205.45,1469.3,1204.08z"/><path fill="#bfa190" d="M1469.02,1204.21c-0.59-1.22-2.07-1.72-3.28-1.13c-1.22,0.6-1.72,2.07-1.13,3.28     c0.6,1.22,2.07,1.73,3.29,1.13C1469.11,1206.9,1469.62,1205.43,1469.02,1204.21z" class="color9098bf svgShape"/></g><g fill="none"><path fill="#dacac1" d="M1497.93 1211.39l-.97 1.68-.36-.25c-.31-.22-2.94-2.39.49-10.8 1.29-3.15 2.96-6.62 4.97-10.31l.2-.36 1.69 1.01-.18.34c-1.97 3.62-3.61 7.01-4.86 10.08-2.15 5.26-1.53 7.32-1.21 7.92.08.14.06.31-.04.43l-.07.08L1497.93 1211.39zM1525.29 1225.16L1525.29 1225.16c-.23-.02-.4-.25-.35-.48l.32-1.46.36.08.02-.39c.02 0 2.29-.15 4.7-6.77 1.45-4 2.57-8.22 3.25-11.06l.09-.37 1.94.37-.1.41c-.69 2.9-1.83 7.21-3.32 11.3C1529.09 1225.31 1525.67 1225.2 1525.29 1225.16z" class="colorc1c8da svgShape"/><path fill="#130e0b" d="M1534.31 1208.67c-.44.13-.87.07-1.23-.18-.39-.27-.64-.74-.67-1.27-.04-.61.05-1.27.13-1.9.07-.49.14-1 .14-1.48.09-5.37.2-12.05-10.66-16.26-5.28-2.05-9.93-1.6-13.84 1.33-2.91 2.18-4.36 5.04-4.37 5.06-.26.52-.68.91-1.18 1.07-.39.12-.79.09-1.13-.1-.79-.43-1.03-1.53-.56-2.5.07-.15 1.85-3.74 5.53-6.55 2.16-1.65 4.55-2.71 7.09-3.15 3.1-.53 6.42-.13 9.87 1.21.11.04.22.09.33.13.19.08.39.16.58.24l0 0c11.9 5.02 11.77 13.15 11.67 19.09-.02 1.1-.12 2.16-.29 3.14C1535.52 1207.74 1535.04 1208.45 1534.31 1208.67zM1522.27 1220.1l1.87.78c1.27.53 1.86 2.04 1.31 3.36l0 0c-.54 1.32-2.01 1.96-3.28 1.43l-1.87-.79c-1.27-.53-1.86-2.04-1.31-3.36l0 0C1519.53 1220.2 1521 1219.57 1522.27 1220.1z" class="color130e0b svgShape"/><path fill="#130e0b" d="M1518.98 1221.52L1518.98 1221.52c-.54 1.32.04 2.82 1.31 3.36l1.87.79c.72.3 1.5.23 2.14-.13.3-.17.24-.62-.09-.72-1.41-.42-4.32-1.54-4.2-3.48 0-.04 0-.07 0-.11.03-.39-.47-.59-.7-.27C1519.18 1221.12 1519.07 1221.31 1518.98 1221.52zM1521.19 1219.92c2.97.92 4.43 2.92 4.43 2.92l0 0c-.13-.85-.66-1.6-1.49-1.95l-1.87-.78C1521.92 1219.95 1521.55 1219.89 1521.19 1219.92L1521.19 1219.92zM1502.39 1211.19l-1.87-.79c-1.28-.54-2.8.22-3.4 1.69l0 0c-.61 1.47-.06 3.09 1.21 3.63l1.87.79c1.27.54 2.8-.22 3.4-1.69l0 0C1504.21 1213.36 1503.66 1211.73 1502.39 1211.19z" class="color130e0b svgShape"/><path fill="#130e0b" d="M1503.6,1214.82L1503.6,1214.82c-0.6,1.47-2.13,2.22-3.4,1.69l-1.87-0.79c-0.75-0.32-1.25-1.01-1.41-1.83      c-0.06-0.34,0.29-0.59,0.59-0.42c1.27,0.73,4.15,2.08,5.53,0.42c0.02-0.03,0.05-0.06,0.07-0.09c0.25-0.31,0.77-0.09,0.7,0.3      C1503.77,1214.35,1503.7,1214.59,1503.6,1214.82z" class="color130e0b svgShape"/><path fill="#60371e" d="M1503.27,1211.86c-2.74-1.52-5.23-1.03-5.23-1.03l0,0c0.72-0.58,1.65-0.78,2.48-0.43l1.87,0.79      C1502.74,1211.34,1503.04,1211.57,1503.27,1211.86L1503.27,1211.86z" opacity=".36" class="color1f1e60 svgShape"/><path fill="#130e0b" d="M1526.73,1133.03c-0.15-0.17-1.14-0.87-1.31-0.72l-0.04,0.17l1.3,5.8c9.79,14.77-1.9,42.75-3.46,46.18     c-0.09,0.2-0.01,0.43,0.19,0.52l1.94,0.94c0.2,0.1,0.44,0.01,0.53-0.19c0.82-1.77,4.3-9.61,6.17-19.41     c0.87-4.54,1.25-8.83,1.16-12.81C1533.01,1144.8,1531.45,1138.46,1526.73,1133.03z" class="color130e0b svgShape"/></g></g><g><rect width="71.89" height="16.52" x="512.7" y="1705.23" fill="#877e78" transform="rotate(-13.65 548.608 1713.392)" class="color788587 svgShape"/><path fill="#d3a083" d="M670.34,1749.39c-35.49,8.62-71.24-13.16-79.85-48.65c-8.62-35.48,13.16-71.24,48.65-79.85     c35.48-8.62,71.24,13.16,79.85,48.65C727.61,1705.02,705.83,1740.77,670.34,1749.39z" opacity=".8" class="color83c8d3 svgShape"/><path fill="#5b321a" d="M731.88 1666.4c-10.35-42.61-53.27-68.76-95.88-58.41-42.61 10.35-68.76 53.27-58.41 95.88 10.35 42.61 53.27 68.76 95.88 58.41C716.08 1751.93 742.23 1709.01 731.88 1666.4zM590.49 1700.74c-8.62-35.48 13.16-71.24 48.65-79.85 35.48-8.62 71.24 13.16 79.85 48.65 8.62 35.48-13.16 71.24-48.65 79.85C634.86 1758 599.1 1736.22 590.49 1700.74zM543.01 1720.04l-2.38-9.78c-1.55-6.39-9.09-10.03-16.85-8.15l-116.09 28.19c-7.75 1.88-12.78 8.59-11.23 14.97l2.37 9.78c1.55 6.38 9.09 10.03 16.85 8.15l116.09-28.19C539.53 1733.12 544.56 1726.42 543.01 1720.04z" class="color1a335b svgShape"/><path fill="#ffffff" d="M690.9 1709.27c-9.52 6.31-22.36 3.71-28.68-5.81-6.31-9.52-3.71-22.36 5.81-28.68 9.52-6.31 22.36-3.71 28.68 5.81C703.03 1690.11 700.43 1702.95 690.9 1709.27zM662.26 1734.54c-3.39 2.24-7.95 1.32-10.19-2.06-2.24-3.38-1.32-7.95 2.07-10.19 3.38-2.24 7.95-1.32 10.19 2.07C666.57 1727.74 665.64 1732.3 662.26 1734.54z" class="colorfff svgShape"/></g></svg>