<svg xmlns="http://www.w3.org/2000/svg" viewBox="0 0 3000 2000"><g data-name="Layer 1"><path fill="#ffbf66" d="M1965.793 1393.886c22.615 23.35 62.978 3.931 94.346 9.412 31.387 5.437 65.105 39.428 54.138 75.02-12.106 39.2-60.924 29.058-60.924 87.56 0 57.385 165.116 27.867 250.391 27.867 56.264 0 137.225 25.016 157.736 91.512a112.83 112.83 0 0 1 4.891 33.539c0 1.142-.023 2.26-.07 3.38-477.62 1.481-1391.578 9.39-1896.61 4.774q-.688-18.674-1.188-37.326-2.641-91.043-2.534-182.135c.021-25.949.432-53.068 10.758-75.89 16.7-36.938 54.962-53.317 73.786-88.744 2.694-5.075 4.98-10.713 5.047-16.704.252-23.664-28.029-27.41-44.591-40.363-23.483-18.389-22.385-63.23-4.408-89.045 18-25.79 46.715-36.596 74.22-43.492 97.063-24.398 198.603-15.83 294.98-43.93 18.596-5.414 40.756-18.047 40.413-40.937-.364-25.13-26.82-35.59-47.766-37.738-145.264-14.87-291.717 34.7-436.5 14.119-27.117-3.862-58.55-14.577-67.618-45.346-10.737-36.502 18.388-72.734 48.04-88.27 84.295-44.224 259.689 40.366 270.63-54.412 3.337-28.947-45.412-42.763-47.583-75.09-2.992-44.226 35.294-75.634 70.244-90.484 83.975-35.635 175.236-34.402 264.281-32.78q63.667 1.164 127.262 2.1c1.805.05 3.634.07 5.439.094 259.003 3.084 518.373-5.463 777.124-2.834 127.172 1.301 332.699 73.375 303.367 236.912-7.517 41.967-33.738 78.448-67.32 93.66-29.607 13.432-62.319 10.715-93.797 14.713-31.502 4.022-95.237 18.32-80.137 51.74 38.538 85.28 183.183 8.362 275.383 8.91 39.816.227 81.05 4.981 115.772 28.235 34.745 23.277 61.45 69.127 56.653 116.389-4.066 40.047-29.699 73.332-59.761 91.648-30.062 18.322-64.237 24.08-97.772 28.465a1555.11 1555.11 0 0 1-298.705 10.1c-16.63-1.053-34.06-2.168-49.047 6.507-14.94 8.682-32.002 34.995-18.57 48.864ZM1815.512 590.228h-616.03c-13.638 0-13.662 21.197 0 21.197h616.03c13.64 0 13.662-21.197 0-21.197ZM1929.568 588.343h-50.18c-13.639 0-13.661 21.195 0 21.195h50.18c13.638 0 13.66-21.195 0-21.195ZM1992.617 588.343c-13.639 0-13.66 21.195 0 21.195 13.638 0 13.66-21.195 0-21.195Z" class="colordae5f7 svgShape"/><path fill="#ffbf66" d="M2366.63 875.034c-4.93-72.834-35.939-143.04-87.968-194.54-52.02-51.497-122.506-81.876-195.393-86.07-13.627-.782-13.583 20.417 0 21.196 67.254 3.867 132.463 32.403 180.405 79.86 47.933 47.449 77.213 112.334 81.762 179.554.916 13.533 22.122 13.639 21.195 0ZM2345.428 938.276a185.388 185.388 0 0 1-75.205 73.528c-12.041 6.416-1.346 24.717 10.698 18.302a205.874 205.874 0 0 0 82.806-81.134c6.675-11.914-11.623-22.608-18.3-10.696ZM2231.674 1032.313c-13.635 0-13.658 21.192 0 21.192 13.64 0 13.662-21.192 0-21.192ZM911.912 597.29c-61.84 4.041-127.573 8.342-182.428 40.215-45.824 26.623-82.203 72.342-84.568 126.754-.592 13.639 20.604 13.611 21.194 0 2.134-49.047 37.986-89.193 79.576-111.531 50.526-27.141 110.17-30.578 166.226-34.24 13.54-.887 13.64-22.089 0-21.198ZM1017.096 600.234c-13.637 0-13.66 21.19 0 21.19 13.638 0 13.66-21.19 0-21.19ZM2161.783 1501.376a49.724 49.724 0 1 1 49.725 49.725 49.726 49.726 0 0 1-49.725-49.725ZM2141.256 1403.884a20.527 20.527 0 1 1 20.527 20.53 20.525 20.525 0 0 1-20.527-20.53ZM2497.082 1344.009a20.526 20.526 0 1 1 20.527 20.521 20.528 20.528 0 0 1-20.527-20.521ZM2469.033 1561.638a21.174 21.174 0 1 1 21.174 21.174 21.173 21.173 0 0 1-21.174-21.174ZM2327.549 1445.917a62.304 62.304 0 1 1 62.305 62.305 62.303 62.303 0 0 1-62.305-62.305ZM453.406 1327.64a65.173 65.173 0 1 1 65.174 65.172 65.174 65.174 0 0 1-65.174-65.172ZM524.94 1146.874a28.613 28.613 0 1 1 28.613 28.611 28.613 28.613 0 0 1-28.614-28.61ZM700.588 1094.417a13.512 13.512 0 1 1 13.514 13.512 13.512 13.512 0 0 1-13.514-13.512ZM495.567 1486.188a19.044 19.044 0 1 1 19.043 19.047 19.046 19.046 0 0 1-19.043-19.046Z" class="colordae5f7 svgShape"/><path fill="#f9dccb" d="M2115.73 1251.933 2056.668 1306l-68.722-55.316a1206.428 1206.428 0 0 1 127.786 1.248Z" class="colorf9cbcb svgShape"/><path fill="#50250b" d="M1908.13 1001.812c-68.204-58.756-51.704-209.354 27.07-215.213 137.767-179.483 395.763-7.653 274.546 215.213Z" class="color0b2d50 svgShape"/><path fill="#f9dccb" d="M2118.328 1266.782c-39.144 52.766-88.941 68.873-133.636 0 4.251-25.806 17.843-108.29 21.83-132.677l87.876-.577Z" class="colorf9cbcb svgShape"/><path fill="#ebc6b0" d="M2118.328 1266.782c-3.252 4.213-6.697 8.237-9.95 12.06-15.474-52.341-28.532-116.24-107.792-108.552l5.937-36.185 87.875-.577Z" class="colorebb0b0 svgShape"/><path fill="#ffb58a" d="M2220.291 946.099c65.385-26.887 85.287 79.078-30.021 85.185Z" class="colore0b9a0 svgShape"/><path fill="#f9dccb" d="M1896.179 943.005c-65.529-27.217-84.015 79.234 30.23 85.72Z" class="colorf9cbcb svgShape"/><path fill="#f9dccb" d="M2218.701 952.355c-14.672 273.115-298.47 262.521-317.352-.01 3.796-231.674 313.586-231.653 317.352.01Z" class="colorf9cbcb svgShape"/><path fill="#ebc6b0" d="M2060.028 776.183c-2.51 0-4.956.285-7.436.416 207.062 9.568 185.122 356.668 5.038 380.31 196.014-2.44 223.636-379.035 2.398-380.726Z" class="colorebb0b0 svgShape"/><path fill="#754224" d="M2231.726 932.86v.393a.715.715 0 0 0-.193-.584Z" class="color754c24 svgShape"/><path fill="#fdf1ea" d="M1967.202 959.765c-.419-28.719 44.696-28.715 44.273.006.42 28.713-44.697 28.716-44.273-.006ZM2102.48 959.765c-.421-28.715 44.692-28.719 44.269.006.42 28.716-44.693 28.713-44.268-.006Z" class="colorfdeaea svgShape"/><path fill="#50250b" d="M2148.948 908.774c-13.009-10.326-32.713-13.177-46.362-1.326-4.78 4.502 2.787 11.625 6.982 6.559 17.348-18.46 45.162 8.045 39.38-5.232ZM1968.559 913.741c26.425-15.937 34.543 6.516 42.916 1.914 6.878-11.582-16.975-15.66-23.864-14.6-4.817-1.775-34.174 11.75-19.052 12.686ZM2140.398 959.765c.3-20.475-31.87-20.475-31.569.006-.298 20.47 31.87 20.47 31.568-.006ZM2005.122 959.462c.299-20.475-31.867-20.479-31.565.004-.3 20.476 31.867 20.472 31.565-.004Z" class="color0b2d50 svgShape"/><path fill="#ffffff" d="M2122.311 954.448c3.893-3.787-2.131-9.81-5.918-5.92-3.895 3.785 2.137 9.815 5.918 5.92ZM1987.686 954.448c3.899-3.783-2.133-9.81-5.92-5.92-3.895 3.785 2.138 9.815 5.92 5.92Z" class="colorfff svgShape"/><path fill="#ebc6b0" d="M2062.73 1030.349c-4.478-.451-17.65-1.588-17.315-8.426 8.401-2.484 14.577 10.37 31.152-.781 12.535 1.777-10.29 10.851-13.836 9.207Z" class="colorebb0b0 svgShape"/><path fill="#50250b" d="M2108.66 1060.878c-4.213 14.357-11.678 24.695-20.49 30.824v.192c-26.962 19.42-60.547.875-66.625-31.016a242.227 242.227 0 0 0 87.115 0Z" class="color0b2d50 svgShape"/><path fill="#ffffff" d="M2100.81 1062.028v9.57c-23.166 4.977-46.906 3.837-71.412-.757v-8.813a274.94 274.94 0 0 0 71.413 0Z" class="colorfff svgShape"/><path fill="#f0a478" d="M2088.17 1091.702v.192c-15.31 11.101-34.84 10.337-49.008-1.155 8.52-12.025 41.486-11.718 49.008.963Z" class="colorf08078 svgShape"/><path fill="#924c23" d="M2407.182 1703.148q-11.72 11.132-24.125 21.312H1730.34q-12.608-10.178-24.534-21.313c60.359-331.087-46.881-374.435 282.144-452.466l68.713 55.326c9.094-8.322 50.846-46.53 59.053-54.07 316.744 44.12 233.281 160.814 291.465 451.21Z" class="color236192 svgShape"/><path fill="#d4d2d1" d="M2095.328 1387.901c-.17-.91-4.494-32.101-4.73-32.935 2.368-4.225 4.408-8.947 7.198-14.537l16.425 7.459c-1.76-24.922 15.391-47.426 36.515-70.68-1.748-.59-33.918-17.254-35.005-15.39l-58.18 53.26c-.624.013-1.242.019-1.86.025l-67.746-54.534c-6.547-.152-31.224 15.963-36.963 19.153 17.39 20.314 35.038 44.445 44.517 71.713 6.39-3.168 31.951-15.826 37.812-18.748 3.744 6.375 7.207 26.72 16.962 27.033-7.199 74.27-25.364 154.453-27.173 228.156 58.086 84.584 41.142 86.924 97.865-.611-.525-56.965-19.98-142.844-25.637-199.364Z" class="colord1d3d4 svgShape"/><path fill="#50250b" d="m2017.063 1308.542 15.38 37.387a11.086 11.086 0 0 0 10.244 6.857c7.97-1.582 35.707 4.66 39.424-6.125 5.78-11.785 17.848-36.596 17.848-38.119 0-1.685-82.896 0-82.896 0Z" class="color0b2d50 svgShape"/><path fill="#50250b" d="M2107.496 1585.032c-12.025 18.647-26.832 41.606-38.861 60.266-10.72 13.01-20.122-.703-25.772-10.38-8.355-16.036-31.69-39.6-35.047-56.968 9.656-72.982 19.832-151.152 29.428-223.8 1.059-13.104 20.145-9.27 28.722-10.137a11.162 11.162 0 0 1 11.329 9.586c7.451 69.595 27.88 161.273 30.201 231.433Z" class="color0b2d50 svgShape"/><path fill="#ffffff" d="M2150.736 1267.321c-21.124 23.254-38.275 45.758-36.515 70.676-13.55-6.17-44.506-20.166-58.342-26.412-15.052 7.488-45.36 22.53-60.38 29.961-9.48-27.266-27.128-51.398-44.517-71.709 5.89-3.268 30.282-19.248 36.963-19.152l68.722 55.316 59.063-54.068c1.004-1.895 33.359 14.836 35.006 15.388Z" class="colorfff svgShape"/><path fill="#50250b" d="M1896.147 960.284s64.829-18.144 65.572-130.486c20.26 37.516 62.512 86.394 124.466 92.377a51.226 51.226 0 0 1 0-36.822c3.538 30.263 29.731 57.548 61.765 62.324-3.59-11.877-7.513-34.623 5.984-40.233 8.015 32.041 33.578 61.456 61.87 63.694 32.93-68.946-7.704-102.354-36.095-160.899-1.47-2.209-84.688-56.705-84.688-56.705l-109.73 5.516c-30.537 50.318-143.955 141.81-89.144 201.234Z" class="color0b2d50 svgShape"/><path fill="#404040" d="M2236.14 932.146h-13.324c32.663-288.903-364.09-288.7-331.35 0h-13.323c-33.036-306.414 391.115-306.2 357.998 0Z" class="color404040 svgShape"/><path fill="#ffffff" d="M1870.566 920.78c-.271-18.474 28.747-18.474 28.475 0 .27 18.471-28.748 18.471-28.475 0ZM2215.241 920.78c-.268-18.474 28.747-18.474 28.476 0 .27 18.471-28.748 18.471-28.476 0Z" class="colorfff svgShape"/><path fill="#404040" d="M2049.53 1132.542c.036-.014.073-.021.109-.033-.485-1.166-4.211-16.05-4.65-17.707-4.95.8-10.19 3.32-11.548 8.37-78.285 19.862-140.367.858-136.941-80.476l-13.305-.728c-7.595 92.892 79.414 116.693 154.545 93.853 3.57 2.809 8.666 2.135 12.82.746Z" class="color404040 svgShape"/><path fill="#cccccc" d="M2049.53 1132.542c.036-.014.073-.021.109-.033-.485-1.166-4.211-16.05-4.65-17.707l-.25.062c.491 1.885 2.943 11.72 3.527 13.326l-.107.03 1.03 4.025c-4.158 1.39-9.247 2.065-12.82-.744-56.293 15.68-128.861 11.857-149.065-48.793 17.762 64.154 92.62 69.447 150.436 53.113 3.57 2.809 8.666 2.135 12.82.746ZM1894.982 1042.612c-.329 13.432 1.374 25.502 5.025 35.994-3.03-10.585-4.24-22.609-3.507-35.91Z" class="colorccc svgShape"/><path fill="#e59a6f" d="M1828.477 986.22c0 25.031 18.126 45.324 40.492 45.324v-90.648c-22.366 0-40.492 20.29-40.492 45.324Z" class="color6fb1e5 svgShape"/><path fill="#cccccc" d="M1830.072 976.427c0-1.147.08-2.26.155-3.383-8.196 27.168 11.638 59.24 38.742 58.5v-9.883c-21.617-.951-38.897-20.81-38.897-45.234Z" class="colorccc svgShape"/><path fill="#df814b" d="M2228.871 880.337a14.495 14.495 0 0 1-14.388-13.39c-6.817-80.827-74.782-144.512-157.34-144.512-82.561 0-150.527 63.685-157.342 144.511a14.497 14.497 0 0 1-14.39 13.391c-9.632.023-16.15-8.984-14.147-18.35 9.334-95.361 90.718-169.916 188.806-168.398 96.593 1.494 175.656 76.683 183.238 171.732a14.406 14.406 0 0 1-14.437 15.016Z" class="color4b9ddf svgShape"/><path fill="#cccccc" d="M2046.563 720.083c-82.561 0-150.526 63.69-157.343 144.512a14.53 14.53 0 0 1-12.019 13.181c8.719 6.368 22.03.084 22.6-10.83 6.596-90.998 95.478-159.722 186.187-141.843a157.485 157.485 0 0 0-39.425-5.02ZM2243.277 864.856c-6.928-84.037-69.738-152.466-151.084-167.976 76.159 19.201 133.88 85.27 140.503 165.625a14.36 14.36 0 0 1-11.99 15.26c9.392 6.966 23.886-1.145 22.571-12.909Z" class="colorccc svgShape"/><path fill="#df814b" d="M1884.805 924.308a24.527 24.527 0 0 0-24.528 24.525v74.775a24.526 24.526 0 0 0 49.053 0v-74.775a24.526 24.526 0 0 0-24.525-24.525Z" class="color4b9ddf svgShape"/><path fill="#cccccc" d="M1889.613 924.786c7.514 6.64 2.54 78.42 3.881 87.979.179 15.287-14.412 27.193-29.336 24.047a24.511 24.511 0 0 0 45.172-13.203v-74.776a24.526 24.526 0 0 0-19.717-24.047Z" class="colorccc svgShape"/><path fill="#e59a6f" d="M2243.651 934.91v90.65c53.208-.936 53.17-89.733 0-90.65Z" class="color6fb1e5 svgShape"/><path fill="#cccccc" d="M2282.544 970.437c0-1.14-.077-2.256-.15-3.374 8.192 27.167-11.64 59.235-38.743 58.497v-9.885c21.618-.95 38.893-20.81 38.893-45.238Z" class="colorccc svgShape"/><path fill="#df814b" d="M2227.816 918.321a24.525 24.525 0 0 0-24.525 24.528v74.773a24.525 24.525 0 1 0 49.05 0V942.85a24.526 24.526 0 0 0-24.525-24.528Z" class="color4b9ddf svgShape"/><path fill="#cccccc" d="M2223.006 918.8c-7.512 6.642-2.54 78.422-3.883 87.978-.178 15.287 14.415 27.196 29.337 24.05-11.918 20.282-46.015 10.796-45.169-13.206V942.85a24.523 24.523 0 0 1 19.715-24.05Z" class="colorccc svgShape"/><path fill="#bfbfbf" d="M2089.223 1131.683c-13.337 2.254-42.755 17.314-47.817-4.451-6.028-21.493 27.03-22.485 39.795-26.883 20.24-5.5 28.43 26.427 8.022 31.334Z" class="colorbfbfbf svgShape"/><path fill="#cccccc" d="M2100.876 1112.005a16.163 16.163 0 00-15.258-12.143c14.972 4.229 14.542 27.639-.97 31.037-2.955.534-30.17 8.335-32.556 7.694 6.179 3.138 30.684-5.988 37.13-6.908a16.175 16.175 0 0011.654-19.68zM2058.498 1115.833a1.34 1.34 0 011.275 2.355 1.34 1.34 0 01-1.275-2.355zM2065.958 1117.235a1.34 1.34 0 012.674.172 1.34 1.34 0 01-2.674-.172z" class="colorccc svgShape"/><path fill="#cccccc" d="M2065.748 1125.933a1.34 1.34 0 012.673.177 1.34 1.34 0 01-2.673-.177zM2060.326 1122.95a1.34 1.34 0 011.276 2.358 1.34 1.34 0 01-1.276-2.358zM2061.959 1110.153a1.34 1.34 0 011.274 2.356 1.34 1.34 0 01-1.274-2.356zM2069.83 1110.68a1.34 1.34 0 011.274 2.356 1.34 1.34 0 01-1.274-2.355zM2073.629 1106.247a1.341 1.341 0 011.273 2.36 1.341 1.341 0 01-1.273-2.36zM2080.164 1108.177a1.34 1.34 0 011.275 2.355 1.34 1.34 0 01-1.275-2.355zM2083.195 1103.245a1.34 1.34 0 011.274 2.358 1.34 1.34 0 01-1.274-2.358zM2089.242 1107.91a1.34 1.34 0 011.276 2.355 1.34 1.34 0 01-1.276-2.356zM2086.842 1113.07a1.34 1.34 0 011.273 2.357 1.34 1.34 0 01-1.273-2.358zM2083.796 1120.868a1.34 1.34 0 01-.96-2.5 1.34 1.34 0 01.96 2.5zM2090.653 1122.49a1.342 1.342 0 01-.958-2.507 1.342 1.342 0 01.958 2.506zM2079.074 1125.769a1.34 1.34 0 01-.957-2.504 1.34 1.34 0 01.957 2.504zM2073.192 1118.438a1.342 1.342 0 011.275 2.362 1.342 1.342 0 01-1.275-2.361zM2077.957 1114.259a1.34 1.34 0 011.277 2.355 1.34 1.34 0 01-1.277-2.355zM2047.033 1115.21a1.34 1.34 0 012.652-.38 1.34 1.34 0 01-2.652.38zM2053.339 1120.44a1.34 1.34 0 011.274 2.356 1.34 1.34 0 01-1.274-2.356zM2053.012 1127.558a1.34 1.34 0 011.273 2.355 1.34 1.34 0 01-1.273-2.355zM2094.621 1116.273a1.341 1.341 0 01-.959-2.504 1.341 1.341 0 01.96 2.504zM2053.295 1111.728a1.34 1.34 0 011.272 2.357 1.34 1.34 0 01-1.272-2.357zM2045.781 1120.65a1.34 1.34 0 011.275 2.355 1.34 1.34 0 01-1.275-2.356z" class="colorccc svgShape"/><path fill="#ffffff" d="M2257.031 1424.958h-104.539a11.855 11.855 0 1 1 0-23.71h104.54c15.35-.227 15.4 23.937 0 23.71Z" class="colorfff svgShape"/><path fill="#d4d2d1" d="M1859.508 1675.82q-13.673-5.658-26.92-12.045l15.789-123.315zM2305.01 1654.626q-11.84 6.278-24.033 11.955l-2.427-125.664z" class="colord1d3d4 svgShape"/><path fill="#50250b" d="M1063.602 975.544c19.932-127.742-95.59-259.897-205.94-191.625-132.6-40.137-231.8 143.951-137.122 284.053-94.286 261.572 122.501 401.142 277.26 240.804-26.465-126.36 40.307-214.478 65.802-333.232Z" class="color0b2d50 svgShape"/><path fill="#ffffff" d="m999.966 1277.056-117.483 180.218-151.048-166.48c30.487-10.129 74.878-21.39 95.818-25.74h111.45c11.522 1.74 42.32 7.447 61.263 12.002Z" class="colorfff svgShape"/><path fill="#924c23" d="M959.883 1268.704c-18.39 93.324-138.7 96.006-161.739 3.13 17.65-4.4 29.108-6.78 29.108-6.78 17.802.71 116.846-2.514 132.63 3.65Z" class="color236192 svgShape"/><path fill="#924c23" d="M1228.231 1697.2H551.865s35.2-303.568 65.497-345.992c17.529-24.273 96.08-54.588 144.069-70.258l121.052 176.324 110.644-169.748 6.839-10.47a.07.07 0 0 1 .06.021c51.578 11.867 123.623 33.477 144.896 63.563 30.32 42.422 83.31 356.56 83.31 356.56Z" class="color236192 svgShape"/><path fill="#f9dccb" d="M937.714 1268.788c-3.882 59.617-94.007 87.88-110.461-3.734 4.311-21.518 17.451-91.28 21.483-111.65l74.293 1.511.464 3.57Z" class="colorf9cbcb svgShape"/><path fill="#ebc6b0" d="M937.714 1268.788a57.075 57.075 0 0 1-5.748 22.108c-13.925-53.621-17.878-110.856-89.1-106.186l5.849-30.459 74.293 1.516.485 2.718Z" class="colorebb0b0 svgShape"/><path fill="#f9dccb" d="m757.754 1028.12 18.893 61.164a3.74 3.74 0 0 0-1.91-.115l-.112-.336c-95.938-3.652-103.148-103.803-37.456-92.082 2.451 11.645 12.59 21.557 20.585 31.37ZM1007.168 1096.6c-2.309.59-4.544.835-7.204 1.344.205-.32 11-55.28 11.447-57.552a185.819 185.819 0 0 0 16.83-33.81c56.96-17.948 71.067 68.19-21.073 90.019ZM1044.333 945.231a193.137 193.137 0 0 1-10.22 36.004c.05-2.912.338-28.09.461-30.214 2.11-1.914 4.65-3.153 9.759-5.79Z" class="colorf9cbcb svgShape"/><path fill="#ebc6b0" d="M742.054 943.132c-.472 6.588-1.225 23.057-1.516 29.836-4.16-11.945-10.3-24.738-8.623-36.512 3.216 1.149 8.373 5.42 10.139 6.676Z" class="colorebb0b0 svgShape"/><path fill="#f9dccb" d="M1042.225 997.106c-6.411 160.86-187.069 250.166-283.077 90.536C619.966 831.655 1024.55 687 1042.225 997.106Z" class="colorf9cbcb svgShape"/><path fill="#ebc6b0" d="M891.02 819.882c-2.551-.068-5.05.15-7.577.215 195.057 12.31 181.594 350.408-6.882 352.281 202.539 8.55 225.75-343.367 14.46-352.496Z" class="colorebb0b0 svgShape"/><path fill="#ebc6b0" d="M737.117 1007.769c41.586-41.623 77.028-86.008 79.88-145.043 57.919 120.64 206.951 55.548 209.719 193.962 18.618-19.091 23.647-97.537 16.593-134.443-7.167-37.517-122.398-114.205-141.866-118.89-59.1-3.573-105.875 14.67-149.568 31.26l-25.514 59.972s-9.021 73.205 10.756 113.182Z" class="colorebb0b0 svgShape"/><path fill="#50250b" d="M731.852 994.337c41.591-41.62 83.376-84.42 86.226-143.455C876 971.525 1025.038 906.43 1027.8 1044.845c18.619-19.09 23.648-97.54 16.592-134.442-7.164-37.52-122.397-114.21-141.865-118.89-59.1-3.582-105.875 14.664-149.568 31.256l-25.516 59.976c-4.002.19-30.39 65.135 4.409 111.592Z" class="color0b2d50 svgShape"/><path fill="#f4b794" d="M859.506 1094.269c23.473 11.353 42.33 9.449 65.289-2.207-10.966 25.193-52.807 27.988-65.29 2.207Z" class="colorf494a7 svgShape"/><path fill="#f7c9af" d="M789.434 1044.734c-.658-10.801 33.055-11.45 32.811-.633.66 10.793-33.056 11.445-32.811.632ZM944.809 1041.726c-.659-10.795 33.056-11.448 32.812-.633.66 10.797-33.056 11.451-32.812.633Z" class="colorf7afbd svgShape"/><path fill="#50250b" d="M786.386 1018.16c3.095-26.085 53.995-28.112 57.265-1.106-15.593-13.217-41.79-11.403-57.265 1.105ZM923.314 1015.51c3.095-26.085 53.996-28.112 57.263-1.109-15.592-13.21-41.79-11.4-57.263 1.11Z" class="color0b2d50 svgShape"/><path fill="#d4d2d1" d="M985.926 1406.724l26.343 36.795-129.242 111.43-130.332-111.43 29.856-37.682-77.258-65.197 47.262-56.746a676.38 676.38 0 018.876-2.944l121.052 176.324 110.644-169.748 6.898-10.449q6.053 1.389 12.386 2.961l52.488 60.602zM877.473 1583.773c-.36-24.635 38.334-24.635 37.97 0 .36 24.63-38.334 24.63-37.97 0zM877.473 1647.372c-.36-24.633 38.334-24.633 37.97 0 .36 24.637-38.335 24.637-37.97 0z" class="colord1d3d4 svgShape"/><path fill="#6c6764" d="M866.792 1583.773c-.358-24.635 38.335-24.635 37.972 0 .36 24.63-38.334 24.63-37.972 0ZM866.792 1647.372c-.358-24.633 38.335-24.633 37.972 0 .36 24.637-38.334 24.637-37.972 0Z" class="color646a6c svgShape"/><path fill="#be947b" d="m1050.953 1340.64-50.987-63.584-116.101 178.099-116.097-178.099-50.988 63.584 80.688 64.668-29.699 38.92 116.585 99.673 115.61-99.673-29.701-38.92 80.69-64.668z" class="color7ba0be svgShape"/><path fill="#50250b" d="M710.727 1277.077s80.453 112.315 55.562 196.291c0 0 97.65-91.271 60.965-208.31-36.687-117.034-67.477-95.235-67.477-95.235Z" class="color0b2d50 svgShape"/><path fill="#ffffff" d="M643.213 1347.722h493.67a32.14 32.14 0 0 1 32.14 32.14v286.291a32.142 32.142 0 0 1-32.142 32.143H643.213a32.14 32.14 0 0 1-32.14-32.14v-286.294a32.14 32.14 0 0 1 32.14-32.14Z" class="colorfff svgShape"/><path fill="#f0ded3" d="M1105.595 1347.722c-17.688 308.668-257.74 312.287-494.523 300.517 1.167 15.414-5.943 50.53 18.826 50.057H1150.2c10.396 0 18.823-9.064 18.823-20.246v-310.082c.582-30.4-45.875-17.807-63.428-20.246Z" class="colord3e6f0 svgShape"/><path fill="#f0ded3" d="M861.305 1540.52c.156-36.382 57.334-36.382 57.484 0-.155 36.383-57.332 36.381-57.484 0Z" class="colord3e6f0 svgShape"/><path fill="#ffffff" d="M1805.475 1347.722h493.669a32.14 32.14 0 0 1 32.14 32.14v286.293a32.14 32.14 0 0 1-32.14 32.141h-493.67a32.14 32.14 0 0 1-32.14-32.14v-286.294a32.14 32.14 0 0 1 32.14-32.14Z" class="colorfff svgShape"/><path fill="#f0ded3" d="M2267.857 1347.722c-17.688 308.668-257.74 312.287-494.523 300.517 1.167 15.414-5.944 50.53 18.824 50.057h520.304c10.395 0 18.822-9.064 18.822-20.246v-310.082c.581-30.4-45.875-17.807-63.427-20.246Z" class="colord3e6f0 svgShape"/><path fill="#f0ded3" d="M2023.568 1540.52c.157-36.382 57.332-36.382 57.483 0-.155 36.383-57.332 36.381-57.483 0Z" class="colord3e6f0 svgShape"/><path fill="#924c23" d="M2775.905 1724.46c-2.583-2.49-122.673-2.879-309.603-2.283-477.62 1.48-1391.58 9.389-1896.61 4.773-216.652-1.988-358.056-6.283-357.462-14.347-.045-9.594-2.216-24.924 11.833-25.174 2.742 2.648 137.703 2.927 344.44 2.195 496.488-1.807 1406.815-9.506 1892.977-4.367 198.948 2.103 326.873 6.353 326.302 14.05.025 9.596 2.193 24.901-11.877 25.153Z" class="color236192 svgShape"/><path fill="#ffffff" d="M1046.608 993.923h-12.516c30.68-271.367-341.997-271.174-311.242 0h-12.516c-31.032-287.818 367.38-287.613 336.274 0Z" class="colorfff svgShape"/><path fill="#808080" d="M703.216 983.25c-.252-17.354 27.005-17.354 26.748.003.255 17.348-27.002 17.348-26.748-.004ZM1026.977 983.25c-.254-17.354 27.002-17.354 26.748.003.253 17.348-27.004 17.348-26.748-.004Z" class="colorgray svgShape"/><path fill="#ffffff" d="M871.321 1157.372c.032-.012.067-.02.1-.031-.453-1.09-3.953-15.078-4.366-16.631-4.649.75-9.575 3.117-10.846 7.861-73.535 18.657-131.85.809-128.633-75.593l-12.495-.686c-7.137 87.262 74.595 109.617 145.167 88.162 3.354 2.637 8.138 2 12.042.697Z" class="colorfff svgShape"/><path fill="#cccccc" d="M871.321 1157.372c.032-.012.067-.02.1-.031-.453-1.09-3.953-15.078-4.366-16.631l-.234.059c.46 1.767 2.764 11.004 3.312 12.515-.033.014-.067.016-.102.03l.969 3.779c-3.906 1.308-8.687 1.941-12.041-.696-52.878 14.727-121.042 11.14-140.02-45.832 16.685 60.254 87 65.229 141.309 49.89 3.354 2.636 8.138 2 12.042.696ZM726.153 1072.901c-.311 12.616 1.288 23.955 4.718 33.813-2.848-9.945-3.982-21.242-3.295-33.736Z" class="colorccc svgShape"/><path fill="#e59a6f" d="M663.682 1044.72c0 23.515 17.027 42.574 38.034 42.574v-85.15c-21.007 0-38.034 19.062-38.034 42.576Z" class="color6fb1e5 svgShape"/><path fill="#cccccc" d="M665.182 1035.519c0-1.073.073-2.121.142-3.17-7.695 25.515 10.934 55.64 36.392 54.945v-9.287c-20.305-.887-36.534-19.543-36.534-42.488Z" class="colorccc svgShape"/><path fill="#df814b" d="M1039.778 945.265a13.617 13.617 0 0 1-13.513-12.578c-6.406-75.922-70.245-135.745-147.794-135.745s-141.39 59.823-147.794 135.745a13.618 13.618 0 0 1-13.516 12.578c-9.046.02-15.17-8.438-13.286-17.237 8.766-89.574 85.21-159.61 177.346-158.18 90.736 1.405 165.006 72.036 172.119 161.323a13.535 13.535 0 0 1-13.562 14.094Z" class="color4b9ddf svgShape"/><path fill="#cccccc" d="M868.532 794.731c-77.549 0-141.388 59.827-147.794 135.747a13.644 13.644 0 0 1-11.289 12.378c8.19 5.979 20.694.079 21.228-10.17 6.196-85.48 89.685-150.033 174.888-133.242a147.993 147.993 0 0 0-37.033-4.712ZM1053.31 930.72c-6.507-78.936-65.507-143.213-141.914-157.78 71.536 18.034 125.754 80.096 131.975 155.573a13.496 13.496 0 0 1-11.263 14.336c8.823 6.54 22.439-1.078 21.202-12.13Z" class="colorccc svgShape"/><path fill="#df814b" d="M716.59 986.563a23.033 23.033 0 0 0-23.035 23.038v70.236a23.037 23.037 0 1 0 46.073 0v-70.236a23.036 23.036 0 0 0-23.037-23.038Z" class="color4b9ddf svgShape"/><path fill="#cccccc" d="M721.108 987.01c7.058 6.241 2.384 73.667 3.646 82.645.168 14.358-13.537 25.543-27.556 22.59a23.024 23.024 0 0 0 42.43-12.408v-70.236a23.044 23.044 0 0 0-18.52-22.59Z" class="colorccc svgShape"/><path fill="#e59a6f" d="M1053.662 996.523v85.15c49.98-.877 49.943-84.287 0-85.15Z" class="color6fb1e5 svgShape"/><path fill="#cccccc" d="M1090.195 1029.898c0-1.073-.073-2.123-.142-3.172 7.695 25.517-10.932 55.64-36.39 54.947v-9.285c20.304-.89 36.532-19.543 36.532-42.49Z" class="colorccc svgShape"/><path fill="#df814b" d="M1038.788 980.942a23.035 23.035 0 0 0-23.039 23.036v70.24a23.039 23.039 0 1 0 46.077 0v-70.24a23.036 23.036 0 0 0-23.038-23.036Z" class="color4b9ddf svgShape"/><path fill="#cccccc" d="M1034.27 981.39c-7.055 6.24-2.387 73.664-3.647 82.644-.168 14.356 13.538 25.541 27.557 22.588-11.196 19.05-43.224 10.139-42.43-12.404l-.001-70.24a23.044 23.044 0 0 1 18.52-22.588Z" class="colorccc svgShape"/><path fill="#808080" d="M908.604 1156.565c-12.527 2.118-40.159 16.266-44.914-4.18-5.663-20.19 25.388-21.124 37.38-25.25 19.012-5.17 26.705 24.82 7.534 29.43Z" class="colorgray svgShape"/><path fill="#cccccc" d="M919.553 1138.081a15.185 15.185 0 00-14.334-11.406c14.062 3.975 13.659 25.965-.91 29.154-2.828.5-28.264 7.783-30.582 7.227 5.802 2.949 28.822-5.623 34.878-6.49a15.191 15.191 0 0010.948-18.485zM879.745 1141.677a1.26 1.26 0 011.196 2.215 1.26 1.26 0 01-1.196-2.215zM886.751 1142.995a1.259 1.259 0 012.512.162 1.259 1.259 0 01-2.512-.162z" class="colorccc svgShape"/><path fill="#cccccc" d="M886.555 1151.167a1.258 1.258 0 012.51.16 1.258 1.258 0 01-2.51-.16zM881.463 1148.366a1.259 1.259 0 011.195 2.215 1.259 1.259 0 01-1.195-2.215zM882.996 1136.343a1.258 1.258 0 011.197 2.213 1.258 1.258 0 01-1.197-2.213zM890.388 1136.84a1.257 1.257 0 011.197 2.21 1.257 1.257 0 01-1.197-2.21zM893.956 1132.677a1.258 1.258 0 011.196 2.213 1.258 1.258 0 01-1.196-2.213zM900.098 1134.49a1.258 1.258 0 011.195 2.212 1.258 1.258 0 01-1.195-2.213zM902.943 1129.853a1.26 1.26 0 011.198 2.214 1.26 1.26 0 01-1.198-2.214zM908.622 1134.235a1.258 1.258 0 011.197 2.213 1.258 1.258 0 01-1.197-2.213zM906.37 1139.081a1.259 1.259 0 011.196 2.213 1.259 1.259 0 01-1.197-2.213zM903.507 1146.41a1.258 1.258 0 01-.9-2.35 1.258 1.258 0 01.9 2.35zM909.95 1147.925a1.258 1.258 0 01-.903-2.348 1.258 1.258 0 01.902 2.348zM899.073 1151.009a1.257 1.257 0 01-.9-2.346 1.257 1.257 0 01.9 2.346zM893.547 1144.13a1.258 1.258 0 011.197 2.21 1.258 1.258 0 01-1.197-2.21zM898.025 1140.194a1.259 1.259 0 011.196 2.215 1.259 1.259 0 01-1.196-2.215zM868.977 1141.093a1.258 1.258 0 012.49-.356 1.258 1.258 0 01-2.49.356zM874.898 1146.003a1.259 1.259 0 011.198 2.213 1.259 1.259 0 01-1.198-2.213zM874.592 1152.687a1.26 1.26 0 011.197 2.216 1.26 1.26 0 01-1.197-2.216zM913.675 1142.09a1.26 1.26 0 01-.9-2.35 1.26 1.26 0 01.9 2.35zM874.856 1137.823a1.258 1.258 0 011.197 2.213 1.258 1.258 0 01-1.197-2.213zM867.8 1146.198a1.26 1.26 0 011.196 2.215 1.26 1.26 0 01-1.196-2.215z" class="colorccc svgShape"/><path fill="#df814b" d="M1352.153 415.103c-165.975-4.836-274.653 193.253-184.922 330.668-27.671 20.51-38.596 66.625-48.272 114.65 41.328-21.53 86.48-33.979 136.98-33.727 327.412 137.57 450.975-389.584 96.214-411.591Z" class="color4b9ddf svgShape"/><path fill="#d4d2d1" d="M1231.751 817.97a284.734 284.734 0 0 0-108.183 20.521c-1.603 7.205-3.12 14.545-4.609 21.93 40.256-20.973 84.151-33.29 133.072-33.686a217.707 217.707 0 0 1-20.28-8.765ZM1413.64 423.952c245.023 107.323 113.35 481.174-147.048 407.662 281.864 112.098 433.28-316.062 147.048-407.662Z" class="colord1d3d4 svgShape"/><path fill="#f19865" d="M1794.31 716.505c-104.253-66.523-110.986-31.898-208.19-12.67 47.733-147.234-64.026-308.426-217.556-315.842 140.975-258.209 526.8-41.93 377.477 213.864 32.588 19.4 44.078 62.865 48.27 114.648Z" class="colorf16580 svgShape"/><path fill="#d4d2d1" d="M1378.224 371.38a215.823 215.823 0 0 0-9.66 16.613c106.163 7.065 194.005 82.16 220.245 181.973-2.69-99.645-104.432-185.524-210.585-198.586ZM1774.17 470.302c0 41.664-16.227 91.65-36.578 124.703 3.617 2.152 5.334 4.127 8.449 6.852 31.108-48.612 39.95-114.745 24.772-169.786a218.426 218.426 0 0 1 3.357 38.23ZM1785.753 662.464c2.085 11.394 3.544 23.506 4.565 36.117-95.539-60.871-108.228-37.732-199.196-13.904-1.423 6.482-3.076 12.877-5.003 19.156 97.156-19.273 104.174-53.773 208.191 12.672-1.576-19.467-4.185-37.758-8.557-54.041Z" class="colord1d3d4 svgShape"/><path fill="#ffffff" d="M1577.443 451.794c-.456-31.31 48.727-31.31 48.266.002.456 31.307-48.725 31.307-48.266-.002ZM1660.582 451.794c-.458-31.31 48.723-31.31 48.264.002.457 31.307-48.727 31.307-48.264-.002ZM1198.483 629.032c-.457-31.31 48.726-31.31 48.266 0 .457 31.309-48.726 31.309-48.266 0ZM1279.094 629.032c-.457-31.31 48.724-31.31 48.264 0 .457 31.309-48.724 31.309-48.264 0ZM1364.542 629.032c-.458-31.31 48.725-31.31 48.263 0 .458 31.309-48.724 31.309-48.263 0ZM1447.678 629.032c-.455-31.31 48.726-31.31 48.263 0 .458 31.309-48.722 31.309-48.263 0Z" class="colorfff svgShape"/><path fill="#a73d00" d="M409.008 1588.345c8.513-28.957 25.796-55.387 49.424-74.205-27.544 10.79-51.448 30.088-68.648 54.133a466.445 466.445 0 0 1 59.788-194.338c-34.529 25.965-61.48 82.172-77.272 138.816-3.751-65.687-17.503-135.773 3.466-199.484-42.82 66.277-35.909 110.978-34.032 200.248-14.051-42.498-48.7-86.364-85.824-103.078 41.04 51.173 69.52 83.963 71.864 148.12-17.06-29.786-47.582-49.042-79.614-59.886 29.072 14.404 56.06 39.533 65.112 71.422a66.45 66.45 0 0 0-46.253-12.727c28.046 10.174 48.327 38.815 48.608 68.647 38.163-.963 79.797.156 102.223.156-.816-26.676 18.49-49.17 40.315-62.32-17.792 5.02-36.837 10.424-49.157 24.496Z" class="color00a79d svgShape"/><path fill="#f19865" d="M426.36 1617.79c-2.537 15.68-8.617 52.867-11.243 68.908h-99.752c-2.289-16.172-7.499-53.103-9.678-68.908Z" class="colorf16580 svgShape"/><path fill="#cccccc" d="m307.758 1632.65 2.266 16.208c59.296-1.673 94.495 10.844 105.093 37.84l11.243-68.908Z" class="colorccc svgShape"/><path fill="#f19865" d="M425.379 1632.65h-118.59a8.349 8.349 0 1 1 0-16.698h118.59c10.797-.158 10.856 16.858 0 16.697Z" class="colorf16580 svgShape"/><path fill="#df814b" d="M2538.423 1499.706h226.459v36.57h-226.459z" transform="rotate(-73.706 2651.652 1517.99)" class="color4b9ddf svgShape"/><path fill="#f2cdb7" d="M2691.883 1418.236h1.897v10.539h-1.897z" transform="rotate(-73.671 2692.832 1423.505)" class="colorb7d8f2 svgShape"/><path fill="#f2cdb7" d="M2686.59 1436.346h1.899v10.539h-1.899z" transform="rotate(-73.762 2687.54 1441.615)" class="colorb7d8f2 svgShape"/><path fill="#f2cdb7" d="M2681.304 1454.427h1.899v10.539h-1.899z" transform="rotate(-73.736 2682.253 1459.697)" class="colorb7d8f2 svgShape"/><path fill="#f2cdb7" d="M2676.013 1472.533h1.895v10.539h-1.895z" transform="rotate(-73.729 2676.947 1477.798)" class="colorb7d8f2 svgShape"/><path fill="#f2cdb7" d="M2670.719 1490.641h1.897v10.54h-1.897z" transform="rotate(-73.674 2671.668 1495.911)" class="colorb7d8f2 svgShape"/><path fill="#fae8de" d="M2665.433 1508.722h1.896v10.539h-1.896z" transform="rotate(-73.686 2666.381 1513.992)" class="colorfaedde svgShape"/><path fill="#fae8de" d="M2660.139 1526.831h1.898v10.537h-1.898z" transform="rotate(-73.674 2661.089 1532.1)" class="colorfaedde svgShape"/><path fill="#fae8de" d="M2654.846 1544.937h1.9v10.538h-1.9z" transform="rotate(-73.749 2655.796 1550.206)" class="colorfaedde svgShape"/><path fill="#fae8de" d="M2649.561 1563.016h1.897v10.54h-1.897z" transform="rotate(-73.674 2650.51 1568.286)" class="colorfaedde svgShape"/><path fill="#fae8de" d="M2644.268 1581.125h1.896v10.54h-1.896z" transform="rotate(-73.748 2645.217 1586.396)" class="colorfaedde svgShape"/><path fill="#fae8de" d="M2638.977 1599.233h1.893v10.54h-1.893z" transform="rotate(-73.582 2639.924 1604.503)" class="colorfaedde svgShape"/><path fill="#fae8de" d="M2633.69 1617.315h1.897v10.539h-1.897z" transform="rotate(-73.746 2634.64 1622.585)" class="colorfaedde svgShape"/><path fill="#df814b" d="M2599.011 1424.874h8.891v200.579h-8.891z" transform="rotate(-7.599 2603.456 1525.163)" class="color4b9ddf svgShape"/><path fill="#ffd7c0" d="M2621.13 1623.97c-.565 3.521-1.89 11.781-2.433 15.21-1.44-3.128-4.912-10.81-6.369-14.032Z" class="colorffc3c0 svgShape"/><path fill="#a76138" d="M2594.22 1427.13c-1.626-.305-9.306 2.682-9.531-.469-.427-4.51-3.476-13.799 3.655-14.61a5.554 5.554 0 0 1 6.245 4.772c-.318 1.615 2.835 10.121-.368 10.307ZM2595.29 1431.142c-1.128-.303-9.934 2.505-9.977.129-.616-2.3 8.694-1.913 9.66-2.495a1.191 1.191 0 0 1 1.341 1.022 1.195 1.195 0 0 1-1.024 1.344ZM2595.78 1434.815c-1.126-.306-9.934 2.502-9.977.127-.616-2.295 8.697-1.914 9.66-2.498a1.199 1.199 0 0 1 1.343 1.03 1.193 1.193 0 0 1-1.026 1.341Z" class="color3876a7 svgShape"/><path fill="#4d4d4d" d="m2619.58 1633.64-.883 5.541-2.33-5.108 3.213-.433z" class="color4d4d4d svgShape"/><path fill="#a73d00" d="M2533.263 1516.263h200.576v8.894h-200.576z" transform="rotate(-85.768 2633.551 1520.71)" class="color00a79d svgShape"/><path fill="#ffd7c0" d="M2636.518 1420.382c1.275-3.332 4.265-11.145 5.502-14.39.761 3.359 2.59 11.59 3.351 15.04Z" class="colorffc3c0 svgShape"/><path fill="#ff6103" d="M2622.486 1618.554c1.534.625 9.657-.71 9.233 2.416-.504 4.496.573 14.217-6.575 13.549a5.612 5.612 0 0 1-5.13-5.967c.671-1.914-.704-10.393 2.472-9.998ZM2622.264 1614.407c1.04.53 10.236-.412 9.79 1.922.13 2.371-8.904.09-9.968.461a1.193 1.193 0 0 1-1.1-1.277 1.196 1.196 0 0 1 1.278-1.106ZM2622.535 1610.716c1.042.525 10.236-.414 9.794 1.92.128 2.37-8.904.086-9.968.46a1.198 1.198 0 0 1-1.104-1.279 1.192 1.192 0 0 1 1.278-1.101Z" class="color862a26 svgShape"/><path fill="#4d4d4d" d="m2640.02 1411.234 2-5.243 1.23 5.477-3.23-.234z" class="color4d4d4d svgShape"/><path fill="#f19865" d="M2683.44 1511.603v176.529c-38.255 0-78.94.642-112.534-.705l-.761-175.824Z" class="colorf16580 svgShape"/><path fill="#f19865" d="M2564.559 1511.603h124.465v27.006h-124.465z" class="colorf16580 svgShape"/><path fill="#cccccc" d="M2683.44 1538.609v149.523c-7.642-71.56-30.063-129.29-113.296-122.201v-27.322Z" class="colorccc svgShape"/></g></svg>