<svg xmlns="http://www.w3.org/2000/svg" enable-background="new 0 0 2500 2500" viewBox="0 0 2500 2500"><path fill="#ff6103" d="M2099.76,2072.47H387.07c-1.92,0-3.47-1.55-3.47-3.47c0-1.92,1.55-3.47,3.47-3.47h1712.69    c1.92,0,3.47,1.56,3.47,3.47C2103.23,2070.92,2101.68,2072.47,2099.76,2072.47z" class="color030047 svgShape"/><polygon fill="#fd985e" points="1927.18 2063.1 1953.95 1827.04 1737.77 1827.04 1764.54 2063.1" class="color605efd svgShape"/><path fill="#ff6103" d="M1967.8,1856.58h-243.89c-7.76,0-14.05-6.29-14.05-14.05v-38.02c0-7.76,6.29-14.05,14.05-14.05h243.89        c7.76,0,14.05,6.29,14.05,14.05v38.02C1981.85,1850.29,1975.56,1856.58,1967.8,1856.58z" class="color030047 svgShape"/><path fill="#ff6103" d="M1931.68,1823.52h-171.65c-11.1,0-20.09-9-20.09-20.09v-25.95c0-11.1,9-20.09,20.09-20.09h171.65        c11.1,0,20.09,9,20.09,20.09v25.95C1951.77,1814.52,1942.78,1823.52,1931.68,1823.52z" class="color030047 svgShape"/><path fill="#ff6103" d="M1868,1774.5h52.04l6.21-33.58c0.92-4.98-2.9-9.58-7.97-9.58h-20.99c-2.91,0-5.6,1.56-7.05,4.1        L1868,1774.5z" class="color030047 svgShape"/><circle cx="1851.45" cy="1950.14" r="40.66" fill="#ffbf66" class="colorffcc3d svgShape"/><path fill="#ff6103" d="M816.14,1018.51c-21.68,22.26-39.68,48.96-47.23,79.1c-6.27,25-5.18,51.43-11.79,76.34       c-7.35,27.68-23.75,51.9-38.44,76.49s-28.22,51.27-28.76,79.9s85.07,65.74,80.73,77.88c-4.34,12.14-12.73,22.32-19.42,33.34       s-11.86,24.12-8.72,36.62c3.5,13.94,16.79,23.71,30.74,27.16c13.95,3.45,28.59,1.72,42.83-0.18       c42.55-5.69,86.24-13.25,122.44-36.31c36.21-23.05,67.41-29.58,60.24-71.9c-5.77-34.01-32.38-65.66-23.99-99.12       c8.27-33,45.75-48.41,67.1-74.91c20.65-25.62,25.1-62.25,14.85-93.51c-10.25-31.27-33.88-57.14-62.18-73.92       c-28.3-16.78-61.03-25.03-93.79-28.06c-7.65-0.71-15.58-1.22-22.39-4.78c-29.53-15.48,17.53-36.7-2.51-47.29       C862.13,968.11,825.5,1008.9,816.14,1018.51z" class="color030047 svgShape"/><path fill="#ff6103" d="M1138.32,990.49c0,0,84.56,283.35,59.72,401.77c-28.47,135.73-297.69,106.63-367.18,42.25       s188.86-293.73,188.86-293.73L1138.32,990.49z" class="color030047 svgShape"/><path fill="#ffffff" d="M1439.9,1718.82l53.23,301.11c4.83,27.33-16.19,52.39-43.94,52.39h-152l-46.64-372.15l184.68,18.65" class="colorfff svgShape"/><path fill="#ff6103" d="M1449.19,2075.79h-152c-1.75,0-3.23-1.3-3.44-3.04l-46.64-372.15c-0.13-1.05,0.22-2.1,0.96-2.86        c0.74-0.75,1.78-1.14,2.83-1.03l184.68,18.66c0.77,0.08,1.45,0.4,1.98,0.88c0.47-0.42,1.06-0.73,1.73-0.85        c1.88-0.32,3.69,0.93,4.02,2.81l53.23,301.11c2.48,14.04-1.35,28.36-10.51,39.28        C1476.88,2069.53,1463.45,2075.79,1449.19,2075.79z M1300.26,2068.85h148.93c12.2,0,23.69-5.36,31.53-14.71        c7.84-9.35,11.12-21.59,8.99-33.6l-52.8-298.67c-0.6,0.33-1.3,0.49-2.03,0.41l-180.34-18.22L1300.26,2068.85z" class="color030047 svgShape"/><path fill="#fd985e" d="M1451.1,1734.68l-47.44-174.36c-20.33-57.32-69.25-99.77-128.86-111.83l-73.36-14.84l30.59,301.03H1451.1        z" class="color605efd svgShape"/><path fill="#ffffff" d="M1332.62 1566.37c-.17 0-.34-.01-.51-.04-1.9-.28-3.21-2.05-2.92-3.94l4.19-28.23c.28-1.9 2.05-3.21 3.94-2.92 1.9.28 3.21 2.05 2.92 3.94l-4.19 28.23C1335.79 1565.13 1334.31 1566.37 1332.62 1566.37zM1330.84 1503.4c-.4 0-.8-.07-1.2-.21l-14.97-5.51c-1.8-.66-2.72-2.66-2.06-4.46.66-1.8 2.66-2.72 4.46-2.06l14.97 5.51c1.8.66 2.72 2.66 2.06 4.46C1333.58 1502.53 1332.25 1503.4 1330.84 1503.4zM1326.42 1668.45c-.89 0-1.78-.34-2.45-1.02-1.36-1.36-1.36-3.55 0-4.91l22.56-22.56c1.35-1.36 3.55-1.36 4.91 0 1.36 1.36 1.36 3.55 0 4.91l-22.56 22.56C1328.19 1668.12 1327.31 1668.45 1326.42 1668.45z" opacity=".4" class="colorfff svgShape"/><path fill="#ff6103" d="M1451.1,1738.15h-219.07c-1.78,0-3.27-1.35-3.45-3.12l-18.19-178.99c-0.19-1.91,1.2-3.61,3.1-3.8        c1.91-0.17,3.61,1.19,3.81,3.1l17.87,175.87h211.39l-46.25-169.98c-0.5-1.85,0.59-3.76,2.44-4.26        c1.85-0.5,3.76,0.59,4.26,2.44l47.44,174.36c0.28,1.04,0.07,2.16-0.59,3.02C1453.2,1737.64,1452.18,1738.15,1451.1,1738.15z" class="color030047 svgShape"/><path fill="#fd985e" d="M979.89,1419.96c-45.78,0.29-135.1,4.35-204.96,18.72c-43.53,8.96-36.55,45.16-40.89,89.39l-29.14,544.25        h615.15l-12.14-536.84c-1.09-47.74-35.33-88.21-82.23-97.23C1149.97,1423.69,1029.2,1419.65,979.89,1419.96z" class="color605efd svgShape"/><g opacity=".4"><path fill="#ffffff" d="M869.44 1562.44c-.81 0-1.62-.28-2.27-.85-1.45-1.26-1.61-3.45-.35-4.9l20.54-23.7c1.25-1.45 3.45-1.61 4.9-.35 1.45 1.26 1.61 3.45.35 4.9l-20.54 23.7C871.38 1562.04 870.41 1562.44 869.44 1562.44zM925.32 1610.95h-30.16c-1.92 0-3.47-1.55-3.47-3.47 0-1.92 1.55-3.47 3.47-3.47h30.16c1.92 0 3.47 1.55 3.47 3.47C928.79 1609.39 927.24 1610.95 925.32 1610.95zM1103.15 1588.11c-.89 0-1.78-.34-2.45-1.02-1.36-1.36-1.36-3.55 0-4.91l26.8-26.8c1.36-1.36 3.55-1.36 4.91 0 1.36 1.36 1.36 3.55 0 4.91l-26.8 26.8C1104.93 1587.77 1104.04 1588.11 1103.15 1588.11zM1239.34 1514.83h-61.32c-1.92 0-3.47-1.55-3.47-3.47 0-1.92 1.55-3.47 3.47-3.47h61.32c1.92 0 3.47 1.55 3.47 3.47C1242.81 1513.27 1241.26 1514.83 1239.34 1514.83zM1177.19 1632.26c-.89 0-1.78-.34-2.45-1.02-1.36-1.36-1.36-3.55 0-4.91l30.76-30.76c1.36-1.36 3.55-1.36 4.91 0 1.36 1.36 1.36 3.55 0 4.91l-30.76 30.76C1178.97 1631.92 1178.08 1632.26 1177.19 1632.26zM1031.07 1607.41c-.89 0-1.78-.34-2.45-1.02-1.36-1.36-1.36-3.55 0-4.91l22.46-22.46c1.36-1.36 3.55-1.36 4.91 0 1.36 1.36 1.36 3.55 0 4.91l-22.46 22.46C1032.85 1607.07 1031.96 1607.41 1031.07 1607.41zM824.25 1507.26c-1.92 0-3.47-1.55-3.47-3.47v-8.98c0-.31.04-.61.12-.91l2.36-8.67c.51-1.85 2.42-2.95 4.26-2.44 1.85.5 2.94 2.41 2.44 4.26l-2.24 8.22v8.52C827.72 1505.71 826.17 1507.26 824.25 1507.26zM882.06 1684.51c-.89 0-1.78-.34-2.45-1.02l-27.08-27.07c-1.36-1.36-1.36-3.55 0-4.91 1.35-1.36 3.55-1.36 4.91 0l27.08 27.07c1.36 1.36 1.36 3.55 0 4.91C883.83 1684.17 882.94 1684.51 882.06 1684.51zM1064.83 1669.77c-.89 0-1.78-.34-2.45-1.02-1.36-1.36-1.36-3.55 0-4.91l16.27-16.27c1.36-1.36 3.55-1.36 4.91 0s1.36 3.55 0 4.91l-16.27 16.27C1066.61 1669.43 1065.72 1669.77 1064.83 1669.77zM1035.65 1806.59c-.89 0-1.78-.34-2.45-1.02l-35.7-35.7c-1.36-1.36-1.36-3.55 0-4.91 1.36-1.36 3.55-1.36 4.91 0l35.7 35.7c1.36 1.36 1.36 3.55 0 4.91C1037.43 1806.25 1036.54 1806.59 1035.65 1806.59zM1171.99 1781.64c-.89 0-1.78-.34-2.45-1.02-1.36-1.36-1.36-3.55 0-4.91l17.05-17.05c1.36-1.36 3.56-1.36 4.91 0 1.36 1.36 1.36 3.55 0 4.91l-17.05 17.05C1173.77 1781.3 1172.88 1781.64 1171.99 1781.64zM856.94 1813.84c-.89 0-1.78-.34-2.45-1.02-1.36-1.36-1.36-3.55 0-4.91l14.58-14.58c1.35-1.36 3.55-1.36 4.91 0 1.36 1.36 1.36 3.55 0 4.91l-14.58 14.58C858.72 1813.5 857.83 1813.84 856.94 1813.84zM958.61 1773.68c-.89 0-1.78-.34-2.45-1.02l-28.78-28.79c-1.36-1.36-1.36-3.55 0-4.91 1.36-1.36 3.55-1.36 4.91 0l28.78 28.79c1.36 1.36 1.36 3.55 0 4.91C960.39 1773.34 959.5 1773.68 958.61 1773.68zM1238.69 1913.26c-1.92 0-3.47-1.56-3.47-3.47v-39.94c0-1.92 1.55-3.47 3.47-3.47s3.47 1.56 3.47 3.47v39.94C1242.16 1911.71 1240.6 1913.26 1238.69 1913.26zM1180.44 1986.84c-.89 0-1.78-.34-2.45-1.02l-21.33-21.33c-1.36-1.36-1.36-3.55 0-4.91 1.36-1.36 3.55-1.36 4.91 0l21.33 21.33c1.36 1.36 1.36 3.55 0 4.91C1182.22 1986.5 1181.33 1986.84 1180.44 1986.84zM1090.56 1999.38h-44.57c-1.92 0-3.47-1.56-3.47-3.47s1.55-3.47 3.47-3.47h44.57c1.92 0 3.47 1.56 3.47 3.47S1092.48 1999.38 1090.56 1999.38zM884.03 1903.37c-.89 0-1.78-.34-2.45-1.02-1.36-1.36-1.36-3.55 0-4.91l42.65-42.65c1.36-1.36 3.55-1.36 4.91 0 1.36 1.36 1.36 3.55 0 4.91l-42.65 42.65C885.8 1903.03 884.91 1903.37 884.03 1903.37zM873.73 2007.1c-.89 0-1.78-.34-2.45-1.02l-40.81-40.81c-1.36-1.36-1.36-3.55 0-4.91 1.36-1.36 3.55-1.36 4.91 0l40.81 40.81c1.36 1.36 1.36 3.55 0 4.91C875.5 2006.76 874.61 2007.1 873.73 2007.1zM1180.38 1896.17c-1.92 0-3.47-1.56-3.47-3.47v-31.52c0-1.92 1.55-3.47 3.47-3.47 1.92 0 3.47 1.56 3.47 3.47v31.52C1183.85 1894.61 1182.3 1896.17 1180.38 1896.17zM1175.71 1822.84c-.89 0-1.78-.34-2.45-1.02-1.36-1.36-1.36-3.55 0-4.91l21.21-21.21c1.36-1.36 3.55-1.36 4.91 0 1.36 1.36 1.36 3.55 0 4.91l-21.21 21.21C1177.49 1822.5 1176.6 1822.84 1175.71 1822.84zM826.41 1858.14c-.89 0-1.78-.34-2.45-1.02l-28.16-28.15c-1.36-1.36-1.36-3.55 0-4.91 1.36-1.36 3.55-1.36 4.91 0l28.16 28.15c1.36 1.36 1.36 3.55 0 4.91C828.18 1857.8 827.29 1858.14 826.41 1858.14zM1251.29 1651.92c-1.92 0-3.47-1.56-3.47-3.47v-39.12c0-1.92 1.55-3.47 3.47-3.47 1.92 0 3.47 1.56 3.47 3.47v39.12C1254.76 1650.36 1253.21 1651.92 1251.29 1651.92zM1245.41 1554.58c-.89 0-1.78-.34-2.45-1.02-1.36-1.36-1.36-3.55 0-4.91l17.7-17.7c1.36-1.36 3.55-1.36 4.91 0 1.36 1.36 1.36 3.55 0 4.91l-17.7 17.7C1247.19 1554.24 1246.3 1554.58 1245.41 1554.58z" class="colorfff svgShape"/></g><path fill="#ff6103" d="M1320.05,2075.79c-1.88,0-3.43-1.5-3.47-3.39l-12.14-536.84c-0.04-1.92,1.47-3.51,3.39-3.55        c1.93,0.08,3.51,1.48,3.55,3.39l12.14,536.85c0.04,1.92-1.47,3.5-3.39,3.55C1320.1,2075.79,1320.07,2075.79,1320.05,2075.79z" class="color030047 svgShape"/><path fill="#ffffff" d="M932.87,1904.13l-14.14,168.21H638.82c-79.1,0-138.88-71.63-124.73-149.45l47.15-259.33l189.6,18.89        l-18.1,216.95L932.87,1904.13z" class="colorfff svgShape"/><path fill="#ff6103" d="M918.73,2075.81H638.82c-38.73,0-75.18-17.06-100-46.79c-24.82-29.74-35.08-68.65-28.15-106.75        l47.15-259.33c0.32-1.78,1.98-3.03,3.76-2.83l189.6,18.89c1.89,0.19,3.27,1.85,3.12,3.74l-17.79,213.28l196.44,4.64        c0.96,0.02,1.86,0.44,2.5,1.15c0.64,0.71,0.96,1.65,0.88,2.61l-14.14,168.21C922.04,2074.43,920.53,2075.81,918.73,2075.81z         M564.08,1667.33l-46.57,256.17c-6.56,36.08,3.16,72.91,26.65,101.07c23.49,28.15,58,44.3,94.67,44.3h276.71l13.56-161.36        l-196.44-4.64c-0.96-0.02-1.86-0.44-2.5-1.15c-0.64-0.71-0.96-1.65-0.88-2.61l17.81-213.55L564.08,1667.33z" class="color030047 svgShape"/><path fill="#fd985e" d="M791.48,1435.16l-100.6,12.69c-58.79,7.42-106.92,50.3-121.06,107.84l-34.77,175.59l253.82,20.57        L791.48,1435.16z" class="color605efd svgShape"/><path fill="#ffffff" d="M641.82 1560.95c-.89 0-1.78-.34-2.45-1.02-1.36-1.36-1.36-3.55 0-4.91l18.54-18.54c1.36-1.36 3.55-1.36 4.91 0 1.36 1.36 1.36 3.55 0 4.91l-18.54 18.54C643.6 1560.61 642.71 1560.95 641.82 1560.95zM676.72 1665.91c-.89 0-1.78-.34-2.45-1.02l-42.36-42.36c-1.36-1.36-1.36-3.55 0-4.91 1.36-1.36 3.55-1.36 4.91 0l42.36 42.36c1.36 1.36 1.36 3.55 0 4.91C678.5 1665.57 677.61 1665.91 676.72 1665.91zM726.33 1607.23c-.89 0-1.78-.34-2.45-1.02-1.36-1.36-1.36-3.55 0-4.91l28.59-28.59c1.36-1.36 3.55-1.36 4.91 0s1.36 3.55 0 4.91l-28.59 28.59C728.1 1606.89 727.22 1607.23 726.33 1607.23zM583.66 1697.34c-.89 0-1.78-.34-2.45-1.02l-17.05-17.05c-1.36-1.36-1.36-3.55 0-4.91 1.36-1.36 3.55-1.36 4.91 0l17.05 17.05c1.36 1.36 1.36 3.55 0 4.91C585.44 1697 584.55 1697.34 583.66 1697.34zM732.03 1504.62c-.89 0-1.78-.34-2.45-1.02-1.36-1.36-1.36-3.55 0-4.91l8.7-8.7c1.35-1.36 3.55-1.36 4.91 0s1.36 3.55 0 4.91l-8.7 8.7C733.81 1504.28 732.92 1504.62 732.03 1504.62zM686.1 1509.04c-.89 0-1.78-.34-2.45-1.02l-16.27-16.27c-1.36-1.36-1.36-3.55 0-4.91 1.36-1.36 3.55-1.36 4.91 0l16.27 16.27c1.36 1.36 1.36 3.55 0 4.91C687.87 1508.7 686.98 1509.04 686.1 1509.04zM729.15 1660.35c-.89 0-1.78-.34-2.45-1.02-1.36-1.36-1.36-3.55 0-4.91l19.46-19.46c1.36-1.36 3.55-1.36 4.91 0 1.36 1.36 1.36 3.55 0 4.91l-19.46 19.46C730.93 1660.01 730.04 1660.35 729.15 1660.35z" opacity=".4" class="colorfff svgShape"/><path fill="#ff6103" d="M788.87,1755.32c-0.09,0-0.19,0-0.28-0.01l-253.82-20.57c-0.99-0.08-1.89-0.57-2.49-1.37        c-0.6-0.79-0.83-1.79-0.64-2.77l34.77-175.59c0.37-1.88,2.19-3.11,4.08-2.73c1.88,0.37,3.1,2.2,2.73,4.08l-34.01,171.77        l246.24,19.95l2.56-178.29c0.03-1.92,1.62-3.56,3.52-3.42c1.92,0.03,3.45,1.6,3.42,3.52l-2.61,182        c-0.01,0.96-0.42,1.87-1.14,2.52C790.57,1755,789.73,1755.32,788.87,1755.32z" class="color030047 svgShape"/><path fill="#ffffff" d="M1344.25,1845.83c5.3-184.81,10.78-405.4,10.78-405.4s-5.69-69.16-1.43-91.61        c2.18-11.34,16.43-55.08,24.95-81.47c1.57-4.77,4.54-8.75,8.42-11.57c3.89-2.82,8.61-4.44,13.66-4.44        c13.19,0,23.75,10.97,23.19,24.16l2.92,45.13l35.23-99.57c1.25-10.18,10.6-17.31,20.74-15.83c4.44,0.65,8.42,2.92,11.16,6.11        c2.82,3.24,4.44,7.36,4.44,11.9v5.55c0,0,9.91-21.29,26.94-15.28c17.03,6.06,14.9,38,14.9,38s11.71-17.78,28-10.32        c16.06,7.31,8.38,39.44,8.19,40.41c1.39-0.65,23.24-10.6,29.44,11.76c4.58,16.57-11.85,51.89-21.52,70.54        c-3.61,7.08-40.32,60.73-42.68,84.89l1.71,526.81c-2.55,54.11-47.17,96.74-101.33,96.74" class="colorfff svgShape"/><path fill="#ff6103" d="M1441.96,2075.83c-1.92,0-3.47-1.56-3.47-3.47c0-1.92,1.55-3.47,3.47-3.47        c52.41,0,95.39-41.04,97.86-93.43l-1.72-526.64c1.98-20.45,26-58.92,37.54-77.41c2.71-4.34,4.86-7.78,5.51-9.07        c16.62-32.05,24.37-56.84,21.27-68.04c-1.51-5.43-4.15-9.04-7.84-10.75c-7.07-3.25-16.39,1.03-16.78,1.21        c-1.18,0.54-2.57,0.39-3.6-0.41c-1.03-0.8-1.52-2.11-1.28-3.39c3.12-14.35,3.31-32.26-6.22-36.6        c-13.35-6.11-23.26,8.46-23.67,9.08c-0.87,1.31-2.51,1.87-4.01,1.37c-1.49-0.5-2.46-1.94-2.35-3.51        c0.53-8.16-0.69-30.26-12.61-34.5c-13.9-4.91-22.54,13.28-22.63,13.47c-0.69,1.48-2.31,2.26-3.9,1.93        c-1.59-0.35-2.72-1.76-2.72-3.39v-5.55c0-3.6-1.24-6.92-3.59-9.61c-2.27-2.65-5.55-4.45-9.04-4.96        c-3.96-0.58-7.91,0.44-11.09,2.87c-3.18,2.43-5.21,5.96-5.7,9.95c-0.03,0.25-0.09,0.5-0.17,0.73l-35.23,99.57        c-0.55,1.55-2.11,2.52-3.75,2.28c-1.63-0.23-2.88-1.57-2.99-3.21l-2.92-45.13c0.22-5.79-1.72-10.92-5.47-14.84        c-3.76-3.92-8.82-6.08-14.26-6.08c-4.19,0-8.21,1.31-11.62,3.78c-3.37,2.45-5.85,5.85-7.17,9.85l-2.01,6.24        c-8.3,25.69-20.85,64.52-22.82,74.8c-4.12,21.73,1.43,89.98,1.49,90.67c-0.04,2.58-5.53,223.08-10.77,405.79        c-0.06,1.92-1.67,3.39-3.57,3.37c-1.92-0.05-3.43-1.65-3.37-3.57c5.24-182.69,10.72-403.18,10.78-405.39        c-0.22-2.47-5.67-69.51-1.38-92.17c2.05-10.7,14.18-48.23,23.03-75.63l2.02-6.26c1.79-5.41,5.13-10.01,9.69-13.31        c4.6-3.34,10.03-5.11,15.7-5.11c7.35,0,14.19,2.92,19.27,8.22c5.07,5.29,7.7,12.24,7.39,19.56l1.81,27.89l29.47-83.29        c0.8-5.7,3.75-10.74,8.32-14.23c4.68-3.57,10.47-5.07,16.31-4.22c5.2,0.76,9.92,3.35,13.29,7.29        c2.33,2.67,3.92,5.78,4.71,9.14c5.74-6.43,14.49-11.78,25.19-7.99c13.17,4.69,16.42,21.64,17.13,32.39        c6.27-5.29,15.6-9.39,26.06-4.6c13.89,6.33,13,26.78,11.25,38.33c4.54-1.15,10.85-1.81,16.66,0.86        c5.64,2.6,9.55,7.71,11.63,15.2c4.63,16.74-9.29,48.98-21.79,73.07c-0.79,1.54-2.78,4.74-5.8,9.57        c-10.38,16.63-34.7,55.58-36.51,74.06l1.73,526.46C1544.12,2031.88,1498.09,2075.83,1441.96,2075.83z" class="color030047 svgShape"/><path fill="#ffffff" d="M1540.14,1248.3c0,0-6.53,32.3-12.91,47.2c-6.38,14.9-21.76,32.47-21.76,32.47" class="colorfff svgShape"/><path fill="#ff6103" d="M1505.47,1331.43c-0.81,0-1.63-0.28-2.28-0.86c-1.44-1.26-1.59-3.46-0.33-4.9        c0.15-0.17,15.09-17.34,21.18-31.55c6.17-14.4,12.64-46.2,12.7-46.52c0.38-1.88,2.21-3.09,4.09-2.72        c1.88,0.38,3.09,2.21,2.71,4.09c-0.27,1.33-6.67,32.82-13.12,47.88c-6.53,15.23-21.69,32.65-22.34,33.38        C1507.4,1331.03,1506.44,1331.43,1505.47,1331.43z" class="color030047 svgShape"/><path fill="#ffffff" d="M1576.1,1280.96c0,0-6.53,29.68-12.91,43.37c-6.38,13.69-21.76,29.83-21.76,29.83" class="colorfff svgShape"/><path fill="#ff6103" d="M1541.43,1357.63c-0.86,0-1.72-0.32-2.39-0.96c-1.39-1.32-1.44-3.52-0.12-4.91        c0.15-0.16,15.06-15.9,21.13-28.91c6.15-13.18,12.6-42.35,12.67-42.64c0.41-1.87,2.27-3.07,4.14-2.64        c1.87,0.41,3.06,2.26,2.64,4.14c-0.27,1.23-6.68,30.21-13.16,44.09c-6.55,14.04-21.75,30.08-22.39,30.76        C1543.26,1357.27,1542.35,1357.63,1541.43,1357.63z" class="color030047 svgShape"/><path fill="#ffffff" d="M1498.31,1228.79c0,0-3.62,26.54-8.49,43.52c-4.17,14.52-21.57,39.59-21.57,39.59" class="colorfff svgShape"/><path fill="#ff6103" d="M1468.24 1315.38c-.68 0-1.37-.2-1.98-.62-1.58-1.09-1.97-3.26-.87-4.83.17-.25 17.12-24.77 21.08-38.57 4.75-16.56 8.35-42.77 8.39-43.04.26-1.9 2-3.24 3.91-2.97 1.9.26 3.23 2.01 2.97 3.91-.15 1.09-3.71 26.98-8.6 44.01-4.28 14.9-21.33 39.57-22.05 40.61C1470.42 1314.86 1469.34 1315.38 1468.24 1315.38zM1385.95 1728.48l-49.44 312.64c-2.82 18.01-18.38 31.24-36.57 31.24H778.69c-18.24 0-33.74-13.24-36.61-31.24l-49.44-312.64c-3.56-22.45 13.84-42.82 36.57-42.82h620.18C1372.16 1685.66 1389.52 1706.03 1385.95 1728.48z" class="color030047 svgShape"/><circle cx="1039.29" cy="1892.49" r="46.09" fill="#ffffff" class="colorfff svgShape"/><path fill="#ffb58a" d="M1085.4,1892.48c0,25.46-20.65,46.1-46.1,46.1c-19.49,0-36.15-12.08-42.91-29.21        c7.68,5.69,17.22,9.12,27.54,9.12c25.46,0,46.1-20.64,46.1-46.1c0-5.97-1.11-11.62-3.15-16.85        C1078.13,1863.97,1085.4,1877.34,1085.4,1892.48z" class="colore6f3fc svgShape"/><path fill="#ffffff" d="M1053.29,1306.91l9.92,106.7c0,0,60,93.9-30.64,102.88c-90.63,8.98-132.12-99.15-132.12-99.15           l7.59-180.47L1053.29,1306.91z" class="colorfff svgShape"/><path fill="#ff6103" d="M1022.07,1520.5c-84.75,0-124.45-100.84-124.86-101.91c-0.17-0.44-0.25-0.92-0.23-1.39l7.59-180.47           c0.05-1.17,0.68-2.23,1.68-2.83c1-0.6,2.24-0.65,3.29-0.15l145.25,70.04c1.1,0.53,1.84,1.59,1.95,2.81l9.84,105.88           c3.96,6.41,29.8,50.35,15.1,80.65c-7.44,15.33-23.85,24.36-48.77,26.83C1029.22,1520.32,1025.6,1520.5,1022.07,1520.5z            M903.95,1416.75c3.63,8.84,44.97,104.55,128.28,96.3c22.35-2.21,36.89-9.93,43.2-22.94           c13.87-28.55-14.86-74.16-15.15-74.62c-0.3-0.47-0.48-1-0.53-1.55l-9.73-104.75l-138.72-66.89L903.95,1416.75z" class="color030047 svgShape"/><path fill="#ffffff" d="M908.63,1260.36c-6.23-6.99-11.99-14.5-17.19-22.49c-23.32-35.86-40.05-78-63.99-120.49l212.7-144.61            c4.46,2.72,99.86,62.02,129.96,194.95c20.67,91.29-16.35,156.31-83.41,167.21c-39.6,6.44-92.92,3.02-127.68-13.98" class="colorfff svgShape"/><path fill="#ff6103" d="M1046.73,1341.46c-30.52,0-63.81-4.95-89.24-17.37c-1.72-0.84-2.44-2.92-1.59-4.64            c0.84-1.72,2.92-2.43,4.64-1.59c35.96,17.58,90.31,19.41,125.6,13.67c27.99-4.55,50.8-18.84,65.97-41.32            c20.36-30.18,25.55-73.4,14.62-121.7c-27.82-122.83-112.4-182.38-126.51-191.57l-208.19,141.54            c9.47,17.02,17.83,33.96,25.94,50.37c11.82,23.93,22.98,46.54,36.38,67.14c5.04,7.75,10.71,15.17,16.87,22.08            c1.28,1.43,1.15,3.63-0.28,4.9c-1.43,1.28-3.62,1.15-4.9-0.28c-6.39-7.16-12.28-14.87-17.5-22.91            c-13.63-20.95-24.88-43.73-36.79-67.86c-8.5-17.22-17.3-35.03-27.32-52.82c-0.89-1.57-0.42-3.56,1.07-4.57l212.7-144.61            c1.13-0.77,2.6-0.8,3.76-0.09c4.12,2.51,101.16,62.99,131.54,197.15c11.36,50.18,5.81,95.32-15.63,127.11            c-16.26,24.11-40.68,39.43-70.61,44.29C1075.15,1340.33,1061.26,1341.46,1046.73,1341.46z" class="color030047 svgShape"/><path fill="#ff6103" d="M929.97,1179.51l10.54,13.26c0,0,27.98-47.08,26.79-94.01c0,0,143.5,3.25,169.74-70.97         c34.19-96.74-168.58-135.12-260.78-62.17c-101.38,80.22-90.4,219.23-104.75,314.79c-14.35,95.56-10.78,68.76,18.89,96.24         c34.65,32.1,105.45,20.78,105.45,20.78l12.29-136.63L929.97,1179.51z" class="color030047 svgShape"/><path fill="#ffffff" d="M943.88,1245.59c0,0-20.96,17.44-52.48,16.36c-31.53-1.09-62.09-86.5-39.33-101.31          s77.9,18.88,77.9,18.88" class="colorfff svgShape"/><path fill="#ff6103" d="M894.26,1265.46c-0.98,0-1.98-0.02-2.98-0.05c-20.15-0.69-38.77-30.1-46.75-58.8          c-6.67-23.97-4.56-42.25,5.65-48.89c24.31-15.82,79.28,17.41,81.6,18.82c1.64,1,2.15,3.13,1.15,4.77          c-1,1.64-3.14,2.15-4.77,1.16c-14.82-9.05-57.05-30.09-74.2-18.93c-7.31,4.76-8.38,20.93-2.74,41.21          c7.22,25.97,24.27,53.17,40.3,53.72c29.69,1.06,49.94-15.39,50.15-15.56c1.47-1.22,3.66-1.02,4.89,0.46          c1.22,1.47,1.02,3.66-0.45,4.88C945.23,1248.98,925.06,1265.46,894.26,1265.46z" class="color030047 svgShape"/><path fill="#ffffff" d="M911.57,1196.74c-5.06-5.57-11.28-10.07-18.15-13.13c-4.31-1.92-8.97-3.29-13.68-3.05          s-9.48,2.26-12.26,6.07c-3.94,5.39-3.13,12.84-1.41,19.29c3.12,11.77,8.67,22.88,16.2,32.45" class="colorfff svgShape"/><path fill="#ff6103" d="M882.28,1241.85c-1.03,0-2.05-0.45-2.73-1.32c-7.78-9.89-13.6-21.54-16.83-33.7          c-2.56-9.65-1.92-16.92,1.97-22.23c3.2-4.38,8.77-7.18,14.89-7.49c4.69-0.23,9.68,0.86,15.27,3.35          c7.27,3.24,13.95,8.07,19.3,13.96c1.29,1.42,1.18,3.61-0.24,4.9c-1.42,1.29-3.61,1.18-4.9-0.23          c-4.71-5.19-10.59-9.44-16.99-12.29c-4.56-2.03-8.52-2.95-12.09-2.76c-4.05,0.2-7.65,1.94-9.63,4.65          c-2.57,3.51-2.85,8.86-0.86,16.36c2.99,11.26,8.37,22.04,15.57,31.19c1.19,1.51,0.93,3.69-0.58,4.88          C883.79,1241.6,883.03,1241.85,882.28,1241.85z" class="color030047 svgShape"/><ellipse cx="1047.26" cy="1175.88" fill="#ff6103" rx="9.99" ry="14.9" transform="rotate(-15.058 1047.242 1175.854)" class="color030047 svgShape"/><path fill="#ffffff" d="M1019.69,1156.36c6.72-11.45,20.53-17.55,35.05-15.48" class="colorfff svgShape"/><path fill="#ff6103" d="M1019.68,1159.83c-0.6,0-1.2-0.15-1.75-0.48c-1.65-0.97-2.21-3.1-1.24-4.75          c7.46-12.7,22.58-19.44,38.53-17.16c1.9,0.27,3.22,2.03,2.95,3.93c-0.27,1.9-2.04,3.22-3.93,2.95          c-13.16-1.9-25.54,3.54-31.56,13.8C1022.03,1159.22,1020.87,1159.83,1019.68,1159.83z" class="color030047 svgShape"/><ellipse cx="1122.98" cy="1158.88" fill="#ff6103" rx="9.99" ry="14.9" transform="rotate(-15.058 1122.962 1158.859)" class="color030047 svgShape"/><path fill="#ffffff" d="M1095.41,1139.36c6.72-11.45,20.53-17.55,35.05-15.48" class="colorfff svgShape"/><path fill="#ff6103" d="M1095.41,1142.83c-0.6,0-1.2-0.15-1.75-0.48c-1.65-0.97-2.21-3.1-1.24-4.75          c7.46-12.7,22.57-19.44,38.53-17.16c1.9,0.27,3.22,2.03,2.95,3.93c-0.27,1.9-2.04,3.23-3.93,2.95          c-13.14-1.89-25.54,3.54-31.56,13.8C1097.76,1142.22,1096.6,1142.83,1095.41,1142.83z" class="color030047 svgShape"/><g><path fill="#ffffff" d="M1082.06,1170.33c1.22,7.94,6.51,14.69,12.53,20.01c6.02,5.32,12.91,9.59,18.84,15.01         c5.93,5.42,11.01,12.39,11.83,20.38c0.76,7.39-2.49,15.08-8.32,19.69" class="colorfff svgShape"/><path fill="#ff6103" d="M1116.94,1248.89c-1.03,0-2.04-0.45-2.72-1.32c-1.19-1.5-0.93-3.69,0.57-4.88         c4.9-3.87,7.66-10.39,7.02-16.61c-0.78-7.63-6.26-14.09-10.72-18.17c-2.98-2.72-6.18-5.12-9.58-7.67         c-3.07-2.3-6.25-4.68-9.22-7.31c-7.88-6.97-12.48-14.4-13.66-22.09c-0.29-1.9,1.01-3.67,2.91-3.96         c1.88-0.29,3.67,1.01,3.96,2.9c0.92,6.04,4.76,12.07,11.39,17.94c2.76,2.44,5.69,4.64,8.79,6.96         c3.38,2.53,6.87,5.15,10.1,8.1c7.67,7.01,12.15,14.82,12.94,22.59c0.87,8.52-2.91,17.45-9.62,22.76         C1118.45,1248.65,1117.69,1248.89,1116.94,1248.89z" class="color030047 svgShape"/></g><g><path fill="#ff6103" d="M1069.47,1277.4c-6.37,0-12.77-1.88-18.05-5.42c-7.32-4.91-12.48-13.05-13.82-21.76        c-0.29-1.9,1.01-3.67,2.9-3.96c1.9-0.29,3.67,1.01,3.96,2.9c1.05,6.82,5.09,13.2,10.83,17.05c5.73,3.85,13.17,5.18,19.88,3.57        c1.86-0.43,3.74,0.7,4.19,2.57c0.45,1.86-0.7,3.74-2.57,4.19C1074.4,1277.12,1071.93,1277.4,1069.47,1277.4z" class="color030047 svgShape"/></g><g><path fill="#ffffff" d="M1416.32,840.44c0,161.21,92.4,300.87,227.19,368.84c0.25,0.15,0.54,0.29,0.83,0.4        c49.29,24.75,104.2,39.89,162.34,42.97c7.4,0.4,14.92,0.62,22.43,0.62c23.99,0,47.54-2.03,70.41-6.02        c44.17-7.55,85.94-22.14,124.08-42.61c129.93-69.5,218.34-206.54,218.34-364.2c0-227.99-184.84-412.79-412.83-412.79        S1416.32,612.45,1416.32,840.44z" class="colorfff svgShape"/><path fill="#ffbf66" d="M1734.67,851.58l-54.96,5.32c-14.78,1.43-28.83,7.15-40.41,16.45l-82.58,64.24l102.38,158.14          l120.51-126.04L1734.67,851.58z" class="colorffcc3d svgShape"/><path fill="#ff6103" d="M1659.1,1099.2c-0.11,0-0.22,0-0.33-0.02c-1.06-0.1-2.01-0.68-2.59-1.57L1553.8,939.47          c-0.98-1.51-0.64-3.52,0.78-4.63l82.58-64.24c1.51-1.18,3.69-0.91,4.87,0.61c1.18,1.51,0.9,3.69-0.61,4.87l-80.06,62.29          l98.26,151.78l117.47-122.87c1.33-1.39,3.52-1.43,4.91-0.11c1.39,1.32,1.44,3.52,0.11,4.91l-120.51,126.04          C1660.95,1098.82,1660.04,1099.2,1659.1,1099.2z" class="color030047 svgShape"/><path fill="#ffbf66" d="M1643.51,1209.28c0.25,0.15,0.54,0.29,0.83,0.4c49.29,24.75,104.2,39.89,162.34,42.97           c7.4,0.4,14.92,0.62,22.43,0.62c23.99,0,47.54-2.03,70.41-6.02c44.17-7.55,85.94-22.14,124.08-42.61L2022.15,896           c-0.07-14.88-10.27-27.76-24.68-31.25c-47.62-11.54-125.32-25.04-151.85-24.28c-105.5,3.01-142.59,17.35-167.56,27.4           c-11.72,4.68-19.56,15.82-20.14,28.45L1643.51,1209.28z" class="colorffcc3d svgShape"/><rect width="4.63" height="23.72" x="1855.95" y="1052.95" fill="#ffffff" opacity=".6" transform="rotate(-58.465 1858.235 1064.845)" class="colorfff svgShape"/><rect width="41.7" height="4.63" x="1868.62" y="1111.81" fill="#ffffff" opacity=".6" transform="rotate(-45.001 1889.465 1114.154)" class="colorfff svgShape"/><rect width="4.63" height="22.94" x="1841.44" y="1178.03" fill="#ffffff" opacity=".6" transform="rotate(-45.001 1843.846 1189.546)" class="colorfff svgShape"/><rect width="45.54" height="4.63" x="1891.76" y="1229.92" fill="#ffffff" opacity=".6" transform="rotate(-45.001 1914.521 1232.26)" class="colorfff svgShape"/><rect width="34.6" height="4.63" x="1728.96" y="1140.08" fill="#ffffff" opacity=".6" transform="rotate(-51.442 1746.35 1142.374)" class="colorfff svgShape"/><rect width="4.63" height="30.46" x="1727.8" y="1053.69" fill="#ffffff" opacity=".6" transform="rotate(-45.001 1730.046 1068.932)" class="colorfff svgShape"/><rect width="20.52" height="4.63" x="1734.51" y="980.78" fill="#ffffff" opacity=".6" class="colorfff svgShape"/><rect width="32.82" height="4.63" x="1677.44" y="903.43" fill="#ffffff" opacity=".6" transform="rotate(-45.001 1693.846 905.764)" class="colorfff svgShape"/><rect width="34.17" height="4.63" x="1791.42" y="944.77" fill="#ffffff" opacity=".6" transform="rotate(-45.001 1808.501 947.113)" class="colorfff svgShape"/><rect width="4.63" height="23.73" x="1762.95" y="1185.33" fill="#ffffff" opacity=".6" transform="rotate(-45.001 1765.264 1197.221)" class="colorfff svgShape"/><rect width="19.83" height="4.63" x="1953.07" y="1153.66" fill="#ffffff" opacity=".6" transform="rotate(-45.001 1962.986 1155.998)" class="colorfff svgShape"/><rect width="4.63" height="24.25" x="1791.42" y="1083.6" fill="#ffffff" opacity=".6" transform="rotate(-45.001 1793.734 1095.756)" class="colorfff svgShape"/><rect width="208.34" height="6.94" x="1545.47" y="1102.18" fill="#ff6103" transform="rotate(-87.088 1649.67 1105.656)" class="color030047 svgShape"/><path fill="#ffffff" d="M1785.16,846.47l2.47-129.59h114.69c0,0,1.3,128.67,1.26,129.5            C1849.24,887.63,1808.27,891.81,1785.16,846.47z" class="colorfff svgShape"/><path fill="#ff6103" d="M1831.36,882.41c-4.06,0-7.97-0.43-11.73-1.29c-15.55-3.56-28.19-14.69-37.56-33.08            c-0.26-0.51-0.39-1.07-0.38-1.64l2.46-129.59c0.04-1.89,1.58-3.41,3.47-3.41h114.69c1.9,0,3.45,1.53,3.47,3.44            c0.39,38.72,1.3,128.85,1.26,129.69c-0.05,1.03-0.55,1.99-1.37,2.61C1876.32,871.44,1851.85,882.41,1831.36,882.41z             M1788.65,845.66c8.34,16.01,19.29,25.66,32.53,28.7c20.01,4.58,46.56-5.41,78.92-29.7c-0.09-11.55-0.8-82.84-1.22-124.3            h-107.85L1788.65,845.66z" class="color030047 svgShape"/><path fill="#ffffff" d="M1901.12,744.27c24.6-52.15,21.49-130.3,21.49-130.3l-122.6-45.43            c-2.47,2.35-78.7,37.65-73.36,126.48c5.34,88.83,65.63,123.41,137.49,90.86" class="colorfff svgShape"/><path fill="#ff6103" d="M1813.38,801.35c-15.87,0-30.55-3.84-43.3-11.53c-27.57-16.63-44.23-50.22-46.9-94.59            c-3.22-53.48,22.61-99.02,72.71-128.22c0.95-0.56,1.62-0.93,1.92-1.15c0.96-0.91,2.15-1.02,3.39-0.56l122.6,45.43            c1.31,0.49,2.21,1.72,2.26,3.12c0.13,3.23,2.86,79.61-21.82,131.92c-0.82,1.74-2.88,2.48-4.62,1.66            c-1.73-0.82-2.48-2.89-1.66-4.62c21.61-45.82,21.47-113.15,21.22-126.39l-118.78-44.01c-0.3,0.17-0.64,0.37-1.03,0.6            c-47.72,27.82-72.33,71.08-69.28,121.81c2.53,42.02,17.99,73.65,43.55,89.06c23.92,14.42,55.54,14.02,89.04-1.16            c1.75-0.79,3.81-0.02,4.59,1.73c0.79,1.75,0.02,3.8-1.73,4.6C1847.46,797.24,1829.78,801.34,1813.38,801.35z" class="color030047 svgShape"/><ellipse cx="1748.05" cy="668.19" fill="#ff6103" rx="9.69" ry="6.5" transform="rotate(-77.215 1748.076 668.188)" class="color030047 svgShape"/><path fill="#ffffff" d="M1742.55,648.86c6.43-2.52,14.04-0.57,19.3,4.94" class="colorfff svgShape"/><path fill="#ff6103" d="M1761.85 657.27c-.92 0-1.83-.36-2.51-1.07-4.3-4.5-10.39-6.12-15.52-4.11-1.79.7-3.8-.18-4.5-1.97-.7-1.79.18-3.8 1.97-4.5 7.76-3.04 16.82-.77 23.08 5.77 1.32 1.39 1.27 3.58-.11 4.91C1763.57 656.96 1762.71 657.27 1761.85 657.27zM1892.79 673.79c0 0-.29 6.36-10.62-.64-10.34-7.01-23.94-65.71-35.64-71.36-11.7-5.65-68.83-24.57-93.88 12.69 0 0-43.27-20.61-47.49-69.79-4.22-49.19 33.03-94.53 83.66-79.32 50.64 15.21 54.47 75.98 54.47 75.98s34.15-20.81 54.22-10.21c20.08 10.59 5.81 46.35 5.81 46.35s29.58-10.26 50.84 21.89c21.26 32.15-25.69 89.76-25.69 89.76L1892.79 673.79z" class="color030047 svgShape"/><path fill="#fd985e" d="M1811.66 705.01c-.74 0-1.49-.04-2.24-.11-15.36-1.52-26.29-18.71-24.34-38.32.92-9.33 4.58-17.86 10.31-24.02 5.97-6.42 13.45-9.51 21.08-8.79 7.62.75 14.35 5.28 18.94 12.75 4.41 7.16 6.32 16.24 5.4 25.57-.92 9.33-4.58 17.86-10.31 24.02C1825.11 701.9 1818.5 705.01 1811.66 705.01zM1814.25 640.61c-4.9 0-9.75 2.33-13.78 6.68-4.7 5.05-7.71 12.15-8.49 19.97-1.56 15.8 6.56 29.58 18.12 30.73 5.41.56 10.85-1.81 15.31-6.6 4.7-5.05 7.71-12.15 8.49-19.97s-.79-15.37-4.4-21.25c-3.43-5.58-8.3-8.94-13.71-9.47C1815.27 640.64 1814.76 640.61 1814.25 640.61zM1746.76 700.73c-.74 0-1.49-.04-2.24-.11-7.62-.75-14.35-5.28-18.94-12.75-4.41-7.16-6.32-16.24-5.4-25.57.92-9.33 4.58-17.86 10.31-24.02 5.97-6.42 13.44-9.51 21.08-8.79 7.62.75 14.35 5.28 18.94 12.75 4.41 7.16 6.32 16.24 5.4 25.57-.92 9.33-4.58 17.86-10.31 24.02C1760.21 697.62 1753.6 700.73 1746.76 700.73zM1749.35 636.33c-4.9 0-9.75 2.33-13.78 6.68-4.7 5.05-7.71 12.15-8.49 19.97-.78 7.82.79 15.37 4.4 21.25 3.43 5.58 8.3 8.94 13.71 9.47 5.43.54 10.85-1.81 15.31-6.6 4.7-5.05 7.71-12.15 8.49-19.97.78-7.82-.79-15.37-4.4-21.25-3.43-5.58-8.3-8.94-13.71-9.47C1750.37 636.36 1749.86 636.33 1749.35 636.33z" class="color605efd svgShape"/><ellipse cx="1812.61" cy="674.52" fill="#ff6103" rx="9.69" ry="6.5" transform="rotate(-88.969 1812.698 674.535)" class="color030047 svgShape"/><path fill="#ffffff" d="M1805.61,655.68c6.21-3.01,13.95-1.67,19.63,3.42" class="colorfff svgShape"/><path fill="#ff6103" d="M1825.24,662.57c-0.82,0-1.65-0.29-2.31-0.88c-4.64-4.15-10.84-5.28-15.8-2.88            c-1.72,0.84-3.8,0.12-4.64-1.61c-0.84-1.72-0.12-3.8,1.61-4.64c7.5-3.63,16.71-2.08,23.46,3.95            c1.43,1.28,1.55,3.47,0.27,4.9C1827.14,662.18,1826.19,662.57,1825.24,662.57z" class="color030047 svgShape"/><path fill="#fd985e" d="M1911.98,670.48c-0.34,0-0.69-0.05-1.04-0.16c-24.17-7.54-72.57-1.86-73.05-1.8            c-1.91,0.25-3.63-1.13-3.86-3.03c-0.23-1.9,1.13-3.63,3.03-3.86c2.04-0.25,50.36-5.92,75.95,2.06            c1.83,0.57,2.85,2.52,2.28,4.35C1914.83,669.53,1913.46,670.48,1911.98,670.48z" class="color605efd svgShape"/><path fill="#ffffff" d="M1891.26,674.66c0,0,30.55-29.09,47.11-22.78c16.56,6.31,8.83,65.04-11.14,70.07            c-19.97,5.04-35.75-3.21-35.75-3.21" class="colorfff svgShape"/><path fill="#ff6103" d="M1914,727.06c-13.89,0-23.6-4.97-24.13-5.24c-1.7-0.89-2.35-2.98-1.47-4.67            c0.88-1.7,2.98-2.36,4.68-1.48c0.15,0.08,14.95,7.54,33.3,2.92c8.47-2.14,16.28-19.51,17.41-38.74            c0.76-12.98-1.91-22.92-6.66-24.73c-11.88-4.52-35.42,14.38-43.48,22.05c-1.39,1.32-3.59,1.27-4.91-0.12            c-1.32-1.39-1.27-3.58,0.12-4.91c3.29-3.13,32.67-30.41,50.74-23.51c7.94,3.03,12.1,14.85,11.11,31.62            c-1.17,19.85-9.32,41.7-22.64,45.06C1923.08,726.58,1918.34,727.06,1914,727.06z" class="color030047 svgShape"/><g fill="none"><path fill="#ff6103" d="M1925.47,697.6c-0.51,0-1.03-0.11-1.52-0.35c-1.72-0.84-2.44-2.92-1.6-4.64           c1.53-3.14,2.43-6.65,2.59-10.14c0.11-2.39-0.4-3.12-0.63-3.32c-0.28-0.25-0.88-0.36-1.47-0.26           c-0.78,0.13-1.66,0.55-2.67,1.3c-1.6,1.17-2.96,2.69-3.95,4.39c-0.96,1.66-3.08,2.22-4.74,1.27           c-1.66-0.96-2.23-3.09-1.27-4.74c1.47-2.53,3.49-4.79,5.85-6.52c1.91-1.4,3.76-2.24,5.65-2.55           c2.67-0.43,5.37,0.28,7.21,1.93c2.17,1.93,3.13,4.82,2.95,8.83c-0.21,4.43-1.35,8.88-3.29,12.86           C1927.99,696.88,1926.75,697.6,1925.47,697.6z" class="color030047 svgShape"/></g><g fill="none"><path fill="#fd985e" d="M1791.3,659.04c-0.6,0-1.21-0.16-1.76-0.48c-5.11-3.02-14.09-1.8-17.11-1.07           c-1.86,0.45-3.74-0.7-4.19-2.56c-0.45-1.86,0.69-3.74,2.55-4.19c0.55-0.14,13.68-3.25,22.28,1.84           c1.65,0.97,2.2,3.1,1.22,4.75C1793.64,658.43,1792.49,659.04,1791.3,659.04z" class="color605efd svgShape"/></g><g fill="none"><path fill="#ffffff" d="M1780.99,688.43c-2.04,7.46-4.07,14.92-6.11,22.39c-1.23,4.5-2.46,9.18-1.31,13.56           c1.15,4.39,5.41,8.39,10.87,8.29" class="colorfff svgShape"/><path fill="#ff6103" d="M1784.22,736.14c-7.32,0-12.58-5.44-14.01-10.88c-1.41-5.37,0.1-10.91,1.32-15.36l6.11-22.39           c0.51-1.85,2.42-2.94,4.26-2.44c1.85,0.5,2.94,2.41,2.44,4.26l-6.11,22.39c-1.05,3.84-2.24,8.2-1.3,11.77           c0.74,2.82,3.62,5.87,7.45,5.7c1.99-0.11,3.5,1.49,3.54,3.4c0.04,1.92-1.49,3.5-3.4,3.54           C1784.42,736.14,1784.32,736.14,1784.22,736.14z" class="color030047 svgShape"/></g><g fill="none"><path fill="#ff6103" d="M1803.36,759.26c-1.11,0-2.23-0.06-3.34-0.19c-1.9-0.22-3.27-1.95-3.05-3.85           c0.22-1.9,1.95-3.28,3.85-3.05c5.84,0.68,11.82-1.01,16.44-4.63c4.62-3.63,7.68-9.05,8.4-14.87           c0.24-1.91,1.97-3.27,3.87-3.02c1.9,0.24,3.25,1.97,3.02,3.87c-0.95,7.63-4.96,14.73-11.01,19.47           C1816.38,757.05,1809.9,759.26,1803.36,759.26z" class="color030047 svgShape"/></g><g fill="none"><path fill="#ffffff" d="M1811.76,1252.87c5.73,0.25,11.54,0.4,17.35,0.4c23.99,0,47.54-2.03,70.41-6.02          c42.86-7.33,83.44-21.27,120.64-40.79c1.45-3.67,2.65-7.4,3.63-11.25l49.32-194.09l-148.22-31.57l-42.39,193.44          L1811.76,1252.87z" class="colorfff svgShape"/><path fill="#ff6103" d="M1829.11,1256.74c-5.58,0-11.47-0.14-17.5-0.4c-1.3-0.06-2.46-0.84-3-2.02          c-0.54-1.18-0.38-2.57,0.43-3.59l70.24-89.27l42.22-192.66c0.41-1.86,2.24-3.05,4.11-2.65l148.22,31.58          c0.92,0.2,1.73,0.76,2.23,1.56c0.5,0.8,0.65,1.77,0.42,2.69l-49.32,194.09c-1.03,4.03-2.29,7.96-3.77,11.67          c-0.31,0.77-0.88,1.41-1.61,1.79c-38.13,20.01-79.06,33.85-121.67,41.14C1877.02,1254.7,1853.13,1256.74,1829.11,1256.74z           M1818.72,1249.65c3.55,0.1,7.03,0.15,10.39,0.15c23.63,0,47.11-2.01,69.81-5.97c41.47-7.09,81.32-20.5,118.47-39.85          c1.18-3.1,2.17-6.27,3.03-9.63l48.43-190.59l-141.31-30.11l-41.65,190.07c-0.11,0.51-0.34,0.99-0.66,1.4L1818.72,1249.65z" class="color030047 svgShape"/><path fill="#ffbf66" d="M2086.26,961.22l-14.27,106.33l-20.92-6.7l-70.93-22.77l-87.91-28.18l40.35-158.63          c11.22-2.35,59.12,11.2,100.53,24.06c36.52,11.34,59.09,47.79,53.2,85.57C2086.3,961.01,2086.28,961.12,2086.26,961.22z" class="colorffcc3d svgShape"/><rect width="31.84" height="4.63" x="1934.95" y="958.03" fill="#ffffff" opacity=".6" transform="rotate(-66.339 1950.917 960.386)" class="colorfff svgShape"/><rect width="4.63" height="24.31" x="1955.17" y="997.13" fill="#ffffff" opacity=".6" transform="rotate(-66.352 1957.49 1009.322)" class="colorfff svgShape"/><rect width="4.63" height="24.41" x="1979.98" y="967.1" fill="#ffffff" opacity=".6" transform="rotate(-38.01 1982.146 979.295)" class="colorfff svgShape"/><rect width="17.64" height="4.63" x="2015.12" y="985.07" fill="#ffffff" opacity=".6" transform="rotate(-66.339 2023.992 987.428)" class="colorfff svgShape"/><rect width="4.63" height="30.46" x="1986.25" y="914.49" fill="#ffffff" opacity=".6" transform="rotate(-66.352 1988.714 929.733)" class="colorfff svgShape"/><rect width="19.19" height="4.63" x="2012.71" y="896.5" fill="#ffffff" opacity=".6" transform="rotate(-66.339 2022.36 898.86)" class="colorfff svgShape"/><rect width="13.68" height="4.63" x="2048.15" y="926.41" fill="#ffffff" opacity=".6" transform="rotate(-66.339 2055.045 928.765)" class="colorfff svgShape"/><path fill="#ff6103" d="M2071.98,1071.02c-0.36,0-0.71-0.05-1.06-0.16l-179.73-57.65c-1.82-0.59-2.83-2.54-2.25-4.36          l34.41-107.93c0.58-1.83,2.54-2.85,4.36-2.25c1.83,0.58,2.84,2.53,2.25,4.36l-33.36,104.62l172.5,55.33l13.47-98.61          c0.26-1.9,2.01-3.24,3.91-2.97c1.9,0.26,3.23,2.01,2.97,3.91l-14.03,102.71c-0.14,1.02-0.72,1.92-1.59,2.47          C2073.27,1070.84,2072.63,1071.02,2071.98,1071.02z" class="color030047 svgShape"/></g><g fill="none"><path fill="#ff6103" d="M1829.11,1256.74c-5.58,0-11.47-0.14-17.5-0.4c-1.1-0.02-2.28-0.08-3.44-0.14l-1.64-0.08        c-57.48-3.05-112.56-17.63-163.74-43.33c-0.14-0.03-0.59-0.26-0.99-0.49c-141.16-71.18-228.95-213.7-228.95-371.86        c0-229.53,186.74-416.27,416.26-416.27c229.55,0,416.3,186.74,416.3,416.27c0,153.89-84.36,294.61-220.17,367.26        c-1.13,0.62-2.33,1.26-3.54,1.86c-38.06,19.98-79,33.82-121.6,41.11C1877.02,1254.7,1853.13,1256.74,1829.11,1256.74z         M1829.11,431.11c-225.7,0-409.32,183.62-409.32,409.32c0,155.52,86.32,295.67,225.28,365.75c0.11,0.04,0.73,0.34,0.83,0.4        c50.32,25.27,104.48,39.61,160.96,42.6l1.65,0.08c1.1,0.06,2.21,0.11,3.32,0.14c6.01,0.26,11.79,0.4,17.27,0.4        c23.63,0,47.11-2.01,69.81-5.97c41.9-7.17,82.14-20.78,119.62-40.45c1.19-0.59,2.31-1.19,3.39-1.78        c133.58-71.45,216.53-209.83,216.53-361.16C2238.47,614.74,2054.83,431.11,1829.11,431.11z" class="color030047 svgShape"/></g><g fill="none"><line x1="1545.5" x2="1556.72" y1="988.62" y2="1017.85" fill="#fff"/><path fill="#ff6103" d="M1556.72,1021.32c-1.4,0-2.71-0.85-3.24-2.23l-11.22-29.22c-0.69-1.79,0.21-3.8,2-4.49        c1.79-0.68,3.8,0.21,4.49,2l11.22,29.22c0.69,1.79-0.21,3.8-2,4.49C1557.55,1021.24,1557.13,1021.32,1556.72,1021.32z" class="color030047 svgShape"/></g><g fill="none"><path fill="#ffffff" d="M1650.8,1082.91l-30.39,43.63c-20.97,22.08-49.76,34.11-79.34,34.11c-9.86,0-19.81-1.34-29.58-4.07        c-30.83-8.66-56.29-30.41-69.76-59.53l-102.53-246.07c0,0-27.77-56.75-42.45-75.03c-4.54-5.74-5.09-15.32-6.99-20.6        c-8.33-23.05,5.42-40.13,9.77-40.78c5.14-20.23,18.75-20,21.29-19.72c0.32,0.05,0.42,0,0.42,0c4.4-17.5,23.47-18.1,23.47-18.1        l-24.9-67.03c-3.33-9.12-0.28-19.26,7.59-24.95c3.01-2.18,6.39-3.47,9.81-3.93c8.19-1.06,16.71,2.64,21.25,10.28        l100.26,195.11l86.75,202.38l27.31-26.2L1650.8,1082.91z" class="colorfff svgShape"/><path fill="#ff6103" d="M1541.07,1164.13c-10.27,0-20.54-1.41-30.51-4.2c-31.82-8.93-58.05-31.32-71.97-61.41L1336,852.32        c-0.19-0.37-27.69-56.42-41.95-74.2c-3.59-4.54-4.97-10.82-6.08-15.87c-0.48-2.18-0.93-4.24-1.47-5.73        c-6.47-17.9-0.24-31.44,2.74-36.43c1.85-3.1,4.58-6.48,7.39-8.08c5.15-17.7,16.77-20.39,22.05-20.66        c3.99-11.12,13.88-15.93,21.26-17.48l-23.38-62.94c-3.91-10.7-0.37-22.33,8.81-28.97c3.37-2.44,7.31-4.01,11.39-4.56        c9.92-1.29,19.62,3.39,24.69,11.94l100.36,195.29l84.87,197.99l23.69-22.73c0.75-0.72,1.78-1.06,2.8-0.94        c1.03,0.12,1.95,0.69,2.51,1.56l78.02,120.51c0.77,1.18,0.74,2.71-0.07,3.87l-30.39,43.63c-0.1,0.14-0.21,0.28-0.33,0.41        C1601.69,1151.3,1571.85,1164.13,1541.07,1164.13z M1319.33,698.24c-3.43,0-12.46,1.56-16.43,17.18        c-0.34,1.36-1.47,2.37-2.85,2.58c-2.28,0.86-14.5,15.45-7.01,36.17c0.69,1.91,1.19,4.19,1.72,6.59        c1.01,4.58,2.15,9.77,4.73,13.03c14.73,18.35,41.7,73.33,42.84,75.66l102.62,246.26c13.02,28.13,37.63,49.14,67.49,57.52        c9.36,2.62,19,3.94,28.64,3.94c28.8,0,56.72-11.97,76.64-32.85l28.91-41.5l-74.47-115.02l-24.28,23.29        c-0.82,0.79-1.98,1.13-3.1,0.9c-1.12-0.23-2.05-0.99-2.5-2.03l-86.75-202.38l-100.16-194.89c-3.56-5.97-10.56-9.36-17.71-8.42        c-2.93,0.4-5.78,1.54-8.23,3.3c-6.63,4.8-9.19,13.22-6.36,20.95l24.9,67.01c0.39,1.05,0.25,2.22-0.37,3.15        c-0.62,0.93-1.66,1.5-2.77,1.53c-0.66,0.02-16.52,0.8-20.21,15.48c-0.25,0.99-0.92,1.83-1.84,2.28        c-0.62,0.3-1.73,0.42-2.42,0.32C1320.12,698.27,1319.77,698.24,1319.33,698.24z" class="color030047 svgShape"/><path fill="#ffffff" d="M1316.27,779.87c0,0-10.57-5.85-26.5-24.53c-8.33-23.02,5.41-40.18,9.75-40.74l45.48,46.56         C1344.99,761.16,1350.34,801.91,1316.27,779.87" class="colorfff svgShape"/><path fill="#ff6103" d="M1333.16,789.86c-5.18,0-11.44-2.35-18.7-7.03c-1.3-0.74-11.9-7.14-27.34-25.25         c-0.27-0.32-0.48-0.68-0.62-1.07c-6.55-18.1-0.15-31.72,2.91-36.74c1.14-1.88,5.22-8.05,9.66-8.63         c1.08-0.14,2.17,0.24,2.93,1.02l45.48,46.56c0.52,0.54,0.86,1.23,0.96,1.97c0.27,2.1,2.39,20.65-7.83,27.11         C1338.44,789.18,1335.96,789.86,1333.16,789.86z M1292.82,753.57c14.98,17.46,25.03,23.21,25.13,23.26         c0.06,0.04,0.13,0.08,0.19,0.12c8.61,5.57,15.09,7.31,18.74,5c5.07-3.2,5.21-14.25,4.78-19.23l-42.83-43.86         C1295.21,722.29,1286.59,735.54,1292.82,753.57z" class="color030047 svgShape"/><path fill="#ffffff" d="M1370.83,742.32c-0.17-0.04-0.34-0.06-0.48-0.11c-16.6-3.79-49.06-47.33-49.06-47.33         c4.37-17.54,23.41-18.15,23.41-18.15l39.25,41.42C1393.57,728.27,1384.55,745.12,1370.83,742.32z" class="colorfff svgShape"/><path fill="#ff6103" d="M1373.79,746.1c-1.2,0-2.42-0.12-3.65-0.37c-0.04-0.01-0.08-0.02-0.13-0.03         c-0.2-0.04-0.67-0.15-0.82-0.21c-16.96-3.85-47.28-43.97-50.68-48.53c-0.62-0.83-0.84-1.91-0.59-2.92         c3.96-15.89,19.18-20.54,26.67-20.78c0.96-0.03,1.95,0.36,2.63,1.08l39.25,41.42c5.51,5.8,6.54,14.1,2.63,21.15         C1385.88,742.72,1380.11,746.1,1373.79,746.1z M1371.52,738.92c5.65,1.15,9.65-2.02,11.5-5.37c1.83-3.3,2.51-8.69-1.6-13.01         l-38.1-40.2c-3.96,0.52-14.64,2.91-18.23,13.84c9.64,12.7,33.89,41.88,46.02,44.65L1371.52,738.92L1371.52,738.92z" class="color030047 svgShape"/><path fill="#ffffff" d="M1358.97,761.01c-20.4,10.96-59.45-46.41-59.45-46.41c5.15-20.29,18.75-20.02,21.33-19.75         C1320.84,694.84,1379.19,750.14,1358.97,761.01z" class="colorfff svgShape"/><path fill="#ff6103" d="M1353.39,765.84c-22.48,0-52.99-43.78-56.74-49.29c-0.56-0.82-0.74-1.84-0.49-2.81         c6-23.63,23.12-22.54,25.05-22.36c0.76,0.08,1.48,0.41,2.03,0.93c4.7,4.46,45.89,44.12,43.35,63.19         c-0.5,3.77-2.57,6.73-5.97,8.56l0,0C1358.34,765.29,1355.92,765.84,1353.39,765.84z M1303.29,713.96         c14.65,21.12,41.45,50.77,54.04,43.99l0,0c1.43-0.77,2.16-1.81,2.37-3.36c1.54-11.52-23.52-40.26-40.31-56.35         C1315.95,698.26,1307.42,699.81,1303.29,713.96z" class="color030047 svgShape"/><g fill="none"><path fill="#ffffff" d="M1458.74,788.58l-2.62-89.5c-1.18-15.16-14.12-26.67-29.31-26.08l-41.09,0.07         c-5.13,0.2-8.9,4.91-7.97,9.96l0,0c2.26,12.3,12.64,21.46,25.13,22.17l15.77,3.32l-7.35,14.2         c-10.3,14.53-13.49,29.51-9.19,41.44" class="colorfff svgShape"/><path fill="#ff6103" d="M1458.74,792.05c-1.87,0-3.41-1.49-3.47-3.37l-2.62-89.5c-1.03-13.19-12.32-23.25-25.71-22.71         l-41.22,0.07c-1.33,0.05-2.64,0.71-3.55,1.86c-0.91,1.14-1.27,2.56-1.01,4c1.98,10.76,10.99,18.71,21.91,19.33         c0.17,0.01,0.35,0.03,0.52,0.07l15.77,3.32c1.06,0.22,1.96,0.93,2.42,1.91c0.46,0.98,0.44,2.12-0.05,3.08l-7.35,14.2         c-0.07,0.14-0.16,0.28-0.25,0.41c-9.5,13.4-12.69,27.34-8.76,38.25c0.65,1.8-0.28,3.79-2.09,4.44         c-1.8,0.65-3.79-0.28-4.44-2.09c-4.69-13.02-1.24-29.2,9.48-44.42l5.14-9.94l-11.06-2.33         c-14.01-0.92-25.53-11.16-28.08-24.99c-0.63-3.4,0.25-6.9,2.42-9.6c2.16-2.7,5.38-4.32,8.83-4.46l41.22-0.07         c16.95-0.65,31.45,12.19,32.78,29.28l2.63,89.67c0.06,1.92-1.45,3.52-3.37,3.57         C1458.81,792.05,1458.78,792.05,1458.74,792.05z" class="color030047 svgShape"/></g></g></g><g><circle cx="805.66" cy="869.4" r="30.01" fill="#ff6103" class="color030047 svgShape"/><path fill="#ffbf66" d="M867.76,762.69c-16.57,14.85-24.8,36.93-22.05,59l0.35,2.78l-90.6,11.29l-0.35-2.78       c-2.8-22.44-16.8-41.6-36.78-52.27c-36.42-19.45-63.16-55.71-68.65-99.81c-9.35-75.05,46.45-143.22,123.25-147.6       c66.5-3.77,126.08,44.04,136.93,109.73C917.56,689.48,900.03,733.82,867.76,762.69z" class="colorffcc3d svgShape"/><path fill="#ffffff" d="M780.65,826.46c-1.69,0-3.17-1.24-3.43-2.96L761.2,715.54c-5.35-0.27-10.7-0.85-16.04-1.72l-20.58-3.37       c-5.44-0.89-10.18-3.86-13.37-8.35c-3.18-4.5-4.4-9.96-3.43-15.38c1.08-6.06,4.78-11.25,10.16-14.24       c5.37-3,11.74-3.42,17.46-1.15c16.16,6.41,28.07,20.57,31.7,37.45c12.32,0.11,24.61-1.4,36.53-4.55       c-0.61-17.25,7.45-33.9,21.55-44.08c4.99-3.61,11.26-4.76,17.21-3.18c5.95,1.58,10.81,5.71,13.35,11.32       c2.27,5.02,2.43,10.62,0.45,15.75c-1.98,5.14-5.86,9.18-10.91,11.38l-19.14,8.32c-4.95,2.15-9.99,4.02-15.11,5.6l10.96,108.59       c0.19,1.91-1.2,3.61-3.1,3.8c-1.92,0.21-3.61-1.2-3.8-3.11l-10.84-107.38c-11.76,3.01-23.83,4.56-35.99,4.48l15.84,106.76       c0.28,1.9-1.03,3.66-2.92,3.94C780.99,826.45,780.82,826.46,780.65,826.46z M727.87,676.83c-2.26,0-4.51,0.57-6.55,1.71       c-3.55,1.98-5.99,5.4-6.7,9.4c-0.64,3.58,0.17,7.18,2.27,10.15s5.23,4.92,8.82,5.51l20.58,3.37c4.53,0.74,9.08,1.25,13.62,1.54       c-3.57-13.86-13.61-25.39-27.07-30.73C731.23,677.14,729.55,676.83,727.87,676.83z M837.11,663.21c-2.8,0-5.54,0.87-7.87,2.55       c-11.73,8.47-18.64,22.12-18.7,36.43c4.33-1.39,8.61-3,12.82-4.83l19.14-8.32c3.33-1.45,5.89-4.12,7.2-7.51       c1.31-3.39,1.2-7.08-0.29-10.39c-1.67-3.7-4.88-6.42-8.81-7.47C839.44,663.37,838.27,663.21,837.11,663.21z" class="colorfff svgShape"/><path fill="#ff6103" d="M860.42,859.59l-110.24,13.74c-1.68,0.21-3.21-0.98-3.42-2.66L741.44,828c-0.21-1.68,0.98-3.21,2.66-3.42       l110.24-13.74c1.68-0.21,3.21,0.98,3.42,2.66l5.32,42.66C863.29,857.85,862.1,859.38,860.42,859.59z" class="color030047 svgShape"/><rect width="10.8" height="22.23" x="752.89" y="490.73" fill="#ffbf66" transform="rotate(-7.1 758.606 502.033)" class="colorffcc3d svgShape"/><rect width="10.8" height="22.23" x="674.16" y="522.7" fill="#ffbf66" transform="rotate(-37.098 679.65 533.837)" class="colorffcc3d svgShape"/><rect width="10.8" height="22.23" x="621.97" y="589.75" fill="#ffbf66" transform="rotate(-67.101 627.39 600.867)" class="colorffcc3d svgShape"/><rect width="10.8" height="22.23" x="837.05" y="502.41" fill="#ffbf66" transform="rotate(22.898 842.403 513.493)" class="colorffcc3d svgShape"/></g><g><path fill="#fd985e" d="M1931.8,1514.62l0.55-49.08l-25.58-0.28c-2.91-14.62-8.53-28.29-16.27-40.48l18.29-17.91l-34.32-35.1        l-18.29,17.91c-12.01-8.03-25.55-13.93-40.1-17.17l0.28-25.58l-49.11-0.55l-0.28,25.58c-14.62,2.91-28.29,8.5-40.48,16.27        l-17.89-18.32l-35.1,34.32l17.89,18.32c-8.01,12.01-13.93,25.55-17.16,40.1l-25.58-0.28l-0.55,49.08l25.58,0.28        c2.91,14.65,8.53,28.31,16.27,40.48l-18.29,17.91l34.32,35.1l18.29-17.91c12.01,8.03,25.55,13.93,40.1,17.16l-0.29,25.6        l49.11,0.55l0.29-25.6c14.62-2.91,28.29-8.5,40.48-16.27l17.89,18.32l35.1-34.32l-17.89-18.32        c8.01-11.99,13.93-25.52,17.16-40.1L1931.8,1514.62z M1794.39,1547.78c-36.63,2.49-66.62-28.15-63.33-64.75        c2.58-28.78,26.18-51.86,55.01-53.8c36.65-2.46,66.62,28.19,63.32,64.76C1846.79,1522.76,1823.21,1545.82,1794.39,1547.78z" class="color605efd svgShape"/></g><g><path fill="#ff6103" d="M2228.25,585.19l21.59,142.52c1.16,7.64-4.1,14.77-11.74,15.93l-153.47,23.25c-2.05,0.31-4,1.07-5.72,2.23      l-44.23,29.76c-8.52,5.73-20.11,0.64-21.65-9.51l-25.41-167.72c-1.16-7.64,4.1-14.77,11.74-15.93l212.94-32.26      C2219.96,572.29,2227.09,577.55,2228.25,585.19z" class="color030047 svgShape"/></g><g><rect width="150.64" height="19.94" x="2044.52" y="636.42" fill="#ffffff" transform="rotate(172.35 2119.842 646.346)" class="colorfff svgShape"/></g><g><rect width="85.55" height="19.94" x="2115.03" y="674.54" fill="#ffffff" transform="rotate(172.35 2157.806 684.46)" class="colorfff svgShape"/></g><g><path fill="#ffffff" d="M1399.07,1674.42c-0.89,0-1.78-0.34-2.45-1.02l-11.47-11.47l-6.94-6.16c-1.43-1.27-1.56-3.47-0.29-4.9      c1.27-1.43,3.47-1.56,4.9-0.29l7.09,6.3l11.62,11.61c1.36,1.36,1.36,3.55,0,4.91      C1400.85,1674.08,1399.96,1674.42,1399.07,1674.42z" class="colorfff svgShape"/></g><g><circle cx="446.54" cy="1232.46" r="145.3" fill="#ffffff" class="colorfff svgShape"/><path fill="#ff6103" d="M446.54,1381.23c-82.03,0-148.77-66.74-148.77-148.77c0-82.03,66.74-148.77,148.77-148.77     s148.77,66.74,148.77,148.77C595.31,1314.49,528.57,1381.23,446.54,1381.23z M446.54,1090.63     c-78.21,0-141.83,63.62-141.83,141.83s63.62,141.83,141.83,141.83c78.21,0,141.83-63.62,141.83-141.83     S524.74,1090.63,446.54,1090.63z" class="color030047 svgShape"/></g><g><path fill="#fd985e" d="M332.83,1296.41c13.95,18.04,30.15,34.25,48.2,48.2c11,8.52,25.38,6.74,31.18-2.78c0,0,0,0,0,0      c6.15-9.33,18.93-11.78,29.25-6.54c10.54,5.38,21.55,9.97,32.97,13.7c11.16,3.67,18.82,14.52,16.57,25.47      c-2.92,13.08-5.85,26.15-8.77,39.23c-2.22,10.91-17.25,17.02-32.81,11.94c-93.59-30.51-167.1-104.03-197.61-197.61      c-5.09-15.56,1.02-30.58,11.94-32.81c13.08-2.92,26.15-5.85,39.23-8.77c10.95-2.25,21.8,5.41,25.47,16.57      c3.72,11.42,8.31,22.44,13.7,32.97c5.24,10.32,2.8,23.1-6.54,29.25c0,0,0,0,0,0C326.09,1271.03,324.31,1285.4,332.83,1296.41z" class="color605efd svgShape"/><path fill="#ff6103" d="M401.26 1271.86c-.68 0-1.73-.12-3.15-.35-1.42-.23-2.45-.34-3.07-.34l-11.96-.04c-1.03 0-2.59.13-4.68.38-2.09.26-3.66.39-4.72.39-.3 0-.73-.05-1.3-.16-.57-.11-1-.16-1.3-.16-2.44 0-4.09-.99-4.96-2.97-.54-1.25-.81-3.17-.81-5.78 0-5.07 1.13-9.31 3.38-12.73 1.73-2.63 4.54-5.26 8.42-7.89 3.66-2.41 7.31-4.81 10.94-7.2 4.28-3.12 6.43-6.66 6.43-10.62 0-1.03-.85-2.05-2.56-3.07s-3.37-1.52-5-1.52c-2.87 0-5.92 1.28-9.13 3.84-3.21 2.56-5.42 3.84-6.61 3.84-1.44 0-2.7-.35-3.78-1.06-1.36-.87-2.03-2.07-2.03-3.62 0-1.65.68-3.08 2.03-4.27 3.28-2.9 6.14-5.02 8.58-6.35 3.52-1.92 7.17-2.88 10.94-2.88 4.69 0 8.92 1.23 12.69 3.7 4.31 2.82 6.47 6.51 6.47 11.06 0 4.61-1.06 8.53-3.17 11.76-1.65 2.57-4.27 5.08-7.85 7.52-3.39 2.14-6.78 4.27-10.17 6.38-5.15 3.36-7.92 7.2-8.3 11.51 1.49-.19 3.69-.41 6.59-.65 5.78-.3 9.91-.45 12.41-.45 2.33 0 4.64.5 6.91 1.51 2.82 1.24 4.23 2.84 4.23 4.8 0 1.41-.5 2.64-1.51 3.7C404.15 1271.29 402.84 1271.86 401.26 1271.86zM440.71 1254.98h-16.23c-8.7 0-13.05-1.78-13.05-5.33 0-1.49.76-3.16 2.28-5 1.25-1.41 2.51-2.83 3.78-4.27 4.36-6.23 11.02-15.51 19.97-27.82 2.12-2.82 4.87-4.23 8.26-4.23 1.6 0 2.98.41 4.15 1.22 1.38.97 2.07 2.34 2.07 4.1l.04 30.59c3.55.11 5.92.47 7.12 1.1 1.33.73 1.99 2.17 1.99 4.31.03 2.25-1 3.8-3.09 4.64-1.46.57-3.47.8-6.02.69.08 3.91.07 8.13-.04 12.69-.03 1.49-.52 2.73-1.46 3.7-.95.98-2.24 1.46-3.86 1.46-4.12 0-6.09-2.71-5.9-8.14V1254.98zM440.71 1225.98c-2.63 4.15-6.68 10.24-12.16 18.26h12.16V1225.98zM502.53 1213.3c-1.06 2.28-2.59 5.8-4.6 10.57-1.84 4.8-4.45 10.36-7.81 16.68-2.96 5.37-5.91 10.75-8.87 16.15-.57 1.08-3.02 6.26-7.36 15.54-1 2.14-2.59 3.21-4.76 3.21-1.41 0-2.64-.44-3.7-1.34-1.14-.98-1.71-2.17-1.71-3.58 0-.62.12-1.25.37-1.87 2.14-5.56 6.14-13.57 12-24.06 5.86-10.48 9.85-18.52 12-24.13 1.63-4.26 2.83-7.15 3.62-8.67 2.12-4.15 4.11-6.19 5.98-6.14 1.38.05 2.6.53 3.66 1.42 1.14.98 1.71 2.16 1.71 3.53C503.06 1211.45 502.88 1212.35 502.53 1213.3zM537.39 1221.59c-3.04-.03-8.69-.15-16.96-.37-2.06 0-5.14-.09-9.23-.28-3.61-.3-5.41-2.05-5.41-5.25 0-1.49.54-2.74 1.63-3.74 1.08-1 2.41-1.51 3.98-1.51 3.42 0 8.55.1 15.39.31 6.84.2 11.98.3 15.39.3h7.44c1.46 0 2.75.28 3.86.85 1.38.71 2.07 1.75 2.07 3.13 0 1.49-.81 3.27-2.44 5.33-1.36 1.52-2.73 3.04-4.11 4.55-3.44 3.82-6.63 8.52-9.56 14.07-.92 1.74-3.35 6.82-7.28 15.25-.52 1.11-1.67 4.15-3.46 9.11-1.36 3.74-2.74 6.67-4.15 8.79-1.08 1.55-2.59 2.32-4.51 2.32-1.49 0-2.82-.51-3.99-1.51-1.17-1-1.75-2.25-1.75-3.74 0-1.17.91-3.88 2.73-8.13 2.93-6.83 5.84-13.67 8.74-20.5C529.54 1232.62 533.4 1226.28 537.39 1221.59z" class="color030047 svgShape"/></g><g><path fill="#ffbf66" d="M412.49,1732.07l-18.07,11.37c-8.48,5.29-19.62,2.75-24.92-5.67l-11.37-18.07    c-5.3-8.42-2.77-19.57,5.66-24.87l18.08-11.43c8.42-5.3,19.56-2.77,24.92,5.67l11.36,18.13    C423.45,1715.62,420.92,1726.76,412.49,1732.07z" class="colorffcc3d svgShape"/></g><g><path fill="#ffbf66" d="M1338.24,1162.32l-13.85,8.72c-6.5,4.05-15.04,2.11-19.11-4.35l-8.72-13.85c-4.06-6.46-2.12-15,4.34-19.06    l13.86-8.76c6.46-4.06,15-2.12,19.11,4.35l8.71,13.9C1346.64,1149.71,1344.7,1158.25,1338.24,1162.32z" class="colorffcc3d svgShape"/></g><g><path fill="#ffbf66" d="M634.67,963.3l-9.57,6.02c-4.49,2.8-10.39,1.46-13.2-3l-6.02-9.57c-2.81-4.46-1.46-10.36,2.99-13.17    l9.57-6.05c4.46-2.81,10.36-1.46,13.2,3l6.01,9.6C640.47,954.6,639.13,960.49,634.67,963.3z" class="colorffcc3d svgShape"/></g><g><path fill="#ffbf66" d="M1125.83,789.74l-9.57,6.02c-4.49,2.8-10.39,1.46-13.2-3l-6.02-9.57c-2.81-4.46-1.46-10.36,2.99-13.17    l9.57-6.05c4.46-2.81,10.36-1.46,13.2,3l6.01,9.6C1131.63,781.04,1130.28,786.94,1125.83,789.74z" class="colorffcc3d svgShape"/></g></svg>