<svg xmlns="http://www.w3.org/2000/svg" xmlns:xlink="http://www.w3.org/1999/xlink" viewBox="0 0 600 450"><defs><linearGradient id="a" x1="-385.01" x2="-407.35" y1="275.4" y2="229.73" gradientTransform="translate(483.13)" gradientUnits="userSpaceOnUse"><stop offset="0" stop-color="#fdb992" class="stopColor92e3fd svgShape"/><stop offset="1" stop-color="#fde6d8" class="stopColord8ecfd svgShape"/></linearGradient><linearGradient id="b" x1="-301.13" x2="-269.46" y1="278.61" y2="235.61" gradientTransform="translate(483.13)" gradientUnits="userSpaceOnUse"><stop offset="0" stop-color="#fdaf81" class="stopColor81d9fd svgShape"/><stop offset="1" stop-color="#ffddc9" class="stopColorffc9fd svgShape"/></linearGradient><linearGradient id="c" x1="2876.89" x2="2876.89" y1="326.75" y2="172.59" gradientTransform="matrix(-1 0 0 1 3022.34 0)" gradientUnits="userSpaceOnUse"><stop offset="0" stop-color="#fdd6c0" class="stopColorc0e4fd svgShape"/><stop offset="1" stop-color="#e1d0c6" class="stopColore1e1c6 svgShape"/></linearGradient><linearGradient id="o" x1="1390.01" x2="1373.54" y1="305.22" y2="242.72" gradientTransform="matrix(-1 0 0 1 1552.14 0)" xlink:href="#a"/><linearGradient id="p" x1="-368.42" x2="-401.38" y1="358.44" y2="349.95" xlink:href="#a"/><linearGradient id="d" x1="1322.35" x2="1389.13" y1="333.41" y2="333.41" gradientTransform="matrix(-1 0 0 1 1552.14 0)" gradientUnits="userSpaceOnUse"><stop offset="0" stop-color="#fd843e" class="stopColor3ed9fd svgShape"/><stop offset="1" stop-color="#fdc09c" class="stopColor9ceafd svgShape"/></linearGradient><linearGradient id="q" x1="-328.14" x2="-270.43" y1="342.32" y2="284.61" xlink:href="#a"/><linearGradient id="r" x1="-354.99" x2="-427.27" y1="357.19" y2="255.22" xlink:href="#a"/><linearGradient id="s" x1="-342.26" x2="-366.99" y1="366.81" y2="206.86" xlink:href="#b"/><linearGradient id="t" x1="2794.09" x2="2771.76" y1="274.79" y2="229.12" gradientTransform="matrix(-1 0 0 1 3266.27 0)" xlink:href="#a"/><linearGradient id="u" x1="2877.98" x2="2909.64" y1="277.99" y2="234.99" gradientTransform="matrix(-1 0 0 1 3266.27 0)" xlink:href="#b"/><linearGradient id="v" x1="-302.22" x2="-302.22" y1="326.13" y2="171.97" gradientTransform="translate(727.06)" xlink:href="#c"/><linearGradient id="w" x1="-1789.01" x2="-1805.54" y1="304.93" y2="242.24" gradientTransform="translate(2197.26)" xlink:href="#a"/><linearGradient id="x" x1="2810.72" x2="2777.69" y1="358.14" y2="349.63" gradientTransform="matrix(-1 0 0 1 3266.27 0)" xlink:href="#a"/><linearGradient id="y" x1="-1856.76" x2="-1789.98" y1="333.1" y2="333.1" gradientTransform="translate(2197.26)" xlink:href="#d"/><linearGradient id="z" x1="2850.87" x2="2908.76" y1="342.11" y2="284.22" gradientTransform="matrix(-1 0 0 1 3266.27 0)" xlink:href="#a"/><linearGradient id="A" x1="2824.23" x2="2751.69" y1="357.04" y2="254.7" gradientTransform="matrix(-1 0 0 1 3266.27 0)" xlink:href="#a"/><linearGradient id="B" x1="2836.89" x2="2812.09" y1="366.8" y2="206.28" gradientTransform="matrix(-1 0 0 1 3266.27 0)" xlink:href="#b"/><linearGradient id="m" x1="294.79" x2="294.79" y1="356.22" y2="-13.9" gradientUnits="userSpaceOnUse"><stop offset="0" stop-color="#ffbf66" class="stopColorffc551 svgShape"/><stop offset="1" stop-color="#ffc068" class="stopColorfff768 svgShape"/></linearGradient><linearGradient id="C" x1="323.38" x2="392.44" y1="196.9" y2="127.84" gradientTransform="rotate(-90 294.785 225.495)" gradientUnits="userSpaceOnUse"><stop offset="0" stop-color="#fde5d7" class="stopColord7ecfd svgShape"/><stop offset="1" stop-color="#ffffff" class="stopColorfff svgShape"/></linearGradient><linearGradient id="n" x1="294.79" x2="294.79" y1="98.91" y2="62.22" gradientUnits="userSpaceOnUse"><stop offset="0" stop-color="#d1916c" class="stopColor6c9ed1 svgShape"/><stop offset="1" stop-color="#f9d0b9" class="stopColorb9daf9 svgShape"/></linearGradient><linearGradient id="D" x1="363.14" x2="363.14" y1="354.08" y2="230.21" xlink:href="#b"/><linearGradient id="E" x1="387.1" x2="387.1" y1="361.58" y2="220.85" gradientUnits="userSpaceOnUse"><stop offset="0" stop-color="#ff6103" class="stopColord64668 svgShape"/><stop offset="1" stop-color="#feaa7a" class="stopColorfe7a91 svgShape"/></linearGradient><linearGradient id="F" x1="360.08" x2="360.08" y1="361.58" y2="220.85" gradientUnits="userSpaceOnUse"><stop offset="0" stop-color="#faa675" class="stopColorfa758d svgShape"/><stop offset="1" stop-color="#fec3a0" class="stopColorfeb3a0 svgShape"/></linearGradient><linearGradient id="g" x1="491.45" x2="511.89" y1="329.47" y2="283.03" gradientUnits="userSpaceOnUse"><stop offset="0" stop-color="#ea7835" class="stopColor3a35ea svgShape"/><stop offset="1" stop-color="#ff9557" class="stopColor5760ff svgShape"/></linearGradient><linearGradient id="e" x1="492.51" x2="502.96" y1="386.34" y2="386.34" gradientUnits="userSpaceOnUse"><stop offset="0" stop-color="#665144" class="stopColor445666 svgShape"/><stop offset="1" stop-color="#8e7261" class="stopColor61788e svgShape"/></linearGradient><linearGradient id="f" x1="483.58" x2="497.62" y1="351.16" y2="351.16" gradientUnits="userSpaceOnUse"><stop offset="0" stop-color="#36261d" class="stopColor1d2a36 svgShape"/><stop offset="1" stop-color="#5e4434" class="stopColor34495e svgShape"/></linearGradient><linearGradient id="G" x1="473.92" x2="481.47" y1="386.34" y2="386.34" xlink:href="#e"/><linearGradient id="H" x1="472.79" x2="487" y1="351.16" y2="351.16" xlink:href="#f"/><linearGradient id="I" x1="469.66" x2="495.47" y1="316.89" y2="306.28" xlink:href="#g"/><linearGradient id="J" x1="465.25" x2="474.45" y1="288.84" y2="305.11" xlink:href="#g"/><linearGradient id="h" x1="542.15" x2="552.95" y1="385.96" y2="385.96" gradientUnits="userSpaceOnUse"><stop offset="0" stop-color="#8e7261" class="stopColor61788e svgShape"/><stop offset="1" stop-color="#665144" class="stopColor445666 svgShape"/></linearGradient><linearGradient id="K" x1="512.81" x2="526.8" y1="385.92" y2="385.92" xlink:href="#h"/><linearGradient id="L" x1="526.09" x2="560.13" y1="356.31" y2="321.79" xlink:href="#h"/><linearGradient id="M" x1="541.82" x2="555.8" y1="349.36" y2="349.36" xlink:href="#h"/><linearGradient id="i" x1="520.4" x2="539.71" y1="304.81" y2="304.81" gradientUnits="userSpaceOnUse"><stop offset="0" stop-color="#dea14c" class="stopColor4cde6b svgShape"/><stop offset="1" stop-color="#b87c28" class="stopColor28b86f svgShape"/></linearGradient><linearGradient id="N" x1="533.5" x2="558.52" y1="303.94" y2="303.94" xlink:href="#i"/><linearGradient id="O" x1="552.71" x2="567.06" y1="325.26" y2="278.17" xlink:href="#i"/><linearGradient id="P" x1="224.42" x2="224.42" y1="326.94" y2="204.51" xlink:href="#b"/><linearGradient id="j" x1="299.27" x2="255.9" y1="126" y2="126" gradientUnits="userSpaceOnUse"><stop offset="0" stop-color="#fee3d4" class="stopColord4edfe svgShape"/><stop offset="1" stop-color="#fff5f0" class="stopColorf0f8ff svgShape"/></linearGradient><linearGradient id="Q" x1="204.99" x2="204.99" y1="318.06" y2="167.93" xlink:href="#j"/><linearGradient id="R" x1="281.89" x2="281.89" y1="333.66" y2="250.56" xlink:href="#j"/><linearGradient id="S" x1="122.42" x2="161.24" y1="335.24" y2="335.24" gradientUnits="userSpaceOnUse"><stop offset="0" stop-color="#f4b660" class="stopColorf47d60 svgShape"/><stop offset="1" stop-color="#ffaf40" class="stopColorff9e40 svgShape"/></linearGradient><linearGradient id="T" x1="117.75" x2="162.12" y1="349.55" y2="323.39" xlink:href="#j"/><linearGradient id="k" x1="124.66" x2="124.66" y1="363.95" y2="305.43" gradientUnits="userSpaceOnUse"><stop offset="0" stop-color="#fdd5be" class="stopColorbed1fd svgShape"/><stop offset="1" stop-color="#ffddc9" class="stopColorffc9fd svgShape"/></linearGradient><linearGradient id="U" x1="266.69" x2="277.45" y1="349.3" y2="349.3" xlink:href="#j"/><linearGradient id="V" x1="278.87" x2="287.22" y1="358.58" y2="358.58" xlink:href="#j"/><linearGradient id="W" x1="264.16" x2="272.52" y1="341.37" y2="341.37" xlink:href="#j"/><linearGradient id="X" x1="279.63" x2="289.67" y1="346.03" y2="346.03" xlink:href="#j"/><linearGradient id="Y" x1="291.16" x2="300.69" y1="353.41" y2="353.41" xlink:href="#j"/><linearGradient id="Z" x1="304.33" x2="314.17" y1="358.57" y2="358.57" xlink:href="#j"/><linearGradient id="l" x1="226.17" x2="226.17" y1="360.97" y2="326.8" gradientUnits="userSpaceOnUse"><stop offset="0" stop-color="#e28148" class="stopColor487de2 svgShape"/><stop offset="1" stop-color="#ff9557" class="stopColor5792ff svgShape"/></linearGradient><linearGradient id="aa" x1="226.17" x2="226.17" y1="338.19" y2="326.78" xlink:href="#b"/><linearGradient id="ab" x1="198.67" x2="261.05" y1="353.41" y2="353.41" xlink:href="#k"/><linearGradient id="ac" x1="261.6" x2="261.6" y1="358.56" y2="330.96" gradientTransform="rotate(-90 261.595 343.925)" xlink:href="#j"/><linearGradient id="ad" x1="499.15" x2="499.15" y1="1407.92" y2="1377.71" gradientTransform="rotate(45 1730.783 363.984)" xlink:href="#l"/><linearGradient id="ae" x1="533.09" x2="491.61" y1="1397.73" y2="1397.73" gradientTransform="rotate(45 1730.783 363.984)" xlink:href="#k"/><linearGradient id="af" x1="678.74" x2="678.74" y1="-621.83" y2="-643.84" gradientTransform="rotate(-45 1415.115 385.03)" gradientUnits="userSpaceOnUse"><stop offset="0" stop-color="#fe8945" class="stopColor45aafe svgShape"/><stop offset="1" stop-color="#fd9f68" class="stopColor68defd svgShape"/></linearGradient><linearGradient id="ag" x1="703.47" x2="673.25" y1="-629.26" y2="-629.26" gradientTransform="rotate(-45 1415.115 385.03)" xlink:href="#k"/><linearGradient id="ah" x1="2675.47" x2="2675.47" y1="1264.6" y2="1242.59" gradientTransform="scale(-1 1) rotate(-45 -102.307 4032.919)" xlink:href="#m"/><linearGradient id="ai" x1="2700.2" x2="2669.98" y1="1257.17" y2="1257.17" gradientTransform="scale(-1 1) rotate(-45 -102.307 4032.919)" xlink:href="#k"/><linearGradient id="aj" x1="723.94" x2="723.94" y1="-867.78" y2="-920.33" gradientTransform="translate(-652.36 1065.56)" xlink:href="#n"/><linearGradient id="ak" x1="33.8" x2="109.33" y1="168.77" y2="168.77" gradientTransform="rotate(45 71.562 168.772)" xlink:href="#n"/><linearGradient id="al" x1="704.72" x2="704.72" y1="-897.54" y2="-912.28" gradientTransform="rotate(-45 1683.994 424.887)" xlink:href="#n"/><linearGradient id="am" x1="704.72" x2="704.72" y1="-899.54" y2="-914.28" gradientTransform="rotate(-45 1683.994 424.887)" xlink:href="#j"/><linearGradient id="an" x1="724.94" x2="724.94" y1="-897.54" y2="-912.28" gradientTransform="rotate(-45 1683.994 424.887)" xlink:href="#n"/><linearGradient id="ao" x1="724.94" x2="724.94" y1="-899.54" y2="-914.28" gradientTransform="rotate(-45 1683.994 424.887)" xlink:href="#j"/><linearGradient id="ap" x1="745.16" x2="745.16" y1="-897.54" y2="-912.28" gradientTransform="rotate(-45 1683.994 424.887)" xlink:href="#n"/><linearGradient id="aq" x1="745.16" x2="745.16" y1="-899.54" y2="-914.28" gradientTransform="rotate(-45 1683.994 424.887)" xlink:href="#j"/><linearGradient id="ar" x1="704.72" x2="704.72" y1="-876.55" y2="-891.29" gradientTransform="rotate(-45 1683.994 424.887)" xlink:href="#n"/><linearGradient id="as" x1="704.72" x2="704.72" y1="-878.55" y2="-893.29" gradientTransform="rotate(-45 1683.994 424.887)" xlink:href="#j"/><linearGradient id="at" x1="724.94" x2="724.94" y1="-876.55" y2="-891.29" gradientTransform="rotate(-45 1683.994 424.887)" xlink:href="#n"/><linearGradient id="au" x1="724.94" x2="724.94" y1="-878.55" y2="-893.29" gradientTransform="rotate(-45 1683.994 424.887)" xlink:href="#j"/><linearGradient id="av" x1="745.16" x2="745.16" y1="-876.55" y2="-891.29" gradientTransform="rotate(-45 1683.994 424.887)" xlink:href="#n"/><linearGradient id="aw" x1="745.16" x2="745.16" y1="-878.55" y2="-893.29" gradientTransform="rotate(-45 1683.994 424.887)" xlink:href="#j"/><linearGradient id="ax" x1="724.94" x2="724.94" y1="-895.22" y2="-897.43" gradientTransform="rotate(-45 1683.994 424.887)" xlink:href="#j"/></defs><g data-name="Layer 1"><path fill="url(#a)" d="M75,252.16c4.69-.1,10.16,7.32,13.22,3.92,2-2.27-9.49-13.77-9.47-25.38,0-3,.12-7.09,2.8-8.54s6-.43,8.11,1.76c10.45,10.72,25,55.18,26.48,62,.49,2.21,1,4.55.26,6.69a7.71,7.71,0,0,1-6.75,4.87,12.69,12.69,0,0,1-8.23-2.63,38.18,38.18,0,0,1-6.27-6.18S58.57,252.55,75,252.16Z"/><path fill="url(#b)" d="M216.85,237.79c.65-3.54,1.38-8.25-1.42-10.51s-6.85-1.77-9.79.3c-14.41,10.21-40.77,58.69-44,66.3-1,2.46-2.1,5.07-1.73,7.71.48,3.44,3.44,6.2,6.79,7.1a15,15,0,0,0,10.12-1.3C180,305.91,214.39,251.26,216.85,237.79Z"/><path fill="url(#c)" d="M162,318.52c-.73-5.72-1.69-11.54-.76-17.13,1.29-7.76,6.17-14.85,5.06-22.79-.88-6.28-5.35-11.6-7.39-17.66-2.74-8.13-.91-16.74.07-25.05A121.58,121.58,0,0,0,156,192c-1.38-5.47-4.72-12.09-10.17-11.85-4.8.21-7.22,6-6.86,10.88s2.44,9.74,2.28,14.64c-.22,6.78-4.63,12.3-8.5,17.62s-7.53,11.73-6,18.44c1.8,8,10.33,13.53,11.5,21.58,1.3,9-6.9,15.45-12.14,22.41-4.7,6.27,2.54,16.38,2.44,24.47-.06,4.41-4,9.35-2.59,13.62,3.45,10.39,8.66,21.42,20.1,23.19C161.1,349.27,163.35,329.29,162,318.52Z"/><path fill="#ffffff" d="M155.44,334.55a.26.26,0,0,1-.25-.19,208.58,208.58,0,0,1-6.57-49.68c0-27.85-1-57.23-3.29-95.26a.26.26,0,0,1,.24-.27.25.25,0,0,1,.26.24c2.31,38,3.32,67.43,3.29,95.29a208.11,208.11,0,0,0,6.56,49.56.25.25,0,0,1-.18.3Z" opacity=".3" class="colorfff svgShape"/><path fill="#ffffff" d="M147.31 221.58a.2.2 0 01-.11 0 .25.25 0 01-.11-.34l7.77-15.14a.25.25 0 11.44.23l-7.77 15.14A.24.24 0 01147.31 221.58zM148.15 242.44a.24.24 0 01-.18-.07L136 230.28a.24.24 0 010-.35.25.25 0 01.35 0L148.32 242a.25.25 0 010 .36A.23.23 0 01148.15 242.44zM148.86 278.69a.22.22 0 01-.15-.06.24.24 0 010-.35l7.79-9.64a.24.24 0 01.35 0 .25.25 0 010 .35l-7.79 9.65A.25.25 0 01148.86 278.69zM149.72 302.24a.25.25 0 01-.15-.05L130.76 288a.25.25 0 11.3-.4l18.81 14.2a.25.25 0 010 .35A.28.28 0 01149.72 302.24zM147.91 235.82a.25.25 0 01-.16-.06.25.25 0 010-.35l6.37-7.71a.24.24 0 01.35 0 .25.25 0 010 .35l-6.38 7.71A.26.26 0 01147.91 235.82zM148.26 258.4a.22.22 0 01-.17-.07L139 249.19a.25.25 0 11.35-.35l9.07 9.13a.25.25 0 010 .36A.24.24 0 01148.26 258.4zM146.15 199.21a.27.27 0 01-.19-.08l-4-4.29a.25.25 0 11.37-.35l4 4.3a.25.25 0 010 .35A.23.23 0 01146.15 199.21z" opacity=".3" class="colorfff svgShape"/><path fill="url(#o)" d="M139.93,333.26c1.68-5.51,3.6-11.09,3.62-16.76,0-7.87-3.59-15.68-1.17-23.32,1.92-6,7.22-10.54,10.25-16.17,4.06-7.55,3.7-16.34,4.12-24.71A121.9,121.9,0,0,1,167,209.48c2.28-5.16,6.68-11.13,12-10,4.7,1,6.13,7.09,4.95,11.88s-4,9.19-4.7,14.05c-.92,6.72,2.5,12.9,5.42,18.79s5.46,12.83,2.84,19.19c-3.11,7.55-12.46,11.61-14.95,19.35-2.79,8.66,4.21,16.38,8.2,24.13,3.59,7-5.24,15.72-6.49,23.71-.69,4.36,2.37,9.89.27,13.86-5.14,9.66-12.09,19.49-23.71,19.49C135.62,364,136.75,343.65,139.93,333.26Z"/><path fill="#ffffff" d="M143.71,350.16l-.1,0a.26.26,0,0,1-.13-.34,207.82,207.82,0,0,0,14.77-47.75c4.64-27.5,10.57-56.3,19.21-93.39a.25.25,0,0,1,.3-.19.24.24,0,0,1,.18.3c-8.63,37.08-14.56,65.88-19.2,93.36A208.41,208.41,0,0,1,143.94,350,.25.25,0,0,1,143.71,350.16Z" opacity=".3" class="colorfff svgShape"/><path fill="#ffffff" d="M170.65 240.14a.25.25 0 01-.24-.17l-5.12-16.23a.25.25 0 01.16-.31.25.25 0 01.32.16l5.12 16.23a.25.25 0 01-.16.31zM166.33 260.57a.23.23 0 01-.2-.1.25.25 0 01.06-.35L180 250.21a.25.25 0 01.35.06.25.25 0 01-.05.35l-13.8 9.91A.28.28 0 01166.33 260.57zM159.55 296.19a.26.26 0 01-.22-.13l-6.06-10.81a.25.25 0 01.44-.25l6.06 10.82a.25.25 0 01-.1.34zM154.76 319.26a.25.25 0 01-.11-.47l20.91-10.85a.26.26 0 01.34.11.25.25 0 01-.11.34l-20.91 10.84zM167.67 254.08a.24.24 0 01-.21-.12l-5-8.67a.25.25 0 11.43-.25l5 8.67a.25.25 0 01-.09.34A.28.28 0 01167.67 254.08zM163.54 276.29a.24.24 0 01-.2-.11.23.23 0 01.06-.34l10.47-7.49a.24.24 0 01.34 0 .25.25 0 01-.05.35l-10.47 7.49A.3.3 0 01163.54 276.29zM175.55 218.29a.26.26 0 01-.2-.1.24.24 0 010-.35l4.68-3.56a.25.25 0 01.35.05.24.24 0 010 .35l-4.67 3.56A.3.3 0 01175.55 218.29z" opacity=".3" class="colorfff svgShape"/><path fill="url(#p)" d="M72.31,328.69c-2.21-.41-5.14,0-6.06,2.11-1.06,2.46,1.55,4.62,3.81,5.82l13.53,7.16c2,1.06,2,1.21-.18.5a40.15,40.15,0,0,0-15.21-1.93c-2.49.17-5.64,1.2-5.92,3.68s2.59,3.8,5,4.43c6.77,1.81,15.24,1.6,12.17,2-14.44,2-17.69,5.74-17.07,11.47h73.16C133.11,353.9,97.67,333.45,72.31,328.69Z"/><path fill="url(#d)" d="M213.05,364a52.53,52.53,0,0,0,12.5-11.72c1.37-1.73,2.69-3.9,2.06-6-.77-2.55-3.86-3.45-6.5-3.83-5.63-.8-10.47,5.51-16.14,5.93,5.25-2.17,12.78-10.07,17.31-13.52s10.29-11,6-14.77c-5.72-5-17.45,3.37-24.72,5.51,7.83-2.51,17.17-8.13,19.57-16a6.2,6.2,0,0,0,.2-4,4.77,4.77,0,0,0-4.59-2.72,14,14,0,0,0-5.43,1.52l-16.1,7c-6.78,2.92-13.7,5.95-19.09,11-5.55,5.19-9.11,12.22-11.27,19.51s-3,14.55-3.84,22.1Z"/><path fill="url(#q)" d="M199.84,321c6.85-6.54,8.38-16.61,9.07-25.8s1.19-19,6.83-26.63c1.93-2.59,4.37-4.78,6.3-7.37s3.37-5.82,2.76-8.85c-1.05-5.36-8.17-7.34-13.34-5s-8.6,7.4-11.19,12.44-4.79,10.44-8.77,14.52c-5.58,5.72-14.95,10.16-21.26,15.06-22.33,17.31-32.45,43.47-29.81,74.64h33C174.49,344.92,193,327.48,199.84,321Z"/><path fill="url(#r)" d="M115.77,318.68c-7.53-6.16-1.19-20.29-7.28-27.87-5.9-7.35-18.79-3.49-26.66-8.69-5.28-3.49-7.13-10.19-10.08-15.79s-9-10.85-15.22-8.45C51,260,49,267.45,50.89,272.81s6.59,9.09,11.1,12.5,9.24,7,11.42,12.24c2,4.88,1.63,10.61,3.44,15.59C84,332.81,109.4,332,105.52,364h42.05C147.57,330.26,119,321.32,115.77,318.68Z"/><path fill="#ffffff" d="M127.13,357.56a.26.26,0,0,1-.23-.15c-9.65-22-25.85-41.05-41.52-59.48-9.16-10.78-17.82-21-25.18-31.63a.24.24,0,0,1,.07-.34.24.24,0,0,1,.34.06c7.35,10.64,16,20.81,25.15,31.59,15.69,18.45,31.91,37.53,41.6,59.6a.24.24,0,0,1-.13.33A.16.16,0,0,1,127.13,357.56Z" opacity=".3" class="colorfff svgShape"/><path fill="#ffffff" d="M99.56 314.75a.25.25 0 01-.25-.25l-.1-20.77a.25.25 0 01.25-.25h0a.25.25 0 01.25.25l.1 20.77a.25.25 0 01-.25.25zM103.15 319.26h-.08L80.52 312a.26.26 0 01-.16-.32.25.25 0 01.31-.16l22.56 7.27a.26.26 0 01.16.32A.25.25 0 01103.15 319.26zM112.6 332h-.06l-10.09-2.37a.25.25 0 11.12-.49l10.08 2.38a.25.25 0 01.19.3A.26.26 0 01112.6 332zM91 304.36a.26.26 0 01-.25-.22l-1.31-12.08a.26.26 0 01.22-.28.25.25 0 01.28.22l1.31 12.08a.25.25 0 01-.22.28zM84 296.19H77.14a.25.25 0 110-.5H84a.25.25 0 010 .5zM69.13 278.17a.25.25 0 01-.25-.23l-.77-11.76a.25.25 0 01.23-.27h0a.24.24 0 01.24.24l.78 11.76a.24.24 0 01-.23.26zM73.23 283.29h0l-9.1-1.39a.25.25 0 01-.21-.28.24.24 0 01.29-.21l9.1 1.38a.25.25 0 010 .5z" opacity=".3" class="colorfff svgShape"/><path fill="url(#s)" d="M152.4,306.12c-4-8-12.56-12.76-14.21-21.51-1.78-9.46,9.4-18.44,8-28-1.13-7.8-9.81-11.48-14.23-17.84-3.43-4.94-4.14-11.34-4.87-17.44s-1.74-12.5-5.59-17.12-11.54-6.55-16.43-2.43c-4.13,3.48-4.62,9.71-3,14.59s4.87,8.92,7.23,13.44,3.77,10.11,1.51,15c-2.61,5.57-9.41,8.76-11.2,14.6-1.66,5.43,1.7,10.73,5.2,14.87s4.52,8.59,4.38,14.18c-.21,8.37-6.79,15.83-4.68,23.79s14.67,10,14.95,18.33c.11,3.4-3.82,13.63,6.33,33.41h41C166.78,331.28,156,313.36,152.4,306.12Z"/><path fill="#ffffff" d="M137.79,361.79a.25.25,0,0,1-.25-.23c-5.12-56.54-13-105.09-24.83-152.79a.25.25,0,0,1,.49-.12C125,256.37,132.91,305,138,361.52a.25.25,0,0,1-.23.27Z" opacity=".3" class="colorfff svgShape"/><path fill="#ffffff" d="M126.93 276.29a.23.23 0 01-.16-.06l-20.11-16.52a.25.25 0 11.32-.39l20.1 16.52a.26.26 0 010 .36A.25.25 0 01126.93 276.29zM125.2 266.41l-.11 0a.26.26 0 01-.11-.34l8.58-16.67a.26.26 0 01.34-.11.25.25 0 01.1.34l-8.57 16.67A.28.28 0 01125.2 266.41zM132.8 315.93a.23.23 0 01-.15-.05l-18.08-13a.25.25 0 01.3-.4l18.08 13a.25.25 0 01.05.35A.26.26 0 01132.8 315.93zM134 325.49a.28.28 0 01-.13 0 .26.26 0 01-.09-.35l10.92-18.47a.25.25 0 11.43.25L134.2 325.37A.24.24 0 01134 325.49zM116.52 223.91a.27.27 0 01-.17-.06l-8.76-7.75a.25.25 0 010-.35.23.23 0 01.35 0l8.77 7.75a.25.25 0 010 .35A.24.24 0 01116.52 223.91zM115.21 218.29a.19.19 0 01-.1 0 .25.25 0 01-.13-.33l3.67-8.12a.25.25 0 01.45.21l-3.66 8.12A.26.26 0 01115.21 218.29zM123.32 256.25a.28.28 0 01-.17-.07l-8.32-7.58a.25.25 0 01.33-.37l8.33 7.58a.24.24 0 010 .35A.23.23 0 01123.32 256.25zM120 238a.18.18 0 01-.1 0 .25.25 0 01-.12-.33l3.89-8.55A.26.26 0 01124 229a.25.25 0 01.12.33l-3.89 8.56A.24.24 0 01120 238zM130.57 299.57a.2.2 0 01-.15-.06l-9.48-7.28a.24.24 0 010-.35.25.25 0 01.35-.05l9.47 7.29a.25.25 0 01.05.35A.28.28 0 01130.57 299.57zM136 343.68a.24.24 0 01-.16-.05l-9.43-7.27a.25.25 0 010-.35.24.24 0 01.35 0l9.44 7.26a.26.26 0 010 .36A.25.25 0 01136 343.68z" opacity=".3" class="colorfff svgShape"/><path fill="url(#t)" d="M495.28,251.55c-4.68-.11-10.16,7.32-13.22,3.92-2-2.27,9.49-13.77,9.47-25.38,0-3.05-.12-7.09-2.8-8.54s-6-.43-8.11,1.76c-10.44,10.72-25,55.18-26.48,62-.49,2.21-1,4.54-.26,6.69a7.72,7.72,0,0,0,6.75,4.87,12.64,12.64,0,0,0,8.23-2.64,37.34,37.34,0,0,0,6.27-6.17S511.72,251.94,495.28,251.55Z"/><path fill="url(#u)" d="M353.44,237.18c-.65-3.54-1.38-8.26,1.43-10.51s6.84-1.78,9.78.3c14.42,10.21,40.78,58.69,44,66.3,1,2.46,2.1,5.07,1.73,7.71-.48,3.43-3.44,6.2-6.79,7.1a15,15,0,0,1-10.11-1.3C390.34,305.3,355.9,250.65,353.44,237.18Z"/><path fill="url(#v)" d="M408.34,317.91c.74-5.72,1.69-11.54.76-17.13-1.29-7.77-6.16-14.86-5.05-22.79.87-6.28,5.34-11.6,7.38-17.66,2.74-8.13.91-16.74-.07-25.06a121.75,121.75,0,0,1,2.95-43.93c1.38-5.47,4.72-12.09,10.17-11.85,4.8.2,7.23,6,6.86,10.88s-2.44,9.74-2.28,14.64c.23,6.78,4.63,12.3,8.5,17.62s7.53,11.72,6,18.44c-1.8,8-10.34,13.53-11.5,21.58-1.31,9,6.9,15.45,12.13,22.41,4.7,6.26-2.54,16.38-2.43,24.47.05,4.41,4,9.35,2.58,13.61-3.44,10.39-8.66,21.43-20.1,23.19C409.19,348.66,407,328.68,408.34,317.91Z"/><path fill="#ffffff" d="M414.86,333.93h-.06a.25.25,0,0,1-.18-.31,208.08,208.08,0,0,0,6.55-49.56c0-27.87,1-57.26,3.29-95.28a.26.26,0,0,1,.26-.24.26.26,0,0,1,.24.27c-2.3,38-3.32,67.39-3.29,95.25a208.66,208.66,0,0,1-6.57,49.69A.25.25,0,0,1,414.86,333.93Z" opacity=".3" class="colorfff svgShape"/><path fill="#ffffff" d="M423 221a.26.26 0 01-.22-.13L415 205.68a.25.25 0 01.11-.33.25.25 0 01.34.11l7.77 15.14a.26.26 0 01-.11.34zM422.15 241.83a.29.29 0 01-.18-.07.25.25 0 010-.36l11.94-12.08a.25.25 0 01.36 0 .26.26 0 010 .35l-11.95 12.08A.23.23 0 01422.15 241.83zM421.43 278.08a.26.26 0 01-.19-.1l-7.79-9.64a.24.24 0 010-.35.25.25 0 01.35 0l7.79 9.65a.25.25 0 010 .35A.25.25 0 01421.43 278.08zM420.58 301.63a.26.26 0 01-.2-.1.25.25 0 01.05-.35l18.8-14.2a.24.24 0 01.35 0 .25.25 0 01-.05.35l-18.8 14.21A.3.3 0 01420.58 301.63zM422.38 235.2a.25.25 0 01-.19-.09l-6.37-7.71a.24.24 0 010-.35.25.25 0 01.35 0l6.38 7.71a.26.26 0 010 .36A.28.28 0 01422.38 235.2zM422 257.79a.31.31 0 01-.18-.07.27.27 0 010-.36l9.07-9.14a.26.26 0 01.35 0 .26.26 0 010 .36l-9.07 9.13A.27.27 0 01422 257.79zM424.15 198.6a.28.28 0 01-.17-.07.25.25 0 010-.35l4-4.3a.25.25 0 01.35 0 .24.24 0 010 .35l-4 4.3A.27.27 0 01424.15 198.6z" opacity=".3" class="colorfff svgShape"/><path fill="url(#w)" d="M430.37,332.65c-1.69-5.52-3.6-11.09-3.63-16.76,0-7.87,3.59-15.68,1.17-23.32-1.92-6-7.22-10.54-10.24-16.17-4.06-7.55-3.7-16.35-4.13-24.71a121.68,121.68,0,0,0-10.27-42.82c-2.28-5.16-6.68-11.13-12-10-4.7,1-6.12,7.09-4.94,11.88s4,9.19,4.7,14c.91,6.72-2.51,12.9-5.43,18.79s-5.46,12.82-2.84,19.19c3.11,7.55,12.46,11.61,15,19.35,2.79,8.65-4.22,16.38-8.21,24.13-3.59,7,5.25,15.72,6.5,23.71.68,4.36-2.38,9.89-.27,13.86,5.14,9.66,12.12,20.27,23.7,20.1C434.68,363.72,433.54,343,430.37,332.65Z"/><path fill="#ffffff" d="M426.58,349.54a.25.25,0,0,1-.23-.14,208.9,208.9,0,0,1-14.8-47.88c-4.64-27.47-10.56-56.26-19.2-93.36a.25.25,0,0,1,.49-.12c8.64,37.11,14.56,65.92,19.21,93.39a207.69,207.69,0,0,0,14.76,47.76.24.24,0,0,1-.13.33A.16.16,0,0,1,426.58,349.54Z" opacity=".3" class="colorfff svgShape"/><path fill="#ffffff" d="M399.64 239.53h-.07a.24.24 0 01-.17-.31L404.53 223a.24.24 0 01.31-.17.25.25 0 01.16.32l-5.12 16.23A.25.25 0 01399.64 239.53zM404 260a.24.24 0 01-.14 0L390 250a.24.24 0 01-.06-.34.25.25 0 01.35-.06l13.8 9.91a.25.25 0 01.06.35A.28.28 0 01404 260zM410.74 295.58l-.12 0a.25.25 0 01-.09-.34l6.06-10.82a.25.25 0 01.34-.09.24.24 0 01.09.34L411 295.45A.26.26 0 01410.74 295.58zM415.53 318.65l-.12 0L394.5 307.77a.25.25 0 01-.11-.33.25.25 0 01.34-.11l20.92 10.85a.24.24 0 01.1.34A.25.25 0 01415.53 318.65zM402.62 253.47a.25.25 0 01-.22-.38l5-8.66a.25.25 0 01.34-.1.26.26 0 01.09.35l-5 8.66A.24.24 0 01402.62 253.47zM406.75 275.68a.24.24 0 01-.14-.05l-10.47-7.49a.25.25 0 01.29-.41l10.47 7.49a.25.25 0 01.06.35A.26.26 0 01406.75 275.68zM394.75 217.68a.22.22 0 01-.15-.06l-4.68-3.56a.25.25 0 01-.05-.35.24.24 0 01.35 0l4.68 3.56a.25.25 0 01.05.35A.28.28 0 01394.75 217.68z" opacity=".3" class="colorfff svgShape"/><path fill="url(#x)" d="M498,328.08c2.21-.41,5.14,0,6.06,2.11,1.06,2.46-1.56,4.62-3.82,5.81l-13.52,7.17c-2,1.05-2,1.21.17.5a39.78,39.78,0,0,1,15.22-1.93c2.48.16,5.63,1.2,5.91,3.67s-2.58,3.81-4.94,4.44c-6.78,1.81-15.25,1.6-12.17,2,14.43,2,17.68,6.35,17.06,12.08H434.8C437.19,353.89,472.62,332.84,498,328.08Z"/><path fill="url(#y)" d="M357.24,364c-4.79-3.07-9-7.87-12.5-12.33-1.37-1.73-2.69-3.9-2.05-6,.77-2.55,3.86-3.46,6.49-3.83,5.63-.8,10.48,5.51,16.15,5.93-5.26-2.18-12.79-10.08-17.32-13.52s-10.29-11-6-14.77c5.72-5,17.45,3.37,24.72,5.51-7.83-2.51-17.16-8.13-19.56-16a6.21,6.21,0,0,1-.21-4,4.82,4.82,0,0,1,4.59-2.73,14.05,14.05,0,0,1,5.44,1.53l16.1,7c6.77,2.93,13.7,5.95,19.09,11,5.55,5.19,9.1,12.22,11.26,19.51s3,15.16,3.84,22.71Z"/><path fill="url(#z)" d="M370.46,320.37c-6.86-6.54-8.39-16.61-9.07-25.8s-1.2-19-6.84-26.63c-1.92-2.59-4.37-4.78-6.3-7.37s-3.36-5.82-2.76-8.86c1.06-5.35,8.17-7.34,13.35-5s8.59,7.4,11.19,12.44,4.79,10.43,8.77,14.52c5.58,5.72,14.94,10.16,21.26,15.06C422.38,306,432.5,332.78,429.86,364h-33C395.81,344.91,377.27,326.87,370.46,320.37Z"/><path fill="url(#A)" d="M454.52,318.07c7.54-6.16,1.2-20.29,7.29-27.88,5.89-7.34,18.79-3.48,26.66-8.69,5.27-3.48,7.12-10.18,10.08-15.78s9-10.85,15.21-8.45c5.54,2.14,7.57,9.57,5.64,14.93s-6.59,9.09-11.1,12.5-9.23,7-11.42,12.23c-2,4.89-1.63,10.62-3.44,15.6C486.27,332.2,460.9,332,464.77,364h-42C422.73,330.26,451.29,320.71,454.52,318.07Z"/><path fill="#ffffff" d="M443.16,357l-.1,0a.25.25,0,0,1-.13-.33c9.69-22.07,25.91-41.15,41.6-59.61,9.16-10.77,17.8-20.94,25.15-31.58a.26.26,0,0,1,.35-.07.25.25,0,0,1,.06.35c-7.36,10.66-16,20.85-25.18,31.63-15.67,18.42-31.86,37.48-41.52,59.48A.25.25,0,0,1,443.16,357Z" opacity=".3" class="colorfff svgShape"/><path fill="#ffffff" d="M470.74 314.13h0a.25.25 0 01-.25-.25l.1-20.77a.25.25 0 01.25-.25h0a.26.26 0 01.25.26l-.1 20.77A.25.25 0 01470.74 314.13zM467.15 318.65a.25.25 0 01-.24-.17.25.25 0 01.16-.32l22.55-7.27a.25.25 0 01.31.16.24.24 0 01-.16.31l-22.55 7.28zM457.7 331.43a.25.25 0 01-.06-.5l10.09-2.37a.24.24 0 01.3.18.25.25 0 01-.19.3l-10.08 2.38zM479.34 303.75h0a.26.26 0 01-.22-.28l1.31-12.08a.25.25 0 01.5.06l-1.31 12.08A.26.26 0 01479.34 303.75zM493.15 295.58h-6.88a.25.25 0 010-.5h6.88a.25.25 0 010 .5zM501.16 277.56h0a.25.25 0 01-.24-.26l.78-11.77a.24.24 0 01.27-.23.26.26 0 01.23.27l-.78 11.76A.25.25 0 01501.16 277.56zM497.07 282.68a.25.25 0 010-.5l9.1-1.38a.24.24 0 01.28.21.25.25 0 01-.21.28l-9.1 1.38z" opacity=".3" class="colorfff svgShape"/><path fill="url(#B)" d="M417.9,305.51c4-8,12.55-12.76,14.2-21.51,1.78-9.47-9.39-18.45-8-28,1.13-7.8,9.81-11.49,14.23-17.84,3.44-4.95,4.14-11.34,4.88-17.44s1.73-12.5,5.58-17.13,11.54-6.55,16.43-2.42c4.13,3.48,4.63,9.71,3,14.58s-4.87,8.93-7.23,13.45-3.77,10.11-1.5,15c2.6,5.57,9.4,8.75,11.19,14.59,1.67,5.43-1.7,10.74-5.2,14.88s-4.52,8.59-4.38,14.18c.21,8.37,6.8,15.83,4.69,23.79s-14.68,10-15,18.33c-.12,3.4,3.81,14.24-6.33,34h-41C403.51,331.28,414.34,312.75,417.9,305.51Z"/><path fill="#ffffff" d="M432.5,361.18h0a.25.25,0,0,1-.22-.28c5.12-56.58,13-105.15,24.84-152.86a.24.24,0,0,1,.3-.18.24.24,0,0,1,.18.3c-11.81,47.69-19.7,96.24-24.83,152.79A.25.25,0,0,1,432.5,361.18Z" opacity=".3" class="colorfff svgShape"/><path fill="#ffffff" d="M443.37 275.68a.28.28 0 01-.19-.09.25.25 0 010-.36l20.11-16.52a.25.25 0 01.35 0 .24.24 0 010 .35l-20.1 16.53A.27.27 0 01443.37 275.68zM445.09 265.8a.25.25 0 01-.22-.13L436.29 249a.25.25 0 01.45-.23l8.57 16.67a.24.24 0 01-.11.33A.2.2 0 01445.09 265.8zM437.49 315.32a.28.28 0 01-.2-.1.25.25 0 01.06-.35l18.08-13a.25.25 0 01.29.41l-18.08 13A.27.27 0 01437.49 315.32zM436.31 324.88a.27.27 0 01-.22-.12l-10.92-18.48a.25.25 0 01.43-.25l10.92 18.47a.25.25 0 01-.09.34A.19.19 0 01436.31 324.88zM453.77 223.3a.25.25 0 01-.18-.08.25.25 0 010-.36l8.76-7.75a.24.24 0 01.35 0 .23.23 0 010 .35l-8.76 7.75A.27.27 0 01453.77 223.3zM455.08 217.68a.25.25 0 01-.22-.15l-3.67-8.13a.25.25 0 01.12-.33.24.24 0 01.33.13l3.67 8.12a.25.25 0 01-.12.33A.23.23 0 01455.08 217.68zM447 255.63a.24.24 0 01-.19-.08.24.24 0 010-.35l8.32-7.58a.25.25 0 01.36 0 .26.26 0 010 .36l-8.33 7.58A.23.23 0 01447 255.63zM450.25 237.43a.24.24 0 01-.23-.15l-3.89-8.55a.25.25 0 01.46-.2l3.89 8.55a.26.26 0 01-.13.33zM439.73 299a.25.25 0 01-.2-.09.24.24 0 010-.35l9.48-7.29a.25.25 0 11.3.4l-9.47 7.28A.23.23 0 01439.73 299zM434.27 343.07a.23.23 0 01-.2-.1.25.25 0 01.05-.35l9.43-7.27a.25.25 0 01.3.4L434.42 343A.27.27 0 01434.27 343.07z" opacity=".3" class="colorfff svgShape"/><rect width="184.61" height="276.91" x="197.48" y="87.04" fill="#ffaf40" rx="5.8" class="colorff9e40 svgShape"/><rect width="184.61" height="276.91" x="202.48" y="87.04" fill="url(#m)" rx="5.8"/><rect width="261.33" height="169.03" x="164.12" y="140.98" fill="url(#C)" transform="rotate(90 294.785 225.495)"/><path fill="url(#n)" d="M318.1,80.29a4.74,4.74,0,0,1-4.64-3.81,19.06,19.06,0,0,0-37.35,0,4.73,4.73,0,0,1-4.64,3.81H253.82A4.74,4.74,0,0,0,249.07,85V96.75a4.74,4.74,0,0,0,4.75,4.75h81.93a4.74,4.74,0,0,0,4.75-4.75V85a4.74,4.74,0,0,0-4.75-4.75Z"/><path fill="#ffffff" d="M335.75,80.29H318.1a4.74,4.74,0,0,1-4.64-3.81,19.06,19.06,0,0,0-37.35,0,4.73,4.73,0,0,1-4.64,3.81H253.82A4.74,4.74,0,0,0,249.07,85v2a4.74,4.74,0,0,1,4.75-4.75h17.65a4.73,4.73,0,0,0,4.64-3.81,19.06,19.06,0,0,1,37.35,0,4.74,4.74,0,0,0,4.64,3.81h17.65A4.74,4.74,0,0,1,340.5,87V85A4.74,4.74,0,0,0,335.75,80.29Z" class="colorfff svgShape"/><circle cx="294.79" cy="80.29" r="8.66" fill="#ffffff" opacity=".5" transform="rotate(-76.72 294.776 80.29)" class="colorfff svgShape"/><rect width="143.07" height="1" x="225.07" y="129.33" fill="#eebfa3" class="colora3c9ee svgShape"/><rect width="143.07" height="1" x="225.07" y="137.01" fill="#eebfa3" class="colora3c9ee svgShape"/><rect width="143.07" height="1" x="225.07" y="144.7" fill="#eebfa3" class="colora3c9ee svgShape"/><rect width="143.07" height="1" x="225.07" y="152.39" fill="#eebfa3" class="colora3c9ee svgShape"/><rect width="143.07" height="1" x="225.07" y="160.07" fill="#eebfa3" class="colora3c9ee svgShape"/><rect width="143.07" height="1" x="225.07" y="167.76" fill="#eebfa3" class="colora3c9ee svgShape"/><rect width="143.07" height="1" x="225.07" y="175.44" fill="#eebfa3" class="colora3c9ee svgShape"/><rect width="143.07" height="1" x="225.07" y="183.13" fill="#eebfa3" class="colora3c9ee svgShape"/><rect width="143.07" height="1" x="225.07" y="190.82" fill="#eebfa3" class="colora3c9ee svgShape"/><rect width="143.07" height="1" x="225.07" y="198.5" fill="#eebfa3" class="colora3c9ee svgShape"/><rect width="143.07" height="1" x="225.07" y="206.19" fill="#eebfa3" class="colora3c9ee svgShape"/><rect width="143.07" height="1" x="225.07" y="213.87" fill="#eebfa3" class="colora3c9ee svgShape"/><rect width="143.07" height="1" x="225.07" y="221.56" fill="#eebfa3" class="colora3c9ee svgShape"/><rect width="143.07" height="1" x="225.07" y="229.25" fill="#eebfa3" class="colora3c9ee svgShape"/><rect width="143.07" height="1" x="225.07" y="236.93" fill="#eebfa3" class="colora3c9ee svgShape"/><rect width="143.07" height="1" x="225.07" y="244.62" fill="#eebfa3" class="colora3c9ee svgShape"/><rect width="143.07" height="1" x="225.07" y="252.3" fill="#eebfa3" class="colora3c9ee svgShape"/><rect width="143.07" height="1" x="225.07" y="259.99" fill="#eebfa3" class="colora3c9ee svgShape"/><rect width="143.07" height="1" x="225.07" y="267.68" fill="#eebfa3" class="colora3c9ee svgShape"/><rect width="143.07" height="1" x="225.07" y="275.36" fill="#eebfa3" class="colora3c9ee svgShape"/><rect width="143.07" height="1" x="225.07" y="283.05" fill="#eebfa3" class="colora3c9ee svgShape"/><rect width="143.07" height="1" x="225.07" y="290.74" fill="#eebfa3" class="colora3c9ee svgShape"/><rect width="143.07" height="1" x="225.07" y="298.42" fill="#eebfa3" class="colora3c9ee svgShape"/><rect width="143.07" height="1" x="225.07" y="306.11" fill="#eebfa3" class="colora3c9ee svgShape"/><path d="M363.14,229.77l-47.57,15.56v40.89c0,25.55,19.28,55,47.57,69.95,28.29-15,47.57-44.4,47.57-69.95V245.33Z" style="mix-blend-mode:multiply" fill="url(#D)"/><path fill="url(#E)" d="M387.1,220.35l-54,17.67v46.46c0,29,21.9,62.45,54,79.47,32.15-17,54-50.44,54-79.47V238Z"/><path fill="url(#F)" d="M387.1,220.35l-54,17.67v46.46c0,29,21.9,62.45,54,79.47Z"/><path fill="#ffffff" d="M387.1,226.45l48.25,15.78v42.25c0,12.86-4.84,27.23-13.64,40.45a104.82,104.82,0,0,1-34.61,32.4,104.89,104.89,0,0,1-34.6-32.4c-8.8-13.22-13.65-27.59-13.65-40.45V242.23l48.25-15.78Zm0-.53-48.75,16v42.61c0,26.84,20.36,57.3,48.75,73.43,28.4-16.13,48.75-46.59,48.75-73.43V241.87l-48.75-16Z" class="colorfff svgShape"/><polygon fill="#ffffff" points="413.34 283.35 390.7 283.35 390.7 260.71 383.51 260.71 383.51 283.35 360.87 283.35 360.87 290.54 383.51 290.54 383.51 313.18 390.7 313.18 390.7 290.54 413.34 290.54 413.34 283.35" class="colorfff svgShape"/><path fill="url(#g)" d="M511.66,316.38c-5-2-8.83-4.59-12.11-6.5.75-11.64-.49-17.27-2.41-19.84-1-1.37-2.12-1.51-4.07.33-1.87,7.18.22,20.36,2.51,23.71,3.23,3.51,11.3,5.23,15.87,5.36Z"/><polygon fill="#a58d7f" points="493.09 384.57 496.83 384.57 496.2 380.29 492.32 380.29 493.09 384.57" class="color7f92a5 svgShape"/><path fill="url(#e)" d="M497.06,383.91c.59,3.26,5.38,2.79,5.79,3.54.16.29.14.51,0,1.32h-8.59c-.06-.75-.14-.87-.27-.92a4,4,0,0,0-.18.92h-1.24c-.1-1.65.19-2.64.27-4.86Z"/><path fill="#ffb58a" d="M518.22,320.2c-.57-.47-1.17-.91-1.75-1.37-.16-.13-.89-.61-.62-1s2.59.95,2.65-.22c-.5-.1-1.79-.67-2.32-.83-.87-.27-1.76-.51-2.65-.74-2.84-.74-3.81.75-2.81,2.49a8.07,8.07,0,0,0,1.75,1.89A6.08,6.08,0,0,0,516,322S518.51,320.44,518.22,320.2Z" class="colorf9aa98 svgShape"/><path fill="url(#f)" d="M489.49,355.1c-1.85-11.11-9.36-27.83-4-35.68l10,3c2.75,9.65,2.32,22.54,1.45,30.38,1.09,9.25-.31,24.19.18,30.1h-5.8C487.82,370.07,488.55,361.23,489.49,355.1Z"/><polygon fill="#a58d7f" points="474.93 384.57 478.66 384.57 478.82 380.29 474.94 380.29 474.93 384.57" class="color7f92a5 svgShape"/><path fill="url(#G)" d="M479,383.91c.22,3.26,2.06,2.79,2.38,3.54.13.29.08.51-.19,1.32h-5.59c0-.75,0-.87-.16-.92a3.67,3.67,0,0,0-.29.92h-1.25c.1-1.65.5-2.64.84-4.86Z"/><path fill="url(#H)" d="M483.43,352.79c2.06-7.83,4.42-20.69,3.27-30.37l-9.56-3c-6.58,7.85-1.87,24.57-1.75,35.68-2.36,6.12-3.37,15-1.95,27.8h5.38C479.15,377,482.35,362,483.43,352.79Z"/><path fill="#fde4d5" d="M473.17,297.8c-.24-3-.76-7.22,2-9.17,4.07-2.82,13.81-2.26,18.31-1.08,5.82,1.53,4.57,7.15,4.05,12.31-.43,4.21-1.87,13.33-1.7,24.15H474.33C474.72,313.88,473.54,302.44,473.17,297.8Z" class="colord5e5fd svgShape"/><path fill="url(#I)" d="M499,331a128.6,128.6,0,0,1-1.46-31.12c.52-5.16,1.77-10.78-4.05-12.31-.67-.17-1.46-.34-2.33-.48,1.38,3.37-1.93,20.31-2.92,25.19-1.25-5-5.68-22.52-6.89-25.5a13.71,13.71,0,0,0-6.17,1.87c-2.8,1.95-2.28,6.16-2,9.17.36,4.53-1.74,15.53-2.39,33.18H487.4l1.65-5.89.54,5.89Z"/><path fill="#f9c09f" d="M489.11,279.6h-5a39.4,39.4,0,0,1-.59,6.27c1.42,2.07,3.17,2.53,5.69,2.05A51.84,51.84,0,0,0,489.11,279.6Z" class="colorf9b09f svgShape"/><path fill="#5e4434" d="M492.44,275.29c0,2.09-.87,5.56-1.78,6.41-.07-1.38-.64-8-.38-8.35C491,272.33,492.44,274.15,492.44,275.29Z" class="color34495e svgShape"/><path fill="#f9c09f" d="M486.29,283.18a2.9,2.9,0,0,0,2.93.73,3.22,3.22,0,0,0,1.42-2.15,22.32,22.32,0,0,0,.87-4.87,5.6,5.6,0,0,0-.26-2.51,3.83,3.83,0,0,0-4.31-2.05,4.61,4.61,0,0,0-3.7,4.68A8.45,8.45,0,0,0,486.29,283.18Z" class="colorf9b09f svgShape"/><path fill="#5e4434" d="M492.29,272.62a2.79,2.79,0,0,1-2.62,1.7,14.89,14.89,0,0,0-5.83,0,4,4,0,0,1,3.32-3.71C491.26,269.94,492.65,271.4,492.29,272.62Z" class="color34495e svgShape"/><path fill="#5e4434" d="M482.54,273.6a1.49,1.49,0,0,1,2.23-.89,2,2,0,0,1,.93,1.74c0,.36.17,4.16-.64,4.15-.09-.35-.69-1.29-.93-1.3-.53,0-.38,1.18.09,2.15a1.91,1.91,0,0,1,.15,1.06,6.18,6.18,0,0,1-.38,1.59,16.33,16.33,0,0,1-1-2.06c-.62-1.12-.32-2.16-.45-3.36A5.85,5.85,0,0,1,482.54,273.6Z" class="color34495e svgShape"/><path fill="#5e4434" d="M489.56,284.45c.77,0,1.76-2.22,1.5-4.39-.75-1.15-2.67-1.14-4.88,0l-.57-2.58-.55,1.14-.17,3.09a7.91,7.91,0,0,0,1.4,1.49A5.93,5.93,0,0,0,489.56,284.45Z" class="color34495e svgShape"/><path fill="#ffffff" d="M482.11,286.64l1.11,4.77,4.18-3.31-3.68-3.47Zm8.27,0-1.06-1.55-1.92,3,3.19,3.31Z" class="colorfff svgShape"/><path fill="url(#J)" d="M473.76,304.9A43.67,43.67,0,0,0,478,293c.41-2.09.57-6-3.08-4.17-4,2.15-8.71,10.95-9.45,18.4a8.86,8.86,0,0,0-.12,1.81c.14,2.36,1.07,5.71,4.6,5.71,4.32,0,10.37-4.21,13.25-6.6V304.3c-3.11,0-6.18,1.29-8.83,2.33C473.75,306.88,473.23,305.87,473.76,304.9Z"/><rect width="14.36" height="21.1" x="477.63" y="305.73" fill="#ffffff" rx=".88" class="colorfff svgShape"/><path fill="#f9c09f" d="M485.75,306.06c1-.14,2-.75.63-1.07-.67-.16-1.34-.41-2-.56-2.13-.48-5,.41-5,1.3,0,1.95.84,4,2.26,4.21a17.34,17.34,0,0,0,1.89.13.87.87,0,0,0,.88-1.11c-.27-1.06-.45-2.52-.21-2.62A6.77,6.77,0,0,1,485.75,306.06Z" class="colorf9b09f svgShape"/><path fill="#8b7e77" d="M489.84 313.9h-10a.25.25 0 010-.5h10a.25.25 0 110 .5zM489.84 315.77h-10a.25.25 0 01-.25-.25.25.25 0 01.25-.25h10a.25.25 0 01.25.25A.25.25 0 01489.84 315.77zM489.84 317.65h-10a.25.25 0 010-.5h10a.25.25 0 110 .5zM489.84 319.53h-10a.25.25 0 01-.25-.25.25.25 0 01.25-.25h10a.25.25 0 01.25.25A.25.25 0 01489.84 319.53zM487 321.4H482.6a.25.25 0 010-.5H487a.25.25 0 010 .5z" class="color77838b svgShape"/><polygon fill="#f9c09f" points="552.05 378.11 551.6 384.4 548.28 384.4 548.18 378.11 552.05 378.11" class="colorf9b09f svgShape"/><path fill="url(#h)" d="M544.24,386.83a4.94,4.94,0,0,0,3.5-3.67h4.36a24.09,24.09,0,0,1,.85,5.61h-2.59l-.54-1.38-1.16,1.38h-6.51C542.15,386.79,543.52,386.93,544.24,386.83Z"/><polygon fill="#f9c09f" points="523.62 377.73 521.84 383.48 525.85 383.48 528.25 377.73 523.62 377.73" class="colorf9b09f svgShape"/><path fill="url(#K)" d="M515.69,387c1.16-.16,5-1.73,5.51-3.89h5.18a25.23,25.23,0,0,1,.42,5.71h-2.64l-.55-1.4-2.15,1.4h-8.65C512.81,386.76,515,387,515.69,387Z"/><path fill="url(#L)" d="M534.59,355.86c4.34-10.32,14.12-26.59,10.66-35.25l-10.45.76c-5.58,8.71-7.15,25.62-8,33.45,0,0-2.31,16.87-4.58,25.49l4.92,1C531.31,373.22,535.41,364.23,534.59,355.86Z"/><path fill="url(#M)" d="M543.21,320.4l10-2.76c5.39,7.82,1,25.69-.78,36.65,2.74,6.22,1,17.33-.23,26.79h-4.24c-.15-1.58-1.89-16.85-3.36-26.24C543.56,347,539.82,330,543.21,320.4Z"/><path fill="url(#i)" d="M520.4,316.85c5-2,8.83-4.59,12.11-6.49-.75-11.64.64-16.29,1.84-19.27.6-1.49,2.69-2.08,4.65-.24,1.86,7.17-.23,20.35-2.52,23.71-3.23,3.5-11.3,5.22-15.87,5.36Z"/><path fill="url(#N)" d="M535.25,294.75c-.33-1.72-1.51-2.86-.62-4.36,1.26-2.13,5.8-5.52,10.59-5.57,6.31-.07,13,3.84,13.28,6.22.21,2-1,4.09-1.46,6.07-2.13,9.84-1.79,17.57-1,25.95H533.5C534.91,307.52,536.88,303,535.25,294.75Z"/><path fill="#f9c09f" d="M547.67,285.31a7.89,7.89,0,0,1-4.9.18,25.2,25.2,0,0,1,.33-4.25,2.57,2.57,0,0,1,.5-1.32,2.78,2.78,0,0,1,1.79-.73,3.33,3.33,0,0,1,1.8.07c.56.26.24,1.13.21,1.65A21.6,21.6,0,0,0,547.67,285.31Z" class="colorf9b09f svgShape"/><path fill="#5e4434" d="M540.14,278.69a4.53,4.53,0,0,0,.42-2.89,7.91,7.91,0,0,1,0-2.95,3.1,3.1,0,0,0,.19-.84c0-.86-1.29-.79-1.84-.53C537.79,272,537.26,275.49,540.14,278.69Z" class="color34495e svgShape"/><path fill="#f9c09f" d="M547.29,279a5.31,5.31,0,0,1-4.35,3.21,2.62,2.62,0,0,1-1.75-.44,3.6,3.6,0,0,1-1.13-1.78,16.38,16.38,0,0,1-.89-6.05,2.87,2.87,0,0,1,.45-1.68,2.72,2.72,0,0,1,1.84-.85,9.24,9.24,0,0,1,4.36.45,3.48,3.48,0,0,1,1.08.56,3.83,3.83,0,0,1,1,2.94A8,8,0,0,1,547.29,279Z" class="colorf9b09f svgShape"/><path fill="#5e4434" d="M539.7,269.72a3.76,3.76,0,0,1,1.44-.39l1.32-.1a4.4,4.4,0,0,1,1.66.09c1,.32,1.65,1.27,2.65,1.35.25,0,.5,0,.75,0a1,1,0,0,1,.58.16c.22.16.17.36.3.55.24.34.64.44.85.86a4.56,4.56,0,0,1,.28,2.78,13.68,13.68,0,0,1-.89,2.69c-.36.88-.8,1.76-1.16,2.64a6.78,6.78,0,0,0-.75-2c.73-.08,1.14-1.59.83-2.26-.63-1.4-.92.27-1.45.23-.18,0,.08-2.76-.51-3.38a1.66,1.66,0,0,0-1.29-.44,12.92,12.92,0,0,0-1.39.2,5.49,5.49,0,0,1-2.51-.23,2.69,2.69,0,0,1-1-.55,1.4,1.4,0,0,1-.49-1A1.5,1.5,0,0,1,539.7,269.72Z" class="color34495e svgShape"/><path fill="#ffffff" d="M542.77,284.11h4.73c.1.09,1,1.2,1,1.69s-2.43,2.59-2.78,2.39a23.67,23.67,0,0,1-1.41-2.13,14.07,14.07,0,0,1-2.42,2.06C540.75,287.24,542.69,284.2,542.77,284.11Z" class="colorfff svgShape"/><path fill="url(#O)" d="M552.42,321.52a95.4,95.4,0,0,0,8.29-11.89c-6.52-9.61-7-12-7.23-15.18-.16-2.08.27-6.37,4.08-5.14,4.93,5.53,9.11,18.21,8.6,22.24-1.27,4.59-7,9.79-11,12-.75.42-3.63,1.9-4.38.65C550.31,323.37,551.94,322.07,552.42,321.52Z"/><path fill="#f9c09f" d="M549.91 325.41c-.81 0-1.54.68-2.2 0 .58-.4 3.8-3 4-2.39a1.76 1.76 0 011.08 1.23 12.7 12.7 0 01-.14 1.85 10.19 10.19 0 01-.38 1.92l-3.12-1.15A3 3 0 00549.91 325.41zM520.71 320c-.74.49-3.29 2.31-6.08 2.05a13 13 0 01-2.57-2.19c-.15-.36.14-.49.43-.6.62-.24 4-1.73 3.93-2.16s-2.75-.3-2.28-1.37c.49.13 1.9.18 2.45.27.9.15 1.8.33 2.7.52C522.17 317.06 522.38 318.82 520.71 320z" class="colorf9b09f svgShape"/><path d="M281.13,356.17a18.67,18.67,0,0,0,18.64-19.7l-3.72-67.32a166.21,166.21,0,0,1,1.64-34.31l10.13-66.61a23.67,23.67,0,0,0-2.81-10c-4.94-9.15-15.58-13.67-25.75-11.52l-54.84,10.5-54.85-10.5c-10.17-2.15-20.81,2.37-25.74,11.52a23.71,23.71,0,0,0-2.81,10l10.13,66.61a166.91,166.91,0,0,1,1.64,34.31L149.1,336c-.55,9.9,6.52,19,16.37,20.16Z" style="mix-blend-mode:multiply" fill="url(#P)"/><path fill="#ffffff" d="M320.29,206.18l10.76-70.77a25.15,25.15,0,0,0-3-10.61c-5.24-9.72-16.54-14.52-27.35-12.24l-52.95,11.15-52.95-11.15c-10.8-2.28-22.11,2.52-27.35,12.25a25.25,25.25,0,0,0-3,10.6l10.76,70.77A177,177,0,0,1,177,242.62l-3.93,71c-.58,10.52,6.93,20,17.39,21.27a19.81,19.81,0,0,0,21-12.91L236.93,252a11.53,11.53,0,0,1,21.67,0L284.06,322a19.83,19.83,0,0,0,38.43-7.87l-3.95-71.51A177,177,0,0,1,320.29,206.18Z" class="colorfff svgShape"/><path fill="url(#j)" d="M257.4,126.06l24.47,5a16,16,0,0,0,16.39-6.67c2-3-3.19-4.38-6.67-3.64Z"/><path fill="url(#Q)" d="M245.51,227.23c-21.93,0-31-34.56-44.38-59.32-8.7-16.1-33.73-13.3-36.65-32.5l10.57,69.52.19,1.25c0,.11,0,.22,0,.34a178,178,0,0,1,1.7,36.1l-3.93,71c-.58,10.47,6.85,19.92,17.22,21.25-6-.85-9.39-9.12-7.5-16.34a327.44,327.44,0,0,0,7.7-67.25,20.9,20.9,0,0,1,22.75-20.82A87.57,87.57,0,0,0,245.51,227.23Z"/><path fill="#ffffff" d="M175.4,313.64l3.92-71a176.52,176.52,0,0,0-1.7-36.1c0-.12,0-.23,0-.34l-.19-1.25-9.26-60.87a18,18,0,0,1-3.65-8.65l10.57,69.52.19,1.25c0,.11,0,.22,0,.34a178,178,0,0,1,1.7,36.1l-3.93,71c-.58,10.47,6.85,19.92,17.22,21.25a7.67,7.67,0,0,1-4.17-2.08A20.44,20.44,0,0,1,175.4,313.64Z" class="colorfff svgShape"/><path fill="url(#R)" d="M285,269.17a38,38,0,0,0-35.6-24.7A11.27,11.27,0,0,1,258.6,252L284.06,322a19.79,19.79,0,0,0,30.34,9.21C304.39,330.43,294.43,294.65,285,269.17Z"/><path fill="#ffffff" d="M305,333.89a19.84,19.84,0,0,1-18.64-13.06l-25.46-70a11.3,11.3,0,0,0-4.31-5.59,37.82,37.82,0,0,0-7.24-.72A11.27,11.27,0,0,1,258.6,252L284.06,322a19.82,19.82,0,0,0,18.63,13.06,19.62,19.62,0,0,0,9.92-2.69A19.68,19.68,0,0,1,305,333.89Z" class="colorfff svgShape"/><rect width="41.85" height="57.43" x="116.01" y="306.52" fill="url(#S)" rx="5.17"/><rect width="47.18" height="15.86" x="113.34" y="302.19" fill="#ffffff" rx="2.55" class="colorfff svgShape"/><rect width="28.58" height="18.12" x="122.64" y="329.18" fill="url(#T)"/><path fill="#ffffff" d="M146.1 334.74H127.77a.26.26 0 01-.25-.25.25.25 0 01.25-.25H146.1a.25.25 0 01.25.25A.25.25 0 01146.1 334.74zM146.1 336.61H127.77a.25.25 0 110-.5H146.1a.25.25 0 110 .5zM146.1 338.49H127.77a.25.25 0 110-.5H146.1a.25.25 0 110 .5zM146.1 340.36H127.77a.25.25 0 01-.25-.25.26.26 0 01.25-.25H146.1a.25.25 0 01.25.25A.25.25 0 01146.1 340.36zM141 342.24h-8.09a.25.25 0 010-.5H141a.25.25 0 110 .5z" class="colorfff svgShape"/><path d="M113.34,305.25V315.5a2.55,2.55,0,0,0,2.55,2.55H116v40.74a5.17,5.17,0,0,0,5.17,5.16H136v-58.7Z" style="mix-blend-mode:multiply" fill="url(#k)" opacity=".5"/><path fill="#ffffff" d="M277.45,349.3a5.38,5.38,0,1,1-5.38-5.37A5.38,5.38,0,0,1,277.45,349.3Z" class="colorfff svgShape"/><path fill="url(#U)" d="M266.69,349.3a5.36,5.36,0,0,0,.05.7H277.4c0-.23.05-.46.05-.7s0-.46-.05-.69H266.74A5.34,5.34,0,0,0,266.69,349.3Z"/><path fill="#ffffff" d="M286.75,362.47a5.38,5.38,0,1,1,.19-7.6A5.37,5.37,0,0,1,286.75,362.47Z" class="colorfff svgShape"/><path fill="url(#V)" d="M279.33,354.68a5.53,5.53,0,0,0-.46.52l7.34,7.71a4.51,4.51,0,0,0,.54-.44,5.66,5.66,0,0,0,.47-.52l-7.35-7.71A7,7,0,0,0,279.33,354.68Z"/><path fill="#ffffff" d="M272.05,345.27a5.38,5.38,0,1,1,.18-7.61A5.38,5.38,0,0,1,272.05,345.27Z" class="colorfff svgShape"/><path fill="url(#W)" d="M264.63,337.48a4.6,4.6,0,0,0-.47.52l7.35,7.71c.18-.14.37-.28.54-.44s.32-.34.47-.52L265.17,337A4.51,4.51,0,0,0,264.63,337.48Z"/><path fill="#ffffff" d="M289.38,343.48a5.38,5.38,0,1,1-7.28-2.19A5.36,5.36,0,0,1,289.38,343.48Z" class="colorfff svgShape"/><path fill="url(#X)" d="M279.91,348.57a5.87,5.87,0,0,0,.37.59l9.39-5a4.06,4.06,0,0,0-.29-.64,5.87,5.87,0,0,0-.37-.59l-9.38,5A5.17,5.17,0,0,0,279.91,348.57Z"/><path fill="#ffffff" d="M300.33,356.49A5.37,5.37,0,1,1,299,349,5.38,5.38,0,0,1,300.33,356.49Z" class="colorfff svgShape"/><path fill="url(#Y)" d="M291.52,350.34a4.05,4.05,0,0,0-.36.59l8.73,6.11a3.93,3.93,0,0,0,.44-.55,4.54,4.54,0,0,0,.36-.6l-8.73-6.1A3.93,3.93,0,0,0,291.52,350.34Z"/><path fill="#ffffff" d="M313.85,355.79a5.38,5.38,0,1,1-7.39-1.81A5.37,5.37,0,0,1,313.85,355.79Z" class="colorfff svgShape"/><path fill="url(#Z)" d="M304.65,361.36a5.89,5.89,0,0,0,.41.57l9.11-5.52c-.1-.21-.2-.42-.32-.62a5.81,5.81,0,0,0-.4-.57l-9.12,5.52C304.43,361,304.53,361.16,304.65,361.36Z"/><path fill="url(#l)" d="M238.86,323.9H202.43a5,5,0,0,0-5,5V359a5,5,0,0,0,5,4.94h36.43a11.41,11.41,0,0,0,7.14-2.5l8.85-7.07V333.47L246,326.41A11.42,11.42,0,0,0,238.86,323.9Z"/><path d="M244.81,327.9a9.59,9.59,0,0,0-5.95-2.08H202.43a3,3,0,0,0-3,3v4.78a3,3,0,0,1,3-3h36.43a9.54,9.54,0,0,1,5.95,2.09l8.13,6.49v-4.79Z" style="mix-blend-mode:screen" fill="url(#aa)" opacity=".5"/><path d="M199.4,344.79V359a3,3,0,0,0,3,3h36.43a9.54,9.54,0,0,0,5.95-2.09l8.13-6.49v-8.67Z" style="mix-blend-mode:multiply" fill="url(#ab)" opacity=".5"/><rect width="27.85" height="13.49" x="247.67" y="337.18" fill="url(#ac)" rx="2.8" transform="rotate(90 261.595 343.925)"/><path fill="#ffffff" d="M266.42,332.81a.88.88,0,0,0-.88-.89h-7.89a.89.89,0,0,0-.88.89v2.64h9.65Z" class="colorfff svgShape"/><path fill="url(#ad)" d="M135.55,240.76l-14.28-14.28a12.81,12.81,0,0,1,18.11-18.12l14.28,14.28Z"/><path fill="#ffffff" d="M135.55,240.76,149.83,255a12.81,12.81,0,0,0,18.11-18.12l-14.28-14.28Z" class="colorfff svgShape"/><path d="M123.91,211a11.36,11.36,0,0,0,0,16.06l25.32,25.32a11.36,11.36,0,0,0,16.06,0Z" style="mix-blend-mode:multiply" fill="url(#ae)" opacity=".5"/><path fill="url(#af)" d="M189.38,183.7,179,194.11a9.33,9.33,0,0,1-13.2-13.2l10.4-10.4Z"/><path fill="#ffffff" d="M189.38,183.7l10.41-10.4a9.33,9.33,0,1,0-13.2-13.2l-10.41,10.41Z" class="colorfff svgShape"/><path d="M167.71,192.18a8.27,8.27,0,0,0,11.7,0l18.45-18.45a8.27,8.27,0,0,0,0-11.7Z" style="mix-blend-mode:multiply" fill="url(#ag)" opacity=".5"/><path fill="url(#ah)" d="M100.51,105.71l10.41,10.4a9.33,9.33,0,0,0,13.19-13.19l-10.4-10.41Z"/><path fill="#ffffff" d="M100.51,105.71,90.11,95.3a9.33,9.33,0,0,1,13.2-13.19l10.4,10.4Z" class="colorfff svgShape"/><path d="M122.18,114.18a8.26,8.26,0,0,1-11.69,0L92,95.74A8.27,8.27,0,0,1,92,84Z" style="mix-blend-mode:multiply" fill="url(#ai)" opacity=".5"/><rect width="66.85" height="44.56" x="38.14" y="147.9" fill="url(#aj)" rx="3.91" transform="rotate(-45 71.564 170.187)"/><rect width="66.85" height="44.56" x="38.14" y="146.49" fill="url(#ak)" rx="3.91" transform="rotate(-45 71.569 168.775)"/><circle cx="50.97" cy="176.77" r="6.25" fill="url(#al)"/><path fill="url(#am)" d="M54,170.94a6.25,6.25,0,1,1-8.84,0A6.25,6.25,0,0,1,54,170.94Z"/><path fill="url(#an)" d="M69.69,158.06a6.25,6.25,0,1,1-8.84,0A6.25,6.25,0,0,1,69.69,158.06Z"/><path fill="url(#ao)" d="M68.27,156.64a6.25,6.25,0,1,1-8.84,0A6.25,6.25,0,0,1,68.27,156.64Z"/><path fill="url(#ap)" d="M84,143.76a6.25,6.25,0,1,1-8.84,0A6.25,6.25,0,0,1,84,143.76Z"/><path fill="url(#aq)" d="M82.57,142.34a6.25,6.25,0,1,1-8.84,0A6.25,6.25,0,0,1,82.57,142.34Z"/><circle cx="65.81" cy="191.62" r="6.25" fill="url(#ar)"/><path fill="url(#as)" d="M68.82,185.78a6.25,6.25,0,1,1-8.84,0A6.25,6.25,0,0,1,68.82,185.78Z"/><path fill="url(#at)" d="M84.53,172.9a6.25,6.25,0,1,1-8.84,0A6.25,6.25,0,0,1,84.53,172.9Z"/><path fill="url(#au)" d="M83.12,171.49a6.25,6.25,0,1,1-8.84,0A6.25,6.25,0,0,1,83.12,171.49Z"/><path fill="url(#av)" d="M98.83,158.6a6.25,6.25,0,1,1-8.84,0A6.25,6.25,0,0,1,98.83,158.6Z"/><path fill="url(#aw)" d="M97.42,157.19a6.25,6.25,0,1,1-8.84,0A6.25,6.25,0,0,1,97.42,157.19Z"/><path fill="url(#ax)" d="M89.52,152.15,54.94,186.72a.94.94,0,0,1-1.33-1.32l34.58-34.58a.94.94,0,0,1,1.33,0A1,1,0,0,1,89.52,152.15Z"/></g></svg>