<svg xmlns="http://www.w3.org/2000/svg" viewBox="0 0 800 600"><g data-name="Layer 55"><ellipse cx="396.29" cy="548.25" fill="#a1a1a1" opacity=".29" rx="151.64" ry="7.83" class="colora1a1a1 svgShape"/><polygon fill="#feb58a" points="723.09 371.28 745.09 556.08 592.17 556.08 619.97 363.02 723.09 371.28" class="colorfea38a svgShape"/><polygon fill="#ec9d6f" points="592.17 556.08 612.91 556.08 618.92 370.32 592.17 556.08" class="colorec856f svgShape"/><path fill="#ffbf66" d="M441.61,137.24l5.28-11.86,167.49,98.37-47.74,49.7-115-94.63A35.1,35.1,0,0,1,441.61,137.24Z" class="colore07563 svgShape"/><path fill="#ec9d6f" d="M429.58,98.84,434.86,87l167.49,98.38L554.61,235l-115-94.63A35.08,35.08,0,0,1,429.58,98.84Z" class="colorec856f svgShape"/><path fill="#feb58a" d="M723.1,371.27,657.52,395l-90.68-31.62-14.09-68.84-6.73-33-15.17-74.17a15.79,15.79,0,0,0-5.58-9.14L424.5,96.58A35.86,35.86,0,0,1,414.3,54.1a32.28,32.28,0,0,1,3.16-5.84,14.71,14.71,0,0,1,2.21-2.45,7.89,7.89,0,0,1,2.84-1.87c1.08-.19,2.92,1.39,3.84,1.92l3.88,2.29.58.34,29.13,17.1,133.23,78.27a41,41,0,0,1,13.18,12.37L691.87,282.7Z" class="colorfea38a svgShape"/><path fill="#ec9d6f" d="M606,286.92l.24.23a2.38,2.38,0,0,0-.22-.27.5.5,0,0,0-.11-.1Z" class="colorec856f svgShape"/><path fill="#ec9d6f" d="M627.16,304.27c-11.59-34.1-62.38-40.65-86.42-68.56l3.7,31.84-8.11-.7C554.42,272,613.76,291,627.16,304.27Z" class="colorec856f svgShape"/><path fill="#feb58a" d="M512.45,290.37l-48.18-57.29a26.57,26.57,0,0,1,3.23-37.44l1.37-1.15a26.57,26.57,0,0,1,37.43,3.24L554.48,255c9.45,11.23,29.16,21.6,42.55,27.63C616,291.17,627.5,296.38,645,317.13c37.56,44.67,51,96.17,27,116.33s-76.25,1.35-113.82-43.32c-17.44-20.74-20.6-33-25.75-53.12C528.73,322.8,521.89,301.6,512.45,290.37Z" class="colorfea38a svgShape"/><path fill="#ffd0b5" d="M470.37 228a18.62 18.62 0 012.26-26.21l1.36-1.15a18.64 18.64 0 0126.22 2.27l3.93 4.68L474.3 232.63zM459.94 65.59a136.17 136.17 0 00-16.51 19.46c-7-4.84-13.07-11.46-15.21-19.67a21.61 21.61 0 012.59-16.89z" class="colorffc1b5 svgShape"/><polygon fill="#feb58a" points="76.91 371.28 54.91 556.08 207.83 556.08 180.03 363.02 76.91 371.28" class="colorfea38a svgShape"/><polygon fill="#ec9d6f" points="207.83 556.08 187.09 556.08 181.08 370.32 207.83 556.08" class="colorec856f svgShape"/><path fill="#ffbf66" d="M358.39,137.24l-5.28-11.86L185.62,223.75l47.74,49.7,115.05-94.63A35.1,35.1,0,0,0,358.39,137.24Z" class="colore07563 svgShape"/><path fill="#ec9d6f" d="M370.42,98.84,365.14,87,197.65,185.35,245.39,235l115.05-94.63A35.08,35.08,0,0,0,370.42,98.84Z" class="colorec856f svgShape"/><path fill="#feb58a" d="M76.9,371.27,142.48,395l90.68-31.62,14.09-68.84,6.73-33,15.17-74.17a15.79,15.79,0,0,1,5.58-9.14L375.5,96.58A35.86,35.86,0,0,0,385.7,54.1a32.28,32.28,0,0,0-3.16-5.84,14.71,14.71,0,0,0-2.21-2.45,7.89,7.89,0,0,0-2.84-1.87c-1.08-.19-2.92,1.39-3.84,1.92l-3.88,2.29-.58.34-29.13,17.1L206.83,143.86a41,41,0,0,0-13.18,12.37L108.13,282.7Z" class="colorfea38a svgShape"/><path fill="#ec9d6f" d="M194,286.92l-.24.23a2.38,2.38,0,0,1,.22-.27.5.5,0,0,1,.11-.1Z" class="colorec856f svgShape"/><path fill="#ec9d6f" d="M172.84,304.27c11.59-34.1,62.38-40.65,86.42-68.56l-3.7,31.84,8.11-.7C245.58,272,186.24,291,172.84,304.27Z" class="colorec856f svgShape"/><path fill="#feb58a" d="M287.55,290.37l48.18-57.29a26.57,26.57,0,0,0-3.23-37.44l-1.37-1.15a26.57,26.57,0,0,0-37.43,3.24L245.52,255c-9.45,11.23-29.16,21.6-42.55,27.63-18.92,8.52-30.47,13.73-47.92,34.48-37.56,44.67-51,96.17-27,116.33s76.25,1.35,113.82-43.32c17.44-20.74,20.6-33,25.75-53.12C271.27,322.8,278.11,301.6,287.55,290.37Z" class="colorfea38a svgShape"/><path fill="#ffd0b5" d="M329.63 228a18.62 18.62 0 00-2.26-26.21L326 200.59a18.64 18.64 0 00-26.22 2.27l-3.93 4.68 29.84 25.09zM340.06 65.59a136.17 136.17 0 0116.51 19.46c7-4.84 13.07-11.46 15.21-19.67a21.61 21.61 0 00-2.59-16.89z" class="colorffc1b5 svgShape"/><polygon fill="#f2ae86" points="413.81 336.07 452.37 403.07 445.83 407.33 403.16 348.23 413.81 336.07" class="colorf29886 svgShape"/><path fill="#de5300" d="M404.5,322.23s12.12-2,26.88,33.52L409.5,366.67Z" class="colordea200 svgShape"/><path fill="#ffb58a" d="M405.84,410.8a7.2,7.2,0,0,1-2,4,4.7,4.7,0,0,1-4.34,1.19,4.58,4.58,0,0,1-3-3.18,7.82,7.82,0,0,1,.2-4.44,8.25,8.25,0,0,1,2.31-3.85,5,5,0,0,1,4.3-1.23C406.61,404.11,406.31,408.26,405.84,410.8Z" class="colorfaab96 svgShape"/><path fill="#fc7324" d="M426.82 338.22s-22.21 50.11-27.47 65.51l7.12 3.44s31.35-49 33.17-54.79l-2.83-14.16zM490.16 444.07l-22.11 1.15c.23-6 1.94-11.8 3.64-17.56 1.41-4.8 2.86-9.68 5.64-13.89 1.25-1.88 4.32-5.77 6.78-3.73 2 1.68 1.85 8.2 2.24 10.61C486.67 422.64 489.79 444.08 490.16 444.07z" class="color24affc svgShape"/><path fill="#b24100" d="M494.93,414.3c-5.72,12.34-13.89,8.83-17.38,29.76-1.45.49-4.86,3.6-5.61,2.31-1.85-3.17-3.34-7.4-6.63-9.34a24.86,24.86,0,0,0-10.31-3c-3.14-.31-6.47-.21-9.19,1.34-4,2.29-5.75,7.19-9.51,9.89a3.61,3.61,0,0,1-2.16.82c-4.15-.21-3.78-13.87-3.65-16.56a68.09,68.09,0,0,1,3.84-18.95l34.73-2.71c7.06-.55,15.14-.76,20.06,4.17Z" class="color2300b2 svgShape"/><path fill="#f4752a" d="M477.29 327.5c.32.4.73.73 1.08 1.1 2.78 3 1.76 8.6-1 11.27a10.18 10.18 0 01-7.81 2.56c-5.08-.39-9.26-5.52-7.16-10.37a10 10 0 012.63-3.43 5 5 0 001.61-3 16.07 16.07 0 013-5.77c.57-.7 1.13-1.5 1.76-2.14s2.31-1.51 2.7-2.35a3.32 3.32 0 00-.09 2.71c.66 1.59 2.65 2.46 3.06 4.12s-.82 3.34-.1 4.81A2.51 2.51 0 00477.29 327.5zM468.49 304.77a12.5 12.5 0 00-7.18-8.37 19.46 19.46 0 00-11.4-1.14 18.43 18.43 0 00-6.85 2.59c-4.94 3.27-7.18 9.18-8.58 14.82a3.39 3.39 0 000 2.43 3.2 3.2 0 001.1 1 21.22 21.22 0 0013 3.06 40.51 40.51 0 0013.12-3.5c2-.83 4-1.88 4.92-3.75z" class="colorf4722a svgShape"/><path fill="#f4752a" d="M469.13,310c.5,12.34-1,14.11-2.22,22.51C463.5,332,457.76,331,454.3,331c-1.14-5,1.29-10.14,4-14.6s5.72-9,6-14.16a6.08,6.08,0,0,1,3.21,5.46Z" class="colorf4722a svgShape"/><rect width="10.07" height="13.72" x="447.34" y="314.92" fill="#ffb58a" class="colorfaab96 svgShape"/><path fill="#ffb58a" d="M440.21,526.29c-1.07,5.56-1.82,9-2.09,9.29-1.63,1.57-4.66.48-4.66.48l-.47-9Z" class="colorfaab96 svgShape"/><path fill="#b24100" d="M425.46,437.15l31.33-11.42s-9.62,73.07-15,101.3H431.65Z" class="color2300b2 svgShape"/><path fill="#ffa46f" d="M433.3,534.17a43.35,43.35,0,0,0-1.16,5.76c0,1.31,20.8,4,20.85,3.71.55-3-14.25-10.69-14.25-10.69Z" class="colorff6fc9 svgShape"/><path fill="#ffb58a" d="M471,535.48c-1.63,1.58-4.66.5-4.66.5l-.8-7.84,6.72-.42C471.72,532.35,471.28,535.23,471,535.48Z" class="colorfaab96 svgShape"/><path fill="#b24100" d="M479,430.91s-2.37,72.53-5.3,96.81l-9.6.42L453,428.19Z" class="color2300b2 svgShape"/><path fill="#ffa46f" d="M466.19,534.09a44,44,0,0,0-1.14,5.76c0,1.31,20.82,3.9,20.87,3.63.53-3-14.29-10.63-14.29-10.63Z" class="colorff6fc9 svgShape"/><polygon fill="#fc7324" points="459.06 345.12 459.1 345.07 459.13 345.14 459.06 345.12" class="color24affc svgShape"/><path fill="#ffb58a" d="M426.82 338.22a19.37 19.37 0 014-4.56c5.11-4 11.61-5.82 18.06-6.43a42.09 42.09 0 019.17-.3 12.73 12.73 0 016.72 2.71 7.14 7.14 0 012 2.93c.51 1.42-.11 2.82-.84 4.1-.53.95-6.44 8.56-6.94 8.45zM467.75 305.46c1.25 3.76.89 7.77.18 11.62-.41 2.19-1.12 4.51-2.93 5.9s-4.09 1.51-6.28 1.35a20.88 20.88 0 01-11.17-4.11 16 16 0 01-6.09-9.84c-.69-4.13 1.88-6.4 5.07-8.63a33.84 33.84 0 0110.82-4.89l.84-.2c1.92-.42 2.84-.74 4.32.31s2.8 3.3 3.66 4.88A14.79 14.79 0 01467.75 305.46z" class="colorfaab96 svgShape"/><path fill="#f6823e" d="M433.5,345.42c-.68-3.4-2.07-6.54-5.08-8.21L439,331.34c.12-.06,3,1.71,3.36,1.87a14.1,14.1,0,0,0,3.32.85,42.53,42.53,0,0,0,7.62,1.26,25.57,25.57,0,0,0,7.43-1,24.47,24.47,0,0,0,3.64-1.36c.87-.41,2.15-1.61,3.09-.82.69.59.26,1.3.15,2-.17,1.08-.26,2.17-.35,3.25a61.33,61.33,0,0,0-.19,6.36c.06,2.74,1.06,4.71,2.38,7.06,1.49,2.68,4.13,4.79,5.55,7.43a29.44,29.44,0,0,0,3.91,5.65c6.22,6.94,12,14.4,15.5,23s4.37,18.38.77,26.88c-.44,1-.95,2.06-1.49,3.06-21.42,5.89-41.67,3.58-62.89,1.27,1.31-6.44-.22-5.68.89-12.16a260.28,260.28,0,0,0,3.46-28.37c.55-8.87-.48-17.87-1-26.76A39.37,39.37,0,0,0,433.5,345.42Z" class="colorf63e9f svgShape"/><path fill="#d86c2e" d="M438.05,331.87l-9.63,5.34c3,1.67,4.4,4.81,5.08,8.21a39.37,39.37,0,0,1,.63,5.35c.54,8.89,1.57,17.89,1,26.76a260.28,260.28,0,0,1-3.46,28.37c-1.11,6.48.42,5.72-.89,12.16,6.91.75,16.64,2,23.42,2.45C458.12,390.47,454.7,357.37,438.05,331.87Z" class="colord82e8f svgShape"/><path fill="#f4752a" d="M467.56,318.39a18.69,18.69,0,0,1-1,2.79c-.39.86-1.09,1.67-1.42,2.52-.54,1.35.51,3.07,1.73,3.74a6.29,6.29,0,0,0,2,.6,18.67,18.67,0,0,0,4.29.22c1.4-.1,1.71-.41,2-1.63a5.77,5.77,0,0,0-.11-3.95c-.7-1.57-2.08-3.13-1.68-4.93.22-1,.75-1.93.94-2.94a6.12,6.12,0,0,0-.48-3.42,21.3,21.3,0,0,0-3-4.46,41.81,41.81,0,0,1-3.3-5.43c-1.84-3.57-5.42-6.39-9.49-5.42-.24.05-.35.72-.64.79,4.62,1.57,6.88,5.5,8,7A17,17,0,0,1,467.56,318.39Z" class="colorf4722a svgShape"/><path fill="#fc7324" d="M447.37,352.74c1.9,7.94,3.79,15.91,4.48,24,.77,9.06,0,18.18-.92,27.23q-2.1,20.19-5.44,40.23-13.47.35-26.93-.28c3.42-9.18,4.65-19,6.35-28.59,2.24-12.59,5.33-25.08,6.45-37.81s.16-25.94-5.4-37.54a2.75,2.75,0,0,1-.4-2,2.79,2.79,0,0,1,1-1.17c5.07-4.11,9.57-8.53,14.33-1.71C444.47,340.27,446,346.77,447.37,352.74Z" class="color24affc svgShape"/><path fill="#f4752a" d="M421.62,341.16a5.5,5.5,0,0,0-.53,1.34c-.67,2.65,1.26,5.5,3.91,6.46a9.36,9.36,0,0,0,8.05-1.22,19,19,0,0,0,5.57-6.07c1.07-1.7,2.09-3.43,3.1-5.16.82-1.38,1.26-3.4,2.23-4.62.62-.83,1.84-1.18,2.59-1.93,2.66-2.74.66-6.57,1.06-9.76.15-1.28.3-2.56.47-3.83a15,15,0,0,1,.43-3.14,12.1,12.1,0,0,1,3.81-5.43c1.76-1.43,3.92-2.37,5.55-3.94a8.85,8.85,0,0,0,2.81-6.29c-.11-2.18-4.77-1.25-6.14-.86-1.13.33-2,1.05-3.08,1.44-1.37.5-2.92.12-4.35.15a12.92,12.92,0,0,0-4.77.91,12.5,12.5,0,0,0-5.34,4.66,18.37,18.37,0,0,0-3,6.44,63.65,63.65,0,0,1-1.39,7,14.29,14.29,0,0,1-1.18,2.39,3.43,3.43,0,0,0-1.18,2.31c-.11,1.14-.07,2.36-.82,3.27-2.43,2.6-5.26,1.43-4.86,6.23a13.79,13.79,0,0,1,.1,4.66C424.13,338,422.54,339.46,421.62,341.16Z" class="colorf4722a svgShape"/><path fill="#d65409" d="M475.29,348.68c.39,2.42.64,4.87,1.12,7.27.25,1.26.3,5.47,1.15,6.29a33.06,33.06,0,0,1-9.35-18c-1-5.68-.62-12.83-6.19-16.54,3.85,2.57,6.84,3.33,9.21,7.59S474.56,344.09,475.29,348.68Z" class="color0997d6 svgShape"/><path fill="#f6823e" d="M468.25,336.09l3.93,4.91c1.85,2.31,4.12,4.28,5.57,6.88,1.32,2.38,1.78,5.38.49,7.77a7,7,0,0,1-5.06,3.43,8,8,0,0,1-6-1.53c.52-.92-.87-2-1.35-2.84-1.23-2.06-.62-4.09-1-6.3a32.9,32.9,0,0,1-.47-5.87,20.66,20.66,0,0,1,0-4.16,27.47,27.47,0,0,1,1.56-5.22Z" class="colorf63e9f svgShape"/><path fill="#ffb58a" d="M295.25,516.46c.39,2.4,2,30.71,2,30.71l6.4,0,4.24-27.82Z" class="colorfaab96 svgShape"/><path fill="#ff6103" d="M311.76,553.15c-2.44.74-14.94-1.54-14.94-1.54a8.81,8.81,0,0,1,.46-4.45l6.5-.82s.43.19,1.05.52c.2.11.46.22.71.36s.82.44,1.31.68h0c.2.11.42.25.65.36.45.22.91.47,1.33.71l.66.39a7.43,7.43,0,0,1,2.24,1.68A2.76,2.76,0,0,1,311.76,553.15Z" class="colore45919 svgShape"/><path fill="#f79307" d="M296.73,550.49a7.39,7.39,0,0,0,.1,1.12s12.5,2.27,14.94,1.54c0,0,.21-.53.15-.53C302.15,552.16,296.73,550.49,296.73,550.49Z" class="colorf7c107 svgShape"/><path fill="#ffb58a" d="M316.07,513.33c.76,2.32,7.55,32.65,7.55,32.65l6.33-1-.9-30.69Z" class="colorfaab96 svgShape"/><path fill="#ff6103" d="M338.24,550.43c-2.39.9-15-.58-15-.58a8.84,8.84,0,0,1,.14-4.47l6.44-1.24s.44.17,1.08.46l.74.31c.41.16.85.38,1.35.6h0c.2.09.44.22.67.31.47.19.94.41,1.38.63l.68.34a7.26,7.26,0,0,1,2.35,1.53A2.75,2.75,0,0,1,338.24,550.43Z" class="colore45919 svgShape"/><path fill="#f79307" d="M323.06,548.74a7.48,7.48,0,0,0,.17,1.11s12.63,1.47,15,.58c0,0,.17-.54.11-.54C328.58,550.06,323.06,548.74,323.06,548.74Z" class="colorf7c107 svgShape"/><path fill="#772c00" d="M371.73 542.92a10.27 10.27 0 00-1.49 3.57c-.64 3 .77 3.51 3.47 4.06a142.74 142.74 0 0021.8 2.72 1.71 1.71 0 001.51-.42c1.62-2.14-4.94-6.1-6.24-7-3-2.05-6.4-4-10.09-4.42C373.43 540.55 371.74 542.91 371.73 542.92zM416.91 537.3a9.84 9.84 0 00-1.44 3.44c-.62 2.9.74 3.39 3.35 3.92a140.09 140.09 0 0021 2.62 1.67 1.67 0 001.46-.4c1.56-2.07-4.76-5.89-6-6.75-2.88-2-6.17-3.83-9.73-4.26C418.54 535 416.92 537.29 416.91 537.3z" class="color150077 svgShape"/><polygon fill="#f4752a" points="425.74 400.77 429.4 536.72 415.36 539.13 402.03 438.86 386.67 542.44 370.07 546.46 370.28 400.77 425.74 400.77" class="colorf4722a svgShape"/><polygon fill="#e5691f" points="370.28 400.77 370.07 546.46 373.75 545.57 375.98 400.77 370.28 400.77" class="colore5611f svgShape"/><path fill="#f2ae86" d="M344.83,409.46c0-20.54,3.39-41.94,9.87-57.34L368,365.85c-8.17,12.45-14.65,26.59-15.73,43Z" class="colorf29886 svgShape"/><path fill="#f79307" d="M426.57,374.76c.26,8.5,1.2,24,1.2,35.21l-58,.88c-.33-16.15-.56-26,2.33-48.5,0,0,0,0,0,.07-1,1.39,0-.07-3,4.39-5-4.18-19.11-10.22-19.11-10.22,5.12-22.6,14.61-38,45.4-39.44l0,.77C414.61,315.79,426.09,343.14,426.57,374.76Z" class="colorf7c107 svgShape"/><path fill="#e25907" d="M380.09 319.39c-18.94 5.24-26 18.87-30.13 37.2 0 0 .87.37 2.25 1C356.34 341.9 365.69 327.51 380.09 319.39zM373.63 361a17.94 17.94 0 01-1.64 2.2c-2.77 21.92-2.54 31.68-2.22 47.62l4.15-.06C373 394.2 372.43 377.62 373.63 361z" class="colore2a807 svgShape"/><path fill="#f2ae86" d="M352.27,408.85a10.07,10.07,0,0,0,.55,4.19,5.2,5.2,0,0,1-.31,4.12c-.58.85-1.57,1.38-2.16,2.21a22.11,22.11,0,0,0-1.26,3.06c-.51,1-1.78,1.82-2.75,1.24a2.61,2.61,0,0,1-.89-1.22c-1.23-2.66-2.47-5.38-2.68-8.28s.82-6.07,3.31-7.69Z" class="colorf29886 svgShape"/><path fill="#f6823e" d="M295.45,487.89a99.56,99.56,0,0,0-2.27,34.52c4.32,1,16.92-.29,16.92-.29s2.17-12,3.53-15.73c1.46,5.31,2.39,10.6,3.86,15.91a71.06,71.06,0,0,0,14.46,0,140,140,0,0,0-5.78-38.71Z" class="colorf63e9f svgShape"/><path fill="#ffb58a" d="M344.84,416.85a39.52,39.52,0,0,1-13,19.27,41.55,41.55,0,0,1-10,6c-3.18,1.36-6.35,3.45-5.14,7.43,3.27,10.81,17.85-4,21.08-7.83a48,48,0,0,0,7.39-11.83c.48-1.11,3.4-12.51,3.4-12.51A5.93,5.93,0,0,1,344.84,416.85Z" class="colorfaab96 svgShape"/><path fill="#ffb58a" d="M344.65,418.09a7,7,0,0,1-1.19-2.8,2.78,2.78,0,0,1,.31-1.57c.16-.29.64-.88.91-.28.16.37-.05.8.34,1,.36-.4.18-1,.33-1.54a1.6,1.6,0,0,1,1-1.09,2.47,2.47,0,0,1,1.74.35,2.62,2.62,0,0,1,.85.56c.83.92.26,3.34-.19,4.32s-.66,1.95-1.67,2.63Z" class="colorfaab96 svgShape"/><path fill="#b24100" d="M313.77,442.63A46.13,46.13,0,0,0,326,438.86a90.38,90.38,0,0,1,8,11.37c-4.5,3.69-8,6.55-13,7.38Z" class="color2300b2 svgShape"/><path fill="#b24100" d="M286.25,464.57,296,467l-.35,22.15c9.29.68,31.58-.71,31.58-.71s2.57-14.75,2.27-20.57c-.34-6.77-1.46-14-5.95-19.16C309.66,432.64,287.86,449.42,286.25,464.57Z" class="color2300b2 svgShape"/><path fill="#ffb58a" d="M307.45,443.83a10.75,10.75,0,0,0,7.08-.19c-.07-3.55-.11-5.34-.19-8.93l-7.07.14C307.34,438.42,307.38,440.22,307.45,443.83Z" class="colorfaab96 svgShape"/><ellipse cx="309.89" cy="426.62" fill="#ffb58a" rx="13.74" ry="14.64" transform="rotate(-14.21 309.804 426.514)" class="colorfaab96 svgShape"/><path fill="#f4752a" d="M325.68,412.27a8.88,8.88,0,0,1-5.08.55c-1.7-.25-3.35-.78-5-1.19a22.39,22.39,0,0,0-8.81-.56c-1.69.27-7.86,2.17-9.81,4.1a11.38,11.38,0,0,0-3.54,7.93,14.77,14.77,0,0,0,1.77,7.45c1.39,2.71,2.68,5.09,5.53,6.61a21.09,21.09,0,0,1-1.23-5.1c-.3-3.5,1-8,4.69-9.37a13.8,13.8,0,0,1,6.27-.38,36.24,36.24,0,0,0,6.31.53,12.86,12.86,0,0,0,7.38-2.9C326.43,418,326,414.93,325.68,412.27Z" class="colorf4722a svgShape"/><path fill="#ffb58a" d="M300.22,429.07a1.56,1.56,0,0,0-1.67-.83,1.51,1.51,0,0,0-1.2,1.4,2.23,2.23,0,0,0,.8,1.57,5.38,5.38,0,0,0,2.61,1.43Z" class="colorfaab96 svgShape"/><path fill="#f2ae86" d="M388.91,320.9a22.93,22.93,0,0,0,13.91,0V308.59a22.78,22.78,0,0,1-13.91,0Z" class="colorf29886 svgShape"/><path fill="#f2ae86" d="M386,304.13c.24.67.51,1.34.8,2,.62,1.38,1.32,3.18,2.6,4a20.7,20.7,0,0,0,5.33,2,33.47,33.47,0,0,0,11.61,1.28,5.74,5.74,0,0,0,5-3.07,17.12,17.12,0,0,0,2.33-7.81c.06-1,3.28-1.39,2.63-2.65-1.1-2.11-3.75-3.69-4.45-7.52-1.69-9.18-14.12-12.27-22.47-8.52-2.13,1-3.31,1.75-3.94,3.95a26.11,26.11,0,0,0-1,6.21A27.06,27.06,0,0,0,386,304.13Z" class="colorf29886 svgShape"/><path fill="#772c00" d="M388.06,311.16l-.29-.07c-1.51-.39-2.73-.83-3.51-2.13A27.44,27.44,0,0,1,382,304.2a31.34,31.34,0,0,1-1.92-10c-.12-4.63.18-11.56,5.74-13.21,1.88-.57,3.93-.17,5.89-.38,3.13-.33,6.11-2.18,9.21-1.69,2.86.46,5.16,2.84,8.05,3,1.68.1,3.44-.57,5,0a3.81,3.81,0,0,1,2.23,4.28,5.91,5.91,0,0,1-3.29,3.9,14,14,0,0,1-5.2,1.2c-2.52.19-5,.47-7.53.57-2,.08-3.67.47-5,2.06-.9,1.11-2.47,5.19-1.41,6.55a2.06,2.06,0,1,0-2.89,2.85,5.07,5.07,0,0,0,2,.36,27.62,27.62,0,0,1-1.74,5.54,3.56,3.56,0,0,1-1.35,1.68A2.81,2.81,0,0,1,388.06,311.16Z" class="color150077 svgShape"/><path fill="#772c00" d="M409.55,307.81a1.65,1.65,0,0,0,1.23.72c.76.14,1.53.3,2.3.47-.14,1.1-.26,2.2-.37,3.3a5.39,5.39,0,0,1-.6,2.31c-1,1.68-3.3,2-5.29,2a21.21,21.21,0,0,1-6.31-.58,9,9,0,0,1-5.18-3.36c-1.28-1.84-1.56-4.1-1.79-6.3s-.51-4.51-.77-6.8c-.28-2.53-.45-5.36,1.2-7.32,1.08-1.26,4.15-2.53,5.74-1.37.88.63-1,1-1.68,1.59a6.67,6.67,0,0,0-2,2.78,9,9,0,0,0,.15,6.39,17,17,0,0,0,3.58,5.5,18.11,18.11,0,0,1,13.91-3.41c-.06.55-.12,1.13-.17,1.68a6.15,6.15,0,0,0-3.22,1C409.81,306.79,409.35,307.32,409.55,307.81Z" class="color150077 svgShape"/><path fill="#f2ae86" d="M413.48,305.42c-.14,1.18-.29,2.39-.4,3.58-.77-.17-1.54-.33-2.3-.47a1.65,1.65,0,0,1-1.23-.72c-.2-.49.26-1,.71-1.35A6.15,6.15,0,0,1,413.48,305.42Z" class="colorf29886 svgShape"/><path fill="#db5a0f" d="M295.74,472a4.9,4.9,0,0,0-.35,3.31,4.33,4.33,0,0,0,2.46,2.63,7,7,0,0,0,4,.45,6,6,0,0,0,2.24-.81,5.08,5.08,0,0,0,2.15-3.64,5.53,5.53,0,0,0-.52-3.42,4.67,4.67,0,0,0-2.81-2.27,8,8,0,0,0-4.35.21C297.09,468.83,296.23,470.79,295.74,472Z" class="color0f9ddb svgShape"/><path fill="#db5a0f" d="M305.88,466.89a5,5,0,0,1-2.07,2.72,8.35,8.35,0,0,1-6.34,1.63,5.58,5.58,0,0,1-3.38-2.09,4.23,4.23,0,0,1-.91-2.17,4,4,0,0,1,0-.69,5.09,5.09,0,0,1,1-2.91,6.6,6.6,0,0,1,3.75-2.53,7.2,7.2,0,0,1,4.57.52C304.6,462.25,306.48,464.58,305.88,466.89Z" class="color0f9ddb svgShape"/><path fill="#db5a0f" d="M295.38 462.7a13.22 13.22 0 00-4.78-6.86 8.23 8.23 0 00-8.21-.81 3.88 3.88 0 00-2.24 2.82 2.24 2.24 0 002.16 2.49 4.29 4.29 0 001.82-.76 6.48 6.48 0 013.58-1.08c2.1.12 3.75 1.76 5 3.37a8.19 8.19 0 012 3.84zM300.84 461.43a12.84 12.84 0 00.09-8.26 7.94 7.94 0 00-6.28-5.18 4.07 4.07 0 00-3.5 1.09 2.18 2.18 0 00.31 3.24 4.38 4.38 0 002 .37 6.47 6.47 0 013.58 1.08c1.66 1.25 2.05 3.5 2.17 5.54a8 8 0 01-.62 4.24zM299.28 476a20.3 20.3 0 00-2.9 4 6.7 6.7 0 00-.68 4.73 1.71 1.71 0 00.52.9 1.3 1.3 0 001.28.13 2 2 0 001-.88 7.2 7.2 0 00.59-3.46 14.74 14.74 0 011.79-6.3zM303.51 475.65a11.81 11.81 0 01-.55 4.07 6.73 6.73 0 000 4.07 1.36 1.36 0 00.45.63 1.41 1.41 0 001.65-.22 3.18 3.18 0 001-2.44 9.78 9.78 0 00-.51-2.66c-.39-1.33-.79-2.66-1.18-4z" class="color0f9ddb svgShape"/><path fill="#772c00" d="M300.39,467.84a.19.19,0,0,0,.13,0,.21.21,0,0,0,.1-.09,3.84,3.84,0,0,0,.52-1l-.8.1a3,3,0,0,0-.78.29c-.31.18-.2.24.08.38A5,5,0,0,0,300.39,467.84Z" class="color150077 svgShape"/><path fill="#ffceb2" d="M304.26 466.68a.57.57 0 01-.42.69.6.6 0 01-.72-.41.57.57 0 01.43-.69A.58.58 0 01304.26 466.68zM297.65 468.46a.57.57 0 01-.42.69.58.58 0 01-.71-.41.56.56 0 01.42-.69A.58.58 0 01297.65 468.46z" class="colorffb2e0 svgShape"/><path fill="none" stroke="none" stroke-linecap="round" stroke-linejoin="round" stroke-width=".48" d="M297.06 467.05a.66.66 0 01.41-.6.72.72 0 01.73.15M301.7 465.51a.68.68 0 01.53-.51.7.7 0 01.68.3"/><line x1="300.4" x2="300.68" y1="467.57" y2="468.6" fill="none" stroke="none" stroke-linecap="round" stroke-linejoin="round" stroke-width=".48"/><path fill="#ffb58a" d="M307.89,471.5c-.83,3.63-1.55,6.19-4.73,8.28a11.39,11.39,0,0,1-10.88,1c-3-1.37-7.62-6.21-5-15.94l5.87,1.46a4,4,0,0,0,0,.69,4.23,4.23,0,0,0,.91,2.17c-.28,2.06,0,4.81,3.38,6,1.74.64,6.94-.08,8.85-5.44C307.57,470.47,306.64,470.79,307.89,471.5Z" class="colorfaab96 svgShape"/><path fill="#ffb58a" d="M304.62,472.57c-.39-1.19,0-1.87.44-2.95a22.19,22.19,0,0,0,.94-3.37,5.16,5.16,0,0,1,3.16,3.16c.91,2.56-1.23,5.53-3.24,7.08C306.1,476.35,304.76,473,304.62,472.57Z" class="colorfaab96 svgShape"/><path fill="#db5a0f" d="M297.82,470.15a20.4,20.4,0,0,0-4.79,1.58c-1.64.85-3.62,2.37-3.24,4.4a1.9,1.9,0,0,0,1.29,1.49A2.06,2.06,0,0,0,293,477a5.27,5.27,0,0,0,1.06-1.78,7,7,0,0,1,1-1.82,10.43,10.43,0,0,1,2.95-1.87,1.07,1.07,0,0,0,.49-.45C298.69,470.63,298.12,470.35,297.82,470.15Z" class="color0f9ddb svgShape"/><path fill="none" stroke="none" stroke-linecap="round" stroke-linejoin="round" stroke-width="1.37" d="M385.26,320c4.8,4.65,15.13,4.65,19.24,2.2"/><path fill="#772c00" d="M309.38 429.13c0 .72-.42 1.3-.94 1.3s-.95-.58-.95-1.3.42-1.3.95-1.3S309.38 428.41 309.38 429.13zM320.52 428.6c0 .72-.42 1.3-.94 1.3s-.95-.58-.95-1.3.43-1.3.95-1.3S320.52 427.88 320.52 428.6z" class="color150077 svgShape"/><path fill="none" stroke="none" stroke-linecap="round" stroke-linejoin="round" stroke-width=".7" d="M315.85 429.59a1.34 1.34 0 000 1.26 13 13 0 00.72 1.1 1.83 1.83 0 01.36 1.24 2.37 2.37 0 01-1 1.31l.08-.1M314.68 437.09c.43 0 1.66-.91 2.09-.94L314 436"/><path fill="#47352b" d="M457.46 312c.1.64-.16 1.21-.58 1.26s-.83-.41-.92-1.06.16-1.2.58-1.26S457.37 311.34 457.46 312zM466.6 310.22c.09.64-.17 1.21-.58 1.27s-.83-.42-.93-1.06.17-1.21.59-1.27S466.51 309.58 466.6 310.22z" class="color472d2b svgShape"/><path fill="none" stroke="none" stroke-linecap="round" stroke-linejoin="round" stroke-width=".7" d="M462.27,311.15c.48,1.47,2,2.65,2.29,4.06a1.09,1.09,0,0,1-.4,1.12"/><path fill="none" stroke="none" stroke-linecap="round" stroke-linejoin="round" stroke-width="1.76" d="M454.29 310.27a3.07 3.07 0 012.91-1.18M463.14 307.86a4.36 4.36 0 012.7-.7"/><path fill="none" stroke="none" stroke-linecap="round" stroke-linejoin="round" stroke-width=".7" d="M462.79 318.76l2.47-.81M463.77 319.12a1.76 1.76 0 001.05-.27"/><path fill="#47352b" d="M408.91,297.19c0,.72-.34,1.31-.75,1.31s-.76-.59-.76-1.31.34-1.31.76-1.31S408.91,296.47,408.91,297.19Z" class="color472d2b svgShape"/><path fill="none" stroke="none" stroke-linecap="round" stroke-linejoin="round" stroke-width="1.76" d="M406,294.8a3,3,0,0,1,3.29-.12"/></g></svg>