<svg xmlns="http://www.w3.org/2000/svg" viewBox="0 0 3000 2000"><path fill="#ffbf66" d="m2347.514,755.735c-5.333-14.703-12.71-28.342-21.752-40.624l26.492-50.711-.414-.339-43.257-35.478-.414-.339-44.546,35.904c-13.814-6.463-28.633-11.029-44.096-13.381l-17.118-54.568-.533.053-55.674,5.501-.533.053-6.108,56.863c-14.703,5.333-28.342,12.71-40.624,21.752l-50.71-26.492-.34.414-35.478,43.257-.34.414,35.904,44.546c-6.463,13.814-11.029,28.633-13.381,44.096l-54.568,17.118.053.533,5.501,55.674.053.533,56.863,6.108c5.333,14.703,12.71,28.342,21.752,40.624l-26.492,50.71.414.339,43.257,35.478.414.339,44.546-35.904c13.814,6.463,28.633,11.029,44.096,13.382l17.118,54.569.533-.053,55.674-5.501.533-.053,6.108-56.863c14.703-5.333,28.342-12.71,40.624-21.752l50.71,26.492.34-.414,35.478-43.257.34-.414-35.904-44.546c6.463-13.814,11.029-28.634,13.381-44.096l54.568-17.118-.053-.533-5.501-55.674-.053-.533-56.863-6.108Zm-143.697,144.636c-49.261,4.867-93.141-31.121-98.008-80.383-4.867-49.261,31.122-93.141,80.383-98.008,49.261-4.867,93.141,31.122,98.008,80.383s-31.122,93.141-80.383,98.008Z" class="coloraaa svgShape"/><polygon fill="#878787" points="2335.683 650.809 2335.837 650.935 2308.584 628.583 2308.431 628.458 2335.683 650.809" class="color878787 svgShape"/><path fill="#878787" d="M2309.605 701.859c9.041 12.282 16.419 25.922 21.752 40.624l11.205 1.204c-4.646-10.154-10.282-19.723-16.8-28.577l26.492-50.711-.414-.339-15.743-12.912-26.492 50.71zM2203.372 637.514c4.316.657 8.576 1.503 12.784 2.498l-13.744-43.815-.533.053-11.107 1.097 12.6 40.167zM2130.474 873.38c-13.524-14.011-22.601-32.508-24.664-53.392-4.867-49.261 31.122-93.141 80.383-98.008 20.884-2.063 40.799 3.219 57.186 13.74-18.377-19.039-44.966-29.795-73.343-26.991-49.261 4.867-85.25 48.747-80.383 98.008 2.804 28.377 18.555 52.347 40.822 66.643zM2389.37 760.232l4.403 44.567.053.533-54.568 17.118c-2.353 15.462-6.918 30.281-13.381 44.096l35.904 44.546-.34.414-35.478 43.257-.34.414-50.71-26.493c-12.282 9.042-25.922 16.419-40.624 21.752l-6.108 56.863-.533.053-44.567 4.403 4.518 14.402.533-.053 55.674-5.501.533-.053 6.108-56.863c14.703-5.333 28.342-12.71 40.624-21.752l50.71 26.493.34-.414 35.478-43.257.34-.414-35.904-44.546c6.463-13.814 11.029-28.634 13.381-44.096l54.568-17.118-.053-.533-5.501-55.674-.053-.533-15.007-1.612zM2026.338 853.366l-41.856-4.496 1.097 11.107.053.533 45.658 4.905c-1.799-3.932-3.463-7.944-4.952-12.048zM2154.323 958.335c-15.462-2.353-30.281-6.918-44.096-13.382l-44.546 35.904-.261-.214 16.004 13.126.414.34 44.546-35.904c9.958 4.659 20.445 8.315 31.312 10.883l-3.373-10.753z" class="color878787 svgShape"/><polygon fill="#878787" points="2037.754 957.952 2037.754 957.952 2038.015 958.166 2037.754 957.952" class="color878787 svgShape"/><path fill="#ffbf66" d="m2481.703,477.944c.399-11.074-.828-21.993-3.508-32.462l30.863-26.283-.182-.333-19.001-34.788-.182-.333-38.794,11.764c-7.36-7.913-15.884-14.845-25.417-20.494l3.238-40.392-.364-.107-38.035-11.163-.364-.107-19.105,35.735c-11.074-.399-21.993.828-32.462,3.508l-26.283-30.863-.333.182-34.788,19.002-.333.182,11.764,38.794c-7.912,7.36-14.845,15.884-20.494,25.417l-40.392-3.238-.107.364-11.163,38.035-.107.364,35.735,19.105c-.399,11.074.828,21.993,3.508,32.462l-30.863,26.283.182.333,19.001,34.788.182.333,38.794-11.764c7.36,7.913,15.884,14.845,25.417,20.495l-3.238,40.392.364.107,38.035,11.163.364.107,19.105-35.735c11.074.399,21.993-.828,32.462-3.508l26.283,30.863.333-.182,34.788-19.001.333-.182-11.764-38.794c7.912-7.36,14.845-15.884,20.494-25.417l40.392,3.238.107-.364,11.163-38.035.107-.364-35.735-19.105Zm-132.79,56.88c-33.654-9.877-52.929-45.166-43.052-78.82,9.877-33.654,45.166-52.929,78.82-43.052,33.654,9.877,52.929,45.166,43.052,78.82s-45.166,52.929-78.82,43.052Z" class="coloraaa svgShape"/><polygon fill="#878787" points="2501.78 405.872 2501.847 405.995 2489.876 384.078 2489.808 383.955 2501.78 405.872" class="color878787 svgShape"/><path fill="#878787" d="M2471.098 432.488c2.68 10.469 3.907 21.387 3.508 32.462l7.042 3.765c-.357-7.904-1.52-15.686-3.452-23.232l30.863-26.283-.182-.333-6.916-12.661-30.863 26.283zM2418.386 362.021c2.661 1.577 5.235 3.264 7.735 5.034l2.6-32.433-.364-.107-7.588-2.227-2.383 29.732zM2307.894 497.626c-5.166-12.794-6.22-27.355-2.033-41.622 9.877-33.654 45.166-52.929 78.82-43.052 14.267 4.187 25.949 12.943 33.922 24.204-7.02-17.385-21.633-31.508-41.019-37.198-33.654-9.877-68.943 9.398-78.82 43.052-5.69 19.387-1.704 39.314 9.13 54.616zM2508.007 492.006l-8.936 30.447-.107.364-40.392-3.238c-5.649 9.533-12.582 18.057-20.494 25.417l11.764 38.794-.333.182-34.788 19.001-.333.182-26.283-30.863c-10.469 2.68-21.387 3.907-32.462 3.508l-19.105 35.735-.364-.107-30.447-8.936-.854 10.66.364.107 38.035 11.163.364.107 19.105-35.735c11.074.399 21.993-.828 32.462-3.508l26.283 30.863.333-.182 34.788-19.001.333-.182-11.764-38.794c7.912-7.36 14.845-15.884 20.494-25.417l40.392 3.238.107-.364 11.163-38.035.107-.364-9.431-5.042zM2244.794 456.838l-26.304-14.063-2.227 7.588-.107.364 28.693 15.34c-.138-3.061-.167-6.138-.055-9.229zM2301.014 559.767c-9.534-5.649-18.057-12.582-25.417-20.495l-38.794 11.764-.115-.21 7.03 12.871.182.333 38.794-11.764c5.305 5.704 11.224 10.889 17.682 15.46l.638-7.96z" class="color878787 svgShape"/><polygon fill="#878787" points="2224.535 528.576 2224.535 528.576 2224.65 528.786 2224.535 528.576" class="color878787 svgShape"/><rect width="887.595" height="1189.703" x="631.701" y="652.58" fill="#baada6" transform="rotate(-58.207 1075.501 1247.433)" class="colora6abba svgShape"/><path fill="#a08e83" d="m756.056,633.718l462.42,286.634c260.612,161.542,340.925,503.766,179.383,764.378l-127.467,205.64,76.892,47.662,467.627-754.412-1011.193-626.793-47.662,76.892Z" class="color838aa0 svgShape"/><rect width="887.595" height="1189.703" x="737.571" y="574.57" fill="#f2d4c2" transform="rotate(-36.719 1181.354 1169.414)" class="colorf2c2c2 svgShape"/><path fill="#ffb58a" d="m1108.941,481.35l325.28,436.101c183.323,245.779,132.691,593.635-113.088,776.958l-193.935,144.653,54.088,72.516,711.474-530.676-711.303-953.639-72.516,54.088Z" class="colorf39c9c svgShape"/><polygon fill="#f0f0f0" points="819.433 646.366 819.433 1851.185 1965.55 1851.185 1965.55 314.968 1150.831 314.968 819.433 646.366" class="colorf0f0f0 svgShape"/><path fill="#cdcdcd" d="m1848.73,314.968v702.511c0,395.924-320.96,716.883-716.883,716.883h-312.409v116.815h1146.107V314.968h-116.815Z" class="colorcdcdcd svgShape"/><polygon fill="#ffbf66" points="819.433 646.366 1150.831 646.366 1150.831 314.968 819.433 646.366" class="coloraaa svgShape"/><rect width="110.851" height="446.703" x="1341.853" y="820.224" fill="#f2d4c2" class="colorf2c2c2 svgShape"/><rect width="110.851" height="199.872" x="1139.318" y="1067.054" fill="#856d5f" class="color5f6985 svgShape"/><rect width="110.851" height="554.313" x="936.783" y="712.614" fill="#f2d4c2" class="colorf2c2c2 svgShape"/><rect width="110.851" height="322.461" x="1544.388" y="944.466" fill="#a08e83" transform="rotate(-180 1599.813 1105.696)" class="color838aa0 svgShape"/><rect width="110.851" height="743.525" x="1746.923" y="523.401" fill="#f2d4c2" transform="rotate(-180 1802.348 895.164)" class="colorf2c2c2 svgShape"/><path fill="#ff6103" d="m1165.087,1234.947h-25.769v31.98h110.851v-199.872h-31.98v114.79c0,29.328-23.775,53.102-53.102,53.102Z" class="color3c486b svgShape"/><path fill="#ffb58a" d="M962.552 1234.947h-25.769v31.98h110.851v-554.313h-31.979v469.231c0 29.328-23.775 53.102-53.102 53.102zM1367.622 1234.947h-25.769v31.98h110.851v-446.703h-31.98v361.621c0 29.328-23.775 53.102-53.102 53.102zM1825.794 523.401v658.443c0 29.328-23.775 53.102-53.102 53.102h-25.769v31.98h110.851v-743.525h-31.979z" class="colorf39c9c svgShape"/><path fill="#856d5f" d="m1570.157,1234.947h-25.769v31.98h110.851v-322.461h-31.98v237.379c0,29.328-23.775,53.102-53.102,53.102Z" class="color5f6985 svgShape"/><circle cx="931.998" cy="1362.894" r="20.171" fill="#878787" class="color878787 svgShape"/><rect width="317.988" height="17.33" x="965.915" y="1342.086" fill="#f2d4c2" class="colorf2c2c2 svgShape"/><rect width="106.249" height="17.33" x="965.915" y="1366.372" fill="#f2d4c2" class="colorf2c2c2 svgShape"/><circle cx="931.998" cy="1431.197" r="20.171" fill="#878787" class="color878787 svgShape"/><rect width="317.988" height="17.33" x="965.915" y="1410.389" fill="#856d5f" class="color5f6985 svgShape"/><rect width="106.249" height="17.33" x="965.915" y="1434.674" fill="#856d5f" class="color5f6985 svgShape"/><circle cx="931.998" cy="1499.5" r="20.171" fill="#878787" class="color878787 svgShape"/><rect width="317.988" height="17.33" x="965.915" y="1478.692" fill="#f2d4c2" class="colorf2c2c2 svgShape"/><rect width="106.249" height="17.33" x="965.915" y="1502.977" fill="#f2d4c2" class="colorf2c2c2 svgShape"/><circle cx="931.998" cy="1567.803" r="20.171" fill="#878787" class="color878787 svgShape"/><rect width="317.988" height="17.33" x="965.915" y="1546.995" fill="#856d5f" class="color5f6985 svgShape"/><rect width="106.249" height="17.33" x="965.915" y="1571.28" fill="#856d5f" class="color5f6985 svgShape"/><circle cx="931.998" cy="1636.106" r="20.171" fill="#878787" class="color878787 svgShape"/><rect width="317.988" height="17.33" x="965.915" y="1615.298" fill="#f2d4c2" class="colorf2c2c2 svgShape"/><rect width="106.249" height="17.33" x="965.915" y="1639.583" fill="#f2d4c2" class="colorf2c2c2 svgShape"/><rect width="998.617" height="677.446" x="1665.298" y="1317.554" fill="#878787" rx="53.642" ry="53.642" class="color878787 svgShape"/><path fill="#ffffff" d="m1879.526,1176.03h570.162c19.086,0,34.581,15.495,34.581,34.581v891.332c0,19.086-15.495,34.581-34.581,34.581h-570.161c-19.086,0-34.582-15.496-34.582-34.582v-891.332c0-19.086,15.495-34.581,34.581-34.581Z" transform="rotate(90 2164.607 1656.278)" class="colorfff svgShape"/><path fill="#f2f2f2" d="m2610.272,1336.615h-45.857v293.08c0,146.8-119.005,265.805-265.805,265.805h-614.251v45.857c0,19.099,15.483,34.582,34.582,34.582h891.331c19.099,0,34.582-15.483,34.582-34.582v-570.161c0-19.099-15.483-34.582-34.582-34.582Z" class="colorf2f2f2 svgShape"/><rect width="52.825" height="212.87" x="2144.14" y="1507.325" fill="#f2d4c2" class="colorf2c2c2 svgShape"/><rect width="52.825" height="95.247" x="2047.625" y="1624.949" fill="#856d5f" class="color5f6985 svgShape"/><rect width="52.825" height="264.15" x="1951.11" y="1456.045" fill="#f2d4c2" class="colorf2c2c2 svgShape"/><rect width="52.825" height="153.664" x="2240.656" y="1566.531" fill="#a08e83" transform="rotate(-180 2267.068 1643.363)" class="color838aa0 svgShape"/><rect width="52.825" height="354.317" x="2337.171" y="1365.878" fill="#f2d4c2" transform="rotate(-180 2363.584 1543.037)" class="colorf2c2c2 svgShape"/><path fill="#ff6103" d="m2059.905,1704.956h-12.28v15.24h52.825v-95.247h-15.239v54.702c0,13.976-11.33,25.305-25.305,25.305Z" class="color3c486b svgShape"/><path fill="#ffb58a" d="M1963.39 1704.956h-12.28v15.24h52.825v-264.151h-15.239v223.606c0 13.976-11.33 25.305-25.305 25.305zM2156.42 1704.956h-12.28v15.24h52.825v-212.87h-15.24v172.326c0 13.976-11.33 25.305-25.305 25.305zM2374.757 1365.878v313.772c0 13.976-11.33 25.305-25.305 25.305h-12.28v15.24h52.825v-354.317h-15.239z" class="colorf39c9c svgShape"/><path fill="#856d5f" d="m2252.936,1704.956h-12.28v15.24h52.825v-153.664h-15.239v113.12c0,13.976-11.33,25.305-25.305,25.305Z" class="color5f6985 svgShape"/><circle cx="1948.829" cy="1765.928" r="9.612" fill="#878787" class="color878787 svgShape"/><rect width="151.533" height="8.259" x="1964.992" y="1756.012" fill="#f2d4c2" class="colorf2c2c2 svgShape"/><rect width="50.632" height="8.259" x="1964.992" y="1767.585" fill="#f2d4c2" class="colorf2c2c2 svgShape"/><circle cx="1948.829" cy="1798.476" r="9.612" fill="#878787" class="color878787 svgShape"/><rect width="151.533" height="8.259" x="1964.992" y="1788.561" fill="#856d5f" class="color5f6985 svgShape"/><rect width="50.632" height="8.259" x="1964.992" y="1800.134" fill="#856d5f" class="color5f6985 svgShape"/><circle cx="1948.829" cy="1831.025" r="9.612" fill="#878787" class="color878787 svgShape"/><rect width="151.533" height="8.259" x="1964.992" y="1821.11" fill="#f2d4c2" class="colorf2c2c2 svgShape"/><rect width="50.632" height="8.259" x="1964.992" y="1832.682" fill="#f2d4c2" class="colorf2c2c2 svgShape"/><circle cx="1948.829" cy="1863.574" r="9.612" fill="#878787" class="color878787 svgShape"/><rect width="151.533" height="8.259" x="1964.992" y="1853.658" fill="#856d5f" class="color5f6985 svgShape"/><rect width="50.632" height="8.259" x="1964.992" y="1865.231" fill="#856d5f" class="color5f6985 svgShape"/><circle cx="1948.829" cy="1896.123" r="9.612" fill="#878787" class="color878787 svgShape"/><rect width="151.533" height="8.259" x="1964.992" y="1886.207" fill="#f2d4c2" class="colorf2c2c2 svgShape"/><rect width="50.632" height="8.259" x="1964.992" y="1897.78" fill="#f2d4c2" class="colorf2c2c2 svgShape"/><rect width="245.855" height="4.921" x="2041.679" y="1963.811" fill="#ffffff" rx="2.461" ry="2.461" class="colorfff svgShape"/><path fill="#a08e83" d="m2187.015,256.558c-5.614-22.034-14.338-42.822-25.663-61.884l45.577-69.58-.55-.55-57.512-57.512-.55-.55-69.58,45.577c-19.063-11.326-39.85-20.049-61.884-25.663l-16.965-81.395h-82.891l-16.965,81.395c-22.034,5.614-42.821,14.338-61.884,25.663l-69.58-45.577-.55.55-57.512,57.512-.55.55,45.577,69.58c-11.325,19.062-20.049,39.85-25.663,61.884l-81.395,16.965v82.891l81.395,16.965c5.614,22.034,14.338,42.822,25.663,61.884l-45.577,69.58.55.55,57.512,57.512.55.55,69.58-45.577c19.063,11.326,39.85,20.05,61.884,25.663l16.965,81.396h82.891l16.965-81.396c22.034-5.614,42.821-14.338,61.884-25.663l69.58,45.577.55-.55,57.512-57.512.55-.55-45.577-69.58c11.325-19.062,20.049-39.85,25.663-61.884l81.395-16.965v-82.891l-81.395-16.965Zm-228.573,188.716c-71.966,0-130.306-58.34-130.306-130.306s58.34-130.306,130.306-130.306,130.306,58.34,130.306,130.306-58.34,130.306-130.306,130.306Z" class="color838aa0 svgShape"/><polygon fill="#856d5f" points="2184.897 103.062 2185.101 103.266 2148.867 67.031 2148.663 66.828 2184.897 103.062" class="color5f6985 svgShape"/><path fill="#856d5f" d="M2139.87 173.192c11.325 19.062 20.049 39.85 25.663 61.884l16.04 3.343c-5.27-15.355-12.057-30.004-20.221-43.745l45.577-69.58-.55-.55-20.932-20.931-45.577 69.58zM1995.371 64.914c6.151 1.567 12.192 3.401 18.138 5.442l-13.622-65.356h-17.004l12.488 59.914zM1856.188 395.74c-17.564-22.204-28.052-50.262-28.052-80.772 0-71.966 58.34-130.306 130.306-130.306 30.509 0 58.567 10.489 80.772 28.052-23.866-30.171-60.797-49.534-102.253-49.534-71.966 0-130.306 58.34-130.306 130.306 0 41.456 19.362 78.388 49.534 102.253zM2246.929 269.046v65.886l-81.395 16.965c-5.614 22.034-14.338 42.821-25.663 61.884l45.577 69.58-.55.55-57.512 57.512-.55.55-69.58-45.578c-19.063 11.326-39.85 20.05-61.884 25.664l-16.965 81.395h-65.887l4.478 21.482h82.891l16.965-81.395c22.034-5.614 42.821-14.338 61.884-25.664l69.58 45.578.55-.55 57.512-57.512.55-.55-45.577-69.58c11.325-19.063 20.049-39.85 25.663-61.884l81.395-16.965v-82.891l-21.482-4.477zM1708.387 351.897l-59.914-12.488v17.004l65.356 13.622c-2.041-5.946-3.875-11.988-5.442-18.138zM1878.55 522.06c-22.034-5.614-42.821-14.338-61.884-25.664l-69.58 45.578-.347-.347 21.278 21.278.55.55 69.58-45.578c13.741 8.164 28.39 14.952 43.745 20.222l-3.343-16.04z" class="color5f6985 svgShape"/><polygon fill="#856d5f" points="1709.955 504.843 1709.955 504.843 1710.302 505.19 1709.955 504.843" class="color5f6985 svgShape"/></svg>