<svg xmlns="http://www.w3.org/2000/svg" xmlns:xlink="http://www.w3.org/1999/xlink" viewBox="0 0 1884 2000"><path fill="#c48560" d="M1230.9 1286.5c160.3 92.6 161.2 243.2 1.9 335.7-159.3 92.6-419.3 92.6-579.6 0S492 1379 651.3 1286.5c159.2-92.6 419.2-92.6 579.6 0zM662 1617.1c155.4 89.7 407.5 89.7 561.9 0 154.4-89.7 153.6-235.7-1.8-325.5-155.4-89.7-407.5-89.7-561.9 0-154.5 89.8-153.6 235.8 1.8 325.5z" class="color608EC4 svgShape"/><path fill="#fcf8f5" d="M1606.2 1068.4c368.6 212.8 370.6 559.2 4.3 772-366.3 212.8-964.1 212.9-1332.8 0s-370.6-559.2-4.3-772c366.3-212.9 964.2-212.9 1332.8 0zM286.6 1835.2c363.7 210 953.7 210 1315 0s359.5-551.7-4.3-761.7-953.7-210-1315.1 0-359.3 551.7 4.4 761.7z" class="colorF5F8FC svgShape"/><path fill="#cf997a" d="M1293.4 1250.1c195 112.6 196.1 295.8 2.3 408.4-193.8 112.6-510.1 112.6-705.1 0s-196.1-295.8-2.3-408.4c193.7-112.6 510.1-112.6 705.1 0zm-694 403.4c190.1 109.8 498.5 109.8 687.4 0 188.9-109.8 187.9-288.4-2.2-398.2s-498.5-109.8-687.4 0c-188.9 109.8-187.9 288.4 2.2 398.2z" class="color7AA2CF svgShape"/><path fill="#dfb59c" d="M1356 1213.8c229.8 132.7 231 348.5 2.7 481.2s-600.9 132.7-830.7 0c-229.8-132.7-231-348.5-2.7-481.2s600.9-132.7 830.7 0zm-819.1 476c224.9 129.8 589.5 129.8 812.9 0 223.4-129.8 222.2-341.1-2.7-470.9-224.9-129.8-589.5-129.8-812.9 0-223.4 129.9-222.2 341.1 2.7 470.9z" class="color9CBEDF svgShape"/><path fill="#faf2ee" d="M1543.7 1104.7c333.9 192.8 335.7 506.5 3.9 699.3-331.8 192.8-873.4 192.8-1207.3 0s-335.7-506.5-3.9-699.3c331.8-192.8 873.3-192.8 1207.3 0zM349.2 1798.9c329 190 862.6 190 1189.5 0s325.1-499.1-3.9-689-862.6-190-1189.5 0c-326.9 189.9-325.2 499 3.9 689z" class="colorEEF4FA svgShape"/><path fill="#b97248" d="M1168.3 1322.9c-125.6-72.5-329.3-72.5-454.1 0-124.8 72.5-124.1 190.5 1.5 263s329.3 72.5 454.1 0c124.8-72.5 124.1-190.5-1.5-263zm-443.8 257.8c-120.7-69.7-121.3-183.1-1.4-252.8 119.9-69.7 315.7-69.7 436.4 0 120.7 69.7 121.3 183.1 1.4 252.8-119.9 69.7-315.7 69.7-436.4 0z" class="color487BB9 svgShape"/><path fill="#ae6032" d="M1105.7 1359.2c90.9 52.5 91.4 137.8 1.1 190.3-90.3 52.5-237.7 52.5-328.6 0-90.9-52.5-91.4-137.8-1.1-190.3 90.4-52.5 237.7-52.5 328.6 0zm-318.6 185.2c86 49.6 225.4 49.6 310.8 0s85-130.4-1-180c-86-49.6-225.4-49.6-310.8 0s-85 130.4 1 180z" class="color3269AE svgShape"/><path fill="#eaccbb" d="M1418.5 1177.4c264.5 152.7 265.9 401.2 3.1 553.9-262.8 152.7-691.7 152.7-956.2 0s-265.9-401.2-3.1-553.9c262.8-152.7 691.8-152.7 956.2 0zm-944.2 548.8c259.6 149.9 680.6 149.9 938.5 0s256.5-393.7-3.1-543.6-680.6-149.9-938.5 0c-257.9 149.8-256.5 393.7 3.1 543.6z" class="colorBBD3EA svgShape"/><path fill="#a35121" d="M1043.2 1395.6c56.2 32.4 56.4 85.2.7 117.6-55.8 32.4-146.9 32.4-203 0-56.2-32.4-56.4-85.2-.7-117.6 55.7-32.4 146.8-32.5 203 0zM849.7 1508c51.2 29.6 134.4 29.6 185.3 0 50.9-29.6 50.6-77.7-.6-107.3-51.3-29.6-134.4-29.6-185.3 0-51 29.6-50.7 77.7.6 107.3z" class="color215AA3 svgShape"/><path fill="#f7eae3" d="M1481.1 1141.1c299.2 172.7 300.8 453.8 3.5 626.6s-782.5 172.8-1081.7 0c-299.2-172.8-300.8-453.8-3.5-626.6 297.2-172.8 782.5-172.8 1081.7 0zM411.7 1762.5c294.3 169.9 771.6 169.9 1064 0s290.8-446.4-3.5-616.3c-294.3-169.9-771.6-169.9-1064 0-292.3 169.9-290.8 446.4 3.5 616.3z" class="colorE3EDF7 svgShape"/><path fill="#ff6103" d="M1658 922.9c13.8 8 20.7 18.5 20.7 29l.7 263.3c0-10.5-6.9-21-20.7-29l-238.8-138.8-.7-263.3L1658 922.9z" class="colorDB8918 svgShape"/><path fill="#f9b453" d="m1658 922.9-238.8-138.8 27.9-16.1 238.8 138.8c21.4 12.5 32.1 28.8 32.1 45.1h-39.4c0-10.5-6.9-21-20.6-29z" class="colorF9B953 svgShape"/><path fill="#f8701f" d="m1596 630.7 2.8 976.1 72.6-42-2.7-976.1z" class="colorF89D1F svgShape"/><path fill="#ff6103" d="M625.9 1044.5c-1.1-.4-2.2-.8-3.3-1.1-1.9-.6-3.9-1.1-5.9-1.7l-4.5-1.2c-2.1-.5-4.2-.9-6.3-1.3-1.4-.3-2.9-.6-4.3-.9-4.3-.8-8.6-1.3-13-1.8-1.3-.1-2.7-.2-4-.3-2.6-.2-5.2-.4-7.8-.5-1.6-.1-3.3-.1-4.9-.1-2.1 0-4.2-.1-6.3 0-1.7 0-3.5.1-5.2.1-1.9.1-3.9.2-5.8.3-1.8.1-3.5.3-5.2.4l-5.7.6c-1.7.2-3.4.5-5.1.7-2 .3-4.1.7-6.1 1.1-1.6.3-3.2.6-4.7 1-2.4.5-4.8 1.1-7.1 1.7-1.3.3-2.6.7-3.9 1-4.2 1.2-8.3 2.6-12.2 4.1-2 .8-3.8 1.6-5.7 2.4-1 .4-2 .8-3 1.3-2.9 1.4-5.7 2.8-8.3 4.3l-2.8-976.1c2.7-1.5 5.5-3 8.3-4.3 1-.5 2-.9 3-1.3 1.7-.7 3.3-1.5 5.1-2.2.2-.1.4-.1.6-.2 4-1.5 8-2.9 12.2-4.1.3-.1.6-.2 1-.3 1-.3 2-.5 2.9-.7 2.3-.6 4.7-1.2 7.1-1.7.6-.1 1.2-.3 1.9-.5.9-.2 1.9-.3 2.9-.5 2-.4 4-.7 6.1-1.1.8-.1 1.6-.3 2.4-.4l2.7-.3c1.9-.2 3.8-.5 5.7-.6l2.7-.3c.8-.1 1.7-.1 2.6-.1 1.9-.1 3.9-.2 5.8-.3 1 0 1.9-.1 2.9-.2h11.7c.6 0 1.2.1 1.8.1 2.6.1 5.2.3 7.8.5 1 .1 2.1.1 3.1.2.3 0 .6.1.9.1 4.4.5 8.7 1.1 13 1.8.2 0 .4.1.7.1 1.2.2 2.4.5 3.7.8 2.1.4 4.2.8 6.3 1.3l4.5 1.2c2 .5 3.9 1.1 5.9 1.7.4.1.9.2 1.3.4.7.2 1.3.5 2 .8 3 1 6 2.2 8.9 3.4 1.1.5 2.2.9 3.2 1.4 3.7 1.7 7.3 3.4 10.7 5.4l950 552.1 2.8 976.1-950-552.1c-3.4-2-7-3.7-10.7-5.4-1.1-.5-2.2-.9-3.3-1.4-3.1-1.2-6.1-2.3-9.1-3.4z" class="colorDB8918 svgShape"/><path fill="#f9b453" d="m412.6 36.7 72.2 42c44.6-25.7 116.9-25.7 161.1 0l950 552.1 72.7-42-950-552.1c-84.1-48.9-221.3-48.9-306 0z" class="colorF9B953 svgShape"/><path fill="#f8701f" d="M1685.4 997.6c2.4-1.4 4.7-2.9 6.9-4.4.6-.4 1.2-.9 1.8-1.3 1.2-.9 2.4-1.8 3.5-2.7 1.6-1.3 3.1-2.6 4.5-4 .8-.8 1.6-1.5 2.3-2.3 1-1.1 1.9-2.2 2.8-3.3.7-.9 1.5-1.7 2.1-2.6.7-1 1.3-2 1.9-3l1.8-3c.5-1 .9-1.9 1.4-2.9.5-1 .9-2.1 1.3-3.1s.6-2.1.9-3.1c.3-1 .6-2 .7-3 .2-1.2.3-2.4.4-3.6.1-1.2.3-2.4.3-3.5l.7 263.3v1.4c0 .7-.2 1.4-.3 2.1-.1 1.2-.2 2.4-.4 3.6-.1.3 0 .6-.1.8-.2.7-.4 1.5-.6 2.2-.3 1-.5 2.1-.9 3.1-.1.3-.1.6-.3.9-.3.7-.7 1.5-1 2.2-.4 1-.8 1.9-1.4 2.9-.1.3-.2.6-.4.8-.4.7-.9 1.4-1.4 2.1-.6 1-1.2 2-1.9 3-.2.3-.3.5-.5.8-.5.6-1.1 1.2-1.6 1.8-.9 1.1-1.8 2.2-2.8 3.3-.3.3-.5.6-.8.9-.5.5-1 .9-1.5 1.3-1.4 1.3-2.9 2.7-4.5 4-.5.4-.9.8-1.4 1.2l-2.1 1.5c-.6.4-1.2.9-1.8 1.3-2.2 1.5-4.4 3-6.9 4.4l-67.2 38.8-.7-263.3 67.2-38.6z" class="colorF89D1F svgShape"/><path fill="#f9b453" d="M1718 951.9c0 16.5-10.9 33.1-32.6 45.6l-67.2 38.8-27.8-16.1 67.2-38.8c14.1-8.1 21.1-18.8 21.1-29.5h39.3z" class="colorF9B953 svgShape"/><path fill="#bbbbbb" d="M609.3 85.7v929l972.1 561.3V646.9z" class="colorBBB svgShape"/><path fill="#9e5327" d="M556.6 116.1v929l972.1 561.3v-929z" class="color27639E svgShape"/><path fill="#e6c3ae" d="m1528.7 1606.4 52.7-30.4V646.9l-52.7 30.5z" class="colorAEC7E6 svgShape"/><path fill="#f5e5dc" d="m609.3 85.7-52.7 30.4 972.1 561.3 52.7-30.5z" class="colorDCE9F5 svgShape"/><path fill="#bbbbbb" d="M541.8 124.7v929l972.1 561.3V685.9z" class="colorBBB svgShape"/><path fill="#9e5327" d="M489.1 155.1v929l972.1 561.3v-929z" class="color27639E svgShape"/><path fill="#e6c3ae" d="m1461.2 1645.4 52.7-30.4V685.9l-52.7 30.5z" class="colorAEC7E6 svgShape"/><path fill="#f5e5dc" d="m541.8 124.7-52.7 30.4 972.1 561.3 52.7-30.5z" class="colorDCE9F5 svgShape"/><path fill="#bbbbbb" d="m412.6 36.7 2.8 976 72.2 42-2.8-976.1z" class="colorBBB svgShape"/><path fill="#ff6103" d="m484.8 78.6 2.8 976.1c-8.4 4.9-15.2 10.3-20.5 16.1-3.5 3.9-6.3 7.9-8.4 12-1 2.1-1.9 4.1-2.6 6.2-1.4 4.2-2.1 8.4-2.1 12.7l-2.8-976.1c0-17 11.2-34 33.6-47z" class="colorDB8918 svgShape"/><path fill="#f8701f" d="m1361.7 766 2.8 976 72.6-41.9-2.8-976.1z" class="colorF89D1F svgShape"/><path fill="#ffbd61" d="M349 129.7c.1 1.1.1 2.2.2 3.3.1 1 .2 1.9.4 2.8.1 1.1.3 2.2.5 3.2s.4 1.9.6 2.9c.2 1.1.5 2.1.8 3.2.3 1 .5 1.9.8 2.9.3 1 .7 2.1 1 3.1.3.9.7 1.9 1.1 2.8.4 1.1.9 2.2 1.4 3.3.4.9.8 1.8 1.3 2.7.5 1.1 1.1 2.2 1.7 3.2.5.9 1 1.8 1.5 2.6.7 1.3 1.6 2.6 2.4 3.8.5.8 1 1.5 1.5 2.3 1 1.4 2 2.8 3.1 4.2.5.6.9 1.2 1.3 1.8 1.7 2.2 3.6 4.4 5.6 6.5.5.6 1.1 1.1 1.6 1.7 1.6 1.6 3.2 3.3 4.9 4.9.8.7 1.5 1.5 2.3 2.2 1 .9 2.1 1.8 3.1 2.7 1 .8 2 1.7 3 2.5 1.1.9 2.2 1.8 3.4 2.6 1.1.8 2.1 1.6 3.2 2.4 1.2.9 2.4 1.7 3.6 2.6 1.1.8 2.3 1.6 3.5 2.3 1.3.8 2.6 1.7 3.9 2.5 1.7 1 3.3 2.1 5 3.1l950 552.1 2.8 976.1-950-552.1c-.9-.5-1.8-1-2.6-1.6l-2.4-1.5c-1.3-.8-2.6-1.6-3.9-2.5-1.2-.8-2.3-1.6-3.5-2.3-1.2-.8-2.4-1.7-3.6-2.6-1.1-.8-2.2-1.6-3.2-2.4-1.1-.9-2.3-1.8-3.4-2.6-1-.8-2-1.7-3-2.5-1.1-.9-2.1-1.8-3.1-2.7-.4-.4-.9-.7-1.3-1.1l-1.1-1.1c-1.7-1.6-3.3-3.2-4.9-4.9-.5-.6-1.1-1.1-1.6-1.7-2-2.2-3.9-4.3-5.6-6.6-.1-.1-.2-.2-.2-.3-.4-.5-.7-1-1.1-1.5-1.1-1.4-2.1-2.8-3.1-4.3-.5-.8-1-1.5-1.5-2.3l-2.4-3.9c-.2-.3-.4-.7-.6-1-.3-.5-.5-1.1-.8-1.6-.6-1.1-1.1-2.2-1.7-3.3-.4-.9-.9-1.8-1.3-2.7-.5-1.1-1-2.2-1.4-3.3-.2-.5-.4-1-.6-1.4-.2-.4-.3-.9-.4-1.3-.4-1-.7-2.1-1-3.1-.3-1-.6-1.9-.8-2.9-.3-1.1-.5-2.1-.8-3.2-.1-.6-.3-1.1-.4-1.7-.1-.4-.1-.8-.2-1.2-.2-1.1-.4-2.2-.5-3.2-.1-.9-.3-1.9-.4-2.8-.1-1.1-.2-2.2-.2-3.3 0-.6-.1-1.3-.1-1.9v-1.9L349 125.6c-.1 1.5 0 2.8 0 4.1z" class="colorFFCD61 svgShape"/><path fill="#f9b453" d="M412.6 36.7c-84.6 48.9-85 128.4-.9 177.2l950 552.1 72.6-41.9-950-552.1c-44.3-25.7-44-67.6.5-93.3l-72.2-42z" class="colorF9B953 svgShape"/><path fill="#ffbf66" d="M1282.4 1139.7c2.3 1.3 4.6 2.5 7 3.7 3.5 1.7 7.1 3.3 10.8 4.7.9.3 1.9.6 2.8 1 2.4.9 4.8 1.7 7.3 2.4 1.5.4 3.1.8 4.6 1.2 1.8.5 3.5.9 5.3 1.3 1.7.4 3.4.7 5.1 1 1.7.3 3.3.7 5 .9 1.7.3 3.5.5 5.3.7 1.7.2 3.4.5 5.1.6 1.7.2 3.4.3 5.1.4 1.9.1 3.8.3 5.7.4 1.5.1 3.1.1 4.6.1 2.3.1 4.5.1 6.8.1 1.4 0 2.8-.1 4.3-.1 2.9-.1 5.8-.3 8.6-.5 1.5-.1 3-.2 4.4-.4 1.3-.1 2.7-.3 4-.5 2-.2 4-.5 5.9-.8 1.3-.2 2.7-.4 4-.7 1.7-.3 3.4-.7 5-1 2-.4 4-.9 6-1.4l4.5-1.2c2-.6 3.9-1.2 5.8-1.8 1.4-.5 2.9-.9 4.3-1.5 1.9-.7 3.7-1.4 5.6-2.2 1.3-.6 2.7-1.1 4-1.7 1.8-.8 3.6-1.8 5.4-2.7 1.5-.8 3-1.5 4.5-2.3l179-103.3.7 263.3-179 103.3c-.6.3-1.1.6-1.7 1-.9.5-1.9.9-2.8 1.4-1.8.9-3.5 1.8-5.4 2.7-1.3.6-2.7 1.1-4 1.7-1.8.8-3.7 1.5-5.6 2.2-1.4.5-2.9 1-4.3 1.5-1.9.6-3.8 1.2-5.8 1.8l-4.5 1.2c-2 .5-4 1-6 1.4-.9.2-1.7.4-2.6.6-.8.2-1.6.3-2.4.4-1.3.2-2.7.5-4 .7-2 .3-3.9.6-5.9.8-1.3.2-2.7.3-4 .5-.6.1-1.3.2-1.9.2-.8.1-1.7.1-2.5.1-2.9.2-5.7.4-8.6.5-.8 0-1.6.1-2.4.1h-1.9c-2.3 0-4.5 0-6.8-.1h-3.2c-.5 0-.9-.1-1.4-.1-1.9-.1-3.8-.2-5.7-.4-1.3-.1-2.5-.1-3.8-.3-.4 0-.8-.1-1.3-.2-1.7-.2-3.4-.4-5.1-.7-1.3-.2-2.7-.3-4-.5-.4-.1-.8-.2-1.3-.2-1.7-.3-3.3-.6-5-.9-1.3-.3-2.6-.4-3.9-.7l-1.2-.3c-1.8-.4-3.5-.9-5.3-1.3-1.2-.3-2.5-.6-3.6-.9-.3-.1-.6-.2-1-.3-2.5-.7-4.9-1.6-7.3-2.4-.8-.3-1.7-.5-2.5-.8-.1 0-.2-.1-.3-.1-3.7-1.4-7.3-3-10.8-4.7-.3-.2-.7-.3-1-.4-2.1-1-4.1-2.1-6.1-3.3l-103.8-60.2-.7-263.3 103.9 60.3z" class="colorF9C166 svgShape"/><path fill="#f9b453" d="m1178.6 1079.5 103.8 60.2c43.1 25 113.4 25 156.8 0l179-103.3-27.8-16.1-169.2 97.7c-33.7 18.3-89.7 17.9-117.4 1.8l-97.1-56.4-28.1 16.1z" class="colorF9B953 svgShape"/><path fill="#f8701f" d="m1618.2 1036.4-179 103.3c-1.4.8-3 1.6-4.5 2.3-1.8.9-3.5 1.8-5.4 2.7-1.3.6-2.7 1.1-4 1.7-1.8.8-3.7 1.5-5.6 2.2-1.4.5-2.8 1-4.3 1.5-1.9.6-3.8 1.2-5.8 1.8l-4.5 1.2c-2 .5-4 1-6 1.4-1.7.4-3.3.7-5 1-1.3.2-2.6.5-3.9.7v263.4c.2 0 .5-.1.7-.1 1.3-.2 2.7-.4 4-.7.8-.1 1.6-.3 2.4-.4.9-.2 1.7-.4 2.6-.6 2-.4 4-.9 6-1.4l4.5-1.2c1.9-.6 3.9-1.2 5.8-1.8 1.4-.5 2.9-1 4.3-1.5 1.9-.7 3.7-1.4 5.6-2.2 1.3-.6 2.7-1.1 4-1.7 1.8-.8 3.6-1.7 5.4-2.7.9-.5 1.9-.9 2.8-1.4.6-.3 1.1-.6 1.7-1l179-103.3-.8-263.2z" class="colorF89D1F svgShape"/><path fill="#9e5327" d="M1279.8 1289.2c-.2-1.5-.5-3.1-.8-4.6-.2-1.1-.4-2.1-.6-3.2-.2-1-.5-2-.7-2.9-.3-1.4-.7-2.8-1.1-4.1-.2-.8-.5-1.6-.7-2.4-.5-1.5-1-3.1-1.6-4.6-.2-.6-.4-1.3-.7-1.9-.8-2.1-1.6-4.2-2.6-6.4-.1-.2-.2-.5-.3-.7-.8-1.9-1.7-3.8-2.6-5.6-.3-.6-.6-1.1-.9-1.7-.9-1.8-1.8-3.5-2.8-5.2-.2-.3-.4-.7-.5-1-1.2-2-2.4-4-3.6-5.9-.4-.6-.7-1.1-1.1-1.7-.9-1.4-1.9-2.8-2.9-4.1-.5-.7-1.1-1.5-1.6-2.2-.9-1.1-1.7-2.2-2.6-3.3-.7-.9-1.5-1.8-2.2-2.7-.7-.9-1.5-1.7-2.2-2.5-1.3-1.4-2.5-2.8-3.8-4.1l-1.9-1.9c-2.6-2.5-5.3-4.9-8.1-7.1-.5-.4-1-.7-1.5-1.1-2.9-2.2-5.9-4.3-9-6.1-2.5-1.4-4.9-2.6-7.3-3.6-.8-.3-1.5-.6-2.3-.9-1.4-.5-2.7-1-4.1-1.4-.9-.3-1.7-.5-2.6-.7-.8-.2-1.6-.4-2.4-.5-1-.2-2.1-.4-3.1-.5-.6-.1-1.2-.1-1.7-.2-1.3-.1-2.5-.1-3.7-.1h-.9c-1.5.1-2.9.3-4.3.5-.3.1-.7.2-1 .2-1.1.2-2.1.6-3.2.9-.3.1-.7.2-1 .3-1.3.5-2.6 1.1-3.8 1.8l16.4-9.5c.1-.1.2-.1.3-.2.9-.5 1.9-1 2.9-1.4.2-.1.4-.1.6-.2.3-.1.6-.2 1-.3.5-.2 1-.4 1.5-.5.5-.2 1.1-.3 1.7-.4.3-.1.7-.2 1-.2.2 0 .4-.1.5-.1 1.1-.2 2.3-.3 3.5-.4h1c.9 0 1.8-.1 2.7 0 .3 0 .6.1 1 .1.6 0 1.1.1 1.7.2.5.1 1.1.1 1.6.2s1 .2 1.4.3c.8.1 1.6.3 2.4.5.4.1.8.2 1.3.3.4.1.9.3 1.3.4 1.3.4 2.7.9 4.1 1.4.5.2.9.3 1.4.5.3.1.6.3.8.4 2.4 1 4.8 2.2 7.3 3.6 3.1 1.8 6.1 3.8 9 6.1.5.4 1 .7 1.5 1.1 2.8 2.2 5.5 4.6 8.1 7.1.2.2.5.4.7.6.4.4.8.9 1.2 1.3 1.3 1.3 2.6 2.7 3.9 4.1.4.4.8.9 1.2 1.3.3.4.6.8 1 1.2.8.9 1.5 1.8 2.2 2.7l1.5 1.8c.4.5.7 1 1.1 1.5.5.7 1.1 1.4 1.6 2.2.4.5.7 1 1.1 1.5.6.9 1.2 1.7 1.7 2.6.4.6.8 1.1 1.1 1.7.2.2.3.5.5.7 1 1.6 2 3.2 3 4.9.1.1.1.2.2.3.2.3.4.6.5 1 .7 1.2 1.3 2.4 2 3.6.3.6.6 1.1.8 1.7.3.6.6 1.1.9 1.7.3.5.5 1 .8 1.5.6 1.3 1.3 2.7 1.9 4.1.1.3.2.5.3.7 0 .1.1.1.1.2.7 1.7 1.5 3.4 2.1 5.2l.3.9c.2.6.5 1.3.7 1.9.3.9.6 1.7.9 2.6.2.7.4 1.4.6 2 .2.8.5 1.6.7 2.4.1.5.3 1 .5 1.5.2.9.4 1.8.7 2.7.2 1 .5 1.9.7 2.9.1.3.2.7.3 1 .2.7.2 1.4.4 2.1.3 1.5.6 3.1.8 4.6.1.4.2.9.2 1.3.1.4 0 .8.1 1.2.4 3.4.7 6.8.7 10.1-.1 18.2-6.5 31-16.8 37l-16.4 9.5c10.4-6 16.8-18.8 16.8-37 0-3.3-.3-6.7-.7-10.1.1-.9 0-1.7-.1-2.5z" class="color27639E svgShape"/><ellipse cx="1223" cy="1268.4" fill="#f5e5dc" rx="47.1" ry="81.3" transform="rotate(-30.163 1222.93 1268.293)" class="colorDCE9F5 svgShape"/><path fill="#b06031" d="M828.3 640c69 39.9 124.8 136.4 124.5 215.7-.2 59.7-32.1 92.6-77.3 88.1l-.9 307.1c-.1 30.5-21.6 42.8-48.2 27.5-26.5-15.3-47.9-52.4-47.8-82.9l.9-307.1c-45.1-47.7-76.7-117.2-76.6-177 .3-79.3 56.4-111.3 125.4-71.4z" class="colorB05E31 svgShape"/><path fill="#d49844" d="M828.3 640c-69-39.8-125.1-7.8-125.3 71.4-.2 59.7 31.5 129.3 76.6 177l163.6-94.5C924.3 731.5 880 669.8 828.3 640zM943.4 904.6l-67.8 39.2c30.6 3 55.1-11.1 67.8-39.2z" class="colorD49044 svgShape"/><defs><path id="a" d="m942.8 793-1.8-5.7c-.3-1-.6-1.9-1-2.8l-1.5-4.2c-.3-1-.7-1.9-1-2.8-.6-1.7-1.3-3.3-1.9-5-.4-.9-.7-1.8-1.1-2.7-.8-1.9-1.5-3.7-2.4-5.6l-1.2-2.7c-.6-1.4-1.3-2.8-1.9-4.2-.4-.9-.9-1.8-1.3-2.7-.8-1.7-1.6-3.4-2.5-5.1-.4-.8-.8-1.5-1.1-2.3l-3-5.7c-.5-.9-.9-1.7-1.4-2.5-.8-1.4-1.5-2.8-2.4-4.2-.5-.8-1-1.7-1.4-2.5-1-1.7-2-3.5-3.1-5.2-.4-.6-.7-1.1-1-1.7l-3.6-5.7c-.5-.8-1-1.5-1.5-2.3-.9-1.4-1.9-2.8-2.8-4.2-.5-.7-1-1.5-1.5-2.2-1.2-1.8-2.5-3.5-3.8-5.2-.2-.4-.5-.7-.8-1.1-1.4-1.9-2.8-3.7-4.3-5.6-.5-.7-1-1.3-1.5-2-1.1-1.4-2.2-2.7-3.3-4.1-.5-.6-1-1.3-1.6-1.9-1.5-1.7-2.9-3.4-4.4-5.1-.1-.2-.3-.4-.5-.5-1-1.1-2-2.3-3.1-3.4l-142.5 81.8c-10.2-5-19.8-7.6-28.6-7.9-9.8-.3-18.6 2.1-25.9 7.1L642.2 786c-14.3 8-23.5 24.9-24.7 48.9l-112.1 62.7c-30-10.9-55.4-16-66.4-18.3-.2 0-.5-.1-.7-.1h-.6c-3-.6-6-1.2-9-1.7-1.3-.2-2.6-.5-3.9-.7-2.1-.4-4.3-.7-6.4-1-1.5-.2-3.1-.5-4.6-.7-2.3-.3-4.6-.6-6.8-.9-1.1-.1-2.3-.3-3.5-.5-3.8-.5-7.5-.9-11.1-1.2h-.4c-28-2.8-48.1-2.7-48.4-2.7l-23.8.3c-7.1.4-16.6.8-23.7 1.3-7.1.4-16.4 1.7-23.5 2.4-2.8.3-9.5 1.2-17.4 2.5-2.2.3-4.3.6-6.2 1l-1.6.3c-7.5 1.3-15.2 2.8-21.1 4.2-7 1.6-16.3 3.7-23.2 5.8l-4.7 1.4c-4.5 1.3-8.9 2.6-13.3 4.1l-3.5 1c-1.4.5-2.9 1-4.5 1.6-3.7 1.3-7.5 2.6-11.2 4.1-.9.3-1.8.6-2.6 1-.7.3-1.4.5-2.1.8-.2.1-.4.1-.6.2-6.6 2.4-15.1 6.3-21.5 9.3-.1.1-.3.2-.5.2-1.3.6-2.5 1.2-3.7 1.8-.3.1-.6.3-.8.4-4 2-7.9 4-11.8 6.1-.7.3-1.4.7-2 1-.1 0-8.6 4.6-19.8 11.8l-.5.3c-.2.1-.4.3-.6.4-4.7 3.1-9.9 6.6-15.1 10.4-1.2.9-2.6 2-4 3.1-.4.2-.8.5-1.1.8l-1.6 1.3c-4.1 3.2-8.2 6.7-11.6 9.7-3.8 3.3-8.6 8-12.1 11.6-1.6 1.6-3.4 3.6-5.1 5.6l-1.2 1.2-1.6 2-.4.4c-2.3 2.6-4.4 5.2-6.5 7.8-.4.5-.8 1-1.1 1.4-1 1.3-2.2 2.8-3.3 4.4-1.8 2.4-3.5 4.8-5.1 7.2-.1.1-.2.2-.2.3-1.8 2.5-3.6 5.5-5.4 8.6-.4.7-.9 1.5-1.3 2.2-2.1 3.7-4.1 7.6-5.7 11-1.1 2.2-2 4.4-3 6.6-1.1 2.6-2.3 5.3-3.3 8.1-.2.5-.4.9-.5 1.3-.2.6-.5 1.2-.7 1.8-.3.7-.5 1.4-.7 2.1-.2.6-.4 1.1-.5 1.6-.5 1.6-1 3.3-1.7 5.5l-.6 2.3c-.6 2.1-1.1 4.2-1.6 6.3l-1 3.9c-.3 1.6-.5 3-.7 4.3-.4 2-.7 4-1 6-.1.7-.3 1.6-.4 2.3-.5 3.1-.8 6.9-1 10.3v.1c0 .8-.1 1.6-.1 2.4-.1 2.5-.4 9.7.3 19.3v.7l.1 1c0 .3.1.6.1.9l.2 2.2c.1 1.4.3 2.8.5 4.2v.1c.2 1.4.4 2.8.6 4.3.2 1.5.5 2.7.7 4 .1.8.3 1.7.4 2.5l.3 1.2c.2 1 .4 2.1.6 3.1 0 .2.1.5.2.7.5 2.3 1.1 4.6 1.7 6.7l.3 1 1.2 3.7c.2.6.4 1.2.5 1.7.3 1 .6 2 1 3v.2l.2.6c.4 1.1.8 2.2 1.1 3.3.5 1.4 3 8.5 8.1 18.6l.4.8 1.9 3.5c.3.5.5 1 .8 1.5l.3.5-.2-.4c.1.2.3.4.4.6 2 3.7 4.4 7.6 7.1 11.7.5.7 1 1.5 1.5 2.2.1.2.2.4.3.5.1.2.3.5.5.6 2.5 3.7 5.3 7.6 8.4 11.4v.1l.1.1s0 .1.1.1c3.2 4 7.2 8.6 11.3 13 3.2 3.4 6.4 6.7 9.3 9.5 2 1.9 4.3 4 6.6 6.1.2.2.4.4.6.5 0 0 0-.1-.1-.1 6.7 5.9 14.2 12.2 20.7 16.5l1.8 1.2c6 4.4 10.6 7.3 20 13.1 2.2 1.3 4.7 2.8 7.4 4.3 0 0 .1.1.2.1s.2.1.3.2c3.1 1.7 6.1 3.3 8.9 4.8.2.1.5.3.7.4.3.2.6.3.9.5 6.8 3.5 16 7.8 23 10.9 6.1 2.6 14.3 5.7 20.4 8.1 5.6 2.2 13.8 4.9 22.9 7.6.1 0 .2.1.3.1h.2c6.8 2 14.1 4 21.2 5.8l.7.2c.3.1.6.1.8.2 8.3 2.1 16.3 3.9 22.7 5l23.1 3.9c3.5.4 7.6 1 11.7 1.5.5.1 1.1.1 1.6.2 3.3.4 6.6.8 9.5 1.1.2 0 .4 0 .5.1h.4c8.5.9 16.5 1.4 23.4 1.8h.7c.6 0 1.3.1 1.9.1 18.7 1.3 37.8 1.6 57.1.7 42.2-1.4 84.3-8.6 123.3-23.5l3-.9c.7-.3 1.5-.5 2.2-.8 2.1-.7 4.2-1.5 6.4-2.3 1.6-.5 3.1-1.1 4.6-1.7-1 .4-2 .8-2.9 1.1 3.5-1.3 6.7-2.5 9.7-3.7l.9-.3c1.3-.5 9.2-3.5 21-9.1l.4-.2c.3-.1.6-.3 1-.5 6.1-3 13.2-6.5 21-10.8.1 0 .1-.1.2-.1s.1-.1.2-.1.1-.1.2-.1l9.5-5.8 1.5-.9c.2-.1.3-.2.5-.3.4-.2.7-.5 1.1-.7l4.1-2.5c2.5-1.7 5.2-3.6 8-5.6.7-.5 1.5-1 2.2-1.5.1-.1.3-.2.4-.3.3-.2.6-.5 1-.7 1.4-1 2.8-1.9 4.1-2.8 4.7-3.3 10.2-7.9 15-12 .3-.2.5-.5.8-.7.8-.7 1.7-1.5 2.4-2.1.5-.5 1-.9 1.5-1.4l.4-.4c.1-.1.2-.1.2-.2.4-.4.9-.8 1.3-1.2 5.4-5 10.2-9.9 14.7-14.9l.3-.3.2-.2c1-1.2 2.1-2.4 3.1-3.6l.4-.5c1.6-2 3.2-3.9 4.8-5.9l1.2-1.5c.2-.3.5-.6.7-.9l.9-1.3 1.2-1.5c.3-.5.7-1 1-1.5 1.6-2.2 3.2-4.5 4.8-6.8 1.6-2.4 3.3-5.1 5-8 1.4-2.3 2.7-4.7 4-7.1.5-1 1-2 1.5-2.9l.2-.4v-.1c1.7-3.4 3.3-6.8 4.8-10.2l.7-1.5c.1-.2.2-.5.3-.7.7-1.6 1.3-3.2 1.9-4.8 1.5-3.6 2.3-6 3.4-9.6v-.1c.2-.6.4-1.2.6-1.9v-.2c.1-.5.3-.8.4-1.3l.7-2.7.6-2.4c.4-1.3.8-2.7 1.1-4 .2-.8.3-1.6.5-2.4l.3-1.1c.2-1 .3-1.9.5-2.8.8-4 1.4-8 1.9-12l.3-2.4c.2-2.1.4-4.2.5-6.3.1-2.5.2-5.4.3-9.1 0-2.2-.1-4.6-.2-7.1 0-1-.1-2-.1-2.9l-.1-2.8c-.2-1.8-.5-3.9-.7-5.9-.2-2.4-.5-4.7-.8-6.8-.7-5.3-2.5-12.2-3.7-17.3 0-.1-3.7-15.3-12.1-31.8-1.2-2.3-2.7-5.3-4.7-8.7l49.2-27.5c20.4 10.1 38.8 10.5 52.4 2.5l-.1.1 21.7-12.4 21.4-12.2c14.2-8.1 23.3-25.2 24.3-49.3l127.3-73.1c-1.4-15.3-4.7-31.4-9.6-47.4zm-403.4 310.2c-1 3-2.5 6.4-4.9 10.1v.1c-.4.6-.9 1.3-1.4 1.9-1.4 1.9-3.1 4-4.6 5.8-.3.4-.7.8-1 1.1l-3.1 3.2-1.5 1.5c-1.7 1.5-3.8 3.3-5.7 5-4.2 3.4-9.1 7-14.8 10.6-1 .6-2 1.3-3.1 1.9-1.7 1-3.3 2-5.1 3.1-25.1 13.1-51.6 22-78.1 27.6-3.9.8-7.8 1.6-11.7 2.2-1.3.2-2.7.4-4 .6l-1.9.3c-5.3.8-10.7 1.5-16.1 2.1-1.1.1-2.3.2-3.4.4-5.4.5-10.9.9-16.5 1.2l-5.6.3c-6.2.2-12.5.4-18.8.3-2.7 0-5.4-.1-8.1-.2l-3.3-.1c-38.9-1.5-75-8.8-104.1-18.8-.4-.1-.9-.3-1.3-.5-.1 0-.3-.1-.4-.2-2.6-1-5.2-1.9-7.8-2.9-3.5-1.3-6.7-2.7-9.9-4.1l-8.1-3.7c-1-.5-1.9-1-2.8-1.5-3.6-2-7.9-4.2-11.2-6.1l-6.2-3.9c-8.3-5.5-14.8-10.8-19.9-15.7l-1.2-1.3c-1.2-1.3-2.5-2.7-3.7-4-1.7-2-3.6-4.4-5-6.3-.1-.1-.1-.2-.2-.3l-.8-1.2c-.2-.4-.5-.8-.7-1.1-.1-.2-.2-.4-.4-.6-.5-.9-1-1.7-1.4-2.6 0 0 0-.1-.1-.1-2.1-4.3-3.1-8.2-3.4-11.5 0-.5-.1-1.1-.1-1.5 1-11.1 8.6-23.3 22.1-35 1.1-1 2.2-1.9 3.3-2.8l1.5-1.2 6.9-5.1c1-.6 2-1.3 3-1.9 2.1-1.4 4.5-2.8 6.7-4.2.5-.3.9-.5 1.4-.8 10.6-3.9 20.3-9.9 30.7-14.4 21.1-8.1 46.4-14.7 75.6-18.7l15.2-1.6c1-.1 2-.2 2.9-.3l4.8-.3c6.3-.4 10.6-.6 13.8-.7 5.2-.1 11.6-.2 16.6-.2l17.5.5h.6c.5 0 1.2.1 1.8.1 1 0 2 .1 3.1.2 3.2.2 6.3.5 9.4.8 17.6 1.7 34.8 4.6 51.1 8.4l5.1 1.2c2.1.5 4.1 1.1 6.2 1.7 17.6 5 34.2 11.4 49.9 19.1 2.3 1.2 4.8 2.6 7.1 3.9 1 .6 2 1.1 3 1.7.2.1.5.3.7.4l6 3.8c1.8 1.2 3.4 2.4 5.1 3.5 2.3 1.7 4.8 3.6 7.1 5.4 3.6 2.9 6.7 5.7 9.3 8.4l1.5 1.6c.5.6 1 1.2 1.5 1.7 1.6 1.9 3.4 4.2 4.9 6.3 4.4 6.5 6.5 12.2 7.1 17 .1.7.2 1.5.2 2.2v.2c0 2.4-.4 5-1.3 8z"/></defs><clipPath id="b"><use overflow="visible" xlink:href="#a"/></clipPath><g clip-path="url(#b)"><ellipse cx="1079.8" cy="667.1" fill="#ffb58a" rx="50.4" ry="87" transform="rotate(-29.837 1079.857 667.192)" class="colorC8B482 svgShape"/><path fill="#e6c3ae" d="M784.2 937.1c11.3-6.5 18.2-20.4 18.2-40.2 0-2.4-.1-4.8-.3-7.2l-.3-2.4c-.2-1.6-.3-3.2-.6-4.7-.5-3.2-1.2-6.4-1.9-9.7-.2-1-.5-2-.8-3-.5-1.8-1-3.6-1.6-5.3-.4-1.2-.8-2.3-1.2-3.5-.5-1.5-1-2.9-1.6-4.4-.5-1.2-.9-2.5-1.5-3.7-.6-1.4-1.2-2.7-1.7-4-.6-1.2-1.1-2.5-1.7-3.7-.6-1.3-1.3-2.6-2-4-.6-1.2-1.2-2.3-1.9-3.5-.8-1.4-1.6-2.7-2.4-4.1-.7-1.1-1.3-2.2-2-3.2-1.1-1.7-2.2-3.3-3.3-4.9-.6-.9-1.2-1.7-1.8-2.6-2-2.7-4-5.3-6.2-7.9-.7-.9-1.5-1.7-2.2-2.5-1.1-1.2-2.2-2.5-3.3-3.6-.8-.9-1.7-1.7-2.5-2.5-1.1-1.1-2.2-2.2-3.4-3.2-.7-.6-1.3-1.2-2-1.7-.6-.5-1.3-1.1-1.9-1.6-1.3-1-2.5-2-3.8-3-.7-.5-1.4-1.1-2.2-1.6-2.5-1.8-5.1-3.5-7.7-5-1.2-.7-2.3-1.2-3.5-1.8-1.1-.6-2.3-1.2-3.4-1.7-1-.4-1.9-.8-2.9-1.1-1.1-.4-2.2-.9-3.2-1.2-.6-.2-1.3-.4-1.9-.5-1.8-.5-3.5-.9-5.3-1.2-.7-.1-1.5-.3-2.2-.4-1.2-.1-2.5-.2-3.7-.2-.7 0-1.5-.1-2.2-.1-1 0-2 .1-3 .3-.8.1-1.5.1-2.3.3-.9.2-1.8.4-2.6.7-.8.2-1.5.4-2.2.6-.9.3-1.7.7-2.5 1.1-.8.3-1.6.7-2.3 1.1l338.9-194.5c.2-.1.4-.3.7-.4.5-.3 1.1-.5 1.6-.7.8-.4 1.7-.8 2.5-1.1.1-.1.3-.1.4-.2.6-.2 1.2-.3 1.8-.4.9-.2 1.7-.5 2.6-.7.2 0 .4-.1.6-.1.6-.1 1.2-.1 1.7-.2 1-.1 2-.2 3-.2.2 0 .5-.1.7-.1.5 0 1 .1 1.5.1 1.2 0 2.4.1 3.7.3.3 0 .7 0 1.1.1.4 0 .8.2 1.2.2 1.7.3 3.5.7 5.3 1.2.4.1.8.2 1.3.3.2.1.4.2.7.2 1.1.4 2.2.8 3.2 1.2 1 .4 1.9.7 2.9 1.1 1.1.5 2.3 1.1 3.4 1.7.8.4 1.6.7 2.4 1.2l1.1.6c2.6 1.5 5.2 3.2 7.7 5 .7.5 1.4 1.1 2.1 1.6 1.3 1 2.5 2 3.8 3 .6.5 1.3 1.1 1.9 1.6.4.4.9.7 1.3 1.1l.7.7c1.1 1.1 2.2 2.2 3.4 3.3.8.8 1.7 1.6 2.5 2.5 1.1 1.2 2.2 2.4 3.3 3.7.6.7 1.3 1.4 1.9 2.1.1.1.2.3.3.4 2.1 2.5 4.2 5.2 6.1 7.9.2.2.3.4.5.6.5.6.9 1.3 1.3 2 1.1 1.6 2.2 3.2 3.3 4.9.3.4.5.8.8 1.2.4.7.8 1.4 1.2 2 .8 1.3 1.6 2.7 2.4 4.1l.9 1.5c.4.7.7 1.3 1 2 .7 1.3 1.4 2.6 2 3.9.3.6.6 1.1.9 1.7.3.6.5 1.3.8 1.9.6 1.3 1.2 2.7 1.8 4 .3.6.6 1.2.8 1.9.2.6.4 1.2.6 1.7.6 1.5 1.1 2.9 1.6 4.4.2.7.5 1.4.8 2.1.1.5.3.9.4 1.4.6 1.8 1.1 3.6 1.6 5.3.2.7.5 1.5.7 2.2.1.3.1.5.1.8.8 3.2 1.5 6.5 1.9 9.7 0 .2.1.3.1.5.2 1.4.3 2.8.5 4.2l.3 2.4c.2 2.4.3 4.8.3 7.2 0 19.8-7 33.7-18.2 40.2L784.2 937.1z" class="colorAEC7E6 svgShape"/><ellipse cx="740.9" cy="861.6" fill="#ffb58a" rx="50.4" ry="87" transform="rotate(-29.837 740.961 861.662)" class="colorC8B482 svgShape"/><path fill="#ffb58a" d="M660.5 814.9c0-52.6 36.8-74.2 82.2-48.1 45.4 26 82.2 89.8 82.2 142.4 0 52.6-36.8 74.1-82.2 48.1-45.4-26.1-82.2-89.8-82.2-142.4z" class="colorC8B482 svgShape"/><path fill="#f7eee9" d="M645 784.5c1.1-.5 2.2-1.1 3.4-1.5 1-.3 2-.6 2.9-.8 1.2-.3 2.3-.7 3.5-.9 1-.2 2-.3 3.1-.4 1.3-.2 2.6-.3 4-.3 1.9-.1 3.8 0 5.7.1.3 0 .6.1 1 .1 2 .2 4 .5 6 .9.4.1.8.1 1.2.2 2.2.5 4.4 1.1 6.6 1.8 1.4.5 2.9 1.1 4.4 1.6 1.3.5 2.5 1 3.8 1.5 1.5.7 3 1.5 4.5 2.2 1.6.8 3.1 1.5 4.7 2.4 3.5 2 6.9 4.3 10.3 6.7 1 .7 1.9 1.4 2.9 2.2 2.6 2 5.1 4 7.6 6.2.9.8 1.8 1.5 2.7 2.3 1.5 1.4 3 2.9 4.5 4.3 1.1 1.1 2.3 2.2 3.4 3.3 1.5 1.6 2.9 3.2 4.4 4.9 1 1.1 2 2.2 3 3.4 2.8 3.4 5.6 6.9 8.2 10.5.8 1.1 1.6 2.3 2.4 3.4 1.5 2.2 3 4.3 4.4 6.6.9 1.4 1.8 2.9 2.6 4.3 1.1 1.8 2.2 3.7 3.2 5.5.9 1.5 1.7 3.1 2.5 4.7.9 1.7 1.8 3.5 2.7 5.3.8 1.6 1.6 3.2 2.3 4.9.8 1.8 1.6 3.6 2.3 5.4.7 1.6 1.3 3.2 2 4.9.8 2 1.5 3.9 2.2 5.9.5 1.5 1.1 3.1 1.6 4.7.8 2.4 1.4 4.8 2.1 7.1.4 1.3.7 2.7 1.1 4 1.1 4.3 1.9 8.6 2.6 12.9.3 2.1.6 4.2.8 6.3.1 1.1.3 2.2.4 3.3.3 3.2.4 6.4.4 9.6 0 26.4-9.3 45-24.4 53.7l43-24.7c15-8.6 24.4-27.2 24.4-53.7 0-3.2-.1-6.4-.4-9.6-.1-1.1-.3-2.2-.4-3.3l-.6-5.7c0-.2-.1-.4-.1-.7-.7-4.3-1.5-8.6-2.6-12.9-.1-.3-.1-.7-.2-1-.2-1-.6-2-.9-2.9-.6-2.4-1.3-4.8-2.1-7.1-.2-.6-.3-1.3-.6-1.9-.3-.9-.7-1.8-1-2.8-.7-2-1.4-3.9-2.1-5.9l-.9-2.4c-.3-.8-.7-1.7-1.1-2.5-.8-1.8-1.5-3.6-2.3-5.3-.4-.8-.7-1.7-1.1-2.6-.4-.8-.8-1.5-1.2-2.3-.9-1.8-1.8-3.5-2.7-5.3-.5-.9-.9-1.8-1.3-2.6-.4-.7-.8-1.4-1.2-2-1-1.9-2.1-3.7-3.2-5.5-.5-.9-1-1.8-1.6-2.7-.3-.5-.7-1-1-1.6-1.4-2.2-2.9-4.4-4.4-6.5-.6-.9-1.2-1.8-1.8-2.6-.2-.3-.4-.5-.6-.8-2.6-3.6-5.4-7.1-8.2-10.5-.1-.2-.3-.4-.4-.5-.8-1-1.7-1.9-2.6-2.9-1.5-1.6-2.9-3.3-4.4-4.9-1.1-1.2-2.2-2.2-3.4-3.3-1.5-1.5-3-2.9-4.5-4.3-.3-.3-.6-.6-1-.9-.6-.5-1.1-.9-1.7-1.4-2.5-2.2-5-4.2-7.6-6.2-1-.7-1.9-1.5-2.9-2.2-3.4-2.4-6.8-4.7-10.3-6.7-.5-.3-1-.5-1.4-.8-1.1-.6-2.1-1-3.2-1.6-1.5-.8-3-1.6-4.5-2.2-1.3-.6-2.6-1-3.8-1.5-1.5-.6-2.9-1.2-4.4-1.6l-.9-.3c-1.9-.6-3.8-1.1-5.7-1.5-.4-.1-.8-.1-1.2-.2-1.1-.2-2.3-.5-3.4-.6-.9-.1-1.7-.2-2.6-.3-.3 0-.6-.1-1-.1-1.6-.1-3.2-.2-4.8-.2-.3 0-.6.1-1 .1-1.4 0-2.7.2-4 .3-.8.1-1.6.1-2.3.2-.3 0-.5.1-.7.2-1.2.2-2.4.6-3.5.9-.8.2-1.6.3-2.4.6l-.6.3c-1.2.4-2.3 1-3.4 1.5-.7.3-1.5.6-2.2 1-.3.2-.6.3-.9.5l-43 24.7c.8-1 1.9-1.4 2.9-1.9z" class="colorE9F0F7 svgShape"/><path fill="#d4ae98" d="M617.5 839.7c0-52.6 36.8-74.2 82.2-48.1 45.4 26 82.2 89.8 82.2 142.4 0 52.6-36.8 74.1-82.2 48.1-45.4-26.1-82.2-89.8-82.2-142.4z" class="color98ADD4 svgShape"/><ellipse cx="700.2" cy="888.2" fill="#ffb58a" rx="50.4" ry="87" transform="rotate(-29.837 700.247 888.298)" class="colorC8B482 svgShape"/><path fill="#e6c3ae" d="M570.2 1060.6c11.3-6.5 18.2-20.4 18.2-40.2 0-2.4-.1-4.8-.3-7.2l-.3-2.4c-.2-1.6-.3-3.2-.6-4.7-.5-3.2-1.2-6.4-1.9-9.7-.2-1-.5-2-.8-3-.5-1.8-1-3.6-1.6-5.3-.4-1.2-.8-2.3-1.2-3.5-.5-1.5-1-2.9-1.6-4.4l-1.5-3.6c-.6-1.4-1.2-2.7-1.7-4-.6-1.2-1.1-2.5-1.7-3.7-.7-1.3-1.3-2.6-2-3.9-.6-1.2-1.2-2.3-1.9-3.5-.8-1.4-1.6-2.7-2.4-4.1-.7-1.1-1.3-2.2-2-3.2-1.1-1.7-2.2-3.3-3.3-4.9-.6-.8-1.2-1.7-1.8-2.5-2-2.7-4-5.3-6.2-7.9-.7-.9-1.5-1.7-2.2-2.5-1.1-1.2-2.1-2.5-3.3-3.6-.8-.9-1.7-1.7-2.5-2.5-1.1-1.1-2.2-2.2-3.3-3.2-.7-.6-1.3-1.2-2-1.7l-2.4-2.1c-1.1-.9-2.1-1.7-3.2-2.5-.7-.5-1.4-1.1-2.2-1.6-2.5-1.8-5.1-3.5-7.7-5-1.2-.7-2.3-1.2-3.5-1.8-1.1-.6-2.3-1.2-3.4-1.7-1-.4-1.9-.8-2.9-1.1-1.1-.4-2.2-.9-3.2-1.2-.7-.2-1.3-.3-2-.5-1.8-.5-3.5-.9-5.3-1.2-.7-.1-1.5-.3-2.2-.4-1.2-.1-2.5-.2-3.7-.2-.7 0-1.5-.1-2.2-.1-1 0-2 .1-3 .3-.8.1-1.5.1-2.3.3-.9.2-1.8.4-2.6.7-.8.2-1.5.4-2.2.6-.9.3-1.7.7-2.5 1.1-.8.3-1.6.7-2.3 1.1l173.3-96.9c.2-.1.4-.3.7-.4.5-.3 1.1-.5 1.7-.7.8-.4 1.7-.8 2.5-1.1.2 0 .3-.1.4-.2.6-.2 1.2-.3 1.8-.4.9-.2 1.7-.5 2.6-.7.2-.1.4-.1.5-.2.5-.1 1.2-.1 1.7-.1l3-.3c.2 0 .5-.1.7-.1.5 0 1 .1 1.5.1 1.2 0 2.4.1 3.6.2.4.1.7 0 1.1.1.4.1.8.2 1.1.3 1.7.3 3.5.7 5.3 1.2.4.1.8.1 1.3.3.2.1.4.2.7.2 1.1.4 2.2.8 3.2 1.2 1 .4 1.9.7 2.9 1.1 1.1.5 2.2 1.1 3.4 1.7.8.4 1.6.7 2.4 1.2l1.1.6c2.6 1.5 5.2 3.2 7.7 5 .7.5 1.4 1.1 2.2 1.6.5.3.9.7 1.4 1.1 1.5 1.1 2.9 2.3 4.3 3.5.4.4.8.7 1.3 1l.7.7c1.1 1.1 2.3 2.2 3.4 3.3.8.8 1.7 1.6 2.5 2.5 1.1 1.2 2.2 2.4 3.3 3.7.6.7 1.3 1.4 1.9 2.1.1.1.2.2.3.4 2.1 2.5 4.2 5.2 6.1 7.9.1.2.3.4.5.6.5.6.9 1.3 1.3 2 1.1 1.6 2.2 3.2 3.3 4.9.2.4.5.8.8 1.2l1.2 2.1c.8 1.4 1.6 2.7 2.4 4.1l.9 1.5c.3.6.6 1.3 1 2 .7 1.3 1.4 2.6 2 3.9.3.6.6 1.1.9 1.7.3.6.6 1.3.8 1.9.6 1.3 1.2 2.7 1.8 4 .3.6.6 1.3.8 1.9.2.6.4 1.2.6 1.7.6 1.5 1.1 2.9 1.6 4.4.2.7.5 1.4.8 2.1.2.5.3.9.4 1.4.6 1.8 1.1 3.6 1.6 5.4.2.7.4 1.5.6 2.2.1.3.1.5.2.8.8 3.2 1.4 6.5 1.9 9.6 0 .2.1.3.1.5.2 1.4.3 2.8.5 4.2l.3 2.4c.2 2.4.3 4.8.3 7.2 0 19.8-7 33.7-18.2 40.2l-173.3 96.7z" class="colorAEC7E6 svgShape"/><ellipse cx="526.9" cy="985.1" fill="#ffb58a" rx="50.4" ry="87" transform="rotate(-29.837 526.997 985.2)" class="colorC8B482 svgShape"/><path fill="#f7eee9" d="m100.7 932.1-.5.3c-.2.1-.4.3-.6.4-4.7 3.1-9.9 6.6-15.1 10.4-1.3.9-2.6 2-4 3-.3.3-.7.5-1.1.8l-1.6 1.3c-4.1 3.2-8.2 6.7-11.6 9.7-3.8 3.3-8.6 8-12.1 11.6-1.6 1.7-3.4 3.6-5.2 5.6l-1.2 1.2-1.6 2c-.1.1-.2.3-.4.4-2.3 2.6-4.4 5.2-6.5 7.8-.4.4-.8.9-1.1 1.4-1.1 1.3-2.2 2.8-3.3 4.4-1.8 2.4-3.5 4.8-5.1 7.3-.1.1-.2.2-.2.3-1.8 2.5-3.6 5.5-5.4 8.5-.4.7-.9 1.5-1.3 2.2-2.1 3.7-4.1 7.5-5.7 11-1.1 2.2-2 4.4-3 6.7-1.1 2.6-2.2 5.3-3.3 8.1-.2.4-.4.9-.5 1.3-.2.6-.5 1.2-.7 1.8-.3.7-.5 1.4-.7 2.1-.2.6-.4 1.1-.5 1.6-.5 1.6-1 3.3-1.7 5.5l-.6 2.3c-.6 2.1-1.1 4.2-1.6 6.3l-1 3.9c-.3 1.6-.5 3-.7 4.3-.4 2-.7 4-1 6-.1.8-.3 1.6-.4 2.3-.5 3-.8 6.9-1 10.3v.1c0 .8-.1 1.6-.1 2.3-.2 2.5-.4 9.7.3 19.3v.7l.1 1c0 .3.1.6.1.9l.3 3-.1-.9c.1 1.4.3 2.8.5 4.2v.1c.2 1.4.4 2.8.6 4.3.2 1.4.5 2.7.7 4 .1.8.3 1.7.4 2.5l.3 1.2c.2 1 .4 2.1.7 3.1.1.2.1.4.2.7.5 2.3 1.1 4.6 1.7 6.7l.2 1 1.2 3.7c.2.6.3 1.2.5 1.7.3 1 .6 2 1 3 0 .1 0 .1.1.2l.2.6c0-.1 0-.1-.1-.2.4 1.2.8 2.4 1.2 3.5.5 1.4 3 8.5 8.1 18.6l.4.8 1.9 3.5c.3.5.5 1 .8 1.5l.3.5-.2-.4c.1.2.3.4.4.7 2.1 3.7 4.4 7.6 7.1 11.7.5.7.9 1.5 1.4 2.2.1.2.2.4.4.6.1.2.3.4.5.6 2.5 3.7 5.3 7.6 8.4 11.4v.1s0 .1.1.1v-.1c0 .1.1.1.1.2 3.2 4 7.2 8.6 11.3 13l.1.1c3.2 3.4 6.4 6.7 9.3 9.5 2 1.9 4.3 4 6.6 6.1.4.3.8.7 1.1 1l-.6-.6c6.7 5.9 14.2 12.1 20.7 16.5l1.8 1.2c6 4.4 10.6 7.3 20 13.1 2.2 1.3 4.8 2.8 7.4 4.3.1 0 .1.1.2.1s.2.1.3.1c3 1.7 6.1 3.3 8.9 4.8.2.1.5.3.7.4-.1-.1-.2-.1-.3-.2.4.2.8.4 1.2.7 6.8 3.5 16 7.8 23 10.9 6.1 2.6 14.3 5.7 20.5 8.1 5.6 2.2 13.8 4.9 22.9 7.6.1 0 .2.1.3.1h.2c6.8 2 14.1 4 21.2 5.8l.7.2c.3.1.6.1.8.2 8.3 2.1 16.3 3.9 22.7 5l23.1 3.9c3.5.4 7.6 1 11.7 1.5.6.1 1.1.1 1.6.2 3.3.4 6.6.8 9.5 1.1.2 0 .4 0 .6.1h.4c8.5.8 16.5 1.4 23.4 1.8h.7c.6 0 1.3.1 1.9.1 18.7 1.3 37.8 1.6 57.1.7 42.2-1.4 84.3-8.5 123.3-23.5l3-.9c.7-.2 1.5-.5 2.2-.8 2.1-.7 4.2-1.5 6.4-2.3 1.6-.6 3.1-1.1 4.7-1.7-1.3.5-2.6 1-3.8 1.5 3.8-1.4 7.3-2.7 10.7-4.1l.9-.3c1.3-.5 9.2-3.5 21-9.1l.4-.2c.3-.1.6-.3.9-.5 6.2-3 13.4-6.6 21.3-11-.2.1-.4.2-.6.4.2-.1.5-.3.7-.4.1 0 .1-.1.2-.1l-.1.1c3.8-2.3 8.5-5.1 12.8-7.7l4.1-2.5c2.4-1.7 5.2-3.6 8-5.6.7-.5 1.5-1 2.2-1.5.1-.1.3-.2.4-.3.3-.2.6-.4 1-.7 1.4-.9 2.8-1.9 4.1-2.8 4.7-3.3 10.2-7.9 15-12 .3-.2.6-.5.8-.7.8-.7 1.7-1.4 2.4-2.1.5-.5 1-.9 1.5-1.4l.4-.4.2-.2c.4-.4.9-.8 1.3-1.2 5.4-5 10.2-9.9 14.7-14.9l.3-.3.2-.2c1.1-1.3 2.2-2.5 3.3-3.8-.1.1-.2.3-.3.4l.5-.7c1.6-1.9 3.2-3.9 4.8-5.9l1.2-1.5.6-.9c.3-.4.6-.8.9-1.3l1.2-1.5c.3-.5.7-1 1-1.5 1.6-2.2 3.2-4.5 4.8-6.8 1.6-2.4 3.3-5.1 5-8 1.4-2.3 2.7-4.7 4-7.1.6-1.1 1.1-2.1 1.7-3.2 0 0 0-.1.1-.1l-.2.4c.1-.2.2-.3.2-.5 1.7-3.4 3.3-6.8 4.8-10.2l.7-1.5c.1-.2.2-.5.3-.7.7-1.6 1.3-3.2 1.9-4.8 1.5-3.6 2.3-6 3.4-9.6v-.1c.2-.6.4-1.2.6-1.9v-.2c.1-.4.2-.8.4-1.3l.7-2.7.6-2.4c.3-1.3.8-2.7 1.1-4 .2-.8.3-1.6.5-2.4l.3-1.1c.2-1 .3-1.9.5-2.8.8-4 1.4-8 1.8-12l.3-2.4c.2-2.1.4-4.2.5-6.3.1-2.6.2-5.4.3-9.1 0-2.2-.1-4.6-.2-7.1 0-1-.1-2-.1-2.9l-.1-2.8c-.2-1.8-.4-3.8-.7-5.9-.2-2.4-.5-4.7-.8-6.8-.7-5.3-2.5-12.1-3.7-17.3 0-.1-3.8-15.2-12.1-31.8-3.5-7-10.8-20.4-20.5-32.5-5.6-7-13.7-15.9-20-22.4-3.7-3.8-9.1-8.3-13-11.9-4.1-3.7-9.8-8.1-14.3-11.3-1-.7-2.1-1.5-3.1-2.2-5.8-4.2-11.3-7.8-21.3-14-5.1-3.2-11.3-6.5-17.5-9.7l-.8-.4c-.4-.2-.8-.4-1.3-.6-6.2-3.1-12.4-6.1-17.8-8.5-1.1-.5-2.2-1-3.3-1.4-.2-.1-.4-.2-.7-.3l-.3-.1c-39-16.9-74.3-24.1-87.9-26.8-.2 0-.5-.1-.7-.1-.1 0-.2 0-.3-.1h-.3c-3-.6-6-1.2-9-1.7-1.3-.2-2.6-.4-3.9-.7-2.1-.4-4.3-.7-6.4-1-1.5-.2-3.1-.5-4.6-.7-2.3-.3-4.6-.6-6.8-.9-1.2-.1-2.3-.3-3.4-.5-3.8-.5-7.5-.9-11.1-1.2h-.4c-28-2.8-48.1-2.7-48.4-2.7l-23.8.3c-7.1.4-16.6.8-23.7 1.3-7.1.4-16.5 1.7-23.5 2.4-2.8.3-9.5 1.2-17.4 2.5-2.2.3-4.3.7-6.2 1l-1.7.3c-7.5 1.3-15.1 2.8-21.1 4.2-7 1.6-16.3 3.7-23.2 5.8l-4.7 1.4c-4.5 1.3-8.9 2.6-13.3 4.1l-3.5 1.1c-1.4.5-2.9 1.1-4.4 1.6-3.7 1.3-7.5 2.6-11.2 4-.9.3-1.7.6-2.6 1-.7.3-1.4.5-2.1.8-.2.1-.4.1-.6.2-6.6 2.4-15.1 6.3-21.5 9.3-.2.1-.4.2-.5.3-1.3.6-2.5 1.2-3.7 1.8-.3.1-.6.3-.8.4-4 2-7.9 4-11.8 6.1-.7.3-1.4.7-2 1-.7.4-9.2 4.9-20.4 12.1zm415.4 214.1c2.3.7 4.6 1.5 7 2.7-2.4-1.2-4.7-2-7-2.7zm18.4-32.9c-.5.7-.9 1.4-1.4 2-1.4 1.9-3.1 4-4.6 5.8-.3.4-.7.7-1 1.1l-3.1 3.2c-.5.5-1 1-1.6 1.5-1.7 1.6-3.8 3.3-5.7 5-4.2 3.4-9.1 7-14.8 10.6-1 .6-2.1 1.3-3.1 1.9-1.7 1-3.3 2-5.1 3.1 3.3-1.8 7-2.9 11.1-3-4.1.1-7.8 1.2-11.1 3-25.1 13.1-51.6 22-78.1 27.6-3.9.8-7.8 1.6-11.7 2.2-1.3.2-2.7.4-4 .6l-1.9.3c-5.3.8-10.7 1.5-16.1 2.1-1.1.1-2.3.2-3.4.4-5.5.5-11 .9-16.5 1.2l-5.7.3c-6.2.3-12.5.4-18.8.3-2.7 0-5.4-.1-8.1-.2l-3.3-.1c-38.9-1.5-75-8.8-104.1-18.8-.4-.2-.9-.3-1.3-.5-.1 0-.3-.1-.4-.1-2.7-1-5.3-1.9-7.8-2.9-3.4-1.3-6.7-2.7-9.9-4.1l-8-3.7c-1-.5-1.9-1-2.8-1.5-3.7-2-7.9-4.2-11.2-6.1l-6.2-3.9c-8.3-5.5-14.8-10.8-19.9-15.7l-1.2-1.3c-1.2-1.3-2.5-2.7-3.7-4-1.7-2.1-3.6-4.4-5-6.3-.1-.1-.1-.2-.2-.3l-.8-1.2c-.2-.4-.5-.8-.7-1.2-.1-.2-.3-.4-.4-.6-.5-.9-1-1.8-1.4-2.6 0-.1 0-.1-.1-.1-2.1-4.3-3.1-8.2-3.4-11.5 0-.5-.1-1.1-.1-1.5 1-11.1 8.6-23.3 22.1-35 1.1-1 2.2-1.9 3.3-2.8l1.5-1.2 6.9-5.1c.9-.6 2-1.3 2.9-1.9 2.2-1.4 4.5-2.8 6.7-4.2.5-.3.9-.5 1.4-.8 10.6-3.9 20.3-9.9 30.7-14.4 21.1-8.1 46.4-14.7 75.6-18.7l15.2-1.6c1-.1 2-.2 2.9-.3l4.9-.3c6.3-.4 10.5-.6 13.8-.7 5.2-.1 11.6-.2 16.6-.2l17.5.6h.6c.6 0 1.2.1 1.8.1 1 .1 2 .2 3.1.2 3.2.2 6.3.5 9.5.7 17.5 1.7 34.8 4.6 51.1 8.4l5.1 1.2c2.1.5 4.2 1.1 6.2 1.7 17.6 5 34.2 11.3 49.9 19.1 2.3 1.2 4.8 2.6 7.1 3.9 1 .6 2 1.1 3 1.7.2.1.5.3.7.4l6 3.8c1.8 1.2 3.4 2.3 5.1 3.5 2.3 1.7 4.8 3.6 7.1 5.4 3.6 2.9 6.7 5.7 9.3 8.4l1.5 1.6c.5.6 1 1.2 1.5 1.7 1.6 2 3.4 4.2 4.9 6.3 4.5 6.5 6.5 12.2 7.1 17 .1.8.2 1.6.2 2.4-.1 4.5-1.4 10.6-6.2 18.1z" class="colorE9F0F7 svgShape"/><path fill="#ffffff" d="M68.2 1232.7zM574.3 1260l-12.6 7.6c4.5-2.6 8.6-5.1 12.6-7.6zM9.7 1149.8l-.6-2 .3.9.3 1.1z" class="colorFFF svgShape"/><path fill="#e6c3ae" d="M69 1038.1c-.1 39.4 25.3 79 76.5 109.6 104.1 62.2 275.3 64 382.4 3.9 54.4-30.5 81.8-71.2 81.9-111.9.1-39.4-25.3-79-76.5-109.6-104.1-62.2-275.3-64-382.4-3.9-54.4 30.5-81.8 71.1-81.9 111.9zm70.1 43.2c.1-.7.3-1.5.5-2.2-.2.8-.3 1.5-.5 2.2zm-.9 6.6c.1-.7.2-1.3.3-2-.2.7-.3 1.3-.3 2zm5.6-21.6zm-2.4 6.3c-.2.6-.4 1.3-.6 1.9.2-.6.4-1.2.6-1.9zm381.7 76.3c-2.4-1.1-4.7-2-7-2.7 2.3.7 4.6 1.5 7 2.7zm11.4-35.6c-.5.7-.9 1.4-1.4 2-1.4 1.9-3.1 4-4.6 5.8-.3.4-.7.7-1 1.1l-3.1 3.2c-.5.5-1 1-1.6 1.5-1.7 1.6-3.8 3.3-5.7 5-4.2 3.4-9.1 7-14.8 10.6-1 .6-2.1 1.3-3.1 1.9-1.7 1-3.3 2-5.1 3.1 3.3-1.8 7-2.9 11.1-3-4.1.1-7.8 1.2-11.1 3-25.1 13.1-51.6 22-78.1 27.6-3.9.8-7.8 1.6-11.7 2.2-1.3.2-2.7.4-4 .6l-1.9.3c-5.3.8-10.7 1.5-16.1 2.1-1.1.1-2.3.2-3.4.4-5.5.5-11 .9-16.5 1.2l-5.7.3c-6.2.3-12.5.4-18.8.3-2.7 0-5.4-.1-8.1-.2l-3.3-.1c-38.9-1.5-75-8.8-104.1-18.8-.4-.2-.9-.3-1.3-.5-.1 0-.3-.1-.4-.1-2.7-1-5.3-1.9-7.8-2.9-3.4-1.3-6.7-2.7-9.9-4.1l-8-3.7c-1-.5-1.9-1-2.8-1.5-3.7-2-7.9-4.2-11.2-6.1l-6.2-3.9c-8.3-5.5-14.8-10.8-19.9-15.7l-1.2-1.3c-1.2-1.3-2.5-2.7-3.7-4-1.7-2.1-3.6-4.4-5-6.3-.1-.1-.1-.2-.2-.3l-.8-1.2c-.2-.4-.5-.8-.7-1.2-.1-.2-.3-.4-.4-.6-.5-.9-1-1.8-1.4-2.6 0-.1 0-.1-.1-.1-2.1-4.3-3.1-8.2-3.4-11.5 0-.5-.1-1.1-.1-1.5 1-11.1 8.6-23.3 22.1-35 1.1-1 2.2-1.9 3.3-2.8l1.5-1.2 6.9-5.1c.9-.6 2-1.3 2.9-1.9 2.2-1.4 4.5-2.8 6.7-4.2.5-.3.9-.5 1.4-.8 10.6-3.9 20.3-9.9 30.7-14.4 21.1-8.1 46.4-14.7 75.6-18.7l15.2-1.6c1-.1 2-.2 2.9-.3l4.9-.3c6.3-.4 10.5-.6 13.8-.7 5.2-.1 11.6-.2 16.6-.2l17.5.6h.6c.6 0 1.2.1 1.8.1 1 .1 2 .2 3.1.2 3.2.2 6.3.5 9.5.7 17.5 1.7 34.8 4.6 51.1 8.4l5.1 1.2c2.1.5 4.2 1.1 6.2 1.7 17.6 5 34.2 11.3 49.9 19.1 2.3 1.2 4.8 2.6 7.1 3.9 1 .6 2 1.1 3 1.7.2.1.5.3.7.4l6 3.8c1.8 1.2 3.4 2.3 5.1 3.5 2.3 1.7 4.8 3.6 7.1 5.4 3.6 2.9 6.7 5.7 9.3 8.4l1.5 1.6c.5.6 1 1.2 1.5 1.7 1.6 2 3.4 4.2 4.9 6.3 4.5 6.5 6.5 12.2 7.1 17 .1.8.2 1.6.2 2.4-.1 4.5-1.4 10.6-6.2 18.1zm-55.7-102.1c0-.1.1-.1 0 0 1.7.8 3.4 1.8 5 2.7-1.6-1-3.3-1.8-5-2.7zm-276.7-1.9c-1 .6-2.2 1.1-3.3 1.7 1.1-.6 2.2-1.2 3.3-1.7z" class="colorAEC7E6 svgShape"/><path fill="#d4ae98" d="M195.7 1012.8c-1.5.9-3.1 1.8-4.5 2.8-.1.1-.3.2-.4.3-.2.1-.4.3-.7.4-.2.1-.4.2-.6.4 0 0-.1 0-.1.1-.1 0-.1.1-.2.1l-.9.6c-.2.1-.4.2-.6.4-.4.2-.7.5-1.1.8l-.1.1c-.4.3-.8.5-1.2.8-.1.1-.2.1-.2.2-.1.1-.2.1-.3.2-.3.2-.5.4-.7.5-.2.1-.4.2-.6.4-.5.4-1 .7-1.5 1.1-.5.4-1.1.8-1.6 1.2-.4.3-.9.6-1.3.9-.4.3-.8.5-1.1.8l-.1.1-.1.1c-.3.2-.6.5-.9.7-.7.6-1.4 1.2-2.2 1.7-.3.2-.6.5-.9.7-.3.2-.6.5-.9.7-.1.1-.2.1-.3.2-.3.2-.6.5-.9.7-.4.3-.8.7-1.2 1-.6.5-1.1 1-1.7 1.5-.3.3-.7.6-1 .9-.5.4-.9.8-1.4 1.3-.1.1-.1.1-.2.1-.5.4-.9.9-1.3 1.3-.3.3-.7.6-1 .9l-.1.1-.2.2c-.4.4-.7.8-1.1 1.2-.6.6-1.1 1.2-1.6 1.7l-.4.4c-.4.4-.7.8-1 1.2-.6.7-1.2 1.3-1.7 2-.2.2-.3.4-.5.6-.5.5-.9 1.1-1.3 1.6-.2.2-.3.4-.5.6v.1c-.3.4-.6.7-.9 1.1-.5.6-1 1.2-1.4 1.9l-.9 1.2c-.4.6-.8 1.2-1.2 1.7-.6.9-1.2 1.7-1.7 2.6 0 .1-.1.1-.1.2-.5.8-.9 1.6-1.4 2.4-.4.6-.7 1.3-1.1 1.9-1.2 2.2-2.4 4.5-3.3 6.8v.1c-3.7 8.6-5.6 17.4-5.9 26.2 0 .5-.1 1.3-.1 1.8 1-11.1 8.6-23.3 22.1-35 1.1-1 2.2-1.9 3.3-2.8l1.5-1.2 6.9-5.1c.9-.6 2-1.3 2.9-1.9 2.2-1.4 4.5-2.8 6.7-4.2.5-.3.9-.5 1.4-.8 10.6-3.9 20.3-9.9 30.7-14.4 21.1-8.1 46.4-14.7 75.6-18.7l15.2-1.6c1-.1 2-.2 2.9-.3l4.9-.3c6.3-.4 10.5-.6 13.8-.7 5.2-.1 11.6-.2 16.6-.2l17.5.6h.6c.6 0 1.2.1 1.8.1 1 .1 2 .2 3.1.2 3.2.2 6.3.5 9.5.7 17.5 1.7 34.8 4.6 51.1 8.4l5.1 1.2c2.1.5 4.2 1.1 6.2 1.7 17.6 5 34.2 11.3 49.9 19.1 2.3 1.2 4.8 2.6 7.1 3.9 1 .6 2 1.1 3 1.7.2.1.5.3.7.4l6 3.8c1.8 1.2 3.4 2.3 5.1 3.5 2.3 1.7 4.8 3.6 7.1 5.4 3.6 2.9 6.7 5.7 9.3 8.4l1.5 1.6c.5.6 1 1.2 1.5 1.7 1.6 2 3.4 4.2 4.9 6.3 4.5 6.5 6.5 12.2 7.1 17 .1.8.2 1.6.2 2.4 0-6.7-1-13.5-3-20.1v-.2c-.1-.2-.2-.4-.2-.6-.7-2.3-1.5-4.5-2.4-6.7-.1-.2-.2-.3-.2-.5-.2-.5-.4-.9-.6-1.4-.7-1.5-1.4-3-2.2-4.6-.1-.2-.2-.3-.2-.5 0-.1-.1-.1-.1-.2-.2-.4-.5-.8-.7-1.1-.2-.4-.5-.9-.7-1.3-.5-.8-1-1.7-1.5-2.5-.4-.6-.7-1.1-1.1-1.7-.1-.1-.2-.2-.3-.4-.2-.2-.3-.5-.5-.7-.4-.6-.8-1.1-1.2-1.7-.3-.4-.6-.9-1-1.3-.3-.4-.5-.8-.8-1.2l-.1-.1c-.1-.1-.1-.2-.2-.3-.2-.2-.4-.4-.5-.7-.3-.4-.6-.8-.9-1.1-.3-.4-.7-.9-1.1-1.3-.1-.1-.2-.2-.2-.3-.3-.4-.6-.8-.9-1.1-.1-.1-.1-.2-.2-.2-.2-.2-.4-.4-.6-.7-.1-.2-.3-.3-.4-.5-.1-.1-.2-.3-.4-.4-.5-.6-1.1-1.2-1.6-1.7l-.3-.3c-.1-.1-.2-.2-.2-.3l-.3-.3-.3-.3-.4-.4c-.3-.4-.7-.7-1.1-1.1l-1-1-.5-.5-.5-.5c-.4-.4-.8-.7-1.2-1.1v-.1c-.2-.2-.5-.4-.8-.7-.3-.3-.6-.6-1-.9l-.2-.2c-.1-.1-.2-.2-.3-.2-.4-.4-.9-.8-1.4-1.2l-.5-.5c-.1-.1-.2-.2-.3-.2-.1-.1-.3-.2-.4-.3-.1-.1-.3-.2-.5-.4-.4-.4-.9-.8-1.3-1.1-.2-.1-.3-.3-.5-.4-.1-.1-.2-.2-.4-.3-.1-.1-.2-.2-.3-.2-.4-.3-.8-.6-1.2-1-.2-.2-.4-.4-.7-.6-.3-.2-.6-.4-.9-.7-.5-.4-1-.8-1.5-1.1-.3-.3-.7-.5-1-.8-.2-.2-.5-.4-.7-.5l-.9-.6c-.1 0-.1-.1-.2-.1 0 0-.1 0-.1-.1 0 0-.1 0-.1-.1-.1-.1-.2-.1-.2-.2-.2-.1-.4-.3-.6-.4-.1 0-.1-.1-.2-.1-.3-.2-.5-.4-.7-.5-.2-.2-.5-.3-.7-.5-.2-.1-.4-.3-.6-.4-.2-.1-.3-.2-.5-.3-.3-.2-.5-.4-.8-.5-.2-.1-.4-.2-.5-.4-.1-.1-.2-.2-.4-.2h-.1c-.1-.1-.2-.1-.3-.2-1.8-1.2-3.6-2.3-5.5-3.4-.4-.3-.8-.5-1.2-.8-1.6-1-3.3-1.8-5-2.7v-.1c-1.5-.9-3.2-1.6-4.8-2.5-.6-.3-1.1-.6-1.7-.9l.1-.1c-.4-.2-.9-.4-1.3-.6-.4-.2-.8-.5-1.3-.7-.1-.1-.3-.1-.4-.2-.1-.1-.3-.1-.4-.2-.1 0-.2-.1-.3-.2-.5-.2-1.1-.5-1.6-.7-.5-.2-.9-.5-1.4-.7-.1 0-.1 0-.2-.1-.6-.3-1.2-.5-1.7-.8l-1.5-.6c-1.1-.5-2.2-1.1-3.4-1.6-.7-.3-1.4-.6-2.1-.8-.6-.3-1.2-.6-1.9-.8-.3-.1-.6-.2-.8-.3-.2-.1-.4-.2-.5-.2-.2-.1-.3-.1-.5-.2s-.3-.1-.5-.2-.4-.2-.7-.2c-.1 0-.2-.1-.4-.1-.5-.2-1.1-.4-1.6-.6-.2-.1-.4-.2-.6-.2-.9-.4-1.9-.7-2.8-1.1-.6-.2-1.3-.4-1.9-.7h.1c-.7-.2-1.4-.5-2.1-.7-.7-.2-1.3-.5-1.9-.7-.1 0-.3-.1-.4-.1l-.9-.3c-.4-.1-.9-.3-1.3-.4-.3-.1-.5-.2-.8-.3-.1 0-.2 0-.3-.1-.2-.1-.4-.1-.6-.2-.2-.1-.4-.1-.6-.2-.2-.1-.3-.1-.5-.2s-.4-.1-.6-.2c-.6-.2-1.2-.4-1.8-.5-.7-.2-1.4-.4-2-.6-.4-.1-.8-.3-1.2-.4h-.1c-.4-.1-.9-.2-1.4-.4-.8-.2-1.7-.5-2.5-.7-.3-.1-.5-.2-.8-.2-.3-.1-.7-.2-1-.3-.3-.1-.6-.2-.9-.2-.2-.1-.4-.1-.6-.2-.1 0-.3-.1-.4-.1-.1 0-.2 0-.3-.1-.3-.1-.5-.1-.8-.2-.5-.1-.9-.2-1.4-.3-.4-.1-.8-.2-1.3-.3-.2 0-.4-.1-.5-.1h-.1c-.2 0-.4-.1-.5-.1-.5-.1-1.1-.2-1.7-.4-.6-.1-1.1-.3-1.7-.4h-.1c-.2 0-.3-.1-.5-.1l-1.2-.3c-.4-.1-.8-.2-1.2-.2-.8-.2-1.6-.3-2.4-.5-.6-.1-1.1-.2-1.7-.4-.3-.1-.6-.1-.9-.2h-.5c-.3-.1-.7-.1-1-.2-.2 0-.3-.1-.5-.1h-.1c-.3-.1-.7-.2-1-.2-.2 0-.4-.1-.6-.1-.4-.1-.9-.2-1.3-.2-.3 0-.5-.1-.8-.1-.2 0-.5-.1-.7-.1h-.2c-.4-.1-.8-.1-1.2-.2-.3-.1-.7-.1-1-.2-.5-.1-1-.2-1.5-.2h.1c-.3 0-.5-.1-.8-.1-.5-.1-1.1-.2-1.6-.3-.2 0-.5-.1-.7-.1h-.2c-.3 0-.6-.1-.9-.1-.3-.1-.6-.1-1-.2-.2 0-.4-.1-.6-.1-.2 0-.4-.1-.6-.1-.3 0-.6-.1-.9-.1-.2 0-.4-.1-.6-.1-.4-.1-.8-.1-1.2-.2h-.1.1c-.2 0-.3 0-.5-.1-.3 0-.5-.1-.8-.1-.2 0-.3 0-.5-.1-.3 0-.6-.1-.9-.1-.4-.1-.8-.1-1.2-.2-.3 0-.6-.1-.9-.1-.3 0-.6-.1-.9-.1-.3 0-.6-.1-.9-.1-.2 0-.4-.1-.5-.1h-.2c-.6-.1-1.3-.1-1.9-.2-.6-.1-1.1-.1-1.7-.2-.4 0-.8-.1-1.1-.1-.2 0-.4 0-.6-.1-.1 0-.3 0-.4-.1-.2 0-.4 0-.7-.1-.3 0-.5-.1-.8-.1h-.6c-.2 0-.4 0-.7-.1h-2c-.3 0-.6-.1-1-.1-.2 0-.3 0-.5-.1h-1.1c-.7-.1-1.3-.1-2-.1-.7-.1-1.4-.1-2.1-.2-.9-.1-1.8-.1-2.7-.1-.4 0-.8-.1-1.2-.1-.6 0-1.2-.1-1.7-.1H350.3c-.7 0-1.4 0-2.1-.1-.9 0-1.8 0-2.7-.1-.7 0-1.4-.1-2.1-.1H321h.1-2.1c-.4 0-.7.1-1.1.1-.7 0-1.5.1-2.2.1h-1.2c-.4 0-.8.1-1.2.1-.5 0-.9.1-1.4.1h-.5c-.3 0-.6.1-.8.1-.3 0-.6 0-.9.1h-.3.1-.2c-.4 0-.7 0-1.1.1-.3 0-.6 0-.9.1-.3 0-.7.1-1 .1-.3 0-.6.1-1 .1-.2 0-.4 0-.7.1-.5 0-1 .1-1.6.2-.2 0-.5 0-.7.1-.2 0-.3 0-.5.1-.3 0-.6.1-.9.1-.4 0-.7.1-1.1.1h-.5.1c-.3 0-.6.1-.9.1-.2 0-.4 0-.6.1h-.1c-.4 0-.7.1-1.1.1h-.3c-.2 0-.3 0-.5.1-.2 0-.4.1-.6.1-.4 0-.7.1-1.1.1-.6.1-1.2.1-1.9.2-.2 0-.4 0-.6.1h-.3c-.3 0-.5.1-.8.1-.3 0-.6.1-.9.1-.5.1-1.1.2-1.6.2-.6.1-1.1.1-1.7.2-.3 0-.6.1-.8.1h-.2c-.2 0-.4.1-.6.1-.1 0-.3 0-.4.1h-.2c-.1 0-.3.1-.4.1-.3.1-.6.1-1 .2-.7.1-1.4.2-2.1.4-.5.1-1 .1-1.5.2h-.2c-.3.1-.6.1-.9.2-.4.1-.7.1-1.1.2-.1 0-.2 0-.3.1-.3.1-.6.1-.9.2-.4.1-.9.1-1.3.2s-.8.1-1.1.2h-.1c-.1 0-.2 0-.3.1-.3.1-.6.1-.9.2l-1.5.3c-.4.1-.8.1-1.2.2h.1c-.5.1-1 .2-1.6.3h-.1c-.1 0-.3.1-.4.1-.6.1-1.2.3-1.8.4-.6.1-1.1.3-1.7.4-.1 0-.3.1-.4.1-.4.1-.7.1-1.1.2-.1 0-.2 0-.2.1-.3.1-.6.1-.9.2-.9.2-1.8.4-2.7.7-.7.2-1.4.3-2.2.5-.3.1-.7.2-1 .2-.2 0-.4.1-.5.1-.8.2-1.5.4-2.3.6-.7.2-1.4.4-2 .5-.5.1-1.1.3-1.6.5l-1.2.3h-.1c-.2 0-.3.1-.5.1-.4.1-.9.3-1.3.4-.8.2-1.6.5-2.4.8-.7.2-1.5.4-2.2.7-.2.1-.4.1-.6.2-.2.1-.3.1-.5.2-1 .3-2 .7-3 1-.8.3-1.7.5-2.5.8l-.9.3c-.9.3-1.8.7-2.8 1-.6.2-1.3.4-1.9.6-.4.1-.8.3-1.2.5-.3.1-.7.2-1.1.4-.4.2-.8.4-1.3.5-1.4.6-2.9 1.1-4.3 1.7-.4.2-.8.3-1.2.5l.1.1c-.3.1-.6.3-.8.4-1.5.6-3 1.2-4.4 1.9-.5.2-1 .4-1.4.6-1.1.5-2.2 1.1-3.3 1.6-1 .5-2.1.9-3.2 1.4l.1.1c-2.1 1-4.3 2-6.4 3.1 0 0 0 .1.1.1-1.1.6-2.2 1.1-3.3 1.7.3 0-.8.6-1.8 1.2z" class="color98ADD4 svgShape"/><path d="M228.3 997.3z" fill="#000000" class="color000 svgShape"/></g><path fill="#f5e5dc" d="M473.6 325.8c.2 6.3 5.7 156.5-3.7 249.5-3.5 34.9-12.9 64-27.9 86.2-12.6 18.7-29.2 32.8-49.5 41.8-35.7 15.9-74.5 12.5-94.5 9-7.6-1.3-15.6-4.4-23.6-9-8.1-4.7-16-10.8-23.6-18.2-19.9-19.6-58.7-60.9-94.1-117.9-20.1-32.3-36.6-65.5-49.1-98.7-14.8-39.5-24-79.2-27.3-118.1-8.7-103.4-2.4-246.9-2.2-252.9l1-23.4 19.1 1.3c1.7.1 17 1.4 46.6 11.2C183 99.3 227.1 120 276 148.2c48.9 28.2 93 58.4 131.1 89.7 29.5 24.3 44.9 40.7 46.5 42.5l19.1 20.7.9 24.7zm-37.3 225.9c5.6-55.9 5.6-134.7 4.8-187.4-30-23.7-52-66.1-52.5-101.6-26.6-21-63.9-47.5-112.7-75.7-48.8-28.2-86.1-44.7-112.8-54.5-.8 34.7-22.8 51.7-52.9 40.7-1.1 51.6-1.5 130.2 3.8 192.3 12.2 143.9 112.6 254.3 148.1 289.1 4 3.9 8.2 7.2 12.4 9.6 4.2 2.4 8.4 4 12.4 4.7 35.7 6.5 136.4 12.3 149.4-117.2z" class="colorDCE9F5 svgShape"/><path fill="#e58500" d="M275.9 187.1c48.8 28.2 86.1 54.7 112.7 75.7.6 35.5 22.5 77.9 52.5 101.6.8 52.7.8 131.5-4.8 187.4-13 129.4-113.7 123.6-149.3 117.4-4-.7-8.2-2.3-12.4-4.7-4.2-2.4-8.4-5.7-12.4-9.6-35.5-34.9-136-145.2-148.1-289.1-5.3-62.1-4.9-140.7-3.8-192.3 30.1 11 52.2-6 52.9-40.7 26.6 9.6 64 26.1 112.7 54.3z" class="colorE5E500 svgShape"/><path fill="#d4ae98" d="M498.9 553.7v-.4c.1-1.6.3-3.2.4-4.8v-.4c.1-1.7.3-3.4.4-5.2v-.1c.1-1.7.3-3.5.4-5.2v-.5c.1-1.7.2-3.3.4-5v-.4l.3-5.4v-.2l.3-5.4v-.5c.1-1.7.2-3.5.3-5.3v-.4c.1-1.9.2-3.7.3-5.6v-.2c.1-1.8.2-3.7.2-5.5v-.5c.1-1.8.1-3.6.2-5.4v-.4c.1-1.9.1-3.8.2-5.7v-.2c.1-1.8.1-3.7.2-5.6v-.5c.1-1.8.1-3.6.2-5.5v-.4c.1-1.9.1-3.8.2-5.7v-.3c0-1.8.1-3.7.1-5.5v-.6c0-1.8.1-3.7.1-5.5v-.3c0-1.9.1-3.8.1-5.7v-.4c0-1.8.1-3.6.1-5.4v-.5c0-1.8 0-3.7.1-5.5v-.3c0-1.9 0-3.8.1-5.7v-55.9c0-1.6 0-3.2-.1-4.8v-20.2c0-.9 0-1.8-.1-2.7v-.6c0-.9 0-1.7-.1-2.6v-.4c0-.9 0-1.7-.1-2.5v-.2c0-.8 0-1.7-.1-2.5v-.5c0-.8 0-1.6-.1-2.4v-.3c0-.8 0-1.6-.1-2.3v-.2c0-.8 0-1.6-.1-2.3v-.3c0-.8 0-1.6-.1-2.3 0-.7 0-1.4-.1-2.1v-.3c0-.7 0-1.4-.1-2v-.3c0-.7 0-1.3-.1-2v-.1c0-.6 0-1.3-.1-1.9v-.1c0-.6 0-1.2-.1-1.8v-.4c0-1.1-.1-2.2-.1-3.2v-3.5c0-.9-.1-1.7-.1-2.5v-5.1l-.9-24.5-28.5 16.6.9 24.5v11c0 1 .1 2.1.1 3.2v.4c0 .6 0 1.2.1 1.8v2.3c0 .6 0 1.2.1 1.9v.3c0 .7 0 1.3.1 2V351.4c0 .7 0 1.5.1 2.2v.3c0 .8 0 1.5.1 2.3v.2c0 .8 0 1.5.1 2.3v.3c0 .8 0 1.6.1 2.4v.5c0 .8 0 1.7.1 2.5v.2c0 .8 0 1.7.1 2.5v.4c0 .9 0 1.7.1 2.6v.6c0 .9 0 1.8.1 2.7V393.6c0 1.6 0 3.2.1 4.8v55.9c0 1.9 0 3.8-.1 5.7v.3c0 1.8 0 3.7-.1 5.5v.5c0 1.8-.1 3.6-.1 5.4v.4c0 1.9-.1 3.8-.1 5.7v.3c0 1.8-.1 3.7-.1 5.5v.6c0 1.8-.1 3.7-.1 5.5v.3c0 1.9-.1 3.8-.2 5.7v.4c-.1 1.8-.1 3.6-.2 5.5v.5c-.1 1.9-.1 3.7-.2 5.6v.2c-.1 1.9-.1 3.8-.2 5.7v.4c-.1 1.8-.1 3.6-.2 5.4v.5c-.1 1.8-.2 3.7-.2 5.5v.2c-.1 1.9-.2 3.7-.3 5.6v.4c-.1 1.8-.2 3.5-.3 5.3v.5l-.3 5.4v.2l-.3 5.4v.4c-.1 1.7-.2 3.4-.4 5v.5c-.1 1.8-.3 3.5-.4 5.2v.1c-.1 1.7-.3 3.5-.4 5.2v.4c-.1 1.6-.3 3.2-.4 4.8v.4c-.2 1.7-.3 3.3-.5 5-.2 2.4-.5 4.7-.8 7-.2 1.3-.4 2.6-.5 3.9l-.3 2.1-.9 5.4c0 .2-.1.4-.1.6-.3 2-.7 3.9-1.1 5.8-.1.6-.3 1.2-.4 1.8-.3 1.3-.5 2.6-.8 3.9-.2.7-.4 1.5-.5 2.2-.3 1.1-.5 2.3-.8 3.4-.2.8-.4 1.5-.6 2.3-.3 1.1-.6 2.1-.9 3.1-.2.8-.5 1.6-.7 2.3l-.9 3c-.2.8-.5 1.5-.8 2.3-.3 1-.6 1.9-1 2.9-.3.8-.5 1.5-.8 2.3-.3.9-.7 1.9-1 2.8-.3.7-.6 1.5-.9 2.2-.4.9-.7 1.8-1.1 2.7l-.9 2.1-1.2 2.7c-.3.7-.6 1.4-1 2-.4.9-.9 1.8-1.3 2.6-.3.6-.6 1.3-1 1.9-.5.9-1 1.8-1.4 2.7-.3.6-.6 1.2-1 1.7-.6 1-1.1 1.9-1.7 2.9-.3.5-.6.9-.8 1.4-.9 1.4-1.7 2.8-2.7 4.1-10.2 15.1-23 27.2-38.2 36.1L432 681c15.2-8.8 28.1-20.9 38.2-36.1.9-1.3 1.8-2.7 2.7-4.1.3-.5.6-.9.8-1.4.6-.9 1.1-1.9 1.7-2.9.3-.6.6-1.2 1-1.7.5-.9 1-1.8 1.4-2.7.3-.6.7-1.3 1-1.9.4-.9.9-1.7 1.3-2.6.3-.7.6-1.4 1-2l1.2-2.7.9-2.1c.4-.9.8-1.8 1.1-2.7.3-.7.6-1.5.9-2.2.4-.9.7-1.9 1-2.8.3-.7.5-1.5.8-2.3.3-1 .7-1.9 1-2.9.3-.8.5-1.5.8-2.3l.9-3c.2-.8.5-1.5.7-2.3.3-1 .6-2.1.9-3.1.2-.8.4-1.5.6-2.3.3-1.1.6-2.3.8-3.4.2-.7.4-1.5.5-2.2.3-1.3.6-2.6.8-3.9.1-.6.3-1.2.4-1.8.4-1.9.8-3.9 1.1-5.8 0-.2.1-.4.1-.6l.9-5.4.3-2.1c.2-1.2.3-2.3.5-3.5 0-.1 0-.3.1-.5.3-2.3.6-4.6.8-7 .4-1.7.6-3.3.7-5z" class="color98ADD4 svgShape"/><path fill="#e6c3ae" d="m482.1 263.9-.2-.2-.1-.1-.2-.2-.1-.1-.3-.3-.2-.2-.3-.3-.2-.2c-.1-.1-.2-.2-.3-.4l-.3-.3-.4-.4-.3-.3c-.2-.2-.3-.4-.5-.5l-.3-.3-.7-.7-.1-.1-1.2-1.2-.3-.3-1.1-1.1-.3-.3-1.5-1.5-.4-.4-1.3-1.3-.4-.4c-.6-.6-1.2-1.1-1.8-1.7l-.4-.4c-.5-.5-1.1-1-1.6-1.5-.2-.2-.4-.3-.5-.5-.7-.6-1.4-1.3-2.1-2l-.2-.2c-.7-.6-1.4-1.3-2.1-1.9l-.6-.6c-.7-.6-1.4-1.3-2.1-2l-.3-.3c-.8-.7-1.7-1.5-2.5-2.3-.2-.2-.4-.4-.7-.6-.7-.7-1.5-1.3-2.2-2-.2-.2-.4-.3-.6-.5-.9-.8-1.9-1.6-2.8-2.5l-.6-.6c-.8-.7-1.6-1.4-2.5-2.1-.3-.2-.5-.4-.8-.7-1-.9-2.1-1.8-3.1-2.7-.2-.1-.3-.3-.5-.4-.9-.8-1.9-1.6-2.9-2.4-.3-.2-.6-.5-.9-.7-1.1-1-2.3-1.9-3.5-2.9-2.2-1.8-4.4-3.6-6.6-5.3-.7-.6-1.4-1.1-2.1-1.7-1.6-1.2-3.1-2.5-4.7-3.7-.8-.6-1.6-1.2-2.4-1.9-1.6-1.2-3.2-2.5-4.8-3.7-.7-.5-1.4-1.1-2.1-1.6-2.3-1.8-4.6-3.5-7-5.3-.1 0-.1-.1-.2-.1l-6.9-5.1c-.7-.5-1.5-1.1-2.3-1.6-1.7-1.2-3.3-2.4-5-3.6-.8-.6-1.7-1.2-2.5-1.8-.6-.4-1.2-.9-1.9-1.3-.6-.5-1.3-.9-2-1.4-1.9-1.4-3.9-2.7-5.8-4.1-1.1-.8-2.2-1.6-3.4-2.3-2.1-1.4-4.2-2.9-6.3-4.3-1-.7-2-1.3-3-2-3-2-6-4-9.1-6-.1-.1-.2-.1-.2-.2-3.1-2.1-6.3-4.1-9.5-6.1-1-.6-2-1.3-3-1.9l-6.6-4.2c-1.2-.7-2.4-1.5-3.6-2.2-2.1-1.3-4.2-2.6-6.4-3.9-1.2-.7-2.4-1.5-3.7-2.2-2.3-1.4-4.5-2.7-6.8-4.1-1.1-.6-2.1-1.3-3.2-1.9-3.4-2-6.7-4-10.1-5.9-2.7-1.6-5.5-3.1-8.2-4.7-.8-.4-1.5-.9-2.3-1.3-2.1-1.2-4.2-2.4-6.3-3.5-.7-.4-1.3-.7-2-1.1-2.5-1.4-4.9-2.7-7.4-4l-.6-.3c-.4-.2-.7-.4-1-.6-2.5-1.3-4.9-2.6-7.4-3.9-.3-.2-.6-.3-.9-.5-2.5-1.3-5.1-2.7-7.6-3.9-.5-.3-1-.5-1.5-.8-2.5-1.3-5-2.5-7.4-3.8l-1.2-.6c-2.4-1.2-4.8-2.4-7.2-3.5l-.6-.3c-2.5-1.2-4.9-2.4-7.3-3.5-.5-.2-.9-.4-1.4-.7-2.4-1.1-4.7-2.2-7.1-3.3L226 91c-2.4-1.1-4.7-2.1-7-3.1-.1 0-.2-.1-.3-.1-2.4-1-4.7-2.1-7.1-3-.4-.2-.9-.4-1.3-.6-2.3-1-4.5-1.9-6.7-2.8-.4-.2-.8-.3-1.2-.5-.8-.3-1.5-.6-2.3-.9-.9-.4-1.7-.7-2.6-1l-3-1.2c-1.5-.6-2.9-1.1-4.4-1.7-.9-.3-1.9-.7-2.8-1-1.6-.6-3.1-1.1-4.7-1.7-.8-.3-1.5-.6-2.3-.8l-6.9-2.4c-.9-.3-1.9-.6-2.8-.9l-.9-.3-1.8-.6c-.4-.1-.7-.2-1.1-.3-.5-.2-1-.3-1.6-.5-.4-.1-.7-.2-1.1-.3-.5-.1-1-.3-1.4-.4-.4-.1-.7-.2-1.1-.3-.4-.1-.9-.3-1.3-.4-.4-.1-.7-.2-1.1-.3-.4-.1-.9-.2-1.3-.4-.4-.1-.7-.2-1-.3l-1.2-.3c-.3-.1-.7-.2-1-.3l-1.2-.3c-.1 0-.3-.1-.4-.1-.2-.1-.4-.1-.6-.2-.4-.1-.8-.2-1.1-.3-.3-.1-.6-.2-.9-.2-.4-.1-.7-.2-1.1-.3-.3-.1-.6-.1-.9-.2-.4-.1-.7-.2-1.1-.3-.3-.1-.6-.1-.8-.2-.3-.1-.7-.2-1-.2-.3-.1-.5-.1-.8-.2-.3-.1-.6-.1-1-.2-.3-.1-.5-.1-.8-.2-.3-.1-.6-.1-.9-.2-.2-.1-.5-.1-.7-.2-.3-.1-.6-.1-.9-.2-.2 0-.4-.1-.6-.1-.3-.1-.6-.1-.9-.2-.2 0-.4-.1-.6-.1-.3-.1-.6-.1-.9-.2-.2 0-.3-.1-.5-.1-.3-.1-.6-.1-.9-.2-.1 0-.3 0-.4-.1-.4-.1-.8-.1-1.2-.2h-.1c-.4-.1-.7-.1-1-.2-.1 0-.3 0-.4-.1-.2 0-.4-.1-.6-.1-.1 0-.3 0-.4-.1-.2 0-.4-.1-.6-.1-.1 0-.2 0-.4-.1-.2 0-.3 0-.5-.1h-.3c-.1 0-.3 0-.4-.1H129.2c-.2 0-.4 0-.5-.1h-1.8l-19.1-1.3-28.6 16.5 19.1 1.3h1.8c.2 0 .3 0 .5.1h.2c.1 0 .3 0 .4.1.1 0 .3 0 .4.1h.3c.2 0 .3 0 .5.1.1 0 .2 0 .4.1.2 0 .4.1.6.1.1 0 .3 0 .4.1.2 0 .5.1.7.1.1 0 .2 0 .3.1.7.1 1.5.2 2.3.4.1 0 .3 0 .4.1.3.1.6.1.9.2.2 0 .3.1.5.1.3.1.6.1.9.2.2 0 .4.1.6.1.3.1.6.1.9.2.2 0 .4.1.6.1.3.1.6.1.9.2.2 0 .5.1.7.2.3.1.6.1.9.2.2.1.5.1.8.2.3.1.6.1 1 .2.3.1.5.1.8.2.3.1.7.2 1 .2.3.1.6.1.8.2.4.1.7.2 1.1.3.3.1.6.1.9.2.4.1.7.2 1.1.3.3.1.6.2.9.2.4.1.8.2 1.1.3.3.1.6.2 1 .3l1.2.3c.3.1.7.2 1 .3l1.2.3c.3.1.7.2 1 .3.4.1.8.2 1.3.4.4.1.7.2 1.1.3.4.1.9.3 1.3.4.4.1.7.2 1.1.3.5.1.9.3 1.4.4.4.1.7.2 1.1.3.5.2 1 .3 1.6.5.4.1.7.2 1.1.3l1.8.6.9.3c.9.3 1.8.6 2.8.9 2.3.8 4.6 1.5 6.9 2.4.8.3 1.5.6 2.3.8 1.6.6 3.1 1.1 4.7 1.7.9.3 1.9.7 2.8 1 1.4.5 2.9 1.1 4.4 1.7l3 1.2c1.6.6 3.3 1.3 4.9 2 .4.2.8.3 1.2.5 2.2.9 4.5 1.8 6.7 2.8.4.2.9.4 1.3.6 2.3 1 4.7 2 7.1 3 .1 0 .2.1.3.1 2.3 1 4.7 2.1 7 3.1l1.2.6c2.3 1.1 4.7 2.2 7.1 3.3.5.2.9.4 1.4.7 2.4 1.1 4.9 2.3 7.3 3.5l.6.3c2.4 1.2 4.8 2.3 7.2 3.5l1.2.6c2.5 1.2 4.9 2.5 7.4 3.8.5.3 1 .5 1.5.8 2.5 1.3 5 2.6 7.6 3.9.3.2.6.3.9.5 2.5 1.3 4.9 2.6 7.4 3.9.3.2.7.4 1 .6 2.6 1.4 5.3 2.9 8 4.3.7.4 1.3.7 2 1.1 2.1 1.2 4.2 2.3 6.3 3.5.8.4 1.5.9 2.3 1.3 2.7 1.5 5.4 3.1 8.2 4.7 3.4 2 6.8 3.9 10.1 5.9 1.1.6 2.1 1.3 3.2 1.9 2.3 1.4 4.6 2.7 6.8 4.1 1.2.7 2.4 1.5 3.7 2.2 2.1 1.3 4.2 2.6 6.4 3.9 1.2.7 2.4 1.5 3.6 2.2l6.6 4.2c1 .6 2 1.3 3.1 1.9 3.2 2 6.3 4.1 9.5 6.1.1.1.2.1.3.2 3 2 6.1 4 9.1 6 1 .7 2 1.3 3 2 2.1 1.4 4.2 2.8 6.3 4.3 1.1.8 2.2 1.5 3.4 2.3 2 1.4 3.9 2.7 5.8 4.1 1.3.9 2.6 1.8 3.8 2.7.8.6 1.7 1.2 2.5 1.8 1.7 1.2 3.4 2.4 5 3.6.8.5 1.5 1.1 2.3 1.6l6.9 5.1c.1 0 .1.1.2.1 2.3 1.8 4.7 3.5 7 5.3.7.5 1.4 1.1 2.1 1.6 1.6 1.2 3.2 2.5 4.8 3.7.8.6 1.6 1.2 2.4 1.9 1.6 1.2 3.2 2.5 4.7 3.7.7.6 1.4 1.1 2.1 1.7l6.6 5.4c1.2 1 2.3 1.9 3.5 2.9.3.3.6.5.9.7 1 .8 1.9 1.6 2.9 2.4.2.1.3.3.5.4 1.1.9 2.1 1.8 3.1 2.7.3.2.5.4.8.7l2.4 2.1c.2.2.4.4.7.6 1 .8 1.9 1.7 2.8 2.5.2.2.4.3.6.5.8.7 1.5 1.3 2.2 2 .2.2.5.4.7.6.9.8 1.7 1.5 2.5 2.3l.3.3c.7.7 1.4 1.3 2.1 1.9l.6.6c.7.6 1.4 1.3 2.1 1.9l.2.2c.7.7 1.4 1.3 2.1 2 .2.2.4.3.5.5.5.5 1.1 1 1.6 1.5.1.1.3.2.4.4.6.6 1.2 1.2 1.8 1.7l.4.4c.5.4.9.9 1.3 1.3.1.1.3.2.4.4.5.5 1 1 1.5 1.4l.3.3c.4.4.8.7 1.1 1.1l.4.4 1.2 1.2.2.2.7.7.3.3c.2.2.3.4.5.5l.3.3c.1.2.3.3.4.4l.3.3c.1.1.2.2.3.4l.2.2.3.3.2.2c.1.1.2.2.2.3 0 .1.1.1.1.2l.2.2.1.1.2.2 19.1 20.7 28.5-16.6-19.2-21z" class="colorAEC7E6 svgShape"/><path fill="#ff6103" d="M123.3 184.4c.2-.1.3-.1.5-.2.5-.3 1-.5 1.5-.8l19-11.1c-.5.3-1 .6-1.5.8-.2.1-.3.2-.5.2l-1.2.6c-.1.1-.3.1-.4.2-.5.2-1.1.4-1.6.6-.7.2-1.4.5-2.1.6-.2.1-.4.1-.6.1-.5.1-1 .3-1.6.4-.4.1-.8.1-1.2.2-.2 0-.5.1-.7.1-.5.1-1 .1-1.5.2-.2 0-.3 0-.5.1-.6.1-1.3.1-1.9.1h-2.5c-.6 0-1.3 0-1.9-.1-.9-.1-1.7-.2-2.6-.3-.3 0-.5-.1-.8-.1l-1.8-.3c-.3-.1-.7-.1-1-.2l-1.5-.3c-.4-.1-.7-.2-1.1-.3-.5-.1-1-.3-1.5-.4-.4-.1-.7-.2-1.1-.3-.5-.1-.9-.3-1.4-.5-.5-.2-1-.3-1.6-.5l-19 11.1c.3.1.5.2.8.3.3.1.5.2.8.3.5.2 1 .3 1.4.5.1 0 .3.1.4.1.2.1.4.1.7.2.5.1 1 .3 1.5.4.2 0 .4.1.5.1.2 0 .4.1.6.1l1.5.3c.2 0 .4.1.6.1.1 0 .3 0 .4.1l1.8.3c.2 0 .4.1.6.1h.2c.9.1 1.8.2 2.6.3h.1c.6 0 1.2.1 1.9.1h2.5c.6 0 1.2-.1 1.9-.1h.1c.2 0 .3 0 .5-.1.5-.1 1-.1 1.5-.2.2 0 .5-.1.7-.1.3-.1.6-.1.9-.2.1 0 .2 0 .2-.1.5-.1 1.1-.2 1.6-.4.2 0 .4-.1.6-.1l2.1-.6h.1c.5-.2 1.1-.4 1.6-.6.1-.1.3-.1.4-.2l1-.5z" class="colorDB8918 svgShape"/><path fill="#f5b358" d="M441.5 414.7v-35.4c0-1.6 0-3.1-.1-4.7v-.3c0-1.5 0-2.9-.1-4.3v-1.2c0-1.5 0-3-.1-4.5l-19 11.1c0 1.5 0 3 .1 4.5v1.2c0 1.4 0 2.9.1 4.3v.3c0 1.5 0 3.1.1 4.7v46.1c0 2.6 0 5.2-.1 7.9v2c0 2.2 0 4.4-.1 6.6v1.7c0 2.6-.1 5.3-.1 8v1.8c0 2.2-.1 4.4-.1 6.7v1.9c-.1 2.7-.1 5.4-.2 8v1.5c-.1 2.3-.1 4.5-.2 6.8 0 .7 0 1.4-.1 2.1-.1 2.7-.2 5.3-.3 8v1.1c-.1 2.3-.2 4.6-.3 7 0 .9-.1 1.7-.1 2.6 0 .8-.1 1.6-.1 2.4-.1 1.1-.1 2.3-.2 3.4 0 .8-.1 1.6-.1 2.3-.1 1.2-.1 2.3-.2 3.5 0 .7-.1 1.5-.1 2.2-.1 1.3-.1 2.5-.2 3.8 0 .6-.1 1.2-.1 1.8-.1 1.9-.2 3.7-.3 5.5v.1c-.1 1.8-.2 3.6-.4 5.4 0 .6-.1 1.2-.1 1.8l-.3 3.6c-.1.7-.1 1.4-.2 2-.1 1-.2 2-.2 3-.1 1.4-.2 2.7-.3 4-.1.6-.1 1.3-.2 1.9-.2 2-.4 3.9-.6 5.8-.2 1.7-.4 3.3-.5 4.9 0 .2-.1.5-.1.7-.1.9-.2 1.8-.4 2.6-.1.9-.2 1.8-.4 2.7-.1.8-.3 1.6-.4 2.5-.1.9-.3 1.7-.4 2.6-.1.7-.2 1.3-.4 2-.2 1-.4 2.1-.6 3.1-.1.7-.3 1.4-.4 2.1-.2 1-.4 1.9-.6 2.9-.2.7-.3 1.3-.5 2-.2 1-.5 2-.7 3-.2.7-.3 1.3-.5 2-.3 1-.5 1.9-.8 2.8-.2.8-.4 1.5-.7 2.3-.1.3-.2.6-.3.8l-1.2 3.6c-.1.2-.1.4-.2.6-.4 1.1-.7 2.1-1.1 3.2-.1.2-.2.5-.3.7-.4 1.2-.9 2.4-1.4 3.5-.1.2-.2.4-.2.6-.4 1-.8 1.9-1.2 2.8-.2.3-.3.7-.5 1-.4.8-.7 1.6-1.1 2.4-.1.3-.3.6-.4.9-.3.6-.6 1.3-.9 1.9-.3.5-.5 1.1-.8 1.6l-.9 1.8c-.3.5-.5 1-.8 1.5-.3.6-.6 1.1-1 1.7-.3.5-.6 1-.8 1.5-.3.6-.7 1.1-1 1.7-.3.5-.6.9-.9 1.4-.4.7-.9 1.3-1.3 2l-.6.9c-.6.9-1.3 1.9-2 2.8-.1.1-.2.2-.2.3l-1.8 2.4c-.2.3-.5.6-.7.9-.4.6-.9 1.1-1.3 1.7-.3.3-.6.7-.8 1-.4.5-.8 1-1.3 1.5-.3.3-.6.7-.9 1-.4.5-.8.9-1.2 1.3-.3.3-.6.7-1 1-.4.4-.8.8-1.2 1.3-.3.3-.7.6-1 1l-1.2 1.2c-.3.3-.7.6-1 .9-.4.4-.8.8-1.3 1.1-.3.3-.7.6-1 .9-.4.4-.9.7-1.3 1.1-.3.3-.7.6-1 .8-.4.4-.9.7-1.3 1-.3.3-.7.5-1 .8-.5.3-.9.7-1.4 1-.3.2-.7.5-1 .7-.5.3-1 .7-1.5 1-.3.2-.6.4-1 .6-.5.4-1.1.7-1.6 1.1-.3.2-.5.3-.8.5-.8.5-1.6 1-2.5 1.5l19-11.1c.8-.5 1.6-1 2.5-1.5.3-.2.5-.3.8-.5.5-.3 1.1-.7 1.6-1.1.3-.2.6-.4 1-.6.5-.3 1-.7 1.5-1 .3-.2.7-.5 1-.7.5-.3.9-.7 1.4-1 .3-.3.7-.5 1-.8.4-.3.9-.7 1.3-1 .3-.3.7-.6 1-.8.4-.4.9-.7 1.3-1.1.3-.3.7-.6 1-.9.4-.4.8-.7 1.3-1.1.3-.3.7-.6 1-.9l1.2-1.2c.3-.3.7-.6 1-1 .4-.4.8-.8 1.2-1.3.3-.3.6-.7 1-1 .4-.4.8-.9 1.2-1.3.3-.3.6-.7.9-1 .4-.5.8-1 1.3-1.5.3-.3.6-.7.8-1 .4-.5.9-1.1 1.3-1.7.2-.3.5-.6.7-.9.6-.8 1.2-1.5 1.8-2.3l.3-.3c.7-.9 1.3-1.8 1.9-2.8l.6-.9 1.2-1.8c0-.1.1-.1.1-.2.3-.5.6-.9.9-1.4.3-.6.7-1.1 1-1.7l.9-1.5c.3-.6.7-1.1 1-1.7.3-.5.6-1 .8-1.5l.9-1.8c.3-.5.5-1.1.8-1.6.2-.5.5-.9.7-1.4.1-.2.1-.3.2-.5.1-.3.3-.6.4-.9.4-.8.7-1.6 1.1-2.4.2-.3.3-.7.5-1 .4-.9.8-1.9 1.2-2.8.1-.2.2-.4.2-.6.4-1 .8-2 1.2-3.1.1-.1.1-.3.2-.4.1-.2.2-.5.3-.7.4-1 .7-2.1 1.1-3.2.1-.2.1-.4.2-.6l1.2-3.6c.1-.3.2-.6.3-.8.1-.4.2-.8.4-1.2.1-.4.2-.8.3-1.1.3-.9.5-1.9.8-2.8.2-.6.3-1.3.5-2 .2-1 .5-2 .7-3 .1-.4.2-.8.3-1.3.1-.2.1-.5.2-.7.2-.9.4-1.9.6-2.9.1-.7.3-1.4.4-2.1.2-1 .4-2.1.6-3.1.1-.5.2-1.1.3-1.6 0-.1 0-.3.1-.4.1-.9.3-1.7.4-2.6.1-.8.3-1.6.4-2.4.1-.9.2-1.8.4-2.7.1-.7.2-1.4.3-2.2 0-.2 0-.3.1-.5 0-.2.1-.5.1-.7.2-1.6.4-3.2.5-4.9.2-1.9.4-3.9.6-5.8.1-.6.1-1.3.2-1.9.1-1.3.2-2.7.3-4.1 0-.3 0-.5.1-.8.1-.7.1-1.5.2-2.2.1-.7.1-1.4.2-2.1l.3-3.6c0-.6.1-1.2.1-1.8.1-1.8.2-3.6.4-5.4v-.1c.1-1.8.2-3.7.3-5.5 0-.6.1-1.2.1-1.9.1-1.3.1-2.5.2-3.8 0-.7.1-1.5.1-2.2.1-1.2.1-2.3.2-3.5 0-.8.1-1.6.1-2.4.1-1.1.1-2.3.2-3.4 0-.8.1-1.6.1-2.4 0-.5 0-1 .1-1.5v-1.2c.1-2.3.2-4.6.3-7V488c.1-2.7.2-5.3.3-8 0-.7 0-1.4.1-2 .1-2.3.1-4.5.2-6.8v-1.5c.1-2.7.1-5.4.2-8v-1.9c0-2.2.1-4.5.1-6.7v-1.8c0-2.7.1-5.3.1-8v-1.7c0-2.2 0-4.4.1-6.6v-2c0-2.6 0-5.3.1-7.9v-6.5c-.3-1-.3-2.5-.2-3.9z" class="colorF5A158 svgShape"/><path fill="#ff6103" d="m441.1 364.3-.3-.3c-.8-.7-1.7-1.4-2.5-2.1-.3-.3-.6-.6-1-.8-.6-.5-1.2-1.1-1.9-1.6-.4-.3-.7-.7-1.1-1-.6-.5-1.1-1-1.7-1.6l-1.2-1.2-1.5-1.5c-.4-.4-.8-.8-1.2-1.3-.5-.5-.9-1-1.4-1.4-.4-.4-.8-.9-1.2-1.4-.4-.5-.8-.9-1.3-1.4-.4-.5-.8-.9-1.2-1.4l-1.2-1.5c-.4-.4-.7-.9-1.1-1.4-.4-.5-.9-1.1-1.3-1.7-.3-.4-.7-.8-1-1.3-.5-.7-1-1.4-1.6-2-.3-.4-.5-.7-.8-1.1-1.1-1.5-2.2-3-3.2-4.5-.2-.2-.3-.5-.5-.7-.7-1-1.3-2-2-3-.3-.4-.5-.8-.8-1.2-.6-.9-1.1-1.9-1.7-2.8-.3-.4-.5-.8-.8-1.3-.2-.4-.5-.8-.7-1.2-.4-.6-.7-1.3-1.1-1.9-.2-.4-.5-.8-.7-1.3-.3-.6-.6-1.1-.9-1.7-.4-.7-.8-1.5-1.1-2.2-.3-.5-.5-1-.8-1.6-.3-.6-.5-1.1-.8-1.7-.3-.6-.6-1.2-.8-1.8-.2-.5-.4-.9-.6-1.4-.3-.6-.6-1.3-.9-1.9-.2-.5-.4-.9-.6-1.4-.3-.7-.5-1.3-.8-2-.2-.4-.4-.9-.5-1.3-.3-.7-.5-1.4-.8-2-.2-.4-.3-.9-.5-1.3-.3-.7-.5-1.4-.7-2.1-.2-.4-.3-.9-.5-1.3-.2-.7-.5-1.4-.7-2.1-.1-.4-.3-.9-.4-1.3-.2-.7-.4-1.4-.6-2.2-.1-.4-.3-.9-.4-1.3-.2-.8-.4-1.5-.6-2.3l-.3-1.2c-.3-1.2-.6-2.3-.8-3.4 0-.1 0-.2-.1-.3-.2-1-.4-2.1-.6-3.1-.1-.3-.1-.7-.2-1-.1-.8-.3-1.6-.4-2.4-.1-.4-.1-.8-.2-1.3l-.3-2.1c-.1-.4-.1-.9-.1-1.3-.1-.7-.1-1.3-.2-2 0-.5-.1-.9-.1-1.4 0-.6-.1-1.3-.1-1.9 0-.5 0-.9-.1-1.4 0-.8-.1-1.6-.1-2.4l-19 11.1v1.3c0 .4 0 .8.1 1.2 0 .5 0 .9.1 1.4v.5c0 .4.1.9.1 1.4 0 .5.1.9.1 1.4v.4c.1.5.1 1.1.2 1.6 0 .4.1.9.1 1.3v.3l.3 1.8c.1.4.1.8.2 1.3v.2c.1.7.3 1.5.4 2.2.1.3.1.7.2 1v.1c.2 1 .4 2 .6 3.1 0 .1 0 .2.1.3.2 1.1.5 2.3.8 3.4l.3 1.2c.2.7.4 1.5.6 2.2v.1c.1.4.3.9.4 1.3.2.7.4 1.3.6 2v.1c.1.5.3.9.4 1.4.2.6.4 1.3.6 1.9 0 .1 0 .1.1.2.1.4.3.9.5 1.3l.6 1.8c0 .1.1.2.1.3.2.4.3.9.5 1.3l.6 1.5c.1.2.1.3.2.5.2.4.4.9.5 1.3.2.4.3.8.5 1.3.1.2.2.5.3.7.2.5.4.9.6 1.4.1.3.3.7.4 1 .1.3.3.6.4.9.2.5.4.9.6 1.4.1.3.2.5.4.8.2.3.3.7.5 1 .3.6.5 1.1.8 1.7.1.2.2.5.3.7.1.3.3.6.4.9.4.7.7 1.5 1.1 2.2.1.3.3.5.4.8.2.3.3.6.5.9.2.4.5.8.7 1.3.4.6.7 1.3 1.1 1.9.2.4.5.8.7 1.2.1.2.2.3.3.5.2.3.3.5.5.8.6.9 1.1 1.9 1.7 2.8.3.4.5.8.8 1.2.6 1 1.3 2 2 3 .1.2.3.4.4.6l.1.1c1 1.5 2.1 3 3.2 4.5.1.2.2.3.3.5.2.2.3.4.5.6.5.7 1 1.4 1.6 2.1.2.3.4.6.6.8.1.1.2.3.3.4.4.6.9 1.1 1.3 1.7.3.3.5.7.8 1 .1.1.2.2.3.4l1.2 1.5c.3.4.6.7.9 1.1l.3.3c.4.5.8.9 1.3 1.4.3.3.6.7.9 1l.3.3c.5.5.9 1 1.4 1.4.3.3.6.7 1 1l.3.3 1.5 1.5 1 1 .2.2c.6.5 1.1 1.1 1.7 1.6l.9.9.1.1c.6.6 1.2 1.1 1.9 1.6.3.2.6.5.9.8 0 0 .1 0 .1.1.8.7 1.7 1.4 2.5 2.1l.3.3 19.2-11.3z" class="colorDB8918 svgShape"/><path fill="#f5b358" d="M267.1 204.1c.8.5 1.6 1 2.4 1.4.6.4 1.2.7 1.9 1.1.8.5 1.6.9 2.3 1.4.6.4 1.2.7 1.8 1.1.8.5 1.5.9 2.3 1.4.6.4 1.2.7 1.8 1.1.8.5 1.5.9 2.3 1.4.6.4 1.2.7 1.8 1.1.8.5 1.5.9 2.3 1.4.6.4 1.2.7 1.7 1.1.8.5 1.5 1 2.3 1.4.5.3 1.1.7 1.6 1l2.4 1.5c.5.3 1 .6 1.4.9.9.6 1.8 1.2 2.8 1.8.4.2.7.5 1.1.7 1.3.8 2.5 1.6 3.7 2.4l.9.6c.9.6 1.9 1.2 2.8 1.8.5.3.9.6 1.4.9.8.5 1.5 1 2.3 1.5.5.3 1 .7 1.5 1 .7.5 1.4.9 2.1 1.4.5.3 1 .7 1.5 1 .7.4 1.3.9 2 1.3.5.4 1 .7 1.6 1.1.6.4 1.3.9 1.9 1.3.5.4 1 .7 1.6 1.1.6.4 1.2.8 1.8 1.3.5.4 1.1.7 1.6 1.1l1.8 1.2c.5.4 1 .7 1.6 1.1.6.4 1.2.8 1.7 1.2.5.4 1 .7 1.5 1.1.6.4 1.1.8 1.7 1.2.5.4 1 .7 1.5 1.1.6.4 1.1.8 1.7 1.2.5.3 1 .7 1.4 1 .6.4 1.1.8 1.7 1.2.5.3.9.7 1.4 1 .6.4 1.1.8 1.7 1.2.5.3.9.7 1.4 1 .6.4 1.1.8 1.7 1.2.4.3.9.6 1.3.9.5.4 1.1.8 1.6 1.2.4.3.9.6 1.3 1 .6.4 1.1.8 1.7 1.2l1.2.9c.6.4 1.1.8 1.7 1.3.4.3.8.6 1.1.8.6.4 1.1.9 1.7 1.3.3.3.7.5 1 .8.6.5 1.2.9 1.8 1.4.3.2.6.4.8.6 1.8 1.4 3.5 2.7 5.2 4 .3.2.5.4.8.6.6.5 1.2.9 1.8 1.4l19-11.1-.1-.1c-.5-.4-1.1-.9-1.6-1.3-.3-.2-.5-.4-.8-.6-1.7-1.3-3.4-2.7-5.2-4-.3-.2-.6-.4-.8-.6-.6-.5-1.2-.9-1.8-1.4-.3-.3-.7-.5-1-.8-.6-.4-1.1-.9-1.7-1.3-.4-.3-.8-.6-1.1-.9-.5-.4-1.1-.8-1.7-1.2l-1.2-.9c-.5-.4-1.1-.8-1.6-1.2-.4-.3-.9-.6-1.3-1-.5-.3-.9-.7-1.4-1-.1-.1-.2-.1-.3-.2-.4-.3-.9-.6-1.3-.9-.6-.4-1.1-.8-1.7-1.2-.4-.3-.9-.7-1.4-1-.6-.4-1.1-.8-1.7-1.2-.5-.3-.9-.7-1.4-1-.6-.4-1.1-.8-1.7-1.2-.5-.3-.9-.7-1.4-1-.6-.4-1.1-.8-1.7-1.2-.5-.3-1-.7-1.5-1-.6-.4-1.1-.8-1.7-1.2-.5-.4-1-.7-1.5-1.1l-1.8-1.2c-.5-.4-1-.7-1.5-1.1l-1.8-1.2c-.5-.4-1-.7-1.6-1.1-.3-.2-.5-.4-.8-.5-.3-.2-.7-.5-1.1-.7-.5-.4-1-.7-1.5-1.1-.6-.4-1.3-.9-1.9-1.3-.5-.4-1-.7-1.6-1.1-.7-.4-1.3-.9-2-1.3-.5-.3-1-.7-1.5-1-.7-.5-1.4-.9-2.1-1.4-.5-.3-1-.7-1.5-1-.7-.5-1.5-1-2.3-1.5-.5-.3-.9-.6-1.4-.9l-2.7-1.8c-.3-.2-.6-.4-1-.6-1.2-.8-2.5-1.6-3.7-2.4-.4-.2-.7-.5-1.1-.7-.8-.5-1.7-1.1-2.5-1.6-.1 0-.1-.1-.2-.1-.5-.3-.9-.6-1.4-.9l-2.4-1.5c-.5-.3-1.1-.7-1.6-1-.8-.5-1.5-1-2.3-1.4-.6-.4-1.2-.7-1.7-1.1-.7-.5-1.5-.9-2.3-1.4-.6-.4-1.2-.7-1.8-1.1-.8-.5-1.5-.9-2.3-1.4-.6-.4-1.2-.7-1.8-1.1-.8-.5-1.5-.9-2.3-1.4-.6-.4-1.2-.7-1.8-1.1-.8-.5-1.6-.9-2.3-1.4-.6-.4-1.2-.7-1.9-1.1-.8-.5-1.6-1-2.4-1.4-.6-.4-1.2-.7-1.9-1.1-.2-.1-.5-.3-.7-.4-.2-.1-.5-.3-.7-.4-2.3-1.4-4.6-2.7-7-4.1l-5.7-3.3c-.5-.3-1-.6-1.6-.9-1.5-.9-3-1.7-4.5-2.5-.4-.2-.8-.4-1.2-.7l-5.4-3c-.4-.2-.8-.4-1.2-.7-1.4-.8-2.9-1.6-4.3-2.3-.3-.2-.6-.3-.8-.5-.3-.2-.6-.3-.9-.5-.6-.3-1.1-.6-1.7-.9-.8-.4-1.5-.8-2.3-1.2-.6-.3-1.1-.6-1.7-.9-.8-.4-1.5-.8-2.3-1.2-.5-.3-1.1-.6-1.6-.8-.8-.4-1.5-.8-2.3-1.2-.5-.3-1-.5-1.5-.8-.8-.4-1.7-.9-2.5-1.3l-1.2-.6c-1.2-.6-2.5-1.3-3.7-1.9h-.1l-3.6-1.8-1.2-.6c-.6-.3-1.3-.6-1.9-1-.1 0-.2-.1-.3-.1-1.9-.9-3.8-1.9-5.7-2.8-.3-.2-.7-.3-1-.5-1.8-.9-3.7-1.8-5.4-2.6-.3-.1-.6-.3-.9-.4-1.8-.9-3.7-1.7-5.4-2.5-.1-.1-.3-.1-.4-.2-1.8-.8-3.5-1.6-5.2-2.4-.1-.1-.2-.1-.4-.2-.1 0-.1 0-.2-.1-1.7-.8-3.4-1.5-5-2.2-.3-.1-.6-.2-.8-.4-1.6-.7-3.2-1.4-4.7-2-.3-.1-.6-.2-.8-.4-1.6-.7-3.1-1.3-4.6-1.9-.2-.1-.3-.1-.5-.2L177 138c-.1 0-.2-.1-.3-.1h-.1c-1.1-.4-2.2-.9-3.2-1.3-.3-.1-.5-.2-.8-.3-.8-.3-1.6-.6-2.3-.9-.4-.1-.7-.3-1-.4-.7-.3-1.4-.5-2.1-.8l-.9-.3c-1-.4-2-.7-2.9-1.1l-19 11.1c1 .4 1.9.7 2.9 1.1l.9.3c.7.3 1.4.5 2.2.8.3.1.7.3 1 .4l2.4.9c.3.1.5.2.8.3 1.1.4 2.1.8 3.2 1.3.1.1.3.1.4.2l4.5 1.8c.2.1.3.1.5.2 1.5.6 3.1 1.3 4.7 1.9.3.1.5.2.8.3 1.6.7 3.1 1.3 4.7 2 .3.1.6.2.8.4 1.6.7 3.3 1.5 5 2.2.2.1.3.2.5.2 1.7.8 3.5 1.6 5.2 2.4.1.1.2.1.4.2 1.8.8 3.6 1.7 5.4 2.5.3.1.6.3.9.4 1.8.8 3.6 1.7 5.4 2.6.3.2.7.3 1 .5 1.9.9 3.8 1.8 5.7 2.8.7.4 1.4.7 2.2 1.1l1.2.6c1.1.6 2.3 1.2 3.5 1.7.1 0 .1.1.2.1 1.2.6 2.4 1.2 3.7 1.9l1.2.6c.8.4 1.7.9 2.5 1.3.5.3 1 .5 1.5.8.8.4 1.5.8 2.3 1.2.5.3 1.1.6 1.6.8.8.4 1.5.8 2.3 1.2.6.3 1.1.6 1.7.9.8.4 1.5.8 2.3 1.2.6.3 1.1.6 1.7.9.6.3 1.1.6 1.7.9 1.4.8 2.8 1.5 4.3 2.3.4.2.8.4 1.2.7l5.4 3c.4.2.8.4 1.2.7 1.5.8 3 1.7 4.5 2.5.5.3 1 .6 1.6.9l5.7 3.3c2.4 1.4 4.7 2.7 7 4.1.5.3.9.5 1.4.8.3.3.9.6 1.5 1z" class="colorF5A158 svgShape"/><path fill="#ffbd61" d="M256.8 198.1c48.8 28.2 86.1 54.7 112.7 75.7.6 35.5 22.5 77.9 52.5 101.6.8 52.7.8 131.5-4.8 187.4-13 129.4-113.7 123.6-149.3 117.4-4-.7-8.2-2.3-12.4-4.7-4.2-2.4-8.4-5.7-12.4-9.6C207.6 631 107.1 520.7 95 376.8c-5.3-62.1-4.9-140.7-3.8-192.3 30.1 11 52.2-6 52.9-40.7 26.6 9.6 64 26.1 112.7 54.3z" class="colorFFC861 svgShape"/><path fill="#f07f3c" d="M253.2 299.1c-57.9-33.5-105-6.6-105.2 60-.2 66.5 46.6 147.6 104.6 181.1 57.9 33.4 105 6.6 105.2-59.9.1-66.7-46.7-147.8-104.6-181.2z" class="colorF03C3C svgShape"/><path fill="#f7eee9" d="M283.1 413.2c2.9 1.7 5.8 4.6 8 8.4 4.4 7.6 4.4 15.8-.1 18.3l-75.8 43.2c-2.2 1.3-5.1.9-8-.8-2.9-1.7-5.7-4.6-7.9-8.4l-40.1-69.5c-4.4-7.6-4.4-15.8.1-18.3 2.2-1.3 5.1-.9 8 .8 2.9 1.7 5.8 4.6 8 8.4l32.2 55.7 67.8-38.6c2-1.3 4.9-.9 7.8.8z" class="colorE9F0F7 svgShape"/><path fill="#773611" d="M355.4 503.7c.3-1.3.4-2.6.7-3.9.3-1.7.6-3.4.9-5.2 0-.4 0-.8.1-1.1.5-4.3.8-8.7.8-13.3 0-1.4 0-2.8-.1-4.2-.1-2.2-.2-4.4-.4-6.7-.1-.7-.1-1.5-.1-2.2-.3-3.4-.7-6.9-1.2-10.3-.1-.4-.1-.8-.2-1.2-.2-1.2-.4-2.4-.6-3.7-.5-2.8-1-5.6-1.7-8.4-.3-1.4-.7-2.9-1-4.3-.3-1.2-.6-2.5-.9-3.7-.3-1.1-.7-2.2-1-3.3-.7-2.4-1.4-4.8-2.1-7.1-.7-2.1-1.4-4.2-2.1-6.2-.8-2.4-1.7-4.7-2.6-7.1-.4-1.1-.8-2.3-1.3-3.4s-1-2.3-1.5-3.4c-.6-1.5-1.2-2.9-1.9-4.4-1.2-2.7-2.5-5.3-3.8-8-.6-1.3-1.2-2.6-1.9-3.9-1.8-3.5-3.6-6.9-5.6-10.3-.2-.4-.4-.8-.7-1.2-2.2-3.8-4.5-7.5-6.8-11.1-.7-1.1-1.5-2.2-2.2-3.3-1.7-2.5-3.4-5-5.2-7.5-.9-1.3-1.9-2.5-2.8-3.8-1.7-2.3-3.5-4.5-5.3-6.7-1-1.2-1.9-2.4-2.9-3.6-2-2.3-4-4.6-6.1-6.9-.8-.9-1.6-1.8-2.5-2.7-.2-.3-.5-.5-.7-.8-1.2-1.3-2.5-2.4-3.8-3.7-1.8-1.8-3.6-3.6-5.4-5.3-1.5-1.4-3.1-2.7-4.6-4.1-1.9-1.6-3.7-3.2-5.6-4.8-.3-.3-.6-.6-1-.8-2.8-2.2-5.6-4.3-8.4-6.2-.1 0-.1-.1-.2-.1-2.8-1.9-5.6-3.7-8.4-5.5-.7-.4-1.4-.9-2.2-1.3-3.2-1.9-6.4-3.5-9.6-5-.7-.3-1.5-.7-2.2-1-.7-.3-1.4-.7-2.1-1-2-.9-4-1.5-5.9-2.2-.6-.2-1.2-.5-1.8-.7-2.8-.9-5.6-1.8-8.3-2.4-.3-.1-.5-.1-.8-.1-1.3-.3-2.5-.4-3.7-.7-1.9-.3-3.8-.7-5.7-.9-1.3-.1-2.5-.2-3.8-.2-1.2-.1-2.5-.2-3.7-.2-.5 0-1.1.1-1.6.1-1 0-2 .1-3 .2-1.8.1-3.5.4-5.3.7-1 .2-1.9.3-2.9.6-1.8.4-3.5.9-5.1 1.5-.8.3-1.6.5-2.4.8-2.4.9-4.7 2-6.9 3.3L150.5 308c2.2-1.3 4.5-2.3 6.9-3.3.8-.3 1.6-.5 2.3-.8 1.7-.6 3.4-1.1 5.2-1.5.9-.2 1.9-.4 2.9-.6 1.7-.3 3.5-.5 5.2-.7 1-.1 2-.2 3-.2 1.7-.1 3.5 0 5.3.1 1.3.1 2.5.1 3.8.2 1.9.2 3.8.5 5.7.9 1.2.2 2.5.4 3.7.7 3 .7 6 1.5 9.1 2.5.6.2 1.2.5 1.7.7 2.6.9 5.3 2 8 3.2.7.3 1.5.7 2.2 1 3.2 1.5 6.4 3.1 9.6 5 3.6 2.1 7.1 4.3 10.6 6.7.1 0 .1.1.2.1 3.2 2.2 6.3 4.6 9.4 7.1 1.9 1.5 3.7 3.1 5.6 4.7 1.6 1.4 3.1 2.7 4.7 4.1 1.8 1.7 3.6 3.5 5.4 5.3 1.5 1.5 3 2.9 4.5 4.5.8.9 1.6 1.8 2.5 2.7 2 2.2 4.1 4.5 6 6.8 1 1.2 2 2.4 2.9 3.6 1.8 2.2 3.5 4.4 5.3 6.7.9 1.2 1.9 2.5 2.8 3.8 1.8 2.5 3.5 5 5.2 7.5.7 1.1 1.5 2.2 2.2 3.3 2.4 3.6 4.7 7.4 6.8 11.1.2.4.5.8.7 1.3 1.9 3.4 3.8 6.8 5.5 10.2.6 1.3 1.3 2.6 1.9 3.8 1.3 2.7 2.6 5.3 3.8 8 .6 1.4 1.3 2.9 1.9 4.3 1 2.3 1.9 4.6 2.8 6.9.9 2.4 1.8 4.7 2.6 7.1l2.1 6.3c.8 2.4 1.5 4.8 2.1 7.1.7 2.4 1.3 4.7 1.9 7.1.4 1.4.7 2.9 1 4.3.6 2.8 1.2 5.6 1.7 8.4.2 1.2.5 2.4.6 3.6.6 3.9 1.1 7.7 1.4 11.5.1.7.1 1.5.1 2.2.3 3.7.4 7.3.4 10.9 0 4.6-.3 9.1-.8 13.3-.2 2.2-.6 4.3-.9 6.3-.2 1.3-.4 2.7-.6 3.9-.5 2.4-1.1 4.7-1.8 6.9-.3.9-.4 1.8-.7 2.7-.2.6-.4 1.1-.6 1.7-1 3-2.2 5.8-3.5 8.4-.5 1-1.1 2-1.7 3-1.1 2-2.4 4-3.7 5.8-.7 1-1.4 1.9-2.1 2.8-1.4 1.7-2.9 3.4-4.5 4.9l-2.1 2.1c-2.4 2-4.8 3.9-7.5 5.5l27.8-16.2c2.7-1.6 5.1-3.4 7.5-5.4.7-.6 1.4-1.4 2.1-2.1 1.6-1.5 3.1-3.1 4.5-4.9.7-.9 1.4-1.8 2.1-2.8 1.3-1.8 2.5-3.8 3.7-5.8.6-1 1.1-2 1.7-3 1.3-2.7 2.5-5.5 3.5-8.5.2-.5.4-.9.6-1.4 0-.1 0-.2.1-.3.3-.9.5-1.8.7-2.7.8-2 1.4-4.3 1.9-6.7z" class="color114077 svgShape"/><path fill="#b47753" d="M225.3 315.2c57.9 33.4 104.7 114.5 104.6 181.1-.2 66.5-47.3 93.4-105.2 59.9-57.9-33.5-104.7-114.5-104.6-181.1.2-66.5 47.3-93.3 105.2-59.9zM291 439.9c4.4-2.5 4.4-10.7.1-18.3-2.2-3.8-5.1-6.7-8-8.4-2.9-1.7-5.8-2.1-8-.8L207.3 451l-32.2-55.7c-2.2-3.8-5.1-6.7-8-8.4-2.9-1.7-5.8-2.1-8-.8-4.4 2.5-4.4 10.7-.1 18.3l40.1 69.5c2.2 3.8 5.1 6.7 7.9 8.4 2.9 1.7 5.8 2.1 8 .8l76-43.2z" class="color5386B4 svgShape"/><path fill="#ffbf66" d="m1787.7 401.2-404.5-233.6c-41.4-23.9-75.1-4.7-75.2 42.9-.1 47.6 33.3 105.6 74.7 129.5l404.5 233.6c41.4 23.9 75.1 4.7 75.2-42.9.2-47.6-33.2-105.6-74.7-129.5z" class="colorFF8666 svgShape"/><path fill="#f7eee9" d="M1525.6 309c2 1.1 3.6 2.3 4.8 3.4 1.2 1.1 2 2.3 2.5 3.6.7 1.9 1 4.3 1 7.3v5.5l5 1c2.2.5 3.6.9 4.3 1.3 2.4 1.4 4.3 5 5.7 10.7.5 2.4.8 4.3.8 5.6 0 1.3-.4 2.3-1 2.9-.7.6-1.4.9-2.2.9-.8 0-1.9-.2-3.4-.4l-4.3-1 3.4 7.4.8 1.9c.9 2.2 1.3 3.8 1.3 4.7 0 2.3-1.3 3.7-4 4.4-2.7.7-4.6.7-5.8 0-1.2-.7-2.1-1.5-2.9-2.5-1-1.4-2.1-3.3-3.3-5.9l-3-6.4-3.8 3.7c-1.5 1.7-3 2.1-4.6 1.3-1.5-.9-3.7-3.3-6.5-7.2-2.8-3.9-4.1-6.9-4.1-9.1 0-1.3.7-2.7 2.2-4.2l3.4-3.5-4.3-4c-2.5-2-4.3-4.2-5.5-6.6-.7-1.4-1-2.8-1-4.2 0-1.4.2-2.9.7-4.3 1.5-4.3 3.5-5.8 6-4.3 1 .6 2.3 1.7 4.1 3.4l5.2 4.9v-6.1c0-2.7.3-4.5.9-5.4.6-.9 1.5-1.2 2.7-.9 1.3.2 2.9.9 4.9 2.1zM1585.4 343.5c2 1.1 3.6 2.3 4.8 3.4 1.2 1.1 2 2.3 2.5 3.6.7 1.9 1 4.3 1 7.3v5.5l5 1c2.2.5 3.6.9 4.3 1.3 2.4 1.4 4.3 5 5.7 10.7.5 2.4.8 4.3.8 5.6 0 1.3-.4 2.3-1 2.9-.7.6-1.4.9-2.2.9-.8 0-1.9-.2-3.4-.4l-4.3-1 3.4 7.4.8 1.9c.9 2.2 1.3 3.8 1.3 4.7 0 2.3-1.3 3.7-4 4.4-2.7.7-4.6.7-5.8 0-1.2-.7-2.1-1.5-2.9-2.5-1-1.4-2.1-3.3-3.3-5.9l-3-6.4-3.8 3.7c-1.5 1.7-3 2.1-4.6 1.3-1.5-.9-3.7-3.3-6.5-7.2-2.8-3.9-4.1-6.9-4.1-9.1 0-1.3.7-2.7 2.2-4.2l3.4-3.5-4.3-4c-2.5-2-4.3-4.2-5.5-6.6-.7-1.4-1-2.8-1-4.2 0-1.4.2-2.9.7-4.3 1.5-4.3 3.5-5.8 6-4.3 1 .6 2.3 1.7 4.1 3.4l5.2 4.9v-6.1c0-2.7.3-4.5.9-5.4.6-.9 1.5-1.2 2.7-.9 1.3.2 2.9.9 4.9 2.1zM1645.1 378c2 1.1 3.6 2.3 4.8 3.4 1.2 1.1 2 2.3 2.5 3.6.7 1.9 1 4.3 1 7.3v5.5l5 1c2.2.5 3.6.9 4.3 1.3 2.4 1.4 4.3 5 5.7 10.7.5 2.4.8 4.3.8 5.6 0 1.3-.3 2.3-1 2.9-.7.6-1.4.9-2.2.9-.8 0-1.9-.2-3.4-.4l-4.3-1 3.4 7.4.8 1.9c.9 2.2 1.3 3.8 1.3 4.7 0 2.3-1.3 3.7-4 4.4-2.7.7-4.6.7-5.8 0-1.2-.7-2.1-1.5-2.9-2.5-1-1.4-2.1-3.3-3.3-5.9l-3-6.4-3.8 3.7c-1.5 1.7-3 2.1-4.6 1.3s-3.7-3.3-6.5-7.2c-2.8-3.9-4.1-6.9-4.1-9.1 0-1.3.7-2.7 2.2-4.2l3.4-3.5-4.3-4c-2.5-2-4.3-4.2-5.5-6.6-.7-1.4-1-2.8-1-4.2 0-1.4.2-2.9.7-4.3 1.5-4.3 3.5-5.8 6-4.3 1 .6 2.3 1.7 4.1 3.4l5.2 4.9v-6.1c0-2.7.3-4.5.9-5.4.6-.9 1.5-1.2 2.7-.9 1.3.2 2.9.9 4.9 2.1zM1704.8 412.5c2 1.1 3.6 2.3 4.8 3.4 1.2 1.1 2 2.3 2.5 3.6.7 1.9 1 4.3 1 7.3v5.5l5 1c2.2.5 3.6.9 4.3 1.3 2.4 1.4 4.3 5 5.7 10.7.5 2.4.8 4.3.8 5.6 0 1.3-.4 2.3-1 2.9-.7.6-1.4.9-2.2.9-.8 0-1.9-.2-3.4-.4l-4.3-1 3.4 7.4.8 1.9c.9 2.2 1.3 3.8 1.3 4.7 0 2.3-1.3 3.7-4 4.4-2.7.7-4.6.7-5.8 0-1.2-.7-2.1-1.5-2.9-2.5-1-1.4-2.1-3.3-3.3-5.9l-3-6.4-3.8 3.7c-1.5 1.7-3 2.1-4.6 1.3-1.5-.9-3.7-3.3-6.5-7.2-2.8-3.9-4.1-6.9-4.1-9.1 0-1.3.7-2.7 2.2-4.2l3.4-3.5-4.3-4c-2.5-2-4.3-4.2-5.5-6.6-.7-1.4-1-2.8-1-4.2 0-1.4.2-2.9.7-4.3 1.5-4.3 3.5-5.8 6-4.3 1 .6 2.3 1.7 4.1 3.4l5.2 4.9v-6.1c0-2.7.3-4.5.9-5.4.6-.9 1.5-1.2 2.7-.9 1.4.2 3 .9 4.9 2.1zM1764.6 446.9c2 1.1 3.6 2.3 4.8 3.4 1.2 1.1 2 2.3 2.5 3.6.7 1.9 1 4.3 1 7.3v5.5l5 1c2.2.5 3.6.9 4.3 1.3 2.4 1.4 4.3 5 5.7 10.7.5 2.4.8 4.3.8 5.6 0 1.3-.4 2.3-1 2.9-.7.6-1.4.9-2.2.9-.8 0-1.9-.2-3.4-.4l-4.3-1 3.4 7.4.8 1.9c.9 2.2 1.3 3.8 1.3 4.7 0 2.3-1.3 3.8-4 4.4-2.7.7-4.6.7-5.8 0-1.2-.7-2.1-1.5-2.9-2.5-1-1.4-2.1-3.3-3.3-5.9l-3-6.4-3.8 3.7c-1.5 1.7-3 2.1-4.6 1.3-1.5-.9-3.7-3.3-6.5-7.2-2.8-3.9-4.1-6.9-4.1-9.1 0-1.3.7-2.7 2.2-4.2l3.4-3.5-4.3-4c-2.5-2-4.3-4.2-5.5-6.6-.7-1.4-1-2.8-1-4.2 0-1.4.2-2.9.7-4.3 1.5-4.3 3.5-5.8 6-4.3 1 .6 2.3 1.7 4.1 3.4l5.2 4.9v-6.1c0-2.7.3-4.5.9-5.4.6-.9 1.5-1.2 2.7-.9 1.3.3 2.9 1 4.9 2.1zM1406.1 240c2 1.1 3.6 2.3 4.8 3.4 1.2 1.1 2 2.3 2.5 3.6.7 1.9 1 4.3 1 7.3v5.5l5 1c2.2.5 3.6.9 4.3 1.3 2.4 1.4 4.3 5 5.7 10.7.5 2.4.8 4.3.8 5.6 0 1.3-.4 2.3-1 2.9-.7.6-1.4.9-2.2.9-.8 0-1.9-.2-3.4-.4l-4.3-1 3.4 7.4.8 1.9c.9 2.2 1.3 3.8 1.3 4.7 0 2.3-1.3 3.8-4 4.4-2.7.7-4.6.7-5.8 0-1.2-.7-2.1-1.5-2.9-2.5-1-1.4-2.1-3.3-3.3-5.9l-3-6.4-3.8 3.7c-1.5 1.7-3 2.1-4.6 1.3-1.5-.9-3.7-3.3-6.5-7.2-2.8-3.9-4.1-6.9-4.1-9.1 0-1.3.7-2.7 2.2-4.2l3.4-3.5-4.3-4c-2.5-2-4.3-4.2-5.5-6.6-.7-1.4-1-2.8-1-4.2 0-1.4.2-2.9.7-4.3 1.5-4.3 3.5-5.8 6-4.4 1 .6 2.3 1.7 4.1 3.4l5.2 4.9v-6.1c0-2.7.3-4.5.9-5.4.6-.9 1.5-1.2 2.7-.9 1.4.3 3 1.1 4.9 2.2zM1465.9 274.5c2 1.1 3.6 2.3 4.8 3.4 1.2 1.1 2 2.3 2.5 3.6.7 1.9 1 4.3 1 7.3v5.5l5 1c2.2.5 3.6.9 4.3 1.3 2.4 1.4 4.3 5 5.7 10.7.5 2.4.8 4.3.8 5.6 0 1.3-.3 2.3-1 2.9-.7.6-1.4.9-2.2.9-.8 0-1.9-.2-3.4-.4l-4.3-1 3.4 7.4.8 1.9c.9 2.2 1.3 3.8 1.3 4.7 0 2.3-1.3 3.7-4 4.4-2.7.7-4.6.6-5.8 0-1.2-.7-2.1-1.5-2.9-2.5-1-1.4-2.1-3.3-3.3-5.9l-3-6.4-3.8 3.7c-1.5 1.7-3 2.1-4.6 1.3-1.5-.9-3.7-3.3-6.5-7.2-2.8-3.9-4.1-6.9-4.1-9.1 0-1.3.7-2.7 2.2-4.2l3.4-3.5-4.3-4c-2.5-2-4.3-4.2-5.5-6.6-.7-1.4-1-2.8-1-4.2 0-1.4.2-2.9.7-4.3 1.5-4.3 3.5-5.8 6-4.3 1 .6 2.3 1.7 4.1 3.4l5.2 4.9v-6.1c0-2.7.3-4.5.9-5.4.6-.9 1.5-1.2 2.7-.9 1.3.2 2.9.9 4.9 2.1z" class="colorE9F0F7 svgShape"/><path fill="#ed8344" d="M1883.9 514.9v-.7c0-1.1-.1-2.1-.2-3.2V510.4c-.1-1-.1-2-.2-2.9v-.5c-.1-1.1-.2-2.1-.4-3.2 0-.2-.1-.5-.1-.7-.1-1.1-.3-2.2-.5-3.3v-.2c-.2-1.1-.4-2.1-.6-3.2 0-.2-.1-.5-.1-.7-.2-1.1-.4-2.2-.7-3.2 0-.2-.1-.4-.1-.6-.2-1-.5-2-.7-3 0-.2-.1-.3-.1-.5l-.9-3.3c-.1-.2-.1-.5-.2-.7-.3-1.1-.6-2.2-1-3.3v-.1l-1.5-4.8c0-.1-.1-.2-.1-.3-.5-1.5-1.1-3-1.6-4.6-.1-.2-.1-.3-.2-.5-.6-1.5-1.1-2.9-1.7-4.4-.1-.2-.1-.4-.2-.5-.6-1.5-1.2-2.9-1.9-4.3-.1-.2-.2-.4-.2-.5-.7-1.5-1.3-2.9-2-4.3-.1-.2-.1-.3-.2-.5-.7-1.5-1.5-2.9-2.2-4.4-.1-.1-.1-.2-.2-.3-.8-1.5-1.6-3.1-2.5-4.6 0 0 0-.1-.1-.1-.9-1.5-1.7-3.1-2.7-4.6v-.1c-.1-.1-.2-.2-.2-.4-.4-.7-.8-1.4-1.3-2.1-.2-.3-.3-.5-.5-.8-.4-.6-.7-1.2-1.1-1.8-.2-.3-.3-.5-.5-.8-.4-.7-.9-1.4-1.3-2-.1-.1-.2-.3-.3-.4-.5-.8-1.1-1.6-1.7-2.4-.2-.2-.3-.4-.5-.7-.4-.6-.8-1.2-1.3-1.8-.2-.3-.4-.5-.6-.8-.4-.6-.8-1.1-1.3-1.7-.2-.2-.3-.5-.5-.7-.6-.8-1.2-1.5-1.8-2.3l-.2-.2c-.5-.7-1.1-1.4-1.6-2.1-.2-.2-.4-.5-.6-.7-.4-.5-.9-1.1-1.3-1.6-.2-.2-.4-.5-.6-.7-.5-.6-1-1.1-1.5-1.7-.1-.2-.3-.3-.4-.5-.6-.7-1.3-1.4-1.9-2.1l-.5-.5c-.5-.5-1-1.1-1.5-1.6-.2-.2-.4-.5-.7-.7-.5-.5-.9-1-1.4-1.4l-.6-.6-1.9-1.9-.1-.1c-.7-.7-1.4-1.3-2-1.9l-.6-.6c-.5-.5-1-.9-1.5-1.3-.1-.1-.2-.2-.4-.3l-.3-.3c-.5-.5-1.1-1-1.7-1.4-.2-.1-.3-.3-.5-.4l-2.1-1.8c-.2-.1-.3-.3-.5-.4-.6-.5-1.1-.9-1.7-1.3-.2-.2-.5-.4-.7-.5-.5-.4-1.1-.8-1.6-1.2-.2-.2-.4-.3-.6-.5-.7-.5-1.5-1.1-2.2-1.6-.1-.1-.2-.2-.3-.2-.6-.4-1.3-.9-1.9-1.3-.2-.2-.5-.3-.7-.5-.5-.4-1.1-.7-1.6-1-.2-.1-.5-.3-.7-.4-.8-.5-1.5-.9-2.3-1.4l-404.5-233.6c-.8-.5-1.7-.9-2.5-1.4-.2-.1-.4-.2-.7-.4-.7-.4-1.4-.7-2.1-1.1-.1-.1-.3-.1-.4-.2-.8-.4-1.6-.8-2.4-1.1l-.6-.3c-.7-.3-1.3-.6-2-.8-.1-.1-.2-.1-.4-.2-.1 0-.1 0-.2-.1-.9-.4-1.7-.7-2.6-1-.2-.1-.4-.1-.6-.2-.9-.3-1.7-.6-2.5-.9h-.1c-.9-.3-1.7-.5-2.6-.7-.2 0-.4-.1-.6-.1-.8-.2-1.7-.4-2.5-.6-.1 0-.3-.1-.4-.1-.8-.2-1.5-.3-2.3-.4-.1 0-.3-.1-.4-.1l-2.4-.3c-.2 0-.3 0-.5-.1-.8-.1-1.6-.1-2.4-.2h-.1c-.8 0-1.6-.1-2.4-.1h-.5c-.8 0-1.6 0-2.4.1h-.4c-.8.1-1.5.1-2.3.2h-.1c-.8.1-1.5.2-2.3.4-.1 0-.3.1-.4.1-.7.1-1.5.3-2.2.5-.1 0-.3.1-.4.1l-2.1.6h-.1c-.7.2-1.4.5-2.1.8-.1.1-.3.1-.4.2-.7.3-1.3.6-2 .9-.1.1-.2.1-.4.2-.7.3-1.3.7-2 1.1l-21.5 12.5c.6-.4 1.3-.7 2-1.1.1-.1.2-.1.4-.2.6-.3 1.3-.6 2-.9.1-.1.3-.1.4-.2.7-.3 1.4-.5 2.1-.8h.1l2.1-.6c.1 0 .3-.1.4-.1.7-.2 1.4-.3 2.2-.5.1 0 .3-.1.4-.1.8-.1 1.5-.3 2.3-.4h.2c.7-.1 1.5-.2 2.3-.2h.4c.8 0 1.6-.1 2.4-.1h.5c.8 0 1.6 0 2.4.1h.1c.8 0 1.6.1 2.4.2.2 0 .3 0 .5.1l2.4.3c.1 0 .3 0 .4.1.7.1 1.5.3 2.3.4.1 0 .3 0 .4.1.8.2 1.7.4 2.5.6.2 0 .4.1.6.1.9.2 1.7.5 2.6.7h.1c.8.3 1.7.6 2.5.9.2.1.4.1.6.2.9.3 1.7.6 2.6 1 .2.1.4.1.5.2.7.3 1.3.6 2 .8l.6.3c.8.4 1.6.7 2.4 1.1.1.1.3.1.4.2.7.4 1.4.7 2.1 1.1.2.1.4.2.7.4.8.4 1.7.9 2.5 1.4l404.5 233.6c.8.4 1.5.9 2.3 1.4.2.1.5.3.7.4.5.3 1.1.7 1.6 1 .2.2.5.3.7.5.6.4 1.3.8 1.9 1.3.1.1.2.2.3.2.7.5 1.5 1 2.2 1.6.2.1.4.3.6.5.5.4 1.1.8 1.6 1.2.2.2.5.4.7.5.6.4 1.1.9 1.7 1.3.2.1.3.3.5.4l2.1 1.8c.2.1.3.3.5.4.6.5 1.1 1 1.7 1.4.2.2.5.4.7.6.5.4 1 .9 1.5 1.3l.6.6c.7.6 1.4 1.3 2 1.9l.1.1c.6.6 1.3 1.2 1.9 1.9l.6.6c.5.5.9 1 1.4 1.4.2.2.4.5.7.7.5.5 1 1.1 1.5 1.6l.5.5c.6.7 1.3 1.4 1.9 2.1.1.2.3.3.4.5.5.6 1 1.1 1.5 1.7.2.2.4.5.6.7.4.5.9 1 1.3 1.6.2.2.4.5.6.7.6.7 1.1 1.4 1.6 2.1l.2.2c.6.8 1.2 1.5 1.8 2.3.2.2.3.5.5.7.4.6.8 1.1 1.3 1.7.2.3.4.5.6.8.4.6.8 1.2 1.3 1.8.2.2.3.4.5.7.6.8 1.1 1.6 1.7 2.4.1.1.2.3.3.4.5.7.9 1.4 1.3 2 .2.3.3.5.5.8.4.6.7 1.2 1.1 1.8.2.3.3.5.5.8.4.7.8 1.4 1.3 2.1.1.1.2.3.3.4.9 1.5 1.8 3 2.7 4.6 0 0 0 .1.1.1.8 1.5 1.7 3 2.5 4.6.1.1.1.2.2.3.8 1.5 1.5 2.9 2.2 4.4.1.2.1.3.2.5.7 1.4 1.4 2.9 2 4.3.1.2.2.4.2.5.6 1.4 1.3 2.9 1.9 4.3.1.2.1.4.2.5.6 1.5 1.2 2.9 1.7 4.4.1.2.1.3.2.5.6 1.5 1.1 3 1.6 4.6 0 .1.1.2.1.3.5 1.6 1.1 3.2 1.5 4.8v.1c.3 1.1.7 2.2 1 3.3.1.2.1.5.2.7l.9 3.3c0 .2.1.3.1.5.2 1 .5 2 .7 3 0 .2.1.4.1.6.2 1.1.5 2.2.7 3.2 0 .2.1.5.1.7.2 1.1.4 2.1.6 3.2v.2c.2 1.1.3 2.2.5 3.3 0 .2.1.5.1.7.1 1.1.3 2.1.4 3.2v.5c.1 1 .2 2 .2 2.9v.6c.1 1.1.1 2.1.2 3.2v.7c0 1.1.1 2.2 0 3.3-.1 23.6-8.4 40.3-21.9 48.1l21.5-12.5c13.5-7.8 21.8-24.5 21.9-48.1 0-.9 0-2-.1-3.1z" class="colorED4944 svgShape"/></svg>