<svg xmlns="http://www.w3.org/2000/svg" enable-background="new 0 0 1000 1000" viewBox="0 0 1000 1000"><path fill="#d38c63" d="M433.051 743.972s-52.738-49.006-106.592-53.247c-61.069-4.809-74.329-30.074-74.329-30.074s12.073 74.509 93.58 98.869c20.814 6.221 86.639-6.632 86.639-6.632l.702-8.916z" class="color9463d3 svgShape"/><path fill="#c97341" d="M432.963 745.086s-124.939 3.168-155.556-58c0 0 33.61 74.411 155.099 63.795l.457-5.795z" class="color4150c9 svgShape"/><linearGradient id="a" x1="1102.597" x2="1102.762" y1="111.205" y2="111.205" gradientTransform="rotate(-28.169 2064.244 1718.968)" gradientUnits="userSpaceOnUse"><stop offset=".268" stop-color="#c68e3f" class="stopColor8dc63f svgShape"/><stop offset="1" stop-color="#945600" class="stopColor009444 svgShape"/></linearGradient><path fill="url(#a)" d="m458.061 756.318-.875-1.397c.005.043.007.087.01.131.269.431.551.855.865 1.266z"/><linearGradient id="b" x1="585.346" x2="727.628" y1="-.412" y2="213.01" gradientTransform="rotate(-22.301 1994.494 1070.28)" gradientUnits="userSpaceOnUse"><stop offset="0" stop-color="#d38c63" class="stopColor9463d3 svgShape"/><stop offset="1" stop-color="#c4703f" class="stopColor3f53c4 svgShape"/></linearGradient><path fill="url(#b)" d="M470.108 684.046c-4.901-1.668-10.153-2.304-14.852-4.477-1.711-.792-3.4-1.852-4.33-3.49-1.907-3.36.025-7.47.899-11.233 2.681-11.527-5.093-22.629-12.421-31.922-2.034-2.58-4.385-5.351-7.634-5.834-4.727-.702-8.501 3.638-11.463 7.387-2.963 3.749-7.402 7.734-11.897 6.112-4.451-1.605-5.377-7.647-4.126-12.21 1.417-5.171 4.582-9.727 6.035-14.89 1.453-5.162.51-11.75-4.245-14.231-5.649-2.949-12.142 1.603-17.04 5.68-4.898 4.078-12.067 8.027-17.137 4.165-2.877-2.19-3.748-6.267-3.125-9.828.624-3.563 2.474-6.771 4.195-9.952.947-1.751 1.894-3.704 1.486-5.653-.372-1.789-1.814-3.155-3.312-4.201-8.496-5.931-21.33-4.444-28.246 3.271-6.916 7.716-6.995 20.635-.174 28.435 2.587 2.958 6.272 6.666 4.306 10.068-2.581 4.467-9.513.327-14.561 1.398-4.233.898-6.624 5.885-5.927 10.157s3.688 7.813 6.96 10.646c6.293 5.45 13.912 9.083 21.111 13.268 1.149.668 2.345 1.409 2.96 2.586 1.031 1.967.07 4.406-1.279 6.17-3.042 3.977-7.783 6.184-11.931 8.986-4.152 2.8-8.114 6.947-8.012 11.953.109 5.398 4.983 9.591 10.059 11.428 5.078 1.837 10.611 2.069 15.747 3.732 1.504.488 3.072 1.181 3.883 2.539 1.251 2.099.197 4.765-.865 6.967l-17.2 35.609c-.79 1.636-1.599 3.47-1.071 5.209.261.855.823 1.583 1.418 2.251 6.318 7.084 16.934 8.904 26.273 7.2 9.338-1.703 17.824-6.357 26.355-10.521 2.362-1.154 4.807-2.291 7.428-2.498 3.675-.29 7.213 1.277 10.584 2.77a504.899 504.899 0 0 0 22.226 9.226c3.872 1.499 8.222 2.953 12.065 1.379 2.546-1.043 4.17-4.095 3.94-6.646a15.675 15.675 0 0 1-.566-1.02l.556.889c-.119-1.029-.546-1.968-1.35-2.648-2.582-6.823-.655-15.241 3.282-21.684 4.759-7.791 11.914-13.801 17.487-21.032 3.48-4.514 6.448-10.272 4.8-15.729-1.49-4.956-6.39-8.112-11.291-9.782z"/><path fill="#cb7442" d="M449.802 713.836c-7.358 1.728-13.327 6.347-16.82 13-5.544-7.411-11.709-14.159-17.83-21.073.037-.047.078-.086.107-.146a251.616 251.616 0 0 0 9.964-25.541c.312-.945-1.124-1.551-1.438-.598a251.376 251.376 0 0 1-9.74 25.025c-.622-.706-1.245-1.409-1.864-2.122-7.13-8.194-12.419-17.629-17.587-27.124.032-.053.07-.099.091-.169 2.322-7.812 3.732-15.736 4.206-23.876.059-.994-1.487-1.198-1.545-.194a103.052 103.052 0 0 1-3.782 22.344l-1.053-1.939a1150.56 1150.56 0 0 1-17.987-34.465c-.447-.892-1.89-.304-1.44.594 3.978 7.937 8.075 15.813 12.23 23.658l-6.84.214c-2.168.068-8 1.134-9.406-.875-.576-.823-1.816.121-1.242.94 1.336 1.907 3.514 1.705 5.631 1.642 4.223-.128 8.447-.265 12.672-.396 1.645 3.095 3.267 6.201 4.944 9.28 3.538 6.503 7.021 13.119 11.017 19.383l-22.252 4.618c-.975.203-.776 1.748.208 1.544l22.842-4.742c.042-.007.07-.031.107-.045 1.997 3.042 4.113 5.999 6.447 8.795 5.09 6.095 10.479 11.833 15.596 17.836-9.827-.805-19.454.729-28.551 4.617-.922.394-.33 1.835.593 1.441 9.252-3.954 18.963-5.443 28.973-4.427.122.013.232 0 .33-.032 2.292 2.741 4.527 5.543 6.633 8.477 7.284 10.152 13.73 20.866 20.167 31.564.517.86 1.754-.09 1.242-.94-6.242-10.375-12.49-20.766-19.507-30.643-.299-.42-.611-.826-.915-1.242.009-.014.022-.021.03-.038 3.169-6.523 8.916-11.144 15.98-12.802.965-.225.767-1.772-.211-1.543z" class="color4256cb svgShape"/><linearGradient id="c" x1="3992.927" x2="3993.107" y1="1655.063" y2="1655.063" gradientTransform="scale(-1 1) rotate(-28.169 -122.894 10436.244)" gradientUnits="userSpaceOnUse"><stop offset=".268" stop-color="#c68e3f" class="stopColor8dc63f svgShape"/><stop offset="1" stop-color="#945600" class="stopColor009444 svgShape"/></linearGradient><path fill="url(#c)" d="m639.449 752.998.958-1.529c-.006.047-.007.096-.011.143a17.32 17.32 0 0 1-.947 1.386z"/><linearGradient id="d" x1="3608.314" x2="3764.101" y1="1221.388" y2="1455.068" gradientTransform="scale(-1 1) rotate(-22.303 -192.761 12166.145)" gradientUnits="userSpaceOnUse"><stop offset="0" stop-color="#d38c63" class="stopColor9463d3 svgShape"/><stop offset="1" stop-color="#c4703f" class="stopColor3f53c4 svgShape"/></linearGradient><path fill="url(#d)" d="M626.259 673.867c5.367-1.826 11.117-2.522 16.262-4.902 1.873-.868 3.723-2.027 4.741-3.821 2.088-3.678-.028-8.179-.985-12.299-2.935-12.621 5.576-24.777 13.6-34.952 2.227-2.825 4.801-5.859 8.359-6.387 5.175-.768 9.308 3.983 12.551 8.088 3.244 4.104 8.105 8.468 13.026 6.692 4.874-1.758 5.887-8.372 4.518-13.369-1.552-5.662-5.017-10.651-6.607-16.303-1.59-5.652-.558-12.865 4.647-15.582 6.186-3.229 13.294 1.755 18.657 6.219 5.363 4.464 13.212 8.788 18.763 4.56 3.15-2.398 4.104-6.862 3.421-10.761-.683-3.901-2.709-7.414-4.594-10.897-1.037-1.918-2.073-4.056-1.627-6.19.408-1.959 1.986-3.454 3.627-4.599 9.302-6.493 23.354-4.866 30.927 3.581 7.572 8.448 7.659 22.594.191 31.134-2.832 3.239-6.868 7.299-4.715 11.024 2.826 4.891 10.416.358 15.943 1.53 4.635.983 7.253 6.444 6.489 11.121-.764 4.677-4.038 8.554-7.62 11.657-6.891 5.968-15.233 9.945-23.115 14.527-1.258.731-2.567 1.542-3.241 2.831-1.128 2.154-.076 4.825 1.4 6.756 3.331 4.354 8.521 6.771 13.064 9.839 4.546 3.066 8.884 7.606 8.772 13.088-.119 5.91-5.456 10.501-11.014 12.512-5.56 2.012-11.618 2.265-17.242 4.087-1.647.534-3.364 1.293-4.251 2.781-1.37 2.298-.216 5.218.947 7.628 6.279 12.996 12.555 25.994 18.832 38.989.865 1.791 1.751 3.8 1.172 5.703-.286.937-.902 1.734-1.553 2.464-6.917 7.757-18.541 9.749-28.767 7.883-10.224-1.865-19.516-6.96-28.857-11.519-2.586-1.263-5.263-2.508-8.133-2.735-4.024-.317-7.898 1.398-11.589 3.033a552.216 552.216 0 0 1-24.336 10.102c-4.24 1.641-9.003 3.233-13.211 1.51-2.787-1.142-4.566-4.484-4.314-7.277.226-.365.424-.74.619-1.117l-.609.973c.131-1.127.597-2.154 1.478-2.899 2.827-7.47.717-16.688-3.593-23.742-5.211-8.531-13.045-15.111-19.147-23.028-3.811-4.943-7.06-11.247-5.255-17.222 1.638-5.427 7.003-8.883 12.369-10.711z"/><linearGradient id="e" x1="1686.515" x2="1771.981" y1="745.841" y2="695.908" gradientTransform="matrix(-1 0 0 1 2444.417 0)" gradientUnits="userSpaceOnUse"><stop offset="0" stop-color="#d38c63" class="stopColor9463d3 svgShape"/><stop offset="1" stop-color="#fba472" class="stopColor7282fb svgShape"/></linearGradient><path fill="url(#e)" d="M644.439 743.828s42.891-33.99 83.955-33.99c46.566 0 58.123-18.355 58.123-18.355s-13.596 55.744-76.817 69.339c-16.144 3.472-65.261-10.197-65.261-10.197v-6.797z"/><path fill="#c97341" d="M644.439 744.678s94.492 9.857 121.344-34.67c0 0-29.911 54.384-121.344 39.088v-4.418z" class="color4150c9 svgShape"/><path fill="#ffffff" d="M757.16 450.684a355.955 355.955 0 0 1 1.714 6.35l-1.267.331a358.153 358.153 0 0 0-1.708-6.328l1.261-.353zm3.315 12.727c.489 2.023.99 4.159 1.495 6.403l-1.278.287a412.396 412.396 0 0 0-1.491-6.382l1.274-.308zm2.887 12.832c.432 2.079.863 4.23 1.289 6.447l-1.286.247a429.91 429.91 0 0 0-1.284-6.428l1.281-.266zm2.472 12.912c.369 2.115.73 4.278 1.077 6.485l-1.295.204a379.033 379.033 0 0 0-1.073-6.464l1.291-.225zm2.044 12.988c.3 2.139.586 4.314.856 6.518l-1.3.159a364.843 364.843 0 0 0-.852-6.494l1.296-.183zm1.593 13.053c.224 2.159.431 4.341.614 6.546l-1.304.109c-.185-2.195-.391-4.37-.614-6.52l1.304-.135zm1.104 13.103c.14 2.174.257 4.364.352 6.567l-1.308.056a314.196 314.196 0 0 0-.352-6.539l1.308-.084zm.566 13.14c.045 2.182.067 4.376.063 6.577l-1.31-.004a273.68 273.68 0 0 0-.063-6.545l1.31-.028zm-.031 13.142a253.89 253.89 0 0 1-.261 6.565l-1.307-.068c.115-2.18.2-4.358.258-6.531l1.31.034zm-.695 13.125a219.908 219.908 0 0 1-.625 6.55l-1.302-.145c.235-2.118.444-4.308.62-6.509l1.307.104zm-1.449 13.079a200.98 200.98 0 0 1-.927 5.884l-.108.617-1.289-.231.107-.61c.334-1.933.644-3.901.92-5.844l1.297.184zm-3.577 12.687 1.282.274c-.461 2.15-.965 4.307-1.502 6.412l-1.268-.324a169.956 169.956 0 0 0 1.488-6.362zm-3.229 12.661 1.254.376c-.63 2.108-1.31 4.218-2.023 6.269l-1.236-.43a154.463 154.463 0 0 0 2.005-6.215zm-4.292 12.332 1.216.486a131.707 131.707 0 0 1-2.6 6.056l-1.19-.546c.894-1.942 1.759-3.96 2.574-5.996zm-5.449 11.85 1.159.609a117.909 117.909 0 0 1-3.221 5.751l-1.124-.673a118.783 118.783 0 0 0 3.186-5.687zM745.73 641.5l1.084.736a112.26 112.26 0 0 1-3.861 5.341l-1.038-.798a110.653 110.653 0 0 0 3.815-5.279zm-7.947 10.316.988.862a105.134 105.134 0 0 1-4.492 4.83l-.931-.922a103.022 103.022 0 0 0 4.435-4.77zm-9.16 9.253.871.979a105.84 105.84 0 0 1-5.061 4.228l-.808-1.031a104.404 104.404 0 0 0 4.998-4.176zm-10.246 8.036.742 1.079a110.652 110.652 0 0 1-5.537 3.575l-.678-1.12a108.812 108.812 0 0 0 5.473-3.534zm-11.147 6.738.612 1.158a120.986 120.986 0 0 1-5.913 2.913l-.547-1.19a119.706 119.706 0 0 0 5.848-2.881zm-221.368-37.204-.219 1.291c-2.22-.375-4.372-.721-6.461-1.041l.199-1.295c2.097.322 4.254.669 6.481 1.045zm6.465 1.137c1.676.305 3.39.627 5.141.964l1.317.258-.257 1.285-1.308-.257a492.408 492.408 0 0 0-5.127-.962l.234-1.288zm-19.44-3.125-.176 1.299c-2.238-.305-4.399-.58-6.488-.824l.153-1.3c2.097.245 4.265.519 6.511.825zm32.324 5.755c2.137.508 4.279 1.059 6.369 1.637l-.349 1.264a178.232 178.232 0 0 0-6.324-1.627l.304-1.274zm-45.362-7.283-.127 1.305c-2.254-.22-4.422-.403-6.511-.558l.097-1.307c2.099.156 4.276.342 6.541.56zm58.038 10.791c2.077.658 4.174 1.365 6.231 2.101l-.44 1.232a182.74 182.74 0 0 0-6.187-2.086l.396-1.247zm-71.132-11.762-.066 1.308a287.914 287.914 0 0 0-6.531-.258l.038-1.31c2.105.06 4.287.144 6.559.26zm83.516 16.187c2.001.795 4.043 1.649 6.069 2.536l-.525 1.199a191.428 191.428 0 0 0-6.028-2.519l.484-1.216zm-96.64-16.563-.009 1.31a459.648 459.648 0 0 0-6.541.001l-.009-1.31c2.126-.013 4.304-.019 6.559-.001zm261.755 47.51.485 1.216c-.617.246-1.241.488-1.867.724a242.324 242.324 0 0 1-4.295 1.584l-.441-1.232A238.008 238.008 0 0 0 693.54 682a95.629 95.629 0 0 0 1.846-.714zm-274.865-47.445.015 1.308c-2.209.025-4.382.045-6.554.047l-.002-1.309c2.167-.002 4.338-.023 6.541-.046zm121.8 21.765c1.914.908 3.9 1.885 5.899 2.903l-.594 1.166a241.734 241.734 0 0 0-5.865-2.887l.56-1.182zm-192.602-31.989c2.165.647 4.259 1.254 6.287 1.824l-.354 1.26a378.563 378.563 0 0 1-6.309-1.83l.376-1.254zm57.727 10.207-.03 1.308a188.344 188.344 0 0 1-6.567-.254l.074-1.309c2.099.121 4.231.204 6.523.255zm-45.118-6.674c2.194.568 4.309 1.09 6.351 1.569l-.299 1.275a277.528 277.528 0 0 1-6.381-1.577l.329-1.267zm32.092 5.93-.125 1.302c-2.167-.206-4.365-.46-6.533-.753l.176-1.299c2.151.292 4.332.544 6.482.75zm-19.354-2.956c2.089.43 4.172.825 6.187 1.174l.236.041-.224 1.291-.236-.041a206.595 206.595 0 0 1-6.227-1.181l.264-1.284zm178.973 31.431a396.418 396.418 0 0 1 5.758 3.159l-.64 1.143a402.6 402.6 0 0 0-5.739-3.148l.621-1.154zm129.042 24.147.407 1.244a213.37 213.37 0 0 1-6.281 1.952l-.369-1.256a209.866 209.866 0 0 0 6.243-1.94zm-117.573-17.757 5.69 3.264-.651 1.136-5.687-3.263.648-1.137zm105.029 21.428.325 1.269a167.901 167.901 0 0 1-6.409 1.504l-.274-1.281c2.09-.446 4.228-.949 6.358-1.492zm-93.647-14.916a392.859 392.859 0 0 0 5.723 3.175l-.625 1.151a396.564 396.564 0 0 1-5.742-3.186l.644-1.14zm80.875 17.632.217 1.292a132.63 132.63 0 0 1-6.525.931l-.151-1.301c2.113-.246 4.285-.558 6.459-.922zm-69.367-11.408a171.171 171.171 0 0 0 5.868 2.857l-.552 1.189a175.678 175.678 0 0 1-5.911-2.88l.595-1.166zm56.415 12.911.08 1.307c-2.225.137-4.443.207-6.593.208l-.001-1.309c2.123-.002 4.315-.071 6.514-.206zm-44.569-7.445c2.057.839 4.11 1.61 6.102 2.294l-.425 1.24a117.9 117.9 0 0 1-6.17-2.322l.493-1.212zm31.545 7.446-.084 1.307a97.678 97.678 0 0 1-6.57-.643l.173-1.299c2.143.283 4.323.497 6.481.635zm-19.225-3.23a96.98 96.98 0 0 0 6.328 1.515l-.262 1.284a99.412 99.412 0 0 1-6.412-1.535l.346-1.264z" class="colorfff svgShape"/><linearGradient id="f" x1="314.325" x2="572.527" y1="1756.734" y2="1539.405" gradientTransform="rotate(28.382 2207.805 1049.44)" gradientUnits="userSpaceOnUse"><stop offset="0" stop-color="#d38c63" class="stopColor9463d3 svgShape"/><stop offset="1" stop-color="#c4703f" class="stopColor3f53c4 svgShape"/></linearGradient><path fill="url(#f)" d="m748.608 660.735.05-.061c.317-.366.483-.592.483-.592a17.817 17.817 0 0 0-1.164-.967l-.083-.069-.008.005c-9.684-7.324-16.749 3.834-16.749 3.834 9.264 5.875 15.65-.077 17.471-2.15z"/><linearGradient id="g" x1="311.422" x2="569.626" y1="1753.294" y2="1535.964" gradientTransform="rotate(28.382 2207.805 1049.44)" gradientUnits="userSpaceOnUse"><stop offset="0" stop-color="#d38c63" class="stopColor9463d3 svgShape"/><stop offset="1" stop-color="#c4703f" class="stopColor3f53c4 svgShape"/></linearGradient><path fill="url(#g)" d="M737.816 681.803a17 17 0 0 0-.865-1.21l-.079-.111-.008.002c-4.352-5.531-9.429-4.845-12.924-3.278 3.405-4.629 5.874-9.752 7.444-15.303.034-.001.059.005.086.003 0 0 .007-.103-.003-.274a55.329 55.329 0 0 0 1.782-9.938c.262-2.888.323-5.779.255-8.664 11.103 3.581 15.253-6.456 15.253-6.456a16.584 16.584 0 0 0-1.222-.612l-.124-.066-.014.003c-8.356-3.736-12.616 3.159-13.933 5.908-.226-5.766-1.007-11.515-1.982-17.219 11.23 3.735 15.421-6.405 15.421-6.405a16.01 16.01 0 0 0-1.227-.617l-.125-.063-.008.005c-8.953-4.005-13.213 4.216-14.171 6.439-.564-3.235-1.185-6.452-1.806-9.648a.7.7 0 0 0-.332-.51c.406-2.116 1.665-11.699-8.229-13.341l-.01-.013-.163-.019a17.884 17.884 0 0 0-1.333-.156s-.056.268-.096.736l-.005.046c-.229 2.471-.158 10.137 8.781 12.896a.908.908 0 0 0-.324.888c.325 1.686.648 3.378.969 5.077-1.939-2.938-5.493-5.856-11.541-3.863l-.012-.007-.128.051c-.413.139-.838.299-1.277.488 0 0 .081.256.254.684l.02.052.007.002c.939 2.276 4.498 8.944 13.538 7.385.52 3.015.982 6.043 1.334 9.081-1.268-1.684-3.311-3.05-6.524-3.585l-.005-.008-.162-.022a19.774 19.774 0 0 0-1.334-.153s-.055.265-.098.718l-.01.065.006.001c-.223 2.477-.151 10.165 8.839 12.907.083 4.154-.135 8.305-.797 12.428-.058.409-.152.795-.221 1.195-1.154-3.711-4.053-8.223-11.319-7.635l.001-.003-.035.004a18.45 18.45 0 0 0-1.579.198s.567 10.849 11.866 11.926c-1.599 5.456-4.171 10.378-7.521 14.745.984-3.808 1.005-9.51-5.869-12.756l-.003-.014-.122-.049a19.88 19.88 0 0 0-1.373-.573s-.123.241-.292.661l-.043.114c-.947 2.467-3.105 10.29 5.064 15.767-3.48 3.802-7.614 7.111-12.258 9.896a.298.298 0 0 0-.024.014c1.647-3.532 2.564-8.902-3.308-13.342l.003-.009-.086-.06c-.389-.289-.8-.577-1.245-.857 0 0-6.685 8.307.672 16.56-8.025 4.508-16.351 8.595-23.018 14.857.76-4.761.34-12.482-9.191-15.425l-.01-.013-.202-.052a23.287 23.287 0 0 0-1.722-.445s-4.311 12.66 8.172 18.998a36.18 36.18 0 0 0-1.922 2.357c-2.407 3.218-4.146 6.79-5.44 10.548-.361-5.061-2.701-11.68-12.126-13.081l-.004-.011-.177-.019a24.068 24.068 0 0 0-1.928-.196s-.077.401-.127 1.088l-.001.003c-.256 3.461.036 14.151 12.553 17.832.808-.182 1.672-.012 2.236.622 12.712 3.553 18.6-5.475 20.202-8.572l.011-.017c.311-.606.455-.98.455-.98a22.963 22.963 0 0 0-1.742-.84l-.168-.081-.015.006c-9.021-3.847-14.544.958-17.432 5.175 1.62-4.73 3.938-9.162 7.301-13.058.091.037.164.069.255.107 0 0 .098-.251.24-.695.179-.2.377-.391.562-.585 14.166 7.17 21.515-5.476 21.515-5.476a23.393 23.393 0 0 0-1.509-1.036l-.126-.086-.014.003c-3.085-1.919-5.858-2.515-8.287-2.312 4.243-2.557 8.683-4.815 13.01-7.257.06.056.118.115.179.167 0 0 .16-.177.413-.502.174-.1.347-.196.52-.293 7.449 7.974 15.113 3.874 17.403 2.332l-.001.003.009-.008c.44-.297.68-.494.68-.494a19.57 19.57 0 0 0-.865-1.21l-.081-.105-.007.002c-4.021-5.119-8.663-4.919-12.108-3.622 1.972-1.3 3.88-2.692 5.681-4.245a49.983 49.983 0 0 0 4.391-4.276c7.102 6.531 14.151 2.747 16.328 1.281l.006.005.002-.006c.432-.294.673-.494.673-.494z"/><linearGradient id="h" x1="2833.892" x2="2849.311" y1="-746.458" y2="-746.458" gradientTransform="scale(-1 1) rotate(44.716 -464.634 -3916.143)" gradientUnits="userSpaceOnUse"><stop offset="0" stop-color="#d38c63" class="stopColor9463d3 svgShape"/><stop offset="1" stop-color="#c4703f" class="stopColor3f53c4 svgShape"/></linearGradient><path fill="url(#h)" d="m336.717 664.426-.069-.048c-.432-.279-.669-.459-.669-.459.293-.482.596-.921.898-1.334l.064-.095.009.003c7.687-10.364 18.228-1.097 18.228-1.097-7.691 8.761-15.983 4.6-18.461 3.03z"/><linearGradient id="i" x1="2786.839" x2="2849.695" y1="-720.58" y2="-720.58" gradientTransform="scale(-1 1) rotate(44.716 -464.634 -3916.143)" gradientUnits="userSpaceOnUse"><stop offset="0" stop-color="#d38c63" class="stopColor9463d3 svgShape"/><stop offset="1" stop-color="#c4703f" class="stopColor3f53c4 svgShape"/></linearGradient><path fill="url(#i)" d="M354.022 682.687c.159-.531.334-1.022.521-1.493l.047-.137.008-.001c2.785-6.942 8.169-7.76 12.201-7.207-4.856-3.703-8.906-8.19-12.167-13.382-.035.009-.058.023-.087.028 0 0-.038-.103-.079-.28a58.753 58.753 0 0 1-4.788-9.603c-1.13-2.867-2.057-5.798-2.85-8.761-10.253 6.971-17.486-2.025-17.486-2.025a17.34 17.34 0 0 1 1.063-.989l.107-.104.015-.002c7.406-6.308 13.812-.549 15.977 1.861-1.493-5.948-2.414-12.045-3.125-18.154-10.337 7.167-17.642-1.923-17.642-1.923.356-.362.709-.69 1.067-.996l.109-.101.01.003c7.934-6.761 14.736.351 16.378 2.331-.392-3.468-.719-6.935-1.041-10.38a.743.743 0 0 1 .186-.62c-1.047-2.037-5.195-11.434 4.405-16.067l.007-.016.161-.068c.417-.193.844-.383 1.313-.558 0 0 .137.257.318.722l.019.045c.972 2.452 3.19 10.291-5.101 15.777a.965.965 0 0 1 .596.809c.173 1.816.349 3.639.529 5.467 1.1-3.576 3.852-7.614 10.616-7.389l.01-.01.145.014c.463.018.944.054 1.448.116 0 0-.007.286-.054.774l-.005.059-.006.004c-.278 2.602-1.915 10.467-11.6 11.578.371 3.23.805 6.456 1.354 9.661.789-2.096 2.465-4.101 5.583-5.607l.002-.009.159-.071c.417-.193.848-.377 1.315-.555 0 0 .135.254.315.703l.03.063-.006.003c.968 2.459 3.193 10.322-5.157 15.806 1.157 4.262 2.62 8.43 4.528 12.437.182.4.393.766.583 1.153.068-4.13 1.675-9.598 9.262-11.171l-.002-.003.037-.006a19.906 19.906 0 0 1 1.67-.271s2.665 11.235-8.537 15.71c3.262 5.086 7.356 9.337 12.078 12.79-2.142-3.589-3.868-9.399 2.174-14.764l-.001-.015.11-.086a21.1 21.1 0 0 1 1.229-.995s.197.209.496.587l.078.103c1.704 2.233 6.242 9.566-.451 17.595 4.686 2.837 9.891 4.977 15.46 6.428l.028.007c-2.735-3.11-5.276-8.312-.614-14.596l-.005-.009.07-.086c.311-.411.643-.827 1.014-1.246 0 0 9.301 6.475 4.265 17.09 9.532 2.199 19.245 3.878 27.917 8.272-2.198-4.628-4.078-12.629 4.763-18.479l.006-.016.19-.114a24.369 24.369 0 0 1 1.624-.969s8.181 11.624-2.656 21.819a38.056 38.056 0 0 1 2.665 1.83c3.417 2.562 6.258 5.686 8.701 9.131-1.145-5.269-.737-12.72 8.457-16.966l.001-.012.175-.072a25.342 25.342 0 0 1 1.908-.776s.198.386.454 1.072l.002.003c1.295 3.453 4.194 14.444-7.472 21.939-.878.056-1.709.488-2.094 1.302-11.903 7.423-20.607-.024-23.166-2.704l-.017-.014a11.797 11.797 0 0 1-.757-.863 24.146 24.146 0 0 1 1.525-1.378l.147-.132.017.002c8.051-6.62 15.12-3.371 19.326.067-3.066-4.34-6.755-8.168-11.35-11.136-.082.065-.146.12-.228.185 0 0-.175-.226-.453-.637-.242-.15-.501-.286-.748-.429-12.305 11.547-23.579.846-23.579.846.408-.546.821-1.042 1.229-1.508l.103-.126.016-.001c2.573-2.879 5.223-4.316 7.761-4.835-5.092-1.34-10.295-2.316-15.438-3.513-.044.075-.086.152-.132.224 0 0-.216-.133-.571-.389a36.53 36.53 0 0 0-.618-.143c-5.214 10.359-14.255 8.468-17.052 7.581l.002.003-.011-.006c-.538-.171-.841-.3-.841-.3.161-.527.336-1.019.521-1.492l.051-.131h.008c2.571-6.422 7.365-7.606 11.266-7.314-2.4-.737-4.762-1.586-7.064-2.632a52.978 52.978 0 0 1-5.756-3.049c-5.291 8.784-13.612 7.032-16.27 6.187l-.004.007-.004-.006a8.72 8.72 0 0 1-.846-.296z"/><path fill="#f3ac83" d="m274.266 434.58-.451-.893-2.954 1.494.452.892a146.281 146.281 0 0 0 1.521 2.941l.474.881 3.057-1.647-.653-.871c-.129-.239-.638-1.198-1.446-2.797zM265.992 416.831a409.27 409.27 0 0 1-2.553-6.018l-.383-.923-3.057 1.267.383.924a422.657 422.657 0 0 0 2.573 6.067l.398.918 3.037-1.319-.398-.916zM271.398 428.732a359.369 359.369 0 0 1-2.756-5.927l-.414-.911-3.012 1.371.413.909a354.665 354.665 0 0 0 2.782 5.981l.43.903 2.987-1.423-.43-.903zM260.982 404.752c-.777-1.964-1.564-4-2.358-6.099l-.354-.935-3.096 1.169.354.936c.8 2.116 1.594 4.167 2.377 6.146l.368.93 3.078-1.217-.369-.93zM252.157 380.147a367.735 367.735 0 0 1-1.944-6.236l-.29-.958-3.167.957.289.958a371.616 371.616 0 0 0 1.962 6.293l.307.953 3.148-1.016-.305-.951zM256.367 392.521a378.352 378.352 0 0 1-2.156-6.169l-.322-.947-3.134 1.066.322.947a391.316 391.316 0 0 0 2.174 6.222l.338.941 3.116-1.118-.338-.942zM295.269 186.645a246.708 246.708 0 0 0-3.975 2.302c-.582.342-1.161.691-1.733 1.042l-.853.523 1.733 2.819.852-.522a231.818 231.818 0 0 1 5.607-3.286l.869-.493-1.629-2.877-.871.492zM273.471 201.728a110.92 110.92 0 0 0-4.889 4.51l-.713.699 2.314 2.365.715-.7a109.164 109.164 0 0 1 4.745-4.377l.755-.656-2.172-2.496-.755.655zM306.939 180.453a213.12 213.12 0 0 0-5.883 3.011l-.883.469 1.552 2.923.883-.469a213.465 213.465 0 0 1 5.792-2.965l.897-.442-1.461-2.967-.897.44zM319.018 175.043a170.573 170.573 0 0 0-6.093 2.592l-.913.41 1.357 3.019.912-.409a163.755 163.755 0 0 1 5.973-2.541l.928-.373-1.235-3.071-.929.373zM283.991 193.604a120.562 120.562 0 0 0-5.372 3.913l-.793.611 2.023 2.619.791-.61a118.488 118.488 0 0 1 5.225-3.805l.824-.566-1.875-2.727-.823.565zM248.382 367.638a347.988 347.988 0 0 1-1.714-6.301l-.253-.966-3.2.833.252.968c.53 2.035 1.112 4.176 1.729 6.365l.271.962 3.186-.898-.271-.963zM240.099 329.407a250.067 250.067 0 0 1-.859-6.454l-.119-.993-3.285.393.118.993c.251 2.101.543 4.3.868 6.538l.144.99 3.277-.478-.144-.989zM244.239 252.232a115.729 115.729 0 0 1 2.149-6.096l.359-.933-3.09-1.189-.359.934a118.168 118.168 0 0 0-2.209 6.27l-.306.951 3.149 1.016.307-.953zM238.814 277.535c.26-2.166.565-4.327.909-6.424l.162-.986-3.266-.537-.162.987a151.891 151.891 0 0 0-.928 6.566l-.118.993 3.285.393.118-.992zM248.876 240.174a109.185 109.185 0 0 1 2.831-5.799l.465-.885-2.928-1.539-.465.884a111.81 111.81 0 0 0-2.918 5.976l-.412.911 3.016 1.364.411-.912zM240.92 264.741c.458-2.156.963-4.275 1.5-6.298l.257-.968-3.2-.846-.256.966a132.272 132.272 0 0 0-1.539 6.46l-.208.979 3.238.685.208-.978zM262.26 218.18a102.272 102.272 0 0 1 4.169-4.92l.67-.743-2.457-2.217-.67.742a107.173 107.173 0 0 0-4.305 5.078l-.622.783 2.591 2.061.624-.784zM254.888 228.759a101.658 101.658 0 0 1 3.52-5.404l.572-.82-2.714-1.894-.572.821a106.402 106.402 0 0 0-3.635 5.58l-.52.855 2.831 1.718.518-.856zM245.077 355.004a318.673 318.673 0 0 1-1.459-6.362l-.213-.977-3.233.704.213.978a311.63 311.63 0 0 0 1.474 6.431l.233.973 3.218-.776-.233-.971zM237.802 290.482c.083-2.152.21-4.334.376-6.484l.077-.996-3.297-.259-.078.998a175.565 175.565 0 0 0-.386 6.612l-.039 1 3.309.13.038-1.001zM331.541 170.657c-2.07.613-4.195 1.302-6.317 2.048l-.944.331 1.098 3.122.943-.331a130.608 130.608 0 0 1 6.158-1.996l.958-.284-.938-3.175-.958.285zM242.296 342.251a281.174 281.174 0 0 1-1.176-6.416l-.169-.985-3.263.557.169.986c.364 2.121.764 4.305 1.19 6.491l.191.982 3.251-.634-.193-.981zM238.555 316.478a213.29 213.29 0 0 1-.499-6.489l-.061-.998-3.304.2.061.999c.132 2.14.302 4.357.507 6.59l.091.996 3.296-.303-.091-.995zM237.757 303.484c-.06-1.943-.09-3.923-.092-5.882l.004-1.616-3.309-.018-.004 1.632c.001 2.012.033 4.026.093 5.987l.031 1 3.309-.104-.032-.999z" class="color838bf3 svgShape"/><path fill="#f3ac83" d="M416.504 176.891h3.309v8.558h-3.309z" transform="rotate(-70.001 418.147 181.172)" class="color838bf3 svgShape"/><path fill="#f3ac83" d="M549.976 192.757c-2.127.308-4.299.597-6.457.859l-.993.121.401 3.284.992-.12c2.148-.26 4.284-.544 6.53-.867l.99-.143-.472-3.277-.991.143zM511.018 195.783c-2.108.041-4.283.068-6.528.078l-1 .004.013 3.31 1-.004a442.07 442.07 0 0 0 6.579-.078l1-.02-.064-3.309-1 .019zM537.046 194.324c-2.139.21-4.322.398-6.487.561l-.997.074.247 3.303.998-.076c2.23-.169 4.438-.36 6.562-.567l.996-.097-.323-3.295-.996.097zM575.739 188.293a662.54 662.54 0 0 0-6.46 1.168l-.983.182.601 3.253.983-.181c2.164-.399 4.297-.79 6.429-1.163l.985-.172-.57-3.258-.985.171zM524.052 195.307c-2.094.116-4.263.214-6.514.295l-1 .037.122 3.308.999-.036c2.271-.082 4.461-.183 6.575-.3l.998-.055-.181-3.304-.999.055zM562.845 190.64c-2.081.376-4.216.75-6.431 1.117l-.987.164.542 3.265.986-.164c2.23-.369 4.38-.747 6.477-1.124l.985-.177-.589-3.258-.983.177zM634.935 186.686l-.995-.102-.335 3.291.994.102c2.091.215 4.252.455 6.49.721l.992.118.393-3.285-.993-.119c-2.256-.27-4.436-.511-6.546-.726zM621.79 185.613l-.998-.058-.193 3.304.998.058c2.054.121 4.242.275 6.503.459l.996.081.271-3.297-.997-.082c-2.232-.184-4.446-.34-6.58-.465zM608.823 185.216h-1.239v3.31h1.239c2.045 0 4.154.033 6.266.099l1 .031.103-3.309-1-.031c-2.157-.067-4.3-.1-6.369-.1zM601.974 185.342c-2.216.083-4.438.21-6.604.378l-.997.077.253 3.298.997-.077c2.132-.164 4.31-.287 6.475-.367l1-.037-.124-3.309-1 .037zM588.79 186.353a187.08 187.08 0 0 0-6.548.877l-.988.149.491 3.271.989-.149c2.259-.34 4.364-.621 6.436-.859l.994-.115-.381-3.29-.993.116zM492.752 195.774l-2.329-.051-.085 3.309 2.349.051c1.786.033 3.533.058 5.24.072l1 .008.026-3.31-1-.008a476.61 476.61 0 0 1-5.201-.071zM344.483 167.599c-2.139.373-4.333.825-6.52 1.344l-.973.231.763 3.22.974-.231c2.121-.504 4.249-.943 6.324-1.304l.986-.172-.569-3.26-.985.172zM390.617 170.225l-.966-.259-.859 3.199.967.259c1.982.531 4.021 1.12 6.234 1.802l.955.294.976-3.161-.956-.295a175.244 175.244 0 0 0-6.351-1.839zM377.644 167.41l-.988-.159-.523 3.27.987.158c2.068.332 4.204.738 6.349 1.208l.978.213.705-3.232-.976-.214a118.989 118.989 0 0 0-6.532-1.244zM357.729 166.174a98.191 98.191 0 0 0-6.65.494l-.994.108.357 3.29.994-.108c2.139-.231 4.3-.392 6.425-.476l.999-.04-.13-3.309-1.001.041zM364.396 166.139l-1-.029-.096 3.309 1 .029c2.105.061 4.267.198 6.426.407l.996.097.317-3.295-.995-.096a98.604 98.604 0 0 0-6.648-.422zM403.248 174.098l-.947-.32-1.06 3.136.948.32a387.78 387.78 0 0 1 6.166 2.144l.941.335 1.112-3.117-.943-.335a405.233 405.233 0 0 0-6.217-2.163zM478.463 194.941l-.996-.099-.323 3.296.995.098c2.167.213 4.384.391 6.591.527l.998.062.207-3.304-.999-.062a171.302 171.302 0 0 1-6.473-.518zM427.961 182.936l-.943-.331-1.098 3.122.944.332a396.49 396.49 0 0 0 6.229 2.134l.949.316 1.046-3.141-.949-.316a418.94 418.94 0 0 1-6.178-2.116zM465.596 193.195l-.985-.17-.563 3.259.984.171c2.18.378 4.378.718 6.536 1.011l.991.135.445-3.278-.991-.135a186.667 186.667 0 0 1-6.417-.993zM440.344 187.043l-.955-.295-.976 3.162.956.295a235.75 235.75 0 0 0 6.334 1.86l.964.268.886-3.188-.962-.268a234.486 234.486 0 0 1-6.247-1.834zM452.883 190.527l-.972-.239-.789 3.213.971.239a190.73 190.73 0 0 0 6.446 1.47l.979.205.68-3.239-.979-.205a189.792 189.792 0 0 1-6.336-1.444zM651.566 188.735a564.887 564.887 0 0 0-3.253-.451l-.991-.134-.445 3.278.991.134c1.062.145 2.14.294 3.233.45l.99.141.466-3.277-.991-.141z" class="color838bf3 svgShape"/><path fill="#573623" d="M412.643 763.34a26.26 26.26 0 0 1-9.104-1.752c-10.652-3.918-17.829-14.262-17.815-25.724l.004-3.453.057.001.187-188.88.364-263.974-.053-3.006c-.005-7.332 2.855-14.218 8.052-19.391 5.185-5.161 12.082-8.005 19.419-8.01l240.628.27c15.024.184 27.201 12.513 27.145 27.485l-.535 457.374-.028 2.316c-.183 14.917-12.504 27.06-27.467 27.071l-240.854-.327z" class="color232b57 svgShape"/><path fill="#873200" d="m677.577 734.275-.028 2.279c-.161 13.105-10.891 23.688-24.055 23.698l-.341-.004-240.031-.321a22.93 22.93 0 0 1-8.359-1.527c-9.134-3.36-15.636-12.216-15.623-22.531l.057.001.192-192.333.367-266.986-.057-.001c-.008-13.279 10.78-23.974 24.058-23.982l240.373.268c13.278.049 24.032 10.781 23.982 24.059l-.535 457.38z" class="color004a87 svgShape"/><linearGradient id="j" x1="-1081.69" x2="-499.443" y1="108.24" y2="862.514" gradientTransform="rotate(13.615 -915.18 6456.95)" gradientUnits="userSpaceOnUse"><stop offset="0" stop-color="#ffcdb0" class="stopColorb0b0ff svgShape"/><stop offset="1" stop-color="#ffffff" class="stopColorfff svgShape"/></linearGradient><path fill="url(#j)" d="m663.687 289.215-.526 434.628c-.008 6.149-5.01 11.123-11.142 11.115l-237.301-.286c-6.148-.008-11.122-4.994-11.115-11.143l.527-434.628c.007-6.148 4.992-11.122 11.141-11.115l237.3.288c6.133.007 11.123 4.993 11.116 11.141z"/><path fill="#ffffff" d="m652.017 734.95-237.293-.284c-6.155.001-11.131-4.989-11.115-11.139l.173-138.55c.017-14.185 11.531-25.671 25.716-25.656l208.164.23c14.187.016 25.675 11.53 25.659 25.718l-.164 138.565c0 6.156-5.006 11.126-11.14 11.116z" opacity=".3" class="colorfff svgShape"/><defs><filter id="k" width="34.077" height="457.179" x="619.008" y="277.786" filterUnits="userSpaceOnUse"><feFlood flood-color="#fff" flood-opacity="1" result="back"/><feBlend in="SourceGraphic" in2="back"/></filter></defs><mask id="l" width="34.077" height="457.179" x="619.008" y="277.786" maskUnits="userSpaceOnUse"><g filter="url(#k)"><path fill="url(#SVGID_12_)" d="m653.085 734.644-5.047-456.858-29.03.321 5.046 456.858z" mask="url(#l)"/></g></mask><linearGradient id="m" x1="-544.886" x2="-129.558" y1="151.744" y2="186.597" gradientTransform="translate(935.735 330.897)" gradientUnits="userSpaceOnUse"><stop offset="0" stop-color="#302824" class="stopColor302424 svgShape"/><stop offset=".051" stop-color="#3f3834" class="stopColor3f3434 svgShape"/><stop offset=".23" stop-color="#716c69" class="stopColor716969 svgShape"/><stop offset=".405" stop-color="#9a9795" class="stopColor9a9595 svgShape"/><stop offset=".573" stop-color="#bab8b7" class="stopColorbab7b7 svgShape"/><stop offset=".733" stop-color="#d0cfcf" class="stopColord0cfcf svgShape"/><stop offset=".879" stop-color="#dedede" class="stopColordedede svgShape"/><stop offset="1" stop-color="#e3e3e3" class="stopColore3e3e3 svgShape"/></linearGradient><path fill="url(#m)" d="m653.085 734.644-5.047-456.858-29.03.321 5.046 456.858z"/><defs><filter id="n" width="34.077" height="457.177" x="424.474" y="278.801" filterUnits="userSpaceOnUse"><feFlood flood-color="#fff" flood-opacity="1" result="back"/><feBlend in="SourceGraphic" in2="back"/></filter></defs><mask id="o" width="34.077" height="457.177" x="424.474" y="278.801" maskUnits="userSpaceOnUse"><g filter="url(#n)"><path fill="url(#SVGID_15_)" d="m458.552 735.657-5.047-456.856-29.031.32 5.048 456.857z" mask="url(#o)"/></g></mask><linearGradient id="p" x1="-585.163" x2="-370.31" y1="359.986" y2="-95.85" gradientTransform="translate(935.735 330.897)" gradientUnits="userSpaceOnUse"><stop offset="0" stop-color="#302824" class="stopColor302424 svgShape"/><stop offset=".051" stop-color="#3f3834" class="stopColor3f3434 svgShape"/><stop offset=".23" stop-color="#716c69" class="stopColor716969 svgShape"/><stop offset=".405" stop-color="#9a9795" class="stopColor9a9595 svgShape"/><stop offset=".573" stop-color="#bab8b7" class="stopColorbab7b7 svgShape"/><stop offset=".733" stop-color="#d0cfcf" class="stopColord0cfcf svgShape"/><stop offset=".879" stop-color="#dedede" class="stopColordedede svgShape"/><stop offset="1" stop-color="#e3e3e3" class="stopColore3e3e3 svgShape"/></linearGradient><path fill="url(#p)" d="m458.552 735.657-5.047-456.856-29.031.32 5.048 456.857z"/><path fill="#ffffff" d="M627.708 374.927l-184.67.773a5.145 5.145 0 10.043 10.291l184.67-.773a5.145 5.145 0 10-.043-10.291zM627.596 348.247l-184.67.773a5.145 5.145 0 10.043 10.29l184.67-.773a5.145 5.145 0 10-.043-10.29zM627.484 321.568l-184.67.773a5.145 5.145 0 10.043 10.291l184.67-.773a5.145 5.145 0 10-.043-10.291zM490.084 690.091l-47.018.492a5.145 5.145 0 10-.019 10.291l47.018-.492a5.145 5.145 0 10.019-10.291zM627.739 690.091l-47.018.492a5.145 5.145 0 10-.019 10.291l47.018-.492a5.145 5.145 0 10.019-10.291zM627.708 658.074l-184.67.773a5.145 5.145 0 10.043 10.291l184.67-.773a5.145 5.145 0 10-.043-10.291z" opacity=".5" class="colorfff svgShape"/><path fill="#ffbf66" d="m458.552 593.114 4.077 12.549h13.195l-10.675 7.756 4.078 12.55-10.675-7.756-10.675 7.756 4.077-12.55-10.675-7.756h13.195z" class="colorffde6e svgShape"/><path fill="#ffffff" d="m498.217 593.114 4.077 12.549h13.195l-10.675 7.756 4.078 12.55-10.675-7.756-10.675 7.756 4.077-12.55-10.675-7.756h13.195zM537.882 593.114l4.077 12.549h13.195l-10.675 7.756 4.078 12.55-10.675-7.756-10.675 7.756 4.077-12.55-10.675-7.756h13.196zM577.547 593.114l4.078 12.549h13.195l-10.676 7.756 4.078 12.55-10.675-7.756-10.675 7.756 4.077-12.55-10.675-7.756h13.196zM617.212 593.114l4.078 12.549h13.194l-10.675 7.756 4.078 12.55-10.675-7.756-10.675 7.756 4.078-12.55-10.676-7.756h13.196z" opacity=".5" class="colorfff svgShape"/><radialGradient id="q" cx="-1583.533" cy="587.865" r="57.128" gradientTransform="matrix(.7518 .2238 -.2854 .9585 1969.83 246.561)" gradientUnits="userSpaceOnUse"><stop offset=".088" stop-color="#edaa4c" class="stopColoredb24c svgShape"/><stop offset=".202" stop-color="#b45c28" class="stopColorb48128 svgShape"/><stop offset=".328" stop-color="#914112" class="stopColor916612 svgShape"/><stop offset=".453" stop-color="#7a2f02" class="stopColor7a5002 svgShape"/><stop offset=".964" stop-color="#000000" class="stopColor000000 svgShape"/></radialGradient><path fill="url(#q)" d="M658.876 460.468c3.798-26.336-10.764-51.885-35.155-57.086-27.772-5.924-56.189 16.358-59.698 49.72-3.411 32.474 18.918 56.977 46.324 55.66 24.208-1.162 44.803-22.511 48.529-48.294z"/><path fill="#23201f" d="m300.736 283.793-132.567-.87a7.244 7.244 0 0 0-7.291 7.197l-.314 47.811a7.244 7.244 0 0 0 7.196 7.292l104.865.689c6.591 7.812 14.544 18.03 14.544 18.03l4.021-17.908 9.136.06a7.246 7.246 0 0 0 7.292-7.197l.314-47.811a7.244 7.244 0 0 0-7.196-7.293z" opacity=".1" class="color231f20 svgShape"/><path fill="#ffbf66" d="m298.05 274.467-132.567-.871a7.244 7.244 0 0 0-7.292 7.197l-.315 47.811a7.244 7.244 0 0 0 7.196 7.291l104.865.689c6.592 7.812 14.545 18.029 14.545 18.029l4.022-17.908 9.135.061a7.245 7.245 0 0 0 7.292-7.197l.314-47.811a7.241 7.241 0 0 0-7.195-7.291z" class="colorffde6e svgShape"/><path fill="#ffffff" d="M280.37 287.898h11.338v21.514H280.37z" transform="rotate(180 286.038 298.656)" class="colorfff svgShape"/><path fill="#ffffff" d="M252.907 302.53h.109l.011 3.707a3.561 3.561 0 0 0 3.571 3.551l9.995-.029s-4.053 5.68-4.043 9.314c.009 3.25.167 7.559 4.964 7.546 0 0 1.741-1.079 1.726-5.965-.013-4.507 9.272-11.22 9.272-11.22l-.065-22.241s-2.039-1.884-5.238-1.875l-14.464.042a3.708 3.708 0 0 0-3.696 3.718l.007 2.253a2.18 2.18 0 0 0-2.174 2.187l.008 2.616a1.307 1.307 0 0 0-1.304 1.312l.011 3.779a1.306 1.306 0 0 0 1.31 1.305z" class="colorfff svgShape"/><path fill="#ffffff" d="M170.023 287.579h69.386v5.933h-69.386z" transform="rotate(-180 204.716 290.545)" class="colorfff svgShape"/><path fill="#ffffff" d="M170.023 312.494h69.386v5.932h-69.386z" transform="rotate(-180 204.716 315.46)" class="colorfff svgShape"/><path fill="#ffffff" d="M170.023 300.036h69.386v5.933h-69.386z" transform="rotate(-180 204.716 303.003)" class="colorfff svgShape"/><path fill="#23201f" d="m723.745 385.556 109.025-.716a5.959 5.959 0 0 1 5.997 5.919l.258 39.32a5.957 5.957 0 0 1-5.918 5.997l-86.243.567c-5.421 6.425-11.962 14.828-11.962 14.828l-3.307-14.727-7.514.049a5.958 5.958 0 0 1-5.997-5.919l-.258-39.32a5.958 5.958 0 0 1 5.919-5.998z" opacity=".1" class="color231f20 svgShape"/><path fill="#ffbf66" d="m725.954 377.886 109.025-.716a5.958 5.958 0 0 1 5.997 5.918l.259 39.321a5.959 5.959 0 0 1-5.918 5.997l-86.243.567c-5.421 6.425-11.962 14.828-11.962 14.828l-3.307-14.728-7.513.05a5.96 5.96 0 0 1-5.997-5.919l-.258-39.32a5.954 5.954 0 0 1 5.917-5.998z" class="colorffde6e svgShape"/><path fill="#ffffff" d="M774.181 388.669h57.064v4.879h-57.064zM774.181 409.16h57.064v4.879h-57.064zM774.181 398.914h57.064v4.879h-57.064zM766.237 403.509c.157 9.872-7.718 18.003-17.59 18.16-9.872.157-18.003-7.718-18.16-17.59-.157-9.872 7.718-18.003 17.59-18.16 9.872-.158 18.003 7.718 18.16 17.59z" class="colorfff svgShape"/><path fill="#ff6103" d="M739.678 399.084a1.96 1.96 0 1 0 3.917-.087 1.96 1.96 0 0 0-3.917.087zM752.789 398.889a1.958 1.958 0 1 0 3.916-.086 1.958 1.958 0 0 0-3.916.086zM747.8 403.968c-4.213.093-7.565 3.597-7.472 7.809a.462.462 0 0 0 .923-.02 6.728 6.728 0 0 1 6.569-6.867 6.728 6.728 0 0 1 6.867 6.569.46.46 0 1 0 .923-.02c-.093-4.212-3.596-7.564-7.81-7.471zM659.191 200.117l6.788 7.982s46.484-4.235 43.08-4.216c-3.404.019-45.947-18.877-45.947-18.877l-3.921 15.111z" class="colorf8ad18 svgShape"/><path fill="#ffbf66" d="m653.818 204.196 3.66-12.446 43.754 10.439-39.763-13.833 4.133-8.426 43.457 23.953z" class="colorffde6e svgShape"/><path fill="#23201f" d="M613.336 442.902H394.07c-9.525 0-17.246 7.721-17.246 17.245v45.578c0 9.525 7.721 17.246 17.246 17.246h219.266c9.525 0 17.246-7.721 17.246-17.246v-45.578c0-9.524-7.722-17.245-17.246-17.245z" opacity=".1" class="color231f20 svgShape"/><path fill="#f3ac83" d="M604.977 435.403H385.711c-9.525 0-17.246 7.721-17.246 17.245l-23.22 19.91h23.22v25.668c0 9.525 7.721 17.246 17.246 17.246h219.266c9.525 0 17.246-7.721 17.246-17.246v-45.578c0-9.524-7.722-17.245-17.246-17.245z" class="color838bf3 svgShape"/><path fill="#e9c9b7" d="m341.683 766.265 4.263 16.329-12.106 2.486-5.009-18.621z" class="colore9c3b7 svgShape"/><path fill="#5e3822" d="m352.526 785.82-6.084-9.412h-15.76s-1.165 6.95 1.586 11.657c2.764 4.683 9.414 4.543 9.414 4.543l10.844-6.788z" class="color222b5e svgShape"/><path fill="#873200" d="M341.683 792.607s.287-9.106 10.843-9.106c10.549 0 8.823 9.106 8.823 9.106h-19.666zM345.481 772.075s-3.402 1.099-8.13 1.483c-2.564.227-5.513.227-8.513-.262-4.519-.733-14.271-46.022-20.883-84.106-3.524-20.289-6.542-39.044-8.165-49.162.052-.018.087-.14.087-.366.279-2.983-1.954-23.447-6.769-32.554-2.826-5.339-6.438-10.084-9.84-15.073-3.82-5.635-5.796-4.666-7.54-11.278a42.281 42.281 0 0 1-1.064-5.286c19.661-3.751 28.029-1.599 28.029-1.599s30.779-4.012 31.153 4.213c.347 7.635 4.482 51.091 4.482 51.091l7.153 142.899z" class="color004a87 svgShape"/><path fill="#e9c9b7" d="m268.412 766.265-4.263 16.329 12.106 2.486 5.01-18.621z" class="colore9c3b7 svgShape"/><path fill="#873200" d="M305.987 582.487s-21.542-6.954-40.958-8.614c-.226 1.732 2.134 90.498 3.383 96.243 1.09 5.015-5.783 100.713-2.474 102.088 4.416 1.836 14.774 1.887 16.033-.881 11.05-24.293 9.212-65.818 15.298-101.207 8.659-50.351 8.718-87.629 8.718-87.629z" class="color004a87 svgShape"/><path fill="#5e3822" d="m257.569 785.82 6.084-9.412h15.76s1.165 6.95-1.586 11.657c-2.764 4.683-9.414 4.543-9.414 4.543l-10.844-6.788z" class="color222b5e svgShape"/><path fill="#873200" d="M268.412 792.607s-.287-9.106-10.843-9.106c-10.549 0-8.823 9.106-8.823 9.106h19.666z" class="color004a87 svgShape"/><path fill="#5e3822" d="M337.351 773.758c-2.564.227-5.513.227-8.513-.262-4.519-.733-14.271-46.022-20.883-84.106-3.524-20.289-6.542-39.044-8.165-49.162l.087-.366 9.665-37.316s-1.57 47.103 0 59.054c1.519 11.688 26.623 107.657 27.809 112.158z" class="color222b5e svgShape"/><path fill="#5e3822" d="m265.029 573.873-.015 9.072s26.792 14.252 40.523 13.481c13.731-.771 23.281-.321 28.974-9.331l-.663-9.01-68.819-4.212z" opacity=".3" class="color222b5e svgShape"/><path fill="#fedcc9" d="M297.516 459.932c-7.13.393-23.732-1.474-26.617 10.367-3.462 14.211-15.724 100.583-5.87 107.878 23.228 17.196 64.153 12.234 69.267 2.899 9.83-17.944-.559-108.654-7.302-117.581-1.475-1.952-18.153-4.187-29.478-3.563z" class="colorfef3c9 svgShape"/><path fill="#e8baa0" d="M269.174 507.567s9.165 28.495 5.608 33.634c-3.558 5.139-15.704 15.352-18.274 7.644-2.569-7.708-1.095-27.445-4.665-33.166-3.674-5.889 17.331-8.112 17.331-8.112z" class="colore8aaa0 svgShape"/><path fill="#d77135" d="m250.08 518.042 20.16-6.325s4.348-18.975 9.092-25.695c4.744-6.72 5.534-23.718-3.162-22.928-8.697.791-24.904 9.092-26.09 22.532-1.186 13.442 0 32.416 0 32.416z" class="colord73558 svgShape"/><path fill="#23201f" d="M294.21 496.369s-7.738 32.723-11.959 42.838c-3.189 7.642-15.32 22.711-20.977 15.795v-7.57l29.956-51.062h2.98z" opacity=".1" class="color231f20 svgShape"/><path fill="#f7c8ac" d="M257.845 550.936s-6.434-13.224 7.059-26.964c9.31-9.481 23.323-32.217 23.323-32.217s.198-7.511 4.941-11.859c4.744-4.348 15.021-5.337 15.021-5.337v3.953l-8.499 5.139s3.953 7.313-.198 10.08c-4.151 2.767-6.72 2.965-6.72 2.965s-11.341 39.451-19.944 48.453c-10.757 11.254-14.983 5.787-14.983 5.787z" class="colorf7baac svgShape"/><path fill="#23201f" d="M303.932 501.169s-1.003 2.897 2.073 3.832c3.076.935 9.697 1.589 9.697 1.589s1.469 39.287 12.51 43.334c6.384 2.34 10.118-1.883 10.118-1.883l-21.839-50.454-12.559 3.582z" opacity=".1" class="color231f20 svgShape"/><path fill="#e8baa0" d="M342.431 507.567s6.951 33.064-.996 38.768c-7.946 5.704-8.729-27.366-8.737-32.342-.008-4.977 9.733-6.426 9.733-6.426z" class="colore8aaa0 svgShape"/><path fill="#d77135" d="M326.446 463.068s-5.795 12.081-5.309 16.823c.965 9.414 10.612 36.335 10.612 36.335s11.464 1.976 15.021-4.744c3.558-6.72-7.115-38.74-11.464-43.483-4.348-4.743-8.86-4.931-8.86-4.931z" class="colord73558 svgShape"/><path fill="#ffbf66" d="m326.226 471.588-9.619-1.269c-1.034-.136-2.032.466-2.431 1.465l-10.809 27.119c-.574 1.44.321 3.039 1.81 3.235l9.619 1.269c1.033.136 2.032-.465 2.431-1.464l10.809-27.119c.574-1.44-.321-3.04-1.81-3.236z" class="colorffde6e svgShape"/><path fill="#5a351f" d="m326.017 473.802-9.276-1.224a2.212 2.212 0 0 0-2.337 1.357L304.097 499.2a2.211 2.211 0 0 0 1.758 3.027l9.276 1.224a2.212 2.212 0 0 0 2.337-1.357l10.306-25.265a2.21 2.21 0 0 0-1.757-3.027z" class="color1f265a svgShape"/><path fill="#f7c8ac" d="M324.002 484.046s1.976-4.941 2.767-3.36c.791 1.581-.593 9.29-2.767 13.44-2.174 4.151-7.511 8.301-7.511 8.301s-10.871-6.72-10.475-14.429c.395-7.708 5.732-13.045 5.732-13.045s3.953 9.092 7.511 9.487c3.557.397 4.743-.394 4.743-.394z" class="colorf7baac svgShape"/><path fill="#f7c8ac" d="M324.002 494.126s5.336 18.777 9.882 23.718c4.546 4.941 7.906 9.883 7.906 9.883s6.72 16.8-2.965 20.161c-9.685 3.36-14.428-8.697-15.812-16.8s-6.523-28.659-6.523-28.659 4.942-9.489 7.512-8.303z" class="colorf7baac svgShape"/><path fill="#f7c8ac" d="M286.843 463.688s1.384-16.207 1.384-19.172-4.941-9.685-.692-17.591c4.249-7.906 22.038-6.523 25.991 2.569 3.953 9.092 3.558 31.427-2.767 30.241-6.325-1.186-6.127-2.372-6.127-2.372l.791 12.254s-2.174 7.708-10.475 2.174c-8.302-5.534-8.105-8.103-8.105-8.103z" class="colorf7b9ac svgShape"/><path fill="#e8b99e" d="m304.632 457.363-9.414-6.257s5.454 10.702 9.83 12.703l-.416-6.446zM315.51 437.23l.284 2.285s-3.738.953-9.79-1.143-8.918-7.828-8.918-7.828.997 8.778-1.246 9.187c-2.243.408-4.611-5.822-4.611-5.822l-1.376 9.345-.992-13.457 6.355-4.486 20.294 11.919z" class="colore8a89e svgShape"/><path fill="#573623" d="M297.319 427.715s10.294 11.519 18.192 9.515c7.898-2.004 15.409-9.785 10.863-15.481s-7.115-25.065-23.718-20.124c0 0-14.231 1.581-12.65 6.918 0 0-11.464 0-10.476 9.29.988 9.29 2.965 24.706 7.116 26.288 4.151 1.581 3.162-2.372 3.162-2.372l.593-8.894s1.581-1.976 2.174 1.977c.593 3.953 2.767 4.941 3.162.395.396-4.547-2.767-6.919 1.582-7.512z" class="color232b57 svgShape"/><path fill="#ffbf66" d="m393.167 503.341 46.294-.286-3.669-55.522-39.644.246z" class="colorffde6e svgShape"/><path fill="#fedcc9" d="m393.167 503.341 19.633-.286-16.652-55.276zM427.11 455.32a2.363 2.363 0 1 0-2.798 2.337c-.327 4.15-3.757 7.451-7.995 7.477-4.264.026-7.752-3.271-8.095-7.453a2.359 2.359 0 0 0 2.182-2.361 2.364 2.364 0 1 0-4.728.029c.006.961.586 1.78 1.411 2.145.253 4.89 4.292 8.785 9.237 8.754 4.875-.031 8.814-3.868 9.11-8.663a2.353 2.353 0 0 0 1.676-2.265z" class="colorfef3c9 svgShape"/><path fill="#ffffff" d="M590.433 487.733H466.342a3.458 3.458 0 1 0 0 6.914h124.091a3.458 3.458 0 1 0 0-6.914zM590.433 469.805H466.342a3.458 3.458 0 1 0 0 6.915h124.091a3.458 3.458 0 1 0 0-6.915zM590.433 451.878H466.342a3.458 3.458 0 1 0 0 6.914h124.091a3.458 3.458 0 1 0 0-6.914z" class="colorfff svgShape"/><path fill="#e5b193" d="M648.662 522.476s-10.492 2.123-13.975.561c-7.648-3.43-10.729-11.375-7.648-17.194 3.082-5.819 21.622-6.214 21.622-6.214v22.847z" class="colore59993 svgShape"/><path fill="#ffcdb0" d="m661.684 767.585-1.346 14.388h-12.742l.875-16.893z" class="colorffb9b0 svgShape"/><path fill="#5e3822" d="m640.414 787.916 6.237-9.65h16.158s1.195 7.125-1.626 11.951c-2.834 4.801-9.652 4.658-9.652 4.658l-11.117-6.959z" class="color222b5e svgShape"/><path fill="#873200" d="M651.531 794.875s-.294-9.336-11.117-9.336c-10.816 0-9.046 9.336-9.046 9.336h20.163z" class="color004a87 svgShape"/><path fill="#ffcdb0" d="m721.792 765.08 1.58 16.893h-11.515l-4.274-17.338z" class="colorffb9b0 svgShape"/><path fill="#5e3822" d="m701.868 787.916 6.237-9.65h16.158s1.195 7.125-1.626 11.951c-2.834 4.801-9.652 4.658-9.652 4.658l-11.117-6.959z" class="color222b5e svgShape"/><path fill="#873200" d="M712.985 794.875s-.294-9.336-11.117-9.336c-10.816 0-9.046 9.336-9.046 9.336h20.163zM660.388 564.71c-14.613 54.73-13.427 205.418-13.431 207.13 10.014 3.726 5.745 2.544 14.94 3.073.67.038 8.517-49.098 14.572-85.47 3.354-20.151 15.451-72.662 16.246-79.973-.31-.15-23.605-27.527-32.327-44.76z" class="color004a87 svgShape"/><path fill="#5e3822" d="m681.889 618.443-10.766 103.406 16.898-88.76z" class="color222b5e svgShape"/><path fill="#873200" d="M717.686 676.04c-.546-.016-3.571-65.447-3.819-73.111-.748-23.178-3.365-33.271-3.365-33.271s-29.604 1.791-50.53-.81c-2.285 3.299 19.841 68.08 18.941 68.038 3.074 17.668 29.016 136.482 29.476 136.641 4.023 1.388 12.763 2.397 15.399-3.343-5.081-74.004-6.102-94.144-6.102-94.144z" class="color004a87 svgShape"/><path fill="#c25514" d="M660.561 487.57s-8.248-.969-20.524 10.886l2.578 27.387L657 522.31l3.561-34.74z" class="colorc21442 svgShape"/><path fill="#d77135" d="M710.802 493.252c-7.984-7.984-20.992-6.244-20.992-6.244s-2.976 6.699-12.538 6.577c-7.155-.091-8.921-5.342-8.921-5.342s-8.641-2.348-9.517-.135c-1.274 3.22-1.994 11.02-9.241 22.505-4.415 6.998-.039 17.865 3.304 27.827 6.442 19.196-.894 38.493 2.09 39.876 26.901 12.461 60.251.997 60.251.997l.034-39.253c.001.001 3.536-38.802-4.47-46.808z" class="colord73558 svgShape"/><path fill="#e8baa0" d="M726.811 534.1s8.37 32.734.678 38.775c-7.693 6.041-9.901-26.964-10.124-31.936-.223-4.971 9.446-6.839 9.446-6.839z" class="colore8aaa0 svgShape"/><path fill="#c25514" d="m701.588 487.115-3.852 20.741 15.323 34.158s11.538 1.48 14.803-5.387c3.264-6.868-8.78-38.397-13.329-42.949-4.549-4.552-12.945-6.563-12.945-6.563z" class="colorc21442 svgShape"/><path fill="#ffbf66" d="m709.07 498.853-9.665-.853c-1.038-.092-2.01.553-2.365 1.568l-9.629 27.56c-.511 1.463.452 3.022 1.948 3.154l9.665.853c1.038.092 2.01-.552 2.365-1.568l9.629-27.56c.511-1.462-.452-3.021-1.948-3.154z" class="colorffde6e svgShape"/><path fill="#5a351f" d="m708.956 501.074-9.32-.823a2.212 2.212 0 0 0-2.276 1.456l-9.207 25.687a2.21 2.21 0 0 0 1.887 2.948l9.32.823a2.213 2.213 0 0 0 2.276-1.456l9.207-25.687a2.212 2.212 0 0 0-1.887-2.948z" class="color1f265a svgShape"/><path fill="#f7c8ac" d="M707.384 511.396s1.761-5.022 2.62-3.476c.858 1.546-.192 9.306-2.185 13.547-1.993 4.24-7.146 8.618-7.146 8.618s-11.151-6.245-11.088-13.963c.062-7.718 5.164-13.28 5.164-13.28s4.342 8.913 7.913 9.154c3.572.241 4.722-.6 4.722-.6z" class="colorf7baac svgShape"/><path fill="#f7c8ac" d="M707.819 521.467s6.142 18.529 10.897 23.27 8.325 9.532 8.325 9.532 7.438 16.495-2.092 20.27c-9.531 3.775-14.79-8.066-16.522-16.103-1.732-8.036-7.753-28.351-7.753-28.351s4.527-9.692 7.145-8.618z" class="colorf7baac svgShape"/><path fill="#573623" d="M690.087 451.772h-22.314c-8.182 0-14.876 6.694-14.876 14.876 0 8.181 6.694 14.876 14.876 14.876h22.314c8.182 0 14.876-6.694 14.876-14.876 0-8.182-6.694-14.876-14.876-14.876z" class="color232b57 svgShape"/><path fill="#573623" d="M652.898 454.178c0 16.553 11.655 29.971 26.033 29.971 14.378 0 26.033-13.418 26.033-29.971 0-16.552-11.655-29.97-26.033-29.97-14.378-.001-26.033 13.418-26.033 29.97z" class="color232b57 svgShape"/><path fill="#ffcdb0" d="M668.257 487.211h3.947v-13.782h14.164v13.782h3.949s3.052 15.364-7.012 15.364h-8.038c-10.062 0-7.01-15.364-7.01-15.364z" class="colorffb9b0 svgShape"/><path fill="#ffb58a" d="M686.368 477.803v1.241s-3.702 3.081-6.655 3.136c-2.953.054-7.508-1.368-7.508-1.368v-3.009h14.163z" class="coloreda59f svgShape"/><path fill="#ffcdb0" d="m685.566 478.167-4.815 2.024a3.72 3.72 0 0 1-2.931 0l-4.815-2.024c-11.322-4.815-10.345-19.243-10.345-19.243s.052 0 .157-.017c6.141-.82 16.259-11.601 16.469-12.683.227 1.099 10.502 12.038 16.626 12.7-.001 0 .976 14.428-10.346 19.243z" class="colorffb9b0 svgShape"/><path fill="#ffb58a" d="M695.911 458.924c-9.002 3.053-16.626-8.339-16.626-8.339-2.216 6.49-14.881 8.147-16.469 8.321 6.141-.82 16.259-11.601 16.469-12.683.228 1.1 10.503 12.038 16.626 12.701z" class="coloreda59f svgShape"/><path fill="#ffcdb0" d="M666.153 462.179a3.336 3.336 0 1 1-6.672 0 3.336 3.336 0 0 1 6.672 0zM699.247 462.179a3.337 3.337 0 1 1-6.673-.001 3.337 3.337 0 0 1 6.673.001z" class="colorffb9b0 svgShape"/><path fill="#ffcdb0" d="M674.615 436.424c-.285-.932-1.308-1.433-2.207-1.046-2.729 1.139-6.804 1.874-9.423 4.304-1.31 1.211-2.214 1.888-2.832 2.242-.43.239-.909-.217-.685-.657.643-1.225 1.389-3.474.038-5.876-.396-.694-1.418-.492-1.616.281-.303 1.28-1.65 2.54-2.323 5.489-.982 4.306-3.02 8.864-4.28 11.448 0 0-29.797 44.271-25.352 59.393 1.374 4.675 4.48 10.115 9.024 8.358 14.503-5.607 23.228-61.082 23.228-61.082 2.814-1.441 8.067-4.303 10.069-6.557 2.632-2.963 9.089-7.41 6.359-16.297z" class="colorffb9b0 svgShape"/><radialGradient id="r" cx="-895.716" cy="-2012.716" r="394.289" gradientTransform="matrix(.9946 .1035 -.054 .5187 1783.09 2014.74)" gradientUnits="userSpaceOnUse"><stop offset="0" stop-color="#ffffff" class="stopColorfff svgShape"/><stop offset=".224" stop-color="#fffdfc" class="stopColorfcfeff svgShape"/><stop offset=".36" stop-color="#fef8f4" class="stopColorf4f9fe svgShape"/><stop offset=".473" stop-color="#fdeee6" class="stopColore6f1fd svgShape"/><stop offset=".574" stop-color="#fce1d1" class="stopColord1e6fc svgShape"/><stop offset=".666" stop-color="#fad0b7" class="stopColorb7d8fa svgShape"/><stop offset=".751" stop-color="#f7ba96" class="stopColor96c7f7 svgShape"/><stop offset=".833" stop-color="#f5a06f" class="stopColor6fb2f5 svgShape"/><stop offset=".91" stop-color="#f28342" class="stopColor429af2 svgShape"/><stop offset=".982" stop-color="#ee6211" class="stopColor117fee svgShape"/><stop offset="1" stop-color="#ed5903" class="stopColor0378ed svgShape"/></radialGradient><path fill="url(#r)" d="M928.603 820.445c-.643 6.181-66.092 4.436-146.184-3.896-80.092-8.333-144.498-20.099-143.855-26.279.643-6.181 66.092-4.437 146.184 3.896 80.092 8.332 144.498 20.098 143.855 26.279z" opacity=".55"/><radialGradient id="s" cx="-17.096" cy="-2188.034" r="394.289" gradientTransform="matrix(-.9946 .1035 .054 .5187 94.82 2014.74)" gradientUnits="userSpaceOnUse"><stop offset="0" stop-color="#ffffff" class="stopColorfff svgShape"/><stop offset=".224" stop-color="#fffdfc" class="stopColorfcfeff svgShape"/><stop offset=".36" stop-color="#fef8f4" class="stopColorf4f9fe svgShape"/><stop offset=".473" stop-color="#fdeee6" class="stopColore6f1fd svgShape"/><stop offset=".574" stop-color="#fce1d1" class="stopColord1e6fc svgShape"/><stop offset=".666" stop-color="#fad0b7" class="stopColorb7d8fa svgShape"/><stop offset=".751" stop-color="#f7ba96" class="stopColor96c7f7 svgShape"/><stop offset=".833" stop-color="#f5a06f" class="stopColor6fb2f5 svgShape"/><stop offset=".91" stop-color="#f28342" class="stopColor429af2 svgShape"/><stop offset=".982" stop-color="#ee6211" class="stopColor117fee svgShape"/><stop offset="1" stop-color="#ed5903" class="stopColor0378ed svgShape"/></radialGradient><path fill="url(#s)" d="M65.963 820.445c.643 6.181 66.092 4.436 146.184-3.896 80.092-8.333 144.498-20.099 143.855-26.279-.643-6.181-66.092-4.437-146.184 3.896-80.092 8.332-144.498 20.098-143.855 26.279z" opacity=".55"/><radialGradient id="t" cx="266.692" cy="421.927" r="84.156" gradientTransform="rotate(4.997 960.375 2756.312)" gradientUnits="userSpaceOnUse"><stop offset=".088" stop-color="#edaa4c" class="stopColoredb24c svgShape"/><stop offset=".202" stop-color="#b45c28" class="stopColorb48128 svgShape"/><stop offset=".328" stop-color="#914112" class="stopColor916612 svgShape"/><stop offset=".453" stop-color="#7a2f02" class="stopColor7a5002 svgShape"/><stop offset=".964" stop-color="#000000" class="stopColor000000 svgShape"/></radialGradient><path fill="url(#t)" d="M556.624 362.033c-4.569-46.241-45.773-80.025-92.013-75.458-46.241 4.566-80.024 45.759-75.461 92.004 4.57 46.242 45.761 80.031 92.003 75.461 46.252-4.568 80.029-45.761 75.471-92.007z" opacity=".7"/></svg>