<svg xmlns="http://www.w3.org/2000/svg" data-name="Ñëîé 1" viewBox="0 0 333.96 351.46"><path fill="#ffbf66" d="M261.22,72.25H238.76A1.23,1.23,0,0,1,237.54,71V48.57a1.23,1.23,0,0,1,1.22-1.23h22.46a1.23,1.23,0,0,1,1.22,1.23V71A1.23,1.23,0,0,1,261.22,72.25ZM240,69.79h20v-20H240Z" class="colorc7ad9f svgShape"/><path fill="#ffbf66" d="M249.53 66.75a1.21 1.21 0 01-.91-.41l-5.73-6.42a1.23 1.23 0 011.83-1.63l4.69 5.25L260.2 47.87a1.23 1.23 0 012 1.39l-11.69 17a1.24 1.24 0 01-.93.53zM55.84 102.33H39.27A1.23 1.23 0 0138 101.1V84.52a1.23 1.23 0 011.23-1.22H55.84a1.23 1.23 0 011.23 1.22V101.1A1.23 1.23 0 0155.84 102.33zM40.49 99.87H54.61V85.75H40.49z" class="colorc7ad9f svgShape"/><path fill="#ffbf66" d="M47.21 98.27a1.23 1.23 0 01-.91-.41l-4.23-4.74a1.23 1.23 0 111.83-1.63l3.19 3.57 7.74-11.23a1.23 1.23 0 112 1.39L48.22 97.74a1.19 1.19 0 01-.93.52zM295.85 320.85H279.28a1.23 1.23 0 01-1.23-1.23V303.05a1.23 1.23 0 011.23-1.23h16.57a1.23 1.23 0 011.23 1.23v16.57A1.23 1.23 0 01295.85 320.85zM280.5 318.4h14.12V304.28H280.5z" class="colorc7ad9f svgShape"/><path fill="#ffbf66" d="M287.23,316.79a1.23,1.23,0,0,1-.92-.41l-4.23-4.73a1.23,1.23,0,1,1,1.83-1.64l3.19,3.57,7.74-11.23a1.23,1.23,0,0,1,2,1.4l-8.62,12.51a1.23,1.23,0,0,1-.94.53Z" class="colorc7ad9f svgShape"/><path fill="#ffb58a" d="M244.74,265.88a113.61,113.61,0,0,0-5.88-20.06c-4.38-11.18-7.29-79.24-18-100.14s-41.32-21.88-57.36-19.94c-3.16.39,1.37-4.22-3.33-4.46.11,2.7-4.63,7.21-8.91,11.6.09-2.33.29-4.68.2-7-17.39-.87-41.7-5.08-46.09-5.86l-.7-.12c-13.61,1.46-28.68-7.78-48.13-1.46s-35.48,24.79-44.72,55.91,4,30.55.12,41.24-5.07,27.14-3.61,31S24,257.15,36.12,260.07l0,79.67H216.5s-8.3-53.38-9.28-68C207.22,271.78,228.21,276.58,244.74,265.88Z" class="colorf1c07f svgShape"/><path fill="#333333" d="M217.93,340.74h-183V260.91C24.38,258.25,9,252,7.19,247.12c-1.7-4.52-.2-21.46,3.61-31.91,1.31-3.62.47-5.69-.8-8.8-2.2-5.36-5.2-12.7.65-32.39,9-30.36,24.76-50,45.53-56.73A46.74,46.74,0,0,1,70.9,115a90.4,90.4,0,0,1,17.31,2.11,73.14,73.14,0,0,0,13.38,1.74,28,28,0,0,0,3-.15l.18,0,.86.16c4.65.82,28.69,5,45.94,5.84l1.12.06,0,1.11c.06,1.29,0,2.59,0,3.87,3.06-3.12,6.37-6.66,6.3-8.38l0-1.34,1.34.07a3.15,3.15,0,0,1,3.34,4.22l0,.22a98.82,98.82,0,0,1,11.53-.67c13.44,0,37.41,2.77,46.88,21.29,6.75,13.18,10.37,44.14,13.27,69,1.7,14.57,3.17,27.15,4.77,31.23A113.19,113.19,0,0,1,246,265.68l.13.8-.68.33c-9,5.82-19.26,6.93-26.29,6.93h0a63.39,63.39,0,0,1-10.54-.78c1.39,16.31,9.06,65.69,9.14,66.2Zm-180.57-3h177.7c-1.32-8-8.19-53.13-9.06-66.27l-.11-1.58,1.62.55a49.7,49.7,0,0,0,11.6,1.3h0c6.52,0,15.94-1.21,24.27-6.33a117.64,117.64,0,0,0-5.66-19.08c-1.72-4.38-3.13-16.53-4.93-31.87-2.88-24.69-6.47-55.42-13-68.21-8.88-17.35-31.82-20-44.7-20a97,97,0,0,0-11.43.67l-.48,0a2.1,2.1,0,0,1-1.65-.67,2.83,2.83,0,0,1-.36-2.41c.05-.35.15-1,0-1.15h0c-.89,2.7-4.11,6-7.74,9.67l-1.29,1.3-2.23,2.3.13-3.2c0-.6.06-1.2.09-1.8.07-1.31.14-2.66.13-4-17.29-1-40.53-5-45.09-5.82l-.53-.09a30.1,30.1,0,0,1-3,.15,75.16,75.16,0,0,1-13.84-1.79,88.26,88.26,0,0,0-16.85-2.07,44.38,44.38,0,0,0-14,2.18C37,126.11,21.78,145.16,13,174.71c-5.61,18.87-2.79,25.74-.74,30.75,1.33,3.25,2.47,6,.83,10.56-3.95,10.86-4.85,26.9-3.61,30.18,1.11,3,13.75,9.29,26.92,12.45l.94.06Z" class="color333 svgShape"/><path fill="#ffffff" d="M110.25,41.34c-1-2.24-1.17-5.78,1.6-6.41,1.88-.42,3.71,2,5.66,2.23,2.19.22,4.44-1,6.1-2.33,4.34-3.41,5.48-8.49,11.93-8.54a21.43,21.43,0,0,1,9.38,2.62,10,10,0,0,1,4.53,3.56c1.54,2.63,0,5.78-3.16,5.56-1.59-.1-3.1-.8-4.68-.82-2.27,0-4.33,1.33-6,2.87s-3.14,3.34-5.08,4.53c-3.35,2.07-7.58,2-11.49,1.5-2.91-.4-6.54-1.26-8.3-3.87A4.78,4.78,0,0,1,110.25,41.34Z" class="colorfff svgShape"/><path fill="#ff6103" d="M207.26,273.17a.61.61,0,0,1-.61-.54c-1.93-17.82-1.23-62.59-1.22-63a.62.62,0,0,1,.61-.6h0a.62.62,0,0,1,.61.62c0,.45-.71,45.14,1.21,62.88a.62.62,0,0,1-.54.68Z" class="color4a253f svgShape"/><path fill="#ff6103" d="M206.29,220.67a.7.7,0,0,1-.25,0,.61.61,0,0,1-.31-.81l2.91-6.57a.62.62,0,0,1,1.13.5l-2.92,6.57A.63.63,0,0,1,206.29,220.67Z" class="color4a253f svgShape"/><path fill="#fbece4" d="M103.61,85.85s-7.14.3-9.82,6.85.29,13.7,0,16.67-3.28,4.77-3.58,11.32,42.58,31,66.4,20.24,11.61-22.62,11.61-22.62,4.17-17.27-.89-20.55S103.61,85.85,103.61,85.85Z" class="colorfbf0e4 svgShape"/><path fill="#333333" d="M142.61 144.74h0c-19.4 0-43.77-12-51.37-19.93-1.57-1.65-2.31-3-2.25-4.2a17.89 17.89 0 012.47-8.55 8 8 0 001.1-2.81 16.54 16.54 0 00-.4-3.59c-.62-3.63-1.48-8.62.49-13.43 2.94-7.19 10.59-7.59 10.91-7.6h.12l.11 0c6 .89 59.07 8.77 64.2 12.09s2.37 17.66 1.57 21.23a11.94 11.94 0 012.85 9.64c-1 5.46-6.11 10.27-15.3 14.4A35.07 35.07 0 01142.61 144.74zM103.56 87.09c-.86.06-6.44.69-8.64 6.08-1.7 4.15-.91 8.74-.34 12.08A17.57 17.57 0 0195 109.5a10 10 0 01-1.39 3.73 15.74 15.74 0 00-2.18 7.51c0 .08 0 1 1.58 2.6 6.23 6.52 29.39 19.4 49.59 19.4h0A32.69 32.69 0 00156.1 140c8.29-3.73 13.09-8.19 13.9-12.73s-2.6-8-2.64-8l-.5-.51L167 118c1.53-6.35 2.78-17.19-.37-19.23C163.12 96.51 127 90.54 103.56 87.09zM130.79 6.39a14.25 14.25 0 009.84 4.78 14.29 14.29 0 0010.29-3.72c2.07-1.92 3.58-4.46 6-6a11.66 11.66 0 019.28-.95 31.13 31.13 0 018.53 4.31A26.22 26.22 0 01181 10.05a9.55 9.55 0 012.23 7.63c-.4 2-1.65 3.89-1.33 5.9.66 4 6.56 4.69 8.51 8.25 1.39 2.52.23 5.89-2 7.64a11.31 11.31 0 01-8.22 1.81 72.19 72.19 0 01-8.39-1.93c-5.95-1.4-12.11-1.49-18.22-1.57-8.48-.1-16.95-.21-25.43-.18a97.25 97.25 0 00-16.89 1.1c-7 1.26-13.82 4-20.88 3.41a29.82 29.82 0 01-1.23-23.86c.82-2.14 2.27-4.46 4.55-4.65a4.69 4.69 0 014.26 2.72 13.85 13.85 0 011.17 5.19 50.05 50.05 0 016.42-12 20.19 20.19 0 0111-7.59 27.79 27.79 0 016.31-.53 8.92 8.92 0 013.22.41C128.13 2.61 129.32 4.72 130.79 6.39z" class="color333 svgShape"/><path fill="#ffffff" d="M165.43,70.46s11.43-10.14,16.25-.08-4.48,19.33-14.14,18.55" class="colorfff svgShape"/><path fill="#333333" d="M168.67,90.2c-.41,0-.82,0-1.23,0a1.22,1.22,0,1,1,.19-2.44A13.73,13.73,0,0,0,179.84,82a10.67,10.67,0,0,0,.74-11c-1-2.1-2.35-3.3-4.08-3.65-3.76-.75-8.68,2.72-10.26,4.11a1.23,1.23,0,1,1-1.63-1.83c.27-.24,6.66-5.83,12.37-4.68,2.51.5,4.46,2.18,5.81,5a13.22,13.22,0,0,1-.93,13.51A16.16,16.16,0,0,1,168.67,90.2Z" class="color333 svgShape"/><path fill="#333333" d="M175,42.23c2.7,7.43-3.33,26.59-3.33,26.59L165,48.17Z" class="color333 svgShape"/><path fill="#ffffff" d="M173.15,44.64c-18.26-4.73-38.33-2.84-57,1.32C108.3,48,101.4,50.58,93.41,52.78a31.81,31.81,0,0,0,3,10.71s7.85,29.71,19.49,42c13.82,14.57,37.58,10.55,45.41,3.89,8.43-7.18,12.37-18.79,10.06-38.06C170,59.39,173.14,52.48,173.15,44.64Z" class="colorfff svgShape"/><path fill="#333333" d="M140.82,116.6h0c-10.32,0-19.47-3.65-25.76-10.29C103.62,94.26,96,66.43,95.31,63.94a33.4,33.4,0,0,1-3.12-11,1.24,1.24,0,0,1,.89-1.33c3.81-1,7.42-2.18,10.91-3.29,3.79-1.2,7.71-2.44,11.81-3.53a156,156,0,0,1,34-4.14,94.62,94.62,0,0,1,23.66,2.82,1.21,1.21,0,0,1,.92,1.19,55.5,55.5,0,0,1-1,9,58.52,58.52,0,0,0-.78,17.48c2.25,18.7-1.08,31.13-10.47,39.13C157.65,114.13,149.28,116.6,140.82,116.6ZM94.76,53.68a30.25,30.25,0,0,0,2.78,9.21,1.08,1.08,0,0,1,.11.28c.08.3,7.9,29.55,19.19,41.45,5.82,6.15,14.34,9.53,24,9.53h0c9,0,16.4-2.88,19.75-5.73,8.71-7.41,11.77-19.16,9.63-37A60.18,60.18,0,0,1,171,53.29a61.32,61.32,0,0,0,.91-7.7,93.08,93.08,0,0,0-22.11-2.5,154,154,0,0,0-33.41,4.06c-4,1.07-7.88,2.3-11.65,3.49C101.53,51.65,98.23,52.7,94.76,53.68Z" class="color333 svgShape"/><path fill="#333333" d="M135.38 74.74c-.11-2.18-1.34-3.88-2.75-3.81s-2.47 1.89-2.36 4.06 1.34 3.88 2.75 3.81S135.49 76.91 135.38 74.74zM162.57 72.65c-.11-2.17-1.34-3.88-2.75-3.81s-2.46 1.89-2.36 4.07 1.35 3.88 2.76 3.81S162.68 74.83 162.57 72.65zM125.28 69.3a1.66 1.66 0 01-1.12-.59 1.68 1.68 0 01.2-2.35c.2-.16 4.83-4 9.62-4a1.67 1.67 0 010 3.34c-3.55 0-7.41 3.17-7.45 3.2A1.66 1.66 0 01125.28 69.3zM164.57 66.21a1.7 1.7 0 01-.8-.3A12.92 12.92 0 00156 64a1.67 1.67 0 11-.27-3.32 16.05 16.05 0 0110 2.5 1.67 1.67 0 01-1.14 3zM155.22 85.69l-.24 0c-5-1-7.44-7.57-7.54-11.83a1.09 1.09 0 011.2-1.1h0a1.11 1.11 0 011.23 1c.08 3.59 2.24 8.91 5.55 9.56a1.18 1.18 0 01-.23 2.35zM153.13 94.72a1.22 1.22 0 01-.32 0c-11-3-17.58-2-17.64-2a1.23 1.23 0 11-.39-2.42c.28 0 7.14-1.1 18.67 2a1.23 1.23 0 01-.32 2.41z" class="color333 svgShape"/><path fill="#333333" d="M135.17 95.32a1.22 1.22 0 01-1.18-.9l-1.29-4.56a1.23 1.23 0 112.36-.67l1.29 4.57a1.21 1.21 0 01-.85 1.51A1.26 1.26 0 01135.17 95.32zM172.29 77.26a1.45 1.45 0 01-.29 0 1.22 1.22 0 01-.9-1.48c1-4.1 5.86-4.5 6.06-4.51a1.23 1.23 0 11.18 2.45h0s-3.29.29-3.86 2.64A1.23 1.23 0 01172.29 77.26zM93 63.08L96 71s12.06 6.25 16.37 3 .15-8.63 1.19-13.84a17 17 0 013.58-7.89z" class="color333 svgShape"/><path fill="#ffffff" d="M110.26,74.61S93.93,61,89.27,75.69C85.92,86.33,99,93,108.07,89.52" class="colorfff svgShape"/><path fill="#333333" d="M102.88,91.66a17.3,17.3,0,0,1-11.67-4.4A11.1,11.1,0,0,1,88.1,75.32c1.26-4,3.45-6.45,6.51-7.34,7.06-2.07,16.06,5.37,16.44,5.68a1.23,1.23,0,0,1-1.57,1.89c-.08-.07-8.38-6.91-14.19-5.21-2.22.65-3.85,2.57-4.85,5.72a8.75,8.75,0,0,0,2.46,9.41,14.79,14.79,0,0,0,14.73,2.91,1.22,1.22,0,1,1,.87,2.29A15.84,15.84,0,0,1,102.88,91.66Z" class="color333 svgShape"/><path fill="#333333" d="M107.58,84.8a1.23,1.23,0,0,1-1.09-.66c-1.83-3.5-3.92-5.49-6.21-5.91a6.3,6.3,0,0,0-4.88,1.4,1.23,1.23,0,0,1-1.64-1.84,8.9,8.9,0,0,1,7-2c3.07.57,5.74,3,7.94,7.19a1.24,1.24,0,0,1-.52,1.66A1.3,1.3,0,0,1,107.58,84.8Z" class="color333 svgShape"/><path fill="#333333" d="M100,83.31a1.22,1.22,0,0,1-.87-.36,1.23,1.23,0,0,1,0-1.74L102.35,78a1.22,1.22,0,1,1,1.73,1.73L100.91,83A1.24,1.24,0,0,1,100,83.31Z" class="color333 svgShape"/><path fill="#fbece4" d="M175.07,55.09s-8.54-6-30.37-6.55S93.88,64.81,93.88,64.81A39.36,39.36,0,0,1,91,41.34s19.19-12.48,53-12.21c30.37.25,33.3,10.28,33.3,10.28l-1.39,15.88" class="colorfbf0e4 svgShape"/><path fill="#333333" d="M93.4,66.51l-.6-1.12a40.26,40.26,0,0,1-3-24.26l.09-.53.45-.29c.79-.51,19.47-12.41,52.54-12.41H144c30.93.25,34.34,10.71,34.47,11.15l.06.22-1.41,16.11a1.21,1.21,0,0,1-1.33,1.12,1.26,1.26,0,0,1-.57-.2,1.2,1.2,0,0,1-.81-.21h0c-.09-.06-8.6-5.76-29.71-6.34h-1.1c-21.1,0-48.78,16-49.06,16.12ZM92.07,42.1a39.48,39.48,0,0,0,2.37,21c5.73-3.19,30.61-16.32,50.29-15.78,18.11.49,27.22,4.61,30.06,6.18L176,39.59c-.6-1.21-5.48-9-32.06-9.23h-1.08C113.29,30.36,95.1,40.31,92.07,42.1Z" class="color333 svgShape"/><path fill="#fbece4" d="M94.08,63.67S112.25,40.3,145,30" class="colorfbf0e4 svgShape"/><path fill="#333333" d="M94.08,64.9a1.24,1.24,0,0,1-.75-.26,1.23,1.23,0,0,1-.22-1.72c.19-.24,18.78-23.8,51.52-34.06a1.23,1.23,0,1,1,.73,2.34c-32,10-50.13,33-50.31,33.22A1.2,1.2,0,0,1,94.08,64.9Z" class="color333 svgShape"/><path fill="#fbece4" d="M164.2,31.07s-18.91,9.38-26.35,17.42" class="colorfbf0e4 svgShape"/><path fill="#333333" d="M137.85,49.71a1.19,1.19,0,0,1-.83-.32,1.23,1.23,0,0,1-.07-1.74c7.51-8.11,25.92-17.29,26.7-17.68a1.23,1.23,0,1,1,1.1,2.2c-.19.09-18.79,9.37-26,17.15A1.22,1.22,0,0,1,137.85,49.71Z" class="color333 svgShape"/><line x1="96.91" x2="114.78" y1="37.02" y2="44.47" fill="#fbf0e4"/><path fill="#333333" d="M114.78,45.7a1.18,1.18,0,0,1-.48-.1L96.44,38.16a1.23,1.23,0,0,1,.94-2.27l17.87,7.44a1.23,1.23,0,0,1-.47,2.37Z" class="color333 svgShape"/><rect width="126.45" height="173.45" x="198.84" y="113.25" fill="#fbece4" class="colorfbf0e4 svgShape"/><path fill="#333333" d="M325.29,287.93H198.84a1.23,1.23,0,0,1-1.22-1.23V113.25a1.22,1.22,0,0,1,1.22-1.22H325.29a1.23,1.23,0,0,1,1.23,1.22V286.7A1.23,1.23,0,0,1,325.29,287.93Zm-125.22-2.45h124v-171h-124Z" class="color333 svgShape"/><rect width="85.12" height="3.11" x="231.56" y="171.72" fill="#e0d3cc" rx="1.33" class="colore0d3cc svgShape"/><rect width="30.45" height="3.11" x="231.56" y="180.39" fill="#e0d3cc" rx="1.33" class="colore0d3cc svgShape"/><rect width="30.45" height="3.11" x="268.23" y="180.39" fill="#e0d3cc" rx="1.33" class="colore0d3cc svgShape"/><path fill="#ffbf66" d="M215.11,187.76a10.06,10.06,0,1,1,10.06-10.06A10.07,10.07,0,0,1,215.11,187.76Zm0-18.67a8.61,8.61,0,1,0,8.61,8.61A8.62,8.62,0,0,0,215.11,169.09Z" class="colorc7ad9f svgShape"/><path fill="#ffbf66" d="M213.89,182.29a.89.89,0,0,1-.63-.26l-3.55-3.55a.89.89,0,0,1,0-1.26.88.88,0,0,1,1.25,0l2.88,2.88,6-7a.89.89,0,1,1,1.35,1.16L214.57,182a.91.91,0,0,1-.65.31Z" class="colorc7ad9f svgShape"/><rect width="85.12" height="3.11" x="231.56" y="197.55" fill="#e0d3cc" rx="1.33" class="colore0d3cc svgShape"/><rect width="30.45" height="3.11" x="231.56" y="206.22" fill="#e0d3cc" rx="1.33" class="colore0d3cc svgShape"/><rect width="48.45" height="3.11" x="268.23" y="206.22" fill="#e0d3cc" rx="1.33" class="colore0d3cc svgShape"/><path fill="#ffbf66" d="M215.11,215.39a10.06,10.06,0,1,1,10.06-10.06A10.07,10.07,0,0,1,215.11,215.39Zm0-18.67a8.61,8.61,0,1,0,8.61,8.61A8.61,8.61,0,0,0,215.11,196.72Z" class="colorc7ad9f svgShape"/><path fill="#ffbf66" d="M213.89,209.92a.89.89,0,0,1-.63-.26l-3.55-3.55a.89.89,0,0,1,0-1.26.88.88,0,0,1,1.25,0l2.88,2.88,6-7a.89.89,0,1,1,1.35,1.15l-6.66,7.78a.91.91,0,0,1-.65.31Z" class="colorc7ad9f svgShape"/><rect width="85.12" height="3.11" x="231.56" y="228.33" fill="#e0d3cc" rx="1.33" class="colore0d3cc svgShape"/><rect width="30.45" height="3.11" x="231.56" y="237" fill="#e0d3cc" rx="1.33" class="colore0d3cc svgShape"/><rect width="30.45" height="3.11" x="268.23" y="237" fill="#e0d3cc" rx="1.33" class="colore0d3cc svgShape"/><path fill="#ffbf66" d="M215.11,244.38a10.07,10.07,0,1,1,10.06-10.06A10.08,10.08,0,0,1,215.11,244.38Zm0-18.67a8.61,8.61,0,1,0,8.61,8.61A8.61,8.61,0,0,0,215.11,225.71Z" class="colorc7ad9f svgShape"/><path fill="#ffbf66" d="M213.89 238.91a.94.94 0 01-.63-.26l-3.55-3.56a.89.89 0 111.25-1.26l2.88 2.88 6-7.05a.9.9 0 011.26-.09.89.89 0 01.09 1.25l-6.66 7.78a.91.91 0 01-.65.31zM214.27 153.65H211.2V141h3.07zM228.38 153.65h-3.46l-5.09-8.27h-.06l.07 8.27h-3V141h3.48l5.08 8.25h.05l-.07-8.25h3zM239.62 142.23l-2 2.06a2.61 2.61 0 00-1-.79 2.86 2.86 0 00-1.24-.3 2.47 2.47 0 00-1.24.29 1 1 0 00-.53 1 1.08 1.08 0 00.13.52 1 1 0 00.42.39 4.48 4.48 0 00.58.29c.19.08.46.17.82.28l1.09.37a9.33 9.33 0 011 .48 4.1 4.1 0 011 .68 3.37 3.37 0 01.6 1 3.17 3.17 0 01.27 1.31 3.71 3.71 0 01-1.4 3.14 5.48 5.48 0 01-3.44 1.08 7.35 7.35 0 01-2.64-.48 5.5 5.5 0 01-2.09-1.34l2-2a3.37 3.37 0 001.22 1 3.28 3.28 0 001.51.38 2.23 2.23 0 001.26-.33 1.16 1.16 0 00.49-1 .92.92 0 00-.13-.51 1.68 1.68 0 00-.3-.38 1.93 1.93 0 00-.57-.33c-.27-.12-.51-.21-.7-.28l-.92-.31a7.86 7.86 0 01-1.2-.48 5.39 5.39 0 01-1-.66 2.67 2.67 0 01-.77-1 4 4 0 01.16-3.24 3.37 3.37 0 011.14-1.25 5.4 5.4 0 011.57-.69 6.57 6.57 0 014 .17A5.43 5.43 0 01239.62 142.23zM252.27 148.88a4.88 4.88 0 01-1.49 3.7 5.53 5.53 0 01-4 1.41 5.44 5.44 0 01-3.93-1.41 4.87 4.87 0 01-1.46-3.7V141h3v7.63a2.9 2.9 0 00.59 1.86 2.52 2.52 0 003.59 0 3 3 0 00.58-1.86V141h3.05zM265.08 153.65h-3.57l-2.74-5h-1v5h-3V141h4.82a7.27 7.27 0 011.79.2 5.53 5.53 0 011.53.62A3 3 0 01264 143a3.79 3.79 0 01.4 1.8 3.42 3.42 0 01-.69 2.15 3.8 3.8 0 01-1.93 1.26zm-3.7-8.77c0-.94-.68-1.42-2-1.42h-1.63v2.95h1.45C260.64 146.41 261.38 145.9 261.38 144.88z" class="colorc7ad9f svgShape"/><path fill="#ffbf66" d="M278.55 153.65h-3.39l-1-2.49h-4.89l-.93 2.49H265l5.3-12.65h3zm-5.21-4.93l-1.58-4.34-1.61 4.34zM291.11 153.65h-3.46l-5.1-8.27h-.05l.07 8.27h-3V141h3.48l5.07 8.25h.06l-.07-8.25h3zM304.85 151.9a6.16 6.16 0 01-4.91 2.09 6.71 6.71 0 01-4.88-1.87 6.38 6.38 0 01-1.93-4.81 6.28 6.28 0 012-4.82 6.89 6.89 0 014.9-1.83 7.39 7.39 0 012.67.49 5.08 5.08 0 012.07 1.37l-2.08 2.07a2.58 2.58 0 00-1.1-.87 3.72 3.72 0 00-1.45-.29 3.45 3.45 0 00-2.62 1.1 3.93 3.93 0 00-1 2.78 4 4 0 001 2.79 3.37 3.37 0 002.59 1.08 3.08 3.08 0 002.68-1.28zM315 153.65h-8.83V141h8.51v2.59H309.1V146h5.26v2.44H309.1V151H315z" class="colorc7ad9f svgShape"/><path fill="#ffffff" d="M232,104.87l.12,17.43c0,3.11,3.43,5.61,7.61,5.59,3.46,0,6.34-1.77,7.21-4.14.82,2.48,3.8,4.31,7.37,4.29a8.28,8.28,0,0,0,6.41-2.73,8.15,8.15,0,0,0,6.69,3c3.51,0,6.43-1.81,7.26-4.23a7.29,7.29,0,0,0,6,2.73c3.74,0,6.76-2.29,6.74-5.07l-.12-15.63a4,4,0,0,0-.58-2,7.17,7.17,0,0,0-6.23-3,7.24,7.24,0,0,0-6,2.75,4.92,4.92,0,0,0-.39-.88c-1.19-2-3.86-3.35-6.95-3.34a8.3,8.3,0,0,0-6.42,2.75,8.17,8.17,0,0,0-6.68-3c-3.46,0-6.33,1.77-7.21,4.14a4.56,4.56,0,0,0-.43-1c-1.18-2-3.85-3.34-6.94-3.33C235.34,99.23,232,101.76,232,104.87Z" class="colorfff svgShape"/><path fill="#333333" d="M267.36,129.53a10,10,0,0,1-6.69-2.43,10,10,0,0,1-6.36,2.17,9.61,9.61,0,0,1-7.41-3.12,9.53,9.53,0,0,1-7.18,3c-4.94,0-8.8-3-8.83-6.81l-.13-17.43a5.9,5.9,0,0,1,1.83-4.24,10.38,10.38,0,0,1,14.33.45,9.57,9.57,0,0,1,7.17-3,9.93,9.93,0,0,1,6.72,2.44,10,10,0,0,1,6.38-2.18,9.58,9.58,0,0,1,7.62,3.36,9.16,9.16,0,0,1,5.69-1.9c3.13,0,6,1.4,7.28,3.58a5.17,5.17,0,0,1,.76,2.65l.11,15.63A5.48,5.48,0,0,1,287,125.6a8.87,8.87,0,0,1-6.29,2.42,9.28,9.28,0,0,1-5.76-1.89,9.45,9.45,0,0,1-7.53,3.4Zm-6.65-5.45h0a1.23,1.23,0,0,1,1,.52,6.94,6.94,0,0,0,5.65,2.48v1.22l0-1.22c2.91,0,5.42-1.42,6.11-3.41a1.22,1.22,0,0,1,2.16-.31,6.06,6.06,0,0,0,5,2.21,6.58,6.58,0,0,0,4.59-1.69,3.06,3.06,0,0,0,1-2.15l-.11-15.62a2.85,2.85,0,0,0-.42-1.41,6,6,0,0,0-5.13-2.39,6,6,0,0,0-5,2.23,1.22,1.22,0,0,1-2.17-.3,4.24,4.24,0,0,0-.28-.65c-1-1.66-3.3-2.74-5.86-2.74a7.18,7.18,0,0,0-5.51,2.29,1.18,1.18,0,0,1-1,.46,1.22,1.22,0,0,1-1-.51,6.91,6.91,0,0,0-5.63-2.5c-2.89,0-5.39,1.39-6.11,3.34a1.2,1.2,0,0,1-1.17.8,1.23,1.23,0,0,1-1.15-.84,2.79,2.79,0,0,0-.31-.71c-1-1.66-3.29-2.74-5.85-2.74a7.47,7.47,0,0,0-5.22,1.93,3.55,3.55,0,0,0-1.11,2.49l.12,17.43c0,2.41,2.86,4.38,6.33,4.38,2.89,0,5.39-1.39,6.11-3.34a1.24,1.24,0,0,1,1.18-.81,1.22,1.22,0,0,1,1.14.85c.66,2,3.25,3.45,6.16,3.45a7.16,7.16,0,0,0,5.5-2.28A1.24,1.24,0,0,1,260.71,124.08Z" class="color333 svgShape"/><path fill="#333333" d="M247.21,123.81a.28.28,0,0,1-.27.16c-.17,0-.3-.1-.3-.22l0-20.25c0-.12.13-.21.29-.21s.29.09.29.21l.06,20.25A.14.14,0,0,1,247.21,123.81Z" class="color333 svgShape"/><path fill="#333333" d="M246.94 124.89h0a1.18 1.18 0 01-1.21-1.13l-.05-20.25a1.16 1.16 0 011.2-1.15 1.18 1.18 0 011.22 1.14l.06 20.25a1.1 1.1 0 01-.09.42 1.22 1.22 0 01-1.12.72zM261 125.38a.3.3 0 01-.26.15c-.16 0-.3-.09-.31-.21l-.69-12.41c0-.12.12-.22.28-.23a.27.27 0 01.3.21l.7 12.41A.24.24 0 01261 125.38z" class="color333 svgShape"/><path fill="#333333" d="M260.72 126.45a1.17 1.17 0 01-1.22-1.07L258.81 113a1 1 0 01.27-.79 1.33 1.33 0 01.89-.41h0a1.21 1.21 0 011.26 1.08l.7 12.41a1 1 0 01-.09.48 1.21 1.21 0 01-1.08.72zM274.51 118.7a.29.29 0 01-.28.14c-.16 0-.29-.11-.29-.23l.12-14.1c0-.12.13-.21.29-.2a.26.26 0 01.29.22l-.11 14.1A.14.14 0 01274.51 118.7z" class="color333 svgShape"/><path fill="#333333" d="M274.25 119.76h-.05a1.19 1.19 0 01-1.18-1.17l.12-14.09a1 1 0 01.3-.75 1.26 1.26 0 01.89-.37h.06a1.17 1.17 0 011.17 1.16l-.11 14.09a1.06 1.06 0 01-.12.48A1.2 1.2 0 01274.25 119.76zM274.94 124.13a.3.3 0 01-.25.15c-.16 0-.31-.07-.32-.19l-.27-2a.25.25 0 01.26-.24.29.29 0 01.32.19l.27 2A.28.28 0 01274.94 124.13z" class="color333 svgShape"/><path fill="#333333" d="M274.66,125.2a1.17,1.17,0,0,1-1.2-1l-.27-2a1.08,1.08,0,0,1,.25-.85,1.24,1.24,0,0,1,.86-.43h.09a1.18,1.18,0,0,1,1.2,1l.27,2a1,1,0,0,1-.08.57,1.18,1.18,0,0,1-1,.71Z" class="color333 svgShape"/><path fill="#ffbf66" d="M302.32,257.35l-.58.15a14.84,14.84,0,0,0-28.3,7.25l-.72.19,1.48,5.74.84-.22a14.85,14.85,0,0,0,28-7.19l.7-.17Zm-17.09-5.42a12.14,12.14,0,0,1,13.83,6.26l-.71.18a11.42,11.42,0,0,0-21.52,5.51l-.71.19A12.14,12.14,0,0,1,285.23,251.93Zm-6.31,11.42a9.33,9.33,0,0,1,17.34-4.45Zm18.6,1.35A9.33,9.33,0,0,1,280.61,269Zm-6.26,10.74a12.17,12.17,0,0,1-13.51-5.67l.72-.18a11.43,11.43,0,0,0,21.19-5.44l.72-.18A12.17,12.17,0,0,1,291.26,275.44Z" class="colorc7ad9f svgShape"/><path fill="#ffffff" d="M77.94,225.73S77,179.08,76.1,176.62" class="colorfff svgShape"/><path fill="#333333" d="M77.94,226.74a1.13,1.13,0,0,1-1.23-1.09c-.35-17.72-1.14-46.57-1.77-48.67a1.19,1.19,0,0,1,.72-1.54,1.24,1.24,0,0,1,1.59.74c.94,2.52,1.76,41.59,1.91,49.41a1.13,1.13,0,0,1-1.2,1.15Z" class="color333 svgShape"/><path fill="#ffffff" d="M149.31,268.63a203.83,203.83,0,0,1,32.69.95c6.37.9,34,2.85,40.65,5.71s14,7.77,25.16,25.92,8.47,18.48,8.47,18.48c-6.41,10-19.71-4.57-19.71-4.57.28,7.75-6,9.54-6,9.54,1.25,8.68-6,12.81-6,12.81-2.61,9.58-23.23,15.06-29.56,11.83s-4.49-10-4.49-10c-12.05,4.91-29.84-14.08-29.84-14.08s-24.47-11.5-26.47-12.05C135.4,295.48,136.61,286,149.31,268.63Z" class="colorfff svgShape"/><path fill="#333333" d="M200,351.46a12.64,12.64,0,0,1-5.67-1.07,9.58,9.58,0,0,1-5.43-9.35,13.12,13.12,0,0,1-2.83.3c-11.4,0-24.55-13.34-26.24-15.11-9.8-4.6-24.68-11.5-26.06-11.87a1.23,1.23,0,0,1-.9-1.27c1.26-17.54,2.51-27.51,15.41-45.18a1.21,1.21,0,0,1,.92-.5c3.22-.2,6.64-.3,10.17-.3a207.42,207.42,0,0,1,22.73,1.25c1.66.24,4.69.54,8.53.91,10.89,1.08,27.35,2.7,32.46,4.89,7.73,3.33,15.07,9.09,25.73,26.41,10.13,16.6,9.1,18.7,8.71,19.49a1.72,1.72,0,0,1-.4.52,7.93,7.93,0,0,1-6.82,3.85c-4.85,0-10-4.05-12.74-6.55a10.19,10.19,0,0,1-5.74,7.59,14,14,0,0,1-6.34,12.79C222.85,346.33,208.81,351.46,200,351.46Zm-9.6-13.39a1.23,1.23,0,0,1,.82.32,1.21,1.21,0,0,1,.36,1.24c-.07.24-1.53,5.86,3.86,8.57a10.44,10.44,0,0,0,4.56.8c8,0,21.32-4.73,23.27-11.86a1.19,1.19,0,0,1,.58-.74,11.65,11.65,0,0,0,5.43-11.57,1.24,1.24,0,0,1,.88-1.36c.22-.06,5.38-1.66,5.14-8.3a1.22,1.22,0,0,1,2.13-.87c.07.07,7.09,7.67,12.88,7.67a5.58,5.58,0,0,0,4.9-3l.08-.11c0-.77-.76-4.27-8.57-17.06-11.47-18.64-18.71-22.9-24.6-25.43-4.75-2-21.64-3.71-31.73-4.7-3.87-.38-6.92-.68-8.6-.92a203.28,203.28,0,0,0-22.42-1.23c-3.27,0-6.45.08-9.45.25-12,16.57-13.31,25.73-14.54,42.53,4.79,1.94,23.41,10.68,25.7,11.76a1,1,0,0,1,.37.27c.14.14,13.73,14.5,24.62,14.5a10.12,10.12,0,0,0,3.86-.72A1.27,1.27,0,0,1,190.44,338.07Z" class="color333 svgShape"/><path fill="#333333" d="M160.62 326.53a1.21 1.21 0 01-.93-.44 16.31 16.31 0 01-3.79-7.43 1.23 1.23 0 012.43-.36 14.31 14.31 0 003.23 6.21 1.22 1.22 0 01-.94 2zM224.52 338.78h0a1.23 1.23 0 01-1.2-1.25A17.71 17.71 0 00213 320.88a1.23 1.23 0 01.91-2.29c.12.05 12.11 5 11.86 19A1.23 1.23 0 01224.52 338.78zM230.56 326a1.23 1.23 0 01-1.19-.93 25.54 25.54 0 00-9-14.28 1.23 1.23 0 011.37-2c.3.2 7.33 5 10 15.73a1.23 1.23 0 01-.9 1.48A1 1 0 01230.56 326zM251.44 322a1.22 1.22 0 01-.94-.44L245.86 316a1.23 1.23 0 01-.14-1.35 11.17 11.17 0 017.05-5.47 1.22 1.22 0 011.46.94 1.24 1.24 0 01-.94 1.46 9 9 0 00-5 3.51l3.43 4.13 2.33-1.34a1.23 1.23 0 011.22 2.13l-3.23 1.85A1.21 1.21 0 01251.44 322zM190.46 340.62a1.23 1.23 0 01-.2-2.44 32.77 32.77 0 0014.78-7 1.23 1.23 0 111.65 1.82 34.66 34.66 0 01-16 7.57z" class="color333 svgShape"/><path fill="#333333" d="M205.77 335.8l-.26 0-2.41-.52a1.23 1.23 0 11.52-2.4l2.41.52a1.22 1.22 0 01.94 1.45A1.24 1.24 0 01205.77 335.8zM210.82 285a1.23 1.23 0 01-.8-.3l-8.42-7.21a1.23 1.23 0 01-.13-1.73 1.21 1.21 0 011.73-.13l8.42 7.21a1.23 1.23 0 01-.8 2.16z" class="color333 svgShape"/><path fill="#333333" d="M202.09 282.54a1.24 1.24 0 01-1.18-.86 1.23 1.23 0 01.81-1.54l9.23-2.9a1.23 1.23 0 11.73 2.34l-9.23 2.9A1.13 1.13 0 01202.09 282.54zM204.88 300.66a1.21 1.21 0 01-.8-.3l-8.42-7.21a1.22 1.22 0 01-.14-1.73 1.24 1.24 0 011.74-.13l8.42 7.21a1.23 1.23 0 01-.8 2.16z" class="color333 svgShape"/><path fill="#333333" d="M196.14 298.2a1.23 1.23 0 01-.35-2.4L205 293a1.23 1.23 0 01.72 2.35l-9.25 2.81A1.13 1.13 0 01196.14 298.2zM200.21 314.37a1.22 1.22 0 01-.8-.29L191 306.87a1.24 1.24 0 01-.13-1.74 1.23 1.23 0 011.73-.13l8.42 7.21a1.23 1.23 0 01.13 1.73A1.19 1.19 0 01200.21 314.37z" class="color333 svgShape"/><path fill="#333333" d="M191.48 311.91a1.23 1.23 0 01-1.17-.86 1.22 1.22 0 01.8-1.54l9.23-2.9a1.23 1.23 0 11.73 2.34l-9.22 2.9A1.24 1.24 0 01191.48 311.91zM236.49 316.37a1.23 1.23 0 01-1.21-1h0a28.7 28.7 0 00-10.14-16.24 1.23 1.23 0 111.51-1.94 30.67 30.67 0 0111 17.78 1.22 1.22 0 01-1 1.41z" class="color333 svgShape"/><path fill="#ffffff" d="M160.31,262.65l-5.15,67s-3.93.14-10.5.29c-29,.64-109.3,1.5-130.29-8.3C-7.56,311.36,3.71,214.79,7.54,186.36c.67-5,1.11-7.84,1.11-7.84C107.66,204.27,160.31,262.65,160.31,262.65Z" class="colorfff svgShape"/><path fill="#333333" d="M113,331.48c-36.68,0-83.66-1.52-99.19-8.77C4,318.12-.63,297.28.07,260.78c.55-28.57,4.16-59,6.26-74.59.66-4.9,1.1-7.83,1.1-7.86a1.26,1.26,0,0,1,.54-.84,1.23,1.23,0,0,1,1-.16,356.85,356.85,0,0,1,113.35,51.9c25.36,17.69,38.78,32.45,38.92,32.6a1.27,1.27,0,0,1,.31.91l-5.15,67a1.23,1.23,0,0,1-1.18,1.14s-4,.14-10.52.28C137.42,331.29,126,331.48,113,331.48ZM9.66,180.05c-.19,1.31-.51,3.53-.9,6.47-8,59.63-10.65,126.13,6.13,134C30,327.54,76.61,329,113,329c13,0,24.33-.19,31.59-.35,4.5-.1,7.79-.2,9.39-.25l5-65.33c-2.26-2.41-15.32-15.93-38.21-31.89A354.46,354.46,0,0,0,9.66,180.05Z" class="color333 svgShape"/><path fill="#fd7a2e" d="M149.44,267.8l-4.78,62.1c-29,.64-109.3,1.5-130.29-8.3C-7.56,311.36,3.71,214.79,7.54,186.36,100.25,213.26,149.44,267.8,149.44,267.8Z" class="color2e8ffd svgShape"/><path fill="#333333" d="M113,331.48c-36.68,0-83.66-1.52-99.19-8.77C4,318.12-.63,297.28.07,260.78c.55-28.57,4.16-59,6.26-74.59a1.23,1.23,0,0,1,1.56-1,355.28,355.28,0,0,1,106.08,51c23.72,16.88,36.26,30.67,36.38,30.81a1.18,1.18,0,0,1,.31.91L145.88,330a1.21,1.21,0,0,1-1.19,1.13C137.42,331.29,126,331.48,113,331.48ZM8.57,187.94C.68,247.2-1.76,312.72,14.89,320.49,30,327.54,76.61,329,113,329c12.32,0,23.2-.17,30.48-.33l4.65-60.45c-2.18-2.32-14.36-15-35.69-30.12A352.84,352.84,0,0,0,8.57,187.94Z" class="color333 svgShape"/><path fill="#ffffff" d="M189.36,125.75s0,88.13-53.59,135.77l-13.1-10.72s51.21-51.21,53-126.24Z" class="colorfff svgShape"/><path fill="#333333" d="M135.77,262.74a1.25,1.25,0,0,1-.78-.27l-13.1-10.72a1.23,1.23,0,0,1-.45-.89,1.21,1.21,0,0,1,.36-.93c.12-.13,12.88-13,25.68-34.8,11.79-20.1,26-52.14,27-90.6a1.21,1.21,0,0,1,.4-.89,1.26,1.26,0,0,1,.93-.3l13.69,1.19a1.22,1.22,0,0,1,1.13,1.22,242.16,242.16,0,0,1-6.74,50.3c-6.15,25.71-19.35,61.56-47.27,86.38A1.19,1.19,0,0,1,135.77,262.74Zm-11.3-12.05,11.26,9.21c26.91-24.37,39.72-59.29,45.74-84.42a245,245,0,0,0,6.64-48.61l-11.26-1c-1.21,38.44-15.47,70.41-27.3,90.55A199.31,199.31,0,0,1,124.47,250.69Z" class="color333 svgShape"/><path fill="#fd7a2e" d="M328.4,197.08l.81,34.85c.32,13.79-6.45,26.61-17.54,33.32l-16.33,9.86a8.59,8.59,0,0,1-4.14,1.26h-.71a8.77,8.77,0,0,1-3.93-1.07l-16.69-9.08c-11.35-6.19-18.69-18.67-19-32.43l-.82-35a5.34,5.34,0,0,1,6.86-5.23,25.4,25.4,0,0,0,8,1.11,24.94,24.94,0,0,0,20.62-11.8,4.17,4.17,0,0,1,2.77-1.92,4.08,4.08,0,0,1,.69-.09,4.26,4.26,0,0,1,3.71,1.84,25,25,0,0,0,28.68,9.49A5.34,5.34,0,0,1,328.4,197.08Z" class="color2e8ffd svgShape"/><path fill="#ffa875" d="M328.4,197.08l.81,34.85c.32,13.79-6.45,26.61-17.54,33.32l-16.33,9.86a8.59,8.59,0,0,1-4.14,1.26h-.71l-2.21-95.46a4.08,4.08,0,0,1,.69-.09,4.26,4.26,0,0,1,3.71,1.84,25,25,0,0,0,28.68,9.49A5.34,5.34,0,0,1,328.4,197.08Z" class="color75b4ff svgShape"/><path fill="#ffffff" d="M291,279.9a12.26,12.26,0,0,1-6.15-1.5l-16.69-9.08c-12.48-6.81-20.49-20.39-20.84-35.44l-.82-35a8.88,8.88,0,0,1,8.63-9.07,8.65,8.65,0,0,1,2.81.4,21.76,21.76,0,0,0,6.86,1A21.36,21.36,0,0,0,282.52,181a7.75,7.75,0,0,1,6.32-3.66H289a7.75,7.75,0,0,1,6.6,3.37,21.43,21.43,0,0,0,24.61,8.15,8.74,8.74,0,0,1,2.68-.48,8.87,8.87,0,0,1,9,8.65l.81,34.85c.35,15.09-7,29-19.23,36.41l-16.33,9.87a12.2,12.2,0,0,1-5.79,1.75Zm-35.7-83.09a1.85,1.85,0,0,0-1.76,1.86l.82,35c.29,12.55,6.89,23.83,17.18,29.43l16.66,9.08a5.29,5.29,0,0,0,2.78.63h0a5.06,5.06,0,0,0,2.46-.75l16.34-9.86c10-6.07,16.14-17.66,15.85-30.22l-.81-34.86a1.86,1.86,0,0,0-1.85-1.77,1.75,1.75,0,0,0-.54.09,28.43,28.43,0,0,1-32.71-10.82.7.7,0,0,0-.63-.31h0a.74.74,0,0,0-.6.34,28.51,28.51,0,0,1-32.63,12.2A1.89,1.89,0,0,0,255.32,196.81Z" class="colorfff svgShape"/><path fill="#333333" d="M290.74,281.13a13.55,13.55,0,0,1-6.46-1.65L267.6,270.4c-12.9-7-21.13-21-21.49-36.49l-.81-35a10.08,10.08,0,0,1,9.83-10.32h.22a10,10,0,0,1,3,.46,20.24,20.24,0,0,0,23.15-8.67,9,9,0,0,1,7.32-4.24h.37A9,9,0,0,1,296.6,180a20.21,20.21,0,0,0,23.19,7.68,10.4,10.4,0,0,1,3-.55h.23A10.13,10.13,0,0,1,333.14,197l.81,34.85c.36,15.51-7.24,29.88-19.83,37.49l-16.32,9.87a13.54,13.54,0,0,1-6.37,1.93h-.69ZM255.35,191h-.17a7.63,7.63,0,0,0-7.43,7.81l.82,35c.34,14.6,8.08,27.78,20.2,34.4l16.68,9.07a11,11,0,0,0,5.29,1.35h.57a11.06,11.06,0,0,0,5.22-1.58l16.32-9.87c11.84-7.16,19-20.7,18.65-35.33L330.69,197a7.67,7.67,0,0,0-7.62-7.45h-.17a7.73,7.73,0,0,0-2.31.41,23,23,0,0,1-6.83,1.22,22.66,22.66,0,0,1-19.19-9.83,6.54,6.54,0,0,0-5.4-2.84h-.28a6.52,6.52,0,0,0-5.32,3.09,22.71,22.71,0,0,1-26,9.71A7.44,7.44,0,0,0,255.35,191Zm35.39,83.09a6.59,6.59,0,0,1-3.11-.79L271,264.22c-10.69-5.83-17.52-17.51-17.82-30.48l-.81-35a3,3,0,0,1,.92-2.24,3.06,3.06,0,0,1,2-.88h.06a3,3,0,0,1,.89.14,27.53,27.53,0,0,0,8.72,1.21A27.16,27.16,0,0,0,287.47,184a1.94,1.94,0,0,1,1.59-.92h.11a1.92,1.92,0,0,1,1.62.85,27.23,27.23,0,0,0,31.3,10.35,3.11,3.11,0,0,1,.91-.16h.07a3.06,3.06,0,0,1,3,3l.81,34.86c.31,13-6,25-16.43,31.3l-16.35,9.87a6.54,6.54,0,0,1-3,.92Zm-36.06-77.28L255,198c-.1,0-.08.06-.21.18s-.1.26-.1.43l.86,35c.28,12.1,6.64,23,16.56,28.39l16.68,9.07a4.13,4.13,0,0,0,2.13.49,4.07,4.07,0,0,0,1.93-.57l16.35-9.87c9.69-5.86,15.53-17,15.25-29.15l-.81-34.85a.62.62,0,0,0-.58-.57l-.18,0a29.28,29.28,0,0,1-9,1.6,29.62,29.62,0,0,1-24.75-12.31A29.61,29.61,0,0,1,265,199.38a31.64,31.64,0,0,1-9.84-1.32l-.5,0Z" class="color333 svgShape"/><polygon fill="#ffffff" points="312.68 218.74 297.68 218.74 297.68 205.74 280.68 205.74 280.68 218.74 266.68 218.74 266.68 236.74 280.68 236.74 280.68 250.74 297.68 250.74 297.68 236.74 312.68 236.74 312.68 218.74" class="colorfff svgShape"/><path fill="#333333" d="M298.12 251.74H280.93a1.46 1.46 0 01-1.25-1.46V237.74H266.81c-.68 0-1.13-.28-1.13-1V219a1.16 1.16 0 011.13-1.24h12.87V205.47c0-.67.57-.73 1.25-.73h17.19c.68 0 1.56.06 1.56.73v12.27h12.56a1.44 1.44 0 011.44 1.24v17.8c0 .68-.77 1-1.44 1H299.68v12.54A1.76 1.76 0 01298.12 251.74zm-16.44-3h15v-12c0-.68.76-1 1.44-1h12.56v-16H298.12c-.68 0-1.44-.08-1.44-.76V206.74h-15V219c0 .68-.07.76-.75.76H267.68v16h13.25c.68 0 .75.36.75 1zM113 136.64l-2.22-1.06s2.07-4.33 3.29-6.77c.51-1 .35-2.86.16-5a33.34 33.34 0 01-.08-6.89 13.06 13.06 0 014.14-8.38l1.54 1.92a10.53 10.53 0 00-3.24 6.76 30.61 30.61 0 00.09 6.38c.22 2.5.4 4.66-.41 6.3C115.07 132.32 113 136.6 113 136.64z" class="color333 svgShape"/><path fill="#ffa875" d="M108.42,112.38a44.73,44.73,0,0,0,17.5,8.49l-.92,7.77a52.84,52.84,0,0,1-18.31-8.39Z" class="color75b4ff svgShape"/><path fill="#333333" d="M125 129.87a1 1 0 01-.25 0 53.46 53.46 0 01-18.79-8.6 1.22 1.22 0 01-.47-1.25l1.74-7.88a1.19 1.19 0 01.82-.9 1.21 1.21 0 011.19.25 43.88 43.88 0 0017 8.22 1.23 1.23 0 01.92 1.33l-.92 7.78a1.24 1.24 0 01-1.22 1.08zm-16.94-10.14a52.65 52.65 0 0015.88 7.38l.63-5.33a48 48 0 01-15.37-7.23zM86.74 281a1.2 1.2 0 01-.86-.36 1.21 1.21 0 010-1.73L108 256.38a1.23 1.23 0 011.75 1.72l-22.1 22.51A1.25 1.25 0 0186.74 281zM80.19 262.56a1.23 1.23 0 01-.41-2.39l18.83-6.54a1.22 1.22 0 11.81 2.31l-18.83 6.55A1.12 1.12 0 0180.19 262.56zM142 154.88c-16.4 0-31.57-7.76-32.36-8.17a1.23 1.23 0 01-.53-1.65 1.24 1.24 0 011.66-.53c.23.13 23.44 12 42.67 6.36a1.23 1.23 0 01.69 2.36A43.45 43.45 0 01142 154.88zM189.86 61.22a1.22 1.22 0 01-1.13-.75 1.24 1.24 0 01.65-1.61l18.42-7.77a1.23 1.23 0 11.95 2.26l-18.41 7.78A1.36 1.36 0 01189.86 61.22zM193.54 76.36a1.22 1.22 0 01-1.22-1.14 1.23 1.23 0 011.14-1.31l12.28-.82a1.23 1.23 0 11.16 2.45l-12.27.82zM209.5 98.87a1.41 1.41 0 01-.44-.08l-18-7a1.23 1.23 0 01.89-2.29l18 7a1.23 1.23 0 01-.45 2.37z" class="color333 svgShape"/></svg>