<svg xmlns="http://www.w3.org/2000/svg" enable-background="new 0 0 3000 3000" viewBox="0 0 3000 3000"><path fill="#ffbf66" d="M1812.32 1152.76c-17.23 49.44-48.37 92.59-88.43 131.81l-17.83-3.45h-.12l-24.48-4.87h-.12l-10.93-2.14-108.51-21.28-131.81-25.91-205.26-53.6c-92.11-24.01-182.79 43.14-186.72 138.11l-.59 14.38-4.04 96.27v.12l-11.77 284.77-4.87 115.88v.12l-9.15 222.37-3.45 83.2-24.84 597.11-7.37 176.85-2.97 72.5H632.59l14.26-181.49 14.5-183.27 21.99-278.95 9.39-118.85L714 1943.48l9.98-126.46 9.75-123.49 14.74-187.43c.12-1.55.36-2.97.48-4.52 6.42-60.14 14.14-120.28 23.06-180.66 7.25-49.09 15.21-98.17 24.13-147.38 17.71-99.36 38.63-199.08 62.4-299.03-87.12-1.9-167.11-35.77-212.75-113.39-7.25-12.36.71-28.05 14.98-29.48 77.02-7.49 161.16-2.14 250.18 11.89 4.04.71 8.32.48 12.24-.48l18.78-4.64 24.13-5.94 63.23-15.69 24.84-6.06 11.41-2.85c11.29-2.73 20.21-11.77 22.7-23.18 23.89-108.99 73.93-164.37 183.51-204.07 14.02-5.11 28.41 7.37 25.55 21.99-15.33 76.54-42.19 139.3-89.14 203.12 196.58 74.4 372.25 153.2 513.8 239.37C1793.42 1004.67 1822.42 1074.19 1812.32 1152.76zM1040.1 478.41l-37.17-34.17c-5.82-5.35-7.87-13.67-5.19-21.12l0 0c2.68-7.44 9.55-12.55 17.45-12.97l51.5-2.73c20.68-1.1 40.51 12.29 44.35 32.64 1.41 7.49.91 15.45-1.86 23.14l0 0c-.59 1.64-1.27 3.23-2.03 4.76C1094.76 492.92 1060.62 497.27 1040.1 478.41z" class="colorffc42f svgShape"/><polygon fill="#ffbf66" points="1054.16 453.67 1054.16 710.74 1029.32 716.8 1029.32 453.67" class="colorffc42f svgShape"/><path fill="#ffbf66" d="M907.99,497.19l29.75-40.79c4.66-6.39,5.03-14.95,0.95-21.72l0,0c-4.08-6.77-11.83-10.44-19.66-9.3      L868,432.8c-20.49,2.98-37.31,20-37.09,40.7c0.08,7.62,2.14,15.32,6.36,22.33l0,0c0.9,1.49,1.88,2.92,2.92,4.27      C857.24,522.14,891.57,519.71,907.99,497.19z" class="colorffc42f svgShape"/><polygon fill="#ffbf66" points="966.09 732.49 941.96 738.44 889.31 475.65 913.79 470.78" class="colorffc42f svgShape"/><path fill="#4c3f37" d="M1130.82,801.31c-37.49,13.66-72.57,30.93-89.35,67.69c-5.48,11.55-9.04,24.19-12.2,37.37     C1019.46,846.88,1073.91,799.58,1130.82,801.31L1130.82,801.31z" class="color37424c svgShape"/><circle cx="1134.16" cy="878.67" r="18.62" fill="#4c3f37" class="color37424c svgShape"/><path fill="#4c3f37" d="M1700.21 1109.71L1700.21 1109.71c-9.27 2.03-18.44-3.84-20.47-13.11l0 0c-2.03-9.27 3.84-18.44 13.11-20.47l0 0c9.27-2.03 18.44 3.84 20.47 13.11l0 0C1715.36 1098.51 1709.49 1107.68 1700.21 1109.71zM1780.76 1086.16L1780.76 1086.16c-9.27 2.03-18.44-3.84-20.47-13.11l0 0c-2.03-9.27 3.84-18.44 13.11-20.47l0 0c9.27-2.03 18.44 3.84 20.47 13.11l0 0C1795.9 1074.96 1790.03 1084.12 1780.76 1086.16z" class="color37424c svgShape"/><path fill="#be7951" d="M1729.28,1219.13l-0.24,3.57l-1.78,32.45c-0.36,5.82-2.38,11.41-5.94,15.93     c-9.27,11.89-26.15,14.5-38.63,6.06l-12.24-8.32v27.81c0,8.8-4.87,16.76-12.6,20.8c-9.27,4.87-20.56,2.97-27.81-4.52     l-23.65-24.48l-27.69,25.55c-5.11,4.63-11.53,7.13-18.07,7.13c-5.59,0-11.17-1.78-15.93-5.35c-12.48-9.27-14.38-27.34-3.92-39.1     l76.3-85.69l2.26-2.61l12.12,3.45c26.62,13.91,54.91,21.39,84.98,23.77L1729.28,1219.13z" class="color51be9e svgShape"/><path fill="#4c3f37" d="M1753.17,1215.81c-7.73,3.09-15.93,5.47-24.13,6.89c-39.34,6.77-82.6-4.75-111.96-31.73     c-5.94-5.59-11.41-11.65-16.05-18.42c9.86,7.37,20.09,13.79,30.43,19.25c26.62,13.91,54.91,21.39,84.98,23.77     C1728.45,1216.4,1740.69,1216.52,1753.17,1215.81z" class="color37424c svgShape"/><path fill="#f59919" d="M1430.09,1226.92l-182.08-35.66c-52.41-10.34-101.62,28.05-104.59,81.3l-2.38,44.09l-6.66,122.18    l-12.36,230.93l-9.86,182.8l-46.95,871.19l-0.24,3.45l-9.98,183.86l-0.12,2.26l-3.33,61.68h-82.48l2.97-72.5l7.37-176.85    l24.84-597.11l3.45-83.2l9.15-222.37v-0.12l4.87-115.88l11.77-284.77v-0.12l4.04-96.27l0.59-14.38    c3.92-94.96,94.61-162.11,186.72-138.11L1430.09,1226.92z" class="colorf5b419 svgShape"/><g><path fill="#ff6103" d="M766.89 1937.77l-52.89 5.71 9.98-126.46 46.47 9.39c10.1 2.02 18.9 7.96 25.67 16.52 6.77 8.68 11.29 19.85 12.48 32.21C811.7 1906.64 792.8 1935.04 766.89 1937.77zM711.27 2328.32l-27.93 2.97 9.39-118.85 21.99 4.4c10.1 2.02 19.02 8.08 25.79 16.64 6.66 8.56 11.17 19.61 12.36 32.09C756.08 2297.07 737.18 2325.59 711.27 2328.32zM904.76 1254.26v.36c-.12 34.59-21.87 63.82-47.9 64.42l-84.86 1.9c7.25-49.09 15.21-98.17 24.13-147.38l75.71 24.36C891.33 1204.22 904.76 1227.04 904.76 1254.26zM864.11 1649.8c-12.96 29.71-35.3 49.32-55.62 49.32-.71 0-1.55-.12-2.26-.12l-72.5-5.47 14.74-187.43c.12-1.55.36-2.97.48-4.52l104.11 54.67C876.24 1568.38 881.23 1610.81 864.11 1649.8zM766.89 2704.73c0 53.84-38.03 97.46-84.98 97.46-12.6 0-24.36-3.09-35.06-8.68l14.5-183.27c6.54-1.9 13.43-2.85 20.56-2.85C728.86 2607.39 766.89 2650.89 766.89 2704.73zM1141.04 1316.65l-6.66 122.18-100.91-16.64v-.12l-20.44-3.33c-10.1-1.66-19.02-6.54-25.79-13.55-6.77-7.01-11.29-16.16-12.48-26.27-3.09-25.79 15.81-49.09 41.72-51.34l21.04-1.78L1141.04 1316.65zM1122.02 1669.76l-9.86 182.8-65.01-7.13c-11.89-1.31-22.46-9.75-30.31-22.58-9.51-15.45-15.09-37.2-14.14-60.5.59-16.76 4.64-31.97 10.93-43.74 2.38-4.4 5.11-8.32 8.08-11.65 4.87-5.59 10.58-9.63 16.88-11.53L1122.02 1669.76zM1065.21 2723.75l-.24 3.45-9.98 183.86-.12 2.26c-10.34 3.45-24.01 5.35-33.99 5.35-17.95 0-34.7-5.94-48.85-16.16-25.2-18.18-41.84-49.92-41.84-86.05 0-39.58 19.97-73.81 49.21-90.8 12.36-7.25 26.5-11.29 41.48-11.29C1034.67 2714.36 1052.26 2717.57 1065.21 2723.75z" class="colorbf6f30 svgShape"/><ellipse cx="949.72" cy="2089.77" fill="#ff6103" rx="96.46" ry="51.1" transform="rotate(-5.095 949.766 2089.876)" class="colorbf6f30 svgShape"/></g><g><rect width="87.39" height="66" x="1512.82" y="1303.78" fill="#ffb58a" transform="rotate(-77.513 1556.584 1336.841)" class="colorf5bf9a svgShape"/><path fill="#333333" d="M1507.21 1365.1l-22.43 42.75c-1.88 3.58-2.68 7.38-2.35 11.06l0 0c.86 9.3 8.82 16.59 20.09 18.39l112.4 17.92c9.61 1.53 19.77 1.31 29.75-.65l0 0c10.96-2.15 18.66-10.86 17.2-19.45l0 0c-.59-3.5-2.68-6.6-5.91-8.8l-68.57-58.34c-1.64-1.39-3.83-2.3-6.29-2.6l-59.38-7.17C1515.83 1357.5 1509.67 1360.43 1507.21 1365.1zM1506.14 830.53l120.17 214.98c9.88 16.01 16.94 32.17 14.19 50.18l-36.16 239.6-94.09-7.18 24.69-203.19c-120.87-116.72-181.71-157.51-215.58-216.39-60.06-104.42-20.86-206.26-20.86-206.26 13 8.16 44.63 7.5 70.72 5.15 19.6-1.48 38.56-5.6 57.51-10.87 71.79-18.95 116.52 4.32 116.52 4.32l155.14 230.14C1625.63 890.29 1591.18 867.38 1506.14 830.53z" class="color333 svgShape"/><path fill="#ffb58a" d="M1522.92,235.21c-1.86-0.25-3.32,1.56-2.68,3.32l11.5,32.08c0.63,1.66,1.14,2.94,0.33,4.14      c-2.26,3.1-4.73,5.58-7.44,7.54c-11.66,8.54-26.82,7.26-39.84,3.3c-13.38-4-24.4-10.81-26.95-12.76      c-0.46-0.33-0.69-0.85-0.73-1.39l-1.11-51.36c-0.03-0.8-0.46-1.54-1.14-1.98c-31.94-21.93-29.3-68.26-29.3-68.26      c11.75-101.24,86.01-85.34,121.56-71.57c11.87,4.6,20.64,14.92,23.35,27.34C1599.19,237.56,1539.48,237.63,1522.92,235.21z" class="colorf5bf9a svgShape"/><path fill="#4c3f37" d="M1472.58,152.39l5.08,30.73c0.59,3.56,4.61,5.37,7.67,3.46l0,0c1.55-0.98,2.46-2.71,2.36-4.55l-1.22-23.03      c-0.27-5.08,2.24-9.88,6.5-12.66c8.12-5.32,20.09-16.22,17.13-33.09c-0.64-3.63,1.96-7.06,5.63-7.37      c12.78-1.1,38.16-4.66,48.1-15.93c1.83-2.07,3.84-3.98,6-5.69c6.07-4.79,16.53-15.74,9.56-30.45c-1.15-2.44-3.79-3.82-6.45-3.38      l-22.41,3.7c-1.56,0.26-3.06-0.7-3.49-2.22l-5.31-18.85c-0.57-2.04-2.97-2.91-4.72-1.72l-23.14,15.73      c-5.03,3.42-11.55,3.71-16.88,0.77c-11.07-6.09-33.1-13.41-61.54,1.43c-25.29,13.19-37.1,42.29-42.47,63.03      c-3.52,13.6-0.77,28.06,7.38,39.51l19.1,26.81c0.71,0.99,1.34,2.04,1.89,3.12c4.17,8.2,18.93,45.93,33.92,37.48      c0.41-0.23,0.62-0.71,0.54-1.18l2.05-19.91c-0.75-4.52-2.79-8.74-5.9-12.1c-8.38-9.06-23.54-28.9-6.41-38.67      c5.71-3.26,12.6-4.01,18.87-2.06C1468.25,146.47,1471.96,148.6,1472.58,152.39z" class="color37424c svgShape"/><path fill="#ffb58a" d="M1736.91,155.22l32.97,17.45l9.76-12.72c0,0,46.63-32.4,8.43-61.67c-14.88-11.4-36.11,1.97-32.01,20.27      c0.06,0.26,0.12,0.51,0.18,0.77c0.15,0.63-0.69,1-1.04,0.45l-8.34-13.14c-1.42-2.24-4.36-2.94-6.64-1.6l0,0      c-2.1,1.24-2.97,3.82-2.05,6.07l6.18,15.2c1.38,3.4,1.39,7.2,0,10.6L1736.91,155.22z" class="colorf5bf9a svgShape"/><path fill="#ed8c53" d="M1575.32,696.65l-6.4-132.21l17.89-90.68l16.69-84.48l7.97-40.43l17.14,1.59l59.94-23.88l45.65-49.11      l57.76-126.99l-54.64-18.17l-91.31,138.08l-120.69-17.69l0.05,0.11l-0.1-0.11c-4.55,3.92-7.31,6.72-11.54,9.2      c-14.11,9.12-26.65,10.87-38.41,6.19c-8.29-3.03-14.33-7.81-18.61-16.37c-167.17,80.66-134.81,287.55-134.81,287.55      l-39.92,210.21C1281.96,749.45,1559.99,761.36,1575.32,696.65z" class="color53b4ed svgShape"/><path fill="#56301a" d="M1883.52,134.14l-64.69,11.83c-4.9,0.89-9.14,3.86-11.59,8.2c-6.11,10.81-13.75,33.13,5.64,59.2        c2.91,3.91,7.42,6.38,12.28,6.75l60.01,4.52l0.73-56.23L1883.52,134.14z" class="color201a56 svgShape"/><path fill="#c99a7e" d="M1911.26,126.93l-73.65,13.47c-5.57,1.02-10.4,4.4-13.19,9.33c-6.95,12.3-15.65,37.71,6.43,67.39        c3.31,4.45,8.45,7.27,13.99,7.68l68.32,5.14l0.83-64.02L1911.26,126.93z" class="color7e91c9 svgShape"/><path fill="#56301a" d="M2043.18,86.92l-124.35,22.74c-9.41,1.72-17.57,7.43-22.27,15.76c-11.74,20.78-26.42,63.68,10.85,113.8        c5.59,7.52,14.27,12.27,23.62,12.98l115.36,8.68l1.41-108.1L2043.18,86.92z" class="color1f1a56 svgShape"/><path fill="#be6530" d="M2219.16,43.5l-177.78,32.52c-13.45,2.46-25.11,10.62-31.84,22.53c-16.79,29.7-37.77,91.05,15.51,162.69        c8,10.75,20.4,17.55,33.76,18.55l164.93,12.41l2.01-154.55L2219.16,43.5z" class="colorbe6f30 svgShape"/><path fill="#633317" d="M2146.88,169.47c-2.11-61.59,29.23-141.08,106.73-143.73l15.68-0.54l9.58,279.83l-15.68,0.54        C2185.7,308.37,2148.99,231.06,2146.88,169.47z" class="color632e17 svgShape"/><path fill="#f0edec" d="M2352,162.45c2.37,69.15-30.6,126.4-73.63,127.87c-43.03,1.47-79.84-53.39-82.2-122.53        c-2.37-69.15,30.59-126.4,73.63-127.87C2312.83,38.44,2349.63,93.3,2352,162.45z" class="coloreceff0 svgShape"/><path fill="#8a4923" d="M2367.28 161.88c-2.77-78.51-45.77-138.6-98.03-136.84-.91.03-1.71.11-2.57.24-.05-.06-.21-.06-.32.04-17.55 1.33-33.61 9.7-46.89 23.17l-.06.11c-18.79 19.23-32.15 48.98-36.8 84.02-1.52 11.38-2.21 23.26-1.79 35.66 1.67 48.04 18.4 89.13 43.07 113.37 15.13 14.99 33.28 23.55 52.82 23.46.05.05.22-.05.32.01.64.07 1.22.09 1.87.06.21-.05.32.01.48-.04 13.79-.59 26.59-5.38 37.95-13.62.82-.56 1.58-1.13 2.35-1.8C2349.88 266.14 2369.19 217.99 2367.28 161.88zM2339.03 178.04c-.91 19.08-4.82 36.95-10.83 52.04-3.35 8.33-7.32 15.84-11.9 22.27-8.6 12.33-19.21 20.76-30.83 23.66-2.37.57-4.94.92-7.5 1-9.19.36-18.17-2.85-26.47-8.93-1.41-.95-2.77-2.06-4.12-3.28-.21-.17-.47-.34-.68-.56-8.52-7.52-16.1-18.06-22.23-30.74-8.88-18.42-14.69-41.5-15.53-66.19-.31-9.14.07-18.04 1.14-26.71h-.11c2.03-17.34 6.47-33.33 12.7-46.85V93.7c1.02-2.05 1.93-3.84 2.9-5.84l.06-.05c11.21-20.74 26.99-34.08 44.62-34.66 33.45-1.11 63.51 43.91 68.29 100.32.28 3.05.45 6.21.62 9.36C2339.33 168.02 2339.34 173.09 2339.03 178.04zM1676.58 148.3l-64.69 11.83c-4.89.89-9.14 3.87-11.58 8.2-6.11 10.81-13.74 33.13 5.64 59.2 2.91 3.91 7.42 6.38 12.29 6.75l60.01 4.51.73-56.23L1676.58 148.3z" class="color8a4323 svgShape"/><path fill="#be6530" d="M1704.31,141.08l-73.64,13.47c-5.57,1.02-10.4,4.4-13.19,9.33c-6.95,12.31-15.65,37.71,6.42,67.39        c3.31,4.46,8.45,7.27,13.99,7.69l68.32,5.14l0.83-64.02L1704.31,141.08z" class="colorbe6f30 svgShape"/><path fill="#8a4923" d="M1836.23,101.07l-124.35,22.74c-9.41,1.72-17.57,7.43-22.27,15.76c-11.74,20.78-26.42,63.68,10.85,113.8        c5.59,7.52,14.27,12.27,23.62,12.98l115.36,8.68l1.41-108.1L1836.23,101.07z" class="color8a4323 svgShape"/><path fill="#be6530" d="M2012.22,57.66l-177.78,32.51c-13.45,2.46-25.11,10.62-31.84,22.53        c-16.79,29.7-37.77,91.05,15.51,162.69c7.99,10.75,20.4,17.55,33.76,18.55l164.93,12.41l2.01-154.55L2012.22,57.66z" class="colorbe6f30 svgShape"/><path fill="#633317" d="M1939.94,183.63c-2.11-61.59,29.23-141.08,106.73-143.73l15.68-0.54l9.58,279.83l-15.68,0.54        C1978.75,322.53,1942.05,245.22,1939.94,183.63z" class="color632e17 svgShape"/><path fill="#f0edec" d="M2145.05,176.6c2.37,69.15-30.6,126.4-73.63,127.87c-43.04,1.47-79.84-53.39-82.21-122.54        s30.6-126.4,73.63-127.87C2105.88,52.6,2142.69,107.46,2145.05,176.6z" class="coloreceff0 svgShape"/><path fill="#56301a" d="M2056.85,318.01c4.42,0.9,8.93,1.29,13.48,1.25c0.19,0.02,0.47,0.09,0.81,0.03          c0.28,0.03,0.57,0.06,0.76,0.03c4.47-0.14,8.84-0.78,13.11-1.8L2056.85,318.01z" class="color1f1a56 svgShape"/><path fill="#8a4923" d="M2160.31,176.08c-0.64-19.19-3.66-37.27-8.71-53.54l-0.05-0.11c-0.28-1.13-0.63-2.16-0.97-3.23          c-7.67-23.35-19.34-43.03-33.8-57.04c-15.55-15.1-34.35-23.64-54.49-22.97c-0.91,0.08-1.82,0.11-2.78,0.24          c-0.11,0-0.21,0.05-0.27-0.01c-7.12,0.53-13.95,2.24-20.33,4.98c-9.52,3.93-18.46,10.22-26.29,18.31          c-9.09,9.12-16.81,20.68-22.93,33.99c-10.88,23.9-16.86,53.51-15.71,85.78c0.91,27.68,6.81,53.01,16.51,74.18          c7.05,15.54,16.04,28.78,26.45,39.09c6.37,6.33,13.31,11.57,20.72,15.42c6.09,3.23,12.53,5.56,19.17,6.83h0.05l28.15-0.47          c9.68-2.27,18.73-6.79,27.04-13.1c6.83-5.18,13.17-11.66,18.85-19.23c12.2-16.44,21.24-37.94,25.94-62.57v-0.05          C2159.7,207.98,2160.92,192.43,2160.31,176.08z M2131.09,204.33c-1.67,14.36-5.02,27.87-9.76,39.69v0.05          c-3.76,9.33-8.28,17.68-13.46,24.62c-4.12,5.53-8.64,10.14-13.5,13.73c-7.16,5.44-15.1,8.51-23.44,8.78          c-10.42,0.32-20.49-3.78-29.55-11.32c-0.31-0.28-0.68-0.56-0.99-0.88c-1.41-1.16-2.76-2.38-4.05-3.75          c-3.73-3.74-7.23-8.07-10.49-12.98c0,0-0.11-0.06-0.05-0.11c-0.77-0.98-1.28-1.91-1.83-2.99          c-2.35-3.54-4.37-7.23-6.38-11.35l-0.1-0.11c-8.88-18.53-14.63-41.5-15.42-66.19c-0.97-27.63,4.31-53.46,13.63-73.52          l0.06-0.11c1.02-2.05,1.99-3.94,2.96-5.89l0.06-0.1c2.27-4.31,4.84-8.23,7.57-11.89c4.01-5.37,8.42-9.99,13.17-13.53          l0.06-0.1c7.33-5.59,15.22-8.77,23.71-9.1c0.91-0.02,1.82-0.05,2.83,0.03c3.68,0.11,7.29,0.86,10.77,2.15          c11.94,4.05,22.91,13.73,31.89,27.24c13.37,20.21,22.41,48.89,23.48,80.37c-0.01,0.43,0.03,0.86,0.01,1.28          C2132.52,187.24,2132.1,195.98,2131.09,204.33z" class="color8a4323 svgShape"/><path fill="#953904" d="M2319.77,291.45l-2.45,0.05c0.82-0.54,1.59-1.14,2.37-1.78C2319.74,290.35,2319.73,290.92,2319.77,291.45z      " class="color045d95 svgShape"/><path fill="#ffb58a" d="M1725.9,231.23l12.89-19.4c0.53-1.69,2.02-2.9,3.79-3.06l0,0c3.11-0.28,5.51,2.69,4.58,5.68l-9.6,17.29      l14.67-23.11c0.97-1.53,2.73-2.37,4.54-2.16l0,0c3.31,0.38,5.19,3.98,3.63,6.92l-10.41,19.53l12.81-16.83      c1.29-1.7,3.65-2.15,5.48-1.04l0,0c1.92,1.16,2.58,3.64,1.49,5.6l-20.28,36.47l10.08-8.66c1.29-1.11,3.09-1.37,4.64-0.68l0,0      c2.5,1.11,3.38,4.22,1.84,6.48l-11.9,17.45c-1.42,2.07-3.25,3.83-5.38,5.16l-25.46,15.82l-26.46-15.79      c3.11-9.32,8.5-17.25,13.19-22.91c0,0,0.76-14.49,8.15-24.72l7.21-15.01c1.08-2.24,3.9-3,5.95-1.6l0,0      c1.48,1.01,2.13,2.87,1.59,4.57L1725.9,231.23z" class="colorf5bf9a svgShape"/><path fill="#ed8c53" d="M1743.83,283.35l-90.43,163.57c-12.21,22.15-37.65,33.49-62.25,27.82l-4.35-0.99l16.69-84.48l25.11-38.84      l63.78-98.56l41.81,25.57L1743.83,283.35z" class="color53b4ed svgShape"/></g></svg>