<svg xmlns="http://www.w3.org/2000/svg" xmlns:xlink="http://www.w3.org/1999/xlink" enable-background="new 0 0 1844.053 1170" viewBox="0 0 1844.053 1170"><defs><path id="a" d="M306.536,1055.59h1243.631c97.884-139.396,112.794-300.88,112.794-300.88      c4.006-43.415,9.86-111.186-17.024-191.886c-23.235-69.747-68.095-137.006-143.388-203.601      c-141.797-125.415-298.699-127.564-459.012-84.491c-79.1,21.253-203.194-20.76-273.361-76.309      c-70.167-55.549-286.945-194.455-508.958,13.886c-150.324,141.067-93.884,484.917-91.045,516.755      C184.721,892.163,259.203,994.624,306.536,1055.59z"/></defs><clipPath id="c"><use overflow="visible" xlink:href="#a"/></clipPath><linearGradient id="b" x1="920.07" x2="910.341" y1="222.626" y2="697.923" gradientUnits="userSpaceOnUse"><stop offset="0" stop-color="#fff4ed" class="stopColoredf9ff svgShape"/><stop offset="1" stop-color="#f7e9e0" class="stopColore0f2f7 svgShape"/></linearGradient><path fill="url(#b)" d="M306.536,1055.59h1243.631     c97.884-139.396,112.794-300.88,112.794-300.88c4.006-43.415,9.86-111.186-17.024-191.886     c-23.235-69.747-68.095-137.006-143.388-203.601c-141.797-125.415-298.699-127.564-459.012-84.491     c-79.1,21.253-203.194-20.76-273.361-76.309c-70.167-55.549-286.945-194.455-508.958,13.886     c-150.324,141.067-93.884,484.917-91.045,516.755C184.721,892.163,259.203,994.624,306.536,1055.59z" clip-path="url(#c)"/><path fill="#ffa30f" d="M1540.491 359.295c0 0 11.995-35.985-14.081-37.028-26.076-1.043-37.028 23.99-37.028 23.99s-33.899-88.659-73.014-60.497c-39.115 28.162-13.038 64.148-13.038 64.148s-27.641-17.21-32.335-4.694-1.043 23.469-1.043 23.469-139.247-37.028-145.506-20.34c-6.258 16.689 9.387 21.383 9.387 21.383s-116.822 10.952-111.085 28.684c5.737 17.732 606.013 7.823 577.851-14.603C1689.286 374.797 1540.491 359.295 1540.491 359.295zM678.13 241.546c0 0 9.148-27.444-10.739-28.24-19.887-.796-28.24 18.296-28.24 18.296s-25.853-67.616-55.684-46.138c-29.831 21.478-9.943 48.922-9.943 48.922s-21.08-13.125-24.66-3.58c-3.58 9.546-.795 17.898-.795 17.898S441.873 220.466 437.1 233.193c-4.773 12.728 7.159 16.307 7.159 16.307s-89.094 8.353-84.719 21.876c4.375 13.523 462.174 5.966 440.695-11.137C791.608 253.369 678.13 241.546 678.13 241.546z" clip-path="url(#c)" class="colorfff svgShape"/><path fill="#fb600a" d="M628.867,387.972c-41.906-54.575-149.106-15.593-149.106-15.593     s95.506-46.778,61.396-98.429c-34.109-51.651-133.513-18.516-133.513-18.516s68.218-60.422-66.27-90.633     C215.459,136.515-3.615,300.263,238.073,344.117c0,0-121.64,57.706-91.535,138.132c25.265,67.497,108.102,47.032,108.102,47.032     s-72.599,67.265-39.956,111.099c34.109,45.804,101.353,20.466,101.353,20.466s-36.059,23.389-12.669,43.855     c16.91,14.796,74.57,18.383,127.317,11.87c-1.08,58.639-18.168,133.74-18.168,138.21c0,5.847,49.702,6.822,48.728,0     c-0.728-5.094-1.999-92.882-3.002-142.667c10.122-2.062,19.701-4.534,28.34-7.414c58.473-19.491,95.506-78.938,47.753-127.666     c-9.356-9.547-19.723-17.479-30.344-24.072c8.362-17.075,15.415-36.46,20.399-51.668     C600.965,482.228,667.254,437.965,628.867,387.972z M412.517,521.485c0,0,5.574-0.003,84.458-14.46     c-4.18,10.971-9.158,23.267-14.36,34.451C446.098,524.58,412.517,521.485,412.517,521.485z" clip-path="url(#c)" class="color84ae6e svgShape"/><path fill="#c29b84" d="M237.614,952.898c168.541-165.24,490.169-144.426,582.264-110.308     c92.095,34.118,167.624-15.121,296.507-33.625s231.923,9.216,356.576,104.289s177.232,124.255,183.079,197.346     c5.847,73.091-1065.729,412.234-1311.285,290.903C99.199,1280.171,237.614,952.898,237.614,952.898z" clip-path="url(#c)" class="color99c284 svgShape"/><g clip-path="url(#c)"><path fill="#fb600a" d="M1501.56,819.156c81.08,24.44,98.15-28.32,91.167-55.088      c-6.983-26.768-81.08-24.828-81.08-24.828s27.932-3.88,32.975-28.708c5.043-24.828-14.742-35.303-14.742-35.303      s46.036-7.5,45.519-52.502c-0.517-45.001-47.846-59.743-66.209-61.554c-18.363-1.81-49.915,2.328-49.915,2.328      s32.903-14.329,25.956-62.834c-6.947-48.505-71.346-87.3-131.865-69.454c-60.519,17.845-66.338,73.321-60.907,97.374      c0,0-19.785-14.742-59.743-7.371c-39.958,7.371-31.035,48.493-13.966,65.562c17.069,17.07,29.872,19.397,29.872,19.397      s-57.804-28.708-92.719,29.872c-34.915,58.579,38.794,80.304,80.692,79.916c41.898-0.388,135.392-14.354,157.117-19.009      c21.725-4.655,28.708-4.655,28.708-4.655l12.026,78.753c0,0-23.665-7.371-31.811,17.458      c-8.757,26.688,24.441,42.286,41.122,44.226C1460.438,834.673,1501.56,819.156,1501.56,819.156z" class="color84ae6e svgShape"/><path fill="#fb600a" d="M1320.003,696.177c64.399,88.063,58.967,142.375,55.864,166.428      c-3.104,24.052,21.337,14.354,21.337,14.354s1.515-8.707-4.286-53.04c-5.801-44.333-10.456-58.687-27.526-87.783      c-17.069-29.096-41.122-57.804-41.122-57.804L1320.003,696.177z" class="color84ae6e svgShape"/><path fill="#fb600a" d="M1423.925,702.155c-23.618,53.766-44.179,71.223-44.179,71.223l3.104,15.13      c0,0,36.855-34.777,45.001-60.644C1435.998,701.997,1423.925,702.155,1423.925,702.155z" class="color84ae6e svgShape"/></g><path fill="#c29b84" d="M95.789,1155.917c58.313-136.55,299.64-148.989,358.634-152.03     c116.433-6.002,228.3,19.514,270.925,29.236c109.597,24.998,138.262,48.391,218.299,48.728     c82.313,0.346,89.654-24.237,218.299-54.575c75.455-17.794,214.706-42.771,376.176-21.44     c81.278,10.737,121.917,16.106,157.877,42.88c100.123,74.547,120.219,251.115,83.811,362.532     c-95.096,291.015-660.323,396.596-1072.004,317.703c-109.233-20.933-424.543-85.889-567.187-335.245     C117.194,1352.76,56.807,1247.197,95.789,1155.917z" clip-path="url(#c)" class="color99c284 svgShape"/><ellipse cx="923.064" cy="1010.394" fill="#fb600a" rx="797.066" ry="112.592" class="color84ae6e svgShape"/><polygon fill="#ab7c60" points="595.994 987.895 501.266 1067.887 1447.055 1067.887 1362.769 987.895" class="color607cab svgShape"/><path fill="#7a6346" d="M740.644 1033.811c0 3.837-35.922 6.948-80.233 6.948-44.311 0-80.233-3.111-80.233-6.948 0-3.837 35.922-6.948 80.233-6.948C704.722 1026.863 740.644 1029.974 740.644 1033.811zM1378.91 1040.759c0 3.837-35.922 6.948-80.233 6.948-44.311 0-80.233-3.111-80.233-6.948 0-3.837 35.922-6.948 80.233-6.948C1342.988 1033.811 1378.91 1036.921 1378.91 1040.759z" class="color464e7a svgShape"/><path fill="#fbb890" d="M713.617,623.27c-17.885,23.121-14.974,23.227-41.478,39.755     c-26.504,16.528-56.328,47.289-78.261,70.711c-21.933,23.422-39.792,34.266-55.641,50.734     c-15.849,16.467-31.843,32.649-35.272,40.598c-3.429,7.949,7.014,9.506,10.247,6.932c3.233-2.573,22.766-15.487,28.804-19.64     c4.79-3.295,13.214-8.77,9.81-1.493c-3.405,7.277-4.128,13.915-1.863,14.229c3.443,0.477,10.478-4.44,17.401-22.13     c6.923-17.689,10.926-22.926,14.391-25.715c3.466-2.789,77.599-49.43,104.851-71.089c27.251-21.659,64.178-50.367,63.164-53.319     C748.755,649.89,713.617,623.27,713.617,623.27z" class="colore7876e svgShape"/><path fill="#fbb890" d="M549.191,807.992c-20.805,13.554-28.985,25.945-34.146,29.122     c-5.162,3.176-5.997-1.604-3.915-3.359c0,0-2.841,4.115-5.199,4.201c-2.358,0.086-2.875-3.761-1.558-5.5     c1.317-1.738,32.622-30.034,35.954-33.781C543.66,794.927,549.191,807.992,549.191,807.992z" class="colore7876e svgShape"/><path fill="#d17705" d="M510.159 835.986c-.193 0-.386-.055-.558-.172-.45-.308-.565-.92-.257-1.372 6.387-9.356 10.887-15.093 12.525-17.124 1.267-1.572 9.677-9.159 10.035-9.482.402-.36 1.031-.33 1.395.074.365.404.333 1.028-.073 1.395-2.403 2.164-8.849 8.05-9.82 9.253-1.623 2.013-6.086 7.702-12.433 17C510.784 835.836 510.474 835.986 510.159 835.986zM503.775 832.727c-.211 0-.42-.067-.601-.202-.431-.333-.514-.953-.184-1.386 1.377-1.797 3.972-4.931 6.483-7.963 2.731-3.298 5.554-6.708 6.561-8.103 1.98-2.751 11.674-11.855 12.087-12.241.397-.374 1.019-.358 1.395.046.372.397.353 1.021-.046 1.395-.098.092-9.964 9.358-11.834 11.954-1.044 1.45-3.763 4.734-6.643 8.209-2.497 3.018-5.081 6.136-6.432 7.906C504.365 832.594 504.071 832.727 503.775 832.727zM1237.619 963.439c27.566 19.834 43.703 34.626 45.72 36.307 2.017 1.681 1.009 6.723 2.689 9.077 1.681 2.353-12.774 19.834-15.464 24.877-2.689 5.043-1.345 8.404.336 9.413 1.681 1.008 57.486 0 60.847-2.353 3.362-2.353-2.017-28.911-7.06-40.677-5.042-11.766-51.771-60.847-51.771-60.847L1237.619 963.439zM714.366 958.9c-1.009 24.541.168 31.264 1.009 43.366.84 12.102 3.362 28.07 1.009 31.768-2.353 3.698-35.802 1.177-47.064 1.009-11.262-.168-65.722 1.849-72.445-1.009-6.723-2.858-3.866-11.262 4.37-11.766 8.236-.504 14.623.168 29.919-7.564 15.296-7.732 38.492-15.968 41.349-21.851 2.858-5.883.84-35.466.84-35.466L714.366 958.9z" class="colord7765d svgShape"/><path fill="#c39275" d="M988.515,660.883c33.617,41.013,73.958,107.575,107.575,129.09     c33.617,21.515,123.039,81.69,145.899,99.843c22.86,18.153,26.222,32.273,25.549,33.617c-0.672,1.345,8.997,12.513,8.74,15.8     c-0.256,3.287-33.281,29.919-36.307,28.911c-3.026-1.009-6.723-7.396-12.102-8.404c-5.379-1.009-7.396-1.345-22.187-5.715     c-14.792-4.37-105.222-70.26-124.048-81.69c-18.826-11.43-69.588-44.039-115.307-64.209     c-45.72-20.171-75.975-32.945-75.975-32.945s-28.687,17.705-85.612,18.153c-56.925,0.448-71.717,0.448-74.854,0.448     c-3.138,0,0,64.545,0,95.473c0,30.928-3.586,45.72-6.275,45.72c-2.689,0-0.336,25.101-2.353,25.437     c-2.017,0.336-46.056,2.353-49.417,0.336c-3.362-2.017,3.026-20.507,0-22.86s-8.068-3.362-12.102-11.094     c-4.034-7.732-6.387-141.529-5.379-164.725c1.009-23.196,10.085-37.651,19.834-43.366c9.749-5.715,84.043-17.481,107.575-21.515     c23.532-4.034,28.911-7.396,31.6-12.438c2.689-5.043,14.792-3.026,17.817-1.681c3.026,1.345,44.039,7.732,61.856,8.068     C910.859,691.475,988.515,660.883,988.515,660.883z" class="color7599c3 svgShape"/><path fill="#8c683a" d="M894.047 778.594c-.284 0-.574-.064-.842-.204-17.331-8.948-41.098-27.859-42.101-28.66-.796-.636-.927-1.795-.292-2.591.634-.796 1.79-.927 2.591-.291.243.195 24.488 19.488 41.491 28.266.907.468 1.26 1.579.794 2.483C895.36 778.232 894.715 778.594 894.047 778.594zM731.004 797.196c-.321 0-.645-.083-.941-.259-15.958-9.508-22.487-18.744-22.758-19.134-.578-.833-.374-1.98.461-2.561.837-.587 1.985-.376 2.566.457.062.087 6.409 9.009 21.617 18.072.874.521 1.161 1.652.64 2.527C732.245 796.875 731.632 797.196 731.004 797.196zM1117.267 876.196c-.319 0-.64-.083-.936-.257-.064-.037-7.75-4.351-36.431-10.543-.994-.213-1.627-1.195-1.411-2.192.216-.994 1.189-1.634 2.192-1.411 29.534 6.375 37.215 10.788 37.527 10.974.877.516 1.166 1.648.65 2.524C1118.513 875.873 1117.898 876.196 1117.267 876.196zM1228.544 957.36c-.482 0-.948-.266-1.177-.728-.326-.652-.062-1.441.588-1.767 17.09-8.546 37.449-28.472 37.654-28.672.514-.512 1.352-.505 1.861.016.51.519.502 1.352-.016 1.861-.842.831-20.856 20.415-38.319 29.149C1228.943 957.314 1228.743 957.36 1228.544 957.36zM697.983 939.807c-8.142 0-14.754-.402-15.3-.434-.725-.046-1.276-.67-1.232-1.397.046-.728.714-1.216 1.397-1.232.266.018 26.838 1.629 39.561-1.611.727-.186 1.423.25 1.602.95.179.704-.245 1.423-.95 1.602C716.397 939.38 706.378 939.807 697.983 939.807zM836.227 711.954c-.193 0-.388-.044-.571-.133-.466-.225-11.531-5.719-25.289-23.524-.445-.576-.34-1.402.236-1.847.576-.443 1.402-.34 1.847.236 13.335 17.26 24.247 22.714 24.355 22.767.654.319.925 1.106.608 1.76C837.183 711.681 836.715 711.954 836.227 711.954zM956.465 702.318c-.629 0-1.187-.454-1.294-1.095-.124-.716.358-1.398 1.074-1.522.271-.046 27.157-4.863 39.903-24.738.392-.613 1.205-.787 1.82-.397.61.392.79 1.207.397 1.82-13.384 20.867-40.527 25.716-41.674 25.913C956.614 702.311 956.538 702.318 956.465 702.318z" class="color3a6c8c svgShape"/><path fill="#ffa30f" d="M798.002,491.935c12.566-6.534,23.323-25.583,42.821-42.168    c19.498-16.584,63.512-39.265,67.569-42.11c4.056-2.845,33.507,39.478,34.18,42.139c0.672,2.66-37.763,42.629-39.332,44.612    c-1.569,1.983,16.361,17.182,46.616,78.399c16.721,33.832,21.067,52.443,27.006,61.52c5.939,9.077,19.289,30.754,20.394,34.877    c1.105,4.123-27.566,35.383-80.682,41.434c-53.115,6.051-75.694,0-90.431-11.573c-14.736-11.573-15.352-15.993-14.736-17.338    c0.617-1.345,5.659-8.74,7.901-8.068c2.241,0.672-3.362-4.7-4.258-9.297c-0.897-4.598,1.12-5.83,1.12-5.83    s-2.914-5.715-6.723-7.956c-3.81-2.241-26.957-11.795-26.957-11.795s-30.951,22.553-32.701,23.449s-37.609-38.023-38.281-38.958    c-0.672-0.935,17.28-30.854,23.42-37.577c6.14-6.724,14.68-26.109,24.989-36.867C770.227,538.068,798.002,491.935,798.002,491.935    z" class="colorfff svgShape"/><path fill="#fbb890" d="M806.12,485.985c-0.753,8.607-4.456,35.472-5.015,41.991c-0.776,9.055,5.015,47.486,5.015,47.486      l-23.569-28.442l-2.262-2.858l-8.131-10.25l-7.096-8.956l-0.205-1.045l-2.167-11.064l-6.337-32.299l4.352-6.54l6.113-5.459      C766.818,468.548,787.484,491.9,806.12,485.985z" class="colore7876e svgShape"/><path fill="#1a1a1a" d="M763.653,523.13c1.667,2.259,6.98,8.739,10.225,12.744c18.71-23.603-5.669-54.747-5.669-54.747      l-11.63,27.25C757.419,509.56,763.268,521.701,763.653,523.13z" class="color1a1a1a svgShape"/><path fill="#1a1a1a" d="M780.525,503.923c0,0,9.683,22.611-3.027,36.086l-7.661-9.657l1.286-13.191L780.525,503.923z" class="color1a1a1a svgShape"/><path fill="#7f592a" d="M681.666,462.612c2.685-6.134,7.05-17.334,21.428-29.312c4.402-3.667,9.225-5.532,13.8-6.362        c-0.108-0.122-0.216-0.246-0.306-0.401c-2.93-5.034-6.383-10.609-1.727-15.79c3.618-4.026,8.91-3.973,13.362-1.792        c6.059-6.959,16.4-8.968,23.924-2.614c7.523,6.353,7.371,18.206-0.72,24.014c-0.317,0.228-0.64,0.344-0.955,0.389        c-0.092,0.055-0.192,0.097-0.294,0.136c6.695,4.286,15.489,27.658,15.489,27.658l-13.394,26.918        c0,0-38.909,25.436-55.704,10.879C677.012,479.384,678.705,469.377,681.666,462.612z" class="color7f2a2e svgShape"/><path fill="#3a2914" d="M724.042,423.69c8.471-0.577,20.16-0.671,27.101,4.989c2.072,1.689-0.283,5.122-2.385,3.433        c-6.084-4.889-16.616-4.928-24.083-4.639C722.266,427.568,721.547,423.861,724.042,423.69z" class="color3a1714 svgShape"/><path fill="#fbb890" d="M716.986,516.219c4.49,4.317,9.298,8.552,13.293,13.348c6.341,7.612,25.726,24.085,45.383-0.556       c16.195-20.302-0.837-50.88-0.837-50.88s10.009-15.502-5.492-25.511c-15.502-10.009-12.828,12.119-12.828,12.119       s3.733,10.501,2.324,8.809c-1.409-1.692-9.442-7.894-14.093-8.318c-4.651-0.424-9.584,2.254-12.403-1.129       c-2.818-3.383-2.676-13.531-4.789-16.068c-2.114-2.537-6.201-0.565-8.597-0.001c-2.396,0.564-4.277,14.236-14.169,26.847       c-2.7,3.442-5.631,7.051-9.522,9.13c-4.01,2.143-8.325,1.992-8.858,1.901c0.356,0.747,4.888,5.559,6.527,7.198       c2.594,2.594,5.229,5.147,7.872,7.692c2.796,2.692,5.606,5.37,8.42,8.042c2.159,2.051,4.323,4.096,6.48,6.148       C716.128,515.398,716.558,515.808,716.986,516.219z" class="colore7876e svgShape"/><path fill="#1a1a1a" d="M734.227,483.54c0.102-0.815,0.445-1.485,1.096-1.883c0.067-0.057,0.135-0.109,0.203-0.158         c0.023-0.022,0.04-0.048,0.069-0.066c0.027-0.017,0.053-0.021,0.08-0.037c2.221-1.407,4.987,0.972,5.224,3.319         c0.17,0.477,0.238,0.975,0.071,1.456c-0.164,0.476-0.499,0.883-0.915,1.178c-0.022,0.043-0.037,0.086-0.073,0.127         c-0.819,0.936-1.917,0.908-2.927,0.374C735.282,487.391,733.986,485.456,734.227,483.54z" class="color1a1a1a svgShape"/><path fill="#d17705" d="M732.364,512.102c-0.5-0.745-0.3-1.819,0.456-2.316c0.743-0.489,1.487-0.978,2.231-1.467         c0.753-0.495,1.809-0.297,2.316,0.456c0.5,0.745,0.3,1.819-0.456,2.316c-0.743,0.489-1.487,0.978-2.231,1.467         C733.927,513.052,732.87,512.854,732.364,512.102z" class="colord7765d svgShape"/><path fill="#7f592a" d="M737.856 473.407c-.152-.004-.304-.009-.456-.009-.009.001-.016 0-.025.001.003 0 .005-.001.007-.001-.575.001-1.151.018-1.725.072-.589.055-1.151.113-1.708.162-1.028.141-2.24.324-3.644.56-2.304.387-4.478 1.249-6.753 1.76-2.096.471-1.505 3.755.589 3.285 2.275-.51 4.45-1.364 6.753-1.76 2.336-.401 4.721-.49 7.069-.792C739.929 476.432 739.571 473.647 737.856 473.407zM739.845 537.684c-1.726-1.697-2.886-3.927-4.141-5.92-1.893-3.009-4.708-6.441-3.965-10.117 5.793-5.948 15.845-14.963 18.628-15.261 3.946-.422 21.844 9.024 23.536 7.615 1.691-1.409 2.115-6.06.566-14.799-1.549-8.739-22.123-31.715-22.827-32.561l1.974-4.51c0 0 25.545 27.365 28.252 41.653 2.707 14.288-3.177 34.882-22.42 37.922-4.56.72-9.239.387-13.653-.961-2.082-.636-4.128-1.354-5.744-2.862C739.982 537.816 739.913 537.751 739.845 537.684z" class="color7f2a2e svgShape"/><path fill="#ffa30f" d="M737.835,523.077c0,0,11.735-13.659,12.352-12.747c0.617,0.912,4.229,10.258,1.094,11.771       C747.193,524.073,737.835,523.077,737.835,523.077z" class="colorfff svgShape"/><path fill="#1a1a1a" d="M709.228,508.538c-0.151-1.671,1.14-3.135,2.826-3.155c0.15-0.002,0.298,0.015,0.445,0.042         c0.486,0.067,0.938,0.303,1.274,0.703c0.041,0.045,0.078,0.092,0.115,0.141c0.01,0.016,0.024,0.027,0.035,0.043         c0.505,0.768,1.001,1.56,1.107,2.495c0.204,1.802-1.523,3.026-3.192,2.742C710.388,511.302,709.358,509.964,709.228,508.538z         " class="color1a1a1a svgShape"/><path fill="#7f592a" d="M702.808,506.144c-0.35-2.057,0.223-3.732,0.978-5.617c0.792-1.981,3.977-0.976,3.176,1.026         c-0.499,1.248-1.135,2.468-0.901,3.845C706.421,507.508,703.169,508.263,702.808,506.144z" class="color7f2a2e svgShape"/><g><path fill="#fbb890" d="M905.592,409.65c23.756-17.033,23.756-14.12,41.237-40.005     c17.481-25.885,49.305-54.572,73.51-75.639c24.205-21.067,35.691-38.52,52.723-53.76c17.033-15.24,33.785-30.635,41.853-33.773     c8.068-3.138,9.245,7.355,6.555,10.493c-2.689,3.138-16.304,22.188-20.675,28.071c-3.467,4.667-9.245,12.887-1.849,9.749     c7.396-3.138,14.056-3.619,14.287-1.345c0.352,3.458-4.818,10.309-22.748,16.585s-23.308,10.085-26.221,13.447     c-2.914,3.362-52.219,75.751-74.855,102.197c-22.636,26.445-52.667,62.304-55.581,61.183     C930.917,445.733,905.592,409.65,905.592,409.65z" class="colore7876e svgShape"/><path fill="#fbb890" d="M1096.17,252.049c14.301-20.298,26.982-28.023,30.344-33.065c3.362-5.043-1.385-6.051-3.214-4.034     c0,0,4.215-2.689,4.387-5.043c0.171-2.353-3.654-3.01-5.439-1.757c-1.785,1.253-31.2,31.508-35.066,34.702     C1083.316,246.046,1096.17,252.049,1096.17,252.049z" class="colore7876e svgShape"/><path fill="#d17705" d="M1097.352 236.442c-.248 0-.496-.092-.688-.277-.39-.381-.399-1.005-.021-1.398.335-.344 8.225-8.472 9.84-9.682 2.107-1.577 8.034-5.886 17.572-11.896.456-.289 1.067-.156 1.361.31.291.461.154 1.069-.31 1.361-9.476 5.973-15.353 10.246-17.438 11.807-1.239.925-7.355 7.155-9.606 9.478C1097.868 236.344 1097.609 236.442 1097.352 236.442zM1092.476 232.493c-.255 0-.507-.096-.702-.292-.383-.388-.381-1.012.007-1.397.402-.397 9.852-9.751 12.67-11.633 1.43-.952 4.927-3.64 8.31-6.24 3.133-2.408 6.373-4.897 8.225-6.21.443-.319 1.06-.211 1.377.234.316.445.211 1.062-.234 1.377-1.822 1.292-5.046 3.768-8.163 6.164-3.566 2.74-6.935 5.328-8.417 6.318-2.662 1.776-12.28 11.298-12.376 11.394C1092.978 232.399 1092.726 232.493 1092.476 232.493z" class="colord7765d svgShape"/></g><path fill="#e3e3e3" d="M789.614 644.047c-.108 0-.22-.014-.331-.043-.649-.168-16.137-4.335-33.872-22.545-.507-.521-.496-1.354.025-1.861s1.359-.496 1.861.025c17.177 17.636 32.495 21.792 32.646 21.833.705.183 1.127.902.943 1.604C790.734 643.655 790.199 644.047 789.614 644.047zM836.924 665.688c-3.851 0-7.713-.526-11.256-1.896-.677-.262-1.014-1.024-.753-1.703.264-.677 1.028-1.01 1.703-.753 14.095 5.443 34.737-3.908 34.946-4.002.656-.305 1.441-.016 1.746.645.305.661.016 1.444-.645 1.747C861.986 660.038 849.523 665.688 836.924 665.688zM843.919 672.116c-2.334 0-4.945-.149-7.853-.514-.723-.089-1.235-.748-1.143-1.469.092-.721.757-1.239 1.469-1.143 15.33 1.909 21.886-2.421 21.948-2.467.594-.411 1.414-.26 1.829.337.411.595.268 1.409-.326 1.825C859.604 668.852 854.792 672.116 843.919 672.116zM911.461 505.375c-.289 0-.581-.094-.824-.289-25.053-20.089-31.873-30.542-32.151-30.978-.393-.613-.213-1.425.399-1.817.606-.388 1.423-.211 1.818.397.067.106 6.953 10.598 31.582 30.342.567.457.659 1.285.204 1.852C912.227 505.205 911.846 505.375 911.461 505.375z" class="colore3e3e3 svgShape"/><path fill="#e3e3e3" d="M903.202,498.55c-0.427,0-0.842-0.207-1.097-0.585c-0.337-0.505-8.319-12.569-13.028-31.063    c-0.179-0.707,0.245-1.423,0.95-1.602c0.723-0.174,1.423,0.25,1.602,0.95c4.599,18.063,12.585,30.131,12.665,30.251    c0.404,0.604,0.241,1.423-0.363,1.827C903.706,498.476,903.452,498.55,903.202,498.55z" class="colore3e3e3 svgShape"/></svg>