<svg xmlns="http://www.w3.org/2000/svg" enable-background="new 0 0 1364 960" viewBox="0 0 1364 960"><path fill="#ffdac5" d="M1273.64,871.77H75.48c0.46-1.23,0.85-2.51,1.47-3.72c83.83-164.19-46.41-290.56,26.42-410.84   c55.71-92.01,103.91-85.03,181.34-127.7c77.92-42.94,118.5-111.48,156.86-147.1C577.28,56.4,774.84,57.02,911.19,86.8   c115.11,25.14,252.98,96.33,294.54,212.48c51.83,144.85-30.38,245.85,48.1,354.61C1289.51,703.32,1300.36,805.31,1273.64,871.77z" class="colorc5e9ff svgShape"/><path fill="#b8915c" d="M1252.72,777.42c-23.58,3.33-15.1,14.04-42.4,11.83l-8.85,0.01c0,0-20.68,2.01-24.89-8.26    c-5.61-13.67-22.68-3.35-28.47-16.41c-5.79-13.05-1.7-30.8,9.93-37.99c11.62-7.19-1.4-40.5,13.06-43.33    c2.08-0.41,3.84-0.99,5.32-1.71c15.06-7.32,1.88-29.13,16.69-32.5c16.25-3.69,7.94-21.33,18.55-23.9    c10.6-2.58,7.47,26.21,14.14,30.88c12.12,8.51,20.45,17.53,18.5,35.6c-2.39,22.04,19.12,18.6,14.42,43.96    c-1.04,5.62,0.53,11.76,2.23,17.56C1264.38,764.85,1268.37,775.21,1252.72,777.42z" class="color84b85c svgShape"/><path fill="#a87e43" d="M1260.95,753.16c-1.71-5.8-3.27-11.94-2.23-17.56c4.7-25.36-16.82-21.92-14.42-43.96    c1.96-18.07-6.38-27.09-18.5-35.6c-6.67-4.68-3.53-33.47-14.14-30.88c-10.6,2.57-2.3,20.21-18.55,23.9    c-4.48,1.02-6.4,3.73-7.31,7.22c5.07,8.72,15.35,12.02,11.96,30.33c-1.04,5.62,0.53,11.76,2.23,17.56    c3.43,11.69,7.42,22.05-8.23,24.26c-23.58,3.33-15.1,14.04-42.4,11.83l-1.86,0c-2.78,7.72-2.73,16.8,0.6,24.33    c5.79,13.06,22.85,2.74,28.47,16.41c4.21,10.27,24.89,8.26,24.89,8.26l8.85-0.01c27.3,2.22,18.82-8.5,42.4-11.83    C1268.37,775.21,1264.38,764.85,1260.95,753.16z" class="color6fa843 svgShape"/><path fill="#946b32" d="M1156.9 768.94c-2.12-5.17-5.88-6.91-10.05-7.78.35 1.17.77 2.32 1.26 3.43 2.32 5.22 6.44 6.7 10.91 7.48C1158.13 771.18 1157.4 770.15 1156.9 768.94zM1260.95 753.16c-1.71-5.8-3.27-11.94-2.23-17.56 4.7-25.36-16.82-21.92-14.42-43.96 1.96-18.07-6.38-27.09-18.5-35.6-6.67-4.68-3.53-33.47-14.14-30.88-6.43 1.56-5.91 8.65-8.12 14.82.67 1.82 1.5 3.24 2.59 4 12.12 8.51 20.45 17.53 18.5 35.6-2.39 22.04 19.12 18.6 14.42 43.96-1.04 5.62.53 11.76 2.23 17.56 3.43 11.69 7.42 22.05-8.23 24.26-23.58 3.33-15.1 14.04-42.4 11.83l-8.85.01c0 0-3.29.32-7.51.05.89 1 1.67 2.22 2.3 3.75 4.21 10.27 24.89 8.26 24.89 8.26l8.85-.01c27.3 2.22 18.82-8.5 42.4-11.83C1268.37 775.21 1264.38 764.85 1260.95 753.16z" class="color5d9432 svgShape"/><path fill="#542910" d="M1240.86,712.73l-2.91,1.12c-0.48,0.19-0.98,0.36-1.46,0.58l-1.4,0.7c-0.93,0.48-1.89,0.91-2.8,1.43    l-2.69,1.64c-0.29,0.19-0.57,0.4-0.86,0.6c0.06-0.25,0.13-0.49,0.19-0.74c0.33-1.38,0.61-2.77,0.82-4.17    c0.4-2.8,0.55-5.68-0.01-8.49l-0.81,0.14c0.28,2.69-0.13,5.41-0.77,8.05c-0.33,1.32-0.72,2.62-1.16,3.91    c-0.42,1.2-0.89,2.42-1.39,3.56c-2.05,1.55-4.02,3.2-5.85,5.01c-3.02,2.94-5.82,6.11-8.37,9.48c-0.7,0.94-1.39,1.89-2.06,2.85    l-2.43-38.38l-2.29,0.05l-0.07,16.96c-1.32-2.02-2.9-3.86-4.59-5.54c-1.75-1.74-3.69-3.27-5.74-4.59    c-2.06-1.32-4.21-2.45-6.55-3.26l-0.28,0.78c2.11,0.96,4.12,2.26,5.95,3.7c1.84,1.45,3.54,3.07,5.02,4.85    c1.48,1.78,2.82,3.67,3.87,5.71c0.95,1.7,1.66,3.51,2.29,5.34l-0.11,27.7c-1.95-4.15-4.31-8.08-6.97-11.76    c-3.42-4.76-7.38-9.08-11.65-13.02c-4.3-3.91-8.87-7.48-13.87-10.45l-0.42,0.71c4.7,3.21,9.02,7.02,12.97,11.11    c3.93,4.11,7.51,8.55,10.51,13.33c3.02,4.76,5.49,9.85,7.22,15.14c0.47,1.31,0.79,2.67,1.18,4c0.29,1.36,0.67,2.69,0.87,4.07    c0.04,0.2,0.07,0.4,0.1,0.6l-4.6,105.03l13.3,0.09l-3.14-123.03c0.24-0.54,0.48-1.09,0.74-1.63c0.42-0.9,0.87-1.79,1.33-2.68    c0.92-1.78,1.93-3.51,2.97-5.23c2.11-3.42,4.49-6.68,7.1-9.75c2.58-3.11,5.55-5.86,8.7-8.4l2.43-1.82    c0.83-0.59,1.71-1.08,2.57-1.63l1.3-0.81c0.44-0.25,0.91-0.46,1.36-0.69l2.74-1.37L1240.86,712.73z" class="color544710 svgShape"/><path fill="#b8915c" d="M195.78,770.4c-25.36,3.58-16.24,15.1-45.59,12.72l-9.52,0.01c0,0-22.24,2.16-26.77-8.88    c-6.04-14.7-24.39-3.61-30.61-17.64c-6.22-14.03-1.83-33.12,10.68-40.85c12.49-7.73-1.51-43.55,14.05-46.6    c2.24-0.44,4.13-1.06,5.72-1.84c16.19-7.87,2.02-31.33,17.94-34.94c17.48-3.97,8.54-22.94,19.95-25.7    c11.4-2.78,8.03,28.18,15.2,33.21c13.03,9.15,22,18.85,19.89,38.28c-2.57,23.7,20.56,20,15.51,47.27    c-1.12,6.05,0.57,12.64,2.4,18.88C208.32,756.89,212.62,768.03,195.78,770.4z" class="color84b85c svgShape"/><path fill="#a87e43" d="M204.63,744.32c-1.83-6.24-3.52-12.84-2.4-18.88c5.05-27.27-18.08-23.57-15.51-47.27    c2.11-19.43-6.86-29.13-19.89-38.28c-7.17-5.03-3.8-35.99-15.2-33.21c-11.4,2.77-2.47,21.73-19.95,25.7    c-4.82,1.09-6.88,4.02-7.86,7.77c5.45,9.38,16.5,12.92,12.86,32.62c-1.12,6.05,0.57,12.64,2.4,18.88    c3.69,12.57,7.98,23.71-8.85,26.08c-25.36,3.58-16.24,15.1-45.59,12.72l-2,0c-2.99,8.31-2.94,18.07,0.65,26.16    c6.22,14.04,24.58,2.94,30.61,17.64c4.53,11.04,26.77,8.88,26.77,8.88l9.52-0.01c29.35,2.38,20.23-9.14,45.59-12.72    C212.62,768.03,208.32,756.89,204.63,744.32z" class="color6fa843 svgShape"/><path fill="#946b32" d="M92.75 761.28c-2.28-5.56-6.33-7.43-10.81-8.36.38 1.26.82 2.49 1.35 3.69 2.49 5.62 6.92 7.21 11.73 8.04C94.06 763.69 93.28 762.58 92.75 761.28zM204.63 744.32c-1.83-6.24-3.52-12.84-2.4-18.88 5.05-27.27-18.08-23.57-15.51-47.27 2.11-19.43-6.86-29.13-19.89-38.28-7.17-5.03-3.8-35.99-15.2-33.21-6.91 1.68-6.36 9.31-8.74 15.94.72 1.95 1.61 3.48 2.78 4.3 13.03 9.15 22 18.85 19.89 38.28-2.57 23.7 20.56 20 15.51 47.27-1.12 6.05.57 12.64 2.4 18.88 3.69 12.57 7.98 23.71-8.85 26.08-25.36 3.58-16.24 15.1-45.59 12.72l-9.52.01c0 0-3.54.34-8.08.05.95 1.07 1.79 2.38 2.47 4.04 4.53 11.04 26.77 8.88 26.77 8.88l9.52-.01c29.35 2.38 20.23-9.14 45.59-12.72C212.62 768.03 208.32 756.89 204.63 744.32z" class="color5d9432 svgShape"/><path fill="#542910" d="M183.03,700.84l-3.13,1.21c-0.52,0.21-1.05,0.39-1.57,0.62l-1.51,0.75c-1,0.51-2.03,0.98-3.01,1.54    l-2.89,1.76c-0.31,0.21-0.62,0.43-0.93,0.64c0.07-0.27,0.14-0.53,0.21-0.8c0.35-1.48,0.66-2.97,0.88-4.48    c0.43-3.01,0.6-6.11-0.01-9.13l-0.87,0.15c0.3,2.89-0.14,5.82-0.82,8.65c-0.35,1.42-0.78,2.82-1.25,4.21    c-0.45,1.3-0.95,2.6-1.5,3.82c-2.2,1.67-4.33,3.44-6.29,5.39c-3.25,3.16-6.26,6.57-9,10.19c-0.76,1.01-1.49,2.03-2.22,3.07    l-2.61-41.28l-2.47,0.05l-0.07,18.24c-1.42-2.17-3.12-4.15-4.94-5.95c-1.88-1.87-3.97-3.52-6.17-4.94    c-2.22-1.42-4.53-2.63-7.04-3.5l-0.3,0.83c2.27,1.04,4.43,2.43,6.4,3.98c1.98,1.56,3.8,3.3,5.4,5.22    c1.59,1.91,3.03,3.95,4.16,6.14c1.03,1.83,1.78,3.78,2.46,5.74l-0.12,29.79c-2.1-4.46-4.63-8.69-7.49-12.65    c-3.68-5.12-7.94-9.77-12.53-14c-4.62-4.21-9.54-8.05-14.92-11.24l-0.46,0.76c5.06,3.45,9.7,7.55,13.95,11.94    c4.23,4.42,8.08,9.19,11.31,14.33c3.24,5.12,5.9,10.59,7.76,16.28c0.51,1.41,0.85,2.87,1.27,4.3c0.31,1.46,0.72,2.9,0.93,4.37    c0.04,0.21,0.07,0.43,0.11,0.64l-4.95,112.94l14.3,0.1l-3.37-132.3c0.25-0.58,0.52-1.18,0.79-1.75c0.46-0.97,0.93-1.93,1.44-2.88    c0.99-1.91,2.07-3.78,3.2-5.62c2.27-3.68,4.83-7.19,7.64-10.49c2.78-3.34,5.97-6.3,9.36-9.03l2.62-1.96    c0.89-0.63,1.84-1.16,2.76-1.76l1.39-0.87c0.48-0.27,0.97-0.49,1.46-0.74l2.95-1.47L183.03,700.84z" class="color544710 svgShape"/><path fill="#b79463" d="M1294.18,868.32c-0.02,0-0.03-0.01-0.05-0.01c-0.18-0.07-1.31-0.09-1.7-0.11       c-0.69-0.05-2.65,0.19-3.04,0.27c-0.06,0.01-0.12,0.03-0.19,0.05c-1.65,0.43-5.25,2.33-6.38,1.92       c-0.14-0.05-0.03-0.07,0.04-0.29c0-0.01,0.01-0.01,0.01-0.02c0.01,0,0.01-0.01,0.01-0.01c0.57-1.68,3.97-3.77,5.11-4.72       c1.25-1.04,5.2-1.59,4.91-2.81c-0.3-1.21-5.61,0.27-6.77,0.8c-0.44,0.2-3.02,1.6-3.37,1.83c-0.03,0.02-0.05,0.03-0.08,0.05       c-0.99,0.73-3.53,3.95-4.37,3.81c-0.04-0.01-0.09-0.02-0.12-0.05c-0.49-0.38,0.7-1.8,1.75-2.91l0.01-0.01       c0.46-0.49,0.89-0.92,1.14-1.18c0.55-0.59,2.76-2.42,3.39-2.8c0.04-0.03,0.08-0.05,0.11-0.07c0.01-0.01,0.02-0.01,0.03-0.02       c0-0.01,0.01-0.01,0.01-0.01c0-0.01,0.01-0.01,0.01-0.01h0.01c0.03-0.02,0.05-0.03,0.06-0.04c0.61-0.36,1.83-0.89,1.88-1.41       c0.02-0.17-0.14-0.16-0.31-0.21c-0.01,0-0.01,0-0.01,0c-0.16-0.05-0.15-0.07-0.48-0.07c-2.11-0.01-4.13,0.79-5.87,1.8       c-0.01,0-0.01,0.01-0.01,0.01c-0.1,0.05-0.35,0.23-0.41,0.27c-1.35,0.98-3.89,4.52-4.75,4.9c-0.85,0.38,0.18-0.61,0.25-0.85       c0.33-1.12,0.99-2.89,1.26-4.11c0-0.01,0-0.01,0-0.01c0.72-3.37,1.87-5.28,4.6-7.91c-1.88,0.2-3.59,2.19-4.9,3.52       c-1.69,1.71-3.87,5.15-4.87,7.15c-0.02,0.04-0.04,0.08-0.05,0.12c-0.21,0.47-0.11,0.59-0.34,0.4       c-0.24-0.19,0.12-0.91,0.34-1.75v-0.01c0.01-0.04,0.02-0.08,0.03-0.13c0.33-1.38,2.32-5.73,2.86-6.95       c0.85-1.93,4.76-5.7,3.84-6.9c-0.86-1.13-4.2,2.9-5.19,4.02c-0.07,0.07-0.12,0.13-0.16,0.18c-0.25,0.27-2.24,3.06-2.53,3.44       c-0.9,1.22-1.83,7.2-3.33,7.09c-1.22-0.08-1.03-1.21-1.17-3.35c0-0.02-0.01-0.05-0.01-0.08c-0.38-5.62,0.27-14.4,5.3-19.76       c0.75-2.89,12.31-6.45,10.34-8.45c-1.98-2-13.2,4.42-14.46,7.34c-0.16,0.39-1.63,1.97-2.11,2.83       c-0.01,0.02-0.02,0.03-0.03,0.05c-0.79,1.48-1.99,3.76-2.58,5.32c-0.5,1.34-1.09,3.3-1.43,4.32c-0.01,0.03-0.02,0.05-0.03,0.08       c-0.48,1.48-0.88,3.91-1.32,4.53c-0.21,0.29-0.26-3.76-0.3-6.62c0-0.19-0.01-0.38-0.01-0.55c-0.05-5.2,0.88-15.81-1.07-21.79       c-2.33,2.83-1.68,10.15-1.71,13.13c-0.04,2.63,0.23,6.05,0.3,7.5c0.01,0.1,0.02,0.21,0.03,0.32c0.15,1.67,0.76,3.63,0.1,3.84       c-0.67,0.21-0.7-2.89-1.04-4.09c-0.02-0.06-0.03-0.11-0.05-0.16c-0.26-0.71-1.72-3.54-2.7-4.14c-1.83-1.13-4.7-2.44-6.76-1.25       c2.65,1.22,3.93,2.81,5.01,5.1c1.38,2.58,2.2,5.32,2.71,8.1v0.01c0.27,1.45,0.33,3.02,0.18,4.43c0,0.01,0,0.01,0,0.01v0.01       c-0.07,0.68-0.23,1.02-0.46,1.62c-0.94-1.14-0.7-3.63-1.06-5.1c-0.01-0.02-0.01-0.04-0.02-0.07c-0.09-0.35-0.55-1.52-0.75-1.97       c-0.11-0.25-0.58-1.03-0.62-1.14c-0.32-0.89-3.92-5.42-5.09-4.38c-1.17,1.04,2.41,4.73,2.45,6.05c0,0.01,0.03,0.09,0.05,0.15       c0,0.01,0,0.01,0,0.01c0.02,0.04,0.03,0.07,0.03,0.08c0.38,0.85,1.46,5.19,0.55,5.49c-0.87,0.3-0.77-1.17-1.32-2.3       c-0.02-0.04-0.03-0.08-0.05-0.12c-0.72-1.36-2.75-5.63-3.95-7.31c-0.62-0.87-1.41-2.2-1.93-2.53       c-0.04-0.03-0.09-0.05-0.12-0.08v-0.01c-0.35-0.27-0.15-0.42-0.43-0.09c-0.29,0.34-0.16,0.35,0.04,1.27       c0.02,0.07,0.03,0.13,0.05,0.21c0.51,2.5,1.19,5.78,0.99,9.04c-0.06,0.81-0.25,3.99-0.99,5.07c0,0.01-0.01,0.01-0.01,0.01       c-0.21,0.31-0.15,0.84-0.83,0.8c-2.71-0.18-4.03-4.38-4.82-6.43c-0.02-0.04-0.03-0.08-0.04-0.12       c-0.25-0.62-0.72-2.86-0.92-3.72c-1.42-6.04,4.12-13.62,2.98-16.97c-0.66-1.93-3.72,4.85-4.62,7.01       c-0.07,0.18-0.13,0.32-0.17,0.42c-0.28,0.73-2.77,6.31-3.24,8.31c-0.57,2.46-1.32,5.89-1.92,8.45       c0.81-4.66,1.03-9.49-0.76-14.04c0.76-7.07-0.26-13.51-3.33-20.1c-0.46-0.98-1.05-2.02-1.66-2.7       c-0.03-0.03-0.05-0.05-0.08-0.08c-3.14-3.51-6.66-6.03-10.98-8.54c2.96,4.12,4.25,5.7,6.67,10.82       c2.3,4.87,3.7,13.19,2.81,19.14c0,0,0,0,0,0.01c-0.01,0.08-0.01,0.18-0.02,0.27c0,0-0.01,0.01,0,0.01       c-0.01,0.03-0.01,0.05-0.01,0.07c-0.09,0.59-0.18,1.22-0.3,1.81c-0.12-0.04-0.24-0.09-0.37-0.12       c-1.46-0.32-2.75-0.18-4.15,0.25c-0.56-1.94-1.2-3.84-1.85-5.77c0.31-0.53,0.75-1.61,0.77-2.09v-0.07       c0-0.38-0.09-0.34-0.4-0.29c-0.01,0-0.02,0.01-0.03,0.01c-0.36,0.05-0.77,0.5-1.06,0.68c-0.23-0.51-0.52-1.36-0.83-1.79       c-0.01-0.01-0.02-0.02-0.02-0.03c-3.51-4.77-8.77-7.73-15.74-7.32c5.84,4.25,9.56,9.36,12.25,15.31       c-0.19,0.42-0.43,0.95-0.58,1.36c-0.01,0.01-0.01,0.02-0.01,0.03c-0.64,1.64-1.1,3.29-1.5,4.93c-0.16-3-1.64-6.53-3.47-8.85       c-0.03-0.04-0.06-0.07-0.09-0.11c-3.12-3.95-6.66-7.03-12.47-6.65c1.22,2.91,6.52,5.9,8.62,10.47c0.41,0.9,0.81,3.16,0.93,4.33       c0,0,0,0.01,0,0.01v0.02c0,0.01,0,0.01,0,0.01c0.14,1.27,0.13,3.32-0.01,4.44c-0.01,0.03-0.01,0.07-0.02,0.1       c-0.27,2.15-0.77,4.43-2.7,5.62c-1.04,0.64-1.73,0.38-2.71,0.07c-0.01-0.01-0.02-0.01-0.03-0.01c-1.24-0.4-2.13-1.24-2.5-2.38       c-0.45-1.37,0.16-2.98,0.85-4.31c0-0.01,0-0.01,0.01-0.01c0.12-0.23,0.24-0.45,0.36-0.66c0.65-1.15,1.56-2.28,2-3.25       c0.01-0.01,0.01-0.02,0.01-0.03c0.22-0.44,0.42-0.58,0.1-0.8c-0.94-0.63-2.91,1.29-3.53,1.85c-0.1,0.09-0.53,0.49-0.73,0.7       c-0.03,0.04-0.07,0.08-0.1,0.12c-1.79,2.01-3.09,4.43-3.99,6.71c-0.01,0.01-0.01,0.02-0.01,0.02c-0.2,0.51-0.35,0.92-0.42,1.13       c-0.01,0.03-0.02,0.05-0.03,0.08c-0.2,0.54-0.29,1.16-0.85,1.37c-1.02-2.26-1.28-3.66-0.96-6.26c0.01-0.06,0.02-0.13,0.02-0.19       c0.63-4.8,3.13-9.88,10-10.39c-6.61-1.09-10.44,1.63-13.03,6.51v0.01c-0.71,1.34-0.88,3.25-1.14,4.64       c0.32-2.25-2.33-6.77-3.31-8.02c-0.05-0.07-0.11-0.14-0.17-0.22c-1.47-1.87-4.51-5.4-6.55-5.39c-0.2,0-0.4,0.04-0.58,0.12       c-0.3,0.13-0.26,0.45-0.03,0.87c0.47,0.9,1.75,2.25,2.09,3.04c0.47,1.06,2.27,5.72,2.57,6.98c0.01,0.05,0.03,0.11,0.04,0.16       c0.69,2.82,2.39,7.7,0.85,9.69c-0.71,0.92-1.09-1.77-1.35-1.83c-0.01,0-0.01,0-0.01,0c-0.09,0-0.6-1.43-0.68-1.51       c-0.95-1.04-3.24-13.12-4.64-12.1c-1.6,1.15-0.4,6.37-0.68,9.83c-0.09,1.03-0.31,1.91-0.77,2.47c-0.1,0.14-0.23,0.25-0.37,0.35       c-1.36,0.94-2.05-4.86-2.41-5.37c-0.01-0.01-0.01-0.01-0.01-0.02c-0.26-0.45-0.93-3.87-2.08-3.19       c-2.59,1.53-1.1,6.45-2.48,8.78c0,0.01-0.01,0.02-0.01,0.02c-0.05,0.08,0.04,0.13-0.09,0.03c-3.39-2.67-1.76-10.08-1.52-13.25       c0.31-4.03,8.39-11.95,6.66-13.96c-1.74-2.01-7.99,4.93-8.89,6.76c-0.35,0.71-2.21,5.22-2.41,6.19       c-0.02,0.1-0.04,0.21-0.05,0.33c-0.45,3.4,1.31,12.5-0.26,13.48c-1.19,0.74-2.44-5.28-2.7-6.27c-0.01-0.02-0.01-0.03-0.01-0.04       c-0.13-0.46-0.96-3.11-0.99-3.34c-0.33-1.77-1.57-5.89-1.82-6.7c-0.03-0.1-0.07-0.21-0.1-0.33c-0.5-1.54-1.25-3.44-1.98-1.73       c-0.05,0.12-0.1,0.25-0.14,0.37c-0.01,0.01-0.01,0.01-0.01,0.01c-1.04,2.74-1.18,6.41-2.72,8.88       c-2.97-3.17-0.25-14.12-3.03-15.78c-2.17-1.29-2.61,12.06-3.45,13.44c-0.01,0.01-0.02,0.03-0.02,0.04       c-0.24,0.48-0.48,2.35-1.3,2.08c-2.46-0.8-2.87-7.82-3.23-8.94c-0.03-0.09-0.06-0.18-0.08-0.24c-0.03-0.03-0.05-0.05-0.07-0.09       c-0.01-0.02-0.02-0.03-0.03-0.05l-0.01-0.01l-0.01-0.01c-0.15-0.25-0.16-0.55-0.27-0.56c-0.12-0.02-0.08,0.07-0.12,0.21       c0,0.01,0,0.02-0.01,0.03c-0.16,0.62,0.02,2.76,0.03,3.27c0,0.02,0,0.03,0.01,0.05c0.05,1.27,0.89,7.91,0.16,7.15       c-0.74-0.77-2.2-9.46-3.98-11.5c-0.79-0.91-3.34-5.44-4.28-4.3c-1.51,1.82,3.32,8.57,2.73,12.19c0,0.01-0.01,0.03-0.01,0.04       c-0.06,0.36-0.18,1.12-0.35,1.5c-0.1,0.22-0.23,0.58-0.34,0.81c0,0.01-0.01,0.01-0.01,0.01c-0.53,1.06-1.46,2.3-2.3,3.11       c-0.01,0.01-0.02,0.02-0.02,0.02c-1.33,1.27-2.83,2.19-4.56,2.69c-0.01,0.01-0.02,0.01-0.03,0.01       c-0.62,0.18-0.97,0.15-1.39,0.06c-0.01,0-0.02-0.01-0.03-0.01c-0.41-0.08-0.47-0.01-0.71-0.32c-2.43-3.2-0.77-8.06,2.21-10.62       c0.43-0.37,1.13-0.52,1.48-0.57c0.01,0,0.03-0.01,0.04-0.01c1.31-0.19,2.73,0.56,3.78,0.3c-0.94-0.57-2.14-1.27-3.17-1.58       c-0.01-0.01-0.03-0.01-0.04-0.01c-0.76-0.24-1.34-0.4-2.04-0.36h-0.02c-4.23,0.23-5.7,3.44-6.63,6.28       c-0.01,0.03-0.02,0.06-0.03,0.09c-0.77,2.39-0.85,4.32-1.49,6.66c-1.09-3.26-0.51-6.22,0.29-9.61       c0.01-0.03,0.02-0.06,0.02-0.09c0.8-3.43,2.08-7.56,3.93-10.88c-3.13,1.76-4.66,4.17-5.85,7.12c0,0.01-0.01,0.01-0.01,0.02       c-0.51,1.25-0.9,2.77-1.14,4.08c-0.01,0.02-0.01,0.04-0.01,0.07c-0.45,2.57-0.52,5.05-0.27,7.59c0,0.01,0,0.01,0,0.01       c0.02,0.19,0.05,0.32,0.08,0.47c-0.03-0.13-0.08-0.3-0.09-0.41v-0.01c-0.01-0.02-0.01-0.04-0.01-0.05       c-0.07-1.04-1.38-5.71-1.49-6.14c-0.44-1.8-6.34-17.74-7.84-15.71c-1.37,1.85,3.12,9.94,2.47,15.31       c-0.06,0.51-0.16,1-0.33,1.45c-0.09,0.26-0.21,0.77-0.34,1.3c-0.16,0.73-0.33,1.48-0.4,1.64c-0.02,0.05-0.04,0.11-0.07,0.17       c-0.8,2.08-3.36,9.32-6.47,6.16c-0.02-0.02-0.03-0.03-0.04-0.05c-0.69-0.75-0.58-1.72-0.86-2.66       c-0.16-0.52-0.14-1.68-0.21-2.26c-0.12-0.93-0.15-3.07-0.14-3.65c0-0.04,0-0.08,0.01-0.12c0.08-1.93,1.75-5.09,0.47-6.51       c-0.42-0.46-2.21,2.25-2.35,2.68c-0.04,0.13-1.27,2.16-1.42,2.38c-0.8,1.19-2.22,7.43-3.68,7.28       c-1.46-0.15,0.02-4.68,0.25-5.65c0.31-1.31,3.03-4.93,2.39-6.1c-0.3-0.56-1.2,0.21-1.77,0.58c-0.03,0.02-0.07,0.04-0.09,0.06       c-0.41,0.24-1.53,1.2-2.08,1.85c-0.01,0.01-0.02,0.02-0.02,0.03c-0.37,0.44-1.03,1.31-1.37,1.92c-0.35,0.61-0.84,1.69-1.07,2.3       c0,0.01-0.01,0.02-0.01,0.02c-0.35,0.93-0.64,2.59-0.71,3.2c-0.01,0.04-0.01,0.09-0.01,0.13c-0.1,0.98,0.15,2.09-0.42,2.71       c-0.91-2.02-0.88-3.97-0.63-6.1c0-0.02,0.01-0.04,0.01-0.05c0.23-1.92,0.82-4.26,1.42-6.05c0.01-0.02,0.02-0.04,0.02-0.07       c0.26-0.75,0.66-1.42,0.87-1.9c0.49-1.11,0.99-2.13,1.68-2.9c0.01-0.01,0.02-0.02,0.03-0.03c0.97-1.08,1.82-1.44,3.11-2.11       c-0.83-0.57-2.22-0.42-3.38-0.28c-0.03,0.01-0.05,0.01-0.08,0.01c-0.57,0.08-1.88,0.43-2.56,0.8       c-0.01,0.01-0.01,0.01-0.02,0.01c-0.21,0.12-0.57,0.35-0.81,0.53c-1.81,1.4-2.73,4.2-3.04,5.82c-0.01,0.06-0.02,0.12-0.03,0.18       c-0.2,1.24,0.11,1.94-0.49,2.88c-0.39-0.68-0.16-2.6-0.12-3.94c0.01-0.08,0.01-0.16,0.01-0.25c0.02-1.35-0.01-6.09-0.15-7.59       c-0.3-3.21-0.85-11.38-2.66-13.59c-1.42,5.49-0.23,11.84,0.05,17.31v0.04c0.16,3.21,0.54,7.57,0.48,10.16v0.15       c0,1.09,0.32,1.74-0.19,1.55c-1.1-0.41-1.38-4.37-2.05-6.01c-0.09-0.2-1.6-3.73-2.07-4.43c-0.01-0.01-0.01-0.01-0.01-0.01       v-0.01l-0.01-0.01c-0.01-0.02-0.02-0.05-0.04-0.09c-0.09-0.23-0.7-1.12-0.9-1.63c-0.8-2.09-3.57-5.28-5.17-6.52       c-0.05-0.04-0.12-0.09-0.17-0.13c-3.53-2.74-9.32-7.04-13.61-5.24c-0.63,0.26,6.15,3.92,7,4.32c0,0,0.01,0.01,0.01,0.01       c0.08,0.04,0.44,0.3,0.67,0.48c0.01,0.01,0.02,0.01,0.03,0.02c3.17,2.41,5.79,5,7.2,8.5c1.73,3.66,2.67,8.54,2.8,12.11       c0,0.04,0.01,0.09,0,0.13c0.06,2.04-0.13,3.55-0.42,4.77c-0.01,0.05-0.02,0.1-0.03,0.15c-0.16,0.79-0.09,1.29-0.66,1.13       c-1.67-0.47-2.86-5.87-3.79-7.18c-2.26-3.11-4.61-6.36-8.67-7.99c1.12,2.51,2.98,4.55,4.42,7.05c0.36,0.63,1.09,2.06,1.4,2.76       c0.01,0.01,0.01,0.03,0.02,0.04c0.14,0.3,0.46,0.97,0.48,1.03c0,0.01,0.01,0.02,0.01,0.04c0.24,0.73,2.83,5.2,1.57,4.91       c-1.29-0.29-3.79-6.07-5.47-7.48c-1.02-0.86-3.36-3.58-5.04-3.44c3.87,3.59,4.43,6.66,6.04,11.16       c0.01,0.01,0.01,0.02,0.01,0.02c0.09,0.26,0.26,0.68,0.45,1.05c1.06,2.09-0.99-0.49-1.69-1.43c-0.03-0.04-0.05-0.07-0.07-0.1       c-0.31-0.43-2.59-2.31-2.93-2.59c-1.08-0.91-6.49-3.25-6.99-1.82c-0.5,1.42,4.53,3.1,5.53,4.45c0.38,0.51,2.5,2.5,2.63,3.05       c0.01,0.02,0.01,0.04,0.01,0.05l0.01,0.01c0,0.01,0.01,0.02,0.01,0.03c0,0,0.01,0.01,0.01,0.03c0,0.01,0.01,0.02,0.01,0.03       c0.01,0.05,0.02,0.07,0.02,0.07c0.12,0.28,0.76,0.9,0.4,0.9c-0.39,0-1.14-0.78-1.81-1.52c-0.04-0.05-0.09-0.1-0.13-0.15       c-0.92-1.04-4.97-3.53-6.33-4.11c-1.66-0.72-6.4-1.94-6.92-0.81c-0.52,1.13,4.12,1.9,4.94,2.76c0.23,0.24,1.87,1.21,2.3,1.6       c0.01,0.01,0.02,0.02,0.03,0.03c0.28,0.25,0.96,0.85,1.15,0.95c0.05,0.03,0.1,0.05,0.15,0.09c0.01,0,0.01,0.01,0.01,0.01       c0.73,0.52,1.92,2.04,1.84,2.29c-0.17,0.55-8.07-2.21-9.76-2.1c-0.62,0.04-3.65-0.03-3.46,0.7c0.19,0.73,3.52,0.75,4.47,1.36       c0.28,0.18,1.64,0.97,1.83,1.18c0.15,0.16,0.07,0.04,0.07,0.04c1.26,0.24,3.77,1.14,4.63,1.26c0.06,0.01,0.11,0.02,0.15,0.02       h0.01c0.01,0,0.01,0,0.02,0.01h0.04c0.77,0.07,1.49,0.2,2.19,0.35h241.68c0.16-0.11,0.31-0.19,0.41-0.25       c1.13-0.63,4.13-0.77,4.48-1.37C1296.28,868.34,1294.65,868.45,1294.18,868.32z M1107.4,858.74c0.01,0.29,0.24,0.77,0.23,1.01       C1107.63,859.78,1107.29,858.84,1107.4,858.74z M1180.18,864.46c-0.03,0,0.01-0.16,0.02-0.19       C1180.2,864.29,1180.22,864.46,1180.18,864.46z M1216.92,858.21c0.13-2.47-0.77-5.12-1.37-7.53c0.92,0.08,1.6,0.24,2.35,0.74       c0.47,0.32,0.92,0.86,1.25,1.31C1218.79,854.05,1218.46,857.36,1216.92,858.21z M1225.21,862.11       c-0.88,0.57-0.37-1.94-0.55-2.41c-0.01-0.02-0.01-0.03-0.02-0.04c-0.09-0.13-0.15-1.67-0.28-2.01c0-0.01,0.01-0.03,0.01-0.04       v-0.01c0.35-0.78,0.68-1.6,0.95-2.39v-0.01c0.03-0.09,0.07-0.23,0.09-0.25c0.02-0.03,0.02,0.2,0.03,0.29v0.03       C1225.77,856.53,1226.11,861.52,1225.21,862.11z M1131.65,844.61c0,0.01,0,0.01,0,0.01h0.01       C1131.66,844.61,1131.65,844.61,1131.65,844.61z" class="color82b763 svgShape"/><path fill="#7c4524" d="M1292.19,866.21c-1.02-1.34-5.75,0.93-6.95,1.84c-0.35,0.26-2.12,1.74-2.37,2.08c0,0,0,0.01-0.01,0.01       c-0.08,0.1-0.18,0.24-0.29,0.4h4.33c0.59-0.65,2.03-1.69,2.25-1.97c0.01-0.02,0.03-0.03,0.04-0.05       C1289.88,867.79,1292.82,867.04,1292.19,866.21z M1284.59,862.06L1284.59,862.06C1284.59,862.06,1284.59,862.06,1284.59,862.06       L1284.59,862.06z M1286.57,860.03c-0.06-0.06-0.38,0.1-0.83,0.31c-0.03,0.01-0.05,0.03-0.08,0.04       c-0.91,0.41-3.05,2.48-3.78,3.04c-0.64,0.49-1.31,1.55-1.96,2.72l-0.01,0.01c-0.56,1.01-1.12,2.09-1.63,2.96       c-0.38,0.65-0.75,1.18-1.07,1.44h4.06c0.52-1.73,0.99-3.65,1.36-5.16c0.01-0.03,0.02-0.06,0.02-0.09       c0.34-1.25,1.32-2.44,1.82-3.09c0.03-0.04,0.05-0.07,0.08-0.09c0,0,0,0,0.01-0.01v-0.01c0.01-0.01,0.01-0.01,0.01-0.01       s0-0.01,0.01-0.01c0-0.01,0.01-0.01,0.01-0.01v-0.01c0.01-0.01,0.01-0.02,0.02-0.02c-0.01,0.01-0.01,0.02-0.01,0.02h0.01       c0.54-0.64,1.09-1.1,1.62-1.65c0.01-0.01,0.01-0.01,0.01-0.01C1286.34,860.29,1286.69,860.15,1286.57,860.03z M1270.99,863.84       c0.14-3.19,0.5-6.71,1.51-9.87c0.01-0.03,0.02-0.06,0.03-0.09c0.81-2.57,1.79-4.76,3.95-6.92c0.51-2.6,12.63-6.67,10.27-8.36       s-12.26,3.64-14.72,7.62c-1.79,2.9-6.14,10.96-6.7,15.03c-0.01,0.04-0.01,0.07-0.02,0.1c-0.09,0.71-0.06,2.61-0.63,1.6       c-1.21-2.14-0.41-15.46-0.3-19.82c0.01-0.05,0.01-0.1,0.01-0.15c0.05-2,0.05-6.73-0.9-8.99c-2.33,3.36-1.7,9.65-1.72,13.36       c-0.01,0.41,0.01,0.97,0.01,1.15v0.03c0.01,2.07,1.39,9.44,0.39,10.12c-0.99,0.67-0.96-4.78-1.85-5.75       c-0.01-0.01-0.01-0.02-0.02-0.03c-0.25-0.24-1.02-1.77-1.59-2.07l-0.01-0.01c-0.1-0.05-0.27-0.25-0.38-0.33       c-0.59-0.42-1.37-0.82-2.05-1.05c-0.01,0-0.01-0.01-0.02-0.01c-0.31-0.1-0.75-0.21-0.91-0.24c-0.01,0-0.02,0-0.02-0.01       c-1.01-0.18-2.86-0.53-3.63,0.13c2.54,1.29,3.86,2.87,4.93,5.13c2.23,4.4,3.81,9.47,2.39,14.19c-1.47-2.38-1.09-5.67-2.48-8.33       c-0.53-1.03-2.05-2.71-2.91-3.41c-0.03-0.03-0.06-0.05-0.09-0.07v-0.01c-0.8-0.64-1.22-0.96-2.1-1.05h-0.01       c-0.14-0.02-0.1-0.04-0.12,0.07c-0.13,0.68,0.43,1.15,0.88,1.97c0.02,0.03,0.04,0.07,0.05,0.1c0.36,0.66,1.18,2.44,1.47,3.37       v0.01c0.05,0.15,0.22,0.71,0.24,0.79c0.27,0.9,1.72,5.49,0.52,5.66c-1.2,0.16-4.16-8.48-5.22-9.77       c-0.12-0.14-0.92-1.34-0.96-1.4c-0.02-0.02-0.04-0.05-0.08-0.1c0,0,0-0.01,0-0.01c-0.29-0.4-1.14-1.55-1.36-1.19       c-0.76,1.22,0.32,2.77,0.63,4.47c0.03,0.12,0.05,0.25,0.06,0.37c0.12,1.12,0.58,3.97,0.25,5.76c-0.14,0.75,0.15,3.22-0.54,4.69       h29.23c-0.44-1.18,2.65-7.21,3.31-8.27c0-0.01,0.05-0.09,0.08-0.14c0.01-0.02,0.02-0.03,0.02-0.03       c0.13-1.22,5.12-5.71,3.58-6.66c-1.53-0.96-6.73,5.62-7.24,6.87c0,0.01-0.01,0.01-0.01,0.02c0,0,0,0.01,0,0.01       c-0.09,0.15-0.51,0.77-0.57,0.86c-0.85,1.19-1.83,6.96-3.38,7.17c-1.66,0.23-1.18-4.26-1.28-5.16v-0.03       C1270.97,865.06,1270.97,864.33,1270.99,863.84L1270.99,863.84z M1243.73,870.54c-1.3-1.48-2.27-4.05-2.65-5.35       c-0.01-0.03-0.02-0.05-0.02-0.08c-0.16-0.55-0.77-2.5-0.91-3.56c-0.43-3.43-0.1-7.29,0.86-10.6c0.01-0.03,0.02-0.05,0.02-0.08       c0.15-0.48,0.4-1.09,0.39-1.16v-0.02c0.02-0.58,2.98-4.82,1.6-4.51c-2.6,0.58-6.9,11.92-7.6,14.37c0,0.01,0,0.01-0.01,0.01       c-0.03,0.09-0.16,0.5-0.2,0.65c-0.79,2.78-1.18,5.69-1.97,8.48c0.89-4.66,1.06-9.51-0.64-14.06c0.26-2.88,0.51-5.97,0.21-8.82       c0-0.02-0.01-0.03-0.01-0.05c-0.43-4.1-1.58-7.71-3.38-11.54c-1.33-3.07-4.94-6.15-7.57-8.05c-0.07-0.05-0.14-0.1-0.21-0.15       c-2.1-1.51-2.82-1.8-4.92-3.13c3,4.25,4.25,5.6,6.7,10.85c2.61,5.62,3.68,14.83,2.26,21.52c-0.03,0.09-0.19-0.03-0.25-0.04       c-0.01,0-0.01,0-0.02-0.01c-0.04-0.01-0.08-0.03-0.12-0.03c-1.42-0.34-2.69-0.22-4.07,0.17c-0.54-1.94-1.16-3.86-1.84-5.76       c-0.02-0.04,0.04-0.08,0.05-0.12c0.26-0.55,0.54-1.13,0.66-1.69c0.01-0.03,0.01-0.05,0.02-0.08c-0.01-0.01,0-0.01,0-0.01       c0.02-0.09,0.03-0.13,0.02-0.24c0-0.01,0-0.02-0.01-0.03c0-0.01,0-0.01,0-0.01c-0.12-0.76-1.19,0.19-1.48,0.42       c-0.92-2.34-2.31-4.32-4.44-6.04c-0.01-0.01-0.01-0.01-0.02-0.01v-0.01c-0.14-0.11-0.29-0.21-0.4-0.29       c-0.01-0.01-0.01-0.01-0.02-0.01c-0.54-0.37-1.34-0.86-1.88-1.1c-0.02-0.01-0.03-0.01-0.04-0.02       c-3.05-1.36-6.11-2.25-9.57-1.93c5.82,4.27,9.55,9.49,12.06,15.49c-0.92,2.07-1.59,4.18-2.1,6.32       c-0.29-3.78-1.91-7.43-4.43-10.46c-0.01-0.01-0.02-0.03-0.03-0.04c-1.46-1.73-3.17-2.95-4.95-3.97       c-0.03-0.02-0.07-0.04-0.1-0.05c-2.19-1.24-3.82-1.52-6.27-1.29c1.25,3.17,6.57,5.56,8.45,10.52       c1.48,3.9,2.21,11.79-1.89,14.47c-2.45,1.6-4.64-0.49-5.13-2.28c-0.85-3.05,3.56-6.2,3.27-8.92c-0.07-0.7-0.91,0.01-1.38,0.22       c-0.02,0.01-0.04,0.02-0.07,0.03c-0.45,0.16-1.55,1.08-2.09,1.52c-1.06,0.86-2.78,3.25-3.2,4.02       c-0.02,0.04-0.04,0.08-0.06,0.12c-0.9,1.77-1.32,5.04-2.89,5.95c-1.83-4.15-1.26-8.7,1.21-12.66c0-0.01,0-0.01,0.01-0.01       c0.15-0.24,0.31-0.48,0.47-0.72c1.3-1.85,3.92-2.86,6.64-2.8c0,0,0.01,0,0.01,0c0.02,0.01,0.05,0.01,0.04,0       s-0.03-0.01-0.04-0.02c-1.58-0.37-3.04-0.73-4.71-0.4c-0.01,0-0.03,0.01-0.04,0.01c-1.65,0.32-2.82,0.72-4.17,1.8       c-0.03,0.02-0.06,0.05-0.09,0.07c-2.14,1.76-3.35,4.16-3.99,6.71c-0.01,0.01-0.01,0.02-0.01,0.02c0,0.02-0.01,0.03-0.01,0.05       c-0.16,0.65-0.27,1.63-0.33,2.32c-0.02-0.36-0.05-0.8-0.11-1.16c-0.01-0.01-0.01-0.02-0.01-0.02c-0.26-1.61-1.02-3.49-1.8-4.87       c-0.01-0.01-0.01-0.01-0.01-0.02c-0.79-1.39-2.08-3.04-2.96-3.99c-0.02-0.02-0.03-0.03-0.04-0.05v-0.01       c-1.39-1.51-3.02-2.87-4.53-3.55c-0.03-0.02-0.06-0.03-0.09-0.04c-0.65-0.32-0.69-0.62-0.98,0c-0.3,0.64,1.41,2.71,2.02,3.91       c1.67,3.26,5.16,11.99,3.83,15.86H1243.73z M1230.97,867.75c-1.09,0.43-0.53-3.99-0.82-4.36c0.41-0.98,0.76-1.88,1.05-2.71       C1231.49,861.88,1232.06,867.32,1230.97,867.75z M1223.8,857.1c0.19,0.13,0.37,0.29,0.57,0.5v0.01       c0.01,0.01,0.01,0.01,0.01,0.01c0.2,0.21,0.47,0.55,0.64,0.83c-0.07,0.27-0.31,1.08-0.36,1.25c-0.34,1.08-0.66,3.56-1.88,4.17       c0.13-2.49-0.74-5.13-1.29-7.55C1222.39,856.4,1223.08,856.61,1223.8,857.1z M1186.22,869.86c-0.03-0.01,0.01-0.17,0.01-0.19       C1186.24,869.68,1186.26,869.86,1186.22,869.86z M1179.41,868.08c-0.96-1.65-3.02-11.52-4.55-12.42       c-0.36-0.21-0.32,0.33-0.39,0.89c-0.01,0.05-0.01,0.1-0.02,0.16c-0.29,1.62-0.36,6.06-0.47,7.53       c-0.01,0.05-0.01,0.11-0.01,0.16c-0.06,1.41,0.24,4.62-0.93,4.39c-2.66-0.52-1.28-8.34-4.3-8.42       c-0.32-0.01-0.58,0.08-0.78,0.24c-0.54,0.42-0.71,1.37-0.77,2.47c-0.12,2.37,0.3,5.41-1.28,5.37       c-1.95-0.05-1.91-8.62-1.51-10.41c0-0.01,0-0.01,0-0.01c0.05-0.24,0.33-2,0.34-2.36c0.01-2.26,3.04-6.17,5.05-9.32       c0.22-0.34,0.42-0.67,0.61-0.99c0.99-1.68,1.51-3.02,0.84-3.6c-1.99-1.72-7.42,4.21-8.9,6.93c-1.41,2.58-3.2,11.67-2.57,14.57       c0.03,0.12,0.05,0.25,0.08,0.37c0.44,2.05,0.92,4.82,0.03,4.86c-2.01,0.08-3.45-8.87-3.58-9.47c-0.64-2.86-1.55-7.81-2.58-9.06       c-0.07-0.08-0.13-0.15-0.19-0.2c-1.8-1.61-2.39,6.17-2.96,7.21c-0.01,0.03-0.03,0.05-0.04,0.07c-0.13,0.15-0.67,1.99-1.03,2.27       c-2.41-2.6-1.51-9.69-1.84-12.59c-0.01-0.05-0.01-0.1-0.02-0.16c-0.13-1.36-0.16-3.54-1.05-3.83c-0.93-0.3-0.78,1.54-0.98,2.15       c-0.03,0.09-0.06,0.2-0.09,0.33c-0.01,0.01-0.01,0.01-0.01,0.01c-0.64,2.72-1.2,13.2-3.73,13.42c-2.65,0.22-2.03-9.1-3.39-9.05       s0.65,10.34-0.11,10.19c-0.76-0.15-0.99-6.05-1.99-7.99c-0.01-0.02-0.02-0.04-0.03-0.07c-0.28-0.51-1.31-2.93-1.86-3.75       c-0.55-0.81-2.1-2.81-2.59-3.24c-0.05-0.05-0.09-0.08-0.13-0.11c-0.01-0.01-0.01-0.01-0.02-0.01c-0.02,0-0.03-0.01-0.05-0.02       c-0.19-0.12-0.37-0.39-0.42-0.4c-0.01,0-0.01,0-0.01-0.01c-0.23-0.08-1.05-1.1-1.29-0.53c-0.45,1.07,0.53,2.35,1.32,3.89       c0.03,0.07,0.07,0.14,0.1,0.2c1.05,2.14,1.97,7.31,1.11,9.58c-1.18,3.13-5.29,8.27-9.17,6.32c-2.6-1.31-0.85-5.09-0.42-7.06       c0-0.01,0.01-0.02,0.01-0.02c0.21-0.93,1.36-2.42,2.3-3.11c0,0,0.01,0,0.01-0.01c0.08-0.06,0.19-0.14,0.27-0.18       c2.09-0.89,3.22-0.03,5.2-0.24c-1.32-0.74-3.1-1.89-4.7-1.9h-0.08c-5.45,0.01-6.65,4.65-7.6,8.12       c-0.01,0.01-0.01,0.02-0.01,0.03c-0.47,1.74-0.49,2.91-0.96,4.58c-0.54-1.73-0.65-2.59-0.46-4.53c0-0.03,0-0.05,0.01-0.08       c0.37-3.61,1.54-7.82,3.02-11.43c0-0.01,0.01-0.01,0.01-0.01c0.18-0.43,0.39-0.9,0.57-1.29v-0.01       c0.55-1.18,1.14-2.25,1.86-3.37c-1.57,0.87-2.88,1.61-3.91,3.01l-0.01,0.01c-3.72,5.11-4.52,10.78-3.95,16.67       c-0.42-2.37-0.91-4.74-1.6-7.07c-0.3-1.01-0.79-2.33-1.12-3.24c-0.33-0.91-0.93-2.29-1.19-2.91c-0.01-0.01-0.01-0.02-0.02-0.04       c-0.41-0.96-1.65-3.44-1.82-3.7c-0.02-0.04-0.05-0.08-0.08-0.14c-0.7-1.26-3.04-7-4.16-5.76c-1.14,1.28,2.61,7.03,3.01,9.9       c0.01,0.05,0.02,0.11,0.02,0.16c0.1,1.07,0.45,5.26-0.15,6.84c-0.04,0.12-0.09,0.49-0.14,0.6c-0.01,0.01-0.01,0.03-0.01,0.04       c0,0.01-0.01,0.02-0.01,0.02v0.01c-1.34,4.42-6.67,17.1-8.22,3.71c-0.32-2.71,0.15-4.31,0.19-5.5c0-0.08,0.01-0.16,0.02-0.24       c0.06-0.63,0.25-1.24,0.46-1.81c0.4-1.04,0.86-1.98,0.67-2.75c-0.05-0.23-0.17-0.44-0.36-0.65c-0.45-0.48-2.12,1.95-2.82,3.02       c-0.88,1.37-3.69,6.51-4.4,8.14c-0.02,0.05-0.04,0.1-0.07,0.16c-0.34,0.88-0.28,1.68-0.96,1.48c-0.72-0.2-0.14-3.38,0.1-4.14       c0.06-0.19,0.37-1.49,0.42-1.68c0.31-1.3,3.49-5.3,2.67-6.18c-0.79-0.86-2.64,1.14-3.44,1.83c-0.03,0.03-0.07,0.06-0.09,0.08       c-0.36,0.29-1.7,1.86-2.05,2.55c-1.31,2.58-0.94,6.03-2.36,8.37c-1.53-4-0.26-8.53,1.15-12.35c0.01-0.03,0.02-0.06,0.04-0.09       c0.27-0.69,0.66-1.31,0.85-1.71c1.11-2.49,2.28-3.76,4.94-5.07c-2.1-1.16-5.28,0.08-7.08,1.2c-0.42,0.26-1.25,1.17-1.51,1.66       c-0.01,0.01-0.01,0.02-0.02,0.03c-1.21,2.28-0.93,4.9-2.14,7.09c-0.67-0.88-0.08-3.55-0.04-5.19c0.01-0.08,0.01-0.16,0.01-0.24       c-0.01-1.16-0.02-4.72-0.2-6.33c-0.01-0.04-0.02-0.15-0.02-0.21c-0.01-0.02-0.01-0.03-0.01-0.04c0.01-0.34-0.3-2.16-0.27-2.3       c0-0.02,0.01-0.03,0-0.05c0.08-1.13-1.49-11.36-2.11-10.4c-1.53,2.39-0.6,7.68-0.53,11.21c0.01,0.04,0.01,0.08,0.01,0.12       c0.02,1.39,0.26,4.69,0.34,6.27v0.02c0.08,1.73,0.32,4.84,0.32,6.04c0,0.06,0,0.12,0.01,0.18c0.02,1.85,0.53,3.89-0.1,4.89       c-0.34,0.53-0.46-0.92-0.62-1.55c-0.02-0.07-0.03-0.13-0.05-0.18c-0.14-0.36-0.65-2.31-1-3.21c-0.01-0.03-0.02-0.06-0.03-0.09       c-0.07-0.18-0.06-0.22-0.34-0.94c-0.44-1.18-1.6-3.56-2.42-5c-0.01-0.01-0.01-0.02-0.02-0.03c-0.11-0.2-0.44-0.8-0.59-1.03       l-0.01-0.01c-0.01-0.01-0.02-0.03-0.02-0.04c-0.63-1.39-1.67-2.88-2.72-4.04c-2.52-2.74-6.66-5.48-9.89-6.88       c-0.07-0.03-0.15-0.07-0.22-0.09c-2.64-1.14-4.12-1.59-6.59-0.94c-0.02,0-0.05-0.03-0.07-0.03c0.01,0.01,0.02,0.02,0.04,0.04       c0,0,0.01,0.01,0.01,0.01c0.01,0.01,0.03,0.03,0.05,0.05c0.2,0.19-0.06,0.05,0.62,0.43c0.01,0.01,0.02,0.01,0.03,0.02       c0.04,0.02,0.08,0.04,0.12,0.06c4.15,2.26,8.73,5.21,11.96,8.63l0.01,0.01c0.01,0.01,0.03,0.03,0.08,0.08       c0.01,0.01,0.01,0.01,0.02,0.02c0,0,0,0,0.01,0.01c0.03,0.03,0.07,0.07,0.13,0.12c0.6,0.6,1.88,2.88,2.38,3.9       c0.57,1.18,1.53,4.06,1.79,4.83c0.01,0.01,0.01,0.02,0.01,0.03c1.09,3.19,2.1,11.28,0.01,13.05c-1.5,1.27-2.82-6.54-4.11-7.04       c-0.35-0.14-1.71-2.31-2.36-2.96c-0.01-0.01-0.01-0.01-0.02-0.02c-1.71-1.73-3.5-3.83-6.21-4.65c1.1,2.38,3.04,4.66,4.37,6.96       c0.32,0.55,1.26,2.33,1.37,2.57c0.01,0.01,0.01,0.03,0.02,0.04c0.52,1.07,3.46,6.04,2.18,5.92c-1.29-0.12-3.67-5.74-5.64-7.21       c-0.71-0.54-2.83-2.46-3.72-2.86c-0.03-0.02-0.07-0.03-0.1-0.05c-0.52-0.26-0.68-0.51-1.14-0.43c0.48,0.42,1.23,1.06,1.59,1.46       c0.01,0.01,0.02,0.03,0.03,0.04c2.94,3.26,3.34,6.81,4.92,10.54c0.88,1.99-3.64-3.09-4.97-4.01c-0.42-0.29-2.11-1.17-2.82-1.38       c-0.01,0-0.02-0.01-0.03-0.01c-0.34-0.1-1.08-0.34-1.19-0.35c-0.01,0-0.02,0-0.04-0.01c-0.59-0.08-2.96-0.77-2.9,0.08       c0.1,1.32,4.7,3.18,5.59,4.36c0.49,0.65,3.3,2.58,3.19,3.62h118.96C1179.83,869.59,1179.56,868.34,1179.41,868.08z        M1114.47,863.13c0.01,0.34,0.25,0.91,0.24,1.19C1114.71,864.35,1114.35,863.25,1114.47,863.13z M1131.66,844.62       L1131.66,844.62c0.01,0.01,0.01,0.01,0.02,0.02c0.01,0,0.01,0.01,0.02,0.01L1131.66,844.62z M1053.69,865.8       c-0.05-0.1-0.1-0.16-0.13-0.21c-0.02-0.03-0.03-0.05-0.04-0.06l-0.01-0.01c0-0.01-0.01-0.01-0.01-0.01       c0,0.01,0.01,0.03,0.02,0.04c0,0,0.01,0.01,0.01,0.03c0.01,0.01,0.01,0.02,0.02,0.02c0.01,0.01,0.01,0.02,0.01,0.02       c0,0.01,0,0.01,0,0.01c-0.01-0.01-0.01-0.01-0.01-0.01c-0.01-0.01-0.01-0.01-0.01-0.01c-0.21-0.25-0.55-0.25-0.75-0.32       c-0.21-0.08-0.48-0.18-0.61-0.22c-0.01-0.01-0.02-0.01-0.03-0.01c-1.86-0.57-4.24-1.15-6.06-0.69       c-0.01,0.01-0.03,0.01-0.04,0.01c-0.34,0.08-0.31-0.05-0.24,0.24c0.07,0.31,0.76,0.48,1.53,0.81c0.01,0,0.01,0.01,0.01,0.01       c0.79,0.34,2.56,1.16,3.58,1.85c1.34,0.9,3.08,1.99,4.27,3.25h4.03C1057.12,869.34,1054,866.33,1053.69,865.8z M1294.18,868.32       c-0.03,0.01-0.06,0.02-0.08,0.02c-0.25,0.07-1.48,0.4-2.1,0.67c-0.97,0.43-1.93,0.94-2.85,1.53h5.54       c1.4-0.64,4.31-1.53,4.15-2.31C1298.65,867.3,1295.25,868.03,1294.18,868.32z M1047.2,870.19L1047.2,870.19       c0.03,0.01,0.05,0.02,0.08,0.02c0.47,0.12,0.93,0.23,1.4,0.33h1.35C1049.11,870.36,1048.18,870.25,1047.2,870.19z" class="color4a7c24 svgShape"/><path fill="#b79463" d="M345.27,868.32c-0.02,0-0.03-0.01-0.05-0.01c-0.18-0.07-1.31-0.09-1.7-0.11       c-0.69-0.05-2.65,0.19-3.04,0.27c-0.06,0.01-0.12,0.03-0.19,0.05c-1.65,0.43-5.25,2.33-6.38,1.92       c-0.14-0.05-0.03-0.07,0.04-0.29c0-0.01,0.01-0.01,0.01-0.02c0.01,0,0.01-0.01,0.01-0.01c0.57-1.68,3.97-3.77,5.11-4.72       c1.25-1.04,5.2-1.59,4.91-2.81c-0.3-1.21-5.61,0.27-6.77,0.8c-0.44,0.2-3.02,1.6-3.37,1.83c-0.03,0.02-0.05,0.03-0.08,0.05       c-0.99,0.73-3.53,3.95-4.37,3.81c-0.04-0.01-0.09-0.02-0.12-0.05c-0.49-0.38,0.7-1.8,1.75-2.91l0.01-0.01       c0.46-0.49,0.89-0.92,1.14-1.18c0.55-0.59,2.76-2.42,3.39-2.8c0.04-0.03,0.08-0.05,0.11-0.07c0.01-0.01,0.02-0.01,0.03-0.02       c0-0.01,0.01-0.01,0.01-0.01c0-0.01,0.01-0.01,0.01-0.01h0.01c0.03-0.02,0.05-0.03,0.06-0.04c0.61-0.36,1.83-0.89,1.88-1.41       c0.02-0.17-0.14-0.16-0.31-0.21c-0.01,0-0.01,0-0.01,0c-0.16-0.05-0.15-0.07-0.48-0.07c-2.11-0.01-4.13,0.79-5.87,1.8       c-0.01,0-0.01,0.01-0.01,0.01c-0.1,0.05-0.35,0.23-0.41,0.27c-1.35,0.98-3.89,4.52-4.75,4.9c-0.85,0.38,0.18-0.61,0.25-0.85       c0.33-1.12,0.99-2.89,1.26-4.11c0-0.01,0-0.01,0-0.01c0.72-3.37,1.87-5.28,4.6-7.91c-1.88,0.2-3.59,2.19-4.9,3.52       c-1.69,1.71-3.87,5.15-4.87,7.15c-0.02,0.04-0.04,0.08-0.05,0.12c-0.21,0.47-0.11,0.59-0.34,0.4       c-0.24-0.19,0.12-0.91,0.34-1.75v-0.01c0.01-0.04,0.02-0.08,0.03-0.13c0.33-1.38,2.32-5.73,2.86-6.95       c0.85-1.93,4.76-5.7,3.84-6.9c-0.86-1.13-4.2,2.9-5.19,4.02c-0.07,0.07-0.12,0.13-0.16,0.18c-0.25,0.27-2.24,3.06-2.53,3.44       c-0.9,1.22-1.83,7.2-3.33,7.09c-1.22-0.08-1.03-1.21-1.17-3.35c0-0.02-0.01-0.05-0.01-0.08c-0.38-5.62,0.27-14.4,5.3-19.76       c0.75-2.89,12.31-6.45,10.34-8.45c-1.98-2-13.2,4.42-14.46,7.34c-0.16,0.39-1.63,1.97-2.11,2.83       c-0.01,0.02-0.02,0.03-0.03,0.05c-0.79,1.48-1.99,3.76-2.58,5.32c-0.5,1.34-1.09,3.3-1.43,4.32c-0.01,0.03-0.02,0.05-0.03,0.08       c-0.48,1.48-0.88,3.91-1.32,4.53c-0.21,0.29-0.26-3.76-0.3-6.62c0-0.19-0.01-0.38-0.01-0.55c-0.05-5.2,0.88-15.81-1.07-21.79       c-2.33,2.83-1.68,10.15-1.71,13.13c-0.04,2.63,0.23,6.05,0.3,7.5c0.01,0.1,0.02,0.21,0.03,0.32c0.15,1.67,0.76,3.63,0.1,3.84       c-0.67,0.21-0.7-2.89-1.04-4.09c-0.02-0.06-0.03-0.11-0.05-0.16c-0.26-0.71-1.72-3.54-2.7-4.14c-1.83-1.13-4.7-2.44-6.76-1.25       c2.65,1.22,3.93,2.81,5.01,5.1c1.38,2.58,2.2,5.32,2.71,8.1v0.01c0.27,1.45,0.33,3.02,0.18,4.43c0,0.01,0,0.01,0,0.01v0.01       c-0.07,0.68-0.23,1.02-0.46,1.62c-0.94-1.14-0.7-3.63-1.06-5.1c-0.01-0.02-0.01-0.04-0.02-0.07c-0.09-0.35-0.55-1.52-0.75-1.97       c-0.11-0.25-0.58-1.03-0.62-1.14c-0.32-0.89-3.92-5.42-5.09-4.38c-1.17,1.04,2.41,4.73,2.45,6.05c0,0.01,0.03,0.09,0.05,0.15       c0,0.01,0,0.01,0,0.01c0.02,0.04,0.03,0.07,0.03,0.08c0.38,0.85,1.46,5.19,0.55,5.49c-0.87,0.3-0.77-1.17-1.32-2.3       c-0.02-0.04-0.03-0.08-0.05-0.12c-0.73-1.36-2.75-5.63-3.95-7.31c-0.62-0.87-1.41-2.2-1.93-2.53       c-0.04-0.03-0.09-0.05-0.12-0.08v-0.01c-0.35-0.27-0.15-0.42-0.43-0.09c-0.29,0.34-0.16,0.35,0.04,1.27       c0.02,0.07,0.03,0.13,0.05,0.21c0.51,2.5,1.19,5.78,0.99,9.04c-0.05,0.81-0.25,3.99-0.99,5.07c0,0.01-0.01,0.01-0.01,0.01       c-0.21,0.31-0.15,0.84-0.83,0.8c-2.71-0.18-4.03-4.38-4.82-6.43c-0.02-0.04-0.03-0.08-0.04-0.12       c-0.25-0.62-0.72-2.86-0.92-3.72c-1.42-6.04,4.12-13.62,2.98-16.97c-0.66-1.93-3.72,4.85-4.62,7.01       c-0.07,0.18-0.13,0.32-0.17,0.42c-0.28,0.73-2.77,6.31-3.24,8.31c-0.57,2.46-1.32,5.89-1.92,8.45       c0.81-4.66,1.03-9.49-0.76-14.04c0.76-7.07-0.26-13.51-3.33-20.1c-0.46-0.98-1.05-2.02-1.66-2.7       c-0.03-0.03-0.05-0.05-0.08-0.08c-3.14-3.51-6.66-6.03-10.98-8.54c2.96,4.12,4.25,5.7,6.67,10.82       c2.3,4.87,3.7,13.19,2.81,19.14c0,0,0,0,0,0.01c-0.01,0.08-0.01,0.18-0.02,0.27c0,0-0.01,0.01,0,0.01       c-0.01,0.03-0.01,0.05-0.01,0.07c-0.09,0.59-0.18,1.22-0.3,1.81c-0.12-0.04-0.24-0.09-0.37-0.12       c-1.46-0.32-2.75-0.18-4.15,0.25c-0.56-1.94-1.2-3.84-1.85-5.77c0.31-0.53,0.75-1.61,0.77-2.09v-0.07       c0-0.38-0.09-0.34-0.4-0.29c-0.01,0-0.02,0.01-0.03,0.01c-0.36,0.05-0.77,0.5-1.06,0.68c-0.23-0.51-0.52-1.36-0.83-1.79       c-0.01-0.01-0.02-0.02-0.02-0.03c-3.51-4.77-8.77-7.73-15.74-7.32c5.84,4.25,9.56,9.36,12.25,15.31       c-0.19,0.42-0.43,0.95-0.58,1.36c-0.01,0.01-0.01,0.02-0.01,0.03c-0.64,1.64-1.1,3.29-1.5,4.93c-0.16-3-1.64-6.53-3.47-8.85       c-0.03-0.04-0.06-0.07-0.09-0.11c-3.12-3.95-6.66-7.03-12.47-6.65c1.22,2.91,6.52,5.9,8.62,10.47c0.41,0.9,0.81,3.16,0.93,4.33       c0,0,0,0.01,0,0.01v0.02c0,0.01,0,0.01,0,0.01c0.14,1.27,0.13,3.32-0.01,4.44c-0.01,0.03-0.01,0.07-0.02,0.1       c-0.27,2.15-0.77,4.43-2.7,5.62c-1.04,0.64-1.73,0.38-2.71,0.07c-0.01-0.01-0.02-0.01-0.03-0.01c-1.24-0.4-2.13-1.24-2.5-2.38       c-0.45-1.37,0.16-2.98,0.85-4.31c0-0.01,0-0.01,0.01-0.01c0.12-0.23,0.24-0.45,0.36-0.66c0.65-1.15,1.56-2.28,2-3.25       c0.01-0.01,0.01-0.02,0.01-0.03c0.22-0.44,0.42-0.58,0.1-0.8c-0.94-0.63-2.91,1.29-3.53,1.85c-0.1,0.09-0.53,0.49-0.73,0.7       c-0.03,0.04-0.07,0.08-0.1,0.12c-1.79,2.01-3.09,4.43-3.99,6.71c-0.01,0.01-0.01,0.02-0.01,0.02c-0.2,0.51-0.35,0.92-0.42,1.13       c-0.01,0.03-0.02,0.05-0.03,0.08c-0.2,0.54-0.29,1.16-0.85,1.37c-1.02-2.26-1.28-3.66-0.96-6.26c0.01-0.06,0.02-0.13,0.02-0.19       c0.63-4.8,3.13-9.88,10-10.39c-6.61-1.09-10.44,1.63-13.03,6.51v0.01c-0.71,1.34-0.88,3.25-1.14,4.64       c0.32-2.25-2.33-6.77-3.31-8.02c-0.05-0.07-0.11-0.14-0.17-0.22c-1.47-1.87-4.51-5.4-6.55-5.39c-0.2,0-0.4,0.04-0.58,0.12       c-0.3,0.13-0.26,0.45-0.03,0.87c0.47,0.9,1.75,2.25,2.09,3.04c0.47,1.06,2.27,5.72,2.57,6.98c0.01,0.05,0.03,0.11,0.04,0.16       c0.69,2.82,2.39,7.7,0.85,9.69c-0.71,0.92-1.09-1.77-1.35-1.83c-0.01,0-0.01,0-0.01,0c-0.09,0-0.6-1.43-0.68-1.51       c-0.95-1.04-3.24-13.12-4.64-12.1c-1.6,1.15-0.4,6.37-0.68,9.83c-0.09,1.03-0.31,1.91-0.77,2.47c-0.1,0.14-0.23,0.25-0.37,0.35       c-1.36,0.94-2.05-4.86-2.41-5.37c-0.01-0.01-0.01-0.01-0.01-0.02c-0.26-0.45-0.93-3.87-2.08-3.19       c-2.59,1.53-1.1,6.45-2.48,8.78c0,0.01-0.01,0.02-0.01,0.02c-0.05,0.08,0.04,0.13-0.09,0.03c-3.39-2.67-1.76-10.08-1.52-13.25       c0.31-4.03,8.39-11.95,6.66-13.96c-1.74-2.01-7.99,4.93-8.89,6.76c-0.35,0.71-2.21,5.22-2.41,6.19       c-0.02,0.1-0.04,0.21-0.05,0.33c-0.45,3.4,1.31,12.5-0.26,13.48c-1.19,0.74-2.44-5.28-2.7-6.27c-0.01-0.02-0.01-0.03-0.01-0.04       c-0.13-0.46-0.96-3.11-0.99-3.34c-0.33-1.77-1.57-5.89-1.82-6.7c-0.03-0.1-0.07-0.21-0.1-0.33c-0.5-1.54-1.25-3.44-1.98-1.73       c-0.05,0.12-0.1,0.25-0.14,0.37c-0.01,0.01-0.01,0.01-0.01,0.01c-1.04,2.74-1.18,6.41-2.72,8.88       c-2.97-3.17-0.25-14.12-3.03-15.78c-2.17-1.29-2.61,12.06-3.45,13.44c-0.01,0.01-0.02,0.03-0.02,0.04       c-0.24,0.48-0.48,2.35-1.3,2.08c-2.46-0.8-2.87-7.82-3.23-8.94c-0.03-0.09-0.05-0.18-0.08-0.24c-0.03-0.03-0.05-0.05-0.07-0.09       c-0.01-0.02-0.02-0.03-0.03-0.05l-0.01-0.01l-0.01-0.01c-0.15-0.25-0.16-0.55-0.27-0.56c-0.12-0.02-0.08,0.07-0.12,0.21       c0,0.01,0,0.02-0.01,0.03c-0.16,0.62,0.02,2.76,0.03,3.27c0,0.02,0,0.03,0.01,0.05c0.05,1.27,0.89,7.91,0.16,7.15       c-0.74-0.77-2.2-9.46-3.98-11.5c-0.79-0.91-3.35-5.44-4.28-4.3c-1.51,1.82,3.32,8.57,2.73,12.19c0,0.01-0.01,0.03-0.01,0.04       c-0.06,0.36-0.18,1.12-0.35,1.5c-0.1,0.22-0.23,0.58-0.34,0.81c0,0.01-0.01,0.01-0.01,0.01c-0.53,1.06-1.46,2.3-2.3,3.11       c-0.01,0.01-0.02,0.02-0.02,0.02c-1.33,1.27-2.83,2.19-4.56,2.69c-0.01,0.01-0.02,0.01-0.03,0.01       c-0.62,0.18-0.97,0.15-1.39,0.06c-0.01,0-0.02-0.01-0.03-0.01c-0.41-0.08-0.47-0.01-0.71-0.32c-2.43-3.2-0.77-8.06,2.21-10.62       c0.43-0.37,1.13-0.52,1.48-0.57c0.01,0,0.03-0.01,0.04-0.01c1.31-0.19,2.73,0.56,3.78,0.3c-0.94-0.57-2.14-1.27-3.17-1.58       c-0.01-0.01-0.03-0.01-0.04-0.01c-0.76-0.24-1.34-0.4-2.04-0.36h-0.02c-4.23,0.23-5.7,3.44-6.63,6.28       c-0.01,0.03-0.02,0.06-0.03,0.09c-0.77,2.39-0.85,4.32-1.49,6.66c-1.09-3.26-0.51-6.22,0.29-9.61       c0.01-0.03,0.02-0.06,0.02-0.09c0.8-3.43,2.08-7.56,3.93-10.88c-3.13,1.76-4.66,4.17-5.85,7.12c0,0.01-0.01,0.01-0.01,0.02       c-0.51,1.25-0.9,2.77-1.14,4.08c-0.01,0.02-0.01,0.04-0.01,0.07c-0.45,2.57-0.52,5.05-0.27,7.59c0,0.01,0,0.01,0,0.01       c0.02,0.19,0.05,0.32,0.08,0.47c-0.03-0.13-0.08-0.3-0.09-0.41v-0.01c-0.01-0.02-0.01-0.04-0.01-0.05       c-0.07-1.04-1.38-5.71-1.49-6.14c-0.44-1.8-6.34-17.74-7.84-15.71c-1.37,1.85,3.12,9.94,2.47,15.31       c-0.06,0.51-0.16,1-0.33,1.45c-0.09,0.26-0.21,0.77-0.34,1.3c-0.16,0.73-0.33,1.48-0.4,1.64c-0.02,0.05-0.04,0.11-0.07,0.17       c-0.8,2.08-3.36,9.32-6.47,6.16c-0.02-0.02-0.03-0.03-0.04-0.05c-0.69-0.75-0.58-1.72-0.86-2.66       c-0.16-0.52-0.14-1.68-0.21-2.26c-0.12-0.93-0.15-3.07-0.14-3.65c0-0.04,0-0.08,0.01-0.12c0.08-1.93,1.75-5.09,0.47-6.51       c-0.42-0.46-2.21,2.25-2.35,2.68c-0.04,0.13-1.27,2.16-1.42,2.38c-0.8,1.19-2.22,7.43-3.68,7.28       c-1.46-0.15,0.02-4.68,0.25-5.65c0.31-1.31,3.03-4.93,2.39-6.1c-0.3-0.56-1.2,0.21-1.77,0.58c-0.03,0.02-0.07,0.04-0.09,0.06       c-0.41,0.24-1.53,1.2-2.08,1.85c-0.01,0.01-0.02,0.02-0.02,0.03c-0.37,0.44-1.03,1.31-1.37,1.92c-0.35,0.61-0.84,1.69-1.07,2.3       c0,0.01-0.01,0.02-0.01,0.02c-0.35,0.93-0.64,2.59-0.71,3.2c-0.01,0.04-0.01,0.09-0.01,0.13c-0.1,0.98,0.15,2.09-0.42,2.71       c-0.91-2.02-0.88-3.97-0.63-6.1c0-0.02,0.01-0.04,0.01-0.05c0.23-1.92,0.82-4.26,1.42-6.05c0.01-0.02,0.02-0.04,0.02-0.07       c0.26-0.75,0.66-1.42,0.87-1.9c0.49-1.11,0.99-2.13,1.68-2.9c0.01-0.01,0.02-0.02,0.03-0.03c0.97-1.08,1.82-1.44,3.11-2.11       c-0.84-0.57-2.22-0.42-3.38-0.28c-0.03,0.01-0.05,0.01-0.08,0.01c-0.57,0.08-1.88,0.43-2.56,0.8       c-0.01,0.01-0.01,0.01-0.02,0.01c-0.21,0.12-0.57,0.35-0.81,0.53c-1.81,1.4-2.73,4.2-3.04,5.82c-0.01,0.06-0.02,0.12-0.03,0.18       c-0.2,1.24,0.11,1.94-0.49,2.88c-0.39-0.68-0.16-2.6-0.12-3.94c0.01-0.08,0.01-0.16,0.01-0.25c0.02-1.35-0.01-6.09-0.15-7.59       c-0.3-3.21-0.85-11.38-2.66-13.59c-1.42,5.49-0.23,11.84,0.05,17.31v0.04c0.16,3.21,0.54,7.57,0.48,10.16v0.15       c0,1.09,0.32,1.74-0.19,1.55c-1.1-0.41-1.38-4.37-2.05-6.01c-0.09-0.2-1.6-3.73-2.07-4.43c-0.01-0.01-0.01-0.01-0.01-0.01       v-0.01l-0.01-0.01c-0.01-0.02-0.02-0.05-0.04-0.09c-0.09-0.23-0.7-1.12-0.9-1.63c-0.8-2.09-3.57-5.28-5.17-6.52       c-0.05-0.04-0.12-0.09-0.17-0.13c-3.53-2.74-9.32-7.04-13.61-5.24c-0.63,0.26,6.15,3.92,7,4.32c0,0,0.01,0.01,0.01,0.01       c0.08,0.04,0.44,0.3,0.67,0.48c0.01,0.01,0.02,0.01,0.03,0.02c3.17,2.41,5.79,5,7.2,8.5c1.73,3.66,2.67,8.54,2.8,12.11       c0,0.04,0.01,0.09,0,0.13c0.06,2.04-0.13,3.55-0.42,4.77c-0.01,0.05-0.02,0.1-0.03,0.15c-0.16,0.79-0.09,1.29-0.66,1.13       c-1.67-0.47-2.86-5.87-3.79-7.18c-2.26-3.11-4.61-6.36-8.67-7.99c1.12,2.51,2.98,4.55,4.42,7.05c0.36,0.63,1.09,2.06,1.4,2.76       c0.01,0.01,0.01,0.03,0.02,0.04c0.14,0.3,0.46,0.97,0.48,1.03c0,0.01,0.01,0.02,0.01,0.04c0.24,0.73,2.83,5.2,1.57,4.91       c-1.29-0.29-3.79-6.07-5.47-7.48c-1.02-0.86-3.36-3.58-5.04-3.44c3.87,3.59,4.43,6.66,6.04,11.16       c0.01,0.01,0.01,0.02,0.01,0.02c0.09,0.26,0.26,0.68,0.45,1.05c1.06,2.09-0.99-0.49-1.69-1.43c-0.03-0.04-0.05-0.07-0.07-0.1       c-0.31-0.43-2.59-2.31-2.93-2.59c-1.08-0.91-6.49-3.25-6.99-1.82c-0.5,1.42,4.53,3.1,5.53,4.45c0.38,0.51,2.5,2.5,2.63,3.05       c0.01,0.02,0.01,0.04,0.01,0.05l0.01,0.01c0,0.01,0.01,0.02,0.01,0.03c0,0,0.01,0.01,0.01,0.03c0,0.01,0.01,0.02,0.01,0.03       c0.01,0.05,0.02,0.07,0.02,0.07c0.12,0.28,0.76,0.9,0.4,0.9c-0.39,0-1.14-0.78-1.81-1.52c-0.04-0.05-0.09-0.1-0.13-0.15       c-0.92-1.04-4.97-3.53-6.33-4.11c-1.66-0.72-6.4-1.94-6.92-0.81c-0.52,1.13,4.13,1.9,4.94,2.76c0.23,0.24,1.87,1.21,2.3,1.6       c0.01,0.01,0.02,0.02,0.03,0.03c0.28,0.25,0.96,0.85,1.15,0.95c0.05,0.03,0.1,0.05,0.15,0.09c0.01,0,0.01,0.01,0.01,0.01       c0.73,0.52,1.92,2.04,1.84,2.29c-0.17,0.55-8.07-2.21-9.76-2.1c-0.62,0.04-3.65-0.03-3.46,0.7c0.19,0.73,3.52,0.75,4.47,1.36       c0.28,0.18,1.64,0.97,1.83,1.18c0.15,0.16,0.07,0.04,0.07,0.04c1.26,0.24,3.77,1.14,4.63,1.26c0.06,0.01,0.11,0.02,0.15,0.02       h0.01c0.01,0,0.01,0,0.02,0.01h0.04c0.77,0.07,1.49,0.2,2.19,0.35h241.68c0.16-0.11,0.31-0.19,0.41-0.25       c1.13-0.63,4.13-0.77,4.48-1.37C347.37,868.34,345.74,868.45,345.27,868.32z M158.49,858.74c0.01,0.29,0.24,0.77,0.23,1.01       C158.72,859.78,158.38,858.84,158.49,858.74z M231.27,864.46c-0.03,0,0.01-0.16,0.02-0.19       C231.29,864.29,231.31,864.46,231.27,864.46z M268.01,858.21c0.13-2.47-0.77-5.12-1.37-7.53c0.92,0.08,1.6,0.24,2.35,0.74       c0.47,0.32,0.92,0.86,1.25,1.31C269.88,854.05,269.54,857.36,268.01,858.21z M276.29,862.11c-0.88,0.57-0.37-1.94-0.55-2.41       c-0.01-0.02-0.01-0.03-0.02-0.04c-0.09-0.13-0.15-1.67-0.28-2.01c0-0.01,0.01-0.03,0.01-0.04v-0.01       c0.35-0.78,0.68-1.6,0.95-2.39v-0.01c0.03-0.09,0.07-0.23,0.09-0.25c0.02-0.03,0.02,0.2,0.03,0.29v0.03       C276.86,856.53,277.2,861.52,276.29,862.11z M182.74,844.61c0,0.01,0,0.01,0,0.01h0.01       C182.75,844.61,182.74,844.61,182.74,844.61z" class="color82b763 svgShape"/><path fill="#7c4524" d="M343.27,866.21c-1.02-1.34-5.75,0.93-6.95,1.84c-0.35,0.26-2.12,1.74-2.37,2.08c0,0,0,0.01-0.01,0.01       c-0.08,0.1-0.18,0.24-0.29,0.4h4.33c0.59-0.65,2.03-1.69,2.25-1.97c0.01-0.02,0.03-0.03,0.04-0.05       C340.97,867.79,343.9,867.04,343.27,866.21z M335.68,862.06L335.68,862.06C335.68,862.06,335.68,862.06,335.68,862.06       L335.68,862.06z M337.66,860.03c-0.06-0.06-0.38,0.1-0.83,0.31c-0.03,0.01-0.05,0.03-0.08,0.04c-0.91,0.41-3.05,2.48-3.78,3.04       c-0.64,0.49-1.31,1.55-1.96,2.72l-0.01,0.01c-0.56,1.01-1.12,2.09-1.63,2.96c-0.38,0.65-0.75,1.18-1.07,1.44h4.06       c0.52-1.73,0.99-3.65,1.36-5.16c0.01-0.03,0.02-0.06,0.02-0.09c0.34-1.25,1.32-2.44,1.82-3.09c0.03-0.04,0.05-0.07,0.08-0.09       c0,0,0,0,0.01-0.01v-0.01c0.01-0.01,0.01-0.01,0.01-0.01s0-0.01,0.01-0.01c0-0.01,0.01-0.01,0.01-0.01v-0.01       c0.01-0.01,0.01-0.02,0.02-0.02c-0.01,0.01-0.01,0.02-0.01,0.02h0.01c0.54-0.64,1.09-1.1,1.62-1.65       c0.01-0.01,0.01-0.01,0.01-0.01C337.42,860.29,337.77,860.15,337.66,860.03z M322.08,863.84c0.14-3.19,0.5-6.71,1.51-9.87       c0.01-0.03,0.02-0.06,0.03-0.09c0.81-2.57,1.79-4.76,3.95-6.92c0.51-2.6,12.63-6.67,10.27-8.36       c-2.36-1.69-12.26,3.64-14.72,7.62c-1.79,2.9-6.14,10.96-6.7,15.03c-0.01,0.04-0.01,0.07-0.02,0.1       c-0.09,0.71-0.06,2.61-0.63,1.6c-1.21-2.14-0.41-15.46-0.3-19.82c0.01-0.05,0.01-0.1,0.01-0.15c0.05-2,0.05-6.73-0.9-8.99       c-2.33,3.36-1.7,9.65-1.72,13.36c-0.01,0.41,0.01,0.97,0.01,1.15v0.03c0.01,2.07,1.39,9.44,0.39,10.12       c-0.99,0.67-0.96-4.78-1.85-5.75c-0.01-0.01-0.01-0.02-0.02-0.03c-0.25-0.24-1.02-1.77-1.59-2.07l-0.01-0.01       c-0.1-0.05-0.27-0.25-0.38-0.33c-0.59-0.42-1.37-0.82-2.05-1.05c-0.01,0-0.01-0.01-0.02-0.01c-0.31-0.1-0.75-0.21-0.91-0.24       c-0.01,0-0.02,0-0.02-0.01c-1.01-0.18-2.86-0.53-3.63,0.13c2.54,1.29,3.86,2.87,4.93,5.13c2.23,4.4,3.81,9.47,2.39,14.19       c-1.47-2.38-1.09-5.67-2.48-8.33c-0.53-1.03-2.05-2.71-2.91-3.41c-0.03-0.03-0.06-0.05-0.09-0.07v-0.01       c-0.8-0.64-1.22-0.96-2.1-1.05h-0.01c-0.14-0.02-0.1-0.04-0.12,0.07c-0.13,0.68,0.43,1.15,0.88,1.97       c0.02,0.03,0.04,0.07,0.05,0.1c0.36,0.66,1.18,2.44,1.47,3.37v0.01c0.05,0.15,0.22,0.71,0.24,0.79       c0.27,0.9,1.72,5.49,0.52,5.66c-1.2,0.16-4.16-8.48-5.22-9.77c-0.12-0.14-0.92-1.34-0.96-1.4c-0.02-0.02-0.04-0.05-0.08-0.1       c0,0,0-0.01,0-0.01c-0.29-0.4-1.14-1.55-1.36-1.19c-0.76,1.22,0.32,2.77,0.63,4.47c0.03,0.12,0.05,0.25,0.06,0.37       c0.12,1.12,0.58,3.97,0.25,5.76c-0.14,0.75,0.15,3.22-0.54,4.69h29.23c-0.44-1.18,2.65-7.21,3.31-8.27       c0-0.01,0.05-0.09,0.08-0.14c0.01-0.02,0.02-0.03,0.02-0.03c0.13-1.22,5.12-5.71,3.58-6.66c-1.53-0.96-6.73,5.62-7.24,6.87       c0,0.01-0.01,0.01-0.01,0.02c0,0,0,0.01,0,0.01c-0.09,0.15-0.51,0.77-0.57,0.86c-0.85,1.19-1.83,6.96-3.38,7.17       c-1.66,0.23-1.18-4.26-1.28-5.16v-0.03C322.06,865.06,322.05,864.33,322.08,863.84L322.08,863.84z M294.82,870.54       c-1.3-1.48-2.27-4.05-2.65-5.35c-0.01-0.03-0.02-0.05-0.02-0.08c-0.16-0.55-0.77-2.5-0.91-3.56c-0.43-3.43-0.1-7.29,0.86-10.6       c0.01-0.03,0.02-0.05,0.02-0.08c0.15-0.48,0.4-1.09,0.39-1.16v-0.02c0.02-0.58,2.98-4.82,1.6-4.51       c-2.6,0.58-6.9,11.92-7.6,14.37c0,0.01,0,0.01-0.01,0.01c-0.03,0.09-0.16,0.5-0.2,0.65c-0.79,2.78-1.18,5.69-1.97,8.48       c0.89-4.66,1.06-9.51-0.64-14.06c0.26-2.88,0.51-5.97,0.21-8.82c0-0.02-0.01-0.03-0.01-0.05c-0.43-4.1-1.58-7.71-3.38-11.54       c-1.33-3.07-4.94-6.15-7.57-8.05c-0.07-0.05-0.14-0.1-0.21-0.15c-2.1-1.51-2.82-1.8-4.92-3.13c3,4.25,4.25,5.6,6.7,10.85       c2.61,5.62,3.68,14.83,2.26,21.52c-0.03,0.09-0.19-0.03-0.25-0.04c-0.01,0-0.01,0-0.02-0.01c-0.04-0.01-0.08-0.03-0.12-0.03       c-1.42-0.34-2.69-0.22-4.07,0.17c-0.54-1.94-1.16-3.86-1.84-5.76c-0.02-0.04,0.04-0.08,0.05-0.12       c0.26-0.55,0.54-1.13,0.66-1.69c0.01-0.03,0.01-0.05,0.02-0.08c-0.01-0.01,0-0.01,0-0.01c0.02-0.09,0.03-0.13,0.02-0.24       c0-0.01,0-0.02-0.01-0.03c0-0.01,0-0.01,0-0.01c-0.12-0.76-1.19,0.19-1.48,0.42c-0.92-2.34-2.31-4.32-4.44-6.04       c-0.01-0.01-0.01-0.01-0.02-0.01v-0.01c-0.14-0.11-0.29-0.21-0.4-0.29c-0.01-0.01-0.01-0.01-0.02-0.01       c-0.54-0.37-1.34-0.86-1.88-1.1c-0.02-0.01-0.03-0.01-0.04-0.02c-3.05-1.36-6.11-2.25-9.57-1.93       c5.82,4.27,9.55,9.49,12.06,15.49c-0.92,2.07-1.59,4.18-2.1,6.32c-0.29-3.78-1.91-7.43-4.43-10.46       c-0.01-0.01-0.02-0.03-0.03-0.04c-1.46-1.73-3.17-2.95-4.95-3.97c-0.03-0.02-0.07-0.04-0.1-0.05       c-2.19-1.24-3.82-1.52-6.27-1.29c1.25,3.17,6.57,5.56,8.45,10.52c1.48,3.9,2.21,11.79-1.89,14.47       c-2.45,1.6-4.64-0.49-5.13-2.28c-0.85-3.05,3.56-6.2,3.27-8.92c-0.07-0.7-0.91,0.01-1.38,0.22c-0.02,0.01-0.04,0.02-0.07,0.03       c-0.45,0.16-1.55,1.08-2.09,1.52c-1.06,0.86-2.78,3.25-3.2,4.02c-0.02,0.04-0.04,0.08-0.06,0.12c-0.9,1.77-1.32,5.04-2.89,5.95       c-1.83-4.15-1.26-8.7,1.21-12.66c0-0.01,0-0.01,0.01-0.01c0.15-0.24,0.31-0.48,0.47-0.72c1.3-1.85,3.92-2.86,6.64-2.8       c0,0,0.01,0,0.01,0c0.02,0.01,0.05,0.01,0.04,0c-0.01-0.01-0.03-0.01-0.04-0.02c-1.58-0.37-3.04-0.73-4.71-0.4       c-0.01,0-0.03,0.01-0.04,0.01c-1.65,0.32-2.82,0.72-4.17,1.8c-0.03,0.02-0.06,0.05-0.09,0.07c-2.14,1.76-3.35,4.16-3.99,6.71       c-0.01,0.01-0.01,0.02-0.01,0.02c0,0.02-0.01,0.03-0.01,0.05c-0.16,0.65-0.27,1.63-0.33,2.32c-0.02-0.36-0.05-0.8-0.11-1.16       c-0.01-0.01-0.01-0.02-0.01-0.02c-0.26-1.61-1.02-3.49-1.8-4.87c-0.01-0.01-0.01-0.01-0.01-0.02       c-0.79-1.39-2.08-3.04-2.96-3.99c-0.02-0.02-0.03-0.03-0.04-0.05v-0.01c-1.39-1.51-3.02-2.87-4.53-3.55       c-0.03-0.02-0.06-0.03-0.09-0.04c-0.65-0.32-0.69-0.62-0.98,0c-0.3,0.64,1.41,2.71,2.02,3.91c1.67,3.26,5.16,11.99,3.83,15.86       H294.82z M282.06,867.75c-1.09,0.43-0.53-3.99-0.82-4.36c0.41-0.98,0.76-1.88,1.05-2.71       C282.57,861.88,283.15,867.32,282.06,867.75z M274.89,857.1c0.19,0.13,0.37,0.29,0.57,0.5v0.01c0.01,0.01,0.01,0.01,0.01,0.01       c0.2,0.21,0.47,0.55,0.64,0.83c-0.07,0.27-0.31,1.08-0.36,1.25c-0.34,1.08-0.66,3.56-1.88,4.17c0.13-2.49-0.74-5.13-1.29-7.55       C273.48,856.4,274.17,856.61,274.89,857.1z M237.31,869.86c-0.03-0.01,0.01-0.17,0.01-0.19       C237.33,869.68,237.34,869.86,237.31,869.86z M230.5,868.08c-0.96-1.65-3.02-11.52-4.55-12.42c-0.36-0.21-0.32,0.33-0.39,0.89       c-0.01,0.05-0.01,0.1-0.02,0.16c-0.29,1.62-0.36,6.06-0.47,7.53c-0.01,0.05-0.01,0.11-0.01,0.16       c-0.06,1.41,0.24,4.62-0.93,4.39c-2.66-0.52-1.28-8.34-4.3-8.42c-0.32-0.01-0.58,0.08-0.78,0.24       c-0.54,0.42-0.71,1.37-0.77,2.47c-0.12,2.37,0.3,5.41-1.28,5.37c-1.95-0.05-1.91-8.62-1.51-10.41c0-0.01,0-0.01,0-0.01       c0.06-0.24,0.33-2,0.34-2.36c0.01-2.26,3.04-6.17,5.05-9.32c0.22-0.34,0.42-0.67,0.61-0.99c0.99-1.68,1.51-3.02,0.84-3.6       c-1.99-1.72-7.42,4.21-8.9,6.93c-1.41,2.58-3.2,11.67-2.57,14.57c0.03,0.12,0.05,0.25,0.08,0.37c0.44,2.05,0.92,4.82,0.03,4.86       c-2.01,0.08-3.45-8.87-3.58-9.47c-0.64-2.86-1.55-7.81-2.58-9.06c-0.07-0.08-0.13-0.15-0.19-0.2c-1.8-1.61-2.39,6.17-2.96,7.21       c-0.01,0.03-0.03,0.05-0.04,0.07c-0.13,0.15-0.67,1.99-1.03,2.27c-2.41-2.6-1.51-9.69-1.84-12.59       c-0.01-0.05-0.01-0.1-0.02-0.16c-0.13-1.36-0.16-3.54-1.05-3.83c-0.93-0.3-0.78,1.54-0.98,2.15c-0.03,0.09-0.06,0.2-0.09,0.33       c-0.01,0.01-0.01,0.01-0.01,0.01c-0.64,2.72-1.2,13.2-3.73,13.42c-2.65,0.22-2.03-9.1-3.39-9.05       c-1.36,0.05,0.65,10.34-0.11,10.19c-0.76-0.15-0.99-6.05-1.99-7.99c-0.01-0.02-0.02-0.04-0.03-0.07       c-0.28-0.51-1.31-2.93-1.86-3.75c-0.55-0.81-2.1-2.81-2.59-3.24c-0.05-0.05-0.09-0.08-0.13-0.11       c-0.01-0.01-0.01-0.01-0.02-0.01c-0.02,0-0.03-0.01-0.05-0.02c-0.19-0.12-0.37-0.39-0.42-0.4c-0.01,0-0.01,0-0.01-0.01       c-0.23-0.08-1.05-1.1-1.29-0.53c-0.45,1.07,0.53,2.35,1.32,3.89c0.03,0.07,0.07,0.14,0.1,0.2c1.05,2.14,1.97,7.31,1.11,9.58       c-1.18,3.13-5.29,8.27-9.17,6.32c-2.6-1.31-0.85-5.09-0.42-7.06c0-0.01,0.01-0.02,0.01-0.02c0.21-0.93,1.36-2.42,2.3-3.11       c0,0,0.01,0,0.01-0.01c0.08-0.06,0.19-0.14,0.27-0.18c2.09-0.89,3.22-0.03,5.2-0.24c-1.32-0.74-3.1-1.89-4.7-1.9h-0.08       c-5.45,0.01-6.65,4.65-7.6,8.12c-0.01,0.01-0.01,0.02-0.01,0.03c-0.47,1.74-0.49,2.91-0.96,4.58       c-0.54-1.73-0.65-2.59-0.46-4.53c0-0.03,0-0.05,0.01-0.08c0.37-3.61,1.54-7.82,3.02-11.43c0-0.01,0.01-0.01,0.01-0.01       c0.18-0.43,0.39-0.9,0.57-1.29v-0.01c0.55-1.18,1.14-2.25,1.86-3.37c-1.57,0.87-2.88,1.61-3.91,3.01l-0.01,0.01       c-3.72,5.11-4.52,10.78-3.95,16.67c-0.42-2.37-0.91-4.74-1.6-7.07c-0.3-1.01-0.79-2.33-1.12-3.24       c-0.33-0.91-0.93-2.29-1.19-2.91c-0.01-0.01-0.01-0.02-0.02-0.04c-0.41-0.96-1.65-3.44-1.82-3.7       c-0.02-0.04-0.05-0.08-0.08-0.14c-0.7-1.26-3.04-7-4.16-5.76c-1.14,1.28,2.61,7.03,3.01,9.9c0.01,0.05,0.02,0.11,0.02,0.16       c0.1,1.07,0.45,5.26-0.15,6.84c-0.04,0.12-0.09,0.49-0.14,0.6c-0.01,0.01-0.01,0.03-0.01,0.04c0,0.01-0.01,0.02-0.01,0.02v0.01       c-1.34,4.42-6.67,17.1-8.22,3.71c-0.32-2.71,0.15-4.31,0.19-5.5c0-0.08,0.01-0.16,0.02-0.24c0.06-0.63,0.25-1.24,0.46-1.81       c0.4-1.04,0.86-1.98,0.67-2.75c-0.05-0.23-0.17-0.44-0.36-0.65c-0.45-0.48-2.12,1.95-2.82,3.02c-0.88,1.37-3.69,6.51-4.4,8.14       c-0.02,0.05-0.04,0.1-0.07,0.16c-0.34,0.88-0.28,1.68-0.96,1.48c-0.72-0.2-0.14-3.38,0.1-4.14c0.06-0.19,0.37-1.49,0.42-1.68       c0.31-1.3,3.49-5.3,2.68-6.18c-0.79-0.86-2.64,1.14-3.44,1.83c-0.03,0.03-0.07,0.06-0.09,0.08c-0.36,0.29-1.7,1.86-2.05,2.55       c-1.31,2.58-0.94,6.03-2.36,8.37c-1.53-4-0.26-8.53,1.15-12.35c0.01-0.03,0.02-0.06,0.04-0.09c0.27-0.69,0.66-1.31,0.85-1.71       c1.11-2.49,2.28-3.76,4.94-5.07c-2.1-1.16-5.28,0.08-7.08,1.2c-0.42,0.26-1.25,1.17-1.51,1.66c-0.01,0.01-0.01,0.02-0.02,0.03       c-1.21,2.28-0.93,4.9-2.14,7.09c-0.67-0.88-0.08-3.55-0.04-5.19c0.01-0.08,0.01-0.16,0.01-0.24c-0.01-1.16-0.02-4.72-0.2-6.33       c-0.01-0.04-0.02-0.15-0.02-0.21c-0.01-0.02-0.01-0.03-0.01-0.04c0.01-0.34-0.3-2.16-0.27-2.3c0-0.02,0.01-0.03,0-0.05       c0.08-1.13-1.49-11.36-2.11-10.4c-1.53,2.39-0.6,7.68-0.53,11.21c0.01,0.04,0.01,0.08,0.01,0.12c0.02,1.39,0.26,4.69,0.34,6.27       v0.02c0.08,1.73,0.32,4.84,0.32,6.04c0,0.06,0,0.12,0.01,0.18c0.02,1.85,0.53,3.89-0.1,4.89c-0.34,0.53-0.46-0.92-0.62-1.55       c-0.02-0.07-0.03-0.13-0.05-0.18c-0.14-0.36-0.65-2.31-1-3.21c-0.01-0.03-0.02-0.06-0.03-0.09c-0.07-0.18-0.06-0.22-0.34-0.94       c-0.44-1.18-1.6-3.56-2.42-5c-0.01-0.01-0.01-0.02-0.02-0.03c-0.11-0.2-0.44-0.8-0.59-1.03l-0.01-0.01       c-0.01-0.01-0.02-0.03-0.02-0.04c-0.63-1.39-1.67-2.88-2.72-4.04c-2.52-2.74-6.66-5.48-9.89-6.88       c-0.07-0.03-0.15-0.07-0.22-0.09c-2.64-1.14-4.12-1.59-6.59-0.94c-0.02,0-0.05-0.03-0.07-0.03c0.01,0.01,0.02,0.02,0.04,0.04       c0,0,0.01,0.01,0.01,0.01c0.01,0.01,0.03,0.03,0.05,0.05c0.2,0.19-0.06,0.05,0.62,0.43c0.01,0.01,0.02,0.01,0.03,0.02       c0.04,0.02,0.08,0.04,0.12,0.06c4.15,2.26,8.73,5.21,11.96,8.63l0.01,0.01c0.01,0.01,0.03,0.03,0.08,0.08       c0.01,0.01,0.01,0.01,0.02,0.02c0,0,0,0,0.01,0.01c0.03,0.03,0.07,0.07,0.13,0.12c0.6,0.6,1.88,2.88,2.38,3.9       c0.57,1.18,1.53,4.06,1.79,4.83c0.01,0.01,0.01,0.02,0.01,0.03c1.09,3.19,2.1,11.28,0.01,13.05c-1.5,1.27-2.82-6.54-4.11-7.04       c-0.35-0.14-1.71-2.31-2.36-2.96c-0.01-0.01-0.01-0.01-0.02-0.02c-1.71-1.73-3.5-3.83-6.21-4.65c1.1,2.38,3.04,4.66,4.37,6.96       c0.32,0.55,1.26,2.33,1.37,2.57c0.01,0.01,0.01,0.03,0.02,0.04c0.52,1.07,3.46,6.04,2.18,5.92c-1.29-0.12-3.67-5.74-5.64-7.21       c-0.71-0.54-2.83-2.46-3.72-2.86c-0.03-0.02-0.07-0.03-0.1-0.05c-0.52-0.26-0.68-0.51-1.14-0.43c0.48,0.42,1.23,1.06,1.59,1.46       c0.01,0.01,0.02,0.03,0.03,0.04c2.94,3.26,3.34,6.81,4.92,10.54c0.88,1.99-3.64-3.09-4.97-4.01c-0.42-0.29-2.11-1.17-2.82-1.38       c-0.01,0-0.02-0.01-0.03-0.01c-0.34-0.1-1.08-0.34-1.19-0.35c-0.01,0-0.02,0-0.04-0.01c-0.59-0.08-2.96-0.77-2.9,0.08       c0.1,1.32,4.7,3.18,5.59,4.36c0.49,0.65,3.3,2.58,3.19,3.62h118.96C230.92,869.59,230.65,868.34,230.5,868.08z M165.56,863.13       c0.01,0.34,0.25,0.91,0.24,1.19C165.8,864.35,165.44,863.25,165.56,863.13z M182.75,844.62L182.75,844.62       c0.01,0.01,0.01,0.01,0.02,0.02c0.01,0,0.01,0.01,0.02,0.01L182.75,844.62z M104.78,865.8c-0.05-0.1-0.1-0.16-0.13-0.21       c-0.02-0.03-0.03-0.05-0.04-0.06l-0.01-0.01c0-0.01-0.01-0.01-0.01-0.01c0,0.01,0.01,0.03,0.02,0.04c0,0,0.01,0.01,0.01,0.03       c0.01,0.01,0.01,0.02,0.02,0.02c0.01,0.01,0.01,0.02,0.01,0.02c0,0.01,0,0.01,0,0.01c-0.01-0.01-0.01-0.01-0.01-0.01       c-0.01-0.01-0.01-0.01-0.01-0.01c-0.21-0.25-0.55-0.25-0.75-0.32c-0.21-0.08-0.48-0.18-0.61-0.22       c-0.01-0.01-0.02-0.01-0.03-0.01c-1.86-0.57-4.24-1.15-6.06-0.69c-0.01,0.01-0.03,0.01-0.04,0.01       c-0.34,0.08-0.31-0.05-0.24,0.24c0.07,0.31,0.76,0.48,1.53,0.81c0.01,0,0.01,0.01,0.01,0.01c0.79,0.34,2.56,1.16,3.58,1.85       c1.34,0.9,3.08,1.99,4.27,3.25h4.03C108.21,869.34,105.09,866.33,104.78,865.8z M345.27,868.32c-0.03,0.01-0.06,0.02-0.08,0.02       c-0.25,0.07-1.48,0.4-2.1,0.67c-0.97,0.43-1.93,0.94-2.85,1.53h5.54c1.4-0.64,4.31-1.53,4.15-2.31       C349.73,867.3,346.34,868.03,345.27,868.32z M98.29,870.19L98.29,870.19c0.03,0.01,0.05,0.02,0.08,0.02       c0.47,0.12,0.93,0.23,1.4,0.33h1.35C100.2,870.36,99.27,870.25,98.29,870.19z" class="color4a7c24 svgShape"/><rect width="469.88" height="180.77" x="655.96" y="682.78" fill="#ffffff" transform="rotate(-180 890.896 773.16)" class="colorfff svgShape"/><rect width="460.56" height="9.09" x="655.96" y="682.78" fill="#eae4e1" transform="rotate(-180 886.239 687.32)" class="colore1e7ea svgShape"/><rect width="469.88" height="170.14" x="655.96" y="500.44" fill="#ffffff" transform="rotate(-180 890.896 585.505)" class="colorfff svgShape"/><rect width="480.81" height="15.59" x="655.96" y="484.85" fill="#dd7b40" transform="rotate(-180 896.362 492.64)" class="colordd4040 svgShape"/><polygon fill="#eae4e1" points="1125.83 870.54 1125.83 500.44 729.93 500.44 729.93 507.56 1117.37 508.91 1115.65 870.54" class="colore1e7ea svgShape"/><rect width="480.81" height="15.59" x="655.96" y="670.57" fill="#dd7b40" transform="rotate(-180 896.362 678.37)" class="colordd4040 svgShape"/><rect width="480.81" height="9.77" x="655.96" y="860.77" fill="#474646" transform="rotate(-180 896.362 865.653)" class="color474646 svgShape"/><rect width="229.19" height="196.64" x="253.17" y="664.97" fill="#ffffff" class="colorfff svgShape"/><rect width="196.67" height="8.37" x="253.17" y="664.97" fill="#eae4e1" class="colore1e7ea svgShape"/><rect width="237.46" height="9.88" x="243.27" y="860.66" fill="#474646" class="color474646 svgShape"/><rect width="369.7" height="14.1" x="243.27" y="651.61" fill="#dd7b40" class="colordd4040 svgShape"/><rect width="229.19" height="186.27" x="253.17" y="465.34" fill="#ffffff" class="colorfff svgShape"/><rect width="237.46" height="17.07" x="243.27" y="448.27" fill="#dd7b40" class="colordd4040 svgShape"/><rect width="271.01" height="449.66" x="458.92" y="413.89" fill="#ffffff" class="colorfff svgShape"/><polygon fill="#eae4e1" points="458.92 413.89 458.92 421.44 720.88 421.44 720.88 863.55 729.93 863.55 729.93 413.89" class="colore1e7ea svgShape"/><rect width="272.11" height="9.88" x="457.82" y="860.66" fill="#474646" class="color474646 svgShape"/><rect width="40.79" height="135.46" x="284.23" y="692.32" fill="#5e4d43" class="color434e5e svgShape"/><rect width="130.37" height="36.36" x="239.45" y="741.87" fill="#ffcdb0" transform="rotate(90 304.628 760.05)" class="colorb0e3ff svgShape"/><rect width="125.27" height="134.45" x="532.16" y="532.24" fill="#5e4d43" class="color434e5e svgShape"/><rect width="130.37" height="120.97" x="529.61" y="538.99" fill="#ffcdb0" transform="rotate(90 594.796 599.47)" class="colorb0e3ff svgShape"/><rect width="2.69" height="132.59" x="553.61" y="532.8" fill="#5e4d43" class="color434e5e svgShape"/><rect width="2.69" height="132.59" x="632.27" y="532.8" fill="#5e4d43" class="color434e5e svgShape"/><rect width="181.77" height="141.62" x="502.99" y="728.92" fill="#5e4d43" class="color434e5e svgShape"/><rect width="134.45" height="174.37" x="526.65" y="712.54" fill="#ffcdb0" transform="rotate(90 593.875 799.728)" class="colorb0e3ff svgShape"/><polygon fill="#aca9a7" points="541.66 866.95 579.21 732.32 589.24 732.5 552.17 866.95" class="colora7a9ac svgShape"/><polygon fill="#aca9a7" points="530.12 866.95 567.67 732.32 570.65 732.5 533.58 866.95" class="colora7a9ac svgShape"/><rect width="2.34" height="134.82" x="592.7" y="732.32" fill="#5e4d43" class="color434e5e svgShape"/><rect width="2.14" height="134.82" x="654.29" y="732.32" fill="#5e4d43" class="color434e5e svgShape"/><rect width="2.14" height="134.82" x="531.1" y="732.32" fill="#5e4d43" class="color434e5e svgShape"/><rect width="1.13" height="21.35" x="586.16" y="789.05" fill="#5e4d43" class="color434e5e svgShape"/><rect width="1.13" height="21.35" x="600.28" y="789.05" fill="#5e4d43" class="color434e5e svgShape"/><path fill="#d17742" d="M529.6 498.75v-25.78h5.21v10.15h10.2v-10.15h5.21v25.78h-5.21v-11.27h-10.2v11.27H529.6zM554.54 486.02c0-2.63.39-4.83 1.18-6.61.59-1.31 1.39-2.49 2.4-3.53 1.01-1.04 2.13-1.82 3.33-2.32 1.61-.68 3.46-1.02 5.56-1.02 3.8 0 6.84 1.18 9.12 3.53 2.28 2.36 3.42 5.63 3.42 9.83 0 4.16-1.13 7.42-3.39 9.77-2.26 2.35-5.29 3.53-9.07 3.53-3.83 0-6.88-1.17-9.14-3.51C555.67 493.34 554.54 490.12 554.54 486.02zM559.9 485.84c0 2.92.67 5.13 2.02 6.64 1.35 1.51 3.06 2.26 5.13 2.26 2.07 0 3.78-.75 5.11-2.24 1.33-1.5 2-3.74 2-6.73 0-2.95-.65-5.16-1.94-6.61-1.3-1.45-3.02-2.18-5.16-2.18s-3.87.74-5.19 2.21C560.56 480.66 559.9 482.87 559.9 485.84zM582.29 490.36l5.06-.49c.3 1.7.92 2.95 1.86 3.75s2.19 1.2 3.77 1.2c1.68 0 2.94-.36 3.79-1.06.85-.71 1.27-1.54 1.27-2.49 0-.61-.18-1.13-.54-1.56-.36-.43-.98-.8-1.87-1.12-.61-.21-2-.59-4.17-1.13-2.79-.69-4.75-1.54-5.87-2.55-1.58-1.42-2.37-3.15-2.37-5.19 0-1.31.37-2.54 1.12-3.68.74-1.14 1.82-2.01 3.22-2.61 1.4-.6 3.09-.9 5.07-.9 3.24 0 5.67.71 7.31 2.13 1.64 1.42 2.49 3.31 2.58 5.68l-5.21.23c-.22-1.32-.7-2.28-1.43-2.86-.73-.58-1.83-.87-3.3-.87-1.51 0-2.7.31-3.55.93-.55.4-.83.93-.83 1.6 0 .61.26 1.13.77 1.56.66.55 2.25 1.13 4.78 1.72 2.53.6 4.41 1.22 5.62 1.86 1.21.64 2.16 1.51 2.85 2.62.69 1.11 1.03 2.48 1.03 4.11 0 1.48-.41 2.86-1.23 4.15-.82 1.29-1.98 2.25-3.48 2.87-1.5.63-3.37.94-5.61.94-3.26 0-5.76-.75-7.51-2.26C583.67 495.44 582.63 493.24 582.29 490.36zM607.63 498.75v-25.78h8.35c3.17 0 5.23.13 6.19.39 1.48.39 2.71 1.23 3.71 2.52s1.49 2.97 1.49 5.02c0 1.58-.29 2.91-.86 3.99-.57 1.08-1.3 1.93-2.19 2.54-.89.62-1.78 1.02-2.7 1.22-1.24.25-3.04.37-5.4.37h-3.39v9.72H607.63zM612.83 477.33v7.32h2.85c2.05 0 3.42-.13 4.11-.4.69-.27 1.23-.69 1.63-1.27.39-.57.59-1.24.59-2.01 0-.94-.28-1.71-.83-2.32-.55-.61-1.25-.99-2.09-1.14-.62-.12-1.87-.18-3.75-.18H612.83zM631.49 498.75v-25.78h5.21v25.78H631.49zM647.46 498.75v-21.42h-7.65v-4.36h20.49v4.36h-7.63v21.42H647.46zM684.23 498.75h-5.66l-2.25-5.86h-10.3l-2.13 5.86h-5.52l10.04-25.78h5.5L684.23 498.75zM674.64 488.55l-3.55-9.57-3.48 9.57H674.64zM687.13 498.75v-25.57h5.21v21.23h12.94v4.34H687.13z" class="colord14242 svgShape"/><polygon fill="#eae4e1" points="253.17 465.34 458.92 465.34 458.92 870.54 450.47 870.54 449.23 473.02 253.17 473.02" class="colore1e7ea svgShape"/><polygon fill="#aca9a7" points="559.05 664.65 595.41 534.29 605.51 534.29 569.56 664.65" class="colora7a9ac svgShape"/><polygon fill="#aca9a7" points="580.82 664.65 617.18 534.29 627.28 534.29 591.33 664.65" class="colora7a9ac svgShape"/><polygon fill="#aca9a7" points="602.54 866.95 640.1 732.32 650.13 732.5 613.06 866.95" class="colora7a9ac svgShape"/><polygon fill="#aca9a7" points="286.45 825.23 322.81 694.87 322.81 731.48 296.96 825.23" class="colora7a9ac svgShape"/><rect width="40.79" height="135.46" x="377.12" y="692.32" fill="#5e4d43" class="color434e5e svgShape"/><rect width="130.37" height="36.36" x="332.33" y="741.87" fill="#ffcdb0" transform="rotate(90 397.517 760.05)" class="colorb0e3ff svgShape"/><polygon fill="#aca9a7" points="379.33 825.23 415.7 694.87 415.7 731.48 389.85 825.23" class="colora7a9ac svgShape"/><rect width="40.79" height="135.46" x="284.23" y="490.75" fill="#5e4d43" class="color434e5e svgShape"/><rect width="130.37" height="36.36" x="239.45" y="540.3" fill="#ffcdb0" transform="rotate(90 304.628 558.478)" class="colorb0e3ff svgShape"/><polygon fill="#aca9a7" points="286.45 623.66 322.81 493.3 322.81 529.91 296.96 623.66" class="colora7a9ac svgShape"/><rect width="40.79" height="135.46" x="377.12" y="490.75" fill="#5e4d43" class="color434e5e svgShape"/><rect width="130.37" height="36.36" x="332.33" y="540.3" fill="#ffcdb0" transform="rotate(90 397.516 558.478)" class="colorb0e3ff svgShape"/><polygon fill="#aca9a7" points="379.33 623.66 415.7 493.3 415.7 529.91 389.85 623.66" class="colora7a9ac svgShape"/><rect width="40.79" height="135.46" x="475.71" y="532.48" fill="#5e4d43" class="color434e5e svgShape"/><rect width="130.37" height="36.36" x="430.92" y="582.03" fill="#ffcdb0" transform="rotate(90 496.106 600.212)" class="colorb0e3ff svgShape"/><polygon fill="#aca9a7" points="477.92 665.39 514.29 535.03 514.29 571.64 488.44 665.39" class="colora7a9ac svgShape"/><rect width="40.79" height="135.46" x="673.29" y="532.48" fill="#5e4d43" class="color434e5e svgShape"/><rect width="130.37" height="36.36" x="628.5" y="582.03" fill="#ffcdb0" transform="rotate(90 693.682 600.212)" class="colorb0e3ff svgShape"/><polygon fill="#aca9a7" points="675.5 665.39 711.86 535.03 711.86 571.64 686.01 665.39" class="colora7a9ac svgShape"/><rect width="205.05" height="6.1" x="491.35" y="723" fill="#5e4d43" class="color434e5e svgShape"/><polygon fill="#eae4e1" points="696.4 729.1 491.35 729.1 502.99 737.8 684.76 737.8 684.76 870.54 696.4 870.54" class="colore1e7ea svgShape"/><rect width="289.18" height="17.07" x="449.27" y="396.45" fill="#dd7b40" class="colordd4040 svgShape"/><rect width="289.18" height="17.07" x="449.85" y="694.47" fill="#dd7b40" class="colordd4040 svgShape"/><circle cx="497.28" cy="486.58" r="19.35" fill="#ffbf66" class="colorffd85a svgShape"/><rect width="5.46" height="22.31" x="494.55" y="475.43" fill="#ff6103" class="colorc18e00 svgShape"/><rect width="5.46" height="22.31" x="494.55" y="475.43" fill="#ff6103" transform="rotate(-90 497.278 486.583)" class="colorc18e00 svgShape"/><rect width="346.04" height="50.14" x="754.86" y="527.15" fill="#5e4d43" class="color434e5e svgShape"/><rect width="341.72" height="46.15" x="757.03" y="529.14" fill="#ffcdb0" class="colorb0e3ff svgShape"/><polygon fill="#aca9a7" points="913.21 529.14 898.19 575.29 867.26 575.29 882.29 529.14" class="colora7a9ac svgShape"/><polygon fill="#aca9a7" points="1073.58 529.14 1058.54 575.29 1027.62 575.29 1042.66 529.14" class="colora7a9ac svgShape"/><polygon fill="#aca9a7" points="944.35 529.14 929.33 575.29 918.96 575.29 934 529.14" class="colora7a9ac svgShape"/><rect width="2.43" height="47.05" x="1047.27" y="529.14" fill="#5e4d43" class="color434e5e svgShape"/><rect width="2.43" height="47.05" x="929.6" y="529.14" fill="#5e4d43" class="color434e5e svgShape"/><rect width="2.43" height="47.05" x="808.69" y="529.14" fill="#5e4d43" class="color434e5e svgShape"/><g><rect width="346.04" height="50.14" x="754.86" y="599.1" fill="#5e4d43" class="color434e5e svgShape"/><rect width="341.72" height="46.14" x="757.03" y="601.1" fill="#ffcdb0" class="colorb0e3ff svgShape"/><polygon fill="#aca9a7" points="889.78 601.1 874.76 647.24 843.84 647.24 858.87 601.1" class="colora7a9ac svgShape"/><polygon fill="#aca9a7" points="1050.15 601.1 1035.12 647.24 1004.21 647.24 1019.23 601.1" class="colora7a9ac svgShape"/><polygon fill="#aca9a7" points="920.93 601.1 905.9 647.24 895.55 647.24 910.57 601.1" class="colora7a9ac svgShape"/><rect width="2.43" height="47.05" x="1047.27" y="601.09" fill="#5e4d43" class="color434e5e svgShape"/><rect width="2.43" height="47.05" x="929.6" y="601.09" fill="#5e4d43" class="color434e5e svgShape"/><rect width="2.43" height="47.05" x="808.69" y="601.09" fill="#5e4d43" class="color434e5e svgShape"/></g><g><rect width="346.04" height="50.14" x="754.86" y="711.54" fill="#5e4d43" class="color434e5e svgShape"/><rect width="341.72" height="46.15" x="757.03" y="713.53" fill="#ffcdb0" class="colorb0e3ff svgShape"/><polygon fill="#aca9a7" points="853.18 713.53 838.16 759.69 807.23 759.69 822.25 713.53" class="colora7a9ac svgShape"/><polygon fill="#aca9a7" points="1013.53 713.53 998.51 759.69 967.59 759.69 982.62 713.53" class="colora7a9ac svgShape"/><polygon fill="#aca9a7" points="884.32 713.53 869.29 759.69 858.93 759.69 873.96 713.53" class="colora7a9ac svgShape"/><rect width="2.43" height="47.05" x="1047.27" y="713.53" fill="#5e4d43" class="color434e5e svgShape"/><rect width="2.43" height="47.05" x="929.6" y="713.53" fill="#5e4d43" class="color434e5e svgShape"/><rect width="2.43" height="47.05" x="808.69" y="713.53" fill="#5e4d43" class="color434e5e svgShape"/></g><g><rect width="346.04" height="50.14" x="754.86" y="783.49" fill="#5e4d43" class="color434e5e svgShape"/><rect width="341.72" height="46.15" x="757.03" y="785.48" fill="#ffcdb0" class="colorb0e3ff svgShape"/><polygon fill="#aca9a7" points="829.76 785.48 814.74 831.63 783.81 831.63 798.84 785.48" class="colora7a9ac svgShape"/><polygon fill="#aca9a7" points="990.12 785.48 975.09 831.63 944.18 831.63 959.2 785.48" class="colora7a9ac svgShape"/><polygon fill="#aca9a7" points="860.89 785.48 845.87 831.63 835.52 831.63 850.54 785.48" class="colora7a9ac svgShape"/><rect width="2.43" height="47.05" x="1047.27" y="785.48" fill="#5e4d43" class="color434e5e svgShape"/><rect width="2.43" height="47.05" x="929.6" y="785.48" fill="#5e4d43" class="color434e5e svgShape"/><rect width="2.43" height="47.05" x="808.69" y="785.48" fill="#5e4d43" class="color434e5e svgShape"/></g><rect width="68.02" height="11.12" x="482.37" y="435.78" fill="#ffbf66" class="colorffd85a svgShape"/><rect width="68.02" height="11.12" x="560.79" y="435.78" fill="#ffbf66" class="colorffd85a svgShape"/><rect width="68.02" height="11.12" x="639.21" y="435.78" fill="#ffbf66" class="colorffd85a svgShape"/><g><rect width="1249.33" height="1.96" x="57.34" y="870.54" fill="#dbcfc8" class="colorc8d2db svgShape"/><rect width="282.79" height="1.96" x="733.32" y="887.69" fill="#dbcfc8" class="colorc8d2db svgShape"/><rect width="63.58" height="1.96" x="1049.97" y="887.69" fill="#dbcfc8" class="colorc8d2db svgShape"/></g><g><path fill="#ffffff" d="M176.87,851.44h220.73c8.44,0,15.28-0.83,15.28-7.66v-38.32c0-5.9-3.12-11.96-8.73-13.8    c-3.88-1.28-12.13-1.93-16.04-3.13c-4.83-1.48-7.21-6.57-8.54-11.44c-10.86-39.56-12.01-46.54-23.71-46.75l-179.15-0.17    c-8.38,0.08-15.12,6.9-15.12,15.28v98.34C161.6,850.91,168.44,851.44,176.87,851.44z" class="colorfff svgShape"/><path fill="#f2ece9" d="M170.03,731.78v97.58c0,7.14,6.84,7.66,15.28,7.66h220.73c2.46,0,4.79-0.07,6.85-0.34v7.09    c0,6.83-6.84,7.66-15.28,7.66H176.87c-8.44,0-15.28-0.52-15.28-7.66v-98.34C161.6,739.47,165.02,734.29,170.03,731.78z" class="colore9eef2 svgShape"/><path fill="#5e4d43" d="M371.64,786.24l-12.57-46.48c-0.21-0.76-0.89-1.29-1.68-1.29h-40.16c-0.96,0-1.74,0.78-1.74,1.74v46.48     c0,0.96,0.78,1.74,1.74,1.74h52.73C371.1,788.43,371.94,787.34,371.64,786.24z" class="color434e5e svgShape"/><path fill="#ffcdb0" d="M368.65,783.95l-11.33-41.91c-0.21-0.76-0.89-1.29-1.68-1.29h-36.12c-0.96,0-1.74,0.78-1.74,1.74v41.91     c0,0.96,0.78,1.74,1.74,1.74h47.46C368.12,786.15,368.95,785.06,368.65,783.95z" class="colorb0e3ff svgShape"/><path fill="#5e4d43" d="M250.84,788.43h49c2.38,0,4.3-1.93,4.3-4.3v-41.36c0-2.38-1.93-4.3-4.3-4.3h-49c-2.38,0-4.3,1.93-4.3,4.3     v41.36C246.54,786.51,248.46,788.43,250.84,788.43z" class="color434e5e svgShape"/><path fill="#ffcdb0" d="M301.65,781.64v-36.39c0-2.38-1.93-4.3-4.3-4.3h-44.03c-2.38,0-4.3,1.93-4.3,4.3v36.39     c0,2.38,1.93,4.3,4.3,4.3h44.03C299.73,785.95,301.65,784.02,301.65,781.64z" class="colorb0e3ff svgShape"/><path fill="#5e4d43" d="M181.48,788.43h49c2.38,0,4.3-1.93,4.3-4.3v-41.36c0-2.38-1.93-4.3-4.3-4.3h-49c-2.38,0-4.3,1.93-4.3,4.3     v41.36C177.17,786.51,179.1,788.43,181.48,788.43z" class="color434e5e svgShape"/><path fill="#ffcdb0" d="M232.29,781.64v-36.39c0-2.38-1.93-4.3-4.3-4.3h-44.03c-2.38,0-4.3,1.93-4.3,4.3v36.39     c0,2.38,1.93,4.3,4.3,4.3h44.03C230.37,785.95,232.29,784.02,232.29,781.64z" class="colorb0e3ff svgShape"/><rect width="251.29" height="3.58" x="161.6" y="813.22" fill="#dd7b40" class="colordd4040 svgShape"/><rect width="251.29" height="3.59" x="161.6" y="805.9" fill="#dd7b40" class="colordd4040 svgShape"/><path fill="#5e4d43" d="M159.93 843.77h253.03c2.12 0 3.83 1.72 3.83 3.83l0 0c0 2.12-1.72 3.83-3.83 3.83H159.93c-2.12 0-3.83-1.72-3.83-3.83l0 0C156.1 845.49 157.81 843.77 159.93 843.77zM405.92 824.72v9.8c0 2.29 1.86 4.16 4.15 4.16h2.81v-18.12h-2.81C407.78 820.56 405.92 822.43 405.92 824.72z" class="color434e5e svgShape"/><path fill="#ffbf66" d="M410.08,821.85h2.81v15.55h-2.81c-1.59,0-2.88-1.29-2.88-2.88v-9.8    C407.2,823.14,408.49,821.85,410.08,821.85z" class="colorffd85a svgShape"/><path fill="#5e4d43" d="M161.6,819.02v11.97h4.01c1.63,0,2.96-1.33,2.96-2.96v-6.05c0-1.63-1.33-2.96-2.96-2.96H161.6z" class="color434e5e svgShape"/><path fill="#ffbf66" d="M165.6,820.3c0.93,0,1.68,0.75,1.68,1.68v6.05c0,0.93-0.75,1.68-1.68,1.68h-4.01v-9.4H165.6z" class="colorffd85a svgShape"/><path fill="#5e4d43" d="M161.6,832.12v9.82h4.01c1.63,0,2.96-1.33,2.96-2.96v-3.9c0-1.63-1.33-2.96-2.96-2.96H161.6z" class="color434e5e svgShape"/><path fill="#dd7b40" d="M165.6,833.4c0.93,0,1.68,0.75,1.68,1.68v3.9c0,0.93-0.75,1.68-1.68,1.68h-4.01v-7.25H165.6z" class="colordd4040 svgShape"/><circle cx="275.34" cy="815.01" r="18.47" fill="#dd7b40" transform="rotate(-9.213 275.379 814.9)" class="colordd4040 svgShape"/><circle cx="275.34" cy="815.01" r="16.63" fill="#ffffff" transform="rotate(-9.213 275.379 814.9)" class="colorfff svgShape"/><rect width="5.89" height="22.68" x="272.39" y="803.67" fill="#c9855d" transform="rotate(-180 275.338 815.01)" class="color5d8ec9 svgShape"/><rect width="5.48" height="22.68" x="272.6" y="803.67" fill="#c9855d" transform="rotate(-90 275.338 815.01)" class="color5d8ec9 svgShape"/><path fill="#5e4d43" d="M318.14 796.68h9.33c.83 0 1.51-.67 1.51-1.51v-.53c0-.83-.67-1.51-1.51-1.51h-9.33c-.83 0-1.51.67-1.51 1.51v.53C316.63 796 317.3 796.68 318.14 796.68zM328.4 851.32v.12h48v-.12c0-13.26-10.75-24-24-24C339.14 827.32 328.4 838.06 328.4 851.32zM186.48 851.32v.12h48v-.12c0-13.26-10.75-24-24-24C197.22 827.32 186.48 838.06 186.48 851.32z" class="color434e5e svgShape"/><circle cx="352.4" cy="851.32" r="19.22" fill="#42352d" class="color2d3742 svgShape"/><circle cx="352.4" cy="851.32" r="12.22" fill="#7a695f" class="color5f6b7a svgShape"/><circle cx="352.4" cy="851.32" r="8.52" fill="#ffffff" class="colorfff svgShape"/><circle cx="352.4" cy="851.32" r="3.17" fill="#42352d" class="color2d3742 svgShape"/><circle cx="359.3" cy="851.32" r="1.11" fill="#42352d" class="color2d3742 svgShape"/><circle cx="345.45" cy="851.32" r="1.11" fill="#42352d" class="color2d3742 svgShape"/><circle cx="352.4" cy="844.74" r="1.11" fill="#42352d" class="color2d3742 svgShape"/><circle cx="352.4" cy="857.9" r="1.11" fill="#42352d" class="color2d3742 svgShape"/><circle cx="210.48" cy="851.32" r="19.22" fill="#42352d" class="color2d3742 svgShape"/><circle cx="210.48" cy="851.32" r="12.22" fill="#7a695f" class="color5f6b7a svgShape"/><circle cx="210.48" cy="851.32" r="8.52" fill="#ffffff" class="colorfff svgShape"/><circle cx="210.48" cy="851.32" r="3.17" fill="#42352d" class="color2d3742 svgShape"/><circle cx="217.38" cy="851.32" r="1.11" fill="#42352d" class="color2d3742 svgShape"/><circle cx="203.54" cy="851.32" r="1.11" fill="#42352d" class="color2d3742 svgShape"/><circle cx="210.48" cy="844.74" r="1.11" fill="#42352d" class="color2d3742 svgShape"/><circle cx="210.48" cy="857.9" r="1.11" fill="#42352d" class="color2d3742 svgShape"/><polygon fill="#b3b3b3" points="331.62 786.15 336.68 740.75 342.05 740.75 338.23 786.15" class="colorb3b3b3 svgShape"/><polygon fill="#b3b3b3" points="341.35 786.15 346.41 740.75 351.78 740.75 347.96 786.15" class="colorb3b3b3 svgShape"/><polygon fill="#b3b3b3" points="289.64 785.95 297.38 740.95 290.68 740.95 281.8 786.15" class="colorb3b3b3 svgShape"/><polygon fill="#b3b3b3" points="271.52 785.95 279.26 740.95 272.56 740.95 263.68 786.15" class="colorb3b3b3 svgShape"/><polygon fill="#b3b3b3" points="216.42 785.95 224.16 740.95 217.46 740.95 208.58 786.15" class="colorb3b3b3 svgShape"/><polygon fill="#b3b3b3" points="198.3 785.95 206.04 740.95 199.34 740.95 190.46 786.15" class="colorb3b3b3 svgShape"/><g fill="none"><path fill="#dd7b40" d="M329.46,728.35h15.84l-1.06-5.24c-0.35-1.72-1.33-2.88-2.44-2.88h-9.31c-1.25,0-2.31,1.46-2.53,3.47     L329.46,728.35z" class="colordd4040 svgShape"/><path fill="#e6e6e6" d="M329.96,723.69c0.18-1.71,0.99-3.02,2-3.37c-0.37,0.59-0.64,1.37-0.74,2.25l-0.09,0.82     c-0.22,2.05,1.38,3.83,3.44,3.83h10.49l0.23,1.12h-15.84L329.96,723.69z" class="colore6e6e6 svgShape"/><path fill="#5e4d43" d="M329.25,728.35h16.26c0.54,0,0.99,0.44,0.99,0.99c0,0.54-0.44,0.99-0.99,0.99h-16.26     c-0.54,0-0.99-0.44-0.99-0.99C328.27,728.79,328.71,728.35,329.25,728.35z" class="color434e5e svgShape"/></g><rect width="1.03" height="113.49" x="309.12" y="730.29" fill="#ede6e2" transform="rotate(-180 309.633 787.03)" class="colore2e6ed svgShape"/><rect width="1.03" height="113.49" x="240.3" y="730.29" fill="#ede6e2" transform="rotate(-180 240.817 787.03)" class="colore2e6ed svgShape"/></g><g><rect width="2.08" height="36.65" x="829.35" y="448.07" fill="#5e4d43" class="color434e5e svgShape"/><rect width="2.08" height="36.65" x="906.89" y="448.07" fill="#5e4d43" class="color434e5e svgShape"/><path fill="#5e4d43" d="M931.24,484.91H810.61c-0.79,0-1.43-0.64-1.43-1.43v-0.29c0-0.79,0.64-1.43,1.43-1.43h120.64    c0.79,0,1.43,0.64,1.43,1.43v0.29C932.67,484.27,932.03,484.91,931.24,484.91z" class="color434e5e svgShape"/><path fill="#dd7b40" d="M978.28,410.73l116.47-21.44V374.4l-134.54-3.24l-110.44-0.81c0,0-32.87,5.32-54.65,34.95    c-11.67,15.87-17.64,29.35-12.02,42.2c5.62,12.85,53.41,11.65,53.41,11.65s65.45,0.4,76.1-4.42    C923.26,449.91,948.16,447.45,978.28,410.73z" class="colordd4040 svgShape"/><path fill="#ffbf66" d="M1028.74,372.81c-0.42,0.49-0.86,0.96-1.31,1.43c-1.71,1.75-3.59,3.33-5.59,4.73    c-1.99,1.4-4.1,2.64-6.26,3.76c-2.17,1.11-4.41,2.06-6.69,2.92c-4.56,1.71-9.29,2.89-14.06,3.76c-4.78,0.85-9.61,1.38-14.45,1.6    c-4.85,0.21-9.69,0.26-14.53,0.01c-2.42-0.07-4.84-0.31-7.25-0.45l-3.61-0.26l-3.61-0.19c-9.6-0.42-19.3-0.07-28.69,2    c-4.7,1.01-9.28,2.48-13.71,4.34c-4.43,1.85-8.66,4.15-12.76,6.67c-8.16,5.1-15.73,11.11-23.26,17.14    c-1.89,1.51-3.75,3.04-5.66,4.54c-1.92,1.49-3.91,2.89-5.99,4.16c-4.15,2.54-8.65,4.56-13.35,5.88c-4.7,1.34-9.55,1.98-14.41,2.23    c-3.76,0.19-7.54,0.12-11.29-0.07c-2.73,0.37-5.47,0.64-8.22,0.78c-5.79,0.31-11.59,0.13-17.35-0.45c-2.87-0.3-5.74-0.69-8.6-1.21    c-1.43-0.26-2.86-0.54-4.28-0.86l-2.15-0.51c-0.2-0.05-0.39-0.1-0.58-0.14c0.31-3.03,1.09-6.11,2.3-9.28    c0.23,0.07,0.48,0.14,0.71,0.21l1.9,0.5c1.28,0.31,2.57,0.61,3.87,0.88c2.6,0.54,5.23,0.98,7.88,1.33    c5.29,0.69,10.63,1,15.94,0.87c10.62-0.26,21.18-2.37,30.71-6.8c4.76-2.22,9.24-5.02,13.32-8.34c1.98-1.62,4.08-3.57,6.2-5.39    c2.11-1.85,4.25-3.67,6.42-5.47c4.36-3.57,8.83-7.07,13.62-10.2c4.76-3.15,9.83-5.97,15.17-8.17c5.33-2.23,10.95-3.81,16.61-4.75    c2.83-0.51,5.69-0.78,8.54-1.01c2.85-0.17,5.7-0.29,8.54-0.23c5.67,0.06,11.31,0.5,16.89,1.21l8.26,1.07    c1.36,0.19,2.73,0.29,4.1,0.43l2.05,0.2l2.06,0.14c10.93,0.76,22,0.4,32.61-2.12c5.29-1.26,10.44-3.14,15.17-5.75    c0.81-0.45,1.61-0.93,2.39-1.44l4.28,0.1c-1.68,1.36-3.46,2.59-5.3,3.69c-4.92,2.9-10.27,5-15.75,6.46    c-10.98,2.93-22.39,3.59-33.62,3.12l-2.11-0.09l-2.11-0.14c-1.4-0.12-2.81-0.17-4.2-0.33l-8.31-0.85    c-5.47-0.54-10.94-0.82-16.38-0.72c-10.88,0.12-21.63,2.02-31.37,6.42c-9.78,4.34-18.46,10.96-26.71,18.15    c-2.06,1.82-4.1,3.65-6.13,5.52c-2.04,1.86-3.95,3.76-6.23,5.72c-4.43,3.82-9.37,7.1-14.61,9.73c-6.42,3.21-13.26,5.44-20.24,6.83    c6.81,0.08,13.61-0.44,20.14-2.29c4.61-1.29,9.02-3.25,13.09-5.75c2.05-1.25,4.01-2.63,5.9-4.1c1.88-1.48,3.76-3.02,5.65-4.52    c7.54-6.04,15.13-12.06,23.37-17.21c4.13-2.53,8.41-4.86,12.9-6.74c4.48-1.88,9.13-3.37,13.89-4.38c9.5-2.1,19.29-2.44,28.96-2.01    l3.62,0.2l3.62,0.27c2.4,0.14,4.81,0.38,7.21,0.45c4.81,0.26,9.64,0.21,14.44,0c4.81-0.21,9.59-0.73,14.32-1.59    c4.72-0.85,9.4-2.02,13.9-3.71c2.25-0.84,4.45-1.79,6.59-2.87c2.12-1.1,4.19-2.32,6.14-3.69c1.96-1.38,3.8-2.91,5.46-4.62    c0.25-0.26,0.5-0.52,0.74-0.78L1028.74,372.81z" class="colorffd85a svgShape"/><polygon fill="#ffffff" points="960.21 367.06 849.98 367.06 849.77 370.35 960.21 371.17" class="colorfff svgShape"/><path fill="#dd7b40" d="M948.18,353.94H862c-6.64,0-12.03,5.39-12.03,12.03v1.22h110.24v-1.22    C960.21,359.33,954.82,353.94,948.18,353.94z" class="colordd4040 svgShape"/><path fill="#d4d2d1" d="M953.82,354.62c1.56,1.76,2.51,4.07,2.51,6.6c0,1.81-1.47,3.28-3.28,3.28H849.97v2.69h110.24v-3.28    C960.21,359.68,957.56,356.06,953.82,354.62z" class="colord1d3d4 svgShape"/><path fill="#ffffff" d="M786.31 440.34l30.78 1.73c0 0-3.42 6.82 4.44 12.77 0 0-24.54.88-32.6-7.23C787.08 445.76 786.21 443.25 786.31 440.34zM828.29 455.04c0 0-1.01.04-2.68.02-7.02-5.63-4.73-11.95-4.32-12.94l2.55.14C823.85 442.27 820.43 449.09 828.29 455.04zM835.2 455.25c0 0-1.01.04-2.68.02-7.02-5.63-4.73-11.95-4.32-12.94l2.55.14C830.75 442.47 827.34 449.29 835.2 455.25zM842.1 455.45c0 0-1.01.04-2.68.02-7.02-5.63-4.73-11.95-4.32-12.94l2.55.14C837.66 442.68 834.24 449.5 842.1 455.45zM849.01 455.66c0 0-1.01.04-2.68.02-7.02-5.63-4.73-11.95-4.32-12.94l2.55.14C844.56 442.88 841.15 449.7 849.01 455.66z" class="colorfff svgShape"/><path fill="#5e4d43" d="M796.01,420.06c0,0,4.38-20.2,31.76-34.01c5.08-2.56,10.7-3.86,16.39-3.86h2.79l-0.4,37.87H796.01z" class="color434e5e svgShape"/><path fill="#ffcdb0" d="M797.31,419.09c1.82-5.21,8.92-20.86,31.28-32.14c4.94-2.49,10.52-3.81,16.16-3.81h1.39l-0.38,35.94H797.31z     " class="colorb0e3ff svgShape"/><path fill="#ffb58a" d="M896.41,375.47h-42.48c-1.74,0-3.16,1.42-3.16,3.16v65.81c0,1.74,1.42,3.16,3.16,3.16h42.48    c1.74,0,3.16-1.42,3.16-3.16v-65.81C899.57,376.89,898.15,375.47,896.41,375.47z M898.84,444.44c0,1.34-1.09,2.43-2.43,2.43    h-42.48c-1.34,0-2.43-1.09-2.43-2.43v-65.81c0-1.34,1.09-2.43,2.43-2.43h42.48c1.34,0,2.44,1.09,2.44,2.44V444.44z" class="colord3c5c5 svgShape"/><path fill="#5e4d43" d="M892.12,419.35h-34.28c-1.3,0-2.34-1.05-2.34-2.34v-32.55c0-1.3,1.05-2.34,2.34-2.34h34.28     c1.3,0,2.34,1.05,2.34,2.34V417C894.47,418.3,893.42,419.35,892.12,419.35z" class="color434e5e svgShape"/><path fill="#ffcdb0" d="M856.23,416.36V385.1c0-1.3,1.05-2.34,2.34-2.34h32.81c1.3,0,2.34,1.05,2.34,2.34v31.25     c0,1.3-1.05,2.34-2.34,2.34h-32.81C857.28,418.7,856.23,417.65,856.23,416.36z" class="colorb0e3ff svgShape"/><rect width="10.39" height="13.55" x="976.85" y="376.89" fill="none" stroke="none" stroke-miterlimit="10"/><rect width="10.39" height="13.55" x="995.1" y="376.89" fill="none" stroke="none" stroke-miterlimit="10"/><rect width="10.39" height="13.55" x="1013.34" y="376.89" fill="none" stroke="none" stroke-miterlimit="10"/><rect width="5.62" height="1.41" x="888.02" y="424.11" fill="#5e4d43" class="color434e5e svgShape"/><polygon fill="#5e4d43" points="888.02 354.08 890.83 344.44 918.14 344.44 922.16 354.08" class="color434e5e svgShape"/><rect width="4.44" height="17.54" x="901.41" y="328.17" fill="#5e4d43" class="color434e5e svgShape"/><path fill="#5e4d43" d="M907.88,328.17h-8.5v-1.83c0-2.13,1.73-3.86,3.86-3.86h0.78c2.13,0,3.86,1.73,3.86,3.86V328.17z" class="color434e5e svgShape"/><polygon fill="#5e4d43" points="920 330.35 920 335.27 1030.83 334.59 1033.52 333.21" class="color434e5e svgShape"/><polygon fill="#5e4d43" points="888.85 330.35 888.85 335.27 778.02 334.59 775.33 333.21" class="color434e5e svgShape"/><rect width="35.54" height="1.34" x="885.99" y="332.23" fill="#5e4d43" class="color434e5e svgShape"/><polygon fill="#dd7b40" points="1071.94 373.82 1094.75 374.64 1112.04 333.72 1102.8 333.72" class="colordd4040 svgShape"/><polygon fill="#b55d28" points="1081.34 391.75 1094.75 389.28 1099.92 420.01 1090.95 419.11" class="colorb52f28 svgShape"/><circle cx="1091.99" cy="382.13" r="25.62" fill="#adacac" class="coloradacac svgShape"/><polygon fill="#5e4d43" points="1088.93 382.61 1107.42 366.68 1108.9 372.65" class="color434e5e svgShape"/><polygon fill="#5e4d43" points="1091.86 383.2 1072.68 368.12 1078.25 365.52" class="color434e5e svgShape"/><polygon fill="#5e4d43" points="1091.86 380.28 1076.78 399.46 1074.18 393.89" class="color434e5e svgShape"/><polygon fill="#5e4d43" points="1089.71 381.03 1108.9 396.11 1103.33 398.71" class="color434e5e svgShape"/><polygon fill="#5e4d43" points="1091.27 381.47 1115.6 383.41 1112.4 388.66" class="color434e5e svgShape"/><polygon fill="#5e4d43" points="1089.65 383.97 1091.6 359.65 1096.84 362.85" class="color434e5e svgShape"/><polygon fill="#5e4d43" points="1092.7 383.09 1068.37 381.15 1071.57 375.9" class="color434e5e svgShape"/><polygon fill="#5e4d43" points="1091.86 380.28 1089.92 404.6 1084.67 401.4" class="color434e5e svgShape"/><circle cx="1090.63" cy="382.13" r="2.78" fill="#b55d28" class="colorb52f28 svgShape"/><path fill="#5e4d43" d="M1089.92 411.67L1089.92 411.67c-15.55 0-28.2-13.25-28.2-29.54 0-16.29 12.65-29.54 28.2-29.54h0v-.69c-15.94 0-28.85 13.53-28.85 30.23 0 16.69 12.92 30.23 28.85 30.23V411.67zM1094.05 411.27L1094.05 411.27c15.55 0 28.2-13.25 28.2-29.54s-12.65-29.54-28.2-29.54h0v-.69c15.94 0 28.85 13.53 28.85 30.23 0 16.69-12.92 30.23-28.85 30.23V411.27z" class="color434e5e svgShape"/><path fill="#d4d2d1" d="M978.28 410.73l104.23-19.19-4.48-1.09-105 12.98c0 0-24.95 32.96-65.15 43.85-47.83 12.96-117 1.93-126.66-6.33 0 0 .98 6.76 4.29 9.75 6.17 5.57 24.65 8.48 47.92 8.48 23.4 0 51.78-.2 71.99-2.82 11.92-1.54 36.82-13.04 43.97-18.38C968.14 423.96 978.28 410.73 978.28 410.73zM922.16 354.08l-4.02-9.64c0 0-4.04 11.95-29.13 6.23l-.99 3.41H922.16z" class="colord1d3d4 svgShape"/><rect width="1.09" height="16.25" x="904.76" y="328.17" fill="#d4d2d1" class="colord1d3d4 svgShape"/><path fill="#989593" d="M899.91,324.87c0,0,0.45-2.07,2.34-1.95c0.97,0.06-0.84,0.37-1.42,1.19    C900.23,324.94,899.84,325.35,899.91,324.87z" class="color939598 svgShape"/><path fill="#d4d2d1" d="M823.31 419.09h6.43l16.4-35.94c0 0-3.58.04-4.5.13L823.31 419.09zM814.48 419.09l4.42 0 19.75-35.43c0 0-3.02.56-4.68 1.12L814.48 419.09z" class="colord1d3d4 svgShape"/><polygon fill="#d4d2d1" points="869.86 418.7 876.46 382.76 874.58 382.76 868.15 418.7" class="colord1d3d4 svgShape"/><polygon fill="#d4d2d1" points="867.6 382.76 860.42 418.7 864.01 418.7 871.57 382.76" class="colord1d3d4 svgShape"/><path fill="#5e4d43" d="M941.39,419.35h-34.28c-1.3,0-2.34-1.05-2.34-2.34v-32.55c0-1.3,1.05-2.34,2.34-2.34h34.28     c1.3,0,2.34,1.05,2.34,2.34V417C943.74,418.3,942.69,419.35,941.39,419.35z" class="color434e5e svgShape"/><path fill="#ffcdb0" d="M905.5,416.36V385.1c0-1.3,1.05-2.34,2.34-2.34h32.81c1.3,0,2.34,1.05,2.34,2.34v31.25     c0,1.3-1.05,2.34-2.34,2.34h-32.81C906.55,418.7,905.5,417.65,905.5,416.36z" class="colorb0e3ff svgShape"/><polygon fill="#d4d2d1" points="919.13 418.7 925.73 382.76 923.85 382.76 917.42 418.7" class="colord1d3d4 svgShape"/><polygon fill="#d4d2d1" points="916.87 382.76 909.69 418.7 913.28 418.7 920.84 382.76" class="colord1d3d4 svgShape"/></g><g><path fill="#ffffff" d="M460.98,266.44c0,0,10.8-12.97,29.36-8.01c14.97,4,14.95-8.22,24.91-6.23c14.09,2.82,18.44-8.26,24.24-6.23    c7.63,2.67,9.25,11.4,19.35,9.78c9.19-1.48,10.06-13.11,17.79-6.67c12.45,10.38,20.31-4,29.36,6.67c6.78,8,28.47,4.45,33.8,10.68    H460.98z" class="colorfff svgShape"/></g><g><path fill="#ffffff" d="M763.78,182.13c0,0,10.8-12.97,29.36-8.01c14.97,4,14.95-8.22,24.91-6.23c14.09,2.82,18.44-8.26,24.24-6.23    c7.63,2.67,9.25,11.4,19.35,9.78c9.19-1.48,10.06-13.11,17.79-6.67c12.45,10.38,20.31-4,29.36,6.67c6.78,8,28.47,4.45,33.8,10.68    H763.78z" class="colorfff svgShape"/></g></svg>