<svg xmlns="http://www.w3.org/2000/svg" data-name="Layer 1" viewBox="0 0 2501 2501"><path fill="#ffbf66" d="M1040.89 1293.36H780.18a6.52 6.52 0 0 1 0-13h260.71a6.52 6.52 0 0 1 0 13Z" class="colore09389 svgShape"/><path fill="#ffbf66" d="M495.3 2267a10.65 10.65 0 0 1-2.83-.38 10.45 10.45 0 0 1-7.23-12.87l276.83-986.3a10.44 10.44 0 1 1 20.1 5.64l-276.83 986.3a10.43 10.43 0 0 1-10.04 7.61Z" class="colore09389 svgShape"/><path fill="#ffbf66" d="M1048.94 2267a10.43 10.43 0 0 1-10-7.61l-276.83-986.3a10.44 10.44 0 0 1 20.1-5.64l276.79 986.3a10.45 10.45 0 0 1-7.23 12.87 10.59 10.59 0 0 1-2.83.38Z" class="colore09389 svgShape"/><path fill="#ffbf66" d="M759 2267a10.65 10.65 0 0 1-2.83-.38 10.44 10.44 0 0 1-7.22-12.87l276.82-986.3a10.44 10.44 0 1 1 20.1 5.64l-276.83 986.3A10.42 10.42 0 0 1 759 2267Z" class="colore09389 svgShape"/><path fill="#ffbf66" d="M1312.66 2267a10.42 10.42 0 0 1-10-7.61l-276.83-986.3a10.44 10.44 0 0 1 20.1-5.64l276.82 986.3a10.44 10.44 0 0 1-7.22 12.87 10.65 10.65 0 0 1-2.87.38Z" class="colore09389 svgShape"/><path fill="#ffbf66" d="M1099.66 1499.72H712.4a5.21 5.21 0 1 1 0-10.42h387.26a5.21 5.21 0 0 1 0 10.42ZM1155.18 1702H894.47a5.21 5.21 0 0 1 0-10.42h260.71a5.21 5.21 0 0 1 0 10.42ZM1272.43 2109.22h-260.71a5.22 5.22 0 0 1 0-10.43h260.71a5.22 5.22 0 1 1 0 10.43ZM1210.34 1906.05h-260.7a5.22 5.22 0 1 1 0-10.43h260.7a5.22 5.22 0 1 1 0 10.43Z" class="colore09389 svgShape"/><path fill="#ffbf66" d="M907.58 1702H646.87a5.21 5.21 0 1 1 0-10.42h260.71a5.21 5.21 0 1 1 0 10.42ZM797.3 2109.22H536.59a5.22 5.22 0 1 1 0-10.43H797.3a5.22 5.22 0 0 1 0 10.43ZM853.71 1906.05H593a5.22 5.22 0 1 1 0-10.43h260.7a5.22 5.22 0 1 1 0 10.43Z" class="colore09389 svgShape"/><ellipse cx="1260.23" cy="247.35" fill="#c37e56" rx="99.98" ry="139.28" class="color568dc3 svgShape"/><path fill="#c37e56" d="M1160.25 247.35c0-76.92 34.94-139.28 100-139.28 64.59 0 100 62.36 100 139.28" class="color568dc3 svgShape"/><path fill="#c37e56" d="M1354.76 228c10.34-8.27 20.41-8.08 23.44 0 4.14 11-12.41 55.17-23.44 55.17s0-55.17 0-55.17ZM1165.71 228c-10.34-8.27-20.41-8.08-23.44 0-4.14 11 12.41 55.17 23.44 55.17s0-55.17 0-55.17ZM1216.56 365c-1 50.56-.11 92.71-39.33 95.93-37.11 3 66.44 49.81 85.08 42.45s15.74-114.92 8-129.63-53.75-8.75-53.75-8.75Z" class="color568dc3 svgShape"/><path fill="#c37e56" d="M1303.91 365c1 50.56 2.85 94.1 42.07 97.31 37.11 3.05-69.18 48.43-87.82 41.07s-15.74-114.92-8-129.63 53.75-8.75 53.75-8.75Z" class="color568dc3 svgShape"/><path fill="#c37e56" d="M1181.54 460.18c-37.83 7.82-88.86-10.11-144 20.23S913.41 728.63 872 781s-122.7 219.3-150.28 256.54-53.78 92.39-62.05 135.14-8.28 75.85 8.27 77.23 68.95-120 68.95-120 2.76 35.86 11 41.37 22.07-35.85 24.83-59.3-2.76-56.54 2.76-66.19 104.8-100.67 175.13-201.34 120-211 120-211 39.07 262.48 37.23 304.77-91 422-113.08 661 14.71 538.74-9.19 599.42-148.94 160-145.26 182 68 12.87 119.52-16.55 55.16-40.45 108.48-58.83 5.52-90.1 5.52-90.1 55.16-249.43 68-364.67 1.84-168.56 29.42-262.33 85.27-285 88.94-353 36.71-711.58 15.25-757.55-34.09-16.55-50.76-11-43.14-6.43-43.14-6.43Z" class="color568dc3 svgShape"/><path fill="#c37e56" d="M1324.3 460.18c37.83 7.82 88.85-10.11 144 20.23S1592.43 728.63 1633.8 781s122.73 219.26 150.31 256.5 53.78 92.39 62.06 135.14 8.27 75.85-8.28 77.23-69-120-69-120-2.76 35.86-11 41.37-22.07-35.85-24.82-59.3 2.75-56.54-2.76-66.19-104.81-100.67-175.14-201.34-120-211-120-211S1396.14 896 1398 938.25s91 422 113.08 661-14.71 538.74 9.2 599.42 148.93 160 145.25 182-68 12.87-119.51-16.55-55.16-40.45-108.49-58.83-5.51-90.1-5.51-90.1-55.16-249.43-68-364.67-1.84-168.56-29.42-262.33-85.89-279.48-89.57-347.52-36.09-717.09-14.63-763.06 34.1-16.55 50.76-11 43.14-6.43 43.14-6.43ZM1160.25 247.35c0-76.92 34.94-139.28 100-139.28 76.54 0 100 62.36 100 139.28" class="color568dc3 svgShape"/><path fill="#c37e56" d="M1160.25 247.35c0-76.92 25.75-139.28 100-139.28 76.54 0 100 62.36 100 139.28" class="color568dc3 svgShape"/><path fill="#f1ceba" d="M1318.31 503.1c20.82-12.62 95.13 78.11 89 104s-47.9-7-59.68-19.42-38.91-78.76-29.32-84.58Z" class="colorbaddf1 svgShape"/><path fill="#fab994" d="M1227.43 679.18c7.63-35.49 10.53-125.38-24.76-128.27S1061.24 659.06 1112 736c36 54.72 106.6-15.75 115.43-56.82Z" class="colorfa9494 svgShape"/><path fill="#ffddc9" d="M1248.55 588.89c0 14.51-9.48 23.39-27.54 23.1s-26.94 2.37-29.61 6.81 0 10.07 0 10.07-5.33 3-8.88 13-2.08 29.61-11 35.83-16.88 3.55-25.17 8-12.73 13-12.73 13a27.9 27.9 0 0 1 17.47-10.07c11.55-1.78 25.76-.59 30.2-18.06s10.45-39.78 31.09-44.72 43.83-5.33 45.9-24.57-9.73-12.39-9.73-12.39Z" class="colorffc9c9 svgShape"/><path fill="#ffddc9" d="m1195.22 619.65-.35-.38-.43-.45-.27-.29-.39-.46-.88-1.12c-.26-.4-.53-.84-.83-1.31s-.51-1-.78-1.57-.44-1.19-.65-1.82a17.74 17.74 0 0 1-.63-4.13 22.21 22.21 0 0 1 .3-4.37 50.75 50.75 0 0 1 2.3-8.54c1-2.77 2-5.45 2.79-8q.61-1.9 1-3.69a24.76 24.76 0 0 0 .56-3.36 16.65 16.65 0 0 0 .06-2.88 12 12 0 0 0-.34-2.21 7.94 7.94 0 0 0-.42-1.39l-.17-.49.25.45a9.75 9.75 0 0 1 .66 1.36 13 13 0 0 1 .7 2.2 18 18 0 0 1 .4 3 25.55 25.55 0 0 1 0 3.59 52.91 52.91 0 0 1-.46 4c-.42 2.72-1 5.57-1.54 8.38a45.59 45.59 0 0 0-.9 8 17.14 17.14 0 0 0 .29 3.41 11.81 11.81 0 0 0 .85 2.67c.21.36.37.72.57 1s.4.6.62.85l.6.68c.19.16.36.31.5.45l.22.2.31.24.49.39c.27.2.41.32.41.32a3.56 3.56 0 1 1-4.37 5.62 3.46 3.46 0 0 1-.4-.35ZM1188.78 631.27l-.45-.55-.55-.67a6.89 6.89 0 0 0-.7-.79 13.78 13.78 0 0 0-1.81-1.62c-.2-.15-.4-.33-.62-.48l-.71-.42-.75-.46-.84-.39a13.09 13.09 0 0 0-1.86-.72 18.19 18.19 0 0 0-2.12-.57c-.75-.15-1.54-.26-2.35-.36s-1.66-.16-2.54-.14a42.78 42.78 0 0 0-5.46.28c-1.88.24-3.8.53-5.72.93-7.7 1.54-15.34 4.13-21.35 5.07-.74.14-1.48.19-2.16.28s-1.35.1-2 .08a11.74 11.74 0 0 1-1.74-.13l-.76-.12-.68-.21a4 4 0 0 1-1.08-.47l-.42-.22-.31-.26-.54-.46.59.4.32.21.43.18a4.25 4.25 0 0 0 1.09.33l.66.12h.74a10.76 10.76 0 0 0 1.67-.07c.59 0 1.22-.17 1.87-.28s1.35-.29 2.06-.51c5.71-1.55 12.93-4.94 20.68-7.41a70.42 70.42 0 0 1 5.89-1.65 44.49 44.49 0 0 1 6-1c1-.13 2-.12 3-.17s2 0 2.9.12a24.16 24.16 0 0 1 5.35 1.09l1.2.41c.39.16.75.34 1.12.5l1 .49c.34.17.65.38 1 .56a16.79 16.79 0 0 1 1.71 1.11l1.42 1.14a8.85 8.85 0 0 1 .94.86l.62.6.52.5a3.56 3.56 0 1 1-5 5.09ZM1191.53 642.08l-.21.54-.26.66c0 .13-.12.29-.16.41l-.1.35c-.07.26-.18.52-.26.85s-.17.72-.26 1.13-.11.84-.17 1.31-.07 1-.06 1.48a20 20 0 0 0 .34 3.45 29.26 29.26 0 0 0 1 3.94 79 79 0 0 0 3.69 8.63c1.4 2.95 2.86 5.95 4 8.87.59 1.45 1.07 2.9 1.49 4.27a38.63 38.63 0 0 1 .92 3.94 27 27 0 0 1 .39 3.39v2.61c0 .72-.1 1.28-.12 1.67l-.06.58v-.59c0-.38 0-.94-.1-1.65 0-.36-.08-.75-.13-1.18s-.15-.88-.24-1.36a28.67 28.67 0 0 0-.82-3.21 36.46 36.46 0 0 0-1.39-3.63c-.58-1.26-1.22-2.57-2-3.88-1.47-2.64-3.27-5.34-5.07-8.09a83.2 83.2 0 0 1-5.07-8.5 32.29 32.29 0 0 1-1.84-4.42 25.07 25.07 0 0 1-1-4.35c-.11-.7-.14-1.38-.21-2s0-1.28 0-1.86.09-1.14.13-1.65.16-1 .24-1.47c0-.22.08-.44.11-.64s.07-.31.11-.45.12-.5.16-.69l.14-.57a3.56 3.56 0 1 1 6.93 1.67 4.26 4.26 0 0 1-.12.44Z" class="colorffc9c9 svgShape"/><path fill="#ffddc9" d="M1191.63 603.74s.19-.38.54-1a9.87 9.87 0 0 1 .71-1.23 12 12 0 0 1 1.12-1.55l.68-.82.81-.79a19.25 19.25 0 0 1 1.85-1.56c1.31-1 2.77-1.91 4.11-2.93a12.41 12.41 0 0 0 1-.78 9.23 9.23 0 0 0 .93-.82 16 16 0 0 0 1.63-1.79 19.52 19.52 0 0 0 1.27-1.89c.32-.65.7-1.23.92-1.83s.46-1.14.66-1.62l.39-1.29.34-1.13s-.08.42-.24 1.16l-.28 1.33c-.16.5-.33 1.07-.53 1.69a20.28 20.28 0 0 1-.78 1.95 18.73 18.73 0 0 1-1.14 2.07 17.89 17.89 0 0 1-1.54 2 10.11 10.11 0 0 1-.9 1c-.31.31-.62.63-1 .91-1.3 1.17-2.68 2.21-3.83 3.26a18 18 0 0 0-1.57 1.58l-.67.77-.53.77a10.22 10.22 0 0 0-.83 1.37 8.72 8.72 0 0 0-.55 1.17c-.28.69-.45 1.09-.45 1.09a1.19 1.19 0 1 1-2.19-.91.47.47 0 0 1 .07-.18Z" class="colorffc9c9 svgShape"/><path fill="#ffddc9" d="m1191.58 608-.33-1.11a6.09 6.09 0 0 0-.41-1.2 11.12 11.12 0 0 0-.66-1.36 7.77 7.77 0 0 0-1.1-1.48 9.65 9.65 0 0 0-1.55-1.41 18.17 18.17 0 0 0-2-1.18c-.71-.38-1.47-.71-2.24-1.05a39.07 39.07 0 0 1-4.5-2.19 18.4 18.4 0 0 1-1.92-1.3c-.59-.43-1.07-.94-1.55-1.36s-.81-.92-1.15-1.31a8.83 8.83 0 0 1-.78-1.08l-.65-1 .73.91a10.9 10.9 0 0 0 .86 1c.37.35.77.77 1.24 1.18s1 .82 1.62 1.19a17.22 17.22 0 0 0 2 1.07c.68.36 1.45.63 2.2.94l2.37.82c.8.27 1.61.54 2.4.87a19.27 19.27 0 0 1 2.29 1.1 11.84 11.84 0 0 1 2 1.48 10.31 10.31 0 0 1 1.48 1.67 12.41 12.41 0 0 1 1 1.65 8.58 8.58 0 0 1 .56 1.27l.42 1.08a1.19 1.19 0 0 1-2.21.86ZM1155.92 626.52l-1.81 1a21.34 21.34 0 0 0-1.83 1.26 16.28 16.28 0 0 0-2.15 2 14.6 14.6 0 0 0-2 2.78 15.54 15.54 0 0 0-1.47 3.58 30 30 0 0 0-.86 8.6c.06 3 .32 6 .41 8.86a33.44 33.44 0 0 1-.47 7.78 14.83 14.83 0 0 1-2 5.12 9.33 9.33 0 0 1-.89 1.26l-.33.43.31-.45a9 9 0 0 0 .82-1.29 14.6 14.6 0 0 0 1.69-5.13 32.88 32.88 0 0 0 .09-7.67c-.22-2.82-.63-5.81-.84-8.86a41.14 41.14 0 0 1-.09-4.58 23.46 23.46 0 0 1 .56-4.46 17.25 17.25 0 0 1 1.43-4 16.47 16.47 0 0 1 2.11-3.24 18.75 18.75 0 0 1 2.31-2.32 25.45 25.45 0 0 1 2-1.54l1.78-1.09a1.19 1.19 0 0 1 1.24 2ZM1176.54 678.66s-.18.53-.49 1.47c-.17.47-.33 1-.59 1.69s-.59 1.4-.93 2.22-.83 1.62-1.28 2.5c-.26.43-.54.86-.82 1.31a13.54 13.54 0 0 1-.91 1.32c-.33.43-.64.88-1 1.31l-1.11 1.27c-.78.81-1.59 1.63-2.44 2.39-1.68 1.53-3.4 3-4.91 4.42-.74.74-1.47 1.45-2.08 2.18s-1.19 1.45-1.71 2.11-.9 1.33-1.29 1.9a17.5 17.5 0 0 0-.89 1.52l-.75 1.36.66-1.4a15.48 15.48 0 0 1 .79-1.59c.36-.59.69-1.3 1.18-2s1-1.49 1.58-2.25 1.27-1.55 2-2.35c1.44-1.57 3.08-3.14 4.63-4.75.78-.8 1.5-1.64 2.2-2.47l1-1.27c.31-.43.58-.88.87-1.3a12.32 12.32 0 0 0 .77-1.3q.35-.65.69-1.26c.36-.87.75-1.67 1-2.43s.51-1.46.72-2.08.34-1.24.47-1.71c.25-1 .4-1.49.4-1.49a1.18 1.18 0 0 1 1.44-.85 1.19 1.19 0 0 1 .85 1.45ZM1155.86 685.6l-.3.13a4.94 4.94 0 0 0-.72.37 5 5 0 0 0-.94.7 6.75 6.75 0 0 0-1.05 1.24 11.17 11.17 0 0 0-.95 1.8 21.16 21.16 0 0 0-.8 2.22c-.47 1.6-.86 3.37-1.27 5.15a43.2 43.2 0 0 1-1.47 5.21 17.79 17.79 0 0 1-1 2.29 12.19 12.19 0 0 1-1.22 1.88 11.58 11.58 0 0 1-1.3 1.37l-.62.49-.56.36a6.73 6.73 0 0 1-.81.45l-.29.15.28-.17c.17-.13.46-.26.77-.51l.52-.4.56-.53a11.18 11.18 0 0 0 1.15-1.43 11.72 11.72 0 0 0 1-1.9 17.93 17.93 0 0 0 .8-2.28 42.36 42.36 0 0 0 1-5.2c.26-1.79.51-3.61.87-5.33a20.76 20.76 0 0 1 .66-2.47 11.38 11.38 0 0 1 1-2.18 8.78 8.78 0 0 1 1.21-1.71 7.07 7.07 0 0 1 1.28-1.12 6.7 6.7 0 0 1 .88-.55l.28-.15a1.18 1.18 0 0 1 1.15 2.07Z" class="colorffc9c9 svgShape"/><path fill="#ffddc9" d="M1152 629.25v1.47a6.26 6.26 0 0 0 0 .74c0 .27 0 .58.08.9a17.79 17.79 0 0 0 .39 2.18 39.57 39.57 0 0 0 1.78 5.43c.77 2 1.7 4 2.62 6.14s1.82 4.2 2.54 6.24a30.23 30.23 0 0 1 1.51 5.69 15.65 15.65 0 0 1 .18 2.35 7.72 7.72 0 0 1 0 1 4.89 4.89 0 0 1-.09.82 7.71 7.71 0 0 1-.23 1.14l-.1.4.07-.4a7.18 7.18 0 0 0 .16-1.15 5.32 5.32 0 0 0 0-.82 6.31 6.31 0 0 0 0-1 13.73 13.73 0 0 0-.33-2.29 29.24 29.24 0 0 0-1.84-5.49c-.84-2-1.87-4-2.91-6-2.1-4-4.25-8.13-5.26-11.56a20.57 20.57 0 0 1-.59-2.38c-.07-.36-.12-.71-.15-1s-.07-.62-.08-.91 0-.54 0-.76V629.09a1.19 1.19 0 1 1 2.37.09.25.25 0 0 1-.12.07ZM1145.31 641.15l-.8.54c-.52.35-1.21.84-2 1.44s-1.79 1.36-2.75 2.22a27.45 27.45 0 0 0-2.86 2.85 27.93 27.93 0 0 0-4.16 6.37c-.46.94-.81 1.75-1 2.32l-.36.9.27-.93c.16-.6.42-1.44.79-2.44a28.57 28.57 0 0 1 3.57-6.95 30.15 30.15 0 0 1 2.66-3.28c.91-1 1.82-1.86 2.61-2.6s1.49-1.32 2-1.71l.74-.62a1.19 1.19 0 0 1 1.53 1.82ZM1174.82 683.83l-.12.32c-.09.23-.16.48-.26.81a25 25 0 0 0-.56 3.23c-.31 2.77-.44 6.57-.7 10.36a40.88 40.88 0 0 1-1.72 10.35 12.75 12.75 0 0 1-.79 1.8 8.42 8.42 0 0 1-.84 1.25 6.55 6.55 0 0 1-.93.91 7.26 7.26 0 0 0 .85-1 8.26 8.26 0 0 0 .72-1.29 12.21 12.21 0 0 0 .64-1.81 40.78 40.78 0 0 0 .89-10.27c0-3.78-.21-7.57-.11-10.47a24.57 24.57 0 0 1 .34-3.58 9.82 9.82 0 0 1 .25-1.05l.09-.33a1.19 1.19 0 0 1 2.28.65v.09Z" class="colorffc9c9 svgShape"/><path fill="#fab994" d="M1285.17 679.18c-7.63-35.49-10.54-125.38 24.75-128.27s141.44 108.15 90.72 185.09c-36.03 54.72-106.64-15.75-115.47-56.82Z" class="colorfa9494 svgShape"/><path fill="#ffddc9" d="M1264 588.89c0 14.51 9.48 23.39 27.54 23.1s27 2.37 29.62 6.81 0 10.07 0 10.07 5.33 3 8.88 13 2.07 29.61 11 35.83 16.88 3.55 25.17 8 12.74 13 12.74 13a27.9 27.9 0 0 0-17.47-10.07c-11.55-1.78-25.77-.59-30.21-18.06s-10.45-39.78-31.09-44.72-43.82-5.33-45.9-24.57 9.72-12.39 9.72-12.39Z" class="colorffc9c9 svgShape"/><path fill="#ffddc9" d="m1312.58 614.4.41-.32.5-.39.31-.24.21-.2c.15-.14.31-.29.5-.45l.61-.68c.22-.25.38-.55.61-.85s.37-.67.58-1a11.82 11.82 0 0 0 .84-2.67 16.4 16.4 0 0 0 .3-3.41 45.64 45.64 0 0 0-.91-8c-.51-2.81-1.12-5.66-1.53-8.38-.22-1.36-.37-2.69-.47-4a27.16 27.16 0 0 1 0-3.59 18 18 0 0 1 .41-3 13.11 13.11 0 0 1 .69-2.2 9.58 9.58 0 0 1 .64-1.34c.16-.29.24-.45.24-.45l-.17.49a8.91 8.91 0 0 0-.42 1.39 13 13 0 0 0-.33 2.21 16.58 16.58 0 0 0 0 2.88 24.76 24.76 0 0 0 .56 3.36c.28 1.19.62 2.42 1 3.69.8 2.54 1.82 5.22 2.78 8a49.85 49.85 0 0 1 2.31 8.54 21.46 21.46 0 0 1 .29 4.37 18.28 18.28 0 0 1-.62 4.13c-.22.63-.41 1.25-.66 1.82s-.5 1.1-.78 1.57l-.82 1.31-.89 1.12-.38.46-.28.29-.42.45-.36.38a3.57 3.57 0 0 1-5.19-4.89 3.33 3.33 0 0 1 .44-.4ZM1318.58 626.46l.51-.5.62-.6a10 10 0 0 1 .94-.86l1.43-1.14a16.62 16.62 0 0 1 1.7-1.11c.31-.18.61-.39 1-.56l1.06-.49c.36-.16.73-.34 1.11-.5l1.21-.41a24 24 0 0 1 5.35-1.09c1-.09 1.92-.11 2.9-.12s2 0 3 .17a44.35 44.35 0 0 1 6 1c2 .47 4 1 5.89 1.65 7.75 2.47 15 5.86 20.69 7.41.71.22 1.4.34 2 .51s1.29.24 1.88.28a10.63 10.63 0 0 0 1.66.07h.74l.66-.12a4.25 4.25 0 0 0 1.09-.33l.43-.18.32-.21.6-.4-.55.46-.3.26-.42.22a3.93 3.93 0 0 1-1.09.47l-.67.21-.77.12a11.6 11.6 0 0 1-1.73.13c-.62 0-1.28 0-2-.08s-1.42-.14-2.17-.28c-6-.94-13.65-3.53-21.34-5.07-1.92-.4-3.84-.69-5.72-.93a42.88 42.88 0 0 0-5.46-.28c-.88 0-1.72.09-2.55.14s-1.6.21-2.35.36a17.5 17.5 0 0 0-2.11.57 12.64 12.64 0 0 0-1.86.72l-.85.39-.75.46-.7.42c-.23.15-.42.33-.62.48a14.67 14.67 0 0 0-1.82 1.62 8 8 0 0 0-.7.79l-.54.67-.46.55a3.56 3.56 0 1 1-5.5-4.51 2.43 2.43 0 0 1 .26-.29ZM1327.84 639.94l.14.57.17.69c0 .14.07.26.1.45s.08.42.12.64c.07.45.18 1 .23 1.47s.09 1.06.13 1.65 0 1.2 0 1.86-.09 1.33-.2 2a25.07 25.07 0 0 1-1 4.35 33.66 33.66 0 0 1-1.85 4.42 81.33 81.33 0 0 1-5.06 8.5c-1.81 2.75-3.6 5.45-5.07 8.09-.76 1.31-1.39 2.62-2 3.88a34.31 34.31 0 0 0-1.4 3.63 31 31 0 0 0-.82 3.21l-.23 1.36c0 .43-.1.82-.13 1.18-.1.71-.07 1.27-.1 1.65v.59-.58a16.5 16.5 0 0 1-.13-1.67v-1.2c0-.44 0-.91.05-1.41a29.12 29.12 0 0 1 .4-3.39 36.14 36.14 0 0 1 .81-3.88c.42-1.37.9-2.82 1.48-4.27 1.15-2.92 2.6-5.92 4-8.87a78.81 78.81 0 0 0 3.68-8.63 29.36 29.36 0 0 0 1-3.94 19.93 19.93 0 0 0 .33-3.45v-1.48c0-.48-.12-.9-.18-1.31s-.17-.78-.25-1.13-.19-.59-.26-.85-.08-.24-.11-.35-.11-.28-.15-.41l-.26-.66-.22-.54a3.57 3.57 0 1 1 6.64-2.6c.05.11.1.28.14.43Z" class="colorffc9c9 svgShape"/><path fill="#ffddc9" d="M1318.82 604.75s-.16-.4-.45-1.09a6.8 6.8 0 0 0-.55-1.17 10.07 10.07 0 0 0-.82-1.37c-.17-.25-.35-.51-.54-.77l-.66-.77a18 18 0 0 0-1.57-1.58c-1.15-1-2.54-2.09-3.84-3.26-.33-.28-.64-.6-1-.91a9 9 0 0 1-.9-1 18 18 0 0 1-1.55-2 22.73 22.73 0 0 1-1.14-2.07c-.27-.7-.61-1.33-.78-1.95s-.37-1.19-.52-1.69-.21-1-.29-1.33l-.24-1.16s.12.41.34 1.13c.11.36.24.79.4 1.29l.65 1.62c.23.6.61 1.18.93 1.83a17.73 17.73 0 0 0 1.26 1.89 18.17 18.17 0 0 0 1.63 1.79 10.48 10.48 0 0 0 .93.82c.32.27.64.54 1 .78 1.34 1 2.8 1.92 4.12 2.93a20.39 20.39 0 0 1 1.84 1.56l.81.79.69.82a11.86 11.86 0 0 1 1.11 1.55 9 9 0 0 1 .72 1.23l.54 1a1.19 1.19 0 1 1-2.1 1.1.41.41 0 0 1-.02-.01Z" class="colorffc9c9 svgShape"/><path fill="#ffddc9" d="m1318.78 607.19.42-1.08a7.64 7.64 0 0 1 .56-1.27 12.41 12.41 0 0 1 1-1.65 9.86 9.86 0 0 1 1.48-1.67 12.19 12.19 0 0 1 2-1.48 18.68 18.68 0 0 1 2.3-1.1c.79-.33 1.6-.6 2.4-.87l2.36-.82c.76-.31 1.52-.58 2.21-.94a19.11 19.11 0 0 0 2-1.07c.61-.37 1.11-.83 1.62-1.19s.86-.83 1.23-1.18a8.47 8.47 0 0 0 .86-1l.73-.91-.64 1a10.05 10.05 0 0 1-.78 1.08c-.34.39-.71.85-1.15 1.31a20 20 0 0 1-1.56 1.36 16.5 16.5 0 0 1-1.92 1.3 39.73 39.73 0 0 1-4.49 2.19c-.77.34-1.53.67-2.25 1.05a19 19 0 0 0-2 1.18 9.73 9.73 0 0 0-1.56 1.41 7.7 7.7 0 0 0-1.09 1.48 10 10 0 0 0-.67 1.36 6.82 6.82 0 0 0-.41 1.2L1321 608a1.19 1.19 0 1 1-2.28-.67v-.09ZM1357.86 624.47l1.77 1.09c.56.43 1.32.89 2 1.54a19.46 19.46 0 0 1 2.31 2.32 16.47 16.47 0 0 1 2.11 3.24 16.79 16.79 0 0 1 1.42 4 23.46 23.46 0 0 1 .57 4.46 43.7 43.7 0 0 1-.09 4.58c-.21 3-.62 6-.85 8.86a32.88 32.88 0 0 0 .09 7.67 15 15 0 0 0 1.69 5.13 10 10 0 0 0 .82 1.29l.31.45-.33-.43a10.34 10.34 0 0 1-.89-1.26 15 15 0 0 1-2-5.12 33.41 33.41 0 0 1-.48-7.78c.09-2.84.36-5.86.41-8.86a29.68 29.68 0 0 0-.86-8.6 15.52 15.52 0 0 0-1.46-3.58 15 15 0 0 0-2-2.78 16.32 16.32 0 0 0-2.16-2 21.37 21.37 0 0 0-1.82-1.26l-1.82-1a1.18 1.18 0 0 1 1.13-2.08ZM1338.32 678s.14.54.4 1.49c.13.47.26 1.07.46 1.71s.46 1.32.72 2.08.68 1.56 1 2.43l.69 1.26a9.64 9.64 0 0 0 .77 1.3c.28.42.55.87.87 1.3s.65.84 1 1.27a46 46 0 0 0 2.21 2.47c1.55 1.61 3.19 3.18 4.62 4.75.71.8 1.39 1.57 2 2.35s1.11 1.55 1.59 2.25.82 1.41 1.17 2a15.77 15.77 0 0 1 .8 1.59c.42.89.65 1.4.65 1.4l-.74-1.36a15.57 15.57 0 0 0-.9-1.52c-.39-.57-.76-1.24-1.29-1.9a26.67 26.67 0 0 0-1.7-2.11c-.62-.73-1.34-1.44-2.08-2.18-1.52-1.45-3.24-2.89-4.92-4.42-.84-.76-1.65-1.58-2.44-2.39-.37-.43-.74-.86-1.11-1.27s-.68-.88-1-1.31a13.54 13.54 0 0 1-.91-1.32l-.82-1.31c-.45-.88-.91-1.71-1.28-2.5l-.93-2.22c-.26-.66-.42-1.22-.58-1.69l-.5-1.47a1.19 1.19 0 0 1 2.25-.76.31.31 0 0 0 0 .08ZM1357.79 683.48l.29.15a7.46 7.46 0 0 1 .88.55 6.71 6.71 0 0 1 1.27 1.12 8.81 8.81 0 0 1 1.22 1.71 12 12 0 0 1 1 2.18 22.86 22.86 0 0 1 .66 2.47c.36 1.72.6 3.54.87 5.33a44.35 44.35 0 0 0 1 5.2 17.94 17.94 0 0 0 .81 2.28 11.7 11.7 0 0 0 1 1.9 11.2 11.2 0 0 0 1.16 1.43l.56.53.52.4a8.27 8.27 0 0 0 .77.51l.27.17-.29-.15a8.73 8.73 0 0 1-.81-.45l-.56-.36-.61-.49a11.61 11.61 0 0 1-1.31-1.37 13 13 0 0 1-1.22-1.88 17.79 17.79 0 0 1-1-2.29 43.2 43.2 0 0 1-1.47-5.21c-.41-1.78-.8-3.55-1.27-5.15a21.19 21.19 0 0 0-.79-2.22 10.44 10.44 0 0 0-1-1.8 7.14 7.14 0 0 0-1-1.24 5.35 5.35 0 0 0-.94-.7 4.56 4.56 0 0 0-.73-.37l-.29-.13a1.19 1.19 0 0 1 1-2.17Z" class="colorffc9c9 svgShape"/><path fill="#ffddc9" d="M1362.94 629.08v1.66a7.39 7.39 0 0 1-.07.91c0 .32-.08.67-.16 1a20.41 20.41 0 0 1-.58 2.38c-1 3.43-3.17 7.52-5.26 11.56-1.05 2-2.08 4-2.91 6a29.33 29.33 0 0 0-1.85 5.49 14.85 14.85 0 0 0-.33 2.29 7.94 7.94 0 0 0 0 1 5.23 5.23 0 0 0 0 .82 8.86 8.86 0 0 0 .15 1.15l.08.4s0-.14-.1-.4a7.71 7.71 0 0 1-.23-1.14 4.89 4.89 0 0 1-.09-.82v-1a15.75 15.75 0 0 1 .19-2.35 29.49 29.49 0 0 1 1.51-5.69c.72-2 1.62-4.15 2.54-6.24s1.84-4.18 2.62-6.14a39.57 39.57 0 0 0 1.78-5.43 17.79 17.79 0 0 0 .39-2.18c0-.32.06-.63.07-.9a6.47 6.47 0 0 0 0-.74v-.58c0-.19 0-.35-.05-.49s0-.4 0-.4a1.19 1.19 0 1 1 2.36-.25ZM1368.71 639.26l.74.62c.47.39 1.16 1 2 1.71s1.7 1.6 2.61 2.6a30.15 30.15 0 0 1 2.66 3.28 29.3 29.3 0 0 1 3.57 6.95c.36 1 .62 1.84.79 2.44l.27.93s-.14-.33-.37-.9-.57-1.38-1-2.32a28 28 0 0 0-4.17-6.37 26.51 26.51 0 0 0-2.86-2.85c-1-.86-1.92-1.59-2.75-2.22s-1.52-1.09-2-1.44l-.81-.54a1.18 1.18 0 0 1 1.33-2ZM1340 683.09l.09.33c.06.19.15.57.25 1.05a24.77 24.77 0 0 1 .33 3.58c.11 2.9-.07 6.69-.1 10.47a40.36 40.36 0 0 0 .88 10.27 13.47 13.47 0 0 0 .64 1.81 8.23 8.23 0 0 0 .73 1.29 6.47 6.47 0 0 0 .85 1 6 6 0 0 1-.93-.91 7.71 7.71 0 0 1-.84-1.25 12.73 12.73 0 0 1-.8-1.8 41.79 41.79 0 0 1-1.72-10.35c-.26-3.79-.38-7.59-.7-10.36a21.91 21.91 0 0 0-.56-3.23 7.84 7.84 0 0 0-.26-.81l-.11-.32a1.19 1.19 0 0 1 2.25-.86Z" class="colorffc9c9 svgShape"/><rect width="17.67" height="95.18" x="1247.46" y="500.65" fill="#ffddc9" rx=".51" class="colorffc9c9 svgShape"/><path fill="#fab994" d="M1263.64 511.67H1249a1 1 0 1 1 0-2.07h14.68a1 1 0 0 1 0 2.07ZM1263.64 522.41H1249a1 1 0 1 1 0-2.07h14.68a1 1 0 0 1 0 2.07ZM1263.64 533.15H1249a1 1 0 1 1 0-2.06h14.68a1 1 0 1 1 0 2.06ZM1263.64 543.9H1249a1 1 0 1 1 0-2.07h14.68a1 1 0 0 1 0 2.07ZM1263.64 554.64H1249a1 1 0 1 1 0-2.06h14.68a1 1 0 1 1 0 2.06ZM1263.64 565.39H1249a1 1 0 1 1 0-2.07h14.68a1 1 0 0 1 0 2.07ZM1263.64 576.13H1249a1 1 0 1 1 0-2.06h14.68a1 1 0 1 1 0 2.06ZM1263.64 586.88H1249a1 1 0 1 1 0-2.07h14.68a1 1 0 0 1 0 2.07Z" class="colorfa9494 svgShape"/><path fill="#f09662" d="M1251.65 566.32c1.65-8 12.12-23.27 14.51-24.19s8.81.1 9.73 1.89.55 14.09-2.38 17.21-21.86 5.09-21.86 5.09Z" class="colorf06262 svgShape"/><path fill="#f59c69" d="M1295.14 544.87c-2.72-6.41-11.53-13.75-13-13.57s-4.41 3.49-4.41 4.22 7.34 13.9 7.71 16.32 9.7-6.97 9.7-6.97ZM1298.11 545.5c1.35-3.43 6.86-11.39 8.21-11.39s3.91.86 4 2-2.82 9.55-2.21 11.15-10-1.76-10-1.76Z" class="colorf56969 svgShape"/><path fill="#f59c69" d="M1307.42 546.36c2-2.08 6-5.2 7.34-5.48s3.31 1.78 3.31 3.14-3.43 5.15-3.67 6.13-6.98-3.79-6.98-3.79Z" class="colorf56969 svgShape"/><path fill="#f5a373" d="M1281.34 554.56c-23.75-4.16-47.28 20.56-39.92 49.46s45.65-10.55 45.55-23.21-5.63-26.25-5.63-26.25Z" class="colorf57373 svgShape"/><path fill="#ffba92" d="M1275 572.15c-3.91-20 25.9-39.38 44.93-20.31 20.24 20.31-44.93 20.31-44.93 20.31Z" class="colorff9292 svgShape"/><path fill="#f59c69" d="M1290.16 569.5c6.36-12.25 36-18.12 38.93-17.63s4.65 5.63 4.41 7.59-13.72 12.54-13.5 19.59-29.84-9.55-29.84-9.55Z" class="colorf56969 svgShape"/><path fill="#ffbd97" d="M1268.66 574.26c16.35-10.64 54.15-10.62 61.65 17.76s-61.65-17.76-61.65-17.76Z" class="colorff9797 svgShape"/><path fill="#f5a97d" d="M1301.92 693.14c-24 2.94-55.1-37.2-61.24-62.67a50.91 50.91 0 0 1-1.11-16.46l.32-2.94c2-13.39 8.82-25.82 18.69-32.43a19.39 19.39 0 0 1 2.14-1.33 27.49 27.49 0 0 1 12.55-3.64c23.24-1 26.18 16.4 26.18 16.4.21-.24.44-.47.68-.71a21.19 21.19 0 0 1 2.46-2.23c14-10.9 34.71-.3 36.29 21.07 1.33 17.57-19.42 82.8-36.96 84.94Z" class="colorf57d7d svgShape"/><path fill="#ffddc9" d="M1264.31 611.05c-.15.85-.24 1.44-.3 1.67 0-.23.12-.82.18-1.67a12.83 12.83 0 0 0-.29-4.71c-.5-1.88-1.94-3.76-2.88-6.14a15.08 15.08 0 0 1-1.09-3.79 26.1 26.1 0 0 1 0-4c.15-2.68.44-5.29.35-7.7a10.8 10.8 0 0 0-1.5-5.82c0-.06-.08-.15-.17-.2a19.39 19.39 0 0 1 2.14-1.33c0 .06.09.12.12.18a13 13 0 0 1 1.41 7.2c-.09 2.58-.59 5.2-.88 7.79a21.61 21.61 0 0 0-.24 3.82 13.62 13.62 0 0 0 .77 3.58c.73 2.32 2 4.32 2.44 6.35a13.12 13.12 0 0 1-.06 4.77ZM1239.89 611.08a15 15 0 0 1 5.79-1.89 8.49 8.49 0 0 1 3.55.45 4.93 4.93 0 0 1 1.71 1 7.31 7.31 0 0 1 1.2 1.47 22.68 22.68 0 0 1 1.5 3.12c.41 1 .85 2 1.32 2.88a10.72 10.72 0 0 0 1.8 2.26 7.91 7.91 0 0 0 2.2 1.38 8.26 8.26 0 0 0 2.17.62 10 10 0 0 0 1.74.2h1.53l-1.53.09a7.44 7.44 0 0 1-1.79-.06 8.61 8.61 0 0 1-2.27-.44 8.09 8.09 0 0 1-2.46-1.29 10.15 10.15 0 0 1-2.18-2.29c-1.23-1.79-2-4-3.23-5.67a5 5 0 0 0-1-1 2.9 2.9 0 0 0-1.18-.59 7.39 7.39 0 0 0-2.85-.09 13.53 13.53 0 0 0-4.87 2.09 13 13 0 0 1-1.44.73ZM1303 594.18a84.41 84.41 0 0 1-2.47 21.6 29.15 29.15 0 0 1-2.12 5.58 14.23 14.23 0 0 1-3.58 4.58c-2.94 2.5-6.38 3.47-9.2 4.23a30.15 30.15 0 0 0-3.79 1.24 9.17 9.17 0 0 0-2.53 1.67 9.43 9.43 0 0 0-1.5 2 7.94 7.94 0 0 1 1.41-2.08 10 10 0 0 1 2.5-1.83 26.17 26.17 0 0 1 3.76-1.44c2.8-.88 6.12-2 8.7-4.46a13.6 13.6 0 0 0 3.17-4.41 27.41 27.41 0 0 0 1.74-5.44c1.67-7.55 2.34-15.46 1.41-21.18-.24-1.44-.91-2.79-1.06-4.17a34.35 34.35 0 0 1 3.14-2.94 59.84 59.84 0 0 1 .42 7.05Z" class="colorffc9c9 svgShape"/><path fill="#ffddc9" d="m1302.13 604.29.32.5c.2.28.5.71 1 1.24.88 1.06 2.37 2.41 4.17 4.12a28 28 0 0 1 2.72 3 14.66 14.66 0 0 1 2.17 4 14 14 0 0 1 .74 4.8 20.37 20.37 0 0 1-.85 4.92c-.92 3.18-2.2 6.19-3.27 9.06a43.21 43.21 0 0 0-2.37 8 18.24 18.24 0 0 0-.28 3.31 12.57 12.57 0 0 0 .3 2.55 9 9 0 0 0 .47 1.59l.22.54-.23-.54a9.63 9.63 0 0 1-.53-1.57 13.61 13.61 0 0 1-.37-2.56 18.21 18.21 0 0 1 .19-3.36 43.35 43.35 0 0 1 2.15-8.12c1-2.91 2.19-6 3-9.1a19.28 19.28 0 0 0 .68-4.71 13.18 13.18 0 0 0-.81-4.47 16.88 16.88 0 0 0-4.79-6.46c-1.8-1.63-3.38-3-4.37-4.11a14.61 14.61 0 0 1-1.1-1.36l-.33-.49a.73.73 0 1 1 1.21-.83ZM1299.86 618.18l-.22.55c-.14.37-.31.83-.5 1.51a39.67 39.67 0 0 0-1.09 5.74c-.66 4.84-1 11.41-1.86 17.94a42.73 42.73 0 0 1-2.24 9.43c-.59 1.45-1.26 2.76-1.86 4s-1.17 2.48-1.6 3.62a15.57 15.57 0 0 0-.87 3.22 13.11 13.11 0 0 0-.12 2.57 13.71 13.71 0 0 0 .18 1.65l.09.58-.11-.57a16.19 16.19 0 0 1-.23-1.66 13.45 13.45 0 0 1 0-2.59 15.61 15.61 0 0 1 .78-3.28c.39-1.18.92-2.41 1.49-3.7s1.18-2.65 1.72-4.07a42.06 42.06 0 0 0 2-9.34c.72-6.49.85-13.06 1.39-18a41 41 0 0 1 1-6 15.65 15.65 0 0 1 .5-1.66c.13-.36.21-.56.21-.56a.73.73 0 0 1 1.37.51Z" class="colorffc9c9 svgShape"/><path fill="#ffddc9" d="m1294.58 651.58-.16.48c-.06.15-.09.32-.15.53a5.36 5.36 0 0 0-.13.71 8.79 8.79 0 0 0-.07 1.82 7.36 7.36 0 0 0 .11 1 9.86 9.86 0 0 0 .23 1.05 7.92 7.92 0 0 0 .37 1 7.25 7.25 0 0 0 .49.92 5.26 5.26 0 0 0 .6.77 4.34 4.34 0 0 0 .64.59 3.89 3.89 0 0 0 .62.41 2.37 2.37 0 0 0 .51.25l.47.18-.47-.16a2.27 2.27 0 0 1-.54-.22 3.36 3.36 0 0 1-.64-.38 3.67 3.67 0 0 1-.69-.58 6.09 6.09 0 0 1-.66-.75 9.25 9.25 0 0 1-.54-.92 7.13 7.13 0 0 1-.44-1 8.5 8.5 0 0 1-.29-1.07 8.24 8.24 0 0 1-.18-1.07 9.4 9.4 0 0 1 0-1.91 7.56 7.56 0 0 1 .23-1.35l.14-.49a.3.3 0 0 1 .57.17ZM1309.37 635.18l.09.47c0 .11.11.25.19.41a5.9 5.9 0 0 0 .37.55 30 30 0 0 0 2.55 2.74 18.86 18.86 0 0 1 1.35 1.52 6.26 6.26 0 0 1 .94 1.5 2.91 2.91 0 0 1 .21.68 1.82 1.82 0 0 1 .06.54v.47-.47a1.89 1.89 0 0 0-.09-.53 3.25 3.25 0 0 0-.24-.65 6.67 6.67 0 0 0-1-1.43c-.42-.48-.91-1-1.41-1.42a32.13 32.13 0 0 1-2.74-2.64c-.18-.2-.31-.42-.44-.59a5.86 5.86 0 0 1-.28-.57l-.12-.46a.3.3 0 0 1 .58-.14ZM1307.93 611l.37.07a1.6 1.6 0 0 0 .38 0 2 2 0 0 0 .5-.07 5.71 5.71 0 0 0 .59-.19c.21-.1.42-.2.64-.33a7.8 7.8 0 0 0 1.24-1 8.14 8.14 0 0 0 1.76-2.39 4 4 0 0 0 .29-.94v-.38.38a4.51 4.51 0 0 1-.23 1 8.49 8.49 0 0 1-1.64 2.57 7.94 7.94 0 0 1-1.24 1.09c-.22.15-.44.28-.66.4a4.89 4.89 0 0 1-.65.26 2.35 2.35 0 0 1-.61.12 1.57 1.57 0 0 1-.48 0h-.38a.29.29 0 0 1-.26-.32.3.3 0 0 1 .33-.26ZM1311 614.68l1.64 1.35a45.32 45.32 0 0 1 3.52 3.11 14.33 14.33 0 0 1 1.61 1.93 7.46 7.46 0 0 1 .58 1 6.25 6.25 0 0 1 .39 1c.08.31.17.59.21.85s.08.48.08.67v.58-.58a5.22 5.22 0 0 0-.12-.66 7.09 7.09 0 0 0-.23-.83 7.6 7.6 0 0 0-.43-.93 7.31 7.31 0 0 0-.61-1 12.92 12.92 0 0 0-1.67-1.83c-1.24-1.15-2.6-2.16-3.61-2.93l-1.7-1.28a.29.29 0 1 1 .35-.47ZM1254 616.66s0 .19.09.5a5.36 5.36 0 0 1 .09.59c0 .23.06.5.07.78a22.8 22.8 0 0 1-.29 4.09 16 16 0 0 0-.23 4 4.21 4.21 0 0 0 .41 1.26l.28.43-.3-.42a4 4 0 0 1-.48-1.25 15.89 15.89 0 0 1 0-4.07 22.19 22.19 0 0 0 .08-4c0-.28-.07-.51-.09-.73a5.38 5.38 0 0 0-.12-.56c-.07-.31-.12-.49-.12-.49a.31.31 0 0 1 .22-.36.28.28 0 0 1 .35.22ZM1251.86 612.56l.25.08h.24a1.86 1.86 0 0 0 .36 0 6.23 6.23 0 0 0 2-.34 5.23 5.23 0 0 0 1.81-1 1.92 1.92 0 0 0 .41-.54l.07-.25v.26a1.75 1.75 0 0 1-.37.59 5.4 5.4 0 0 1-1.76 1.17 6.89 6.89 0 0 1-2.08.56 2.94 2.94 0 0 1-.42 0 2.69 2.69 0 0 1-.35 0l-.25-.06a.29.29 0 1 1 .13-.57ZM1261.1 590.35a3.28 3.28 0 0 0 .23.6 2.4 2.4 0 0 0 .4.57 3.47 3.47 0 0 0 .72.62 17.92 17.92 0 0 0 5.09 1.71 13 13 0 0 1 5.06 2 5.06 5.06 0 0 1 .74.71 5.18 5.18 0 0 1 .43.66 2.59 2.59 0 0 1 .22.46l.07.16-.08-.16a3.21 3.21 0 0 0-.23-.45 4.75 4.75 0 0 0-.45-.63 5.65 5.65 0 0 0-.75-.68 13.31 13.31 0 0 0-5.08-1.82 17.85 17.85 0 0 1-5.28-1.57 4.27 4.27 0 0 1-.85-.67 2.71 2.71 0 0 1-.51-.69 3.8 3.8 0 0 1-.29-.66.31.31 0 0 1 .18-.38.3.3 0 0 1 .38.22Z" class="colorffc9c9 svgShape"/><path fill="#ffbd97" d="M1258.23 737.66c2.36-2.84 11.19-7.33 12.26-4.8s4 36.91 33.31 45.44 71.2 23.7 40.2 88.21-91.67 52.24-112.73 41.31-31.71-16-41.84-6.93-2.4 23.72-3.2 25.59-15.45 8-17.59 6.93-13.85-37.58 17.86-52.24 58.71-3 78.35-40.24c7.78-14.76 14.39-23.72 10.93-43.44s-9.6-23.72-14.66-37-4.28-21.16-2.89-22.83Z" class="colorff9797 svgShape"/><path fill="#f5a97d" d="M1339.19 854.05a64.51 64.51 0 0 1-32.2 39.66c-38 19.92-69.11 7.8-81.55 3.19-10-3.7-22.39-6.87-25-8.25-10-5.27 19.19-5.34 44.23-13.62 13.4-4.41 23-13.46 29.93-24.46 6.08-9.53 10.14-20.57 13-31.22 6.14-22.93 0-36 2.15-37.57s35.17 6.39 46.62 26.38c6.02 10.62 7.97 28.49 2.82 45.89ZM1270.27 746.59a.84.84 0 0 1-.47-.15s-3.7-2.6-7.23-1.61a.8.8 0 0 1-1-.56.79.79 0 0 1 .55-1c4.29-1.21 8.42 1.72 8.6 1.85a.8.8 0 0 1-.47 1.45ZM1271.15 754.85a.8.8 0 0 1-.3-.06 6.63 6.63 0 0 0-5.08 0 .8.8 0 0 1-1-.42.81.81 0 0 1 .42-1.05 8.24 8.24 0 0 1 6.32 0 .8.8 0 0 1-.31 1.54ZM1268.31 763.84a.81.81 0 0 1-.65-.32.8.8 0 0 1 .17-1.12c1.58-1.17 5.1-1.37 6.54-1.15a.8.8 0 0 1 .67.92.78.78 0 0 1-.91.66c-1.21-.18-4.25 0-5.35.86a.82.82 0 0 1-.47.15ZM1273.75 773.24h-.2a.8.8 0 0 1-.57-1 4.77 4.77 0 0 1 2.41-2.67 8.25 8.25 0 0 1 6-1 .8.8 0 1 1-.41 1.54 6.66 6.66 0 0 0-4.75.83 3.44 3.44 0 0 0-1.66 1.7.81.81 0 0 1-.82.6ZM1278.75 778.73a.79.79 0 0 1-.68-1.21 7.18 7.18 0 0 1 6-3.58.8.8 0 0 1 0 1.6 5.66 5.66 0 0 0-4.62 2.81.78.78 0 0 1-.7.38ZM1192.54 891.43a.86.86 0 0 1-.46-.14 13.18 13.18 0 0 0-9.25-1.87.79.79 0 0 1-.94-.63.81.81 0 0 1 .63-.94A14.68 14.68 0 0 1 1193 890a.8.8 0 0 1-.46 1.45ZM1187.6 895.29a.85.85 0 0 1-.43-.12 9.55 9.55 0 0 0-7.34-.84.79.79 0 0 1-1-.55.81.81 0 0 1 .55-1 11.09 11.09 0 0 1 8.66 1 .8.8 0 0 1 .22 1.1.78.78 0 0 1-.66.41ZM1181.08 900.76a.82.82 0 0 1-.49-.16 6.16 6.16 0 0 0-5-.67.8.8 0 0 1-1-.57.8.8 0 0 1 .58-1 7.81 7.81 0 0 1 6.41.93.8.8 0 0 1-.48 1.44ZM1172.41 907.55a.8.8 0 0 1-.29-1.54 10.25 10.25 0 0 1 6.35 0 .8.8 0 1 1-.51 1.51 8.79 8.79 0 0 0-5.25 0 .79.79 0 0 1-.3.03ZM1176.68 916.22a.78.78 0 0 1-.41-.12 3.59 3.59 0 0 0-3.45 0 .8.8 0 0 1-.81-1.37 5.22 5.22 0 0 1 5.08 0 .81.81 0 0 1 .27 1.1.78.78 0 0 1-.68.39Z" class="colorf57d7d svgShape"/><path fill="#ffddc9" d="M1339.19 854.05a64.51 64.51 0 0 1-32.2 39.66c-38 19.92-69.11 7.8-81.55 3.19-10-3.7-22.39-6.87-25-8.25-10-5.27 19.19-5.34 44.23-13.62 13.4-4.41 23-13.46 29.93-24.46 3.29-1.12 7.55-.2 13 2.43 7 3.39 17.59-.52 30.38-1.48 10.34-.76 18.37.42 21.21 2.53Z" class="colorffc9c9 svgShape"/><path fill="#fac6a8" d="M1290.41 871.11a7 7 0 1 1-7-7 7 7 0 0 1 7 7ZM1312.93 864.08a2.9 2.9 0 1 1-2.9-2.9 2.9 2.9 0 0 1 2.9 2.9Z" class="colorfaa8a8 svgShape"/><circle cx="1300.04" cy="878.87" r="3.1" fill="#fac6a8" class="colorfaa8a8 svgShape"/><circle cx="1301.44" cy="837.32" r="4.5" fill="#fac6a8" class="colorfaa8a8 svgShape"/><circle cx="1310.03" cy="819.88" r="2.4" fill="#fac6a8" class="colorfaa8a8 svgShape"/><path fill="#fac6a8" d="M1329.72 828.4a1.5 1.5 0 1 1-1.5-1.5 1.5 1.5 0 0 1 1.5 1.5Z" class="colorfaa8a8 svgShape"/><path fill="#b07e60" d="M1283.87 756.49c-8.82-13.74-55.15 1.37-67.88 3.44s-54.18-6.23-81.28 28.55c-26.84 34.45 11.37 106 28.79 100.15s7.3-36.19 37.34-48.81 49.78-19.37 60-36.41 6.25-15.86 15.23-23.28 13.03-15.51 7.8-23.64Z" class="colorb06060 svgShape"/><path fill="#a16c4d" d="M1214 760.16c9.94 6.77 12.45 20.07 3.18 42.05s-1 31.21-1 31.21-5.23-5.94.23-23.4 10-21.22 8.4-34.64c-1.43-12.5-10.81-15.22-10.81-15.22Z" class="colora14d4d svgShape"/><path fill="#f5a97d" d="M1219 248.48c-14.16 17-22.44 25.52-28.78 18.94s12.67-24.11 17.3-25.82 11.48 6.88 11.48 6.88Z" class="colorf57d7d svgShape"/><path fill="#f5a97d" d="M1279.29 234.46c-11.64 13.47-27.47 7.63-27.47 7.63s-2 2.43-8.53 3.9-11.94-3.9-11.94-3.9a20.38 20.38 0 0 1-20.95 5.6c-12.91-3.9-6.82-15.59-5.11-18.51s31.18-11.7 46.29-10 27.71 15.28 27.71 15.28Z" class="colorf57d7d svgShape"/><path fill="#ffddc9" d="M1334 207.63c-2.17 6.55-5.85 13.51-13.16 16.43-6 2.4-13 1.34-15.32.88l-.76-.15a5 5 0 0 1-.55.47 57.6 57.6 0 0 1-15.53 8.3c-10.23 3.66-15.7-2.54-20.81-1.46s-9.88 4-16.81 4-13.16-8.39-13.16-8.39c-3.71 1.17-16.08 8-28.33 10.79-.49.09-1 .21-1.52.29-6.43 1.29-12.74 1.35-17.65-1.22-13.6-7.11-4.16-13.31-6.58-22.66a6.92 6.92 0 0 0-.44-1.43c-.09-.27-.18-.5-.29-.76-1.14-2.55-2.25-4.83-3.25-7-.23-.5-.44-1-.64-1.43-2.87-6.32-4.88-12-4.88-20.79 0-12.39 9.12-16.08 11-19.35s-1.08-6.58 2.54-12.81 21.58-2.54 23.77-4.73l.26-.27c.27-.26.62-.58 1.09-1 4.62-4.27 18.18-15.79 25-14.82s10.7 5.93 15.29 7.07a6.23 6.23 0 0 0 1.49.21 1.67 1.67 0 0 0 .38 0c5.5 0 10.24-4.74 14.62-3.66s3.68 3.31 10.23 3.66 10.56-.68 15 .35c6.23 1.46 9.85 10.23 12.43 11.34s24.11-1.46 31.42 9.5 1.84 19 1.84 19 5.09-.52 6.2 7.05-10.63 15.96-12.88 22.59Z" class="colorffc9c9 svgShape"/><path fill="#fab994" d="M1192.33 201.17a.75.75 0 0 1-.94.44c-1.69-.62-5.47-.12-8.59 1.72a12.45 12.45 0 0 0-2.93 2.37c-.23-.5-.44-1-.64-1.43a12.8 12.8 0 0 1 2.81-2.19c3.68-2.17 7.8-2.58 9.85-1.85a.73.73 0 0 1 .44.94ZM1205.8 214.59a.74.74 0 0 1-1 0c-6-6.23-15-3.6-20.9.32a6.92 6.92 0 0 0-.44-1.43c6.34-4.07 15.9-6.64 22.39.08a.7.7 0 0 1-.05 1.03ZM1223.81 217.72c0 3.56-3.07 6.25-6.28 9.15-3.69 3.24-7.46 6.6-7.93 11.63-.49.09-1 .21-1.52.29.35-5.81 4.62-9.61 8.45-13 3.13-2.75 5.82-5.15 5.82-8a.75.75 0 0 1 .73-.74.77.77 0 0 1 .73.67ZM1263.54 223.25c-8.19 0-16.28-8.79-20.37-15.12-5.87-9.06-12.9-7.07-23.82-.26-7.07 4.41-9.85 2.4-10.73 1.33-1.74-2.13-.89-6 2-9.08a.75.75 0 0 1 1 0 .74.74 0 0 1 0 1c-2.57 2.71-3 5.82-1.9 7.15 1.3 1.6 4.6 1 8.81-1.65 11.45-7.14 19.34-9.31 25.82.71 4.48 6.92 15.35 18.51 24.34 12.93.73-.45.81-.69.81-.69-.41-.55-4.58-1.12-8.91-1.12a.73.73 0 0 1 0-1.46c3.61 0 9.76.29 10.32 2.26.33 1.16-1 2-1.45 2.25a11.14 11.14 0 0 1-5.92 1.75ZM1203 192.61a1.67 1.67 0 0 1-1.09-.38c-2.22-1.78-2-5.4-1.82-8.3.05-.73.09-1.42.09-2 0-2-.35-2.26-.35-2.26a7.33 7.33 0 0 0-2.07 1.19c-2 1.46-4.85 3.47-7.71 1.69a2.56 2.56 0 0 1-1.19-1.69c-.59-2.78 2.56-7.41 6.2-12.78 3.28-4.83 7-10.31 6.58-13.08a.73.73 0 0 1 .62-.83.72.72 0 0 1 .83.61c.5 3.34-3.06 8.57-6.82 14.12-3 4.45-6.44 9.49-6 11.66a1.11 1.11 0 0 0 .53.75c2 1.26 4.19-.28 6.09-1.64 1.43-1 2.57-1.82 3.58-1.3.81.42 1.15 1.48 1.15 3.56 0 .63 0 1.35-.09 2.11-.16 2.57-.36 5.76 1.27 7.07.51.4 2.53-1.24 4-2.45 3.36-2.74 8-6.51 12.47-4.23a.73.73 0 1 1-.66 1.31c-3.65-1.85-7.67 1.42-10.89 4.06-1.87 1.52-3.45 2.81-4.72 2.81Z" class="colorfa9494 svgShape"/><path fill="#fab994" d="M1221.1 177.15c-3.37 0-6.73-1.83-9.55-5.25a.73.73 0 0 1 .09-1 .74.74 0 0 1 1 .1c2.79 3.36 6.1 5 9.28 4.67 3.42-.37 6.45-2.95 8.75-7.46a.74.74 0 0 1 1.31.67c-3.22 6.27-7.16 7.94-9.9 8.24a8.43 8.43 0 0 1-.98.03ZM1219.66 156.91a.7.7 0 0 1-.53.87h-.13a.69.69 0 0 1-.7-.55s0-.09-.06-.21a24.51 24.51 0 0 0-6.32-10.7c.27-.26.62-.58 1.09-1a24.92 24.92 0 0 1 6.39 10.68c.17.53.23.85.26.91Z" class="colorfa9494 svgShape"/><path fill="#fab994" d="M1215 164.37a.73.73 0 0 1-.73-.73c0-1.92 3.23-7.63 8.33-9.46a.73.73 0 0 1 .49 1.38c-4.47 1.6-7.36 6.68-7.36 8.08a.73.73 0 0 1-.73.73ZM1224.78 167.78a.74.74 0 0 1-.72-.57c-.84-3.89.36-4.67 2.56-5.7a14.88 14.88 0 0 0 4.23-2.78c2.25-2.13 5-2.89 7.43-2.07a7.91 7.91 0 0 1 5 6.37.73.73 0 0 1-.59.84.71.71 0 0 1-.85-.59 6.48 6.48 0 0 0-4-5.23c-2-.65-4.09 0-6 1.74a16.22 16.22 0 0 1-4.62 3c-1.88.89-2.39 1.13-1.75 4.07a.73.73 0 0 1-.56.87Z" class="colorfa9494 svgShape"/><path fill="#fab994" d="M1232.58 159a.73.73 0 0 1-.25 0 .73.73 0 0 1-.44-.94c.76-2.1.29-4.41-.22-6.85-.7-3.44-1.43-7 1.32-10.2a4.54 4.54 0 0 1 3.32-1.58c5.58-.3 13.72 7.3 14.06 7.62a.73.73 0 0 1 0 1 .72.72 0 0 1-1 0c-.08-.07-7.77-7.23-12.72-7.23h-.26a3.09 3.09 0 0 0-2.3 1.08c-2.28 2.65-1.65 5.71-1 8.94.52 2.54 1.06 5.16.16 7.65a.73.73 0 0 1-.67.51ZM1273 186.2c-1.52 2.25-2.84 4.21-3.16 5.82a.71.71 0 0 1-.7.58h-.14a.72.72 0 0 1-.58-.87c.38-1.9 1.78-3.95 3.39-6.35 3.77-5.58 8.45-12.54 2.34-21.31-3.16-4.53-7.31-8.3-11-11.61-5.58-5.05-10.55-9.53-9.91-14.88a6.23 6.23 0 0 0 1.49.21c-.49 4.62 4 8.68 9.42 13.59 3.71 3.36 7.95 7.19 11.19 11.84 6.66 9.59 1.45 17.34-2.34 22.98Z" class="colorfa9494 svgShape"/><path fill="#fab994" d="M1261.81 167.78a.73.73 0 0 1-.73-.68 3 3 0 0 0-.89-2.25c-1.16-1-3.76-.89-7.31-.48s-6.22-.54-7.78-2.55a5.14 5.14 0 0 1-.78-5 4.82 4.82 0 0 1 4.34-3.05c2.49-.15 4.58 1.44 5.92 4.22a.74.74 0 0 1-.35 1 .73.73 0 0 1-1-.34c-1.08-2.24-2.75-3.5-4.54-3.4a3.37 3.37 0 0 0-3 2.12 3.69 3.69 0 0 0 .58 3.6c1.23 1.59 3.57 2.32 6.45 2 4-.46 6.85-.49 8.42.81a4.4 4.4 0 0 1 1.41 3.28.73.73 0 0 1-.68.78ZM1294.45 175.34a.52.52 0 0 1-.21 0 .73.73 0 0 1-.49-.91c.72-2.32-2.64-4.66-6.52-7.36-5.19-3.61-11.64-8.09-11.78-15.07-.09-4.56 2.27-6.24 4.27-6.84 6-1.8 16.16 3.74 19.73 9.36 4.75 7.46 8.85 8.82 16.9 5.61 4.55-1.83 7.55-.45 8.83 1.45 1.46 2.16 1.35 6-2.18 9.67a.73.73 0 0 1-1.06-1c3-3.09 3.15-6.17 2-7.85s-3.93-2.15-7.06-.91c-8.68 3.47-13.57 1.85-18.68-6.18-3.54-5.57-13.18-10.24-18.08-8.74-2.2.66-3.29 2.48-3.23 5.41.13 6.23 6 10.3 11.15 13.9 4.36 3 8.12 5.65 7.09 9a.74.74 0 0 1-.68.46ZM1327.44 202.38a.74.74 0 0 1-.73-.67c-.2-2.25 1.25-5.14 2.65-7.94s3-5.89 2.2-7.39c-.54-1.07-1.36-.94-3.6 0-1.6.67-3.42 1.42-4.76.23a3.68 3.68 0 0 1-1.27-2.67c-.09-2.4 1.82-5.62 5.86-9.83a.73.73 0 0 1 1.06 1c-3.7 3.86-5.53 6.8-5.46 8.76a2.25 2.25 0 0 0 .78 1.64c.62.54 1.68.16 3.23-.49 1.79-.75 4.23-1.76 5.47.71 1.07 2.15-.52 5.32-2.2 8.69-1.31 2.62-2.67 5.33-2.5 7.16a.73.73 0 0 1-.67.79ZM1296.4 191.17a.74.74 0 0 1-.66-.41 6.44 6.44 0 0 1 1.21-6.84c1.51-1.79 3.53-2.61 5.29-2.11 1.41.4 3.24 1.8 3.9 6.21a.73.73 0 0 1-.62.83.72.72 0 0 1-.83-.62c-.42-2.83-1.44-4.61-2.85-5a3.91 3.91 0 0 0-3.77 1.65 5 5 0 0 0-1 5.25.73.73 0 0 1-.34 1 .71.71 0 0 1-.33.04ZM1223.07 197.5h-.07a.74.74 0 0 1-.61-.84c1.85-12.09 9.74-19.93 22.24-22.06 6.23-1.06 13.44-.69 21.44 1.1a.74.74 0 0 1 .55.88.72.72 0 0 1-.87.55c-7.81-1.76-14.84-2.12-20.88-1.09-11.82 2-19.29 9.42-21 20.84a.71.71 0 0 1-.8.62Z" class="colorfa9494 svgShape"/><path fill="#fab994" d="M1259.11 196.37a1.48 1.48 0 0 1-.82-.24c-.75-.49-.93-1.56-1.13-2.69-.28-1.65-.46-2.35-1.13-2.27s-1 .7-1.55 1.76c-.93 1.71-2.33 4.3-6.52 3.08-1.75-.51-2.74-2-2.79-4.13-.07-3.15 2.09-7.71 4.89-8.67a3.19 3.19 0 0 1 3.79 1.42.73.73 0 0 1-1.18.87c-.65-.88-1.34-1.18-2.14-.91-2 .67-4 4.4-3.9 7.25 0 1.51.62 2.44 1.74 2.77 3.05.89 3.87-.62 4.82-2.37.64-1.18 1.3-2.4 2.71-2.53 2-.19 2.45 2 2.7 3.48.1.55.28 1.58.5 1.72 1.08-.26 2.16-1.89 3-3.2a7.55 7.55 0 0 1 2.29-2.66.73.73 0 1 1 .64 1.31 8 8 0 0 0-1.71 2.16c-1 1.6-2.25 3.42-3.8 3.79a1.71 1.71 0 0 1-.41.06ZM1239.36 192.61a.73.73 0 0 1-.73-.72c0-.55-.15-13.33 5.68-17.18a.73.73 0 1 1 .8 1.22c-5.16 3.41-5 15.81-5 15.93a.73.73 0 0 1-.72.75ZM1261.81 213a12.56 12.56 0 0 1-5.22-1.11c-3.16-1.45-5.13-4-5-6.55.17-3.76 2.55-3.87 5.84-4a34.92 34.92 0 0 0 9.29-1.42c4.3-1.32 6.12-4.07 7.88-6.73 2.09-3.17 4.08-6.13 9.68-5.8a.73.73 0 0 1 .68.77.71.71 0 0 1-.78.69c-4.73-.3-6.35 2.1-8.36 5.14-1.82 2.75-3.87 5.86-8.67 7.32a35.94 35.94 0 0 1-9.65 1.49c-3.51.15-4.34.28-4.45 2.62-.09 1.9 1.58 4 4.16 5.15 3.52 1.61 9.06 1.63 14.09-3.13a72 72 0 0 0 6.59-7.26c3.56-4.37 5.72-7 11-5.25 2.52.85 4.13 2.16 4.79 3.91a6.12 6.12 0 0 1-.5 4.87.72.72 0 0 1-1 .26.73.73 0 0 1-.27-1 4.65 4.65 0 0 0 .38-3.63c-.49-1.31-1.8-2.33-3.88-3-4.29-1.43-5.88.51-9.36 4.78a73 73 0 0 1-6.71 7.4 15.18 15.18 0 0 1-10.53 4.48ZM1309.7 216.25a94.44 94.44 0 0 0-4.15 8.69l-.76-.15a5 5 0 0 1-.55.47.7.7 0 0 1-.12-.73c1.23-3 2.78-6.05 4.3-8.95 2.48-4.79 4.85-9.32 3.8-11.08-.35-.61-1.26-.9-2.66-.9-3.8 0-7.19 2.68-10.47 5.26-3.94 3.13-7.69 6.08-11.4 3.27a.71.71 0 0 1-.15-1 .75.75 0 0 1 1-.15c2.69 2 5.41.09 9.62-3.24 3-2.4 6.43-5.09 10.29-5.53.35 0 .7-.06 1.08-.06a2.37 2.37 0 0 1 .47 0c1.72.06 2.83.59 3.45 1.58 1.55 2.47-.82 6.91-3.75 12.52Z" class="colorfa9494 svgShape"/><path fill="#fab994" d="M1309.56 203.6a.74.74 0 0 1-.65-.4c-2.73-5.28-.32-11.18 2.39-13.24 1.6-1.22 3.32-1.24 4.6-.06a.73.73 0 1 1-1 1.07 2 2 0 0 0-2.73.15c-2.31 1.76-4.34 6.83-2 11.41a.73.73 0 0 1-.31 1 .72.72 0 0 1-.3.07Z" class="colorfa9494 svgShape"/><path fill="#ffbd97" d="M1176.31 1119c12.73 9.79 12.73 22 12.73 22s4.89-8.32 3.91-14.2a29.29 29.29 0 0 0-3.91-10.28s14.68-6.85 11.26-16.64-8.81-10.77-8.81-10.77 3.91-5.38 1-16.64-10.28-11.75-10.28-11.75 6.37-11.26 2.94-20.07-8.81-10.28-8.81-10.28 5.87-7.34 3.92-14.2-43.28-44-59.09-35.24-3.08 32.8-3.08 32.8a26.76 26.76 0 0 0-9.38 22.51c1.06 14.69 12.46 16.16 12.46 16.16s-7 6.36-3.08 19.58 17.13 12.72 17.13 12.72-7.34 16.65 6.37 29.37 34.72 4.93 34.72 4.93ZM1242.39 1101.91c-5.38-21.54 19.09-24 19.09-24s2.94-16.15 12.24-19.58 18.11 2 18.11 2-1-10.56 10.77-16.21c13.22-6.37 21.54 0 21.54 0s-3.92-20.56 5.38-29.37 19.58-47.17 45-41 14.19 36.06 14.19 36.06 9.79 5.87 8.33 20.56-14.69 13.22-14.69 13.22 2 14.68-6.85 22.51-23.5 6.9-23.5 6.9-2.94 10.28-15.66 15.66-24-1-24-1 3.92 11.26-2 19.58a20.31 20.31 0 0 1-14.19 8.81s6.36 21.54-11.75 25-42.01-39.14-42.01-39.14Z" class="colorff9797 svgShape"/><path fill="none" stroke="#f5a97d" stroke-linecap="round" stroke-miterlimit="10" stroke-width="1.76" d="M1183.78 1114.14c-3.68-28.26-24.6-41.11-34.15-67.18s-.73-44.42-.73-44.42M1269.29 1105.47c11.08-31.71 85.57-42.72 81.53-90.08" class="colorStrokef57d7d svgStroke"/><path fill="#f5a97d" d="M1379.7 975.11c6.85 10.17-5.39 18.62-5.39 18.62s2.3 14.51-12 23.49a34.33 34.33 0 0 1-24.17 4.41s-6.26 13.67-14.79 10.75 1.33-27.67 18.68-38.06a380.27 380.27 0 0 1 37.67-19.21ZM1121.14 981c-10.67 9.18-3.56 23.23 6.1 26.31 11.5 3.67 18 1.05 18 1.05s6.1 30.43 35.39 11.87c25.75-16.35-59.49-39.23-59.49-39.23Z" class="colorf57d7d svgShape"/><path fill="#ffbd97" d="M1121.14 981c10.14-53.36 50.28-25.49 50.28-25.49s4.4-5.62 19.58-3.77 18.11 15.74 18.11 15.74 10.77-8.19 21.54-6.64 13.7 15.09 13.7 15.09 7.34-8.83 17.62-9.47 16.16 9.47 16.16 9.47 1-11.41 11.74-16.39 17.63 5.23 17.63 5.23 3.29-11.75 11.92-14.89 15.49 4.2 15.49 4.2 12.73-13.22 25.94-9.3 8.81 14.76 8.81 14.76 12.55 2.51 10.68 16.39-10.68 16.89-10.68 16.89 2.45 12.17-11.74 21.47-22 0-22 0-.08 14.16-12.53 18.09-18-1.94-18-1.94-9.14 10.77-20.89 13.22-15.66-8.33-15.66-8.33a29.11 29.11 0 0 1-27.21 8.69c-17.34-3.3-16.85-19-16.85-19s-7.77 14.19-24 10.76-14.22-19.09-14.22-19.09-12.73 10.29-26.92 3.93-10.77-18.12-10.77-18.12-10.77 6.36-24.48-2-3.25-19.5-3.25-19.5Z" class="colorff9797 svgShape"/><path fill="#ffddc9" d="M1293.55 1199.32c-56.54-16.89-63.52-54.34-65-69.76s6.6-30 13.08-33c13-5.94 39.06 14.25 43.46 29.67a47.58 47.58 0 0 1-.73 28.27s4.77-3.67 9.18 2.93.01 41.89.01 41.89Z" class="colorffc9c9 svgShape"/><path fill="none" stroke="#f5a97d" stroke-linecap="round" stroke-miterlimit="10" stroke-width="1.76" d="M1122.92 979.66c28.86-22.15 43.37-14.47 89.12 7.09 80.77 38.06 155.94-25.93 155.94-25.93" class="colorStrokef57d7d svgStroke"/><path fill="none" stroke="#f5a97d" stroke-linecap="round" stroke-miterlimit="10" stroke-width="1.17" d="M1165.81 1075.29s-.51 10-9.08 15.11M1159.9 1066.67s-13.45 6.36-20.79 2.44M1153.06 1054.91s12.24-1.71 14-6.6M1145.52 1029.26s-7.63-2.49-9.59-6.16M1146.64 1036.52s7.15-2.66 10.09-9.26M1186.07 974.78s-4.73-10.64 4.93-15.07M1182.16 973.14s-13.39 2.48-16.35 9.57M1205.46 983.65s-12.51 7.14-10.79 18.89M1227.4 992.82a10.7 10.7 0 0 0 3.25-9.17M1241.62 996.5s5.67-8.37 9.83-8.26M1251.45 998s-5.51 12.11-2.51 20.67M1266.62 998.84s-5.14 13 0 19.85M1303.09 993.73s-6.12-10.48-1.47-19M1330.67 983.65s-4.82-6.32-1.64-13.17M1342 977.93s1 8.94 8.94 12.86M1350.58 1024.6s6.36 17.1 19.33 16.12M1342 1044.08a17.53 17.53 0 0 1 13.92 10.83M1328 1057.2s5.25 10.93 4 16.32M1310.13 1069.85s-18.54-3.18-25.4 0M1287 1084.87s.91 8 5.56 13.37" class="colorStrokef57d7d svgStroke"/><rect width="24.32" height="82.75" x="1246.69" y="375.56" fill="#fab994" rx=".42" class="colorfa9494 svgShape"/><rect width="24.32" height="12.99" x="1246.69" y="375.56" fill="#ffddc9" rx=".38" class="colorffc9c9 svgShape"/><rect width="24.32" height="12.99" x="1246.69" y="390.14" fill="#ffddc9" rx=".38" class="colorffc9c9 svgShape"/><rect width="24.32" height="12.99" x="1246.69" y="404.71" fill="#ffddc9" rx=".38" class="colorffc9c9 svgShape"/><rect width="24.32" height="12.99" x="1246.69" y="419.28" fill="#ffddc9" rx=".38" class="colorffc9c9 svgShape"/><rect width="24.32" height="12.99" x="1246.69" y="433.86" fill="#ffddc9" rx=".38" class="colorffc9c9 svgShape"/><rect width="24.32" height="12.99" x="1246.69" y="448.43" fill="#ffddc9" rx=".38" class="colorffc9c9 svgShape"/><path fill="#fab994" d="M1266.68 402.87c-7-2.06-14.53 27.84-.69 29.61s.69-29.61.69-29.61Z" class="colorfa9494 svgShape"/><path fill="#fab994" d="M1266 432.48c-7.26-15.59.31-45.12 15.56-44.4s14 30.48 4.69 43.46c-6.81 9.46-16.77 8.46-20.25.94ZM1251 402.87c7-2.06 14.53 27.84.68 29.61s-.68-29.61-.68-29.61Z" class="colorfa9494 svgShape"/><path fill="#fab994" d="M1251.7 432.48c7.26-15.59-.3-45.12-15.56-44.4s-14 30.48-4.69 43.46c6.8 9.46 16.77 8.46 20.25.94Z" class="colorfa9494 svgShape"/><rect width="6.24" height="22.98" x="1255.73" y="406.45" fill="#fab994" rx=".18" class="colorfa9494 svgShape"/><path fill="#ffcaab" d="M1238 392.67a2.92 2.92 0 1 1-2.92-2.92 2.92 2.92 0 0 1 2.92 2.92ZM1245.35 394a2.92 2.92 0 1 1-2.92-2.92 2.92 2.92 0 0 1 2.92 2.92ZM1241 404.71a2.92 2.92 0 1 1-2.92-2.92 2.92 2.92 0 0 1 2.92 2.92ZM1250.54 413.56a2.92 2.92 0 1 1-2.92-2.92 2.92 2.92 0 0 1 2.92 2.92ZM1245.35 433.86a2.92 2.92 0 1 1-2.92-2.92 2.91 2.91 0 0 1 2.92 2.92ZM1239 429.43a2.92 2.92 0 1 1-2.92-2.92 2.92 2.92 0 0 1 2.92 2.92Z" class="colorffabab svgShape"/><circle cx="1247.62" cy="422.2" r="2.92" fill="#ffcaab" class="colorffabab svgShape"/><path fill="#ffcaab" d="M1232.2 411.21a2.92 2.92 0 1 1-2.92-2.92 2.92 2.92 0 0 1 2.92 2.92ZM1287.56 393.62a2.92 2.92 0 1 1-2.92-2.91 2.92 2.92 0 0 1 2.92 2.91Z" class="colorffabab svgShape"/><circle cx="1271.73" cy="398.11" r="2.92" fill="#ffcaab" class="colorffabab svgShape"/><path fill="#ffcaab" d="M1286.76 428a2.92 2.92 0 1 1-2.92-2.92 2.92 2.92 0 0 1 2.92 2.92Z" class="colorffabab svgShape"/><circle cx="1278.18" cy="391.72" r="1.96" fill="#ffcaab" class="colorffabab svgShape"/><path fill="#ffcaab" d="M1270.77 404a2 2 0 1 1-2-2 2 2 0 0 1 2 2Z" class="colorffabab svgShape"/><circle cx="1257.57" cy="419.59" r="1.96" fill="#ffcaab" class="colorffabab svgShape"/><circle cx="1252.81" cy="429.43" r="1.96" fill="#ffcaab" class="colorffabab svgShape"/><circle cx="1242.43" cy="417.66" r="1.96" fill="#ffcaab" class="colorffabab svgShape"/><circle cx="1238.03" cy="398.11" r="1.96" fill="#ffcaab" class="colorffabab svgShape"/><circle cx="1229.28" cy="395.59" r="1.96" fill="#ffcaab" class="colorffabab svgShape"/><circle cx="1241.48" cy="428.04" r="1.96" fill="#ffcaab" class="colorffabab svgShape"/><circle cx="1272.33" cy="434.51" r="1.96" fill="#ffcaab" class="colorffabab svgShape"/><circle cx="1266.85" cy="424.17" r="1.96" fill="#ffcaab" class="colorffabab svgShape"/><circle cx="1290.1" cy="410.64" r="1.96" fill="#ffcaab" class="colorffabab svgShape"/><circle cx="1279.76" cy="409.24" r="1.96" fill="#ffcaab" class="colorffabab svgShape"/><circle cx="1270.37" cy="411.66" r="1.96" fill="#ffcaab" class="colorffabab svgShape"/><path fill="#ffcaab" d="M1235.17 420.24a2 2 0 1 1-2-2 2 2 0 0 1 2 2Z" class="colorffabab svgShape"/><circle cx="1251.63" cy="406.45" r="1.96" fill="#ffcaab" class="colorffabab svgShape"/><circle cx="1283.84" cy="416.94" r="1.96" fill="#ffcaab" class="colorffabab svgShape"/><path fill="#ffcaab" d="M1275.86 404a1.57 1.57 0 1 1-1.57-1.56 1.56 1.56 0 0 1 1.57 1.56ZM1283.44 422.2a1.56 1.56 0 1 1-1.56-1.56 1.56 1.56 0 0 1 1.56 1.56ZM1276.81 429.43a1.56 1.56 0 1 1-1.56-1.56 1.56 1.56 0 0 1 1.56 1.56ZM1260.21 425.78a1.57 1.57 0 1 1-1.56-1.56 1.56 1.56 0 0 1 1.56 1.56ZM1264.16 422.2a1.56 1.56 0 1 1-1.56-1.56 1.56 1.56 0 0 1 1.56 1.56ZM1243 413.22a1.56 1.56 0 1 1-1.56-1.56 1.56 1.56 0 0 1 1.56 1.56ZM1232.8 402.77a1.56 1.56 0 1 1-1.56-1.57 1.56 1.56 0 0 1 1.56 1.57ZM1248.25 401.2a1.57 1.57 0 1 1-1.56-1.56 1.56 1.56 0 0 1 1.56 1.56ZM1237.63 415.12a1.56 1.56 0 1 1-1.56-1.56 1.56 1.56 0 0 1 1.56 1.56ZM1255.15 424.17a1.56 1.56 0 1 1-1.56-1.57 1.56 1.56 0 0 1 1.56 1.57ZM1279.74 433.86a1.56 1.56 0 1 1-1.56-1.57 1.56 1.56 0 0 1 1.56 1.57ZM1289.12 422.2a1.56 1.56 0 1 1-1.56-1.56 1.56 1.56 0 0 1 1.56 1.56ZM1278.37 416.68a1.56 1.56 0 1 1-1.56-1.56 1.56 1.56 0 0 1 1.56 1.56ZM1291.26 404.33a1.57 1.57 0 1 1-1.56-1.56 1.56 1.56 0 0 1 1.56 1.56Z" class="colorffabab svgShape"/><circle cx="1286.57" cy="407.28" r="1.34" fill="#ffcaab" class="colorffabab svgShape"/><circle cx="1288.13" cy="416.94" r="1.34" fill="#ffcaab" class="colorffabab svgShape"/><circle cx="1245.36" cy="407.28" r="1.34" fill="#ffcaab" class="colorffabab svgShape"/><circle cx="1238.96" cy="422.6" r="1.34" fill="#ffcaab" class="colorffabab svgShape"/><circle cx="1232.2" cy="425.12" r="1.34" fill="#ffcaab" class="colorffabab svgShape"/><circle cx="1229.28" cy="416.94" r="1.34" fill="#ffcaab" class="colorffabab svgShape"/><circle cx="1234.51" cy="409.69" r="1.34" fill="#ffcaab" class="colorffabab svgShape"/><circle cx="1240.95" cy="408.75" r="1.34" fill="#ffcaab" class="colorffabab svgShape"/><circle cx="1243.04" cy="403.35" r="1.34" fill="#ffcaab" class="colorffabab svgShape"/><path fill="#ffcaab" d="M1243.77 423.76a1.34 1.34 0 1 1-1.34-1.34 1.35 1.35 0 0 1 1.34 1.34Z" class="colorffabab svgShape"/><circle cx="1246.69" cy="429.43" r="1.34" fill="#ffcaab" class="colorffabab svgShape"/><circle cx="1251.63" cy="418.25" r="1.34" fill="#ffcaab" class="colorffabab svgShape"/><circle cx="1270.37" cy="416.68" r="1.34" fill="#ffcaab" class="colorffabab svgShape"/><circle cx="1274.66" cy="411.66" r="1.34" fill="#ffcaab" class="colorffabab svgShape"/><path fill="#ffcaab" d="M1278.15 423.76a1.34 1.34 0 1 1-1.34-1.34 1.35 1.35 0 0 1 1.34 1.34Z" class="colorffabab svgShape"/><circle cx="1279.74" cy="414.02" r="1.34" fill="#ffcaab" class="colorffabab svgShape"/><circle cx="1284.44" cy="403.13" r="1.34" fill="#ffcaab" class="colorffabab svgShape"/><circle cx="1280.32" cy="396.88" r="1.34" fill="#ffcaab" class="colorffabab svgShape"/><path fill="#ffcaab" d="M1266.1 407.11a1.28 1.28 0 1 1-1.28-1.28 1.28 1.28 0 0 1 1.28 1.28Z" class="colorffabab svgShape"/><circle cx="1258.85" cy="409.24" r="1.28" fill="#ffcaab" class="colorffabab svgShape"/><path fill="#ffcaab" d="M1287.56 411.66a1.56 1.56 0 1 1-1.56-1.56 1.56 1.56 0 0 1 1.56 1.56ZM1264.77 411.26a1.56 1.56 0 1 1-1.56-1.57 1.56 1.56 0 0 1 1.56 1.57ZM1281.88 401.79a1.57 1.57 0 1 1-1.56-1.56 1.56 1.56 0 0 1 1.56 1.56ZM1277.78 396.15a1.56 1.56 0 1 1-1.56-1.56 1.56 1.56 0 0 1 1.56 1.56ZM1289.7 399.12a1.57 1.57 0 1 1-1.57-1.56 1.56 1.56 0 0 1 1.57 1.56ZM1271.73 429.43a2.92 2.92 0 1 1-2.92-2.92 2.92 2.92 0 0 1 2.92 2.92ZM1267.8 416.48a2.92 2.92 0 1 1-2.92-2.92 2.92 2.92 0 0 1 2.92 2.92ZM1258.65 413.56a2.92 2.92 0 1 1-2.92-2.92 2.92 2.92 0 0 1 2.92 2.92ZM1275.25 422.2a2.92 2.92 0 1 1-2.92-2.92 2.92 2.92 0 0 1 2.92 2.92Z" class="colorffabab svgShape"/><path fill="#f1ceba" d="M1336.86 491.91c4.66-20.25 102.85 1.46 90.3 32.71s-96.23-6.92-90.3-32.71ZM1433.6 533.82c16.21-17.92 159.27 257.74 151.41 268.4s-180.73-235.99-151.41-268.4Z" class="colorbaddf1 svgShape"/><path fill="#f1ceba" d="M1579.32 802.92c16.5-1.45 16.63 19.65 7.63 20.29s-25.72-18.71-7.63-20.29ZM1598.58 817.79c24.37-7.58 163 202.35 159.74 210.85s-169.02-207.97-159.74-210.85Z" class="colorbaddf1 svgShape"/><path fill="#f1ceba" d="M1587.27 827.78c5.07-17.67 155.81 202.17 156.25 208.35S1584.05 839 1587.27 827.78ZM1034.82 1632.46c-17.37 1-39.26 56.81-10 70.7s43.63-39.61 35.43-57.34-15.61-13.91-25.43-13.36Z" class="colorbaddf1 svgShape"/><path fill="#f1ceba" d="M1075.39 1683.06c-8.19-16.14-33.53 44-28.35 48.6s41.26-23.15 28.35-48.6ZM1027.82 1729.25c-23.31-14.43 2.71 439 10 433.51s18.61-415.76-10-433.51ZM1072.63 1735.41c-14.86 2.27-26.1 420.79-19.19 417.88s57.7-423.77 19.19-417.88ZM1169.08 1200.66c-6.95-17.34-28.47-49.45-38.92-42.69s-103.42 441.9-78.15 456.42 125.15-393.59 117.07-413.73Z" class="colorbaddf1 svgShape"/><path fill="#ffbf66" d="M1890.25 2264.83A10.44 10.44 0 0 1 1880 2256L1686.4 982.53a10.43 10.43 0 1 1 20.6-3.13l193.55 1273.43a10.45 10.45 0 0 1-10.33 12ZM1593.53 2264.83a10.45 10.45 0 0 1-10.31-8.87L1389.67 982.53a10.43 10.43 0 1 1 20.63-3.13l193.56 1273.43a10.45 10.45 0 0 1-10.33 12Z" class="colore09389 svgShape"/><path fill="#ab5422" d="M1596.57 1581.83c11.62 4.9 13.16 13.41 12.13 16.77s-36.9 30.19-44.12 26.06c-5.47-3.13 11.09-34.32 14.45-37.67s17.54-5.16 17.54-5.16Z" class="color2264ab svgShape"/><path fill="#ffbf66" d="M1713.84 1085.93H1418a5.22 5.22 0 0 1 0-10.43h295.85a5.22 5.22 0 0 1 0 10.43ZM1734.4 1264.92h-295.85a5.22 5.22 0 0 1 0-10.43h295.85a5.22 5.22 0 0 1 0 10.43ZM1770.8 1443.91H1475a5.22 5.22 0 1 1 0-10.43h295.8a5.22 5.22 0 1 1 0 10.43ZM1792.41 1622.9h-295.85a5.22 5.22 0 0 1 0-10.43h295.85a5.22 5.22 0 0 1 0 10.43ZM1815.56 1801.89h-295.85a5.22 5.22 0 0 1 0-10.43h295.85a5.22 5.22 0 0 1 0 10.43ZM1849.33 1980.87h-295.84a5.21 5.21 0 1 1 0-10.42h295.84a5.21 5.21 0 1 1 0 10.42ZM1875.72 2159.86h-295.84a5.22 5.22 0 1 1 0-10.43h295.84a5.22 5.22 0 1 1 0 10.43Z" class="colore09389 svgShape"/><path fill="#ab5422" d="M1490.07 1056.58c8.14 12.13 4.37 21.46 1.31 24.1s-54.12 6.39-58.52-2.22c-3.33-6.51 31.85-26.7 37.15-27.88s20.06 6 20.06 6ZM1409.12 934.42c12.61 7.38 13.27 17.43 11.66 21.14s-46 29.28-53.66 23.44c-5.83-4.42 17.08-37.89 21.33-41.26s20.67-3.32 20.67-3.32Z" class="color2264ab svgShape"/><path fill="#966b52" d="M1473.77 612.61c9.81 3.87 23.69 2.06 27.17-9.32a13.49 13.49 0 0 0-3.4-13.39s14-18 3.88-33.71c-9.12-14.13-22.73-5-22.73-5s-8.23-13.85-21-7c-14.1 7.55-8.09 24.61-5.08 28s21.16 40.42 21.16 40.42Z" class="color965752 svgShape"/><path fill="#ffb58a" d="M1478.56 635.1c-.07 2.54-28 7.14-26.79 4a108.83 108.83 0 0 0 4.25-17.8 29.33 29.33 0 0 0 .38-8.46c-.41-2.14.73-4.16 2.55-5.82 3.29-3.21 8.84-5.28 10.38-5.14 2.39.26 4.33 2.83 4.33 2.83a5.24 5.24 0 0 0 .09.88c.63 7.41 4.88 27.05 4.81 29.51Z" class="colorfab2a3 svgShape"/><path fill="#e6a783" d="M1473.75 605.56c-2.53 3.14-5.26 2.74-5.26 2.74s-6.83 11.16-12.47 13a29.33 29.33 0 0 0 .38-8.46c-.41-2.14.73-4.16 2.55-5.82 5.05-1.9 14.8-1.46 14.8-1.46Z" class="colore69283 svgShape"/><path fill="#82563c" d="M1422.56 610.08a1 1 0 0 0 1-1c0-2.85 2.76-14.08 16.23-16.86a1 1 0 0 0 .74-1.13.94.94 0 0 0-1.12-.74c-14.74 3-17.76 15.55-17.76 18.73a1 1 0 0 0 .91 1Z" class="color82433c svgShape"/><path fill="#ffb58a" d="M1454.73 565.84c-10.63 4.76-31.44 39.06-12.2 47.78s37.06-17.27 36.73-26.12-24.53-21.66-24.53-21.66Z" class="colorfab2a3 svgShape"/><path fill="#ffb58a" d="M1445.2 574.66c-6.44 1.88-8.21 3.19-8.26 5.38s2.16 4.34 3.8 4.78 4.46-10.16 4.46-10.16ZM1475 594.9c4-.49 6.19 5.71 1.44 9.41-4.53 3.54-8.54 2.62-9.57-.31s8.13-9.1 8.13-9.1Z" class="colorfab2a3 svgShape"/><path fill="#68381b" d="M1451.52 581.65c-.78 1.48-1.93 2.42-2.56 2.08s-.49-1.8.3-3.28 1.93-2.42 2.56-2.08.49 1.8-.3 3.28ZM1457.84 579.44c-.09 1.38-5.74-4.07-5.62-4.92s1.1-.71 2.38 0 3.26 4.58 3.24 4.92Z" class="color681b3d svgShape"/><path fill="#ff6103" d="M1443.05 597.83c-.45 1.28-2.38 1.76-4.32 1.08s-3.13-2.27-2.68-3.55 2.38-1.76 4.32-1.08 3.13 2.27 2.68 3.55Z" class="colorfa6855 svgShape"/><path fill="#68381b" d="M1441.42 597.89a13.4 13.4 0 0 1-6-2.42.19.19 0 0 1 0-.3.32.32 0 0 1 .38 0c2.33 2.07 9 3.3 10.92 2a.35.35 0 0 1 .38 0 .18.18 0 0 1 0 .3c-1.1.79-3.36.83-5.68.42Z" class="color681b3d svgShape"/><ellipse cx="1454.14" cy="588.92" fill="#fa9e69" rx="2.23" ry="3.92" transform="rotate(-73.37 1454.072 588.935)" class="colorfa7369 svgShape"/><path fill="#e6a783" d="M1471.66 602.79s2.79-4.61 3.77-4.31.58 1.82-.52 2.94a4.31 4.31 0 0 1-3.25 1.37Z" class="colore69283 svgShape"/><path fill="#966b52" d="M1477 595.26c2.24-7.76-.89-14.34-7.16-18.56-7.87-5.28-18.8-3.08-19.58-9s5.76-6.9 12-6.2 24 14.27 24.42 22.64-9.68 11.12-9.68 11.12Z" class="color965752 svgShape"/><path fill="#d7a182" d="M1451.72 1056.89c3.19 3 42.49 2.43 43.1 0s-9-91.5 0-145.09c6.43-38.58 19.34-68.11 23.82-90.83 1.76-8.86 2.24-16.67.57-23.58a11.8 11.8 0 0 0-4.9-7.29v-.05c-9.15-6.14-28-1.38-41.73 3.53-9.43 3.38-16.53 6.81-16.53 6.81-1.47 5.43-2.81 11-4 16.43-1.15 5-2.15 9.91-3.1 14.86-.62 3.2-1.14 6.34-1.72 9.53-17.95 106.7 1.77 213.01 4.49 215.68Z" class="color82b0d7 svgShape"/><path fill="#c37e56" d="M1447.14 841.21c14.25-2.48 40.71-9 55-24.74 0 0-30.87-4.79-50.2.35-1.15 5-2.15 9.91-3.1 14.86-.6 3.2-1.12 6.32-1.7 9.53Z" class="color568dc3 svgShape"/><path fill="#d7a182" d="M1375.13 945.91c4.14 2 39.86-11.67 39.86-13.87s-19-79.73-1.76-90.64c7.24-4.57 20.77-7.1 35.63-9.72 20-3.47 42.49-7.09 55.63-16 5.24-3.57 9-8 10.53-13.62a17.76 17.76 0 0 0-.71-11.91v-.05a9.52 9.52 0 0 0-1-2.09c-11.34-20.25-58.26-29.39-58.26-29.39-59.63 20.48-85.83 36.77-95.36 59.11s11.31 126.13 15.44 128.18Z" class="color82b0d7 svgShape"/><path fill="#c37e56" d="M1447.14 762.76c5 10.38 14.53 21.29 25.39 30.82a160.24 160.24 0 0 0 32 22 56.21 56.21 0 0 0 14.15 5.34c1.76-8.86 2.24-16.67.57-23.58a11.8 11.8 0 0 0-4.9-7.29V790a9.52 9.52 0 0 0-1-2.09 45 45 0 0 0-8.15-6.77c-13-7.9-58.06-18.38-58.06-18.38Z" class="color568dc3 svgShape"/><path fill="#d7a182" d="M1436.14 698.31c.62 28.58 7 55.26 9 61.35 3 9 67.26 63.12 81.17 51.64s-14.86-144.52-47.4-184a1.4 1.4 0 0 0-1-.48c-3.71 0-29.2 1.14-37.58 30.77a124.41 124.41 0 0 0-4.14 27.77c-.14 4.29-.19 8.64-.05 12.95Z" class="color82b0d7 svgShape"/><ellipse cx="1330.24" cy="632.72" fill="#82563c" rx="10.62" ry="10.54" class="color82433c svgShape"/><path fill="#c37e56" d="M1436.14 698.31c23.68-5.81 43.39-25.43 41.73-44.82 0 0-26.58 18.34-41.63 31.82-.19 4.34-.24 8.69-.1 13ZM1371.73 838.75c-3.53 5.55-12.38-7-11.49-12.9s15.66 6.35 11.49 12.9ZM1458.41 940c-3.51 8.24-13.83-2.33-15-9.42s17 4.7 15 9.42Z" class="color568dc3 svgShape"/><path fill="#82563c" d="M1360.92 661.05c12.67 0 25.52-10 35.48-27.86 10.41-18.62 22.62-22.34 25.59-23a7.28 7.28 0 0 0 3 2c8.81 3.69 32.46 5.91 49.4-10.75a1 1 0 0 0 0-1.35 1 1 0 0 0-1.34 0c-15.63 15.37-35.67 13.08-41.44 12s-8-2.6-8.16-3.05V608l-1 .22c-.62.06-15.31 1.89-27.71 24.08-10 17.88-22.78 27.66-35.27 26.84-9.72-.64-17.94-7.68-22.56-19.3a1 1 0 1 0-1.77.7c4.9 12.34 13.72 19.81 24.21 20.5.52-.04 1.05.01 1.57.01Z" class="color82433c svgShape"/><path fill="#ffb58a" d="M1348.73 656.16c-1.79-9.33-6.35-19.65-15.08-20s-9.73 13.09-8.14 17.46 13.3 14.29 17.86 12.31 5.36-9.77 5.36-9.77Z" class="colorfab2a3 svgShape"/><path fill="#d7a182" d="M1471.66 640.15c-15.19-11.3-56.05 27-64.09 28.22s-56-16.76-58-15.08-9.23 12.21-8.63 15.13 40.14 30.58 74.06 29.42 80-40.36 56.66-57.69Z" class="color82b0d7 svgShape"/><path fill="#82563c" d="M1471.58 600.74a2.18 2.18 0 1 0 2.17-2.18 2.17 2.17 0 0 0-2.17 2.18Z" class="color82433c svgShape"/><path fill="#966b52" d="M1532.07 1144.77c1.25-11.27 19.79-14.49 19.78-28.12 0-12.27-8.95-13.47-8.95-13.47s.78-18.06-14.81-22.7c-13.1-3.91-31.29 7-30.31 17.13.75 7.9 16 13.71 27.58 14.72s-.17 24.57.17 27.84 6.54 4.6 6.54 4.6Z" class="color965752 svgShape"/><path fill="#ffb58a" d="M1539.6 1165.81c.37 2.56-26.79 12.1-26.13 8.71a111.09 111.09 0 0 0 1.11-18.58 29.91 29.91 0 0 0-1.11-8.54c-.79-2.07 0-4.3 1.53-6.28 2.72-3.8 7.92-6.85 9.49-7 2.44-.17 4.83 2.06 4.83 2.06a5 5 0 0 0 .25.87c1.94 7.33 9.66 26.28 10.03 28.76Z" class="colorfab2a3 svgShape"/><path fill="#e6a783" d="M1529.57 1137.08c-2 3.59-4.79 3.67-4.79 3.67s-4.87 12.39-10.2 15.19a29.91 29.91 0 0 0-1.11-8.54c-.79-2.07 0-4.3 1.53-6.28 4.74-2.76 14.57-4.04 14.57-4.04Z" class="colore69283 svgShape"/><path fill="#ffb58a" d="M1503.51 1100.65c-9.8 6.65-24.6 44.68-3.78 50s34.06-23.83 32.16-32.64-28.38-17.36-28.38-17.36Z" class="colorfab2a3 svgShape"/><path fill="#ffb58a" d="M1495.52 1111.17c-6.11 3-7.66 4.65-7.32 6.85s2.93 4 4.65 4.11 2.67-10.96 2.67-10.96ZM1529 1126.18c3.87-1.19 7.2 4.63 3.1 9.17-3.91 4.34-8.09 4.13-9.64 1.38s6.54-10.55 6.54-10.55Z" class="colorfab2a3 svgShape"/><path fill="#82563c" d="M1364.88 1153.35h17.63v30.06h-17.63z" transform="rotate(-33.35 1373.676 1168.374)" class="color82433c svgShape"/><path fill="#966b52" d="M1394.52 1038.75a88.66 88.66 0 1 0-25.27 122.81 88.66 88.66 0 0 0 25.27-122.81Zm-35 108.08a71 71 0 1 1 20.25-98.36 71 71 0 0 1-20.24 98.36Z" class="color965752 svgShape"/><circle cx="1320.48" cy="1087.51" r="71.03" fill="#ffffff" opacity=".3" class="colorfff svgShape"/><path fill="#966b52" d="m1378.41 1176.83-8.12 5.35a3.4 3.4 0 0 0-1.31 4.15c6.2 15 37.93 90.49 55.75 108.78 15.36 15.76 32.71 6.33 38 .4 4.87-5.41-67-101.07-79.77-117.92a3.39 3.39 0 0 0-4.55-.76Z" class="color965752 svgShape"/><path fill="#966b52" d="m1379.59 1176.06 8.13-5.35a3.4 3.4 0 0 1 4.33.44c11.32 11.62 68.11 70.63 77.85 94.23 8.41 20.34-7.12 32.54-14.68 35.1-6.9 2.34-66.31-101.54-76.75-119.9a3.38 3.38 0 0 1 1.12-4.52Z" class="color965752 svgShape"/><path fill="#fffcfa" d="M1275.18 1107.27c-11.41 10.67-15.72-50.76 5.72-61.25s3 53.11-5.72 61.25ZM1284.41 1122.51c-6.11 4.28 16.14 26.36 20.09 20.15s-10.74-26.66-20.09-20.15Z" opacity=".7" class="colorfafcff svgShape"/><path fill="#ffb58a" d="M1401.1 1221.16c-.94-8.71-13.72-22-14.65-22.21-2.3-.46-1.31 9.57-1.31 9.57s-13-18.8-17.1-16.41 4.51 41.87 33.06 40.68 0-11.63 0-11.63Z" class="colorfab2a3 svgShape"/><path fill="#966b52" d="M1531 1126.19c-.64-8.49-.15-13.21-11.35-16.56-8.64-2.58-15.16-3-18.87-6.51-4.12-3.85 7.39-10.45 17.9-6.45s15.81 13.35 17.29 17.61-4.97 11.91-4.97 11.91Z" class="color965752 svgShape"/><path fill="#ab5422" d="M1709.44 1473.27c12.48-1.74 18.17 4.79 19 8.2s-16.23 44.82-24.55 45c-6.3.11-8-35.16-6.88-39.76s12.43-13.44 12.43-13.44Z" class="color2264ab svgShape"/><path fill="#d7a182" d="M1710.64 1471c.5 7.06-12.38 22.91-16.51 25-3.22 1.61-76.13-48.18-118.9-88.39a218.64 218.64 0 0 1-21.55-22.87 72.19 72.19 0 0 1-4.87-6.93s-2.31-49 1.81-60.73 16.81-15.82 25.31-10.53 18 37.69 50.58 82.11 83.6 75.23 84.13 82.34Z" class="color82b0d7 svgShape"/><path fill="#c37e56" d="M1575.23 1407.53a218.64 218.64 0 0 1-21.55-22.87c3.14-26.79 14.7-77.82 14.7-77.82 6.68 36.29 8.21 80.42 6.85 100.69Z" class="color568dc3 svgShape"/><path fill="#d7a182" d="M1604.29 1578.49c-1 3.59-28.89 13.38-32 11.32s-50.82-93.64-69.19-257.33c-.54-4.79-1-9.66-1.53-14.62 0 0 19.77-5.82 38.11-10 14-3.22 27.12-5.53 30-3.63a4.81 4.81 0 0 1 1.69 2.76 22.29 22.29 0 0 1 .66 5c.7 14.9-4.95 48.88-4.29 92.11 1.09 66.56 37.63 170.76 36.55 174.39Z" class="color82b0d7 svgShape"/><path fill="#c37e56" d="M1529.66 1462.53c3.66 3.66 11.18-15.65 6.71-17.72s-12.04 12.39-6.71 17.72ZM1600.66 1427.69c3.47 3.09 7.78-11.62 3.56-13.12s-7.86 9.28-3.56 13.12ZM1578.33 1306.84a37.59 37.59 0 0 1-6.24 5.16c-17.25 11.73-50 18.83-68.94 20.48-.54-4.79-1-9.66-1.53-14.62 0 0 19.77-5.82 38.11-10 11.76-.49 24.23-.74 31.7-.87Z" class="color568dc3 svgShape"/><path fill="#d7a182" d="M1581.09 1307.87c-3.8 4.5-74.89 20.31-81.12 13.79-4-4.13-6.86-40.5-6.52-73.77a322.9 322.9 0 0 1 1.81-34.27 93.35 93.35 0 0 1 2.48-14c9.41-34.3 38.93-42 40.66-39 28.53 49.94 46.49 142.79 42.69 147.25Z" class="color82b0d7 svgShape"/><path fill="#c37e56" d="M1537.5 1187.82c-6 29-23.87 56.43-44 60.07a322.9 322.9 0 0 1 1.81-34.27c12.83-8.84 42.19-25.8 42.19-25.8Z" class="color568dc3 svgShape"/><path fill="#d7a182" d="M1527.13 1166.65c-17.73-.75-45.81 32.81-59.62 37.94s-62.27 11-63.4 11.53-7 16.67-5.07 20.51 63.49 12.31 90.21 3.33 43.88-38.17 48.16-51.78c3.92-12.5-3.03-21.18-10.28-21.53Z" class="color82b0d7 svgShape"/><path fill="#68381b" d="M1503.09 1117.06c-.53 1.62-1.51 2.76-2.2 2.53s-.81-1.72-.28-3.34 1.51-2.76 2.19-2.54.82 1.72.29 3.35ZM1509 1113.73c.15 1.39-6.46-3.07-6.49-3.93s1-.92 2.38-.42 4.11 4 4.11 4.35Z" class="color681b3d svgShape"/><path fill="#ff6103" d="M1497.45 1134.75c-.22 1.36-2.07 2.19-4.12 1.85s-3.54-1.72-3.32-3.08 2.08-2.19 4.13-1.85 3.54 1.72 3.31 3.08Z" class="colorfa6855 svgShape"/><path fill="#68381b" d="M1495.83 1135.1a13.5 13.5 0 0 1-6.43-1.36.19.19 0 0 1-.05-.3.3.3 0 0 1 .38 0c2.7 1.66 9.56 1.72 11.3.1a.33.33 0 0 1 .38 0 .18.18 0 0 1 0 .3c-.92.83-3.18 1.26-5.58 1.26Z" class="color681b3d svgShape"/><path fill="#fa9e69" d="M1511 1124.33c-.14 1.24-2 2-4.22 1.79s-3.85-1.47-3.71-2.71 2-2 4.23-1.79 3.8 1.47 3.7 2.71Z" class="colorfa7369 svgShape"/><path fill="#e6a783" d="M1527 1134.68s2-5.11 3-5 .91 1.72 0 3a4.44 4.44 0 0 1-3 2Z" class="colore69283 svgShape"/><path fill="#ab5422" d="M2151.14 2241.16c7.72 11.51 4.15 20.37 1.24 22.87s-51.34 6.06-55.51-2.1c-3.16-6.19 30.22-25.33 35.24-26.45s19.03 5.68 19.03 5.68ZM2082.29 2239.83c7.72 11.51 4.15 20.36 1.24 22.87s-51.34 6.06-55.51-2.11c-3.16-6.18 30.22-25.33 35.24-26.45s19.03 5.69 19.03 5.69Z" class="color2264ab svgShape"/><path fill="#966b52" d="M2098.43 1805.33c10.21 4.87 25.2 4 29.77-8a14.48 14.48 0 0 0-2.65-14.58s16.3-18.28 6.64-35.79c-8.71-15.79-24-7-24-7s-7.79-15.43-21.94-9.06c-15.64 7-10.47 25.74-7.5 29.59s19.68 44.84 19.68 44.84Z" class="color965752 svgShape"/><path fill="#ffb58a" d="M2101.91 1829.75c-.27 2.71-30.5 5.57-29 2.28a115.6 115.6 0 0 0 5.86-18.74 31.3 31.3 0 0 0 1-9c-.27-2.31 1.09-4.39 3.16-6 3.76-3.2 9.86-5 11.49-4.73 2.54.45 4.42 3.34 4.42 3.34a4.59 4.59 0 0 0 0 1c.23 7.86 3.31 29.22 3.07 31.85Z" class="colorfab2a3 svgShape"/><path fill="#e6a783" d="M2098.94 1797.79c-2.94 3.17-5.84 2.54-5.84 2.54s-8.13 11.44-14.3 13a31.3 31.3 0 0 0 1-9c-.27-2.31 1.09-4.39 3.16-6 5.59-1.73 15.98-.54 15.98-.54Z" class="colore69283 svgShape"/><path fill="#ffb58a" d="M2081.52 1753.88c-11.73 4.31-36.53 39.48-16.58 50.23s40.92-15.74 41.22-25.24-24.64-24.99-24.64-24.99Z" class="colorfab2a3 svgShape"/><path fill="#ffb58a" d="M2070.66 1762.62c-7 1.54-9 2.81-9.22 5.15s2 4.8 3.7 5.39 5.52-10.54 5.52-10.54ZM2101.09 1786.48c4.27-.24 6.2 6.57.85 10.18-5.11 3.45-9.33 2.17-10.22-1s9.37-9.18 9.37-9.18Z" class="colorfab2a3 svgShape"/><path fill="#68381b" d="M2076.92 1770.57c-1 1.53-2.25 2.44-2.9 2s-.39-2 .56-3.49 2.25-2.44 2.9-2 .39 1.92-.56 3.49ZM2083.83 1768.67c-.19 1.46-5.83-4.79-5.64-5.68s1.23-.68 2.55.18 3.14 5.13 3.09 5.5Z" class="color681b3d svgShape"/><path fill="#ff6103" d="M2066.65 1787.25c-.57 1.33-2.67 1.71-4.69.84s-3.19-2.66-2.61-4 2.68-1.71 4.7-.84 3.18 2.67 2.6 4Z" class="colorfa6855 svgShape"/><path fill="#68381b" d="M2064.91 1787.19a14.18 14.18 0 0 1-6.24-3 .2.2 0 0 1 0-.32.33.33 0 0 1 .4.06c2.34 2.39 9.35 4.2 11.54 3a.35.35 0 0 1 .4.07.2.2 0 0 1 0 .32c-1.23.61-3.65.49-6.1-.13Z" class="color681b3d svgShape"/><path fill="#fa9e69" d="M2083.12 1780c-.47 1.23-2.61 1.57-4.78.76s-3.57-2.48-3.1-3.72 2.6-1.57 4.78-.75 3.56 2.49 3.1 3.71Z" class="colorfa7369 svgShape"/><path fill="#e6a783" d="M2096.9 1794.67s3.33-4.72 4.36-4.33.48 2-.77 3.1a4.65 4.65 0 0 1-3.59 1.23Z" class="colore69283 svgShape"/><path fill="#966b52" d="M2103.2 1787c3-8.14.1-15.41-6.3-20.38-8-6.24-19.89-4.7-20.28-11.07s6.66-7 13.31-5.74 24.65 17 24.45 26-11.18 11.19-11.18 11.19Z" class="color965752 svgShape"/><path fill="#c37e56" d="M2072.79 1832.34c-24.68 19.38-31 25.71-42.34 28.37s-53.63-14.66-59.63-12-5.33 7.89-4 12.27 42 30 67.32 26.71 38.65-55.35 38.65-55.35Z" class="color568dc3 svgShape"/><path fill="#ab5422" d="M1861.22 1759.24c81.92-13.46 112.38-29.9 112.38-29.9l66.77 88.4-89.58 56.41s-21.21-4.17-58.48-59.15c-24.87-36.69-31.09-55.76-31.09-55.76Z" class="color2264ab svgShape"/><path fill="#ffb58a" d="M1960.27 1875.44c0-12.35-11.52-20.58-13-19.35s1.64 10.7 1.64 10.7-20.78-13.79-25.93-9.67 18.94 31.08 33.34 27.58 3.95-9.26 3.95-9.26Z" class="colorfab2a3 svgShape"/><path fill="#d7a182" d="M2046 2236.16c1.76 2.67 43.07 5.33 43.49 3.57.11-.32.7-7.89 1.49-20.09.38-5 .75-10.82 1.18-17.22 1-15.62 2.13-34.75 3.14-54.8 2.4-48.71 4-102.71 1.18-124-.54-4-1.23-6.82-2.08-8.26-2.62-4.16-7.31-6.77-12.85-8.31h-.05c-1-.27-2-.48-3-.7a11.61 11.61 0 0 0-1.28-.26c-8.85-1.6-19-1.18-26.28-.48-5.81.58-9.81 1.33-9.81 1.33-.26 4.16-.53 8.31-.74 12.47-6.05 103.27 3.87 214.19 5.61 216.75Z" class="color82b0d7 svgShape"/><path fill="#c37e56" d="M2053.16 2022.52c4.48 92.8 27.88 174.94 37.84 197.12.38-5 .75-10.82 1.18-17.22 1-15.62 2.13-34.75 3.14-54.8-15.46-50.37-42.16-125.1-42.16-125.1Z" class="color568dc3 svgShape"/><path fill="#d7a182" d="M2050.87 2005c0 .21.05.37.05.59.75 5.7 1.49 11.35 2.24 16.89 11.09 79.85 27.18 142.69 39 179.9 7.73 24.31 13.64 37.74 15.14 37.84 4 .32 52 2.4 53.72 0s-20-89.28-28-135.12c-6.24-35.82-4-68.38-4.37-86.88-.05-6-.43-10.5-1.39-13.22-2.93-8-42.16-4.32-63.21-1.76h-.05c-7.8 1-13.13 1.76-13.13 1.76Z" class="color82b0d7 svgShape"/><path fill="#c37e56" d="M2040.37 2019.43a73 73 0 0 0 12.79 3.09 190.12 190.12 0 0 0 43.34 1.12 184.79 184.79 0 0 0 32.19-5.38s-24.31-6.08-47.12-11.19c0-.06-.05 0-.05 0-1-.27-2-.48-3-.7a11.61 11.61 0 0 0-1.28-.26c-4.58-1.07-9-2-13.11-2.83h-.13c-7.83 1-13.16 1.76-13.16 1.76 0 .21.05.37.05.59-5.81.58-9.81 1.33-9.81 1.33-.23 4.16-.5 8.31-.71 12.47Z" class="color568dc3 svgShape"/><path fill="#d7a182" d="M2037.12 2007c6.23 12.9 93.28 14.23 98.18 9.75s-11.34-123.82-30.1-189.65c-.86-3.14-17.13-5-32.42 5.28-16.69 11.19-26.71 39.12-32.36 69.51-.85 4.47-1.6 9.06-2.24 13.64-6.02 41.86-4.42 84.47-1.06 91.47Z" class="color82b0d7 svgShape"/><path fill="#c37e56" d="M2038.18 1915.49c14.55-2.08 59.11-28 63.86-62.09 0 0-43.92 29.95-61.62 48.45-.85 4.47-1.6 9.06-2.24 13.64Z" class="color568dc3 svgShape"/><path fill="#d7a182" d="M2093.88 1837.06c-25.65-14.66-48.86 38-61.76 44s-68.28-9.82-71.94-7.48-7.68 12.48-6.68 15.81 64.74 33.76 97.39 14.1c43.52-26.23 63.99-54.43 42.99-66.43Z" class="color82b0d7 svgShape"/><path fill="#c37e56" d="M2062 2135.55c-3.37 6.75-18.43-2.22-19.1-8s20.87 4.45 19.1 8ZM2082.65 2134c-2-3.61 15.1-17.55 19.76-13.22s-15.1 21.88-19.76 13.22Z" class="color568dc3 svgShape"/><path fill="#e3dbd7" d="M1950.41 1770.79c3-15.12 60 21.77 52.89 37.87s-57.96-12.73-52.89-37.87ZM1931.33 1778.44c-15-3.47-5 63.67 12.62 63.82s12.37-58.04-12.62-63.82Z" class="colore3d7e3 svgShape"/><path fill="#ab5422" d="M855.55 1263c-7.18 10.48-3.85 18.54-1.15 20.82s47.7 5.51 51.58-1.92c2.93-5.62-28.08-23.05-32.75-24.07s-17.68 5.17-17.68 5.17ZM951.82 1263c-7.17 10.48-3.85 18.54-1.15 20.82s47.7 5.51 51.58-1.92c2.93-5.62-28.08-23.05-32.75-24.07s-17.68 5.17-17.68 5.17Z" class="color2264ab svgShape"/><path fill="#966b52" d="M969 789.16c14.52-.83 15.42-18.41 9.45-25-9.7-10.67-21.48-3.28-21.48-3.28s-14.29-17.88-33.18-6c-27.46 17.34-14.19 94.78-36.84 107.6s73.75 12.52 84.86 1.79 8.87-46-2.23-57.56-.58-17.55-.58-17.55Z" class="color965752 svgShape"/><path fill="#ffb58a" d="M924.17 852.45c-1.49 3.45 10.89 11.36 19.1 9.93s12.37-8.69 8.92-11c-2.5-1.54-4.17-7.61-4.76-13a27.12 27.12 0 0 1-.18-6.13c.42-4.88-15.32-15.12-18.47-17a4.66 4.66 0 0 1-.54-.29c-.24 11.54-2.58 33.98-4.07 37.49Z" class="colorfab2a3 svgShape"/><path fill="#ffb58a" d="M928.38 803c-4.21-2.48-9.41 1.81-7.18 7.51s6.94 6.2 8.92 4.21-1.74-11.72-1.74-11.72Z" class="colorfab2a3 svgShape"/><path fill="#e6a783" d="M925.62 805.39c-3.77 0-1.08 6.16 1.71 6.32s-1.71-6.32-1.71-6.32ZM928.24 815.08c3.57 14.93 13.3 22.49 19.19 23.39a27.12 27.12 0 0 1-.18-6.13c.42-4.88-15.86-15.42-19.01-17.26Z" class="colore69283 svgShape"/><path fill="#ffb58a" d="M954.51 834.48c10.65-1.37 15.94-9.75 17.07-22.07.12-1.25.18-2.55.18-3.86a95.43 95.43 0 0 0-2.38-22.13s-8.27-6.6-26-5.59-13.68 10.65-17.25 20.88 11.37 34.97 28.38 32.77Z" class="colorfab2a3 svgShape"/><path fill="#68381b" d="M963.43 803.6c0 1.77.66 3.19 1.41 3.18s1.33-1.46 1.3-3.23-.67-3.19-1.41-3.17-1.33 1.45-1.3 3.22ZM952.39 804.21c.17 1.76-.3 3.25-1 3.32s-1.48-1.3-1.64-3.06.3-3.25 1-3.32 1.48 1.3 1.64 3.06ZM944.9 796.27c-.46 1.08 6-.88 6.19-1.56s-.56-1-1.82-.92-4.27 2.21-4.37 2.48ZM968.94 796.27c.47 1.08-5.94-.88-6.18-1.56s.56-1 1.81-.92 4.26 2.21 4.37 2.48Z" class="color681b3d svgShape"/><path fill="#ff6103" d="M954.87 822.76c.06 1.19 1.72 2.08 3.7 2s3.54-1.16 3.47-2.36-1.72-2.08-3.7-2-3.53 1.16-3.47 2.36Z" class="colorfa6855 svgShape"/><path fill="#68381b" d="M956.36 823.21a14.12 14.12 0 0 0 6.24-.6c.12-.05.16-.16.08-.25a.32.32 0 0 0-.36-.07c-2.73 1.2-9.23.62-10.69-.94a.36.36 0 0 0-.36-.06c-.12.06-.15.17-.07.26.8.86 2.9 1.45 5.16 1.66Z" class="color681b3d svgShape"/><path fill="#fa9e69" d="M942.66 810.83c-.16 1.06 1.34 2.17 3.34 2.46s3.75-.33 3.91-1.4-1.34-2.17-3.34-2.47-3.76.34-3.91 1.41ZM967.36 811.05c.17 1.07 1.9 1.72 3.92 1.42.12 0 .18-.06.3-.06.12-1.25.18-2.55.18-3.86a5.65 5.65 0 0 0-1 .06c-2.04.29-3.52 1.39-3.4 2.44Z" class="colorfa7369 svgShape"/><path fill="#68381b" d="M958.6 815.07a3.29 3.29 0 0 0 2.56-1.28 2.79 2.79 0 0 0 .27-2.86A3.76 3.76 0 0 0 958 809a.23.23 0 0 0-.25.23.22.22 0 0 0 .22.24 3.32 3.32 0 0 1 3 1.64 2.32 2.32 0 0 1-.23 2.38 3.14 3.14 0 0 1-3.08 1 .24.24 0 0 0-.27.2.24.24 0 0 0 .2.27 5.36 5.36 0 0 0 1.01.11Z" class="color681b3d svgShape"/><path fill="#966b52" d="M925.68 802.32c13.08-18.68 40.92-10.29 46.19-14.07s-1.6-9.92-10.52-12.71-27.61-3-32.07 4.37-3.6 22.41-3.6 22.41Z" class="color965752 svgShape"/><path fill="#d7a182" d="M1000 1117c0 45.4-11.52 145.8-13.51 146.62s-39.24 2-40.83 0 .3-125.33-8-146.62 62.34 0 62.34 0Z" class="color82b0d7 svgShape"/><path fill="#d7a182" d="M934.52 1117.68c-7.26 50.07-35.87 142.82-39.85 145.33s-41.33 2.08-43.31-1.09 19.63-136.15 22.73-147.74 60.43 3.5 60.43 3.5Z" class="color82b0d7 svgShape"/><path fill="#c37e56" d="M975.16 1179.47c1.79 5.17 18.83-3.22 17.59-9.17s-19.83 2.7-17.59 9.17ZM912.75 1178c-2.82 6.51-19.55-1.94-19-7.21s20.89 2.81 19 7.21Z" class="color568dc3 svgShape"/><circle cx="1107.21" cy="860.93" r="9.23" fill="#82563c" class="color82433c svgShape"/><path fill="#966b52" d="M1079.53 905.23a.71.71 0 0 1-.32-.07.7.7 0 0 1-.31-.95c3.86-7.66 7.36-15.1 10.45-21.67 5.36-11.4 9.23-19.63 11.67-22.07a.7.7 0 0 1 1 1c-2.26 2.27-6.29 10.84-11.39 21.68-3.1 6.58-6.61 14-10.47 21.71a.7.7 0 0 1-.63.37Z" class="color965752 svgShape"/><path fill="#ffb58a" d="M1067 877.45c6.55-11.92 14.9-20 21.16-22.05s18.18-3 19.07 0-23 31.29-31 29.5-9.23-7.45-9.23-7.45Z" class="colorfab2a3 svgShape"/><path fill="#e3dbd7" d="M1080 887.25c0 2.1-48.26 68.29-69.15 63a30.75 30.75 0 0 1-11.83-6.58c-8.68-7-16.78-18-22.6-27.76-5.25-8.87-8.78-16.69-9.06-19.36-.86-6.86 9.53-38 9.53-38 16.41 5.25 40.83 57.32 40.83 57.32s45-43.3 47.11-44 15.17 13.19 15.17 15.38Z" class="colore3d7e3 svgShape"/><path fill="#d4c4bb" d="M999.06 943.62c-8.68-7-16.78-18-22.6-27.76 0-24.51.47-57.32.47-57.32 11.26 24.32 21.46 72.3 22.13 85.08Z" class="colord4bbd4 svgShape"/><path fill="#e3dbd7" d="M1007.93 1122.07c-4 4-138.68 9.92-146.21-3.24-3.34-5.82 2.1-57.52 9.82-113.5.48-3.34 1-6.58 1.43-9.92v-.1c1.24-8.87 2.48-17.83 3.82-26.7.76-5.25 1.62-10.4 2.38-15.55 1.34-8.49 2.58-16.79 3.91-24.7 3.72-22.7 7.25-42.35 9.92-55.22V873c2-9.63 3.63-15.45 4.49-16 5.91-3.63 19.83-5.73 26.7-4.58s18.41 6.1 18.41 6.1c10.2-2.76 24-6.29 34.33 0 6.2 3.82 17.74 97.57 25 172.16v.57c.1.57.1 1.14.19 1.72.58 6 1.15 11.82 1.62 17.45.77 8.3 1.44 16.12 2.1 23.37a9.82 9.82 0 0 0 .1 1.71c2.06 26.92 3.06 45.5 1.99 46.57Z" class="colore3d7e3 svgShape"/><path fill="#d4c4bb" d="M887.4 1031.49c-3.94 24.9-5.49 39.35-4.54 42.44s38.31.86 38.31.86Z" class="colord4bbd4 svgShape"/><rect width="36.67" height="42.65" x="886.45" y="1031.36" fill="#e3dbd7" rx=".22" transform="rotate(-177.37 904.754 1052.712)" class="colore3d7e3 svgShape"/><path fill="#d4c4bb" d="M888.4 1030.58c16.24 3.68 35.87 3.71 35.64 1.68s-35.64-1.68-35.64-1.68ZM1005.93 1075.52c-10.21-.09-21.17-.76-21.17-.76l.19-.29 18.78-24c.77 8.3 1.44 16.12 2.1 23.37a9.82 9.82 0 0 0 .1 1.68Z" class="colord4bbd4 svgShape"/><path fill="#e3dbd7" d="m1005.83 1073.81-19.93 1a1.73 1.73 0 0 1-.95-.29 1.88 1.88 0 0 1-1.24-1.71l-1.71-38.49a1.8 1.8 0 0 1 .57-1.52 2.18 2.18 0 0 1 1.34-.67l18-.86c.1.57.1 1.14.19 1.72.58 6 1.15 11.82 1.62 17.45.78 8.3 1.45 16.12 2.11 23.37Z" class="colore3d7e3 svgShape"/><path fill="#d4c4bb" d="M1001.92 1031.27c.1.57.1 1.14.19 1.72-9.34 1-17.35.76-19.55-.19-.38-.1-.67-.39-.67-.58.1-1 10.5-1.43 20-1.52ZM892 1016.2c-6.22 10.48-12.11 5.34-20.41-10.87.48-3.34 1-6.58 1.43-9.92 7.68 7.34 18.98 20.79 18.98 20.79ZM943.27 862.38c21.74 79 0 264.41 0 264.41s7.06-117.78 6.65-169a815 815 0 0 0-6.65-95.41Z" class="colord4bbd4 svgShape"/><path fill="#ab5422" d="M920.79 979.31h55.79v75.52h-55.79z" transform="rotate(6.66 948.936 1017.323)" class="color2264ab svgShape"/><path fill="#ab5422" d="M940.29 977.25h25.06v8.98h-25.06z" transform="rotate(6.66 953.088 981.989)" class="color2264ab svgShape"/><path fill="#ab5422" d="M953.92 972.93a4.39 4.39 0 1 0 3.85 4.87 4.39 4.39 0 0 0-3.85-4.87Zm-.74 6.35a2 2 0 0 1-1.78-2.22 2 2 0 1 1 4 .46 2 2 0 0 1-2.22 1.76Z" class="color2264ab svgShape"/><path fill="#ffb58a" d="M898.55 1001.44c6.26 3.28 30.1 2.68 31.59 5.07s-8.94 5.06-8.94 5.06 19.07 7.46 20 10.14-10.73 15.2-31 7.45-24.44-24.14-24.44-25.33 12.79-2.39 12.79-2.39Z" class="colorfab2a3 svgShape"/><path fill="#d4c4bb" d="M942.6 858.54c12.28 4 27.91 3.13 24.75-3.23s-24.75 3.23-24.75 3.23Z" class="colord4bbd4 svgShape"/><path fill="#e3dbd7" d="M942.65 858.58c-.89-8 3.67-19.14 6-19.77 6.41-1.69 18.61 11.85 18.66 16.5s-24.66 3.27-24.66 3.27Z" class="colore3d7e3 svgShape"/><path fill="#d4c4bb" d="M942.6 858.54c-16.49 5.77-44.79 4.8-37.22-4.53s37.22 4.53 37.22 4.53Z" class="colord4bbd4 svgShape"/><path fill="#e3dbd7" d="M942.6 858.54c-1.19-11.92-14.14-22.54-20.1-23.54s-18.89 16.51-16.92 21.85 37.02 1.69 37.02 1.69Z" class="colore3d7e3 svgShape"/><path fill="#d4c4bb" d="M903.69 1002.94s-19.46-10.39-23.69-20.31a62.45 62.45 0 0 1-3.24-14c.76-5.25 1.62-10.4 2.38-15.55 9.48 10.57 40.19 49.86 24.55 49.86ZM883.08 928.36c3.72-22.7 7.25-42.35 9.92-55.22V873c5.92-7 11-12.11 11-12.11 9.89 20.16-16 66.9-20.92 67.47Z" class="colord4bbd4 svgShape"/><path fill="#e3dbd7" d="M897.45 857.06c28.27 5-25 76.62-23.55 84.37s30.64 57.33 30.36 60-12.32 17.29-16.47 16.69-42.2-41.31-45.18-70.52 34.78-94.12 54.84-90.54Z" class="colore3d7e3 svgShape"/><circle cx="925.6" cy="809.35" r="1.84" fill="#82563c" class="color82433c svgShape"/><path fill="#82563c" d="M959.07 842.92c-9.5 0-24.3-11.85-34.11-33.27a.7.7 0 1 1 1.28-.59c10 21.92 26.11 34.4 34.86 32.22 4.74-1.18 7.09-6.6 6.64-15.29a.7.7 0 0 1 .67-.74.72.72 0 0 1 .71.67c.67 12.74-4.55 15.94-7.71 16.72a9.62 9.62 0 0 1-2.34.28Z" class="color82433c svgShape"/><path fill="#82563c" d="M1028.7 962.21h-.21c-35.26-.39-49.61-47.87-67.49-120.21a.71.71 0 0 1 .51-.86.7.7 0 0 1 .86.51c17.71 71.76 31.87 118.81 66.11 119.2h.2c19.42 0 37.94-32.28 50.2-56.59a.71.71 0 0 1 .95-.31.7.7 0 0 1 .31 1c-12.4 24.54-31.25 57.26-51.44 57.26Z" class="color82433c svgShape"/><path fill="#ab5422" d="M743.55 2065.54c-10.14 6.14-10.43 14.27-9 17.25s38.44 23.1 44.6 18.27c4.67-3.65-15-30.43-18.55-33.1s-17.05-2.42-17.05-2.42ZM821.9 1979.32c-10.53 5.45-11.35 13.55-10.14 16.62s36.82 25.59 43.29 21.19c4.9-3.33-12.93-31.36-16.32-34.26s-16.83-3.55-16.83-3.55Z" class="color2264ab svgShape"/><path fill="#966b52" d="M755.63 1646.69c-8.21 3.91-20.26 3.17-23.93-6.4a11.65 11.65 0 0 1 2.13-11.73s-13.1-14.69-5.34-28.76c7-12.7 19.25-5.66 19.25-5.66s6.27-12.4 17.64-7.28c12.57 5.66 8.42 20.68 6 23.78s-15.75 36.05-15.75 36.05Z" class="color965752 svgShape"/><path fill="#ffb58a" d="M752.84 1666.31c.21 2.19 24.51 4.49 23.28 1.83a93.9 93.9 0 0 1-4.71-15.05 25.44 25.44 0 0 1-.83-7.26c.22-1.86-.88-3.54-2.54-4.86-3-2.56-7.92-4-9.24-3.8-2 .36-3.55 2.69-3.55 2.69a3.4 3.4 0 0 1 0 .76c-.13 6.38-2.61 23.58-2.41 25.69Z" class="colorfab2a3 svgShape"/><path fill="#e6a783" d="M755.22 1640.62c2.37 2.55 4.69 2.05 4.69 2.05s6.54 9.19 11.5 10.42a25.44 25.44 0 0 1-.83-7.26c.22-1.86-.88-3.54-2.54-4.86-4.47-1.3-12.82-.35-12.82-.35Z" class="colore69283 svgShape"/><path fill="#ffb58a" d="M769.22 1605.33c9.43 3.46 29.37 31.73 13.33 40.37s-32.89-12.65-33.13-20.29 19.8-20.08 19.8-20.08Z" class="colorfab2a3 svgShape"/><path fill="#ffb58a" d="M778 1612.35c5.65 1.24 7.25 2.26 7.42 4.14a4.83 4.83 0 0 1-3 4.33c-1.42.47-4.42-8.47-4.42-8.47ZM753.49 1631.53c-3.43-.19-5 5.28-.68 8.18 4.11 2.78 7.5 1.75 8.21-.83s-7.53-7.35-7.53-7.35Z" class="colorfab2a3 svgShape"/><path fill="#68381b" d="M772.92 1618.74c.77 1.23 1.81 2 2.33 1.64s.32-1.58-.45-2.81-1.81-2-2.33-1.64-.31 1.58.45 2.81ZM767.36 1617.22c.16 1.17 4.69-3.85 4.54-4.57s-1-.55-2 .15-2.58 4.12-2.54 4.42Z" class="color681b3d svgShape"/><path fill="#ff6103" d="M781.17 1632.15c.47 1.07 2.16 1.38 3.78.68s2.56-2.14 2.09-3.21-2.15-1.38-3.77-.68-2.56 2.14-2.1 3.21Z" class="colorfa6855 svgShape"/><path fill="#68381b" d="M782.58 1632.11a11.46 11.46 0 0 0 5-2.44.16.16 0 0 0 0-.26.26.26 0 0 0-.32 0c-1.88 1.92-7.51 3.37-9.27 2.39a.31.31 0 0 0-.33.06.16.16 0 0 0 0 .25c1 .59 2.95.49 4.92 0Z" class="color681b3d svgShape"/><path fill="#fa9e69" d="M767.94 1626.33c.37 1 2.09 1.27 3.84.61s2.87-2 2.49-3-2.09-1.26-3.84-.6-2.86 2-2.49 2.99Z" class="colorfa7369 svgShape"/><path fill="#e6a783" d="M756.86 1638.12s-2.68-3.8-3.5-3.48-.39 1.6.62 2.49a3.76 3.76 0 0 0 2.88.99Z" class="colore69283 svgShape"/><path fill="#966b52" d="M751.8 1632c-2.38-6.55-.09-12.39 5.06-16.39 6.45-5 16-3.77 16.3-8.89s-5.35-5.59-10.69-4.62-19.82 13.7-19.66 20.93 8.99 8.97 8.99 8.97Z" class="color965752 svgShape"/><path fill="#d7a182" d="M846.42 1987.74s-27.8-8.38-28.46-10.32 12.93-83.83 7.45-93.54c-1.78-3.15-11.22-10.29-23.18-18.79q-4.12-3-8.62-6.06c-6.05-4.19-12.38-8.54-18.52-12.78-10.17-7-19.72-13.74-26.36-18.94-5.05-4-8.43-7.11-9.05-8.78-2.09-5.71 20.15-16 35.76-22.44 3.11-1.28 6-2.41 8.31-3.3 3.92-1.52 6.41-2.41 6.41-2.41.62.54 1.28 1 1.9 1.59.23.2.51.39.74.59 50.17 41.31 70.28 55.13 76 74.2 5.77 19.41-22.38 120.98-22.38 120.98Z" class="color82b0d7 svgShape"/><path fill="#c37e56" d="M802.19 1865.09q-4.12-3-8.62-6.06c-6.05-4.19-12.38-8.54-18.52-12.78.86-14.79 3.85-34 3.85-34 4.85 8.14 21.39 42.75 23.29 52.84Z" class="color568dc3 svgShape"/><path fill="#d7a182" d="m766.51 2072.51-27-7.92s19.22-97.08 17.74-127.13c-1.36-27.26-30.09-67.64-34.79-102.08a69.65 69.65 0 0 1-.62-10.6s45.62-33.43 52-30.52a4.25 4.25 0 0 1 1.55 1.83 64.48 64.48 0 0 1 4.35 10.4c4 11.89 9.2 31.22 13.82 52.54 5.75 26.71 10.72 56.53 11.77 78.9 2.46 50.94-38.82 134.58-38.82 134.58Z" class="color82b0d7 svgShape"/><path fill="#c37e56" d="M793.23 1791.86a4.51 4.51 0 0 1-.47.7c-2.14 3.26-6.72 8.34-13 13.93a139.28 139.28 0 0 1-31.06 20.82c-8.31 4-18.26 9-26.21 8.07a69.65 69.65 0 0 1-.62-10.6s45.62-33.43 52-30.52a4.25 4.25 0 0 1 1.55 1.83c3.11-1.28 6-2.41 8.31-3.3 3.77-.39 6.76-.66 8.31-.82Z" class="color568dc3 svgShape"/><path fill="#d7a182" d="M752.27 1662c-22.72 49.08-42.63 161.61-33.57 167s66.42-26.78 74.51-37.13 5.2-75.09-2.43-101.12c-9.73-33.19-37.78-30.34-38.51-28.75Z" class="color82b0d7 svgShape"/><path fill="#966b52" d="M654.56 1826.8a3.89 3.89 0 0 1-1.53-7.46c3.62-1.54 362.7-155 390.34-181.84 16.17-15.7 11-34.1 10.78-34.88a3.88 3.88 0 0 1 7.44-2.23c.29 1 6.84 23.61-12.81 42.68-28.66 27.81-377.85 177.07-392.7 183.42a3.9 3.9 0 0 1-1.52.31Z" class="color965752 svgShape"/><ellipse cx="1057.88" cy="1551.15" fill="#966b52" rx="44.97" ry="55.54" class="color965752 svgShape"/><path fill="#fff4ed" d="M1096.59 1551.16c0 26.4-17.32 47.8-38.71 47.8a32.1 32.1 0 0 1-15.42-4 38.66 38.66 0 0 1-11.49-9.48c-7.3-8.69-11.8-20.89-11.8-34.36 0-26.4 17.31-47.84 38.71-47.84 12.46 0 23.57 7.3 30.63 18.6a50.7 50.7 0 0 1 6.37 15.15 57.43 57.43 0 0 1 1.71 14.13Z" class="coloredefff svgShape"/><path fill="#ffb58a" d="M885.91 1717.74c-.33-8.25 16.18-18 17.31-17s-2.43 7.61-2.43 7.61 19-12 22.17-8.41c8.57 9.65-16 24.91-33.49 25.23s-3.56-7.43-3.56-7.43Z" class="colorfab2a3 svgShape"/><path fill="#c37e56" d="M747.17 1686.76c-2.26 27.81 17.32 53.63 25 55.62 9.63 2.49 13-13.22 13.19-14.91s-38.19-40.71-38.19-40.71Z" class="color568dc3 svgShape"/><path fill="#c37e56" d="M800 1706.17c11.41 9.95 19.17 16.75 27.91 16.75s57-10.68 57-10.68 7.28 12.62 6.55 14.32-47.08 24-71.59 22.08-46-21.17-46-23.45 26.13-19.02 26.13-19.02Z" class="color568dc3 svgShape"/><path fill="#d7a182" d="M752.93 1672.2c17.49-15.74 52.89 29.85 52.41 33s-21.51 33.73-29.8 33-41.54-48.94-22.61-66Z" class="color82b0d7 svgShape"/><path fill="#c37e56" d="M786.9 1952.81c2.42 4.62 14.88-7.76 12.94-12.29s-16.5 5.48-12.94 12.29ZM855.89 1886.48c3.71 4.82 11.57-7.77 10.6-12s-14.08 7.52-10.6 12Z" class="color568dc3 svgShape"/><path fill="#fffcfa" d="m1094.88 1537.07-52.42 57.93a38.66 38.66 0 0 1-11.49-9.48l57.54-63.6a50.7 50.7 0 0 1 6.37 15.15Z" class="colorfafcff svgShape"/><path fill="#ab5422" d="M360.43 2150.42c-17.59 1.5-20.78 11.12-20.57 14.68s29.2 38.7 37.33 36.35c6.16-1.77-2.71-36.57-5.22-40.69s-11.54-10.34-11.54-10.34ZM486.25 2240.46c-10.18 14.42-4.87 23.06-2 25.19s48.4 2.59 51.85-5.14c2.61-5.85-29.73-21.48-34.49-22.21s-15.36 2.16-15.36 2.16Z" class="color2264ab svgShape"/><path fill="#966b52" d="M421.48 1823.91c-9.93 1.85-24.71-3.31-25.9-14.65a12.92 12.92 0 0 1 5.65-12s-9.86-19.53 2.52-32.42c11.17-11.62 22.3-.55 22.3-.55s10.28-11.52 21-2.76c11.87 9.69 3.1 24.63-.35 27.27s-25.22 35.11-25.22 35.11Z" class="color965752 svgShape"/><path fill="#ffb58a" d="M442.25 1853c1.58 3.68-26.56 4.5-27.67 0-1.05-4.32 4.32-24.29 9-35a10.28 10.28 0 0 1 .58-1.4s15.94 0 15.42 10.57a83.5 83.5 0 0 0 .05 8.52c.28 7.71 1.45 14.65 2.62 17.31Z" class="colorfab2a3 svgShape"/><path fill="#e6a783" d="M439.62 1835.69c-8.58-2.39-14.24-15.76-14.24-15.76a7.12 7.12 0 0 1-1.81-1.93 2.08 2.08 0 0 1-.35-.76 8.39 8.39 0 0 1 .93-.64s15.94 0 15.42 10.57a83.5 83.5 0 0 0 .05 8.52Z" class="colore69283 svgShape"/><path fill="#ffb58a" d="M445.9 1782.5c9.12 6.42 22.42 42.5 2.72 47.17s-31.69-23-29.75-31.29 27.03-15.88 27.03-15.88Z" class="colorfab2a3 svgShape"/><path fill="#ffb58a" d="M453.25 1792.55c5.71 2.94 7.14 4.5 6.78 6.57s-2.82 3.69-4.45 3.8-2.33-10.37-2.33-10.37ZM421.48 1806.12c-3.62-1.19-6.86 4.24-3.08 8.59 3.62 4.15 7.56 4 9.06 1.46s-5.98-10.05-5.98-10.05Z" class="colorfab2a3 svgShape"/><path fill="#68381b" d="M446 1798c.47 1.54 1.38 2.63 2 2.43s.79-1.61.32-3.15-1.38-2.62-2-2.42-.77 1.56-.32 3.14ZM440.49 1794.73c-.17 1.31 6.14-2.79 6.18-3.6s-.9-.88-2.24-.43-3.9 3.7-3.94 4.03Z" class="color681b3d svgShape"/><path fill="#ff6103" d="M451 1814.73c.19 1.28 1.92 2.09 3.86 1.81s3.36-1.56 3.17-2.85-1.92-2.09-3.86-1.81-3.33 1.56-3.17 2.85Z" class="colorfa6855 svgShape"/><path fill="#68381b" d="M452.55 1815.08a12.59 12.59 0 0 0 6.08-1.18.17.17 0 0 0 .06-.28.3.3 0 0 0-.36 0c-2.57 1.52-9 1.47-10.65-.09a.32.32 0 0 0-.36 0 .17.17 0 0 0 0 .28c.85.79 2.98 1.24 5.23 1.27Z" class="color681b3d svgShape"/><path fill="#fa9e69" d="M438.49 1804.68c.11 1.17 1.88 2 3.95 1.76s3.65-1.32 3.53-2.49-1.88-2-4-1.76-3.6 1.32-3.48 2.49Z" class="colorfa7369 svgShape"/><path fill="#e6a783" d="M423.21 1814.16s-1.78-4.85-2.76-4.75-.88 1.61-.05 2.86a4.18 4.18 0 0 0 2.81 1.89Z" class="colore69283 svgShape"/><path fill="#966b52" d="M419.54 1806.09c-.67-7.71 3.47-13.32 10.14-16.14 8.37-3.53 18.25.54 20.06-4.87s-4.15-7.53-10.16-8-25.21 9-27.11 16.82 7.07 12.19 7.07 12.19Z" class="color965752 svgShape"/><path fill="#ffb58a" d="M538.47 1856.05c.73-8.24 15.33-20.28 16.79-18.64s-1.46 9.24-1.46 9.24 21.53-12.7 24.63-6.68-21.89 27.55-36.49 26.63-3.47-10.55-3.47-10.55ZM362.21 1975.76c4.86 6.68 1.78 25.35-.4 25.07s-5-7.92-5-7.92-7.87 23.73-14.16 21.23-1.62-35.15 10-44.06 9.56 5.68 9.56 5.68Z" class="colorfab2a3 svgShape"/><path fill="#e3dbd7" d="M409.09 1909.6c-1.29 2.34-2.1 3.74-2.1 3.74a54.3 54.3 0 0 0-11.27 11c-16.41 20.32-28.9 53.66-31 53.72-2.57.06-18.8-2.22-20.26-4.73S361 1890.69 407 1862.61c39.8-24.41 10.55 31.7 2.09 46.99Z" class="colore3d7e3 svgShape"/><path fill="#d7a182" d="M470.8 2095.44c-.06.7-.88 1.92-2.34 3.56-3.21 3.62-9.45 9.28-17.22 15.82-26.86 22.65-72 56.22-73.5 55.76-2.16-.76-21.55-18.45-22.25-21s48.87-72.51 81.74-93.88c0 0 11.68-8.47 15.3-7s18.97 39.03 18.27 46.74Z" class="color82b0d7 svgShape"/><path fill="#c37e56" d="M468.46 2099c-3.21 3.62-9.45 9.28-17.22 15.82-2.33-13.89-9.32-50.38-17.13-62 0 0 8.08-1.35 15.2.87 5.03 1.52 14.6 27.62 19.15 45.31Z" class="color568dc3 svgShape"/><path fill="#d7a182" d="M494.5 2037c34.3 84.52 20.44 202 19 203.82s-29.56 3.29-32.11 1.83-11.33-149.65-47.46-187.72S494.5 2037 494.5 2037Z" class="color82b0d7 svgShape"/><path fill="#d4c4bb" d="M409.09 1909.6c-1.29 2.34-2.1 3.74-2.1 3.74a54.3 54.3 0 0 0-11.27 11c-2.29-13.73 4.19-48.1 9.51-58.67 0 .03 2.92 29.16 3.86 43.93Z" class="colord4bbd4 svgShape"/><path fill="#e3dbd7" d="M504.08 2043.18c-2.28 11-91.66 21.2-100.42 15.18-8.41-5.78-10-172.58 4.09-203.17a12.05 12.05 0 0 1 1.92-3.27 23.2 23.2 0 0 1 9.17-6.65c14.77-5.9 31.23 6.65 31.23 6.65 6.31 9.28 12.61 23.65 18.51 40.34 1.93 5.49 3.8 11.21 5.66 17.11 17.76 56.81 30.89 128.91 29.84 133.81Z" class="colore3d7e3 svgShape"/><path fill="#d4c4bb" d="M429.3 1968.27c1.39 27.37 3 43.1 4.68 46.17s40.95-7.67 40.95-7.67Z" class="colord4bbd4 svgShape"/><rect width="39.87" height="46.37" x="432.61" y="1963.74" fill="#e3dbd7" rx=".17" transform="matrix(-.99 .16 -.16 -.99 1218.86 3875.16)" class="colore3d7e3 svgShape"/><path fill="#d4c4bb" d="M430.16 1967.08c18.11.28 39-4.09 38.3-6.2s-38.3 6.2-38.3 6.2ZM450.07 1851.92c-22.95 1.65-40.47 6.17-42.32 3.27a12.05 12.05 0 0 1 1.92-3.27 23.2 23.2 0 0 1 9.17-6.65c9.75 1.73 31.23 6.65 31.23 6.65Z" class="colord4bbd4 svgShape"/><path fill="#e3dbd7" d="M450.07 1852c-6.47-14.54-34.75-24.57-38.95-19.28s-6.73 17.81 0 20.07 38.95-.79 38.95-.79Z" class="colore3d7e3 svgShape"/><path fill="#d4c4bb" d="M474.24 1909.37c-20.14 1.52-59.8-18.07-57.95-36.55 0 0 30.22 8.76 44.12 15.47 2.51 1.23 5.37 2.57 8.17 4 1.93 5.46 3.8 11.18 5.66 17.08Z" class="colord4bbd4 svgShape"/><path fill="#e3dbd7" d="M422.19 1858.33c12.62-13.07 49.93 14.6 64.77 13.14s47.45-17.37 49.87-17.9 8.76 13.52 8.76 16.68-37.22 27.25-59.6 31.38-91.99-14.11-63.8-43.3Z" class="colore3d7e3 svgShape"/><path fill="#c37e56" d="M498.31 2139c1.47 6.42 13.38-4.14 13.63-10.95s-15.57 2.39-13.63 10.95Z" class="color568dc3 svgShape"/></svg>