<svg xmlns="http://www.w3.org/2000/svg" xmlns:xlink="http://www.w3.org/1999/xlink" viewBox="0 0 2000 2000"><defs><linearGradient id="a" x1="1257.87" x2="1397.84" y1="317.21" y2="661.35" gradientUnits="userSpaceOnUse"><stop offset="0" stop-color="#333333" class="stopColor333 svgShape"/><stop offset=".06" stop-color="#282828" class="stopColor282828 svgShape"/><stop offset=".19" stop-color="#161616" class="stopColor161616 svgShape"/><stop offset=".34" stop-color="#0a0a0a" class="stopColor0a0a0a svgShape"/><stop offset=".55" stop-color="#020202" class="stopColor020202 svgShape"/><stop offset="1" stop-color="#000000" class="stopColor000000 svgShape"/></linearGradient><linearGradient id="b" x1="1300.92" x2="1440.89" y1="299.7" y2="643.85" xlink:href="#a"/></defs><g data-name="Layer 1"><path fill="#fbb890" d="M1103.68,951.79c-29.49,8.25-61.07,21.89-94.94,40.66s-68.35,30.77-101.15,36.15a237.62,237.62,0,0,1-30.74,3.05l-59,73.71-1.44,1.81A130.57,130.57,0,0,0,805,1253c.5.89.94,1.81,1.47,2.69l65,108.75c7.36,12.84,15.39,26.32,23.57,39.42h0c6.26,10,12.6,19.82,18.78,28.93,15.1,22.25,29.28,40.41,39.06,47.66,16.91,12.54,46.44,24.52,7.66-58.89C951.45,1404,944,1388.46,943,1386.2c7,13.42,12.83,25.1,17.62,35.41,10.26,19.74,22.68,42,30.69,50.66,15.14,16.42,43.78,7.24-.34-87.5,9.72,20.21,29.87,61.36,35.66,67.53,6.63,7.06,41.24,21.83,15.18-52.57-9-20.92-17.29-42.15-18.08-44.21,8,17.45,13.81,32,18.08,44.21,7,16.25,14.49,32.32,19.28,39.06,9.26,13,36.08,5.08,7.47-72.65,0,0,43.81-98.47-16-111.91,0,0-36.38-6.4-61.38-21-3.3-37.78-15.53-76.81-35.13-105.91l.23-.18a49.75,49.75,0,0,1,40-9l1.57.33,80.54-89.88s.73-36,26.53-66.81a107.19,107.19,0,0,1,12.26-12.34c.49-.43.92-.88,1.42-1.3Q1111.24,949.69,1103.68,951.79ZM990,1382.71c-1.82-3.76-3.16-6.6-3.84-8C987.46,1377.43,988.73,1380.1,990,1382.71Zm-.45.22c-1.82-3.76-3.16-6.6-3.84-8l.9-.43c1.24,2.55,2.5,5.18,3.84,8Z" class="colorffd4c2 svgShape"/><path d="M311.75,750.84c-7,1-14.63,1.9-22.63,2.76a102,102,0,0,0,9-10.59l7.95,3.9A21.27,21.27,0,0,1,311.75,750.84Z" fill="none"/><path fill="#b3b3b3" d="M1271.07,996c-14.4,10-31.94,14.07-43.4,10.26a105.35,105.35,0,0,0-8.81-6.16l-.14-.15c-7.44-10.55-.49-29,13.86-42.3,2.92,1.41,5.83,2.81,8.69,4.42,21.5,11.83,14.2-6.87,14.2-6.87-3.54-1.84-7.35-3.85-11.45-5.89a55,55,0,0,1,23.22-7.73c12,20.32,20.71,22.28,26.12,18.38C1294,971.62,1285.63,986,1271.07,996Z" class="colorb3b3b3 svgShape"/><path fill="#fffbf9" d="M1267.24,941.58a55,55,0,0,0-23.22,7.73c-16.35-8.16-37.49-16.91-66.35-18.69l.15-.67c4.89-26.76,41.41-32.58,59.27-33.81a13,13,0,0,1,13,8.29C1256.39,920.86,1262.11,932.88,1267.24,941.58Z" class="colorfff9f9 svgShape"/><path fill="#b57422" d="M173.43,436.52a25.63,25.63,0,0,1-5.15-.56A71.26,71.26,0,0,1,148,428.7l-4.27-2.38,1.86-4.52a55.23,55.23,0,0,1,8.57-14.35c6.08-7.31,14.11-9.1,21.5-4.77,8.67,5.08,13.89,17.61,10.75,25.78C185.6,430.55,182.5,436.52,173.43,436.52ZM158,421.34a65.36,65.36,0,0,0,12.54,3.85c.84.17,5,.94,5.64-.67,1-2.7-1.51-9.68-6-12.35-1.85-1.08-4.19-1.65-7.49,2.31A43.67,43.67,0,0,0,158,421.34Z" class="color22b573 svgShape"/><path fill="#b57422" d="M177,497c-37.56-20.44-40.39-53.28-31.39-75.2L155.76,426c-7.62,18.56-4.67,44.42,26.47,61.35Z" class="color22b573 svgShape"/><path fill="#b57422" d="M148,428.7c-14-7.81-22-20.33-22.34-35.24-.5-20.28,13.23-42.13,35-55.68l5.81,9.34c-18.51,11.52-30.21,29.61-29.8,46.07.27,11,6,20,16.69,25.89Z" class="color22b573 svgShape"/><path fill="#ffa30f" d="M1084.21,662.91c-13.22,0-15.66-8.33-16.1-10.89-1.46-8.65,6.17-19.92,15.72-23.19,8.1-2.78,15.62.56,20.1,8.92a54.72,54.72,0,0,1,5.52,15.76l.91,4.78-4.64,1.48a71.59,71.59,0,0,1-21.34,3.14Zm5-24a5.69,5.69,0,0,0-1.87.36c-5,1.72-8.92,8.08-8.43,10.94.28,1.67,4.54,1.73,5.36,1.73a66.53,66.53,0,0,0,13.1-1.31,42.68,42.68,0,0,0-3.18-7.64C1092.53,639.77,1090.83,638.88,1089.26,638.88Z" class="colorfbb03b svgShape"/><path fill="#ffa30f" d="M1063.6,721l-3.25-10.51c33.94-10.49,42-35.26,38.29-55l10.81-2C1113.87,676.75,1104.51,708.38,1063.6,721Z" class="colorfbb03b svgShape"/><path fill="#ffa30f" d="M1105.72,659.77l-3.35-10.48c17.09-5.45,29.89-18.49,33.42-34,3-13.39-1.36-26.51-12.41-36.93l7.55-8c13.79,13,19.48,30.28,15.59,47.38C1142.13,637,1126.5,653.14,1105.72,659.77Z" class="colorfbb03b svgShape"/><rect width="102.03" height="11" x="1645.65" y="538.34" fill="#bc4600" class="color0071bc svgShape"/><rect width="51.02" height="11" x="1696.67" y="592.02" fill="#bc4600" class="color0071bc svgShape"/><path fill="#fffbf9" d="M476.09,255.16H313.38c-18.08,0-32.87,15.63-32.87,34.73h0c0,19.1,14.79,34.73,32.87,34.73H476.09C494.16,324.63,509,309,509,289.9h0C509,270.79,494.16,255.16,476.09,255.16Zm-131,43.38a8.65,8.65,0,1,1,8.74-8.65A8.69,8.69,0,0,1,345.13,298.54Zm48.46,0a8.65,8.65,0,1,1,8.74-8.65A8.7,8.7,0,0,1,393.59,298.54Zm51.74-.18a8.64,8.64,0,1,1,8.74-8.64A8.69,8.69,0,0,1,445.33,298.36Zm0,.5a9.14,9.14,0,1,1,9.24-9.14A9.2,9.2,0,0,1,445.33,298.86Zm0-17.28a8.14,8.14,0,1,0,8.24,8.14A8.19,8.19,0,0,0,445.33,281.58Z" class="colorfff9f9 svgShape"/><path d="M353.87,289.89a8.74,8.74,0,1,1-8.74-8.64A8.69,8.69,0,0,1,353.87,289.89Z" fill="none"/><path d="M345.13 299a9.15 9.15 0 119.24-9.15A9.2 9.2 0 01345.13 299zm0-17.29a8.15 8.15 0 108.24 8.14A8.19 8.19 0 00345.13 281.75zM402.33 289.89a8.74 8.74 0 11-8.74-8.64A8.69 8.69 0 01402.33 289.89z" fill="none"/><path d="M393.59,299a9.15,9.15,0,1,1,9.24-9.15A9.2,9.2,0,0,1,393.59,299Zm0-17.29a8.15,8.15,0,1,0,8.24,8.14A8.19,8.19,0,0,0,393.59,281.75Z" fill="none"/><ellipse cx="445.33" cy="289.72" rx="8.74" ry="8.64" fill="none"/><path d="M445.33,298.86a9.14,9.14,0,1,1,9.24-9.14A9.2,9.2,0,0,1,445.33,298.86Zm0-17.28a8.14,8.14,0,1,0,8.24,8.14A8.19,8.19,0,0,0,445.33,281.58Z" fill="none"/><path fill="url(#a)" d="M1057,372.66V485.75a32.32,32.32,0,0,0,32.4,32h428.94a32.33,32.33,0,0,0,32.41-32V368.54Z"/><path fill="url(#b)" d="M1057,372.66V247.29a32.32,32.32,0,0,1,32.4-32h428.94a32.33,32.33,0,0,1,32.41,32V368.54Z"/><polygon fill="#e59667" points="1223.5 448.1 1196.67 329.47 1182.78 380.27 1164.79 362.2 1154.48 375.16 1056.97 375.16 1056.97 364.16 1149.17 364.16 1163.88 345.68 1177.18 359.05 1197.68 284.08 1227.16 414.42 1254.22 356.8 1265.53 380.51 1274.45 364.16 1341.5 364.16 1359.47 295.74 1387.49 389.17 1404.59 338.44 1418.59 354.59 1443.48 278.2 1470.15 360.04 1550.71 360.04 1550.71 371.04 1462.17 371.04 1443.48 313.7 1423.03 376.49 1408.88 360.17 1386.88 425.42 1360.17 336.37 1349.99 375.16 1280.98 375.16 1264.88 404.69 1254.3 382.51 1223.5 448.1" class="color67e567 svgShape"/><path fill="#886840" d="M385.29,1589.48c-278.84-91.57-206-199.12-91.83-279.55-13.71,31.77-24.94,56.14-29.82,66.59a6.38,6.38,0,0,0,2.95,8.4l105.64,53.56C365.69,1487.36,375.8,1547.83,385.29,1589.48Z" class="color406488 svgShape"/><path fill="#d17705" d="M816.39,1107.17A130.57,130.57,0,0,0,805,1253c-128.2,114.5-270.67,258.92-338.17,360-9.61-2.42-19.19-4.9-28.68-7.54-18.91-5.27-36.46-10.6-52.87-16-9.49-41.65-19.6-102.12-13.06-151l76.08,38.58a6.2,6.2,0,0,0,8.71-3.6c45.6-144,84.65-294.34,112.22-435.27,25,5.42,58.63,5.54,93.53,3-4.94,45.64-10.9,88.62-17.93,125.55l48.82,66.2a3.37,3.37,0,0,0,5.5-.13l49.34-75.33s-1.19-52.83-3.62-126c23.93-3.72,45.41-7.72,61.59-10.95,2.4.95,4.82,1.85,7.29,2.68,1.82,31.08,3.13,58.88,4.07,82.08Z" class="color673333 svgShape"/><path fill="#e5cbbb" d="M1343.55,1300.11c-47.72,93.51-94.35,182.62-109.35,203.88-42.14,54.58-62.48,88.75-69.72,113.09-138.83,28.79-283.74,41.26-424.48,34.83,29.7-53,76.49-111.18,116.67-156.94,22.54-25.66,43-47.42,57.19-62.13,15.1,22.25,29.28,40.41,39.06,47.66,16.91,12.54,46.44,24.52,7.66-58.89,10.26,19.74,22.68,42,30.69,50.66,15.14,16.42,43.78,7.24-.34-87.5,9.72,20.21,29.87,61.36,35.66,67.53,6.63,7.06,41.24,21.83,15.18-52.57,7,16.25,14.49,32.32,19.28,39.06,9.26,13,36.08,5.08,7.47-72.65,0,0,43.81-98.47-16-111.91,0,0-36.38-6.4-61.38-21-3.3-37.78-15.53-76.81-35.13-105.91l.23-.18a49.75,49.75,0,0,1,40-9l1.57.33C1055.32,1130.29,1229.63,1172.19,1343.55,1300.11Z" class="colorbbd8e5 svgShape"/><path d="M811.9,1654q-36.3,0-71.92-1.62l-.81,0,.39-.7c24.77-44.19,64-97,116.73-157,23.29-26.51,44-48.43,57.21-62.15l.43-.44.34.51c16.68,24.58,30.15,41,39,47.54,4,3,17.39,12.2,23.17,7.49,4.74-3.86,5.76-18.4-16.27-65.77l.9-.44c9.44,18.15,22.41,41.66,30.62,50.55,5.54,6,12.26,8,16.71,5.06,9.2-6.17,9.34-33.58-17.88-92l.91-.43c8.75,18.2,29.73,61.18,35.57,67.41,3.32,3.53,12.59,8.25,18.49,4.68s10-16.35-4.14-56.74l.93-.37c8.71,20.16,15.18,33.27,19.23,39,3.13,4.4,8,6,12,4,9.17-4.85,12.58-27.4-5.37-76.16l-.07-.19.08-.18c.27-.6,26.28-59.86,10.1-92-5-10-13.69-16.46-25.74-19.17-.34-.06-36.73-6.58-61.52-21.1l-.23-.13,0-.25c-3.42-39.17-16.2-77.69-35-105.68l-.24-.37.33-.29.23-.18a50.31,50.31,0,0,1,40.46-9.16l.64.14.92.19c84.28,17.46,241.28,64.32,346,181.89l.23.25-.16.31c-59.84,117.27-96.64,185.88-109.38,203.94-40.57,52.54-62,87.37-69.65,112.94l-.09.29-.29.06A1754.93,1754.93,0,0,1,811.9,1654Zm-71.07-2.58c137.16,6.19,283.48-5.84,423.25-34.8,7.72-25.67,29.24-60.53,69.72-113,12.69-18,49.41-86.46,109.15-203.5-104.52-117.17-261.12-163.89-345.2-181.32l-.94-.2-.63-.13a49.32,49.32,0,0,0-39.49,8.85c18.76,28,31.48,66.44,34.93,105.5,24.64,14.34,60.63,20.79,61,20.85,12.39,2.78,21.27,9.41,26.45,19.71,15.92,31.69-8.39,89-10,92.71,18.09,49.23,14.36,72.16,4.82,77.19-4.36,2.31-9.81.55-13.24-4.27s-8.46-14.67-15.08-29.46c10.27,33.17,6.09,44.42.4,47.87-6.35,3.86-16.22-1.11-19.74-4.85-4.14-4.41-15.31-26-25.29-46.2,22.46,55.63,12.11,68.61,8,71.38-4.89,3.27-12.12,1.18-18-5.21-6.38-6.92-15.57-22.5-23.78-37.61,13,30.23,16.29,48.16,9.9,53.36-6.16,5-19.12-3.54-24.4-7.46-9-6.63-22-22.53-38.83-47.27-13.25,13.74-33.72,35.46-56.75,61.67C804.68,1554.94,765.58,1607.47,740.83,1651.45Z" fill="none"/><path fill="#e5cbbb" d="M895.08,1403.9h0L856.67,1495c-40.18,45.76-87,104-116.67,156.94-94-4.3-186-17-273.16-38.9,67.5-101,210-245.47,338.17-360,.5.89.94,1.81,1.47,2.69l65,108.75C878.87,1377.32,886.9,1390.8,895.08,1403.9Z" class="colorbbd8e5 svgShape"/><path d="M740.28 1652.42H740c-96.19-4.4-188.13-17.49-273.26-38.91l-.69-.18.39-.59c70.77-105.93 221.13-255.45 338.25-360.06l.47-.42.3.55c.21.36.4.73.6 1.1.28.53.56 1.06.87 1.57l65 108.75c7.75 13.54 15.68 26.79 23.56 39.42l.08.12 0 .35-38.44 91.13-.06.06c-52.64 60-91.88 112.73-116.61 156.86zM467.65 1612.7C552.43 1634 644 1647 739.71 1651.4c24.77-44.12 64-96.84 116.53-156.7L894.52 1404c-7.85-12.57-15.73-25.76-23.45-39.22l-65-108.74c-.32-.53-.61-1.08-.89-1.62l-.29-.54C688.08 1358.19 538.42 1507 467.65 1612.7zM293.74 1310.34l-.57-.82.91-.64 2.08-1.47.57.82-2.08 1.47z" fill="none"/><path fill="#886840" d="M1713.89,1383.34,1720,1194C1786.89,1208,1841.25,1277.58,1713.89,1383.34Z" class="color406488 svgShape"/><path fill="#fffbf9" d="M1864.73,830.36l-393.84,691.81q-48.32,20.6-99.33,38.2c2-13.93,3-25.57,2.8-33.48,107.8-150.12,159.57-257.17,195.1-361.47,29.12-.19,55-4.36,49.71-15.1.56-21.52-1.37-61.6-4.13-89.32-3.35-33.5-13.26-65.5-34.44-90.74A149.17,149.17,0,0,0,1545.9,940l-17.21-10.85L1506.31,915l-31.4-19.8c-7.44-4.69-12.27-15.57-10.36-24.09a90,90,0,0,1,6.5-19.46c15.41,3.28,48-1,62.14-2.66a33.81,33.81,0,0,0,26.62-19.51,146.15,146.15,0,0,0,11.25-37.75,122.14,122.14,0,0,0,1.38-16.79c7.07,3.46,99.58,47.56,81.36-24.35-1.39-5.46-2.82-10.44-4.27-15.17-1.17-3.84-2.37-7.48-3.58-10.86l183.7,35.34q3.21.62,6.19,1.5a63.14,63.14,0,0,1,8.14,3,82.37,82.37,0,0,1,11.4,7.12,44.2,44.2,0,0,1,15.27,24.85C1873.21,808,1870.6,820.06,1864.73,830.36Z" class="colorfff9f9 svgShape"/><path d="M1371,1561.11l.11-.81c2.06-14.48,3-25.72,2.8-33.4v-.16l.1-.14c95.94-133.6,154.27-241.67,195-361.34l.12-.34h.36c27.2-.18,45.6-3.77,49.21-9.6a4.62,4.62,0,0,0,0-4.78l0-.11v-.12c.54-20.9-1.31-60.94-4.13-89.26-3.73-37.34-15.28-67.77-34.33-90.47a148.33,148.33,0,0,0-34.58-30.18l-71-44.76c-7.78-4.9-12.52-15.94-10.58-24.62a91,91,0,0,1,6.54-19.57l.17-.35.38.08c14.06,3,42.74-.4,58.15-2.22l3.83-.45a33.32,33.32,0,0,0,26.22-19.21,146.36,146.36,0,0,0,11.21-37.62,122.25,122.25,0,0,0,1.38-16.72v-.8l.71.35c5.72,2.8,56.47,26.91,75.71,11.29,7.61-6.18,9.27-18,4.94-35.07-1.25-4.9-2.64-9.86-4.26-15.14-1.17-3.84-2.37-7.49-3.57-10.84l-.3-.83,184.56,35.51c2.14.41,4.24.92,6.24,1.51a62.42,62.42,0,0,1,8.2,3.06,80.89,80.89,0,0,1,11.49,7.17,45,45,0,0,1,15.47,25.14c2.45,11.06.32,23.24-6,34.3l-393.92,691.95-.16.07c-31.94,13.62-65.37,26.47-99.36,38.21Zm3.91-34.06c.19,7.58-.72,18.54-2.69,32.58,33.64-11.64,66.74-24.38,98.37-37.85l393.75-691.67c6.18-10.84,8.27-22.77,5.87-33.58a44,44,0,0,0-15.1-24.57,80.78,80.78,0,0,0-11.31-7.06,62.46,62.46,0,0,0-8-3c-2-.58-4-1.09-6.15-1.49l-182.84-35.17c1.11,3.13,2.22,6.51,3.3,10,1.62,5.3,3,10.27,4.27,15.2,4.44,17.5,2.66,29.64-5.28,36.09-19.09,15.49-67.69-6.8-76.07-10.83a122.32,122.32,0,0,1-1.38,16.08,147.08,147.08,0,0,1-11.29,37.88,34.27,34.27,0,0,1-27,19.8l-3.84.45c-15.32,1.81-43.72,5.17-58.08,2.28a90.06,90.06,0,0,0-6.29,19c-1.83,8.15,2.81,18.94,10.13,23.56l71,44.76A149.23,149.23,0,0,1,1581,969.94c19.18,22.85,30.8,53.47,34.56,91,2.81,28.3,4.67,68.3,4.13,89.26a5.59,5.59,0,0,1-.15,5.63c-5.41,8.76-36.27,10-49.7,10.08C1529,1285.52,1470.71,1393.55,1374.86,1527.05Z" fill="none"/><rect width="1" height="19.29" x="1559.69" y="698.43" transform="rotate(-79.11 1560.177 708.083)" fill="none"/><path d="M1855.06 772a50.33 50.33 0 00-11.29-7l.42-.91a51.58 51.58 0 0111.51 7.18zM1429.17 704.7l-.56-.82c.28-.19.54-.4.81-.61a12.58 12.58 0 011.22-.86l.51.85c-.38.24-.74.51-1.12.8S1429.47 704.5 1429.17 704.7z" fill="none"/><path fill="#fffbf9" d="M1402.1,840.48c-3.29,7.12-5.95,12.6-8.23,16.77-9.44,17.27-12.48,12-28.14,8.2-13.07-3.21-23.73-8.78-38.7-11.55a101.07,101.07,0,0,0-18.34-1.64L1399.55,738c-14.49,24.81-26.17,49.94-31.45,65.54C1361.23,823.81,1373.57,831.77,1402.1,840.48Z" class="colorfff9f9 svgShape"/><path d="M1381.3 869.82c-2.38 0-5.07-.82-8.51-1.86-2.08-.63-4.44-1.35-7.18-2-5.6-1.38-10.64-3.14-16-5a146.86 146.86 0 00-22.7-6.54 100.57 100.57 0 00-18.25-1.63h-1l91.51-115.1.82.56c-13.37 22.9-25.7 48.59-31.41 65.45-2.41 7.13-2.43 12.85 0 17.49 4.32 8.41 16.6 13.62 33.72 18.84l.55.17-.24.52c-3.55 7.68-6.09 12.86-8.24 16.8C1389.12 867 1385.74 869.82 1381.3 869.82zm-71.58-18.05a100.85 100.85 0 0117.4 1.64c8.62 1.59 15.85 4.13 22.85 6.58 5.31 1.86 10.33 3.61 15.88 5 2.77.68 5.14 1.4 7.23 2 9.55 2.9 12.77 3.88 20.35-10 2.09-3.83 4.56-8.84 8-16.22-17.07-5.24-29.34-10.54-33.77-19.17-2.51-4.89-2.51-10.87 0-18.27 5.26-15.52 16.09-38.47 28.18-59.87zM1843.76 764.9a32.59 32.59 0 00-8-3l.19-1a33.37 33.37 0 018.28 3.09z" fill="none"/><path fill="#cccccc" d="M1878.71,871.14l-157.24,276.22-200.68,352.5c-16.32,7.73-33,15.12-49.9,22.31l393.84-691.81c5.87-10.3,8.48-22.39,5.92-33.94a44.2,44.2,0,0,0-15.27-24.85c13.68,10,27.89,25,31.82,35.43C1895.8,829.8,1890.79,849.94,1878.71,871.14Z" class="colorccc svgShape"/><path d="M1469.72,1523.21l.73-1.29,393.84-691.81c6.18-10.84,8.27-22.77,5.87-33.58a44,44,0,0,0-15.1-24.57l.61-.79c12.71,9.27,27.78,24.49,32,35.65,7.78,20.65,5.15,40.56-8.53,64.57L1721.9,1147.61l-200.76,352.64-.14.06c-15,7.11-31.33,14.41-49.92,22.32Zm392-746a44.74,44.74,0,0,1,9.4,19.13c2.45,11.06.32,23.24-6,34.3l-393.1,690.52c18-7.66,33.79-14.75,48.37-21.65L1721,1147.11l157.24-276.22c13.52-23.72,16.13-43.37,8.46-63.71C1883.64,799,1873.64,787.12,1861.74,777.18Z" fill="none"/><path fill="#666666" d="M1721.47,1147.36,1720,1194l-6.08,189.35c-37.35,31-90.28,65.14-163.17,101.91q-14.79,7.45-29.93,14.61Z" class="color666 svgShape"/><path d="M1519.57,1501,1722,1145.36l-7.65,238.22-.17.15c-39.91,33.14-94.84,67.45-163.27,102-9.77,4.92-19.84,9.84-29.94,14.61Zm201.33-351.63L1522,1498.73c9.6-4.56,19.18-9.24,28.48-13.93,68.26-34.43,123.07-68.65,162.91-101.7Z" fill="none"/><polygon points="712.53 478.72 712.53 478.65 713.52 478.53 712.53 478.72" fill="none"/><path fill="#e5cbbb" d="M662.77,1041.22c-34.9,2.51-68.48,2.39-93.53-3C613.16,813.68,628,613,593.79,499.69l16.72-5.39v0c4.53,56,39.44,80,39.44,80,3.91-2.63,8-5.52,12.16-8.64,0,0,0,0,0,0,9.16,12.44,18.78,23,28.31,30.77h0C695,653.79,662.77,1041.22,662.77,1041.22Z" class="colorbbd8e5 svgShape"/><path d="M622.32,1043.3c-21.18,0-39-1.55-53.19-4.62l-.48-.1.1-.48c47.41-242.38,56.13-433.54,24.56-538.26l-.14-.47L611,493.61v.69c4.24,52.44,35.67,77,39,79.42,3.94-2.66,7.86-5.44,11.66-8.29v-1.28l.9,1.22c9.36,12.71,18.85,23,28.22,30.68l.19.15v.24c4.53,56.7-27.34,441-27.66,444.82l0,.43-.43,0Q640.89,1043.3,622.32,1043.3Zm-52.5-5.49c22.3,4.74,53.41,5.73,92.48,2.94,1.24-14.84,32-387.58,27.65-444.06-9.28-7.6-18.68-17.8-27.93-30.31-3.84,2.87-7.81,5.68-11.79,8.37l-.29.19-.28-.2c-.35-.24-34.9-24.63-39.6-79.77l-15.65,5c16.33,54.5,22,131,16.89,227.26C606.52,817,592.57,921.45,569.82,1037.81Z" fill="none"/><path fill="#fffbf9" d="M569.24,1038.19c-27.57,140.93-66.62,291.26-112.22,435.27a6.2,6.2,0,0,1-8.71,3.6l-76.08-38.58-105.64-53.56a6.38,6.38,0,0,1-2.95-8.4c4.88-10.45,16.11-34.82,29.82-66.59,23.8-55.17,55-132.66,73.55-198.79,14-20.91,24.75-39.25,30.7-49.8a107.47,107.47,0,0,0,8.5-18.95c23.57-69,161.25-487.56,21.65-478.24a222.1,222.1,0,0,1,61-30.6L593.76,499.7h0C628,613,613.16,813.68,569.24,1038.19Z" class="colorfff9f9 svgShape"/><path d="M451.12,1478.23a6.79,6.79,0,0,1-3-.72l-181.72-92.14a6.86,6.86,0,0,1-3.17-9.06c4.29-9.19,15.78-34.08,29.81-66.58,23.24-53.87,54.86-132.09,73.53-198.72l.06-.15c13.59-20.26,24.19-38.24,30.68-49.77a107.13,107.13,0,0,0,8.46-18.86c21.46-62.8,125.39-380.09,64.37-459.69-10-13.07-24.22-19.09-42.21-17.89l-1.76.12,1.44-1a222.15,222.15,0,0,1,61.16-30.67l105.36-34,.18.48c16.44,54.53,22.17,131.15,17,227.73-4.79,89.82-18.77,194.46-41.57,311-27.08,138.44-65.89,289-112.24,435.32a6.57,6.57,0,0,1-3.74,4.09A6.72,6.72,0,0,1,451.12,1478.23Zm-83.65-366.88c-18.68,66.68-50.31,144.89-73.55,198.78-14,32.51-25.54,57.41-29.83,66.6a5.86,5.86,0,0,0,2.72,7.74l181.72,92.15a5.75,5.75,0,0,0,4.83.16,5.58,5.58,0,0,0,3.18-3.47C502.87,1327,541.67,1176.5,568.75,1038.1l.49.09-.49-.09c47.34-242,56.11-432.95,24.71-537.78L489,534a221.21,221.21,0,0,0-59.47,29.53c17.53-.73,31.42,5.44,41.33,18.38,61.34,80-42.73,397.73-64.21,460.61a108.44,108.44,0,0,1-8.54,19C391.64,1073.11,381.05,1091.09,367.47,1111.35Z" fill="none"/><polygon points="610.02 494.44 610.99 494.2 611 494.26 610.02 494.44" fill="none"/><polygon points="721.49 491.39 721.45 491.38 721.69 490.4 721.49 491.39" fill="none"/><path fill="#fffbf9" d="M928.74,704.75l-25.4,146c-5.65-117.48-18.34-246-45.92-320.6l1.63.48C927.24,555.22,943.94,634.57,928.74,704.75Z" class="colorfff9f9 svgShape"/><path d="M903.06,855.3l-.22-4.51C895.64,701.08,880.2,593.27,857,530.33l-.35-.93,2.59.76c69.13,24.92,85,105.69,70,174.69ZM858.23,530.92c22.86,62.52,38.13,168.59,45.39,315.31l24.63-141.58c14.85-68.58-.84-148.83-69.37-173.54Z" fill="none"/><path fill="#fffbf9" d="M406.21,1042.39a107.47,107.47,0,0,1-8.5,18.95c-5.95,10.55-16.68,28.89-30.7,49.8-45.65,68.2-126,163.75-187.42,105.06-75.85-72.43-72.94-344.49-69.9-432.43,58.3,30.36,158,19.56,211.92,10.67-1-12.27-2-22.2-2.72-29.31a23.14,23.14,0,0,0-7.14-14.29,21.27,21.27,0,0,0-5.64-3.93l-7.95-3.9c14.61-19.25,25.12-45.07,32-66.44l49.06-65.13a222.21,222.21,0,0,1,48.56-47.29c0-.06.07,0,.07,0C567.46,554.83,429.78,973.4,406.21,1042.39Z" class="colorfff9f9 svgShape"/><path d="M222,1235c-15.61,0-30-6.17-42.77-18.41-32.58-31.11-54.35-102-64.68-210.71-8.33-87.55-6.94-176.73-5.37-222.1l0-.79.7.37c57.57,30,156.81,19.61,211.15,10.69-1-12.46-2-22.41-2.68-28.84a22.75,22.75,0,0,0-7-14,21.07,21.07,0,0,0-5.52-3.84l-8.5-4.17.37-.48c15.17-20,25.74-47.09,31.93-66.29l.08-.15,49.06-65.13a222.35,222.35,0,0,1,48.46-47.25v-.06l.59-.29.13.1c18.24-1.17,32.67,5,42.88,18.3,61.34,80-42.73,397.73-64.21,460.61h0a108.44,108.44,0,0,1-8.54,19c-6.5,11.53-17.11,29.54-30.72,49.83-35.58,53.16-88.53,117.69-138.72,123.18A60.53,60.53,0,0,1,222,1235ZM110.16,784.58c-1.56,45.58-2.88,134.19,5.39,221.17,10.31,108.46,32,179.14,64.38,210.09,14.39,13.75,30.76,19.73,48.66,17.77,49.81-5.46,102.54-69.76,138-122.75,13.59-20.26,24.19-38.24,30.68-49.77a107.13,107.13,0,0,0,8.46-18.86h0c21.46-62.8,125.39-380.09,64.37-459.69-10-13-24.19-19.08-42.14-17.89a221.24,221.24,0,0,0-48.33,47.09l-49,65.06c-6.17,19.13-16.66,46-31.7,66l7.41,3.63a21.64,21.64,0,0,1,5.77,4,23.63,23.63,0,0,1,7.28,14.59c.68,6.51,1.7,16.63,2.73,29.32l0,.46-.45.07C267.54,803.86,168.25,814.33,110.16,784.58Z" fill="none"/><path fill="#e5cbbb" d="M321.61,794.44c-53.95,8.89-153.62,19.69-211.92-10.67.56-17.42,1.18-27.66,1.18-27.66,0-.55.12-10.24,8.62-19.2,12.34,7.12,27.41,12,44,15.09h0c39.63,7.59,87.42,5.57,125.61,1.59,8-.86,15.63-1.78,22.63-2.76a23.14,23.14,0,0,1,7.14,14.29C319.63,772.24,320.62,782.17,321.61,794.44Z" class="colorbbd8e5 svgShape"/><path d="M217.23,804.26c-39.11,0-78.7-4.91-107.77-20l-.28-.14v-.32c.55-17.22,1.17-27.57,1.18-27.67,0-.39.1-10.39,8.76-19.51l.27-.29.34.2c11.54,6.66,26.29,11.72,43.81,15,41,7.86,90.89,5.2,125.52,1.59,8.31-.89,15.92-1.82,22.61-2.75l.24,0,.17.17a23.65,23.65,0,0,1,7.29,14.6c.68,6.51,1.7,16.63,2.73,29.32l0,.46-.45.07C294.57,799.4,256.14,804.26,217.23,804.26Zm-107-20.79c57.61,29.81,156.61,19.46,210.87,10.55-1-12.46-2-22.41-2.68-28.84a22.73,22.73,0,0,0-6.81-13.81c-6.64.93-14.18,1.84-22.41,2.73-34.69,3.61-84.67,6.27-125.76-1.6-17.51-3.31-32.24-8.34-43.83-15-8.12,8.76-8.21,18.17-8.21,18.57C111.36,756.24,110.75,766.45,110.2,783.47Z" fill="none"/><path d="M163.51,752h0c-16.56-3.13-31.63-8-44-15.09,5.82-6.18,16.35-11.88,33-14.08A227.72,227.72,0,0,0,163.51,752Z" fill="none"/><path d="M152.53 723.32l-.17-1 .6-.09.1 1zM313.3 1078l-1-.16c18.31-115.34 13.37-227 8.8-283.34l1-.08C326.68 850.76 331.62 962.54 313.3 1078z" fill="none"/><rect width="1" height=".64" x="297.37" y="742.55" transform="rotate(-63.84 297.924 742.904)" fill="none"/><path fill="#fffbf9" d="M876.85,1031.65l-59,73.71c-.94-23.2-2.25-51-4.07-82.08C832.83,1029.67,854.16,1032.42,876.85,1031.65Z" class="colorfff9f9 svgShape"/><path d="M817.38,1106.72l0-1.34c-1.1-27.08-2.47-54.69-4.07-82.07l0-.74.7.24c18.84,6.31,40,9.12,62.91,8.34l1.09,0ZM814.3,1024c1.56,26.69,2.89,53.6,4,80l57.51-71.81C853.46,1032.83,832.78,1030.08,814.3,1024Z" fill="none"/><path fill="#fffbf9" d="M907.54,1015.9c-39.58,7.19-69.45,2.89-94.63-6.84C805.16,883,789.37,709.9,757.6,574c4.93-16.86,7.88-40,8.14-70.7l91.68,26.86c27.58,74.65,40.27,203.12,45.92,320.6.72,15,1.32,29.77,1.83,44.25C906.73,939.59,907.36,981.19,907.54,1015.9Z" class="colorfff9f9 svgShape"/><path d="M869.81,1020a155.65,155.65,0,0,1-57.08-10.5l-.3-.12,0-.32c-7.55-122.82-23.27-298-55.3-435l0-.12,0-.13c5.14-17.58,7.87-41.32,8.12-70.56v-.67l92.56,27.12.09.24c23.28,63,38.74,170.94,46,320.75.67,14,1.29,28.92,1.83,44.25,1.36,38.81,2.15,79.49,2.37,120.91v.42l-.41.07A211.15,211.15,0,0,1,869.81,1020Zm-56.42-11.32c28.56,11,58.34,13.13,93.65,6.77-.22-41.26-1-81.78-2.37-120.45-.54-15.33-1.16-30.22-1.83-44.24-7.19-149.53-22.6-257.26-45.8-320.22L766.23,504c-.28,29-3,52.52-8.12,70C790.11,710.94,805.83,885.9,813.39,1008.71Z" fill="none"/><path fill="#fffbf9" d="M1102.72,940.38c-21.41,6.28-45.41,15.83-72.47,29.81-49.7,25.67-89.6,39.7-122.71,45.71-.18-34.71-.81-76.31-2.37-120.89,175.19-85.27,237.06-95.86,237.06-95.86S1096.73,847.75,1102.72,940.38Z" class="colorfff9f9 svgShape"/><path d="M907,1016.5v-.6c-.22-41.4-1-82.07-2.37-120.87v-.33l.29-.14c173.25-84.32,236.57-95.8,237.19-95.9l1.47-.25-1,1.08c-.11.12-11.46,12.39-21.93,35.79-9.66,21.59-20.53,57.34-17.44,105.07l0,.4-.38.11c-22.65,6.64-47,16.66-72.38,29.78-47.12,24.33-87.31,39.3-122.85,45.75Zm-1.36-121.18c1.34,38.52,2.14,78.89,2.35,120,35.31-6.49,75.22-21.39,122-45.55,25.3-13.07,49.58-23.08,72.17-29.74-3-47.75,7.89-83.54,17.58-105.18,8.74-19.53,18.11-31.36,21.11-34.9C1130.63,802.11,1064.4,818.08,905.68,895.32Z" fill="none"/><polygon points="1104.47 962.14 1104.42 961.77 1105.41 961.62 1105.46 962 1104.47 962.14" fill="none"/><path fill="#e5cbbb" d="M806.47,1020.6c-16.18,3.23-37.66,7.23-61.59,10.95-.72-21.67-1.55-45.13-2.49-69.53a119.83,119.83,0,0,0,21,30.43C775.36,1004.78,790,1014.06,806.47,1020.6Z" class="colorbbd8e5 svgShape"/><path d="M744.4,1032.13l0-.56c-.79-23.62-1.62-47-2.49-69.53l-.09-2.33,1,2.09a119.39,119.39,0,0,0,20.91,30.3c11.52,11.88,26,21.31,42.9,28l1.57.62-1.65.33c-20.67,4.13-41.4,7.81-61.62,10.95ZM743,964.29c.82,21.63,1.63,44.05,2.38,66.68,19.49-3,39.45-6.58,59.37-10.53-16.41-6.74-30.43-16-41.7-27.64A119.23,119.23,0,0,1,743,964.29Z" fill="none"/><rect width=".88" height="1" x="291.84" y="616.83" transform="rotate(-89.16 292.29 617.331)" fill="none"/><path fill="#fbb890" d="M340.53,637.26a352.82,352.82,0,0,1-10.36,39.31c-6.89,21.37-17.4,47.19-32,66.44a102,102,0,0,1-9,10.59c-38.19,4-86,6-125.61-1.59a227.72,227.72,0,0,1-11.06-29.18c-22.23-71.69-26-176.39,21-115.23,0,0-1.13-77.83,37.47-22.74,0,0,6.67-63.83,35.21-1.35,0,0,0-125,24.46-129.66,23.48-4.51,21.91,150.58,21.75,163C346.61,597,340.53,637.26,340.53,637.26Z" class="colorffd4c2 svgShape"/><path d="M225.7,757.62c-21,0-42.67-1.36-62.29-5.12l-.25,0-.1-.23A226,226,0,0,1,152,723c-16.5-53.21-22.74-124.57-5.74-133.37,6.46-3.35,15.43,2.21,26.66,16.53,0-7.17.91-37.32,12.61-41.11,6.38-2.06,14.8,4.15,25,18.48.71-5.52,4-26.37,12.95-27.84,6.21-1,13.64,7.59,22.11,25.59.12-17.44,1.81-123.47,24.85-127.9a5.92,5.92,0,0,1,5.08,1.48C293.86,470.19,293,598.15,292.8,616.17c19.17-6.89,33-7.06,41-.5C343,623.22,341,637.2,341,637.34h0a355.46,355.46,0,0,1-10.38,39.37c-6.21,19.29-16.83,46.49-32.08,66.59A102.72,102.72,0,0,1,289.47,754l-.12.12-.18,0A622.45,622.45,0,0,1,225.7,757.62Zm-61.85-6c40.85,7.77,90.49,5.14,125,1.55a101.15,101.15,0,0,0,8.87-10.41c15.17-20,25.74-47.09,31.93-66.29A355.54,355.54,0,0,0,340,637.18c.06-.39,1.84-13.63-6.87-20.74-7.84-6.4-21.53-6.09-40.7.92l-.68.25v-.73c.19-14.89,1.34-146-16.91-161.28a4.93,4.93,0,0,0-4.25-1.26c-23.78,4.57-24,127.93-24,129.17v2.3l-1-2.09c-10.77-23.58-17.89-27.73-22-27.06-9.37,1.53-12.25,28-12.28,28.25l-.13,1.33-.77-1.09C200.17,570.47,191.88,564,185.81,566c-12.31,4-11.92,41.24-11.91,41.61l0,1.51-.92-1.19c-11.15-14.53-20.25-20.55-26.31-17.41-16.59,8.59-10.15,79.33,6.24,132.18A227.78,227.78,0,0,0,163.85,751.57Z" fill="none"/><path d="M242.08 645.46l-.72-.69c6-6 16.68-12.69 31.66-20a197.19 197.19 0 0119.08-8.3l.35.94a195.13 195.13 0 00-19 8.25C258.56 632.93 248 639.61 242.08 645.46zm-.37-.34l-.37-.33 0 0zM253.6 662.14c-8.29 0-14.51-1.67-16.76-5.17l.84-.55 0 .06c4.81 7.5 33.94 6.16 61-6.19l.41.91C283.62 658.29 266.21 662.14 253.6 662.14z" fill="none"/><path d="M236.84,657c-1.44-2.17-1.82-6.05,4.53-12.19l.69.72c-4.63,4.48-6.15,8.25-4.39,10.92Z" fill="none"/><polygon points="299.33 651.1 298.62 650.4 299.39 651.04 299.33 651.1" fill="none"/><path d="M261.51 699.68l-1-.23c6.72-28.11 36.89-48.27 38.17-49.12l.55.84C298 652 268.13 672 261.51 699.68zM166 677.68c-9.31 0-21.91-18.49-25.49-44.58l1-.14c3.54 25.88 16.44 44.71 25.19 43.67 8-1 11.11-17.24 8.38-43.55l-.37-3.58 1.33 3.35c.14.36 14.42 35.86 25.38 34.11 4.52-.71 10.37-8.61 12.55-42.14l.21-3.28.77 3.19c.08.34 8.27 33.7 16.87 35.1 1.72.28 3.41-.87 5-3.42l.85.53c-1.84 2.93-3.86 4.23-6 3.88-7.72-1.26-14.64-24.44-16.91-32.87-1.92 25.81-6.24 38.9-13.17 40a5.62 5.62 0 01-.92.07c-9.63 0-20.57-23.21-24.27-31.75 2.24 25.34-1.21 40.35-9.57 41.36A7.37 7.37 0 01166 677.68zM242.2 645.25l-1-.26c2.05-7.57 3.87-17.93 5.42-30.79l1 .12C246.09 627.23 244.26 637.64 242.2 645.25z" fill="none"/><polygon points="610.28 494.77 610.73 493.87 610.75 493.89 610.28 494.77" fill="none"/><path d="M700.89 544.37l-.1-.06-.89-.56.52-.85.91.57.1.06zM497.16 1144.66c-.72 0-72.26-3.47-99.2-30.35l.71-.7c26.66 26.6 97.82 30 98.53 30.05z" fill="none"/><polygon points="699.7 543.51 699.68 543.46 700.62 543.13 699.7 543.51" fill="none"/><path fill="#fbb890" d="M1300.14,907a28.25,28.25,0,0,1-4.15,3.59s4.4,23.36,3.9,35.73c-.17,4.2-2.36,10.66-6.53,13.68-5.41,3.9-14.14,1.94-26.12-18.38-5.13-8.7-10.85-20.72-17.16-37.15a13,13,0,0,0-13-8.29c-17.86,1.23-54.38,7.05-59.27,33.81l-.15.67c-20.66-1.27-45.3,1.08-75,9.76-6-92.63,39.51-141.23,39.51-141.23,40.48-14,160.54-37.61,146.3,0,0,0,15.6,10.12,10.85,26.22a174.41,174.41,0,0,1,8,26.89c.08.42.18.84.26,1.27C1311.38,871.71,1312.47,894.24,1300.14,907Z" class="colorffd4c2 svgShape"/><path d="M1288.47,962.1a9.74,9.74,0,0,1-2-.21c-6-1.25-12.57-8-19.68-20.06-5.52-9.35-11.31-21.88-17.2-37.22a12.54,12.54,0,0,0-12.49-8c-16,1.11-53.91,6.57-58.81,33.4l-.25,1.11-.42,0c-22.76-1.4-47.92,1.88-74.78,9.74l-.6.18,0-.63c-3.1-47.95,7.83-83.88,17.55-105.58,10.54-23.54,22-35.9,22.09-36l.09-.09.11,0c34.18-11.85,127.34-31,145.09-12.71,3.22,3.32,3.89,7.68,2,13,2.25,1.61,15,11.54,10.78,26.38a178.27,178.27,0,0,1,8,26.82l.12.59c0,.23.1.46.14.69,3.53,17.32,5.06,40.74-7.67,53.87h0a28.52,28.52,0,0,1-4,3.46c.52,2.84,4.31,24,3.85,35.53-.19,4.59-2.61,11.08-6.74,14.07A8.71,8.71,0,0,1,1288.47,962.1ZM1238,895.61a13.59,13.59,0,0,1,12.58,8.64c5.87,15.29,11.63,27.77,17.12,37.08,7,11.8,13.36,18.39,19,19.58a7.79,7.79,0,0,0,6.37-1.35c3.87-2.81,6.14-8.95,6.32-13.3.49-12.17-3.85-35.38-3.89-35.62l-.06-.31.26-.19a27.47,27.47,0,0,0,4.08-3.53h0c12.43-12.82,10.89-35.89,7.41-53,0-.23-.09-.45-.14-.67s-.09-.4-.12-.61a176.92,176.92,0,0,0-8-26.79l-.07-.16.05-.17c4.59-15.55-10.49-25.56-10.64-25.66l-.34-.22.14-.38c1.92-5.07,1.38-9.21-1.63-12.3-17.43-17.94-109.82,1.12-143.92,12.91-1,1.16-11.85,13.35-21.85,35.7-9.62,21.5-20.44,57-17.48,104.45,26.58-7.72,51.5-11,74.09-9.63l.06-.26c5-27.5,43.44-33.08,59.72-34.2Z" fill="none"/><path d="M1289.46 875.94c-4.68-21-10.33-31.71-19.52-37.14-14.79-8.75-39-3.8-91.32 11.41l-.28-1c52.58-15.3 77-20.25 92.11-11.31 9.45 5.59 15.24 16.54 20 37.78zM1295.49 910.62c-.67-4.58-1.33-8.87-2-13.11l1-.16c.68 4.24 1.34 8.54 2 13.13zM1293.47 897.51c-1.41-8.77-2.69-15.63-4-21.57l1-.22c1.33 6 2.61 12.84 4 21.63zM1176.25 825.86l-.16-1q13.07-2.18 24.35-4.13c64-11 88-15 99.37 4.37l-.86.51c-11.07-18.82-33.06-15.06-98.34-3.89Q1189.32 823.67 1176.25 825.86zM1178.58 804l-.2-1c60.82-12.55 94.61-16.66 110.45-4.26l-.62.79C1272.68 787.39 1239.1 791.51 1178.58 804zM1178.15 943.17c0-.22-.05-.45-.08-.68s-.08-.68-.09-1l1 0c0 .27 0 .59.08.9s.06.49.08.72z" fill="none"/><polygon points="1116.72 949.55 1117.12 949.25 1117.56 949.01 1117.62 949.11 1116.72 949.55" fill="none"/><path fill="#fbb890" d="M794.83,334.42c-12.28-3-25.31-10.22-36-17.45-29.33-19.9-50.07-12.37-62.2,7.66v17.91A11.33,11.33,0,0,1,685,353.8l-4.75-.11a7.41,7.41,0,0,0-7.57,6.53L671.45,371a3.32,3.32,0,0,1-6,1.54c-5.81-8-15.85-20.33-25.41-24.24-9.34-3.83-18.23.33-22.26,24.26A115.75,115.75,0,0,0,616.13,388a11.24,11.24,0,0,1,6.3-2.32l7-.31a11.76,11.76,0,1,1,.49,11.19h-4.53a15,15,0,0,0-8,6.53c5.88,25.42,30.42,16.9,30.42,16.9a125,125,0,0,1-6.27,31.88,91.88,91.88,0,0,1-13.9,26.83c3.58,11.31,7.41,21.25,11,29.69l.45.23c21.56,11.18,39.06,21.21,52.79,29.57h0a5.58,5.58,0,0,0,.38-.47l.1-.11,0,0a.63.63,0,0,1,.1-.12l0-.05c.57-.67,1.12-1.35,1.67-2q1.72-2.14,3.34-4.35c.59-.79,1.16-1.6,1.73-2.41a95.8,95.8,0,0,0,7.59-12.83c.33-.67.65-1.34.95-2s.62-1.34.88-2c1.07-2.86,2-5.63,2.76-8.16a.64.64,0,0,0,0-.07q.15-.48.27-.93c.18-.59.34-1.17.5-1.73a.17.17,0,0,0,0-.1.13.13,0,0,0,0-.06l0-.05s0,0,0-.06a40.27,40.27,0,0,0,1.71-8.82l-.37-.06h-.09c-38.5-5.89-46-36.8-46-36.8l2.06,1.13a97.49,97.49,0,0,0,12.21,6.2l.15.07c7.16,3.4,14.4,6.43,21.56,9.16,1.35.51,2.7,1,4,1.5,1,.38,2,.75,3.07,1.1l.43.16c6.71,2.37,13.29,4.47,19.59,6.31,6,1.77,11.86,3.33,17.25,4.66a34.34,34.34,0,0,0,12.47.71,33.12,33.12,0,0,0,5.17-1.05,33.85,33.85,0,0,0,24.5-29C794.14,416,798.8,358.63,794.83,334.42Zm-69.69,18.07c.36-2.49,5.77-3.77,12.07-2.86s11.13,3.65,10.77,6.13-5.77,3.76-12.08,2.86S724.77,355,725.14,352.49Zm11.42,25.11c0,5-2,9-4.58,9s-4.58-4-4.58-9,2.05-9,4.58-9S736.56,372.63,736.56,377.6Zm-10.11,39.57a71.32,71.32,0,0,0,20.93,14.38,68.66,68.66,0,0,0,7.34,2.81C740.71,463.11,728.64,452.74,726.45,417.17ZM779.66,389c-2.53,0-4.58-4-4.58-9s2-9,4.58-9,4.58,4,4.58,9S782.19,389,779.66,389Zm4.91-26.46c-4.78-.09-8.64-1.7-8.6-3.58s3.94-3.34,8.73-3.25,8.64,1.69,8.6,3.58S789.36,362.6,784.57,362.52ZM713,478.65l-.08-.06c.07.26.13.52.2.79Zm.52,13c-.19,2.05-.47,4-.78,5.77v0c-.35,2-.73,3.78-1,5.09-.19.83-.35,1.48-.46,1.9.19-.61.36-1.21.52-1.82.07-.26.13-.51.19-.77s.2-.76.28-1.14a.35.35,0,0,0,0-.11s0,0,0-.06c.31-1.3.56-2.61.77-3.93.09-.55.17-1.11.24-1.67,0-.14,0-.28.05-.41a.43.43,0,0,0,0-.05q.18-1.41.27-2.82c0-.33.05-.67.06-1,0-.8.07-1.6.08-2.41C713.74,489.42,713.66,490.56,713.55,491.68Z" class="colorffd4c2 svgShape"/><path d="M691.86,538.68h-.53v-.22c-16.05-9.77-33.72-19.66-52.52-29.42l-.45-.22-.15-.08-.08-.17c-4.16-9.79-7.87-19.79-11-29.74l-.08-.25.16-.2A90.73,90.73,0,0,0,641,451.68a127.38,127.38,0,0,0,6.21-31c-2.58.75-11.7,2.9-19.58-1.45-5.39-3-9-8.37-10.79-16l0-.19.1-.17a15.62,15.62,0,0,1,8.28-6.75l.18,0h4.81l.14.24a11.25,11.25,0,1,0-.46-10.71l-.14.27-7.26.32a10.81,10.81,0,0,0-6,2.22l-.84.62,0-1a116.54,116.54,0,0,1,1.65-15.49c2.23-13.22,6.16-21.48,11.67-24.55,3.24-1.8,7-1.83,11.28-.09,9.39,3.84,19.12,15.39,25.62,24.41a2.79,2.79,0,0,0,3,1.08,2.74,2.74,0,0,0,2.08-2.39l1.24-10.76a7.86,7.86,0,0,1,8.08-7l4.75.11a10.88,10.88,0,0,0,7.91-3.1,10.63,10.63,0,0,0,3.24-7.66V324.49l.07-.12c6.3-10.4,14.35-16.73,23.93-18.82,11.42-2.5,24.53,1.21,39,11,9.09,6.17,22.68,14.19,35.8,17.38l.32.07.05.33c3.9,23.76-.42,79.19-4.73,121.51a34.23,34.23,0,0,1-24.86,29.46,33.39,33.39,0,0,1-5.25,1.07,34.85,34.85,0,0,1-12.65-.72c-5.67-1.4-11.48-3-17.27-4.67-6.62-1.93-13.22-4.06-19.62-6.32l-.43-.16c-1-.35-2-.72-3.07-1.1-1.34-.48-2.7-1-4.05-1.5-7.66-2.92-14.92-6-21.6-9.18l-.19-.09a95.29,95.29,0,0,1-12.23-6.21l-1-.52c1.83,5.6,11.6,29.9,44.68,35.19.09-1,.15-1.93.18-2.85l1,0c0,.82,0,1.62-.08,2.43l0,.56.34.06v.42a40.86,40.86,0,0,1-1.72,8.91l0,.19h0l0,.1c-.07.35-.16.71-.26,1.06s-.12.5-.19.76c-.16.62-.33,1.22-.52,1.84l-.11,0c-.76,2.46-1.6,4.94-2.49,7.32-.27.7-.59,1.39-.9,2.06s-.62,1.36-1,2a97.72,97.72,0,0,1-7.63,12.9c-.58.81-1.15,1.63-1.74,2.42-1.11,1.51-2.24,3-3.35,4.36l-.39.48-1.25,1.51-.35.39a2.77,2.77,0,0,1-.33.42l-.15.17Zm.77-.69,0,0ZM639,508l.27.14c18.81,9.75,36.46,19.63,52.51,29.39l.08-.1.2-.24.09-.1c.45-.53.87-1.05,1.29-1.56l.39-.48c1.1-1.36,2.22-2.82,3.33-4.32.58-.79,1.15-1.6,1.72-2.41a95,95,0,0,0,7.55-12.76c.33-.66.64-1.33.94-2s.62-1.33.87-2c1-2.61,1.9-5.35,2.75-8.12.12-.39.21-.69.28-1,.39-1.63.74-3.38,1-5.05s.55-3.58.73-5.3C675,486,667.18,455.31,667.1,455l-.27-1.11,1,.55,2,1.13a93.92,93.92,0,0,0,12.18,6.18l-.06.53.19-.47c6.68,3.18,13.92,6.25,21.56,9.16,1.34.51,2.69,1,4,1.5,1,.38,2,.75,3.06,1.1a4.69,4.69,0,0,1,.45.17c6.37,2.24,13,4.36,19.55,6.29,5.78,1.69,11.57,3.26,17.23,4.66a33.77,33.77,0,0,0,12.29.69,32.74,32.74,0,0,0,5.09-1,33.24,33.24,0,0,0,24.14-28.6c4.29-42.07,8.58-97.1,4.8-120.92-13.17-3.27-26.72-11.28-35.8-17.45-14.21-9.63-27.06-13.29-38.21-10.86-9.26,2-17.07,8.17-23.21,18.25v17.77a11.63,11.63,0,0,1-3.54,8.37A11.82,11.82,0,0,1,685,354.3l-4.75-.11a6.88,6.88,0,0,0-7.07,6.09L671.94,371a3.82,3.82,0,0,1-6.9,1.77c-5.26-7.29-15.54-20.12-25.19-24.07-4-1.62-7.45-1.6-10.42.05-5.23,2.91-9,10.93-11.16,23.83a117.23,117.23,0,0,0-1.6,14.37,11.59,11.59,0,0,1,5.73-1.84l6.69-.3a12.25,12.25,0,1,1,.52,12.18h-4.16a14.5,14.5,0,0,0-7.59,6.11c1.72,7.27,5.17,12.38,10.25,15.18,8.71,4.82,19.37,1.21,19.47,1.17l.69-.24,0,.73a126.88,126.88,0,0,1-6.3,32,92.32,92.32,0,0,1-13.82,26.77C631.24,488.55,634.88,498.38,639,508Zm73.69-28.49-.57-2.19,1.4,1.05.15.93Zm26.85-28a5.83,5.83,0,0,1-1.18-.12c-6.61-1.31-11.13-13.76-12.38-34.16l-.08-1.31.93.93a70.58,70.58,0,0,0,20.78,14.27,66.47,66.47,0,0,0,7.29,2.79l.55.18-.25.52C749.76,445.68,744.37,451.48,739.51,451.48Zm-12.48-33c1.32,18.86,5.59,30.77,11.5,31.94,4.53.9,10-4.68,15.48-15.72a71.08,71.08,0,0,1-27-16.22Zm52.63-29c-2.85,0-5.08-4.17-5.08-9.49s2.23-9.49,5.08-9.49,5.08,4.17,5.08,9.49S782.51,389.48,779.66,389.48Zm0-18c-2.21,0-4.08,3.89-4.08,8.49s1.87,8.49,4.08,8.49,4.08-3.89,4.08-8.49S781.87,371.5,779.66,371.5ZM732,387.08c-2.85,0-5.08-4.16-5.08-9.48s2.23-9.49,5.08-9.49,5.08,4.17,5.08,9.49S734.83,387.08,732,387.08Zm0-18c-2.21,0-4.08,3.89-4.08,8.49s1.87,8.48,4.08,8.48,4.08-3.88,4.08-8.48S734.19,369.11,732,369.11ZM785,363h-.39c-3.71-.07-7-1-8.38-2.48a2.09,2.09,0,0,1,.06-3.19c1.43-1.38,4.77-2.22,8.47-2.16s7,1,8.37,2.47a2.26,2.26,0,0,1,.72,1.62c0,1.13-1,2.13-2.91,2.82A17.57,17.57,0,0,1,785,363Zm-.37-1a17.09,17.09,0,0,0,6-.86c1.4-.52,2.25-1.23,2.26-1.9a1.32,1.32,0,0,0-.44-.91c-1.18-1.23-4.26-2.1-7.67-2.16s-6.53.69-7.76,1.88a1.11,1.11,0,0,0,0,1.78c1.19,1.24,4.27,2.11,7.68,2.17Zm-44.76-2.61a29.64,29.64,0,0,1-4-.29c-4.86-.7-9-2.49-10.55-4.57a2.85,2.85,0,0,1-.64-2.13c.41-2.81,6-4.25,12.64-3.28,4.85.69,9,2.48,10.55,4.56a2.81,2.81,0,0,1,.64,2.13C748.14,358,744.59,359.41,739.82,359.41Zm-6.53-9.57c-4.42,0-7.44,1.23-7.66,2.72h0a1.91,1.91,0,0,0,.45,1.39c1.38,1.85,5.36,3.53,9.89,4.18,6.53.93,11.23-.51,11.51-2.44a1.88,1.88,0,0,0-.45-1.39c-1.39-1.85-5.36-3.53-9.89-4.17A26.72,26.72,0,0,0,733.29,349.84Z" fill="none"/><path d="M794.33 334.5l-.12-.76c-.1-.64-.2-1.27-.32-1.83l1-.21c.12.58.23 1.23.33 1.89l.12.75zM713.79 488.12a.76.76 0 010 .15 80.78 80.78 0 01-2.56 16.38.83.83 0 010 .15c0 .16 2.83-13.05 2.83-13.05-38.9-5.71-46.42-36.87-46.42-36.87l2.06 1.13a97.49 97.49 0 0012.21 6.2l.15.07c7.16 3.4 14.4 6.43 21.56 9.16l9.38 7.15c.07.26.13.52.2.79A54 54 0 01713.79 488.12z" fill="none"/><path d="M711.48,505.4l-.43-.11c-.2-.06-.32-.09-.26-.65l-.08,0c0-.18.11-.4.17-.66.17-1,.55-2.69,1.22-5.78l.19-.87c.27-1.61.53-3.37.72-5.2-38-6.05-45.83-36.79-45.91-37.1l-.27-1.11,1,.55,2,1.13a93.92,93.92,0,0,0,12.18,6.18l-.06.53.19-.47c6.68,3.18,13.92,6.25,21.56,9.16l.12.07,9.52,7.26.24.95a54.67,54.67,0,0,1,.66,8.87,2.11,2.11,0,0,1,0,.25c0,1-.1,1.93-.18,2.89l.52.07-.11.53c-.33,1.51-.77,3.49-1.19,5.46-.56,3.31-1.23,6-1.61,7.46a1.43,1.43,0,0,1-.06.21Zm-43.06-49.49c1.83,5.6,11.6,29.9,44.68,35.2.08-.95.14-1.9.18-2.86l.51-.13h-.5a53.92,53.92,0,0,0-.64-8.66l-.14-.58-9.19-7c-7.63-2.91-14.87-6-21.53-9.15l-.19-.09a95.29,95.29,0,0,1-12.23-6.21Z" fill="none"/><path d="M681.64,462.66c-4.41-2.09-8.41-4.12-12.23-6.21l.48-.88c3.8,2.08,7.79,4.1,12.18,6.19Z" fill="none"/><path fill="#ff5b00" d="M589.68,337.47c.63-16.41,8.39-31.56,27.76-44.43,0,0,7,.76,16.85,2.59C642.71,327.13,617.21,341.2,589.68,337.47Z" class="colorred svgShape"/><path d="M598.32,338.57a65.3,65.3,0,0,1-8.71-.6l-.45-.06,0-.46c.69-18.11,9.85-32.78,28-44.83l.15-.1.18,0c.07,0,7.12.79,16.89,2.6l.31.06.08.3c3.37,12.61,1.54,23.38-5.29,31.14S611.41,338.57,598.32,338.57ZM590.2,337c16.2,2.08,30.58-2,38.52-11.06,6.55-7.44,8.34-17.77,5.17-29.92-8.71-1.6-15.18-2.37-16.33-2.5C600,305.3,591,319.52,590.2,337Z" fill="none"/><path fill="#ff5b00" d="M696.67,324.63v17.91A11.33,11.33,0,0,1,685,353.8l-4.75-.11a7.41,7.41,0,0,0-7.57,6.53L671.45,371a3.32,3.32,0,0,1-6,1.54c-5.81-8-15.85-20.33-25.41-24.24-9.34-3.83-18.23.33-22.26,24.26A115.75,115.75,0,0,0,616.13,388c-2.83,2.1-5,5.56-6.64,10.11-11.6-20.8-20.53-41.55-19.81-60.61,27.53,3.73,53-10.34,44.61-41.84C655,299.49,688.42,308.13,696.67,324.63Z" class="colorred svgShape"/><path d="M609.59,399.3l-.54-1c-9.67-17.33-20.66-39.92-19.87-60.87l0-.55.54.08c16.39,2.22,31-1.89,39-11,6.61-7.5,8.37-18,5.08-30.22l-.2-.77.78.15c19.81,3.69,54.3,12.4,62.74,29.27l0,.1v18a11.63,11.63,0,0,1-3.54,8.37A11.86,11.86,0,0,1,685,354.3l-4.75-.11a6.88,6.88,0,0,0-7.07,6.09L671.94,371a3.82,3.82,0,0,1-6.9,1.77c-5.26-7.29-15.54-20.12-25.19-24.07-4-1.62-7.45-1.6-10.42.05-5.23,2.91-9,10.93-11.16,23.83A116.26,116.26,0,0,0,616.63,388v.24l-.19.14c-2.71,2-4.88,5.33-6.47,9.88ZM590.16,338c-.56,20.17,9.85,41.91,19.23,58.84,1.58-4.11,3.68-7.19,6.25-9.16a117.62,117.62,0,0,1,1.64-15.26c2.23-13.22,6.16-21.48,11.67-24.55,3.24-1.8,7-1.83,11.28-.09,9.39,3.84,19.12,15.39,25.62,24.41a2.79,2.79,0,0,0,3,1.08,2.74,2.74,0,0,0,2.08-2.39l1.24-10.76a7.86,7.86,0,0,1,8.08-7l4.75.11a10.75,10.75,0,0,0,7.91-3.1,10.63,10.63,0,0,0,3.24-7.66V324.75C688,308.56,654.67,300,635,296.27c3.1,12.28,1.2,22.77-5.49,30.37C621.32,335.9,606.65,340.14,590.16,338Z" fill="none"/><polygon points="641.07 452.13 641.04 452.08 641.91 451.59 641.07 452.13" fill="none"/><polygon points="610.78 494.74 610.23 493.9 610.86 494.67 610.78 494.74" fill="none"/><path fill="#ff5b00" d="M835.51,287.39c0,44.33-19.18,52.25-40.68,47-12.28-3-25.31-10.22-36-17.45-29.33-19.9-50.07-12.37-62.2,7.66-8.25-16.5-41.67-25.14-62.38-29-9.86-1.83-16.85-2.59-16.85-2.59-1.63-8.07,7.07-43.56,40.25-41.94,30.9,1.5,85.89,9.54,99-14.16a8.69,8.69,0,0,1,9.89-3.9c3,.79,5.75,1.68,8.49,2.59,29,9.56,44.51,24.92,52.53,36.46C833.68,280.84,835.51,287.39,835.51,287.39Z" class="colorred svgShape"/><path d="M805.64 336.33a46.88 46.88 0 01-10.93-1.42c-13.27-3.22-27-11.31-36.12-17.53-14.21-9.63-27.06-13.29-38.21-10.86-9.3 2-17.14 8.22-23.28 18.37l-.47.78-.41-.82c-8.24-16.47-42.4-25.07-62-28.73-9.73-1.8-16.75-2.57-16.82-2.58l-.36 0-.07-.36c-1-5.05 1.74-19.42 10.88-30.05 7.53-8.76 17.85-13.08 29.88-12.49 4.45.22 9.4.57 14.64.94 30.73 2.18 72.83 5.17 83.9-14.84a9.14 9.14 0 0110.46-4.14c2.85.75 5.46 1.58 8.52 2.6 29.29 9.66 44.87 25.26 52.78 36.65 6.06 8.71 7.9 15.18 8 15.45l0 .13c0 21.75-4.66 36.44-13.85 43.67C817.69 334.57 812.16 336.33 805.64 336.33zm-78.36-31.54c9.65 0 20.34 3.94 31.87 11.77 9.09 6.17 22.68 14.19 35.8 17.38 11.12 2.69 20.06 1.46 26.59-3.67 8.93-7 13.46-21.42 13.47-42.81a57.82 57.82 0 00-7.82-15.08c-7.83-11.26-23.25-26.69-52.28-36.27-3-1-5.63-1.84-8.46-2.59a8.14 8.14 0 00-9.32 3.66c-11.38 20.58-53.85 17.56-84.85 15.36-5.24-.37-10.18-.72-14.62-.94-11.86-.58-21.64 3.51-29.07 12.14-8.59 10-11.48 23.78-10.72 28.85 1.58.18 8 1 16.51 2.55 19.5 3.63 53.23 12.13 62.32 28.48 6.23-9.95 14.12-16 23.47-18.07A32.75 32.75 0 01727.28 304.79zM942.39 1386.18l.35-.22h.1zm1-.22h-.6l.52-.29v0h0zM985.5 1374.56l0-.06.83-.55a.89.89 0 01.15.29zM985.39 1374.26l-.08-.11a.67.67 0 01-.1-.19l0-.06.85-.55.21.34v.23h-.5z" fill="none"/><path d="M985.5 1374.56l0-.06.83-.55a.89.89 0 01.15.29zM990.47 1385v0c-.18-.4-.37-.79-.57-1.2l.9-.44c.2.41.39.81.58 1.22z" fill="none"/><polygon points="1023.3 1355.8 1023.23 1355.62 1023.2 1355.64 1023.23 1355.62 1023.15 1355.42 1023.58 1355.42 1023.77 1355.31 1024.01 1355.09 1023.82 1355.28 1024.07 1355.14 1024.15 1355.31 1024.15 1355.42 1023.68 1355.42 1023.3 1355.8" fill="none"/><path d="M1068.05 1366.31c-6.67-18.14-16-38.94-27.65-61.83l.89-.46c11.7 22.93 21 43.77 27.7 62zM955.6 1127.56c-13.9-20.64-30.21-34.56-48.46-41.36l.35-.94c18.45 6.88 34.92 20.92 48.94 41.74z" fill="none"/><path d="M837 1093.82l-.47-.88c24.93-13.36 48.81-15.94 71-7.68l-.35.94C885.26 1078 861.66 1080.61 837 1093.82zM990.77 1234.37l-.06-.59-.06-.55 1-.08c0 .17 0 .35.05.52l.06.62z" fill="none"/><path d="M990.9,1233.62A68.11,68.11,0,0,1,976.74,1223l.72-.7a67,67,0,0,0,13.94,10.46Z" fill="none"/><path fill="#fffbf9" d="M1619.17,1150.32c-1.21-2.48-4.08-5.3-9-8.51-6.13-4-15.42-8.68-28.56-14-26.36-10.65-68.21-24-131-40.51,8.11-16.31,13.78-27.76,16.11-32.46,15.23-30.84,37-86.14,113.84-84.59,21.18,25.24,31.09,57.24,34.44,90.74C1617.8,1088.72,1619.73,1128.8,1619.17,1150.32Z" class="colorfff9f9 svgShape"/><path d="M1619.61,1152.38l-.89-1.84c-1.21-2.47-4.16-5.27-8.78-8.31-6.34-4.18-15.92-8.87-28.47-13.94-28.38-11.47-72.43-25.09-131-40.5l-.59-.15.27-.55c7-14,12.12-24.42,14.92-30.06l1.19-2.4q1.37-2.78,2.81-5.78c15.29-31.6,38.28-79.12,108.3-79.12l3.19,0h.23l.14.17c19.18,22.85,30.8,53.47,34.56,91,2.82,28.35,4.67,68.45,4.13,89.38ZM1451.37,1087c58.26,15.35,102.16,28.94,130.48,40.38,12.61,5.09,22.24,9.81,28.64,14,3.88,2.56,6.63,5,8.22,7.2.4-21.32-1.43-60-4.17-87.54-3.72-37.24-15.22-67.62-34.18-90.29l-2.93,0c-69.41,0-92.23,47.18-107.41,78.56-1,2-1.9,3.93-2.81,5.78l-1.19,2.4C1463.26,1063,1458.19,1073.26,1451.37,1087Z" fill="none"/><rect width="1" height=".15" x="1618.67" y="1150.32" fill="none"/><path fill="#fffbf9" d="M1528.69,929.13a152.23,152.23,0,0,1-104.64,41.06c-51.66,0-97.13-25.12-123.91-63.23,12.33-12.72,11.24-35.25,7.54-53.43l1-1.27A101.07,101.07,0,0,1,1327,853.9a53.8,53.8,0,0,0-3.82,17.52c-1.8,39.71,41,73.87,95.5,76.29,36.87,1.64,69.64-11.66,87.6-32.69Z" class="colorfff9f9 svgShape"/><path d="M1424.05,970.69c-49.93,0-96.41-23.72-124.32-63.44l-.24-.34.29-.3c12.43-12.82,10.89-35.89,7.41-53l0-.23,1.31-1.64h.24a101.65,101.65,0,0,1,18.43,1.65l.6.11-.23.57a53.39,53.39,0,0,0-3.78,17.35c-.87,19,8.52,37.41,26.43,51.72s42.31,22.89,68.59,24.05c35.32,1.55,68.73-10.89,87.2-32.51l.28-.33,23.29,14.68-.47.45C1500.81,956.06,1463.53,970.69,1424.05,970.69ZM1300.78,907c27.76,39.26,73.8,62.68,123.27,62.68,39,0,75.85-14.37,103.82-40.48l-21.46-13.54c-18.73,21.66-52.3,34.12-87.72,32.54-26.49-1.17-51.06-9.79-69.18-24.27s-27.68-33.17-26.8-52.54a54.44,54.44,0,0,1,3.63-17.11,99.79,99.79,0,0,0-17.41-1.53l-.72.9C1311.68,870.83,1313.15,893.88,1300.78,907Z" fill="none"/><path fill="#fbb890" d="M1239.91,1030.07c-3.59,5.44-14.22,7.2-28.47,3,0,0-58.61-16.64-94.26-83.68.49-.43.92-.88,1.42-1.3,21.13-4.66,41.15-6.42,60.05-4.92,1,12.31,8.83,33.13,18.91,41,5.37,4.18,9.93,9.29,15.85,12.67,2,1.13,3.7,2.23,5.45,3.34a17.31,17.31,0,0,0,8.81,6.16C1240.29,1016.28,1243.34,1024.87,1239.91,1030.07Z" class="colorffd4c2 svgShape"/><path d="M1226 1035.88a52.44 52.44 0 01-14.69-2.37c-.59-.16-59.22-17.47-94.56-83.93l-.19-.34.3-.27c.21-.18.41-.37.61-.56s.53-.5.82-.74l.09-.08.12 0c21.48-4.73 41.73-6.39 60.2-4.93l.42 0 0 .42c.94 11.62 8.52 32.68 18.71 40.61 2 1.51 3.81 3.16 5.61 4.76a62.07 62.07 0 0010.19 7.87c1.84 1 3.49 2.1 5.09 3.11l.51.37a16.84 16.84 0 008.57 6l.15.08c11.71 9.3 16.32 18.45 12.35 24.48h0C1237.92 1034 1232.75 1035.88 1226 1035.88zM1117.8 949.46c35.15 65.79 93.19 82.92 93.77 83.09 13.26 3.94 24.21 2.86 27.92-2.75s-.86-14.17-12.06-23.09a17.73 17.73 0 01-8.92-6.24l-.3-.18c-1.58-1-3.22-2-5-3.09a63.09 63.09 0 01-10.35-8c-1.79-1.59-3.64-3.23-5.56-4.72-10.29-8-18-29-19.06-40.89-18.22-1.4-38.19.25-59.36 4.91-.24.2-.46.41-.68.62zM1438.62 685.28a14.47 14.47 0 01-.32-1.62l0-.27 1-.16 0 .27c.09.52.17 1 .31 1.52z" fill="none"/><path fill="#fb600a" d="M1568.5,743.33c-26.15-40.36-61-47.82-73.69-29.8a163.24,163.24,0,0,0-19.22-15.83c8.22-23.3,36.56-30.8,65.93-3.06a146,146,0,0,1,9.2,11.61,121.1,121.1,0,0,1,10.59,17.89,118.11,118.11,0,0,1,4.55,10.91C1566.86,737.82,1567.76,740.58,1568.5,743.33Z" class="colorff4715 svgShape"/><path d="M1569.81,746.27l-1.73-2.67c-18.27-28.2-39.59-38.54-53.44-38.82-8.32-.18-15.19,3.05-19.42,9l-.34.47-.42-.4a162.86,162.86,0,0,0-19.16-15.78l-.31-.22.13-.36c3.7-10.49,11.56-17.89,21.57-20.32,13.92-3.36,30,2.7,45.17,17.07a148,148,0,0,1,9.27,11.68,123.73,123.73,0,0,1,10.63,18c1.71,3.58,3.24,7.27,4.57,11,1.09,3,2,5.75,2.65,8.32ZM1514,703.78h.63c13.65.28,34.38,10.08,52.45,36.56-.5-1.61-1.07-3.31-1.72-5.12-1.32-3.66-2.84-7.31-4.53-10.86a121.31,121.31,0,0,0-10.55-17.82c-2.87-4-6-7.91-9.17-11.57-14.93-14.09-30.64-20.07-44.21-16.78-9.56,2.31-17.1,9.34-20.74,19.32a164.67,164.67,0,0,1,18.55,15.26C1499.08,707,1505.89,703.78,1514,703.78Z" fill="none"/><path fill="#fb600a" d="M1572.44,775a122.14,122.14,0,0,1-1.38,16.79c1.55-39.4-39.15-67.29-59.23-58.23-3.75-6-9.79-13.08-17-20,12.72-18,47.54-10.56,73.69,29.8.46,1.66.82,3.3,1.19,4.95q.84,3.75,1.4,7.44A116,116,0,0,1,1572.44,775Z" class="colorff4715 svgShape"/><path d="M1571.55,791.83l-1-.1c.93-23.73-13.41-42.07-27.14-51.33-11.28-7.6-23.31-10.07-31.39-6.42l-.39.18-.24-.37c-3.7-5.93-9.72-13-16.94-19.9l-.31-.3.25-.35c4.43-6.27,11.62-9.63,20.26-9.46,14.11.28,35.77,10.75,54.26,39.28l.06.14c.43,1.56.78,3.14,1.12,4.65l.08.32c.57,2.54,1,5.06,1.4,7.48a117.52,117.52,0,0,1,1.36,19.32A122.71,122.71,0,0,1,1571.55,791.83Zm-51.15-60.5c7.19,0,15.58,2.85,23.58,8.24,12.59,8.49,25.68,24.5,27.43,45.27.31-3.32.49-6.62.53-9.88h0a115.54,115.54,0,0,0-1.35-19.15c-.36-2.4-.83-4.89-1.39-7.41l-.07-.32c-.33-1.48-.68-3-1.09-4.53-18.27-28.16-39.56-38.48-53.4-38.76-8.13-.18-14.92,2.92-19.17,8.69A112.67,112.67,0,0,1,1512,732.89,21.57,21.57,0,0,1,1520.4,731.33Z" fill="none"/><path fill="#fb600a" d="M1541.52,694.64c-29.37-27.74-57.71-20.24-65.93,3.06a100,100,0,0,0-21-11.6c5.34-18,20.53-29.68,50.81-19.34C1517.46,672.41,1529.89,681.39,1541.52,694.64Z" class="colorff4715 svgShape"/><path d="M1475.84,698.49l-.54-.38a98.7,98.7,0,0,0-20.89-11.54l-.43-.17.13-.44c2.8-9.42,8.13-16.39,15.41-20.14,9.15-4.73,21.28-4.57,36,.47,13.24,6.2,25.45,15.62,36.33,28l-.72.69c-15-14.12-30.66-20.1-44.24-16.81-9.68,2.34-17.28,9.51-20.87,19.68ZM1455.2,685.8a99.38,99.38,0,0,1,20.14,11.12c3.79-10.17,11.54-17.33,21.35-19.71,11.8-2.85,25.12,1.07,38.17,11.08a106.65,106.65,0,0,0-29.67-21.08c-14.44-4.92-26.31-5.1-35.22-.51C1463,670.33,1458,676.75,1455.2,685.8Z" fill="none"/><path fill="#fb600a" d="M1554.49,837.73a33.26,33.26,0,0,1-21.3,11.28c-14.13,1.63-46.73,5.94-62.14,2.66a47.85,47.85,0,0,1,7.35-11.3,10.82,10.82,0,0,1,14-1.44c23.43,17.85,42-8.08,42-8.08,17.9-38.85,1.87-43.26-30-33.5a2,2,0,0,1-2.62-2.53l4.19-10.59a8.74,8.74,0,0,0-2-9.44C1538.37,765.07,1568.22,785.11,1554.49,837.73Z" class="colorff4715 svgShape"/><path d="M1486.1,853.37a76.4,76.4,0,0,1-15.16-1.21l-.62-.13.28-.58A48.62,48.62,0,0,1,1478,840c3.61-4,10.49-4.74,14.72-1.51,6.48,4.94,13.18,6.93,19.93,5.91,12.63-1.89,21.27-13.76,21.35-13.88,7.85-17.07,9.44-28,4.8-33.29s-15.8-5.09-34.22.56a2.72,2.72,0,0,1-2.79-.71,2.34,2.34,0,0,1-.44-2.48l4.19-10.59a8.23,8.23,0,0,0-1.88-8.9l-.61-.61.82-.23c17.44-4.94,33.16-2.16,43.13,7.61,11.58,11.34,14.4,31.2,7.94,55.94l0,.11-.07.09a33.76,33.76,0,0,1-21.62,11.45l-3.84.45C1518.38,851.26,1500.57,853.37,1486.1,853.37Zm-14.32-2.06c14.28,2.77,42.34-.55,57.52-2.35l3.83-.45a32.75,32.75,0,0,0,20.9-11c6.32-24.32,3.59-43.8-7.7-54.86-9.56-9.36-24.6-12.11-41.37-7.58a9.24,9.24,0,0,1,1.54,9.37L1502.31,795a1.34,1.34,0,0,0,.25,1.44,1.7,1.7,0,0,0,1.76.43c19.1-5.85,30.3-5.93,35.26-.26s3.39,16.91-4.69,34.45c-.13.21-9,12.41-22.05,14.37-7,1.06-14-1-20.7-6.1a10.32,10.32,0,0,0-13.37,1.38A46.85,46.85,0,0,0,1471.78,851.31Z" fill="none"/><path fill="#fb600a" d="M1505.4,666.76c-30.28-10.34-45.47,1.38-50.81,19.34-5.76-2.2-11.18-3.28-15.84-2.79C1435.48,663.42,1468.69,649.57,1505.4,666.76Z" class="colorff4715 svgShape"/><path d="M1454.91,686.76l-.5-.19c-6-2.29-11.25-3.22-15.61-2.76l-.47.05-.07-.47c-1.09-6.58,1.68-12.76,7.8-17.39,11.2-8.48,34-11.67,59.55.31l-.37.92c-14.5-4.94-26.36-5.12-35.27-.53-7.13,3.68-12.14,10.26-14.9,19.54ZM1441,682.69a38.78,38.78,0,0,1,13.22,2.75c2.85-9.16,8.11-15.94,15.26-19.62s16.5-4.44,27.42-2c-21.77-7.67-40.53-4.41-50.28,3-5.66,4.29-8.31,9.94-7.49,16C1439.78,682.72,1440.4,682.69,1441,682.69Z" fill="none"/><path fill="#fb600a" d="M1571.06,791.75a146.15,146.15,0,0,1-11.25,37.75,33.29,33.29,0,0,1-5.32,8.23c13.73-52.62-16.12-72.66-50.45-62.94l-7.23-7.14a8,8,0,0,1,.52-11.91l12.43-10.35a9.16,9.16,0,0,0,2.07-11.87C1531.91,724.46,1572.61,752.35,1571.06,791.75Z" class="colorff4715 svgShape"/><path d="M1553.47,839.67l.54-2.06c6.35-24.38,3.63-43.9-7.68-55-9.71-9.51-25.08-12.19-42.16-7.36l-.28.08-7.43-7.34a8.52,8.52,0,0,1,.55-12.65L1509.44,745a8.68,8.68,0,0,0,2-11.22l-.3-.49.52-.23c8.39-3.79,20.79-1.3,32.36,6.5,14,9.41,28.53,28.06,27.58,52.2v.06a147.08,147.08,0,0,1-11.29,37.88,33.77,33.77,0,0,1-5.39,8.35Zm-33.25-67.75c10.73,0,20.08,3.4,26.81,10,11.23,11,14.22,30,8.49,53.76a32.13,32.13,0,0,0,3.83-6.38,146.5,146.5,0,0,0,11.21-37.6c.92-23.71-13.41-42-27.14-51.3-11.05-7.45-22.81-10-30.88-6.64a9.73,9.73,0,0,1-2.46,12l-12.43,10.35a7.53,7.53,0,0,0-.49,11.17l7,6.93A60,60,0,0,1,1520.22,771.92Z" fill="none"/><path fill="#fbb890" d="M1504.47,797.35a2,2,0,0,1-2.62-2.53l4.19-10.59a8.74,8.74,0,0,0-2-9.44l-7.23-7.14a8,8,0,0,1,.52-11.91l12.43-10.35a9.16,9.16,0,0,0,2.07-11.87c-3.75-6-9.79-13.08-17-20a163.24,163.24,0,0,0-19.22-15.83,100,100,0,0,0-21-11.6c-5.76-2.2-11.18-3.28-15.84-2.79-13.68,14.42-27.37,34.42-39.2,54.66-14.49,24.81-26.17,49.94-31.45,65.54-6.87,20.3,5.47,28.26,34,37,11.84,3.61,26.48,7.38,43.7,12.18-13.16,3.74-34.61,8.25-51.93,4.59-9.44,17.27-12.48,12-28.14,8.2-13.07-3.21-23.73-8.78-38.7-11.55a53.8,53.8,0,0,0-3.82,17.52c-1.8,39.71,41,73.87,95.5,76.29,36.87,1.64,69.64-11.66,87.6-32.69l-31.4-19.8c-7.44-4.69-12.27-15.57-10.36-24.09a90,90,0,0,1,6.5-19.46,47.85,47.85,0,0,1,7.35-11.3,10.82,10.82,0,0,1,14-1.44c23.43,17.85,42-8.08,42-8.08C1552.34,792,1536.31,787.59,1504.47,797.35Zm-79.63-90.13a2,2,0,0,1-.07-1.29c.4-1.09,2-1.64,4.12-1.64a20.3,20.3,0,0,1,6.73,1.28c5.24,1.86,8.88,5,8.13,7.11s-5.6,2.23-10.84.36C1428.66,711.53,1425.51,709.17,1424.84,707.22Zm58.68,35.87c-1.81,1.75-6.89-.47-11.35-5s-6.61-9.58-4.8-11.34,6.9.47,11.36,5S1485.34,741.33,1483.52,743.09Zm31,83.1c-1.29,6.59-17.68,4.9-14-2.55a32.73,32.73,0,0,1,6.93-8.86C1519.06,815.56,1514.56,826.19,1514.56,826.19Zm-7.16,4.61c-2.7,0-5.54-.83-7-2.63a4.14,4.14,0,0,1-.27-4.75,32.92,32.92,0,0,1,7-9l.16-.15h.21c3.57.24,6,1.44,7.33,3.54,2.1,3.42.36,8,.14,8.52-.42,2-2.11,3.48-4.77,4.13A12,12,0,0,1,1507.4,830.8Zm.32-15.5a32,32,0,0,0-6.67,8.56,3.22,3.22,0,0,0,.16,3.69c1.51,1.89,5.47,2.77,8.83,2,1.32-.33,3.59-1.2,4-3.41l0-.09s1.87-4.54,0-7.66C1513,816.57,1510.83,815.54,1507.72,815.3Z" class="colorffd4c2 svgShape"/><path d="M1443.75,712.68c-.74,2.06-5.6,2.23-10.84.36-4.25-1.51-7.4-3.87-8.07-5.82a41.23,41.23,0,0,1,4.05-2.93,20.3,20.3,0,0,1,6.73,1.28C1440.86,707.43,1444.5,710.61,1443.75,712.68Z" fill="none"/><path d="M1439.56 714.84a20.92 20.92 0 01-6.82-1.33c-4.34-1.54-7.63-4-8.37-6.13l-.11-.32.25-.22a36.19 36.19 0 013.55-2.6l.67-.45h.15a21.57 21.57 0 016.91 1.31c4 1.43 7.27 3.69 8.25 5.75a2.55 2.55 0 01.18 2C1443.75 714.16 1442 714.84 1439.56 714.84zm-14.12-7.47c.86 1.78 3.91 3.88 7.64 5.2 5.31 1.9 9.64 1.49 10.2-.06h0a1.63 1.63 0 00-.15-1.23c-.85-1.8-3.94-3.91-7.68-5.24a20.21 20.21 0 00-6.41-1.25l-.42.29A35 35 0 001425.44 707.37zM1307.42 852.76v-1h1.28v1zM1445.8 852.66c-13.16 3.74-34.61 8.25-51.93 4.59 2.28-4.17 4.94-9.65 8.23-16.77C1413.94 844.09 1428.58 847.86 1445.8 852.66z" fill="none"/><path d="M1408 859.09a69.25 69.25 0 01-14.23-1.35l-.65-.14.32-.59c2.14-3.92 4.67-9.08 8.21-16.74l.19-.39.41.12c7.66 2.34 16.36 4.7 26.43 7.44q8.13 2.22 17.26 4.74l1.71.48-1.71.48C1437.13 855.64 1422.38 859.09 1408 859.09zm-13.36-2.19c16.79 3.32 37.41-1 49.3-4.24q-8.16-2.26-15.52-4.25c-9.9-2.7-18.48-5-26-7.32C1399.09 848.17 1396.68 853.1 1394.63 856.9zM1569.46 1165.42q6.4-18.83 12.2-37.6c13.14 5.31 22.43 10 28.56 14 4.87 3.21 7.74 6 9 8.51C1624.44 1161.06 1598.58 1165.23 1569.46 1165.42z" fill="none"/><path d="M1568.76 1165.93l.22-.67c4.15-12.17 8.25-24.82 12.2-37.59l.16-.52.51.21c12.61 5.09 22.24 9.81 28.64 14 4.77 3.15 7.84 6.08 9.13 8.71a5.63 5.63 0 01-.1 5.74c-5.46 8.84-36.83 10-50.06 10.08zm13.21-37.44c-3.83 12.37-7.8 24.61-11.81 36.43 26.82-.24 44.93-3.82 48.51-9.6a4.62 4.62 0 000-4.78c-1.21-2.47-4.16-5.27-8.78-8.31C1603.68 1138.1 1594.28 1133.48 1582 1128.49zM1177.3 1675.84l-1-.08a157.73 157.73 0 0116.69-59.85l.89.46A156.74 156.74 0 001177.3 1675.84z" fill="none"/><path fill="#fbb890" d="M1569.46,1165.42c-35.53,104.3-87.3,211.35-195.1,361.47.21,7.91-.82,19.55-2.8,33.48-12.87,90.77-66.19,280.05-80.78,185.86-13.73,34.1-38.86,56.55-41.52,17.12,0,0-17.72,45.56-35.44-15.78,0,0-14.18,42.06-27.47,3.51a187.88,187.88,0,0,1-9.55-75.28c-12.35-17-20.3-31.88-12.32-58.72,7.24-24.34,27.58-58.51,69.72-113.09,15-21.26,61.63-110.37,109.35-203.88,41.67-81.67,84.15-166.69,107.1-212.8,62.8,16.53,104.65,29.86,131,40.51Q1575.84,1146.63,1569.46,1165.42Z" class="colorffd4c2 svgShape"/><path d="M1259.93,1784.75a7.33,7.33,0,0,1-1.15-.09c-3.79-.6-8.49-4.48-9.86-19.26-2,4.36-7.51,14.72-14.86,14.72h-.36c-7.22-.33-13.92-10.73-19.93-30.94-1.75,4.65-7.64,18.64-15.08,18.67h0c-4.69,0-9-5.59-12.79-16.61a187.3,187.3,0,0,1-9.6-75.29c-12-16.54-20.48-31.42-12.28-59,7.64-25.7,29.17-60.63,69.8-113.25,12.7-18,49.48-86.58,109.3-203.81,42-82.39,85.15-168.68,107.1-212.79l.18-.37.39.11c58.56,15.41,102.66,29.05,131.08,40.53l.42.17-.13.44c-4,12.78-8.06,25.43-12.21,37.61h0c-40.79,119.73-99.13,227.85-195.07,361.47.19,7.72-.76,19-2.81,33.39-10,70.59-47,211.76-69.22,211.9h0c-5.51,0-9.51-7.95-12.22-24.27C1281.61,1769.5,1268.84,1784.75,1259.93,1784.75Zm-10.32-23.67.15,2.24c.84,12.49,4,19.53,9.18,20.35,8.71,1.36,22.18-14.79,31.37-37.63l.68-1.68.28,1.8c2.59,16.71,6.47,25.18,11.52,25.18h0c9.22-.06,23.08-28.45,38-77.89,12.77-42.25,24.91-95.76,30.21-133.15,2.06-14.48,3-25.72,2.8-33.4v-.16l.1-.14c95.93-133.59,154.27-241.67,195-361.34h0c4.1-12,8.16-24.53,12.07-37.15-28.33-11.4-72.11-24.93-130.14-40.21-22,44.22-65,130.27-106.92,212.44-59.84,117.27-96.64,185.88-109.38,203.94-40.57,52.54-62,87.37-69.65,112.94-8.1,27.24.35,41.92,12.24,58.29l.11.15v.18a186.15,186.15,0,0,0,9.52,75.08c3.64,10.57,7.63,15.93,11.85,15.93h0c8,0,14.59-19.24,14.65-19.44l.52-1.51.44,1.53c6,20.72,12.53,31.38,19.45,31.69h.3c8.43,0,14.68-15.79,14.74-15.95Z" fill="none"/><path fill="#fffbf9" d="M1580.6,970.26c-76.8-1.55-98.61,53.75-113.84,84.59-2.33,4.7-8,16.15-16.11,32.46-23,46.11-65.43,131.13-107.1,212.8-113.92-127.92-288.23-169.82-345.7-181.73l80.54-89.88s.73-36,26.53-66.81a107.19,107.19,0,0,1,12.26-12.34c35.65,67,94.26,83.68,94.26,83.68,14.25,4.24,24.88,2.48,28.47-3,47.06-.87,102.93-60.78,60-83.79.5-12.37-3.9-35.73-3.9-35.73a28.25,28.25,0,0,0,4.15-3.59c26.78,38.11,72.25,63.23,123.91,63.23a152.23,152.23,0,0,0,104.64-41.06L1545.9,940A149.17,149.17,0,0,1,1580.6,970.26Z" class="colorfff9f9 svgShape"/><path d="M1343.66 1301l-.49-.55c-104.51-117.35-261.28-164.13-345.42-181.57l-.85-.18 81-90.39c.12-2.87 2-37.44 26.64-66.93a108.15 108.15 0 0112.32-12.4l.48-.41.29.56c35.13 66.06 93.37 83.26 94 83.43 13.26 3.94 24.21 2.86 27.92-2.75l.15-.22h.26c33-.61 68.31-29.91 74-53.47 2.12-8.79 1.37-21-14.24-29.38l-.27-.15v-.31c.49-12.17-3.85-35.38-3.89-35.62l-.06-.31.26-.19a27.47 27.47 0 004.08-3.53l.42-.43.35.49c27.73 39.46 73.89 63 123.5 63 39.22 0 76.26-14.53 104.29-40.92l.29-.27 17.53 11.06A149.23 149.23 0 011581 969.94l.71.84-1.1 0-3.16 0c-69.41 0-92.23 47.18-107.41 78.56-1 2-1.9 3.93-2.81 5.78l-1.19 2.4c-2.8 5.65-8 16.07-14.93 30.06-21.95 44.11-65.06 130.41-107.1 212.81zM998.8 1118.07c84.34 17.57 240.28 64.38 344.63 181.16 41.94-82.19 84.87-168.15 106.77-212.14 7-14 12.12-24.42 14.92-30.06l1.19-2.4q1.37-2.78 2.81-5.78c15.29-31.6 38.28-79.12 108.3-79.12h2.08a148.37 148.37 0 00-33.87-29.34l-16.88-10.64c-28.19 26.4-65.36 40.93-104.7 40.93-49.72 0-96-23.52-124-63a28.78 28.78 0 01-3.54 3c.51 2.81 4.24 23.65 3.86 35.22 15.9 8.66 16.65 21.26 14.46 30.34-2.93 12.15-13.26 25.76-27.64 36.41-14.84 11-32 17.48-47 17.83-4.09 5.8-15.37 7-28.88 2.94-.59-.16-58.9-17.37-94.27-83.37A106.37 106.37 0 001105.3 962c-25.39 30.38-26.41 66.14-26.41 66.5v.19l-.12.13zM1290.28 1746.29c-2.72-21.76 8.59-79.34 8.7-79.92l1 .19c-.11.58-11.38 58-8.69 79.61zM1248.76 1763.38c-1.83-26.71 12-96.31 12.15-97l1 .2c-.14.69-14 70.17-12.13 96.74zM1213.32 1747.64c-2.69-21.14-3.81-78 4.4-92.4l.87.49c-8.11 14.25-6.95 70.74-4.28 91.78z" fill="none"/><polygon points="1561.71 724.45 1560.8 724.03 1560.86 723.92 1561.76 724.36 1561.71 724.45" fill="none"/><path fill="#fb600a" d="M1649.53,735.44c-4.45,35.2-25.5,46.45-40.68,37s-13.16-27.2-37.76-16.7q-.55-3.69-1.4-7.44c14.52-20,16.62-15.3,32.06-12.35,11.81,2.26,23.62,1.09,29.59-14.16,2-5.19,3.4-12,3.85-20.86A139,139,0,0,1,1646,724.58C1647.16,728,1648.36,731.6,1649.53,735.44Z" class="colorff4715 svgShape"/><path d="M1619.7,776.14a20.91,20.91,0,0,1-11.12-3.29c-5-3.15-8.22-7.2-11-10.78-5.84-7.43-10.06-12.81-26.27-5.89l-.59.26-.1-.64c-.36-2.4-.83-4.89-1.39-7.41l0-.22.13-.18c12.51-17.25,16-16.41,26.38-13.92,1.8.43,3.85.92,6.18,1.37,15.19,2.91,24.14-1.37,29-13.85,2.11-5.36,3.39-12.33,3.82-20.7l.08-1.66.85,1.43a140.84,140.84,0,0,1,10.8,23.75c1.2,3.37,2.41,7,3.59,10.89l0,.1,0,.1c-2.43,19.22-10.17,33.27-21.24,38.53A21.14,21.14,0,0,1,1619.7,776.14ZM1583.79,752c7.11,0,10.55,4.37,14.55,9.46,2.76,3.52,5.89,7.5,10.77,10.55a19.46,19.46,0,0,0,19.24,1.12c10.74-5.1,18.27-18.82,20.67-37.64-1.16-3.8-2.35-7.41-3.54-10.73a144.42,144.42,0,0,0-9.89-22.15c-.51,7.75-1.78,14.25-3.79,19.35-6.6,16.88-20.37,16.34-30.15,14.47-2.36-.45-4.41-.94-6.23-1.38-10.12-2.43-13.19-3.16-25.2,13.35.5,2.25.93,4.47,1.26,6.62C1576.6,752.88,1580.58,752,1583.79,752Z" fill="none"/><path fill="#fb600a" d="M1635.19,700.91c-.45,8.87-1.81,15.67-3.85,20.86-6,15.25-17.78,16.42-29.59,14.16-15.44-2.95-17.54-7.67-32.06,12.35-.37-1.65-.73-3.29-1.19-4.95-.74-2.75-1.64-5.51-2.64-8.28,10.32-6.08,14.43-13.77,19.44-22.14a85.86,85.86,0,0,1,8.39-12.06c11.1-13,32.63-11.78,33.93-10.49A66.05,66.05,0,0,1,1635.19,700.91Z" class="colorff4715 svgShape"/><path d="M1569.44,749.47l-.31-1.4c-.34-1.5-.69-3.06-1.11-4.61-.69-2.54-1.55-5.24-2.63-8.24l-.14-.39.35-.21c9.55-5.62,13.8-12.78,18.31-20.35l1-1.62a85.18,85.18,0,0,1,8.44-12.12c8.22-9.62,21.52-11.17,26.86-11.39,3.3-.14,7,.12,7.8.87a66.8,66.8,0,0,1,7.65,10.65l.07.13v.15c-.43,8.48-1.74,15.55-3.89,21-6.6,16.88-20.37,16.34-30.15,14.47-2.36-.45-4.41-.94-6.23-1.38-10.15-2.44-13.21-3.17-25.33,13.53Zm-3-14.2c1,2.88,1.85,5.47,2.51,7.93.36,1.3.67,2.61,1,3.89,12-16.32,15.53-15.47,25.73-13,1.8.43,3.85.92,6.18,1.37,15.19,2.91,24.14-1.37,29-13.85,2.1-5.33,3.38-12.25,3.81-20.55a65.25,65.25,0,0,0-7.43-10.34c-1.15-.92-22.11-2.47-33.18,10.48a84,84,0,0,0-8.34,12l-1,1.61C1580.25,722.37,1576,729.55,1566.47,735.27Z" fill="none"/><path fill="#fb600a" d="M1627.62,690.36c-1.3-1.29-22.83-2.5-33.93,10.49a85.86,85.86,0,0,0-8.39,12.06c-5,8.37-9.12,16.06-19.44,22.14a118.11,118.11,0,0,0-4.55-10.91c2.35-4.7,5.45-9.67,8.35-14.24C1584.75,686.11,1607,667.37,1627.62,690.36Z" class="colorff4715 svgShape"/><path d="M1565.59,735.79l-.2-.57c-1.32-3.66-2.84-7.31-4.53-10.86l-.11-.22.11-.22c2.37-4.73,5.44-9.65,8.38-14.29,11.71-18.46,24.66-29.16,36.48-30.14,7.91-.66,15.41,2.88,22.27,10.54l-.72.69c-1.17-.94-22.14-2.49-33.2,10.46a84,84,0,0,0-8.34,12l-1,1.61c-4.58,7.69-8.89,15-18.66,20.7Zm-3.73-11.64c1.58,3.32,3,6.74,4.26,10.16,9.18-5.57,13.36-12.6,17.79-20l1-1.62a85.18,85.18,0,0,1,8.44-12.12c8.22-9.62,21.52-11.17,26.86-11.39a33.56,33.56,0,0,1,5.83.22c-6.29-6.48-13.08-9.47-20.2-8.88-11.5,1-24.18,11.5-35.72,29.69C1567.2,714.71,1564.19,719.52,1561.86,724.15Z" fill="none"/><path fill="#fb600a" d="M1572.44,775a116,116,0,0,0-1.35-19.24c24.6-10.5,22.58,7.23,37.76,16.7s36.23-1.78,40.68-37c1.45,4.73,2.88,9.71,4.27,15.17C1672,822.52,1579.51,778.42,1572.44,775Z" class="colorff4715 svgShape"/><path d="M1630.05,792c-23.09,0-53.46-14.44-57.83-16.58l-.29-.14V775a115.54,115.54,0,0,0-1.35-19.15l-.06-.39.36-.15c16.92-7.22,21.56-1.3,27.45,6.19,2.76,3.52,5.89,7.5,10.77,10.55a19.46,19.46,0,0,0,19.24,1.12c10.76-5.11,18.3-18.87,20.68-37.74l.29-2.31.69,2.22c1.62,5.3,3,10.27,4.27,15.2,4.44,17.5,2.66,29.64-5.28,36.09C1644.19,790.48,1637.5,792,1630.05,792Zm-57.11-17.34c6.94,3.37,56.47,26.54,75.43,11.15,7.61-6.18,9.27-18,4.94-35.07-1.07-4.23-2.26-8.49-3.6-13-2.74,18.06-10.3,31.21-20.93,36.27a20.48,20.48,0,0,1-20.2-1.18c-5-3.15-8.22-7.2-11-10.78-5.8-7.38-10-12.73-25.91-6A115.8,115.8,0,0,1,1572.94,774.65Z" fill="none"/><path d="M1572.21,775.41l-.41-.21.42-.9.44.21Z" fill="none"/><path fill="#e5cbbb" d="M662.12,565.67v0c-4.17,3.12-8.26,6-12.17,8.64,0,0-34.68-23.87-39.4-79.44a.33.33,0,0,1,.47-.32c5.46,2.64,10.7,5.23,15.77,7.78C636.52,525.65,648.84,547.64,662.12,565.67Z" class="colorbbd8e5 svgShape"/><path d="M649.94,574.94l-.28-.2c-.34-.24-34.92-24.64-39.6-79.81a.83.83,0,0,1,.35-.75.85.85,0,0,1,.83-.06c5.2,2.52,10.36,5.06,15.77,7.78l.17.09.07.17a308.39,308.39,0,0,0,35.27,63.21l.11.16-.06.44-.15.11c-4,3-8.07,5.89-12.19,8.67Zm-38.86-79.79C615.6,547,646.7,571.32,650,573.72c3.88-2.62,7.73-5.35,11.47-8.14a309.51,309.51,0,0,1-35-62.87C621.15,500.08,616.13,497.6,611.08,495.15Z" fill="none"/><path fill="#e5cbbb" d="M731.42,746.08c-4.38-63.15-9.64-114.47-15.77-135.93a32,32,0,0,0,9,.87C739.64,645.53,738.64,698.21,731.42,746.08Z" class="colorbbd8e5 svgShape"/><path d="M731.23 750.65l-.31-4.53c-4.91-70.71-10.21-116.41-15.75-135.83l-.24-.82.83.19a31.68 31.68 0 008.83.86l.35 0 .14.32c17.6 40.45 11.84 102.16 6.83 135.34zM716.35 610.82c5.37 19.48 10.49 63.4 15.24 130.6 4.78-33.83 9.27-91.45-7.29-129.88A32.67 32.67 0 01716.35 610.82zM1239.91 1030.07c3.43-5.2.38-13.79-12.24-23.81 11.46 3.81 29-.31 43.4-10.26 14.56-10 22.93-24.38 22.29-36 4.17-3 6.36-9.48 6.53-13.68C1342.84 969.29 1287 1029.2 1239.91 1030.07z" fill="none"/><path d="M1239,1030.59l.52-.79c3.66-5.56-.87-14.21-12.13-23.15l-2.22-1.76,2.69.9c11.38,3.79,28.65-.32,43-10.2,14.07-9.7,22.73-23.67,22.08-35.6l0-.27.22-.16c3.88-2.81,6.15-8.95,6.33-13.3l0-.8.7.38c16.17,8.66,16.94,21.36,14.74,30.49-2.93,12.15-13.26,25.76-27.64,36.41-14.92,11-32.16,17.55-47.3,17.83Zm-9.15-23.21c9.87,8.37,13.89,16.49,11,22.17,32.79-1.12,67.47-30.11,73.1-53.45,2.09-8.66,1.39-20.66-13.55-29-.41,4.43-2.71,10.22-6.47,13.1.53,12.21-8.28,26.39-22.52,36.21C1257.73,1005.82,1241.42,1010.06,1229.82,1007.38Z" fill="none"/><path fill="#fffbf9" d="M1218.72,1000l.14.15c-1.75-1.11-3.47-2.21-5.45-3.34-5.92-3.38-10.48-8.49-15.85-12.67-10.08-7.83-17.91-28.65-18.91-41a150.15,150.15,0,0,1,53.93,14.52C1218.23,971,1211.28,989.4,1218.72,1000Z" class="colorfff9f9 svgShape"/><path d="M1221.05 1002.08l-2.84-1.79c-1.58-1-3.22-2-5-3.09a63.09 63.09 0 01-10.35-8c-1.79-1.59-3.64-3.23-5.56-4.72-10.41-8.09-18.14-29.52-19.1-41.32l-.05-.58.59 0a151.55 151.55 0 0154.11 14.57l.66.32-.54.5c-14.86 13.79-20.79 31.68-13.81 41.62l.14.15zm-41.85-58.4c1.14 11.72 8.64 32.23 18.66 40 2 1.51 3.81 3.16 5.61 4.76a62.07 62.07 0 0010.19 7.87c1.27.72 2.45 1.44 3.58 2.15-5.48-10.45.44-27.39 14.46-40.69A150.22 150.22 0 001179.2 943.68zM730.39 610.12c-.09-.21-.17-.42-.25-.64a6.62 6.62 0 00-.24-.62l.91-.41c.1.22.19.46.27.69s.15.39.23.58z" fill="none"/><path fill="#ff5b00" d="M741.46,938.41C730.67,908.45,727.89,872,730,834c.78-13.74,2.39-28.32,4.24-43.34C737.1,838.26,739.49,889.58,741.46,938.41Z" class="colorred svgShape"/><path d="M742.09,941.64l-1.1-3.06c-10-27.66-13.82-62.86-11.45-104.61.83-14.59,2.61-30.11,4.24-43.37l1,0c2.53,42.81,5,92.52,7.18,147.76Zm-8-145.41c-1.42,11.93-2.85,25.21-3.56,37.8-2.27,40,1.19,74,10.28,101C738.73,883.54,736.47,836.88,734.1,796.23Z" fill="none"/><path fill="#e5cbbb" d="M812.91,1009.06a187.53,187.53,0,0,1-25-11.95c-22.56-12.79-37.35-33.43-46.45-58.7-2-48.83-4.36-100.15-7.18-147.75,7.51-61,19.09-129.56-3.43-180.74C742,606.52,751.36,595.3,757.6,574,789.37,709.9,805.16,883,812.91,1009.06Z" class="colorbbd8e5 svgShape"/><path d="M813.45 1009.81l-.72-.28a188.3 188.3 0 01-25.07-12c-21.21-12-36.91-31.87-46.67-59l0-.15c-2.23-55.23-4.65-104.94-7.18-147.74.67-5.52 1.37-11 2.08-16.54 7.37-57.78 15-117.53-5.47-164l-.23-.51.54-.17c11.66-3.56 20.54-15.53 26.42-35.58l.53-1.82.43 1.85c32 137.05 47.77 312.28 55.33 435.14zM742 938.31c9.68 26.84 25.23 46.47 46.2 58.37a186 186 0 0024.21 11.63c-7.53-122.23-23.15-295.95-54.82-432.37-5.89 19-14.63 30.55-26 34.29 20.29 46.68 12.68 106.34 5.32 164q-1.07 8.29-2.08 16.44C737.31 833.42 739.73 883.11 742 938.31zM758 417.74l-.14-1c8.18-1.11 12.93-3.29 14.53-6.66 2.26-4.77-2-11.65-6.42-18.94-4.09-6.7-8.33-13.62-8.54-20.13l1 0c.2 6.25 4.37 13.05 8.4 19.64 4.6 7.52 8.95 14.63 6.46 19.89C771.54 414.22 766.54 416.58 758 417.74z" fill="none"/><path fill="#ff5b00" d="M754.72,434.36c-14,28.75-26.08,18.38-28.27-17.19a71.32,71.32,0,0,0,20.93,14.38A68.66,68.66,0,0,0,754.72,434.36Z" class="colorred svgShape"/><path d="M739.51,451.48a5.83,5.83,0,0,1-1.18-.12c-6.61-1.31-11.13-13.76-12.38-34.16l-.08-1.31.93.93a70.58,70.58,0,0,0,20.78,14.27,66.47,66.47,0,0,0,7.29,2.79l.55.18-.25.52C749.76,445.68,744.37,451.48,739.51,451.48Zm-12.48-33c1.32,18.86,5.59,30.77,11.5,31.94,4.53.9,10-4.68,15.48-15.72a71.08,71.08,0,0,1-27-16.22Z" fill="none"/><path d="M761.15,436.59c-2.19-.47-4.4-1.06-6.58-1.75l-.54-.17.23-.51c.06-.14.13-.28.2-.43l.1-.19.9.43,0,.09c2,.61,4,1.13,5.94,1.55Z" fill="none"/><polygon points="1421.71 770.64 1409.49 759.21 1433.91 735.29 1434.61 736 1410.94 759.19 1422.39 769.91 1421.71 770.64" fill="none"/><path d="M1417.77 736.43a4.84 4.84 0 01-3-1c-3.14-2.45-3.53-9 1.34-15.25l.79.61c-4.35 5.61-4.29 11.69-1.51 13.85 2.12 1.65 6.21 1.08 11.31-5.47l.79.62C1423.7 734.67 1420.32 736.43 1417.77 736.43zM1455.22 759.45a5.53 5.53 0 01-3.46-1.15c-3.68-2.86-4.12-10.5 1.58-17.85l.79.61c-5.16 6.65-5.07 13.88-1.76 16.45 2.54 2 7.41 1.31 13.46-6.46l.79.61C1462.16 757.39 1458.21 759.45 1455.22 759.45zM1426.72 792.48c-7.35 0-21.88-1.54-23.91-13.53l1-.17c2.56 15.13 26.79 12.55 27 12.52l.11 1A40.73 40.73 0 011426.72 792.48zM1514.56 826.19c-1.29 6.59-17.68 4.9-14-2.55a32.73 32.73 0 016.93-8.86C1519.06 815.56 1514.56 826.19 1514.56 826.19z" fill="none"/><path d="M1507.4,830.8c-2.7,0-5.54-.83-7-2.63a4.14,4.14,0,0,1-.27-4.75,32.92,32.92,0,0,1,7-9l.16-.15h.21c3.57.24,6,1.44,7.33,3.54,2.1,3.42.36,8,.14,8.52-.42,2-2.11,3.48-4.77,4.13A12,12,0,0,1,1507.4,830.8Zm.32-15.5a32,32,0,0,0-6.67,8.56,3.22,3.22,0,0,0,.16,3.69c1.51,1.89,5.47,2.77,8.83,2,1.32-.33,3.59-1.2,4-3.41l0-.09s1.87-4.54,0-7.66C1513,816.57,1510.83,815.54,1507.72,815.3Z" fill="none"/><path d="M1507.74,815.28h-.2v-.51l-.33-.35c5.75-5.37,14.42-10.31,19.84-8.48,2.2.74,3.61,2.58,4.08,5.33l-1,.17c-.41-2.4-1.56-3.92-3.41-4.55-4.25-1.43-12.17,2-18.84,8.26Z" fill="none"/><polygon points="1505.32 667.26 1505.58 666.29 1505.48 666.79 1505.32 667.26" fill="none"/><polygon points="1454.68 687.65 1453.72 687.39 1454.11 685.97 1455.07 686.23 1454.68 687.65" fill="none"/><path d="M1541.2 695l.47-.53-.12.17zm.32-.38l.32-.38zM1475.8 698.59l-1-.3c.08-.26.18-.52.27-.76l.94.35C1476 698.11 1475.88 698.35 1475.8 698.59zM1495.07 714l-.82-.57.17-.23.77.64z" fill="none"/><polygon points="1568.12 743.65 1568.5 743.33 1568.92 743.06 1568.87 743.11 1568.93 743.07 1568.87 743.11 1568.54 743.39 1568.12 743.65" fill="none"/><polygon points="1571.06 791.8 1570.56 791.79 1570.73 791.78 1571.06 791.8 1570.73 791.78 1571.56 791.75 1571.06 791.8" fill="none"/><path d="M1555 837.84l-.49-.11zm-.28 0l-.7-.16zM1571.24 756.2v0l-.15-.46zm0 0l-.22-.42-.16-.48z" fill="none"/><polygon points="1650.04 735.42 1649.03 735.38 1649.05 735.3 1650.04 735.42" fill="none"/><polygon points="1634.69 700.89 1634.69 700.82 1635.69 700.87 1634.69 700.89" fill="none"/><path d="M1565.66,735.79l-.5-.87.19-.13a1.67,1.67,0,0,1,.26-.17l.51.86-.18.12Z" fill="none"/><polygon points="1627.45 690.83 1627.29 690.73 1627.35 690.67 1627.3 690.72 1627.62 690.36 1627.83 689.9 1627.95 689.98 1627.95 689.98 1627.95 689.98 1628.03 690.04 1627.66 690.38 1627.45 690.83" fill="none"/><path d="M736.56,377.6c0,5-2,9-4.58,9s-4.58-4-4.58-9,2.05-9,4.58-9S736.56,372.63,736.56,377.6Z" fill="none"/><path d="M732 387.08c-2.85 0-5.08-4.16-5.08-9.48s2.23-9.49 5.08-9.49 5.08 4.17 5.08 9.49S734.83 387.08 732 387.08zm0-18c-2.21 0-4.08 3.89-4.08 8.49s1.87 8.48 4.08 8.48 4.08-3.88 4.08-8.48S734.19 369.11 732 369.11zM1483.52 743.09c-1.81 1.75-6.89-.47-11.35-5s-6.61-9.58-4.8-11.34 6.9.47 11.36 5S1485.34 741.33 1483.52 743.09z" fill="none"/><path d="M1481.8,744.17c-2.57,0-6.44-2.12-10-5.7s-5.61-7.36-5.58-9.94a2.86,2.86,0,0,1,.79-2.11c2-2,7.35.22,12.06,5,3.42,3.46,5.61,7.36,5.59,9.94a2.63,2.63,0,0,1-2.87,2.83Zm-12.67-17.49a2,2,0,0,0-1.42.46,1.91,1.91,0,0,0-.48,1.4c0,2.29,2.1,6,5.29,9.23,4.62,4.66,9.24,6.33,10.65,5h0a1.92,1.92,0,0,0,.5-1.4c0-2.29-2.11-6-5.3-9.23C1474.8,728.49,1471.22,726.68,1469.13,726.68Z" fill="none"/><ellipse cx="779.66" cy="379.99" rx="4.58" ry="8.99" fill="none"/><path d="M779.66 389.48c-2.85 0-5.08-4.17-5.08-9.49s2.23-9.49 5.08-9.49 5.08 4.17 5.08 9.49S782.51 389.48 779.66 389.48zm0-18c-2.21 0-4.08 3.89-4.08 8.49s1.87 8.49 4.08 8.49 4.08-3.89 4.08-8.49S781.87 371.5 779.66 371.5zM748 355.76c-.37 2.48-5.77 3.76-12.08 2.86s-11.13-3.65-10.76-6.13 5.77-3.77 12.07-2.86S748.34 353.28 748 355.76z" fill="none"/><path d="M739.82 359.41a29.64 29.64 0 01-4-.29c-4.86-.7-9-2.49-10.55-4.57a2.85 2.85 0 01-.64-2.13c.41-2.81 6-4.25 12.64-3.28 4.85.69 9 2.48 10.55 4.56a2.81 2.81 0 01.64 2.13h0C748.14 358 744.59 359.41 739.82 359.41zm-6.53-9.57c-4.42 0-7.44 1.23-7.66 2.72a1.91 1.91 0 00.45 1.39c1.38 1.85 5.36 3.53 9.89 4.18 6.53.93 11.22-.51 11.51-2.44a1.88 1.88 0 00-.45-1.39c-1.39-1.85-5.36-3.53-9.89-4.17A26.72 26.72 0 00733.29 349.84zM793.3 359.27c0 1.88-3.94 3.33-8.73 3.25s-8.64-1.7-8.6-3.58 3.94-3.34 8.73-3.25S793.34 357.38 793.3 359.27z" fill="none"/><path d="M785 363h-.39c-3.71-.07-7-1-8.38-2.48a2.09 2.09 0 01.06-3.19c1.43-1.38 4.77-2.22 8.47-2.16s7 1 8.37 2.47a2.26 2.26 0 01.72 1.62c0 1.13-1 2.13-2.91 2.82A17.57 17.57 0 01785 363zm-.66-6.83c-3.26 0-6.18.74-7.36 1.88a1.11 1.11 0 000 1.78c1.19 1.24 4.27 2.11 7.68 2.17a17.12 17.12 0 006-.86c1.4-.52 2.25-1.23 2.26-1.9h0a1.32 1.32 0 00-.44-.91c-1.18-1.23-4.26-2.1-7.67-2.16zM640.19 348.75l-.31-.95c.35-.11 35.4-11.93 30.06-38.87l1-.19C676.43 336.53 640.55 348.63 640.19 348.75z" fill="none"/><polygon points="589.62 337.97 589.62 337.89 589.61 337.97 589.62 337.89 589.68 336.97 589.68 337.47 589.62 337.97" fill="none"/><path d="M656,299.1l-1-.3c10.72-33.78,33.34-31,55.21-28.34,8.86,1.08,18,2.2,26.22.85,27.3-4.48,32.61-16.52,38.11-35.82l1,.27c-5.62,19.68-11,32-38.91,36.54-8.36,1.37-17.58.24-26.51-.85C687.67,268.7,666.46,266.11,656,299.1Z" fill="none"/><polygon points="775.56 235.73 774.58 235.51 774.59 235.46 775.56 235.73" fill="none"/><polygon points="828.09 272.18 827.6 272.09 827.12 271.94 827.13 271.9 828.09 272.18" fill="none"/><path d="M793.17,313.49c-10.78,0-20.81-7.39-27.75-14.18-8.64-8.46-22-12.71-36.61-11.65-17.15,1.25-32.95,9.27-42.26,21.48l-.79-.61c9.47-12.43,25.54-20.6,43-21.86,14.91-1.08,28.54,3.26,37.38,11.92,8,7.81,20.11,16.44,32.57,13.2,12-3.12,21.55-16.53,28.43-39.84l1,.28c-7,23.67-16.78,37.31-29.13,40.52A22.62,22.62,0,0,1,793.17,313.49Z" fill="none"/><path fill="#ff5b00" d="M913.25,324.63c-7-12.48-19-15.48-25.7-13.07-2.83,1-4.89,3.89-6,7.36a20,20,0,0,0,1,14.41c6.09,13.6,13.32,20.32,34.21,30.2C981,315.75,927.22,294.58,913.25,324.63Z" class="colorred svgShape"/><path d="M916.8 364.11l-.27-.13c-20.49-9.68-28.21-16.51-34.46-30.44a20.53 20.53 0 01-1-14.78c1.3-3.95 3.55-6.68 6.33-7.67 6.4-2.3 18.5.12 25.83 12.47 5.36-10.62 15-13.81 21.8-13.29 6.32.48 11 4 12.56 9.31S949.24 340 917 363.93zM892.28 311.3a13.54 13.54 0 00-4.56.73c-2.49.89-4.52 3.39-5.72 7a19.54 19.54 0 001 14.06c6.18 13.77 13.44 20.22 33.71 29.82 31.45-23.46 31.41-37.94 29.92-43.09-1.42-4.93-5.79-8.14-11.68-8.6-6.64-.52-16.18 2.74-21.23 13.58l-.41.89-.48-.86C907.29 315 898.71 311.3 892.28 311.3zM1241.27 962.07c-2.86-1.61-5.77-3-8.69-4.42a150.15 150.15 0 00-53.93-14.52c-18.9-1.5-38.92.26-60.05 4.92q-7.36 1.63-14.92 3.74c-29.49 8.25-61.07 21.89-94.94 40.66s-68.35 30.77-101.15 36.15a237.62 237.62 0 01-30.74 3.05c-22.69.77-44-2-63.09-8.37-2.47-.83-4.89-1.73-7.29-2.68-16.47-6.54-31.11-15.82-43.08-28.15a119.83 119.83 0 01-21-30.43c-29-58.43-24.43-145.6-15.33-190.95 1.62-8.08 3.08-16.47 4.36-25 7.22-47.87 8.22-100.55-6.8-135.06a25.69 25.69 0 006.23-1.1c22.52 51.18 10.94 119.71 3.43 180.74-1.85 15-3.46 29.6-4.24 43.34-2.15 38 .63 74.45 11.42 104.41 9.1 25.27 23.89 45.91 46.45 58.7a187.53 187.53 0 0025 11.95c25.18 9.73 55.05 14 94.63 6.84 33.11-6 73-20 122.71-45.71 27.06-14 51.06-23.53 72.47-29.81 29.65-8.68 54.29-11 75-9.76 28.86 1.78 50 10.53 66.35 18.69 4.1 2 7.91 4.05 11.45 5.89C1255.47 955.2 1262.77 973.9 1241.27 962.07z" fill="none"/><path d="M869.44,1032.28c-20.19,0-38.94-2.86-55.84-8.53-2.32-.77-4.71-1.65-7.32-2.68-17.07-6.79-31.63-16.3-43.25-28.27a120.57,120.57,0,0,1-21.09-30.56c-30.27-61-23.29-151.8-15.37-191.27,1.6-8,3.06-16.38,4.35-25,5-33.08,10.75-94.57-6.76-134.79l-.29-.66.72,0a24.88,24.88,0,0,0,6.11-1.08l.43-.13.18.41c20.57,46.75,12.93,106.64,5.54,164.56q-1.07,8.29-2.08,16.44c-1.63,13.25-3.41,28.75-4.23,43.31-2.36,41.62,1.47,76.68,11.39,104.21,9.67,26.87,25.23,46.53,46.22,58.44a185.06,185.06,0,0,0,24.94,11.91c28.77,11.12,58.75,13.29,94.36,6.82C942.89,1009,983,994,1030,969.75c25.44-13.15,49.85-23.19,72.56-29.85,27-7.89,52.25-11.18,75.12-9.78,29.32,1.81,51,11,66.54,18.74,3.29,1.64,6.35,3.24,9.32,4.78l2.31,1.2.06.18c.12.31,2.91,7.56-.33,10.4-2.37,2.08-7.28,1.1-14.57-2.91h0c-2.79-1.58-5.7-3-8.51-4.34l-.15-.07a150.43,150.43,0,0,0-53.75-14.47c-18.37-1.46-38.52.19-59.9,4.91-5,1.1-10,2.36-14.9,3.73C1074.94,960.35,1043,974,1009,992.89c-32.84,18.2-67.87,30.72-101.31,36.2a237.38,237.38,0,0,1-30.81,3.06C874.37,1032.24,871.89,1032.28,869.44,1032.28ZM725.36,611.47c17.26,40.46,11.53,101.68,6.55,134.69-1.29,8.59-2.76,17-4.36,25-7.9,39.35-14.86,129.84,15.29,190.63a119.39,119.39,0,0,0,20.91,30.3c11.52,11.88,26,21.31,42.9,28,2.59,1,5,1.89,7.27,2.67,18.84,6.31,40,9.12,62.91,8.34a238.88,238.88,0,0,0,30.68-3c33.33-5.47,68.25-17.95,101-36.1,34.12-18.91,66.1-32.6,95-40.7,4.93-1.38,10-2.64,15-3.75,21.48-4.73,41.73-6.39,60.2-4.93a151.55,151.55,0,0,1,54.11,14.57l.15.07c2.82,1.37,5.74,2.77,8.56,4.37h0c8.58,4.71,12,4.25,13.43,3,2.47-2.17.52-8,.13-9.11l-2-1c-2.95-1.54-6-3.14-9.29-4.77-15.5-7.74-37-16.84-66.16-18.64-22.76-1.4-47.92,1.88-74.78,9.74-22.65,6.64-47,16.66-72.38,29.78-47.12,24.33-87.31,39.3-122.85,45.75-35.8,6.51-66,4.32-94.9-6.86a188.3,188.3,0,0,1-25.07-12c-21.21-12-36.91-31.87-46.67-59-10-27.66-13.82-62.85-11.45-104.61.83-14.59,2.61-30.11,4.24-43.37q1-8.15,2.08-16.45c7.35-57.61,14.95-117.18-5.29-163.62A26.38,26.38,0,0,1,725.36,611.47Z" fill="none"/><path fill="#ff5b00" d="M748.5,1157.51l-49.34,75.33a3.37,3.37,0,0,1-5.5.13l-48.82-66.2c7-36.93,13-79.91,17.93-125.55,0,0,32.24-387.43,27.66-444.77,8.61,7,17.15,11.82,25.22,13.7,6.13,21.46,11.39,72.78,15.77,135.93-1.28,8.52-2.74,16.91-4.36,25C718,816.42,713.41,903.59,742.39,962c.94,24.4,1.77,47.86,2.49,69.53C747.31,1104.68,748.5,1157.51,748.5,1157.51Z" class="colorred svgShape"/><path d="M696.36,1234.83a3.86,3.86,0,0,1-3.1-1.56l-49-66.38,0-.21c6.67-35.06,12.7-77.29,17.92-125.51.32-3.86,32.18-388,27.66-444.68l-.09-1.17.9.74c8.82,7.22,17.24,11.79,25,13.6l.29.07.08.28c5.57,19.49,10.88,65.26,15.79,136v.11c-1.29,8.59-2.76,17-4.36,25-7.9,39.35-14.86,129.84,15.29,190.63l0,.2c.86,22.52,1.7,45.91,2.49,69.53,2.4,72.3,3.61,125.44,3.62,126v.15l-.08.14-49.34,75.33a3.87,3.87,0,0,1-3.12,1.71Zm-51-68.18,48.69,66a2.88,2.88,0,0,0,2.38,1.16,2.79,2.79,0,0,0,2.3-1.27L748,1157.37c-.07-3.24-1.27-55.45-3.61-125.8-.79-23.59-1.62-46.94-2.49-69.42-30.21-61-23.24-151.73-15.32-191.18,1.6-8,3.06-16.35,4.35-24.91-4.88-70.33-10.16-115.91-15.67-135.49-7.59-1.83-15.73-6.2-24.24-13,4,60.57-27.42,439.84-27.74,443.69C658.05,1089.42,652,1131.6,645.37,1166.65Z" fill="none"/><path fill="#e5cbbb" d="M687.61,542.8c-.74.82-1.56,1.7-2.42,2.62Z" class="colorbbd8e5 svgShape"/><path d="M685.55,545.76l-.73-.68,2.42-2.62.74.68C687.24,544,686.42,544.84,685.55,545.76Z" fill="none"/><path fill="#e5cbbb" d="M675.93,555.13c11.08,13.62,15,32.32,15,32.32a140.64,140.64,0,0,1-22.47-25.06C670.67,560.36,673.28,557.82,675.93,555.13Z" class="colorbbd8e5 svgShape"/><path d="M691.66,588.78l-1.11-.95A141.86,141.86,0,0,1,668,562.68l-.26-.36.33-.3c2.12-1.9,4.64-4.33,7.5-7.24l.39-.4.36.44c11,13.55,15,32.34,15,32.53Zm-22.58-26.32a141.82,141.82,0,0,0,21,23.6c-1.17-4.62-5.32-19.08-14.15-30.18C673.32,558.48,671,560.69,669.08,562.46Z" fill="none"/><path fill="#e5cbbb" d="M690.47,539.67c-.3.34-.64.71-1,1.11Z" class="colorbbd8e5 svgShape"/><path d="M689.83,541.12l-.74-.67,1-1.12.74.67C690.54,540.34,690.2,540.72,689.83,541.12Z" fill="none"/><path fill="#e5cbbb" d="M754.59,558.05c-.1.42-.19.83-.28,1.24l-.06.33-.22,1.94a2.5,2.5,0,0,1-.06.38c-5.58,25.17-13.9,37.12-25,39.81-4.55,1.11-10,.83-16.11-1.16h0S711,591.75,710,587.75l2.16-36.66-20.31-12.91,9.3,5.77.35.22C721,556.52,730.36,564,730.36,564v-52.9a116.25,116.25,0,0,0-8.75-20.15l13.91,3.54C742.06,514.11,749,535.65,754.59,558.05Z" class="colorbbd8e5 svgShape"/><path d="M723.43,602.89a34.77,34.77,0,0,1-10.69-1.82l-3-1h2.56c-.45-2.06-1.95-8.88-2.79-12.22l0-.07,2.15-36.45L691.59,538.6l.53-.84,9.65,6c4.07,2.57,7.7,4.94,10.9,7.07h0c9.49,6.32,15.18,10.57,17.18,12.1v-51.8a117.11,117.11,0,0,0-8.69-20l-.57-1L735.91,494l.08.26c6.57,19.74,13.42,41.12,19.08,63.65l0,.12,0,.12c-.09.39-.18.78-.26,1.17l-.07.37-.22,1.91a2.26,2.26,0,0,1-.07.43C749,586.59,741,599.36,729.13,602.24A24.4,24.4,0,0,1,723.43,602.89Zm-10.07-2.68c5.64,1.8,11,2.16,15.53,1.06,11.27-2.75,19.32-15.65,24.59-39.44a1.67,1.67,0,0,0,0-.31l.29-2.32.25-1.15c-5.62-22.35-12.42-43.58-18.94-63.19l-12.53-3.19a118.82,118.82,0,0,1,8.24,19.23l0,.15V565l-.81-.65c-.08-.06-5.82-4.6-17.43-12.36l-2.11,35.72C711.41,591.3,713,598.7,713.36,600.21Z" fill="none"/><path fill="#e5cbbb" d="M691.83,538.17l-.22.24-.46.51a.17.17,0,0,1-.06.06l-.62.69c-.3.34-.64.71-1,1.11l-.25.28-1.13,1.23c-.15.16-.3.34-.47.51-.74.82-1.56,1.7-2.42,2.62-1.32,1.42-2.75,3-4.24,4.51l-1.2,1.27-.34.35c-.87.91-1.75,1.82-2.63,2.72l-.8.81,0,0h0c-2.65,2.69-5.26,5.23-7.52,7.26-9.87-13.72-19.85-31.42-29.38-53.8,21.56,11.18,39.06,21.21,52.79,29.57Z" class="colorbbd8e5 svgShape"/><path d="M668.33,563.14l-.33-.46c-10.54-14.65-20.44-32.79-29.43-53.89l-.55-1.28,1.24.64c18.87,9.78,36.61,19.72,52.71,29.52h1l-.73.83a2,2,0,0,1-.24.26l-.33.38-.28.3-.51.56c-.3.34-.64.72-1,1.12l-1.55,1.69c-.1.12-.21.23-.32.34-.72.81-1.54,1.69-2.41,2.61-1.32,1.42-2.75,3-4.24,4.52l-1.14,1.21-.24.24-.15.16-2.64,2.73c-.28.27-.54.54-.8.81q-4.4,4.46-7.6,7.33ZM640,509.68c8.72,20.27,18.28,37.75,28.45,52,2-1.84,4.4-4.15,7.08-6.87l.85-.86,2.63-2.71a1.57,1.57,0,0,1,.18-.19l.15-.16,1.2-1.27c1.49-1.56,2.92-3.09,4.24-4.51.86-.92,1.68-1.8,2.42-2.61l.29-.32,1.55-1.7c.38-.41.72-.77,1-1.11l.52-.57.27-.3.17-.19C675.43,528.78,658.27,519.17,640,509.68Z" fill="none"/><path fill="#e5cbbb" d="M730.36,511.05V564s-9.34-7.43-28.85-19.78l-.35-.22-9.3-5.77a5.58,5.58,0,0,0,.38-.47l.1-.11,0,0a.63.63,0,0,1,.1-.12l0-.05c.57-.67,1.12-1.35,1.67-2q1.72-2.14,3.34-4.35c.59-.79,1.16-1.6,1.73-2.41a95.8,95.8,0,0,0,7.59-12.83c.33-.67.65-1.34.95-2s.6-1.35.88-2c.92-2.2,1.74-4.43,2.43-6.69,0,0,0-.08.07-.24a58.53,58.53,0,0,0,2.6-16.53.76.76,0,0,0,0-.15,54,54,0,0,0-.64-8.74l-.12-.73a65.36,65.36,0,0,1,8.58,12.25A116.25,116.25,0,0,1,730.36,511.05Z" class="colorbbd8e5 svgShape"/><path d="M730.86,565l-.81-.65c-.1-.07-9.55-7.56-28.81-19.75l-.35-.22-9.79-6.07.38-.45c.14-.15.25-.29.35-.42l.2-.24.09-.1c.45-.53.87-1.05,1.29-1.56l.39-.48c1.1-1.36,2.22-2.82,3.33-4.32.58-.79,1.15-1.6,1.72-2.41a95,95,0,0,0,7.55-12.76c.33-.66.64-1.33.94-2s.6-1.35.88-2c.94-2.27,1.75-4.5,2.41-6.64,0,0,0-.09.07-.25a58.37,58.37,0,0,0,2.58-16.38v-.15a53.92,53.92,0,0,0-.64-8.66l-.39-2.39,1.14,1.24a65.67,65.67,0,0,1,8.65,12.35,118.79,118.79,0,0,1,8.79,20.24l0,.15ZM692.6,538.05l9.17,5.7c16.14,10.21,25.42,17.14,28.09,19.18v-51.8a117.11,117.11,0,0,0-8.69-20,67,67,0,0,0-7.39-10.89,53.87,53.87,0,0,1,.51,7.86,2.11,2.11,0,0,1,0,.25A58.9,58.9,0,0,1,711.66,505a2,2,0,0,0-.07.21,71.24,71.24,0,0,1-2.45,6.76c-.28.69-.57,1.37-.89,2.05s-.62,1.36-1,2a97.72,97.72,0,0,1-7.63,12.9c-.58.81-1.15,1.63-1.74,2.42-1.11,1.51-2.24,3-3.35,4.36l-.39.48-1.25,1.51Zm0-.06,0,0Z" fill="none"/><path fill="#fbb890" d="M626.79,502.35c-5.23-2.63-10.63-5.3-16.28-8a61.91,61.91,0,0,0,10.1-8Q623.49,494.42,626.79,502.35Z" class="colorffd4c2 svgShape"/><path d="M627.77 503.4l-1.21-.6c-5.61-2.82-10.93-5.45-16.27-8l-.82-.39.77-.48a61.12 61.12 0 0010-7.91l.56-.53.26.72c1.92 5.39 4 10.77 6.17 16zm-16.24-9.14c4.69 2.27 9.38 4.59 14.28 7-1.89-4.6-3.71-9.32-5.41-14.06A62.16 62.16 0 01611.53 494.26zM638.57 508.79c-4-9.36-7.85-19.44-11.46-30l.94-.32c3.61 10.5 7.46 20.55 11.44 29.88z" fill="none"/><path fill="#ff5b00" d="M647.75,420a125,125,0,0,1-6.27,31.88c-7.81-14-17.36-28.76-26.14-43.6a17.57,17.57,0,0,1,2-5.18C623.21,428.48,647.75,420,647.75,420Z" class="colorred svgShape"/><path d="M641.59,453.07l-.55-1c-4.76-8.54-10-17.17-15.65-26.3-3.47-5.65-7.06-11.49-10.48-17.28l-.1-.17,0-.19a17.68,17.68,0,0,1,2-5.33l.63-1.09.29,1.23c1.7,7.37,5.16,12.54,10.28,15.37,8.7,4.81,19.38,1.21,19.48,1.17l.69-.24,0,.73a126.88,126.88,0,0,1-6.3,32Zm-25.72-44.91c3.39,5.73,6.94,11.51,10.37,17.1,5.39,8.78,10.5,17.1,15.12,25.34a127.29,127.29,0,0,0,5.85-30c-2.58.75-11.7,2.91-19.58-1.45-5.09-2.81-8.6-7.77-10.47-14.76A17.58,17.58,0,0,0,615.87,408.16Z" fill="none"/><path d="M765.74,503.3c-.26,30.67-3.21,53.84-8.14,70.7-6.24,21.3-15.62,32.52-26.75,35.92a25.69,25.69,0,0,1-6.23,1.1,32,32,0,0,1-9-.87c-8.07-1.88-16.61-6.66-25.22-13.7h0c-9.53-7.78-19.15-18.33-28.31-30.77-13.28-18-25.6-40-35.33-63.32q-3.3-7.92-6.18-16a272.79,272.79,0,0,1-12.15-45.73c-2.9-17.21-2.47-32.48,1-42.54,1.59-4.55,3.81-8,6.64-10.11a11.24,11.24,0,0,1,6.3-2.32l7-.31a11.76,11.76,0,1,1,.49,11.19h-4.53a15,15,0,0,0-8,6.53,17.57,17.57,0,0,0-2,5.18c-1.82,8.37.67,17.51,1.58,24.42,1.46,11.08,4.09,25.09,10.66,46,3.58,11.31,7.41,21.25,11,29.69l.45.23c9.53,22.38,19.51,40.08,29.38,53.8a140.64,140.64,0,0,0,22.47,25.06c7.87,6.72,15.33,11,22,13.14,6.1,2,11.56,2.27,16.11,1.16,11.06-2.69,19.38-14.64,25-39.81a2.5,2.5,0,0,0,.06-.38l.22-1.94.06-.33c.09-.41.18-.82.28-1.24,3.16-14.65,5.15-33.26,5.68-56.36.11-5.07.18-10.3.15-15.81a33.12,33.12,0,0,0,5.17-1.05Q765.83,494.49,765.74,503.3Z" fill="none"/><path d="M723.15,611.56a33.9,33.9,0,0,1-7.61-.92c-7.94-1.85-16.49-6.49-25.43-13.8l-.18-.16c-9.38-7.69-18.87-18-28.22-30.71-13.45-18.26-25.68-40.2-35.38-63.43-2.18-5.22-4.26-10.62-6.19-16A272.24,272.24,0,0,1,608,440.7c-2.86-17-2.48-32.62,1.06-42.78,1.65-4.74,3.94-8.22,6.81-10.35a11.8,11.8,0,0,1,6.57-2.42l6.69-.3a12.25,12.25,0,1,1,.52,12.18h-4.16a14.47,14.47,0,0,0-7.69,6.28,17,17,0,0,0-1.93,5c-1.4,6.41-.23,13.26.8,19.3.3,1.75.58,3.39.78,5,1.28,9.65,3.64,23.6,10.64,45.92,3.13,9.86,6.8,19.78,10.92,29.48l.27.14.17.08.08.18c9,21,18.82,39.1,29.32,53.7a140.58,140.58,0,0,0,22.39,25c7.45,6.36,14.8,10.75,21.85,13,5.75,1.87,11.23,2.27,15.84,1.15,11.27-2.75,19.32-15.65,24.59-39.44a1.67,1.67,0,0,0,0-.31l.29-2.32c.1-.47.19-.86.28-1.26,3.25-15.06,5.16-34,5.67-56.26.13-5.92.17-10.94.15-15.8v-.44l.44-.06a32.74,32.74,0,0,0,5.09-1l.62-.18,0,.65c.15,6.1.2,12.32.15,18.49h0c-.25,29.33-3,53.16-8.16,70.83-6,20.4-15.09,32.59-27.09,36.26a26.27,26.27,0,0,1-6.35,1.12C724.15,611.55,723.65,611.56,723.15,611.56Zm-32.22-15.35c8.75,7.13,17.11,11.65,24.83,13.45a31.68,31.68,0,0,0,8.83.86,24.88,24.88,0,0,0,6.11-1.08c11.66-3.56,20.54-15.53,26.42-35.58,5.14-17.58,7.87-41.32,8.12-70.56,0-5.94,0-11.93-.14-17.81a34.73,34.73,0,0,1-4.18.83c0,4.73,0,9.63-.15,15.38-.51,22.33-2.43,41.32-5.69,56.46-.1.4-.19.79-.27,1.18l-.07.37-.22,1.91a2.26,2.26,0,0,1-.07.43C749,586.59,741,599.36,729.13,602.24c-4.79,1.16-10.46.76-16.39-1.17-7.17-2.34-14.64-6.8-22.19-13.24A141.86,141.86,0,0,1,668,562.68C657.49,548.07,647.61,530,638.64,509l-.29-.15-.15-.08-.08-.17c-4.16-9.79-7.87-19.79-11-29.74-7-22.39-9.4-36.39-10.68-46.09-.2-1.54-.48-3.17-.77-4.91-1-6.13-2.24-13.09-.8-19.69a17.72,17.72,0,0,1,2-5.32,15.62,15.62,0,0,1,8.28-6.75l.18,0h4.81l.14.24a11.25,11.25,0,1,0-.46-10.71l-.14.27-7.26.32a10.81,10.81,0,0,0-6,2.22c-2.71,2-4.88,5.33-6.47,9.88-3.48,10-3.85,25.42-1,42.29a272.25,272.25,0,0,0,12.13,45.64c1.92,5.39,4,10.77,6.17,16a308.39,308.39,0,0,0,35.27,63.21c9.36,12.71,18.85,23,28.22,30.68Z" fill="none"/><path d="M756.07,486.65a34.54,34.54,0,0,1-8.24-1c-5.67-1.4-11.48-3-17.27-4.67-6.62-1.93-13.22-4.06-19.62-6.32l.33-.94c6.39,2.25,13,4.37,19.57,6.3,5.78,1.69,11.57,3.26,17.23,4.66a33.77,33.77,0,0,0,12.29.69l.12,1A36.5,36.5,0,0,1,756.07,486.65Z" fill="none"/><rect width="1" height="25.79" x="747.39" y="485.17" transform="rotate(-73.67 747.932 498.06)" fill="none"/><polygon points="754.13 558.3 754.12 558.22 755.07 557.93 755.1 558.06 754.13 558.3" fill="none"/><polygon points="668.35 563.12 667.67 562.38 668.07 562.02 668.75 562.76 668.35 563.12" fill="none"/><path fill="#ff5b00" d="M712.17,551.09,710,587.75l-19.13-.3s-3.87-18.7-15-32.32h0l0,0,.8-.81c.88-.9,1.76-1.81,2.63-2.72l.34-.35,1.2-1.27c1.49-1.56,2.92-3.09,4.24-4.51.86-.92,1.68-1.8,2.42-2.62.17-.17.32-.35.47-.51l1.13-1.23.25-.28c.37-.4.71-.77,1-1.11l.62-.69a.17.17,0,0,0,.06-.06l.46-.51.22-.24h0Z" class="colorred svgShape"/><path d="M710.48,588.26l-20-.32-.08-.39c0-.18-4-18.74-14.85-32.1l-.29-.36.33-.32.84-.85,2.63-2.71a1.57,1.57,0,0,1,.18-.19l.15-.16c.2-.22.41-.43.61-.64l.59-.63c1.49-1.56,2.92-3.09,4.24-4.51.86-.92,1.68-1.8,2.42-2.61l.29-.32,1.55-1.7c.38-.41.72-.77,1-1.11s.44-.48.62-.68l.17-.19.36-.4a2.09,2.09,0,0,0,.21-.23l.26-.29.42.21,20.55,13.07Zm-19.2-1.3,18.26.28,2.11-35.89-19.73-12.54-.29.33-.19.2-.6.67-1,1.11-1.55,1.69c-.1.12-.21.23-.32.34-.72.81-1.54,1.69-2.41,2.61-1.32,1.42-2.75,3-4.24,4.52l-.6.63-.6.63a1.57,1.57,0,0,1-.18.19l-.15.16-2.64,2.73-.54.54C686.54,567.6,690.65,584.21,691.28,587Z" fill="none"/><path d="M676.34,555.43l-.73-.69,16-17.14.77.63a1.63,1.63,0,0,1-.22.27,2,2,0,0,1-.24.26l-.33.38-.28.3-.51.56c-.3.34-.64.72-1,1.12l-1.55,1.69c-.1.12-.21.23-.32.34-.72.81-1.54,1.69-2.41,2.61-1.32,1.42-2.75,3-4.24,4.52l-1.14,1.21-.24.24-.15.16-2.64,2.73C676.86,554.89,676.6,555.16,676.34,555.43Z" fill="none"/><path fill="#ff5b00" d="M712.93,600.59h0c-6.69-2.18-14.15-6.42-22-13.14l19.13.3C711,591.75,712.93,600.59,712.93,600.59Z" class="colorred svgShape"/><path d="M713.55,601.09l-.81,0c-7.17-2.34-14.64-6.8-22.19-13.24l-1-.9,20.9.33.09.37c1,4,2.91,12.77,2.93,12.85ZM692.27,588c6.8,5.64,13.52,9.63,20,11.88-.48-2.23-1.82-8.28-2.63-11.6Z" fill="none"/><path d="M712 601.16c-8.16 0-20.75-12.5-21.31-13.06l.71-.7c.14.14 13.89 13.79 21.47 12.7l.14 1A8.42 8.42 0 01712 601.16zM669.38 456.43a10.48 10.48 0 01-1.73-1.33l.71-.7a10 10 0 001.56 1.19zM713 478.59l-9.38-7.15c1.35.51 2.7 1 4 1.5 1 .38 2 .75 3.07 1.1l.43.16A15 15 0 01713 478.59z" fill="none"/><path d="M713.79,479.86l-13.25-10.1,3.2,1.21c1.35.51,2.7,1,4,1.5,1,.38,2,.75,3.06,1.1a4.69,4.69,0,0,1,.45.17l.15.06.09.13a15.44,15.44,0,0,1,1.9,4.54Zm-7.23-6.77,5.46,4.17a12.5,12.5,0,0,0-1.25-2.65l-.26-.1c-1-.35-2-.72-3.07-1.1Z" fill="none"/><path d="M710.5 474.51c-4-1.52-17.77-6.87-28.7-11.77l.41-.92c10.91 4.9 24.68 10.23 28.65 11.75zM714.29 488.14l-1 0a35.35 35.35 0 00-.63-8.61l1-.22A37 37 0 01714.29 488.14z" fill="none"/><path fill="#ffae7e" d="M728.73 395.81c-.37 2.48-5.77 3.76-12.08 2.86s-11.13-3.65-10.76-6.13 5.77-3.77 12.07-2.86S729.09 393.33 728.73 395.81zM1458.28 775.28c-1.21 2.2-6.71 1.52-12.32-1.52s-9.16-7.3-8-9.49 6.72-1.53 12.31 1.52S1459.49 773.08 1458.28 775.28zM1401.07 736.09a25.41 25.41 0 015.69 3.13c5.18 3.71 8.18 8.38 6.72 10.41s-6.85.67-12-3a26.56 26.56 0 01-4.15-3.65z" class="colorff7ea9 svgShape"/><path d="M1048.58 892.25a1.5 1.5 0 000-3 1.5 1.5 0 000 3zM913.86 1432.84c-14.2 14.71-34.65 36.47-57.19 62.13l38.41-91.06C901.34 1413.93 907.68 1423.73 913.86 1432.84z" fill="none"/><path d="M855,1497.62l40-94.79.51.82c6.54,10.47,12.86,20.2,18.77,28.91l.23.34-.28.29C901,1446.9,880.32,1468.8,857,1495.3ZM895.16,1405l-36.84,87.34c22.3-25.29,42-46.21,54.9-59.54C907.52,1424.37,901.45,1415,895.16,1405Z" fill="none"/><polygon points="894.58 1403.91 894.58 1403.9 895.58 1403.9 894.58 1403.91" fill="none"/><path d="M698.22,1352.42l-.21-45.67c23-1,33-18,33-18Z" fill="none"/><path d="M697.73,1354.46l-.22-48.19.48,0a41,41,0,0,0,32.59-17.75l.87.48Zm.78-47.23.2,43.14,29.39-57A42.56,42.56,0,0,1,698.51,1307.23Z" fill="none"/></g></svg>