<svg xmlns="http://www.w3.org/2000/svg" data-name="Layer 1" viewBox="0 0 750 350"><path fill="#e2a581" d="m732.74 324.11 2.16-1.11a147.32 147.32 0 0 0-120.08-169.4 86.82 86.82 0 0 0-55.45-46.51 30.39 30.39 0 1 0-52.12-31 134.33 134.33 0 0 0-110.07-4.13 113.32 113.32 0 0 0-190.75 10.73 99.92 99.92 0 0 0-146.32 88.48 101.33 101.33 0 0 0 .7 11.88 137.79 137.79 0 0 0-42.72 141.06Z" class="color81e2df svgShape"/><path fill="#ffffff" d="M317.8 202.07c22.11-27.31 65.22-61 65.22-100.31 0-38-33.46-64.7-74.73-64.7s-74.73 26.66-74.73 64.7c0 39.32 43.11 73 65.22 100.31Z" class="colorfff svgShape"/><circle cx="374.39" cy="139.66" r="13.98" fill="#ffffff" class="colorfff svgShape"/><path fill="#ffffff" d="M340.7 163.09h55.88a10.76 10.76 0 0 0 0-21.52H340.7Z" class="colorfff svgShape"/><path fill="#ffb58a" d="m287.42 54.62-14.97-4.44-11.13 7.34-9.01 16.19-2.75 19.84 4.81 19.05 11.56 16.6 25.77 28.74 9.16-1.03-16.84-30.23-6.41-20.79-3.78-19.63 3.44-17.29 10.15-14.35zM328.42 54.06 343 49.24l14.77 13.21s7.33 16.14 7.21 16.71.69 17.87.69 17.87l-5.55 16.42-13.92 21.25-23.25 24-8.35-2.29 15.63-25.53 7.84-18.88 4.12-17.64-2.06-21.14-7.22-15.73Z" class="colorf27370 svgShape"/><ellipse cx="189.12" cy="162.1" fill="#ffffff" rx="93.95" ry="55.12" class="colorfff svgShape"/><circle cx="127.51" cy="210.57" r="13.51" fill="#ffffff" class="colorfff svgShape"/><circle cx="92.77" cy="206.9" r="30.07" fill="#ffffff" transform="rotate(-45 92.772 206.903)" class="colorfff svgShape"/><path fill="#ffbf66" d="m487.79 107.18-86.83-20.17-3.1 3.72 86.65 20.93 3.28-4.48z" class="colorede862 svgShape"/><path fill="#ffffff" d="m484.51 111.66-86.65-20.93-4.95 3.89 1.02 5.72 6.31 5.55 61.63 30.41 22.64-24.64zM506.95 134.93l22.73 87.97-6.24 3.93-3.36-.31-36.49-68.95 23.36-22.64z" class="colorfff svgShape"/><path fill="#ffbf66" d="m506.95 134.93 4.81-4.13 21.49 84.41v5.13l-3.57 2.56-22.73-87.97z" class="colorede862 svgShape"/><path fill="#ffffff" d="M405.12 208.97 543.3 79.81l-4.52-5.11-16.94 6.18-15.2 10.98-41.99 41.42-58 68.05-3.49 6.64 1.96 1zM420.39 183.78l-31.62-7.94-5.9 7.17 6.38 7.79 16.79 8.91 14.35-15.93zM436.25 198.01l8.87 30.34-5.19 5.65-5.8-2.29-11.96-21.91 14.08-11.79z" class="colorfff svgShape"/><path fill="#ffbf66" d="M406.64 207.44s106.57-124 132.83-127.63L543.3 82l-4.75 15.55L528.48 110l-16.62 19.14-96.35 84.59h-8.87l-1.52-4.8Z" class="colorede862 svgShape"/><path fill="#ffb58a" d="m460.58 100.58 7.1-9.05-4.81-5.39h-7.1l-5.84 11.94 10.65 2.5zM519.98 157.57l7.12-4.38 5.77 4 .38 4.26-3.57 4.05-8.65 3.54-1.05-11.47z" class="colorf27370 svgShape"/><path fill="#ffffff" d="M567.14 179.2s8.66 23.66 16.29 27 38.78-11 62-10.67 41.06 3.53 47.24 19.65l2.75 2.84 13.15 6.42-.37 6.12-3.62 4.87-11.91 5.27-17.86 3.9-20.61-.69-7.83 4.76-.41 7.37-3.66 2.75-12.6-.76-15.8 10.15-18.64-.89v-2.77l23.44-19.22-18.09-1.83-22.67-5.47-21.94-8.41-12.7-5.89-1.08-5.7 10.26-1.5-6.78-38.41Z" class="colorfff svgShape"/><circle cx="592.59" cy="183.75" r="14.04" fill="#ffffff" transform="rotate(-67.5 592.593 183.755)" class="colorfff svgShape"/><path fill="#ffffff" d="M612.51 173.59a4.55 4.55 0 1 0 4.55-4.55 4.55 4.55 0 0 0-4.55 4.55Z" class="colorfff svgShape"/><path fill="#e2a581" d="M692.66 215.2s-10.64-7-11.61-7.59-17.93-3.07-17.93-3.07h-20.6l-20.92 4.21-26.35 6.34-14.67.11-10-6.23-5.27-13.13-4.82-17-4.49-.22s1.45 21.68 11.11 35.12 14.92 11.08 29.81 9.4 44.53-11 56.27-11.27c23.87-.61 37.84 5.92 37.84 5.92Z" class="color81e2df svgShape"/><path fill="#ffb58a" d="M560.54 262.47h20.53v49.62h-20.53zM586.29 284.71h18.79v26.85h-18.79z" class="colorf27370 svgShape"/><path fill="#ffffff" d="m563.05 323.02 1.56-4.67v-5.78l30.64.62-2.18 2.56 2.18 8.15-32.2-.88zM605.08 312.57h100.41v10.45H605.08zM621.68 294.53h103.28v5.72H621.68zM625.39 274.56h64.25v3.95h-64.25z" class="colorfff svgShape"/><path fill="#ffbf66" d="m406.64 290.64 3.32-11.41 8.09-8.29 10.23-3.5 84.48.76 9.99 5.27 6.93 9.08.74 10.15-123.78-2.06z" class="colorede862 svgShape"/><path fill="#ffffff" d="M432.45 280.07a5.65 5.65 0 1 0 5.65-5.65 5.65 5.65 0 0 0-5.65 5.65ZM467.82 280.07a5.65 5.65 0 1 0 5.65-5.65 5.65 5.65 0 0 0-5.65 5.65ZM503.2 280.07a5.65 5.65 0 1 0 5.64-5.65 5.64 5.64 0 0 0-5.64 5.65Z" class="colorfff svgShape"/><path fill="#ffbf66" d="m430.16 267.32 81.71.44c0-.51.05-1 .05-1.54 0-20.07-19.2-36.33-42.89-36.33s-42.89 16.26-42.89 36.33c0 .76 0 1.51.09 2.26Z" class="colorede862 svgShape"/><path fill="#ffb58a" d="M469 247.46c-8.73 0-15.8 8.33-15.8 18.61h31.6c.03-10.28-7.05-18.61-15.8-18.61Z" class="colorf27370 svgShape"/><path fill="#ffffff" d="M475.74 247.64c-8.72 0-15.8 8.33-15.8 18.6h31.61c0-10.24-7.08-18.6-15.81-18.6Z" class="colorfff svgShape"/><circle cx="437.85" cy="256.22" r="7.27" fill="#ffffff" transform="rotate(-13.28 437.934 256.24)" class="colorfff svgShape"/><path fill="#ffffff" d="M445.58 242.16a3.51 3.51 0 1 0 3.51-3.51 3.51 3.51 0 0 0-3.51 3.51ZM446.67 292.01l-7.81 31.15h60.03l-8.5-31.48-43.72.33z" class="colorfff svgShape"/><circle cx="533.84" cy="250.5" r="11.86" fill="#ffffff" transform="rotate(-45 533.851 250.502)" class="colorfff svgShape"/><circle cx="514.47" cy="307.37" r="5.63" fill="#ffffff" class="colorfff svgShape"/><circle cx="394.65" cy="247.07" r="20.24" fill="#ffffff" transform="rotate(-45 394.654 247.08)" class="colorfff svgShape"/><path fill="#ffb58a" d="M305.47 234.91h27.73v12.16h-27.73zM381.87 217.22h-124.8a6.9 6.9 0 0 1-6.9-6.9h138.6a6.9 6.9 0 0 1-6.9 6.9Z" class="colorf27370 svgShape"/><path fill="#ffb58a" d="M319.78 212.32h6.7v22.59h-6.7z" class="colorf27370 svgShape"/><circle cx="222.38" cy="224.08" r="24.25" fill="#ffffff" transform="rotate(-13.28 222.443 224.101)" class="colorfff svgShape"/><path fill="#ffb58a" d="m359.02 248.81 9.8 6.75 7.43 11.75 11.62 5.62 5.65 5.65 2.22 9.19-8.32 9.43-13.01 4.4-55.92-.89-10.2-5.18-14.3-26.72-58.96-10.72-13.56 17.74-7.02-.63 5.8-22.42-5.34-29.88 9.16-.28 10.96 24.78 123.99 1.41z" class="colorf27370 svgShape"/><path fill="#ffffff" d="m338.72 248.2 7.02 15.42 6.27 3.69H375l-6.18-11.75-11.8-7.36h-18.3zM297.27 277.97h93.62l5.68 7.83-2.87 4.27-88.61-.41-7.82-11.69z" class="colorfff svgShape"/><path fill="#ffbf66" d="M249.9 152.68a4.54 4.54 0 0 0 0-6.76c-4.18-3.79-10.54-6.15-15.22-8.08-14.37-5.92-29.45-8.32-44.68-10.93-16.11-2.77-32.7-5.18-49.06-3.33-14.57 1.64-29.13 9.55-29.23 25.72.1 16.17 14.66 24.07 29.23 25.72 16.36 1.84 32.95-.56 49.06-3.33 15.23-2.62 30.31-5 44.68-10.93 4.68-1.93 11.04-4.29 15.22-8.08Z" class="colorede862 svgShape"/><path fill="#ffb58a" d="m211.4 125.68 10.98-12.23h16.53l1.81 6.11v4.68l-7.8 1.44-10.54 2.57-10.98-2.57zM213.48 160l13.64-3.85 5.8 3.85 7.8 1.49v9.11l-4.59 1.57h-13.75l-9.91-10.07 1.01-2.1z" class="colorf27370 svgShape"/><path fill="#ffffff" d="M124.07 143.7a6.34 6.34 0 1 0 6.34-6.33 6.34 6.34 0 0 0-6.34 6.33ZM146.51 143.7a6.34 6.34 0 1 0 6.34-6.33 6.34 6.34 0 0 0-6.34 6.33ZM169 143.7a6.34 6.34 0 1 0 6.33-6.33 6.33 6.33 0 0 0-6.33 6.33ZM191.4 143.7a6.34 6.34 0 1 0 6.33-6.33 6.33 6.33 0 0 0-6.33 6.33Z" class="colorfff svgShape"/><path fill="#ffbf66" d="m273.27 49.24 12.27 4.82 22.75 1.43 21.54-1.89 7.59-1.23 4.5-3.13-12.67-6.52-16.56-3.52-13.66.85-11.68 2.67-13.29 5.57-.79.95zM296.43 186.83l23.35.38-.53 6.64-.46 5.98-5.72 3.07-14.58-.42-3.66-5.96 1.6-9.69zM108.96 270.66h28.05l6.75-30.2-9.36-9.07-11.45-2.74-8.95 1.44-7.57 4.72-4.56 6.14 7.09 29.71z" class="colorede862 svgShape"/><rect width="34.34" height="26.3" x="109.42" y="287.94" fill="#ffb58a" rx="5.88" class="colorf27370 svgShape"/><path fill="#ffffff" d="M120.94 299.72a5.65 5.65 0 1 0 5.65-5.64 5.65 5.65 0 0 0-5.65 5.64Z" class="colorfff svgShape"/><path fill="#ffbf66" d="m101.87 240.95-46.95 7.1-1.04 7.55 51.21.34-3.22-14.99zM144.24 240.95l47.42 7.49.27 6.25-50.91 1.25 3.22-14.99z" class="colorede862 svgShape"/><path fill="#ffffff" d="m106.43 234.81 7.57 35.85-4.58.74-7.55-30.45 4.56-6.14zM101.87 244.92l-47.11 6.79.1-3.27 46.39-7.87.62 4.35zM145.02 241.07l46.64 7.37-.49 3.27-46.57-7.55.42-3.09z" class="colorfff svgShape"/><circle cx="50.3" cy="293.12" r="25.38" fill="#ffffff" class="colorfff svgShape"/><circle cx="38.59" cy="253.56" r="7.17" fill="#ffffff" class="colorfff svgShape"/><circle cx="38.39" cy="177.82" r="16.37" fill="#e2a581" class="color81e2df svgShape"/><path fill="#e2a581" d="M15.07 205.64a4.93 4.93 0 1 0 4.93-4.92 4.93 4.93 0 0 0-4.93 4.92Z" class="color81e2df svgShape"/><circle cx="204.09" cy="58.75" r="14.97" fill="#e2a581" class="color81e2df svgShape"/><circle cx="405.48" cy="51.77" r="12.57" fill="#e2a581" class="color81e2df svgShape"/><circle cx="582.17" cy="96.56" r="10.42" fill="#e2a581" transform="rotate(-13.28 582.29 96.56)" class="color81e2df svgShape"/><path fill="#e2a581" d="M591 109.67a3.78 3.78 0 1 0 3.78-3.78 3.78 3.78 0 0 0-3.78 3.78Z" class="color81e2df svgShape"/><circle cx="631.25" cy="139.59" r="18.74" fill="#e2a581" transform="rotate(-67.5 631.251 139.587)" class="color81e2df svgShape"/><path fill="#e2a581" d="M656.94 145.42a3.86 3.86 0 1 0 3.86-3.85 3.85 3.85 0 0 0-3.86 3.85Z" class="color81e2df svgShape"/><path fill="#ff6103" d="M562.59 150.28h3.66v7.29h-3.66zM562.59 133.28h3.66v7.29h-3.66zM552.28 143.59h7.29v3.66h-7.29zM569.28 143.59h7.29v3.66h-7.29zM189.63 294.45h3.66v7.29h-3.66zM189.63 277.45h3.66v7.29h-3.66zM179.31 287.76h7.29v3.66h-7.29zM196.32 287.76h7.29v3.66h-7.29zM262.73 179.11h3.66v7.29h-3.66zM262.73 162.1h3.66v7.29h-3.66zM252.42 172.41h7.29v3.66h-7.29zM269.42 172.41h7.29v3.66h-7.29zM82.15 170.6h3.66v7.29h-3.66zM82.15 153.6h3.66v7.29h-3.66zM71.83 163.91h7.29v3.66h-7.29zM88.84 163.91h7.29v3.66h-7.29zM6.17 321.34h198.76V325H6.17zM210.66 321.48h5.95v3.66h-5.95zM222.36 321.48h24.93v3.66h-24.93zM412.52 217.06a10.09 10.09 0 0 1-7.71-16.57l19.09-22.78c20.74-24.71 42.84-48.89 65.68-71.71l12.89-12.9a69.91 69.91 0 0 1 32.21-18.31 8.27 8.27 0 0 1 10 10A69.91 69.91 0 0 1 526.41 117l-12.9 12.89c-22.83 22.84-47 44.93-71.73 65.68L419 214.68a10.06 10.06 0 0 1-6.48 2.38Zm-4.91-14.22a6.42 6.42 0 0 0 9 9l22.78-19.09a1107.36 1107.36 0 0 0 71.49-65.47l12.9-12.89a66.19 66.19 0 0 0 17.35-30.52 4.61 4.61 0 0 0-5.59-5.59 66.19 66.19 0 0 0-30.52 17.35l-12.89 12.9a1103.849 1103.849 0 0 0-65.46 71.49Z" class="color18262d svgShape"/><path fill="#ff6103" d="m435.89 188.76-2.36-2.8 2.8-2.36 2.36 2.8Zm5.6-4.74-2.37-2.79 2.78-2.37 2.38 2.78Zm5.57-4.78-2.39-2.77 2.76-2.39 2.41 2.76c-.93.8-1.84 1.61-2.78 2.4Zm5.54-4.81-2.41-2.76 2.75-2.41 2.42 2.75Zm5.51-4.85-2.43-2.74 2.73-2.44 2.44 2.74Zm5.47-4.89-2.44-2.69 2.71-2.45 2.46 2.72Zm5.44-4.93-2.46-2.71 2.7-2.46 2.48 2.7Zm5.42-5-2.44-2.65 2.69-2.49 2.49 2.69Zm5.37-5-2.5-2.68 2.67-2.5 2.51 2.66Zm5.35-5-2.53-2.66c.89-.83 1.77-1.67 2.66-2.52l2.53 2.65Zm5.31-5.06-2.54-2.65 2.63-2.54 2.55 2.64Zm5.27-5.11-2.55-2.59 2.61-2.56 2.57 2.62Zm5.24-5.13-2.57-2.61 2.6-2.58 2.58 2.6c-.87.88-1.73 1.74-2.59 2.6Zm5.27-5.24-2.65-2.53 2.59-2.59 2.59 2.59Zm5.12-5.12-2.59-2.59 2.59-2.59 2.59 2.59Zm5.19-5.18-2.56-2.58 2.59-2.59 2.59 2.59ZM462.4 138.74l-67.66-35.25a7.73 7.73 0 0 1-1.9-12.32l3.91-3.91a7.76 7.76 0 0 1 7.25-2.05l89.87 21.6Zm-60.17-50.08a4.1 4.1 0 0 0-2.89 1.19l-3.91 3.91a4.07 4.07 0 0 0 1 6.48l65.26 34 25-25.38-83.52-20.09a4.31 4.31 0 0 0-.94-.11ZM522.88 228.92a6.94 6.94 0 0 1-1.2-.1 7.63 7.63 0 0 1-5.68-4.07L486 166l3.27-1.67 30 58.73a4.07 4.07 0 0 0 6.48 1l3.91-3.91a4.11 4.11 0 0 0 1.08-3.83l-20.84-86.71 3.56-.86 20.84 86.72a7.79 7.79 0 0 1-2 7.27l-3.91 3.91a7.66 7.66 0 0 1-5.51 2.27ZM438.11 235.18a7.09 7.09 0 0 1-1-.07 7.45 7.45 0 0 1-5.52-3.71l-11.21-20.72 3.22-1.75 11.2 20.69a3.84 3.84 0 0 0 6 .78l4.2-4.21a3.84 3.84 0 0 0 1-3.63l-7.18-27.91 3.55-.92 7.18 27.93a7.54 7.54 0 0 1-2 7.13l-4.21 4.2a7.42 7.42 0 0 1-5.23 2.19ZM404.39 201.29 385 190.14a8.28 8.28 0 0 1-1.75-13l4.78-4.78a8.3 8.3 0 0 1 7.85-2.17l27.82 7-.89 3.56-27.82-7a4.63 4.63 0 0 0-4.37 1.21l-4.78 4.78a4.62 4.62 0 0 0 1 7.26l19.4 11.16Z" class="color18262d svgShape"/><path fill="#ff6103" d="m462.41 101.56-2.74-2.44 3.69-4.12a4.16 4.16 0 0 0-.66-6.13l-.11-.08a4.15 4.15 0 0 0-6 1.26l-5.25 9-3.17-1.85 5.25-9a7.83 7.83 0 0 1 11.36-2.38l.1.08a7.83 7.83 0 0 1 1.25 11.53ZM522 171.29l-1.85-3.17 9-5.24a4.16 4.16 0 0 0 1.26-6l-.08-.11a4.16 4.16 0 0 0-6.13-.66l-4.14 3.69-2.43-2.8 4.15-3.69a7.83 7.83 0 0 1 11.53 1.25l.08.11A7.84 7.84 0 0 1 531 166ZM374.27 303.43h-50a22.4 22.4 0 0 1-19.08-10.56l-.06-.11-11.52-21.46-58.74-11.3-12 17.52h-10.16l5.57-25-5.46-31.39h12l10.47 25.28h117.63a22.35 22.35 0 0 1 19 10.63l5.73 9.37 9.84 4.47a17.77 17.77 0 0 1 7.28 5.78c4.62 6.54 3 14.38-4 20l-2.44 2a22.62 22.62 0 0 1-14.06 4.77ZM308.34 291a18.74 18.74 0 0 0 15.94 8.8h50a18.93 18.93 0 0 0 11.73-4.1l2.44-1.94c5.57-4.44 6.81-10.05 3.3-15a14.35 14.35 0 0 0-5.8-4.56l-10.87-4.93-6.32-10.33a18.65 18.65 0 0 0-15.84-8.94h-120.1l-10.47-25.28h-5.17l4.82 27.83-4.73 21.27h3.62l12.31-17.91L296 268Z" class="color18262d svgShape"/><path fill="#ff6103" d="M378.06 269.62h-22.92a14.09 14.09 0 0 1-12.88-8.4l-1.56-3.54 3.35-1.48 1.56 3.54a10.44 10.44 0 0 0 9.53 6.21h22.92ZM334.83 241.32h-3.66v-3.73a.86.86 0 0 0-.85-.85h-22.1a.86.86 0 0 0-.85.85v3.73h-3.66v-3.73a4.52 4.52 0 0 1 4.51-4.51h22.1a4.52 4.52 0 0 1 4.51 4.51Z" class="color18262d svgShape"/><path fill="#ff6103" d="M317.44 210.32h3.66v24.59h-3.66z" class="color18262d svgShape"/><path fill="#ff6103" d="M249.97 208.49h138.6v3.66h-138.6z" class="color18262d svgShape"/><path fill="#ff6103" d="M321.4 306.76h14.9v3.66h-14.9z" transform="rotate(-69.78 328.833 308.588)" class="color18262d svgShape"/><path fill="#ff6103" d="M366.78 301.14h3.66v14.9h-3.66z" transform="rotate(-20.22 368.534 308.547)" class="color18262d svgShape"/><path fill="#ff6103" d="M375.94 325.14H263.7v-3.66h112.24a23.83 23.83 0 0 0 17-7l2.6 2.59a27.51 27.51 0 0 1-19.6 8.07ZM382.46 199.84h-3.66v-3.66h3.66Zm-7.33 0h-3.66v-3.66h3.66Zm-7.32 0h-3.67v-3.66h3.67Zm-7.33 0h-3.66v-3.66h3.66ZM317.98 196.18h38.83v3.66h-38.83zM149.2 171.07a109 109 0 0 1-12.24-.66c-14.85-1.67-30.76-9.79-30.87-27.53.11-17.76 16-25.87 30.86-27.55 16.78-1.89 33.69.61 49.57 3.34l2.31.4c14.22 2.43 28.93 5 42.77 10.65l1.41.58c4.6 1.87 10.32 4.2 14.33 7.83a6.36 6.36 0 0 1 0 9.48c-4 3.63-9.74 6-14.34 7.84l-1.4.57c-13.84 5.7-28.55 8.22-42.77 10.65l-2.31.4c-12.02 2.06-24.63 4-37.32 4Zm0-52.73a106 106 0 0 0-11.82.63c-13.29 1.5-27.52 8.57-27.61 23.91.09 15.32 14.32 22.39 27.61 23.89 16.29 1.84 32.91-.63 48.53-3.31l2.31-.4c14.67-2.51 28.53-4.88 42-10.42l1.42-.59c4.34-1.76 9.73-4 13.27-7.15a2.72 2.72 0 0 0 .9-2 2.66 2.66 0 0 0-.91-2c-3.53-3.2-8.92-5.4-13.25-7.16l-1.43-.58c-13.46-5.55-27.32-7.92-42-10.43l-2.31-.4c-11.91-2.08-24.3-3.99-36.72-3.99ZM124.94 112.72l-1.18-3.47c.36-.13.73-.25 1.1-.36.83-.26 1.68-.51 2.54-.73l.92 3.55c-.8.21-1.6.43-2.36.67Zm6.83-1.77-.66-3.6c1.23-.22 2.49-.41 3.75-.55l.41 3.64c-1.18.13-2.35.31-3.5.56Z" class="color18262d svgShape"/><path fill="#ff6103" d="M201.46 116.53c-4.05-.76-8.21-1.47-12.23-2.16l-2.43-.37c-16.58-2.84-34.23-5.46-51.53-3.51l-.41-3.64c17.78-2 35.72.65 52.56 3.54l2.43.42c4 .69 8.21 1.4 12.29 2.17ZM236.11 127.51h-5.6v-3.66h5.6a2.59 2.59 0 0 0 2.58-2.58v-3.51a2.48 2.48 0 0 0-2.48-2.48H224a2.52 2.52 0 0 0-1.78.74l-10.7 10.89-2.62-2.56 10.71-10.9a6.22 6.22 0 0 1 4.39-1.83h12.17a6.14 6.14 0 0 1 6.14 6.14v3.51a6.25 6.25 0 0 1-6.2 6.24ZM236.21 174.06H224a6.19 6.19 0 0 1-4.39-1.84l-10.71-10.89 2.62-2.57 10.7 10.89a2.49 2.49 0 0 0 1.78.75h12.17a2.49 2.49 0 0 0 2.48-2.49v-3.5a2.59 2.59 0 0 0-2.58-2.58h-5.6v-3.66h5.6a6.25 6.25 0 0 1 6.24 6.24v3.5a6.15 6.15 0 0 1-6.1 6.15ZM210.25 141.04h30.27v3.66h-30.27zM172.44 177.64h-20.23l-2.85-7.77 3.44-1.26 1.97 5.36h14.49l.97-6.72 3.63.52-1.42 9.87zM89 201.38a21 21 0 0 1 39.06-14.78 15.24 15.24 0 0 1 15.2 14.19l-3.66.24a11.55 11.55 0 0 0-11.49-10.77c-.35 0-.69 0-1 .06l-1.32.11-.53-1.22a17.32 17.32 0 0 0-32.69 11.23ZM218.91 195.24h-3.66a12.26 12.26 0 0 0-22.87-6.13l-1 1.67-1.62-1.06a6.59 6.59 0 0 0-10.19 5.52h-3.66A10.27 10.27 0 0 1 186.2 185a10.08 10.08 0 0 1 4 .81 15.91 15.91 0 0 1 28.73 9.44ZM315.84 170.42h-16.63l-.55-.67c-4.05-5-9-10.3-14.29-15.9-17.4-18.53-37.12-39.52-37.12-63.72 0-29.89 25.91-52.43 60.28-52.43s60.28 22.54 60.28 52.43c0 24.2-19.73 45.19-37.13 63.71-5.26 5.61-10.24 10.9-14.29 15.91ZM301 166.76h13.1c4-4.9 8.83-10 13.91-15.43 16.94-18 36.13-38.45 36.13-61.2 0-27.8-24.34-48.77-56.61-48.77s-56.62 21-56.62 48.77c0 22.75 19.2 43.18 36.13 61.21 5.08 5.4 9.89 10.52 13.96 15.42ZM312 204.73h-9a9.4 9.4 0 0 1-9.38-9.39v-7.14h3.66v7.14a5.73 5.73 0 0 0 5.72 5.73h9a5.73 5.73 0 0 0 5.72-5.73v-7.14h3.67v7.14a9.4 9.4 0 0 1-9.39 9.39Z" class="color18262d svgShape"/><path fill="#ff6103" d="M288.51 175.75h18.55v3.66h-18.55z" transform="rotate(-75.61 297.785 177.58)" class="color18262d svgShape"/><path fill="#ff6103" d="M315.44 168.3h3.66v18.55h-3.66z" transform="rotate(-14.38 317.353 177.622)" class="color18262d svgShape"/><path fill="#ff6103" d="M290.51 184.73h34.04v3.66h-34.04zM307.53 57.33c-15.61 0-29.76-2.27-36.92-5.91l1.66-3.26c6.58 3.34 20.42 5.5 35.26 5.5 12.31 0 27.69-1.85 34.29-6l1.94 3.11c-7.71 4.84-24.34 6.56-36.23 6.56Z" class="color18262d svgShape"/><path fill="#ff6103" d="M299.87 158.75C254.9 93 277.73 61 285.8 52.78l2.62 2.57c-7.58 7.73-28.92 37.9 14.48 101.34Z" class="color18262d svgShape"/><path fill="#ff6103" d="M296.13 123.38c-.24-.94-.46-1.88-.67-2.81l3.57-.81c.2.9.42 1.81.65 2.72Zm-1.43-6.47c-.23-1.2-.44-2.44-.62-3.67l3.62-.55c.18 1.19.38 2.38.6 3.55Zm-1.12-7.36c-.14-1.22-.27-2.47-.37-3.71l3.65-.3c.1 1.2.22 2.4.36 3.58Zm-.61-7.43c-.06-1.23-.09-2.48-.11-3.73h3.66c0 1.21.06 2.42.11 3.6Zm3.57-7.38-3.67-.07c0-1.23.08-2.49.14-3.73l3.66.2c-.06 1.2-.11 2.41-.13 3.6Zm.39-7.19-3.65-.33c.11-1.26.24-2.49.38-3.7l3.64.44c-.14 1.17-.3 2.37-.37 3.59Zm.86-7.16-3.62-.56c.19-1.22.4-2.45.64-3.67l3.59.68c-.21 1.16-.4 2.33-.61 3.55Zm1.34-7.08-3.57-.8c.27-1.21.56-2.43.87-3.62l3.55.92c-.3 1.19-.59 2.33-.85 3.5Zm1.81-7-3.51-1c.36-1.21.74-2.41 1.13-3.56l3.44 1.16c-.34 1.09-.71 2.26-1.06 3.43Zm2.32-6.8-3.42-1.33c.87-2.24 1.47-3.47 1.49-3.52l3.29 1.61s-.56 1.19-1.36 3.27ZM314.84 158.75l-3-2.06c16.21-23.7 26.5-45.19 28.24-59 2.15-17-2.27-31.26-13.15-42.36l2.61-2.57c11.52 11.8 16.46 27.5 14.16 45.41-1.81 14.35-12.33 36.43-28.86 60.58Z" class="color18262d svgShape"/><path fill="#ff6103" d="M290.51 155.89h34.04v3.66h-34.04zM392.38 155h-44.53v-3.67h44.53a3.46 3.46 0 0 0 3.45-3.45v-.11a3.46 3.46 0 0 0-3.45-3.45H378.8v-3.66h13.58a7.12 7.12 0 0 1 7.11 7.11v.11a7.13 7.13 0 0 1-7.11 7.12Z" class="color18262d svgShape"/><path fill="#ff6103" d="M390 142.52h-3.66a10.61 10.61 0 1 0-21.21 0h-3.67a14.27 14.27 0 1 1 28.54 0ZM684.91 216.21h9.06v3.66h-9.06zM684.5 219.87h-3.67v-3.66h3.67Zm-7.33 0h-3.66v-3.66h3.66ZM620 246.45h-3.08a122.27 122.27 0 0 1-37.81-6h-.08L541.26 226v-9.55l14-1.7.45 3.63-10.73 1.31v3.79L580.31 237a118.63 118.63 0 0 0 36.63 5.79H620Z" class="color18262d svgShape"/><path fill="#ff6103" d="M671 246.45h-4.7v-3.66h4.7a65.18 65.18 0 0 0 27.59-6.17 18.93 18.93 0 0 0 5.55-4l1.15-1.17a4.23 4.23 0 0 0-.16-6l-.08-.08a19.7 19.7 0 0 0-8-4.46l-4.1-1.15-.35-.35a34 34 0 0 1-2.32-2.77c-2.35-3-4.79-6.11-10.45-7.33-17.36-3.73-39.37-3.47-56.08.66l-16.36 5c-6.2 1.89-20.73 2.84-27.12 2.84h-.46l-.41-.22A28.93 28.93 0 0 1 567.73 206c-2.66-4.6-4.51-10.07-6.14-14.9v-.13L559 181h-10.64l5.13 29.87-3.61.62-5.88-34.13h17.87l3.22 12.64c2 5.8 3.52 10.22 5.81 14.17a25.34 25.34 0 0 0 9.89 9.94c6.26 0 20-1 25.58-2.67l16.5-5c17.22-4.27 39.9-4.55 57.78-.7 7 1.49 10.07 5.46 12.57 8.66.59.76 1.16 1.48 1.74 2.12l3.13.87a23.44 23.44 0 0 1 9.48 5.3l.08.07A7.89 7.89 0 0 1 708 234l-1.14 1.18a22.91 22.91 0 0 1-6.62 4.76 69 69 0 0 1-29.24 6.51Z" class="color18262d svgShape"/><path fill="#ff6103" d="M532.05 177.36h47.55v3.66h-47.55zM643.73 259.89H631v-3.67h12.73a.93.93 0 0 0 .93-.93v-6.6h3.66v6.6a4.6 4.6 0 0 1-4.59 4.6Z" class="color18262d svgShape"/><path fill="#ff6103" d="M613.25 270.21h-16.59a3.44 3.44 0 0 1-2.24-6l36.71-31.5 2.38 2.78-36.23 31.1h15.91l56.12-34.06 1.9 3.14L615 269.71a3.38 3.38 0 0 1-1.75.5ZM698.19 297.73h-3.67v-3.66h3.67Zm-7.33 0h-3.66v-3.66h3.66Zm-7.33 0h-3.66v-3.66h3.66Zm-7.33 0h-3.66v-3.66h3.66Zm-7.32 0h-3.67v-3.66h3.67Zm-7.33 0h-3.67v-3.66h3.67Zm-7.33 0h-3.66v-3.66h3.66Zm-7.33 0h-3.66v-3.66h3.66ZM582.21 312.09h-3.66v-47.88h-23.23v47.88h-3.67v-51.54h30.56v51.54z" class="color18262d svgShape"/><path fill="#ff6103" d="M606.71 312.57h-3.66v-26.03h-22.19v-3.66h25.85v29.69z" class="color18262d svgShape"/><path fill="#ff6103" d="M614.82 313.92H545.5v-3.66h66.13l2.47-17.77h12.57v3.66h-9.38l-2.47 17.77z" class="color18262d svgShape"/><path fill="#ff6103" d="M559 324.85a7.3 7.3 0 1 1 7.29-7.3 7.3 7.3 0 0 1-7.29 7.3Zm0-10.93a3.64 3.64 0 1 0 3.63 3.63 3.63 3.63 0 0 0-3.63-3.63ZM598.34 324.85a7.3 7.3 0 1 1 7.29-7.3 7.3 7.3 0 0 1-7.29 7.3Zm0-10.93a3.64 3.64 0 1 0 3.63 3.63 3.64 3.64 0 0 0-3.63-3.63ZM625.19 309.73h55.65v3.66h-55.65zM138.66 272.49h-31.82l-7-30.23v-.21c0-2.32 1.24-4.71 3.81-7.32a26.44 26.44 0 0 1 19-7.91h.1a26.66 26.66 0 0 1 19.05 7.84c2.62 2.63 3.89 5.05 3.89 7.39v.21Zm-28.91-3.66h26l6.24-27c-.09-1.25-1.06-2.84-2.82-4.61a23 23 0 0 0-16.46-6.77h-.08a22.86 22.86 0 0 0-16.37 6.81c-1.72 1.75-2.67 3.33-2.75 4.57Z" class="color18262d svgShape"/><path fill="#ff6103" d="M94.4 315.75h-3.66v-26.54c0-6.2 2.29-15.34 6.54-20.08l7.72-8.33 2.7 2.48-7.7 8.31c-3.49 3.9-5.59 12-5.59 17.62ZM154.76 315.75h-3.66v-26.54c0-5.59-2.1-13.72-5.61-17.64l-7.64-8.29 2.7-2.48 7.66 8.31c4.26 4.76 6.55 13.9 6.55 20.1ZM120.92 270.66h3.66v11.89h-3.66z" class="color18262d svgShape"/><path fill="#ff6103" d="M134.47 311.42H111a6.65 6.65 0 0 1-6.64-6.64v-17.43a6.64 6.64 0 0 1 6.64-6.63h23.44a6.64 6.64 0 0 1 6.64 6.63v17.43a6.65 6.65 0 0 1-6.61 6.64Zm-23.44-27a3 3 0 0 0-3 3v17.43a3 3 0 0 0 3 3h23.44a3 3 0 0 0 3-3v-17.5a3 3 0 0 0-3-3Z" class="color18262d svgShape"/><path fill="#ff6103" d="M122.75 302.92a6.86 6.86 0 1 1 6.85-6.85 6.86 6.86 0 0 1-6.85 6.85Zm0-10a3.19 3.19 0 1 0 3.19 3.19 3.19 3.19 0 0 0-3.19-3.23ZM97.73 257.77H52.15V246.5l49.23-7.85.58 3.61-46.15 7.37v4.48h41.92v3.66z" class="color18262d svgShape"/><path fill="#ff6103" d="M69.77 247.4H66.1v-19.14h13.97v17.6h-3.66v-13.94h-6.64v15.48zM34.67 218.91h76.84v3.66H34.67zM80.07 218.86h-3.66v-2.32a3.28 3.28 0 0 0-3.27-3.27H73a3.27 3.27 0 0 0-3.27 3.27v2.32H66.1v-2.32a6.94 6.94 0 0 1 6.9-6.93h.1a6.94 6.94 0 0 1 6.93 6.93ZM193.56 257.77h-45.58v-3.66h41.91v-4.48l-46.14-7.37.57-3.61 49.24 7.85v11.27z" class="color18262d svgShape"/><path fill="#ff6103" d="M179.6 247.4h-3.66v-15.48h-6.64v13.94h-3.67v-17.6h13.97v19.14zM134.2 218.91h76.84v3.66H134.2zM179.6 218.86h-3.66v-2.32a3.28 3.28 0 0 0-3.27-3.27h-.1a3.27 3.27 0 0 0-3.27 3.27v2.32h-3.67v-2.32a6.94 6.94 0 0 1 6.94-6.93h.1a6.94 6.94 0 0 1 6.93 6.93ZM532 293.51H404.61v-2.07a26 26 0 0 1 26-26h75.52a26 26 0 0 1 25.95 26Zm-123.71-3.66h120a22.31 22.31 0 0 0-22.23-20.7h-75.49a22.33 22.33 0 0 0-22.24 20.7Z" class="color18262d svgShape"/><path fill="#ff6103" d="M468.33 286.27a6.78 6.78 0 1 1 6.77-6.77 6.78 6.78 0 0 1-6.77 6.77Zm0-9.88a3.11 3.11 0 1 0 3.11 3.11 3.11 3.11 0 0 0-3.11-3.11ZM433 286.27a6.78 6.78 0 1 1 6.78-6.77 6.78 6.78 0 0 1-6.78 6.77Zm0-9.88a3.11 3.11 0 1 0 3.11 3.11 3.11 3.11 0 0 0-3.11-3.11ZM503.63 286.27a6.78 6.78 0 1 1 6.78-6.77 6.78 6.78 0 0 1-6.78 6.77Zm0-9.88a3.11 3.11 0 1 0 3.11 3.11 3.11 3.11 0 0 0-3.11-3.11ZM509.94 263.89a43 43 0 0 0-83.23 0l-3.54-.92a46.66 46.66 0 0 1 90.32 0ZM525.12 261.75q-.33-1.29-.72-2.55l3.5-1.08c.28.89.53 1.8.77 2.71Zm-1.87-5.91c-.42-1.11-.87-2.21-1.35-3.28l3.34-1.5c.51 1.14 1 2.31 1.44 3.49Zm-2.9-6.47c-.54-1-1.13-2.09-1.73-3.1l3.13-1.89a62.73 62.73 0 0 1 1.85 3.29Zm-3.66-6.08c-.67-1-1.38-1.93-2.1-2.86l2.89-2.26c.77 1 1.52 2 2.23 3Zm-4.37-5.6c-.78-.88-1.6-1.75-2.43-2.59l2.6-2.58c.88.88 1.74 1.81 2.58 2.75Zm-5-5c-.89-.78-1.8-1.55-2.73-2.28l2.27-2.88c1 .77 1.95 1.59 2.89 2.42Zm-5.58-4.39c-1-.67-2-1.32-3-1.94l1.9-3.13c1.07.65 2.14 1.35 3.17 2.06Zm-6.07-3.69a62.78 62.78 0 0 0-3.2-1.56l1.51-3.34c1.14.51 2.28 1.07 3.39 1.66Zm-6.48-2.92c-1.1-.42-2.23-.82-3.36-1.17l1.09-3.49c1.2.37 2.4.78 3.58 1.23Zm-6.78-2.12c-1.14-.28-2.31-.53-3.47-.74l.66-3.61c1.23.23 2.47.49 3.69.79Zm-24.67-.74-.66-3.61c1.24-.22 2.49-.41 3.73-.56l.44 3.64c-1.18.1-2.36.28-3.52.5Zm17.69-.53c-1.18-.15-2.37-.25-3.54-.32l.22-3.66c1.24.07 2.5.19 3.75.34Zm-10.65-.3-.22-3.66c1.24-.08 2.51-.11 3.77-.11v3.66c-1.18-.05-2.33-.01-3.55.11ZM411.53 261.74l-3.54-.92c.31-1.21.67-2.43 1.06-3.62l3.48 1.13c-.36 1.12-.7 2.27-1 3.41Zm2.2-6.75-3.41-1.34c.46-1.17 1-2.34 1.5-3.47l3.31 1.55a56.37 56.37 0 0 0-1.4 3.27Zm3-6.43-3.22-1.75c.6-1.1 1.24-2.2 1.91-3.26l3.1 1.94c-.62 1-1.22 2.03-1.79 3.07Zm3.77-6-3-2.12c.73-1 1.49-2 2.28-3l2.85 2.3c-.73.88-1.45 1.83-2.13 2.79ZM425 237l-2.71-2.46c.78-.85 1.59-1.69 2.41-2.5l2.57 2.61c-.83.76-1.59 1.55-2.27 2.35Z" class="color18262d svgShape"/><path fill="#ff6103" d="M426.12 305.6h32.53v3.66h-32.53z" transform="rotate(-75.5 441.748 306.712)" class="color18262d svgShape"/><path fill="#ff6103" d="M492.43 291.16h3.66v32.53h-3.66z" transform="rotate(-14.53 494.237 307.42)" class="color18262d svgShape"/><path fill="#ff6103" d="M463.31 291.68h3.66v32.22h-3.66zM470.59 291.68h3.66v32.22h-3.66zM484 261.4h-3.67a12.13 12.13 0 0 0-24.26 0h-3.67a15.8 15.8 0 0 1 31.6 0Z" class="color18262d svgShape"/><path fill="#ff6103" d="M404.28 321.34h339.55V325H404.28z" class="color18262d svgShape"/><path fill="#ff6103" d="M261.87 257.02h3.66v51.06h-3.66z" transform="rotate(-78.21 263.708 282.547)" class="color18262d svgShape"/></svg>