<svg xmlns="http://www.w3.org/2000/svg" viewBox="0 0 4429.432 1850.259"><g data-name="Layer 2"><g data-name="discount" fill="none"><path fill="#ffb58a" d="M1485.756,751.014c-59.2,37.39-85.01,47.45-185.81,67.74s-504.77,97.34-509.71,98.25-6.85-.12-.7,6.73a832.813,832.813,0,0,1,114.41,151.97q4.65,7.935,9.2,16.2c31.42,57.02,54.44,117.92,61.89,180.59,5.24,43.96,2.81,88.791-9.74,133.77-30.43,109.1-96.65,143.39-189.72,165.73,0,0-63.31,13.811-105.07,2.3-.26-.061-.53-.141-.79-.211,0,0-.08,2.44-.57,6.8-3.77,33.62-31.58,181.48-230.4,206.171,0,0-107.57,17.959-216.56-54.421,0,0-76.78,52.28-197.62,37.44V604.1l12.54-3.07s77.55-20.27,124.33-28.66,276.95-47.12,328.95-55.83,322.11-53.7,386.56-64.26,241.45-39.27,288.16-46.54,193.2-28.62,224.05-31.22,103.28-9.99,145.23,9.42c.55.25,1.1.51,1.64.78,40.87,19.76,76.88,69.41,81.6,157.63.05.9.1,1.8.14,2.71C1621.936,636.174,1544.946,713.624,1485.756,751.014Z" class="colorffc0c7 svgShape"/><path fill="#ff6103" d="M335.436,1411.624c-.93-5.78-1.98-11.61-3.2-17.48-1.95-9.5-4.29-19.089-7.09-28.64q-1.1-3.765-2.3-7.52c-.05-.17-.11-.33-.16-.5-31.83-99.09-73.29-155.74-74.15-156.91,2.05,3.51,231.13,397.11-117.97,480.9-70.41,16.9-94.94-23.77-106-88.22V1764a288.91,288.91,0,0,0,39.23,2.69c71.64,0,127.91-23.86,153.65-37.75q2.205-1.185,4.77-2.75c1.14-.69,2.33-1.43,3.57-2.23.12-.07.25-.159.38-.24a341.865,341.865,0,0,0,53.3-43.51,2.272,2.272,0,0,1,.16-.169c7.29-7.471,13.48-14.861,17.5-21.5.01,0,.01,0,.01-.01.23-.381.46-.771.68-1.151,16.7-29.04,38.67-78.72,41.99-124.4C341.406,1510.994,343.8,1463.724,335.436,1411.624Zm324.82-38.4c-4.01-12.48-8.38-25.48-12.86-38.43-5.66-16.4-11.51-32.72-17.02-47.81-5.19-14.22-10.08-27.35-14.26-38.42,2.69,7.67,5.61,16.47,8.62,26.19,35.29,114.31,81.34,358.09-132.72,439.291-124.46,47.209-124.65-123.621-153.05-283.431,8.35,57.6,6.91,123.53-19.9,185.59,0,0-4.69,18.04-21.93,42.331,0,.01,0,.01-.01.01a214.079,214.079,0,0,1-17.5,21.5,2.272,2.272,0,0,0-.16.169,259.057,259.057,0,0,1-53.3,43.51c-.13.081-.26.17-.38.24-1.19.74-2.39,1.48-3.6,2.21a.124.124,0,0,0,.03.02c1.68,1.29,74,56.33,176.18,56.33,71.64,0,127.91-23.86,153.65-37.75,20.37-10.989,68.43-45.79,80.37-71.57,9.22-19.9,28.52-55.87,36.73-92.32q.75-3.285,1.36-6.589.675-3.587,1.17-7.171a126.79,126.79,0,0,0,1.3-18.2c-.09-18.59,1.56-39.33,2.03-62.17C675.686,1453.344,673.826,1415.444,660.256,1373.224Zm-57.08-158.52a1.009,1.009,0,0,1-.07-.15c.66,1.69,5.7,14.62,12.92,33.77C609.286,1229.024,604.106,1216.854,603.176,1214.7Zm-264.24,215.76c-1.82-12.55-4.11-24.69-6.7-36.32-1.77-7.96-3.69-15.68-5.7-23.109,3.29,13.279,6.22,26.859,8.9,40.589Q337.266,1421,338.936,1430.464Zm-12.4-59.429c-.45-1.851-.92-3.691-1.39-5.531-9.19-35.8-21.11-69.24-37.72-97.35.99,1.84,19.84,37.31,35.42,89.83C324.1,1362.224,325.336,1366.584,326.536,1371.035Zm648.5-98.541c-2.15-24.78-7.47-52.21-20.86-93.85-22.6-70.34-62.19-129.12-63.02-130.34.29.56,5.44,10.63,12.79,27.4,38.13,87,135.29,354.29-82.7,407.92-81.66,20.1-133.09-72.96-184.63-183.22q5.52,16.53,10.78,34.39c7.42,25.16,14.38,52.31,20.64,81.52a626.87,626.87,0,0,1,6.97,70.44c.82,20.16.59,42.11-2.03,62.17-.8,6.14-1.82,12.09-3.11,17.77,0,0,.61.17,1.81.43,7.73,1.72,40.15,7.53,94.28-1.2,62.54-10.08,111.38-35.86,129.29-50.51s42.33-46.14,54.27-71.91,27.31-72.51,27.09-118.31C976.516,1306.224,976.566,1290.014,975.036,1272.494Zm-371.93-57.94a.81.81,0,0,0-.06-.13c0-.02-.01-.03-.01-.04a.031.031,0,0,1-.01-.02c-43.82-96.61-86.44-139.79-87.45-140.81,42.53,54.69,76.33,129.93,109.16,201.2q2.82,6.135,5.64,12.23,3.12,6.75,6.24,13.42a891.644,891.644,0,0,0-33.44-85.7A1.009,1.009,0,0,1,603.106,1214.554Zm999.6-754.36c-17.41-51.1-44.54-73.35-68.32-82.72,0,0,.77,2.57,1.64,7.25,8.79,47.38,27.39,310.86-648.38,301.97,0,0-297.94-1.63-477.03-94.42,1.75,1.23,225.89,159.04,324.6,268.01l48.42,50.49s431.05-80.43,504.25-96,166.5-26.22,259.64-121.92c53.51-54.99,69.49-106.73,70.1-150.5C1618.086,509.954,1610.116,481.924,1602.706,460.194Z" opacity=".3" style="mix-blend-mode:multiply" class="colorff7731 svgShape"/><path fill="none" stroke="none" stroke-linecap="round" stroke-linejoin="round" stroke-width="18" d="M9,608.125s132.823-33.155,178.958-40.6S1170.187,400.847,1335.38,380.756s241.093-22.323,276.81,117.2-104.92,275.694-256.719,309.179S781.76,918.75,781.76,918.75m-111.9,654.58c53.576,13.394,160.948-5,221.283-49.616,84.52-62.506,140.637-247.79,0-468.792s-442-426.376-442-426.376M222.187,1732.81c133.94,90.781,297.645,63.993,386.939-23.812,74.955-73.705,103.871-267.881-11.906-500.044-116.9-234.423-384.954-413.727-384.954-413.727M19.581,1769.518c97.483,15.26,193.525-16.255,254.673-76.384,74.955-73.7,116.847-274.444-30.488-493.109-51.085-75.819-121.166-146.3-190.761-205.933"/><path fill="#ffb58a" d="M4404.866,604.1v1165.97c-120.84,14.84-197.62-37.44-197.62-37.44-108.99,72.38-216.56,54.421-216.56,54.421-198.82-24.691-226.63-172.551-230.4-206.171-.49-4.36-.57-6.8-.57-6.8-.26.07-.53.15-.79.211-41.76,11.51-105.07-2.3-105.07-2.3-93.07-22.34-159.29-56.63-189.72-165.73-12.55-44.979-14.98-89.81-9.74-133.77,7.45-62.67,30.47-123.57,61.89-180.59q4.545-8.265,9.2-16.2a832.813,832.813,0,0,1,114.41-151.97c6.15-6.85,4.24-5.81-.7-6.73s-408.91-77.95-509.71-98.25-126.61-30.35-185.81-67.74-136.18-114.84-132.01-205.95c.04-.91.09-1.81.14-2.71,4.72-88.22,40.73-137.87,81.6-157.63.54-.27,1.09-.53,1.64-.78,41.95-19.41,114.37-12.01,145.23-9.42s177.34,23.94,224.05,31.22,223.71,35.98,288.16,46.54,334.55,55.55,386.56,64.26,282.17,47.44,328.95,55.83,124.33,28.66,124.33,28.66Z" class="colorffc0c7 svgShape"/><path fill="#ff6103" d="M4298.866,1681.474c-349.1-83.79-120.02-477.39-117.97-480.9-.86,1.17-42.32,57.82-74.15,156.91-.05.17-.11.33-.16.5q-1.2,3.75-2.3,7.52c-2.8,9.551-5.14,19.14-7.09,28.64-1.22,5.87-2.27,11.7-3.2,17.48-8.36,52.1-5.97,99.37-4.37,121.36,3.32,45.68,25.29,95.36,41.99,124.4.22.38.45.77.68,1.151,0,.01,0,.01.01.01,4.02,6.639,10.21,14.029,17.5,21.5a2.272,2.272,0,0,1,.16.169,341.865,341.865,0,0,0,53.3,43.51c.13.081.26.17.38.24,1.24.8,2.43,1.54,3.57,2.23q2.565,1.56,4.77,2.75c25.74,13.89,82.01,37.75,153.65,37.75a288.91,288.91,0,0,0,39.23-2.69v-170.75C4393.806,1657.7,4369.276,1698.374,4298.866,1681.474Zm-95.22,42.49c-.12-.07-.25-.159-.38-.24a259.057,259.057,0,0,1-53.3-43.51,2.272,2.272,0,0,0-.16-.169,214.079,214.079,0,0,1-17.5-21.5c-.01,0-.01,0-.01-.01-17.24-24.291-21.93-42.331-21.93-42.331-26.81-62.06-28.25-127.99-19.9-185.59-28.4,159.81-28.59,330.64-153.05,283.431-214.06-81.2-168.01-324.981-132.72-439.291,3.01-9.72,5.93-18.52,8.62-26.19-4.18,11.07-9.07,24.2-14.26,38.42-5.51,15.09-11.36,31.41-17.02,47.81-4.48,12.95-8.85,25.95-12.86,38.43-13.57,42.22-15.43,80.12-14.75,113.53.47,22.84,2.12,43.58,2.03,62.17a126.79,126.79,0,0,0,1.3,18.2q.495,3.585,1.17,7.171.615,3.3,1.36,6.589c8.21,36.45,27.51,72.421,36.73,92.32,11.94,25.78,60,60.581,80.37,71.57,25.74,13.89,82.01,37.75,153.65,37.75,102.18,0,174.5-55.04,176.18-56.33a.124.124,0,0,0,.03-.02C4206.036,1725.444,4204.836,1724.7,4203.646,1723.964Zm-61.64-455.81c-16.61,28.11-28.53,61.55-37.72,97.35-.47,1.84-.94,3.68-1.39,5.531,1.2-4.451,2.44-8.811,3.69-13.051C4122.166,1305.464,4141.016,1269.994,4142.006,1268.154Zm-39.11,102.881c-2.01,7.429-3.93,15.149-5.7,23.109-2.59,11.63-4.88,23.77-6.7,36.32q1.68-9.45,3.5-18.84C4096.676,1397.894,4099.606,1384.314,4102.9,1371.035ZM3826.256,1214.7c-.93,2.15-6.11,14.32-12.85,33.62,7.22-19.15,12.26-32.08,12.92-33.77A1.009,1.009,0,0,1,3826.256,1214.7Zm.15-.34a.031.031,0,0,1-.01.02c0,.01-.01.02-.01.04-.02.03-.03.08-.06.13a1.009,1.009,0,0,1-.07.15,891.644,891.644,0,0,0-33.44,85.7q3.12-6.675,6.24-13.42,2.82-6.09,5.64-12.23c32.83-71.27,66.63-146.51,109.16-201.2C3912.846,1074.574,3870.226,1117.754,3826.406,1214.364Zm-218.22,269.26c-217.99-53.63-120.83-320.92-82.7-407.92,7.35-16.77,12.5-26.84,12.79-27.4-.83,1.22-40.42,60-63.02,130.34-13.39,41.64-18.71,69.07-20.86,93.85-1.53,17.52-1.48,33.73-1.57,52.7-.22,45.8,15.15,92.53,27.09,118.31s36.36,57.25,54.27,71.91,66.75,40.43,129.29,50.51c54.13,8.73,86.55,2.92,94.28,1.2,1.2-.26,1.81-.43,1.81-.43-1.29-5.68-2.31-11.63-3.11-17.77-2.62-20.06-2.85-42.01-2.03-62.17a626.87,626.87,0,0,1,6.97-70.44c6.26-29.21,13.22-56.36,20.64-81.52q5.25-17.865,10.78-34.39C3741.276,1410.664,3689.846,1503.724,3608.186,1483.624Zm-66.4-796.93c-675.77,8.89-657.17-254.59-648.38-301.97.87-4.68,1.64-7.25,1.64-7.25-23.78,9.37-50.91,31.62-68.32,82.72-7.41,21.73-15.38,49.76-14.92,82.16.61,43.77,16.59,95.51,70.1,150.5,93.14,95.7,186.44,106.35,259.64,121.92s504.25,96,504.25,96l48.43-50.49c98.7-108.97,322.84-266.78,324.59-268.01C3839.726,685.064,3541.786,686.694,3541.786,686.694Z" opacity=".3" style="mix-blend-mode:multiply" class="colorff7731 svgShape"/><path fill="none" stroke="none" stroke-linecap="round" stroke-linejoin="round" stroke-width="18" d="M3647.672,918.75s-421.912-78.132-573.711-111.617-292.437-169.658-256.719-309.179,111.617-137.289,276.81-117.2S4195.339,560.087,4241.474,567.528s178.958,40.6,178.958,40.6m-440.141,20.421s-301.366,205.375-442,426.376-84.521,406.286,0,468.792c60.334,44.619,167.706,63.01,221.282,49.616m457.6-778.1s-268.051,179.3-384.955,413.727c-115.777,232.163-86.86,426.339-11.906,500.044,89.294,87.805,253,114.593,386.939,23.812m169.182-738.718c-69.595,59.634-139.675,130.114-190.761,205.933-147.334,218.665-105.442,419.4-30.488,493.109,61.148,60.129,157.191,91.644,254.674,76.384"/><path fill="#ff6103" d="M2593.228,581.477c0,158.31-97.2,293.92-235.158,350.421a375.236,375.236,0,0,1-70.479,21.082,379.449,379.449,0,0,1-295.607-65.419.01.01,0,0,0-.01-.01c-.02-.02-.05-.03-.07-.05-.466-.337-.922-.675-1.379-1.012a.948.948,0,0,0-.109-.089C1896.881,817.488,1836.2,706.571,1836.2,581.477c0-209.046,169.461-378.508,378.507-378.508a379.684,379.684,0,0,1,80.093,8.493h.02A379.337,379.337,0,0,1,2547.81,401.549l.01.01A376.9,376.9,0,0,1,2593.228,581.477Z" opacity=".2" style="mix-blend-mode:multiply" class="colorff7731 svgShape"/><path fill="#ffbf66" d="M2596.243,529.246c0,159.57-97.971,296.26-237.031,353.21a378.2,378.2,0,0,1-71.039,21.25,382.469,382.469,0,0,1-297.961-65.94.01.01,0,0,0-.01-.01c-.02-.02-.049-.03-.07-.05-.47-.34-.93-.68-1.389-1.02a1.2,1.2,0,0,0-.111-.09c-94.28-69.46-155.439-181.26-155.439-307.35,0-210.71,170.809-381.52,381.519-381.52a382.7,382.7,0,0,1,80.73,8.56h.02a382.36,382.36,0,0,1,255,191.6l.01.01A379.889,379.889,0,0,1,2596.243,529.246Z" class="color1f1f1f svgShape"/><path fill="#fcf9f7" d="M2178.258,444.9c0,68.168-35.826,102-77.621,102-40.3,0-75.134-32.342-75.632-97.524,0-64.685,35.328-101.008,78.119-101.008C2148.4,348.368,2178.258,383.2,2178.258,444.9Zm-118.423,2.985c-.995,41.3,14.43,72.646,41.8,72.646,28.859,0,41.8-30.85,41.8-73.641,0-39.308-11.444-72.148-41.8-72.148C2074.265,374.74,2059.835,407.082,2059.835,447.883Zm37.816,234.855,190.073-334.37h27.864l-190.073,334.37Zm291.081-103.993c0,68.168-35.825,102-77.124,102-40.3,0-75.134-32.343-75.632-97.027,0-65.182,35.328-101.5,78.119-101.5C2359.375,482.216,2388.732,517.046,2388.732,578.745Zm-118.423,2.986c-.5,41.3,15.425,72.646,42.294,72.646,28.859,0,41.8-30.85,41.8-73.642,0-39.308-11.444-72.148-41.8-72.148C2285.236,508.587,2270.309,540.929,2270.309,581.731Z" class="colorfcf9f7 svgShape"/><path fill="#fcf9f7" d="M2087.546,447.634c-91.55,167.542-174.1,492.519,200.627,456.072a382.469,382.469,0,0,1-297.961-65.94.01.01,0,0,0-.01-.01c-.02-.02-.049-.03-.07-.05-.47-.34-.93-.68-1.389-1.02a1.2,1.2,0,0,0-.111-.09c-29.319-23.26-192.84-228.86-88.939-459.12,105.37-233.54,392.71-221.33,395.749-221.19h.02c104.56,22.134,166.5,82.39,166.5,82.39C2354.4,173.928,2191.877,256.7,2087.546,447.634Z" opacity=".54" style="mix-blend-mode:screen" class="colorfcf9f7 svgShape"/><path fill="#ff6103" d="M1899.693,377.476c-103.9,230.26,59.62,435.86,88.939,459.12-94.28-69.46-155.439-181.26-155.439-307.35,0-210.71,170.809-381.52,381.519-381.52a382.7,382.7,0,0,1,80.73,8.56C2292.4,156.146,2005.063,143.936,1899.693,377.476Zm650.779-29.58c1.031,2.37,143.24,330.85-191.26,534.56,139.06-56.95,237.031-193.64,237.031-353.21A379.889,379.889,0,0,0,2550.472,347.9Z" opacity=".37" style="mix-blend-mode:multiply" class="colorff7731 svgShape"/><circle cx="2214.716" cy="529.248" r="381.523" fill="none" stroke="none" stroke-linecap="round" stroke-linejoin="round" stroke-width="18"/><path fill="#ff6103" d="M2619.231,547.722l37.114,56.319L2607.4,563.974l-9.27,233.988-9.326-235.4-50.671,41.484,37.035-56.2-125.246-5.583,127.793-12.164-28.154-42.834,38.862,27.4,6.493-218.824,12.291,218.009,37.707-26.588-27.981,42.569,125.624,11.21Zm98.382,461.614c27.623,7.321,32.9,47.343,32.9,47.343s5.275-40.022,32.9-47.343c-27.623-7.321-32.9-47.343-32.9-47.343S2745.236,1002.015,2717.613,1009.336Zm9.264-806.367c19.845,5.26,23.635,34.012,23.635,34.012s3.79-28.752,23.635-34.012c-19.845-5.259-23.635-34.012-23.635-34.012S2746.722,197.71,2726.877,202.969Zm-122.1,715.781c11.491,3.045,13.686,19.694,13.686,19.694s2.194-16.649,13.685-19.694c-11.491-3.046-13.685-19.7-13.685-19.7S2616.265,915.7,2604.774,918.75ZM1566.449,58.509c28.042,7.432,33.4,48.062,33.4,48.062s5.355-40.63,33.4-48.062c-28.043-7.432-33.4-48.062-33.4-48.062S1594.491,51.077,1566.449,58.509Zm458.556-22.57c10.485,2.778,12.487,17.969,12.487,17.969s2-15.191,12.487-17.969c-10.485-2.779-12.487-17.97-12.487-17.97S2035.49,33.16,2025.005,35.939ZM1743.12,168.155c7.01,1.858,8.349,12.015,8.349,12.015s1.339-10.157,8.349-12.015c-7.01-1.858-8.349-12.015-8.349-12.015S1750.13,166.3,1743.12,168.155ZM2437.438,17.969c10.484,2.779,12.487,17.97,12.487,17.97s2-15.191,12.486-17.97C2451.927,15.191,2449.925,0,2449.925,0S2447.922,15.191,2437.438,17.969ZM1705.326,938.444c31.733,8.411,37.794,54.388,37.794,54.388s6.06-45.977,37.793-54.388c-31.733-8.41-37.793-54.388-37.793-54.388S1737.059,930.034,1705.326,938.444Z" class="colorff7731 svgShape"/><path fill="#ffbf66" d="M3704.094,1378.125a68.52,68.52,0,0,0-43.887-28.774c-100.193-18.991-202.114-36.336-302.931-51.554a68.2,68.2,0,0,0-24.795.813,68.481,68.481,0,0,0-23.5-7.889c-31.719-4.507-63.9-8.914-95.654-13.1a68.518,68.518,0,0,0-76.89,59.064l-1.524,11.669q-14.628-27.391-29.406-54.586a68.518,68.518,0,0,0-52.84-35.409c-31.8-3.437-64.081-6.76-95.943-9.876q-3.339-.327-6.67-.326a68.519,68.519,0,0,0-27.97,5.981,68.5,68.5,0,0,0-33-11.891c-31.883-2.761-64.211-5.394-96.085-7.827q-2.613-.2-5.217-.2a68.52,68.52,0,0,0-68.324,63.384l-2.526,33.61,1.921-33.65a68.52,68.52,0,0,0-64.583-72.317c-31.937-1.785-64.313-3.43-96.231-4.889q-1.566-.072-3.13-.071a68.5,68.5,0,0,0-67.851,59.045,253.84,253.84,0,0,0-49.753-36.465c-39.791-22.305-86.012-34.385-133.664-34.934-1.159-.013-2.31-.02-3.467-.02h0c-46.4,0-91.686,11.021-130.967,31.868a255.409,255.409,0,0,0-82.955,70.1,240.088,240.088,0,0,0-55.12-51.493c-40.692-27.472-92.636-42.6-146.261-42.6h0c-5.583,0-11.232.165-16.789.492-50.1,2.943-94.641,16.157-132.381,39.274a243.292,243.292,0,0,0-66.171,59.552,168.8,168.8,0,0,0-46.25-42.217c-33.693-20.8-73.732-31.341-119-31.341-9.82,0-20.023.505-30.325,1.5-56.4,5.45-102.907,24.41-138.268,56.341a68.511,68.511,0,0,0-64.612-28.739c-31.774,3.953-63.979,8.127-95.722,12.406a68.5,68.5,0,0,0-59.068,74.184,245.762,245.762,0,0,0-57.15-26.663c-26.255-8.374-53.636-12.444-83.707-12.444h0a409.537,409.537,0,0,0-57.741,4.43q-1,.143-1.993.313c-48.65,8.365-97.926,17.273-146.458,26.475a68.519,68.519,0,0,0-54.541,80.159l18.926,99.211,50.712,265.844a68.449,68.449,0,0,0,80.063,54.483c45.417-8.607,91.546-16.945,137.105-24.785q.893-.153,1.781-.331c32.557-6.493,80.993-18.915,125.538-51.685a247.4,247.4,0,0,0,39.376-36.127,68.425,68.425,0,0,0,75.541,50.995c29.762-4.011,59.947-7.923,89.715-11.627a68.5,68.5,0,0,0,55.775-44.157,189.457,189.457,0,0,0,43.847,18.276,270.126,270.126,0,0,0,70.879,9.29c9.338,0,18.842-.465,28.249-1.383,39.089-3.811,73.032-14.533,100.885-31.869,19.635-12.221,46.062-33.054,64.385-64.349a247.983,247.983,0,0,0,63.287,44.105,266.875,266.875,0,0,0,116.005,26.316c5.5,0,11.06-.171,16.524-.509,59.343-3.665,110.024-21.567,150.631-53.208a239.216,239.216,0,0,0,48.068-50.36,259.539,259.539,0,0,0,76.887,64.623c38.627,21.269,83.17,32.789,128.815,33.316,1.106.013,2.2.019,3.3.019,44.53,0,88.151-10.529,126.145-30.448a257.829,257.829,0,0,0,77-61.83c18.429,32.815,46.578,60.844,78.12,77.562a260.122,260.122,0,0,0,105.522,29.771c5.751.377,11.578.568,17.32.568a271.215,271.215,0,0,0,91.432-16.135,190.984,190.984,0,0,0,50.184-27.371,68.54,68.54,0,0,0,60.948,57.074c29.86,2.92,60.114,6.035,89.922,9.257a69.4,69.4,0,0,0,7.448.4,68.528,68.528,0,0,0,68.03-61.082l.252-2.3q10.853,21.677,21.531,43.32a68.521,68.521,0,0,0,52.5,37.617c29.778,3.922,59.941,8.052,89.652,12.275a68.456,68.456,0,0,0,77.468-58.118l8,1.229a68.518,68.518,0,0,0,56.47,78.676c29.647,4.89,59.7,10,89.315,15.2a68.448,68.448,0,0,0,79.315-55.57l26.014-147.275,14.037-79.467q16.789,3.117,33.487,6.284a68.446,68.446,0,0,0,80.071-54.481l1.877-9.837,11.714-61.407A68.519,68.519,0,0,0,3704.094,1378.125Z" class="color1f1f1f svgShape"/><path fill="#fcf9f7" d="M1038.3,1395.857c31.364,10,59.634,28.373,80.513,53.938,22.121,27.085,33.325,59.014,38.72,92.549,5.281,32.82,1.978,67.945-10.584,99.424a173.858,173.858,0,0,1-58.749,75.287c-29.421,21.644-62.885,32.612-98.336,39.682q-69.23,11.913-138.242,24.991-34.818-182.529-69.638-365.056,72.543-13.755,145.305-26.267C964.787,1385.089,1001.8,1384.214,1038.3,1395.857Zm8.457,243.607c17.94-23.717,21.079-54.5,16.626-83.028-4.5-28.8-17.127-57.267-41.841-74.313-25.413-17.527-57.625-19.735-87.262-14.5q-22.176,3.83-44.335,7.745l37.806,212.661q21.522-3.834,43.069-7.525C999.781,1675.685,1028.616,1663.45,1046.759,1639.464Zm232.763-300.818,45.456,368.848q-45.237,5.628-90.409,11.717-25.038-184.123-50.075-368.249Q1231.978,1344.561,1279.522,1338.646Zm171.521,344.845a126.439,126.439,0,0,1-56.1-33.29c-15.591-15.883-24.317-37.989-27.688-59.715q48.909-5.6,97.876-10.645,4.239,20.321,17.663,29.875,13.4,9.558,33.19,7.658,20.334-1.943,31.277-12.225t9.505-26.639q-1.227-13.705-11.474-21.822a75.68,75.68,0,0,0-24.588-12.614c-13.211-4.132-26.96-6.751-40.493-9.381-20.97-4.076-42.226-8.931-62.448-15.893-16.564-5.7-31.567-15.933-43.832-28.186-14.084-14.072-21-34.892-23.377-54.345-3.911-32.014,6.177-63.151,30.079-85.167,27.72-25.532,64.359-36.417,99.9-39.852,35.826-3.462,74.366-.042,106.75,19.946,27.907,17.225,44.517,45.9,48.545,78.178q-50.9,3.975-101.753,8.529-2.731-17.819-16.352-26.945-13.645-9.107-33.544-7.194-17.129,1.659-26.741,11.417t-7.928,26.077c1.217,11.941,8.071,20.784,20.371,26.147,17.848,7.784,37.866,12.246,56.78,16.361,20.85,4.536,42.173,10.216,62.349,17.89a113.351,113.351,0,0,1,42.6,28.936c14.04,15.147,19.56,34.425,20.981,53.065a110.276,110.276,0,0,1-11.917,58.8c-9.616,18.653-26.1,33.995-43.807,45.016-21.547,13.411-47.242,19.5-71.327,21.845A207.551,207.551,0,0,1,1451.043,1683.491Zm255.067-298.035a173.624,173.624,0,0,1,65.373-71.473c30.96-18.963,65.392-27.233,100.611-29.3,41.137-2.417,85.562,6.779,120.694,30.5,32.8,22.141,57.455,55.3,68.212,93.629q-51.7,1.114-103.37,2.825a81.738,81.738,0,0,0-34.076-34.253c-15-7.813-32.115-10.889-48.868-10.146-25.871,1.146-52.7,12.2-69.2,32.589-18.463,22.819-24.059,51.934-22.481,79.208,1.574,27.2,10.423,55.409,30.93,76.206,18.021,18.276,44.984,26.815,70.361,25.658,16.334-.746,32.662-5.246,46.561-14.131a82.774,82.774,0,0,0,30.826-36.616q50.865-1.683,101.741-2.78a172.627,172.627,0,0,1-61.634,96.584c-32.9,25.638-72.3,36.37-112.744,38.869-33.219,2.052-67.869-4.238-98.364-19.051a179.083,179.083,0,0,1-71.374-62.616c-19.231-29.266-28.737-62.583-31.1-96.023C1685.834,1451.542,1690.623,1417.083,1706.11,1385.456Zm495.8,246.786a191.407,191.407,0,0,1-70.664-67.566c-18.511-30.188-27.077-64.027-27.578-97.849s7.063-67.888,25.355-98.279a186.274,186.274,0,0,1,72.3-68.239c31.913-16.938,66.894-24.255,101.524-23.856s69.435,8.523,100.951,26.189a182.411,182.411,0,0,1,70.169,69.867c17.253,30.882,23.827,65.093,22.549,98.815-1.28,33.775-10.508,67.4-29.545,97.2a189.887,189.887,0,0,1-71.669,65.94c-29.784,15.615-63.3,22.987-96.84,22.6C2264.841,1656.677,2231.433,1648.5,2201.908,1632.242Zm170.469-86.207c20.4-20.838,28.545-50.673,29.225-77.694.683-27.115-5.89-57.693-25.873-79.238-18.534-19.982-46.886-30.552-73.824-30.6-26.676-.046-56.28,8.533-75.059,28.626-20.418,21.846-27.746,51.146-27.685,78.886.061,27.613,7.588,56.581,27.431,78.61,18.04,20.026,46.617,29.3,72.824,29.86C2325.865,1575.051,2353.693,1565.123,2372.377,1546.035Zm278.066-252.37q-6.336,110.993-12.671,221.987c.183,18.934,1.308,37.077,13.767,52.24,11.523,14.024,30.294,19.882,47.809,21.031,17.691,1.161,37.124-2.252,50.7-14.522,14.685-13.269,18.335-31.074,21.068-49.933q8.332-110.862,16.664-221.723,47.716,3.642,95.389,7.77-9.7,110.484-19.393,220.969c-3.653,29.115-10.781,58.323-28.772,82-15.559,20.48-37.379,38.44-61.546,47.075a200.18,200.18,0,0,1-81.217,11.718,191.828,191.828,0,0,1-77.916-21.939c-21.972-11.646-41.074-32.107-52.66-54.64-13.69-26.624-16.9-55.641-16.627-85.292l9.87-221.6Q2602.69,1291,2650.443,1293.665Zm596.178,432.774q-45.143-6.416-90.345-12.369-61.2-124.053-126.444-246.018-12.45,113.936-24.9,227.873-45.287-4.9-90.617-9.329l35.742-369.915q47.649,4.659,95.246,9.805,66.652,122.662,129.27,247.423,14.9-114.176,29.807-228.352,47.516,6.259,94.961,13Zm400.825-309.767-13.59,71.244q-50.823-9.638-101.75-18.691l-52.029,294.55q-44.966-7.889-90.006-15.317,24.163-147.59,48.328-295.179-51-8.293-102.091-16,5.372-35.865,10.741-71.729Q3497.732,1388.294,3647.446,1416.672Z" class="colorfcf9f7 svgShape"/></g></g></svg>