<svg xmlns="http://www.w3.org/2000/svg" data-name="2" viewBox="0 0 4680 3120"><path fill="#f5f4f3" d="M3673.87 2605.28a96.526 96.526 0 0 0-26.48-9.526c-140.931-30.207-284.126-11.74-426.198-14.16-162.845-2.775-325.774-1.408-488.525-9.85-543.132-28.17-1090.204-87.1-1631.588 3.666-25.413 4.26-54.643 7.504-77.792 22.223-94.903 60.414 146.5 75.514 168.323 76.492l1623.142 72.748c186.222 8.346 372.818 20.453 559.094 7.329 81.142-5.717 173.328-6.763 251.4-37.082 37.95-14.738 119.716-72.61 48.624-111.84Z" class="colorf3f5f4 svgShape"/><path fill="#cebfb6" d="m2248.553 564.798 5.484-7.783c-19.961-14.063-36.975-32.604-53.429-50.535-7.06-7.695-14.363-15.651-21.843-23.204-39.405-39.787-84.673-70.447-134.548-91.127-46.49-19.276-97.178-29.993-150.656-31.852-98.291-3.419-203.606 22.767-304.519 75.725l4.425 8.431c169.687-89.053 410.78-123.86 578.533 45.523 7.353 7.424 14.592 15.313 21.592 22.942 16.795 18.302 34.162 37.227 54.961 51.88ZM724.154 1517.115c110.255-222.657 297.488-421.885 527.21-560.983l2.787-1.684c16.562-10.003 33.69-20.346 45.996-35.952 21.256-26.96 20.878-57.801 20.511-87.628l-.002-.208c-.141-11.435-.287-23.26.803-34.629 3.885-40.523 18.439-86.974 42.088-134.332l-8.518-4.253c-24.167 48.393-39.052 96.001-43.048 137.677-1.139 11.88-.99 23.966-.845 35.654l.001.209c.363 29.467.705 57.3-18.466 81.614-11.235 14.246-27.608 24.135-43.442 33.698l-2.796 1.69a1474.646 1474.646 0 0 0-304.042 244.456c-94.134 98.857-170.43 206.67-226.769 320.446ZM3459.608 2500.23a846.375 846.375 0 0 0 109.464-8.18c81.329-11.658 151.102-38.286 213.308-81.407a625.087 625.087 0 0 0 68.338-54.611c62.007-57.39 108.751-123.943 138.935-197.81 27.892-68.26 42.052-143.7 42.085-224.22.061-147.875-47.776-314.866-138.34-482.923a1575.687 1575.687 0 0 0-140.368-215.474c-50.455-65.254-103.96-124.227-159.027-175.28C3471.54 946.792 3327.28 851.198 3165.229 776.2c-113.553-52.554-242.257-112.119-377.043-133.639-87.635-13.992-180.822-16.69-252.216-17.478l-.105 9.52c71.067.785 163.8 3.466 250.82 17.36 133.485 21.312 261.552 80.584 374.545 132.878 161.143 74.578 304.57 169.613 426.3 282.466 209.45 194.18 434.819 548.223 434.687 866.69-.07 166.171-59.946 305.814-177.966 415.047a615.66 615.66 0 0 1-67.295 53.774c-60.962 42.26-129.404 68.364-209.235 79.807-46.306 6.64-95.383 9.194-150.039 7.808-110.99-2.804-226.148-21.722-337.515-40.019-74.11-12.175-144.109-23.675-213.309-30.875-440.132-45.783-801.906-63.952-1138.523-57.168-1.21.016-2.446.042-3.685.067l-1.883.039c-84.74 1.775-169.062 5.228-250.631 10.264-62.026 3.829-125.887 13.983-187.646 23.803-125.285 19.92-254.835 40.517-379.212 10.607-123.499-29.701-202.61-113.71-235.135-249.694-29.78-124.508-14.393-270.55 3.758-371.14a1041.383 1041.383 0 0 1 15.514-71.443l-9.228-2.347a1052.21 1052.21 0 0 0-15.657 72.099c-11.77 65.23-18.62 127.497-20.358 185.071-2.136 70.765 3.487 134.681 16.712 189.975 33.425 139.751 114.902 226.13 242.167 256.736 49.353 11.869 99.377 15.924 149.525 15.263 78.112-1.03 156.547-13.503 233.409-25.725 61.537-9.784 125.168-19.901 186.737-23.702 81.443-5.028 165.633-8.476 250.234-10.248l1.892-.039a523.48 523.48 0 0 1 3.647-.067c336.239-6.765 697.646 11.378 1137.378 57.119 68.92 7.17 138.784 18.649 212.75 30.8 111.685 18.349 227.173 37.322 338.818 40.143q21.627.548 42.167.278Z" class="colorb6cec4 svgShape"/><path fill="#f5f4f3" d="M3865.428 2088.336c-33.31 78.9-88.66 151.42-171.67 213.06-60.95 45.26-127.43 70.28-196.84 82.55-46.24 8.18-93.79 11.7-142.08 12.05-172.94 1.27-355.54-38.09-522.22-49.95-358.12-25.5-717.08-37.83-1075.36-18.93-1.75.08-3.5.18-5.26.27q-118.035 6.345-235.95 17.38c-176.13 16.65-357.16 86.53-535.09 49.83-278.16-57.38-273.86-359.7-240.93-583.69q5.055-34.32 12.5-68.18c31.22-142.37 93.71-277.39 183.41-392.57q43.68-56.1 92.57-107.5c116.33-122.74 252.85-225.98 398.32-312.02 515.1-304.64 1253.21-370.56 1795.37-77.97v.01q22.455 12.09 44.44 25.05c93.15 54.8 179.91 120.74 258.02 198.46q40.92 40.71 78.56 85.75a1516.76 1516.76 0 0 1 150.72 217.3c60.82 106.49 110.28 223.75 135 341.16 26.74 126.97 24.54 254.1-23.51 367.94Z" class="colorf3f5f4 svgShape"/><path fill="#c4967a" d="M3503.16 1175.34h-.01a3.491 3.491 0 0 1-.16.331c-.301.584-.603 1.169-.914 1.743-.264.506-.538 1.013-.812 1.52a81.513 81.513 0 0 1-.859 1.577c-.245.448-.49.896-.746 1.344-.359.653-.727 1.296-1.096 1.939-.53.906-1.059 1.812-1.598 2.7-.038.067-.076.136-.114.194-.501.838-1.012 1.667-1.524 2.486-.549.887-1.108 1.765-1.667 2.632-.492.761-.995 1.512-1.488 2.263-.645.956-1.29 1.903-1.944 2.84-33.091 47.332 9.799 174.59-81.818 194.152-.01.01-.01.01-.02.01a112.099 112.099 0 0 1-13.674 2.008 173.996 173.996 0 0 1-34.616-.79 145.29 145.29 0 0 1-16.827 6.391c-27.538 8.728-81.165 18.07-100.812-32.394-26.933-69.155-17.452-56.343-80.259-113.17q-3.48-3.16-6.65-6.487a93.351 93.351 0 0 1-1.904-2.054 119.207 119.207 0 0 1-6.986-8.426 122.83 122.83 0 0 1-7.396-10.964q-.742-1.238-1.455-2.504a69.017 69.017 0 0 1-1.446-2.621 83.504 83.504 0 0 1-1.091-2.055c-.625-1.22-1.231-2.45-1.818-3.679a134.19 134.19 0 0 1-1.454-3.181 132.094 132.094 0 0 1-3.87-9.763 171.764 171.764 0 0 1-1.48-4.457c-.102-.328-.212-.655-.314-.992q-.954-3.091-1.745-6.223a.03.03 0 0 1-.01-.02 165.295 165.295 0 0 1-4.708-49.704 2.192 2.192 0 0 0 .017-.252 191.082 191.082 0 0 1 14.002-62.144q.52-1.269 1.068-2.538 1.393-3.224 2.885-6.352c.47-.973.94-1.946 1.431-2.91.527-1.06 1.065-2.102 1.622-3.135q.82-1.548 1.67-3.068a90.446 90.446 0 0 1 1.72-3.01c.294-.487.587-.984.88-1.472.597-.974 1.193-1.95 1.8-2.895.302-.478.605-.956.918-1.424q2.289-3.54 4.754-6.821c.266-.362.532-.723.808-1.075.162-.224.333-.449.504-.664.228-.283.447-.567.665-.85a76.132 76.132 0 0 0 7.26-11.06.01.01 0 0 1 .01-.01c.444-.828.878-1.665 1.282-2.502.415-.847.81-1.693 1.195-2.54.375-.836.732-1.682 1.078-2.537a.01.01 0 0 1 .01-.01c.29-.73.58-1.458.85-2.197.355-.98.7-1.962 1.025-2.943a66.78 66.78 0 0 0 .807-2.602 91.05 91.05 0 0 0 1.371-5.249q.302-1.324.575-2.647c.254-1.241.48-2.492.685-3.751.027-.155.044-.3.072-.446.277-1.657.507-3.333.716-5.018.06-.561.121-1.123.19-1.685.087-.794.173-1.598.24-2.41l.025-.29q.241-2.6.405-5.228c.022-.493.054-.987.086-1.49.056-.89.093-1.79.13-2.68a282.74 282.74 0 0 0 .235-7.052c.017-.948.043-1.896.059-2.853.034-1.847.057-3.704.081-5.57.007-.967.023-1.935.039-2.902.02-1.392.03-2.794.06-4.197.482-32.407 2.718-66.588 37.673-100.156.43-.412.86-.814 1.3-1.217q1.977-1.78 4.121-3.419a70.284 70.284 0 0 1 2.932-2.098 66.21 66.21 0 0 1 3.068-1.946q22.452 12.105 44.44 25.056c93.151 54.802 179.913 120.74 258.021 198.463 2.752 33.39-6.257 69.43-21.5 99.15Z" class="colora8c47a svgShape"/><path fill="#a0825c" d="M3192.602 1168.892s74.7 15.15 89.45-64.294c0 0 64.404 10.833 99.817-54.48 0 0 32.716 65.544 114.946 35.248 0 0-21.113 116.88-206.952 129.985-57.762 4.073-97.26-46.459-97.26-46.459Z" class="color84a05c svgShape"/><path fill="#a0825c" d="M3503.16 1175.34a184.584 184.584 0 0 1-12.935 21.566c-37.836 54.12 23.662 212.717-130.13 195.386 0 0-90.71 43.148-117.638-26.006-26.928-69.155-17.449-56.348-80.259-113.171-33.93-30.696-45.224-74.982-42.05-117.348 8.941 23.258 21.4 47.58 38.502 67.028 47.948 54.54 109.611-7.215 184.557 73.168 70.412 75.508 80.407-99.277 159.953-100.623Z" class="color84a05c svgShape"/><path fill="#b78d74" d="M3317.676 1609.668c32.126-156.096 30.132-299.9 21.133-400.749a1376.803 1376.803 0 0 0-4.505-42.865q-1.908-15.853-3.907-29.53a1118.303 1118.303 0 0 0-5.816-36.428 97.084 97.084 0 0 0 17.292-7.724c11.512 33.122 21.744 69.814 30.786 107.876q1.54 6.47 3.023 12.993c4.444 19.41 8.59 39.11 12.454 58.818 32.21 164.57 44.479 329.503 44.479 329.503Z" class="colorb78f74 svgShape"/><path fill="#b78d74" d="M3375.682 1213.24c6.502-6.644 15.51-14.238 27.955-22.6a108.078 108.078 0 0 0 9.907-7.523h.012c.012-.002.011-.014.023-.015 29.624-25.169 45.313-64.13 52.995-90.36l.012-.001a111.435 111.435 0 0 0 12.157-2.022 222.627 222.627 0 0 1-15.058 53.997 219.987 219.987 0 0 1-41.994 65.341c-16.275 17.282-26.898 41.405-33.556 61.99-.011.013.001.012.001.012a266.687 266.687 0 0 0-9.91 41.175ZM3338.62 1167.305c-1.388-.38-2.825-.793-4.316-1.251a166.872 166.872 0 0 1-48.731-23.956 160.087 160.087 0 0 1-12.562-9.98 88.48 88.48 0 0 0 5.107-12.182 101.02 101.02 0 0 0 3.081 1.657 142.086 142.086 0 0 0 49.198 14.93c1.803.216 3.554.375 5.218.515q1.508 15.127 3.004 30.267Z" class="colorb78f74 svgShape"/><path fill="#a0825c" d="M3271.948 922.386c28.361 85.767-59.783 136.224-138.054 155.204q.52-1.269 1.068-2.538 1.393-3.224 2.885-6.352c.47-.973.94-1.946 1.431-2.91.527-1.06 1.065-2.102 1.622-3.135q.806-1.562 1.67-3.068a90.446 90.446 0 0 1 1.72-3.01c.294-.487.587-.984.88-1.472.597-.974 1.193-1.95 1.8-2.895.302-.478.605-.956.918-1.424q2.289-3.54 4.754-6.821c.266-.362.532-.723.808-1.075.162-.224.333-.449.504-.664l.656-.85a77.304 77.304 0 0 0 7.27-11.06.01.01 0 0 1 .01-.01c.443-.828.877-1.665 1.281-2.502.415-.847.81-1.693 1.195-2.54.375-.836.732-1.682 1.078-2.537a.01.01 0 0 1 .01-.01c.29-.73.58-1.458.85-2.197.355-.98.7-1.962 1.025-2.943a66.78 66.78 0 0 0 .807-2.602c.509-1.737.96-3.484 1.371-5.249q.302-1.324.575-2.647c.254-1.241.48-2.492.685-3.751.027-.155.044-.3.072-.446.267-1.667.507-3.333.716-5.018.06-.561.121-1.123.19-1.685.087-.794.173-1.598.24-2.41l.025-.29q.241-2.6.405-5.228c.022-.493.054-.987.086-1.49.056-.89.093-1.79.13-2.68a282.74 282.74 0 0 0 .235-7.052c.017-.948.043-1.896.059-2.853.034-1.847.057-3.704.081-5.57.007-.967.023-1.935.039-2.902.02-1.392.03-2.794.06-4.197.482-32.407 2.718-66.588 37.673-100.156.43-.412.86-.814 1.3-1.217q1.977-1.78 4.121-3.419a66.358 66.358 0 0 1 6-4.053 51.755 51.755 0 0 1 1.573-.92c-.528.307-1.055.613-1.573.93q22.452 12.104 44.44 25.055c-2.064 11.311-.834 26.07 5.31 44.659Z" class="color84a05c svgShape"/><path fill="#936f41" d="M3412.275 1418.025c-9.27-11.111-33.398-43.05-33.842-74.846a245.433 245.433 0 0 1 9.71-71.114c9.82 50.182 17.785 100.393 24.132 145.96ZM3342.779 1266.69c-.996-20.5-2.373-39.826-3.973-57.774a1385.697 1385.697 0 0 0-4.502-42.868s7.301.065 15.67.461c7.64.347 2.579 46.849-7.195 100.182Z" class="color936241 svgShape"/><path fill="#ffffff" d="M1437.504 1232.09h658.452c-1.319-38.02-25.51-73.406-62.426-82.596s-78.88 8.657-97.87 41.622c-3.001-33.338-33.431-57.37-63.838-71.364-32.175-14.807-69.353-23.148-103.063-12.281s-61.221 45.552-54.74 80.372a1345.817 1345.817 0 0 0-232.879 26.087c-.325 6.045-43.311 12.115-43.636 18.16Z" class="colorfff svgShape"/><g opacity=".68"><path fill="#c4967a" d="M1840.509 1403.546s-66.744 13.594-73.181-36.314-2.288-39.932-34.353-87.58-5.476-113.288 29.565-140.59 12.749-78.486 66.34-109.321c32.532-18.72 93.795 6.199 105.066 65.426 9.62 50.547 27.256 33.351 55.562 73.615s2.26 97.965-31.472 127.41-19.146 143.857-117.527 107.354Z" class="colora8c47a svgShape"/><path fill="#a0825c" d="M1766.73 1229.183s46.69 22.161 69.364-27.716c0 0 40.618 17.64 74.583-19.566 0 0 10.836 48.476 69.899 41.956 0 0-32.97 73.478-157.416 51.775-38.681-6.746-56.43-46.449-56.43-46.449Z" class="color84a05c svgShape"/><path fill="#a0825c" d="M1970.068 1284.108a125.15 125.15 0 0 1-12.032 12.083c-33.734 29.444-19.142 143.859-117.53 107.354 0 0-66.742 13.595-73.178-36.313s-2.288-39.932-34.353-87.58c-17.321-25.74-17.527-56.73-8.524-84.094 2.09 16.767 6.32 34.806 14.4 50.397 22.657 43.72 73.318 13.14 109.525 78.274 34.018 61.186 69.12-52.216 121.692-40.12Z" class="color84a05c svgShape"/><path fill="#b78d74" d="M1777.113 1539.687c46.618-97.49 68.774-192.459 79.31-260.3a933.534 933.534 0 0 0 4.03-28.947q1.332-10.744 2.248-20.072a758.39 758.39 0 0 0 2.117-24.924 65.827 65.827 0 0 0 12.641-2.261c2.171 23.677 2.917 49.495 2.657 76.02q-.042 4.51-.131 9.046c-.243 13.5-.73 27.142-1.403 40.743-5.657 113.566-24.5 224.118-24.5 224.118Z" class="colorb78f74 svgShape"/><path fill="#b78d74" d="M1879.985 1288.248a120.26 120.26 0 0 1 22.087-10.312 73.302 73.302 0 0 0 7.747-3.334l.008.001c.008.002.01-.006.018-.005 23.604-11.73 40.288-34.812 49.624-50.822l.008.002a75.524 75.524 0 0 0 8.331.654 150.957 150.957 0 0 1-18.722 33.08 149.167 149.167 0 0 1-38.301 36.15c-13.532 8.718-24.46 22.86-32.201 35.322-.01.006-.002.008-.002.008a180.84 180.84 0 0 0-13.242 25.481ZM1863.089 1251.968a97.82 97.82 0 0 1-2.636-1.528 113.148 113.148 0 0 1-28.162-23.719 108.56 108.56 0 0 1-6.64-8.618 59.995 59.995 0 0 0 5.35-7.184c.57.537 1.16 1.068 1.757 1.593a96.344 96.344 0 0 0 29.943 17.856c1.152.436 2.278.826 3.35 1.19q-1.476 10.201-2.962 20.41Z" class="colorb78f74 svgShape"/><path fill="#a0825c" d="M1897.296 1038.097c-16.99-9.121-41.407-1.323-38.113 41.8 4.665 61.072-61.577 79.898-116.19 79.617a103.943 103.943 0 0 1 19.544-20.457c35.05-27.294 12.751-78.483 66.345-109.316 18.368-10.571 45.902-7.224 68.414 8.356Z" class="color84a05c svgShape"/><path fill="#936f41" d="M1870.648 1428.997c-4.287-8.825-14.955-33.783-10.058-54.782a166.42 166.42 0 0 1 17.996-45.218c-1.727 34.629-4.679 68.975-7.938 100ZM1849.607 1318.057a974.611 974.611 0 0 0 6.814-38.673 939.32 939.32 0 0 0 4.033-28.948s4.794 1.235 10.238 2.861c4.972 1.475-5.949 31.254-21.085 64.76Z" class="color936241 svgShape"/></g><path fill="#c4967a" d="M2109.608 1861.056c-11.83 66.52-44.1 127.72-81.37 184.07-71.53 108.11-163.59 202.36-269.28 277.36q-3.465 2.475-6.95 4.9-118.05 6.33-235.96 17.38c-176.13 16.65-357.16 86.53-535.09 49.83-118.19-24.38-185.39-92.98-221.06-181.01-48.28-119.14-38.8-273.86-19.86-402.67q5.04-34.335 12.49-68.19a991.602 991.602 0 0 1 72.35-211.96 968.47 968.47 0 0 1 111.06-180.61q43.665-56.1 92.57-107.5 14.58-1.47 29.25-2.03c35.57-1.4 71.47.78 106.91 4.36 120.17 12.14 248.3 37.57 361.01 81.02q39.405 15.21 77.98 32.6 6.69 3 13.35 6.1 39.81 18.42 78.5 39.2 6.36 3.405 12.68 6.89 2.535 1.395 5.05 2.8 44.52 24.705 87.21 52.51a1383.894 1383.894 0 0 1 124.43 91.23c104.57 86.1 211.85 151.32 184.73 303.72Z" class="colora8c47a svgShape"/><path fill="#a0825c" d="M1209.091 1464.369c-1.686-.819-1.19 3.173.604 2.632s2.114-2.902 2.138-4.777c.49-38.201 19.82-75.71 50.646-98.278 7.07 39.183-14.204 81.79-49.773 99.683" class="color84a05c svgShape"/><path fill="#a0825c" d="M1236.979 1581.78c-1.687-.82-1.192 3.172.604 2.631s2.288-2.908 2.137-4.777c-3.777-46.725 19.82-75.71 50.646-98.277 7.07 39.182 6.124 77.605-49.772 99.682" opacity=".47" class="color84a05c svgShape"/><path fill="#a0825c" d="m1163.568 1345.457-1.234-15.74c-1.193-15.226-2.356-30.81 1.646-45.55s14.25-28.723 28.946-32.881c8.854 32.268-1.364 69.03-25.599 92.102l-1.094-30.098M1362.425 1427.318l1.898-13.02c1.836-12.597 3.763-25.478 9.732-36.721s16.876-20.72 29.587-21.392c1.25 27.86-13.83 55.858-37.78 70.144l4.657-24.666M1026.373 1410.264c-28.048-9.219-50.017-34.842-54.845-63.97 17.871-2.845 35.604 8.494 45.695 23.515s14.108 33.188 17.925 50.877" class="color84a05c svgShape"/><path fill="#ffb53e" d="M1230.44 1619.157c11.909 4.395 30.572-7.985 24.161-28.247-5.808-18.355-31.16-8.357-33.018 8.294-1.282 11.486 2.96 17.776 8.857 19.953Z" class="colorffc83e svgShape"/><path fill="#ffa30f" d="M1380.15 1747.92c11.908 4.395 30.572-7.985 24.16-28.247-5.807-18.355-31.16-8.356-33.017 8.295-1.282 11.485 2.959 17.776 8.857 19.952Z" class="colorf28b0f svgShape"/><path fill="#ffb53e" d="M1068.818 1527.46c5.954 2.623 15.286-4.764 12.08-16.853-2.904-10.952-15.58-4.986-16.509 4.949-.64 6.853 1.48 10.606 4.429 11.905ZM1366.968 1357.945c5.954 2.622 15.286-4.764 12.08-16.854-2.903-10.951-15.58-4.986-16.508 4.95-.641 6.852 1.48 10.605 4.428 11.904Z" class="colorffc83e svgShape"/><path fill="#a0825c" d="M1772.17 1564.96c-1.503-1.121-1.77 2.892.096 2.7s2.623-2.452 3-4.288c7.692-37.422 33.755-70.608 68.287-86.951-.453 39.813-29.387 77.638-67.694 88.496" class="color84a05c svgShape"/><path fill="#a0825c" d="M1777.393 1685.525c-1.502-1.123-1.769 2.89.096 2.698s2.797-2.424 3.001-4.287c5.11-46.598 33.754-70.609 68.286-86.951-.452 39.813-8.635 77.366-67.693 88.495" opacity=".47" class="color84a05c svgShape"/><path fill="#c4967a" d="m1599.501 1391.408-.31-.47a94.724 94.724 0 0 1-9.545-83.903 56.76 56.76 0 0 1 13.624 90.653" class="colora8c47a svgShape"/><path fill="#a0825c" d="m1749.91 1439.593 1.76-15.689c1.702-15.178 3.502-30.701 10.214-44.42s19.415-25.518 34.632-26.827c2.604 33.36-14.37 67.533-42.524 85.615l4.607-29.764M1929.74 1557.519l4.322-12.428c4.18-12.023 8.504-24.31 16.488-34.223s20.484-17.163 33.094-15.423c-4.032 27.595-24.126 52.243-50.342 61.752l9.23-23.343M1543.993 1556.994c-25.804-14.348-42.541-43.658-41.784-73.173 18.087.58 33.36 15.062 40.435 31.718s7.59 35.254 7.999 53.345" class="color84a05c svgShape"/><path fill="#ffb53e" d="M1706.954 1469.103c10.865 6.563 31.53-2.071 29.059-23.179-2.239-19.122-29.022-14.088-33.99 1.913-3.427 11.037-.45 18.015 4.931 21.266ZM1763.917 1720.996c10.865 6.564 31.53-2.07 29.058-23.178-2.239-19.122-29.022-14.088-33.99 1.913-3.427 11.036-.45 18.015 4.932 21.265Z" class="colorffc83e svgShape"/><path fill="#ffa30f" d="M1886.63 1875.704c10.864 6.564 31.529-2.07 29.058-23.178-2.239-19.122-29.022-14.089-33.99 1.912-3.427 11.037-.45 18.015 4.931 21.266Z" class="colorf28b0f svgShape"/><path fill="#ffb53e" d="M1622.508 1600.44c5.352 3.7 15.91-1.793 15.045-14.27-.785-11.303-14.36-7.837-17.147 1.744-1.923 6.608-.549 10.695 2.102 12.526ZM1947.296 1490.251c5.353 3.699 15.911-1.793 15.045-14.27-.784-11.303-14.359-7.837-17.146 1.743-1.923 6.609-.55 10.695 2.101 12.527Z" class="colorffc83e svgShape"/><path fill="#a0825c" d="M2030.468 2004.906c-6.8 67.69-59.34 103.79-118.63 137.14-59.3 33.36-127.66 46.26-194.89 56.68a3478.967 3478.967 0 0 1-957.05 14.86c-48.28-119.14-38.8-273.86-19.86-402.67q5.04-34.335 12.49-68.19a991.602 991.602 0 0 1 72.35-211.96c327.87 7.15 654.17 106.33 926.57 289.33 92.68 62.27 179.69 133.82 279.02 184.81Z" class="color84a05c svgShape"/><path fill="#c4967a" d="M980.962 2394.593c177.924 36.703 358.96-33.178 535.086-49.824q117.902-11.145 235.956-17.378c1.755-.09 3.5-.19 5.256-.271.565-1.543 1.14-3.086 1.695-4.63a1032.514 1032.514 0 0 0 35.834-120.826c15.197-65.828 24.023-134.452 11.82-200.907-27.924-152.251-151.237-175.807-279.332-219.876a1385.024 1385.024 0 0 0-148.48-41.919q-49.685-11.12-100.08-18.68-2.857-.436-5.713-.845-7.14-1.057-14.279-2.019-43.483-5.933-87.258-9.26-7.32-.566-14.65-1.045-42.175-2.812-84.444-3.242c-104.886-1.1-215.933 14.6-319.842 38.852q-7.442 33.843-12.498 68.192c-32.936 223.981-37.236 526.302 240.929 583.678Z" class="colora8c47a svgShape"/><path fill="#a0825c" d="M957.547 1903.496c-1.75-.672-.917 3.263.826 2.57s1.858-3.071 1.722-4.941c-2.77-38.104 13.291-77.125 42.08-102.239 10.387 38.437-7.176 82.703-41.09 103.564" class="color84a05c svgShape"/><path fill="#a0825c" d="M995.345 2018.1c-1.75-.672-.916 3.263.826 2.57s2.033-3.092 1.723-4.94c-7.749-46.233 13.29-77.126 42.08-102.24 10.386 38.438 12.72 76.8-41.09 103.565" opacity=".47" class="color84a05c svgShape"/><path fill="#a0825c" d="m902.048 1788.899-2.571-15.577c-2.488-15.069-4.975-30.497-2.245-45.524s11.748-29.834 26.036-35.23c11.574 31.395 4.529 68.895-17.65 93.95l-3.658-29.896M1107.162 1853.503l.78-13.135c.756-12.707 1.577-25.705 6.566-37.416s15.047-22.085 27.655-23.838c3.621 27.652-9.016 56.834-31.661 73.111l2.537-24.973" class="color84a05c svgShape"/><path fill="#ffb53e" d="M992.018 2055.9c12.24 3.363 29.78-10.564 21.664-30.205-7.352-17.793-31.759-5.669-32.19 11.08-.298 11.553 4.464 17.459 10.526 19.124ZM823.164 1978.32c6.157 2.105 14.824-6.05 10.6-17.822-3.828-10.664-15.949-3.64-16.027 6.339-.054 6.882 2.378 10.44 5.427 11.483ZM1105.772 1783.996c6.157 2.105 14.824-6.05 10.6-17.823-3.828-10.664-15.949-3.639-16.027 6.34-.054 6.882 2.379 10.44 5.427 11.483Z" class="colorffc83e svgShape"/><path fill="#a0825c" d="M1527.152 1955.702c-1.592-.99-1.516 3.031.326 2.68s2.405-2.665 2.624-4.527c4.472-37.942 27.61-73.23 60.623-92.458 2.944 39.706-22.66 79.862-59.9 93.946" class="color84a05c svgShape"/><path fill="#a0825c" d="M1542.638 2075.381c-1.592-.99-1.516 3.032.326 2.68s2.58-2.653 2.625-4.527c1.117-46.864 27.61-73.23 60.622-92.458 2.944 39.707-2.006 77.82-59.9 93.946" opacity=".47" class="color84a05c svgShape"/><path fill="#c4967a" d="m1340.312 1797.506-.349-.441a94.724 94.724 0 0 1-16.665-82.783 56.76 56.76 0 0 1 21.305 89.16" class="colora8c47a svgShape"/><path fill="#a0825c" d="m1494.282 1832.69.416-15.783c.401-15.267.87-30.888 6.388-45.13s17.169-27.08 32.219-29.682c5.439 33.016-8.558 68.512-35.068 88.93l2.052-30.049M1683.514 1934.85l3.246-12.752c3.14-12.336 6.4-24.945 13.51-35.504s18.945-18.847 31.658-18.189c-1.664 27.838-19.583 54.11-44.893 65.82l7.206-24.045M1299.128 1967.223c-26.934-12.095-46.11-39.87-47.872-69.343 18.07-.965 34.523 12.162 42.992 28.154s10.568 34.478 12.52 52.47" class="color84a05c svgShape"/><path fill="#ffb53e" d="M1454 1865.755c11.385 5.613 31.238-4.752 26.976-25.573-3.861-18.86-30.118-11.561-33.703 4.805-2.473 11.289 1.088 17.988 6.727 20.768ZM1532.236 2111.873c11.385 5.613 31.238-4.752 26.976-25.572-3.861-18.861-30.118-11.562-33.703 4.804-2.473 11.289 1.088 17.988 6.727 20.768ZM1381.061 2003.815c5.649 3.23 15.7-3.143 13.773-15.5-1.745-11.196-14.974-6.585-16.935 3.199-1.352 6.748.365 10.702 3.162 12.301ZM1695.27 1866.33c5.648 3.228 15.7-3.144 13.773-15.502-1.746-11.195-14.975-6.584-16.936 3.2-1.352 6.748.366 10.702 3.163 12.301Z" class="colorffc83e svgShape"/><path fill="#ffffff" d="M2504.194 847.427h-658.452c1.319-38.02 25.51-73.405 62.426-82.595s78.881 8.657 97.87 41.622c3.001-33.338 33.431-57.37 63.838-71.364 32.175-14.807 69.353-23.148 103.063-12.281s61.222 45.552 54.74 80.372a1345.827 1345.827 0 0 1 232.88 26.087c.324 6.045 43.31 12.115 43.635 18.16Z" class="colorfff svgShape"/><path fill="#e0d8d3" d="M1693.93 1191.016c-128.596-17.854-207.444-100.711-256.963-221.866-10.023-24.521-16.973-52.212-21.174-81.214-9.316-64.304-5.122-135.052 9.043-191.98 76.402-307.049 608.918-335.389 749.197-66.26 42.27 81.095 35.695 179.431 11.66 267.666-20.4 74.886-54.03 148.605-111.372 200.911-89.6 81.733-235.675 102.975-352.688 95.525q-14.223-.905-27.704-2.782Z" class="colord3e0db svgShape"/><path fill="#ffffff" d="M1862.035 1035.656a25.263 25.263 0 0 1-10.231 1.534c-95.078-5.402-152.565-41.409-184.042-70.666-15.395-14.323-26.253-30.892-34.164-52.17l-60.379-162.396a25.224 25.224 0 0 1 23.228-34.018 123.032 123.032 0 0 0 40.903-7.882c42.934-15.963 69.855-50.845 70.127-51.198a25.337 25.337 0 0 1 25.506-9.44c.353.077 43.53 8.897 86.451-7.061a123.067 123.067 0 0 0 36.124-20.757 25.217 25.217 0 0 1 39.804 10.583l60.379 162.396c7.91 21.278 10.515 40.916 8.224 61.8-4.725 42.732-24.726 107.548-93.187 173.755a25.212 25.212 0 0 1-8.743 5.52Z" class="colorfff svgShape"/><path fill="#b5a49a" d="M1865.045 1041.15q-.42.17-.845.329a31.279 31.279 0 0 1-12.746 1.913c-96.937-5.508-155.697-42.367-187.921-72.318-16.14-15.014-27.501-32.35-35.758-54.554l-60.38-162.397a31.437 31.437 0 0 1 28.935-42.394 116.876 116.876 0 0 0 38.855-7.493c40.868-15.191 67.108-48.825 67.368-49.163a31.595 31.595 0 0 1 31.749-11.723c.375.077 42.023 8.41 82.967-6.814a116.931 116.931 0 0 0 34.309-19.704 31.43 31.43 0 0 1 49.607 13.188l60.38 162.396c8.253 22.204 10.978 42.744 8.575 64.642-4.838 43.744-25.252 110.05-95.043 177.543a31.234 31.234 0 0 1-10.052 6.55ZM1589.74 725.545a18.989 18.989 0 0 0-10.698 24.25l60.38 162.395c7.555 20.323 17.905 36.143 32.57 49.787 30.726 28.558 86.925 63.714 180.165 69.012a18.93 18.93 0 0 0 14.302-5.317c67.13-64.921 86.72-128.266 91.332-169.973 2.183-19.897-.319-38.63-7.873-58.952l-60.38-162.396a19.003 19.003 0 0 0-30.012-7.968 129.222 129.222 0 0 1-37.927 21.8c-44.409 16.511-89.498 7.404-89.941 7.308a19.143 19.143 0 0 0-19.234 7.127c-1.17 1.524-28.635 36.815-72.909 53.263a129.222 129.222 0 0 1-42.966 8.271 19.104 19.104 0 0 0-6.81 1.393Z" class="color9ab5a9 svgShape"/><path fill="#b5a49a" d="M1811.31 921.797a40.137 40.137 0 0 1-29.337-.498l-102.146-41.908a40.296 40.296 0 1 1 30.583-74.564l67.99 27.899 121.93-241.986a40.296 40.296 0 0 1 71.613 36.968l-138.87 274.799a40.204 40.204 0 0 1-21.763 19.29Z" class="color9ab5a9 svgShape"/><g opacity=".79"><path fill="#c4967a" d="M2966.019 1524.464s66.744 13.594 73.18-36.314 2.289-39.932 34.353-87.58 5.477-113.288-29.565-140.59-12.748-78.486-66.34-109.321c-32.532-18.72-93.794 6.199-105.065 65.426-9.62 50.547-27.257 33.351-55.562 73.615s-2.262 97.965 31.472 127.41 19.145 143.857 117.527 107.354Z" class="colora8c47a svgShape"/><path fill="#a0825c" d="M3039.797 1350.101s-46.69 22.161-69.364-27.716c0 0-40.618 17.64-74.583-19.566 0 0-10.836 48.476-69.898 41.956 0 0 32.97 73.478 157.416 51.775 38.68-6.745 56.43-46.449 56.43-46.449Z" class="color84a05c svgShape"/><path fill="#a0825c" d="M2836.46 1405.026a125.161 125.161 0 0 0 12.032 12.083c33.733 29.444 19.141 143.859 117.529 107.355 0 0 66.742 13.594 73.178-36.314s2.289-39.932 34.353-87.58c17.322-25.74 17.527-56.73 8.524-84.094-2.089 16.767-6.32 34.806-14.4 50.397-22.656 43.72-73.318 13.14-109.524 78.274-34.019 61.186-69.12-52.216-121.693-40.12Z" class="color84a05c svgShape"/><path fill="#b78d74" d="M3029.414 1660.605c-46.618-97.49-68.774-192.459-79.31-260.3a933.534 933.534 0 0 1-4.03-28.947q-1.331-10.744-2.247-20.072a758.394 758.394 0 0 1-2.118-24.924 65.827 65.827 0 0 1-12.641-2.261c-2.17 23.677-2.917 49.495-2.656 76.021q.042 4.51.13 9.045c.243 13.5.73 27.142 1.403 40.743 5.658 113.566 24.5 224.118 24.5 224.118Z" class="colorb78f74 svgShape"/><path fill="#b78d74" d="M2926.542 1409.167a120.259 120.259 0 0 0-22.086-10.313 73.261 73.261 0 0 1-7.748-3.334l-.008.001c-.008.002-.01-.006-.018-.005-23.604-11.73-40.288-34.811-49.624-50.822l-.008.002a75.577 75.577 0 0 1-8.33.654 150.956 150.956 0 0 0 18.721 33.08 149.167 149.167 0 0 0 38.301 36.15c13.532 8.718 24.46 22.86 32.202 35.322.01.007.001.008.001.008a180.843 180.843 0 0 1 13.242 25.481ZM2943.439 1372.886c.85-.476 1.73-.983 2.635-1.528a113.15 113.15 0 0 0 28.163-23.719 108.578 108.578 0 0 0 6.639-8.618 59.997 59.997 0 0 1-5.35-7.184 68.54 68.54 0 0 1-1.757 1.593 96.343 96.343 0 0 1-29.942 17.856 100.62 100.62 0 0 1-3.35 1.19q1.476 10.201 2.962 20.41Z" class="colorb78f74 svgShape"/><path fill="#a0825c" d="M2909.231 1159.015c16.99-9.12 41.407-1.323 38.114 41.8-4.665 61.072 61.576 79.898 116.189 79.617a103.943 103.943 0 0 0-19.544-20.457c-35.049-27.294-12.751-78.483-66.345-109.316-18.368-10.571-45.901-7.224-68.414 8.356Z" class="color84a05c svgShape"/><path fill="#936f41" d="M2935.88 1549.915c4.287-8.825 14.954-33.783 10.057-54.782a166.42 166.42 0 0 0-17.996-45.218c1.727 34.629 4.679 68.975 7.938 100ZM2956.92 1438.975a974.615 974.615 0 0 1-6.814-38.673 939.316 939.316 0 0 1-4.033-28.948s-4.794 1.235-10.238 2.861c-4.971 1.475 5.949 31.254 21.085 64.76Z" class="color936241 svgShape"/></g><path fill="#c4967a" d="M2771.593 2081.434c81.994 170.991 241.567 209.136 406.782 265.998a1423.862 1423.862 0 0 0 176.468 48.565c48.29-.35 95.837-3.877 142.066-12.05 69.42-12.27 135.898-37.287 196.85-82.547 202.774-150.567 240.459-366.02 195.18-581.002-35.797-31.046-73.607-59.099-116.191-80.14-169.205-83.616-366.989-103.798-552.034-72.897-99.547 16.623-199.797 34.493-293.342 72.382-189.889 76.908-240.991 264.024-155.78 441.691Z" class="colora8c47a svgShape"/><path fill="#a0825c" d="M3166.891 1801.827c-1.78-.587-.758 3.303.949 2.528s1.709-3.157 1.483-5.019c-4.597-37.926 9.571-77.674 37.122-104.141 12.22 37.894-3.197 82.952-36.07 105.418" class="color84a05c svgShape"/><path fill="#a0825c" d="M3210.15 1914.484c-1.78-.587-.758 3.303.949 2.528s1.881-3.187 1.483-5.019c-9.96-45.807 9.571-77.674 37.122-104.141 12.22 37.893 16.393 76.1-36.07 105.418" opacity=".47" class="color84a05c svgShape"/><path fill="#c4967a" d="m3000.685 1633.03-.444-.347a94.724 94.724 0 0 1-35.708-76.523 56.76 56.76 0 0 1 41.72 81.626" class="colora8c47a svgShape"/><path fill="#a0825c" d="m3105.953 1690.028-3.316-15.435c-3.209-14.933-6.434-30.224-4.429-45.365s10.302-30.363 24.314-36.44c13.068 30.804 7.832 68.6-13.118 94.69l-5.089-29.686M3313.933 1744.707l.149-13.157c.144-12.729.34-25.752 4.76-37.689s13.97-22.782 26.479-25.138c4.945 27.446-6.277 57.201-28.113 74.547l1.334-25.066M2978.6 1772.511c-29.026-5.406-54.208-27.88-62.868-56.105 17.334-5.197 36.417 3.682 48.417 17.227s18.397 31.016 24.534 48.04M3738.346 1826.617c-1.638-.912-1.368 3.101.455 2.662s2.274-2.778 2.404-4.649c2.644-38.112 24.06-74.47 56.112-95.262 4.847 39.52-18.798 80.858-55.32 96.715" class="color84a05c svgShape"/><path fill="#a0825c" d="M3759.562 1945.415c-1.638-.913-1.368 3.1.455 2.661s2.45-2.774 2.404-4.648c-1.135-46.864 24.06-74.472 56.112-95.263 4.847 39.52 1.733 77.828-55.32 96.715" opacity=".47" class="color84a05c svgShape"/><path fill="#c4967a" d="m3544.125 1677.577-.37-.424a94.724 94.724 0 0 1-20.622-81.887 56.76 56.76 0 0 1 25.563 88.034" class="colora8c47a svgShape"/><path fill="#a0825c" d="m3699.607 1705.325-.343-15.783c-.332-15.27-.614-30.895 4.214-45.385s15.848-27.873 30.755-31.195c7.019 32.716-5.257 68.844-30.756 90.51l.606-30.112M3893.526 1798.28l2.63-12.893c2.545-12.472 5.196-25.224 11.79-36.112s18.018-19.735 30.747-19.688c-.324 27.885-16.96 54.988-41.68 67.9l6.043-24.364M3511.138 1849.076c-27.483-10.787-47.97-37.61-51.147-66.964 18.003-1.831 35.068 10.49 44.295 26.057s12.212 33.931 15.025 51.807M3511.419 2291.453c-1.638-.913-1.369 3.1.454 2.662s2.274-2.778 2.404-4.649c2.645-38.112 24.061-74.471 56.112-95.262 4.848 39.519-18.798 80.858-55.32 96.714" class="color84a05c svgShape"/><path fill="#c4967a" d="m3207.496 2164.194-.37-.424a94.724 94.724 0 0 1-20.622-81.887 56.76 56.76 0 0 1 25.563 88.034" class="colora8c47a svgShape"/><path fill="#a0825c" d="m3362.978 2191.942-.343-15.783c-.332-15.27-.613-30.895 4.214-45.385s15.848-27.873 30.756-31.195c7.018 32.716-5.258 68.844-30.757 90.51l.607-30.112M3647.57 2138.04q1.314-6.447 2.63-12.893c2.543-12.472 5.194-25.224 11.788-36.113s18.019-19.735 30.748-19.688c-.325 27.886-16.961 54.989-41.68 67.9l6.043-24.363M3209.774 2252.018c-27.484-10.788-47.971-37.61-51.147-66.964 18.003-1.832 35.067 10.49 44.295 26.056s12.211 33.932 15.024 51.808" class="color84a05c svgShape"/><path fill="#ffb53e" d="M3620.003 1679.834c11.386 5.614 31.239-4.752 26.976-25.572-3.86-18.86-30.117-11.562-33.703 4.805-2.473 11.289 1.089 17.987 6.727 20.767ZM3748.457 1931.115c11.386 5.614 31.239-4.752 26.976-25.572-3.861-18.86-30.118-11.562-33.703 4.805-2.473 11.289 1.089 17.987 6.727 20.767Z" class="colorffc83e svgShape"/><path fill="#ffffff" d="M2282.646 1045.898H2941.1c-1.32-38.02-25.51-73.406-62.427-82.595s-78.88 8.657-97.87 41.62c-3-33.336-33.43-57.369-63.837-71.362-32.175-14.807-69.353-23.148-103.064-12.282s-61.22 45.552-54.739 80.372a1345.827 1345.827 0 0 0-232.88 26.088c-.325 6.044-43.31 12.114-43.636 18.159Z" class="colorfff svgShape"/><path fill="#ffffff" stroke="#000000" stroke-miterlimit="10" stroke-width="4" d="M1046.607 2625.189h2611.005" class="colorfff svgShape colorStroke000 svgStroke"/><path fill="#b5a49a" d="M3657.612 2630.197H1046.607c-2.248 0-4.07-2.242-4.07-5.008s1.822-5.009 4.07-5.009h2611.005c2.248 0 4.07 2.243 4.07 5.009s-1.822 5.008-4.07 5.008Z" class="color9ab5a9 svgShape"/><path fill="#533105" d="M2957.519 1570.551h5.296v53.766h-5.296zM2317.174 1570.551h5.297v53.766h-5.297z" class="color530905 svgShape"/><path fill="#a8663f" d="m2865.158 1472.066-.82 11.66-2.07 29.58-2.89 41.25a13.926 13.926 0 0 1-14.87 12.91l-29.57-2.07-19.86-1.39-340.03-23.83-11.63-.81a13.43 13.43 0 0 1-2.8-.49 13.91 13.91 0 0 1-10.11-14.37l2.89-41.25 2.07-29.58c.01-.15.02-.3.04-.44l.78-11.22a13.926 13.926 0 0 1 14.86-12.92l5.65.4 16.82 1.17 15.4 1.08 219.28 15.37 138.29 9.69c.04 0 .07.01.11.01l5.54.39a13.932 13.932 0 0 1 12.92 14.86Z" class="color3f9ea8 svgShape"/><path fill="#a8663f" d="m2433.394 1483.26 2.072-29.583c.99-14.11 10.538-24.937 21.329-24.18l389.794 27.313c10.79.756 18.736 12.808 17.748 26.918l-2.073 29.583Z" opacity=".53" class="color3f9ea8 svgShape"/><path fill="#7a5629" d="M2489.018 1431.746v.01q-1.965 6.735-3.99 13.45c-4.02 13.34-6.84 27.25-10.05 40.96-4.46 19.07-9.67 37.76-19.93 54.01l-11.63-.81a13.43 13.43 0 0 1-2.8-.49c3.38-10.33 8.93-19.82 14.04-29.71a92.307 92.307 0 0 0 8.03-23.86c1.47-7.1 2.4-14.33 3.21-21.42 1.36-11.89 5.11-22.21 7.72-33.21v-.01Z" opacity=".49" class="color296f7a svgShape"/><path fill="#422a0b" d="M2793.094 1492.907h14.602v35.351h-14.602z" transform="rotate(-175.992 2800.395 1510.582)" class="color0b3f42 svgShape"/><path fill="#422a0b" d="M2487.737 1471.51h14.601v35.351h-14.601z" transform="rotate(-175.992 2495.037 1489.185)" class="color0b3f42 svgShape"/><path fill="#422a0b" d="M2603.455 1493.758h100.162v13.064h-100.162z" transform="rotate(-175.992 2653.536 1500.29)" class="color0b3f42 svgShape"/><path fill="#ac6103" d="m2840.868 1385.516-1.07 40.17a13.926 13.926 0 0 1-14.29 13.54l-110.29-2.95-13.81-.37-173.97-4.65a13.935 13.935 0 0 1-13.55-14.29l1.08-40.17 155.04 4.15 13.36.36Z" class="colorac2a03 svgShape"/><path fill="#ac6103" d="m2841.648 1356.496-.78 29.02-157.5-4.21-13.36-.36-155.04-4.15.77-29.02a.572.572 0 0 1 .01-.13c.4-13.64 7.2-24.54 15.27-24.54h.24l111.99 3h.01l12.87.34 171.34 4.59c8.2.22 14.55 11.62 14.18 25.46Z" class="colorac2a03 svgShape"/><path fill="#080502" d="M2776.593 1380.292h34.607v11.073h-34.607z" transform="rotate(-88.467 2793.896 1385.828)" class="color070208 svgShape"/><path fill="#080502" d="M2544.549 1374.082h34.607v11.073h-34.607z" transform="rotate(-88.467 2561.852 1379.618)" class="color070208 svgShape"/><path fill="#080502" d="M2675.902 1344.863h12.789v75.956h-12.789z" transform="rotate(-88.467 2682.297 1382.84)" class="color070208 svgShape"/><path fill="#ffb53e" d="m2723.108 1292.656-78.55 9.6-12.27 1.5-117.65 14.37-11.92 1.46a211.73 211.73 0 0 1 12.5-31.22l13.53-1.65 34.27-4.19.53 4.31 54.51-6.66 11.31-1.38-.42-3.42-.11-.89 59.04-7.21 1.24 10.2 9.6-1.17-1.25-10.21 35.88-4.38 1.89 15.43a13.927 13.927 0 0 1-12.13 15.51Z" class="colorffc83e svgShape"/><path fill="#ffb53e" d="m2520.958 1257.986 18.7-2.29v.01a77.149 77.149 0 0 0-12.46 13.17 130.725 130.725 0 0 0-11.98 19.49 211.73 211.73 0 0 0-12.5 31.22l-12.54 1.53-21.94 2.68a13.921 13.921 0 0 1-15.51-12.13l-1.89-15.43-1.89-15.49-.02-.2c-.02-.2-.04-.4-.05-.59a13.926 13.926 0 0 1 12.08-14.64Z" class="colorffc83e svgShape"/><path fill="#ffffff" stroke="#000000" stroke-miterlimit="10" stroke-width="4" d="m2628.948 1275.376.42 3.421-11.31 1.379-54.51 6.66-.53-4.31-.32-2.61 50.52-6.17 13.46-1.64 1.84-.23.32 2.61.11.89zM2698.718 1276.306l-9.6 1.17-1.24-10.2-1.04-8.51 9.59-1.17 1.04 8.5 1.25 10.21z" class="colorfff svgShape colorStroke000 svgStroke"/><path fill="#ffb53e" d="m2733.348 1261.716-35.88 4.38-1.04-8.5-9.59 1.17 1.04 8.51-59.04 7.21-.32-2.61-1.84.23-13.46 1.64-50.52 6.17.32 2.61-34.27 4.19-13.53 1.65a130.725 130.725 0 0 1 11.98-19.49 77.149 77.149 0 0 1 12.46-13.17v-.01l19.93-2.43 25.04-3.06h.01l19.33-2.36 112.21-13.71a13.922 13.922 0 0 1 15.29 12.16Z" class="colorffc83e svgShape"/><path fill="#ffb53e" d="m2520.958 1257.986 18.7-2.28a77.149 77.149 0 0 0-12.46 13.17 130.725 130.725 0 0 0-11.98 19.49l-13.6 1.66-5.3.65-9.59 1.18-35.89 4.38-1.89-15.49-.02-.2c-.02-.2-.04-.4-.05-.59-.6-7.25 4.34-13.69 11.26-14.54l.82-.1Z" class="colorffc83e svgShape"/><path fill="#ffffff" d="m2628.518 1271.876.32 2.61-.46.061-13.26 1.619-52.1 6.36-.32-2.61 50.52-6.17 13.46-1.64 1.84-.23z" class="colorfff svgShape"/><path fill="none" stroke="#000000" stroke-miterlimit="10" stroke-width="4" d="m2628.518 1271.876.32 2.61-.46.061-13.26 1.619-52.1 6.36-.32-2.61 50.52-6.17 13.46-1.64 1.84-.23z" class="colorStroke000 svgStroke"/><path fill="#ffffff" d="m2696.428 1257.596 1.04 8.5-9.59 1.18-1.04-8.51 9.59-1.17z" class="colorfff svgShape"/><path fill="none" stroke="#000000" stroke-miterlimit="10" stroke-width="4" d="m2696.428 1257.596 1.04 8.5-9.59 1.18-1.04-8.51 9.59-1.17z" class="colorStroke000 svgStroke"/><path fill="#fdb33d" d="M2731.468 1246.296a13.922 13.922 0 0 0-15.29-12.16l.73-.09c7.11-.87 13.61 4.49 14.53 11.98Z" class="colorfdb23d svgShape"/><path fill="#72450c" d="m2698.718 1276.306-9.6 1.17-1.24-10.2-1.04-8.51 9.59-1.17 1.04 8.5 1.25 10.21z" class="color72120c svgShape"/><path fill="#72450c" d="M2486.792 1282.69h9.666v18.847h-9.666z" transform="rotate(-6.965 2491.624 1292.113)" class="color72120c svgShape"/><path fill="#72450c" d="m2629.368 1278.797-11.31 1.379-54.51 6.66-.53-4.31-.32-2.61 50.52-6.17 13.46-1.64 1.84-.23.32 2.61.11.89.42 3.421z" class="color72120c svgShape"/><path fill="#533105" d="M2315.458 1573.606h-14.08c-1.41-2.34-2.73-4.78-3.99-7.3h13.14a59.167 59.167 0 0 0 4.93 7.3Z" class="color530905 svgShape"/><path fill="#533105" d="M2297.388 1566.306c1.26 2.52 2.58 4.96 3.99 7.3h-8.86v-7.3ZM2360.698 1566.306a25.338 25.338 0 0 1-6.17 7.3h-39.07a59.167 59.167 0 0 1-4.93-7.3ZM2420.518 1566.306a89.877 89.877 0 0 1-6.78 7.3h-43.88a28.345 28.345 0 0 0 3.21-7.3ZM2894.368 1566.306a45.44 45.44 0 0 0 3.62 7.3h-468.47q2.91-3.54 5.53-7.3ZM2986.388 1566.306v7.3h-77.89c-.93-2.37-1.81-4.82-2.54-7.3Z" class="color530905 svgShape"/><path fill="#7a5629" d="M2603.958 1247.836c-11.43-8.7-24.73-14-40.53-13.88-14.83.12-29.77 8.61-42.47 24.03-.95 1.14-1.88 2.33-2.8 3.55a149.709 149.709 0 0 0-16.54 28.49c-1.5 3.3-2.88 6.61-4.17 9.9l-.39 1.02c-2.68 6.94-4.94 13.75-6.88 20.17-.77 2.53-1.48 4.99-2.16 7.38-8.41 29.64-14.19 60.3-19.77 89.95-3.82 20.27-7.77 41.23-12.51 61.57-7.6 32.6-16.32 63.68-35.22 86.29h14.53c16.6-23.79 24.92-53.81 31.83-83.48 4.81-20.6 8.78-41.69 12.62-62.08 5.54-29.39 11.26-59.77 19.52-88.87 1.11-3.9 2.33-8.03 3.7-12.29a211.73 211.73 0 0 1 12.5-31.22 130.725 130.725 0 0 1 11.98-19.49 77.149 77.149 0 0 1 12.46-13.17v-.01c6.53-5.35 14.68-9.74 23.86-9.82a50.915 50.915 0 0 1 21.11 4.33h.01l19.33-2.36a.01.01 0 0 1-.01-.01Zm-305.39 292.18-.44-1.09c-7.27-18.14-26.22-29.94-45.02-28.07a5.9 5.9 0 0 0-5.16 6.5 5.806 5.806 0 0 0 6.25 5.37c13.7-1.36 28.04 7.57 33.34 20.79l.44 1.09c2.89 7.19 5.9 14.71 9.41 21.7h13.14c-4.56-7.81-8.37-17.35-11.96-26.29Zm115.17 33.59a89.46 89.46 0 0 1-20.04 14.63c-11.47 6.16-25.64 7.08-36.11 2.35a29.53 29.53 0 0 1-3.96-2.18q2.745-1.605 5.58-3.59a38.637 38.637 0 0 0 10.65-11.21h-15.33c-.56.47-1.15.91-1.74 1.33a64.116 64.116 0 0 1-7.49 4.58 28.49 28.49 0 0 1-2.55-5.91q-.195-.6-.36-1.2a19.78 19.78 0 0 1-.64-6.1c.25-5.11 2.45-9.87 6.02-12.31a9.56 9.56 0 0 1 5.13-1.58 11.154 11.154 0 0 1 3.93.6 7.997 7.997 0 0 1 5.11 4.58c.97 2.71.34 5.78-1.24 8.71h12.37a21.055 21.055 0 0 0-.39-12.88 19.465 19.465 0 0 0-12.29-11.75 21.432 21.432 0 0 0-18.93 2.36c-6.78 4.65-10.88 13.21-11.18 22.27a31.67 31.67 0 0 0 .6 7.3c.13.68.29 1.35.47 2.02a43.626 43.626 0 0 0 2.74 7.45 18.092 18.092 0 0 1-7.05-.7c-4.36-1.36-8.17-4.51-11.58-8.77h-14.08c5.75 9.55 12.84 17.22 22.37 20.2a30.794 30.794 0 0 0 17.81-.12 38.625 38.625 0 0 0 11.46 7.83c13.71 6.2 31.31 5.17 45.94-2.69a101.163 101.163 0 0 0 30.56-25.22Zm230.82-271.35-12.27 1.5c3.89 7.37 7.52 14.92 10.96 22.35h.01l12.87.34c-3.64-7.94-7.46-16.13-11.57-24.19Zm342.47 263.82a5.536 5.536 0 0 0-5.22.23 5.887 5.887 0 0 0-2.38 2.7 33.275 33.275 0 0 1-2.47 4.6c-9.98 15.7-31.84 22.18-49.54 13.79-2.59-1.22-6.41-4.27-10.23-8.15a33.418 33.418 0 0 0 1.92-5.64 36.87 36.87 0 0 0 .83-4.33q.195-1.455.27-2.97c.54-9.77-2.38-21-9.43-24.8-4.25-2.29-9.15-1.37-13.11 2.48-4.27 4.14-5.99 9.76-4.97 16.25a29.95 29.95 0 0 0 1.67 6.07h11.59a50.033 50.033 0 0 1-1.74-8.02c-.29-2.3-.01-4.29 1.28-5.58a4.176 4.176 0 0 1 .36-.32c2.74 2.86 4.49 8.45 5.04 13.92a31.69 31.69 0 0 1-.04 7.3 15.845 15.845 0 0 1-.87 3.7c-.5-1.21-1.01-2.44-1.49-3.7h-10.51a65.183 65.183 0 0 0 4.52 6.59 15.941 15.941 0 0 1-7.14 3.42c-26.35 5.7-48.55.94-67.9-10.01a117.62 117.62 0 0 1-11.31-7.3c-.41-.3-.81-.59-1.22-.91l-19.86-1.39c.84.78 1.69 1.54 2.54 2.3q4.305 3.81 8.81 7.3c19.79 15.23 42.68 25.1 70 24.33a116.477 116.477 0 0 0 21.28-2.64 27.133 27.133 0 0 0 12.6-6.41c4.57 4.44 9.1 7.82 12.35 9.36a50.37 50.37 0 0 0 22.99 4.83c18.66-.53 36.36-11.3 44.21-29.1a6.06 6.06 0 0 0-2.83-7.9Zm-285.62-130.17q3.405 5.625 6.89 11.21l14.3 1q-3.735-5.895-7.38-11.84Z" class="color296f7a svgShape"/><path fill="#533105" d="M2908.498 1573.606h-10.51a45.44 45.44 0 0 1-3.62-7.3h11.59c.73 2.48 1.61 4.93 2.54 7.3ZM2373.068 1566.306a28.345 28.345 0 0 1-3.21 7.3h-15.33a25.338 25.338 0 0 0 6.17-7.3ZM2435.048 1566.306q-2.625 3.75-5.53 7.3h-15.78a89.877 89.877 0 0 0 6.78-7.3Z" class="color530905 svgShape"/><path fill="#ffa30f" d="M2559.588 1253.266a124.45 124.45 0 0 0-44.95 64.86l-11.92 1.46a211.73 211.73 0 0 1 12.5-31.22 130.725 130.725 0 0 1 11.98-19.49 77.149 77.149 0 0 1 12.46-13.17v-.01Z" opacity=".59" class="colorf28b0f svgShape"/><path fill="#080502" d="M3474.043 2342.988s-529.46 87.864-535.81 84.054c-6.347-3.81-74.91-299.647-74.91-299.647s437.827-78.72 444.917-78.72c7.092 0 102.319 76.182 103.59 81.259 1.268 5.08 62.213 213.054 62.213 213.054ZM1858.997 2418.154c-12.696 1.27-653.89-12.468-653.89-12.468l48.249-147.511s88.878-134.405 135.855-131.957c46.98 2.447 326.37-42.854 374.59-9.412 48.218 33.445 91.389 6.78 114.241 86.772 22.856 79.99 40.682 88.946 22.88 137.16-17.8 48.213-41.925 77.416-41.925 77.416Z" class="color070208 svgShape"/><ellipse cx="3206.691" cy="2395.651" fill="#533105" rx="218.238" ry="218.311" class="color530905 svgShape"/><ellipse cx="3206.692" cy="2395.651" fill="#ffa30f" rx="151.843" ry="151.894" class="colorf28b0f svgShape"/><ellipse cx="3206.692" cy="2395.651" fill="#f5f4f3" rx="101.549" ry="101.583" class="colorf3f5f4 svgShape"/><ellipse cx="1526.414" cy="2395.651" fill="#533105" rx="218.239" ry="218.311" class="color530905 svgShape"/><ellipse cx="1526.414" cy="2395.651" fill="#ffa30f" rx="151.843" ry="151.894" class="colorf28b0f svgShape"/><path fill="#f5f4f3" d="M1627.963 2395.651a101.55 101.55 0 1 1-101.548-101.582 101.566 101.566 0 0 1 101.548 101.582Z" class="colorf3f5f4 svgShape"/><path fill="#fdb33d" d="M3655.068 1967.116v301.92a75.304 75.304 0 0 1-56.08 72.81l-123.37 32.59a18.175 18.175 0 0 1-3.01.26 17.665 17.665 0 0 1-17.49-15.81c-9.32-85.21-63.03-156.32-137.26-192.17a251.015 251.015 0 0 0-44.85-16.6 253.701 253.701 0 0 0-65.49-8.46c-77.73.09-147.44 36.8-192.69 93.68a245.7 245.7 0 0 0-49.5 198.15 24.511 24.511 0 0 1-24.12 28.98h-1180.87a247.031 247.031 0 0 0 11.36-73.42c.28-92.89-51.83-174.76-128.49-217q-7.47-4.125-15.24-7.73a243.703 243.703 0 0 0-97.7-22.61 246.544 246.544 0 0 0-219.53 124.46 243.141 243.141 0 0 0-15.16 31.58 245.786 245.786 0 0 0-17.16 90.55 248.556 248.556 0 0 0 1.47 27.02 42.348 42.348 0 0 1-41.98 47.15h-212.56a4.458 4.458 0 0 1-4.46-4.46v-212.31a358.05 358.05 0 0 1 2.27-41.02c15.6-136.21 72.47-162.44 256.74-199.3 43.62-8.72 89.89-21.87 135.41-37.01 157.64-52.46 306.45-128.9 306.45-128.9s62.89-30.82 146.05-70c125.92-59.35 298.3-137.91 369.06-157.74h.01q5.22-1.47 9.68-2.49c103.27-23.7 357.21-16.93 570.52-15.24 83.12.67 152.88 10.07 213.47 26.31a609.057 609.057 0 0 1 175.24 77.73c20.16 12.98 39.44 26.88 58.22 41.55 108.34 84.65 296.26 148.98 296.26 148.98l34.14 6.1a73.582 73.582 0 0 1 60.44 66.89c.15 1.84.22 3.69.22 5.56Z" class="colorfdb23d svgShape"/><path fill="#ffa30f" d="M3030.548 1620.306c-47.03 1.15-93.85 6.15-140.65 3.4-59.32-3.47-118.63-7.07-177.97-10.1-118.45-6.05-237.13-9.97-355.73-6.32q-59.67 1.83-119.32 4.44 5.22-1.47 9.68-2.49c103.27-23.7 357.21-16.93 570.52-15.24 83.12.67 152.88 10.07 213.47 26.31Z" class="colorf28b0f svgShape"/><path fill="#ffb53e" d="m1845.438 1931.54 1401.192-9.851s30.75 18.604 0 114.534c-15.627 48.748-1394.986-23.563-1406.257-32.786s-41.178-40.55 5.065-71.897Z" class="colorffc83e svgShape"/><path fill="#e0d8d3" d="M3665.228 2002.836v115.12h-66.31a92.464 92.464 0 0 1-85.28-56.72l-15.11-36.04a15.976 15.976 0 0 1-1.27-6.15 16.143 16.143 0 0 1 16.14-16.21ZM1239.273 2058.705c-74.056 11.34-159.34 81.468-159.34 81.468-20.388 21.907-3.549 57.473 26.318 55.586l144.391-9.125a71.23 71.23 0 0 0 63.928-51.274c14.047-48.487 2.097-88.505-75.297-76.655Z" class="colord3e0db svgShape"/><path fill="#533105" d="M2642.368 1669.456c-.44-5.16-.81-9.98-1.12-14.16-11.64.14-22.59.36-32.73.62a3.221 3.221 0 0 1 .03.43c-.48 4.07-1.05 8.73-1.62 13.79 10.89-.29 22.77-.53 35.44-.68Z" class="color530905 svgShape"/><path fill="#533105" d="M3250.158 1917.226c-6.93 12.69-23.07 19.25-48 19.49l-342.89 3.24-6.48.06-4.82.05-298.59 2.82-.13-.01c-15.88-.43-47.23-10.33-52.2-44.74-5.46-37.67-5.08-193.02-5.06-199.61v-.51l.08-.5c1.94-13.25 13.35-38.41 42.61-38.8 2.4-.03 7.48-.26 14.49-.59 12.96-.6 33.5-1.54 59.35-2.21a3.221 3.221 0 0 1 .03.43c-.48 4.07-1.05 8.73-1.62 13.79-24.81.66-44.54 1.57-57.1 2.15-7.42.34-12.32.57-14.97.61-22.93.3-28.02 22.67-28.7 26.26-.02 10.7-.23 161.43 4.91 196.96 4.41 30.48 35.93 32.48 38.47 32.59l67.57-.64 37.25-.35 47.81-.45 59.4-.56 76.06-.72h.01l16.04-.16 1.81-.01 15.12-.15 60.96-.57 195.64-1.85 74.81-.71c9.55-.09 17.41-1.18 23.41-3.21 6-2.02 10.14-5 12.26-8.85 4.72-8.6-.81-21.55-3.77-26.62l-45.71-45.73a555.94 555.94 0 0 0-324.43-158.13c-79.03-9.62-159.7-11.24-221.41-10.54-.44-5.16-.81-9.98-1.12-14.16 62.28-.73 144.05.87 224.25 10.64a570.073 570.073 0 0 1 332.73 162.17l46.88 46.9.42.67c.6.95 14.52 23.4 4.63 41.55Z" class="color530905 svgShape"/><path fill="#e0d8d3" d="M3237.688 1910.476c-2.12 3.85-6.26 6.83-12.26 8.85-6 2.03-13.86 3.12-23.41 3.21l-74.81.71-195.64 1.85-38.04.36-22.92.21-15.12.15-1.81.01-16.04.16h-.01l-76.06.72-33.83.32-25.57.24-47.81.45-37.25.35-67.57.64c-2.54-.11-34.06-2.11-38.47-32.59-2.34-16.16-3.57-56.15-4.22-95.95-.77-47.72-.7-95.18-.69-101.01.68-3.59 5.77-25.96 28.7-26.26 2.65-.04 7.55-.27 14.97-.61a.751.751 0 0 0 .15-.01c12.56-.58 32.24-1.48 56.95-2.14 10.89-.29 22.77-.53 35.44-.68 48.44-.55 108.57.33 170.42 5.39 16.93 1.38 34 3.08 50.99 5.15a550.41 550.41 0 0 1 104.66 23.33 555.977 555.977 0 0 1 219.77 134.8l45.71 45.73c2.96 5.07 8.49 18.02 3.77 26.62ZM2263.688 1695.806a2.455 2.455 0 0 0-.35 1.09c.03-.42.04-.65.04-.65.1-.15.2-.3.31-.44ZM2263.928 1695.466a2.645 2.645 0 0 0-.24.34.539.539 0 0 1 .07-.13c.06-.06.1-.14.17-.21ZM2419.338 1718.966v168.8a34.398 34.398 0 0 1-6.41 20.15 32.111 32.111 0 0 1-24.88 13.57l-4.94.2-50.02 2.01-23.54.95-10.07.4-19.09.77-6.89.28-31.3 1.25-43.68 1.76-95.19 3.83-131.49 5.28-14.84.6-21.2.85-6.48.26-12.3.5-41.81 1.68a27.62 27.62 0 0 1-23.91-11.69 20.007 20.007 0 0 1-3.42-15.83c1.68-8.35 9.49-22.08 37.11-40.06 23.01-14.98 55.21-34.37 91.26-54.78 64.06-36.25 140.28-75.69 198.72-99.22 26.43-10.65 49.22-18.04 65.61-20.41 1.45-.2 2.93-.41 4.38-.62q4.08-.555 8.27-1.09 4.98-.615 10.08-1.18v-.07a.208.208 0 0 1 .04.06c11.85-1.33 24.14-2.46 36.36-3.42 17.22-1.37 34.3-2.4 49.84-3.18 7.97-.4 15.54-.73 22.5-1.01 1.96-.08 3.88-.15 5.76-.22.39-.02.78-.03 1.16-.05q5.52-.21 10.55-.37c.31-.01.62-.01.93-.01a28.158 28.158 0 0 1 19.7 8.06 30.236 30.236 0 0 1 9.19 21.95Z" class="colord3e0db svgShape"/><path fill="#72450c" d="M2263.758 1695.676a.539.539 0 0 0-.07.13 2.645 2.645 0 0 1 .24-.34c-.07.07-.11.15-.17.21Zm-.38.57s-.01.23-.04.65a2.455 2.455 0 0 1 .35-1.09c-.11.14-.21.29-.31.44Zm-.07.91v.07a.06.06 0 0 1 .04-.01.208.208 0 0 0-.04-.06Z" class="color72120c svgShape"/><path fill="#533105" d="M2420.008 1686.836a42.162 42.162 0 0 0-30.96-12.03c-5.43.18-11.33.39-17.56.64-35.61 1.41-86.8 4.29-128.48 10.01-1.5.21-2.98.42-4.46.64-42.92 6.21-121.4 43.13-179.68 73.01-73.47 37.68-144.16 79.15-181.62 103.54-25.48 16.6-40.04 33.13-43.26 49.15a34.35 34.35 0 0 0 5.59 26.58 41.235 41.235 0 0 0 34.42 17.93c.59 0 1.18-.02 1.78-.04l102.06-4.1 260.24-10.47 150.54-6.05c25.17-1.02 44.9-22.05 44.9-47.88v-168.8a44.3 44.3 0 0 0-13.51-32.13Zm-156.63 9.41c.1-.15.2-.3.31-.44a.539.539 0 0 1 .07-.13c.06-.06.1-.14.17-.21a2.645 2.645 0 0 0-.24.34 2.455 2.455 0 0 0-.35 1.09c.03-.42.04-.65.04-.65Zm155.96 191.52a34.398 34.398 0 0 1-6.41 20.15 32.111 32.111 0 0 1-24.88 13.57l-4.94.2-50.02 2.01-23.54.95-29.16 1.17-6.89.28-31.3 1.25-43.68 1.76-226.68 9.11-14.84.6-27.68 1.11-12.3.5-41.81 1.68a27.62 27.62 0 0 1-23.91-11.69 20.007 20.007 0 0 1-3.42-15.83c1.68-8.35 9.49-22.08 37.11-40.06 82.39-53.65 282.58-163.84 355.59-174.41 1.45-.2 2.93-.41 4.38-.62q4.08-.555 8.27-1.09 4.98-.615 10.08-1.18v-.07a.208.208 0 0 1 .04.06c11.85-1.33 24.14-2.46 36.36-3.42 17.22-1.37 34.3-2.4 49.84-3.18 7.97-.4 15.54-.73 22.5-1.01 1.96-.08 3.88-.15 5.76-.22 4.1-.16 8.01-.3 11.71-.42.31-.01.62-.01.93-.01a28.158 28.158 0 0 1 19.7 8.06 30.236 30.236 0 0 1 9.19 21.95Z" class="color530905 svgShape"/><path fill="#422a0b" d="m3127.208 1923.246-195.64 1.85-60.96.57-15.12.15-1.81.01-16.04.16h-.01l-76.06.72-59.4.56-47.81.45-37.25.35c6.01-14.77 12.49-30.2 18.83-44.83a.25.25 0 0 1 .04-.07c12.36-28.57 24.15-54.12 30.76-65.88a49.49 49.49 0 0 1 3.44-5.51 7.581 7.581 0 0 1 .83-.93c.92-.84 6.23-1.29 15.04-1.4 1.11-.01 2.27-.02 3.49-.02q4.32-.03 9.51.05 3.27.045 6.87.12c12.76.26 28.48.81 46.25 1.58 4.15.17 8.41.37 12.77.57.49.02.98.04 1.47.07 7.44.34 15.17.71 23.12 1.11 4.37.23 8.8.45 13.3.69.44.02.88.05 1.32.07l4.12.21h.01q5.445.3 11 .6c43.27 2.34 90.83 5.23 135.13 8.06l4.24.27q6.33.405 12.54.8 4.62.3 9.16.59c2.08.14 4.15.27 6.2.41 3.08.2 6.12.39 9.14.59 45.93 3 84.88 5.67 106.6 7.18a21.329 21.329 0 0 1 19.8 19.76ZM2412.928 1907.916a32.111 32.111 0 0 1-24.88 13.57l-4.94.2-50.02 2.01-23.54.95-29.16 1.17-6.89.28-31.3 1.25-43.68 1.76c11.07-19.4 22.27-36.92 26.76-40.21 5.57-4.08 36.21-8.16 60.63-10.83 6.3-.69 12.18-1.29 17.12-1.77 8.59-.84 14.3-1.32 14.31-1.32 4.17-.35 8.42-.45 12.69-.39h.16c7.06.1 14.17.64 21.07 1.17q3.24.255 6.6.55c4.58.42 9.3.92 14 1.51 7 .89 13.96 1.99 20.38 3.38 12.7 2.74 18.83 14.08 20.69 26.72Z" class="color0b3f42 svgShape"/><path fill="#ffffff" stroke="#000000" stroke-miterlimit="10" stroke-width="4" d="M2299.666 1818.59c-3.439-21.536 55.644-7.478 55.644-7.478l.953 6.308a35.08 35.08 0 0 1-6.407 10.603c-13.197 14.251-33.825 22.81-51.662 23.458 1.785-11.614 2.882-24.058 1.472-32.89ZM2303.878 1794.002l-33.511-1.74s.114 12.81 14.827 14.004c17.943 1.454 18.684-12.264 18.684-12.264Z" class="colorfff svgShape colorStroke000 svgStroke"/><path fill="#1c1103" d="m2285.826 1807.976 2.136 8.584c1.563 6.28 3.06 13.222.085 18.97a11.101 11.101 0 0 1-4.844 4.924 19.073 19.073 0 0 0 12.467 8.927c13.437 2.749 18.975-9.74 17.754-21.424a25.39 25.39 0 0 0-2.784-9.64c-3.948-7.168-12.373-11.1-20.555-11.27ZM2252.496 1729.478a33.626 33.626 0 0 0 .153-3.747c-.092-5.629.005-11.513 1.768-16.917.66-2.023 2.029-4.24 4.157-4.293a5.3 5.3 0 0 1 3.697 2.025c2.397 2.512 3.346 6.337 5.758 8.648 2.438 2.338 6.226 2.904 8.904 5.106 5.799 4.767 8.135 12.465 9.222 19.616 2.59 17.032-.06 36.062-12.189 48.295-5.54 5.589-9.456 4.905-13.003 11.93-1.35 2.673-2.733 5.484-2.668 8.478s2.111 6.174 5.096 6.415c-3.501.178-.473.547-3.572-1.092-5.308-2.809-8.56-9.457-8.605-15.329-.049-6.272 6.914-11.116 9.151-17.045 1.66-4.398 2.067-9.479.042-13.721-1.644-3.446-4.694-6.004-6.767-9.211-3.071-4.753-3.82-10.71-3.194-16.334.516-4.643 1.637-8.472 2.05-12.824Z" class="color031c1c svgShape"/><path fill="#fcdfcd" d="M2263.928 1695.466a2.645 2.645 0 0 0-.24.34.539.539 0 0 1 .07-.13c.06-.06.1-.14.17-.21ZM2362.718 1796.916a53.037 53.037 0 0 0-.34 5.47c-.09 10.49.38 20.97.5 31.45.02 1.69-.09 3.49-.25 5.36-.07.8-.15 1.6-.23 2.42-.76 7.17-1.94 15-.08 21.03a2.712 2.712 0 0 1 .08.34 14.98 14.98 0 0 1 .27 2.03c.01.16.02.32.02.48a12.777 12.777 0 0 1-4.83 10.81 15.255 15.255 0 0 1-2.42 1.54c-2.73 1.41-7.13 4.66-12.31 9.16-10.56 9.15-24.32 23.45-33.58 37.64l-29.16 1.17-6.89.28c1.84-6.77 5.04-12.44 10-20.13 6.35-9.87 14.2-19.16 19.53-29.67a62.073 62.073 0 0 0 2.89-6.52 50.672 50.672 0 0 0 1.78-5.64 40.983 40.983 0 0 0 .54-13.8 81.19 81.19 0 0 0-.46-3.69c-.38-2.56-.87-5.14-1.43-7.67-1.1-5.09-2.45-9.96-3.6-14.01-.82-2.94-1.52-4.95-1.72-5.54-.01-.03-.03-.07-.04-.1a.78.78 0 0 1-.04-.09s-.42.06-1.16.16c-1.95.26-6.16.75-10.95.91-8.01.28-17.64-.34-21.07-4.46-1.19-1.42-3.52-10.83-4.84-18.85v-.01c-.29-1.83-.54-3.6-.71-5.17a36.532 36.532 0 0 1-.26-4.15 3.542 3.542 0 0 0-2.44-3.4c-.13-.06-.26-.12-.39-.17-3.18-1.29-8.28-1.33-11.02-2.98a3.78 3.78 0 0 1-1.64-1.79c-.64-1.56-.16-3.89 2.23-7.52a75.438 75.438 0 0 0 6.1-11.53c1.89-4.35 3.52-8.82 5.13-13.18 1.75-4.73.53-9.36.8-14.27.31-5.75.6-11.53 1.05-17.29v-.03c.11-1.55.24-3.09.39-4.64.04-.42.08-.82.11-1.22.04-.35.07-.69.11-1.03 0-.05.01-.11.01-.17.03-.39.06-.78.1-1.16a.341.341 0 0 0 .01-.1l.03-.33c.02-.24.05-.47.06-.7.06-.79.13-1.56.2-2.29.05-.61.1-1.19.14-1.75.02-.25.04-.48.06-.7 0-.06.01-.12.01-.18.02-.26.05-.5.06-.73.02-.3.04-.59.06-.86.03-.34.05-.64.07-.92.02-.23.03-.44.05-.63q.015-.225.03-.42c.01-.13.02-.26.02-.38a.148.148 0 0 1 .01-.07v-.07a.208.208 0 0 1 .04.06c11.85-1.33 24.14-2.46 36.36-3.42 3.04 1.19 6.14 2.56 9.26 4.07 1.3.63 2.6 1.28 3.89 1.94.39.19.77.39 1.16.6.27.13.54.28.81.42.76.4 1.52.81 2.28 1.22.31.17.61.33.92.5 6.74 3.7 13.41 7.81 19.62 11.89.14.09.26.17.39.27 14.03 9.45 26.26 30.42 28.69 46.9 1.35 9.17-1.05 18.39-2.79 27.56-.5 2.59-.93 5.17-1.22 7.75Z" class="colorfcdccd svgShape"/><path fill="#fbb890" d="M2263.688 1695.806a2.455 2.455 0 0 0-.35 1.09c.03-.42.04-.65.04-.65.1-.15.2-.3.31-.44ZM2362.718 1796.916a53.037 53.037 0 0 0-.34 5.47c-.09 10.49.38 20.97.5 31.45.02 1.69-.09 3.49-.25 5.36-.07.8-.15 1.6-.23 2.42-.76 7.17-1.94 15-.08 21.03a2.712 2.712 0 0 1 .08.34 14.98 14.98 0 0 1 .27 2.03c.01.16.02.32.02.48a12.777 12.777 0 0 1-4.83 10.81 15.255 15.255 0 0 1-2.42 1.54c-2.73 1.41-7.13 4.66-12.31 9.16-10.56 9.15-24.32 23.45-33.58 37.64l-29.16 1.17a153.658 153.658 0 0 1 6.17-17.5 24.128 24.128 0 0 0 .76 13.36c13.34.61 16.21-22.98 23.05-30.66 3.3-3.71 12.43-9.99 19.66-16.43.02-.02.05-.04.07-.06 5.68-5.06 10.16-10.23 9.7-14.31-.48-4.27-6.4-7.51-9-10.39a36.161 36.161 0 0 1-3.99-5.44c-.35-.55-.68-1.11-1.01-1.68-2.28-3.89-4.29-7.95-7.16-11.51a13.27 13.27 0 0 0-5.33-4.25c-2.44-1.01-5.22-1.18-9.16-1.71-.45-.06-.92-.16-1.4-.27-.82-2.94-1.52-4.95-1.72-5.54.94 2.3 4.21-.29 7.62-4.02a100.982 100.982 0 0 0 6.89-8.63 35.086 35.086 0 0 0 2.25-3.38c3.6-8.19 3.79-17.43 2.56-26.16-1.35-9.64-5.72-19.48-14.1-24.41-4.63-2.71-10.03-3.7-15.06-5.59-1.46-.55-2.94-1.16-4.4-1.87a33.778 33.778 0 0 1-9.11-6.14 18.497 18.497 0 0 1-3.98-5.6c-.16-.34-.3-.69-.43-1.04-2.84-7.87-4.57-14.5-10.34-20.91a.01.01 0 0 1-.01-.01c-.24-.26-.49-.53-.75-.8.04-.42.08-.82.11-1.22.04-.35.07-.69.11-1.03 0-.05.01-.11.01-.17.03-.39.06-.78.1-1.16a.341.341 0 0 0 .01-.1l.03-.33c.02-.24.05-.47.06-.7.06-.79.13-1.56.2-2.29.05-.61.1-1.19.14-1.75.02-.25.04-.48.06-.7 0-.06.01-.12.01-.18.02-.26.05-.5.06-.73.02-.3.04-.59.06-.86.03-.34.05-.64.07-.92.02-.23.03-.44.05-.63q.015-.225.03-.42c.01-.13.02-.26.02-.38a.148.148 0 0 1 .01-.07v-.07a.208.208 0 0 1 .04.06c11.85-1.33 24.14-2.46 36.36-3.42 3.04 1.19 6.14 2.56 9.26 4.07 1.3.63 2.6 1.28 3.89 1.94.39.19.77.39 1.16.6.27.13.54.28.81.42.76.4 1.52.81 2.28 1.22.31.17.61.33.92.5 6.74 3.7 13.41 7.81 19.62 11.89.14.09.26.17.39.27 14.03 9.45 26.26 30.42 28.69 46.9 1.35 9.17-1.05 18.39-2.79 27.56-.5 2.59-.93 5.17-1.22 7.75Z" opacity=".8" class="colorf2ad94 svgShape"/><path fill="#533105" d="M2292.308 1784.946c-.66.27-2.81 6.5-3.48 7.5q-.33.51-.69.99a25.776 25.776 0 0 1-2.13 2.58 16.017 16.017 0 0 1-9.61 5.34 4.278 4.278 0 0 1-3.29-1.05 6.995 6.995 0 0 1-.97-.99 9.085 9.085 0 0 1-.72-1c-2.17-3.37-2.94-8.32-2.56-8.33a65.056 65.056 0 0 0 23.45-5.04ZM2292.747 1746.485a31.08 31.08 0 0 0-10.595-10.217 21.04 21.04 0 0 0-10.196-2.727c-1.354-.005-4.269-.477-4.295 2.098-.022 2.276 2.497 2.625 3.878 2.776 2.295.25 4.661.505 6.947.948a28.668 28.668 0 0 1 14.262 7.122Z" class="color530905 svgShape"/><ellipse cx="2272.913" cy="1753.054" fill="#533105" rx="4.607" ry="3.447" transform="rotate(-89.091 2272.913 1753.054)" class="color530905 svgShape"/><path fill="#533105" d="M2282.19 1751.248a16.032 16.032 0 0 0-1.533-1.374q-.787-.631-1.607-1.172a13.588 13.588 0 0 0-3.428-1.633 12.53 12.53 0 0 0-1.811-.446 4.046 4.046 0 0 0-1.864.158 5.515 5.515 0 0 0-1.783 1.008 6.337 6.337 0 0 0-1.466 1.868l.076.191c.605-.206 1.159-.402 1.711-.54a13.023 13.023 0 0 1 1.64-.272l1.64-.159a6.7 6.7 0 0 1 1.68-.003 10.76 10.76 0 0 1 1.688.352 14.846 14.846 0 0 1 1.683.559 19.05 19.05 0 0 1 3.304 1.664Z" class="color530905 svgShape"/><path fill="#422a0b" d="M2263.688 1695.806a2.455 2.455 0 0 0-.35 1.09c.03-.42.04-.65.04-.65.1-.15.2-.3.31-.44ZM2263.928 1695.466a2.645 2.645 0 0 0-.24.34.539.539 0 0 1 .07-.13c.06-.06.1-.14.17-.21ZM2405.998 1782.566c-.11.89-.23 1.78-.36 2.66a23.252 23.252 0 0 1-8.38 14.33c-9.91 8.32-25.88 9.82-33.99-1.81-.19-.27-.38-.55-.55-.83a8.76 8.76 0 0 1-1.55-3.98 4.215 4.215 0 0 1 .03-1.12c-6.52 6.55-13.55 5.13-20.65 8.9-2.16 1.15-4.37 3.73-6.22 6.78-2.73 4.51-4.71 10.06-4.72 13.56-.01 4.02 2.31 8.43 6.32 8.43-4.92 1.17-10.15-1.8-12.82-6.09-2.67-4.3-3.17-9.61-2.8-14.65.04-.61.1-1.21.17-1.81.01-.11.03-.22.04-.33a47.393 47.393 0 0 1 5.04-16.21c2.04-3.89 4.66-7.58 5.62-11.87 1.06-4.69.02-9.6-1.38-14.19-2.92-9.54-18.45-29.91-13.5-40.5a72.248 72.248 0 0 0-5.08 14.93 24.157 24.157 0 0 1-4.32.09c-6.2-.42-11.68-3.03-17.79-4.61a33.509 33.509 0 0 1-4.54-1.5 17.338 17.338 0 0 1-7.12-5.05c-1.26-1.59-2.13-5.05-3.06-8.98v-.01c-1.74-7.43-3.67-16.51-8.69-17.61l-.15-.03h-.01a5.254 5.254 0 0 0-2.25.09h-.01a1.465 1.465 0 0 0-.2.05c.01.03.01.07.02.1.12.72.21 1.45.28 2.17.01.01.01.01 0 .02a26.139 26.139 0 0 1 .06 4.51v.01a23.916 23.916 0 0 1-.52 3.65c-.05.21-.09.42-.14.63a5.227 5.227 0 0 1-.17.65.02.02 0 0 1 0 .03c-.23.85-.51 1.69-.83 2.53v.03c-.07.18-.14.36-.22.54a35.879 35.879 0 0 1-2.21 4.6q-.195.36-.42.72a41.307 41.307 0 0 1-2.83 4.17q-.405.54-.84 1.05c-.7.85-1.42 1.67-2.17 2.46-.1.11-.21.22-.31.33l-.31.31a.923.923 0 0 1-.14.14c-.63.64-1.28 1.25-1.94 1.84a39.31 39.31 0 0 1-3.67 2.91 24.408 24.408 0 0 0 2.72-12.86 45.417 45.417 0 0 0-.75-6.62c-.98-5.26-2.65-10.39-3.73-15.63q4.08-.555 8.27-1.09 4.98-.615 10.08-1.18v-.07a.208.208 0 0 1 .04.06c11.85-1.33 24.14-2.46 36.36-3.42 17.22-1.37 34.3-2.4 49.84-3.18 7.97-.4 15.54-.73 22.5-1.01 1.96-.08 3.88-.15 5.76-.22a39.328 39.328 0 0 1 2.36 3.66c4.95 8.68 11.71 16.1 16.48 24.95 10.43 19.32 12.12 43.03 9.35 64.57Z" class="color0b3f42 svgShape"/><path fill="#1c1103" d="M2265.718 1701.136c-.06-.03-.12-.05-.17-.07h-.01a2.278 2.278 0 0 0-2.25.09h-.01a1.017 1.017 0 0 0-.18.15 1.18 1.18 0 0 0-.1.11 16.219 16.219 0 0 1 .38 2.06c.01.01.01.01 0 .02a20.618 20.618 0 0 1 .11 4.58v.01a23.296 23.296 0 0 1-.56 3.59c-.04.21-.09.41-.15.62a5.227 5.227 0 0 1-.17.65v.03c-.23.85-.51 1.69-.83 2.53v.01c-.07.19-.14.37-.22.56a35.879 35.879 0 0 1-2.21 4.6q-.195.36-.42.72a41.307 41.307 0 0 1-2.83 4.17q-.405.54-.84 1.05c-.7.85-1.42 1.67-2.17 2.46-.1.11-.21.22-.31.33-.1.1-.2.2-.31.3v.01a.923.923 0 0 1-.14.14c-.63.64-1.28 1.25-1.94 1.84a39.31 39.31 0 0 1-3.67 2.91 24.408 24.408 0 0 0 2.72-12.86 30.416 30.416 0 0 0 4.21-12.28c.34-3.68-.23-7.37-.42-11.06q4.98-.615 10.08-1.18v-.07a.208.208 0 0 1 .04.06c.78 1.29 1.56 2.59 2.35 3.88a.076.076 0 0 0 .02.04Z" opacity=".66" class="color031c1c svgShape"/><path fill="#fb600a" d="m2383.108 1921.686-50.02 2.01-23.54.95-29.16 1.17-6.89.28-31.3 1.25c.23-.34.47-.67.7-1 11.14-15.78 27.35-25.64 38.46-41.11a72.726 72.726 0 0 0 4.55-7.17 79.713 79.713 0 0 0 3.78-7.74c2.88-6.68 4.87-13.41 7.45-20.71.5-1.44 1.04-2.9 1.6-4.39.13-.35.29-.69.46-1.05a.01.01 0 0 0 .01-.01c1.41-2.8 4.06-5.08 7.14-5.19a2.265 2.265 0 0 1 .26-.01 14.228 14.228 0 0 1 4.51 1.04c.29.1.58.19.89.28a61.845 61.845 0 0 0 13.79 2.42c1.33.1 2.68.16 4.05.2.52.01 1.04.03 1.56.03.41.01.82.01 1.23.01a128.05 128.05 0 0 0 29.99-3.75c1.07-.27 2.11-.54 3.12-.83a10.69 10.69 0 0 0 .19 3.07c.42 3.35 1.31 9.09 2.36 15.52 1.13 6.88 2.44 14.54 3.56 20.86 1.19 6.78 2.17 12.02 2.46 13.13q4.02 15.48 8.79 30.74Z" class="colorf26027 svgShape"/><path fill="#d17705" d="M2350.438 1905.016c.39-5.79-2.85-12.28-7.31-18.01a62.558 62.558 0 0 0-12.94-12.42l-.09-.06c-.56-.39-1.1-.74-1.63-1.07-7.35-4.54-14.81-4.33-22.55-3.68-5.27.44-10.66 1.08-16.23.55 2.88-6.68 4.87-13.41 7.45-20.71.5-1.44 1.04-2.9 1.6-4.39.13-.35.29-.69.46-1.05a.01.01 0 0 0 .01-.01c1.41-2.8 4.06-5.08 7.14-5.19a2.265 2.265 0 0 1 .26-.01 14.228 14.228 0 0 1 4.51 1.04c.29.1.58.19.89.28a61.845 61.845 0 0 0 13.79 2.42c1.33.1 2.68.16 4.05.2.52.01 1.04.03 1.56.03.41.01.82.01 1.23.01 9.68.08 19.74-.77 29.76-1.33l3.54-.18c.42 3.35 1.31 9.09 2.36 15.52 1.13 6.88 2.44 14.54 3.56 20.86 1.19 6.78 2.17 12.02 2.46 13.13q4.02 15.48 8.79 30.74l-50.02 2.01c8.46-3.51 16.73-9.42 17.35-18.68Z" class="colorc73f00 svgShape"/><path fill="#fb600a" d="M2286.008 1796.016a16.017 16.017 0 0 1-9.61 5.34 4.278 4.278 0 0 1-3.29-1.05 6.995 6.995 0 0 1-.97-.99 9.085 9.085 0 0 1-.72-1 68.039 68.039 0 0 1 9.96-1.81c1.54-.19 3.08-.35 4.63-.49Z" class="colorf26027 svgShape"/><path fill="#fbb890" d="M2259.518 1784.266c-.13-.06-.26-.12-.39-.17-3.18-1.29-8.28-1.33-11.02-2.98a47.874 47.874 0 0 0 10.82-.3c.17 1.15.37 2.3.59 3.45Z" class="colorf2ad94 svgShape"/><path fill="#1c1103" d="M2319.248 1693.606a29.315 29.315 0 0 0-1.99 2.19 3.418 3.418 0 0 1 1.99-2.19Z" class="color031c1c svgShape"/><path fill="#1c1103" d="M2330.488 1744.186c4.65 11.26 12.1 28.83 5.03 40.69-2.51 4.2-6.97 6.88-9.66 11.23a62.417 62.417 0 0 0-5.38 10.83c.01-.11.03-.22.04-.33a47.393 47.393 0 0 1 5.04-16.21c2.04-3.89 4.66-7.58 5.62-11.87 1.06-4.69.02-9.6-1.38-14.19-2.92-9.54-18.45-29.91-13.5-40.5a72.248 72.248 0 0 0-5.08 14.93 24.157 24.157 0 0 1-4.32.09c-.09-7.55-.03-15.12 1.35-22.53 1.39-7.43 4.21-14.76 9.01-20.53a10.236 10.236 0 0 0-.37 4.24c1.44 15.52 7.72 29.9 13.6 44.15ZM2397.258 1799.556c-9.91 8.32-25.88 9.82-33.99-1.81-.19-.27-.38-.55-.55-.83a8.76 8.76 0 0 1-1.55-3.98c3.23-4.38 6.67-8.55 7.67-14.56a68.828 68.828 0 0 0 .27-20.86c.32 2.3 2.64 4.96 3.13 7.55.51 2.7.45 5.5.76 8.22.63 5.4 1.08 10.98 4.01 15.73 4.98 8.09 12.66 11.45 20.25 10.54ZM2405.998 1782.566a95.878 95.878 0 0 0-11.93-45.19c-7.01-12.69-17.43-23.11-27.7-33.35 4.82 8.31 9.77 17.03 10.27 26.63-4.14-10.59-9.57-23.36-17.22-31.94a46.552 46.552 0 0 0-9.87-8.1c7.97-.4 15.54-.73 22.5-1.01 1.96-.08 3.88-.15 5.76-.22a39.328 39.328 0 0 1 2.36 3.66c4.95 8.68 11.71 16.1 16.48 24.95 10.43 19.32 12.12 43.03 9.35 64.57Z" opacity=".68" class="color031c1c svgShape"/><path fill="#080502" d="m1956.998 1938.816-27.68 1.11-2.76-11.17-4.57-18.58a13.574 13.574 0 1 1 26.36-6.49l7.14 28.99Z" class="color070208 svgShape"/><path fill="#fbb890" d="m1971.838 1938.216-14.84.6-27.68 1.11-12.3.5a4.723 4.723 0 0 1 .27-.94 8.459 8.459 0 0 1 5-4.06c1.45-.18 1.67-.82 1.67-.82-.18-1.38 1.01-3.9 2.6-5.85 1.23-1.51 2.7-2.69 3.95-2.75 2.85-.13 13.96 5.3 15.29 5.27 1.33-.03 3.78-.35 5.4.42a28.837 28.837 0 0 0 4.29.98c4.74.88 11.79 2.01 13.37 2.76a12.442 12.442 0 0 1 2.98 2.78Z" class="colorf2ad94 svgShape"/><path fill="#533105" d="M2260.807 1982.375h154.343a2.819 2.819 0 0 1 2.819 2.818v20.18a2.82 2.82 0 0 1-2.82 2.82h-154.342a2.818 2.818 0 0 1-2.819-2.818v-20.181a2.82 2.82 0 0 1 2.82-2.82ZM3073.1 1969.467h154.344a2.82 2.82 0 0 1 2.82 2.82v20.179a2.818 2.818 0 0 1-2.819 2.818H3073.1a2.819 2.819 0 0 1-2.819-2.82v-20.177a2.82 2.82 0 0 1 2.82-2.82Z" class="color530905 svgShape"/><path fill="#fcdfcd" d="m2670.318 1784.986-.33-.09h-.01l-.26-.06c-4.42-1.01-9.03-.16-13.81 3.72-8.99 7.31-17.07 15.59-25.03 23.98-.68.72-1.31 1.42-1.88 2.11-.78-2.42-1.57-4.92-2.38-7.46-.35-1.1-.71-2.21-1.06-3.33-.06-.17-.11-.35-.17-.52-2.05-6.47-4.17-13.19-6.24-19.8-4.39-14.07-8.54-27.68-11.33-37.53-2.73-9.63-3.7-21.38-3.7-33.52a391.174 391.174 0 0 1 2.81-42.35c.57-5.06 1.14-9.72 1.62-13.79a3.221 3.221 0 0 0-.03-.43c-1.05-9.56-32.35-42.62-29.77-45.59 2.32-2.66 16.28 9.24 18.29 10.8 2.01 1.56-15.32-27.57-8.77-28.71 6.56-1.15 13.37 21.34 17.74 20.57 4.37-.76-7.37-36.13.78-37.55 8.14-1.42 8.29 29.86 11.7 32.51 3.41 2.65-.49-31.27 5.26-32.27 5.76-1.01 7.51 35.01 11.32 37.97 3.81 2.96 4.15-14.25 10.5-15.36 6.36-1.1-.57 15.3-.24 25.21.47 14.03-3.93 21.22-4.75 22.43.17 2.48.4 5.67.67 9.37.31 4.18.68 9 1.12 14.16 1.77 21.04 4.55 47.64 8.15 58.81 2.29 7.11 8.04 23.54 14.39 41.5.43 1.21.86 2.43 1.3 3.66 1.12 3.17 2.26 6.38 3.4 9.57a.031.031 0 0 1 .01.02c.23.66.46 1.32.7 1.97Z" class="colorfcdccd svgShape"/><path fill="#eaa378" d="M2629.522 1620.135a19.098 19.098 0 0 0-6.151 4.646 18.617 18.617 0 0 0-4.738 15.514c1.077-5.735 2.294-12.095 10.889-20.16Z" class="colorea9378 svgShape"/><path fill="#fcdfcd" d="M3003.618 1857.606c.8 3.45-31.28 13.56-34.92 20.69-.82 1.61-4.28 6.49-9.32 13.09-7.11 9.3-17.36 22-27.81 33.71l-60.96.57-15.12.15-1.81.01-16.04.16h-.01q-1.485-1.05-2.94-2.13c-4.34-3.17-8.49-6.37-12.28-9.47-10.51-8.59-18.32-16.45-19.9-21.24-5.13-15.57 1.27-32.08 11.58-34.23 3.63-.76 14.19 4.66 26.48 11.96 8.38 4.97 17.57 10.83 25.9 16.2.24.15.47.3.7.45 3.63 2.33 7.09 4.57 10.24 6.59q2.04 1.305 3.89 2.48c6.78 4.32 11.5 7.15 12.3 6.98 3.24-.67 48.82-41.92 48.82-41.92s-1.25-7.87 5.3-20.03c2.99-5.55 4.48-15.19 6.69-19.07.89-1.57 1.9-2.19 3.17-1.2a3.527 3.527 0 0 1 1.07 1.47c2 4.82-2.83 15.76.8 15 2.02-.42 6.87-7.51 11.74-14.2 4.98-6.83 9.98-13.25 11.99-11.68 1.68 1.31-.28 6.62-2.83 12.27-3.51 7.73-8.13 16.1-6.02 15.66 2.11-.45 7.2-8.98 12.22-15.25 3.65-4.58 7.26-7.96 9.64-6.11 1.48 1.15.98 3.63-.5 6.7-4.17 8.63-16.1 21.93-13.87 23.66 3.02 2.35 17.16-12.93 21.69-9.4 4.53 3.52-20.25 19.93-18.1 19.48 2.14-.44 17.5-4.4 18.21-1.35Z" class="colorfcdccd svgShape"/><path fill="#eaa378" d="M2958.806 1844.422a19.097 19.097 0 0 1 3.053 7.078 18.625 18.625 0 0 1-3.548 15.83c1.898-5.519 3.983-11.65.495-22.908Z" class="colorea9378 svgShape"/><path fill="#fbb890" d="M2676.318 1801.826a9.847 9.847 0 0 1-.89 1.05c-2.2 2.3-5.2 3.61-8.14 4.83-12.08 5-25.26 9.42-38.03 7.76-3.17-9.9-6.71-21.05-10.11-31.93a160.384 160.384 0 0 0 28.75-5.33c6.09-1.72 12.54-4.2 17.01-8.44 3.79 10.69 7.79 21.93 11.41 32.06Z" opacity=".7" class="colorf2ad94 svgShape"/><path fill="#d17705" d="M2709.308 1831.696c-.33 7.42-5.57 12.15-10.23 18.93-1.56 2.26-3 4.65-4.37 7.11-3.34 5.98-6.26 12.33-9.47 18.2-4.95 9.05-9.68 23.63-17.46 30.53a12.431 12.431 0 0 1-3.53 2.29 9.003 9.003 0 0 1-2.38.62c-6.02.63-11.24-5.71-15.68-11.08a99.078 99.078 0 0 1-10.3-15.15 104.325 104.325 0 0 1-12.76-43.61c-.7-10.97-.46-17.28 5.87-24.89.57-.69 1.2-1.39 1.88-2.11 7.96-8.39 16.04-16.67 25.03-23.98 4.78-3.88 9.39-4.73 13.81-3.72.2.05.4.09.6.15 4.03 1.07 7.9 3.66 11.58 6.86 4.86 4.21 9.4 9.5 13.57 13.79 5.31 5.46 10.44 11.46 12.74 18.73a20.762 20.762 0 0 1 1.1 7.33Z" class="colorc73f00 svgShape"/><path fill="#fbb890" d="M2959.378 1891.386c-7.11 9.3-17.36 22-27.81 33.71l-60.96.57-15.12.15-1.81.01-16.04.16h-.01q-1.485-1.05-2.94-2.13c-4.34-3.17-8.49-6.37-12.28-9.47a66.437 66.437 0 0 1-.11-14.17 41.905 41.905 0 0 1 4.01-14.9 35.898 35.898 0 0 1 14.26-14.44c8.38 4.97 17.57 10.83 25.9 16.2.24.15.47.3.7.45 3.63 2.33 7.09 4.57 10.24 6.59q2.04 1.305 3.89 2.48a45.266 45.266 0 0 0 6.85 16.64c2.07 3.1 4.77 6.85 7.85 9.02 2.94 2.07 6.55 1.95 10.19 1.9 11.23-.13 26.97-3.66 34.06-13.1 5.37-7.16 12.2-13.54 19.13-19.67Z" opacity=".7" class="colorf2ad94 svgShape"/><path fill="#d17705" d="M2868.088 1897.406a67.518 67.518 0 0 1-5.1 13.61c-1.96 4.08-4.13 8.08-6.1 12.09-.47.9-.93 1.81-1.4 2.71l-1.81.01-16.04.16h-.01l-76.06.72-59.4.56-47.81.45q2.145-5.4 4.34-10.71c.32-.79.64-1.57.97-2.35q1.095-2.655 2.2-5.28c8.16-19.51 16.35-37.63 23.34-51.68.66-1.33 1.31-2.62 1.94-3.87 4.65-9.14 8.68-16.22 11.68-20.37 2.2-3.06 3.85-4.53 4.78-4.07a54.209 54.209 0 0 0 5.7 2.31c.33.12.66.23 1.01.35.29.1.59.21.89.3.24.09.47.16.71.24.45.15.9.3 1.37.45 2.99.95 6.22 1.89 9.41 2.77.51.14 1.01.28 1.51.41a.497.497 0 0 1 .13.04c1.22.33 2.43.65 3.6.95.24.06.47.12.7.18.28.07.56.14.83.21.89.23 1.75.44 2.58.65a459.31 459.31 0 0 0 10.32 2.47c1.43.25 2.85.51 4.28.78 1.07.21 2.15.41 3.22.63 2.83.55 5.67 1.13 8.51 1.7q2.355.48 4.71.93c2.9.56 5.79 1.09 8.69 1.55.19.04.39.07.58.1 6.82 1.08 13.75.87 20.72.54 9.13-.44 18.32-1.11 27.45.58 21.11 3.91 36.97 18.93 45.87 38.29.27.57.52 1.14.77 1.71.01.02.01.03.02.05a16.478 16.478 0 0 1 1.42 4.72 15.273 15.273 0 0 1-.52 5.11Z" class="colorc73f00 svgShape"/><path fill="#ac6103" d="M2732.048 1838.246c-1.53 3.58-3.15 6.85-4.35 9.34a5.778 5.778 0 0 1-1.18 1.81c-1.72 1.57-4.45.64-6.53-.41a64.6 64.6 0 0 1-8.82-5.04c-5.23 5.25-11.16 8.67-16.46 13.79a45.009 45.009 0 0 0-3.18 3.39c-10.85 12.95-18.37 28.71-25.29 43.75-.6 1.31-1.27 2.61-1.99 3.88a60.76 60.76 0 0 1-5.55 8.25q1.575-3.855 3.17-7.63c-6.02.63-11.24-5.71-15.68-11.08a99.078 99.078 0 0 1-10.3-15.15 32.65 32.65 0 0 0 20.21-2.3c9.14-4.06 19.94-11.62 26.39-19.33a28.705 28.705 0 0 0 2.72-3.82 27.417 27.417 0 0 0 1.94-3.87 20.573 20.573 0 0 0 1.18-12.84c-1.44-5.65-5.69-10.7-5.25-16.51.11-1.4.31-3.19-.94-3.84a3.637 3.637 0 0 0-2.53.11c-5.94 1.53-12.36-1.78-15.97-6.75-3.61-4.96-4.87-11.26-5.29-17.39a36.377 36.377 0 0 0 23.55-4.76c4.86 4.21 9.4 9.5 13.57 13.79 5.31 5.46 10.44 11.46 12.74 18.73a20.762 20.762 0 0 1 1.1 7.33c6.69 2.38 15.78 4.82 22.74 6.55Z" class="colorac2a03 svgShape"/><path fill="#573e1e" d="M2858.958 1792.746c-2.29.03-6.33 3.05-10.69 5.83-3.49 2.24-7.19 4.33-10.38 4.63-19.61 1.85-28.53-7.8-34.45-22.69a145.302 145.302 0 0 0 14.63 32.11c2.65 4.32 5.84 8.04 11.07 9.82.6.2-5.65 5.69-11.3 10.41-1.24 1.03-2.45 2.02-3.55 2.92-.87.7-1.67 1.34-2.37 1.89a29.377 29.377 0 0 1-2.52 1.85c-6.4 3.49-12.06 3.62-18.16 3.68a73.753 73.753 0 0 0-11.45.73c-4.94.8-8.78 3.39-14.12 3.59-19.71.72-47.15-7.32-57.53-10.53-24.72-7.65-24.99-17.79-13.67-37.26-3.46 5.95-11.74 14.79-19.81 14.01-3.64-.35-6.74-3.69-9.15-7.22-2.86-4.17-4.77-8.6-5.54-8.69 24.88 3.03 27.19-35.8 30.16-51.57 4-21.17 17.64-47.89 39.78-53.4a37.288 37.288 0 0 1 20.4.9 12.159 12.159 0 0 1 2.06-1.52c10.3-6.06 29.54 2.29 37.97 7.71a46.528 46.528 0 0 1 18.11 20.93c6.41 15.5 6.98 29.74 10.53 45.35 3.52 15.54 23.48 26.73 39.98 26.52Z" class="color571e1e svgShape"/><path d="M2799.598 1780.661q-.006.154-.015.308c-.783 15.022-11.967 27.345-11.405 42.587.07 1.9.93 13.58 3.06 19.64a73.753 73.753 0 0 0-11.45.73c-4.94.8-8.78 3.39-14.12 3.59-19.71.72-47.15-7.32-57.53-10.53-24.72-7.65-24.99-17.79-13.67-37.26-3.46 5.95-11.74 14.79-19.81 14.01-3.64-.35-6.74-3.69-9.15-7.22a55.677 55.677 0 0 0 13.81-11.05c14.01-15.49 16.982-38.155 22.026-57.486 2.472-9.476 6.537-19.002 14.12-25.199-1.18.973-.792 8.073-1.126 9.78-.429 2.19-1.286 4.262-1.514 6.49-.713 6.978.412 13.68-1.126 20.705-.55 2.5-1.27 5.05-.94 7.59.34 2.63 1.77 4.98 3.23 7.19a124.267 124.267 0 0 0 7.56 10.26c2.97 3.61 6.25 7.15 10.49 9.13 4.38 2.04 9.37 2.24 14.21 2.23q9.075-.03 18.11-.85c3.7-.34 7.59-.85 10.58-3.06 5.1-3.77 6.54-11.69 12.44-14.02 3.98-1.572 8.799-2.846 7.724-8.346 2.378 6.725 4.789 13.663 4.496 20.781Z" opacity=".4" fill="#000000" class="color000 svgShape"/><path fill="#ac6103" d="M2793.078 1846.946c-7.65 3.42-15.19 7.94-18.68 14.7-2.05 3.97-6.36 6.21-10.59 7.66-18.02 6.2-43.43 4.05-50.7-16.94-.63-1.84-1-4.01.07-5.64a7.446 7.446 0 0 1 2.34-2.01 119.497 119.497 0 0 1 13.12-7.33c1.18.3 2.32.59 3.41.86a459.31 459.31 0 0 0 10.32 2.47c10 1.75 19.99 4.11 29.99 5.69 6.82 1.08 13.75.87 20.72.54Z" class="colorac2a03 svgShape"/><path fill="#fcdfcd" d="M2775.528 1798.286c-3.66 1.43-6.42 4.39-8.45 8.28a46.199 46.199 0 0 0-4.35 15.8c-1.42 12.24.2 25.75 2.69 32.47-11.97 5.49-56.89 13.22-44.74-13.83.41-.91.78-1.8 1.12-2.68 2.51-6.45 3.32-12.24 3.91-19.45.1-1.24 20.05-4.57 21.99-5.45 2.52-1.15 4.95-2.48 7.34-3.87 6.69-3.9 13.09-8.37 20.49-11.27Z" class="colorfcdccd svgShape"/><path fill="#fbb890" d="M2767.078 1806.566a46.199 46.199 0 0 0-4.35 15.8c-10.39 9.71-21.05 12.52-27.64 14.06a60.445 60.445 0 0 1-13.29 1.9c2.51-6.45 3.32-12.24 3.91-19.45.1-1.24 20.05-4.57 21.99-5.45 2.52-1.15 4.95-2.48 7.34-3.87Z" opacity=".7" class="colorf2ad94 svgShape"/><path fill="#fcdfcd" d="M2780.102 1781.211s2.93-18.7 14.082-13.807c11.154 4.893-.7 32.316-10.17 30.354-9.47-1.961-3.912-16.547-3.912-16.547Z" class="colorfcdccd svgShape"/><path fill="#fcdfcd" d="M2785.738 1767.786c-.85 11.5-4.16 22.47-8.35 29.86-12.56 22.18-29.33 24.82-37.76 25.84-8.43 1.03-28.87 3.52-38.97-24.81a51.48 51.48 0 0 1-2.26-8.76l-.03-.17a65.102 65.102 0 0 1-.08-19.41c.06-.47.13-.94.2-1.41a89.582 89.582 0 0 1 4.85-18.07c.31-.85.64-1.68.98-2.5.3-.72.6-1.42.91-2.12 4.25-9.67 9.57-17.53 14.08-21.83 11.63-11.09 29.39-7.23 29.39-7.23 30.64 2.55 38.76 27.62 37.04 50.61Z" class="colorfcdccd svgShape"/><path fill="#ffffff" d="M2878.538 1902.336c2.48 5.08-2.47 8.31-4.71 11.96-2.07 3.37-2.04 7.67-3.22 11.37l-15.12.15-1.81.01c.22-.34.44-.69.66-1.04a91.39 91.39 0 0 0 8.92-19.03 67.871 67.871 0 0 0 2.21-8.21 48.113 48.113 0 0 0 1-10.47c-.02-.42-.04-.85-.07-1.26-.03-.5-.07-.99-.12-1.48.39 2.43 3.36 3.56 5.82 3.37 2.14-.16 6.86-1.98 7.18 1.8.13 1.49-.73 2.87-1.55 4.12-.11.16-.21.33-.32.49a6.01 6.01 0 0 0-1.23 3.64c.17 1.72 1.6 3.02 2.36 4.58Z" class="colorfff svgShape"/><path fill="#fbb890" d="M2785.738 1767.786a35.924 35.924 0 0 1-12.81 8.32 17.917 17.917 0 0 0 .44-11.59c-1.08-3.56-3.24-6.67-4.86-10.01s-2.69-7.25-1.45-10.75c-1.78 2.59-.18 6.46-1.88 9.11-1.74 2.69-5.67 2.51-8.85 2.02q-6.99-1.11-13.99-2.2c-4.26-.67-9.07-1.69-11.28-5.4.07 3.07-2.78 5.57-5.77 6.24-3 .66-6.11-.06-9.11-.72s-6.16-1.26-9.1-.39a9.14 9.14 0 0 1-3.74-1.56c.31-.85.64-1.68.98-2.5.3-.72.6-1.42.91-2.12 4.25-9.67 9.57-17.53 14.08-21.83 11.63-11.09 29.39-7.23 29.39-7.23 30.64 2.55 38.76 27.62 37.04 50.61Z" opacity=".7" class="colorf2ad94 svgShape"/><path fill="#573e1e" d="M2792.468 1746.116a39.518 39.518 0 0 1-3.67 12.76c-2.83 6.1-7.08 12.07-12.16 16.04a26.804 26.804 0 0 1-3.64 2.39c3.71-2.01 4.73-6.6 3.86-10.44-.86-3.84-3.16-7.27-4.67-10.95a28.24 28.24 0 0 1 .96-23.39c-.19.09-.37.17-.56.27a21.439 21.439 0 0 0-11.44 14.08 17.775 17.775 0 0 0-.38 6.08l-2.35-.3q-6.435-.825-12.87-1.66a37.598 37.598 0 0 1-6.09-1.14 12.683 12.683 0 0 1-4.05-1.91c-6.13-4.5.57-13.78 3.08-18.85-5.68 6.59-9.34 13.99-14.02 21.01-.05-.02-.1-.03-.15-.05-4.46-1.42-8.98-2.72-12.83-4.27-.66-.26-1.3-.54-1.92-.83-8.26-3.78-12.36-9.27-3.56-21.15 7.96-10.72 19.61-25.69 34.38-28.64 9.75-1.95 26.67 5.94 33.98 11.6.01.01 19.57 15.19 19.57 15.19 4.24 3.29-1.09 19.54-1.47 24.16Z" class="color571e1e svgShape"/><path fill="#ffffff" d="M2739.47 1855.633c1.724-1.31 3.273-3.062 5.395-3.492 1.747-.354 3.52.271 5.27.613a17.001 17.001 0 0 0 15.502-5.112 26.097 26.097 0 0 1 1.673 8.33c-.059 2.844-1.216 5.826-3.618 7.351-2.055 1.305-4.636 1.356-7.07 1.361-10.092.021-20.984 2.78-30.93.076-7.55-2.053-17.941-18.09-12.562-26.118-1.672 2.495.954 6.463 3.903 5.9 1.654-.315 3.457-1.662 4.799-.645 1.807 1.37.136 4.776 1.484 6.619 1.12 1.53 3.34 1.385 4.75 2.413 3.224 2.345 7.526 5.648 11.405 2.704ZM2648.267 1785.343c-3.11.781-6.53 3.406-5.63 6.483-4.44-1.359-10.15-2.35-12.968 1.341-2.368 3.101-1.293 8.114-4.169 10.75-2.424 2.222-6.486 1.587-9.057 3.638a5.486 5.486 0 0 0 .082 8.256l-4.652.292c.048 5.839 11.711 5.895 11.554 11.731.074-2.727 7.051-9.085 8.844-11.215 3.064-3.643 6.255-7.185 9.662-10.51 7.92-7.73 18.431-18.525 30.272-18.275-3.7-.078-2.345-12.713-4.418-14.067-3.131-2.045-8.046 5.047-9.871 6.915-3.068 3.14-5.39 3.593-9.649 4.661Z" class="colorfff svgShape"/><path fill="#573e1e" d="M2727.162 1769.892c-1.125 1.741-2.211 3.504-3.318 5.255l-1.634 2.641-1.613 2.654c-.136.208-.27.47-.403.719a5.636 5.636 0 0 0-.353.776 5.5 5.5 0 0 0-.27.817 5.625 5.625 0 0 0-.174.846 6.498 6.498 0 0 0 .432 3.407 6.69 6.69 0 0 0 2.043 2.707c.234.16.46.327.695.474.25.126.495.256.743.37a3.353 3.353 0 0 0 1.6.321c.048-.154.01-.044.02-.08l-.005-.003-.01-.007-.021-.014-.041-.028-.082-.054-.163-.108-.323-.203-.598-.457-.543-.496-.486-.533a7.347 7.347 0 0 1-1.317-2.449 7.941 7.941 0 0 1-.356-2.692 4.201 4.201 0 0 1 .065-.684 4.036 4.036 0 0 1 .143-.677 3.966 3.966 0 0 1 .225-.66c.096-.215.176-.425.304-.661l1.423-2.76 1.402-2.772c.918-1.857 1.856-3.703 2.755-5.57ZM2767.412 1765.98a29.121 29.121 0 0 0-9.586-9.5 24.137 24.137 0 0 0-9.833-3.287c-1.337-.141-4.174-.827-4.42 1.293-.218 1.874 2.239 2.418 3.59 2.683 2.245.44 4.56.891 6.779 1.489a30.888 30.888 0 0 1 13.47 7.322ZM2743.986 1768.376a3.731 3.731 0 0 0 2.243 4.64 3.48 3.48 0 0 0 4.253-2.642 3.731 3.731 0 0 0-2.242-4.641 3.48 3.48 0 0 0-4.253 2.643ZM2711.605 1763.111c-.118 2.112 1.176 3.94 2.892 4.084s3.201-1.45 3.32-3.562-1.178-3.94-2.893-4.083-3.201 1.45-3.32 3.561ZM2741.143 1799.37c-.44 1.231-1.074 2.734-1.736 4.134a18.888 18.888 0 0 1-2.456 4.173 1.307 1.307 0 0 1-.186.159 9.836 9.836 0 0 1-1.176.71 16.89 16.89 0 0 1-9.568 1.38c-3.062-.466-4.574-1.521-5.377-3.015a6.045 6.045 0 0 1-.579-1.568c-.448-1.792-.448-4.004-.905-6.478-.047-.261.27-.495.877-.7 3.995-1.354 20.293-1.437 21.544-1.447.355-.01.112 1.111-.438 2.651Z" class="color571e1e svgShape"/><path fill="#573e1e" d="M2756.58 1768.833a15.322 15.322 0 0 0-1.396-1.29q-.723-.6-1.487-1.129a14.794 14.794 0 0 0-3.245-1.695 14.474 14.474 0 0 0-1.75-.552 4.776 4.776 0 0 0-1.853-.06 5.848 5.848 0 0 0-1.847.65 5.536 5.536 0 0 0-1.608 1.391l.058.166c.616-.108 1.18-.214 1.736-.272a15.282 15.282 0 0 1 1.642-.057l1.633.036a7.957 7.957 0 0 1 1.66.168 12.542 12.542 0 0 1 1.637.462 16.84 16.84 0 0 1 1.613.632 20.579 20.579 0 0 1 3.12 1.708ZM2707.828 1761.026a17.402 17.402 0 0 1 3.268-.83 14.398 14.398 0 0 1 1.638-.174 10.898 10.898 0 0 1 1.626.004 7.209 7.209 0 0 1 1.588.309l1.536.435a14.438 14.438 0 0 1 1.525.532c.51.218 1.016.488 1.57.775l.088-.15a6.389 6.389 0 0 0-1.223-1.873 6.115 6.115 0 0 0-1.597-1.19 4.42 4.42 0 0 0-1.747-.475 13.375 13.375 0 0 0-5.131.834q-.822.314-1.621.715a13.148 13.148 0 0 0-1.568.902ZM2704.186 1750.62a1.505 1.505 0 0 0-.331.961 52.94 52.94 0 0 1 9.26-.055c2.185.254 4.394.642 6.54 1.024 1.29.23 3.661.598 4.248-.93.657-1.723-2.11-2.105-3.34-2.427a26.335 26.335 0 0 0-9.946-.608c-1.573.215-5.3.57-6.431 2.035Z" class="color571e1e svgShape"/><path fill="#ee8449" d="M2736.951 1807.677a1.307 1.307 0 0 1-.186.159 9.836 9.836 0 0 1-1.176.71 16.89 16.89 0 0 1-9.568 1.38c-3.062-.466-4.574-1.521-5.377-3.015a6.045 6.045 0 0 1-.579-1.568 82.245 82.245 0 0 1 8.299.756c2.893.402 5.75.943 8.587 1.578Z" class="coloree6749 svgShape"/><path fill="#f99a62" d="M2712.718 1782.746c-.91 5.93-8.54 8.17-14.35 7a65.102 65.102 0 01-.08-19.41c6.89.89 15.4 6.05 14.43 12.41zM2771.954 1790.261c-.8 5.233-8.543 8.391-17.295 7.054s-15.2-6.663-14.4-11.896 8.543-8.392 17.295-7.054 15.2 6.663 14.4 11.896z" opacity=".55" class="colorf98262 svgShape"/><path fill="#ffffff" d="M2701.784 1775.472a2.113 2.113 0 01-2.307 1.78c.073-.77.161-1.539.249-2.308.018-.185.037-.375.06-.56l.017-.175c.044-.384.088-.769.137-1.152a.365.365 0 01.073.006 2.111 2.111 0 011.77 2.409zM2765.653 1783.09a2.115 2.115 0 11-1.771-2.41 2.115 2.115 0 011.77 2.41z" opacity=".47" class="colorfff svgShape"/><path d="M2812.998 1833.606c.41.73.83 1.47 1.29 2.17-.87.7-1.67 1.34-2.37 1.89a97.62 97.62 0 0 1-11.07-35.67 118.906 118.906 0 0 0 12.15 31.61ZM2848.268 1798.576c-3.49 2.24-7.19 4.33-10.38 4.63-19.61 1.85-28.53-7.8-34.45-22.69a145.302 145.302 0 0 0 14.63 32.11c2.65 4.32 5.84 8.04 11.07 9.82.6.2-5.65 5.69-11.3 10.41a44.285 44.285 0 0 1-3.76-5.58c-8.25-14.32-10.17-31.65-11.55-47.79.51-.32.31-2.16-.05-2.91a45.646 45.646 0 0 0 20.91 18.95c8.24 3.66 16.5 3.89 24.88 3.05ZM2709.568 1744.956c2.26-6.14 5.64-10.99 8.95-17.08-2.69 4.93-5.51 10.04-6.73 15.57a13.366 13.366 0 0 0-.3 2.34c-.66-.26-1.3-.54-1.92-.83ZM2743.788 1720.476c-2.55 2.71-3.8 6.84-4.52 10.64-1.18 6.28-1.5 13.04.19 18.74a12.683 12.683 0 0 1-4.05-1.91c-6.13-4.5.57-13.78 3.08-18.85-5.68 6.59-9.34 13.99-14.02 21.01-.05-.02-.1-.03-.15-.05a23.678 23.678 0 0 0 1.04-5.23 23.086 23.086 0 0 1 5.67-13.14 63.884 63.884 0 0 1 12.76-11.21ZM2743.788 1720.476a9.484 9.484 0 0 1 3.3-2.32c-1.1.77-2.21 1.54-3.3 2.32ZM2761.148 1746.876a17.775 17.775 0 0 0-.38 6.08l-2.35-.3a39.585 39.585 0 0 1 2.73-5.78ZM2776.548 1756.296a44.285 44.285 0 0 1 .09 18.62 26.804 26.804 0 0 1-3.64 2.39c3.71-2.01 4.73-6.6 3.86-10.44-.86-3.84-3.16-7.27-4.67-10.95a28.24 28.24 0 0 1 .96-23.39c-.19.09-.37.17-.56.27 3.16-3.05 6.53-5.89 9.88-8.72-8.36 7.07-7.95 22.58-5.92 32.22ZM2753.788 1696.576c1.04 2.65 2.32 5.25 3.43 7.5a26.529 26.529 0 0 0-8.35-8.69q-.315-.21-.63-.39c-4.67-2.7-12.13-2.09-17.3-2.13-.34 0-.69-.01-1.03-.01a37.288 37.288 0 0 1 20.4.9 12.159 12.159 0 0 1 2.06-1.52 36.005 36.005 0 0 0 1.42 4.34ZM2759.088 1708.046c-.46-1.1-1.13-2.45-1.87-3.97a21.288 21.288 0 0 1 1.87 3.97Z" opacity=".4" fill="#000000" class="color000 svgShape"/><path fill="#573e1e" d="M2832.014 1770.256a43.49 43.49 0 0 0 8.514 7.391 44.441 44.441 0 0 0 9.957 5.03 68.336 68.336 0 0 0 10.769 2.52 97.113 97.113 0 0 0 11.171 1.223l.04.281a27.827 27.827 0 0 1-11.575 1.308 35.013 35.013 0 0 1-11.248-3.227 46.272 46.272 0 0 1-9.951-5.992 41.425 41.425 0 0 1-7.899-8.358Z" class="color571e1e svgShape"/><path fill="#ac6103" d="M2620.448 1873.836c0 .48-.01.95-.01 1.43a2.26 2.26 0 0 1 .01-1.43ZM2702.168 1927.266l-47.81.45q2.145-5.4 4.34-10.71c.32-.79.64-1.57.97-2.35.21.09.41.18.62.27a169.587 169.587 0 0 0 41.88 12.34ZM2864.438 1904.726c-.73.64-1.15 3.22-1.45 6.29-1.96 4.08-4.13 8.08-6.1 12.09-.47.9-.93 1.81-1.4 2.71l-1.81.01-16.04.16h-.01l-76.06.72a.571.571 0 0 1 .12-.04c13.24-3.9 20.15-5.62 25.24-20.31a92.275 92.275 0 0 0 4.52-20.1c-.9 8.23 2.02 22.22 6.43 29.54 5.08 8.43 16.95 9.17 26.17 9.22a46.202 46.202 0 0 0 10.64-1.16 42.571 42.571 0 0 0 18.72-9.45q4.935-4.32 9.85-8.65c.39-.34.79-.68 1.18-1.03Z" class="colorac2a03 svgShape"/><path fill="#ffa30f" d="M1295.578 2297.746a245.786 245.786 0 0 0-17.16 90.55 248.556 248.556 0 0 0 1.47 27.02 42.348 42.348 0 0 1-41.98 47.15h-147.66c121.68-44.28 180.62-121.5 205.33-164.72ZM3014.828 2235.336a245.7 245.7 0 0 0-49.5 198.15 24.511 24.511 0 0 1-24.12 28.98h-1180.87a247.031 247.031 0 0 0 11.36-73.42c.28-92.89-51.83-174.76-128.49-217 231.22 117.18 346.55 173.65 823.9 172.49 272.5-.66 446.89-58.39 547.72-109.2ZM3655.068 2226.786v42.25a75.304 75.304 0 0 1-56.08 72.81l-123.37 32.59a18.175 18.175 0 0 1-3.01.26 17.665 17.665 0 0 1-17.49-15.81c-9.32-85.21-63.03-156.32-137.26-192.17 161.16 57.38 267.31 69.44 337.21 60.07Z" class="colorf28b0f svgShape"/><path fill="#72450c" d="M1743.934 1914.809q7.65 26.758 14.55 53.73 6.974 26.95 13.327 54.058 6.404 27.096 12.214 54.334 5.835 27.231 11.032 54.604 5.175 27.375 9.573 54.904c2.964 18.345 5.624 36.749 7.833 55.217 1.165 9.227 2.101 18.485 3.08 27.738.833 9.27 1.723 18.537 2.317 27.836 1.278 18.585 2.075 37.235 1.787 55.937l-4.177-4.17c54.64-1.132 109.277-2.351 163.92-3.27l81.965-1.441 81.967-1.241q81.97-1.112 163.948-1.904c54.652-.488 109.306-.867 163.968-.838-54.62 2.161-109.247 3.914-163.876 5.558q-81.944 2.495-163.897 4.492l-81.954 1.957-81.958 1.755c-54.637 1.214-109.281 2.127-163.923 3.126l-4.244.078.067-4.247c.29-18.4-.29-36.85-1.403-55.282-.508-9.22-1.312-18.427-2.06-27.638-.892-9.201-1.741-18.407-2.82-27.595-2.084-18.38-4.42-36.745-7.117-55.064q-3.993-27.485-8.757-54.869c-6.184-36.536-13.358-72.912-20.886-109.22-7.647-36.283-15.69-72.496-24.476-108.545Z" class="color72120c svgShape"/><path fill="#ffa30f" d="M2475.224 2313.567c-28.755-215.78-40.409-450.02 3.725-664.211Z" class="colorf28b0f svgShape"/><path fill="#72450c" d="M2482.665 1646.744c-.232.027-.378.243-.48.434a4 4 0 0 0-.263.621 12.652 12.652 0 0 0-.352 1.306 36.647 36.647 0 0 0-.467 2.667 110.524 110.524 0 0 0-.613 5.383c-.332 3.598-.572 7.204-.782 10.812-.414 7.216-.7 14.439-.946 21.663q-.706 21.675-1.099 43.36-.771 43.37-1.113 86.749l-.568 86.757-.307 86.761-.295 173.524-.013 173.522-4.235-4.128 119.93-3.19 119.935-2.968 119.938-2.865 119.941-2.714-3.456 3.167c.338-2.585.76-4.928 1.226-7.356q.695-3.607 1.531-7.166 1.66-7.125 3.752-14.115a273.057 273.057 0 0 1 37.913-78.35 256.885 256.885 0 0 1 38.521-43.49 263.339 263.339 0 0 1 47.168-33.766 293.714 293.714 0 0 1 53.083-23.105l6.906-2.166c2.298-.734 4.64-1.32 6.957-1.988 4.628-1.36 9.331-2.432 14.008-3.596 2.338-.584 4.71-1.027 7.061-1.548 2.361-.478 4.702-1.055 7.08-1.45 4.743-.84 9.466-1.79 14.24-2.434a452.206 452.206 0 0 1 57.473-4.86 564.316 564.316 0 0 1 57.571 1.908c-38.308-2.16-76.893-.977-114.622 5.546-4.727.742-9.402 1.752-14.094 2.67-2.351.432-4.664 1.046-6.997 1.56-2.324.557-4.666 1.036-6.973 1.655-4.616 1.234-9.256 2.375-13.814 3.801-2.282.7-4.59 1.32-6.85 2.086l-6.793 2.26a297.562 297.562 0 0 0-51.982 23.606 255.307 255.307 0 0 0-82.998 76.746 264.966 264.966 0 0 0-26.949 49.998 262.136 262.136 0 0 0-9.323 26.841q-1.96 6.825-3.51 13.742-.771 3.455-1.41 6.925c-.418 2.288-.816 4.676-1.078 6.852l-.372 3.079-3.086.088-119.923 3.433-119.927 3.284-119.93 3.18-119.936 2.957-4.238.104.003-4.233c.033-57.856.391-115.702.783-173.552q.526-86.774 1.77-173.544c.355-28.923.883-57.846 1.395-86.768q.785-43.383 1.869-86.762c.745-28.919 1.557-57.837 2.714-86.746.584-14.453 1.186-28.908 2.04-43.35.426-7.222.893-14.442 1.489-21.652.3-3.605.63-7.208 1.053-10.802.212-1.797.447-3.591.748-5.376.151-.892.318-1.782.535-2.661a12.633 12.633 0 0 1 .386-1.302 4.04 4.04 0 0 1 .281-.618c.107-.19.26-.405.494-.426Z" class="color72120c svgShape"/><path fill="#ffffff" d="m1278.053 2101.011-103.117 34.884c-29.252 9.91-61.044 5.378-87.925 16.331 32.877-19.42 65.893-33.373 99.33-50.715 28.585-14.826 60.494-30.095 91.71-22.191 5.778 1.462 12.408 5.213 12.07 11.164-.321 5.678-6.68 8.705-12.068 10.527ZM3665.228 2002.836v71.04a164.094 164.094 0 0 1-16.36-18.49c-5.07-6.68-9.91-14.01-17.29-17.99-24.72-13.33-104.36 2.64-134.32-18.35a16.143 16.143 0 0 1 16.14-16.21Z" class="colorfff svgShape"/><path fill="#ffb53e" d="M1867.808 1769.466c-41.25 39.8-82.78 79.31-125.5 117.27-64.53 57.33-151.04 54.37-233.19 66.97q-46.92 7.185-93.81 14.66c157.64-52.46 306.45-128.9 306.45-128.9s62.89-30.82 146.05-70Z" class="colorffc83e svgShape"/><path fill="#ffffff" d="m2174.968 1720.526-71.64 212.41-131.49 5.28-14.84.6-21.2.85 40.45-119.92c64.06-36.25 140.28-75.69 198.72-99.22ZM2410.148 1697.016a30.236 30.236 0 0 1 9.19 21.95v168.8a34.398 34.398 0 0 1-6.41 20.15 32.111 32.111 0 0 1-24.88 13.57l-4.94.2-50.02 2.01-23.54.95-10.07.4 79.49-235.71q5.52-.21 10.55-.37c.31-.01.62-.01.93-.01a28.158 28.158 0 0 1 19.7 8.06ZM2549.978 1672.276l-43.13 127.89c-.77-47.72-.7-95.18-.69-101.01.68-3.59 5.77-25.96 28.7-26.26 2.65-.04 7.55-.27 14.97-.61a.751.751 0 0 0 .15-.01ZM2968.438 1703.326l-74.91 222.13-22.92.21-15.12.15-1.81.01-16.04.16h-.01l-76.06.72-33.83.32 85.05-252.18c16.93 1.38 34 3.08 50.99 5.15a550.41 550.41 0 0 1 104.66 23.33Z" opacity=".65" class="colorfff svgShape"/><path fill="#f5f4f3" d="M3828.878 2216.052c15.69-12.74 26.728-54.948 37.364-73.989 13.92-24.918 24.253-49.402 55.252-55.975 42.668-9.048 101.468 11.945 112.059 58.922 17.559 77.89-54.125 54.185-96.72 63.88-41.234 9.384-11.559 39.728-21.065 63.31-5.836 14.475-4.44 12.66-21.082 14.526-10.952 1.23-20.934-8.95-30.782-10.327-16.93-2.367-32.896 3.07-50.022 3.665-33.597 1.165-30.541-23.733-52.945-34.467-22.286-10.678-37.956 7.793-58.978-6.188 19.953 13.27 29.315-8.14 47.11-13.12 15.357-4.293 31.666-.677 47.612-.647 11.298.02 23.752-2.733 32.197-9.59Z" class="colorf3f5f4 svgShape"/><path fill="#ffb53e" d="M3654.848 1961.556c-27.02-23.51-57.64-36.61-97.95-43.65-58.26-10.17-109.39-39.97-169.44-50.86-89.68-16.27-141.62-90.46-181.67-169.01 20.16 12.98 39.44 26.88 58.22 41.55 108.34 84.65 296.26 148.98 296.26 148.98l34.14 6.1a73.582 73.582 0 0 1 60.44 66.89Z" class="colorffc83e svgShape"/></svg>