<svg xmlns="http://www.w3.org/2000/svg" viewBox="0 0 4000 3000"><defs><clipPath id="c"><path fill="none" stroke="#5c4d3a" stroke-linecap="round" stroke-linejoin="round" stroke-width="6" d="M1028.5873,1524.9239s46.0271,24.155,109.8391,73.4275l2.1655,83.2308,24.8743-61.6576q14.4846,11.9352,29.7276,25.3937" class="colorStroke3a4d5c svgStroke"/></clipPath><clipPath id="d"><path fill="none" stroke="#5c4d3a" stroke-linecap="round" stroke-linejoin="round" stroke-width="6" d="M1188.5416,1453.7s41.1261,31.79,95.3989,91.4073l-12.3392,82.34,35.216-56.3935q12.1887,14.2718,24.86,30.1757" class="colorStroke3a4d5c svgStroke"/></clipPath><clipPath id="e"><path fill="#fbb890" d="M2034.0228,509.7718h-61.4294a112.0211,112.0211,0,0,0-224.0421,0H1687.119a143.3506,143.3506,0,0,0-143.3484,143.35v16.1757a24.423,24.423,0,0,0,24.4247,24.4233h584.754a24.4224,24.4224,0,0,0,24.4219-24.4233V653.1216A143.3487,143.3487,0,0,0,2034.0228,509.7718Z" class="colorffc969 svgShape"/></clipPath><clipPath id="a"><path fill="none" stroke="#5c4d3a" stroke-linecap="round" stroke-linejoin="round" stroke-width="6" d="M533.5945,2194.725s48.4091-18.9344,127.4455-34.8407l64.2843,52.9112-30.2688-59.1962q18.5073-3.1183,38.6625-5.8114" class="colorStroke3a4d5c svgStroke"/></clipPath><clipPath id="b"><path fill="none" stroke="#5c4d3a" stroke-linecap="round" stroke-linejoin="round" stroke-width="6" d="M726.5948,1782.0316s51.7913,4.429,129.7121,25.12l34.2531,75.8867-.9657-66.4789q17.978,5.3886,37.2457,11.8878" class="colorStroke3a4d5c svgStroke"/></clipPath><clipPath id="f"><path fill="#fb600a" d="M1334.2935,2358.2313l-81.8166,71.444c-37.0449,1.2842-76.4738,1.5569-117.26.2334l70.5009-60.105-103.6741,58.6744c-42.69-2.2879-86.5047-6.4251-130.3071-13.0479l56.3776-48.0646-78.5977,44.4824c-53.9568-9.2229-107.5929-22.3712-158.7579-40.6411l81.0742-69.1193-105.708,59.8254c-58.0545-23.0281-112.3508-53.1194-159.595-92.0826l45.04-38.3992-54.1974,30.673a462.0326,462.0326,0,0,1-63.7781-67.3792s48.4091-18.9344,127.4455-34.8407l64.2843,52.9112-30.2688-59.1962a1089.9944,1089.9944,0,0,1,144.1135-14.5718l35.1868,65.0675-10.7646-65.5968c27.2739-.28,55.6141.5049,84.7761,2.6618l23.15,42.8085-6.8034-41.4572A931.2669,931.2669,0,0,1,1082.45,2160.768l55.3364,90.6919-24.4276-83.2425a861.7731,861.7731,0,0,1,115.7929,38.9979l42.4714,69.6072-17.1781-58.5383c88.7042,40.5544,177.3783,99.6381,260.6273,183.9629,0,0-94.4971,18.8283-227.6434,25.8943Z" class="color1daa8c svgShape"/></clipPath><clipPath id="g"><path fill="#fb600a" d="M632.1111,2588.4363,533.5945,2194.725s622.7819,52.5851,981.4773,207.5221-37.1161,333.7354-37.1161,333.7354L784.8624,2521.1194l-91.8539-47.2606" class="color1daa8c svgShape"/></clipPath><clipPath id="h"><path fill="none" stroke="#5c4d3a" stroke-linecap="round" stroke-linejoin="round" stroke-width="6" d="M863.5912,2138.4982c27.2739-.28,55.6141.5049,84.7761,2.6618l23.15,42.8085-6.8034-41.4572c29.9447,2.722,60.6855,6.921,91.9638,12.9227" clip-path="url(#a)" class="colorStroke3a4d5c svgStroke"/></clipPath><clipPath id="i"><path fill="none" stroke="#5c4d3a" stroke-linecap="round" stroke-linejoin="round" stroke-width="6" d="M632.1111,2588.4363,533.5945,2194.725s622.7819,52.5851,981.4773,207.5221-37.1161,333.7354-37.1161,333.7354L784.8624,2521.1194l-91.8539-47.2606" class="colorStroke3a4d5c svgStroke"/></clipPath><clipPath id="j"><path fill="#fb600a" d="M1372.4041,2282.8146l-104.9779,27.89c-33.7926-15.2327-69.2759-32.427-105.2708-51.6533l89.814-22.7249-118.9334,6.77c-37.2755-20.9331-74.7421-44.0224-111.0981-69.3355l71.8218-18.1727-90.1661,5.1323c-44.3133-32.1361-86.6028-67.651-124.4108-106.6664l103.2839-26.1333L861.2,2034.8231c-41.8824-46.33-77.27-97.3326-102.41-153.1731l57.3791-14.5186-62.1745,3.5391a462.0227,462.0227,0,0,1-27.4-88.6389s51.7913,4.429,129.7121,25.12l34.2531,75.8867-.9657-66.4789a1089.9731,1089.9731,0,0,1,135.6965,50.67l2.78,73.92,19.3581-63.5931c24.585,11.8121,49.6555,25.05,74.8562,39.8827l1.8288,48.6326,12.2342-40.1909a931.2663,931.2663,0,0,1,97.5194,68.447l9.5179,105.8137,14.9086-85.462a861.7732,861.7732,0,0,1,86.6034,86.19l7.3052,81.2134,10.4841-60.099c61.62,75.6048,115.0173,167.8148,152.3854,280.2634,0,0-93.0794-24.9082-215.62-77.46Z" class="color1daa8c svgShape"/></clipPath><clipPath id="k"><path fill="#fb600a" d="M640.8185,2178.7135l85.7763-396.6819s535.2991,322.61,788.477,620.2155S1334.1766,2685.15,1334.1766,2685.15L807.5905,2185.8986l-61.4785-83.0125" class="color1daa8c svgShape"/></clipPath><clipPath id="l"><path fill="none" stroke="#5c4d3a" stroke-linecap="round" stroke-linejoin="round" stroke-width="6" d="M1047.4286,1877.5564c24.585,11.8121,49.6555,25.05,74.8562,39.8827l1.8288,48.6326,12.2342-40.1909c25.6527,15.6855,51.3661,33.0477,76.7643,52.2644" clip-path="url(#b)" class="colorStroke3a4d5c svgStroke"/></clipPath><clipPath id="m"><path fill="none" stroke="#5c4d3a" stroke-linecap="round" stroke-linejoin="round" stroke-width="6" d="M640.8185,2178.7135l85.7763-396.6819s535.2991,322.61,788.477,620.2155S1334.1766,2685.15,1334.1766,2685.15L807.5905,2185.8986l-61.4785-83.0125" class="colorStroke3a4d5c svgStroke"/></clipPath><clipPath id="n"><path fill="#fb600a" d="M1429.8412,2236.8568,1322.259,2221.882c-25.2481-27.1388-51.2944-56.7411-77.0249-88.4149l91.6019,13.8592-112.2619-39.8528c-26.25-33.7434-51.8394-69.5487-75.5438-106.9735l73.2517,11.0826-85.1084-30.2133c-28.3953-46.7986-53.6156-95.9274-73.3481-146.5463l105.34,15.9375-114.4643-40.6347c-20.6537-58.9409-33.5094-119.6724-35.0424-180.8916l58.5214,8.8539-58.6869-20.8338a462.0262,462.0262,0,0,1,9.0941-92.33s46.0271,24.155,109.8391,73.4275l2.1655,83.2308,24.8743-61.6576a1089.9988,1089.9988,0,0,1,105.4535,99.3006l-26.0858,69.22,42.4911-51.1206c18.0857,20.417,36.0663,42.3369,53.549,65.7768l-17.1621,45.5405,26.8544-32.3083a931.2457,931.2457,0,0,1,63.3707,100.8919l-32.2349,101.2327,46.8649-73.0049a861.763,861.763,0,0,1,46.4314,113.0176l-24.7407,77.6973,32.9566-51.3388c27.5027,93.5771,40.99,199.2752,31.8575,317.4177,0,0-76.1514-59.0352-168.7482-154.9712Z" class="color1daa8c svgShape"/></clipPath><clipPath id="o"><path fill="#fb600a" d="M795.7776,1857.36l232.81-332.4361S1397.02,2029.78,1515.0718,2402.2471s-276.3985,190.6851-276.3985,190.6851L946.731,1928.6173l-24.5016-100.3512" class="color1daa8c svgShape"/></clipPath><clipPath id="p"><path fill="none" stroke="#5c4d3a" stroke-linecap="round" stroke-linejoin="round" stroke-width="6" d="M1287.325,1737.3246c18.0857,20.417,36.0663,42.3369,53.549,65.7768l-17.1621,45.5405,26.8544-32.3083c17.5688,24.4015,34.5438,50.3721,50.5094,77.93" clip-path="url(#c)" class="colorStroke3a4d5c svgStroke"/></clipPath><clipPath id="q"><path fill="none" stroke="#5c4d3a" stroke-linecap="round" stroke-linejoin="round" stroke-width="6" d="M795.7776,1857.36l232.81-332.4361S1397.02,2029.78,1515.0718,2402.2471s-276.3985,190.6851-276.3985,190.6851L946.731,1928.6173l-24.5016-100.3512" class="colorStroke3a4d5c svgStroke"/></clipPath><clipPath id="r"><path fill="#fb600a" d="M1459.8966,2224.5566l-103.34-33.4525c-20.1447-31.1154-40.6472-64.7956-60.4785-100.4608l87.7968,29.5754-103.6225-58.7653c-19.9825-37.7935-38.9571-77.5028-55.7931-118.4792l70.2088,23.65-78.5586-44.5513c-19.8257-51.0229-36.12-103.7886-46.75-157.0674l100.9642,34.0107-105.6554-59.9182c-10.0907-61.6343-12.1911-123.676-3.0562-184.2292l56.0905,18.8944-54.17-30.7206a462.0308,462.0308,0,0,1,25.0094-89.3428s41.1261,31.79,95.3989,91.4073l-12.3392,82.34,35.216-56.3935a1089.9937,1089.9937,0,0,1,86.5814,116.1237l-37.7241,63.63,50.7325-42.9538c14.26,23.2506,28.1556,47.963,41.2965,74.0856l-24.819,41.8628,32.0628-27.1469a931.2316,931.2316,0,0,1,44.8629,110.3736l-49.3456,94.0859,58.8447-63.7442a861.7618,861.7618,0,0,1,26.0733,119.3693l-37.8734,72.212,41.3811-44.8265c10.8131,96.9338,5.717,203.367-23.8186,318.122,0,0-64.7268-71.3768-139.2323-181.9516Z" class="color1daa8c svgShape"/></clipPath><clipPath id="s"><path fill="#fb600a" d="M901.476,1740.593,1188.5416,1453.7s275.0392,561.2272,326.53,948.5469-305.3436,139.7219-305.3436,139.7219L1037.74,1837.0118l-6.68-103.0828" class="color1daa8c svgShape"/></clipPath><clipPath id="t"><path fill="none" stroke="#5c4d3a" stroke-linecap="round" stroke-linejoin="round" stroke-width="6" d="M1406.4071,1707.8535c14.26,23.2506,28.1556,47.963,41.2965,74.0856l-24.819,41.8628,32.0628-27.1469c13.0585,27.0846,25.2592,55.6112,36.19,85.5256" clip-path="url(#d)" class="colorStroke3a4d5c svgStroke"/></clipPath><clipPath id="u"><path fill="none" stroke="#5c4d3a" stroke-linecap="round" stroke-linejoin="round" stroke-width="6" d="M901.476,1740.593,1188.5416,1453.7s275.0392,561.2272,326.53,948.5469-305.3436,139.7219-305.3436,139.7219L1037.74,1837.0118l-6.68-103.0828" class="colorStroke3a4d5c svgStroke"/></clipPath><clipPath id="v"><rect width="1342.821" height="1864.007" x="1189.161" y="571.426" fill="#eb8141" rx="86.325" class="color4191eb svgShape"/></clipPath><clipPath id="w"><path fill="#fbb890" d="M1860.5709,555.7594a45.9869,45.9869,0,1,1,45.9875-45.9876A45.9855,45.9855,0,0,1,1860.5709,555.7594Z" clip-path="url(#e)" class="colorffc969 svgShape"/></clipPath><clipPath id="x"><path fill="#f8a574" d="M1687.1228,1886.699c30.7577-4.3227,55.62,19.0661,55.5584,52.2082l-.8112,436.7621c-.0616,33.1422-25.0238,63.5333-55.7815,67.856l-565.4755,79.4724c-30.7577,4.3228-55.62-19.066-55.5585-52.2081l.8113-436.7622c.0615-33.1421,25.0237-63.5333,55.7814-67.856Z" class="colorf8749b svgShape"/></clipPath><clipPath id="y"><path fill="#fffefd" stroke="#5c4d3a" stroke-linecap="round" stroke-linejoin="round" stroke-width="6" d="M3119.1412,1640.0519c67.0332-39.125,164.5488-79.4675,237.4326-85.2683-17.2049,27.0194-215.7811,133.8-241.0615,155.9809Z" class="colorfdfffe svgShape colorStroke3a4d5c svgStroke"/></clipPath><clipPath id="z"><path fill="#fcf4f0" d="M3172.4982,1610.7257c2.0143-4.3227,48.3867,112.8756,17.2093,112.9121-99.6732,37.0413-166.276,97.6513-240.7019,72.7335-13.4652,9.0093-165.7191-233.22-176.004-240.8376l134.5914-81.38,119.82,198.6975Z" class="colorf0f3fc svgShape"/></clipPath><clipPath id="A"><path fill="#fffefd" stroke="#5c4d3a" stroke-linecap="round" stroke-linejoin="round" stroke-width="6" d="M2902.7812,1272.7271c-162.124,198.0522-149.8774,116.9248-32.2891,244.025C2989.4164,1306.5135,2988.2884,1365.904,2902.7812,1272.7271Z" class="colorfdfffe svgShape colorStroke3a4d5c svgStroke"/></clipPath><clipPath id="B"><path fill="#fffefd" stroke="#5c4d3a" stroke-linecap="round" stroke-linejoin="round" stroke-width="6" d="M3118.6965,2373.53c2.1916,3.3937,46.0723,162.5229,46.0723,162.5229l98.6205-54.6907-34.3142-207.243Z" class="colorfdfffe svgShape colorStroke3a4d5c svgStroke"/></clipPath><clipPath id="C"><path fill="#fffefd" stroke="#5c4d3a" stroke-linecap="round" stroke-linejoin="round" stroke-width="6" d="M2044.5326,2207.525c-4.2414-.0636-160.5305-49.4447-160.5305-49.4447l-28.5292,106.5591,187.0276,82.3031Z" class="colorfdfffe svgShape colorStroke3a4d5c svgStroke"/></clipPath><clipPath id="D"><path fill="#fb600a" d="M2469.5517,2097.1876l530.3456-55.3048,127.9069,407.4351s98.0061,6.21,172.0729-90.7052L3180.27,1919.3279c-10.33-37.94-41.5748-64.3824-81.2259-68.7407l-506.3469-55.6559Z" class="color1daa8c svgShape"/></clipPath><clipPath id="E"><path fill="#fb600a" d="M1988.0333,2188.6826s-58.7015,76.6682-36.61,179.7947l421.2566,87.9094c65.3239,13.632,136.2265-29.051,160.0939-96.3758l173.4872-552.5971L2401.6157,1793.98l-54.5279,480.4267Z" class="color1daa8c svgShape"/></clipPath><clipPath id="F"><path fill="#fb600a" d="M2906.6166,1464.1661s-32.5193-94.8044-152.9726-77.923c-159.2007,22.3118-273.2783,211.0874-268.72,411.41,0,0,81.8614,106.5333,240.5075,17.6257C2695.2135,1653.4792,2905.2739,1615.4314,2906.6166,1464.1661Z" class="color1daa8c svgShape"/></clipPath><clipPath id="G"><path fill="#fcf4f0" d="M2055.0533,2102.3394c64.2587,73.5114,186.9795,222.7911,381.1361,300.801,0,0,401.6278-634.1733,429.62-855.2561l22.193-79.3339-50.574-100.0332C2257.4078,1309.0863,2545.0459,1961.6,2055.0533,2102.3394Z" class="colorf0f3fc svgShape"/></clipPath><clipPath id="H"><polygon fill="#fcddcb" points="2461.187 1788.284 2352.659 1940.371 2505.69 2024.545 2610.322 1857.198 2461.187 1788.284" class="colorcbddfc svgShape"/></clipPath><clipPath id="I"><path fill="#fffefd" stroke="#5c4d3a" stroke-linecap="round" stroke-linejoin="round" stroke-width="6" d="M2978.0033,1633.6665c23.1166-7.6965,100.8029-82.5055,119.3361-94.7139,68.0985-36.1063,169.2652,10.1424,57.2116,4.4842-1.33,1.6929,31.9233,12.7063,25.9217,23.1013,35.72,18.5837-43.898,11.6075-40.3268,18.8333-48,58.7121-130.9093,80.7787-178.1236,102.5443Z" class="colorfdfffe svgShape colorStroke3a4d5c svgStroke"/></clipPath><clipPath id="J"><rect width="294.068" height="294.068" x="2421.207" y="1020.28" fill="#ffffff" stroke="#5c4d3a" stroke-linecap="round" stroke-linejoin="round" stroke-width="6" rx="26.778" class="colorfff svgShape colorStroke3a4d5c svgStroke"/></clipPath></defs><g style="isolation:isolate"><path fill="#fbb890" d="M1270.02,2161.1363c-85.1363-105.72-229.3526-68.6826-265.0541-293.7819s-84.5469-298.81-84.5469-298.81h0s82.5331,195.6964,100.6651,328.9425,142.7781,180.3294,202.7568,207.4411S1270.02,2161.1363,1270.02,2161.1363Z" class="colorffc969 svgShape"/><path fill="#fbb890" d="M1042.1646 2060.2626c42.581 8.7155 52.9476-13.3541 52.9476-13.3541S1074.3084 2002.4155 1042.1646 2060.2626zM1051.0735 1907.9753c-15.8746 54.75-2.5179 73.5734-2.5179 73.5734S1084.954 1963.9367 1051.0735 1907.9753zM1205.4071 2012.9312c-21.8845 65.0411-5.6567 86.2163-5.6567 86.2163S1246.2938 2076.2526 1205.4071 2012.9312zM1123.5384 2114.1677c33.4409-13.0231 36.026-34.0955 36.026-34.0955S1133.985 2056.6608 1123.5384 2114.1677zM974.9941 1886.0032c26.5809 30.6624 40.8 21.82 40.8 21.82S1015.693 1865.7214 974.9941 1886.0032zM936.2222 1703.8394c26.5809 30.6624 40.8 21.82 40.8 21.82S976.9212 1683.5576 936.2222 1703.8394zM1014.4928 1759.84c-21.6509 37.218-14.787 56.4112-14.787 56.4112S1030.4665 1814.92 1014.4928 1759.84zM886.31 1564.5441c26.5809 30.6624 40.8 21.82 40.8 21.82S927.0092 1544.2624 886.31 1564.5441z" class="colorffc969 svgShape"/><path fill="none" stroke="none" stroke-miterlimit="10" stroke-width="6" d="M957.4623 1712.0132l5.3569 3.9419M1052.3876 1942.9825v10.6419M1138.193 2097.9643a5.63 5.63 0 002.6452-3.3379M1213.4415 2068.7206l-.6484 2.0008"/><path fill="#fb600a" d="M1334.2935,2358.2313l-81.8166,71.444c-37.0449,1.2842-76.4738,1.5569-117.26.2334l70.5009-60.105-103.6741,58.6744c-42.69-2.2879-86.5047-6.4251-130.3071-13.0479l56.3776-48.0646-78.5977,44.4824c-53.9568-9.2229-107.5929-22.3712-158.7579-40.6411l81.0742-69.1193-105.708,59.8254c-58.0545-23.0281-112.3508-53.1194-159.595-92.0826l45.04-38.3992-54.1974,30.673a462.0326,462.0326,0,0,1-63.7781-67.3792s48.4091-18.9344,127.4455-34.8407l64.2843,52.9112-30.2688-59.1962a1089.9944,1089.9944,0,0,1,144.1135-14.5718l35.1868,65.0675-10.7646-65.5968c27.2739-.28,55.6141.5049,84.7761,2.6618l23.15,42.8085-6.8034-41.4572A931.2669,931.2669,0,0,1,1082.45,2160.768l55.3364,90.6919-24.4276-83.2425a861.7731,861.7731,0,0,1,115.7929,38.9979l42.4714,69.6072-17.1781-58.5383c88.7042,40.5544,177.3783,99.6381,260.6273,183.9629,0,0-94.4971,18.8283-227.6434,25.8943Z" class="color1daa8c svgShape"/><g clip-path="url(#f)" fill="none"><path fill="#fb600a" d="M632.1111,2588.4363,533.5945,2194.725s622.7819,52.5851,981.4773,207.5221-37.1161,333.7354-37.1161,333.7354L784.8624,2521.1194l-91.8539-47.2606" class="color1daa8c svgShape"/><g clip-path="url(#g)" fill="none"><path d="M1396.5588,2280.1088c269.3647,96.4635-231.6379,151.4333-112.3617,183.63s511.6944,50.9752,511.6944,50.9752l64.4409-110.6336-363.6632-153.8836" style="mix-blend-mode:soft-light" fill="#514433" class="color383351 svgShape"/></g></g><path fill="none" stroke="none" stroke-miterlimit="10" stroke-width="6" d="M1131.689 2342.78a144.4063 144.4063 0 01-28.5023 27.6464M923.513 2194.9712l5.9 5.9567M756.7981 2269.8492a55.2755 55.2755 0 01-28.506 17.5481"/><g clip-path="url(#h)" fill="none"><g clip-path="url(#i)" fill="none"><path d="M1396.5588,2280.1088c269.3647,96.4635-231.6379,151.4333-112.3617,183.63s511.6944,50.9752,511.6944,50.9752l64.4409-110.6336-363.6632-153.8836" style="mix-blend-mode:soft-light" fill="none" stroke="none" stroke-linecap="round" stroke-linejoin="round" stroke-width="6"/></g><path fill="none" stroke="none" stroke-linecap="round" stroke-linejoin="round" stroke-width="6" d="M632.1111,2588.4363,533.5945,2194.725s622.7819,52.5851,981.4773,207.5221-37.1161,333.7354-37.1161,333.7354L784.8624,2521.1194l-91.8539-47.2606"/></g><path fill="none" stroke="none" stroke-linecap="round" stroke-linejoin="round" stroke-width="6" d="M533.5945 2194.725s48.4091-18.9344 127.4455-34.8407l64.2843 52.9112-30.2688-59.1962q18.5073-3.1183 38.6625-5.8114M863.5912 2138.4982c27.2739-.28 55.6141.5049 84.7761 2.6618l23.15 42.8085-6.8034-41.4572c29.9447 2.722 60.6855 6.921 91.9638 12.9227M1131.689 2342.78a144.4063 144.4063 0 01-28.5023 27.6464M923.513 2194.9712l5.9 5.9567M756.7981 2269.8492a55.2755 55.2755 0 01-28.506 17.5481M1102.0435 2428.4781c-42.69-2.2879-86.5047-6.4251-130.3071-13.0479"/><path fill="#fbb890" d="M575.6087,1787.8674s.2552,1.1091-.7984.8116C459.0071,1750.9156,556.0842,1717.423,575.6087,1787.8674Z" class="colorffc969 svgShape"/><path fill="#fbb890" d="M1488.2271,2332.6671l-.3272-6.1262c-152.2695,8.15-285.9-25.6756-408.5288-103.4112-106.9111-67.7713-191.0336-159.6982-265.2538-240.8012-82.8719-90.5607-154.4423-168.7706-239.1544-198.791l-2.0493,5.7839c83.2687,29.5066,154.3615,107.193,236.6788,197.149,74.4774,81.3861,158.8922,173.6329,266.4954,241.8434C1199.83,2306.7541,1334.6417,2340.8868,1488.2271,2332.6671Z" class="colorffc969 svgShape"/><path fill="#fbb890" d="M574.87,1785.952s1.1376.0328.5841.9773C509.712,1889.4693,501.7785,1787.0839,574.87,1785.952Z" class="colorffc969 svgShape"/><path fill="#fbb890" d="M633.3782 1819.3186s.97.5959.0188 1.1384C525.2679 1876.5334 569.4656 1783.8389 633.3782 1819.3186zM660.6363 1834.1234s1.091.3244.3131 1.0947C571.0375 1917.3906 589.7146 1816.411 660.6363 1834.1234zM697.4853 1868.095s1.1752.3485.3412 1.1628C601.4031 1956.0953 621.099 1849.0178 697.4853 1868.095zM733.7519 1901.4136s1.1013.5383.1439 1.2032C624.4216 1972.2847 661.58 1869.9483 733.7519 1901.4136zM761.3205 1927.66a.7333.7333 0 01.0979 1.3577C643.2351 2012.857 686.84 1895.1881 761.3205 1927.66zM786.1254 1959.0869s1.1974.5968.0767 1.4971C658.4892 2055.5645 707.3818 1924.7564 786.1254 1959.0869zM825.0116 2000.29s1.1974.5968.0766 1.4971C697.3753 2096.7674 746.268 1965.9592 825.0116 2000.29zM855.4105 2036.6752s1.1974.5967.0766 1.497C727.7743 2133.1528 776.6669 2002.3447 855.4105 2036.6752zM890.5 2068.71s1.3318.6676.0585 1.7283C745.6045 2182.5178 802.8274 2030.4863 890.5 2068.71zM930.8016 2108.9228s1.3318.6676.0585 1.7283C785.906 2222.7308 843.1289 2070.6994 930.8016 2108.9228zM968.2327 2145.0893s1.4645.7357.0529 1.9278C807.6376 2273.0438 871.7889 2103.0419 968.2327 2145.0893zM1010.2711 2178.4754s1.4645.7357.0528 1.9278C849.676 2306.43 913.8273 2136.4279 1010.2711 2178.4754zM1054.0728 2209.8123s1.5752.4525.4082 1.8848C919.8862 2365.2378 951.52 2186.31 1054.0728 2209.8123zM1108.4163 2244.6s1.6036.3382.5424 1.8507C985.7382 2409.2611 1004.4407 2228.523 1108.4163 2244.6zM1091.8641 2237.9485s.5419 1.643 1.918.3719C1240.7688 2092.0855 1062.5722 2130.8028 1091.8641 2237.9485zM1030.6971 2195.1042s.5153 1.5456 1.9043.3233C1181.1232 2054.9736 1003.1179 2094.2232 1030.6971 2195.1042zM989.1975 2158.3937s.8584 1.3618 1.8449-.11C1094.1168 1991.64 938.7767 2068.1764 989.1975 2158.3937zM946.5778 2121.0137s.8482 1.3357 1.9034-.1582C1059.0748 1951.8945 897.0289 2032.3567 946.5778 2121.0137zM906.4718 2082.9719a.8883.8883 0 001.6444-.06C996.4785 1931.9232 859.4883 1998.9052 906.4718 2082.9719zM864.2613 2042.238s.7964 1.2787 1.5876-.0247C947.9893 1894.2434 817.0657 1957.7916 864.2613 2042.238zM805.6993 1979.5428s.6595 1.0587 1.3152-.0209C875.0953 1856.9606 766.62 1909.6179 805.6993 1979.5428z" class="colorffc969 svgShape"/><path fill="#fbb890" d="M764.9187 1938.4186s.6323 1.0148 1.2636-.0216C831.7441 1820.7481 727.46 1871.3934 764.9187 1938.4186zM739.9733 1905.0027s.6323 1.0148 1.2636-.0216C806.7987 1787.3322 702.5141 1837.9775 739.9733 1905.0027zM710.5922 1876.2113s.6323 1.0148 1.2636-.0216C777.4176 1758.5408 673.1329 1809.1861 710.5922 1876.2113zM683.2141 1853.1616s.8294.8612 1.2315-.2838C724.1184 1724.17 632.64 1795.3876 683.2141 1853.1616zM645.0126 1823.9118s.6.977 1.0869.0493C696.0959 1718.3179 609.0824 1759.6224 645.0126 1823.9118zM605.2712 1801.3188s.7514.5555.9728-.4461C626.6493 1689.2419 558.9759 1763.1646 605.2712 1801.3188zM1065.4371 2278.0411l-2.4261.6724M957.214 2057.2376l-2.1625 11.0493M812.691 1932.5822l-1.0916 5.5226M736.5181 1977.3318l-14.5567 4.0345M603.7132 1818.3875l-10.8059 8.1877" class="colorffc969 svgShape"/><path fill="#fb600a" d="M1372.4041,2282.8146l-104.9779,27.89c-33.7926-15.2327-69.2759-32.427-105.2708-51.6533l89.814-22.7249-118.9334,6.77c-37.2755-20.9331-74.7421-44.0224-111.0981-69.3355l71.8218-18.1727-90.1661,5.1323c-44.3133-32.1361-86.6028-67.651-124.4108-106.6664l103.2839-26.1333L861.2,2034.8231c-41.8824-46.33-77.27-97.3326-102.41-153.1731l57.3791-14.5186-62.1745,3.5391a462.0227,462.0227,0,0,1-27.4-88.6389s51.7913,4.429,129.7121,25.12l34.2531,75.8867-.9657-66.4789a1089.9731,1089.9731,0,0,1,135.6965,50.67l2.78,73.92,19.3581-63.5931c24.585,11.8121,49.6555,25.05,74.8562,39.8827l1.8288,48.6326,12.2342-40.1909a931.2663,931.2663,0,0,1,97.5194,68.447l9.5179,105.8137,14.9086-85.462a861.7732,861.7732,0,0,1,86.6034,86.19l7.3052,81.2134,10.4841-60.099c61.62,75.6048,115.0173,167.8148,152.3854,280.2634,0,0-93.0794-24.9082-215.62-77.46Z" class="color1daa8c svgShape"/><g clip-path="url(#j)" fill="none"><path fill="#fb600a" d="M640.8185,2178.7135l85.7763-396.6819s535.2991,322.61,788.477,620.2155S1334.1766,2685.15,1334.1766,2685.15L807.5905,2185.8986l-61.4785-83.0125" class="color1daa8c svgShape"/><g clip-path="url(#k)" fill="none"><path d="M1462.8008,2240.2877c198.9216,205.652-274.727,33.3663-181.9913,114.9967s436.38,272.0339,436.38,272.0339l106.7271-70.723L1565.817,2257.7377" style="mix-blend-mode:soft-light" fill="#514433" class="color383351 svgShape"/></g></g><path fill="none" stroke="none" stroke-miterlimit="10" stroke-width="6" d="M1197.5273 2179.3476a144.4114 144.4114 0 01-37.7906 12.1892M1076.1936 1954.7082l2.657 7.9519M893.5539 1948.1286a55.2757 55.2757 0 01-33.3276 3.13"/><g clip-path="url(#l)" fill="none"><g clip-path="url(#m)" fill="none"><path d="M1462.8008,2240.2877c198.9216,205.652-274.727,33.3663-181.9913,114.9967s436.38,272.0339,436.38,272.0339l106.7271-70.723L1565.817,2257.7377" style="mix-blend-mode:soft-light" fill="none" stroke="none" stroke-linecap="round" stroke-linejoin="round" stroke-width="6"/></g><path fill="none" stroke="none" stroke-linecap="round" stroke-linejoin="round" stroke-width="6" d="M640.8185,2178.7135l85.7763-396.6819s535.2991,322.61,788.477,620.2155S1334.1766,2685.15,1334.1766,2685.15L807.5905,2185.8986l-61.4785-83.0125"/></g><path fill="none" stroke="none" stroke-linecap="round" stroke-linejoin="round" stroke-width="6" d="M726.5948 1782.0316s51.7913 4.429 129.7121 25.12l34.2531 75.8867-.9657-66.4789q17.978 5.3886 37.2457 11.8878M1047.4286 1877.5564c24.585 11.8121 49.6555 25.05 74.8562 39.8827l1.8288 48.6326 12.2342-40.1909c25.6527 15.6855 51.3661 33.0477 76.7643 52.2644M1197.5273 2179.3476a144.4114 144.4114 0 01-37.7906 12.1892M1076.1936 1954.7082l2.657 7.9519M893.5539 1948.1286a55.2757 55.2757 0 01-33.3276 3.13M1133.036 2243.0961c-37.2755-20.9331-74.7421-44.0224-111.0981-69.3355"/><path fill="#fb600a" d="M1429.8412,2236.8568,1322.259,2221.882c-25.2481-27.1388-51.2944-56.7411-77.0249-88.4149l91.6019,13.8592-112.2619-39.8528c-26.25-33.7434-51.8394-69.5487-75.5438-106.9735l73.2517,11.0826-85.1084-30.2133c-28.3953-46.7986-53.6156-95.9274-73.3481-146.5463l105.34,15.9375-114.4643-40.6347c-20.6537-58.9409-33.5094-119.6724-35.0424-180.8916l58.5214,8.8539-58.6869-20.8338a462.0262,462.0262,0,0,1,9.0941-92.33s46.0271,24.155,109.8391,73.4275l2.1655,83.2308,24.8743-61.6576a1089.9988,1089.9988,0,0,1,105.4535,99.3006l-26.0858,69.22,42.4911-51.1206c18.0857,20.417,36.0663,42.3369,53.549,65.7768l-17.1621,45.5405,26.8544-32.3083a931.2457,931.2457,0,0,1,63.3707,100.8919l-32.2349,101.2327,46.8649-73.0049a861.763,861.763,0,0,1,46.4314,113.0176l-24.7407,77.6973,32.9566-51.3388c27.5027,93.5771,40.99,199.2752,31.8575,317.4177,0,0-76.1514-59.0352-168.7482-154.9712Z" class="color1daa8c svgShape"/><g clip-path="url(#n)" fill="none"><path fill="#fb600a" d="M795.7776,1857.36l232.81-332.4361S1397.02,2029.78,1515.0718,2402.2471s-276.3985,190.6851-276.3985,190.6851L946.731,1928.6173l-24.5016-100.3512" class="color1daa8c svgShape"/><g clip-path="url(#o)" fill="none"><path d="M1529.6547,2232.6875c103.6729,266.673-266.1872-75.714-212.3358,35.477S1614.1646,2688.06,1614.1646,2688.06l125.7952-23.8327-122.1031-375.5289" style="mix-blend-mode:soft-light" fill="#514433" class="color383351 svgShape"/></g></g><path fill="none" stroke="none" stroke-miterlimit="10" stroke-width="6" d="M1308.7313 2073.7013a144.4054 144.4054 0 01-39.5611-3.41M1283.9412 1819.5947l-.6325 8.36M1118.1256 1742.7459a55.275 55.275 0 01-31.9361-10.03"/><g clip-path="url(#p)" fill="none"><g clip-path="url(#q)" fill="none"><path d="M1529.6547,2232.6875c103.6729,266.673-266.1872-75.714-212.3358,35.477S1614.1646,2688.06,1614.1646,2688.06l125.7952-23.8327-122.1031-375.5289" style="mix-blend-mode:soft-light" fill="none" stroke="none" stroke-linecap="round" stroke-linejoin="round" stroke-width="6"/></g><path fill="none" stroke="none" stroke-linecap="round" stroke-linejoin="round" stroke-width="6" d="M795.7776,1857.36l232.81-332.4361S1397.02,2029.78,1515.0718,2402.2471s-276.3985,190.6851-276.3985,190.6851L946.731,1928.6173l-24.5016-100.3512"/></g><path fill="none" stroke="none" stroke-linecap="round" stroke-linejoin="round" stroke-width="6" d="M1028.5873 1524.9239s46.0271 24.155 109.8391 73.4275l2.1655 83.2308 24.8743-61.6576q14.4846 11.9352 29.7276 25.3937M1287.325 1737.3246c18.0857 20.417 36.0663 42.3369 53.549 65.7768l-17.1621 45.5405 26.8544-32.3083c17.5688 24.4015 34.5438 50.3721 50.5094 77.93M1308.7313 2073.7013a144.4054 144.4054 0 01-39.5611-3.41M1283.9412 1819.5947l-.6325 8.36M1118.1256 1742.7459a55.275 55.275 0 01-31.9361-10.03M1224.5741 2107.4735c-26.25-33.7434-51.8394-69.5487-75.5438-106.9735"/><path fill="#fb600a" d="M1459.8966,2224.5566l-103.34-33.4525c-20.1447-31.1154-40.6472-64.7956-60.4785-100.4608l87.7968,29.5754-103.6225-58.7653c-19.9825-37.7935-38.9571-77.5028-55.7931-118.4792l70.2088,23.65-78.5586-44.5513c-19.8257-51.0229-36.12-103.7886-46.75-157.0674l100.9642,34.0107-105.6554-59.9182c-10.0907-61.6343-12.1911-123.676-3.0562-184.2292l56.0905,18.8944-54.17-30.7206a462.0308,462.0308,0,0,1,25.0094-89.3428s41.1261,31.79,95.3989,91.4073l-12.3392,82.34,35.216-56.3935a1089.9937,1089.9937,0,0,1,86.5814,116.1237l-37.7241,63.63,50.7325-42.9538c14.26,23.2506,28.1556,47.963,41.2965,74.0856l-24.819,41.8628,32.0628-27.1469a931.2316,931.2316,0,0,1,44.8629,110.3736l-49.3456,94.0859,58.8447-63.7442a861.7618,861.7618,0,0,1,26.0733,119.3693l-37.8734,72.212,41.3811-44.8265c10.8131,96.9338,5.717,203.367-23.8186,318.122,0,0-64.7268-71.3768-139.2323-181.9516Z" class="color1daa8c svgShape"/><g clip-path="url(#r)" fill="none"><path fill="#fb600a" d="M901.476,1740.593,1188.5416,1453.7s275.0392,561.2272,326.53,948.5469-305.3436,139.7219-305.3436,139.7219L1037.74,1837.0118l-6.68-103.0828" class="color1daa8c svgShape"/><g clip-path="url(#s)" fill="none"><path d="M1558.9146,2237.8059c55.7262,280.637-248.9678-120.8439-215.27-1.9832S1562.96,2700.9363,1562.96,2700.9363l128.023-1.5972L1636.0343,2308.3" style="mix-blend-mode:soft-light" fill="#514433" class="color383351 svgShape"/></g></g><path fill="none" stroke="none" stroke-miterlimit="10" stroke-width="6" d="M1369 2042.8284a144.4049 144.4049 0 01-38.3656-10.2362M1388.77 1788.2821l-2.0765 8.1228M1238.8423 1683.7727a55.2755 55.2755 0 01-29.7056-15.43"/><g clip-path="url(#t)" fill="none"><g clip-path="url(#u)" fill="none"><path d="M1558.9146,2237.8059c55.7262,280.637-248.9678-120.8439-215.27-1.9832S1562.96,2700.9363,1562.96,2700.9363l128.023-1.5972L1636.0343,2308.3" style="mix-blend-mode:soft-light" fill="none" stroke="none" stroke-linecap="round" stroke-linejoin="round" stroke-width="6"/></g><path fill="none" stroke="none" stroke-linecap="round" stroke-linejoin="round" stroke-width="6" d="M901.476,1740.593,1188.5416,1453.7s275.0392,561.2272,326.53,948.5469-305.3436,139.7219-305.3436,139.7219L1037.74,1837.0118l-6.68-103.0828"/></g><path fill="none" stroke="none" stroke-linecap="round" stroke-linejoin="round" stroke-width="6" d="M1188.5416 1453.7s41.1261 31.79 95.3989 91.4073l-12.3392 82.34 35.216-56.3935q12.1887 14.2718 24.86 30.1757M1406.4071 1707.8535c14.26 23.2506 28.1556 47.963 41.2965 74.0856l-24.819 41.8628 32.0628-27.1469c13.0585 27.0846 25.2592 55.6112 36.19 85.5256M1369 2042.8284a144.4049 144.4049 0 01-38.3656-10.2362M1388.77 1788.2821l-2.0765 8.1228M1238.8423 1683.7727a55.2755 55.2755 0 01-29.7056-15.43M1280.2526 2061.4534c-19.9825-37.7935-38.9571-77.5028-55.7931-118.4792"/><rect width="1342.821" height="1864.007" x="1189.161" y="571.426" fill="#eb8141" rx="86.325" class="color4191eb svgShape"/><g clip-path="url(#v)" fill="none"><path d="M2603.9477,1530.7546c-14.6992,1052.5333,0,1002.9731-1424.5742,968.0708-961.2852-23.5516,253.3877,227.3992,253.3877,227.3992l1171.1865,175.4222L2933.5958,1601.724l-220.902-57.9752" style="mix-blend-mode:soft-light" fill="#514433" class="color383351 svgShape"/></g><path fill="#ffffff" d="M2421.987,1895.5385V2326.077a15.7306,15.7306,0,0,1-15.7307,15.7306H1314.886a15.7306,15.7306,0,0,1-15.7306-15.7306V680.7828a15.7306,15.7306,0,0,1,15.7306-15.7307h1091.37a15.7307,15.7307,0,0,1,15.7307,15.7307V1070.13" class="colorfff svgShape"/><line x1="2421.987" x2="2421.987" y1="1070.13" y2="1895.539" fill="#fff" stroke="none" stroke-linecap="round" stroke-linejoin="round" stroke-width="6"/><rect width="149.202" height="149.202" x="1418.187" y="940.696" fill="#fb600a" rx="63.752" class="color1daa8c svgShape"/><rect width="740.431" height="109.666" x="1619.979" y="960.464" fill="#fb600a" rx="46.859" class="color1daa8c svgShape"/><rect width="149.202" height="149.202" x="1418.187" y="1854.304" fill="#ffffff" stroke="none" stroke-linecap="round" stroke-linejoin="round" stroke-width="6" rx="63.752" class="colorfff svgShape"/><rect width="740.431" height="109.666" x="1619.979" y="1874.072" fill="#ffe9dc" rx="46.859" class="colordcebff svgShape"/><rect width="149.202" height="149.202" x="1418.187" y="1245.232" fill="#ffffff" stroke="none" stroke-linecap="round" stroke-linejoin="round" stroke-width="6" rx="63.752" class="colorfff svgShape"/><rect width="740.431" height="109.666" x="1619.979" y="1265" fill="#ffe9dc" rx="46.859" class="colordcebff svgShape"/><rect width="149.202" height="149.202" x="1418.187" y="1549.768" fill="#ffffff" stroke="none" stroke-linecap="round" stroke-linejoin="round" stroke-width="6" rx="63.752" class="colorfff svgShape"/><rect width="740.431" height="109.666" x="1619.979" y="1569.536" fill="#ffe9dc" rx="46.859" class="colordcebff svgShape"/><path fill="#fbb890" d="M2034.0228,509.7718h-61.4294a112.0211,112.0211,0,0,0-224.0421,0H1687.119a143.3506,143.3506,0,0,0-143.3484,143.35v16.1757a24.423,24.423,0,0,0,24.4247,24.4233h584.754a24.4224,24.4224,0,0,0,24.4219-24.4233V653.1216A143.3487,143.3487,0,0,0,2034.0228,509.7718Z" class="colorffc969 svgShape"/><path fill="#fbb890" d="M1860.5709,555.7594a45.9869,45.9869,0,1,1,45.9875-45.9876A45.9855,45.9855,0,0,1,1860.5709,555.7594Z" class="colorffc969 svgShape"/><g clip-path="url(#w)" fill="none"><path d="M2104.0448,455.14c134.2738,203.5765-151.6513,249.5543-520.8784,187.5827s37.9258,98.2906,37.9258,98.2906l725.5117,23.8228-64.9712-311.8618L2080.222,437.21" style="mix-blend-mode:soft-light" fill="#514433" class="color383351 svgShape"/></g><path fill="none" stroke="none" stroke-linecap="round" stroke-linejoin="round" stroke-width="6" d="M1717.2869 795.4649l-43.3444 47.618M2388.4246 2164.0077a163.2528 163.2528 0 01-60.449 52.193"/><line x1="1189.161" x2="1189.161" y1="2349.108" y2="657.752" fill="none" stroke="none" stroke-linecap="round" stroke-linejoin="round" stroke-width="6"/><path fill="none" stroke="none" stroke-linecap="round" stroke-linejoin="round" stroke-width="6" d="M2177.3712,653.1216a143.3487,143.3487,0,0,0-143.3484-143.35h-61.4294"/><path fill="#ffffff" d="M1702.491,1886.887c.3865.0655.7608.16,1.1428.2329a46.6,46.6,0,0,1,5.8158,1.5216c.3166.1066.6468.1887.9617.3013a45.92,45.92,0,0,1,6.4672,2.8684l-.0076-.003.0076.003-119.3363-64.9164q-.8378-.4566-1.6967-.878a45.79,45.79,0,0,0-4.77-1.9919c-.3149-.1126-.6436-.1948-.9617-.3013-1.0149-.3378-2.0238-.6893-3.0692-.9587-.8978-.2313-1.826-.3834-2.7436-.5615-.3834-.0745-.7578-.1689-1.1443-.2343a48.6889,48.6889,0,0,0-6.6893-.6376c-.4824-.0122-.9678-.0061-1.4562-.0061a51.7453,51.7453,0,0,0-7.2235.4565l-565.4749,79.4713a55.3109,55.3109,0,0,0-7.4288,1.64c-.63.18-1.2508.3713-1.8747.5721a58.5,58.5,0,0,0-6.5311,2.5108c-.1491.0685-.3074.1065-.4565.175-.0487.0228-.0943.0533-.143.0761-.42.1978-.82.4367-1.2356.6452-1.2326.6178-2.456,1.2508-3.6475,1.9508-.5935.3485-1.161.7365-1.7438,1.1047-.7594.4794-1.5354.93-2.2765,1.4411-.1567.11-.2952.248-.4519.3576a67.4968,67.4968,0,0,0-5.9087,4.6761c-.1187.105-.2526.1871-.37.2921-.3119.2816-.5813.6118-.8886.8978q-2.052,1.915-3.9549,3.9944c-.2678.2937-.5721.5463-.8354.8446-.2161.2434-.3926.52-.6056.7669q-2.052,2.39-3.9047,4.9576c-.1582.2192-.3439.4109-.4991.6331-.0334.0471-.0578.1-.0913.1491a72.817,72.817,0,0,0-4.0081,6.5006c-.1324.2389-.3013.4565-.4306.6985-.1537.2845-.25.598-.3987.8841a72.4559,72.4559,0,0,0-3.757,8.3433c-.0152.0457-.0411.0868-.0578.1309-.3713,1.0089-.66,2.05-.9861,3.0753-.2617.8278-.5615,1.6419-.7943,2.48-.3241,1.1716-.563,2.3692-.8278,3.5607-.172.7791-.388,1.5475-.5341,2.3358-.245,1.3284-.3972,2.6781-.5661,4.0248-.0837.6726-.2145,1.3345-.2769,2.0086-.19,2.03-.2937,4.0736-.2968,6.1278l-.811,436.7636c-.04,21.34,10.2546,38.637,25.8031,47.0945l119.3348,64.9179c-15.5485-8.459-25.8427-25.7544-25.8031-47.096l.811-436.762q.0069-3.0837.2968-6.1278c.0654-.6954.1993-1.3771.286-2.068.1659-1.3254.315-2.6538.557-3.9609.1476-.7974.3652-1.5734.54-2.3632.2632-1.1839.5006-2.3753.8232-3.5425.2282-.8232.5235-1.6236.7821-2.4362.3424-1.0864.662-2.18,1.0561-3.2457a72.6913,72.6913,0,0,1,3.7555-8.3419c.2754-.5295.5417-1.0651.8308-1.5871a73.3334,73.3334,0,0,1,4.0066-6.4976c.1872-.2693.4-.5173.59-.7821,1.2311-1.7149,2.5382-3.366,3.9062-4.9592.4687-.5462.9526-1.0758,1.4365-1.6069q1.9081-2.0907,3.9685-4.0081c.4169-.3895.8187-.7988,1.2432-1.1762a67.0923,67.0923,0,0,1,5.9163-4.6807c.8887-.6269,1.8-1.2128,2.7162-1.7926.5859-.37,1.1595-.7608,1.756-1.1108,1.1854-.6969,2.4028-1.3269,3.6277-1.9416.4215-.2116.8278-.4535,1.2539-.6544.1948-.0913.3987-.1582.5934-.248a58.7261,58.7261,0,0,1,6.5372-2.5138c.6208-.2009,1.2447-.3926,1.8716-.5707a55.2078,55.2078,0,0,1,7.43-1.64L1687.1235,1886.7a51.6873,51.6873,0,0,1,7.22-.4565c.487,0,.9769-.0076,1.4593.006A48.405,48.405,0,0,1,1702.491,1886.887Z" class="colorfff svgShape"/><path fill="none" stroke="none" stroke-linecap="round" stroke-linejoin="round" stroke-width="6" d="M1702.491,1886.887c.3865.0655.7608.16,1.1428.2329a46.6,46.6,0,0,1,5.8158,1.5216c.3166.1066.6468.1887.9617.3013a45.92,45.92,0,0,1,6.4672,2.8684l-.0076-.003.0076.003-119.3363-64.9164q-.8378-.4566-1.6967-.878a45.79,45.79,0,0,0-4.77-1.9919c-.3149-.1126-.6436-.1948-.9617-.3013-1.0149-.3378-2.0238-.6893-3.0692-.9587-.8978-.2313-1.826-.3834-2.7436-.5615-.3834-.0745-.7578-.1689-1.1443-.2343a48.6889,48.6889,0,0,0-6.6893-.6376c-.4824-.0122-.9678-.0061-1.4562-.0061a51.7453,51.7453,0,0,0-7.2235.4565l-565.4749,79.4713a55.3109,55.3109,0,0,0-7.4288,1.64c-.63.18-1.2508.3713-1.8747.5721a58.5,58.5,0,0,0-6.5311,2.5108c-.1491.0685-.3074.1065-.4565.175-.0487.0228-.0943.0533-.143.0761-.42.1978-.82.4367-1.2356.6452-1.2326.6178-2.456,1.2508-3.6475,1.9508-.5935.3485-1.161.7365-1.7438,1.1047-.7594.4794-1.5354.93-2.2765,1.4411-.1567.11-.2952.248-.4519.3576a67.4968,67.4968,0,0,0-5.9087,4.6761c-.1187.105-.2526.1871-.37.2921-.3119.2816-.5813.6118-.8886.8978q-2.052,1.915-3.9549,3.9944c-.2678.2937-.5721.5463-.8354.8446-.2161.2434-.3926.52-.6056.7669q-2.052,2.39-3.9047,4.9576c-.1582.2192-.3439.4109-.4991.6331-.0334.0471-.0578.1-.0913.1491a72.817,72.817,0,0,0-4.0081,6.5006c-.1324.2389-.3013.4565-.4306.6985-.1537.2845-.25.598-.3987.8841a72.4559,72.4559,0,0,0-3.757,8.3433c-.0152.0457-.0411.0868-.0578.1309-.3713,1.0089-.66,2.05-.9861,3.0753-.2617.8278-.5615,1.6419-.7943,2.48-.3241,1.1716-.563,2.3692-.8278,3.5607-.172.7791-.388,1.5475-.5341,2.3358-.245,1.3284-.3972,2.6781-.5661,4.0248-.0837.6726-.2145,1.3345-.2769,2.0086-.19,2.03-.2937,4.0736-.2968,6.1278l-.811,436.7636c-.04,21.34,10.2546,38.637,25.8031,47.0945l119.3348,64.9179c-15.5485-8.459-25.8427-25.7544-25.8031-47.096l.811-436.762q.0069-3.0837.2968-6.1278c.0654-.6954.1993-1.3771.286-2.068.1659-1.3254.315-2.6538.557-3.9609.1476-.7974.3652-1.5734.54-2.3632.2632-1.1839.5006-2.3753.8232-3.5425.2282-.8232.5235-1.6236.7821-2.4362.3424-1.0864.662-2.18,1.0561-3.2457a72.6913,72.6913,0,0,1,3.7555-8.3419c.2754-.5295.5417-1.0651.8308-1.5871a73.3334,73.3334,0,0,1,4.0066-6.4976c.1872-.2693.4-.5173.59-.7821,1.2311-1.7149,2.5382-3.366,3.9062-4.9592.4687-.5462.9526-1.0758,1.4365-1.6069q1.9081-2.0907,3.9685-4.0081c.4169-.3895.8187-.7988,1.2432-1.1762a67.0923,67.0923,0,0,1,5.9163-4.6807c.8887-.6269,1.8-1.2128,2.7162-1.7926.5859-.37,1.1595-.7608,1.756-1.1108,1.1854-.6969,2.4028-1.3269,3.6277-1.9416.4215-.2116.8278-.4535,1.2539-.6544.1948-.0913.3987-.1582.5934-.248a58.7261,58.7261,0,0,1,6.5372-2.5138c.6208-.2009,1.2447-.3926,1.8716-.5707a55.2078,55.2078,0,0,1,7.43-1.64L1687.1235,1886.7a51.6873,51.6873,0,0,1,7.22-.4565c.487,0,.9769-.0076,1.4593.006A48.405,48.405,0,0,1,1702.491,1886.887Z"/><path fill="#f8a574" d="M1687.1228,1886.699c30.7577-4.3227,55.62,19.0661,55.5584,52.2082l-.8112,436.7621c-.0616,33.1422-25.0238,63.5333-55.7815,67.856l-565.4755,79.4724c-30.7577,4.3228-55.62-19.066-55.5585-52.2081l.8113-436.7622c.0615-33.1421,25.0237-63.5333,55.7814-67.856Z" class="colorf8749b svgShape"/><g clip-path="url(#x)" fill="none"><path d="M1839.9276,2003.46c31.4586,486.7265-421.4071,605.5326-619.554,628.9427S1385.0728,2840.34,1385.0728,2840.34l619.8689-94.4093,15.02-596.4951-156.6336-231.7319" style="mix-blend-mode:soft-light" fill="#514433" class="color383351 svgShape"/></g><path fill="#ffa30f" d="M1438.8576,1794.363c.0153-7.99-3.83-14.4529-9.6276-17.6058l-31.2538-17.0017c5.7976,3.1529,9.6413,9.6155,9.6276,17.6058l-.1171,63.2624a10.4031,10.4031,0,0,1-.6361,3.512c-.0091.0244-.0122.0517-.0213.0761-.0274.0761-.0685.143-.0974.2176a10.7084,10.7084,0,0,1-.6269,1.3284c-.0639.1157-.14.2252-.2085.3378a10.9192,10.9192,0,0,1-.735,1.0591c-.076.0959-.1491.1948-.2267.2891a10.6944,10.6944,0,0,1-1.0849,1.1109c-.0822.073-.172.1339-.2557.2023a9.7866,9.7866,0,0,1-.9678.6985c-.1978.1263-.4.2389-.6041.35-.23.1232-.4671.23-.706.3332a8.5247,8.5247,0,0,1-2.1837.6559l-133.0086,18.6938,31.2554,17.0018,133.007-18.6924a8.55,8.55,0,0,0,2.1837-.6573c.0852-.0365.1826-.04.2663-.0792.1536-.073.2906-.1734.44-.2541.2054-.1111.4078-.2237.6041-.3484.102-.0655.2131-.1126.3135-.1811.2282-.1567.44-.3409.6543-.5189.0852-.0685.1735-.1294.2572-.2024.03-.0259.0639-.0472.0943-.0746a10.6868,10.6868,0,0,0,.8461-.8551c.0517-.0579.0943-.1233.143-.1811.0791-.0928.1507-.1918.2267-.2876.1263-.16.26-.312.3774-.4793.1294-.1842.2389-.385.3561-.5783.0715-.1141.1461-.2252.2115-.3439.0335-.0593.0746-.1126.1065-.1719a10.8625,10.8625,0,0,0,.5189-1.15c.0289-.0746.07-.1431.0989-.2191.0031-.0092.0092-.0183.0122-.0274.0061-.0168.003-.035.0091-.05a10.3448,10.3448,0,0,0,.6346-3.5105Z" class="colorffb200 svgShape"/><path fill="#ffa30f" d="M1437.126,1736.6229a36.37,36.37,0,0,1,5.0154.4793c.2937.05.5767.12.8674.178,1.07.2085,2.0984.5174,3.13.82a34.4168,34.4168,0,0,1,4.2653,1.5749c.846.3774,1.7286.6878,2.5381,1.1276l-31.2538-17.0017q-.6322-.3425-1.2767-.66c-.4-.1979-.8552-.2861-1.263-.4672a34.1486,34.1486,0,0,0-4.2637-1.5749c-.3759-.1111-.7106-.3059-1.0911-.4033-.668-.1719-1.3573-.2845-2.0405-.4184-.2892-.0563-.5722-.1279-.8659-.1766a36.3911,36.3911,0,0,0-5.017-.4808c-.356-.0091-.7167-.0046-1.0773-.0046a38.6875,38.6875,0,0,0-5.4187.3409l-133.0071,18.6923a41.2229,41.2229,0,0,0-5.5572,1.228c-.4732.1339-.9389.2785-1.4075.4291a44.1687,44.1687,0,0,0-4.8512,1.8656c-.1217.0563-.2526.0883-.3728.1446-.0274.0121-.0517.0319-.0791.0456a47.3943,47.3943,0,0,0-6.175,3.5607c-.1734.1172-.37.1933-.5432.3135-.12.0837-.2267.19-.347.2754a50.56,50.56,0,0,0-4.4554,3.5258c-.0853.0745-.1826.1354-.2663.2115-.23.2054-.4276.4489-.6528.6589q-1.559,1.454-3.0054,3.0357c-.1993.2176-.4275.4063-.6238.6285-.1629.1841-.2983.3956-.4581.5828q-1.5429,1.7964-2.9383,3.7281c-.12.1674-.2633.315-.382.4839-.0243.038-.0456.0791-.07.1156a55.2154,55.2154,0,0,0-3.019,4.8938c-.1.1826-.2282.3484-.3272.5326-.1156.2145-.1886.4519-.3012.668a54.821,54.821,0,0,0-2.8258,6.2769c-.0137.0365-.0335.07-.0472.1065-.2784.7563-.4945,1.5354-.738,2.3039-.1978.6208-.423,1.231-.5965,1.861-.2359.8491-.4078,1.718-.6011,2.5792-.1384.6209-.3089,1.2311-.4245,1.8565-.1826.9845-.2952,1.9827-.42,2.9794-.0639.5159-.1659,1.0256-.2145,1.5461-.1431,1.5232-.2207,3.0585-.2237,4.6015l-.1416,76.6821a43.2213,43.2213,0,0,0,5.3214,21.3461,35.93,35.93,0,0,0,14.1212,14.0862L1275,1918.8046c-11.7033-6.3667-19.473-19.3893-19.444-35.4339l.143-76.68q.0045-2.3167.2237-4.6046c.0472-.5113.1476-1.0135.2115-1.5217.1248-1.0043.2374-2.01.4215-3.0023.1141-.6178.2846-1.22.42-1.8336.1948-.87.37-1.7469.6071-2.6036.1735-.6239.3957-1.2295.59-1.8458.2572-.81.4961-1.6267.7913-2.4225a54.8522,54.8522,0,0,1,2.8258-6.2785c.2085-.4.4108-.8049.6284-1.1991a54.9828,54.9828,0,0,1,3.0175-4.8937c.1446-.2069.3059-.3956.4535-.6q1.39-1.9356,2.9368-3.73c.3546-.4108.7167-.811,1.0819-1.2112q1.4472-1.5819,3.0054-3.0358c.3089-.2876.6041-.59.9206-.87a50.501,50.501,0,0,1,4.4524-3.5242c.2922-.2069.598-.3911.8948-.5919a47.2309,47.2309,0,0,1,6.17-3.5577c.1506-.0715.3074-.1233.458-.1918a44.06,44.06,0,0,1,4.8511-1.8671q.6961-.2236,1.4-.426a41.27,41.27,0,0,1,5.56-1.2295l133.0071-18.6924a38.7014,38.7014,0,0,1,5.4187-.3408C1436.4077,1736.6168,1436.77,1736.6122,1437.126,1736.6229Z" class="colorffb200 svgShape"/><path fill="#ffa30f" d="M1266.124,1869.4884a7.4382,7.4382,0,0,1-2.6827-.1354,6.8805,6.8805,0,0,1-1.8032-.6269l31.2538,17.0032c.0837.0442.1674.0883.2526.1294a6.8431,6.8431,0,0,0,1.3132.4854c.0746.0183.1628-.0046.2389.0122a7.4041,7.4041,0,0,0,2.6828.1339Z" class="colorffb200 svgShape"/><path fill="#ffa30f" d="M1430.6293,1736.9581c23.0676-3.242,41.8015,14.382,41.7553,39.2781l-.1425,76.6821c-.0462,24.8961-18.8554,47.7964-41.923,51.0383l-133.0072,18.693c-23.0649,3.2415-41.8015-14.3821-41.7553-39.2782l.1424-76.6821c.0463-24.8961,18.8582-47.7967,41.9231-51.0383Zm8.1112,120.6685.1175-63.264c.023-12.3951-9.2441-21.1134-20.6775-19.5066l-108.2439,15.2127c-11.4334,1.6069-20.7378,12.9353-20.7608,25.33l-.1175,63.264c-.0093,5.0124,3.6781,8.48,8.3208,7.8272l133.0072-18.693c4.5938-.6456,8.3449-5.1583,8.3542-10.1707" class="colorffb200 svgShape"/><path fill="#ffffff" d="M1465.81,2051.7624c9.3371-1.3123,16.86,5.7647,16.8416,15.8424l-.1552,83.58,77.4373-10.8831c9.337-1.3123,16.86,5.7647,16.8417,15.7883l-.1216,65.4744c-.0186,10.0237-7.5721,19.2195-16.9092,20.5318l-77.4373,10.8831-.1553,83.6344c-.0186,10.0237-7.5722,19.22-16.9092,20.5318l-60.6106,8.5183c-9.2883,1.3053-16.8116-5.7716-16.793-15.7953l.1554-83.6344-77.4861,10.89c-9.2883,1.3054-16.8116-5.7716-16.7929-15.7952l.1216-65.4744c.0186-10.0236,7.5721-19.22,16.86-20.5249l77.4861-10.89.1552-83.58c.0187-10.0777,7.5722-19.2736,16.8605-20.579Z" class="colorfff svgShape"/><path fill="none" stroke="none" stroke-linecap="round" stroke-linejoin="round" stroke-width="6" d="M1465.81,2051.7624c9.3371-1.3123,16.86,5.7647,16.8416,15.8424l-.1552,83.58,77.4373-10.8831c9.337-1.3123,16.86,5.7647,16.8417,15.7883l-.1216,65.4744c-.0186,10.0237-7.5721,19.2195-16.9092,20.5318l-77.4373,10.8831-.1553,83.6344c-.0186,10.0237-7.5722,19.22-16.9092,20.5318l-60.6106,8.5183c-9.2883,1.3053-16.8116-5.7716-16.793-15.7953l.1554-83.6344-77.4861,10.89c-9.2883,1.3054-16.8116-5.7716-16.7929-15.7952l.1216-65.4744c.0186-10.0236,7.5721-19.22,16.86-20.5249l77.4861-10.89.1552-83.58c.0187-10.0777,7.5722-19.2736,16.8605-20.579Z"/><path fill="none" stroke="none" stroke-miterlimit="10" stroke-width="6" d="M1213.8237 2038.98a157.8867 157.8867 0 01-27.0928 54.2739M1599.707 2325.4657a15.28 15.28 0 00-9.1349 11.9148"/><line x1="1065.054" x2="1065.866" y1="2470.79" y2="2034.027" fill="none" stroke="none" stroke-linecap="round" stroke-linejoin="round" stroke-width="6"/><line x1="1297.622" x2="1430.629" y1="1755.651" y2="1736.958" fill="none" stroke="none" stroke-linecap="round" stroke-linejoin="round" stroke-width="6"/><path fill="#fffefd" d="M3119.1412,1640.0519c67.0332-39.125,164.5488-79.4675,237.4326-85.2683-17.2049,27.0194-215.7811,133.8-241.0615,155.9809Z" class="colorfdfffe svgShape"/><g clip-path="url(#y)" fill="none"><path d="M3210.5946,1697.3892c-7.8653-68.57-38.0964-86.6635-38.0964-86.6635-15.9871,68.455-10.0617,65.887,30.0766,76.5623" style="mix-blend-mode:soft-light" fill="#514433" class="color383351 svgShape"/></g><path fill="none" stroke="none" stroke-linecap="round" stroke-linejoin="round" stroke-width="6" d="M3119.1412,1640.0519c67.0332-39.125,164.5488-79.4675,237.4326-85.2683-17.2049,27.0194-215.7811,133.8-241.0615,155.9809Z"/><path fill="#fcf4f0" d="M3172.4982,1610.7257c2.0143-4.3227,48.3867,112.8756,17.2093,112.9121-99.6732,37.0413-166.276,97.6513-240.7019,72.7335-13.4652,9.0093-165.7191-233.22-176.004-240.8376l134.5914-81.38,119.82,198.6975Z" class="colorf0f3fc svgShape"/><g clip-path="url(#z)" fill="none"><path d="M2877.18,1499.1905c52.9467-4.5315-36.6588,160.17,38.1091,132.9274s-73.91,98.8921-73.91,98.8921c-55.125-118.4026-41.409-112.3675-9.4763-189.8062" style="mix-blend-mode:soft-light" fill="#514433" class="color383351 svgShape"/></g><path d="M2400.8618,1704.4423c90.7823-65.3318,209.9621-17.4446,209.9621-17.4446-5.2625-29.2392-3.8659-72.1039-15.7364-64.7822C2531.8179,1614.0905,2364.9263,1590.4669,2400.8618,1704.4423Z" style="mix-blend-mode:soft-light" fill="#514433" class="color383351 svgShape"/><path fill="#fcf4f0" d="M2339.6184,2194.484c71.9776,107.7352,397.7034,88.42,461.0268,111.2759s-144.3059-174.6611,95.5558-793.8293l-163.8928,1.1914Z" class="colorf0f3fc svgShape"/><path fill="#fffefd" d="M2902.7812,1272.7271c-162.124,198.0522-149.8774,116.9248-32.2891,244.025C2989.4164,1306.5135,2988.2884,1365.904,2902.7812,1272.7271Z" class="colorfdfffe svgShape"/><g clip-path="url(#A)" fill="none"><path d="M3046.4942,1432.0831c-95.8978-75.8487-98.1464-78.6676-89.67-81.2387-112.0424,33.9861,69.9627,60.884-4.4678,143.8415" style="mix-blend-mode:soft-light" fill="#514433" class="color383351 svgShape"/></g><path fill="none" stroke="none" stroke-linecap="round" stroke-linejoin="round" stroke-width="6" d="M2902.7812,1272.7271c-162.124,198.0522-149.8774,116.9248-32.2891,244.025C2989.4164,1306.5135,2988.2884,1365.904,2902.7812,1272.7271Z"/><path fill="#fffefd" stroke="none" stroke-linecap="round" stroke-linejoin="round" stroke-width="6" d="M3024.0679,1231.3211c18.7637,140.3922-5.884,114.156-91.1708,143.7155-10.8975-57.1515-20.3315-60.9612-26.5488-63.7123-8.0046-3.542-10.6771-5.3293-4.2763-116.9383Z" class="colorfdfffe svgShape"/><path fill="#eb8141" d="M3018.5461,1167.6142c-66.477,20.896-146.7593-50.92-170.4139,85.7374-.2337,2.629-14.6529,86.747,59.97,90.4194l-11.32-43.6741,32.2824,1.9974c18.6689,9.0307,31.6383-23.9559,33.4578-52.8624C3126.4826,1215.5477,3114.2774,1137.5229,3018.5461,1167.6142Z" class="color4191eb svgShape"/><path fill="#fb600a" d="M2803.9625,1383.1407c11.6591-78.8452,79.8119-34.5571,103.63,91.0133l-97.591-83.5973Z" class="color1daa8c svgShape"/><path fill="#fffefd" d="M3118.6965,2373.53c2.1916,3.3937,46.0723,162.5229,46.0723,162.5229l98.6205-54.6907-34.3142-207.243Z" class="colorfdfffe svgShape"/><g clip-path="url(#B)" fill="none"><path d="M3102.9307,2505.9211c50.3547-11.3417,156.6206-105.46,156.6206-105.46-153.5644-18.2244-109.3415-29.4185-170.35,67.9781" style="mix-blend-mode:soft-light" fill="#514433" class="color383351 svgShape"/></g><path fill="none" stroke="none" stroke-linecap="round" stroke-linejoin="round" stroke-width="6" d="M3118.6965,2373.53c2.1916,3.3937,46.0723,162.5229,46.0723,162.5229l98.6205-54.6907-34.3142-207.243Z"/><path d="M3195.8482,2575.8315c-44.7964,62.934,75.316-5.1857,106.1953-14.017,7.1972,4.74,2.0555-25.8,4.6181-36.2408" style="mix-blend-mode:soft-light" fill="#514433" class="color383351 svgShape"/><path fill="#deb8a2" d="M3158.31,2512.6961s-14.24,49.1341,25.4079,77.3267L3480.2,2473.9187c15.0713-77.6379-177.1441,40.3008-212.6815-34.4968Z" class="colorcba2de svgShape"/><path fill="#fffefd" d="M2044.5326,2207.525c-4.2414-.0636-160.5305-49.4447-160.5305-49.4447l-28.5292,106.5591,187.0276,82.3031Z" class="colorfdfffe svgShape"/><g clip-path="url(#C)" fill="none"><path d="M1989.0038,2130.2691c-114.43,131.8938-4.9336,245.0211-4.9336,245.0211,81.6056-263.9189,105.7585-178.2109-68.9283-246.455" style="mix-blend-mode:soft-light" fill="#514433" class="color383351 svgShape"/></g><path fill="none" stroke="none" stroke-linecap="round" stroke-linejoin="round" stroke-width="6" d="M2044.5326,2207.525c-4.2414-.0636-160.5305-49.4447-160.5305-49.4447l-28.5292,106.5591,187.0276,82.3031Z"/><path d="M1830.387,2161.5814c-16.8553-68.4994-50.4194,62.0786-65.8431,91.0682-8.9163,3.17,18.7068,15.2316,25.025,22.7591" style="mix-blend-mode:soft-light" fill="#514433" class="color383351 svgShape"/><path fill="#deb8a2" d="M1913.17,2167.2693s-34.3716-39.0974-85.1159-22.7326l-123.58,294.8583c49.865,52.8362,96.59-160.8371,180.839-149.375Z" class="colorcba2de svgShape"/><path fill="#fb600a" d="M2469.5517,2097.1876l530.3456-55.3048,127.9069,407.4351s98.0061,6.21,172.0729-90.7052L3180.27,1919.3279c-10.33-37.94-41.5748-64.3824-81.2259-68.7407l-506.3469-55.6559Z" class="color1daa8c svgShape"/><g clip-path="url(#D)" fill="none"><path d="M2689.5369 1937.8859c116.6976-35.3555-262.402 328.2458 173.6659 217.0463 11.8 37.5869-100.8737 39.4743-100.8737 39.4743l-275.2242-27.9681 113.1307-207.9655M2917.68 2074.0926s-13.3539-22.2484 82.2172-32.21-30.9678 51.7439-30.9678 51.7439" style="mix-blend-mode:soft-light" fill="#514433" class="color383351 svgShape"/></g><path fill="#fb600a" d="M1988.0333,2188.6826s-58.7015,76.6682-36.61,179.7947l421.2566,87.9094c65.3239,13.632,136.2265-29.051,160.0939-96.3758l173.4872-552.5971L2401.6157,1793.98l-54.5279,480.4267Z" class="color1daa8c svgShape"/><g clip-path="url(#E)" fill="none"><path fill="#e0ac8d" d="M2173.45 2066.9848c278.2778 67.8474 150.4713-214.6281 432.2475-214.95s-288.2189-151.4268-288.2189-151.4268l-40.9882 22.2811L2205.8682 1823.5M2298.5952 2186.7465c43.7543 51.3305 180.6527 56.2124 180.6527 56.2124l89.3544-169.11-192.0855 47.8581" class="color968de0 svgShape"/><path d="M2050.9528,2182.2408c259.3869,191.5318,229.1336,137.7861,229.1336,137.7861l-30.4973-121.5779-102.6357-43.7044" style="mix-blend-mode:soft-light" fill="#514433" class="color383351 svgShape"/></g><path fill="#fb600a" d="M2906.6166,1464.1661s-32.5193-94.8044-152.9726-77.923c-159.2007,22.3118-273.2783,211.0874-268.72,411.41,0,0,81.8614,106.5333,240.5075,17.6257C2695.2135,1653.4792,2905.2739,1615.4314,2906.6166,1464.1661Z" class="color1daa8c svgShape"/><g clip-path="url(#F)" fill="none"><path fill="#fcddcb" d="M2669.6712,1547.0752c62.4348,104.7484,55.2344,290.6053-269.59,262.027S2682.1793,1931.51,2682.1793,1931.51s82.8267-36.5338,95.4667-35.5663,106.6857-134.904,106.6857-134.904-5.71-109.71-67.222-257.4124c-34.049-81.7578-156.4178-7.7725-156.4178-7.7725" class="colorcbddfc svgShape"/></g><path fill="#fcddcb" d="M3134.6535,1589.8869c-51.24,51.4671,71.9395,4.5857,149.4732-14.4542,168.0912-42.5435,133.6792-51.59,19.9892-55.6867C3301.0372,1515.4646,3126.4527,1615.1524,3134.6535,1589.8869Z" class="colorcbddfc svgShape"/><path fill="#fcf4f0" d="M3349.8884,1256.077c-8.711.0529-21.6308,234.07-26.0337,248.7181-8.3184-1.0105,65.4271,25.17,68.3164,27.2291l27.51-277.9725Z" class="colorf0f3fc svgShape"/><path fill="#fcddcb" d="M3424.5287,1259.1706c.2735-2.91.0005,0-4.8481-5.1189,5.8074,6.9989-46.9179,290.1911-21.065,280.505Z" class="colorcbddfc svgShape"/><polygon fill="#fcddcb" points="3113.986 1571.67 3120.732 1609.053 3398.616 1534.557 3322.995 1504.935 3113.986 1571.67" class="colorcbddfc svgShape"/><path fill="#fcf4f0" d="M2055.0533,2102.3394c64.2587,73.5114,186.9795,222.7911,381.1361,300.801,0,0,401.6278-634.1733,429.62-855.2561l22.193-79.3339-50.574-100.0332C2257.4078,1309.0863,2545.0459,1961.6,2055.0533,2102.3394Z" class="colorf0f3fc svgShape"/><g clip-path="url(#G)" fill="none"><path d="M2681.5483,1580.0383c-63.5685-6.2957,251.069,671.0344-11.72,573.8408-55.8626-20.661,169.6363-232.5183-12.2628,17.4019-127.2688,174.8608,199.1277-334.4383,199.1277-334.4383l-18.5041-218.7436L2717.69,1508.0583" style="mix-blend-mode:soft-light" fill="#514433" class="color383351 svgShape"/></g><path fill="#fcddcb" d="M2396.6215,1647.0618c61.3264,78.0885,171.6192,50.1911,171.6192,50.1911-15.8429,25.3042-33.0619,69.5388-41.1525,60.0573C2463.15,1756.141,2321.8874,1744.8731,2396.6215,1647.0618Z" class="colorcbddfc svgShape"/><polygon fill="#fcddcb" points="2461.187 1788.284 2352.659 1940.371 2505.69 2024.545 2610.322 1857.198 2461.187 1788.284" class="colorcbddfc svgShape"/><g clip-path="url(#H)" fill="none"><path d="M2361.0282,1869.2362c47.0032-30.9165,237.7,37.979,223.9346,20.24s-121.8055-77.4485-121.8055-77.4485" style="mix-blend-mode:soft-light" fill="#514433" class="color383351 svgShape"/></g><path fill="#fcddcb" d="M2456.3885 1776.4843c-4.5076 5.2918-34.7964 47.8775-34.7964 47.8775l165.76 78.8771 32.8085-49.4343zM2820.3063 1351.1027c-122.4821-5.1746 50.2887 113.32 48.0619 130.2619-1.8658 9.9531-27.3109 145.5839-27.56 146.9006C2840.8084 1628.2652 2938.7327 1444.5123 2820.3063 1351.1027z" class="colorcbddfc svgShape"/><path fill="#f8a574" d="M2484.9933,1720.4286l62.5649-74.0547s317.6665-55.1121,358.3454-187.3862C2904.5153,1634.2288,2603.3645,1746.3671,2484.9933,1720.4286Z" class="colorf8749b svgShape"/><path fill="#fffefd" d="M2978.0033,1633.6665c23.1166-7.6965,100.8029-82.5055,119.3361-94.7139,68.0985-36.1063,169.2652,10.1424,57.2116,4.4842-1.33,1.6929,31.9233,12.7063,25.9217,23.1013,35.72,18.5837-43.898,11.6075-40.3268,18.8333-48,58.7121-130.9093,80.7787-178.1236,102.5443Z" class="colorfdfffe svgShape"/><g clip-path="url(#I)" fill="none"><path d="M3040.9447,1689.555c16.953-25.3259,2.9406-85.4652-14.4173-89.0033s-27.37,89.8777-27.37,89.8777l40.0318,5.5982" style="mix-blend-mode:soft-light" fill="#514433" class="color383351 svgShape"/></g><path fill="none" stroke="none" stroke-linecap="round" stroke-linejoin="round" stroke-width="6" d="M2978.0033,1633.6665c23.1166-7.6965,100.8029-82.5055,119.3361-94.7139,68.0985-36.1063,169.2652,10.1424,57.2116,4.4842-1.33,1.6929,31.9233,12.7063,25.9217,23.1013,35.72,18.5837-43.898,11.6075-40.3268,18.8333-48,58.7121-130.9093,80.7787-178.1236,102.5443Z"/><path fill="#fcf4f0" d="M3026.5274,1600.5517c39.6532,137.4451-16.1543,119.7041-150.2018,182.2239-102.7046,43.24-100.7787,27.614-150.6018-97.6362-142.9949-255.1117,12.17-300.1436,78.2045-231.825C2897.4511,1686.5,2801.2919,1651.2418,3026.5274,1600.5517Z" class="colorf0f3fc svgShape"/><circle cx="3001.089" cy="1284.491" r="7.317" fill="#d17705" class="color3a4d5c svgShape"/><path fill="#fffefd" stroke="none" stroke-linecap="round" stroke-linejoin="round" stroke-width="6" d="M3026.5513 1288.2481c30.3738 8.9345-3.17 28.2311-3.17 28.2311M2984.811 1320.219a12.7991 12.7991 0 0011.9638 13.5832" class="colorfdfffe svgShape"/><path fill="#fcf4f0" d="M2659.8315,2019.633c-7.1887,39.0774-63.0233,4.08-16.6489-16.2942C2649.1516,2003.2964,2657.3258,2006.5318,2659.8315,2019.633Z" class="colorf0f3fc svgShape"/><path fill="#fcddcb" d="M2905.2507,1335.5882l1.3537-2.5894c38.1562,69.7707,65.9977-15.7184,20.8194-35.9251l-.1623-3.62c-.3818-4.7929,27.0511,16.96,27.0511,16.96s43.4284,7.1,86.1066-8.8255c19.7986,84.9721-76.7655,118.33-116.0175,66.1561,1.6029-.5545-1.4481.64,0,0Z" class="colorcbddfc svgShape"/><path fill="#fffefd" stroke="none" stroke-linecap="round" stroke-linejoin="round" stroke-width="6" d="M2935.7661,1311.3533c-41.6546-77.5234-77.9723,23.7069-5.6676,47.0207" class="colorfdfffe svgShape"/><path d="M2935.4957 1325.6979c-5.4978 11.5835 2.6707 25.6719-1.1644 25.4009C2930.6256 1350.8374 2906.1581 1332.0852 2935.4957 1325.6979zM2302.5313 2089.6439c13.8339 69.868 81.1571 73.6125 81.1571 73.6125" style="mix-blend-mode:soft-light" fill="#514433" class="color383351 svgShape"/><line x1="2905.251" x2="2921.25" y1="1302.364" y2="1320.487" fill="#fdfffe" stroke="none" stroke-linecap="round" stroke-linejoin="round" stroke-width="6"/><line x1="2681.548" x2="2773.002" y1="1580.038" y2="1793.979" fill="none" stroke="none" stroke-linecap="round" stroke-linejoin="round" stroke-width="6"/><line x1="2964.244" x2="2878.837" y1="1613.245" y2="1632.774" fill="none" stroke="none" stroke-linecap="round" stroke-linejoin="round" stroke-width="6"/><line x1="3083.359" x2="2872.678" y1="2037.307" y2="2055.149" fill="none" stroke="none" stroke-linecap="round" stroke-linejoin="round" stroke-width="6"/><path fill="none" stroke="none" stroke-linecap="round" stroke-linejoin="round" stroke-width="6" d="M2265.3157,1970.4035s-77.422,120.5719-210.2624,131.9359"/><rect width="294.068" height="294.068" x="2421.207" y="1007.344" fill="#fb600a" rx="26.778" class="color1daa8c svgShape"/><rect width="294.068" height="294.068" x="2421.207" y="1020.28" fill="#ffffff" rx="26.778" class="colorfff svgShape"/><g clip-path="url(#J)" fill="none"><path d="M2377.4544,1215.8389c22.149,94.21,128.5678,117.4545,284.2649,105.2121s-187.4677,50.7284-187.4677,50.7284l-108.9784-31.4378" style="mix-blend-mode:soft-light" fill="#514433" class="color383351 svgShape"/></g><rect width="294.068" height="294.068" x="2421.207" y="1020.28" fill="none" stroke="none" stroke-linecap="round" stroke-linejoin="round" stroke-width="6" rx="26.778"/><path fill="#fb600a" d="M2568.2407,1053.6309a113.6833,113.6833,0,1,0,113.6833,113.6812A113.8122,113.8122,0,0,0,2568.2407,1053.6309Zm0,21.5857a92.0955,92.0955,0,1,1-92.0955,92.0955A92.3691,92.3691,0,0,1,2568.2407,1075.2166Z" class="color1daa8c svgShape"/><polygon fill="#fb600a" points="2556.922 1239.942 2579.564 1239.942 2579.564 1136.246 2624.276 1180.962 2624.328 1149.003 2568.23 1092.916 2512.17 1148.974 2512.17 1180.975 2556.922 1136.221 2556.922 1239.942" class="color1daa8c svgShape"/><path fill="none" stroke="none" stroke-miterlimit="10" stroke-width="6" d="M2509.1017 1205.9482a76.694 76.694 0 007.699 17.5272M2681.3584 1053.6505a25.974 25.974 0 0110.4579 24.1085M2681.924 1167.3121a113.8121 113.8121 0 00-113.6833-113.6812"/><line x1="2556.922" x2="2556.922" y1="1136.221" y2="1239.942" fill="none" stroke="none" stroke-miterlimit="10" stroke-width="6"/></g></svg>