<svg xmlns="http://www.w3.org/2000/svg" viewBox="0 0 336.77 323.57"><path fill="#4d260f" fill-rule="evenodd" d="M201.56,171.51c.92-.8-4.54-7.47-7-10.44-6.2-7.62-15.83-16-24-21.53-36.47-24.75-87-29.68-127.87-6.84a133.36,133.36,0,0,0-29.89,22.2C6.67,161.07,0,168.58,0,170c0,.39,2.91-2,6.92-3.3a18.79,18.79,0,0,1,9.79,0c3.6.85,4.57,2.58,6.56,2.15,3.61-.77,7.11-2.75,12-2.43,7.73.5,10.2,4.4,13.19,4.52,2.62.1,5.8-4.21,15.91-3.78a39.71,39.71,0,0,1,11.38,2.66c3.19,1.28,6.19,3.43,7.46,3.07,1.83-.51,4.55-2,6.32-2.65a43.51,43.51,0,0,1,16.86-2.38,56.37,56.37,0,0,1,14.8,2.84c2.3.77,7.33,3.4,9.83,3.4,1.06,0,7.25-4.14,16.08-4.75,8.57-.59,13,3.64,16.07,4,2.35.25,2.58-2.42,11.21-3.39,5.11-.58,8.82,1.34,12.78,2.14,1.43.28,3-1.2,6.53-1.57S200.53,172.41,201.56,171.51Z" class="color0f2b4d svgShape"/><path fill="#050403" fill-rule="evenodd" d="M102.05 118.06a19.33 19.33 0 01-.1-3.32s1.08.05 2.11.06a12.83 12.83 0 002.06-.17 28.1 28.1 0 01-.05 3.53C105.08 119.15 102.67 119.15 102.05 118.06zM102.7 95.78s1.09-8.1 1.79-7.68c.46.27 1.23 8.13 1.23 8.13zM106.34 167.85V295.26c0 1.94-1.74 3.6-3.94 4.19a23.16 23.16 0 01-6.77.38c-1.33-.23-7.14.17-10.7-3.57-6.26-6.57-4-17.91-4-18.86a2.59 2.59 0 012.64-2.32c2.82.11 2.6 2.27 2.6 2.27s-2 8.63 2.92 14.14c1.5 1.68 3.37 3.81 9.68 2.44 2.81-.61 1.68-6.28 1.68-6.28V168s1.57-.16 3-.19S106.34 167.85 106.34 167.85z" class="color050303 svgShape"/><path fill="#603217" fill-rule="evenodd" d="M104,118.87s16.38,4.51,38.45,27.12c11.58,11.87,19.37,27.18,20.68,27.32,2.35.25,2.58-2.42,11.21-3.39,5.11-.58,8.82,1.34,12.78,2.14.66.13-7.46-15.82-23.39-28.05-17.26-13.24-42.6-23.5-56.55-25.32C105.15,118.41,105.09,118.91,104,118.87Z" class="color173660 svgShape"/><path fill="#713a1a" fill-rule="evenodd" d="M104,118.87s12.7,16.61,19.94,32.5c5.16,11.32,6,22.71,7.05,22.71s7.25-4.14,16.08-4.75c8.57-.59,13,3.64,16.07,4C165.52,173.56,127.57,119.75,104,118.87Z" class="color1a3f71 svgShape"/><path fill="#7b3c18" fill-rule="evenodd" d="M104,118.88a124,124,0,0,0-11.64,20.75c-9.24,21.57-9.89,33.45-9.17,33.24,1.83-.51,4.55-2,6.32-2.65a43.51,43.51,0,0,1,16.86-2.38,56.37,56.37,0,0,1,14.8,2.84c2.3.77,7.33,3.4,9.83,3.4.52,0-2.56-15.89-9.06-29.88S104,118.88,104,118.88Z" class="color18457b svgShape"/><path fill="#8e4216" fill-rule="evenodd" d="M104,118.86a2.63,2.63,0,0,1-.3,0l-.25,0c-2.27.73-12.49,4.77-27.41,18.79-13.86,13-29.29,33.23-27.61,33.3,2.62.1,5.8-4.21,15.91-3.78a39.71,39.71,0,0,1,11.38,2.66c3.19,1.28,6.19,3.43,7.46,3.07.92-.26,1.82-13.34,7-26.84S104,118.86,104,118.86Z" class="color16568e svgShape"/><path fill="#a85626" fill-rule="evenodd" d="M103.48,118.83a2.36,2.36,0,0,1-1-.36s-25.58,5.8-40.32,14C35,147.64,22.12,169.08,23.27,168.83c3.61-.77,7.11-2.75,12-2.43,7.73.5,10.2,4.4,13.19,4.52,1.31.05,10.69-16.43,24.17-29.38C86.28,128.43,103.68,118.87,103.48,118.83Z" class="color266da8 svgShape"/><path fill="#c6825a" fill-rule="evenodd" d="M102.53,118.47A1.27,1.27,0,0,1,102,118a114.58,114.58,0,0,0-32.15,3.71,116.35,116.35,0,0,0-27.16,11,133.36,133.36,0,0,0-29.89,22.2C6.67,161.07,0,168.58,0,170c0,.39,2.91-2,6.92-3.3a18.79,18.79,0,0,1,9.79,0c3.6.85,4.57,2.58,6.56,2.15,1.13-.24,3.25-5.8,9.12-12.55S47.58,141.93,59,134.67C73.19,125.7,102.91,118.7,102.53,118.47Z" class="color5a92c6 svgShape"/><path fill="#4a2610" fill-rule="evenodd" d="M77.41,252.13c-.66,1.63-.94,4.89-1.21,6.61-.23,1.51-.5,5.8-.72,8.84-.35,5.07-.3,8.34-.3,13.44,0,4,.43,7.76.56,11.72.11,3.26.29,4.17.6,7.41.07.78.3,3,.3,3,.75.3,4.11,1.07,6.25,0,0,0,.12-10.22.25-12.63.26-4.66.22-8.56.82-14.46.24-2.46.9-8.65,1.45-8.86s1.63,6.8,2.18,10.06c.31,1.8,1.41,9.1,2,13.31s.68,4.83,1.07,8.26c.07.67.54,4.82.54,4.82.29.44,6,.84,6.65.06,0,0,.07-6-.22-9-.23-2.52-.41-6.08-.55-8.61-.22-3.82-.54-7.06-.95-10.87-.33-3.15-1.41-13.69-1.67-16.09s-.83-6.79-1.32-7.45C92.8,251.26,77.48,252,77.41,252.13Z" class="color10284a svgShape"/><path fill="#ff6103" fill-rule="evenodd" d="M77.42,303.42l.35,3.17a6.08,6.08,0,0,1,.53-.36c.25,0,.47,0,.72.07a3.68,3.68,0,0,0,2.49-.24c.2-.12.39.83.53.65a25.75,25.75,0,0,0,.11-3.21s-.69.15-1,.2a15.61,15.61,0,0,1-1.57,0A12.4,12.4,0,0,1,77.42,303.42Z" class="colorf16c47 svgShape"/><path fill="#a65c30" fill-rule="evenodd" d="M77.86,306.54l-.06.23Z" class="colora64530 svgShape"/><path fill="#050403" fill-rule="evenodd" d="M81.88,305.77a7,7,0,0,1,.6,2.12c0,.07.28.64-.79.72a40.79,40.79,0,0,1-7.08-.15c-1-.18,1.26-1.16,1.69-1.59.24-.23.82-.43,1.15-1s.47-.86.85-.92a3.8,3.8,0,0,1,2.16.08A3.73,3.73,0,0,1,81.88,305.77Z" class="color050303 svgShape"/><path fill="#ff6103" fill-rule="evenodd" d="M92.55,304.07l.33,3.25s.34-.52.39-.51c.25,0,.46,0,.71.06a3.83,3.83,0,0,0,2.5-.24c.19-.12.46.26.6.08a14.66,14.66,0,0,0-.16-2.59,7.82,7.82,0,0,1-.89.08c-.33,0-1.07,0-1.58,0A14.68,14.68,0,0,1,92.55,304.07Z" class="colorf16c47 svgShape"/><path fill="#050403" fill-rule="evenodd" d="M92.77,306.16a5.45,5.45,0,0,0-.48,1.93c0,.07-.38,1,.81,1.06A50.84,50.84,0,0,0,101,309c1.11-.17-1.2-1.07-1.68-1.49a9.59,9.59,0,0,1-1.69-1.27c-.55-.64-.67-1.12-1.29-1.14s-.91.3-2.09.64C93.75,305.89,93,305.88,92.77,306.16Z" class="color050303 svgShape"/><path fill="#ff6103" fill-rule="evenodd" d="M80.18,224s1-.34,1.11-.42c1.35-.94.69-3.71.63-4s-.17-.79-.29-1.17a15,15,0,0,0-.58-1.45,4.62,4.62,0,0,1-1.23-1c-.31-.49-.54-1.07.29-1.19a2.14,2.14,0,0,1,1,.23,10.79,10.79,0,0,1,.93-3.32,2.77,2.77,0,0,1,2.54-1.19,4.44,4.44,0,0,1,2.27,1.07A5.74,5.74,0,0,1,88,213.3a13.31,13.31,0,0,1,.71,2.1,9.66,9.66,0,0,1,.28,2.86,2.18,2.18,0,0,1-.74,1.51,5.23,5.23,0,0,1-1.94.79,9.69,9.69,0,0,0,0,1,2.11,2.11,0,0,0,.36,1.19,6.63,6.63,0,0,0,1.79,1.12s2.06,5.34.73,6-1.92,4.64-2.74,4.34C85.44,233.79,80.18,224,80.18,224Z" class="colorf16c47 svgShape"/><path fill="#ffffff" fill-rule="evenodd" d="M86.48,217.05a6.74,6.74,0,0,1-2.24,0c-.34-.05-1-.34-1.28-.16-.12.07-.11.24-.1.36a1.54,1.54,0,0,0,.39.81,2.22,2.22,0,0,0,2.22.78,1.87,1.87,0,0,0,1.28-.88C86.91,217.65,87,217,86.48,217.05Z" class="colorfff svgShape"/><path fill="#fdceb2" fill-rule="evenodd" d="M84.7,212.43c0-.19-.41-.33-.89-.31s-.86.18-.85.37.4.33.88.32S84.7,212.62,84.7,212.43Z" class="colorfdd6b2 svgShape"/><path fill="#fadccb" fill-rule="evenodd" d="M82,222.57c.29.88,1.45,4,3.52,3.73,2.51-.3,1.09-3.23,1.07-3.75L90.06,224s-.41,10.31-1.24,14.73a25.48,25.48,0,0,1-1.2,4.87c-.18.47-.39.92-.58,1.38-.06.15-.19.47-.31.36-1.18-1-2.1-3.78-2.59-5.18-1.34-3.8-2.65-7.62-3.62-11.53-.3-1.18-.65-2.36-.94-3.53-.06-.22-.48-1.19-.48-1.19Z" class="colorfae2cb svgShape"/><path fill="#b1551f" fill-rule="evenodd" d="M81.28,222.5c-1.33.29-4.24.59-6.42,1.9-3,1.81-5,4.68-8.48,11s-6,11-9.11,14.77c-1.87,2.23,2,2.77,4.18,4.55.72.6,7.57-7.08,9.42-10.46s4.37-7.08,4.37-7.08a19.81,19.81,0,0,1,1,4.38,67.52,67.52,0,0,1,.3,10.86c-.17,2-.25,3.62-.87,4.37a2.19,2.19,0,0,0-.06,2.27,12.65,12.65,0,0,0,3.59,1.72,9.87,9.87,0,0,0,2.89.47c2.74-.16,4-4.1,4.49-6.35,1.49-7-.1-15.62-1.81-22.33-.57-2.26-.65-3-1.72-6.45C82.9,225.6,81.73,222.41,81.28,222.5Z" class="colorb11f24 svgShape"/><path fill="#b1551f" fill-rule="evenodd" d="M86.87,222.74a35.57,35.57,0,0,1,1,10c-.06,3.75-1.09,7-1.87,10.5-.26,1.18.31,6.21.56,7.57.57,3.11.21,7.35,2.76,9.61,1,.86,3.62-.29,4.7-.47a2.56,2.56,0,0,0,1.35-.89c.31-.62-.73-2.41-.73-2.41s-.11-3.43-.06-4.86c.14-3.82,0-7.12.08-9.58,0-1,.29-4.27.29-4.27s2.67,4.73,3.27,5.44c1.47,1.74,1.57,2.85,3.85,3.27.94.17,3.79-.78,7-2.46,2.35-1.24,5.16-3.32,4.76-3.8s-1.67-4.65-2.87-3.94c-6.31,3.75-6.15,2.8-6.94,2a31.25,31.25,0,0,1-2.73-4.56c-1.09-2.15-3-7.3-7.19-9.52A15.58,15.58,0,0,0,89.73,223C89.4,222.9,86.77,222.37,86.87,222.74Z" class="colorb11f24 svgShape"/><path fill="#fdceb2" fill-rule="evenodd" d="M81.62,218.44a10,10,0,0,0-.55-1.54,6.63,6.63,0,0,1-1.09-.78.85.85,0,0,1-.28-.8c.07-.36.65-.42.94-.42l.46,0,.18-1.19a2,2,0,0,1,.68-1.27c1.92-1.08,1.75-2.24,3.73-1.63a3.94,3.94,0,0,1,2,1.95c.28.54.7,1.55.7,1.55a2.59,2.59,0,0,1,.76-.54,2.11,2.11,0,0,0,.71-.53,5.44,5.44,0,0,0,1.18-2.08,1.82,1.82,0,0,0-.1-1.53c-.29-.34-.93-.08-.93-.08s.21-.24.25-.31a2,2,0,0,0,.2-.51,1.75,1.75,0,0,0-.37-1.75c-.65-.62-1.68.22-2.31.49a7.14,7.14,0,0,1-.74.25,1.69,1.69,0,0,0,.25-.35c.22-.34,0-.76-.58-.65a8.59,8.59,0,0,0-1.91.85c-2.14,1.09-4.9.46-6.28,2.89-.61,1.08,0,4,.8,5.72S81.63,219.06,81.62,218.44Z" class="colorfdd6b2 svgShape"/><path fill="#fdceb2" fill-rule="evenodd" d="M88.22,212.33c0-.19-.4-.33-.88-.31s-.87.18-.86.37.4.33.89.31S88.23,212.52,88.22,212.33Z" class="colorfdd6b2 svgShape"/><path fill="#361d0e" d="M84.09 214.41l-.11 0a.34.34 0 01-.14-.15.27.27 0 010-.15V214a.3.3 0 010-.1.29.29 0 01.15-.23.23.23 0 01.11 0h0a.24.24 0 01.21.12.42.42 0 010 .1.18.18 0 010 .1v.15a.15.15 0 010 .07v0a.14.14 0 010 .06h0a.25.25 0 01-.11.12A.33.33 0 0184.09 214.41zM87.5 214.1h0a.23.23 0 01-.2-.13l0-.06a.27.27 0 010-.12v-.13a.41.41 0 01.16-.3.28.28 0 01.22 0 .28.28 0 01.15.15h0l0 .08a.56.56 0 000 .07v.15a.24.24 0 01-.05.14l0 .05A.26.26 0 0187.5 214.1z" class="color0e1d36 svgShape"/><path fill="#bf6834" d="M86.15,216.35a1.28,1.28,0,0,1-.62-.22.24.24,0,0,1-.08-.34.24.24,0,0,1,.34-.08c.28.16.37.14.38.14s-.1-1-.17-1.23a3.69,3.69,0,0,1-.1-.47.25.25,0,0,1,.5-.05,1.82,1.82,0,0,0,.09.39c.21.83.34,1.49,0,1.77A.51.51,0,0,1,86.15,216.35Z" class="colorbf4734 svgShape"/><path fill="#bf6834" fill-rule="evenodd" d="M85.08,220.54a4.9,4.9,0,0,1-2.47-1,9.19,9.19,0,0,1-1.08-1.42s.27,1,.4,1.59a6.19,6.19,0,0,1,.17,1.12,14.67,14.67,0,0,0,2.21,1,14.33,14.33,0,0,0,2.1.49,4.32,4.32,0,0,1-.13-.9c0-.52,0-.81,0-.81A2.86,2.86,0,0,1,85.08,220.54Z" class="colorbf4734 svgShape"/><path fill="#874117" d="M94.69 236.06a.25.25 0 01-.25-.25 33.18 33.18 0 00-.91-7.85c0-.1 0-.23-.07-.37a5.07 5.07 0 00-.64-1.87.25.25 0 01.35-.35 4.74 4.74 0 01.77 2.12l.08.35a34.19 34.19 0 01.92 8A.25.25 0 0194.69 236.06zM86.94 251.74a.25.25 0 01-.25-.25c0-1.4 0-2.84-.06-4.23s-.07-2.82-.07-4.23a.26.26 0 01.25-.25.25.25 0 01.25.25c0 1.4 0 2.83.07 4.22s.06 2.83.06 4.24A.25.25 0 0186.94 251.74zM75.29 235.53h-.07a.25.25 0 01-.17-.31 19.1 19.1 0 00.73-7 8.51 8.51 0 00-.2-1 7.82 7.82 0 01-.24-1.48.25.25 0 01.25-.25.25.25 0 01.25.25 7.11 7.11 0 00.23 1.37c.08.38.17.77.21 1.1a19.72 19.72 0 01-.75 7.21A.25.25 0 0175.29 235.53z" class="color87171a svgShape"/><path fill="#f18748" fill-rule="evenodd" d="M108.7,229.77a5,5,0,0,0,.64-.28,4.43,4.43,0,0,0,.62-.39c1.65-1.15,1.43-3.62,1.5-4.45a14.12,14.12,0,0,0-.28-2.69,4.56,4.56,0,0,1-1-1.25c-.2-.55-.3-1.17.51-1.13a2.09,2.09,0,0,1,.89.43,11.24,11.24,0,0,1,1.56-3.12,2.64,2.64,0,0,1,2.68-.67,4.14,4.14,0,0,1,2,1.5,6,6,0,0,1,.79,2,13.72,13.72,0,0,1,.25,2.22,10.27,10.27,0,0,1-.3,2.89,2.24,2.24,0,0,1-1,1.35,4.89,4.89,0,0,1-2,.41s-.13.51-.21,1a2.22,2.22,0,0,0,.1,1.25,6.84,6.84,0,0,0,1.49,1.47s-.46,4.4-1.85,4.75a7.43,7.43,0,0,1-4.26-.35C109.89,234.11,108.7,229.77,108.7,229.77Z" class="colorf16c48 svgShape"/><path fill="#b2561f" fill-rule="evenodd" d="M116,223.57a6.35,6.35,0,0,1-1.86-.74c-.26-.16-.66-.62-1-.59-.11,0-.17.17-.2.26a1.4,1.4,0,0,0,0,.81,2,2,0,0,0,1.55,1.42,1.68,1.68,0,0,0,1.36-.29C116.15,224.22,116.42,223.68,116,223.57Z" class="colorb21f24 svgShape"/><path fill="#974e22" fill-rule="evenodd" d="M115.45 218.16c0-.19-.3-.41-.75-.49s-.83 0-.87.19.3.41.75.49S115.41 218.35 115.45 218.16zM118.58 218.56c0-.19.15-.35-.3-.43s-.83 0-.87.19.3.4.74.48S118.55 218.75 118.58 218.56z" class="color974b22 svgShape"/><path fill="#ffbf66" fill-rule="evenodd" d="M116.37,229.75a7.51,7.51,0,0,1-5.22,1.15,4.65,4.65,0,0,1-2.3-1.22c-1.92.38-2.56,1-4.25,3.32a15,15,0,0,1-3,3.43c-.45.36.82,2.21,1.37,3a7.16,7.16,0,0,0,2,1.67l1.52-1.06s.3,4.46.33,6.66a47.74,47.74,0,0,1-1.24,7.88c-2.22,8-5.92,18.92-5.73,19.31.38.76,2.87,0,5.54.57,2.09.42,5.88,2.42,8,2,7-1.38,12.61-.15,12.86-.4s-1.93-11.74-4.7-21.1c-1.14-3.86-2.43-4.43-2.88-6.32a11.52,11.52,0,0,1-.19-3.87s.33-2.26.43-3c0,0,.28.88.65,1.06s2.93-.65,3.75-1,2.07-.79,1.83-1.3c-1.18-2.56-1.91-6.23-3.5-8.6C120.54,230.37,116.37,229.75,116.37,229.75Z" class="coloreaae4f svgShape"/><path fill="#974e22" fill-rule="evenodd" d="M118.64,219.91a2.63,2.63,0,0,0-.18-2.51,5.35,5.35,0,0,0-2.9-2.54,8.2,8.2,0,0,0-2.58-.44s0,0,.07-.66a1.72,1.72,0,0,0-2-2l-.46.17s.15-.11-.35-.71a2.7,2.7,0,0,0-3.37-.58,1.78,1.78,0,0,0-.76,1.62,4.44,4.44,0,0,0,0,.62s.06.3,0,.3a3.19,3.19,0,0,0-.48-.12c-.55-.09-.84.2-1.09.7a1.35,1.35,0,0,0-.09.82c0,.14.28.37.14.38-.41,0-.78.66-.86,1.1a2.39,2.39,0,0,0,1.27,2.26,4.45,4.45,0,0,0,.75.39l.44.13s-.6,1-.33,1.64a1.52,1.52,0,0,0,.88.73,1,1,0,0,0,.35.07c.06,0,.17-.06.18,0a.85.85,0,0,0,.23.65c.07.08.34.12.35.19a3.92,3.92,0,0,0,1.74,2.19,3.38,3.38,0,0,0,1.2.38c.57,0,.57-.09.6-.52a13.27,13.27,0,0,0-.33-2.16,7.58,7.58,0,0,1-.82-1c-.34-.59-.32-1.07-.18-1.21.31-.29.62-.17.92,0,.15.07.43.31.48.28s.37-.69.38-.73a13.39,13.39,0,0,1,1-1.53s.61.22,1.48-.68c.46-.47.66-1.72,2.68,0A5.46,5.46,0,0,1,118.64,219.91Z" class="color974b22 svgShape"/><path fill="#bf6834" fill-rule="evenodd" d="M114.2,226.37A3.67,3.67,0,0,1,112,225a4,4,0,0,1-.52-1.28,5.25,5.25,0,0,1,0,.53c0,.23,0,.42-.07,1s-.06,1-.06,1a12.47,12.47,0,0,0,1.94,1.34,12.8,12.8,0,0,0,2,.83,4.25,4.25,0,0,1,0-.9c.1-.51.21-.9.21-.9A4.94,4.94,0,0,1,114.2,226.37Z" class="colorbf4734 svgShape"/><path fill="#37261c" d="M118,220.83a.34.34,0,0,1-.33-.22.49.49,0,0,1,.11-.62.38.38,0,0,1,.6.45c0,.13-.09.37-.35.39Zm-.25-.54a.3.3,0,0,0,.12.2.27.27,0,0,0,.33,0,.16.16,0,0,0,.06-.09l-.19-.09.2.07a.16.16,0,0,0,0-.07.32.32,0,0,0-.28-.15.28.28,0,0,0-.16.05l.24.1-.25-.1Zm0-.09h0Z" class="color1c2237 svgShape"/><path fill="#37261c" d="M118 220.73h-.1a.33.33 0 01-.22-.41l.33.07-.32-.11v0a.33.33 0 11.65.1v0a.61.61 0 010 .11A.34.34 0 01118 220.73zM114.52 220.26h-.06c-.28 0-.36-.37-.33-.58a.43.43 0 01.26-.32.4.4 0 01.38.06.41.41 0 01.14.4C114.85 220.21 114.63 220.26 114.52 220.26zm-.27-.52a.28.28 0 00.09.19.29.29 0 00.28 0 .25.25 0 00.16-.18l-.2 0 .21 0h0a.28.28 0 00-.26-.19A.31.31 0 00114.25 219.74z" class="color1c2237 svgShape"/><path fill="#37261c" d="M114.49,220.17h-.08a.33.33,0,0,1-.24-.4l0-.09s0,0,0,0h0a.33.33,0,0,1,.66.11s0,0,0,.06l0,.12A.32.32,0,0,1,114.49,220.17Z" class="color1c2237 svgShape"/><path fill="#bf6834" d="M116.21,222.72a.82.82,0,0,1-.47-.18.34.34,0,0,1-.07-.47.32.32,0,0,1,.46-.07l.05,0a3.21,3.21,0,0,0,.12-1.27v-.2a.32.32,0,0,1,.34-.32.32.32,0,0,1,.32.34v.18c0,.82,0,1.65-.49,1.89A.5.5,0,0,1,116.21,222.72Z" class="colorbf4734 svgShape"/><path fill="#ff6103" fill-rule="evenodd" d="M94.82 239.37a10.32 10.32 0 001.84 0 16 16 0 004.85-2.46 9 9 0 001.32 2.34 6.76 6.76 0 001.91 1.72c-2.3 1.63-6.6 3.52-10.18 3.36l0-1.75zM129.45 252.3a42.68 42.68 0 003 4.49c.9 1.28 2.23 3.29 2.3 3.33 1 .5 1.26 1.56 2.11 2.27.23.19.92.68.82 1.07 0 .14-.31.13-.42.11-.45-.06-.75-.47-1.16-.64-.12 0-.62-.32-.57 0a5.82 5.82 0 001.25 2.37c.08.11 1 1.12.72 1.31s-.54-.11-.67-.18-.4-.06-.65-.07a2 2 0 01-.77-.3 4.07 4.07 0 01-1.05-.55 8.82 8.82 0 01-1.73-2.56 17.89 17.89 0 00-2.59-3.28 52.72 52.72 0 01-3.72-4.36 49 49 0 01-4.37-6.84 41.6 41.6 0 01-2.14-5.58s1.89-.44 2.79-.75a21.63 21.63 0 002.13-.89c.14-.2 1.13 3.2 1.66 4.62A45.89 45.89 0 00129.45 252.3zM121.36 275.81s-.32 2.29-.39 3.52c-.16 3.35.2 4.73 0 8.08-.22 3.08-.44 6-.85 9-.32 2.36-.8 5.47-1 7.84-.3 2.89-.11 3.63-.55 4.37-.2.34-2.47.57-2.86.57-.22 0-2.75.12-2.57-.07s-1.31-1.86-1.31-1.86 3.59-1.56 3.6-2.92c.06-4.92-.77-12.58-1-17.9-.15-4.61-.24-10.11-.24-10.11A18.71 18.71 0 01116 276C117.78 275.82 121.36 275.81 121.36 275.81z" class="colorf16c47 svgShape"/><path fill="#ff6103" fill-rule="evenodd" d="M102.75,274.28s-1.17,3-.91,4.84a89.34,89.34,0,0,0,2.75,10.4c.94,2.92,1.84,6,2.7,9a19.69,19.69,0,0,1,.77,3.35c.23,1.48-2.68,2.52-2.68,2.52l1.41,2.17,5.49-.66a24.59,24.59,0,0,0,.06-4.65c-.38-3.49-1-10.92-1.52-14.42s-1.58-5.86-1.67-7.5a12.79,12.79,0,0,1,1-3.28l-1.67-.62a21,21,0,0,0-3.13-1A11.33,11.33,0,0,0,102.75,274.28Z" class="colorf16c47 svgShape"/><path fill="#050403" fill-rule="evenodd" d="M119.48 308.58c-.07-.52-.58-2.38-.58-2.38a3.8 3.8 0 00-1.09 1.08 5 5 0 00-.56 1.55c-.8.07-1 .12-1.76.16-.38 0-1.36.12-1.74.08A8.32 8.32 0 00113 308a2.29 2.29 0 00-1-.86s-3.25 1.08-3.35 1.67c-.2 1.16 2.14 1.05 2.84 1.06 1 0 5.92-.23 6.3-.26s1.4-.06 1.58-.28S119.51 308.81 119.48 308.58zM113.1 305.6c-.06-.52-.58-2.38-.58-2.38a3.94 3.94 0 00-1.09 1.08 4.75 4.75 0 00-.55 1.55c-.81.07-1 .11-1.77.15a14.48 14.48 0 01-1.74.08 9.3 9.3 0 00-.7-1.05 2.15 2.15 0 00-1-.84s-3.23 1.06-3.33 1.64c-.19 1.17 2.15 1.06 2.84 1.07 1 0 5.93-.23 6.3-.26s1.4-.06 1.59-.28S113.13 305.82 113.1 305.6z" class="color050303 svgShape"/><path fill="#ffffff" fill-rule="evenodd" d="M113.18,222.28c-.28,1,.94,1.6,1.8,1.82.33.08,1,0,1.15-.35.07-.15-.17-.22-.25-.23a7.17,7.17,0,0,1-1.18-.41c-.63-.26-.61-.44-1.06-.69C113.56,222.37,113.21,222.15,113.18,222.28Z" class="colorfff svgShape"/><path fill="#c2703f" d="M105.72 239a.24.24 0 01-.22-.14l-.15-.27a3.7 3.7 0 01-.37-.88c-.24-1.12.45-2.22 1.06-3.19a8.73 8.73 0 00.62-1.06 7.1 7.1 0 00.39-1.18 7.1 7.1 0 01.47-1.34.25.25 0 11.44.22 7.45 7.45 0 00-.43 1.26 7.35 7.35 0 01-.42 1.25 8.9 8.9 0 01-.65 1.12c-.58.93-1.19 1.9-1 2.81a2.74 2.74 0 00.32.75l.15.29a.23.23 0 01-.11.33A.2.2 0 01105.72 239zM118.52 240.85a.24.24 0 01-.22-.14 15.38 15.38 0 01-1-2.48c-.07-.25-.07-.25-.45-.63l.16-.2.17-.17-.17.17.19-.15c.44.43.48.47.58.84a14.93 14.93 0 001 2.41.25.25 0 01-.12.33A.22.22 0 01118.52 240.85z" class="colorc2823f svgShape"/><path fill="#ff6103" fill-rule="evenodd" d="M154.39,263.48s-1.23-.59-1.3-.66c-.93-.71-.55-2-.46-2.53s.57-2,.57-2a3.25,3.25,0,0,0,.91-.69c.24-.34.42-.75-.16-.86a1.57,1.57,0,0,0-.7.14,7.75,7.75,0,0,0-.56-2.4,2,2,0,0,0-1.77-.93,3.09,3.09,0,0,0-1.65.68,4,4,0,0,0-.9,1.21c-.22.43-.58,1.48-.58,1.48s-.53.46-.47,1.87a1.74,1.74,0,0,0,.64,1.36,5.47,5.47,0,0,0,1.38.53s0,.37,0,.7a1.49,1.49,0,0,1-.29.84,5,5,0,0,1-1.32.74s-1.64,3.74-.71,4.23,1.22,3.37,1.81,3.18S154.39,263.48,154.39,263.48Z" class="colorf16c47 svgShape"/><path fill="#ffffff" fill-rule="evenodd" d="M149.33,258.17a5.29,5.29,0,0,0,1.59.1c.24,0,.7-.21.93-.07s.06.17.06.25a1.21,1.21,0,0,1-.32.57,1.55,1.55,0,0,1-1.61.48,1.33,1.33,0,0,1-.88-.67C149,258.58,149,258.1,149.33,258.17Z" class="colorfff svgShape"/><path fill="#ff6103" fill-rule="evenodd" d="M164.15 282.49a6.62 6.62 0 001.11 1.63c.46.58 1.09 1.5 1 1.68s-.56-.32-.53-.25a5.82 5.82 0 01.42.84c0 .06.17.27-.05.34s-.5-.31-.58-.37.55 1 .14 1-1-.85-1-.82.22.79-.21.5a7.84 7.84 0 01-1.57-2.12s0 .47 0 .88-.45.72-.47.45a17.87 17.87 0 00-.78-3.1c-.4-1.26-3.8-5.86-4.33-6.8-1.31-2.34-2.63-4.77-3.83-6.75l3.71-2.14c.78 1.39 2 4 3.35 7C162.13 278.05 163.94 282.08 164.15 282.49zM138.32 270.77c-1.11-1.81-2.31-5.66-2.87-6.29a7.59 7.59 0 00-1.2-1.81c-.53-.51-1-.54-1.21-.87s.23-.48.23-.48-.62-.26-.57-.52.87-.18.87-.18-.56-.27-.54-.5.83-.26.86-.32c.1-.26-.54-.16-.28-.45s.76-.17 1.36-.05a4.73 4.73 0 011.73.82c.44.38.62 2.32.71 2.5.58 1.17 1.06 2.39 1.8 3.68s2.2 3.28 2.72 3.16 1.69-3.13 3-4.21l.49 5.28c-.85 1.63-2.48 3.64-3.8 3.61C140.13 274.11 139.42 272.58 138.32 270.77z" class="colorf16c47 svgShape"/><path fill="#f18748" fill-rule="evenodd" d="M155.41 307.72s1.38 3.41 1.4 3.42.15-.05.17-.05a1.08 1.08 0 01.47 0 2.69 2.69 0 00.87.17 1.55 1.55 0 00.93-.67s.13-.15.13-.19-1.3-3.59-1.3-3.59a2 2 0 01-.81.58 4 4 0 01-1.06.29A7.48 7.48 0 01155.41 307.72zM143.87 307.22s-.1 1.12-.23 2.24c0 .22-.15 1.35-.14 1.35s.81.68 1.16.86.69-.31 1-.22l.25.09s.05 0 .06 0 .14-.79.14-.82c.07-.44.5-3 .48-3a3.16 3.16 0 01-1.07.18 3.63 3.63 0 01-1.19-.32A1.32 1.32 0 01143.87 307.22z" class="colorf16c48 svgShape"/><path fill="#1b1512" fill-rule="evenodd" d="M156.39 310.21c.12-.48 1.21-.1 2-.15.58 0 .61-.82.61-.82.19 0 1.76 1.94 1.58 2.19a16.74 16.74 0 01-3.57 1.73 16.46 16.46 0 01-2.42.8c-.51.07-.64-.2-.47-.47.44-.72 1.21-1.39 1.65-2.11A4.27 4.27 0 00156.39 310.21zM143.64 309.7c.29-.4 1 .56 1.74.79.56.18.93-.67.93-.67.16.1.93 2.45.67 2.62a25.72 25.72 0 01-6.5.17c-.5-.12-.53-.42-.27-.62.67-.5 1.62-.87 2.3-1.37A4.73 4.73 0 00143.64 309.7z" class="color17121b svgShape"/><path fill="#fadccb" fill-rule="evenodd" d="M144.68,281c-.3-.11-.32,1.78-.37,2.07-.23,1.29-.27,1.94-.43,3.24-.26,2.17-.68,7.29-.7,10,0,1.47-.06,4.79,0,6.7s0,5.32.5,5.46c.7.18,2.29.58,3,0,.53-.43.69-4,.74-4.49.21-2,.43-4.47.86-7.61.16-1.17.95-5.18,1-5.18s.9,4,1.15,5c.8,3,2.23,7.75,2.79,9.06.36.81,1.24,3.81,1.84,3.95s3.74-.46,3.54-1.64c-.16-1-1-3.53-1.2-4.52-.43-2.06-.92-4.67-1.22-6.75-.53-3.73-.7-6.11-1.13-9.85a35.56,35.56,0,0,0-.5-4.65c-.1-.41-2.13-.11-2.49-.09a29.32,29.32,0,0,1-5.69-.25A14.13,14.13,0,0,1,144.68,281Z" class="colorfae2cb svgShape"/><path fill="#b2561f" fill-rule="evenodd" d="M152.77,263.32l.06-.05,0-.09.09-.08h0Z" class="colorb21f24 svgShape"/><path fill="#dfdcdb" fill-rule="evenodd" d="M153.2,262.84a4.55,4.55,0,0,1-2.91,1,2.24,2.24,0,0,1-1.84-1.23A5.54,5.54,0,0,0,145,264c-1.14,1.31-2.56,4.18-2.44,4.51s2.39,1.68,2.39,1.68-.22,3.15-.41,5.94a38.71,38.71,0,0,0-.19,5.1c.14.57,1.83.56,2.21.64a16.53,16.53,0,0,0,6,.08c.55-.1,1.85.08,2.29-.36s0-2.64,0-3.24c.05-3.55.26-6,.26-6l-1.19-2.12a12.88,12.88,0,0,1,1.61-1.21c.9-.52,1.89-.81,2-1s-.24-.93-.58-1.88a4.94,4.94,0,0,0-.87-1.78A5.42,5.42,0,0,0,153.2,262.84Z" class="colordbdddf svgShape"/><path fill="#fdceb2" fill-rule="evenodd" d="M152.8,259.55c.16-.51.38-1.31.38-1.31a4.55,4.55,0,0,0,.69-.53c.4-.41.39-.64.29-.77-.23-.31-1-.05-1-.05s-.64,0-.82-.44a1,1,0,0,1-.07-.81c0-.06.28-.59.28-.59s-.51-.19-.64-.26c-.82-.51-.36-1.36-1.34-1.12a3,3,0,0,0-1.28.6,3.63,3.63,0,0,0-.91,1.19,13.18,13.18,0,0,0-.58,1.46,1.33,1.33,0,0,0-.17.22,2.41,2.41,0,0,0-.16.35s-.4-.27-.35-.6a2.22,2.22,0,0,1,.13-.41s-.88-.29-.69-.93a1.93,1.93,0,0,1,.5-.66s.18-.27.18-.27a1.62,1.62,0,0,1-.64-.89c-.29-1.21,1.11-2,2.09-2.09a6.78,6.78,0,0,1,1,.1,4.18,4.18,0,0,1,.38-.49,2.91,2.91,0,0,1,1.35-.55A2.61,2.61,0,0,1,153.9,252a3.61,3.61,0,0,1,.25.91,5.57,5.57,0,0,1,.82.08,1.12,1.12,0,0,1,.74.48,2.23,2.23,0,0,1,0,2.54,4.2,4.2,0,0,1-.38.53,1.69,1.69,0,0,1,.23.2.88.88,0,0,1,.13.67c-.09.66-1.32,1.17-1.32,1.17a2,2,0,0,1-.17.69,1.87,1.87,0,0,1-.73.89C153.36,260.26,152.63,260.07,152.8,259.55Z" class="colorfdd6b2 svgShape"/><path fill="#fdceb2" fill-rule="evenodd" d="M150.65 255c0-.11.3-.12.6 0s.51.27.48.39-.32.12-.62 0S150.61 255.08 150.65 255zM148.35 254.75c0-.12.26-.22.57-.21s.57.11.57.23-.26.21-.58.2S148.34 254.86 148.35 254.75z" class="colorfdd6b2 svgShape"/><path fill="#361d0e" d="M148.66 255.88a.2.2 0 01-.13 0 .24.24 0 01-.09-.32v0l0 0h0v0a.26.26 0 01.36-.08.24.24 0 01.07.34s0 0 0 .05a0 0 0 010 0A.26.26 0 01148.66 255.88zM150.76 256.33l-.1 0a.24.24 0 01-.13-.31l0-.07a.26.26 0 01.28-.17.24.24 0 01.21.23v0a.17.17 0 010 .07l0 .06h0v0l-.08 0 .08 0A.26.26 0 01150.76 256.33z" class="color0e1d36 svgShape"/><path fill="#bf6834" d="M149.19,257.59a.46.46,0,0,1-.44-.25c-.16-.33.36-1.16.47-1.33a.25.25,0,1,1,.42.28,5,5,0,0,0-.41.8l.14,0,.21,0a.25.25,0,0,1,0,.49l-.1,0A1.19,1.19,0,0,1,149.19,257.59Zm0-.42Z" class="colorbf4734 svgShape"/><path fill="#bf6834" fill-rule="evenodd" d="M150.26,260.73a3.14,3.14,0,0,0,1.9-.78,6.14,6.14,0,0,0,.8-.95s-.17.61-.22.86-.08.32-.16.69a2.91,2.91,0,0,0-.07.46,14,14,0,0,1-1.84.66,8.86,8.86,0,0,1-1.48.25,4,4,0,0,0,.13-.66c0-.36,0-.58,0-.58A4.27,4.27,0,0,0,150.26,260.73Z" class="colorbf4734 svgShape"/><path fill="#dfdcdb" fill-rule="evenodd" d="M160.35 310.91c.16.25.24.45.19.52a16.74 16.74 0 01-3.57 1.73 16.46 16.46 0 01-2.42.8c-.51.07-.64-.2-.47-.47a8.61 8.61 0 01.95-1.2c.14-.16 1.08.63 1.08.63s1.38-.5 2.46-1A9.52 9.52 0 00160.35 310.91zM147 311.92c.05.27.05.47 0 .52a25.72 25.72 0 01-6.5.17c-.5-.12-.53-.42-.27-.62a10.36 10.36 0 011.27-.75c.16-.08.56 1 .56 1s1.69.06 2.93 0A6.52 6.52 0 00147 311.92z" class="colordbdddf svgShape"/><path fill="#c2c2c2" d="M153.15 269.44a.25.25 0 01-.23-.14c-.14-.29-.29-.58-.44-.86l-.48-.95a.25.25 0 01.11-.33.26.26 0 01.34.11c.15.32.31.63.47.94l.45.87a.25.25 0 01-.11.33zM145 268.52h0a.25.25 0 01-.22-.28 10.18 10.18 0 011.39-4.45.25.25 0 01.34-.07.25.25 0 01.07.35 9.83 9.83 0 00-1.3 4.23A.26.26 0 01145 268.52z" class="colorc2c2c2 svgShape"/><path fill="#ffb58a" d="M149.2,289.51a.25.25,0,0,1-.24-.2,7.59,7.59,0,0,1-.15-1.41,8.12,8.12,0,0,0-.07-1,12.44,12.44,0,0,0-.3-1.36,8.17,8.17,0,0,1-.37-2.22.25.25,0,0,1,.5,0,7.61,7.61,0,0,0,.35,2.09,10.68,10.68,0,0,1,.31,1.42,9.45,9.45,0,0,1,.08,1.05,8.09,8.09,0,0,0,.13,1.32.25.25,0,0,1-.19.3Z" class="colore8c3a2 svgShape"/><path fill="#f18748" fill-rule="evenodd" d="M56.33,246.69a3.6,3.6,0,0,0,.53-.22,5.19,5.19,0,0,0,.5-.32c1.35-.94,1.17-3,1.23-3.64a12,12,0,0,0-.23-2.21,3.79,3.79,0,0,1-.79-1c-.17-.44-.25-1,.42-.92a1.71,1.71,0,0,1,.72.35A9.13,9.13,0,0,1,60,236.15a2.18,2.18,0,0,1,2.2-.56,3.57,3.57,0,0,1,1.61,1.23,5.33,5.33,0,0,1,.64,1.62,12.51,12.51,0,0,1,.2,1.82,8.45,8.45,0,0,1-.24,2.38,1.86,1.86,0,0,1-.84,1.1,4.06,4.06,0,0,1-1.66.33s-.11.42-.17.8a1.8,1.8,0,0,0,.08,1c.16.4,1.22,1.2,1.22,1.2s-.37,3.61-1.52,3.9a6.06,6.06,0,0,1-3.49-.29C57.3,250.25,56.33,246.69,56.33,246.69Z" class="colorf16c48 svgShape"/><path fill="#ffffff" fill-rule="evenodd" d="M62.32,241.62A5.16,5.16,0,0,1,60.8,241c-.22-.13-.55-.51-.82-.48-.1,0-.14.14-.17.21a1.14,1.14,0,0,0,0,.66,1.59,1.59,0,0,0,1.28,1.16,1.36,1.36,0,0,0,1.11-.22C62.43,242.15,62.66,241.71,62.32,241.62Z" class="colorfff svgShape"/><path fill="#4a2610" fill-rule="evenodd" d="M61.85,237.19c0-.16-.24-.34-.6-.41s-.69,0-.72.16.25.33.61.4S61.82,237.34,61.85,237.19Z" class="color10284a svgShape"/><path fill="#1b1512" fill-rule="evenodd" d="M64.43,237.51c0-.15.11-.28-.25-.35s-.68,0-.71.15.24.34.6.41S64.4,237.67,64.43,237.51Z" class="color17121b svgShape"/><path fill="#bf6834" fill-rule="evenodd" d="M60.84,243.91a3,3,0,0,1-1.78-1.11,4.61,4.61,0,0,1-.5-1.13s0,.17,0,.52c0,.2,0,.34,0,.79s0,.79,0,.79a10,10,0,0,0,1.58,1.1,10.21,10.21,0,0,0,1.61.68,3.49,3.49,0,0,1,0-.74,7.07,7.07,0,0,1,.16-.73A4.19,4.19,0,0,1,60.84,243.91Z" class="colorbf4734 svgShape"/><path fill="#ff6103" fill-rule="evenodd" d="M46.2 261.06s-3.67 6.28-4.41 6.95a17.17 17.17 0 01-2.45 2c-.74.44-1.8 1.18-1.74 1.43s.74-.12.67-.06a9 9 0 00-.8.75c0 .05-.29.23-.09.38s.68-.13.79-.16-1 .9-.56 1 1.42-.52 1.4-.48-.56.76 0 .63a9.12 9.12 0 002.58-1.68s-.17.53-.33 1 .2 1 .33.68c.28-.6 2.05-2.79 2.35-3.26.82-1.3 3.85-4.86 5-6.55C49.67 262.52 46.2 261.06 46.2 261.06zM68.28 264.09s.11 6.65.4 7.51a15.43 15.43 0 001 2.69c.4.69.91 1.76.76 1.92s-.54-.42-.52-.34a6.19 6.19 0 01.31.95c0 .06.13.31-.1.35s-.48-.41-.56-.48.41 1.17 0 1.06-.9-1.06-.9-1 .1.86-.3.49a8.17 8.17 0 01-1.31-2.49s-.1.5-.17.93-.59.68-.57.4c0-.61-.39-3.14-.41-3.65-.08-1.41-.89-5.6-1-7.44C64.86 263.7 68.28 264.09 68.28 264.09zM58.6 282.45a22.73 22.73 0 01.45 3.68c-.22 2.61 0 2.89-.2 5.5-.15 2.41-.27 4.65-.27 7.05 0 1.86.05 4.31 0 6.16-.06 2.27-.29 2.82 0 3.43.12.28 1.85.7 2.15.74s2.11.37 2 .21 1.19-1.3 1.19-1.3-2.6-1.57-2.48-2.63c.46-3.8 1.91-9.63 2.58-13.72a41.77 41.77 0 00.43-9.6 7.17 7.17 0 01-2.18.12A17.94 17.94 0 0058.6 282.45zM56.55 282.06A12.1 12.1 0 0155 285.47a68.52 68.52 0 01-5.92 5.77c-1.77 1.57-3.59 3.25-5.32 4.86A15.63 15.63 0 0041.91 298c-.73.88.78 2.72.78 2.72l-1.79.87L37.54 299a18.49 18.49 0 011.79-3.09c1.63-2.15 5-6.82 6.7-8.91s3.36-3.25 4.06-4.3a9.81 9.81 0 00.65-2.56l1.35.26a16.3 16.3 0 012.45.59A10.91 10.91 0 0156.55 282.06z" class="colorf16c47 svgShape"/><path fill="#4d260f" fill-rule="evenodd" d="M37.13 298.31c.28-.31 1.43-1.31 1.43-1.31a3.07 3.07 0 01.24 1.19 3.94 3.94 0 01-.31 1.26c.5.39.57.49 1.09.87a12.56 12.56 0 001.1.82 7.43 7.43 0 01.92-.39 1.6 1.6 0 011-.1s1.65 2.1 1.47 2.53c-.38.85-1.87-.24-2.33-.54-.63-.41-3.78-2.74-4-2.92s-.89-.66-.91-.88S37 298.45 37.13 298.31zM57.77 308.13c.11-.4.7-1.8.7-1.8a3 3 0 01.74.95 3.93 3.93 0 01.27 1.28c.62.13.74.19 1.36.3a12.79 12.79 0 001.35.25 7.86 7.86 0 01.66-.75 1.68 1.68 0 01.9-.55s2.4 1.17 2.42 1.63c0 .93-1.78.6-2.33.54-.75-.09-4.6-.81-4.89-.86s-1.08-.2-1.21-.39A1 1 0 0157.77 308.13z" class="color0f2b4d svgShape"/><path fill="#dfdcdb" fill-rule="evenodd" d="M63.07,247c-.12-.07-.12.25-.94.61a5.17,5.17,0,0,1-2.63.2c-2-.3-2.4-1.49-2.67-1.45a10.27,10.27,0,0,0-4.25,1.67c-2.42,2-3.61,6.22-4.7,8.32s-1,2.09-1.73,3.61A10.84,10.84,0,0,0,45,262.82,3.48,3.48,0,0,0,46.33,264a3.55,3.55,0,0,0,1.9.56,16.49,16.49,0,0,0,2.45-3.16c1-1.47,1.37-2.21,2.35-3.68.53-.79,1.83-3.07,1.83-3.07a37.39,37.39,0,0,1-.09,6.06c-.05.38-.54,1.9-.24,2.19,1.22,1.22,6.11,1.2,7.83,1a4.59,4.59,0,0,1,1.6-.13c.34.09.71,2.09.91,2.34s1,.2,1.86.2,1.37-.13,1.69-.78c.19-.39-.27-5.94-.27-7.13,0-3.07.1-5.77-.94-8.62C66.57,248.05,64.2,247.79,63.07,247Z" class="colordbdddf svgShape"/><path fill="#a74106" fill-rule="evenodd" d="M54.72,263c-.22-.2-.49.43-.66.63a14.13,14.13,0,0,0-1.75,2.56c-1.48,3-2.2,5.83-3.18,8.08-.2.46-1.56,3.9-1.39,4.25a10,10,0,0,0,3.54,2.33,24.91,24.91,0,0,0,11.09,1.78,10.62,10.62,0,0,0,2.74-.57c.19,0,1.44-.27,1.49-.52A41,41,0,0,0,66,276.8c-.29-2.37-.49-4.77-1-8.08-.17-1-.52-4.14-1-5.06-.07-.12-1.79.25-2.34.25a23,23,0,0,1-4.92-.22A6.41,6.41,0,0,1,54.72,263Z" class="color065ca7 svgShape"/><path fill="#4a2610" fill-rule="evenodd" d="M62.24,237a15.8,15.8,0,0,0,2.14,1.2.94.94,0,0,0,.56-.74,2.73,2.73,0,0,0-.54-2.08,4.93,4.93,0,0,0-3.77-2,3.37,3.37,0,0,0-1.13.25,2.35,2.35,0,0,0-.94.64c-.07.09-.25.38-.27.39s-.24,0-.54,0a2.16,2.16,0,0,0-.94.58,1.6,1.6,0,0,0-.42.75c0,.08-.09.45-.09.45l-.26,0a1.08,1.08,0,0,0-.31.07c-.36.14-.62.73-.75,1-.54,1.42-.22,3-.56,4.49a8.59,8.59,0,0,1-2,3.4,15.31,15.31,0,0,0-1.64,2.36,10.4,10.4,0,0,0-1,2.88,3.26,3.26,0,0,0,0,1.43,11.53,11.53,0,0,1,.86-1.64,12.35,12.35,0,0,1,1.68-2.18,7.52,7.52,0,0,1,2.8-1.47,2.78,2.78,0,0,0,1.13-.93,3.61,3.61,0,0,0,.62-1.16,12.26,12.26,0,0,0,.66-2.39c.07-.34.13-.69.19-1,0-.12,0-.26.05-.39l0-.21a1.21,1.21,0,0,0,.32.55.94.94,0,0,0,.43.31,4.44,4.44,0,0,0-.08-.83l-.08-.47s-.39-.44-.51-.62-.5-.88-.27-1.09c.41-.38,1.1.17,1.1.17s.37-.88.44-1.07c.56-1.37,1.11-1.7,1.53-1.83C60.68,235.85,61.32,236.36,62.24,237Z" class="color10284a svgShape"/><path fill="#361d0e" d="M61 239h-.07a.32.32 0 01-.15-.13.5.5 0 010-.13v-.05a.24.24 0 01.06-.17.25.25 0 01.12-.11.25.25 0 01.32.13.32.32 0 010 .14v0a.41.41 0 010 .11.34.34 0 01-.14.15A.31.31 0 0161 239zM63.93 239.08h-.06a.24.24 0 01-.18-.27v-.08a.25.25 0 01.49 0 .22.22 0 010 .08.41.41 0 010 .11l0 0A.25.25 0 0163.93 239.08z" class="color0e1d36 svgShape"/><path fill="#bf6834" d="M62.57,240.72a.94.94,0,0,1-.59-.33.26.26,0,0,1,0-.35.25.25,0,0,1,.36,0,.85.85,0,0,0,.18.15,3.89,3.89,0,0,0,0-.9c0-.14,0-.27,0-.36a.25.25,0,0,1,.5,0c0,.08,0,.19,0,.32.06.74.07,1.27-.27,1.43A.38.38,0,0,1,62.57,240.72Z" class="colorbf4734 svgShape"/><path fill="#b2b2b2" d="M64.24,263a.33.33,0,0,1-.14,0,.25.25,0,0,1-.07-.35,5.88,5.88,0,0,0,.31-1.91c0-.28,0-.53,0-.71.23-1.87.38-3.28.47-5.37a21.31,21.31,0,0,1,.46-3.65.25.25,0,0,1,.3-.18.24.24,0,0,1,.18.3,21.27,21.27,0,0,0-.44,3.55c-.09,2.11-.24,3.53-.47,5.41,0,.17,0,.42-.06.68a5.16,5.16,0,0,1-.39,2.16A.23.23,0,0,1,64.24,263Z" class="colorb2b2b2 svgShape"/><path fill="#37261c" d="M59.48,281.44h0a.26.26,0,0,1-.23-.27c0-.28.06-.56.1-.83a7.44,7.44,0,0,0,.1-1.76,8.3,8.3,0,0,0-.14-.87,4.57,4.57,0,0,1-.14-1.7c.13-.84.28-1.67.42-2.48a25.88,25.88,0,0,0,.6-8.19.25.25,0,0,1,.21-.28.24.24,0,0,1,.28.21,26.21,26.21,0,0,1-.59,8.35c-.15.8-.3,1.63-.43,2.46a4.67,4.67,0,0,0,.13,1.53,6.79,6.79,0,0,1,.16.92,8.29,8.29,0,0,1-.1,1.88c0,.26-.08.53-.1.8A.25.25,0,0,1,59.48,281.44Z" class="color1c2237 svgShape"/><path fill="#4d260f" fill-rule="evenodd" d="M265.25,143.64c2.06,5.15,3,15.41,3.79,20.85.73,4.74,1.6,18.26,2.28,27.83,1.12,16,.94,26.29.94,42.34,0,12.51-1.34,24.46-1.75,37-.34,10.25-.92,13.13-1.89,23.33-.23,2.47-.95,9.58-.95,9.58-2.36.94-12.94,3.37-19.68.13,0,0-.39-32.19-.81-39.78-.81-14.7-.7-27-2.56-45.58-.78-7.75-2.84-27.24-4.59-27.91s-5.12,21.44-6.88,31.69c-1,5.68-4.44,28.68-6.34,41.94-1.83,12.88-2.15,15.23-3.37,26l-1.71,15.18c-.92,1.4-19,2.64-20.94.19,0,0-.23-18.88.68-28.45.74-7.92,1.31-19.16,1.75-27.1.67-12,1.7-22.26,3-34.26,1-9.93,4.45-43.12,5.25-50.7s2.63-21.39,4.18-23.46C216.76,140.92,265,143.08,265.25,143.64Z" class="color0f2b4d svgShape"/><path fill="#ff6103" fill-rule="evenodd" d="M265.21,305.23l-1.11,10a14.83,14.83,0,0,0-1.68-1.11c-.79.08-1.46.07-2.25.22-2.39.45-5.72.58-7.85-.75-.61-.38-1.21,2.61-1.66,2s-.36-10.09-.36-10.09,2.17.45,3.22.61a38.93,38.93,0,0,0,4.94.07A38.25,38.25,0,0,0,265.21,305.23Z" class="colorf16c47 svgShape"/><path fill="#a65c30" fill-rule="evenodd" d="M263.81,315.07l.18.74Z" class="colora64530 svgShape"/><path fill="#050403" fill-rule="evenodd" d="M251.18,312.64a22,22,0,0,0-1.92,6.69c0,.22-.86,2,2.5,2.25,6.18.42,17.58.38,22.3-.45,3.13-.56-4-3.67-5.33-5-.75-.74-2.57-1.36-3.61-3.15s-1.49-2.71-2.68-2.91a12.23,12.23,0,0,0-6.79.25C254.25,310.76,251.76,311.78,251.18,312.64Z" class="color050303 svgShape"/><path fill="#ff6103" fill-rule="evenodd" d="M217.53,307.29l-1,10.26a10.46,10.46,0,0,0-1.21-1.64c-.8.08-1.46.06-2.26.21-2.38.45-5.72.58-7.85-.75-.6-.38-1.45.82-1.9.23s.2-5.54.5-8.13c0,0,1.43.19,2.8.25,1.05,0,3.37,0,5,0A47.54,47.54,0,0,0,217.53,307.29Z" class="colorf16c47 svgShape"/><path fill="#050403" fill-rule="evenodd" d="M216.86,313.87c.65.85,1.41,4.35,1.49,6.08,0,.23,1.21,3.13-2.54,3.36-6.89.42-19.61.38-24.88-.45-3.5-.55,3.76-3.38,5.28-4.71.84-.74,3.6-1.95,5.33-4s2.1-3.53,4.06-3.61,2.87.94,6.6,2C213.75,313,216.21,313,216.86,313.87Z" class="color050303 svgShape"/><path fill="#ff6103" fill-rule="evenodd" d="M256.5,55.17s-3.13-1.08-3.49-1.34c-4.23-2.95-2.14-10.36-1.85-12.92s2.62-8,2.62-8a14.49,14.49,0,0,0,3.85-3.21c1-1.53,1.71-3.38-.88-3.76a6.92,6.92,0,0,0-3.07.75s-.89-7.2-2.93-10.47-5.6-3.86-8-3.74c-3.14.16-6.63,2.8-7.14,3.35a18.13,18.13,0,0,0-3.73,5.54,41.59,41.59,0,0,0-2.21,6.6,30.52,30.52,0,0,0-.92,9,6.9,6.9,0,0,0,2.35,4.75c1.73,1.61,6.12,2.51,6.12,2.51s.11,1.63,0,3.1a6.62,6.62,0,0,1-1.12,3.74c-.93,1.39-5.65,3.56-5.65,3.56s-6.47,16.82-2.3,18.76c3.75,1.74,6.06,14.63,8.63,13.66C239.94,85.87,256.5,55.17,256.5,55.17Z" class="colorf16c47 svgShape"/><path fill="#ffffff" fill-rule="evenodd" d="M236.66,33.13a22,22,0,0,0,7.06.14c1.06-.17,3-1.09,4.05-.51.36.2.32.76.32,1.12a5,5,0,0,1-1.26,2.55,6.92,6.92,0,0,1-7,2.48,5.87,5.87,0,0,1-4-2.79C235.32,35,235.16,32.91,236.66,33.13Z" class="colorfff svgShape"/><path fill="#37261c" fill-rule="evenodd" d="M242.29,18.59c0-.59,1.26-1,2.77-1s2.73.58,2.71,1.17-1.27,1-2.78,1S242.27,19.19,242.29,18.59Z" class="color1c2237 svgShape"/><path fill="#dfdcdb" fill-rule="evenodd" d="M250.83 50.54c-.9 2.75-7.21 5.73-10.41 5.48-1.78-.14-4.12-3.93-4-5.55l-11 4.52s1.31 32.48 3.89 46.42c1 5.24 1.84 10.36 3.8 15.34.58 1.47 1.23 2.91 1.83 4.37.19.46.61 1.45 1 1.12 3.69-3.16 6.61-11.9 8.16-16.33 4.2-12 8.33-24 11.41-36.32.93-3.72 2-7.44 3-11.12.18-.71 1.49-3.75 1.49-3.75zM277.35 127.89s3.65 6.92 4.9 9.31c.47.9 3.79 4.83 3.79 4.83s-10.92 7.49-11.5 7.05c-2.77-2.08-4.27-5.72-5.08-9-.18-.75-.86-4.91-.21-5.78C270.37 132.86 277.35 127.89 277.35 127.89z" class="colordbdddf svgShape"/><path fill="#4d260f" fill-rule="evenodd" d="M253,50.32c4.19.91,13.38,1.83,20.23,6,9.44,5.72,11.94,8.2,25.14,24.44,4.46,5.48,18.35,23.35,17.43,31.14-1.07,9.12-9.36,17.06-16.1,22.68-3.79,3.16-13.09,10-15.32,10.61s-7-4.36-8.72-7.29c-.55-.91-4-5.29-3.19-7.22s14.26-10.19,16.18-15c.57-1.43-.15-2.5,0-3.81.11-.82,2.18-2.17,2.06-2.62-1-4.18-6.4-7.22-9.36-10.19-1.45-1.44-8.73-6.47-8.73-6.47-1,2.46-3.14,12-3.75,17.67s-2,16.7-1,28.47c.54,6.25,2.31,12.53,4,18.51.48,1.69,2.76,5,2,6.85-.27.66-10.38,5.66-14.37,6.71-2.88.76-6.11,1.65-9.12,1.48-8.62-.51-12.6-12.91-14.12-20-4.7-21.94.29-49.21,5.68-70.34,1.81-7.12,2.07-9.48,5.43-20.32C247.94,60.08,251.62,50,253,50.32Z" class="color0f2b4d svgShape"/><path fill="#4d260f" fill-rule="evenodd" d="M235.42,51.06c-2.79,9.44-3.24,21.71-3.09,31.38.19,11.81,3.46,22.18,5.9,33.07.84,3.74-1,19.58-1.75,23.88-1.79,9.77-.68,23.13-8.7,30.25-3.06,2.73-11.39-.9-14.81-1.47-1.06-.18-6.63-2.35-7.23-3.55-1-2,2.39-5.29,2.69-7.1.75-4.46,1.37-7,1.93-11.43,1.62-13,1-17.75,1-34.64,0-8.09-.11-16.9-.11-16.9a46.5,46.5,0,0,1-6.71,6A51.94,51.94,0,0,1,190,108c-5.83,2-18.32,3.85-24.67,4.72-11.69,1.6-37.06,3.1-37.35,1.83s-2.38-3.34-2.8-8.11c-.18-2,0-7.5,1.25-9,1.47-1.76,26.76-4.21,31.11-4.81,8.81-1.2,19.48-3.49,27.5-9.32,8.27-6,20-22.89,27.61-27.24,5-2.84,10.37-3.57,13.76-4.25C227.46,51.56,235.76,49.92,235.42,51.06Z" class="color0f2b4d svgShape"/><path fill="#ff6103" fill-rule="evenodd" d="M273.42,148.1s-4.16,1.78-5,2.28c-5.84,3.52-7.86-3.49-12-6.41a18.19,18.19,0,0,0-6-3c-.81-.19-3.43-.48-3.18-1.69s3.48-1.45,3.4-1.49c-1.16-.48-4.39.41-5.39-.66s3.68-2.74,3.68-2.74-5,1.17-5.2.4.62-2.54,4.82-3.45a6.93,6.93,0,0,0,1.17-.23c0-.25-2.18,0-3.14-.27-.75-.19-.47-.86.24-1.22a9.94,9.94,0,0,1,8.95.06,25.08,25.08,0,0,1,4.72,2.94c.59.39-1.45-4.16-.1-6,.35-.5,2.23,3,3.46,5.92.9,2.13,1.34,2.75,1.77,3,1.08.73,3.46-.77,3.46-.77a19,19,0,0,0,1.4,8.42A21.07,21.07,0,0,0,273.42,148.1Z" class="colorf16c47 svgShape"/><path fill="#050403" fill-rule="evenodd" d="M240.56,58.58c.91,1.67,3,2.63.94,5.61-1.27,1.81-2,3.41-3.35,3-1.56-.48-3.78-4.26-1.89-7.41C237.39,57.88,239.71,57,240.56,58.58Z" class="color050303 svgShape"/><path fill="#050403" fill-rule="evenodd" d="M239,65.85c.85,1.59,0,2.6-.27,7.35-.22,3.65-.14,7.25-.14,10.9a69.32,69.32,0,0,0,.89,8.81s-.9,4.94-1.26,7.08c-1.15,6.91-1.33,9.07-2.08,10s-2.29-4.07-2.45-4.42a23.61,23.61,0,0,1-2.05-8.85A86,86,0,0,1,234.12,73c.35-1.39,1.34-7.19,3.18-7.71A1.48,1.48,0,0,1,239,65.85Z" class="color050303 svgShape"/><path fill="#984f23" fill-rule="evenodd" d="M307.85,136.76c-1.32.52-2.76,2.19-4,3-2.66,1.81-5.44,3.56-8.23,5.14-6.88,3.92-14.29,7.72-21.9,10-4.43,1.35-11.47,1-14,5.76-1.51,2.85-.64,8.58-.36,11.61.65,6.86,2.67,13.57,3.62,20.39.4,2.88.31,9.82,2,12.14.44.62,2.46.53,3.11,1,1.5,1.05,1.63,3.39,3.85,3.7,2.07.29,3.05-1.63,4.66-1.59.86,0,2,.92,3,1,4.08.46,9-2.44,12.48-4.09,9.87-4.71,18.69-11.16,28.38-16.16,4.1-2.11,8.15-4.49,12.5-6.09.86-.31,3.56-1.05,3.79-1.89.29-1-1.14-3.15-1.6-4-1.75-3.32-6-9.66-6-9.66s1.79-1.85,1.88-2.66a6.46,6.46,0,0,0-1.08-2.6c-2.62-3.26-8.62-10-12.15-15S310.62,135.68,307.85,136.76Z" class="color984d23 svgShape"/><path fill="#984f23" fill-rule="evenodd" d="M296.77 136.93s1.25 2.42 1.72 3.62 1.1 3.41 1.7 3.48c1 .1 3.2-2.85 4.11-3.4a20.71 20.71 0 013.54-1.22s-1.07-2-1.14-2c-.38-.52-3.65-5.7-3.65-5.7zM287.38 117.78s-3.52-8-6.31-13c-1.11-2-5.51-10.17-5.51-10.17s2.63 1.9 3.33 2.34c1.69 1.06 3.37 2.8 5 3.94a36.29 36.29 0 015.32 5.12c1.17 1.39 1.76 2.29 1.63 3.48-.1.9-1.88.8-2 2.67a13 13 0 01-.05 3.1A7.07 7.07 0 01287.38 117.78zM263.67 150.92l1.86 6.66 3-.74c.31-.07 5.54-1.06 5.75-1.53L272 148.64s-2.06.91-2.56 1.17a13.69 13.69 0 01-3.26 1.4A4.51 4.51 0 01263.67 150.92zM259.89 132.2a274.4 274.4 0 01-5.74-33c-.78-6.54-1.47-13.61-2.29-20.14-.46-3.73-.76-10.88-1.12-14.62-.44-4.57-.53-14.34 0-14.91s4.37.67 4.64 1.39c.54 1.44.79 10.38 1.24 15.17.39 4.14 1.68 16.4 2.6 23.94a258.32 258.32 0 004.3 26.16 125.26 125.26 0 002.88 12.22c.57 1.92 2.14 6.67 2.14 6.67a3.63 3.63 0 01-2.67.63c-.54-.16-1-1.09-1.2-1.41s-1.23-2.64-2.14-4.52c-.8-1.64-1.52-3-1.85-3s-.7.28-.73 1.68c0 1.12.77 3.6.67 4.18C260.57 132.86 259.89 132.2 259.89 132.2z" class="color984d23 svgShape"/><path fill="#dfdcdb" fill-rule="evenodd" d="M127.23,112.88a28.75,28.75,0,0,1-1.34-4,21.24,21.24,0,0,1-.54-4.2c-.14-5.27.73-6.68.73-6.68s-5.5.6-5.66,1.22a12.69,12.69,0,0,0-.13,7.44c.73,2.83,1.59,5.47,2.52,5.7A24.92,24.92,0,0,0,127.23,112.88Z" class="colordbdddf svgShape"/><path fill="#37261c" fill-rule="evenodd" d="M251,41.78a10.89,10.89,0,0,1,.59-3.63c.64-2.27,2-5.46,2-5.46a12.08,12.08,0,0,0,3.3-2.22c1.68-1.83,1.9-3.24,1.43-3.8-1.05-1.31-4.57,0-4.57,0s-2.92,0-3.8-1.7a4.18,4.18,0,0,1-.43-3.51c.06-.3,1.11-2.64,1.11-2.64s-2.25-.73-2.81-1c-3.67-2.06-2-6.24-6.22-5.07a11.28,11.28,0,0,0-5.65,3,20.86,20.86,0,0,0-4.47,6.87,44.7,44.7,0,0,0-2.31,7.58s-2-1-1.9-2.44a11.8,11.8,0,0,1,.5-1.78s-3.87-1.13-3.12-3.95a7.72,7.72,0,0,1,2.07-3c.07-.07.71-1.22.71-1.22a6.85,6.85,0,0,1-2.92-3.75c-1.49-5.23,4.53-9,8.76-9.45a28.15,28.15,0,0,1,4.41.28,17.54,17.54,0,0,1,1.59-2.21A13.07,13.07,0,0,1,245.06.1a11.46,11.46,0,0,1,11,5.24,15.37,15.37,0,0,1,1.22,3.92,27.73,27.73,0,0,1,3.6.19c1.6.23,2.19.84,3.32,2,3,3,2.13,7.72.55,11.11a25.28,25.28,0,0,1-1.59,2.34,9,9,0,0,1,1,.83,3.92,3.92,0,0,1,.69,2.9c-.29,2.87-5.59,5.31-5.59,5.31a8.35,8.35,0,0,1-.63,3,8.3,8.3,0,0,1-3,4C255,41.45,251,43.23,251,41.78Z" class="color1c2237 svgShape"/><path fill="#ff6103" fill-rule="evenodd" d="M120.34,99.71s-.62,0-1.65.12c-2.15.2-6,.78-7.19-1-1.7-2.54-3.88-2.31-5.2-2.59a20.45,20.45,0,0,0-4.87-.57,2.81,2.81,0,0,0-1.94,1.63,30.56,30.56,0,0,0-2.06,4.37c-.44,1-1.46,3.53-1.11,4.64s2.16,1.27,2.16,1.27a13.19,13.19,0,0,0-.73,3.27c.07.66.7.91.65,1.67,0,.54-.64,1.88-.17,2.28,1.06.91,4.62,1.16,5.93,1.16a22.21,22.21,0,0,0,6.25-.87c1.94-.52,3.14-1.73,4.54-2.25a23.05,23.05,0,0,1,7.25-.92,17.5,17.5,0,0,1-1-2.22,25.13,25.13,0,0,1-.91-3.2,19.85,19.85,0,0,1-.4-4A10.65,10.65,0,0,1,120.34,99.71Z" class="colorf16c47 svgShape"/><path fill="#7b3e1a" fill-rule="evenodd" d="M267.62,160.86c-1.85-3.44-5.37-4.88-7.88-.13-1.51,2.85-.64,8.58-.36,11.61.65,6.86,2.67,13.57,3.62,20.39.4,2.88.31,9.82,2,12.14.44.62,2.46.53,3.11,1,1.5,1.05,1.63,3.39,3.85,3.7,2.07.29,3.05-1.63,4.66-1.59.86,0,2,.92,3,1C283.66,209.45,270.88,166.9,267.62,160.86Z" class="color7b391a svgShape"/><path fill="#bd6029" fill-rule="evenodd" d="M307.85,136.76c-1.32.52-2.76,2.19-4,3-2.66,1.81-5.44,3.56-8.23,5.14-6.88,3.92-14.29,7.72-21.9,10-2.21.68-5.3.91-7.49,1.45a11.83,11.83,0,0,0-3.45,1.39,4.59,4.59,0,0,1,4,2c2.3,3.32,4.08,9.73,4.61,11.49,2.27,7.48,5.29,19.7,8.83,19.54s9-6.17,20.8-10.43c11.06-4,14.66-5.43,22.16-9.42s7.76-5.74,7.85-6.55a6.46,6.46,0,0,0-1.08-2.6c-2.62-3.26-8.62-10-12.15-15S310.62,135.68,307.85,136.76Z" class="colorbd5f29 svgShape"/><path fill="#37261c" fill-rule="evenodd" d="M231.57,17.13c.07-.59,1.35-.92,2.85-.74s2.67.82,2.59,1.41-1.35.92-2.85.73S231.49,17.72,231.57,17.13Z" class="color1c2237 svgShape"/><path fill="#bf6834" d="M238.32,30a1.77,1.77,0,0,1-1-.28,2.13,2.13,0,0,1-.82-2,8.72,8.72,0,0,1,.67-2.43,6.49,6.49,0,0,0,.6-2.31.75.75,0,1,1,1.49,0,7.8,7.8,0,0,1-.69,2.85,7.47,7.47,0,0,0-.58,2,.83.83,0,0,0,.15.67c.1.07.43.08,1.07-.26a.75.75,0,0,1,1,.31.74.74,0,0,1-.31,1A3.4,3.4,0,0,1,238.32,30Z" class="colorbf4734 svgShape"/><path fill="#37261c" d="M233.92 23.11a.77.77 0 01-.6-.3l0 0a.73.73 0 01-.15-.39v-.12a.63.63 0 010-.27l.05-.17a.73.73 0 01.47-.65.75.75 0 01.88.25.78.78 0 01.15.39h0a.59.59 0 010 .13 1.62 1.62 0 010 .22l0 .25a.76.76 0 01-.49.64h-.05A.7.7 0 01233.92 23.11zM244.25 23.66h-.08l-.16 0a.74.74 0 01-.53-.31.75.75 0 01-.12-.6l.06-.27a.76.76 0 01.11-.49l0 0a.65.65 0 01.15-.18l.09-.07a.75.75 0 01.82-.09.74.74 0 01.4.64v0a.7.7 0 010 .29l0 .31 0 .14v0a.76.76 0 01-.26.47A.78.78 0 01244.25 23.66z" class="color1c2237 svgShape"/><path fill="#bf6834" fill-rule="evenodd" d="M238.41,44.28a18.68,18.68,0,0,0,9.53-1.81,10.18,10.18,0,0,0,2.32-1.89c.27-.27,1.14-1.48,1.14-1.48l-.7,4.69a18.25,18.25,0,0,1-8.33,5.13,13.59,13.59,0,0,1-4,.28,4.63,4.63,0,0,1-1.32-.28s.16-1.17.17-1.41a33.19,33.19,0,0,0,0-3.34Z" class="colorbf4734 svgShape"/><path fill="#ad4a10" d="M211.41 91a.5.5 0 01-.5-.5c0-11 3.63-25.28 8.83-34.63a.5.5 0 01.87.48c-5.13 9.22-8.71 23.27-8.71 34.15A.49.49 0 01211.41 91zM270 90.32a.52.52 0 01-.31-.1 39.83 39.83 0 00-4.17-2.67c-1-.6-2-1.17-2.8-1.71a.5.5 0 11.55-.83c.8.53 1.75 1.09 2.75 1.68a43.84 43.84 0 014.29 2.74.5.5 0 01.08.7A.47.47 0 01270 90.32zM251.33 169.8a24.24 24.24 0 01-3.61-.19c-8-1.43-12.16-10.75-12.49-27.68-.07-3.78 0-9.71.12-15.44.07-4.29.15-8.72.15-12.17a.5.5 0 01.5-.5.5.5 0 01.5.5c0 3.45-.08 7.89-.15 12.18-.09 5.73-.19 11.65-.12 15.41.32 16.39 4.24 25.38 11.67 26.72a37 37 0 008-.11.51.51 0 01.61.37.5.5 0 01-.36.6A27.08 27.08 0 01251.33 169.8z" class="color1061ad svgShape"/><path fill="#ad4a10" d="M221.85 168.9a14.88 14.88 0 01-5.46-.72.49.49 0 01-.22-.67.5.5 0 01.66-.22c1.59.79 6.89.68 8.8.42s3.82-1.72 5.31-3c3.41-2.85 4-14.84 4.19-19.36 0-.7.06-1.26.09-1.66a.5.5 0 111 .07c0 .39-.05.95-.08 1.64-.24 5.07-.8 16.95-4.55 20.07-1.59 1.33-3.69 2.89-5.81 3.18A32.51 32.51 0 01221.85 168.9zM299.34 119.13a.53.53 0 01-.27-.08l-3.74-2.38-1.64-1-.24-.15a.49.49 0 11.52-.84l.25.15c1 .63 1 .63 1.65 1l3.73 2.38a.49.49 0 01.16.69A.51.51 0 01299.34 119.13zM301.6 115.6a.54.54 0 01-.21 0c-2.45-1.14-3.37-1.52-3.87-1.73A7.7 7.7 0 01296 113l-.09-.06a.5.5 0 01-.16-.69.51.51 0 01.69-.16l.09.06a6.63 6.63 0 001.38.75c.5.21 1.44.59 3.91 1.75a.5.5 0 01.25.66A.52.52 0 01301.6 115.6z" class="color1061ad svgShape"/></svg>