<svg xmlns="http://www.w3.org/2000/svg" viewBox="41.006 10.858 1117.987 778.284"><defs><clipPath id="a"><polygon fill="none" points="345.48 359.2 424.852 612.03 660.786 612.03 733.749 359.931 345.48 359.2"/></clipPath></defs><g data-name="Layer 1"><path fill="#fb600a" d="M803.534,530.715c-.649-24.129,6.261-35.492,13.074-41.388,14.9-12.893,36.009-5.316,43.074-18.16,5.85-10.636-5.874-20.789.716-31.127,6.6-10.359,20.7-3.807,32.147-15.455,10.9-11.095,7.043-26.123,12.94-27.1,5.53-.915,15.114,11.278,15.178,23.868.072,13.982-11.914,16.267-16.362,32.673-5.407,19.945,9.128,27.927,2.955,41.778-7.626,17.113-32.067,9.992-42.246,28.369-8.731,15.762,3.932,30.6-6.565,41.365-8.765,8.99-24.333,5.557-25.663,5.244C817.29,567.143,805.273,551.1,803.534,530.715Z" class="color7456a4 svgShape"/><path fill="#fdfbfa" d="M804.268,620.083a1.573,1.573,0,0,0,1.761.39,60.692,60.692,0,0,0,26.06-20.556l.1-.148c5.7-10.081,3.962-24.979,2.119-40.751-2.085-17.837-4.24-36.282,5.081-46.981,3.824-4.389,9.75-6.152,16.025-8.019,8.485-2.524,18.1-5.385,24.222-15.467a41.514,41.514,0,0,0,3.722-7.771c2.081-6.323,1.719-11.558,1.4-16.176-.326-4.729-.584-8.464,1.833-12.031a11.269,11.269,0,0,1,5.092-4.411c16.114-8.485,19.656-27.467,19.8-28.27a1.572,1.572,0,0,0-3.1-.552c-.032.182-3.438,18.284-18.167,26.04a14.337,14.337,0,0,0-6.231,5.429c-3.024,4.465-2.7,9.1-2.366,14.012.3,4.329.637,9.238-1.25,14.977a39.212,39.212,0,0,1-3.423,7.122c-5.493,9.045-14.1,11.607-22.431,14.085-6.725,2-13.076,3.89-17.5,8.967-10.234,11.748-8,30.895-5.833,49.412,1.778,15.206,3.456,29.571-1.689,38.762a57.575,57.575,0,0,1-24.665,19.421,1.574,1.574,0,0,0-.558,2.516Z" class="colorfafdfc svgShape"/><rect width="44.448" height="99.986" x="280.412" y="549.984" fill="#cdb1a0" class="colorb8a0cd svgShape"/><polygon fill="#9a7341" points="324.635 580.916 280.412 640.152 280.412 649.97 324.635 649.97 324.635 580.916" class="color59419a svgShape"/><rect width="74.533" height="167.981" x="141.993" y="481.989" fill="#35240e" class="color190e35 svgShape"/><rect width="42.074" height="2.95" x="174.452" y="493.415" fill="#c28f70" class="color7084c2 svgShape"/><rect width="42.074" height="2.95" x="174.452" y="501.57" fill="#c28f70" class="color7084c2 svgShape"/><rect width="42.074" height="2.95" x="174.452" y="509.725" fill="#c28f70" class="color7084c2 svgShape"/><rect width="42.074" height="2.95" x="174.452" y="517.88" fill="#c28f70" class="color7084c2 svgShape"/><rect width="42.074" height="2.95" x="174.452" y="526.035" fill="#c28f70" class="color7084c2 svgShape"/><rect width="42.074" height="2.95" x="174.452" y="534.19" fill="#c28f70" class="color7084c2 svgShape"/><rect width="42.074" height="2.95" x="174.452" y="542.345" fill="#c28f70" class="color7084c2 svgShape"/><rect width="42.074" height="2.95" x="174.452" y="550.5" fill="#c28f70" class="color7084c2 svgShape"/><rect width="42.074" height="2.95" x="174.452" y="558.654" fill="#c28f70" class="color7084c2 svgShape"/><rect width="42.074" height="2.95" x="174.452" y="566.809" fill="#c28f70" class="color7084c2 svgShape"/><rect width="42.074" height="2.95" x="174.452" y="574.964" fill="#c28f70" class="color7084c2 svgShape"/><rect width="42.074" height="2.95" x="174.452" y="583.119" fill="#c28f70" class="color7084c2 svgShape"/><rect width="42.074" height="2.95" x="174.452" y="591.274" fill="#c28f70" class="color7084c2 svgShape"/><rect width="42.074" height="2.95" x="174.452" y="599.429" fill="#c28f70" class="color7084c2 svgShape"/><rect width="42.074" height="2.95" x="174.452" y="607.584" fill="#c28f70" class="color7084c2 svgShape"/><rect width="42.074" height="2.95" x="174.452" y="615.739" fill="#c28f70" class="color7084c2 svgShape"/><rect width="42.074" height="2.95" x="174.452" y="623.894" fill="#c28f70" class="color7084c2 svgShape"/><rect width="42.074" height="2.95" x="174.452" y="632.049" fill="#c28f70" class="color7084c2 svgShape"/><rect width="42.074" height="2.95" x="174.452" y="640.204" fill="#c28f70" class="color7084c2 svgShape"/><rect width="18.363" height="148.813" x="254.954" y="507.825" fill="#755329" class="color3c2975 svgShape"/><polygon fill="#8d632e" points="254.954 657.049 192.398 657.049 192.398 533.044 254.954 507.825 254.954 657.049" class="color552e8d svgShape"/><rect width="55.744" height="6.155" x="192.398" y="560.512" fill="#b0876e" class="color8b6eb0 svgShape"/><rect width="55.744" height="6.155" x="192.398" y="574.119" fill="#b0876e" class="color8b6eb0 svgShape"/><rect width="55.744" height="6.155" x="192.398" y="587.725" fill="#b0876e" class="color8b6eb0 svgShape"/><rect width="55.744" height="6.155" x="192.398" y="601.331" fill="#b0876e" class="color8b6eb0 svgShape"/><rect width="55.744" height="6.155" x="192.398" y="614.938" fill="#b0876e" class="color8b6eb0 svgShape"/><rect width="55.744" height="6.155" x="192.398" y="628.544" fill="#b0876e" class="color8b6eb0 svgShape"/><rect width="55.744" height="6.155" x="192.398" y="642.15" fill="#b0876e" class="color8b6eb0 svgShape"/><rect width="235.325" height="91.042" x="91.824" y="649.97" fill="#553b1a" class="color231a55 svgShape"/><rect width="206.595" height="91.042" x="132.781" y="649.97" fill="#755329" class="color3c2975 svgShape"/><rect width="11.776" height="11.776" x="144.654" y="658.705" fill="#b0876e" class="color8b6eb0 svgShape"/><rect width="11.776" height="11.776" x="163.84" y="658.705" fill="#b0876e" class="color8b6eb0 svgShape"/><rect width="11.776" height="11.776" x="183.026" y="658.705" fill="#b0876e" class="color8b6eb0 svgShape"/><rect width="11.776" height="11.776" x="202.212" y="658.705" fill="#b0876e" class="color8b6eb0 svgShape"/><rect width="11.776" height="11.776" x="221.398" y="658.705" fill="#b0876e" class="color8b6eb0 svgShape"/><rect width="11.776" height="11.776" x="240.584" y="658.705" fill="#b0876e" class="color8b6eb0 svgShape"/><rect width="11.776" height="11.776" x="259.769" y="658.705" fill="#b0876e" class="color8b6eb0 svgShape"/><rect width="11.776" height="11.776" x="278.955" y="658.705" fill="#b0876e" class="color8b6eb0 svgShape"/><rect width="11.776" height="11.776" x="298.141" y="658.705" fill="#b0876e" class="color8b6eb0 svgShape"/><rect width="11.776" height="11.776" x="317.327" y="658.705" fill="#b0876e" class="color8b6eb0 svgShape"/><rect width="11.776" height="11.776" x="144.654" y="677.118" fill="#b0876e" class="color8b6eb0 svgShape"/><rect width="11.776" height="11.776" x="163.84" y="677.118" fill="#b0876e" class="color8b6eb0 svgShape"/><rect width="11.776" height="11.776" x="183.026" y="677.118" fill="#b0876e" class="color8b6eb0 svgShape"/><rect width="11.776" height="11.776" x="202.212" y="677.118" fill="#b0876e" class="color8b6eb0 svgShape"/><rect width="11.776" height="11.776" x="221.398" y="677.118" fill="#b0876e" class="color8b6eb0 svgShape"/><rect width="11.776" height="11.776" x="240.584" y="677.118" fill="#b0876e" class="color8b6eb0 svgShape"/><rect width="11.776" height="11.776" x="259.769" y="677.118" fill="#b0876e" class="color8b6eb0 svgShape"/><rect width="11.776" height="11.776" x="278.955" y="677.118" fill="#b0876e" class="color8b6eb0 svgShape"/><rect width="11.776" height="11.776" x="298.141" y="677.118" fill="#b0876e" class="color8b6eb0 svgShape"/><rect width="11.776" height="11.776" x="317.327" y="677.118" fill="#b0876e" class="color8b6eb0 svgShape"/><rect width="11.776" height="11.776" x="144.654" y="695.531" fill="#b0876e" class="color8b6eb0 svgShape"/><rect width="11.776" height="11.776" x="163.84" y="695.531" fill="#b0876e" class="color8b6eb0 svgShape"/><rect width="11.776" height="11.776" x="183.026" y="695.531" fill="#b0876e" class="color8b6eb0 svgShape"/><rect width="11.776" height="11.776" x="202.212" y="695.531" fill="#b0876e" class="color8b6eb0 svgShape"/><rect width="11.776" height="11.776" x="221.398" y="695.531" fill="#b0876e" class="color8b6eb0 svgShape"/><rect width="11.776" height="11.776" x="240.584" y="695.531" fill="#b0876e" class="color8b6eb0 svgShape"/><rect width="11.776" height="11.776" x="259.769" y="695.531" fill="#b0876e" class="color8b6eb0 svgShape"/><rect width="11.776" height="11.776" x="278.955" y="695.531" fill="#b0876e" class="color8b6eb0 svgShape"/><rect width="11.776" height="11.776" x="298.141" y="695.531" fill="#b0876e" class="color8b6eb0 svgShape"/><rect width="11.776" height="11.776" x="317.327" y="695.531" fill="#b0876e" class="color8b6eb0 svgShape"/><rect width="21.197" height="167.981" x="141.993" y="481.989" fill="#735127" class="color273273 svgShape"/><polygon fill="#9a7341" points="192.398 574.119 163.19 649.97 192.398 649.97 192.398 574.119" class="color59419a svgShape"/><rect width="47.894" height="30.983" x="158.571" y="451.006" fill="#35240e" class="color190e35 svgShape"/><rect width="26.996" height="94.585" x="114.997" y="555.384" fill="#b0876e" class="color8b6eb0 svgShape"/><polygon fill="#9a7341" points="141.993 580.916 114.997 640.152 114.997 649.97 141.993 649.97 141.993 580.916" class="color59419a svgShape"/><rect width="5.104" height="5.104" x="121.2" y="563.521" fill="#9a7341" class="color59419a svgShape"/><rect width="5.104" height="5.104" x="121.2" y="573.887" fill="#9a7341" class="color59419a svgShape"/><rect width="5.104" height="5.104" x="130.229" y="563.521" fill="#9a7341" class="color59419a svgShape"/><rect width="5.104" height="5.104" x="130.229" y="583.517" fill="#9a7341" class="color59419a svgShape"/><rect width="5.104" height="5.104" x="290.912" y="563.521" fill="#9a7341" class="color59419a svgShape"/><rect width="5.104" height="5.104" x="290.912" y="573.887" fill="#9a7341" class="color59419a svgShape"/><rect width="5.104" height="5.104" x="299.942" y="563.521" fill="#9a7341" class="color59419a svgShape"/><rect width="5.104" height="5.104" x="299.942" y="583.517" fill="#9a7341" class="color59419a svgShape"/><rect width="5.104" height="5.104" x="130.229" y="625.992" fill="#ffffff" class="colorfff svgShape"/><rect width="13.352" height="30.983" x="158.571" y="451.006" fill="#735127" class="color273273 svgShape"/><rect width="4.393" height="11.842" x="188.266" y="460.576" fill="#ffffff" transform="rotate(90 190.463 466.498)" class="colorfff svgShape"/><rect width="4.393" height="11.842" x="188.267" y="460.576" fill="#ffffff" transform="rotate(180 190.463 466.498)" class="colorfff svgShape"/><rect width="44.448" height="99.986" x="875.139" y="549.984" fill="#cdb1a0" transform="rotate(180 897.364 599.976)" class="colorb8a0cd svgShape"/><polygon fill="#9a7341" points="875.365 580.916 919.588 640.152 919.588 649.97 875.365 649.97 875.365 580.916" class="color59419a svgShape"/><rect width="74.533" height="167.981" x="983.473" y="481.989" fill="#35240e" transform="rotate(180 1020.74 565.98)" class="color190e35 svgShape"/><rect width="42.074" height="2.95" x="983.473" y="493.415" fill="#c28f70" transform="rotate(180 1004.51 494.89)" class="color7084c2 svgShape"/><rect width="42.074" height="2.95" x="983.473" y="501.57" fill="#c28f70" transform="rotate(180 1004.51 503.045)" class="color7084c2 svgShape"/><rect width="42.074" height="2.95" x="983.473" y="509.725" fill="#c28f70" transform="rotate(180 1004.51 511.2)" class="color7084c2 svgShape"/><rect width="42.074" height="2.95" x="983.473" y="517.88" fill="#c28f70" transform="rotate(180 1004.51 519.355)" class="color7084c2 svgShape"/><rect width="42.074" height="2.95" x="983.473" y="526.035" fill="#c28f70" transform="rotate(180 1004.51 527.51)" class="color7084c2 svgShape"/><rect width="42.074" height="2.95" x="983.473" y="534.19" fill="#c28f70" transform="rotate(180 1004.51 535.665)" class="color7084c2 svgShape"/><rect width="42.074" height="2.95" x="983.473" y="542.345" fill="#c28f70" transform="rotate(180 1004.51 543.82)" class="color7084c2 svgShape"/><rect width="42.074" height="2.95" x="983.473" y="550.5" fill="#c28f70" transform="rotate(180 1004.51 551.975)" class="color7084c2 svgShape"/><rect width="42.074" height="2.95" x="983.473" y="558.654" fill="#c28f70" transform="rotate(180 1004.51 560.13)" class="color7084c2 svgShape"/><rect width="42.074" height="2.95" x="983.473" y="566.809" fill="#c28f70" transform="rotate(180 1004.51 568.285)" class="color7084c2 svgShape"/><rect width="42.074" height="2.95" x="983.473" y="574.964" fill="#c28f70" transform="rotate(180 1004.51 576.44)" class="color7084c2 svgShape"/><rect width="42.074" height="2.95" x="983.473" y="583.119" fill="#c28f70" transform="rotate(180 1004.51 584.594)" class="color7084c2 svgShape"/><rect width="42.074" height="2.95" x="983.473" y="591.274" fill="#c28f70" transform="rotate(180 1004.51 592.749)" class="color7084c2 svgShape"/><rect width="42.074" height="2.95" x="983.473" y="599.429" fill="#c28f70" transform="rotate(180 1004.51 600.904)" class="color7084c2 svgShape"/><rect width="42.074" height="2.95" x="983.473" y="607.584" fill="#c28f70" transform="rotate(180 1004.51 609.059)" class="color7084c2 svgShape"/><rect width="42.074" height="2.95" x="983.473" y="615.739" fill="#c28f70" transform="rotate(180 1004.51 617.214)" class="color7084c2 svgShape"/><rect width="42.074" height="2.95" x="983.473" y="623.894" fill="#c28f70" transform="rotate(180 1004.51 625.369)" class="color7084c2 svgShape"/><rect width="42.074" height="2.95" x="983.473" y="632.049" fill="#c28f70" transform="rotate(180 1004.51 633.524)" class="color7084c2 svgShape"/><rect width="42.074" height="2.95" x="983.473" y="640.204" fill="#c28f70" transform="rotate(180 1004.51 641.679)" class="color7084c2 svgShape"/><rect width="18.363" height="148.813" x="926.683" y="507.825" fill="#755329" transform="rotate(180 935.865 582.232)" class="color3c2975 svgShape"/><polygon fill="#8d632e" points="945.046 657.049 1007.602 657.049 1007.602 533.044 945.046 507.825 945.046 657.049" class="color552e8d svgShape"/><rect width="55.744" height="6.155" x="951.858" y="560.512" fill="#b0876e" transform="rotate(180 979.73 563.59)" class="color8b6eb0 svgShape"/><rect width="55.744" height="6.155" x="951.858" y="574.119" fill="#b0876e" transform="rotate(180 979.73 577.197)" class="color8b6eb0 svgShape"/><rect width="55.744" height="6.155" x="951.858" y="587.725" fill="#b0876e" transform="rotate(180 979.73 590.803)" class="color8b6eb0 svgShape"/><rect width="55.744" height="6.155" x="951.858" y="601.331" fill="#b0876e" transform="rotate(180 979.73 604.409)" class="color8b6eb0 svgShape"/><rect width="55.744" height="6.155" x="951.858" y="614.938" fill="#b0876e" transform="rotate(180 979.73 618.016)" class="color8b6eb0 svgShape"/><rect width="55.744" height="6.155" x="951.858" y="628.544" fill="#b0876e" transform="rotate(180 979.73 631.622)" class="color8b6eb0 svgShape"/><rect width="55.744" height="6.155" x="951.858" y="642.15" fill="#b0876e" transform="rotate(180 979.73 645.228)" class="color8b6eb0 svgShape"/><rect width="235.325" height="91.042" x="872.85" y="649.97" fill="#553b1a" transform="rotate(180 990.513 695.49)" class="color231a55 svgShape"/><rect width="206.594" height="91.042" x="860.624" y="649.97" fill="#755329" transform="rotate(180 963.921 695.49)" class="color3c2975 svgShape"/><rect width="11.776" height="11.776" x="1043.57" y="658.705" fill="#b0876e" transform="rotate(180 1049.458 664.593)" class="color8b6eb0 svgShape"/><rect width="11.776" height="11.776" x="1024.384" y="658.705" fill="#b0876e" transform="rotate(180 1030.272 664.593)" class="color8b6eb0 svgShape"/><rect width="11.776" height="11.776" x="1005.198" y="658.705" fill="#b0876e" transform="rotate(180 1011.086 664.593)" class="color8b6eb0 svgShape"/><rect width="11.776" height="11.776" x="986.012" y="658.705" fill="#b0876e" transform="rotate(180 991.9 664.593)" class="color8b6eb0 svgShape"/><rect width="11.776" height="11.776" x="966.826" y="658.705" fill="#b0876e" transform="rotate(180 972.715 664.593)" class="color8b6eb0 svgShape"/><rect width="11.776" height="11.776" x="947.641" y="658.705" fill="#b0876e" transform="rotate(180 953.529 664.593)" class="color8b6eb0 svgShape"/><rect width="11.776" height="11.776" x="928.455" y="658.705" fill="#b0876e" transform="rotate(180 934.342 664.593)" class="color8b6eb0 svgShape"/><rect width="11.776" height="11.776" x="909.269" y="658.705" fill="#b0876e" transform="rotate(180 915.157 664.593)" class="color8b6eb0 svgShape"/><rect width="11.776" height="11.776" x="890.083" y="658.705" fill="#b0876e" transform="rotate(180 895.97 664.593)" class="color8b6eb0 svgShape"/><rect width="11.776" height="11.776" x="870.897" y="658.705" fill="#b0876e" transform="rotate(180 876.785 664.593)" class="color8b6eb0 svgShape"/><rect width="11.776" height="11.776" x="1043.57" y="677.118" fill="#b0876e" transform="rotate(180 1049.458 683.006)" class="color8b6eb0 svgShape"/><rect width="11.776" height="11.776" x="1024.384" y="677.118" fill="#b0876e" transform="rotate(180 1030.272 683.006)" class="color8b6eb0 svgShape"/><rect width="11.776" height="11.776" x="1005.198" y="677.118" fill="#b0876e" transform="rotate(180 1011.086 683.006)" class="color8b6eb0 svgShape"/><rect width="11.776" height="11.776" x="986.012" y="677.118" fill="#b0876e" transform="rotate(180 991.9 683.006)" class="color8b6eb0 svgShape"/><rect width="11.776" height="11.776" x="966.826" y="677.118" fill="#b0876e" transform="rotate(180 972.715 683.006)" class="color8b6eb0 svgShape"/><rect width="11.776" height="11.776" x="947.641" y="677.118" fill="#b0876e" transform="rotate(180 953.529 683.006)" class="color8b6eb0 svgShape"/><rect width="11.776" height="11.776" x="928.455" y="677.118" fill="#b0876e" transform="rotate(180 934.342 683.006)" class="color8b6eb0 svgShape"/><rect width="11.776" height="11.776" x="909.269" y="677.118" fill="#b0876e" transform="rotate(180 915.157 683.006)" class="color8b6eb0 svgShape"/><rect width="11.776" height="11.776" x="890.083" y="677.118" fill="#b0876e" transform="rotate(180 895.97 683.006)" class="color8b6eb0 svgShape"/><rect width="11.776" height="11.776" x="870.897" y="677.118" fill="#b0876e" transform="rotate(180 876.785 683.006)" class="color8b6eb0 svgShape"/><rect width="11.776" height="11.776" x="1043.57" y="695.531" fill="#b0876e" transform="rotate(180 1049.458 701.419)" class="color8b6eb0 svgShape"/><rect width="11.776" height="11.776" x="1024.384" y="695.531" fill="#b0876e" transform="rotate(180 1030.272 701.419)" class="color8b6eb0 svgShape"/><rect width="11.776" height="11.776" x="1005.198" y="695.531" fill="#b0876e" transform="rotate(180 1011.086 701.419)" class="color8b6eb0 svgShape"/><rect width="11.776" height="11.776" x="986.012" y="695.531" fill="#b0876e" transform="rotate(180 991.9 701.419)" class="color8b6eb0 svgShape"/><rect width="11.776" height="11.776" x="966.826" y="695.531" fill="#b0876e" transform="rotate(180 972.715 701.419)" class="color8b6eb0 svgShape"/><rect width="11.776" height="11.776" x="947.641" y="695.531" fill="#b0876e" transform="rotate(180 953.529 701.419)" class="color8b6eb0 svgShape"/><rect width="11.776" height="11.776" x="928.455" y="695.531" fill="#b0876e" transform="rotate(180 934.342 701.419)" class="color8b6eb0 svgShape"/><rect width="11.776" height="11.776" x="909.269" y="695.531" fill="#b0876e" transform="rotate(180 915.157 701.419)" class="color8b6eb0 svgShape"/><rect width="11.776" height="11.776" x="890.083" y="695.531" fill="#b0876e" transform="rotate(180 895.97 701.419)" class="color8b6eb0 svgShape"/><rect width="11.776" height="11.776" x="870.897" y="695.531" fill="#b0876e" transform="rotate(180 876.785 701.419)" class="color8b6eb0 svgShape"/><rect width="21.197" height="167.981" x="1036.81" y="481.989" fill="#735127" transform="rotate(180 1047.409 565.98)" class="color273273 svgShape"/><polygon fill="#9a7341" points="1007.602 574.119 1036.81 649.97 1007.602 649.97 1007.602 574.119" class="color59419a svgShape"/><rect width="47.894" height="30.983" x="993.536" y="451.006" fill="#35240e" transform="rotate(180 1017.482 466.498)" class="color190e35 svgShape"/><rect width="26.996" height="94.585" x="1058.007" y="555.384" fill="#b0876e" transform="rotate(180 1071.505 602.677)" class="color8b6eb0 svgShape"/><polygon fill="#9a7341" points="1058.007 580.916 1085.003 640.152 1085.003 649.97 1058.007 649.97 1058.007 580.916" class="color59419a svgShape"/><rect width="5.104" height="5.104" x="1073.696" y="563.521" fill="#9a7341" transform="rotate(180 1076.248 566.073)" class="color59419a svgShape"/><rect width="5.104" height="5.104" x="1073.696" y="573.887" fill="#9a7341" transform="rotate(180 1076.248 576.44)" class="color59419a svgShape"/><rect width="5.104" height="5.104" x="1064.666" y="563.521" fill="#9a7341" transform="rotate(180 1067.218 566.073)" class="color59419a svgShape"/><rect width="5.104" height="5.104" x="1064.666" y="583.517" fill="#9a7341" transform="rotate(180 1067.218 586.069)" class="color59419a svgShape"/><rect width="5.104" height="5.104" x="903.983" y="563.521" fill="#9a7341" transform="rotate(180 906.535 566.073)" class="color59419a svgShape"/><rect width="5.104" height="5.104" x="903.983" y="573.887" fill="#9a7341" transform="rotate(180 906.535 576.44)" class="color59419a svgShape"/><rect width="5.104" height="5.104" x="894.954" y="563.521" fill="#9a7341" transform="rotate(180 897.506 566.073)" class="color59419a svgShape"/><rect width="5.104" height="5.104" x="894.954" y="583.517" fill="#9a7341" transform="rotate(180 897.506 586.069)" class="color59419a svgShape"/><rect width="5.104" height="5.104" x="1064.666" y="625.992" fill="#ffffff" transform="rotate(180 1067.218 628.544)" class="colorfff svgShape"/><rect width="13.352" height="30.983" x="1028.077" y="451.006" fill="#735127" transform="rotate(180 1034.754 466.498)" class="color273273 svgShape"/><rect width="4.393" height="11.842" x="1007.34" y="460.576" fill="#ffffff" transform="rotate(90 1009.537 466.498)" class="colorfff svgShape"/><rect width="4.393" height="11.842" x="1007.34" y="460.576" fill="#ffffff" class="colorfff svgShape"/><path fill="#c99576" d="M1041.921,718.718c2.55,2.369,40.328,19.026,40,22.453H553.04q-.492-5.139-.495-10.363c0-86.181,102.023-156.041,227.874-156.041S927.54,612.472,1041.921,718.718Z" class="color76c9b5 svgShape"/><path fill="#c99576" d="M194.51,741.171c40.522-37.259,109.734-94.019,174.888-103.88,13.226-2,44.538-3.133,78.406,2.854,36.095,6.38,42.266,15.512,69.586,19.406,41.771,5.954,70.927-9.181,104.868-15.411,72.394-13.288,163.818,5.905,198.345,36.057,7.186,6.275,5.9,7.9,17.273,18.166,23.216,20.971,51.086,34.554,71.222,42.808Z" class="color76c9b5 svgShape"/><path fill="#9f6e30" d="M365.641,720.521c-10.976-8.775-13.434-16.117-13.5-21.362-.139-11.469,11.162-18.013,8.1-25.98-2.533-6.6-11.453-5.2-13.575-12.011s6.082-10.637,5.2-20.1c-.839-9.017-8.973-12.945-7.192-15.935,1.67-2.8,10.693-2.486,16.318,2.215,6.246,5.22,2.76,11.41,8.386,19.551,6.84,9.9,15.85,6.431,19.692,14.379,4.747,9.82-7.6,18.016-3.251,29.446,3.731,9.8,15.086,9.745,15.932,18.458.706,7.276-6.669,12.91-7.307,13.384C387.011,728.086,375.361,727.4,365.641,720.521Z" class="color304a9f svgShape"/><path fill="#fdfbfa" d="M405.665,753.765a.916.916,0,0,0,.835-.637,35.334,35.334,0,0,0,.647-19.312l-.03-.1c-2.341-6.324-9.621-11.145-17.329-16.25-8.716-5.773-17.73-11.743-18.987-19.908-.516-3.35.926-6.648,2.453-10.139,2.065-4.722,4.4-10.073,2.219-16.583a24.159,24.159,0,0,0-2.058-4.575,22.879,22.879,0,0,0-6.669-6.7c-2.226-1.631-3.984-2.92-4.663-5.334a6.561,6.561,0,0,1-.049-3.922c2.279-10.354-4.833-19.06-5.137-19.426a.915.915,0,0,0-1.408,1.17c.069.083,6.841,8.4,4.758,17.862a8.347,8.347,0,0,0,.074,4.811c.85,3.022,3.032,4.622,5.344,6.316a21.358,21.358,0,0,1,6.192,6.182,22.828,22.828,0,0,1,1.882,4.2c1.96,5.841-.135,10.633-2.161,15.267-1.636,3.742-3.182,7.277-2.585,11.152,1.381,8.965,10.737,15.162,19.786,21.155,7.431,4.921,14.451,9.571,16.606,15.312a33.518,33.518,0,0,1-.627,18.266.916.916,0,0,0,.909,1.193Z" class="colorfafdfc svgShape"/><path fill="#9f6e30" d="M275.519,721.2c-8.06-6.444-9.865-11.836-9.912-15.687-.1-8.422,8.2-13.228,5.951-19.078-1.86-4.845-8.411-3.816-9.969-8.82s4.467-7.811,3.82-14.763c-.616-6.622-6.589-9.507-5.281-11.7,1.227-2.059,7.853-1.825,11.983,1.627,4.587,3.834,2.027,8.379,6.158,14.357,5.023,7.268,11.639,4.722,14.461,10.559,3.486,7.212-5.582,13.23-2.387,21.624,2.74,7.2,11.079,7.156,11.7,13.555.519,5.343-4.9,9.481-5.366,9.829C291.212,726.756,282.657,726.255,275.519,721.2Z" class="color304a9f svgShape"/><path fill="#fdfbfa" d="M304.912,745.613a.673.673,0,0,0,.613-.468A25.949,25.949,0,0,0,306,730.964l-.022-.072c-1.719-4.644-7.066-8.185-12.726-11.933-6.4-4.24-13.02-8.623-13.944-14.619-.379-2.46.68-4.882,1.8-7.446,1.516-3.468,3.234-7.4,1.63-12.178a17.739,17.739,0,0,0-1.511-3.359,16.8,16.8,0,0,0-4.9-4.92c-1.635-1.2-2.925-2.144-3.424-3.917a4.818,4.818,0,0,1-.036-2.88c1.674-7.6-3.549-14-3.772-14.265a.672.672,0,0,0-1.034.859c.05.061,5.023,6.167,3.494,13.117a6.13,6.13,0,0,0,.054,3.533c.624,2.22,2.227,3.394,3.924,4.638a15.685,15.685,0,0,1,4.547,4.54,16.761,16.761,0,0,1,1.382,3.082c1.439,4.289-.1,7.808-1.587,11.212-1.2,2.748-2.336,5.344-1.9,8.19,1.014,6.583,7.885,11.134,14.53,15.536,5.457,3.614,10.612,7.029,12.195,11.245a24.615,24.615,0,0,1-.46,13.414.673.673,0,0,0,.668.876Z" class="colorfafdfc svgShape"/><path fill="#9f6e30" d="M886.911,707.331c7.891-6.309,9.659-11.587,9.7-15.359.1-8.245-8.025-12.951-5.826-18.678,1.821-4.743,8.234-3.736,9.76-8.635s-4.373-7.647-3.74-14.454c.6-6.483,6.451-9.307,5.171-11.457-1.2-2.016-7.688-1.787-11.732,1.592-4.49,3.753-1.984,8.2-6.029,14.056-4.918,7.115-11.4,4.623-14.158,10.338-3.413,7.06,5.465,12.953,2.338,21.171-2.682,7.049-10.846,7.006-11.454,13.271-.508,5.231,4.795,9.282,5.254,9.623C871.547,712.77,879.923,712.28,886.911,707.331Z" class="color304a9f svgShape"/><path fill="#fdfbfa" d="M858.135,731.233a.659.659,0,0,1-.6-.458,25.4,25.4,0,0,1-.465-13.885l.022-.07c1.683-4.546,6.918-8.013,12.459-11.683,6.267-4.151,12.747-8.443,13.651-14.313.371-2.408-.666-4.779-1.764-7.29-1.484-3.395-3.166-7.242-1.6-11.923a17.38,17.38,0,0,1,1.48-3.289,16.449,16.449,0,0,1,4.795-4.817c1.6-1.173,2.864-2.1,3.352-3.835a4.717,4.717,0,0,0,.036-2.82c-1.639-7.444,3.475-13.7,3.693-13.966a.658.658,0,0,1,1.013.841c-.049.06-4.918,6.037-3.421,12.842a6,6,0,0,1-.053,3.459c-.611,2.173-2.18,3.323-3.842,4.541a15.357,15.357,0,0,0-4.452,4.445,16.419,16.419,0,0,0-1.353,3.018c-1.409,4.2.1,7.645,1.554,10.977,1.176,2.691,2.288,5.232,1.859,8.018-.993,6.446-7.72,10.9-14.225,15.21-5.343,3.538-10.39,6.881-11.939,11.009a24.1,24.1,0,0,0,.451,13.132.659.659,0,0,1-.654.858Z" class="colorfafdfc svgShape"/><path fill="#fb600a" d="M825.091,655.807c-.438-16.281,4.224-23.949,8.822-27.927,10.052-8.7,24.3-3.587,29.065-12.253,3.948-7.177-3.964-14.028.483-21s13.967-2.569,21.691-10.428c7.357-7.486,4.752-17.627,8.732-18.285,3.732-.618,10.2,7.61,10.242,16.106.048,9.434-8.039,10.976-11.04,22.046-3.648,13.458,6.159,18.844,1.994,28.19-5.146,11.547-21.637,6.742-28.506,19.143-5.891,10.635,2.653,20.646-4.43,27.911-5.915,6.067-16.419,3.75-17.316,3.539C834.373,680.387,826.265,669.562,825.091,655.807Z" class="color7456a4 svgShape"/><path fill="#fdfbfa" d="M825.586,716.109a1.062,1.062,0,0,0,1.188.263,40.954,40.954,0,0,0,17.584-13.87l.064-.1c3.849-6.8,2.674-16.855,1.43-27.5-1.407-12.036-2.861-24.481,3.428-31.7,2.58-2.962,6.579-4.151,10.813-5.411,5.725-1.7,12.213-3.634,16.344-10.437a28.013,28.013,0,0,0,2.512-5.243,26.518,26.518,0,0,0,.945-10.915c-.22-3.191-.394-5.711,1.237-8.118a7.6,7.6,0,0,1,3.436-2.976c10.873-5.725,13.263-18.534,13.36-19.076a1.061,1.061,0,0,0-2.089-.372c-.022.123-2.32,12.337-12.259,17.571a9.673,9.673,0,0,0-4.2,3.663c-2.041,3.013-1.825,6.141-1.6,9.455a24.759,24.759,0,0,1-.844,10.106,26.465,26.465,0,0,1-2.309,4.805c-3.706,6.1-9.516,7.832-15.135,9.5-4.538,1.35-8.823,2.625-11.808,6.051-6.906,7.927-5.4,20.846-3.936,33.341,1.2,10.26,2.332,19.954-1.14,26.155a38.848,38.848,0,0,1-16.643,13.1,1.062,1.062,0,0,0-.376,1.7Z" class="colorfafdfc svgShape"/><path fill="#8d632e" d="M307.451,710.286c-10.034-8.954-12-16.1-11.791-21.112.462-10.966,11.6-16.635,9.089-24.406-2.079-6.436-10.675-5.559-12.35-12.181s6.363-9.849,6.012-18.941c-.334-8.66-7.9-12.835-6.047-15.6,1.741-2.592,10.347-1.821,15.478,2.962,5.7,5.312,2.046,11.046,7,19.117,6.023,9.811,14.813,6.966,18.072,14.761,4.027,9.63-8.2,16.822-4.632,27.97,3.057,9.562,13.911,10.093,14.268,18.464.3,6.989-7.041,11.991-7.676,12.411C327.48,718.623,316.383,717.368,307.451,710.286Z" class="color552e8d svgShape"/><path fill="#fdfbfa" d="M343.975,744.127a.877.877,0,0,0,.831-.565,33.814,33.814,0,0,0,1.618-18.421l-.023-.095c-1.909-6.164-8.617-11.149-15.717-16.426-8.03-5.968-16.334-12.14-17.113-20.007-.32-3.228,1.23-6.3,2.869-9.562,2.218-4.405,4.73-9.4,2.98-15.732a23.126,23.126,0,0,0-1.73-4.478,21.9,21.9,0,0,0-6.025-6.747c-2.043-1.674-3.656-3-4.179-5.339a6.279,6.279,0,0,1,.156-3.75c2.714-9.777-3.631-18.464-3.9-18.829a.876.876,0,0,0-1.406,1.045c.061.083,6.1,8.379,3.621,17.315a7.988,7.988,0,0,0-.179,4.6c.656,2.932,2.658,4.574,4.779,6.312a20.441,20.441,0,0,1,5.6,6.228,21.842,21.842,0,0,1,1.581,4.108c1.57,5.683-.68,10.154-2.856,14.477-1.757,3.491-3.417,6.789-3.048,10.523.855,8.638,9.475,15.045,17.811,21.241,6.846,5.088,13.313,9.894,15.075,15.492a32.077,32.077,0,0,1-1.546,17.422.877.877,0,0,0,.807,1.187Z" class="colorfafdfc svgShape"/><path fill="#9f6e30" d="M433.939,679.829c-1.423-1.114-6.117-4.945-5.246-7.314.845-2.3,6.752-2.77,14.768-1.2-7.621-4.036-12.661-9.454-11.259-12.1,1.042-1.969,5.351-1.855,10.625-.011q-.264-.25-.526-.507c-5.186-5.075-9.049-12.969-7.362-14.813,2.067-2.259,12.667,4.347,14.436,5.461a19.842,19.842,0,0,1-.906-3.186c-1.492-7.628,1.518-16.284,4.047-16.338,3.662-.079,7.592,17.852,7.592,17.852,4.968-4.923,8.079-6.923,9.394-6.093,1.594,1.006.567,6.184-3.175,15.681,4.634-4.726,6.765-5.454,7.777-4.889,1.2.672,1.784,3.707-1.623,14.586,5.5-2.518,7.341-2.131,8.029-1.384,1.913,2.075-2.209,10.009-5.617,14.681-.118.162-.217.3-.286.388,5.634-2.015,7.507-1.538,8.156-.7,1.674,2.17-2.36,9.9-8.051,13.577a55.739,55.739,0,0,0-5.131,3.359,34.212,34.212,0,0,0-4.959,4.4c-1.118,1.3-3.858,4.971-4.016,11.991q.649,8.04,1.3,16.081l-2.929.456-1.18-15.678a14.694,14.694,0,0,0-2.652-7.833,14.394,14.394,0,0,0-4.034-3.815l-6.538-2.887c-9.358-3.7-15.31-7.967-14.69-10.71.728-3.217,10.341-3.637,12.046-3.7Z" class="color304a9f svgShape"/><path fill="#8d632e" d="M432.031,688.412c1.07-5.882-.193-8.924-1.638-10.624-3.16-3.718-8.613-2.66-9.858-6.071-1.031-2.824,2.223-4.867,1-7.646s-4.923-1.713-7.285-5c-2.25-3.127-.738-6.66-2.144-7.121-1.319-.433-4.125,2.19-4.616,5.269-.545,3.42,2.3,4.431,2.772,8.615.57,5.086-3.288,6.491-2.3,10.114,1.221,4.477,7.472,3.656,9.269,8.539,1.542,4.188-2.118,7.341.046,10.373,1.806,2.531,5.746,2.279,6.083,2.252C427.289,696.809,430.836,693.336,432.031,688.412Z" class="color552e8d svgShape"/><path fill="#9b6b4f" d="M457.731,694.87c2.342-6.348,1.53-9.986.251-12.164-2.8-4.763-9.082-4.65-9.8-8.7-.6-3.35,3.429-4.991,2.609-8.328s-5.153-2.872-7.145-6.994c-1.9-3.926.48-7.569-1-8.358-1.386-.74-5.027,1.635-6.176,4.972-1.276,3.706,1.7,5.39,1.406,10.146-.358,5.781-4.935,6.593-4.542,10.826.486,5.229,7.615,5.537,8.664,11.331.9,4.97-3.8,7.77-1.977,11.572,1.519,3.175,5.96,3.664,6.341,3.7C450.8,703.3,455.436,700.125,457.731,694.87Z" class="color5c4f9b svgShape"/><path fill="#c28f70" d="M376.5,692.1c-2.164-11.9.39-18.054,3.313-21.494,6.392-7.522,17.426-5.383,19.944-12.282,2.085-5.714-4.5-9.846-2.023-15.469s9.96-3.466,14.739-10.108c4.552-6.327,1.493-13.474,4.339-14.407,2.669-.876,8.346,4.43,9.339,10.66,1.1,6.918-4.658,8.966-5.607,17.429-1.154,10.289,6.653,13.132,4.654,20.463-2.469,9.057-15.116,7.4-18.754,17.275-3.12,8.472,4.284,14.852-.092,20.985-3.654,5.122-11.625,4.61-12.308,4.557C386.09,709.085,378.914,702.058,376.5,692.1Z" class="color7084c2 svgShape"/><path fill="#a47457" d="M404.427,708.445c-1.792-9.853.323-14.949,2.743-17.8,5.293-6.228,14.429-4.457,16.514-10.17,1.726-4.731-3.723-8.153-1.675-12.808s8.247-2.87,12.2-8.37c3.769-5.239,1.236-11.157,3.592-11.93,2.21-.725,6.91,3.668,7.733,8.827.914,5.729-3.857,7.424-4.643,14.432-.956,8.52,5.509,10.874,3.853,16.944-2.045,7.5-12.517,6.125-15.528,14.3-2.583,7.015,3.547,12.3-.076,17.376-3.026,4.241-9.626,3.817-10.191,3.773C412.371,722.512,406.429,716.694,404.427,708.445Z" class="color7557a4 svgShape"/><path fill="#be9a85" d="M403.055,689.38c.558-1.447,2.33-6.335.645-7.7-1.632-1.319-6.192.931-11.408,5.612,3.838-6.327,5.166-12.536,2.967-13.87-1.635-.992-4.758.988-7.831,4.668q.084-.3.164-.605c1.586-6.021.958-13.535-1.1-14.151-2.516-.754-7.417,8.776-8.23,10.376a17.029,17.029,0,0,0-.735-2.746c-2.258-6.275-8.284-11.326-10.171-10.253-2.732,1.554,2.265,16.491,2.265,16.491-5.826-1.44-9-1.544-9.6-.354-.731,1.442,2.3,4.8,9.24,10.154-5.493-1.442-7.383-1.041-7.88-.179-.591,1.024.317,3.516,7.615,10.029-5.162.567-6.345,1.661-6.524,2.514-.5,2.371,6.032,6.4,10.6,8.342.158.067.29.122.382.159-5.036,1-6.206,2.171-6.314,3.077-.279,2.335,6.094,6.251,11.906,6.457a47.822,47.822,0,0,1,5.257.216,29.351,29.351,0,0,1,5.588,1.056c1.4.465,5.029,1.964,8.236,7.065l6.122,12.416,2.358-.953-6.031-12.068a12.607,12.607,0,0,1-1.494-6.936,12.353,12.353,0,0,1,1.292-4.586l3.546-5c5.265-6.843,7.772-12.606,6.107-14.353-1.952-2.049-9.218,1.872-10.5,2.576Z" class="color9d85be svgShape"/><path fill="#735127" d="M380.631,741.171H620.223s-8.209-45.21-73.236-32.869c0,0-21.464-39.086-61.712-24.5,0,0-37.982-14.756-60.423,12.463C424.852,696.266,386.313,695.881,380.631,741.171Z" class="color273273 svgShape"/><path fill="#755329" d="M438.113,741.17H424.7a7.57,7.57,0,0,0-1.248-4.489c-3-4.249-8.825-1.838-11.165-5.844a4.223,4.223,0,0,1-.546-1.493c-.41-2.562,1.72-4.867.146-8.873-1.536-3.92-4.548-4.157-4.908-7.6-.323-3.1,1.707-6.362,3.092-6.287,1.48.083.934,3.887,3.917,6.324,3.132,2.558,6.425.565,8.33,2.938,1.248,1.552.554,3.3.417,5.009a3.781,3.781,0,0,0,.6,2.634c2.084,2.972,7.077.537,11.093,3.311,1.838,1.268,3.843,3.878,4.334,9.836A13.529,13.529,0,0,1,438.113,741.17Z" class="color3c2975 svgShape"/><path fill="#c28f70" d="M492.937,741.17H317.6a42.777,42.777,0,0,1,6.137-18.114,32.947,32.947,0,0,1,26.226-14.748c16.422-19.919,44.216-9.122,44.216-9.122,29.455-10.673,45.162,17.93,45.162,17.93C486.931,708.085,492.937,741.17,492.937,741.17Z" class="color7084c2 svgShape"/><circle cx="357.613" cy="676.968" r="2.242" fill="#c28f70" opacity=".16" class="color7084c2 svgShape"/><circle cx="539.996" cy="628.486" r="2.39" fill="#ffffff" opacity=".16" class="colorfff svgShape"/><circle cx="523.124" cy="704.635" r="2.39" fill="#ffffff" opacity=".16" class="colorfff svgShape"/><circle cx="479.526" cy="694.078" r="3.333" fill="#ffffff" opacity=".16" class="colorfff svgShape"/><circle cx="423.013" cy="594.01" r="4.608" fill="#c28f70" opacity=".16" class="color7084c2 svgShape"/><circle cx="573.587" cy="609.754" r="2.39" fill="#c28f70" opacity=".16" class="color7084c2 svgShape"/><circle cx="390.436" cy="637.786" r="7.594" fill="#c28f70" opacity=".16" class="color7084c2 svgShape"/><circle cx="857.834" cy="627.135" r="5.555" fill="#c28f70" opacity=".16" class="color7084c2 svgShape"/><path fill="#9f6e30" d="M411.864,616.408c-17.119-6.6-23.07-14.773-25.214-21.278-4.688-14.222,6.8-26.819-.142-35.532-5.751-7.216-16.3-1.959-21.629-9.606-5.336-7.663,3.384-15.636-1.44-27.074-4.595-10.895-16.267-12.582-15.227-17,.976-4.148,12.333-7.3,21.185-3.668,9.83,4.039,7.928,13.117,18.137,21.036,12.412,9.627,22.263,1.764,30.175,10.146,9.776,10.356-2.369,25.42,7.547,37.937,8.5,10.735,22.617,6.191,27.1,16.7,3.744,8.779-3.218,18.7-3.827,19.539C441.446,617.412,426.675,621.15,411.864,616.408Z" class="color304a9f svgShape"/><path fill="#fdfbfa" d="M474.779,642.033a1.2,1.2,0,0,0,.789-1.122,46.133,46.133,0,0,0-6.8-24.3l-.076-.11c-5.4-6.95-16.366-10.086-27.971-13.406-13.124-3.755-26.695-7.637-31.475-17.306-1.961-3.967-1.464-8.64-.939-13.588.711-6.691,1.516-14.274-3.767-21.518a31.557,31.557,0,0,0-4.363-4.884c-3.828-3.309-7.606-4.587-10.939-5.714-3.413-1.154-6.109-2.066-7.9-4.8a8.565,8.565,0,0,1-1.606-4.862c-1.24-13.787-13.521-21.824-14.043-22.16a1.2,1.2,0,0,0-1.293,2.011c.118.076,11.822,7.76,12.956,20.362a10.9,10.9,0,0,0,1.986,5.96c2.248,3.428,5.595,4.56,9.139,5.758a27.888,27.888,0,0,1,10.142,5.258,29.8,29.8,0,0,1,4,4.484c4.739,6.5,4.018,13.29,3.321,19.857-.563,5.3-1.1,10.312,1.173,14.9,5.249,10.616,19.336,14.647,32.961,18.545,11.188,3.2,21.758,6.224,26.7,12.523a43.762,43.762,0,0,1,6.411,22.985,1.2,1.2,0,0,0,1.6,1.127Z" class="colorfafdfc svgShape"/><path fill="#c28f70" d="M427.589,539.171c-21.81-9.8-28.977-20.851-31.308-29.467-5.1-18.837,10.744-34.418,2.322-46.246-6.975-9.8-21.077-3.7-27.467-14.026-6.4-10.348,5.506-20.108.036-35.332-5.21-14.5-20.28-17.52-18.614-23.2,1.562-5.328,16.563-8.635,27.826-3.278,12.507,5.949,9.391,17.628,22.117,28.652,15.471,13.4,28.845,3.867,38.55,15.332,11.99,14.165-4.876,32.911,7.144,49.9,10.309,14.569,28.994,9.651,34.086,23.649,4.252,11.688-5.507,24.1-6.358,25.155C466.011,542.564,446.526,546.386,427.589,539.171Z" class="color7084c2 svgShape"/><path fill="#fdfbfa" d="M507.648,576.953a1.559,1.559,0,0,0,1.106-1.4,60.118,60.118,0,0,0-7.134-32.094l-.091-.149c-6.542-9.425-20.584-14.279-35.451-19.417-16.812-5.812-34.2-11.821-39.736-24.74-2.272-5.3-1.3-11.346-.263-17.748,1.4-8.656,2.979-18.467-3.384-28.265a41.114,41.114,0,0,0-5.333-6.664c-4.747-4.576-9.574-6.5-13.832-8.207-4.36-1.743-7.8-3.12-9.947-6.81a11.162,11.162,0,0,1-1.746-6.441c-.641-18.028-16.055-29.352-16.71-29.826a1.558,1.558,0,0,0-1.824,2.525c.149.107,14.836,10.932,15.422,27.411a14.2,14.2,0,0,0,2.164,7.9c2.684,4.619,6.958,6.328,11.485,8.137,3.992,1.6,8.517,3.4,12.826,7.557a38.84,38.84,0,0,1,4.883,6.117c5.708,8.791,4.291,17.577,2.92,26.073-1.107,6.861-2.153,13.341.475,19.472,6.081,14.185,24.128,20.423,41.582,26.457,14.333,4.954,27.873,9.634,33.861,18.179a57.03,57.03,0,0,1,6.721,30.362,1.559,1.559,0,0,0,2.005,1.579Z" class="colorfafdfc svgShape"/><path fill="#c28f70" d="M748.932,383.111c.793-23.9,8.3-34.721,15.388-40.146,15.5-11.862,35.921-3.115,43.67-15.394,6.417-10.169-4.572-20.9,2.558-30.734,7.146-9.85,20.693-2.533,32.7-13.37,11.441-10.322,8.517-25.41,14.406-26.025,5.523-.576,14.273,12.05,13.589,24.5-.76,13.829-12.748,15.376-18.121,31.333-6.532,19.4,7.365,28.156.438,41.484-8.558,16.467-32.3,7.974-43.458,25.539-9.57,15.065,2.069,30.488-8.951,40.509-9.2,8.368-24.39,4.048-25.686,3.66C760.369,419.948,749.44,403.37,748.932,383.111Z" class="color7084c2 svgShape"/><path fill="#fdfbfa" d="M744.344,471.519a1.559,1.559,0,0,0,1.718.49,60.118,60.118,0,0,0,26.989-18.775l.1-.14c6.239-9.628,5.4-24.462,4.518-40.167-1-17.76-2.035-36.126,7.817-46.151,4.042-4.113,10.007-5.5,16.321-6.976,8.539-1.991,18.217-4.249,24.869-13.853a41.114,41.114,0,0,0,4.142-7.462c2.433-6.128,2.387-11.326,2.347-15.911-.042-4.7-.074-8.4,2.527-11.787a11.162,11.162,0,0,1,5.3-4.059c16.438-7.432,21.068-25.989,21.258-26.776a1.558,1.558,0,0,0-3.029-.729c-.043.178-4.487,17.874-19.512,24.668a14.2,14.2,0,0,0-6.484,5c-3.256,4.236-3.215,8.839-3.172,13.714.038,4.3.081,9.172-2.127,14.734a38.842,38.842,0,0,1-3.808,6.838c-5.969,8.617-14.635,10.638-23.016,12.593-6.768,1.578-13.16,3.069-17.836,7.826-10.818,11.007-9.744,30.072-8.705,48.51.853,15.141,1.659,29.445-3.975,38.226a57.03,57.03,0,0,1-25.542,17.736,1.559,1.559,0,0,0-.7,2.454Z" class="colorfafdfc svgShape"/><path fill="#e8e7e6" d="M585.637 380.4S474.586 364.02 470.625 439.955V628.527h65.763zM698.9 376.8s111.051-16.385 115.012 59.551V624.923H748.154z" class="colore6e7e8 svgShape"/><path fill="#f2f1f1" d="M713.4,375.311l-131.7,5.25a41.488,41.488,0,0,0-45.1,45.46L520.871,741.171h230.4l-.247-322.693A41.489,41.489,0,0,0,713.4,375.311Z" class="colorf1f2f2 svgShape"/><polyline fill="#c99576" points="693.708 376.096 585.637 380.405 642.803 503.814" class="color76c9b5 svgShape"/><polygon fill="#b0876e" points="630.763 403.202 653.26 405.279 667.01 371.027 621.94 366.865 630.763 403.202" class="color8b6eb0 svgShape"/><polygon fill="#b0876e" points="653.26 405.279 660.786 458.952 642.803 503.814 621.94 458.775 630.763 403.202 653.26 405.279" class="color8b6eb0 svgShape"/><polygon fill="#77470a" points="669.51 400.168 641.059 381.594 667.01 371.027 669.51 400.168" class="color0a775a svgShape"/><polygon fill="#77470a" points="641.059 381.594 615.318 394.582 621.94 366.865 641.059 381.594" class="color0a775a svgShape"/><polygon fill="#d17705" points="653.26 405.279 630.763 403.202 621.94 458.775 654.983 415.715 653.26 405.279" opacity=".23" class="color352451 svgShape"/><path fill="#e0ae90" d="M589.44,282.183c.75-8.118,6.2-14.251,12.178-13.7a8.1,8.1,0,0,1,1.532.31,82.251,82.251,0,0,0-2.568,34.645C595.012,298.963,588.852,288.549,589.44,282.183Z" class="colore09f90 svgShape"/><polygon fill="#fbb890" points="667.999 340.804 667.01 371.027 641.058 381.594 621.94 366.865 624.716 336.807 667.999 340.804" class="colorfabfae svgShape"/><path fill="#e0ae90" d="M623.9,345.683l-.945,10.23s28.949,12.339,44.228-6.229Z" class="colore09f90 svgShape"/><path fill="#493216" d="M603.15,268.794a81.418,81.418,0,0,0-2.519,11.556,61.431,61.431,0,0,1-7.671-35.937c.034-.372.09-.736.13-1.105l21.808,2.014A72.876,72.876,0,0,0,603.15,268.794Z" class="color1e1649 svgShape"/><path fill="#fbb890" d="M702.013,289.414c-.046,1.483-.139,2.983-.278,4.481a78.125,78.125,0,0,1-10,32.048q-1,1.738-2.086,3.384c-10.708,16.287-27.18,26.13-44.688,24.507-16.457-1.514-30.178-12.841-38.028-29.143-.7-1.437-1.344-2.921-1.932-4.435a72.642,72.642,0,0,1-4.419-16.812,81.1,81.1,0,0,1-.448-18.929c.124-1.406.293-2.8.494-4.172A80.874,80.874,0,0,1,603.15,268.8a72.781,72.781,0,0,1,11.744-23.472l61.942,6.743c21.154,18.094,24.79,25.646,24.806,25.646A81.343,81.343,0,0,1,702.013,289.414Z" class="colorfabfae svgShape"/><circle cx="660.169" cy="277.724" r="3.817" fill="#735127" transform="rotate(-84.724 660.167 277.724)" class="color273273 svgShape"/><circle cx="619.021" cy="273.924" r="3.816" fill="#735127" transform="rotate(-84.723 619.022 273.924)" class="color273273 svgShape"/><path fill="#735127" d="M691.737,325.943q-1,1.738-2.086,3.384c-10.708,16.287-27.18,26.13-44.688,24.507-16.457-1.514-30.178-12.841-38.028-29.143-.7-1.437-1.344-2.921-1.932-4.435a11.253,11.253,0,0,0,10-6.922,14.22,14.22,0,0,1,13.15-8.777h24.723a14.248,14.248,0,0,1,13.876,11.049,13.33,13.33,0,0,0,12.964,10.337Z" class="color273273 svgShape"/><path fill="#fbb890" d="M692.007,290.974c-.723,7.832-2.473,18.611,3.293,19.144s16.864-9.383,17.587-17.215-3.364-14.613-9.13-15.145S692.731,283.142,692.007,290.974Z" class="colorfabfae svgShape"/><circle cx="660.276" cy="277.491" r="3.816" fill="#35240e" transform="rotate(-84.723 660.276 277.491)" class="color190e35 svgShape"/><circle cx="619.128" cy="273.691" r="3.816" fill="#35240e" transform="rotate(-84.723 619.129 273.69)" class="color190e35 svgShape"/><rect width="46.454" height="57" x="681.651" y="453.508" fill="#e8e7e6" class="colore6e7e8 svgShape"/><path fill="#35240e" d="M647.661,449.682H631.684a36.539,36.539,0,0,1-36.5-36.5V376.1h4.205v37.089a32.329,32.329,0,0,0,32.292,32.292h15.978a32.329,32.329,0,0,0,32.292-32.292V376.1h4.2v37.089A36.539,36.539,0,0,1,647.661,449.682Z" class="color190e35 svgShape"/><path fill="#35240e" d="M664.086,564.923h-2.292a25.464,25.464,0,0,1-25.436-25.436V447.58h4.205v91.907a21.254,21.254,0,0,0,21.231,21.23h2.292a21.254,21.254,0,0,0,21.23-21.23V453.508a8.04,8.04,0,0,1,8.031-8.03h2.8a8.04,8.04,0,0,1,8.031,8.03h-4.2a3.83,3.83,0,0,0-3.826-3.825h-2.8a3.83,3.83,0,0,0-3.826,3.825v85.979A25.464,25.464,0,0,1,664.086,564.923Z" class="color190e35 svgShape"/><path fill="#fbb890" d="M646.222,333.066H635.051a10.267,10.267,0,0,1-10.237-10.237h0a10.267,10.267,0,0,1,10.237-10.237h11.171a10.267,10.267,0,0,1,10.237,10.237h0A10.267,10.267,0,0,1,646.222,333.066Z" class="colorfabfae svgShape"/><path fill="#35240e" d="M641.114 323.387a15.706 15.706 0 01-8.423-2.581 2.1 2.1 0 012.371-3.471c.259.173 6.14 4.053 11.006.106a2.1 2.1 0 112.648 3.264A11.806 11.806 0 01641.114 323.387zM626.745 265.054a2.1 2.1 0 01-1.524-.654c-2.451-2.582-8.206-2.913-10.226-2.825a2.1 2.1 0 01-.2-4.2c.941-.049 9.259-.306 13.472 4.128a2.1 2.1 0 01-1.524 3.551zM666.2 268.542a2.1 2.1 0 01-1.523-.654c-2.454-2.582-8.221-2.919-10.228-2.825a2.079 2.079 0 01-2.2-2 2.1 2.1 0 012-2.2c.932-.052 9.261-.3 13.471 4.128a2.1 2.1 0 01-1.524 3.551z" class="color190e35 svgShape"/><path fill="#735127" d="M694.684,291.566s-2.328-22.008-17.848-39.495c-9.453.65-36.638-1.969-53.986-3.5-31.694-2.794-47.541-4.191-57.913-16.332-12.783-14.963-14.509-42-1.468-58.171,8.257-10.24,16.558-18.214,22.168-20.377,35.413-13.657,68.715,25.239,68.715,25.239,5.8,5.284,7.743,12.815,19.909,17,16.36,5.623,24.881,1.937,33.608,7.34,7.726,4.783,15.245,16.462,14.293,46.743A49.043,49.043,0,0,1,694.684,291.566Z" class="color273273 svgShape"/><path fill="#e8e7e6" d="M521.272,733.142s155.2-114.3,229.946-66.515l-.038-50.044-68.349-45.371L669.51,622.019,524.131,675.86Z" class="colore6e7e8 svgShape"/><circle cx="513.062" cy="647.291" r="57.197" fill="#f2f1f1" class="colorf1f2f2 svgShape"/><circle cx="516.335" cy="654.428" r="32.409" fill="#d89b77" class="colord88977 svgShape"/><path fill="#fbb890" d="M501.868,667.252S468.94,638.2,475.2,634.785s17.74-6.258,28.39,7.319l9.474,6.9c3.324,1.713,6.333-.974,9.5-2.965L540,632.007H623.1S545.873,724.139,501.868,667.252Z" class="colorfabfae svgShape"/><rect width="275.903" height="19.977" x="406.933" y="612.03" fill="#35240e" rx="8.533" ry="8.533" class="color190e35 svgShape"/><g clip-path="url(#a)" opacity=".67" fill="none"><rect width="388.269" height="1.452" x="345.48" y="359.2" fill="#fffdfc" class="colorfffefc svgShape"/><rect width="388.269" height="1.871" x="345.48" y="360.652" fill="#fffcfb" class="colorfffefb svgShape"/><rect width="388.269" height="1.871" x="345.48" y="362.523" fill="#fffcfb" class="colorfffefb svgShape"/><rect width="388.269" height="1.87" x="345.48" y="364.394" fill="#fffcfb" class="colorfffefb svgShape"/><rect width="388.269" height="1.871" x="345.48" y="366.264" fill="#fffcfa" class="colorfffdfa svgShape"/><rect width="388.269" height="1.871" x="345.48" y="368.135" fill="#fffcfa" class="colorfffdfa svgShape"/><rect width="388.269" height="1.871" x="345.48" y="370.005" fill="#fffcfa" class="colorfffdfa svgShape"/><rect width="388.269" height="1.871" x="345.48" y="371.876" fill="#fffbf9" class="colorfffdf9 svgShape"/><rect width="388.269" height="1.871" x="345.48" y="373.746" fill="#fffbf9" class="colorfffdf9 svgShape"/><rect width="388.269" height="1.87" x="345.48" y="375.617" fill="#fffbf8" class="colorfffdf8 svgShape"/><rect width="388.269" height="1.871" x="345.48" y="377.488" fill="#fffbf8" class="colorfffcf8 svgShape"/><rect width="388.269" height="1.871" x="345.48" y="379.358" fill="#fffaf7" class="colorfffcf7 svgShape"/><rect width="388.269" height="1.871" x="345.48" y="381.229" fill="#fffaf7" class="colorfffcf7 svgShape"/><rect width="388.269" height="1.871" x="345.48" y="383.099" fill="#fffaf7" class="colorfffcf7 svgShape"/><rect width="388.269" height="1.871" x="345.48" y="384.97" fill="#fff9f6" class="colorfffcf6 svgShape"/><rect width="388.269" height="1.87" x="345.48" y="386.841" fill="#fff9f6" class="colorfffcf6 svgShape"/><rect width="388.269" height="1.871" x="345.48" y="388.711" fill="#fff9f5" class="colorfffbf5 svgShape"/><rect width="388.269" height="1.871" x="345.48" y="390.582" fill="#fff9f5" class="colorfffbf5 svgShape"/><rect width="388.269" height="1.871" x="345.48" y="392.452" fill="#fff8f4" class="colorfffbf4 svgShape"/><rect width="388.269" height="1.871" x="345.48" y="394.323" fill="#fff8f4" class="colorfffbf4 svgShape"/><rect width="388.269" height="1.871" x="345.48" y="396.193" fill="#fff7f3" class="colorfffbf3 svgShape"/><rect width="388.269" height="1.87" x="345.48" y="398.064" fill="#fff7f3" class="colorfffaf3 svgShape"/><rect width="388.269" height="1.871" x="345.48" y="399.935" fill="#fff7f2" class="colorfffaf2 svgShape"/><rect width="388.269" height="1.871" x="345.48" y="401.805" fill="#fff7f2" class="colorfffaf2 svgShape"/><rect width="388.269" height="1.871" x="345.48" y="403.676" fill="#fff6f1" class="colorfffaf1 svgShape"/><rect width="388.269" height="1.871" x="345.48" y="405.546" fill="#fff6f1" class="colorfffaf1 svgShape"/><rect width="388.269" height="1.871" x="345.48" y="407.417" fill="#fff6f0" class="colorfff9f0 svgShape"/><rect width="388.269" height="1.87" x="345.48" y="409.288" fill="#fff6f0" class="colorfff9f0 svgShape"/><rect width="388.269" height="1.871" x="345.48" y="411.158" fill="#fff5ef" class="colorfff9ef svgShape"/><rect width="388.269" height="1.871" x="345.48" y="413.029" fill="#fff4ee" class="colorfff9ee svgShape"/><rect width="388.269" height="1.871" x="345.48" y="414.899" fill="#fff4ee" class="colorfff8ee svgShape"/><rect width="388.269" height="1.871" x="345.48" y="416.77" fill="#fff4ed" class="colorfff8ed svgShape"/><rect width="388.269" height="1.871" x="345.48" y="418.64" fill="#fff4ed" class="colorfff8ed svgShape"/><rect width="388.269" height="1.871" x="345.48" y="420.511" fill="#fff3ec" class="colorfff8ec svgShape"/><rect width="388.269" height="1.871" x="345.48" y="422.382" fill="#fff3ec" class="colorfff8ec svgShape"/><rect width="388.269" height="1.871" x="345.48" y="424.252" fill="#fff2eb" class="colorfff7eb svgShape"/><rect width="388.269" height="1.871" x="345.48" y="426.123" fill="#fff2ea" class="colorfff7ea svgShape"/><rect width="388.269" height="1.871" x="345.48" y="427.993" fill="#fff2ea" class="colorfff7ea svgShape"/><rect width="388.269" height="1.871" x="345.48" y="429.864" fill="#fff1e9" class="colorfff7e9 svgShape"/><rect width="388.269" height="1.871" x="345.48" y="431.734" fill="#fff1e8" class="colorfff6e8 svgShape"/><rect width="388.269" height="1.871" x="345.48" y="433.605" fill="#fff1e8" class="colorfff6e8 svgShape"/><rect width="388.269" height="1.871" x="345.48" y="435.476" fill="#fff0e7" class="colorfff6e7 svgShape"/><rect width="388.269" height="1.871" x="345.48" y="437.346" fill="#ffefe6" class="colorfff6e6 svgShape"/><rect width="388.269" height="1.871" x="345.48" y="439.217" fill="#ffefe6" class="colorfff5e6 svgShape"/><rect width="388.269" height="1.871" x="345.48" y="441.087" fill="#ffefe5" class="colorfff5e5 svgShape"/><rect width="388.269" height="1.871" x="345.48" y="442.958" fill="#ffeee4" class="colorfff5e4 svgShape"/><rect width="388.269" height="1.871" x="345.48" y="444.829" fill="#ffeee4" class="colorfff5e4 svgShape"/><rect width="388.269" height="1.871" x="345.48" y="446.699" fill="#ffede3" class="colorfff4e3 svgShape"/><rect width="388.269" height="1.871" x="345.48" y="448.57" fill="#ffede2" class="colorfff4e2 svgShape"/><rect width="388.269" height="1.871" x="345.48" y="450.44" fill="#ffece1" class="colorfff4e1 svgShape"/><rect width="388.269" height="1.871" x="345.48" y="452.311" fill="#ffece1" class="colorfff4e1 svgShape"/><rect width="388.269" height="1.871" x="345.48" y="454.181" fill="#ffece0" class="colorfff3e0 svgShape"/><rect width="388.269" height="1.871" x="345.48" y="456.052" fill="#ffebdf" class="colorfff3df svgShape"/><rect width="388.269" height="1.871" x="345.48" y="457.923" fill="#ffeade" class="colorfff3de svgShape"/><rect width="388.269" height="1.871" x="345.48" y="459.793" fill="#ffeade" class="colorfff3de svgShape"/><rect width="388.269" height="1.871" x="345.48" y="461.664" fill="#ffeadd" class="colorfff2dd svgShape"/><rect width="388.269" height="1.871" x="345.48" y="463.534" fill="#ffe9dc" class="colorfff2dc svgShape"/><rect width="388.269" height="1.871" x="345.48" y="465.405" fill="#ffe8db" class="colorfff2db svgShape"/><rect width="388.269" height="1.871" x="345.48" y="467.276" fill="#ffe8da" class="colorfff2da svgShape"/><rect width="388.269" height="1.871" x="345.48" y="469.146" fill="#ffe8da" class="colorfff1da svgShape"/><rect width="388.269" height="1.871" x="345.48" y="471.017" fill="#ffe7d9" class="colorfff1d9 svgShape"/><rect width="388.269" height="1.871" x="345.48" y="472.887" fill="#ffe7d8" class="colorfff1d8 svgShape"/><rect width="388.269" height="1.871" x="345.48" y="474.758" fill="#ffe6d7" class="colorfff0d7 svgShape"/><rect width="388.269" height="1.871" x="345.48" y="476.628" fill="#ffe5d6" class="colorfff0d6 svgShape"/><rect width="388.269" height="1.871" x="345.48" y="478.499" fill="#ffe5d5" class="colorfff0d5 svgShape"/><rect width="388.269" height="1.871" x="345.48" y="480.37" fill="#ffe5d5" class="colorfff0d5 svgShape"/><rect width="388.269" height="1.871" x="345.48" y="482.24" fill="#ffe4d4" class="colorffefd4 svgShape"/><rect width="388.269" height="1.871" x="345.48" y="484.111" fill="#ffe3d3" class="colorffefd3 svgShape"/><rect width="388.269" height="1.871" x="345.48" y="485.981" fill="#ffe3d2" class="colorffefd2 svgShape"/><rect width="388.269" height="1.871" x="345.48" y="487.852" fill="#ffe2d1" class="colorffeed1 svgShape"/><rect width="388.269" height="1.871" x="345.48" y="489.723" fill="#ffe2d0" class="colorffeed0 svgShape"/><rect width="388.269" height="1.871" x="345.48" y="491.593" fill="#ffe1cf" class="colorffeecf svgShape"/><rect width="388.269" height="1.871" x="345.48" y="493.464" fill="#ffe0ce" class="colorffedce svgShape"/><rect width="388.269" height="1.871" x="345.48" y="495.334" fill="#ffe0cd" class="colorffedcd svgShape"/><rect width="388.269" height="1.871" x="345.48" y="497.205" fill="#ffdfcc" class="colorffedcc svgShape"/><rect width="388.269" height="1.871" x="345.48" y="499.075" fill="#ffdecb" class="colorffedcb svgShape"/><rect width="388.269" height="1.871" x="345.48" y="500.946" fill="#ffdeca" class="colorffecca svgShape"/><rect width="388.269" height="1.871" x="345.48" y="502.817" fill="#ffddc9" class="colorffecc9 svgShape"/><rect width="388.269" height="1.871" x="345.48" y="504.687" fill="#ffddc8" class="colorffecc8 svgShape"/><rect width="388.269" height="1.87" x="345.48" y="506.558" fill="#ffdcc7" class="colorffebc7 svgShape"/><rect width="388.269" height="1.871" x="345.48" y="508.428" fill="#ffdbc6" class="colorffebc6 svgShape"/><rect width="388.269" height="1.871" x="345.48" y="510.299" fill="#ffdbc5" class="colorffebc5 svgShape"/><rect width="388.269" height="1.871" x="345.48" y="512.17" fill="#ffdac4" class="colorffeac4 svgShape"/><rect width="388.269" height="1.871" x="345.48" y="514.04" fill="#ffd9c3" class="colorffeac3 svgShape"/><rect width="388.269" height="1.871" x="345.48" y="515.911" fill="#ffd9c2" class="colorffeac2 svgShape"/><rect width="388.269" height="1.87" x="345.48" y="517.781" fill="#ffd8c1" class="colorffe9c1 svgShape"/><rect width="388.269" height="1.871" x="345.48" y="519.652" fill="#ffd8c0" class="colorffe9c0 svgShape"/><rect width="388.269" height="1.871" x="345.48" y="521.522" fill="#ffd7bf" class="colorffe9bf svgShape"/><rect width="388.269" height="1.871" x="345.48" y="523.393" fill="#ffd6be" class="colorffe8be svgShape"/><rect width="388.269" height="1.871" x="345.48" y="525.264" fill="#ffd6bd" class="colorffe8bd svgShape"/><rect width="388.269" height="1.871" x="345.48" y="527.134" fill="#ffd5bc" class="colorffe7bc svgShape"/><rect width="388.269" height="1.87" x="345.48" y="529.005" fill="#ffd4bb" class="colorffe7bb svgShape"/><rect width="388.269" height="1.871" x="345.48" y="530.875" fill="#ffd3b9" class="colorffe7b9 svgShape"/><rect width="388.269" height="1.871" x="345.48" y="532.746" fill="#ffd3b8" class="colorffe6b8 svgShape"/><rect width="388.269" height="1.871" x="345.48" y="534.617" fill="#ffd2b7" class="colorffe6b7 svgShape"/><rect width="388.269" height="1.871" x="345.48" y="536.487" fill="#ffd1b6" class="colorffe6b6 svgShape"/><rect width="388.269" height="1.871" x="345.48" y="538.358" fill="#ffd1b5" class="colorffe5b5 svgShape"/><rect width="388.269" height="1.87" x="345.48" y="540.228" fill="#ffd0b4" class="colorffe5b4 svgShape"/><rect width="388.269" height="1.871" x="345.48" y="542.099" fill="#ffcfb2" class="colorffe4b2 svgShape"/><rect width="388.269" height="1.871" x="345.48" y="543.969" fill="#ffceb1" class="colorffe4b1 svgShape"/><rect width="388.269" height="1.871" x="345.48" y="545.84" fill="#ffceb0" class="colorffe4b0 svgShape"/><rect width="388.269" height="1.871" x="345.48" y="547.711" fill="#ffcdaf" class="colorffe3af svgShape"/><rect width="388.269" height="1.871" x="345.48" y="549.581" fill="#ffccae" class="colorffe3ae svgShape"/><rect width="388.269" height="1.87" x="345.48" y="551.452" fill="#ffcbac" class="colorffe2ac svgShape"/><rect width="388.269" height="1.871" x="345.48" y="553.322" fill="#ffcaab" class="colorffe2ab svgShape"/><rect width="388.269" height="1.871" x="345.48" y="555.193" fill="#ffcaaa" class="colorffe2aa svgShape"/><rect width="388.269" height="1.871" x="345.48" y="557.064" fill="#ffc9a9" class="colorffe1a9 svgShape"/><rect width="388.269" height="1.871" x="345.48" y="558.934" fill="#ffc8a7" class="colorffe1a7 svgShape"/><rect width="388.269" height="1.871" x="345.48" y="560.805" fill="#ffc7a6" class="colorffe0a6 svgShape"/><rect width="388.269" height="1.87" x="345.48" y="562.675" fill="#ffc7a5" class="colorffe0a5 svgShape"/><rect width="388.269" height="1.871" x="345.48" y="564.546" fill="#ffc5a3" class="colorffdfa3 svgShape"/><rect width="388.269" height="1.871" x="345.48" y="566.416" fill="#ffc5a2" class="colorffdfa2 svgShape"/><rect width="388.269" height="1.871" x="345.48" y="568.287" fill="#ffc4a1" class="colorffdfa1 svgShape"/><rect width="388.269" height="1.871" x="345.48" y="570.158" fill="#ffc39f" class="colorffde9f svgShape"/><rect width="388.269" height="1.871" x="345.48" y="572.028" fill="#ffc29e" class="colorffde9e svgShape"/><rect width="388.269" height="1.87" x="345.48" y="573.899" fill="#ffc29d" class="colorffdd9d svgShape"/><rect width="388.269" height="1.871" x="345.48" y="575.769" fill="#ffc09b" class="colorffdd9b svgShape"/><rect width="388.269" height="1.871" x="345.48" y="577.64" fill="#ffc09a" class="colorffdc9a svgShape"/><rect width="388.269" height="1.871" x="345.48" y="579.511" fill="#ffbf99" class="colorffdc99 svgShape"/><rect width="388.269" height="1.871" x="345.48" y="581.381" fill="#ffbe97" class="colorffdc97 svgShape"/><rect width="388.269" height="1.871" x="345.48" y="583.252" fill="#ffbd96" class="colorffdb96 svgShape"/><rect width="388.269" height="1.87" x="345.48" y="585.122" fill="#ffbd95" class="colorffdb95 svgShape"/><rect width="388.269" height="1.871" x="345.48" y="586.993" fill="#ffbb93" class="colorffda93 svgShape"/><rect width="388.269" height="1.871" x="345.48" y="588.863" fill="#ffbb92" class="colorffda92 svgShape"/><rect width="388.269" height="1.871" x="345.48" y="590.734" fill="#ffba91" class="colorffd991 svgShape"/><rect width="388.269" height="1.871" x="345.48" y="592.605" fill="#ffb98f" class="colorffd98f svgShape"/><rect width="388.269" height="1.871" x="345.48" y="594.475" fill="#ffb88e" class="colorffd88e svgShape"/><rect width="388.269" height="1.87" x="345.48" y="596.346" fill="#ffb78c" class="colorffd88c svgShape"/><rect width="388.269" height="1.871" x="345.48" y="598.216" fill="#ffb68b" class="colorffd88b svgShape"/><rect width="388.269" height="1.871" x="345.48" y="600.087" fill="#ffb68a" class="colorffd78a svgShape"/><rect width="388.269" height="1.871" x="345.48" y="601.958" fill="#ffb488" class="colorffd788 svgShape"/><rect width="388.269" height="1.871" x="345.48" y="603.828" fill="#ffb487" class="colorffd687 svgShape"/><rect width="388.269" height="1.871" x="345.48" y="605.699" fill="#ffb385" class="colorffd685 svgShape"/><rect width="388.269" height="1.871" x="345.48" y="607.569" fill="#ffb284" class="colorffd584 svgShape"/><rect width="388.269" height="1.871" x="345.48" y="609.44" fill="#ffb183" class="colorffd583 svgShape"/><rect width="388.269" height=".719" x="345.48" y="611.31" fill="#feb081" class="colorfed481 svgShape"/></g><path fill="#f2f1f1" d="M710,612.03l41.138,35.27s47.377,25.217,62.78-22.377V582.449l-95.655-50.126Z" class="colorf1f2f2 svgShape"/><path fill="#c0bdbc" d="M737.161,571.212c0,22.54-12.16,40.82-27.16,40.82a18.7,18.7,0,0,1-3.96-.43c13.12-2.88,23.2-19.87,23.2-40.39s-10.08-37.5-23.2-40.38a18.669,18.669,0,0,1,3.96-.43C725,530.4,737.161,548.672,737.161,571.212Z" class="colorbcbec0 svgShape"/><path fill="#8d6027" d="M729.241,571.212c0,20.52-10.08,37.51-23.2,40.39-13.12-2.88-23.21-19.87-23.21-40.39s10.09-37.5,23.21-40.38C719.161,533.712,729.241,550.692,729.241,571.212Z" class="color27438d svgShape"/><path fill="#d89b77" d="M691.184,584.622l31.06,13.7s17.507-25.043,0-53.737h-9.274Z" class="colord88977 svgShape"/><path fill="#fbb890" d="M712.971,544.585l-52.8-12.262L603.15,583.3s12.162,7.68,23.6,0,24.186-20.481,24.186-20.481-4.8,12.717,15.269,20.481,40.528-2.844,43.8-12.089Z" class="colorfabfae svgShape"/><path fill="#c28f70" d="M910.866,741.171H713.108c1.09-8.686,3.5-16.25,6.784-21.343a37.16,37.16,0,0,1,29.58-16.634c18.522-22.466,49.87-10.288,49.87-10.288,33.222-12.038,50.937,20.222,50.937,20.222C903.954,702.941,910.866,741.171,910.866,741.171Z" class="color7084c2 svgShape"/><circle cx="795.567" cy="718.972" r="4.761" fill="#ffffff" opacity=".16" class="colorfff svgShape"/><g opacity=".5" fill="none"><rect width="99.211" height="2" x="645.154" y="128.926" fill="#b0876e" transform="rotate(-38.817 694.757 129.927)" class="color8b6eb0 svgShape"/><polygon fill="#b0876e" points="275.332 379.905 273.506 379.089 345.033 219.255 346.006 219.855 479.168 302.217 551.918 243.645 553.172 245.204 479.32 304.662 478.718 304.29 345.926 222.157 275.332 379.905" class="color8b6eb0 svgShape"/><rect width="405.057" height="2" x="337.802" y="158.997" fill="#b0876e" transform="rotate(-17.567 540.326 159.996)" class="color8b6eb0 svgShape"/><polygon fill="#b0876e" points="994.034 385.848 812.776 222.791 732.907 98.032 734.591 96.954 814.388 221.598 991.577 380.948 977.801 230.752 821.82 223.251 821.916 221.253 979.633 228.838 979.713 229.703 994.034 385.848" class="color8b6eb0 svgShape"/><path fill="#b0876e" d="M535.859,544.668,278.172,384.217l205.9-78.411.252,1.127,53.039,236.7-1,.224ZM282.652,384.65,534.882,541.7,482.625,308.5Z" class="color8b6eb0 svgShape"/></g><circle cx="483.349" cy="307.151" r="51.144" fill="#b0876e" class="color8b6eb0 svgShape"/><circle cx="536.388" cy="543.851" r="51.144" fill="#ffa30f" class="colorfbae2b svgShape"/><circle cx="992.552" cy="384.434" r="50.757" fill="#9f6e30" class="color304a9f svgShape"/><circle cx="817.234" cy="220.706" r="29.59" fill="#b7571d" class="color1db78c svgShape"/><circle cx="978.321" cy="220.706" r="29.59" fill="#8d632e" class="color552e8d svgShape"/><circle cx="347.029" cy="220.941" r="29.59" fill="#c28f70" class="color7084c2 svgShape"/><circle cx="734.671" cy="97.546" r="51.311" fill="#feab7a" class="colorfed27a svgShape"/><path fill="#ffffff" d="M340.207,238.805a11.051,11.051,0,0,1-7.812-18.853l13.645-13.644a11.047,11.047,0,0,1,15.623,15.622l-13.645,13.645A11.009,11.009,0,0,1,340.207,238.805Zm13.644-31.629a6.9,6.9,0,0,0-4.917,2.025L335.29,222.846a6.953,6.953,0,1,0,9.833,9.834l13.645-13.645a6.942,6.942,0,0,0-4.917-11.858Z" class="colorfff svgShape"/><path fill="#ffffff" d="M353.393 229.351a2.038 2.038 0 01-1.447-.6l-12.727-12.727a2.047 2.047 0 012.894-2.895l12.728 12.728a2.047 2.047 0 01-1.447 3.494zM713.663 118.554l3.391-13.608L743 79l10.219 10.219-25.95 25.95zm7.088-11.516l-1.469 5.9 5.9-1.469L747.43 89.215 743 84.787z" class="colorfff svgShape"/><path fill="#ffffff" d="M708.032 126.231a2.047 2.047 0 01-1.447-3.494l8.44-8.44a2.047 2.047 0 112.895 2.895l-8.44 8.44A2.037 2.037 0 01708.032 126.231zM761.31 86.326a2.038 2.038 0 01-1.447-.6L746.49 72.354a2.047 2.047 0 012.894-2.894l13.372 13.372a2.047 2.047 0 01-1.447 3.494zM753.456 94.18a2.036 2.036 0 01-1.447-.6L738.637 80.208a2.047 2.047 0 112.894-2.895L754.9 90.686a2.047 2.047 0 01-1.447 3.494z" class="colorfff svgShape"/><path fill="#ffffff" d="M746.77 87.494A2.047 2.047 0 01745.322 84l7.853-7.853a2.047 2.047 0 012.894 2.895l-7.853 7.854A2.037 2.037 0 01746.77 87.494zM734.725 106.862a2.038 2.038 0 01-1.447-.6l-7.323-7.322a2.047 2.047 0 112.895-2.895l7.323 7.322a2.047 2.047 0 01-1.447 3.494z" class="colorfff svgShape"/><circle cx="268.269" cy="374.803" r="51.144" fill="#c99576" class="color76c9b5 svgShape"/><path fill="#ffffff" d="M485.247,303.637a14.363,14.363,0,1,1,14.359-14.366A14.382,14.382,0,0,1,485.247,303.637Zm0-23.565a9.2,9.2,0,1,0,9.2,9.2A9.213,9.213,0,0,0,485.247,280.071Z" class="colorfff svgShape"/><path fill="#fdfbfa" d="M251.819,402.211a8.225,8.225,0,0,1-5.834-2.413l-2.711-2.711a8.259,8.259,0,0,1,0-11.667L263.691,365c2.462-2.463,13.657-5.425,18.357-6.584l4.174-1.029-1.17,4.137c-1.288,4.558-4.548,15.422-6.982,17.856L257.652,399.8A8.224,8.224,0,0,1,251.819,402.211Zm27.162-37.819c-5.5,1.522-10.778,3.288-11.769,4.161l-20.4,20.4a3.267,3.267,0,0,0,0,4.6l2.711,2.711a3.346,3.346,0,0,0,4.6,0l20.417-20.416C275.4,374.9,277.3,369.764,278.982,364.391Z" class="colorfafdfd svgShape"/><path fill="#fdfbfa" d="M281.723 363.849a2.5 2.5 0 01-1.768-4.268L294.936 344.6a2.5 2.5 0 113.535 3.535l-14.98 14.979A2.492 2.492 0 01281.723 363.849zM258.639 386.933a2.5 2.5 0 01-1.768-4.267l9.874-9.873a2.5 2.5 0 013.535 3.535l-9.874 9.873A2.492 2.492 0 01258.639 386.933z" class="colorfafdfd svgShape"/><path fill="#ffffff" d="M512.411,336.806h-5.16V319.9a6.028,6.028,0,0,0-6.02-6.022H469.257a6.028,6.028,0,0,0-6.02,6.022v16.9h-5.16V319.9a11.194,11.194,0,0,1,11.181-11.182h31.974A11.194,11.194,0,0,1,512.411,319.9Z" class="colorfff svgShape"/><polygon fill="#ffffff" points="485.538 337.611 476.664 330.489 476.664 311.545 481.824 311.545 481.824 328.014 485.411 330.892 488.664 328.073 488.664 311.545 493.824 311.545 493.824 330.43 485.538 337.611" class="colorfff svgShape"/><rect width="6" height="35.545" x="533.388" y="526.079" fill="#fdfbfa" class="colorfafdfd svgShape"/><rect width="35.545" height="6" x="518.615" y="540.851" fill="#fdfbfa" class="colorfafdfd svgShape"/><rect width="6" height="16.833" x="989.806" y="374.981" fill="#fdfbfa" class="colorfafdfd svgShape"/><rect width="16.832" height="6" x="984.39" y="380.398" fill="#fdfbfa" class="colorfafdfd svgShape"/><path fill="#ffffff" d="M992.814 417.292l-1.16-.584a21.984 21.984 0 01-5.673-4.1l-17.775-17.776a21.953 21.953 0 01-4.1-5.673 22.189 22.189 0 0119.815-32.252 22.525 22.525 0 018.89 1.839 22.236 22.236 0 0128.7 30.419 21.96 21.96 0 01-4.1 5.667l-17.775 17.776a21.971 21.971 0 01-5.66 4.1zm-8.894-55.226a17.067 17.067 0 00-12.065 29.115l17.775 17.777a16.889 16.889 0 003.183 2.5 16.911 16.911 0 003.174-2.5l17.775-17.775a16.878 16.878 0 003.141-4.345 17.167 17.167 0 001.831-7.733A17.023 17.023 0 00993.977 363.9l-1.16.586-1.161-.583A17.323 17.323 0 00983.919 362.066zM825.09 237.907H809.379a5.3 5.3 0 01-5.3-5.3V228.3a7.955 7.955 0 017.946-7.946h.808V208.442h9.4v11.911h.2a7.955 7.955 0 017.946 7.946v4.309A5.3 5.3 0 01825.09 237.907zm-13.063-15.046a5.444 5.444 0 00-5.438 5.439v4.309a2.794 2.794 0 002.791 2.791H825.09a2.794 2.794 0 002.791-2.791V228.3a5.444 5.444 0 00-5.438-5.439h-2.712V210.95h-4.389v11.911z" class="colorfff svgShape"/><path fill="#ffffff" d="M829.135,229.554h-23.8a1.254,1.254,0,0,1,0-2.508h23.8a1.254,1.254,0,0,1,0,2.508Z" class="colorfff svgShape"/><circle cx="816.236" cy="203.766" r="1.752" fill="#ffffff" class="colorfff svgShape"/><circle cx="821.938" cy="201.157" r="1.752" fill="#ffffff" class="colorfff svgShape"/><path fill="#ffffff" d="M992.855,234.556H964.913V208.565h27.941Zm-24.519-3.422h21.1V211.987h-21.1Z" class="colorfff svgShape"/><path fill="#ffffff" d="M985.053 211.987h-11.78v-9.132h11.78zm-8.358-3.422h4.937v-2.288h-4.937zM979.515 229.155L973.152 224a1.712 1.712 0 012.154-2.66l4.226 3.423L993.5 213.64a1.712 1.712 0 112.133 2.678zM978.884 218.187h-6.13a1.711 1.711 0 010-3.422h6.13a1.711 1.711 0 110 3.422z" class="colorfff svgShape"/><circle cx="233.174" cy="104.888" r="13.251" fill="#c28f70" opacity=".16" class="color7084c2 svgShape"/><circle cx="232.748" cy="232.255" r="11.152" fill="#c28f70" opacity=".16" class="color7084c2 svgShape"/><circle cx="302.494" cy="481.989" r="11.152" fill="#c28f70" opacity=".16" class="color7084c2 svgShape"/><circle cx="767.563" cy="273.907" r="11.152" fill="#c28f70" opacity=".16" class="color7084c2 svgShape"/><circle cx="624.814" cy="97.493" r="11.152" fill="#c28f70" opacity=".16" class="color7084c2 svgShape"/><circle cx="864.594" cy="115.744" r="11.152" fill="#c28f70" opacity=".16" class="color7084c2 svgShape"/><circle cx="1012.374" cy="558.654" r="11.152" fill="#c28f70" opacity=".16" class="color7084c2 svgShape"/><circle cx="1054.462" cy="453.508" r="11.152" fill="#c28f70" opacity=".16" class="color7084c2 svgShape"/><circle cx="1081.923" cy="216.476" r="11.152" fill="#c28f70" opacity=".16" class="color7084c2 svgShape"/><circle cx="894.361" cy="363.408" r="11.152" fill="#c28f70" opacity=".16" class="color7084c2 svgShape"/><circle cx="428.586" cy="132.602" r="11.152" fill="#c28f70" opacity=".16" class="color7084c2 svgShape"/><circle cx="380.631" cy="307.151" r="11.152" fill="#c28f70" opacity=".16" class="color7084c2 svgShape"/><circle cx="102.977" cy="374.56" r="11.152" fill="#c28f70" opacity=".16" class="color7084c2 svgShape"/><rect width="37.602" height="22.672" x="262.963" y="203.084" fill="#fd9151" rx="1.643" ry="1.643" class="colorfdc351 svgShape"/><rect width="21.566" height="2.212" x="269.921" y="210.05" fill="#ffffff" class="colorfff svgShape"/><rect width="21.566" height="2.212" x="269.921" y="215.58" fill="#ffffff" class="colorfff svgShape"/><rect width="45.532" height="27.453" x="209.343" y="154.112" fill="#c38662" rx="1.989" ry="1.989" class="color62c3a8 svgShape"/><rect width="26.114" height="2.678" x="217.768" y="162.547" fill="#ffffff" class="colorfff svgShape"/><rect width="26.114" height="2.678" x="217.768" y="169.243" fill="#ffffff" class="colorfff svgShape"/></g></svg>