<svg xmlns="http://www.w3.org/2000/svg" enable-background="new 0 0 2500 2500" viewBox="0 0 2500 2500"><path fill="#ffa30f" fill-rule="evenodd" d="M1245.4,1916c241.6,0,463.9,3.6,640.4,9.7c431.8-246.8,282.3-727.9,127.2-1000    c-215.8-378.7-725.6-514.8-936.5-212.7C790.2,1123.1,514.1,980,365,1291.5c-149.1,311.5,77.3,610.1,240,634.2    C781.4,1919.6,1003.8,1916,1245.4,1916L1245.4,1916z M867,865.7c-110.5,84.1-293.3,149.3-354,59.9    c-45.4-66.8,10.5-192.2,119.9-287.2c109.3-95,255.8-152.5,335.7-82.5C1063.4,638.9,952.1,801,867,865.7z" clip-rule="evenodd" class="colore9eef8 svgShape"/><path fill="#fb600a" fill-rule="evenodd" d="M1245.4,1916c573.6,0,1038.6,20.4,1038.6,45.5c0,25.1-465,45.5-1038.6,45.5c-573.6,0-1038.6-20.4-1038.6-45.5    C206.7,1936.3,671.7,1916,1245.4,1916z" clip-rule="evenodd" class="colord2deec svgShape"/><path fill="#ffffff" fill-rule="evenodd" d="M1580.3,660.3c259.4,57.8,424.5,296.4,440.7,411.5c6.6,47.3-5.7-63.3-138-164    c-118.3-90-210.3-106.7-351-117.6c-99.4-7.7-203.6-19.9-196.2-79.2C1341.6,664.2,1412.8,623,1580.3,660.3L1580.3,660.3z     M902,563.8c44.7,2.7,71.8,39.4,73.7,81.6c0.8,18-13.3-29-62.8-35.6c-30.7-4.1-35.3,5-46.3-7.7C855.5,589.5,866,561.6,902,563.8z" clip-rule="evenodd" class="colorfff svgShape"/><path fill="#fb600a" fill-rule="evenodd" d="M576.3,1811.1c-11.8-14.8-28.5-27.1-33.4-45.4c-5.8-21.6,6.9-44.4,3.8-66.6c-4-27.9-30.8-46-45.4-70.1    c-14.3-23.6-7.6-31.6-8.9-59.1c-2-41.6-36-94-81.4-79.9c-46.1,14.3-38.6,57.2-30.5,89.4c5.8,23,2,26.3-3.6,49.3    c-6.8,27.8-28.7,54.6-19.5,81.7c5.7,16.8,22.1,28.1,28,44.7c6.7,18.9-1.4,39.3-4.6,59.1c-6.6,41.7,2.9,76.3,33.2,110.8    c3.3,3.1,6.6,6,10.1,8.6c42.4-2.4,90.1-4.6,142.5-6.6l0.4-0.4C594.7,1896.3,602.9,1844.4,576.3,1811.1z" clip-rule="evenodd" class="colord2deec svgShape"/><path fill="#ffffff" fill-rule="evenodd" d="M431.9,1527.5c-0.7-1.9-2.8-2.8-4.7-2.1c-1.9,0.7-2.8,2.8-2.1,4.7c3.6,9.4,6.6,19.3,9.2,29.5    c-1-0.9-2.1-1.9-3.2-2.8c-4.9-4-10.6-7.5-16.8-10.4c-1.8-0.9-4-0.1-4.8,1.7c-0.9,1.8-0.1,4,1.7,4.8c5.8,2.7,10.9,5.9,15.4,9.5    c4.3,3.4,8,7.2,11.1,11.5c4.7,22.2,7.7,46.1,10.4,71.3c-4.2-6.6-8.7-12.4-13.5-17.6c-8.3-9.1-17.5-16.1-27.6-21.1    c-1.8-0.9-4-0.2-4.9,1.6c-0.9,1.8-0.2,4,1.6,4.9c9.3,4.6,17.8,11.1,25.5,19.5c7.7,8.4,14.6,18.6,20.8,30.7l0.7,6.8    c1.5,15,3.1,30.4,5,46.2c0,0.1,0,0.3,0.1,0.5c2,16.4,4.3,33.2,7.2,50.3c-7.9-12.2-16.3-22.9-25.4-32.2    c-13.3-13.7-27.9-24.3-43.7-32c-1.8-0.9-4-0.1-4.9,1.7c-0.9,1.8-0.1,4,1.7,4.9c15.1,7.3,29,17.4,41.7,30.5    c12.7,13,24.1,28.9,34.4,47.7c4.5,22.6,10.2,45.7,17.8,69l0,0l0,0.1v0c3.7,11.4,7.9,22.9,12.6,34.4c-11-9.5-22.7-17.6-35.1-24.5    c-17.2-9.6-35.8-16.7-55.6-21.3c-2-0.5-3.9,0.8-4.4,2.7c-0.5,2,0.8,3.9,2.7,4.4c19.2,4.4,37.1,11.3,53.7,20.5    c16.4,9.2,31.7,20.7,45.7,34.6c3.2,7.2,6.7,14.4,10.4,21.5l8-0.3c-12.9-24.8-23-49.5-31-74c-1.4-17.8,0.7-35.5,6.3-53.3    c5.7-18,14.9-36,27.7-54.1c1.2-1.6,0.8-3.9-0.9-5.1c-1.6-1.2-3.9-0.8-5.1,0.9c-13.2,18.7-22.8,37.4-28.7,56.1    c-3.3,10.6-5.5,21.3-6.5,31.9c-10.9-39.5-17-78-21.4-114.9c4.3-15.6,9.1-28.8,14.3-39.6c5.2-10.7,10.9-19,17.1-24.8    c1.5-1.4,1.5-3.7,0.1-5.1c-1.4-1.5-3.7-1.5-5.1-0.1c-6.8,6.4-13,15.4-18.7,27c-3.5,7.2-6.8,15.4-9.9,24.6    c-1.1-9.7-2.1-19.3-3-28.7l-0.8-7.3c0-0.1,0-0.3,0-0.4C451.9,1611.7,446.7,1566.1,431.9,1527.5z" clip-rule="evenodd" class="colorfff svgShape"/><path fill="#f3d6c4" fill-rule="evenodd" d="M454.4,1830.7c-12.6-6.8-27.9-10.4-36.7-21.7c-10.4-13.4-8.3-33-17.1-47.5c-11-18.3-35.1-22.9-52.4-35.4    c-17-12.2-14.6-19.7-23.7-38.6c-13.7-28.4-53-54.8-80.4-31.6c-27.9,23.6-9.9,51.2,5.3,71.3c10.8,14.3,9.2,17.7,12.1,35.4    c3.5,21.4-3.8,46.6,10.6,62.7c8.9,10,23.7,13,32.8,22.9c10.3,11.2,10.7,27.8,14.3,42.5c4.9,19.5,13.4,35.2,26.9,47.9    c36.3-2.7,79-5.3,127.2-7.7c3.7-5.3,6.7-11,8.9-17.1C492.4,1884.6,482.8,1846,454.4,1830.7z" clip-rule="evenodd" class="colorc4def3 svgShape"/><path fill="#ffffff" fill-rule="evenodd" d="M269.7,1675.9c-1.1-1.1-2.8-1.1-3.9-0.1c-1.1,1.1-1.1,2.8-0.1,3.9c5.3,5.5,10.3,11.5,15.2,17.8    c-1-0.3-2-0.7-3.1-1c-4.6-1.3-9.6-2.1-14.8-2.3c-1.5-0.1-2.8,1.1-2.9,2.6c-0.1,1.5,1.1,2.8,2.6,2.9c4.8,0.2,9.3,0.9,13.5,2.1    c4,1.1,7.7,2.7,11.1,4.7c9.8,14.1,19,29.9,28.4,46.6c-4.9-3.3-9.8-6.1-14.6-8.3c-8.5-3.8-17-6-25.5-6.5c-1.5-0.1-2.8,1.1-2.9,2.6    c-0.1,1.5,1.1,2.8,2.6,2.9c7.8,0.5,15.7,2.5,23.5,6c7.8,3.5,15.7,8.6,23.6,15.2l2.5,4.6c5.5,10,11.2,20.3,17.2,30.7    c0.1,0.1,0.1,0.2,0.2,0.3c6.2,10.9,12.8,21.9,19.9,32.9c-9.1-6.1-18.2-11.1-27.2-14.9c-13.3-5.6-26.6-8.7-39.9-9.3    c-1.5-0.1-2.8,1.1-2.9,2.6c-0.1,1.5,1.1,2.8,2.6,2.9c12.7,0.6,25.3,3.6,38.1,8.9c12.7,5.3,25.4,13,38.1,23.1    c9.8,14.4,20.6,28.8,32.8,42.8l0,0l0,0.1l0,0c6,6.9,12.3,13.6,19,20.3c-10.5-3.3-21.1-5.6-31.7-6.7c-14.9-1.6-29.9-1-45,1.6    c-1.5,0.3-2.5,1.7-2.2,3.2c0.3,1.5,1.7,2.5,3.2,2.2c14.7-2.6,29.2-3.1,43.5-1.6c14.2,1.5,28.2,5,42.1,10.6    c4.8,4.4,9.8,8.8,14.9,13l8.2-0.4c-18-14.4-33.7-29.8-47.5-45.7c-6.2-12-10-25-11.4-39c-1.4-14.2-0.3-29.5,3.3-45.9    c0.3-1.5-0.6-3-2.1-3.3c-1.5-0.3-3,0.6-3.3,2.1c-3.7,16.9-4.8,32.8-3.4,47.6c0.8,8.4,2.5,16.5,4.9,24.2    c-19.3-24.2-35-49.3-48.9-73.7c-1.6-12.1-2.2-22.7-1.8-31.8c0.5-9,2-16.5,4.5-22.4c0.6-1.4,0-3-1.4-3.6c-1.4-0.6-3,0-3.6,1.4    c-2.8,6.5-4.5,14.6-5,24.3c-0.3,6-0.2,12.7,0.4,20c-3.6-6.5-7.2-12.8-10.6-19.1l-2.7-4.9c0-0.1-0.1-0.2-0.1-0.3    C308.6,1728.6,291.5,1698.4,269.7,1675.9z" clip-rule="evenodd" class="colorfff svgShape"/><path fill="#fb600a" fill-rule="evenodd" d="M1868.6,1797.1c12.9-16.2,31.1-29.6,36.4-49.6c6.3-23.6-7.6-48.5-4.1-72.7c4.3-30.5,33.7-50.2,49.6-76.5    c15.6-25.8,8.3-34.5,9.7-64.5c2.1-45.3,39.3-102.6,88.9-87.2c50.3,15.6,42.1,62.4,33.2,97.6c-6.3,25.1-2.2,28.7,3.9,53.8    c7.4,30.3,31.3,59.6,21.3,89.2c-6.2,18.3-24.1,30.6-30.6,48.8c-7.4,20.6,1.6,42.9,5,64.5c7.2,45.5-3.1,83.3-36.2,120.9    c-4,3.8-8.2,7.3-12.5,10.5c-45.7-2.3-96.7-4.5-152.2-6.3c-0.8-0.8-1.5-1.6-2.3-2.4C1848.5,1890.1,1839.5,1833.4,1868.6,1797.1z" clip-rule="evenodd" class="colord2deec svgShape"/><path fill="#ffffff" fill-rule="evenodd" d="M2026.2,1487.5c0.8-2,3.1-3.1,5.1-2.3c2,0.8,3.1,3.1,2.3,5.1c-3.9,10.3-7.2,21-10.1,32.2c1.1-1,2.3-2,3.5-3    c5.4-4.3,11.5-8.1,18.4-11.4c2-0.9,4.4-0.1,5.3,1.9c0.9,2,0.1,4.3-1.9,5.3c-6.3,3-11.9,6.4-16.8,10.4c-4.6,3.7-8.7,7.9-12.1,12.5    c-5.1,24.3-8.4,50.4-11.4,77.9c4.6-7.2,9.5-13.6,14.7-19.3c9.1-9.9,19.1-17.5,30.2-23c2-1,4.3-0.2,5.3,1.8c1,2,0.2,4.3-1.8,5.3    c-10.1,5-19.4,12.1-27.8,21.3c-8.4,9.1-15.9,20.3-22.7,33.5l-0.8,7.5c-1.7,16.4-3.4,33.2-5.5,50.4c0,0.2,0,0.3-0.1,0.5    c-2.2,17.9-4.7,36.3-7.8,54.9c8.6-13.3,17.8-25,27.7-35.2c14.5-14.9,30.4-26.6,47.7-34.9c2-0.9,4.4-0.1,5.3,1.9    c0.9,2,0.1,4.4-1.9,5.3c-16.5,7.9-31.6,19-45.5,33.3c-13.8,14.2-26.3,31.6-37.6,52.1c-4.9,24.7-11.1,49.8-19.4,75.3l0,0l0,0.1l0,0    c-4.1,12.5-8.6,25-13.7,37.6c12-10.3,24.8-19.2,38.3-26.8c18.8-10.5,39-18.2,60.6-23.2c2.1-0.5,4.3,0.8,4.8,3    c0.5,2.1-0.8,4.3-3,4.8c-20.9,4.8-40.5,12.3-58.6,22.4c-17.9,10-34.6,22.6-49.8,37.7c-3.8,8.4-7.8,16.7-12.1,25.1l-8.8-0.3    c14.5-27.6,25.7-55.1,34.6-82.4c1.5-19.4-0.8-38.8-6.9-58.1c-6.2-19.6-16.3-39.3-30.2-59c-1.3-1.8-0.8-4.3,0.9-5.5    c1.8-1.3,4.3-0.8,5.5,0.9c14.4,20.4,24.9,40.8,31.3,61.2c3.7,11.6,6,23.2,7.1,34.8c11.9-43.1,18.5-85.2,23.4-125.3    c-4.7-17-9.9-31.4-15.6-43.2c-5.7-11.7-11.9-20.8-18.7-27.1c-1.6-1.5-1.7-4-0.2-5.6c1.5-1.6,4-1.7,5.6-0.2    c7.4,7,14.2,16.8,20.4,29.4c3.8,7.8,7.4,16.8,10.8,26.8c1.2-10.6,2.2-21.1,3.3-31.4l0.8-8c0-0.1,0-0.3,0-0.4    C2004.4,1579.4,2010.1,1529.7,2026.2,1487.5z" clip-rule="evenodd" class="colorfff svgShape"/><path fill="#f3d6c4" fill-rule="evenodd" d="M2001.6,1818.4c13.8-7.4,30.4-11.4,40.1-23.7c11.4-14.6,9.1-36,18.7-51.8c12-19.9,38.3-25,57.2-38.6    c18.5-13.3,16-21.5,25.9-42.1c14.9-30.9,57.8-59.8,87.8-34.4c30.4,25.8,10.8,55.9-5.8,77.8c-11.8,15.6-10,19.3-13.2,38.6    c-3.8,23.3,4.1,50.8-11.6,68.4c-9.7,10.9-25.9,14.2-35.8,24.9c-11.2,12.2-11.6,30.4-15.7,46.4c-5.4,21.6-14.9,38.9-30,52.9    c-39.7-2.7-85.7-5.2-137.2-7.5c-4.5-6.2-8.2-13-10.7-20.2C1960.1,1877.2,1970.6,1835.1,2001.6,1818.4z" clip-rule="evenodd" class="colorc4def3 svgShape"/><path fill="#ffffff" fill-rule="evenodd" d="M2203.2 1649.5c1.2-1.2 3.1-1.2 4.3-.1 1.2 1.2 1.2 3.1.1 4.3-5.8 6-11.3 12.5-16.6 19.5 1.1-.4 2.2-.7 3.3-1 5-1.4 10.4-2.2 16.2-2.5 1.7-.1 3.1 1.2 3.1 2.9.1 1.7-1.2 3.1-2.9 3.1-5.3.2-10.2 1-14.8 2.3-4.3 1.2-8.4 2.9-12.1 5.1-10.7 15.4-20.8 32.6-31 50.9 5.3-3.6 10.7-6.6 16-9 9.3-4.2 18.5-6.5 27.8-7.1 1.7-.1 3.1 1.2 3.2 2.8.1 1.7-1.2 3.1-2.8 3.2-8.5.5-17.1 2.7-25.7 6.6-8.5 3.9-17.1 9.4-25.7 16.6l-2.7 5c-6 10.9-12.2 22.1-18.7 33.5-.1.1-.1.2-.2.3-6.8 11.9-14 23.9-21.7 35.9 9.9-6.7 19.8-12.1 29.7-16.3 14.5-6.1 29.1-9.5 43.6-10.2 1.7-.1 3.1 1.2 3.1 2.9.1 1.7-1.2 3.1-2.9 3.1-13.8.6-27.7 3.9-41.5 9.7-13.8 5.8-27.7 14.2-41.6 25.2-10.7 15.7-22.5 31.4-35.8 46.7l0 0-.1.1 0 0c-6.5 7.5-13.4 14.9-20.7 22.1 11.4-3.6 23-6.1 34.6-7.3 16.2-1.7 32.6-1.1 49.1 1.8 1.6.3 2.7 1.8 2.4 3.5-.3 1.6-1.8 2.7-3.5 2.4-16-2.8-31.8-3.4-47.5-1.7-15.5 1.6-30.8 5.5-45.9 11.5-5.7 5.2-11.6 10.4-17.8 15.5l-9.1-.4c20.4-16.1 37.9-33.3 53.5-51.1 6.8-13.1 10.9-27.3 12.4-42.5 1.5-15.5.3-32.2-3.6-50.1-.4-1.6.7-3.2 2.3-3.6 1.6-.3 3.2.7 3.6 2.3 4 18.5 5.2 35.8 3.7 51.9-.9 9.2-2.7 18-5.4 26.4 21.1-26.5 38.1-53.8 53.4-80.4 1.8-13.2 2.4-24.8 1.9-34.7-.5-9.9-2.2-18-5-24.4-.7-1.5 0-3.3 1.5-4 1.5-.7 3.3 0 4 1.6 3.1 7.1 4.9 15.9 5.5 26.5.3 6.6.2 13.9-.4 21.9 4-7 7.8-14 11.6-20.9l2.9-5.3c0-.1.1-.2.2-.3C2160.7 1707 2179.4 1674.1 2203.2 1649.5zM1170 826.6c-3.7 51-11.2 58.1-59.9 62 48.6 3.9 56.2 11 59.9 62 3.7-51 11.2-58.1 59.9-62C1181.2 884.6 1173.7 877.6 1170 826.6L1170 826.6zM1367.7 961.1c-2 27.2-6 31-32 33.1 26 2.1 30 5.9 32 33.1 2-27.2 6-31 32-33.1C1373.7 992.1 1369.7 988.3 1367.7 961.1L1367.7 961.1zM1281.1 751.5c-2 27.6-6.1 31.4-32.4 33.5 26.3 2.1 30.4 5.9 32.4 33.5 2-27.6 6.1-31.4 32.4-33.5C1287.2 782.9 1283.1 779.1 1281.1 751.5zM1098.3 1663c3 41.3 9.1 47 48.5 50.2-39.4 3.2-45.5 8.9-48.5 50.2-3-41.3-9.1-47-48.5-50.2C1089.1 1710.1 1095.2 1704.4 1098.3 1663L1098.3 1663zM938.1 1772c1.6 22.1 4.9 25.1 25.9 26.8-21 1.7-24.3 4.7-25.9 26.8-1.6-22.1-4.9-25.1-25.9-26.8C933.2 1797.2 936.5 1794.1 938.1 1772L938.1 1772zM1008.2 1602.2c1.6 22.4 4.9 25.4 26.2 27.2-21.3 1.7-24.6 4.8-26.2 27.2-1.6-22.3-4.9-25.4-26.2-27.2C1003.3 1627.6 1006.6 1624.6 1008.2 1602.2zM1727.8 1561.1c-2.3 31.6-7 36-37.1 38.4 30.2 2.4 34.8 6.8 37.1 38.4 2.3-31.6 7-36 37.1-38.4C1734.8 1597.2 1730.1 1592.8 1727.8 1561.1L1727.8 1561.1zM1850.4 1644.6c-1.2 16.9-3.7 19.2-19.8 20.5 16.1 1.3 18.6 3.6 19.8 20.5 1.2-16.9 3.7-19.2 19.8-20.5C1854.2 1663.8 1851.7 1661.5 1850.4 1644.6L1850.4 1644.6zM1796.7 1514.6c-1.2 17.1-3.8 19.5-20.1 20.8 16.3 1.3 18.8 3.7 20.1 20.8 1.2-17.1 3.8-19.5 20.1-20.8C1800.5 1534 1798 1531.7 1796.7 1514.6z" clip-rule="evenodd" class="colorfff svgShape"/><g><polygon fill="#fdf9f6" fill-rule="evenodd" points="1870.1 1202.1 2005.2 1165.3 2034.4 1156.4 2041.7 1180.1 2102.2 1402.3 1936.9 1447.3" clip-rule="evenodd" class="colorf6fbfd svgShape"/><path fill="#ecbfa4" fill-rule="evenodd" d="M1921.6 1241.8c-.9.2-1.8-.3-2-1.2-.2-.9.3-1.8 1.2-2l89.5-24.4c.9-.2 1.8.3 2 1.2.2.9-.3 1.8-1.2 2L1921.6 1241.8zM1919.3 1270.2c-.9.2-1.8-.3-2-1.2-.2-.9.3-1.8 1.2-2l108.2-29.5c.9-.2 1.8.3 2 1.2.2.9-.3 1.8-1.2 2L1919.3 1270.2zM1923.7 1286.3c-.9.2-1.8-.3-2-1.2-.2-.9.3-1.8 1.2-2l108.2-29.5c.9-.2 1.8.3 2 1.2.2.9-.3 1.8-1.2 2L1923.7 1286.3zM1928.1 1302.3c-.9.2-1.8-.3-2-1.2-.2-.9.3-1.8 1.2-2l108.2-29.5c.9-.2 1.8.3 2 1.2.2.9-.3 1.8-1.2 2L1928.1 1302.3zM1932.4 1318.4c-.9.2-1.8-.3-2-1.2-.2-.9.3-1.8 1.2-2l108.2-29.5c.9-.2 1.8.3 2 1.2.2.9-.3 1.8-1.2 2L1932.4 1318.4zM1936.8 1334.5c-.9.2-1.8-.3-2-1.2-.2-.9.3-1.8 1.2-2l108.2-29.5c.9-.2 1.8.3 2 1.2.2.9-.3 1.8-1.2 2L1936.8 1334.5zM1941.2 1350.6c-.9.2-1.8-.3-2-1.2-.2-.9.3-1.8 1.2-2l108.2-29.5c.9-.2 1.8.3 2 1.2.2.9-.3 1.8-1.2 2L1941.2 1350.6zM1945.6 1366.6c-.9.2-1.8-.3-2-1.2-.2-.9.3-1.8 1.2-2l108.2-29.5c.9-.2 1.8.3 2 1.2.2.9-.3 1.8-1.2 2L1945.6 1366.6zM1950 1382.7c-.9.2-1.8-.3-2-1.2-.2-.9.3-1.8 1.2-2l108.2-29.5c.9-.2 1.8.3 2 1.2.2.9-.3 1.8-1.2 2L1950 1382.7zM1954.3 1398.8c-.9.2-1.8-.3-2-1.2-.2-.9.3-1.8 1.2-2l108.2-29.5c.9-.2 1.8.3 2 1.2.2.9-.3 1.8-1.2 2L1954.3 1398.8z" clip-rule="evenodd" class="colora4ccec svgShape"/></g><g><polygon fill="#fdf9f6" fill-rule="evenodd" points="737.6 1650.6 892.2 1608.5 925.6 1598.4 934 1625.5 1003.2 1879.7 814 1931.2" clip-rule="evenodd" class="colorf6fbfd svgShape"/><path fill="#ecbfa4" fill-rule="evenodd" d="M796.6 1696c-1 .3-2-.3-2.3-1.3-.3-1 .3-2 1.3-2.3l102.4-27.9c1-.3 2 .3 2.3 1.3.3 1-.3 2-1.3 2.3L796.6 1696zM793.9 1728.5c-1 .3-2-.3-2.3-1.3-.3-1 .3-2 1.3-2.3l123.8-33.7c1-.3 2 .3 2.3 1.3.3 1-.3 2-1.3 2.3L793.9 1728.5zM798.9 1746.9c-1 .3-2-.3-2.3-1.3-.3-1 .3-2 1.3-2.3l123.8-33.7c1-.3 2 .3 2.3 1.3.3 1-.3 2-1.3 2.3L798.9 1746.9zM803.9 1765.3c-1 .3-2-.3-2.3-1.3-.3-1 .3-2 1.3-2.3l123.8-33.7c1-.3 2 .3 2.3 1.3.3 1-.3 2-1.3 2.3L803.9 1765.3zM808.9 1783.7c-1 .3-2-.3-2.3-1.3-.3-1 .3-2 1.3-2.3l123.8-33.7c1-.3 2 .3 2.3 1.3.3 1-.3 2-1.3 2.3L808.9 1783.7zM813.9 1802.1c-1 .3-2-.3-2.3-1.3-.3-1 .3-2 1.3-2.3l123.8-33.7c1-.3 2 .3 2.3 1.3.3 1-.3 2.1-1.3 2.3L813.9 1802.1zM819 1820.5c-1 .3-2-.3-2.3-1.3-.3-1 .3-2 1.3-2.3l123.8-33.7c1-.3 2 .3 2.3 1.3.3 1-.3 2-1.3 2.3L819 1820.5zM824 1838.9c-1 .3-2-.3-2.3-1.3-.3-1 .3-2.1 1.3-2.3l123.8-33.7c1-.3 2 .3 2.3 1.3.3 1-.3 2-1.3 2.3L824 1838.9zM829 1857.3c-1 .3-2-.3-2.3-1.3-.3-1 .3-2 1.3-2.3l123.8-33.7c1-.3 2 .3 2.3 1.3.3 1-.3 2-1.3 2.3L829 1857.3zM834 1875.7c-1 .3-2-.3-2.3-1.3-.3-1 .3-2 1.3-2.3l123.8-33.7c1-.3 2 .3 2.3 1.3.3 1-.3 2-1.3 2.3L834 1875.7z" clip-rule="evenodd" class="colora4ccec svgShape"/></g><g><rect width="48.7" height="474.6" x="1485.7" y="1003.3" fill="#ffffff" fill-rule="evenodd" clip-rule="evenodd" class="colorfff svgShape"/><rect width="227.4" height="227.4" x="1122.8" y="1724.6" fill="#ffffff" fill-rule="evenodd" clip-rule="evenodd" class="colorfff svgShape"/><polygon fill="#ecbfa4" fill-rule="evenodd" points="1148 1699.3 1122.8 1724.6 1148 1724.6 1350.2 1724.6 1375.4 1699.3" clip-rule="evenodd" class="colora4ccec svgShape"/><polygon fill="#e3aa88" fill-rule="evenodd" points="1350.2 1724.6 1350.2 1926.7 1350.2 1952 1375.4 1926.7 1375.4 1699.3" clip-rule="evenodd" class="color88b9e3 svgShape"/><rect width="227.4" height="227.4" x="1626.9" y="1729.6" fill="#fb600a" fill-rule="evenodd" clip-rule="evenodd" class="colord2deec svgShape"/><polygon fill="#ecbfa4" fill-rule="evenodd" points="1652.2 1704.3 1626.9 1729.6 1652.2 1729.6 1854.3 1729.6 1879.6 1704.3" clip-rule="evenodd" class="colora4ccec svgShape"/><polygon fill="#e3aa88" fill-rule="evenodd" points="1854.3 1729.6 1854.3 1931.7 1854.3 1957 1879.6 1931.7 1879.6 1704.3" clip-rule="evenodd" class="color88b9e3 svgShape"/><rect width="227.4" height="227.4" x="1651.8" y="1499.4" fill="#ffffff" fill-rule="evenodd" clip-rule="evenodd" class="colorfff svgShape"/><polygon fill="#ecbfa4" fill-rule="evenodd" points="1677 1474.1 1651.8 1499.4 1677 1499.4 1879.1 1499.4 1904.4 1474.1" clip-rule="evenodd" class="colora4ccec svgShape"/><polygon fill="#e3aa88" fill-rule="evenodd" points="1879.1 1499.4 1879.1 1701.5 1879.1 1726.8 1904.4 1701.5 1904.4 1474.1" clip-rule="evenodd" class="color88b9e3 svgShape"/><rect width="227.4" height="227.4" x="1373.6" y="1729.6" fill="#f8e8de" fill-rule="evenodd" clip-rule="evenodd" class="colordeecf8 svgShape"/><polygon fill="#ecbfa4" fill-rule="evenodd" points="1398.8 1704.3 1373.6 1729.6 1398.8 1729.6 1601 1729.6 1626.2 1704.3" clip-rule="evenodd" class="colora4ccec svgShape"/><polygon fill="#e3aa88" fill-rule="evenodd" points="1601 1729.6 1601 1931.7 1601 1957 1626.2 1931.7 1626.2 1704.3" clip-rule="evenodd" class="color88b9e3 svgShape"/><g fill="none"><rect width="227.4" height="227.4" x="1398.4" y="1499.4" fill="#fb600a" fill-rule="evenodd" clip-rule="evenodd" class="colord2deec svgShape"/><polygon fill="#ecbfa4" fill-rule="evenodd" points="1423.7 1474.1 1398.4 1499.4 1423.7 1499.4 1625.8 1499.4 1651 1474.1" clip-rule="evenodd" class="colora4ccec svgShape"/><polygon fill="#e3aa88" fill-rule="evenodd" points="1625.8 1499.4 1625.8 1701.5 1625.8 1726.8 1651 1701.5 1651 1474.1" clip-rule="evenodd" class="color88b9e3 svgShape"/></g><g fill="none"><rect width="227.4" height="227.4" x="1675.2" y="1257.1" fill="#f8e8de" fill-rule="evenodd" clip-rule="evenodd" class="colordeecf8 svgShape"/><polygon fill="#ecbfa4" fill-rule="evenodd" points="1700.4 1231.8 1675.2 1257.1 1700.4 1257.1 1902.5 1257.1 1927.8 1231.8" clip-rule="evenodd" class="colora4ccec svgShape"/><polygon fill="#e3aa88" fill-rule="evenodd" points="1902.5 1257.1 1902.5 1459.2 1902.5 1484.5 1927.8 1459.2 1927.8 1231.8" clip-rule="evenodd" class="color88b9e3 svgShape"/></g><g fill="none"><path fill="#ffffff" fill-rule="evenodd" d="M1555.4,1192.2c-17.1,0-30.9,6.9-30.9,15.5c0,8.6,13.9,15.5,30.9,15.5c17.1,0,30.9-6.9,30.9-15.5     C1586.3,1199.1,1572.4,1192.2,1555.4,1192.2z" clip-rule="evenodd" class="colorfff svgShape"/><path fill="#52340e" fill-rule="evenodd" d="M1300.4,1741.2c27.6-0.4,48.3-0.8,57.8-3.8c10.3-3.2,8.2-9.5,2.2-19.6c-26,12-19.1-2.5-31.3-0.6     c-8.6,6.9-21.2,11.5-38,13.8C1284,1736.3,1286.9,1740.9,1300.4,1741.2z" clip-rule="evenodd" class="color0e2952 svgShape"/><path fill="#ecbfa4" fill-rule="evenodd" d="M1335.8,1320.4h170.6c3.4,0,6.8,2.8,7.7,6.1l30.4,115.6c0.9,3.4-1.1,6.1-4.5,6.1h-170.6     c-3.4,0-6.8-2.8-7.7-6.1l-30.4-115.6C1330.4,1323.2,1332.5,1320.4,1335.8,1320.4z" clip-rule="evenodd" class="colora4ccec svgShape"/><path fill="#e3aa88" fill-rule="evenodd" d="M1517.8,1323.8l20.6,78.5c24.8-12.1,54.6-31.5,85.8-56.3c0.8-11.2,1.9-20.1,3.1-26.8c-2.5-5-5.3-10.3-8.2-16     c28.9-0.2,46.5-6.4,52.8-18.6c-7.7-22.6-18.5-45.7-32.4-69.2c-9.7-14.3-28.9-21.1-57.1-23.6c-11.5,35.8-67.6,32.7-47.6,1.7     c-21.1,5.7-39,16.1-53.6,31.4c-12.6,31.1-20.3,52.7-23.1,65c13.7,9.6,26.7,15.8,38.9,18.6c0.6,2.7,1,5.7,1.3,9.2h11.8     C1513.5,1317.6,1516.9,1320.4,1517.8,1323.8z" clip-rule="evenodd" class="color88b9e3 svgShape"/><path fill="#d38a5e" fill-rule="evenodd" d="M1538.4,1402.2l-20.6-78.5c-0.9-3.4-4.4-6.1-7.7-6.1h-11.8h-158.8c-3.4,0-9.4,4.3-8.4,7.7     c-0.2-2.8,1.8-4.9,4.7-4.9h170.6c3.4,0,6.8,2.8,7.7,6.1l30.4,115.6c0.5,2,0,3.8-1.2,4.9c2.8-1.8,5.5-5.3,4.9-7.7L1538.4,1402.2z" clip-rule="evenodd" class="color5e9bd3 svgShape"/><path fill="#d38a5e" fill-rule="evenodd" d="M1540 1448.3h-170.6c-.6 0-1.3-.1-1.9-.3 3.4 8.8 12.6 7.5 16.2 7.5H1586c11-.5 10.7-8.2 10.8-15.6h-48.6c.2 2.4-2.3 5.5-4.9 7.2C1542.5 1447.8 1541.4 1448.3 1540 1448.3zM1516.1 1368c-18.3 9.3-39.9 12.1-62.2 13.2.2.8.4 1.6.6 2.5 1.5 9.4-5.1 17.4-14.7 17.4-9 0-17.2-7.1-18.6-16-.2-1-.2-1.9-.2-2.8-23.1.6-45.4 1.9-63.9 9.1l12.7 48.3h165L1516.1 1368z" clip-rule="evenodd" class="color5e9bd3 svgShape"/><path fill="#d38a5e" fill-rule="evenodd" d="M1436.2,1373.3c6.1,0,11.9,5,12.8,11.1c1,6.1-3.2,11.1-9.3,11.1c-6.1,0-11.9-5-12.8-11.1     C1425.9,1378.2,1430,1373.3,1436.2,1373.3z" clip-rule="evenodd" class="color5e9bd3 svgShape"/><path fill="#ce916d" fill-rule="evenodd" d="M1632.5,1420.1c-3.4-10.4-5.9-21.1-7.3-32.3c-23,8.9-49.3,17.5-82.5,30.6l4.5,17.1     C1597.4,1437.1,1625.8,1432,1632.5,1420.1z" clip-rule="evenodd" class="color6d96ce svgShape"/><path fill="#fbb890" fill-rule="evenodd" d="M1542.7 1418.4c33.2-13.1 59.5-21.7 82.5-30.6 20.2-7.8 37.9-15.9 55.6-27.6-.7-22.5-4.1-44.3-13.4-69.5-8.6 8.2-24.6 12.3-48.2 12.5 6.8 12.9 12.4 24 16.7 33.3-35.4 29.4-69.6 52.1-97.4 65.7L1542.7 1418.4zM1462.5 1292.8c-2.6 8.9-4.9 17.2-7.1 24.8h42.9c-.3-3.4-.8-6.5-1.3-9.2C1486.1 1306 1474.6 1300.7 1462.5 1292.8z" clip-rule="evenodd" class="colorf9af79 svgShape"/><path fill="#a55c31" fill-rule="evenodd" d="M1358.3,1708.7c25.4-92,34.5-156.7,27.2-194c14.4,2.1,28.9,2.7,43.5,1.9c-2.2-10-4.4-19.9-6.7-30     c0.3-13.7,7.3-23.9,32.1-31.2h-70.7c-2.4,0-7.3,0.6-11.3-1.6c-22.8,6.5-33.9,17.3-37.7,30.4c-2.8,36.1,4.7,77.2-1.7,224.8     C1341,1709.8,1349.4,1709.8,1358.3,1708.7z" clip-rule="evenodd" class="color3155a5 svgShape"/><path fill="#ac6a43" fill-rule="evenodd" d="M1384.8 1455.4h-1.1c-2.4 0-7.3.6-11.3-1.6-22.8 6.5-33.9 17.3-37.7 30.4-2.8 36.1 4.7 77.2-1.7 224.8 4.8.5 9.7.7 14.8.5 13.1-51.3 44.3-177.1 9.2-231.4C1365.2 1469.4 1374.5 1461.8 1384.8 1455.4zM1608 1509.6c29.8-10.7 33.8-40.3 20.7-85.1-10.8 8.8-38 12.5-81.6 11.1l1 3.9c0 .2.1.3.1.5h48.6c-.1 7.4.1 15.1-10.8 15.6h-131.6c-24.9 7.3-31.9 17.5-32.1 31.2 15.7 70.4 29.8 134.9 48.8 224 6.4 3.6 15.2 3.3 26.4-.8 9-86.5 6.5-149.3-7.4-188.6C1527 1521.4 1566.3 1516.4 1608 1509.6z" clip-rule="evenodd" class="color4361ac svgShape"/><path fill="#a55c31" fill-rule="evenodd" d="M1608,1509.6c29.8-10.7,33.8-40.3,20.7-85.1c-2.3,1.9-5.3,3.5-9.1,4.9c10.8,46-0.9,71.3-35.9,73.7     c-40.8,6.1-74.7,9-101.5,8.7c11.8,76.8,13.9,143.7,6.1,200.8c2.9-0.6,6-1.4,9.3-2.7c9-86.5,6.5-149.3-7.4-188.6     C1527,1521.4,1566.3,1516.4,1608,1509.6z" clip-rule="evenodd" class="color3155a5 svgShape"/><path fill="#fbb890" fill-rule="evenodd" d="M1335.7,1709.3c-0.7,2.8-1.9,5.4-3.6,7.8c8,0.7,4.9,11,26.4,1.6c-0.9-2.7-1.4-6-1.5-9.8     C1349.6,1709.7,1342.5,1709.8,1335.7,1709.3z" clip-rule="evenodd" class="colorf9af79 svgShape"/><path fill="#52340e" fill-rule="evenodd" d="M1471.2,1757.3c14.7-6,16.9-15.9,24.9-19.7c8.1-3.8,9-10.5,1.1-17.9c-5.9,4.7-13.1,10.4-17,7.4     c-2.6-2-11.3-1.9-13,1.1c-7.6,17.7-18.2,12.1-20.3,20.1C1446.7,1759.1,1462,1761.1,1471.2,1757.3z" clip-rule="evenodd" class="color0e2952 svgShape"/><path fill="#fbb890" fill-rule="evenodd" d="M1473.7,1711.9c0.1,4.7-0.5,9.4-1.9,14.1c3.1-0.5,6.9-0.1,8.5,1.2c3.6,2.8,10.1-1.9,15.7-6.3     c-0.9-2.5-1.5-5.8-1.8-9.8C1485.9,1713.6,1479.1,1713.9,1473.7,1711.9z" clip-rule="evenodd" class="colorf9af79 svgShape"/><path fill="#d38a5e" fill-rule="evenodd" d="M1619.1,1303.2c-3.8-6.9-7.8-16.1-12-27.7c2.3,13.5,2.2,23.2,5.8,34.3c-3,15.7-4.2,31.7-3.9,47.8     c5-3.8,10.1-7.7,15.2-11.8c0.8-11.2,1.9-20.1,3.1-26.8C1624.9,1314.2,1622.1,1308.8,1619.1,1303.2L1619.1,1303.2z M1488.2,1305.9     c3,1,5.9,1.9,8.8,2.6c-1.1-17.2-1.8-31.4-2.2-42.6C1491.5,1282.5,1489.3,1295.8,1488.2,1305.9L1488.2,1305.9z M1632.5,1420.1     c-3.4-10.4-5.9-21.1-7.3-32.3c-4.3,1.6-8.6,3.3-13.1,4.9c1.8,12.2,4.4,24.4,7.7,36.6C1626.1,1426.9,1630.4,1423.8,1632.5,1420.1z     " clip-rule="evenodd" class="color5e9bd3 svgShape"/><path fill="#d17705" fill-rule="evenodd" d="M1521.6,1161.6c32.5,11.8,53.4,12.9,62.6,3.4c9.3-2.2,15.4-10.5,18.3-24.9c9.7-21.9,1.4-57-12.2-39.6     c-11.3-28.8-56.4-12.1-81.9-28.1c-15.5,10.1-9.6,35.1,1.5,43.5C1509.4,1144.7,1511,1160,1521.6,1161.6z" clip-rule="evenodd" class="color263c84 svgShape"/><path fill="#d17705" fill-rule="evenodd" d="M1597.6,1103.7c-3.5-2.7-4.6-5.7-3.4-8.9c5.4-3,10.5-3.1,15.4-0.3     C1606.6,1094.7,1602.6,1097.7,1597.6,1103.7z" clip-rule="evenodd" class="color263c84 svgShape"/><path fill="#d17705" fill-rule="evenodd" d="M1590.9 1096.1c2.5 2.8 4.8 3.4 6.9 1.9 1.3-5.3.5-9.9-2.3-13.9C1595.8 1086.7 1594.3 1090.8 1590.9 1096.1zM1573.7 1108.1c6.1-2.4 10.8-1.6 13.9 2.4-.2 9.2-5 27.6-12.3 31.7C1574 1141.4 1574.3 1121.9 1573.7 1108.1z" clip-rule="evenodd" class="color263c84 svgShape"/><path fill="#d17705" fill-rule="evenodd" d="M1571.4,1099.3c10.4,5,13.8,9.6,10.2,13.6c-15.6,2.3-30.6,0.6-44.9-5.1     C1545.4,1108.6,1556.9,1105.8,1571.4,1099.3z" clip-rule="evenodd" class="color263c84 svgShape"/><path fill="#d17705" fill-rule="evenodd" d="M1510.6,1114.8c11.7-11.8,33.8-13.3,64.3-2.1c19.3-4.8,23.6-13.7,15.5-28.2c-11.5-20.5-36.4-4.3-66.9-23.6     C1524.6,1075.9,1479.2,1088.7,1510.6,1114.8z" clip-rule="evenodd" class="color263c84 svgShape"/><path fill="#fbb890" fill-rule="evenodd" d="M1583.9,1124.8c-8.1-1.7-7.3,14.9-6.7,23.1C1578.4,1164.1,1596.6,1127.5,1583.9,1124.8z" clip-rule="evenodd" class="colorf9af79 svgShape"/><path fill="#fbb890" fill-rule="evenodd" d="M1593.6,1192.9c-4.5,0.3-11.8-1.2-13-2.8c-4.8-6-8.1-12.4-9.3-16.3c0.9-2.6,1.9-6,2.9-10     c17.3-11.7,19.6-20.4,7.1-26c-2.5,1.4-5.7,5.8-9.4,13.1c-3-0.1-5.3-1.7-6.8-4.6c3.6-12.3,5.9-22.4,7-30.1     c-8.5-12.6-28.4-14.4-54.7-11c-1.2,7-2.2,14.4-3,22.3c-3.3,3-12.8,53.5,19.5,55.6c0.2,3.7-0.1,8.2-0.4,8.7     c-0.4,0.8-1.7,1.6-3.6,2.2l0,0C1529.4,1211.1,1550.8,1211.2,1593.6,1192.9z" clip-rule="evenodd" class="colorf9af79 svgShape"/><path fill="#d17705" fill-rule="evenodd" d="M1517.3,1105.1c26.3-3.4,46.2-1.6,54.7,11c-1.1,7.7-3.4,17.7-7,30.1c1.5,2.9,3.8,4.5,6.8,4.6     c3.7-7.3,6.9-11.7,9.4-13.1c12.5,5.6,10.2,14.3-7.1,26c-1,4-2,7.4-2.9,10c15.5-3.5,28.5-17.4,30.3-23.4     c18.1-35.7-2.1-50.8-12.9-56.3c-4.8-35.3-56.1-4.1-81.8-21.1C1496.7,1087.1,1509.3,1104.8,1517.3,1105.1z" clip-rule="evenodd" class="color263c84 svgShape"/><path fill="#ed8f57" fill-rule="evenodd" d="M1551.1,1179.3c-4.2,2.1-10,3.3-17.3,3.6c0.1,2.5,0,5.3-0.1,7.1C1541.1,1188.6,1546.9,1185.1,1551.1,1179.3     z" clip-rule="evenodd" class="colored7d57 svgShape"/><path fill="#d17705" fill-rule="evenodd" d="M1521.1,1096.4c-4,3.1-5.3,6.4-3.8,10c6.1,3.4,11.9,3.5,17.4,0.3     C1531.3,1106.6,1526.8,1103.1,1521.1,1096.4z" clip-rule="evenodd" class="color263c84 svgShape"/><path fill="#d38a5e" fill-rule="evenodd" d="M1596 1193.1c-22.6 10.3-41.5 16.1-52.2 15.8-3.5-.1-6.5-.8-8.9-2-2.5-1.3-4.4-3.2-5.5-5.8-1-2.2-1.5-3.9-1.4-6.9l4.5-1.6c-.1 2.3.4 5 1.1 6.6.7 1.6 1.9 2.8 3.5 3.6 1.7.9 4 1.4 6.9 1.5 10 .3 22.1-2.6 44.1-12.6L1596 1193.1zM1531.8 1215c-1.3.2-2.5-.7-2.7-1.9-.2-1.3.7-2.5 1.9-2.7 4.4-.7 9.1-1 14-.9 4.9.1 10 .6 15.3 1.5 1.3.2 2.1 1.4 1.9 2.7-.2 1.3-1.4 2.1-2.7 1.9-5.1-.9-10-1.4-14.6-1.5C1540.3 1214.1 1535.9 1214.4 1531.8 1215z" clip-rule="evenodd" class="color5e9bd3 svgShape"/><path fill="#d38a5e" fill-rule="evenodd" d="M1535.5,1220.1c-1.3,0.3-2.5-0.5-2.8-1.8c-0.3-1.3,0.5-2.5,1.8-2.8c3.4-0.7,6.9-1,10.7-0.9     c3.7,0.1,7.6,0.6,11.6,1.6c1.2,0.3,2,1.5,1.7,2.8c-0.3,1.2-1.5,2-2.8,1.7c-3.8-0.9-7.3-1.4-10.7-1.5     C1541.8,1219.2,1538.6,1219.5,1535.5,1220.1z" clip-rule="evenodd" class="color5e9bd3 svgShape"/></g><g fill="none"><rect width="48.7" height="340.3" x="1769.1" y="891.5" fill="#ffffff" fill-rule="evenodd" clip-rule="evenodd" class="colorfff svgShape"/></g><g fill="none"><rect width="48.7" height="493.2" x="1212" y="1206.2" fill="#ffffff" fill-rule="evenodd" clip-rule="evenodd" class="colorfff svgShape"/></g><g fill="none"><circle cx="1229.4" cy="1222.4" r="58.8" fill="#f3d4c1" fill-rule="evenodd" clip-rule="evenodd" transform="rotate(-45.001 1229.41 1222.41)" class="colorc1ddf3 svgShape"/><path fill="#e3aa88" fill-rule="evenodd" d="M1215.7,1265l53.3-44.8c6.6-5.5,44.4-36.4,37-45.2c-5.5-6.5-40.8,24.7-46.8,29.7l-45.1,38l-30.4-44     c-1.5-4.8-6.6-7.5-11.4-6c-4.8,1.5-7.5,6.6-6,11.4l34.4,57c1.5,4.8,6.6,7.5,11.4,6C1213.5,1266.5,1214.7,1265.8,1215.7,1265z" clip-rule="evenodd" class="color88b9e3 svgShape"/><path fill="#ffffff" fill-rule="evenodd" d="M1215.5,1262.1l53.3-44.8c6.6-5.5,44.4-36.4,37-45.2c-5.5-6.5-40.8,24.7-46.8,29.7l-45.1,38l-30.4-44     c-1.5-4.8-6.6-7.5-11.4-6c-4.8,1.5-7.5,6.6-6,11.4l34.4,57c1.5,4.8,6.6,7.5,11.4,6C1213.3,1263.7,1214.5,1263,1215.5,1262.1z" clip-rule="evenodd" class="colorfff svgShape"/></g><g fill="none"><circle cx="1503.2" cy="956.2" r="58.8" fill="#f3d4c1" fill-rule="evenodd" clip-rule="evenodd" transform="rotate(-76.767 1503.233 956.224)" class="colorc1ddf3 svgShape"/><path fill="#e3aa88" fill-rule="evenodd" d="M1489.4,998.7l53.3-44.8c6.6-5.5,44.4-36.4,37-45.2c-5.5-6.5-40.8,24.7-46.8,29.7l-45.1,38l-30.4-44     c-1.5-4.8-6.6-7.5-11.4-6c-4.8,1.5-7.5,6.6-6,11.4l34.4,57c1.5,4.8,6.6,7.5,11.4,6C1487.3,1000.3,1488.5,999.6,1489.4,998.7z" clip-rule="evenodd" class="color88b9e3 svgShape"/><path fill="#ffffff" fill-rule="evenodd" d="M1489.2,995.9l53.3-44.8c6.6-5.5,44.4-36.4,37-45.2c-5.5-6.5-40.8,24.7-46.8,29.7l-45.1,38l-30.4-44     c-1.5-4.8-6.6-7.5-11.4-6c-4.8,1.5-7.5,6.6-6,11.4l34.4,57c1.5,4.8,6.6,7.5,11.4,6C1487.1,997.5,1488.3,996.8,1489.2,995.9z" clip-rule="evenodd" class="colorfff svgShape"/></g><g fill="none"><circle cx="1786.6" cy="849.9" r="58.8" fill="#f3d4c1" fill-rule="evenodd" clip-rule="evenodd" class="colorc1ddf3 svgShape"/><path fill="#e3aa88" fill-rule="evenodd" d="M1772.8,892.4l53.3-44.8c6.6-5.5,44.4-36.5,37-45.2c-5.5-6.5-40.8,24.7-46.8,29.7l-45.1,38l-30.4-44     c-1.5-4.8-6.6-7.5-11.4-6c-4.8,1.5-7.5,6.6-6,11.4l34.4,57c1.5,4.8,6.6,7.5,11.4,6C1770.7,894,1771.8,893.3,1772.8,892.4z" clip-rule="evenodd" class="color88b9e3 svgShape"/><path fill="#ffffff" fill-rule="evenodd" d="M1772.6,889.5l53.3-44.8c6.6-5.5,44.4-36.5,37-45.2c-5.5-6.5-40.8,24.7-46.8,29.7l-45.1,38l-30.4-44     c-1.5-4.8-6.6-7.5-11.4-6c-4.8,1.5-7.5,6.6-6,11.4l34.4,57c1.5,4.8,6.6,7.5,11.4,6C1770.5,891.1,1771.6,890.4,1772.6,889.5z" clip-rule="evenodd" class="colorfff svgShape"/></g></g><g><path fill="#ecbfa4" fill-rule="evenodd" d="M922.6,1351.4l-18,10.5c-6.1,3.5-8.1,11.4-4.6,17.5l4,6.8c4.7,8.1,2.6,11.7,1.2,13c-4,3.6-7.7,7.5-11.4,11.4   c-1.1,1.1-4.6,5-13.7-0.3l-6.3-3.6c-6.1-3.5-13.9-1.5-17.5,4.6l-10.5,18c-3.5,6.1-1.5,13.9,4.6,17.5l6.2,3.6   c8.6,5,8.4,7.5,7.3,11.2c-1.5,5-3.1,10-4.2,15.2c-1,4.6-0.5,7.9-12.2,7.9h-7.2c-7,0-12.8,5.7-12.8,12.8v20.8   c0,7,5.7,12.8,12.8,12.8h7.2c11.7,0,11.2,3.3,12.2,7.9c1.1,5.2,2.7,10.2,4.2,15.2c1.1,3.6,1.3,6.2-7.3,11.2l-6.2,3.6   c-6.1,3.5-8.1,11.4-4.6,17.5l10.5,18c3.5,6.1,11.4,8.1,17.5,4.6l6.3-3.6c9.2-5.3,12.6-1.4,13.7-0.3c3.7,3.9,7.4,7.8,11.4,11.4   c1.5,1.3,3.5,4.9-1.2,13l-4,6.8c-3.5,6.1-1.5,13.9,4.6,17.5l18,10.5c6.1,3.5,13.9,1.5,17.5-4.6l4-6.8c4.8-8.2,9.4-7.9,11.4-7.2   c5.7,1.8,11,3,17,4.6c2.2,0.6,5.9,2.1,5.9,11.9v7.3c0,7,5.7,12.8,12.8,12.8h20.8c7,0,12.8-5.7,12.8-12.8v-7.3   c0-9.7,3.7-11.3,5.9-11.9c5.9-1.5,11.2-2.7,17-4.6c2-0.6,6.7-1,11.4,7.2l4,6.8c3.5,6.1,11.4,8.1,17.5,4.6l18-10.5   c6.1-3.5,8.1-11.4,4.6-17.5l-4-6.8c-4.7-8.1-2.6-11.7-1.2-13c4-3.6,7.7-7.5,11.4-11.4c1.1-1.1,4.6-5,13.7,0.3l6.3,3.6   c6.1,3.5,13.9,1.5,17.5-4.6l10.5-18c3.5-6.1,1.5-13.9-4.6-17.5l-6.2-3.6c-8.6-5-8.4-7.5-7.3-11.2c1.5-5,3.1-10,4.2-15.2   c1-4.6,0.5-7.9,12.2-7.9h7.2c7,0,12.8-5.7,12.8-12.8v-20.8c0-7-5.7-12.8-12.8-12.8h-7.2c-11.7,0-11.2-3.3-12.2-7.9   c-1.1-5.2-2.7-10.2-4.2-15.2c-1.1-3.6-1.3-6.2,7.3-11.2l6.2-3.6c6.1-3.5,8.1-11.4,4.6-17.5l-10.5-18c-3.5-6.1-11.4-8.1-17.5-4.6   l-6.3,3.6c-9.2,5.3-12.6,1.4-13.7,0.3c-3.7-3.9-7.4-7.8-11.4-11.4c-1.5-1.3-3.5-4.9,1.2-13l4-6.8c3.5-6.1,1.5-13.9-4.6-17.5   l-18-10.5c-6.1-3.5-13.9-1.5-17.5,4.6l-4,6.8c-4.8,8.2-9.4,7.9-11.4,7.2c-5.7-1.8-11-3-17-4.6c-2.2-0.6-5.9-2.1-5.9-11.9v-7.3   c0-7-5.7-12.8-12.8-12.8h-20.8c-7,0-12.8,5.7-12.8,12.8v7.3c0,9.7-3.7,11.3-5.9,11.9c-5.9,1.5-11.2,2.7-17,4.6   c-2,0.6-6.7,1-11.4-7.2l-4-6.8C936.5,1349.9,928.7,1347.8,922.6,1351.4L922.6,1351.4z M1001.5,1480.2c15.2,0,27.5,12.3,27.5,27.5   c0,15.2-12.3,27.5-27.5,27.5c-15.2,0-27.5-12.3-27.5-27.5C974,1492.5,986.3,1480.2,1001.5,1480.2L1001.5,1480.2z M915.3,1507.7   c0-3.2,2.6-5.9,5.9-5.9c3.2,0,5.9,2.6,5.9,5.9c0,20.6,8.3,39.2,21.8,52.6c13.5,13.5,32.1,21.8,52.6,21.8c3.2,0,5.9,2.6,5.9,5.9   c0,3.2-2.6,5.9-5.9,5.9c-23.8,0-45.4-9.7-61-25.3C924.9,1553.1,915.3,1531.5,915.3,1507.7L915.3,1507.7z M1086.6,1493.8   c0.5,3.2-1.7,6.2-4.9,6.7c-3.2,0.5-6.2-1.7-6.7-4.9c-2.5-15.6-9.9-29.6-20.6-40.3c-10.7-10.8-24.6-18.3-40.2-21   c-3.2-0.5-5.3-3.6-4.8-6.8c0.5-3.2,3.6-5.3,6.8-4.8c18,3.1,34.2,11.8,46.5,24.3C1075.1,1459.5,1083.6,1475.7,1086.6,1493.8   L1086.6,1493.8z M1001.5,1405.5c56.4,0,102.2,45.7,102.2,102.2c0,56.4-45.7,102.2-102.2,102.2c-56.4,0-102.2-45.7-102.2-102.2   C899.3,1451.3,945.1,1405.5,1001.5,1405.5z" clip-rule="evenodd" class="colora4ccec svgShape"/></g><g><path fill="#ffffff" fill-rule="evenodd" d="M1001.5,1401.9c58.4,0,105.8,47.4,105.8,105.8c0,58.4-47.3,105.8-105.8,105.8c-58.4,0-105.8-47.4-105.8-105.8   C895.7,1449.3,943.1,1401.9,1001.5,1401.9z" clip-rule="evenodd" class="colorfff svgShape"/></g><g><path fill="#e3aa88" fill-rule="evenodd" d="M541.2,1376.7l-14.7,14.7c-5,5-5,13.1,0,18.1l5.6,5.6c6.6,6.6,5.5,10.6,4.5,12.3c-3,4.5-5.6,9.2-8.2,13.9   c-0.8,1.4-3.1,6-13.3,3.2l-7-1.9c-6.8-1.9-13.8,2.1-15.7,8.9l-5.5,20.1c-1.9,6.8,2.2,13.8,8.9,15.7l6.9,1.9c9.6,2.6,10,5.2,9.9,9   c-0.2,5.2-0.4,10.5-0.2,15.7c0.2,4.7,1.5,7.8-9.8,10.8l-6.9,1.8c-6.8,1.8-10.9,8.8-9.1,15.6l5.3,20.1c1.8,6.8,8.8,10.9,15.6,9.1   l6.9-1.8c11.3-3,11.7,0.3,13.8,4.5c2.4,4.7,5.2,9.1,7.9,13.6c2,3.2,2.8,5.7-4.2,12.7l-5.1,5.1c-5,5-5,13.1,0,18.1l14.7,14.7   c5,5,13.1,5,18.1,0l5.1-5.1c7.5-7.5,11.8-4.6,13.2-3.8c4.6,2.8,9.2,5.6,14,8.1c1.7,0.9,4.6,3.9,2.2,12.9l-2.1,7.6   c-1.9,6.8,2.1,13.8,8.9,15.7l20.1,5.5c6.8,1.9,13.8-2.1,15.7-8.9l2.1-7.6c2.5-9.1,7.1-10,9.2-9.9c6,0.3,11.4,0.1,17.6,0.1   c2.2,0,6.2,0.6,8.7,10l1.9,7.1c1.8,6.8,8.8,10.9,15.6,9.1l20.1-5.3c6.8-1.8,10.9-8.8,9.1-15.6l-1.9-7.1c-2.5-9.4,0.7-11.9,2.6-13   c5.3-3,10.2-5.5,15.2-8.7c1.8-1.1,6.2-2.6,12.9,4.1l5.6,5.6c5,5,13.1,5,18.1,0l14.7-14.7c5-5,5-13.1,0-18.1l-5.6-5.6   c-6.6-6.6-5.5-10.6-4.5-12.3c3-4.5,5.6-9.2,8.2-13.9c0.8-1.4,3.1-6,13.3-3.2l7,1.9c6.8,1.9,13.8-2.1,15.7-8.9l5.5-20.1   c1.9-6.8-2.1-13.8-8.9-15.7l-6.9-1.9c-9.6-2.6-10-5.2-9.9-9c0.2-5.2,0.4-10.5,0.2-15.7c-0.2-4.7-1.5-7.8,9.8-10.8l6.9-1.8   c6.8-1.8,10.9-8.8,9.1-15.6l-5.3-20.1c-1.8-6.8-8.8-10.9-15.6-9.1l-6.9,1.8c-11.3,3-11.7-0.3-13.8-4.5c-2.4-4.7-5.2-9.1-7.9-13.6   c-2-3.2-2.8-5.7,4.2-12.7l5.1-5.1c5-5,5-13.1,0-18.1l-14.7-14.7c-5-5-13.1-5-18.1,0l-5.1,5.1c-7.5,7.5-11.8,4.6-13.2,3.8   c-4.6-2.8-9.2-5.6-14-8.1c-1.7-0.9-4.6-3.9-2.2-12.9l2.1-7.6c1.9-6.8-2.1-13.8-8.9-15.7l-20.1-5.5c-6.8-1.9-13.8,2.1-15.7,8.9   l-2.1,7.6c-2.5,9.1-7.1,10-9.2,9.9c-6-0.3-11.4-0.1-17.6-0.1c-2.2,0-6.2-0.6-8.7-10l-1.9-7.1c-1.8-6.8-8.8-10.9-15.6-9.1l-20.1,5.3   c-6.8,1.8-10.9,8.8-9.1,15.6l1.9,7.1c2.5,9.4-0.7,11.9-2.6,13c-5.3,3-10.2,5.5-15.2,8.7c-1.8,1.1-6.2,2.6-12.9-4.1l-5.6-5.6   C554.3,1371.7,546.2,1371.7,541.2,1376.7L541.2,1376.7z M650.4,1481.1c14.7-3.9,29.7,4.9,33.6,19.6c3.9,14.7-4.9,29.7-19.6,33.6   c-14.7,3.9-29.7-4.9-33.6-19.6C626.9,1500,635.7,1485,650.4,1481.1L650.4,1481.1z M574,1529.7c-0.8-3.1,1-6.4,4.2-7.2   c3.1-0.8,6.4,1,7.2,4.2c5.2,19.9,18.1,35.7,34.5,45.3c16.5,9.6,36.6,12.9,56.5,7.6c3.1-0.8,6.4,1,7.2,4.2c0.8,3.1-1,6.4-4.2,7.2   c-23,6.1-46.3,2.2-65.4-8.9C594.9,1571.1,580.1,1552.7,574,1529.7L574,1529.7z M736.1,1472.5c1.3,3,0,6.4-3,7.7c-3,1.3-6.4,0-7.7-3   c-6.4-14.4-17.1-26.1-30.2-33.7c-13.1-7.7-28.4-11.4-44.2-10c-3.2,0.3-6.1-2.1-6.4-5.3c-0.3-3.2,2.1-6.1,5.3-6.4   c18.2-1.6,36,2.7,51.2,11.6C716.2,1442.3,728.6,1455.8,736.1,1472.5L736.1,1472.5z M631.3,1408.9c54.5-14.4,110.4,18.1,124.8,72.7   c14.4,54.5-18.1,110.4-72.7,124.8c-54.5,14.4-110.4-18.1-124.8-72.7C544.2,1479.2,576.8,1423.3,631.3,1408.9z" clip-rule="evenodd" class="color88b9e3 svgShape"/></g><g><path fill="#ffffff" fill-rule="evenodd" d="M630.4,1405.4c56.5-14.9,114.3,18.8,129.3,75.3c14.9,56.5-18.8,114.3-75.3,129.3   c-56.5,14.9-114.3-18.8-129.3-75.3C540.2,1478.2,573.9,1420.3,630.4,1405.4z" clip-rule="evenodd" class="colorfff svgShape"/></g><g><circle cx="1001.5" cy="1507.7" r="32.2" fill="#f8e8de" fill-rule="evenodd" clip-rule="evenodd" class="colordeecf8 svgShape"/></g><g><path fill="#d38a5e" fill-rule="evenodd" d="M888.3,1172.5c-1.4-4.5,1.2-9.3,5.7-10.6c4.5-1.4,9.3,1.2,10.6,5.7l86.2,289.6l-5.8-19.4l29.5-9.7l-7.8,37.7   l-7.8,37.7l-28.7-25.6l-28.7-25.6l27.3-9L888.3,1172.5z" clip-rule="evenodd" class="color5e9bd3 svgShape"/></g><g><path fill="#e3aa88" fill-rule="evenodd" d="M589.6,1535.5c-0.9-2.1,0-4.6,2.2-5.5c0.9-0.4,2-0.5,2.9-0.2c1.1-1.8,2.7-5,4.5-8.5c1.9-3.8,3.9-7.7,5.9-10.7   c2.7-4.3,4.8-7.7,6.6-10.5c6.9-11.2,10.6-17.2,15.9-13.1c3.4,2.6,3.7,12.4,4.3,33.3l0.2,7.5c0.4,12.9-2.9,18.2-1.4,18.1   c1,0,0.8-3.8,3.8-10c4.5-9.4,11.1-23,20.8-37.2c10.4-15.3,16.2-20.6,20.7-17.6c3.8,2.6,3.3,10.9,2.5,24.1   c-0.4,6.7-0.9,14.8-1.1,24.2c3.2-5.2,7.8-12.7,10.7-17.4c1-1.6,1.7-2.8,2.4-3.9l0,0c1.4-2.3,5.8-9.6,10.4-17.3l6.4-10.7   c-1,0.4-2.1,0.9-3.1,1.4c-2.1,1-4.6,0-5.6-2.1c-1-2.1,0-4.6,2.1-5.6c2.2-1,4.2-1.8,6.1-2.5c3.6-1.4,6.8-2.7,10-5   c1.9-1.4,4.5-1,5.9,0.9c1,1.4,1.1,3.3,0.2,4.7c-0.2,0.5-0.4,2.3-0.5,4.5c-0.2,3.7,0,8,0.3,10.3c0,0.3,0,0.6,0,1l0,0.3   c-0.1,2.3-2,4.1-4.3,4.1c-2.3-0.1-4.1-2-4.1-4.3l0-0.3c-0.1-0.7-0.1-1.5-0.2-2.3l-5.9,9.9c-4.9,8.1-9.5,15.9-10.5,17.5l0,0l0,0   c-0.4,0.6-1.2,2-2.3,3.8c-5.5,9.1-16.5,27.1-21.5,27.1c-3.1,0-4.8-1.7-4.8-5.5c0-12.9,0.7-24.3,1.2-33.1   c0.6-10.3,1.2-16.6,1.1-16.6c-0.7-0.5-2,5-9.1,15.4c-9.4,13.7-15.8,27-20.2,36.1c-4.3,8.9-7,14.6-11.1,14.7   c-5,0.2-6.7-7.4-7.2-26.3l-0.2-7.5c-0.5-18.2-0.8-26.6-1.1-26.9c-2.1-1.6,0.1,4.8-3.7,10.9c-2,3.2-4.3,7-6.7,10.7   c-1.9,2.9-3.7,6.6-5.5,10c-3.3,6.4-6.3,12.2-9.6,13.7C593.8,1540.2,591.3,1539.3,589.6,1535.5z" clip-rule="evenodd" class="color88b9e3 svgShape"/></g></svg>