<svg xmlns="http://www.w3.org/2000/svg" enable-background="new 0 0 3800 3000" viewBox="0 0 3800 3000"><path fill="#f4e2d7" d="M1442.9,1210.41c-89.2-49.26-206.53-13.77-284.55,78.02c-78.02,91.79-128.51,371.75-344.21,472.72    c-215.71,100.97,55.07,220.3,238.65,114.74C1236.37,1770.33,1750.4,1380.22,1442.9,1210.41z" class="colord7e3f4 svgShape"/><path fill="#f4e2d7" d="M2759.13,2817.11H753.33c0,0-299.75-316.85-84.04-592.25c215.71-275.39,442.62-174.71,705.96-491.56    c263.33-316.85,382.68-474.88,780.48-463.04C2553.52,1282.11,3284.69,1774.57,2759.13,2817.11z" class="colord7e3f4 svgShape"/><path fill="#f4e2d7" d="M2458.47,1335.86c58.25,12.56,114.66,33.42,167.8,60.29c53.02,27.11,102.39,61.04,146.31,100.5    c43.93,39.48,82.07,84.69,113.76,133.44c16.09,24.27,29.95,49.74,42.7,75.61c12.93,25.83,23.59,52.55,33.28,79.49    c19.5,53.98,31.88,109.93,39.57,165.98c7.44,56.14,10.13,112.64,8.23,168.91c-1.86,56.26-8,112.32-18.95,167.5    c-11.28,55.07-26.38,109.58-48.96,161.26c13.03-54.4,22.3-109.06,27.4-164.04c5.32-54.92,7.31-109.98,5.95-164.85    c-1.46-54.86-5.99-109.56-14.7-163.53c-8.62-53.98-21.11-107.23-39.42-158.68c-17.99-51.6-41.24-101.49-69.9-148.54    c-28.9-46.87-62.85-91.2-102.69-130.8c-39.56-39.83-84.44-75.26-133.22-105.87C2566.78,1381.91,2513.9,1356.58,2458.47,1335.86z" class="colord7e3f4 svgShape"/><path fill="#d3a68c" d="M809.52,2666.96c0,0,36.62-265.83-36.3-239.6C700.31,2453.6,733.77,2560.14,809.52,2666.96z" class="color8ca9d3 svgShape"/><path fill="#fff7f2" d="M809.25,2471.63c-3.71-2.91-5.09-8.12-6.78-12.32c-1.96-4.9-4.16-9.68-7.98-13.44     c-4.71-4.64-10.7-7.13-17.18-8.02c-6.23-0.86-12.86-0.07-18.9-2.03c-0.24-0.08-0.41-0.24-0.64-0.33     c4.55-3.15,9.53-5.99,15.45-8.13c23.5-8.46,35.59,13.5,41.22,47.05C812.56,2473.67,810.74,2472.79,809.25,2471.63z" opacity=".2" class="colorf2faff svgShape"/><path fill="#342720" d="M739.67,2473.51c0.28,19.83,1.13,39.36,7.11,58.44c2.51,8,5.57,16.06,8.98,23.73     c2.68,6.03,6.2,12.15,11.83,15.88c12.17,8.04,26.48-0.19,35.14-9.5c5.32-5.72,9.88-12.94,15.91-17.71     c-0.65,60.98-9.11,122.61-9.11,122.61c-57.57-81.19-90.4-162-70.93-207.7C739.58,2463.93,739.6,2468.94,739.67,2473.51z" opacity=".15" class="color202234 svgShape"/><path fill="#d3a68c" d="M814.33,2664.39c0,0-149.11-262.22-251.98-172.05C459.49,2582.5,814.33,2664.39,814.33,2664.39z" class="color8ca9d3 svgShape"/><path fill="#fff7f2" d="M715.2,2533.55c-4.14,0.59-8.44,0.9-12.63,0.82c-0.26,0-0.52-0.01-0.78-0.02c0.39-0.1-3.62-0.79-4.21-1     c-4.15-1.46-7.61-3.92-10.83-6.87c-6.29-5.77-11.53-12.33-19-16.69c-16.52-9.65-36.72-11.42-55.12-15.08     c-8.14-1.62-22.13-2.25-25.49-11.43c-0.69-1.9-0.68-3.75-0.33-5.55c42.23-15.39,89.14,14.99,129.36,55.6     C715.85,2533.4,715.53,2533.5,715.2,2533.55z" opacity=".2" class="colorf2faff svgShape"/><path fill="#342720" d="M566.05,2559.64c13.82,9.19,29.18,14.29,45.77,14.56c8.65,0.15,17.59-0.6,26.1,1.33     c8.55,1.93,14.73,6.54,20.46,12.97c10.7,11.99,20.66,22.56,35.79,28.9c15.77,6.6,33.11,7.72,50.02,7.25     c6.87-0.19,13.49-1.04,20.31-1.76c5.2-0.55,12.08-1.55,16.92,1.11c6.26,3.43,6.23,14.09,5.14,20.14     c-0.78,4.28-2.43,8.34-4.71,12.01c-71.26-19.2-235.19-69.7-238.1-128.51C548.58,2540.31,553.77,2551.47,566.05,2559.64z" opacity=".15" class="color202234 svgShape"/><path fill="#e2b49a" d="M604.52,2808.85h1287.27l-18.46-64.35l-43.42-152.42c-30.76-107.59-137.65-174.92-248.05-156.11      l-55.73,9.67c-4.22,0.7-8.26,1.06-12.31,1.06c-24.61,0-47.99-12.31-61.88-33.23c-95.64-143.45-311.87-125.69-382.9,31.47      l-9.5,21.09c-16.75,37.22-60.47,53.86-97.72,37.18l-55.57-24.88c-32.52-14.59-68.74-3.69-88.78,21.98      c-7.39,9.31-12.66,20.57-14.77,33.22l-8.26,48.17c-2.11,11.95-6.68,22.5-13.19,31.29c-1.23,1.59-2.46,3.16-3.69,4.57      c-11.25,13.01-26.54,21.63-43.25,24.62c-4.21,0.88-8.79,1.23-13.18,1.23c-13.94,0-28.08-3.82-40.91-12.38      c-28.94-19.32-67.74-14.51-92.35,10.1l-37.35,37.34C502.41,2726.58,536.48,2808.85,604.52,2808.85z" class="color9ab6e2 svgShape"/><path fill="#342720" d="M693.4,2767.06c7.95-24.46,38.04-47.65,64.64-41.75c3.21,0.71,5.9-0.97,6.99-3.97      c6.06-16.65-1.37-43.34,16.85-53.58c13.83-7.78,33.86-3.09,46.22,5.51c32.12,22.35,31.35,63.96,37.34,98.7      c0.71,4.12,6.83,5.57,9.49,2.5c6.88-7.94,11.49-18.31,16.78-27.31c7.38-12.54,14.96-25.06,23.8-36.63      c5.55-7.26,14.18-19.56,24.04-21.18c12.71-2.09,11.8,20.65,10.15,28.22c-4.08,18.67-14.6,35.04-19.47,53.4      c-0.75,2.84,0.94,6.33,3.97,6.99c7.98,1.74,14.97-1.27,21.49-5.75c8.19-5.63,14.31-10.89,24.28-13.16      c13.96-3.17,36.63-3.12,44.59-17.77c2.83-5.2,2.01-11.71,1.88-17.37c-0.25-11.04-1.34-22.05-1.42-33.11      c-0.14-21.67,4.78-42.29,15.1-61.37c16.62-30.71,43.27-57.22,70.97-78.11c27.45-20.71,58.65-36.82,92.05-45.33      c63.62-16.21,136.5-1.39,177,53.45c17.71,23.98,28.14,52.64,32.67,81.97c5.29,34.26,1.15,69.53-2.98,103.69      c-2.58,21.37-6.12,42.69-10.79,63.74H698.04C690.95,2796.68,688.43,2782.34,693.4,2767.06z" opacity=".15" class="color202234 svgShape"/><path fill="#fff7f2" d="M1248.18,2362.68c-17.62,10.37-39.02,12.31-58.5,17.26c-16.85,4.28-32.43,11.2-45.79,22.45      c-20.39,17.16-32.13,41.6-45.75,63.94c-16.34,26.8-38.81,53.18-69.9,62.65c-34.27,10.43-63.54-14.14-96.45-19.01      c-26.32-3.9-53.21-0.24-76.13,13.82c-23.09,14.17-40.06,36.47-52.62,60.1c-12.24,23.03-24.5,46.04-49.23,57.55      c-31.9,14.85-67.81,11.01-99.16-2.9c-10.97-4.86-20.64-10.77-30.18-17.34c18.77-4.24,38.9-1.4,55.73,9.84      c12.83,8.56,26.97,12.39,40.91,12.39c4.4,0,8.97-0.35,13.18-1.23c16.71-2.99,32-11.61,43.25-24.62c1.23-1.4,2.46-2.98,3.69-4.57      c6.51-8.79,11.07-19.34,13.19-31.3l8.26-48.17c2.11-12.66,7.38-23.91,14.77-33.22c20.04-25.67,56.26-36.57,88.78-21.98      l55.57,24.88c37.25,16.68,80.97,0.04,97.72-37.18l9.5-21.09c41.12-90.99,130.91-135.15,217.79-128.45      C1277.18,2334.71,1266.2,2352.07,1248.18,2362.68z" opacity=".2" class="colorf2faff svgShape"/><path fill="#f4e2d7" d="M718.13,2808.85h1173.66l-18.46-64.35c-58.01-52.04-138.18-77.53-219.75-63.46l-43.42,7.38l-23.38,3.87      c-5.1,0.88-10.19,1.23-15.12,1.23c-10.9,0-21.62-1.93-31.65-5.8c-16.88-6.5-31.64-17.93-42.19-33.76      c-14.77-22.32-32.17-41.31-51.16-56.96c-7.38-6.33-14.94-11.95-22.85-17.06c-42.73-28.3-91.77-42.36-141-42.89      c-28.82-0.52-57.49,3.69-84.91,12.65c-66.63,21.1-125.7,69.09-158.57,142.05l-11.43,24.97c-20.22,44.83-72.78,64.7-117.43,44.65      l-33.75-15.12l-32.52-14.59c-14.77-6.68-30.24-8.79-45-7.38c-38.33,3.69-72.08,32.17-79.11,73.48L718.13,2808.85z" class="colord7e3f4 svgShape"/><path fill="#d3a68c" d="M877.28,2571.58c0,12.64,10.24,22.88,22.88,22.88c12.64,0,22.88-10.24,22.88-22.88      c0-12.64-10.24-22.88-22.88-22.88C887.53,2548.7,877.28,2558.94,877.28,2571.58z" class="color8ca9d3 svgShape"/><path fill="#e2cec3" d="M1161.06,2648.16c0,12.64,10.24,22.88,22.88,22.88c12.64,0,22.88-10.24,22.88-22.88      c0-12.64-10.24-22.88-22.88-22.88C1171.31,2625.27,1161.06,2635.52,1161.06,2648.16z" class="colorc3d1e2 svgShape"/><path fill="#342720" d="M1204.33,2425.91c0,24.35,19.74,44.1,44.1,44.1c24.36,0,44.1-19.74,44.1-44.1s-19.74-44.1-44.1-44.1      C1224.08,2381.8,1204.33,2401.55,1204.33,2425.91z" opacity=".15" class="color202234 svgShape"/><path fill="#e2cec3" d="M1207.37,2415.45c0,24.36,19.74,44.1,44.1,44.1c24.36,0,44.1-19.74,44.1-44.1s-19.74-44.1-44.1-44.1      C1227.11,2371.34,1207.37,2391.09,1207.37,2415.45z" class="colorc3d1e2 svgShape"/><g><path fill="#e2cec3" d="M878.12,2796.8c0,0,103.19-130.11,56.08-139.08C887.09,2648.75,871.39,2716.05,878.12,2796.8z" class="colorc3d1e2 svgShape"/><path fill="#fff7f2" d="M939.27,2675.47c-4.69-1.59-9.05-2.99-14.02-3.43c-9.87-0.88-21.19,1.13-29.35,7      c-3.2,2.3-5.31,5.14-7.37,8.22c9.27-21.72,24.16-33.64,45.67-29.54c9.89,1.88,13.1,9.15,12.08,19.38      C943.89,2677.12,941.1,2676.09,939.27,2675.47z" opacity=".2" class="colorf2faff svgShape"/><path fill="#342720" d="M899.91,2754.31c4.29-0.94,8.45-2.84,12.38-5.21c-17.09,26.15-34.17,47.7-34.17,47.7      c-1.42-16.99-1.81-33.35-1.15-48.55C882.81,2754.97,891.53,2756.14,899.91,2754.31z" opacity=".15" class="color202234 svgShape"/><path fill="#d3a68c" d="M878.12,2796.8c0,0-65.05-174.98-136.84-130.11C669.5,2711.56,878.12,2796.8,878.12,2796.8z" class="color8ca9d3 svgShape"/><path fill="#fff7f2" d="M827.25,2713.29c-5.38-4.78-8.6-11.33-14.25-15.93c-6.07-4.94-13.12-7.97-20.31-10.89      c-6.86-2.79-14.84-5.24-19.1-11.77c-2.55-3.9-3.7-10.19-1.65-14.75c25.23,3.91,48.39,29.72,66.61,57.96      C834.42,2717.32,830.42,2716.11,827.25,2713.29z" opacity=".2" class="colorf2faff svgShape"/><path fill="#342720" d="M790.66,2740.39c9.2,1.42,21.88,1.62,29.63,7.29c3.91,2.86,6.42,7.2,10.45,10.01      c3.88,2.72,8.48,4.22,13.06,5.3c6.95,1.65,13.84,2.09,20.14,1c9.01,18.92,14.19,32.81,14.19,32.81s-70.29-28.75-115.23-61.64      C772.05,2737.67,781.66,2739,790.66,2740.39z" opacity=".15" class="color202234 svgShape"/><path fill="#d3a68c" d="M878.12,2796.8c0,0,240.03-29.16,179.46-67.3C997.01,2691.37,878.12,2796.8,878.12,2796.8z" class="color8ca9d3 svgShape"/><path fill="#fff7f2" d="M1039.59,2742.98c-11.48,0.91-22.5-3.49-33.8-4.64c-15.57-1.59-28.59,2.93-43.19,7.37      c-5.86,1.78-12.06,3.3-18.26,3.61c36.84-21.46,81.24-38.39,111.71-20.65C1056.33,2735.58,1047.59,2742.35,1039.59,2742.98z" opacity=".2" class="colorf2faff svgShape"/><path fill="#342720" d="M947.13,2783.25c7.28-0.45,14.6-0.92,21.76-2.36c7.47-1.51,14.72-3.88,22.17-5.49      c4.62-1,9.31-1.41,13.99-1.49c-55.13,14.15-126.93,22.9-126.93,22.9s11.17-9.84,28.24-22.38c0.61,1.09,1.38,2.13,2.37,3.08      c4.34,4.17,11.34,4.92,17.03,5.57C932.85,2783.89,940.02,2783.69,947.13,2783.25z" opacity=".15" class="color202234 svgShape"/></g><g><path fill="#d3a68c" d="M2932.51,2695.84c0,0-29.17-211.73,28.91-190.83C3019.5,2525.9,2992.84,2610.76,2932.51,2695.84z" class="color8ca9d3 svgShape"/><path fill="#fff7f2" d="M2932.73,2540.26c2.96-2.32,4.06-6.46,5.4-9.81c1.56-3.91,3.31-7.71,6.36-10.71     c3.75-3.69,8.53-5.68,13.68-6.39c4.96-0.68,10.24-0.05,15.06-1.61c0.19-0.06,0.32-0.19,0.51-0.26     c-3.63-2.51-7.59-4.77-12.31-6.47c-18.72-6.73-28.34,10.75-32.83,37.47C2930.09,2541.89,2931.54,2541.19,2932.73,2540.26z" opacity=".2" class="colorf2faff svgShape"/><path fill="#342720" d="M2988.15,2541.76c-0.23,15.8-0.9,31.35-5.66,46.55c-2,6.37-4.44,12.79-7.15,18.9     c-2.13,4.8-4.94,9.68-9.42,12.64c-9.69,6.4-21.09-0.15-27.99-7.57c-4.24-4.56-7.87-10.3-12.67-14.11     c0.51,48.57,7.26,97.65,7.26,97.65c45.85-64.66,72-129.02,56.5-165.42C2988.22,2534.13,2988.2,2538.13,2988.15,2541.76z" opacity=".15" class="color202234 svgShape"/><path fill="#d3a68c" d="M2928.68,2693.79c0,0,118.76-208.85,200.69-137.03C3211.3,2628.57,2928.68,2693.79,2928.68,2693.79z" class="color8ca9d3 svgShape"/><path fill="#fff7f2" d="M3007.64,2589.58c3.3,0.47,6.73,0.72,10.06,0.65c0.21,0,0.41-0.01,0.62-0.01c-0.31-0.08,2.88-0.63,3.35-0.8     c3.31-1.16,6.06-3.12,8.62-5.47c5.01-4.6,9.18-9.82,15.13-13.29c13.16-7.69,29.24-9.09,43.9-12.01c6.49-1.29,17.62-1.79,20.3-9.1     c0.55-1.51,0.55-2.98,0.26-4.42c-33.64-12.26-70.99,11.94-103.03,44.29C3007.12,2589.46,3007.37,2589.54,3007.64,2589.58z" opacity=".2" class="colorf2faff svgShape"/><path fill="#342720" d="M3126.43,2610.36c-11.01,7.32-23.24,11.38-36.45,11.59c-6.89,0.11-14.01-0.48-20.79,1.06     c-6.81,1.54-11.73,5.21-16.3,10.33c-8.53,9.55-16.45,17.97-28.51,23.01c-12.56,5.26-26.37,6.15-39.84,5.77     c-5.48-0.16-10.75-0.83-16.17-1.41c-4.14-0.44-9.62-1.23-13.47,0.88c-4.98,2.73-4.96,11.22-4.09,16.04     c0.62,3.41,1.93,6.64,3.75,9.56c56.76-15.29,187.32-55.52,189.64-102.36C3140.34,2594.97,3136.21,2603.85,3126.43,2610.36z" opacity=".15" class="color202234 svgShape"/><g fill="none"><path fill="#e2b49a" d="M3095.79,2808.85H2070.53l14.7-51.25l34.59-121.39c24.5-85.69,109.63-139.32,197.57-124.34l44.38,7.7      c3.36,0.56,6.58,0.84,9.8,0.84c19.6,0,38.22-9.8,49.29-26.47c76.17-114.26,248.4-100.11,304.96,25.07l7.56,16.8      c13.34,29.65,48.16,42.89,77.83,29.62l44.26-19.81c25.9-11.62,54.75-2.94,70.71,17.5c5.88,7.42,10.09,16.38,11.76,26.46      l6.58,38.37c1.68,9.52,5.32,17.92,10.51,24.92c0.98,1.26,1.96,2.52,2.94,3.64c8.96,10.36,21.14,17.22,34.44,19.61      c3.36,0.7,7,0.98,10.5,0.98c11.1,0,22.36-3.04,32.58-9.86c23.05-15.39,53.96-11.55,73.55,8.04l29.74,29.74      C3177.12,2743.32,3149.98,2808.85,3095.79,2808.85z" class="color9ab6e2 svgShape"/><path fill="#342720" d="M3025,2775.57c-6.33-19.48-30.29-37.95-51.48-33.26c-2.55,0.57-4.7-0.77-5.57-3.16      c-4.83-13.26,1.09-34.52-13.42-42.68c-11.02-6.19-26.97-2.46-36.81,4.39c-25.58,17.8-24.97,50.95-29.74,78.61      c-0.57,3.28-5.44,4.44-7.56,1.99c-5.48-6.33-9.15-14.59-13.36-21.75c-5.87-9.98-11.92-19.96-18.96-29.17      c-4.42-5.78-11.29-15.58-19.14-16.87c-10.12-1.66-9.4,16.45-8.08,22.48c3.25,14.87,11.63,27.91,15.51,42.53      c0.6,2.26-0.75,5.04-3.16,5.56c-6.36,1.39-11.92-1.01-17.12-4.58c-6.52-4.48-11.4-8.67-19.34-10.48      c-11.12-2.53-29.17-2.48-35.51-14.16c-2.25-4.14-1.6-9.32-1.5-13.83c0.2-8.8,1.07-17.57,1.13-26.37      c0.11-17.26-3.8-33.68-12.03-48.88c-13.24-24.46-34.47-45.57-56.53-62.21c-21.86-16.49-46.71-29.33-73.31-36.1      c-50.67-12.91-108.71-1.11-140.97,42.57c-14.11,19.1-22.41,41.93-26.02,65.29c-4.21,27.29-0.91,55.37,2.37,82.59      c2.05,17.02,4.88,34,8.59,50.77h558.31C3026.95,2799.16,3028.96,2787.74,3025,2775.57z" opacity=".15" class="color202234 svgShape"/><path fill="#fff7f2" d="M2583.13,2453.49c14.04,8.26,31.08,9.81,46.6,13.75c13.42,3.41,25.83,8.92,36.47,17.88      c16.24,13.67,25.59,33.14,36.44,50.93c13.01,21.35,30.91,42.36,55.68,49.89c27.3,8.31,50.61-11.26,76.82-15.14      c20.96-3.1,42.38-0.19,60.63,11.01c18.39,11.28,31.9,29.05,41.91,47.86c9.75,18.34,19.51,36.67,39.21,45.83      c25.41,11.82,54.01,8.77,78.98-2.31c8.74-3.87,16.44-8.58,24.04-13.81c-14.95-3.37-30.98-1.11-44.39,7.84      c-10.22,6.82-21.48,9.87-32.58,9.87c-3.5,0-7.15-0.28-10.5-0.98c-13.31-2.38-25.48-9.24-34.44-19.61      c-0.98-1.12-1.96-2.38-2.94-3.64c-5.18-7-8.82-15.41-10.51-24.93l-6.58-38.37c-1.68-10.08-5.88-19.04-11.76-26.46      c-15.96-20.44-44.81-29.12-70.71-17.5l-44.26,19.81c-29.67,13.28-64.49,0.03-77.83-29.61l-7.56-16.8      c-32.75-72.47-104.26-107.64-173.46-102.31C2560.04,2431.22,2568.78,2445.04,2583.13,2453.49z" opacity=".2" class="colorf2faff svgShape"/><path fill="#f4e2d7" d="M3005.3,2808.85h-934.77l14.7-51.25c46.21-41.45,110.05-61.75,175.02-50.55l34.59,5.88l18.62,3.08      c4.06,0.7,8.12,0.98,12.04,0.98c8.68,0,17.22-1.54,25.2-4.62c13.44-5.18,25.2-14.28,33.6-26.89      c11.76-17.78,25.63-32.9,40.75-45.36c5.88-5.04,11.9-9.52,18.2-13.58c34.03-22.54,73.09-33.74,112.3-34.16      c22.96-0.42,45.78,2.94,67.63,10.08c53.07,16.81,100.11,55.03,126.3,113.14l9.1,19.89c16.1,35.71,57.96,51.53,93.53,35.57      l26.88-12.04l25.9-11.62c11.76-5.32,24.09-7,35.85-5.88c30.53,2.94,57.41,25.62,63.01,58.53L3005.3,2808.85z" class="colord7e3f4 svgShape"/><path fill="#d3a68c" d="M2878.54,2619.87c0,10.06-8.16,18.22-18.22,18.22c-10.06,0-18.22-8.16-18.22-18.22      c0-10.07,8.16-18.23,18.22-18.23C2870.38,2601.65,2878.54,2609.81,2878.54,2619.87z" class="color8ca9d3 svgShape"/><path fill="#e2cec3" d="M2652.52,2680.86c0,10.07-8.16,18.22-18.22,18.22c-10.07,0-18.22-8.16-18.22-18.22      c0-10.07,8.16-18.23,18.22-18.23C2644.36,2662.64,2652.52,2670.8,2652.52,2680.86z" class="colorc3d1e2 svgShape"/><path fill="#342720" d="M2618.06,2503.85c0,19.4-15.73,35.12-35.12,35.12c-19.4,0-35.13-15.72-35.13-35.12      c0-19.4,15.73-35.13,35.13-35.13C2602.33,2468.72,2618.06,2484.45,2618.06,2503.85z" opacity=".15" class="color202234 svgShape"/><path fill="#e2cec3" d="M2615.64,2495.52c0,19.4-15.73,35.12-35.12,35.12c-19.4,0-35.12-15.72-35.12-35.12      c0-19.4,15.72-35.12,35.12-35.12C2599.92,2460.39,2615.64,2476.12,2615.64,2495.52z" class="colorc3d1e2 svgShape"/><g fill="none"><path fill="#e2cec3" d="M2877.88,2799.25c0,0-82.19-103.63-44.67-110.77C2870.73,2681.33,2883.23,2734.93,2877.88,2799.25z" class="colorc3d1e2 svgShape"/><path fill="#fff7f2" d="M2829.17,2702.61c3.74-1.27,7.2-2.38,11.16-2.73c7.86-0.7,16.88,0.9,23.38,5.58      c2.55,1.84,4.23,4.1,5.87,6.55c-7.38-17.3-19.24-26.79-36.37-23.53c-7.88,1.5-10.43,7.29-9.62,15.44      C2825.49,2703.93,2827.71,2703.11,2829.17,2702.61z" opacity=".2" class="colorf2faff svgShape"/><path fill="#342720" d="M2860.52,2765.41c-3.42-0.75-6.73-2.26-9.86-4.15c13.61,20.83,27.21,37.99,27.21,37.99      c1.13-13.53,1.44-26.56,0.92-38.67C2874.14,2765.93,2867.19,2766.87,2860.52,2765.41z" opacity=".15" class="color202234 svgShape"/><path fill="#d3a68c" d="M2877.88,2799.25c0,0,51.81-139.36,108.99-103.63C3044.04,2731.36,2877.88,2799.25,2877.88,2799.25z" class="color8ca9d3 svgShape"/><path fill="#fff7f2" d="M2918.39,2732.74c4.28-3.8,6.85-9.03,11.35-12.69c4.84-3.94,10.45-6.35,16.18-8.67      c5.47-2.22,11.82-4.17,15.22-9.37c2.03-3.11,2.95-8.11,1.32-11.74c-20.1,3.12-38.54,23.67-53.05,46.17      C2912.68,2735.95,2915.86,2734.99,2918.39,2732.74z" opacity=".2" class="colorf2faff svgShape"/><path fill="#342720" d="M2947.53,2754.32c-7.33,1.13-17.42,1.29-23.6,5.8c-3.11,2.28-5.12,5.74-8.32,7.98      c-3.09,2.17-6.76,3.36-10.4,4.22c-5.54,1.32-11.02,1.67-16.04,0.8c-7.17,15.07-11.3,26.13-11.3,26.13s55.99-22.9,91.78-49.1      C2962.36,2752.16,2954.7,2753.22,2947.53,2754.32z" opacity=".15" class="color202234 svgShape"/><path fill="#d3a68c" d="M2877.88,2799.25c0,0-191.18-23.23-142.93-53.6C2783.18,2715.28,2877.88,2799.25,2877.88,2799.25z" class="color8ca9d3 svgShape"/><path fill="#fff7f2" d="M2749.27,2756.38c9.14,0.72,17.92-2.78,26.92-3.69c12.4-1.26,22.77,2.33,34.4,5.87      c4.67,1.42,9.61,2.63,14.54,2.88c-29.34-17.09-64.7-30.57-88.97-16.45C2735.94,2750.49,2742.9,2755.88,2749.27,2756.38z" opacity=".2" class="colorf2faff svgShape"/><path fill="#342720" d="M2822.91,2788.46c-5.8-0.36-11.63-0.73-17.33-1.88c-5.95-1.2-11.73-3.09-17.66-4.37      c-3.68-0.8-7.41-1.12-11.14-1.19c43.91,11.27,101.1,18.24,101.1,18.24s-8.9-7.84-22.49-17.82c-0.48,0.87-1.1,1.69-1.89,2.45      c-3.46,3.32-9.03,3.92-13.56,4.44C2834.28,2788.97,2828.57,2788.81,2822.91,2788.46z" opacity=".15" class="color202234 svgShape"/></g></g></g><path fill="#e2b49a" d="M907.83 2219.1c0 0-31.73-52.49-17.23-80.91 14.5-28.42 13.75-39.63 13.75-39.63s32.82 24.47 34.56 56.28c1.74 31.81-29.18 62.16-29.18 62.16s13.28-29.08 6.36-60.11C916.1 2156.9 911.34 2177.15 907.83 2219.1zM866.79 2391.38c0 0-87.51-33.59-96.66-81.49-9.15-47.9-20.57-60.73-20.57-60.73s62.56-1.24 94.49 35.51c31.93 36.75 23.08 102.39 23.08 102.39s-11.25-47.54-48.69-78.51C818.44 2308.55 831.69 2337.47 866.79 2391.38zM3074.83 2509.11c0 0-31.73-52.49-17.22-80.9 14.5-28.42 13.75-39.63 13.75-39.63s32.82 24.47 34.56 56.28c1.74 31.81-29.18 62.16-29.18 62.16s13.28-29.08 6.36-60.11C3083.1 2446.91 3078.34 2467.16 3074.83 2509.11zM3156.74 2669.48c0 0 9.46-60.6 38.84-73.03 29.38-12.43 36.02-21.5 36.02-21.5s9.39 39.85-9.73 65.32c-19.12 25.48-62.33 28.84-62.33 28.84s28.87-13.73 43.53-41.94C3203.08 2627.17 3186.4 2639.62 3156.74 2669.48z" class="color9ab6e2 svgShape"/><g><path fill="#7b4d32" d="M2345.45,655.95H1108.67c-64.77,0-117.27,52.5-117.27,117.27v1926.58c0,64.77,52.5,117.27,117.27,117.27     h1236.78c64.76,0,117.26-52.51,117.26-117.27V773.21C2462.71,708.45,2410.21,655.95,2345.45,655.95z" class="color40327b svgShape"/><path fill="#342720" d="M2397.06,1543.43c-11.93,94.21-12.06,189.38-16.64,284.1c-4.12,85.43-10.07,174.19-40.77,254.89     c-16.12,42.38-39.08,82.89-73.35,113.22c-28.95,25.63-64.26,41.82-101.29,51.99c-80.51,22.12-165.67,20.88-244.64,49.84     c-23.4,8.58-44.87,20.18-66.62,32.22c-27.17,15.03-54.45,29.88-82.14,43.94c-54.73,27.8-111.31,52.81-170.65,69.02     c-109.89,30.02-232.81,24.12-327.37-44.96c-78.54-57.38-129.33-143.33-187.73-219.18c-26.24-34.08-54.47-69.07-89.18-94.95     c-1.73-1.29-3.52-2.5-5.27-3.75v237.25c14.69,44.42,36,87.03,63.98,123.66c20.3,26.57,43.22,51.31,59.93,80.45     c7.94,13.85,14.6,28.58,17.97,44.23c2.47,11.45,4.27,23.02,6.29,34.56c3.1,17.71,7.52,33.6,22.69,44.69     c26.66,19.49,62.67,27.12,94.46,32.47c43.72,7.36,87.13,6.41,131.17,3.15c43.18-3.21,86.43-5.43,129.7-6.98     c88.8-3.17,177.66-3.38,266.5-3.39c87.66-0.01,175.66-3.99,263.17,2.86c42.25,3.31,83.99,9.83,126.12,14.07     c38.47,3.87,75.94,2.61,113.86-5.04c28.97-5.84,57.95-14.6,83.79-29.2c12.9-7.29,25.16-16.3,34.74-27.71     c10.42-12.41,15.84-27.5,20.65-42.78c11.39-36.2,14.75-74.05,21.77-111.18c3.47-18.36,7.89-36.59,14.32-54.15     c0.06-0.18,0.15-0.34,0.21-0.52v-1089.9C2423.96,1391.8,2406.55,1468.53,2397.06,1543.43z" opacity=".2" class="color202234 svgShape"/><path fill="#ffffff" d="M2353.45,2635.3H1138.14c0,0-31.56-97.1-61.25-291.45c-13.71-89.75-27.03-200.23-36.65-331.47      c-3.69-50.19-6.83-103.42-9.25-159.68c-4.34-100.71-6.35-211.15-4.99-331.33c0.59-51.91,1.81-105.65,3.74-161.19      c3.64-104.52,9.8-215.45,19.06-332.82c5.92-74.97,13.1-152.56,21.69-232.78c2.98-27.88,18.24-52.38,46.28-52.38h1227.6      c1.43,0,2.81,0.06,4.12,0.18c27.18,2.41,38.34,28.83,41.15,57.46C2487.89,1805.08,2353.45,2635.3,2353.45,2635.3z" class="colorfff svgShape"/><path fill="#342720" d="M2353.45,2635.3h-878.02c12.69-35.68,29.92-68.92,51.86-100.12c44.23-62.86,99.02-117.96,121.97-193.29      c10.22-33.52,10.7-69.05,22.62-102.06c7.86-21.74,19.83-41.99,35.83-58.75c32.3-33.81,76.9-52.33,121.24-64.46      c95.18-26.04,198.97-24.59,290.22-64.45c38.98-17.03,72.78-44.09,90.6-83.48c26.17-57.87,15.34-127.48-0.31-186.46      c-22.12-83.32-65.23-161.01-76.72-247.11c-6.22-46.62-2.48-95.45,13.03-139.98c16.56-47.55,39.91-92.45,55.35-140.42      c13.89-43.1,21-89.44,6.95-133.47c-12.21-38.24-39.29-74.3-69.07-100.97c-52.35-46.9-122.02-67.73-190.11-78.52      c-75.5-11.99-152.24-12.48-228.44-15.88c-64.89-2.9-135.25-4.59-195.79-30.65c-59.33-25.53-115.65-64.76-160.36-111.32      c-11.63-12.11-23.8-26.27-34.22-41.7h1014.28c1.43,0,2.81,0.06,4.12,0.18c26.69,2.53,33.01,29.89,41.15,57.46      C2487.89,1805.08,2353.45,2635.3,2353.45,2635.3z" opacity=".2" class="color202234 svgShape"/><path fill="#7b4d32" d="M2006.22,772.45c0,8.58-1.23,16.8-3.56,24.52c-71.97,20.11-169.45,32.37-276.85,32.37     c-107.41,0-204.88-12.26-276.85-32.37c-2.33-7.72-3.56-15.94-3.56-24.52c0-49.04,39.72-88.77,88.77-88.77h1.59     c2.33-27.71,10.55-53.82,23.42-77c32.62-58.36,95.02-97.84,166.63-97.84c71.6,0,133.89,39.48,166.5,97.84     c12.87,23.18,21.21,49.29,23.54,77h1.47C1966.37,683.68,2006.22,723.41,2006.22,772.45z" class="color40327b svgShape"/><path fill="#342720" d="M1917.32,683.68h-1.47c-2.33-27.71-10.67-53.82-23.54-77c-32.61-58.36-94.9-97.84-166.5-97.84     c-71.61,0-134.01,39.48-166.63,97.84c-1.1,1.97-1.95,4.08-2.98,6.09c6-0.28,11.97-1.08,17.51-2.13     c20.26-3.81,39.83-10.92,58.93-18.53c17.54-6.99,34.76-14.92,52.67-20.94c25.24-8.48,52.29-13.3,78.97-11.88     c22.6,1.2,46.39,6.52,64.74,20.44c7.55,5.72,14.19,13.2,16.69,22.53c2.62,9.77-0.15,19.28-3.79,28.36     c-4.38,10.92-5.91,19.52,2.84,28.99c7.02,7.6,16.85,11.92,26.44,15.29c18.3,6.44,38.91,10.24,53.56,23.94     c11.67,10.92,19.84,27.63,16.83,43.8c-2.64,14.23-13.24,25.29-24.47,33.6c-27.4,20.25-62,28.47-95.37,31.05     c-61.1,4.72-122.57-2.05-183.56,4.89c-17.71,2.01-35.05,6.01-52.44,9.73c43.64,4.75,90.71,7.44,140.05,7.44     c107.41,0,204.88-12.26,276.85-32.37c2.33-7.72,3.56-15.94,3.56-24.52C2006.22,723.41,1966.37,683.68,1917.32,683.68z" opacity=".15" class="color202234 svgShape"/><g fill="none"><path fill="#e2b49a" d="M1262.03 1393.38c34.59 0 69.17 0 103.76 0 6.75 0 12.45-6.46 12.77-14.4.31-7.95-4.86-14.37-11.58-14.38-34.48 0-68.96 0-103.44 0-6.73 0-12.54 6.42-12.96 14.38C1250.15 1386.93 1255.29 1393.38 1262.03 1393.38zM1417.33 1393.38c152.47 0 304.94 0 457.41 0 6.75 0 12.12-6.46 12.01-14.4-.11-7.95-5.66-14.37-12.38-14.38-152 0-304.01 0-456.01 0-6.72 0-12.43 6.42-12.72 14.38C1405.35 1386.93 1410.58 1393.38 1417.33 1393.38zM2243.4 1364.6c-107.27 0-214.55 0-321.82 0-6.72 0-12.06 6.42-11.92 14.38.13 7.95 5.69 14.4 12.44 14.4 107.6 0 215.21 0 322.81 0 6.74 0 11.88-6.46 11.46-14.4C2255.92 1371.03 2250.11 1364.61 2243.4 1364.6zM1780.48 1446.44c-173.62 0-347.23 0-520.85 0-6.77 0-12.55 6.5-12.87 14.53-.33 8.03 4.93 14.56 11.72 14.56 174.02 0 348.05 0 522.07 0 6.8.01 12.27-6.52 12.25-14.56C1792.77 1452.94 1787.25 1446.44 1780.48 1446.44zM2247.3 1446.44c-140.38 0-280.77 0-421.15 0-6.78 0-12.23 6.5-12.2 14.53.04 8.03 5.57 14.56 12.37 14.56 140.71 0 281.43 0 422.14 0 6.79.01 12.04-6.52 11.72-14.56C2259.84 1452.94 2254.07 1446.44 2247.3 1446.44z" class="color9ab6e2 svgShape"/><g fill="none"><path fill="#e2b49a" d="M2252.97 1612.86c-35.15 0-70.31 0-105.47 0-6.86 0-12.25 6.6-12.07 14.76.18 8.15 5.9 14.77 12.76 14.77 35.22 0 70.43 0 105.65 0 6.87 0 12.23-6.61 11.99-14.77C2265.58 1619.47 2259.82 1612.87 2252.97 1612.86zM2095.12 1612.86c-154.98 0-309.95 0-464.93 0-6.85 0-12.46 6.6-12.53 14.76-.07 8.15 5.45 14.77 12.31 14.77 155.25 0 310.49 0 465.74 0 6.87 0 12.3-6.61 12.12-14.77C2107.66 1619.47 2101.97 1612.87 2095.12 1612.86zM1253.08 1642.39c109.56 0 219.12 0 328.68 0 6.87 0 12.49-6.61 12.57-14.77.07-8.15-5.41-14.76-12.27-14.76-109.37 0-218.74 0-328.11 0-6.86 0-12.61 6.6-12.85 14.76C1240.85 1635.77 1246.22 1642.39 1253.08 1642.39zM1726.22 1558.89c175.03 0 350.07 0 525.1 0 6.83 0 12.16-6.57 11.88-14.68-.27-8.11-6.01-14.66-12.84-14.66-174.7 0-349.4 0-524.09 0-6.82 0-12.36 6.55-12.38 14.66C1713.87 1552.32 1719.39 1558.89 1726.22 1558.89zM1255.61 1558.89c141.53 0 283.06 0 424.59 0 6.83 0 12.39-6.57 12.42-14.68.03-8.11-5.47-14.66-12.29-14.66-141.26 0-282.52 0-423.77 0-6.81 0-12.57 6.55-12.84 14.66C1243.45 1552.32 1248.77 1558.89 1255.61 1558.89z" class="color9ab6e2 svgShape"/></g><g fill="none"><path fill="#e2b49a" d="M1250.29 1737.52c35.41 0 70.83 0 106.24 0 6.9 0 12.65-6.65 12.84-14.84.19-8.19-5.25-14.83-12.14-14.83-35.35 0-70.7 0-106.05 0-6.89-.01-12.67 6.64-12.93 14.83C1237.99 1730.87 1243.39 1737.52 1250.29 1737.52zM1409.3 1737.52c156.11 0 312.23 0 468.34 0 6.91 0 12.44-6.65 12.38-14.84-.06-8.19-5.71-14.83-12.6-14.83-155.84 0-311.68 0-467.52 0-6.89-.01-12.62 6.64-12.79 14.83C1396.94 1730.87 1402.4 1737.52 1409.3 1737.52zM2255.75 1707.85c-109.98 0-219.96 0-329.94 0-6.89-.01-12.42 6.64-12.34 14.83.07 8.19 5.74 14.84 12.64 14.84 110.17 0 220.34 0 330.51 0 6.9 0 12.31-6.65 12.05-14.84C2268.43 1714.48 2262.65 1707.85 2255.75 1707.85zM1781.08 1791.99c-177.48 0-354.97 0-532.46 0-6.93 0-12.75 6.66-13.02 14.87-.27 8.21 5.13 14.87 12.08 14.87 177.82 0 355.63 0 533.45 0 6.94.01 12.55-6.65 12.53-14.87C1793.64 1798.65 1788.01 1791.99 1781.08 1791.99z" class="color9ab6e2 svgShape"/></g><g fill="none"><path fill="#e2b49a" d="M1242.11 1983.11c35.99 0 71.98 0 107.97 0 7.02 0 12.89-6.64 13.12-14.84.23-8.2-5.26-14.85-12.27-14.85-35.92 0-71.83 0-107.74 0-7-.01-12.92 6.65-13.22 14.85C1229.65 1976.47 1235.09 1983.11 1242.11 1983.11zM1403.71 1983.11c158.65 0 317.3 0 475.95 0 7.01 0 12.64-6.64 12.56-14.84-.09-8.2-5.82-14.85-12.82-14.85-158.32 0-316.63 0-474.95 0-6.99-.01-12.85 6.65-13.06 14.85C1391.18 1976.47 1396.69 1983.11 1403.71 1983.11zM2263.74 1953.42c-111.73 0-223.45 0-335.18 0-7-.01-12.6 6.65-12.51 14.85.09 8.2 5.86 14.84 12.87 14.84 111.96 0 223.93 0 335.89 0 7.02 0 12.46-6.64 12.15-14.84C2276.66 1960.07 2270.74 1953.42 2263.74 1953.42zM1781.55 2037.44c-180.48 0-360.96 0-541.45 0-7.04 0-13 6.63-13.31 14.79-.31 8.17 5.16 14.79 12.22 14.78 180.87 0 361.73 0 542.6 0 7.06 0 12.76-6.61 12.73-14.78C1794.32 2044.07 1788.59 2037.44 1781.55 2037.44zM2266.82 2037.44c-145.94 0-291.87 0-437.81 0-7.04 0-12.72 6.63-12.69 14.79.03 8.17 5.78 14.79 12.85 14.78 146.25 0 292.49 0 438.74 0 7.07 0 12.53-6.61 12.22-14.78C2279.83 2044.07 2273.86 2037.44 2266.82 2037.44z" class="color9ab6e2 svgShape"/><g fill="none"><path fill="#e2b49a" d="M1233.43 2233.78c113.86 0 227.73 0 341.59 0 7.13 0 12.98-6.51 13.05-14.57.07-8.05-5.64-14.59-12.76-14.59-113.68 0-227.36 0-341.04 0-7.12 0-13.1 6.54-13.34 14.59C1220.7 2227.26 1226.29 2233.79 1233.43 2233.78zM1725.15 2150.93c181.92 0 363.84 0 545.76 0 7.1 0 12.63-6.57 12.33-14.69-.29-8.12-6.27-14.71-13.36-14.71-181.56 0-363.12 0-544.68 0-7.08 0-12.84 6.58-12.87 14.71C1712.32 2144.35 1718.05 2150.93 1725.15 2150.93zM1236.01 2150.93c147.1 0 294.2 0 441.3 0 7.1 0 12.88-6.57 12.92-14.69.03-8.12-5.69-14.71-12.77-14.71-146.81 0-293.62 0-440.42 0-7.08 0-13.07 6.58-13.36 14.71C1223.38 2144.35 1228.91 2150.93 1236.01 2150.93z" class="color9ab6e2 svgShape"/></g></g></g><g fill="none"><path fill="#cc7644" d="M1292.84 1011.2v-85.52h10.66v85.52H1292.84zM1400.95 1011.2l-40.28-75.11c.25 10.04.37 22.31.37 32.35v42.76h-10.66v-85.52h16.36l40.28 75.11c-.25-10.04-.37-22.31-.37-32.35v-42.76h10.41l.25 85.52H1400.95zM1519.37 949.35h-11.4c-.99-10.78-7.31-16.98-18.09-16.98-9.05 0-16.24 4.21-16.24 13.14 0 9.29 5.33 13.26 18.35 16.23 18.84 4.34 28.26 12.02 28.26 26.52 0 15-12.89 24.67-29.37 24.67-18.84 0-30.74-9.55-32.6-26.03h11.41c2.48 11.28 10.28 17.6 21.44 17.6 9.79 0 17.72-5.33 17.72-14.25 0-10.42-5.95-15.12-20.95-18.6-15.12-3.47-25.66-9.54-25.66-23.67 0-14.75 12.77-24.05 28.51-24.05C1508.47 923.94 1517.76 934.72 1519.37 949.35zM1625.03 979.59c0 2.73 0 5.21-.25 7.69-1.24 14.25-10.91 25.66-31.86 25.66-20.95 0-30.61-11.41-31.85-25.66-.25-2.48-.25-4.96-.25-7.69v-53.91h10.66v52.92c0 2.73 0 5.33.25 7.56.99 10.78 8.06 18.35 21.19 18.35 13.14 0 20.21-7.56 21.2-18.35.25-2.23.25-4.83.25-7.56v-52.92h10.66V979.59zM1732.92 1011.2h-11.77c-2.36-5.46-3.47-10.91-4.59-21.44-.99-8.8-4.34-14.62-12.77-15.25-1.98-.12-4.09-.12-6.07-.12h-16.11v36.81h-10.66v-85.52h28.01c4.34 0 7.31 0 11.15.49 12.4 1.62 21.32 8.43 21.32 22.81 0 11.28-7.32 17.72-15.25 20.2 6.94 3.22 10.29 11.03 11.03 19.58C1728.21 999.91 1729.45 1006.61 1732.92 1011.2zM1697.97 965.71c3.85 0 5.95 0 8.3-.25 7.93-.74 13.76-5.82 13.76-15.5 0-9.54-4.58-13.88-12.52-15.12-2.36-.37-4.71-.5-8.55-.5h-17.35v31.36H1697.97zM1785.16 980.95l-10.04 30.24h-11.4l30.74-85.52h14.38l29.5 85.52h-11.53l-10.16-30.24H1785.16zM1813.79 972.28l-12.4-38.18-13.26 38.18H1813.79zM1927.13 1011.2l-40.28-75.11c.25 10.04.37 22.31.37 32.35v42.76h-10.66v-85.52h16.36l40.28 75.11c-.25-10.04-.37-22.31-.37-32.35v-42.76h10.41l.25 85.52H1927.13zM2059.07 952.94l.12 1.23h-10.66l-.25-1.23c-2.48-12.27-10.04-20.58-24.29-20.58-17.48 0-28.26 15.25-28.26 35.94 0 21.07 10.66 36.19 27.51 36.19 14.25 0 21.82-8.31 24.29-20.58l.25-1.24h10.66l-.12 1.24c-1.61 15.49-13.14 29.01-35.7 29.01-24.91 0-38.8-19.09-38.8-44.12 0-26.03 16.11-44.87 40.41-44.87C2045.93 923.94 2057.33 936.21 2059.07 952.94zM2158.78 1011.2h-56.89v-85.52h55.65v8.67h-44.99v29.75h41.27v8.68h-41.27v29.74h46.23V1011.2z" class="color4462cc svgShape"/></g><g fill="none"><path fill="#cc7644" d="M1391.03 1116.7c0 35.15-23.52 53.51-49.37 56.61-9.56 1.04-16.8 1.3-27.92 1.3h-20.68v62.55h-46.53V1058.8h67.21c11.11 0 18.35.25 27.92 1.29C1367.51 1063.19 1391.03 1081.54 1391.03 1116.7zM1342.44 1116.7c0-13.44-6.98-20.42-18.87-21.45-3.36-.26-7.5-.26-12.41-.26h-18.09v43.42h18.09c4.91 0 9.05 0 12.41-.25C1335.46 1137.12 1342.44 1130.14 1342.44 1116.7zM1588.79 1147.98c0 57.12-35.67 92.8-91.24 92.8-55.58 0-91.25-35.67-91.25-92.8 0-57.39 35.67-92.8 91.25-92.8C1553.12 1055.18 1588.79 1090.59 1588.79 1147.98zM1541.23 1147.98c0-38-16.8-58.68-43.68-58.68-26.89 0-43.68 20.68-43.68 58.68 0 37.74 16.8 58.68 43.68 58.68C1524.43 1206.66 1541.23 1185.71 1541.23 1147.98zM1753.46 1237.16h-136.74V1058.8h46.53v139.07h90.21V1237.16zM1779.07 1237.16V1058.8h46.53v178.35H1779.07zM2022.31 1117.48l.26 2.59h-46.53l-.51-2.59c-3.88-19.13-15.51-28.18-34.38-28.18-22.23 0-39.03 18.61-39.03 57.12 0 44.97 18.61 60.23 39.29 60.23 18.09 0 29.73-11.12 33.6-30.76l.52-2.59h46.52l-.26 2.59c-4.4 42.91-37.22 64.88-81.94 64.88-47.82 0-86.34-31.02-86.34-91.51 0-62.04 39.81-94.09 88.15-94.09C1992.58 1055.18 2018.69 1082.32 2022.31 1117.48zM2142.26 1237.16h-46.52v-68.24l-62.81-110.11h52.21l35.16 70.56 33.86-70.56h50.93l-62.82 110.11V1237.16z" class="color4462cc svgShape"/></g><g fill="none"><path fill="#cc7644" d="M2100.38,2237.94c-77.02,0-139.52,62.39-139.52,139.52c0,77.02,62.5,139.52,139.52,139.52     c77.02,0,139.52-62.5,139.52-139.52C2239.9,2300.33,2177.4,2237.94,2100.38,2237.94z M2100.38,2501.13     c-68.37,0-123.67-55.41-123.67-123.67c0-68.37,55.3-123.78,123.67-123.78c68.37,0,123.67,55.41,123.67,123.78     C2224.05,2445.72,2168.76,2501.13,2100.38,2501.13z" class="color4462cc svgShape"/><path fill="#cc7644" d="M2100.38,2269.96c-49.35,0-90.72,33.24-103.34,78.54h-0.06v0.24c-2.53,9.15-3.98,18.75-3.98,28.71     c0,59.29,47.98,107.38,107.38,107.38c59.4,0,107.38-48.09,107.38-107.38C2207.76,2318.06,2159.78,2269.96,2100.38,2269.96z      M2100.38,2281.38c42.99,0,79.27,28.21,91.52,67.13h-183.05C2021.11,2309.59,2057.39,2281.38,2100.38,2281.38z M2100.38,2473.42     c-46.62,0-85.35-33.17-94.1-77.13h188.19C2185.73,2440.25,2147,2473.42,2100.38,2473.42z" class="color4462cc svgShape"/><rect width="70.45" height="7.92" x="2043.17" y="2323.47" fill="#cc7644" class="color4462cc svgShape"/><rect width="30.16" height="7.92" x="2125.9" y="2323.47" fill="#cc7644" class="color4462cc svgShape"/><rect width="70.45" height="7.92" x="2043.17" y="2408.17" fill="#cc7644" class="color4462cc svgShape"/><rect width="30.16" height="7.92" x="2125.9" y="2408.17" fill="#cc7644" class="color4462cc svgShape"/><rect width="70.45" height="7.92" x="2085.62" y="2426.37" fill="#cc7644" class="color4462cc svgShape"/><rect width="30.16" height="7.92" x="2043.17" y="2426.37" fill="#cc7644" class="color4462cc svgShape"/></g></g><g><path fill="#4a3326" d="M2515.08,235.34c-1.74,6.38,2.02,12.96,8.39,14.7l0,0c6.4,1.74,12.98-2.03,14.72-8.41l15.37-56.52    c1.74-6.4-2.03-12.98-8.42-14.72l0,0c-6.37-1.73-12.94,2.04-14.68,8.44L2515.08,235.34z" class="color28264a svgShape"/><path fill="#d7a98e" d="M2300.3,1134.5c2.91-4.48,5.78-13.37,3.85-22.82c-0.8-3.93,0.29-39.89-9.9-23.74    c-4.88,17.4-18.57,4.99-20.05,6.9c-2.68,3.48-6.3,5.37-6.73,10.13c-0.37,4.16,0.58,8.37,1.19,12.46    c0.73,4.88,0.94,9.78,1.23,14.71c0.37,6.27,1.78,14.61,1.18,22.2c0.59,0.16,1.02,0.25,1.02,0.25s25.73,56.65,29.31,62.81    c5.94,4.84,29.67-14.98,29.67-14.98C2333.62,1197.86,2312.2,1165.99,2300.3,1134.5z" class="colord7a28e svgShape"/><path fill="#e5ae61" d="M2603.12,1130.64c-69.1-6.09-205.14,182.13-205.14,182.13l-86.76-169.56l-42.25,27.24     c0,0-36.55,260.14,107.33,302.31c80.71,23.66,215.56-156.57,238.22-237.57C2627.81,1187.72,2649.52,1134.73,2603.12,1130.64z" class="colore5ac61 svgShape"/><path fill="#342720" d="M2603.12,1130.64c-21.37-1.88-49.13,14.83-77.3,38.79c-10.53,15.15-26.29,27.18-40.95,39.1     c-12.94,13.54-25.27,27.43-36.4,40.53c-0.74,1.56-1.45,3.15-2.06,4.78c-4.01,10.71-3.12,20.89-1.99,32.05     c1.12,11.12,0.7,21.48-3.71,31.92c-7.19,17.04-21.98,34.9-41.5,36.88c-19.19,1.95-32.76-10.81-47.87-20.3     c-6.94-4.36-14.32-7-22.02-9.65c-6.04-2.08-12.78-4.17-17.67-8.44c-14.13-12.35,9.49-27.39,19.2-31.84     c9.65-4.43,21.76-7.47,29.16-15.5c3.73-4.05,6.37-8.94,8.34-14.09l-57.13-111.65l-42.25,27.24c0,0-36.55,260.14,107.33,302.31     c80.71,23.66,215.56-156.57,238.22-237.57C2627.81,1187.72,2649.52,1134.73,2603.12,1130.64z" opacity=".1" class="color202234 svgShape"/><path fill="#ffb58a" d="M2149.43,2682.23c0,0,18.16-58.57,27.45-57.79c9.3,0.78,27.08,9.52,28.94,15.28       c1.86,5.76-32,59.4-42.79,62.54C2152.25,2705.41,2145.15,2698,2149.43,2682.23z" class="colorf4c095 svgShape"/><path fill="#ffffff" d="M2170.76,2679.63c-0.43-9.95-0.31-19.91-0.01-29.86c0.14-4.82,0.33-9.61,0.16-14.43       c-0.06-1.86-0.13-3.73-0.18-5.58c-9.45,14.29-21.29,52.47-21.29,52.47c-4.28,15.77,2.81,23.18,13.6,20.03       c1.95-0.57,4.67-2.81,7.78-6.09C2170.94,2690.66,2171,2685.15,2170.76,2679.63z" opacity=".2" class="colorfff svgShape"/><path fill="#efdace" d="M2170.6,2651.84c-2.75-2.48-5.22-5.24-7.91-7.78c-14.25,22.79-13.93,38.4-13.93,38.4       c-4.48,16.49,2.94,24.24,14.22,20.95c6.6-1.92,21.43-21.88,32.23-39.33C2186.23,2663.93,2176.56,2657.21,2170.6,2651.84z" class="colorced9ef svgShape"/><path fill="#3a2214" d="M2037.61,2659.63l-5.81-2.34c0,0-5.87,5.33-5.34,9.72c0.53,4.39,18.16,24.98,61.74,49.97      c43.59,24.99,67.64,29.81,71.37,21.62C2163.3,2730.42,2045.15,2688.68,2037.61,2659.63z" class="color17143a svgShape"/><path fill="#593926" d="M2159.57,2738.61c-68.18-15.89-144.76-81.97-125.14-82.52c4.32-0.11,10.75,1.45,18.3,3.79      c26.8,8.38,67.51,26.81,75.68,15.72c10.46-14.2,19.72-11.55,21.21-9.89c0.38,0.43,1.33,1.7,2.72,3.35      c4.06,4.83,11.86,12.88,19.96,12.45c10.88-0.57,12.37-0.48,13.64,5.02C2189.65,2702.66,2184.17,2711.04,2159.57,2738.61z" class="color2a2659 svgShape"/><path fill="#3a2214" d="M2152.34,2669.07c-2.91,3.04-6.89,6.08-10.69,8.24c-9.54,5.39-6.25,13.7-28.74,20.03      c-22.48,6.33-51.48-21.64-59.24-30.77c-4.56-5.38-3-6.59-0.94-6.68c26.8,8.38,67.51,26.81,75.68,15.72      c10.46-14.2,19.72-11.55,21.21-9.89C2150,2666.14,2150.95,2667.42,2152.34,2669.07z" class="color17143a svgShape"/><path fill="#51301d" d="M2557.07,1520.62c-109.16,142.69-397.24,1115.21-397.24,1115.21s23.07,51.38,44.43,23.92     c291.64-374.79,622.15-917.65,588.14-1068.76C2758.39,1439.88,2601.38,1462.68,2557.07,1520.62z" class="color241d51 svgShape"/><path fill="#342720" d="M2792.4,1590.99c-34.01-151.11-191.02-128.31-235.34-70.38c-32.25,42.16-80.12,156.76-131.55,297.29     c4.68,0.08,9.33-0.67,14.12-1.36c6.03-0.87,11.97-0.61,16.99,3.26c14.65,11.28,15.26,31.94,10.37,48.09     c-5.43,17.94-16.43,33.68-21.59,51.69c-2.67,9.33-2.69,19.71-0.72,29.18c1.85,8.86,5.91,16.93,9.95,24.95     c4.56,9.04,8.96,18.17,11.82,27.92c3.49,11.89,4.28,24.43,3.5,36.76c-1.56,24.76-9.2,48.62-11.92,73.23     c-2.08,18.88-6.77,36.93-15.4,53.92c-7.77,15.3-17.83,29.18-28.45,42.6c-10.75,13.59-21.97,26.84-31.78,41.15     c-11.1,16.2-19.26,33.35-25.28,52.02c-14.64,45.46-24.69,92.7-47.59,135.04c-11.31,20.92-25.98,39.96-36.23,61.45     c-4.23,8.87-7.41,18.14-11.98,26.86c-3.98,7.59-8.54,14.89-13.82,21.65c-17.34,22.24-43.13,39.13-72.11,37.5     c-9.96,33.01-15.59,52-15.59,52s23.07,51.37,44.43,23.92C2495.89,2284.96,2826.41,1742.1,2792.4,1590.99z" opacity=".15" class="color202234 svgShape"/><path fill="#ffb58a" d="M2855.59,2717.87c0,0,1.3-71.08-9.22-73.6c-10.52-2.52-33.27,0.64-37.41,6.31      c-4.15,5.66,13.63,77.02,24.37,84.4C2844.07,2742.36,2854.57,2736.79,2855.59,2717.87z" class="colorf4c095 svgShape"/><path fill="#ffffff" d="M2833.06,2707.26c4.09-10.79,7.57-21.81,10.87-32.87c1.6-5.35,3.13-10.7,5.07-15.95      c0.75-2.03,1.5-4.05,2.23-6.08c5.21,19.17,4.37,65.51,4.37,65.51c-1.02,18.92-11.52,24.5-22.26,17.11      c-1.94-1.34-4.11-4.78-6.35-9.54C2828.85,2719.33,2830.78,2713.25,2833.06,2707.26z" opacity=".2" class="colorfff svgShape"/><path fill="#efdace" d="M2843.33,2676.72c3.92-1.73,7.65-3.86,11.53-5.69c7.41,30.27,1.38,47.34,1.38,47.34      c-1.06,19.79-12.04,25.62-23.28,17.89c-6.56-4.51-15.64-31.87-21.18-55.01C2821.74,2684.34,2834.82,2680.46,2843.33,2676.72z" class="colorced9ef svgShape"/><path fill="#3a2214" d="M2930.77,2778.65c0,0,2.26,9.89-5.84,15.85c-20.1,14.79-94.97,15.14-99.68,9.02      c-4.71-6.11-4.88-14.85-4.88-14.85L2930.77,2778.65z" class="color17143a svgShape"/><path fill="#593926" d="M2847.05,2718.42c0,0-22.75-0.35-25.82-9.04c-3.07-8.69-3.14-9.76-4.52-13.19      c-4.36,2.8,2.06,29.27,1.51,42.48c-0.55,13.21-2.33,50.56,5.55,57.75c7.88,7.19,53.09-7.3,53.09-7.3s-8.82-15.55-15.63-34.2      C2854.42,2736.29,2865.11,2719.07,2847.05,2718.42z" class="color2a2659 svgShape"/><path fill="#3a2214" d="M2869.76,2739.93c0,0,8.87-43.14-4.79-43.61c-13.66-0.47-15.97,0.84-22.6,6.55      c-6.64,5.72,5.97,38.35,7.92,41.71C2852.23,2747.93,2869.76,2739.93,2869.76,2739.93z" class="color17143a svgShape"/><path fill="#3a2214" d="M2897.02,2759.75c0,0-19.43,4.87-25.06,16.63c-5.62,11.76-31.47-18.88-27.64-31.72      c3.83-12.84,29.84-8.69,29.84-8.69S2873.32,2759.81,2897.02,2759.75z" class="color17143a svgShape"/><path fill="#ffffff" d="M2892.83,2759.17c0,0-16.33,4.09-21.06,13.98c-4.72,9.88-26.45-15.87-23.23-26.66      c3.22-10.79,25.08-7.3,25.08-7.3S2872.92,2759.22,2892.83,2759.17z" opacity=".2" class="colorfff svgShape"/><path fill="#593926" d="M2930,2785.16c-10.41,11.77-51.48,20.73-61.68,12.08c-10.2-8.65-6.59-47.18,32.49-45.03      C2916.92,2753.09,2937.29,2776.91,2930,2785.16z" class="color2a2659 svgShape"/><path fill="#ffffff" d="M2894.19 2755.31c5.22-.54 9.55.02 13.12 1.33-.9 2.03-1.91 4-3.02 5.93-4.19-1.67-9.63-2.64-15.8-.85-14.18 4.11-14.49 4.69-14.49 4.69S2881.92 2756.57 2894.19 2755.31zM2912.83 2761.32c1.24 1.46.89 3.68-.78 4.62-1.06.59-2.36.5-3.31-.26-.78-.62-1.88-1.41-3.22-2.21 1.1-1.92 2.1-3.88 3.01-5.88C2910.18 2758.65 2911.63 2759.9 2912.83 2761.32z" opacity=".2" class="colorfff svgShape"/><path fill="#593926" d="M2757.45,1582.65c0,0,137.41,549,102.39,1070.17c-1.9,28.29-54.87,20.02-54.87,20.02     s-288.3-783.14-289.65-1073.92C2514.95,1515.56,2757.45,1582.65,2757.45,1582.65z" class="color2a2659 svgShape"/><path fill="#342720" d="M2810.29,2673.45c3.03-19.44-0.27-39.67-4.61-58.64c-4.65-20.32-11.28-40.12-17.66-59.94     c-7.52-23.34-15.11-46.65-22.19-70.13c-7.29-24.17-14.07-48.51-19.6-73.16c-5.1-22.74-10.69-46.51-9.63-69.95     c1.1-24.26,7.58-48.26,5.69-72.66c-1.9-24.58-12.25-48.06-19.85-71.26c-8.01-24.49-17.85-57.12-2.39-81.09     c9.81-15.2,28.32-20.3,45.34-21.81c21.9-1.94,44,0.5,65.85,2.05c4.04,0.29,8.41,0.62,12.95,0.91     c-31.51-294.39-86.74-515.14-86.74-515.14s-242.51-67.09-242.12,16.27c1.34,290.78,289.65,1073.92,289.65,1073.92     S2807.03,2673.16,2810.29,2673.45z" opacity=".25" class="color202234 svgShape"/><g fill="none"><path fill="#ffbf66" d="M2552.52,1146.94c67.94-75.82,200.2-47.24,263.55,23.06c63.35,70.3,45.97,509.31-20.06,506.7      c-66.03-2.61-318.65,93.31-346.37-41.54C2421.91,1500.32,2430.79,1282.8,2552.52,1146.94z" class="colorf7c06b svgShape"/><path fill="#342720" d="M2754.11,1245.8c-2.55,7.24-4.76,14.58-6.32,22.1c-4,19.29-4.9,39.17-2.78,58.75      c2.18,20.17,7.97,38.79,15.56,57.49c13.83,34.03,31.06,71.89,15.67,108.47c-11.61,27.6-39.65,39.64-59.53,60.04      c-5.65,5.8-7.99,11.36-10.34,19.17c-2.77,9.17-4.88,18.55-7.16,27.85c-2.46,10.03-4.96,20.09-8.21,29.9      c-2.54,7.71-5.5,15.89-10.59,22.34c-3.81,4.83-9.25,8.36-15.6,6.9c-8.42-1.94-15.15-10.86-19.21-17.88      c-7.49-12.94-8.4-29.05-9.22-43.63c-0.45-7.88-0.68-15.78-1.46-23.64c-0.78-7.83-2.38-15.59-3.5-23.38      c-2.9-20.02-5.39-40.13-5.54-60.39c-0.15-21.78,2.8-43.43,4.66-65.1c6.18-71.94,9.61-144.07,12.57-216.2      c-2.42,7.49-5.12,14.9-7.91,22.22c-8.34,21.88-16.7,43.41-22.24,66.21c-10.15,41.8-14.04,84.73-17.55,127.5      c-3.29,40.1-11.05,79.11-20.44,118.19c-13.43,55.89-29.44,113.64-30.35,171.48c73.93,23.26,202.26-39.45,251.38-37.5      c47.43,1.88,69.76-224.09,55.1-377.61C2814.33,1291.39,2779.68,1273.48,2754.11,1245.8z" opacity=".15" class="color202234 svgShape"/><path fill="#ff6103" d="M2656.13,1146.98c-5.96-2.32-2.07-12.98-8.02-15.33c-3.1,1.59-19.21,12.82-22.31,14.42        c0.71,4.83,12.12,10.49,12.82,15.31c-65.8,143.39-82.62,268.48-130.86,411.51c8.28,53.2,13.28,106.33,25.45,158.9        c28.91-46.53,51.52-93.62,70.35-145.09c-5.25-139.97,19.84-287.83,49.78-423.94c3.55-2.59,6.54-5.62,10.1-8.22        C2662.82,1151.58,2656.82,1149.96,2656.13,1146.98z" class="colorf15a29 svgShape"/><path fill="#342720" d="M2636.33,1109.27c7.57-1.52,15.3-2.38,23.05-2.4c3.83-0.01,7.83,0.19,11.69,0.88         c-0.58,2.15,0.29,4.56,3.29,5.18c5.55,1.16,11.23,1.78,16.67,3.38c2.13,0.63,4.31,1.44,5.72,2.76         c-0.36,0.9,10.21,16.89-14.75,48.02c-4.71,5.87-15.61-3-7.38-34.08c1.89-7.14-34.68,26.76-42.35,28.55         c-11.41,2.67-24.53-17.56-12.34-31.51c3.97-4.54,7.94-19.6,12.22-23.37C2637.05,1102.36,2629.89,1110.57,2636.33,1109.27z" opacity=".15" class="color202234 svgShape"/><path fill="#d7a98e" d="M2639.16,1066.76l-6.74,37.45c0,0,7.11,50.4,57.31,12.23l-12.06-60.5L2639.16,1066.76z" class="colord7a28e svgShape"/><path fill="#3f2313" d="M2677.67,1055.95l-38.52,10.82l-2.94,23.23c0.92,0.37,1.84,0.72,2.76,1.06           c4.41,1.6,8.91,2.96,13.21,4.83c3.37,1.47,6.73,3.35,9.22,6.12c2.61,2.91,3.94-9.56,4.11-5.68           c0.28,6.38-3.04,11.93-5.39,17.62c-1.51,3.65-2.34,8.57-5.65,11.1c-2.4,1.84-5.55,2.49-8.65,2.43           c8.5,5.41,22.15,5.52,43.9-11.02L2677.67,1055.95z" opacity=".15" class="color33133f svgShape"/><path fill="#d7a98e" d="M2604.88,955.77c0,0-23.45,125.69,23.58,128.79c47.04,3.1,79.45-46.81,79.45-46.81          s19.54-3.05,20.94-26.57c1.13-18.96-10.61-15.57-10.61-15.57s9.17-48.36-24.53-57.93          C2660,928.12,2604.88,955.77,2604.88,955.77z" class="colord7a28e svgShape"/><path fill="#3f2313" d="M2673.88 1020.99c.51 3.06-2.84 6.16-7.46 6.93-4.63.77-8.8-1.09-9.3-4.15-.5-3.06 2.84-6.16 7.47-6.93C2669.21 1016.07 2673.37 1017.93 2673.88 1020.99zM2621.45 1021.12c.51 3.06-2.84 6.16-7.47 6.93-4.63.77-8.79-1.09-9.3-4.15-.51-3.06 2.84-6.16 7.47-6.93C2616.78 1016.2 2620.94 1018.06 2621.45 1021.12z" opacity=".05" class="color33133f svgShape"/><path fill="#51301d" d="M2623.76 992.37c-.45 0-.88-.23-1.12-.65-.21-.36-5.19-8.64-17.48-3.24-.66.29-1.42-.01-1.7-.66-.29-.65.01-1.42.66-1.71 14.49-6.37 20.71 4.22 20.77 4.33.35.62.13 1.41-.49 1.76C2624.2 992.32 2623.98 992.37 2623.76 992.37zM2648.85 992.68c-.16 0-.32-.03-.48-.1-.66-.27-.99-1.02-.72-1.68.05-.12 4.78-11.39 21.78-7.7.7.15 1.14.84.99 1.54-.15.7-.83 1.14-1.54.99-14.89-3.24-18.8 6.04-18.83 6.13C2649.85 992.37 2649.37 992.68 2648.85 992.68zM2634.02 1025.01c-.45 0-.89-.06-1.32-.19-2.74-.81-3.89-3.9-3.94-4.03-.14-.38-.09-.81.13-1.15 4.66-7.11 3.46-16.74 3.45-16.83-.09-.71.41-1.36 1.11-1.45.72-.1 1.36.41 1.45 1.11.06.42 1.27 10.16-3.46 17.98.37.68 1.06 1.62 2 1.89.87.25 1.94-.09 3.17-1.02.57-.43 1.38-.32 1.81.25.43.57.32 1.38-.25 1.81C2636.74 1024.47 2635.35 1025.02 2634.02 1025.01zM2619.8 1002.79c-.01 4.03-2.26 7.29-5.01 7.28-2.76-.01-4.99-3.28-4.97-7.31.01-4.03 2.26-7.29 5.02-7.28C2617.59 995.49 2619.81 998.76 2619.8 1002.79zM2663.97 1002.92c-.01 4.03-2.26 7.29-5.01 7.28-2.76-.01-4.98-3.29-4.97-7.31.01-4.03 2.26-7.29 5.01-7.28C2661.76 995.62 2663.98 998.89 2663.97 1002.92z" class="color241d51 svgShape"/><path fill="#3f2313" d="M2716,1003.3c0,0,7.56-3.53,9.02,1.8c1.46,5.33-3.31,18.78-10.57,21.87c0,0,13.21-12.68,8.94-20.39          C2719.12,998.87,2716.43,1007,2716,1003.3z" opacity=".05" class="color33133f svgShape"/><path fill="#eaaf5e" d="M2647.96,1135.4c0,0,9.73,34.86,24.51,24.42c14.78-10.45,49.58-42.22,14.08-65.33         c0,0,0,20.33-3.98,25.14c-12.34,14.89-33.41,2.19-33.41,2.19s-17.33-7.72-17.29-23.45c0,0-30.35,43.22-11.72,50.54         C2638.79,1156.22,2647.96,1135.4,2647.96,1135.4z" class="coloreaad5e svgShape"/><path fill="#51301d" d="M2681.49,907.17c-49.72,1.63-26.43-24.85-38.3-14.83c-9.43,7.96,2.78,15.6,8.21,18.41        c-7.35-3.02-66.11-5.99-76.57,38.71c-12.59,53.82,103.56,1.49,103.56,1.49c-7.76,20.7,14.62,43.83,24.33,52.7        c-0.65,12.18-17.39,25.42-24.28,39.12c-9.86,19.57-7.82-5.9-26.75-8.57c-18.93-2.67-55.2,1.14-53.29,18.13        c1.91,16.99,17.52,37.28,37.46,34.08c29.06-4.67,72.61-18.51,75.24-81.04C2731.65,981.83,2729.95,905.58,2681.49,907.17z" class="color241d51 svgShape"/><g fill="none"><path fill="#fcf9f7" d="M2616.7,1045.41c0,0,14.74,6.73,31.29-0.91C2651.72,1051.37,2632.08,1069.2,2616.7,1045.41z" class="colorfcfaf7 svgShape"/><path fill="#3f2313" d="M2635.79,1063.79c-1.37,0-2.26-0.21-2.35-0.23c-0.35-0.08-0.56-0.43-0.48-0.78         c0.08-0.34,0.43-0.56,0.78-0.48c0.05,0.02,5.73,1.29,10.89-3.16c0.28-0.22,0.68-0.19,0.91,0.07c0.23,0.27,0.2,0.68-0.07,0.91         C2641.89,1063.21,2638.13,1063.8,2635.79,1063.79z" opacity=".05" class="color33133f svgShape"/></g></g><g fill="none"><path fill="#d7a98e" d="M2756.08,1670.65c0,0,0.45-19.54,4.76-23.14c10-8.36,23.19-9.04,26.82-7.06       C2774.67,1649.28,2756.08,1670.65,2756.08,1670.65z" class="colord7a28e svgShape"/><path fill="#4b3f38" d="M2805.69,1674.51l-36.42-12.98c-27.1-9.65-56.89,4.49-66.55,31.59l-24.1,67.63        c-3.18,8.93,1.48,18.74,10.4,21.92l0.86,0.31l32.05-89.96c4.13-11.58,12.9-19.08,19.56-16.7l76.34,27.2        c6.67,2.37,8.72,13.73,4.6,25.31l-32.05,89.96l0.86,0.31c8.93,3.18,18.74-1.48,21.92-10.4l24.1-67.63        C2846.93,1713.96,2832.78,1684.16,2805.69,1674.51z" class="color383b4b svgShape"/><path fill="#342720" d="M2821.43,1684.61c0.76-2.71-0.57-5.48-3.16-6.57c-11.76-4.95-44.15-18.39-59.64-22.58        c-3.74-1.01-7.55,1.04-8.88,4.69c-2.17,5.96-4.4,12.24-3.08,18.1c0.49,2.17,2.39,3.75,4.49,4.5c0,0,45.57,20.53,60,21.38        C2816.66,1704.45,2819.57,1691.26,2821.43,1684.61z" class="color202234 svgShape"/><path fill="#19130f" d="M2810.15,1694.56c-7.65,1.07-14.46-3.48-20.64-7.31c-1.23-0.76-2.48-1.59-3.8-2.2        c-2.43-1.12-4.95-0.94-7.57-1.15c-6.26-0.5-11.33-3.42-16.88-5.98c-2.66-1.23-5.58-1.62-8.15-3.09        c-2.35-1.34-4.41-3.14-6.1-5.25c-0.06-0.07-0.07-0.17-0.13-0.25c-0.65,3.02-0.87,6.02-0.22,8.93c0.49,2.17,2.39,3.75,4.49,4.5        c0,0,45.57,20.53,60.01,21.38c4.72,0.28,7.52-9.36,9.4-16.31C2818.13,1691.31,2814.57,1693.94,2810.15,1694.56z" opacity=".33" class="color0f1019 svgShape"/><path fill="#342720" d="M2962.07,1819.67l-75.84,212.85c-7.9,22.19-30.16,34.7-49.47,27.82l-335.53-119.55         c-19.45-6.93-28.64-30.65-20.74-52.83l75.84-212.86c7.44-20.88,29.1-32.14,48.54-25.21l335.53,119.55         C2959.72,1776.33,2969.51,1798.79,2962.07,1819.67z" class="color202234 svgShape"/><path fill="#19130f" d="M2560.79,1753.99c12.8,13.3,28.01,23.62,44.91,30.55c17.44,7.15,38.38,13.28,46.66,32.67         c3.17,7.43,4.64,15.58,7.89,22.98c3.55,8.09,10.11,15.4,16.46,21.09c3.39,3.05,7.1,5.89,11.22,7.81         c3.06,1.42,7.04,2.9,10.51,2.4c2.34-0.34,4.55-2.17,6.72-3.12c4.02-1.76,8.33-3.18,12.51-4.34         c3.33-0.93,6.75-1.39,10.07-0.59c3.91,0.95,7.21,3.5,10.13,6.23c6.27,5.89,9.14,15.3,16.13,20.34         c6.55,4.72,13.83,1.46,19.1-4.05c4.91-5.15,9.06-10.77,14.92-14.82c9.9-6.85,21.79-9.04,33.16-7.72         c24.42,2.84,47.33,19.45,59.69,41.18c5.81,10.22,9.28,22.41,7.84,34.67c-1.74,14.79-16.14,47.98-28.14,56.51         c-12.12,8.62-26.98,10.64-40.99,10.57c-15.58-0.08-30.99-3.27-46.57,0.52c-7.07,1.72-13.79,4.85-19.94,9.05         c-4.39,3-8.27,6.64-12.24,10.16l95.92,34.17c19.39,6.91,41.59-5.53,49.51-27.77l51.4-144.25L2560.79,1753.99z" opacity=".33" class="color0f1019 svgShape"/><path fill="#19130f" d="M2940.41,1769.39l-177.14-63.11c8.99,9.79,21.44,15.77,33.68,20.53c15.04,5.86,30.45,10.74,45.51,16.58         c27.14,10.52,57.67,24,70.97,51.78c5.2,10.85,8.27,24.69,5.1,36.57c-2.24,8.43-8.54,14.62-16.55,17.76         c-8.83,3.46-18.67,3.86-28.03,3.29c-10.07-0.61-20.07-2.47-29.84-4.97c-4.22-1.08-8.39-2.31-12.53-3.67         c-8.33-2.72-15.9-7.17-23.71-11.04c-7.2-3.57-14.34-5.94-22.25-7.29c-3.04-0.52-6.07-1.2-8.73-2.85         c-1.97-1.22-3.46-2.93-4.67-4.84c-2.62,6.49-3.91,13.39-5,20.35l167,59.5l27.92-78.35         C2969.55,1798.79,2959.8,1776.29,2940.41,1769.39z" opacity=".33" class="color0f1019 svgShape"/><path fill="#fc9d1a" d="M2710.64 1807.38l-8.39-2.99c-4.64-1.65-9.73.76-11.38 5.4l-9.3 26.1c-1.65 4.64.77 9.73 5.4 11.38l8.39 2.99c4.64 1.65 9.73-.77 11.38-5.4l9.3-26.1C2717.7 1814.12 2715.28 1809.03 2710.64 1807.38zM2693.33 1843.12c-3.89-1.38-5.93-5.7-4.55-9.58 1.4-3.93 5.71-5.98 9.6-4.59 3.93 1.4 5.98 5.71 4.58 9.64C2701.58 1842.47 2697.26 1844.52 2693.33 1843.12zM2774.26 1830.05l-8.39-2.99c-4.64-1.65-9.73.76-11.38 5.4l-9.3 26.1c-1.65 4.64.76 9.73 5.4 11.38l8.39 2.99c4.64 1.65 9.73-.77 11.38-5.4l9.3-26.1C2781.32 1836.79 2778.9 1831.7 2774.26 1830.05zM2756.95 1865.78c-3.89-1.38-5.93-5.7-4.55-9.58 1.4-3.93 5.71-5.98 9.6-4.59 3.93 1.4 5.98 5.71 4.58 9.64C2765.2 1865.14 2760.88 1867.18 2756.95 1865.78z" class="colorfcc61a svgShape"/><path fill="#fc9d1a" d="M2944.4,1869.26l-6.04,16.97c-61.59-13.71-131.2-33.8-203.9-59.7        c-75.17-26.78-144.06-56.33-201.57-85.64l6.04-16.97c57.5,29.31,126.4,58.86,201.57,85.64        C2813.33,1835.5,2882.94,1855.6,2944.4,1869.26z" class="colorfcc61a svgShape"/><path fill="#d7a98e" d="M2812.76,1678.81c-2.09,3.3-4.36,6.49-6.75,9.3l0.01,0.01c-0.01,0.01-0.01,0.01-0.01,0.03       c-0.11,0.15-0.65,0.94-1.46,2.07l-0.01,0.01c-0.65,0.9-1.48,1.98-2.4,3.11l0,0c0,0-9.5,13.34-14.31,12.24       c-4.81-1.1-5.03-4.81-5.03-4.81s-3.97,2.66-7.75-0.1c-3.78-2.76-3-6.1-3-6.1s-3.6,2.55-7.9-0.57       c-4.31-3.12-3.68-7.93-3.68-7.93s-5.67,3.5-8.44-4.25c-2.76-7.73,5.91-16.12,6.23-16.52c1.31-1.73,2.68-3.34,4.06-4.85       c0.38-0.41,0.69-0.89,1.14-1.21c32.17-23.3,61.15-82.44,68.21-82.34c0,0,30.34,12.1,28.83,20.05       c-3.92,6.42-43.66,58.81-43.66,58.81S2820.59,1666.42,2812.76,1678.81z" class="colord7a28e svgShape"/><path fill="#ffffff" d="M2806.01,1688.11l0.01,0.01c-0.01,0.01-0.01,0.01-0.01,0.03c-0.11,0.15-0.65,0.94-1.46,2.07l-0.01,0.01       c-0.65,0.9-1.48,1.98-2.4,3.11l0,0c0,0-9.5,13.34-14.31,12.24c-4.81-1.1-5.03-4.81-5.03-4.81s-3.97,2.66-7.75-0.1       c-3.78-2.76-3-6.1-3-6.1s-3.6,2.55-7.9-0.57c-4.31-3.12-3.68-7.93-3.68-7.93s-5.67,3.5-8.44-4.25       c-0.99-2.78-0.5-5.64,0.55-8.18c0.85,2.98,2.62,6,5.16,7.71c0.65,0.44,1.38,0.79,2.15,0.97c0.88,0.2,1.8,0.16,2.69,0.28       c1.94,0.26,2.88,1.98,3.94,3.45c1.36,1.9,2.87,3.62,5.07,4.53c1.65,0.69,3.43,0.86,5.18,1.15c1.83,0.31,3.59,0.89,4.96,2.21       c1.3,1.26,2.48,2.48,4.18,3.21c2.94,1.25,6.05,0.37,8.61-1.3c1.77-1.16,3.26-2.68,4.77-4.15c1.97-1.92,3.9-3.88,5.83-5.83       c3.31-3.35,6.61-6.63,9.49-10.36c-0.53,1.09-1.11,2.19-1.82,3.31C2810.67,1682.11,2808.4,1685.3,2806.01,1688.11z" opacity=".2" class="colorfff svgShape"/><g fill="none"><path fill="#ffbf66" d="M2816.07,1170c0,0,127.15,100.45,169.09,226.67c41.94,126.22-164.38,253.18-164.38,253.18l-32.75-18.95      c0,0,32.5-105.49,90.47-184.26c-72.53-47.15-157.3-169.61-135.85-247.47C2755.05,1154.15,2816.07,1170,2816.07,1170z" class="colorf7c06b svgShape"/></g><g opacity=".1" fill="none"><path fill="#342720" d="M2972.75,1365.2c-4.38,14.62-4.63,30.38-5.84,45.49c-1.45,18.13-5.46,34.97-13.39,51.41      c-12.17,25.25-32.31,44.94-47.87,67.95c-14.31,21.17-26.76,43.25-43.87,62.45c-14.02,15.73-32.62,32.81-54.87,33.9      c-5.94,0.29-11.46-0.66-16.61-2.46c-1.5,4.47-2.27,6.96-2.27,6.96l32.75,18.95c0,0,206.33-126.97,164.38-253.18      C2981.6,1385.97,2977.4,1375.48,2972.75,1365.2z" class="color202234 svgShape"/></g></g><g fill="none"><path fill="#51301d" d="M2256.02,1166.97c-1.42,5.21,1.65,10.59,6.86,12l0,0c5.23,1.42,10.61-1.66,12.03-6.87l159.38-586.1       c1.42-5.21-1.66-10.59-6.89-12.01l0,0c-5.21-1.42-10.58,1.67-11.99,6.87L2256.02,1166.97z" class="color241d51 svgShape"/><path fill="#cc7644" d="M3123.21,905.75c-40.02-315.95-264.74-591.89-590.57-681.68c-0.31-0.1-0.61-0.17-0.79-0.26       c0,0-1.99-0.54-1.99-0.54c0,0-1.12-0.3-1.12-0.31c0,0-0.88-0.24-0.82-0.2c-20.69-5.57-41.4-10.28-62.1-14.17       c-0.18-0.03-0.35-0.06-0.52-0.09c-127.5-23.91-260.61-16.58-384.71,21.19c-0.47,0.14-0.94,0.26-1.41,0.41       c-160.27,49.12-304.2,148.41-406.58,281.18c3.22-1.45,6.48-2.8,9.75-4.15c63.57-26.12,135.92-32.25,207.3-12.84       c2.67,0.73,5.3,1.49,7.94,2.29c106.99,32.01,185.54,114.97,216.17,215c0.33-0.28,0.63-0.58,0.92-0.85       c79-71.89,191.81-103.09,302.47-73c111.03,30.19,192.73,114.8,224.16,217.31c0.48-0.48,0.97-0.92,1.48-1.37       c76.99-69.82,186.08-100.96,293.87-74.52c2.67,0.63,5.33,1.3,7.98,2.02c58.9,16.02,109.52,47.37,148.81,88.55       C3104.22,881.06,3114.19,893.06,3123.21,905.75z" class="color4462cc svgShape"/><path fill="#51301d" d="M2114.67,710.73c79-71.89,191.81-103.09,302.47-73c111.03,30.19,192.73,114.8,224.16,217.31       c0.48-0.48,0.97-0.92,1.48-1.37c51.79-223.79,5.22-448.94-112.53-628.39C2337.57,320.47,2183.32,491.31,2114.67,710.73z" opacity=".4" class="color241d51 svgShape"/><path fill="#51301d" d="M2527.86,222.73c217.6,118.03,362.97,325.26,408.8,556.44c2.67,0.63,5.33,1.3,7.98,2.02       c75.07,20.41,136.79,65.68,178.58,124.56c-40.02-315.96-264.74-591.89-590.57-681.68c-0.94-0.3-1.81-0.54-2.77-0.8       L2527.86,222.73z" opacity=".4" class="color241d51 svgShape"/><path fill="#51301d" d="M2531.85,223.81c-247.41-8.42-477.7,96.65-634.28,272.79c-2.63-0.81-5.26-1.58-7.93-2.3       c-75.05-20.41-151.19-12.64-217.04,16.97c194.5-252.18,528.03-376.31,854.45-288.72c0.96,0.22,1.85,0.46,2.79,0.72       L2531.85,223.81z" opacity=".4" class="color241d51 svgShape"/><path fill="#51301d" d="M2261.72,1150.6l17.76,4.83c1.54,0.42,2.46,2.02,2.04,3.57l-13.64,50.15       c-5.04,18.52-5.79,41.99,19.23,48.8c18.65,5.07,32.82-6.56,39.93-32.71l7.36-27.06c0.42-1.54,2.01-2.45,3.55-2.03l17.75,4.83       c1.55,0.42,2.46,2.01,2.04,3.55l-7.24,26.64c-14.41,53-48.9,52.12-68.16,46.88c-34.49-9.38-48.16-37.25-37.49-76.47       l13.31-48.93C2258.57,1151.09,2260.16,1150.17,2261.72,1150.6z" class="color241d51 svgShape"/></g><path fill="#e5baa1" d="M2294.39,1099.78c-2.95-9.71-25.67-12.28-25.67-12.28c-6.27,2.8-1.54,9.52-6.11,14.21    c-4.56,4.69-3.34,12.34-8.48,17.97c-5.13,5.63,1.42,16.22,3.05,18.13c1.63,1.91,19.59,10.34,21.3,6.38    c2.59-5.99-14.39-15.94-14.39-15.94s28.47,15.31,26.45,4.48c-1.05-5.67-11.4-12.15-17.09-15.63c8.59,3.12,22.54,5.91,21.2,1.17    c-1.43-5.06-13.26-12.91-19.56-16.79C2283.45,1105.53,2296.69,1107.37,2294.39,1099.78z" class="colore5b1a1 svgShape"/><path fill="#fcf9f7" d="M2274.18 1138.15l-1.74 4.67c0 0 2.47 1.89 4.82.77C2279.61 1142.46 2274.18 1138.15 2274.18 1138.15zM2285.44 1128.77l-1.74 4.67c0 0 2.47 1.89 4.82.77C2290.88 1133.09 2285.44 1128.77 2285.44 1128.77zM2289.73 1113.52l-1.74 4.67c0 0 2.47 1.89 4.82.77C2295.16 1117.84 2289.73 1113.52 2289.73 1113.52zM2289.48 1096.56l-1.75 4.67c0 0 2.47 1.89 4.82.77C2294.91 1100.88 2289.48 1096.56 2289.48 1096.56z" opacity=".25" class="colorfcfaf7 svgShape"/></g><g><path fill="#e2b49a" d="M3114.4 2830.03h-546.86c-8.41 0-15.22-6.81-15.22-15.22 0-8.4 6.81-15.22 15.22-15.22h546.86c8.4 0 15.22 6.81 15.22 15.22C3129.62 2823.22 3122.81 2830.03 3114.4 2830.03zM2502.33 2830.03H601.8c-8.41 0-15.22-6.81-15.22-15.22 0-8.4 6.81-15.22 15.22-15.22h1900.54c8.41 0 15.22 6.81 15.22 15.22C2517.55 2823.22 2510.74 2830.03 2502.33 2830.03z" class="color9ab6e2 svgShape"/></g><path fill="#342720" d="M1216.45 1194.35c0 92.22-74.77 166.99-166.99 166.99-6.68 0-13.25-.4-19.72-1.16 3.64-104.52 9.8-215.45 19.06-332.82h.66C1141.68 1027.36 1216.45 1102.12 1216.45 1194.35zM1216.45 1686.73c0 92.23-74.77 166.99-166.99 166.99-6.24 0-12.41-.34-18.47-1.01-4.34-100.71-6.35-211.15-4.99-331.33 7.66-1.07 15.5-1.63 23.46-1.63C1141.68 1519.75 1216.45 1594.5 1216.45 1686.73zM1216.45 2179.12c0 82.87-60.38 151.65-139.55 164.74-13.71-89.75-27.03-200.23-36.65-331.47 3.05-.17 6.12-.25 9.22-.25C1141.68 2012.13 1216.45 2086.9 1216.45 2179.12z" opacity=".2" class="color202234 svgShape"/><g><circle cx="1005.05" cy="1150.96" r="166.99" fill="#cc7644" class="color4462cc svgShape"/><path fill="#ffffff" d="M1069.2,1174.1c-0.72,2.08-1.48,4.11-2.28,6.08c-4.94,12.31-11.31,22.64-19.26,31.26     c-2.53,2.76-5.24,5.33-8.11,7.75c-9.22,7.77-19.91,13.35-31.77,16.57c-0.45,0.13-1.03,0.23-1.65,0.27l-0.31,0.02l-0.31-0.02     c-0.63-0.04-1.22-0.14-1.77-0.31c-11.7-3.17-22.38-8.75-31.63-16.53c-6.06-5.1-11.38-10.94-15.99-17.59     c-1.75-2.52-3.4-5.16-4.95-7.92c0,0,0,0,0-0.01c-3.35-5.94-6.24-12.45-8.71-19.57c-7.35-21.19-10.38-44.17-9.25-70.26l-0.01-4.06     c0-4.86,3.95-8.81,8.81-8.81h11.65c0.95-0.02,25.88-0.8,48.42-26.75l3.73-4.3l3.73,4.3c22.55,25.96,47.49,26.73,48.54,26.76     l11.54-0.01c4.86,0,8.81,3.96,8.81,8.81l0.01,4.36C1079.58,1129.95,1076.55,1152.91,1069.2,1174.1z" class="colorfff svgShape"/><path fill="#fe995e" d="M1005.83,1067.46c-24.11,27.75-50.99,28.43-52.16,28.46h-11.65c-2.13,0-3.86,1.73-3.86,3.86v4.28     c-1.1,25.47,1.84,47.83,8.98,68.43c6.35,18.28,15.55,32.32,28.16,42.92c8.68,7.31,18.72,12.55,29.87,15.58     c0.19,0.06,0.42,0.09,0.66,0.11c0.25-0.02,0.48-0.05,0.65-0.1c11.15-3.04,21.21-8.28,29.89-15.59     c12.6-10.6,21.81-24.64,28.16-42.92c7.15-20.59,10.08-42.95,8.98-68.34l0-4.36c0-2.13-1.73-3.86-3.86-3.86h-11.63     C1056.83,1095.89,1029.94,1095.21,1005.83,1067.46z" class="color5e97fe svgShape"/><path fill="#ffffff" d="M1039.17,1140.92h-11.97c-5.68,0-10.29-4.61-10.29-10.29v-11.97c0-5.68-4.61-10.29-10.29-10.29h0     c-5.68,0-10.29,4.61-10.29,10.29v11.97c0,5.68-4.61,10.29-10.29,10.29h-11.97c-5.68,0-10.29,4.61-10.29,10.29     c0,5.68,4.61,10.29,10.29,10.29h11.97c5.68,0,10.29,4.61,10.29,10.29v11.97c0,5.68,4.61,10.29,10.29,10.29h0     c5.68,0,10.29-4.61,10.29-10.29v-11.97c0-5.68,4.61-10.29,10.29-10.29h11.97c5.68,0,10.29-4.61,10.29-10.29     C1049.46,1145.53,1044.85,1140.92,1039.17,1140.92z" class="colorfff svgShape"/></g><g><circle cx="1005.05" cy="1643.35" r="166.99" fill="#cc7644" class="color4462cc svgShape"/><path fill="#ffffff" d="M1069.99,1669.02c-0.72,2.08-1.48,4.11-2.28,6.08c-4.94,12.31-11.31,22.64-19.26,31.26      c-2.53,2.76-5.24,5.33-8.11,7.75c-9.22,7.77-19.91,13.34-31.77,16.57c-0.45,0.13-1.03,0.23-1.65,0.27l-0.31,0.02l-0.31-0.02      c-0.63-0.04-1.22-0.14-1.77-0.31c-11.7-3.17-22.38-8.75-31.63-16.53c-6.06-5.1-11.38-10.94-15.99-17.59      c-1.75-2.52-3.4-5.16-4.95-7.92c0,0,0,0,0-0.01c-3.35-5.94-6.24-12.45-8.71-19.57c-7.35-21.19-10.38-44.17-9.25-70.26      l-0.01-4.06c0-4.86,3.95-8.81,8.81-8.81h11.65c0.95-0.02,25.88-0.8,48.42-26.75l3.73-4.3l3.73,4.3      c22.55,25.96,47.49,26.73,48.54,26.76l11.54-0.01c4.86,0,8.81,3.96,8.81,8.81l0.01,4.36      C1080.37,1624.88,1077.34,1647.83,1069.99,1669.02z" class="colorfff svgShape"/><path fill="#fe995e" d="M1006.62,1562.38c-24.11,27.75-50.99,28.43-52.16,28.46h-11.65c-2.13,0-3.86,1.73-3.86,3.86v4.28      c-1.1,25.47,1.84,47.83,8.98,68.43c6.35,18.28,15.55,32.32,28.16,42.92c8.68,7.31,18.72,12.55,29.87,15.58      c0.19,0.06,0.42,0.09,0.66,0.11c0.25-0.02,0.48-0.05,0.65-0.1c11.15-3.04,21.21-8.28,29.89-15.59      c12.6-10.6,21.81-24.64,28.16-42.92c7.15-20.59,10.08-42.95,8.98-68.34l0-4.36c0-2.13-1.73-3.86-3.86-3.86h-11.63      C1057.61,1590.81,1030.72,1590.13,1006.62,1562.38z" class="color5e97fe svgShape"/><path fill="#ffffff" d="M1054.31,1655.69v-1.22c0-0.11,0-0.21-0.01-0.32h0c-0.14-6.82-4.81-12.68-11.37-14.38c0,0,0,0,0,0     c-0.01,0-0.01,0-0.02,0c-0.25-0.06-0.51-0.13-0.76-0.18c-0.01,0-0.01,0-0.02,0l-4.85-0.98l-10.85-2.19     c-0.03-0.08-0.07-0.15-0.1-0.23v-2.93c0,0,0-0.01,0-0.01c0,0,0,0,0,0c-0.01-0.99-0.81-1.8-1.81-1.8l0,0     c-0.18,0-0.35,0.03-0.51,0.08c-2.98-5.22-6.93-9.61-11.35-10.79c-6.22-1.67-26.48-2.98-34.13-0.3c0.01-0.01,0.01-0.01,0.01-0.01     s-4.38-0.19-5.23,0.43c-0.8,0.58,1.85,1.2,2.5,1.5c0,0-0.01,0.01-0.01,0.01c-2.24,2.1-4.41,5.47-6.5,10.07     c-0.75,1.65-1.4,3.28-1.94,4.73c-3.2,1.37-5.24,3.9-6.51,7.2c-0.66-0.12-1.31-0.08-1.31-0.08c-0.14,0-0.27,0.13-0.39,0.34     c0,0,0,0-0.01,0c-0.44,0-0.81,1.03-0.81,2.31c0,1.27,0.36,2.31,0.81,2.31c0,0,0,0,0.01,0c0.11,0.2,0.24,0.32,0.37,0.33     c-0.03,0.17-0.05,0.34-0.08,0.51c-0.02,0.11-0.03,0.22-0.05,0.33c-0.04,0.3-0.08,0.61-0.11,0.92c-0.01,0.11-0.03,0.22-0.04,0.33     c-0.04,0.38-0.08,0.76-0.11,1.15c0,0.03-0.01,0.06-0.01,0.09c-0.03,0.42-0.06,0.85-0.09,1.29c-0.01,0.11-0.01,0.22-0.02,0.32     c-0.02,0.32-0.03,0.65-0.04,0.98c0,0.07-0.01,0.13-0.01,0.2c-0.78,0.56-1.29,1.48-1.29,2.51c0,1.71,1.39,3.1,3.1,3.1h8.85h0.83     c1.03,3.06,3.8,5.33,7.14,5.61c0.23,0.02,0.46,0.03,0.7,0.03c3.65,0,6.74-2.36,7.84-5.64h1.05h42.05h1     c1.03,3.06,3.8,5.33,7.14,5.61c0.23,0.02,0.46,0.03,0.7,0.03c3.65,0,6.74-2.36,7.84-5.64h0.88h5.63c1.71,0,3.1-1.39,3.1-3.1     C1055.55,1657.15,1055.06,1656.26,1054.31,1655.69z" class="colorfff svgShape"/></g><g><circle cx="1005.05" cy="2135.73" r="166.99" fill="#cc7644" class="color4462cc svgShape"/><path fill="#ffffff" d="M1069.99,2161.85c-0.72,2.08-1.48,4.11-2.28,6.08c-4.94,12.31-11.31,22.64-19.26,31.26       c-2.53,2.76-5.24,5.33-8.11,7.75c-9.22,7.77-19.91,13.34-31.77,16.57c-0.45,0.13-1.03,0.23-1.65,0.27l-0.31,0.02l-0.31-0.02       c-0.63-0.04-1.22-0.14-1.77-0.31c-11.7-3.17-22.38-8.75-31.63-16.53c-6.06-5.1-11.38-10.94-15.99-17.59       c-1.75-2.52-3.4-5.16-4.95-7.92c0,0,0,0,0-0.01c-3.35-5.94-6.24-12.45-8.71-19.57c-7.35-21.19-10.38-44.17-9.25-70.26       l-0.01-4.06c0-4.86,3.95-8.81,8.81-8.81h11.65c0.95-0.02,25.88-0.8,48.42-26.75l3.73-4.3l3.73,4.3       c22.55,25.96,47.49,26.73,48.54,26.76l11.54-0.01c4.86,0,8.81,3.96,8.81,8.81l0.01,4.36       C1080.37,2117.71,1077.34,2140.66,1069.99,2161.85z" class="colorfff svgShape"/><path fill="#fe995e" d="M1006.62,2055.21c-24.11,27.75-50.99,28.43-52.16,28.46h-11.65c-2.13,0-3.86,1.73-3.86,3.86v4.28       c-1.1,25.47,1.84,47.83,8.98,68.43c6.35,18.28,15.55,32.32,28.16,42.92c8.68,7.31,18.72,12.55,29.87,15.58       c0.19,0.06,0.42,0.09,0.66,0.11c0.25-0.02,0.48-0.05,0.65-0.1c11.15-3.04,21.21-8.28,29.89-15.59       c12.6-10.6,21.81-24.64,28.16-42.92c7.15-20.59,10.08-42.95,8.98-68.34l0-4.36c0-2.13-1.73-3.86-3.86-3.86h-11.63       C1057.61,2083.64,1030.72,2082.96,1006.62,2055.21z" class="color5e97fe svgShape"/><path fill="#ffffff" d="M1050.44,2136.55l-17.22-7.16c0.57-0.73,1.07-1.5,1.54-2.3c1.22,0.52,2.54,0.65,3.79,0.26     c2.81-0.87,4.42-3.99,4.1-7.44c-0.06-0.65-0.19-1.32-0.4-1.99c-0.37-1.18-0.93-2.23-1.63-3.11c-1.76-2.22-4.37-3.31-6.76-2.57     c-1.78,0.55-3.06,2.03-3.69,3.9c-2.39-0.11-4.78,0.55-6.82,1.86l-7.24,4.62l-17.41-7.4c-6.3-2.68-13.4-2.71-19.73-0.09     l-7.16,2.96l18.97,7.98c-0.3,0.61-0.52,1.3-0.61,2.04c-0.35,2.87,1.22,5.42,3.52,5.71c2.25,0.28,4.34-1.74,4.76-4.52l4.31,1.82     l-27.95,17.82c-0.76-4.12-3.03-13.05-8.28-11.97c-5.77,1.18-3.3,15.44-2.41,19.75c-0.03,0.42,0.06,0.85,0.27,1.22     c0,0,0,0.01,0,0.01l0,0c0.47,0.86,1.47,1.43,2.65,0.96l0.85-0.34c-0.12,1.62,0.78,3.03,2.09,3.19c1.36,0.17,2.63-1.08,2.84-2.78     c0.1-0.82-0.07-1.59-0.42-2.19l47.27-18.67l8.56,3.49c-0.36,0.66-0.62,1.41-0.73,2.24c-0.35,2.87,1.22,5.42,3.52,5.71     c2.29,0.28,4.44-1.82,4.79-4.69c0.01-0.06,0-0.11,0.01-0.16l13.02,5.31l1.66-0.73     C1056.08,2146.85,1056.03,2138.93,1050.44,2136.55z" class="colorfff svgShape"/></g></svg>