<svg xmlns="http://www.w3.org/2000/svg" enable-background="new 0 0 800 800" viewBox="177.25 148.817 445.5 502.315"><path fill="#ffb58a" d="M523.9 287.3h-23.5c-7.6-20.1-23.2-34.5-42.7-36.8-39.3-4.5-57.1 21.9-57.1 21.9s-17.7-26.4-57.1-21.9c-25.9 3-45 27.7-47.5 58.3h-22.4c.8-13.8 4.4-27.1 10.7-39.3 12.2-23.5 32.8-38.6 56.6-41.3 3.8-.4 7.7-.7 11.4-.7 20.3 0 36.5 6.6 48.2 14.5 11.7-7.9 27.9-14.5 48.2-14.5 3.7 0 7.5.2 11.4.7 23.8 2.7 44.5 17.8 56.6 41.3 3.1 5.7 5.4 11.6 7.2 17.8zM514.8 367.6c-.3.7-.7 1.4-1.1 2-29.8 55.4-100.8 88.6-103.8 90l-9.3 4.3-9.3-4.3c-2.9-1.3-70.4-32.9-101.4-85.8h26.7c30.3 40.7 83.9 65.4 83.9 65.4s59.2-27.3 88.3-71.6h26z" class="colore8e7fd svgShape"/><path fill="#ff6103" d="M554.8 546.6s-49.4 41.8-75.1 76.4c-12.9-9.6-37.8-29.5-35.5-37.1 2.4-7.7 43.9-44 62-59.6 4.8-4.1 11.9-4.4 17-.5 8.9 6.8 22.7 16.9 31.6 20.8z" class="colora2a1f8 svgShape"/><path fill="none" stroke="#9c4919" stroke-linecap="round" stroke-linejoin="round" stroke-miterlimit="10" stroke-width="2" d="M503.7 528.6s-1.9-27.3-40.5-44.1S339 482.2 342 507.8s62.9 13.4 77.3 18.7" class="colorStroke31199c svgStroke"/><path fill="none" stroke="#9c4919" stroke-linecap="round" stroke-linejoin="round" stroke-miterlimit="10" stroke-width="2" d="M348.9 494.5s-6.6-.7-33.9-25.9c-27.3-25.2-54.5 4.6-25 41.2s61.8 59.4 116.7 61.3c25.9.9 35 2.4 43.2 7.2" class="colorStroke31199c svgStroke"/><path fill="none" stroke="#9c4919" stroke-linecap="round" stroke-linejoin="round" stroke-miterlimit="10" stroke-width="2" d="M487 628.3c-3-1.9-45.8-32.4-42.8-42.4 2.4-7.7 43.9-44 62-59.6 4.8-4.2 11.9-4.4 17-.5 9.6 7.3 24.8 18.3 33.5 21.6" class="colorStroke31199c svgStroke"/><path fill="none" stroke="#f8c1a1" stroke-linecap="round" stroke-linejoin="round" stroke-miterlimit="10" stroke-width="2" d="M519.4 357.4c-1.7 4.1-3.6 8.2-5.7 12.2-29.8 55.4-100.8 88.6-103.8 90l-9.3 4.3-9.3-4.3c-3-1.4-74-34.6-103.8-90-2-3.7-3.8-7.4-5.3-11.2M275.4 335.3c-4.2-22.8-1.3-45.9 9-65.8 12.2-23.5 32.8-38.6 56.6-41.3 3.8-.4 7.7-.7 11.4-.7 20.3 0 36.5 6.6 48.2 14.5 11.7-7.9 27.9-14.5 48.2-14.5 3.7 0 7.6.2 11.4.7 23.8 2.7 44.5 17.8 56.6 41.3 6.8 13.2 10.5 27.9 10.9 42.9" class="colorStrokea2a1f8 svgStroke"/><path fill="#ffbf66" stroke="#9c4919" stroke-linecap="round" stroke-linejoin="round" stroke-miterlimit="10" stroke-width="2" d="M449.8 332.5v23.9c0 2.5-2 4.6-4.5 4.6h-23.7c-2.5 0-4.5 2-4.5 4.6v23.9c0 2.5-2 4.6-4.5 4.6h-23.7c-2.5 0-4.5-2-4.5-4.6v-23.9c0-2.5-2-4.6-4.5-4.6H356c-2.5 0-4.5-2-4.5-4.6v-23.9c0-2.5 2-4.6 4.5-4.6h23.7c2.5 0 4.5-2 4.5-4.6v-23.9c0-2.5 2-4.6 4.5-4.6h23.7c2.5 0 4.5 2 4.5 4.6v23.9c0 2.5 2 4.6 4.5 4.6h23.7c2.7 0 4.7 2 4.7 4.6z" class="color7069f6 svgShape colorStroke31199c svgStroke"/><path fill="none" stroke="#9c4919" stroke-linecap="round" stroke-linejoin="round" stroke-miterlimit="10" stroke-width="2" d="M197.5 344h36.9l11.1-22.9 21.9 46.5 12.4-23.6h20.9c-15.2-44.9 7.6-89.5 42.9-93.5 39.3-4.5 57.1 21.9 57.1 21.9s17.7-26.4 57.1-21.9c31.9 3.7 53.6 40.4 46.3 80.5" class="colorStroke31199c svgStroke"/><path fill="none" stroke="#9c4919" stroke-linecap="round" stroke-linejoin="round" stroke-miterlimit="10" stroke-width="2" d="M307.1 358.9c26.6 49.5 93.5 80.3 93.5 80.3s66.9-30.8 93.5-80.3c2.6-4.8 4.7-9.7 6.4-14.5h19.7l11.1-22.9 21.9 46.5 12.4-23.6h36.9" class="colorStroke31199c svgStroke"/><path fill="#ffbf66" d="M245.5 238.4c.7-2 3.5-2 4.2 0 .9 2.7 2.1 5.4 3.2 6.5 1.1 1.1 3.8 2.3 6.5 3.2 2 .7 2 3.5 0 4.2-2.7.9-5.4 2.1-6.5 3.2-1.1 1.1-2.2 3.8-3.2 6.5-.7 2-3.5 2-4.2 0-.9-2.7-2.1-5.4-3.2-6.5-1.1-1.1-3.8-2.3-6.5-3.2-2-.7-2-3.5 0-4.2 2.7-.9 5.4-2.1 6.5-3.2 1.1-1.1 2.2-3.8 3.2-6.5zM300.3 173.6c.9-2.6 4.6-2.6 5.5 0 1.2 3.6 2.7 7.1 4.2 8.6s5 3 8.5 4.2c2.6.9 2.6 4.6 0 5.5-3.5 1.2-7.1 2.7-8.5 4.2-1.5 1.5-2.9 5-4.2 8.6-.9 2.6-4.6 2.6-5.5 0-1.2-3.6-2.7-7.1-4.2-8.6s-5-3-8.5-4.2c-2.6-.9-2.6-4.6 0-5.5 3.5-1.2 7.1-2.7 8.5-4.2s3-5 4.2-8.6zM557.7 282.6c.7-2.1 3.6-2.1 4.3 0 1 2.8 2.1 5.6 3.3 6.8 1.2 1.2 3.9 2.3 6.7 3.3 2.1.7 2.1 3.6 0 4.4-2.8 1-5.6 2.2-6.7 3.3-1.2 1.2-2.3 4-3.3 6.8-.7 2.1-3.6 2.1-4.3 0-1-2.8-2.1-5.6-3.3-6.8-1.2-1.2-3.9-2.3-6.7-3.3-2.1-.7-2.1-3.6 0-4.4 2.8-1 5.6-2.2 6.7-3.3 1.2-1.2 2.3-4 3.3-6.8z" class="color7069f6 svgShape"/></svg>