<svg xmlns="http://www.w3.org/2000/svg" data-name="Layer 1" viewBox="0 0 2500 2500"><path fill="#f6f2f0" d="M1463.8 962a44.6 44.6 0 11-44.6-44.6 44.6 44.6 0 0144.6 44.6M2316.4 1131.2a151.9 151.9 0 11-151.9-151.9 151.9 151.9 0 01151.9 151.9M1292 792.5a22.3 22.3 0 11-22.3-22.3 22.3 22.3 0 0122.3 22.3M2216.9 744.4a22.3 22.3 0 11-22.3-22.3 22.3 22.3 0 0122.3 22.3M476.6 799.9a22.3 22.3 0 11-22.3-22.3 22.3 22.3 0 0122.3 22.3M157.1 1684.7a34.4 34.4 0 11-34.4-34.4 34.4 34.4 0 0134.4 34.4" class="colorf6f0f0 svgShape"/><path fill="#f6f2f0" d="M2356.4,1989.2H173.4c-32.4-12.1-28.7-69.4-19-102.6s34.9-59.3,58.5-84.6,47.5-53.1,53.8-87.1c12-64.5-41.1-120.1-81.7-171.6-54.6-69.5-92.8-154.2-96.4-242.6s30.2-180,98.3-236.4,171.3-71.3,247.8-27c63.6,36.8,100.6,105.3,139,168s87.5,126.9,158.9,144.4c103.5,25.4,198.4-55.8,288.7-112.4,149.1-93.5,334.1-128,506.8-94.5,73.8,14.3,149.5,43.6,193.6,104.5,69.9,96.5,44.1,248.6,135.6,324.9,47.2,39.4,113.3,46.2,174.7,43.6s123.5-12.7,183.8-.7c79.8,16.1,150.3,73.2,182.5,148s1.4,157-41.9,226.1" class="colorf6f0f0 svgShape"/><path fill="#fb7423" d="M2332.4,1833.8v121.7a34.2,34.2,0,0,1-34.2,34.2H2172.4a34.2,34.2,0,0,1-34.2-34.2V1833.8Z" class="colorfba223 svgShape"/><rect width="194.2" height="14.17" x="2138.2" y="1859.9" fill="#ff6103" class="colorfb8c2b svgShape"/><rect width="194.2" height="14.16" x="2138.2" y="1882.9" fill="#ff6103" class="colorfb8c2b svgShape"/><path fill="#8e6f45" d="M2143.8,1833.8s-49.4-63-18.3-154.7c0,0,86.6,43.9,85,154.7Z" class="color8c8e45 svgShape"/><path fill="#5f4231" d="M2178.5,1834.4a.6.6,0,0,1-.6-.5c0-.7-8.9-69.7-40.2-124a.6.6,0,1,1,1.1-.5c31.3,54.4,40.2,123.7,40.3,124.4a.6.6,0,0,1-.5.6h-.1" class="color5f5c31 svgShape"/><path fill="#8e6f45" d="M2327.8,1833.8s49.5-63,18.4-154.7c0,0-86.7,43.9-85,154.7Z" class="color8c8e45 svgShape"/><path fill="#5f4231" d="M2293.1 1834.4a.6.6 0 00.6-.5c.1-.7 9-69.7 40.2-124a.6.6 0 00-.2-.8.6.6 0 00-.8.3c-31.4 54.4-40.3 123.7-40.4 124.4a.6.6 0 00.5.6h.1M2235.3 1470.8c-91.1 151.6-37.8 363-37.8 363h75.7s53.3-211.4-37.9-363" class="color5f5c31 svgShape"/><path fill="#8e6f45" d="M2235.3,1834.4a.6.6,0,0,1-.6-.6V1511.3a.6.6,0,0,1,.6-.6.6.6,0,0,1,.6.6v322.5a.6.6,0,0,1-.6.6" class="color8c8e45 svgShape"/><rect width="688.1" height="417.63" x="808.4" y="1420.8" fill="#aaa7a5" class="coloraaa5a5 svgShape"/><rect width="46.4" height="538.55" x="789.5" y="1454.6" fill="#979493" class="color979393 svgShape"/><rect width="46.4" height="538.55" x="1463.8" y="1454.6" fill="#979493" class="color979393 svgShape"/><rect width="791.2" height="43.37" x="756.9" y="1420.8" fill="#7b7978" class="color7b7878 svgShape"/><rect width="287.4" height="287.36" x="835.9" y="1464.1" fill="#b9b6b4" class="colorb9b4b4 svgShape"/><path fill="#7b7978" d="M997.5 1538a17.9 17.9 0 10-17.9 17.9 17.9 17.9 0 0017.9-17.9M997.5 1670.9a17.9 17.9 0 10-17.9 18 17.9 17.9 0 0017.9-18" class="color7b7878 svgShape"/><rect width="287.4" height="3.85" x="835.9" y="1596.7" fill="#7b7978" class="color7b7878 svgShape"/><rect width="16.4" height="755.01" x="1992.2" y="827.1" fill="#b9b6b4" class="colorb9b4b4 svgShape"/><polygon fill="#f0edec" points="1869.6 930.9 1853.1 930.9 1853.1 877 1992.2 849 1992.2 827.1 2008.6 827.1 2008.6 862.5 1869.6 890.4 1869.6 930.9" class="colorf0ecec svgShape"/><path fill="#f0edec" d="M1885.6,927.3v8.5h-48.5v-8.5a14.9,14.9,0,0,1,.2-2.1,12.7,12.7,0,0,1,12.5-10.6H1873a12.7,12.7,0,0,1,9.7,4.6,12.5,12.5,0,0,1,2.9,8.1" class="colorf0ecec svgShape"/><path fill="#b9b6b4" d="M1885.6,927.3v8.5h-48.5v-8.5a14.9,14.9,0,0,1,.2-2.1s25.2-5.4,45.3-6h.1a12.5,12.5,0,0,1,2.9,8.1" class="colorb9b4b4 svgShape"/><path fill="#f0edec" d="M1977.5,972.9c0-23.2-52-42-116.1-42s-116.1,18.8-116.1,42v25.5h23.8c21.3,10,54.6,16.5,92.3,16.5s71-6.5,92.2-16.5h23.9Z" class="colorf0ecec svgShape"/><path fill="#b9b6b4" d="M1977.5,998.4c0,23.2-52,42-116.1,42s-116.1-18.8-116.1-42,51.9-42,116.1-42,116.1,18.8,116.1,42" class="colorb9b4b4 svgShape"/><path fill="#f0edec" d="M1886.7 998.4c0 5-11.3 9.1-25.3 9.1s-25.4-4.1-25.4-9.1 11.4-9.2 25.4-9.2 25.3 4.1 25.3 9.2M1826.8 982.1c0 5.1-11.3 9.2-25.3 9.2s-25.4-4.1-25.4-9.2 11.4-9.2 25.4-9.2 25.3 4.1 25.3 9.2M1826.8 1016.7c0 5.1-11.3 9.2-25.3 9.2s-25.4-4.1-25.4-9.2 11.4-9.2 25.4-9.2 25.3 4.1 25.3 9.2M1947.6 982.1c0 5.1-11.4 9.2-25.4 9.2s-25.3-4.1-25.3-9.2 11.3-9.2 25.3-9.2 25.4 4.1 25.4 9.2M1947.6 1016.7c0 5.1-11.4 9.2-25.4 9.2s-25.3-4.1-25.3-9.2 11.3-9.2 25.3-9.2 25.4 4.1 25.4 9.2" class="colorf0ecec svgShape"/><path fill="#7b7978" d="M1915.9 1784.9s43.2-34.2 60.8-53.9-15-50-15-50-83 51.7-84.7 51.9 38.9 52 38.9 52M1438.2 1997.6h538.5s-56.1-214.4-276.8-212.7-261.7 212.7-261.7 212.7" class="color7b7878 svgShape"/><polygon fill="#7b7978" points="1315.5 1878.4 1466.7 1784.9 1492.3 1814.5 1325.8 1906.9 1315.5 1878.4" class="color7b7878 svgShape"/><path fill="#b9b6b4" d="M1323.8,1874.8a28.4,28.4,0,0,0-30.4-7.8c-42.4,14.5-151.7,56.9-142.7,105.2,11.1,59.9,183.1-24.8,189.9-53.4,4-16.6-6.9-33.1-16.8-44" class="colorb9b4b4 svgShape"/><path fill="#2b221d" d="M1800.5,1698.9c-.6-3.7-13.9-103.8-13.9-103.8l-78.5-40.3s-243.9,83.3-274.8,82.4-284.9,200.9-284.9,200.9l4.9,6-20.6,6.7c-10.7,5.4-24.6,8.8-39.4,10.9l-.7-8.3a1.1,1.1,0,0,0-2.1.2l.8,8.3c-6.7.9-13.6,1.5-20.4,1.9l-.8-9a1,1,0,0,0-1.1-.9,1,1,0,0,0-1,1.1l.8,8.9c-6.9.3-13.9.4-20.5.4l-.7-8.1a1.2,1.2,0,0,0-1.2-1,1.1,1.1,0,0,0-.9,1.2l.7,7.9a522,522,0,0,1-54.2-3.4l-5.2,13.4-3.3,8.3,171.8,70.6,4.4-7.2,19.4-31.5,7.1-11.7,12-4.4,4.3,5.2c90.3-58.8,260.1-157.4,260.1-157.4,251.8,80.3,315.5,4.6,315.5,4.6s22.9-48.2,22.4-51.9" class="color1f1d2b svgShape"/><polygon fill="#7b7978" points="2148.9 1354.3 2132.8 1414.8 2174.2 1414.8 2189.2 1357.8 2148.9 1354.3" class="color7b7878 svgShape"/><path fill="#b9b6b4" d="M2154.2,1234.1s-37.7,123.4-23.1,132.2,77.8,15.1,88.1-8.1,52.2-118.8,40.2-139.9-79.6-20.8-105.2,15.8" class="colorb9b4b4 svgShape"/><path fill="#ffb58a" d="M1159.7,1852.6l36.8-14.2,35.5,56.4-16,6.8h-30.7s-23.4-18.1-23.4-19.3-3.1-15.2-3.1-16.3.9-13.4.9-13.4" class="colorfea691 svgShape"/><path fill="#2b221d" d="M1798.8,1717.8s-59.5,79.1-315.3,12.5c0,0-164.2,107.6-251.2,171.3l-57.6-62.5s242.8-215.3,273.7-216.1,269.9-97.1,269.9-97.1l80.5,36,19.5,102.9c.7,3.7-19.5,53-19.5,53" class="color1f1d2b svgShape"/><path fill="#382418" d="M2137.1,1211.8s35.5-43.9,75.9-15.6,55.9,112.1-10.3,122.4-87.5-58.7-87.5-58.7Z" class="color381819 svgShape"/><path fill="#fb7423" d="M2148.9,1218.3s23,6.2,25.2,34.1-18.4,42.9-18.7,43-6.5-77.1-6.5-77.1" class="colorfba223 svgShape"/><path fill="#382418" d="M2032,1187s40.1-27.9,98.4,12.3,45.6,173.8-67.9,166.8l-33.7-30.6-8.1-103.9Z" class="color381819 svgShape"/><path fill="#ffb58a" d="M1965.3,1363.8l13.2-20.6s-26.8-12.9-32.3-30.1c0,0-5.4-64.8,85.8-126.1,0,0-12.1,39.2,45.8,90.2,0,0,18.8-24.4,33-1.8s-9,46.6-32.3,44.9l-25.2,72Z" class="colorfea691 svgShape"/><path fill="#2b221d" d="M2010.3 1245.8c-4 3.5-6.2 7.7-4.7 9.3s5.8.1 9.9-3.5 6.2-7.7 4.7-9.4-5.8 0-9.9 3.6M1988.5 1224.1c-4.1 3.6-6.2 7.8-4.8 9.4s5.9.1 9.9-3.5 6.2-7.8 4.8-9.4-5.9 0-9.9 3.5" class="color1f1d2b svgShape"/><path fill="#fb7423" d="M1945.2,1358.5c38.2,5.4,85.8,0,113.2,34.8s19.7,159.4-105.6,218.9-154,105.6-154,105.6,4.8-122.1-80.5-191.9c0,0,89.2-40.5,152.9-113.5,0,0,35.8-59.3,74-53.9" class="colorfba223 svgShape"/><path fill="#f8a778" d="M2017,1357.8h-.1c-20.4-4.1-43.1-16.5-43.3-16.7a.4.4,0,0,1-.2-.7.6.6,0,0,1,.7-.2c.2.2,22.7,12.5,43,16.6a.4.4,0,0,1,.4.6c0,.2-.3.4-.5.4" class="colorf87c78 svgShape"/><path fill="#efb058" d="M1216,1901.6l-6.5,12.1c-30.5-11.3-47.8,12.1-52.7,20.1l-141.5-49.9,4.5-13.6s97.1,7.1,139.9-17.7c0,0,15.1,40.4,56.3,49" class="coloref6e58 svgShape"/><polygon fill="#2b221d" points="1191.9 1946.2 1187.9 1953.6 1012.5 1892.4 1015.3 1883.9 1191.9 1946.2" class="color1f1d2b svgShape"/><path fill="#ffffff" d="M1209.5 1913.7l-17.6 32.5-35.1-12.4c4.9-8 22.2-31.4 52.7-20.1M1077.4 1887.5a1.1 1.1 0 01-1-.9l-3.4-23.7a1 1 0 112-.3l3.4 23.7a1 1 0 01-.8 1.2h-.2M1099.8 1884.9a1 1 0 01-1-.8l-3.4-23.8a1 1 0 01.9-1.2 1 1 0 011.1.9l3.4 23.8a1 1 0 01-.8 1.1h-.2M1122.2 1882.3a1 1 0 01-1-.8l-3.4-23.8a1 1 0 01.9-1.2.9.9 0 011.1.9l3.5 23.8a1 1 0 01-.9 1.1h-.2" class="colorfff svgShape"/><path fill="#382418" d="M2042.9 1231.9c2.6 8.5 1.4 16.3-2.7 17.5s-9.4-4.6-12-13-1.3-16.3 2.7-17.5 9.5 4.6 12 13M2014 1199.6c6.8 1.4 11.8 4.8 11.2 7.6s-6.6 3.9-13.3 2.5-11.9-4.9-11.3-7.7 6.6-3.9 13.4-2.4" class="color381819 svgShape"/><path fill="#f8a778" d="M1999.7 1225.9a3.1 3.1 0 00-3.6 2 36.8 36.8 0 01-15.5 18.6 31.1 31.1 0 01-5.5 2.7c-2.2.8-4.4 1.4-6.5 2.4-4.3 1.9-7.4 6-6.9 10.8a10.7 10.7 0 0011 9.2 2.7 2.7 0 10-.2-5.4 4.9 4.9 0 01-4.7-6.2c1-3.6 5.4-4.3 8.4-5.4a43.1 43.1 0 0019-13.6 43.8 43.8 0 006.8-11.9c.5-1.4-.9-2.9-2.3-3.2M2025.9 1277.2a3.1 3.1 0 00-4.1-.8 111.4 111.4 0 01-43.1 18.6 2.7 2.7 0 00-1.9 3.4c.5 1.6 2.3 2 3.7 1.7a113.4 113.4 0 0044.5-19.2c1.2-.9 1.9-2.4.9-3.7M2105.5 1285.1a3.1 3.1 0 00-3.7-1.7 66.1 66.1 0 00-23.4 10.1 2.5 2.5 0 00-.9 3.7 3.1 3.1 0 004.1.8 53.3 53.3 0 018-4.6 35.4 35.4 0 002.1 9.1 3.1 3.1 0 003.8 1.7c1.3-.5 2.5-1.9 1.9-3.4l-.9-2.8-.3-1.2a3.1 3.1 0 01-.2-.8c0-.1 0-.2-.1-.2s0-.3.1.1a7 7 0 01-.3-1.4c0-.4-.1-.9-.1-1.3a17.7 17.7 0 01-.1-2.3 54.1 54.1 0 018.1-2.4 2.7 2.7 0 001.9-3.4" class="colorf87c78 svgShape"/><path fill="#ff6103" d="M1866.8,1522.8s66.9-35.5,94.9-54.1c0,0-66.9,56.8-112.1,65.6Z" class="colorfb8c2b svgShape"/><path fill="#b9b6b4" d="M1946.1,1767s-68.5-99.8-12.6-137.9,143.6-227,181.7-231.5c23.1-2.7,56.9.9,79.8,4.1a22.4,22.4,0,0,1,18.1,28.9c-19.9,63-87.6,231.6-267,336.4" class="colorb9b4b4 svgShape"/><polygon fill="#7b7978" points="1862.5 1617.1 1873.6 1729.3 1807.7 1729.3 1812.8 1617.1 1862.5 1617.1" class="color7b7878 svgShape"/><path fill="#b9b6b4" d="M1538.2,1683.3s-30-80.7,76.2-91.8c85.4-8.9,229.6-31.6,283-40.2a21.5,21.5,0,0,1,24.6,17.3l7.4,38.9a21.6,21.6,0,0,1-17.6,25.3c-70,11.9-290.6,48.5-373.6,50.5" class="colorb9b4b4 svgShape"/><path fill="#ffb58a" d="M1866.8,1522.8l-48.9,32.5a69.6,69.6,0,0,1-25,10.4L1607,1603.6s-21.3,27.2-57.7,30c0,0-13.5,11.1-11.5,24.1a110.3,110.3,0,0,1,.4,25.6s-9.5,10.4-30.7-.7c0,0-15.1-34.4-6.1-48,0,0-30,22.3-54,20.1a2.3,2.3,0,0,1-.7-4.5c14-6.1,47.1-21.2,68.3-36.8,0,0,89.5-52.2,129.8-65.1s124.3-32.9,182.8-79.6c0,0,42.8,32.3,39.2,54.1" class="colorfea691 svgShape"/><path fill="#f8a778" d="M1514.2 1685.5a.4.4 0 01-.4.4c-.2.1-.5-.1-.6-.4l-7-39.6a.4.4 0 01.4-.6c.3-.1.5.1.6.4l7.1 39.6c0 .1 0 .2-.1.2M1525.4 1687.8a.5.5 0 01-.5.4c-.3.1-.5-.1-.6-.4l-4.5-39.6a.7.7 0 01.4-.6.6.6 0 01.6.5l4.6 39.6h0M1507.8 1623.7v.2a51.3 51.3 0 00-5.8 10.8.5.5 0 01-.7.3.4.4 0 01-.3-.6 50.5 50.5 0 016-11.1.5.5 0 01.7-.2c.2.2.3.4.2.6" class="colorf87c78 svgShape"/><path fill="#b9b6b4" d="M1480.9,1748c8.6-.7,224.8-2.9,337.4-35.2s115.2,76,115.2,76-356.8,50.8-444,35.4-8.6-76.2-8.6-76.2" class="colorb9b4b4 svgShape"/><path fill="#331f13" d="M452.1,1012.7s-16.6,78.6,51.4,100.9c0,0-33.4-.2-58.4-37.2s7-63.7,7-63.7" class="color331315 svgShape"/><path fill="#2b221d" d="M426.8 938.8s-113.2-63.6-145 28.6 56.6 132.4 56.6 132.4 72.2-53.6 88.4-161M722.4 1864.8s-11.7 8.8-11.7 26.4-6.6 78.6-6.6 78.6 13.3 4.3 20.1 2.6l-.8-26.2s31.8 43.7 117.8 33.4l3.4-6.8-38.7-35.3z" class="color1f1d2b svgShape"/><path fill="#f6b65e" d="M622.4,1607.2h56s-26.3,76.5,50,224.4c6.4,12.4,6,21.2-6,33.2,0,0-8,79.4,83.5,72.7,0,0-24.6-47.6-28.5-102.8-6.7-93.3,5.9-220.9,7.1-268.6,1.8-75.8-147.7-64.7-147.7-64.7Z" class="colorf67b5e svgShape"/><path fill="#7b7978" d="M230.6,1181.4V1658H333V1147.8H264.2a33.7,33.7,0,0,0-33.6,33.6" class="color7b7878 svgShape"/><path fill="#2b221d" d="M173.4,1181.5v427.8a48.8,48.8,0,0,0,48.8,48.7h8.4V1181.4a33.7,33.7,0,0,1,33.6-33.6h23.6v-15H222.2a48.8,48.8,0,0,0-48.8,48.7" class="color1f1d2b svgShape"/><polygon fill="#7b7978" points="537.4 1776.3 555.4 1989.2 597 1989.2 597 1776.3 537.4 1776.3" class="color7b7878 svgShape"/><polygon fill="#2b221d" points="531.4 1705.6 537.4 1776.3 597 1776.3 597 1705.6 531.4 1705.6" class="color1f1d2b svgShape"/><polygon fill="#7b7978" points="365.9 1776.3 347.9 1989.2 306.3 1989.2 306.3 1776.3 365.9 1776.3" class="color7b7878 svgShape"/><polygon fill="#2b221d" points="371.9 1705.6 365.9 1776.3 306.3 1776.3 306.3 1705.6 371.9 1705.6" class="color1f1d2b svgShape"/><path fill="#7b7978" d="M273.6,1582.3H605.7v123.3H273.6a30,30,0,0,1-30-30v-63.3a30,30,0,0,1,30-30" class="color7b7878 svgShape"/><path fill="#2b221d" d="M667.3,1881.2a34.2,34.2,0,0,0-11.8,26.4c0,17.5-6.5,78.6-6.5,78.6s13.2,4.3,20.1,2.6l-.9-26.2s31.9,43.7,117.8,33.4l3.5-6.8-38.7-35.3Z" class="color1f1d2b svgShape"/><path fill="#ffbf66" d="M567.3,1623.6h56s-26.3,76.5,50,224.4c6.4,12.4,5.9,21.2-6,33.2,0,0-8,79.4,83.5,72.7,0,0-24.6-47.6-28.6-102.8-6.6-93.3,6-220.9,7.1-268.6,1.9-75.8-147.6-64.7-147.6-64.7Z" class="coloref8e6b svgShape"/><path fill="#2b221d" d="M723,1514c51.1-3-94.7-48.5-145.5-54.4s-106.3-.9-155.8-13.5L321,1508.3s-26.9,6-31.7,35.9-1.2,62.5,49.8,87.3,228.2-7.9,228.2-7.9S629,1519.5,723,1514" class="color1f1d2b svgShape"/><path fill="#ffffff" d="M431.4,1430.5s124.5,186.7,118.4,210.3c-10.2,39.4-179.2,58.2-274.9,39.7,0,0,7.6-236.2,8.5-264.9s148,14.9,148,14.9" class="colorfff svgShape"/><path fill="#2b221d" d="M426.8,938.8c15.3,8.1,30.6,18.8,36.8,35,5,13,3.3,27.9-1.9,40.9s-13.4,24.5-21.6,35.9c6.5,30.4,22.5,57.8,45.1,79.2a127.6,127.6,0,0,1-68.8,23.8c-10.5-11-17.7-25.2-21.7-39.9s-5.2-29.9-5-45.1a259.9,259.9,0,0,1,37.1-129.8" class="color1f1d2b svgShape"/><path fill="#ffbf66" d="M608.2,1302.5c25.7-20.6,46.2-39.3,50.2-45.5a116.9,116.9,0,0,0,44.1-28.5c12.4-12.8,22.5-27.8,31-43.4a31.7,31.7,0,0,0,3.5-8.8c.5-3.1-.1-6.6-2.4-8.8,3.2-4.9,4.5-10.6,5.5-16.3.4-2.2.4-4.9-1.5-6.1a4.2,4.2,0,0,0-4.4.4c-1.2.9-1.8,2.3-2.7,3.6a22.8,22.8,0,0,0,4.5-11.7,10.7,10.7,0,0,0-.3-4,4.1,4.1,0,0,0-2.6-2.8c-2.3-.8-4.6.9-6.4,2.5s-5.1,4.1-7.3,6.2c1.6-2.5,3.3-5.2,3.4-8.1s-1.8-6.3-4.7-6.5-3.5,1-4.9,2.1a56,56,0,0,0-9,9.2c-13.4,16.4-24.4,35.5-41.1,48.5a80.2,80.2,0,0,0-2.6-21.3c-.6-2.1-1.5-4.5-3.6-5.1s-4.6,1.1-5.5,3.3-.8,4.6-1.1,6.9c-1.4,10-9.7,17.4-13.8,26.5s-4.9,20.7.5,29.9l-55.3,26.5Z" class="coloref8e6b svgShape"/><path fill="#f6b65e" d="M672.7 1198.2a34.1 34.1 0 00-3.6-8.6 19.7 19.7 0 00-2.6-3.8c-.9-1.1-2.1-2.6-3.6-2.9a1.2 1.2 0 00-1.5 1.4c.2 1.3 1.3 2.4 2 3.4s1.5 2.4 2.2 3.7a29.8 29.8 0 012.9 7.7 26.9 26.9 0 01.9 8 29.7 29.7 0 01-.3 4.2l-.3 2.1a16.2 16.2 0 00.1 2.2c.1 1 1.6 2 2.4 1a11.3 11.3 0 001.2-1.8 7.3 7.3 0 00.7-2.4 26.1 26.1 0 00.5-4.8 37.1 37.1 0 00-1-9.4M718 1138.4c-1.7 1-2.5 2.6-3.6 4.2l-3.3 4.9c-2.2 3.3-4.6 6.5-6.9 9.6l-7.1 9.3c-2.5 3.1-5.1 6.1-7.3 9.4-.9 1.3 1 2.6 2 1.6a83.7 83.7 0 007.9-8.9c2.4-3 4.9-6 7.2-9.1s4.6-6.2 6.9-9.3l3.4-4.8c1.2-1.7 2.6-3.3 2.9-5.3s-.9-2.3-2.1-1.6M731.5 1145.5c-1.8.8-2.7 3.1-3.6 4.6l-3.3 4.9c-2.2 3.4-4.5 6.7-7 9.9s-4.9 6.1-7.6 9l-3.9 4.4c-1.4 1.5-3.1 2.9-4.1 4.8a1.4 1.4 0 001.9 1.8c1.8-.9 3.1-2.5 4.5-3.9l4.2-4.5c2.7-3.1 5.3-6.3 7.8-9.5s5-6.5 7.3-9.8l3.3-5c1-1.6 2.7-3.5 2.5-5.5a1.4 1.4 0 00-2-1.2M732.9 1165.9c-1.3.6-1.9 2.2-2.8 3.3l-2.6 3.7-5.7 7.4-5.6 7c-1.9 2.3-4.3 4.6-5.5 7.3-.5 1 .6 2.4 1.7 1.7s4.4-4.3 6.3-6.6l6-7.3c1.9-2.4 3.8-4.8 5.6-7.3l2.8-3.6c1-1.3 2.3-2.4 2.4-4.1s-1.5-1.9-2.6-1.5" class="colorf67b5e svgShape"/><path fill="#8e6f45" d="M641.4,1283.5s-11.6-49.4-19.5-61.5l-16.7,4,23.1,68.2Z" class="color8c8e45 svgShape"/><path fill="#ffffff" d="M632.8,1299.1l-29.9-79.9s-87.8,44.5-106.1,58.6L511.1,1380s101.6-55.7,121.7-80.9" class="colorfff svgShape"/><path fill="#ffffff" d="M410.6,1128.9s31.9,16.1,57.1,60.9,53.7,141.2,53.1,184.7-51,61.1-51,61.1l-28-51.8-21.4-130.4-15.6-77-3-28.6Z" class="colorfff svgShape"/><path fill="#8e6f45" d="M344.3,1147.8l72.6,6.1s14.9,19.7,27.4,60.1,44.5,184,44.5,184L449,1444.8l-34.6,5.6-26.1-29.2-9.6-58.2-19-86.8-15.4-82.1Z" class="color8c8e45 svgShape"/><polygon fill="#180900" points="414.4 1450.4 607.4 1484.7 700.7 1406.5 507.7 1372.2 414.4 1450.4" class="color180000 svgShape"/><polygon fill="#7b7978" points="414.4 1445.4 607.4 1479.7 700.7 1401.4 507.7 1367.2 414.4 1445.4" class="color7b7878 svgShape"/><polygon fill="#ffffff" points="673.3 1408.8 511.1 1380 441.8 1438.1 604 1466.9 673.3 1408.8" class="colorfff svgShape"/><path fill="#ffbf66" d="M305.8,1034.9a27.1,27.1,0,0,0,6.2,15.6c3.6,4.3,10.3,9.6,16,9.6l1.4,62.1,22.5,38.8c39.7,17.4,65-7.1,65-7.1v-32s36.6-3.1,39.7-43.9h0c.7-9,1.3-18.6,1.6-28.5.9-35.1-2.5-72-22.7-82,.2,8.5-5.3,15.2-12.5,19.7s-15.6,6.6-23.9,8.3-16.8,3.5-24.2,7.7a40.6,40.6,0,0,0-20.2,33.3l-11.3-.2c-.5-8.2-5.5-16.2-13-19.6s-17.4-1.1-21.8,5.8c-2.4,3.6-3.1,8.2-2.8,12.5" class="coloref8e6b svgShape"/><path fill="#2b221d" d="M436.4 1007.5a28.7 28.7 0 016.5 1.2 44.9 44.9 0 016.1 2.3c1.8.9 4.7 2.1 5.3 4.3a1.5 1.5 0 01-1.2 1.9c-1.7.4-3.4-.8-4.9-1.5l-.4-.2a5.3 5.3 0 01-1.2-.3c-1.3-.3-2.7-.7-4.1-.9a46.1 46.1 0 00-8.3-.3 2.4 2.4 0 01-2.3-1.7c-.8-2.9 1.8-5 4.5-4.8M407.5 1015.5a2.4 2.4 0 01-2.2 1.7 47.2 47.2 0 00-8.4.3l-4.1.9a5.3 5.3 0 01-1.2.3l-.3.2c-1.6.7-3.2 1.9-5 1.6a1.6 1.6 0 01-1.1-2c.5-2.2 3.4-3.4 5.2-4.3a44.9 44.9 0 016.1-2.3 35.5 35.5 0 016.5-1.2c2.7-.2 5.3 1.9 4.5 4.8M446.6 1033.6a3.3 3.3 0 012.7-.6 1.4 1.4 0 01.9-.1c1.4.4 1.6 2.2 1.8 3.4a19.3 19.3 0 01.1 2.4 8 8 0 01-.2 2.7 3.5 3.5 0 01-3.1 2.5 3.1 3.1 0 01-2.9-1.7 8.4 8.4 0 01-.8-3.1c-.1-1.9-.1-4.2 1.5-5.5M400.8 1037.7a3.5 3.5 0 012.7-.6h.8c1.4.3 1.6 2.1 1.8 3.3a22.9 22.9 0 01.2 2.5 8 8 0 01-.3 2.7 3.5 3.5 0 01-3.1 2.5 3.2 3.2 0 01-2.9-1.7 8.9 8.9 0 01-.8-3.1c-.1-2-.1-4.3 1.6-5.6" class="color1f1d2b svgShape"/><path fill="#f6b65e" d="M319,1032.2l-1.2-.5-.4-.2-.4-.2a2.5,2.5,0,0,1-1.7-3c.4-1.1,1.7-2.2,3-1.7a27.6,27.6,0,0,1,9.4,6.4,20.4,20.4,0,0,1,4.5,6.8,7.6,7.6,0,0,1,.6,1.6,1.5,1.5,0,0,1,.1.7,1.3,1.3,0,0,1,.1.6c-.1.5-.1.7,0,.4a1.7,1.7,0,0,1-2.9,1.2c-1.2-1.2-1.8-2.9-2.7-4.4l-.8-1-.3-.5h-.2l-1.6-1.8-.8,1-1.7,2a7.6,7.6,0,0,1-1.1,1.4,1.6,1.6,0,0,1-1.3.6,2.5,2.5,0,0,1-1.5-.2l-.5-.4a2.6,2.6,0,0,1-.4-2.9c.4-.6,1-1.2,1.5-1.8l1.2-1.3,1.3-1.2-.2-.2-2-1.2" class="colorf67b5e svgShape"/><path fill="#2b221d" d="M379.4,1085.1c13.8-1.8,25.8,6.4,31.6,11.3,7.5-5.5,10.5-15.4,10.5-15.4l-1.1-.5h0c-1,4.7-7.5,5.2-11.2,4.2a36.2,36.2,0,0,1-6.7-3l-23.4-12.3c-.9,4.3-1.4,10.2.3,15.6" class="color1f1d2b svgShape"/><path fill="#f6b65e" d="M379.4,1085.1c1.7,5.2,5.3,10,12.5,12.9s14.5,1.7,19.1-1.6c-5.8-4.9-17.8-13.1-31.6-11.3" class="colorf67b5e svgShape"/><path fill="#ffffff" d="M379.1,1069.5l23.4,12.3a36.2,36.2,0,0,0,6.7,3c3.7,1,10.2.5,11.2-4.2h0l-39.3-17.9a37.5,37.5,0,0,0-2,6.9" class="colorfff svgShape"/><path fill="#f6b65e" d="M359.7,1103.1s6.2,38.9,57.2,35.6v-16.8s-39.4,5.1-57.2-18.8" class="colorf67b5e svgShape"/><polygon fill="#8e6f45" points="423.9 1438.6 438.9 1440.2 449 1380.3 433.9 1378.1 423.9 1438.6" class="color8c8e45 svgShape"/><path fill="#ffffff" d="M329.4,1122.2l22.5,38.8s35.4,68.6,55.9,212.3l28,3.5s-5.4,62.8-14.9,72.1c0,0-101.5,23.7-160.2-25.2s-57.6-180-51.9-205.1,95.8-96.9,120.6-96.4" class="colorfff svgShape"/><path fill="#b9b6b4" d="M267.5 1346.6a53.1 53.1 0 016.9-.3c2.6.1 5.1.4 7.6.6l13.8 1.6 13.2 1.7c-1.7-4.8-3-9.8-4.5-14.6-2-6.5-3.9-13-5.8-19.5-3.9-13-7.5-26-11-39.1-1-3.6-2-7.2-2.9-10.8a91.2 91.2 0 01-2.1-11.4c-.2-1.7 2.3-1.8 2.8-.4a75.7 75.7 0 013.2 9.5c.9 3.2 1.8 6.4 2.6 9.6 1.7 6.5 3.5 12.9 5.3 19.4 3.6 12.9 7.2 25.9 11.1 38.8 1 3.5 2.1 7.1 3.2 10.7s1.8 5.6 2.5 8.4l10 1.5q27.9 4.2 55.3 10.7l15.2 3.7c5.2 1.4 10.6 2.6 15.6 4.5a1.6 1.6 0 01-.8 3c-4.7-.9-9.4-2.3-14.1-3.5l-13.5-3.3c-9.1-2.1-18.2-4-27.3-5.8-13.4-2.6-26.8-4.9-40.3-6.7-.7.8-2.1 1.1-2.6-.2s-.1-.1-.1-.2l-12.1-1.4-15.6-1.6-8.1-.7c-2.7-.4-5.2-.9-7.9-1.5s-1.1-2.6.4-2.7M279.5 1436.6c4.6.4 9.1 2.1 13.6 3.2s9.2 2.3 13.9 3.3c9.3 1.9 18.6 3.5 28 4.6a314.6 314.6 0 0056.6 1.6c10.1-.6 20.1-1.9 30.1-3.2.7-2.7 1.3-5.5 2-8.2s3.7-1.2 3.3.9-1.1 6.4-1.6 9.6a1.9 1.9 0 01-1.5 1.4 224.8 224.8 0 01-28.4 3.5c-9.5.7-19.1 1-28.6.9a322.9 322.9 0 01-57.2-6.1c-5.2-1-10.5-2.2-15.6-3.5s-10.8-2.3-15.5-4.8c-1.4-.8-.8-3.4.9-3.2" class="colorb9b4b4 svgShape"/><path fill="#f6b65e" d="M437.3,1050.2c-2.1-3.5-4.9-6.5-6.7-10.3a35.9,35.9,0,0,1-3-12.1,35,35,0,0,1,1.8-13.6c1.2-3.4-4.7-4.5-5.8-1.2a39.5,39.5,0,0,0,1.4,28.5,37.2,37.2,0,0,0,3.6,6.5c1.3,1.9,3,3.7,4,5.8a5.4,5.4,0,0,1-.2,5.5,3.9,3.9,0,0,1-5,1.2c-3.3-1.5-6.4,3.1-2.9,4.8a10.3,10.3,0,0,0,12.5-2.7c3.1-3.7,2.6-8.4.3-12.4" class="colorf67b5e svgShape"/><polygon fill="#7b7978" points="611.1 1406.3 570.1 1453.1 563.8 1451.7 604.8 1404.9 611.1 1406.3" class="color7b7878 svgShape"/><polygon fill="#7b7978" points="595.1 1403.3 554.1 1450.1 547.8 1448.7 588.7 1401.9 595.1 1403.3" class="color7b7878 svgShape"/><polygon fill="#7b7978" points="579 1400.3 538 1447.1 531.7 1445.7 572.7 1398.9 579 1400.3" class="color7b7878 svgShape"/><polygon fill="#7b7978" points="563 1397.2 522 1444.1 515.7 1442.7 556.6 1395.9 563 1397.2" class="color7b7878 svgShape"/><path fill="#ffbf66" d="M437.8,1435.4l8.9-51.6a596.1,596.1,0,0,1,74.1,13.5c1.9.5,4.1,1.4,4.2,3.3a3.1,3.1,0,0,1-1.7,2.7,8.9,8.9,0,0,1-3.2.8c8.8,4.8,17,10.2,25.5,15.6,2.2,1.4,4.6,3.4,4.1,5.9s-2.3,3.1-4.2,3.2a11.9,11.9,0,0,1-5.5-1.2,14,14,0,0,1,4.4,5.5,4.4,4.4,0,0,1,.5,2.7,3.8,3.8,0,0,1-3,2.3,13.7,13.7,0,0,1-8.5-.3,4.3,4.3,0,0,1,1.5,4,4.6,4.6,0,0,1-3.7,2.9,13.6,13.6,0,0,1-4.9-.4l-5.8-1a2.3,2.3,0,0,1-.2,2.5c-.8,1.4-2.8,1.6-4.5,1.5s-4.9-.4-7.3-.7l-20.5-2.2-24.7-2.9c-8.1-.9-16.4-2.1-23.7-5.7l-1.8-.4" class="coloref8e6b svgShape"/><path fill="#f6b65e" d="M481.2 1397.6c6.6 0 13 1 19.4 1.9l9.6 1.5a61.8 61.8 0 019.7 2c1.2.4 1.1 2.4-.3 2.3a75.2 75.2 0 01-9.4-1.1l-10-1.4c-6.5-.8-12.9-1.4-19.3-2.7-1.4-.2-1.1-2.5.3-2.5M498.1 1413.9a50.1 50.1 0 0110.9 1.4c3.7.8 7.4 1.8 11.1 2.8s7.1 2.2 10.6 3.5a67 67 0 0110.2 4.7 1.2 1.2 0 01-.9 2.1c-3.6-1-7-2.5-10.5-3.6s-6.9-2.3-10.4-3.3-7-1.8-10.5-2.5-7.4-1.3-10.9-2.4a1.4 1.4 0 01.4-2.7M493.3 1426c7-.2 14 1.5 20.7 3.2 3.3.9 6.6 1.8 9.9 2.9s6.9 2 9.7 4a1.4 1.4 0 01-1 2.5c-3.3-.5-6.5-2-9.6-3s-6.7-2-10-2.9c-6.6-1.6-13.4-2.4-20-4.1a1.3 1.3 0 01.3-2.6M489.8 1435.7c2.5-.4 5.3.4 7.7.8l8 1.3 7.9 1.7a68.6 68.6 0 017.8 2 1.7 1.7 0 01-.9 3.3c-2.6-.5-5.2-1.3-7.8-2l-7.6-1.6c-2.6-.6-5.1-1-7.7-1.4s-5.4-.4-7.7-1.4a1.5 1.5 0 01.3-2.7" class="colorf67b5e svgShape"/><path fill="#aaa7a5" d="M894.9,502.4c-144.7,0-262,117.3-262,262.1a261.6,261.6,0,0,0,64.3,172l-35.8,90,140.1-17.2a260.8,260.8,0,0,0,93.4,17.2c144.7,0,262.1-117.3,262.1-262S1039.6,502.4,894.9,502.4" class="coloraaa5a5 svgShape"/><path fill="#5f4231" d="M1246.3,1293.1c2.8-16.2,12.5-32.1,27.6-38.4h0a127.1,127.1,0,0,0,2.5,76.2c1.9,5.4,4.2,10.9,3.9,16.7a13.2,13.2,0,0,1-8.6,11.9,13,13,0,0,1-15-3.7c-3.3-3.9-4.8-9-6.1-14-4.1-15.9-7.1-32.6-4.3-48.8" class="color5f5c31 svgShape"/><path fill="#8e6f45" d="M1296.8 1332.4c2.7-16.6 2.3-33.4 2-50.2-7.9 9-15.8 18-21.7 28.4s-9.7 22.3-8.6 34.2c.6 6.8 6.5 21.8 15.9 15.9 7.8-5 11-20 12.4-28.3M1221.4 1285.4c-.4 1.1-.7 2.2-1.1 3.2-6.7 23.5 1.2 50.7 19.7 66.8 2.6 2.2 6.1 5.2 9.3 5.1a2.2 2.2 0 001.4-.3 4.2 4.2 0 001.8-1.1c3-3.1 4.4-9.4 5.2-13.4a40.4 40.4 0 00-4.4-28.3c-7.5-13-21.4-20.6-31.6-31.6l-.3-.4" class="color8c8e45 svgShape"/><path fill="#5f4231" d="M1298.8,1282.2s-29.1,51.5-24.7,85.4Z" class="color5f5c31 svgShape"/><path fill="#8e6f45" d="M1273.9,1254.8s-40.4,38.6-3.8,106.2c0,0-23.1-60.7,3.8-106.2" class="color8c8e45 svgShape"/><path fill="#5f4231" d="M1221.4,1285.4c-.4,1.1-.7,2.2-1.1,3.2a98.4,98.4,0,0,0,7,14.2c4.7,8.5,10.6,16.4,14.3,25.3,4.5,10.6,6.5,21.2,7.7,32.4.2,1.3.3,2.6.4,3.8a27.3,27.3,0,0,0,1-4.1,57.4,57.4,0,0,0-4.9-38c-4.1-8-10.2-15-15.5-22.3a72.9,72.9,0,0,1-8.6-14.1l-.3-.4" class="color5f5c31 svgShape"/><rect width="58.4" height="54.85" x="1233.6" y="1365.4" fill="#ffbf66" class="coloref8e6b svgShape"/><rect width="69.2" height="11.28" x="1228.2" y="1354.1" fill="#ffbf66" class="coloref8e6b svgShape"/><polygon fill="#f6b65e" points="1292 1365.4 1292 1372.2 1233.6 1384.7 1233.6 1365.4 1292 1365.4" class="colorf67b5e svgShape"/><rect width="32.3" height="70.82" x="937.8" y="1333" fill="#ffffff" class="colorfff svgShape"/><rect width="402.4" height="228.25" x="750.8" y="1109.2" fill="#b9b6b4" class="colorb9b4b4 svgShape"/><rect width="378.4" height="204.23" x="762.8" y="1121.2" fill="#f0edec" class="colorf0ecec svgShape"/><polygon fill="#7b7978" points="937.8 1337.5 937.8 1351.6 970.1 1365.2 970.1 1337.5 937.8 1337.5" class="color7b7878 svgShape"/><rect width="122.3" height="16.29" x="892.8" y="1403.8" fill="#ffffff" class="colorfff svgShape"/><rect width="124.3" height="6.74" x="997.4" y="1164.1" fill="#b9b6b4" class="colorb9b4b4 svgShape"/><rect width="124.3" height="6.74" x="997.4" y="1191" fill="#b9b6b4" class="colorb9b4b4 svgShape"/><rect width="124.3" height="6.74" x="997.4" y="1217.9" fill="#b9b6b4" class="colorb9b4b4 svgShape"/><rect width="124.3" height="6.74" x="997.4" y="1244.8" fill="#b9b6b4" class="colorb9b4b4 svgShape"/><path fill="#ffffff" d="M908.3,1175.3a23.9,23.9,0,0,0-27.9-11.3,111.8,111.8,0,0,1-21.5,4.5,113.4,113.4,0,0,1-21.5-4.5,23.8,23.8,0,0,0-27.8,11.3c-8.7,16-13.4,41.7,17.5,70,0,0,.5,30.4,16.3,37.9a5.3,5.3,0,0,0,7.6-4.8c.2-8.3,1.5-22,7.9-23.2,6.5,1.2,7.8,14.9,8,23.2a5.3,5.3,0,0,0,7.6,4.8c15.8-7.5,16.3-37.9,16.3-37.9,30.9-28.3,26.2-54,17.5-70" class="colorfff svgShape"/><polygon fill="#7b7978" points="895.3 1183.3 894.5 1182.4 917.8 1163.5 979.6 1163.5 979.6 1164.7 918.3 1164.7 895.3 1183.3" class="color7b7878 svgShape"/><polygon fill="#7b7978" points="979.6 1198.2 878.5 1198.2 858.5 1178.1 859.4 1177.3 879 1197 979.6 1197 979.6 1198.2" class="color7b7878 svgShape"/><polygon fill="#7b7978" points="979.6 1225 844.5 1225 837.8 1218.3 838.6 1217.5 845 1223.8 979.6 1223.8 979.6 1225" class="color7b7878 svgShape"/><polygon fill="#7b7978" points="872.2 1279.4 871.5 1278.5 908.7 1247.6 979.6 1247.6 979.6 1248.8 909.1 1248.8 872.2 1279.4" class="color7b7878 svgShape"/><path fill="#7b7978" d="M982.8 1164.1a3.2 3.2 0 10-3.2 3.2 3.2 3.2 0 003.2-3.2M982.8 1197.7a3.2 3.2 0 10-3.2 3.2 3.2 3.2 0 003.2-3.2M982.8 1224.4a3.2 3.2 0 10-6.4 0 3.2 3.2 0 106.4 0M982.8 1248.2a3.2 3.2 0 10-3.2 3.2 3.2 3.2 0 003.2-3.2" class="color7b7878 svgShape"/><rect width="22.1" height="21.13" x="1522.5" y="1192.3" fill="#7b7978" transform="rotate(-45 1533.55 1202.883)" class="color7b7878 svgShape"/><path fill="#979493" d="M1424.3,1384.9a86.3,86.3,0,0,1-29-5l4.3-12.2a73.4,73.4,0,0,0,87.9-106.3l11.2-6.5a86.3,86.3,0,0,1-74.4,130" class="color979393 svgShape"/><rect width="128.1" height="22.5" x="1360.3" y="1398.6" fill="#979493" class="color979393 svgShape"/><rect width="128.1" height="40.38" x="1419.8" y="1232.4" fill="#ffffff" transform="rotate(-45 1483.834 1252.576)" class="colorfff svgShape"/><rect width="22.1" height="40.38" x="1435.3" y="1269.9" fill="#7b7978" transform="rotate(-45 1446.374 1290.092)" class="color7b7878 svgShape"/><rect width="17.3" height="36.73" x="1415.6" y="1377.4" fill="#979493" class="color979393 svgShape"/><rect width="60.6" height="25.96" x="1374.6" y="1355.4" fill="#ffffff" class="colorfff svgShape"/><path fill="#ffffff" d="M1013.5,670.3a58.1,58.1,0,0,0-68.1-27.7,264.8,264.8,0,0,1-52.6,10.9,264.8,264.8,0,0,1-52.6-10.9,58.1,58.1,0,0,0-68.1,27.7c-21.3,39-32.8,101.8,42.8,171.1,0,0,1.3,74.4,40,92.7,8.5,4.1,18.3-2.3,18.5-11.7.5-20.4,3.6-53.8,19.4-56.9,15.8,3.1,19,36.5,19.4,56.9.2,9.4,10,15.8,18.6,11.7,38.7-18.3,39.9-92.7,39.9-92.7,75.6-69.3,64.1-132.1,42.8-171.1" class="colorfff svgShape"/><path fill="#ffffff" d="M980.1,929.2s55.4-2.6,60.6-56.2c0,0,72.4-13.1,47.3-89s-125.5-19.5-125.5-19.5-35.3,16.1-37.6,46.9,0,81,0,81,14.2,27.5,16,28.6,39.2,8.2,39.2,8.2" class="colorfff svgShape"/><path fill="#302219" d="M1136.2,955.2l16.9-22.3a4.8,4.8,0,0,0-.9-6.7l-27.7-21.1-22.7,30,27.7,21a4.8,4.8,0,0,0,6.7-.9" class="color192930 svgShape"/><path fill="#7b7978" d="M1113.8 947.2l25.6-33.7a5.6 5.6 0 00-1.1-8L1111.4 885l-32.6 42.8 27 20.5a5.7 5.7 0 008-1.1M1228.9 1025.5l16.2-21.3a13.7 13.7 0 00-2.6-19l-81.9-62.8a7 7 0 00-9.7 1.3l-24.2 31.8a6.9 6.9 0 001.4 9.7l81.8 62.9a13.5 13.5 0 0019-2.6" class="color7b7878 svgShape"/><path fill="#302219" d="M1085.3,761A109.8,109.8,0,0,0,952.4,935.9c2.3,1.7,4.5,3.3,6.9,4.8a106.1,106.1,0,0,0,30.6,13.7l3.2.8a95.2,95.2,0,0,0,17.5,2.8h.2a110.3,110.3,0,0,0,33.4-2.7,109.2,109.2,0,0,0,62.1-40.4,106.4,106.4,0,0,0,13.6-23.4h0A109.9,109.9,0,0,0,1085.3,761m-67.9,177a87.9,87.9,0,0,1-19.7-2.5,82.5,82.5,0,0,1-12.5-4,89.5,89.5,0,0,1-20.5-11.7,106.6,106.6,0,0,1-8.7-7.5,94.3,94.3,0,0,1-12.1-14.8,87.3,87.3,0,0,1-10-20.9,75,75,0,0,1-3.3-13.2,88.9,88.9,0,0,1,14.5-65.7c.8-1.1,1.6-2.3,2.5-3.4A89.5,89.5,0,0,1,1073,777.2a41.9,41.9,0,0,1,3.3,2.6,89.9,89.9,0,0,1,32,73,84.8,84.8,0,0,1-4.1,22.8,89.3,89.3,0,0,1-59.2,58.6,89.3,89.3,0,0,1-27.6,3.8" class="color192930 svgShape"/><path fill="#fb7423" d="M1016 805.6a9.2 9.2 0 11-9.2-9.2 9.2 9.2 0 019.2 9.2M1006.8 872a17 17 0 11-17-17 17 17 0 0117 17" class="colorfba223 svgShape"/></svg>