<svg xmlns="http://www.w3.org/2000/svg" viewBox="0 0 2000 2000"><g data-name="Secondary shapes"><path fill="#ffbf66" d="M478 1762.53c0-23.66 243.5-42.84 543.86-42.84s543.86 19.18 543.86 42.84-243.49 42.83-543.86 42.83S478 1786.19 478 1762.53Z" class="colorf1f1f6 svgShape"/><path fill="#f7eee9" d="M1192.31 1280.31c123.45-34.13 153.19-150.24 93.22-288.64-105.25 53.07-184.08 182.11-93.22 288.64Z" class="colore9edf7 svgShape"/><path fill="#ffffff" d="M1192.31 1283.27a2.69 2.69 0 0 1-.74-.1 3 3 0 0 1-2.12-3.6c6.21-23.79 20-62.59 34.49-103.66 17.6-49.68 37.53-106 49-149.12a3 3 0 1 1 5.71 1.52c-11.52 43.37-31.5 99.79-49.13 149.57-14.5 40.95-28.2 79.64-34.34 103.18a3 3 0 0 1-2.87 2.21Z" class="colorfff svgShape"/><path fill="#f7eee9" d="M662.28 392c75.72-55.42 65.92-142.64-11.07-221.87-58.3 63.66-78.8 172.49 11.07 221.87Z" class="colore9edf7 svgShape"/><path fill="#f8e7dd" d="M675.67 429.51C659.46 293 541.13 242.7 384.61 283.87c39.23 120.24 163.33 224.74 291.06 145.64Z" class="colordde2f8 svgShape"/><path fill="#f7eee9" d="M675.67 432.46a2.85 2.85 0 0 1-1.17-.24c-24.24-10.44-63.2-31.32-104.45-53.43-49.81-26.69-106.26-56.94-150.14-76.07a3 3 0 0 1 2.36-5.42c44.1 19.23 100.66 49.54 150.57 76.29 41.13 22 80 42.86 104 53.21a3 3 0 0 1-1.17 5.66ZM1532.39 222.23a54.24 54.24 0 0 1-19.12-3.31 46.87 46.87 0 0 1-28.77-31.35c-15.55-.33-30.62-8.4-40.68-21.92-14.82-19.91-17.47-48.89-7.27-79.5a3 3 0 0 1 5.61 1.87c-9.58 28.75-7.25 55.76 6.4 74.1 9.57 12.86 23.5 20 38.17 19.53a3 3 0 0 1 3 2.35 40.82 40.82 0 0 0 25.63 29.38c15.29 5.72 42.25 5.91 83.85-25.59a3 3 0 0 1 3.57 4.71c-30.23 22.87-53.43 29.73-70.39 29.73Z" class="colore9edf7 svgShape"/><path fill="#f7eee9" d="M1527.91 202.66c-16.38 0-31-6.69-40.6-18.56-13.25-4.1-25.58-16.1-32.31-31.77-10.43-24.07-7.45-54 8.38-84.24a2.95 2.95 0 1 1 5.23 2.73c-15 28.65-17.89 56.76-8.19 79.16 6.24 14.39 17.52 25.39 29.45 28.7a3 3 0 0 1 1.55 1c8.89 11.49 22.5 17.54 38.35 17 11.69-.39 41.68-5.48 67.7-44.2a3 3 0 0 1 4.91 3.3c-19.4 28.86-45.79 45.92-72.41 46.8-.72.07-1.39.08-2.06.08Z" class="colore9edf7 svgShape"/><path fill="#f7eee9" d="M1513.2 187.21c-7.65 0-15-2.47-22-7.42-7.94-2.12-14.37-9.06-18.64-20.1-9.47-24.54-6.78-69.18 16.85-103.58a3 3 0 0 1 4.87 3.35c-22.49 32.73-25.13 75-16.2 98.1 3.58 9.28 8.93 15.18 15.06 16.63a2.87 2.87 0 0 1 1.05.48c10.41 7.51 21.76 8.6 33.72 3.23 29.19-13.08 51.8-57.87 53.1-70.44a3 3 0 1 1 5.87.61c-1.55 15.08-25.77 61.42-56.55 75.22a41.52 41.52 0 0 1-17.13 3.92Z" class="colore9edf7 svgShape"/><path fill="#f7eee9" d="M1492.42 180a3 3 0 0 1-1.34-.32 2.94 2.94 0 0 1-1.51-1.88c-3.45-13-5.56-31.55-5.79-50.91-.21-17.77 1.2-32.86 3.69-39.36a3 3 0 0 1 5.52 2.11c-4.32 11.28-5 55.35 1.46 83.32 22.83-10.73 53.27-43.8 58.4-57.9a3 3 0 0 1 5.55 2c-6 16.42-39.63 52.89-64.91 62.72a3 3 0 0 1-1.07.22Z" class="colore9edf7 svgShape"/><path fill="#f7eee9" d="M1492.42 180h-.12a3 3 0 0 1-2.83-3.08c1.15-27.65 2.46-59 22.58-101.62a3 3 0 0 1 5.35 2.52c-19.62 41.56-20.9 72.26-22 99.35a2.94 2.94 0 0 1-2.98 2.83Z" class="colore9edf7 svgShape"/><path fill="#f7eee9" d="M1492.73 173.09a3 3 0 0 1-2-5.15c18.92-17 47.68-75.68 48.08-98a3 3 0 0 1 5.91.1c-.43 23.94-29.89 84.19-50 102.33a2.92 2.92 0 0 1-1.99.72ZM1362 371.26a2.95 2.95 0 0 1-2.16-5c40.28-43.57 116.72-162 124.19-182.7a3 3 0 0 1 5.56 2c-7.58 21-84.79 140.76-125.41 184.7a3 3 0 0 1-2.18 1Z" class="colore9edf7 svgShape"/><path fill="#f8ddce" d="M1173 1470.74c-14.82 124.4 79.27 194.33 226.79 191.33-9.09-114.96-96.72-234.07-226.79-191.33Z" class="colorced3f8 svgShape"/><path fill="#f8e7dd" d="M1370.88 1642.91a3 3 0 0 1-1.78-.6c-35-26.49-78.65-65.46-117.17-99.85-31.72-28.32-61.69-55.07-80.73-69.36a3 3 0 1 1 3.54-4.72c19.25 14.43 49.3 41.26 81.12 69.67 38.44 34.31 82 73.2 116.8 99.55a3 3 0 0 1-1.78 5.31Z" class="colordde2f8 svgShape"/><path fill="#e99767" d="M530.59 1020.33c-12.81-5.1-24-14.42-20.31-22.13 3.52-7.34 16.93-4.68 29 1-3.21-11.52-2.74-23 4.46-25.09 14.13-4.1 25.49 37.57 20.26 48.25-4.61 15.09-44.05 29.76-49.16 15.92-2.46-6.56 5.53-13.28 15.75-17.95Z" class="color6b67e9 svgShape"/><path fill="#f8ddce" d="M624.21 1129.73a3 3 0 0 1-2.9-2.37c-10.33-51.93-43.78-95.73-58.54-102.28a3 3 0 1 1 2.39-5.4c17.79 7.88 51.57 54.39 62 106.52a3 3 0 0 1-2.32 3.48 3.9 3.9 0 0 1-.63.05Z" class="colorced3f8 svgShape"/><path fill="#f8ddce" d="M549.54 1027.94c.56-2.3 3-4 5.3-5.42-3.25-1.84-6.77-6.52-4.28-9.76 1.78-2.31 5.89.41 9.09 3.33a16.79 16.79 0 0 1 .14-4.53c2.37-12.11 9.45 6.06 5.83 11.65a34.59 34.59 0 0 1-4.78 5.28c-4.48 4.19-12.4 3.9-11.3-.55Z" class="colorced3f8 svgShape"/><path fill="#f8e7dd" d="M1135.55 1403.78c-13.54-44.14-10.7-163.87 85.9-193.59 43.71-13.45 56-14.41 71.78-5 10.29 6.16 15.83 16.57 26.18 13.91 18.94-4.86.76-75.73 67.82-100s95.34 19.3 113.38 12.54 16.6-37 50.65-36.65 34.69 56.24 78.4 62.66c45.47 6.68 118.4 34.44 112.06 77.6s-41.19 36.28-62.5 57.25-31.66 106.46-98.84 96.6c-66.76-9.81-90.07-23.22-130.91 50.73S1324.21 1520.26 1290 1497s-33.31.69-18.83 20.16-22.71 22.54-48.64 7-69.99-64.97-86.98-120.38Z" class="colordde2f8 svgShape"/><path fill="#fbf8f6" d="M1116.44 1419.8a3 3 0 0 1-1.84-5.27c81.26-64.59 175.63-113.85 280.49-146.4 90.82-28.19 183.68-41.78 268.46-39.33a3 3 0 1 1-.17 5.91c-84.16-2.45-176.33 11.06-266.54 39.06-104.16 32.33-197.84 81.23-278.57 145.39a2.94 2.94 0 0 1-1.83.64Z" class="colorf6f6fb svgShape"/><path fill="#fbf8f6" d="M1535.91 1242.36a2.87 2.87 0 0 1-1.21-.26 3 3 0 0 1-1.49-3.91c4.28-9.53 17.2-52.86 14.58-79.14a3 3 0 0 1 5.88-.59c2.77 27.8-10.48 71.93-15.07 82.15a3 3 0 0 1-2.69 1.75ZM1612 1290.93a3 3 0 0 1-2.62-1.58c-5.34-10.2-29-41.85-41.71-51.67a3 3 0 0 1 3.61-4.68c13.5 10.44 37.65 42.76 43.34 53.61a3 3 0 0 1-1.25 4 3.07 3.07 0 0 1-1.37.32ZM1396.84 1273.64a2.92 2.92 0 0 1-1.42-.37 3 3 0 0 1-1.17-4c9.48-17.26 21.51-45.44 16.62-90.61a3 3 0 0 1 5.88-.63c5.65 52.24-11.64 83.73-17.32 94.08a3 3 0 0 1-2.59 1.53ZM1512.55 1321.6a3 3 0 0 1-2.37-1.19c-13.5-18.14-47.72-55.86-61-61.85a3 3 0 1 1 2.43-5.38c14.61 6.61 49.75 45.54 63.26 63.7a3 3 0 0 1-.61 4.13 2.91 2.91 0 0 1-1.71.59ZM1338.32 1363a3 3 0 0 1-2.37-1.19c-1.87-2.52-3.82-5.25-5.88-8.14-10.25-14.37-23-32.24-38.92-41a3 3 0 0 1 2.85-5.17c17.09 9.42 30.28 27.9 40.88 42.76 2 2.86 4 5.57 5.81 8a2.95 2.95 0 0 1-2.37 4.72ZM1236.3 1340.88a3 3 0 0 1-2.38-4.71c12.28-16.68 23-55.27 24-86a2.94 2.94 0 0 1 2.95-2.86h.09a3 3 0 0 1 2.86 3c-1 31.78-12.23 71.87-25.11 89.37a3 3 0 0 1-2.41 1.2Z" class="colorf6f6fb svgShape"/><path fill="#f8ddce" d="M895.25 1441c-3.78-13.59-126.54-64.35-137.78-41.51-8.76 17.79 9.92 27.48 17 30.46 11.12 4.71 38.59 14.27 33.81 21.94-8.65 13.89-75-19.17-91.72-26.22s-51-16.23-67.48-4.9-21.91 17.83 8 28.56 91.3 24.52 71 35.78-65.47-10.53-96-13.51-89.55 1.7-78.39 21.78c10 18 100.35 13.85 94.19 28.41-4.93 11.66-29.8 3.42-70.12 3.15s-78.4-.13-80.77 23.82c-1.9 19.24 24 14 45.7 14.38s52 2.17 44.46 12-113.66-2.57-123.66 27.81c-6.61 20.1 16.87 15.53 42.14 17.45s34 4.47 32 9.33-36.57 7.8-55.56 8.93-45.86 9.21-45.43 26.95 30.68 12.79 41.44 8.37 22.88-4 24.17-.84-33.17 20.32-21.57 36.67 42.93-3.2 50.74-21.65 19-43.1 25.73-40.25-2.31 24.21-9.43 41-6.11 25.15-1.62 27c15 6.33 36.84-10.24 42-22.54s25.41-85 35.34-80.83-.51 30.7-6.26 44.29-19.18 45.31-2.51 52.37 43.73-31.87 53.08-58.44 21.26-70.77 29-67.52 4.12 40.29-2.87 56.8-27.78 42.43-7.27 51.12 35.35-14.76 49.07-47.17c5.73-13.54 19.58-47.21 15.88-70.2-4.2-26.19-2-39.92 4-41.2 12-2.54 12.65 21 9.28 37.9s-17 68.75 9.92 69.45 27.24-43.81 29.14-61.7 3.11-81.5 17-81.33 4.34 33.51 2.47 44.17 1.32 33.95 10.7 30.09S902 1465.29 895.25 1441Z" class="colorced3f8 svgShape"/><path fill="#f8e7dd" d="M925.13 1372.07c-15.75 52.65-102.69 130.92-212.7 74.45s-303-228-276.33-295.85c21.17-53.92 312.55-39.94 398.83-.94s116.56 134.27 90.2 222.34Z" class="colordde2f8 svgShape"/><path fill="#f7eee9" d="M877.81 1355.91a2.87 2.87 0 0 1-1.54-.43c-69.65-42.59-378.19-178.75-441.19-202a3 3 0 0 1 2-5.54c63.13 23.33 372.37 159.81 442.23 202.54a3 3 0 0 1-1.54 5.47Z" class="colore9edf7 svgShape"/><path fill="#fbf8f6" d="M618.57 1326.57c-8.81 2.13-18.16-5.28-20.87-16.54s2.23-22.11 11-24.24 18.17 5.28 20.88 16.55-2.19 22.11-11.01 24.23ZM714.15 1228c-6.44 4.51-17 .48-23.69-9s-6.8-20.84-.35-25.35 17-.48 23.69 9 6.81 20.85.35 25.35ZM551.32 1266.45c-4 2.8-10.61.29-14.75-5.61s-4.22-13-.21-15.77 10.61-.3 14.74 5.61 4.23 12.96.22 15.77ZM681.23 1166.82c-1.78 5-9.23 7-16.64 4.35s-12-8.84-10.18-13.88 9.24-7 16.65-4.34 11.94 8.84 10.17 13.87ZM680.45 1351c-2.75 1.94-7.28.23-10.13-3.81s-2.94-8.88-.19-10.82 7.27-.23 10.12 3.81 2.94 8.82.2 10.82ZM740.36 1168.42c-.32 4-5.31 6.82-11.17 6.36s-10.34-4.07-10-8 5.33-6.82 11.18-6.35 10.31 4.02 9.99 7.99ZM573.15 1307.57c-.32 4-5.31 6.82-11.17 6.36s-10.34-4.07-10-8 5.32-6.82 11.17-6.36 10.31 4.03 10 8Z" class="colorf6f6fb svgShape"/><path fill="#94532e" d="M1065.87 669.33c-19.34-11.88-3.94-57.61-1.06-72.71 3.85-20.23.39-122.18.39-122.18 47.69 30.21 95.7 118.87 66.08 167.45a46.76 46.76 0 1 1-65.41 27.44Z" class="color362e94 svgShape"/><path fill="#fce4d6" d="M1341.2 486.23c2.44-9.73.78-35 6.29-48.65 11.76-29.11 13.08-67.68 20.46-64 11.19 5.54 2.79 41.95 2.18 49.24 7 3.3 34.63 21.39 29 35.11s-9.4 14.7-16.42 20c-5.72 4.35-8.07 17.36-8.07 17.36Z" class="colorfcddd6 svgShape"/><path fill="#fc6206" d="M1335.71 479.9s-26.06 106.7-54.32 146.83c-23.86 20.65-117 15-183.85 10.51-67.73-2.89-49.91 77.71 29.34 84.58 64.37-3.08 169.74-2.55 199.56-46.77 29.89-56.3 36.08-105.19 49.68-185.4 0 0-15.44-4.29-40.41-9.75Z" class="colorfcba06 svgShape"/><path fill="#ff6103" d="M1389.11 491.05s-53-13.81-56.33-15.23c-5.94 9.58-13.94 26.61-15.88 32.06 9.43 4 61 22.89 62.66 22.2 1.93-5.17 9.55-39.03 9.55-39.03Z" class="colored9f00 svgShape"/><path fill="#94532e" d="M1188.77 1752c-4.6 0-10.32 5.11-11 10.51h-8.39a45.92 45.92 0 0 1-3.89-31.79c2.74-11.26 5.63-8.56 8.56-5.63 6.67 5.42 33.89 7.21 36-1.94 7 1.06 79.36 21.87 79.36 28.56 0 10.84-8.5 10.8-14.28 10.8-68.45.01-59.39-4.19-86.36-10.51Z" class="color362e94 svgShape"/><path fill="#ffb58a" d="M1202.63 1711.67c-2.35-10.31-32.16-18.05-30.62 0a24.48 24.48 0 0 1-1.56 11.49c6 8.58 69 24.68 79.24 11.31-7.16-3.83-47.06-11.86-47.06-22.8Z" class="colorf7d3c9 svgShape"/><path fill="#94532e" d="M872.83 1752c4.61 0 10.33 5.11 11.06 10.51h8.38a45.89 45.89 0 0 0 3.9-31.79c-2.74-11.26-5.63-8.56-8.56-5.63-6.67 5.42-33.89 7.21-36-1.94-7 1.06-79.37 21.87-79.37 28.56 0 10.84 8.51 10.8 14.29 10.8 68.4.01 59.34-4.19 86.3-10.51Z" class="color362e94 svgShape"/><path fill="#ffb58a" d="M859 1711.67c2.34-10.31 32.16-18.05 30.62 0a24.48 24.48 0 0 0 1.56 11.49c-6 8.58-69 24.68-79.24 11.31 7.14-3.83 47.06-11.86 47.06-22.8Z" class="colorf7d3c9 svgShape"/><path fill="#94532e" d="M1136.59 953.21c68.6 119.51 67.12 573.32 67.12 757.83H1171c-18.4-45.74-176.8-670.81-189.23-757.83Z" class="color362e94 svgShape"/><path fill="#af683e" d="M936.32 953.21c-79.2 124.94-78.65 572.59-78.65 757.11h32.74c18.39-45.75 180.92-670.09 193.35-757.11Z" class="color423eaf svgShape"/><path fill="#ff6103" d="m1107.2 645.27-28.66 17 8.46 47.83c10.74 6 24.08 10.35 39.91 11.72 64.37-3.08 169.74-2.55 199.56-46.77 2.13-4 4.13-8 6-11.94-37.23 37.22-151.43 39-164.72 39s-45.54-41.83-60.55-56.84Z" class="colored9f00 svgShape"/><path fill="#fc6206" d="M936.32 953.21h200.27c-13.23-133.61 35.73-164 14.76-212.35-22.9-52.71-26.9-63.09-48.25-103.36-38.22-2.25-75 5.4-132.39-28.87-22.23 18.18-41.27 41.7-54.31 84.14-2.8 62.47 40.6 137.05 19.92 260.44Z" class="colorfcba06 svgShape"/><path fill="#fbab7d" d="M1543.45 631.88C1504.68 357.76 1250.12 166.29 976 205.06l12.82 90.68c224.13-31.7 432.26 124.84 464 349a410.2 410.2 0 0 1-93.12 322.66l-38.7-32.78-28.81 183.43 176.14-58.75-38.74-32.78a501.61 501.61 0 0 0 113.86-394.64ZM536.62 785.13c38.77 274.12 293.38 465.6 567.45 426.87l-12.82-90.67c-224.13 31.7-432.26-124.85-464-349a410.18 410.18 0 0 1 93.12-322.66l38.69 32.74L787.91 299l-176.14 58.71 38.74 32.78a501.62 501.62 0 0 0-113.89 394.64Z" class="color807dfb svgShape"/><path fill="#cc7f52" d="M1029.48 746.24c-2.71-28.68 15.11-53.82 39.8-56.15s46.91 19 49.63 47.69-15.11 53.81-39.8 56.15-46.91-19.02-49.63-47.69Z" class="color5652cc svgShape"/><path fill="#fce4d6" d="M1342 450.53c-3.89-7.34-7.19-38.63-2.88-59.08 2-9.36 10.34 11.32 10.34 19.2s16.86 19.2 16.86 35.08-3.69 22.53-10.34 22.53-11.61-13.21-13.98-17.73Z" class="colorfcddd6 svgShape"/><path fill="#f8e7dd" d="M1047.66 745.41c3.1-3.32 16.08 20.88 22.57 19.8s21.39-53.82 26.07-52.75c6.53 1.49-14.47 60.67-23.56 62.17-8.74 1.45-28.5-25.56-25.08-29.22Z" class="colordde2f8 svgShape"/><path fill="#ffb58a" d="M831 1046.09c2.19 6.57.53 10.77 10.6 18.54s14.8 9.26 19.37 13 19.35 13.85 17.25 15.85-20.37-8-21.26-6 26.5 47.74 15.94 48.45-37.21-5.93-50.76-29c-9.07-15.43-9.74-33.58-16.81-42.46.27-15.47 12.45-21.53 25.67-18.38Z" class="colorf7d3c9 svgShape"/><path fill="#fc6206" d="M924.67 651.22c-44.54 32.28-112.43 117.55-139.2 194.61-17.53 50.47 2.56 196.6 15.59 225.86l35.54-15.83c-9.65-21.65-.94-162.65 13-188.79 15.17-28.45 49.26-69.16 86.49-101.43s42.67-51.21 38.14-73.59-30.98-54.29-49.56-40.83Z" class="colorfcba06 svgShape"/><path fill="#ff6103" d="M800.64 1072s40-15.13 42.7-15.73a186.68 186.68 0 0 0-4.37-27.57c-7.8 1.72-49.17 13-49.88 14.17 1.11 4.13 11.55 29.13 11.55 29.13Z" class="colored9f00 svgShape"/><path fill="#ffb58a" d="M1015.56 638.05c3.12-23.45-4.94-43.26-12.74-56 0 0-21.86-30.75-21.31-62.09.71-40 64-50 82.17-40.8 23.38 13.75 27 34.59 32.11 62.2 0 0 11.22 25.69 11.44 27.41.33 2.52-7.55 2.31-7.89 3.54s2.3 16.81-2.37 23.51-20.18 5.14-24.79 8.18c-7.17 4.71-15.4 12.42-3.4 30.6 16.08 33.32-19.78 30.4-53.22 3.45Z" class="colorf7d3c9 svgShape"/><path fill="#cc7f52" d="M856.26 692.36a42.79 42.79 0 0 1 28.68-63c.32-.07 1.39-.31 1.61-.34 23.89-4 75.34-28.17 78.45-72.17 3.6-50.76 15.28-78 46.88-87 31.82-9 57.77 1.09 64.2 18.12 8.44 47.85-6.26 61.16-25.47 64.57-17.27 3.07-24.24 16.85-18.87 30 4.71 11.58-8.88 42.75-15.77 55.56 14.21 15.33 24.16 57.95-.06 80.32-16.39 15.15-39.47 18-58.35 7.36a59.17 59.17 0 1 1-101.32-33.43Z" class="color5652cc svgShape"/><path fill="#fbab7d" d="m1490.77 1866.41-33.13 6.73a7.39 7.39 0 0 0-5.55 4.9l-10.74 32a7.4 7.4 0 0 0 1.47 7.25l22.39 25.33a7.4 7.4 0 0 0 7 2.35l33.12-6.72a7.41 7.41 0 0 0 5.55-4.9l10.74-32.06a7.41 7.41 0 0 0-1.47-7.25l-22.39-25.33a7.4 7.4 0 0 0-6.99-2.3Z" class="color807dfb svgShape"/><path fill="#fc6206" d="M1775.28 308.37 1789.5 359a7.39 7.39 0 0 0 12.41 3.17l36.75-37.62a7.4 7.4 0 0 0-3.47-12.34l-51-13a7.4 7.4 0 0 0-8.91 9.16ZM197.16 763.89l-35.92 38.4a7.4 7.4 0 0 0 3.76 12.27l51.23 11.91a7.4 7.4 0 0 0 8.75-9.36l-15.3-50.32a7.4 7.4 0 0 0-12.52-2.9Z" class="colorfcba06 svgShape"/></g></svg>