<svg xmlns="http://www.w3.org/2000/svg" xmlns:xlink="http://www.w3.org/1999/xlink" data-name="Livello 1" viewBox="0 0 1600 1200"><defs><linearGradient id="c" x1="472.4" x2="540.46" y1="394.36" y2="394.36" gradientUnits="userSpaceOnUse"><stop offset="0" stop-color="#aa3f00" class="stopColor38aa00 svgShape"/><stop offset="1" stop-color="#552000" class="stopColor1c5500 svgShape"/></linearGradient><linearGradient id="a" x1="3465.31" x2="3548.24" y1="392.99" y2="392.99" gradientTransform="matrix(-1 0 0 1 4078.8 0)" gradientUnits="userSpaceOnUse"><stop offset="0" stop-color="#ff843c" class="stopColor3f3cff svgShape"/><stop offset="1" stop-color="#8b3400" class="stopColor20008b svgShape"/></linearGradient><linearGradient id="b" x1="3465.31" x2="3548.24" y1="392.99" y2="392.99" gradientTransform="matrix(-1 0 0 1 4078.8 0)" gradientUnits="userSpaceOnUse"><stop offset="0" stop-color="#f15900" class="stopColor1300f1 svgShape"/><stop offset="1" stop-color="#6a2800" class="stopColor1b006a svgShape"/></linearGradient><linearGradient id="d" x1="3465.31" x2="3548.24" y1="465.71" y2="465.71" xlink:href="#a"/><linearGradient id="e" x1="3465.31" x2="3548.24" y1="465.71" y2="465.71" xlink:href="#b"/><linearGradient id="f" x1="3465.31" x2="3548.24" y1="538.42" y2="538.42" xlink:href="#a"/><linearGradient id="g" x1="3465.31" x2="3548.24" y1="538.42" y2="538.42" xlink:href="#b"/><linearGradient id="h" x1="3465.31" x2="3548.24" y1="611.14" y2="611.14" xlink:href="#a"/><linearGradient id="i" x1="3465.31" x2="3548.24" y1="611.14" y2="611.14" xlink:href="#b"/><linearGradient id="j" x1="6295.88" x2="6378.8" y1="392.99" y2="392.99" gradientTransform="translate(-5530.01)" xlink:href="#a"/><linearGradient id="k" x1="6295.88" x2="6378.8" y1="392.99" y2="392.99" gradientTransform="translate(-5530.01)" xlink:href="#b"/><linearGradient id="l" x1="6295.88" x2="6378.8" y1="318.43" y2="318.43" gradientTransform="translate(-5530.01)" xlink:href="#a"/><linearGradient id="m" x1="6295.88" x2="6378.8" y1="318.43" y2="318.43" gradientTransform="translate(-5530.01)" xlink:href="#b"/><linearGradient id="n" x1="6295.88" x2="6378.8" y1="465.71" y2="465.71" gradientTransform="translate(-5530.01)" xlink:href="#a"/><linearGradient id="o" x1="6295.88" x2="6378.8" y1="465.71" y2="465.71" gradientTransform="translate(-5530.01)" xlink:href="#b"/><linearGradient id="p" x1="6295.88" x2="6378.8" y1="538.42" y2="538.42" gradientTransform="translate(-5530.01)" xlink:href="#a"/><linearGradient id="q" x1="6295.88" x2="6378.8" y1="538.42" y2="538.42" gradientTransform="translate(-5530.01)" xlink:href="#b"/><linearGradient id="r" x1="6295.88" x2="6378.8" y1="611.14" y2="611.14" gradientTransform="translate(-5530.01)" xlink:href="#a"/><linearGradient id="s" x1="6295.88" x2="6378.8" y1="611.14" y2="611.14" gradientTransform="translate(-5530.01)" xlink:href="#b"/><linearGradient id="t" x1="635.55" x2="703.61" y1="616.55" y2="616.55" xlink:href="#c"/><linearGradient id="u" x1="354.44" x2="422.5" y1="453.29" y2="453.29" xlink:href="#c"/><linearGradient id="v" x1="747.72" x2="815.78" y1="678.16" y2="678.16" xlink:href="#c"/><linearGradient id="w" x1="877.24" x2="945.3" y1="755.37" y2="755.37" xlink:href="#c"/><linearGradient id="x" x1="989.41" x2="1057.47" y1="816.98" y2="816.98" xlink:href="#c"/></defs><polygon fill="#ff6103" points="200.87 667.06 920.33 1083.13 1399.13 808.82 679.67 393.1 200.87 667.06" class="colord90 svgShape"/><polygon fill="#1e1e1e" points="200.87 667.06 200.87 694.81 920.33 1109.52 920.33 1083.13 200.87 667.06" class="color1e1e1e svgShape"/><polygon fill="#82725b" points="920.33 1109.52 1399.13 833.72 1399.13 808.82 920.33 1083.13 920.33 1109.52" class="color826d5b svgShape"/><polygon fill="#424242" points="950.65 941.59 950.65 941.59 337.97 588.38 200.87 667.06 920.33 1083.13 1059.16 1003.59 950.65 941.59" class="color424242 svgShape"/><polygon fill="#282828" points="1399.13 808.82 1399.13 833.72 920.33 1109.52 920.33 1083.13 1399.13 808.82" class="color282828 svgShape"/><ellipse cx="518.51" cy="536.93" fill="#a03c00" rx="16.17" ry="6.3" class="colora06e00 svgShape"/><path fill="#5e3014" d="M529.81,427.36l-3-1.61a1.48,1.48,0,0,0-2,.61l-14.27,26.73v-33.5a1.49,1.49,0,0,0-1.49-1.48h-5.22a1.48,1.48,0,0,0-1.48,1.48v33.5l-14.27-26.73a1.49,1.49,0,0,0-2-.61l-3,1.61a1.47,1.47,0,0,0-.61,2l18.7,35a1.49,1.49,0,0,0,1.19.78v72a1.48,1.48,0,0,0,1.48,1.48H509a1.49,1.49,0,0,0,1.49-1.48v-72a1.47,1.47,0,0,0,1.18-.78l18.71-35A1.48,1.48,0,0,0,529.81,427.36Z" class="color5e2e14 svgShape"/><ellipse cx="506.43" cy="394.36" fill="url(#c)" rx="34.03" ry="49.71"/><polygon fill="#a03c00" points="747.72 695.71 838.39 695.71 967.35 626.43 829.66 544.49 747.72 695.71" class="colora06e00 svgShape"/><polygon fill="#c6c6c6" points="630.39 493.85 514.41 560.87 514.41 628.29 631.06 695.71 747.72 695.71 864.24 629.9 864.24 560.87 747.37 493.41 630.39 493.85" class="colorc6c6c6 svgShape"/><polygon fill="#ededed" points="630.39 90.92 514.41 157.94 514.41 225.36 631.06 292.78 747.72 292.78 864.24 226.97 864.24 157.94 747.37 90.48 630.39 90.92" class="colorededed svgShape"/><polygon fill="#d6d6d6" points="514.41 225.36 514.41 628.29 631.06 695.71 631.06 292.78 514.41 225.36" class="colord6d6d6 svgShape"/><rect width="116.65" height="402.93" x="631.06" y="292.78" fill="#ffb58a" class="colorbfbfbf svgShape"/><polygon fill="#afafaf" points="747.72 292.78 864.24 226.97 864.24 629.9 747.72 695.71 747.72 292.78" class="colorafafaf svgShape"/><polygon fill="#937751" points="521.82 268.47 521.82 328.35 605.13 377.09 605.13 318.39 521.82 268.47" class="color938e51 svgShape"/><polygon fill="#604331" points="618.17 311.3 618.17 369.17 605.13 377.09 605.13 318.39 618.17 311.3" class="color605d31 svgShape"/><polygon fill="#704d38" points="521.82 268.47 534.86 260.63 618.17 311.3 605.13 318.39 521.82 268.47" class="color706d38 svgShape"/><polygon fill="#ffffff" points="531.64 298.56 531.64 310.34 534.99 312.2 534.99 308.3 538.42 310.25 538.42 314.19 541.62 316 541.62 304.45 538.37 302.59 538.37 306.41 534.99 304.4 535.03 300.64 531.64 298.56" class="colorfff svgShape"/><path fill="#ffffff" d="M545.05,306.35V318l9.94,5.8V312.24ZM552.26,319l-4.48-2.62v-5.23l4.48,2.66Z" class="colorfff svgShape"/><polygon fill="#ffffff" points="558.42 318 558.42 314.1 568.44 319.9 568.44 323.75 565.06 321.85 565.06 329.69 561.72 327.65 561.72 319.9 558.42 318" class="colorfff svgShape"/><polygon fill="#ffffff" points="571.88 321.9 571.88 333.45 581.76 339.3 581.76 336.93 575.17 333.08 575.17 330.78 581.76 334.43 581.76 331.92 575.22 328.16 575.22 326.17 581.76 329.83 581.76 327.65 571.88 321.9" class="colorfff svgShape"/><polygon fill="#ffffff" points="585.29 329.69 585.29 341.34 595.31 347 595.31 343.11 588.63 339.3 588.59 331.55 585.29 329.69" class="colorfff svgShape"/><polygon fill="url(#a)" points="613.49 393.08 613.49 441.25 530.57 393.08 530.57 344.74 613.49 393.08"/><polyline fill="url(#b)" points="540.89 350.75 540.89 351.62 540.89 387.7 613.49 429.51 613.49 441.25 530.57 393.08 530.57 344.74"/><polygon fill="#c6c6c6" points="613.49 441.24 604.59 446.36 521.82 397.8 530.57 392.99 613.49 441.24" class="colorc6c6c6 svgShape"/><polygon fill="#a3a3a3" points="604.59 452.95 604.59 446.36 613.49 441.24 613.49 447.83 604.59 452.95" class="colora3a3a3 svgShape"/><polygon fill="#8e8e8e" points="521.82 404.46 521.82 397.8 604.59 446.36 604.59 452.95 521.82 404.46" class="color8e8e8e svgShape"/><polygon fill="url(#d)" points="613.49 465.8 613.49 513.96 530.57 465.8 530.57 417.45 613.49 465.8"/><polyline fill="url(#e)" points="540.89 423.47 540.89 424.34 540.89 460.42 613.49 502.23 613.49 513.96 530.57 465.8 530.57 417.45"/><polygon fill="#c6c6c6" points="613.49 513.96 604.59 519.08 521.82 470.51 530.57 465.71 613.49 513.96" class="colorc6c6c6 svgShape"/><polygon fill="#a3a3a3" points="604.59 525.67 604.59 519.08 613.49 513.96 613.49 520.55 604.59 525.67" class="colora3a3a3 svgShape"/><polygon fill="#8e8e8e" points="521.82 477.18 521.82 470.51 604.59 519.08 604.59 525.67 521.82 477.18" class="color8e8e8e svgShape"/><polygon fill="url(#f)" points="613.49 538.51 613.49 586.68 530.57 538.51 530.57 490.17 613.49 538.51"/><polyline fill="url(#g)" points="540.89 496.19 540.89 497.05 540.89 533.13 613.49 574.94 613.49 586.68 530.57 538.51 530.57 490.17"/><polygon fill="#c6c6c6" points="613.49 586.67 604.59 591.79 521.82 543.23 530.57 538.42 613.49 586.67" class="colorc6c6c6 svgShape"/><polygon fill="#a3a3a3" points="604.59 598.38 604.59 591.79 613.49 586.67 613.49 593.26 604.59 598.38" class="colora3a3a3 svgShape"/><polygon fill="#8e8e8e" points="521.82 549.89 521.82 543.23 604.59 591.79 604.59 598.38 521.82 549.89" class="color8e8e8e svgShape"/><polygon fill="url(#h)" points="613.49 611.23 613.49 659.39 530.57 611.23 530.57 562.88 613.49 611.23"/><polyline fill="url(#i)" points="540.89 568.9 540.89 569.77 540.89 605.85 613.49 647.66 613.49 659.39 530.57 611.23 530.57 562.88"/><polygon fill="#c6c6c6" points="613.49 659.39 604.59 664.51 521.82 615.94 530.57 611.14 613.49 659.39" class="colorc6c6c6 svgShape"/><polygon fill="#a3a3a3" points="604.59 671.1 604.59 664.51 613.49 659.39 613.49 665.98 604.59 671.1" class="colora3a3a3 svgShape"/><polygon fill="#8e8e8e" points="521.82 622.61 521.82 615.94 604.59 664.51 604.59 671.1 521.82 622.61" class="color8e8e8e svgShape"/><polygon fill="url(#j)" points="765.87 393.08 765.87 441.25 848.79 393.08 848.79 344.74 765.87 393.08"/><polyline fill="url(#k)" points="838.47 350.75 838.47 351.62 838.47 387.7 765.87 429.51 765.87 441.25 848.79 393.08 848.79 344.74"/><polygon fill="#c6c6c6" points="765.87 441.24 774.77 446.36 857.53 397.8 848.79 392.99 765.87 441.24" class="colorc6c6c6 svgShape"/><polygon fill="#a3a3a3" points="774.77 452.95 774.77 446.36 765.87 441.24 765.87 447.83 774.77 452.95" class="colora3a3a3 svgShape"/><polygon fill="#8e8e8e" points="857.53 404.46 857.53 397.8 774.77 446.36 774.77 452.95 857.53 404.46" class="color8e8e8e svgShape"/><polygon fill="url(#l)" points="765.87 318.52 765.87 366.69 848.79 318.52 848.79 270.18 765.87 318.52"/><polyline fill="url(#m)" points="838.47 276.19 838.47 277.06 838.47 313.14 765.87 354.95 765.87 366.69 848.79 318.52 848.79 270.18"/><polygon fill="#c6c6c6" points="765.87 366.68 774.77 371.8 857.53 323.24 848.79 318.43 765.87 366.68" class="colorc6c6c6 svgShape"/><polygon fill="#a3a3a3" points="774.77 378.39 774.77 371.8 765.87 366.68 765.87 373.27 774.77 378.39" class="colora3a3a3 svgShape"/><polygon fill="#8e8e8e" points="857.53 329.9 857.53 323.24 774.77 371.8 774.77 378.39 857.53 329.9" class="color8e8e8e svgShape"/><polygon fill="url(#n)" points="765.87 465.8 765.87 513.96 848.79 465.8 848.79 417.45 765.87 465.8"/><polyline fill="url(#o)" points="838.47 423.47 838.47 424.34 838.47 460.42 765.87 502.23 765.87 513.96 848.79 465.8 848.79 417.45"/><polygon fill="#c6c6c6" points="765.87 513.96 774.77 519.08 857.53 470.51 848.79 465.71 765.87 513.96" class="colorc6c6c6 svgShape"/><polygon fill="#a3a3a3" points="774.77 525.67 774.77 519.08 765.87 513.96 765.87 520.55 774.77 525.67" class="colora3a3a3 svgShape"/><polygon fill="#8e8e8e" points="857.53 477.18 857.53 470.51 774.77 519.08 774.77 525.67 857.53 477.18" class="color8e8e8e svgShape"/><polygon fill="url(#p)" points="765.87 538.51 765.87 586.68 848.79 538.51 848.79 490.17 765.87 538.51"/><polyline fill="url(#q)" points="838.47 496.19 838.47 497.05 838.47 533.13 765.87 574.94 765.87 586.68 848.79 538.51 848.79 490.17"/><polygon fill="#c6c6c6" points="765.87 586.67 774.77 591.79 857.53 543.23 848.79 538.42 765.87 586.67" class="colorc6c6c6 svgShape"/><polygon fill="#a3a3a3" points="774.77 598.38 774.77 591.79 765.87 586.67 765.87 593.26 774.77 598.38" class="colora3a3a3 svgShape"/><polygon fill="#8e8e8e" points="857.53 549.89 857.53 543.23 774.77 591.79 774.77 598.38 857.53 549.89" class="color8e8e8e svgShape"/><polygon fill="url(#r)" points="765.87 611.23 765.87 659.39 848.79 611.23 848.79 562.88 765.87 611.23"/><polyline fill="url(#s)" points="838.47 568.9 838.47 569.77 838.47 605.85 765.87 647.66 765.87 659.39 848.79 611.23 848.79 562.88"/><polygon fill="#c6c6c6" points="765.87 659.39 774.77 664.51 857.53 615.94 848.79 611.14 765.87 659.39" class="colorc6c6c6 svgShape"/><polygon fill="#a3a3a3" points="774.77 671.1 774.77 664.51 765.87 659.39 765.87 665.98 774.77 671.1" class="colora3a3a3 svgShape"/><polygon fill="#8e8e8e" points="857.53 622.61 857.53 615.94 774.77 664.51 774.77 671.1 857.53 622.61" class="color8e8e8e svgShape"/><polygon fill="#a3a3a3" points="659.88 255.01 689.32 255.01 788.26 200.86 688.16 142.45 660.39 140.08 659.88 255.01" class="colora3a3a3 svgShape"/><polygon fill="#d6d6d6" points="570 192.43 659.88 244.78 750.79 192.43 660.39 140.08 570 192.43" class="colord6d6d6 svgShape"/><polygon fill="#bcbcbc" points="659.88 255.01 659.88 244.78 750.79 192.43 750.79 202.66 659.88 255.01" class="colorbcbcbc svgShape"/><polygon fill="#adadad" points="570 202.66 570 192.43 659.88 244.78 659.88 255.01 570 202.66" class="coloradadad svgShape"/><polygon fill="#a03c00" points="852.58 757.85 874.78 757.85 866.96 750.03 853.28 750.03 852.58 757.85" class="colora06e00 svgShape"/><polygon fill="#a03c00" points="881.09 774.51 903.28 774.51 895.47 766.69 881.79 766.69 881.09 774.51" class="colora06e00 svgShape"/><polygon fill="#a03c00" points="959.54 696.18 981.74 696.18 973.92 688.36 960.25 688.36 959.54 696.18" class="colora06e00 svgShape"/><polygon fill="#a03c00" points="988.05 712.85 1010.25 712.85 1002.43 705.03 988.76 705.03 988.05 712.85" class="colora06e00 svgShape"/><polygon fill="#3f2e24" points="852.58 711.77 852.58 757.85 847.72 755.09 847.72 708.94 852.58 711.77" class="color3f3624 svgShape"/><polygon fill="#543f32" points="852.58 757.85 857.22 754.98 857.22 709.1 852.58 711.77 852.58 757.85" class="color544732 svgShape"/><polygon fill="#3f2e24" points="959.54 650 959.54 696.08 954.68 693.32 954.68 647.17 959.54 650" class="color3f3624 svgShape"/><polygon fill="#543f32" points="959.54 696.08 964.18 693.21 964.18 647.33 959.54 650 959.54 696.08" class="color544732 svgShape"/><polygon fill="#3f2e24" points="988.05 666.66 988.05 712.74 983.19 709.98 983.19 663.83 988.05 666.66" class="color3f3624 svgShape"/><polygon fill="#543f32" points="988.05 712.74 992.69 709.87 992.69 663.99 988.05 666.66 988.05 712.74" class="color544732 svgShape"/><polygon fill="#352821" points="983.19 668.37 959.54 654.5 959.54 650 983.19 663.83 983.19 668.37" class="color352d21 svgShape"/><polygon fill="#9e4c1b" points="992.69 664.12 958.66 644.45 847.72 708.98 881.09 728.43 992.69 664.12" class="color9e791b svgShape"/><polygon fill="#3f2e24" points="865.32 650.71 865.32 702.57 860.75 699.48 860.75 648.06 865.32 650.71" class="color3f3624 svgShape"/><polygon fill="#543f32" points="865.32 650.71 865.32 702.57 869.89 699.48 869.89 648.06 865.32 650.71" class="color544732 svgShape"/><polygon fill="#3a2a21" points="860.75 648.06 865.32 645.33 869.89 648.06 865.32 650.71 860.75 648.06" class="color3a3021 svgShape"/><polygon fill="#3f2e24" points="932.27 612.02 932.27 663.88 927.7 660.79 927.7 609.37 932.27 612.02" class="color3f3624 svgShape"/><polygon fill="#543f32" points="932.27 612.02 932.27 663.88 936.83 660.79 936.83 609.37 932.27 612.02" class="color544732 svgShape"/><polygon fill="#3a2a21" points="927.7 609.37 932.27 606.64 936.83 609.37 932.27 612.02 927.7 609.37" class="color3a3021 svgShape"/><polygon fill="#c15e23" points="992.69 658.59 958.66 638.92 847.72 703.46 881.09 722.9 992.69 658.59" class="colorc19723 svgShape"/><polygon fill="#9e4c1b" points="847.72 703.46 847.72 708.98 881.09 728.43 881.09 722.9 847.72 703.46" class="color9e791b svgShape"/><polygon fill="#8c4317" points="992.69 658.59 992.69 664.12 881.09 728.43 881.09 722.9 992.69 658.59" class="color8c6817 svgShape"/><polygon fill="#3f2e24" points="881.09 728.43 881.09 774.51 876.23 771.75 876.23 725.6 881.09 728.43" class="color3f3624 svgShape"/><polygon fill="#543f32" points="881.09 774.51 885.73 771.63 885.73 725.75 881.09 728.43 881.09 774.51" class="color544732 svgShape"/><polygon fill="#352821" points="876.23 730.14 852.58 716.27 852.58 711.77 876.23 725.6 876.23 730.14" class="color352d21 svgShape"/><polygon fill="#3f2e24" points="881.09 728.43 881.09 774.51 876.23 771.75 876.23 725.6 881.09 728.43" class="color3f3624 svgShape"/><polygon fill="#543f32" points="881.09 774.51 885.73 771.63 885.73 725.75 881.09 728.43 881.09 774.51" class="color544732 svgShape"/><polygon fill="#352821" points="876.23 730.14 852.58 716.27 852.58 711.77 876.23 725.6 876.23 730.14" class="color352d21 svgShape"/><polygon fill="#c15e23" points="956.37 602.16 956.37 614.87 847.64 677.73 847.64 664.81 956.37 602.16" class="colorc19723 svgShape"/><polygon fill="#aa5421" points="847.64 664.81 843.88 662.71 843.88 675.63 847.64 677.73 847.64 664.81" class="coloraa8321 svgShape"/><polygon fill="#964b1e" points="843.88 662.71 952.85 600.12 956.37 602.16 847.64 664.81 843.88 662.71" class="color96711e svgShape"/><polygon fill="#c15e23" points="956.37 623.49 956.37 636.19 847.64 699.06 847.64 686.13 956.37 623.49" class="colorc19723 svgShape"/><polygon fill="#aa5421" points="847.64 686.13 843.88 684.03 843.88 696.96 847.64 699.06 847.64 686.13" class="coloraa8321 svgShape"/><polygon fill="#964b1e" points="843.88 684.03 952.85 621.44 956.37 623.49 847.64 686.13 843.88 684.03" class="color96711e svgShape"/><polygon fill="#ffbf66" points="976.85 667.72 926.61 657.56 918.95 662.02 969.17 672.15 976.85 667.72" class="colord3a32d svgShape"/><polygon fill="#ffbf66" points="959.94 677.48 909.71 667.32 902.04 671.78 952.26 681.91 959.94 677.48" class="colord3a32d svgShape"/><polygon fill="#a03c00" points="990.43 841.14 1012.63 841.14 1004.81 833.32 991.14 833.32 990.43 841.14" class="colora06e00 svgShape"/><polygon fill="#a03c00" points="1018.94 857.79 1041.14 857.79 1033.32 849.98 1019.65 849.98 1018.94 857.79" class="colora06e00 svgShape"/><polygon fill="#a03c00" points="1097.39 779.47 1119.59 779.47 1111.78 771.65 1098.1 771.65 1097.39 779.47" class="colora06e00 svgShape"/><polygon fill="#a03c00" points="1125.9 796.13 1148.1 796.13 1140.28 788.32 1126.61 788.32 1125.9 796.13" class="colora06e00 svgShape"/><polygon fill="#3f2e24" points="990.43 795.06 990.43 841.14 985.57 838.37 985.57 792.23 990.43 795.06" class="color3f3624 svgShape"/><polygon fill="#543f32" points="990.43 841.14 995.07 838.26 995.07 792.38 990.43 795.06 990.43 841.14" class="color544732 svgShape"/><polygon fill="#3f2e24" points="1097.39 733.29 1097.39 779.37 1092.53 776.61 1092.53 730.46 1097.39 733.29" class="color3f3624 svgShape"/><polygon fill="#543f32" points="1097.39 779.37 1102.04 776.49 1102.04 730.62 1097.39 733.29 1097.39 779.37" class="color544732 svgShape"/><polygon fill="#3f2e24" points="1125.9 749.95 1125.9 796.02 1121.04 793.26 1121.04 747.11 1125.9 749.95" class="color3f3624 svgShape"/><polygon fill="#543f32" points="1125.9 796.02 1130.55 793.15 1130.55 747.27 1125.9 749.95 1125.9 796.02" class="color544732 svgShape"/><polygon fill="#352821" points="1121.04 751.66 1097.39 737.79 1097.39 733.29 1121.04 747.11 1121.04 751.66" class="color352d21 svgShape"/><polygon fill="#9e4c1b" points="1130.55 747.41 1096.51 727.74 985.57 792.27 1018.94 811.72 1130.55 747.41" class="color9e791b svgShape"/><polygon fill="#3f2e24" points="1003.18 734 1003.18 785.86 998.61 782.76 998.61 731.35 1003.18 734" class="color3f3624 svgShape"/><polygon fill="#543f32" points="1003.18 734 1003.18 785.86 1007.74 782.76 1007.74 731.35 1003.18 734" class="color544732 svgShape"/><polygon fill="#3a2a21" points="998.61 731.35 1003.18 728.62 1007.74 731.35 1003.18 734 998.61 731.35" class="color3a3021 svgShape"/><polygon fill="#3f2e24" points="1070.12 695.31 1070.12 747.17 1065.55 744.08 1065.55 692.66 1070.12 695.31" class="color3f3624 svgShape"/><polygon fill="#543f32" points="1070.12 695.31 1070.12 747.17 1074.69 744.08 1074.69 692.66 1070.12 695.31" class="color544732 svgShape"/><polygon fill="#3a2a21" points="1065.55 692.66 1070.12 689.93 1074.69 692.66 1070.12 695.31 1065.55 692.66" class="color3a3021 svgShape"/><polygon fill="#c15e23" points="1130.55 741.88 1096.51 722.21 985.57 786.74 1018.94 806.19 1130.55 741.88" class="colorc19723 svgShape"/><polygon fill="#9e4c1b" points="985.57 786.74 985.57 792.27 1018.94 811.72 1018.94 806.19 985.57 786.74" class="color9e791b svgShape"/><polygon fill="#8c4317" points="1130.55 741.88 1130.55 747.41 1018.94 811.72 1018.94 806.19 1130.55 741.88" class="color8c6817 svgShape"/><polygon fill="#3f2e24" points="1018.94 811.72 1018.94 857.79 1014.08 855.03 1014.08 808.88 1018.94 811.72" class="color3f3624 svgShape"/><polygon fill="#543f32" points="1018.94 857.79 1023.58 854.92 1023.58 809.04 1018.94 811.72 1018.94 857.79" class="color544732 svgShape"/><polygon fill="#352821" points="1014.08 813.43 990.43 799.56 990.43 795.06 1014.08 808.88 1014.08 813.43" class="color352d21 svgShape"/><polygon fill="#3f2e24" points="1018.94 811.72 1018.94 857.79 1014.08 855.03 1014.08 808.88 1018.94 811.72" class="color3f3624 svgShape"/><polygon fill="#543f32" points="1018.94 857.79 1023.58 854.92 1023.58 809.04 1018.94 811.72 1018.94 857.79" class="color544732 svgShape"/><polygon fill="#352821" points="1014.08 813.43 990.43 799.56 990.43 795.06 1014.08 808.88 1014.08 813.43" class="color352d21 svgShape"/><polygon fill="#c15e23" points="1094.23 685.45 1094.23 698.15 985.5 761.02 985.5 748.09 1094.23 685.45" class="colorc19723 svgShape"/><polygon fill="#aa5421" points="985.5 748.09 981.74 745.99 981.74 758.92 985.5 761.02 985.5 748.09" class="coloraa8321 svgShape"/><polygon fill="#964b1e" points="981.74 745.99 1090.7 683.4 1094.23 685.45 985.5 748.09 981.74 745.99" class="color96711e svgShape"/><polygon fill="#c15e23" points="1094.23 706.77 1094.23 719.48 985.5 782.35 985.5 769.42 1094.23 706.77" class="colorc19723 svgShape"/><polygon fill="#aa5421" points="985.5 769.42 981.74 767.32 981.74 780.25 985.5 782.35 985.5 769.42" class="coloraa8321 svgShape"/><polygon fill="#964b1e" points="981.74 767.32 1090.7 704.73 1094.23 706.77 985.5 769.42 981.74 767.32" class="color96711e svgShape"/><polygon fill="#ffbf66" points="1114.7 751.01 1064.47 740.85 1056.8 745.31 1107.02 755.43 1114.7 751.01" class="colord3a32d svgShape"/><polygon fill="#ffbf66" points="1097.8 760.77 1047.56 750.61 1039.9 755.07 1090.12 765.2 1097.8 760.77" class="colord3a32d svgShape"/><ellipse cx="681.66" cy="759.11" fill="#a03c00" rx="16.17" ry="6.3" class="colora06e00 svgShape"/><path fill="#5e3014" d="M693,649.54l-3-1.6a1.49,1.49,0,0,0-2,.61l-14.26,26.72V641.78a1.49,1.49,0,0,0-1.49-1.48H667a1.48,1.48,0,0,0-1.48,1.48v33.49l-14.27-26.72a1.48,1.48,0,0,0-2-.61l-3,1.6a1.49,1.49,0,0,0-.61,2l18.7,35a1.49,1.49,0,0,0,1.19.78v72a1.48,1.48,0,0,0,1.48,1.48h5.22a1.49,1.49,0,0,0,1.49-1.48v-72a1.47,1.47,0,0,0,1.18-.78l18.71-35A1.5,1.5,0,0,0,693,649.54Z" class="color5e2e14 svgShape"/><ellipse cx="669.58" cy="616.55" fill="url(#t)" rx="34.03" ry="49.71"/><ellipse cx="400.55" cy="595.86" fill="#a03c00" rx="16.17" ry="6.3" class="colora06e00 svgShape"/><path fill="#5e3014" d="M411.85,486.29l-3-1.61a1.5,1.5,0,0,0-2,.61L392.57,512v-33.5a1.49,1.49,0,0,0-1.49-1.48h-5.22a1.48,1.48,0,0,0-1.48,1.48V512l-14.27-26.73a1.5,1.5,0,0,0-2-.61l-3,1.61a1.47,1.47,0,0,0-.61,2l18.7,35.05a1.5,1.5,0,0,0,1.19.77v72a1.48,1.48,0,0,0,1.48,1.48h5.22a1.49,1.49,0,0,0,1.49-1.48v-72a1.48,1.48,0,0,0,1.18-.77l18.71-35.05A1.48,1.48,0,0,0,411.85,486.29Z" class="color5e2e14 svgShape"/><ellipse cx="388.47" cy="453.29" fill="url(#u)" rx="34.03" ry="49.71"/><ellipse cx="793.82" cy="820.72" fill="#a03c00" rx="16.17" ry="6.3" class="colora06e00 svgShape"/><path fill="#5e3014" d="M805.12,711.15l-3-1.6a1.47,1.47,0,0,0-2,.61l-14.27,26.72V703.39a1.49,1.49,0,0,0-1.48-1.49h-5.23a1.49,1.49,0,0,0-1.48,1.49v33.49l-14.27-26.72a1.47,1.47,0,0,0-2-.61l-3,1.6a1.5,1.5,0,0,0-.61,2l18.71,35a1.49,1.49,0,0,0,1.18.78v72a1.49,1.49,0,0,0,1.48,1.48h5.23a1.49,1.49,0,0,0,1.48-1.48V749a1.49,1.49,0,0,0,1.18-.78l18.71-35A1.5,1.5,0,0,0,805.12,711.15Z" class="color5e2e14 svgShape"/><ellipse cx="781.75" cy="678.16" fill="url(#v)" rx="34.03" ry="49.71"/><ellipse cx="923.35" cy="897.93" fill="#a03c00" rx="16.17" ry="6.3" class="colora06e00 svgShape"/><path fill="#5e3014" d="M934.65,788.37l-3-1.61a1.5,1.5,0,0,0-2,.61L915.37,814.1V780.6a1.49,1.49,0,0,0-1.49-1.48h-5.22a1.48,1.48,0,0,0-1.48,1.48v33.5l-14.27-26.73a1.5,1.5,0,0,0-2-.61l-3,1.61a1.47,1.47,0,0,0-.61,2l18.7,35a1.49,1.49,0,0,0,1.19.78v72a1.48,1.48,0,0,0,1.48,1.48h5.22a1.49,1.49,0,0,0,1.49-1.48v-72a1.47,1.47,0,0,0,1.18-.78l18.71-35A1.48,1.48,0,0,0,934.65,788.37Z" class="color5e2e14 svgShape"/><ellipse cx="911.27" cy="755.37" fill="url(#w)" rx="34.03" ry="49.71"/><ellipse cx="1035.51" cy="959.54" fill="#a03c00" rx="16.17" ry="6.3" class="colora06e00 svgShape"/><path fill="#5e3014" d="M1046.81,850l-3-1.6a1.47,1.47,0,0,0-2,.61l-14.27,26.73v-33.5a1.48,1.48,0,0,0-1.48-1.48h-5.23a1.48,1.48,0,0,0-1.48,1.48v33.5L1005.07,849a1.47,1.47,0,0,0-2-.61l-3,1.6a1.5,1.5,0,0,0-.61,2l18.71,35a1.47,1.47,0,0,0,1.18.78v72a1.48,1.48,0,0,0,1.48,1.48h5.23a1.48,1.48,0,0,0,1.48-1.48v-72a1.47,1.47,0,0,0,1.18-.78l18.71-35A1.5,1.5,0,0,0,1046.81,850Z" class="color5e2e14 svgShape"/><ellipse cx="1023.44" cy="816.98" fill="url(#x)" rx="34.03" ry="49.71"/><polygon fill="#ad653b" points="541.25 785.42 604.84 748.66 604.84 773.23 541.25 809.72 541.25 785.42" class="color3bada7 svgShape"/><polygon fill="#935531" points="604.84 748.66 572.99 718.68 509.91 754.8 541.25 785.42 604.84 748.66" class="color319390 svgShape"/><polygon fill="#ad653b" points="499.28 700.01 562.39 663.4 572.99 718.68 509.91 754.8 499.28 700.01" class="color3bada7 svgShape"/><polygon fill="#e06e2b" points="505.31 701.5 558.1 670.87 566.96 717.11 514.2 747.34 505.31 701.5" class="color2b9fe0 svgShape"/><polygon fill="#935531" points="562.39 663.4 478.03 615.17 414.98 651.48 499.28 700.01 562.39 663.4" class="color319390 svgShape"/><polygon fill="#353332" points="395.64 722.94 491.05 777.43 519.25 763.93 399.93 701.26 395.64 722.94" class="color353332 svgShape"/><path fill="#282828" d="M491.05,777.43l-5.45-5.82,9.77-5.85a9.8,9.8,0,0,1,1.15-.74l.06,0h0c3.2-1.69,7.52-1.4,12.26,1.3,9.79,5.6,17.8,19.55,17.8,31,0,5-1.51,8.68-4,10.81h0a8.21,8.21,0,0,1-2.13,1.31l-9.85,6.06-5.24-10.18C497.43,798.82,491.34,787.24,491.05,777.43Z" class="color282828 svgShape"/><path fill="#111010" d="M515.81,803.85c0-11.47-8-25.42-17.8-31s-17.81-.91-17.81,10.42,8,25.28,17.81,31S515.81,815.31,515.81,803.85Z" class="color111010 svgShape"/><path fill="#ffb58a" d="M510.15,800.59c0-7.82-5.47-17.34-12.14-21.15s-12.14-.61-12.14,7.11,5.46,17.23,12.14,21.14S510.15,808.4,510.15,800.59Z" class="colorbfbfbf svgShape"/><path fill="#774325" d="M504.7,797.45A14.82,14.82,0,0,0,498,785.8c-3.68-2.11-6.69-.34-6.69,3.91A15,15,0,0,0,498,801.36C501.69,803.52,504.7,801.75,504.7,797.45Z" class="color257775 svgShape"/><polygon fill="#935531" points="383.13 682.03 411.54 665.93 404.81 694.22 383.13 682.03" class="color319390 svgShape"/><path fill="#282828" d="M406.5,729,401,723.12l9.77-5.84a8.31,8.31,0,0,1,1.15-.74l.07,0h0c3.2-1.7,7.52-1.4,12.26,1.3,9.79,5.59,17.81,19.55,17.81,31,0,5-1.52,8.69-4,10.82h0a8.73,8.73,0,0,1-2.14,1.31L426.07,767l-5.23-10.18C412.88,750.34,406.79,738.76,406.5,729Z" class="color282828 svgShape"/><path fill="#111010" d="M431.26,755.37c0-11.47-8-25.42-17.81-31s-17.81-.9-17.81,10.43,8,25.27,17.81,31S431.26,766.83,431.26,755.37Z" class="color111010 svgShape"/><path fill="#ffb58a" d="M425.59,752.1c0-7.81-5.46-17.33-12.14-21.14s-12.14-.62-12.14,7.1,5.46,17.24,12.14,21.15S425.59,759.92,425.59,752.1Z" class="colorbfbfbf svgShape"/><path fill="#774325" d="M420.14 749a14.84 14.84 0 00-6.69-11.65c-3.68-2.1-6.69-.34-6.69 3.92a15 15 0 006.69 11.65C417.13 755 420.14 753.27 420.14 749zM541.25 785.42l-31.34-30.61L499.28 700 415 651.48l-10.17 42.74L383.13 682v36.3l14 8.09c1.27-10.3 9.48-14.19 19.35-8.56s18.09 19 19.34 30.92l45.75 26.44c1.31-10.21 9.5-14.05 19.33-8.43s18 18.92 19.33 30.77l21 12.16z" class="color257775 svgShape"/><polygon fill="#e06e2b" points="497.72 745.05 490.13 703.5 453.46 682.91 453.46 719.64 497.72 745.05" class="color2b9fe0 svgShape"/><polygon fill="#e06e2b" points="447.5 716.27 447.5 680.08 420.16 664.61 412.7 695.8 447.5 716.27" class="color2b9fe0 svgShape"/><polygon fill="#f78441" points="427.46 668.74 428.89 705.32 412.7 695.8 420.16 664.61 427.46 668.74" class="color41bff7 svgShape"/><polygon fill="#f78441" points="434.9 672.95 436.28 709.67 444.93 714.75 442.97 677.51 434.9 672.95" class="color41bff7 svgShape"/><polygon fill="#f78441" points="453.46 682.91 463.13 688.34 468.11 728.05 453.46 719.64 453.46 682.91" class="color41bff7 svgShape"/><polygon fill="#f78441" points="472.94 693.85 479.88 734.81 490.08 740.66 481.51 698.66 472.94 693.85" class="color41bff7 svgShape"/><polygon fill="#f78441" points="515.82 695.4 539.37 732.92 514.2 747.34 505.31 701.5 515.82 695.4" class="color41bff7 svgShape"/><polygon fill="#f78441" points="526.65 689.11 551.28 726.1 562.39 719.74 538.6 682.18 526.65 689.11" class="color41bff7 svgShape"/><polygon fill="#111010" points="444.74 724.42 432.75 717.48 432.75 722.12 444.74 729 444.74 724.42" class="color111010 svgShape"/><polygon fill="#111010" points="468.11 737.33 456.11 730.4 456.11 735.03 468.11 741.92 468.11 737.33" class="color111010 svgShape"/><path fill="#d3d3d3" d="M564.55,785.79c0-1.94-1.6-2.6-3.55-1.47l-10.52,6.08a15.37,15.37,0,0,0,4.64,4.33l5.87-3.37A7.36,7.36,0,0,0,564.55,785.79Z" class="colord3d3d3 svgShape"/><path fill="#ededed" d="M550.48 790.4l-.62.36a7.35 7.35 0 00-3.55 5.54c0 1.92 1.6 2.56 3.56 1.44l5.25-3A15.37 15.37 0 01550.48 790.4zM585.48 769.93l-.48.28a7.34 7.34 0 00-3.56 5.54c0 1.92 1.61 2.56 3.56 1.44l5.56-3.19A17.35 17.35 0 01585.48 769.93z" class="colorededed svgShape"/><path fill="#d3d3d3" d="M599.69,765.24c0-1.94-1.6-2.6-3.56-1.47l-10.65,6.16a17.35,17.35,0,0,0,5.08,4.07l5.57-3.19A7.36,7.36,0,0,0,599.69,765.24Z" class="colord3d3d3 svgShape"/><path fill="#444444" d="M745.52 932.4L739 928.45s3.16-6.64 3.79-7.11 6.79-5.06 10.59-4.42 5.68-.4 6.63 2.6a28.4 28.4 0 011.11 6.26zM634.14 867.62l-6.48-4s3.16-6.63 3.8-7.11 6.79-5 10.58-4.42 5.69-.4 6.64 2.61a28.4 28.4 0 011.11 6.26z" class="color444 svgShape"/><path fill="#282828" d="M640.07,868.81l-5.23-5.59,9.37-5.6a8.86,8.86,0,0,1,1.09-.71l.07,0h0c3.07-1.62,7.21-1.34,11.76,1.25,9.39,5.36,17.07,18.74,17.07,29.73,0,4.78-1.46,8.33-3.87,10.37h0a8.26,8.26,0,0,1-2,1.26l-9.44,5.81-5-9.76C646.18,889.31,640.34,878.21,640.07,868.81Z" class="color282828 svgShape"/><path fill="#111010" d="M663.81,894.13c0-11-7.69-24.37-17.08-29.73s-17.07-.86-17.07,10,7.68,24.24,17.07,29.74S663.81,905.13,663.81,894.13Z" class="color111010 svgShape"/><path fill="#828282" d="M658.37,891c0-7.5-5.23-16.62-11.64-20.28s-11.64-.59-11.64,6.82,5.24,16.52,11.64,20.27S658.37,898.5,658.37,891Z" class="color828282 svgShape"/><path fill="#282828" d="M653.15 888a14.21 14.21 0 00-6.42-11.17c-3.52-2-6.41-.33-6.41 3.75a14.38 14.38 0 006.41 11.17C650.26 893.82 653.15 892.13 653.15 888zM751.22 932.45L746 926.87l9.36-5.6a8.66 8.66 0 011.1-.72l.07 0h0c3.07-1.63 7.21-1.35 11.75 1.25 9.39 5.36 17.08 18.74 17.08 29.73 0 4.78-1.46 8.33-3.87 10.37h0a8.26 8.26 0 01-2 1.26l-9.45 5.8-5-9.75C757.34 953 751.5 941.86 751.22 932.45z" class="color282828 svgShape"/><path fill="#111010" d="M775,957.78c0-11-7.68-24.37-17.07-29.73s-17.07-.87-17.07,10,7.68,24.24,17.07,29.73S775,968.77,775,957.78Z" class="color111010 svgShape"/><path fill="#828282" d="M769.53,954.65c0-7.49-5.24-16.61-11.64-20.27s-11.64-.59-11.64,6.81,5.24,16.53,11.64,20.28S769.53,962.15,769.53,954.65Z" class="color828282 svgShape"/><path fill="#282828" d="M764.31,951.64a14.23,14.23,0,0,0-6.42-11.17c-3.53-2-6.41-.32-6.41,3.76a14.37,14.37,0,0,0,6.41,11.17C761.42,957.46,764.31,955.77,764.31,951.64Z" class="color282828 svgShape"/><polygon fill="#ff8f4d" points="862.33 901.07 862.33 922.95 798.82 959.92 798.82 937.94 862.33 901.07" class="colorff4d4d svgShape"/><polygon fill="#f76e1c" points="791.95 927.07 754.36 900.67 818.04 864.01 855.47 890.21 791.95 927.07" class="colorf71c1c svgShape"/><polygon fill="#f76e1c" points="750.1 816.19 682 794.96 619.74 831.83 651.24 849.74 750.1 816.19" class="colorf71c1c svgShape"/><path fill="#cc5711" d="M792,927l-37.24-26.49L746,856l-64-36.81-25,24.77-37.31-12.13V856l12,7c3-6.31,9.94-8,18-3.43s15,14.38,18,24.3l74.57,43.27c3-6.44,10-8.21,18-3.6s15.16,14.56,18.09,24.56l13.53,8,6.87,3.87v-22Z" class="colorc11 svgShape"/><polygon fill="#ff8f4d" points="754.36 900.67 745.99 856 809.53 819.19 818.04 864.01 754.36 900.67" class="colorff4d4d svgShape"/><polygon fill="#f48b4e" points="761.08 892.22 754.29 856.83 803.53 828.3 810.43 863.81 761.08 892.22" class="color5a4ef4 svgShape"/><polygon fill="#f76e1c" points="809.53 819.19 745.99 783.16 682 819.19 745.99 856 809.53 819.19" class="colorf71c1c svgShape"/><polygon fill="#f48b4e" points="748.68 904.83 739.83 860.43 709.28 842.89 709.28 881.13 748.68 904.83" class="color5a4ef4 svgShape"/><polygon fill="#f48b4e" points="703.01 878.05 703.01 840.52 682.63 828.83 658.93 851.98 703.01 878.05" class="color5a4ef4 svgShape"/><path fill="#d8d8d8" d="M852.85 911.53c3-1.65 5.38-.27 5.38 3.06a11.65 11.65 0 01-5.38 9.11c-3 1.68-5.37.3-5.37-3.06A11.57 11.57 0 01852.85 911.53zM809.53 937.23c3-1.65 5.38-.27 5.38 3.06a11.65 11.65 0 01-5.38 9.11c-2.95 1.68-5.37.31-5.37-3A11.57 11.57 0 01809.53 937.23z" class="colord8d8d8 svgShape"/><polygon fill="#21201f" points="842.85 920.93 842.85 927.54 820.41 940.43 820.41 933.82 842.85 920.93" class="color211f1f svgShape"/><polygon fill="#161515" points="713.93 893.28 713.93 896.89 726.22 903.95 726.22 900.33 713.93 893.28" class="color161515 svgShape"/><polygon fill="#161515" points="685.65 877 685.65 880.62 697.94 887.68 697.94 884.06 685.65 877" class="color161515 svgShape"/><polygon fill="#b54e10" points="862.33 922.95 862.33 927.42 798.82 964.71 798.82 959.92 862.33 922.95" class="colorb51010 svgShape"/><path fill="#963f0c" d="M798.82 959.92v4.79L779.59 953.5a38.38 38.38 0 00-1.17-5.42zM630.58 866.59l-10.84-6.32V856l12 7A15.61 15.61 0 00630.58 866.59zM742.3 927.12a16.4 16.4 0 00-1.19 3.94l-72.22-42.13a39.47 39.47 0 00-1.16-5.08z" class="color960c0c svgShape"/><polygon fill="#ff863e" points="791.95 927.01 798.82 937.94 862.33 901.07 855.47 890.21 791.95 927.01" class="colorff3e3e svgShape"/><polygon fill="#ffa571" points="695.73 836.34 679.28 864.01 703.01 878.05 703.01 840.52 695.73 836.34" class="color7471ff svgShape"/><polygon fill="#ffa571" points="690.58 833.39 673.68 860.7 668.59 857.69 685.65 830.56 690.58 833.39" class="color7471ff svgShape"/><polygon fill="#ffa571" points="709.28 842.89 721.21 849.74 726.22 891.32 709.28 881.13 709.28 842.89" class="color7471ff svgShape"/><polygon fill="#ffa571" points="729.02 854.22 734.21 896.13 741.76 900.67 735.37 857.87 729.02 854.22" class="color7471ff svgShape"/><polygon fill="#ffa571" points="767.04 849.45 786.75 877.44 761.08 892.22 754.29 856.83 767.04 849.45" class="color7471ff svgShape"/><polygon fill="#ffa571" points="778.36 842.89 798.23 870.83 805.69 866.54 785.71 838.63 778.36 842.89" class="color7471ff svgShape"/></svg>