<svg xmlns="http://www.w3.org/2000/svg" xmlns:xlink="http://www.w3.org/1999/xlink" data-name="Layer 1" viewBox="0 0 4000 4000"><defs><linearGradient id="a" x1="1663.984" x2="1663.984" y1="913.901" y2="2872.374" gradientTransform="rotate(-48.249 1723.646 1921.757)" gradientUnits="userSpaceOnUse"><stop offset="0" stop-color="#ffffff" class="stopColorfff svgShape"/><stop offset=".1" stop-color="#fafafa" class="stopColorfafafa svgShape"/><stop offset=".223" stop-color="#ebebeb" class="stopColorebebeb svgShape"/><stop offset=".358" stop-color="#d1d1d1" class="stopColord1d1d1 svgShape"/><stop offset=".502" stop-color="#ffb58a" class="stopColoraeaeae svgShape"/><stop offset=".654" stop-color="#818181" class="stopColor818181 svgShape"/><stop offset=".811" stop-color="#ff6103" class="stopColor4a4a4a svgShape"/><stop offset=".971" stop-color="#0a0a0a" class="stopColor0a0a0a svgShape"/><stop offset=".994" stop-color="#000000" class="stopColor000000 svgShape"/></linearGradient><linearGradient id="g" x1="2071.164" x2="2071.164" y1="1505.062" y2="3324.51" gradientTransform="rotate(-48.249 2079.146 2296.412)" xlink:href="#a"/><linearGradient id="b" x1="1663.984" x2="1663.984" y1="913.901" y2="2872.374" gradientTransform="rotate(-48.249 1723.646 1921.757)" gradientUnits="userSpaceOnUse"><stop offset="0" stop-color="#ffffff" class="stopColorfff svgShape"/><stop offset=".994" stop-color="#ffffff" class="stopColorfff svgShape"/></linearGradient><linearGradient id="k" x1="2071.164" x2="2071.164" y1="1505.062" y2="3324.51" gradientTransform="rotate(-48.249 2079.146 2296.412)" xlink:href="#b"/><filter id="d" width="1827.472" height="2224.024" x="748.896" y="835.199" color-interpolation-filters="sRGB" filterUnits="userSpaceOnUse"><feFlood flood-color="#fff" result="bg"/><feBlend in="SourceGraphic" in2="bg"/></filter><filter id="f" width="1679.042" height="2111.346" x="1322.706" y="1325.521" color-interpolation-filters="sRGB" filterUnits="userSpaceOnUse"><feFlood flood-color="#fff" result="bg"/><feBlend in="SourceGraphic" in2="bg"/></filter><mask id="i" width="1827.472" height="2224.024" x="748.896" y="835.199" maskUnits="userSpaceOnUse"><g filter="url(#d)" mask="url(#c)"><path transform="rotate(37.203 1662.632 1947.21)" style="mix-blend-mode:multiply" fill="url(#a)" d="M1456.483 707.575h412.299v2479.272h-412.299z"/></g></mask><mask id="j" width="1679.042" height="2111.346" x="1322.706" y="1325.521" maskUnits="userSpaceOnUse"><g filter="url(#f)" mask="url(#e)"><path transform="rotate(37.203 2162.227 2381.194)" style="mix-blend-mode:multiply" fill="url(#g)" d="M2049.254 1141.558H2275.2V3620.83h-225.946z"/></g></mask><clipPath id="h"><path fill="none" d="M2572.476 2707.505c177.314-286.455 253.027-681.702 225.131-1175.04-40.683 2.852-136.435 6.158-258.76-12.23-144.73-21.763-354.247-79.444-538.847-230.225-184.602 150.781-394.119 208.462-538.852 230.224-122.315 18.389-218.072 15.09-258.755 12.232-27.896 493.337 47.817 888.584 225.131 1175.039 145.923 235.747 328.443 345.566 455.86 396.177a314.694 314.694 0 0 0 233.232 0c127.417-50.61 309.937-160.43 455.86-396.177Z"/></clipPath></defs><circle cx="2020" cy="1855" r="1335" fill="#eb8347" class="color47ebe0 svgShape"/><path fill="#665b55" d="M1999.998 3314.999a410.525 410.525 0 0 1-152.202-29.124c-153.652-61.032-373.579-193.188-548.745-476.176-212.61-343.48-301.865-816.78-265.286-1406.756a25.002 25.002 0 0 1 27.913-23.276c.352.041 37.253 4.321 97.861 4.321 182.923-.005 533.25-36.79 824.314-283.074a24.996 24.996 0 0 1 32.295 0c291.08 246.3 641.397 283.074 824.312 283.074 60.586-.002 97.512-4.28 97.876-4.324a25.019 25.019 0 0 1 27.9 23.28c36.577 589.975-52.678 1063.276-265.288 1406.755-175.166 282.988-395.093 415.144-548.745 476.176A410.529 410.529 0 0 1 1999.998 3315Z" class="color556566 svgShape"/><path fill="#3e2f26" d="M2000 1120c301.353 254.99 666.922 288.988 840.462 288.988 63.106 0 100.82-4.496 100.82-4.496 83.523 1347.133-514.995 1745.61-798.308 1858.149a387.256 387.256 0 0 1-285.95 0c-283.312-112.538-881.828-511.016-798.307-1858.149 0 0 37.69 4.496 100.82 4.496 173.557 0 539.136-34.018 840.464-288.988m0-50a49.903 49.903 0 0 0-32.298 11.831c-284.995 241.15-628.671 277.157-808.166 277.157-58.828 0-94.597-4.109-94.951-4.15a50.044 50.044 0 0 0-55.774 46.56c-36.904 595.243 53.594 1073.49 268.982 1421.457 178.76 288.794 403.618 423.828 560.774 486.254a437.26 437.26 0 0 0 322.866 0c157.153-62.426 382.012-197.46 560.771-486.254 215.389-347.967 305.887-826.214 268.982-1421.457a50 50 0 0 0-55.822-46.554c-.3.035-36.097 4.144-94.903 4.144-179.494 0-523.169-36.007-808.164-277.157a49.903 49.903 0 0 0-32.297-11.83Z" class="color263c3e svgShape"/><path fill="#ffffff" d="M2941.988 1416.575c-.238-4.033-.454-8.033-.705-12.083 0 0-290.796 34.613-608.57-88.563 272.722 112.481 530.74 105.97 609.275 100.646ZM1083.717 1414.492s524.817 62.496 934.83-279.155q-9.31-7.538-18.547-15.337c-410.933 347.712-941.283 284.492-941.283 284.492-83.522 1347.133 514.995 1745.61 798.308 1858.149 2.071.823 4.174 1.528 6.255 2.313C1573.237 3142.489 990 2745 1083.717 1414.493Z" opacity=".6" class="colorfff svgShape"/><path fill="#fe6d19" d="M2816.355 1510.736s-459.961 54.83-816.355-246.734c-356.394 301.564-816.355 246.734-816.355 246.734-72.437 1168.34 446.645 1513.932 692.356 1611.534a335.866 335.866 0 0 0 247.998 0c245.711-97.602 764.793-443.194 692.356-1611.534Z" class="color19b5fe svgShape"/><path fill="#3e2f26" d="M2000 3166.098a355.526 355.526 0 0 1-131.381-25.242c-133.025-52.84-323.43-167.26-475.107-412.3-184.205-297.59-261.529-707.74-229.827-1219.058a20.009 20.009 0 0 1 22.32-18.623c1.127.135 115.138 13.125 270.453-10.388 142.642-21.594 350.489-79.33 530.623-231.753a20.006 20.006 0 0 1 25.84 0c180.134 152.422 387.98 210.159 530.622 231.753 155.305 23.513 269.32 10.523 270.454 10.388a20.009 20.009 0 0 1 22.32 18.623c31.701 511.319-45.623 921.468-229.83 1219.058-151.674 245.037-342.082 359.46-475.104 412.3A355.525 355.525 0 0 1 2000 3166.098Zm-797.607-1633.633c-27.895 493.337 47.818 888.584 225.13 1175.039 145.925 235.747 328.445 345.564 455.862 396.18a314.695 314.695 0 0 0 233.232 0c127.417-50.616 309.937-160.433 455.86-396.18 177.314-286.455 253.027-681.702 225.131-1175.04-40.674 2.852-136.433 6.163-258.755-12.23-144.734-21.763-354.25-79.444-538.852-230.223-184.602 150.779-394.119 208.46-538.853 230.222-122.31 18.391-218.073 15.09-258.755 12.232Z" class="color263c3e svgShape"/><g clip-path="url(#h)"><g mask="url(#i)" fill="none"><path fill="url(#b)" d="M1456.483 707.575h412.299v2479.272h-412.299z" opacity=".5" transform="rotate(37.203 1662.632 1947.21)"/></g><g mask="url(#j)" fill="none"><path fill="url(#k)" d="M2049.254 1141.558H2275.2V3620.83h-225.946z" opacity=".5" transform="rotate(37.203 2162.227 2381.194)"/></g></g><path fill="#ffffff" d="M1802.899 2182.528a59.83 59.83 0 0 1-59.763-59.763v-212.807a256.864 256.864 0 1 1 513.727 0v49.472a59.762 59.762 0 1 1-119.523 0v-49.473c0-75.73-61.61-137.338-137.34-137.338s-137.34 61.609-137.34 137.339v212.807a59.83 59.83 0 0 1-59.761 59.763Z" class="colorfff svgShape"/><path fill="#3e2f26" d="M1999.998 1673.095a236.863 236.863 0 0 1 236.865 236.864v49.471a39.762 39.762 0 1 1-79.523 0v-49.471c0-86.758-70.584-157.34-157.34-157.34-86.757 0-157.34 70.582-157.34 157.34v212.807a39.762 39.762 0 1 1-79.525 0V1909.96a236.863 236.863 0 0 1 236.863-236.864m0-40a276.863 276.863 0 0 0-276.863 276.864v212.807a79.762 79.762 0 1 0 159.524 0V1909.96a117.34 117.34 0 1 1 234.68 0v49.471a79.762 79.762 0 1 0 159.524 0v-49.471a276.865 276.865 0 0 0-276.865-276.864Z" class="color263c3e svgShape"/><path fill="#ffbf66" d="M1716.983 2090.1h566.035a49.587 49.587 0 0 1 49.588 49.587v448.212a49.59 49.59 0 0 1-49.59 49.59h-566.03a49.59 49.59 0 0 1-49.59-49.59v-448.213a49.587 49.587 0 0 1 49.587-49.587Z" class="colorffc107 svgShape"/><path fill="#3e2f26" d="M2283.016 2110.1a29.589 29.589 0 0 1 29.59 29.588V2587.9a29.588 29.588 0 0 1-29.59 29.587h-566.033a29.588 29.588 0 0 1-29.587-29.587v-448.213a29.588 29.588 0 0 1 29.587-29.589h566.033m0-40h-566.033a69.666 69.666 0 0 0-69.587 69.589V2587.9a69.666 69.666 0 0 0 69.587 69.587h566.033a69.668 69.668 0 0 0 69.59-69.587v-448.213a69.668 69.668 0 0 0-69.59-69.589Z" class="color263c3e svgShape"/><path fill="#ffffff" d="M1722.003 2610.05v-448.214a29.587 29.587 0 0 1 29.587-29.587h559.954a29.516 29.516 0 0 0-28.528-22.15h-566.034a29.587 29.587 0 0 0-29.587 29.588v448.214a29.587 29.587 0 0 0 29.587 29.587h6.08a29.304 29.304 0 0 1-1.059-7.439Z" opacity=".6" class="colorfff svgShape"/><path fill="#303030" d="M2066.369 2318.301a64.59 64.59 0 1 0-96 56.438v60.402a31.41 31.41 0 0 0 31.409 31.41 31.41 31.41 0 0 0 31.41-31.41v-60.402a64.56 64.56 0 0 0 33.181-56.438Z" class="color303030 svgShape"/><path fill="#3e2f26" d="M2001.778 2469.052a33.949 33.949 0 0 1-33.909-33.911v-58.95a67.09 67.09 0 1 1 67.818 0v58.95a33.949 33.949 0 0 1-33.909 33.91Zm0-212.842a62.091 62.091 0 0 0-30.19 116.348l1.281.715v61.868a28.909 28.909 0 1 0 57.818 0v-61.868l1.282-.715a62.091 62.091 0 0 0-30.19-116.348Z" class="color263c3e svgShape"/><g opacity=".2"><path fill="#303030" d="M2312.605 2587.9v-426.655c-11.509 110.46-80.782 429.627-496.04 456.243h466.451a29.589 29.589 0 0 0 29.59-29.587Z" class="color303030 svgShape"/><path fill="#3e2f26" d="M2283.016 2619.99h-466.45l-.161-4.996c417.004-26.73 483.322-354.26 493.715-454.009l4.986.26v426.654a32.125 32.125 0 0 1-32.09 32.09Zm-414.651-5h414.65a27.122 27.122 0 0 0 27.09-27.09v-390.272c-10.138 59.31-34.352 145.452-92.094 224.651-78.674 107.913-196.143 172.603-349.646 192.71Z" class="color263c3e svgShape"/></g><path fill="#3e2f26" d="M1016.402 1125.846a24.984 24.984 0 0 1-21.265-11.816l-112.2-180.747a25 25 0 1 1 42.481-26.372l112.2 180.747a25.003 25.003 0 0 1-21.216 38.188ZM897.435 1272.514a24.897 24.897 0 0 1-15.808-5.645L599.46 1036.2a25 25 0 0 1 31.646-38.71l282.165 230.668a25 25 0 0 1-15.837 44.356ZM789.266 1418.861a24.935 24.935 0 0 1-9.385-1.838L604.26 1345.81a25.001 25.001 0 0 1 18.789-46.338l175.622 71.213a25.005 25.005 0 0 1-9.404 48.176Z" class="color263c3e svgShape"/></svg>