<svg xmlns="http://www.w3.org/2000/svg" enable-background="new 0 0 3000 3000" viewBox="0 0 3000 3000"><ellipse cx="530.2" cy="2565.3" fill="#eeeeee" rx="505.2" ry="36" class="coloreee svgShape"/><polygon fill="#ffb58a" points="148.5 2447.8 97.1 2409.8 157 2333.8 208.4 2371.8" class="colorf7c19b svgShape"/><path fill="#333333" d="M93,2428l-15.1,5.2l-4.4,2c-2.6,1.2-4.8,3-6.3,5.3l-5.9,9c-1.5,2.2-0.8,5.2,1.5,6.6l10.3,6.3l1.7-2.6      l5.6,3.4l-1.7,2.5l12.3,7.9l1.4-2.1l5.8,3.6l-1.5,2.3l13.9,8.5l12.9-4.4c9,9.9,16.5,19.9,22,29.8c0.2,0.5,14.2,9.2,14.5,8.9      l1.3-2l5.5,3.4l-1.3,2c4.3,3.1,8.8,5.8,13.4,8.2l1.4-2.1l5.4,3.3l-1.1,1.7c4.7,2.9,9.2,4.9,13.4,6.1l1.1-1.7l5.8,2.6l-1,1.5      c3.4,1.5,6.9,2.5,10.3,3.1l0.8-1.9l6,1l-0.1,2.3c6.5,1.1,12.6,1.9,18.3,2.1c0,0,5.4-6.4,1.2-9.4l-52.6-40.7l-66.3-54.2L93,2428z      " class="color333 svgShape"/><path fill="#5b5958" d="M85.7,2416.6c-2.2,3.4-4,7-5.5,10.7l-2.2,5.9c22,13,41.3,27,56.5,42.5c3.2,3.2,6.1,6.5,8.9,9.9      c23.9,29,56.6,46.8,97.2,54.9l3.2-4.9c2.4-3.7,1.8-8.4-1.4-11.4l-21.1-19.6c-3.7-3.5-7.6-6.9-11.4-10.3      c-10.7-9.6-18.9-21.2-24.9-34.5c-0.3-0.7-0.7-1.5-1-2.2c-0.2-0.4-0.4-0.9-0.5-1.3c-4,4.7-13.2,7.9-13.7,8.1      c-0.3,0.1-0.6,0-0.8-0.1c-0.1-0.1-0.2-0.2-0.2-0.3c-0.2-0.4,0.1-0.9,0.5-1c3.3-1.1,10.9-4.4,13.6-8.3c-0.1-0.3-0.3-0.6-0.4-1      c-3.5-3.8-11.7-6.5-15.3-7.4c-0.4-0.1-0.7-0.5-0.6-0.9c0.1-0.4,0.6-0.7,1-0.6c0.5,0.1,8.5,2.2,13.8,5.9      c-0.4-1.2-0.8-2.3-1.2-3.5c-0.2-0.8-0.5-1.5-0.7-2.3c-0.5-1.6-1-3.3-1.4-5c-0.2-0.7-0.4-1.4-0.5-2c-0.6-2.5-1.2-5-1.7-7.6      c-3.6-1.8-9.5-2.2-12-2.2c-0.4,0-0.8-0.3-0.8-0.8c0-0.4,0.3-0.8,0.8-0.8c0.4,0,6.9-0.1,11.7,1.8c-0.2-1-0.4-2.1-0.6-3.1      c-0.3-1.7-1.3-3.3-2.8-4.3l-55.1-36.6c-2-1.3-4.8-0.7-6,1.3l-4,6.6c-3,4.9-6.7,9.3-11,13.1C91.9,2408.4,88.5,2412.3,85.7,2416.6      z" class="color58595b svgShape"/><path fill="#23201f" d="M168.6 2463.8c0 .1.1.3.2.3.2.2.5.2.8.1.5-.2 9.7-3.4 13.7-8.1-.2-.6-.5-1.1-.7-1.7-2.6 3.9-10.3 7.2-13.6 8.3C168.7 2462.9 168.5 2463.4 168.6 2463.8zM166.5 2445.2c-.1.4.1.8.6.9 3.5.9 11.8 3.7 15.3 7.4-.4-1-.7-2-1.1-3-5.2-3.7-13.3-5.8-13.8-5.9C167 2444.5 166.6 2444.8 166.5 2445.2z" class="color231f20 svgShape"/><path fill="#303030" d="M162.8,2427.1c0,0.4,0.4,0.8,0.8,0.8c2.6,0,8.5,0.3,12,2.2c-0.1-0.6-0.2-1.3-0.4-1.9      c-4.8-1.9-11.3-1.8-11.7-1.8C163.1,2426.3,162.7,2426.7,162.8,2427.1z" class="color303030 svgShape"/><path fill="#424140" d="M85.7,2416.6c-2.2,3.4-4,7-5.5,10.7l-2.2,5.9c22,13,41.3,27,56.5,42.5l40.1-1.5c2.3-0.1,4.1-2.1,3.8-4.3      l-6.5-49.2l-55.1-36.6c-2-1.3-4.8-0.7-6,1.3l-4,6.6c-3,4.9-6.7,9.3-11,13.1C91.9,2408.4,88.5,2412.3,85.7,2416.6z" class="color414042 svgShape"/><polygon fill="#5b5958" points="169.2 2422.5 169.9 2422.4 169.8 2421.8 169.3 2421.5 168.9 2422 169.2 2422.2" class="color58595b svgShape"/><path fill="#5b5958" d="M81.8,2430.3l0.7,0.2l-0.3,0.9l-0.7-0.2L81.8,2430.3z M82.5,2428.5l0.7,0.2l-0.3,0.9l-0.7-0.2       L82.5,2428.5z M83.1,2426.7l0.7,0.3c-0.1,0.3-0.2,0.6-0.3,0.9l-0.7-0.2C82.9,2427.3,83,2427,83.1,2426.7z M83.9,2425l0.7,0.3       c-0.1,0.3-0.3,0.6-0.4,0.9l-0.7-0.3C83.6,2425.6,83.8,2425.3,83.9,2425z M84.7,2423.3l0.6,0.3c-0.1,0.3-0.3,0.6-0.4,0.8       l-0.7-0.3C84.4,2423.9,84.6,2423.6,84.7,2423.3z M85.6,2421.6l0.6,0.3c-0.1,0.3-0.3,0.6-0.4,0.8l-0.6-0.3       C85.3,2422.2,85.4,2421.9,85.6,2421.6z M86.5,2420l0.6,0.3c-0.2,0.3-0.3,0.5-0.5,0.8l-0.6-0.3       C86.2,2420.5,86.3,2420.2,86.5,2420z M87.5,2418.3l0.6,0.4c-0.2,0.3-0.3,0.5-0.5,0.8l-0.6-0.4       C87.2,2418.9,87.3,2418.6,87.5,2418.3z M88,2417.6c0.2-0.3,0.4-0.5,0.5-0.8l0.6,0.4c-0.2,0.3-0.4,0.5-0.5,0.8L88,2417.6z        M89.1,2416c0.2-0.3,0.4-0.5,0.6-0.8l0.6,0.4c-0.2,0.2-0.4,0.5-0.5,0.8L89.1,2416z M90.2,2414.5c0.2-0.3,0.4-0.5,0.6-0.8       l0.6,0.4c-0.2,0.2-0.4,0.5-0.6,0.7L90.2,2414.5z M91.4,2413c0.2-0.2,0.4-0.5,0.6-0.7l0.6,0.4c-0.2,0.2-0.4,0.5-0.6,0.7       L91.4,2413z M92.6,2411.5c0.2-0.2,0.4-0.5,0.6-0.7l0.5,0.5c-0.2,0.2-0.4,0.5-0.6,0.7L92.6,2411.5z M93.9,2410.1       c0.2-0.2,0.4-0.5,0.7-0.7l0.5,0.5c-0.2,0.2-0.4,0.5-0.7,0.7L93.9,2410.1z M95.2,2408.7c0.2-0.2,0.5-0.4,0.7-0.7l0.5,0.5       c-0.2,0.2-0.5,0.4-0.7,0.7L95.2,2408.7z M96.6,2407.4c0.2-0.2,0.5-0.4,0.7-0.6l0.5,0.5c-0.2,0.2-0.5,0.4-0.7,0.6L96.6,2407.4z        M98.1,2406.1c0.2-0.2,0.5-0.4,0.7-0.6l0.5,0.5c-0.2,0.2-0.5,0.4-0.7,0.6L98.1,2406.1z M99.4,2404.9c0.2-0.2,0.5-0.4,0.7-0.7       l0.5,0.5c-0.2,0.2-0.5,0.4-0.7,0.7L99.4,2404.9z M100.8,2403.5c0.2-0.2,0.4-0.5,0.7-0.7l0.5,0.5c-0.2,0.2-0.4,0.5-0.7,0.7       L100.8,2403.5z M102.1,2402.1c0.2-0.2,0.4-0.5,0.6-0.7l0.5,0.5c-0.2,0.2-0.4,0.5-0.6,0.7L102.1,2402.1z M103.3,2400.7       c0.2-0.2,0.4-0.5,0.6-0.7l0.6,0.4c-0.2,0.2-0.4,0.5-0.6,0.7L103.3,2400.7z M104.5,2399.3c0.2-0.2,0.4-0.5,0.6-0.7l0.6,0.4       c-0.2,0.3-0.4,0.5-0.6,0.7L104.5,2399.3z M105.6,2397.8c0.2-0.2,0.4-0.5,0.6-0.8l0.6,0.4c-0.2,0.3-0.4,0.5-0.6,0.8       L105.6,2397.8z M106.7,2396.3c0.2-0.3,0.4-0.5,0.5-0.8l0.6,0.4c-0.2,0.3-0.4,0.5-0.5,0.8L106.7,2396.3z M108.3,2393.9l0.6,0.4       c-0.2,0.3-0.3,0.5-0.5,0.8l-0.6-0.4C108,2394.5,108.1,2394.2,108.3,2393.9z M109.3,2392.3l0.6,0.4l-0.5,0.8l-0.6-0.4       L109.3,2392.3z M110.3,2390.7l0.6,0.4l-0.5,0.8l-0.6-0.4L110.3,2390.7z M111.2,2389.1l0.6,0.4l-0.5,0.8l-0.6-0.4L111.2,2389.1z        M112.2,2387.5l0.6,0.4l-0.5,0.8l-0.6-0.4L112.2,2387.5z M167.3,2421l0.4-0.6l0.8,0.5l-0.4,0.6L167.3,2421z M165.7,2419.9       l0.4-0.6l0.8,0.5l-0.4,0.6L165.7,2419.9z M164.1,2418.8l0.4-0.6l0.8,0.5l-0.4,0.6L164.1,2418.8z M162.5,2417.8l0.4-0.6l0.8,0.5       l-0.4,0.6L162.5,2417.8z M160.9,2416.7l0.4-0.6l0.8,0.5l-0.4,0.6L160.9,2416.7z M159.3,2415.7l0.4-0.6l0.8,0.5l-0.4,0.6       L159.3,2415.7z M157.7,2414.6l0.4-0.6l0.8,0.5l-0.4,0.6L157.7,2414.6z M156.1,2413.6l0.4-0.6l0.8,0.5l-0.4,0.6L156.1,2413.6z        M154.6,2412.5l0.4-0.6l0.8,0.5l-0.4,0.6L154.6,2412.5z M153,2411.4l0.4-0.6l0.8,0.5l-0.5,0.5L153,2411.4z M112.8,2386.7       c0.2-0.3,0.5-0.5,0.9-0.7l0.3,0.6c-0.2,0.1-0.5,0.3-0.6,0.5L112.8,2386.7z M151.4,2410.4l0.4-0.6l0.8,0.5l-0.4,0.6       L151.4,2410.4z M149.8,2409.3l0.4-0.6l0.8,0.5l-0.4,0.6L149.8,2409.3z M148.2,2408.3l0.4-0.6l0.8,0.5l-0.5,0.5L148.2,2408.3z        M146.6,2407.2l0.4-0.6l0.8,0.5l-0.5,0.5L146.6,2407.2z M145,2406.1l0.4-0.6l0.8,0.5l-0.4,0.5L145,2406.1z M143.4,2405.1       l0.4-0.6l0.8,0.5l-0.4,0.6L143.4,2405.1z M141.8,2404l0.4-0.6l0.8,0.5l-0.4,0.6L141.8,2404z M140.2,2403l0.4-0.6l0.8,0.5       l-0.4,0.6L140.2,2403z M138.6,2401.9l0.4-0.6l0.8,0.5l-0.4,0.6L138.6,2401.9z M137,2400.8l0.4-0.6l0.8,0.5l-0.4,0.6L137,2400.8       z M135.4,2399.8l0.4-0.6l0.8,0.5l-0.4,0.6L135.4,2399.8z M133.8,2398.7l0.4-0.6l0.8,0.5l-0.4,0.6L133.8,2398.7z M132.3,2397.7       l0.4-0.6l0.8,0.5l-0.4,0.6L132.3,2397.7z M130.7,2396.6l0.4-0.6l0.8,0.5l-0.4,0.6L130.7,2396.6z M129.1,2395.5l0.4-0.6l0.8,0.5       l-0.4,0.6L129.1,2395.5z M127.5,2394.5l0.4-0.6l0.8,0.5l-0.4,0.6L127.5,2394.5z M125.9,2393.4l0.4-0.6l0.8,0.5l-0.4,0.6       L125.9,2393.4z M124.3,2392.4l0.4-0.6l0.8,0.5l-0.4,0.6L124.3,2392.4z M122.7,2391.3l0.4-0.6l0.8,0.5l-0.4,0.6L122.7,2391.3z        M114.7,2385.7c0.4,0,0.7,0.1,1.1,0.2l-0.3,0.6c-0.3-0.1-0.5-0.2-0.8-0.2L114.7,2385.7z M121.1,2390.2l0.4-0.6l0.8,0.5       l-0.4,0.6L121.1,2390.2z M119.5,2389.2l0.4-0.6l0.8,0.5l-0.4,0.6L119.5,2389.2z M117.9,2388.1l0.4-0.6l0.8,0.5l-0.4,0.6       L117.9,2388.1z M116.3,2387.1l0.4-0.6l0.8,0.5l-0.4,0.6L116.3,2387.1z" class="color58595b svgShape"/><polygon fill="#5b5958" points="80.9 2432.6 81.6 2433 81.9 2432.4 81.8 2432.3 81.8 2432.2 81.2 2431.9" class="color58595b svgShape"/><path fill="#5b5958" d="M133.4,2471.8l0.5-0.5l0.7,0.7l-0.5,0.5L133.4,2471.8z M132,2470.5l0.5-0.5l0.7,0.7l-0.5,0.5L132,2470.5z        M130.7,2469.2l0.5-0.5l0.7,0.6l-0.5,0.5L130.7,2469.2z M129.3,2467.9l0.5-0.5l0.7,0.6l-0.5,0.5L129.3,2467.9z M127.9,2466.6       l0.5-0.5l0.7,0.6l-0.5,0.5L127.9,2466.6z M126.5,2465.4l0.5-0.5l0.7,0.6l-0.5,0.5L126.5,2465.4z M125.1,2464.1l0.5-0.5l0.7,0.6       l-0.5,0.5L125.1,2464.1z M123.7,2462.9l0.5-0.5l0.7,0.6l-0.5,0.5L123.7,2462.9z M122.3,2461.7l0.5-0.5l0.7,0.6l-0.5,0.5       L122.3,2461.7z M120.9,2460.4l0.5-0.5l0.7,0.6l-0.5,0.5L120.9,2460.4z M119.4,2459.2l0.5-0.5l0.7,0.6l-0.5,0.5L119.4,2459.2z        M118,2458.1l0.5-0.5l0.7,0.6l-0.5,0.5L118,2458.1z M116.5,2456.9l0.5-0.5l0.7,0.6l-0.5,0.5L116.5,2456.9z M115,2455.7l0.5-0.5       l0.7,0.6l-0.5,0.5L115,2455.7z M113.6,2454.6l0.4-0.5l0.7,0.6l-0.4,0.5L113.6,2454.6z M112.1,2453.4l0.4-0.5l0.7,0.6l-0.4,0.5       L112.1,2453.4z M110.6,2452.3l0.4-0.6l0.8,0.6l-0.4,0.5L110.6,2452.3z M109.1,2451.2l0.4-0.6l0.8,0.6l-0.4,0.6L109.1,2451.2z        M107.5,2450.1l0.4-0.6l0.8,0.6l-0.4,0.6L107.5,2450.1z M106,2449l0.4-0.6l0.8,0.5l-0.4,0.6L106,2449z M104.5,2447.9l0.4-0.6       l0.8,0.5l-0.4,0.6L104.5,2447.9z M102.9,2446.8l0.4-0.6l0.8,0.5l-0.4,0.6L102.9,2446.8z M101.4,2445.7l0.4-0.6l0.8,0.5       l-0.4,0.6L101.4,2445.7z M99.8,2444.6l0.4-0.6l0.8,0.5l-0.4,0.6L99.8,2444.6z M98.3,2443.6l0.4-0.6l0.8,0.5l-0.4,0.6       L98.3,2443.6z M96.7,2442.5l0.4-0.6l0.8,0.5l-0.4,0.6L96.7,2442.5z M95.1,2441.5l0.4-0.6l0.8,0.5l-0.4,0.6L95.1,2441.5z        M93.6,2440.5l0.4-0.6l0.8,0.5l-0.4,0.6L93.6,2440.5z M92,2439.5l0.4-0.6l0.8,0.5l-0.4,0.6L92,2439.5z M90.4,2438.4l0.4-0.6       l0.8,0.5l-0.4,0.6L90.4,2438.4z M88.8,2437.4l0.4-0.6l0.8,0.5l-0.4,0.6L88.8,2437.4z M82.7,2432.9l0.8,0.5l-0.4,0.6l-0.8-0.5       L82.7,2432.9z M87.2,2436.4l0.4-0.6l0.8,0.5l-0.4,0.6L87.2,2436.4z M84.4,2433.9l0.8,0.5l-0.4,0.6l-0.8-0.5L84.4,2433.9z        M85.6,2435.5l0.4-0.6l0.8,0.5l-0.4,0.6L85.6,2435.5z" class="color58595b svgShape"/><polygon fill="#5b5958" points="135.1 2473.5 135.8 2473.5 135.7 2472.8 135.4 2472.8 135.2 2472.6 134.7 2473.1" class="color58595b svgShape"/><path fill="#5b5958" d="M136.7,2472.8l0.9,0l0,0.7l-1,0L136.7,2472.8z M138.6,2472.7l0.9,0l0,0.7l-1,0L138.6,2472.7z        M140.5,2472.6l1,0l0,0.7l-0.9,0L140.5,2472.6z M142.4,2472.6l1,0l0,0.7l-1,0L142.4,2472.6z M144.3,2472.5l1,0l0,0.7l-1,0       L144.3,2472.5z M146.2,2472.4l1,0l0,0.7l-1,0L146.2,2472.4z M148.1,2472.3l1,0l0,0.7l-1,0L148.1,2472.3z M150,2472.3l0.9,0       l0,0.7l-1,0L150,2472.3z M151.9,2472.2l1,0l0,0.7l-0.9,0L151.9,2472.2z M153.8,2472.1l0.9,0l0,0.7l-1,0L153.8,2472.1z        M155.7,2472l1,0l0,0.7l-1,0L155.7,2472z M157.6,2472l1,0l0,0.7l-1,0L157.6,2472z M159.5,2471.9l0.9,0l0,0.7l-0.9,0       L159.5,2471.9z M161.4,2471.8l1,0l0,0.7l-1,0L161.4,2471.8z M163.3,2471.7l1,0l0,0.7l-1,0L163.3,2471.7z M165.2,2471.7l1,0       l0,0.7l-1,0L165.2,2471.7z M167.1,2471.6l1,0l0,0.7l-0.9,0L167.1,2471.6z M169,2471.5l1,0l0,0.7l-0.9,0L169,2471.5z        M170.9,2471.5l0.9,0l0,0.7l-1,0L170.9,2471.5z M172.8,2471.4l0.9,0l0,0.7l-1,0L172.8,2471.4z M174.5,2471.2       c0.2-0.1,0.3-0.2,0.5-0.4c0,0,0.1-0.1,0.1-0.1l0.6,0.4c0,0.1-0.1,0.1-0.1,0.2c-0.2,0.2-0.4,0.4-0.7,0.5L174.5,2471.2z        M175.4,2469.6l-0.1-0.4l0.7-0.1l0.1,0.4c0,0.2,0,0.4,0,0.6l-0.7-0.1C175.4,2469.8,175.4,2469.7,175.4,2469.6z M175.1,2467.3       l0.7-0.1l0.1,0.9l-0.7,0.1L175.1,2467.3z M174.8,2465.5l0.7-0.1l0.1,0.9l-0.7,0.1L174.8,2465.5z M174.6,2463.7l0.7-0.1l0.1,0.9       l-0.7,0.1L174.6,2463.7z M174.4,2461.8l0.7-0.1l0.1,0.9l-0.7,0.1L174.4,2461.8z M174.1,2460l0.7-0.1l0.1,0.9l-0.7,0.1       L174.1,2460z M173.9,2458.2l0.7-0.1l0.1,0.9l-0.7,0.1L173.9,2458.2z M173.6,2456.3l0.7-0.1l0.1,0.9l-0.7,0.1L173.6,2456.3z        M173.4,2454.5l0.7-0.1l0.1,0.9l-0.7,0.1L173.4,2454.5z M173.2,2452.7l0.7-0.1l0.1,0.9l-0.7,0.1L173.2,2452.7z M172.9,2450.8       l0.7-0.1l0.1,0.9l-0.7,0.1L172.9,2450.8z M172.7,2449l0.7-0.1l0.1,0.9l-0.7,0.1L172.7,2449z M172.4,2447.2l0.7-0.1l0.1,0.9       l-0.7,0.1L172.4,2447.2z M172.2,2445.4l0.7-0.1l0.1,0.9l-0.7,0.1L172.2,2445.4z M172,2443.5l0.7-0.1l0.1,0.9l-0.7,0.1       L172,2443.5z M171.7,2441.7l0.7-0.1l0.1,0.9l-0.7,0.1L171.7,2441.7z M171.5,2439.9l0.7-0.1l0.1,0.9l-0.7,0.1L171.5,2439.9z        M171.2,2438.1l0.7-0.1l0.1,0.9l-0.7,0.1L171.2,2438.1z M171,2436.2l0.7-0.1l0.1,0.9l-0.7,0.1L171,2436.2z M170.8,2434.4       l0.7-0.1l0.1,0.9l-0.7,0.1L170.8,2434.4z M170.5,2432.6l0.7-0.1l0.1,0.9l-0.7,0.1L170.5,2432.6z M170.3,2430.7l0.7-0.1l0.1,0.9       l-0.7,0.1L170.3,2430.7z M170,2428.9l0.7-0.1l0.1,0.9l-0.7,0.1L170,2428.9z M169.8,2427.1l0.7-0.1l0.1,0.9l-0.7,0.1       L169.8,2427.1z M169.6,2425.3l0.7-0.1l0.1,0.9l-0.7,0.1L169.6,2425.3z M169.3,2423.4l0.7-0.1l0.1,0.9l-0.7,0.1L169.3,2423.4z" class="color58595b svgShape"/><path fill="#e8e7e6" d="M166.3 2461.1c1.3-1.5 3.6-1.7 5.2-.5 1.6 1.3 1.8 3.5.5 5-1.3 1.5-3.6 1.8-5.2.5C165.3 2464.9 165 2462.6 166.3 2461.1zM167.2 2461.8c-.9 1.1-.7 2.6.4 3.5 1.1.9 2.7.7 3.6-.3.9-1.1.7-2.6-.4-3.5C169.7 2460.6 168.1 2460.7 167.2 2461.8zM163.3 2443.2c1.3-1.5 3.6-1.8 5.2-.5 1.6 1.3 1.8 3.5.5 5-1.3 1.5-3.6 1.7-5.2.5C162.3 2447 162 2444.7 163.3 2443.2zM164.2 2443.9c-.9 1.1-.7 2.6.4 3.5 1.1.9 2.7.7 3.6-.3.9-1.1.7-2.6-.4-3.5C166.7 2442.7 165.1 2442.8 164.2 2443.9z" class="colore6e7e8 svgShape"/><path fill="#23201f" d="M169.1,2462.8c-0.4,0.1-0.6,0.6-0.5,1c0,0.1,0.1,0.3,0.2,0.3c0.2,0.2,0.5,0.2,0.8,0.1        c0.5-0.2,9.7-3.4,13.7-8.1c0.1-0.2,0.2-0.3,0.4-0.4c0.4-0.5,0.7-1.1,1-1.6c0.3-0.6,0.4-1.3,0.5-1.9c0.1-2.7-1.8-5.2-5.9-7.5        c0.2,0.8,0.5,1.5,0.7,2.3c2.5,1.7,3.7,3.4,3.6,5.1c0,0.1,0,0.3-0.1,0.4c-0.1,0.6-0.3,1.1-0.7,1.7c-0.1,0.1-0.1,0.2-0.2,0.3        C180.1,2458.3,172.4,2461.7,169.1,2462.8z" class="color231f20 svgShape"/><path fill="#23201f" d="M166.5,2445.2c-0.1,0.4,0.1,0.8,0.6,0.9c3.5,0.9,11.8,3.7,15.3,7.4c0.2,0.2,0.4,0.4,0.6,0.7        c0.4,0.5,0.7,1,0.9,1.6c0.1,0.2,0.1,0.5,0.2,0.7c0.1,0.4,0.1,0.7,0,1.1c0.3,0.7,0.6,1.5,1,2.2c0.6-1.2,0.8-2.3,0.6-3.5        c-0.1-0.7-0.4-1.4-0.8-2.1c-0.3-0.5-0.7-1.1-1.2-1.6c-0.7-0.7-1.5-1.4-2.3-2c-5.2-3.7-13.3-5.8-13.8-5.9        C167,2444.5,166.6,2444.8,166.5,2445.2z" class="color231f20 svgShape"/><path fill="#e8e7e6" d="M160.4,2425.1c1.1-1.7,3.4-2.2,5.1-1.1c1.7,1.1,2.2,3.3,1.1,4.9c-1.1,1.7-3.4,2.2-5.1,1.1       C159.8,2429,159.3,2426.8,160.4,2425.1z M161.4,2425.7c-0.8,1.1-0.4,2.7,0.8,3.4c1.2,0.7,2.8,0.4,3.5-0.8       c0.8-1.1,0.4-2.7-0.8-3.4C163.7,2424.3,162.2,2424.6,161.4,2425.7z" class="colore6e7e8 svgShape"/><path fill="#23201f" d="M162.8,2427.1c0,0.4,0.4,0.8,0.8,0.8c2.6,0,8.5,0.3,12,2.2c1.2,0.6,2.2,1.4,2.6,2.4       c0.7,1.4,0.4,3.2-0.9,5.3c0.2,0.7,0.4,1.4,0.5,2c2.3-3.1,2.9-5.8,1.8-8c-0.8-1.6-2.5-2.8-4.4-3.6c-4.8-1.9-11.3-1.8-11.7-1.8       C163.1,2426.3,162.7,2426.7,162.8,2427.1z" class="color231f20 svgShape"/><polygon fill="#ffb58a" points="661.1 2503.2 597.5 2495.6 609.6 2400.7 673.2 2408.3" class="colorf7c19b svgShape"/><path fill="#333333" d="M600.2,2511.9l-10.8,11.4l-3,3.8c-1.7,2.2-2.8,4.8-3,7.5l-0.9,10.6c-0.2,2.6,1.8,5,4.5,5.2l12.2,0.9l0.2-3      l6.6,0.5l-0.2,3l14.6,1.5l0.2-2.5l6.9,0.5l-0.2,2.7l16.4,1.2l9.3-9.7c12.8,4.7,24.2,10.1,33.8,16.5c0.4,0.4,17,1.7,17.1,1.3      l0.2-2.4l6.5,0.5l-0.2,2.4c5.3,0.8,10.6,1.2,15.8,1.2l0.2-2.5l6.3,0.5l-0.2,2c5.6,0.4,10.5,0.2,14.8-0.6l0.2-2l6.4-0.3l-0.1,1.8      c3.8-0.2,7.3-0.9,10.6-1.9l-0.2-2l5.8-1.8l1,2.1c6.3-1.9,12.1-4,17.2-6.4c0,0,1.7-8.1-3.5-8.9l-66.2-12.3l-84.8-18.1      L600.2,2511.9z" class="color333 svgShape"/><path fill="#5b5958" d="M588.2,2505.1c-0.3,4-0.2,8,0.3,12l0.8,6.2c25.7,1.6,49.5,5.3,70.4,12.2c4.3,1.4,8.6,3,12.7,4.7      c35.1,14.9,72.6,15.9,112.4,4.8l0.5-5.8c0.4-4.3-2.5-8.3-6.8-9.5l-28.2-7.9c-5-1.4-10.1-2.7-15.1-4      c-14.1-3.7-26.9-10.2-38.6-19.3c-0.6-0.5-1.3-1-1.9-1.5c-0.4-0.3-0.7-0.6-1.1-0.9c-1.3,6-7.9,13-8.3,13.3      c-0.2,0.2-0.5,0.3-0.8,0.2c-0.1,0-0.3-0.1-0.4-0.2c-0.3-0.3-0.3-0.8,0-1.1c2.4-2.5,7.5-8.9,8-13.5c-0.3-0.2-0.5-0.4-0.8-0.7      c-4.9-1.7-13.5-0.5-17.1,0.3c-0.4,0.1-0.9-0.2-1-0.6c-0.1-0.4,0.2-0.8,0.6-0.9c0.5-0.1,8.6-1.9,15-1c-0.9-0.8-1.8-1.7-2.8-2.6      c-0.6-0.6-1.2-1.1-1.7-1.7c-1.2-1.2-2.5-2.5-3.7-3.8c-0.5-0.5-1-1-1.5-1.6c-1.8-1.9-3.5-3.9-5.2-6c-4.1,0-9.4,2.3-11.7,3.5      c-0.4,0.2-0.9,0.1-1.1-0.3c-0.2-0.4-0.1-0.8,0.3-1.1c0.3-0.2,6.1-3.2,11.2-3.7c-0.7-0.8-1.4-1.7-2-2.5c-1.1-1.4-2.7-2.3-4.6-2.5      l-66.4-7.6c-2.4-0.3-4.6,1.5-4.7,3.9l-0.4,7.6c-0.3,5.7-1.5,11.2-3.4,16.5C589.7,2495.1,588.6,2500.1,588.2,2505.1z" class="color58595b svgShape"/><path fill="#23201f" d="M684.3 2509.5c.1.1.2.2.4.2.3 0 .6 0 .8-.2.4-.4 7-7.3 8.3-13.3-.5-.4-1-.8-1.4-1.2-.5 4.6-5.7 11-8 13.5C684 2508.7 684 2509.2 684.3 2509.5zM673.4 2494c.1.4.5.7 1 .6 3.6-.8 12.2-2.1 17.1-.3-.8-.7-1.6-1.4-2.4-2.2-6.4-.9-14.5.9-15 1C673.6 2493.1 673.3 2493.6 673.4 2494z" class="color231f20 svgShape"/><path fill="#303030" d="M661.4,2479.6c0.2,0.4,0.7,0.5,1.1,0.3c2.3-1.2,7.6-3.5,11.7-3.5c-0.4-0.5-0.8-1-1.2-1.5      c-5.1,0.4-10.9,3.5-11.2,3.7C661.4,2478.8,661.2,2479.3,661.4,2479.6z" class="color303030 svgShape"/><path fill="#424140" d="M588.2,2505.1c-0.3,4-0.2,8,0.3,12l0.8,6.2c25.7,1.6,49.5,5.3,70.4,12.2l34.8-19.5c2-1.1,2.6-3.7,1.3-5.5      l-29.4-40.6l-66.4-7.6c-2.4-0.3-4.6,1.5-4.7,3.9l-0.4,7.6c-0.3,5.7-1.5,11.2-3.4,16.5C589.7,2495.1,588.6,2500.1,588.2,2505.1z" class="color414042 svgShape"/><polygon fill="#5b5958" points="665 2472.7 665.5 2472.3 665.2 2471.8 664.5 2471.7 664.5 2472.4 664.8 2472.4" class="color58595b svgShape"/><path fill="#5b5958" d="M591.3,2519l0.7-0.1l0.1,0.9l-0.7,0.1L591.3,2519z M591.1,2517.1l0.7-0.1l0.1,0.9l-0.7,0.1L591.1,2517.1z        M590.8,2515.3l0.7-0.1c0,0.3,0.1,0.6,0.1,0.9l-0.7,0.1C590.9,2515.9,590.9,2515.6,590.8,2515.3z M590.7,2513.4l0.7-0.1       c0,0.3,0,0.6,0.1,0.9l-0.7,0.1C590.7,2514,590.7,2513.7,590.7,2513.4z M590.6,2511.5l0.7,0c0,0.3,0,0.6,0,0.9l-0.7,0       C590.6,2512.1,590.6,2511.8,590.6,2511.5z M590.5,2509.6l0.7,0c0,0.3,0,0.6,0,0.9l-0.7,0       C590.5,2510.3,590.5,2509.9,590.5,2509.6z M590.5,2507.7l0.7,0c0,0.3,0,0.6,0,0.9l-0.7,0       C590.5,2508.4,590.5,2508.1,590.5,2507.7z M590.6,2505.9l0.7,0c0,0.3,0,0.6-0.1,0.9l-0.7,0       C590.6,2506.5,590.6,2506.2,590.6,2505.9z M590.7,2504.9c0-0.3,0.1-0.6,0.1-0.9l0.7,0.1c0,0.3-0.1,0.6-0.1,0.9L590.7,2504.9z        M590.9,2503.1c0-0.3,0.1-0.6,0.1-0.9l0.7,0.1c0,0.3-0.1,0.6-0.1,0.9L590.9,2503.1z M591.2,2501.2c0-0.3,0.1-0.6,0.2-0.9       l0.7,0.1c-0.1,0.3-0.1,0.6-0.2,0.9L591.2,2501.2z M591.5,2499.3c0.1-0.3,0.1-0.6,0.2-0.9l0.7,0.1c-0.1,0.3-0.1,0.6-0.2,0.9       L591.5,2499.3z M591.9,2497.5c0.1-0.3,0.1-0.6,0.2-0.9l0.7,0.2c-0.1,0.3-0.1,0.6-0.2,0.9L591.9,2497.5z M592.4,2495.7       c0.1-0.3,0.2-0.6,0.3-0.9l0.7,0.2c-0.1,0.3-0.2,0.6-0.3,0.9L592.4,2495.7z M592.9,2493.9c0.1-0.3,0.2-0.6,0.3-0.9l0.7,0.2       c-0.1,0.3-0.2,0.6-0.3,0.9L592.9,2493.9z M593.5,2492.1c0.1-0.3,0.2-0.6,0.3-0.9l0.7,0.2c-0.1,0.3-0.2,0.6-0.3,0.9       L593.5,2492.1z M594.1,2490.3c0.1-0.3,0.2-0.6,0.3-0.9l0.7,0.2c-0.1,0.3-0.2,0.6-0.3,0.9L594.1,2490.3z M594.7,2488.5       c0.1-0.3,0.2-0.6,0.3-0.9l0.7,0.2c-0.1,0.3-0.2,0.6-0.3,0.9L594.7,2488.5z M595.3,2486.8c0.1-0.3,0.2-0.6,0.2-0.9l0.7,0.2       c-0.1,0.3-0.2,0.6-0.3,0.9L595.3,2486.8z M595.8,2485c0.1-0.3,0.1-0.6,0.2-0.9l0.7,0.2c-0.1,0.3-0.1,0.6-0.2,0.9L595.8,2485z        M596.2,2483.1c0.1-0.3,0.1-0.6,0.2-0.9l0.7,0.1c-0.1,0.3-0.1,0.6-0.2,0.9L596.2,2483.1z M596.5,2481.3       c0.1-0.3,0.1-0.6,0.2-0.9l0.7,0.1c-0.1,0.3-0.1,0.6-0.2,0.9L596.5,2481.3z M596.8,2479.5c0-0.3,0.1-0.6,0.1-0.9l0.7,0.1       c0,0.3-0.1,0.6-0.1,0.9L596.8,2479.5z M597.1,2477.6c0-0.3,0.1-0.6,0.1-0.9l0.7,0.1c0,0.3-0.1,0.6-0.1,0.9L597.1,2477.6z        M597.3,2474.9l0.7,0c0,0.3,0,0.6-0.1,0.9l-0.7-0.1C597.3,2475.5,597.3,2475.2,597.3,2474.9z M597.4,2473l0.7,0l0,0.9l-0.7,0       L597.4,2473z M597.5,2471.1l0.7,0l0,0.9l-0.7,0L597.5,2471.1z M597.6,2469.3l0.7,0l0,0.9l-0.7,0L597.6,2469.3z M597.7,2467.4       l0.7,0l0,0.9l-0.7,0L597.7,2467.4z M662.5,2472.2l0.1-0.7l1,0.1l-0.1,0.7L662.5,2472.2z M660.6,2472l0.1-0.7l1,0.1l-0.1,0.7       L660.6,2472z M658.7,2471.7l0.1-0.7l1,0.1l-0.1,0.7L658.7,2471.7z M656.8,2471.5l0.1-0.7l1,0.1l-0.1,0.7L656.8,2471.5z        M654.9,2471.3l0.1-0.7l1,0.1l-0.1,0.7L654.9,2471.3z M652.9,2471.1l0.1-0.7l1,0.1l-0.1,0.7L652.9,2471.1z M651,2470.9l0.1-0.7       l1,0.1l-0.1,0.7L651,2470.9z M649.1,2470.6l0.1-0.7l1,0.1l-0.1,0.7L649.1,2470.6z M647.2,2470.4l0.1-0.7l1,0.1l-0.1,0.7       L647.2,2470.4z M645.3,2470.2l0.1-0.7l1,0.1l-0.2,0.7L645.3,2470.2z M597.8,2466.4c0.1-0.4,0.2-0.7,0.5-1l0.6,0.4       c-0.2,0.2-0.3,0.5-0.3,0.7L597.8,2466.4z M643.3,2470l0.1-0.7l1,0.1l-0.1,0.7L643.3,2470z M641.4,2469.8l0.1-0.7l1,0.1       l-0.1,0.7L641.4,2469.8z M639.5,2469.6l0.1-0.7l1,0.1l-0.2,0.7L639.5,2469.6z M637.6,2469.3l0.1-0.7l1,0.1l-0.2,0.7       L637.6,2469.3z M635.7,2469.1l0.1-0.7l1,0.1l-0.1,0.7L635.7,2469.1z M633.7,2468.9l0.1-0.7l1,0.1l-0.1,0.7L633.7,2468.9z        M631.8,2468.7l0.1-0.7l1,0.1l-0.1,0.7L631.8,2468.7z M629.9,2468.5l0.1-0.7l1,0.1l-0.1,0.7L629.9,2468.5z M628,2468.2l0.1-0.7       l1,0.1l-0.1,0.7L628,2468.2z M626.1,2468l0.1-0.7l1,0.1l-0.1,0.7L626.1,2468z M624.1,2467.8l0.1-0.7l1,0.1l-0.1,0.7       L624.1,2467.8z M622.2,2467.6l0.1-0.7l1,0.1l-0.1,0.7L622.2,2467.6z M620.3,2467.4l0.1-0.7l1,0.1l-0.1,0.7L620.3,2467.4z        M618.4,2467.1l0.1-0.7l1,0.1l-0.1,0.7L618.4,2467.1z M616.5,2466.9l0.1-0.7l1,0.1l-0.1,0.7L616.5,2466.9z M614.6,2466.7       l0.1-0.7l1,0.1l-0.1,0.7L614.6,2466.7z M612.6,2466.5l0.1-0.7l1,0.1l-0.1,0.7L612.6,2466.5z M610.7,2466.3l0.1-0.7l1,0.1       l-0.1,0.7L610.7,2466.3z M608.8,2466.1l0.1-0.7l1,0.1l-0.1,0.7L608.8,2466.1z M599.1,2464.7c0.3-0.2,0.7-0.3,1.1-0.3l0.1,0.7       c-0.3,0-0.5,0.1-0.8,0.2L599.1,2464.7z M606.9,2465.8l0.1-0.7l1,0.1l-0.1,0.7L606.9,2465.8z M604.9,2465.6l0.1-0.7l1,0.1       l-0.1,0.7L604.9,2465.6z M603,2465.4l0.1-0.7l1,0.1l-0.1,0.7L603,2465.4z M601.1,2465.2l0.1-0.7l1,0.1l-0.1,0.7L601.1,2465.2z" class="color58595b svgShape"/><polygon fill="#5b5958" points="591.7 2521.5 592.4 2521.5 592.5 2520.8 592.3 2520.8 592.3 2520.6 591.6 2520.7" class="color58595b svgShape"/><path fill="#5b5958" d="M656.9,2532.4l0.2-0.7l0.9,0.3l-0.2,0.7L656.9,2532.4z M655.1,2531.9l0.2-0.7l0.9,0.3l-0.2,0.7       L655.1,2531.9z M653.3,2531.4l0.2-0.7l0.9,0.3l-0.2,0.7L653.3,2531.4z M651.5,2530.8l0.2-0.7l0.9,0.3l-0.2,0.7L651.5,2530.8z        M649.6,2530.3l0.2-0.7l0.9,0.2l-0.2,0.7L649.6,2530.3z M647.8,2529.8l0.2-0.7l0.9,0.2l-0.2,0.7L647.8,2529.8z M646,2529.4       l0.2-0.7l0.9,0.2l-0.2,0.7L646,2529.4z M644.1,2528.9l0.2-0.7l0.9,0.2l-0.2,0.7L644.1,2528.9z M642.3,2528.5l0.2-0.7l0.9,0.2       l-0.2,0.7L642.3,2528.5z M640.4,2528.1l0.2-0.7l0.9,0.2l-0.2,0.7L640.4,2528.1z M638.6,2527.6l0.2-0.7l0.9,0.2l-0.2,0.7       L638.6,2527.6z M636.7,2527.3l0.2-0.7l0.9,0.2l-0.2,0.7L636.7,2527.3z M634.9,2526.9l0.1-0.7l0.9,0.2l-0.1,0.7L634.9,2526.9z        M633,2526.5l0.1-0.7l0.9,0.2l-0.1,0.7L633,2526.5z M631.1,2526.2l0.1-0.7l0.9,0.2l-0.1,0.7L631.1,2526.2z M629.3,2525.8       l0.1-0.7l0.9,0.2l-0.1,0.7L629.3,2525.8z M627.4,2525.5l0.1-0.7l0.9,0.2l-0.1,0.7L627.4,2525.5z M625.5,2525.2l0.1-0.7l0.9,0.2       l-0.1,0.7L625.5,2525.2z M623.6,2524.9l0.1-0.7l0.9,0.1l-0.1,0.7L623.6,2524.9z M621.8,2524.6l0.1-0.7l0.9,0.1l-0.1,0.7       L621.8,2524.6z M619.9,2524.3l0.1-0.7l0.9,0.1l-0.1,0.7L619.9,2524.3z M618,2524.1l0.1-0.7l0.9,0.1l-0.1,0.7L618,2524.1z        M616.1,2523.8l0.1-0.7l0.9,0.1l-0.1,0.7L616.1,2523.8z M614.2,2523.6l0.1-0.7l0.9,0.1l-0.1,0.7L614.2,2523.6z M612.3,2523.3       l0.1-0.7l0.9,0.1l-0.1,0.7L612.3,2523.3z M610.4,2523.1l0.1-0.7l0.9,0.1l-0.1,0.7L610.4,2523.1z M608.6,2522.9l0.1-0.7l0.9,0.1       l-0.1,0.7L608.6,2522.9z M606.7,2522.7l0.1-0.7l0.9,0.1l-0.1,0.7L606.7,2522.7z M604.8,2522.5l0.1-0.7l0.9,0.1l-0.1,0.7       L604.8,2522.5z M602.9,2522.3l0.1-0.7l0.9,0.1l-0.1,0.7L602.9,2522.3z M601,2522.2l0.1-0.7l1,0.1l-0.1,0.7L601,2522.2z        M593.4,2520.9l0.9,0.1l-0.1,0.7l-0.9-0.1L593.4,2520.9z M599.1,2522l0.1-0.7l1,0.1l-0.1,0.7L599.1,2522z M595.3,2521l1,0.1       l-0.1,0.7l-0.9-0.1L595.3,2521z M597.2,2521.9l0.1-0.7l0.9,0.1l-0.1,0.7L597.2,2521.9z" class="color58595b svgShape"/><polygon fill="#5b5958" points="659.3 2533.2 659.9 2532.9 659.5 2532.3 659.3 2532.4 659 2532.3 658.7 2533" class="color58595b svgShape"/><path fill="#5b5958" d="M660.4,2531.8l0.8-0.5l0.4,0.6l-0.8,0.5L660.4,2531.8z M662,2530.9l0.8-0.5l0.4,0.6l-0.8,0.5L662,2530.9z        M663.7,2530l0.8-0.5l0.4,0.6l-0.8,0.5L663.7,2530z M665.3,2529.1l0.8-0.5l0.4,0.6l-0.8,0.5L665.3,2529.1z M667,2528.1l0.8-0.5       l0.4,0.6l-0.8,0.5L667,2528.1z M668.6,2527.2l0.8-0.5l0.4,0.6l-0.8,0.5L668.6,2527.2z M670.2,2526.3l0.8-0.5l0.4,0.6l-0.8,0.5       L670.2,2526.3z M671.9,2525.4l0.8-0.5l0.4,0.6l-0.8,0.5L671.9,2525.4z M673.5,2524.5l0.8-0.5l0.4,0.6l-0.8,0.5L673.5,2524.5z        M675.2,2523.5l0.8-0.5l0.4,0.6l-0.8,0.5L675.2,2523.5z M676.8,2522.6l0.8-0.5l0.4,0.6l-0.8,0.5L676.8,2522.6z M678.5,2521.7       l0.8-0.5l0.4,0.6l-0.8,0.5L678.5,2521.7z M680.1,2520.8l0.8-0.5l0.4,0.6l-0.8,0.5L680.1,2520.8z M681.8,2519.8l0.8-0.5l0.4,0.6       l-0.8,0.5L681.8,2519.8z M683.4,2518.9l0.8-0.5l0.4,0.6l-0.8,0.5L683.4,2518.9z M685.1,2518l0.8-0.5l0.4,0.6l-0.8,0.5       L685.1,2518z M686.7,2517.1l0.8-0.5l0.4,0.6l-0.8,0.5L686.7,2517.1z M688.4,2516.1l0.8-0.5l0.4,0.6l-0.8,0.5L688.4,2516.1z        M690,2515.2l0.8-0.5l0.4,0.6l-0.8,0.5L690,2515.2z M691.7,2514.3l0.8-0.5l0.4,0.6l-0.8,0.5L691.7,2514.3z M693.1,2513.3       c0.1-0.2,0.2-0.3,0.2-0.5c0-0.1,0-0.1,0-0.2l0.7,0.1c0,0.1,0,0.1,0,0.2c-0.1,0.3-0.2,0.5-0.3,0.8L693.1,2513.3z M693.1,2511.5       l-0.3-0.4l0.6-0.4l0.3,0.4c0.1,0.2,0.2,0.3,0.3,0.5l-0.7,0.2C693.2,2511.8,693.1,2511.7,693.1,2511.5z M691.7,2509.7l0.6-0.4       l0.5,0.8l-0.6,0.4L691.7,2509.7z M690.6,2508.2l0.6-0.4l0.5,0.8l-0.6,0.4L690.6,2508.2z M689.5,2506.7l0.6-0.4l0.5,0.8       l-0.6,0.4L689.5,2506.7z M688.4,2505.1l0.6-0.4l0.5,0.8l-0.6,0.4L688.4,2505.1z M687.3,2503.6l0.6-0.4l0.5,0.8l-0.6,0.4       L687.3,2503.6z M686.2,2502.1l0.6-0.4l0.5,0.8l-0.6,0.4L686.2,2502.1z M685.2,2500.6l0.6-0.4l0.5,0.8l-0.6,0.4L685.2,2500.6z        M684.1,2499.1l0.6-0.4l0.5,0.8l-0.6,0.4L684.1,2499.1z M683,2497.6l0.6-0.4l0.5,0.8l-0.6,0.4L683,2497.6z M681.9,2496.1       l0.6-0.4l0.5,0.8l-0.6,0.4L681.9,2496.1z M680.8,2494.6l0.6-0.4l0.5,0.8l-0.6,0.4L680.8,2494.6z M679.7,2493.1l0.6-0.4l0.5,0.8       l-0.6,0.4L679.7,2493.1z M678.6,2491.6l0.6-0.4l0.5,0.8l-0.6,0.4L678.6,2491.6z M677.5,2490.1l0.6-0.4l0.5,0.8l-0.6,0.4       L677.5,2490.1z M676.4,2488.5l0.6-0.4l0.5,0.8l-0.6,0.4L676.4,2488.5z M675.3,2487l0.6-0.4l0.5,0.8l-0.6,0.4L675.3,2487z        M674.2,2485.5l0.6-0.4l0.5,0.8l-0.6,0.4L674.2,2485.5z M673.1,2484l0.6-0.4l0.5,0.8l-0.6,0.4L673.1,2484z M672.1,2482.5       l0.6-0.4l0.5,0.8l-0.6,0.4L672.1,2482.5z M671,2481l0.6-0.4l0.5,0.8l-0.6,0.4L671,2481z M669.9,2479.5l0.6-0.4l0.5,0.8       l-0.6,0.4L669.9,2479.5z M668.8,2478l0.6-0.4l0.5,0.8l-0.6,0.4L668.8,2478z M667.7,2476.5l0.6-0.4l0.5,0.8l-0.6,0.4       L667.7,2476.5z M666.6,2475l0.6-0.4l0.5,0.8l-0.6,0.4L666.6,2475z M665.5,2473.4l0.6-0.4l0.5,0.8l-0.6,0.4L665.5,2473.4z" class="color58595b svgShape"/><path fill="#e8e7e6" d="M681 2508.1c.4-1.9 2.4-3.2 4.4-2.8 2 .4 3.3 2.3 2.9 4.2-.4 1.9-2.4 3.2-4.4 2.8C681.8 2511.9 680.5 2510 681 2508.1zM682.1 2508.3c-.3 1.3.6 2.6 2 2.9 1.4.3 2.7-.6 3-1.9.3-1.3-.6-2.6-2-2.9C683.7 2506.1 682.4 2507 682.1 2508.3zM669.7 2493.6c.4-1.9 2.4-3.2 4.4-2.8 2 .4 3.3 2.3 2.9 4.2-.4 1.9-2.4 3.2-4.4 2.8C670.6 2497.5 669.3 2495.6 669.7 2493.6zM670.8 2493.9c-.3 1.3.6 2.6 2 2.9 1.4.3 2.7-.6 3-1.9.3-1.3-.6-2.6-2-2.9C672.5 2491.7 671.1 2492.5 670.8 2493.9z" class="colore6e7e8 svgShape"/><path fill="#23201f" d="M684.3,2508.4c-0.3,0.3-0.3,0.8,0,1.1c0.1,0.1,0.2,0.2,0.4,0.2c0.3,0,0.6,0,0.8-0.2        c0.4-0.4,7-7.3,8.3-13.3c0-0.2,0.1-0.4,0.1-0.6c0.1-0.7,0.1-1.3,0.1-1.9c-0.1-0.7-0.2-1.3-0.5-1.9c-1.2-2.4-4.1-3.8-8.8-3.9        c0.6,0.6,1.1,1.1,1.7,1.7c3,0.3,4.9,1.3,5.6,2.9c0.1,0.1,0.1,0.3,0.2,0.4c0.2,0.5,0.2,1.1,0.2,1.8c0,0.1,0,0.2,0,0.3        C691.8,2499.5,686.6,2505.9,684.3,2508.4z" class="color231f20 svgShape"/><path fill="#23201f" d="M673.4,2494c0.1,0.4,0.5,0.7,1,0.6c3.6-0.8,12.2-2.1,17.1-0.3c0.3,0.1,0.6,0.2,0.8,0.3        c0.6,0.3,1.1,0.6,1.5,1c0.2,0.2,0.3,0.3,0.5,0.5c0.2,0.3,0.4,0.6,0.5,0.9c0.6,0.5,1.3,1,1.9,1.5c0-1.3-0.4-2.4-1.1-3.4        c-0.5-0.6-1-1.1-1.7-1.5c-0.5-0.3-1.2-0.6-1.8-0.9c-0.9-0.3-2-0.6-3-0.7c-6.4-0.9-14.5,0.9-15,1        C673.6,2493.1,673.3,2493.6,673.4,2494z" class="color231f20 svgShape"/><path fill="#e8e7e6" d="M658.5,2479c0.2-2,2-3.4,4-3.3c2,0.2,3.5,1.9,3.4,3.9c-0.2,2-2,3.4-4,3.3       C659.8,2482.7,658.3,2480.9,658.5,2479z M659.6,2479.1c-0.1,1.4,0.9,2.6,2.3,2.7c1.4,0.1,2.6-0.9,2.8-2.3       c0.1-1.4-0.9-2.6-2.3-2.7C661,2476.7,659.7,2477.7,659.6,2479.1z" class="colore6e7e8 svgShape"/><path fill="#23201f" d="M661.4,2479.6c0.2,0.4,0.7,0.5,1.1,0.3c2.3-1.2,7.6-3.5,11.7-3.5c1.4,0,2.6,0.3,3.5,0.9       c1.3,0.9,1.9,2.6,1.7,5.1c0.5,0.5,1,1.1,1.5,1.6c0.5-3.8-0.2-6.4-2.2-7.9c-1.5-1.1-3.5-1.3-5.6-1.2c-5.1,0.4-10.9,3.5-11.2,3.7       C661.4,2478.8,661.2,2479.3,661.4,2479.6z" class="color231f20 svgShape"/><path fill="#333333" d="M430.1,1658.9c-37.4,96.4-60.7,225.8-79.3,366.2c-4.4,25.2-14.9,49-30.7,69.5l-205.1,265l80.2,53.4      l231.7-239.8c30.8-30.9,53.4-68.6,65.8-109.9l58.1-193.6l72.7,190.6c11.5,30.2,14.9,62.7,9.8,94.5l-46.1,286.7l94.4,14.8      l77.5-300.7c14.5-50.2,16.7-103,6.6-154.2l-66.2-334.1l-157.7-30.5L430.1,1658.9z" class="color333 svgShape"/><path fill="#ffb58a" d="M358.8 1009.6l10.1-19.6c1.5-3.8 4.5-6.8 8.3-8.3l16.3-6.5c3.1-1.2 4.6-4.7 3.5-7.8l0 0c-.9-2.6-3.5-4.2-6.2-4l-15.6 1.2c-4.2.3-7.6-3.1-7.4-7.2l2.3-42c.2-3.3-2.3-6.1-5.6-6.4l0 0c-3.2-.3-6.1 2-6.5 5.2l-3.2 23.4 3.6-26.4c.5-3.8-2.3-7.3-6.2-7.5l0 0c-3.5-.2-6.5 2.4-6.9 5.9l-4.3 39.1 3.7-31.1c.4-3.6-2.2-6.9-5.8-7.3l0 0c-3.6-.4-6.8 2.3-7.2 5.9l-4 41.9 3.1-31.7c.4-3.5-2.2-6.7-5.7-7.1l0 0c-3.4-.4-6.6 1.9-7.2 5.3-4.7 25.5-6.2 54-5.8 84.2L358.8 1009.6zM609.7 1271.4c-29.4 42.5-52.7 36.3-70.1-15.9l2.3-51.2 67.6 9.6L609.7 1271.4z" class="colorf7c19b svgShape"/><path fill="#ffb58a" d="M654.6,1117.4c0,0,20,70.2-4.6,108.1c-12.8,19.6-38.5,26.2-59.5,15.7c-16-8-39.4-23-56.9-47.9      c-1.5-2.2,6.9-64,6.9-64l16.1-20.3l57-4.3L654.6,1117.4z" class="colorf7c19b svgShape"/><path fill="#333333" d="M584.4,1145.9c0,0,7.2,3.3,16.2,5.2c13,2.8,25.8-5.6,28.5-18.6l0.7-3.2c0,0,58.4,0.4,39.3-53.1      c-3.1-8.7-10.3-15.5-19.4-17.4c-11.1-2.4-28.9-1.3-56.6,11.6c-8.2,3.8-17.9,1.8-26.2-1.9c-9.3-4.1-23.8-4.4-35.2,23      c-2,4.8-4.8,9.2-8.2,13.1c-9.8,11.2-38.3,59.7,16.1,115.4c1.7,1.8,4.7,0.5,4.7-1.9c-0.3-18.5,0.8-68.1,22.9-58.4l0.1,0      c4.1,1.8,7.1,5.6,8,10l2.3,11.5c0.5,2.7,3.6,4.1,5.9,2.7c2.4-1.5,4.9-4.1,5.5-6.8l0,0C589.1,1170.1,584.4,1145.9,584.4,1145.9z" class="color333 svgShape"/><path fill="#ffb58a" d="M811.7,1001.6l-4.6-25.3c-0.7-4-3.1-7.5-6.5-9.8l-14.7-9.6c-2.8-1.8-3.6-5.5-1.9-8.4l0,0      c1.4-2.3,4.3-3.4,6.9-2.7l15.1,4.3c4,1.1,8.1-1.5,8.7-5.6l6.1-41.6c0.5-3.3,3.4-5.5,6.7-5.2l0,0c3.2,0.4,5.6,3.2,5.4,6.4      l-1.5,23.5l1.7-26.6c0.3-3.9,3.7-6.7,7.6-6.1l0,0c3.5,0.5,5.9,3.6,5.6,7.1l-3.5,39.2l2.6-31.2c0.3-3.6,3.5-6.3,7.2-6l0,0      c3.6,0.4,6.2,3.6,5.9,7.2l-4.4,41.8l3.2-31.7c0.4-3.5,3.5-6.1,7-5.8l0,0c3.4,0.3,6.1,3.2,6,6.6c-0.4,25.9-4.7,54.2-11,83.7      L811.7,1001.6z" class="colorf7c19b svgShape"/><path fill="#eeeeee" d="M522.7,1282.5l16.8-27c17.9,29.4,41,36,70.1,15.9l65.4,122.8l-29.1,51.6l-19.3,191.5l-30.3,89       c-18.1,22.4-44.3,23.5-75.1,12.5l-33.4-27l-33.5-195.4l6-80.7c0,0,20.5-55.3,23.3-58C486.6,1375.1,522.7,1282.5,522.7,1282.5z" class="coloreee svgShape"/><path fill="#e5671e" d="M521.2 1725.4c.5 4 2.2 9.7 0 13.5-23.5 40.9-105.4 35.5-126.7 34.7-3.5-.1-6.1-3.1-5.9-6.6 12-134.6 30.2-249.2 30.4-361.2 0-21.4-11.5-41.2-30.2-51.7-37.8-21.2-98.5-58.2-103.8-79.8-20.5-83.9 20.9-287.3 20.9-287.3l67.5 5.5c0 0-17.8 234.9 7.5 238 115 14 101.5 10.5 158.6 24.9 0 .4.5 15.5.6 16.3 1.7 64.2 8.5 129.3 5 193.6-4.4 80.3-30.2 158.7-25.7 239.6C519.8 1711.8 520.4 1718.6 521.2 1725.4zM802.4 982.8c-14.3 62.1-19.4 185.8-24.3 255.7-109 14.1-168 29.6-168.4 33 2.1 16.8 4.3 33.6 6.4 50.4 4 31.6 4.4 62-.9 93.6-4.2 25.3-10 50.5-12.2 76.1-2.5 30 2.1 59.3 3.5 89.1 2.7 55.6-6.8 111.3-12.3 166.5-.8 7.9 5.6 14.6 13.5 14.3 31.5-1.5 81.2-31.5 104.1-50.9 2.5-2.1 3.8-5.3 3.7-8.6-1.4-36.9 7.2-329.4 14.1-330.4 6.2-.9 117.5-55.6 129.7-85.6 23.6-63.6 8.1-203.5 10.8-294.4L802.4 982.8z" class="color1e88e5 svgShape"/><path fill="#eab596" d="M609.6,1246.2c0,0-25.6-0.6-46.2-20.2c0,0,11.4,25.1,46.2,34.9L609.6,1246.2z" class="coloreab896 svgShape"/><g><path fill="#eab596" d="M1721.8,657.5L1637.1,820c-12.4,23.8-12.5,52.1-0.3,75.9l52.6,102.9c8.4,16.4,22.8,28.9,40.2,34.9l224.5,77.7    l24.2-87.1l-165.5-82.7c-3.1-1.6-5.6-4.2-6.9-7.4l-20.3-50.1c-2.7-6.7-0.1-14.3,6.2-17.9l69.6-39.7c10.7-6.1,22.8-9.2,35-9    l95.5,1.6l-29-122.9L1721.8,657.5z" class="coloreab896 svgShape"/><path fill="#ffb58a" d="M2423.2,1039.5l-181,42.8c-34.4,8.1-67.1,22-96.7,41.3c-61.9,40.3-200.5,113.5-417.8,137.5    c-10.3,1.1-20.6,2.8-30.7,5.3l-254.8,62.9c-28.5,7-53.4-19.9-44.6-47.9c18.9-59.6,89.7-147.3,334.9-185.2    c19.3-3,37.4-11.3,51.8-24.4c41.9-37.8,124.4-125.6,142.7-242.5c2.8-17.9-7-35.5-23.7-42.4l-131.4-54.7    c-21.3-8.9-45.6-7.1-65.4,4.7l-80.6,48.3c-37.6-2.6-98.3,6.4-164.4,26.4c-57.7,17.4-107.4,39.5-138.9,60.2    c-0.1-0.8-0.1-1.6-0.1-2.4c0-22.1,9.3-43.8,26.7-59.1L1601.3,588c53.7-47.4,126.2-67.4,196.5-54.2l230.4,42.9    c38,7,73.5,24.7,100.5,52.3c29.3,30.1,86.8,65.3,192.5,56.9L2423.2,1039.5z" class="colorf7c19b svgShape"/><path fill="#eab596" d="M2423.3,1039.5l-181,42.8c-34.4,8.2-67.1,22-96.8,41.3c-61.9,40.4-200.4,113.5-417.7,137.5    c-10.4,1.1-20.6,2.9-30.7,5.4l-254.8,62.9c-24.7,6.1-46.8-13.3-46.4-36.9c8.5,11.2,23,17.6,38.7,13.7l254.8-63    c10-2.5,20.3-4.2,30.7-5.4c217.3-24,355.8-97.2,417.7-137.5c29.6-19.3,62.4-33.2,96.7-41.3l181-42.8L2320.2,686    c0.3,0,0.8-0.1,1.1-0.1L2423.3,1039.5z" class="coloreab896 svgShape"/><polygon fill="#f5f5f5" points="2570.5 1093.5 2285.2 1142.7 2228.2 663.5 2484.4 619.3" class="colorf5f5f5 svgShape"/><polygon fill="#424140" points="2975 1011.6 2362.8 1178.9 2300.2 619 2971.3 398.8" class="color414042 svgShape"/><path fill="#f5f5f5" d="M2440.5 1105.9c3.4 13.6-4.9 27.5-18.6 30.9-13.7 3.4-27.5-4.9-30.9-18.6-3.4-13.7 4.9-27.5 18.6-30.9C2423.3 1083.9 2437.1 1092.3 2440.5 1105.9zM2527 1085.4c3.4 13.7-4.9 27.5-18.6 30.9-13.7 3.4-27.5-4.9-30.9-18.6-3.4-13.7 4.9-27.5 18.6-30.9C2509.8 1063.4 2523.6 1071.7 2527 1085.4z" class="colorf5f5f5 svgShape"/><path fill="#ffbf66" d="M1740.1,1051.8c1.9,6.4-1.3,14.1-8.8,22.4c-23.2,25.7-87,58.1-165.7,81.9c-78.7,23.8-149.8,32.2-183.4,23.6      c-10.9-2.8-17.9-7.3-19.8-13.8c-7.9-26.1,70.3-72.8,174.6-104.3C1641.3,1030.2,1732.2,1025.8,1740.1,1051.8z" class="colorffa726 svgShape"/><path fill="#f76e1c" d="M1740.1,1051.8l10.9,36.1c7.9,26.1-70.3,72.8-174.6,104.3c-104.3,31.5-195.3,35.9-203.2,9.8l-10.9-36.1      c1.9,6.4,8.9,11,19.8,13.8c33.5,8.5,104.6,0.2,183.4-23.6c78.7-23.8,142.6-56.2,165.7-81.9      C1738.8,1065.9,1742,1058.2,1740.1,1051.8z" class="colorf7991c svgShape"/><path fill="#ff6103" d="M1740.1,1051.8l10.9,36.1c7.9,26.1-70.3,72.8-174.6,104.3l-10.9-36.1c78.7-23.8,142.6-56.2,165.7-81.9      C1738.8,1065.9,1742,1058.2,1740.1,1051.8z" class="colorfb8c00 svgShape"/><path fill="#ff6103" d="M1561.2,1142c-57.3,17.3-167.6,43.1-175.6,16.9c-7.9-26.2,98.3-65.9,155.5-83.2      c57.3-17.3,167.6-43.1,175.6-16.9C1724.7,1085.1,1618.5,1124.7,1561.2,1142z M1543.9,1084.6c-102.9,31.1-151.9,63.2-149.4,71.6      s61.2,8,164-23.1c102.9-31.1,151.9-63.2,149.4-71.6C1705.4,1053.1,1646.8,1053.5,1543.9,1084.6z" class="colorfb8c00 svgShape"/><path fill="#ff6103" d="M1464.7,1132.5l20.3-6.1c-0.9-3.8,1.5-8.7,5.9-12.4l13.9-2.5c-4.1,3.8-7,8.2-5.9,11.8      c1.4,4.5,10.5,5.1,22,1.6c11.1-3.3,17.2-7.9,21.8-14.4c6.1-8.9,14.1-15.7,31.6-21c16.7-5,30.5-5.1,35.3-0.2l20.3-6.1l1.2,3.9      l-19.5,5.9c0.8,3.9-1.7,7.5-4.5,10.4l-13.8,2.4c2-2.1,5.6-6,4.4-10.1c-1.5-4.9-11.3-4-19.3-1.5c-10.5,3.2-15,7.1-20.5,14.8      c-6.5,9.1-15.9,15.6-33.8,21c-15.9,4.8-31.8,5.8-37.2,0.3l-20.9,6.3L1464.7,1132.5z" class="colorfb8c00 svgShape"/><path fill="#ffbf66" d="M1711.2,1014c1.9,6.4-1.3,14.1-8.8,22.4c-23.2,25.7-87,58.1-165.7,81.9c-78.7,23.8-149.8,32.2-183.4,23.6      c-10.9-2.8-17.9-7.3-19.8-13.8c-7.9-26.1,70.3-72.8,174.6-104.3C1612.4,992.3,1703.3,987.9,1711.2,1014z" class="colorffa726 svgShape"/><path fill="#f76e1c" d="M1711.2,1014l10.9,36.1c7.9,26.1-70.3,72.8-174.6,104.3c-104.3,31.5-195.3,35.9-203.2,9.8l-10.9-36.1      c1.9,6.4,8.9,11,19.8,13.8c33.5,8.6,104.6,0.2,183.4-23.6c78.7-23.8,142.6-56.2,165.7-81.9      C1709.9,1028,1713.1,1020.4,1711.2,1014z" class="colorf7991c svgShape"/><path fill="#ff6103" d="M1711.2,1014l10.9,36.1c7.9,26.1-70.3,72.8-174.6,104.3l-10.9-36.1c78.7-23.8,142.6-56.2,165.7-81.9      C1709.9,1028,1713.1,1020.4,1711.2,1014z" class="colorfb8c00 svgShape"/><path fill="#ff6103" d="M1532.3,1104.2c-57.3,17.3-167.6,43.1-175.6,16.9c-7.9-26.2,98.3-65.9,155.5-83.2      c57.3-17.3,167.6-43.1,175.6-16.9C1695.7,1047.2,1589.6,1086.9,1532.3,1104.2z M1514.9,1046.8      c-102.9,31.1-151.9,63.2-149.4,71.6c2.6,8.5,61.2,8,164-23.1c102.9-31.1,151.9-63.2,149.4-71.6      C1676.4,1015.2,1617.8,1015.7,1514.9,1046.8z" class="colorfb8c00 svgShape"/><path fill="#ff6103" d="M1435.7,1094.7l20.3-6.1c-0.9-3.8,1.5-8.7,5.9-12.4l13.9-2.5c-4.1,3.8-7,8.2-5.9,11.8      c1.4,4.5,10.5,5.1,22,1.6c11.1-3.3,17.2-7.9,21.8-14.4c6.1-8.9,14.1-15.7,31.6-21c16.7-5,30.5-5.1,35.3-0.2l20.3-6.1l1.2,3.9      l-19.5,5.9c0.8,3.9-1.7,7.5-4.5,10.4l-13.8,2.4c2-2.1,5.6-6,4.4-10.1c-1.5-4.9-11.3-4-19.3-1.5c-10.5,3.2-15,7.1-20.5,14.8      c-6.5,9.1-15.9,15.6-33.8,21c-15.9,4.8-31.8,5.8-37.2,0.3l-20.9,6.3L1435.7,1094.7z" class="colorfb8c00 svgShape"/><path fill="#ffbf66" d="M1714.9,968.5c1.9,6.4-1.3,14.1-8.8,22.4c-23.2,25.7-87,58.1-165.7,81.9c-78.7,23.8-149.8,32.2-183.4,23.6      c-10.9-2.8-17.9-7.3-19.8-13.8c-7.9-26.1,70.3-72.8,174.6-104.3S1707,942.4,1714.9,968.5z" class="colorffa726 svgShape"/><path fill="#f76e1c" d="M1714.9,968.5l10.9,36.1c7.9,26.1-70.3,72.8-174.6,104.3c-104.3,31.5-195.3,35.9-203.2,9.8l-10.9-36.1      c1.9,6.4,8.9,11,19.8,13.8c33.5,8.5,104.6,0.2,183.4-23.6c78.7-23.8,142.6-56.2,165.7-81.9      C1713.6,982.5,1716.8,974.9,1714.9,968.5z" class="colorf7991c svgShape"/><path fill="#ff6103" d="M1714.9,968.5l10.9,36.1c7.9,26.1-70.3,72.8-174.6,104.3l-10.9-36.1c78.7-23.8,142.6-56.2,165.7-81.9      C1713.6,982.5,1716.8,974.9,1714.9,968.5z" class="colorfb8c00 svgShape"/><path fill="#ff6103" d="M1536.1,1058.7c-57.3,17.3-167.6,43.1-175.6,16.9c-7.9-26.2,98.3-65.9,155.5-83.2      c57.3-17.3,167.6-43.1,175.6-16.9C1699.5,1001.7,1593.3,1041.4,1536.1,1058.7z M1518.7,1001.3      c-102.9,31.1-151.9,63.2-149.4,71.6c2.6,8.5,61.2,8,164-23.1c102.9-31.1,151.9-63.2,149.4-71.6      C1680.2,969.7,1621.6,970.2,1518.7,1001.3z" class="colorfb8c00 svgShape"/><path fill="#ff6103" d="M1439.5,1049.2l20.3-6.1c-0.9-3.8,1.5-8.7,5.9-12.4l13.9-2.5c-4.1,3.8-7,8.2-5.9,11.8      c1.4,4.5,10.5,5.1,22,1.6c11.1-3.3,17.2-7.9,21.8-14.4c6.1-8.9,14.1-15.7,31.6-21c16.7-5,30.5-5.1,35.3-0.2l20.3-6.1l1.2,3.9      l-19.5,5.9c0.8,3.9-1.7,7.5-4.5,10.4l-13.8,2.4c2-2.1,5.6-6,4.4-10.1c-1.5-4.9-11.3-4-19.3-1.5c-10.5,3.2-15,7.1-20.5,14.8      c-6.5,9.1-15.9,15.6-33.8,21c-15.9,4.8-31.8,5.8-37.2,0.3l-20.9,6.3L1439.5,1049.2z" class="colorfb8c00 svgShape"/><path fill="#ffbf66" d="M1702.3,926.8c1.9,6.4-1.3,14.1-8.8,22.4c-23.2,25.7-87,58.1-165.7,81.9c-78.7,23.8-149.8,32.2-183.4,23.6      c-10.9-2.8-17.9-7.3-19.8-13.8c-7.9-26.1,70.3-72.8,174.6-104.3S1694.4,900.7,1702.3,926.8z" class="colorffa726 svgShape"/><path fill="#f76e1c" d="M1702.3,926.8l10.9,36.1c7.9,26.1-70.3,72.8-174.6,104.3s-195.3,35.9-203.2,9.8l-10.9-36.1      c1.9,6.4,8.9,11,19.8,13.8c33.5,8.5,104.6,0.2,183.4-23.6c78.7-23.8,142.6-56.2,165.7-81.9      C1701,940.9,1704.2,933.2,1702.3,926.8z" class="colorf7991c svgShape"/><path fill="#ff6103" d="M1702.3,926.8l10.9,36.1c7.9,26.1-70.3,72.8-174.6,104.3l-10.9-36.1c78.7-23.8,142.6-56.2,165.7-81.9      C1701,940.8,1704.3,933.2,1702.3,926.8z" class="colorfb8c00 svgShape"/><path fill="#ff6103" d="M1523.5,1017c-57.3,17.3-167.6,43.1-175.6,16.9c-7.9-26.2,98.3-65.9,155.5-83.2      c57.3-17.3,167.6-43.1,175.6-16.9C1686.9,960.1,1580.7,999.7,1523.5,1017z M1506.1,959.6c-102.9,31.1-151.9,63.2-149.4,71.6      c2.6,8.5,61.2,8,164-23.1c102.9-31.1,151.9-63.2,149.4-71.6C1667.6,928,1609,928.5,1506.1,959.6z" class="colorfb8c00 svgShape"/><path fill="#ff6103" d="M1426.9,1007.5l20.3-6.1c-0.9-3.8,1.5-8.7,5.9-12.4l13.9-2.5c-4.1,3.8-7,8.2-5.9,11.8      c1.4,4.5,10.5,5.1,22,1.6c11.1-3.3,17.2-7.9,21.8-14.4c6.1-8.9,14.1-15.7,31.6-21c16.7-5,30.5-5.1,35.3-0.2l20.3-6.1l1.2,3.9      l-19.5,5.9c0.8,3.9-1.7,7.5-4.5,10.4l-13.8,2.4c2-2.1,5.6-6,4.4-10.1c-1.5-4.9-11.3-4-19.3-1.5c-10.5,3.2-15,7.1-20.5,14.8      c-6.5,9.1-15.9,15.6-33.8,21c-15.9,4.8-31.8,5.8-37.2,0.3l-20.9,6.3L1426.9,1007.5z" class="colorfb8c00 svgShape"/><path fill="#ffbf66" d="M1698.6,882.9c1.9,6.4-1.3,14.1-8.8,22.4c-23.2,25.7-87,58.1-165.7,81.9c-78.7,23.8-149.8,32.2-183.4,23.6      c-10.9-2.8-17.9-7.3-19.8-13.8c-7.9-26.1,70.3-72.8,174.6-104.3C1599.8,861.3,1690.7,856.9,1698.6,882.9z" class="colorffa726 svgShape"/><path fill="#f76e1c" d="M1698.6,882.9l10.9,36.1c7.9,26.1-70.3,72.8-174.6,104.3c-104.3,31.5-195.3,35.9-203.2,9.8l-10.9-36.1      c1.9,6.4,8.9,11,19.8,13.8c33.5,8.5,104.6,0.2,183.4-23.6c78.7-23.8,142.6-56.2,165.7-81.9      C1697.3,897,1700.5,889.3,1698.6,882.9z" class="colorf7991c svgShape"/><path fill="#ff6103" d="M1698.6,882.9l10.9,36.1c7.9,26.1-70.3,72.8-174.6,104.3l-10.9-36.1c78.7-23.8,142.6-56.2,165.7-81.9      C1697.3,897,1700.5,889.3,1698.6,882.9z" class="colorfb8c00 svgShape"/><path fill="#ff6103" d="M1519.7,973.1c-57.3,17.3-167.6,43.1-175.6,16.9c-7.9-26.2,98.3-65.9,155.5-83.2      c57.3-17.3,167.6-43.1,175.6-16.9C1683.2,916.2,1577,955.8,1519.7,973.1z M1502.4,915.7c-102.9,31.1-151.9,63.2-149.4,71.6      c2.6,8.5,61.2,8,164-23.1c102.9-31.1,151.9-63.2,149.4-71.6C1663.8,884.2,1605.2,884.6,1502.4,915.7z" class="colorfb8c00 svgShape"/><path fill="#ff6103" d="M1423.1,963.7l20.3-6.1c-0.9-3.8,1.5-8.7,5.9-12.4l13.9-2.5c-4.1,3.8-7,8.2-5.9,11.8      c1.4,4.5,10.5,5.1,22,1.6c11.1-3.3,17.2-7.9,21.8-14.4c6.1-8.9,14.1-15.7,31.6-21c16.7-5,30.5-5.1,35.3-0.2l20.3-6.1l1.2,3.9      l-19.5,5.9c0.8,3.9-1.7,7.5-4.5,10.4l-13.8,2.4c2-2.1,5.6-6,4.4-10.1c-1.5-4.9-11.3-4-19.3-1.5c-10.5,3.2-15,7.1-20.5,14.8      c-6.5,9.1-15.9,15.6-33.8,21c-15.9,4.8-31.8,5.8-37.2,0.3l-20.9,6.3L1423.1,963.7z" class="colorfb8c00 svgShape"/><g fill="none"><path fill="#ffbf66" d="M1677.1,843.5c1.9,6.4-1.3,14.1-8.8,22.4c-23.2,25.7-87,58.1-165.7,81.9c-78.7,23.8-149.8,32.2-183.4,23.6      c-10.9-2.8-17.9-7.3-19.8-13.8c-7.9-26.1,70.3-72.8,174.6-104.3S1669.3,817.4,1677.1,843.5z" class="colorffa726 svgShape"/><path fill="#f76e1c" d="M1677.1,843.5l10.9,36.1c7.9,26.1-70.3,72.8-174.6,104.3c-104.3,31.5-195.3,35.9-203.2,9.8l-10.9-36.1      c1.9,6.4,8.9,11,19.8,13.8c33.5,8.5,104.6,0.2,183.4-23.6c78.7-23.8,142.6-56.2,165.7-81.9      C1675.8,857.5,1679.1,849.9,1677.1,843.5z" class="colorf7991c svgShape"/><path fill="#ff6103" d="M1677.1,843.4l10.9,36.1c7.9,26.1-70.3,72.8-174.6,104.3l-10.9-36.1c78.7-23.8,142.6-56.2,165.7-81.9      C1675.8,857.5,1679.1,849.9,1677.1,843.4z" class="colorfb8c00 svgShape"/><path fill="#ff6103" d="M1498.3,933.7c-57.3,17.3-167.6,43.1-175.6,16.9c-7.9-26.2,98.3-65.9,155.5-83.2      c57.3-17.3,167.6-43.1,175.6-16.9C1661.7,876.7,1555.5,916.4,1498.3,933.7z M1480.9,876.2c-102.9,31.1-151.9,63.2-149.4,71.6      c2.6,8.5,61.2,8,164-23.1c102.9-31.1,151.9-63.2,149.4-71.6C1642.4,844.7,1583.8,845.2,1480.9,876.2z" class="colorfb8c00 svgShape"/><path fill="#ff6103" d="M1401.7,924.2l20.3-6.1c-0.9-3.8,1.5-8.7,5.9-12.4l13.9-2.5c-4.1,3.8-7,8.2-5.9,11.8      c1.4,4.5,10.5,5.1,22,1.6c11.1-3.3,17.2-7.9,21.8-14.4c6.1-8.9,14.1-15.7,31.6-21c16.7-5,30.5-5.1,35.3-0.2l20.3-6.1l1.2,3.9      l-19.5,5.9c0.8,3.9-1.7,7.5-4.5,10.4l-13.8,2.4c2-2.1,5.6-6,4.4-10.1c-1.5-4.9-11.3-4-19.3-1.5c-10.5,3.2-15,7.1-20.5,14.8      c-6.5,9.1-15.9,15.6-33.8,21c-15.9,4.8-31.8,5.8-37.2,0.3l-20.9,6.3L1401.7,924.2z" class="colorfb8c00 svgShape"/></g><path fill="#ffbf66" d="M1664.5,801.8c1.9,6.4-1.3,14.1-8.8,22.4c-23.2,25.7-87,58.1-165.7,81.9c-78.7,23.8-149.8,32.2-183.4,23.6    c-10.9-2.8-17.9-7.3-19.8-13.8c-7.9-26.1,70.3-72.8,174.6-104.3C1565.7,780.1,1656.7,775.7,1664.5,801.8z" class="colorffa726 svgShape"/><path fill="#ffbf66" d="M1655.7,824.2c-23.2,25.7-87,58.1-165.7,81.9c-78.7,23.8-149.8,32.2-183.4,23.6c-10.9-2.8-17.8-7.4-19.8-13.8    c-3.5-11.7,10.2-27.4,35.7-44.1c0.3,10.8,2.8,21.6,7.7,31.7c11.7,24.5,42,33.5,65.3,19.6l230.3-137.9c21.8,1.5,35.8,7,38.7,16.5    C1666.5,808.2,1663.2,815.8,1655.7,824.2z" class="colorffa726 svgShape"/><path fill="#f76e1c" d="M1664.5,801.8l10.9,36.1c7.9,26.1-70.3,72.8-174.6,104.3c-104.3,31.5-195.3,35.9-203.2,9.8l-10.9-36.1    c1.9,6.4,8.9,11,19.8,13.8c33.5,8.5,104.6,0.2,183.4-23.6c78.7-23.8,142.6-56.2,165.7-81.9    C1663.2,815.8,1666.5,808.2,1664.5,801.8z" class="colorf7991c svgShape"/><path fill="#ff6103" d="M1664.5,801.8l10.9,36.1c7.9,26.1-70.3,72.8-174.6,104.3l-10.9-36.1c78.7-23.8,142.6-56.2,165.7-81.9    C1663.2,815.8,1666.5,808.2,1664.5,801.8z" class="colorfb8c00 svgShape"/><path fill="#ff6103" d="M1485.7,892c-57.3,17.3-167.6,43.1-175.6,16.9c-7.9-26.2,98.3-65.9,155.5-83.2    c57.3-17.3,167.6-43.1,175.6-16.9C1649.1,835,1542.9,874.7,1485.7,892z M1468.3,834.6c-102.9,31.1-151.9,63.2-149.4,71.6    c2.6,8.5,61.2,8,164-23.1c102.9-31.1,151.9-63.2,149.4-71.6S1571.2,803.5,1468.3,834.6z" class="colorfb8c00 svgShape"/><path fill="#ff6103" d="M1389.1,882.5l20.3-6.1c-0.9-3.8,1.5-8.7,5.9-12.4l13.9-2.5c-4.1,3.8-7,8.2-5.9,11.8    c1.4,4.5,10.5,5.1,22,1.6c11.1-3.3,17.2-7.9,21.8-14.4c6.1-8.9,14.1-15.7,31.6-21c16.7-5,30.5-5.1,35.3-0.2l20.3-6.1l1.2,3.9    l-19.5,5.9c0.8,3.9-1.7,7.5-4.5,10.4l-13.8,2.4c2-2.1,5.6-6,4.4-10.1c-1.5-4.9-11.3-4-19.3-1.5c-10.5,3.2-15,7.1-20.5,14.8    c-6.5,9.1-15.9,15.6-33.8,21c-15.9,4.8-31.8,5.8-37.2,0.3l-20.9,6.3L1389.1,882.5z" class="colorfb8c00 svgShape"/><path fill="#ffb58a" d="M1625.8,785.2l-230.3,137.9c-23.3,13.9-53.6,4.9-65.3-19.6c-4.9-10.1-7.4-20.9-7.7-31.7    c31.6-20.7,75.3-72.8,133-90.2C1521.6,761.7,1588.2,782.6,1625.8,785.2z" class="colorf7c19b svgShape"/></g></svg>