<svg xmlns="http://www.w3.org/2000/svg" enable-background="new 0 0 600 600" viewBox="0 0 600 600"><path d="M291.7434998,131.9250183c-0.2568359,0-0.4755859-0.1967773-0.4975586-0.4575195            c-0.0234375-0.2749023,0.1801758-0.5170898,0.4555664-0.5405273l6.0410156-0.5166016            c0.2646484-0.0302734,0.5170898,0.1801758,0.5405273,0.4555664            c0.0234375,0.2749023-0.1801758,0.5170898-0.4555664,0.5405273l-6.0410156,0.5166016            C291.7723083,131.92453,291.7576599,131.9250183,291.7434998,131.9250183z" fill="#000000" class="color000 svgShape"/><path fill="#ea7d3d" d="M341.3233337,186.3964081c0,0,12.798584,17.5560455,0,50.4185181l-20.0814514-10.4052582              C321.2418823,226.409668,316.582428,193.5350342,341.3233337,186.3964081z" class="color413dea svgShape"/><path d="M321.0120544,226.8537292c-0.1435547-0.0742188-0.2421875-0.2133789-0.2651367-0.3735352              c-0.0473633-0.3330078-4.4331055-33.3881836,20.4375-40.5644531              c0.2041016-0.0571289,0.4189453,0.0170898,0.5424805,0.1860352              c0.1298828,0.1777344,12.8125,18.1557617,0.0620117,50.8950195              c-0.0512695,0.1318359-0.1567383,0.2363281-0.2895508,0.2861328              C341.1020508,237.4336395,342.2466125,237.7835541,321.0120544,226.8537292z M321.7059021,226.0871277              l19.3520508,10.0273438c11.3491211-29.628418,1.5805664-46.7402344,0.0532227-49.1342773              C318.5794373,193.7892761,321.3523865,223.0485535,321.7059021,226.0871277z" fill="#000000" class="color000 svgShape"/><path fill="#ffd4bb" d="M439.7648315,163.6821442c0,0,11.4505005-9.2973938,14.4985657-8.3205414              c3.0831604,0.9768677-1.6948242,5.6841736-3.2362671,7.108078              c3.8364868-1.4239044,6.5776062-1.2841644,8.0018005,0.13974              c1.2354431,1.2360229-0.9886475,2.7300415-1.6712952,3.1420441              c0.3884583,0.0591888,0.7062073,0.2005463,0.9415283,0.4355621              c1.459259,1.4589691-1.8476868,3.2713165-1.8476868,3.2713165h-0.0939636              c0.3763733,0.0591888,0.6941528,0.2120361,0.9530029,0.459137              c1.4474792,1.447464-1.3885498,3.4833527-1.3885498,3.4833527s-4.5302429,8.0273743-11.5794067,7.8509674              c-1.1061401,1.1417694-7.6847229,7.8964539-17.6877441,16.2756042              c-17.6524048,14.7924957-45.9548645,34.6577759-73.6691895,37.8112946              c-11.1680603,1.2710724-23.9013977-4.8837128-34.2693176-10.2144775l1.8476868-41.2124939              c7.0727539,2.2002258,15.4636841,5.1658478,25.2428894,9.1910858              c2.1183472,0.8705444,4.2955933,1.7882233,6.5314331,2.7535858              c29.2678223-17.8408813,56.7465515-25.3017731,80.506897-28.4909363" class="colorffc8bb svgShape"/><path fill="#ffb58a" d="M318.4876404,225.5690613c-0.1738281-0.0893555-0.2797852-0.2719727-0.2709961-0.4672852              l1.8476563-41.2124023c0.0068359-0.1547852,0.0854492-0.2978516,0.2124023-0.3867188              c0.1264648-0.0893555,0.2875977-0.1147461,0.4355469-0.0683594              c7.9321289,2.4677734,16.4394531,5.5649414,25.2851563,9.2060547              c2.0454102,0.8408203,4.1459961,1.7250977,6.3017578,2.6542969              c25.0292969-15.2177734,51.3574219-24.5161133,80.4794922-28.4248047              c0.2714844-0.0375977,0.5249023,0.1552734,0.5620117,0.4291992              c0.0366211,0.2734375-0.1552734,0.5253906-0.4291992,0.5620117              c-29.0673828,3.9013672-55.3378906,13.1982422-80.3129883,28.421875              c-0.3583069,0.2215881,0.0145264,0.1584473-6.9814453-2.7177734              c-8.5888672-3.5351563-16.855957-6.5556641-24.5830078-8.9824219l-1.8041992,40.2431641              c10.7436523,5.5136719,23.0581055,11.2280273,33.6992188,10.0161133              c27.1787109-3.0927734,54.9189453-22.2070313,73.4042969-37.6977539              c9.4335938-7.9018555,15.8945313-14.4282227,17.6503906-16.2407227              c0.1747131-0.1808624,0.3689575-0.1489258,0.5854492-0.1489258c6.5419922,0,10.8735352-7.5229492,10.9169922-7.6000977              c0.0356445-0.0625,0.0849609-0.1176758,0.1435547-0.159668c0.4199219-0.3027344,1.5244141-1.265625,1.5893555-2.0742188              c0.0408325-0.5113068-0.4128723-0.8863831-0.9394531-0.9682617              c-0.5819702-0.0914764-0.5496521-0.9454956,0.0375977-0.9926758              c0.7080078-0.4111328,1.7558594-1.2285156,1.8476563-1.8759766              c0.019043-0.1318359,0.0107422-0.3129883-0.2192383-0.5429688              c-0.1538086-0.1538086-0.3706055-0.2504883-0.6630859-0.2949219              c-0.4611511-0.0703583-0.5823669-0.6810608-0.1831055-0.9223633              c0.7807617-0.4711914,1.7182617-1.2363281,1.7924805-1.8422852              c0.0151367-0.125,0.0043945-0.2973633-0.2163086-0.5180664              c-1.3168945-1.3168945-3.9716797-1.324707-7.4746094-0.0249023              c-0.5144043,0.1875763-0.912323-0.4667816-0.5131836-0.8359375              c2.6923828-2.4868164,4.2910156-4.7280273,4.0717773-5.7094727              c-0.0356445-0.1616211-0.1420898-0.3945313-0.6469727-0.5546875              c-2.0390625-0.6469727-9.6865234,4.7041016-14.0327148,8.2324219              c-0.2143555,0.1743164-0.5292969,0.1411133-0.703125-0.0732422s-0.1416016-0.5288086,0.0732422-0.703125              c1.1933594-0.9692383,11.7509766-9.4477539,14.9658203-8.4086914              c0.9179688,0.2905273,1.2246094,0.8618164,1.3198242,1.2895508              c0.3173828,1.4238281-1.2851563,3.5234375-2.8710938,5.1899414              c3.6469727-0.9306641,5.5454102-0.0820313,6.5180664,0.8911133              c1.0982056,1.0982056,0.2992859,2.4084778-0.9648438,3.3789063              c0.5049438,0.3610992,0.8296509,0.9411469,0.7368164,1.5908203              c-0.1274414,0.8920898-1.0063477,1.6845703-1.6826172,2.1728516              c0.4988708,0.3837433,0.7965698,0.9580688,0.7436523,1.6040039              c-0.1044922,1.2807617-1.5102539,2.4326172-1.9130859,2.737793              c-0.5581055,0.9511719-4.9370117,8.0136719-11.7265625,8.0141602c-0.0083008,0-0.0166016,0-0.0249023,0              c-1.9599609,2.0151367-8.3564453,8.434082-17.5751953,16.15625              c-18.5908203,15.5786133-46.5083008,34.8041992-73.9335938,37.9243164              C341.7443542,237.1243591,328.6920471,230.8154907,318.4876404,225.5690613z" class="colorfca495 svgShape"/><path fill="#ffd4bb" d="M367.2677307,518.1105347c-3.860321,22.1361084-13.0864563,26.1726074-27.0083923,14.4279175             c-1.8945313-1.5887451-3.8718262-3.4716797-5.9312744-5.6487427c0,0,0.459137-7.1904907-8.4256897-25.6665955h39.6351624             c0.4355774,3.8363953,0.8004456,7.1668396,1.071106,9.8382568             C367.0556946,515.5214844,367.2677307,518.1105347,367.2677307,518.1105347z" class="colorffc8bb svgShape"/><path fill="#ffc9a9" d="M366.6086426,511.0613708c-6.5151978,3.4872131-17.5775146,0.9701843-22.1126404,12.2389221             c-0.9653625,2.3536987-1.3296509,4.942688-2.6007385,7.1433716             c-0.447052,0.7767334-0.9883423,1.4710083-1.6359253,2.0947876             c-1.8945313-1.5887451-3.8718262-3.4716797-5.9312744-5.6487427c0,0,0.459137-7.1904907-8.4256897-25.6665955h39.6351624             C365.973114,505.0595093,366.3379822,508.3899536,366.6086426,511.0613708z" class="colorffb9a9 svgShape"/><path fill="#f49964" d="M354.628418,555.871521c21.2653198-2.9356079,57.0075684-11.494751,50.4673462-27.0436401              c-2.0834961-4.9533691-9.7597961-6.144104-19.990448-4.8855591              c-15.6974487,1.9310303-17.772583-6.324707-17.772583-6.324707              c-8.0608521,10.3128662-19.2911377,12.8428345-33.004364,9.2754517              c0.0888367,6.9436035-0.0531006,13.4537964,1.1294861,18.5698242              C337.2084351,553.100708,341.8929138,557.6260986,354.628418,555.871521z" class="color6864f4 svgShape"/><path fill="#fdeee6" d="M405.5006104,529.9793091c4.3505859,14.8207397-30.1382751,23.0302124-50.8721924,25.8922119              c-9.6191711,1.3249512-14.6436157-0.9337158-17.2817993-5.4089355              C365.347168,548.7521973,388.5082397,542.3455811,405.5006104,529.9793091z" class="colore6ebfd svgShape"/><path fill="#3f352f" d="M338.6092224 550.3825684c-.0185547-.2753906.1894531-.5141602.4648438-.5332031 24.7705078-1.7006836 45.0517578-7.2177734 60.2807617-16.3969727.2363281-.1435547.5439453-.0668945.6865234.1699219s.0664063.5439453-.1699219.6865234c-15.3662109 9.262207-35.7983398 14.8261719-60.7290039 16.5385742C338.8400574 550.8599854 338.6272888 550.6397095 338.6092224 550.3825684zM369.9017029 527.842041c-.0908203-.2612305.0473633-.5458984.3081055-.6362305 3.0073242-1.0439453 2.4853516-3.9594727 2.4619141-4.0830078-.0517578-.2705078.125-.5327148.3950195-.5854492.2749023-.0517578.5327148.1225586.5859375.3925781.0078125.0385742.7246094 3.8881836-3.1147461 5.2202148C370.2814026 528.2402344 369.9927063 528.1056519 369.9017029 527.842041zM374.4285583 528.901123c-.0908203-.2612305.0473633-.5458984.3081055-.6362305 3.0073242-1.0439453 2.4853516-3.9594727 2.4619141-4.0830078-.0517578-.2705078.125-.5327148.3950195-.5854492.2758789-.0522461.5327148.1225586.5859375.3925781.0078125.0385742.7246094 3.8881836-3.1147461 5.2202148C374.8082581 529.2993164 374.5195618 529.1647339 374.4285583 528.901123zM378.6702576 529.0773926c-.0908203-.2612305.0473633-.5458984.3081055-.6362305 3.0263672-1.050293 2.4863281-3.9580078 2.4619141-4.081543-.0541992-.2705078.1220703-.5336914.3930664-.5874023.2675781-.0581055.5341797.121582.5874023.3930664.0078125.0385742.7246094 3.8881836-3.1142578 5.2202148C379.0499573 529.4755859 378.761261 529.3410034 378.6702576 529.0773926z" class="color2f2f3f svgShape"/><path d="M260.7581482,315.5168152c-29.3491058,0-43.1513519-14.4243164-43.3090668-14.5942383             c-0.1469727-0.1577148-0.1757813-0.3920898-0.0717773-0.5810547             c22.3813477-40.7041016,81.5444183-34.7558594,82.141098-34.6904297             c0.144043,0.015625,0.2739258,0.0927734,0.3564453,0.2119141             c0.1186523,0.1708984,11.7885742,17.2387695,5.8032227,31.2705078             c-3.7807617,8.8637695-13.637207,14.6186523-29.2954102,17.1049805             C270.7552185,315.1320496,265.5486755,315.5168152,260.7581482,315.5168152z M218.4354095,300.4948425             c2.3349609,2.2602539,20.7563477,18.6367188,57.7900238,12.7563477             c15.2939453-2.4287109,24.8930664-7.9824219,28.53125-16.5063477             c5.4370117-12.7397461-4.3320313-28.2338867-5.5761719-30.121582             C295.1404724,266.2546082,239.9227142,262.0114441,218.4354095,300.4948425z" fill="#000000" class="color000 svgShape"/><path fill="#ffd4bb" d="M132.0431671,403.3581543v44.9665833             c-14.6982651,3.0479431-24.9012604,4.7073059-24.9012604,4.7073059             c-0.7062073-0.0706177-1.3888626-0.1412048-2.0594482-0.2236023             c-23.4894104-2.7890625-25.5724182-13.8159485-9.296814-31.9155273c0,0,3.9068604-0.0471191,13.050827-4.2012939             C114.4614487,414.1261597,122.0993271,410.0072632,132.0431671,403.3581543z" class="colorffc8bb svgShape"/><path fill="#ffc9a9" d="M132.0431671,403.3581543v44.9665833             c-14.6982651,3.0479431-24.9012604,4.7073059-24.9012604,4.7073059             c-0.7062073-0.0706177-1.3888626-0.1412048-2.0594482-0.2236023             c0.3177643-3.401062,2.9300003-6.3901672,3.389122-9.8500366             c0.3884506-2.8008423-0.6826477-5.6017151-0.8004456-8.4261169             c-0.1528473-3.5539856,1.1768265-6.9785767,1.8479843-10.4737244             c0.5648575-2.9538269,0.1172256-5.0838928-0.6826477-7.3669434             C114.4614487,414.1261597,122.0993271,410.0072632,132.0431671,403.3581543z" class="colorffb9a9 svgShape"/><path fill="#f49964" d="M68.4968872,443.4176636c4.6056213,20.9671326,15.9603729,55.9219055,30.9442749,48.1743469              c4.7734146-2.4681396,5.3542328-10.2145081,3.2917862-20.3138428              c-3.1645126-15.4959412,4.9015884-18.2164917,4.9015884-18.2164917              c-10.9171982-7.221344-14.326004-18.2167969-11.852623-32.1688843              c-6.9148788,0.6368103-13.4160004,1.0093994-18.4226685,2.5922852              C69.8835297,425.8332825,65.7422104,430.8604736,68.4968872,443.4176636z" class="color6864f4 svgShape"/><path fill="#fdeee6" d="M98.3253021,492.0864868c-14.4309158,5.5072632-25.3381348-28.225647-29.8284149-48.6688232              c-2.0803757-9.4844971-0.225502-14.6716003,4.0274277-17.6549377              C76.4404144,453.540802,84.6558533,476.1236267,98.3253021,492.0864868z" class="colore6ebfd svgShape"/><path d="M92.9075699 485.8854675c-9.203125-13.2163086-15.7954102-30.7075195-19.59375-51.9882813-.0483398-.2719727.1323242-.5317383.4042969-.5800781.2709961-.0473633.5322266.1328125.5800781.4042969 3.7729492 21.1376953 10.3100586 38.4956055 19.4296875 51.5927734.1582031.2265625.1020508.5380859-.1245117.6958008C93.377739 486.1671753 93.0660553 486.1132507 92.9075699 485.8854675zM97.3880386 457.0885925c-.1108398-.2529297.0043945-.5478516.2573242-.6586914.2548828-.1088867.5478516.0048828.6586914.2573242 1.2773438 2.9150391 4.1411133 2.1630859 4.2641602 2.1313477.2641602-.0751953.5415039.081543.6152344.3476563.0737305.2651367-.0800781.5400391-.3452148.6152344C100.7500763 460.3034973 98.4465332 459.5036316 97.3880386 457.0885925zM96.6893082 461.6847839c-.1108398-.2529297.0043945-.5478516.2573242-.6586914.2558594-.1088867.5483398.0048828.6586914.2573242 1.2768555 2.9145508 4.1416016 2.1635742 4.2641602 2.1318359.2651367-.074707.5410156.081543.6152344.3476563.0737305.2651367-.0800781.5400391-.3452148.6152344C100.0709991 464.8952637 97.7641525 464.1376343 96.6893082 461.6847839zM96.8484879 465.9269714c-.1108398-.2529297.0043945-.5478516.2573242-.6586914.2558594-.109375.5483398.0053711.6586914.2573242 1.2856445 2.9335938 4.1425781 2.1660156 4.2631836 2.1318359.2661133-.0742188.5419922.0800781.6171875.3457031.074707.265625-.0800781.5419922-.3457031.6171875C100.2263794 469.1385498 97.9216843 468.374939 96.8484879 465.9269714z" fill="#000000" class="color000 svgShape"/><path fill="#3f352f" d="M325.5139465,511.7321472l-33.2809753-110.8924255l-2.7300415-9.0732727             c-43.9545898-52.8277893-34.8106232-100.053833-34.8106232-100.053833l37.8704987-1.3416138l29.5148926-1.0473022             c28.3024597,33.1511841,45.7784424,209.0632019,45.7784424,209.0632019             C371.4923401,509.8963013,329.1501465,523.2415161,325.5139465,511.7321472z" class="color2f2f3f svgShape"/><path fill="#19100a" d="M298.3291321,339.3152771c-1.1182251,14.4043274-2.2358704,28.7969055-3.3540649,43.2012634             c-0.4706116,6.1312866-0.9533081,12.3449707-2.7420959,18.3231812l-2.7300415-9.0732727             c-43.9545898-52.8277893-34.8106232-100.053833-34.8106232-100.053833l37.8704987-1.3416138             c2.5536194,5.2839355,5.0601196,10.5914612,5.9542236,16.9463501             C299.9880676,317.8146057,299.1646423,328.6178894,298.3291321,339.3152771z" class="color0a0a19 svgShape"/><path fill="#3f352f" d="M292.0214539,292.7467346c0,0,19.3869934,100.8373413-36.1059265,123.6290894             c-55.2146301,22.6774292-124.6663971,35.4064331-124.6663971,35.4064331             c-9.2606201,3.6368103-23.433754-39.0283203-14.1731339-42.6651306l100.03582-42.2211609             c0,0-2.0875702-63.3777771,15.8405914-78.8973999L292.0214539,292.7467346z" class="color2f2f3f svgShape"/><path fill="#ffb58a" d="M426.6548157,197.5274048c-17.6524048,14.7924957-45.9548645,34.6577759-73.6691895,37.8112946             c-11.1680603,1.2710724-23.9013977-4.8837128-34.2693176-10.2144775l1.8476868-41.2124939             c7.0727539,2.2002258,15.4636841,5.1658478,25.2428894,9.1910858             c-0.741272,1.3532257-1.5650024,2.7064667-1.9769897,4.1774902             c-1.0119324,3.5776062-0.9650879,7.4844666,0.2824097,10.9913788             c2.130127,6.0611267,7.7200623,10.7684326,14.051239,11.8389587             c6.3786011,1.0825806,12.7804871-1.2825623,18.7588501-3.7540131             C391.1264954,210.4489288,426.5844116,196.5626068,426.6548157,197.5274048z" class="colorfca495 svgShape"/><path fill="#fa8743" d="M341.3233337,186.3964081c-34.9160767-14.033432-56.2001953-19.8986969-56.2001953-19.8986969             l-10.8248901,45.3817596c0,0,33.1117249,22.8064728,67.0250854,24.9354553             C334.0684204,213.4829559,336.8145447,197.071167,341.3233337,186.3964081z" class="colorfa5743 svgShape"/><path d="M341.2864685,237.3127136c-7.1870117-0.4541016-14.2785645-1.8110657-21.1352539-3.7114258             c-0.2661133-0.0737305-0.421875-0.3496094-0.3481445-0.6157227s0.3500977-0.4213867,0.6157227-0.3481445             c6.5548706,1.818222,13.3403015,3.1352844,20.2080078,3.628418             c-5.7441406-18.8930664-5.7324219-35.5698242,0.034668-49.5922852             c-6.1128845-2.4472504-13.9121704-5.4842377-21.2436523-8.1860352             c-0.2592773-0.0957031-0.3916016-0.3828125-0.2963867-0.6420898             c0.0961914-0.2587891,0.3837891-0.390625,0.6420898-0.2963867             c7.3058472,2.6914215,15.0252075,5.6919098,21.7407227,8.3852539             c0.2586975,0.1034851,0.3836365,0.3999634,0.2744141,0.6582031             c-5.9399414,14.0664063-5.934082,30.9135742,0.0170898,50.0727539             C341.8952332,236.9855957,341.6559448,237.3295135,341.2864685,237.3127136z" fill="#000000" class="color000 svgShape"/><path fill="#fa8743" d="M324.4004822,291.4149475c-47.1319885,19.8761902-62.9720154-11.6745911-106.5852966,9.1669617             c-8.4730835-51.8389893-20.0296021-121.1660309,29.4324493-133.9462128             c11.0566559-2.8616333,23.8383026-2.439209,35.2579803-0.6470184             C332.0144958,173.5081787,324.4004822,291.4149475,324.4004822,291.4149475z" class="colorfa5743 svgShape"/><path fill="#ff6103" d="M324.4072266,291.418396c-47.1431885,19.8648376-62.9832153-11.6741028-106.5964966,9.16745             c-2.4829407-15.1575317-5.2135468-31.8095703-6.6138916-48.0968933             c19.1469879,17.3581848,44.5665588,27.9378662,72.4570007,27.9378662             c14.5810547,0,28.4794312-2.8949585,41.1653748-8.1318359             C324.9019775,283.7926025,324.4072266,291.418396,324.4072266,291.418396z" class="colorf72c16 svgShape"/><path d="M322.2381287 233.5934753c-.246582 0-.4614258-.1826172-.4951172-.4335938-2.1713867-16.1855469-5.6523438-29.7158203-10.3457031-40.2143555-.112793-.2519531.0004883-.5478516.2524414-.6606445.2543945-.1137695.5478516.0014648.6606445.2524414 4.7324219 10.5859375 8.2397461 24.2089844 10.4238281 40.4897461.0366211.2734375-.1552734.5253906-.4291992.5620117C322.2825623 233.5920105 322.2601013 233.5934753 322.2381287 233.5934753zM250.2151947 171.3385925c-.4853516-.4125977-.9394531-.8530273-1.3500977-1.3081055-.1845703-.2055664-.168457-.5214844.0366211-.706543.2045898-.184082.5200195-.168457.706543.0366211.3808594.4228516.8032227.8320313 1.2543945 1.2163086.2104492.1787109.2358398.4946289.0571289.7045898C250.7389069 171.4944153 250.4224091 171.5156097 250.2151947 171.3385925zM254.2059174 173.8517761c-.2504883-.1162109-.359375-.4135742-.2431641-.6640625.1157227-.25.4125977-.3603516.6640625-.2431641 6.0628815 2.8112335 15.8968048 3.3907166 21.6352386-.9794922.2192383-.1674805.5336914-.1245117.7006836.0952148s.1245117.5332031-.0952148.7006836C270.9472351 177.2679291 260.8664551 176.9401703 254.2059174 173.8517761z" fill="#000000" class="color000 svgShape"/><path fill="#ffd4bb" d="M277.6393738,154.6563263c-0.4901123,3.2680664-1.5259094,10.1749878-1.4595337,9.7323914              c-0.3528442,3.412674-3.3420105,5.4250031-7.143158,6.201889              c-7.6729126,1.5532074-18.6645813-1.9065857-17.9348145-8.8146973l4.4013214-20.5944672              c-7.5200806-20.5117264-2.1890259-30.3504105,21.3121796-25.1018143              C293.8086548,116.1152573,301.7286987,149.4427795,277.6393738,154.6563263z" class="colorffc8bb svgShape"/><path fill="#ffb58a" d="M273.4090271,155.4015808c-2.1469727-0.0776367-4.359375-0.6767578-6.5078125-1.7734375              c-0.2456055-0.1254883-0.3432617-0.4267578-0.2177734-0.6728516              c0.1254883-0.2456055,0.4243164-0.3442383,0.6728516-0.2177734              c2.0180664,1.0302734,4.090332,1.5927734,6.1591797,1.6723633              c0.0834961,0.0102539,1.7670898,0.2905273,3.8745117-0.3198242              c0.2675781-0.0751953,0.5429688,0.0761719,0.6196289,0.3413086s-0.0761719,0.5424805-0.3413086,0.6196289              C276.0240784,155.5263977,274.3002014,155.5636139,273.4090271,155.4015808z" class="colorfca495 svgShape"/><path d="M263.4966125,120.5747452c0,0,5.2473145,14.8491592-8.456955,16.6185074l-2.2019653,2.9505463             c0,0-21.4224854-28.8023834,0.6640778-30.615181c0,0-1.7459564-10.6751175,8.2124329-11.9520798             c9.958374-1.2769623,11.0177002,13.6947174,20.1210327,4.7045517             C290.9385986,93.2909241,315.2008362,138.0329437,263.4966125,120.5747452z" fill="#000000" class="color000 svgShape"/><path fill="#ffd4bb" d="M257.6510315,141.0648346c-2.6738434,0.7731018-5.6334381-0.6972198-6.619812-3.2999573             c-0.9752502-2.6062622,0.3968201-5.3511047,3.0666504-6.1348724             c2.6740112-0.7734375,5.6263428,0.7114258,6.6127014,3.3141632" class="colorffc8bb svgShape"/><path d="M250.5633392,137.9421082c-1.0714417-2.8652039,0.4263916-5.9202881,3.394043-6.7919922             c2.9052582-0.8369141,6.1459808,0.7817383,7.2206879,3.6166992             c0.0981445,0.2583008-0.0317383,0.546875-0.2900391,0.6445313             c-0.2553711,0.1000977-0.5463867-0.0317383-0.6445313-0.2900391             c-0.8945313-2.359375-3.590332-3.7104492-6.0063324-3.0107422             c-2.385376,0.6999817-3.6135712,3.1382294-2.737793,5.4790039             c0.8916016,2.3520508,3.5932617,3.6962891,6.0126801,2.9946289             c0.2666016-0.0756836,0.5429688,0.0766602,0.6196289,0.3413086             c0.0766602,0.265625-0.0761719,0.5429688-0.3413086,0.6196289             C254.8675385,142.3884277,251.6331329,140.7644196,250.5633392,137.9421082z" fill="#000000" class="color000 svgShape"/><path fill="#19100a" d="M237.993515 376.3742371c-14.6484375 0-21.2119141-9.0786133-21.2915039-9.1918945-.1582031-.2260742-.1030273-.5371094.1225586-.6958008.2265625-.1577148.5375977-.1040039.6962891.1220703.09375.1333008 9.6445313 13.2758789 31.6665039 7.1274414.2646484-.0722656.5419922.0810547.6157227.347168.0742188.265625-.0810547.5415039-.347168.6157227C245.1907806 375.8898621 241.3763275 376.3742371 237.993515 376.3742371zM249.3211517 321.7448425c-.2382813 0-.4492188-.1704102-.4916992-.4130859-.0483398-.2719727.1333008-.53125.4052734-.5791016 8.1489105-1.440918 13.6454926-4.3164063 16.3364105-8.5478516 2.5336914-3.984375 1.5600586-7.7553711 1.5498047-7.7929688-.0717773-.2666016.0864258-.5410156.3530273-.612793.2641602-.0727539.5405273.0864258.612793.3530273.0458984.1708984 1.0957031 4.237793-1.671875 8.5893555-2.8476563 4.4775391-8.5693359 7.5043945-17.0063324 8.9956055C249.3792572 321.7424011 249.3499603 321.7448425 249.3211517 321.7448425z" class="color0a0a19 svgShape"/><path fill="#ffbf66" d="M341.3183594,236.8136139c-4.0953369-0.2588654-8.1786194-0.8120117-12.2038269-1.6004639             c-11.0856323-27.0316772-1.3997803-53.2749023-1.1176453-54.0280762             c4.1774902,1.5886841,8.6262207,3.330368,13.3214722,5.2133331             C336.8110046,197.0722351,334.0694885,213.4771881,341.3183594,236.8136139z" class="colorffcb64 svgShape"/><path fill="#ff5f00" d="M341.3219604,236.8126984c-4.0982056-0.2539063-8.1782532-0.8069611-12.2038574-1.5957642             c-1.0881653-2.6474762-1.9767151-5.2949677-2.6837158-7.9062042             c3.5270996-3.4454041,6.1289368-15.2412262,6.1289368-29.2584686c0-5.6939697-0.4259033-11.0161591-1.1785278-15.5676422             c3.1733704,1.223999,6.4919739,2.5296173,9.9371643,3.9168549             C336.8067322,197.0730286,334.0685425,213.4748383,341.3219604,236.8126984z" class="colorfa0 svgShape"/><path d="M341.2864685,237.3127136c-3.972168-0.2509766-8.0996094-0.7924805-12.2680664-1.6088867             c-0.1650391-0.0322266-0.3027344-0.1455078-0.3662109-0.3007813             c-11.1118164-27.0942383-1.5366211-53.2915039-1.1235352-54.3930664             c0.0975647-0.2601624,0.3890076-0.3911438,0.6459961-0.2919922             c4.125,1.5683594,8.6098633,3.3232422,13.3295898,5.2163086             c0.2586975,0.1034851,0.3836365,0.3999634,0.2744141,0.6582031             c-5.9399414,14.0664063-5.934082,30.9135742,0.0170898,50.0727539             C341.8952332,236.9855957,341.6559448,237.3295135,341.2864685,237.3127136z M329.4754333,234.7741394             c3.7832031,0.7304688,7.5297852,1.2319336,11.1513672,1.4916992             c-5.7441406-18.8930664-5.7324219-35.5698242,0.034668-49.5922852             c-4.3613281-1.7460938-8.5166016-3.3725586-12.3662109-4.8398438             C326.9812927,185.6051941,319.3357849,209.7658386,329.4754333,234.7741394z" fill="#000000" class="color000 svgShape"/><path fill="#fdeee6" d="M253.0319061,372.2780457v68.0441284c0,9.180603-7.442337,16.6229248-16.6229248,16.6229248              H128.6238251c-9.1805954,0-16.6229324-7.4423218-16.6229324-16.6229248v-68.0441284              c0-9.180603,7.442337-16.6229248,16.6229324-16.6229248h107.7851563              C245.5895691,355.6551208,253.0319061,363.0974426,253.0319061,372.2780457z" class="colore6ebfd svgShape"/><path fill="#f0d2c0" d="M138.9793854,417.8035278c-6.5089569-1.767334-26.9785156,0-26.9785156,0v22.5210571              c0,9.1789856,7.4375839,16.6169128,16.6287537,16.6169128h107.7736969              c9.1907349,0,16.6287537-7.4379272,16.6287537-16.6169128v-9.9794922              c-12.1095428,2.6122437-25.6313324,4.0717468-39.8946686,4.0717468              C183.0395355,434.4168396,158.283493,423.045105,138.9793854,417.8035278z" class="colorc0d0f0 svgShape"/><path fill="#fdeee6" d="M253.0319061,387.2505188V372.277771c0-9.1804504-7.4422302-16.6226807-16.6226807-16.6226807              H128.6238556c-9.1806107,0-16.622963,7.4423523-16.622963,16.6229858v14.9724426              c0,9.1139221,7.3882904,16.5021973,16.5022049,16.5021973h108.0265961              C245.6436157,403.7527161,253.0319061,396.3644409,253.0319061,387.2505188z" class="colore6ebfd svgShape"/><path fill="#f0d2c0" d="M253.0201263,387.8258972c-0.3059845,8.849762-7.5669098,15.9227905-16.4873505,15.9227905              H128.5000305c-9.1086349,0-16.4991379-7.3787231-16.4991379-16.499115v-14.9694824              c0-9.1790466,7.4376221-16.6284485,16.6287155-16.6284485h3.4244537              c-2.9302826,2.5892639-4.5188293,5.366394-4.5188293,8.2492981              c0,14.4753113,39.9060974,26.1964417,89.1446228,26.1964417              C229.6249542,390.0973816,241.9227295,389.2854614,253.0201263,387.8258972z" class="colorc0d0f0 svgShape"/><path d="M234.8958588,404.2487488H128.4998627c-0.2763672,0-0.5000076-0.2236328-0.5000076-0.5              s0.2236404-0.5,0.5000076-0.5h106.3959961c0.2763672,0,0.5,0.2236328,0.5,0.5              S235.172226,404.2487488,234.8958588,404.2487488z" fill="#000000" class="color000 svgShape"/><path fill="#ffa932" d="M188.0357971,396.3896179v7.5649414c0,4.4229126-3.5854797,8.0083618-8.0083618,8.0083618              H180.02742c-4.4228973,0-8.0083618-3.5854492-8.0083618-8.0083618v-7.5649414              c0-1.0508423,0.8518524-1.9026794,1.9026642-1.9026794h12.2113953              C187.1839294,394.4869385,188.0357971,395.3387756,188.0357971,396.3896179z" class="colorffbb32 svgShape"/><path fill="#ff5f00" d="M187.4238129,407.0200195c-1.2003784,2.9070129-4.0599976,4.9429016-7.4022827,4.9429016              c-4.4269409,0-8.0024719-3.5816956-8.0024719-8.0027771v-7.5666199c0-0.8119202,0.5062408-1.5066528,1.223938-1.7773132              c0.5648499,6.9552307,6.3903809,12.4158936,13.4863892,12.4158936              C186.9649811,407.0321045,187.2002869,407.0200195,187.4238129,407.0200195z" class="colorfa0 svgShape"/><path d="M180.0272064,412.4631042c-3.7685547,0-7.0390625-2.4194336-8.1381836-6.0205078              c-0.0810547-0.2641602,0.0678711-0.543457,0.3320313-0.6240234              c0.265625-0.081543,0.5439453,0.0678711,0.6240234,0.3320313c0.9702148,3.1777344,3.8564453,5.3125,7.1821289,5.3125              c3.3261719,0,6.2124023-2.1347656,7.1826172-5.3125c0.0805664-0.2641602,0.3574219-0.4130859,0.6240234-0.3320313              c0.2641602,0.0805664,0.4130859,0.3598633,0.3320313,0.6240234              C187.0667572,410.0436707,183.7957611,412.4631042,180.0272064,412.4631042z" fill="#000000" class="color000 svgShape"/><path d="M236.4090424,457.4450378H128.6238861c-9.4419022,0-17.1230545-7.6811523-17.1230545-17.1230469v-39.7290039              c0-0.2763672,0.2236328-0.5,0.5-0.5s0.5,0.2236328,0.5,0.5v39.7290039              c0,8.8901367,7.2329102,16.1230469,16.1230545,16.1230469h107.7851563              c8.8901367,0,16.1230469-7.2329102,16.1230469-16.1230469v-68.0439453c0-0.2763672,0.2236328-0.5,0.5-0.5              s0.5,0.2236328,0.5,0.5v68.0439453C253.5320892,449.7638855,245.8509369,457.4450378,236.4090424,457.4450378z" fill="#000000" class="color000 svgShape"/><path fill="#3f352f" d="M198.4129028,347.5802002v8.0714417h-3.3728943v-5.8358459              c0-0.6638489-0.538147-1.2019958-1.2019806-1.2019958h-28.2094116c-0.6638336,0-1.2019806,0.538147-1.2019806,1.2019958              v5.8358459h-3.3731079v-8.0714417c0-1.5717163,1.2741241-2.8458557,2.8458557-2.8458557h31.6676636              C197.1387634,344.7343445,198.4129028,346.0084839,198.4129028,347.5802002z" class="color2f2f3f svgShape"/><path d="M180.0272064,404.884491c-0.2763672,0-0.5-0.2236328-0.5-0.5v-4.215332c0-0.2763672,0.2236328-0.5,0.5-0.5              s0.5,0.2236328,0.5,0.5v4.215332C180.5272064,404.6608582,180.3035736,404.884491,180.0272064,404.884491z" fill="#000000" class="color000 svgShape"/><path fill="#ffb58a" d="M354.8836365,207.5431824l-3.0336914-11.5634766             c-0.0703125-0.2670898,0.0893555-0.5405273,0.3564453-0.6103516             c0.265625-0.0717773,0.5410156,0.0893555,0.6103516,0.3564453l3.0336914,11.5634766             c0.0703125,0.2670898-0.0893555,0.5405273-0.3564453,0.6103516             C355.2290955,207.9696655,354.9537964,207.8120575,354.8836365,207.5431824z" class="colorfca495 svgShape"/><path fill="#ffd4bb" d="M227.594696,227.1129761v8.4256897c-2.0241089,2.6599274-4.8719482,6.0254974-7.9200287,9.2973938             c-4.3306427,4.6481171-9.0497284,9.0968475-12.2859955,10.9557495             c1.1650391,28.2208557-7.2844849,63.6549377-17.3110809,79.3887024             c2.6593475,2.9891663,4.5188293,6.8609924,3.6833344,9.8501587h-5.5428162c0,0.0706787,0,0.447052-0.0471191,2.2714844             c-0.0824585,3.2127075-2.7067566,5.7784119-5.9194641,5.7784119h-7.0845184             c-3.0713654,0-5.6488342-2.3536682-5.8959198-5.4255981c-0.3059845-3.8361816-0.058609-8.5785217,2.3889923-11.4384155             c0,0-2.4829407-13.4984741-3.7186737-31.6214905c-1.3652954-19.9824829-1.2003784-45.6020203,5.4721375-64.9489899             c3.7071686-10.7328033,9.7559357-20.1238556,16.569809-28.102478h33.210022L227.594696,227.1129761z" class="colorffc8bb svgShape"/><path fill="#ffb58a" d="M182.2513275,353.58078h-7.0844727c-3.3198242,0-6.128418-2.5854492-6.3945313-5.8857422             c-0.2890625-3.6298828-0.1069336-8.5561523,2.3544922-11.6186523             c-0.3300781-1.8657227-2.5478516-14.7827148-3.6845703-31.4472656             c-1.2797852-18.7348633-1.3647461-45.2451172,5.4985352-65.1459961             c3.3696289-9.7543945,8.9755859-19.2636719,16.6621094-28.2641602             c0.0952148-0.1113281,0.2338867-0.175293,0.3803711-0.175293h33.2099609             c0.2236328,0,0.4204102,0.1484375,0.480957,0.3637695l4.4013672,15.5693359             c0.0126953,0.0444336,0.019043,0.090332,0.019043,0.1362305v8.4257813             c0,0.109375-0.0356445,0.2158203-0.1020508,0.3027344c-2.1098633,2.7724609-5.0083008,6.175293-7.9521484,9.3354492             c-2.8730469,3.0834961-8.2138672,8.534668-12.1401367,10.894043             c1.0444336,26.9257813-6.6347656,62.1923828-17.2011719,79.0615234             c2.3583984,2.7558594,4.4609375,6.75,3.543457,10.0327148c-0.0600586,0.2158203-0.2573242,0.3652344-0.4814453,0.3652344             h-5.0493164c-0.0058594,0.3349609-0.0175781,0.8842773-0.0410156,1.784668             C188.5809174,350.8283386,185.7610931,353.58078,182.2513275,353.58078z M190.2142181,212.0436707             c-7.5288086,8.8535156-13.0214844,18.1933594-16.328125,27.765625             c-6.8085938,19.7421875-6.7197266,46.1088867-5.4458008,64.7514648             c1.2192383,17.8837891,3.6865234,31.4306641,3.7114258,31.5654297             c0.0273438,0.1484375-0.0136719,0.3007813-0.1118164,0.4155273             c-2.3837891,2.7851563-2.5507813,7.559082-2.2705078,11.0737305             c0.2241211,2.7841797,2.5952148,4.965332,5.3974609,4.965332h7.0844727             c2.9633789,0,5.34375-2.3242188,5.4194336-5.2915039c0.0473633-1.8139648,0.0473633-2.1884766,0.0473633-2.2587891             c0-0.2763672,0.2236328-0.5,0.5-0.5h5.1484375c0.5830078-2.9477539-1.4736328-6.5576172-3.6625977-9.0175781             c-0.1484375-0.1669922-0.168457-0.4125977-0.0483398-0.6010742             c10.6157227-16.6567383,18.3461914-52.140625,17.2333984-79.0996094             c-0.0078125-0.1860352,0.0888672-0.3613281,0.2504883-0.4541016             c3.8339844-2.2021484,9.2700195-7.7509766,12.1694336-10.862793c2.875-3.0864258,5.7041016-6.402832,7.7856445-9.1254883             v-8.1875l-4.2797852-15.1386719H190.2142181z" class="colorfca495 svgShape"/><path fill="#ffb58a" d="M227.592392,227.1181488l-4.3952942-15.5774384h-33.2100067             c-6.8158875,7.9763336-12.8686676,17.3748627-16.5735474,28.1053619             c-6.6725159,19.3469696-6.8374329,44.966507-5.4721375,64.9489899             c0.682663-1.7181091,1.1768341-3.5184021,1.6238861-5.3077698             c3.3305206-13.109436,5.4724274-26.5136719,6.3786011-40.000061             c0.3531036-5.2365265,0.5295105-10.579361,2.2594147-15.5337524             c3.7293701-10.7553253,12.8227539-15.0341492,24.4780579-8.6497955             c4.3188629,2.3772125,8.1435394,5.5663605,12.4977417,7.8608398             c1.4242096,0.7533264,2.9420776,1.4003448,4.4955597,1.8715363             c3.044632-3.2661438,5.89505-6.6374664,7.9177246-9.2950897V227.1181488z" class="colorfca495 svgShape"/><path fill="#fa8743" d="M239.9112854,229.8939362c-2.4341888,4.146759-5.830246,7.7580414-9.4852905,10.9209137             c-21.9477081-7.7081909-36.6344757-17.9701538-45.8255615-28.4909973             c3.5776062-4.8837891,7.6378784-9.3792725,11.8625031-13.4393311c0-0.0117798,0-0.0117798,0-0.0117798h0.0114899             c0.0356293-0.0470581,0.0827484-0.094101,0.1298676-0.1294403             c16.8404541-16.2284088,35.9874573-25.6077576,35.9874573-25.6077576" class="colorfa5743 svgShape"/><path fill="#ff6103" d="M232.6747894,238.7710876c-0.7163086,0.6890869-1.4689178,1.3690948-2.2485352,2.0400238             c-21.9506226-7.7067566-36.6385193-17.9703369-45.8235016-28.4877777             c3.5722656-4.8869934,7.6345978-9.375,11.8594055-13.4369507c0-0.0180969,0-0.0180969,0-0.0180969h0.0093079             c0.0363007-0.0453796,0.0814514-0.0906982,0.13591-0.1269531             c6.83638-6.5915527,14.0623474-12.0587921,20.2280121-16.21138             c-4.1526489,6.1109924-6.5827026,13.5004272-6.5827026,21.4519501             C210.2526855,219.4498138,219.4465179,232.7688904,232.6747894,238.7710876z" class="colorf72c16 svgShape"/><path d="M230.2606049,241.2863464c-20.1230469-7.0668945-35.6123047-16.7006836-46.0366211-28.6333008             c-0.1538086-0.1762695-0.1650391-0.4360352-0.0268555-0.6245117             c4.7896271-6.5387726,11.2073975-13.0207825,12.109375-13.6865234             c16.6542969-16.0556641,35.8730469-25.5615234,36.0654297-25.6557617             c0.2470703-0.1220703,0.5473633-0.0180664,0.6689453,0.2290039             c0.1210938,0.2480469,0.0185547,0.5478516-0.2290039,0.6694336             c-0.190918,0.0932617-19.2739258,9.534668-35.8603516,25.5185547             c-0.1958771,0.2566681-6.0232086,5.5039673-11.7099609,13.1928711             c10.2592773,11.6079102,25.421875,21.0102539,45.0761719,27.9501953             c2.4824219-2.1660156,4.5053711-4.2397461,6.1787109-6.3334961             c0.4622345-0.5735931,0.6436768-0.7938232,0.8657227-1.1069336             c0.7602539-0.9956055,1.449707-2.0263672,2.1181641-3.1650391             c0.1401367-0.2382813,0.4458008-0.3188477,0.684082-0.1782227             c0.2382813,0.1396484,0.3178711,0.4462891,0.1782227,0.684082             c-2.4555511,4.1841736-5.9054718,7.8580017-9.5893555,11.0458984             C230.6168213,241.3110199,230.4275208,241.3455353,230.2606049,241.2863464z" fill="#000000" class="color000 svgShape"/><path fill="#ffbf66" d="M237.7811584,233.0948792c-0.0798492,0.1008911-0.9739532,1.2306824-0.894104,1.129776             c-1.8244324,2.2830505-4.0131683,4.4719238-6.4610596,6.5901947             c-21.9477081-7.7081909-36.6344757-17.9701538-45.8255615-28.4909973             c3.5776062-4.8837891,7.6378784-9.3792725,11.8625031-13.4393311             c0.1292877,0.5648499,4.8601532,19.8412781,41.3067322,34.2103577H237.7811584z" class="colorffcb64 svgShape"/><path fill="#ff5f00" d="M237.7792664,233.0953369c-0.485199,0.554306-2.4703979,3.5026398-7.3530121,7.7157745             c-21.9506226-7.7067566-36.6385193-17.9703369-45.8235016-28.4877777             c1.9855804-2.7200317,4.1256561-5.3131104,6.3648987-7.7792969             c2.5934143,11.9862976,13.255722,20.9714355,26.0218048,20.9714355c1.4689178,0,2.9104004-0.1178741,4.3067169-0.3535614             c4.6059875,2.7109528,10.046051,5.4037628,16.4742432,7.9334259H237.7792664z" class="colorfa0 svgShape"/><path d="M230.2606049,241.2863464c-20.1230469-7.0668945-35.6123047-16.7006836-46.0366211-28.6333008             c-0.1538086-0.1762695-0.1650391-0.4360352-0.0268555-0.6245117             c3.3657227-4.5947266,7.3759766-9.1386719,11.9189453-13.5043945             c0.2831573-0.2704315,0.7481842-0.1270752,0.8339844,0.2485352             c0.1821289,0.7939453,4.8696289,19.6049805,40.9848633,33.8496094             c0.3358154,0.115448,0.4440918,0.5237732,0.2382813,0.7827148             c-0.5106049,0.5875397-2.529007,3.5551758-7.4199219,7.7875977             C230.6168213,241.3110199,230.4275208,241.3455353,230.2606049,241.2863464z M185.2415619,212.2961121             c10.2592773,11.6079102,25.421875,21.0102539,45.0761719,27.9501953             c4.3866119-3.8274994,6.4281006-6.6759644,6.6513672-6.9311523             c-32.2875977-12.9047852-39.4746094-29.5717773-40.7558594-33.4931641             C192.0618744,203.8678894,188.3748627,208.0597839,185.2415619,212.2961121z" fill="#000000" class="color000 svgShape"/><path fill="#ffb58a" d="M188.2176361 345.5304871c-.1259766 0-.2519531-.0473633-.3491211-.1425781-.0449219-.0439453-1.1132813-1.1000977-2.0581055-3.1162109-.1171875-.25-.0097656-.5478516.2402344-.6650391.2519531-.1176758.5483398-.0092773.6650391.2402344.8623047 1.840332 1.8427734 2.8168945 1.8525391 2.8266602.1962891.1933594.199707.5097656.0063477.706543C188.4769135 345.4801941 188.3470306 345.5304871 188.2176361 345.5304871zM182.3226166 353.3727722c-.0634766-.0883789-1.5385742-2.1977539-.6196289-5.9267578.0664063-.2680664.3398438-.4326172.6049805-.3657227.2680664.065918.4321289.3369141.3657227.6049805-.8012695 3.2529297.4106445 5.0317383.4624023 5.105957.1577148.2250977.1049805.5371094-.1191406.6962891C182.7929535 353.6459351 182.4828949 353.5958862 182.3226166 353.3727722zM179.087265 353.5798035c-.1547852 0-.3071289-.0717773-.4042969-.2070313-.0634766-.0883789-1.5385742-2.1977539-.6196289-5.9267578.065918-.2680664.3398438-.4326172.6049805-.3657227.2680664.065918.4321289.3369141.3657227.6049805-.8012695 3.2529297.4106445 5.0317383.4624023 5.105957C179.7292175 353.1234741 179.4907837 353.5798035 179.087265 353.5798035zM175.4471283 353.5798035c-.1547852 0-.3071289-.0717773-.4047852-.2070313-.0629883-.0883789-1.5375977-2.1977539-.6186523-5.9267578.065918-.2680664.340332-.4326172.6049805-.3657227.2680664.065918.4321289.3369141.3657227.6049805-.8012695 3.2529297.4101563 5.0322266.4619141 5.105957C176.0886993 353.1236267 175.8512421 353.5798035 175.4471283 353.5798035zM185.2132416 335.8981628c-.265625 0-.4868164-.2094727-.4990234-.4775391-.012207-.2758789.2011719-.5097656.4770508-.5219727l4.8637695-.2177734c.2802734-.0136719.5092773.2011719.5219727.4770508.012207.2758789-.2011719.5097656-.4770508.5219727l-4.8637695.2177734C185.2283783 335.8981628 185.2210541 335.8981628 185.2132416 335.8981628zM207.3133392 256.2858582l-8.5698242-1.3037109c-.2729492-.0415039-.4604492-.2963867-.4189453-.5693359s.2929688-.4619141.5693359-.4189453l8.5698242 1.3037109c.2729492.0415039.4604492.2963867.4189453.5693359C207.8409576 256.14151 207.5844116 256.3275757 207.3133392 256.2858582zM277.5686951 155.1148834l-1.388855 9.2738342c-.3528442 3.412674-3.3420105 5.4250031-7.143158 6.201889 4.4602356-8.6733398-.1413574-16.6289978-.1413574-16.6289978C271.7081299 154.7856293 274.5912781 155.1740723 277.5686951 155.1148834z" class="colorfca495 svgShape"/><path fill="#fdeee6" d="M451.5288696 168.0036774c0 5.1193085.8943787 9.2496948 2.3300781 12.5681458-2.9538574 1.0239716-5.1307983 1.165329-5.1307983 1.165329-2.9538574.5412903-5.7430725 1.2003784-8.3555908 1.9887695 2.3418884-3.7540131 3.9660339-8.8376923 3.9660339-15.7222443 0-24.8547211-21.1710815-26.2550812-21.1710815-26.2550812-63.8193054-11.7096558-48.3559265-80.2477417-48.3559265-80.2477417h24.0542908c-1.0590515 20.3473778 3.2833862 59.1705971 49.8622742 67.7146606 0 0 13.3568115.8826141 18.8527832 13.6978455C461.3083496 145.0555573 451.5288696 151.1161041 451.5288696 168.0036774zM400.2779846 261.5027771h122.3899841c-.1410522 5.5307617-.7177124 9.9789124-1.1296997 12.5331116H374.7173462c-1.1768188-5.8841553-11.6740112-65.2432098 43.625061-78.729599C392.3815308 217.5361328 399.3367615 256.7713318 400.2779846 261.5027771z" class="colore6ebfd svgShape"/><path fill="#3f352f" d="M531.859375,49.9543266v5.8442726c0,3.1495018-2.5532227,5.7026787-5.7026978,5.7026787              H369.7294617c-3.1495056,0-5.7026672-2.5531769-5.7026672-5.7026787v-5.8442726              c0-3.1495018,2.5531616-5.7026787,5.7026672-5.7026787h156.4272156              C529.3061523,44.2516479,531.859375,46.8048248,531.859375,49.9543266z" class="color2f2f3f svgShape"/><path fill="#19100a" d="M531.8584595,52.815361v2.9776917c0,3.1535301-2.5539551,5.7077255-5.6959839,5.7077255              H369.7269897c-3.1420288,0-5.6959229-2.5541954-5.6959229-5.7077255v-5.8375893              c0-3.1535263,2.553894-5.7071495,5.6959229-5.7071495h17.2050781              c14.4161072,5.9898643,52.6983337,10.273674,97.6412659,10.273674              C501.6022644,54.5219879,517.6776123,53.9100151,531.8584595,52.815361z" class="color0a0a19 svgShape"/><path fill="#3f352f" d="M531.859375,279.7442932v5.8442688c0,3.1495056-2.5532227,5.7026978-5.7026978,5.7026978              H369.7294617c-3.1495056,0-5.7026672-2.5531921-5.7026672-5.7026978v-5.8442688              c0-3.1495056,2.5531616-5.7026672,5.7026672-5.7026672h156.4272156              C529.3061523,274.041626,531.859375,276.5947876,531.859375,279.7442932z" class="color2f2f3f svgShape"/><path fill="#19100a" d="M531.8584595,282.3672485v3.2247925c0,3.1420288-2.5539551,5.6956482-5.6959839,5.6956482              H369.7269897c-3.1420288,0-5.6959229-2.5536194-5.6959229-5.6956482v-5.8490906              c0-3.1541138,2.553894-5.6956482,5.6959229-5.6956482h13.3803711              c12.4155884,5.7778015,52.239502,9.9909363,99.4536438,9.9909363              C500.401886,284.0382385,517.2067261,283.4383545,531.8584595,282.3672485z" class="color0a0a19 svgShape"/><path fill="#3f352f" d="M374.3518982,242.3971863c-0.2719727-0.0478516-0.4536133-0.3071289-0.4052734-0.5791016              c3.2519531-18.4018555,14.4155273-41.6738281,49.1298828-48.0405273              c0.9023438-0.0644531,20.7641602-1.6821289,20.7651367-25.7739258              c0.0014648-24.0834961-19.8623047-25.7001953-20.7080078-25.7573242              c-0.2753906-0.0185547-0.4838867-0.2568359-0.465332-0.5322266s0.2680664-0.4711914,0.5317383-0.4658203              c0.2163086,0.0146484,21.6430664,1.7207031,21.6416016,26.7553711              c-0.0009766,25.043457-21.425293,26.75-21.6416016,26.7646484              c-34.0927734,6.2558594-45.0717773,29.1342773-48.269043,47.2236328              C374.8829651,242.2664642,374.6192932,242.4462128,374.3518982,242.3971863z" class="color2f2f3f svgShape"/><path fill="#3f352f" d="M521.539917,274.5387878H374.7176208c-0.2382813,0-0.4433594-0.1679688-0.4902344-0.4013672              c-0.3330078-1.6582031-1.1396484-6.1889648-1.4433594-12.4389648              c-0.0131836-0.2758789,0.1992188-0.5102539,0.4750977-0.5239258              c0.2753906-0.0117188,0.5102539,0.1992188,0.5239258,0.4750977              c0.2822266,5.8115234,1.0253906,10.2036133,1.3461914,11.8891602h145.9844055              c1.9375-12.3183594,7.5527344-68.4926758-48.4888-78.777832              c-0.1591797-0.0073242-21.5927734-1.7158203-21.59375-26.7573242              c-0.0009766-25.0327148,21.4345703-26.7407227,21.6508789-26.7553711              c17.7568359-3.2607422,31.0141602-11.3149414,39.3471985-23.9321213              c14.6269531-22.1469727,9.3740234-51.5908203,8.6303711-55.3120117H375.2215271              c-0.2246094,1.1103516-0.8588867,4.5170898-1.2421875,9.2900391              c-0.0219727,0.2749023-0.2539063,0.4833984-0.5385742,0.4584961              c-0.2753906-0.0224609-0.4804688-0.2631836-0.4584961-0.5385742              c0.4760742-5.9228516,1.3369141-9.7817383,1.3457031-9.8198242              c0.0517578-0.2280273,0.2539063-0.3901367,0.487793-0.3901367h146.2505188              c0.2338867,0,0.4360352,0.1621094,0.487793,0.3901367c0.0727539,0.3227539,7.1035156,32.559082-8.690918,56.4731445              c-8.4883118,12.8530197-21.9658508,21.0527267-40.0576477,24.3715744              c-0.902832,0.0644531-20.7753906,1.6831055-20.7744141,25.7646484              c0.0009766,24.090332,19.871582,25.7094727,20.7172852,25.7666016              c57.6811829,10.5830078,51.1743469,68.7885742,49.2851868,80.3491211              C521.9940186,274.3610535,521.7850342,274.5387878,521.539917,274.5387878z" class="color2f2f3f svgShape"/><path fill="#ce875d" d="M384.1538086,94.8272324c4.6872864,21.7078094,18.868866,33.522438,40.2606201,37.5757065              c6.8069763,0.6297913,17.1111145,4.4297638,23.5227356,14.1270905              c6.4139404-9.6967468,16.7203674-13.4967194,23.5307922-14.1270905              c21.7157593-4.1149902,35.6339722-16.1331787,40.2258911-37.5757065              C511.6941223,81.2368393,384.1540833,81.2368393,384.1538086,94.8272324z" class="color5dcece svgShape"/><path fill="#3f352f" d="M384.7107849 93.265358c-.1972656-.1933594-.2001953-.5097656-.0068359-.7070313 4.2050781-4.2885742 22.6381836-7.355957 49.309082-8.2050781.2661133-.0371094.5073242.2075195.515625.4833984.0087891.2763672-.2075195.5068359-.4833984.515625-26.0253906.8291016-44.6582031 3.8583984-48.6274414 7.90625C385.2247314 93.4554901 384.9073181 93.4589157 384.7107849 93.265358zM446.384613 85.13694c-.2753906 0-.4990234-.2226563-.5-.4985352-.0009766-.2763672.2226563-.5004883.4985352-.5014648l1.5410156-.0024414c.2763672 0 .5.2236328.5.5s-.2236328.5-.5.5l-1.5380859.0024414C446.3855896 85.13694 446.3851013 85.13694 446.384613 85.13694zM526.1566162 62.0011978H369.7293396c-3.4199219 0-6.2026367-2.7827148-6.2026367-6.2026367v-5.8442383c0-3.4199219 2.7827148-6.2026367 6.2026367-6.2026367h156.4272766c3.4199219 0 6.2026367 2.7827148 6.2026367 6.2026367v5.8442383C532.3592529 59.218483 529.5765381 62.0011978 526.1566162 62.0011978zM369.7293396 44.7516861c-2.8686523 0-5.2026367 2.3339844-5.2026367 5.2026367v5.8442383c0 2.8686523 2.3339844 5.2026367 5.2026367 5.2026367h156.4272766c2.8686523 0 5.2026367-2.3339844 5.2026367-5.2026367v-5.8442383c0-2.8686523-2.3339844-5.2026367-5.2026367-5.2026367H369.7293396zM526.1566162 291.7912292H369.7293396c-3.4199219 0-6.2026367-2.7827148-6.2026367-6.2026367v-5.8442383c0-3.4199219 2.7827148-6.2026367 6.2026367-6.2026367h156.4272766c3.4199219 0 6.2026367 2.7827148 6.2026367 6.2026367v5.8442383C532.3592529 289.0085144 529.5765381 291.7912292 526.1566162 291.7912292zM369.7293396 274.5417175c-2.8686523 0-5.2026367 2.3339844-5.2026367 5.2026367v5.8442383c0 2.8686523 2.3339844 5.2026367 5.2026367 5.2026367h156.4272766c2.8686523 0 5.2026367-2.3339844 5.2026367-5.2026367v-5.8442383c0-2.8686523-2.3339844-5.2026367-5.2026367-5.2026367H369.7293396z" class="color2f2f3f svgShape"/><path fill="#ffd4bb" d="M395.3939514,260.9446106c-0.7122803-8.0685425-0.5777588-22.3083801,7.0004272-33.4875793              c5.5675354-8.2136383,14.4941711-13.5332184,26.5347595-15.8143311              c5.5006714-0.5093842,13.8273621-3.5805969,19.009491-11.4201965              c5.1821594,7.8377533,13.5116272,10.9103394,19.0141602,11.4199677              c16.3868713,3.1064911,26.6016235,11.7250366,31.2181702,26.3381042              c2.671875,8.4564819,2.8157654,17.0784912,2.4378357,22.964035              C500.6084595,270.4123535,395.3936157,270.4123535,395.3939514,260.9446106z" class="colorffc8bb svgShape"/><path fill="#ffc9a9" d="M500.6145325,260.9494324c-0.0120544,9.461731-105.2202454,9.461731-105.2202454,0              c-0.5766296-6.5075989-0.6001892-17.0168762,3.3776245-26.7021332              c24.3563232,21.2369232,68.2641907,26.2211761,101.8070068,16.7341461              C500.8498535,254.7118988,500.7909546,258.1366577,500.6145325,260.9494324z" class="colorffb9a9 svgShape"/><path fill="#3f352f" d="M427.0174255 250.1213074c-.262207-.0859375-.4052734-.3686523-.3193359-.6308594.0859375-.2617188.3676758-.4072266.6308594-.3193359 18.4341736 6.0429535 41.1165161 7.7600403 62.6259766 3.7709961.2714844-.0527344.5327148.1289063.5830078.4003906s-.1289063.5327148-.4003906.5830078C468.4835205 257.9400024 445.6343079 256.2244873 427.0174255 250.1213074zM418.6014099 246.9508972c-1.7695313-.7592773-3.5126953-1.5722656-5.1811523-2.4155273-.246582-.1245117-.3452148-.425293-.2207031-.671875s.4262695-.3457031.671875-.2207031c1.6494141.8339844 3.3735352 1.6376953 5.1245117 2.3891602.2539063.1088867.3710938.402832.262207.6567383C419.146759 246.947525 418.848938 247.057785 418.6014099 246.9508972z" class="color2f2f3f svgShape"/><path fill="#f49964" d="M450.0337524,143.7241821c0,0-2.9609375,26.055069-0.9326782,39.9711761              c2.0282593,13.9160919-0.8391418,21.6887665-0.8391418,21.6887665l-2.1891479-0.4046326              c0,0,0.1721802-18.131134,0-23.567276c-0.4840698-15.2835693,1.8510437-39.9946747,1.8510437-39.9946747" class="color6864f4 svgShape"/><path fill="#b34f15" d="M511.688385,94.8283844c-4.5693359,21.3780441-18.414856,33.4356232-40.223877,37.5762787              c-6.8020935,0.6234741-17.111084,4.4245911-23.5250244,14.1219177              c-6.4136658-9.6973267-16.7226563-13.4984436-23.5244751-14.1219177              c-7.0259094-1.3296661-13.1924744-3.4954224-18.4646301-6.4725418              c44.5583496,5.4439621,90.4732361-12.7909927,87.1676331-38.5531464              C504.3214417,89.0856094,511.688385,91.5685501,511.688385,94.8283844z" class="color15b1b3 svgShape"/><path fill="#3f352f" d="M492.4768982 95.4943619c-.2666016-.0708008-.425293-.3447266-.3540039-.6118164.1660156-.6235352.3027344-1.2597656.4067383-1.8911133.0439453-.2724609.2983398-.4638672.5742188-.4121094.2724609.0444336.4570313.3017578.4121094.5742188-.1083984.6630859-.2524414 1.331543-.4272461 1.9868164C493.0170898 95.4092331 492.7407227 95.565506 492.4768982 95.4943619zM422.1434021 127.3967056c-.2763672 0-.5-.2236328-.5-.5s.2236328-.5.5-.5c28.7607422 0 54.4233398-8.9067383 65.3779297-22.690918.171875-.215332.4868164-.2519531.7026367-.0805664.2163086.171875.2524414.4863281.0805664.7026367C477.1673279 118.3415298 451.1976013 127.3967056 422.1434021 127.3967056z" class="color2f2f3f svgShape"/><path fill="#ffd4bb" d="M432.5531921,167.5716705c0,0,11.5084839-10.6436462,16.833252-7.2354279              c5.8684692,3.7561951-6.6994934,7.6828613-6.6994934,7.6828613s4.168457,6.6488953-4.3970642,6.5228882" class="colorffc8bb svgShape"/><path fill="#ffb58a" d="M438.2825623,175.0422058c-0.2763672-0.0039063-0.496582-0.2314453-0.4926758-0.5073242              c0.0039063-0.2763672,0.2260742-0.5249023,0.5073242-0.4926758              c2.4589844,0.0322266,4.0102539-0.4868164,4.6113281-1.5546875              c0.7719727-1.371582-0.2041016-3.4985352-0.6455078-4.2026367              c-0.1739502-0.2785339-0.036377-0.6462555,0.2744141-0.7426758              c2.9213867-0.9135742,7.6494141-3.0600586,7.8999023-4.9301758              c0.0825195-0.6171875-0.3618164-1.2412109-1.3203125-1.8549805              c-4.9399414-3.159668-16.1123047,7.078125-16.2246094,7.1816406              c-0.203125,0.1870117-0.519043,0.1748047-0.706543-0.027832s-0.1748047-0.519043,0.027832-0.706543              c0.4814453-0.4453125,11.8583984-10.8666992,17.4423828-7.2890625              c1.3149414,0.8413086,1.9111328,1.793457,1.7719727,2.8300781              c-0.3657227,2.7285156-6.0566406,4.894043-8.0141602,5.5615234              c0.484375,0.9750977,1.2836914,3.0415039,0.3662109,4.6708984              C442.7836609,174.7481995,440.3216248,175.0667725,438.2825623,175.0422058z" class="colorfca495 svgShape"/><path d="M278.6839294 142.1178894c-3.1303711 0-5.6767578-3.6816406-5.6767578-8.206543s2.5463867-8.2065353 5.6767578-8.2065353c3.1298828 0 5.6762695 3.681633 5.6762695 8.2065353S281.8138123 142.1178894 278.6839294 142.1178894zM278.6839294 126.7048111c-2.5786133 0-4.6767578 3.2329025-4.6767578 7.2065353s2.0981445 7.206543 4.6767578 7.206543 4.6762695-3.2329102 4.6762695-7.206543S281.2625427 126.7048111 278.6839294 126.7048111zM292.9656677 141.9328308c-3.1303711 0-5.6767578-3.6816406-5.6767578-8.206543s2.5463867-8.2065353 5.6767578-8.2065353 5.6767578 3.681633 5.6767578 8.2065353S296.0960388 141.9328308 292.9656677 141.9328308zM292.9656677 126.5197525c-2.5786133 0-4.6767578 3.2329025-4.6767578 7.2065353s2.0981445 7.206543 4.6767578 7.206543 4.6767578-3.2329102 4.6767578-7.206543S295.544281 126.5197525 292.9656677 126.5197525z" fill="#000000" class="color000 svgShape"/><path d="M273.7835388 131.9250183H255.41539c-.2763672 0-.5-.2236328-.5-.5s.2236328-.5.5-.5h18.3681488c.2763672 0 .5.2236328.5.5S274.059906 131.9250183 273.7835388 131.9250183zM288.0047302 131.9250183c-.0839844 0-.1689453-.0209961-.2475586-.065918-1.4936523-.8530273-2.7612305-.8637695-3.8730469-.0336914-.2216797.1660156-.534668.1196289-.699707-.1010742-.1655273-.2211914-.1201172-.534668.1010742-.699707 1.4448242-1.0791016 3.1157227-1.090332 4.9677734-.0336914.2397461.1367188.3232422.4418945.1860352.6821289C288.3470154 131.8346863 288.1785583 131.9250183 288.0047302 131.9250183zM291.9625244 134.0499115c0 .9066772-.4626465 1.6410828-1.0337524 1.6410828s-1.0332947-.7344055-1.0332947-1.6410828.4621887-1.6410828 1.0332947-1.6410828S291.9625244 133.1432343 291.9625244 134.0499115zM280.9682312 133.9114532c0 .9066772-.4626465 1.641098-1.0337219 1.641098-.571106 0-1.0332947-.7344208-1.0332947-1.641098 0-.906662.4621887-1.6410828 1.0332947-1.6410828C280.5055847 132.2703705 280.9682312 133.0047913 280.9682312 133.9114532z" fill="#000000" class="color000 svgShape"/><g><path d="M277.1712341,130.73703c-0.1601563-0.2236328-0.1108398-0.5341797,0.1118164-0.6958008            c0.0786133-0.0561523,1.9467773-1.3789063,4.2270508-0.2753906            c0.2485352,0.1206055,0.3525391,0.4194336,0.2324219,0.6679688            c-0.1196289,0.2480469-0.4179688,0.3525391-0.6679688,0.2324219            c-1.734375-0.8393555-3.1474609,0.1430664-3.206543,0.1860352            C277.6435852,131.0118713,277.3320007,130.9604797,277.1712341,130.73703z" fill="none"/></g><g><path d="M288.9978943,131.9352722c-0.159668-0.2231445-0.1108398-0.5327148,0.1118164-0.6943359            c0.0585938-0.0424805,1.4609375-1.0366211,3.1689453-0.2104492            c0.2485352,0.1206055,0.3525391,0.4194336,0.2324219,0.6679688            c-0.1196289,0.2480469-0.4160156,0.3530273-0.6679688,0.2324219            c-1.1572266-0.5600586-2.109375,0.0927734-2.1489258,0.121582            C289.4690857,132.2100372,289.1574097,132.1589203,288.9978943,131.9352722z" fill="none"/></g><g><path d="M287.1171265,144.9812012c0,1.4143982-0.8034058,2.5609741-1.7993164,2.5609741           c-0.9877014,0-1.7911072-1.1465759-1.7911072-2.5609741s0.8034058-2.5609741,1.7911072-2.5609741           C286.3137207,142.4202271,287.1171265,143.566803,287.1171265,144.9812012z" fill="none"/></g><g><path fill="#ffb58a" d="M285.7947693,140.3244324c-0.2724609,0-0.4951172-0.2182617-0.5-0.4912109           c-0.0048828-0.2758789,0.215332-0.5039063,0.4912109-0.5087891           c0.9848633-0.0170898,1.206543-0.4287109,1.2797852-0.5639648           c0.6225586-1.1542969-0.7084961-4.0571289-1.6938477-5.6162109           c-0.1474609-0.2333984-0.0776367-0.5419922,0.1557617-0.6899414           c0.2348633-0.1469727,0.5424805-0.0766602,0.6899414,0.1557617           c0.2924805,0.4633789,2.8291016,4.5849609,1.7280273,6.6254883           c-0.2612305,0.4838867-0.8447266,1.065918-2.1420898,1.0888672           C285.8006287,140.3244324,285.797699,140.3244324,285.7947693,140.3244324z" class="colorfca495 svgShape"/></g><g><path fill="#3f352f" d="M509.4729919,102.6159439c-0.2602539-0.0922852-0.3964844-0.3779297-0.3041992-0.6381836          c0.3549805-1.0024414,0.6889648-2.0429688,0.9926758-3.0932617          c0.0766602-0.2651367,0.3540039-0.4160156,0.6196289-0.3413086          c0.2651367,0.0771484,0.4179688,0.3540039,0.3413086,0.6196289          c-0.3095703,1.0683594-0.6494141,2.1279297-1.0112305,3.1489258          C510.0184326,102.573204,509.7322998,102.7077255,509.4729919,102.6159439z" class="color2f2f3f svgShape"/></g><g><path fill="#3f352f" d="M447.5203552,146.8058777c-6.1079102-9.237793-15.9643555-13.2397461-23.1518555-13.9047852          c-0.2749023-0.0253906-0.4775391-0.269043-0.4521484-0.5439453          c0.0258789-0.2744141,0.2680664-0.4775391,0.5439453-0.4521484          c7.2568359,0.671875,17.1499023,4.6386719,23.4770508,13.734375          c6.3291016-9.0947266,16.2250977-13.0625,23.4848633-13.734375          c13.6222534-2.5836182,25.6994324-8.6933136,33.1162109-20.3408127          c0.1494141-0.2329102,0.4589844-0.300293,0.6904297-0.1533203c0.2329102,0.1484375,0.3012695,0.4575195,0.1533203,0.6904297          c-0.1425781,0.2236328-0.2871094,0.4462891-0.434082,0.6674805          c-6.9541016,10.4736328-18.1875,17.2451096-33.3867188,20.1254807          c-7.2373047,0.6723633-17.0976563,4.6743164-23.2070313,13.9116211          C448.1562195,147.1051483,447.7174683,147.104126,447.5203552,146.8058777z" class="color2f2f3f svgShape"/></g><g><path fill="#3f352f" d="M411.7654724,266.7653503c-16.871582-2.0249023-16.871582-4.8818359-16.871582-5.8208008          c-0.6796875-7.6748047-0.6655273-22.3320313,7.0864258-33.7680664          c2.6621094-3.9267578,6.1225586-7.2397461,10.2856445-9.8457031          c0.2333984-0.1469727,0.5424805-0.0761719,0.6889648,0.1586914          c0.1464844,0.2338867,0.0756836,0.5424805-0.1586914,0.6889648          c-4.0439453,2.5317383-7.4042969,5.7480469-9.987793,9.5595703          c-7.5786133,11.1791992-7.5864258,25.5761719-6.9165039,33.1625977          c0.0033569,6.4920349,58.3620911,8.4538879,88.2084961,4.8740234          c14.8540039-1.78125,16.0083008-4.1474609,16.0083008-4.8300781          c0.3696289-5.7705078,0.2495117-14.3808594-2.4145508-22.8129883          c-2.4897461-7.8818359-6.5263672-13.8662109-12.3408203-18.2954102          c-0.2197266-0.1674805-0.262207-0.4814453-0.0952148-0.7011719c0.1679688-0.2192383,0.4799805-0.262207,0.7011719-0.0947266          c5.9838867,4.5585938,10.1342773,10.7045898,12.6879883,18.7900391          c2.7109375,8.5795898,2.8344727,17.3227539,2.4604492,23.1464844          c0.0009766,0.9072266,0.0009766,3.765625-16.8881836,5.7910156          C464.4683533,269.1365662,431.5502625,269.1412659,411.7654724,266.7653503z" class="color2f2f3f svgShape"/></g><g><path fill="#3f352f" d="M472.2581482,213.42453c-1.7050781-0.5009766-3.5214844-0.9350586-5.3984375-1.2910156          c-0.2709961-0.0512695-0.4492188-0.3129883-0.3979492-0.5844727s0.3076172-0.4501953,0.5844727-0.3979492          c1.9086914,0.3618164,3.7568359,0.8037109,5.4931641,1.3134766c0.2651367,0.078125,0.4169922,0.355957,0.3393555,0.6206055          C472.8001099,213.3515625,472.521637,213.5013885,472.2581482,213.42453z" class="color2f2f3f svgShape"/></g><g><path fill="#ffb58a" d="M150.5252533,247.7345886c-0.8017578-0.2089844-1.2817383-1.0288086-1.0722656-1.8300781         c11.3129272-43.311676,40.2700958-68.5672607,60.9394531-74.2163086         c0.8017578-0.2158203,1.6220703,0.253418,1.8408203,1.0507813c0.21875,0.7983398-0.2509766,1.6235352-1.0493164,1.8432617         c-0.4311523,0.1186523-43.2783203,12.5483398-58.8286133,72.0800781         C152.1469727,247.4599762,151.331131,247.9453583,150.5252533,247.7345886z" class="colorfca495 svgShape"/></g><g><path fill="#ffb58a" d="M139.3895111,245.7970886c-0.8046875-0.1972656-1.296875-1.0092773-1.1000977-1.8139648         c3.3833008-13.8081055,8.8544922-25.9228516,16.2617188-36.0073242         c0.4902344-0.6674805,1.4301758-0.8100586,2.097168-0.3208008c0.6674805,0.4907227,0.8110352,1.4291992,0.3208008,2.097168         c-7.1728516,9.7646484-12.4770508,21.5214844-15.765625,34.9448242         C141.0084076,245.4919891,140.2044678,245.9958649,139.3895111,245.7970886z" class="colorfca495 svgShape"/></g><g><path d="M344.8323669,529.1755371c-3.2192383,0-6.7822266-0.5146484-10.6621094-1.8081055         c-0.2617188-0.0869141-0.4033203-0.3701172-0.315918-0.6323242c0.0874023-0.2617188,0.3691406-0.4038086,0.6323242-0.315918         c18.3950195,6.1303711,29.4248047-5.7329102,29.5341797-5.8540039         c0.1850586-0.2050781,0.5019531-0.2197266,0.706543-0.034668c0.2045898,0.1855469,0.2202148,0.5019531,0.034668,0.706543         C364.6717224,521.3366699,357.3855896,529.1755371,344.8323669,529.1755371z" fill="none"/></g><g><path d="M107.3499527,453.4728699c-14.7197266-10.2036133-12.7963867-26.3735352-12.7749023-26.5356445         c0.0351563-0.2739258,0.284668-0.4667969,0.5600586-0.4311523c0.2734375,0.0356445,0.4667969,0.2861328,0.4311523,0.5600586         c-0.0200195,0.15625-1.8530273,15.7368164,12.3530273,25.5844727         c0.2270508,0.1577148,0.2836914,0.4692383,0.1264648,0.6958008         C107.8892288,453.5721741,107.5783386,453.6307068,107.3499527,453.4728699z" fill="none"/></g><g><path fill="#f49964" d="M329.0301208,129.4015808c-0.2597656-0.7866211,0.1674805-1.634758,0.9545898-1.8940353        l33.0546875-10.9047852c0.7866211-0.2592773,1.6347656,0.1679688,1.894043,0.9545898        c0.2597656,0.7866211-0.1674805,1.6347656-0.9545898,1.894043l-33.0546875,10.9047775        C330.1445618,130.6152344,329.2912292,130.1934662,329.0301208,129.4015808z" class="color6864f4 svgShape"/></g><g><path fill="#f49964" d="M361.3152771,106.8102798c-9.4418945-2.6958008-18.5629883-6.4775391-27.1098633-11.2407227        c-0.7236328-0.402832-0.9833984-1.3164063-0.5805664-2.0400391c0.4038086-0.7241211,1.3173828-0.9838867,2.0405273-0.5800781        c8.3461914,4.6503906,17.2529297,8.3432617,26.4731445,10.9760742        c0.796875,0.2275391,1.2583008,1.0576172,1.0307617,1.8540039        C362.9430847,106.5726547,362.1166687,107.0384293,361.3152771,106.8102798z" class="color6864f4 svgShape"/></g><g><path fill="#f49964" d="M355.4993591,154.7819519c-0.7348633-0.3823242-1.0205078-1.2880859-0.6381836-2.0229492        l12.5273438-24.0708008c0.3813477-0.7348557,1.2866211-1.021965,2.0229492-0.6381836        c0.7348633,0.3823242,1.0205078,1.2880859,0.6381836,2.0229492l-12.5273438,24.0708008        C357.1413269,154.8765106,356.2362061,155.1658325,355.4993591,154.7819519z" class="color6864f4 svgShape"/></g><g><path fill="#fdeee6" d="M199.8924103,115.5771255c0,6.7660751-5.4810638,12.2567215-12.2468567,12.2567215        c-6.7657166,0-12.2468414-5.4906464-12.2468414-12.2567215c0-6.7656097,5.4811249-12.2464981,12.2468414-12.2464981        C194.4113464,103.3306274,199.8924103,108.8115158,199.8924103,115.5771255z" class="colore6ebfd svgShape"/></g><g><path fill="#fdeee6" d="M285.2483826,488.5606995c0,4.4858704-3.6339417,8.1261597-8.1196289,8.1261597        c-4.4856567,0-8.1195984-3.6402893-8.1195984-8.1261597c0-4.4855957,3.6339417-8.1193848,8.1195984-8.1193848        C281.6144409,480.4413147,285.2483826,484.0751038,285.2483826,488.5606995z" class="colore6ebfd svgShape"/></g><g><path d="M217.583847,301.025116c-0.3392487-0.1779175-0.2549896-0.5394287-0.3613281-0.9692383        c-1.0717773-6.5551758-2.1796875-13.3334961-3.2104492-20.2626953        c-0.0405273-0.2734375,0.1479492-0.527832,0.4208984-0.5683594c0.2749023-0.0341797,0.5273438,0.1479492,0.5683594,0.4208984        c1.0268555,6.9052734,2.1313477,13.6635742,3.2001953,20.199707        c21.6806641-10.1845703,36.3173828-7.5092773,51.8056488-4.6772461        c15.0976563,2.7597656,30.7080078,5.6142578,53.9121094-4.09375        c0.2177734-3.8378906,2.1635742-42.453125-5.2895508-75.5214844        c-0.0605469-0.2695313,0.1083984-0.5371094,0.3779297-0.5976563c0.2670898-0.0600586,0.5366211,0.1083984,0.5976563,0.3779297        c7.8452148,34.8066406,5.3203125,75.7045898,5.2939453,76.1137695        c-0.012207,0.1889648-0.1303711,0.3549805-0.3046875,0.4287109        c-23.6381836,9.9672852-39.4628906,7.0742188-54.7675781,4.2763672        c-15.4658051-2.828125-30.0742035-5.4985352-51.7958832,4.8808594        C217.8937836,301.0986633,217.7276611,301.0999451,217.583847,301.025116z M324.400238,291.4147644h0.0097656H324.400238z" fill="none"/></g><g><path fill="#ffbf66" d="M374.0491943,370.3320618l10.4199524-21.0298157        c0.0661621-0.1335449,0.2218628-0.1963501,0.3621521-0.1460876l9.2250061,3.3049011        c0.1230164,0.0440979,0.260376,0.0015564,0.3369751-0.1043396l10.1812744-14.0750732        c0.1887817-0.2609863,0.5993042-0.0715942,0.5233154,0.241394l-5.6327515,23.1977844        c-0.0416565,0.1715393-0.2241821,0.2678223-0.3892822,0.2053528l-10.8815002-4.1171265        c-0.105835-0.0400696-0.2252502-0.0157166-0.3069763,0.0625305l-13.3719788,12.802948        C374.2778625,370.9019775,373.9031677,370.6267395,374.0491943,370.3320618z" class="colorffcb64 svgShape"/><path fill="#ff5f00" d="M405.0975037,338.5241699l-5.6348267,23.1968994        c-0.0384827,0.1697388-0.2201233,0.2653809-0.3862915,0.203949l-10.8831787-4.1170959        c-0.1042175-0.0375977-0.2224426-0.0163879-0.3056335,0.0643005l-13.3742981,12.8024292        c-0.2374573,0.227417-0.611908-0.0450134-0.4617004-0.3425598l4.842804-9.776886l6.5849609-6.3036194        c0.0831604-0.0806885,0.2011414-0.1018066,0.305603-0.0643005l10.8831787,4.1170959        c0.1661682,0.0614319,0.3478088-0.0341797,0.3862915-0.203949l3.4448853-14.1850586l4.0758972-5.6330566        C404.7640991,338.0214233,405.1724548,338.2124939,405.0975037,338.5241699z" class="colorfa0 svgShape"/><path fill="#19100a" d="M393.8885193,352.9318542l-5.6333008-2.0180664        c-0.2602539-0.0932617-0.3955078-0.3793945-0.3022461-0.6391602c0.0932617-0.2612305,0.3798828-0.3964844,0.6391602-0.3022461        l5.4868164,1.9658203l8.2246094-11.3701172c0.1616211-0.2241211,0.4736328-0.2744141,0.6982422-0.1123047        c0.2236328,0.1621094,0.2739258,0.4746094,0.1123047,0.6982422l-8.3154297,11.4956055        C394.5895081,352.9388733,394.2111206,353.0484924,393.8885193,352.9318542z" class="color0a0a19 svgShape"/></g><g><path fill="#ffbf66" d="M383.7402954,411.0995178l23.4510803-0.9348755        c0.1489258-0.0059509,0.278656,0.1006165,0.3017883,0.2478333l1.5211792,9.6803589        c0.0202637,0.1290894,0.1234436,0.229248,0.2530823,0.2457275l17.2329407,2.1891479        c0.319519,0.0405884,0.3500671,0.4916382,0.0389404,0.5749817l-23.0592041,6.1754761        c-0.1705322,0.0456543-0.3425293-0.0683899-0.3668518-0.2432251l-1.6022644-11.523468        c-0.015564-0.1120911-0.0941772-0.2052307-0.2020264-0.2394714l-17.6457825-5.5991516        C383.3497009,411.5733948,383.4116821,411.1126099,383.7402954,411.0995178z" class="colorffcb64 svgShape"/><path fill="#ff5f00" d="M426.5381775,423.1029053l-23.0594788,6.1732483        c-0.1674194,0.0475769-0.3384094-0.0660095-0.3641663-0.241272l-1.6030884-11.5249329        c-0.0169678-0.1094971-0.0922546-0.2030945-0.2029419-0.2374268l-17.6464539-5.6014709        c-0.3134155-0.0993958-0.2537842-0.5586243,0.0793457-0.569397l10.9018555-0.4359436l8.6885681,2.7578125        c0.1106873,0.0343323,0.185791,0.1277466,0.2029419,0.2373962l1.6030884,11.5249634        c0.0257568,0.1752625,0.1967468,0.2888489,0.3641663,0.241272l14.1006165-3.7757568l6.8974304,0.8771973        C426.8195801,422.5693359,426.8476257,423.0192871,426.5381775,423.1029053z" class="colorfa0 svgShape"/><path fill="#19100a" d="M423.2791443,422.6227722l-14.074707-1.7880859        c-0.3491211-0.0449219-0.6303711-0.3178711-0.684082-0.6650391l-0.9287109-5.909668        c-0.0424805-0.2729492,0.1435547-0.5288086,0.4165039-0.5717773c0.2700195-0.043457,0.5283203,0.1435547,0.5717773,0.4165039        l0.9042969,5.7573242l13.9208984,1.7685547c0.2739258,0.034668,0.4677734,0.2851563,0.4331055,0.559082        C423.8047791,422.4518738,423.5687256,422.6557007,423.2791443,422.6227722z" class="color0a0a19 svgShape"/></g><g><path fill="#ffbf66" d="M375.7416077,394.9978027l23.6832581-24.5679321        c0.1503906-0.1560059,0.3937683-0.1746216,0.5661316-0.0433044l11.333374,8.6343689        c0.1511536,0.1151428,0.360199,0.1165466,0.5128784,0.0034485l20.2962646-15.0336914        c0.3763123-0.2787476,0.8620911,0.1641235,0.6192017,0.5645447l-18.0009766,29.6763916        c-0.1331177,0.2194519-0.4283752,0.2727051-0.6297913,0.1135559l-13.2722473-10.4880676        c-0.1290894-0.1019897-0.3053284-0.1207581-0.4530029-0.0482178l-24.1594238,11.8684692        C375.8081055,395.8881836,375.4097595,395.3420715,375.7416077,394.9978027z" class="colorffcb64 svgShape"/><path fill="#ff5f00" d="M432.7517395,364.5566101l-18.0034485,29.6743164        c-0.1279602,0.2183228-0.4217224,0.2710571-0.6250305,0.112915l-13.2746582-10.4887695        c-0.1279297-0.0979004-0.3011169-0.1204529-0.4518433-0.0451965l-24.1624756,11.8667297        c-0.4290466,0.2108459-0.8283081-0.3313293-0.4893494-0.6777039l11.0084229-11.4224243l11.8966675-5.8430176        c0.1507263-0.0752563,0.3235474-0.0527039,0.4518433,0.0451965l13.2746582,10.4887695        c0.2033081,0.1581421,0.4970703,0.1054077,0.625-0.112915l11.0080566-18.1464539l8.1244812-6.0161438        C432.5105591,363.7133179,432.9925537,364.1575623,432.7517395,364.5566101z" class="colorfa0 svgShape"/><path fill="#19100a" d="M411.0208435,379.4181824l-6.9194336-5.2709961        c-0.2192383-0.1674805-0.2617188-0.4814453-0.0947266-0.7011719c0.1679688-0.21875,0.4799805-0.2617188,0.7011719-0.0947266        l6.9199219,5.2714844l16.4882813-12.2788086c0.2226563-0.1645508,0.5351563-0.1176758,0.699707,0.1040039        c0.1640625,0.222168,0.1176758,0.5351563-0.1040039,0.699707l-16.5766602,12.2788086        C411.8049011,379.6699524,411.3486938,379.66745,411.0208435,379.4181824z" class="color0a0a19 svgShape"/></g></svg>