<svg xmlns="http://www.w3.org/2000/svg" enable-background="new 0 0 500 500" viewBox="0 0 500 500"><path fill="#fae3d6" d="M307.57,365.77c-8.33,1.46-16.73,2.43-24.95,3.24c-43.35,4.27-88.26-0.2-130.28-11.49   c-14.43-3.88-28.75-8.74-41.45-16.6c-28.83-17.82-52.19-65.35-28.61-95.64c17.71-22.74,47.22-29.67,70.37-44.95    c13.89-9.17,22-22.4,31.92-35.31c16-20.83,35.79-40.97,62.85-45.29c30.16-4.82,62.06,4.76,89.09,17.63    c25.78,12.27,50.9,29.19,68.55,51.93c43.81,56.43-1.78,131.82-55.36,162.45C336.85,359.1,322.32,363.19,307.57,365.77z" class="colord6e0fa svgShape"/><circle cx="175.73" cy="212.85" r="98.02" fill="#563826" class="color263156 svgShape"/><circle cx="175.73" cy="212.85" r="91.14" fill="#ffffff" class="colorfff svgShape"/><rect width="1.84" height="68.81" x="140.36" y="165.37" fill="#ffbf66" transform="rotate(111.863 141.28 199.774)" class="colorecc351 svgShape"/><rect width="2" height="10.11" x="174.73" y="287.4" fill="#563826" transform="rotate(-180 175.73 292.45)" class="color263156 svgShape"/><rect width="2" height="10.11" x="134.32" y="276.57" fill="#563826" transform="rotate(-150 135.324 281.627)" class="color263156 svgShape"/><rect width="2" height="10.11" x="104.74" y="246.99" fill="#563826" transform="rotate(-120 105.737 252.043)" class="color263156 svgShape"/><rect width="2" height="10.11" x="93.91" y="206.58" fill="#563826" transform="rotate(-90 94.912 211.631)" class="color263156 svgShape"/><rect width="2" height="10.11" x="104.74" y="166.17" fill="#563826" transform="rotate(-60 105.74 171.227)" class="color263156 svgShape"/><rect width="2" height="10.11" x="134.32" y="136.59" fill="#563826" transform="rotate(-30 135.313 141.645)" class="color263156 svgShape"/><rect width="2" height="10.11" x="174.73" y="125.76" fill="#563826" class="color263156 svgShape"/><rect width="2" height="10.11" x="215.14" y="136.59" fill="#563826" transform="rotate(30 216.144 141.628)" class="color263156 svgShape"/><rect width="2" height="10.11" x="244.72" y="166.17" fill="#563826" transform="rotate(60 245.73 171.222)" class="color263156 svgShape"/><rect width="2" height="10.11" x="255.55" y="206.58" fill="#563826" transform="rotate(90 256.55 211.631)" class="color263156 svgShape"/><rect width="2" height="10.11" x="244.72" y="246.99" fill="#563826" transform="rotate(120 245.728 252.04)" class="color263156 svgShape"/><rect width="2" height="10.11" x="215.14" y="276.57" fill="#563826" transform="rotate(150 216.142 281.627)" class="color263156 svgShape"/><polygon fill="#e78952" points="175.73 153.01 172.02 210.37 179.44 210.37" class="color6f52e7 svgShape"/><polygon fill="#e78952" points="144.14 245.35 177.33 217.19 172.3 212.17" class="color6f52e7 svgShape"/><circle cx="175.73" cy="212.85" r="6.86" fill="#e78952" class="color6f52e7 svgShape"/><circle cx="175.73" cy="212.85" r="3.65" fill="#563826" class="color263156 svgShape"/><rect width="14.78" height="25.23" x="168.34" y="94.8" fill="#563826" class="color263156 svgShape"/><path fill="#ffb58a" d="M185.77,106.88H165.7c-3.81,0-6.9-3.09-6.9-6.9v0c0-3.81,3.09-6.9,6.9-6.9h20.07c3.81,0,6.9,3.09,6.9,6.9v0     C192.67,103.78,189.58,106.88,185.77,106.88z" class="colore25469 svgShape"/><path fill="#ffffff" d="M377.76,130.03c-13.74,0-24.88,11.14-24.88,24.88c0,7.6,3.42,14.41,8.79,18.97l-0.84,8.06l7.96-3.82     c2.78,1.08,5.8,1.67,8.97,1.67c13.74,0,24.88-11.14,24.88-24.88S391.5,130.03,377.76,130.03z" class="colorfff svgShape"/><path fill="#563826" d="M360.18,182.87l0.91-8.76c-5.57-4.84-8.76-11.82-8.76-19.2c0-14.03,11.41-25.44,25.44-25.44     c14.03,0,25.44,11.41,25.44,25.44c0,14.03-11.41,25.44-25.44,25.44c-3.07,0-6.08-0.55-8.94-1.62L360.18,182.87z M377.76,130.58     c-13.42,0-24.33,10.91-24.33,24.33c0,7.15,3.13,13.91,8.6,18.55l0.22,0.19l-0.76,7.37l7.29-3.5l0.22,0.09     c2.81,1.08,5.76,1.63,8.77,1.63c13.42,0,24.33-10.91,24.33-24.33S391.17,130.58,377.76,130.58z" class="color263156 svgShape"/><path fill="#ffb58a" d="M377.58,169.41c-2.39,0-3.99-1.6-3.99-3.6c0-2.07,1.6-3.68,3.99-3.68c2.35,0,3.95,1.6,3.95,3.68      C381.53,167.8,379.93,169.41,377.58,169.41z M373.86,140.65h7.24l-0.78,18.74h-5.67L373.86,140.65z" class="colore25469 svgShape"/><path fill="#f9caae" d="M349.94,332.68h-53.45c-3.29,0-5.96-2.67-5.96-5.96v0c0-3.29,2.67-5.96,5.96-5.96h53.45      c3.29,0,5.96,2.67,5.96,5.96v0C355.9,330.02,353.24,332.68,349.94,332.68z" class="coloraebef9 svgShape"/><polygon fill="#f9caae" points="291.94 439.76 290.15 439.62 299.27 324.66 301.06 324.8" class="coloraebef9 svgShape"/><polygon fill="#f9caae" points="356.36 439.76 358.3 439.61 349.11 324.65 347.17 324.8" class="coloraebef9 svgShape"/><rect width="1.86" height="115.26" x="322.97" y="324.58" fill="#f9caae" transform="rotate(-180 323.9 382.207)" class="coloraebef9 svgShape"/><rect width="55.25" height="1.69" x="296.51" y="365.81" fill="#f9caae" class="coloraebef9 svgShape"/><path fill="#563826" d="M339.53,173.62c2.4,4.48,5.2,8.79,6.77,13.62c1.58,4.86,1.76,10.49-0.98,14.8         c-3.15,4.96-9.57,7.09-15.41,6.5s-11.19-3.49-16.07-6.76c-5.92-3.97-11.4-8.6-16.32-13.76c-2.05-2.15-4.63-4.47-5.77-7.23         c-1.24-2.99-2.04-6.5-3.05-9.62c-3.99-12.26-6.47-25.62,0.76-37.22c3.5-5.62,11.5-7.32,17.71-7.49         c8.91-0.24,16.13,2.06,19.94,10.6c2.26,5.07,3.21,10.48,4.5,15.83c1.74,7.18,4.38,14.14,7.86,20.65         C339.5,173.56,339.52,173.59,339.53,173.62z" class="color263156 svgShape"/><path fill="#ffbf66" d="M325.36,184.31l-2.21,5.22c0,0-5.63,8.49-5.79,8.47c-0.16-0.02-21.15-5.05-21.15-5.05l5.54-10.53        l0.79-17.22l18.24-5.06l0.17-0.05c0,0,0.11,8.47,1.72,15.09c0.38,1.57,1.62,6.08,1.62,6.08L325.36,184.31z" class="colorecc351 svgShape"/><path fill="#ffbf66" d="M320.87,145.35c0,0,1.42,33.48-14.06,36.31c-6.9,1.26-12.65-7.54-15.15-16.95        c-2.94-11.05-1.98-23.09-1.98-23.09l21.34-11.96L320.87,145.35z" class="colorecc351 svgShape"/><path fill="#563826" d="M305.49,182.02c-0.41,0-0.81-0.03-1.21-0.1c-0.13-0.02-0.22-0.14-0.2-0.28c0.02-0.13,0.15-0.22,0.28-0.2        c0.8,0.13,1.61,0.12,2.41-0.02c3.27-0.6,6.03-2.66,8.19-6.13c0.07-0.11,0.22-0.15,0.33-0.08c0.11,0.07,0.15,0.22,0.08,0.33        c-2.24,3.59-5.11,5.73-8.51,6.35C306.41,181.98,305.95,182.02,305.49,182.02z" class="color263156 svgShape"/><ellipse cx="295.5" cy="159.93" fill="#563826" rx="1.26" ry="1.53" transform="rotate(-26.824 295.543 159.918)" class="color263156 svgShape"/><path fill="#563826" d="M323.23 153.86c-1.86-4.36-7.11-5.26-11.45-5.77-8.66-1.02-11.78-8.07-11.78-8.07s-1.6 14.21-11 13.13c0 0-3.95-24.34 15.4-24.86C327.98 127.65 323.23 153.86 323.23 153.86zM302.65 167.82c-.36 0-.72-.13-.99-.38-.34-.3-.52-.74-.5-1.2l.09-1.83c.01-.13.12-.23.25-.23.13.01.23.12.23.25l-.09 1.83c-.01.31.11.61.34.82.23.21.54.3.84.25l.37-.06c.13-.02.25.07.28.2.02.13-.07.25-.2.28l-.37.06C302.81 167.81 302.73 167.82 302.65 167.82z" class="color263156 svgShape"/><path fill="#563826" d="M305.05 153.62c0 0 3.35-1.62 6.1.04L305.05 153.62zM297.01 155.15c0 0-2.87-.67-5.31 1.83L297.01 155.15z" class="color263156 svgShape"/><path fill="#ffbf66" d="M321.15,152.3c0,0,5.91-0.98,5.45,3.88c-0.45,4.86-6.68,8.22-6.68,8.22L321.15,152.3z" class="colorecc351 svgShape"/><path fill="#563826" d="M322.95 154.83c0 0 5.02-.83-.9 4.75L322.95 154.83zM323.87 150.92c0 0-.69.38-1.68 2.01-.99 1.63-2.12 9.35-2.63 9.32-.51-.03.01-11.05-7.56-16.21-7.57-5.16 4.25-5.76 4.25-5.76s6.23 4.4 6.27 4.92C322.56 145.71 323.87 150.92 323.87 150.92zM295.33 158.42c0 0-1.99-.04-2.98 1.86 0 0 1.42-.96 2.53-1L295.33 158.42z" class="color263156 svgShape"/><ellipse cx="307.5" cy="158.48" fill="#563826" rx="1.54" ry="1.26" transform="rotate(-85.164 307.52 158.485)" class="color263156 svgShape"/><path fill="#ffffff" d="M300.92,174.2c0,0,2.37-3.7,7.21-0.95L300.92,174.2z" class="colorfff svgShape"/><path fill="#563826" d="M307.09,157.02c0,0,1.83-0.8,3.46,0.58c0,0-1.68-0.34-2.72,0.04L307.09,157.02z" class="color263156 svgShape"/><path fill="#ffbf66" d="M333.02 362.63l11.95 18.77c0 0 5.33 7.68 3.2 17.71-2.13 10.03-4.27 17.92-8.75 19.2-4.48 1.28-13.65-3.84-13.65-3.84s4.16-9.81 4.8-15.89-.43-10.13-1.17-11.52S315.1 370.2 315.1 370.2L333.02 362.63zM266.79 393.16l3.13.23c0 0 1.03 5.48 1.76 8.78.73 3.3.47 3.71.36 8.25-.12 4.54.38 10.79.38 10.79s.89 8.44-1.13 9.34c-2.02.89-12.89.97-14.98-.81-2.09-1.78-3.92-2.85-3.92-2.85s2.34-11.85 3.64-18.51c1.3-6.66 2.87-15.81 2.87-15.81L266.79 393.16z" class="colorecc351 svgShape"/><polygon fill="#ffbf66" points="257.79 385.06 257.91 399.11 271.84 402 274.31 380.43" class="colorecc351 svgShape"/><path fill="#563826" d="M272.42 421.22c0 0-1.05 3.41-7.25 2.82-6.2-.59-10.8-3.67-10.67-8.41 0 0-3.86 12.67-3.15 14.38.71 1.71 2.97 6.07 4.62 6.84 1.64.77 12.22 2.75 13.76 1.64 1.54-1.11 3.04-5.79 3.5-9.32C273.69 425.63 272.42 421.22 272.42 421.22zM281.88 277.47c34.34 3.2 58.57-12.07 58.57-12.07s16.71 42.25 4.57 55.14c-7.81 8.29-25.09 17.07-25.09 17.07s7.73 9.08 20.53 32.55c0 0-13.76 13.67-25.71 13.46 0 0-32.15-40.88-31.51-53.04 0 0-1.65 5.23-1.65 27.33 0 18.66-.72 29.07-.72 29.07s-11.59 2.16-17.18 1.44c-1.79-.23-6.9-2.1-6.9-2.1s-7.41-52.24-5.71-68.66c2.56-24.74 29.55-32.98 29.55-32.98L281.88 277.47z" class="color263156 svgShape"/><path fill="#f9caae" d="M283.02,330.6c0-0.04-0.43-3.77,0.77-8.59c1.11-4.42,3.85-10.67,10.63-15.48       c-0.5-1.26-4.02-9.97-6.59-11.64l0.23-0.35c2.87,1.86,6.65,11.58,6.81,11.99l0.06,0.15l-0.13,0.09       c-6.77,4.74-9.5,10.96-10.6,15.33c-1.19,4.74-0.77,8.4-0.76,8.44L283.02,330.6z" class="coloraebef9 svgShape"/><path fill="#f9caae" d="M294.8,306.77l-0.26-0.32c0.09-0.08,9.31-7.59,20.39-9.77l0.08,0.41       C304.03,299.25,294.89,306.69,294.8,306.77z" class="coloraebef9 svgShape"/><path fill="#563826" d="M344.96,381.4c0,0,3.52,12.05,1.92,20.37c-1.6,8.32-3.09,13.44-4.69,13.76s-14.51-1.49-15.79-2.77       c0,0-7.36,8.75-3.41,10.45c3.95,1.71,18.13,3.09,22.4-0.64c0,0,1.28-3.36,1.33-7.52c0.05-4.16,2.19-11.63,3.41-14.93       c1.23-3.31,2.03-6.56-0.11-11.79C347.9,383.11,344.96,381.4,344.96,381.4z" class="color263156 svgShape"/><g><path fill="#e78952" d="M281.82,244.26c-3.06-12.75-11.05-48.05-2.18-56.08c4.13-3.74,21.72-5.11,21.74-5.04      c1.42,4.95,1.69,8.03,5.39,10.53c3.48,2.35,11.16-0.35,18.01-10.43l16.21,3.79c0,0,2.46,16.17,2.59,29.85      c0.12,13.68-2.44,22.73-2.64,33.16c-0.21,11.07,2.45,25.28,1.32,26.91c-2.36,2.68-35.87,3.54-41.45,3.24      c-6.85-0.36-18.46-2.47-19.46-2.52C281.34,277.66,284.76,263.23,281.82,244.26z" class="color6f52e7 svgShape"/></g><g><path fill="#563826" d="M277.85,224.36c-0.14,0-0.27-0.11-0.28-0.26c-0.01-0.13-1.16-12.96-0.5-18.77      c0.02-0.15,0.16-0.26,0.31-0.25c0.15,0.02,0.27,0.16,0.25,0.31c-0.66,5.75,0.49,18.53,0.5,18.66c0.01,0.15-0.1,0.29-0.25,0.31      C277.87,224.36,277.86,224.36,277.85,224.36z" class="color263156 svgShape"/></g><g><path fill="#ffbf66" d="M348.31,249.66l-26.07,33.04l9.73,6.49c0,0,13.31-9.24,22.35-15.32c9.55-6.43,12.07-12.55,12.07-12.55        l2.25-7.87l-9.41-10.28c0,0-6.66,0.58-6.81,1.16S348.31,249.66,348.31,249.66z" class="colorecc351 svgShape"/><path fill="#ffbf66" d="M320.54,302.53c0.34-1.57,1.24-2.96,5.75-6.3c2.71-2.01,5.63-6.64,6.45-7.9l-7.62-6.92          c-1.93,1.12-6.04,1.95-8.76,2.92c-3.41,1.22-7.82,1.88-9.12,4.48c-2.2,4.42-4.2,10.3-2.48,11.05          c1.74,0.74,4.43-4.36,4.43-4.36s-0.92,3.09,0.67,4.19c1.59,1.09,3.79-0.22,3.79-0.22c0.43,2.34,3.43,1.93,3.43,1.93          C317.54,303.44,320.27,303.78,320.54,302.53z" class="colorecc351 svgShape"/><path fill="#ff6103" d="M317.08 301.61c-.01 0-.01 0-.02 0-.12-.01-.2-.11-.19-.23.01-.11.28-2.71 2.38-5.07.08-.09.21-.1.3-.02.09.08.1.21.02.3-2.01 2.26-2.27 4.81-2.28 4.83C317.28 301.53 317.19 301.61 317.08 301.61zM313.65 299.68c0 0-.01 0-.01 0-.12-.01-.21-.11-.2-.23.01-.14.25-3.48 2.02-5.93.07-.09.2-.12.3-.05.09.07.12.2.05.3-1.7 2.35-1.94 5.68-1.94 5.71C313.85 299.59 313.76 299.68 313.65 299.68zM309.19 295.71c-.02 0-.04 0-.06-.01-.11-.03-.18-.15-.15-.26.03-.12.85-2.91 3.08-5.11.08-.08.22-.08.3 0 .08.08.08.22 0 .3-2.15 2.12-2.96 4.89-2.97 4.92C309.37 295.65 309.29 295.71 309.19 295.71z" class="color241e1e svgShape"/><path fill="#e78952" d="M340.98,187.02c0,0,15.35,1.45,18.83,18.83c3.48,17.38,14.92,48.21,6.23,56.32         c0,0,0.59-17.89-20.12-9.49l-4.5-22.36l-1.74-35.47L340.98,187.02z" class="color6f52e7 svgShape"/><path fill="#563826" d="M346.09,252.77c-0.07,0-0.14-0.02-0.19-0.07c-0.11-0.11-0.12-0.28-0.02-0.4        c0.01-0.02,1.43-1.54,3.53-3.16c1.95-1.49,4.92-3.37,7.96-3.83c0.16-0.02,0.3,0.08,0.32,0.24c0.02,0.15-0.08,0.3-0.24,0.32        c-5.62,0.85-11.11,6.75-11.17,6.81C346.24,252.74,346.16,252.77,346.09,252.77z" class="color263156 svgShape"/><path fill="#563826" d="M360.47 248.52c-.05 0-.1-.01-.14-.04-3.14-1.82-7.63-.72-7.68-.7-.15.04-.3-.05-.34-.2-.04-.15.05-.3.2-.34.19-.05 4.75-1.18 8.1.76.13.08.18.25.1.38C360.66 248.47 360.56 248.52 360.47 248.52zM342.67 234.87c-.01 0-.02 0-.03 0-.15-.02-.27-.15-.25-.31l1.56-16.04c.01-.15.15-.27.31-.25.15.02.27.15.25.31l-1.56 16.04C342.93 234.76 342.81 234.87 342.67 234.87z" class="color263156 svgShape"/></g><g><path fill="#e78952" d="M279.63,188.17c0,0-24.68,11.95-36.98,20.52c0,0,17.88-1.86,19.56,11.74l18.26-3.91L279.63,188.17z" class="color6f52e7 svgShape"/><path fill="#563826" d="M277.49,213.78c-0.15,0-0.28-0.12-0.28-0.27c0-0.08-0.06-1.95,0.3-4.4c0.33-2.28,1.1-5.5,2.88-7.9       c0.09-0.13,0.27-0.15,0.39-0.06c0.13,0.09,0.15,0.27,0.06,0.39c-3.27,4.44-3.07,11.88-3.07,11.96       C277.78,213.65,277.66,213.78,277.49,213.78C277.5,213.78,277.49,213.78,277.49,213.78z" class="color263156 svgShape"/><path fill="#ffbf66" d="M289.08,225.94l0.89-11.65c0,0-16.21-3.26-34.65-3.54c0,0-6.99-3.35-12.67-2.05c0,0-11.36,6.89-7.64,14.9       C238.75,231.61,287.04,225.38,289.08,225.94z" class="colorecc351 svgShape"/><path fill="#ffbf66" d="M319.87,229.47c0,0,1.68,3.26,0.93,6.89c-0.75,3.63-2.98,11.27-4.75,6.89c0,0-2.47,2-3.4-1.77       c0,0-2.79,0.09-2.1-4.33c0,0-5.84-0.46-9.29-3.95c-6.71-6.8-12.19-7.26-12.19-7.26l0.89-11.65c0,0,20.3,3.07,23.01,4.66       c2.7,1.58,2.14,3.26,2.14,3.26s1.96,0.84,2.14,2.89C317.26,225.09,320.06,226.58,319.87,229.47z" class="colorecc351 svgShape"/><path fill="#563826" d="M310.56 237.43c-.02 0-.05 0-.07-.01-.91-.23-2.53-1.21-2.16-3.26.8-4.46.68-7.57-.35-8.75-1.49-1.72-4.28-3.42-4.31-3.44-.13-.08-.18-.25-.09-.39.08-.13.25-.18.39-.09.12.07 2.9 1.77 4.44 3.55 1.47 1.69 1.07 5.95.48 9.22-.3 1.66 1 2.34 1.53 2.54.48-1.01 2.46-5.39 3.06-9.73.02-.15.16-.26.32-.24.15.02.26.16.24.32-.7 5.02-3.19 10.07-3.22 10.12C310.76 237.37 310.66 237.43 310.56 237.43zM312.65 241.76c-.05 0-.11-.02-.16-.05-.13-.09-.16-.26-.08-.39.04-.05 3.65-5.51 4.4-11.24.02-.15.16-.26.32-.24.15.02.26.16.24.32-.77 5.87-4.46 11.43-4.49 11.48C312.83 241.72 312.74 241.76 312.65 241.76zM316.05 243.53c-.04 0-.08-.01-.11-.02-.14-.06-.21-.23-.14-.37.02-.05 2.09-4.77 2.7-9.15.02-.15.16-.26.32-.24.15.02.26.16.24.32-.63 4.46-2.72 9.25-2.75 9.3C316.26 243.47 316.16 243.53 316.05 243.53z" class="color263156 svgShape"/></g><g><path fill="#563826" d="M283.44,227.41c-2.66-10.27,3.13-13.88,3.13-13.88l4.84,0.94c0,0-4.78,4.13-3.13,12.87L283.44,227.41z" class="color263156 svgShape"/></g><g><path fill="#563826" d="M284.18,213.27l1.57-0.68c0.5-0.21,1.05-0.28,1.58-0.18l4.24,0.76c0.93,0.17,1.72,0.81,2.07,1.69l0.02,0.06      L284.18,213.27z" class="color263156 svgShape"/></g><g><rect width=".41" height="15.59" x="315.67" y="323.14" fill="#f9caae" transform="rotate(-31.141 315.858 330.948)" class="coloraebef9 svgShape"/></g><g><path fill="#563826" d="M171.89,414.42l-0.25-1.04c-2.09-8.82-3.46-14.64-4.85-28.68c-1.4-14.14-10.6-14.27-10.77-14.27        c0,0,0,0,0,0l0-0.46c0,0,0,0,0,0c0.18,0,9.79,0.14,11.23,14.69c1.39,14.01,2.76,19.82,4.84,28.62l0.25,1.04L171.89,414.42z" class="color263156 svgShape"/><path fill="#b18368" d="M155.77,370.12c0,0-9.77,3.73-6.69,18.18c2.1,9.87,14.85,13.37,14.85,13.37s-3.12-4.36-0.11-12.73        C166.16,382.43,166.77,365.75,155.77,370.12z" class="color68b19c svgShape"/><path fill="#563826" d="M157.67 394.51c-2.12-3.07-3.25-6.72-3.63-10.42-.04-.04-.07-.07-.11-.11l.09-.08c-.04-.44-.08-.88-.1-1.32-.07-1.25-.05-2.5.03-3.75-.84 1.05-1.58 2.2-2.16 3.42-.33.72-.61 1.46-.8 2.23-.17.77-.25 1.57-.18 2.36-.12-.79-.08-1.6.05-2.39.14-.79.39-1.56.69-2.31.62-1.49 1.43-2.88 2.42-4.18L154 378c.05-.59.11-1.17.18-1.76.25-1.86.5-3.36 1-5.09.12-.42.43-.77.84-.94l0 0c-.39 1.14-.7 2.32-.96 3.51 1.56.76 2.95 1.75 4.18 2.93 1.28 1.21 2.31 2.68 3.04 4.27-.8-1.55-1.9-2.94-3.21-4.07-1.23-1.07-2.63-1.97-4.11-2.61-.14.69-.27 1.38-.38 2.07-.1.66-.18 1.32-.24 1.98l.03.02c-.01.01-.02.03-.03.04-.13 1.4-.19 2.81-.15 4.22.01.38.03.76.06 1.14l.09-.07c.91 1.11 1.87 2.19 2.87 3.22 1.01 1.03 2.06 2.03 3.26 2.82-1.26-.72-2.37-1.67-3.45-2.63-.94-.86-1.84-1.76-2.72-2.69C154.63 387.94 155.67 391.48 157.67 394.51zM175.87 418.03l-.46-.02c.59-14.47-2.53-28.63-5.29-41.13-.86-3.91-1.68-7.6-2.33-11.08-1.43-7.61.01-12.27 1.46-14.84 1.59-2.81 3.51-3.78 3.59-3.82l.21.41c-.08.04-7.47 3.92-4.8 18.16.65 3.47 1.47 7.16 2.33 11.06C173.33 389.31 176.46 403.5 175.87 418.03z" class="color263156 svgShape"/><path fill="#b18368" d="M173,347.1c0,0,8.6-5.94,18.77,4.78c6.95,7.32,2.61,19.81,2.61,19.81s-1.83-5.04-10.43-7.3        C177.27,362.63,163.18,353.69,173,347.1z" class="color68b19c svgShape"/><path fill="#563826" d="M192.03 362.47c-1.33-3.48-3.7-6.48-6.53-8.89-.01-.05-.02-.1-.03-.15l-.12.03c-.34-.28-.68-.56-1.03-.83-.99-.76-2.03-1.46-3.11-2.1 1.34-.09 2.71-.05 4.05.16.78.13 1.55.32 2.29.6.73.3 1.43.68 2.05 1.19-.59-.54-1.27-.97-2-1.31-.73-.33-1.51-.56-2.29-.74-1.58-.33-3.19-.45-4.81-.37l.01.05c-.51-.29-1.03-.57-1.55-.84-1.67-.85-3.05-1.49-4.77-2.06-.42-.14-.88-.09-1.25.15l0 0c1.16.33 2.31.74 3.43 1.19-.26 1.71-.23 3.42.05 5.11.28 1.74.9 3.42 1.8 4.92-.83-1.54-1.35-3.23-1.54-4.96-.19-1.62-.14-3.29.17-4.87.65.27 1.29.56 1.92.86.6.29 1.19.6 1.77.93l0 .04c.02 0 .04 0 .06 0 1.23.68 2.42 1.43 3.56 2.27.31.22.61.46.91.7l-.11.03c.4 1.38.75 2.78 1.03 4.19.27 1.41.51 2.84.48 4.29.12-1.44-.03-2.9-.22-4.33-.17-1.26-.41-2.52-.68-3.77C188.34 356.24 190.67 359.11 192.03 362.47zM168.83 410.86l-.46-.02c.58-14.6 3.53-20.97 5.9-26.09 1.94-4.2 3.48-7.51 3.17-13.85-.69-13.94-17.79-18.9-17.97-18.95l.12-.44c.18.05 17.6 5.09 18.3 19.37.32 6.45-1.24 9.81-3.21 14.06C172.34 390.03 169.41 396.36 168.83 410.86z" class="color263156 svgShape"/><path fill="#b18368" d="M159.46,364.49c-4.96,2.38-20.06,3.11-22.94,1.58c-2.88-1.53,1.18-12.66,8.32-15.65        c6.91-2.9,11.53-0.7,14.41,1.14c0.1,0.06,0.19,0.12,0.28,0.18c0.08,0.05,0.15,0.1,0.22,0.15l0,0        C164.3,355.07,164.34,362.15,159.46,364.49z" class="color68b19c svgShape"/><path fill="#563826" d="M159.75 351.88c-.8.26-1.73.64-2.52.93.17 1.94-.24 3.87-1.15 5.51.75-1.68.97-3.58.67-5.33-2.22.83-4.41 1.76-6.55 2.8-.01 0-.02.01-.04.02.05.72-.02 1.4-.16 2.07-.15.69-.37 1.36-.68 1.98-.61 1.26-1.53 2.34-2.6 3.2 1.01-.93 1.84-2.05 2.36-3.31.27-.62.43-1.28.54-1.94.09-.58.11-1.18.05-1.75-.83.42-1.64.86-2.44 1.31l-.04.12c-.04-.01-.08-.02-.11-.03-1.92 1.1-3.75 2.35-5.4 3.86 1.57-1.51 3.32-2.79 5.17-3.92-.92-.28-1.89-.47-2.85-.58-1.08-.13-2.19-.13-3.28.03 1.07-.25 2.19-.34 3.3-.3 1.11.04 2.21.18 3.31.45l-.04.14c.92-.55 1.84-1.07 2.78-1.56 1.09-.57 2.19-1.09 3.3-1.6-1.14-.57-2.37-1.02-3.63-1.31-1.4-.34-2.86-.46-4.3-.32 1.44-.22 2.92-.19 4.36.07 1.44.25 2.84.67 4.19 1.29 1.73-.77 3.47-1.49 5.26-2.13.1.06.19.12.28.18C159.61 351.78 159.68 351.83 159.75 351.88zM172.67 416.21c-.13-21.85 3.95-29.57 7.39-32.2 2.23-1.7 4.09-1.21 4.17-1.19l-.12.44c-.02 0-1.74-.45-3.78 1.12-3.35 2.58-7.32 10.19-7.19 31.82L172.67 416.21z" class="color263156 svgShape"/><path fill="#b18368" d="M205.83,401.66c0,0-17.25-2.35-22.72-7.48c-4.96-4.65,0.07-10.15,1.06-11.14        c0.1-0.1,0.16-0.16,0.16-0.16s0.04-0.08,0.12-0.22c0.69-1.22,4.47-7.15,11.52-3.08C203.79,384.1,205.83,401.66,205.83,401.66z        " class="color68b19c svgShape"/><path fill="#563826" d="M202.14,397.23c-2.12-2.61-4.64-4.85-7.27-6.93c-0.02,0-0.04,0.01-0.06,0.01l-0.01-0.07        c-0.35-0.27-0.69-0.54-1.04-0.8c-0.64-0.48-1.3-0.95-1.95-1.42c-0.02,1.15,0.06,2.31,0.23,3.46c0.21,1.27,0.54,2.54,1.21,3.66        c-0.74-1.08-1.17-2.34-1.46-3.62c-0.28-1.27-0.44-2.56-0.49-3.87c-2.25-1.58-4.74-3.22-7.12-4.61c0.1-0.1,0.16-0.16,0.16-0.16        s0.04-0.08,0.12-0.22l0.01-0.01c1.3,0.79,2.58,1.63,3.83,2.48c1.65-0.19,3.29-0.29,4.94-0.24c1.64,0.06,3.32,0.22,4.83,0.85        c-1.55-0.55-3.21-0.62-4.83-0.59c-1.44,0.04-2.88,0.18-4.29,0.41c1.69,1.17,3.36,2.39,4.98,3.66        c0.27,0.22,0.54,0.44,0.81,0.66l-0.02-0.09c0.9-0.11,1.78-0.1,2.66,0c0.87,0.11,1.74,0.33,2.52,0.73        c-0.81-0.31-1.68-0.45-2.53-0.47c-0.73-0.01-1.48,0.05-2.19,0.18C197.7,392.35,200.11,394.62,202.14,397.23z" class="color263156 svgShape"/><g fill="none"><path fill="#ffbf66" d="M193.41,409.28l-0.4,2.46l-0.66,4.1l-0.19,1.21l-0.26,1.63l-0.01,0.04l-0.27,1.63l-2.35,14.58      c-0.28,1.74-1.78,3.03-3.56,3.03h-25.28c-1.76,0-3.28-1.29-3.56-3.03l-2.35-14.58l-0.27-1.63l-0.01-0.04l-0.26-1.63l-0.19-1.21      l-0.66-4.1l-0.4-2.46H193.41z" class="colorecc351 svgShape"/></g><g fill="none"><polygon fill="#563826" points="193.01 411.74 192.36 415.84 153.8 415.84 153.15 411.74" class="color263156 svgShape"/></g><g fill="none"><polygon fill="#563826" points="191.9 418.68 191.89 418.73 191.63 420.36 154.53 420.36 154.26 418.73 154.25 418.68" class="color263156 svgShape"/></g></g><g><rect width="345.71" height="3.38" x="81.69" y="438.27" fill="#563826" class="color263156 svgShape"/></g><g><path fill="#fae3d6" d="M294.49,65.77c8.39,8.88,9.22,19.84,0.4,28.17c-8.82,8.33-19.11,6.06-27.32-2.62l-5.28,4.49l-7.59-8.03     l10.8-10.82l2.78,2.94c6.42,6.79,12.47,10.72,18.29,5.1c3.79-3.58,3.92-8.15,0.28-12.01c-3.76-3.98-8.27-4.18-12.13-0.54     l-8.14-8.62C274.35,56.23,285.48,56.23,294.49,65.77z M242.85,106.5c-3.15-3.33-3.02-7.9-0.01-10.74     c3.01-2.84,7.58-2.71,10.73,0.62c3.02,3.2,2.89,7.77-0.11,10.61C250.45,109.83,245.88,109.7,242.85,106.5z" class="colord6e0fa svgShape"/></g></svg>