<svg xmlns="http://www.w3.org/2000/svg" enable-background="new 0 0 2500 2000" viewBox="0 0 2500 2000"><path fill="#ffa30f" d="M1225.8,1587.8H741.2c-11.7,0-21.2-9.5-21.2-21.2v-322.4c0-11.7,9.5-21.2,21.2-21.2h484.6    c11.7,0,21.2,9.5,21.2,21.2v322.4C1247,1578.3,1237.6,1587.8,1225.8,1587.8z" class="colorE4DEFA svgShape"/><path fill="#f5d7c5" d="M1149,1151.9H441.2c-16.4,0-29.7-13.3-29.7-29.7V548.5c0-16.4,13.3-29.7,29.7-29.7H1149     c16.4,0,29.7,13.3,29.7,29.7v573.6C1178.7,1138.6,1165.4,1151.9,1149,1151.9z" class="colorD1C5F5 svgShape"/><path fill="#ffa30f" d="M1136,1136.1H454.3c-16.4,0-29.7-13.3-29.7-29.7V564.2c0-16.4,13.3-29.7,29.7-29.7H1136     c16.4,0,29.7,13.3,29.7,29.7v542.2C1165.7,1122.8,1152.4,1136.1,1136,1136.1z" class="colorE4DEFA svgShape"/><rect width="95.4" height="129.1" x="471.4" y="592.7" fill="#f5d7c5" class="colorD1C5F5 svgShape"/><rect width="83.6" height="105.1" x="547.8" y="759.1" fill="#f5d7c5" class="colorD1C5F5 svgShape"/><rect width="40.7" height="63.5" x="486.5" y="864.2" fill="#f5d7c5" class="colorD1C5F5 svgShape"/><rect width="65.1" height="103.1" x="666.1" y="592.8" fill="#f5d7c5" class="colorD1C5F5 svgShape"/><rect width="167.3" height="227.2" x="879.7" y="710.6" fill="#f1b693" class="colorB293F1 svgShape"/><rect width="106.2" height="144.2" x="989.1" y="619.7" fill="#f5d7c5" class="colorD1C5F5 svgShape"/><rect width="106.2" height="144.2" x="1030.6" y="881.3" fill="#f5d7c5" class="colorD1C5F5 svgShape"/><path fill="#ae6100" d="M1999.4,1652.8c-14.8-2.2-66,19.8-99.1-8.7c-36.1-29.9-38-111.4,24.3-180.3      c1.3-1.5,3.8-0.5,3.7,1.5c-0.7,13.4,0.8,32.6,11.8,51c6.7,11.1,19,25.5,24.4,23.2c5.6-2.4,3.3-22.8-2.7-38.9      c-8.6-23-21-26.9-22.3-38.3c-1.3-11.1,8.2-27.8,56.5-51.7c1.9-0.9,3.9,1.2,2.8,2.9c-10.9,11.1-15.9,57,1.7,64.8      c7.7,0.9,19.6-17.2,20.3-35.1c0.5-14.2-6.4-20.1-3-29.5c-0.3-5.3,22.5-22.4,22.2-12.9c-5,6.3-3.4,24.4,7.1,26.6      c5.8-0.2,5.5-13.3,17.6-28.9c3.5-4.3,31.8-32.6,35.1-29.7c5.2,1.1,4.8,8.6,14,28.3c11.3,24.3,16.4,20.1-8.5,49.4      c-18.5,19.3-31.4,24-39.7,42.2c-11.6,23.9,13.8,11.4,20.5,7.8c20.7-11.4,31-31.2,33.7-36.8c7.8-16.1,7.8-27.7,11.9-27.7      c10.9,7,16.1,42.8,7.7,56.9c-9.6,17-28.5,12.9-48.4,36.4c-21.4,23.5,11.6,15.1,22,11.3c10.4-3.5,26.6-10.9,43.3-28      c1.2-1.2,3.3-0.6,3.6,1c4.2,43.2-2,33.5-52.4,58.9c-38.9,15.1,28.7,18.6,46.9-7.8c1.3-1.4,3.8-0.4,3.7,1.5      c-14,99.5-40.2,50.1-75.8,70.4c-20.6,17.5,18.1,20.4,45.1,22.8c7.3,5-20.5,34.3-41.2,41.2      C2048.2,1714.7,2005.5,1692.4,1999.4,1652.8z" class="color00AE42 svgShape"/><path fill="#844f0c" d="M2085.8 1696.6c-37.7 18-80.3-4.2-86.4-43.9-14.8-2.2-66 19.8-99.1-8.7-36.1-29.9-38-111.4 24.3-180.3 1.3-1.5 3.8-.5 3.7 1.5-.6 11.8.4 28 8.2 44.2-16.5 47.8-7.7 91.9 16.8 112.3 33.1 28.4 84.3 6.5 99.1 8.7 4.7 30.1 30.3 50.2 58.9 50.2C2103.5 1687.5 2094.1 1693.9 2085.8 1696.6zM2011.4 1470.6c-8.2-16.3-17.8-20.6-19-30.6-1.3-11.1 8.1-27.8 56.5-51.7 1.9-.9 3.9 1.2 2.8 2.9-5.4 5.5-9.3 19.6-9.8 33.3-5.8-5.9-6-18.7-2-23.8.3-9.5-22.5 7.7-22.2 13-3.4 9.5 3.5 15.3 3 29.5C2020.4 1453.4 2016.3 1463.8 2011.4 1470.6z" class="color0C7684 svgShape"/><path fill="#844f0c" d="M1969.5,1702.8c32.9-51.3,42.7-94,42.7-94c38.9,13.7,84.1,8.7,118.3-13.6c-35,19.9-78.8,23.7-117.1,10.2      c3-9,5.8-18.1,8.6-27.1c37.2,5.3,76.2-9.1,101.1-36.2c-27.6,23.2-63.7,36.6-100.4,34.1c2.7-8.7,5.4-17.3,8.3-25.8c0,0,0,0,0,0      c0-0.2,0.1-0.3,0.1-0.5c0.1-0.2,0.1-0.4,0.2-0.6c1.9-6.3,3.9-12.5,5.8-18.8c36.8-3.8,70.2-27.1,87.9-58.5      c-21.4,28-52,49.6-87.4,56.6c8.8-28.1,18.1-56.1,27.6-84c15.9-3.7,29.6-15.1,36.4-29.5c-9.8,11-21.3,20.7-35.3,26      c6.1-17.8,12.3-35.5,18.6-53.3c-7.5,17.9-14.5,36-21.3,54.2c0,0-0.1,0-0.1,0l-1.2,3c0.1,0,0.1,0,0.2,0c-3,8.1-5.9,16.2-8.8,24.3      c-14.9-10.9-25.1-26.9-29.3-44.7c-0.6,19,11.4,37.8,28.6,46.6c-8.9,25.3-17.3,50.7-25.3,76.1c-38.9-21-63.6-62.8-63-106.2      c-5.8,44,21.1,89.4,62.5,107.6c-2.8,8.9-5.5,17.9-8.2,26.9c-0.1,0-0.1,0-0.2,0l-0.6,1.8c0.1,0,0.1,0,0.2,0      c-2.7,9-5.6,17.9-8.5,26.8c-51-6.4-96.3-46.1-101.4-97.3c1.9,52.5,48.4,94.3,100.2,100.8c0,0,0,0.1,0,0.1l-1.9-0.4      c0,0-21.7,57-48.8,92.1c-27,35.1-148.6,117.5-148.6,117.5l7.6,7.5C1817.2,1824.8,1936.7,1754,1969.5,1702.8z" class="color0C7684 svgShape"/><path fill="#ae6100" d="M485.5,1106.3c-6.3,8.2-10.3,46.6-38.6,57c-30.3,11.8-80.2-14.6-100.9-75.5      c-0.4-1.3,1-2.5,2.1-1.7c7.9,5,20,10.5,34.9,10c9-0.3,21.8-2.9,22.2-6.9c0.4-4.2-12.7-9.7-24.4-11.5      c-16.8-2.5-23.4,3.7-30.7,0.6c-7.2-3-14.1-14.3-12.3-51.6c0.1-1.5,2-2,2.7-0.7c3.1,10.3,29.2,28.8,39.8,20.8      c3.1-4.4-3.8-17.7-14.4-24.1c-8.4-5.1-14.3-2.9-18.9-8.1c-3.3-1.6-6-21.2-0.4-17.8c2.1,5.1,13.6,10.2,18.4,4.7      c1.8-3.6-6.2-7.8-11.6-20.4c-1.5-3.6-9-30.3-6.1-31.2c2.4-2.8,6.8,0,21.8,1.1c18.5,1.3,17.7-3.1,27,21.8      c5.4,17.7,3.9,27.1,12.2,38.3c10.6,15.1,11.5-4.5,11.6-9.8c0.1-16.4-8.4-29.3-10.9-32.8c-7.1-10.1-14.1-14-12.8-16.5      c7.9-4.2,31.3,4.7,37,14.5c7,11.6-1.8,21.6,5.7,41.6c7,20.9,13.1-1.9,14.3-9.5c1.4-7.5,2.4-19.8-2.4-35.7      c-0.3-1.1,0.7-2.2,1.8-1.8c27.5,12,19.6,12.5,18,51.5c-4,28.6,21-11.1,11.1-31c-0.4-1.3,1-2.4,2.2-1.7      c55.5,42,16.7,41.2,17.1,69.6c3.6,18.3,18.4-4.1,29-19.6c5.5-2.8,13.8,24,11.1,38.8C539.4,1097.7,511.6,1116,485.5,1106.3z" class="color00AE42 svgShape"/><path fill="#844f0c" d="M541.2 1068.8c-1.8 28.9-29.6 47.2-55.7 37.5-6.3 8.2-10.3 46.6-38.6 57-30.3 11.8-80.2-14.6-100.9-75.5-.4-1.3 1-2.5 2.1-1.7 6.9 4.3 17.1 9.2 29.5 10 23.4 26.1 53 35.7 73.6 27.7 28.4-10.5 32.3-48.8 38.6-57 19.8 7.3 40.6-1.5 50.2-18.8C541.7 1055.1 542.3 1062.9 541.2 1068.8zM379.3 1037.6c-12.6-.6-18.5 3.9-24.9 1.2-7.2-3-14.1-14.3-12.3-51.6.1-1.5 2-2 2.7-.7 1.5 5.1 8.7 12.2 16.8 17.2-5.5 1.5-13.3-2.6-15.1-6.8-5.6-3.4-2.9 16.2.4 17.8 4.6 5.3 10.4 3 18.9 8.1C372 1026.5 376.9 1032.4 379.3 1037.6z" class="color0C7684 svgShape"/><path fill="#844f0c" d="M505.7,1141.3c-19.9-37.2-42.5-57.5-42.5-57.5c21.4-18.9,33.6-47.9,31.6-76.2      c0.2,27.9-12.2,55.7-33.3,74.3c-4.4-4.9-9-9.6-13.5-14.4c15.7-20.7,20.2-49.2,12.1-73.4c4.7,24.5,0.7,50.9-13.2,72.3      c-4.3-4.6-8.6-9.1-12.8-13.7c0,0,0,0,0,0c-0.1-0.1-0.2-0.2-0.2-0.2c-0.1-0.1-0.2-0.2-0.3-0.3c-3.1-3.3-6.3-6.6-9.4-9.8      c10.1-23.6,7.3-51.6-5.7-72.9c9.8,22.4,12.5,48.2,4.8,71.9c-14-14.8-27.9-29.9-41.5-45c3.1-10.9,0.8-23-5.5-32      c3.4,9.6,5.3,19.9,3.9,30.1c-8.7-9.7-17.4-19.4-26-29.2c8.3,10.5,16.9,20.9,25.6,31.2c0,0,0,0.1,0,0.1l1.4,1.7c0,0,0-0.1,0-0.1      c3.9,4.5,7.8,9,11.7,13.5c-11.6,5.4-24.8,6.1-36.9,2.7c11.3,6.8,26.7,5.9,37.8-1.6c12.3,13.9,24.9,27.6,37.5,41      c-25.8,16.4-59.5,17.3-85.5,2.3c24.7,18.4,61.2,17.4,86.2-1.6c4.5,4.7,9,9.3,13.5,14c0,0-0.1,0.1-0.1,0.1l0.9,1      c0,0,0.1-0.1,0.1-0.1c4.5,4.7,9,9.4,13.3,14.2c-21.1,28.7-60.4,42.7-93.1,28.6c32.4,16.5,73.3,2.5,94.8-26.7c0,0,0,0,0.1,0.1      l-0.9,1c0,0,27.1,32.4,39.3,60.6c12.1,28.2,21,129.5,21,129.5l7.1-2.1C528.2,1274.6,525.7,1178.4,505.7,1141.3z" class="color0C7684 svgShape"/><polygon fill="#844f0c" points="527.3 1255.6 547.8 1449.8 539 1451.5 515.6 1225.7" class="color0C7684 svgShape"/><path fill="#ae6100" d="M453.7,1270.4c-0.1,6.7,12.8,27.9,2.3,44.3c-11,17.8-46.9,23.7-81.2,0.4      c-0.7-0.5-0.4-1.7,0.4-1.7c6-0.5,14.4-2.4,21.8-8.4c4.5-3.6,10.1-10,8.7-12.2c-1.4-2.3-10.3,0-17,3.6      c-9.6,5.2-10.6,11-15.6,12.3c-4.8,1.2-12.8-1.9-26.4-21.8c-0.5-0.8,0.3-1.8,1.1-1.4c5.6,4.1,26.2,3.5,28.5-4.8      c-0.1-3.5-8.8-7.6-16.8-6.8c-6.3,0.7-8.5,4.1-12.9,3.2c-2.3,0.5-11.3-8.5-7.1-9c3.1,1.8,11,0,11.3-4.8c-0.5-2.6-6.2-1.6-13.9-6      c-2.1-1.3-16.4-12-15.3-13.7c0.2-2.4,3.5-2.6,11.6-7.9c10-6.5,7.9-8.5,22.4,0.7c9.7,7,12.5,12.4,21.1,14.9      c11.3,3.6,4.2-6.8,2.2-9.5c-6.3-8.5-15.7-11.7-18.3-12.6c-7.6-2.4-12.7-1.7-13-3.5c2.4-5.3,17.9-9.8,24.7-6.9      c8.1,3.2,7.5,11.8,19.1,19.1c11.7,8,6-6.1,3.6-10.4c-2.2-4.4-6.5-11.1-15.1-17.4c-0.6-0.4-0.5-1.4,0.2-1.7      c18.8-4.6,14.9-1.2,29.3,19.5c9.1,16.2,6.4-13.9-6.3-20.2c-0.7-0.5-0.4-1.6,0.4-1.7c44.9,0,24.6,14.7,35.8,29.1      c9,8,7.9-9.3,7.3-21.3c1.8-3.6,16.4,6.9,20.8,15.7C478,1245,470.8,1265.3,453.7,1270.4z" class="color00AE42 svgShape"/><path fill="#844f0c" d="M467.7 1229.5c10.3 15.5 3.1 35.7-14 40.9-.1 6.7 12.8 27.9 2.3 44.3-11 17.8-46.9 23.7-81.2.4-.7-.5-.4-1.7.4-1.7 5.2-.5 12.3-1.9 19-6.4 22.2 4.3 41.1-2.3 48.6-14.4 10.5-16.4-2.4-37.7-2.3-44.3 13-3.9 20.3-16.5 18.5-29.2C462.6 1222.3 466 1226 467.7 1229.5zM372.4 1276.4c-6.7 4.6-8 9.2-12.3 10.3-4.8 1.3-12.8-1.9-26.4-21.8-.5-.8.3-1.8 1.1-1.4 2.8 2 9.2 2.9 15.3 2.3-2.2 2.9-7.9 3.8-10.4 2.4-4.2.5 4.8 9.5 7.1 9 4.4.9 6.6-2.5 12.9-3.2C364.3 1273.5 369.1 1274.7 372.4 1276.4z" class="color0C7684 svgShape"/><path fill="#844f0c" d="M477.6,1280.5c-24.7-11.3-44.2-13-44.2-13c3.6-18.1-1.4-37.7-13.4-51.4c11,14.2,15.4,33.4,11.8,51.1      c-4.2-0.8-8.4-1.5-12.5-2.1c0-16.8-8.8-33.1-22.3-42.4c12,10.8,20.1,25.9,21.3,42.3c-4-0.7-8-1.3-11.9-2.1c0,0,0,0,0,0      c-0.1,0-0.1,0-0.2,0c-0.1,0-0.2,0-0.3-0.1c-2.9-0.5-5.8-0.9-8.7-1.4c-4-16-16.3-29.4-31.3-35.2c13.7,7.7,25.1,19.9,30.4,35.1      c-13-2.2-25.9-4.5-38.8-7c-2.6-6.8-8.5-12.1-15.3-14.3c5.5,3.6,10.5,8.1,13.7,14c-8.2-1.6-16.5-3.2-24.7-4.9      c8.4,2.2,16.8,4.2,25.3,6.1c0,0,0,0,0,0.1l1.4,0.3c0,0,0,0,0-0.1c3.8,0.8,7.5,1.6,11.3,2.4c-3.9,7.3-10.3,12.8-17.9,15.7      c8.5-0.9,16-7.4,18.8-15.5c11.7,2.4,23.5,4.5,35.2,6.5c-6.9,18.5-23.8,32-43,34.4c19.8-0.2,38.2-14.9,43.7-34.3      c4.1,0.7,8.3,1.3,12.4,2c0,0,0,0.1,0,0.1l0.9,0.1c0,0,0-0.1,0-0.1c4.1,0.7,8.3,1.3,12.4,2.1c0.3,23-14.4,45.4-36.7,50.9      c23.1-4.1,38.7-27.2,38.3-50.6c0,0,0,0,0.1,0l0,0.9c0,0,26.5,6.1,43.7,15.9c17.2,9.8,61.2,58.4,61.2,58.4l2.8-3.8      C541,1340.3,502.3,1291.9,477.6,1280.5z" class="color0C7684 svgShape"/><path fill="#844f0c" d="M497.2,1294c0,0,44.3,36.2,65.2,81.6c20.9,45.4,27.8,118.8,27.8,118.8h-5.3c0,0-9.6-78.1-29.5-118.3      c-19.9-40.2-52.1-68.2-52.1-68.2L497.2,1294z" class="color0C7684 svgShape"/><path fill="#ae6100" d="M1804.2,1678.9c-6.4,5.4-16.2,35.2-40.5,38.5c-26,4.1-61.1-25.4-67-77.2      c-0.1-1.1,1.2-1.8,2-1c5.4,5.3,14,11.8,25.9,14c7.2,1.3,17.8,1.5,18.8-1.6c1.1-3.3-8.4-9.9-17.4-13.3      c-12.9-4.9-19.2-1.1-24.5-4.8c-5.2-3.6-8.7-13.7-0.8-43c0.3-1.1,1.9-1.2,2.3-0.1c0.6,8.7,18.1,27.9,28,23.3      c3.2-2.9,0-14.7-7.3-21.6c-5.8-5.5-10.9-4.7-13.6-9.7c-2.4-1.8-1.1-17.8,2.8-14.1c0.8,4.4,9,10.5,13.8,6.9      c2.1-2.5-3.6-7.3-5.7-18.2c-0.5-3.1-1.9-25.5,0.5-25.8c2.4-1.8,5.4,1.2,17.1,4.6c14.5,4.3,14.6,0.6,17.7,21.9      c1.2,15-1.6,22.2,3.1,32.4c5.8,13.8,9.9-1.6,10.9-5.7c2.9-13-1.7-24.6-3-27.9c-3.9-9.3-8.8-13.6-7.3-15.3c7-2,24,9.1,26.8,17.9      c3.6,10.4-5.2,16.8-2.6,33.9c1.9,17.7,10.7,0.7,12.9-5.1c2.4-5.7,5.3-15.2,4.3-28.7c-0.1-0.9,1-1.6,1.8-1.1      c19.8,14.2,13.4,13.3,5.4,43.9c-8.1,22,18.5-5.2,14.1-22.6c-0.1-1.1,1.2-1.7,2-1c36.8,42.9,6.2,35.6,1.5,58.1      c-0.3,15.2,15.3,0,26.4-10.5c4.8-1.2,6.8,21.4,2.1,32.7C1848.4,1681.3,1823.2,1691,1804.2,1678.9z" class="color00AE42 svgShape"/><path fill="#844f0c" d="M1854.8 1658.8c-6.4 22.6-31.6 32.3-50.6 20.1-6.4 5.4-16.2 35.1-40.5 38.5-26 4.1-61.1-25.4-67-77.2-.1-1.1 1.2-1.8 2-1 4.7 4.6 11.9 10.2 21.7 13 14 24.7 35.9 37.4 53.6 34.6 24.3-3.4 34-33.1 40.5-38.5 14.4 9.2 32.4 5.8 43-6.2C1857.5 1647.9 1856.7 1654.3 1854.8 1658.8zM1731.8 1606.1c-9.9-2.6-15.3-.1-19.9-3.4-5.2-3.6-8.7-13.7-.8-43 .3-1.1 1.9-1.2 2.3-.1.3 4.3 4.8 11.2 10.4 16.5-4.6.2-10.1-4.4-10.8-8-3.9-3.6-5.1 12.3-2.8 14.2 2.7 5 7.8 4.2 13.6 9.7C1727.9 1596 1730.8 1601.6 1731.8 1606.1z" class="color0C7684 svgShape"/><path fill="#844f0c" d="M1814.1,1710.1c-9.4-32.9-23.8-52.9-23.8-52.9c20.2-11.3,34.9-32.2,38.2-54.9      c-4.6,22.1-19.3,42-39.2,53.2c-2.7-4.6-5.5-9.2-8.2-13.7c16-13.7,24.5-35.5,22.3-56.1c-0.5,20.2-8.2,40.5-22.9,55      c-2.7-4.4-5.3-8.7-7.8-13.1c0,0,0,0,0,0c-0.1-0.1-0.1-0.2-0.2-0.2c-0.1-0.1-0.1-0.2-0.2-0.3c-1.9-3.1-3.8-6.3-5.8-9.4      c12.1-16.9,14.7-39.7,8-58.8c3.9,19.4,1.6,40.3-8.6,57.8c-8.6-14.2-16.9-28.5-25.2-42.8c4.3-8.1,4.6-18.1,1.1-26.3      c1,8.2,0.8,16.7-2.1,24.5c-5.2-9.2-10.4-18.4-15.5-27.6c4.8,9.8,9.8,19.5,14.9,29.1c0,0,0,0,0,0.1l0.8,1.6c0,0,0-0.1,0-0.1      c2.3,4.3,4.6,8.5,7,12.7c-10.1,2.3-20.7,0.6-29.7-4.3c7.8,7.3,20.1,9.2,30.3,5.2c7.3,13.1,15,26.1,22.7,39      c-23.3,8.6-50.1,3.5-68.1-12.9c16.4,18.8,45.5,24.3,68.6,13.6c2.7,4.5,5.5,9,8.3,13.5c0,0-0.1,0.1-0.1,0.1l0.6,0.9      c0,0,0.1-0.1,0.1-0.1c2.8,4.5,5.5,9,8.1,13.5c-21.7,19.1-55.2,23.4-78.7,6.6c22.8,18.7,57.7,14.6,79.7-4.8c0,0,0,0,0,0.1      l-0.9,0.7c0,0,15.9,30.3,20.7,54.8c4.8,24.4-5.7,106.3-5.7,106.3l6-0.4C1809,1819.6,1823.5,1742.9,1814.1,1710.1z" class="color0C7684 svgShape"/><path fill="#ffa30f" d="M2046.1,1311.3h-576.1c-26.2,0-47.4-21.2-47.4-47.4V315.6c0-26.2,21.2-47.4,47.4-47.4h576.1     c26.2,0,47.4,21.2,47.4,47.4V1264C2093.5,1290.1,2072.3,1311.3,2046.1,1311.3z" class="colorE4DEFA svgShape"/><path fill="#fef7f3" d="M2068.9,345.8v888c0,17-8.6,32-21.6,40.9c-4.2,2.9-8.9,5.1-13.9,6.6c-4.4,1.3-9.1,2-14,2h-522.6     c-27.3,0-49.5-22.2-49.5-49.5v-888c0-27.3,22.2-49.5,49.5-49.5h522.6c4.9,0,9.6,0.7,14,2c5,1.5,9.7,3.7,13.9,6.6     C2060.4,313.8,2068.9,328.8,2068.9,345.8z" class="colorF4F3FE svgShape"/><path fill="#f5d7c5" d="M1521.9,1283.3h-25.2c-27.3,0-49.5-22.2-49.5-49.5v-888c0-27.3,22.2-49.5,49.5-49.5h25.2     c-27.3,0-49.5,22.2-49.5,49.5v888C1472.4,1261.2,1494.6,1283.3,1521.9,1283.3z" class="colorD1C5F5 svgShape"/><rect width="621.7" height="24.1" x="1447.3" y="530" fill="#ffa30f" class="colorE4DEFA svgShape"/><rect width="13.9" height="1055.9" x="1942.1" y="296.3" fill="#ffa30f" class="colorE4DEFA svgShape"/><rect width="13.9" height="1055.9" x="1972.6" y="296.3" fill="#ffa30f" class="colorE4DEFA svgShape"/><rect width="13.9" height="1055.9" x="2003" y="296.3" fill="#ffa30f" class="colorE4DEFA svgShape"/><path fill="#ffa30f" d="M2047.3,304.9v1047.3h-13.9V298.3C2038.4,299.8,2043.1,302,2047.3,304.9z" class="colorE4DEFA svgShape"/><ellipse cx="1219.5" cy="1808.6" fill="#ffa30f" rx="992.2" ry="78.4" class="colorE4DEFA svgShape"/><g><ellipse cx="1024.6" cy="1795.2" fill="#f1b693" rx="480.6" ry="13.4" class="colorB293F1 svgShape"/><ellipse cx="1321.9" cy="1761.1" fill="#f1b693" rx="251.8" ry="10.6" class="colorB293F1 svgShape"/><ellipse cx="1604.1" cy="1795.2" fill="#f1b693" rx="287.4" ry="23.8" class="colorB293F1 svgShape"/></g><g><path fill="#f5d7c5" d="M1606.7 828h-368c-2.9 0-5.3-2.4-5.3-5.3V610.1c0-2.9 2.4-5.3 5.3-5.3h368c2.9 0 5.3 2.4 5.3 5.3v212.7C1612 825.7 1609.6 828 1606.7 828zM1606.7 1182.8h-368c-2.9 0-5.3-2.4-5.3-5.3V857.1c0-2.9 2.4-5.3 5.3-5.3h368c2.9 0 5.3 2.4 5.3 5.3v320.3C1612 1180.4 1609.6 1182.8 1606.7 1182.8z" class="colorD1C5F5 svgShape"/><path fill="#f1b693" d="M1544.8,628.6v177.9c0,1.5-1.3,2.8-2.8,2.8h-275.4c-1.6,0-2.8-1.3-2.8-2.8V628.6c0-1.6,1.3-2.8,2.8-2.8     H1542C1543.5,625.7,1544.8,627,1544.8,628.6z" class="colorB293F1 svgShape"/><circle cx="1576.4" cy="645.8" r="14.1" fill="#f1b693" class="colorB293F1 svgShape"/><circle cx="1576.4" cy="692.4" r="14.1" fill="#f1b693" class="colorB293F1 svgShape"/><circle cx="1576.4" cy="739" r="14.1" fill="#f1b693" transform="rotate(-45.001 1576.415 739.005)" class="colorB293F1 svgShape"/><circle cx="1576.4" cy="785.6" r="14.1" fill="#f1b693" transform="rotate(-76.714 1576.554 785.594)" class="colorB293F1 svgShape"/><rect width="291.9" height="23.8" x="1276.8" y="828" fill="#ffffff" class="colorFFF svgShape"/><rect width="187.8" height="105.5" x="1263.8" y="900.3" fill="#ffa30f" class="colorE4DEFA svgShape"/><rect width="66.1" height="34.1" x="1287.6" y="931.9" fill="#f5d7c5" class="colorD1C5F5 svgShape"/><rect width="57.4" height="72.1" x="1373.8" y="913.5" fill="#f5d7c5" class="colorD1C5F5 svgShape"/><circle cx="1478.1" cy="1049.2" r="14.9" fill="#f1b693" transform="rotate(-22.5 1478.005 1049.148)" class="colorB293F1 svgShape"/><circle cx="1525.7" cy="1049.2" r="14.9" fill="#ffffff" transform="rotate(-76.714 1525.835 1049.22)" class="colorFFF svgShape"/><circle cx="1571.5" cy="1049.2" r="14.9" fill="#ffffff" transform="rotate(-45.001 1571.466 1049.211)" class="colorFFF svgShape"/><rect width="91" height="15.2" x="1493" y="903.7" fill="#f1b693" class="colorB293F1 svgShape"/><rect width="72.1" height="36.8" x="1504.4" y="1145.9" fill="#ffffff" class="colorFFF svgShape"/><circle cx="1298.1" cy="1147.7" r="13.4" fill="#ffa30f" transform="rotate(-80.781 1298.112 1147.693)" class="colorE4DEFA svgShape"/><circle cx="1367.1" cy="1147.7" r="13.4" fill="#f1b693" transform="rotate(-80.781 1367.106 1147.691)" class="colorB293F1 svgShape"/><rect width="320.2" height="481.2" x="1262.6" y="1182.8" fill="#f5d7c5" class="colorD1C5F5 svgShape"/><rect width="182.8" height="182.8" x="1373.8" y="1284.6" fill="#ffa30f" class="colorE4DEFA svgShape"/><rect width="88.9" height="9.4" x="1422.7" y="1311.3" fill="#f1b693" class="colorB293F1 svgShape"/><rect width="38.3" height="65.7" x="1293.4" y="1499.9" fill="#ffa30f" class="colorE4DEFA svgShape"/><rect width="38.3" height="65.7" x="1403.6" y="1499.9" fill="#ffa30f" class="colorE4DEFA svgShape"/><rect width="38.3" height="65.7" x="1511.6" y="1499.9" fill="#ffa30f" class="colorE4DEFA svgShape"/><circle cx="1304.4" cy="1744.6" r="39" fill="#543c1e" class="color221E54 svgShape"/><circle cx="1304.4" cy="1744.6" r="23.1" fill="#f5d7c5" transform="rotate(-76.714 1304.556 1744.731)" class="colorD1C5F5 svgShape"/><rect width="55.3" height="11.4" x="1276.8" y="1663.9" fill="#f1b693" class="colorB293F1 svgShape"/><rect width="17.6" height="65.6" x="1295.6" y="1675.3" fill="#f1b693" class="colorB293F1 svgShape"/><circle cx="1538.4" cy="1744.6" r="39" fill="#543c1e" class="color221E54 svgShape"/><circle cx="1538.4" cy="1744.6" r="23.1" fill="#f5d7c5" transform="rotate(-22.5 1538.279 1744.571)" class="colorD1C5F5 svgShape"/><rect width="55.3" height="11.4" x="1510.7" y="1663.9" fill="#f1b693" class="colorB293F1 svgShape"/><rect width="17.6" height="65.6" x="1529.5" y="1675.3" fill="#f1b693" class="colorB293F1 svgShape"/><rect width="320.2" height="48.1" x="1262.6" y="1182.8" fill="#f1b693" class="colorB293F1 svgShape"/><g opacity=".47"><path fill="#cc7948" d="M1451.5,809.2h-56L1263.8,685v-56.4c0-1.6,1.3-2.8,2.8-2.8h1.4L1451.5,809.2z" class="color6248CC svgShape"/><polygon fill="#cc7948" points="1523.8 809.2 1504.4 809.2 1320.9 625.7 1340.3 625.7" class="color6248CC svgShape"/><path fill="#cc7948" d="M1544.8,628.6v92.5l-95.3-95.3h92.5C1543.5,625.7,1544.8,627,1544.8,628.6z" class="color6248CC svgShape"/></g></g><g><rect width="39" height="191.4" x="1251.5" y="173.1" fill="#f5d7c5" class="colorD1C5F5 svgShape"/><rect width="27.3" height="1359.2" x="1257.4" y="364.5" fill="#77552a" class="color322A77 svgShape"/><rect width="256.5" height="29.5" x="1145.2" y="1723.7" fill="#543c1e" class="color221E54 svgShape"/><ellipse cx="1384.9" cy="1770.3" fill="#543c1e" rx="27.6" ry="28.8" class="color221E54 svgShape"/><ellipse cx="1384.9" cy="1770.3" fill="#f5d7c5" rx="13.6" ry="14.2" class="colorD1C5F5 svgShape"/><ellipse cx="1162.5" cy="1770.3" fill="#543c1e" rx="27.6" ry="28.8" class="color221E54 svgShape"/><ellipse cx="1162.5" cy="1770.3" fill="#f5d7c5" rx="13.6" ry="14.2" class="colorD1C5F5 svgShape"/><polygon fill="#8b693f" points="622.6 1392.1 582.9 1801.1 614.1 1801.1 685.4 1392.1" class="color473F8B svgShape"/><polygon fill="#8b693f" points="816.2 1392.1 776.4 1801.1 807.6 1801.1 879 1392.1" class="color473F8B svgShape"/><polygon fill="#8b693f" points="1147 1392.1 1186.8 1801.1 1155.6 1801.1 1084.3 1392.1" class="color473F8B svgShape"/><polygon fill="#8b693f" points="953.5 1392.1 993.2 1801.1 962 1801.1 890.7 1392.1" class="color473F8B svgShape"/><path fill="#8b693f" d="M1172,1405.3v17.8c0,7.3-5.9,13.2-13.2,13.2H599.9c-7.3,0-13.2-5.9-13.2-13.2v-17.8     c0-7.3,5.9-13.2,13.2-13.2h558.9C1166.1,1392.1,1172,1398,1172,1405.3z" class="color473F8B svgShape"/><rect width="373.1" height="479.2" x="600.6" y="853.2" fill="#d17705" class="colorAF1B45 svgShape"/><path fill="#f27a38" d="M959.6,1343v18c0,6.2-1.5,12.1-4.2,17.3c-5.7,11-16.8,18.9-29.9,20c-75.4,6.8-254.6,18.8-320.8-13.2     c-84.8-41-94.6-475.9-30.2-532.5c0,0,34.5-28.3,57.2,2c5.3,7.1,7,31.6,7.9,65.4c2.8,110-2.9,319.2,82.6,352.1     c74.1,28.5,154.3,33.3,200,33.4C942.8,1305.5,959.6,1322.3,959.6,1343z" class="colorF23868 svgShape"/><path fill="#d17705" d="M955.4,1378.3c-5.7,11-16.8,18.9-29.9,20c-75.4,6.8-254.6,18.8-320.8-13.2     c-84.8-41-94.6-475.9-30.2-532.5c0,0,34.5-28.3,57.2,2c5.3,7.1,7,31.6,7.9,65.4c-25.2,5-60.5,13.7-67.3,24.1     c-10.8,16.6-26.8,330.9,35.5,394.1C657.7,1389,872.7,1382.7,955.4,1378.3z" opacity=".84" class="colorAF1B45 svgShape"/><path fill="#eda67b" d="M762.7,674.2c0,0-33.9,3.8-43.3,10.3c-9.4,6.6-28.9,27.8-27.9,27.7c0.9-0.1,28.2,7.4,35.6,5.9       c7.4-1.6,35.7-40.8,35.7-40.8s-15.7,38.6-17,47.4c-1.3,8.8,7.4,50.8,8.8,47.7c1.4-3.1,19.8-21.4,21.7-36.7       C778.1,720.3,768,673.5,762.7,674.2z" class="colorA27BED svgShape"/><path fill="#e58247" d="M753 679.2c0 0-21.4 6.6-29.9 11.8-8.5 5.2-13.9 7.7-11.5 8.8 2.4 1.1 33.2-16.9 32.5-13.1-.7 3.8-23.3 19.1-18.6 20.5S762.1 681.4 753 679.2zM762.7 688.6c0 0-13 48-10.8 52.3 2.1 4.2 10.6-42.7 11.8-41.1 1.2 1.6-4.2 59.3 0 55.7C767.9 752 770.9 706.7 762.7 688.6z" class="color8347E5 svgShape"/><path fill="#77552a" d="M760.8,695.9l-20.2-12.6c-3.2-2-4.1-6.1-2.2-9.3l3.4-5.5c2-3.2,6.1-4.1,9.3-2.2l20.2,12.6       c3.2,2,4.1,6.1,2.2,9.3l-3.4,5.5C768.1,696.9,763.9,697.9,760.8,695.9z" class="color322A77 svgShape"/><path fill="#f1b693" d="M897.9,567.4c0,0-32.3-73.3-100.9-57.7c-68.6,15.6-98,83-56.4,138C782.2,702.7,897.9,567.4,897.9,567.4       z" class="colorB293F1 svgShape"/><path fill="#fbb890" d="M905.7,617.6c-1.2,10.7-6.6,21.9-4.3,30.5c0,0,0,0,0,0.1c0.3,1.5,3.5,16.8,1.6,28.4        c-1.8,11.6-2.2,44.2-26.1,50.5c0,0,0,0,0,0c-1.3,0.3-2.7,0.6-3.9,0.8h0c-0.6,0.1-1.2,0.2-1.7,0.3c0,0-0.1,0-0.1,0        c-4.5,0.7-7.7,0.9-7.7,0.9l-10.4-2c0,0-4.3,15.5-0.7,26.2c0.7,2,2.4,3.9,4.9,5.8c4.3,3.3,10.8,6.3,17,8.7        c11,12.6,25.6,28,25.6,28s10.1,42.4-51.5,39.7c-61.6-2.7-92.3-66.1-92.3-66.1s7.2-3.7,14-10.1c3.8-3.6,7.4-7.9,9.6-13        c6.2-14.1-2.2-44.9-2.2-44.9s-13.4-7.8-15.8-12.7c-2.4-4.9-1.8-19.2-1.8-19.2s23.5-40.2,31.8-49c8.3-8.8,47.2-48,105.9-32.4        C897.4,588,907,606.9,905.7,617.6z" class="colorFFB2A8 svgShape"/><path fill="#f2a87c" d="M852.3,753.3c-2.2-0.2-6.3-4.2-20.8-15c-16.1-12-26.3-23.7-27.3-25.5c-1.1-1.8,2.1,0.9,25.9,8.1       c10.1,3,17.6,5,22.9,6.2C853,727.1,848.7,742.6,852.3,753.3z" class="colorF27C85 svgShape"/><path fill="#eda67b" d="M906.9,601.8c-0.6,1.3-2.3,2.1-4.9,2.7c-11,2.7-37.6,1.7-62.3,12.1c-0.4,0.2-0.9,0.4-1.3,0.6       c0.3-0.3,0.7-0.6,1-0.9c0,0-33.1,10.2-48.9,38.2c-13,23.1-13.4,41.2-13.2,46.9c-2.3-0.9-4.7-1.9-6.8-3.2       c-0.8-0.5-1.9-1.2-3.2-2.2c-2.9-2.3-6.9-5.8-11.2-9.9c-11.6-11.3-25.3-27.1-24.9-34.3c0.1-2.3,0.5-5.8,1.5-10.2       c3.7-16.8,15.6-46.8,51.9-70.9c45.8-30.5,98.2-26.4,114.8-10.8C916,575.4,910.2,594.7,906.9,601.8z" class="colorA27BED svgShape"/><path fill="#e58247" d="M901.9,604.6c0,0-22.9-25-62.6,11.7c0,0-33.1,10.2-48.9,38.2c-13,23.1-13.4,41.2-13.2,46.9       c-2.3-0.9-4.7-1.9-6.8-3.2c-0.8-0.5-1.9-1.2-3.2-2.2c-3.3-16-3.2-37.6,11.2-59.7c28.4-43.7,75.8-54.9,75.6-59.9       c-0.2-5-46.8,11.4-73.5,48.9c-16.3,23-23.5,41.2-24.5,60.7c-11.6-11.3-25.3-27.1-24.9-34.3c0.1-2.3,0.5-5.8,1.5-10.2       c0.8,2,1.7,3.6,2.7,4.9c15.2,21.1,15.2,21.1,15.2,21.1s11.8-65.6,58.7-88.7C856.2,555.7,911.9,558.4,901.9,604.6z" class="color8347E5 svgShape"/><path fill="#77552a" d="M886.4 643.8c.7 3.9 2.9 6.8 5.1 6.5 2.2-.4 3.4-3.8 2.7-7.8-.7-3.9-2.9-6.8-5.1-6.5C886.9 636.4 885.7 639.8 886.4 643.8zM895.3 628.6c.4.2-4-4.4-6.5-4.5-2.5-.1-5-.1-5.5 1.6-.5 1.6-.8 3.8.6 3.6C885.4 628.9 891.4 626.9 895.3 628.6z" class="color322A77 svgShape"/><path fill="#ffffff" d="M884.7,639.2c0.2,1.3,1.3,2.3,2.4,2.1c1.1-0.2,1.9-1.4,1.6-2.7c-0.2-1.3-1.3-2.3-2.4-2.1       C885.3,636.6,884.5,637.9,884.7,639.2z" class="colorFFF svgShape"/><path fill="#77552a" d="M841.8 649.9c.3 3.8 2.6 6.7 5.1 6.5 2.5-.2 4.3-3.4 4-7.2-.3-3.8-2.6-6.7-5.1-6.5C843.3 642.9 841.5 646.1 841.8 649.9zM847.9 631.4c0 0 1.1 2.8.6 3.8-.5.9-4 .3-7.2 2.8-3.2 2.5-6.1 4.5-6.1 4.5s1-4.8 2.9-7.8C840.1 631.7 847.2 628.8 847.9 631.4z" class="color322A77 svgShape"/><path fill="#ffffff" d="M840.5,646.3c0.2,1.3,1.4,2.1,2.7,1.9c1.3-0.2,2.2-1.4,2-2.7s-1.4-2.1-2.7-1.9       C841.2,643.8,840.3,645,840.5,646.3z" class="colorFFF svgShape"/><path fill="#fb600a" d="M867.6,700.4c1.7,1,3.6,1.8,5.7,2.4c5.6,1.6,10.6,0.3,13.9-2.9c2.6-2.5,4.3-6,4.7-10.3        c0.1-1.5-1.1-2.9-2.3-2.6c-0.1,0-0.2,0-0.4,0.1c-2.3,1-6,2.3-11.1,2.5c-6.7,0.3-15.4-2.7-19.1-3c-1.3-0.1-2,0.1-1.8,0.9        C857.9,690.2,860.6,696.4,867.6,700.4z" class="colorCE4556 svgShape"/><path fill="#ffffff" d="M859,686.7l0.8,2.8c0.2,0.6,6.9,3.5,15.2,3.4c8.3-0.1,12.9-2.3,14-2.7c0.5-0.2,0.6-1.6,0.5-3        c-0.1,0-0.2,0-0.4,0.1c-2.3,1-6,2.3-11.1,2.5C871.4,690,862.8,687,859,686.7z" class="colorFFF svgShape"/><path fill="#f2a87c" d="M867.6 700.4c1.7 1 3.6 1.8 5.7 2.4 5.6 1.6 10.6.3 13.9-2.9-2.9-3.4-8.1-4.9-13.3-3.4C871.4 697.3 869.2 698.7 867.6 700.4zM874 649.7c-2 2.9-3.6 6.3-1.6 9.6 2.1 3.5 11.7 7.3 5.1 11.8-1.9 1.3.4 4 2.3 2.7 3.1-2.1 4.5-6 2.7-9.4-2.6-5-10.4-5.6-5.6-12.6C878.3 649.9 875.3 647.8 874 649.7L874 649.7z" class="colorF27C85 svgShape"/><path fill="#e58247" d="M839.7,616.6c-0.4,0.2-0.9,0.4-1.3,0.6c0.3-0.3,0.7-0.6,1-0.9L839.7,616.6z" class="color8347E5 svgShape"/><path fill="#f2a87c" d="M873 727.9c-.6.1-1.2.2-1.7.3C871.8 728.1 872.4 728 873 727.9zM848.2 835.4c-61.6-2.7-92.3-66.1-92.3-66.1s7.2-3.7 14-10.1c10.8 12.8 29 31.5 49.5 40.1 23.8 10 34-22.1 37.8-40.2 4.3 3.3 10.8 6.3 17 8.7 11 12.6 25.6 28 25.6 28S909.8 838.1 848.2 835.4z" class="colorF27C85 svgShape"/><path fill="#fbb890" d="M1325.9 1785.7c-4 .5-144.3-.5-156.4-3.7-12.1-3.2-14.2-13.5-11.9-27.4 2.3-14 10.7-36.4 12.1-48.9 1.4-12.5-28.1-116.7-30-166.9 0-.7 0-1.4-.1-2-1.7-48.5 3.2-59 3.2-59h75.4c0 0-.2 15.5-.3 38.7-.4 66.8-.8 197 2.6 200.7 4.7 5 19.1 8 40.6 20.7 21.4 12.7 30.5 25.9 49.7 27.7 19.1 1.7 18.4-1.7 21 3C1334.3 1773.2 1329.8 1785.2 1325.9 1785.7zM1135.1 1785.7c-4 .5-144.3-.5-156.4-3.7-12.1-3.2-14.2-13.5-11.9-27.4 2.3-14 10.7-36.4 12.1-48.9 1.3-11.7-24.7-104.5-29.4-157.3-.3-3.4-.5-6.6-.6-9.6-1.9-50.2 3.1-61 3.1-61h75.4c0 0-.3 31.1-.5 70.9-.3 69.4-.1 165.4 2.8 168.5 4.7 5 19.1 8 40.6 20.7 21.4 12.7 30.5 25.9 49.7 27.7 19.1 1.7 18.4-1.7 21 3C1143.5 1773.2 1139.1 1785.2 1135.1 1785.7z" class="colorFFB2A8 svgShape"/><path fill="#f2a87c" d="M952 1477.7h75.4c0 0-.3 31.1-.5 70.9-25.3.9-51.3.8-77.4-.2-.3-3.4-.5-6.6-.6-9.6C947.1 1488.5 952 1477.7 952 1477.7zM1218.2 1477.7c0 0-.2 15.5-.3 38.7-23.9 8-50 14.9-78.3 20.3-1.7-48.5 3.2-59 3.2-59H1218.2z" class="colorF27C85 svgShape"/><path fill="#8b693f" d="M1328.9 1801.1h-160.2c-4.7 0-8.5-3.8-8.5-8.5v-2.3c0-4.7 3.8-8.5 8.5-8.5h160.2c4.7 0 8.5 3.8 8.5 8.5v2.3C1337.4 1797.3 1333.6 1801.1 1328.9 1801.1zM1229.5 1781.8c0 0 23.4-48.5 24.9-47.7 1.5.8 35.9 16 36.6 20.4.7 4.5-2.5 27.3-2.5 27.3H1229.5z" class="color473F8B svgShape"/><path fill="#ffffff" d="M1238.3,1478.2c0,2.9-80,29.3-126.8,27.3c-19.6-0.8-40.6-3.3-60.2-5.5c-6.5-0.7-12.8-1.4-18.9-1.9       c-19.5-1.8-36.4-2.4-47.7,0.6c-17.1,4.6-31.5,8.3-42.3,6.1c-5.3-1.1-9.8-3.6-13.3-8c-10.7-13.7-61.4-188.3-61.4-188.3       l-107-16.3c0,0-58.5-11.7-64.4-81c-5.9-69.3,29.9-102.7,29.9-145.6c0-3.5,0-7.4,0-11.7c0-1.4,0-2.9,0-4.4v-0.2       c-0.3-12.7-1-29.3-2.6-45.7c-3.3-33.8-38.3-127.2-38.3-127.2c0.6-23.3,13.9-31.6,29.3-29.1c-1.2-5.4-2.3-10.7-3.3-15.9       c-6.2-30.8-9.4-55.5-9.4-55.5l57.4-17.4c1.3-0.4,2.7,0,3.7,0.9c11.5,11.4,82.3,80.8,87.7,74.5c5-5.8,8.2-61,9-77.7       c0.1-2.4,2.5-4.1,4.8-3.4c19.6,5.8,95.5,28.3,99.3,31.3c4.4,3.4,64.6,165.3,61.3,177c-0.7,2.4-4,5.2-8.9,8.1       c-18.3,10.8-58.3,22.7-58.3,22.7s-2.5,8.8-5.1,18.6c-2.6,9.7-5.3,20.4-6,24.3c-0.1,0.4-0.1,0.7-0.1,1c-0.4,4.6,2,53.4,9.2,72.4       c0,0,0,0,0,0c1.2,3.1,2.5,5.4,3.9,6.6c0.5,0.4,1.4,0.9,2.8,1.5h0c2.6,1.2,6.7,2.8,12,4.8c13.1,4.8,33.6,11.8,57.1,19.8       c67.9,23.2,160.6,55.3,170.6,70.9c3.1,4.8,6.3,17.7,9.5,35.5C1225.1,1320.7,1238.3,1475.9,1238.3,1478.2z" class="colorFFF svgShape"/><path fill="#ffa30f" d="M937.4 864.2c0 0 5.4 34.1 16.1 53.6 10.7 19.5 12.2 45.2 4.4 74.1l25.6-8.5c0 0-4.6-33.7-23.1-65.6C942 885.9 937.4 864.2 937.4 864.2zM1184.7 1219.7c-3.9 6.8-162.2 18.5-159.6 25.4 1.9 5 20 167.1 26.3 254.9-6.5-.7-12.8-1.4-18.9-1.9-6-86.6-11.7-235.3-21.3-244.2-12.7-11.7-126.8-1.9-128.8 7.8-1.5 7.7 41.6 173 60.1 243.1-5.3-1.1-9.8-3.6-13.3-8-10.7-13.7-61.4-188.3-61.4-188.3l-8.7-67.3C859 1241.2 1188.6 1212.9 1184.7 1219.7zM795.7 1025.6l-64.1 31.2c0 0-.2-.1-.5-.3-.8-.4-2.4-1.3-4.7-2.6 0 0-.1 0-.1-.1 0-1.4 0-2.9 0-4.4v-.2c-.3-12.7-1-29.3-2.6-45.7-3.3-33.8-38.3-127.2-38.3-127.2.6-23.3 13.9-31.6 29.3-29.1-1.2-5.4-2.3-10.7-3.3-15.9 18.7 12.5 39.8 27.4 39.8 27.4s-2.3 2.7-5.7 6.7C739.1 873 729 885 723 893.3c-2.7 3.7-4.6 6.6-5 8-1.1 3.6-5.2 42.5 8.6 75.9 4.3 10.4 10.3 20.2 18.6 28.3C756.8 1016.8 773.1 1024.6 795.7 1025.6z" class="colorE4DEFA svgShape"/><path fill="#ffa30f" d="M756.1,839.9c0,0-13,78.3-45.2,111.1l-18.2-54.6L756.1,839.9z" class="colorE4DEFA svgShape"/><path fill="#fbb890" d="M720.7,873.2c-13.4,0.2-28.8-1.6-45.1,2.8c0,0,0,0,0,0c0,0-0.1,0-0.1,0c-2.6,0.7-5.3,1.6-8,2.6         c-11.1,4.5-23.4,6.3-36.1,7.1c-2.5,0.2-4.9,0.3-7.4,0.3c-7.5,0.2-15,0.2-22.5,0.1c-1.1,0-2.1,0-3.2,0         c-13.5-0.1-26.5,0.1-37.9,2.4c-31.2,6.2-83.3,1.9-88.7-20.2c-0.4-1.6-0.4-4-0.1-7C475.4,823,531.5,680.7,541,676         c10.2-5.1,35-37.4,41.9-39.8c6.9-2.4,29.6,21.7,30.8,27.4c0.7,3.6-2.5,13.4-5.9,21.2c-1.1,2.4-2.1,4.6-3.1,6.5         c-1,1.8-1.9,3.2-2.6,3.9c-1.8,1.8-9.7,2.8-18.4,3.9h0c-9.7,1.2-20.4,2.4-24.3,5c-7.2,4.8-1.9,4.9-2.8,24.9         c-0.7,14.1-0.9,49.6-1.2,70.4l0,1.1c-0.1,8.1-0.1,13.8-0.2,14.8c-0.2,3.5,5.3-0.5,21.8-2.1c1.3-0.1,2.7-0.3,4.2-0.6         c7.3-1.4,16.6-4.7,26.7-8.5c1.8-0.7,3.6-1.4,5.5-2.1c7.4-2.8,15.7,4.1,23.1,1.5c0.1,0-0.5-9.9-0.4-9.9         c5.1-1.8,12.8,15.2,17.4,14c3.7-1,6.2-12.8,10-13.3c14.4-2,28.3-8.7,42.3-9.1l6,35.8L720.7,873.2z" class="colorFFB2A8 svgShape"/><polygon fill="#f2a87c" points="555.1 815.1 537.3 825.3 555.3 799.3" opacity=".54" class="colorF27C85 svgShape"/><path fill="#f2a87c" d="M572.2,672.6c0,0,15.4-12.6,18.6-10.9c3.2,1.7,9.3,12.6,9.4,13.4c0.1,0.9-16.6,23.9-16.6,23.9        s10.4-20.4,9-22.9c-1.4-2.5-4.5-9.5-5.4-9.4C586.3,666.8,572.2,672.6,572.2,672.6z" class="colorF27C85 svgShape"/><path fill="#fbb890" d="M583.6,699.1c0,0,17.7,1.7,20.9,0.3c3.1-1.5,11.6-11.7,10.5-12.5c-1.1-0.8-18.6-5.7-21.5-1.7          C590.7,689.2,583.6,699.1,583.6,699.1z" class="colorFFB2A8 svgShape"/><polygon fill="#f2a87c" points="597.9 678.9 607.7 684.8 593.5 685.2" class="colorF27C85 svgShape"/><path fill="#f2a87c" d="M720.7,873.2c-13.4,0.2-28.8-1.6-45.1,2.8c0,0,0,0,0,0c0,0-0.1,0-0.1,0        c-2.6,0.7-5.3,1.6-8,2.6c-11.1,4.5-23.4,6.3-36.1,7.1c-2.5,0.2-4.9,0.3-7.4,0.3c-7.5,0.2-15,0.2-22.5,0.1        c-14.7-0.1-28.8-0.1-41.1,2.4c-31.2,6.2-83.3,1.9-88.7-20.2c-0.4-1.6-0.4-4-0.1-7c13.4,8.3,30.3,13,39.4,10.6        c17-4.4,26.2-46.7,26.2-46.7l17.8-10.1c-0.4,0.8-33.6,65.6-17.4,61.6c7.9-1.9,33.3-5.5,60.6-10.6c7.4-1.4,14.9-2.8,22.3-4.4        c10.5-2.2,20.6-4.7,29.4-7.3c9.3-2.8,17.1-5.7,22.5-8.9c8.8-5.1,23.5-14.5,39.4-25L720.7,873.2z" opacity=".54" class="colorF27C85 svgShape"/><path fill="#ffffff" d="M665.7,884.7c0,0-0.2,0-0.6,0l-3.5-77.4L665.7,884.7z" class="colorFFF svgShape"/><path fill="#ffffff" d="M723.1,887.3c-8.2,4.4-17.4,7.4-26.7,8.6c-37.9,4.9-70,5.4-70,5.4c-0.7-4.2-1.5-9.4-2.3-15.1        c-0.5-3.4-1-7-1.5-10.8c-0.6-4.4-1.2-9-1.9-13.6c-3.5-25.9-6.9-53.4-7.2-60c0-0.8,0-1.3,0-1.5c1-2.3,5.5-2.6,12-4.2        c1.3-0.3,5.2-1.4,10.7-2.8c0.1-0.1,0.3-0.1,0.4-0.1c6.9-1.8,16.1-4.3,25.6-6.8c20.6-5.5,42.2-11.2,42.2-11.2s7.7-0.5,17.4,3.9        c0,0,0,0,0,0c10,4.6,22.2,14.6,30.4,36C764.2,846.9,748,873.8,723.1,887.3z" class="colorFFF svgShape"/><path fill="#ffa30f" d="M723.1,887.3c-8.2,4.4-17.4,7.4-26.7,8.6c-37.9,4.9-70,5.4-70,5.4c-0.7-4.2-1.5-9.4-2.3-15.1        c-0.5-3.4-1-7-1.5-10.8c45.9-5.7,118.3-26.5,121.5-56.8c1.8-17.5-9.9-30.6-22.3-39.4c10,4.6,22.2,14.6,30.4,36        C764.2,846.9,748,873.8,723.1,887.3z" class="colorE4DEFA svgShape"/><path fill="#f2a87c" d="M624,886.1c-7.5,0.2-15,0.2-22.5,0.1c-1.1,0-2.1,0-3.2,0l9.5-82.4c1.8-0.7,3.6-1.4,5.5-2.1        c0.3,6.6,3.7,34.1,7.2,60c0.6,4.6,1.3,9.2,1.9,13.6C623,879.1,623.5,882.7,624,886.1z" class="colorF27C85 svgShape"/><path fill="#fbb890" d="M1220,1243.5c-2,3.2-5.2,0.7-5.2,0.7s-1.1,2.2-3,3.2c-1,0.5-2.2,0.6-3.6-0.2c-3.9-2.3-3.9-2.3-3.9-2.3        s-1.8,3.4-5.9,1.9c-4.2-1.5-6.2-7.5-6.2-7.5s-5-16.6-7.4-20.8c-2.3-4.1-7.7-9.2-7.9-9.4c0.2,0.7,5.6,26.5,2.3,26.9        c-3.4,0.5-2.8,2.3-5.7-2c-2.9-4.3-4.3-13.7-15.7-18.7c-11.4-5-24.6-9.2-34.3-18.3c-6.9-6.4-10.1-9.8-11.7-11.5c0,0,0,0,0,0        c-0.6-0.7-1-1.1-1.2-1.2c-0.7-0.6-32.3-17.5-78.9-43.5c-0.1-0.1-0.2-0.1-0.3-0.1c-11.8-6.5-25.3-14.9-39-23.9h0c0,0,0,0,0,0        c-9.9-6.5-19.9-13.3-29.5-20c-5.1-4.8-9.2-10-10.5-15.1c-1.7-7-3.8-26.5-5.6-47c0.6-3.5,2.8-12.2,5.1-20.8        c0.3-1.2,0.6-2.3,0.9-3.5c2.6-9.8,5.1-18.6,5.1-18.6s6.8-2.3,16-5.6c10.4-3.7,23.9-8.6,34.5-13c0,3.3,0.2,7.6,0.6,12.4v0        c1.9,23.3,7.7,59.8,9.1,65.9c0.1,0.5,0.3,1,0.5,1.6c3.6,8.4,20.2,24.9,25.5,30.1c0.1,0.1,0.2,0.2,0.3,0.2        c0.2,0.2,0.4,0.3,0.5,0.5c0.6,0.5,0.9,0.8,0.9,0.8c8.2,7.8,15,14.4,19.1,18.7c20.1,20.7,45.6,47.2,50.5,48.9        c4.9,1.7,55.5,16.7,58.3,17.7c2.8,1,42.7,27,43.5,28C1218.2,1199.1,1222,1240.3,1220,1243.5z" class="colorFFB2A8 svgShape"/><path fill="#f2a87c" d="M1203.9 1245.9c-.4-.1-.6-.5-.6-1 1-25.7-14.5-36.8-14.7-37-.4-.3-.5-.9-.2-1.4.3-.5.9-.6 1.4-.3.2.1 16.5 11.9 15.5 38.7 0 .6-.5 1-1 1C1204.1 1245.9 1204 1245.9 1203.9 1245.9zM1214.4 1245.2c-.4-.1-.6-.5-.6-.9 0-22.5-8.4-36.7-8.5-36.9-.3-.5-.1-1.1.3-1.4.5-.3 1.1-.2 1.3.3.4.6 8.8 14.8 8.8 38 0 .6-.4 1-1 1.1C1214.6 1245.3 1214.5 1245.3 1214.4 1245.2z" class="colorF27C85 svgShape"/><path fill="#ffa30f" d="M867.6,1307.3c-0.2-2.5-0.6-9-1.4-17.1l-0.1-0.7l-3.9-48.6c-1.1,0.1-2.2,0.2-3.3,0.2       c-0.6-2.1-1.3-3.6-2-4.6c-1.6-2.2-1.9,0.1-1.5,4.8c-20.4,1.1-36.6-1.1-49.5-5.2c-50.2-16-50.5-61.7-46-66.6       c5.8-6.3,102.3-31,102.3-31l112.3-17.4c-5.3-2-9.4-3.6-12-4.8h0c-24,3.3-87.5,11.9-100.5,12.2c0,0-54.2,11.5-93.7,14.2       c-37.5,2.6-17.3-54.7-15.1-60.5c0,0,0-0.1,0-0.1c6.4-0.4,168.9-10.9,175.4-10.2c4.9,0.5,20,24.4,27.3,36.3       c-7.2-19-9.6-67.8-9.2-72.4c0.3-2.8,3.3-14.6,6.1-25.3c-13.7,5.1-35.8,11-69.5,13.8c-37.3,3.1-66.2,3.7-87.6,1.2       c-22.6-1-38.9-8.8-50.6-20.1c-8.3-8.1-14.3-17.9-18.6-28.3c0.1,14.9,0.1,29.6,0,43.1c0,0.6,0,1.2,0,1.8c0,3.6-0.1,7.2-0.1,10.6       c0,0.7,0,1.4,0,2.2c0,0.7,0,1.4,0,2.1c0,0.7,0,1.4,0,2.1c0,1.1,0,2.1,0,3.2c0,0.5,0,1,0,1.5c0,0.5,0,1,0,1.5c0,0.8,0,1.7,0,2.5       c0,0.2,0,0.3,0,0.5c0,0.4,0,0.8,0,1.1v0.2c0,1.5,0,2.9,0,4.4c0,4.3-0.1,8.3-0.1,11.8c0,42.9-35.8,76.3-29.9,145.6       c5.8,69.3,64.4,81,64.4,81l80.1,12.2c15.9,3.7,26.9,4.1,26.9,4.1l-0.1-0.7L867.6,1307.3z" class="colorE4DEFA svgShape"/><path fill="#f2a87c" d="M1009.1,985.8L1009.1,985.8l-57.2,28.3c0.3-1.2,0.6-2.3,0.9-3.5c2.6-9.8,5.1-18.6,5.1-18.6       s30.5-10.3,50.5-18.6C1008.4,976.7,1008.7,980.9,1009.1,985.8z" class="colorF27C85 svgShape"/><path fill="#f2a87c" d="M1111.7,1185.7c-0.6-0.7-1-1.1-1.2-1.2c-0.7-0.6-32.3-17.5-78.9-43.5       c-0.1-0.1-0.2-0.1-0.3-0.1c-11.8-6.5-25.3-14.9-39-23.9h0c0,0,0,0,0,0c-9.9-6.5-19.9-13.3-29.5-20c-5.1-4.8-9.2-10-10.5-15.1       c-1.7-7-3.8-26.5-5.6-47c0.6-3.5,2.8-12.2,5.1-20.8c0.3-1.2,0.6-2.3,0.9-3.5c2.6-9.8,5.1-18.6,5.1-18.6s6.8-2.3,16-5.6       c-1.6,22.6-5.4,78.9-3.9,78.9c1.8,0,22.2-12.5,48.8-12c0,0-35.9,5.9-40.3,15.3c-4.5,9.4,31.3,44.6,73.2,71.7       c41.8,27.1,47.9,23.2,50.3,25.8C1104.2,1168.7,1111.5,1185.2,1111.7,1185.7z" opacity=".73" class="colorF27C85 svgShape"/><path fill="#8b693f" d="M1138.1 1801.1H978c-4.7 0-8.5-3.8-8.5-8.5v-2.3c0-4.7 3.8-8.5 8.5-8.5h160.2c4.7 0 8.5 3.8 8.5 8.5v2.3C1146.6 1797.3 1142.8 1801.1 1138.1 1801.1zM1038.8 1781.8c0 0 23.4-48.5 24.9-47.7 1.5.8 35.9 16 36.6 20.4.7 4.5-2.5 27.3-2.5 27.3H1038.8z" class="color473F8B svgShape"/><g><path fill="#77552a" d="M1006.7,1059.8c13.1,19.3,31.5,35.7,53.7,40.5c21.5,4.6,44.7-2,58.7-20.9c13.3-18.1,16.9-42.6,14-65      c-3.6-28-15.7-53.6-26.4-79c-22.1-52.6-43.4-106.7-51.1-164.4c-6.7-50.6-2.1-105,21-150.3c6-11.8,13.4-22.4,21.2-32.8      c7.9-10.4,16-20.7,22.2-32.5c11.6-22.2,16.1-48.4,13-73.7c-0.7-6-1.9-12-3.5-17.8c-0.5-2-3.4-1.1-2.8,0.8      c6.8,24.6,5.7,51.3-3,75.2c-9.1,25.1-27.8,43.2-41.6,65.1c-25.6,40.8-34.2,91.5-31.7,140c2.8,54.4,19.7,106.6,39.3,156.2      c10.3,26,22.3,51.3,31.6,77.7c8.4,23.8,13.4,49.7,6.7,74.7c-3,10.9-8.1,21.2-15.7,29.1c-8,8.4-18.5,13.4-29.5,15.1      c-23.4,3.5-45.8-8-62.1-25.6c-4.1-4.4-7.8-9.2-11.2-14.2C1008.1,1056.5,1005.5,1058.1,1006.7,1059.8L1006.7,1059.8z" class="color322A77 svgShape"/><path fill="#ffa30f" d="M1195.9,204.9h-133.3c-11.3,0-20.5,9.2-20.5,20.5v204.1c0,11.3,9.2,20.5,20.5,20.5h133.3       c11.3,0,20.5-9.2,20.5-20.5V225.4C1216.4,214.1,1207.2,204.9,1195.9,204.9z M1173.7,229.4c-1.3,1.4-3.2,2.2-5.3,2.2h-78.4       c-4.1,0-7.5-3.3-7.5-7.5c0-2.1,0.8-3.9,2.2-5.3c1.4-1.3,3.2-2.2,5.3-2.2h78.4c4.1,0,7.5,3.4,7.5,7.5       C1175.9,226.2,1175.1,228,1173.7,229.4z" class="colorE4DEFA svgShape"/><rect width="46.8" height="17.6" x="1105.9" y="450" fill="#f5d7c5" class="colorD1C5F5 svgShape"/><path fill="#f1b693" d="M1203.9,354.7v56.9c0,13-10.5,23.5-23.5,23.5h-102.2c-13,0-23.5-10.5-23.5-23.5v-68.3       c0-1.6,0.5-3.1,1.6-4.3c4.3-5.1,17.3-16.9,38.5-4.8c26.3,15.1,42.9-23.4,72.2-2c16.1,11.8,25.7,15.2,31,15.9       C1201.3,348.5,1203.9,351.3,1203.9,354.7z" class="colorB293F1 svgShape"/><path fill="#ffffff" d="M1181.8,375.6h-105.1c-3.4,0-6.2-2.8-6.2-6.2V258c0-3.4,2.8-6.2,6.2-6.2h105.1c3.4,0,6.2,2.8,6.2,6.2       v111.4C1188,372.8,1185.3,375.6,1181.8,375.6z" class="colorFFF svgShape"/><polygon fill="#f1b693" points="1145.8 280.8 1132 280.8 1132 267 1121.7 267 1121.7 280.8 1107.9 280.8 1107.9 291.1 1121.7 291.1 1121.7 304.9 1132 304.9 1132 291.1 1145.8 291.1" class="colorB293F1 svgShape"/><rect width="75.6" height="2.4" x="1089" y="319.8" fill="#f5d7c5" class="colorD1C5F5 svgShape"/><rect width="75.6" height="2.4" x="1089" y="329" fill="#f5d7c5" class="colorD1C5F5 svgShape"/><rect width="75.6" height="2.4" x="1089" y="338.3" fill="#f5d7c5" class="colorD1C5F5 svgShape"/><rect width="75.6" height="2.4" x="1089" y="347.6" fill="#f5d7c5" class="colorD1C5F5 svgShape"/><rect width="75.6" height="2.4" x="1089" y="356.8" fill="#f5d7c5" class="colorD1C5F5 svgShape"/><path fill="#ffffff" d="M990.2,1055.6c0,0,6.9-5.1,16-7.9c9.1-2.8,13.4-3.1,15-1.9c1.6,1.2,8.9,11.4,8,12.6      c-0.9,1.2-13.9,2-23,5.3c-9.1,3.3-8.8,5.3-10.2,4.7C994.5,1067.8,989.6,1057.1,990.2,1055.6z" class="colorFFF svgShape"/><path fill="#f5d7c5" d="M1310,173.6h-212.6c-4.6,0-8.4-3.8-8.4-8.4v-0.8c0-4.6,3.8-8.4,8.4-8.4H1310c4.6,0,8.4,3.8,8.4,8.4v0.8      C1318.4,169.9,1314.6,173.6,1310,173.6z" class="colorD1C5F5 svgShape"/><rect width="11.3" height="45.4" x="1121.2" y="173.6" fill="#77552a" class="color322A77 svgShape"/></g><g><path fill="#fbb890" d="M1388.9,639.3c0,0-37-22.7-40.4-28.2c-3.4-5.5-13.6-29-11.5-36.2c2.1-7.2,8-9,8-9s0.1-6.9,2.8-9        c2.7-2.1,6.1-2.7,6.1-2.7s-1.9-3.3,1-4.8c2.9-1.5,4.5-1.5,4.5-1.5s2.8-4.6,4.5-5.6c1.7-1,17.1,2.7,18,3.5        c0.9,0.8,5.2,8.4,5.2,8.4s5.3-1.9,8.5-0.8c3.1,1.1,6.7,11.8,6.7,11.8s-0.7,22.7-0.5,25.3c0.2,2.6,10.8,14.9,10.7,16.1        c-0.2,1.1-0.6,9.6-10.9,22S1388.9,639.3,1388.9,639.3z" class="colorFFB2A8 svgShape"/><path fill="#f2a87c" d="M1381.1 562.4c0 0-.1.1-.1.1-.3.1-.7 0-.8-.3-4.3-10.1-20.7-13.8-20.9-13.8-.3-.1-.5-.4-.4-.7.1-.3.4-.5.8-.5.7.2 17.2 3.9 21.7 14.5C1381.4 561.9 1381.3 562.2 1381.1 562.4zM1377.1 571.2C1377.1 571.2 1377.1 571.2 1377.1 571.2c-.4.2-.8.1-.9-.2-5.8-11-22.4-16.2-22.5-16.3-.3-.1-.5-.4-.4-.7.1-.3.5-.5.8-.4.7.2 17.2 5.4 23.2 16.8C1377.4 570.7 1377.3 571 1377.1 571.2zM1368.9 575.1C1368.9 575.1 1368.9 575.1 1368.9 575.1c-.3.2-.7.2-.9-.1-4.8-6.3-22.9-8.5-23.1-8.5-.3 0-.6-.3-.5-.7.1-.3.4-.6.7-.5.8.1 18.8 2.3 23.9 9C1369.2 574.5 1369.1 574.9 1368.9 575.1z" class="colorF27C85 svgShape"/><path fill="#f2a87c" d="M1386.6 573.3c-2 1.6-4.3 2.7-6.4 2.6-1.7 0-3-.9-3.8-2.4-2.5-4.8 9-18.3 10.3-19.8.2-.3.6-.3.9-.1.3.2.3.6.1.8-3.4 3.9-11.9 15-10.1 18.5.6 1.2 1.5 1.8 2.8 1.8 2.9.1 6.6-2.7 8.4-5.3 2.9-4.2 4-5.4 4.1-5.5.2-.3.6-.3.9-.1.3.2.3.6.1.8 0 0-1.1 1.3-4 5.4C1388.9 571.2 1387.8 572.4 1386.6 573.3zM1370.4 591.4c-1.4 1.1-2.7 1.6-3.9 1.4-2.4-.3-4.2-3.6-5.7-6.1-.5-.8-.9-1.6-1.2-2-.9-1.2-6.4-2.2-9.6-2.5-.3 0-.6-.3-.5-.7.1-.3.4-.6.7-.5.9.1 9 1 10.5 3 .4.5.8 1.3 1.3 2.1 1.3 2.2 3 5.3 4.8 5.6 1 .1 2.3-.5 3.6-1.7 1.5-1.4 2.5-3.3 2.3-4.5-.4-2.6-4.9-11.1-5-11.1-.2-.3 0-.6.3-.8.3-.2.7-.1.8.2.2.4 4.7 8.7 5.1 11.5.3 2-1.3 4.2-2.7 5.5C1370.9 591 1370.6 591.2 1370.4 591.4z" class="colorF27C85 svgShape"/><path fill="#f2a87c" d="M1378.5,582.1c-0.1,0.1-0.2,0.2-0.3,0.2c-3.1,2-6.9-1.1-7.1-1.2c-0.3-0.2-0.3-0.6,0-0.8       c0.2-0.3,0.6-0.3,0.9-0.1c0,0,3.3,2.6,5.6,1.2c2.4-1.5,2.3-6,2.3-6c0-0.3,0.3-0.6,0.6-0.6c0.3,0,0.6,0.2,0.6,0.5       C1381,575.5,1381.1,580.1,1378.5,582.1z" class="colorF27C85 svgShape"/><path fill="#ffffff" d="M1650.2,670c0,0-96.9,102.5-105.7,104.5c-4.1,0.9-10.8,1-18.6-0.1c-8.6-1.2-18.5-3.7-27.7-7.8      c-17.4-7.8-111.9-102.7-117.3-112.8c-5.4-10.2,33.5-54.6,42.9-58.5c9.4-3.9,84.8,78.7,91.5,79.2c6.7,0.5,68.1-130.8,73.1-138.7      c5.1-7.8,40.6-26.7,40.6-26.7l7.5,57L1650.2,670z" class="colorFFF svgShape"/><path fill="#ffa30f" d="M1650.2,670c0,0-96.9,102.5-105.7,104.5c-4.1,0.9-10.8,1-18.6-0.1      c30.9-10.4,34.4-36.1,27.5-53.6c-9.8-24.9-38.1-46.4-38.1-46.4s11.8,1.9,29.2,22.1c17.4,20.2,22.8,36.1,22.8,36.1l41-156.6      l28.2-10L1650.2,670z" opacity=".6" class="colorE4DEFA svgShape"/><path fill="#77552a" d="M1910.3,1689c-5.6,9.7-32.5,40.7-54.5,45c-8,1.6-15.3-0.4-20.7-8.2c-1.4-2-2.8-5-4.3-9.1       c-20.9-55.5-55.4-295.2-76.3-430.3c-22.5-144.9-37.1-227.4-42.6-203c0,0.1-0.1,0.2-0.1,0.4c-0.1,0.7-0.3,1.6-0.4,2.7       c-5.3,40.1-9,331.9-14,446.1c-5.2,117.8-12.7,175.6-18.7,177.7c-5.9,2.2-66,19.1-80.6-7.8c-0.9-1.7-1.8-6.4-2.6-13.6       c-0.5-4.5-1-10-1.4-16.5c-10.5-145.4-10.2-756-10.2-756s12-147.2,53.5-177.1c23.3-16.8,86.2,23.4,138.8,85       c12,14.1,11.1-44.4,21.2-31.9c24.3,30.2,32.3,43.7,32.3,43.7s34.8,307.3,30.1,391.7C1855.1,1312.4,1917.9,1675.8,1910.3,1689z" class="color322A77 svgShape"/><path fill="#543c1e" d="M1594,1672.5c0.5,6.4,1,11.9,1.5,16.5c0.8,7.2,1.7,11.9,2.6,13.6       c14.6,26.9,74.6,9.9,80.6,7.8c5.9-2.1,13.5-59.9,18.7-177.7c5-114.2,8.7-406,14-446.1c0.1-1.1,0.3-2,0.4-2.7l-1.1-15.6       c0,0-15.6-32.3-17.6-39.6c-2-7.3,0,0,0,0l0,0c0,0-10.1,44-17.3,64.5c-7.2,20.5-28.3,109.5-28.2,177.4       c0.2,67.9-8.3,129.2-9.9,209.2C1636.3,1546.6,1615.8,1640.5,1594,1672.5z" opacity=".57" class="color221E54 svgShape"/><path fill="#543c1e" d="M1595.5 1689c.8 7.2 1.7 11.9 2.6 13.6 14.6 26.9 74.6 9.9 80.6 7.8 5.9-2.1 13.5-59.9 18.7-177.7 5-114.2 8.7-406 14-446.1-.4-11.7-.7-18.2-.7-18.2l-17.6-39.6c0 0-1.9 70.5-12.6 106.3-10.7 35.8-3.3 160.2-4.6 225.7-1.3 65.5-14.2 132.4-5.8 185.7C1677.6 1593.7 1653.3 1672.7 1595.5 1689zM1913.1 1781.5c-.7 16.4-21.4 23.1-39.4 17.4-17.9-5.7-39.6 9.6-62.9 6.7-23.3-2.8-46.6-6.5-45.5-19.7.9-10.8 3.5-25.1 11.5-31.4 1.8-1.4 3.9-2.4 6.3-2.8 13-2.4 38.8-17.4 50.9-28.5.5-.5 1-.9 1.5-1.4 6.1-5.7 10.3-10.9 13.3-14.8 4.7 3 7.9 7.2 5.8 12.7-5.3 13.8 15.1-12.5 27-16.5 6.2-2.1 15-10.1 24-7.6.3 4.9 2.8 19.6 3.5 23.1C1912.6 1736.9 1913.7 1765.1 1913.1 1781.5z" class="color221E54 svgShape"/><path fill="#543c1e" d="M1855.8 1763.8c-18.9 12.2-50.5 8.6-71.2-.3-4.8-2.1-7.1-5.3-7.8-9.1 1.8-1.4 3.9-2.4 6.3-2.8 13-2.4 38.8-17.4 50.9-28.5.5-.5 1-.9 1.5-1.4 8.5 18.9 16.1 9.9 34.6 10.5C1890 1732.9 1874.7 1751.6 1855.8 1763.8zM1669.9 1780c-1.7 17.1-21.1 22.7-37.2 15.6-16.1-7.1-36.9 7.4-58.1 2.9-21.2-4.5-42.3-9.8-40.4-23.6 1.5-11.2 4.9-26 12.6-32 1.7-1.3 3.7-2.2 5.9-2.6 12.1-1.7 36.7-15.6 48.5-26.4.5-.4 1-.9 1.5-1.4 6-5.6 10.1-10.7 13.1-14.6 4.1 3.5 6.8 8 4.5 13.6-5.7 14.1 14.7-12 25.8-15.5 5.9-1.8 15.7 1.3 23.8 4.5 0 5.1.1 9.8.4 13.5C1672.3 1733.4 1671.6 1762.9 1669.9 1780z" class="color221E54 svgShape"/><path fill="#543c1e" d="M1618.5 1757.8c-18.1 11.5-46.9 5.7-65.3-5-4.3-2.5-6.2-6-6.6-10 1.7-1.3 3.7-2.2 5.9-2.6 12.1-1.7 36.7-15.6 48.5-26.4.5-.4 1-.9 1.5-1.4 6.5 20.3 14.1 11.4 31 13.2C1651.9 1727.7 1636.6 1746.3 1618.5 1757.8zM1910.3 1689c-5.6 9.7-32.5 40.7-54.5 45 18.8-56.6-.5-385.5-16.7-433.9-17.4-51.9-7.7-64.1-13.6-152.7-5.9-88.5-69.1-316-69.1-316s15.8-3 22.6-26.2c12 14.1 21.1-18.2 31.2-5.7 24.3 30.2 19.7 36.7 19.7 36.7s34.8 307.3 30.1 391.7C1855.1 1312.4 1917.9 1675.8 1910.3 1689z" class="color221E54 svgShape"/><path fill="#fbb890" d="M1762.5,513.7l-90.2,82.1l-20-76.1c0,0,41-46.4,35.9-82.9c-2-14.7,8.2-28.3,21.6-37.5           c19.9-13.8,46.8-18,50.8-2.3c0,0-16.7,43.6-7.4,80.2C1762.5,513.7,1762.5,513.7,1762.5,513.7z" class="colorFFB2A8 svgShape"/><path fill="#f2a87c" d="M1750.5,411.6c0,0-16.4,62.9-51.3,84.2c-1.1,0.6-2.2,1.3-3.4,1.8l-23.6-5.7c0,0,20.9-18.6,16-55.1         c-2-14.7,8.2-28.3,21.6-37.5C1734.3,400.8,1750.5,411.6,1750.5,411.6z" class="colorF27C85 svgShape"/><path fill="#543c1e" d="M1636.9,368.7c0,0-23-4.7-30.9-20.9c-8-16.3,5.7-22.7,5.7-22.7s-15-7.4-11.1-32.6         c3.9-25.3,29.4-14,29.4-14s-5.7-11.9-3.3-22.3c2.4-10.4,14.7,8,14.7,8s-5.1-28,25.8-34.3s49.3,14.6,49.3,14.6         s25.4-25.5,34-19.3c8.6,6.2-10.2,19.4-10.2,19.4s28.2-5.8,39.4,9.3c11.3,15.2,0.6,27.8,0.6,27.8s17.6,1.1,18,9.1         c0.5,8-12.5,9.8-12.5,9.8s22,7.6,17.5,24.3c-4.5,16.7-8.2,19.6-8.2,19.6s13.7,22.4,4.9,32.9c-8.9,10.6-17.7,12-17.7,12         s-3,28.7-16.4,28.6c-13.4-0.1-21.8-19-21.8-19L1636.9,368.7z" class="color221E54 svgShape"/><path fill="#fbb890" d="M1775.1,376.8c1.2,9.3-18.2,19.8-18.2,19.8s-6.3,27.1-9.3,35.9c-2.4,6.8-43.5,20.6-66.2,25.7           c0,0-0.1,0-0.1,0c-15.9,2.8-14.3-10.1-22.9-18.6c-8.9-8.9-19.9-33.9-20.6-35.4c0-0.1,0-0.1,0-0.1c-0.9-3.4-1.6-6.4-1.9-8.9           c-2-17.6,3.6-26.2-3.4-35.9c-7-9.8-1.9-32-1.9-32l21.6-2.9c0,0,10.1,9.4,36,6.4c25.9-2.9,45.9-15.2,49.8-14           c3.9,1.3-0.6,29.3,0.7,38.1c1.3,8.8-3.3,15.4,4.7,14.9c8-0.5,13.3-19.1,23.5-17.5C1776.9,353.9,1774,367.5,1775.1,376.8z" class="colorFFB2A8 svgShape"/><path fill="#543c1e" d="M1657.1 373.8c.6 4-1.1 7.6-3.9 8-2.7.4-5.4-2.6-6-6.6-.6-4 1.1-7.6 3.9-8C1653.8 366.8 1656.5 369.7 1657.1 373.8zM1705.6 369.3c.6 4-1.1 7.6-3.9 8-2.7.4-5.4-2.6-6-6.6-.6-4 1.1-7.6 3.9-8C1702.3 362.3 1705 365.3 1705.6 369.3z" class="color221E54 svgShape"/><path fill="#f2a87c" d="M1666.2,381.2c6.3,7.7-4.1,10.8-4.8,17.5c-0.5,4.3,3.3,4.1,5.3,6.7c1.6,2,4.4-0.6,2.8-2.6         c-1-1.3-4.1-2.4-4-4.3c0.1-0.9,2.2-3.1,2.7-3.7c1-1.3,2.1-2.7,2.9-4.1c2.4-4.2,0.7-8.5-2.2-12.1         C1667.4,376.5,1664.6,379.2,1666.2,381.2L1666.2,381.2z" class="colorF27C85 svgShape"/><path fill="#543c1e" d="M1640.9 361.9c-.4.3 3.2-5.6 6.3-6.5 3-.9 6-1.7 7.2-.3 1.1 1.4 2.4 3.4.5 3.7S1645.1 359.1 1640.9 361.9zM1692.9 351.8c0 0-.2 3.3.6 4.1.8.8 4.3-.9 8.5.6s7.9 2.7 7.9 2.7-2.7-4.6-5.7-7.1C1701.3 349.6 1692.8 348.9 1692.9 351.8z" class="color221E54 svgShape"/><path fill="#ffffff" d="M1657.4 368.8c.2 1.4-.8 2.6-2.2 2.8-1.4.2-2.7-.8-2.9-2.1-.2-1.4.8-2.6 2.2-2.8C1655.9 366.5 1657.2 367.4 1657.4 368.8zM1705.7 364.7c.2 1.4-.8 2.6-2.2 2.8s-2.7-.8-2.9-2.1c-.2-1.4.8-2.6 2.2-2.8C1704.1 362.4 1705.5 363.4 1705.7 364.7z" class="colorFFF svgShape"/><path fill="#fb600a" d="M1695.1,426.4c-1.7,1.6-3.8,3.1-6.3,4.5c-6.5,3.7-13.4,4.2-19.2,2.2c-4.5-1.5-8.3-4.6-10.6-8.8         c-0.9-1.5,0.1-3.3,1.8-3.5c0.2,0,0.3,0,0.5,0c3.4,0.2,8.7,0.2,15.4-1.5c8.8-2.2,18.6-8.4,23.2-10c1.6-0.6,2.6-0.6,2.7,0.3         C1703,412.5,1702.4,419.8,1695.1,426.4z" class="colorCE4556 svgShape"/><path fill="#ffffff" d="M1700,409.3l0.2,3.2c0,0.7-7.3,6.1-18,9c-10.7,2.9-17.6,2.4-19.2,2.3c-0.7,0-1.4-1.4-2-2.9         c0.2,0,0.3,0,0.5,0c3.4,0.2,8.7,0.2,15.4-1.5C1685.6,417.1,1695.4,410.9,1700,409.3z" class="colorFFF svgShape"/><path fill="#f2a87c" d="M1695.1,426.4c-1.7,1.6-3.8,3.1-6.3,4.5c-6.5,3.7-13.4,4.2-19.2,2.2c2.1-4.5,8.2-8,15.6-8.3         C1688.9,424.6,1692.3,425.2,1695.1,426.4z" class="colorF27C85 svgShape"/><path fill="#f1b693" d="M1783.9,623.8c-6.8,49-4.7,300.1-64.3,309.2c-27.3,4.1-55.1,1.6-77.3-2.4c-15.8-2.8-28.8-6.4-36.5-8.7      c-5.1-1.5-7.9-2.6-7.9-2.6l2.9-20.3l0.3-2.3l57.2-396.7l3.6-0.4l4-0.4l40.8-4.2l62-14.2C1768.8,480.8,1790.6,574.9,1783.9,623.8      z" class="colorB293F1 svgShape"/><path fill="#cc7948" d="M1666,499.3l-23.7,431.4c-15.8-2.8-28.8-6.4-36.5-8.7c-5.1-1.5-7.9-2.6-7.9-2.6l2.9-20.3      l0.3-2.3l57.2-396.7l3.6-0.4L1666,499.3z" opacity=".65" class="color6248CC svgShape"/><path fill="#cc7948" d="M1783.9,623.8c-6.8,49-4.7,300.1-64.3,309.2c-46.8,7.1-95.2-5.4-113.8-11.1l-5-22.9      l-0.4-1.7l0.7-0.6l82.5-74.5l8.7-100.2l48.1-204.1c0,0-19.6,13.2-24.7,13.2c-5.1,0-12.6-24.8-12.6-24.8s-12.1,14.5-18.2,14.5      c-4,0-15.6-12.5-23-21.1l44.9-4.7l62-14.2C1768.8,480.8,1790.6,574.9,1783.9,623.8z" opacity=".65" class="color6248CC svgShape"/><path fill="#cc7948" d="M1664.5,927.7c-0.1-0.9-11-86.9,0-197.5c11-110.5,41.9-237.3,42.2-238.6l3.7,0.9      c-0.3,1.3-31.2,127.8-42.1,238c-10.9,110.1-0.1,195.8,0,196.6L1664.5,927.7z" opacity=".65" class="color6248CC svgShape"/><path fill="#f1b693" d="M1655.3,500.1c0,0,19.6-20.1,22.6-20.5c3-0.4,28.1,12.5,30.6,12.5c2.6,0,49.7-30.7,53.9-30.8      c4.3,0,21.4,14.5,21.4,14.5s-65.1,44.2-69,42c-3.8-2.1-8.1-22.8-8.1-22.8s-15.8,14.8-20,15.9S1655.3,500.1,1655.3,500.1z" class="colorB293F1 svgShape"/><path fill="#ffffff" d="M1658.3 495c0 0-2.3 22.9-5.4 55.3-5 51.8-12.3 127.7-15.8 172.4-1.3 16.4-2.1 28.6-2.1 33.8 0 28.3-44.7 333.6-52.3 343.9-6.7 9-57.4 10.2-68.6-2.8-1.7-1.9-2.4-4.2-2.1-6.8 1.5-9.9 12.8-53.7 24.7-99.8 12.2-47.2 24.9-96.7 28.1-114.4 1.6-8.8 3.7-22.3 5.9-37.6 6.4-44.1 13.8-103.1 14.4-107.6 0 0 0-.1 0-.1 0 0 0-.1 0-.1 0 0 0-.1 0-.1 0 0 0 0 0 0l28.7-203.8c1.2-8.2 6.5-15.3 14.1-18.4C1640.7 503.8 1658.3 495 1658.3 495zM1922.1 1083.7c-35.5 21.5-119.3 27.1-158.7 22.4-10.2-1.2-17.4-3.1-20-5.6-9.3-8.9-31-196.3-42.9-304.3-4.4-39.6-7.5-68.6-8.1-74.2-.2-1.4 0-3.5.4-6.3 0 0 0 0 0 0 6.3-41 71.2-226.3 76-234.8 2.7-4.6 7.5-9.1 14.5-11 6.7-1.8 15.5-1 26.5 4.5 0 0 63 29.7 70.5 45.7 1.9 4 1.7 21 .6 45-3.4 72.6-15.6 209.6-6 249.3 9.4 39 14.7 90.6 28.6 136.7 4.9 16.4 11 32 18.7 46.2C1951.5 1051.5 1966.8 1056.7 1922.1 1083.7z" class="colorFFF svgShape"/><path fill="#ffa30f" d="M1903.5,951.2l-45.6-81.2c-4.7-8.4-15.3-11.2-23.5-6.4c-30,17.8-94.9,56.7-97.8,63.3      c-2.9,6.5,16.9,122.5,26.8,179.1c-10.2-1.2-17.4-3.1-20-5.6c-9.3-8.9-31-196.3-42.9-304.3c28-15.6,57.7-43.2,68.3-43.5      c88.5-2,56.2-92.6,63.2-130.1c1.3-7,6.7-12.4,13.7-13.7c12.3-2.3,10.4-43.6,35.2-43.7c-3.4,72.6-15.6,209.6-6,249.3      C1884.3,853.5,1889.6,905.1,1903.5,951.2z" class="colorE4DEFA svgShape"/><polygon fill="#ffffff" points="1783.3 730.3 1723.9 738.8 1722.7 730.3 1782.1 721.8" class="colorFFF svgShape"/><path fill="#ffa30f" d="M1792.3 960.9c0 0 12.3 0 23 0 10.6 0 51.1-15 52.3-15s13.6 29.2 10.2 34.8c-3.4 5.6-65.1 20.6-70.2 18.5C1802.5 997 1787.7 963 1792.3 960.9zM1658.3 495c0 0-15.5 155.1-21.2 227.7-5.2-33.8-15-98.9-15-106.1 0-9.8 16.6-28.8 19.1-39.1 2.6-10.3-7.7-25.8-7.7-33.5S1658.3 495 1658.3 495zM1759.1 552.6c0 3.4 6 52.4 6 52.4l-72.3 110.7c6.3-41 71.2-226.3 76-234.8 2.7-4.6 7.5-9.1 14.5-11 1.2 12.8 4.7 52.5 4.7 56.1C1788.1 530.2 1759.1 549.1 1759.1 552.6z" class="colorE4DEFA svgShape"/><path fill="#ffa30f" d="M1788.3,963.5c0,0,18.6,80.9,27.9,84c9.3,3.1,82.6-18.4,80.2-16c-2.4,2.5-81.9,29.4-86,24.2      C1806.3,1050.6,1788.3,963.5,1788.3,963.5z" class="colorE4DEFA svgShape"/><path fill="#f27a38" d="M1578.9,663.8c0,2,0.3,4,0.9,6l76.7,242.6l1.9,6c2.9,9.1,12,14.6,21.2,12.8l85.4-16.1l71.7-13.5       c10.9-2.1,17.7-13.3,14.5-24L1786.8,660l-0.4-1.4c0,0,0,0,0,0l-12.2-41.5c-0.1-0.3-0.2-0.6-0.3-0.9c-1.3-3.7-3.6-6.8-6.6-8.9       c-2.7-2-5.9-3.2-9.2-3.6c-2.1-0.2-4.3-0.1-6.4,0.5l-29.6,7.7l-63.8,16.7l-8.3,2.2l-34.8,9.1l-22,5.8       C1584.5,647.9,1579,655.5,1578.9,663.8z" class="colorF23868 svgShape"/><path fill="#d17705" d="M1655 812.8l110 102.4 71.7-13.5c10.9-2.1 17.7-13.3 14.5-24l-64.7-219c.4 2.5 15 95.3 8.4 98.7-6.7 3.4-86.8 32.6-97.7 32.9C1686.3 790.5 1655 812.8 1655 812.8zM1578.9 663.8c14.1-3.4 26.2-6 27.4-5.2 3 2 15.9 27.2 15.9 27.2s115.1-32.2 113.6-34.4c-1.4-2.3.4-19.9-.8-22.5-.8-1.7 22.6-8.4 38.8-12.7-3.2-9.2-12.9-14.5-22.3-12l-158.7 41.5C1584.5 647.9 1579 655.5 1578.9 663.8z" opacity=".47" class="colorAF1B45 svgShape"/><path fill="#8b693f" d="M1614,637.2l0.9,2.8l6.1,19.2c2,6.4,8.7,10.1,15.1,8.4l83.3-22.9c7.1-1.9,11-9.6,8.4-16.6l-5.9-16.1       l-1.8-4.9c-2.2-6.1-8.6-9.5-14.8-7.8l-44.9,11.9l-15.8,4.2l-21.8,5.8C1615.8,623,1611.8,630.3,1614,637.2z" class="color473F8B svgShape"/><path fill="#d17705" d="M1656.4,912.4l1.9,6c2.9,9.1,12,14.6,21.2,12.8l85.4-16.1l71.7-13.5       c10.9-2.1,17.7-13.3,14.5-24l-64.7-219c0,0,0,0,0,0l-12.2-41.5c-0.1-0.3-0.2-0.6-0.3-0.9c-2.5-7.1-8.8-11.8-15.8-12.5       l22.4,278.1L1656.4,912.4z" opacity=".47" class="colorAF1B45 svgShape"/><path fill="#fbb890" d="M1743.6,808.5c0,0-8.5,3.7-21.4-0.8c-12.9-4.5-30.6-4.9-29.7-1.2c0.9,3.7,13.8,7.5,13.8,7.5         s-17-1.8-25.3-1c-8.4,0.8-32.6-9.7-32.7-6.2s0.8,7.9,2.9,9.5c2.1,1.6,18.5,8.4,24.6,9.4c6.1,1,19.4,0.8,19.4,0.8l-24.4,1.1         c0,0-24-10-23.1-6.3c0.9,3.7,6.1,11.3,9.7,12.9c3.6,1.6,21.6,4.1,25.7,4.8c4.1,0.7,11.6,0.5,11.6,0.5s-10.8,2-15.8,1.8         c-5.1-0.2-25.9-5.4-24.9-3.5c1,1.9,2.2,10,10.4,12.2s26.5,5.6,35.3,4.6c8.8-1,14.3-3,14.3-3s-2.7,5.7-9.9,7.1         c-7.1,1.4-16.3-4.2-16.5-0.6c-0.1,3.5,6.2,8.5,12.7,8.8c6.5,0.3,27.4-5.6,29.6-7.1c2.2-1.5,16.4-11.3,20.3-14         C1754.2,842.7,1750.9,806.1,1743.6,808.5z" class="colorFFB2A8 svgShape"/><path fill="#ffffff" d="M1953.3,783.1c0,0.4,0,0.8-0.1,1c-0.7,4.6-17.7,13.3-41.3,23.3c-19.1,8.1-42.7,16.9-65.8,25.1       c-2.5,0.9-5.1,1.8-7.6,2.7h0c-22.8,8-44.6,15-60.4,19.7c-13.3,3.9-22.3,6.1-24.1,5.7c-2.8-0.7-6-5.1-9.2-11.2       c-5.6-10.9-10.7-27.3-12.3-39.4c-0.3-2.2-0.5-4.3-0.5-6.1c-0.1-6.8,17.8-14.7,40.1-22.7c14.7-5.3,31.2-10.6,45.7-15.5l0,0       c12.3-4.2,23.2-8.3,30.1-11.9c4.7-2.4,7.6-4.7,8-6.7c0.3-1.6,0.1-4.3-0.5-8c-0.8-5.3-2.4-12.6-4.4-21.2       c-8.9-37.5-26.8-98.5-28.1-119c-1.4-21.4,32-54.8,48.6-70c5.4-5,9.1-8,9.1-8c1.6,2.8,2.2,4.8,3,7.2c0.6,1.7,1.2,3.6,2.4,6.3       c18.4,39.9,37.8,108.3,51,163.6c4,16.9,7.5,32.5,10.1,45.8c3.7,18.6,5.9,32.4,6,38.3C1953.4,782.4,1953.4,782.7,1953.3,783.1z" class="colorFFF svgShape"/><path fill="#ffa30f" d="M1953.3,783.1c0,0.4-0.1,0.7-0.1,1c-0.7,4.6-17.7,13.3-41.3,23.3       c-19.1,8.1-42.7,16.9-65.8,25.1c-2.5,0.9-5.1,1.8-7.6,2.7h0c-22.8,8-44.6,15-60.4,19.7c-13.3,3.9-22.3,6.1-24.1,5.7       c-2.8-0.7-6-5.1-9.2-11.2c-5.6-10.9-10.7-27.3-12.3-39.4c-0.3-2.2-0.5-4.3-0.5-6.1c0,0,1.3,2.5,3.4,6.1       c4.1,7.2,11.1,18.6,16.4,23.5c1.5,1.4,2.9,2.3,4,2.3c1.4,0.1,9-1.3,20.4-4c14.5-3.4,35.1-8.8,56.6-15.8c0,0,0,0,0,0       c4.3-1.4,8.6-2.9,12.9-4.4c43.3-15.2,86.3-36.5,87.6-60.5c0.7-11.8-2-30.3-6.4-51.6c-13.4-64.6-42.7-154.4-43.3-156.2       c18,39,37.7,102.7,51.5,154.9c4.5,17.2,8.5,33.1,11.5,46.5c4,18,6.5,31.5,6.6,37.3C1953.4,782.4,1953.4,782.7,1953.3,783.1z" opacity=".6" class="colorE4DEFA svgShape"/></g></g><g><path fill="#ffa30f" d="M944.4,447.7h-336c-10.5,0-19-8.5-19-19V210.8c0-10.5,8.5-19,19-19h336c10.5,0,19,8.5,19,19v217.8     C963.4,439.2,954.9,447.7,944.4,447.7z" class="colorE4DEFA svgShape"/><path fill="#ffffff" d="M938.8,441.6H614c-10.5,0-19-8.5-19-19V216.9c0-10.5,8.5-19,19-19h324.8c10.5,0,19,8.5,19,19v205.8     C957.8,433.1,949.3,441.6,938.8,441.6z" class="colorFFF svgShape"/><path fill="#ffffff" d="M642.4,279.3l1.7,1.5c0,0,0,0,0,0l26.4,23.2l4.2,3.7l2,1.7l0.9,0.8c-0.3-0.3-0.6-0.6-0.9-0.9      c-0.6-0.6-1.2-1.2-1.9-1.8c-0.8-0.8-1.7-1.6-2.6-2.5c-0.4-0.4-0.8-0.7-1.1-1.1c-0.1-0.1-0.2-0.2-0.3-0.3      c-0.1-0.1-0.2-0.2-0.2-0.2c-1.1-1.1-2.3-2.2-3.4-3.3c-0.1-0.1-0.3-0.3-0.4-0.4c-0.5-0.5-0.9-0.9-1.4-1.4      c-0.1-0.1-0.2-0.2-0.3-0.3c-0.6-0.6-1.1-1.1-1.7-1.7c-0.1-0.1-0.1-0.1-0.2-0.2c-0.5-0.5-1-1-1.4-1.5c-0.1-0.1-0.3-0.3-0.4-0.4      c-0.5-0.5-1-1-1.4-1.5c0,0-0.1-0.1-0.1-0.1c-0.5-0.5-1-1.1-1.5-1.6c-0.1-0.1-0.2-0.2-0.3-0.4c-0.4-0.4-0.7-0.9-1.1-1.3      c-0.1-0.1-0.2-0.3-0.3-0.4c-0.5-0.5-0.9-1-1.3-1.5c0,0-0.1-0.1-0.1-0.1c-0.4-0.5-0.7-0.9-1.1-1.4c-0.1-0.1-0.2-0.2-0.2-0.3      c0,0,1.5-1.5,4.8-3.1c0.5-0.2,0.9-0.5,1.5-0.7c-1.2-1.3-2.3-2.5-3.3-3.7c-0.2-0.3-0.5-0.6-0.7-0.9c-0.7-0.9-1.4-1.8-2.1-2.6      c0,0,2.9-2.8,9.5-5.1c4.4-1.5,10.5-2.8,18.4-2.8c5.6,0,10.6,1.1,14.8,2.7c4.5,1.7,8.2,4,10.8,6.1c-1.6,2.2-3.8,4.6-6.2,7.1      c0.6,0.3,1.2,0.7,1.8,1c1.6,1,3,1.9,4.2,2.9c-1.5,2-3.5,4.2-5.7,6.5l12.9-9.2l1.8-1.3c0.4-1.2,0.7-2.5,1.1-3.6      c-0.4-1-0.7-2-1.1-2.9c0-0.1-0.1-0.3-0.2-0.4c-0.7-1.7-1.3-3.2-1.8-4.4c-0.2-0.5-0.4-1-0.6-1.4c-0.3-1-0.7-1.9-1.3-2.6      c0,0,0,0,0-0.1c0-0.1-0.1-0.2-0.2-0.4c0-0.1-0.1-0.2-0.2-0.3c-0.4-0.7-1.2-1.9-2.6-3.3c-0.1-0.1-0.1-0.1-0.2-0.2      c-3.9-4-11.9-9.3-26.9-9.3c-15.4,0-24.9,4.8-29.6,8.1c-0.1,0.1-0.3,0.2-0.4,0.3c-1.7,1.2-2.7,2.2-3.2,2.7      c-0.2,0.2-0.3,0.3-0.3,0.3s0,0,0,0c0,0-0.1,0.1-0.1,0.2c-0.1,0.3-0.4,0.8-0.8,1.4c-1,1.9-2.7,5.4-4.4,9.5c0,0.1-0.1,0.2-0.1,0.3      C643.1,277.6,642.7,278.5,642.4,279.3z" class="colorFFF svgShape"/><path fill="#d17705" d="M646.8,263.5c0.1,1,0.5,2.2,1.1,3.4c0.8,1.4,1.8,2.9,2.9,4.2c0,0,0,0,0,0c1.5,1.9,3,3.3,3.1,3.5       c0,0,0,0,0,0c0,0,2.9-2.8,9.5-5.1c4.4-1.5,10.5-2.8,18.4-2.8c5.6,0,10.6,1.1,14.8,2.7c4.5,1.7,8.2,4,10.8,6.1       c0.3,0.3,0.6,0.5,0.9,0.7c3,2.4,4.6,4.4,4.6,4.4s0.9-4.3,1.4-9.4c0.4-4.3,0.5-9.1-0.5-12.4c0,0,0,0,0,0c-0.3-1-0.7-1.9-1.2-2.6       c0,0-0.1-0.2-0.3-0.5c-0.4-0.7-1.3-2.1-2.9-3.8c-3.9-4-11.9-9.3-26.9-9.3c-15.9,0-25.4,5-30,8.4c-2.4,1.7-3.5,3.1-3.5,3.1       s0,0,0,0c0,0,0,0,0,0c0,0,0,0,0,0c0,0,0,0,0,0c0,0,0,0.1-0.1,0.1c0,0.1-0.1,0.2-0.1,0.3c0,0,0,0,0,0.1       C648.1,256.2,646.6,260.1,646.8,263.5z" class="colorAF1B45 svgShape"/><path fill="#7c4f16" d="M696.6 269.5c4.5 1.7 8.2 4 10.8 6.1.3.3.6.5.9.7 3 2.4 4.6 4.4 4.6 4.4s.9-4.3 1.4-9.4c.4-4.3.5-9.1-.5-12.4 0 0 0 0 0 0-.3-1-.7-1.9-1.2-2.6 0 0-.1-.2-.3-.5-.2 1.5-.5 3-1.1 4.6-.4 1-1 1.9-1.7 2.8C706.8 266.2 702.1 268.2 696.6 269.5zM646.8 263.5c.1 1 .5 2.2 1.1 3.4.8 1.4 1.8 2.9 2.9 4.2 0 0 0 0 0 0 1.5 1.9 3 3.3 3.1 3.5 0 0 0 0 0 0 0 0 2.9-2.8 9.5-5.1-5-1.5-8.4-4.5-10.8-7.7-1.8-2.4-3-5-3.9-7.2 0 0 0 0 0 0 0 0 0 0 0 .1C648.1 256.2 646.6 260.1 646.8 263.5z" class="color7C165A svgShape"/><path fill="#f27a38" d="M618.7,388.3L618.7,388.3l19.4-6.8l6.3,13.9l0.1,0.2c0,0,4.9-27.8,30.9-51.7c0.1-0.1,0.1-0.1,0.2-0.2       c1.4-1.3,2.8-2.6,4.1-3.8c1.1-1,2.1-1.9,3.1-2.9l0,0c1-0.9,1.9-1.8,2.9-2.7c0.5-0.5,1-0.9,1.4-1.4c3.7-3.6,7.1-7,10.1-10.1       c0.6-0.6,1.1-1.1,1.6-1.7c1.8-1.9,3.5-3.7,5-5.5c7-7.9,11.7-14.6,15.2-21c4.3-8,0.6-21.3-2.8-29.9c-0.9-2.3-1.8-4.3-2.4-5.8       c0,0,0,0,0,0c-0.5-1-0.8-1.8-1.1-2.2c0,0,0-0.1,0-0.1c0,0,0,0,0,0c0-0.1-0.1-0.2-0.1-0.2c0.1,0.4,1.4,3.8-0.6,10.2       c-0.4,1.4-1,2.8-1.7,4.5c-0.6,1.4-1.6,2.9-2.9,4.6c-1.6,2.2-3.8,4.6-6.2,7.1c-4.9,5.1-11,10.7-16.5,15.7       c-1.4,1.3-2.7,2.5-4,3.7c0,0,0,0,0,0c-0.7,0.6-1.3,1.2-1.9,1.8c-1.4,1.3-2.8,2.6-3.9,3.7c0,0-0.1,0.1-0.1,0.1       c-0.6,0.6-1.1,1.1-1.6,1.6c-1.8,1.9-4,4.1-6.4,6.4c-1.7,1.7-3.5,3.5-5.4,5.5c-1.7,1.7-3.5,3.5-5.3,5.4       c-7.5,7.8-15.5,16.9-21.9,26.5C622.4,370.7,618.9,387.2,618.7,388.3C618.7,388.2,618.7,388.3,618.7,388.3       C618.7,388.3,618.7,388.3,618.7,388.3z" class="colorF23868 svgShape"/><path fill="#d17705" d="M644.4,395.4l0.1,0.2c0,0,4.9-27.8,30.9-51.7c0.1-0.1,0.1-0.1,0.2-0.2       c12.3-11.2,21.4-20.3,28.3-28.1c7-7.9,11.7-14.6,15.2-21c4.3-8,0.6-21.3-2.8-29.9c1.1,7.4,0.4,17.3-6,28.9       c-13.7,25-22.3,26.3-45.3,50.4C652.2,357.5,646.7,379,644.4,395.4z" opacity=".57" class="colorAF1B45 svgShape"/><path fill="#ffac7b" d="M618.7,388.2c5-21,24.6-44.1,37.2-58.6c0.5-0.5,1-1.1,1.5-1.7c1.5-1.7,3.2-3.4,5.1-5.3       c1.8-1.7,3.7-3.5,5.6-5.4c2.7-2.5,5.6-5.1,8.5-7.8c0,0,0,0,0,0c1.3-1.2,2.6-2.4,4-3.6c0.6-0.6,1.3-1.2,1.9-1.8c0,0,0,0,0,0       c1.4-1.3,2.7-2.5,4.1-3.8c6.2-5.8,12-11.4,16.3-16.5c2.1-2.4,3.8-4.7,5-6.8c0.1-0.2,0.2-0.4,0.3-0.5c2-3.5,3.3-6.5,4-9.1       c1.9-6.1,0.8-9.5,0.4-10.5c0,0,0-0.1,0-0.1c0,0,0,0,0,0c0-0.1-0.1-0.2-0.1-0.2c0.1,0.4,1.4,3.8-0.6,10.2       c-0.4,1.4-1,2.8-1.7,4.5c-0.6,1.4-1.6,2.9-2.9,4.6c-1.6,2.2-3.8,4.6-6.2,7.1c-4.9,5.1-11,10.7-16.5,15.7       c-1.4,1.3-2.7,2.5-4,3.7c0,0,0,0,0,0c-0.7,0.6-1.3,1.2-1.9,1.8c-1.4,1.3-2.8,2.6-3.9,3.7c0,0-0.1,0.1-0.1,0.1       c-0.6,0.6-1.1,1.1-1.6,1.6c-1.8,1.9-4,4.1-6.4,6.4c-1.7,1.7-3.5,3.5-5.4,5.5c-1.7,1.7-3.5,3.5-5.3,5.4       c-7.5,7.8-15.5,16.9-21.9,26.5C622.4,370.7,618.9,387.2,618.7,388.2z" class="colorFF7B7B svgShape"/><path fill="#d17705" d="M656,326.7l19.4,17.3c0.1-0.1,0.1-0.1,0.2-0.2c12.3-11.2,21.4-20.3,28.3-28.1       l-19.2-17.2c-4.6,4.2-8.8,8-11.6,10.9C668.8,313.8,662.6,319.7,656,326.7z" opacity=".57" class="colorAF1B45 svgShape"/><path fill="#f27a38" d="M640.5,292.6c0.6,1.3,1.3,2.5,2,3.8c0.7,1.2,1.4,2.5,2.2,3.7c0.5,0.9,1.1,1.7,1.7,2.6       c2.4,3.6,5.2,7.3,8.7,11.4c0.4,0.5,0.8,1,1.2,1.4c0.4,0.5,0.8,0.9,1.2,1.4c0,0.1,0.1,0.1,0.1,0.1c0.4,0.4,0.8,0.9,1.1,1.3       c0.8,0.9,1.6,1.8,2.5,2.8c0.4,0.5,0.9,0.9,1.3,1.4c0.8,0.9,1.7,1.8,2.6,2.8c0.5,0.5,1,1.1,1.6,1.6c0.6,0.6,1.2,1.2,1.8,1.9       c0.5,0.5,1,1,1.5,1.5c0.4,0.4,0.8,0.8,1.3,1.3c0.7,0.7,1.5,1.5,2.3,2.2c0.3,0.3,0.5,0.5,0.8,0.8c0.9,0.9,1.9,1.9,2.9,2.8       c0.8,0.8,1.7,1.6,2.6,2.5c0.2,0.2,0.3,0.3,0.5,0.5c0.4,0.4,0.8,0.8,1.2,1.2c24.9,23.9,28.4,51.8,28.4,51.8l0.2-0.5l6.9-13.7       L736,386c0,0-2.4-17-13.6-35c-1.1-1.7-2.2-3.4-3.4-5.1c-0.4-0.6-0.8-1.1-1.2-1.7c-0.4-0.6-0.8-1.1-1.2-1.7       c-0.9-1.3-1.9-2.5-2.8-3.8c-0.3-0.4-0.6-0.8-0.9-1.1c-1.7-2.2-3.4-4.3-5.1-6.3c-0.4-0.5-0.9-1-1.3-1.5c-0.4-0.5-0.9-1-1.3-1.5       c-0.9-1-1.7-2-2.6-2.9c-1.3-1.4-2.5-2.8-3.7-4.1c-1.6-1.8-3.2-3.5-4.7-5.1c-3.2-3.4-6.1-6.4-8.5-9c-0.3-0.3-0.6-0.6-0.9-0.9       c-0.6-0.6-1.3-1.3-2-2.1c0,0-0.1-0.1-0.1-0.1c-0.1-0.1-0.2-0.2-0.3-0.3c-0.5-0.5-1-1-1.6-1.5c0,0-0.1-0.1-0.1-0.1       c-0.2-0.2-0.4-0.4-0.6-0.6c-0.3-0.2-0.5-0.5-0.8-0.7c-0.5-0.5-1-1-1.5-1.5c-1-1-2.1-2-3.2-3c-0.1-0.1-0.1-0.1-0.2-0.2       c-0.4-0.4-0.9-0.9-1.3-1.3c-1.3-1.3-2.7-2.6-4.1-3.9c-0.5-0.4-0.9-0.9-1.4-1.3c-2.6-2.6-5.2-5.2-7.5-7.7       c-1.2-1.3-2.3-2.5-3.3-3.7c-0.2-0.3-0.5-0.6-0.7-0.9c-0.7-0.9-1.4-1.8-2.1-2.6c0,0,0,0,0,0c-0.1-0.1-0.1-0.2-0.2-0.3       c-0.2-0.3-0.4-0.6-0.7-0.9c-0.1-0.2-0.2-0.3-0.3-0.5c-0.5-0.7-0.9-1.4-1.3-2c-0.1-0.1-0.1-0.2-0.2-0.4       c-0.1-0.1-0.1-0.2-0.2-0.3c-0.2-0.5-0.4-0.9-0.6-1.3c-0.6-1.5-1-2.8-1.4-4c-1.5-5.6-0.7-9-0.3-10.2c0,0,0,0,0,0       c0-0.1,0.1-0.2,0.1-0.3c0-0.1,0-0.1,0.1-0.1c-0.3,0.6-2.9,5.3-5.4,11.4C640.1,274.2,637,285.5,640.5,292.6z" class="colorF23868 svgShape"/><polygon fill="#d17705" points="618.7 388.3 618.7 388.3 638.1 381.5 644 367.5" opacity=".57" class="colorAF1B45 svgShape"/><polygon fill="#d17705" points="716.9 379.2 706.8 365.7 710 392.9" opacity=".57" class="colorAF1B45 svgShape"/><path fill="#d17705" d="M655.1,314.2c6.2,7.4,14.3,15.9,25.1,26.3c0.7-1.1,1.6-2.2,2.6-3.4       c5.2-6,12.5-9.6,19.8-11.8c-6.5-7.3-12.7-13.5-17-18.1c-2.7-2.9-6.7-6.7-11-10.9c-0.6,3-2.3,6.2-5.6,9.3       C664.5,309.9,659.6,312.5,655.1,314.2z" opacity=".57" class="colorAF1B45 svgShape"/><path fill="#d17705" d="M640.5,292.6c6.2,12.7,17.3,26.4,40.9,49c24.9,23.9,28.4,51.8,28.4,51.8l0.2-0.5       c0.6-12.9-1.2-34.3-16.7-50.7c-23.7-24.9-40.3-36.3-47.2-54.1c-2.8-7.2-3.1-15.3-2.6-22.4C640.1,274.2,637,285.5,640.5,292.6z" opacity=".57" class="colorAF1B45 svgShape"/><path fill="#ffac7b" d="M648.7,265.5c0.4,1.7,1.1,3.6,2.1,5.6c0,0,0,0,0,0c1,2,2.3,4.2,4,6.6c1.2,1.6,2.5,3.2,3.8,4.8       c4.5,5.4,9.7,10.9,15.2,16.4c1.6,1.7,3.3,3.3,5,5c0.6,0.6,1.3,1.3,1.9,1.9c4,4,8.1,8,11.8,12c0.7,0.8,1.5,1.5,2.2,2.3       c0.8,0.9,1.7,1.8,2.6,2.8c1,1,1.9,2.1,3,3.2c12.5,13.6,28.5,32.3,35.7,59.9c0,0-2.4-17-13.6-35c-1.1-1.7-2.2-3.4-3.4-5.1       c-0.4-0.6-0.8-1.1-1.2-1.7c-0.4-0.6-0.8-1.1-1.2-1.7c-0.9-1.3-1.9-2.5-2.8-3.8c-0.3-0.4-0.6-0.8-0.9-1.1       c-1.7-2.2-3.4-4.3-5.1-6.3c-0.4-0.5-0.9-1-1.3-1.5c-0.4-0.5-0.9-1-1.3-1.5c-0.9-1-1.7-2-2.6-2.9c-1.3-1.4-2.5-2.8-3.7-4.1       c-1.6-1.8-3.2-3.5-4.7-5.1c-3.2-3.4-6.1-6.4-8.5-9c-0.3-0.3-0.6-0.6-0.9-0.9c-0.6-0.6-1.3-1.3-2-2.1c0,0-0.1-0.1-0.1-0.1       c-0.1-0.1-0.2-0.2-0.3-0.3c-0.5-0.5-1-1-1.6-1.5c0,0-0.1-0.1-0.1-0.1c-0.2-0.2-0.4-0.4-0.6-0.6c-0.3-0.2-0.5-0.5-0.8-0.7       c-0.5-0.5-1-1-1.5-1.5c-1-1-2.1-2-3.2-3c-0.1-0.1-0.1-0.1-0.2-0.2c-0.4-0.4-0.9-0.9-1.3-1.3c-1.3-1.3-2.7-2.6-4.1-3.9       c-0.5-0.4-0.9-0.9-1.4-1.3c-2.6-2.6-5.2-5.2-7.5-7.7c-1.2-1.3-2.3-2.5-3.3-3.7c-0.2-0.3-0.5-0.6-0.7-0.9       c-0.7-0.9-1.4-1.8-2.1-2.6c-0.1-0.1-0.1-0.2-0.2-0.3c-0.2-0.3-0.4-0.6-0.7-0.9c-0.1-0.2-0.2-0.3-0.3-0.5       c-0.5-0.7-0.9-1.4-1.3-2c-0.1-0.1-0.1-0.2-0.2-0.4c-0.1-0.1-0.1-0.2-0.2-0.3c-0.2-0.5-0.4-0.9-0.6-1.3c-0.6-1.5-1-2.8-1.4-4       c-1.5-5.6-0.7-9-0.3-10.2c0,0,0,0,0,0c0,0,0,0,0,0s0,0,0,0.1C648.5,255.4,647.1,259.3,648.7,265.5z" class="colorFF7B7B svgShape"/><circle cx="768.3" cy="254.1" r="16" fill="#ffa30f" class="colorE4DEFA svgShape"/><rect width="115.2" height="6.8" x="805" y="242.7" fill="#ffa30f" class="colorE4DEFA svgShape"/><rect width="73.9" height="6.8" x="805" y="256.4" fill="#ffa30f" class="colorE4DEFA svgShape"/><rect width="167.8" height="5.1" x="752.4" y="300.2" fill="#ffa30f" class="colorE4DEFA svgShape"/><rect width="107.6" height="5.1" x="752.4" y="310.4" fill="#ffa30f" class="colorE4DEFA svgShape"/><rect width="167.8" height="5.1" x="752.4" y="337.1" fill="#ffa30f" class="colorE4DEFA svgShape"/><rect width="107.6" height="5.1" x="752.4" y="347.3" fill="#ffa30f" class="colorE4DEFA svgShape"/><g><rect width="167.8" height="5.1" x="752.4" y="373.9" fill="#ffa30f" class="colorE4DEFA svgShape"/><rect width="107.6" height="5.1" x="752.4" y="384.1" fill="#ffa30f" class="colorE4DEFA svgShape"/></g></g><g><ellipse cx="542.8" cy="1818.7" fill="#f1b693" rx="184.2" ry="13.9" class="colorB293F1 svgShape"/><rect width="251.1" height="75.3" x="423" y="1444.8" fill="#f5d7c5" class="colorD1C5F5 svgShape"/><rect width="274.1" height="31.3" x="411.5" y="1520.2" fill="#ffa30f" class="colorE4DEFA svgShape"/><rect width="10.5" height="75.3" x="445.5" y="1444.8" fill="#f1b693" class="colorB293F1 svgShape"/><rect width="10.5" height="75.3" x="477.1" y="1444.8" fill="#f1b693" class="colorB293F1 svgShape"/><rect width="10.5" height="75.3" x="508.6" y="1444.8" fill="#f1b693" class="colorB293F1 svgShape"/><rect width="10.5" height="75.3" x="540.2" y="1444.8" fill="#f1b693" class="colorB293F1 svgShape"/><rect width="10.5" height="75.3" x="571.8" y="1444.8" fill="#f1b693" class="colorB293F1 svgShape"/><rect width="10.5" height="75.3" x="603.4" y="1444.8" fill="#f1b693" class="colorB293F1 svgShape"/><rect width="10.5" height="75.3" x="634.9" y="1444.8" fill="#f1b693" class="colorB293F1 svgShape"/><path fill="#f5d7c5" d="M714.6,1652v142.1c0,13.6-11,24.6-24.6,24.6H400.9c-13.6,0-24.6-11-24.6-24.6V1652c0-5,1.5-9.9,4.4-14     l36.8-53.2l23-33.2h210l23,33.2l36.8,53.2C713.1,1642.1,714.6,1647,714.6,1652z" class="colorD1C5F5 svgShape"/><polygon fill="#f1b693" points="673.4 1584.8 417.5 1584.8 440.5 1551.5 650.5 1551.5" class="colorB293F1 svgShape"/><path fill="#f1b693" d="M496.2,1701l55.7-8.3c8.2-1.2,16,2.2,20.8,8.3c2.3,2.9,3.9,6.5,4.5,10.5c1.8,12.2-6.6,23.6-18.8,25.4      l-55.7,8.3c-10.1,1.5-19.7-4-23.7-13c-0.8-1.8-1.4-3.7-1.7-5.8c-0.9-6.1,0.7-12,4.1-16.6C484.9,1705.2,490.1,1701.9,496.2,1701z      " class="colorB293F1 svgShape"/><path fill="#ffffff" d="M524,1696.8l27.9-4.2c8.2-1.2,16,2.2,20.8,8.3c2.3,2.9,3.9,6.5,4.5,10.5c1.8,12.2-6.6,23.6-18.8,25.4      l-27.9,4.2L524,1696.8z" class="colorFFF svgShape"/><path fill="#cc7948" d="M528.4,1725.8l2.3,15.2l-27.9,4.2c-10.1,1.5-19.7-4-23.7-13      C493.6,1733.2,510.2,1731.8,528.4,1725.8z" opacity=".56" class="color6248CC svgShape"/><path fill="#ffa30f" d="M572.7,1700.9c2.3,2.9,3.9,6.5,4.5,10.5c1.8,12.2-6.6,23.6-18.8,25.4l-27.9,4.2l-2.3-15.2      c3.2-1,6.4-2.2,9.6-3.6C552.3,1716.4,563.6,1709,572.7,1700.9z" class="colorE4DEFA svgShape"/><g><path fill="#f1b693" d="M641.9,1712l42.7,36.7c6.3,5.4,8.8,13.6,7.4,21.2c-0.7,3.7-2.4,7.2-5,10.3c-8,9.3-22.1,10.4-31.5,2.4      l-42.7-36.7c-7.8-6.7-9.8-17.6-5.6-26.4c0.8-1.8,1.9-3.5,3.3-5c4-4.7,9.5-7.3,15.2-7.7C631.4,1706.2,637.2,1707.9,641.9,1712z" class="colorB293F1 svgShape"/><path fill="#ffffff" d="M663.2,1730.3l21.4,18.4c6.3,5.4,8.8,13.6,7.4,21.2c-0.7,3.7-2.4,7.2-5,10.3c-8,9.3-22.1,10.4-31.5,2.4      l-21.4-18.4L663.2,1730.3z" class="colorFFF svgShape"/><path fill="#cc7948" d="M644.1,1752.5l-10,11.6l-21.4-18.4c-7.8-6.7-9.8-17.6-5.6-26.4      C615.8,1731.1,627.7,1742.7,644.1,1752.5z" opacity=".56" class="color6248CC svgShape"/><path fill="#ffa30f" d="M692,1769.8c-0.7,3.7-2.4,7.2-5,10.3c-8,9.3-22.1,10.4-31.5,2.4l-21.4-18.4l10-11.6c2.9,1.7,5.9,3.4,9,5      C666.9,1764.5,679.9,1768.3,692,1769.8z" class="colorE4DEFA svgShape"/></g><g><path fill="#f1b693" d="M534.5,1753.1l56.1,4.5c8.3,0.7,15.1,5.8,18.4,12.8c1.6,3.4,2.4,7.2,2,11.3c-1,12.3-11.7,21.4-24,20.5      l-56.1-4.5c-10.2-0.8-18.3-8.4-20.1-18c-0.4-1.9-0.5-3.9-0.3-6c0.5-6.1,3.4-11.5,7.8-15.2      C522.6,1754.6,528.3,1752.6,534.5,1753.1z" class="colorB293F1 svgShape"/><path fill="#ffffff" d="M562.6,1755.3l28.1,2.3c8.3,0.7,15.1,5.8,18.4,12.8c1.6,3.4,2.4,7.2,2,11.3c-1,12.3-11.7,21.4-24,20.5      l-28.1-2.3L562.6,1755.3z" class="colorFFF svgShape"/><path fill="#cc7948" d="M560.2,1784.5l-1.2,15.3l-28.1-2.3c-10.2-0.8-18.3-8.4-20.1-18      C524.7,1783.9,541.2,1786.2,560.2,1784.5z" opacity=".56" class="color6248CC svgShape"/><path fill="#ffa30f" d="M609.1,1770.3c1.6,3.4,2.4,7.2,2,11.3c-1,12.3-11.7,21.4-24,20.5l-28.1-2.3l1.2-15.3      c3.3-0.3,6.7-0.7,10.2-1.3C585.6,1780.8,598.4,1776.1,609.1,1770.3z" class="colorE4DEFA svgShape"/></g><g><path fill="#f1b693" d="M452.4,1722.2l25.1,50.4c3.7,7.4,2.9,15.9-1.4,22.4c-2.1,3.1-5,5.8-8.6,7.5c-11,5.5-24.4,1-29.9-10      l-25.1-50.4c-4.6-9.2-2.2-20,5.1-26.5c1.5-1.3,3.1-2.5,5-3.4c5.5-2.7,11.6-3,17-1.2C445,1712.8,449.7,1716.7,452.4,1722.2z" class="colorB293F1 svgShape"/><path fill="#ffffff" d="M465,1747.4l12.5,25.2c3.7,7.4,2.9,15.9-1.4,22.4c-2.1,3.1-5,5.8-8.6,7.5c-11,5.5-24.4,1-29.9-10      l-12.5-25.2L465,1747.4z" class="colorFFF svgShape"/><path fill="#cc7948" d="M438.7,1760.4l-13.7,6.8l-12.5-25.2c-4.6-9.2-2.2-20,5.1-26.5      C421,1729.7,427.4,1745,438.7,1760.4z" opacity=".56" class="color6248CC svgShape"/><path fill="#ffa30f" d="M476,1795c-2.1,3.1-5,5.8-8.6,7.5c-11,5.5-24.4,1-29.9-10l-12.5-25.2l13.7-6.8c2,2.7,4.1,5.4,6.4,8.1      C455,1780.3,465.6,1788.9,476,1795z" class="colorE4DEFA svgShape"/></g></g><g><circle cx="1393.8" cy="386.9" r="66.5" fill="#fef7f3" class="colorF4F3FE svgShape"/><polygon fill="#ae6100" points="1429.4 377.2 1403.5 377.2 1403.5 351.3 1384.1 351.3 1384.1 377.2 1358.3 377.2 1358.3 396.6 1384.1 396.6 1384.1 422.4 1403.5 422.4 1403.5 396.6 1429.4 396.6" class="color00AE42 svgShape"/></g><g><circle cx="1068.9" cy="613" r="52.5" fill="#fef7f3" class="colorF4F3FE svgShape"/><polygon fill="#ae6100" points="1096.9 605.4 1076.5 605.4 1076.5 585 1061.2 585 1061.2 605.4 1040.8 605.4 1040.8 620.7 1061.2 620.7 1061.2 641.1 1076.5 641.1 1076.5 620.7 1096.9 620.7" class="color00AE42 svgShape"/></g><g><polygon fill="#e58247" points="489.3 604.1 496.1 603.2 489.2 554.7 546.9 571.5 548.9 564.9 480.9 545.1" class="color8347E5 svgShape"/><circle cx="547.9" cy="568.2" r="21.9" fill="#ffffff" transform="rotate(-45.001 547.906 568.225)" class="colorFFF svgShape"/><circle cx="492.7" cy="603.6" r="16.6" fill="#f27a38" transform="rotate(-14.117 492.7 603.765)" class="colorF23868 svgShape"/><circle cx="485.1" cy="549.9" r="16.6" fill="#f1b693" transform="rotate(-48.847 485.061 549.851)" class="colorB293F1 svgShape"/></g><path fill="#ffa30f" d="M805.6,940.5c-0.5-0.9-1-1.7-1.6-2.6c-0.2-0.3-0.4-0.6-0.6-0.8c-0.2-0.3-0.4-0.6-0.6-0.8    c-0.4-0.6-0.9-1.3-1.4-1.9c-0.1-0.2-0.3-0.4-0.4-0.6c-0.8-1.1-1.6-2.1-2.4-3.1c-0.2-0.3-0.4-0.5-0.6-0.8c-0.2-0.2-0.4-0.5-0.6-0.7    c-0.4-0.5-0.8-1-1.2-1.5c-0.6-0.7-1.2-1.4-1.8-2.1c0.2-0.3,0.4-0.5,0.7-0.8c0.2-0.2,0.4-0.4,0.5-0.6c0.3-0.3,0.5-0.6,0.8-0.9    c0.1-0.2,0.3-0.3,0.4-0.5c2-2.4,3.6-4.5,4.9-6.5c0.9-1.4,1.7-2.7,2.3-4c0.8-1.7,1-3.8,0.9-6c-0.3-3.1-1.3-6.5-2.2-9c0,0,0,0,0,0    c0,0,0,0,0,0c-0.4-1.2-0.8-2.2-1.2-2.9c0,0,0,0,0,0c-0.1-0.5-0.3-1-0.6-1.3c0,0,0-0.1-0.1-0.2c-0.2-0.4-0.6-1.1-1.4-1.9    c-1.9-2-5.7-4.7-12.8-4.6c-7.6,0-12.1,2.5-14.3,4.2c-1.1,0.9-1.7,1.5-1.7,1.5s0,0,0,0c0,0,0,0,0,0c0,0,0,0,0,0c0,0,0,0,0,0    c-0.2,0.3-1.4,2.6-2.6,5.7c-1.6,4.2-3.1,9.9-1.4,13.4c0.3,0.6,0.6,1.3,1,1.9c0.3,0.6,0.7,1.2,1,1.9c0.3,0.4,0.5,0.9,0.8,1.3    c1.1,1.8,2.5,3.7,4.1,5.7c0.2,0.2,0.4,0.5,0.6,0.7c0.2,0.2,0.4,0.5,0.6,0.7c0,0,0,0,0.1,0.1c0.2,0.2,0.4,0.4,0.5,0.7    c0.4,0.5,0.8,0.9,1.2,1.4c-0.4,0.5-0.9,0.9-1.3,1.4c-0.4,0.4-0.8,0.8-1.2,1.3l0,0c-3.6,3.9-7.4,8.5-10.4,13.3    c-5.6,8.8-7.2,17-7.3,17.5c0,0,0,0,0,0l0,0l0,0c0,0,0,0,0,0h0l9.2-3.4l3,7l0,0.1c0,0,0.1-0.6,0.4-1.7c1.1-4.1,4.6-14.7,14.3-24.1    c0,0,0,0,0.1-0.1c0,0,0,0,0,0c0.7-0.7,1.3-1.3,2-1.9c0.1,0.1,0.2,0.2,0.2,0.2c0.2,0.2,0.4,0.4,0.6,0.6    c11.9,11.9,13.5,25.9,13.5,25.9l0.1-0.2l3.3-6.8l9.1,3.4C812,958,810.9,949.5,805.6,940.5z M798.4,902.8c-0.8,1.1-1.8,2.3-3,3.6    c-2.3,2.6-5.2,5.3-7.9,7.9c0,0,0,0,0,0l0,0c-0.6,0.5-1.1,1.1-1.7,1.6c-0.1,0.1-0.2,0.2-0.3,0.2c0,0,0,0,0,0    c-0.1-0.1-0.2-0.2-0.3-0.3c-0.1-0.1-0.2-0.2-0.4-0.4c-0.2-0.2-0.5-0.5-0.7-0.7c-0.5-0.5-1-1-1.5-1.5c0,0-0.1-0.1-0.1-0.1    c-0.2-0.2-0.4-0.4-0.6-0.6c-0.6-0.6-1.3-1.3-1.9-2c-0.2-0.2-0.4-0.4-0.7-0.7c-1.3-1.3-2.5-2.6-3.6-3.8c-0.6-0.6-1.1-1.3-1.6-1.9    c-0.1-0.1-0.2-0.3-0.3-0.4c-0.4-0.4-0.7-0.9-1-1.3c0,0,1.4-1.4,4.5-2.5c2.1-0.8,5-1.4,8.8-1.4c2.7,0,5,0.6,7,1.4    C795.4,900.7,797.2,901.8,798.4,902.8z" class="colorE4DEFA svgShape"/><g><path fill="#ffffff" d="M1862.3,596.8l0.8,0.4c0,0,0,0,0,0l12.1,6.1l1.9,1l0.9,0.5l0.4,0.2c-0.1-0.1-0.3-0.2-0.4-0.2     c-0.3-0.2-0.6-0.3-0.9-0.5c-0.4-0.2-0.8-0.5-1.2-0.7c-0.2-0.1-0.4-0.2-0.5-0.3c-0.1,0-0.1-0.1-0.2-0.1c0,0-0.1,0-0.1-0.1     c-0.5-0.3-1.1-0.6-1.6-0.9c-0.1,0-0.1-0.1-0.2-0.1c-0.2-0.1-0.4-0.3-0.7-0.4c-0.1,0-0.1-0.1-0.2-0.1c-0.3-0.2-0.5-0.3-0.8-0.5     c0,0-0.1,0-0.1-0.1c-0.2-0.1-0.5-0.3-0.7-0.4c-0.1,0-0.1-0.1-0.2-0.1c-0.2-0.2-0.5-0.3-0.7-0.4c0,0,0,0-0.1,0     c-0.2-0.2-0.5-0.3-0.7-0.5c-0.1,0-0.1-0.1-0.2-0.1c-0.2-0.1-0.4-0.3-0.5-0.4c-0.1,0-0.1-0.1-0.2-0.1c-0.2-0.2-0.4-0.3-0.6-0.5     c0,0,0,0-0.1,0c-0.2-0.1-0.4-0.3-0.5-0.4c0,0-0.1-0.1-0.1-0.1c0,0,0.4-0.9,1.4-2c0.1-0.2,0.3-0.3,0.5-0.5     c-0.6-0.4-1.1-0.7-1.6-1.1c-0.1-0.1-0.2-0.2-0.4-0.3c-0.4-0.3-0.7-0.5-1-0.8c0,0,0.7-1.6,2.8-3.5c1.4-1.3,3.4-2.7,6.3-3.8     c2-0.8,3.9-1,5.6-1c1.8,0.1,3.4,0.5,4.6,1c-0.3,1.2-0.8,2.5-1.4,3.9c0.3,0.1,0.5,0.1,0.8,0.2c0.7,0.2,1.3,0.4,1.8,0.6     c-0.3,1.1-0.8,2.3-1.3,3.6l3.6-5.8l0.5-0.8c0-0.6,0-1.2,0-1.7c-0.2-0.4-0.5-0.7-0.7-1.1c0-0.1-0.1-0.1-0.1-0.2     c-0.4-0.6-0.8-1.2-1.2-1.6c-0.1-0.2-0.3-0.3-0.4-0.5c-0.2-0.4-0.5-0.7-0.7-0.9c0,0,0,0,0,0c0,0-0.1-0.1-0.1-0.1     c0,0-0.1-0.1-0.1-0.1c-0.2-0.2-0.7-0.6-1.3-1c0,0-0.1,0-0.1-0.1c-1.8-1.1-5.3-2.3-10.7-0.1c-5.5,2.2-8.4,5.6-9.7,7.7     c0,0.1-0.1,0.1-0.1,0.2c-0.5,0.8-0.7,1.3-0.8,1.6c0,0.1-0.1,0.2-0.1,0.2s0,0,0,0c0,0,0,0.1,0,0.1c0,0.1-0.1,0.4-0.1,0.7     c-0.1,1-0.4,2.7-0.5,4.7c0,0.1,0,0.1,0,0.2C1862.3,596,1862.3,596.4,1862.3,596.8z" class="colorFFF svgShape"/><path fill="#d17705" d="M1862.1,589.4c0.1,0.4,0.4,0.9,0.8,1.3c0.4,0.5,1,1,1.5,1.4c0,0,0,0,0,0c0.8,0.6,1.4,1,1.5,1.1      c0,0,0,0,0,0c0,0,0.7-1.6,2.8-3.5c1.4-1.3,3.4-2.7,6.3-3.8c2-0.8,3.9-1,5.6-1c1.8,0.1,3.4,0.5,4.6,1c0.1,0.1,0.3,0.1,0.4,0.2      c1.4,0.6,2.1,1.2,2.1,1.2s-0.2-2-0.6-4.2c-0.3-1.9-0.9-3.9-1.6-5.2c0,0,0,0,0,0c-0.2-0.4-0.5-0.7-0.7-0.9c0,0,0-0.1-0.1-0.2      c-0.2-0.2-0.7-0.7-1.5-1.2c-1.8-1.1-5.3-2.3-10.7-0.1c-5.7,2.3-8.5,5.8-9.8,7.9c-0.7,1.1-0.9,1.8-0.9,1.8s0,0,0,0c0,0,0,0,0,0      c0,0,0,0,0,0c0,0,0,0,0,0c0,0,0,0,0,0.1c0,0,0,0.1,0,0.1c0,0,0,0,0,0C1861.7,586.1,1861.6,588,1862.1,589.4z" class="colorAF1B45 svgShape"/><path fill="#7c4f16" d="M1880.6 584.9c1.8.1 3.4.5 4.6 1 .1.1.3.1.4.2 1.4.6 2.1 1.2 2.1 1.2s-.2-2-.6-4.2c-.3-1.9-.9-3.9-1.6-5.2 0 0 0 0 0 0-.2-.4-.5-.7-.7-.9 0 0 0-.1-.1-.2.1.6.2 1.4.1 2.1 0 .5-.1 1-.3 1.4C1883.9 582 1882.5 583.5 1880.6 584.9zM1862.1 589.4c.1.4.4.9.8 1.3.4.5 1 1 1.5 1.4 0 0 0 0 0 0 .8.6 1.4 1 1.5 1.1 0 0 0 0 0 0 0 0 .7-1.6 2.8-3.5-2 .1-3.5-.7-4.7-1.7-.9-.8-1.7-1.7-2.2-2.5 0 0 0 0 0 0 0 0 0 0 0 0C1861.7 586.1 1861.6 588 1862.1 589.4z" class="color7C165A svgShape"/><path fill="#f27a38" d="M1866.1,646.8L1866.1,646.8l6.2-5.7l3.8,5.1l0.1,0.1c0,0-1.4-12.6,5.2-26.5c0,0,0-0.1,0-0.1      c0.4-0.8,0.7-1.5,1.1-2.2c0.3-0.6,0.5-1.1,0.8-1.7l0,0c0.2-0.5,0.5-1.1,0.7-1.6c0.1-0.3,0.2-0.5,0.4-0.8c0.9-2.1,1.8-4,2.5-5.8      c0.1-0.3,0.3-0.6,0.4-1c0.4-1.1,0.8-2.1,1.2-3.1c1.6-4.4,2.6-7.9,3.1-11.1c0.6-4.1-2.2-9.2-4.4-12.4c-0.6-0.9-1.1-1.6-1.5-2.1      c0,0,0,0,0,0c-0.3-0.4-0.5-0.6-0.6-0.8c0,0,0,0,0,0c0,0,0,0,0,0c0,0-0.1-0.1-0.1-0.1c0.1,0.1,0.9,1.4,0.9,4.4      c0,0.6,0,1.4-0.1,2.2c-0.1,0.7-0.3,1.5-0.5,2.4c-0.3,1.2-0.8,2.5-1.4,3.9c-1.2,2.9-2.7,6.1-4.2,9.1c-0.4,0.7-0.7,1.5-1,2.2      c0,0,0,0,0,0c-0.2,0.4-0.3,0.7-0.5,1c-0.4,0.8-0.7,1.5-1,2.2c0,0,0,0,0,0.1c-0.1,0.3-0.3,0.6-0.4,0.9c-0.4,1.1-1,2.3-1.6,3.7      c-0.4,1-0.9,2-1.3,3.1c-0.4,1-0.8,2-1.3,3.1c-1.8,4.4-3.6,9.5-4.9,14.5C1865.4,638.7,1866.1,646.3,1866.1,646.8      C1866.1,646.7,1866.1,646.8,1866.1,646.8C1866.1,646.8,1866.1,646.8,1866.1,646.8z" class="colorF23868 svgShape"/><path fill="#d17705" d="M1876.2,646.1L1876.2,646.1c0.1,0.1-1.3-12.5,5.3-26.4c0,0,0-0.1,0-0.1      c3.1-6.6,5.4-11.7,7-16.1c1.6-4.4,2.6-7.9,3.1-11.1c0.6-4.1-2.2-9.2-4.4-12.4c1.2,3,2.1,7.4,1.1,13.2c-2.1,12.7-5,14.4-10.6,28      C1874.6,628.8,1875.1,638.8,1876.2,646.1z" opacity=".57" class="colorAF1B45 svgShape"/><path fill="#ffac7b" d="M1866.1,646.7c-0.6-9.7,3.9-22.4,6.7-30.4c0.1-0.3,0.2-0.6,0.3-0.9c0.4-0.9,0.8-1.9,1.2-3      c0.4-1,0.9-2,1.4-3.1c0.7-1.5,1.4-3,2.2-4.5c0,0,0,0,0,0c0.3-0.7,0.7-1.4,1-2.1c0.2-0.3,0.3-0.7,0.5-1c0,0,0,0,0,0      c0.4-0.7,0.7-1.5,1-2.2c1.6-3.4,3-6.6,4-9.4c0.5-1.3,0.8-2.6,1-3.6c0-0.1,0-0.2,0-0.3c0.3-1.8,0.4-3.3,0.4-4.5      c0-2.9-0.8-4.2-1.1-4.6c0,0,0,0,0,0c0,0,0,0,0,0c0,0-0.1-0.1-0.1-0.1c0.1,0.1,0.9,1.4,0.9,4.4c0,0.6,0,1.4-0.1,2.2      c-0.1,0.7-0.3,1.5-0.5,2.4c-0.3,1.2-0.8,2.5-1.4,3.9c-1.2,2.9-2.7,6.1-4.2,9.1c-0.4,0.7-0.7,1.5-1,2.2c0,0,0,0,0,0      c-0.2,0.4-0.3,0.7-0.5,1c-0.4,0.8-0.7,1.5-1,2.2c0,0,0,0,0,0.1c-0.1,0.3-0.3,0.6-0.4,0.9c-0.4,1.1-1,2.3-1.6,3.7      c-0.4,1-0.9,2-1.3,3.1c-0.4,1-0.8,2-1.3,3.1c-1.8,4.4-3.6,9.5-4.9,14.5C1865.4,638.7,1866.1,646.3,1866.1,646.7z" class="colorFF7B7B svgShape"/><path fill="#d17705" d="M1872.5,615.1l8.9,4.6c0,0,0-0.1,0-0.1c3.1-6.6,5.4-11.7,7-16.1l-8.8-4.6      c-1.2,2.4-2.2,4.7-2.9,6.3C1875.7,607.8,1874.1,611.2,1872.5,615.1z" opacity=".57" class="colorAF1B45 svgShape"/><path fill="#f27a38" d="M1863.1,602.8c0.4,0.5,0.7,0.9,1.2,1.4c0.4,0.4,0.8,0.8,1.2,1.3c0.3,0.3,0.6,0.6,0.9,0.9      c1.3,1.2,2.7,2.4,4.4,3.6c0.2,0.1,0.4,0.3,0.6,0.4c0.2,0.1,0.4,0.3,0.6,0.4c0,0,0,0,0.1,0c0.2,0.1,0.4,0.3,0.6,0.4      c0.4,0.3,0.8,0.5,1.2,0.8c0.2,0.1,0.4,0.3,0.6,0.4c0.4,0.3,0.8,0.5,1.2,0.8c0.2,0.2,0.5,0.3,0.7,0.5c0.3,0.2,0.6,0.4,0.9,0.5      c0.2,0.1,0.5,0.3,0.7,0.4c0.2,0.1,0.4,0.2,0.6,0.4c0.3,0.2,0.7,0.4,1.1,0.6c0.1,0.1,0.2,0.1,0.4,0.2c0.4,0.3,0.9,0.5,1.4,0.8      c0.4,0.2,0.8,0.5,1.2,0.7c0.1,0,0.2,0.1,0.2,0.1c0.2,0.1,0.4,0.2,0.6,0.3c11.7,6.6,16.1,18.1,16.1,18.1l0-0.2l0.9-6.8l7.6,0.2      c0,0-2.8-6.9-8.8-13c-0.6-0.6-1.2-1.2-1.8-1.7c-0.2-0.2-0.4-0.4-0.6-0.6c-0.2-0.2-0.4-0.4-0.6-0.5c-0.5-0.4-1-0.8-1.4-1.2      c-0.1-0.1-0.3-0.2-0.4-0.4c-0.8-0.7-1.7-1.3-2.6-2c-0.2-0.2-0.4-0.3-0.6-0.5c-0.2-0.2-0.4-0.3-0.6-0.5c-0.4-0.3-0.8-0.6-1.3-0.9      c-0.6-0.4-1.2-0.8-1.8-1.2c-0.8-0.5-1.5-1-2.3-1.5c-1.5-1-2.9-1.9-4.1-2.6c-0.1-0.1-0.3-0.2-0.4-0.3c-0.3-0.2-0.6-0.4-1-0.6      c0,0,0,0-0.1,0c0,0-0.1-0.1-0.1-0.1c-0.2-0.1-0.5-0.3-0.7-0.4c0,0,0,0,0,0c-0.1-0.1-0.2-0.1-0.3-0.2c-0.1-0.1-0.2-0.1-0.4-0.2      c-0.2-0.1-0.5-0.3-0.7-0.4c-0.5-0.3-1-0.6-1.5-0.8c0,0-0.1,0-0.1-0.1c-0.2-0.1-0.4-0.2-0.6-0.4c-0.6-0.4-1.3-0.7-1.9-1.1      c-0.2-0.1-0.4-0.2-0.6-0.4c-1.2-0.7-2.5-1.5-3.6-2.2c-0.6-0.4-1.1-0.7-1.6-1.1c-0.1-0.1-0.2-0.2-0.4-0.3c-0.4-0.3-0.7-0.5-1-0.8      c0,0,0,0,0,0c0,0-0.1-0.1-0.1-0.1c-0.1-0.1-0.2-0.2-0.3-0.3c-0.1,0-0.1-0.1-0.2-0.1c-0.3-0.2-0.5-0.5-0.7-0.7      c0,0-0.1-0.1-0.1-0.1c0,0-0.1-0.1-0.1-0.1c-0.1-0.2-0.3-0.3-0.4-0.5c-0.4-0.5-0.7-1-0.9-1.5c-1.2-2.2-1.3-3.7-1.3-4.3      c0,0,0,0,0,0c0-0.1,0-0.1,0-0.1c0,0,0,0,0-0.1c-0.1,0.3-0.5,2.7-0.6,5.7C1860.9,595,1861.1,600.2,1863.1,602.8z" class="colorF23868 svgShape"/><polygon fill="#d17705" points="1866.1 646.8 1866.1 646.8 1872.3 641.1 1872.9 634.3" opacity=".57" class="colorAF1B45 svgShape"/><polygon fill="#d17705" points="1900.4 628.8 1895.2 624.5 1899.4 635.7" opacity=".57" class="colorAF1B45 svgShape"/><path fill="#d17705" d="M1870.8,609.9c3.1,2.3,6.9,4.7,12,7.6c0.1-0.6,0.3-1.2,0.6-1.8c1.2-3.3,3.4-5.9,5.8-7.9      c-3.2-2.2-6.1-4-8.1-5.3c-1.3-0.9-3.2-1.9-5.2-3.1c0.1,1.4-0.1,3-1,4.8C1873.7,606.7,1872.2,608.5,1870.8,609.9z" opacity=".57" class="colorAF1B45 svgShape"/><path fill="#d17705" d="M1863.1,602.8c3.6,4.5,9.2,8.8,20.3,15.1c11.7,6.6,16,18.1,16,18.1l0-0.2      c-1.2-5.6-4.3-14.5-11.7-19.3c-11.3-7.3-18.6-9.8-23.1-16.4c-1.8-2.7-2.9-6.1-3.5-9.2C1860.9,595,1861.1,600.2,1863.1,602.8z" opacity=".57" class="colorAF1B45 svgShape"/><path fill="#ffac7b" d="M1863,590c0.4,0.7,0.8,1.4,1.4,2.1c0,0,0,0,0,0c0.6,0.7,1.3,1.5,2.2,2.2c0.6,0.5,1.2,1,1.9,1.5      c2.2,1.7,4.7,3.3,7.3,4.8c0.8,0.5,1.6,0.9,2.3,1.4c0.3,0.2,0.6,0.4,0.9,0.5c1.9,1.1,3.8,2.3,5.6,3.4c0.3,0.2,0.7,0.5,1,0.7      c0.4,0.3,0.8,0.5,1.2,0.8c0.5,0.3,0.9,0.6,1.4,0.9c6,4,13.9,9.7,19.6,20.5c0,0-2.8-6.9-8.8-13c-0.6-0.6-1.2-1.2-1.8-1.7      c-0.2-0.2-0.4-0.4-0.6-0.6c-0.2-0.2-0.4-0.4-0.6-0.5c-0.5-0.4-1-0.8-1.4-1.2c-0.1-0.1-0.3-0.2-0.4-0.4c-0.8-0.7-1.7-1.3-2.6-2      c-0.2-0.2-0.4-0.3-0.6-0.5c-0.2-0.2-0.4-0.3-0.6-0.5c-0.4-0.3-0.8-0.6-1.3-0.9c-0.6-0.4-1.2-0.8-1.8-1.2c-0.8-0.5-1.5-1-2.3-1.5      c-1.5-1-2.9-1.9-4.1-2.6c-0.1-0.1-0.3-0.2-0.4-0.3c-0.3-0.2-0.6-0.4-1-0.6c0,0,0,0-0.1,0c0,0-0.1-0.1-0.1-0.1      c-0.2-0.1-0.5-0.3-0.7-0.4c0,0,0,0,0,0c-0.1-0.1-0.2-0.1-0.3-0.2c-0.1-0.1-0.2-0.1-0.4-0.2c-0.2-0.1-0.5-0.3-0.7-0.4      c-0.5-0.3-1-0.6-1.5-0.8c0,0-0.1,0-0.1-0.1c-0.2-0.1-0.4-0.2-0.6-0.4c-0.6-0.4-1.3-0.7-1.9-1.1c-0.2-0.1-0.4-0.2-0.6-0.4      c-1.2-0.7-2.5-1.5-3.6-2.2c-0.6-0.4-1.1-0.7-1.6-1.1c-0.1-0.1-0.2-0.2-0.4-0.3c-0.4-0.3-0.7-0.5-1-0.8c0,0-0.1-0.1-0.1-0.1      c-0.1-0.1-0.2-0.2-0.3-0.3c-0.1-0.1-0.1-0.1-0.2-0.1c-0.3-0.2-0.5-0.5-0.7-0.7c0,0-0.1-0.1-0.1-0.1c0,0-0.1-0.1-0.1-0.1      c-0.1-0.2-0.3-0.3-0.4-0.5c-0.4-0.5-0.7-1-0.9-1.5c-1.2-2.2-1.3-3.7-1.3-4.3c0,0,0,0,0,0c0,0,0,0,0,0s0,0,0,0      C1861.8,585.7,1861.7,587.6,1863,590z" class="colorFF7B7B svgShape"/></g><g><path fill="#ffffff" d="M770.5,895.2l0.8,0.7c0,0,0,0,0,0l12.6,11.6l2,1.8l0.9,0.9l0.4,0.4c-0.1-0.1-0.3-0.3-0.4-0.4     c-0.3-0.3-0.6-0.6-0.9-0.9c-0.4-0.4-0.8-0.8-1.2-1.2c-0.2-0.2-0.4-0.4-0.5-0.5c-0.1-0.1-0.1-0.1-0.2-0.2c0,0-0.1-0.1-0.1-0.1     c-0.5-0.5-1.1-1.1-1.6-1.7c-0.1-0.1-0.1-0.1-0.2-0.2c-0.2-0.2-0.4-0.5-0.7-0.7c-0.1-0.1-0.1-0.1-0.2-0.2     c-0.3-0.3-0.5-0.6-0.8-0.9c0,0-0.1-0.1-0.1-0.1c-0.2-0.2-0.5-0.5-0.7-0.7c-0.1-0.1-0.1-0.1-0.2-0.2c-0.2-0.3-0.5-0.5-0.7-0.8     c0,0,0,0-0.1-0.1c-0.2-0.3-0.5-0.5-0.7-0.8c-0.1-0.1-0.1-0.1-0.2-0.2c-0.2-0.2-0.4-0.4-0.5-0.6c0-0.1-0.1-0.1-0.1-0.2     c-0.2-0.3-0.4-0.5-0.6-0.8c0,0,0,0,0-0.1c-0.2-0.2-0.3-0.5-0.5-0.7c0-0.1-0.1-0.1-0.1-0.1c0,0,0.7-0.7,2.3-1.6     c0.2-0.1,0.4-0.2,0.7-0.3c-0.6-0.6-1.1-1.3-1.6-1.9c-0.1-0.1-0.2-0.3-0.3-0.4c-0.4-0.4-0.7-0.9-1-1.3c0,0,1.4-1.4,4.5-2.5     c2.1-0.8,5-1.4,8.8-1.4c2.7,0,5,0.6,7,1.4c2.1,0.9,3.9,2,5.2,3c-0.8,1.1-1.8,2.3-3,3.6c0.3,0.2,0.6,0.3,0.9,0.5     c0.8,0.5,1.4,1,2,1.4c-0.7,1-1.7,2.1-2.7,3.3l6.1-4.6l0.9-0.6c0.2-0.6,0.4-1.2,0.5-1.8c-0.2-0.5-0.3-1-0.5-1.5     c0-0.1,0-0.1-0.1-0.2c-0.3-0.8-0.6-1.6-0.9-2.2c-0.1-0.3-0.2-0.5-0.3-0.7c-0.1-0.5-0.3-1-0.6-1.3c0,0,0,0,0,0     c0,0-0.1-0.1-0.1-0.2c0,0,0-0.1-0.1-0.1c-0.2-0.4-0.6-1-1.2-1.6c0,0-0.1-0.1-0.1-0.1c-1.9-2-5.7-4.7-12.8-4.6     c-7.3,0-11.9,2.4-14.1,4.1c-0.1,0-0.1,0.1-0.2,0.1c-0.8,0.6-1.3,1.1-1.5,1.4c-0.1,0.1-0.1,0.2-0.1,0.2s0,0,0,0c0,0,0,0.1-0.1,0.1     c-0.1,0.1-0.2,0.4-0.4,0.7c-0.5,1-1.3,2.7-2.1,4.8c0,0.1,0,0.1-0.1,0.2C770.8,894.3,770.7,894.8,770.5,895.2z" class="colorFFF svgShape"/><path fill="#f27a38" d="M772.6,887.3c0,0.5,0.2,1.1,0.5,1.7c0.4,0.7,0.9,1.5,1.4,2.1c0,0,0,0,0,0c0.7,1,1.4,1.7,1.5,1.8      c0,0,0,0,0,0c0,0,1.4-1.4,4.5-2.5c2.1-0.8,5-1.4,8.8-1.4c2.7,0,5,0.6,7,1.4c2.1,0.9,3.9,2,5.2,3c0.2,0.1,0.3,0.2,0.4,0.4      c1.4,1.2,2.2,2.2,2.2,2.2s0.4-2.2,0.6-4.7c0.2-2.1,0.2-4.5-0.2-6.2c0,0,0,0,0,0c-0.1-0.5-0.3-1-0.6-1.3c0,0,0-0.1-0.1-0.2      c-0.2-0.4-0.6-1.1-1.4-1.9c-1.9-2-5.7-4.7-12.8-4.6c-7.6,0-12.1,2.5-14.3,4.2c-1.1,0.9-1.7,1.5-1.7,1.5s0,0,0,0c0,0,0,0,0,0      c0,0,0,0,0,0c0,0,0,0,0,0c0,0,0,0,0,0.1c0,0,0,0.1-0.1,0.1c0,0,0,0,0,0C773.3,883.7,772.5,885.6,772.6,887.3z" class="colorF23868 svgShape"/><path fill="#f27a38" d="M796.3 890.3c2.1.9 3.9 2 5.2 3 .2.1.3.2.4.4 1.4 1.2 2.2 2.2 2.2 2.2s.4-2.2.6-4.7c.2-2.1.2-4.5-.2-6.2 0 0 0 0 0 0-.1-.5-.3-1-.6-1.3 0 0 0-.1-.1-.2-.1.7-.2 1.5-.5 2.3-.2.5-.5 1-.8 1.4C801.2 888.6 799 889.7 796.3 890.3zM772.6 887.3c0 .5.2 1.1.5 1.7.4.7.9 1.5 1.4 2.1 0 0 0 0 0 0 .7 1 1.4 1.7 1.5 1.8 0 0 0 0 0 0 0 0 1.4-1.4 4.5-2.5-2.4-.7-4-2.2-5.1-3.8-.9-1.2-1.4-2.5-1.9-3.6 0 0 0 0 0 0 0 0 0 0 0 0C773.3 883.7 772.5 885.6 772.6 887.3z" class="colorF23868 svgShape"/><path fill="#f27a38" d="M771.5,953.3L771.5,953.3c0,0.1,2.4-13.8,14.8-25.7c0,0,0.1-0.1,0.1-0.1c5.9-5.6,10.2-10.2,13.5-14.1      c3.3-4,5.6-7.3,7.2-10.5c2.1-4,0.3-10.7-1.3-15c0.5,3.7,0.2,8.7-2.9,14.4c-6.5,12.5-10.6,13.1-21.6,25.2      C775.2,934.3,772.6,945.1,771.5,953.3z" class="colorF23868 svgShape"/><path fill="#f27a38" d="M759.3,949.7c2.4-10.5,11.7-22,17.7-29.3c0.2-0.3,0.5-0.6,0.7-0.8c0.7-0.8,1.5-1.7,2.4-2.6      c0.8-0.9,1.7-1.8,2.7-2.7c1.3-1.3,2.7-2.6,4-3.9c0,0,0,0,0,0c0.6-0.6,1.3-1.2,1.9-1.8c0.3-0.3,0.6-0.6,0.9-0.9c0,0,0,0,0,0      c0.7-0.6,1.3-1.3,2-1.9c3-2.9,5.7-5.7,7.8-8.2c1-1.2,1.8-2.4,2.4-3.4c0-0.1,0.1-0.2,0.1-0.3c1-1.8,1.6-3.3,1.9-4.5      c0.9-3.1,0.4-4.8,0.2-5.3c0,0,0,0,0-0.1c0,0,0,0,0,0c0-0.1,0-0.1-0.1-0.1c0.1,0.2,0.7,1.9-0.3,5.1c-0.2,0.7-0.5,1.4-0.8,2.2      c-0.3,0.7-0.8,1.5-1.4,2.3c-0.8,1.1-1.8,2.3-3,3.6c-2.3,2.6-5.2,5.3-7.9,7.9c-0.7,0.6-1.3,1.2-1.9,1.8c0,0,0,0,0,0      c-0.3,0.3-0.6,0.6-0.9,0.9c-0.7,0.7-1.3,1.3-1.9,1.9c0,0,0,0-0.1,0.1c-0.3,0.3-0.5,0.5-0.8,0.8c-0.9,0.9-1.9,2-3.1,3.2      c-0.8,0.9-1.7,1.8-2.6,2.7c-0.8,0.9-1.6,1.8-2.5,2.7c-3.6,3.9-7.4,8.5-10.4,13.3C761,940.9,759.4,949.2,759.3,949.7z" class="colorF23868 svgShape"/><path fill="#f27a38" d="M777,918.9l9.2,8.6c0,0,0.1-0.1,0.1-0.1c5.9-5.6,10.2-10.2,13.5-14.1l-9.1-8.6c-2.2,2.1-4.2,4-5.5,5.5      C783.1,912.4,780.2,915.4,777,918.9z" class="colorF23868 svgShape"/><polygon fill="#f27a38" points="759.3 949.7 759.3 949.7 768.5 946.3 771.3 939.3" class="colorF23868 svgShape"/><path fill="#d17705" d="M769.6,901.8c0.3,0.6,0.6,1.3,1,1.9c0.3,0.6,0.7,1.2,1,1.9c0.3,0.4,0.5,0.9,0.8,1.3      c1.1,1.8,2.5,3.7,4.1,5.7c0.2,0.2,0.4,0.5,0.6,0.7c0.2,0.2,0.4,0.5,0.6,0.7c0,0,0,0,0.1,0.1c0.2,0.2,0.4,0.4,0.5,0.7      c0.4,0.5,0.8,0.9,1.2,1.4c0.2,0.2,0.4,0.5,0.6,0.7c0.4,0.5,0.8,0.9,1.2,1.4c0.2,0.3,0.5,0.5,0.7,0.8c0.3,0.3,0.6,0.6,0.9,0.9      c0.2,0.2,0.5,0.5,0.7,0.7c0.2,0.2,0.4,0.4,0.6,0.6c0.4,0.4,0.7,0.7,1.1,1.1c0.1,0.1,0.2,0.3,0.4,0.4c0.4,0.5,0.9,0.9,1.4,1.4      c0.4,0.4,0.8,0.8,1.2,1.2c0.1,0.1,0.2,0.2,0.2,0.2c0.2,0.2,0.4,0.4,0.6,0.6c11.9,11.9,13.5,25.9,13.5,25.9l0.1-0.2l3.3-6.8      l9.1,3.4c0,0-1.1-8.5-6.5-17.5c-0.5-0.9-1-1.7-1.6-2.6c-0.2-0.3-0.4-0.6-0.6-0.8c-0.2-0.3-0.4-0.6-0.6-0.8      c-0.4-0.6-0.9-1.3-1.4-1.9c-0.1-0.2-0.3-0.4-0.4-0.6c-0.8-1.1-1.6-2.1-2.4-3.1c-0.2-0.3-0.4-0.5-0.6-0.8      c-0.2-0.2-0.4-0.5-0.6-0.7c-0.4-0.5-0.8-1-1.2-1.5c-0.6-0.7-1.2-1.4-1.8-2.1c-0.8-0.9-1.5-1.7-2.2-2.5c-1.5-1.7-2.9-3.2-4-4.5      c-0.1-0.1-0.3-0.3-0.4-0.5c-0.3-0.3-0.6-0.7-1-1c0,0,0,0-0.1-0.1c0,0-0.1-0.1-0.1-0.1c-0.2-0.3-0.5-0.5-0.7-0.8c0,0,0,0,0,0      c-0.1-0.1-0.2-0.2-0.3-0.3c-0.1-0.1-0.2-0.2-0.4-0.4c-0.2-0.2-0.5-0.5-0.7-0.7c-0.5-0.5-1-1-1.5-1.5c0,0-0.1-0.1-0.1-0.1      c-0.2-0.2-0.4-0.4-0.6-0.6c-0.6-0.6-1.3-1.3-1.9-2c-0.2-0.2-0.4-0.4-0.7-0.7c-1.3-1.3-2.5-2.6-3.6-3.8c-0.6-0.6-1.1-1.3-1.6-1.9      c-0.1-0.1-0.2-0.3-0.3-0.4c-0.4-0.4-0.7-0.9-1-1.3c0,0,0,0,0,0c0,0-0.1-0.1-0.1-0.1c-0.1-0.2-0.2-0.3-0.3-0.4      c-0.1-0.1-0.1-0.2-0.1-0.2c-0.2-0.4-0.4-0.7-0.6-1c0-0.1-0.1-0.1-0.1-0.2c0-0.1-0.1-0.1-0.1-0.2c-0.1-0.2-0.2-0.4-0.3-0.7      c-0.3-0.7-0.5-1.4-0.6-2c-0.7-2.8-0.4-4.5-0.2-5.1c0,0,0,0,0,0c0-0.1,0-0.1,0-0.1c0,0,0,0,0-0.1c-0.2,0.3-1.4,2.6-2.6,5.7      C769.5,892.7,768,898.3,769.6,901.8z" class="colorAF1B45 svgShape"/><path fill="#f27a38" d="M759.3,949.7L759.3,949.7l9.2-3.4l3,7l0,0.1c0,0,2.3-13.9,14.7-25.8c0,0,0.1-0.1,0.1-0.1      c0.7-0.7,1.3-1.3,2-1.9c0.5-0.5,1-1,1.5-1.4l0,0c0.5-0.5,0.9-0.9,1.4-1.4c0.2-0.2,0.5-0.5,0.7-0.7c1.8-1.8,3.4-3.5,4.8-5.1      c0.3-0.3,0.5-0.6,0.8-0.8c0.9-1,1.7-1.9,2.4-2.8c3.3-4,5.6-7.3,7.2-10.5c2.1-4,0.3-10.7-1.3-15c-0.4-1.2-0.8-2.2-1.2-2.9      c0,0,0,0,0,0c-0.2-0.5-0.4-0.9-0.5-1.1c0,0,0,0,0-0.1c0,0,0,0,0,0c0-0.1,0-0.1-0.1-0.1c0.1,0.2,0.7,1.9-0.3,5.1      c-0.2,0.7-0.5,1.4-0.8,2.2c-0.3,0.7-0.8,1.5-1.4,2.3c-0.8,1.1-1.8,2.3-3,3.6c-2.3,2.6-5.2,5.3-7.9,7.9c-0.7,0.6-1.3,1.2-1.9,1.8      c0,0,0,0,0,0c-0.3,0.3-0.6,0.6-0.9,0.9c-0.7,0.7-1.3,1.3-1.9,1.9c0,0,0,0-0.1,0.1c-0.3,0.3-0.5,0.5-0.8,0.8      c-0.9,0.9-1.9,2-3.1,3.2c-0.8,0.9-1.7,1.8-2.6,2.7c-0.8,0.9-1.6,1.8-2.5,2.7c-3.6,3.9-7.4,8.5-10.4,13.3      C761,940.9,759.4,949.2,759.3,949.7C759.3,949.7,759.3,949.7,759.3,949.7C759.3,949.7,759.3,949.7,759.3,949.7z" class="colorF23868 svgShape"/></g></svg>