<svg xmlns="http://www.w3.org/2000/svg" enable-background="new 0 0 2000 2000" viewBox="0 0 2000 2000"><path fill="#ffa30f" d="M389.3264771,1757.2219238c-169.2644806-187.3503418-237.1461792-313.817627-237.1461792-526.1411133 S341.809906,804.6705933,454.0708923,718.003418c112.2610168-86.6672974,21.5639038-272.6634216,202.0331726-374.3362122  c180.4692993-101.6729126,258.0917358,63.5332947,384.4989624,64.8103027  c126.4072266,1.2769775,336.3817139-166.8795013,518.6202393-49.7575073s78.227417,422.1745911,91.9798584,548.685791  c13.7523193,126.5111694,196.6165771,249.9514771,196.6165771,471.1218872s-81.3162842,355.7780762-121.0311279,378.6942139  H389.3264771z" class="colorffece8 svgShape"/><path fill="#402b10" d="M1853.8718262,1754.5318604c0,1.4899902-1.2000732,2.6900635-2.6801758,2.6900635H148.8117981   c-1.5299988,0-2.7599945-1.2801514-2.6800079-2.8300781c0.0700073-1.4500732,1.3800049-2.5401611,2.8300018-2.5401611h1702.2298584   C1852.6717529,1751.8516846,1853.8718262,1753.0517578,1853.8718262,1754.5318604z" class="color1e1040 svgShape"/><path fill="#ff965c" d="M938.4968872 765.8660278h-5.1878662v-5.1879272c0-3.1983032-2.5928345-5.7910767-5.7911377-5.7910767l0 0c-3.1983032 0-5.7910767 2.5927734-5.7910767 5.7910767v5.1879272h-5.1879272c-3.1983032 0-5.7910767 2.5927734-5.7910767 5.7910767l0 0c0 3.1984253 2.5927734 5.7910767 5.7910767 5.7910767h5.1879272v5.1879272c0 3.1983032 2.5927734 5.7910767 5.7910767 5.7910767l0 0c3.1983032 0 5.7911377-2.5927734 5.7911377-5.7910767v-5.1879272h5.1878662c3.1983032 0 5.7911377-2.5926514 5.7911377-5.7910767l0 0C944.2880249 768.4588013 941.6951904 765.8660278 938.4968872 765.8660278zM374.8707886 749.0958862h-5.1878967V743.90802c0-3.1983032-2.592804-5.7911377-5.7911072-5.7911377l0 0c-3.1983032 0-5.7911072 2.5928345-5.7911072 5.7911377v5.1878662h-5.1878967c-3.1983032 0-5.7910767 2.5928345-5.7910767 5.7911377l0 0c0 3.1983643 2.5927734 5.7910767 5.7910767 5.7910767h5.1878967v5.1879272c0 3.1982422 2.592804 5.7910767 5.7911072 5.7910767l0 0c3.1983032 0 5.7911072-2.5928345 5.7911072-5.7910767v-5.1879272h5.1878967c3.1983032 0 5.7911072-2.5927124 5.7911072-5.7910767l0 0C380.6618958 751.6887207 378.0690918 749.0958862 374.8707886 749.0958862zM1462.8950195 1547.2961426h-5.1878662v-5.1879883c0-3.1982422-2.5928955-5.7910156-5.7911377-5.7910156l0 0c-3.1983643 0-5.7911377 2.5927734-5.7911377 5.7910156v5.1879883h-5.1878662c-3.1983643 0-5.7911377 2.5927734-5.7911377 5.7910156l0 0c0 3.1984863 2.5927734 5.7911377 5.7911377 5.7911377h5.1878662v5.1878662c0 3.1983643 2.5927734 5.7911377 5.7911377 5.7911377l0 0c3.1982422 0 5.7911377-2.5927734 5.7911377-5.7911377v-5.1878662h5.1878662c3.1982422 0 5.7911377-2.5926514 5.7911377-5.7911377l0 0C1468.6861572 1549.888916 1466.0932617 1547.2961426 1462.8950195 1547.2961426zM1664.6756592 581.5991211c-3.7456055 0-7.1162109 1.6036987-9.4638672 4.161499-2.3476562-2.5578003-5.7183838-4.161499-9.4638672-4.161499-7.0932617 0-12.8433838 5.750061-12.8433838 12.8432617 0 10.9849243 17.2000732 26.3095093 22.307251 26.3095093 5.1070557 0 22.307251-16.1677856 22.307251-26.3095093C1677.519043 587.3491821 1671.7687988 581.5991211 1664.6756592 581.5991211zM212.4158936 1484.3425293c-2.8305969 0-5.378006 1.2119141-7.1520996 3.1450195-1.774292-1.9331055-4.321701-3.1450195-7.152298-3.1450195-5.3605957 0-9.7062988 4.3455811-9.7062988 9.7061768 0 8.3016357 12.9988098 19.8831787 16.8585968 19.8831787 3.8596039 0 16.8583984-12.2186279 16.8583984-19.8831787C222.1221924 1488.6881104 217.7765961 1484.3425293 212.4158936 1484.3425293z" class="colorff605c svgShape"/><path fill="#ab511c" d="M1012.8806763,1751.8516846h224.9275513c-8.6563721-8.6472168,8.6470947-17.3033447,17.2943115-43.2541504   c8.65625-25.9506836-8.6472168-34.6071777-8.6472168-60.5578613c0-25.9505615,34.6069336-25.9505615,69.204834-43.2541504   c34.6071777-17.3034668,43.2542725-60.5577393,43.2542725-95.1647949c0-34.5977783,51.9105225-69.2049561,86.5084229-86.5084229   c34.6071777-17.2943115,17.3035889-112.4591064,17.3035889-147.0661621c0-34.5977783,26.1723633-83.552002-8.6472168-95.1555176   c-25.9506836-8.6473389-69.204834,34.6069336-95.1647949,60.5577393c-25.9506836,25.9505615-77.8521729,0-103.8118896,17.3035889   c-25.9506836,17.2941895-8.6472168,51.9012451-25.9506836,86.5083008   c-17.3037109,34.5979004-69.204834,17.3034668-95.1556396,34.5979004   c-25.9599609,17.3034668-43.2542725,69.2139893-43.2542725,103.8118896c0,7.3167725-1.9306641,13.4696045-5.0718994,18.9572754   c-11.6679688,20.4628906-40.0114746,31.6137695-46.838623,58.9039307   c-8.6470947,34.6071777-51.9013672,34.6071777-60.5578613,77.8614502   C969.6265869,1682.6468506,1012.8806763,1751.8516846,1012.8806763,1751.8516846z" class="color1c5fab svgShape"/><path fill="#ffffff" d="M1419.3048096,1357.0257568c-0.6673584-2.2978516-3.0412598-3.6242676-5.364502-2.9483643   c-0.4212646,0.1270752-39.9963379,11.4528809-67.9946289,11.0222168   c19.5050049-73.9057617,61.477417-89.1218262,61.9372559-89.27771c2.2557373-0.7602539,3.47229-3.2017822,2.7202148-5.4659424   c-0.7601318-2.2641602-3.2102051-3.4807129-5.4743652-2.7371826c-2.2218018,0.7434082-54.532959,19.2280273-72.0965576,115.7906494   c-4.0826416,22.465332-18.4777832,43.6862793-38.2016602,64.1010742   c-16.6990967-16.5633545-21.8612061-69.4080811-22.4226074-89.3948975   c-0.0675049-2.3486328-1.9937744-4.2071533-4.3254395-4.2071533c-0.0422363,0-0.0844727,0-0.1182861,0   c-2.3908691,0.067627-4.2747803,2.0614014-4.2072754,4.4437256c0.0881348,3.0998535,2.3062744,72.4598389,24.9865723,95.2736816   c-21.8198242,21.3092041-48.9849854,41.7746582-75.7093506,61.9046631   c-28.6326904,21.567749-56.3840332,42.4754639-77.6330566,64.0240479   c-3.3554688-8.682251-4.1081543-36.300293-1.4250488-65.2067871c0.2197266-2.3740234-1.5290527-4.4859619-3.9116211-4.7055664   c-2.3570557-0.1098633-4.477417,1.5290527-4.7055664,3.911499c-1.703125,18.3417969-4.3012695,58.6347656,3.973877,72.3693848   c-14.1621094,15.4212646-24.7573242,31.2312012-29.7575684,47.8988037   c-0.6928711,2.2895508,0.6082764,4.6971436,2.8977051,5.3814697c0.4139404,0.126709,0.8278809,0.1859131,1.2419434,0.1859131   c1.8585205,0,3.5819092-1.2081299,4.1395264-3.0836182c10.5856934-35.2709961,49.5407715-67.6530762,93.6218262-101.1958008   c24.1407471,22.5175781,89.4459229,26.258667,92.3310547,26.4125977c0.0759277,0.0084229,0.1520996,0.0084229,0.2281494,0.0084229   c2.2895508,0,4.1987305-1.7911377,4.3167725-4.0975342c0.1268311-2.3822021-1.697998-4.4182129-4.0887451-4.5450439   c-0.6577148-0.0401611-63.2575684-3.6153564-85.7821045-23.0892334c3.2347412-2.4449463,6.4897461-4.8969727,9.756958-7.3580322   c28.2585449-21.2886963,56.9998779-42.9417725,79.7520752-65.8084717c0.1365967-0.1207275,0.265625-0.2518311,0.3879395-0.3916016   c22.1413574-22.3337402,38.5426025-45.8283691,43.1695557-71.2770996c0.7069092-3.8875732,1.4776611-7.6317139,2.2971191-11.256958   c1.2744141,0.0479736,2.5710449,0.0716553,3.887085,0.0716553c29.0701904,0,66.8842773-10.8897705,68.6243896-11.3881836   C1418.6459961,1361.7230225,1419.97229,1359.3237305,1419.3048096,1357.0257568z" class="colorfff svgShape"/><path fill="#935b14" d="M1012.8806763,1751.8516846h55.2642212c0,0,17.3033447-17.3033447,17.3033447-51.9013672   c0-34.6071777-43.2540283-69.2142334-34.6069336-86.5175781c8.5732422-17.1373291,42.6259766-51.2731934,34.8287354-110.8054199   c-11.6679688,20.4628906-40.0114746,31.6137695-46.838623,58.9039307   c-8.6470947,34.6071777-51.9013672,34.6071777-60.5578613,77.8614502   C969.6265869,1682.6468506,1012.8806763,1751.8516846,1012.8806763,1751.8516846z" class="color145493 svgShape"/><path fill="#b77a56" d="M831.2074585,1673.9903564c8.6564331,60.5579834,34.6069946,77.8613281,34.6069946,77.8613281h190.3204346   c0,0,17.3034668-17.3033447,17.3034668-51.9013672c0-34.6071777-43.2540283-69.2142334-34.6069336-86.5175781   c7.8988037-15.7792969,37.40625-45.9796143,35.9282227-97.1696777c-0.1386719-4.9055176-0.5635986-9.9958496-1.3212891-15.2894287   c-8.6561279-60.5578613-34.6069336-60.5578613-43.2540283-95.1556396c-8.6564331-34.6069336,8.6470947-51.9106445,0-77.8613281   c-8.6564331-25.9505615-51.9107666-51.9105225-60.5577393-69.2047119   c-8.6566162-17.3035889-34.6072388-86.5177002-86.508606-60.5578613c-45.1201782,22.5600586,0,121.1063232-8.656311,155.7132568   c-8.6472168,34.6071777-34.5977783,60.5578613-25.9506836,95.1647949   c8.6564941,34.5979004,25.9506836,60.548584,25.9506836,95.1556396   C874.4616699,1578.8349609,822.5603638,1613.4327393,831.2074585,1673.9903564z" class="color566bb7 svgShape"/><path fill="#ffffff" d="M909.3828735,1633.4615479c-0.8869019,2.2080078,0.1846924,4.7301025,2.4019775,5.6169434   c11.5480347,4.6192627,42.4595947,17.8116455,49.9797363,24.5463867   c9.6911011,19.6132812,25.1932983,60.1789551,26.625061,88.2268066h8.6472168c0-0.0738525-0.0092773-0.1385498-0.0092773-0.2124023   c-1.4227905-29.6923828-17.8485718-72.5307617-27.862915-92.5596924   c-4.1851196-8.3791504-0.8961182-32.0666504,2.5682983-57.1486816c1.8198853-13.1185303,3.7783203-27.2625732,5.0717773-41.4989014   c17.4328003-10.6795654,50.8942261-50.5987549,52.3724976-52.3634033c1.524292-1.8292236,1.2840576-4.5544434-0.5543213-6.0878906   c-1.7922363-1.5246582-4.545166-1.3028564-6.0880127,0.5447998c-8.5825195,10.2731934-30.6623535,35.3369141-44.8617554,46.69104   c0.3786011-6.0419922,0.6004028-12.0562744,0.6004028-17.9594727c0-26.8839111,0-54.2479248-1.2562866-80.4849854   c0-0.2126465-0.0092773-0.4343262-0.0369873-0.6468506c-1.1456299-23.5578613-3.3259277-46.2104492-7.4368896-66.7843018   c-8.739624-43.6699219-50.8483276-102.9713135-52.6220093-105.4840088   c-1.3950195-1.9401855-4.083313-2.3743896-6.0419312-1.0070801c-1.9492798,1.3950195-2.3927002,4.0927734-1.006958,6.0418701   c0.4342041,0.5914307,42.8200073,60.3083496,51.1900024,102.1398926   c3.1964722,16.0102539,5.2010498,33.378418,6.4577026,51.5040283   c-15.7238159-16.1948242-42.1549072-29.5720215-43.5406494-30.2648926   c-2.1155396-1.0716553-4.7301025-0.2218018-5.8017578,1.9215088c-1.062439,2.1433105-0.2032471,4.7392578,1.9215698,5.8201904   c0.3973389,0.1848145,38.4318237,19.4376221,48.2984009,37.7294922   c1.2288208,25.8861084,1.2288208,52.9362793,1.2288208,79.5151367c0,8.4807129-0.4711914,17.2203369-1.2196045,25.9783936   c-0.0184326,0.1108398-0.02771,0.230957-0.02771,0.3417969c-1.2747803,14.7445068-3.3165894,29.5258789-5.2102661,43.1711426   c-2.8733521,20.7124023-5.3029175,38.2838135-4.425354,50.5155029   c-15.0956421-8.6656494-40.2147827-18.8093262-43.7439575-20.213623   C912.7825928,1630.1634521,910.2698975,1631.2442627,909.3828735,1633.4615479z" class="colorfff svgShape"/><path fill="#d17705" d="M1120.6142578,1467.4077148v51.112915c0,8.543457-6.9261475,15.4696045-15.4696045,15.4696045   s-15.4696045-6.9261475-15.4696045-15.4696045v-51.112915c0-2.7001953-2.1938477-4.894165-4.8869629-4.894165H955.5394897   c-2.6931152,0-4.8870239,2.1939697-4.8870239,4.894165v51.112915c0,8.543457-6.9260864,15.4696045-15.4694824,15.4696045   c-8.5435791,0-15.4696045-6.9261475-15.4696045-15.4696045v-51.112915c0-19.7590332,16.0742798-35.833374,35.8261108-35.833374   h129.2485962C1104.5471191,1431.5743408,1120.6142578,1447.6486816,1120.6142578,1467.4077148z" class="color311a6b svgShape"/><path fill="#ff965c" d="M1201.4980469,1751.8511963H838.4089966c-7.9175415,0-15.0855103-3.2092285-20.2739868-8.3978271   c-5.1885376-5.1885986-8.3978271-12.3564453-8.3978271-20.2739258v-206.7113037   c0-7.9174805,3.2092896-15.0853271,8.3977051-20.2739258c5.1885986-5.1885986,12.3565674-8.3979492,20.2741089-8.3979492   h363.0890503c7.9176025,0,15.0853271,3.2093506,20.2739258,8.3979492s8.3978271,12.3564453,8.3978271,20.2739258v206.7113037   c0,6.9490967-2.472168,13.3206787-6.5849609,18.2833252   C1218.3256836,1747.8088379,1210.3839111,1751.8511963,1201.4980469,1751.8511963z" class="colorff605c svgShape"/><path fill="#fb600a" d="M1230.1673584,1516.4674072v206.7092285c0,15.8352051-12.8327637,28.6750488-28.6680908,28.6750488   H838.4063721c-9.661499,0-18.197876-4.7745361-23.3942871-12.1014404c2.9251709,1.0056152,6.0612793,1.5539551,9.3311157,1.5539551   h363.0928345c15.8352051,0,28.6680908-12.8398438,28.6680908-28.6750488v-206.7092285   c0-6.1737061-1.947876-11.8905029-5.2668457-16.5666504   C1222.0880127,1493.2277832,1230.1673584,1503.9018555,1230.1673584,1516.4674072z" class="coloref3f3f svgShape"/><polygon fill="#ffffff" points="1091.704 1598.055 1041.722 1598.055 1041.722 1548.074 998.185 1548.074 998.185 1598.055 948.203 1598.055 948.203 1641.593 998.185 1641.593 998.185 1691.574 1041.722 1691.574 1041.722 1641.593 1091.704 1641.593" class="colorfff svgShape"/><rect width="14.446" height="264.055" x="881.694" y="1487.796" fill="#d17705" class="color311a6b svgShape"/><rect width="14.446" height="264.055" x="1133.531" y="1487.796" fill="#d17705" class="color311a6b svgShape"/><path fill="#fb600a" d="M834.4931641 1586.7574463h-24.7559814v-9.1806641h24.7559814c2.5350952 0 4.590332 2.0551758 4.590332 4.590332l0 0C839.0834961 1584.7022705 837.0282593 1586.7574463 834.4931641 1586.7574463zM853.3700562 1607.1838379h-43.6328735v-9.1807861h43.6328735c2.5352173 0 4.59021 2.0552979 4.59021 4.5904541l0 0C857.9602661 1605.12854 855.9052734 1607.1838379 853.3700562 1607.1838379zM1205.4136963 1682.3933105h24.7561035v9.180542h-24.7561035c-2.5350342 0-4.5900879-2.0551758-4.5900879-4.59021l0 0C1200.8236084 1684.4484863 1202.8786621 1682.3933105 1205.4136963 1682.3933105zM1186.5368652 1661.967041h43.6329346v9.1804199h-43.6329346c-2.5351562 0-4.59021-2.0550537-4.59021-4.59021l0 0C1181.9466553 1664.0220947 1184.001709 1661.967041 1186.5368652 1661.967041z" class="coloref3f3f svgShape"/><rect width="30.939" height="11.427" x="919.713" y="1476.373" fill="#302312" class="color161230 svgShape"/><rect width="30.939" height="11.427" x="1089.675" y="1476.373" fill="#302312" class="color161230 svgShape"/><rect width="14.446" height="10.547" x="881.694" y="1741.304" fill="#302312" class="color161230 svgShape"/><rect width="14.446" height="10.547" x="1133.531" y="1741.304" fill="#302312" class="color161230 svgShape"/><path fill="#fbb890" d="M530.9231567,1107.1746826c-0.8508911,12.5114746-9.9449463,57.9962158-10.8026733,63.401001    c-0.8508911,5.3980713-6.2556763,40.0800781-7.1065674,46.3358154s4.2679443,38.3781738,5.4047852,62.543335    c1.1366577,24.1650391-1.4227295,44.3480225-6.8275146,65.6745605    c-5.3980103,21.3197021-24.1651001,72.7744141-28.1405029,82.7263184    c-3.9819946,9.9519043-2.8724976,23.1848145-2.5593872,34.1169434    c3.7846985,133.6431885,34.579895,289.8790283,34.579895,289.8790283H308.3797913    c0,0,21.3877869-200.9786377,12.7564087-296.0394287c-0.217804-2.3824463-0.4559937-4.6967773-0.7079163-6.9431152    c-0.0680847-0.598999-0.1497803-1.197998-0.2518005-1.7971191c0-0.0068359,0-0.0136719,0-0.0136719    c-0.0272827-0.2109375-0.0680847-0.4287109-0.1022034-0.6398926c-2.4096985-13.668457-11.6059875-26.8607178-16.214386-32.9528809    c-4.8807068-6.453125-55.9812927-39.9438477-62.781601-45.0015869    c-6.8070984-5.0577393-11.5108032-23.7158203-15.8740997-36.2749023    c-4.3632965-12.5522461-15.6970978-29.1204834-21.9731903-36.0977783    c-6.2829132-6.9771729-10.9866028-14.1246338-14.8258057-21.4559326    c-3.8392029-7.3243408-27.289505-26.8131104-34.7841034-34.5731201    c-3.0359039-3.1448975-4.7240906-20.4348145,32.2790985-18.9440918    c37.0099945,1.4908447,54.6199036,29.5495605,60.8892975,36.4110107    c6.2692108,6.8684082,24.1719055,31.9388428,26.8605957,31.6392822c2.6888123-0.2994385,9.2507935-29.25,11.3406067-39.399292    c2.0898132-10.1494141,0.2994995-17.6098633-0.2994995-27.4597168    c-0.5921936-9.8430176,0.2994995-28.9504395-0.2926941-38.5007324    c-0.598999-9.550293-11.3474121-55.2121582-13.1376953-66.5527344    c-1.7902222-11.3405762-1.4907227-33.1300049-2.6819153-42.6802979    c-1.0007019-7.9438477-3.8460083-31.7889404-4.4313965-44.048584c-0.1224976-2.4846191-0.1498108-4.4858398-0.047699-5.7928467    c0.598999-7.7600708,5.6702881-29.2498779,16.1192017-30.7406616    c10.4420166-1.4974976,22.6810913,6.5620117,27.4529114,21.4830933    c4.7784729,14.9278564,4.4789734,32.5378418,5.6769714,41.7885742    c1.1913147,9.2508545,8.0528259,36.7105713,11.3406067,50.4404297    c3.2810974,13.7298584,11.8239136,50.4608154,13.1239929,55.8520508c1.3002014,5.3911133,7.4402161,6.1400146,8.7403259,6.1400146    c1.3002014,0,0.1837769-8.5565186,0.1837769-14.8803711c0-6.3237305-4.6492004-47.4249268-5.9494019-61.5562744    c-1.3000793-14.1383057,1.6746216-28.8280029,2.7910156-45.3828125    c1.1163025-16.5478516-0.5718994-32.5241089-1.1095886-49.0177002    c-0.5446167-16.4866943,2.2462769-33.545166,13.6209717-39.5150146    c11.3677063-5.9697876,26.7177124-0.8508911,30.6998291,10.237793    c3.9820862,11.0888062,1.9876709,28.4264526,1.7085876,34.3962402    c-0.2858887,5.9697876,0.2790833,30.4207764,1.7017822,45.7706299    c1.4226074,15.3499756,3.9821167,47.1934814,5.9697266,61.4066162    c1.9945068,14.2131348,2.5595093,39.5150146,3.1312866,41.7885742c0.5650024,2.2803955,3.4104004,3.9821777,5.2278137,4.2680664    c1.8174744,0.2858887-0.6807251-36.9555664-1.8174133-47.1933594c-1.1369019-10.2310791,1.7016907-19.618042,3.1243896-35.532959    c1.422699-15.9216309,1.7086182-50.0388184,1.422699-65.6745605    c-0.2858887-15.6358032,2.8453064-24.4442139,15.3499146-25.8669434    c12.5113831-1.4226074,21.6056824,7.1066284,25.0159912,16.2008057c3.4172058,9.1011353,0,40.9377441,0,48.9019775    c0,7.9575195,4.8329163,42.3536377,5.1188965,62.543457c0.2859192,20.1828613-0.2859802,57.4244385,0.2859192,66.8044434    c0.5717773,9.380249,8.815094,16.2077637,11.9395752,16.2077637c3.1244202,0,7.3925171-18.1954346,9.9519043-28.9981689    c2.5594177-10.8028564,4.8330078-20.7547607,9.3800964-32.9802246    c4.5472107-12.2255859,4.5472107-71.923584,26.7246094-71.0726318    C533.1967773,1061.4040527,531.7808838,1094.6700439,530.9231567,1107.1746826z" class="colorfeb2ae svgShape"/><path fill="#eaa67d" d="M363.8917847,1213.9083252c0,0,23.5523071,28.4871826,43.9644165,36.3378906    c20.4119873,7.8508301,68.6382751,19.5148926,85.0127869,26.0197754c0,0-7.6825867-5.024292-23.6759033-10.1563721    c-15.9931946-5.1322021-55.0214844-14.2030029-68.866394-23.7512207S368.2753906,1218.2801514,363.8917847,1213.9083252z" class="colorea7f7d svgShape"/><path fill="#f7bb97" d="M471.2797852,1453.4366455c-136.1617737,29.3112793-113.7597961,226.6412354-127.2514038,298.4150391    h-35.6485901c0,0,21.3877869-200.9786377,12.7564087-296.0394287c-0.217804-2.3824463-0.4559937-4.6967773-0.7079163-6.9431152    c-0.0680847-0.598999-0.1497803-1.197998-0.2518005-1.7971191c0-0.0068359,0-0.0136719,0-0.0136719    c0.0272217-0.3811035-0.006897-0.598999-0.1022034-0.6398926c-2.4096985-13.668457-11.6059875-26.8607178-16.214386-32.9528809    c-4.8807068-6.453125-55.9812927-39.9438477-62.781601-45.0015869    c-6.8070984-5.0577393-11.5108032-23.7158203-15.8740997-36.2749023    c-4.3632965-12.5522461-15.6970978-29.1204834-21.9731903-36.0977783    c-6.2829132-6.9771729-10.9866028-14.1246338-14.8258057-21.4559326c0,0,24.389801,17.0721436,36.1454926,26.9696045    c11.7559052,9.9042969,14.2404022,44.4365234,30.3187103,55.5661621    c16.0782928,11.1295166,59.6911774,45.6278076,74.3059845,61.5426025    c23.9472046,26.0847168,58.9559937,27.9294434,81.5010071,16.9973145    c-0.258606,0.340332-8.685791,11.3065186-17.4193115,13.6276855    C384.8299866,1451.5782471,433.5617981,1443.2805176,471.2797852,1453.4366455z" class="colorf79997 svgShape"/><path fill="#eaa67d" d="M295.5715942 1179.7663574c0 0 15.0261841-11.5623779 37.5319824-10.5126953C333.1035767 1169.2536621 309.9895935 1172.8917236 295.5715942 1179.7663574zM356.1171875 1163.9289551c0 0 15.9364014-10.2716064 38.2767029-7.352417C394.3938904 1156.5765381 371.0572815 1158.2781982 356.1171875 1163.9289551zM410.2590942 1160.4346924c0 0 18.9085999-1.3930664 37.1280823 11.8607178C447.3871765 1172.2954102 426.0816956 1162.6223145 410.2590942 1160.4346924zM472.7052002 1195.5749512c0 0 18.9051819 1.4379883 34.9480896 17.2568359C507.6532898 1212.8317871 488.0256958 1200.0941162 472.7052002 1195.5749512zM306.5098877 1063.9952393c0 0-20.2591858-4.4606934-30.2247009 5.6779785C276.2851868 1069.6732178 285.9718933 1063.1589355 306.5098877 1063.9952393zM382.0482788 1027.9954834c0 0-19.6916809-6.524353-30.6487732 2.5335693C351.3995056 1030.5290527 361.70578 1025.0474854 382.0482788 1027.9954834zM444.328186 1051.8521729c0 0-19.691803-6.524292-30.6488953 2.5335693C413.6792908 1054.3857422 423.9856873 1048.9041748 444.328186 1051.8521729zM521.6698608 1129.2889404c0 0-17.3561707-11.3620605-30.2716675-5.4213867C491.3981934 1123.8675537 502.7664795 1121.2161865 521.6698608 1129.2889404zM314.3375854 1114.590332c0 0-14.9985046-3.8374023-32.0513 6.8739014C282.2862854 1121.4642334 299.0889893 1113.9920654 314.3375854 1114.590332zM306.0780029 1110.3626709c0 0-10.3807068-3.3452148-19.1679077 4.8167725C286.9100952 1115.1794434 297.1691895 1108.4862061 306.0780029 1110.3626709zM384.5717773 1091.3480225c0 0-14.4012756-5.6818848-32.6590881 2.8139648C351.9126892 1094.1619873 369.5174866 1088.8486328 384.5717773 1091.3480225zM376.905304 1086.1212158c0 0-9.8811035-4.6164551-19.6195984 2.3833008C357.2857056 1088.5045166 368.3009949 1083.1459961 376.905304 1086.1212158zM446.4561768 1115.9794922c0 0-13.7619019-7.0915527-32.776886-.4614258C413.6792908 1115.5180664 431.7267761 1111.9892578 446.4561768 1115.9794922zM439.3500061 1110.0133057c0 0-9.3707275-5.5800781-19.7595215.4122314C419.5904846 1110.4255371 431.0857849 1106.1937256 439.3500061 1110.0133057zM515.5354004 1168.2845459c0 0-10.8395081-11.053833-30.9746094-10.7290039C484.560791 1157.555542 502.8035889 1159.87146 515.5354004 1168.2845459zM510.6617737 1160.388916c0 0-7.144989-8.2399902-18.8897705-5.8125C491.7720032 1154.576416 504.014679 1154.1678467 510.6617737 1160.388916z" class="colorea7f7d svgShape"/><path fill="#f7bb97" d="M436.7610779,1299.6650391c-1.1912842-0.6398926-116.4645996-59.6027832-135.4464722-47.3186035    c-14.0115967,9.0675049-7.3753052,23.9195557-27.6645203,36.8220215c2.6888123-0.2994385,9.2507935-29.25,11.3406067-39.399292    c2.0898132-10.1494141,0.2994995-17.6098633-0.2994995-27.4597168    c-0.5921936-9.8430176,0.2994995-28.9504395-0.2926941-38.5007324    c-0.598999-9.550293-11.3474121-55.2121582-13.1376953-66.5527344    c-1.7902222-11.3405762-1.4907227-33.1300049-2.6819153-42.6802979    c-1.0007019-7.9438477-3.8460083-31.7889404-4.4313965-44.048584c0,0,7.5217896,32.8985596,8.6517029,54.1026611    c1.1300049,21.1971436,8.8287964,58.7857666,11.5516968,69.6566162    c2.7160034,10.8641357,11.6467896,74.4284668,50.4131165,92.1065674    C373.5233765,1264.0639648,413.7191772,1281.3404541,436.7610779,1299.6650391z" class="colorf79997 svgShape"/><path fill="#eaa67d" d="M320.2964783,1263.1497803c0,0,34.7164001-10.7376709,75.8400269,13.1162109    c41.1236877,23.8538818,68.4997864,40.8431396,88.3302917,42.385498c0,0-16.7853088,7.3861084-75.135498-28.9559326    C369.5231018,1264.9019775,350.4647827,1261.4107666,320.2964783,1263.1497803z" class="colorea7f7d svgShape"/><path fill="#eaa67d" d="M418.4599915,1361.2641602c0,0-18.9786072-71.6893311-81.1224976-93.2325439    C337.3374939,1268.0316162,403.4115906,1278.5155029,418.4599915,1361.2641602z" class="colorea7f7d svgShape"/><g><path fill="#fbb890" d="M1469.0767822,1107.1746826c0.8509521,12.5114746,9.9450684,57.9962158,10.8027344,63.401001    c0.8508301,5.3980713,6.2557373,40.0800781,7.1065674,46.3358154c0.8509521,6.2557373-4.2679443,38.3781738-5.4047852,62.543335    c-1.1367188,24.1650391,1.4227295,44.3480225,6.8275146,65.6745605    c5.3979492,21.3197021,24.1650391,72.7744141,28.1405029,82.7263184    c3.9819336,9.9519043,2.8724365,23.1848145,2.5593262,34.1169434    c-3.784668,133.6431885-34.579834,289.8790283-34.579834,289.8790283h207.0914307    c0,0-21.3878174-200.9786377-12.7564697-296.0394287c0.2177734-2.3824463,0.4560547-4.6967773,0.7078857-6.9431152    c0.0681152-0.598999,0.1499023-1.197998,0.2518311-1.7971191c0-0.0068359,0-0.0136719,0-0.0136719    c0.0273438-0.2109375,0.0681152-0.4287109,0.1021729-0.6398926c2.40979-13.668457,11.6060791-26.8607178,16.2144775-32.9528809    c4.8806152-6.453125,55.9813232-39.9438477,62.7816162-45.0015869    c6.8070068-5.0577393,11.5107422-23.7158203,15.8740234-36.2749023    c4.3632812-12.5522461,15.6971436-29.1204834,21.9732666-36.0977783    c6.2828369-6.9771729,10.9865723-14.1246338,14.8258057-21.4559326    c3.8391113-7.3243408,27.2894287-26.8131104,34.7840576-34.5731201    c3.0358887-3.1448975,4.7241211-20.4348145-32.2790527-18.9440918    c-37.0100098,1.4908447-54.6199951,29.5495605-60.8894043,36.4110107    c-6.269165,6.8684082-24.171875,31.9388428-26.8605957,31.6392822c-2.6887207-0.2994385-9.2507324-29.25-11.3405762-39.399292    c-2.0897217-10.1494141-0.2994385-17.6098633,0.2995605-27.4597168    c0.5921631-9.8430176-0.2995605-28.9504395,0.2926025-38.5007324c0.598999-9.550293,11.3474121-55.2121582,13.1378174-66.5527344    c1.7901611-11.3405762,1.4906006-33.1300049,2.6818848-42.6802979c1.0006104-7.9438477,3.8459473-31.7889404,4.4313965-44.048584    c0.1224365-2.4846191,0.1497803-4.4858398,0.0476074-5.7928467c-0.598999-7.7600708-5.6702881-29.2498779-16.1191406-30.7406616    c-10.4420166-1.4974976-22.6811523,6.5620117-27.4528809,21.4830933    c-4.7785645,14.9278564-4.4790039,32.5378418-5.677002,41.7885742    c-1.1912842,9.2508545-8.0528564,36.7105713-11.3405762,50.4404297    c-3.2811279,13.7298584-11.8239746,50.4608154-13.1240234,55.8520508    c-1.3001709,5.3911133-7.4401855,6.1400146-8.7403564,6.1400146s-0.1837158-8.5565186-0.1837158-14.8803711    c0-6.3237305,4.6491699-47.4249268,5.9493408-61.5562744c1.3000488-14.1383057-1.6745605-28.8280029-2.7910156-45.3828125    c-1.116333-16.5478516,0.5718994-32.5241089,1.1096191-49.0177002    c0.5445557-16.4866943-2.2463379-33.545166-13.6209717-39.5150146    c-11.3676758-5.9697876-26.7177734-0.8508911-30.6998291,10.237793    c-3.9820557,11.0888062-1.9876709,28.4264526-1.7086182,34.3962402    c0.2858887,5.9697876-0.2790527,30.4207764-1.7017822,45.7706299    c-1.4226074,15.3499756-3.9820557,47.1934814-5.9697266,61.4066162    c-1.9945068,14.2131348-2.5594482,39.5150146-3.1312256,41.7885742c-0.5650635,2.2803955-3.4104004,3.9821777-5.2277832,4.2680664    c-1.8175049,0.2858887,0.6806641-36.9555664,1.8173828-47.1933594c1.1368408-10.2310791-1.7017822-19.618042-3.1243896-35.532959    c-1.4227295-15.9216309-1.7086182-50.0388184-1.4227295-65.6745605    c0.2858887-15.6358032-2.8453369-24.4442139-15.3499756-25.8669434    c-12.5113525-1.4226074-21.6055908,7.1066284-25.0159912,16.2008057c-3.4171143,9.1011353,0,40.9377441,0,48.9019775    c0,7.9575195-4.8328857,42.3536377-5.1188965,62.543457c-0.2858887,20.1828613,0.2860107,57.4244385-0.2858887,66.8044434    c-0.5717773,9.380249-8.8150635,16.2077637-11.9395752,16.2077637c-3.1243896,0-7.3924561-18.1954346-9.9519043-28.9981689    c-2.5594482-10.8028564-4.8330078-20.7547607-9.380127-32.9802246    c-4.5471191-12.2255859-4.5471191-71.923584-26.7246094-71.0726318    C1466.8032227,1061.4040527,1468.2191162,1094.6700439,1469.0767822,1107.1746826z" class="colorfeb2ae svgShape"/><path fill="#eaa67d" d="M1636.1081543,1213.9083252c0,0-23.5522461,28.4871826-43.9643555,36.3378906    c-20.4119873,7.8508301-68.6383057,19.5148926-85.0128174,26.0197754c0,0,7.6826172-5.024292,23.6759033-10.1563721    c15.9931641-5.1322021,55.0214844-14.2030029,68.8664551-23.7512207    C1613.5181885,1232.8101807,1631.7246094,1218.2801514,1636.1081543,1213.9083252z" class="colorea7f7d svgShape"/><path fill="#f7bb97" d="M1528.7202148,1453.4366455c136.1617432,29.3112793,113.7597656,226.6412354,127.2513428,298.4150391    h35.6486816c0,0-21.3878174-200.9786377-12.7564697-296.0394287c0.2177734-2.3824463,0.4560547-4.6967773,0.7078857-6.9431152    c0.0681152-0.598999,0.1499023-1.197998,0.2518311-1.7971191c0-0.0068359,0-0.0136719,0-0.0136719    c-0.0272217-0.3811035,0.006958-0.598999,0.1021729-0.6398926c2.40979-13.668457,11.6060791-26.8607178,16.2144775-32.9528809    c4.8806152-6.453125,55.9813232-39.9438477,62.7816162-45.0015869    c6.8070068-5.0577393,11.5107422-23.7158203,15.8740234-36.2749023    c4.3632812-12.5522461,15.6971436-29.1204834,21.9732666-36.0977783    c6.2828369-6.9771729,10.9865723-14.1246338,14.8258057-21.4559326c0,0-24.3898926,17.0721436-36.1455078,26.9696045    c-11.7559814,9.9042969-14.2404785,44.4365234-30.3187256,55.5661621    c-16.0783691,11.1295166-59.6911621,45.6278076-74.3060303,61.5426025    c-23.9471436,26.0847168-58.9559326,27.9294434-81.5009766,16.9973145    c0.2585449,0.340332,8.685791,11.3065186,17.4193115,13.6276855    C1615.1700439,1451.5782471,1566.4382324,1443.2805176,1528.7202148,1453.4366455z" class="colorf79997 svgShape"/><path fill="#eaa67d" d="M1704.4283447 1179.7663574c0 0-15.026123-11.5623779-37.5319824-10.5126953C1666.8963623 1169.2536621 1690.010376 1172.8917236 1704.4283447 1179.7663574zM1643.8828125 1163.9289551c0 0-15.9364014-10.2716064-38.2767334-7.352417C1605.6060791 1156.5765381 1628.942749 1158.2781982 1643.8828125 1163.9289551zM1589.7408447 1160.4346924c0 0-18.9085693-1.3930664-37.1280518 11.8607178C1552.612793 1172.2954102 1573.918335 1162.6223145 1589.7408447 1160.4346924zM1527.2947998 1195.5749512c0 0-18.9051514 1.4379883-34.9481201 17.2568359C1492.3466797 1212.8317871 1511.9742432 1200.0941162 1527.2947998 1195.5749512zM1693.4901123 1063.9952393c0 0 20.2591553-4.4606934 30.2247314 5.6779785C1723.7148438 1069.6732178 1714.0280762 1063.1589355 1693.4901123 1063.9952393zM1617.9516602 1027.9954834c0 0 19.6917725-6.524353 30.6488037 2.5335693C1648.6004639 1030.5290527 1638.2941895 1025.0474854 1617.9516602 1027.9954834zM1555.6717529 1051.8521729c0 0 19.6918945-6.524292 30.6489258 2.5335693C1586.3206787 1054.3857422 1576.0142822 1048.9041748 1555.6717529 1051.8521729zM1478.3300781 1129.2889404c0 0 17.3562012-11.3620605 30.2717285-5.4213867C1508.6018066 1123.8675537 1497.2335205 1121.2161865 1478.3300781 1129.2889404zM1685.6623535 1114.590332c0 0 14.9985352-3.8374023 32.0513916 6.8739014C1717.7137451 1121.4642334 1700.9110107 1113.9920654 1685.6623535 1114.590332zM1693.9219971 1110.3626709c0 0 10.3807373-3.3452148 19.1678467 4.8167725C1713.0898438 1115.1794434 1702.8308105 1108.4862061 1693.9219971 1110.3626709zM1615.4282227 1091.3480225c0 0 14.4012451-5.6818848 32.6590576 2.8139648C1648.0872803 1094.1619873 1630.4825439 1088.8486328 1615.4282227 1091.3480225zM1623.0947266 1086.1212158c0 0 9.8811035-4.6164551 19.6196289 2.3833008C1642.7143555 1088.5045166 1631.6989746 1083.1459961 1623.0947266 1086.1212158zM1553.5438232 1115.9794922c0 0 13.7618408-7.0915527 32.7768555-.4614258C1586.3206787 1115.5180664 1568.2731934 1111.9892578 1553.5438232 1115.9794922zM1560.6500244 1110.0133057c0 0 9.3707275-5.5800781 19.7595215.4122314C1580.4095459 1110.4255371 1568.9141846 1106.1937256 1560.6500244 1110.0133057zM1484.4645996 1168.2845459c0 0 10.8394775-11.053833 30.9746094-10.7290039C1515.439209 1157.555542 1497.1964111 1159.87146 1484.4645996 1168.2845459zM1489.3382568 1160.388916c0 0 7.1448975-8.2399902 18.8897705-5.8125C1508.2280273 1154.576416 1495.9853516 1154.1678467 1489.3382568 1160.388916z" class="colorea7f7d svgShape"/><path fill="#f7bb97" d="M1563.2388916,1299.6650391c1.1912842-0.6398926,116.4645996-59.6027832,135.4465332-47.3186035    c14.0115967,9.0675049,7.3752441,23.9195557,27.6644287,36.8220215c-2.6887207-0.2994385-9.2507324-29.25-11.3405762-39.399292    c-2.0897217-10.1494141-0.2994385-17.6098633,0.2995605-27.4597168    c0.5921631-9.8430176-0.2995605-28.9504395,0.2926025-38.5007324c0.598999-9.550293,11.3474121-55.2121582,13.1378174-66.5527344    c1.7901611-11.3405762,1.4906006-33.1300049,2.6818848-42.6802979c1.0006104-7.9438477,3.8459473-31.7889404,4.4313965-44.048584    c0,0-7.5218506,32.8985596-8.6517334,54.1026611c-1.1300049,21.1971436-8.8288574,58.7857666-11.5517578,69.6566162    c-2.7159424,10.8641357-11.6467285,74.4284668-50.4130859,92.1065674    C1626.4765625,1264.0639648,1586.2807617,1281.3404541,1563.2388916,1299.6650391z" class="colorf79997 svgShape"/><path fill="#eaa67d" d="M1679.7034912,1263.1497803c0,0-34.7164307-10.7376709-75.8399658,13.1162109    c-41.1237793,23.8538818-68.4998779,40.8431396-88.3303223,42.385498c0,0,16.7852783,7.3861084,75.135498-28.9559326    C1630.4769287,1264.9019775,1649.5351562,1261.4107666,1679.7034912,1263.1497803z" class="colorea7f7d svgShape"/><path fill="#eaa67d" d="M1581.5400391,1361.2641602c0,0,18.9785156-71.6893311,81.1224365-93.2325439    C1662.6624756,1268.0316162,1596.5883789,1278.5155029,1581.5400391,1361.2641602z" class="colorea7f7d svgShape"/></g><g><path fill="#ffede3" d="M988.9547729,1166.2496338c-5.0053101-2.7998047-123.9683228-69.7410889-244.9329834-170.8539429   C672.47229,935.5872192,615.3236084,876.2780151,574.1627808,819.114624   c-52.901123-73.4656372-79.7234802-144.052002-79.7234802-209.7958984   c0-164.7079163,133.9988098-298.7067261,298.7059631-298.7067261c77.3295288,0,151.4388428,30.0758972,206.8547363,83.2479858   c55.4158936-53.1720886,129.5251465-83.2479858,206.8547363-83.2479858   c164.7071533,0,298.7059326,133.9988098,298.7059326,298.7067261c0,65.7438965-26.8223877,136.3302612-79.7235107,209.7958984   c-41.1607666,57.1633911-98.3094482,116.4725952-169.8590088,176.2810669   c-120.9645996,101.112854-239.9276733,168.0541382-244.9329224,170.8539429L1000,1172.4279785L988.9547729,1166.2496338z" class="colore3fdff svgShape"/><path fill="#f7e4d9" d="M1206.8544922,333.2344971c-82.3536377,0-156.270874,36.0708008-206.8544922,93.2600098   c-50.5839233-57.189209-124.5012207-93.2600098-206.8547974-93.2600098   c-152.4769897,0-276.0839233,123.6069031-276.0839233,276.0839233C517.0612793,876.3201294,1000,1146.5075684,1000,1146.5075684   s482.9383545-270.187439,482.9383545-537.1891479C1482.9383545,456.8414001,1359.3314209,333.2344971,1206.8544922,333.2344971z" class="colord9f1f7 svgShape"/><path fill="#ab511c" d="M1482.9383545,609.3151855c0,5.5952148-0.2111816,11.2055054-0.6333008,16.8005981   c-10.164917,136.9086914-141.9609375,273.1386108-265.2058105,371.8461914   c-112.0847168,89.7944946-217.0963135,148.5363159-217.0963135,148.5363159s-28.3679199-15.8807373-71.3800659-43.7358398   C827.3665771,1037.1584473,645.0330811,905.105896,561.3012695,757.444519   c-10.2553711-18.0826416-19.0328979-36.3916016-26.0002441-54.8511353   c9.440979-41.4887695,41.4133301-107.3641968,149.3355713-107.3641968c157.5550537,0,151.371582,59.239624,284.5401001,45.9227905   c120.9224243-12.0952759,201.8338013-117.9664917,329.1506958-117.9664917   c106.2030029,0,159.6210938,44.7766113,184.4753418,77.5183105   C1482.8931885,603.5541992,1482.9383545,606.4346924,1482.9383545,609.3151855z" class="color1c5fab svgShape"/><path fill="#ffb88d" d="M1482.9383545,609.3151855c0,5.5952148-0.2111816,11.2055054-0.6333008,16.8005981   c-10.164917,136.9086914-141.9609375,273.1386108-265.2058105,371.8461914l-288.4763794,104.8004761   C827.3665771,1037.1584473,645.0330811,905.105896,561.3012695,757.444519   c-10.2553711-18.0826416-19.0328979-36.3916016-26.0002441-54.8511353   c9.440979-41.4887695,41.4133301-107.3641968,149.3355713-107.3641968c157.5550537,0,151.371582,59.239624,284.5401001,45.9227905   c120.9224243-12.0952759,201.8338013-117.9664917,329.1506958-117.9664917   c106.2030029,0,159.6210938,44.7766113,184.4753418,77.5183105   C1482.8931885,603.5541992,1482.9383545,606.4346924,1482.9383545,609.3151855z" class="colorff8f8d svgShape"/><path fill="#ff965c" d="M1482.3050537,626.1157837c-10.164917,136.9086914-141.9609375,273.1386108-265.2058105,371.8461914   c-112.0847168,89.7944946-217.0963135,148.5363159-217.0963135,148.5363159s-28.3679199-15.8807373-71.3800659-43.7358398   C827.3665771,1037.1584473,645.0330811,905.105896,561.3012695,757.444519   c44.2636108,28.9259033,133.168335,74.7581787,236.0834961,60.536377   c147.3753052-20.3900757,315.9545898-212.9638672,472.4086914-218.6948242   C1380.3398438,595.229187,1450.6038818,614.4730835,1482.3050537,626.1157837z" class="colorff605c svgShape"/><path fill="#ffffff" d="M678.7807617,419.1333923c-14.8804932-9.1434021-127.8426514,76.0858154-133.8652954,184.9455261   c-10.9102783,197.208374,334.6495361,372.3108521,352.2770386,352.2768555   c13.8622437-15.7547607-121.5280151-115.1206665-154.6429443-158.2237549   c-33.1148071-43.1032104-85.3722534-122.6217041-98.9967041-165.8709106   C610.3463135,526.8499146,693.4248657,428.1318054,678.7807617,419.1333923z" opacity=".5" class="colorfff svgShape"/><path fill="#ffffff" d="M713.7738037,382.0040894c-19.3803101,19.2711182,2.3513794,50.6705017-19.2792969,94.8471985   c-9.0927124,18.5700989-17.4247437,22.1958008-15.0650024,30.0515137   c6.4060059,21.3249207,80.671875,37.4277039,115.0823975,2.1932068   c34.9829712-35.8207092,17.723877-113.387207-23.9161377-132.3204041   C754.1706543,369.307312,727.7255859,368.1307983,713.7738037,382.0040894z" opacity=".5" class="colorfff svgShape"/></g><g><path fill="#ffffff" d="M490.8314819,1691.4521484c-9.3309937,0-18.3637085-1.6357422-26.8495789-4.8613281   c-22.4257202-8.5234375-41.368103-28.6308594-53.3378906-56.6191406   c-11.7866211-27.5585938-16.5063171-60.9726562-13.6503296-96.6298828   c0.4335022-5.4169922,5.0296936-9.6611328,10.4638062-9.6611328c0.2763977,0,0.5541992,0.0107422,0.8345032,0.0332031   c5.7772827,0.4619141,10.0967102,5.5332031,9.6351929,11.3046875   c-5.1092834,63.7675781,16.8974915,118.0244141,53.5157166,131.9433594   c6.0536804,2.2998047,12.5677795,3.4667969,19.3607788,3.4667969   c36.0644836,0.0039062,73.5028992-31.7724609,93.6161804-48.8427734   c55.8047485-47.3662109,85.6680298-111.6015625,100.8955078-157.1494141   c4.2988892-12.8583984,7.9932251-25.8613281,11.0220337-38.7822266   c-11.2456055,3.6181641-22.5435181,6.6914062-33.7070312,9.1660156   c-8.7670898,1.9414062-31.3676758,6.4580078-51.8496094,6.4589844   c-20.3671875,0.0009766-33.5332031-4.2597656-40.2504883-13.0253906   c-7.5581055-9.8623047-4.7915039-26.3759766,8.4575195-50.4824219   c9.397522-17.0976562,21.3314819-33.0107422,26.0263672-39.0585938   c12.1972046-15.7119141,54.4804077-66.9775391,86.4741211-66.9775391c3.6494141,0,7.0775757,0.6728516,10.1893921,2.0009766   c12.0411377,5.1367188,19.9517212,19.6679688,23.512207,43.1875c3.1846313,21.0371094,2.6923828,47.1298828-1.3959961,75.9804688   c13.0859985-5.6904297,25.2006836-11.9179688,36.1245728-18.5751953   c33.1523438-20.2070312,53.3613281-43.0302734,58.4418945-66.0029297   c3.6357422-16.4384766-0.2983398-33.6083984-12.0273438-52.4902344   c-11.2319336-18.0830078-29.2607422-37.2216797-55.1162109-58.5097656   c-49.206543-40.5136719-117.5513306-81.265625-189.9086914-124.4091797   C404.1138,979.1904297,241.5894012,882.2855835,256.8978882,772.5551758   c4.3204041-30.9677734,23.1773071-62.2890625,54.5317993-90.578064   c27.3716125-24.6948853,64.3647156-46.9395142,104.1665039-62.6358032   c36.7431946-14.4907227,73.5751953-22.7938843,106.5145874-24.0126953c2.7382812-0.1015015,5.4790039-0.152832,8.1450806-0.152832   c32.6704102,0,59.4598999,7.7128906,77.4725952,22.305603c48.593811,39.3682251,34.4507446,124.8721313,20.7730103,207.5606079   c-12.2885742,74.289978-23.8954468,144.4603882,10.6357422,167.7523804c7.7836914,5.25,17.7440796,7.9117432,29.6034546,7.9117432   c14.5527954,0,32.1494141-3.9732056,52.300354-11.8096313c28.3980103-11.0443726,62.371582-29.9942017,100.9775391-56.3222656   c1.7509155-1.1943359,3.7954712-1.8257446,5.9116211-1.8257446c3.4769897,0,6.7211914,1.7139282,8.6791992,4.5840454   c1.5800781,2.3168945,2.1635132,5.1109009,1.6426392,7.8666992c-0.5209961,2.7558594-2.0839844,5.144104-4.4009399,6.7246094   c-39.9224243,27.2255859-75.3164062,46.9223633-105.1987915,58.5439453   c-22.5355835,8.7646484-42.7089233,13.2080078-59.9589233,13.2090454   c-16.1166992,0.0008545-30.0117798-3.859436-41.2998047-11.4727173   C581.6884766,979.375,594.3637695,902.7451172,607.7827148,821.6162109   c12.6977539-76.7661133,25.8266602-156.140625-13.2734375-187.8173828   c-14.2315063-11.5298462-36.4351196-17.6240234-64.2099609-17.6240234c-2.4209595,0-4.9145508,0.046875-7.4121094,0.1397095   c-30.5923157,1.1317749-65.0288086,8.9334717-99.5869141,22.5625   c-37.5190125,14.7962646-72.2524109,35.6400757-97.8027039,58.6922607   c-27.6425781,24.9390259-44.1713867,51.8721313-47.8007812,77.887207   c-5.8828125,42.1646118,21.3300781,87.8754883,83.1932678,139.7456055   c56.835022,47.6539307,135.280304,94.4277954,211.1431274,139.6611938   c73.8706055,44.0449219,143.6366577,85.6425781,194.1499023,127.609375   c27.4330444,22.7919922,46.6939087,43.6552734,58.8822632,63.78125   c13.8671875,22.8984375,18.5103149,45.3085938,13.7998047,66.6074219   c-6.3451538,28.6894531-29.8651733,56.1455078-68.0180054,79.3984375   c-14.9981079,9.1425781-32.6621094,17.7880859-51.262146,25.0996094   c-3.6582642,18.1113281-8.4815674,36.171875-14.3531494,53.7353516c-16.0751953,48.0839844-47.7240601,116-107.2084961,166.4892578   c-22.1791992,18.8242188-63.4624023,53.8632812-107.1820984,53.8681641   C490.8412781,1691.4521484,490.8344727,1691.4521484,490.8314819,1691.4521484z M587.3764648,1415.6796875   c1.4570312,1.4482422,7.9725952,4.5927734,24.0537109,4.59375c0.0004883,0,0.0029297,0,0.0039062,0   c12.9404297,0,29.0712891-2.0595703,46.6517944-5.9560547c14.3096313-3.1708984,28.7901001-7.3642578,43.0928345-12.4755859   c5.2870483-30.8017578,6.4776001-60.4414062,3.2475586-81.7744141   c-2.8526001-18.8417969-8.2504883-25.8476562-10.9907837-27.0166016c-0.5297241-0.2255859-1.2230835-0.3408203-2.059021-0.3408203   c-11.6655884,0-40.0839844,20.6367188-69.774353,58.8818359c-15.0567017,19.3955078-23.406311,34.2363281-27.7593384,43.2705078   C587.5957031,1407.8271484,587.0375977,1414.0761719,587.3764648,1415.6796875z" class="colorfff svgShape"/><path fill="#ff965c" d="M490.8407898,1685.4521484c-8.2524109,0.0009766-16.5371094-1.3564453-24.7269897-4.4697266   c-20.8897095-7.9394531-38.6299133-26.8935547-49.9532166-53.3701172   c-11.4057007-26.6689453-15.9647827-59.1015625-13.1860046-93.7910156c0.1983032-2.4775391,2.358429-4.3222656,4.8452148-4.1259766   c2.4776001,0.1982422,4.324707,2.3671875,4.1264954,4.8447266   c-5.3208008,66.4101562,18.2684937,123.1699219,57.3647156,138.0302734   c7.0546875,2.6806641,14.2660828,3.8583984,21.4926758,3.8583984c38.2749329,0.0039062,77.1470032-32.9951172,97.5112-50.2792969   c56.8482056-48.2519531,87.2211914-113.5390625,102.690979-159.8105469   c5.8071289-17.3701172,10.2236328-34.0654297,13.4819336-49.7607422   c-14.1704102,4.9882812-28.7398071,9.1884766-43.1558228,12.3837891   c-16.5853882,3.6738281-71.8016968,14.2216797-86.0389404-4.3574219   c-13.8824463-18.1152344,26.2704468-71.6611328,34.4608765-82.2119141   c27.2650757-35.1230469,67.0829468-72.7333984,89.5688477-63.1376953   c9.8588257,4.2060547,16.7519531,17.5429688,19.9345093,38.5673828   c3.5166016,23.2294922,2.3013306,53.0439453-3.0326538,84.7402344   c16.8959961-6.7587891,32.8564453-14.6025391,46.8164062-23.1103516   c34.5810547-21.0771484,55.7358398-45.2236328,61.1777344-69.8300781   c3.9907227-18.0439453-0.1923828-36.6728516-12.7890625-56.9521484   c-11.5825195-18.6474609-30.0308228-38.265625-56.3994141-59.9755859   c-49.5614624-40.8066406-118.1040039-81.6748047-190.6704102-124.9433594   c-155.4921875-92.711853-316.2778625-188.5800781-301.5195618-294.3666992   c4.1230774-29.5531616,22.3150024-59.6206055,52.6088867-86.9521484   c26.8511047-24.2260132,63.1991882-46.0703125,102.3482056-61.5092163   c36.1185913-14.2442017,72.2666016-22.4042969,104.5350647-23.5982056   c34.9790039-1.2988281,63.210022,5.9047852,81.6192017,20.8189087   c45.8807983,37.1704102,32.027832,120.9237671,18.6303101,201.9193726   c-12.6117554,76.2446289-24.5233765,148.2601929,13.199707,173.7056274   c19.1713867,12.9295654,48.5889282,11.8261108,87.434082-3.2803345   c28.8223267-11.2094727,63.2017212-30.3725586,102.1831055-56.9569702c2.0527954-1.4000244,4.8531494-0.8710938,6.253418,1.1820679   c1.4003906,2.0532227,0.8710938,4.8530273-1.1821289,6.253418c-39.5458984,26.968689-74.5336914,46.4520874-103.9926758,57.9091797   c-41.7573242,16.2391968-73.9672241,17.0322266-95.7284546,2.3535156   c-42.5127563-28.675293-30.1426392-103.460022-17.0464478-182.6353149   c12.9771118-78.4559937,26.3964844-159.5829468-15.4165039-193.4574585   c-16.6928101-13.5239258-42.8422852-20.0327148-75.6210938-18.8182983   c-31.2621765,1.1566772-66.3833008,9.1019897-101.5658875,22.9769897   c-38.1708984,15.0531616-73.550293,36.2973633-99.6210938,59.8189087   c-28.7026062,25.8963623-45.8969116,54.0830078-49.7236023,81.5130615   c-6.1918945,44.3793945,21.7036133,91.8658447,85.2807922,145.1724243   c57.2059937,47.9647827,135.8647156,94.8651733,211.9336243,140.2216797   c145.2412109,86.5996094,282.4266968,168.3964844,264.0379639,251.5439453   c-5.9838867,27.0566406-28.5581055,53.1884766-65.2821655,75.5712891   c-15.8013306,9.6318359-34.0879517,18.4316406-53.3848267,25.8222656   c-3.609314,18.5878906-8.5819702,37.6386719-14.7982788,56.2333984   c-15.8330078,47.359375-46.9711914,114.2236328-105.4009399,163.8173828   C572.8476562,1651.0820312,532.3510742,1685.4472656,490.8407898,1685.4521484z M691.3764648,1286.7099609   c-15.7026978,0-46.1987915,24.7285156-74.5136719,61.2021484c-27.664978,35.6367188-39.4102173,64.7148438-34.4263306,71.2177734   c5.710022,7.4511719,32.2246094,10.9580078,76.9478149,1.0449219c15.7728882-3.4951172,31.727478-8.2207031,47.1011353-13.875   c6.6634521-36.828125,6.8612671-67.3945312,3.8734741-87.1308594   c-2.6148071-17.2705078-7.9243164-28.8017578-14.5684204-31.6367188   C694.4936523,1286.9794922,693.0145874,1286.7099609,691.3764648,1286.7099609z" class="colorff605c svgShape"/><path fill="#fbf6f3" d="M855.741272,999.8275757l-90.6593628-74.5224609    c-3.3359985-2.7421875-5.2524414-6.571228-5.6578369-10.5527954c-0.409668-4.0245972,0.7241211-8.2051392,3.4959106-11.5770264    l15.0778198-18.3427124c2.4028931-2.9231567,5.6401978-4.7564087,9.0834961-5.4381104    c4.4580688-0.8825684,9.2615967,0.1651001,13.0463867,3.2762451l90.6593018,74.5224609    c3.3540039,2.756897,5.2730103,6.6124268,5.6641846,10.6171265c0.3912964,4.0046997-0.7453003,8.1586914-3.5023193,11.5126953    l-15.0777588,18.3427124c-2.6776123,3.2573853-6.3912964,5.1613159-10.2716064,5.6265869    C863.4890747,1003.7852173,859.1918945,1002.6640015,855.741272,999.8275757z" class="colorfafbf3 svgShape"/><path fill="#ffeade" d="M831.3729858,959.2943726l-21.8081055-17.9263916    c-1.6862793-1.3861694-2.5383911-3.4108887-2.4938965-5.4362793c0.0324097-1.4779053,0.5422974-2.9561157,1.553894-4.1867065    l6.2481079-7.6010132c1.1923828-1.4506836,2.8574829-2.2839966,4.5889893-2.4602661    c1.7498779-0.1781006,3.567688,0.3150024,5.0338745,1.5202026l21.8081665,17.9263916    c1.0938721,0.8991089,1.8366699,2.0668945,2.2114868,3.3292847c0.6246948,2.1040039,0.2271729,4.4705811-1.2714233,6.2935791    l-6.2481079,7.6011353c-1.4985962,1.822998-3.7434692,2.6710815-5.9285889,2.4653931    C833.7564087,960.6962891,832.4668579,960.1934814,831.3729858,959.2943726z" class="colorffeade svgShape"/></g><g><path fill="#fbf6f3" d="M445.2909851,1553.0871582h-75.2687073c-2.7696838,0-5.278595-1.1165771-7.1010742-2.9241943    c-1.8421021-1.8270264-2.9829102-4.3601074-2.9829102-7.159668v-15.2287598c0-2.427002,0.8573914-4.6536865,2.2857971-6.3937988    c1.8493042-2.2529297,4.6559143-3.6901855,7.7981873-3.6901855h75.2687073c2.7846069,0,5.305603,1.1286621,7.1304016,2.9534912    c1.8248901,1.8248291,2.9536133,4.3458252,2.9536133,7.1304932v15.2287598c0,2.7043457-1.0646973,5.1601562-2.797699,6.9709473    C450.7415771,1551.8925781,448.1557922,1553.0871582,445.2909851,1553.0871582z" class="colorfafbf3 svgShape"/><path fill="#f4dfd3" d="M386.4492798,1517.6893311c-6.2487793,11.0070801-11.3540955,22.9262695-15.5609741,35.3967285h-0.864502    c-2.7704163,0-5.2823181-1.116333-7.0997925-2.920166c-1.8447266-1.8310547-2.9882202-4.3632812-2.9882202-7.1610107v-15.2275391    c0-2.4300537,0.8576965-4.6558838,2.2871094-6.3985596c1.851593-2.2531738,4.6560974-3.6894531,7.8009033-3.6894531H386.4492798z" class="colorf2f4d3 svgShape"/><path fill="#ffeade" d="M416.7095947,1542.9290771h-18.105896c-1.3999939,0-2.6469116-0.6561279-3.449707-1.6777344    c-0.5858154-0.7454834-0.9352112-1.6854248-0.9352112-2.7071533v-6.3106689c0-1.2044678,0.4855957-2.2954102,1.271698-3.0878906    c0.7945251-0.8009033,1.8959045-1.2969971,3.1132202-1.2969971h18.105896c0.9080811,0,1.7518005,0.276123,2.4515991,0.7489014    c1.1663818,0.7879639,1.9332886,2.1224365,1.9332886,3.6359863v6.3106689c0,1.5135498-0.7669067,2.8480225-1.9332886,3.6359863    C418.4613953,1542.6529541,417.6176758,1542.9290771,416.7095947,1542.9290771z" class="colorffeade svgShape"/><path fill="#fbf6f3" d="M445.2884827,1638.2783203h-75.2687988c-2.7696838,0-5.2785034-1.1165771-7.1009827-2.9241943    c-1.8421021-1.8271484-2.9829102-4.3602295-2.9829102-7.159668v-15.2288818c0-2.427002,0.8573914-4.6536865,2.2857056-6.3937988    c1.8493958-2.2529297,4.6560059-3.6901855,7.7981873-3.6901855h75.2687988c2.7846069,0,5.3055115,1.1286621,7.1304016,2.9534912    c1.8247986,1.8249512,2.9534912,4.3459473,2.9534912,7.1304932v15.2288818c0,2.7043457-1.0645752,5.1601562-2.7975769,6.9709473    C450.7390137,1637.0837402,448.1531982,1638.2783203,445.2884827,1638.2783203z" class="colorfafbf3 svgShape"/><path fill="#ffeade" d="M416.7070007,1628.1202393h-18.1058044c-1.400116,0-2.6469116-0.6561279-3.449707-1.6777344    c-0.5857849-0.7454834-0.9352112-1.6855469-0.9352112-2.7071533v-6.310791c0-1.2043457,0.4855042-2.2954102,1.2716064-3.0878906    c0.7944946-0.8009033,1.8959961-1.2969971,3.1133118-1.2969971h18.1058044c0.9082031,0,1.7518005,0.276123,2.4516907,0.7489014    c1.1664124,0.7880859,1.933197,2.1225586,1.933197,3.6359863v6.310791c0,1.5135498-0.7667847,2.8479004-1.933197,3.6359863    C418.4588928,1627.8441162,417.6152039,1628.1202393,416.7070007,1628.1202393z" class="colorffeade svgShape"/></g><g><path fill="#ffffff" d="M1498.71875,1704.2695312c-7.8242188,0-16.1035156-0.6523438-24.6064453-1.9394531   c-30.4707031-4.6103516-61.5996094-20.8066406-92.5214844-48.1386719   c-28.5488281-25.2333984-55.8828125-59.4736328-79.046875-99.0175781   c-23.2851562-39.7470703-42.0537109-84.3613281-54.2792969-129.0214844   c-13.1962891-48.2080078-18.6826172-94.9912109-16.3066406-139.0517578   c3.8984375-72.3173828,37.6289062-135.3203125,103.1191406-192.6083984   c55.9443359-48.9384766,127.0546875-86.7001953,189.7939453-120.0166016   c46.2910156-24.581604,90.0019531-47.793457,119.9609375-71.5025024   c30.8964844-24.4491577,43.8369141-46.7025757,40.7246094-70.0326538   c-2.9169922-21.875-18.9833984-44.9897461-46.4628906-66.8462524   c-26.9208984-21.4144897-63.9345703-41.0429077-107.0371094-56.7630615   c-62.0068359-22.6138306-133.6220703-35.5834961-196.484375-35.5834961c-2.6230469,0-5.2626953,0.0223999-7.8466797,0.0672607   c-72.7939453,1.2626953-130.2822266,19.2452393-166.2480469,52.0039062   c-39.9951172,36.4263306-58.3203125,73.8707275-54.4658203,111.2930298   c1.3945312,13.5546875,10.5888672,60.4672852,70.3154297,95.050293c5.0097656,2.9024048,6.7255859,9.3383789,3.8251953,14.3482056   c-1.8720703,3.2318726-5.3554688,5.2391968-9.0908203,5.2391968c-1.8408203,0-3.6582031-0.4882812-5.2558594-1.4125977   c-17.2753906-10.0039062-74.1455078-47.5751953-80.6845703-111.0742188   c-2.9482422-28.6337891,4.8212891-57.352478,23.0908203-85.3574219   c14.2851562-21.8969727,30.9882812-37.1109009,38.1201172-43.6073608   c39.8027344-36.2529907,102.0537109-56.1279907,180.0292969-57.4800415   c2.8251953-0.0488892,5.7041016-0.0732422,8.5585938-0.0732422c65.9482422,0,138.1601562,13.0893555,203.3320312,36.8578491   c47.5078125,17.3262329,87.8642578,39.1602173,116.7070312,63.1412354   c29.4960938,24.5249023,46.9296875,51.2962646,50.4140625,77.4193726   c4.1884766,31.4053345-11.2255859,59.7739258-48.5087891,89.2773438   c-31.4589844,24.8954468-75.9941406,48.5449829-123.1445312,73.5824585   c-61.7324219,32.7817993-131.7021484,69.9370728-185.8164062,117.2749634   c-61.0039062,53.3642578-92.3984375,111.5664062-95.9765625,177.9335938   c-2.2529297,41.8085938,2.9931641,86.3466797,15.5927734,132.3769531   c11.7441406,42.9052734,29.7753906,85.7666016,52.1435547,123.9511719   c45.6064453,77.8535156,104.1445312,129.0712891,156.5898438,137.0068359   c7.4521484,1.1269531,14.6591797,1.6982422,21.4208984,1.6982422c19.9462891,0,36.8789062-4.9404297,50.3271484-14.6865234   c50.0683594-36.2871094,33.7402344-127.4052734,33.0205078-131.265625   c-1.0605469-5.6904297,2.7070312-11.1835938,8.3974609-12.2460938c0.6386719-0.1181641,1.2861328-0.1787109,1.9287109-0.1787109   c5.0527344,0,9.3925781,3.6074219,10.3183594,8.5771484c0.5556641,2.9824219,5.3496094,30.0410156,2.6132812,61.3095703   c-3.6552734,41.7666016-18.4433594,72.3183594-43.9560547,90.8076172   C1544.2148438,1697.9824219,1523.1513672,1704.2695312,1498.71875,1704.2695312z" class="colorfff svgShape"/><path fill="#ff965c" d="M1498.71875,1698.2695312c-7.5498047,0-15.4560547-0.6230469-23.7089844-1.8720703   c-29.3095703-4.4345703-59.4033203-20.1474609-89.4453125-46.7021484   c-28.078125-24.8173828-54.9960938-58.5507812-77.84375-97.5537109   c-23.0234375-39.3017578-41.5810547-83.4150391-53.6689453-127.5732422   c-13.0253906-47.5849609-18.4433594-93.7275391-16.1025391-137.1445312   c3.8066406-70.6171875,36.8701172-132.2490234,101.078125-188.4160156   c55.4208984-48.4804688,126.2060547-86.0693359,188.6582031-119.2329102   c46.5302734-24.7089844,90.4804688-48.0474243,120.8701172-72.0966797   c32.7207031-25.8934937,46.3681641-49.894043,42.9482422-75.53125   c-3.1259766-23.4428711-19.9580078-47.9076538-48.6748047-70.7485962   c-27.421875-21.8125-65.0166016-41.7660522-108.7167969-57.7041016   c-65.6396484-23.9389038-140.9052734-37.0150757-206.4912109-35.8783569   c-74.2744141,1.2880859-133.1230469,19.8114624-170.1835938,53.5673828   c-41.4804688,37.7788086-60.4541016,76.9224243-56.3945312,116.3433228   c1.46875,14.2689819,11.0957031,63.6234741,73.2773438,99.6278687c2.1503906,1.2456055,2.8847656,3.9985352,1.6396484,6.1494141   c-1.2460938,2.1513672-3.9990234,2.8837891-6.1494141,1.6397095   c-16.6523438-9.6426392-71.4726562-45.8189087-77.7207031-106.4952393   c-2.8037109-27.2313843,4.6474609-54.6400757,22.1474609-81.4647827   c13.8691406-21.2597656,30.1767578-36.1118164,37.1396484-42.4541016   c38.703125-35.2514648,99.59375-54.5858765,176.0878906-55.9125977   c67.6425781-1.1654663,142.1152344,11.7626953,209.7314453,36.4224243   c95.5205078,34.836853,156.5400391,85.5722046,163.2294922,135.7171631   c3.8808594,29.0977173-10.8261719,55.7192993-46.2851562,83.7789307   c-31.03125,24.5570679-75.3320312,48.0819702-122.234375,72.9881592   c-62.0205078,32.9346313-132.3164062,70.2637329-186.953125,118.0586548   c-62.2861328,54.4853516-94.3476562,114.0595703-98.0175781,182.1259766   c-2.2880859,42.4511719,3.0263672,87.6308594,15.796875,134.2841797   c11.8818359,43.4072266,30.1240234,86.7695312,52.7539062,125.4003906   c46.5126953,79.4003906,106.6513672,131.7021484,160.8691406,139.90625   c31.1611328,4.7128906,56.7851562-0.0175781,76.1660156-14.0625   c53.1113281-38.4931641,36.1464844-133.2099609,35.3984375-137.2236328   c-0.4550781-2.4423828,1.15625-4.7919922,3.5996094-5.2480469c2.4423828-0.4541016,4.7929688,1.15625,5.2480469,3.5986328   c0.5400391,2.8994141,5.2021484,29.1992188,2.5341797,59.6875c-3.4960938,39.9560547-17.4580078,69.0498047-41.4990234,86.4726562   C1541.6933594,1692.3994141,1521.8867188,1698.2695312,1498.71875,1698.2695312z" class="colorff605c svgShape"/><path fill="#fbf6f3" d="M1144.258667,999.8275757l90.6594238-74.5224609    c3.3360596-2.7421875,5.2524414-6.571228,5.6578369-10.5527954c0.409668-4.0245972-0.7241211-8.2051392-3.4959717-11.5770264    l-15.0777588-18.3427124c-2.4029541-2.9231567-5.6401367-4.7564087-9.0834961-5.4381104    c-4.4581299-0.8825684-9.2615967,0.1651001-13.0463867,3.2762451l-90.6593018,74.5224609    c-3.3540039,2.756897-5.2730713,6.6124268-5.6641846,10.6171265c-0.3913574,4.0046997,0.7452393,8.1586914,3.5023193,11.5126953    l15.0777588,18.3427124c2.6776123,3.2573853,6.3912354,5.1613159,10.2716064,5.6265869    C1136.5108643,1003.7852173,1140.8081055,1002.6640015,1144.258667,999.8275757z" class="colorfafbf3 svgShape"/><path fill="#ffeade" d="M1168.6269531,959.2943726l21.8081055-17.9263916    c1.6864014-1.3861694,2.5384521-3.4108887,2.4938965-5.4362793c-0.0323486-1.4779053-0.5422363-2.9561157-1.553833-4.1867065    l-6.2481689-7.6010132c-1.1923828-1.4506836-2.8574219-2.2839966-4.5889893-2.4602661    c-1.7498779-0.1781006-3.567627,0.3150024-5.0338135,1.5202026l-21.8081055,17.9263916    c-1.0939941,0.8991089-1.836792,2.0668945-2.2115479,3.3292847c-0.6247559,2.1040039-0.2271729,4.4705811,1.2713623,6.2935791    l6.2481689,7.6011353c1.4985352,1.822998,3.7435303,2.6710815,5.9285889,2.4653931    C1166.2436523,960.6962891,1167.5330811,960.1934814,1168.6269531,959.2943726z" class="colorffeade svgShape"/></g><g><path fill="#fbf6f3" d="M1554.7089844,1553.0871582h75.2686768c2.7697754,0,5.2786865-1.1165771,7.1011963-2.9241943    c1.842041-1.8270264,2.9827881-4.3601074,2.9827881-7.159668v-15.2287598c0-2.427002-0.8572998-4.6536865-2.2857666-6.3937988    c-1.8492432-2.2529297-4.6558838-3.6901855-7.7982178-3.6901855h-75.2686768c-2.7845459,0-5.305542,1.1286621-7.1303711,2.9534912    c-1.8249512,1.8248291-2.9536133,4.3458252-2.9536133,7.1304932v15.2287598c0,2.7043457,1.0646973,5.1601562,2.7977295,6.9709473    C1549.2584229,1551.8925781,1551.8442383,1553.0871582,1554.7089844,1553.0871582z" class="colorfafbf3 svgShape"/><path fill="#f4dfd3" d="M1613.5506592,1517.6893311c6.2489014,11.0070801,11.354126,22.9262695,15.5610352,35.3967285h0.864502    c2.7703857,0,5.2823486-1.116333,7.0998535-2.920166c1.8446045-1.8310547,2.9881592-4.3632812,2.9881592-7.1610107v-15.2275391    c0-2.4300537-0.857666-4.6558838-2.2871094-6.3985596c-1.8515625-2.2531738-4.6561279-3.6894531-7.8009033-3.6894531H1613.5506592    z" class="colorf2f4d3 svgShape"/><path fill="#ffeade" d="M1583.2904053,1542.9290771h18.105835c1.4000244,0,2.6469727-0.6561279,3.449707-1.6777344    c0.5858154-0.7454834,0.9353027-1.6854248,0.9353027-2.7071533v-6.3106689c0-1.2044678-0.4855957-2.2954102-1.2717285-3.0878906    c-0.7945557-0.8009033-1.895874-1.2969971-3.1132812-1.2969971h-18.105835c-0.9080811,0-1.7518311,0.276123-2.4516602,0.7489014    c-1.1663818,0.7879639-1.9332275,2.1224365-1.9332275,3.6359863v6.3106689c0,1.5135498,0.7668457,2.8480225,1.9332275,3.6359863    C1581.5385742,1542.6529541,1582.3823242,1542.9290771,1583.2904053,1542.9290771z" class="colorffeade svgShape"/><path fill="#fbf6f3" d="M1554.7115479,1638.2783203h75.2687988c2.7696533,0,5.2784424-1.1165771,7.1009521-2.9241943    c1.842041-1.8271484,2.9829102-4.3602295,2.9829102-7.159668v-15.2288818c0-2.427002-0.8574219-4.6536865-2.2857666-6.3937988    c-1.8493652-2.2529297-4.6558838-3.6901855-7.7980957-3.6901855h-75.2687988c-2.784668,0-5.305542,1.1286621-7.1304932,2.9534912    c-1.824707,1.8249512-2.9534912,4.3459473-2.9534912,7.1304932v15.2288818c0,2.7043457,1.0646973,5.1601562,2.7976074,6.9709473    C1549.2609863,1637.0837402,1551.8468018,1638.2783203,1554.7115479,1638.2783203z" class="colorfafbf3 svgShape"/><path fill="#ffeade" d="M1583.2929688,1628.1202393h18.105835c1.4001465,0,2.6468506-0.6561279,3.449707-1.6777344    c0.5858154-0.7454834,0.9351807-1.6855469,0.9351807-2.7071533v-6.310791c0-1.2043457-0.4854736-2.2954102-1.2716064-3.0878906    c-0.7944336-0.8009033-1.8959961-1.2969971-3.1132812-1.2969971h-18.105835c-0.9082031,0-1.751709,0.276123-2.4516602,0.7489014    c-1.1663818,0.7880859-1.9332275,2.1225586-1.9332275,3.6359863v6.310791c0,1.5135498,0.7668457,2.8479004,1.9332275,3.6359863    C1581.5411377,1627.8441162,1582.3847656,1628.1202393,1583.2929688,1628.1202393z" class="colorffeade svgShape"/></g></svg>