<svg xmlns="http://www.w3.org/2000/svg" data-name="Layer 1" viewBox="0 0 1500 1300"><defs><clipPath id="a"><path fill="none" d="M487.18 362.61c.42 4-.89 6.79-3.17 11.21-.47.91-1 1.9-1.54 3-1.31 2.6-2.83 5.76-4.46 9.83a121.49 121.49 0 0 0-5.16 16.17L452 383.7a244.35 244.35 0 0 0 9.18-19.06c5.59-13 6.33-17.82 10-18.68 5.67-1.31 15.04 7.44 16 16.65Z"/></clipPath><clipPath id="b"><path fill="none" d="M536.45 353.15c-.71-2.48-3.91-3.34-12.69-5.51-14.36-3.55-16.48-3.89-18.39-4.15a111.69 111.69 0 0 0-11.68-1 61 61 0 0 0-9.43.73 6.82 6.82 0 0 1-2-3.05c-.63-2 .13-2.87-.87-5.65-.48-1.32-1.12-3-2.61-3.47a3.42 3.42 0 0 0-2.6.43c-1.8 1.17-1.74 3.72-2.18 6.95a40.92 40.92 0 0 1-1.67 7.24l-1.12.29q-3.54 11.25-7.09 22.51h2.55c7.56 3.78 13.24 5.13 17.18 5.62 0 0 8.41 1 12.59 4.36.5.4 1 .75 1.53 1.17 1 .89 2.1 2.56 3.53 2.39 1.65-.2 3-2.61 3.32-4.4a9.85 9.85 0 0 0 .11-2.76 12.83 12.83 0 0 0-.42-2.07 1.55 1.55 0 0 1 .06-1.13 1.3 1.3 0 0 1 .58-.56 7.84 7.84 0 0 0 1.76-.73c.76-.62 1.3-2.08.42-5.74-.08-.31-.16-.64-.26-1a6.08 6.08 0 0 0 .88-.7 6.54 6.54 0 0 0 .61-9.17 5.24 5.24 0 0 0-.35-.4q1.8.06 3.48.18a65.85 65.85 0 0 1 15.23 2.84c2.72.86 6.77 2.36 8.68.53a4 4 0 0 0 .85-3.75Z"/></clipPath></defs><g data-name="background 2"><ellipse cx="510.35" cy="1117.37" fill="#f4d1bd" opacity=".33" rx="171.38" ry="38.33" class="colorbddff4 svgShape"/><path fill="#f4d1bd" d="M868.44 1118.47c-94.65 0-171.38 17.16-171.38 38.32 0 2.68 1.23 5.3 3.57 7.82-13.9-.81-28.49-1.25-43.54-1.25-94.65 0-171.38 17.16-171.38 38.33S562.44 1240 657.09 1240s171.38-17.16 171.38-38.33c0-2.68-1.24-5.29-3.58-7.82 13.91.82 28.5 1.25 43.55 1.25 94.65 0 171.38-17.16 171.38-38.33s-76.73-38.3-171.38-38.3zM1026.61 377.48C985.76 226.68 848 115.74 684.22 115.74c-195.89 0-354.69 158.81-354.69 354.7 0 187.67 145.76 341.29 330.24 353.85 8.18 37.14 24.4 79.67 55.82 119 113.8 142.24 364.66 163.84 512.3 42.07 13.73-11.33 108.25-91.82 117.37-223.66 11.63-168.31-119.49-367.36-318.65-384.22z" opacity=".33" class="colorbddff4 svgShape"/><path fill="#cea791" d="M1034.45 1002.79s15.89-364.29 49.9-331.6-26.53 265.7-10.66 296.16c0 0 44.1-318.52 91.78-322.3s-57.37 331-57.37 331 103-237.28 142.37-199.34-115.81 233.46-115.81 233.46 194.24-190.55 214.93-131.43-228.2 202-228.2 202-90.02-20.19-86.94-77.95Z" opacity=".61" class="color91b7ce svgShape"/><path fill="#ffffff" d="M1051.22 1045.65s42.42-216.94 58.76-201.06-39.44 159.75-33.21 176.15c0 0 54.27-192.75 81.72-199.81s-63 201.47-63 201.47 80.29-150.68 99.2-132.24-87.24 149.72-87.24 149.72 127.88-132.29 134.22-99.43-148.23 142.49-148.23 142.49-49.27-2.83-42.22-37.29Z" class="colorfff svgShape"/><path fill="#cea791" d="M354.4 1031.88S108 763.07 155.18 762.13s169.14 206.63 201.91 217c0 0-194.07-256.4-163-292.79S387.57 960.9 387.57 960.9s-95-240.6-40.3-241.62 83.21 247 83.21 247 2.59-272.09 59-244.91S471 1025.52 471 1025.52s-77.93 49.38-116.6 6.36Z" opacity=".61" class="color91b7ce svgShape"/><path fill="#ffffff" d="M396.57 1050.33S273.15 866.94 295.93 866.62 381 1007.45 397 1014.64c0 0-97.93-174.65-83.52-199s98 187 98 187-49.8-163.41-23.39-163.74 44.19 167.55 44.19 167.55-3.13-184 24.59-165.22-4.05 205.57-4.05 205.57-36.82 32.88-56.25 3.53Z" class="colorfff svgShape"/><circle cx="791.32" cy="273.78" r="22.88" fill="#cccbca" transform="rotate(-22.5 791.304 273.789)" class="colorcccbca svgShape"/><circle cx="992.1" cy="273.78" r="22.88" fill="#cccbca" transform="rotate(-22.5 992.1 273.775)" class="colorcccbca svgShape"/><path fill="#cccbca" d="M796.49 536.57h-10.34V268.62h203.74v-93.75h10.33v104.08H796.49v257.62zM1222.72 571.94h-141.73V561.6h131.39V490h10.34v81.94z" class="colorcccbca svgShape"/><circle cx="1217.55" cy="566.77" r="22.88" fill="#cccbca" class="colorcccbca svgShape"/><rect width="160.72" height="109.94" x="1142.3" y="399.2" fill="#b8834b" rx="22.45" class="color4b5fb8 svgShape"/><path fill="#ffffff" d="M1180.68 470.55a11.46 11.46 0 0 0 1.17.06h1.15a5.27 5.27 0 0 0 3.54-1.38c.86-.84 1.29-2.31 1.29-4.39v-31.32h4.54v31a14.9 14.9 0 0 1-.68 4.83 8.39 8.39 0 0 1-1.86 3.15 6.49 6.49 0 0 1-2.79 1.7 12.84 12.84 0 0 1-3.45.56h-1.47a7.79 7.79 0 0 1-1.41-.08ZM1201.52 466.43l-1.59 8.31h-4.24l7.89-41.22h6.65l7.89 41.22h-4.59l-1.59-8.31Zm.59-3.94h9.18l-4.65-23.79ZM1223.72 433.52l6.71 35.86 6.65-35.86h4.24l-7.71 41.22h-6.77l-7.77-41.22ZM1248 466.43l-1.59 8.31h-4.24l7.89-41.22h6.65l7.89 41.22h-4.59l-1.59-8.31Zm.58-3.94h9.19l-4.65-23.79Z" class="colorfff svgShape"/><path fill="#cccbca" d="M999.79 427.25h-10.33V260.43h180.11v10.33H999.79v156.49z" class="colorcccbca svgShape"/><rect width="214.07" height="123.27" x="1131.92" y="221.81" fill="#e0ccc0" rx="27.44" class="colore0c4c0 svgShape"/><path fill="#ffffff" d="M1174.38 260.39c3.65 0 6.28 1 7.91 3s2.43 4.75 2.43 8.26v5.53c0 3.69-.86 6.47-2.6 8.34s-4.44 2.79-8.13 2.79h-4.55v18.18h-5.13v-46.1Zm-.38 23.31a5.76 5.76 0 0 0 4.28-1.41q1.38-1.43 1.38-4.78v-6.12a7.7 7.7 0 0 0-1.22-4.74 4.78 4.78 0 0 0-4-1.58h-4.94v18.63ZM1197 290l-9.74-29.57h5.33l7.18 22.66 7.24-22.66h4.88L1202 290v16.53h-5ZM1222.26 306.49v-41.42h-8.49v-4.68h22.13v4.68h-8.5v41.42ZM1244.59 285.75v20.74h-5.14v-46.1h5.14v20.75h11.33v-20.75h5.14v46.1h-5.14v-20.74ZM1265.93 271.52q0-5.34 2.6-8.46t7.94-3.13q5.33 0 8 3.13t2.63 8.46v23.84a12.75 12.75 0 0 1-2.63 8.43q-2.64 3.16-8 3.16t-7.94-3.16a12.85 12.85 0 0 1-2.6-8.43Zm5.07 24.11a7.85 7.85 0 0 0 1.35 4.9 5.76 5.76 0 0 0 8.27 0 8 8 0 0 0 1.31-4.9v-24.37a8.05 8.05 0 0 0-1.31-4.91 5.76 5.76 0 0 0-8.27 0 7.86 7.86 0 0 0-1.35 4.91ZM1296.49 306.49h-4.61v-46.1h6.52l10.67 33.33v-33.33h4.54v46.1h-5.33l-11.79-37.28Z" class="colorfff svgShape"/><path fill="#cea791" d="m1052.91 96.7 10.24-3.85a64.06 64.06 0 0 0-16-22.68l-8.56 9.25-21.37-14.13 2.84-11.63A76.5 76.5 0 0 0 996 48.94l.5 13.93-5.74 1.95a64.15 64.15 0 0 0-15.11 2.79 62 62 0 0 0-6.72 2.52l-8.72-13.32a75 75 0 0 0-20.82 15.38l11.26 10.1a64.08 64.08 0 0 0-15.46 23.06L921.28 103a80.93 80.93 0 0 0-3.69 24.41l13.22 2.46a64 64 0 0 0 2.9 17.65 65.19 65.19 0 0 0 2.9 7.6L925.73 163a81.35 81.35 0 0 0 15.91 22.55l10-9.85a64.18 64.18 0 0 0 24.6 13.94l-1.58 15.83a75.74 75.74 0 0 0 23.78 3.28l-1.1-16.4.16-.07a64.12 64.12 0 0 0 27.49-7.63l9.68 13.84a75.47 75.47 0 0 0 16.89-13.5l-10.11-12.58 1.12-1.78a63.83 63.83 0 0 0 10.63-16.81l3.39-5.36 13.08 4.57a81 81 0 0 0 2.88-29.79l-12.2-.83q-3.72-12.84-7.44-25.71Zm-22.91 15a38.68 38.68 0 1 1-41.73-21.88 38.7 38.7 0 0 1 41.73 21.84Z" class="color91b7ce svgShape"/><path fill="#ffffff" d="M556.32 209.49a9.34 9.34 0 0 0 7.15-11.1 9.34 9.34 0 0 0 11.1 7.15 9.34 9.34 0 0 0-7.15 11.1 9.34 9.34 0 0 0-11.1-7.15ZM507.13 191.53a9.34 9.34 0 0 0 7.15-11.1 9.32 9.32 0 0 0 11.09 7.14 9.34 9.34 0 0 0-7.14 11.1 9.33 9.33 0 0 0-11.1-7.14ZM532.89 208.12a6.82 6.82 0 0 0 5.22-8.11 6.82 6.82 0 0 0 8.11 5.22 6.82 6.82 0 0 0-5.22 8.11 6.82 6.82 0 0 0-8.11-5.22ZM524.84 248.67a6 6 0 0 0 4.63-7.18 6 6 0 0 0 7.18 4.62 6 6 0 0 0-4.65 7.19 6.06 6.06 0 0 0-7.16-4.63ZM675 229.28a9.31 9.31 0 0 0 10.2-8.31 9.31 9.31 0 0 0 8.31 10.2 9.32 9.32 0 0 0-10.21 8.31 9.29 9.29 0 0 0-8.3-10.2ZM634.16 207.77a6.94 6.94 0 0 0 7.61-6.2 7 7 0 0 0 6.2 7.62 6.94 6.94 0 0 0-7.61 6.2 7 7 0 0 0-6.2-7.62ZM629.59 236.6a8.53 8.53 0 0 0 9.35-7.61 8.53 8.53 0 0 0 7.61 9.35 8.53 8.53 0 0 0-9.35 7.66 8.53 8.53 0 0 0-7.61-9.4Z" class="colorfff svgShape"/><path fill="#fcac7e" d="M640.64 169.25a31.76 31.76 0 0 1-12.94 25.49 13.63 13.63 0 0 0-5.52 9.93l-.92 12.69-.91 12.56a12.14 12.14 0 0 1-4 8.14 12.73 12.73 0 0 1-8.6 3.3 12.48 12.48 0 0 1-12.58-11.45c-.3-4.19-.59-8.36-.89-12.55s-.61-8.47-.91-12.7a13.65 13.65 0 0 0-5.5-9.95A31.71 31.71 0 0 1 575 169.25c0-17.7 14.7-32 32.83-32s32.81 14.3 32.81 32Z" class="colorfcc67e svgShape"/><path fill="#ffffff" d="M610.08 222.38c0-.46-.22-11.22.34-22.68.18-3.59.4-6.69.66-9.37a52.39 52.39 0 0 1-6.62-.17c.24 2.5.46 5.33.66 8.55.76 11.93.87 23.52.87 23.63h-2.27c0-.12-.11-12.33-.93-24.57-.2-3-.41-5.56-.64-7.86-1.69-.2-2.92-.41-3.39-.49-3.69-.66-5.61-1.59-6.87-3.31-1.54-2.11-1.81-5.09-.76-8.16 1.2-3.49 3.8-6.27 6.61-7.07a2.33 2.33 0 0 1 2.07.41c1.3 1 3.05 3.87 4.42 16.57a53.76 53.76 0 0 0 7.09.18c1.48-12.9 3.8-14.55 4.68-15.18a4.45 4.45 0 0 1 3.47-.94c1.49.29 2.89 1.54 4 3.53 1.19 2.24 2.13 5.93.85 9-1.56 3.71-6.07 5.23-10.89 5.72a295.43 295.43 0 0 0-1 32.16Zm8.71-48.23a2.59 2.59 0 0 0-1.48.58c-1.69 1.21-2.88 6.35-3.68 13.14 4.06-.47 7.47-1.71 8.56-4.3.91-2.16.27-5.09-.76-7a4.4 4.4 0 0 0-2.39-2.37Zm-20.43-1.07c-2.09.6-4.13 2.86-5.08 5.62-.81 2.37-.65 4.59.45 6.09.58.81 1.53 1.72 5.43 2.42.83.15 1.76.29 2.75.42-1.55-13.85-3.45-14.53-3.55-14.55Z" class="colorfff svgShape"/><path fill="#cccbca" d="m621.26 217.36-.91 12.56a12.14 12.14 0 0 1-4 8.14 12.73 12.73 0 0 1-8.6 3.3 12.48 12.48 0 0 1-12.58-11.45c-.3-4.19-.59-8.36-.89-12.55Z" class="colorcccbca svgShape"/><path fill="#eae6e4" d="M694.74 179a2.49 2.49 0 0 0-.77-1.26 5.39 5.39 0 0 0-1.17-.8 12.1 12.1 0 0 0-2.6-.89 33.61 33.61 0 0 0-5.37-.71 99.59 99.59 0 0 0-10.79 0c-7.18.32-14.34 1-21.48 1.89-3.56.45-7.13.88-10.7 1.39l-2.75.4c-.17.58-.35 1.17-.55 1.75q7.07-1.32 14.17-2.39c7.09-1.05 14.2-1.92 21.35-2.35a95.85 95.85 0 0 1 10.72-.1 33.29 33.29 0 0 1 5.28.67 12.34 12.34 0 0 1 2.49.83 5.1 5.1 0 0 1 1 .71 2 2 0 0 1 .62 1 2 2 0 0 1-.09 1.18 4.64 4.64 0 0 1-.61 1.11 11.6 11.6 0 0 1-1.83 1.88 34 34 0 0 1-4.38 3 97.48 97.48 0 0 1-9.57 4.84c-6.54 2.9-13.27 5.39-20 7.71-13.57 4.6-27.39 8.47-41.32 11.84s-28 6.22-42.15 8.32c-7.09 1-14.2 1.88-21.34 2.28a95.36 95.36 0 0 1-10.69.07 32.5 32.5 0 0 1-5.25-.69 11.37 11.37 0 0 1-2.43-.81 2.74 2.74 0 0 1-1.54-1.55 1.79 1.79 0 0 1 .09-1 4.5 4.5 0 0 1 .57-1.05 11.87 11.87 0 0 1 1.78-1.84 32 32 0 0 1 4.34-3 94.9 94.9 0 0 1 9.54-4.85c6.52-2.92 13.24-5.43 20-7.77q8.46-2.89 17-5.43c-.92-.88-2-2-3.06-3.14q-2.49.65-5 1.33c-3.49 1-7 1.95-10.43 3s-6.82 2.16-10.27 3.43-6.85 2.54-10.23 4c-1.69.74-3.38 1.5-5.07 2.32s-3.36 1.69-5 2.69c-.84.49-1.67 1-2.51 1.58a31.32 31.32 0 0 0-2.53 1.89 16.32 16.32 0 0 0-2.61 2.72 9 9 0 0 0-1.26 2.35 7.53 7.53 0 0 0-.24.81 7.81 7.81 0 0 0-.15.95 7.35 7.35 0 0 0 0 1.05 10.23 10.23 0 0 0 .16 1.09 9.27 9.27 0 0 0 .36 1.05 8.93 8.93 0 0 0 .49.92q.27.41.57.78c.19.21.38.42.58.62a9.9 9.9 0 0 0 2.2 1.5 16.18 16.18 0 0 0 3.57 1.21 28.58 28.58 0 0 0 3.12.52c1 .13 2 .2 2.95.26 1.94.12 3.83.1 5.71.06s3.72-.13 5.56-.26c3.68-.24 7.32-.67 10.93-1.13s7.21-1 10.78-1.67 7.13-1.34 10.67-2.08 7.06-1.54 10.58-2.37c7-1.68 14-3.55 20.92-5.52q5.19-1.49 10.36-3.08c3.44-1 6.87-2.16 10.3-3.26s6.83-2.25 10.23-3.44 6.77-2.43 10.14-3.67c6.73-2.52 13.42-5.16 19.95-8.18a99.89 99.89 0 0 0 9.58-5 34.63 34.63 0 0 0 4.44-3.1 11.89 11.89 0 0 0 1.9-2 5.18 5.18 0 0 0 .67-1.25 2.5 2.5 0 0 0 .07-1.36Z" class="colore4e4ea svgShape"/></g><g data-name="woman 2"><path fill="#ffba92" d="m535.93 1024.87-1.64 58.13a54 54 0 0 0 31.35 5.74q3.38-33.84 6.77-67.68Z" class="colorffa592 svgShape"/><path fill="#ff5c00" d="M431.2 1113.8a11 11 0 0 0 2.84 2.06c2 1.08 5.5 2.5 13.23 5.81 4.33 1.86 8.61 3.82 13 5.62 11.71 4.85 19.65 8.55 25.26 11.1a27 27 0 0 0 19.26-7.2c1.68-3.06 3.53-7.64 2-11.84-1.84-4.89-7.13-6.11-14.8-10.26-8.36-4.53-13.68-9.36-19.32-14.49-13.54-12.31-11.57-18.11-19.18-20.54-12.49-4-28 8.39-29.42 15.1a30.07 30.07 0 0 0-.41 7.75 28.91 28.91 0 0 0 .71 4.24c.19.8.43 1.67.74 2.58a25.06 25.06 0 0 0 6.09 10.07Z" class="colordc6748 svgShape"/><path fill="#ffba92" d="M465 1032.42q-1.53 25.49-3.07 51c-3 2.19-18.06 12.82-25.67 7.76-4.44-3-4.19-9.78-4.09-26.79.08-14.73 0-27.54-.14-37.88Z" class="colorffa592 svgShape"/><path fill="#e8dfda" d="M580.1 1050.61c-3.4.79-23.39 5.34-35.17 2.39-1.62-.4-3.22-.9-3.22-.9a58.28 58.28 0 0 1-16.24-8.13l26-179.87-39.9-146.59-29.09 330.09a41 41 0 0 1-17 10.42c-8.76 2.67-16.05 1.41-27.86-.79a145.38 145.38 0 0 1-27.65-8q-.28-181.48-.58-363v-16.3l-.06-37.27v-28.32l170.54-4.86q2.37 7.21 5 15.78c1.52 4.92 3.11 10.17 4.75 15.71 4.24 14.48 8.76 31 13.19 49.27.12.49.23 1 .35 1.47.94 3.89 2 8.37 3.19 13.36 7.75 32.9 19.62 87.69 21.7 138 1.73 42.38-1.89 120.23-47.95 217.54Z" class="colordae3e8 svgShape"/><path fill="#ff5c00" d="M629.38 1106.31q-.2 3.2-11 5.75a218.94 218.94 0 0 0-49.95 1.23c-.57-.08-1.11-.17-1.6-.27-14.3-2.83-25.15-.71-33.49-2.16a14.11 14.11 0 0 1-4.83-1.7 18.2 18.2 0 0 1-2.44-5.67 26.29 26.29 0 0 1-.74-6.19c-.1-11.1 7.71-18.08 8.93-19.14 5.05 6.55 13 9.64 20.15 7.84a19.11 19.11 0 0 0 11-8.17l33.11 15.48q31.2 7.47 30.86 13Z" class="colordc6748 svgShape"/><path fill="#9a4602" d="m629.38 1106.31-.14 4.84s-44.79 4.38-60.76 2.14c-.57-.08-1.11-.17-1.6-.27-14.3-2.83-25.15-.71-33.49-2.16a14.11 14.11 0 0 1-4.83-1.7 9.21 9.21 0 0 1-4.55-5.84l2.11.17c13.42 1.08 86.88 6.75 103.26 2.82ZM431.2 1113.8c.88.65 1.82 1.33 2.84 2.06a196.26 196.26 0 0 0 19.15 12c12.13 6.67 18.36 10 26.92 10.54a46 46 0 0 0 5.38 0c7.76-.46 15.87-2.82 19.58-6.82a7.59 7.59 0 0 0 1.93-3.49 8.25 8.25 0 0 0-.85-5.35c-.45.41-.94.83-1.48 1.27a37.38 37.38 0 0 1-18.37 8.47c-12.06 1.73-21.73-3.69-34.66-10.94a132.85 132.85 0 0 1-24.81-18l-2.54-2.38-2-1.84a18.08 18.08 0 0 0 1.56 6.33 18.55 18.55 0 0 0 7.35 8.15Z" class="colora04533 svgShape"/><path fill="#f9eee8" d="m504.29 717.69-29.06 330.08a41 41 0 0 1-17 10.43 34.58 34.58 0 0 1-5.76 1.24 35.25 35.25 0 0 0 13-1.42 41.07 41.07 0 0 0 17-10.42l27.28-309.82ZM628 833c-2.39-57.94-17.77-121.8-24.89-151.36-8.18-34-16.73-62.1-23.33-82.23l-7.25.2c6.61 20.14 15.15 48.22 23.33 82.21 7.12 29.56 22.49 93.42 24.89 151.36 1.75 42.4-1.86 120.26-47.94 217.56a138.06 138.06 0 0 1-20.2 3.18c11.29.34 24.72-2.71 27.46-3.35C626.17 953.3 629.78 875.45 628 833Z" class="colore8f5f9 svgShape"/><path fill="#d8ccc5" d="m606.33 695-80-9.22-2.89-24.32h-20.3l-9.27 24.32c-20.55 10.27-59 5.36-84.46.38v-16.3l-.06-37.27 180.28-1.69c4.24 14.48 8.76 31 13.19 49.27.12.49.23 1 .35 1.47.91 3.93 1.99 8.41 3.16 13.36Z" class="colorc5d2d8 svgShape"/><path fill="#ffb58a" d="M591.64 346c-2.42-13.53-.91-12.14-3.57-40.59-1.16-12.49-2.36-22.41 1.34-24a3.4 3.4 0 0 1 2.36 0 3.06 3.06 0 0 1 1 2.34c.22 2.11.79 4.17 1 6.28.16 1.82.39 2.08 1.14 6.37.61 3.43 1.5 8.56 2.69 15.75 1.47-7.07 3.05-8.79 4.31-8.91s2 1.59 3.9 1.57c2.4 0 3.12-2.69 4.93-2.42s1.56 2.78 3.9 4 3.72-.36 5.67.43c.7.28 2.94 1.42 3.81 7.88 1.44 10.67-2.1 26.54-3.28 31.52l2.58 20.9-26.32 2a230.29 230.29 0 0 1-5.46-23.12Z" class="colorffa591 svgShape"/><path fill="#ffb58a" d="M595 327.91c-4.82-1.15-7.33-3.22-8.73-5-1.53-1.92-2.29-4.14-4.85-5.11-1.08-.4-2.88-.74-3.63.11-.62.69-.27 1.88.06 3.15 1.3 5.06.59 5.13 1.46 7.62 1.5 4.31 3.75 4.41 8.28 10.36 4 5.22 4.51 8.13 5.61 7.95s2.3-3.58 1.8-19.08Z" class="colorffa591 svgShape"/><path fill="#fcaf83" d="M594.2 345.58a21.69 21.69 0 0 0 5.18-3.54 15.42 15.42 0 0 0 3.37-4.68 22.82 22.82 0 0 0 1.71-5.71c.36-2 .52-4.17.8-6.42h.18a27 27 0 0 1 .46 6.54 17.67 17.67 0 0 1-1.5 6.39 13.38 13.38 0 0 1-4.15 5.07 13.83 13.83 0 0 1-6 2.56Z" class="colorfc9483 svgShape"/><path fill="#fcaf83" d="M598.75 308.64c-.35 4.34 3.87 5.79 4.26 11.47a45.85 45.85 0 0 1-.67 5.64c-.85 6.07-1.61 8.61-.56 9.28s2.65-.63 2.84-.76c2.29-1.64 2.22-4.27 4.11-12.77.63-2.88.61-2.41.68-3 1-7.49-3.86-15.63-7.06-15.33-1.78.19-3.35 3.01-3.6 5.47Z" class="colorfc9483 svgShape"/><path fill="#fcaf83" d="M606.57 306.67c-.36 4.34 3.86 5.79 4.26 11.48a51.37 51.37 0 0 1-.67 5.64c-.86 6.07-1.62 8.6-.56 9.27s2.65-.62 2.83-.76c2.3-1.64 2.23-4.26 4.11-12.76.64-2.89.61-2.42.68-3 1-7.5-3.85-15.63-7.05-15.33-1.78.19-3.4 3.01-3.6 5.46Z" class="colorfc9483 svgShape"/><path fill="#fcaf83" d="M613.49 308c-.42 3.76 3.78 5 4.1 9.87a35.71 35.71 0 0 1-.74 4.9c-.93 5.26-1.72 7.46-.68 8s2.65-.58 2.84-.7c2.31-1.44 2.28-3.72 4.27-11.1.67-2.5.64-2.09.72-2.58 1.09-6.5-3.65-13.48-6.85-13.18-1.78.18-3.43 2.65-3.66 4.79Z" class="colorfc9483 svgShape"/><path fill="#e5a783" d="M447.24 360.84a94.35 94.35 0 0 1 16.88-6.25c22.9-6.07 43-2.1 54.47 1.28l7.7 11-8.46 7.46L448.4 373Z" class="colore5ab83 svgShape"/><path fill="#efd1bf" d="M544 462.58c-10.56-31.59-11.75-45.48-8.93-59.89 1.4-7.16 5.91-30.18 17.13-32.34 20-3.86 50 60.64 64.67 103.5.32 1 .64 1.9 1 2.82.14.43.24.74.25.75.91 2.73 10.4 23.38 10.36 31.23-.06 13-26.48 32.1-46.5 26.74-14.98-4.01-22.64-26.94-37.98-72.81Z" class="colorefd9bf svgShape"/><path fill="#efd1bf" d="M631 355.07a151.39 151.39 0 0 1 4.83 35.16v2.57c0 9.95-.06 20.48-.25 30.63 0 2.13-.08 4.25-.13 6.34-.38 17.61-.66 30.23-1.27 41.74-2 37.76-6.65 44.69-10.25 47.64a107.86 107.86 0 0 1-9.93 6.91c-5.34 3.3-8 5.14-9.89 5.22-13.12.5-23.58-25.53-24.51-27.9-7.53-19.22-4.11-37-2.53-46.24 3.8-22.36 8.34-52.66 12.94-93.85 10.37 4.92 15.93 4 19.11 2.12 3.74-2.21 4.28-5.8 8.94-8.48 4.5-2.58 9.46-2.41 12.94-1.86Z" class="colorefd9bf svgShape"/><path fill="#5e5041" d="M522.45 287.16c1-3.28 6.46-21.8-4-37.07-6.42-9.42-15.83-13.15-23.62-16.24-5.48-2.17-16.65-6.44-31-4.43-14.77 2.08-24.59 9.65-30.27 14a79.55 79.55 0 0 0-14 14c-12.64 16.79-9.34 32-11.08 90.8-.69 23.4-1.46 29.52 3 32.48 11.18 7.5 40-15.72 63.55-37.56Z" class="color4f4f5e svgShape"/><path fill="#ffffff" d="M576.45 519c0 6.89-.14 13-.31 18.25-.12 4.09-.27 7.67-.38 10.69v1.6c-.27 8.48-.35 22.07-.35 44.23v48.85H458.53l-.23.06a18.88 18.88 0 0 1-2.47.37 20.33 20.33 0 0 1-6.22-.43H420q-.64-8.37-1.17-16.12c-1.44-21.31-2.14-39.12-2.31-54v-10.4c0-1.62 0-3.19.05-4.72.08-5.38.26-10.3.49-14.81 0-.31 0-.62.05-.94.12-2.14.26-4.18.41-6.14.38-5 .86-9.47 1.41-13.41 0 0 6.82-49.45-4.5-76.52a44 44 0 0 0-2-4.25l-.1-.18v-.07l-.08-.15c-.16-.3-.4-.75-.68-1.3l-.12-.22a1.51 1.51 0 0 0-.11-.22 48.84 48.84 0 0 1-5-20.12 33.78 33.78 0 0 1 4.3-17.18 69.46 69.46 0 0 1 7.66-11.16l.65-.76c6.56-7.79 15.13-13.28 23.85-17.15a101 101 0 0 1 11.84-4.35c.9-.27 1.8-.52 2.69-.76 1.73-.48 3.42-.89 5.06-1.27 3.11-.7 6-1.23 8.63-1.63a103.8 103.8 0 0 1 12-1.23 176.22 176.22 0 0 1 28.06-.52h.87q4.63.3 9 .81c.23 0 .47.05.7.09 2.76.32 5.43.7 8 1.12 3.68.6 7.16 1.29 10.44 2 5.24 1.17 10 2.45 14.06 3.71a492.28 492.28 0 0 1 20.62 105.3c.71 8.31 1.17 16.1 1.45 23.33s.23 13.6.23 19.6Z" class="colorfff svgShape"/><path fill="#ffb58a" d="m507.78 316.76-2.64 16.05-.66 4c-.28 1.69-.55 3.38-.83 5.07a3.43 3.43 0 0 1-.06.34c-.59 3.25-1 6.3-1.06 6.47-.28 1.75.42 6 4.41 16.4-.21.81-3.45 12.62-15 16.46-10.71 3.55-24-1.21-30.24-12.1l11.65-40.09 3.26-1.2 2.14-.78Z" class="colorffa591 svgShape"/><path fill="#ed9e70" d="M503.63 356.76a31.61 31.61 0 0 1-4.93-.81c-15.95-4-23.3-19.11-24.58-21.86l2.26-2.75c.54-.65 1.07-1.31 1.62-2 .27.23.56.48.88.73a47.75 47.75 0 0 0 18.46 9.22 46.14 46.14 0 0 0 6.82 1.16Z" class="colored8470 svgShape"/><path fill="#ffb58a" d="M523.89 296c1.45 7.75 2.67 14.62 1 23.54-1.1 5.72-3.53 18.38-13.63 24.4-7.48 4.45-15.6 3.13-22.13 2-28.17-5-51.71-28.8-48.42-35.07.69-1.31 3-2.67 11.12-1.55a44.47 44.47 0 0 1 2.17-21.19c7.43-20.13 27.21-26.49 29.46-27.35 13.34-5.11 21.05-1.78 23.54-.49 10.63 5.54 13.89 19.71 16.89 35.71Z" class="colorffa591 svgShape"/><circle cx="511.64" cy="289.87" r="3.97" fill="#000000" class="color000 svgShape"/><path d="M475.45 303.62a4 4 0 1 0 2.43-5.06 4 4 0 0 0-2.43 5.06Z" fill="#000000" class="color000 svgShape"/><path fill="#ed9e70" d="M504.69 314.54c3-4.72 2.49-6.25-.62-10.28-2.78-3.62-6.62-11.57-6.66-11.65l-1.78.88c.16.34 4 8.25 6.91 12.05 2.67 3.45 2.88 4 .47 7.8Z" class="colored8470 svgShape"/><path fill="#5e5041" d="M491.71 245.21s19.09 13.07 23 22.51c-.22 1-.45 2-.67 3l-9.31-9.42 5.86 12-1.49.52a52.85 52.85 0 0 0-18.44-20.23 61.11 61.11 0 0 1 15.2 23.41l-2.49.54-14.44-18.44 7.71 21.13-3.56 1.25q-3.15-6.57-6.29-13.15 2.06 6.79 4.1 13.59l-3.46 1.55q-4.49-13.29-9-26.56l4.92 28.31-2.67.94q-1.43-7.85-2.84-15.69.78 7.9 1.55 15.81l-2.68.94q-2.12-10.77-4.22-21.55-.64 9.57-1.3 19.15L464 287c-1.46-3.55-5.26-13.94-2.16-23.27a54.66 54.66 0 0 1 4.63-9.64c1.72-2.89 3.18-5.34 4.92-7 6.05-5.6 17.25-2.75 20.32-1.88Z" class="color4f4f5e svgShape"/><path fill="#eae9e8" d="M554.45 642.62h-32.61c-5.06-32-8.7-59.55-11.34-81.64-6.22-52-6.86-73.26-6.14-93.31a438.87 438.87 0 0 1 9.43-76.22l.08.54L524 456.23l5.6 35.57 10.22 65.11Z" opacity=".32" class="coloreae9e8 svgShape"/><path fill="#ed9e70" d="M510 334.77c.4 1.15-1.33 2.81-3.88 3.7s-4.93.68-5.33-.46 1.33-2.81 3.87-3.7 4.89-.69 5.34.46Z" opacity=".34" class="colored8470 svgShape"/><path fill="#f9dccb" d="M487.26 677.17a166.93 166.93 0 0 1-93.49-5.4c6.34-31.47 10.92-58.93 13.57-80.14 2.2-17.59 3.08-30.89 2.56-38.62-.18-2.75-2.43-32.24-2.82-37.45-.25-3.28-.49-6.48-.73-9.58-.06-.85-.13-1.68-.18-2.52-.22-2.8-.43-5.54-.63-8.19l-.06-.71c-.12-1.64-.24-3.25-.36-4.82-2.37-31-3.94-51-4.79-60.91-.42-4.86-.66-7.29-.73-7.37l-.11-.13-.05-.05a.76.76 0 0 0-.08-.11c-.18-.22-.44-.55-.74-.95l-.12-.16-.12-.16a26.79 26.79 0 0 1-5.38-14.6c-.3-4.67 1.86-8.92 4.63-12.45a54.51 54.51 0 0 1 8.26-8.09l.7-.56c7.07-5.65 16.3-9.63 25.7-12.43 4.28-1.28 8.6-2.32 12.76-3.16.66.9 1.81 2.44 3.37 4.33 5.34 6.48 15.38 17 25.93 19.68a19.81 19.81 0 0 0 4.5.61c-5.55 45.3-4.62 68.76-2.55 81.88a159.52 159.52 0 0 1 2.26 26.68c0 12.25-1.46 19-2.11 26.79v.31c-1.31 16 1.49 28.49 4 38.52ZM602.37 680.41 528.79 675c-1.64-71.73-5-120.35-7.84-152.28 0 0-6.19-69.1-7.07-130.74v-3.39a17.88 17.88 0 0 0 2.41-3.06 20.1 20.1 0 0 0 2.69-12.08 34.07 34.07 0 0 0-1.62-8.09c3.08.24 6 .52 8.91.82q6.13.66 11.6 1.46c5.83.85 11.06 1.78 15.63 2.69a252.21 252.21 0 0 1 22.92 76.32c.79 6 1.3 11.68 1.61 16.92s.42 9.9.42 14.23c0 5-.15 9.39-.34 13.19-.14 3-.3 5.55-.43 7.75v.58a2.64 2.64 0 0 0 0 .29v.29c-1.82 34.57 6.94 77.81 6.94 77.81q3 14.84 6.2 32.94.56 3.09 1.11 6.28 2.64 15.12 5.51 32.52c.18 1.15.38 2.31.57 3.49q2.06 13.06 4.36 27.47Z" class="colorf9e4cb svgShape"/><path fill="#edb08c" d="M478.84 393.24s-7.14-1.85-8.78.84-10.41 16.82-10.41 16.82-32.65-30.39-26.74-41.09l14.33-9ZM513.87 391.37s6.66-2.15 7.49 3.15 5.69 13.06 5.69 13.06 19.37-25.6 8.12-43.82a53.86 53.86 0 0 0-16.58-7.89 52 52 0 0 0-7.43-1.5 35.73 35.73 0 0 1 5.95 13.68 37 37 0 0 1-3.24 23.32Z" class="coloredb38c svgShape"/><path fill="#edb08c" d="M439.85 520.21c-.12.65-.25 1.3-.38 1.94a172 172 0 0 1-5.12 21.73c-4.18 13.71-8.27 27.09-17.88 38.72a64.76 64.76 0 0 1-9.13 9c2.2-17.59 3.08-30.89 2.56-38.62-.18-2.75-2.43-32.24-2.82-37.45-.25-3.28-.49-6.48-.73-9.58-.06-.85-.13-1.68-.18-2.52-.22-2.8-.43-5.54-.63-8.19l-.06-.71a277.71 277.71 0 0 0-5.15-65.73c.66-2.14 12.35-36.17 13.3-39.1 40.71 22.75 33.88 90.88 26.22 130.51Z" opacity=".45" class="coloredb38c svgShape"/><path fill="#f7bc9a" d="M462.8 447.73v-.63a4.2 4.2 0 0 0-.07-.62l-.08-.62v-.3l-.06-.3a31.45 31.45 0 0 0-1.27-4.64c-.14-.37-.28-.74-.41-1.11s-.29-.75-.44-1.11-.31-.73-.45-1.1l-.49-1.08a70.24 70.24 0 0 0-4.53-8.4 42.94 42.94 0 0 0-6-7.57l-.87-.86-.92-.8c-.6-.55-1.26-1-1.9-1.54a36.12 36.12 0 0 0-4.12-2.65 30.56 30.56 0 0 0-6.38-2.61c-.94-.27-1.89-.5-2.85-.68l-.5-.09a27.13 27.13 0 0 0-9.21 0 11.18 11.18 0 0 0-4.53 1.78 4.94 4.94 0 0 0-1.58 1.9 4.81 4.81 0 0 0-.38 2.42 9.44 9.44 0 0 0 .61 2.32c.27.75.61 1.46.93 2.17s.67 1.41 1 2.12a16.37 16.37 0 0 1 .78 2.11 5.38 5.38 0 0 1 .25 2 1.47 1.47 0 0 1-.65 1.16 3.13 3.13 0 0 1-1.44.22h-1.08a9.47 9.47 0 0 0-1.38 0l-.45.08-.24.06-.28.1a3.05 3.05 0 0 0-1.26.87 3.19 3.19 0 0 0-.69 1.58 4.81 4.81 0 0 0 0 1.21 7.14 7.14 0 0 0 .46 1.67c.19.46.4.9.61 1.3a25.26 25.26 0 0 0 2.94 4.18 47 47 0 0 0 3.36 3.53c1.16 1.13 2.38 2.19 3.64 3.22a48.25 48.25 0 0 0 8.22 5.31 52.33 52.33 0 0 0 5.52 2.45 57.141 57.141 0 0 0 3.53 1.21 42 42 0 0 0 5.5 1.32 28.07 28.07 0 0 0 4.23.42 20.62 20.62 0 0 0 5.1-.46 12 12 0 0 0 4.93-2.22 8.24 8.24 0 0 0 1.87-2.12 7.81 7.81 0 0 0 1-2.57 9.17 9.17 0 0 0 .03-2.63Zm-2.11 0v.53c0 .18 0 .33-.08.5a7.25 7.25 0 0 1-.26 1 5 5 0 0 1-2.35 2.76 8.85 8.85 0 0 1-3.72.93 20.93 20.93 0 0 1-4.16-.24 39 39 0 0 1-4.91-1.11c-1.17-.33-2.32-.72-3.47-1.16s-2.5-1-3.72-1.6l-1.22-.6c-1-.51-2-1.05-3-1.61a67.67 67.67 0 0 1-7.31-4.86 82.28 82.28 0 0 1-6.74-5.74c-.52-.5-1-1-1.53-1.51s-1-1-1.38-1.51c-.2-.25-.38-.49-.54-.71l-.06-.1c-.25.06-.47.11-.65.17s-.28.19-.31.17l.12-.06.17-.07a1.13 1.13 0 0 0 .29-.51c0-.08 0-.11.07 0s.14.23.27.41h.1c.38-.09.8-.17 1.23-.29a7.58 7.58 0 0 0 1.4-.49 4.26 4.26 0 0 0 1.39-1 3.55 3.55 0 0 0 .79-1.54 4.32 4.32 0 0 0 .07-1.55 7.7 7.7 0 0 0-.85-2.49c-.75-1.46-1.65-2.73-2.43-4.06a18.63 18.63 0 0 1-1.07-2 8.23 8.23 0 0 1-.64-2.14 3.77 3.77 0 0 1 .36-2.1 3.83 3.83 0 0 1 1.46-1.53 6.52 6.52 0 0 1 2-.77 9.49 9.49 0 0 1 2.2-.21 16.38 16.38 0 0 1 4.39.66 27.73 27.73 0 0 1 4.18 1.5c.76.34 1.5.69 2.22 1.06h.1c1.56.79 3.09 1.66 4.58 2.56l.84.52c1.24.77 2.45 1.58 3.66 2.41s2.4 1.7 3.54 2.64a61.27 61.27 0 0 1 6.69 5.94 34 34 0 0 1 5.36 7.29l.52 1c.16.34.31.69.47 1 .32.69.56 1.4.82 2.11.13.36.22.72.34 1.08s.21.72.28 1.09.16.72.23 1.09l.16 1.1c.06.36 0 .73.07 1.09v.54ZM573.51 468.35a28.66 28.66 0 0 0-.32-3.82 27.2 27.2 0 0 0-4-10.34 27.62 27.62 0 0 0-3.93-4.81 25.15 25.15 0 0 0-3.66-2.95 21.52 21.52 0 0 0-2-1.15 14 14 0 0 0-2.86-1 10.43 10.43 0 0 0-2.67-.26 8.41 8.41 0 0 0-2.62.61 9.54 9.54 0 0 0-1.18.64 6 6 0 0 0-.52.36l-.55.44a25.33 25.33 0 0 0-1.92 1.8c-.61.62-1.2 1.26-1.81 1.85a14 14 0 0 1-1.92 1.58 5.6 5.6 0 0 1-2.07.87 4.68 4.68 0 0 1-.83.05 4.06 4.06 0 0 1-.8-.11l-.37-.11a4.56 4.56 0 0 1-1.63-1.11c-.5-.51-1-1.12-1.54-1.82a12.21 12.21 0 0 0-1-1.12 5.33 5.33 0 0 0-1.73-1.12 4.49 4.49 0 0 0-1.34-.25 4.41 4.41 0 0 0-1.33.19 5.89 5.89 0 0 0-1.92 1 8.51 8.51 0 0 0-1.29 1.24 13.77 13.77 0 0 0-1 1.28 19.1 19.1 0 0 0-1.44 2.59 29.88 29.88 0 0 0-1.32 3.38c-.21.63-.4 1.25-.57 1.88a42.69 42.69 0 0 0-1.12 5.42 37.43 37.43 0 0 0 .27 11.14 42.62 42.62 0 0 0 5.83 15.42l.77 1.16c.13.19.27.37.4.55l.43.56c.27.38.57.74.88 1.1l.45.53.48.51a23.59 23.59 0 0 0 4.3 3.66 18.25 18.25 0 0 0 5.19 2.38 15.45 15.45 0 0 0 5.65.49 18 18 0 0 0 5.33-1.44 27.13 27.13 0 0 0 3.79-2.06c.65-.41 1.28-.85 1.89-1.31 1.1-.81 2.14-1.67 3.16-2.58.34-.28.64-.6 1-.91s.65-.61 1-.92l.91-1c.32-.33.62-.65.9-1 .58-.69 1.18-1.35 1.71-2.08l.82-1.07a22 22 0 0 0 .68-1l.09-.12.2-.31a31.63 31.63 0 0 0 4.33-9.67 27.7 27.7 0 0 0 .8-7.24Zm-5.51 6.36a37.18 37.18 0 0 1-1.09 5.15l-.09.3a31.26 31.26 0 0 1-1.44 3.92c-.17.37-.34.75-.52 1.13l-.58 1.09a24.55 24.55 0 0 1-1.3 2.15c-.22.36-.48.68-.73 1l-.76 1c-.27.32-.55.63-.83.95a12.34 12.34 0 0 1-.85.92 27.62 27.62 0 0 1-2.57 2.27q-.88.69-1.83 1.29a20.47 20.47 0 0 1-3.89 1.94 9.86 9.86 0 0 1-1.17.36l-.58.16c-.2.05-.4.07-.6.11a6.68 6.68 0 0 1-1.18.15 7.89 7.89 0 0 1-1.19 0 11.89 11.89 0 0 1-4.53-1 15.45 15.45 0 0 1-3.87-2.55 23.41 23.41 0 0 1-3.16-3.5 33.44 33.44 0 0 1-2.55-4 36.94 36.94 0 0 1-2-4.39 41.54 41.54 0 0 1-2.3-9.37l-.14-1.19c0-.4-.06-.8-.1-1.2s0-.79-.06-1.19 0-.8 0-1.19v-2.38c0-.4 0-.79.08-1.18s.06-.78.1-1.17a43.94 43.94 0 0 1 2.07-9.34 19.44 19.44 0 0 1 .84-2.05 7.3 7.3 0 0 1 .93-1.54c.14-.17.26-.29.28-.33h-.07s-.07-.05-.05-.07.23 0 .49.16a9.58 9.58 0 0 1 .9.63 22.92 22.92 0 0 0 2.26 1.67 7.43 7.43 0 0 0 3 1.11 6.53 6.53 0 0 0 1.77 0l.59-.13c.26-.07.51-.16.75-.25a7.94 7.94 0 0 0 2.44-1.62 40.2 40.2 0 0 0 3.4-4.06 19.28 19.28 0 0 1 1.72-1.88l.51-.43a8.05 8.05 0 0 1 1.55-1 7.09 7.09 0 0 1 2.41-.53 8.37 8.37 0 0 1 2.44.4 10.54 10.54 0 0 1 2.25 1.07 13.15 13.15 0 0 1 1.08.76c.31.24.6.5.89.76a18.35 18.35 0 0 1 3.11 3.87c.27.44.52.88.76 1.33a27.22 27.22 0 0 1 1.39 3.08 37 37 0 0 1 2 8.19c.06.39.11.78.16 1.17a39.35 39.35 0 0 1-.14 9.45ZM471.78 545.42a7.87 7.87 0 0 0-.52-2.53 6.71 6.71 0 0 0-1.42-2.15 7.44 7.44 0 0 0-.67-.59l-.31-.23a10.16 10.16 0 0 0-1.08-.67c-.6-.34-1.22-.62-1.84-.9l-.43-.19c-.76-.34-1.53-.64-2.26-1-.31-.15-.63-.3-.93-.46a9.52 9.52 0 0 1-1.15-.7 6 6 0 0 1-.86-.7 4.32 4.32 0 0 1-.64-.8 3 3 0 0 1-.43-1.73 3.77 3.77 0 0 1 .63-1.65c.36-.57.84-1.15 1.36-1.9a7.34 7.34 0 0 0 .79-1.4c.06-.14.12-.32.17-.48a3.86 3.86 0 0 0 .12-.59 3.81 3.81 0 0 0-.09-1.41.29.29 0 0 1 0-.09 3.58 3.58 0 0 0-.24-.6c0-.11-.11-.21-.17-.32l-.19-.27a3.22 3.22 0 0 0-.38-.48 4.73 4.73 0 0 0-.41-.38 8.41 8.41 0 0 0-1.57-1 14.25 14.25 0 0 0-2.89-.94 24.54 24.54 0 0 0-2.74-.41 37.29 37.29 0 0 0-5.28-.05 41 41 0 0 0-4.12.4l-1.09.16c-.88.14-1.74.36-2.61.55l-1 .27c-.51.14-1 .28-1.51.45-.85.26-1.67.58-2.49.88s-1.63.67-2.42 1a44.78 44.78 0 0 0-4.63 2.49 45.42 45.42 0 0 0-4.3 3l-1 .8a2.75 2.75 0 0 0-.26.22l-.78.67-.26.24c-.56.52-1.12 1-1.65 1.6l-.46.47-.44.49c-.29.34-.59.66-.87 1l-.61.77-.21.28-.77 1.11a21.59 21.59 0 0 0-2.43 4.85 15.3 15.3 0 0 0-.92 5.47v1a12.33 12.33 0 0 0 1.26 4.39 13.57 13.57 0 0 0 1.91 2.82c.28.33.57.65.87.95l.46.44.47.45c.16.15.33.28.5.42.33.26.65.55 1 .81.7.49 1.37 1 2.09 1.46s1.45.88 2.18 1.31c.36.22.75.39 1.12.59s.75.4 1.13.58l1.83.84a49.84 49.84 0 0 0 7.75 2.65c1.19.29 2.41.53 3.64.71a32 32 0 0 0 6.71.31 26.33 26.33 0 0 0 2.66-.27h.24c.78-.12 1.55-.27 2.32-.46s1.7-.47 2.55-.73 1.66-.59 2.47-1a27.25 27.25 0 0 0 8.62-6 27.89 27.89 0 0 0 3.26-4.11 23.2 23.2 0 0 0 1.29-2.27c.19-.39.4-.77.56-1.17l.25-.6c.08-.2.15-.41.22-.61a18.06 18.06 0 0 0 .7-2.49l.09-.64.05-.32v-.32c0-.22 0-.43.05-.64Zm-13.64-19v.1a1.41 1.41 0 0 1 0 .25v-.18a.24.24 0 0 1 0-.18Zm12.44 21.3a12 12 0 0 1-1 2.15c-.1.17-.19.35-.3.51l-.34.49c-.21.33-.47.64-.7.95a20.23 20.23 0 0 1-1.61 1.73 24.94 24.94 0 0 1-3.66 2.92 41.45 41.45 0 0 1-8.22 4.15c-.71.29-1.43.51-2.15.77s-1.46.46-2.2.65c-.51.16-1 .27-1.54.39l-.68.17-1.13.23-.57.12-.57.08c-1.22.21-2.45.38-3.7.49-1 .09-1.91.14-2.87.15h-2.75a30.17 30.17 0 0 1-7.62-1.44c-.57-.19-1.13-.4-1.69-.63a24.6 24.6 0 0 1-4.24-2.25 18.66 18.66 0 0 1-3.63-3 7.76 7.76 0 0 1-.75-.88l-.35-.46c-.07-.1-.14-.19-.2-.29a1.88 1.88 0 0 1-.12-.18v-.06c-.18-.31-.37-.61-.52-.93s-.32-.67-.43-1a9 9 0 0 1-.41-4.27 12.47 12.47 0 0 1 1.39-4.09 19.06 19.06 0 0 1 1.3-2.09c.39-.53.8-1.06 1.22-1.57l.63-.71a35.82 35.82 0 0 1 2.56-2.52l.34-.3c.47-.41 1-.8 1.42-1.18.62-.46 1.23-.93 1.87-1.36a37.78 37.78 0 0 1 3.95-2.4c.68-.38 1.38-.7 2.07-1s1.4-.65 2.12-.94 1.43-.55 2.15-.83l.35-.29c.59-.2 1.17-.4 1.77-.57s1.46-.43 2.2-.63 1.47-.34 2.22-.49a52 52 0 0 1 9.17-1c.75 0 1.49 0 2.19.06.35 0 .68.06 1 .09s.62.11.88.17a5.33 5.33 0 0 1 .58.18h.07a6.2 6.2 0 0 1-.19.56c-.27.7-.67 1.52-1 2.45a6.39 6.39 0 0 0-.3 3.16 5.3 5.3 0 0 0 1.44 2.76 7.48 7.48 0 0 0 2.33 1.57c.53.24 1.07.44 1.6.62 1.08.36 2.15.64 3.18 1l.44.14a18.4 18.4 0 0 1 1.83.74 8.58 8.58 0 0 1 1.24.73 8.19 8.19 0 0 1 .73.59 5.82 5.82 0 0 1 1.24 2l.18.56c0 .19.06.38.1.58a3.79 3.79 0 0 1 0 .58 5.81 5.81 0 0 1 0 .59v.15a9.3 9.3 0 0 1-.32 2.12ZM450.39 596.37a8 8 0 0 0-2.48-.72 6.71 6.71 0 0 0-2.56.23 7.67 7.67 0 0 0-.84.32l-.36.16a10.73 10.73 0 0 0-1.15.64 20 20 0 0 0-1.66 1.2l-.37.29c-.66.51-1.29 1-1.94 1.52-.28.21-.57.41-.85.6a10.72 10.72 0 0 1-1.16.69 5.23 5.23 0 0 1-1 .42 3.74 3.74 0 0 1-1 .19 3 3 0 0 1-1.73-.43 3.53 3.53 0 0 1-1.15-1.33c-.35-.59-.63-1.29-1-2.1a8.26 8.26 0 0 0-.86-1.36c-.1-.12-.24-.26-.35-.38a3.7 3.7 0 0 0-.47-.38 3.79 3.79 0 0 0-1.28-.59h-.09a3.61 3.61 0 0 0-.64-.08h-.69a2.77 2.77 0 0 0-.6.12 5.52 5.52 0 0 0-.53.17 7.57 7.57 0 0 0-1.63.92 13.87 13.87 0 0 0-2.2 2.1 23.9 23.9 0 0 0-1.64 2.22 37.52 37.52 0 0 0-2.54 4.63c-.6 1.25-1.11 2.52-1.59 3.82-.13.35-.25.7-.37 1-.29.83-.5 1.7-.75 2.55l-.24 1c-.11.51-.23 1-.31 1.54-.17.87-.27 1.75-.4 2.62s-.18 1.75-.21 2.62a42 42 0 0 0 0 5.26 45.43 45.43 0 0 0 .62 5.21c.07.42.15.83.24 1.24 0 .12.05.23.07.34.08.33.15.67.23 1l.09.34c.19.74.39 1.48.63 2.21l.2.63.23.62c.16.42.3.83.48 1.24s.26.61.4.91c0 .1.1.21.15.32l.61 1.19a21.88 21.88 0 0 0 3.13 4.44 15.48 15.48 0 0 0 4.37 3.48 7.77 7.77 0 0 0 .88.41 12.41 12.41 0 0 0 4.47 1 13.6 13.6 0 0 0 3.39-.35c.42-.1.83-.2 1.24-.33l.61-.19.62-.21c.21-.06.4-.16.6-.23.39-.17.8-.32 1.19-.5.76-.38 1.54-.73 2.27-1.16s1.46-.86 2.18-1.3c.36-.22.7-.48 1.05-.71s.7-.47 1-.72c.54-.4 1.08-.81 1.6-1.22a49.29 49.29 0 0 0 6-5.58c.82-.92 1.61-1.88 2.34-2.88a32.22 32.22 0 0 0 3.44-5.77 25.09 25.09 0 0 0 1-2.47 2.25 2.25 0 0 0 .08-.24c.26-.74.49-1.5.69-2.26s.38-1.73.56-2.59.26-1.75.31-2.64a27.4 27.4 0 0 0-1.26-10.45 28.55 28.55 0 0 0-2.09-4.81 24.76 24.76 0 0 0-1.39-2.2c-.26-.35-.5-.72-.78-1l-.41-.5-.43-.48a18.48 18.48 0 0 0-1.86-1.79l-.52-.39-.26-.19-.28-.17a6.26 6.26 0 0 0-.55-.34Zm-23.2 3.08s.06 0 .1.05a1 1 0 0 1 .2.15.94.94 0 0 1-.18-.06.24.24 0 0 1-.12-.14Zm24.65-.94a12 12 0 0 1 1.43 1.88l.31.51.27.52c.19.35.34.72.5 1.08a19 19 0 0 1 .78 2.23 25.08 25.08 0 0 1 .84 4.61 41.57 41.57 0 0 1-.21 9.2c-.08.75-.22 1.5-.33 2.26s-.29 1.5-.46 2.24c-.11.52-.25 1-.38 1.54l-.18.69-.33 1.1-.16.56-.2.54a46.04 46.04 0 0 1-1.31 3.49c-.37.88-.77 1.75-1.22 2.61-.41.81-.86 1.61-1.34 2.39a29.75 29.75 0 0 1-4.86 6q-.66.63-1.35 1.2a25.3 25.3 0 0 1-4 2.68 18.44 18.44 0 0 1-4.39 1.77 9.15 9.15 0 0 1-1.13.25l-.57.08h-1.7c-.35 0-.74 0-1.1-.1a9.17 9.17 0 0 1-4-1.65 12.65 12.65 0 0 1-3-3.15 18.84 18.84 0 0 1-1.23-2.14c-.29-.59-.56-1.2-.81-1.82-.12-.29-.23-.59-.33-.89a33.4 33.4 0 0 1-1-3.45c0-.14-.07-.29-.11-.44-.14-.6-.25-1.21-.37-1.8-.11-.76-.24-1.52-.31-2.29a37.55 37.55 0 0 1-.26-4.62c0-.77 0-1.55.05-2.31s.09-1.55.18-2.31.19-1.53.27-2.29c0-.14.05-.29.07-.43.1-.61.2-1.23.33-1.83.14-.76.31-1.5.48-2.24s.4-1.46.62-2.19a51.15 51.15 0 0 1 3.46-8.55 20.41 20.41 0 0 1 1.08-1.9c.18-.31.37-.58.56-.85a8.75 8.75 0 0 1 .56-.69 3.38 3.38 0 0 1 .43-.43l.05-.06a4.5 4.5 0 0 1 .41.44c.48.56 1 1.3 1.7 2a6.58 6.58 0 0 0 2.64 1.75 5.36 5.36 0 0 0 3.12 0 7.54 7.54 0 0 0 2.48-1.32c.46-.36.89-.73 1.3-1.12.83-.78 1.58-1.59 2.37-2.34l.33-.32a18.12 18.12 0 0 1 1.51-1.27 8.54 8.54 0 0 1 1.23-.74 5 5 0 0 1 3.19-.54l.57.11c.19 0 .37.12.56.18a3.7 3.7 0 0 1 .54.24 4.3 4.3 0 0 1 .52.27l.13.08a9.12 9.12 0 0 1 1.77 1.58ZM594.8 649.48c-.38.11-.77.23-1.16.33a41.18 41.18 0 0 1-9.11 1.34c-.76.05-1.52 0-2.28.06s-1.53 0-2.29-.09c-.53 0-1.06-.06-1.58-.11l-.71-.06-1.14-.14-.57-.06-.57-.11c-1.23-.18-2.45-.41-3.67-.7-.93-.22-1.85-.47-2.77-.76-.88-.27-1.74-.57-2.59-.92a30.45 30.45 0 0 1-6.78-3.77c-.48-.36-.94-.74-1.4-1.14a24.68 24.68 0 0 1-3.31-3.47 18.54 18.54 0 0 1-2.48-4 7.65 7.65 0 0 1-.44-1.08l-.18-.55c0-.11-.08-.22-.11-.33a1.42 1.42 0 0 1 0-.22v-.06c-.07-.35-.16-.69-.2-1a10.36 10.36 0 0 1-.08-1.11 9.06 9.06 0 0 1 1-4.18 12.78 12.78 0 0 1 2.61-3.44 19.45 19.45 0 0 1 1.91-1.57c.53-.39 1.08-.75 1.65-1.1.27-.16.54-.33.82-.48 1-.59 2.13-1.1 3.23-1.59l.42-.17c.57-.24 1.14-.45 1.72-.67s1.45-.5 2.2-.7a40.2 40.2 0 0 1 4.5-1c.76-.14 1.53-.23 2.29-.33s1.54-.18 2.31-.22 1.53-.07 2.3-.11H580.64c.62 0 1.52.06 2.28.1s1.51.14 2.27.23c1.47.19 3 .45 4.41.76q-.54-3.19-1.07-6.28c-.46-.11-.93-.19-1.39-.28l-1.1-.19c-.87-.15-1.76-.21-2.64-.31l-1.07-.07c-.52 0-1-.05-1.57-.05-.89 0-1.76 0-2.64.05s-1.76.12-2.62.23a43.31 43.31 0 0 0-5.19.9 44.63 44.63 0 0 0-5 1.5c-.4.13-.79.28-1.18.44l-.32.13-1 .39-.32.15c-.7.31-1.39.62-2.07 1l-.58.3-.58.33c-.39.23-.78.44-1.15.69l-.82.54-.29.2-1.08.8a22.15 22.15 0 0 0-3.84 3.84 15.35 15.35 0 0 0-2.6 4.89c-.1.31-.19.62-.26.94a12.35 12.35 0 0 0-.19 4.57 13.86 13.86 0 0 0 .92 3.28c.16.4.34.79.53 1.17.09.19.19.38.29.57l.31.57c.1.2.22.37.33.55.24.37.45.74.69 1.09.51.69 1 1.4 1.53 2.05s1.09 1.29 1.65 1.93c.27.32.58.6.88.91s.57.62.88.91c.48.47 1 .92 1.48 1.37a48.87 48.87 0 0 0 6.51 5c1 .65 2.12 1.27 3.23 1.83a32.12 32.12 0 0 0 6.27 2.41 26.35 26.35 0 0 0 2.6.59h.25c.78.13 1.56.23 2.35.29s1.77.09 2.65.12 1.76 0 2.64-.14a27.11 27.11 0 0 0 10.09-3l.37-.2c-.31-1.28-.48-2.44-.68-3.59ZM537.81 577.87a7.67 7.67 0 0 0 2.37 1 6.54 6.54 0 0 0 2.57.08 6.63 6.63 0 0 0 .88-.21l.37-.12a9.89 9.89 0 0 0 1.16-.5c.62-.3 1.21-.64 1.8-1l.39-.24c.72-.43 1.41-.88 2.12-1.28l.91-.5a13 13 0 0 1 1.23-.53 5.55 5.55 0 0 1 1.07-.3 4.58 4.58 0 0 1 1-.07 3 3 0 0 1 1.66.64 3.65 3.65 0 0 1 1 1.46c.28.63.47 1.35.78 2.21a8.39 8.39 0 0 0 .69 1.45c.08.13.2.29.3.42a4.26 4.26 0 0 0 .42.44 3.63 3.63 0 0 0 1.2.73h.09a3.64 3.64 0 0 0 .63.16H561.13a2.93 2.93 0 0 0 .61 0c.21 0 .38-.07.55-.11a7.7 7.7 0 0 0 1.73-.71 14.12 14.12 0 0 0 2.43-1.82 25.38 25.38 0 0 0 1.9-2 36.85 36.85 0 0 0 3.09-4.29 39.62 39.62 0 0 0 2-3.6c.18-.33.34-.66.5-1 .39-.8.71-1.63 1-2.45.12-.34.25-.67.37-1 .18-.49.35-1 .49-1.49.28-.84.49-1.7.72-2.55s.39-1.71.53-2.58a43.69 43.69 0 0 0 .61-5.22 41.8 41.8 0 0 0 0-5.25c0-.42 0-.84-.08-1.26v-.34c0-.34-.07-.68-.11-1v-.35c-.1-.76-.21-1.51-.36-2.27l-.13-.65-.15-.65c-.11-.43-.19-.86-.33-1.29s-.18-.63-.28-.94c0-.11-.07-.23-.11-.34l-.46-1.26a21.7 21.7 0 0 0-2.58-4.78 15.34 15.34 0 0 0-3.94-3.89c-.27-.19-.54-.36-.82-.52a12.6 12.6 0 0 0-4.33-1.49 13.85 13.85 0 0 0-3.4-.06c-.43 0-.86.1-1.28.17l-.63.12-.63.13c-.22 0-.42.11-.63.16-.41.13-.83.22-1.23.35-.81.29-1.62.54-2.4.88s-1.55.67-2.32 1c-.39.17-.75.39-1.13.58s-.76.38-1.13.58c-.58.34-1.16.67-1.73 1a48.9 48.9 0 0 0-6.63 4.82c-.92.81-1.82 1.67-2.68 2.57a32.67 32.67 0 0 0-4.1 5.31 26.68 26.68 0 0 0-1.31 2.33l-.11.22c-.35.71-.66 1.43-1 2.17s-.59 1.66-.87 2.5-.47 1.71-.63 2.58a27.18 27.18 0 0 0 0 10.52 27.75 27.75 0 0 0 1.49 5 24.22 24.22 0 0 0 1.11 2.36c.22.38.41.77.65 1.13l.34.55.37.53a17.63 17.63 0 0 0 1.64 2l.47.45.23.22.25.21.5.4Zm23.4-.25s-.06 0-.09-.06a.7.7 0 0 1-.18-.17.8.8 0 0 1 .17.08.26.26 0 0 1 .1.15Zm-24.58-2.06a11.56 11.56 0 0 1-1.19-2c-.08-.18-.17-.35-.25-.54l-.2-.55c-.15-.37-.25-.75-.37-1.13a23 23 0 0 1-.5-2.3 25.42 25.42 0 0 1-.28-4.68 41.3 41.3 0 0 1 1.32-9.11c.17-.74.41-1.47.61-2.21s.46-1.45.73-2.17c.16-.5.36-1 .56-1.48l.26-.66.46-1.05.23-.53.26-.52c.53-1.12 1.1-2.22 1.73-3.31.47-.83 1-1.64 1.52-2.44.51-.76 1.05-1.49 1.63-2.21a30 30 0 0 1 5.55-5.42c.49-.36 1-.7 1.49-1a24.63 24.63 0 0 1 4.28-2.18 18.4 18.4 0 0 1 4.57-1.22 7.59 7.59 0 0 1 1.16-.11h1.21c.36 0 .71.05 1.05.11s.74.13 1.09.23a9.17 9.17 0 0 1 3.73 2.12 12.51 12.51 0 0 1 2.55 3.49 19.07 19.07 0 0 1 1 2.27c.22.62.41 1.25.58 1.9.08.3.16.61.22.92a35.54 35.54 0 0 1 .6 3.55v.45c.06.61.1 1.23.15 1.84 0 .77.06 1.53 0 2.31a39.51 39.51 0 0 1-.31 4.61c-.08.77-.22 1.53-.33 2.29s-.28 1.52-.46 2.27-.37 1.49-.55 2.24l-.12.42c-.17.6-.34 1.19-.55 1.78s-.49 1.44-.74 2.16-.57 1.4-.88 2.1a51.8 51.8 0 0 1-4.47 8.07 20.38 20.38 0 0 1-1.3 1.75c-.22.28-.44.53-.66.78s-.44.44-.64.62-.38.31-.48.38h-.06a4.3 4.3 0 0 1-.35-.48c-.41-.62-.86-1.42-1.45-2.2a6.6 6.6 0 0 0-2.41-2.06 5.3 5.3 0 0 0-3.09-.4 7.41 7.41 0 0 0-2.62 1c-.5.3-1 .62-1.43 1-.91.67-1.76 1.38-2.63 2l-.37.27a19.47 19.47 0 0 1-1.65 1.08 9.05 9.05 0 0 1-1.31.59 7.25 7.25 0 0 1-.91.26 5.67 5.67 0 0 1-2.32-.11l-.56-.18-.53-.25a7 7 0 0 1-1-.64l-.12-.09a8.87 8.87 0 0 1-1.45-1.63ZM617.42 520.87c-.44 0-.88 0-1.33-.08a41.69 41.69 0 0 1-9.45-2l-1.13-.38-1.12-.44c-.38-.13-.74-.29-1.11-.44s-.73-.31-1.09-.49l-1.08-.5-1.06-.55c-.35-.18-.68-.38-1-.58l-1-.6-.23-.14a47.81 47.81 0 0 1-4.94-3.59c-.83-.69-1.62-1.41-2.36-2.15a18.57 18.57 0 0 1-1.49-1.64 7.8 7.8 0 0 1-1-1.5c-.1-.2-.15-.36-.18-.39s0 0-.07 0h-.09c-.02 0 0-.06.06-.12a1.73 1.73 0 0 1 .3-.26 8.44 8.44 0 0 1 1-.54 22.91 22.91 0 0 0 2.49-1.33 7.43 7.43 0 0 0 2.3-2.24 6.37 6.37 0 0 0 1-3 7.32 7.32 0 0 0-.33-2.63c0-.08 0-.17-.08-.26a31.34 31.34 0 0 0-1.9-4.22c-.11-.2-.2-.4-.3-.6s-.21-.43-.3-.66a14.52 14.52 0 0 1-.65-1.7 8 8 0 0 1-.38-2.46 6.84 6.84 0 0 1 .56-2.4 8.36 8.36 0 0 1 1.41-2 10.07 10.07 0 0 1 1.93-1.56 13.24 13.24 0 0 1 2.22-1.13 18.39 18.39 0 0 1 4.82-1.14 23.76 23.76 0 0 1 3.26-.13h1.3l-.42-.67-.08-.14-1.49-2.39-1 .23a25.38 25.38 0 0 0-7 2.9 16 16 0 0 0-4.09 3.47 10.37 10.37 0 0 0-1.39 2.3 7.62 7.62 0 0 0-.5 4c.06.44.15.88.25 1.3s.23.85.37 1.27l.42 1.16v.07c.29.82.61 1.63.87 2.44a13.31 13.31 0 0 1 .61 2.41c0 .19 0 .38.05.56a5.18 5.18 0 0 1-.15 1.69 4.07 4.07 0 0 1-1 1.72 4.62 4.62 0 0 1-1.7 1 23.7 23.7 0 0 1-2.31.61 10.88 10.88 0 0 0-1.44.44 4.94 4.94 0 0 0-1.76 1.09 4 4 0 0 0-.8 1.09 4.3 4.3 0 0 0-.41 1.29 1.11 1.11 0 0 0 0 .19 5.76 5.76 0 0 0 .12 2 8 8 0 0 0 .57 1.69 12.58 12.58 0 0 0 .73 1.42 20.93 20.93 0 0 0 1.72 2.42l.17.19a32.91 32.91 0 0 0 3.78 3.78l.85.72a42.37 42.37 0 0 0 3.56 2.62 37.42 37.42 0 0 0 10.17 4.56 43.4 43.4 0 0 0 9.11 1.54 39.67 39.67 0 0 0 4.22-5.16ZM632.3 425.32a42.89 42.89 0 0 1-7.64 2.94l-1.16.31-1.17.26c-.38.1-.78.16-1.17.24s-.78.16-1.17.21l-1.18.17-1.18.14c-.4.05-.79.06-1.18.09l-1.18.07a43.71 43.71 0 0 1-9.53-.7 21.3 21.3 0 0 1-2.16-.54 7.76 7.76 0 0 1-1.65-.7c-.19-.11-.32-.22-.36-.23s0 0-.05.07 0 .08-.06.07 0-.23.09-.51a8.9 8.9 0 0 1 .49-1 21.87 21.87 0 0 0 1.33-2.49 7.45 7.45 0 0 0 .67-3.13 6.37 6.37 0 0 0-.88-3 7.88 7.88 0 0 0-1.94-2.18 42.3 42.3 0 0 0-4.51-2.78 18 18 0 0 1-2.1-1.43 7.76 7.76 0 0 1-.84-.78 7.66 7.66 0 0 1-.85-1.05 7 7 0 0 1-.86-2.31 7.94 7.94 0 0 1 0-2.48 9.52 9.52 0 0 1 .74-2.38 12.19 12.19 0 0 1 1.22-2.17 17.06 17.06 0 0 1 2.81-3.13l.56-.5a25.79 25.79 0 0 1 4.07-2.76 38.2 38.2 0 0 1 8.93-3.51 38.83 38.83 0 0 1 9.44-1.2 35.1 35.1 0 0 1 9.65 1.26l.23.07c.33.08.64.17 1 .27l1.17.43a18.86 18.86 0 0 1 1.87.77l.44.2a11.78 11.78 0 0 1 1.12.57l.55.31v-2.56l-.52-.34-.78-.5c-.5-.31-1-.62-1.52-.89l-1.18-.66c-.4-.21-.81-.4-1.22-.6l-.14-.06a31.52 31.52 0 0 0-10.38-3 28 28 0 0 0-11.06 1.09 27 27 0 0 0-9.65 5.39 28.19 28.19 0 0 0-3.1 3.18 24.87 24.87 0 0 0-3.49 5.45 16.22 16.22 0 0 0-1.48 5.16 11 11 0 0 0 .13 2.69 8.68 8.68 0 0 0 1 2.5 8.51 8.51 0 0 0 .8 1.07l.08.09c.28.3.57.59.87.86a22.66 22.66 0 0 0 2.06 1.63c.7.52 1.42 1 2.08 1.54a13 13 0 0 1 1.85 1.67 5.52 5.52 0 0 1 1.16 1.92 4.07 4.07 0 0 1 .11 2 4.58 4.58 0 0 1-.86 1.76c-.43.57-1 1.12-1.58 1.79a12.35 12.35 0 0 0-1 1.16 6.4 6.4 0 0 0-.51.88 4.6 4.6 0 0 0-.34 1 3.8 3.8 0 0 0-.06 1.35 4.22 4.22 0 0 0 .37 1.29 6 6 0 0 0 1.29 1.76 8.5 8.5 0 0 0 1.41 1.09l.43.26c.33.19.65.36 1 .51a20.63 20.63 0 0 0 2.77 1.06 33.78 33.78 0 0 0 5.49 1.1 32 32 0 0 0 3.23.28c.76 0 1.52.05 2.29.05a36.3 36.3 0 0 0 8.71-1.2 42 42 0 0 0 2.26-.66 43 43 0 0 0 8.45-3.78l.65-.39v-1.57l.06-3.17v-1.6q-1 .63-2 1.2c-.37.26-.8.49-1.24.71Z" class="colorf7c09a svgShape"/><path fill="#f4d5c3" d="M420.54 489.61C415.33 497 406 510 389.7 513.5c-4 .88-14.63 3.2-22.59-2.61-13.62-9.93-8.92-35.93-8.39-38.68.11-.53.45-1.9 1.12-4.64 5.24-21.32 10-34.38 13.67-42.68A99.15 99.15 0 0 1 378 416l1.12-1.91c9.47-15.83 18.67-30.81 29.87-29.95 12.59 1 21.72 25 23 28.48 14.28 39.21-10.31 75.38-11.45 76.99Z" class="colorf4ddc3 svgShape"/><path fill="#f7bc9a" d="M472.87 426.56a3 3 0 1 1-3.27-2.69 3 3 0 0 1 3.27 2.69Z" class="colorf7c09a svgShape"/><circle cx="470.12" cy="458.78" r="2.99" fill="#f7bc9a" class="colorf7c09a svgShape"/><circle cx="472.75" cy="486.06" r="2.99" fill="#f7bc9a" class="colorf7c09a svgShape"/><path fill="#f7bc9a" d="M473.9 512.85a3 3 0 1 1-3.26-2.7 3 3 0 0 1 3.26 2.7ZM473.89 542.27a3 3 0 1 1-3.27-2.69 3 3 0 0 1 3.27 2.69ZM473.89 565.51a3 3 0 1 1-3.27-2.69 3 3 0 0 1 3.27 2.69ZM473.89 584.43a3 3 0 1 1-3.27-2.7 3 3 0 0 1 3.27 2.7ZM474.43 602.8a3 3 0 1 1-3.27-2.69 3 3 0 0 1 3.27 2.69ZM474.43 627.66a3 3 0 1 1-3.27-2.69 3 3 0 0 1 3.27 2.69ZM475.51 652a3 3 0 1 1-3.27-2.69 3 3 0 0 1 3.27 2.69Z" class="colorf7c09a svgShape"/><path fill="#5e5041" d="M497.81 283.89a10.3 10.3 0 0 1 .9-1.43 15.36 15.36 0 0 1 1-1.22 16.79 16.79 0 0 1 2.16-2 19.68 19.68 0 0 1 4.83-2.74l1.3-.5c.44-.12.87-.27 1.33-.37s.89-.21 1.36-.27l.69-.11.9-.11a6.18 6.18 0 0 1 6.26 3.22v.11a.19.19 0 0 1-.09.26.17.17 0 0 1-.17 0 7.23 7.23 0 0 0-2.53-.62 6.86 6.86 0 0 0-2.55.31c-.41.13-.83.32-1.25.48l-1.26.51-2.53 1c-1.69.66-3.38 1.33-5.08 2l-2.56.95-2.57.91a.2.2 0 0 1-.24-.12.26.26 0 0 1 0-.15ZM465.42 295.27a10 10 0 0 1 1.49-3 12.76 12.76 0 0 1 2.16-2.35 14.77 14.77 0 0 1 5.49-2.94 15.06 15.06 0 0 1 6.23-.46 12.76 12.76 0 0 1 3.1.85 9.62 9.62 0 0 1 2.87 1.8l.11.1a.18.18 0 0 1 0 .26.2.2 0 0 1-.14.06c-.93 0-1.86 0-2.79.07s-1.85.13-2.77.25a36.18 36.18 0 0 0-5.43 1.15 36.79 36.79 0 0 0-5.19 1.94c-.85.38-1.67.81-2.49 1.26s-1.62.9-2.41 1.41a.19.19 0 0 1-.26-.06.16.16 0 0 1 0-.15Z" class="color4f4f5e svgShape"/><path fill="#ed9e70" d="M499.68 325.92c-3.75 0-8.2-1.34-12-6.21l1.44-1.12c7.52 9.57 17.46 3.94 17.88 3.7l.92 1.57a18 18 0 0 1-8.24 2.06Z" class="colored8470 svgShape"/><path fill="#fcaf83" d="m482.6 372.61 12.78 6.68c-7.57-3.08-10-3.09-10.54-2.25-1 1.53 3.51 9 9.93 9 4.33 0 8.51-3.37 10-8.41l-4.77-4.88Z" class="colorfc9483 svgShape"/><path fill="#fcaf83" d="M505.12 371.1a1.3 1.3 0 0 0-.58.56 1.55 1.55 0 0 0-.06 1.13c-2.23-2-8-7-9.76-8.17a.84.84 0 1 1 .93-1.4c1.78 1.19 6.97 5.69 9.47 7.88ZM507.92 362.94a6.08 6.08 0 0 1-.88.7c.1.35.18.68.26 1-2.27-2-7.94-6.92-9.72-8.12a.84.84 0 1 1 .94-1.4c1.76 1.17 6.87 5.6 9.4 7.82ZM511.66 353.55q-1.68-.12-3.48-.18a5.24 5.24 0 0 1 .35.4c-3.12-1.78-6.94-3.9-8.4-4.53a.87.87 0 1 1 .68-1.6c1.95.83 7.6 4.04 10.85 5.91ZM471.84 376.56l.49.31c-.18-.1-.33-.21-.49-.31ZM484 373.82c-.47.91-1 1.9-1.54 3-7.34-1.79-15-4.25-17.19-4.95 4.15 1.18 15.38 1.51 15.38 1.51s1.35.15 3.35.44Z" class="colorfc9483 svgShape"/><path fill="#f9dccb" d="M455.79 362.76c4.49 10.55 10.82 24.05 18 35.12q1.43 2.19 2.89 4.25A60.24 60.24 0 0 0 487 413.71c-10.42 14.33-22.92 30.54-36.11 45.5l-2.65 3q-2.75 3.06-5.53 6c-.69.74-1.37 1.47-2.07 2.19a241.14 241.14 0 0 1-23.3 21.75c-2.61 2.09-5.21 4.05-7.78 5.83-5.21 3.62-9.54 5.69-13.11 6.5a11.49 11.49 0 0 1-7.37-.41c-3.3-1.47-5.38-4.85-6.57-9.39-3.81-14.52 1.44-40.85 4.57-54.1.29-1.22.56-2.32.8-3.29.75-3 1.25-4.8 1.25-4.8l4.61-5.06c.34-.36.69-.76 1.07-1.16l2.65-2.88.42-.45 1.61-1.75c2.93-3.18 6.38-6.9 10.18-11l3.19-3.41c4.13-4.39 8.61-9.12 13.26-14l.95-1 1.13-1.17 1.79-1.86c.27-.28.54-.57.82-.85q2.94-3 5.92-6.1c6.39-6.52 12.88-13.03 19.06-19.04Z" class="colorf9e4cb svgShape"/><path fill="#f7bc9a" d="M430 388.78c-.27.29-.55.57-.82.85-.33.33-.65.67-1 1l-1.13 1.17c.76.5 1.5 1 2.23 1.57l.13.1c.64.48 1.27 1 1.89 1.49a52.73 52.73 0 0 1 4.69 4.31c.31.32.61.65.91 1 .95 1 1.86 2.13 2.71 3.27.31.41.63.81.92 1.22l.84 1.28c.59.84 1.07 1.74 1.58 2.63.27.44.48.9.71 1.36l.66 1.38c.21.46.39.94.59 1.41s.39.94.53 1.42a29.23 29.23 0 0 1 1.75 11.54 10.06 10.06 0 0 1-.17 1.37l-.1.67c-.05.22-.12.42-.17.64a7.48 7.48 0 0 1-.4 1.24 6.47 6.47 0 0 1-.51 1.17 10.53 10.53 0 0 1-3.15 3.71 13.9 13.9 0 0 1-4.38 2.12 21.65 21.65 0 0 1-4.07.72c-.31 0-.64.06-1 .07a36.85 36.85 0 0 1-5.24-.12 46 46 0 0 1-5-.8l-.41-.09a50.31 50.31 0 0 1-7.27-2.33 57.72 57.72 0 0 1-3.32-1.47l-1.29-.64-1.05-.56-.21-.11c-.42-.22-.83-.47-1.24-.7l-.76-.44-.12-.08c-.12-.07-.24-.14-.35-.22l-1.22-.76-1.19-.79c-.33-.22-.65-.47-1-.7l-.19-.14c-.38-.28-.77-.56-1.15-.86s-.87-.68-1.3-1c-.69-.57-1.38-1.15-2.06-1.76-.36-.31-.71-.64-1.06-1l-.42.45-2.65 2.88-1.41.81.34.35c1 1 2 2 3.06 2.91.63.57 1.28 1.12 1.94 1.66l.29.23.61.48a50.05 50.05 0 0 0 10.55 6.19c.43.19.86.37 1.3.54 1.23.51 2.48 1 3.74 1.36.64.21 1.27.4 1.91.58 1.24.34 2.49.64 3.74.9.51.1 1 .2 1.53.28a46.23 46.23 0 0 0 6.17.62h1.54c.51 0 1-.05 1.53-.08s1-.09 1.52-.15l.74-.09.75-.13a25.545 25.545 0 0 0 3.25-.82 18.72 18.72 0 0 0 2.47-1 16.44 16.44 0 0 0 4.82-3.49 13.12 13.12 0 0 0 1.44-1.79 14.69 14.69 0 0 0 1.42-2.69c.09-.21.17-.43.25-.65a19.17 19.17 0 0 0 1-6.07 43.16 43.16 0 0 0-1.95-12.37c-.13-.51-.31-1-.47-1.53s-.32-1-.5-1.52l-.56-1.51c-.19-.5-.38-1-.59-1.5-.43-1-.83-2-1.32-3l-.71-1.48c-.25-.49-.52-1-.79-1.46-.79-1.44-1.65-2.86-2.59-4.24l-.48-.68a42 42 0 0 0-5-5.88c-.51-.49-1-1-1.56-1.45-.17-.16-.35-.31-.53-.46-.45-.39-.92-.77-1.39-1.13l-.12-.1c-.15.32-.42.61-.68.89ZM407.56 466.67a7.49 7.49 0 0 0-2.05-2.77 9.9 9.9 0 0 0-2-1.31c-.3-.16-.6-.31-.9-.44l-.26-.12c-.93-.43-1.89-.77-2.83-1.12s-2.08-.74-3.08-1.15a20.58 20.58 0 0 1-2.88-1.34 7.25 7.25 0 0 1-2.16-1.79 2.61 2.61 0 0 1-.54-2 4.32 4.32 0 0 1 1-1.84c.29-.35.61-.71 1-1.11a16.64 16.64 0 0 0 1.17-1.38 7.54 7.54 0 0 0 .65-1 5.55 5.55 0 0 0 .54-1.55 4.4 4.4 0 0 0-.2-2.27 5 5 0 0 0-1.11-1.81 7.89 7.89 0 0 0-2.29-1.65 15.32 15.32 0 0 0-2-.82 30.34 30.34 0 0 0-7.3-1.24c-1.45-.09-2.89-.11-4.32-.08-1.24 2.17-2.74 5-4.48 8.89 2.91-.42 5.85-.71 8.72-.85 1-.05 2-.09 3-.07a24.11 24.11 0 0 1 2.76.15c.42 0 .79.11 1.1.17-.33.68-.78 1.47-1.17 2.36a10.8 10.8 0 0 0-.69 2 6.67 6.67 0 0 0-.12 2.37 6 6 0 0 0 2.22 3.83 10.46 10.46 0 0 0 3.33 1.74c2.22.73 4.39 1.09 6.5 1.62a26.19 26.19 0 0 1 3.08.95 13.12 13.12 0 0 1 1.32.61 9.61 9.61 0 0 1 1.4.91 5.8 5.8 0 0 1 2 5.49 9.52 9.52 0 0 1-.92 2.93 5.7 5.7 0 0 1-.37.69 7.33 7.33 0 0 1-.39.67c-.29.41-.55.81-.86 1.2s0 .05-.06.07l-.48.61-.54.58c-.35.38-.73.75-1.11 1.1s-.53.47-.8.7c-.53.45-1.08.87-1.63 1.28a36.83 36.83 0 0 1-5.36 3.2 73.69 73.69 0 0 1-11.45 4.46 90.7 90.7 0 0 1-12 2.81 74 74 0 0 1-11.21 1.11c-.37 1.5-.74 3.05-1.12 4.64a58.82 58.82 0 0 0 9.57 1.11h3.46a44.64 44.64 0 0 0 13.63-2.72 40.36 40.36 0 0 0 12-7 41.54 41.54 0 0 0 4-3.87 34.54 34.54 0 0 0 3.35-4.38c.51-.8 1-1.61 1.42-2.45a16.26 16.26 0 0 0 2-6.6 7.92 7.92 0 0 0-.54-3.52Zm-18.48-18.53c.1-.22.19-.43.26-.62a1.19 1.19 0 0 1 .05-.47c0-.1.11-.09.09 0a1.64 1.64 0 0 1-.13.44 1.46 1.46 0 0 0 .05.2 3.09 3.09 0 0 0 .18.47c.04.14-.21.04-.5-.02Z" class="colorf7c09a svgShape"/></g><g data-name="table 2"><path fill="#776b5e" d="m654.27 1065.03-2.09-405.79 6.87.07 2.08 405.79-6.86-.07zM1253.18 1065.03l-2.08-405.79 6.86.07 2.08 405.79-6.86-.07zM1118.98 1142.33l-1.71-426.1 6.87.06 1.71 426.1-6.87-.06zM520.07 1142.33l-1.71-426.1 6.87.06 1.71 426.1-6.87-.06z" class="color5e5f77 svgShape"/><path fill="#91877c" d="m473 719.25 647.24.42 169.62-67.93H677.24Z" class="color7c7d91 svgShape"/><path fill="#847a6f" d="m1117.64 719.25 170.04-67.51v20l-170.04 71.69v-24.18z" class="color6f7184 svgShape"/><path fill="#423b34" d="M871.1 562.52h52.68v104.1H871.1z" class="color353442 svgShape"/><path fill="#3a342d" d="M871.1 604.12h52.68v33.61H871.1z" class="color2d2d3a svgShape"/><path fill="#423b34" d="M1061.53 624.23h-325a22.76 22.76 0 0 1-22.57-25.68l24.58-190a22.78 22.78 0 0 1 22.58-19.84h317.38a22.76 22.76 0 0 1 22.67 24.79l-17 190a22.76 22.76 0 0 1-22.64 20.73Z" class="color353442 svgShape"/><path fill="#423b34" d="M1061.53 625h-325a23.57 23.57 0 0 1-23.37-26.59l24.59-190a23.62 23.62 0 0 1 23.37-20.54h317.38a23.56 23.56 0 0 1 23.5 25.73l-17 190a23.45 23.45 0 0 1-23.47 21.4ZM761.07 389.55a22 22 0 0 0-21.78 19.14l-24.58 190a22 22 0 0 0 21.77 24.78h325a21.84 21.84 0 0 0 21.86-20l17-190a22 22 0 0 0-21.87-23.91Z" class="color353442 svgShape"/><path fill="#ffffff" d="M1052 609.91H748.07a14.44 14.44 0 0 1-14.32-16.29l23.61-182.43a14.44 14.44 0 0 1 14.32-12.59h296.64a14.45 14.45 0 0 1 14.39 15.73q-8.14 91.21-16.3 182.42a14.45 14.45 0 0 1-14.41 13.16Z" class="colorfff svgShape"/><path fill="#847a6f" d="M473.03 719.25h646.82v24.17H473.03z" class="color6f7184 svgShape"/><path fill="#423b34" d="M1080.77 692.17c-6.31-.22-21-.74-24-8.67-1.29-3.44 0-7.22 1.5-10.07a59.28 59.28 0 0 1 22.48-15.73c1.21-.45 2.46-.86 3.74-1.21 8.91-2.45 19.53-2.27 30.94 4.27 1.87 1.07 12.51 7 12 14.09-.8 10.77-26.86 18.03-46.66 17.32Z" class="color353442 svgShape"/><path fill="#3a342d" d="M1127.43 674.85c.2-2.66-1.17-5.16-3.07-7.3-4.55 9.23-27.82 15.22-45.89 14.58-5.27-.19-16.35-.59-21.62-5.32a10.36 10.36 0 0 0-.07 6.69c3 7.92 17.68 8.45 24 8.67 19.79.71 45.85-6.55 46.65-17.32ZM1116.21 661.2q-3.17-.44-6.36-.6a80.27 80.27 0 0 0-16.89.86l-1.36.22.22 1.28.09.53.43-.07c.79-.13 1.57-.25 2.36-.36a79.56 79.56 0 0 1 25.3.6Z" class="color2d2d3a svgShape"/><path fill="#3a342d" d="m1104.46 676.66-1.63.88c-10.38-19.33-20.9-19.84-22.06-19.84 1.21-.45 2.46-.86 3.74-1.21 4.54 1.42 12.31 5.95 19.95 20.17Z" class="color2d2d3a svgShape"/><ellipse cx="902.35" cy="666.37" fill="#423b34" rx="90.06" ry="12.44" class="color353442 svgShape"/><path fill="#db7e4a" d="m696 543.33-.75-.29a7.94 7.94 0 0 1 .75.29Z" class="colordb664a svgShape"/><rect width="79.81" height="8.93" x="749.8" y="583.17" fill="#dbd8d7" rx="4.03" transform="rotate(.18 774.402 578.109)" class="colord7d7db svgShape"/><rect width="13.65" height="8.93" x="968.24" y="583.74" fill="#dbd8d7" rx="1.67" transform="rotate(.18 955.839 577.824)" class="colord7d7db svgShape"/><rect width="54.61" height="8.93" x="989.94" y="583.87" fill="#dbd8d7" rx="3.33" transform="rotate(.18 997.22 577.759)" class="colord7d7db svgShape"/><path fill="#f4d1bd" d="m956.23 592.61-113.42-.35a4.49 4.49 0 0 1-4.45-4.48 4.47 4.47 0 0 1 4.48-4.45l113.42.35a4.48 4.48 0 0 1 4.45 4.48 4.49 4.49 0 0 1-4.48 4.45Z" class="colorbddff4 svgShape"/><rect width="78.28" height="10.04" x="773.46" y="421.45" fill="#dbd8d7" rx="4.23" transform="rotate(.18 796.434 418.919)" class="colord7d7db svgShape"/><rect width="13.39" height="10.04" x="987.69" y="422.01" fill="#dbd8d7" rx="1.75" transform="translate(1.32 -3.06)" class="colord7d7db svgShape"/><rect width="53.56" height="10.04" x="1008.98" y="422.14" fill="#dbd8d7" rx="3.5" transform="rotate(.18 1016.068 418.574)" class="colord7d7db svgShape"/><rect width="119.99" height="10.04" x="860.32" y="421.78" fill="#f4d1bd" rx="4.69" transform="rotate(.18 901.476 418.754)" class="colorbddff4 svgShape"/><rect width="51.46" height="8.93" x="1010.01" y="447.9" fill="#dbd8d7" rx="3.23" transform="rotate(.18 1016.108 444.038)" class="colord7d7db svgShape"/><rect width="29.76" height="8.93" x="855.28" y="447.38" fill="#f4d1bd" rx="2.2" transform="rotate(.18 853.77 444.293)" class="colorbddff4 svgShape"/><rect width="25.73" height="8.93" x="977.63" y="447.76" fill="#f4d1bd" rx="2.05" transform="rotate(.18 971.544 444.108)" class="colorbddff4 svgShape"/><rect width="79.81" height="8.93" x="766.71" y="447.19" fill="#dbd8d7" rx="4.03" transform="translate(1.4 -2.48)" class="colord7d7db svgShape"/><rect width="79.81" height="8.93" x="893.26" y="447.58" fill="#dbd8d7" rx="4.03" transform="translate(1.4 -2.87)" class="colord7d7db svgShape"/><rect width="117.8" height="8.93" x="853" y="473.2" fill="#f4d1bd" rx="4.38" transform="rotate(.18 895.19 469.693)" class="colorbddff4 svgShape"/><rect width="79.81" height="8.93" x="979.38" y="473.54" fill="#dbd8d7" rx="4.03" transform="rotate(.18 1000.232 469.528)" class="colord7d7db svgShape"/><rect width="79.81" height="8.93" x="764.44" y="472.87" fill="#dbd8d7" rx="4.03" transform="translate(1.48 -2.48)" class="colord7d7db svgShape"/><rect width="79.81" height="8.93" x="750.29" y="562.49" fill="#dbd8d7" rx="4.03" transform="rotate(.18 774.367 555.827)" class="colord7d7db svgShape"/><rect width="79.81" height="8.93" x="834.13" y="562.75" fill="#dbd8d7" rx="4.03" transform="rotate(.18 857.128 555.697)" class="colord7d7db svgShape"/><rect width="11.03" height="8.93" x="919.55" y="562.9" fill="#dbd8d7" rx="1.5" transform="rotate(.18 908.062 558.8)" class="colord7d7db svgShape"/><rect width="23.63" height="8.93" x="1021.42" y="563.24" fill="#dbd8d7" rx="2.19" transform="rotate(.18 1016.288 558.63)" class="colord7d7db svgShape"/><rect width="79.81" height="8.93" x="937.93" y="563.07" fill="#f4d1bd" rx="4.03" transform="rotate(.18 958.987 555.537)" class="colorbddff4 svgShape"/><rect width="79.81" height="8.93" x="754.66" y="540.05" fill="#dbd8d7" rx="4.03" transform="rotate(.18 780.699 533.535)" class="colord7d7db svgShape"/><rect width="60.74" height="8.93" x="841.3" y="540.29" fill="#f4d1bd" rx="3.51" transform="rotate(.18 853.91 533.42)" class="colorbddff4 svgShape"/><rect width="60.74" height="8.93" x="909.57" y="540.5" fill="#dbd8d7" rx="3.51" transform="rotate(.18 920.755 533.315)" class="colord7d7db svgShape"/><rect width="75.26" height="8.93" x="974.15" y="540.72" fill="#dbd8d7" rx="3.91" transform="rotate(.18 993.971 536.383)" class="colord7d7db svgShape"/><rect width="79.81" height="8.93" x="755.28" y="516.87" fill="#dbd8d7" rx="4.03" transform="rotate(.18 780.664 511.253)" class="colord7d7db svgShape"/><path fill="#f4d1bd" d="m934.09 526.22-87.75-.22a4.44 4.44 0 0 1-4.42-4.44v-.07a4.45 4.45 0 0 1 4.44-4.42l87.76.28a4.43 4.43 0 0 1 4.42 4.44v.07a4.45 4.45 0 0 1-4.45 4.36Z" class="colorbddff4 svgShape"/><path fill="#dbd8d7" d="m1045.56 526.57-98.72-.31a4.47 4.47 0 0 1-4.45-4.48 4.49 4.49 0 0 1 4.48-4.45l98.71.31a4.47 4.47 0 0 1 4.45 4.48 4.48 4.48 0 0 1-4.47 4.45Z" class="colord7d7db svgShape"/><rect width="79.81" height="8.93" x="760.32" y="494.42" fill="#dbd8d7" rx="4.03" transform="rotate(.18 786.995 488.962)" class="colord7d7db svgShape"/><rect width="79.81" height="8.93" x="844.16" y="494.68" fill="#dbd8d7" rx="4.03" transform="rotate(.18 866.572 488.837)" class="colord7d7db svgShape"/><rect width="35.71" height="8.93" x="929.58" y="494.87" fill="#f4d1bd" rx="2.69" transform="rotate(.18 930.234 488.737)" class="colorbddff4 svgShape"/><rect width="85.07" height="8.93" x="970.01" y="495.07" fill="#dbd8d7" rx="4.16" transform="rotate(.18 993.896 488.637)" class="colord7d7db svgShape"/></g><g data-name="woman 3"><path fill="#ffba92" d="M968.79 1145.5c.34 4.1-12.59 8.86-22.39 10.47-6.84 1.11-10.84 1.76-15.26-.14-7.6-3.27-6.43-9.78-16.24-22.14-7.53-9.5-10.39-8.38-14.16-16-1.07-2.16-5.66-11.59-2.82-21.67a14 14 0 0 1 2.39-5c1.63-2.13 3.61-3.51 5.73-7.56 7.61-14.53-2.13-26.76 4.43-33.22 4.67-4.6 15.81-4.49 21.41.74 8.65 8.07-2.94 21.74 1.48 49.46 1.38 8.68 3.36 23.63 12.6 33.14a28.07 28.07 0 0 0 4.63 3.86c8.79 5.84 17.91 4.64 18.2 8.06Z" class="colorffa592 svgShape"/><path fill="#49423b" d="M897.18 1102.68v51.68h8.12l2.96-47.25-11.08-4.43z" class="color3c3b49 svgShape"/><path fill="#49423b" d="M968.79 1145.5c.34 4.1-12.59 8.86-22.39 10.47-6.84 1.11-10.84 1.76-15.26-.14-7.6-3.27-6.43-9.78-16.24-22.14-7.53-9.5-10.39-8.38-14.16-16-1.07-2.16-5.66-11.59-2.82-21.67a14 14 0 0 1 2.39-5c4.29-.23 9 .56 11.64 4.25 5.9 8.12 17.71 39.86 28.79 39.13a27.94 27.94 0 0 0 5.22-.82 28.07 28.07 0 0 0 4.63 3.86c8.79 5.84 17.91 4.64 18.2 8.06Z" class="color3c3b49 svgShape"/><path fill="#ffba92" d="M859.54 1134.43c.34 4.1-12.59 8.86-22.39 10.46-6.84 1.12-10.84 1.77-15.26-.13-7.6-3.27-6.43-9.78-16.24-22.15-7.53-9.49-10.39-8.37-14.16-16-1.07-2.15-5.66-11.59-2.82-21.66a14 14 0 0 1 2.39-5c1.63-2.13 3.61-3.52 5.73-7.56 7.61-14.53-2.13-26.76 4.43-33.22 4.67-4.6 15.81-4.49 21.41.74 8.65 8.07-2.94 21.74 1.48 49.46 1.38 8.68 3.36 23.63 12.6 33.14a27.53 27.53 0 0 0 4.63 3.85c8.79 5.84 17.91 4.64 18.2 8.07Z" class="colorffa592 svgShape"/><path fill="#49423b" d="M787.93 1091.61v51.67h8.12l2.96-47.24-11.08-4.43z" class="color3c3b49 svgShape"/><path fill="#49423b" d="M859.54 1134.43c.34 4.1-12.59 8.86-22.39 10.46-6.84 1.12-10.84 1.77-15.26-.13-7.6-3.27-6.43-9.78-16.24-22.15-7.53-9.49-10.39-8.37-14.16-16-1.07-2.15-5.66-11.59-2.82-21.66a14 14 0 0 1 2.39-5c4.29-.23 9 .56 11.64 4.25 5.9 8.12 17.71 39.86 28.79 39.12a28 28 0 0 0 5.22-.81 27.53 27.53 0 0 0 4.63 3.85c8.79 5.84 17.91 4.64 18.2 8.07Z" class="color3c3b49 svgShape"/><path fill="#38322b" d="M635.87 826.61s148.37-62 173.47-47.25c12.14 7.14 31.34 32.07 25.91 53.53-3.29 13-14.8 20.65-21.48 24.72-51 31.13-172.73 69.56-193.4 76Z" class="color2b2b38 svgShape"/><path fill="#38322b" d="m762.84 893.78 19.93 162.4h53.15c21.05-203 4.55-256.23-17-262.79-10.44-3.18-24 4-25.34 4.72-37.46 20.33-31.43 88.77-30.74 95.67Z" class="color2b2b38 svgShape"/><path fill="#423b34" d="M750.29 835.46s148.37-62 173.47-47.24c12.14 7.14 31.33 32.06 25.91 53.53-3.29 13-14.8 20.64-21.48 24.72-51 31.13-172.73 69.55-193.4 76Z" class="color353442 svgShape"/><path fill="#423b34" d="M877.25 902.64 897.18 1065h53.15c21.06-202.95 4.56-256.23-17-262.79-10.44-3.19-24 4-25.35 4.72-37.45 20.37-31.42 88.81-30.73 95.71Z" class="color353442 svgShape"/><path fill="#ffba92" d="m824.28 666.8 36.42-14.34h16.55c2.84.49 26.16 4.6 33.11 8.82.9.55 1.16.88 1.11 1.11-.34 1.41-12.72-.31-24.28-2.21a125.88 125.88 0 0 1 15.45 4.42c4 1.42 11.32 4 11 5.51-.16.84-2.68 1-4.41 1.11L885 666.8c2.12.5 5.17 1.24 8.83 2.21 9 2.37 15.59 4.15 15.45 5.52 0 .34-.5.72-2.21 1.1-7.91 1.79-20.79-1.09-25.38-2.21l-15.45 2.21a40.91 40.91 0 0 0 8.83 2.21c4.45.59 7.89.26 8.82 2.21a2.81 2.81 0 0 1 0 2.2c-.26.66-1.43 2.91-8.82 3.31-9.27.51-28.7-6.62-28.7-6.62l-22.56 2.55Z" class="colorffa592 svgShape"/><path fill="#f2f1f0" d="M589.06 636.85c9.18-12.28 28.18-33.63 50.74-32.11 9.57.65 18.56 5.32 53.78 42.16 17.1 17.89 30.75 33.27 40.2 44.22l94.35-33.71q14.63 14.85 29.27 29.69a218.45 218.45 0 0 1-50.25 42.21c-19.81 12.06-44.29 27-77.39 28.14-42.76 1.55-72.11-20.81-109.54-49.24-21.64-16.44-31.81-29.27-34.17-45.23a53.38 53.38 0 0 1 3.01-26.13Z" class="colorf0f0f2 svgShape"/><path fill="#f8dccb" d="m623.91 1185.27-4.79-.38 16.45-284.06 11.37-1.14q-11.52 142.78-23.03 285.58ZM791.29 1188.87l-4.78.43-18.27-283.91 11.12-3q5.97 143.22 11.93 286.48Z" class="colorf8e4cb svgShape"/><path fill="#ffba92" d="m723.61 562.72-1.84 11.11-1.77 10.65-5.2 31.52-54.86-2.25q10-29.14 20-58.26l25.58 4.23 5.66.94Z" class="colorffa592 svgShape"/><path fill="#ed9d6f" d="M721.77 573.83 720 584.48c-3.42-3.53-11.7-12.83-14-22.14a21.11 21.11 0 0 1-.5-2.62c-.6-5.2 3.41-1.5 5.66.94.87.93 1.48 1.68 1.48 1.68Z" class="colored886f svgShape"/><path fill="#ffba92" d="M759.53 553.88a3.57 3.57 0 0 1-.77 1.29 14.77 14.77 0 0 0-1.22 1.68l-.13.21a18.14 18.14 0 0 1-1.59 2.65 12.22 12.22 0 0 1-1.59 1.59c-2.41 2-9.42 13.62-11.17 15.49-7.92 8.45-72.75-7.66-74.34-48.09-.92-23.16 19.24-49.25 44-50.68 20.62-1.19 42.39 14.82 42.17 26.26-.08 4.22-3.2 10.07.66 22.33a5.9 5.9 0 0 0 .38.88 6.5 6.5 0 0 0 .81 1.21c1.36 1.62 1.61 16.74 2.78 22a5.63 5.63 0 0 1 .01 3.18Z" class="colorffa592 svgShape"/><path fill="#ed9d6f" d="M755.32 525.7c2.66 3.8 4.92 6.82 6.53 8.94 2.71 3.55 3.93 5 3.68 6.69-.45 3.17-5.38 4.63-6.52 4.95Z" class="colored886f svgShape"/><path d="M746.76 526.73c0 2.11-1 3.83-2.29 3.83s-2.29-1.72-2.29-3.83 1-3.82 2.29-3.82 2.29 1.71 2.29 3.82Z" fill="#000000" class="color000 svgShape"/><path fill="#423b34" d="M735.69 520.42a12.48 12.48 0 0 1 3.63-3.24 20.24 20.24 0 0 1 4.45-2.07 20 20 0 0 1 4.84-1 13.17 13.17 0 0 1 4.95.42 2.26 2.26 0 0 1-.41 2.08c-1.11 1.31-3.32.76-8.13 1.95-2.08.52-2.28.76-4.41 1.21a28 28 0 0 1-4.92.65Z" class="color353442 svgShape"/><path fill="#ed9e70" d="M710 534s-5.77-5.47-7.56-2 3 6.34 3 6.34c.21-.25.41-.51.61-.77-2.22-1.24-3.36-3.1-3-4.43a2.25 2.25 0 0 1 1.48-1.48c.64-.16 1.19.14 2.26.73a12.69 12.69 0 0 1 2.18 1.49Z" class="colored8470 svgShape"/><path fill="#ffffff" d="M775.39 746.88c-3 16.14-.69 10.21-7.39 63.49-3.71 29.56-7.21 53.64-9.59 69.38-17.4 3.58-145.76 28.63-180.12-27.31-7.92-12.9-4-18.93.74-101.87 5.25-92.16 2.59-123.45 26.87-141.59 9.29-6.94 20.32-8.51 42.38-11.66 59.82-8.52 105.88 14.59 124.15 24.07 12.85 6.67 19.35 10.12 22.89 15.51 14.33 21.79-8.38 47.42-19.93 109.98Z" class="colorfff svgShape"/><path fill="#ffba92" d="M977.26 687.89c8.23-3.66 26.18-11.47 46-18.51a33.29 33.29 0 0 1 18.64-1.64c6.84 1.48 14.44 5.61 14.15 8.22-.45 4-19 5-19.29 3.3-.18-1.27 13.94-3.48 20.57-4.12 2.41-.23 6.34-.5 7.08 1.65a2.94 2.94 0 0 1 0 1.64c-.78 2.47-5.09 1.41-9 2.47-7.35 2-13 5.33-12.85 5.76s4.48-1.56 11.57-2.47c8.39-1.08 12.69.28 12.86 1.65a12.08 12.08 0 0 1-.32 2q-6.2 1.49-12.54 2.88-5.83 1.29-11.57 2.47c-4.2.86-7.12 2.2-7.08 2.47.09.59 14.74-3.53 15.43-.82.2.76-.77 1.87-1.28 2.46a7.38 7.38 0 0 1-5.15 2.47c-3.47.35-6.81 2.08-10.28 2.47-8.94 1-17.78 3.16-26.69 4.52s-25.1 9.1-30.25-18.87Z" class="colorffa592 svgShape"/><path fill="#fcaf83" d="M851.9 855.46c.07 6.9-1.81 16.81-6.26 28.17-8.79 22.46-27.6 50.59-61.15 72.3a210.75 210.75 0 0 1-60.89 26.64 180.56 180.56 0 0 1-80.33 2.7 176.46 176.46 0 0 1-83.33-41.7 205.27 205.27 0 0 1-15.39-15.29l-.07-.07c-39.79-39.76-36.66-103.44-34.11-142.2v-.63c3.86-58.37 5.79-87.55 28-110.24 20.07-20.53 46.41-27.88 68.06-30.09a172.47 172.47 0 0 1 38.06.48c17.58 2.06 53.24 6.25 75.69 32.08 47.55 54.73-10.44 153.43 24.26 174.67 25.66 15.71 88.85-19 88.85-19a14 14 0 0 1 5.57-1.2c5.41.01 12.83 3.62 13.04 23.38Z" class="colorfcc683 svgShape"/><path fill="#f8dccb" d="m528.82 1219.49-4.55-.93L564 948.5l11 .24ZM721.45 1251.06h4.62L725.74 977l-10.85-2q3.27 138 6.56 276.06Z" class="colorf8e4cb svgShape"/><path fill="#ed9b6b" d="M845.64 883.63c-8.79 22.46-27.6 50.59-61.15 72.3C765.82 968 711 998.61 643.27 985.27c-56.53-11.13-88.88-46.3-98.72-57a185.7 185.7 0 0 1-20.12-26.88 348.78 348.78 0 0 0 321.24-17.74ZM733.3 832.17c-.9 17 1.19 30.22 11.57 36.57 17 10.4 62.27-.59 88.84-19 3.71-2.57 9.38-6.9 16.06-8.76-4.89-13.39-16.47-7.69-16.47-7.69s-63.19 34.7-88.85 19c-6.7-4.11-9.93-11.11-11.15-20.12ZM510.82 801.83c3.86-58.36 5.79-87.55 28-110.23 36.9-37.75 95-30.93 106.12-29.62 17.58 2.06 53.24 6.25 75.69 32.08 12.62 14.53 17.81 32.16 19.26 50.62.55-24.26-3.33-48.26-19.67-67.07-22.45-25.83-58.11-30-75.69-32.08-11.16-1.31-69.22-8.13-106.12 29.61-22.18 22.69-24.11 51.87-28 110.24-.94 14.15-2 31.7-1 50.23.05-12.37.76-23.9 1.41-33.78Z" class="coloredaf6b svgShape"/><path fill="#f4ccb5" d="M723.6 982.57a180.56 180.56 0 0 1-80.33 2.7 176.46 176.46 0 0 1-83.33-41.7C538.67 907.8 518.41 856.7 510.37 786v-.63c3.86-58.37 5.79-87.55 28-110.24 20.07-20.53 46.41-27.88 68.06-30.09-9.89 27.33-82.59 246.09 92.36 326.25q13.41 6.15 24.81 11.28Z" opacity=".51" class="colorf4d5b5 svgShape"/><path fill="#fcdecd" d="M1066.46 685.85c-.78 2.47-5.09 1.41-9 2.47a51.19 51.19 0 0 0-10.11 3.91c2.25-.47 4.49-1 6.76-1.46q6.35-1.39 12.54-2.88a12.08 12.08 0 0 0 .32-2 1.06 1.06 0 0 0-.39-.64 4 4 0 0 1-.12.6ZM1025.31 676.8a33.36 33.36 0 0 1 18.64-1.65c4.75 1 9.86 3.34 12.45 5.53 3.62-.68 7.27 0 8-2.25a2.94 2.94 0 0 0 0-1.64c-.74-2.15-4.67-1.88-7.08-1.65l-1.37.15c-.88-2.61-7.79-6.2-14.06-7.55a33.29 33.29 0 0 0-18.64 1.64c-19.8 7-37.75 14.85-46 18.51a36.14 36.14 0 0 0 2.13 7.39c8.26-3.67 26.18-11.46 45.93-18.48Z" opacity=".33" class="colorfcd3cd svgShape"/><path fill="#b8844c" d="m652.51 599.44-2.11-14.83s38.67-8 55.62 0a109.06 109.06 0 0 1 27.09 17.73l-12.26 2.93s-59.85 1.06-68.34-5.83Z" class="color4c5fb8 svgShape"/><rect width="5.3" height="4.9" x="706.55" y="542.63" fill="#ffffff" rx="1.13" class="colorfff svgShape"/><path fill="#ed9d6f" d="M758.76 555.17a14.77 14.77 0 0 0-1.22 1.68 14.41 14.41 0 0 1-2.86.29 12.92 12.92 0 0 1-7.21-2.14.8.8 0 0 1 .88-1.33 11.89 11.89 0 0 0 9.69 1.41.79.79 0 0 1 .72.09Z" class="colored886f svgShape"/><path fill="#423b34" d="M717.81 462.69a32.53 32.53 0 0 1 14 8.85c3.44-.79 10.54-1.86 17.72 1.48 11 5.1 17.61 18.38 16.24 33.22 0 0-38.39 8.12-42.08 12.55s-11.81 9.59-11.81 9.59c-5-3.81-10.49-4.52-13.28-2.21-3.25 2.68-2 8.71-1.48 11.07 2 9.64 10 15.87 9.6 16.24-.11.1-.75-.26-3.7-3l-12.52 29.58c-11.16.27-31.5-.89-52.41-12.55a98.26 98.26 0 0 1-19.2-14c8.53-22.38 24.12-52 52.41-73.82 11.98-9.27 29.18-22.16 46.51-17Z" class="color353442 svgShape"/><path fill="#ffffff" d="M1000.53 708.5c-7.2 7.93-56.28 60.48-121.06 55.36-20.75-1.64-38.89-9.32-46.51-12.55-35.37-15-58.07-38-70.12-52.41C746.5 681 743.53 657 754 641.32c7.7-11.54 20.42-15.16 25.1-16.24 10.55 9.73 22.1 19.64 34.69 29.53a579.11 579.11 0 0 0 76.77 50.94 277.69 277.69 0 0 1 89.37-18.17Z" class="colorfff svgShape"/></g></svg>