<svg xmlns="http://www.w3.org/2000/svg" enable-background="new 0 0 1509.333 1141.41" viewBox="0 0 1509.333 1141.41"><rect width="1509.333" height="1141.41" fill="none"/><polygon fill="#ccc6c2" points="1508.807 1141.251 .263 1141.41 0 968.831 1509.333 968.991" class="colorc2c6cc svgShape"/><rect width="188.243" height="261.93" x="708.351" y="485.849" fill="#baa293" class="color93a5ba svgShape"/><path fill="#fcf9f7" d="M916.729,406.551c0,5.422-4.396,9.818-9.818,9.818H703.298c-5.422,0-9.818-4.396-9.818-9.818V292.13       c0-5.422,4.396-9.818,9.818-9.818H906.91c5.422,0,9.818,4.396,9.818,9.818V406.551z" class="colorfafcf7 svgShape"/><rect width="227.032" height="9.122" x="693.48" y="502.858" fill="#cebdb3" class="colorb3bece svgShape"/><path fill="#ffa067" d="M730.237,339.362c0,1.331-1.043,2.411-2.329,2.411h-18.044c-1.287,0-2.33-1.079-2.33-2.411v-40.044        c0-1.332,1.043-2.411,2.33-2.411h18.044c1.287,0,2.329,1.079,2.329,2.411V339.362z" class="color67fffe svgShape"/><rect width="33.514" height="12.973" x="707.534" y="349.341" fill="#532e00" class="color003e53 svgShape"/><rect width="33.514" height="12.973" x="707.534" y="368.896" fill="#cebdb3" class="colorb3bece svgShape"/><rect width="33.514" height="12.973" x="707.534" y="388.274" fill="#cebdb3" class="colorb3bece svgShape"/><path fill="#965809" d="M874.44,295.285H757.93c-3.691,0-6.684,3.545-6.684,7.918v90.066        c25.194-24.452,51.179-48.048,82.164-69.975C847.329,313.415,860.511,303.541,874.44,295.285z" class="color097896 svgShape"/><path fill="#874e06" d="M896.531,295.285H874.44c-13.929,8.256-27.111,18.13-41.03,28.009        c-30.985,21.928-56.969,45.524-82.164,69.975v2.209c0,4.373,2.992,7.918,6.684,7.918h138.601c3.691,0,6.683-3.545,6.683-7.918        v-92.275C903.215,298.83,900.223,295.285,896.531,295.285z" class="color066687 svgShape"/><path fill="#d67e49" d="M814.565,380.194c-0.042,0-0.085-0.003-0.127-0.007c-0.543-0.062-0.964-0.505-0.994-1.051l-2.408-41.892         l-4.884,12.506c-0.168,0.43-0.584,0.714-1.046,0.714h-17.698l-4.168,25.102c-0.093,0.563-0.585,0.973-1.165,0.938         c-0.57-0.029-1.027-0.482-1.063-1.051l-2.324-37.27l-3.593,11.493c-0.146,0.469-0.581,0.788-1.071,0.788h-17.298         c-0.62,0-1.123-0.503-1.123-1.123c0-0.62,0.503-1.123,1.123-1.123h16.472l5.159-16.51c0.161-0.517,0.664-0.847,1.206-0.78         c0.538,0.065,0.953,0.504,0.986,1.045l2.089,33.5l2.709-16.317c0.09-0.541,0.559-0.939,1.107-0.939h17.883l6.477-16.584         c0.193-0.491,0.702-0.784,1.222-0.7c0.521,0.083,0.915,0.517,0.945,1.044l2.328,40.507l6.824-23.459         c0.14-0.48,0.579-0.809,1.078-0.809h22.509l7.274-16.625c0.206-0.474,0.704-0.745,1.221-0.656         c0.509,0.088,0.893,0.513,0.928,1.029l2.522,36.564l2.814-19.35c0.08-0.552,0.553-0.961,1.111-0.961h31.352         c0.62,0,1.123,0.503,1.123,1.123c0,0.62-0.503,1.123-1.123,1.123h-30.381l-4.184,28.769c-0.083,0.568-0.581,0.97-1.154,0.961         c-0.573-0.022-1.038-0.472-1.078-1.045l-2.93-42.463l-5.733,13.105c-0.178,0.409-0.583,0.673-1.029,0.673h-22.401         l-8.414,28.921C815.501,379.868,815.058,380.194,814.565,380.194z" class="color9cd649 svgShape"/><rect width="34.83" height="24.325" x="792.401" y="416.369" fill="#cebdb3" class="colorb3bece svgShape"/><rect width="90.813" height="7.027" x="763.211" y="435.829" fill="#fcf9f7" class="colorfafcf7 svgShape"/><rect width="227.032" height="60.001" x="693.48" y="442.857" fill="#fcf9f7" class="colorfafcf7 svgShape"/><path fill="#cebdb3" d="M900.242,540.78c0,2.641-2.185,4.781-4.881,4.781H721.874c-2.695,0-4.88-2.141-4.88-4.781v-71.52        c0-2.641,2.185-4.781,4.88-4.781h173.487c2.695,0,4.881,2.141,4.881,4.781V540.78z" class="colorb3bece svgShape"/><path fill="#e0d0c7" d="M900.242,533.603c0,2.641-2.185,4.782-4.881,4.782H721.874c-2.695,0-4.88-2.141-4.88-4.782v-71.52        c0-2.641,2.185-4.782,4.88-4.782h173.487c2.695,0,4.881,2.141,4.881,4.782V533.603z" class="colorc7d3e0 svgShape"/><path fill="#cebdb3" d="M738.294 480.213c0 .438-.287.792-.64.792h-13.27c-.354 0-.64-.355-.64-.792v-9.234c0-.438.287-.792.64-.792h13.27c.354 0 .64.355.64.792V480.213zM757.311 480.213c0 .438-.286.792-.64.792h-13.27c-.354 0-.64-.355-.64-.792v-9.234c0-.438.286-.792.64-.792h13.27c.354 0 .64.355.64.792V480.213zM776.328 480.213c0 .438-.287.792-.64.792h-13.27c-.354 0-.64-.355-.64-.792v-9.234c0-.438.287-.792.64-.792h13.27c.354 0 .64.355.64.792V480.213zM795.344 480.213c0 .438-.286.792-.64.792h-13.27c-.353 0-.64-.355-.64-.792v-9.234c0-.438.286-.792.64-.792h13.27c.354 0 .64.355.64.792V480.213zM814.361 480.213c0 .438-.287.792-.64.792h-13.27c-.353 0-.64-.355-.64-.792v-9.234c0-.438.287-.792.64-.792h13.27c.353 0 .64.355.64.792V480.213zM833.377 480.213c0 .438-.287.792-.64.792h-13.27c-.353 0-.64-.355-.64-.792v-9.234c0-.438.286-.792.64-.792h13.27c.354 0 .64.355.64.792V480.213zM852.394 480.213c0 .438-.286.792-.64.792h-13.27c-.353 0-.64-.355-.64-.792v-9.234c0-.438.287-.792.64-.792h13.27c.354 0 .64.355.64.792V480.213zM871.41 480.213c0 .438-.287.792-.64.792H857.5c-.353 0-.64-.355-.64-.792v-9.234c0-.438.286-.792.64-.792h13.27c.354 0 .64.355.64.792V480.213zM890.426 480.213c0 .438-.286.792-.64.792h-13.27c-.354 0-.64-.355-.64-.792v-9.234c0-.438.286-.792.64-.792h13.27c.354 0 .64.355.64.792V480.213z" class="colorb3bece svgShape"/><g><path fill="#fcf9f7" d="M736.856 478.072c0 .438-.287.793-.64.793h-13.27c-.353 0-.64-.355-.64-.793v-9.234c0-.438.287-.793.64-.793h13.27c.354 0 .64.355.64.793V478.072zM755.873 478.072c0 .438-.286.793-.64.793h-13.27c-.353 0-.64-.355-.64-.793v-9.234c0-.438.286-.793.64-.793h13.27c.354 0 .64.355.64.793V478.072zM774.89 478.072c0 .438-.286.793-.64.793h-13.27c-.353 0-.64-.355-.64-.793v-9.234c0-.438.287-.793.64-.793h13.27c.354 0 .64.355.64.793V478.072zM793.906 478.072c0 .438-.286.793-.64.793h-13.27c-.354 0-.64-.355-.64-.793v-9.234c0-.438.286-.793.64-.793h13.27c.354 0 .64.355.64.793V478.072zM812.922 478.072c0 .438-.286.793-.64.793h-13.27c-.354 0-.64-.355-.64-.793v-9.234c0-.438.286-.793.64-.793h13.27c.354 0 .64.355.64.793V478.072zM831.939 478.072c0 .438-.286.793-.64.793h-13.27c-.354 0-.64-.355-.64-.793v-9.234c0-.438.287-.793.64-.793h13.27c.354 0 .64.355.64.793V478.072zM850.955 478.072c0 .438-.287.793-.64.793h-13.27c-.354 0-.64-.355-.64-.793v-9.234c0-.438.286-.793.64-.793h13.27c.353 0 .64.355.64.793V478.072zM869.972 478.072c0 .438-.287.793-.64.793h-13.27c-.354 0-.64-.355-.64-.793v-9.234c0-.438.287-.793.64-.793h13.27c.353 0 .64.355.64.793V478.072zM888.988 478.072c0 .438-.286.793-.64.793h-13.27c-.354 0-.64-.355-.64-.793v-9.234c0-.438.286-.793.64-.793h13.27c.353 0 .64.355.64.793V478.072z" class="colorfafcf7 svgShape"/></g><g><path fill="#cebdb3" d="M738.655 495.875c0 .438-.286.793-.64.793h-13.27c-.353 0-.64-.355-.64-.793v-9.234c0-.438.287-.792.64-.792h13.27c.354 0 .64.354.64.792V495.875zM757.671 495.875c0 .438-.286.793-.64.793h-13.27c-.354 0-.64-.355-.64-.793v-9.234c0-.438.286-.792.64-.792h13.27c.353 0 .64.354.64.792V495.875zM776.688 495.875c0 .438-.286.793-.64.793h-13.27c-.354 0-.64-.355-.64-.793v-9.234c0-.438.286-.792.64-.792h13.27c.354 0 .64.354.64.792V495.875zM795.704 495.875c0 .438-.286.793-.64.793h-13.27c-.354 0-.64-.355-.64-.793v-9.234c0-.438.287-.792.64-.792h13.27c.354 0 .64.354.64.792V495.875zM814.721 495.875c0 .438-.287.793-.64.793h-13.27c-.354 0-.64-.355-.64-.793v-9.234c0-.438.286-.792.64-.792h13.27c.353 0 .64.354.64.792V495.875zM833.737 495.875c0 .438-.286.793-.64.793h-13.27c-.353 0-.64-.355-.64-.793v-9.234c0-.438.287-.792.64-.792h13.27c.353 0 .64.354.64.792V495.875zM852.754 495.875c0 .438-.287.793-.64.793h-13.27c-.354 0-.64-.355-.64-.793v-9.234c0-.438.287-.792.64-.792h13.27c.353 0 .64.354.64.792V495.875zM871.77 495.875c0 .438-.286.793-.64.793h-13.27c-.354 0-.64-.355-.64-.793v-9.234c0-.438.286-.792.64-.792h13.27c.353 0 .64.354.64.792V495.875zM890.787 495.875c0 .438-.287.793-.64.793h-13.27c-.353 0-.64-.355-.64-.793v-9.234c0-.438.287-.792.64-.792h13.27c.353 0 .64.354.64.792V495.875z" class="colorb3bece svgShape"/></g><g><path fill="#fcf9f7" d="M737.216 493.734c0 .437-.286.792-.639.792h-13.27c-.354 0-.64-.355-.64-.792V484.5c0-.437.286-.792.64-.792h13.27c.353 0 .639.355.639.792V493.734zM756.233 493.734c0 .437-.287.792-.64.792h-13.27c-.354 0-.64-.355-.64-.792V484.5c0-.437.287-.792.64-.792h13.27c.353 0 .64.355.64.792V493.734zM775.25 493.734c0 .437-.286.792-.64.792h-13.27c-.354 0-.64-.355-.64-.792V484.5c0-.437.286-.792.64-.792h13.27c.353 0 .64.355.64.792V493.734zM794.266 493.734c0 .437-.287.792-.64.792h-13.27c-.354 0-.64-.355-.64-.792V484.5c0-.437.287-.792.64-.792h13.27c.354 0 .64.355.64.792V493.734zM813.283 493.734c0 .437-.286.792-.64.792h-13.27c-.353 0-.64-.355-.64-.792V484.5c0-.437.286-.792.64-.792h13.27c.354 0 .64.355.64.792V493.734zM832.299 493.734c0 .437-.287.792-.64.792h-13.27c-.353 0-.64-.355-.64-.792V484.5c0-.437.287-.792.64-.792h13.27c.353 0 .64.355.64.792V493.734zM851.316 493.734c0 .437-.286.792-.64.792h-13.27c-.354 0-.64-.355-.64-.792V484.5c0-.437.286-.792.64-.792h13.27c.354 0 .64.355.64.792V493.734zM870.332 493.734c0 .437-.286.792-.64.792h-13.27c-.353 0-.64-.355-.64-.792V484.5c0-.437.287-.792.64-.792h13.27c.353 0 .64.355.64.792V493.734zM889.349 493.734c0 .437-.287.792-.64.792h-13.27c-.353 0-.64-.355-.64-.792V484.5c0-.437.287-.792.64-.792h13.27c.354 0 .64.355.64.792V493.734z" class="colorfafcf7 svgShape"/></g><g><path fill="#cebdb3" d="M738.833 511.187c0 .438-.286.793-.64.793h-13.27c-.354 0-.64-.355-.64-.793v-9.234c0-.438.286-.792.64-.792h13.27c.354 0 .64.354.64.792V511.187zM757.85 511.187c0 .438-.287.793-.64.793h-13.27c-.353 0-.64-.355-.64-.793v-9.234c0-.438.287-.792.64-.792h13.27c.353 0 .64.354.64.792V511.187zM776.866 511.187c0 .438-.286.793-.64.793h-13.27c-.354 0-.64-.355-.64-.793v-9.234c0-.438.286-.792.64-.792h13.27c.353 0 .64.354.64.792V511.187zM795.883 511.187c0 .438-.287.793-.64.793h-13.27c-.354 0-.64-.355-.64-.793v-9.234c0-.438.287-.792.64-.792h13.27c.353 0 .64.354.64.792V511.187zM814.899 511.187c0 .438-.286.793-.639.793h-13.27c-.353 0-.64-.355-.64-.793v-9.234c0-.438.286-.792.64-.792h13.27c.353 0 .639.354.639.792V511.187zM833.916 511.187c0 .438-.287.793-.64.793h-13.27c-.353 0-.64-.355-.64-.793v-9.234c0-.438.287-.792.64-.792h13.27c.353 0 .64.354.64.792V511.187zM852.932 511.187c0 .438-.287.793-.64.793h-13.27c-.354 0-.64-.355-.64-.793v-9.234c0-.438.286-.792.64-.792h13.27c.354 0 .64.354.64.792V511.187zM871.949 511.187c0 .438-.287.793-.64.793h-13.27c-.354 0-.64-.355-.64-.793v-9.234c0-.438.287-.792.64-.792h13.27c.354 0 .64.354.64.792V511.187zM890.966 511.187c0 .438-.287.793-.64.793h-13.27c-.354 0-.64-.355-.64-.793v-9.234c0-.438.286-.792.64-.792h13.27c.354 0 .64.354.64.792V511.187z" class="colorb3bece svgShape"/></g><g><path fill="#fcf9f7" d="M737.395 509.046c0 .437-.286.792-.64.792h-13.27c-.354 0-.64-.355-.64-.792v-9.235c0-.437.287-.792.64-.792h13.27c.353 0 .64.355.64.792V509.046zM756.412 509.046c0 .437-.287.792-.64.792h-13.27c-.353 0-.64-.355-.64-.792v-9.235c0-.437.287-.792.64-.792h13.27c.354 0 .64.355.64.792V509.046zM775.428 509.046c0 .437-.286.792-.64.792h-13.27c-.354 0-.64-.355-.64-.792v-9.235c0-.437.286-.792.64-.792h13.27c.354 0 .64.355.64.792V509.046zM794.445 509.046c0 .437-.287.792-.64.792h-13.27c-.354 0-.64-.355-.64-.792v-9.235c0-.437.286-.792.64-.792h13.27c.354 0 .64.355.64.792V509.046zM813.461 509.046c0 .437-.286.792-.64.792h-13.27c-.354 0-.64-.355-.64-.792v-9.235c0-.437.286-.792.64-.792h13.27c.354 0 .64.355.64.792V509.046zM832.478 509.046c0 .437-.287.792-.64.792h-13.27c-.353 0-.64-.355-.64-.792v-9.235c0-.437.287-.792.64-.792h13.27c.353 0 .64.355.64.792V509.046zM851.495 509.046c0 .437-.287.792-.64.792h-13.27c-.353 0-.64-.355-.64-.792v-9.235c0-.437.286-.792.64-.792h13.27c.354 0 .64.355.64.792V509.046zM870.511 509.046c0 .437-.287.792-.64.792h-13.27c-.353 0-.64-.355-.64-.792v-9.235c0-.437.287-.792.64-.792h13.27c.354 0 .64.355.64.792V509.046zM889.528 509.046c0 .437-.287.792-.64.792h-13.27c-.353 0-.64-.355-.64-.792v-9.235c0-.437.286-.792.64-.792h13.27c.354 0 .64.355.64.792V509.046z" class="colorfafcf7 svgShape"/></g><g><path fill="#cebdb3" d="M739.194 526.849c0 .437-.286.792-.64.792h-13.27c-.354 0-.64-.355-.64-.792v-9.235c0-.437.286-.792.64-.792h13.27c.354 0 .64.355.64.792V526.849zM758.21 526.849c0 .437-.287.792-.64.792H744.3c-.354 0-.64-.355-.64-.792v-9.235c0-.437.286-.792.64-.792h13.27c.353 0 .64.355.64.792V526.849zM777.227 526.849c0 .437-.287.792-.64.792h-13.27c-.353 0-.64-.355-.64-.792v-9.235c0-.437.286-.792.64-.792h13.27c.354 0 .64.355.64.792V526.849zM796.243 526.849c0 .437-.286.792-.64.792h-13.27c-.353 0-.64-.355-.64-.792v-9.235c0-.437.287-.792.64-.792h13.27c.354 0 .64.355.64.792V526.849zM815.26 526.849c0 .437-.287.792-.64.792h-13.27c-.353 0-.64-.355-.64-.792v-9.235c0-.437.287-.792.64-.792h13.27c.354 0 .64.355.64.792V526.849zM834.276 526.849c0 .437-.286.792-.64.792h-13.27c-.353 0-.64-.355-.64-.792v-9.235c0-.437.286-.792.64-.792h13.27c.354 0 .64.355.64.792V526.849zM853.293 526.849c0 .437-.287.792-.64.792h-13.27c-.354 0-.64-.355-.64-.792v-9.235c0-.437.286-.792.64-.792h13.27c.354 0 .64.355.64.792V526.849zM872.309 526.849c0 .437-.286.792-.64.792h-13.27c-.354 0-.64-.355-.64-.792v-9.235c0-.437.286-.792.64-.792h13.27c.354 0 .64.355.64.792V526.849zM891.326 526.849c0 .437-.286.792-.64.792h-13.27c-.354 0-.64-.355-.64-.792v-9.235c0-.437.286-.792.64-.792h13.27c.353 0 .64.355.64.792V526.849z" class="colorb3bece svgShape"/></g><g><path fill="#fcf9f7" d="M737.756 524.708c0 .437-.286.792-.64.792h-13.27c-.353 0-.639-.355-.639-.792v-9.235c0-.437.286-.792.639-.792h13.27c.354 0 .64.355.64.792V524.708zM756.772 524.708c0 .437-.287.792-.64.792h-13.27c-.353 0-.64-.355-.64-.792v-9.235c0-.437.287-.792.64-.792h13.27c.354 0 .64.355.64.792V524.708zM775.788 524.708c0 .437-.286.792-.64.792h-13.27c-.354 0-.64-.355-.64-.792v-9.235c0-.437.286-.792.64-.792h13.27c.354 0 .64.355.64.792V524.708zM794.805 524.708c0 .437-.286.792-.64.792h-13.27c-.354 0-.64-.355-.64-.792v-9.235c0-.437.286-.792.64-.792h13.27c.353 0 .64.355.64.792V524.708zM813.821 524.708c0 .437-.286.792-.64.792h-13.27c-.353 0-.64-.355-.64-.792v-9.235c0-.437.287-.792.64-.792h13.27c.354 0 .64.355.64.792V524.708zM832.838 524.708c0 .437-.286.792-.64.792h-13.27c-.353 0-.64-.355-.64-.792v-9.235c0-.437.286-.792.64-.792h13.27c.353 0 .64.355.64.792V524.708zM851.854 524.708c0 .437-.287.792-.64.792h-13.27c-.353 0-.64-.355-.64-.792v-9.235c0-.437.287-.792.64-.792h13.27c.353 0 .64.355.64.792V524.708zM870.871 524.708c0 .437-.287.792-.639.792h-13.27c-.354 0-.64-.355-.64-.792v-9.235c0-.437.286-.792.64-.792h13.27c.353 0 .639.355.639.792V524.708zM889.888 524.708c0 .437-.286.792-.64.792h-13.27c-.354 0-.64-.355-.64-.792v-9.235c0-.437.287-.792.64-.792h13.27c.353 0 .64.355.64.792V524.708z" class="colorfafcf7 svgShape"/></g><g><rect width="232.599" height="411.675" x="687.913" y="594.442" fill="#f5f5f5" class="colorf5f5f5 svgShape"/><rect width="232.599" height="349.747" x="687.913" y="606.45" fill="#dbdad9" class="colord9dbdb svgShape"/></g><g><rect width="36.469" height="102.187" x="386.329" y="844.524" fill="#666059" class="color596266 svgShape"/><ellipse cx="404.563" cy="978.916" fill="#666059" rx="27.201" ry="27.181" transform="rotate(-89.891 404.57 978.917)" class="color596266 svgShape"/><ellipse cx="404.563" cy="978.916" fill="#b2a49b" rx="15.148" ry="15.16" transform="translate(-1.087 .45)" class="color9bacb2 svgShape"/><rect width="14.35" height="48.007" x="396.892" y="933.499" fill="#b2a49b" class="color9bacb2 svgShape"/><path fill="#e0e0e0" d="M467.227,494.141c-7.638-52.233-55.389-92.478-113.191-92.478c-57.803,0-105.554,40.246-113.191,92.478      c-0.677,3.095-1.095,6.602-1.095,10.391v301.744c0,11.914,3.809,21.573,8.507,21.573h211.558c4.699,0,8.508-9.659,8.508-21.573      V504.532C468.322,500.743,467.903,497.236,467.227,494.141z" class="colore0e0e0 svgShape"/><rect width="36.468" height="102.187" x="287.465" y="844.524" fill="#666059" class="color596266 svgShape"/><path fill="#b5ada9" d="M600.547,875.278H491.364H263.496c-5.148,0-9.321,3.422-9.321,7.643v23.968       c0,4.221,4.173,7.643,9.321,7.643h227.868h109.183c0,0,439.39,1.261,439.39-2.961v-36.294H600.547z" class="colora9b2b5 svgShape"/><path fill="#666059" d="M332.88,978.916c0,15.023-12.169,27.201-27.181,27.201c-15.012,0-27.181-12.178-27.181-27.201        c0-15.023,12.169-27.201,27.181-27.201C320.711,951.715,332.88,963.893,332.88,978.916z" class="color596266 svgShape"/><path fill="#b2a49b" d="M320.848,978.916c0,8.373-6.782,15.159-15.148,15.159c-8.367,0-15.149-6.787-15.149-15.159        c0-8.372,6.782-15.16,15.149-15.16C314.066,963.756,320.848,970.544,320.848,978.916z" class="color9bacb2 svgShape"/><rect width="14.351" height="48.007" x="298.028" y="933.499" fill="#b2a49b" class="color9bacb2 svgShape"/><rect width="36.468" height="102.187" x="964.438" y="844.524" fill="#666059" class="color596266 svgShape"/><path fill="#666059" d="M1009.853,978.916c0,15.023-12.169,27.201-27.181,27.201c-15.011,0-27.18-12.178-27.18-27.201         c0-15.023,12.169-27.201,27.18-27.201C997.684,951.715,1009.853,963.893,1009.853,978.916z" class="color596266 svgShape"/><path fill="#b2a49b" d="M997.821,978.916c0,8.373-6.782,15.159-15.149,15.159c-8.366,0-15.148-6.787-15.148-15.159         c0-8.372,6.782-15.16,15.148-15.16C991.038,963.756,997.821,970.544,997.821,978.916z" class="color9bacb2 svgShape"/><rect width="14.35" height="48.007" x="975.001" y="933.499" fill="#b2a49b" class="color9bacb2 svgShape"/><g><path fill="#b2aaa6" d="M249.146,806.276V504.532c0-3.789,0.419-7.296,1.095-10.391c7.43-50.809,52.82-90.263,108.493-92.376      c-1.559-0.059-3.123-0.102-4.698-0.102c-57.803,0-105.554,40.246-113.191,92.478c-0.677,3.095-1.095,6.602-1.095,10.391v301.744      c0,11.914,3.809,21.573,8.507,21.573h9.397C252.955,827.849,249.146,818.19,249.146,806.276z" class="colora6afb2 svgShape"/></g><g><path fill="#cca38b" d="M932.566,825.359c0,13.245-7.749,23.983-17.307,23.983H290.037c-9.558,0-17.307-10.737-17.307-23.983      V682.034c0-13.245,7.749-23.982,17.307-23.982h625.221c9.558,0,17.307,10.737,17.307,23.982V825.359z" class="color8bbbcc svgShape"/></g><g><path fill="#b78e76" d="M317.849,556.089c-12.979-4.128-33.496-16.249-25.059-40.23c-2.538,1.245-4.724,3.316-5.845,6.76       c-3.954,12.152,6.648,31.338,6.648,31.338s-2.805,61.822,0,76.744c2.805,14.923-5.029,27.35-5.029,27.35h152.831v-7.968       c-45.376-0.216-91.483-3.456-131.591-25.777C301.76,620.042,296.398,560.352,317.849,556.089z" class="color76a9b7 svgShape"/><path fill="#cca38b" d="M441.395,567.675c-2.889-32.905-2.889-32.905-2.889-32.905l2.889-31.101l-25.68,5.674       c0,0-14.744-3.674-38.081-3.942c-18.745-0.215-43.034,1.767-69.679,9.616c0,0-8.746-2.306-15.165,0.841       c-8.438,23.981,12.079,36.102,25.059,40.23c-21.45,4.264-16.088,63.953-8.044,68.217       c40.108,22.321,86.215,25.561,131.591,25.777v-9.582C441.395,640.501,444.284,600.581,441.395,567.675z" class="color8bbbcc svgShape"/></g><g><path fill="#b78e76" d="M921.934,852.158l-631.216-2.817c-11.436,0-17.988-7.997-17.988-17.862V705.61      c0-9.865,9.27-17.862,20.706-17.862l625.988-2.481L921.934,852.158z" class="color76a9b7 svgShape"/></g><g><rect width="36.468" height="102.187" x="1076.243" y="844.583" fill="#666059" class="color596266 svgShape"/><path fill="#666059" d="M1121.658,978.975c0,15.023-12.169,27.201-27.181,27.201c-15.012,0-27.181-12.178-27.181-27.201        s12.169-27.201,27.181-27.201C1109.489,951.774,1121.658,963.953,1121.658,978.975z" class="color596266 svgShape"/><path fill="#b2a49b" d="M1109.625,978.975c0,8.373-6.782,15.16-15.148,15.16s-15.149-6.787-15.149-15.16        c0-8.372,6.783-15.16,15.149-15.16S1109.625,970.603,1109.625,978.975z" class="color9bacb2 svgShape"/><rect width="14.351" height="48.007" x="1086.806" y="933.558" fill="#b2a49b" class="color9bacb2 svgShape"/></g><g><path fill="#b2aaa6" d="M1144.107,559.133c-7.716-46.888-55.957-83.016-114.351-83.016c-58.395,0-106.635,36.128-114.352,83.016      c-0.683,2.778-1.106,5.926-1.106,9.328v270.871c0,10.696,3.848,19.366,8.595,19.366h213.727c4.747,0,8.594-8.67,8.594-19.366      V568.46C1145.214,565.059,1144.791,561.911,1144.107,559.133z M1127.568,632.789c0,6.622-2.839,11.989-6.341,11.989h-171.87      c-3.502,0-6.341-5.367-6.341-11.989V570.39c0-6.622,2.839-11.99,6.341-11.99h171.87c3.502,0,6.341,5.368,6.341,11.99V632.789z" class="colora6afb2 svgShape"/></g><g><path fill="#f5f5f5" d="M1159.343,559.291c-7.717-46.888-55.957-83.017-114.352-83.017c-58.395,0-106.635,36.128-114.352,83.017      c-0.684,2.778-1.106,5.926-1.106,9.327v270.871c0,10.696,3.848,19.366,8.594,19.366h213.727c4.747,0,8.595-8.671,8.595-19.366      V568.619C1160.45,565.217,1160.026,562.069,1159.343,559.291z M1128.337,632.947c0,6.622-2.703,11.989-6.037,11.989H958.692      c-3.334,0-6.036-5.368-6.036-11.989v-62.399c0-6.622,2.703-11.99,6.036-11.99H1122.3c3.334,0,6.037,5.367,6.037,11.99V632.947z" class="colorf5f5f5 svgShape"/></g><g><path fill="#e0e0e0" d="M1145.17,805.442c0,9.214-3.454,16.684-7.714,16.684H951.478c-4.26,0-7.714-7.469-7.714-16.684v-103.49      c0-9.214,3.454-16.684,7.714-16.684h185.978c4.26,0,7.714,7.469,7.714,16.684V805.442z" class="colore0e0e0 svgShape"/></g><g><path fill="#ddcabf" d="M314.565,497.092c0,2.904-1.089,5.259-2.432,5.259h-17.785c-1.343,0-2.432-2.355-2.432-5.259v-76.447       c0-2.904,1.089-5.259,2.432-5.259h17.785c1.343,0,2.432,2.355,2.432,5.259V497.092z" class="colorbfcadd svgShape"/><path fill="#fff7f3" d="M318.49,497.023c0,2.904-1.089,5.259-2.432,5.259h-17.785c-1.343,0-2.432-2.354-2.432-5.259v-76.447       c0-2.904,1.089-5.258,2.432-5.258h17.785c1.343,0,2.432,2.354,2.432,5.258V497.023z" class="colorf3f8ff svgShape"/><path fill="#96590b" d="M308.454,422.943h-2.317c-1.88,0-3.404,4.501-3.404,10.054c0,5.553,1.524,10.055,3.404,10.055h2.317        V422.943z" class="color0b967e svgShape"/><path fill="#ba4504" d="M308.454,454.678h-2.317c-1.88,0-3.404,4.501-3.404,10.054s1.524,10.054,3.404,10.054h2.317V454.678z" class="colorba0434 svgShape"/><rect width="13.086" height="13.06" x="300.267" y="481.735" fill="#9b9998" class="color98999b svgShape"/><path fill="#bf5d22" d="M311.599,432.997c0,5.553-1.524,10.054-3.404,10.054c-1.88,0-3.404-4.501-3.404-10.054        c0-5.553,1.524-10.055,3.404-10.055C310.075,422.943,311.599,427.444,311.599,432.997z" class="color22bfa9 svgShape"/><path fill="#ed6c24" d="M311.599,464.732c0,5.553-1.524,10.055-3.404,10.055c-1.88,0-3.404-4.501-3.404-10.055        c0-5.553,1.524-10.054,3.404-10.054C310.075,454.678,311.599,459.179,311.599,464.732z" class="colored2450 svgShape"/><rect width="13.086" height="13.06" x="302.325" y="481.735" fill="#c4b1a5" class="colora5c0c4 svgShape"/></g><g><path fill="#f5f5f5" d="M1160.45,902.589c0,4.961-4.019,8.983-8.977,8.983H928.401c-4.958,0-8.976-4.022-8.976-8.983v-18.328      c0-4.961,4.019-8.983,8.976-8.983h223.072c4.958,0,8.977,4.022,8.977,8.983V902.589z" class="colorf5f5f5 svgShape"/></g></g><g><path fill="#b5ada9" d="M736.568,629.859l-41.846-85.846c-4.818-9.883-16.497-17.336-27.166-17.336h-221.82      c-11.944,0-21.662,9.397-21.662,20.948v85.846c0,11.551,9.718,20.948,21.662,20.948h276.332c6.426,0,11.743-2.783,14.589-7.637      C739.489,641.954,739.457,635.786,736.568,629.859z M681.159,551.237l16.2,33.233H537.509v-41.882h130.048      C672.469,542.589,678.953,546.711,681.159,551.237z M445.737,542.589h76.654v41.882h-83.094v-36.846      C439.296,544.895,442.246,542.589,445.737,542.589z M439.296,633.471v-34.222h83.094v39.26h-76.654      C442.246,638.509,439.296,636.202,439.296,633.471z M722.069,638.509h-184.56v-39.26h167.055l18.442,37.833      c0.263,0.539,0.402,0.968,0.472,1.27C723.17,638.434,722.706,638.509,722.069,638.509z" class="colora9b2b5 svgShape"/><path fill="#c6794b" d="M497.063,593.154c-1.694-1.124-6.142-17.696-11.076-34.745c-2.61-9.018-5.224-10.508-7.771-17.577      c-4.024-11.17-8.549-19.083-11.542-22.743c-6.078-7.432-17.601-7.851-26.117-0.254c-8.516,7.596-10.776,26.393-5.267,36.299      c5.509,9.906,35.842,67.604,52.261,69.676c16.42,2.072,89.046,8.575,89.046,8.575l1.356-29.893      C577.954,602.493,501.41,596.04,497.063,593.154z" class="colorb4c64b svgShape"/><path fill="#fbb890" d="M449.04,390.936c0,0,8.282,19.322,9.375,32.21c1.093,12.888,1.43,37.773,0.736,45.794      c-0.694,8.021-1.946,20.648-5.283,21.647c-3.337,0.999-19.113-0.355-19.113-0.355s1.599,16.789,2.817,21.73      c1.218,4.94,26.135,55.76,26.135,55.76l-66.262-48.859l-7.728-59.617c0,0-16.666-52.794-0.712-67.892      C404.958,376.255,438.34,370.794,449.04,390.936z" class="colorf2b597 svgShape"/><path fill="#564229" d="M432.436,401.02c0,0-8.636,28.73-23.346,60.317c-5.138,11.033-15.716,43.256-15.716,43.256      s-17.579,2.615-33.933-12.385c-19.065-17.486-21.851-39.372-17.381-59.498c6.103-27.478,25.73-51.677,35.919-56.922      c17.652-9.087,43.458-1.668,43.458-1.668s29.611-7.804,37.966,12.074c8.355,19.879,4.733,32.534,4.733,32.534      S441.421,416.851,432.436,401.02z" class="color563629 svgShape"/><path fill="#c6794b" d="M398.031,675.482c15.721-1.98,31.456-3.848,47.216-5.498c14.719-1.541,29.44-2.828,44.168-3.867      c-2.766-20.052-5.214-39.718-5.554-47.415c-0.548-12.393,4.29-40.214,0.61-51.634c-3.68-11.42-33.252-52.343-33.252-52.343      l-14.361-6.613l25.629,59.769l-70.54-62.266c0,0-25.296,24.463-27.666,46.298c-2.369,21.836,22.154,69.221,29.031,95.524      C395.912,657.383,397.382,666.907,398.031,675.482z" class="colorb4c64b svgShape"/><path fill="#ad7836" d="M383.556,612.692c0,0,40.775,45.235,52.086,52.267c11.312,7.032,53.015-4.392,53.015-4.392l-3.59-32.135      c0,0-24.461,0.257-30.787-2.178c-6.326-2.435-53.766-88.168-67.706-84.274c-7.492,2.094-12.331,9.441-12.77,22.737      C373.427,576.156,376.307,592,383.556,612.692z" class="colora2ad36 svgShape"/><path fill="#cca38b" d="M385.715,687.383c0,0,5.382-7.866,16.845-13.76c11.463-5.895,104.973-41.237,104.973-41.237      s104.221-25.717,136.417-24.925c32.196,0.792,195.319,50.59,203.668,50.59c8.349,0,28.502-14.701,36.362-21.851      c7.86-7.15,23.303,21.852,23.303,21.852s-14.333,7.417-18.818,44.549c-4.485,37.132,0,124.622,0,124.622      S808.886,796.01,778.503,811.1c-30.383,15.09-70.891-12.844-121.374,0c-50.483,12.844-51.359,18.016-105.939,10.939      c-54.58-7.078-83.53-41.54-118.458-31.046c-34.928,10.494-61.831,26.137-78.696,12.141      C337.171,789.137,368.871,701.143,385.715,687.383z" class="color8bbbcc svgShape"/><path fill="#fbb890" d="M545.309,625.466c0,0,17.804-12.353,23.667-16.991c5.862-4.638,18.852-6.645,18.852-6.645l16.18,0.165      c0,0,1.642,2.696-2.684,4.226c-4.326,1.53-13.708,1.454-13.708,1.454s11.418,0.828,14.484,2.047      c3.066,1.218,9.683,4.892,9.332,7.173c-0.351,2.281-3.046,0.871-3.046,0.871s2.799,2.955,2.01,4.35      c-0.788,1.395-3.711,0.538-3.711,0.538s2.797,1.479,0.494,3.814c-0.811,0.823-14.273-0.412-14.273-0.412s8.38,2.334,7.743,4.556      c-0.996,3.474-14.82,0.746-14.82,0.746s-4.577,2.026-15.136,5.334c-10.559,3.308-23.205,5.593-23.205,5.593L545.309,625.466z" class="colorf2b597 svgShape"/><path fill="#9e765e" d="M398.069,693.633l199.264,3.816l269.041,5.152c0,0-128.519-10.461-263.57-13.445      C530.109,687.549,455.523,688.109,398.069,693.633z" class="color5e929e svgShape"/><path fill="#c6794b" d="M453.525,630.565c-4.521-2.023-52.261-76.361-59.74-88.036c-0.443-0.692-0.734-1.148-0.878-1.371      l0.24,0.376c-8.88-13.306-22.807-10.807-28.459,0.273c-9.779,19.17,7.464,44.92,15.088,54.696      c7.623,9.776,50.302,67.129,66.853,65.55c16.551-1.579,104.561-13.505,104.561-13.505l-5.881-23.081      C545.309,625.466,458.432,632.762,453.525,630.565z" class="colorb4c64b svgShape"/><path fill="#ffffff" d="M459.474,460.743c0,0-2.996,1.382-5.595,0.725c-2.6-0.656-5.528-2.634-5.528-2.634      s2.99,9.921,6.831,10.745C459.022,470.404,459.474,460.743,459.474,460.743z" class="colorfff svgShape"/><polygon fill="#fbb890" points="457.218 430.241 463.68 449.775 458.466 452.965" class="colorf2b597 svgShape"/><path fill="#2d2720" d="M448.171,435.314c0.126-0.017,0.249-0.051,0.369-0.107c0.612-0.28,0.874-0.977,0.589-1.557       c-0.12-0.24-2.981-5.874-8.987-5.095c-6.003,0.778-7.333,6.955-7.388,7.218c-0.128,0.631,0.303,1.236,0.964,1.354       c0.664,0.116,1.306-0.302,1.437-0.932c0.042-0.195,1.058-4.782,5.288-5.33c4.265-0.553,6.451,3.758,6.471,3.802       C447.144,435.132,447.659,435.38,448.171,435.314z" class="color20252d svgShape"/><path fill="#ad7836" d="M394.768,498.217l-8.016,12.685c0,0,35.28,26.253,54.461,41.508      c19.181,15.255,30.157,29.423,30.157,29.423s-9.902-35.265-14.661-49.169c-4.759-13.903-9.594-25.657-9.594-25.657      l-11.165-5.685l1.008,9.973c0,0,6.152,14.266,8.81,19.999c6.245,13.466,13.216,31.714,13.216,31.714      s-18.631-21.34-35.415-36.806C406.785,510.738,394.768,498.217,394.768,498.217z" class="colora2ad36 svgShape"/><path fill="#f1eeec" d="M542.751,651.479l-41.846-85.846c-4.818-9.883-16.497-17.336-27.165-17.336h-221.82      c-11.944,0-21.662,9.397-21.662,20.948v85.846c0,11.551,9.718,20.948,21.662,20.948h276.333c6.426,0,11.743-2.783,14.59-7.637      C545.672,663.573,545.64,657.405,542.751,651.479z M487.343,572.857l16.2,33.233H343.692v-41.882H473.74      C478.652,564.208,485.136,568.33,487.343,572.857z M251.919,564.208h76.655v41.882H245.48v-36.845      C245.48,566.515,248.429,564.208,251.919,564.208z M245.48,655.091v-34.222h83.094v39.259h-76.655      C248.429,660.128,245.48,657.821,245.48,655.091z M528.252,660.128h-184.56v-39.259h167.055l18.442,37.833      c0.263,0.539,0.402,0.967,0.472,1.27C529.353,660.053,528.889,660.128,528.252,660.128z" class="colorecf0f1 svgShape"/></g><g><rect width="12.939" height="749.207" x="157.652" y="194.067" fill="#d8ccc5" class="colorc5d0d8 svgShape"/><rect width="4.745" height="743.98" x="157.427" y="194.067" fill="#f2e8e2" class="colore2ecf2 svgShape"/><path fill="#e0d5ce" d="M83.207,983.058v-14.426c0-5.158,4.196-9.353,9.353-9.353h138.257c5.157,0,9.353,4.196,9.353,9.353v14.426      h9.353v-14.426c0-10.315-8.392-18.706-18.706-18.706H92.561c-10.314,0-18.706,8.391-18.706,18.706v14.426H83.207z" class="colorcedce0 svgShape"/><circle cx="78.041" cy="987.474" r="18.643" fill="#544d45" class="color454b54 svgShape"/><path fill="#d8c8bf" d="M88.344,987.474c0,5.69-4.613,10.303-10.303,10.303s-10.303-4.613-10.303-10.303      c0-5.69,4.613-10.303,10.303-10.303S88.344,981.784,88.344,987.474z" class="colorbfd3d8 svgShape"/><path fill="#544d45" d="M265.038,986.983c0,10.296-8.347,18.643-18.643,18.643c-10.296,0-18.643-8.347-18.643-18.643      c0-10.296,8.347-18.643,18.643-18.643C256.691,968.34,265.038,976.687,265.038,986.983z" class="color454b54 svgShape"/><path fill="#d8c8bf" d="M256.698,986.983c0,5.69-4.613,10.302-10.303,10.302c-5.69,0-10.303-4.613-10.303-10.302      c0-5.69,4.613-10.303,10.303-10.303C252.085,976.68,256.698,981.293,256.698,986.983z" class="colorbfd3d8 svgShape"/><rect width="12.939" height="8.232" x="157.652" y="194.067" fill="#a58d7e" class="color7e92a5 svgShape"/><rect width="20.037" height="11.88" x="154.021" y="938.047" fill="#d8c8bf" class="colorbfd3d8 svgShape"/><g><path fill="#a58d7e" d="M238.932,218.502c-0.992-0.206-1.933,0.723-2.085,2.068c-0.074,0.611-1.83,13.974-14.722,15.193      c-3.951,0.37-7.125-0.82-9.44-3.547c-3.746-4.41-4.117-11.358-4.12-11.428c-0.062-1.301-0.864-2.313-1.832-2.313h-6.018h-76.017      h-6.018c-0.967,0-1.769,1.013-1.831,2.313c-0.003,0.07-0.374,7.018-4.12,11.428c-2.315,2.727-5.49,3.917-9.44,3.547      c-12.892-1.218-14.649-14.581-14.722-15.193c-0.153-1.345-1.093-2.274-2.085-2.068c-1.002,0.203-1.693,1.461-1.542,2.81      c0.02,0.179,2.176,17.876,18.093,19.379c0.562,0.054,1.113,0.08,1.653,0.08c4.217,0,7.731-1.622,10.46-4.835      c3.406-4.009,4.663-9.462,5.118-12.519h4.435h76.017h4.435c0.455,3.057,1.712,8.51,5.118,12.519      c2.729,3.213,6.242,4.835,10.46,4.835c0.54,0,1.09-0.026,1.653-0.08c15.917-1.503,18.073-19.201,18.093-19.379      C240.625,219.962,239.934,218.704,238.932,218.502z" class="color7e92a5 svgShape"/><path fill="#ffffff" d="M257.561,244.431h-70.722c-7.767,0-14.063,6.296-14.063,14.063v110.064       c0,7.767,6.296,14.063,14.063,14.063h26.985v6.508c0,4.282,3.471,7.754,7.753,7.754s7.754-3.471,7.754-7.754v-6.508h28.23       c7.767,0,14.063-6.296,14.063-14.063V258.494C271.624,250.727,265.328,244.431,257.561,244.431z" class="colorfff svgShape"/><path fill="#ffa30f" d="M233.708,289.957c-17.568-0.037-35.135-0.179-52.702-0.3v72.93c0,6.176,5.168,11.183,11.544,11.183       h58.055c6.376,0,11.544-5.007,11.544-11.183v-72.297C252.669,290.166,243.189,289.977,233.708,289.957z" class="coloreae542 svgShape"/><path fill="#ffffff" d="M242.609,261.133l-61.604,98.503v-87.747c0,0,1.376-10.283,10.642-10.73       C200.913,260.71,242.609,261.133,242.609,261.133z" opacity=".4" class="colorfff svgShape"/><rect width="9.344" height="16.721" x="218.02" y="231.644" fill="#ffffff" class="colorfff svgShape"/></g></g><g><path fill="#bea698" d="M1360.507,1012.676c4.05-12.031,16.034-25.419,14.872-40.143c-0.378-4.804-0.258-7.385-0.258-7.385        l22.432-9.614c0,0,3.72,16.97,6.043,22.246c2.693,6.096,5.654,15.802,0.114,27.305c-2.922,6.089-10.91,25.018-29.62,28.739        C1355.378,1037.559,1356.696,1024,1360.507,1012.676z" class="color98a5be svgShape"/><path fill="#909090" d="M1370.679,1030.249c9.366,0,19.547-7.011,20.158-7.438c0.485-0.339,0.603-1.006,0.264-1.49        c-0.338-0.485-1.005-0.604-1.49-0.264c-0.199,0.138-20.006,13.776-28.297,2.583c-0.353-0.477-1.024-0.574-1.497-0.223        c-0.475,0.351-0.575,1.022-0.223,1.497C1362.522,1028.867,1366.521,1030.249,1370.679,1030.249z" class="color909090 svgShape"/><path fill="#fac9ac" d="M1375.379,972.534c-0.378-4.804-0.258-7.385-0.258-7.385l22.432-9.614c0,0,3.72,16.97,6.043,22.246        c0.247,0.561,0.5,1.162,0.746,1.786c-4.365,5.76-12.552,25.493-22.202,23.674c-11.309-2.128-9.944-8.085-9.125-16.666        C1374.717,982.038,1375.762,977.36,1375.379,972.534z" class="colorfac5ac svgShape"/><path fill="#f6b086" d="M1375.121,965.149l21.891-9.859l3.559,12.79c0.003,0-8.714,16.167-27.005,16.847        c1.345-4.026,2.151-8.148,1.813-12.393C1375.001,967.729,1375.121,965.149,1375.121,965.149z" class="colorf6ad86 svgShape"/><path fill="#da783e" d="M1256.419,570.703c3.936,0.74,114.171,2.329,114.171,2.329l5.553,43.282l-56.377,17.068l-62.362-32.72      C1257.404,600.661,1252.483,569.963,1256.419,570.703z" class="color3e87da svgShape"/><path fill="#fef0e8" d="M1245.878,630.813l128.99,11.145l31.121,26.158c0,0,14.644,48.263,2.834,52.953      c-69.577,27.634-157.185,10.714-202.122,8.881C1224.728,695.798,1245.878,630.813,1245.878,630.813z" class="colore8eefe svgShape"/><path fill="#da783e" d="M1384.605,595.425l-93.623,23.264c0,0,31.258,161.926,34.707,178.972s35.695,166.486,40.818,170.957      c5.122,4.471,27.258,1.295,33.417-3.011c6.159-4.306-11.437-159.848-14.291-173.955      C1382.779,777.545,1389.762,613.962,1384.605,595.425z" class="color3e87da svgShape"/><path fill="#bea698" d="M1279.206,952.854c0,0-0.438,10.29,1.746,17.082c1.54,4.789,7.141,25.107,2.517,30.39         c-4.624,5.287-54.043,28.396-78.567,25.707c-7.31-1.46-6.934-10.957,5.359-23.554c12.296-12.602,40.49-25.717,41.423-39.789         C1252.624,948.627,1279.206,952.854,1279.206,952.854z" class="color98a5be svgShape"/><path fill="#909090" d="M1213.348,1021.864c0.064,0,0.128-0.006,0.193-0.017c0.235-0.044,23.697-4.359,39.563-10.275         c14.249-5.326,26.751-15.45,26.875-15.551c0.458-0.374,0.527-1.048,0.153-1.507c-0.373-0.457-1.047-0.527-1.506-0.153         c-0.121,0.1-12.361,10.007-26.27,15.206c-15.687,5.848-38.966,10.131-39.199,10.174c-0.582,0.106-0.967,0.664-0.861,1.245         C1212.39,1021.502,1212.84,1021.864,1213.348,1021.864z" class="color909090 svgShape"/><path fill="#fac9ac" d="M1251.684,962.691c0.939-14.065,27.521-9.837,27.521-9.837s-0.438,10.29,1.746,17.082          c0.246,0.76,0.597,1.94,0.989,3.353c-13.509,9.869-31.746,21.479-38.094,21.808c-4.991,0.259-9.75-4.647-11.109-10.097          C1242.499,977.802,1251.174,970.39,1251.684,962.691z" class="colorfac5ac svgShape"/><path fill="#f6b086" d="M1251.684,962.691c0.939-14.065,27.521-9.837,27.521-9.837s-0.23,5.507,0.499,11.124         c-5.24,4.662-16.304,11.573-36.087,12.134C1248.193,971.731,1251.385,967.259,1251.684,962.691z" class="colorf6ad86 svgShape"/><path fill="#da783e" d="M1326.633,629.851l-23.698-39.386l-38.857-39.924c-17.158,3.474-46.933,146.896-59.725,204.998       c-13.085,59.429,45.805,203.167,45.805,203.167s37.801,7.118,38.299-3.247c0.498-10.364-20.931-140.051-19.331-167.156       C1271.035,755.964,1326.633,629.851,1326.633,629.851z" class="color3e87da svgShape"/><path fill="#fac9ac" d="M1307.755,320.375l21.084-1.815c0.484,0.144,6.74,1.44,18.592,2.389       c-5.093,8.707-9.483,24.116-28.119,24.729c-14.371,0.473-22.975-11.838-26.894-23.296       C1302.466,321.018,1307.33,320.534,1307.755,320.375z" class="colorfac5ac svgShape"/><path fill="#fac9ac" d="M1300.147,329.286c0.629-18.457-0.454-41.887-0.454-41.887l39.038-1.284c0,0,1.393,22.94,3.418,43.171        H1300.147z" class="colorfac5ac svgShape"/><path fill="#f6b086" d="M1301.844,293.808l-1.854,1.597c0.093,2.831,0.438,19.053,0.517,22.81        c5.825,11.396,30.621-8.617,39.138-17.446c-0.443-6.134-0.351-5.428-0.585-9.197        C1326.993,289.971,1305.714,293.68,1301.844,293.808z" class="colorf6ad86 svgShape"/><g><path fill="#de8957" d="M1333.504,260.664c0.427-3.371,1.201-6.706,1.317-10.102c0.112-3.301-0.465-6.759-2.393-9.429        c-0.091-0.127-0.063-0.299,0.068-0.385l18.843-12.343c0.161-0.105-1.008,0.84-0.961,1.026        c2.489,9.841,4.039,19.524,0.929,29.183c-1.411,4.383-3.483,8.582-4.259,13.121c-0.729,4.265-0.069,9.093,2.893,12.17        c0.241,0.251,0.131,0.68-0.213,0.735c-5.349,0.857-10.892-2.499-13.671-7.219        C1333.137,272.462,1332.781,266.373,1333.504,260.664z" class="colorde8257 svgShape"/><path fill="#de8957" d="M1329.66,270.714c0.426-3.371,1.201-6.706,1.316-10.102c0.113-3.301-0.465-6.759-2.393-9.429        c-0.091-0.126-0.062-0.299,0.068-0.385l18.843-12.344c0.161-0.105,0.38-0.021,0.427,0.165        c2.489,9.841,2.651,20.384-0.459,30.044c-1.411,4.383-3.483,8.582-4.259,13.121c-0.729,4.265-0.069,9.093,2.893,12.17        c0.241,0.251,0.131,0.68-0.213,0.735c-5.349,0.857-10.893-2.499-13.671-7.219        C1329.292,282.512,1328.937,276.424,1329.66,270.714z" class="colorde8257 svgShape"/><path fill="#de8957" d="M1352.14,255.683c3.533-11.544-6.756-46.078-17.938-60.014c-5.298-3.882-13.062-7.761-25.486-3.48         c-1.231,0.423-0.448,0.323-1.429-0.529c-3.635-3.154-28.039-3.804-42.664,12.016c-3.963,16.207-10.813,36.99-6.046,47.726         c4.762,10.738,9.671,18.608,25.529,25.077c14.144,5.77,47.885,2.819,55.503,1.427c0.967-0.176,1.82-0.676,2.452-1.425         C1344.411,273.692,1348.897,266.263,1352.14,255.683z" class="colorde8257 svgShape"/><path fill="#fac9ac" d="M1286.955,304.552c16.078,20.465,43.499,4.134,54.287-25.634c2.795-12.431,4.167-31.354,0.846-45.934           c-3.436-15.116-8.915-26.308-20.822-33.675c-3.988-2.468-8.333-4.046-12.789-4.81c-0.56-0.096-1.1-0.177-1.654-0.247           c-14.627-1.837-38.173,11.628-41.222,32.803c-1.541,10.684,1.668,17.869,3.001,28.447           C1270.634,271.631,1267.367,280.788,1286.955,304.552z" class="colorfac5ac svgShape"/><path fill="#f6b086" d="M1301.624 281.202c2.772 0 5.18-2.455 5.307-2.586.415-.431.403-1.115-.027-1.531-.431-.418-1.117-.405-1.534.023-.027.028-2.78 2.816-4.886 1.619-1.172-.806-1.129-9.231.097-18.028.083-.593-.331-1.141-.925-1.224-.588-.089-1.142.331-1.224.925-.763 5.477-2.196 18.41.981 20.215C1300.151 281.034 1300.9 281.201 1301.624 281.202zM1296.246 295.911c.125 0 .251-.021.375-.067 9.586-3.522 16.357-3.047 16.421-3.042.589.046 1.119-.401 1.166-.999.046-.597-.401-1.12-.999-1.166-.292-.021-7.309-.513-17.337 3.17-.562.207-.851.831-.644 1.393C1295.389 295.639 1295.804 295.911 1296.246 295.911z" class="colorf6ad86 svgShape"/><path fill="#393531" d="M1312.898 256.674c.23 2.249 1.873 3.918 3.665 3.729 1.792-.186 3.054-2.157 2.818-4.406-.234-2.243-1.876-3.915-3.667-3.728C1313.925 252.452 1312.663 254.426 1312.898 256.674zM1277.597 262.311c.236 2.252 1.876 3.918 3.67 3.729 1.789-.185 3.052-2.155 2.818-4.406-.232-2.244-1.873-3.916-3.667-3.727C1278.627 258.092 1277.364 260.064 1277.597 262.311z" class="color373139 svgShape"/><path fill="#de8957" d="M1324.698 245.443c-6.406-.053-15.264 4.455-15.355 4.508-.791.499-1.841.261-2.344-.533-.496-.792-.728-2.273.095-2.788.409-.257 10.605-5.887 18.23-4.017.909.224 1.448 1.491 1.241 2.057C1326.397 245.142 1325.616 245.454 1324.698 245.443zM1272.756 253.74c6.071-2.046 15.892-.522 15.995-.5.907.227 1.831-.326 2.062-1.237.224-.907-.016-2.387-.959-2.62-.469-.116-11.911-2.29-18.574 1.862-.794.497-.912 1.868-.539 2.341C1271.047 253.984 1271.886 254.036 1272.756 253.74z" class="colorde8257 svgShape"/><g><path fill="#de8957" d="M1286.921,288.259c1.648-1.668,3.255-3.175,5.047-4.483c2.024-1.478,4.908-1.989,7.397-2.124          c2.348-0.128,4.682-0.501,6.953-1.111c2.408-0.647,5.307-1.06,7.691-0.286c2.11,0.685,4.526,1.812,6.612,2.883          c1.399,0.719,1.055,2.992-0.466,3.063c-5.086,0.239-12.302,0.605-15.467,0.898c-0.542,0.05-1.068,0.134-1.598,0.255          c-3.115,0.71-9.862,2.312-14.771,3.67C1286.851,291.43,1285.815,289.378,1286.921,288.259z" class="colorde8257 svgShape"/></g><g><path fill="#837871" d="M1306.121 264.123c-1.039-.769-1.709-1.897-1.887-3.178l-.902-6.492c-.355-2.553 1.428-4.961 3.973-5.367l14.768-2.359c2.605-.417 5.049 1.361 5.464 3.958l1.034 6.47c.415 2.598-1.361 5.049-3.958 5.464l-14.901 2.38c-.255.041-.51.061-.764.061C1307.934 265.061 1306.952 264.738 1306.121 264.123zM1324.271 260.485c.688-.11 1.293-.481 1.702-1.046.409-.565.574-1.255.464-1.943l-1.034-6.469c-.227-1.421-1.572-2.394-2.988-2.165l-14.769 2.359c-1.391.222-2.366 1.539-2.173 2.935l.902 6.491c.097.7.464 1.318 1.033 1.738.568.42 1.264.591 1.963.479L1324.271 260.485 1324.271 260.485zM1272.443 269.503c-1.039-.769-1.709-1.898-1.887-3.178l-.825-5.934c-.397-2.861 1.599-5.558 4.451-6.014l14.213-2.27c2.604-.414 5.049 1.36 5.464 3.958l1.034 6.47c.415 2.598-1.361 5.049-3.958 5.465l0 0-14.9 2.38c-.255.04-.51.061-.764.061C1274.257 270.44 1273.275 270.118 1272.443 269.503zM1292.295 264.819c.409-.565.574-1.255.463-1.943l-1.034-6.47c-.227-1.421-1.574-2.391-2.988-2.165l-14.213 2.27c-1.699.272-2.888 1.878-2.651 3.581l.825 5.934c.097.7.464 1.318 1.033 1.739.569.42 1.264.591 1.963.479l14.9-2.38C1291.281 265.755 1291.886 265.384 1292.295 264.819z" class="color7d7183 svgShape"/><path fill="#837871" d="M1293.307,260.552c0.366,0,0.722-0.186,0.926-0.521c0.855-1.412,3.049-2.498,5.333-2.64           c1.925-0.118,3.543,0.442,4.414,1.542c0.37,0.47,1.05,0.549,1.518,0.178c0.468-0.37,0.548-1.05,0.178-1.518           c-1.315-1.665-3.582-2.522-6.244-2.36c-3.042,0.189-5.809,1.632-7.048,3.678c-0.309,0.511-0.146,1.175,0.365,1.485           C1292.923,260.501,1293.116,260.552,1293.307,260.552z" class="color7d7183 svgShape"/><g><path fill="#837871" d="M1327.691,254.268c0.196,0,0.393-0.053,0.571-0.165c6.794-4.246,18.563-7.48,18.682-7.511          c0.576-0.157,0.915-0.751,0.759-1.327c-0.156-0.576-0.751-0.915-1.327-0.759c-0.494,0.135-12.193,3.348-19.258,7.764          c-0.506,0.317-0.66,0.983-0.344,1.489C1326.978,254.088,1327.33,254.268,1327.691,254.268z" class="color7d7183 svgShape"/></g><g><path fill="#837871" d="M1267.88,263.384c0.034,0,0.069-0.002,0.103-0.005l2.552-0.241c0.595-0.056,1.031-0.583,0.974-1.178          c-0.056-0.594-0.596-1.032-1.177-0.975l-2.552,0.241c-0.594,0.056-1.031,0.583-0.974,1.177          C1266.858,262.964,1267.329,263.384,1267.88,263.384z" class="color7d7183 svgShape"/></g></g><g><path fill="#de8957" d="M1271.381,204.544c12.803-9.071,20.832-12.588,22.067-13.06c0.105-0.042,0.179-0.066,0.288-0.1          c1.073-0.323,7.602-2.126,12.093,0.4c1.084,0.61,2.34,0.766,3.517,0.361c4.569-1.561,10.641-1.258,12.832,1.224          c3.269,3.708,23.999,17.725,27.884,39.586c0.187,1.031-0.058,2.102-0.628,2.983l0,0c-1.905,2.954-6.39,2.422-7.51-0.91          c-2.378-7.059-6.248-16.507-10.914-20.398c-5.019-4.18-15.061,1.152-32.146,5.135          C1286.589,222.628,1257.622,214.294,1271.381,204.544z" class="colorde8257 svgShape"/></g><g><path fill="#fac9ac" d="M1349.729,267.592c-0.538,0.977-1.182,1.723-1.953,2.158c-0.406,0.24-0.855,0.378-1.331,0.429           c-0.083,0.004-0.162,0.01-0.23,0.016c-0.091,0.005-0.202-0.005-0.299-0.006c-6.638-0.398-5.871-20.717-5.871-20.717           s7.012-5.844,9.499-4.136c0.454,0.309,0.866,0.86,1.211,1.707C1352.406,251.199,1352.594,262.47,1349.729,267.592z" class="colorfac5ac svgShape"/><path fill="#f6b086" d="M1345.805,267.708c0.311,0,0.62-0.133,0.834-0.39c3.829-4.587,1.257-9.265-0.281-12.059          c-0.18-0.328-0.348-0.633-0.49-0.911c-0.356-0.692-0.693-2.469-0.072-3.411c0.12-0.183,0.481-0.741,1.867-0.642          c0.595,0.042,1.116-0.409,1.158-1.008c0.041-0.598-0.409-1.117-1.007-1.158c-2.194-0.141-3.291,0.794-3.831,1.614          c-1.133,1.72-0.709,4.307-0.047,5.595c0.15,0.293,0.328,0.617,0.52,0.968c1.433,2.605,3.395,6.172,0.516,9.622          c-0.385,0.46-0.323,1.145,0.138,1.528C1345.313,267.625,1345.56,267.708,1345.805,267.708z" class="colorf6ad86 svgShape"/></g><g><path fill="#de8957" d="M1308.037,205.176c0.608-1.561,2.072-2.61,3.749-2.671c5.498-0.202,17.636-0.493,21.111,0.72        c4.543,1.583,16.07,22.318,17.42,31.344c1.353,9.027-5.173-24.762-12.504-29.233c-7.979-4.863-28.273,14.556-31.649,10.07        c-0.877-1.162-1.079-2.695-0.547-4.051L1308.037,205.176z" class="colorde8257 svgShape"/></g><g><path fill="#de8957" d="M1308.623,188.801c1.201-4.58,7.211-9.675,10.149-5.077c2.939,4.598-11.015,11.04-11.015,11.04        S1307.427,193.381,1308.623,188.801z" class="colorde8257 svgShape"/></g><g><path fill="#d17705" d="M1308.213,198.7c0.547,0,1.017-0.411,1.08-0.966c0.022-0.179,0.568-4.148,5.881-6.058        c0.566-0.203,0.859-0.826,0.656-1.391c-0.203-0.564-0.827-0.858-1.391-0.656c-6.655,2.391-7.285,7.647-7.309,7.87        c-0.063,0.597,0.37,1.133,0.967,1.196C1308.136,198.698,1308.175,198.7,1308.213,198.7z" class="colorc97849 svgShape"/></g><g><path fill="#de8957" d="M1258.807,221.055c3.46-5.933,7.11-11.063,13.859-12.333l16.614,1.598l12.41,3.991l-1.258-1.709         c5.263-4.824,12.287-7.604,19.408-7.938c1.92-2.77,3.835-4.534,5.543-3.57c1.347,0.761,3.025,2.61,4.836,4.901         c8.835,2.82,14.451,7.502,17.663,16.217c1.375,3.732,3.419,7.613,2.513,11.486c-0.043,0.185-0.108,0.364-0.159,0.547         c0.17,3.385-1.996,7.049-5.344,7.547c-0.036,0.005-0.067-0.005-0.102-0.003c-0.514,0.316-1.045,0.604-1.612,0.827         c-4.092,1.609-8.888,0.4-12.468-2.154c-3.58-2.553-6.139-6.28-8.363-10.073c-2.225-3.793-3.802-5.2-6.577-8.611         c-1.125-1.383-2.438-2.704-4.056-3.41c-3.808,2.054-3.977-0.21-4.334-0.045c-2.061,10.305-9.665,16.53-19.552,20.226         c-3.155,1.179-8.041,3.72-11.265,2.765c-0.206,0.62-0.42,1.237-0.659,1.843c-2.255,3.785-5.2,7.434-8.355,8.09         c-2.554,0.351-5.173-0.702-7.083-2.433c-1.91-1.731-3.172-4.079-4.005-6.519         C1254.244,235.795,1260.38,227.175,1258.807,221.055z" class="colorde8257 svgShape"/><path fill="#d17705" d="M1344.527 244.011c.082 0 .166-.009.249-.029.602-.141 5.925-1.479 7.228-4.787.22-.559-.054-1.191-.613-1.41-.558-.219-1.19.054-1.411.613-.754 1.915-4.372 3.152-5.703 3.467-.584.138-.946.724-.808 1.309C1343.587 243.673 1344.034 244.011 1344.527 244.011zM1309.818 212.558c.05-.267.071-.536.063-.808-.411-.269-.62-.107-.628.486-.295.451-.379 1.258-.497 1.765-.351 1.501-.503 3.018-.527 4.558-.021 1.398-2.196 1.402-2.175 0 .026-1.728.206-3.453.604-5.136.305-1.29.628-2.956 1.766-3.791 2.226-1.634 3.844.855 3.568 2.926C1311.812 213.926 1309.634 213.944 1309.818 212.558L1309.818 212.558z" class="colorc97849 svgShape"/><path fill="#d17705" d="M1309.979 215.482c-1.778-1.251-.324-3.914 1.71-3.042 1.184.508 1.417 1.729 1.61 2.867.297 1.746.869 3.368 1.72 4.921.673 1.228-1.205 2.327-1.878 1.098-.55-1.005-1.03-2.051-1.383-3.142-.162-.5-.299-1.009-.411-1.523-.074-.343-.136-.688-.187-1.035-.144-.52-.078-1.029.198-1.527-.167-.217-.333-.433-.5-.65.073.051.146.103.22.155C1312.213 214.403 1311.127 216.29 1309.979 215.482L1309.979 215.482zM1276.34 242.766c-5.989.846-10.793-.87-14.527-5.702-.845-1.094.683-2.645 1.538-1.538 3.207 4.15 7.194 5.88 12.411 5.143C1277.131 240.475 1277.723 242.57 1276.34 242.766L1276.34 242.766z" class="colorc97849 svgShape"/><path fill="#d17705" d="M1276.99 242.266c-2.948 5.237-7.958 11.332-14.731 9.562-1.353-.354-.779-2.452.578-2.098 5.704 1.491 9.861-4.276 12.274-8.562C1275.799 239.948 1277.679 241.043 1276.99 242.266L1276.99 242.266zM1291.311 223.701c-3.655 8.406-13.695 11.27-21.31 6.227-1.162-.77-.074-2.654 1.098-1.878 6.703 4.438 15.144 1.891 18.334-5.447C1289.99 221.323 1291.865 222.429 1291.311 223.701L1291.311 223.701zM1329.417 221.742c2.953 3.396 3.134 7.758 5.27 11.563 3.142 5.596 10.727 4.526 14.549.235.933-1.047 2.467.495 1.538 1.538-3.26 3.66-9.418 5.587-13.977 3.342-5.931-2.921-5.015-10.652-8.918-15.139C1326.964 222.228 1328.496 220.684 1329.417 221.742L1329.417 221.742z" class="colorc97849 svgShape"/><path fill="#d17705" d="M1329.442,211.301c3.5,1.577,5.981,4.283,7.329,7.868c0.755,2.008,1.032,4.15,2.564,5.777          c2.109,2.239,5.133,2.39,8.016,2.491c1.396,0.049,1.402,2.225,0,2.175c-4.144-0.145-8.376-0.786-10.729-4.63          c-0.986-1.611-1.276-3.495-1.948-5.236c-1.192-3.082-3.34-5.221-6.33-6.568          C1327.07,212.605,1328.175,210.73,1329.442,211.301L1329.442,211.301z" class="colorc97849 svgShape"/></g><g><path fill="#fcfaf9" d="M1255.238,180.996c3.415-6.121,20.576-8.825,29.929-8.537c6.746,0.208,23.692-3.498,32.304-4.068          c5.839-0.386,15.973-0.222,20.248,2.799c4.275,3.021,6.509,23.176,7.426,32.016c0.57,5.496,3.955,21.048,4.364,24.3          c0.409,3.253-86.25,9.465-86.25,9.465l-6.356-1.892c0,0-2.26-29.574-2.656-36.103          C1254.016,195.182,1253.234,184.587,1255.238,180.996z" class="colorf9fcfb svgShape"/><path fill="#fcfaf9" d="M1257.99,249.282c-1.614,0.834-2.255-1.169-2.656-2.693c-1.408-5.354-4.174-14.506-1.667-17.523          c2.945-3.544,86.295-15.058,97.028-9.251c3.125,1.691,2.152,14.089,2.495,18.547c0.085,1.099-0.962,2.327-2.199,1.965          C1328.74,233.828,1281.13,237.326,1257.99,249.282z" class="colorf9fcfb svgShape"/><path fill="#fef0e8" d="M1260.379 228.258c.135 0 .272-.026.404-.079 39.524-15.869 83.488-8.991 83.927-8.919.59.098 1.151-.306 1.248-.899.096-.593-.307-1.152-.899-1.248-.445-.073-45.008-7.044-85.085 9.048-.557.224-.828.857-.604 1.414C1259.54 228 1259.948 228.258 1260.379 228.258zM1280.089 179.459c6.222 0 12.718-.612 18.848-2.727 14.417-4.975 30.902-4.651 32.319-4.457.575.16 1.131-.19 1.291-.77.16-.579-.227-1.188-.806-1.348-.712-.197-18.156-.781-33.513 4.518-10.32 3.56-21.941 2.669-31.281 1.953-1.477-.113-2.897-.222-4.245-.308-.597-.038-1.117.415-1.155 1.016-.039.6.416 1.117 1.016 1.155 1.34.086 2.751.194 4.218.307C1270.878 179.112 1275.406 179.459 1280.089 179.459z" class="colore8eefe svgShape"/><g><path fill="#fef0e8" d="M1257.114,251.2c0.056,0,0.112-0.003,0.169-0.007c0.599-0.049,1.045-0.573,0.996-1.172          c-0.046-0.567-0.519-0.997-1.077-1c-0.295-0.247-0.72-1.336-0.897-2.322c-0.026-0.122-1.568-6.815-2.558-13.155          c-0.285-1.826-0.06-3.21,0.652-4.003c0.836-0.93,2.17-0.876,2.189-0.879c0.307,0.014,0.622-0.106,0.841-0.333          c0.217-0.226,0.332-0.535,0.304-0.848c-0.016-0.179-1.575-18.057-2.733-35.872c-0.854-13.123,4.173-14.579,6.59-15.279          c0.224-0.065,0.424-0.123,0.594-0.181c2.133-0.723,4.481-0.707,7.452-0.677c4.955,0.045,11.744,0.102,22.057-3.368          c6.433-2.165,17.704-2.186,17.88-2.186h0.001h0.001c0.6,0,1.087-0.487,1.087-1.087c0-0.601-0.486-1.089-1.087-1.089          c-0.501,0.001-11.792,0.017-18.577,2.3c-9.966,3.354-16.274,3.298-21.344,3.254c-3.054-0.026-5.688-0.049-8.169,0.792          c-0.144,0.049-0.313,0.097-0.501,0.152c-2.729,0.791-9.122,2.642-8.155,17.509c0.998,15.339,2.292,30.723,2.645,34.848          c-0.798,0.162-1.835,0.549-2.667,1.46c-1.199,1.313-1.606,3.272-1.209,5.82c1.003,6.42,2.561,13.188,2.577,13.256          C1254.338,248.064,1255.056,251.2,1257.114,251.2z" class="colore8eefe svgShape"/></g></g></g><g><path fill="#b84a09" d="M1303.677,684.135c0.104,0,0.21-0.015,0.315-0.047c0.565-0.174,0.883-0.773,0.709-1.337      c-7.081-23.05-26.155-31.757-26.963-32.117c-0.538-0.238-1.172,0.003-1.412,0.543c-0.241,0.54,0.002,1.173,0.541,1.413      c0.189,0.085,19.003,8.702,25.788,30.789C1302.796,683.839,1303.22,684.135,1303.677,684.135z" class="color0967b8 svgShape"/></g><g><path fill="#ffffff" d="M1235.641,339.307c10.528-10.949,59.378-17.277,56.778-16.924c3.919,11.458,12.522,23.769,26.894,23.296      c18.636-0.613,23.026-16.022,28.119-24.729c-1.393-0.111,44.284,3.966,54.265,13.062c15.798,14.399,4.023,50.844-1.024,83.796      c-5.043,32.957-8.297,150.491-17.74,167.598c-9.443,17.101-113.097-11.207-124.784-0.044      c-6.425-17.034-8.777-129.785-15.975-162.339C1234.971,390.473,1220.815,354.713,1235.641,339.307z" class="colorfff svgShape"/></g><g><path fill="#da783e" d="M1244.28,328.842c6.274-2.669,26.769-4.138,42.04-5.855c3.771,6.671,17.692,29.909,31.435,43.302      c1.379,1.343,3.558,1.328,4.975,0.025c10.797-9.934,26.57-35.123,32.227-44.766c18.1,1.536,39.999,3.618,49.414,12.299      c23.771,21.917-29.295,252.853-33.205,258.718c-3.91,5.864-127.092-10.154-127.092-10.154s-3.204-138.414-17.539-193.801      C1212.198,333.223,1232.453,333.875,1244.28,328.842z" class="color3e87da svgShape"/></g><g><path fill="#b84a09" d="M1332.204,594.072c33.037,0,60.22-7.863,60.527-7.953c0.567-0.166,0.892-0.762,0.725-1.328      c-0.167-0.568-0.767-0.888-1.328-0.725c-0.346,0.101-34.997,10.112-73.487,7.399c-16.443-1.163-30.282-1.927-41.401-2.541      c-13.087-0.723-23.425-1.294-24.651-1.897c-0.484-0.336-1.131-0.206-1.469,0.28c-0.337,0.485-0.197,1.165,0.288,1.503      c1.239,0.862,7.166,1.228,25.713,2.251c11.112,0.613,24.942,1.377,41.369,2.538      C1323.132,593.927,1327.725,594.072,1332.204,594.072z" class="color0967b8 svgShape"/></g><g><path fill="#b84a09" d="M1320.041,375.83c1.68,0,3.364-0.538,4.784-1.617c18.149-13.78,34.573-49.047,35.264-50.542      c0.248-0.537,0.014-1.172-0.523-1.42c-0.536-0.249-1.172-0.014-1.42,0.523c-0.167,0.361-16.893,36.28-34.615,49.735      c-2.118,1.608-5.034,1.568-7.092-0.094c-10.182-8.22-30.079-30.914-33.485-46.875c-0.123-0.579-0.695-0.948-1.269-0.823      c-0.578,0.123-0.946,0.692-0.823,1.269c3.681,17.251,24.45,40.196,34.233,48.094      C1316.539,375.245,1318.288,375.83,1320.041,375.83z" class="color0967b8 svgShape"/></g><g><path fill="#da783e" d="M1370.625,424.608l-12.041-62.099c-2.903-13.852,8.526-27.43,22.376-30.334       c13.852-2.902,23.1-6.248,28.647,12.022c0.265,0.876,2.66,7.372,2.754,8.263c0,0-2.051,26.374,3.701,52.439       C1407.14,408.607,1390.656,404.691,1370.625,424.608z" class="color3e87da svgShape"/></g><g><path fill="#fef0e8" d="M1240.634,521.331c0.565,0,1.037-0.442,1.068-1.013c0.032-0.59-0.421-1.095-1.011-1.127l-9.777-0.53        c-0.599-0.042-1.095,0.421-1.126,1.011c-0.032,0.59,0.421,1.095,1.011,1.127l9.777,0.53        C1240.595,521.33,1240.614,521.331,1240.634,521.331z" class="colore8eefe svgShape"/><path fill="#da783e" d="M1255.587,421.699c-11.196-2.887-31.365-7.531-47.644-7.792c5.578-28.686,4.982-53.024,4.982-53.024           c0.849-16.822,16.387-25.772,30.295-23.149c13.904,2.625,25.601,16.024,22.977,29.932L1255.587,421.699z" class="color3e87da svgShape"/><path fill="#fac9ac" d="M1212.925,360.882c0.076-0.891,0.196-1.821,0.364-2.72c2.627-13.906,16.023-23.051,29.931-20.428           c13.904,2.625,25.601,16.024,22.977,29.932l-23.868,120.867l-11.472,35.266c-9.908,0.829-26.873,0.935-27.253-16.271           L1212.925,360.882z" class="colorfac5ac svgShape"/><path fill="#fcfaf9" d="M1213.138,356.651c2.627-13.906,16.055-23.54,29.963-20.917             c13.904,2.625,27.577,19.583,24.954,33.491l-21.469,113.688c-0.266,1.409-0.708,2.778-1.316,4.076l-12.836,27.401             c-3.54,7.555-12.019,11.451-20.057,9.213c-7.5-2.088-14.967-6.199-17.773-13.272c-1.036-2.612-1.217-5.478-0.8-8.257             C1196.653,483.104,1212.982,357.483,1213.138,356.651z" class="colorf9fcfb svgShape"/><path fill="#fef0e8" d="M1217.01 525.716c.574 0 1.05-.457 1.069-1.035.019-.591-.444-1.085-1.034-1.105-8.487-.28-14.621-2.864-18.23-7.681-5.963-7.956-3.101-19.454-3.071-19.57.174-1.113 15.369-101.15 16.032-123.563.576-19.453 5.476-25.148 9.055-29.307.286-.332.561-.652.824-.967.076-.098 5.118-6.591 11.493-10.562 4.124-2.569 18.589-6.322 19.512-6.464 0 0 .002 0 .003 0 .569 0 18.914-3.056 20.704-3.376 2.033-.361 2.355.776 2.358.787.147.572.728.921 1.302.771.573-.147.918-.73.771-1.302-.272-1.066-1.632-2.934-4.808-2.363-3.204.573-19.658 3.274-20.512 3.352 0 0 0 0-.001 0-.826 0-16.028 4.016-20.462 6.778-6.712 4.181-11.818 10.763-12.032 11.041-.229.273-.498.586-.776.909-3.574 4.153-8.974 10.429-9.573 30.64-.659 22.284-15.834 122.193-15.987 123.2-.11.406-3.119 12.512 3.453 21.281 4.018 5.362 10.705 8.234 19.872 8.536C1216.986 525.716 1216.998 525.716 1217.01 525.716zM1205.027 737.758c.362 0 .714-.183.916-.515.307-.505.146-1.163-.359-1.47-3.725-2.266-6.28-4.724-6.665-6.416-.124-.546.023-.858.145-1.044 6.161-9.486 28.674-129.044 29.63-134.129.343-2.625 8.189-63.012 8.585-72.898.024-.591-.435-1.088-1.026-1.112-.595-.038-1.089.436-1.112 1.026-.393 9.791-8.478 72.02-8.56 72.648-8.057 42.871-24.564 125.99-29.312 133.298-.508.781-.659 1.711-.436 2.687.719 3.155 5.095 6.222 7.64 7.77C1204.646 737.708 1204.838 737.758 1205.027 737.758z" class="colore8eefe svgShape"/><path fill="#fcfaf9" d="M1339.643 473.157c2.232-72.081 11.498-141.452 15.073-151.41.187-.52.694-.843 1.245-.796 17.633 1.527 38.835 3.383 47.975 11.81 20.567 18.963 7.504 147.709 4.297 192.383-.535 7.458-.47 14.934.191 22.382 2.711 30.545 10.201 155.391 14.249 197.115.459 4.732-3.083 8.896-7.827 9.205-20.464 1.333-58.809 4.671-67.441 5.236-.689.045-1.259-.476-1.275-1.166C1345.661 737.708 1339.607 474.323 1339.643 473.157zM1248.379 759.276c-12.399-1.832-45.586-6.362-52.617-7.32-.738-.101-1.25-.765-1.162-1.505 1.437-12.03 20.469-143.91 25.182-175.902.702-4.762 1.147-9.55 1.335-14.359 1.172-29.987 5.558-144.239 5.417-171.58-14.336-55.387 4.246-55.296 16.073-60.329 4.21-1.791 20.831-4.109 31.813-5.395 1.258-.147 2.42.694 2.648 1.94 19.182 104.999-19.363 395.963-24.568 431.39C1252.208 758.204 1250.367 759.57 1248.379 759.276z" class="colorf9fcfb svgShape"/><path fill="#fef0e8" d="M1272.581 482.13c-8.639-31.407-8.946-84.775-8.948-85.31-.001-.367.186-.71.495-.907l11.247-7.172-9.123-6.439c-.23-.162-.387-.408-.437-.685-.262-1.46-6.383-35.978-1.865-54.017.143-.573.723-.922 1.298-.778.573.143.922.725.778 1.298-4.14 16.535 1.121 48.599 1.821 52.689l10.064 7.103c.292.206.462.543.453.899-.008.356-.194.685-.494.877l-12.092 7.711c.059 5.919.79 54.8 8.866 84.163.157.57-.178 1.159-.747 1.316-.095.026-.191.039-.285.039C1273.143 482.916 1272.712 482.604 1272.581 482.13zM1266.856 381.428h.013H1266.856zM1235.936 440.809c.003 0 .006 0 .01 0 .591-.006 1.065-.489 1.06-1.08-.16-17.202-4.318-51.581-4.36-51.926-.072-.587-.608-1.007-1.191-.933-.587.071-1.005.605-.933 1.191.042.345 4.185 34.606 4.344 51.688C1234.871 440.336 1235.349 440.809 1235.936 440.809zM1204.217 754.72c.48 0 .916-.324 1.037-.811.143-.573-.205-1.154-.778-1.297-7.14-1.785-12.293-4.409-14.04-5.37 1.811-8.667 18.396-88.349 24.721-130.38 6.667-44.309 6.852-73.713 6.853-74.005.002-.591-.475-1.072-1.067-1.074-.596.049-1.072.475-1.074 1.067-.001.29-.187 29.553-6.83 73.693-6.652 44.202-24.678 130.159-24.859 131.022-.093.444.103.897.489 1.134.246.15 6.11 3.696 15.286 5.989C1204.044 754.71 1204.131 754.72 1204.217 754.72z" class="colore8eefe svgShape"/><path fill="#f6b086" d="M1194.058,475.937c0,0,13.811,23.451,13.854,24.754l-12.961,2.382l-15.238-7.674l-5.456-13.595        L1194.058,475.937z" class="colorf6ad86 svgShape"/><path fill="#f6b086" d="M1179.127,468.082c3.024-0.319,3.968,9.204,3.968,9.204l-3.639,5.847l-6.355-6.21        C1173.101,476.922,1176.103,468.401,1179.127,468.082z" class="colorf6ad86 svgShape"/><path fill="#edeae8" d="M1174.366,417.068l37.17,0.195c4.509,0.024,10.257,3.711,12.837,8.234l0,0l-53.502-0.279l0,0         C1168.292,420.692,1169.855,417.047,1174.366,417.068z" class="colorede8e8 svgShape"/><polygon fill="#fb600a" points="1217.996 542.135 1315.02 544.909 1316.785 542.651 1249.044 423.896 1150.258 423.378 1148.493 425.638" class="colorf1455f svgShape"/><polygon fill="#f9935b" points="1216.233 544.391 1315.02 544.909 1247.282 426.152 1148.493 425.638" class="colorf95b64 svgShape"/><g><path fill="#fac9ac" d="M1173.266,484.492c-1.385-4.635-3.072-7.742,8.983-16.515c6.146-4.472,10.909,5.367,14.172,11.414        c2.135,3.956,2.311,8.87,1.26,11.588c-1.144,2.957-6.242,8.668-9.585,8.304        C1178.173,498.201,1174.915,490.013,1173.266,484.492z" class="colorfac5ac svgShape"/></g><g><path fill="#fef0e8" d="M1349.851,495.731c0.419,0,0.817-0.248,0.989-0.659c11.245-27.032,12.046-90.988,12.075-93.698       c0.003-0.242-0.077-0.478-0.226-0.669l-10.017-12.862l9.129-7.327c0.196-0.158,0.33-0.378,0.38-0.624       c0.354-1.763,8.664-43.342,8.22-56.847c-0.019-0.59-0.496-1.032-1.105-1.034c-0.591,0.019-1.054,0.514-1.034,1.105       c0.414,12.586-7.252,51.683-8.103,55.975l-9.647,7.744c-0.456,0.366-0.534,1.031-0.174,1.492l10.433,13.397       c-0.082,5.383-1.256,66.925-11.905,92.526c-0.227,0.546,0.031,1.173,0.577,1.399       C1349.575,495.705,1349.714,495.731,1349.851,495.731z" class="colore8eefe svgShape"/></g><g><path fill="#fef0e8" d="M1251.985,598.472c1.884,0,3.916-0.036,6.115-0.115c1.409-0.051,2.51-1.233,2.459-2.642       c-0.051-1.409-1.262-2.504-2.642-2.459c-20.049,0.724-25.142-2.299-25.184-2.33c-1.14-0.829-2.735-0.578-3.565,0.562       c-0.829,1.14-0.578,2.736,0.562,3.565C1230.578,595.672,1235.356,598.472,1251.985,598.472z" class="colore8eefe svgShape"/></g><g><polygon fill="#fef0e8" points="1331.655 437.501 1372.764 438.091 1373.267 415.74 1332.158 415.153" class="colore8eefe svgShape"/><polygon fill="#eca57b" points="1373.156 420.664 1332.047 420.077 1332.158 415.153 1373.267 415.74" class="color7bcbec svgShape"/><rect width="2.288" height="6.463" x="1353.199" y="410.972" fill="#edeae8" transform="rotate(-178.716 1354.84 414.342)" class="colorede8e8 svgShape"/><polygon fill="#f1c0a3" points="1350.48 426.496 1370.14 426.602 1370.192 424.339 1350.532 424.234" class="colora3daf1 svgShape"/><polygon fill="#f1c0a3" points="1356.286 431.826 1370.023 431.8 1370.075 429.538 1356.338 429.566" class="colora3daf1 svgShape"/><rect width="9.79" height="12.352" x="1335.579" y="422.435" fill="#ffb589" transform="rotate(-178.711 1340.196 428.535)" class="colorff9a89 svgShape"/></g><g><path fill="#fef0e8" d="M1370.025,559.435c3.07-1.676,27.366,5.018,27.366,5.018l8.409,6.552l0.44,7.488        c0,0-2.873,3.954-14.191-1.087C1380.73,572.364,1366.955,561.111,1370.025,559.435z" class="colore8eefe svgShape"/><path fill="#fac9ac" d="M1378.981,340.879l12.499-10.504c0,0,20.522,3.174,40.398,51.068         c19.877,47.894,36.038,86.302,15.642,98.432c-20.396,12.129-41.574-32.104-50.315-49.852         c-5.922-12.025-18.847-43.481-26.567-62.519C1366.898,358.281,1371.751,347.718,1378.981,340.879L1378.981,340.879z" class="colorfac5ac svgShape"/><path fill="#fac9ac" d="M1425.039,448.852c0,0,28.169-4.731,31.094,13.189c2.554,15.647-59.073,128.346-65.589,128.344           c-6.516-0.002-16.181-1.526-12.701-13.689c1.772-6.196,15.661-60.594,24.141-86.004           C1409.573,467.956,1418.854,462.275,1425.039,448.852z" class="colorfac5ac svgShape"/><path fill="#fac9ac" d="M1356.03,613.346c3.811-6.027,6.769-11.029,8.59-15.478c-1.757,1.356-3.167,2.633-4.887,4.404               c-4.241,4.365-6.215,3.512-5.09-0.91c1.135-4.426,3.654-8.06,7.315-12.888c1.772-2.343,4.856-5.434,7.566-7.997               c0.74-0.702,1.522-1.354,2.339-1.952c4.59-3.357,10.923-3.002,15.249,0.689l0,0c0.532,0.454,1.038,0.941,1.477,1.485               c4.283,5.293,6.248,12.214,4.885,18.906c-0.415,2.034-1.065,3.98-2.063,5.554c-4.671,7.361-8.718,15.953-23.818,23.463               C1351.832,636.466,1349.55,623.596,1356.03,613.346z" class="colorfac5ac svgShape"/><g><path fill="#fcfaf9" d="M1370.847,559.911c5.378-20.209,22.703-49.07,28.286-65.797c2.229-6.678,2.048-13.19,4.446-17.588         c4.729-8.672,4.786-19.115,0.02-27.766c-3.74-6.789-6.87-13.227-9.163-17.882c-6.046-12.276-19.679-43.656-27.56-63.092         c-3.818-9.415,7.057-28.48,14.439-35.462l6.675-2.789c6.164-2.575,13.264-0.796,17.522,4.352         c6.35,7.678,15.811,22.138,26.823,48.672c17.363,41.837,31.281,76.567,22.637,93.485         c-7.487,22.733-31.948,74.55-48.732,102.449C1400.719,574.431,1380.381,564.319,1370.847,559.911z" class="colorf9fcfb svgShape"/><path fill="#fef0e8" d="M1378.796,565.318c0.012,0,0.024,0,0.034-0.001c0.591-0.009,1.063-0.495,1.054-1.086         c-0.009-0.586-0.486-1.054-1.069-1.054c-0.006,0-0.011,0-0.017,0.001c-0.586-0.144-4.201-2.203-7.451-4.187l32.174-82.613         c0.201-0.515,0.39-1.027,0.568-1.535c3.4-9.735,2.522-20.782-2.409-30.309c-13.704-26.48-22.138-43.222-22.605-44.868         c-0.068-0.532-0.502-0.978-1.077-0.931c-0.591,0.009-1.063,0.495-1.054,1.086c0.007,0.484,0.024,1.617,22.835,45.697         c4.662,9.007,5.496,19.437,2.29,28.618c-0.169,0.484-0.35,0.973-0.542,1.464l-32.498,83.447         c-0.187,0.481-0.004,1.028,0.435,1.299C1377.271,565.171,1378.439,565.318,1378.796,565.318z" class="colore8eefe svgShape"/></g></g><g><polygon fill="#fcfaf9" points="1402.137 643.634 1392.958 597.419 1349.809 599.946 1349.006 614.108 1353.062 649.934" class="colorf9fcfb svgShape"/><path fill="#fef0e8" d="M1363.75,602.549c7.106,0,17.64-0.485,29.655-2.617c1.388-0.246,2.313-1.571,2.067-2.959        c-0.245-1.388-1.565-2.313-2.959-2.067c-20.88,3.704-37.595,2.237-37.762,2.222c-1.41-0.117-2.646,0.905-2.775,2.308        c-0.129,1.403,0.903,2.645,2.306,2.775C1354.595,602.24,1358.082,602.549,1363.75,602.549z" class="colore8eefe svgShape"/></g></g></g></svg>