<svg xmlns="http://www.w3.org/2000/svg" data-name="Layer 1" viewBox="0 0 1159 771"><path fill="#ffa30f" d="M177.33 542.36c-1.44-6.58-30.62-283.45 185.87-388.18 339.11-164 471.91-101.13 547.58 35.15C940.4 242.67 957.29 445.26 901 507s-703.32 128.44-723.67 35.36Z" class="colorf3fbff svgShape"/><path fill="#fb600a" d="M107.25 79.11h243.83v250.33H107.25z" class="colorfff svgShape"/><path fill="#b5a399" d="M991 613.4c-2.83.41-5.73.76-8.75 1.1-15.23 1.7-32.79 2.85-53 3.23-62.48 1.21-123-2.92-176.11-7.2-2.83-.22-5.66-.47-8.46-.69-93-7.6-161.84-14.73-176.42 7.89a149.87 149.87 0 0 1-21 26.2q-2.14 2.12-4.5 4.23c-37.6 34-115 67-284.85 28-7.69-1.77-15-3.57-22.1-5.43-1.6-.4-3.19-.82-4.74-1.25C112.35 637.63 83 596.08 80.61 565.76c-.12-1.37-.2-2.69-.2-4-.09-17.08 8-30 12-34.67 17.09-20.24 42.74-39.18 74.73-56.21 2-1.1 4.11-2.17 6.21-3.23 68.09-34.89 162.76-61.45 263.56-74.36 2.34-.31 4.71-.6 7.08-.89 58.05-7.06 117.94-9.57 175.81-6.57 2.81.14 5.61.31 8.39.47 21.45 1.32 42.6 3.43 63.25 6.34a975.7 975.7 0 0 1 180.07 42.94c1.26.43 2.49.88 3.72 1.3 67.7 23.58 119.34 50.49 152.9 71.31 1.62 1 3.19 2 4.71 3 24.23 15.39 37.91 27 40.09 30.65 6.36 10.69 26.45 56.91-81.93 71.56Z" class="color99b5a7 svgShape"/><path fill="#f7f1ed" d="M879.44 563.94q76.38-27.16 153.35-52.75c-1.52-1-3.09-2-4.71-3q-24.33 8-48.57 16.23-54.79 18.58-109.16 38.31-72-29.93-144.26-59.16-7.7-3.1-15.43-6.19l32.83-11.88q66-23.83 131.69-48.61c-1.23-.42-2.46-.87-3.72-1.3Q815.39 455 759.57 475.08q-27.55 9.85-55.05 19.81-63.52-25.6-127.34-50.83-26.73-10.51-53.48-21c.43-.15.85-.29 1.28-.42 34.53-11.75 69-23.67 103.16-36.31-2.78-.16-5.58-.33-8.39-.47q-40.68 13.28-81.28 26.92l-22.05 7.41c-24.1-9.39-48.23-18.73-72.48-27.76-2.37.29-4.74.58-7.08.89 15.37 6.21 30.87 12.2 46.32 18.27q13.56 5.31 27.15 10.67-46.27 15.56-92.62 31-60.42 20.06-121.06 39.74-19.57 6.34-39.16 12.59c-6.56-3-13.06-6-19.61-9q-32.2-14.59-64.58-28.93c-2.1 1.06-4.18 2.13-6.21 3.23q27.27 12.27 54.47 24.65c9.26 4.19 18.47 8.45 27.71 12.66q-37 11.88-74 23.63-47.4 15.09-94.85 29.94c0 1.3.08 2.62.2 4q10.59-3.16 21.13-6.41 30.46-9.35 60.9-18.81 46.61-14.49 93-29.4 39.6 18.15 79 36.6 48.6 22.78 96.85 46.12L331.2 630.3c-33.58 12.19-67.74 24.09-100.09 39.13 1.55.43 3.14.85 4.74 1.25q7.36-3.25 14.84-6.34c22-9 44.32-17.12 66.68-25.19l119.17-42.87 10 4.77q48.31 23.34 96.3 47.11 2.36-2.11 4.5-4.23-41.85-21-84-41.49c-6.24-3-12.5-6-18.77-9.05l14.37-5.16q71-25.54 142-51.2l103.67-37.45 1.45.58q73.95 30 147.6 60.51c3.51 1.43 7 2.89 10.47 4.35q-32.92 11.93-65.66 24.22-24.76 9.35-49.4 18.94l-4.25 1.66c2.8.22 5.63.47 8.46.69 12-4.59 23.94-9.21 35.93-13.69q40.22-15 80.65-29.43 56.36 23.37 112.5 47.09c3-.34 5.92-.69 8.75-1.1q-57.3-24.4-114.91-48.27c1.04-.4 2.13-.81 3.24-1.19ZM616.3 526.87q-71.3 25.79-142.57 51.66L439.49 591q-44.1-21.32-88.51-42.18-43.41-20.37-87.06-40.27c6.55-2.11 13.13-4.17 19.65-6.28q60.68-19.49 121.18-39.44 56.51-18.63 112.83-37.7 19.77 7.77 39.53 15.54 70.8 27.93 141.29 56.47-41.05 14.86-82.1 29.73Z" class="colorf7efed svgShape"/><path fill="#6e665d" d="M227.67 35.61h3v243.3h-3z" transform="rotate(-89.82 229.152 157.263)" class="color6e5d63 svgShape"/><path fill="#6e665d" d="M227.67 79.11h3v251.37h-3z" class="color6e5d63 svgShape"/><path fill="#6e665d" d="M352.58 332H105.75V77.61h246.83Zm-243.83-3h240.83V80.61H108.75Z" class="color6e5d63 svgShape"/><path fill="#f7f1ed" d="M105.65 95.25h9.78c-.09-21.13-.28-34.88-.63-35.22-1.59-1.53 21 16.76 21 16.76v18.39h5.75c-.08-21.09-.27-34.8-.63-35.14-1.58-1.53 21 16.76 21 16.76v18.29h7.35c-.09-21-.28-34.73-.63-35.07-1.59-1.53 21 16.76 21 16.76v18.4c3.29 0 6.59 0 9.88.07-.08-22.4-.27-37.11-.64-37.46-1.58-1.52 21 16.77 21 16.77v20.87q14.25.1 28.51.09c-.09-19.73-.28-32.44-.62-32.76-1.59-1.53 21 16.76 21 16.76v15.91q13.81-.09 27.63-.22c17.89-.18 35.79-.45 53.68-.38 1.41 0 1.41 2.47 0 2.52-27.09 1-54.2 1.32-81.31 1.7v257.83l-21.11-20.82s1-162.23.71-236.71l-28.37.46V351.9l-21.11-20.82s1-154.23.74-231l-9.9.13v253.92l-21.11-20.82s1-156.85.72-232.89h-7.36v253.71l-21.11-20.82s1-156.74.73-232.82h-5.77v253.64l-21.11-20.82s1-156.72.72-232.81h-9.79c-2.93.01-2.94-5.25 0-5.25Z" class="colorf7efed svgShape"/><path fill="#dc9d78" d="M784 323.79s21.87-23.6 32.54-48.34S842.9 194.64 839.69 174s-15.63-25.16-16.69-18.49c-2.69 17.23-85.74 196-39 168.28Z" class="colordca878 svgShape"/><path fill="#eae3df" d="M777.53 305.7c-10.28 4.56-33.54 6.12-60.92 4.83-2.13-.09-4.26-.21-6.43-.35l-3.66-.24c-61.1-4.28-136.53-21.85-137.14-51.58a19.16 19.16 0 0 1 .92-6.16c2.32-7.38 63.12-103.44 80.71-110.34 28.61-11.19 130.79-4.28 168.43 5.64 1.68.43 3.21.87 4.62 1.34 4.25 1.35 7.23 2.76 8.61 4.16 12.02 12.37-19.93 137.11-55.14 152.7Z" class="coloreae1df svgShape"/><path fill="#6e665d" d="M778.32 373.21a15.4 15.4 0 0 0-4.07-1.94 28.93 28.93 0 0 0-5.51-.32c-3.59-.15-7.19-.28-10.78-.4q-10.77-.37-21.56-.58-21.57-.44-43.14-.23-43.39.38-86.65 3.4-12.06.83-24.1 1.85c-3.89.33-7.77.72-11.65 1.21-4.1.51-8.13 1.32-12.21 1.93-1 .15-.74 1.62.23 1.59 7.18-.25 14.32-.24 21.48-.76s14.34-1 21.51-1.4c14.35-.83 28.71-1.37 43.08-1.86q43.13-1.45 86.27-.56 12.09.24 24.15.67 6 .21 12.08.47a46.79 46.79 0 0 0 6 .25 14.73 14.73 0 0 0 4.84-1.63 1 1 0 0 0 .03-1.69Z" class="color6e5d63 svgShape"/><path fill="#6e665d" d="M768.89 318.58v57.3c-12.76 6.05-25.35 12.35-38.39 17.93-14.31 6.11-28.84 11.75-43.5 17.09-29.66 10.81-59.73 20.61-89.7 30.65q-46.83 15.7-93.59 31.55-47.1 15.9-94.22 31.76c-31.33 10.54-62.67 21.14-93.89 31.91-3.05 1.05-6.08 2.15-9.12 3.25V487.9h-14.55v60.54c-2.52-1.09-5.17-2-7.71-2.81-5-1.62-10.14-3-15.23-4.34-10.58-2.9-21.16-5.8-31.76-8.62l-63.12-16.84-17.36-4.63-7.93-2.11V439h-14.55v139.67h14.55v-65.45l4.31 1.14 15.72 4.15 31.44 8.31c21 5.55 42.05 11.13 63.11 16.55 5.63 1.45 11.29 2.83 16.89 4.41 4 1.12 7.81 2.55 11.64 4v75.78h14.55V543c31.08-9.66 61.86-20.11 92.7-30.4Q446.56 496.8 494 481q47.09-15.66 94.14-31.35c30.31-10.15 60.72-20.07 90.81-30.78 29.19-10.4 58.08-21.69 85.67-35.4 1.45-.72 2.87-1.46 4.3-2.21v77h14.56V318.58Z" class="color6e5d63 svgShape"/><path fill="#6e665d" d="m307.34 496.45-171.97-39.47-.26-17.97 172.23 39.32v18.12zM784.03 323.79 307.34 478.33v18.12L784.16 343l-.13-19.21z" class="color6e5d63 svgShape"/><path fill="#dc9d78" d="M140.47 419.76s-11.56 8.67-5.23 18.14c11.46 17.16 151.44 44.94 174.25 42.47s202.4-61.85 256-77.93 187.11-63.95 202.84-70.5c19.57-8.15 17.78-12.49 11.66-20.47S321.31 448.21 321.31 448.21Z" class="colordca878 svgShape"/><path fill="#eae3df" d="M135.56 397.18S133 424.06 147 429.1c61.09 22 139.82 38.63 193.58 23.38 30.53-8.66 423.58-123.69 439.41-141s22.22-33.61 22.22-33.61-242-8.45-245.6-6-421.05 125.31-421.05 125.31Z" class="coloreae1df svgShape"/><path fill="#eae3df" d="M737.39 300.2c-65 24.35-180.47 63-272.85 90.69-66.25 19.83-120.61 34-136 33.12l-4.14-.23c-13.75-.76-34.23-1.76-56.73-3.18-28.81-1.79-60.92-4.26-86.3-7.68-5.28-.7-10.26-1.46-14.86-2.25-2.8-.48-5.47-1-8-1.52-13.27-2.74-22-6-23.17-9.78a3 3 0 0 1 0-1.89 1.45 1.45 0 0 1 .11-.29 3.86 3.86 0 0 1 .83-1.12 19 19 0 0 1 2.58-1.95c39.72-25.47 400.48-119.49 438.25-154.44 4.24-3.92 131.91 24.39 186.74 32 1.91.27 3.74.54 5.45.8 2.19.34 4.22.7 6.06 1 5.72 1.06 9.72 2.14 11.45 3.24a2.06 2.06 0 0 1 1 1c.71 2.28-18.92 10.67-50.42 22.48Z" class="coloreae1df svgShape"/><path fill="#f9f6f4" d="M824.06 148.84c-.24 2.19-.61 4.41-1 6.67-4.72 24.33-13.69 47.81-25 70.16-8.08 16-17 32.51-28.6 46.83a131.65 131.65 0 0 1-11.81 12.86 109.79 109.79 0 0 1-20.21 14.84 195.07 195.07 0 0 1-20.78 10.33c-8.92 3.86-18.05 7.29-27 10.68-26.5 10.11-53.55 18.88-80.63 27.6-55.78 18-111.53 36.09-167.43 53.77-27.39 8.67-54.9 17.36-82.87 24.24-27.06 6.64-54.95 11.51-83 10.92s-54.78-7.55-81-16.07c-11.69-3.8-24.39-7.43-36.12-12.52a91.3 91.3 0 0 1-22.18-13.08 19 19 0 0 1 2.58-1.95 72.83 72.83 0 0 0 7.63 5c10.19 5.81 21.55 9.36 32.74 13.14l2.07.7c12.14 4.1 24.3 8.13 36.69 11.57 26.55 7.34 53.41 10.53 81.09 8.4 27.95-2.13 55.18-8.77 81.9-16.39 27.28-7.77 54.32-16.36 81.32-24.93l2.13-.68q80.22-25.51 160.26-51.66c26.62-8.67 53.17-17.64 79-28.18l2.7-1.11c10.92-4.49 21.79-9.29 31.74-15.46A104.92 104.92 0 0 0 764 271.7l1.08-1.34c7.35-9.23 13.46-19.24 19.23-29.35a358.36 358.36 0 0 0 17-33.6 275.16 275.16 0 0 0 12.47-34.56c2.37-8.38 3.92-16.89 5.73-25.35a79 79 0 0 1 4.55 1.34Z" class="colorf9f5f4 svgShape"/><path fill="#c4a795" d="M620.39 176.55c1.56-13.84 12.85.46 24.46 2.41s28.37-4.63 58.43-.49S736.87 199 765 195.73c8.45-1-13.54 23.64-14.07 34.58-1 21.27-24 55.78-28.7 66.74s-8.15 1.9-14.85-.59-71.92-.12-91.46-9.14-53.63-12.2-45.83-16.81 12.67-19.78 17.19-33.84c13.64-42.51 31.03-41.67 33.11-60.12Z" class="color95b1c4 svgShape"/><path fill="#a07f6b" d="M757.89 200.55c-6.23.93-12.63 3.2-15.86 8.6-1.83 3.07-1.81 6.41-1.48 9.81a34.35 34.35 0 0 1-.67 11.74c-1.82 7.34-5.79 14-10.07 20.34s-9.28 12.23-11.91 19.28c-3.17 8.48-1.71 17.52-.17 26.15.24 1.31 2.34.74 2.14-.55-1.15-7.55-2.42-15.51-.21-23 2.07-7 7-12.92 11.22-18.93 4.08-5.83 7.94-11.91 10.36-18.53a37.24 37.24 0 0 0 2.17-9.7c.3-3.75-.67-7.46-.38-11.18.55-7.08 8.79-10.94 15.06-13.33a.36.36 0 1 0-.2-.7Z" class="color6b8ba0 svgShape"/><path fill="#f5ceb6" d="M711.53 382.26c-1.89.88-13.29 5.11-30.53 11.37-.91.34-2.41.15-2.81 1-19.19 42.49-235.67 89.18-253.34 89.13-12.77 0-10.26-59.66-23.43-69.89s-209.91-42.36-216.7-40.23-24.43 14-22.4 7C168.46 359.4 340 307.2 431.86 283.4c2.89-.74 5.69-1.47 8.41-2.15 22.19-5.63 38.67-9.27 45.31-9.93 33.33-3.32 197.19 33.28 215.22 39.61s20.54 66.75 10.73 71.33Z" class="colorf5d2b6 svgShape"/><path fill="#dc9d78" d="M684.45 393a10.34 10.34 0 0 1-.44 2.89c0 .19-.09.37-.12.55-.28 1.23-1.88 1.23-2.68.48a.52.52 0 0 1-.16-.14 10.44 10.44 0 0 1-2.28-3.86c-.35-1.26-.61-2.54-.93-3.81-.68-2.81-1.36-5.61-2-8.4-1.16-4.83-2.28-9.66-3.64-14.44-2.49-8.72-6-17.7-12.68-24.45-6.5-6.5-15.31-10.48-23.82-14.26-9.16-4.07-18.51-7.68-28-10.94A476.83 476.83 0 0 0 550 301c-19.72-4.12-39.7-7.15-59.75-9.56-10.09-1.19-20.17-2.34-30.28-3.34-5-.49-10-1-15-1.47-3.38-.34-6.78-.58-10.16-1 2.89-.74 5.7-1.47 8.42-2.15l4.89.36c5.78.38 11.55.88 17.32 1.4 11.46 1 22.91 2.23 34.32 3.71 40.73 5.27 81.32 13.33 119.61 27.49 9.39 3.47 18.8 7.12 27.77 11.43 8.38 4 15.89 9.14 21.18 16.47 5.14 7.09 7.88 15.49 10.06 23.71 1.18 4.49 2.23 9 3.32 13.53.61 2.55 1.24 5.09 1.85 7.64a20.31 20.31 0 0 1 .9 3.78Z" class="colordca878 svgShape"/><path fill="#393531" d="m775.73 517.78 21.79-11.92v-27.74l-23.08 8.41 1.29 31.25z" class="color323139 svgShape"/><path fill="#6e665d" d="m775.73 517.78-22.12-4.8v-28.32h22.12v33.12z" class="color6e5d63 svgShape"/><path fill="#393531" d="m955.28 562.19 21.79-11.92v-27.75l-23.09 8.42 1.3 31.25z" class="color323139 svgShape"/><path fill="#6e665d" d="m955.28 562.19-22.12-4.81v-28.31h22.12v33.12z" class="color6e5d63 svgShape"/><path fill="#393531" d="m1033.08 524.33 21.79-11.92v-27.75l-23.08 8.41 1.29 31.26z" class="color323139 svgShape"/><path fill="#6e665d" d="m1033.08 524.33-22.12-4.81V491.2h22.12v33.13z" class="color6e5d63 svgShape"/><path fill="#f5ceb6" d="m747.07 358.64 88.96-42.82 224.99 35.78-96.83 42.43-217.12-35.39z" class="colorf5d2b6 svgShape"/><path fill="#dc9d78" d="m747.07 358.64.37 135.1 218.48 52.89 92.74-50.35 2.36-144.68-96.83 42.43-217.12-35.39z" class="colordca878 svgShape"/><path fill="#f5ceb6" d="m753.61 367.13 201.5 35.66v40.47l-201.5-39.67v-36.46zM753.61 413.71v70.95l201.5 50.22v-81.2l-201.5-39.97z" class="colorf5d2b6 svgShape"/><path fill="#e8c7b3" d="M829.31 302.09s1.1 13.55.71 17.28-3.1 14.11-1.84 18.08-.21 9.38 13.58 13.75c12.74 4 20.6-1.73 24-6.91s.49-44 .49-44Z" class="colorb3d5e8 svgShape"/><path fill="#a07f6b" d="M868.51 330.34c-.23-8.1-.87-16.18-1-24.28s.82-16.84-3-24.46c-3.15-6.21-10.19-11-17.84-9.29.18-.35 0-.84-.48-.78a22.11 22.11 0 0 0-15.17 8.52c-4.34 5.78-4.1 12.76-3.18 19.47 1.08 7.87 1.72 15.58.69 23.5-.54 4.11-1.81 8.24-1.66 12.41a16.63 16.63 0 0 0 2.46 8.08 20.28 20.28 0 0 0 15.11 9.35c6.34.77 14.2 0 19.23-4 5.6-4.53 5.02-12.23 4.84-18.52Zm-2.72 14c-2.86 5.84-10.24 7.51-16.57 7.68-6.82.19-13.29-1.8-17.51-7a16.58 16.58 0 0 1-3.53-7.54c-.64-3.7.32-7.41 1-11.05a72.86 72.86 0 0 0 .66-20.64c-.81-7.33-3.09-15.34.46-22.37a20.46 20.46 0 0 1 15.84-10.72c.06 0 .08-.05.13-.06a.59.59 0 0 0 .7.78c7.14-1.62 13.57 3 16.48 8.78 3.16 6.24 2.88 13.33 2.86 20.06 0 7.35.45 14.69.8 22 .16 3.54.31 7.08.31 10.62-.04 3.17-.2 6.49-1.63 9.41Z" class="color6b8ba0 svgShape"/><path fill="#c4a795" d="M829.31 302.09c-.18-1.32 3.6-6.06 16.72-6.52 16.26-.57 20.26 2.85 20.25 4.75s-6.46 5.36-15.72 6.12-20.75-.78-21.25-4.35Z" class="color95b1c4 svgShape"/><path fill="#e6996b" d="M841.46 267.23s-1.28 4.17 0 5.47 11.76 1.05 12.72 0 .55-6.52-.88-7-11.3-1.09-11.84 1.53Z" class="colore66c6b svgShape"/><path fill="#f7f1ed" d="M864.86 313.23c-1.13 2.56-4.51 4-7.12 4.93a35 35 0 0 1-9.24 1.84 40.51 40.51 0 0 1-18.34-3.33c-.2-.08-.37.17-.18.29 5.72 3.61 13.45 4.89 20.25 4.27a35.92 35.92 0 0 0 10-2.36c2.62-1 5.41-2.62 5.16-5.61a.28.28 0 0 0-.53-.03ZM865.77 333.84a37.46 37.46 0 0 1-6.74 3.27 28.85 28.85 0 0 1-8.68 1.2 96.5 96.5 0 0 1-8.84-.4 26.11 26.11 0 0 1-7.42-2.05.17.17 0 0 0-.19.27c1.5 1.92 4.48 2.47 6.85 2.82a76.25 76.25 0 0 0 10.13.78c5.22.06 12.53-.73 15.27-5.5a.28.28 0 0 0-.38-.39ZM910.78 317.24l-2.12 40.47c-3.22 3.34-20.4 3.82-22.92 0l-2.12-40.47Z" class="colorf7efed svgShape"/><path fill="#e0d1c8" d="m907.51 318.95-2.27 40.47h-.62l2.27-40.47h.62zM901 319.9q-.94 20.24-1.6 40.47h-.62q.63-20.24 1.59-40.47ZM895.05 360.38h-.62l-.25-40.48h.62l.25 40.48zM890.8 360h-.62q-1.65-20.2-2.94-40.47h.62q1.31 20.23 2.94 40.47Z" class="colore0cfc8 svgShape"/><ellipse cx="897.2" cy="317.75" fill="#e0d1c8" rx="13.58" ry="3.75" class="colore0cfc8 svgShape"/><path fill="#9d8577" d="M971.62 336.54c-.25-.4-.49-.81-.73-1.21.06-2.59-.18-5.35-.32-7.92-.16-2.89-.38-5.77-.6-8.65-.41-5.58-.8-11.17-1.08-16.76s-.53-11.2-.68-16.81.09-11.4-.7-16.86c0-.15-.18-.15-.21 0-.89 5.4-.62 11.35-.56 16.86 0 5.7.18 11.41.43 17.11s.57 11.39 1 17.06c.22 2.69.45 5.38.79 8.05.26 2 .5 4.14.87 6.17a62.92 62.92 0 0 1-3.82-7.46 80.52 80.52 0 0 1-3.93-12.29 265.42 265.42 0 0 1-5.08-29.92c-.74-6-1.13-12.09-2-18.06 0-.19-.22-.13-.23 0a121.61 121.61 0 0 0 .53 16.86c.45 5.43 1.1 10.81 1.9 16.16 1.42 9.38 3.1 19.31 6.58 27.68 1.81 4.35 4.17 8.41 7.5 10.56.29.23.56-.22.34-.57ZM955.86 321.42c-.54-2.28-1.16-4.46-1.83-6.67-1.33-4.42-2.48-9-3.47-13.57s-1.88-9.29-2.9-13.9-1.45-9.52-2.09-14.34c-.05-.41-.48-.28-.5.1-.22 5 .14 10.18.35 15.2a89 89 0 0 0 1.89 14.47c1 4.77 2.19 9.42 3.57 14a55.17 55.17 0 0 0 5.85 12.44c.26.45.83 0 .7-.56-.58-2.38-1.02-4.8-1.57-7.17Z" class="color779d86 svgShape"/><path fill="#9d8577" d="M964.16 327.14c-.63-2.17-1.42-4.21-2.14-6.33a121.06 121.06 0 0 1-3.51-13c-2-9.56-3.12-19.46-4.53-29.22q-.6-4.14-1-8.33c-.29-2.9-.34-5.85-.69-8.74-.09-.78-1-.57-1 .18 0 2.64.25 5.29.32 7.93s.08 5.08.12 7.62c.08 5.31.31 10.52.85 15.78a144.1 144.1 0 0 0 5.73 28 44.61 44.61 0 0 0 2.64 7.18 20.23 20.23 0 0 0 1.8 3.05c.75.95 1.58 1.75 2.34 2.68.23.27.68 0 .55-.44-.58-2.07-.88-4.26-1.48-6.36Z" class="color779d86 svgShape"/><path fill="#9d8577" d="M973.31 286.76c-.13-2.78-.32-5.58-.63-8.32s-.79-5.22-1.19-7.84c-.9-6-1.49-12.21-3-18-.11-.44-.69-.43-.64.12.46 5.32 1.45 10.53 1.77 15.88s.26 10.55.35 15.8c.2 10.81-3.23 26-4 19-1.23-11.79-2-23.66-2.19-35.57-.06-3.4-.06-6.81 0-10.21 0-3.11.43-6.63-.11-9.67 0-.2-.22-.16-.27 0-.76 2.56-.74 5.76-.88 8.5q-.22 4.51-.35 9-.26 9-.05 18.09c.05 2.3-.45 2.79-.79.72-.49-3-.86-6-1.06-9a82.38 82.38 0 0 1-.19-4.71 10.49 10.49 0 0 0-.31-3.65c-.07-.17-.22-.14-.29 0a8.42 8.42 0 0 0-.52 3.65v4.71c.09 3.13.3 6.26.45 9.39.29 6.27.63 12.48 1.28 18.7.63 6 1.07 12.2 2.28 18.06a37.28 37.28 0 0 0 2.33 7.92 14.47 14.47 0 0 0 2.28 3.42c.51 1.92 1 3.82 1.66 5.69.1.32.49.17.47-.18-.08-1.19-.2-2.37-.3-3.56.26.24.65-.16.54-.58l-.21-.87a21.18 21.18 0 0 0 1.72-6c.34-2.68.62-5.37.88-8.07.51-5.44.84-10.92 1-16.4s.23-10.63-.03-16.02Z" class="color779d86 svgShape"/><path fill="#9d8577" d="M981.32 288.38c-.14-2.53-.22-5.06-.45-7.58-.17-2-.22-4.71-1.17-6.3 0-.08-.14-.06-.17 0-.66 1.86-.34 4.53-.36 6.54 0 2.35 0 4.71-.22 7-.37 4.81-.83 9.69-1.48 14.45-.35 2.51-.19-10.8-.57-19.93-.24-5.89-.94-11.58-1.65-17.38 0-.16-.21-.12-.2 0 .44 5.06.49 10.28.59 15.38s0 10.31-.22 15.45a240.63 240.63 0 0 1-3.42 30.82c-.48 2.73-1 5.45-1.46 8.19s-1 5.52-1.31 8.34c0 .44.42.53.56.22a61.6 61.6 0 0 0 3.8-13.58c2.55-2.7 3.52-7.4 4.51-11.53a119 119 0 0 0 2.66-15 91.5 91.5 0 0 0 .56-15.09ZM996.93 260.73c-.07-.23-.3-.13-.35.06-.63 2.49-.37 5.44-.47 8-.1 2.9-.27 5.8-.58 8.66-.62 5.57-1.81 11-2.92 16.44a155.69 155.69 0 0 1-4.08 15.91c-.83 2.58-1.74 5.11-2.7 7.61a18.86 18.86 0 0 0-1.32 3.88c-.19 1.18-.14 2.53-.22 3.75 0 .36.3.57.5.4a10 10 0 0 0 3.48-4.2c.82-2 1.57-4 2.29-6.12 1.43-4.17 2.69-8.48 3.75-12.86a98.66 98.66 0 0 0 2.34-13.16c.46-4.53.63-9.11.8-13.68.09-2.56.15-5.12.12-7.69-.02-2.28.08-4.86-.64-7Z" class="color779d86 svgShape"/><path fill="#9d8577" d="M989 259.77c-.1-.46-.66-.53-.73 0a63.29 63.29 0 0 0-.21 7.16q0 3.66-.21 7.29a133 133 0 0 1-1.6 14.84 231.84 231.84 0 0 1-6.25 28.32q-1.11 3.69-2.39 7.29a26.11 26.11 0 0 0-1.39 7.91c0 .37.32.65.54.43a13.59 13.59 0 0 0 3.5-4.93c.84-2.22 1.57-4.55 2.28-6.86 1.46-4.74 2.77-9.57 3.79-14.53 2-9.82 2.72-19.88 3.12-30 .12-2.79.16-5.58.15-8.37a44.65 44.65 0 0 0-.6-8.55ZM961.87 346.94c-.81-2.05-1.85-3.95-2.77-5.89s-1.9-3.92-2.84-5.88a172.62 172.62 0 0 1-5.17-12c-3.29-8.49-6-17.38-8.58-26.35-1.39-4.84-2.52-10.12-4.46-14.58-.08-.16-.28-.11-.28.11-.12 4.67.48 7.17.88 13.88a69.29 69.29 0 0 0 2.93 14.51c2.63 9 8.31 16.87 12.23 24.95 2.08 4.28 4.58 8.85 7.68 11.77.24.24.51-.2.38-.52Z" class="color779d86 svgShape"/><path fill="#9d8577" d="M964.16 339.92a42.1 42.1 0 0 1-7.23-9.31 60.33 60.33 0 0 1-5.45-11.89 147.79 147.79 0 0 1-4.12-15c-1.17-5.12-2.34-10.28-3.23-15.52-.51-3-.94-6.05-1.21-9.11-.13-1.43-.21-2.86-.27-4.3-.07-1.63-.28-3.28-.33-4.89 0-.18-.22-.25-.25-.05-.15 1.21-.4 2.27-.45 3.5-.06 1.53 0 3.06 0 4.59.11 2.77.34 5.53.69 8.26.7 5.61 1.77 11.12 2.94 16.57 2.18 10.16 4.72 20.34 9.57 28.67a23.67 23.67 0 0 0 9.11 9.15c.32.2.48-.45.23-.67ZM999.79 280.78a115.19 115.19 0 0 1-6 25.68 87.93 87.93 0 0 1-7.44 15.1 227.09 227.09 0 0 0 4.77-27.63 152.49 152.49 0 0 0 1-18.39c0-.16-.18-.21-.21 0-1.3 10.18-2.82 19.76-4.78 29.76-1.41 7.23-9.51 27.6-11.86 29.72a74.55 74.55 0 0 0 5.47-12.27 107.43 107.43 0 0 0 3.46-14.6 130.67 130.67 0 0 0 1.39-30.44c-.2-2.7-.51-5.38-.89-8-.42-3-1.18-5.65-1.84-8.5-.06-.23-.3-.14-.27.1.39 2.43.53 5 .77 7.49s.46 4.94.6 7.43a139 139 0 0 1 0 14.72c-.55 9.87-3.62 19.49-6.14 28.73-1.43 5.25-1.41 10.68-3.34 15.62a.4.4 0 0 0 0 .39c-.56.48-1.11 1-1.68 1.42-.29.24 0 .82.27.63a45.86 45.86 0 0 0 8.23-6.84c-.48 1.61-1 3.22-1.46 4.81-1.43 4.44-2.71 10.11-5.65 13.06-.3.31-.11.91.25.82 3.19-.74 5.08-4.81 6.37-8.57 1.62-4.73 3-9.61 4.31-14.55a73.46 73.46 0 0 0 13.27-30 69.37 69.37 0 0 0 1.58-15.6c.03-.23-.16-.29-.18-.09Z" class="color779d86 svgShape"/><path fill="#9d8577" d="M953.36 304.46c-2.2-10.31-4.61-21.61-5.13-32.34-.15-2.95-.2-5.91-.24-8.88s.14-5.86-.17-8.74c-.05-.54-.62-.45-.72 0a45.39 45.39 0 0 0-.7 7.67c-.1 2.69-.11 5.38-.07 8.07.08 5.42.45 10.81 1 16.17a170.91 170.91 0 0 0 6.15 31.18 81.38 81.38 0 0 0 6.52 15.84c.14.26.42.14.42-.25-.01-9.18-4.91-18.64-7.06-28.72Z" class="color779d86 svgShape"/><path fill="#e6996b" d="M990.08 355.16c-.15-.51-.36-1-.53-1.51 9.47-11.17 7-33.66 7-33.66-6.14-7-51-4.15-55.61 0 0 4.23-.57 26 10 35.14a2.75 2.75 0 0 0 .28.19l-.26.52a13.42 13.42 0 0 0-.65 1.71l.39-1.13-.78 2.22a7.17 7.17 0 0 0-.6 2.58c0 .31 0 .62.05.93.07 1.41.9 2.57 2.09 2.59h.75a4.37 4.37 0 0 0 2.19-.89 12.41 12.41 0 0 0 1.81-1.17l1.68-1.46a18.21 18.21 0 0 0 1.48-1.45 33.72 33.72 0 0 0 21.59-.4v.07-.07a18.44 18.44 0 0 0 2.09 2.86 24.39 24.39 0 0 0 1.87 1.93l.51.43a5.28 5.28 0 0 0 2.17.76 2.34 2.34 0 0 0 .68-.17 2.78 2.78 0 0 0 .78-.41 2.69 2.69 0 0 0 .56-.46 2.65 2.65 0 0 0 .35-.57l.09-.13a3.85 3.85 0 0 0 .19-.47 4.08 4.08 0 0 0 .39-.9 12.67 12.67 0 0 0 .16-1.63 21.42 21.42 0 0 0-.73-5.45Z" class="colore66c6b svgShape"/><path fill="#e0d1c8" d="m1052.26 234.6-176.21-20.63.22-27.53 176.21 19.59-.22 28.57z" class="colore0cfc8 svgShape"/><path fill="#e6996b" d="M920.83 204.89c.17 4.6-3.71 8.48-8.67 8.66s-9.13-3.39-9.3-8 3.71-8.48 8.68-8.66 9.12 3.4 9.29 8Z" class="colore66c6b svgShape"/><ellipse cx="958.41" cy="210.74" fill="#f7f1ed" rx="8.29" ry="7.68" transform="rotate(-2.13 960.638 211.31)" class="colorf7efed svgShape"/><path fill="#bb947d" d="M1023 216c.15 4-3.27 7.47-7.65 7.63s-8-3-8.19-7a7.65 7.65 0 0 1 7.65-7.64c4.41-.18 8.08 3.01 8.19 7.01Z" class="color7da0bb svgShape"/><path fill="#6e665d" d="M592.07 125.57c4.2 2.12 16.12 1.21 17.71-2.35s5-17.11 1-22.23-5.8-11.82-9.65-7.57-21.13 26.06-9.06 32.15Z" class="color6e5d63 svgShape"/><path fill="#fdb58a" d="M611.5 150.9s24.21 7.1 30.19 24.1c5.74 16.32 13.41 111.35 8.22 122-6.32 12.95-13.44 20-18.42 9.77-5.4-11-10.52-48.46-12.36-59.58-3.55-21.38-7.63-96.29-7.63-96.29ZM678.42 428.36c-1.93-.53-2.87-2-1.38-2.53s10.79-4 11.06-2.47-1.35 4.19-2.88 4.81-5.95.43-6.8.19ZM675.17 413.26s4.34 6.43 7.65 8 4.1 1 3.91 0c-.36-1.91-3.36-8.14-4.12-9.73s-1.45-10.21-4.64-8.83-5.69 2.88-2.8 10.56Z" class="colorfda68a svgShape"/><path fill="#d17705" d="M531.49 674.63c-.12.72-2.28 7.65-2.33 10.51s3.94 4.81 7.65 5.25c6.36.75 17.67-9.11 20.63-15S561.76 654.2 562 651c.44-5.4.54-13.67.54-13.67s-14.34-.55-15 2-16.05 35.3-16.05 35.3Z" class="colorc57d3b svgShape"/><path fill="#fdb58a" d="M451.05 187c-.38-.7-1.24-10.65-2-19-.4-4.28 8.59-14 9.73-11.79s-2.45 7.12-.65 13.12c2.19 7.27 6.36 10.91 5.43 5.08-3.23-20.18 6.79 1.92 6.82 1.91a13.14 13.14 0 0 1 1.77 6.92c-1.06 14.84 11.17 29.06 22.45 39.08s39.9 39.3 37.26 55.57c-4.37 26.89-26.9-5.83-38.38-18.6s-24.24-39.19-30.92-56.71c-1.07-2.71-10.88-14.37-11.51-15.58ZM529 327.45a212.77 212.77 0 0 0-7 54.35c-.19 20.93-2.58 52.51 0 75 4.88 41.91 23.46 39.4 33.41 5.8 1.8-6.08 12.21-35.43 19.56-66.34 4.6-19.34 8.5-39.08 9.78-53.51.27-3 .42-5.83.44-8.34.16-20.49-28-37.25-44.71-22.73-4.15 3.63-9.34 7.83-11.48 15.77Z" class="colorfda68a svgShape"/><path fill="#fdb58a" d="M549 632.75s-2.95-18.1-8.37-61.41c-5.1-40.92-16.51-93.14-13.43-114.34s35.07-10.52 36.85 30c.78 17.73-1.42 146.47-1.42 154.2 0 19.19-13.63-8.45-13.63-8.45ZM585.49 425.71c.25 6.86.47 14.09.56 21.59.8 67.56 5.19 84.5 12 91.54 5.17 5.36 21.17-27.6 27.67-50 1.36-4.66 7.55-35 11.83-64.69 2.73-19 4.43-36 3.57-51.15-1.8-32-11.08-52.76-11.08-52.76s-12.92 25.41-20.53 28.76c-10.76 4.73-20.4 4.13-23.65 16.44a47.57 47.57 0 0 0-1.1 5.9c-1.52 12.42-.16 31.44.73 54.37Z" class="colorfda68a svgShape"/><path fill="#fdb58a" d="M612.94 594.74c-3.63 25.65-8.25 42.84-11.08 69.65-1.08 10.21-9.77 5.93-13.1-13.59-1.11-6.52-3.3-83.5-2.7-114.29 1-52.94 27.92-95.95 34.72-55.09s-2.78 77.93-7.84 113.32Z" class="colorfda68a svgShape"/><path fill="#f7b68f" d="M521 369.92a18.29 18.29 0 0 0 .32 2.43c4.34 22.41 43.88 16.49 49.5 3.69a14.09 14.09 0 0 1 3.35-5c3.61-3.17 8-1.13 12.83 3.54a89.83 89.83 0 0 1 8.6 10.05c9.83 12.91 48.07-2.34 45.59-23.25a140.69 140.69 0 0 0-6.4-28.12c-3.14-9.51-7.06-18.73-11.26-28.46-8.11-18.83-8.63-43.64-1.06-64.54 1.54-4.23 21.19-65.63 9.18-77.09-6.76-6.44-27.85-13.08-36.26-26.63-6.73-10.85-2-29.11-1.47-31.53 2.18-10.1-29.12-5.69-27.12 7.41 1.37 8.89 1.37 21.79-.05 26.77-.57 2-4.69 10.47-20.83 16.75s-16.11 15.72-16.67 22.35c-1.64 19.48 6.15 41.14 10.53 59.92s11 45.51-.24 62.18-20.39 44.32-18.54 69.53Z" class="colorf7a18f svgShape"/><path fill="#e09a70" d="M594.54 112.59s-3 10.55-7.22 16.66c-6.42 9.28-17.79 10.27-20 0s27.22-16.66 27.22-16.66Z" class="colore08970 svgShape"/><path fill="#fdb58a" d="M555.06 151.48s-27.68 4.43-32 30.6c-2.73 16.48-12.38 88.45-7.19 98.27 13.17 24.93 25.18-18.8 28.73-38.57s1.67-53.84 3.48-66.36a100.8 100.8 0 0 1 6.98-23.94Z" class="colorfda68a svgShape"/><path fill="#fbb890" d="M601.83 103.61c-1.61 4.77-4.8 8.5-8.32 12.23-1.31 1.39-2.68 2.79-4 4.25-3 3.28-18.92 19-27.49 5.78-5.88-9-9-18.79-8.47-27.85.11-1.66 1.56-3.94 1.69-5.87.16-2.43.21-5.29.39-8.16v-.13a38.21 38.21 0 0 1 1.73-10.35c2.43-6.74 7.59-11.39 12.44-13.09 10-3.54 25.61-3.57 31.82 11.64 4.03 9.86 2.38 25.28.21 31.55Z" class="colorffa994 svgShape"/><path fill="#4e473f" d="M577.29 96.24c-.31 1.27.06 2.46.82 2.65s1.62-.67 1.93-1.94-.06-2.46-.82-2.66-1.62.71-1.93 1.95ZM560.61 93.3c-.11 1.3.44 2.42 1.22 2.49s1.49-.94 1.6-2.24-.44-2.42-1.22-2.49-1.5.94-1.6 2.24Z" class="color473f4e svgShape"/><path fill="#e09a70" d="M571.67 108a5.18 5.18 0 0 1-4.13.56 1.94 1.94 0 0 1-1.45-1.56c0-.77.66-1.68 1-2.36a20.79 20.79 0 0 0 1.45-4.44 15.08 15.08 0 0 0 .26-2.23 10.26 10.26 0 0 0 0-1.24 3.09 3.09 0 0 0-.28-1c0-.07-.15-.08-.16 0a7.67 7.67 0 0 0-.07 1.27 13.91 13.91 0 0 1-.06 1.58 15.45 15.45 0 0 1-.56 2.85 19.88 19.88 0 0 1-1 2.67 12.62 12.62 0 0 0-1.13 2.52c-.29 1.41 1.05 2.42 2.2 2.74a4 4 0 0 0 4.1-1.14.13.13 0 0 0-.17-.22Z" class="colore08970 svgShape"/><path fill="#6e665d" d="M566.32 86.35a2 2 0 0 0-1.1-.88c-.43-.2-.88-.37-1.32-.53a10.82 10.82 0 0 0-2.79-.62 4.65 4.65 0 0 0-2.66.35 1.53 1.53 0 0 0-.63 1.89.14.14 0 0 0 .27 0c.11-.28.33-.24.59-.29s.57-.16.87-.22a6.38 6.38 0 0 1 2.18 0 21.87 21.87 0 0 1 2.28.45 3.24 3.24 0 0 0 2.25.11.21.21 0 0 0 .06-.26ZM585.73 91.42a2.65 2.65 0 0 0-.28-.79 4.92 4.92 0 0 0-1.21-1.2 11 11 0 0 0-3-1.69 7.16 7.16 0 0 0-6.32.36.18.18 0 0 0 .11.33 16.69 16.69 0 0 1 5.82.91 9.86 9.86 0 0 1 2.51 1.51 7.86 7.86 0 0 0 1.16 1 6.61 6.61 0 0 0 1.09.5c.16.05.27-.1.27-.24a3.19 3.19 0 0 0-.15-.69Z" class="color6e5d63 svgShape"/><path fill="#f2e7e1" d="M574 116.14c-2.56-.19-11.13-1.34-10.8 0s2.13 4.24 3.84 4.13c4.83-.27 10.16-3.89 6.96-4.13Z" class="colorf2e7e1 svgShape"/><path fill="#fdb58a" d="M532.68 686c8.13 1.77 22.58-11.32 24.52-14.6s8.35-41.46 3.84-44.63-12.14 8.56-17.27 20.23-19.3 37.18-11.09 39Z" class="colorfda68a svgShape"/><path fill="#f7f1ed" d="M547.36 639.56s-5.86 11.81-6.77 19.38a6.66 6.66 0 0 0 2.49 6c13.68 8.36 19.48-27.62 19.48-27.62s-.64 24.74-5.4 35c-3.71 8-15.94 17.09-23.51 14.78-4.85-1.48-4.63-6.65-1.44-14.46s15.15-33.08 15.15-33.08Z" class="colorf7efed svgShape"/><path fill="#d17705" d="M618.39 697.2c.12.8 2.18 8.56 2.22 11.75s-3.77 5.35-7.31 5.8c-6.07.78-16.87-10.32-19.69-16.88s-4.1-23.73-4.35-27.3c-.42-6-.5-15.26-.5-15.26s13.7-.5 14.33 2.31 15.3 39.58 15.3 39.58Z" class="colorc57d3b svgShape"/><path fill="#fdb58a" d="M617.25 709.86c-7.77 1.91-21.56-12.83-23.41-16.5s-7.93-46.37-3.62-49.86 11.59 9.68 16.47 22.76 18.4 41.67 10.56 43.6Z" class="colorfda68a svgShape"/><path fill="#f7f1ed" d="M603.27 657.92s5.59 13.22 6.45 21.69c.33 3.28-1.33 6-2.39 6.7-13.07 9.22-18.57-31-18.57-31s.58 27.62 5.13 39.15c3.53 9 15.2 19.22 22.43 16.7 4.63-1.61 4.43-7.38 1.39-16.13s-14.44-37.11-14.44-37.11Z" class="colorf7efed svgShape"/><path fill="#fdb58a" d="M674.88 419.06c-.44-1.89.46-3.4 1.64-2.39s8.8 7.21 7.57 8.16-4.45.88-5.75-.11-3.26-4.83-3.46-5.66Z" class="colorfda68a svgShape"/><path fill="#fdb58a" d="M670.69 416.35c.09-1.91 1.42-3.26 2.29-2.12s6.62 8.2 5.15 9-4.65.27-5.65-.87-1.84-5.18-1.79-6.01Z" class="colorfda68a svgShape"/><path fill="#fdb58a" d="M667.94 414.82c.28-1.18.89-1.17 1.91-.75s4 6.23 2.29 7.21c-.95.53-2.93-1.27-3.54-2.24a9.25 9.25 0 0 1-.66-4.22Z" class="colorfda68a svgShape"/><path fill="#e09a70" d="M677 422.78c-.12-.25-.25-.5-.36-.75-.26-.55-.49-1.11-.71-1.67s-.37-1-.53-1.57a6.09 6.09 0 0 1-.22-.81 6.45 6.45 0 0 1-.06-1s-.06-.05-.07 0a2.24 2.24 0 0 0 .07 1.57c.16.57.35 1.14.56 1.69s.4 1.05.63 1.56c.13.29.26.58.4.87a2.06 2.06 0 0 0 .44.72s.08 0 .08 0a1.8 1.8 0 0 0-.23-.61ZM671.86 420.76c-.06-.24-.12-.48-.17-.72-.12-.55-.24-1.1-.33-1.65s-.17-1.12-.21-1.69v-.8a4.57 4.57 0 0 0 0-.74s-.05 0-.06 0a2.65 2.65 0 0 0-.06.74 8.42 8.42 0 0 0 0 .87c0 .52.09 1 .17 1.55s.2 1.1.32 1.65c.06.28.12.56.19.85a2.25 2.25 0 0 0 .23.72h.09a2.45 2.45 0 0 0-.17-.78ZM684.32 424.69a1.11 1.11 0 0 0-.57 0l-.73.09c-.48.06-1 .1-1.45.13a12.8 12.8 0 0 1-2.9-.21c-.11 0-.16.13 0 .16a8.61 8.61 0 0 0 3 .26c.5 0 1-.07 1.51-.13l.67-.09a1.21 1.21 0 0 0 .6-.15s-.09-.05-.13-.06ZM682.18 421.73c-.32-.25-.63-.51-.94-.78-.6-.52-1.17-1.06-1.75-1.6a23.81 23.81 0 0 0-3.58-3.06s-.11 0-.07.09c1.22 1.05 2.42 2.09 3.59 3.2.57.54 1.15 1.08 1.75 1.6l.93.78a3.37 3.37 0 0 0 .84.57c.06 0 .13 0 .09-.1a4.46 4.46 0 0 0-.86-.7Z" class="colore08970 svgShape"/><path fill="#e8c7b3" d="M545.45 282.79s18.58 10.95 38.62 7.93 34.41-3.7 34.41-3.7l2.36 10.23s17.26 33.35 20.51 59.33-5.21 108.15-7 121.44-6.76 14.5-4.29 18.13 3.51 4.23 1.18 6-1.23-3-1.18 4.83-14.17 150.45-17.33 152.26c-1.44.83-7.71 6-14 4.58-7.55-1.68-15.36-10.19-17.61-11.83-4.14-3 1.69-147.91 3-164 1.23-15 .09-101-.65-113.5-.13-2.22-1.7-3-3.32 2-1.72 5.23-13.45 63.14-15.88 69.77-1.47 4-2.91 6.27-1.19 7 4.63 1.85 5.29.15 3.63 4.23s-3.65 0-2.44 6 6.67 35.64 6.67 50.14 1.81 120.47 0 123.67c-.61 1.07-12.57 12.81-22.06 15.45-7.77 2.16-13.37-4.58-14.13-4.82-4.3-1.38-15.17-168.48-17.59-176.77s-5-115.83 9.57-148.46 17-23 15.81-27.79 2.91-12.12 2.91-12.12Z" class="colorb3d5e8 svgShape"/><path fill="#e6996b" d="M562 146.13s3.39 5.53 12.78 6 25.39-9.7 25.39-9.7 7.9 5 16 9.82c5.58 3.31 12.21 5.82 12.54 9.51.81 9.07-1.06 62.33-5.59 70.74s-4.64 54.5-4.64 54.5-28.11 7.32-46.61 6-26.42-10.2-26.42-10.2.93-26.72-4.19-38.39-8.29-41.59-2.85-55.19.6-31.28 2-32.1c1.06-.6 11.22-6.32 17.28-9 2.16-.92 3.78-2.57 4.31-1.99Z" class="colore66c6b svgShape"/><path fill="#967866" d="M609.14 300.93c-4.45-1-8.87.47-13.22 1.33a91.51 91.51 0 0 1-14.29 1.74c-8.8.35-18.07-.31-26.51-2.95a25.23 25.23 0 0 1-11.18-6.6l1.23-1c.44-.36-.19-1-.63-.63l-1.54 1.23a.44.44 0 0 0 0 .63c5.34 6.05 13.64 8.08 21.32 9.21a93.41 93.41 0 0 0 28.13-.11c2.64-.41 5.23-1 7.84-1.56a19.68 19.68 0 0 1 8.63-.43c.54.12.77-.73.22-.86Z" class="color668596 svgShape"/><path fill="#f9f6f4" d="M650.82 417.52c-1.46 2.74-15.3 13.79-30.86 20.32-16.78 7.05-35.41 9.53-38.46 10.42-5.91 1.74-9.08-106.46-10.5-118.57-3-26.71 4.94-80.53 5.13-112.6 0-2.11 0-4.05.13-5.79a1.09 1.09 0 0 1 0-.17v-.61a40.39 40.39 0 0 1 .65-6 .3.3 0 0 1 0-.13c.06-.23.11-.46.16-.65 2.84-10.54 16.44-32.92 22.7-47.8 2.9-6.85 1.69-12.13 1.52-12.52a106.61 106.61 0 0 0 14.69 9.52c3.81 2.11 8.14 4.39 12.83 6.6 5.77 2.72-.85 113.51-2.17 129.23s10.07 36 12.5 44.44 14.7 78.65 11.68 84.31Z" class="colorf9f5f4 svgShape"/><path fill="#fdb58a" d="M646.93 285.88c5.58 6.87 10 4.87 21 44.56 5.72 20.74 12.93 53 18.18 67.74 1.75 4.9 5.52 8.76 5.7 9.12 2.87 5.57 4.84 8.94 4 12.11-1 3.85-5.08 6.09-10.56 8.76-5.74 2.79-8.39-13.6-8.39-13.6s-5.21-3.17-1.94-9.9c1.94-4-28.62-59.22-37.84-77.6-3.6-7.18-8.76-21.4-7.34-29.29 2.18-12.31 13.34-16.64 17.19-11.9Z" class="colorfda68a svgShape"/><path fill="#f9f6f4" d="M568.68 343.63c1.11 22.45 2.41 104.46-1.42 103.56-2.22-.54-25.52-19.82-41-26.26-11-4.6-18.78 3.69-18.76 2.06 0-3.92 13.2-104.41 19.4-116.75s-1.9-7.93 1-13.08 4.52-3.8 6.08-7.42a4.36 4.36 0 0 0-.37-4c-.74-1.58-1.67-3.21-.55-5.79 2-4.54-3.18-58.64 1.56-77.33 3.89-15.4-4.47-26.64-5.16-32.12a2.8 2.8 0 0 1 .76-2.7 57.22 57.22 0 0 1 8.89-6.69c2.77-1.65 5.77-3.2 8.38-4.49 3.78-1.87 6.75-3.18 7-3.28s.64.83 1.31 2.43c2.51 5.87 7.51 21.24 7.51 32.9 0 10.6-2.5 20.66-3.9 32.16a115.52 115.52 0 0 0-1 14.48c-.06 18.17 9.12 89.3 10.27 112.32ZM670.27 400.38c2.57 2.39 17.86-5.44 17.86-5.44s-19.13-85.81-25.41-91.53-7.4-12.18-4.68-13.82 1.36-3.24-.91-5.59-4.3.83-1.92-5.52-8.46-92.11-13.86-105.13-25.15-21.14-25.15-21.14 1.21 72.8 0 84.13 10.75 51.82 10.5 56.81 6.52 28.46 7.32 34.27 31.64 68.67 36.25 72.96Z" class="colorf9f5f4 svgShape"/><path fill="#f9f6f4" d="M473.61 194.26c-.17.36-2.49 11.72-12.69 14.44-1.77.47 29.61 49.39 33.23 54.23s26.28 29.64 28.4 30.22 5.74-5 7-4.93 4.29-7.77 6.07-9.89 5.1-86.09 3.29-96.37-6.05-20.91-7.71-19-10.36 9.75-10.36 30.6c0 14.65-5.89 22.38-6.39 47.12-.12 3.6-38.73-51.05-40.84-46.42Z" class="colorf9f5f4 svgShape"/><path fill="#d1c6bf" d="M534.39 203.62a67.1 67.1 0 0 1 2.69-10.05c1.17-3.43 2.58-6.76 3.58-10.24.05-.15-.18-.25-.25-.11a74.53 74.53 0 0 0-6.21 17.33 55.07 55.07 0 0 0-1 18c1.2 12.1 5.09 23.88 5 36.1a56.77 56.77 0 0 1-1.2 10.58 86.31 86.31 0 0 1-3 10.31c-.12.36.46.61.62.26a50.1 50.1 0 0 0 4.2-17.42 75.08 75.08 0 0 0-1.18-18.08c-2-12.12-5.43-24.3-3.25-36.68ZM635.69 306.6l-1.47-15.89q-1.46-16-3-32l-3-31.75a209.55 209.55 0 0 1-1.31-27.54 81.17 81.17 0 0 1 1.86-15.06 59.84 59.84 0 0 1 2.08-7.08c.92-2.55 2.1-5 3.17-7.45a.23.23 0 0 0-.4-.23 40.65 40.65 0 0 0-5.2 12.4 74.7 74.7 0 0 0-2.24 12.94c-.83 9.3-.25 18.64.57 27.92 1.87 21.24 4 42.47 6 63.69q.87 9.06 1.75 18.1c.57 6 1 12 2 17.94 0 .23.42.17.41-.06-.12-5.35-.73-10.64-1.22-15.93Z" class="colord1c2bf svgShape"/><path fill="#ba937b" d="M616.9 212.17a1.44 1.44 0 0 0-1.43-1.43c-1.78.19-3.52.52-5.31.63s-3.43.07-5.15 0a48.59 48.59 0 0 1-5.11-.38 22.56 22.56 0 0 0-5.17-.46c-.12 0-.21.17-.11.26a11 11 0 0 0 4.63 2.18 39.5 39.5 0 0 0 5.39 1.06 30.86 30.86 0 0 0 11.21-.52 1.38 1.38 0 0 0 1.05-1.34Z" class="color7b9eba svgShape"/><path fill="#d1c6bf" d="M592.12 261.53a8.37 8.37 0 0 0-.79-.53c-.33-.22-.62-.46-1-.65a3.63 3.63 0 0 0-1.35-.47l-1.18-.13-2.19-.24c-.39 0-.79-.1-1.18-.12a10 10 0 0 0-1.18.08 1.3 1.3 0 0 0-1.24 1.1A1.27 1.27 0 0 0 583 262a7 7 0 0 0 1.12.36c.46.1.93.14 1.4.2l2.19.29 1.1.14a3.27 3.27 0 0 0 1.28-.13c.39-.1.74-.27 1.11-.4s.61-.19.9-.33a.36.36 0 0 0 .02-.6ZM593.35 288.83l-.5-.26c.11.1.08.08-.1-.07h-.13a2.38 2.38 0 0 0-2.2-.64c-.61.05-1.22.07-1.83.08s-1.22 0-1.83.08l-.87.07a2.66 2.66 0 0 0-1 .24 1.19 1.19 0 0 0-.48.16h-.27a.66.66 0 0 0-.18 1.28 1.78 1.78 0 0 1 .29.12 1.67 1.67 0 0 0 .43.25 3.92 3.92 0 0 0 1.7.58 13.54 13.54 0 0 0 2.2.21h1.92a2.45 2.45 0 0 0 2.22-1 .78.78 0 0 0 .15-.1c.14-.19.16-.22.08-.08l.42-.39a.3.3 0 0 0-.02-.53ZM592 321.83a2.17 2.17 0 0 0-.77-.46 3.19 3.19 0 0 0-.62-.08l-.61-.07c-.4 0-.79-.05-1.18-.05a9.06 9.06 0 0 0-1.47.16 3.4 3.4 0 0 0-.82.26l.14-.07-.25.1-.41.2a1.22 1.22 0 0 0 .29 2.21 2 2 0 0 0 .73.12h-.17l.37.05h.26c.32 0 .65 0 1 .06.59.05 1.18.07 1.77.14a1.92 1.92 0 0 0 1.09 0 1.61 1.61 0 0 0 1.07-1.07 1.52 1.52 0 0 0-.42-1.5Z" class="colord1c2bf svgShape"/><path fill="#efe3dc" d="M585 362.53Z" class="colorefdfdc svgShape"/><path fill="#d1c6bf" d="M592.2 363a.32.32 0 0 0-.11-.42l-.07-.11c-.42-.64.73-.11 0 0-.48.07-2.71-.5-3.18-.41l-.32.05-.72.08c-.46 0-.93.08-1.38.11h-.66a2.16 2.16 0 0 0-.71.16.89.89 0 0 0-.9.17.92.92 0 0 0-.14 1.06 1.65 1.65 0 0 0 .61.67c-.07 0 0 0 .05.07l.24.19a2.7 2.7 0 0 0 .66.27 6.68 6.68 0 0 0 1.93.33 9.4 9.4 0 0 0 4-.66 1.5 1.5 0 0 0 .77-1.35Z" class="colord1c2bf svgShape"/><path fill="#c4a795" d="m556.49 262.73-.18-.41a1.2 1.2 0 0 0-.44-.48.78.78 0 0 0-.37-.22 1.26 1.26 0 0 0-.66-.15l-.45.06a1.77 1.77 0 0 0-.76.44l-.06.09-.05.05a1.29 1.29 0 0 0-.36.56.92.92 0 0 0-.09.23 1.17 1.17 0 0 0 0 .37V263.58a1.28 1.28 0 0 0 0 .34l.16.38a1.16 1.16 0 0 0 .41.44.78.78 0 0 0 .35.21 1.12 1.12 0 0 0 .6.13l.42-.05s.06 0 .09-.05h.08a1.78 1.78 0 0 0 .78-.46 3.52 3.52 0 0 0 .36-.5 1.25 1.25 0 0 0 .21-.63 1.31 1.31 0 0 0-.04-.66ZM559.59 288.06v-.12a1.87 1.87 0 0 0 .14-.62 1.66 1.66 0 0 0-.23-.82.61.61 0 0 0 0-.14.92.92 0 0 0-.14-.39.36.36 0 0 0-.38-.18.34.34 0 0 0-.2.09h-.07a1.2 1.2 0 0 0-.62-.14l-.44.06a1.56 1.56 0 0 0-.72.42h-.06a2.08 2.08 0 0 0-.15.2 1.17 1.17 0 0 0-.14.19v.06a1.82 1.82 0 0 0-.24.88.22.22 0 0 0 0 .08 4.1 4.1 0 0 0 .06.49 3.49 3.49 0 0 0 .22.53l.25.33a1.25 1.25 0 0 0 .52.33.84.84 0 0 0 .41.11 1.16 1.16 0 0 0 .64 0l.39-.16.33-.25a1.25 1.25 0 0 0 .33-.52 1.3 1.3 0 0 0 .09-.39ZM560.26 321.29a1.23 1.23 0 0 0-.27-.52.83.83 0 0 0-.28-.28 1.18 1.18 0 0 0-.53-.28.41.41 0 0 0-.22 0 1.13 1.13 0 0 0-.63 0 3.56 3.56 0 0 0-.41.17l-.13.07a1.56 1.56 0 0 0-.57.57c-.06.13-.11.25-.16.38a1.54 1.54 0 0 0 0 .85 1.22 1.22 0 0 0 .28.54 1.19 1.19 0 0 0 .45.41 1.15 1.15 0 0 0 .59.19 1.16 1.16 0 0 0 .64 0 1.51 1.51 0 0 0 .7-.41l.11-.1a1.07 1.07 0 0 0 .27-.34l.16-.37a1.67 1.67 0 0 0 .06-.44Z" class="color95b1c4 svgShape"/><path fill="#d1c6bf" d="M576.18 220.49a112.2 112.2 0 0 1 12.32-18.73c5-6.12 11.73-12.47 13.58-14.58 4.76-5.44 12-14 10.49-14.88s-4.83-.61-3-1.66 2.92-.61 4.18-3.33 4.7-14.09 4.7-14.09l-4.7-2.61s-16.52 19.57-17.45 20.93-20.12 48.95-20.12 48.95Z" class="colord1c2bf svgShape"/><path fill="#c4a795" d="M556.78 356.55a.32.32 0 0 0-.35-.46 2.17 2.17 0 0 0-.42.17h-.08a1.55 1.55 0 0 0-1.77 0 1.58 1.58 0 0 0-.56.56l-.15.37a1.43 1.43 0 0 0 0 .82 1.18 1.18 0 0 0 .28.53 1.11 1.11 0 0 0 .43.4 1.85 1.85 0 0 0 1.2.16 1.62 1.62 0 0 0 .68-.4 1.57 1.57 0 0 0 .43-1.75v-.07c.14-.09.23-.2.31-.33Z" class="color95b1c4 svgShape"/><path fill="#d1c6bf" d="m548.26 152.21-.86.42a30.49 30.49 0 0 0 1 12.79c1 3.09-1.36 11-.45 11s4.22-.11 3.39.6c-.42.36-3.09.91-2.64 1.36s5.34 7.7 6.6 10.87 4.19 26.54 4.19 26.54 1.9-27.29 1.45-28.35S559.86 164 559 164s-10.74-11.79-10.74-11.79Z" class="colord1c2bf svgShape"/><path fill="#fcf8f5" d="M598.37 169.49c-.9.83 9.2 3.55 9.2 3.55s-2.54 8.34-7.69 13.15c-3.16 3-10.33 12.18-15.81 19.35-2.82 3.69-7.89 15-7.89 15s-.1-6.43.12-9.19a1.09 1.09 0 0 1 0-.17v-.61c.14-1.9.35-3.94.65-6a.3.3 0 0 1 0-.13c.06-.23.11-.46.16-.65 2.84-10.54 16.44-32.92 22.7-47.8 2.9-6.85 1.4-10.88 1.22-12.94-.1-2.3 5.94 4 15.36 9.24-1 3.25-7.21 17.28-7.21 17.28s-9.9-.9-10.81-.08ZM563.23 184.68c0 10.6-2.5 20.66-3.9 32.16.05-.78.21-16.93-1-23.71-1.4-8.17-6.94-15-5.73-15.28s6.33-.89 5.87-1.65-8.32-1.65-8.32-1.65a32.93 32.93 0 0 0-1-9.68 42.54 42.54 0 0 1-1.81-12.08.34.34 0 0 1 .07-.18c.73-1.1 6.41-5.27 7-3.28a16.89 16.89 0 0 0 1.31 2.43c2.51 5.89 7.51 21.24 7.51 32.92Z" class="colorfcf6f5 svgShape"/><path fill="#d1c6bf" d="m648.77 293 1.06-.78c1.42-1 2.88-2 4.36-2.94s3-1.81 4.45-2.82c.28-.2.11-.76-.26-.61a34.11 34.11 0 0 0-5.42 2.92 58.89 58.89 0 0 0-5.1 3.49 1.89 1.89 0 0 0-.85 2 2.19 2.19 0 0 0 1.57 1.32 13.35 13.35 0 0 0 2.67.4 7.38 7.38 0 0 0 3.24 0 .23.23 0 0 0 0-.41 5.59 5.59 0 0 0-2.44-.66c-.88-.11-1.78-.17-2.66-.32-.38-.07-1.27-.24-1.33-.74.01-.41.49-.72.71-.85ZM520.17 243.55a16.92 16.92 0 0 0-2.4-1.72 6 6 0 0 0-2.67-1 .26.26 0 0 0-.19.43 13 13 0 0 0 2.18 1.64 23.1 23.1 0 0 1 2.19 1.76 25.77 25.77 0 0 1 1.92 2 9.1 9.1 0 0 0 2 1.84c.17.11.33-.07.3-.23-.25-1.98-1.89-3.52-3.33-4.72ZM517.84 246.64a11.57 11.57 0 0 0-1-1.76 5.33 5.33 0 0 0-.63-.79 1.19 1.19 0 0 0-.33-.26c-.07 0-.14 0-.2-.06s0 0-.09 0-.24 0-.17.13 0 .14 0 .24a.88.88 0 0 0 .11.39 8.53 8.53 0 0 0 .39.87c.3.58.56 1.18.82 1.78.5 1.17 1 2.34 1.46 3.54a.18.18 0 0 0 .35-.05 9.55 9.55 0 0 0-.71-4.03ZM537.83 296.51a17.77 17.77 0 0 0-3.18-.92c-1.14-.27-2.29-.46-3.45-.62a5.84 5.84 0 0 1-1.24-.27c-.35-.12-.64-.34-1-.46a.13.13 0 0 0-.17.09c-.27 1.54 2.85 1.59 3.72 1.75 1 .2 2.07.43 3.08.7.77.21 2.72.41 2.29 1.58a2.56 2.56 0 0 1-1.12 1.11l-1.37.93-2.74 1.87a75.352 75.352 0 0 0-5.36 4c-.11.09 0 .26.15.19 2.17-1.17 4.21-2.47 6.25-3.84l3.14-2.12c.77-.53 1.68-1 2-2a1.62 1.62 0 0 0-1-1.99Z" class="colord1c2bf svgShape"/><path fill="#ba937b" d="M614.37 151.2a.45.45 0 0 0 0 .84 13.11 13.11 0 0 1-1.14 2.87c-.34.81-.69 1.62-1 2.42l-2.25 5.24c-.4.94-.8 1.88-1.21 2.82s-.7 1.9-1.91 2c-1.93.14-3.85.1-5.78.28-.83.08-1.66.18-2.49.29a3.26 3.26 0 0 0-1.74.46c-.82.71-.1 1.67.47 2.25 2 2 4.7 2.87 7.32 3.61-1.29 6.63-6.47 11.46-10.85 16.27A97.47 97.47 0 0 0 581.06 208a101.94 101.94 0 0 0-5.4 11.07c-.22.53.64.76.86.24a96.66 96.66 0 0 1 10.85-19.5 95 95 0 0 1 7-8.64c2.23-2.44 4.56-4.81 6.59-7.43a21.82 21.82 0 0 0 4.59-9.65.46.46 0 0 0-.31-.55 25.7 25.7 0 0 1-4.81-1.7 9.75 9.75 0 0 1-1.9-1.22 3.55 3.55 0 0 1-.92-.89c-.34-.7.15-.77.73-.86a59.22 59.22 0 0 1 5.95-.53c1.27-.06 3.23.32 4.24-.67a5.58 5.58 0 0 0 1-1.82l1.17-2.85 2.24-5.24c.74-1.72 1.69-3.46 2.25-5.24.18-.52.02-1.61-.82-1.32ZM555 179.18a13.6 13.6 0 0 0 3.85-1.06c1-.46 1.88-1 1.23-2.22-1.48-2.72-5.24-2.52-7.88-3.2.57-3.25-.08-6.47-.8-9.66-.83-3.7-1.68-7.41-2.51-11.12-.13-.55-1-.32-.86.24q1.15 5.13 2.32 10.26c.78 3.44 1.66 7 .92 10.5a.44.44 0 0 0 .31.54c2.1.64 4.53.47 6.45 1.65a2.9 2.9 0 0 1 1.14 1c.38.88-.68 1.2-1.37 1.46a13.26 13.26 0 0 1-3.61.79.45.45 0 0 0-.32.76c7.72 9.27 6 22.17 5.64 33.32 0 .57.87.57.89 0 .33-11.16 1.92-23.82-5.4-33.26Z" class="color7b9eba svgShape"/><path fill="#c4a795" d="M630.42 499.91c-2-.27-3.61-2.08-5-3.36s-3.41-2.83-5.43-2.26a1.81 1.81 0 0 0-1.27 2.3c.41 1.26 1.7 1.92 2.61 2.77 2.21 2.07 2.88 5.37 3.48 8.22a56.18 56.18 0 0 1 .93 6.18 40.6 40.6 0 0 0 .63 5.83.2.2 0 0 0 .39 0 17.5 17.5 0 0 0 .18-6 57.1 57.1 0 0 0-.82-6.11c-.59-3.13-1.3-6.65-3.65-9-.54-.54-1.2-.94-1.73-1.48-.28-.29-1-.91-.35-1.24a2 2 0 0 1 1.2.1 8 8 0 0 1 2.94 2c1.67 1.53 3.46 3.42 5.94 2.57.15-.12.21-.43-.05-.52ZM564.35 456c-1.36-1-3.12-.67-4.58-.13a50.91 50.91 0 0 0-4.65 2.24 14.54 14.54 0 0 1-2.44 1c-.28.08-1 .37-1.07 0s.47-1 .64-1.27a46.29 46.29 0 0 1 3.71-5c1.53-1.79 3.25-3.37 4.8-5.14.19-.21 0-.58-.32-.41a25.39 25.39 0 0 0-5 4.55 47.56 47.56 0 0 0-4.18 5.41c-.45.68-1.07 1.56-.73 2.42s1.46.8 2.27.61a26.57 26.57 0 0 0 5.29-2.28 15.31 15.31 0 0 1 3-1.19 16 16 0 0 1 3.08-.34.25.25 0 0 0 .18-.47Z" class="color95b1c4 svgShape"/><path fill="#f5ceb6" d="M505.7 166.77c-1.1 3.21-8.53 3.39-9.73 0V157h9.73Z" class="colorf5d2b6 svgShape"/><path fill="#fb600a" d="M442.26 398.75c0 1.46-2.51 1.65-2.51 0V373h2.51Z" class="colorfff svgShape"/><path fill="#393531" d="M441.4 368.3a.27.27 0 0 0-.43 0 3.61 3.61 0 0 0-.53 2.52c0 1.31.09 2.62.1 3.94v7.61c0 2.54-.05 5.08 0 7.61a66.8 66.8 0 0 0 .21 7.36.11.11 0 0 0 .22 0 66.68 66.68 0 0 0 .36-7.36c.11-2.53.11-5.08.16-7.61s.1-5.07.17-7.61c0-1.32.14-2.63.19-3.94a3.67 3.67 0 0 0-.45-2.52Z" class="color323139 svgShape"/><path fill="#6e665d" d="M439.36 361.06h3.32v10.57h-3.32z" class="color6e5d63 svgShape"/><path fill="#393531" d="M441.81 358.27c0-1.66-.06-3.32-.09-5q-.08-4.82-.17-9.62c-.05-3.21-.12-6.41-.2-9.62s-.2-8.47-.2-8.47l-1.47.08s.28 14.8.31 18 .07 6.41.1 9.62c0 1.66 0 3.32.05 5a5.48 5.48 0 0 0 .62 3.26c.16.2.35.22.5 0a5.46 5.46 0 0 0 .55-3.25Z" class="color323139 svgShape"/><path fill="#e6996b" d="M417.13 162.89a2 2 0 0 1 .86-1.13c.63-.31 11.85-.82 11.85 1.13s-5.81 2-8.71 1.85a5.16 5.16 0 0 1-4-1.85Z" class="colore66c6b svgShape"/><path fill="#f7f1ed" d="M406.74 143.1s1.88 10.82 5.81 12.78 5 3.92 5.44 5.88a22 22 0 0 1 .41 4.33l10 .08a31.17 31.17 0 0 1 .9-5.08c1.15-2.27 1.89-2 6.4-6.51 2.64-2.64 2.79-11.48 2.79-11.48s-31.75-1.43-31.75-.71Z" class="colorf7efed svgShape"/><path fill="#f7f1ed" d="M438.49 142.28c-3 12.22-27.41 14.36-31.75 0v-40.16h31.75Z" class="colorf7efed svgShape"/><path fill="#ba937b" d="M494.48 156.86a2 2 0 0 1 .86-1.13c.63-.31 11.85-.82 11.85 1.13s-5.81 2-8.71 1.86a5.15 5.15 0 0 1-4-1.86Z" class="color7b9eba svgShape"/><path fill="#f7f1ed" d="M484.17 137.47c0-.71 31.67-.4 31.67-.4s-.15 8.84-2.79 11.48c-4.51 4.5-5.25 4.24-6.4 6.52a31.09 31.09 0 0 0-.9 5.07l-10-.07a22.09 22.09 0 0 0-.41-4.34c-.44-2-1.5-3.91-5.43-5.87-5.55-2.77-5.74-12.39-5.74-12.39Z" class="colorf7efed svgShape"/><path fill="#f7f1ed" d="M515.84 137.07c-3 11.23-27.41 13.19-31.74 0V100.2h31.74Z" class="colorf7efed svgShape"/><path fill="#6e665d" d="M512.1 83.91c-7.86-.61-15.9.52-23.76 1S472.79 86.1 465 86.83c-2.42.23-4.83.5-7.25.75h-.24C444.33 89 431.16 90.76 418 93.07c-4.49.79-6.34.52-11 3.28-1.94 1.15-6.14 5.28-4.11 5q5.93-.75 11.83-1.42c7.76-.88 15.52-1.61 23.28-2.42 6.49-.67 13-1.25 19.49-1.78l-.81 594.68c2.66-.58 5.76.37 8.44 0l.4-595.28c6.32-.47 12.92-.89 19.52-1.22 4.5-.22 22.69-3.65 27.16-4.24a2.9 2.9 0 0 0-.1-5.76Z" class="color6e5d63 svgShape"/><path fill="#6e665d" d="M500 105.41c-10.9 0-19.43-5.64-19.43-12.83s8.5-12.84 19.43-12.84 19.42 5.64 19.42 12.84-8.56 12.83-19.42 12.83Zm0-22.67c-8.91 0-16.43 4.5-16.43 9.84s7.52 9.83 16.43 9.83 16.42-4.5 16.42-9.83-7.55-9.84-16.42-9.84ZM422.62 115.69c-10.71 0-19.43-6.09-19.43-13.57s8.72-13.57 19.43-13.57S442 94.64 442 102.12s-8.67 13.57-19.38 13.57Zm0-24.14c-9.06 0-16.43 4.74-16.43 10.57s7.37 10.57 16.43 10.57S439 108 439 102.12s-7.33-10.57-16.38-10.57Z" class="color6e5d63 svgShape"/><path fill="#f7f1ed" d="M437.92 102.12c-1.85 5.07-9.13 8.18-16.08 8.22-6.57 0-13.66-2.84-15.1-7.8V76.77c4.8-8.16 26.48-8.16 31.18 0ZM515.84 93.42c-2.81 9.12-26.6 10.49-31.74 1.37V70.3c4.88-8.16 26.95-8.16 31.74 0Z" class="colorf7efed svgShape"/><path fill="#ba937b" d="M507.19 162.06c-1.4 3.2-10.91 2.8-12.71 0v-5.2c2.42 2.88 10.73 2.3 12.71 0Z" class="color7b9eba svgShape"/><path fill="#6e665d" d="m498.61 314.16-67.1 13.55-.57-7.55 67.09-13.55.58 7.55z" class="color6e5d63 svgShape"/><path fill="#393531" d="M448.74 412c-.67-9.11-1.75-18.1-2-27.29s.13-18.29.52-27.41c.37-8.89.87-17.83.8-26.75-.05-7.16-1.06-15.86-3.05-18.7a1.57 1.57 0 0 0-2.49-.49c-1.74 1.82-2.57 7-2.57 7l1.88-.38s.68-3.46 1.91-3.16 2.67 9.48 2.72 15.73c.06 7.39-.28 14.8-.59 22.17-.63 15.2-1.22 30.32.08 45.47.65 7.61 1.57 15.19 1.68 22.89a83.78 83.78 0 0 1-2.55 21.8c-.84 3.3-1.85 6.49-2.95 9.57a41 41 0 0 1-3.4 8c-3.87 6-8.66-.42-10.43-6.53-1.84-6.39-2.76-13.94-3.49-20.86-.77-7.38-1.16-14.87-1.31-22.35-.3-14.74.31-29.47.86-44.18.56-15 1-29.89.63-44.87-.38-15.51-1.28-31-1.81-46.47-1.18-35.19-1.18-70.47-.53-105.68 0-1.1-1-1.09-1 0-1 33.1-.9 66.32.12 99.42.51 16.54 1.45 33 1.93 49.58.47 16 .07 32-.56 48-.61 15.67-1.29 31.38-.86 47.09.21 7.53.7 15 1.51 22.44.76 6.92 1.65 14.43 3.8 20.6 1.67 4.79 4.66 8.79 8.21 8.42s5.67-6 7.38-10.63a98.86 98.86 0 0 0 5.15-19.57 103.92 103.92 0 0 0 .41-22.86Z" class="color323139 svgShape"/><path fill="#e6996b" d="M438.85 358.69h4.59v6.22h-4.59zM429.84 168.09c-1.4 3.2-10.91 2.8-12.71 0v-5.21c2.42 2.89 10.72 2.31 12.71 0Z" class="colore66c6b svgShape"/><path fill="#f5ceb6" d="M425.13 263.7c-1.06 3-5.65 2.49-6.55 0v-39.2c.82-2.67 5.65-2.67 6.55 0Z" class="colorf5d2b6 svgShape"/><path fill="#dc9d78" d="M420.9 225.71h2.52v14.16h-2.52zM423.67 246.28c0 1.85-.68 3.34-1.52 3.34s-1.51-1.49-1.51-3.34.68-3.34 1.51-3.34 1.52 1.5 1.52 3.34Z" class="colordca878 svgShape"/><path fill="#fdb58a" d="M464.14 166.34c-.77.86-.92 5.08 0 7.18 2.56 5.84-.05 12.24 4.48 15.47 2.5 1.77 3.24-3.78 3.39-5.56s-.48-8.42-2.69-10.73-3.2-8.56-5.18-6.36Z" class="colorfda68a svgShape"/><path fill="#6e665d" d="M424.95 687.67h70.5v8.23h-70.5z" class="color6e5d63 svgShape"/><ellipse cx="428.17" cy="698.53" fill="#6e665d" rx="9.95" ry="11.18" class="color6e5d63 svgShape"/><ellipse cx="493" cy="698.85" fill="#6e665d" rx="9.95" ry="11.18" class="color6e5d63 svgShape"/><path fill="#ddd7d3" d="M618.61 219.71c0 .77 2.28 23.56 1.14 24.69s-24.31-3.07-24.31-3.07-3.07-2.07-2.58-3.13 25.75-18.49 25.75-18.49Z" class="colorddd4d3 svgShape"/><path fill="#6e665d" d="m592.86 238.2 25.57 4.17.18-22.66-25.6-.2-.15 18.69z" class="color6e5d63 svgShape"/><path fill="#e0d1c8" d="m595.2 237.15 20.5 2.98.13-16.08-20.52-.16-.11 13.26z" class="colore0cfc8 svgShape"/><path fill="#f7f1ed" d="M598.26 225.59c1.18.12 2.33.33 3.53.39l4 .2c1.32.06 2.65.14 4 .23a15.33 15.33 0 0 1 3.77.47.38.38 0 0 1 0 .74 16.85 16.85 0 0 1-4.08.1l-4-.17-4-.2a10.75 10.75 0 0 1-3.75-.59c-.73-.34-.1-1.31.53-1.17ZM606.24 230.72a8.24 8.24 0 0 1 1.92.08c.66.08 1.31.16 2 .28s1.2.23 1.79.37a6.78 6.78 0 0 1 .88.25 1.18 1.18 0 0 1 .4.17.93.93 0 0 1 .22.27.17.17 0 0 1-.07.25 1.23 1.23 0 0 1-.75.2h-.91l-1.76-.1-1.77-.12a11.06 11.06 0 0 1-1.92-.17.76.76 0 0 1-.58-.73.75.75 0 0 1 .55-.75ZM606.21 234.59a8.25 8.25 0 0 1 1.92.09c.65.07 1.31.15 2 .27s1.2.23 1.79.37a8.84 8.84 0 0 1 .88.25 1.78 1.78 0 0 1 .4.17 1 1 0 0 1 .22.28.17.17 0 0 1-.07.24 1.17 1.17 0 0 1-.75.2h-.91l-1.77-.11-1.77-.12a11.23 11.23 0 0 1-1.92-.17.75.75 0 0 1-.57-.72.74.74 0 0 1 .55-.75ZM597.32 235.47l4.84.51.05-6.52-4.83-.47-.06 6.48z" class="colorf7efed svgShape"/><path fill="#967866" d="M602.65 216.1h4.76v6.1h-4.76z" transform="rotate(-89.54 605.005 219.164)" class="color668596 svgShape"/><path fill="#d1c6bf" d="M603.44 210.52h3.17v7.25h-3.17z" class="colord1c2bf svgShape"/><path fill="#6e665d" d="M617.08 103.61a17.63 17.63 0 0 0-4.86-7.94 16.46 16.46 0 0 0-3.85-2.67 15.73 15.73 0 0 0-4.46-1.28c.45-6.52 0-14-2.27-19.6-6.21-15.21-21.78-15.18-31.82-11.64-4.85 1.7-10 6.35-12.44 13.09a38.21 38.21 0 0 0-1.73 10.35s0 .09 0 .13v.28c0-.27 1.72-7.86 5.34-12 2.88-3.27 7.52-3.59 8.07-3.62 1.71 6.6 6.34 11.94 11.82 16.18 3 3.4 6 6.15 8.29 6.75 1.17.3 2.84 6.17 4 7.31 2 1.9 3.3-.31 3.54 3 .45 6.25-3.17 13.58-3.22 14 3.52-3.73 6.71-7.46 8.32-12.23a50.78 50.78 0 0 0 2.06-11.7 20.63 20.63 0 0 1 7.21 4.42 16.32 16.32 0 0 1 4.62 7.45 12.37 12.37 0 0 1-1.08 9.45 37.88 37.88 0 0 1-5.66 7.44c-.14.15 0 .43.22.29a23.57 23.57 0 0 0 6.86-7.51 13.35 13.35 0 0 0 1.04-9.95Zm-46.56-32.73c1.44 2.2 3.85 5.77 6.58 9.34a32.08 32.08 0 0 1-6.58-9.34Z" class="color6e5d63 svgShape"/><path fill="#fbb890" d="M593.63 96.59c-.19-.78 4.2-7.13 6.14-4.23s-2.34 13.47-3.07 15-2.08 3.91-3.07-.92a28.44 28.44 0 0 1 0-9.85Z" class="colorffa994 svgShape"/></svg>