<svg xmlns="http://www.w3.org/2000/svg" viewBox="0 0 1364 960"><g data-name="Layer 1"><path fill="#f7c1a0" d="M1204.6,592.91q0,16.85-1,33.45a523.46,523.46,0,0,1-7.5,61.18,516.88,516.88,0,0,1-18.43,71.55q-7.72,23.07-17.52,45.15H203.89a518.3,518.3,0,0,1-37.31-124.41q-3.32-19.79-5.11-40.05-2.07-23.16-2.08-46.87a523.23,523.23,0,0,1,18.48-138.27q4.09-14.92,9-29.49a522.86,522.86,0,0,1,995.9,17.9c1,3.39,2,6.8,2.93,10.23A522.39,522.39,0,0,1,1204.6,592.91Z" class="colora0eff7 svgShape"/><path fill="#ffd4ba" d="M1204.6,592.91q0,16.85-1,33.45a523.46,523.46,0,0,1-7.5,61.18,516.88,516.88,0,0,1-18.43,71.55q-7.72,23.07-17.52,45.15H203.89a518.3,518.3,0,0,1-37.31-124.41q-3.32-19.79-5.11-40.05-2.07-23.16-2.08-46.87a523.23,523.23,0,0,1,18.48-138.27c26.47-13.21,57.78-17,86-8-8.3-27.88-.4-60,19.9-80.82s52.16-29.59,80.26-22c1.86-44.17,25.13-87,61.21-112.53s84.28-33.79,126.45-20.49c53.83,17,70,64.8,70,64.8,21.68-19.08,74.55,4.71,73.49,33.08,20.44-51.89,74.56-88.57,130.33-88.32s109.56,37.39,129.54,89.46c10.77-12.55,31.16-10.58,45.78-2.85s33.47,59.64,48.84,65.73c21.58,8.54,40.59-35.56,60.66-23.9,32.92,19.1,31,66.48,24.84,104,16.54-5.81,34-5,50.5.46A522.39,522.39,0,0,1,1204.6,592.91Z" class="colorbaf9ff svgShape"/><path fill="#fff1e8" d="M1203.55,626.37a521,521,0,0,1-25.93,132.72L184.7,757.34c-7.41-23.26-14-53-18.12-77.51q-3.3-19.77-5.11-40c23.51-38.2,77.78-45,110.69-22.75-9.07-25.45-.28-56.21,20.86-73s53.1-18.42,75.85-3.83c-5.63-19.82-1.62-41.26,6-60.38C404.23,406.42,490.79,361.62,568,378.54S704.74,471.07,704.67,550.1c30.14-20.51,76.15-12,96.9,18-5.86-56.73,38.2-99.27,93.44-113.51,63.24-16.3,121.23,8.7,136.57,86.66,40.71-7,83.46,27.61,85.16,68.89C1144.57,595.29,1180.21,604.74,1203.55,626.37Z" class="colore8fdff svgShape"/><rect width="133" height="369.12" x="349.07" y="302.06" fill="#d98654" class="color54cdd9 svgShape"/><polygon fill="#b05d2c" points="349.07 302.06 349.07 671.18 394.8 671.18 394.8 292.32 355.19 292.32 355.19 302.06 349.07 302.06" class="color2ca3b0 svgShape"/><rect width="99.09" height="9.74" x="355.19" y="292.32" fill="#964a1c" class="color1c7c96 svgShape"/><rect width="12.29" height="27.71" x="403.28" y="312.97" fill="#f7c1a0" class="colora0eff7 svgShape"/><rect width="12.29" height="27.71" x="423.31" y="312.97" fill="#f7c1a0" class="colora0eff7 svgShape"/><rect width="12.29" height="27.71" x="403.28" y="353.04" fill="#f7c1a0" class="colora0eff7 svgShape"/><rect width="12.29" height="27.71" x="423.31" y="353.04" fill="#f7c1a0" class="colora0eff7 svgShape"/><rect width="12.29" height="27.71" x="403.28" y="451.32" fill="#f7c1a0" class="colora0eff7 svgShape"/><rect width="12.29" height="27.71" x="423.31" y="451.32" fill="#f7c1a0" class="colora0eff7 svgShape"/><rect width="12.29" height="27.71" x="403.28" y="491.39" fill="#f7c1a0" class="colora0eff7 svgShape"/><rect width="12.29" height="27.71" x="423.31" y="491.39" fill="#f7c1a0" class="colora0eff7 svgShape"/><rect width="152.46" height="399.91" x="774.13" y="302.43" fill="#d98654" class="color54cdd9 svgShape"/><polygon fill="#b05d2c" points="929.6 297.13 929.6 302.96 926.59 302.96 926.59 702.34 876.33 702.34 876.33 297.13 929.6 297.13" class="color2ca3b0 svgShape"/><rect width="9.25" height="18.57" x="790.87" y="561.36" fill="#f7c1a0" class="colora0eff7 svgShape"/><rect width="9.25" height="18.57" x="808.55" y="561.36" fill="#f7c1a0" class="colora0eff7 svgShape"/><rect width="9.25" height="18.57" x="826.23" y="561.36" fill="#f7c1a0" class="colora0eff7 svgShape"/><rect width="9.25" height="18.57" x="790.87" y="622" fill="#f7c1a0" class="colora0eff7 svgShape"/><rect width="9.25" height="18.57" x="826.23" y="622" fill="#f7c1a0" class="colora0eff7 svgShape"/><rect width="9.25" height="18.57" x="843.91" y="561.36" fill="#f7c1a0" class="colora0eff7 svgShape"/><rect width="9.25" height="18.57" x="790.87" y="462.85" fill="#f7c1a0" class="colora0eff7 svgShape"/><rect width="9.25" height="18.57" x="808.55" y="462.85" fill="#f7c1a0" class="colora0eff7 svgShape"/><rect width="9.25" height="18.57" x="826.23" y="462.85" fill="#f7c1a0" class="colora0eff7 svgShape"/><rect width="9.25" height="18.57" x="843.91" y="462.85" fill="#f7c1a0" class="colora0eff7 svgShape"/><rect width="9.25" height="18.57" x="808.55" y="590.23" fill="#f7c1a0" class="colora0eff7 svgShape"/><rect width="9.25" height="18.57" x="826.23" y="590.23" fill="#f7c1a0" class="colora0eff7 svgShape"/><rect width="9.25" height="18.57" x="843.91" y="590.23" fill="#f7c1a0" class="colora0eff7 svgShape"/><rect width="9.25" height="18.57" x="790.87" y="656.03" fill="#f7c1a0" class="colora0eff7 svgShape"/><rect width="9.25" height="18.57" x="808.55" y="656.03" fill="#f7c1a0" class="colora0eff7 svgShape"/><rect width="9.25" height="18.57" x="843.91" y="656.03" fill="#f7c1a0" class="colora0eff7 svgShape"/><rect width="9.25" height="18.57" x="790.87" y="433.84" fill="#f7c1a0" class="colora0eff7 svgShape"/><rect width="9.25" height="18.57" x="808.55" y="433.84" fill="#f7c1a0" class="colora0eff7 svgShape"/><rect width="9.25" height="18.57" x="843.91" y="433.84" fill="#f7c1a0" class="colora0eff7 svgShape"/><rect width="9.25" height="18.57" x="826.23" y="433.84" fill="#f7c1a0" class="colora0eff7 svgShape"/><rect width="9.25" height="18.57" x="808.55" y="404.83" fill="#f7c1a0" class="colora0eff7 svgShape"/><rect width="9.25" height="18.57" x="826.23" y="404.83" fill="#f7c1a0" class="colora0eff7 svgShape"/><rect width="9.25" height="18.57" x="808.55" y="375.81" fill="#f7c1a0" class="colora0eff7 svgShape"/><rect width="9.25" height="18.57" x="826.23" y="375.81" fill="#f7c1a0" class="colora0eff7 svgShape"/><rect width="9.25" height="18.57" x="843.91" y="375.81" fill="#f7c1a0" class="colora0eff7 svgShape"/><rect width="9.25" height="18.57" x="808.55" y="346.8" fill="#f7c1a0" class="colora0eff7 svgShape"/><rect width="9.25" height="18.57" x="843.91" y="346.8" fill="#f7c1a0" class="colora0eff7 svgShape"/><rect width="9.25" height="18.57" x="808.55" y="317.79" fill="#f7c1a0" class="colora0eff7 svgShape"/><rect width="9.25" height="18.57" x="826.23" y="317.79" fill="#f7c1a0" class="colora0eff7 svgShape"/><rect width="9.25" height="18.57" x="843.91" y="317.79" fill="#f7c1a0" class="colora0eff7 svgShape"/><rect width="9.25" height="18.57" x="790.87" y="527.7" fill="#f7c1a0" class="colora0eff7 svgShape"/><rect width="9.25" height="18.57" x="826.23" y="527.7" fill="#f7c1a0" class="colora0eff7 svgShape"/><rect width="9.25" height="18.57" x="843.91" y="527.7" fill="#f7c1a0" class="colora0eff7 svgShape"/><rect width="9.25" height="18.57" x="790.87" y="494.05" fill="#f7c1a0" class="colora0eff7 svgShape"/><rect width="9.25" height="18.57" x="808.55" y="494.05" fill="#f7c1a0" class="colora0eff7 svgShape"/><rect width="9.25" height="18.57" x="826.23" y="494.05" fill="#f7c1a0" class="colora0eff7 svgShape"/><rect width="152.45" height="2.86" x="774.13" y="303" fill="#8c6431" class="color316e8c svgShape"/><rect width="158.47" height="5.83" x="771.13" y="297.13" fill="#964a1c" class="color1c7c96 svgShape"/><rect width="23.89" height="3.11" x="844.58" y="290.88" fill="#964a1c" class="color1c7c96 svgShape"/><rect width="21.92" height="9.4" x="845.56" y="292.42" fill="#964a1c" class="color1c7c96 svgShape"/><rect width="116.99" height="335.68" x="900.39" y="368.09" fill="#d98654" class="color54cdd9 svgShape"/><rect width="6.77" height="251.03" x="908.71" y="393.53" fill="#f7c1a0" class="colora0eff7 svgShape"/><rect width="6.77" height="251.03" x="927.18" y="393.53" fill="#f7c1a0" class="colora0eff7 svgShape"/><rect width="6.77" height="251.03" x="945.65" y="393.53" fill="#f7c1a0" class="colora0eff7 svgShape"/><rect width="6.77" height="251.03" x="964.12" y="393.53" fill="#f7c1a0" class="colora0eff7 svgShape"/><rect width="22.01" height="335.68" x="995.37" y="368.09" fill="#b05d2c" class="color2ca3b0 svgShape"/><rect width="116.99" height="335.68" x="249.89" y="409.68" fill="#d98654" class="color54cdd9 svgShape"/><rect width="6.77" height="251.03" x="351.79" y="435.12" fill="#f7c1a0" transform="rotate(-180 355.17 560.635)" class="colora0eff7 svgShape"/><rect width="6.77" height="251.03" x="333.32" y="435.12" fill="#f7c1a0" transform="rotate(-180 336.7 560.635)" class="colora0eff7 svgShape"/><rect width="6.77" height="251.03" x="314.85" y="435.12" fill="#f7c1a0" transform="rotate(-180 318.235 560.635)" class="colora0eff7 svgShape"/><rect width="6.77" height="251.03" x="296.38" y="435.12" fill="#f7c1a0" transform="rotate(-180 299.765 560.635)" class="colora0eff7 svgShape"/><rect width="22.01" height="335.68" x="249.89" y="409.68" fill="#b05d2c" class="color2ca3b0 svgShape"/><path fill="#ad6408" d="M369.65,584.57c-16.21,2.29-10.38,9.66-29.15,8.13h-6.08s-14.22,1.38-17.11-5.68c-3.86-9.39-15.59-2.3-19.57-11.27s-1.17-21.18,6.82-26.12-1-27.84,9-29.78a14.71,14.71,0,0,0,3.66-1.18c10.35-5,1.29-20,11.47-22.34,11.17-2.53,5.46-14.66,12.75-16.43s5.13,18,9.72,21.23c8.33,5.85,14.06,12.05,12.71,24.47-1.64,15.15,13.14,12.79,9.92,30.22-.72,3.86.36,8.08,1.53,12.07C377.66,575.93,380.41,583.06,369.65,584.57Z" class="color96ad08 svgShape"/><path fill="#c27009" d="M375.3,567.9c-22,5.47-24.18-22.43-41.84-26.64-12.27-2.92-15.43-15.13-16.26-22.58,10.35-5,1.29-20,11.47-22.34,11.17-2.53,5.46-14.66,12.75-16.43s5.13,18,9.72,21.23c8.33,5.85,14.06,12.05,12.71,24.47-1.64,15.15,13.14,12.79,9.92,30.22C373.05,559.69,374.13,563.91,375.3,567.9Z" class="colora8c209 svgShape"/><path fill="#543610" d="M364,538.37l-2.14.7c-.36.12-.73.22-1.08.36l-1,.45c-.68.3-1.4.58-2.07.92l-2,1.08-.65.39c.06-.17.12-.35.17-.52.29-1,.55-2,.75-3a18,18,0,0,0,.32-6.13l-.59.06a17.25,17.25,0,0,1-.86,5.78c-.29.94-.63,1.87-1,2.78s-.74,1.71-1.15,2.51a40.41,40.41,0,0,0-4.41,3.4,58.92,58.92,0,0,0-6.41,6.52c-.55.64-1.08,1.31-1.6,2L340,527.86l-1.66-.05-.7,12.24a24.53,24.53,0,0,0-3.1-4.17,25.09,25.09,0,0,0-4-3.54,22.45,22.45,0,0,0-4.6-2.61l-.23.55a21.3,21.3,0,0,1,4.16,2.91,23.94,23.94,0,0,1,3.43,3.69,23,23,0,0,1,2.57,4.28,22.45,22.45,0,0,1,1.45,3.94l-1.15,20a53.22,53.22,0,0,0-4.58-8.76,62.77,62.77,0,0,0-7.91-9.85,61.71,61.71,0,0,0-9.6-8.08l-.34.49a63.48,63.48,0,0,1,16,18.55,48.81,48.81,0,0,1,4.62,11.21c.29,1,.47,2,.7,2.93s.38,2,.47,3c0,.14,0,.29.06.43l-4,69.54,9.51.19-.8-82.44c.19-.39.39-.77.6-1.15.34-.63.69-1.26,1.07-1.88.73-1.25,1.52-2.47,2.35-3.66a56.48,56.48,0,0,1,5.5-6.77,45.15,45.15,0,0,1,6.61-5.73l1.82-1.22c.62-.39,1.28-.71,1.92-1.08l1-.53c.33-.16.67-.29,1-.44l2-.88Z" class="color544710 svgShape"/><rect width="116.99" height="335.68" x="569.53" y="339.16" fill="#d98654" class="color54cdd9 svgShape"/><rect width="6.77" height="251.03" x="671.42" y="364.6" fill="#f7c1a0" transform="rotate(-180 674.81 490.115)" class="colora0eff7 svgShape"/><rect width="6.77" height="251.03" x="652.95" y="364.6" fill="#f7c1a0" transform="rotate(-180 656.34 490.115)" class="colora0eff7 svgShape"/><rect width="6.77" height="251.03" x="634.48" y="364.6" fill="#f7c1a0" transform="rotate(-180 637.87 490.115)" class="colora0eff7 svgShape"/><rect width="6.77" height="251.03" x="616.01" y="364.6" fill="#f7c1a0" transform="rotate(-180 619.4 490.115)" class="colora0eff7 svgShape"/><rect width="22.01" height="335.68" x="569.53" y="339.16" fill="#b05d2c" class="color2ca3b0 svgShape"/><rect width="133" height="369.12" x="1009.34" y="334.65" fill="#d98654" class="color54cdd9 svgShape"/><rect width="8.84" height="15.63" x="1018.84" y="344.34" fill="#f7c1a0" class="colora0eff7 svgShape"/><rect width="8.84" height="15.63" x="1036.76" y="344.34" fill="#f7c1a0" class="colora0eff7 svgShape"/><rect width="8.84" height="15.63" x="1018.84" y="372.68" fill="#f7c1a0" class="colora0eff7 svgShape"/><rect width="8.84" height="15.63" x="1036.76" y="372.68" fill="#f7c1a0" class="colora0eff7 svgShape"/><rect width="8.84" height="15.63" x="1062.46" y="344.34" fill="#f7c1a0" class="colora0eff7 svgShape"/><rect width="8.84" height="15.63" x="1080.38" y="344.34" fill="#f7c1a0" class="colora0eff7 svgShape"/><rect width="8.84" height="15.63" x="1062.46" y="372.68" fill="#f7c1a0" class="colora0eff7 svgShape"/><rect width="8.84" height="15.63" x="1080.38" y="372.68" fill="#f7c1a0" class="colora0eff7 svgShape"/><rect width="8.84" height="15.63" x="1106.08" y="344.34" fill="#f7c1a0" class="colora0eff7 svgShape"/><rect width="8.84" height="15.63" x="1124" y="344.34" fill="#f7c1a0" class="colora0eff7 svgShape"/><rect width="8.84" height="15.63" x="1106.08" y="372.68" fill="#f7c1a0" class="colora0eff7 svgShape"/><rect width="8.84" height="15.63" x="1124" y="372.68" fill="#f7c1a0" class="colora0eff7 svgShape"/><rect width="8.84" height="15.63" x="1018.84" y="416.86" fill="#f7c1a0" class="colora0eff7 svgShape"/><rect width="8.84" height="15.63" x="1036.76" y="416.86" fill="#f7c1a0" class="colora0eff7 svgShape"/><rect width="8.84" height="15.63" x="1018.84" y="445.2" fill="#f7c1a0" class="colora0eff7 svgShape"/><rect width="8.84" height="15.63" x="1036.76" y="445.2" fill="#f7c1a0" class="colora0eff7 svgShape"/><rect width="8.84" height="15.63" x="1062.46" y="416.86" fill="#f7c1a0" class="colora0eff7 svgShape"/><rect width="8.84" height="15.63" x="1080.38" y="416.86" fill="#f7c1a0" class="colora0eff7 svgShape"/><rect width="8.84" height="15.63" x="1062.46" y="445.2" fill="#f7c1a0" class="colora0eff7 svgShape"/><rect width="8.84" height="15.63" x="1080.38" y="445.2" fill="#f7c1a0" class="colora0eff7 svgShape"/><rect width="8.84" height="15.63" x="1106.08" y="416.86" fill="#f7c1a0" class="colora0eff7 svgShape"/><rect width="8.84" height="15.63" x="1124" y="416.86" fill="#f7c1a0" class="colora0eff7 svgShape"/><rect width="8.84" height="15.63" x="1106.08" y="445.2" fill="#f7c1a0" class="colora0eff7 svgShape"/><rect width="8.84" height="15.63" x="1124" y="445.2" fill="#f7c1a0" class="colora0eff7 svgShape"/><rect width="8.84" height="15.63" x="1018.84" y="489.38" fill="#f7c1a0" class="colora0eff7 svgShape"/><rect width="8.84" height="15.63" x="1036.76" y="489.38" fill="#f7c1a0" class="colora0eff7 svgShape"/><rect width="8.84" height="15.63" x="1018.84" y="517.71" fill="#f7c1a0" class="colora0eff7 svgShape"/><rect width="8.84" height="15.63" x="1036.76" y="517.71" fill="#f7c1a0" class="colora0eff7 svgShape"/><rect width="8.84" height="15.63" x="1062.46" y="489.38" fill="#f7c1a0" class="colora0eff7 svgShape"/><rect width="8.84" height="15.63" x="1080.38" y="489.38" fill="#f7c1a0" class="colora0eff7 svgShape"/><rect width="8.84" height="15.63" x="1062.46" y="517.71" fill="#f7c1a0" class="colora0eff7 svgShape"/><rect width="8.84" height="15.63" x="1080.38" y="517.71" fill="#f7c1a0" class="colora0eff7 svgShape"/><rect width="8.84" height="15.63" x="1106.08" y="489.38" fill="#f7c1a0" class="colora0eff7 svgShape"/><rect width="8.84" height="15.63" x="1124" y="489.38" fill="#f7c1a0" class="colora0eff7 svgShape"/><rect width="8.84" height="15.63" x="1106.08" y="517.71" fill="#f7c1a0" class="colora0eff7 svgShape"/><rect width="8.84" height="15.63" x="1124" y="517.71" fill="#f7c1a0" class="colora0eff7 svgShape"/><rect width="8.84" height="15.63" x="1018.84" y="561.89" fill="#f7c1a0" class="colora0eff7 svgShape"/><rect width="8.84" height="15.63" x="1036.76" y="561.89" fill="#f7c1a0" class="colora0eff7 svgShape"/><rect width="8.84" height="15.63" x="1018.84" y="590.23" fill="#f7c1a0" class="colora0eff7 svgShape"/><rect width="8.84" height="15.63" x="1036.76" y="590.23" fill="#f7c1a0" class="colora0eff7 svgShape"/><rect width="8.84" height="15.63" x="1062.46" y="561.89" fill="#f7c1a0" class="colora0eff7 svgShape"/><rect width="8.84" height="15.63" x="1080.38" y="561.89" fill="#f7c1a0" class="colora0eff7 svgShape"/><rect width="8.84" height="15.63" x="1062.46" y="590.23" fill="#f7c1a0" class="colora0eff7 svgShape"/><rect width="8.84" height="15.63" x="1080.38" y="590.23" fill="#f7c1a0" class="colora0eff7 svgShape"/><rect width="8.84" height="15.63" x="1106.08" y="561.89" fill="#f7c1a0" class="colora0eff7 svgShape"/><rect width="8.84" height="15.63" x="1124" y="561.89" fill="#f7c1a0" class="colora0eff7 svgShape"/><rect width="8.84" height="15.63" x="1106.08" y="590.23" fill="#f7c1a0" class="colora0eff7 svgShape"/><rect width="8.84" height="15.63" x="1124" y="590.23" fill="#f7c1a0" class="colora0eff7 svgShape"/><polygon fill="#b05d2c" points="1142.34 334.65 1142.34 703.77 1096.61 703.77 1096.61 324.91 1136.22 324.91 1136.22 334.65 1142.34 334.65" class="color2ca3b0 svgShape"/><rect width="99.09" height="9.74" x="1037.13" y="324.91" fill="#964a1c" class="color1c7c96 svgShape"/><path fill="#ad6408" d="M1088.8,599.83c-16.21,2.29-10.38,9.66-29.14,8.13h-6.09s-14.21,1.38-17.11-5.68c-3.85-9.39-15.59-2.3-19.56-11.27s-1.17-21.18,6.82-26.12-1-27.84,9-29.78a14.71,14.71,0,0,0,3.66-1.18c10.35-5,1.29-20,11.47-22.34,11.17-2.53,5.46-14.66,12.75-16.43s5.13,18,9.71,21.23c8.34,5.85,14.06,12.05,12.72,24.47-1.65,15.15,13.14,12.79,9.91,30.22-.71,3.86.37,8.08,1.54,12.07C1096.82,591.19,1099.56,598.32,1088.8,599.83Z" class="color96ad08 svgShape"/><path fill="#c27009" d="M1094.46,583.16c-22,5.47-24.18-22.43-41.84-26.64-12.27-2.92-15.43-15.13-16.26-22.58,10.35-5,1.29-20,11.47-22.34,11.17-2.53,5.46-14.66,12.75-16.43s5.13,18,9.71,21.23c8.34,5.85,14.06,12.05,12.72,24.47-1.65,15.15,13.14,12.79,9.91,30.22C1092.21,575,1093.29,579.17,1094.46,583.16Z" class="colora8c209 svgShape"/><path fill="#543610" d="M1083.14,553.63l-2.15.7c-.35.12-.72.22-1.07.36l-1,.45c-.69.31-1.4.58-2.07.92l-2,1.08-.65.39c0-.17.11-.35.17-.52.29-1,.55-2,.75-3a18.3,18.3,0,0,0,.32-6.13l-.59.06a17.26,17.26,0,0,1-.87,5.78c-.28.94-.62,1.87-1,2.78s-.73,1.72-1.14,2.52a40.15,40.15,0,0,0-4.42,3.39A59.73,59.73,0,0,0,1061,569c-.55.64-1.08,1.31-1.6,2l-.27-27.81-1.66,0-.7,12.24a26.26,26.26,0,0,0-7.07-7.71,22.45,22.45,0,0,0-4.6-2.61l-.23.55a21.54,21.54,0,0,1,4.15,2.91,24,24,0,0,1,3.44,3.69,24.17,24.17,0,0,1,4,8.22l-1.15,20a52.42,52.42,0,0,0-4.57-8.76,62.77,62.77,0,0,0-7.91-9.85,61.32,61.32,0,0,0-9.61-8.08l-.33.49a63.48,63.48,0,0,1,16,18.55,48.81,48.81,0,0,1,4.62,11.21c.29,1,.47,2,.7,2.93s.38,2,.47,3c0,.14,0,.29,0,.43l-4,69.54,9.51.19-.79-82.44c.19-.38.39-.77.6-1.15.34-.63.69-1.26,1.06-1.88.74-1.25,1.53-2.47,2.35-3.66a57.56,57.56,0,0,1,5.51-6.77,44.56,44.56,0,0,1,6.6-5.73l1.83-1.22c.62-.39,1.28-.71,1.92-1.08l1-.53c.33-.16.68-.29,1-.44l2-.88Z" class="color544710 svgShape"/><path fill="#a36516" d="M950.81,734.22c72.08-4.44,132.18-3.83,187.58,16.14s-4.82-1.74,34.73,12.5c2.49-7.44,11.58-12.84,13.32-22s.81-17.22-5.18-24.37-14.38-12.25-23.73-11.05c1.75-10.61-2.65-21.4-13.87-23.94,2.43-11.16,1-22.87-6.21-32.07s-17.5-14.24-29.32-13.49-20.62,7.92-25.4,18.44c-4.2-4-8.81-6.54-14.79-5.82s-9.8,4.56-12.68,9.53c-3.82-5.33-8.78-8.45-15.35-9a16.81,16.81,0,0,0-8,1.39,24.53,24.53,0,0,0-8.51,6.29c1.16-8.12-1.73-15.52-8.53-20.19s-14.52-6.12-22.5-5.47c-8.32.69-16.52,1.83-23.31,7.26-13,10.4-19.24,23.62-20.36,41S947,715,950.81,734.22Z" class="color84a316 svgShape"/><path fill="#7d4908" d="M948.56,733.41c85.4.36,142.32-6.63,220.75,21.64-11.57-10.54-21.9-24-21.39-35.09-5.28,1.18-9.38,3.6-14.49.86s-8.22-7.8-10.22-13.16c-8.23,1.81-16.23,2.15-23.12-3.35s-8.22-13-6.37-21.17c-2.69,1.86-5.29,3.86-8.45,5a12.06,12.06,0,0,1-9.5,0c-1.78-.83-2.69-2.29-4.65-2.88-3.65-1.11-6.68,1.05-10.22,2-8.91,2.33-17.38.32-23.32-7s-6.52-16.09-6.28-25.17c0-1.55.42-3.09.59-4.61a25.64,25.64,0,0,0-8.49,6.33c1.15-8.14-1.71-15.53-8.53-20.2s-14.48-6.11-22.51-5.47C984,631.77,976,633,969,638.36c-13.26,10.3-18.73,23.79-20.46,40.92S949.36,715.82,948.56,733.41Z" class="color647d08 svgShape"/><path fill="#ba8838" d="M761.39,771.52s94.44-72.68,215.7-72.68c146.91,0,231.94,84.39,231.94,84.39Z" class="colorb5ba38 svgShape"/><path fill="#a36516" d="M438.76,712.09c-72.09-4.45-132.18-3.83-187.58,16.13s4.82-1.74-34.73,12.5c-2.5-7.43-11.59-12.84-13.32-22s-.81-17.22,5.18-24.37,14.38-12.25,23.72-11.05c-1.74-10.61,2.66-21.4,13.87-23.94-2.42-11.16-1-22.87,6.22-32.07s17.5-14.24,29.32-13.48,20.61,7.91,25.4,18.43c4.2-4,8.8-6.54,14.78-5.82s9.8,4.56,12.69,9.53c3.81-5.33,8.78-8.45,15.35-9a16.84,16.84,0,0,1,8,1.4,24.34,24.34,0,0,1,8.5,6.28c-1.16-8.12,1.74-15.52,8.54-20.19s14.51-6.12,22.49-5.46c8.32.68,16.52,1.82,23.32,7.25,13,10.4,19.23,23.62,20.36,41S442.54,692.84,438.76,712.09Z" class="color84a316 svgShape"/><path fill="#7d4908" d="M441,711.28c-85.4.35-142.33-6.63-220.76,21.63,11.57-10.53,21.91-24,21.4-35.08,5.27,1.17,9.37,3.59,14.49.85s8.22-7.8,10.22-13.16c8.22,1.81,16.23,2.16,23.12-3.35s8.22-13,6.36-21.16c2.7,1.86,5.29,3.85,8.45,5a12.06,12.06,0,0,0,9.5,0c1.79-.83,2.7-2.28,4.65-2.88,3.65-1.11,6.69,1.05,10.23,2,8.91,2.32,17.38.32,23.32-7s6.51-16.08,6.28-25.16c0-1.56-.43-3.1-.6-4.62a25.54,25.54,0,0,1,8.49,6.33c-1.14-8.14,1.72-15.52,8.54-20.2s14.47-6.11,22.5-5.47c8.38.67,16.39,1.87,23.32,7.26,13.27,10.3,18.73,23.8,20.47,40.92S440.2,693.68,441,711.28Z" class="color647d08 svgShape"/><path fill="#ba8838" d="M628.18,749.39S533.74,676.7,412.47,676.7c-146.9,0-231.94,84.4-231.94,84.4Z" class="colorb5ba38 svgShape"/><path fill="#ad866e" d="M1257.09,796.52c0,5.71-6.39,10.35-14.26,10.35H1062.77a17.38,17.38,0,0,0-10,3,9.22,9.22,0,0,0-4.17,7.33c0,5.71,6.39,10.35,14.26,10.35h115.64c7.89,0,14.27,4.63,14.27,10.35s-6.38,10.36-14.27,10.36H961a17.21,17.21,0,0,0-9.63,3,9.21,9.21,0,0,0-4.18,7.32c0,5.61,6.14,10.17,13.81,10.34h94.44a17.41,17.41,0,0,1,10.09,3,9.2,9.2,0,0,1,4.18,7.33c0,5.71-6.4,10.34-14.27,10.34H272a17.17,17.17,0,0,1-10.08-3,9.17,9.17,0,0,1-4.18-7.31c0-5.73,6.38-10.36,14.26-10.36h102.9A17.41,17.41,0,0,0,385,866a9.19,9.19,0,0,0,4.18-7.32c0-5.71-6.39-10.35-14.27-10.35H217.71c-7.87,0-14.26-4.64-14.26-10.36s6.39-10.35,14.26-10.35h59.75a17.34,17.34,0,0,0,10.09-3,9.2,9.2,0,0,0,4.18-7.32c0-5.71-6.36-10.32-14.19-10.36H125.9c-7.89,0-19-4.64-19-10.35s6.37-10.35,14.26-10.35H1242.83C1250.7,786.17,1257.09,790.81,1257.09,796.52Z" class="color6e9dad svgShape"/><rect width="1064.85" height="10.73" x="144.28" y="775.94" fill="#996c51" class="color518799 svgShape"/><rect width="59.61" height="20.71" x="1095.06" y="868.99" fill="#ad866e" rx="9.41" class="color6e9dad svgShape"/><rect width="55.21" height="20.71" x="133.1" y="827.58" fill="#ad866e" rx="6.87" class="color6e9dad svgShape"/><ellipse cx="681.33" cy="836.83" fill="#8a6149" rx="271.44" ry="16.75" class="color497a8a svgShape"/><path fill="#ffffff" d="M1191.84 758.94H155.89a17.09 17.09 0 00-17.19 17H1209A17.09 17.09 0 001191.84 758.94zM978.79 421.51H637A26.48 26.48 0 00610.51 448V541h394.75V448A26.47 26.47 0 00978.79 421.51z" class="colorfff svgShape"/><path fill="#ffffff" d="M964.39,787.67H373.72c-22.58,0-40.88-2.22-40.88-20.5V664.63c0-15.79,8.36-32,23.36-36.93,10.38-3.42,32.46-5.18,42.92-8.38,12.93-4,19.28-17.57,22.86-30.62C451,482.83,454.12,464.18,485.42,463.6l479.39-.45A40.88,40.88,0,0,1,1005.27,504V767.17C1005.27,786.28,987,787.67,964.39,787.67Z" class="colorfff svgShape"/><path fill="#69461a" d="M443.21,613.2l33.64-124.39a4.66,4.66,0,0,1,4.5-3.44H588.81a4.66,4.66,0,0,1,4.66,4.66V614.42a4.66,4.66,0,0,1-4.66,4.66H447.71A4.66,4.66,0,0,1,443.21,613.2Z" class="color1a5369 svgShape"/><path fill="#964a1c" d="M587.36,496.15V608.3a4.67,4.67,0,0,1-4.67,4.66h-127a4.66,4.66,0,0,1-4.5-5.87l11.23-41.54L468,545.1h0l6.43-23.75,7.14-26.41a4.65,4.65,0,0,1,4.49-3.44h96.67A4.67,4.67,0,0,1,587.36,496.15Z" class="color1c7c96 svgShape"/><rect width="138.79" height="133.71" x="815.7" y="485.37" fill="#69461a" rx="3.86" class="color1a5369 svgShape"/><rect width="125.49" height="120.41" x="822.35" y="492.02" fill="#964a1c" rx="3.86" class="color1c7c96 svgShape"/><rect width="672.43" height="47.26" x="332.84" y="685.41" fill="#f58242" class="colorf54d42 svgShape"/><rect width="672.43" height="9.6" x="332.84" y="658.87" fill="#ffa30f" class="colorfa0 svgShape"/><path fill="#69461a" d="M1020 777.42a10.24 10.24 0 01-10.24 10.25H332.57q-4.65-7.44-8.94-15.15a10.24 10.24 0 019-5.35h677.11A10.24 10.24 0 011020 777.42zM351.47 716.19v26.22a11.13 11.13 0 01-11.11 11.13h-7.52V705.06h7.52A11.13 11.13 0 01351.47 716.19z" class="color1a5369 svgShape"/><path fill="#ffa30f" d="M340.35,708.5h-7.51v41.61h7.51a7.7,7.7,0,0,0,7.7-7.7V716.2A7.7,7.7,0,0,0,340.35,708.5Z" class="colorfa0 svgShape"/><path fill="#69461a" d="M1005.26,700.92v32H994.54a7.93,7.93,0,0,1-7.91-7.92v-16.2a7.93,7.93,0,0,1,7.91-7.92Z" class="color1a5369 svgShape"/><path fill="#ffa30f" d="M994.55,704.35a4.48,4.48,0,0,0-4.48,4.49V725a4.48,4.48,0,0,0,4.48,4.48h10.72V704.35Z" class="colorfa0 svgShape"/><path fill="#69461a" d="M1005.26,736v26.27H994.54a7.93,7.93,0,0,1-7.91-7.92V743.9a7.93,7.93,0,0,1,7.91-7.92Z" class="color1a5369 svgShape"/><path fill="#f58242" d="M994.55,739.41a4.48,4.48,0,0,0-4.48,4.49v10.43a4.48,4.48,0,0,0,4.48,4.48h10.72v-19.4Z" class="colorf54d42 svgShape"/><circle cx="705.83" cy="556.81" r="57.99" fill="#f58242" transform="rotate(-80.78 705.858 556.805)" class="colorf54d42 svgShape"/><rect width="20.55" height="79.08" x="695.56" y="517.27" fill="#ffffff" class="colorfff svgShape"/><rect width="19.09" height="79.08" x="696.28" y="517.27" fill="#ffffff" transform="rotate(-90 705.83 556.81)" class="colorfff svgShape"/><rect width="33.03" height="9.47" x="557.38" y="631.67" fill="#69461a" rx="2.47" class="color1a5369 svgShape"/><path fill="#69461a" d="M558.92 787.36v.31H430.48v-.31a64.22 64.22 0 11128.44 0zM938.68 787.36v.31H810.24v-.31a64.22 64.22 0 11128.44 0z" class="color1a5369 svgShape"/><circle cx="494.7" cy="787.37" r="51.43" fill="#452c0d" class="color0d3245 svgShape"/><circle cx="494.7" cy="787.37" r="32.71" fill="#69461a" class="color1a5369 svgShape"/><circle cx="494.7" cy="787.37" r="22.8" fill="#ffffff" class="colorfff svgShape"/><circle cx="494.7" cy="787.37" r="8.49" fill="#452c0d" class="color0d3245 svgShape"/><circle cx="476.23" cy="787.37" r="2.98" fill="#452c0d" class="color0d3245 svgShape"/><circle cx="513.29" cy="787.37" r="2.98" fill="#452c0d" class="color0d3245 svgShape"/><circle cx="494.7" cy="769.75" r="2.98" fill="#452c0d" class="color0d3245 svgShape"/><circle cx="494.7" cy="804.99" r="2.98" fill="#452c0d" class="color0d3245 svgShape"/><circle cx="874.46" cy="787.37" r="51.43" fill="#452c0d" class="color0d3245 svgShape"/><circle cx="874.46" cy="787.37" r="32.71" fill="#69461a" class="color1a5369 svgShape"/><circle cx="874.46" cy="787.37" r="22.8" fill="#ffffff" class="colorfff svgShape"/><circle cx="874.46" cy="787.37" r="8.49" fill="#452c0d" class="color0d3245 svgShape"/><circle cx="855.99" cy="787.37" r="2.98" fill="#452c0d" class="color0d3245 svgShape"/><circle cx="893.04" cy="787.37" r="2.98" fill="#452c0d" class="color0d3245 svgShape"/><circle cx="874.46" cy="769.75" r="2.98" fill="#452c0d" class="color0d3245 svgShape"/><circle cx="874.46" cy="804.99" r="2.98" fill="#452c0d" class="color0d3245 svgShape"/><path fill="#f58242" d="M556.07,458.29H513.7l2.83-14c.93-4.59,3.56-7.7,6.52-7.7H548c3.33,0,6.18,3.91,6.76,9.28Z" class="colorf54d42 svgShape"/><path fill="#d66324" d="M554.74,445.84c-.49-4.59-2.66-8.1-5.36-9a14.4,14.4,0,0,1,2,6l.23,2.21a9.26,9.26,0,0,1-9.21,10.25H514.3l-.6,3h42.37Z" class="colord63024 svgShape"/><path fill="#69461a" d="M556.64,458.29h-43.5a2.64,2.64,0,0,0,0,5.28h43.5a2.64,2.64,0,1,0,0-5.28Z" class="color1a5369 svgShape"/><rect width="2.76" height="303.69" x="610.51" y="463.49" fill="#fbb890" style="mix-blend-mode:multiply" class="colorcadee3 svgShape"/><rect width="2.76" height="303.69" x="791.91" y="463.49" fill="#fbb890" style="mix-blend-mode:multiply" class="colorcadee3 svgShape"/><rect width="394.75" height="8.15" x="610.51" y="463.49" fill="#fbb890" style="mix-blend-mode:multiply" class="colorcadee3 svgShape"/><rect width="29.83" height="303.28" x="975.45" y="463.49" fill="#fbb890" style="mix-blend-mode:multiply" class="colorcadee3 svgShape"/><path fill="#bf6d3c" d="M527.41 613H503.17l-28.78-91.62 7.14-26.41a4.65 4.65 0 014.49-3.44h3.23zM587.36 496.15v61.91l-20.92-66.57h16.25A4.67 4.67 0 01587.36 496.15z" class="color3ca3bf svgShape"/><polygon fill="#bf6d3c" points="489.29 612.96 477.33 612.96 462.43 565.55 467.96 545.1 489.29 612.96" class="color3ca3bf svgShape"/><polygon fill="#bf6d3c" points="902.82 612.97 927.07 612.97 888.9 491.48 864.66 491.48 902.82 612.97" class="color3ca3bf svgShape"/><polygon fill="#bf6d3c" points="876.99 612.97 888.94 612.97 850.78 491.48 838.83 491.48 876.99 612.97" class="color3ca3bf svgShape"/><rect width="6.97" height="230.57" x="216.77" y="518.06" fill="#473826" class="color263347 svgShape"/><path fill="#473826" d="M257.83 473.8v1.62a.87.87 0 01-.7.85c-9.07 1.88-11.82 11.76-12.65 17.27a4.25 4.25 0 01-1.1 2.29 4.36 4.36 0 01-3.23 1.42H200.36a4.4 4.4 0 01-3.24-1.42 4.31 4.31 0 01-1.09-2.29c-.83-5.51-3.58-15.39-12.65-17.27a.87.87 0 01-.7-.85V473.8a.87.87 0 01.87-.88H257A.87.87 0 01257.83 473.8zM257.83 508.23v1.62a.87.87 0 01-.7.85c-9.07 1.88-11.82 11.76-12.65 17.27a4.25 4.25 0 01-1.1 2.29 4.36 4.36 0 01-3.23 1.42H200.36a4.4 4.4 0 01-3.24-1.42A4.31 4.31 0 01196 528c-.83-5.51-3.58-15.39-12.65-17.27a.87.87 0 01-.7-.85v-1.62a.87.87 0 01.87-.88H257A.87.87 0 01257.83 508.23zM257.83 542.66v1.62a.87.87 0 01-.7.85c-9.07 1.89-11.82 11.77-12.65 17.27a4.25 4.25 0 01-1.1 2.29 4.36 4.36 0 01-3.23 1.42H200.36a4.4 4.4 0 01-3.24-1.42A4.31 4.31 0 01196 562.4c-.83-5.5-3.58-15.38-12.65-17.27a.87.87 0 01-.7-.85v-1.62a.88.88 0 01.87-.88H257A.88.88 0 01257.83 542.66zM235.29 460.29a3.9 3.9 0 00-3.83-3.18H209.05a3.9 3.9 0 00-3.83 3.18l-.63 3.38h31.33z" class="color263347 svgShape"/><path fill="#241a0d" d="M243.38 472.92v22.91a4.36 4.36 0 01-3.23 1.42H200.36a4.4 4.4 0 01-3.24-1.42V472.92zM197.12 507.35h46.26v22.91a4.36 4.36 0 01-3.23 1.42H200.36a4.4 4.4 0 01-3.24-1.42zM197.12 541.78h46.26v22.91a4.36 4.36 0 01-3.23 1.42H200.36a4.4 4.4 0 01-3.24-1.42z" class="color0d1624 svgShape"/><rect width="41.3" height="115.07" x="199.6" y="461.98" fill="#473826" rx="5.47" class="color263347 svgShape"/><circle cx="220.25" cy="481.05" r="15.13" fill="#241a0d" transform="rotate(-45 220.256 481.047)" class="color0d1624 svgShape"/><circle cx="220.25" cy="481.05" r="13.23" fill="#fb600a" class="colored503b svgShape"/><circle cx="220.25" cy="519.52" r="15.13" fill="#241a0d" transform="rotate(-45 220.26 519.515)" class="color0d1624 svgShape"/><circle cx="220.25" cy="519.52" r="13.23" fill="#ffa719" class="colorffb219 svgShape"/><circle cx="220.25" cy="557.98" r="15.13" fill="#241a0d" transform="rotate(-45 220.252 557.979)" class="color0d1624 svgShape"/><circle cx="220.25" cy="557.98" r="13.23" fill="#ba8138" class="colora4ba38 svgShape"/><path fill="#c9591b" d="M229.48,471.58a15.33,15.33,0,0,1,.92,5.27,15.49,15.49,0,0,1-15.48,15.49,16.37,16.37,0,0,1-1.72-.1,13.22,13.22,0,0,0,16.28-20.66Z" class="colorc92e1b svgShape"/><path fill="#d17705" d="M229.48,510a15.5,15.5,0,0,1-14.56,20.76,16.37,16.37,0,0,1-1.72-.09A13.23,13.23,0,0,0,229.48,510Z" class="colore67e00 svgShape"/><path fill="#ab6f22" d="M229.48,548.51a15.33,15.33,0,0,1,.92,5.27,15.49,15.49,0,0,1-15.48,15.49,16.37,16.37,0,0,1-1.72-.1,13.22,13.22,0,0,0,16.28-20.66Z" class="color94ab22 svgShape"/><path fill="#473826" d="M190.4,751.91h59.71a7.83,7.83,0,0,1,7.83,7.83v.78a0,0,0,0,1,0,0H182.56a0,0,0,0,1,0,0v-.78A7.83,7.83,0,0,1,190.4,751.91Z" class="color263347 svgShape"/><path fill="#473826" d="M245 745.76H195.52a4.91 4.91 0 00-4.91 4.91v6.6h59.28v-6.6A4.91 4.91 0 00245 745.76zM1164.09 758.13h-40.65a11.37 11.37 0 0111.37-11.37h17.9a11.38 11.38 0 0111.38 11.37z" class="color263347 svgShape"/><path fill="#473826" d="M1160.17,758.13h-32.82V706a16.41,16.41,0,0,1,16.41-16.41h0A16.41,16.41,0,0,1,1160.17,706Z" class="color263347 svgShape"/><polygon fill="#473826" points="1149.29 704.44 1138.24 704.44 1141.39 465.25 1146.13 465.25 1149.29 704.44" class="color263347 svgShape"/><path fill="#ffa719" d="M1165.69,426.18h-43.86c-1.14,40.72,19.56,40.72,19.56,40.72h4.74S1166.83,466.9,1165.69,426.18Z" class="colorffcd19 svgShape"/><path fill="#ffa719" d="M1148,456.42h-4.73s-17,0-19.34-30.24h-2.06c-1.14,40.72,19.56,40.72,19.56,40.72h4.74s16.54,0,19.24-29.1C1160.25,456.41,1148,456.42,1148,456.42Z" class="colorffb219 svgShape"/><path fill="#473826" d="M1162.16 422.61H1125.4l-3.57 3.57h43.91zM1164 422.61s-12-9.13-20.17-9.25c-8.18.12-20.16 9.25-20.16 9.25h20.14v-.08l0 .08z" class="color263347 svgShape"/><polygon fill="#473826" points="1149.29 469.23 1138.24 469.23 1130.69 461.27 1156.84 461.27 1149.29 469.23" class="color263347 svgShape"/><path fill="#473826" d="M1140.88,413.36c0,2.31,1.3,4.19,2.9,4.19s2.91-1.88,2.91-4.19-1.3-4.19-2.91-4.19S1140.88,411,1140.88,413.36Z" class="color263347 svgShape"/><rect width="12.24" height="7.76" x="1137.64" y="515.6" fill="#473826" class="color263347 svgShape"/><path fill="#ffffff" d="M497 266.67a37.39 37.39 0 00-35.4-14c.6-.14-1.32-.15-.72-.3A13.52 13.52 0 00438.24 238c-1.23-18.78-18.48-35.11-37.3-35.3s-36.4 15.79-38 34.54a17.58 17.58 0 00-23.74 24.52c-8.1-4.47-19.84 1.52-21 10.7l212.62.05C520 269.47 508.29 266.53 497 266.67zM861.45 266.67a37.39 37.39 0 0135.4-14c-.59-.14 1.32-.15.73-.3A13.52 13.52 0 01920.26 238c1.22-18.78 18.47-35.11 37.3-35.3s36.39 15.79 38 34.54a17.57 17.57 0 0123.73 24.52c8.1-4.47 19.84 1.52 21 10.7l-212.62.05C838.48 269.47 850.2 266.53 861.45 266.67zM734.81 135.61a29 29 0 00-27.5-10.86c.47-.12-1-.12-.56-.24a10.5 10.5 0 00-17.61-11.2c-1-14.59-14.35-27.27-29-27.41s-28.27 12.26-29.52 26.82a13.65 13.65 0 00-18.43 19c-6.29-3.47-15.41 1.19-16.29 8.32l165.14 0C752.65 137.78 743.55 135.49 734.81 135.61z" class="colorfff svgShape"/><path fill="#b05d2c" d="M735.21 238.08s3.38 7.68 9.11 10.9c.39-.7 2.91.24 2.74 1 6.44 1.32 14-2.27 14-2.27-4.56 5.45-14.44 4.64-14.44 4.64l2.29 1.8a7.73 7.73 0 01-4.66.06h0l-.63-.24h0a7.74 7.74 0 01-3.49-3.1l2.92.14S735.08 245.19 735.21 238.08zM572.55 256.14s4.89 2 8.9.95c-.13-.49 1.42-1.16 1.69-.73 3.49-2.22 5.36-7.17 5.36-7.17.32 4.47-4.51 8.42-4.51 8.42l1.83-.19a5 5 0 01-2.09 2.07h0l-.39.17h0a4.93 4.93 0 01-2.94.12l1.39-1.21S575.6 259.41 572.55 256.14zM639.61 303.84s10.23 6 19.47 5c-.13-1.12 3.52-2.13 4-1.09 8.47-3.81 14.21-14.2 14.21-14.2-.72 10-12.73 17.26-12.73 17.26l4.13.17a11 11 0 01-5.3 3.92h0c-.31.09-.61.18-.92.25h0a11.07 11.07 0 01-6.56-.67l3.46-2.26S645.34 312.09 639.61 303.84z" class="color2ca3b0 svgShape"/></g></svg>