<svg xmlns="http://www.w3.org/2000/svg" data-name="Layer 1" viewBox="0 0 700 550"><path fill="#f9f8f7" d="M265.305 403.89c-40.991 10.447-44.157 26.841-84.963 37.948-20.232 5.506-67.424 18.35-98.407-7.053-26.072-21.377-26.787-58.456-26.908-64.777-.764-39.7 17.897-49.375 43.85-108.627 12.77-29.152 14.157-48.118 22.058-85.072 5.988-28.001 23.74-53.51 52.354-71.223 45.336-28.066 98.159-10.985 106.964-8.14 44.58 14.415 48.74 40.007 85.705 64.777 84.416 56.571 159.398-12.097 226.223 37.87 44.432 33.224 65.792 104.346 44.521 157.393-25.03 62.423-105.277 90.298-162.117 83.779-47.048-5.397-58.819-32.152-130.552-39.864-22.553-2.423-47.752-4.904-78.728 2.99" class="colorf7f9f9 svgShape"/><path fill="#c66028" d="M267.015 281.222c0 26.407-47.283 166.788-47.283 166.788h-17.743s-65.026-130.875-65.026-166.788a65.026 65.026 0 0 1 130.052 0Z" class="colorc62831 svgShape"/><path fill="#fb600a" d="M284.757 281.222c0 35.913-65.025 166.788-65.025 166.788s-65.026-130.875-65.026-166.788a65.026 65.026 0 0 1 130.051 0Z" class="coloref403a svgShape"/><circle cx="219.732" cy="283.461" r="34.904" fill="#f2f1f0" class="colorf0f0f2 svgShape"/><path fill="#d17705" d="M406.025 131.052H283.923a15.788 15.788 0 0 0-15.738 15.747v285.463a15.788 15.788 0 0 0 15.738 15.747h122.102a15.796 15.796 0 0 0 15.747-15.747V146.8a15.796 15.796 0 0 0-15.747-15.747Zm7.637 300.077a10.632 10.632 0 0 1-10.597 10.598h-96.173a10.634 10.634 0 0 1-10.606-10.598V147.932a10.634 10.634 0 0 1 10.606-10.598h96.173a10.632 10.632 0 0 1 10.597 10.598Z" class="color585a66 svgShape"/><rect width="153.59" height="316.959" x="278.833" y="131.051" fill="#e69d71" rx="15.746" class="color71b8e6 svgShape"/><path fill="#d77f4b" d="M278.833 146.797v285.467a15.792 15.792 0 0 0 15.746 15.746h52.524l12.93-6.283c-52.587-7.946-53.074-304.393-53.074-304.393l-7.756-6.283h-4.624a15.792 15.792 0 0 0-15.746 15.746Z" class="color4b9dd7 svgShape"/><path fill="#3c3832" d="M416.677 131.052H294.574a15.788 15.788 0 0 0-15.738 15.747v285.463a15.788 15.788 0 0 0 15.738 15.747h122.103a15.796 15.796 0 0 0 15.746-15.747V146.8a15.796 15.796 0 0 0-15.746-15.747Zm7.637 300.077a10.632 10.632 0 0 1-10.598 10.598H297.544a10.634 10.634 0 0 1-10.607-10.598V147.932a10.634 10.634 0 0 1 10.607-10.598h116.172a10.632 10.632 0 0 1 10.598 10.598ZM432.423 171.763h2.835a2.65 2.65 0 0 1 2.65 2.65v22.763a2.65 2.65 0 0 1-2.65 2.65h-2.835v-28.063ZM278.833 225.57h-2.836a2.65 2.65 0 0 1-2.65-2.65v-22.763a2.65 2.65 0 0 1 2.65-2.65h2.836v28.063ZM278.833 265.26h-2.836a2.65 2.65 0 0 1-2.65-2.65v-22.764a2.65 2.65 0 0 1 2.65-2.65h2.836v28.063Z" class="color32333c svgShape"/><path fill="#3c3832" d="M362.624 146.898h-20.511a1.987 1.987 0 0 1 0-3.975h20.51a1.987 1.987 0 1 1 0 3.975Z" class="color32333c svgShape"/><path fill="#f2f1f0" d="M394.304 151.548h20.51v3.975h-20.51z" class="colorf0f0f2 svgShape"/><circle cx="370.449" cy="144.91" r="1.684" fill="#3c3832" class="color32333c svgShape"/><circle cx="355.628" cy="426.307" r="10.255" fill="#3c3832" class="color32333c svgShape"/><path fill="#f2f1f0" d="M297.215 229.033h117.021v71.548H297.215z" class="colorf0f0f2 svgShape"/><path fill="#dddddd" d="M309.751 229.033h-12.536v71.548h17.89c-2.445-24.307-4.156-48.987-5.354-71.548Z" class="colorddd svgShape"/><path fill="#dcbfad" d="M336.116 293.32c-3.953-2.915-5.583-2.16-8.108-4.929-2.934-3.217-3.256-6.913-2.703-10.772 1.172-8.193.573-14.696-5.227-18.036-5.42-3.12-10.525-2.09-18.305 1.779a18.847 18.847 0 0 0-4.558 3.197v36.022h45.725c-1.8-3.55-6.014-6.664-6.824-7.261Z" class="coloradd4dc svgShape"/><path fill="#c4a897" d="M301.773 261.362a18.848 18.848 0 0 0-4.558 3.197v36.022h17.89c-1.435-14.269-2.616-28.662-3.59-42.684a32.77 32.77 0 0 0-9.742 3.465Z" class="color97bfc4 svgShape"/><path fill="#dcbfad" d="M345.584 262.54a4.061 4.061 0 1 1 4.06-4.06 4.066 4.066 0 0 1-4.06 4.06Zm0-6.796a2.736 2.736 0 1 0 2.736 2.736 2.74 2.74 0 0 0-2.736-2.736Z" class="coloradd4dc svgShape"/><circle cx="345.583" cy="258.48" r="1.103" fill="#dcbfad" class="coloradd4dc svgShape"/><circle cx="306.959" cy="274.221" r="1.103" fill="#dddddd" class="colorddd svgShape"/><circle cx="397.587" cy="264.807" r="1.103" fill="#dcbfad" class="coloradd4dc svgShape"/><path fill="#dddddd" d="M306.959 278.282a4.061 4.061 0 1 1 4.06-4.062 4.066 4.066 0 0 1-4.06 4.062Zm0-6.798a2.736 2.736 0 1 0 2.736 2.736 2.739 2.739 0 0 0-2.736-2.736Z" class="colorddd svgShape"/><path fill="#dcbfad" d="M397.587 268.867a4.061 4.061 0 1 1 4.06-4.06 4.066 4.066 0 0 1-4.06 4.06Zm0-6.797a2.736 2.736 0 1 0 2.736 2.736 2.739 2.739 0 0 0-2.736-2.736ZM377.871 239.93a4.061 4.061 0 1 1 4.061-4.06 4.066 4.066 0 0 1-4.06 4.06Zm0-6.797a2.736 2.736 0 1 0 2.736 2.736 2.739 2.739 0 0 0-2.736-2.736Z" class="coloradd4dc svgShape"/><path fill="#dcbfad" d="M414.24 271.484h-28.473l28.473 28.172v.927h-.953l-29.322-29.022h-38.521v29.022h-1.322v-29.502l-11.112-19.05-22.603-5.664-13.19-16.279v-1.055h.859l13.086 16.158 22.706 5.681 11.293 19.368h38.1v-41.207h1.322v41.13h29.657v1.321z" class="coloradd4dc svgShape"/><path fill="#c4a897" d="m310.641 244.548-12.565-15.515h-.859v1.055l13.19 16.279.351.088-.117-1.907Z" class="color97bfc4 svgShape"/><path fill="#fb600a" d="M350.373 208.708c0 9.351-16.933 43.432-16.933 43.432s-16.933-34.08-16.933-43.432a16.933 16.933 0 1 1 33.866 0Z" class="coloref403a svgShape"/><circle cx="333.44" cy="209.291" r="9.089" fill="#f2f1f0" class="colorf0f0f2 svgShape"/><path fill="#dcbfad" d="M356.388 297.48h-8.068v-22.55h8.068Zm-6.743-1.325h5.418v-19.9h-5.418Z" class="coloradd4dc svgShape"/><path fill="#f2f1f0" d="M296.553 166.759h117.021v15.357H296.553z" class="colorf0f0f2 svgShape"/><path fill="#dddddd" d="M307.396 166.759h-10.843v15.357h11.253c-.167-5.528-.302-10.674-.41-15.357Z" class="colorddd svgShape"/><path fill="#f2f1f0" d="M296.553 312.85h117.021v95.902H296.553z" class="colorf0f0f2 svgShape"/><path fill="#dddddd" d="M316.409 312.85h-19.856v95.901h38.365c-8.483-24.218-14.392-59.133-18.509-95.901Z" class="colorddd svgShape"/><path fill="#fb600a" d="m412.564 179.595-4.016-5.31a4.419 4.419 0 1 0-1.99 1.515l4.012 5.302Zm-9.072-6.76a1.907 1.907 0 1 1 2.672.37 1.892 1.892 0 0 1-2.672-.37Z" class="coloref403a svgShape"/><path fill="#dcbfad" d="M404.803 327.996H375.07a1.287 1.287 0 1 1 0-2.574h29.733a1.287 1.287 0 0 1 0 2.574ZM364.1 327.996h-50.243a1.287 1.287 0 1 1 0-2.574H364.1a1.287 1.287 0 1 1 0 2.574Z" class="coloradd4dc svgShape"/><path fill="#c4a897" d="M317.9 325.422h-4.043a1.287 1.287 0 1 0 0 2.574h4.37q-.165-1.284-.327-2.574Z" class="color97bfc4 svgShape"/><path fill="#dcbfad" d="M404.803 349.938H375.07a1.287 1.287 0 1 1 0-2.574h29.733a1.287 1.287 0 0 1 0 2.574ZM343.43 361.18h-29.732a1.287 1.287 0 0 1 0-2.574h29.732a1.287 1.287 0 0 1 0 2.574Z" class="coloradd4dc svgShape"/><path fill="#c4a897" d="M322.787 358.606h-9.089a1.287 1.287 0 0 0 0 2.574h9.542q-.228-1.282-.453-2.574Z" class="color97bfc4 svgShape"/><path fill="#dcbfad" d="M369.108 349.938h-55.251a1.287 1.287 0 1 1 0-2.574h55.25a1.287 1.287 0 0 1 0 2.574Z" class="coloradd4dc svgShape"/><path fill="#c4a897" d="M320.95 347.364h-7.093a1.287 1.287 0 1 0 0 2.574h7.494q-.202-1.282-.4-2.574Z" class="color97bfc4 svgShape"/><path fill="#dcbfad" d="M404.803 338.695h-44.075a1.287 1.287 0 0 1 0-2.574h44.075a1.287 1.287 0 0 1 0 2.574ZM355.355 338.695H343.43a1.287 1.287 0 1 1 0-2.574h11.925a1.287 1.287 0 0 1 0 2.574ZM404.803 372.423h-7.394a1.287 1.287 0 1 1 0-2.575h7.394a1.287 1.287 0 0 1 0 2.575ZM329.438 383.665h-15.581a1.287 1.287 0 1 1 0-2.575h15.581a1.287 1.287 0 0 1 0 2.575Z" class="coloradd4dc svgShape"/><path fill="#c4a897" d="M313.857 383.665h13.952q-.298-1.277-.589-2.575h-13.363a1.287 1.287 0 1 0 0 2.575ZM319.82 372.423h-5.963a1.287 1.287 0 1 1 0-2.575h5.962a1.287 1.287 0 0 1 0 2.575Z" class="color97bfc4 svgShape"/><path fill="#dcbfad" d="M404.803 361.18h-26.076a1.287 1.287 0 1 1 0-2.574h26.076a1.287 1.287 0 0 1 0 2.574ZM338.978 338.695h-25.121a1.287 1.287 0 1 1 0-2.574h25.121a1.287 1.287 0 1 1 0 2.574Z" class="coloradd4dc svgShape"/><path fill="#c4a897" d="M318.45 336.12h-5.451a1.287 1.287 0 0 0 0 2.575h5.812q-.182-1.284-.361-2.574Z" class="color97bfc4 svgShape"/><path fill="#dcbfad" d="M373.798 361.18h-25.121a1.287 1.287 0 1 1 0-2.574h25.121a1.287 1.287 0 1 1 0 2.574ZM394.468 372.423h-68.686a1.287 1.287 0 0 1 0-2.575h68.686a1.287 1.287 0 0 1 0 2.575ZM404.803 383.665h-71.39a1.287 1.287 0 0 1 0-2.575h71.39a1.287 1.287 0 0 1 0 2.575ZM404.803 394.907h-90.946a1.287 1.287 0 1 1 0-2.574h90.946a1.287 1.287 0 0 1 0 2.574Z" class="coloradd4dc svgShape"/><path fill="#c4a897" d="M329.955 392.333h-16.098a1.287 1.287 0 1 0 0 2.574h16.79q-.35-1.274-.692-2.574Z" class="color97bfc4 svgShape"/><circle cx="305.412" cy="326.709" r="1.789" fill="#c4a897" class="color97bfc4 svgShape"/><circle cx="305.412" cy="337.408" r="1.789" fill="#c4a897" class="color97bfc4 svgShape"/><circle cx="305.412" cy="348.651" r="1.789" fill="#c4a897" class="color97bfc4 svgShape"/><circle cx="305.412" cy="360.165" r="1.789" fill="#c4a897" class="color97bfc4 svgShape"/><circle cx="305.412" cy="370.864" r="1.789" fill="#c4a897" class="color97bfc4 svgShape"/><circle cx="305.412" cy="393.62" r="1.789" fill="#c4a897" class="color97bfc4 svgShape"/><circle cx="305.412" cy="382.106" r="1.789" fill="#c4a897" class="color97bfc4 svgShape"/><path fill="#d17705" d="M549.403 368.497a3.485 3.485 0 0 1-2.218-.794l-122.96-100.845a3.5 3.5 0 0 1 4.44-5.412l122.96 100.845a3.5 3.5 0 0 1-2.222 6.206Z" class="color585a66 svgShape"/><circle cx="485.03" cy="318.111" r="64.622" fill="#e69d71" class="color71b8e6 svgShape"/><path fill="#d77f4b" d="M538.074 353.034a64.614 64.614 0 0 1-82.912-92.224 64.62 64.62 0 1 0 84.87 91.223c-.649.338-1.293.682-1.958 1Z" class="color4b9dd7 svgShape"/><path fill="#fbb890" d="M421.579 330.334a64.632 64.632 0 0 0 63.451 52.399q3.294 0 6.504-.326a32.373 32.373 0 0 1-9.088-14.062c-3.056-9.43.505-11.593-2.585-18.74-7.226-16.712-33.107-19.714-36.189-20.033-4.292-.444-13.815-1.425-22.093.762Z" class="colorffcb5c svgShape"/><path fill="#ffa30f" d="M488.602 382.628a65.984 65.984 0 0 0 2.932-.221 32.373 32.373 0 0 1-9.088-14.062c-2.63-8.114-.37-10.854-1.654-16.012a64.297 64.297 0 0 1-23.046-19.744 72.259 72.259 0 0 0-14.074-3.017c-4.292-.444-13.815-1.425-22.093.762a64.2 64.2 0 0 0 .55 2.568l.074.32q.292 1.217.63 2.414l.113.395q.343 1.19.728 2.362l.115.338c.271.806.554 1.607.856 2.399l.038.095a64.426 64.426 0 0 0 6.085 11.96c.077.12.152.241.23.36.412.626.837 1.242 1.268 1.852.126.178.252.356.38.533q.625.865 1.279 1.709.228.294.46.585.65.82 1.324 1.62c.161.191.327.378.49.567.462.532.927 1.061 1.405 1.578.14.15.285.297.426.447a65.008 65.008 0 0 0 5.295 5.02c.113.096.222.196.335.291.473.395.959.774 1.443 1.155.285.225.567.453.856.673.448.34.905.67 1.362.999.34.244.678.49 1.023.727.442.306.89.603 1.34.898q.56.368 1.13.725.658.412 1.327.81c.408.241.821.476 1.235.71.434.244.868.488 1.308.723.45.24.906.468 1.362.698.418.21.834.425 1.257.626.539.256 1.086.497 1.633.738.353.157.702.322 1.059.472q1.334.561 2.698 1.064c.32.118.646.221.968.334a63.78 63.78 0 0 0 1.875.634c.386.123.777.232 1.167.347.577.17 1.155.34 1.739.494.41.108.822.208 1.235.308.575.14 1.152.276 1.733.4q.63.135 1.263.257.883.171 1.774.317c.419.069.837.137 1.259.198.618.09 1.24.165 1.863.237.402.046.803.096 1.208.135.69.066 1.385.114 2.082.158.342.022.682.053 1.026.07 1.042.05 2.09.079 3.145.079.992 0 1.977-.03 2.958-.075l.614-.03Z" class="colorf29720 svgShape"/><path fill="#fbb890" d="M487.615 316.002c-.085-.897-1.571-18.739 8.078-21.972 6.253-2.095 14.607 2.808 16.802 8.724 1.136 3.061-.334 3.817.323 7.755 1.577 9.458 11.068 11.199 10.986 17.77-.06 4.848-5.282 8.58-8.401 10.017-7.82 3.602-15.405-1.251-16.479-1.938a21.721 21.721 0 0 1-6.785-7.432 30.439 30.439 0 0 1-4.524-12.924ZM425.008 294.172c6.23 3.011 14.193 3.562 19.957.828 9.187-4.36 7.578-14.591 17.77-18.418 5.945-2.23 7.984.688 18.418-1.615 6.467-1.428 12.53-2.766 14.863-7.109 1.96-3.649.972-8.843-1.567-13.678a64.612 64.612 0 0 0-69.441 39.992Z" class="colorffcb5c svgShape"/><path fill="#ffa30f" d="M445.502 294.724a64.943 64.943 0 0 1 9.66-33.914q-1.909.997-3.74 2.116l-.109.067q-.861.528-1.705 1.082l-.19.127q-.812.537-1.607 1.097c-.08.056-.158.113-.237.17q-.774.551-1.532 1.123l-.251.195c-.498.381-.993.767-1.48 1.162-.077.063-.152.128-.229.192q-1.904 1.561-3.681 3.265c-.342.327-.685.652-1.02.986-.168.168-.331.342-.498.512-.377.385-.752.77-1.12 1.164-.139.15-.274.302-.411.453-.39.426-.777.855-1.156 1.292-.112.13-.222.262-.333.392q-.603.707-1.187 1.43c-.083.102-.165.207-.247.31q-.625.786-1.226 1.591l-.153.206q-.654.885-1.28 1.792l-.04.058a64.524 64.524 0 0 0-6.722 12.58c6.23 3.011 14.193 3.562 19.957.828.186-.089.36-.183.537-.276Z" class="colorf29720 svgShape"/><path fill="#fbb890" d="M545.495 295.293a14.784 14.784 0 0 0-4.567 5.846c-1.636 4.099-.412 8.312.647 11.955 1.457 5.016 3.405 7.013 7.48 13.695a65.112 65.112 0 0 0 .597-8.678 64.453 64.453 0 0 0-4.157-22.818Z" class="colorffcb5c svgShape"/><path fill="#d17705" d="M558.643 348.717a3.229 3.229 0 0 0-4.29 1.57 76.425 76.425 0 1 1-115.309-93.218 3.23 3.23 0 1 0-3.886-5.16 83.302 83.302 0 0 0-33.014 66.202 83.308 83.308 0 0 0 75.387 82.533v47.366h15v-47.37a83.189 83.189 0 0 0 67.681-47.633 3.23 3.23 0 0 0-1.569-4.29Z" class="color585a66 svgShape"/><path fill="#d17705" d="M550.577 336.616a3.51 3.51 0 0 0 .19-.664 67.922 67.922 0 0 0-7.23-52.687 3.46 3.46 0 0 0-.274-.472 68.449 68.449 0 0 0-37.455-29.552 3.492 3.492 0 0 0-1.437-.439 67.92 67.92 0 0 0-38.87.054c-.022.005-.043.013-.066.019a68.425 68.425 0 0 0-38.695 30.016c-.036.058-.068.118-.102.178a68.014 68.014 0 0 0-7.48 52.398 3.493 3.493 0 0 0 .436 1.537 68.391 68.391 0 0 0 45.609 46.277c.062.019.124.037.187.053a67.937 67.937 0 0 0 38.96.092 3.512 3.512 0 0 0 1.525-.468 68.393 68.393 0 0 0 44.702-46.342Zm-39.38 36.72a140.317 140.317 0 0 0 8.79-25.919 137.116 137.116 0 0 0 21.523-5.963 61.482 61.482 0 0 1-30.313 31.882Zm33.161-40.542a124.898 124.898 0 0 1-22.847 7.123 131.54 131.54 0 0 0-.263-46.346 161.049 161.049 0 0 0 17.518-4.569 61.017 61.017 0 0 1 5.592 43.792Zm-88.346-38.167a196.132 196.132 0 0 0 30.251 2.377 179.171 179.171 0 0 0 28.095-2.19 124.598 124.598 0 0 1-.221 46.46c-21.29 3.333-41.961 1.7-58.136-1.06a124.573 124.573 0 0 1 .011-45.587Zm78.916-11.751a151.926 151.926 0 0 1-15.147 3.824 127.983 127.983 0 0 0-8.135-23.603 61.52 61.52 0 0 1 23.282 19.779Zm-33.063-23.51a113.962 113.962 0 0 1 11.007 28.551 184.648 184.648 0 0 1-55.346-.264 113.61 113.61 0 0 1 10.996-28.38 60.812 60.812 0 0 1 33.343.092Zm-43.1 3.565a127.798 127.798 0 0 0-8.156 23.54c-6.746-1.28-12.04-2.658-15.443-3.641a61.512 61.512 0 0 1 23.599-19.9Zm-27.47 26.072a165.835 165.835 0 0 0 17.82 4.416 131.547 131.547 0 0 0-.467 45.41 193.567 193.567 0 0 1-22.967-6.13 61 61 0 0 1 5.615-43.696Zm-2.938 51.958a208.573 208.573 0 0 0 21.755 5.442 140.169 140.169 0 0 0 9.094 27.088 61.465 61.465 0 0 1-30.85-32.53Zm40.3 36.026a135.842 135.842 0 0 1-11.036-29.252 200.832 200.832 0 0 0 31.39 2.551 168.039 168.039 0 0 0 23.46-1.614 136.013 136.013 0 0 1-10.748 28.225 60.816 60.816 0 0 1-33.066.09ZM459.537 427.937h50.594v20.073h-50.594z" class="color585a66 svgShape"/><path fill="#fb600a" d="M530.357 222.02c-3.312 11.057-35.403 45.352-35.403 45.352s-7.949-46.29-4.636-57.347a20.899 20.899 0 1 1 40.04 11.995Z" class="coloref403a svgShape"/><circle cx="510.131" cy="216.712" r="11.218" fill="#f2f1f0" class="colorf0f0f2 svgShape"/><path fill="#fb600a" d="M459.5 314.13c.697 6.45-8.441 31.22-8.441 31.22s-14.22-22.244-14.918-28.694a11.747 11.747 0 0 1 23.358-2.526Z" class="coloref403a svgShape"/><circle cx="447.863" cy="315.795" r="6.306" fill="#f2f1f0" class="colorf0f0f2 svgShape"/><path fill="#282522" d="M144.717 448h5.386v4h-5.386zM152.983 448h11.679v4h-11.679zM167.502 448h61.161v4h-61.161zM232.503 448h210.645v4H232.503zM446.965 448h92.896v4h-92.896zM545.301 448h9.981v4h-9.981z" class="color222328 svgShape"/></svg>