<svg xmlns="http://www.w3.org/2000/svg" enable-background="new 0 0 2109.1 2500" viewBox="0 0 2109.1 2500"><path fill="#ffa30f" d="M1853.1 1054.3c-1.1-1.9-2.2-3.8-3.4-5.6-.4-.6-.8-1.2-1.2-1.8-.8-1.2-1.6-2.5-2.4-3.7-.5-.7-1-1.4-1.5-2.1-.8-1.1-1.5-2.2-2.3-3.2-.5-.7-1.1-1.5-1.7-2.2-.8-1-1.5-2-2.3-3-.2-.3-.4-.6-.7-.9-.4-.5-.9-1-1.3-1.6-.6-.7-1.2-1.5-1.8-2.2-.7-.8-1.4-1.7-2.1-2.5-.6-.7-1.3-1.4-1.9-2.1-.7-.8-1.5-1.6-2.2-2.4-.6-.7-1.3-1.4-2-2.1-.8-.8-1.6-1.6-2.3-2.4-.7-.7-1.3-1.3-2-2-.2-.2-.4-.4-.5-.5-.6-.6-1.2-1.1-1.8-1.7-.8-.7-1.5-1.4-2.3-2.1-.8-.7-1.6-1.4-2.4-2.1-.8-.7-1.6-1.4-2.4-2.1-.8-.7-1.7-1.4-2.5-2.1-.8-.7-1.6-1.3-2.4-2-.8-.7-1.7-1.3-2.6-2-.8-.6-1.7-1.3-2.5-1.9-.2-.1-.4-.3-.6-.4-.8-.6-1.6-1.1-2.4-1.7-.7-.5-1.4-1.1-2.2-1.6-1.1-.7-2.1-1.5-3.2-2.2-.7-.5-1.4-1-2.1-1.4-1.2-.8-2.4-1.6-3.6-2.3-.6-.4-1.2-.8-1.8-1.2-1.8-1.1-3.7-2.3-5.6-3.4-1.7-1-3.4-1.9-5.1-2.8-.4-.2-.8-.4-1.2-.7-.4-.2-.8-.4-1.2-.6-1.2-.6-2.4-1.2-3.5-1.8-.1 0-.2-.1-.3-.1-1.6-.8-3.2-1.5-4.8-2.3-.4-.2-.9-.4-1.3-.6-1.3-.6-2.6-1.1-3.9-1.6-.3-.1-.6-.3-.9-.4-1.5-.6-3-1.2-4.5-1.7-.4-.1-.7-.2-1.1-.4-1.2-.4-2.4-.8-3.5-1.1-.4-.1-.7-.2-1.1-.3-1.3-.4-2.7-.8-3.9-1.1-.1 0-.1 0-.2 0-1.7-.4-3.3-.7-4.9-1-.3-.1-.6-.1-1-.1-1.3-.2-2.5-.4-3.8-.5-.6-.1-1.1-.1-1.6-.1-1-.1-2-.1-2.9-.2-.6 0-1.2 0-1.7 0-.9 0-1.8 0-2.6.1-.6 0-1.2.1-1.7.1-.8.1-1.7.2-2.5.3-.6.1-1.1.2-1.6.3-.8.2-1.6.4-2.4.6-.5.1-1 .3-1.5.4-.9.3-1.7.6-2.5.9-.4.2-.8.3-1.2.5-1.2.5-2.4 1.1-3.5 1.7-.2.1-.5.3-.7.4l-43.1 25c.2-.1.5-.3.7-.4 0 0 0 0 0 0 0 0 0 0 0 0-17 9.4-25.6 31.4-25.7 65.8l-.2 53.4c-.1 34.5 8.3 66.2 25.2 95.2 16.9 29 40.9 52.5 71.9 70.4 31 17.9 55 22.2 72 12.9.4-.2.8-.5 1.2-.7-.1.1-.2.1-.3.2l43.1-25c16.4-9.6 24.7-31.4 24.8-65.6l.1-52.6C1878.2 1115.3 1869.9 1083.3 1853.1 1054.3zM1581.8 532c-.4-.6-.8-1.2-1.2-1.8-.8-1.2-1.6-2.5-2.4-3.7-.5-.7-1-1.4-1.5-2.1-.8-1.1-1.5-2.2-2.3-3.2-.5-.7-1.1-1.5-1.6-2.2-.8-1-1.5-2-2.3-3-.2-.3-.4-.6-.7-.9-.4-.5-.9-1-1.3-1.6-.6-.7-1.2-1.5-1.8-2.2-.7-.8-1.4-1.7-2.1-2.5-.6-.7-1.3-1.4-1.9-2.1-.7-.8-1.5-1.6-2.2-2.4-.7-.7-1.3-1.4-2-2.1-.8-.8-1.6-1.6-2.3-2.4-.7-.7-1.3-1.3-2-2-.2-.2-.4-.4-.5-.5-.6-.6-1.2-1.1-1.8-1.7-.8-.7-1.5-1.4-2.3-2.1-.8-.7-1.6-1.4-2.4-2.1-.8-.7-1.6-1.4-2.4-2.1-.8-.7-1.6-1.4-2.5-2.1-.8-.7-1.6-1.3-2.5-2-.8-.7-1.7-1.3-2.6-2-.8-.6-1.7-1.3-2.5-1.9-.2-.1-.4-.3-.6-.4-.8-.6-1.6-1.1-2.4-1.7-.7-.5-1.4-1.1-2.2-1.6-1.1-.7-2.1-1.5-3.2-2.2-.7-.5-1.4-1-2.1-1.4-1.2-.8-2.4-1.6-3.7-2.3-.6-.4-1.2-.8-1.8-1.1-1.8-1.1-3.7-2.3-5.6-3.4-1.7-1-3.4-1.9-5.1-2.8-.4-.2-.8-.4-1.2-.7-.4-.2-.8-.4-1.2-.6-1.2-.6-2.4-1.2-3.6-1.8-.1 0-.1-.1-.2-.1-1.6-.8-3.2-1.6-4.8-2.3-.4-.2-.8-.4-1.3-.6-1.3-.6-2.6-1.1-3.9-1.7-.3-.1-.6-.2-.9-.4-1.5-.6-3-1.2-4.5-1.7-.4-.1-.7-.2-1.1-.4-1.2-.4-2.4-.8-3.5-1.1-.4-.1-.7-.2-1.1-.3-1.3-.4-2.6-.8-3.9-1.1-.1 0-.1 0-.2 0-1.7-.4-3.3-.7-4.9-1-.3-.1-.6-.1-.9-.1-1.3-.2-2.6-.4-3.8-.5-.5-.1-1.1-.1-1.6-.1-1-.1-2-.1-2.9-.2-.6 0-1.2 0-1.7 0-.9 0-1.8 0-2.6.1-.6 0-1.2.1-1.7.1-.8.1-1.7.2-2.5.3-.6.1-1.1.2-1.6.3-.8.2-1.6.4-2.4.6-.5.1-1 .3-1.5.4-.9.3-1.7.6-2.5.9-.4.2-.8.3-1.2.5-1.2.5-2.4 1.1-3.5 1.7-.2.1-.5.3-.7.4l-43.1 25c.2-.1.5-.3.7-.4-17 9.4-25.6 31.4-25.7 65.8l-.2 53.4c-.1 34.5 8.3 66.2 25.2 95.2 16.9 29 40.9 52.5 71.9 70.4 31 17.9 55 22.2 72 12.9.4-.2.8-.5 1.2-.7-.1.1-.2.1-.3.2l43.1-25c16.4-9.6 24.7-31.4 24.8-65.6l.1-52.6c.1-35-8.2-67-25-96C1584.2 535.7 1583 533.8 1581.8 532z" class="colorAEC7E6 svgShape"/><polygon fill="#ffa30f" points="1511.8 1144.5 1554.9 1119.5 1839.3 661.4 1746.7 607.9 1703.6 633 1419.3 1091.1" class="colorAEC7E6 svgShape"/><path fill="#ffa30f" d="M2108.9,1571.8c0-0.5-0.1-1.1-0.2-1.6c-0.1-0.7-0.1-1.5-0.2-2.2c0-0.3-0.1-0.7-0.2-1    c-0.2-1.2-0.4-2.4-0.6-3.6c-0.1-0.6-0.2-1.1-0.3-1.7c-0.1-0.3-0.1-0.6-0.2-0.9c-0.2-0.8-0.4-1.6-0.6-2.3c-0.2-0.7-0.3-1.4-0.5-2    c-0.1-0.4-0.3-0.8-0.4-1.2c-0.2-0.6-0.4-1.3-0.6-1.9c-0.2-0.5-0.3-1-0.5-1.5c-0.2-0.7-0.5-1.4-0.8-2.2c-0.2-0.5-0.3-1-0.5-1.5    c-0.1-0.2-0.2-0.5-0.3-0.7c-0.5-1.4-1.1-2.8-1.7-4.1c0-0.1-0.1-0.1-0.1-0.2c-0.1-0.2-0.2-0.5-0.3-0.7c-0.5-1-0.9-2.1-1.4-3.1    c-0.2-0.4-0.4-0.8-0.6-1.2c-0.2-0.5-0.5-0.9-0.7-1.4c-0.2-0.4-0.4-0.9-0.7-1.3c-0.5-1-1-1.9-1.6-2.8c-0.2-0.3-0.3-0.5-0.4-0.8    c0-0.1-0.1-0.2-0.1-0.3c-0.8-1.3-1.6-2.6-2.4-3.9c-0.1-0.2-0.2-0.4-0.4-0.5c-0.3-0.5-0.6-0.9-0.9-1.3c-0.5-0.7-0.9-1.4-1.4-2.1    c-0.3-0.4-0.6-0.8-0.9-1.2c-0.4-0.6-0.9-1.2-1.3-1.8c-0.3-0.4-0.6-0.8-0.9-1.3c-0.4-0.5-0.8-0.9-1.1-1.4c-0.6-0.7-1.2-1.5-1.8-2.2    c-0.3-0.3-0.5-0.7-0.8-1c-0.3-0.4-0.6-0.7-1-1c-1-1.1-2-2.2-3.1-3.3c-0.3-0.3-0.7-0.7-1-1.1c-0.3-0.3-0.6-0.6-0.9-0.9    c-0.5-0.5-1-1-1.5-1.4c-0.9-0.8-1.7-1.5-2.6-2.3c-0.5-0.4-1-0.9-1.6-1.3c-0.9-0.8-1.9-1.5-2.9-2.2c-0.5-0.3-0.9-0.7-1.4-1    c-1.4-1-2.9-1.9-4.4-2.8l-787.9-454.9l-1.6-546.8c-0.5-180-44.6-295.3-132.4-345.9c0.2,0.1,0.4,0.2,0.5,0.3L930.8,27.4    c-1.8-1.1-3.7-2.1-5.5-3.1c-2.6-1.4-5.2-2.7-7.9-4c-0.8-0.4-1.6-0.8-2.5-1.1c-1.9-0.9-3.8-1.7-5.8-2.6c-0.9-0.4-1.8-0.8-2.7-1.1    c-2.1-0.8-4.2-1.6-6.3-2.4c-0.7-0.3-1.4-0.5-2.1-0.8c-0.2-0.1-0.4-0.2-0.7-0.2c-2.5-0.9-5.1-1.7-7.7-2.5c-0.7-0.2-1.3-0.4-2-0.6    c-2.2-0.7-4.5-1.3-6.8-1.9c-0.8-0.2-1.7-0.4-2.5-0.6c-2.6-0.6-5.3-1.2-8-1.8c-0.3-0.1-0.6-0.1-0.9-0.2c-0.1,0-0.1,0-0.2,0    c-2.9-0.6-5.8-1.1-8.8-1.5c-0.6-0.1-1.1-0.2-1.7-0.3c-3-0.4-5.9-0.8-8.9-1.2c-0.6-0.1-1.1-0.1-1.7-0.2c-1-0.1-2-0.2-3.1-0.3    c-1-0.1-2.1-0.1-3.1-0.2c-1.9-0.1-3.8-0.3-5.8-0.4c-1.7-0.1-3.4-0.2-5.2-0.2c-2-0.1-3.9-0.1-5.9-0.1c-0.8,0-1.6-0.1-2.5-0.1    c-1,0-2,0-3,0c-1.7,0-3.5,0-5.3,0.1c-1.9,0-3.9,0.1-5.8,0.2c-1.8,0.1-3.6,0.2-5.4,0.3c-0.8,0.1-1.6,0.1-2.4,0.1    c-1.2,0.1-2.5,0.2-3.7,0.3c-1.7,0.1-3.3,0.3-5,0.4c-2.1,0.2-4.3,0.4-6.4,0.7c-1.7,0.2-3.3,0.4-5,0.6c-0.6,0.1-1.1,0.1-1.7,0.2    c-1.7,0.2-3.5,0.5-5.2,0.8c-1.5,0.2-3.1,0.4-4.6,0.7c-2.5,0.4-5.1,0.9-7.7,1.4c-1.4,0.2-2.7,0.5-4.1,0.7c-0.2,0-0.4,0.1-0.7,0.1    c-3.3,0.7-6.7,1.4-10.1,2.1c-0.4,0.1-0.8,0.2-1.2,0.2c-3.8,0.9-7.7,1.8-11.6,2.8c-0.2,0-0.4,0.1-0.5,0.1c-1.4,0.3-2.7,0.7-4.1,1.1    c-2.8,0.7-5.6,1.4-8.4,2.2c-1.6,0.5-3.3,1-5,1.4c-2,0.6-4,1.1-6,1.7c-0.5,0.2-1.1,0.4-1.7,0.5c-1.9,0.6-3.8,1.2-5.7,1.8    c-2.4,0.8-4.9,1.5-7.3,2.4c-2,0.7-3.9,1.3-5.9,2c-1.6,0.5-3.2,1.1-4.8,1.6c-0.8,0.3-1.7,0.6-2.5,0.9c-2.2,0.8-4.3,1.6-6.5,2.4    c-2.4,0.9-4.8,1.8-7.2,2.7c-2.2,0.8-4.4,1.7-6.7,2.6c-1.4,0.6-2.9,1.1-4.3,1.7c-1,0.4-1.9,0.8-2.9,1.2c-2.5,1-4.9,2-7.4,3.1    c-2.3,1-4.7,2-7.1,3c-2.5,1.1-5,2.2-7.5,3.3c-1.5,0.7-3,1.3-4.5,1.9c-1.4,0.6-2.9,1.3-4.4,2c-0.6,0.3-1.3,0.6-1.9,0.9    c-4.3,2-8.6,4-13,6.1c-0.7,0.3-1.4,0.7-2.2,1c-3.6,1.7-7.2,3.5-10.9,5.3c-0.7,0.4-1.5,0.7-2.2,1.1c-0.8,0.4-1.6,0.8-2.4,1.2    c-4.5,2.3-9.1,4.6-13.7,7c-0.4,0.2-0.8,0.4-1.1,0.6c-4.5,2.3-9,4.7-13.6,7.2c-0.6,0.3-1.1,0.6-1.7,0.9c-0.3,0.2-0.7,0.4-1,0.5    c-3.1,1.7-6.3,3.5-9.5,5.2c-1.7,1-3.4,1.9-5.2,2.8c-5.2,2.9-10.4,5.9-15.7,8.9l0,0c-3.2,1.8-6.3,3.7-9.5,5.5    c-0.9,0.5-1.8,1.1-2.7,1.6c-4.4,2.6-8.8,5.2-13.2,7.9c-1.7,1-3.4,2-5.1,3.1c-6,3.7-11.9,7.4-17.8,11.1c-0.2,0.1-0.3,0.2-0.5,0.3    c-1,0.7-2,1.3-3.1,2c-4.5,2.9-8.9,5.7-13.3,8.6c-2,1.3-3.9,2.6-5.9,3.9c-3.6,2.4-7.2,4.8-10.8,7.3c-0.9,0.6-1.8,1.2-2.7,1.8    c-1.2,0.9-2.5,1.7-3.7,2.6c-3.2,2.2-6.3,4.4-9.5,6.6c-2.2,1.5-4.3,3.1-6.5,4.6c-3.2,2.3-6.3,4.5-9.4,6.8c-1.4,1-2.8,2-4.1,3    c-0.7,0.5-1.4,1.1-2.1,1.6c-3,2.2-5.9,4.4-8.9,6.6c-2,1.5-4.1,3-6.1,4.6c-3.1,2.4-6.2,4.8-9.3,7.2c-1.5,1.2-3,2.3-4.5,3.5    c-0.3,0.2-0.6,0.5-0.9,0.7c-3,2.4-5.9,4.7-8.9,7.1c-1.7,1.4-3.5,2.8-5.2,4.2c-3.6,2.9-7.2,5.9-10.7,8.9c-1,0.8-2,1.6-3,2.5    c0,0-0.1,0.1-0.1,0.1c-3.3,2.8-6.5,5.6-9.7,8.4c-1.2,1-2.4,2-3.6,3.1c-4.4,3.8-8.7,7.7-13.1,11.6c0,0,0,0,0,0    c-4.2,3.8-8.3,7.6-12.5,11.4c-1.3,1.2-2.6,2.5-3.9,3.7c-2.7,2.5-5.4,5-8,7.5c-0.1,0.1-0.3,0.3-0.4,0.4c-1.1,1.1-2.2,2.2-3.3,3.2    c-2.8,2.7-5.6,5.4-8.4,8.2c-1.5,1.4-2.9,2.9-4.3,4.4c-1.9,1.9-3.7,3.7-5.6,5.6c-0.6,0.6-1.1,1.1-1.7,1.7c-1.3,1.4-2.7,2.8-4,4.1    c-2.4,2.4-4.7,4.9-7.1,7.4c-1.4,1.5-2.8,2.9-4.2,4.4c-1,1.1-2,2.1-3,3.2c-1.4,1.5-2.7,3-4.1,4.5c-1.2,1.3-2.3,2.5-3.5,3.8    c-2.9,3.2-5.8,6.4-8.6,9.7c-0.6,0.6-1.1,1.3-1.7,1.9c-0.1,0.1-0.2,0.2-0.3,0.3c-3.2,3.7-6.5,7.4-9.6,11.2    c-0.9,1.1-1.9,2.2-2.8,3.3c-1.5,1.8-3,3.6-4.5,5.4c-0.9,1-1.7,2.1-2.6,3.1c-1.1,1.3-2.2,2.7-3.3,4c-2.3,2.9-4.6,5.7-6.9,8.6    c-0.9,1.1-1.8,2.3-2.7,3.4c-0.3,0.4-0.7,0.8-1,1.3c-2.3,2.9-4.5,5.8-6.8,8.7c-0.6,0.8-1.3,1.7-2,2.5c-3,4-6,8-9,12    c-0.1,0.2-0.2,0.3-0.4,0.5c-3.7,5-7.3,10-10.9,15.1c-1,1.4-1.9,2.7-2.9,4.1c-2.6,3.8-5.2,7.5-7.8,11.3c-0.5,0.7-0.9,1.4-1.4,2    c-1.2,1.7-2.3,3.5-3.5,5.2c-1.2,1.9-2.5,3.7-3.7,5.6c-1.8,2.7-3.5,5.4-5.3,8.1c-1.1,1.8-2.3,3.5-3.4,5.3c-1.9,3-3.8,6-5.7,9.1    c-0.9,1.5-1.9,3-2.8,4.5c-2.8,4.5-5.5,9.1-8.2,13.7c-0.6,1-1.2,2.1-1.8,3.1c-0.8,1.4-1.6,2.8-2.4,4.2c-1.9,3.4-3.9,6.7-5.8,10.1    c-1.2,2.1-2.3,4.1-3.4,6.2c-1.8,3.2-3.6,6.5-5.3,9.7c-0.6,1.1-1.2,2.2-1.8,3.3c-0.7,1.4-1.5,2.8-2.2,4.2c-0.8,1.6-1.7,3.2-2.5,4.8    c-1.7,3.2-3.3,6.4-4.9,9.6c-0.7,1.3-1.4,2.7-2,4c-0.2,0.4-0.4,0.8-0.6,1.3c-1.9,3.9-3.8,7.8-5.7,11.7c-0.5,1-0.9,1.9-1.4,2.9    c-1,2.1-2,4.1-3,6.2c-0.4,0.9-0.8,1.7-1.2,2.6c-2.2,4.7-4.4,9.5-6.5,14.2c-0.4,1-0.9,1.9-1.3,2.9c-0.1,0.3-0.2,0.5-0.3,0.8    c-2.6,5.9-5.1,11.7-7.6,17.6c-0.2,0.4-0.3,0.7-0.5,1.1c-0.5,1.1-0.9,2.2-1.3,3.3c-1.9,4.6-3.7,9.2-5.5,13.8    c-0.4,0.9-0.8,1.9-1.1,2.8c-0.8,1.9-1.5,3.9-2.2,5.8c-0.4,1-0.8,2-1.2,3c-1.5,4-3,8.1-4.5,12.1c-0.2,0.4-0.3,0.9-0.5,1.3    c-0.4,1-0.7,2.1-1.1,3.1c-1.3,3.7-2.6,7.3-3.8,11c-0.4,1.3-0.9,2.6-1.3,3.9c-0.3,0.9-0.6,1.8-0.9,2.8c-1.1,3.3-2.2,6.5-3.2,9.8    c-0.2,0.5-0.3,1-0.5,1.5c-1.3,4-2.5,8-3.8,12c-0.2,0.6-0.4,1.3-0.6,1.9c-0.4,1.4-0.9,2.9-1.3,4.3c-1,3.4-2,6.8-3,10.2    c-0.5,1.6-0.9,3.2-1.4,4.8c-0.3,1.1-0.6,2.2-0.9,3.3c-0.7,2.4-1.3,4.7-1.9,7.1c-0.4,1.4-0.8,2.9-1.2,4.3    c-1.3,4.7-2.5,9.5-3.7,14.3c0,0.1,0,0.2-0.1,0.3c-0.2,0.7-0.3,1.3-0.5,2c-1,4.2-2.1,8.5-3,12.8c-0.4,1.7-0.8,3.3-1.1,5    c-0.5,2.2-1,4.4-1.5,6.6c-0.2,1.1-0.5,2.2-0.7,3.3c-0.4,2-0.8,3.9-1.2,5.9c-0.7,3.1-1.3,6.3-1.9,9.4c-0.4,2-0.8,3.9-1.1,5.9    c-0.2,1.1-0.4,2.1-0.6,3.2c-0.4,2.1-0.8,4.3-1.2,6.4c-0.4,2-0.7,3.9-1.1,5.9c-0.6,3.5-1.2,7.1-1.8,10.6c-0.3,1.6-0.5,3.2-0.8,4.8    c0,0.3-0.1,0.6-0.2,0.9c-0.7,4.4-1.4,8.9-2,13.3c-0.1,0.5-0.1,1-0.2,1.5c-0.7,5-1.4,10-2,15.1c0,0.2-0.1,0.5-0.1,0.7    c-0.2,2-0.5,3.9-0.7,5.9c-0.4,3.4-0.8,6.8-1.2,10.2c-0.2,2.2-0.5,4.4-0.7,6.7c-0.3,2.6-0.6,5.2-0.8,7.9c-0.1,0.5-0.1,1.1-0.1,1.6    c-0.3,2.7-0.5,5.5-0.7,8.2c-0.2,2.8-0.5,5.7-0.7,8.5c-0.2,2.7-0.4,5.5-0.6,8.2c-0.2,2.3-0.3,4.5-0.5,6.8c0,0.6-0.1,1.1-0.1,1.7    c-0.2,3.3-0.4,6.6-0.5,9.9c-0.1,2.5-0.3,5-0.4,7.5c-0.2,3.4-0.3,6.9-0.4,10.4c-0.1,2.1-0.2,4.1-0.2,6.2c0,0.3,0,0.6,0,0.9    c-0.1,3.9-0.2,7.8-0.3,11.7c0,2-0.1,3.9-0.1,5.9C0,974.8,0,980.7,0,986.6l2.6,927.7c0,0.8,0,1.5,0,2.3c0,4.4,0.1,8.7,0.2,13    c0,0.9,0,1.8,0,2.7c0.1,4.8,0.2,9.5,0.4,14.2c0,0.7,0.1,1.4,0.1,2.1c0.1,1.8,0.1,3.7,0.2,5.5c0.1,1.3,0.1,2.6,0.2,4    c0.1,3.3,0.3,6.5,0.5,9.7c0.1,2.3,0.3,4.7,0.4,7c0.2,3.2,0.4,6.3,0.7,9.5c0.1,1.4,0.2,2.9,0.3,4.3c0.1,0.8,0.2,1.6,0.2,2.4    c0.3,3,0.5,6,0.8,9c0.2,2.2,0.4,4.4,0.6,6.5c0.3,3.1,0.7,6.1,1,9.1c0.2,1.6,0.3,3.2,0.5,4.8c0.1,0.4,0.1,0.8,0.2,1.2    c0.4,3.1,0.8,6.2,1.3,9.2c0.3,1.8,0.5,3.6,0.8,5.4c0.5,3.6,1.1,7.2,1.7,10.7c0.2,1.1,0.3,2.2,0.5,3.2c0,0.1,0,0.1,0,0.2    c0.8,4.7,1.7,9.3,2.6,13.8c0.2,1.2,0.5,2.3,0.7,3.5c0.7,3.3,1.4,6.6,2.1,9.9c0.1,0.3,0.1,0.5,0.2,0.8c0.3,1.3,0.6,2.5,0.9,3.8    c0.7,2.9,1.4,5.8,2.1,8.7c0.4,1.7,0.9,3.4,1.4,5.1c0.7,2.6,1.4,5.2,2.1,7.7c0.2,0.6,0.3,1.3,0.5,1.9c0.7,2.5,1.5,4.9,2.2,7.3    c0.1,0.3,0.2,0.6,0.3,0.9c1,3.3,2.1,6.5,3.2,9.7c0.2,0.5,0.3,1,0.5,1.5c0.9,2.5,1.7,5,2.6,7.4c0.3,0.7,0.5,1.4,0.8,2    c0.3,0.8,0.6,1.5,0.9,2.3c1.2,3,2.4,6.1,3.6,9c0.1,0.2,0.1,0.3,0.2,0.5c1.3,3.1,2.6,6.1,4,9.1c0.3,0.7,0.7,1.4,1,2.2    c0.3,0.7,0.7,1.5,1,2.2c0.8,1.6,1.5,3.1,2.3,4.7c0.4,0.8,0.8,1.6,1.2,2.4c1.5,2.9,3,5.8,4.6,8.7c0.3,0.5,0.6,1.1,0.9,1.6    c1.3,2.3,2.6,4.5,3.9,6.8c0.5,0.9,1.1,1.8,1.7,2.7c0.6,1,1.2,2,1.9,3c0.6,1,1.3,1.9,1.9,2.9c0.4,0.5,0.7,1.1,1.1,1.6    c1.6,2.5,3.3,4.9,5,7.3c0.3,0.5,0.7,0.9,1,1.4c1.5,2.1,3.1,4.1,4.6,6.1c0.4,0.5,0.7,0.9,1.1,1.4c1.8,2.3,3.6,4.5,5.5,6.6    c0.4,0.5,0.8,0.9,1.2,1.4c1.7,1.9,3.3,3.7,5,5.6c0.3,0.4,0.7,0.7,1,1.1c1.9,2,3.9,4,5.9,6c0.5,0.5,0.9,0.9,1.4,1.3    c1.8,1.7,3.7,3.4,5.6,5.1c0.3,0.2,0.6,0.5,0.8,0.8c2.1,1.8,4.2,3.6,6.4,5.3c0.5,0.4,1,0.8,1.6,1.2c2.1,1.6,4.1,3.2,6.3,4.7    c0.2,0.1,0.4,0.3,0.5,0.4c2.3,1.6,4.6,3.2,6.9,4.7c0.6,0.4,1.1,0.7,1.7,1.1c2.4,1.5,4.7,3,7.2,4.4l211.3,122.8    c-0.4-0.2-0.8-0.5-1.2-0.7c2.2,1.3,4.5,2.6,6.8,3.9c90,48.5,219.9,24.4,389.6-72.5c2-1.1,3.9-2.2,5.9-3.4    c160.5-92.6,285.3-208.7,374.4-348l921.1,531.8c13.1,7.5,24.9,8,33.3,2.7c-0.2,0.1-0.4,0.3-0.7,0.4l18.2-10.6    c8.3-4.8,13.4-15,13.4-29.4l2.5-880C2109.1,1575.2,2109.1,1573.5,2108.9,1571.8z M648.1,1713.8c-2.2,3.2-4.5,6.3-6.9,9.4    c-0.8,1-1.5,2-2.3,3c-2.3,2.9-4.5,5.8-6.9,8.6c-0.3,0.3-0.5,0.6-0.7,0.9c-2.6,3.1-5.3,6.2-8,9.2c-0.7,0.8-1.4,1.5-2.1,2.3    c-2.4,2.7-4.9,5.3-7.4,7.9c-0.4,0.4-0.8,0.9-1.2,1.3c-2.9,3-5.8,5.8-8.9,8.7c-0.9,0.8-1.8,1.7-2.7,2.5c-2.2,2.1-4.4,4.1-6.7,6.1    c-1.1,1-2.3,2-3.5,3c-2.2,1.9-4.4,3.7-6.7,5.6c-1.2,1-2.3,1.9-3.5,2.9c-2.6,2.1-5.2,4.1-7.8,6.1c-0.9,0.7-1.8,1.4-2.7,2    c-3.6,2.6-7.2,5.2-10.9,7.8c-0.9,0.6-1.8,1.2-2.7,1.8c-1.9,1.3-3.9,2.6-5.8,3.8c-1.6-18.8-2.5-39.2-2.5-61.1l-1.4-481.2    c1-1.9,1.6-4.3,1.6-7.2c0-3-0.6-6.2-1.6-9.3l-0.5-165.6c7.8,2.8,13.8-1.7,13.8-11.1c0-9.6-6-21-13.9-27.1l-0.1-29.5    c-0.3-99.2,15.4-184.3,47-255.6c29-65.3,73.2-117.1,132.5-155.4c0.1,0.6,0.1,1.2,0.2,1.8c0.1,0.7,0.1,1.4,0.2,2.1    c0.3,3.4,0.5,6.8,0.7,10.2c0,0.6,0.1,1.3,0.1,1.9c0.2,3.8,0.4,7.7,0.6,11.7c0.1,1.4,0.1,2.9,0.2,4.4c0,1,0.1,2,0.1,3    c0.1,2,0.1,4,0.2,6c0,0.8,0,1.5,0.1,2.3c0.1,2.8,0.1,5.6,0.2,8.4c0,0.6,0,1.2,0,1.8c0,2.5,0.1,5,0.1,7.6l0.8,298    c-2.8,1.9-4.5,5.5-4.5,10.6c0,5.2,1.7,10.9,4.6,16l0.5,165.4c-3.4,1.6-5.6,5.4-5.6,11.2c0,5.8,2.2,12.3,5.7,17.9l0.6,212.3    c0,5.7,0,11.3-0.1,16.8c0,1.7-0.1,3.5-0.1,5.2c-0.1,3.9-0.2,7.9-0.3,11.7c-0.1,1.7-0.1,3.5-0.2,5.2c-0.2,4.2-0.4,8.3-0.6,12.5    c-0.1,1.2-0.1,2.5-0.2,3.7c-0.3,5.2-0.7,10.3-1.1,15.3c-0.1,1.2-0.2,2.4-0.3,3.7c-0.4,4.3-0.8,8.5-1.2,12.8    c-0.1,1-0.2,1.9-0.3,2.9c-0.5,4.9-1.1,9.9-1.8,14.7c-0.1,0.9-0.2,1.9-0.4,2.8c-0.7,4.9-1.4,9.8-2.1,14.7c0,0.1,0,0.1,0,0.2    c0,0.2-0.1,0.5-0.1,0.7c-0.9,5.6-1.8,11.1-2.9,16.6c-0.4,2.1-0.8,4.3-1.3,6.4c-0.7,3.3-1.3,6.7-2,10c-0.5,2.5-1.1,4.9-1.7,7.3    c-0.6,2.8-1.3,5.5-1.9,8.2c-0.6,2.7-1.3,5.3-2,7.9c-0.6,2.3-1.2,4.7-1.8,7c-0.8,3-1.7,6-2.6,8.9c-0.5,1.7-1,3.5-1.5,5.2    c-1.4,4.6-2.8,9.1-4.3,13.5c-0.1,0.2-0.2,0.5-0.2,0.7c-1.4,4.1-2.8,8.2-4.3,12.3c-0.4,1.2-0.9,2.4-1.3,3.6    c-1.2,3.2-2.4,6.3-3.7,9.5c-0.4,1.1-0.9,2.2-1.3,3.3c-1.7,4.1-3.4,8.2-5.2,12.2c-1.8,3.9-3.6,7.8-5.4,11.7    c-0.4,0.8-0.7,1.6-1.1,2.3c-1.9,3.8-3.8,7.6-5.8,11.3c-1.5,2.8-3,5.5-4.6,8.2c-0.9,1.5-1.7,3-2.5,4.5c-0.4,0.6-0.8,1.3-1.2,1.9    c-1.8,3.1-3.7,6.1-5.6,9.2c-0.8,1.2-1.6,2.4-2.4,3.6c-1.9,2.8-3.7,5.7-5.7,8.4C648.7,1712.9,648.4,1713.4,648.1,1713.8z" class="colorAEC7E6 svgShape"/><path fill="#ffa30f" d="M588.3 913.8l63 36.4c9.3 5.4 16.9 1.1 16.9-9.6 0-10.7-7.5-23.8-16.8-29.1l-63-36.4c-9.3-5.4-16.9-1.1-16.9 9.7C571.5 895.4 579 908.4 588.3 913.8zM602.5 1095.4c0 10.7 7.5 23.8 16.8 29.1l82.7 47.7c9.3 5.4 16.9 1.1 16.9-9.7 0-10.7-7.5-23.8-16.8-29.1l-82.7-47.7C610.1 1080.4 602.6 1084.7 602.5 1095.4zM666.4 1305.8c-9.3-5.4-16.9-1.1-16.9 9.6 0 10.7 7.5 23.8 16.8 29.1l46.7 26.9c9.3 5.4 16.9 1.1 16.9-9.6 0-10.7-7.5-23.8-16.8-29.1L666.4 1305.8zM578.3 1293.7l14.6 8.4c9.3 5.4 16.9 1.1 16.9-9.6 0-10.7-7.5-23.8-16.8-29.1l-14.6-8.4c-9.3-5.4-16.9-1.1-16.9 9.6C561.4 1275.3 568.9 1288.3 578.3 1293.7zM666.7 1518.2c0-10.7-7.5-23.8-16.8-29.1l-63-36.4c-9.3-5.4-16.9-1.1-16.9 9.6 0 10.7 7.5 23.8 16.8 29.1l63 36.4C659 1533.2 666.6 1528.9 666.7 1518.2z" class="colorAEC7E6 svgShape"/><path fill="#fb600a" d="M621.6,1964.2c-0.4-0.2-0.9-0.4-1.3-0.6c-0.7-0.3-1.3-0.6-1.9-0.9c-0.4-0.2-0.7-0.3-1.1-0.5       c-0.9-0.5-1.9-1-2.8-1.5c-0.1,0-0.1-0.1-0.2-0.1l-211.3-122.8c1,0.6,2,1.1,3,1.6c0.3,0.2,0.7,0.3,1,0.5c0.7,0.3,1.3,0.7,2,1       c0.4,0.2,0.8,0.4,1.2,0.5c0.6,0.3,1.2,0.5,1.9,0.8c0.4,0.2,0.9,0.3,1.4,0.5c0.6,0.2,1.2,0.5,1.8,0.7c1.5,0.5,2.9,1,4.5,1.4       c0.4,0.1,0.7,0.2,1.1,0.3c1.5,0.4,3,0.8,4.5,1.1c0.1,0,0.1,0,0.2,0c1.3,0.2,2.6,0.5,3.9,0.7c0.4,0.1,0.8,0.1,1.2,0.2       c0.9,0.1,1.8,0.2,2.8,0.3c0.5,0.1,1.1,0.1,1.7,0.1c0.7,0.1,1.4,0.1,2,0.1c0.6,0,1.2,0.1,1.8,0.1c0.7,0,1.4,0,2.1,0.1       c0.6,0,1.3,0,1.9,0c0.6,0,1.2,0,1.8,0c0.7,0,1.3,0,2-0.1c0.6,0,1.2-0.1,1.8-0.1c0.7,0,1.4-0.1,2.1-0.2c0.6,0,1.1-0.1,1.7-0.1       c0.7-0.1,1.5-0.2,2.2-0.2c0.5-0.1,1.1-0.1,1.7-0.2c0.4,0,0.8-0.1,1.1-0.2c2.2-0.3,4.5-0.7,6.7-1.1c0.1,0,0.2,0,0.3-0.1       c2.2-0.4,4.5-0.9,6.8-1.5c0.3-0.1,0.6-0.1,0.8-0.2c2.2-0.6,4.5-1.2,6.8-1.9c0.4-0.1,0.8-0.2,1.2-0.4c2.3-0.7,4.6-1.5,7-2.3       c0.7-0.2,1.4-0.5,2.1-0.7c0.6-0.2,1.3-0.5,1.9-0.7c0.9-0.3,1.7-0.7,2.6-1c0.6-0.2,1.3-0.5,1.9-0.7c0.9-0.3,1.7-0.7,2.6-1       c0.7-0.3,1.4-0.6,2.1-0.9c0.9-0.4,1.8-0.8,2.7-1.2c0.7-0.3,1.3-0.6,2-0.9c0.8-0.4,1.6-0.7,2.4-1.1c0.8-0.4,1.6-0.7,2.5-1.1       c0.8-0.4,1.6-0.8,2.4-1.2c0.8-0.4,1.7-0.8,2.5-1.2c0.7-0.3,1.4-0.7,2.1-1.1c1-0.5,2-1,3.1-1.5c0.8-0.4,1.5-0.8,2.3-1.2       c1-0.5,2-1,3-1.6c0.5-0.3,1-0.5,1.5-0.8c2.7-1.5,5.4-3,8.2-4.6c2.9-1.7,5.7-3.4,8.5-5.1c1.6-1,3.2-2,4.8-3       c3-1.9,5.8-3.8,8.7-5.7c0.9-0.6,1.8-1.2,2.7-1.8c3.7-2.5,7.4-5.1,10.9-7.8c0.9-0.7,1.8-1.4,2.7-2c2.6-2,5.3-4,7.8-6.1       c1.2-0.9,2.3-1.9,3.5-2.9c2.2-1.8,4.5-3.7,6.7-5.6c1.2-1,2.3-2,3.5-3c2.3-2,4.5-4,6.7-6.1c0.9-0.8,1.8-1.7,2.7-2.5       c3-2.9,6-5.7,8.8-8.7c0.4-0.4,0.8-0.9,1.2-1.3c2.5-2.6,5-5.2,7.4-7.9c0.7-0.8,1.4-1.5,2.1-2.3c2.7-3,5.4-6.1,8-9.2       c0.3-0.3,0.5-0.6,0.7-0.9c2.3-2.8,4.6-5.7,6.9-8.6c0.8-1,1.5-2,2.3-3c2.3-3.1,4.6-6.2,6.9-9.4c0.3-0.4,0.6-0.8,0.8-1.2       c1.9-2.8,3.8-5.6,5.7-8.4c0.8-1.2,1.6-2.4,2.4-3.6c1.9-3,3.8-6.1,5.6-9.2c0.4-0.6,0.8-1.3,1.2-1.9c0.9-1.5,1.7-3,2.5-4.5       c1.6-2.7,3.1-5.4,4.6-8.2c2-3.7,3.9-7.5,5.8-11.3c0.4-0.8,0.8-1.6,1.1-2.3c1.9-3.9,3.7-7.7,5.4-11.7c1.8-4,3.5-8.1,5.2-12.2       c0.5-1.1,0.9-2.2,1.3-3.3c1.3-3.1,2.5-6.3,3.7-9.5c0.4-1.2,0.9-2.4,1.3-3.6c1.5-4.1,2.9-8.2,4.3-12.3c0.1-0.2,0.2-0.5,0.2-0.7       c1.5-4.5,2.9-9,4.3-13.5c0.5-1.7,1-3.5,1.5-5.2c0.9-3,1.7-5.9,2.6-8.9c0.6-2.3,1.2-4.6,1.8-7c0.7-2.6,1.4-5.2,2-7.9       c0.7-2.7,1.3-5.5,1.9-8.2c0.6-2.4,1.1-4.9,1.7-7.3c0.7-3.3,1.4-6.6,2-10c0.4-2.1,0.9-4.2,1.3-6.4c1-5.5,2-11,2.9-16.6       c0-0.2,0.1-0.5,0.1-0.7c0-0.1,0-0.1,0-0.2c0.8-4.8,1.5-9.7,2.1-14.7c0.1-0.9,0.3-1.8,0.4-2.8c0.6-4.9,1.2-9.8,1.8-14.7       c0.1-1,0.2-1.9,0.3-2.9c0.4-4.2,0.8-8.5,1.2-12.8c0.1-1.2,0.2-2.4,0.3-3.7c0.4-5.1,0.8-10.2,1.1-15.3c0.1-1.2,0.1-2.5,0.2-3.7       c0.2-4.1,0.4-8.3,0.6-12.5c0.1-1.7,0.1-3.5,0.2-5.2c0.1-3.9,0.2-7.8,0.3-11.7c0-1.7,0.1-3.5,0.1-5.2c0.1-5.6,0.1-11.2,0.1-16.8       l-2.1-731.2c0-2.6,0-5.1-0.1-7.6c0-0.6,0-1.2,0-1.8c0-2.8-0.1-5.6-0.2-8.4c0-0.8,0-1.5-0.1-2.3c-0.1-2-0.1-4-0.2-6       c0-1-0.1-2-0.1-3c-0.1-1.5-0.1-2.9-0.2-4.4c-0.2-4-0.4-7.9-0.6-11.7c0-0.6-0.1-1.3-0.1-1.9c-0.2-3.5-0.5-6.9-0.7-10.2       c-0.1-0.7-0.1-1.4-0.2-2.1c-0.3-3.5-0.6-6.9-0.9-10.3c-0.1-0.7-0.2-1.5-0.2-2.2c-0.3-2.9-0.6-5.7-1-8.5       c-0.1-0.7-0.2-1.4-0.3-2.1c-0.4-3.1-0.8-6.2-1.3-9.2c-0.1-0.6-0.2-1.3-0.3-1.9c-0.4-2.5-0.8-4.9-1.2-7.3       c-0.1-0.8-0.3-1.6-0.4-2.4c-0.5-2.8-1-5.7-1.6-8.4c0,0,0-0.1,0-0.1c-0.5-2.7-1.1-5.4-1.7-8c-0.2-0.8-0.3-1.5-0.5-2.2       c-0.5-2.1-1-4.1-1.5-6.1c-0.2-0.6-0.3-1.2-0.5-1.8c-0.7-2.5-1.3-5-2-7.4c-0.1-0.5-0.3-1-0.4-1.5c-0.6-2-1.2-4-1.8-5.9       c-0.2-0.7-0.4-1.3-0.6-2c-0.8-2.3-1.6-4.6-2.4-6.9c0,0,0,0,0,0c-0.9-2.4-1.8-4.7-2.7-7c-0.2-0.6-0.5-1.1-0.7-1.7       c-1-2.2-1.9-4.4-2.9-6.6c-0.7-1.5-1.4-3-2.2-4.4c-0.2-0.4-0.5-0.8-0.7-1.3c-0.5-1-1.1-2-1.6-3c-0.3-0.5-0.6-1-0.9-1.6       c-0.5-0.8-1-1.7-1.5-2.5c-0.3-0.5-0.7-1.1-1-1.6c-0.5-0.7-0.9-1.5-1.4-2.2c-0.5-0.8-1.1-1.6-1.6-2.4c-0.4-0.6-0.8-1.2-1.2-1.7       c-0.6-0.8-1.2-1.6-1.7-2.4c-0.4-0.5-0.8-1-1.1-1.5c-0.7-0.8-1.3-1.7-2-2.5c-0.3-0.4-0.7-0.8-1-1.2c-1-1.2-2-2.4-3.1-3.5       c-5.4-5.9-11.3-10.7-17.8-14.4l211.3,122.8c6.4,3.7,12.4,8.5,17.8,14.4c1,1.1,2.1,2.3,3.1,3.5c0.3,0.4,0.7,0.8,1,1.2       c0.7,0.8,1.3,1.6,2,2.5c0.4,0.5,0.8,1,1.1,1.5c0.6,0.8,1.2,1.6,1.7,2.4c0.4,0.6,0.8,1.1,1.2,1.7c0.5,0.8,1.1,1.6,1.6,2.4       c0.2,0.2,0.3,0.5,0.5,0.7c0.3,0.5,0.6,1,0.9,1.5c0.3,0.5,0.7,1.1,1,1.6c0.5,0.8,1,1.7,1.5,2.5c0.3,0.5,0.6,1,0.9,1.6       c0.5,1,1.1,2,1.6,3c0.2,0.4,0.5,0.8,0.7,1.3c0.7,1.4,1.4,2.9,2.2,4.4c0,0,0,0,0,0.1c1,2.1,2,4.3,2.9,6.6       c0.2,0.6,0.5,1.1,0.7,1.7c1.8,4.4,3.5,9,5.2,13.9c0.2,0.6,0.4,1.3,0.6,2c0.6,1.9,1.2,3.9,1.8,5.9c0.1,0.4,0.2,0.7,0.3,1.1       c0,0.1,0.1,0.3,0.1,0.4c0.7,2.4,1.4,4.9,2,7.4c0.2,0.6,0.3,1.2,0.5,1.8c0.5,2,1,4,1.5,6.1c0.1,0.4,0.2,0.8,0.3,1.3       c0.1,0.3,0.1,0.7,0.2,1c0.6,2.6,1.2,5.3,1.7,8c0,0,0,0.1,0,0.1c0.5,2.8,1.1,5.6,1.6,8.4c0.1,0.3,0.1,0.7,0.2,1       c0.1,0.5,0.1,0.9,0.2,1.4c0.4,2.4,0.8,4.9,1.2,7.3c0.1,0.6,0.2,1.2,0.3,1.9c0.4,3,0.9,6.1,1.3,9.2c0,0.2,0.1,0.5,0.1,0.7       c0.1,0.5,0.1,1,0.2,1.4c0.3,2.8,0.7,5.6,1,8.5c0.1,0.7,0.2,1.5,0.2,2.2c0.3,3.4,0.7,6.8,0.9,10.3c0,0.2,0,0.4,0.1,0.7       c0,0.5,0.1,0.9,0.1,1.4c0.3,3.4,0.5,6.8,0.7,10.2c0,0.6,0.1,1.3,0.1,1.9c0.2,3.8,0.4,7.7,0.6,11.7c0,0.4,0,0.7,0.1,1.1       c0,1.1,0.1,2.2,0.1,3.3c0,1,0.1,2,0.1,2.9c0.1,2,0.1,4,0.2,6c0,0.8,0,1.5,0.1,2.3c0.1,2.8,0.1,5.6,0.2,8.4c0,0.6,0,1.2,0,1.9       c0,1.9,0,3.8,0.1,5.7c0,0.6,0,1.3,0,1.9l2.1,731.2c0,5.7,0,11.3-0.1,16.8c0,1.7-0.1,3.4-0.1,5.2c-0.1,2.4-0.1,4.8-0.2,7.2       c0,1.5-0.1,3.1-0.2,4.6c-0.1,1.7-0.1,3.5-0.2,5.2c-0.2,4.2-0.4,8.4-0.6,12.5c-0.1,1.2-0.1,2.5-0.2,3.7c0,0.4,0,0.8-0.1,1.2       c-0.3,4.8-0.7,9.5-1,14.1c-0.1,1.2-0.2,2.4-0.3,3.7c-0.2,2.1-0.4,4.3-0.6,6.4c-0.2,2.1-0.4,4.2-0.7,6.4c-0.1,1-0.2,1.9-0.3,2.9       c-0.5,4.2-0.9,8.4-1.5,12.5c-0.1,0.7-0.2,1.5-0.3,2.2c-0.1,0.9-0.2,1.9-0.4,2.8c-0.7,4.9-1.4,9.8-2.1,14.7c0,0.1,0,0.1,0,0.2       c0,0,0,0,0,0.1c0,0.2-0.1,0.4-0.1,0.6c-0.9,5.6-1.8,11.1-2.9,16.6c-0.1,0.4-0.1,0.7-0.2,1.1c-0.3,1.8-0.7,3.6-1.1,5.3       c-0.7,3.3-1.3,6.7-2,10c-0.1,0.5-0.2,1.1-0.3,1.6c-0.4,1.9-0.9,3.8-1.3,5.7c-0.6,2.8-1.3,5.5-1.9,8.2c-0.1,0.6-0.3,1.2-0.4,1.8       c-0.5,2-1.1,4-1.6,6c-0.6,2.3-1.2,4.7-1.8,7c-0.2,0.5-0.3,1.1-0.4,1.7c-0.7,2.4-1.4,4.8-2.1,7.2c-0.5,1.8-1,3.5-1.5,5.3       c-0.1,0.3-0.2,0.7-0.3,1c-1.3,4.2-2.6,8.3-4,12.4c0,0,0,0.1,0,0.1c-0.1,0.3-0.2,0.5-0.3,0.8c-1.2,3.5-2.4,7-3.7,10.5       c-0.2,0.6-0.4,1.2-0.7,1.8c-0.4,1.2-0.9,2.4-1.3,3.6c-0.6,1.7-1.3,3.5-1.9,5.2c-0.6,1.4-1.2,2.9-1.7,4.3       c-0.4,1.1-0.9,2.2-1.3,3.3c-0.3,0.7-0.6,1.4-0.9,2.1c-1.3,3.1-2.6,6.2-4,9.3c-0.1,0.3-0.2,0.5-0.3,0.8       c-1.1,2.5-2.2,4.9-3.4,7.4c-0.7,1.5-1.4,2.9-2.1,4.3c-0.4,0.8-0.7,1.6-1.1,2.3c-0.3,0.5-0.5,1.1-0.8,1.6       c-1.5,3.1-3.1,6.1-4.7,9.1c-0.1,0.2-0.2,0.4-0.3,0.6c-1.5,2.8-3,5.5-4.6,8.2c-0.8,1.4-1.5,2.8-2.3,4.2       c-0.1,0.1-0.1,0.2-0.2,0.3c-0.4,0.6-0.8,1.3-1.2,1.9c-1.8,3.1-3.7,6.1-5.6,9.2c-0.8,1.2-1.6,2.4-2.4,3.6       c-0.9,1.4-1.9,2.9-2.8,4.3c-0.9,1.4-1.9,2.7-2.8,4.1c-0.3,0.4-0.6,0.8-0.8,1.2c-1.6,2.3-3.3,4.7-5,7c-0.6,0.8-1.2,1.6-1.9,2.4       c-0.8,1-1.5,2-2.3,3c-0.7,0.9-1.4,1.8-2.1,2.7c-1.6,2-3.2,4-4.8,5.9c-0.3,0.3-0.5,0.6-0.7,0.9c-0.1,0.1-0.2,0.2-0.3,0.3       c-1.9,2.3-3.9,4.7-5.9,6.9c-0.6,0.7-1.2,1.3-1.8,2c-0.7,0.8-1.4,1.5-2.1,2.3c-0.8,0.9-1.6,1.8-2.4,2.6       c-1.7,1.8-3.4,3.6-5.1,5.3c-0.4,0.4-0.8,0.9-1.2,1.3c-0.1,0.1-0.3,0.3-0.4,0.4c-2.4,2.4-4.8,4.8-7.3,7.2       c-0.4,0.4-0.8,0.7-1.1,1.1c-0.9,0.8-1.8,1.7-2.7,2.5c-1.4,1.3-2.7,2.6-4.1,3.8c-0.9,0.8-1.8,1.5-2.6,2.3c-1.1,1-2.3,2-3.5,3       c-0.8,0.7-1.6,1.4-2.5,2.2c-1.4,1.2-2.8,2.3-4.2,3.4c-1.2,1-2.3,1.9-3.5,2.9c-0.5,0.4-0.9,0.8-1.4,1.1       c-2.1,1.7-4.3,3.3-6.5,4.9c-0.9,0.7-1.8,1.4-2.6,2c-0.2,0.1-0.3,0.3-0.5,0.4c-3.3,2.5-6.7,4.9-10.2,7.2       c-0.1,0.1-0.2,0.1-0.3,0.2c-0.9,0.6-1.8,1.2-2.7,1.8c-2.6,1.7-5.1,3.5-7.8,5.1c-0.3,0.2-0.7,0.4-1,0.6c-1.6,1-3.2,2-4.8,3       c-1.9,1.2-3.8,2.4-5.7,3.5c-0.9,0.5-1.8,1.1-2.8,1.6c-2.8,1.6-5.5,3.1-8.2,4.6c-0.3,0.1-0.5,0.3-0.8,0.5       c-0.2,0.1-0.4,0.2-0.7,0.4c-1,0.5-2,1.1-3,1.6c-0.8,0.4-1.5,0.8-2.3,1.2c-1,0.5-2,1-3.1,1.5c-0.6,0.3-1.2,0.6-1.8,0.9       c-0.1,0.1-0.2,0.1-0.4,0.2c-0.8,0.4-1.7,0.8-2.5,1.2c-0.8,0.4-1.6,0.8-2.4,1.2c-0.8,0.4-1.6,0.8-2.5,1.1       c-0.7,0.3-1.4,0.6-2.1,1c-0.1,0.1-0.2,0.1-0.4,0.2c-0.7,0.3-1.3,0.6-2,0.9c-0.9,0.4-1.8,0.8-2.7,1.2c-0.7,0.3-1.4,0.6-2.1,0.8       c-0.7,0.3-1.3,0.6-2,0.8c-0.2,0.1-0.4,0.1-0.6,0.2c-0.6,0.3-1.3,0.5-1.9,0.7c-0.9,0.3-1.7,0.7-2.6,1c-0.6,0.2-1.3,0.5-1.9,0.7       c-0.5,0.2-1,0.4-1.6,0.6c-0.2,0.1-0.3,0.1-0.5,0.2c-2.4,0.8-4.7,1.6-7,2.3c-0.2,0.1-0.4,0.1-0.6,0.2c-0.2,0.1-0.4,0.1-0.7,0.2       c-2.3,0.7-4.6,1.3-6.8,1.9c-0.1,0-0.2,0.1-0.3,0.1c-0.2,0-0.4,0.1-0.6,0.1c-2.3,0.6-4.5,1.1-6.8,1.5c-0.1,0-0.1,0-0.2,0       c0,0,0,0-0.1,0c-2.3,0.4-4.5,0.8-6.7,1.1c-0.2,0-0.4,0.1-0.6,0.1c-0.2,0-0.4,0-0.5,0.1c-0.6,0.1-1.1,0.1-1.6,0.2       c-0.7,0.1-1.5,0.2-2.2,0.2c-0.6,0.1-1.1,0.1-1.7,0.1c-0.4,0-0.9,0.1-1.3,0.1c-0.3,0-0.5,0-0.8,0c-0.6,0-1.2,0.1-1.8,0.1       c-0.7,0-1.3,0.1-2,0.1c-0.6,0-1.2,0-1.8,0c-0.4,0-0.7,0-1.1,0c-0.3,0-0.5,0-0.8,0c-0.7,0-1.4,0-2.1-0.1c-0.6,0-1.2,0-1.8-0.1       c-0.7,0-1.4-0.1-2-0.1c-0.4,0-0.7,0-1.1-0.1c-0.2,0-0.4,0-0.6-0.1c-0.9-0.1-1.9-0.2-2.8-0.3c-0.4-0.1-0.8-0.1-1.2-0.2       c-1.3-0.2-2.6-0.4-3.9-0.7c0,0,0,0,0,0c0,0-0.1,0-0.1,0c-1.5-0.3-3-0.7-4.5-1.1c-0.4-0.1-0.7-0.2-1.1-0.3       c-1.5-0.4-3-0.9-4.5-1.4c0,0-0.1,0-0.1,0c-0.5-0.2-1.1-0.4-1.6-0.6c-0.5-0.2-0.9-0.3-1.4-0.5       C622.8,1964.7,622.2,1964.5,621.6,1964.2z" class="colorED4944 svgShape"/><path fill="#ff9f66" d="M1273.9,495.8c-0.5-183.4-46.3-299.6-137.4-348.7c-91.1-49.1-222.9-23.8-395.6,75.8l0,0v371.1       c0.4-0.2,0.7-0.4,1.1-0.6c67.6-39,117.3-41.2,149.2-6.7c31.9,34.5,48,101.4,48.3,200.6l2.1,731.2c0.3,99.2-15.4,184.4-47,255.6       c-31.6,71.2-81.2,126.3-148.8,165.3c-1.6,0.9-3.3,1.8-4.9,2.7v371.2c2-1.1,3.9-2.2,5.9-3.4       c173.4-100.1,305.2-227.5,395.3-382.2c90.1-154.6,134.9-322.7,134.4-504.2L1273.9,495.8z" class="colorFF8666 svgShape"/><path fill="#fb600a" d="M930.8,27.4c-1.8-1.1-3.7-2.1-5.5-3.1c-2.6-1.4-5.2-2.7-7.9-4c-0.8-0.4-1.6-0.8-2.5-1.1       c-1.9-0.9-3.8-1.7-5.8-2.6c-0.9-0.4-1.8-0.8-2.7-1.1c-2.1-0.8-4.2-1.6-6.3-2.4c-0.7-0.3-1.4-0.5-2.1-0.8       c-0.2-0.1-0.4-0.2-0.7-0.2c-2.5-0.9-5.1-1.7-7.7-2.5c-0.7-0.2-1.3-0.4-2-0.6c-2.2-0.7-4.5-1.3-6.8-1.9       c-0.8-0.2-1.7-0.4-2.5-0.6c-2.6-0.6-5.3-1.2-8-1.8c-0.3-0.1-0.6-0.1-0.9-0.2c-0.1,0-0.1,0-0.2,0c-2.9-0.6-5.8-1.1-8.8-1.5       c-0.6-0.1-1.1-0.2-1.7-0.3c-3-0.4-5.9-0.8-8.9-1.2c-0.6-0.1-1.1-0.1-1.7-0.2c-1-0.1-2-0.2-3.1-0.3c-1-0.1-2.1-0.1-3.1-0.2       c-1.9-0.1-3.8-0.3-5.8-0.4c-1.7-0.1-3.4-0.2-5.2-0.2c-2-0.1-3.9-0.1-5.9-0.1c-0.8,0-1.6-0.1-2.5-0.1c-1,0-2,0-3,0       c-1.7,0-3.5,0-5.3,0.1c-1.9,0-3.9,0.1-5.8,0.2c-1.8,0.1-3.6,0.2-5.4,0.3c-0.8,0.1-1.6,0.1-2.4,0.1c-1.2,0.1-2.5,0.2-3.7,0.3       c-1.7,0.1-3.3,0.3-5,0.4c-2.1,0.2-4.3,0.4-6.4,0.7c-1.7,0.2-3.3,0.4-5,0.6c-0.6,0.1-1.1,0.1-1.7,0.2c-1.7,0.2-3.5,0.5-5.2,0.8       c-1.5,0.2-3.1,0.4-4.6,0.7c-2.5,0.4-5.1,0.9-7.7,1.4c-1.4,0.2-2.7,0.5-4.1,0.7c-0.2,0-0.4,0.1-0.7,0.1       c-3.3,0.7-6.7,1.4-10.1,2.1c-0.4,0.1-0.8,0.2-1.2,0.2c-3.8,0.9-7.7,1.8-11.6,2.8c-0.2,0-0.4,0.1-0.5,0.1       c-1.4,0.3-2.7,0.7-4.1,1.1c-2.8,0.7-5.6,1.4-8.4,2.2c-1.6,0.5-3.3,1-5,1.4c-2,0.6-4,1.1-6,1.7c-0.5,0.2-1.1,0.4-1.7,0.5       c-1.9,0.6-3.8,1.2-5.7,1.8c-2.4,0.8-4.9,1.5-7.3,2.4c-2,0.7-3.9,1.3-5.9,2c-1.6,0.5-3.2,1.1-4.8,1.6c-0.8,0.3-1.7,0.6-2.5,0.9       c-2.2,0.8-4.3,1.6-6.5,2.4c-2.4,0.9-4.8,1.8-7.2,2.7c-2.2,0.8-4.4,1.7-6.7,2.6c-1.4,0.6-2.9,1.1-4.3,1.7       c-1,0.4-1.9,0.8-2.9,1.2c-2.5,1-4.9,2-7.4,3.1c-2.3,1-4.7,2-7.1,3c-2.5,1.1-5,2.2-7.5,3.3c-1.5,0.7-3,1.3-4.5,1.9       c-1.4,0.6-2.9,1.3-4.4,2c-0.6,0.3-1.3,0.6-1.9,0.9c-4.3,2-8.6,4-13,6.1c-0.7,0.3-1.4,0.7-2.2,1c-3.6,1.7-7.2,3.5-10.9,5.3       c-0.7,0.4-1.5,0.7-2.2,1.1c-0.8,0.4-1.6,0.8-2.4,1.2c-4.5,2.3-9.1,4.6-13.7,7c-0.4,0.2-0.8,0.4-1.1,0.6       c-4.5,2.3-9,4.7-13.6,7.2c-0.6,0.3-1.1,0.6-1.7,0.9c-0.3,0.2-0.7,0.4-1,0.5c-3.1,1.7-6.3,3.5-9.5,5.2c-1.7,1-3.4,1.9-5.2,2.8       c-5.2,2.9-10.4,5.9-15.7,8.9l0,0l211.3,122.8l0,0c5.3-3,10.5-6,15.7-8.9c1.7-1,3.4-1.9,5.2-2.8c3.5-1.9,7-3.9,10.5-5.8       c0.6-0.3,1.2-0.6,1.7-0.9c4.5-2.4,9.1-4.8,13.5-7.2c0.4-0.2,0.8-0.4,1.2-0.6c4.6-2.4,9.1-4.7,13.6-6.9c0.8-0.4,1.6-0.8,2.4-1.2       c4.4-2.2,8.7-4.3,13-6.4c0.7-0.4,1.5-0.7,2.2-1c4.4-2.1,8.7-4.1,13-6.1c0.6-0.3,1.3-0.6,1.9-0.9c3-1.3,5.9-2.6,8.8-3.9       c2.5-1.1,5-2.2,7.5-3.3c2.4-1,4.7-2,7.1-3c2.5-1,4.9-2.1,7.4-3.1c2.4-1,4.8-1.9,7.2-2.9c2.2-0.9,4.5-1.7,6.7-2.6       c2.4-0.9,4.8-1.8,7.2-2.7c2.2-0.8,4.4-1.6,6.5-2.4c2.4-0.9,4.9-1.7,7.3-2.5c2-0.7,4-1.4,5.9-2c2.5-0.8,4.9-1.6,7.3-2.4       c1.9-0.6,3.8-1.2,5.7-1.8c2.6-0.8,5.1-1.5,7.7-2.3c1.7-0.5,3.3-1,5-1.4c2.8-0.8,5.6-1.5,8.4-2.2c1.4-0.4,2.7-0.7,4.1-1.1       c4.1-1,8.2-2,12.2-2.9c0.4-0.1,0.8-0.2,1.2-0.3c3.6-0.8,7.2-1.5,10.7-2.2c1.4-0.3,2.7-0.5,4.1-0.7c2.6-0.5,5.2-0.9,7.7-1.4       c1.5-0.3,3.1-0.5,4.6-0.7c2.3-0.3,4.6-0.7,6.9-1c1.7-0.2,3.3-0.4,5-0.6c2.1-0.2,4.3-0.5,6.4-0.7c1.7-0.2,3.3-0.3,5-0.4       c2.1-0.2,4.1-0.3,6.1-0.4c1.8-0.1,3.6-0.2,5.4-0.3c1.9-0.1,3.9-0.2,5.8-0.2c1.8,0,3.5-0.1,5.3-0.1c1.8,0,3.7,0,5.5,0       c2,0,4,0.1,5.9,0.1c1.7,0.1,3.5,0.1,5.2,0.2c1.9,0.1,3.9,0.2,5.8,0.4c2.1,0.2,4.1,0.3,6.2,0.5c0.6,0.1,1.1,0.1,1.7,0.2       c3,0.3,6,0.7,8.9,1.2c0.6,0.1,1.1,0.2,1.7,0.3c3,0.5,6,1,9,1.6c0.3,0.1,0.6,0.1,0.9,0.2c2.7,0.5,5.3,1.1,8,1.8       c0.9,0.2,1.7,0.4,2.5,0.6c2.3,0.6,4.5,1.2,6.8,1.9c0.7,0.2,1.3,0.4,2,0.6c2.8,0.9,5.6,1.8,8.3,2.7c0.7,0.2,1.4,0.5,2.1,0.8       c2.1,0.8,4.2,1.6,6.3,2.4c0.9,0.4,1.8,0.8,2.7,1.1c1.9,0.8,3.8,1.7,5.7,2.5c0.8,0.4,1.7,0.8,2.5,1.1c2.7,1.3,5.3,2.6,7.9,4       c1.9,1,3.7,2,5.5,3.1L930.8,27.4z" class="colorED4944 svgShape"/><path fill="#d4ae98" d="M1747.1 1194.9c.1 0 .3-.1.4-.1.4-.1.8-.3 1.2-.5l43.1-25c-.4.2-.8.4-1.2.5-.1 0-.3.1-.4.1-.3.1-.6.1-.9.2-.2 0-.3 0-.5 0-.3 0-.6 0-.9 0-.2 0-.4 0-.6 0-.3 0-.7-.1-1-.2-.2 0-.4-.1-.5-.1-.6-.2-1.2-.3-1.8-.6-.1 0-.2-.1-.3-.1-.5-.2-1.1-.5-1.7-.8-.4-.2-.9-.4-1.3-.7-.9-.5-1.8-1.1-2.7-1.8-.2-.1-.4-.3-.6-.4-.9-.7-1.8-1.4-2.6-2.2-.1-.1-.3-.3-.4-.4-.8-.8-1.6-1.7-2.4-2.6 0 0 0 0 0-.1-.6-.8-1.2-1.7-1.8-2.5-.1-.2-.3-.4-.4-.7-.6-.9-1.1-1.8-1.6-2.8-2.8-5.8-4.2-12.8-4.2-21.1l.1-46.1c0-8 1.5-13.2 4.3-15.7.3-.3.7-.5 1-.7l0 0c0 0 0 0 0 0l-43.1 25c-.4.2-.7.5-1 .7-2.9 2.5-4.3 7.7-4.3 15.7l-.1 46.1c0 8.3 1.4 15.3 4.2 21.1.5 1 1 1.9 1.6 2.8.1.2.3.4.4.7.6.9 1.2 1.7 1.8 2.5 0 0 0 0 0 0 0 0 0 0 0 0 .7.9 1.5 1.8 2.4 2.6.1.1.2.2.2.3 0 0 .1.1.2.1.8.8 1.7 1.5 2.6 2.2.1.1.2.1.2.2.1.1.2.1.3.2.9.6 1.8 1.2 2.7 1.8.4.2.7.4 1.1.6.1 0 .2.1.3.1.6.3 1.1.6 1.7.8.1 0 .2.1.3.1.6.2 1.2.4 1.8.6.1 0 .1 0 .2.1.1 0 .3 0 .4.1.4.1.7.1 1 .2.2 0 .4 0 .6 0 .3 0 .6 0 .9 0 .2 0 .4 0 .5 0C1746.5 1195.1 1746.8 1195 1747.1 1194.9zM1479.2 678.2c.1 0 .3-.1.4-.1.4-.1.8-.3 1.2-.5l43.1-25c-.4.2-.8.4-1.2.5-.1 0-.3.1-.4.1-.3.1-.6.1-.9.2-.2 0-.3 0-.5 0-.3 0-.6 0-.9 0-.2 0-.4 0-.6 0-.3 0-.7-.1-1-.2-.2 0-.4-.1-.6-.1-.6-.2-1.2-.3-1.8-.6-.1 0-.2-.1-.3-.1-.6-.2-1.1-.5-1.7-.8-.4-.2-.9-.4-1.3-.7-1-.6-1.9-1.2-2.7-1.8-.2-.1-.4-.3-.6-.4-.9-.7-1.8-1.4-2.6-2.2-.1-.1-.3-.3-.4-.4-.8-.8-1.6-1.7-2.4-2.6 0 0 0 0 0 0-.6-.8-1.2-1.6-1.8-2.5-.1-.2-.3-.4-.4-.7-.5-.9-1.1-1.8-1.6-2.8-2.8-5.8-4.2-12.8-4.2-21.1l.1-46.1c0-8 1.5-13.2 4.3-15.7.3-.3.7-.5 1-.7l0 0c0 0 0 0 0 0l-43.1 25c-.4.2-.7.5-1 .7-2.9 2.5-4.3 7.7-4.3 15.7l-.1 46.1c0 8.3 1.4 15.3 4.2 21.1.5 1 1 1.9 1.6 2.8.1.2.3.4.4.7.6.9 1.2 1.7 1.8 2.5 0 0 0 0 0 0 0 0 0 0 0 0 .7.9 1.5 1.8 2.4 2.6.1.1.2.2.2.3.1 0 .1.1.2.1.8.8 1.7 1.5 2.6 2.2.1.1.1.1.2.2.1.1.2.1.3.2.9.6 1.8 1.2 2.7 1.8.4.2.7.4 1.1.6.1 0 .2.1.3.1.6.3 1.2.6 1.7.8.1 0 .2.1.3.1.6.2 1.2.4 1.8.6.1 0 .1 0 .2.1.1 0 .3 0 .4.1.3.1.7.1 1 .2.2 0 .4 0 .6 0 .3 0 .6 0 .9 0 .2 0 .4 0 .5 0C1478.6 678.3 1478.9 678.3 1479.2 678.2z" class="color98ADD4 svgShape"/><path fill="#d4ae98" d="M1853.1 1054.3c-1.1-1.9-2.2-3.8-3.4-5.6-.4-.6-.8-1.2-1.2-1.8-.8-1.2-1.6-2.5-2.4-3.7-.5-.7-1-1.4-1.5-2.1-.8-1.1-1.5-2.2-2.3-3.2-.5-.7-1.1-1.5-1.7-2.2-.8-1-1.5-2-2.3-3-.2-.3-.4-.6-.7-.9-.4-.5-.9-1-1.3-1.6-.6-.7-1.2-1.5-1.8-2.2-.7-.8-1.4-1.7-2.1-2.5-.6-.7-1.3-1.4-1.9-2.1-.7-.8-1.5-1.6-2.2-2.4-.6-.7-1.3-1.4-2-2.1-.8-.8-1.6-1.6-2.3-2.4-.7-.7-1.3-1.3-2-2-.2-.2-.4-.4-.5-.5-.6-.6-1.2-1.1-1.8-1.7-.8-.7-1.5-1.4-2.3-2.1-.8-.7-1.6-1.4-2.4-2.1-.8-.7-1.6-1.4-2.4-2.1-.8-.7-1.7-1.4-2.5-2.1-.8-.7-1.6-1.3-2.4-2-.8-.7-1.7-1.3-2.6-2-.8-.6-1.7-1.3-2.5-1.9-.2-.1-.4-.3-.6-.4-.8-.6-1.6-1.1-2.4-1.7-.7-.5-1.4-1.1-2.2-1.6-1.1-.7-2.1-1.5-3.2-2.2-.7-.5-1.4-1-2.1-1.4-1.2-.8-2.4-1.6-3.6-2.3-.6-.4-1.2-.8-1.8-1.2-1.8-1.1-3.7-2.3-5.6-3.4-1.7-1-3.4-1.9-5.1-2.8-.4-.2-.8-.4-1.2-.7-.4-.2-.8-.4-1.2-.6-1.2-.6-2.4-1.2-3.5-1.8-.1 0-.2-.1-.3-.1-1.6-.8-3.2-1.5-4.8-2.3-.4-.2-.9-.4-1.3-.6-1.3-.6-2.6-1.1-3.9-1.6-.3-.1-.6-.3-.9-.4-1.5-.6-3-1.2-4.5-1.7-.4-.1-.7-.2-1.1-.4-1.2-.4-2.4-.8-3.5-1.1-.4-.1-.7-.2-1.1-.3-1.3-.4-2.7-.8-3.9-1.1-.1 0-.1 0-.2 0-1.7-.4-3.3-.8-4.9-1-.3-.1-.6-.1-1-.1-1.3-.2-2.5-.4-3.8-.5-.6-.1-1.1-.1-1.6-.1-1-.1-2-.1-2.9-.2-.6 0-1.2 0-1.7 0-.9 0-1.8 0-2.6.1-.6 0-1.2.1-1.7.1-.8.1-1.7.2-2.5.3-.6.1-1.1.2-1.6.3-.8.2-1.6.4-2.4.6-.5.1-1 .3-1.5.4-.9.3-1.7.6-2.5.9-.4.2-.8.3-1.2.5-1.2.5-2.4 1.1-3.5 1.7-.2.1-.5.3-.7.4l-43.1 25c.2-.1.5-.3.7-.4 1.1-.6 2.3-1.2 3.5-1.7.4-.2.8-.3 1.2-.5.8-.3 1.7-.6 2.5-.9.5-.1 1-.3 1.5-.4.8-.2 1.6-.4 2.4-.6.5-.1 1.1-.2 1.6-.3.8-.1 1.6-.2 2.5-.3.6-.1 1.1-.1 1.7-.1.9-.1 1.7-.1 2.6-.1.6 0 1.2 0 1.7 0 1 0 1.9.1 2.9.2.5 0 1.1.1 1.6.1 1.2.1 2.5.3 3.8.5.3.1.6.1 1 .1 1.6.3 3.3.6 4.9 1 1.4.3 2.7.7 4.1 1.1.4.1.7.2 1.1.3 1.2.4 2.3.7 3.5 1.1.4.1.7.2 1.1.4 1.5.5 3 1.1 4.5 1.7.3.1.6.3.9.4 1.3.5 2.6 1.1 3.9 1.6.4.2.9.4 1.3.6 1.6.7 3.2 1.5 4.8 2.3.1 0 .2.1.3.1 1.6.8 3.1 1.6 4.7 2.5.4.2.8.4 1.2.7 1.7.9 3.4 1.8 5.1 2.8 1.9 1.1 3.8 2.2 5.6 3.4.6.4 1.2.8 1.8 1.2 1.2.8 2.4 1.5 3.6 2.3.7.5 1.4 1 2.1 1.4 1.1.7 2.1 1.4 3.2 2.2.7.5 1.5 1.1 2.2 1.6 1 .7 2 1.4 2.9 2.1.9.6 1.7 1.3 2.5 1.9.9.7 1.7 1.3 2.6 2 .8.7 1.6 1.3 2.5 2 .8.7 1.7 1.4 2.5 2.1.8.7 1.6 1.4 2.4 2.1.8.7 1.6 1.4 2.4 2.1.8.7 1.5 1.4 2.3 2.1.8.7 1.6 1.5 2.3 2.2.7.7 1.3 1.3 2 2 .8.8 1.6 1.6 2.3 2.4.7.7 1.3 1.4 2 2.1.8.8 1.5 1.6 2.2 2.4.6.7 1.3 1.4 1.9 2.1.7.8 1.4 1.6 2.1 2.5.6.7 1.2 1.5 1.8 2.2.7.8 1.3 1.6 2 2.4.8 1 1.6 2 2.3 3 .6.7 1.1 1.5 1.6 2.2.8 1.1 1.5 2.1 2.3 3.2.5.7 1 1.4 1.5 2.1.8 1.2 1.6 2.4 2.4 3.7.4.6.8 1.2 1.2 1.8 1.2 1.9 2.3 3.7 3.4 5.6 16.8 29 25.1 61 25 96l-.1 52.6c-.1 34.1-8.4 56-24.8 65.6l43.1-25c16.4-9.6 24.7-31.4 24.8-65.6l.1-52.6C1878.2 1115.3 1869.9 1083.3 1853.1 1054.3zM1585.3 537.6c-1.1-1.9-2.2-3.8-3.4-5.6-.4-.6-.8-1.2-1.2-1.8-.8-1.2-1.6-2.5-2.4-3.7-.5-.7-1-1.4-1.5-2.1-.8-1.1-1.5-2.2-2.3-3.2-.5-.7-1.1-1.5-1.6-2.2-.8-1-1.5-2-2.3-3-.2-.3-.4-.6-.7-.9-.4-.5-.9-1-1.3-1.6-.6-.7-1.2-1.5-1.8-2.2-.7-.8-1.4-1.7-2.1-2.5-.6-.7-1.3-1.4-1.9-2.1-.7-.8-1.5-1.6-2.2-2.4-.7-.7-1.3-1.4-2-2.1-.8-.8-1.6-1.6-2.3-2.4-.7-.7-1.3-1.3-2-2-.2-.2-.4-.4-.5-.5-.6-.6-1.2-1.1-1.8-1.7-.8-.7-1.5-1.4-2.3-2.1-.8-.7-1.6-1.4-2.4-2.1-.8-.7-1.6-1.4-2.4-2.1-.8-.7-1.6-1.4-2.5-2.1-.8-.7-1.6-1.3-2.5-2-.8-.7-1.7-1.3-2.6-2-.8-.6-1.7-1.3-2.5-1.9-.2-.1-.4-.3-.6-.4-.8-.6-1.6-1.1-2.4-1.7-.7-.5-1.4-1.1-2.2-1.6-1.1-.7-2.1-1.5-3.2-2.2-.7-.5-1.4-1-2.1-1.4-1.2-.8-2.4-1.6-3.7-2.3-.6-.4-1.2-.8-1.8-1.1-1.8-1.1-3.7-2.3-5.6-3.4-1.7-1-3.4-1.9-5.1-2.8-.4-.2-.8-.4-1.2-.7-.4-.2-.8-.4-1.2-.6-1.2-.6-2.4-1.2-3.6-1.8-.1 0-.1-.1-.2-.1-1.6-.8-3.2-1.6-4.8-2.3-.4-.2-.8-.4-1.3-.6-1.3-.6-2.6-1.1-3.9-1.7-.3-.1-.6-.2-.9-.4-1.5-.6-3-1.2-4.5-1.7-.4-.1-.7-.2-1.1-.4-1.2-.4-2.4-.8-3.5-1.1-.4-.1-.7-.2-1.1-.3-1.3-.4-2.6-.8-3.9-1.1-.1 0-.1 0-.2 0-1.7-.4-3.3-.7-4.9-1-.3-.1-.6-.1-.9-.1-1.3-.2-2.6-.4-3.8-.5-.5-.1-1.1-.1-1.6-.1-1-.1-2-.1-2.9-.2-.6 0-1.2 0-1.7 0-.9 0-1.8 0-2.6.1-.6 0-1.2.1-1.7.1-.8.1-1.7.2-2.5.3-.6.1-1.1.2-1.6.3-.8.2-1.6.4-2.4.6-.5.1-1 .3-1.5.4-.9.3-1.7.6-2.5.9-.4.2-.8.3-1.2.5-1.2.5-2.4 1.1-3.5 1.7-.2.1-.5.3-.7.4l-43.1 25c.2-.1.5-.3.7-.4 1.1-.6 2.3-1.2 3.5-1.7.4-.2.8-.3 1.2-.5.8-.3 1.7-.6 2.5-.9.5-.1 1-.3 1.5-.4.8-.2 1.6-.4 2.4-.6.5-.1 1.1-.2 1.6-.3.8-.1 1.6-.2 2.5-.3.6-.1 1.1-.1 1.7-.1.9-.1 1.7-.1 2.6-.1.6 0 1.2 0 1.7 0 1 0 1.9.1 2.9.2.5 0 1.1.1 1.6.1 1.2.1 2.5.3 3.8.5.3 0 .6.1.9.1 1.6.3 3.3.6 4.9 1 1.4.3 2.7.7 4.1 1.1.4.1.7.2 1.1.3 1.2.4 2.3.7 3.5 1.1.4.1.7.2 1.1.4 1.5.5 3 1.1 4.5 1.7.3.1.6.2.9.4 1.3.5 2.6 1.1 3.9 1.6.4.2.8.4 1.3.6 1.6.7 3.2 1.5 4.8 2.3.1 0 .2.1.2.1 1.6.8 3.2 1.6 4.8 2.5.4.2.8.4 1.2.7 1.7.9 3.4 1.8 5.1 2.8 1.9 1.1 3.8 2.2 5.6 3.4.6.4 1.2.8 1.8 1.1 1.2.8 2.5 1.6 3.7 2.3.7.5 1.4.9 2.1 1.4 1.1.7 2.1 1.4 3.2 2.2.7.5 1.5 1.1 2.2 1.6 1 .7 2 1.4 2.9 2.1.9.6 1.7 1.3 2.5 1.9.9.7 1.7 1.3 2.6 2 .8.7 1.6 1.3 2.4 2 .8.7 1.7 1.4 2.5 2.1.8.7 1.6 1.4 2.4 2.1.8.7 1.6 1.4 2.4 2.1.8.7 1.5 1.4 2.3 2.1.8.7 1.6 1.5 2.3 2.2.7.7 1.3 1.3 2 2 .8.8 1.6 1.6 2.4 2.4.7.7 1.3 1.4 2 2.1.8.8 1.5 1.6 2.2 2.4.6.7 1.3 1.4 1.9 2.2.7.8 1.4 1.6 2.1 2.5.6.7 1.2 1.5 1.8 2.2.7.8 1.3 1.6 2 2.4.8 1 1.6 2 2.3 3 .6.7 1.1 1.5 1.7 2.2.8 1.1 1.5 2.2 2.3 3.2.5.7 1 1.4 1.5 2.1.8 1.2 1.6 2.4 2.4 3.7.4.6.8 1.2 1.2 1.8 1.2 1.9 2.3 3.7 3.4 5.6 16.8 29 25.1 61 25 96l-.1 52.6c-.1 34.1-8.4 56-24.8 65.6l43.1-25c16.4-9.6 24.7-31.4 24.8-65.6l.1-52.6C1610.4 598.6 1602.1 566.6 1585.3 537.6z" class="color98ADD4 svgShape"/><path fill="#f7eee9" d="M1810 1079.4c16.8 29 25.1 61 25 96l-.1 52.6c-.1 34.8-8.7 56.8-25.7 66.1-17 9.3-41.1 5-72-12.9-31-17.9-54.9-41.3-71.9-70.4-16.9-29-25.3-60.8-25.2-95.2l.2-53.4c.1-34.5 8.7-56.4 25.7-65.8 17-9.4 41-5.2 72 12.7C1769.2 1026.9 1793.2 1050.4 1810 1079.4zM1754.2 1177.5l.1-47c0-7.4-1.4-14-4.2-19.8-2.8-5.8-7-10.3-12.4-13.4s-9.6-3.5-12.5-1c-2.9 2.5-4.3 7.7-4.3 15.7l-.1 46.1c0 8.3 1.4 15.3 4.2 21.1 2.8 5.8 7 10.3 12.4 13.4s9.6 3.4 12.5.8C1752.8 1190.7 1754.2 1185.4 1754.2 1177.5L1754.2 1177.5zM1541.4 777.2c-17 9.3-41.1 5-72-12.9-31-17.9-54.9-41.4-71.9-70.4-16.9-29-25.3-60.8-25.2-95.2l.2-53.4c.1-34.5 8.7-56.4 25.7-65.8 17-9.4 41-5.2 72 12.7 31.2 18 55.3 41.5 72.1 70.5 16.8 29 25.1 61 25 96l-.1 52.6C1567 745.9 1558.4 768 1541.4 777.2zM1457.1 662.5c2.8 5.8 7 10.2 12.4 13.4 5.5 3.1 9.6 3.4 12.5.8 2.9-2.6 4.3-7.9 4.3-15.9l.1-47c0-7.4-1.4-14-4.2-19.8-2.8-5.8-7-10.2-12.4-13.4-5.5-3.1-9.6-3.5-12.5-1-2.9 2.5-4.3 7.7-4.3 15.7l-.1 46.1C1452.9 649.7 1454.3 656.7 1457.1 662.5L1457.1 662.5z" class="colorE9F0F7 svgShape"/><polygon fill="#f7eee9" points="1703.6 633 1796.2 686.4 1511.8 1144.5 1419.3 1091.1" class="colorE9F0F7 svgShape"/><polygon fill="#d4ae98" points="1703.6 633 1746.7 607.9 1839.3 661.4 1796.2 686.4" class="color98ADD4 svgShape"/><polygon fill="#d4ae98" points="1796.2 686.4 1839.3 661.4 1554.9 1119.5 1511.8 1144.5" class="color98ADD4 svgShape"/><path fill="#774a11" d="M2045.2,1508.1L850.4,818.3c-25.3-14.6-46-2.8-46.1,26.3l-2.5,880c-0.1,29,20.5,64.7,45.8,79.3         l1194.8,689.8c25.3,14.6,46,2.8,46.1-26.3l2.5-880C2091,1558.4,2070.4,1522.7,2045.2,1508.1z" class="color114077 svgShape"/><path fill="#d17705" d="M846.7,816.3c-0.7-0.3-1.4-0.7-2.1-1c-0.3-0.1-0.5-0.2-0.8-0.3c-0.6-0.3-1.3-0.5-1.9-0.7         c-0.2-0.1-0.4-0.2-0.6-0.2c-0.8-0.3-1.7-0.5-2.5-0.8c-0.1,0-0.2,0-0.3-0.1c-1.3-0.3-2.5-0.6-3.8-0.8c0,0-0.1,0-0.1,0         c-1-0.2-2.1-0.3-3.1-0.3c-0.2,0-0.4,0-0.6,0c-0.9,0-1.8,0-2.7,0c-0.1,0-0.3,0-0.4,0c-0.7,0.1-1.4,0.1-2.1,0.2         c-0.2,0-0.4,0.1-0.6,0.1c-0.8,0.1-1.6,0.3-2.3,0.5c0,0,0,0,0,0c-0.7,0.2-1.5,0.5-2.2,0.8c-0.2,0.1-0.4,0.2-0.6,0.2         c-0.6,0.3-1.2,0.5-1.7,0.8c-0.2,0.1-0.4,0.2-0.6,0.3l18.2-10.6c0.1,0,0.2-0.1,0.3-0.1c0.1-0.1,0.2-0.1,0.3-0.1         c0.6-0.3,1.1-0.6,1.7-0.8c0.1,0,0.2-0.1,0.3-0.2c0.1,0,0.2-0.1,0.3-0.1c0.7-0.3,1.4-0.5,2.2-0.8c0,0,0,0,0,0c0,0,0,0,0,0         c0.8-0.2,1.5-0.4,2.3-0.5c0.1,0,0.2,0,0.3-0.1c0.1,0,0.2,0,0.4,0c0.7-0.1,1.4-0.2,2.1-0.2c0.1,0,0.2,0,0.3,0c0,0,0.1,0,0.1,0         c0.9-0.1,1.8-0.1,2.7,0c0.1,0,0.2,0,0.3,0c0.1,0,0.2,0,0.3,0c1,0.1,2,0.1,3.1,0.3c0,0,0,0,0,0c0,0,0.1,0,0.1,0         c1.2,0.2,2.5,0.5,3.8,0.8c0.1,0,0.1,0,0.2,0c0,0,0.1,0,0.1,0c0.8,0.2,1.6,0.5,2.5,0.8c0.2,0.1,0.4,0.2,0.6,0.2         c0.6,0.2,1.3,0.5,1.9,0.7c0.1,0,0.2,0.1,0.3,0.1c0.2,0.1,0.3,0.2,0.5,0.2c0.7,0.3,1.4,0.6,2.1,1c0.3,0.1,0.6,0.3,0.8,0.4         c1,0.5,1.9,1,2.9,1.5l1194.8,689.8c1.5,0.8,2.9,1.8,4.4,2.8c0.5,0.3,0.9,0.7,1.4,1c1,0.7,1.9,1.4,2.9,2.2         c0.5,0.4,1,0.9,1.6,1.3c0.9,0.7,1.7,1.5,2.6,2.3c0.5,0.5,1,0.9,1.5,1.4c0.3,0.3,0.6,0.6,0.9,0.9c0.3,0.3,0.7,0.7,1,1.1         c1,1.1,2.1,2.1,3.1,3.3c0.3,0.4,0.7,0.7,1,1c0.3,0.3,0.5,0.7,0.8,1c0.6,0.7,1.2,1.5,1.8,2.2c0.4,0.5,0.8,0.9,1.1,1.4         c0.3,0.4,0.6,0.8,0.9,1.3c0.4,0.6,0.9,1.2,1.3,1.8c0.3,0.4,0.6,0.8,0.9,1.2c0.5,0.7,0.9,1.4,1.4,2.1c0.3,0.4,0.6,0.9,0.9,1.3         c0.1,0.2,0.2,0.4,0.4,0.5c0.8,1.3,1.6,2.6,2.4,3.9c0,0.1,0.1,0.2,0.1,0.3c0.2,0.3,0.3,0.5,0.4,0.8c0.5,0.9,1.1,1.9,1.6,2.8         c0.2,0.4,0.4,0.9,0.7,1.3c0.2,0.5,0.5,0.9,0.7,1.4c0.2,0.4,0.4,0.8,0.6,1.2c0.5,1,1,2.1,1.4,3.1c0.1,0.2,0.2,0.5,0.3,0.7         c0,0.1,0.1,0.1,0.1,0.2c0.6,1.4,1.2,2.8,1.7,4.1c0.1,0.2,0.2,0.5,0.3,0.7c0.2,0.5,0.4,1,0.5,1.5c0.3,0.7,0.5,1.4,0.8,2.2         c0.2,0.5,0.3,1,0.5,1.5c0.2,0.6,0.4,1.3,0.6,1.9c0.1,0.4,0.3,0.8,0.4,1.2c0.2,0.7,0.3,1.4,0.5,2c0.2,0.8,0.4,1.6,0.6,2.3         c0.1,0.3,0.2,0.6,0.2,0.9c0.1,0.6,0.2,1.1,0.3,1.7c0.2,1.2,0.4,2.4,0.6,3.6c0.1,0.3,0.1,0.7,0.2,1c0.1,0.8,0.1,1.5,0.2,2.2         c0.1,0.5,0.1,1.1,0.2,1.6c0.1,1.7,0.2,3.4,0.2,5.1l-2.5,880c0,14.4-5.2,24.6-13.4,29.4l-18.2,10.6c8.3-4.8,13.4-15,13.4-29.4         l2.5-880c0-1.7-0.1-3.4-0.2-5.1c0-0.5-0.1-1.1-0.2-1.6c-0.1-1.1-0.2-2.2-0.4-3.3c-0.2-1.2-0.4-2.4-0.6-3.6         c-0.2-0.9-0.3-1.7-0.5-2.6c-0.2-0.8-0.4-1.6-0.6-2.3c-0.3-1.1-0.6-2.2-0.9-3.3c-0.2-0.6-0.4-1.3-0.6-1.9         c-0.4-1.2-0.8-2.5-1.2-3.7c-0.2-0.5-0.3-1-0.5-1.5c-0.6-1.7-1.3-3.4-2-5.1c-0.1-0.2-0.2-0.5-0.3-0.7         c-0.6-1.5-1.3-2.9-2.1-4.4c-0.2-0.5-0.5-0.9-0.7-1.4c-0.7-1.4-1.5-2.8-2.2-4.1c-0.2-0.3-0.3-0.5-0.4-0.8         c-0.9-1.6-1.9-3.2-2.9-4.7c-0.3-0.5-0.6-0.9-0.9-1.3c-0.7-1.1-1.5-2.2-2.3-3.3c-0.4-0.6-0.9-1.2-1.3-1.8         c-0.7-0.9-1.4-1.8-2.1-2.6c-0.6-0.7-1.2-1.5-1.8-2.2c-0.6-0.7-1.2-1.3-1.8-2c-1-1.1-2-2.2-3.1-3.3c-0.6-0.7-1.3-1.3-1.9-1.9         c-0.5-0.5-1-1-1.5-1.4c-0.9-0.8-1.7-1.5-2.6-2.3c-0.5-0.4-1-0.9-1.6-1.3c-0.9-0.8-1.9-1.5-2.9-2.2c-0.5-0.3-0.9-0.7-1.4-1         c-1.4-1-2.9-1.9-4.4-2.8L850.4,818.3c-1-0.6-1.9-1.1-2.9-1.5C847.2,816.6,847,816.5,846.7,816.3z" class="color071F3B svgShape"/><path fill="#9e5327" d="M1085.3 1579.8c9.1 5.2 16.3 17.9 16.3 28.2l-.2 46.6c0 10.3-7.4 14.6-16.5 9.3l-191-110.2c-9.1-5.2-16.3-17.9-16.3-28.2l.2-46.6c0-10.3 7.4-14.6 16.5-9.3L1085.3 1579.8zM1540.4 2056.1c9.1 5.2 16.3 17.9 16.3 28.4v22.3c0 10.3-7.4 14.6-16.5 9.3l-564.6-326.3c-9.1-5.2-16.3-17.9-16.3-28.4v-22.3c0-10.3 7.4-14.6 16.5-9.3L1540.4 2056.1zM1366.5 1742c9.1 5.2 16.3 17.9 16.3 28.4l-.2 46.6c0 10.3-7.4 14.6-16.5 9.3l-191-110.2c-9.1-5.2-16.3-17.9-16.3-28.2l.2-46.6c0-10.3 7.4-14.6 16.5-9.3L1366.5 1742zM1647.7 1904.5c9.1 5.2 16.3 17.9 16.3 28.4l-.2 46.6c0 10.3-7.4 14.6-16.5 9.3l-191-110.2c-9.1-5.2-16.3-17.9-16.3-28.2l.2-46.6c0-10.3 7.4-14.6 16.5-9.3L1647.7 1904.5z" class="color27639E svgShape"/><path fill="#ff9f66" d="M1842.4,1662.6l-182.3-105.3l0,0c-68-39.3-123.2-7.8-123.2,70.5c-0.2,78.1,54.6,173.2,122.6,212.4         c1.3,0.7,2.5,1.4,3.8,2.1l178.3,103c0,0,0,0,0,0c67.8,39.3,123.2,7.8,123.4-70.4C1965.3,1796.8,1910.4,1701.8,1842.4,1662.6z         " class="colorFF8666 svgShape"/><path fill="#9e5327" d="M1929.1,2066.8c9.1,5.2,16.3,17.9,16.3,28.2l-0.2,46.6c0,10.3-7.4,14.6-16.5,9.3l-191-110.2          c-9.1-5.2-16.3-17.9-16.3-28.2l0.2-46.6c0-10.3,7.4-14.6,16.5-9.3L1929.1,2066.8z" class="color27639E svgShape"/><path fill="#f7eee9" d="M2003.1,1567.5c9.1,5.2,16.3,17.9,16.3,28.4l-0.2,69.2c0,10.3-7.4,14.6-16.5,9.3l-566.3-327.1          c-9.1-5.2-16.3-17.9-16.3-28.4l0.2-69.2c0-10.3,7.4-14.6,16.5-9.3L2003.1,1567.5z" class="colorE9F0F7 svgShape"/><path fill="#fbb890" d="M1118.5,1274.5c15.4,8.9,27.8,30.3,27.6,48l-0.4,159.2c0,17.7-12.4,24.7-27.8,15.9L910,1377.5          c-15.4-8.9-27.8-30.3-27.6-48l0.4-159.2c0-17.7,12.4-24.7,27.8-15.9L1118.5,1274.5z" class="colorFBC977 svgShape"/><g><path fill="#f7eee9" d="M192.3,646.3c9.3,5.4,16.9,18.4,16.8,29.1c0,10.7-7.6,15-16.9,9.6l-30.1-17.4       c-9.3-5.4-16.9-18.4-16.8-29.1c0-10.7,7.6-15,16.9-9.7L192.3,646.3z" class="colorE9F0F7 svgShape"/><path fill="#ff9f66" d="M651.5,911.4c9.3,5.4,16.9,18.4,16.8,29.1c0,10.7-7.6,15-16.9,9.6l-63-36.4       c-9.3-5.4-16.9-18.4-16.8-29.1c0-10.7,7.6-15,16.9-9.7L651.5,911.4z" class="colorFF8666 svgShape"/><path fill="#f7eee9" d="M498.4 823c9.3 5.4 16.9 18.4 16.8 29.1 0 10.7-7.6 15-16.9 9.6l-63-36.4c-9.3-5.4-16.9-18.4-16.8-29.1 0-10.7 7.6-15 16.9-9.7L498.4 823zM345.3 734.7c9.3 5.4 16.9 18.4 16.8 29.1 0 10.7-7.6 15-16.9 9.6l-63-36.4c-9.3-5.4-16.9-18.4-16.8-29.1 0-10.7 7.6-15 16.9-9.7L345.3 734.7z" class="colorE9F0F7 svgShape"/><path fill="#774a11" d="M771.6,980.8c9.3,5.4,16.9,18.4,16.8,29.1c0,10.7-7.6,15-16.9,9.6l-30.1-17.4       c-9.3-5.4-16.9-18.4-16.8-29.1c0-10.7,7.6-15,16.9-9.7L771.6,980.8z" class="color114077 svgShape"/><path fill="#f7eee9" d="M307.5 905.6c9.3 5.4 16.9 18.4 16.8 29.1 0 10.7-7.6 15-16.9 9.7l-30.1-17.4c-9.3-5.4-16.9-18.4-16.8-29.1 0-10.7 7.6-15 16.9-9.6L307.5 905.6zM466.2 997.3c9.3 5.4 16.9 18.4 16.8 29.1 0 10.7-7.6 15-16.9 9.7l-82.7-47.7c-9.3-5.4-16.9-18.4-16.8-29.1 0-10.7 7.6-15 16.9-9.6L466.2 997.3zM702.1 1133.5c9.3 5.4 16.9 18.4 16.8 29.1 0 10.7-7.6 15-16.9 9.7l-82.7-47.7c-9.3-5.4-16.9-18.4-16.8-29.1 0-10.7 7.6-15 16.9-9.6L702.1 1133.5zM543.4 1041.9c9.3 5.4 16.9 18.4 16.8 29.1 0 10.7-7.6 15-16.9 9.7l-38.3-22.1c-9.3-5.4-16.9-18.4-16.8-29.1 0-10.7 7.6-15 16.9-9.6L543.4 1041.9z" class="colorE9F0F7 svgShape"/><path fill="#fbb890" d="M771,1173.3c9.3,5.4,16.9,18.4,16.8,29.1c0,10.7-7.6,15-16.9,9.7l-30.1-17.4       c-9.3-5.4-16.9-18.4-16.8-29.1c0-10.7,7.6-15,16.9-9.6L771,1173.3z" class="colorFBC977 svgShape"/><path fill="#f7eee9" d="M411.6 1158.6c9.3 5.4 16.9 18.4 16.8 29.1s-7.6 15-16.9 9.6l-10.7-6.2c-9.3-5.4-16.9-18.4-16.8-29.1 0-10.7 7.6-15 16.9-9.6L411.6 1158.6zM531.7 1228c9.3 5.4 16.9 18.4 16.8 29.1 0 10.7-7.6 15-16.9 9.6l-46.7-26.9c-9.3-5.4-16.9-18.4-16.8-29.1s7.6-15 16.9-9.6L531.7 1228z" class="colorE9F0F7 svgShape"/><path fill="#774a11" d="M713.1,1332.7c9.3,5.4,16.9,18.4,16.8,29.1c0,10.7-7.6,15-16.9,9.6l-46.7-26.9       c-9.3-5.4-16.9-18.4-16.8-29.1c0-10.7,7.6-15,16.9-9.6L713.1,1332.7z" class="color114077 svgShape"/><path fill="#ff9f66" d="M593,1263.3c9.3,5.4,16.9,18.4,16.8,29.1c0,10.7-7.6,15-16.9,9.6l-14.6-8.4       c-9.3-5.4-16.9-18.4-16.8-29.1c0-10.7,7.6-15,16.9-9.6L593,1263.3z" class="color66FFE8 svgShape"/><path fill="#f7eee9" d="M770.5 1365.8c9.3 5.4 16.9 18.4 16.8 29.1 0 10.7-7.6 15-16.9 9.6l-10.7-6.2c-9.3-5.4-16.9-18.4-16.8-29.1 0-10.7 7.6-15 16.9-9.6L770.5 1365.8zM190.6 1223.9c9.3 5.4 16.9 18.4 16.8 29.1 0 10.7-7.6 15-16.9 9.6l-30.1-17.4c-9.3-5.4-16.9-18.4-16.8-29.1 0-10.7 7.6-15 16.9-9.6L190.6 1223.9z" class="colorE9F0F7 svgShape"/><path fill="#ff9f66" d="M649.8,1489c9.3,5.4,16.9,18.4,16.8,29.1c0,10.7-7.6,15-16.9,9.6l-63-36.4       c-9.3-5.4-16.9-18.4-16.8-29.1c0-10.7,7.6-15,16.9-9.6L649.8,1489z" class="colorFF8666 svgShape"/><path fill="#f7eee9" d="M496.8 1400.6c9.3 5.4 16.9 18.4 16.8 29.1 0 10.7-7.6 15-16.9 9.6l-63-36.4c-9.3-5.4-16.9-18.4-16.8-29.1 0-10.7 7.6-15 16.9-9.6L496.8 1400.6zM343.7 1312.3c9.3 5.4 16.9 18.4 16.8 29.1 0 10.7-7.6 15-16.9 9.6l-63-36.4c-9.3-5.4-16.9-18.4-16.8-29.1 0-10.7 7.6-15 16.9-9.6L343.7 1312.3z" class="colorE9F0F7 svgShape"/><path fill="#774a11" d="M769.9,1558.4c9.3,5.4,16.9,18.4,16.8,29.1s-7.6,15-16.9,9.6l-30.1-17.4c-9.3-5.4-16.9-18.4-16.8-29.1       c0-10.7,7.6-15,16.9-9.6L769.9,1558.4z" class="color114077 svgShape"/></g><g><path fill="#ff9f66" d="M596.6,1946.1c-31.9-34.5-48-101.4-48.3-200.6l-2.1-731.2c-0.3-99.2,15.4-184.3,47-255.6     C624.7,688,673.9,633,740.9,594.1V222.9C567.5,323.1,435.7,449.8,345.6,603c-90.1,153.2-134.9,322-134.4,506.3l2.6,927.7     c0.5,183.4,46.3,299.6,137.4,348.7c90,48.5,219.9,24.4,389.6-72.5v-371.2C675.8,1978.5,627.7,1979.8,596.6,1946.1z" class="colorFF8666 svgShape"/><path fill="#fb600a" d="M520.2,105.7c-0.9,0.5-1.8,1.1-2.7,1.6c-4.4,2.6-8.8,5.2-13.2,7.9c-1.7,1-3.4,2-5.1,3.1     c-6,3.7-11.9,7.4-17.8,11.1c-0.2,0.1-0.3,0.2-0.5,0.3c-1,0.7-2,1.3-3.1,2c-4.5,2.9-8.9,5.7-13.3,8.6c-2,1.3-3.9,2.6-5.9,3.9     c-3.6,2.4-7.2,4.8-10.8,7.3c-0.9,0.6-1.8,1.2-2.7,1.8c-1.2,0.9-2.5,1.7-3.7,2.6c-3.2,2.2-6.3,4.4-9.5,6.6     c-2.2,1.5-4.3,3.1-6.5,4.6c-3.2,2.3-6.3,4.5-9.4,6.8c-1.4,1-2.8,2-4.1,3c-0.7,0.5-1.4,1.1-2.1,1.6c-3,2.2-5.9,4.4-8.9,6.6     c-2,1.5-4.1,3-6.1,4.6c-3.1,2.4-6.2,4.8-9.3,7.2c-1.5,1.2-3,2.3-4.5,3.5c-0.3,0.2-0.6,0.5-0.9,0.7c-3,2.4-5.9,4.7-8.9,7.1     c-1.7,1.4-3.5,2.8-5.2,4.2c-3.6,2.9-7.2,5.9-10.7,8.9c-1,0.8-2,1.6-3,2.5c0,0-0.1,0.1-0.1,0.1c-3.3,2.8-6.5,5.6-9.7,8.4     c-1.2,1-2.4,2-3.6,3.1c-4.4,3.8-8.7,7.7-13.1,11.6c0,0,0,0,0,0c-4.2,3.8-8.3,7.6-12.5,11.4c-1.3,1.2-2.6,2.5-3.9,3.7     c-2.7,2.5-5.4,5-8,7.5c-0.1,0.1-0.3,0.3-0.4,0.4c-1.1,1.1-2.2,2.2-3.3,3.2c-2.8,2.7-5.6,5.4-8.4,8.2c-1.5,1.4-2.9,2.9-4.3,4.4     c-1.9,1.9-3.7,3.7-5.6,5.6c-0.6,0.6-1.1,1.1-1.7,1.7c-1.3,1.4-2.7,2.8-4,4.1c-2.4,2.4-4.7,4.9-7.1,7.4c-1.4,1.5-2.8,2.9-4.2,4.4     c-1,1.1-2,2.1-3,3.2c-1.4,1.5-2.7,3-4.1,4.5c-1.2,1.3-2.3,2.5-3.5,3.8c-2.9,3.2-5.8,6.4-8.6,9.7c-0.6,0.6-1.1,1.3-1.7,1.9     c-0.1,0.1-0.2,0.2-0.3,0.3c-3.2,3.7-6.5,7.4-9.6,11.2c-0.9,1.1-1.9,2.2-2.8,3.3c-1.5,1.8-3,3.6-4.5,5.4c-0.9,1-1.7,2.1-2.6,3.1     c-1.1,1.3-2.2,2.7-3.3,4c-2.3,2.9-4.6,5.7-6.9,8.6c-0.9,1.1-1.8,2.3-2.7,3.4c-0.3,0.4-0.7,0.8-1,1.3c-2.3,2.9-4.5,5.8-6.8,8.7     c-0.6,0.8-1.3,1.7-2,2.5c-3,4-6,8-9,12c-0.1,0.2-0.2,0.3-0.4,0.5c-3.7,5-7.3,10-10.9,15.1c-1,1.4-1.9,2.7-2.9,4.1     c-2.6,3.8-5.2,7.5-7.8,11.3c-0.5,0.7-0.9,1.4-1.4,2c-1.2,1.7-2.3,3.5-3.5,5.2c-1.2,1.9-2.5,3.7-3.7,5.6c-1.8,2.7-3.5,5.4-5.3,8.1     c-1.1,1.8-2.3,3.5-3.4,5.3c-1.9,3-3.8,6-5.7,9.1c-0.9,1.5-1.9,3-2.8,4.5c-2.8,4.5-5.5,9.1-8.2,13.7c-0.6,1-1.2,2.1-1.8,3.1     c-0.8,1.4-1.6,2.8-2.4,4.2c-1.9,3.4-3.9,6.7-5.8,10.1c-1.2,2.1-2.3,4.1-3.4,6.2c-1.8,3.2-3.6,6.5-5.3,9.7     c-0.6,1.1-1.2,2.2-1.8,3.3c-0.7,1.4-1.5,2.8-2.2,4.2c-0.8,1.6-1.7,3.2-2.5,4.8c-1.7,3.2-3.3,6.4-4.9,9.6c-0.7,1.3-1.4,2.7-2,4     c-0.2,0.4-0.4,0.8-0.6,1.3c-1.9,3.9-3.8,7.8-5.7,11.7c-0.5,1-0.9,1.9-1.4,2.9c-1,2.1-2,4.1-3,6.2c-0.4,0.9-0.8,1.7-1.2,2.6     c-2.2,4.7-4.4,9.5-6.5,14.2c-0.4,1-0.9,1.9-1.3,2.9c-0.1,0.3-0.2,0.5-0.3,0.8c-2.6,5.9-5.1,11.7-7.6,17.6     c-0.2,0.4-0.3,0.7-0.5,1.1c-0.5,1.1-0.9,2.2-1.3,3.3c-1.9,4.6-3.7,9.2-5.5,13.8c-0.4,0.9-0.8,1.9-1.1,2.8     c-0.8,1.9-1.5,3.9-2.2,5.8c-0.4,1-0.8,2-1.2,3c-1.5,4-3,8.1-4.5,12.1c-0.2,0.4-0.3,0.9-0.5,1.3c-0.4,1-0.7,2.1-1.1,3.1     c-1.3,3.7-2.6,7.3-3.8,11c-0.4,1.3-0.9,2.6-1.3,3.9c-0.3,0.9-0.6,1.8-0.9,2.8c-1.1,3.3-2.2,6.5-3.2,9.8c-0.2,0.5-0.3,1-0.5,1.5     c-1.3,4-2.5,8-3.8,12c-0.2,0.6-0.4,1.3-0.6,1.9c-0.4,1.4-0.9,2.9-1.3,4.3c-1,3.4-2,6.8-3,10.2c-0.5,1.6-0.9,3.2-1.4,4.8     c-0.3,1.1-0.6,2.2-0.9,3.3c-0.7,2.4-1.3,4.7-1.9,7.1c-0.4,1.4-0.8,2.9-1.2,4.3c-1.3,4.7-2.5,9.5-3.7,14.3c0,0.1,0,0.2-0.1,0.3     c-0.2,0.7-0.3,1.3-0.5,2c-1,4.2-2.1,8.5-3,12.8c-0.4,1.7-0.8,3.3-1.1,5c-0.5,2.2-1,4.4-1.5,6.6c-0.2,1.1-0.5,2.2-0.7,3.3     c-0.4,2-0.8,3.9-1.2,5.9c-0.7,3.1-1.3,6.3-1.9,9.4c-0.4,2-0.8,3.9-1.1,5.9c-0.2,1.1-0.4,2.1-0.6,3.2c-0.4,2.1-0.8,4.3-1.2,6.4     c-0.4,2-0.7,3.9-1.1,5.9c-0.6,3.5-1.2,7.1-1.8,10.6c-0.3,1.6-0.5,3.2-0.8,4.8c0,0.3-0.1,0.6-0.2,0.9c-0.7,4.4-1.4,8.9-2,13.3     c-0.1,0.5-0.1,1-0.2,1.5c-0.7,5-1.4,10-2,15.1c0,0.2-0.1,0.5-0.1,0.7c-0.2,2-0.5,3.9-0.7,5.9c-0.4,3.4-0.8,6.8-1.2,10.2     c-0.2,2.2-0.5,4.4-0.7,6.7c-0.3,2.6-0.6,5.2-0.8,7.9c-0.1,0.5-0.1,1.1-0.1,1.6c-0.3,2.7-0.5,5.5-0.7,8.2     c-0.2,2.8-0.5,5.7-0.7,8.5c-0.2,2.7-0.4,5.5-0.6,8.2c-0.2,2.3-0.3,4.5-0.5,6.8c0,0.6-0.1,1.1-0.1,1.7c-0.2,3.3-0.4,6.6-0.5,9.9     c-0.1,2.5-0.3,5-0.4,7.5c-0.2,3.4-0.3,6.9-0.4,10.4c-0.1,2.1-0.2,4.1-0.2,6.2c0,0.3,0,0.6,0,0.9c-0.1,3.9-0.2,7.8-0.3,11.7     c0,2-0.1,3.9-0.1,5.9C0,974.8,0,980.7,0,986.6l2.6,927.7c0,0.8,0,1.5,0,2.3c0,4.4,0.1,8.7,0.2,13c0,0.9,0,1.8,0,2.7     c0.1,4.8,0.2,9.5,0.4,14.2c0,0.7,0.1,1.4,0.1,2.1c0.1,1.8,0.1,3.7,0.2,5.5c0.1,1.3,0.1,2.6,0.2,4c0.1,3.3,0.3,6.5,0.5,9.7     c0.1,2.3,0.3,4.7,0.4,7c0.2,3.2,0.4,6.3,0.7,9.5c0.1,1.4,0.2,2.9,0.3,4.3c0.1,0.8,0.2,1.6,0.2,2.4c0.3,3,0.5,6,0.8,9     c0.2,2.2,0.4,4.4,0.6,6.5c0.3,3.1,0.7,6.1,1,9.1c0.2,1.6,0.3,3.2,0.5,4.8c0.1,0.4,0.1,0.8,0.2,1.2c0.4,3.1,0.8,6.2,1.3,9.2     c0.3,1.8,0.5,3.6,0.8,5.4c0.5,3.6,1.1,7.2,1.7,10.7c0.2,1.1,0.3,2.2,0.5,3.2c0,0.1,0,0.1,0,0.2c0.8,4.7,1.7,9.3,2.6,13.8     c0.2,1.2,0.5,2.3,0.7,3.5c0.7,3.3,1.4,6.6,2.1,9.9c0.1,0.3,0.1,0.5,0.2,0.8c0.3,1.3,0.6,2.5,0.9,3.8c0.7,2.9,1.4,5.8,2.1,8.7     c0.4,1.7,0.9,3.4,1.4,5.1c0.7,2.6,1.4,5.2,2.1,7.7c0.2,0.6,0.3,1.3,0.5,1.9c0.7,2.5,1.5,4.9,2.2,7.3c0.1,0.3,0.2,0.6,0.3,0.9     c1,3.3,2.1,6.5,3.2,9.7c0.2,0.5,0.3,1,0.5,1.5c0.9,2.5,1.7,5,2.6,7.4c0.3,0.7,0.5,1.4,0.8,2c0.3,0.8,0.6,1.5,0.9,2.3     c1.2,3,2.4,6.1,3.6,9c0.1,0.2,0.1,0.3,0.2,0.5c1.3,3.1,2.6,6.1,4,9.1c0.3,0.7,0.7,1.4,1,2.2c0.3,0.7,0.7,1.5,1,2.2     c0.8,1.6,1.5,3.1,2.3,4.7c0.4,0.8,0.8,1.6,1.2,2.4c1.5,2.9,3,5.8,4.6,8.7c0.3,0.5,0.6,1.1,0.9,1.6c1.3,2.3,2.6,4.5,3.9,6.8     c0.5,0.9,1.1,1.8,1.7,2.7c0.6,1,1.2,2,1.9,3c0.6,1,1.3,1.9,1.9,2.9c0.4,0.5,0.7,1.1,1.1,1.6c1.6,2.5,3.3,4.9,5,7.3     c0.3,0.5,0.7,0.9,1,1.4c1.5,2.1,3.1,4.1,4.6,6.1c0.4,0.5,0.7,0.9,1.1,1.4c1.8,2.3,3.6,4.5,5.5,6.6c0.4,0.5,0.8,0.9,1.2,1.4     c1.7,1.9,3.3,3.7,5,5.6c0.3,0.4,0.7,0.7,1,1.1c1.9,2,3.9,4,5.9,6c0.5,0.5,0.9,0.9,1.4,1.3c1.8,1.7,3.7,3.4,5.6,5.1     c0.3,0.2,0.6,0.5,0.8,0.8c2.1,1.8,4.2,3.6,6.4,5.3c0.5,0.4,1,0.8,1.6,1.2c2.1,1.6,4.1,3.2,6.3,4.7c0.2,0.1,0.4,0.3,0.5,0.4     c2.3,1.6,4.6,3.2,6.9,4.7c0.6,0.4,1.1,0.7,1.7,1.1c2.4,1.5,4.7,3,7.2,4.4l211.3,122.8c-2.4-1.4-4.8-2.9-7.2-4.4     c-0.6-0.4-1.1-0.7-1.7-1.1c-2.3-1.5-4.6-3.1-6.9-4.7c-0.2-0.1-0.4-0.3-0.5-0.4c-2.1-1.5-4.2-3.1-6.3-4.7c-0.5-0.4-1-0.8-1.6-1.2     c-2.2-1.7-4.3-3.5-6.4-5.3c-0.3-0.2-0.6-0.5-0.9-0.8c-1.9-1.7-3.7-3.4-5.6-5.1c-0.5-0.4-0.9-0.9-1.4-1.3c-2-1.9-4-3.9-5.9-6     c-0.3-0.4-0.7-0.7-1-1.1c-1.7-1.8-3.4-3.7-5-5.6c-0.4-0.5-0.8-0.9-1.2-1.4c-1.9-2.2-3.7-4.4-5.5-6.6c-0.4-0.5-0.7-0.9-1.1-1.4     c-1.6-2-3.1-4-4.6-6.1c-0.3-0.5-0.7-0.9-1-1.4c-1.7-2.4-3.4-4.8-5-7.3c-0.4-0.5-0.7-1.1-1.1-1.6c-1.3-2-2.5-3.9-3.8-6     c-0.6-0.9-1.1-1.8-1.7-2.7c-1.3-2.2-2.6-4.5-3.9-6.8c-0.3-0.5-0.6-1.1-0.9-1.6c-1.6-2.8-3.1-5.7-4.6-8.7     c-0.4-0.8-0.8-1.6-1.2-2.4c-1.1-2.3-2.2-4.6-3.3-6.9c-0.3-0.7-0.7-1.4-1-2.2c-1.4-3-2.7-6-4-9.1c-0.1-0.1-0.1-0.3-0.2-0.4     c-1.2-3-2.4-6-3.6-9c-0.3-0.8-0.6-1.5-0.9-2.3c-1.2-3.1-2.3-6.3-3.4-9.5c-0.2-0.5-0.3-1-0.5-1.5c-1.1-3.2-2.2-6.4-3.2-9.7     c-0.1-0.3-0.2-0.6-0.3-0.9c-0.9-3-1.9-6.2-2.8-9.3c-0.7-2.5-1.4-5.1-2.1-7.7c-0.5-1.7-0.9-3.4-1.4-5.1c-0.7-2.9-1.4-5.8-2.1-8.7     c-0.4-1.5-0.7-3-1.1-4.5c-0.7-3.2-1.4-6.5-2.1-9.9c-0.2-1.2-0.5-2.3-0.7-3.5c-0.9-4.5-1.8-9.1-2.6-13.8c-0.2-1.1-0.4-2.3-0.6-3.4     c-0.6-3.6-1.2-7.1-1.7-10.7c-0.3-1.8-0.5-3.6-0.8-5.4c-0.4-3-0.9-6.1-1.3-9.2c-0.3-2-0.5-4-0.7-6.1c-0.4-3-0.7-6-1-9     c-0.2-2.2-0.4-4.4-0.6-6.5c-0.3-3-0.6-6-0.8-9c-0.2-2.2-0.4-4.5-0.5-6.7c-0.2-3.1-0.5-6.3-0.7-9.5c-0.2-2.3-0.3-4.6-0.4-7     c-0.2-3.2-0.3-6.4-0.5-9.7c-0.1-3.1-0.3-6.3-0.4-9.5c0-0.7-0.1-1.4-0.1-2.2c-0.2-4.7-0.3-9.4-0.4-14.2c0-0.9,0-1.8,0-2.7     c-0.1-5-0.1-10.1-0.2-15.3l-2.6-927.7c0-5.9,0-11.8,0.1-17.7c0-1.9,0.1-3.9,0.1-5.8c0.1-3.9,0.1-7.9,0.3-11.8     c0.1-2.4,0.2-4.7,0.3-7c0.1-3.5,0.2-7,0.4-10.4c0.1-2.5,0.3-5,0.4-7.5c0.2-3.3,0.3-6.6,0.5-9.9c0.2-2.8,0.4-5.7,0.6-8.5     c0.2-2.8,0.4-5.5,0.6-8.3c0.2-2.8,0.5-5.7,0.7-8.5c0.2-2.7,0.5-5.5,0.7-8.2c0.3-3.2,0.6-6.3,0.9-9.5c0.2-2.2,0.4-4.5,0.7-6.7     c0.4-3.4,0.8-6.8,1.2-10.1c0.2-2,0.5-4,0.7-6c0.7-5.3,1.4-10.5,2.1-15.8c0.1-0.5,0.2-1.1,0.2-1.6c0.7-4.7,1.4-9.4,2.1-14.1     c0.3-1.6,0.5-3.2,0.8-4.8c0.6-3.6,1.2-7.1,1.8-10.6c0.3-2,0.7-3.9,1.1-5.9c0.6-3.2,1.2-6.4,1.8-9.6c0.4-2,0.8-3.9,1.1-5.9     c0.6-3.2,1.3-6.3,1.9-9.5c0.4-1.9,0.8-3.9,1.2-5.8c0.7-3.3,1.4-6.6,2.2-9.9c0.4-1.7,0.7-3.3,1.1-5c1-4.3,2-8.5,3-12.8     c0.2-0.7,0.3-1.3,0.5-2c1.2-4.9,2.5-9.7,3.7-14.6c0.4-1.4,0.8-2.8,1.2-4.3c0.9-3.5,1.9-6.9,2.9-10.4c0.4-1.6,0.9-3.2,1.4-4.8     c1-3.4,2-6.8,3-10.1c0.4-1.5,0.9-2.9,1.3-4.4c1.4-4.7,2.9-9.3,4.3-13.9c0.2-0.5,0.3-1,0.5-1.5c1.4-4.2,2.7-8.4,4.2-12.6     c0.4-1.3,0.9-2.6,1.3-3.9c1.3-3.7,2.5-7.3,3.8-11c0.4-1,0.7-2.1,1.1-3.1c1.6-4.5,3.3-9,5-13.4c0.4-1,0.8-2,1.2-3.1     c1.1-2.9,2.2-5.8,3.4-8.6c1.8-4.6,3.7-9.2,5.5-13.8c0.6-1.5,1.2-2.9,1.8-4.4c2.5-5.9,5-11.8,7.6-17.6c0.5-1.2,1.1-2.4,1.6-3.7     c2.1-4.8,4.3-9.5,6.5-14.2c1.4-2.9,2.7-5.9,4.1-8.8c0.5-1,0.9-1.9,1.4-2.9c2.1-4.3,4.2-8.6,6.3-12.9c0.7-1.3,1.4-2.7,2-4     c1.6-3.2,3.2-6.4,4.9-9.6c0.8-1.6,1.7-3.2,2.5-4.8c1.3-2.5,2.7-5,4-7.5c1.7-3.3,3.5-6.5,5.3-9.7c1.1-2.1,2.3-4.1,3.4-6.2     c1.9-3.4,3.8-6.8,5.8-10.2c1.4-2.4,2.8-4.8,4.2-7.2c2.7-4.6,5.4-9.2,8.2-13.7c0.9-1.5,1.9-3,2.8-4.5c1.9-3,3.7-6.1,5.6-9.1     c1.1-1.8,2.3-3.5,3.4-5.3c1.7-2.7,3.5-5.4,5.3-8.1c1.2-1.9,2.5-3.7,3.7-5.6c1.6-2.4,3.2-4.8,4.9-7.2c2.6-3.8,5.2-7.5,7.8-11.3     c1-1.4,1.9-2.7,2.9-4.1c3.6-5.1,7.2-10.1,10.9-15.1c3.1-4.2,6.2-8.3,9.4-12.5c0.6-0.8,1.3-1.6,1.9-2.5c2.6-3.4,5.2-6.7,7.8-10     c0.9-1.1,1.8-2.3,2.7-3.4c2.3-2.9,4.6-5.8,7-8.6c1.1-1.3,2.2-2.7,3.3-4c2.4-2.9,4.7-5.7,7.1-8.5c0.9-1.1,1.9-2.2,2.8-3.3     c3.3-3.9,6.6-7.7,10-11.5c0.5-0.6,1.1-1.2,1.6-1.8c2.9-3.3,5.8-6.5,8.7-9.7c1.1-1.3,2.3-2.5,3.5-3.8c2.3-2.6,4.7-5.1,7.1-7.7     c1.4-1.5,2.8-2.9,4.1-4.4c2.3-2.5,4.7-4.9,7.1-7.4c1.3-1.4,2.7-2.8,4-4.1c2.4-2.4,4.8-4.9,7.2-7.3c1.4-1.5,2.9-2.9,4.3-4.4     c2.8-2.8,5.6-5.5,8.4-8.2c1.1-1.1,2.2-2.1,3.3-3.2c2.8-2.7,5.7-5.4,8.6-8.1c1.2-1.2,2.5-2.4,3.7-3.5c4.1-3.8,8.3-7.7,12.5-11.4     c4.3-3.9,8.7-7.7,13.1-11.6c1.1-0.9,2.2-1.8,3.2-2.8c3.3-2.9,6.7-5.8,10.1-8.6c1.1-0.9,2.1-1.8,3.2-2.7c3.5-3,7.1-5.9,10.6-8.8     c1.7-1.4,3.5-2.8,5.2-4.2c3-2.4,5.9-4.8,8.9-7.1c1.8-1.4,3.6-2.8,5.4-4.2c3.1-2.4,6.2-4.8,9.3-7.2c2-1.5,4-3.1,6.1-4.6     c2.9-2.2,5.9-4.4,8.9-6.6c2.1-1.5,4.1-3,6.2-4.6c3.1-2.3,6.3-4.6,9.4-6.8c2.1-1.5,4.3-3.1,6.5-4.6c3.1-2.2,6.3-4.4,9.5-6.6     c2.1-1.5,4.3-3,6.5-4.4c3.6-2.4,7.2-4.9,10.8-7.3c1.9-1.3,3.9-2.6,5.8-3.9c4.4-2.9,8.9-5.8,13.4-8.7c1.2-0.8,2.3-1.5,3.5-2.3     c5.9-3.7,11.8-7.4,17.8-11.1c1.7-1,3.4-2,5.1-3.1c4.4-2.6,8.7-5.3,13.2-7.9c4.1-2.4,8.1-4.8,12.2-7.2L529.7,100.2     C526.5,102,523.3,103.8,520.2,105.7z" class="colorED4944 svgShape"/></g></svg>