<svg xmlns="http://www.w3.org/2000/svg" data-name="—ÎÓÈ_1" viewBox="0 0 534 400"><defs><clipPath id="a"><ellipse cx="277.938" cy="218.25" fill="none" rx="147.735" ry="152.059"/></clipPath><clipPath id="b"><path fill="none" d="M277.89859,355.0109s-24.8001,119.5816-26.2263,162.2206c-.6071,18.1478,8.8634,79.2131,1.909,111.0573.8134,5.8996,18.5183,7.3447,19.3263,4.0687,6.6907-27.1265,23.3966-67.3808,24.6172-91.1826.2723-5.3076-5.2632-14.5761-8.5442-22.5812,7.2205-20.2244,36.9851-95.547,36.9851-95.547l-26.2214-91.6998Z"/></clipPath><clipPath id="c"><path fill="none" d="M168.88119,477.8248c-2.6339-13.0756,19.665-126.8624,20.4266-166.1063,16.5248-2.0789,27.5601,5.0056,31.2784,11.2756,7.21681,12.1698,20.1137,39.1727,19.5337,55.1002-.8478,23.2774-41.7804,93.1708-42.5625,98.9238-.4671,3.4355,9.0973,14.6568,13.42661,23.1842,13.42669,26.4464-14.66341,93.6788-13.991,111.9429.03559.9668-8.94971,3.5749-13.48671-.8838C174.28019,537.7352,171.00519,488.3691,168.88119,477.8248Z"/></clipPath></defs><path fill="#fff5e6" d="M217.27739,343.5512c48.2083,6.9041,94.104,26.8715,144.05261,16.5873,32.73319-6.7397,64.40369-30.2433,70.038-63.1859,5.27579-30.8495-12.53881-58.004-25.22841-84.4461-5.8524-12.195-2.0557-19.3767-1.9137-31.349.1328-11.2093-4.5988-23.5966-9.1193-33.7529-9.4157-21.154-25.015-39.6001-45.617-50.5339-17.2653-9.1629-27.5029-5.4175-41.5024,5.5652-15.8411,12.4275-31.4764,26.0225-49.436,35.3382-17.4293,9.0404-36.8283,13.5192-56.1239,17.1509-27.651,5.2042-56.5666,9.9317-81.4695,23.7837-11.2977,6.284-23.54379,13.81-25.55549,27.2362-7.4872,49.9793,28.5787,75.5761,57.73039,108.122,14.1412,15.7876,24.6268,22.5944,46.4092,26.7073C205.365,341.8737,211.31539,342.6974,217.27739,343.5512Z" class="colorffebe6 svgShape"/><path fill="#82b3e0" d="M342.87639,84.1298h103.2187c7.22591-2.8258,10.214-15.6475,2.246-17.5167-4.0202-.943-22.13109,8.0031-25.8114,6.0713-3.0476-1.5996.6545-13.2758-8.0604-13.2758-12.3022,0-30.4977,18.1394-38.6024,18.1394s-10.1856-4.1053-17.0142-4.3132C352.02429,73.0271,342.87639,84.1298,342.87639,84.1298Z" opacity=".55" class="color829ee0 svgShape"/><path fill="#ffbe63" d="M381.46949 71.3782a.85051.85051 0 00.697.4408.9134.9134 0 00.3996-.0569.691.691 0 00.4122-.963c-.728-1.4331-1.5188-2.8465-2.3504-4.2011a.89659.89659 0 00-1.125-.3093.68361.68361 0 00-.3274.9898C379.98709 68.6001 380.759 69.9794 381.46949 71.3782zM376.53109 63.348a.86993.86993 0 00.6341.339.89833.89833 0 00.5133-.1104.67728.67728 0 00.2358-1.0111c-.9655-1.3134-1.9998-2.6019-3.0741-3.8297a.90784.90784 0 00-1.1631-.1435.67428.67428 0 00-.1393 1.0268C374.58369 60.8146 375.59069 62.0691 376.53109 63.348zM366.55489 52.8869c1.2634 1.0299 2.492 2.1185 3.6512 3.2363a.89011.89011 0 00.54691.24.88111.88111 0 00.62389-.1848.67388.67388 0 00.0396-1.0352c-1.1914-1.1486-2.4537-2.2675-3.7521-3.3257a.90417.90417 0 00-1.17.0332A.67692.67692 0 00366.55489 52.8869zM389.49 111.8187a.77086.77086 0 00-.71211-.8356.79939.79939 0 00-.9302.6138q-.063.41745-.1308.8339-.582.04365-1.1636.1013a.7404.7404 0 00-.71329.81.83159.83159 0 00.92969.6472q.34275-.0342.6858-.0629c-.13449.723-.2802 1.44-.4363 2.1461a.75738.75738 0 00.6549.8709.93048.93048 0 00.1012.0137.80069.80069 0 00.8702-.5762c.1864-.8433.3583-1.7015.5142-2.5674.9015-.0431 1.7994-.0597 2.6862-.0497a.76745.76745 0 00.8225-.7237.80231.80231 0 00-.8341-.7425c-.8011-.0089-1.6106.0029-2.4236.0355Q389.451 112.076 389.49 111.8187zM385.031 79.9623a.832.832 0 00.73649.5375.92428.92428 0 00.2917-.023.711.711 0 00.5613-.9001c-.4964-1.5037-1.0509-2.9979-1.6481-4.4409a.87612.87612 0 00-1.0637-.4526.70037.70037 0 00-.4908.9325C384.00249 77.0281 384.54519 78.4904 385.031 79.9623zM387.99329 93.4104c.18 1.5028.31571 3.035.4031 4.5539a.80087.80087 0 00.7683.7073.94863.94863 0 00.1014.0024.75723.75723 0 00.785-.7557c-.08909-1.5458-.2272-3.1048-.4106-4.6343a.82629.82629 0 00-.9112-.6671A.7452.7452 0 00387.99329 93.4104zM388.519 102.5269c-.00681 1.5506-.06321 3.083-.16811 4.555a.78612.78612 0 00.7686.7906l.006.0005a.78361.78361 0 00.8789-.6702c.1068-1.5007.16461-3.0623.1715-4.6413a.80221.80221 0 00-.8251-.7503A.77026.77026 0 00388.519 102.5269zM358.41039 47.2721c1.4429.8386 2.85661 1.7336 4.2017 2.6602a.90694.90694 0 00.44191.1552.86187.86187 0 00.71879-.2757.6826.6826 0 00-.1591-1.0298c-1.381-.9512-2.8319-1.87-4.3129-2.7305a.88707.88707 0 00-1.1437.2042A.69076.69076 0 00358.41039 47.2721zM387.30479 88.8804a.816.816 0 00.7587.6259.93916.93916 0 00.1929-.0046.73384.73384 0 00.6833-.8303c-.2844-1.5388-.6214-3.0781-1.0018-4.575a.85087.85087 0 00-.9904-.5708.72213.72213 0 00-.6257.8654C386.69509 85.8596 387.02569 87.3701 387.30479 88.8804zM242.68129 91.6343a.81192.81192 0 00-.9534.5859c-.2828 1.4955-.5231 3.0354-.7146 4.5771a.77572.77572 0 00.7329.8212l.0327.0034a.78984.78984 0 00.881-.6361c.1885-1.5148.4244-3.0273.7023-4.4961A.76345.76345 0 00242.68129 91.6343zM244.35619 88.0457c.38381-1.4783.8214-2.9497 1.3007-4.3735a.7367.7367 0 00-.5592-.9206.83487.83487 0 00-1.0292.4769c-.4893 1.4529-.9359 2.9542-1.3273 4.4623a.74986.74986 0 00.62281.8887.95828.95828 0 00.12769.0192A.80522.80522 0 00244.35619 88.0457zM255.84629 63.7738a.90843.90843 0 00.4368.1514.85988.85988 0 00.7225-.2799c1.0189-1.1893 2.1015-2.3594 3.2185-3.4777a.67826.67826 0 00-.0822-1.0356.90356.90356 0 00-1.1688.0526c-1.1433 1.1451-2.2519 2.343-3.2946 3.5604A.68326.68326 0 00255.84629 63.7738zM356.55409 127.9793a.9006.9006 0 00-1.1654.0865 45.75231 45.75231 0 00-3.1204 3.7109.6892.6892 0 00.2382 1.0189.91059.91059 0 00.39551.1253.85356.85356 0 00.75169-.316 44.25021 44.25021 0 013.0209-3.5924A.68019.68019 0 00356.55409 127.9793zM253.59579 75.1957c.6137 1.3616 1.1937 2.811 1.7241 4.3079a.83573.83573 0 00.73211.5235.91877.91877 0 00.30719-.027.708.708 0 00.54081-.91c-.54321-1.5329-1.13761-3.0179-1.76681-4.4141a.88065.88065 0 00-1.0775-.4257A.69652.69652 0 00253.59579 75.1957zM246.211 79.8051a.93036.93036 0 00.22959.0479.82263.82263 0 00.8347-.4624c.5954-1.4135 1.2496-2.8156 1.9445-4.1674a.71162.71162 0 00-.41479-.9767.86293.86293 0 00-1.09571.3479c-.7106 1.3822-1.37929 2.8157-1.9877 4.2604A.72349.72349 0 00246.211 79.8051zM377.87689 136.9937c-.9131 1.273-1.8905 2.5111-2.9051 3.6801a.68263.68263 0 00.1609 1.0294.90286.90286 0 00.4407.1544.86143.86143 0 00.7195-.2764c1.044-1.2025 2.0493-2.4759 2.9877-3.7847a.69165.69165 0 00-.2618-1.0147A.88606.88606 0 00377.87689 136.9937zM383.67309 128.6553a.85914.85914 0 00-1.08509.3717c-.66861 1.391-1.39991 2.761-2.17361 4.0719a.70309.70309 0 00.35561.9939.92032.92032 0 00.32169.0856.83957.83957 0 00.7946-.3809c.7933-1.3441 1.543-2.7486 2.2281-4.1744A.71565.71565 0 00383.67309 128.6553zM381.35979 113.3245a51.00594 51.00594 0 00-5.04379 1.3131.69973.69973 0 00-.48341.9358.84261.84261 0 00.7176.4855.919.919 0 00.3497-.0394 49.22748 49.22748 0 014.8658-1.2667.71778.71778 0 00.6002-.8798A.85625.85625 0 00381.35979 113.3245zM384.92489 125.7506a.92759.92759 0 00.2075.0405.8184.8184 0 00.8424-.4823c.5511-1.4343 1.0576-2.9225 1.5051-4.4231a.74322.74322 0 00-.59089-.9054.82724.82724 0 00-1.01161.5052c-.4379 1.4683-.93339 2.9242-1.4723 4.3272A.72912.72912 0 00384.92489 125.7506zM181.61459 67.1061a.9039.9039 0 00-1.16959.0393 45.77749 45.77749 0 00-3.30451 3.5834.68462.68462 0 00.1873 1.0263.9044.9044 0 00.4256.1443.85812.85812 0 00.73061-.2898 44.29963 44.29963 0 013.19789-3.4674A.67736.67736 0 00181.61459 67.1061zM399.62389 113.0805c-.8227-.16-1.6556-.3003-2.49689-.4112a.803.803 0 00-.92771.617.772.772 0 00.7156.8333c.8745.1152 1.7397.2608 2.5919.4314zM355.107 44.6283a.70139.70139 0 00-.34141-.9975c-1.51959-.7429-3.107-1.4538-4.7182-2.1128a.86333.86333 0 00-1.0928.3545.71278.71278 0 00.422.9743c1.5748.6439 3.1255 1.3384 4.6096 2.0642a.9215.9215 0 00.3312.0901A.84113.84113 0 00355.107 44.6283zM314.11969 36.0391c-1.7235.1211-3.4742.2899-5.2033.502a.7348.7348 0 00-.6887.8266.8146.8146 0 00.7594.6297.94414.94414 0 00.1883-.0039c1.6975-.2082 3.416-.3741 5.10761-.4929a.74686.74686 0 00.74259-.7887A.8231.8231 0 00314.11969 36.0391zM324.608 35.8767c-1.71851-.0714-3.48561-.0932-5.25221-.0648a.76042.76042 0 00-.7965.7463.7988.7988 0 00.7686.7168c.0298.0024.06011.0033.0905.0028 1.7308-.0278 3.46161-.0065 5.1443.0635a.7753.7753 0 00.8507-.6979A.8.8 0 00324.608 35.8767zM335.06439 37.0014c-1.6677-.303-3.4209-.5524-5.2105-.7419a.79336.79336 0 00-.9068.6406.7786.7786 0 00.74191.8153c1.74379.1846 3.45079.4274 5.07319.722.0314.0056.0629.0098.094.0123a.79955.79955 0 00.8716-.5826A.75894.75894 0 00335.06439 37.0014zM303.76169 37.3081c-1.7043.2983-3.4172.6439-5.0909 1.0266a.71386.71386 0 00-.5761.8927.83094.83094 0 00.74.5477.92938.92938 0 00.28031-.0202c1.64339-.376 3.32519-.7154 4.99869-1.0083a.72373.72373 0 00.6335-.8609A.85.85 0 00303.76169 37.3081zM266.40829 52.7611c-1.3242.9881-2.6199 2.0279-3.851 3.0908a.67466.67466 0 00-.0028 1.0364.89285.89285 0 00.5286.2232.8784.8784 0 00.64291-.2003c1.20359-1.039 2.47009-2.0554 3.76489-3.0213a.674.674 0 00.0859-1.0324A.90865.90865 0 00266.40829 52.7611zM274.80559 47.3408c-1.4707.8186-2.9192 1.6872-4.3053 2.5814a.67477.67477 0 00-.1665 1.023.87644.87644 0 00.6053.3023.8919.8919 0 00.5543-.1347c1.3564-.875 2.7742-1.7252 4.2141-2.5268a.67768.67768 0 00.2439-1.0095A.90288.90288 0 00274.80559 47.3408zM283.95389 42.9598c-1.577.6434-3.1433 1.3366-4.6554 2.06a.68255.68255 0 00-.3177.9921.8618.8618 0 00.6654.3846.9059.9059 0 00.4623-.0839c1.4819-.709 3.0172-1.3883 4.56351-2.0192a.68845.68845 0 00.38739-.9715A.89062.89062 0 00283.95389 42.9598zM345.18249 39.7028c-1.6127-.5473-3.289-1.0634-4.9826-1.5341a.83665.83665 0 00-1.0287.4783.73716.73716 0 00.5605.9199c1.6607.4616 3.3042.9675 4.8841 1.5034a.93239.93239 0 00.2256.0466.82192.82192 0 00.8362-.4663A.72451.72451 0 00345.18249 39.7028zM293.66009 39.6185c-1.6536.4705-3.3063.9891-4.912 1.5415a.69576.69576 0 00-.4537.9478.8459.8459 0 00.7093.4665.91513.91513 0 00.3707-.0464c1.5759-.5419 3.1978-1.0508 4.8208-1.5126a.70443.70443 0 00.5166-.9214A.87276.87276 0 00293.66009 39.6185zM364.05869 149.9244a33.63017 33.63017 0 01-4.3603 2.2051.68795.68795 0 00-.3829.9728.8543.8543 0 00.6877.423.91025.91025 0 00.4195-.0649 35.35929 35.35929 0 004.58-2.3146.67672.67672 0 00.209-1.0165A.90549.90549 0 00364.05869 149.9244zM348.09739 145.4246q.0207-.2586.0512-.5229a.77816.77816 0 00-.7404-.8164.79235.79235 0 00-.9078.6393q-.03345.28755-.05539.5684a12.43492 12.43492 0 00.338 4.252.82589.82589 0 00.74679.5716.92682.92682 0 00.25321-.0145.71949.71949 0 00.61029-.8744A11.1336 11.1336 0 01348.09739 145.4246zM188.21879 60.9883c-1.4081.9026-2.7765 1.8785-4.0674 2.9008a.67414.67414 0 00-.052 1.0347.9085.9085 0 001.1705.0664c1.2497-.9898 2.5745-1.9347 3.938-2.8087a.675.675 0 00.17011-1.0226A.90736.90736 0 00188.21879 60.9883zM372.59629 116.7843a.89274.89274 0 00-1.115-.3376 46.20562 46.20562 0 00-4.5614 2.2911.677.677 0 00-.2278 1.0127.87016.87016 0 00.63091.3345.89677.89677 0 00.51819-.1131 44.63058 44.63058 0 014.3953-2.2075A.686.686 0 00372.59629 116.7843zM363.79149 122.6306a.67369.67369 0 00.0841-1.0323.90839.90839 0 00-1.1685-.0948q-.31305.23445-.6196.4738c-1.1122.8685-2.188 1.7666-3.1973 2.6689a.67551.67551 0 00.0174 1.0369.89545.89545 0 00.5185.2141.8762.8762 0 00.6532-.2093c.9838-.8796 2.0329-1.7555 3.1183-2.6032Q363.49144 122.85505 363.79149 122.6306zM350.73969 135.4775a.87124.87124 0 00-1.10969.3125 28.79435 28.79435 0 00-2.007 4.3197.73281.73281 0 00.53759.9303.93493.93493 0 00.1941.0363.81635.81635 0 00.8469-.4939 27.44611 27.44611 0 011.9132-4.1165A.70532.70532 0 00350.73969 135.4775zM355.02089 153.4893c-.2628.0367-.518.0633-.7581.0789a5.59234 5.59234 0 01-3.5535-.861.89735.89735 0 00-1.159.1315.68375.68375 0 00.1715 1.0285 7.02443 7.02443 0 003.4166 1.1558 8.908 8.908 0 001.2774.0073c.2855-.0184.5865-.0496.8944-.0926a.73121.73121 0 00.6712-.838A.84127.84127 0 00355.02089 153.4893zM372.86929 144.0704a.90413.90413 0 00-1.1702.0243 46.23965 46.23965 0 01-3.639 3.1086.67382.67382 0 00-.0704 1.0335.90816.90816 0 001.1695.0824 47.69307 47.69307 0 003.7607-3.2125A.67612.67612 0 00372.86929 144.0704zM228.19319 53.7376a50.16666 50.16666 0 00-5.21719-.8723.7955.7955 0 00-.91291.6339.77654.77654 0 00.7342.8205 48.21765 48.21765 0 015.0216.8396.947.947 0 00.13.0194.80553.80553 0 00.864-.5507A.74944.74944 0 00228.19319 53.7376zM246.18489 63.8587a.8788.8788 0 00.6419-.1993.67469.67469 0 00.005-1.0365 23.60592 23.60592 0 00-2.9281-2.2785q-.6072-.398-1.22269-.7748a.89081.89081 0 00-1.14981.1796.68866.68866 0 00.2256 1.0213q.5925.3624 1.1778.7459a21.93177 21.93177 0 012.7207 2.1181A.891.891 0 00246.18489 63.8587zM238.12039 57.1145a47.56479 47.56479 0 00-4.8532-1.9551.8486.8486 0 00-1.0621.419.72456.72456 0 00.4943.9482 45.71431 45.71431 0 014.6679 1.8806.92477.92477 0 00.3179.084.83885.83885 0 00.7966-.3843A.704.704 0 00238.12039 57.1145zM242.282 106.036a41.24976 41.24976 0 01-.03761-4.5271.79846.79846 0 00-.7923-.7774.77881.77881 0 00-.8629.6863 42.57955 42.57955 0 00.0382 4.6697.80144.80144 0 00.7682.7045.98.98 0 00.1046.0026A.75694.75694 0 00242.282 106.036zM207.22139 53.4763c-1.7001.3213-3.4059.7291-5.07 1.2119a.70336.70336 0 00-.51039.9242.83852.83852 0 00.72469.5031.92261.92261 0 00.3298-.033c1.6093-.4672 3.25851-.8614 4.9022-1.172a.721.721 0 00.6186-.8696A.85252.85252 0 00207.22139 53.4763zM217.69439 52.5415c-1.7453-.0177-3.5193.0532-5.2728.2107a.7423.7423 0 00-.723.803.8097.8097 0 00.76341.6564.93269.93269 0 00.15849-.0007c1.6924-.1518 3.4041-.2202 5.08751-.2034a.76672.76672 0 00.82149-.7245A.80171.80171 0 00217.69439 52.5415zM197.26319 56.3618c-1.5846.628-3.15219 1.3376-4.659 2.1087a.68036.68036 0 00-.2857 1.0002.8651.8651 0 00.6534.3665.90086.90086 0 00.4826-.0939c1.459-.7466 2.9763-1.4332 4.5107-2.0414a.69.69 0 00.3994-.9677A.88858.88858 0 00197.26319 56.3618zM242.79159 110.5553a.83353.83353 0 00-.93859-.6365.73737.73737 0 00-.701.8183c.25379 1.5557.58579 3.1029.98709 4.5991a.82506.82506 0 00.7474.5742.91757.91757 0 00.2503-.014.71976.71976 0 00.6137-.8721C243.36109 113.571 243.03829 112.0676 242.79159 110.5553zM259.09159 119.5518a.82353.82353 0 00-.9962.5284 22.346 22.346 0 01-1.5392 4.217.71309.71309 0 00.4245.9735.92382.92382 0 00.2755.0651.83085.83085 0 00.8164-.4217 23.66785 23.66785 0 001.6357-4.4703A.74876.74876 0 00259.09159 119.5518zM259.56029 102.0098c.0748 1.5356.1073 3.0714.097 4.5641a.79312.79312 0 00.7692.7491c.0179.0014.0358.0022.054.0026a.77014.77014 0 00.8333-.7139c.011-1.5166-.0222-3.0765-.0983-4.6364a.81346.81346 0 00-.8632-.7157A.7592.7592 0 00259.56029 102.0098zM259.98229 98.1276a.97442.97442 0 00.1336.0012.74911.74911 0 00.7507-.7829c-.1571-1.5423-.35659-3.0944-.593-4.6138a.832.832 0 00-.9339-.6421.739.739 0 00-.7073.8141c.2329 1.4963.4294 3.0255.584 4.5449A.80577.80577 0 00259.98229 98.1276zM260.36359 110.456a.78311.78311 0 00-.8782.6707q-.0213.30315-.0451.6027c-.1082 1.3575-.2572 2.6746-.443 3.9145a.77106.77106 0 00.71271.8351c.01709.0023.03429.0042.05129.0056a.79285.79285 0 00.8785-.62c.19021-1.2694.3426-2.6165.4531-4.0036q.0243-.30555.0459-.6145A.786.786 0 00260.36359 110.456zM259.42919 88.14c-.3304-1.5498-.70519-3.0814-1.1138-4.5524a.85567.85567 0 00-1.0027-.5534.71867.71867 0 00-.6058.8767c.4015 1.4451.7694 2.9501 1.0943 4.4735a.81923.81923 0 00.7553.6082.9415.9415 0 00.2129-.0074A.729.729 0 00259.42919 88.14zM252.48969 69.6325c.51631-.782 1.0519-1.5529 1.601-2.3052a.69072.69072 0 00-.25269-1.0164.88767.88767 0 00-1.144.2038q-.58846.80565-1.15421 1.6367-.6438-.9549-1.3187-1.8282a.904.904 0 00-1.1526-.2048.67612.67612 0 00-.2088 1.0162c.5932.7674 1.1711 1.5903 1.7277 2.4584q-.28065.4383-.5529.8795a.70056.70056 0 00.3353.999.92091.92091 0 00.3351.0922.84179.84179 0 00.7875-.3695l.0393-.0635a.9057.9057 0 001.0566.2436.68529.68529 0 00.3536-.9819Q252.71869 70.0078 252.48969 69.6325zM245.18319 119.3888a.874.874 0 00-1.0565-.4659.7027.7027 0 00-.5061.926 29.72764 29.72764 0 002.1178 4.3561.859.859 0 00.6723.3961.90539.90539 0 00.44931-.0779.68413.68413 0 00.33779-.9867A28.30121 28.30121 0 01245.18319 119.3888zM253.82389 127.5857a3.26479 3.26479 0 01-.9917.3707 3.42879 3.42879 0 01-2.7377-.9067.90392.90392 0 00-1.1684.0542.67816.67816 0 00.0842 1.0355 5.73506 5.73506 0 003.0616 1.3117 4.27724 4.27724 0 001.1393-.061 5.00486 5.00486 0 001.5227-.5637.67734.67734 0 00.2372-1.0109A.90271.90271 0 00253.82389 127.5857zM198.14659 305.8783c-5.9048-8.2428-21.5501 3.8408-34.4931-13.2069-2.6546-3.4964 10.693-14.7323 8.9894-19.3049-.7981-2.1417-16.8426 2.6571-17.5992.4036-8.8781-26.4411-1.1561-48.5719-11.0631-62.8085-3.4668-4.9822 8.29741-8.6325 5.6446-12.5333-.9096-1.3376-11.8725 5.0722-13.2813 4.1982-8.2242-5.1028-25.39689-14.2948-30.063-21.4495-3.4176-5.2402-5.1124-14.7254-6.43139-23.7659-.2872-1.9682 11.93429-5.0386 11.66879-6.9162-.8809-6.232-12.70809 1.7405-14.01089-1.1916-3.5916-8.084-25.2141-35.7006-12.7632-45.0769 9.2965-7.0009 48.338 25.0752 54.84059 34.747.7473 1.1115-6.2143 14.8271-4.6147 15.3957 1.4038.4991 11.8246-12.7238 13.4307-12.1929 12.4284 4.1089 29.855 9.3189 35.8886 17.8677 7.7058 10.918 5.8534 36.3695 9.47261 43.601 5.64479 11.2787 29.59789 28.1227 39.45949 49.4251.6058 1.3088-17.2386 2.9468-16.7466 4.2888.85911 2.3439 19.9302 4.4257 20.37911 6.8693.32609 1.7744-34.78-3.5378-34.70671-1.7118.0972 2.4228 35.2714 12.0032 34.8608 14.5144-3.1318 19.146-19.8858 17.2826-26.9803 19.0478C202.93349 297.8436 198.14659 305.8783 198.14659 305.8783z" class="colorff7a63 svgShape"/><path fill="#82b3e0" d="M202.05339,326.4375l3.3831-.9786c-3.75149-14.6265-8.7389-31.3739-14.7914-48.8277-.8936.4521-1.7808.9207-2.6558,1.4229C193.66719,295.0334,198.40859,311.5471,202.05339,326.4375Z" class="color829ee0 svgShape"/><path fill="#f7f4f1" d="M103.40379,133.4471c.4478-.682,1.003-.0944,3.2737,1.3467,33.7482,23.4146,62.6978,82.2383,81.9037,135.9778q-1.3194.6441-2.6107,1.3516c-18.44449-53.4326-45.8624-110.0846-77.2774-134.3358-2.3223-1.7155-3.4249-2.4053-5.08509-3.4793A.60669.60669,0,0,1,103.40379,133.4471Z" class="colorf7f6f1 svgShape"/><path fill="#f7f4f1" d="M182.63049,266.2245c-2.61049-7.9498-17.979-.0021-23.9551-16.5555-1.2257-3.3949,12.117-10.9683,11.91061-15.1385-.09671-1.9534-13.96571-.2966-14.00181-2.3391-.425-23.9667,11.1886-41.7155,6.9105-55.4019-1.4972-4.7895,8.7047-6.1171,7.58131-9.8575-.38521-1.2828-10.64171,2.5269-11.53671,1.5645-5.2248-5.6183-16.499-16.0985-18.4021-22.9291-1.3939-5.0027-.3693-13.373.8414-21.3056.2635-1.7271,10.682-2.4889,10.9402-4.1351.8569-5.4641-10.4717-.4497-10.7701-3.156-.82269-7.4613-11.0213-34.3771,1.1498-40.4967,9.08751-4.5694,31.9336,28.8169,34.6603,38.0802.3133,1.0645-8.6029,11.7324-7.481,12.4627.9845.6408,12.5103-9.0781,13.6467-8.379,8.7931,5.4094,21.26,12.5231,23.8959,20.7543,3.3665,10.5125-4.4381,31.9964-3.3811,38.7327,1.6485,10.5066,16.372,28.565,18.8538,48.2872.1526,1.2117-14.3506-.1091-14.2965,1.1137.0947,2.1355,14.6399,6.8246,14.3857,8.9829-.1847,1.5673-26.5908-8.3303-26.9878-6.7576-.5269,2.0869,24.8697,15.645,23.9196,17.73-7.24409,15.8962-20.0134,11.7473-26.05709,12.1748S182.63049,266.2245,182.63049,266.2245Z" class="colorf7f6f1 svgShape"/><path fill="#82b3e0" d="M182.46769,266.8754a.54288.54288,0,0,1-.4422-.3745c-.9678-2.9473-3.9381-3.4889-7.69849-4.1748-5.62171-1.0252-12.618-2.301-16.251-12.3643-.77331-2.142,2.30289-4.9084,5.86489-8.1117,2.8212-2.5373,6.014-5.4088,6.0117-7.1417-.5271-.5116-4.31359-.6042-6.3634-.6541-4.99919-.1252-7.6141-.2568-7.641-1.7716-.2048-11.5526,2.3567-21.6379,4.6166-30.536,2.4149-9.5084,4.5005-17.7203,2.32221-24.6888-.95651-3.0605,2.01449-4.9157,4.40189-6.4064,2.1205-1.324,3.4183-2.2259,3.2113-3.3199-.6984-.1426-3.52.5536-5.2373.9777-4.0322.9956-5.61189,1.3113-6.2072.6714-.9605-1.0329-2.1488-2.2539-3.4071-3.5466-5.7113-5.8684-13.5333-13.9053-15.1245-19.6164-1.4008-5.0281-.4306-13.3433.8265-21.5803.2007-1.315,2.3507-1.8697,6.1337-2.7367,1.6319-.3742,4.3388-.9946,4.81771-1.4751a1.52285,1.52285,0,0,0-.27261-1.2822c-.8321-.9217-3.3975-.6548-5.4587-.4405-2.6121.272-4.868.5065-5.054-1.1809a68.24362,68.24362,0,0,0-1.4698-6.9004c-1.3012-5.3652-3.0832-12.7131-3.2941-19.1867a24.21614,24.21614,0,0,1,1.1206-8.9905,10.57472,10.57472,0,0,1,5.2051-6.1552,6.03558,6.03558,0,0,1,5.0223.1023c10.9085,4.2813,28.1473,30.4179,30.4686,38.3041.2094.7119-.5237,1.8522-3.5032,6.0397a61.54656,61.54656,0,0,0-3.8627,5.8378c1.1733-.621,3.6834-2.4262,5.446-3.6937,5.4516-3.9204,7.0424-4.9119,7.8471-4.4169q.9285.57105,1.9068,1.1675c8.7812,5.364,19.70961,12.0396,22.2235,19.89,2.0755,6.4813.0823,16.6475-1.6764,25.617-1.1193,5.7091-2.086,10.6398-1.683,13.2077.6636,4.2301,3.53651,9.7918,6.8629,16.2317,4.6871,9.0743,10.5204,20.3674,11.9935,32.0746a.89173.89173,0,0,1-.2237.6914c-.556.6387-2.1135.719-7.5733.6798a60.07055,60.07055,0,0,0-6.2051.1431,9.86955,9.86955,0,0,0,1.8007,1.2027c1.2913.7238,3.0166,1.5389,4.6851,2.3271,5.5332,2.6141,7.77041,3.8177,7.606,5.2141a.89652.89652,0,0,1-.3728.6192c-.7871.5636-3.093.0088-13.7063-3.302-4.3792-1.366-10.1288-3.1595-12.4063-3.5287a27.3545,27.3545,0,0,0,3.1101,2.3894c2.13971,1.4807,5.0021,3.2962,7.7705,5.052,3.1297,1.9851,6.366,4.038,8.7186,5.7034,3.6409,2.5773,4.12161,3.4559,3.75661,4.257-6.17871,13.5583-16.29091,13.028-22.98231,12.6781a32.0928,32.0928,0,0,0-3.6782-.0662c-5.7008.4034-11.3084,6.2821-11.3643,6.3414a.70119.70119,0,0,1-.5208.2286A.5588.5588,0,0,1,182.46769,266.8754Zm15.8508-7.8103c6.6721.3495,15.7993.8273,21.5604-11.6597-.1342-.2635-.781-1.0629-3.8162-3.1749-2.28-1.5865-5.295-3.4989-8.21069-5.3483-2.94221-1.8663-5.98461-3.796-8.18561-5.34-3.3513-2.3512-3.8707-3.1521-3.6863-3.8827a.92129.92129,0,0,1,.4112-.5551c.9116-.5698,4.0208.2711,14.24171,3.4596,4.12089,1.2855,9.50889,2.9662,11.75869,3.3723a12.39676,12.39676,0,0,0-1.5892-1.0265c-1.3363-.7546-3.1149-1.5949-4.8351-2.4073-5.1063-2.4125-7.35-3.6019-7.406-4.8677a.906.906,0,0,1,.2561-.6597c.5877-.6281,2.163-.7068,7.672-.6672a51.30364,51.30364,0,0,0,6.3154-.1732c-1.5356-11.3379-7.2278-22.3575-11.8132-31.2348-3.3731-6.5304-6.2864-12.1704-6.98069-16.5948-.43891-2.7979.54949-7.8388,1.69389-13.6759,1.6418-8.3736,3.685-18.7948,1.70911-24.9648-2.38641-7.4524-13.12411-14.0114-21.75191-19.2817q-.9327-.56985-1.8244-1.1168c-.8344.1518-4.2632,2.6176-6.5506,4.2626-5.0873,3.6585-6.4583,4.5348-7.19309,4.0565a.788.788,0,0,1-.34161-.5804c-.1225-.9938,1.2225-3.0061,4.321-7.3608a41.361,41.361,0,0,0,3.2453-4.9293c-1.2393-4.0748-6.2111-12.5069-11.8751-20.1297-6.883-9.2636-13.4131-15.5898-17.91559-17.3571a4.88857,4.88857,0,0,0-4.00971-.1692c-9.0611,4.556-4.7881,22.1753-2.235,32.7025a68.50164,68.50164,0,0,1,1.4974,7.0583c.0624.5667,2.3214.3316,3.8159.1763,2.56-.2664,5.2071-.5417,6.4105.7915a2.74229,2.74229,0,0,1,.5393,2.3668c-.1971,1.2572-2.1701,1.7659-5.9336,2.6286-1.71179.3923-4.5577,1.0447-5.0152,1.5626-1.2301,8.0694-2.1804,16.1877-.8474,20.9723,1.5123,5.4277,9.2204,13.3476,14.8485,19.1307,1.2479,1.2822,2.4274,2.4941,3.3902,3.5279.55911.1839,3.3008-.4933,5.1238-.9435,4.5145-1.1148,6.2509-1.4349,6.573-.3623.6796,2.2626-1.7215,3.7618-3.84,5.0845-2.6449,1.6516-4.3344,2.8758-3.7433,4.7668,2.28661,7.3147.1567,15.7007-2.30939,25.4106-2.23391,8.7957-4.76531,18.7634-4.57411,30.1062.0856.0798.4785.3341,2.1013.4973,1.2585.1266,2.882.1667,4.4524.2049,4.85041.1155,7.3778.2466,7.4485,1.6778.1193,2.4116-3.1027,5.3091-6.5138,8.3768-2.6261,2.3619-5.8945,5.3013-5.4324,6.5813,3.4175,9.4662,10.0709,10.6795,15.4172,11.6545,3.6228.6607,6.7932,1.2389,8.2016,4.0783,1.7485-1.6621,6.5306-5.7503,11.597-6.1088.5467-.0387,1.133-.042,1.7637-.0261C196.89509,258.9905,197.58149,259.0266,198.31849,259.0651Z" class="color829ee0 svgShape"/><path fill="#82b3e0" d="M181.38359,309.7111s.103-.8445.29641-2.4279c.08869-.7995.19789-1.7856.32639-2.9447.1193-1.1549.2575-2.4823.392-3.9675.275-2.9706.5675-6.5743.8302-10.7012.26341-4.1269.498-8.777.6727-13.8408.1771-5.0641.2898-10.5414.3161-16.3227.0282-5.7815-.0245-11.8676-.19039-18.1464-.07491-3.1406-.193-6.3271-.32171-9.5508-.1421-3.2216-.2966-6.4805-.4966-9.7574-.3842-6.5567-.8998-13.1942-1.54369-19.8032-.63691-6.6107-1.43261-13.1859-2.346-19.6235-.928-6.4336-1.99151-12.7256-3.20071-18.7572-.3121-1.5049-.6069-3.0018-.9372-4.4721q-.24255-1.1043-.4827-2.198-.25335-1.08885-.5039-2.1667-.12524-.5388-.25-1.0745-.132-.53325-.263-1.0636-.26235-1.0605-.52149-2.1086-.27316-1.0428-.54291-2.0727c-.1813-.686-.3558-1.3696-.5487-2.0412-1.49039-5.3922-3.0905-10.4164-4.7925-14.9463a118.04024,118.04024,0,0,0-5.2546-12.0414,77.77866,77.77866,0,0,0-5.0908-8.6479q-.2952-.42765-.5747-.8322l-.2755-.3986q-.14293-.19035-.2817-.3752-.556-.73785-1.0413-1.3823c-.1578-.2176-.3269-.4128-.4838-.6049q-.23655-.2868-.4538-.5499c-.2903-.3497-.5499-.6712-.7899-.9521-.99379-1.0932-1.52379-1.6763-1.52379-1.6763a.53057.53057,0,0,0-.76771.0262.584.584,0,0,0-.0717.7915l.0157.0177s.5129.5778,1.47471,1.6611c.23229.2785.48369.5976.76469.9443q.21015.26055.4394.5451c.15191.1904.3155.3834.4683.5997q.4695.63855,1.0082,1.3713.13425.18315.2728.3721.13142.195.26661.3957.27058.40155.55659.8259a76.94666,76.94666,0,0,1,4.926,8.5923,117.20634,117.20634,0,0,1,5.0705,11.9845c1.6384,4.5116,3.1732,9.519,4.5965,14.8948.18441.6693.3507,1.3511.5235,2.0351q.2571,1.02675.5176,2.0666.24647,1.0452.4959,2.1028.1248.5286.2502,1.0604.11835.53445.2373,1.0719.23775,1.0746.4781,2.161.22725,1.0905.4569,2.1922c.313,1.4661.5905,2.9598.8853,4.4606,1.13961,6.0168,2.1324,12.2943,2.9895,18.7133.8425,6.4231,1.567,12.9834,2.13311,19.5789.57339,6.5937,1.019,13.2154,1.33469,19.7553.1656,3.2686.28631,6.5189.3951,9.7315.0953,3.2149.1804,6.3922.2231,9.5232.1014,6.2597.0923,12.3254.0058,18.0844-.0845,5.759-.252,11.2123-.4788,16.25-.2247,5.0376-.5043,9.6593-.80689,13.756-.30191,4.0969-.62771,7.6686-.92921,10.6083-.14779,1.4701-.2975,2.7817-.42679,3.9227-.13731,1.1369-.25421,2.1038-.34891,2.8879-.2092,1.5833-.3208,2.4277-.3208,2.4277a1.44813,1.44813,0,0,0,1.3964,1.7163,1.91154,1.91154,0,0,0,1.8435-1.6626Z" class="color829ee0 svgShape"/><path fill="#f7f4f1" d="M213.978,309.0341c-2.84111,9.1013-7.72261,14.8359-12.74541,20.6117l-26.9529,11.0533c-36.8803-2.3242-81.59769-58.4797-87.08419-97.0788C152.65669,232.5721,227.62149,266.1503,213.978,309.0341Z" class="colorf7f6f1 svgShape"/><path fill="#82b3e0" d="M87.083,242.8541a.81218.81218,0,0,0-.6829.897c5.4095,38.0233,49.01169,93.8226,86.29139,97.5993l3.2806-1.3454c-36.7404-.7535-81.972-57.3059-87.86689-95.7515a.32008.32008,0,0,1,.0346-.0051c40.23479,26.7475,97.01249,61.9758,112.36879,85.0321-.0949.0987-.5582.5961-1.0659,1.0994,1.2655-.519,2.1901-.8982,3.4777-1.4262C250.46859,275.9036,162.27689,230.1715,87.083,242.8541Z" class="color829ee0 svgShape"/><path fill="#f7f4f1" d="M109.68139 256.6515a.79946.79946 0 00.494-.8892l-2.5826-12.5532a.77569.77569 0 00-.9435-.5821.807.807 0 00-.6319.9325l2.5825 12.5534A.78353.78353 0 00109.68139 256.6515zM138.87859 275.7725a.83368.83368 0 00.3281-.0625.81061.81061 0 00.5096-.7051l1.3308-29.0226a.75865.75865 0 00-.7665-.7866.82335.82335 0 00-.8378.7676l-1.3307 29.0228A.75854.75854 0 00138.87859 275.7725zM188.76419 262.2036a.83367.83367 0 00-1.0065.54l-12.4889 38.8942a.74866.74866 0 00.5258.9573.83416.83416 0 001.0065-.5401l12.4887-38.8941A.74837.74837 0 00188.76419 262.2036z" class="colorf7f6f1 svgShape"/><path fill="#f7f4f1" d="M152.46609,285.8334c-28.0056-19.8688-58.65169-37.9821-59.22029-38.2048-1.7084-1.0049-3.6065-2.1092-5.3811-3.1264a.833.833,0,0,0-1.1061.2815.748.748,0,0,0,.2554,1.0621c.1317.0754,1.2755.733,1.5262.8784,16.04269,9.2717,40.51939,24.4586,62.95059,40.3732,12.8453,9.1137,40.641,29.5244,48.6116,43.0119l1.5092-.6189C193.22669,315.4151,165.96349,295.4084,152.46609,285.8334Z" class="colorf7f6f1 svgShape"/><path fill="#82b3e0" d="M121.70579 267.3952a.77057.77057 0 00-.9024-.6388L98.0666 270.4081a.81058.81058 0 00-.6892.8946.77022.77022 0 00.9024.6387l22.73659-3.6517A.81093.81093 0 00121.70579 267.3952zM119.84189 304.1916l36.465-11.4338c.0234-.0072.0465-.0155.0688-.0247a.79469.79469 0 00.477-.9555.78285.78285 0 00-.9958-.497l-36.4651 11.4337a.799.799 0 00-.5457.9804A.78284.78284 0 00119.84189 304.1916zM187.87289 316.9383l-32.2836 15.7193a.78486.78486 0 00-.3842 1.0458.79376.79376 0 001.0186.3609c.0168-.0069.0336-.0145.0501-.0225l32.2836-15.7193a.78486.78486 0 00.3842-1.0458A.79823.79823 0 00187.87289 316.9383z" class="color829ee0 svgShape"/><path fill="#82b3e0" d="M87.083,242.8541a.81218.81218,0,0,0-.6829.897c5.4095,38.0233,49.01169,93.8226,86.29139,97.5993l3.2806-1.3454c-36.7404-.7535-81.972-57.3059-87.86689-95.7515a.32008.32008,0,0,1,.0346-.0051c73.73449-11.9843,161.33129,32.7765,112.36879,85.0321-.0951.0988-.5409.5791-1.0659,1.0994l3.4777-1.4262C250.46859,275.9036,162.27689,230.1715,87.083,242.8541Z" class="color829ee0 svgShape"/><path fill="#f7f4f1" d="M369.77519,244.6144c-9.8837-19.7916-8.7803-63.513,3.62281-85.9391C400.57659,197.9323,369.77519,244.6144,369.77519,244.6144Z" class="colorf7f6f1 svgShape"/><path fill="#ffbe63" d="M369.06589,244.7681c-4.7795-9.5707-7.2634-25.4202-6.6447-42.3974.6376-17.4897,4.369-33.6065,10.238-44.2181a.57635.57635,0,0,1,.6326-.2562,1.16847,1.16847,0,0,1,.73421.488,63.31358,63.31358,0,0,1,11.077,30.4485,80.96663,80.96663,0,0,1-2.53581,27.9303,105.35373,105.35373,0,0,1-12.0736,28.4077.61415.61415,0,0,1-.7087.2008,1.11931,1.11931,0,0,1-.37289-.1898A1.205,1.205,0,0,1,369.06589,244.7681Zm-5.0288-41.873c-.577,15.8319,1.5528,30.6032,5.72491,40.0278a106.60493,106.60493,0,0,0,11.228-26.9533c3.80729-14.6681,5.54479-36.1192-7.39-55.7738C368.12139,170.6605,364.64809,186.1307,364.03709,202.8951Z" class="colorff7a63 svgShape"/><path fill="#f7f4f1" d="M369.77519,244.6144s11.496-89.4408,59.4413-126.6526c-1.1501,56.4731-37.22849,118.5834-50.1778,133.7174Z" class="colorf7f6f1 svgShape"/><path fill="#ffbe63" d="M368.97229,244.2925a301.96889,301.96889,0,0,1,11.7656-49.4812,225.96256,225.96256,0,0,1,18.2294-41.8912c8.6805-15.1169,18.6529-27.1055,29.6402-35.6328a.789.789,0,0,1,.8999.0561,1.0828,1.0828,0,0,1,.5172.8697c-.62759,30.8205-11.6101,61.9246-20.7128,82.5903-10.5387,23.9263-22.7269,43.4587-29.5915,51.4816a.77174.77174,0,0,1-1.0448-.0383l-9.26349-7.0648A1.02915,1.02915,0,0,1,368.97229,244.2925Zm59.377-124.484c-23.77729,19.3054-38.142,51.7687-46.0469,75.8429a304.2978,304.2978,0,0,0-11.6552,48.7835l8.1003,6.1776C393.06079,233.5052,426.432,173.4236,428.34929,119.8085Z" class="colorff7a63 svgShape"/><path fill="#ffbe63" d="M393.54779,262.7445l-14.5091-11.0653s6.6886-66.4441,54.5731-104.5793C437.21039,178.1324,426.90479,227.0634,393.54779,262.7445Z" class="colorff7a63 svgShape"/><path fill="#f7f4f1" d="M386.88289,258.2648a.54681.54681,0,0,0,.7515.0197c2.8211-3.4766,13.5169-25.9075,24.3504-51.0656,12.6157-29.2965,20.9144-51.6803,22.199-59.8767a.77519.77519,0,0,0-.492-.7526c-.316-.1337-.6077-.0138-.6519.2679-1.2742,8.1312-9.55189,30.4415-22.1426,59.6803-10.8109,25.1058-21.4619,47.4619-24.2479,50.8957a.60707.60707,0,0,0,.1912.7968C386.85439,258.2425,386.86869,258.2539,386.88289,258.2648Z" class="colorf7f6f1 svgShape"/><path fill="#f7f4f1" d="M426.98969 168.1953a.65594.65594 0 00.5796.1375c.2656-.0869.3378-.4001.1612-.6997l-5.6949-9.6644a.74787.74787 0 00-.8004-.385c-.2656.0869-.3378.4001-.16119.6998l5.69489 9.6643A.867.867 0 00426.98969 168.1953zM415.558 196.9822a.60191.60191 0 00.67029.0934c.2241-.1461.22171-.4881-.0052-.7635l-12.2939-14.9261a.66517.66517 0 00-.8164-.2345c-.2244.1461-.2217.4881.0054.7637l12.2936 14.926A.88659.88659 0 00415.558 196.9822zM404.87459 221.6671a.54164.54164 0 00.7585.0106.617.617 0 00-.2103-.7977l-14.9385-12.4545a.55769.55769 0 00-.7892-.0352.6174.6174 0 00.2103.7979l14.9387 12.4546zM380.58159 241.0603a.83572.83572 0 00.1228.0782l12.26661 6.3934c.30969.1616.62209.0761.69769-.1909a.73977.73977 0 00-.42369-.7754l-12.26661-6.3934c-.3097-.1617-.6222-.0761-.6978.1909A.70322.70322 0 00380.58159 241.0603z" class="colorf7f6f1 svgShape"/><path fill="#ffbe63" d="M373.09179,225.2953a1.17733,1.17733,0,0,0,.2209.1332c.4396.2025.8599.053.9386-.334,2.2018-10.8016,2.53671-53.6071-.061-66.3367a1.15919,1.15919,0,0,0-.953-.869.55236.55236,0,0,0-.6317.7041c2.57441,12.6146,2.2383,55.0546.05441,65.7684A1.00812,1.00812,0,0,0,373.09179,225.2953Z" class="colorff7a63 svgShape"/><g clip-path="url(#a)" fill="#000000" class="color000 svgShape"><g data-name="dad" fill="#000000" class="color000 svgShape"><path fill="#79addb" d="M262.17979,207.7791c-19.29679,12.5994-20.7499,114.6168-20.7499,123.5678,0,8.9512-14.66289,60.6278-14.66289,60.6278s1.80709,4.6162,11.07519,4.4734S273.678,348.8115,273.678,348.8115Z" class="color7982db svgShape"/><g clip-path="url(#b)" fill="#000000" class="color000 svgShape"><rect width="74.9" height="304.287" x="251.065" y="331.347" fill="#2e699e" class="color2e6c9e svgShape"/></g><path fill="#2e699e" d="M370.15069,359.9031c8.0416,38.9659,12.4585,110.4174,12.4704,145.264,11.2906,8.5779,18.6297,19.1988,19.8754,24.1899,6.1966,24.8255,1.5258,97.7082,1.5258,100.6166-2.0785,3.8779-19.5208,7.7827-19.341,1.2077-22.607-95.4025-30.6349-95.5941-37.1119-112.7051-26.395-69.731-59.7288-148.3964-59.7288-148.3964Z" class="color2e6c9e svgShape"/><path fill="#2e7abe" d="M311.82009,192.6423c12.04891,1.8602,66.8147,3.1488,81.6845,25.5529,6.2645,9.4389-18.153,146.1234-21.9034,150.2601-6.0086,6.6276-85.3816,15.5453-97.7609,0-3.5102-4.4077-35.7917-140.358-11.6605-160.6762C274.37439,197.5115,311.82009,192.6423,311.82009,192.6423Z" class="color2e58be svgShape"/><path fill="#233f59" d="M279.92739,128.9487c.1898,1.4171-.494,2.7936-.6157,4.2181-1.438,16.8237,10.0325,20.1972,21.2631,22.127,14.5605,2.5018,28.8919,17.6848,34.205-15.7755,2.3733-14.946-8.2855-35.9106-25.9311-30.3852-8.0715,2.5275-4.2996-6.2724-21.2702-3.0298C268.40549,109.7669,279.43529,125.2764,279.92739,128.9487Z" class="color232b59 svgShape"/><path fill="#f3c688" d="M323.29019,153.6523c.1261,1.1369,3.4236-12.5815,3.5706-11.3309,2.20821,18.7927,6.5907,49.1435,7.8655,52.203,1.3596,3.2631-11.9031,10.5354-21.4821,10.6052-13.2086.0961-20.93819-4.8948-20.93819-7.8859,0-2.9913,4.35069-33.2203,4.35069-33.2203l10.3438-22.8865Z" class="colorf3a088 svgShape"/><path fill="#ffbf66" d="M298.04569,129.5093c-3.4091,1.5426-6.9529-3.7761-9.1545-1.2207-3.07819,3.5728-4.4985,6.7498-4.0687,15.8679.7791,16.5304,9.5382,35.2721,15.25751,35.6007,17.69879,1.0173,24.94689-22.186,25.124-23.293,1.22059-7.6288.98509-8.9657.90829-9.6826,3.8323-.4529,4.3845-8.6833,2.3421-10.5982-4.9099-4.6035-2.1245,15.0115-6.1306,14.8244-5.8411-.2729-1.1676-16.9062-7.2609-22.2761C311.28459,125.4021,306.507,125.6803,298.04569,129.5093Z" class="colorf7b690 svgShape"/><path fill="#2e7abe" d="M293.49869,186.8084c-1.5001-.5523-8.323,10.1266-8.7514,12.5176s12.388,17.3435,15.4395,15.8177,5.4787-7.6597,6.67621-8.1373c1.86789-.745,2.99079,9.6631,6.70149,9.6631s31.6549-12.1189,31.8244-20.0738c.0193-.9053-12.4092-15.3484-13.1284-14.9756-1.6486.8547-12.66549,11.0222-26.1234,11.0222C299.11879,192.6423,294.79819,187.2868,293.49869,186.8084Z" class="color2e58be svgShape"/><path fill="#233f59" d="M307.12689,196.4278l-5.6118,16.5491s1.7525,7.0492,2.8058,10.1008c-2.8058,5.4927-10.2078,78.9321,0,104.1579a172.236,172.236,0,0,0,17.1968-26.0395s-14.7193-56.9614-13.0919-78.1184c1.88-4.0687,3.4861-11.6046,3.4861-11.6046Z" class="color232b59 svgShape"/><path fill="#233f59" d="M313.56489,217.5298a.8569.8569,0,0,0,.2376-.0336c.9298-.2678,22.8742-6.6807,31.4036-17.8327a.86021.86021,0,1,0-1.3666-1.0451c-7.2994,9.5428-25.6547,15.7086-29.7122,16.9802L307.947,196.1668a.861.861,0,0,0-.81221-.5993.90415.90415,0,0,0-.8223.5841L299.805,215.342c-2.71431-1.8367-10.76551-7.737-13.89541-15.022a.86071.86071,0,0,0-1.5819.6789c3.9926,9.2886,15.0191,16.1181,15.4862,16.4043a.86043.86043,0,0,0,1.2638-.4576l6.0235-17.7615,5.64381,17.7464A.86023.86023,0,0,0,313.56489,217.5298Z" class="color232b59 svgShape"/><path fill="#2e7abe" d="M393.50459,218.1952c25.1103,33.4544,33.5002,92.0582,33.28241,109.0404-.22041,17.181-34.68541,65.4511-48.41721,69.8758-6.1906,1.9947-12.7276-2.6052-11.952-8.3846.9155-6.8213,22.9374-54.629,22.9374-66.2246,0-11.5959-15.8678-45.0534-19.5297-60.6705C366.16379,246.2145,379.34479,199.3304,393.50459,218.1952Z" class="color2e58be svgShape"/><path fill="#233f59" d="M383.92729,302.5892a.86035.86035,0,0,0,.8054-1.1634c-7.1616-19.0408-14.0534-39.4443-12.8682-61.1198a.86129.86129,0,0,0-.812-.9063.87718.87718,0,0,0-.9063.8122c-1.20319,22.0089,5.7501,42.6078,12.9757,61.82A.86025.86025,0,0,0,383.92729,302.5892Z" class="color232b59 svgShape"/><path fill="#f3c688" d="M368.80509,385.5666c-7.0889,8.8414-12.4722,18.3135-12.4067,23.6522.02161,1.759,1.0144,11.418,6.2035,15.4468,5.1893,4.0289,9.258-12.1476,8.85111-13.2139s5.66269-5.739,5.69609-18.765C377.16759,385.5666,370.52039,383.4269,368.80509,385.5666Z" class="colorf3a088 svgShape"/><path fill="#255580" d="M371.65739,432.0348a1.147,1.147,0,0,0,.2599-2.264c-16.5629-3.8771-16.3847-24.7215-14.3794-42.4483a1.14769,1.14769,0,0,0-2.28089-.2575c-1.24011,10.9671-4.53581,40.1001,16.13819,44.9396A1.13985,1.13985,0,0,0,371.65739,432.0348Z" class="color255780 svgShape"/></g><path fill="#ff5c00" d="M305.53969,253.2858c14.8741,5.7461,25.1571,27.0565,24.55931,30.6519-2.53961,15.2724-26.54491,16.8998-26.54491,16.8998Z" class="colorcc624f svgShape"/><path fill="#233f59" d="M219.03519,240.4178c-1.71719-2.4573-24.3028-12.1562-25.9454-15.2575-1.7979-3.3943.1043-55.5455,1.5258-61.3351,4.915-20.0195,22.0859-31.5214,38.2196-23.1431,31.0495,16.1246,17.8592,80.927,17.3177,81.7319C247.84559,225.8443,230.33649,254.5444,219.03519,240.4178Z" class="color232b59 svgShape"/><path fill="#233f59" d="M232.69189,215.3702c20.3472-1.8056,45.87811,9.3042,54.04111,21.7532,8.16319,12.4489,32.54309,56.3863,30.23169,71.6471-2.3114,15.261-20.373,32.2359-30.23169,31.9863s-13.28691-17.5416-15.93171-14.6927c-1.5845,1.7067,4.5694,10.8282-7.0576,17.1485-11.6269,6.3205-88.6052,21.8819-90.3493,3.1801s3.6933-16.8724-1.744-18.7019-20.9358.9739-25.13839-10.5436c-7.32361-20.0712,13.23069-82.2221,30.09969-92.292C199.46689,211.2118,232.69189,215.3702,232.69189,215.3702Z" class="color232b59 svgShape"/><g clip-path="url(#c)" fill="#000000" class="color000 svgShape"><rect width="74.453" height="306.08" x="166.247" y="309.64" fill="#2e7abe" class="color2e58be svgShape"/><path fill="#2e7abe" d="M238.05859,353.7375c-16.2093-2.9473-32.89,5.4171-46.7558,21.3231a119.518,119.518,0,0,0-18.2766,29.0438,152.73863,152.73863,0,0,0-6.7844,17.8805q-1.46145,4.7058-2.669,9.6253h2.2921V506.769h-2.4237q1.13055,3.97725,2.51581,7.6886c7.37909,19.7688,20.04789,33.4697,36.25719,36.417,8.1046,1.4736,16.3272.1194,24.2567-3.5916a59.64027,59.64027,0,0,0,11.6234-7.275q2.82525-2.23125,5.5506-4.8526h-2.5627V354.846h1.4405q-.728-.23055-1.46669-.4311Q239.5785,354.0144,238.05859,353.7375Z" class="color2e58be svgShape"/><path fill="#2e7abe" d="M237.31189,357.8446c-31.0678-5.649-63.9431,32.0636-73.4288,84.2331h1.9818V496.639h-1.9776a102.72351,102.72351,0,0,0,4.3271,15.2289c7.0717,18.9452,19.21261,32.0751,34.7467,34.8997a38.18048,38.18048,0,0,0,23.24591-3.442,57.161,57.161,0,0,0,11.13909-6.9719q2.70737-2.13825,5.3193-4.6504h-1.5832V359.378h1.8925A34.70522,34.70522,0,0,0,237.31189,357.8446Z" class="color2e58be svgShape"/><path fill="#2e7abe" d="M236.56519,361.9516c-29.71719-5.4034-61.1629,30.6694-70.2363,80.5709a146.92705,146.92705,0,0,0-2.1663,35.9389,109.54856,109.54856,0,0,0,6.30941,30.8169c6.76419,18.1213,18.37709,30.6805,33.23569,33.3823a36.52018,36.52018,0,0,0,22.2354-3.2924,54.66519,54.66519,0,0,0,10.6546-6.6687q2.5899-2.04525,5.0882-4.4483h-.6037V363.4183h.8996A33.21719,33.21719,0,0,0,236.56519,361.9516Z" class="color2e58be svgShape"/><path fill="#66a7e1" d="M235.81839,366.0585c-28.36639-5.1576-58.3827,29.2755-67.0437,76.9086-4.3305,23.8166-2.502,46.4238,3.9548,63.7216,6.4566,17.2976,17.5418,29.2859,31.725,31.8648a34.86068,34.86068,0,0,0,21.2247-3.1427,52.186,52.186,0,0,0,10.1703-6.3656q2.472-1.95225,4.8568-4.2461,1.19085-1.14525,2.3565-2.372h-1.9806V368.4745h2.3773q-1.2156-.559-2.4707-1.0158A31.712,31.712,0,0,0,235.81839,366.0585Z" class="color7166e1 svgShape"/><path fill="#65a6e0" d="M235.07149,370.1655c-27.0154-4.912-55.6026,27.8815-63.8511,73.2464-4.1242,22.6824-2.3829,44.2131,3.7665,60.687,6.1493,16.4741,16.7067,27.8915,30.2144,30.3476a33.20015,33.20015,0,0,0,20.2139-2.993,49.69677,49.69677,0,0,0,9.686-6.0625q2.3544-1.85925,4.6256-4.0439,1.13415-1.09095,2.2443-2.2591h-.8889V372.4665h1.2667q-1.15784-.5325-2.3531-.9675A30.20952,30.20952,0,0,0,235.07149,370.1655Z" class="color7165e0 svgShape"/><path fill="#65a5df" d="M234.32479,374.2725c-25.66479-4.6664-52.8225,26.4873-60.6585,69.5841s6.617,81.8163,32.28171,86.4829c12.83229,2.3332,26.038-4.2886,37.015-16.8808h-1.88081V377.5607h2.3197A29.16813,29.16813,0,0,0,234.32479,374.2725Z" class="color7065df svgShape"/><path fill="#64a4de" d="M233.578,378.3795c-24.31391-4.4208-50.04231,25.0933-57.46591,65.9219-7.4236,40.8284,6.2687,77.5101,30.5827,81.9311,12.1569,2.2104,24.6675-4.063,35.0669-15.9924h-.6795V381.4948h1.0952A27.62661,27.62661,0,0,0,233.578,378.3795Z" class="color7064de svgShape"/><path fill="#64a4dd" d="M232.83129,382.4866c-22.9632-4.1752-47.2622,23.6992-54.2734,62.2594s5.9205,73.2041,28.8836,77.3794c11.4817,2.0876,23.2971-3.8372,33.1187-15.1039q.92085-1.05615,1.8176-2.1744h-1.2956V386.5741h1.7406q-.9183-.61155-1.86979-1.1454A26.09647,26.09647,0,0,0,232.83129,382.4866Z" class="color6f64dd svgShape"/><path fill="#63a3dc" d="M232.08449,386.5936c-21.6123-3.9296-44.4821,22.3052-51.0809,58.5971s5.5723,68.898,27.1847,72.8277c10.8062,1.9648,21.92671-3.6115,31.1706-14.2154q1.73325-1.9884,3.37411-4.2073h-1.65081V391.6638h2.1021a27.65606,27.65606,0,0,0-3.4559-2.3012A24.55793,24.55793,0,0,0,232.08449,386.5936Z" class="color6f63dc svgShape"/><path fill="#63a2db" d="M231.33779,390.7006c-20.2617-3.684-41.702,20.9112-47.8883,54.9349s5.2239,64.5917,25.48551,68.2759c10.13089,1.842,20.55629-3.3858,29.22239-13.327q1.625-1.86405,3.1634-3.9443h-.2386V395.4539h.6616a25.91579,25.91579,0,0,0-3.2399-2.1573A23.025,23.025,0,0,0,231.33779,390.7006Z" class="color6e63db svgShape"/><path fill="#62a1da" d="M230.59109,394.8076c-18.911-3.4384-38.9219,19.517-44.6958,51.2725s4.87571,60.2857,23.7865,63.7243c9.4554,1.7192,19.1859-3.1601,27.27421-12.4386a62.50634,62.50634,0,0,0,5.72839-7.7494h-1.6022V401.7496h2.0154A23.2399,23.2399,0,0,0,230.59109,394.8076Z" class="color6e62da svgShape"/><path fill="#62a1d9" d="M229.84429,398.9147c-17.5601-3.1928-36.1417,18.1229-41.5032,47.6102-5.3616,29.4871,4.5274,55.9796,22.0874,59.1724,8.7801,1.5964,17.81551-2.9343,25.3261-11.5501a58.04686,58.04686,0,0,0,5.3193-7.1958q1.2444-1.97445,2.393-4.1124h-2.3847V405.3608h.3754A21.5807,21.5807,0,0,0,229.84429,398.9147Z" class="color6d62d9 svgShape"/></g><path fill="#2e7abe" d="M222.74169,473.7546c-6.606-16.2329,4.72831-91.5913-19.8872-162.4058,15.8467-5.1261,40.1611-.6417,44.9842,4.8245,9.361,10.6091,27.0702,34.7309,29.4726,50.4871,3.511,23.0267-23.2678,95.7948-22.9626,101.5927.1822,3.4622,9.8929,15.1359,15.4761,22.9004,18.8615,26.2303,7.8933,102.917,11.962,120.7347.2154.9432-15.86779,4.1106-15.337-2.1904C243.66519,539.1848,226.79609,483.7176,222.74169,473.7546Z" class="color2e58be svgShape"/><path fill="#ffffff" d="M236.22729,221.3685c5.5031,2.476,13.4509,16.7315,15.3476,23.0423,2.9415,9.7884-10.61,36.4122-.2511,69.5483,5.3898,17.2409-65.5576,17.8513-64.5026,11.3685,3.6275-22.2911-2.5704-66.9773-.1954-78.8067,1.8868-9.3975,11.6103-22.8864,20.7158-27.8017C213.52849,215.3795,221.61439,214.7938,236.22729,221.3685Z" class="colorfff svgShape"/><path fill="#f3c688" d="M228.41709,180.3464c.8196,12.8558,5.637,36.9654,7.8102,41.0221,3.0592,5.7105-13.4826,11.1507-20.4168,9.3152-6.934-1.8355-8.97349-5.5065-9.1774-7.9537-.204-2.4474,5.8275-21.1212,7.2883-38.3239C215.08569,170.6942,228.083,175.1059,228.41709,180.3464Z" class="colorf3a088 svgShape"/><path fill="#ffbf66" d="M204.685,152.7279c-11.502,18.9154-6.453,47.5942,4.94309,50.2765,6.588,1.5506,24.3688-8.8426,23.3107-23.8297,5.4381-.064,7.6344-6.0786,6.2186-8.8348-2.5295-4.9244-6.5257.077-6.5257.077Z" class="colorf7b690 svgShape"/><path fill="#233f59" d="M264.39169,336.9763c3.8177,9.1113,9.5144,36.0838,13.2547,44.787,2.8689,6.676,3.2539,6.7949,5.9919,4.508,2.7383-2.2869,3.4769-8.1132,6.1242-13.0984s1.9796-9.4194-3.7526-11.6765c-5.7324-2.257,0-24.5201,0-24.5201Z" class="color232b59 svgShape"/><path fill="#115a9c" d="M291.45449,367.4348c.0131-3.4256-3.7789-5.9264-4.64049-5.9116a9.71592,9.71592,0,0,0-7.19511,4.5657c-1.8078,3.1345-4.22389,4.6638-5.7914,4.3194-.7008-.1539.2617,3.3868.51551,7.396.31359,4.9571-.50571,10.7973,3.80639,11.0298C279.55649,383.164,291.45449,367.4348,291.45449,367.4348Z" class="color113d9c svgShape"/><path fill="#92bbe0" d="M290.63479,365.2881c2.9463,1.8059-.2755,16.8243-6.2413,22.1466-2.4401,2.1769-8.724,2.4409-8.85149-.9765-.22311-5.9901,4.47719-7.3845,6.49289-11.3709,1.33-2.6303,1.1992-5.6632,2.494-7.6391C286.26129,364.8047,288.55139,364.0109,290.63479,365.2881Z" class="color929ee0 svgShape"/><path fill="#233f59" d="M237.38929,326.3241c-3.0354,9.0117,5.879,36.8519,6.3496,48.209.176,4.2478.3894,9.1061-.5685,12.8263-2.3622,9.1736,3.6883,9.9374,6.6233,7.9095,2.9351-2.0281,4.3496-7.1472,7.4399-11.8707,3.0903-4.7233,4.9467-8.4216-.0013-12.0919-6.69129-4.9632,5.5724-35.4775,5.5724-35.4775Z" class="color232b59 svgShape"/><path fill="#115a9c" d="M262.19979,378.6165c.9609-3.2879-3.43279-7.3422-4.2451-7.6298-2.4766-.8767-4.656.6468-7.2611,3.1583s-5.3503,3.312-6.7612,2.5472c-1.4107-.7649-4.4868,17.5718,1.4034,20.006C248.258,391.6395,262.19979,378.6165,262.19979,378.6165Z" class="color113d9c svgShape"/><path fill="#92bbe0" d="M261.50029,376.4257c1.3613,2.3243.6573,4.0028-1.2869,6.3723-1.1575,1.4108-3.0962,2.2156-3.9403,3.621-2.2558,3.7561-4.0593,10.2763-8.0749,10.9308s-6.0713-3.1801-5.4838-6.549C243.51139,386.2295,257.94319,370.352,261.50029,376.4257Z" class="color929ee0 svgShape"/><path fill="#ffbf66" d="M300.50269,344.1689c-8.5501,3.8101-42.4513,1.3036-44.4782,4.4783-2.1431,3.3568-9.1129,7.431-17.8657,8.0329-9.1577.6296-13.6804-12.6959-12.2167-14.7082,1.9198-2.6392,5.2005-1.0144,4.6815-6.2169-.1803-1.8093,2.2947-.2031,5.33941.2476,3.80029.5627,5.11909-1.2176,7.99339-.5072a55.34034,55.34034,0,0,1,7.2674,2.5067c2.3551.6427,49.5927-25.6446,56.74521-22.8362C315.12169,317.9743,319.21859,335.8288,300.50269,344.1689Z" class="colorf7b690 svgShape"/><path fill="#233f59" d="M310.58949,309.0951c3.5404,14.1553,2.7296,19.206-.9323,25.9193s-28.6841,8.4333-39.0593,5.7424c-10.375-2.6908-9.5132-2.2659-15.2517-5.4577-5.7383-3.1917-20.3186-2.8965-17.7935-9.4922,4.6846-12.2361,38.7736-13.1702,38.7736-13.1702Z" class="color232b59 svgShape"/><path fill="#ffbe63" d="M305.53969,253.2858c10.68431,3.4136,16.73031,61.6701,8.4388,73.0383-6.7009,9.1871-49.7339-3.1731-47.8317-12.8519,2.053-10.446-1.8155-51.0726,3.678-56.9637C275.31819,250.6172,290.02149,248.3277,305.53969,253.2858Z" class="colorff7a63 svgShape"/><path fill="#ffbf66" d="M271.42119,223.8986c1.2972-.5939.7346-3.6176,1.0856-5.7363.1891,1.7092,11.9198-3.953,18.2547,0,5.1942,3.2411,5.0306,16.2247,6.5507,17.278,2.1166.1726.9117,14.6705-3.7893,17.2673-5.75289,3.1778-14.0735,2.0916-14.8768-.3601a15.20459,15.20459,0,0,1-.87709-3.5952c-1.81941.4236-4.85821.4439-6.65971-1.0423C266.95009,244.2786,260.22289,229.0256,271.42119,223.8986Z" class="colorf7b690 svgShape"/><path fill="#233f59" d="M272.357,219.4275c-5.04591-3.3994,1.58879-17.9117,16.84479-16.1169,15.909,1.8716,27.1547,11.5417,27.154,22.7452-.0011,15.0907-13.4706,22.7572-17.9169,25.6983-4.4464,2.9413-12.0446-1.6526-14.2282-4.46s-1.55969-13.1015-.3119-14.6612,5.511-7.4866,3.3378-9.9821c-1.1855-1.3614-3.1298-1.2477-5.6774.3119A25.56732,25.56732,0,0,1,272.357,219.4275Z" class="color232b59 svgShape"/><path fill="#ffbe63" d="M270.69,255.6837c-21.05891,16.6344-35.28841-4.9072-41.50081-5.1106s3.6229,27.8657,16.7853,30.3068c13.1622,2.4413,29.2644-3.4179,34.3687-12.369S270.69,255.6837,270.69,255.6837Z" class="colorff7a63 svgShape"/><path fill="#ffbf66" d="M180.13349,316.2316c14.238-6.8625,53.122-17.0924,56.5114-17.1431,1.684-.0252,11.4932-4.5443,14.0059-5.5158s-10.7542-7.5954-12.3546-6.0904c-1.6005,1.5052-52.897-2.5592-57.3961,2.6927S180.13349,316.2316,180.13349,316.2316Z" class="colorf7b690 svgShape"/><path fill="#ffbf66" d="M240.34149 297.9218c4.4024-1.3893 13.5712 5.5931 20.4769 2.983 2.7548-1.0412 14.0279-8.6104 15.3951-11.9081s-10.0979.0422-12.3372.0608c-2.2392.0188-15.27229-.9335-13.8135-3.1983s10.4361-.5949 10.2843-5.5944c-.0224-.7419-2.7089.7191-5.9089.2388-1.905-.2858-3.9386-1.2764-6.1236-1.1189-4.6931.3386-11.4164 6.6684-11.8235 8.8274S234.46859 299.7753 240.34149 297.9218zM232.43969 255.4247c1.9417-2.4034 2.052-6.1127 1.3122-6.7234a9.978 9.978 0 01-2.4556-2.798c-.3334-.8553-.9255-1.8775-1.2377-.2414-.312 1.6358 1.20541 3.1756.421 3.3336-.7842.1578-2.3579-3.5108-2.9289-4.785-.5773-1.2889-1.1426-1.5436-1.48569-1.4138-.58741.2222.71149 3.9215.32319 4.0529-.3885.1316-2.6254-3.6218-3.5263-3.2536-.7187.2938 1.5844 3.9112 1.3457 4.0719s-2.1007-2.3791-2.567-1.8482c-.6388.7271 1.4536 3.7036 1.2149 3.8643-.23849.1607-2.11249-1.4801-2.3712-1.162-.6724.827 3.2395 5.6031 4.0818 6.4702a9.76081 9.76081 0 005.07691 2.1307C230.99909 257.0768 232.43969 255.4247 232.43969 255.4247z" class="colorf7b690 svgShape"/><path fill="#ff5c00" d="M268.34889,278.6821a.57587.57587,0,0,0,.2117-.0404c3.5759-1.4204,10.3746-6.2252,12.8907-10.5219a.57359.57359,0,1,0-.99029-.5791c-2.39411,4.0883-8.89811,8.674-12.32391,10.0346a.57365.57365,0,0,0,.2118,1.1068Z" class="colorcc624f svgShape"/><g data-name="daughter" fill="#000000" class="color000 svgShape"><path fill="#4192db" d="M362.38479,322.042c14.4897.2399,18.5313,17.2798,26.5348,18.2395,7.1593.8584-8.1674,18.9773-16.4522,19.5796C360.65359,360.7201,362.38479,322.042,362.38479,322.042Z" class="color6979cf svgShape"/><path fill="#ffbf66" d="M286.21109,385.1768c-4.1014-1.2036-6.396-3.1023-9.3967-3.204-2.749-.0933-9.1412,2.5938-10.51439,5.6452-.84231,1.8719,5.49269-.4577,7.62879,0s5.4164,2.1361,4.6535,2.899-2.0089.7119-4.45,1.1697-2.7972,1.7292-2.7972,2.3395,2.5483,0,4.0204,0,4.0661,1.1528,8.1856.2712,3.96691-5.6784,3.96691-5.6784Z" class="colorf7b690 svgShape"/><path fill="#ffbf66" d="M319.94739 344.4657c-12.7483 27.238-34.5723 36.7948-36.9408 43.1107-.6113 1.63.25241 3.4225 4.1963 2.3811 11.3392-2.994 30.5532-11.9802 37.5626-20.3689C334.21279 358.2822 319.94739 344.4657 319.94739 344.4657zM401.09409 380.9016c4.2717-.1516 6.9646-1.4236 9.8972-.7798 2.6866.5897 8.2154 4.7746 8.791 8.0708.353 2.0222-5.2088-1.8022-7.3916-1.8872s-5.7766.7298-5.2261 1.6577 1.7703 1.1867 4.02241 2.2341 2.28239 2.3676 2.13139 2.9588-2.469-.6304-3.89539-.9946-4.22491.1111-7.99821-1.7622c-3.7735-1.8732-2.43879-6.4833-2.43879-6.4833z" class="colorf7b690 svgShape"/><path fill="#ffbf66" d="M378.478,333.1099c5.61359,29.5451,24.39489,44.2039,25.12729,50.9095.189,1.7305-1.0912,3.2536-4.6548,1.2689-10.2461-5.7062-26.6398-19.1664-31.3561-29.0284C361.23789,342.9678,378.478,333.1099,378.478,333.1099Z" class="colorf7b690 svgShape"/><path fill="#ffffff" d="M338.58179,322.011c-6.0172-2.687-23.093,20.481-25.0667,25.218s14.9912,17.7582,20.7245,15.0006C342.84409,358.0911,338.58179,322.011,338.58179,322.011Z" class="colorfff svgShape"/><path fill="#ffffff" d="M362.38489,322.042c12.5576,18.3697,28.4326,98.611,36.3276,113.6117s-99.606,21.9088-94.0794.5921,17.1267-97.2143,33.9487-114.2348C343.12439,317.4148,362.38489,322.042,362.38489,322.042Z" class="colorfff svgShape"/><path fill="#1e374d" d="M332.80219,268.1264c-8.3228-5.3109-11.5731.9587-12.2718,2.4088-2.3341,4.8447,2.847,13.451,6.5803,14.345,2.3586.5649,1.4384-5.1175,3.15031-6.8357,3.89589-3.91,6.59139-2.164,6.97769-2.8507C337.57119,274.6028,336.60479,270.5528,332.80219,268.1264Z" class="color1e254d svgShape"/><path fill="#233f59" d="M369.70309,270.7647c4.0957,10.5031,5.4772,26.3012-9.161,31.1073-4.419,1.451-27.1915-12.3215-28.4886-14.6758-.7042-1.2784.2706-14.2534.3963-15.5519C333.83,257.3925,364.215,256.6902,369.70309,270.7647Z" class="color232b59 svgShape"/><path fill="#f3c688" d="M359.91359,299.3289c-3.0893,12.7368-1.0114,24.5821-1.609,25.7637-1.7121,3.3856-12.3167,2.7935-15.3954,0-2.0799-1.8876,3.2541-23.4669,3.2541-23.4669Z" class="colorf3a088 svgShape"/><path fill="#ffbf66" d="M332.54709,275.2271c-4.73709,20.093,1.3998,34.174,6.325,38.319,4.2784,3.6004,18.1181-4.4158,22.70491-18.227,7.28729-1.5107,6.55939-9.7018,1.38109-6.6425C361.56129,264.5473,334.29669,267.8058,332.54709,275.2271Z" class="colorf7b690 svgShape"/><path fill="#233f59" d="M377.97919,271.5803c4.267.4203,9.8094,4.5691,10.5312,5.7046,4.3045,6.7701-9.0199,14.0651-11.1588,13.7646-.8681-.122-2.3114-6.8378-4.6381-9.4647-1.7478-1.9733-8.5333-1.3984-8.8241-2.8214C363.54349,277.069,368.85689,270.6818,377.97919,271.5803Z" class="color232b59 svgShape"/><path fill="#233f59" d="M334.76749,268.3962c-10.0662,4.737-7.6686,13.7384-3.7443,16.432a4.09224,4.09224,0,0,1,2.3894-1.0787c-2.7767-6.2399,1.8212-10.2806,2.1057-10.3086-2.2631,4.4247-.5787,10.143-.2009,10.133a39.33295,39.33295,0,0,1,9.2857,1.1786,18.03481,18.03481,0,0,1,3.579-7.5221c-.7628,4.9074-.8392,7.6891-.3676,8.4111.3584.1172.4733-4.9587,4.5689-8.3882-2.2206,4.7124-2.80939,8.8863-2.4802,8.996,1.8076.6025,7.81481,2.6035,13.0549,2.4273,5.6691-3.7571,3.0753-17.1823-13.0913-22.6489C346.24719,264.8037,334.76749,268.3962,334.76749,268.3962Z" class="color232b59 svgShape"/><path fill="#ffffff" d="M362.38489,322.042c15.9482-.5784,21.7977,18.3908,26.5347,17.9992,4.737-.3914-16.4522.9596-16.4522,19.8199C360.78229,361.8007,362.38489,322.042,362.38489,322.042Z" class="colorfff svgShape"/></g></g><path fill="#82b3e0" d="M275.30559,31.4357h91.6037c3.6862-4.6468-4.1709-17.8515-15.0788-18.3168-10.9079-.4655-34.6302,12.8339-41.8229,12.8339-7.1925,0-14.4633-4.0016-20.5234-4.1861C283.42419,21.5824,275.30559,31.4357,275.30559,31.4357Z" opacity=".55" class="color829ee0 svgShape"/><path fill="#ffbe63" d="M205.27169,351.3956c-5.5035-30.1342-51.2949-51.737-88.9493-52.2759a.78086.78086,0,0,1,.0224-1.5615c37.677.5412,84.7413,22.2281,90.4631,53.5568a.78081.78081,0,0,1-1.5362.2806Z" class="colorff7a63 svgShape"/><path fill="#ffbe63" d="M116.33359,298.3389c-12.0291.1129-21.72559,1.6812-32.23439,6.9617Z" class="colorff7a63 svgShape"/><path fill="#ffbe63" d="M111.72719 295.203c2.9357 1.2336 4.607 2.6606 4.6064 3.1359-.0023 1.1475-4.93359 4.1109-8.7321 5.4477-6.3264 2.4226-12.33079 2.1501-19.84709 1.7655-.2229-.012-2.8697-.1634-3.6552-.2515C88.3695 297.7161 99.93459 290.3469 111.72719 295.203zM133.15829 299.7429c-1.1781.4746-9.3904-4.475-14.2844-11.2392-3.2972-4.5149-5.2572-9.1513-7.8993-12.3346a19.87933 19.87933 0 019.2365.9207C137.51849 282.7459 134.89919 299.0257 133.15829 299.7429zM157.48369 305.2367c-1.6988 1.5354-1.2521.2545-5.193-6.2351-3.5539-5.862-14.3788-13.0625-11.90169-26.8868 3.32259 3.7572 8.19229 4.6365 13.89129 9.5771C164.13 290.4459 161.93069 301.1277 157.48369 305.2367zM183.53 318.1808c-.64221.1885-2.11911.4273-2.39021.1259-.4606-.5012.2937-2.8413.58221-5.85a59.66024 59.66024 0 00-.06281-10.5278c-.3339-5.7482-1.181-15.9094-4.102-20.9083 3.7005.6902 10.404 5.1122 14.2711 12.1929C198.21179 305.0646 192.51819 315.5618 183.53 318.1808zM206.07769 335.3865c-.4283.5816-3.3889 4.5651-4.1114 4.4734-.302-.0471-.7512-.5935-1.2082-1.6378-3.8939-8.9383-1.9723-26.4638 10.1502-33.1345a18.02129 18.02129 0 017.607-2.3792C215.39909 321.6483 211.72069 328.0034 206.07769 335.3865zM142.40429 301.5934c.446.4213.0945 2.1459-.0466 2.7401-1.6479 6.2723-7.5494 12.6225-14.1258 14.3124-5.1643 1.443-9.3111.0598-13.6185-3.0685 1.28761-.9903 3.87161-2.3228 6.8118-4.2992 2.7535-1.9186 4.3389-3.0529 4.3389-3.0529C133.42379 302.8565 141.71959 300.9459 142.40429 301.5934zM155.63069 317.3087c4.5644-3.8702 12.344-6.7188 13.1145-6.2124 1.26181.8426.38881 9.1333-7.4641 15.0663-6.664 5.0319-14.1804 5.36-16.7329 4.636C147.55669 326.4513 151.56359 320.7497 155.63069 317.3087zM177.82539 330.9495c6.60861-6.0654 13.3167-5.0864 13.7024-4.3213.1456.2782-.04879.9674-.5012 1.8594-1.4444 2.8444-5.2237 7.4716-7.8162 10.1131-2.63339 2.703-5.8128 5.2572-14.8673 13.7792C169.58379 342.573 174.21929 334.1351 177.82539 330.9495z" class="colorff7a63 svgShape"/><path fill="#82b3e0" d="M287.73309,386.6909a.68554.68554,0,0,1-.1454-.8489c17.5601-28.6527,56.4438-50.5028,96.1576-45.3662a.74539.74539,0,0,1,.6448.7483.60032.60032,0,0,1-.6963.5746c-37.4057-4.8382-76.4347,14.6128-94.9423,44.8114A.65783.65783,0,0,1,287.73309,386.6909Z" class="color829ee0 svgShape"/><path fill="#82b3e0" d="M383.71949,341.1374c10.3467,1.341,21.11051,4.6229,32.7826,10.3982Z" class="color829ee0 svgShape"/><path fill="#82b3e0" d="M383.71959 341.1373c.05241-1.1375 13.506-6.1569 28.28441 5.9552a36.91629 36.91629 0 014.49809 4.4431 98.71238 98.71238 0 01-16.8787-2.5355C391.53149 346.9462 383.68439 341.8871 383.71959 341.1373zM406.65979 331.4914a70.86177 70.86177 0 0128.6081-4.3183z" class="color829ee0 svgShape"/><path fill="#82b3e0" d="M406.65989 331.4913c-.0008-1.1567 11.3652-12.1808 24.561-6.7306a17.5107 17.5107 0 014.047 2.4124 84.58123 84.58123 0 01-14.6157 5.0309C413.61139 333.7809 406.65989 332.254 406.65989 331.4913zM370.89849 350.6392c-4.763-4.7036-5.0347-9.8735-4.22949-10.2921.80229-.4174 4.14479.7185 5.12329 1.0908 10.6 4.0937 11.9118 11.3661 14.8033 16.7832C383.10029 358.2481 375.19469 354.9373 370.89849 350.6392zM348.38789 355.1222c-6.7995-4.6015-6.1694-10.4646-5.2525-10.8579.7517-.3222 3.8717 1.0436 6.9298 2.2342a65.03756 65.03756 0 016.3082 2.7463c4.2033 2.2236 10.4632 6.5464 11.339 10.9739a4.69817 4.69817 0 01.0931 1.1022c-.015.2481-.0352.3723-.0352.3723C363.973 358.7024 356.14939 360.2861 348.38789 355.1222zM317.73279 360.0208c-.4344-2.0568.3434-4.5678.8829-4.7692.6149-.2315 2.2244.9403 4.4179 2.0667 2.3213 1.2592 3.9682 1.8848 7.67741 3.7256 7.02589 3.6475 11.17529 6.6522 14.33119 7.7182C339.75949 373.0331 320.04989 371.9252 317.73279 360.0208zM309.61049 379.048c-3.9849-1.38-5.0384-1.9697-10.3163-3.6564-1.3133-.4165-2.7037-.8276-2.7523-1.1839-.3368-2.4322 15.7848-12.4587 26.0852 4.2355a25.2907 25.2907 0 012.8007 6.5755A133.27338 133.27338 0 00309.61049 379.048zM357.30119 341.2003c-.9637-.2579-2.3108-4.4398.1231-8.6524 4.1714-7.2205 16.994-10.6635 29.229-3.8195a45.99809 45.99809 0 00-10.9289 3.0537C372.40239 333.2351 358.44629 341.5211 357.30119 341.2003zM330.89979 348.7588c-1.7229.5352-10.4981-6.2955-3.919-16.2689a24.7518 24.7518 0 0112.413-9.0322c-.9759 5.2168-1.3549 8.4048-2.0971 11.5839C336.11559 340.0988 331.66289 348.5211 330.89979 348.7588zM308.17029 362.739c-1.0128.4328-5.3404-2.8802-6.0575-3.4722a40.92039 40.92039 0 01-3.5683-3.0998c-2.2767-2.2605-4.1886-5.1652-7.962-10.0964-.1147-.1366-1.4891-1.8346-1.8881-2.3618a20.87294 20.87294 0 0110.5329-.7926 14.09684 14.09684 0 017.0672 3.6271C312.28339 352.4781 309.20079 362.2973 308.17029 362.739z" class="color829ee0 svgShape"/><path fill="#ffbe63" d="M176.09619 80.8549c2.1292-4.5504 9.3784-5.5597 9.1185-.5974s-9.0823 12.4121-9.0823 12.4121-8.7851-7.1725-9.5743-11.5325C165.76889 76.7773 170.263 75.3946 176.09619 80.8549zM410.59329 104.8549c-2.1292-4.5504-9.3784-5.5597-9.1185-.5974s9.0823 12.4121 9.0823 12.4121 8.7851-7.1725 9.5743-11.5325C420.92059 100.7773 416.42649 99.3946 410.59329 104.8549z" class="colorff7a63 svgShape"/></svg>