<svg xmlns="http://www.w3.org/2000/svg" xmlns:xlink="http://www.w3.org/1999/xlink" viewBox="0 0 1300.31 1000"><defs><linearGradient id="a" x1="319.7" x2="288.86" y1="426.27" y2="518.78" gradientUnits="userSpaceOnUse"><stop offset="0" stop-color="#ffbf66" class="stopColorffb375 svgShape"/><stop offset="1" stop-color="#f2c07a" class="stopColorf2c97a svgShape"/></linearGradient><linearGradient id="i" x1="380.35" x2="500.74" y1="458.81" y2="458.81" xlink:href="#a"/><linearGradient id="j" x1="1236.1" x2="1231.74" y1="308.15" y2="356.03" gradientTransform="matrix(-1 .06 .06 1 1717.22 -51.33)" gradientUnits="userSpaceOnUse"><stop offset="0" stop-color="#e8a64a" class="stopColore8944a svgShape"/><stop offset="1" stop-color="#f2c07a" class="stopColorf2c97a svgShape"/></linearGradient><linearGradient id="k" x1="1274.17" x2="1231.7" y1="364.39" y2="258.21" gradientTransform="matrix(-1 .06 .06 1 1717.22 -51.33)" xlink:href="#a"/><linearGradient id="l" x1="1255.11" x2="1234.75" y1="264.7" y2="264.7" gradientTransform="matrix(-1 .06 .06 1 1717.22 -51.33)" gradientUnits="userSpaceOnUse"><stop offset="0" stop-color="#eda33b" class="stopColored9c3b svgShape"/><stop offset="1" stop-color="#f2c07a" class="stopColorf2c97a svgShape"/></linearGradient><linearGradient id="b" x1="1203.52" x2="1237.29" y1="286.25" y2="163.21" gradientTransform="matrix(-1 .06 .06 1 1717.22 -51.33)" gradientUnits="userSpaceOnUse"><stop offset=".22" stop-color="#4a381f" class="stopColor4a1f24 svgShape"/><stop offset=".77" stop-color="#85591a" class="stopColor854d1a svgShape"/></linearGradient><linearGradient id="m" x1="1191.59" x2="1194.28" y1="278.31" y2="268.54" gradientTransform="matrix(-1 .06 .06 1 1717.22 -51.33)" xlink:href="#a"/><linearGradient id="n" x1="1182.19" x2="1197.22" y1="169.33" y2="169.33" gradientTransform="matrix(-.97 .23 .23 .97 1634.77 -184.23)" xlink:href="#b"/><linearGradient id="o" x1="11.27" x2="21.15" y1="327.82" y2="327.82" gradientTransform="rotate(8.1 838.476 3858.194)" xlink:href="#b"/><linearGradient id="p" x1="928.69" x2="975.23" y1="848.36" y2="848.36" gradientTransform="rotate(.58 1249.377 -59779.685)" xlink:href="#a"/><linearGradient id="q" x1="214.77" x2="298.88" y1="857.07" y2="721.09" gradientTransform="matrix(-1 .05 .05 1 607.04 15.2)" xlink:href="#a"/><linearGradient id="r" x1="1016.49" x2="970.55" y1="291.34" y2="153.53" gradientTransform="rotate(-4.8 1478.725 7916.266)" xlink:href="#b"/><linearGradient id="s" x1="996.08" x2="1001.41" y1="361.18" y2="409.63" gradientTransform="matrix(.98 .18 -.18 .98 -561.8 -169.82)" gradientUnits="userSpaceOnUse"><stop offset="0" stop-color="#e89d33" class="stopColore89133 svgShape"/><stop offset="1" stop-color="#f2c07a" class="stopColorf2c97a svgShape"/></linearGradient><linearGradient id="t" x1="1004.06" x2="960.11" y1="303.25" y2="193.38" gradientTransform="matrix(1.04 0 0 .84 -662.05 150.44)" xlink:href="#a"/><linearGradient id="u" x1="1295.01" x2="1281.27" y1="179.46" y2="179.46" gradientTransform="matrix(.62 0 0 .62 -448.54 209.38)" gradientUnits="userSpaceOnUse"><stop offset="0" stop-color="#ffb754" class="stopColorff9e54 svgShape"/><stop offset="1" stop-color="#f2c07a" class="stopColorf2c97a svgShape"/></linearGradient><linearGradient id="v" x1="945.09" x2="990.5" y1="290.52" y2="125.09" gradientTransform="matrix(1 0 0 .97 -639.28 117.49)" gradientUnits="userSpaceOnUse"><stop offset=".22" stop-color="#4a381f" class="stopColor4a1f24 svgShape"/><stop offset=".77" stop-color="#6e5838" class="stopColor6e4238 svgShape"/></linearGradient><linearGradient id="c" x1="533.35" x2="534.92" y1="207.09" y2="220.22" gradientTransform="rotate(-14.39 813.87 1060.973)" gradientUnits="userSpaceOnUse"><stop offset=".26" stop-color="#875714" class="stopColor144f87 svgShape"/><stop offset=".88" stop-color="#b5905c" class="stopColor5cadb5 svgShape"/></linearGradient><linearGradient id="w" x1="1669.54" x2="1668.71" y1="440.15" y2="450.5" gradientTransform="matrix(-.99 -.15 -.15 .99 2085.92 122.5)" xlink:href="#c"/><linearGradient id="x" x1="451.73" x2="497.43" y1="516.53" y2="516.53" xlink:href="#a"/><linearGradient id="y" x1="447.53" x2="501.16" y1="447.04" y2="447.04" xlink:href="#a"/><linearGradient id="z" x1="381.41" x2="452.25" y1="403.02" y2="403.02" gradientTransform="rotate(.83 483.744 165.628)" xlink:href="#a"/><linearGradient id="A" x1="414.21" x2="405.06" y1="396.73" y2="402.23" gradientUnits="userSpaceOnUse"><stop offset="0" stop-color="#ffcd87" class="stopColorff8c87 svgShape"/><stop offset="1" stop-color="#f2c07a" class="stopColorf2c97a svgShape"/></linearGradient><linearGradient id="B" x1="421.08" x2="471.93" y1="404.74" y2="404.74" gradientTransform="rotate(-7.15 886.418 561.939)" xlink:href="#a"/><linearGradient id="C" x1="435.44" x2="464.8" y1="357.72" y2="357.72" gradientTransform="rotate(-9.96 877.058 551.619)" xlink:href="#a"/><linearGradient id="D" x1="950.96" x2="953.81" y1="229.51" y2="219.12" gradientTransform="rotate(-.1 61639.43 366987.608)" xlink:href="#a"/><linearGradient id="d" x1="184.65" x2="187.27" y1="1358.45" y2="1338.88" gradientTransform="rotate(-11.65 -3935.343 838.05)" gradientUnits="userSpaceOnUse"><stop offset="0" stop-color="#ffbf66" class="stopColorffb375 svgShape"/><stop offset=".99" stop-color="#f2cf9e" class="stopColorf2cf9e svgShape"/></linearGradient><linearGradient id="E" x1="254.84" x2="257.47" y1="1359.5" y2="1339.93" xlink:href="#d"/><linearGradient id="F" x1="627.3" x2="669.73" y1="634.56" y2="634.56" gradientTransform="matrix(-1 .02 .02 1 923.13 -10.97)" xlink:href="#a"/><linearGradient id="G" x1="10662.56" x2="10704.99" y1="384.61" y2="384.61" gradientTransform="translate(-10463.57 -10.97)" xlink:href="#a"/><linearGradient id="g" x1="2238.19" x2="2234.03" y1="290.57" y2="336.4" gradientTransform="rotate(10.49 -94.354 -10385.051)" gradientUnits="userSpaceOnUse"><stop offset="0" stop-color="#ffb34a" class="stopColorff944a svgShape"/><stop offset="1" stop-color="#f2c07a" class="stopColorf2c97a svgShape"/></linearGradient><linearGradient id="H" x1="216.61" x2="223.68" y1="1401.8" y2="1320.51" gradientTransform="rotate(-11.65 -3935.343 838.05)" xlink:href="#a"/><linearGradient id="e" x1="210.75" x2="213" y1="1338.18" y2="1348.89" gradientTransform="rotate(-11.65 -3935.343 838.05)" gradientUnits="userSpaceOnUse"><stop offset=".27" stop-color="#734b13" class="stopColor733813 svgShape"/><stop offset=".88" stop-color="#966724" class="stopColor964c24 svgShape"/></linearGradient><linearGradient id="f" x1="180.8" x2="266.76" y1="1310.87" y2="1310.87" gradientTransform="rotate(-11.65 -3935.343 838.05)" gradientUnits="userSpaceOnUse"><stop offset=".25" stop-color="#b06700" class="stopColorb04200 svgShape"/><stop offset=".88" stop-color="#b86e05" class="stopColorb85205 svgShape"/></linearGradient><linearGradient id="I" x1="1156.17" x2="1158.36" y1="1290.56" y2="1300.97" gradientTransform="matrix(-.95 .3 .3 .95 971.92 -1097.13)" xlink:href="#e"/><linearGradient id="J" x1="204.08" x2="214.32" y1="1330.25" y2="1330.25" xlink:href="#f"/><linearGradient id="K" x1="1028.85" x2="1039.49" y1="1354.45" y2="1354.45" gradientTransform="scale(-1 1) rotate(8 6650.313 -8274.754)" xlink:href="#f"/><linearGradient id="L" x1="2698" x2="2721.4" y1="877.87" y2="877.87" gradientTransform="matrix(-1 0 0 1 2859.79 0)" xlink:href="#a"/><linearGradient id="M" x1="2674.06" x2="2695.81" y1="881.35" y2="881.35" gradientTransform="matrix(-1 0 0 1 2859.79 0)" xlink:href="#a"/><linearGradient id="N" x1="2785.84" x2="2781.12" y1="288.88" y2="340.79" gradientTransform="matrix(-.99 .14 .14 .99 2869.95 -93.62)" xlink:href="#g"/><linearGradient id="O" x1="170.71" x2="181.29" y1="974.44" y2="895.56" gradientTransform="rotate(22.4 1182.778 680.307)" xlink:href="#a"/><linearGradient id="P" x1="167.59" x2="154.78" y1="551.12" y2="489.22" xlink:href="#b"/><linearGradient id="h" x1="-5.11" x2="-4.38" y1="597.27" y2="602.03" gradientTransform="matrix(.87 .05 -.06 .87 208.03 13.03)" gradientUnits="userSpaceOnUse"><stop offset=".35" stop-color="#8c6f47" class="stopColor47528c svgShape"/><stop offset=".88" stop-color="#b49161" class="stopColor6170b4 svgShape"/></linearGradient><linearGradient id="Q" x1="130.3" x2="131.76" y1="598.64" y2="603.76" gradientTransform="translate(42.25 -79.98)" xlink:href="#h"/><linearGradient id="R" x1="1566.46" x2="1569.28" y1="572.06" y2="561.76" gradientTransform="matrix(-1 0 0 1 1759.49 -22.71)" xlink:href="#a"/><linearGradient id="S" x1="119.68" x2="163.07" y1="684.75" y2="684.75" xlink:href="#a"/><linearGradient id="T" x1="155.21" x2="192.88" y1="685.43" y2="685.43" xlink:href="#a"/></defs><g style="isolation:isolate" fill="#000000" class="color000 svgShape"><path fill="url(#a)" d="M308.24 411.3c5.48-8.22 19.74-12.24 19.74-12.24l8.77 53.37-21.93 11-8.14 69.19-54.38 55.82-11-4.39 44-67.91 12.53-76.87s6.35-21.89 10.41-27.97Z"/><path fill="#382f23" d="M453 976c-14.95-1.08-7 2.42-20-.92 5.39-124.12 5.76-162.87 5.76-162.87l5.48-151.36 6-67.46s2.76 7 35.05 12.72c25.49 4.51 64.21 5.38 64.21 5.38l4.39 58.13-5.48 153.55-9.88 152.09s-1.28 2.93-16.08 2.93c-1.33-31-6.84-224.38-16.82-311.86l-14.23 3.27C476.05 748.57 469.83 850.94 453 976Z" class="color383623 svgShape"/><path fill="url(#i)" d="M380.35 396.77s2.47-.64 8.32 2.29c8.35 18.27 46.11 51 73.12 78.6 24.68 25.23 38 30.17 38.93 38.94 1.12 10.43-47.71-.55-68.55-7.13-25.22-21.39-43.24-50.91-43.24-50.91Z"/><path fill="#cfb28a" d="M576.16 404.29c-1.06-6.33-2.32-17.48-18.4-24.79l-49.36-18.1-40 11.33s-15 4.76-20.84 12.8c-4.39 13.16-20.87 59.7-26.32 65.81 4.67 9.41-7.5-6.22.54 3.29 2.47-4.66 16.41-13.56 17.37-13.9 10.33-3.65 9.51 2.11 11.23 3 6.58 42.77 2.66 79.6-4.28 143.22-.65 5.91-4.5 12.81-4.75 19.37-.77 19.68 30.42 22 61.05 20.48 20.43-1.05 41.22-.88 49.9-9.33 8.69-1.73-.36-15.51-.54-20.29-2.46-65.16.27-102.28 2.46-128.6 0 0 4.75 4.46 4.75 7.38.36 10.24 8.78 61.86 8.78 61.86l21.8-14.76s-7.55-83.64-13.39-118.77Z" class="colorcfc28a svgShape"/><path fill="#8f8373" d="m453.76 970.38-.37 10.89-29.67 1.13s-2.83-3.12 1.42-7c2.88-2.63 8.86-8.19 8.86-8.19ZM522.84 970.86l-.73 11 27.24.58s2.24-.71-2-4.6c-2.88-2.63-7-10.23-7-10.23Z" class="color738f8c svgShape"/><path fill="#bea787" d="M450.82 441.83a1.1 1.1 0 0 1-1.07-.84l-2.92-12.43a1.1 1.1 0 0 1 2.13-.51l2.93 12.43a1.1 1.1 0 0 1-.82 1.32 1.07 1.07 0 0 1-.25.03ZM503.39 412.31a43.34 43.34 0 0 1-6.3-.47c-30.45-4.46-34.52-34.28-34.56-34.58a1.1 1.1 0 0 1 1-1.23 1.09 1.09 0 0 1 1.22 1c.15 1.16 3.93 28.48 32.71 32.69 32.81 4.8 46.57-31.11 46.71-31.47a1.09 1.09 0 1 1 2 .77c-.17.3-12.78 33.29-42.78 33.29Z" class="colorbeab87 svgShape"/><path fill="#f9f7f5" d="m474.23 371.6 31.28-12.6 29.17 12.3s-2.49 26-32.68 26c-21.38-.07-27.77-25.7-27.77-25.7Z" class="colorf9f9f5 svgShape"/><path fill="url(#j)" d="M485.19 367.25s4.15 8.68 15.76 10.67c12.43 2.14 19.91-5.88 21.16-11 .73-17.55 1-48.35 1-48.35l-27.54 3.78Z"/><path fill="url(#k)" d="M461.63 299.43c4.54 10.42 10 28.7 12.59 38.21-.37 5.48-1.88 3.49-3.06 7.93 5.53 2.92 14.22 6.6 22.84 6.06 26.68-7.08 41.64-20.58 52.11-66.19.5-39.93-21.5-60.11-60.63-53-20.68 3.74-9.41 23.81-18.33 52.48-2.43 7.77-4.15 9.22-5.52 14.51Z"/><path fill="#ffffff" d="M523.58 273.54c-.38 3-4.38 4.95-8.94 4.39s-7.95-3.46-7.58-6.45 4.37-5 8.93-4.39 8.01 3.45 7.59 6.45ZM490.81 269.71c.34 2.55-2.77 5.06-6.94 5.6s-7.81-1.07-8.15-3.62 2.78-5.06 6.94-5.61 7.82 1.08 8.15 3.63Z" class="colorfff svgShape"/><path fill="#40372b" d="M525 272c-1.73-.23-3.3-.54-4.85-.84s-3-.62-4.52-.88-3-.49-4.48-.65-3.07-.25-4.82-.34a9.43 9.43 0 0 1 4.68-2.24 14 14 0 0 1 5.2 0 16.51 16.51 0 0 1 4.84 1.7A12.24 12.24 0 0 1 525 272Z" class="color40382b svgShape"/><path fill="#4d4a47" d="M513.09 269.09a4.19 4.19 0 1 0 6.18 1.19 17 17 0 0 1-6.18-1.19ZM478.55 268a5.34 5.34 0 0 0-.06 2c.42 2.7 2.66 4.67 5 4.4s3.92-2.68 3.5-5.38a5.69 5.69 0 0 0-.88-2.28 23.21 23.21 0 0 1-7.56 1.26Z" class="color474d4a svgShape"/><path fill="url(#l)" d="M493.91 277.76s.23 14.54-8 11.25c-2.77-1.1-2.55 8.43-.09 11.59 4.07 1.38 23.2.71 23.2.71Z"/><path fill="#ffffff" d="M518.87 302.36S497 317 477.7 309.53c0 0 .7 15.42 13.89 15.66 12.92.23 28.88-18.29 27.28-22.83Z" class="colorfff svgShape"/><path fill="#deb276" d="M531.63 286.36a70.41 70.41 0 0 0-19.47-3.84l.06-1.09a71.79 71.79 0 0 1 19.8 3.9Z" class="colordea376 svgShape"/><path fill="url(#b)" d="M540.66 267.21a33.59 33.59 0 0 0-3.87-13.71c-8.07-5.58-16.16-7-23.9-8.78-5.84-1.33-14.13-2.74-18.63-2.46-14.55-2.49-16.87 0-21.38-.65-.15 0-7.44-12.19-13.66-22.39 6.62-1.44 4.15.26 8.3.52-1.77-3.5-4.27-7.14-6.46-13 3.55-2.06 21.25 2.34 26.39 1.42-2.76-2.93-6.85-9.72-1.62-9.14 25.31 2.81 44.69 13.57 61.58 22.18 2.12 17 5.32 26.21 5 36.9-.25 8.87-6.15 32.17-6.15 32.17l-6.14.86c1.28-8.79 1.49-12.46.54-23.92Z"/><path fill="#deb276" d="M527.28 283.02h1.1v9.55h-1.1z" transform="rotate(-63.09 527.847 287.79)" class="colordea376 svgShape"/><path fill="url(#m)" d="M537.62 295.68A5.83 5.83 0 1 0 543 289a6.07 6.07 0 0 0-5.38 6.68Z"/><path fill="#6b502b" d="M483.93 240.69a1.07 1.07 0 0 1-.81-.36 93 93 0 0 1-9.93-13 1.1 1.1 0 0 1 .37-1.51 1.08 1.08 0 0 1 1.5.37 93.38 93.38 0 0 0 9.68 12.65 1.1 1.1 0 0 1-.81 1.84ZM496.89 241.85a1.08 1.08 0 0 1-.8-.35c-10.5-11.19-22.45-32.25-22.57-32.46a1.1 1.1 0 0 1 1.91-1.08c.12.21 11.94 21 22.26 32a1.1 1.1 0 0 1-.05 1.55 1.12 1.12 0 0 1-.75.34ZM498.35 221.74a1.07 1.07 0 0 1-.84-.39c-8.17-9.8-9.51-11.7-9.57-11.78a1.1 1.1 0 0 1 1.8-1.26c.07.1 1.47 2.05 9.45 11.63a1.11 1.11 0 0 1-.14 1.55 1.09 1.09 0 0 1-.7.25Z" class="color6b382b svgShape"/><path fill="#40372b" d="M489 266.67a24.48 24.48 0 0 1-3.39.95c-1.07.23-2.09.41-3.1.58l-3 .49c-1.05.15-2.11.34-3.43.49a6.25 6.25 0 0 1 2.45-2.89A9.08 9.08 0 0 1 482 265a10.05 10.05 0 0 1 3.67.08 7.38 7.38 0 0 1 3.33 1.59Z" class="color40382b svgShape"/><path fill="url(#n)" d="m525.55 259.83-.71 4.22s-11.87-2.46-14.43-3.19a12.1 12.1 0 0 1 .37-8.41Z"/><path fill="url(#o)" d="m477.17 258.13.85 2.24 9-1.34a52.78 52.78 0 0 1-1.1-6.21Z"/><path fill="#e0b16f" d="M492.83 312.82c-6 0-12.12-.27-16.26-4.29a1.09 1.09 0 0 1 0-1.55 1.1 1.1 0 0 1 1.56 0c3.82 3.72 9.81 3.7 16.13 3.68 7.78 0 20.76-8.4 20.89-8.49a1.1 1.1 0 0 1 1.19 1.84c-.55.36-13.65 8.81-22.07 8.84Z" class="colore0946f svgShape"/><path fill="#e0b16f" d="M521.28 307.21a1.1 1.1 0 0 1-1.1-1l-.18-2.83c-1.7.34-4.54.44-6.39-2a1.09 1.09 0 0 1 1.74-1.32c1.73 2.26 5.22.89 5.25.88l1.41-.57.36 5.7a1.1 1.1 0 0 1-1 1.17ZM337.29 413.23l-2-2.61c2.81-2.16 9.15-.93 10.39-.66l-.7 3.21c-2.4-.51-6.51-.85-7.69.06ZM349.3 425.86a1.65 1.65 0 0 1-.53-3.21c.42-.25.82-2.19.69-4.11a1.64 1.64 0 0 1 1.53-1.75 1.61 1.61 0 0 1 1.75 1.52c.08 1.06.29 6.39-2.92 7.46a1.63 1.63 0 0 1-.52.09Z" class="colore0946f svgShape"/><path fill="#bea787" d="M554.55 467.28a.88.88 0 0 1-.32 0 1.09 1.09 0 0 1-.86-1.28l3.91-19.69a1.1 1.1 0 1 1 2.15.43l-3.91 19.68a1.1 1.1 0 0 1-.97.86Z" class="colorbeab87 svgShape"/><path fill="url(#p)" d="M316.32 708.91c-1.6 4.92 18.8 81.28 18.8 81.28l-11.35 37.17 14.49 149 20.15.93-9.7-13.62 14.08-255.89Z"/><path fill="url(#q)" d="M407 694.78c1.81 4.86-6.93 88.63-6.93 88.63l12.79 38.93-11.76 138.28 6.58 15.38-16.09-4.76-20.08-269.31Z"/><path fill="#b37217" d="M400.45 563.85c-3.88-68.77-4.47-65.9-2.82-79.61 3.65-8.77 7.39-22.28 11.23-32.15-3.28-7.54-13.92-22.33-17.58-26.71-2.19-7.95-5.9-13.89-9.56-28.88a203.11 203.11 0 0 1-25-7.95s-17.69 5.54-36.1 13.43c-.74 16.09-5.12 41.68-9.51 68.73 2.56 8.6 5.39 27.33 5.39 27.33s10 50.91 9.23 70.66c-.68 18.56-17.84 48.52-17.46 74.12.64 42.86 14.81 121.73 14.81 121.73s29-.62 44.33-2.82c20-2.86 41.68-4.38 41.68-4.38l7.68-122.85Z" class="colorb31724 svgShape"/><path fill="url(#r)" d="M379.53 283.53a210.59 210.59 0 0 0 13.92 34.66c12.45 24.23 13.6 27 7.29 36.37-17.43 25.77-40.41 28.23-40.41 28.23l-18.64-104.2Z"/><path fill="#d68b21" d="M329.26 398.69s6.75 36.14 33.08 31.81c13.35-2.2 16.09-22.21 12.8-35.92-3.66-.17-11.69-5.21-22.48-4.66-7.02.35-14.66 4.75-23.4 8.77Z" class="colord63321 svgShape"/><path fill="url(#s)" d="M368 392.48s3.84 26.32-10.78 26.32c-13.9 0-19.74-19.34-20.29-23.95 1.8-1.63 3.82-2.21 3.65-4.39-1.1-14.25-3.84-41.67-3.84-41.67l17 2.74 8.26 38.39Z"/><path fill="url(#t)" d="M386.65 323.28c-.54 11.33-3.32 15.23-7.33 24.23a64.18 64.18 0 0 1-18 22.84c-29.31-3.61-52.65-15.15-66.26-46.24-3.32-35.12 13.89-62.46 57-58.44 22.81 2.12 21.3 14.8 28.07 42.1 2.02 7.9 4.87 9.99 6.52 15.51Z"/><path fill="url(#u)" d="M350.33 307.89a45.66 45.66 0 0 0 14 15.77c-3.53 6.45-16.21 8.18-16.21 8.18Z"/><path fill="#c49452" d="m308.55 317.82-.46-1a75 75 0 0 1 20.45-5.41l.13 1.09a73.78 73.78 0 0 0-20.12 5.32Z" class="colorc4a652 svgShape"/><path fill="url(#v)" d="M302.36 323.31C321.3 309 327 302.25 338.68 288.05c4.36-8.19 8.23-11.55 10.43-16.75 11.71 11.43 29.1 21.4 32.33 19.11-1.75-9.82-8.61-32.67-26.44-42-8.55 2.58-7.95 4.39-11.12 3.34a35.35 35.35 0 0 0-26.32.36c-11.82 14.84-27.25 41.31-29.32 52-2 10.35-6.37 35.23-7.44 45.57-2.28 22 33.23 36.48 59.79 37.3-.21-7.31-.36-21.2-.36-21.2-8.34-3.78-16.85-6.08-23.87-13.12-12.73-12.79-16.36-21.93-14-29.35Z"/><path fill="#c49452" d="M310.79 317.1h10.01v1.1h-10.01z" transform="rotate(-30.53 315.78 317.642)" class="colorc4a652 svgShape"/><path fill="#e0b16f" d="M337.91 343.06h-.09a1.11 1.11 0 0 1-1-1.18l.33-4.22 1.22.25s1.09 0 2.31-2.54a1.1 1.1 0 0 1 2 .95c-1.19 2.46-2.53 3.34-3.49 3.63l-.16 2.1a1.09 1.09 0 0 1-1.12 1.01Z" class="colore0946f svgShape"/><path fill="#ffffff" d="M343.08 309.44c-1.56 2.28-5.55 4.21-9 5-4 .92-10-1.2-11.4-2.23 1.23-2.5 3.45-4.4 6.94-6.45s10.58-3.54 13.46 3.68Z" class="colorfff svgShape"/><path fill="url(#c)" d="M330.47 315.37c3.18.4 5.82-.58 6.64-2 .81-.75 1.32-7.47-1.68-8.86-3.44.3-8.3.06-9.37 4.26-.39-.54 1.94 6.06 4.41 6.6Z"/><path fill="#ffffff" d="M360.14 308.6c2.22 1.49 7.07 3.29 10.28 2.78 3.7-.6 5-.46 5.78-1.88.32-3.35-2.18-8-5.92-8.57s-8.38 2.46-10.14 7.67Z" class="colorfff svgShape"/><path fill="url(#w)" d="M370.06 311.29a12 12 0 0 1-5.37-1.28c-.83-.69-2-5.85.72-7.65 3.27-.06 6.35.06 7.52 2.32.33-.59-.54 5.77-2.87 6.61Z"/><path fill="#524129" d="M290.55 324.75h-.28a1.11 1.11 0 0 1-.79-1.34c.09-.31 8.25-31.84 19.21-48.68 4.89-7.51 10.6-17.77 18.27-24.36.46-.39 2.82-1.44 3.22-1a1.1 1.1 0 0 1-.12 1.55c-7.43 6.38-14.71 17.58-19.53 25-10.77 16.53-18.84 47.71-18.92 48a1.1 1.1 0 0 1-1.06.83ZM297.31 320.47a.51.51 0 0 1-.33-.11.54.54 0 0 1-.11-.76c.14-.19 14.41-19.16 25.26-35.83 5.59-8.59 12.66-21.64 15.84-31.41a.55.55 0 1 1 1 .34c-3.67 11.27-11.76 25.21-16 31.67-10.87 16.7-25.16 35.7-25.3 35.89a.56.56 0 0 1-.36.21ZM371.58 283.25a.54.54 0 0 1-.55-.48c-1.11-9.75-11.59-29.41-17.71-33.48-.25-.17.54-.19.7-.44a.6.6 0 0 1 .79-.18c6.95 4.63 16.24 24.64 17.31 34a.56.56 0 0 1-.48.61Z" class="color52292b svgShape"/><path fill="#d19541" d="m483.73 300.58-.6-12.61 7.73-.38 2.03-10.13 2.15.43-2.36 11.81-7.26.35.5 10.43-2.19.1z" class="colord18041 svgShape"/><path fill="#bea787" d="M466.07 604.26a28.34 28.34 0 0 1-7.36-.73 1.65 1.65 0 0 1 1-3.13c.42.11 34.67 5.47 49.45-25.74a1.64 1.64 0 0 1 3 1.41c-11.36 23.99-34.1 28.19-46.09 28.19Z" class="colorbeab87 svgShape"/><path fill="#5a4a34" d="M351 270.37a.76.76 0 0 1-.21 0 1.09 1.09 0 0 1-.86-1.29 30.91 30.91 0 0 0-1.57-16.88 1.1 1.1 0 0 1 2-.9 32.67 32.67 0 0 1 1.72 18.21 1.12 1.12 0 0 1-1.08.86Z" class="color5a3435 svgShape"/><path fill="#f2b561" d="M348.38 340.19s2.81 5.2 17.33-1.43c-3.37-.67-6.17-1.64-9-1.56-2.59.07-8.33 2.99-8.33 2.99Z" class="colorf28a61 svgShape"/><path fill="#40372b" d="M324.22 297.64a1 1 0 0 1-.15.12s0 0-.08 0a.12.12 0 0 1-.09-.11.49.49 0 0 1 0-.15 3.92 3.92 0 0 1 .16-.36c.12-.21.26-.41.4-.61a12.25 12.25 0 0 1 .9-1.12 17.15 17.15 0 0 1 2.09-1.91 20 20 0 0 1 4.92-2.77 15.4 15.4 0 0 1 5.66-1.08 8.34 8.34 0 0 1 5.46 1.86 20.07 20.07 0 0 0-5.18.71 50.23 50.23 0 0 0-4.77 1.58c-1.58.61-3.17 1.26-4.79 1.93l-2.46 1-1.26.5c-.21.08-.42.17-.62.27a1.57 1.57 0 0 0-.29.14h-.09a.44.44 0 0 0 .19 0ZM360.45 290.36a5.7 5.7 0 0 1 3.7-2.11 9.88 9.88 0 0 1 4.23.21 11.52 11.52 0 0 1 3.72 1.73 9.54 9.54 0 0 1 2.82 3 25.17 25.17 0 0 1-3.91-.68c-1.2-.29-2.35-.6-3.47-.9s-2.22-.58-3.36-.81a20.17 20.17 0 0 0-3.73-.44ZM322.71 309.2a15.5 15.5 0 0 1 4.09-4.35 16.55 16.55 0 0 1 2.54-1.55c.28-.14.41-.21.71-.34a8.15 8.15 0 0 1 .77-.3 10.55 10.55 0 0 1 1.58-.44 9.81 9.81 0 0 1 6.39.8 10.87 10.87 0 0 1 4.41 4.13 19.31 19.31 0 0 0-5.15-2.09 9.84 9.84 0 0 0-4.92.2 12.3 12.3 0 0 0-1.16.41l-.55.25c-.15.06-.44.22-.59.29-.78.42-1.61.87-2.47 1.26a19.23 19.23 0 0 1-5.65 1.73Z" class="color40382b svgShape"/><path fill="#d6a35c" d="m351.33 298.4 2.06 7.2c.67 2.38 1.37 4.75 2.19 7A27 27 0 0 0 357 316a7 7 0 0 0 1.91 2.59c1.91 1.52 3.9 3 5.81 4.62l.48.39-.29.42a15 15 0 0 1-2.3 2.58 17.8 17.8 0 0 1-2.71 2 15.24 15.24 0 0 1-6.33 2.12 16.06 16.06 0 0 0 5.94-2.7 17.72 17.72 0 0 0 2.43-2.15 16.87 16.87 0 0 0 1.94-2.51l.19.81a50 50 0 0 1-6.44-3.94 5.67 5.67 0 0 1-.84-.71 6.78 6.78 0 0 1-.7-.84 12.11 12.11 0 0 1-1-1.74 29.47 29.47 0 0 1-1.42-3.62 51.54 51.54 0 0 1-1.64-7.4 52.45 52.45 0 0 1-.7-7.52Z" class="colord68f5c svgShape"/><path fill="#453621" d="m390.77 969-2.32 5.39s2.32 5.87 3.14 5.85 21.12.55 21.12.55l-6.31-10.15ZM355.12 971.77l-10.32-1.28-7.5-.09-1.64 10.69 17.98-.21 7.24-.61-1.37-4.39-4.39-4.11z" class="color453821 svgShape"/><path fill="#f2b561" d="M339.08 341s5.44 10.81 13.19 13.33c4.2 1.36 9.54 1.18 12.55-2.38 2.39-2.84 5.48-6.38 6-13.71Z" class="colorf26e61 svgShape"/><path fill="#ffffff" d="M339.76 339.54s17.77 7 31-3.3c0 0-2 11.91-11.78 14.47-7.67 2.01-18.92-7.54-19.22-11.17Z" class="colorfff svgShape"/><path fill="#e0b16f" d="M372.2 336.56a1.08 1.08 0 0 1-.75-.3l-1.51-1.42a1.1 1.1 0 1 1 1.51-1.59l1.5 1.41a1.1 1.1 0 0 1-.75 1.9Z" class="colore0946f svgShape"/><path fill="#f4ba69" d="M339.57 323.88c.37 2.39-3.36 5-8.35 5.76s-9.33-.52-9.71-2.91 3.36-5 8.35-5.75 9.33.51 9.71 2.9ZM380.66 321.09c-.22 1.84-3.29 3-6.85 2.55s-6.27-2.29-6.05-4.13 3.3-3 6.86-2.56 6.27 2.29 6.04 4.14Z" opacity=".83" class="colorf4a669 svgShape"/><path fill="#945700" d="M357.18 473.82h35.93v2.19h-35.93z" transform="rotate(-12.36 375.152 474.906)" class="color940005 svgShape"/><path fill="#bea787" d="M469.47 387.72a1.1 1.1 0 0 1-.61-2l6.58-4.38a1.1 1.1 0 0 1 1.22 1.82l-6.59 4.39a1.08 1.08 0 0 1-.6.17ZM488.66 406.09a1.12 1.12 0 0 1-.4-.07 1.1 1.1 0 0 1-.62-1.42l3.29-8.5a1.09 1.09 0 1 1 2 .79l-3.29 8.5a1.09 1.09 0 0 1-.98.7ZM505.66 410.76a1.1 1.1 0 0 1-1.09-1l-.55-9.6a1.08 1.08 0 0 1 1-1.15 1.13 1.13 0 0 1 1.16 1l.54 9.6a1.08 1.08 0 0 1-1 1.15ZM520.19 401.16a1.09 1.09 0 0 1-.85-.41l-3.56-4.38a1.11 1.11 0 0 1 .16-1.55 1.1 1.1 0 0 1 1.54.16l3.56 4.39a1.08 1.08 0 0 1-.16 1.54 1 1 0 0 1-.69.25ZM534.45 397.05a1 1 0 0 1-.65-.22l-8.5-6.31a1.09 1.09 0 1 1 1.3-1.76l8.5 6.31a1.1 1.1 0 0 1-.65 2ZM537.47 385a1 1 0 0 1-.41-.08l-5.48-2.19a1.1 1.1 0 1 1 .81-2l5.48 2.2a1.09 1.09 0 0 1 .62 1.42 1.11 1.11 0 0 1-1.02.65ZM480.43 394.3a1 1 0 0 1-.7-.26 1.08 1.08 0 0 1-.13-1.54l3-3.57a1.1 1.1 0 0 1 1.68 1.42l-3 3.56a1.1 1.1 0 0 1-.85.39Z" class="colorbeab87 svgShape"/><path fill="#e3b069" d="M353.2 799.57c0 3.33-2.2 6-4.93 6s-4.94-2.7-4.94-6 2.21-6 4.94-6 4.93 2.67 4.93 6ZM392.69 797.38c0 3.33-2.21 6-4.94 6s-4.93-2.7-4.93-6 2.21-6 4.93-6 4.94 2.67 4.94 6Z" opacity=".83" class="colore3a669 svgShape"/><path fill="#cfb28a" d="M415.36 475.1s-10.69 36.65-.73 57c7.4 15.16 48.25-5.85 48.25-5.85l-6.3-22ZM478.24 527.02l103.1 18.64-6.58-30.71-97.09-6.55.57 18.62z" class="colorcfc28a svgShape"/><path fill="#40372b" d="M376.14 307.49c-1.23-1.16-2.23-2.27-3.25-3.16a8.61 8.61 0 0 0-1.46-1.05 3.66 3.66 0 0 0-.65-.26l-.3-.06H370.04a11.2 11.2 0 0 0-3.84.3 20.58 20.58 0 0 0-4 1.83 7.65 7.65 0 0 1 2.95-4 8.49 8.49 0 0 1 5.06-1.38h.71a3.73 3.73 0 0 1 .82.17 4.71 4.71 0 0 1 1.42.7 6.37 6.37 0 0 1 1.88 2.05 8.14 8.14 0 0 1 1.1 4.86Z" class="color40382b svgShape"/><path fill="#4c4b4a" d="M484.83 667.41h27.95v2.2h-27.95z" transform="rotate(-15.93 498.752 668.481)" class="color4c4a4a svgShape"/><path fill="#a15e00" d="m372.64 593.07-36.77-15.04.84-2.03 35.61 14.57 20.81-15.44 1.31 1.76-21.8 16.18z" class="colora10005 svgShape"/><path fill="url(#x)" d="m451.74 511.14 9.5 15.88 15.35-4.39 20.84 6.08-.54-13.76-21.94-10.6-23.21 6.79z"/><path fill="url(#y)" d="m499.08 436.74-1.46-.94s-1.22 2.87-2.2 3.29a4.46 4.46 0 0 1-4 .18c-.82-.47.73-3.1-1.46-3.29s-2.34 5.18-2.25 7.43c-2.21 1-8.35 1.35-13 2.17-8.14-2.29-27.15-12.16-27.15-12.16s11 15 21.57 25.41c3.47.55 5.3 1.28 11.33 1.83a101.77 101.77 0 0 0 13.42-9.66 12.22 12.22 0 0 0 5.75-4.46c1.39-1.95 2.26-5.18.68-7.44-.35-.51-1.55.67-1.71.2a9.38 9.38 0 0 0 .48-2.56Z"/><path fill="#ede9e3" d="M472.76 455.18a67.31 67.31 0 0 1-20.11-15.91c-11.16-14.07-20.51-20.4-32.17-16.45s-18.84 5.7-19.75 12.43c-2.19 11 4.16 43.71 9.14 54.48 2.07 4.47 19.14 24.62 28.89 23 11.11-2.14 26.33-1.85 34-6.58 12-7.41 15-24 8.77-38.39-2.14-1.68-6.12-11.19-8.77-12.58Z" class="colorebede3 svgShape"/><path fill="#d9d3ca" d="M486.53 498.45s16-6.45 21.86-7.43c8.18-1.37 13 2 16.88 3.79 3.85-3.95 5.05-6.86 8.49-12.54-.9-.83-5.92.47-8-.23-3.72-4.47-13.91-13-16.64-13.46a138 138 0 0 0-28.59-.29c7.06 9.47 6 30.16 6 30.16Z" class="colord9d9ca svgShape"/><path fill="#ede9e3" d="M463.48 510.25s8.8-2.1 14.19-1.85c6.22 3.37 16 11 19.46 14.14 3.28-.86 6.8-3.06 12.17-6.5.32-1.25-5.47-5.53-7.18-6.56-2.38-5.78-5.35-20.58-13.68-23.6-5.83-2.1-18.85 0-19.91 2.25-4.23 8.97-5.05 22.12-5.05 22.12Z" class="colorebede3 svgShape"/><path fill="url(#z)" d="M441 382.24a37.24 37.24 0 0 0-11.05-11.48c-7-4.59-9.78-3.51-15.17-4.45-4.66 6.54-12.89 5.62-20.54 5.42-8.25 4.79-12.73 8.16-15.67 17.11-1 9.34-.2 12.44.28 18.63 0 4.77 4.56 15.29 9.5 22.66 6.64 7.4 28.51 9.53 39.5 6 11.8-7.87 19.29-18 21.05-35.91-1.84-4.94-4.9-12.79-7.9-17.98Z"/><path fill="#f3b661" d="M401.2 401.85c1.05 1.75-1.05 4.94-4.69 7.13s-7.45 2.56-8.5.81 1.05-4.93 4.69-7.13 7.44-2.56 8.5-.81ZM441.19 395c-.08 2-3.46 3.55-7.56 3.4s-7.34-1.94-7.27-4 3.46-3.56 7.56-3.4 7.35 2 7.27 4Z" opacity=".83" class="colorf3a161 svgShape"/><path fill="url(#A)" d="M416.82 400.14c-1.15.37-6.83-5.91-6.83-5.91l.1 8.82s7.91-3.27 6.73-2.91Z"/><path fill="#52422b" d="M389.67 400.8a8.06 8.06 0 0 1 1.31-3.6 8.45 8.45 0 0 1 2.67-2.69 8.31 8.31 0 0 1 1.81-.92 5.64 5.64 0 0 1 2.13-.35 8.1 8.1 0 0 1 3.68 1.16c-1.2.49-2.42.74-3.34 1.13a9.57 9.57 0 0 0-2.4 1.58c-.76.63-1.56 1.37-2.51 2a11.52 11.52 0 0 1-3.35 1.69ZM417.6 389.25a5.7 5.7 0 0 1 2.45-3.31 5.94 5.94 0 0 1 4.32-.93 10.48 10.48 0 0 1 3.77 1.46 5.5 5.5 0 0 1 2.52 3.11 10.07 10.07 0 0 0-3.36-1.06 26 26 0 0 0-3.28-.38 11.92 11.92 0 0 0-2.75.46 25.13 25.13 0 0 1-3.67.65Z" class="color522b2b svgShape"/><path fill="#ffffff" d="M400.92 416.24s21.76-7.51 29.61-11.77c1 7.6-1.8 13.82-7 16.47s-19.53 2.51-22.61-4.7Z" class="colorfff svgShape"/><path fill="#c79e66" d="M416.82 366.34c-.51 0-5.5-.39-6-.37-5.12.18-10.79-2.93-14.44-5.3-1.19 1.19-3.52 3-4.07 3.47a5.76 5.76 0 0 0 1.92 2.61c.27-1-.18-1.6 0-2.33a11.35 11.35 0 0 1 2.33.27c-.09 3.29-.73 4.3-3.38 7.22-2.42 1.45-4.69 3.37-5 3.57 7.59.19 23.98-2.6 28.64-9.14Z" class="colorc7a366 svgShape"/><path fill="#bdb8b0" d="m456.78 488.14-.2-.3c-1.27-1.9-5.61-4.19-5.65-4.21l.51-1c.18.09 4.22 2.22 5.83 4.27 5.67-1.08 21-2.24 28.5-2.48v1.1c-7.61.24-23.35 1.43-28.65 2.52Z" class="colorb0bdba svgShape"/><path fill="#fffcf7" d="M433.87 454.48 453.18 444s13.57 17.08 3.28 23.17c-11.57 6.83-22.59-12.69-22.59-12.69Z" class="colorf7ffff svgShape"/><path fill="url(#B)" d="M452.38 451.52a1.2 1.2 0 0 1 .76-1.3c.79-.25.39-1.33-.34-2s-3.65.27-5.14 1.57a20.14 20.14 0 0 0-2.73 3.29c-1-1.26.51-3.29-1.69-3.2-2.92.12-2.26 8.39-2.26 8.39-2.09 1.93-5.68 3.2-8.6 4.12-3.47-3.43-23.49-18.12-27.26-18.75-1.63 4.63-1.53 15.46 1.28 23.22 1.59 4.37 18.74 11.64 24.15 14 6.05-4.63 14.9-10.49 16.45-14.23 1.23-1.61 3.41-6 7.89-8.36 2.11-3-2.51-6.75-2.51-6.75Z"/><path fill="url(#C)" d="m433.27 441.83-24.49-3.65 1.1-6.69 21.48-7.67 5.93 7.04-4.02 10.97z"/><path fill="#bea787" d="M564.36 543h-.26l-64-11c-.59-.15-2.46-2.46-1.75-4.22.22-.57 1.52 2 2.11 2.11l64.2 11a1.1 1.1 0 0 1-.26 2.16ZM563.24 514.4l-43.37-3.84a.55.55 0 0 1-.5-.59.57.57 0 0 1 .6-.5l43.32 3.84a.55.55 0 0 1 0 1.09Z" class="colorbeab87 svgShape"/><path fill="url(#D)" d="M317.1 333.59c0 3.65 2 4.44-1.36 4.45s-8-3.16-9.21-6.59c-1.7-4.76 1.14-8.17 4.51-8.17s6.05 6.72 6.06 10.31Z"/><path fill="url(#d)" d="M214 505.61a9.87 9.87 0 1 1-11.66-7.67 9.86 9.86 0 0 1 11.66 7.67Z"/><path fill="url(#E)" d="M283 492.47a9.87 9.87 0 1 1-11.67-7.68 9.88 9.88 0 0 1 11.67 7.68Z"/><path fill="#e6e6e6" d="M186.82 982.27s1.46-7.31 5.12-11c5.46-1.21 5.12-.37 5.12-.37l23.4-9.87 12.06 10.6-1.1 11ZM314.51 982.63s.16-7.51-3.57-11.1c-5.48-1.12-8.77-1.44-8.77-1.44L281 961.37l-13.06 11.12.83 10.14Z" class="colore6e6e6 svgShape"/><path fill="#a1763b" d="M254.09 745.36c1.46 4.75 9.71 123.64 9.71 123.64l1.62 48.94 1.83 58.5 24.86-10.24-5-43.14-9.55-173.29ZM225.57 749.75c-2.19-1.47-9.5 117.72-9.5 117.72l-10.24 100.9 24.86 8 5.12-106.76 11.7-119.55Z" class="color3b75a1 svgShape"/><path fill="url(#F)" d="M268.88 588.31s3.4-1.34 7.51 11c6.77 20.3 9.88 29.13 18.65 67.82l-20.84 17.54-3.29 16.08 13.16-9.87L312.59 670l-18-60.32s-6.85-22.31-7.7-26.32c-2.65-12.1-18.01 4.95-18.01 4.95Z"/><path fill="url(#G)" d="M229.15 588.31s-3.41-1.34-7.52 11c-6.76 20.3-9.87 29.13-18.64 67.82l20.84 17.55 3.29 16.08-13.12-9.88L185.44 670l18.05-60.32s6.84-22.31 7.7-26.32c2.6-12.1 17.96 4.95 17.96 4.95Z"/><path fill="#a66f21" d="M276 566.58s6.21 0 9.5 9.88c1.27 3.85 4 15.71 4 15.71L276.76 602l-2.2 81.17 4.44 42.45-55.62 4.38.73-91.4L221 601l-13.71-15 11-16.82 15.24-8.39 17.12-3.13Z" class="colora62142 svgShape"/><path fill="url(#g)" d="M262.69 562.72c.3 4.12-5.08 15.29-14.07 17.13-10.14 2.08-14.52-15.23-15-19.08 9.79-4.82 10-28.28 10-28.28l12.2-.31s-1.32 12.07-.23 21.46c.52 4.46 5.41 7.49 7.1 9.08Z"/><path fill="url(#H)" d="M206.32 514.87c12.71 21.59 40.76 34.71 48.8 30.25 11.17-6.2 19-19.32 21.2-33.25 2.14-13.5 1.68-34.23-3.91-47.93-28-36-35.39-20.77-57-8.06s-21.8 37.4-9.09 58.99Z"/><path fill="#a86a13" d="M262.64 512.55s-16.69 15.41-36-1.8c1.87 6.37 14.27 10.6 19.74 10.18 7.33-.56 13.06-3.62 16.26-8.38Z" class="colora85c13 svgShape"/><path fill="#d6ab6f" d="M243.16 476.29a13.52 13.52 0 0 0-.64 5.3 30.2 30.2 0 0 0 .85 5.26c.43 1.73 1 3.43 1.57 5.11s1.3 3.35 2 4.92l-1.34-.54c1.15-.44 2.3-.87 3.47-1.28s2.31-.84 3.49-1.22l1-.34.27 1c.26.89.55 1.76.78 2.66s.49 1.78.69 2.69l.06.29-.07.15a52.52 52.52 0 0 1-2.29 4.23c.29-1.59.67-3.15 1.09-4.69v.44c-.41-.83-.77-1.68-1.14-2.53s-.7-1.71-1.05-2.57l1.32.63c-1.14.47-2.3.88-3.45 1.33s-2.31.86-3.47 1.27l-.94.33-.4-.87a41.43 41.43 0 0 1-2-5.23 35.69 35.69 0 0 1-1.27-5.43 23.7 23.7 0 0 1-.26-5.58 11.58 11.58 0 0 1 1.73-5.33Z" class="colord68a6f svgShape"/><path fill="#a1763b" d="m276.39 757.42-49.54-4.02-3.1-5.85-.74-23.4 55.76-1.46 1.65 23.76-4.03 10.97z" class="color3b75a1 svgShape"/><path fill="#ffffff" d="M237.28 494.86c-2.15 1.26-3.95 1.84-7.9 3.31s-6.76 4.35-7.94 1.16 3-8.46 6.92-9.93 7.74 2.27 8.92 5.46Z" class="colorfff svgShape"/><path fill="url(#e)" d="M232.51 493.42c.12.59 1.47 2.79 1 3.14a9.63 9.63 0 0 1-4.61 2.08c-1.2.24-1.95 1-2.91.41a7.26 7.26 0 0 1-2.46-3.79 4.58 4.58 0 0 1 9-1.84Z"/><path fill="url(#f)" d="M246.25 418.91c-2.21 15.84-7.86 16.18-12.27 21.94-10.87 5.23-33.64 18.43-39.52 22-1.16 8.82-1.21 18.15.81 24.3.89 4.17 3.7 8.4 4.06 10.15.74 3.59 3.56 8.23 3.56 8.23l4.67.9-3.48-19.22c8.2-6.12 21.9-16.81 32.65-20.36 19.6-6.48 26.29-6.8 32.71-6.08 1.83 1.46 4.56 7 4.56 7s10.59-40.35-27.75-48.86Z"/><path fill="#52422b" d="M221 497.26a8.84 8.84 0 0 1 3.22-7.23 8.62 8.62 0 0 1 2.55-1.4 9.14 9.14 0 0 1 5.6-.28 5.56 5.56 0 0 1 3.77 3.75 6.47 6.47 0 0 0-4.15-1.58 10 10 0 0 0-4 1 7.63 7.63 0 0 0-1.69 1.05q-.79.61-1.62 1.38c-1.13 1.05-2.24 2.16-3.68 3.31Z" class="color522b2b svgShape"/><path fill="#ffffff" d="M255 490.78a35.9 35.9 0 0 0 7.53-.34c3.37-.4 5.23-.71 7.23-2-.62-3.33-6-7.19-9.33-6.79s-6.84 5.46-5.43 9.13Z" class="colorfff svgShape"/><path fill="url(#I)" d="M256.45 487.73c.06.6.33 2.87.8 3a16.35 16.35 0 0 0 7.15-.49c.42-1 .17-3.74-.21-4.93a4.59 4.59 0 0 0-5.4-2.92c-1.93.61-2.6 2.67-2.34 5.34Z"/><path fill="#52422b" d="M269.53 488.51c-1.48-1.14-2.71-2.21-4-3.07a9.21 9.21 0 0 0-3.65-1.65 8.17 8.17 0 0 0-4.09.54 5.12 5.12 0 0 0-1.74 1.24 8.53 8.53 0 0 0-1.32 2.11 5.31 5.31 0 0 1 1.76-5.26 7.27 7.27 0 0 1 2.66-1.44 9 9 0 0 1 3-.39 7.49 7.49 0 0 1 5.33 2.8 8.48 8.48 0 0 1 2.05 5.12Z" class="color522b2b svgShape"/><path fill="url(#J)" d="m218.33 484.4 9.43-4.94v3.73l-8.58 3.64s-.64-3.23-.85-2.43Z"/><path fill="url(#K)" d="M266.09 473.6c-2.24-.52-10.88-1.15-10.88-1.15l1.12 4.24h10.22s-.22-1.69-.46-3.09Z"/><path fill="#8c5d1a" d="m221.92 586.69-.92 14.26-3.28-4.39 4.2-9.87zM276.12 602.45l-2.99-14.44 1.75-.36 3.32 13.61-2.08 1.19z" class="color8c1a42 svgShape"/><path fill="#a47026" d="M239.93 465a1.1 1.1 0 0 1-1.05-1.76c.13-.16 12-15.05 15.08-21.24-3.11-4.94-8.52-12.26-8.57-12.34a1.09 1.09 0 1 1 1.76-1.3c.06.08 5.89 8 9 13l.31.49-.23.53c-2.69 6.09-15.09 21.58-15.61 22.24a1.09 1.09 0 0 1-.69.38ZM214.55 479a1.1 1.1 0 0 1-1.07-1.74c.1-.13 9.81-13.11 13.88-20.1l-3.86-9.94a1.08 1.08 0 0 1 .63-1.41 1.1 1.1 0 0 1 1.42.62l4.23 10.91-.25.46c-4 7-13.87 20.22-14.29 20.78a1.1 1.1 0 0 1-.69.42ZM261.41 460.47a1 1 0 0 1-.69-.11 1.1 1.1 0 0 1-.47-1.48c.06-.1 5.32-10.22 6.19-18.15a119.53 119.53 0 0 1-6.6-13.9 1.09 1.09 0 1 1 2-.81c0 .09 3.62 9 6.64 13.87l.19.32v.36c-.79 8.42-6.23 18.89-6.46 19.33a1.1 1.1 0 0 1-.8.57Z" class="colora43b26 svgShape"/><path fill="#f2b054" d="m276.39 616.57-53.7 1.01-.94-7.31 54.64-.55v6.85zM275.98 626.03l-52.78.42-.28-3.3 53.2-.27-.14 3.15z" class="colorf2545c svgShape"/><path fill="#9c9182" d="m294.22 968.92-7.68 10.42-7.13-.18 11.88-11.15 2.93.91zM300.52 971.94l-5.21 7.4-4.93-.27 7.13-8.32 3.01 1.19zM204.55 968.92l7.68 10.42 7.13-.18-11.88-11.15-2.93.91zM197.15 971.94l5.21 7.4 4.93-.27-7.13-8.32-3.01 1.19z" class="color828f9c svgShape"/><path fill="#d3d2d0" d="M187.55 979.34h42.78v3.29h-42.78zM268.72 979.34h46.07v3.29h-46.07z" class="colord3d0d3 svgShape"/><path fill="#b89059" d="M223.76 738.23v-1.1c.29 0 7.2-.32 8-10.1l1.09.09c-.91 10.79-9.01 11.11-9.09 11.11ZM279 738.32c-1.4 0-10-.43-11.07-10.91l1.09-.11c1 10.32 9.75 10 10.11 9.92l.07 1.1Z" class="color5996b8 svgShape"/><path fill="#b89059" d="M249.52 700.75h1.1v51.92h-1.1z" transform="rotate(-89.19 250.1 726.728)" class="color5996b8 svgShape"/><path fill="#b89059" d="M248.15 746.23h2.19v17.08h-2.19z" transform="rotate(-84 252.36 753.144)" class="color5996b8 svgShape"/><path fill="url(#L)" d="M158.13 777.52c.91 2.87-1.09 88.84-1.09 88.84l4.75 45-.47 66.9-17.45-1.1L146.8 964l-8.41-179.14Z"/><path fill="url(#M)" d="M184.82 793.24c.9 2.87-3.29 69.83-3.29 69.83l4.2 51.79-.54 60.08-18.86 4.39 5.07-14.88-3.4-97.54-4-83.54Z"/><path fill="#634821" d="M122.79 494.36c-18.27 26.65-31.53 41-21.27 58 13.48 22.37 51.69 16.84 51.69 16.84l-4.42-76s-21.24-5.78-26 1.16Z" class="color633b21 svgShape"/><path fill="#634b29" d="M196.52 510c9.7 20.4 16 48.27 4.17 55.58-15.7 9.71-43.31 7.15-43.31 7.15l5.19-72.14s30.34 1.84 33.95 9.41Z" class="color633029 svgShape"/><path fill="#ba8740" d="m130.99 603.95-4.66 37.56 5.11 27.42-1.82 82.99 59.59-6.21-5.85-86.65-2.56-55.93-7.31-2.75-17.55-7.67-24.95 11.24z" class="color73ba40 svgShape"/><path fill="url(#N)" d="M142.5 598.74c1.92 4.93 9.66 26.41 11.31 28 4.32-9.41 12.49-25.48 13.1-29.15-2.65-1.46-2.65-.91-4.12-1.64-.36-8.41-.64-25.78-.64-25.78l-13.52 1.1c-.09 10.69-.92 21.84-2.29 24.68-.82.78-2.17 1.34-3.84 2.79Z"/><path fill="url(#O)" d="M183.39 561.22c-17.77 17.37-23.85 17.9-37.49 19.23-6.11-1.85-25.31-17.88-28.53-29.65-3.56-13 3.53-38.24 8.51-47.45 7.07-1.75 21.1-4.57 43.3 4.58 8.33 3.43 14.46-1.45 17.15 6.95 5.5 17.2 6.67 33.21-2.94 46.34Z"/><path fill="url(#P)" d="M128.11 502.76s17-3.5 47.89 7.44c15.43 5.46 25.89 19.22 25.89 19.22s-2.52-41-34.09-51.62c-14.71-5-10.89-4.53-20.45-6.79-19.26 9-29.11 31.49-29.11 31.49Z"/><path fill="#e39f3e" d="M194.33 811.52h-66.36l1.65-71.02 59.22-1.33 5.49 72.35z" class="colore33e45 svgShape"/><path fill="#ffffff" d="M180.44 529.79c-.23 3.82-4.84 8.89-10.1 8.57s-9.5-1.23-12.28-5.87c2.36-4.18 6.36-7.63 11.62-7.32s8.2 1.99 10.76 4.62Z" class="colorfff svgShape"/><path fill="url(#h)" d="M167.2 526.7a5.4 5.4 0 1 0 8.92 4.42 5.33 5.33 0 0 0-.88-3.3c-2.46.07-5.49-1.82-8.04-1.12Z"/><path fill="#665742" d="M158.06 532.49a15.35 15.35 0 0 1 4.73-5.09 14.72 14.72 0 0 1 6.74-2.6 12.84 12.84 0 0 1 7.2 1.3 11.21 11.21 0 0 1 5 4.9 22.5 22.5 0 0 0-5.94-2.53 16 16 0 0 0-5.91-.41 22.78 22.78 0 0 0-5.84 1.64c-1.95.8-3.9 1.76-5.98 2.79Z" class="color4f4266 svgShape"/><path fill="#ffffff" d="M124.7 527.46c-.4 3.4 4 8.4 8.65 8.94s7.34-.43 10.51-4.07c-1.43-4-4.41-7.69-9.08-8.24s-7.42 1.47-10.08 3.37Z" class="colorfff svgShape"/><path fill="url(#Q)" d="M139.43 525.59a5.54 5.54 0 1 1-9.81 2.87 5.47 5.47 0 0 1 1.49-3.18c2.46.51 5.89-.88 8.32.31Z"/><path fill="#665742" d="M144.58 532a12.82 12.82 0 0 0-4.07-4 16.74 16.74 0 0 0-5-2 18.08 18.08 0 0 0-5.5-.28 44.87 44.87 0 0 0-6 1 14 14 0 0 1 5.48-3.33 13.29 13.29 0 0 1 6.69-.56 11.41 11.41 0 0 1 6.07 3 7.44 7.44 0 0 1 2.33 6.17Z" class="color4f4266 svgShape"/><path fill="#594830" d="M164.64 516.07a13.79 13.79 0 0 1 4.54.09 20.06 20.06 0 0 1 4.24 1.25 17.83 17.83 0 0 1 3.87 2.23 10.16 10.16 0 0 1 3 3.47c-1.55-.36-2.9-.75-4.24-1.19s-2.64-.93-3.93-1.48a40.47 40.47 0 0 1-3.82-1.84 21.78 21.78 0 0 1-3.66-2.53ZM128.26 517.79a10.49 10.49 0 0 1 2.11-3.82 13 13 0 0 1 3.32-2.83 9.09 9.09 0 0 1 4.45-1.31 5.27 5.27 0 0 1 2.4.57 3.65 3.65 0 0 1 1.64 1.68 6.07 6.07 0 0 0-3.67.32 20.78 20.78 0 0 0-3.16 1.59l-3.31 2a28.93 28.93 0 0 1-3.78 1.8Z" class="color593630 svgShape"/><path fill="#634b29" d="M192.58 531.76c.12 1.09-2.87 21.84-12.62 30.26 6.1-1.4 13.58-7 13.58-7Z" class="color633029 svgShape"/><path fill="#c48e41" d="M149.32 549c-.74-.38-7.22-3.86-7-7.4.08-1.18.49-1.94 1.24-2.24 1.33-.54 3.22.67 4.33 1.53l.79-8.52 1.09.1-1 10.66-.82-.74c-1.15-1-3.14-2.36-4-2-.4.16-.52.79-.55 1.29-.16 2.4 4.57 5.4 6.41 6.36Z" class="colorc48041 svgShape"/><path fill="url(#R)" d="M184.71 542a6.15 6.15 0 1 0 6.13-6.63 6.4 6.4 0 0 0-6.13 6.63Z"/><path fill="#ffffff" d="M139.33 554s19.13 4.51 26.45-1.07c-2.24 4.9-8.76 11.56-13.41 12.15-5.99.79-10.28-5.83-13.04-11.08Z" class="colorfff svgShape"/><path fill="#ffc77a" d="M158.78 538.75s17.75-7.6 21.64-2.09.59 12.59.59 12.59l-21.54-2.79ZM119.08 534s18.84-4.19 21.65 1.93-1.11 9.58-1.11 9.58l-16.86-7.26Z" class="colorffbf7a svgShape"/><path fill="#e0b16f" d="M153.77 555.89a42.87 42.87 0 0 1-18.21-4.4 1.1 1.1 0 0 1-.46-1.48 1.12 1.12 0 0 1 1.49-.46c.16.09 17 8.77 30.76.59a1.09 1.09 0 0 1 1.12 1.88 28.36 28.36 0 0 1-14.7 3.87Z" class="colore0946f svgShape"/><path fill="url(#S)" d="M132.08 603.67s.09 7.13.46 18.1c.11 3.39-1 33.54-1 35.37a154.56 154.56 0 0 0 2.11 26.42l21.2 52.28 8.23 11.51-3.84 18.47-6-4.21-7.13-3.29V743l-23.58-49.36s-3.29-34-2.75-51c.27-8.35 1.65-25.23 4.12-33.18.79-2.7 8.18-5.79 8.18-5.79Z"/><path fill="#524129" d="M194.87 512.64a1.12 1.12 0 0 1-.58-.17l-2.75-1.81c-6.31-4.19-21.1-14-25.42-15.16-15.87-4.25-37.85-6.43-38.07-6.45a1.1 1.1 0 1 1 .21-2.18c.22 0 22.38 2.22 38.43 6.51 4.11 1.1 15.48 8.43 26.06 15.45l2.71 1.79a1.08 1.08 0 0 1 .34 1.51 1.09 1.09 0 0 1-.93.51ZM195.42 506.06a.52.52 0 0 1-.29-.09c-.95-.6-3.41-2.63-6.53-5.21-7-5.81-17.65-14.59-21.29-15.56-16-4.29-24.75-9.89-24.83-9.94a.55.55 0 1 1 .6-.92c.08.05 8.66 5.56 24.52 9.8 3.86 1 14.17 9.55 21.7 15.77 3.09 2.56 5.53 4.57 6.42 5.14a.55.55 0 0 1 .17.75.56.56 0 0 1-.47.26Z" opacity=".61" class="color52292b svgShape"/><path fill="#6b5330" d="M141 977.5c.76-2.18.36-2.19 4-6.22a105.75 105.75 0 0 0 13.44 1.47l3.29-1.37.45 10.87-20.1-.36a7.67 7.67 0 0 1-1.08-4.39ZM165 976.31c0-.55 1.92-3 4.11-5.76 2.74 1.37 13.89 3.66 13.89 3.66l2.56-2.56.73 11-21.2-.37s-.09-.94-.09-5.97Z" class="color5e306b svgShape"/><path fill="#e3b575" d="m152.61 641.87-17.05-40.13 2-.89 15.7 35.35 18.17-36.88 1.96.98-20.78 41.57z" opacity=".54" class="colora1e375 svgShape"/><path fill="url(#T)" d="M179.89 602.94s8.4 3.2 10.87 7.59c2.47 18.92 2.1 73.76 2.1 73.76L172 750.46l-5.12 13.9-4.8 1.09-3.08 2.47-3.75-2.83.18-19.11s5.21-3.84 7.13-6.85c6.13-17.12 15.16-49.63 16.82-57.77 2.5-12.3.73-55.75.73-55.75l.36-7.13Z"/><path fill="#f0af54" d="M178.91 680.86h6.16v1.1h-6.16z" transform="rotate(-57.78 181.984 681.407)" class="colorf09954 svgShape"/><path fill="#f0af54" d="M130.44 678.57h1.1v5.4h-1.1z" transform="rotate(-23.96 130.987 681.28)" class="colorf09954 svgShape"/><path fill="#d6d3ce" d="M34.18 981.06h1231.95v6.53H34.18z" class="colorced3d6 svgShape"/><path fill="#ab772e" d="M1037.61 299.46s-28.33-9.26-37.23-11.34c-17.76-4.15-77.29 2.22-77.29 2.22l-18.25 4.37-27.52 73.52 22.24 30.5s35.59-10.59 46.28-13.84c63.63 14.94 98.8-24 141.93-40.33 3.18-10.61 4.55-14.79 5.36-39.37-1-9.47-10-49.38-11.28-59.53-14.61 8.08-21.62 7.06-37.11 5.11l-9.67 23.5Z" class="color2e57ab svgShape"/><path d="m1025.22 315.01 12.5-8.83.21-6.21-29.63-8.8 18.13 10.35-1.21 13.49zM940.66 368.43l7.34-6.08-3.15-13.09 12.84 13.64-4.93 4.22-12.1 1.31z" style="mix-blend-mode:overlay" fill="#302a21" opacity=".23" class="color212430 svgShape"/><path fill="#e89d34" d="m1029 198.82 2.76 7.86 12.24 8.52 5 7.33 1.07 10.64-10.75 31.25c7.23 8.08 35 25.34 50.43 20-3.87-23.34-11.43-58.6-13.32-69-.56-3.12.43-18.47.43-18.47l1.49-10.53-3-5.73c-10.29 1.91-19 6.12-22.25 7.23-9.22 3.17-15.64 6.84-24.1 10.9Z" class="colore83464 svgShape"/><path d="m1069.55 312.69.02-29.89-1.9-48.41 9.69 38.43-.85 19.55-6.96 20.32z" style="mix-blend-mode:overlay" fill="#302a21" opacity=".23" class="color212430 svgShape"/><path d="m1062.72 341.14 13.6-3.89 4.06-17.87-8.5 14.23-9.16 7.53z" style="mix-blend-mode:overlay" fill="#302a21" opacity=".35" class="color212430 svgShape"/><path d="m897.54 369.76-7.41-7.08.74-5.27 9.58 5.17-2.91 7.18z" style="mix-blend-mode:overlay" fill="#302a21" opacity=".23" class="color212430 svgShape"/><path fill="#6e4f24" d="m1039 194.69 9.72-3.37 1 14.15-4.76.64-1.49-6.34-4.47-5.08z" opacity=".23" class="color6e2430 svgShape"/><path d="m979.02 356.29 24.27 5.13 11.06-6.66-13.1 1.12-22.23.41z" style="mix-blend-mode:overlay" fill="#302a21" opacity=".35" class="color212430 svgShape"/><path fill="#ab772e" d="M653.15 301.15c10.74-4.65 37.33-18.33 37.33-18.33l49.94-17.72 31.68-5.9s27.56 3.58 40.09 5c18.39 9.51 49.7 9 92.65 30.5l17.6 25.34c19.17 32.36-22.88 78.68-22.88 78.68l-25.45 40.88-31.14 58s13.76 57.84 22.26 98c-17.18 8.59-160.51 10.89-160.51 10.89l5.1-2.55-7.16-6.09-7.16-32.93 14.32-83-33.82-74-7-12.92c-3.29-38.11-20.5-55.29-15.85-93.85Z" class="color2e57ab svgShape"/><path fill="#ab772e" d="M572.43 376.85c13.43-16.1 23.62-24.69 28.28-30.06.72-4.3 3.67-10.38 4.39-14 8.3-12.82 23.71-23.27 33-31.14 3.93-.85 8.41 0 19.86-2.15 16.11-7.16 52.15-24.6 60.85-27.21-4.65 40.29-24 81.62-39 116l-7.16 3.58-4.3 34.36-34.79 30.53 11.53 35c-4.62 11.43 12.56 28.93 7.27 40.2L606.8 515s-30.07-15-55.13-37.23c-1.08-14.12 8.41-68.7 20.76-100.92ZM755 588l-4.91-29.24 100.11-17.25s26.85 86.62 36.51 130.65a651.41 651.41 0 0 1-5 69.8c3.4 20.76 22.17 40.22 30.33 71.29-3.43 8.51-.33 50.74-7.49 53-14.1 4.5-39.78-21.38-54.61-28.85-5.37-15.4-6-34.77-6.09-35.08-2.15-12.18-2.05-29.6-6.89-45.7-6.8-18.26-29.35-55.84-39.37-75.89-9.66-19.33-30.7-79.94-30.7-79.94Z" class="color2e57ab svgShape"/><path fill="#ab772e" d="M614.35 793.23c5-13.88 26.09-55.93 26.09-55.93s4.92-28.21 3.67-57.74c5.37-17.18 12.14-39.6 18.25-53.69l36.72-91.41 64.9 22 17.49 45.2s-23.62 43.67-55.12 95.58C713.13 719 707.59 728 692.7 751.62a124.51 124.51 0 0 0-17.54 49.76c-2.8 19.13-10.38 40.8-10.38 40.8-18.25 1.08-37.61-3.1-59.92-6.58 2.14-15.04 5.78-32.08 9.49-42.37Z" class="color2e57ab svgShape"/><path fill="#e9b369" d="m733.54 198.08-2.89 67.81-11.46 7.16 63.53 29.46 60.05-26.71-18.87-8.89-12.38-50.26-77.98-18.57z" class="colore9ad69 svgShape"/><path fill="#d29949" d="m733.24 194.72-2.15 37.59 34.3 36.43 50.2-4.55 6.44-3.58v-19.33l-42.71-21.52-46.08-25.04z" opacity=".85" class="colord29149 svgShape"/><path fill="#ebc085" d="M732.76 166.76c.06 1.44.43 4.8-2.14 5.61a103.23 103.23 0 0 0 3.82 13.63c6.84 19.33 7.61 22.91 11.87 35.64 7.13 11.69 6.13 21.85 9.54 28.13 2.54.44 17.71 6.89 24.51 7.68 15.44-.26 37-2.57 44.24-4.45.93-.46 5.28-3.55 13.34-8.38 1.88-6.22 1.61-15.58 3.22-25.78-4.19-5.76-7-9.66-11.33-15.31-2.45-4.18-4-8.58-5.67-11.89.13-3.49.51-6.93.35-12.17-2.07-4.9-7.27-15.15-9.86-21.14l-5.41-23.73s-1.1-7.3-.53-8.3c-30.12-5.91-69.71 1.87-75.95 40.46Z" class="colorebbf85 svgShape"/><path fill="#d9a864" d="m812.86 165.35 2.34 4.81-1.36 4.65-5.82 3.44-5.39 1.7-3.34-7.04-.23-9.01 13.8 1.45z" class="colord9a164 svgShape"/><path fill="#272016" d="M790.16 79.06c-.19 5.23.14 15-12.63 19-20.7 6.51-31.8 14.3-42.45 19.6a151.42 151.42 0 0 0-17.63 15.53c-1.06 13.58 5.59 20.07 5.59 20.07.49 6.61 5.75 15.16 9 25.77 2.57-.82 8-.86 8-2.3.44-11-1.34-19 3.16-27.77 4.9-1.57 10.61-3.9 20-4.25 13.07 1.8 28.76 8 48-6.88 12.9-15.78 21.56-49.74-21.04-58.77Z" class="color271c16 svgShape"/><path fill="#ebc085" d="M723 176.37c1.21-6.55 6.39-5.28 8.46-4.51a9.62 9.62 0 0 1 6.29 6.57c.83 2.38 2.15 5.89 1.43 8.31l-.6 15.67-5.77-1.33s-10.42-21.37-9.81-24.71Z" class="colorebbf85 svgShape"/><path style="mix-blend-mode:overlay" fill="#ffffff" d="m886.26 290.83-8.14-3.64-102.8 93.35-91.57-93.89-19.33 9.67L788.57 472l110.04-177.95-12.35-3.22z" opacity=".16" class="colorfff svgShape"/><path fill="#3d362d" d="m814.52 162.49-12-5.61-3.95 6.69 15.64 2.2.31-3.28z" class="color3d332d svgShape"/><path fill="#ffffff" d="m763.31 200.28 25.83 5.29 21.42-3.42 8.57-8.77s1.48 20.94-2.21 26.46c-4.46 6.65-20.63 10.93-30.91 4.83-6.94-4.12-22.7-24.39-22.7-24.39Z" class="colorfff svgShape"/><path fill="#d29949" d="m787.88 191.64 18.13-2.1-4.8 6.52-4.71 1.92-8.62-6.34z" class="colord29149 svgShape"/><path fill="#d9a864" d="m776.12 164.4 8.96.32.02 10.06-3.87 9.62-16.84-2.8-4.89-4.22-.35-7.3 16.97-5.68z" class="colord9a164 svgShape"/><path fill="#483e31" d="m773.04 171.04 8.73-.62 1.57 2.65-19.13 4.29 8.83-6.32z" class="color483331 svgShape"/><path fill="#3d362d" d="m760.34 166.25 21.07-8.91 3.33 7.51-24.17 6.19-.23-4.79z" class="color3d332d svgShape"/><path fill="#483e31" d="m800.69 169.82 5.62-1.11 6.78 3.3-13.27.13.87-2.32z" class="color483331 svgShape"/><path fill="#d9a864" d="M738.25 185.71c-1.34-3-10.09-9.66-10.09-9.66l.11 6 5.15 13.28 2.42-3.23 4.83 4.3s-5.38-8.6-2.42-10.69ZM799.19 236.72l13.96-1.08-3.22 4.3-4.83.54-5.91-3.76z" class="colord9a164 svgShape"/><path fill="#e89d34" d="m856.19 280.09-72.82 35-71.7-40.2-8 3.76 79.75 62.21s82.13-55.17 82.49-57Z" class="colore83464 svgShape"/><path fill="#e89d34" d="m720.55 451.77 62 34.73 56.08-30.1S871.32 367 885.64 342c-30.61-11.27-50.47-17.36-50.47-17.36l-50.72 29.06-46.36-32.22s-41.17 12.52-57.8 17.72c11.45 30.8 40.26 112.57 40.26 112.57Z" class="colore83464 svgShape"/><path d="m891.36 366-5.55 17.37-18.61 25.07L791 402l40 15.59 31.95 8.75a12.72 12.72 0 0 0 11.45-7.16l16.47-33.65ZM655.32 359.87l18 23.89 11.81 8.59 69.8 8.6 10-6.09-5 10L722.7 411l-23.89 4.47c-4.77.11-15.84-3.76-23.36-7L664 380.9Z" style="mix-blend-mode:overlay" fill="#352f26" opacity=".39" class="color262935 svgShape"/><path d="M766.53 628.73c1.43.54-18.94-33.85-28.46-43.13a440.91 440.91 0 0 0-43.58-36.93l6.38-12.42 71.23 48 5.62 23Z" style="mix-blend-mode:overlay" fill="#302a21" opacity=".23" class="color212430 svgShape"/><path d="M777.26 627.3c9.92-9.59 40.9-43.65 55.84-53.51 5.41-3.57 23.63-12.89 23.63-12.89l-6.44-20.9-58.15 50-21.4 24.95Z" style="mix-blend-mode:overlay" fill="#302a21" opacity=".23" class="color212430 svgShape"/><path fill="#ab772e" d="M732.32 171.75s36.37-14.09 58.45-16c15.19-1.32 25.1 1.75 25.1 1.75l7.57 16.64s-2.3 8.14-9.13 8.57c-4.08.25-11.63-4.63-16.51-4.42-4 .18-7.75 7.61-22.62 9.32-6 .68-17.18-5.6-22.26-7-4.16-1.17-14.56-.57-14.56-.57Z" class="color2e57ab svgShape"/><path fill="#ebc085" d="M757.53 171.62c0-4.3 15.94-6.42 15.94-6.42s12.7-.38 13.82 3.16c1.18 3.71-5.43 9.52-8.71 10.3-6.33 1.48-21.04-1.72-21.05-7.04ZM799.16 168.66c.67 2.08 6.45 4.28 9.16 5.24 7.35 2.58 11-1.67 10.2-4.83-.65-2.55-2.3-3.44-4-4.24a15.12 15.12 0 0 0-9.58-1c-3.51 1-6.52 2.57-5.78 4.83Z" class="colorebbf85 svgShape"/><path fill="#272016" d="m763.49 175.42 8.68-6.53 11.99.98-20.67 5.55zM802.68 169.6l7.43-3.22 6.8 3.76-14.23-.54z" class="color271c16 svgShape"/><path fill="#d4d1cc" d="M781.28 212c.39.15 15.05 1 15.05 1l19-3.32-11.51 4.81-12.57-.09Z" class="colord4ccd4 svgShape"/><path fill="#d9a864" d="m814.89 191.04 5.96-.49 2.51 7.78-4.72-4.71-3.75-2.58zM762.99 209.18l-7.83-11.12 18-4.58-9.33 6.28-.84 9.42z" class="colord9a164 svgShape"/><path d="m644.02 447.37-10.74 9.66-10.02 2.15-5.01-15.03 7.16 6.44 18.61-3.22z" style="mix-blend-mode:overlay" fill="#302a21" opacity=".23" class="color212430 svgShape"/><path d="m757.85 286.65-61.75 8.05 46.18-12.88 15.57 4.83zM828.48 346.18l-31.68-8.05-10.2 3.75 41.88 4.3z" style="mix-blend-mode:overlay" fill="#302a21" opacity=".25" class="color212430 svgShape"/><path fill="#d29949" d="m738.07 234.45 5.37 25.24 1.07-20.94-6.44-4.3zM760.08 262.91l14.5 25.77-1.95-23.04-12.55-2.73z" class="colord29149 svgShape"/><path fill="#e89d34" d="M704.16 515.38 702 534.17l-6.44 11.28-7.52 17.18-14-2.15-16.46-13.25-9.31-5.72-49.67-27.74c.75-11.88 30.36-30.14 42.17-34.44l15.84 29.27L669 519.87l9.93 1.08 17.18-7.79Z" class="colore83464 svgShape"/><path d="m564.56 454.17-3.58 18.61 11.45 6.45-5.72-9.31-2.15-15.75z" style="mix-blend-mode:overlay" fill="#302a21" opacity=".35" class="color212430 svgShape"/><path d="m832.23 484.7-25.77-30.06-40.8-1.08s-29 23.63-27.92 26.85c8.59-2.15 36.51-15 36.51-15l23.62 3.23Z" style="mix-blend-mode:overlay" fill="#302a21" opacity=".45" class="color212430 svgShape"/><path d="m813.69 492.83-11.28.54-19.86-8.6 2.68 9.67s15.57 5.91 18.79 5.91c2.69-2.69 9.67-7.52 9.67-7.52ZM753 488.46l17.54 1.61 10.74-7.33-1.44 10s-12.88 5.73-16.11 5.73c-4.34-1.06-10.73-10.01-10.73-10.01ZM851.56 747.43l12.89 5 6.44-8.41 1.43 11.27s.54 5.19-4.3 10c-2.68-2.64-16.46-17.86-16.46-17.86ZM646.1 745.29l7.23 5.26 13.6-1.43-13.6 15.75S645.45 766.3 642 761c1.59-3.72 4.1-15.71 4.1-15.71ZM863.8 730l9.31-1.61L885.28 709l-3.58 20.76a52.87 52.87 0 0 1-2.15 13.6C876.87 740.71 863.8 730 863.8 730ZM640.26 716.72l6.63 9.49 12.17-.89s-10.74 9.48-17.19 14.49c-2.68-2.68-1.61-23.09-1.61-23.09Z" style="mix-blend-mode:overlay" fill="#302a21" opacity=".23" class="color212430 svgShape"/><path style="mix-blend-mode:overlay" fill="#302a21" d="m583.09 475.4 19.26 24.26 40.3 25.13-23.96-21.01-11.91-8.27-23.69-20.11z" opacity=".4" class="color212430 svgShape"/><path d="m634.72 319.94 9.3-6.44 2.15 3.58 3.4-10.12-9.48 2.96-5.37 10.02z" style="mix-blend-mode:overlay" fill="#302a21" opacity=".25" class="color212430 svgShape"/><path d="m782.48 508.15 28.28 8.95-17.9 2.51-10.38-11.46zM760 516.99l18.9-7.94-4.58 10.98-14.32-3.04zM712.12 691.02l-24.34 27.56-15.48 11.57 26.04-2.8 48.32-74.64-34.54 38.31zM815.39 696.74c12.34 18.79 23.08 26.85 23.08 26.85h14l-15.75 17.89-9.48-18.43s-7.56-16.11-11.85-26.31Z" style="mix-blend-mode:overlay" fill="#302a21" opacity=".23" class="color212430 svgShape"/><path fill="#e89d34" d="M852.08 536.59s-54.48-2.82-69.53-3.49c-29.35-1.31-84.3 2.68-84.3 2.68a62.24 62.24 0 0 0-2.68 10.74c42.77 15.68 76.24 73.38 76.24 73.38l8.59-2.9s22.48-23 41.81-41.6c23.78-22.91 33.36-21.94 33.36-21.94Z" class="colore83464 svgShape"/><path fill="#272016" d="M780 87.28s7.5 4.94 2.37 11 11.91-.92 11.91-.92-1.35-13.31-14.28-10.08Z" class="color271c16 svgShape"/><path fill="#535251" d="M770 101.24s9-2.23 11.1-4.66c6.3-2.7 10 2.44 12.67 3.21 8.22 2.38 6.71-2.24 9-2.18 7.15.18 4.75 5.68 7.42 6.19 2.9.54 11-.42 11-.42s1.7 16.11-2.15 18.62c-2.57 1.66-7.58-2.17-12.12 1.66-2.33 2-3.37-4.92-12-2.28-2.75.84-2.69-9.37-5.46-10.15-2.47-.7-6.7 2.7-9.13 1.88S770 101.24 770 101.24Z" opacity=".52" class="color535251 svgShape"/><path fill="#6b6660" d="m744.3 147.63-.64-.86 33.5-25.12c17.41-13.06 22.84-26.55 16.58-41.24l1-.42c6.47 15.22.93 29.12-16.92 42.52Z" opacity=".36" class="color6b6460 svgShape"/><path fill="#6b6660" d="M791.5 146.87a.54.54 0 0 1-.38-.92c.36-.35 35.79-35.61 16.78-58.69a.55.55 0 0 1 .08-.76.53.53 0 0 1 .75.08c19.64 23.83-16.49 59.78-16.86 60.14a.53.53 0 0 1-.37.15Z" opacity=".63" class="color6b6460 svgShape"/><path fill="#d9a864" d="m748.42 199.89 5.13 9.98 5.37 10.74-8.71-6.06-1.79-14.66z" class="colord9a164 svgShape"/><path fill="#ebc085" d="m798.16 253.3 6.28 5.76 15.18-1.83 2.62-7.6-24.08 3.67z" class="colorebbf85 svgShape"/><path fill="#d9a864" d="m808.72 251.21 2.62-2.8 1.39 4.72-1.04 1.91-2.97-3.83z" class="colord9a164 svgShape"/><path fill="#e89d34" d="M912 813.25c2.69 41.35 9.79 109.6 12.26 118.5 1.35 4.84 7.16 14.11 11.28 19.33 2.86 3.63 28.78 23.28 28.78 23.28v7h-71.69s-1.63-8.64-1.63-13.74c.27-7 3.24-18.41.55-30.76-3.5-14.07-7.51-23.09-14-32.75-4.08-9.94-23.09-40.81-23.09-40.81s-4.08-17-7-31.85c17.24-5.73 51.68-13.18 64.54-18.2Z" class="colore83464 svgShape"/><path d="m941 305.55-8.92-5.05-4.83 2.24 7.72 7.67 6.03-4.86z" style="mix-blend-mode:overlay" fill="#302a21" opacity=".23" class="color212430 svgShape"/><path fill="#e89d34" d="M578.55 944.65c5.43-8.55 9.63-32.31 9.63-32.31 11-69.63 14.05-74.39 20.49-110.36 9 5 60 34.32 60 34.32l-11.83 30.49s-34.17 47.74-42.62 70.34c-7.16 19.16-4 29.34-4 29.34l-.21 14.6h-72l1.83-10.3s29.69-11.92 38.71-26.12Z" class="colore83464 svgShape"/><path fill="#6e4f24" d="m687.69 525.04 8.59 5.01 5.82 1.59 1.34-8.74-10.74 2.86-5.01-.72z" opacity=".23" class="color6e2430 svgShape"/><path d="m609.66 370.77-17.9 17.18-2.15 33.65 8.59-26.85 11.46-23.98z" style="mix-blend-mode:overlay" fill="#302a21" opacity=".35" class="color212430 svgShape"/><path fill="#6e4f24" d="m897 956.29-3.06 16.49 12.71-1.78s.49-.71-4.29-6.45a39.93 39.93 0 0 1-5.36-8.26Z" opacity=".23" class="color6e2430 svgShape"/><path d="M785.32 620.5s21.47 43.5 31.14 57.5c-6.44-16.65-24.7-65-24.7-65Z" style="mix-blend-mode:overlay" fill="#302a21" opacity=".23" class="color212430 svgShape"/><path fill="#d98e25" d="M887 139.39s64.33-32.09 82.12-46.19c21.2-16.79 68.63-78.78 68.63-78.78l20-2s16.92 38.15 28 45.49c30.51 20.27 79.1 14.67 79.1 14.67l21.87 3.07-13.87 95.89 8.44 298.5-64.51 145.63-20.47-2.14-116.83-97.4L908.09 254Z" class="colord95225 svgShape"/><path fill="#f7960d" d="M900.17 141.39s73.43-29.6 92.2-45.28c20-16.73 59.48-74.15 64.72-82.59a1 1 0 0 1 1.62-.24c5.46 5 37.5 41.62 53.78 49.67 17 8.38 74.22 12.69 74.22 12.69l13.39 120.49v.21l1.81 267.47-76.57 147.7a1.14 1.14 0 0 1-.59.61l-7.32 3.24a1 1 0 0 1-1.2-.27L997.6 510.44l-72.53-253.29a1 1 0 0 1 0-.24Z" class="colorf39314 svgShape"/><path fill="#ffa30f" d="m1011.76 514-73.64-254.6-24.65-113.94c25.68-11.38 69.92-28.31 84.58-41.26 17.37-15.36 47.89-61.36 62.34-82.12 17 17.76 37.67 41.05 50.9 47.53 15 7.34 51.88 9.54 71.24 11.36L1196 201l1.83 260.75L1121 606.07Z" class="colorf4c121 svgShape"/><path fill="#ffffff" d="m1193.75 334 .37-21.76s-47.16 19-71 26C1117 196.46 1071 41.23 1071 41.23l-13.84 16.47s38 143.66 49.85 284.26c-37.81 5.62-139-1.33-139-1.33l6.92 26s93.7 1.06 133.43-4.82c.3 2.91 6.29 240 6.29 240l10.21-7.37s4.92-162.21-.78-235.58c22.55-7.18 69.67-24.86 69.67-24.86Z" opacity=".17" class="colorfff svgShape"/></g></svg>