<svg xmlns="http://www.w3.org/2000/svg" enable-background="new 0 0 1364 960" viewBox="0 0 1364 960"><path fill="#ffa30f" d="M1077.791,851.385c-4.446-3.355-19.385-5.75-25.829-7.598c12.717-5.092,40.041-5.11,40.041-22.359   c0-12.45-29.344-11.853-29.344-11.853l-662.785-1.471c-11.415,0.636-30.175,0.251-31.909,7.058   c-1.562,6.129,7.36,7.563,3.432,10.028c-5.991,3.76-58.579,6.237-86.755,11.9c-4.984,1.002-10.562,2.42-12.198,5.421   c-2.88,5.282,8.709,9.245,17.96,9.402c9.252,0.157,20.243-0.669,26.088,3.641c3.098,2.284,3.752,5.478,6.7,7.832   c4.798,3.833,13.897,4.322,21.876,4.48c49.744,0.981,99.488,1.964,149.232,2.945c-3.731,1.008-3.764,4.474-1.011,6.291   c2.753,1.818,7.06,2.393,11.09,2.815c29.172,3.05,58.957,3.061,88.569,3.063c88.161,0.007,176.322,0.014,264.484,0.021   c19.302,0.002,41.637-0.876,52.947-10.27c2.439-2.026,4.337-4.438,7.911-5.718c3.569-1.278,8.01-1.139,12.157-0.973   c43.497,1.743,87.155,2.031,130.706,0.864c6.541-0.176,13.884-0.616,18.037-3.656   C1083.716,859.93,1082.238,854.74,1077.791,851.385z" class="colorE9E6FF svgShape"/><path fill="#d6a765" d="M707.417,79.371l-0.205,0c-0.062,0-0.103,0-0.103,0c-62.55,0.158-119.815,18.093-164.196,47.758   c-44.38,29.655-67.544,69.599-86.875,115.607l0,0c6.468-13.26,77.911-10.887,84.438,2.349h0.021   c6.468-13.26,76.947-13.616,83.629-0.626c0,0,0-0.01,0.01-0.031c0-0.01,0-0.01,0-0.01c6.654-12.995,76.548-13.207,83.281-0.319   l0.574-0.002l0,0.266c0.051-0.092,0.092-0.174,0.143-0.266c6.674-12.913,76.282-13.125,83.096-0.349   c0.01-0.02,0.031-0.051,0.041-0.072c5.694-10.733,56.178-12.259,75.939-4.619c3.664,1.414,6.283,3.147,7.354,5.2   c0.021,0.031,0.031,0.061,0.041,0.092c0.041,0.082,0.062,0.113,0.062,0.113h0.02c0.899-1.832,3.02-3.41,6.033-4.744   c18.797-8.294,72.784-6.817,78.395,4.59l0,0C923.749,161.67,832.559,79.178,707.417,79.371z" class="color7965D6 svgShape"/><path fill="#deccb3" d="M710.352,196.449l0.187,199.042l0.001,0.501l0.002,6.389l0.013,6.859l-0.003,3.608l0.013,6.849   l0.018,26.036c0.01,5.203-2.087,9.929-5.495,13.35c-3.469,3.482-8.31,5.617-13.636,5.545c-10.366-0.144-18.57-8.879-18.589-19.244   l-0.005-2.474c-0.005-2.514,2.026-4.563,4.55-4.567c1.257-0.002,2.393,0.507,3.223,1.333c0.819,0.816,1.332,1.961,1.335,3.217   l0.005,2.617c0.01,5.07,3.79,9.51,8.84,9.971c5.797,0.52,10.674-4.058,10.664-9.731l-0.014-7.452l-0.014-18.583l-0.013-6.849   l0.004-3.608l-0.013-6.859l-0.002-6.388l0-0.501l-0.161-189.924l-0.017-9.118L710.352,196.449z" class="colorB3C1DE svgShape"/><path fill="#f0d9b9" d="M706.199,77.011c-123.879,0.53-226.938,71.633-250.16,165.725c7.517-19.606,32.667-34.045,62.566-34.101   c30.165-0.056,55.553,14.55,62.888,34.398c0,0,0.01-0.021,0.021-0.066C582.815,239.186,638.409,78.406,706.199,77.011z" class="colorC2B9F0 svgShape"/><path fill="#f0c17f" d="M959.199,244.307h-0.286c-6.325-20.855-32.39-36.436-63.557-36.378   c-30.165,0.056-55.498,14.758-62.76,34.633c0,0-0.01-0.021-0.02-0.065c-0.011-0.029-0.02-0.065-0.041-0.116   c-0.319-0.932-1.85-5.35-4.449-12.184c-14.587-38.261-62.802-152.234-120.262-153.19c31.137,0.015,60.962,4.497,88.567,12.689   C879.572,114.384,942.424,172.787,959.199,244.307z" class="color937FF0 svgShape"/><path fill="#f0c17f" d="M832.504,242.285c-14.217-45.612-111.417-45.419-125.454,0.245   c-14.143-45.552-111.138-45.451-125.393,0.033C655.461,25.041,756.642,18.727,832.504,242.285z" class="color937FF0 svgShape"/><path fill="#f0d9b9" d="M829.385,235.962c-9.997-16.398-32.966-27.848-59.687-27.798c-30.022,0.056-55.253,14.626-62.647,34.363   c-0.165-0.444-0.349-0.888-0.534-1.325l-0.317-164.194c0.266-0.008,0.542-0.008,0.807-0.009c0.277,0,0.542-0.001,0.818,0.006   c57.46,0.956,105.675,114.929,120.262,153.19L829.385,235.962z" class="colorC2B9F0 svgShape"/><rect width="9.118" height="6.859" x="701.431" y="402.389" fill="#deccb3" transform="translate(-.756 1.318)" class="colorB3C1DE svgShape"/><rect width="9.118" height="6.849" x="701.44" y="412.856" fill="#deccb3" transform="translate(-.765 1.3)" class="colorB3C1DE svgShape"/><path fill="#fff0db" d="M873.412 476.767c2.289 1.107 5.122.585 7.049-.942 1.925-1.528 3.01-3.915 3.364-6.359.353-2.444.035-4.959-.458-7.409-.815-4.055-2.186-8.148-4.663-11.489 6.026 1.167 11.978 2.794 17.791 4.858.529.188 1.054.385 1.58.579-1.637 3.93-3.273 7.86-4.91 11.79-1.092 2.622-2.201 5.325-2.209 8.195-.008 2.87 1.349 5.984 3.997 7.264 2.289 1.106 5.122.585 7.048-.943 1.926-1.528 3.01-3.915 3.364-6.359.353-2.444.035-4.959-.457-7.409-.84-4.183-2.272-8.408-4.9-11.803 6.384 2.482 12.575 5.484 18.486 8.97-1.501 4.05-3.002 8.1-4.504 12.15-.987 2.665-1.989 5.412-1.885 8.284.104 2.872 1.579 5.936 4.271 7.117 2.327 1.021 5.135.391 6.997-1.211 1.862-1.602 2.852-4.031 3.109-6.49.258-2.459-.158-4.964-.744-7.397-.939-3.896-2.397-7.81-4.847-11.003 4.22 2.616 8.29 5.476 12.172 8.576 1.149.917 2.274 1.862 3.389 2.821-1.403 4.219-2.807 8.44-4.21 12.66-.897 2.699-1.806 5.48-1.606 8.351.199 2.87 1.774 5.889 4.501 6.983 2.357.946 5.139.225 6.945-1.439 1.806-1.663 2.713-4.126 2.888-6.595.175-2.469-.322-4.962-.989-7.377-.952-3.452-2.321-6.903-4.417-9.82 3.664 3.378 7.115 6.979 10.326 10.784.804 4.329 1.607 8.657 2.411 12.986.528 2.841 1.085 5.761 2.642 8.24 1.556 2.479 4.37 4.445 7.25 4.143 2.49-.261 4.542-2.215 5.297-4.555.756-2.34.35-4.974-.689-7.27-1.04-2.295-2.672-4.295-4.411-6.147-3.206-3.413-7.007-6.504-11.434-7.92-.01-.013-.016-.026-.027-.039-3.41-4.055-7.094-7.88-11.012-11.456 3.471 1.487 7.35 2.032 11.12 2.137 2.514.07 5.064-.042 7.429-.798 2.366-.757 4.553-2.22 5.745-4.363 1.192-2.143 1.233-5.005-.249-7.061-1.716-2.378-5.034-3.183-7.881-2.693-2.846.49-5.342 2.031-7.761 3.541-3.683 2.3-7.365 4.6-11.048 6.9-4.92-4.238-10.176-8.09-15.697-11.517 3.886.752 7.964.336 11.804-.53 2.431-.549 4.85-1.283 6.931-2.603 2.081-1.32 3.811-3.287 4.417-5.673.605-2.387-.075-5.196-2.015-6.841-2.245-1.903-5.633-1.877-8.242-.7-2.61 1.177-4.618 3.295-6.56 5.364-2.955 3.151-5.911 6.3-8.866 9.45-.176-.103-.35-.211-.527-.314-5.793-3.373-11.845-6.284-18.076-8.709 4.407.29 8.791-1.029 12.768-2.845 2.25-1.027 4.452-2.235 6.203-3.953 1.752-1.718 3.03-4.005 3.13-6.481.099-2.476-1.139-5.11-3.363-6.345-2.573-1.428-5.861-.724-8.156.959-2.295 1.683-3.813 4.174-5.275 6.604-2.298 3.817-4.597 7.635-6.895 11.452-.087-.032-.175-.064-.263-.096l-.032-.125c-.014.033-.027.065-.041.098-6.099-2.261-12.359-4.053-18.716-5.34 3.691-1.296 6.957-3.703 9.794-6.389 1.816-1.72 3.526-3.601 4.643-5.839 1.115-2.237 1.595-4.88.886-7.332-.708-2.452-2.746-4.635-5.271-5.136-2.921-.579-5.833 1.154-7.479 3.53-1.646 2.376-2.287 5.294-2.896 8.136-.865 4.035-1.73 8.07-2.594 12.105-.048.115-.096.23-.143.346-7.031-1.235-14.146-1.842-21.244-1.787-.749.005-.844 1.164-.084 1.159 6.977-.054 13.966.534 20.871 1.726-1.553 3.729-3.106 7.457-4.658 11.185-1.092 2.622-2.201 5.325-2.208 8.195C869.407 472.373 870.764 475.487 873.412 476.767zM543.642 376.045c-1.753-1.841-4.589-2.35-6.929-1.598-2.34.752-4.196 2.605-5.387 4.768-1.191 2.164-1.779 4.63-2.18 7.096-.664 4.082-.822 8.396.321 12.395-5.229-3.213-10.228-6.831-14.943-10.809-.429-.362-.851-.731-1.275-1.098 2.916-3.103 5.831-6.205 8.746-9.307 1.945-2.07 3.935-4.21 4.952-6.893 1.017-2.684.843-6.076-1.185-8.206-1.753-1.842-4.589-2.351-6.929-1.599-2.34.752-4.195 2.605-5.387 4.768-1.19 2.164-1.778 4.63-2.18 7.096-.686 4.211-.833 8.669.432 12.772-5.102-4.57-9.84-9.56-14.146-14.903 2.83-3.262 5.661-6.525 8.492-9.787 1.862-2.147 3.767-4.365 4.68-7.09.914-2.725.612-6.112-1.492-8.165-1.819-1.774-4.669-2.174-6.975-1.33-2.307.844-4.088 2.769-5.195 4.981-1.107 2.211-1.6 4.701-1.907 7.185-.492 3.977-.505 8.154.664 12.005-3.029-3.934-5.832-8.044-8.374-12.311-.753-1.263-1.474-2.544-2.179-3.833 2.799-3.456 5.598-6.913 8.397-10.368 1.79-2.21 3.619-4.494 4.443-7.251.824-2.757.413-6.137-1.755-8.12-1.874-1.715-4.731-2.019-7.006-1.098-2.276.921-3.992 2.908-5.025 5.157-1.033 2.25-1.445 4.758-1.671 7.253-.324 3.566-.258 7.278.678 10.746-2.24-4.451-4.203-9.036-5.87-13.728.771-4.335 1.543-8.669 2.315-13.004.506-2.845 1.012-5.774.428-8.643-.584-2.869-2.526-5.699-5.328-6.43-2.422-.633-5.03.474-6.562 2.399-1.531 1.924-2.078 4.532-1.914 7.047.165 2.515.988 4.961 1.965 7.307 1.801 4.323 4.27 8.555 7.915 11.438.005.016.006.03.011.046 1.765 4.996 3.867 9.873 6.275 14.598-2.725-2.614-6.165-4.489-9.656-5.915-2.329-.951-4.754-1.743-7.235-1.868-2.481-.125-5.043.476-6.913 2.061-1.87 1.586-2.916 4.251-2.251 6.697.769 2.829 3.591 4.75 6.428 5.294 2.837.543 5.716-.02 8.511-.582 4.257-.856 8.513-1.713 12.77-2.569 3.113 5.698 6.676 11.154 10.637 16.305-3.372-2.071-7.336-3.118-11.234-3.659-2.468-.343-4.991-.507-7.403-.004-2.412.504-4.724 1.735-6.131 3.756-1.406 2.021-1.759 4.889-.521 7.112 1.431 2.572 4.612 3.739 7.468 3.556 2.857-.183 5.483-1.459 8.028-2.712 3.875-1.908 7.75-3.816 11.625-5.724.129.159.254.321.383.479 4.235 5.196 8.875 10.051 13.854 14.514-4.023-1.823-8.591-2.131-12.952-1.832-2.468.169-4.953.525-7.198 1.517-2.245.992-4.247 2.682-5.211 4.964-.964 2.283-.733 5.184.914 7.123 1.905 2.242 5.23 2.74 7.971 1.973 2.74-.768 5.038-2.565 7.262-4.324 3.495-2.764 6.99-5.529 10.485-8.293.071.061.141.122.212.183l-.013.128c.024-.026.048-.052.072-.078 4.912 4.263 10.142 8.145 15.639 11.586-3.911-.086-7.815 1.017-11.415 2.532-2.306.971-4.569 2.129-6.4 3.831-1.832 1.702-3.211 4.006-3.411 6.551-.2 2.545.939 5.305 3.126 6.663 2.53 1.57 5.866.973 8.243-.672 2.377-1.644 4.005-4.15 5.575-6.596 2.229-3.473 4.459-6.945 6.689-10.417.086-.091.171-.182.257-.273 6.146 3.63 12.592 6.703 19.255 9.15.703.259 1.2-.793.487-1.055-6.55-2.406-12.885-5.416-18.927-8.962 2.766-2.943 5.532-5.887 8.297-8.83 1.945-2.07 3.935-4.21 4.952-6.893C545.843 381.567 545.67 378.175 543.642 376.045z" class="colorFFDBE7 svgShape"/><path fill="#ffedd4" d="M798.465,375.868c-0.686-2.457,0.483-5.268,2.529-7.036c2.046-1.768,4.827-2.579,7.512-2.642   c2.684-0.062,5.299,0.565,7.806,1.361c4.15,1.317,8.222,3.205,11.251,6.122c0.056-6.254-0.393-12.489-1.338-18.637   c-0.086-0.559-0.182-1.116-0.277-1.673c-4.547,1.185-9.093,2.369-13.64,3.553c-3.033,0.79-6.158,1.588-9.221,1.248   c-3.064-0.34-6.093-2.093-6.886-4.934c-0.686-2.456,0.482-5.268,2.529-7.036c2.046-1.769,4.827-2.58,7.511-2.642   c2.684-0.062,5.299,0.565,7.807,1.361c4.281,1.359,8.48,3.324,11.534,6.4c-1.268-6.777-3.134-13.421-5.576-19.84   c-4.646,1.033-9.291,2.065-13.937,3.097c-3.057,0.679-6.204,1.362-9.246,0.909c-3.042-0.454-5.993-2.321-6.671-5.195   c-0.586-2.484,0.692-5.256,2.804-6.951c2.112-1.695,4.918-2.405,7.597-2.368c2.679,0.036,5.262,0.761,7.732,1.651   c3.954,1.424,7.815,3.378,10.692,6.25c-1.879-4.597-4.051-9.073-6.519-13.386c-0.731-1.277-1.496-2.533-2.277-3.779   c-4.806,0.912-9.612,1.824-14.418,2.737c-3.073,0.583-6.237,1.168-9.257,0.618c-3.019-0.55-5.899-2.513-6.478-5.411   c-0.499-2.506,0.871-5.241,3.036-6.871c2.165-1.63,4.989-2.252,7.661-2.131c2.672,0.121,5.224,0.928,7.657,1.897   c3.477,1.384,6.863,3.19,9.522,5.67c-2.812-4.126-5.909-8.063-9.274-11.781c-4.445-1.34-8.89-2.679-13.335-4.019   c-2.917-0.879-5.912-1.799-8.221-3.678c-2.309-1.879-3.798-4.971-2.854-7.857c0.816-2.494,3.344-4.339,6.004-4.822   c2.66-0.483,5.383,0.247,7.608,1.58s4.006,3.23,5.606,5.219c2.948,3.666,5.426,7.896,5.979,12.558   c0.012,0.011,0.025,0.02,0.036,0.032c3.589,3.951,6.875,8.151,9.843,12.558c-0.837-3.702-0.58-7.703,0.122-11.54   c0.469-2.559,1.139-5.132,2.458-7.44c1.318-2.308,3.353-4.349,5.896-5.299c2.544-0.95,5.607-0.645,7.479,1.108   c2.166,2.029,2.307,5.493,1.17,8.321c-1.138,2.828-3.321,5.174-5.455,7.444c-3.25,3.458-6.5,6.915-9.75,10.372   c3.458,5.504,6.433,11.303,8.896,17.318c0.037-4.032,1.363-8.12,3.116-11.91c1.11-2.4,2.416-4.764,4.274-6.716   c1.858-1.95,4.331-3.468,7.008-3.793c2.678-0.325,5.527,0.705,6.863,2.873c1.545,2.508,0.785,5.941-1.035,8.445   c-1.82,2.505-4.513,4.286-7.141,6.004c-4,2.616-7.999,5.233-11.998,7.849c0.073,0.191,0.15,0.381,0.221,0.572   c2.346,6.285,4.145,12.777,5.386,19.392c0.643-4.506,2.998-8.793,5.794-12.608c1.583-2.159,3.347-4.245,5.559-5.814   c2.212-1.569,4.928-2.589,7.591-2.39c2.663,0.199,5.206,1.774,6.043,4.18c0.969,2.783-0.493,6.033-2.785,8.157   c-2.292,2.124-5.277,3.362-8.186,4.552c-4.57,1.868-9.14,3.738-13.71,5.607c0.016,0.093,0.031,0.185,0.046,0.278l0.126,0.049   c-0.038,0.01-0.076,0.019-0.114,0.029c1.095,6.46,1.654,13.029,1.653,19.633c2.18-3.587,5.454-6.609,8.933-9.16   c2.228-1.634,4.604-3.142,7.233-4.002c2.629-0.861,5.552-1.027,8.015-0.011c2.464,1.016,4.353,3.347,4.341,5.969   c-0.013,3.033-2.492,5.777-5.383,7.159c-2.89,1.382-6.143,1.679-9.306,1.952c-4.492,0.388-8.984,0.776-13.476,1.165   c-0.133,0.035-0.267,0.07-0.4,0.104c-0.202,7.282-1.092,14.573-2.684,21.766c-0.168,0.76-1.425,0.715-1.254-0.054   c1.565-7.072,2.448-14.233,2.668-21.381c-4.314,1.124-8.627,2.248-12.94,3.371c-3.033,0.79-6.157,1.588-9.221,1.248   C802.288,380.462,799.259,378.709,798.465,375.868z" class="colorDBD4FF svgShape"/><path fill="#f2d5ad" d="M872.514,397.997l-0.084,0.118c-16.988,8.686-33.675,14.958-46.686,17.914l0.601,2.608   c12.878-2.93,29.326-9.08,46.141-17.587c7.705,4.392,24.264,6.932,24.44,6.954l0.374-2.644c-3.112-0.437-15.203-2.67-21.965-5.792   c9.446-4.918,18.919-10.572,27.922-16.806c8.212,3.181,25.16,3.168,25.342,3.169l-0.06-2.68   c-0.158,0.005-14.512,0.012-22.611-2.328c16.396-11.696,30.911-25.312,39.996-39.958l-2.269-1.415   c-7.578,12.215-19.025,23.694-32.173,33.929c-0.973-6.381-2.233-17.941-0.604-23.19l-2.564-0.797   c-2.099,6.79,0.052,21.481,0.753,25.808c-7.821,5.905-16.159,11.358-24.653,16.26c-1.486-4.077-6.158-17.49-5.458-23.898   l-2.667-0.283c-0.787,7.293,4.417,21.886,5.776,25.539c-3.158,1.781-6.323,3.498-9.483,5.117   C872.562,398.022,872.532,398.01,872.514,397.997z" class="colorB9ADF2 svgShape"/><path fill="#ffeacc" d="M914.41,385.114c0,0,30.978-16.041,71.319-22.464c40.34-6.424,74.767-0.796,74.767-0.796   s-30.977,16.041-71.317,22.465C948.839,390.742,914.41,385.114,914.41,385.114z" class="colorFFCCDC svgShape"/><path fill="#f2d5ad" d="M886.035,404.482c0,0,29.599-3.216,62.514,5.862c32.915,9.08,56.678,27.017,56.678,27.017   s-29.6,3.214-62.514-5.865C909.8,422.418,886.035,404.482,886.035,404.482z" class="colorB9ADF2 svgShape"/><path fill="#fce2bd" d="M923.532,237.179c0,0,7.499,28.814,3.318,62.701c-4.18,33.886-18.46,60.014-18.46,60.014   s-7.498-28.814-3.318-62.701C909.254,263.306,923.532,237.179,923.532,237.179z" class="colorC8BDFC svgShape"/><path fill="#ffeacc" d="M856.459 260.386c0 0 16.016 25.1 22.484 58.625 6.468 33.525.939 62.781.939 62.781s-16.017-25.099-22.484-58.624C850.929 289.642 856.459 260.386 856.459 260.386zM935.237 352.994c0 0 14.304-31.817 41.923-61.914 27.616-30.099 58.088-47.08 58.088-47.08s-14.304 31.817-41.922 61.914C965.709 336.011 935.237 352.994 935.237 352.994z" class="colorFFCCDC svgShape"/><path fill="#f2d5ad" d="M501.846,507.273l0.145-0.002c17.113,8.436,32.111,18.072,42.254,26.741l1.732-2.039   c-10.042-8.579-24.8-18.096-41.666-26.5c-1.08-8.803-8.935-23.601-9.021-23.754l-2.344,1.28c1.508,2.758,6.941,13.788,8.475,21.076   c-9.587-4.638-19.779-8.858-30.158-12.354c-2.355-8.486-12.489-22.071-12.596-22.218l-2.114,1.649   c0.099,0.124,8.678,11.632,11.639,19.525c-19.174-6.163-38.764-9.671-55.937-8.209l0.22,2.666   c14.323-1.219,30.367,1.105,46.429,5.535c-4.536,4.593-13.056,12.508-18.238,14.337l0.893,2.532   c6.699-2.373,17.196-12.873,20.248-16.02c9.407,2.744,18.76,6.174,27.767,10.059c-2.383,3.627-10.348,15.386-15.906,18.652   l1.366,2.308c6.319-3.726,14.915-16.615,17.032-19.888c3.315,1.469,6.582,2.982,9.767,4.549   C501.838,507.219,501.846,507.251,501.846,507.273z" class="colorB9ADF2 svgShape"/><path fill="#ffeacc" d="M466.489,481.367c0,0-31.369-15.262-60.617-43.779c-29.249-28.516-45.299-59.488-45.299-59.488   s31.368,15.262,60.616,43.777C450.438,450.394,466.489,481.367,466.489,481.367z" class="colorFFCCDC svgShape"/><path fill="#f2d5ad" d="M498.971,492.555c0,0-20.261-21.818-32.64-53.638c-12.379-31.821-12.188-61.594-12.188-61.594   s20.259,21.819,32.638,53.64C499.16,462.782,498.971,492.555,498.971,492.555z" class="colorB9ADF2 svgShape"/><path fill="#fce2bd" d="M342.397,562.417c0,0,18.628-23.226,48.304-40.114c29.674-16.889,59.158-21.043,59.158-21.043   s-18.63,23.225-48.304,40.114C371.879,558.262,342.397,562.417,342.397,562.417z" class="colorC8BDFC svgShape"/><path fill="#ffeacc" d="M401.072 602.348c0 0 10.563-27.837 33.586-53.05 23.024-25.214 49.79-38.254 49.79-38.254s-10.562 27.837-33.586 53.05C427.839 589.307 401.072 602.348 401.072 602.348zM428.288 483.851c0 0-34.062 7.533-74.697 3.36-40.635-4.169-72.456-18.464-72.456-18.464s34.061-7.533 74.697-3.361C396.466 469.557 428.288 483.851 428.288 483.851z" class="colorFFCCDC svgShape"/><path fill="#f2d5ad" d="M869.809,356.057l-341.789,0c-4.712,0-8.531,3.819-8.531,8.531l0,448.564c0,4.711,3.819,8.53,8.531,8.53   h341.789c4.711,0,8.531-3.819,8.531-8.531V364.589C878.339,359.877,874.52,356.057,869.809,356.057z" class="colorB9ADF2 svgShape"/><path fill="#ffffff" d="M857.216,375.101H540.611c-4.985,0-9.026,4.081-9.026,9.114v413.773c0,5.033,4.041,9.114,9.026,9.114   h316.604c4.985,0,9.026-4.081,9.026-9.114V384.215C866.242,379.181,862.201,375.101,857.216,375.101z" class="colorFFF svgShape"/><path fill="#c1a885" d="M711.537,291.12L711.537,291.12c-10.722,0-19.413,8.692-19.413,19.414v34.025h38.826v-34.025   C730.95,299.812,722.258,291.12,711.537,291.12z M711.537,317.839c-4.496,0-8.141-3.645-8.141-8.141   c0-4.497,3.645-8.141,8.141-8.141c4.496,0,8.141,3.645,8.141,8.141C719.678,314.195,716.033,317.839,711.537,317.839z" class="color8F85C1 svgShape"/><path fill="#c1a885" d="M836.834,347.464H586.239c-4.468,0-8.09-3.622-8.09-8.09l0,0c0-4.468,3.622-8.09,8.09-8.09h250.595   c4.468,0,8.09,3.622,8.09,8.09l0,0C844.924,343.842,841.302,347.464,836.834,347.464z" class="color8F85C1 svgShape"/><path fill="#efe9e0" d="M823.102,358.967H603.334c-4.576,0-8.287-5.15-8.287-11.503l0,0h236.341l0,0   C831.388,353.818,827.679,358.967,823.102,358.967z" class="colorE3E0EF svgShape"/><path fill="#c1a885" d="M813.613 340.599v35.029c0 1.686-1.168 3.053-2.609 3.053h-83.008c-1.228 0-2.248 1.013-2.548 2.406-1.567 7.28-7.201 12.669-13.911 12.669s-12.344-5.389-13.912-12.669c-.3-1.393-1.32-2.406-2.548-2.406H612.07c-1.441 0-2.609-1.367-2.609-3.053v-35.029c0-1.686-1.168-3.053-2.609-3.053l0 0c-1.441 0-2.61 1.366-2.61 3.053v38.081 2.574c0 1.686 1.168 3.053 2.61 3.053h2.609 82.051c1.083 0 2.045.787 2.43 1.971.211.649.447 1.284.71 1.901 3.078 7.265 9.483 12.262 16.886 12.262 7.404 0 13.809-4.997 16.887-12.262.262-.617.497-1.25.708-1.899.384-1.185 1.347-1.973 2.431-1.973h82.049 2.61c1.441 0 2.609-1.367 2.609-3.053v-2.574-38.082c0-1.686-1.168-3.052-2.609-3.052l0 0C814.781 337.547 813.613 338.913 813.613 340.599zM585.777 456.542V426.63h3.959v29.912H585.777zM596.672 456.542V426.63h4.061l15.711 23.484V426.63h3.795v29.912h-4.06l-15.711-23.505v23.505H596.672zM625.544 446.932l3.733-.327c.176 1.497.588 2.724 1.235 3.683.645.959 1.648 1.734 3.009 2.326 1.36.591 2.891.888 4.591.888 1.509 0 2.843-.224 3.999-.674 1.156-.448 2.018-1.064 2.581-1.846.565-.782.847-1.635.847-2.56 0-.938-.272-1.757-.816-2.458-.544-.701-1.442-1.289-2.694-1.765-.802-.314-2.577-.799-5.325-1.459-2.748-.66-4.673-1.282-5.774-1.867-1.428-.748-2.492-1.676-3.193-2.785-.701-1.109-1.051-2.35-1.051-3.724 0-1.509.428-2.921 1.285-4.233.857-1.313 2.108-2.309 3.755-2.99 1.646-.68 3.475-1.02 5.488-1.02 2.217 0 4.172.356 5.866 1.07 1.693.714 2.996 1.765 3.908 3.153.911 1.387 1.401 2.958 1.469 4.713l-3.795.286c-.204-1.891-.895-3.319-2.071-4.285-1.177-.965-2.914-1.448-5.213-1.448-2.394 0-4.139.439-5.234 1.316-1.095.877-1.642 1.935-1.642 3.173 0 1.075.388 1.959 1.163 2.652.762.695 2.751 1.405 5.969 2.133 3.217.728 5.424 1.363 6.621 1.908 1.741.803 3.026 1.819 3.856 3.05.83 1.231 1.245 2.65 1.245 4.254 0 1.591-.456 3.091-1.367 4.499-.911 1.408-2.221 2.503-3.928 3.285-1.707.783-3.628 1.173-5.764 1.173-2.707 0-4.975-.395-6.804-1.184-1.829-.788-3.265-1.975-4.305-3.56C626.145 450.724 625.597 448.931 625.544 446.932zM674.39 426.63h3.958v17.282c0 3.007-.34 5.394-1.02 7.162-.68 1.769-1.907 3.207-3.683 4.315-1.775 1.109-4.105 1.663-6.988 1.663-2.803 0-5.095-.483-6.876-1.448-1.782-.966-3.054-2.363-3.815-4.193-.762-1.829-1.143-4.329-1.143-7.498V426.63h3.958v17.261c0 2.599.241 4.513.724 5.744.483 1.231 1.313 2.18 2.489 2.847 1.177.666 2.615.999 4.315.999 2.911 0 4.985-.659 6.224-1.979 1.237-1.319 1.857-3.856 1.857-7.611V426.63zM684.999 456.542V426.63h13.262c2.666 0 4.693.269 6.08.806 1.388.537 2.496 1.486 3.326 2.846.829 1.36 1.244 2.864 1.244 4.509 0 2.122-.687 3.911-2.061 5.366-1.374 1.455-3.496 2.38-6.366 2.774 1.048.504 1.843 1 2.388 1.49 1.155 1.061 2.251 2.387 3.285 3.978l5.203 8.141h-4.978l-3.959-6.224c-1.156-1.795-2.108-3.168-2.856-4.121-.749-.952-1.418-1.619-2.01-1.999-.591-.381-1.193-.646-1.806-.796-.449-.095-1.183-.143-2.204-.143h-4.591v13.283H684.999zM688.958 439.831h8.508c1.809 0 3.224-.187 4.243-.561 1.02-.374 1.796-.972 2.326-1.796.532-.823.796-1.717.796-2.683 0-1.415-.513-2.577-1.541-3.49-1.026-.911-2.649-1.367-4.866-1.367h-9.467V439.831zM711.83 456.542l11.487-29.912h4.265l12.242 29.912h-4.509l-3.488-9.059h-12.507l-3.286 9.059H711.83zM720.461 444.259h10.14l-3.122-8.284c-.952-2.516-1.659-4.584-2.122-6.203-.381 1.918-.918 3.823-1.612 5.713L720.461 444.259zM742.946 456.542V426.63h4.06l15.711 23.484V426.63h3.795v29.912h-4.06l-15.711-23.505v23.505H742.946zM794.505 446.055l3.959.999c-.83 3.251-2.323 5.73-4.479 7.438-2.156 1.707-4.792 2.56-7.906 2.56-3.224 0-5.846-.657-7.866-1.969-2.02-1.312-3.557-3.214-4.612-5.703-1.054-2.489-1.581-5.162-1.581-8.018 0-3.115.595-5.832 1.786-8.151 1.19-2.319 2.883-4.081 5.08-5.284 2.197-1.204 4.614-1.805 7.253-1.805 2.992 0 5.509.762 7.549 2.285 2.041 1.524 3.462 3.666 4.265 6.427l-3.897.918c-.694-2.176-1.701-3.761-3.02-4.754-1.319-.993-2.979-1.49-4.978-1.49-2.299 0-4.22.552-5.764 1.653-1.543 1.102-2.629 2.581-3.254 4.438-.626 1.857-.939 3.771-.939 5.744 0 2.544.37 4.764 1.111 6.661.742 1.898 1.894 3.316 3.459 4.254 1.564.939 3.258 1.408 5.081 1.408 2.217 0 4.095-.639 5.631-1.918C792.92 450.468 793.961 448.571 794.505 446.055zM803.422 456.542V426.63h21.628v3.53h-17.669v9.161h16.547v3.51h-16.547v10.181h18.363v3.53H803.422z" class="color8F85C1 svgShape"/><circle cx="602.796" cy="534.872" r="40.793" fill="#e8ddce" transform="rotate(-76.668 602.786 534.846)" class="colorD3CEE8 svgShape"/><path fill="#ffffff" d="M602.159,539.752c9.167,0,16.599-7.431,16.599-16.598c0-9.168-7.431-16.599-16.599-16.599   c-9.167,0-16.598,7.431-16.598,16.599C585.561,532.321,592.992,539.752,602.159,539.752z" class="colorFFF svgShape"/><path fill="#ffffff" d="M617.383,539.886c-1.336-1.043-3.203-1.006-4.516,0.065c-2.857,2.331-6.51,3.735-10.492,3.735   c-3.854,0-7.399-1.313-10.211-3.519c-1.339-1.05-3.237-1.029-4.529,0.078c-3.348,2.872-5.387,7.012-5.387,12.395v0.485   c0,2.783,2.256,5.039,5.04,5.039h31.018c2.783,0,5.039-2.256,5.039-5.039v-0.485C623.345,547.028,621.067,542.764,617.383,539.886z   " class="colorFFF svgShape"/><path fill="#e8ddce" d="M833.275 506.555H663.628c-2.409 0-4.361-1.021-4.361-2.281l0 0c0-1.259 1.952-2.281 4.361-2.281h169.647c2.409 0 4.361 1.021 4.361 2.281l0 0C837.636 505.534 835.684 506.555 833.275 506.555zM833.275 519.932H663.628c-2.409 0-4.361-1.021-4.361-2.281l0 0c0-1.26 1.952-2.28 4.361-2.28h169.647c2.409 0 4.361 1.021 4.361 2.28l0 0C837.636 518.911 835.684 519.932 833.275 519.932zM833.275 533.309H663.628c-2.409 0-4.361-1.021-4.361-2.281l0 0c0-1.26 1.952-2.281 4.361-2.281h169.647c2.409 0 4.361 1.021 4.361 2.281l0 0C837.636 532.288 835.684 533.309 833.275 533.309zM833.275 546.686H663.628c-2.409 0-4.361-1.021-4.361-2.281l0 0c0-1.26 1.952-2.28 4.361-2.28h169.647c2.409 0 4.361 1.02 4.361 2.28l0 0C837.636 545.665 835.684 546.686 833.275 546.686zM833.275 560.063H663.628c-2.409 0-4.361-1.021-4.361-2.281l0 0c0-1.259 1.952-2.281 4.361-2.281h169.647c2.409 0 4.361 1.021 4.361 2.281l0 0C837.636 559.042 835.684 560.063 833.275 560.063zM585.749 612.001h-5.176c-6.894 0-12.482-5.588-12.482-12.481l0 0c0-6.894 5.588-12.482 12.482-12.482h5.176c6.893 0 12.481 5.588 12.481 12.481v.001C598.23 606.413 592.642 612.001 585.749 612.001zM585.748 646.139h-5.175c-6.894 0-12.482-5.588-12.482-12.481v0c0-6.893 5.588-12.481 12.482-12.481h5.176c6.893 0 12.481 5.588 12.481 12.481l0 0C598.23 640.551 592.641 646.139 585.748 646.139zM789.761 593.892H620.694c-1.07 0-1.936-.867-1.936-1.936l0 0c0-1.07.867-1.936 1.936-1.936h169.067c1.069 0 1.936.867 1.936 1.936l0 0C791.697 593.026 790.83 593.892 789.761 593.892zM668.71 605.108h-48.016c-1.07 0-1.936-.867-1.936-1.936l0 0c0-1.069.867-1.936 1.936-1.936h48.016c1.069 0 1.936.867 1.936 1.936l0 0C670.646 604.242 669.779 605.108 668.71 605.108zM702.724 630.152h-82.029c-1.07 0-1.936-.867-1.936-1.936l0 0c0-1.069.867-1.936 1.936-1.936h82.029c1.07 0 1.937.867 1.937 1.936l0 0C704.66 629.286 703.793 630.152 702.724 630.152zM684.903 641.767h-64.209c-1.07 0-1.936-.867-1.936-1.936l0 0c0-1.069.867-1.936 1.936-1.936h64.209c1.069 0 1.936.867 1.936 1.936l0 0C686.839 640.9 685.972 641.767 684.903 641.767zM703.824 605.108H679.57c-1.069 0-1.937-.867-1.937-1.936l0 0c0-1.069.867-1.936 1.937-1.936h24.254c1.07 0 1.937.867 1.937 1.936l0 0C705.76 604.242 704.893 605.108 703.824 605.108zM736.386 630.152h-24.254c-1.07 0-1.936-.867-1.936-1.936l0 0c0-1.069.867-1.936 1.936-1.936h24.254c1.069 0 1.937.867 1.937 1.936l0 0C738.322 629.286 737.455 630.152 736.386 630.152zM783.821 605.108h-67.157c-1.069 0-1.936-.867-1.936-1.936l0 0c0-1.069.867-1.936 1.936-1.936h67.157c1.07 0 1.936.867 1.936 1.936l0 0C785.757 604.242 784.89 605.108 783.821 605.108z" class="colorD3CEE8 svgShape"/><path fill="#ffffff" d="M588.719 592.201c-2.074 2.896-4.148 5.793-6.222 8.689-1.443-1.355-2.887-2.71-4.33-4.065-.869 1.107-1.739 2.214-2.609 3.32 2.448 1.619 4.896 3.238 7.344 4.856 3.125-3.357 6.25-6.715 9.374-10.073C591.09 594.019 589.904 593.11 588.719 592.201zM588.719 627.755c-2.074 2.896-4.148 5.793-6.222 8.689-1.443-1.355-2.887-2.711-4.33-4.065-.869 1.106-1.739 2.213-2.609 3.32 2.448 1.619 4.896 3.237 7.344 4.856 3.125-3.357 6.25-6.715 9.374-10.073C591.09 629.573 589.904 628.664 588.719 627.755z" class="colorFFF svgShape"/><path fill="#e8ddce" d="M771.533 668.213H581.485c-.802 0-1.452-.65-1.452-1.452l0 0c0-.802.65-1.452 1.452-1.452h190.048c.802 0 1.452.65 1.452 1.452l0 0C772.985 667.563 772.335 668.213 771.533 668.213zM818.968 680.622H559.462c-.802 0-1.452-.65-1.452-1.452l0 0c0-.802.65-1.452 1.452-1.452h259.506c.802 0 1.452.65 1.452 1.452l0 0C820.42 679.972 819.77 680.622 818.968 680.622zM842.993 692.151H559.462c-.802 0-1.452-.65-1.452-1.452l0 0c0-.802.65-1.453 1.452-1.453h283.531c.802 0 1.452.651 1.452 1.453l0 0C844.445 691.5 843.795 692.151 842.993 692.151zM783.942 703.679h-224.48c-.802 0-1.452-.65-1.452-1.452l0 0c0-.802.65-1.452 1.452-1.452h224.48c.802 0 1.452.65 1.452 1.452l0 0C785.394 703.029 784.744 703.679 783.942 703.679zM806.823 715.208H559.462c-.802 0-1.452-.65-1.452-1.452l0 0c0-.802.65-1.452 1.452-1.452h247.361c.802 0 1.452.651 1.452 1.452l0 0C808.275 714.558 807.625 715.208 806.823 715.208zM835.337 726.737H559.462c-.802 0-1.452-.65-1.452-1.452l0 0c0-.802.65-1.452 1.452-1.452h275.875c.802 0 1.451.65 1.451 1.452l0 0C836.789 726.086 836.139 726.737 835.337 726.737zM814.172 782.583c-12.379 0-22.449-10.071-22.449-22.449 0-12.379 10.071-22.449 22.449-22.449 12.379 0 22.449 10.071 22.449 22.449C836.621 772.513 826.55 782.583 814.172 782.583zM814.172 739.392c-11.437 0-20.743 9.305-20.743 20.742 0 11.438 9.305 20.742 20.743 20.742s20.743-9.304 20.743-20.742C834.914 748.697 825.609 739.392 814.172 739.392z" class="colorD3CEE8 svgShape"/><path fill="#e8ddce" d="M799.923 760.134c0-7.869 6.379-14.249 14.248-14.249 7.869 0 14.249 6.379 14.249 14.249 0 7.869-6.38 14.249-14.249 14.249C806.302 774.383 799.923 768.003 799.923 760.134zM774.43 748.914h-87.794c-.836 0-1.514-.678-1.514-1.514l0 0c0-.836.678-1.514 1.514-1.514h87.794c.836 0 1.514.678 1.514 1.514l0 0C775.944 748.236 775.266 748.914 774.43 748.914zM774.43 755.954h-31.998c-.836 0-1.515-.678-1.515-1.514l0 0c0-.836.678-1.514 1.515-1.514h31.998c.836 0 1.514.678 1.514 1.514l0 0C775.944 755.276 775.266 755.954 774.43 755.954zM729.019 755.954h-17.213c-.836 0-1.514-.678-1.514-1.514l0 0c0-.836.678-1.514 1.514-1.514h17.213c.836 0 1.514.678 1.514 1.514l0 0C730.534 755.276 729.856 755.954 729.019 755.954zM774.43 763.162h-17.213c-.836 0-1.515-.678-1.515-1.514l0 0c0-.836.678-1.514 1.515-1.514h17.213c.836 0 1.514.678 1.514 1.514v0C775.944 762.485 775.266 763.162 774.43 763.162zM814.748 778.562c-.625 0-1.255-.031-1.872-.094-.461-.046-.797-.457-.75-.918.046-.461.457-.797.918-.75 1.158.117 2.353.113 3.512-.011.461-.051.873.284.923.745.049.46-.284.873-.745.922C816.078 778.526 815.41 778.562 814.748 778.562zM809.352 777.721c-.086 0-.172-.013-.257-.041-1.225-.393-2.414-.918-3.532-1.561-.402-.23-.54-.743-.309-1.144.23-.401.743-.54 1.144-.31 1.017.583 2.097 1.06 3.211 1.418.44.142.683.614.542 1.055C810.036 777.494 809.707 777.721 809.352 777.721zM820.247 777.688c-.353 0-.681-.224-.797-.578-.145-.44.095-.914.535-1.058 1.111-.365 2.188-.848 3.201-1.438.399-.233.913-.097 1.147.303.233.4.097.913-.303 1.147-1.113.649-2.299 1.181-3.521 1.582C820.422 777.675 820.334 777.688 820.247 777.688zM802.994 774.073c-.199 0-.399-.071-.559-.214-.96-.859-1.833-1.821-2.593-2.858-.274-.374-.193-.898.18-1.172.374-.273.899-.193 1.172.18.692.944 1.486 1.819 2.359 2.6.345.309.374.839.066 1.185C803.453 773.979 803.224 774.073 802.994 774.073zM826.582 774.002c-.228 0-.456-.093-.622-.276-.311-.343-.285-.874.059-1.184.868-.786 1.657-1.666 2.343-2.614.272-.375.797-.458 1.171-.188.375.271.459.796.187 1.171-.755 1.042-1.622 2.009-2.576 2.874C826.984 773.93 826.783 774.002 826.582 774.002zM798.661 768.162c-.32 0-.626-.184-.766-.494-.528-1.174-.935-2.408-1.206-3.668-.098-.452.19-.899.643-.996.453-.098.899.19.996.643.247 1.144.616 2.265 1.097 3.333.191.422.002.918-.42 1.109C798.893 768.139 798.776 768.162 798.661 768.162zM830.879 768.063c-.114 0-.229-.023-.339-.072-.424-.187-.615-.683-.427-1.106.474-1.07.836-2.194 1.076-3.34.095-.453.54-.743.993-.648.453.095.744.539.649.992-.264 1.261-.662 2.498-1.184 3.676C831.508 767.878 831.201 768.063 830.879 768.063zM797.112 760.999c-.463 0-.839-.375-.839-.838v-.073c0-1.293.135-2.584.399-3.838.096-.453.541-.743.994-.647.453.096.743.541.647.994-.241 1.14-.364 2.315-.364 3.492v.073C797.951 760.623 797.575 760.999 797.112 760.999zM832.383 760.89c-.462 0-.837-.374-.839-.836-.002-1.177-.127-2.351-.37-3.49-.097-.453.192-.898.645-.995.456-.096.899.192.995.645.268 1.253.405 2.545.407 3.837.001.463-.373.84-.837.84C832.384 760.89 832.384 760.89 832.383 760.89zM798.631 753.756c-.114 0-.23-.023-.341-.073-.424-.188-.613-.684-.425-1.107.523-1.174 1.173-2.299 1.932-3.343.272-.375.796-.457 1.171-.185.374.272.457.797.185 1.172-.69.949-1.28 1.971-1.757 3.039C799.258 753.571 798.951 753.756 798.631 753.756zM830.851 753.724c-.321 0-.626-.184-.766-.496-.478-1.066-1.071-2.088-1.762-3.035-.273-.374-.191-.898.183-1.171.373-.273.898-.191 1.171.183.761 1.041 1.413 2.164 1.938 3.337.19.423 0 .919-.422 1.108C831.082 753.7 830.965 753.724 830.851 753.724zM802.941 747.826c-.229 0-.457-.094-.623-.277-.31-.344-.283-.874.061-1.184.957-.864 2.007-1.628 3.119-2.273.401-.233.914-.095 1.146.305.233.4.096.914-.305 1.146-1.011.586-1.966 1.281-2.837 2.067C803.342 747.755 803.142 747.826 802.941 747.826zM826.529 747.803c-.2 0-.399-.071-.56-.215-.872-.784-1.828-1.477-2.842-2.062-.401-.232-.539-.744-.307-1.145.231-.401.744-.539 1.145-.307 1.115.643 2.165 1.405 3.124 2.267.344.309.373.84.063 1.184C826.988 747.71 826.759 747.803 826.529 747.803zM809.283 744.154c-.353 0-.682-.225-.797-.579-.143-.44.097-.913.538-1.057 1.224-.398 2.494-.668 3.776-.802.462-.046.873.287.921.747.048.461-.286.873-.747.921-1.166.122-2.32.367-3.432.729C809.457 744.141 809.369 744.154 809.283 744.154zM820.179 744.143c-.086 0-.173-.013-.258-.042-1.112-.359-2.267-.602-3.434-.722-.46-.047-.795-.459-.748-.92.048-.461.456-.794.92-.748 1.283.132 2.554.399 3.778.795.44.142.682.615.54 1.056C820.862 743.917 820.533 744.143 820.179 744.143z" class="colorD3CEE8 svgShape"/><path fill="#ffe3bd" d="M1003.378,563.201l-19.702-3.303l-15.517,32.096l-2.324,1.94l-55.52,23.194v0   c-0.008-0.002-17.683-4.532-19.184,6.872c-1.501,11.406,7.699,14.883,16.324,11.029c5.937-2.653,7.795-5.593,7.793-5.597   c1.339,0.199,56.225-8.659,66.46-15.147c4.089-2.589,8.424-9.269,12.389-17.027   C1002.054,581.694,1003.378,563.201,1003.378,563.201z" class="colorFFBDBD svgShape"/><path fill="#ffe3bd" d="M1003.378,563.201l-4.108-1.312c-0.578,6.308-2.337,19.051-7.563,30.437   c-3.635,7.918-7.684,14.775-11.66,17.534c-9.952,6.914-64.416,18.078-65.763,17.936c0.002,0.005-1.73,3.02-7.55,5.921   c-4.904,2.444-10.105,2.432-13.41-0.245c3.078,3.506,8.717,3.977,14.132,1.557c5.937-2.653,7.795-5.593,7.793-5.597   c1.339,0.199,56.225-8.659,66.46-15.147c4.089-2.589,8.424-9.269,12.389-17.027   C1002.054,581.694,1003.378,563.201,1003.378,563.201z" class="colorFFBDBD svgShape"/><polygon fill="#f9e6cb" points="969.986 640.889 958.822 836.589 973.02 836.589 1009.093 640.24" class="colorF9CBCB svgShape"/><polygon fill="#ffe3bd" points="970.931 640.005 972.545 643.28 1004.196 642.754 968.586 836.589 973.02 836.589 1009.093 640.24" class="colorFFBDBD svgShape"/><polygon fill="#f9e6cb" points="1010.705 633.334 1011.495 638.892 1014.792 638.51" class="colorF9CBCB svgShape"/><polygon fill="#f9e6cb" points="1011.495 638.892 975.607 643.041 1025.996 834.436 1039.082 832.952" class="colorF9CBCB svgShape"/><polygon fill="#ffe3bd" points="1011.721 640.482 1011.495 638.891 1010.55 639" class="colorFFBDBD svgShape"/><polygon fill="#ffe3bd" points="1014.791 638.51 1010.704 633.334 1011.495 638.891" class="colorFFBDBD svgShape"/><polygon fill="#ffe3bd" points="1008.567 641.045 1008.313 639.259 975.607 643.041 976.071 644.803" class="colorFFBDBD svgShape"/><polygon fill="#ffe3bd" points="1039.082 832.952 1011.748 640.677 1008.567 641.045 1035.899 833.313" class="colorFFBDBD svgShape"/><path fill="#ded2c1" d="M971.37,541.602c0,0-8.533-5.365-6.838-10.754c1.377-4.38,4.427-2.741,5.567-3.664   c1.141-0.922,2.34-4.116,5.883-5.216c1.877-0.583,5.857-1.015,8.771,1.937c1.753,1.776,5.068-1.084,8.859,1.605   c3.38,2.398,6.145,6.226,4.568,11.547c-1.577,5.321,3.839,3.855,4.004,9.85c0.063,2.271-0.418,5.629-4.238,7.293   c-2.72,1.185-7.679,1.652-10.274,2.878c-2.596,1.226-10.383,4.452-12.49,2.348c-2.107-2.104-2.757-6.231-2.105-7.534   C973.729,550.589,973.759,543.3,971.37,541.602z" class="colorC1C5DE svgShape"/><path fill="#f9e6cb" d="M993.366,558.622c-9.301,5.165-13.515,6.208-10.163,2.194l0.115-2.444l0.268-3.71l0.541-7.481l5.219-0.686   l0.89,2.688l1.491,4.493L993.366,558.622z" class="colorF9CBCB svgShape"/><path fill="#ffe3bd" d="M991.727,553.675c-0.728,0.781-1.508,1.547-2.255,2.098c-2.899,2.133-5.516,2.447-6.154,2.598l0.268-3.71   l6.65-5.479L991.727,553.675z" class="colorFFBDBD svgShape"/><path fill="#f9e6cb" d="M969.472,534.222c-0.004,0.995,0.119,21.609,11.057,21.653c10.938,0.044,10.991-12.883,10.991-12.883   s3.078-4.939,2.092-6.931c-0.987-1.993-3.476-2.075-6.249,0.564c0,0-7.494,0.317-14.648-7.782   C972.258,530.761,971.376,532.594,969.472,534.222z" class="colorF9CBCB svgShape"/><path fill="#87612b" d="M958.822 835.105c-5.965 3.146-18.23 3.791-16.434 11.806h31.78c1.541-3.441 1.953-8.365-.875-11.806C968.484 836.72 963.659 836.49 958.822 835.105zM1025.7 833.313c-5.122 5.299-18.014 5.866-15.243 13.599l31.537-3.92c1.104-3.605.098-8.52-3.133-11.586C1034.324 833.39 1029.92 834.186 1025.7 833.313z" class="color392B87 svgShape"/><path fill="#ebb871" d="M1043.246,770.687c-35.45,14.019-64.469,10.175-94.897,0.451c-0.145-27.824,20.237-63.398,20.888-130.887   c0.213-22.08-6.138-25.718-7.639-36.187c-0.741-5.123-0.538-9.79,0.274-13.99c3.835-19.641,21.335-29.258,21.335-29.258   c-2.8,3.957,1.697,2.295,10.107-2.352c7.33-0.393,17.192,4.056,22.812,12.202c13.564,19.631,5.827,48.191,13.891,76.799   C1050.253,719.253,1043.246,770.687,1043.246,770.687z" class="colorEB71B4 svgShape"/><path fill="#dba860" d="M1014.119,583.5c-2.983,21.62-15.011,42.264-24.604,47.358c-7.276,3.864-13.409,3.466-20.277,4.785   c-0.651-21.243-4.639-17.79-6.915-28.119c-0.633-2.873,4.445-0.816,5.657-5.182c2.878-10.371,11.545-24.216,15.643-28.477   C997.683,571.836,1014.119,583.5,1014.119,583.5z" class="colorDB60A4 svgShape"/><path fill="#c2975b" d="M828.7,737.826c-11.951,13.351-123.354,0.771-123.354,0.771l-33.834,53.577   c-4.823,1.497-9.216,1.408-13.249,0c0.933-6.848,9.912-70.397,24.449-83.149c17.937-15.725,92.767-9.404,92.767-9.404l57.787,2.576   C833.266,702.196,840.641,724.485,828.7,737.826z" class="color6E5BC2 svgShape"/><path fill="#87612b" d="M672.095,791.25l-0.729,6.954c-0.085,3.507-2.983,6.29-6.491,6.233l-35.262-0.576   c-2.146-12.877,26.839-11.658,29.016-14.283C662.979,791.02,667.676,792.206,672.095,791.25z" class="color392B87 svgShape"/><path fill="#ffe3bd" d="M835.193,633.622l-25.439-12.66l-2.366,37.931l-2.466,4.927l-58.905,17.13v0   c-0.008-0.003-17.393-6.618-20.222,4.762c-2.829,11.383,6.092,15.96,15.272,13.045c6.318-2.007,8.538-4.772,8.537-4.777   c1.334,0.355,57.952-2.324,69.065-7.723c4.439-2.154,9.596-8.424,14.504-15.828C843.017,655.574,835.193,633.622,835.193,633.622z" class="colorFFBDBD svgShape"/><path fill="#ebb871" d="M801.081,615.005c0,0-17.197,5.675-22.915,33.061c-2.533,12.13-5.069,46.832-5.471,63.447   c-0.058,2.417,1.62,4.531,3.987,5.023c20.222,4.202,35.183-1.62,54.052,0.278c3.553,0.357,6.655-2.377,6.726-5.947   c0.723-36.607,9.062-62.947-7.852-84.502c-7.334-9.346-18.655-11.733-18.655-11.733L801.081,615.005z" class="colorEB71B4 svgShape"/><path fill="#f9e6cb" d="M811.444,614.7c-7.02,3.815-12.073,2.932-10.363,0.306l0.502-0.945l1.203-3.597l2.426-7.252l5.328,0.642   l0.199,2.879l0.336,4.815L811.444,614.7z" class="colorF9CBCB svgShape"/><path fill="#ffe3bd" d="M811.075,611.548c-0.917,0.588-1.88,1.147-2.758,1.502c-3.402,1.374-6.066,1.022-6.735,1.011l1.203-3.597   l7.953-3.731L811.075,611.548z" class="colorFFBDBD svgShape"/><path fill="#ded2c1" d="M793.513,590.989c0,0-4.601-11.458,0.927-15.024c5.528-3.566,8.305,2.893,12.54,3.092   c4.235,0.198,10.533,1.924,10.727,5.013c0.195,3.09,6.108,11.979-1.418,17.082c-7.526,5.103-11.104,3.286-11.104,3.286   L793.513,590.989z" class="colorC1C5DE svgShape"/><path fill="#f9e6cb" d="M794.013,586.708c-0.256,0.981-5.347,21.372,5.446,24.182c10.792,2.809,14.112-9.945,14.112-9.945   s4.289-4.1,3.818-6.317c-0.47-2.218-2.908-2.928-6.314-1.023c0,0-5.298-1.12-9.968-7.32c-1.245-1.652-3.617-2.013-5.242-0.734   C795.327,585.975,794.715,586.363,794.013,586.708z" class="colorF9CBCB svgShape"/><path fill="#ded2c1" d="M793.056,598.515c0,0,0.818-0.301,2.806,0.601c1.605,0.727,3.736,1.061,5.012,0.999   c1.276-0.061,2.565-1.811,4.784-1.616c2.401,0.211,2.623-6.728,2.623-6.728l3.952,0.599c0,0-2.053,4.956-2.263,6.37   c-0.209,1.413,1.914,2.516,0.88,4.586c-1.034,2.07,0.088,3.929-1.501,5.382c-1.551,1.419-1.845,2.961-5.131,3.584   c-2.078,0.394-2.6-0.845-4.716-0.725c-2.115,0.119-5.076-1.578-5.3-3.453c-0.224-1.874-2.951-3.731-2.249-5.428   C792.657,600.99,791.874,599.142,793.056,598.515z" class="colorC1C5DE svgShape"/><path fill="#87612b" d="M695.361,754.306h142.471v-26.818H722.179C707.368,727.487,695.361,739.495,695.361,754.306   L695.361,754.306z" class="color392B87 svgShape"/><polygon fill="#654820" points="830.797 746.822 830.797 727.487 837.833 727.487 837.833 754.306 695.361 754.306 695.361 746.822" class="color2B2065 svgShape"/><path fill="#654820" d="M628.823,814.79h29.717c6.867,0,13.238-3.71,16.626-9.682l26.447-46.615h104.506v-4.9h-107.36   l-27.855,49.096c-2.52,4.442-7.258,7.201-12.365,7.201h-29.717V814.79z" class="color2B2065 svgShape"/><path fill="#ded2c1" d="M628.823 809.852h31.006l0 0c0-4.195-3.401-7.597-7.597-7.597h-15.812C632.224 802.255 628.823 805.656 628.823 809.852L628.823 809.852zM683.876 753.928c0-21.386 4.231-36.007 12.936-44.699 6.223-6.214 14.785-9.365 25.449-9.365.027 0 .055 0 .081 0l113.4.168v-48.89c0-10.032 8.161-18.192 18.192-18.192h28.655v4.899h-28.655c-7.33 0-13.293 5.963-13.293 13.293v151.037H683.876V753.928zM835.742 704.932l-113.408-.168c-.026 0-.051 0-.077 0-9.446 0-16.638 2.595-21.984 7.932-7.737 7.725-11.498 21.213-11.498 41.232v43.352h146.967V704.932z" class="colorC1C5DE svgShape"/><path fill="#ded2c1" d="M679.33,837.231l19.595-36.891v-45.188c0-25.14,3.93-39.695,24.017-39.695h114.89v-4.9h-114.89   c-26.682,0-28.917,23.019-28.917,44.595v43.968l-19.023,35.813L679.33,837.231z" class="colorC1C5DE svgShape"/><circle cx="679.973" cy="831.995" r="13.986" fill="#87612b" class="color392B87 svgShape"/><circle cx="679.973" cy="831.995" r="7.572" fill="#ffffff" class="colorFFF svgShape"/><path fill="#87612b" d="M685.864 832.289c0-3.254-2.638-5.891-5.892-5.891-3.253 0-5.891 2.637-5.891 5.891 0 3.254 2.638 5.891 5.891 5.891C683.227 838.18 685.864 835.543 685.864 832.289zM857.463 642.64h43.817c3.998 0 7.241-3.242 7.241-7.241l0 0c0-3.999-3.242-7.241-7.241-7.241h-43.817c-3.999 0-7.24 3.242-7.24 7.241l0 0C850.223 639.399 853.465 642.64 857.463 642.64zM744.778 717.564h55.103c6.265 0 11.342-5.078 11.342-11.342v-3.624c0-8.709-7.061-15.77-15.77-15.77h-49.873c-8.709 0-15.77 7.061-15.77 15.77l0 0C729.811 710.863 736.512 717.564 744.778 717.564z" class="color392B87 svgShape"/><path fill="#654820" d="M790.491,807.253l-8.084,4.213l5.093,8.821l7.807-5.171c5.487,6.724,13.469,11.328,22.522,12.398   l-0.418,9.674h10.186l-0.603-9.81c8.887-1.336,16.661-6.1,21.946-12.893l8.248,5.249l5.093-8.821l-8.725-4.346   c1.673-4.036,2.603-8.455,2.603-13.089c0-4.46-0.866-8.72-2.422-12.633l8.224-4.286l-5.093-8.821l-7.66,5.074   c-5.367-7.082-13.419-12.016-22.626-13.287l0.375-8.686h-10.186l0.533,8.669c-9.313,1.247-17.456,6.237-22.849,13.414l-7.275-4.63   l-5.093,8.821l7.854,3.913c-1.511,3.863-2.35,8.06-2.35,12.451C787.592,798.375,788.632,803.034,790.491,807.253z M790.936,781.52   l18.083,9.008c-0.213,0.943-0.334,1.922-0.334,2.93c0,1.392,0.216,2.733,0.613,3.994l-17.823,9.288   c-1.78-4.065-2.776-8.549-2.776-13.264C788.698,789.261,789.497,785.232,790.936,781.52z M809.308,789.435l-17.959-8.946   c0.919-2.152,2.064-4.182,3.396-6.072l16.865,10.734C810.598,786.412,809.808,787.859,809.308,789.435z M819.698,780.376   l-1.224-19.904c1.119-0.115,2.253-0.174,3.402-0.174c1.202,0,2.388,0.068,3.557,0.194l-0.862,19.933   c-0.839-0.167-1.707-0.258-2.596-0.258C821.197,780.168,820.439,780.248,819.698,780.376z M832.42,785.258l16.516-10.94   c1.329,1.871,2.471,3.882,3.393,6.011l-17.656,9.201C834.188,787.959,833.412,786.52,832.42,785.258z M834.364,798.24l17.757,8.846   c-0.947,2.096-2.103,4.078-3.446,5.916l-16.803-10.694C832.931,801.122,833.781,799.75,834.364,798.24z M824.6,806.487   l1.225,19.923c-1.296,0.155-2.613,0.244-3.95,0.244c-0.976,0-1.94-0.051-2.895-0.134l0.863-19.957   c0.696,0.112,1.404,0.186,2.132,0.186C822.874,806.748,823.751,806.657,824.6,806.487z M812.29,802.54l-16.743,11.09   c-1.398-1.822-2.614-3.789-3.615-5.879l17.749-9.25C810.3,800.008,811.192,801.37,812.29,802.54z M793.81,773.822   c-1.351,1.924-2.514,3.988-3.452,6.173l-6.723-3.349l3.927-6.801L793.81,773.822z M817.373,760.613l1.23,20.003   c-2.424,0.635-4.577,1.931-6.252,3.693l-16.958-10.792C800.598,766.629,808.423,761.833,817.373,760.613z M825.48,759.383   c-1.185-0.124-2.387-0.191-3.605-0.191c-1.171,0-2.329,0.06-3.47,0.175l-0.456-7.423h7.853L825.48,759.383z M848.283,773.423   l-16.591,10.99c-1.616-1.736-3.685-3.038-6.025-3.714l0.867-20.066C835.377,761.881,843.109,766.626,848.283,773.423z    M853.313,779.817c-0.943-2.162-2.105-4.206-3.453-6.11l6.639-4.398l3.927,6.801L853.313,779.817z M852.563,806.07l-17.837-8.886   c0.345-1.183,0.539-2.431,0.539-3.726c0-0.971-0.111-1.915-0.308-2.827l17.793-9.273c1.48,3.756,2.302,7.842,2.302,12.118   C855.052,797.933,854.163,802.184,852.563,806.07z M849.609,813.596c1.362-1.872,2.536-3.886,3.502-6.017l7.623,3.797l-3.926,6.801   L849.609,813.596z M826.926,826.269l-1.233-20.058c2.046-0.595,3.882-1.67,5.391-3.093l16.919,10.768   C842.909,820.392,835.45,824.961,826.926,826.269z M818.932,827.625c0.971,0.083,1.951,0.135,2.943,0.135   c1.36,0,2.699-0.089,4.018-0.243l0.527,8.563h-7.853L818.932,827.625z M796.233,814.503l16.866-11.172   c1.585,1.425,3.511,2.471,5.645,3.005l-0.867,20.067C809.19,825.355,801.524,820.943,796.233,814.503z M790.948,808.263   c1.02,2.125,2.256,4.125,3.673,5.98l-6.751,4.471l-3.927-6.801L790.948,808.263z" class="color2B2065 svgShape"/><path fill="#654820" d="M768.836,793.458c0,29.348,23.791,53.138,53.138,53.138s53.138-23.791,53.138-53.138   c0-29.348-23.791-53.138-53.138-53.138S768.836,764.11,768.836,793.458z M783.594,793.458c0-21.2,17.181-38.381,38.381-38.381   s38.381,17.181,38.381,38.381c0,21.2-17.181,38.381-38.381,38.381S783.594,814.658,783.594,793.458z" class="color2B2065 svgShape"/><path fill="#cccccc" d="M863.389,791.623c0,14.584-8.132,27.267-20.109,33.762c10.295-6.883,17.076-18.61,17.076-31.927   c0-21.2-17.181-38.381-38.381-38.381c-6.615,0-12.839,1.673-18.272,4.619c6.096-4.075,13.421-6.455,21.305-6.455   C846.208,753.242,863.389,770.424,863.389,791.623z" class="colorCCC svgShape"/><path fill="#cccccc" d="M796.076,747.061c-14.566,9.477-24.206,25.889-24.206,44.562c0,29.348,23.791,53.138,53.138,53.138   c9.406,0,18.235-2.453,25.899-6.741c-8.327,5.417-18.258,8.576-28.932,8.576c-29.348,0-53.138-23.791-53.138-53.138   C768.836,773.517,779.827,756.151,796.076,747.061z" class="colorCCC svgShape"/><path fill="#f9e6cb" d="M826.572,643.485L805.045,645l-2.584,36.254l0.153,5.508l-43.829,42.921l0,0   c-0.009,0.001-18.458,2.382-15.575,13.748c2.883,11.37,12.909,11.191,19.623,4.285c4.622-4.753,5.271-8.239,5.268-8.242   c1.344-0.317,49.983-29.421,57.228-39.428c2.895-3.996,4.48-11.958,5.308-20.802C832.298,661.499,826.572,643.485,826.572,643.485z   " class="colorF9CBCB svgShape"/><path fill="#ffe3bd" d="M826.572,643.485l-4.386,0.308c1.834,6.192,4.977,18.925,4.325,31.681   c-0.454,8.871-1.702,16.894-4.426,21.007c-6.816,10.304-54.185,41.433-55.514,41.806c0.004,0.004-0.499,3.514-4.916,8.457   c-3.722,4.166-8.652,6.117-12.793,4.829c4.238,2.159,9.758,0.476,13.972-3.859c4.622-4.753,5.271-8.239,5.268-8.242   c1.344-0.317,49.983-29.421,57.228-39.428c2.895-3.996,4.48-11.958,5.308-20.802C832.298,661.499,826.572,643.485,826.572,643.485z   " class="colorFFBDBD svgShape"/><path fill="#f3d4aa" d="M827.902,635.121c9.037,9.174,6.4,30.172,4.74,47.917c-8.951,0.636-24.169-1.995-32.04-1.428   c0,0-2.139-32.363,3.234-42.576C809.164,628.907,821.799,628.925,827.902,635.121z" class="colorF3AAD2 svgShape"/><path fill="#f9e6cb" d="M1009.017,579.006l-19.593-8.01l-18.005,30.769l-2.255,4.911l-57.18,18.735v0   c-0.008-0.003-17.269-5.915-19.666,5.334c-2.398,11.252,6.498,15.446,15.401,12.285c6.128-2.175,8.212-4.959,8.211-4.964   c1.319,0.304,56.734-4.189,67.45-9.848c4.281-2.258,9.13-8.575,13.696-15.995C1006.236,597.336,1009.017,579.006,1009.017,579.006z   " class="colorF9CBCB svgShape"/><path fill="#ffe3bd" d="M1009.017,579.006l-3.992-1.632c-1.074,6.242-3.835,18.807-9.945,29.745   c-4.25,7.606-8.828,14.121-13.01,16.557c-10.468,6.106-65.644,12.932-66.974,12.683c0.002,0.005-1.964,2.874-7.994,5.306   c-5.083,2.049-10.266,1.626-13.349-1.304c2.791,3.739,8.377,4.653,13.965,2.669c6.128-2.175,8.212-4.959,8.211-4.964   c1.319,0.304,56.734-4.189,67.45-9.848c4.281-2.258,9.13-8.575,13.696-15.995C1006.236,597.336,1009.017,579.006,1009.017,579.006z   " class="colorFFBDBD svgShape"/><path fill="#f3d4aa" d="M1013.816,572.226c3.968,11.992-10.098,30.886-19.259,45.774c-8.149-3.325-17.097-13.071-24.266-15.989   c0,0,11.499-30.136,20.658-36.787C1000.03,558.629,1011.136,564.127,1013.816,572.226z" class="colorF3AAD2 svgShape"/><path fill="#f9e6cb" d="M507.317,571.252c0,0,4.068-1.989,4.918-3.182c1.264-1.774,1.972-8.012,3.479-7.988   c3.255-0.073-0.737,6.832,2.395,6.739c3.131-0.093,8.997-11.521,12.512-9.957c3.516,1.563-0.245,14.456-8.964,17.541   c-4.93,1.744-7.302,4.436-7.302,4.436L507.317,571.252z" class="colorF9CBCB svgShape"/><path fill="#c2975b" d="M421.562,562.661l19.682,42.836c0,0,32.018,3.769,39.341,1.498c10.303-3.197,36.634-28.964,36.634-28.964   c-4.005-4.778-7.775-9.007-7.775-9.007l-31.296,12.407c-4.499-0.064-12.349-3.049-22.143-6.534   C443.635,570.498,428.01,563.169,421.562,562.661z" class="color6E5BC2 svgShape"/><path fill="#b38a51" d="M515.011,575.421c-4.646,4.475-26.558,25.251-35.744,28.102c-7.323,2.272-39.341-1.498-39.341-1.498   l-18.073-39.333c-0.097-0.01-0.198-0.024-0.291-0.031l19.682,42.836c0,0,32.018,3.769,39.341,1.497   c10.303-3.197,36.634-28.963,36.634-28.963C516.467,577.134,515.724,576.256,515.011,575.421z" class="color6251B3 svgShape"/><polygon fill="#87612b" points="438.389 644.71 437.331 644.816 399.244 644.184 434.376 835.419 448.205 835.419" class="color392B87 svgShape"/><polygon fill="#694b21" points="406.132 644.298 416.13 683.063 416.894 715.558 441.244 835.419 434.376 835.419 399.243 644.184" class="color2C2169 svgShape"/><polygon fill="#e0a14a" points="438.06 644.743 438.389 644.71 438.391 644.748" class="color524AE0 svgShape"/><polygon fill="#966b30" points="383.928 644.569 382.87 644.455 383.81 835.419 396.637 835.281 422.345 644.242" class="color3F3096 svgShape"/><path fill="#ffffff" d="M416.475,561.627c0,0,22.229,2.175,22.81,26.354c0.285,11.835,1.587,50.747,1.488,66.623   c-0.014,2.31-1.678,4.279-3.953,4.68c-19.431,3.425-33.548-2.57-51.62-1.306c-3.402,0.238-6.286-2.463-6.25-5.874   c0.374-34.975,1.421-48.124,18.199-68.214c7.275-8.711,9.91-22.907,9.91-22.907L416.475,561.627z" class="colorFFF svgShape"/><path fill="#5e4625" d="M448.204 835.419c5.809 3.065 17.755 2.247 16.006 10.054h-30.953c-.221-3.549-.641-6.934 1.118-10.054H448.204zM396.637 835.281c5.809 3.065 18.266 2.384 16.517 10.191l-30.926-.171c.143-3.867-.083-6.453 1.582-10.02H396.637z" class="color28255E svgShape"/><path fill="#c29a63" d="M407.06 560.983c0 0-23.215 3.29-27.893 32.575-4.677 29.284 2.9 42.829-.646 90.031 1.133 2.936 13.936.75 24.845.311 6.319-.254 11.214-5.627 10.956-11.947C412.587 629.411 410.915 585.573 407.06 560.983zM417.02 561.663c10.3 41.585-.807 69.183 2.948 115.614.169 2.101 1.399 4 3.286 4.94 7.642 3.806 14.357 1.072 23.576.914 1.35-.023 2.429-1.122 2.384-2.472-.531-16.056-4.011-104.441-16.602-112.899C423.949 561.94 417.02 561.663 417.02 561.663z" class="color7463C2 svgShape"/><path fill="#f7960d" d="M415.263,550.671c-4.039,1.722-5.509,3.981-11.095,2.123c-8.499-2.827-16.81-16.169-6.686-23.643   c0.515-2.302,1.176-3.245,3.954-4.158c2.776-0.911,5.818,0.024,9.727-0.449c3.91-0.474,9.031-5.08,13.036,0.262   c4.005,5.341-4.003,10.647-7.955,13.891C412.291,541.942,414.17,546.637,415.263,550.671z" class="color272549 svgShape"/><path fill="#f9e6cb" d="M414.96,545.018l0.487,3.091l1.313,8.288l0.199,1.263c1.302,6.519-8.885,6.001-10.26,2.234l0.118-6.806   l0.088-4.987l0.029-1.75l0.051-2.971L414.96,545.018z" class="colorF9CBCB svgShape"/><path fill="#ffbf66" d="M415.447,548.108l1.313,8.288c-2.524,0.049-6.434-0.248-8.858-2.344c-0.377-0.322-0.736-0.642-1.084-0.965   l0.088-4.987l0.029-1.75L415.447,548.108z" class="colorF0B4B4 svgShape"/><path fill="#f9e6cb" d="M420.951,530.357c2.454,5.156,5.541,16.796,1.456,21.667c-2.586,3.083-12.266,1.968-15.489-3.773   c-2.705-1.562-5.581-6.393-3.472-8.649c1.505-1.608,4.009,1.97,6.827,1.043c1.07-0.351-3.049-7.313,0.235-8.933   C413.792,530.092,417.689,532.461,420.951,530.357z" class="colorF9CBCB svgShape"/><path fill="#ebbc7a" d="M503.635,529.784v116.73c-13.965,0.002-26.617-5.645-35.791-14.783   c-14.54-14.487-14.912-32.45-14.92-35.828c2.565-4.82,5.869-12.549,6.862-22.521c1.664-16.668-4.131-29.517-6.968-34.913   c7.641-1.701,17.038-5.931,26.632-12.227l24.127,3.552L503.635,529.784z" class="colorEB7AB8 svgShape"/><path fill="#ebb871" d="M554.339,595.716c0.005,3.376-0.298,21.341-14.785,35.881c-9.159,9.191-21.826,14.891-35.828,14.917h-0.09   v-116.73l23.917-3.632c9.617,6.259,19.03,10.455,26.678,12.128c-2.817,5.405-8.563,18.277-6.839,34.941   C548.423,583.188,551.755,590.903,554.339,595.716z" class="colorEB71B4 svgShape"/><path fill="#ebb467" d="M503.635,534.583v106.023c-11.936,0-23.161-4.635-31.62-13.062c-11.126-11.084-12.914-24.661-13.15-30.264   c3.706-7.366,5.994-15.199,6.803-23.312c1.271-12.733-1.343-23.618-4.617-31.757c6.361-2.248,13.279-5.695,20.148-10.064   L503.635,534.583z" class="colorEB67B0 svgShape"/><path fill="#e0ab62" d="M548.403,597.114c-0.215,5.605-1.955,19.189-13.037,30.31c-8.445,8.477-19.686,13.159-31.65,13.182h-0.081   V534.583l22.191-2.518c6.885,4.342,13.817,7.764,20.185,9.989c-3.244,8.151-5.815,19.046-4.499,31.775   C542.351,581.936,544.668,589.761,548.403,597.114z" class="colorE062A8 svgShape"/><path fill="#ffffff" d="M503.629,537.858v99.67c-11.138,0-21.616-4.326-29.51-12.188c-10.031-9.992-11.919-22.222-12.239-27.632   c3.629-7.384,5.876-15.232,6.685-23.339c1.022-10.236-0.263-20.382-3.816-30.194c5.601-2.194,11.56-5.243,17.412-8.918   l21.408,2.608L503.629,537.858z" class="colorFFF svgShape"/><path fill="#fff7eb" d="M545.38,597.536c-0.298,5.411-2.143,17.649-12.132,27.677c-7.885,7.908-18.375,12.278-29.539,12.301h-0.073   v-39.601l0.147,0.09l27.734-28.56l-11.822-9.432l-16.058,24.488v-46.659l21.232-2.677c5.867,3.65,11.834,6.676,17.447,8.847   c-3.516,9.832-4.764,19.977-3.707,30.214C539.446,582.323,541.724,590.163,545.38,597.536z" class="colorFFEBF6 svgShape"/><polygon fill="#ebb871" points="531.516 569.443 503.783 598.003 503.636 597.912 503.636 584.499 519.694 560.011" class="colorEB71B4 svgShape"/><polygon fill="#ebbc7a" points="503.636 584.499 503.636 597.912 483.49 585.432 491.707 573.661 503.63 584.51" class="colorEB7AB8 svgShape"/><path fill="#f9e6cb" d="M477.03,639.749l5.69,1.387c0,0,7.176-4.071,8.194-2.96c2.289,2.314-5.469,4.159-3.251,6.37   c2.219,2.212,14.552-1.378,15.832,2.251c1.28,3.629-12.468,9.477-19.224,6.277c-4.726-2.238-8.761-2.91-8.761-2.91L477.03,639.749z   " class="colorF9CBCB svgShape"/><path fill="#c29a63" d="M381.409,588.639c2.429-7.945,13.12-13.547,22.11-7.328c9.066,6.273,22.37,36.804,22.37,36.804   l55.671,22.662l-2.912,12.928c-2.187,0.264-58.611-3.457-69.022-8.781C398.918,639.45,377.814,600.404,381.409,588.639z" class="color7463C2 svgShape"/><path fill="#b38b54" d="M381.409,588.639c0.893-2.922,2.906-5.523,5.538-7.34c-1.432,1.617-2.486,3.518-3.009,5.545   c-3.073,11.912,19.737,49.987,30.676,54.984c9.125,4.168,52.027,5.661,65.409,5.773l-1.375,6.104   c-2.187,0.264-58.611-3.457-69.022-8.781C398.918,639.45,377.814,600.404,381.409,588.639z" class="color6554B3 svgShape"/></svg>