<svg xmlns="http://www.w3.org/2000/svg" enable-background="new 0 0 450 450" viewBox="0 0 450 450"><path fill="#ffa30f" d="M362.87 301.057c-8.917 7.911-19.916 13.364-31.525 15.994-10.045 2.262-20.128-.247-29.878 1.562-11.7 2.176-23.06 5.455-34.97 6.948-24.09 3.02-48.848 2.532-72.437-3.57a139.835 139.835 0 01-17.005-5.528c-30.032-11.916-56.288-34.224-68.486-63.955-5.236-12.771-7.67-27.775-1.46-40.094 5.66-11.23 17.692-18.646 21.793-30.53 5.686-16.462-5.902-34.685-1.964-51.635 2.262-9.754 9.555-17.8 18.232-22.752 8.686-4.968 18.673-7.164 28.605-8.372 33.397-4.06 67.681 2.554 98.247 16.603 30.574 14.04 57.52 35.308 80.133 60.213 17.234 18.965 32.624 41.56 34.412 67.112 1.513 21.59-7.51 43.663-23.698 58.004zM48.044 160.025c3.22-12.049 9.465-23.6 19.285-31.285 9.82-7.686 23.506-10.953 35.182-6.589 11.685 4.364 20.199 17.142 17.931 29.402-1.638 8.826-8.019 15.856-13.357 23.07-3.52 4.753-6.81 10.178-7.85 16.083-.883 5.086 1.572 9.024-1.102 13.595-4.8 8.192-15.531 12.428-24.7 10.978-11.302-1.785-20.636-10.82-24.755-21.498-4.12-10.676-3.586-22.694-.634-33.756z" opacity=".5" class="coloredf3ff svgShape"/><ellipse cx="216.556" cy="367.096" fill="#ffa30f" rx="175" ry="15.906" class="coloredf3ff svgShape"/><path fill="#ffe7c5" d="M100.711 351.153s.252 2.717.51 5.744c.319 3.8.643 8.096.485 8.172-.287.136-8.742-.046-10.46-1.328-.602-.452-.99-2.18-1.233-4.232-.345-2.836-.418-6.292-.438-7.855-.003-.531-.001-.844-.001-.844l2.383.072 8.754.271z" class="colorffc5c5 svgShape"/><path fill="#ffbf66" d="M100.711 351.153s.252 2.717.51 5.744c-4.044-1.658-8.672-.264-11.208 2.612-.345-2.836-.418-6.292-.438-7.855.708-.23 1.53-.5 2.382-.772l8.754.271z" class="colorfcafaf svgShape"/><path fill="#faebd5" d="M118.035 373.297c-.62.086-26.46-.773-27.509-1.173-1.052-.4-.848-2.259-.848-2.259l28.585 1.233s.388 2.114-.228 2.2z" class="colord5e1fa svgShape"/><path fill="#383838" d="M118.262 371.1c-.438.405-28.583-1.235-28.583-1.235-2.101-3.004-.292-7.814.32-8.956.1-.188.167-.276.182-.245 1.253 2.782 9.278 4.29 9.467 3.42.185-.869 1-4.117 2.004-3.769 1.003.35 10.279 6.32 13.35 7.539 1.445.57 2.348 1.234 2.853 1.817.572.658.638 1.215.407 1.429z" class="color383838 svgShape"/><path fill="#2b2b2b" d="M118.262 371.1c-.438.405-28.583-1.235-28.583-1.235-2.101-3.004-.292-7.814.32-8.956-.162 1.93.802 3.87 2.307 5.229 1.585 1.431 3.71 2.27 5.876 2.7 2.168.43 4.397.484 6.614.534 4.352.102 8.704.2 13.059.299.572.658.638 1.215.407 1.429z" class="color2b2b2b svgShape"/><path fill="#ffe7c5" d="M150.61 351.153s.252 2.717.51 5.744c.319 3.8.644 8.096.485 8.172-.287.136-8.742-.046-10.459-1.328-.603-.452-.991-2.18-1.234-4.232-.344-2.836-.418-6.292-.438-7.855-.003-.531-.001-.844-.001-.844l2.384.072 8.754.271z" class="colorffc5c5 svgShape"/><path fill="#ffbf66" d="M150.61 351.153s.252 2.717.51 5.744c-4.044-1.658-8.671-.264-11.208 2.612-.344-2.836-.418-6.292-.438-7.855.708-.23 1.53-.5 2.383-.772l8.754.271z" class="colorfcafaf svgShape"/><path fill="#faebd5" d="M167.934 373.297c-.62.086-26.46-.773-27.508-1.173-1.053-.4-.849-2.259-.849-2.259l28.586 1.233s.388 2.114-.229 2.2z" class="colord5e1fa svgShape"/><path fill="#383838" d="M168.162 371.1c-.438.405-28.584-1.235-28.584-1.235-2.101-3.004-.292-7.814.32-8.956.1-.188.167-.276.182-.245 1.253 2.782 9.278 4.29 9.467 3.42.186-.869 1-4.117 2.004-3.769 1.004.35 10.28 6.32 13.35 7.539 1.445.57 2.348 1.234 2.853 1.817.572.658.639 1.215.408 1.429z" class="color383838 svgShape"/><path fill="#2b2b2b" d="M168.162 371.1c-.438.405-28.584-1.235-28.584-1.235-2.101-3.004-.292-7.814.32-8.956-.162 1.93.802 3.87 2.308 5.229 1.584 1.431 3.71 2.27 5.875 2.7 2.169.43 4.398.484 6.615.534 4.351.102 8.703.2 13.058.299.572.658.639 1.215.408 1.429z" class="color2b2b2b svgShape"/><path fill="#383838" d="M153.21 352.571c.07 1.47-14 2.14-14.07.67 0 0-11.25-37.01-11.73-63.26-.01-1.17-.25-2.32-.65-3.41l-20.53-44.49 1.99 50.49c0 .81.1 1.61.27 2.4.59 13.96-4.36 57.44-4.36 57.44.27 3.17-16.13 4.42-16.4 1.25l-2.04-60.33-.23-1.28v-.01c-1.74-15.8-8.32-34.42-10.56-57-.42-4.21-.68-8.57-.74-13.07v-1.31c-.01-.07-.01-.13-.01-.2-.01-.47-.01-.95-.02-1.43-.01-.92-.01-1.84-.02-2.77-.01-.39-.01-.79-.02-1.18l.07.01c-.01-.34-.01-.69 0-1.05.02-.43.05-.88.1-1.34.54-5.87 3.09-14.57 4.61-19.37.68-2.15 1.15-3.52 1.15-3.52l3.48.73 46.99 9.86s.49 4.67.28 10.07v.01c.38 1.26 1 3.39 1.82 6.16.13.45.27.93.41 1.42.43 1.44.87 3.01 1.32 4.69 4.92 18.19 11.37 48.82 14.74 62.45.09.66.19 1.32.29 1.99l3.86 65.38z" class="color383838 svgShape"/><path fill="#2b2b2b" d="M134.32 222.751c-4.43-.78-8.87-1.46-13.36-1.77-12.57-.88-25.51 1.3-36.56 7.37a53.187 53.187 0 0 0-9.5 6.69c-.42-4.21-.68-8.57-.74-13.07v-1.31c-.01-.07-.01-.13-.01-.2-.01-.47-.01-.95-.02-1.43-.01-.92-.01-1.84-.02-2.77-.01-.39-.01-.79-.02-1.18l.07.01c-.01-.34-.01-.69 0-1.05.02-.43.05-.88.1-1.34.54-5.87 3.09-14.57 4.61-19.37.47-.3.95-.6 1.43-.89 1.06-.65 2.12-1.28 3.2-1.9l46.99 9.86s.49 4.67.28 10.07v.01c.38 1.26 1 3.39 1.82 6.16.13.45.27.93.41 1.42.43 1.44.87 3.01 1.32 4.69z" class="color2b2b2b svgShape"/><path fill="#7b6039" d="M79.042 363.64c.872 0 1.578-.706 1.578-1.577V239.569c0-5.845-4.755-10.6-10.6-10.6h-2.646c-5.846 0-10.6 4.755-10.6 10.6a1.578 1.578 0 0 0 3.156 0c0-4.104 3.34-7.443 7.444-7.443h2.646c4.104 0 7.444 3.34 7.444 7.443v122.494c0 .871.706 1.578 1.578 1.578z" class="color7b393b svgShape"/><path fill="#fbdfb8" d="M61.274 218.477c.08.644.036 1.332-.1 1.969-.314 1.463-.525 2.924-.46 4.424.056 1.265.06 2.532.117 3.796.031.682 1.014 4.461 1.277 5.092-.072 1.946 11.248 2.37 11.32.423.4-1.372.644-3.156.72-4.548.024-.43-.084-.867-.153-1.496.317.19.603.266.717.449.383.618.694 1.28 1.054 1.914.673 1.184 1.425 2.315 2.734 2.877a4.528 4.528 0 0 0 1.565.35c.71.03 1.072-.655.597-1.18-.72-.794-1.194-1.712-1.723-2.623-.767-1.32-1.749-2.522-2.041-4.078-.011-.06-.022-.125-.054-.174a692.62 692.62 0 0 0-2.065-3.148c-.133-.201-.288-.387-.428-.583-.714-.996-1.437-1.985-2.135-2.991-.365-.527-.794-1.046-1.006-1.636-.554-1.546-.999-3.131-1.497-4.698-.53-1.663-1.088-3.318-1.596-4.989-.15-.493-.375-.573-.844-.452-2.342.605-4.693 1.18-7.04 1.77-.624.158-1.243.336-1.948.527.287.724.527 1.412.828 2.071 1.015 2.221 1.857 4.499 2.161 6.934z" class="colorfbc6b8 svgShape"/><path fill="#ffc26e" d="M73.872 214.523a.07.07 0 0 1 .04-.016c-.01.009-.02.008-.03.017h-.01z" class="color6ed9ff svgShape"/><path fill="#ffe7c5" d="M224.982 206.356c.253-.378.923-.517 1.421-.713.366-.142.759-.208 1.147-.311.47-.11.769-.359.867-.855.097-.488.338-.77.915-.805 1.23-.059 2.132-.758 2.93-1.631.135-.153.385-.22.59-.292.72-.248.882-.826.354-1.384-.684-.739-1.573-.913-2.525-.873-.17.005-.357.071-.502.017-1.127-.419-2.265-.813-3.355-1.308-.481-.221-.84-.704-1.271-1.036-.96-.746-1.924-1.457-2.895-2.187-1.085-.816-2.17-1.64-3.337-2.512.294-.133.572-.285.871-.39.871-.319 1.763-.305 2.69-.223 1.113.104 1.937-.55 2.588-1.389.17-.22.26-.646.164-.881-.075-.18-.503-.26-.782-.313-.534-.086-1.134 0-1.608-.212-1.615-.722-3.197.07-4.789.012-1.68-.07-3.186.616-4.736 1.072-.918.268-1.812.629-2.696.982-.837.332-1.668.477-2.568.381l-.052-.007c-1.782-.18-3.591-.212-5.36-.489-2.034-.31-4.033-.821-6.2-1.273-1.776 3.313-3.623 6.76-5.505 10.283.683.032 1.294.074 1.909.089 3.082.067 6.162.081 9.243.229 1.927.091 3.742.713 5.426 1.667.05.025.091.057.142.08 1.18.695 2.291 1.523 3.52 2.124 1.101.542 2.302.863 3.477 1.252 1.158.379 2.318.74 3.48 1.083 1.172.345 2.33.723 3.515.962.993.197 2.234-.075 2.932-1.149z" class="colorffc5c5 svgShape"/><path fill="#ffbf66" d="M207.916 202.004a15.383 15.383 0 0 1 .487-10.506c-1.782-.18-3.591-.212-5.36-.489-2.034-.31-4.033-.821-6.2-1.273-1.776 3.313-3.623 6.76-5.505 10.283.683.032 1.294.074 1.909.089 3.082.067 6.162.081 9.243.229 1.927.091 3.742.713 5.426 1.667z" class="colorfcafaf svgShape"/><path fill="#f2a840" d="m202.424 187.831-5.82 14.04-41.69-11.33-22.49-24.38c-.39 10.66-.76 18.89-.76 18.89s.06 1.54.11 3.84c.02 1.2.05 2.6.08 4.1 0 .93.02 1.89.02 2.86.01 5.95-.17 12.35-1.02 13.43-1.67 2.09-32.72 10.32-53.72-4.44 0 0 .72-35.51.12-37.19-.25-.7-.62-2.16-1.04-3.57-.58-1.95-1.24-3.8-1.8-3.32-.03.02-.06.05-.09.09-1.1 1.16-4.92 8.47-5.32 11.6-.06.48.06 1.71.34 3.46.73 4.86 2.26 13.92 3.5 22.02 1.3 8.55 2.28 16.01 1.66 16.3-.41.2-.55.27-.58.3.01 0 .03 0 .05-.01-.63.28-1.65.57-2.87.85-4.2.97-10.73 1.77-11.5.75-1.06-1.42-7.05-44.61-7.74-46.12-.21-11.14 7.86-28.21 15.05-38.64 2.81-4.05 6.73-7.17 11.29-9.03 10.17-4.16 32.05-12.27 49.64 1.36 0 0 2.8 1.34 5.44 4.58v.01l28.93 42.66 40.21 16.89z" class="color4052f2 svgShape"/><path fill="#e29529" d="M131.764 195.847c.008 5.95-.174 12.355-1.025 13.435-1.662 2.088-32.715 10.322-53.714-4.444 0 0 .718-35.505.119-37.183-.252-.701-.623-2.167-1.04-3.57l.354-3.553c2.766 3.522 5.532 7.044 8.297 10.558 5.752 7.336 11.74 14.86 19.92 19.329 7.95 4.341 17.641 5.373 26.324 2.805.245-.071.497-.15.741-.229.008.922.024 1.883.024 2.852z" class="color2943e2 svgShape"/><path fill="#ffe7c5" d="M114.928 112.458s-.11 1.69-.33 4.01c-.47 5.08-1.3 7.55-1.62 9.03-1.03 4.7-15.47 5.31-13.9-9.44 1.98-7.81 2.27-9.13 2.27-9.24-.02.02-.05.11-.05.11-.23.11-7.2-11.76-3.04-19.52 3.93-7.32 25.58-13.99 28.61-7.63l-.12.41c.01.04.05.46.11 1.18.06.75.14 1.83.19 3.14.4 9.24-.07 29.89-12.12 27.95z" class="colorffc5c5 svgShape"/><path fill="#ffbf66" d="M127.048 84.508c-2.53.85-5.29 1-7.9.42-1.02-.23-2.01-.56-3.04-.72-1.03-.15-2.13-.12-3.05.36-.91.47-1.55 1.31-2.24 2.06-1.36 1.48-2.99 2.69-4.37 4.14-1.39 1.46-2.55 3.26-2.67 5.26-.41-2.44-.05-5 1.01-7.23 1.47-3.09 4.23-5.47 7.38-6.81 3.14-1.34 6.65-1.7 10.06-1.4 1.56.14 3.11.41 4.63.78.06.75.14 1.83.19 3.14z" class="colorfcafaf svgShape"/><path fill="#383838" d="M117.622 100.419c.347.065.736.09 1.118.016a.704.704 0 0 0 .459-.329c.755-1.15.063-5.747.054-5.79a.334.334 0 0 0-.652.144c.187.928.526 4.996.003 5.323-.87.165-1.861-.36-1.87-.365a.334.334 0 1 0-.317.589c.032.017.544.287 1.205.412z" class="color383838 svgShape"/><path fill="#ffbf66" d="M120.396 103.567c-.32 1.802-1.797 3.119-3.489 3.002-1.691-.116-2.973-1.624-3.043-3.452l6.532.45z" class="colorfcafaf svgShape"/><path fill="#383838" d="M112.33 93.067c.103.56.493.964.871.894.387-.071.606-.588.503-1.147-.104-.568-.492-.964-.879-.893-.378.07-.6.578-.495 1.146zM123.077 93.052c-.032.568.25 1.053.635 1.075.393.022.728-.428.76-.996.033-.576-.25-1.053-.643-1.075-.384-.022-.719.42-.752.996z" class="color383838 svgShape"/><path fill="#ffbf66" d="M114.598 116.463c-5.045-3.118-5.426-7.848-5.426-7.848 2.264 2.4 5.76 3.848 5.76 3.848s-.113 1.681-.334 4z" class="colorfcafaf svgShape"/><path fill="#fff2e1" d="M101.13 108.139c.122.249-10.455-12.15-6.95-24.207 0 0 .406-1.324 1.197-2.572 1.129-1.78 1.901-3.737 2.402-5.784.406-1.66 1.717-3.513 5.179-4.696 7.539-2.577 22.745-3.205 26.208 3.282 3.852 7.215.838 10.537-11.365 9.773-.764.018-1.67-.11-2.6-.314-2.596-.57-5.094.873-6.36 3.21-.12.221-.262.417-.43.578-1.504 1.45-3.438 1.394-3.858 3.584-.42 2.19-.842 4.884-.842 4.884s-.922-6.77-3.718-5.848c-2.796.92-5.103 5.38.372 8.415.487-.24 1.657 5.625.764 9.695zM75.667 211.022a1.426 1.426 0 0 0-1.528-1.372c-4.106.324-16.123.966-16.601 2.482-.084.239-.09.586-.055.987.1 1.244.593 3.068.617 4.137.006.494.683.732 1.178.66 2.825-.371 12.167-1.616 15.222-2.25.563-.112.911-.2.966-.265.285-.317.256-2.748.2-4.379z" class="colore1ebff svgShape"/><path fill="#faebd5" d="M75.667 211.022a1.426 1.426 0 0 0-1.528-1.372c-4.106.324-16.123.966-16.601 2.482-.084.239-.09.586-.055.987a30.466 30.466 0 0 1 13.25.793c1.344.381 2.685.883 3.767 1.754.563-.112.911-.2.966-.265.285-.317.256-2.748.2-4.379z" class="colord5e1fa svgShape"/><path fill="#ffffff" d="M114.991 89.696c-.112.18-.625-.05-1.626-.159a3.722 3.722 0 0 0-2.46.415c-.91.43-1.319.815-1.487.68-.142-.09.015-.758 1.054-1.462a4.621 4.621 0 0 1 3.045-.513c1.213.324 1.58.903 1.474 1.039zM125.821 89.017c-.111.175-.549.015-1.36-.057a3.01 3.01 0 0 0-1.991.336c-.743.334-1.104.628-1.27.497-.144-.095-.035-.672.838-1.28a3.91 3.91 0 0 1 2.574-.434c1.024.288 1.317.798 1.21.938z" class="colorfff svgShape"/><path fill="#fff2e1" d="M202.523 185.768a1.426 1.426 0 0 0-1.921.727c-1.599 3.796-6.549 14.765-5.422 15.886.174.184.48.348.852.503 1.151.481 2.998.882 3.958 1.352.441.222.964-.271 1.127-.744.968-2.679 4.154-11.549 4.994-14.554.16-.551.241-.901.208-.98-.15-.398-2.323-1.49-3.796-2.19z" class="colore1ebff svgShape"/><path fill="#faebd5" d="M202.523 185.768a1.426 1.426 0 0 0-1.921.727c-1.599 3.796-6.549 14.765-5.422 15.886.174.184.48.348.852.503a30.466 30.466 0 0 1 6.79-11.406c.957-1.018 2.018-1.98 3.29-2.54.158-.551.24-.901.207-.98-.15-.398-2.323-1.49-3.796-2.19z" class="colord5e1fa svgShape"/><path fill="#59401d" d="M79.171 368.94a3.224 3.224 0 0 1-3.223-3.224v-8.207a3.224 3.224 0 1 1 6.448 0v8.207a3.224 3.224 0 0 1-3.225 3.224z" class="color591d1d svgShape"/><path fill="#ffe7c5" d="M254.878 145.122c.941-.205 1.739.143 2.474.693.13.097.244.249.388.285 1.117.286 2.231.6 3.365.796.5.087 1.043-.099 1.569-.127 1.157-.061 2.316-.101 3.474-.15l4.008-.166c-.16-.265-.3-.534-.475-.778-.52-.726-1.23-1.202-2.003-1.64-.937-.532-1.236-1.494-1.288-2.51-.014-.267.142-.654.348-.786.162-.103.539.064.788.18.472.218.897.617 1.385.708 1.672.311 2.489 1.797 3.782 2.615 1.362.861 2.178 2.227 3.16 3.435.578.71 1.085 1.482 1.595 2.246.476.712 1.06 1.282 1.818 1.7 1.524.84 2.985 1.802 4.547 2.558.34.165.686.319 1.032.473a477.663 477.663 0 0 1-1.357 10 175.153 175.153 0 0 0-4.326-2.8c-1.618-1.005-3.447-1.504-5.35-1.653-1.312-.102-2.642-.046-3.937-.24-1.164-.175-2.296-.579-3.433-.91-1.12-.328-2.235-.679-3.344-1.043-1.108-.364-2.234-.696-3.301-1.159-.89-.385-1.724-1.277-1.69-2.505.011-.438-.444-.906-.73-1.331-.211-.316-.489-.589-.743-.875-.302-.342-.408-.706-.217-1.15.19-.437.16-.792-.285-1.133-.934-.716-1.268-1.762-1.423-2.888-.027-.195-.183-.382-.307-.552-.432-.591-.244-1.136.476-1.293zM353.64 347.324s.026 3.225.08 6.817c.076 4.509.2 9.606.389 9.695.34.16 9.898-.105 11.696-1.635.63-.54.872-2.59.912-5.027.065-3.365-.248-7.465-.405-9.32-.057-.63-.095-1-.095-1l-2.692.099-9.886.371z" class="colorffc5c5 svgShape"/><path fill="#ffbf66" d="M353.64 347.324s.026 3.225.08 6.817c4.392-1.991 9.794-.363 12.997 3.033.065-3.365-.248-7.465-.405-9.32-.828-.269-1.79-.583-2.787-.901l-9.886.371z" class="colorfcafaf svgShape"/><path fill="#faebd5" d="M333.012 374.096c.752.103 32.052-.938 33.322-1.422 1.275-.484 1.028-2.736 1.028-2.736l-34.626 1.494s-.47 2.56.276 2.664z" class="colord5e1fa svgShape"/><path fill="#383838" d="M332.737 371.433c.53.491 34.624-1.495 34.624-1.495 2.545-3.64.353-9.465-.387-10.849-.122-.228-.203-.334-.221-.296-1.518 3.37-11.24 5.196-11.468 4.143-.224-1.053-1.212-4.988-2.427-4.566-1.216.423-12.452 7.656-16.172 9.131-1.75.692-2.844 1.496-3.456 2.202-.692.797-.773 1.471-.493 1.73z" class="color383838 svgShape"/><path fill="#2b2b2b" d="M332.737 371.433c.53.491 34.624-1.495 34.624-1.495 2.545-3.64.353-9.465-.387-10.849.195 2.338-.973 4.688-2.796 6.334-1.92 1.734-4.494 2.75-7.117 3.271-2.627.521-5.327.586-8.012.647-5.272.123-10.543.242-15.819.362-.692.797-.773 1.471-.493 1.73z" class="color2b2b2b svgShape"/><path fill="#ffe7c5" d="M309.634 347.324s.027 3.225.081 6.817c.076 4.509.2 9.606.389 9.695.34.16 9.898-.105 11.696-1.635.631-.54.873-2.59.912-5.027.065-3.365-.248-7.465-.404-9.32-.058-.63-.096-1-.096-1l-2.692.099-9.886.371z" class="colorffc5c5 svgShape"/><path fill="#ffbf66" d="M309.634 347.324s.027 3.225.081 6.817c4.392-1.991 9.794-.363 12.997 3.033.065-3.365-.248-7.465-.404-9.32-.829-.269-1.79-.583-2.788-.901l-9.886.371z" class="colorfcafaf svgShape"/><path fill="#faebd5" d="M289.007 374.096c.752.103 32.052-.938 33.322-1.422 1.275-.484 1.028-2.736 1.028-2.736l-34.626 1.494s-.47 2.56.276 2.664z" class="colord5e1fa svgShape"/><path fill="#383838" d="M288.732 371.433c.53.491 34.624-1.495 34.624-1.495 2.545-3.64.354-9.465-.387-10.849-.121-.228-.203-.334-.22-.296-1.519 3.37-11.24 5.196-11.469 4.143-.224-1.053-1.212-4.988-2.427-4.566-1.216.423-12.451 7.656-16.172 9.131-1.75.692-2.844 1.496-3.455 2.202-.693.797-.774 1.471-.494 1.73z" class="color383838 svgShape"/><path fill="#2b2b2b" d="M288.732 371.433c.53.491 34.624-1.495 34.624-1.495 2.545-3.64.354-9.465-.387-10.849.195 2.338-.972 4.688-2.796 6.334-1.92 1.734-4.494 2.75-7.117 3.271-2.627.521-5.327.586-8.012.647-5.272.123-10.543.242-15.818.362-.693.797-.774 1.471-.494 1.73z" class="color2b2b2b svgShape"/><path fill="#383838" d="M309.9 351.471s5.986 1.703 9.862 1.178h.01c.398-.064.77-.136 1.113-.245.652-.2 1.196-.498 1.567-.933.253-.299.543-1.186.851-2.544 2.753-11.864 7.444-70.547 9.4-76.985 1.658-5.488 4.23-19.362 5.343-25.593.01-.009.01-.017.01-.036l.543-3.088s4.971 55.378 5.28 62.269c.307 6.883 5.596 44.23 9.617 47.254 2.535 1.91 7.408 1.413 10.668.788 1.929-.371 3.305-.788 3.305-.788s.308-50.37 0-87.698c-.244-30.8 3.26-42.88-.516-57.569a53.357 53.357 0 0 0-1.558-5.008 65.589 65.589 0 0 0-1.956-4.899l-46.556-1.612-3.433-.117c.073.199.037 1.05-.1 2.408-.398 4.275-1.675 13.593-3.024 23.392-1.92 13.91-4.012 28.798-4.012 31.623 0 5.461-6.493 84.14 3.586 98.203z" class="color383838 svgShape"/><path fill="#2b2b2b" d="M319.876 352.649c.398-.064.77-.136 1.114-.245 1.622-.43 1.917-1.696 2.418-3.477 2.753-11.864 7.444-70.547 9.4-76.985 1.657-5.488 4.229-19.362 5.343-25.593.009-.009.009-.017.009-.036.28-4.165.525-8.35.733-12.524-10.514 27.322-16.146 67.385-16.545 96.663-.108 7.463.045 15.287-2.472 22.197z" class="color2b2b2b svgShape"/><path fill="#23211f" d="M312.381 352.403a.34.34 0 0 1-.333-.274c-6.34-31.67 4.308-144.836 4.764-149.638.018-.187.155-.359.372-.331.187.017.326.157.309.344l-.005.05c-.456 4.798-11.095 117.87-4.774 149.443a.34.34 0 0 1-.333.406z" class="color1f2123 svgShape"/><path fill="#2b2b2b" d="M349.344 204.158c4.926 6.873 5.723 15.784 6.357 24.216 2.853 38.098 5.715 87.063 8.567 125.162 1.93-.371 3.306-.788 3.306-.788s.308-50.37 0-87.698c-.245-30.8 3.26-42.88-.516-57.569a53.357 53.357 0 0 0-1.558-5.008l-16.156 1.685z" class="color2b2b2b svgShape"/><path fill="#23211f" d="M361.46 354.287a.34.34 0 0 1-.316-.464c5.87-14.992-3.82-144.904-3.919-146.215a.34.34 0 0 1 .314-.364c.212.004.35.128.364.313.402 5.358 9.799 131.377 3.874 146.514a.34.34 0 0 1-.316.216z" class="color1f2123 svgShape"/><path fill="#ffc26e" d="M369.402 213.668a.071.071 0 0 0-.04-.016c.01.009.02.008.03.017h.01z" class="color6ed9ff svgShape"/><path fill="#f7960d" d="M257.468 160.474c1.956 1.927 35.268 32.632 42.287 30.853 4.612-1.16 8.112-3.962 9.98-5.762.983-.944 1.514-1.612 1.514-1.612s-.059 1.553-.108 3.874c-.04 1.946-.098 4.434-.108 7.01-.01 5.997.177 12.457 1.042 13.548 1.672 2.105 32.977 10.413 54.145-4.483 0 0-.727-35.789-.118-37.49.61-1.69 1.898-7.777 2.862-6.951.029.02.068.05.098.089 1.11 1.17 20.854 16.271 21.257 19.438l-18.14 15.898 8.603 13.047c14.128-8.75 29.84-21.011 27.411-34.156.217-11.229-38.453-51.186-43.035-53.054-10.264-4.199-32.317-12.379-50.064 1.376 0 0-7.493 3.56-9.577 13.254-1.514 7.06-4.857 21.719-6.587 29.3a79.351 79.351 0 0 0-.492 2.133c-.088.364-.157.688-.226.983-.236 1.023-.374 1.632-.393 1.681-.01.04-.541-.334-1.456-1.012a38.072 38.072 0 0 1-.629-.482c-.157-.128-.334-.256-.52-.393-7.208-5.506-26.96-21.169-26.96-21.169s-12.733 12.153-10.786 14.08z" class="colorfe6b4d svgShape"/><path fill="#e29529" d="M296.608 171.853c1.455 5.514 1.89 11.237 2.332 16.922 3.409-7.29 3.528-16.054.307-23.428l-.317-.693c-.193.793-.355 1.507-.495 2.133-.085.362-.155.685-.226.979a89.55 89.55 0 0 1-.389 1.683c-.016.04-.546-.329-1.456-1.012-.195-.147-.4-.303-.625-.476-.165-.13-.339-.26-.523-.399a41.203 41.203 0 0 1 1.392 4.29z" class="color2943e2 svgShape"/><path fill="#ffe7c5" d="M328.006 110.77s.113 1.696.336 4.034c.477 5.123 1.308 7.612 1.636 9.111 1.038 4.734 15.599 5.353 14.012-9.517-2.817-11.095-2.24-9.203-2.24-9.203.231.103 7.258-11.858 3.062-19.683-3.956-7.38-25.788-14.11-28.841-7.693l.118.408c-.068.371-3.608 35.039 11.917 32.543z" class="colorffc5c5 svgShape"/><path fill="#383838" d="M325.294 98.627c-.35.066-.742.091-1.128.017a.71.71 0 0 1-.462-.331c-.762-1.16-.064-5.795-.055-5.838a.337.337 0 0 1 .658.145c-.189.936-.531 5.037-.003 5.367.876.166 1.876-.363 1.886-.368a.337.337 0 1 1 .318.593c-.032.018-.548.29-1.214.415z" class="color383838 svgShape"/><path fill="#ffbf66" d="M322.496 101.802c.324 1.816 1.812 3.144 3.518 3.027 1.705-.118 2.997-1.638 3.069-3.481l-6.587.454z" class="colorfcafaf svgShape"/><path fill="#383838" d="M330.629 91.215c-.104.565-.497.972-.878.902-.39-.072-.612-.593-.508-1.157.106-.572.497-.972.887-.9.381.07.604.583.499 1.155zM319.793 91.2c.033.573-.252 1.062-.64 1.084-.395.022-.734-.431-.766-1.004-.033-.581.252-1.062.648-1.084.388-.022.725.423.758 1.004z" class="color383838 svgShape"/><path fill="#ffbf66" d="M328.342 114.804c5.086-3.144 5.47-7.913 5.47-7.913-2.282 2.42-5.806 3.88-5.806 3.88s.113 1.695.336 4.033z" class="colorfcafaf svgShape"/><path fill="#23211f" d="M341.921 106.411c-.123.251 10.54-12.249 7.007-24.405 0 0-.41-1.335-1.207-2.593-1.138-1.795-1.917-3.768-2.422-5.832-.409-1.673-1.73-3.542-5.22-4.735-7.602-2.598-22.933-3.23-26.424 3.31-3.883 7.274-.845 10.623 11.458 9.853.77.018 1.684-.111 2.62-.317 2.619-.574 5.137.88 6.414 3.237.12.222.264.42.432.582 1.518 1.462 3.468 1.406 3.89 3.613.424 2.208.85 4.925.85 4.925s.929-6.825 3.748-5.897 5.145 5.424-.375 8.485c-.491-.242-1.67 5.671-.77 9.774z" class="color1f2123 svgShape"/><path fill="#f4a83d" d="M311.243 184.432a.478.478 0 0 1-.333-.815c.955-2.17 7.99-39.618 8.039-42.833.005-.264.203-.488.485-.472a.479.479 0 0 1 .472.485c-.027 1.772-1.998 12.989-3.82 22.662-2.53 13.449-4.048 20.465-4.51 20.853a.534.534 0 0 1-.333.12zM312.074 208.38c1.672 2.107 32.976 10.418 54.15-4.483 0 0-.723-35.784-.115-37.479.609-1.694 1.897-7.777 2.86-6.961a.836.836 0 0 1 .09.093c-.077-3.212-1.653-7.56-1.73-10.77-7.07 9.13-10.623 20.95-13.19 32.214-.921 4.048-1.618 8.367-4.24 11.584-3.364 4.144-9.095 5.467-14.418 5.808a59.726 59.726 0 0 1-24.44-3.547c-.015 6.001.177 12.457 1.033 13.54z" class="colorf4573d svgShape"/><path fill="#d18419" d="M300.345 177.854a.48.48 0 0 1-.469-.576c.938-4.513-2.334-7.096-2.474-7.204a.478.478 0 0 1 .581-.759c.16.122 3.893 3.043 2.831 8.158a.479.479 0 0 1-.469.381z" class="color1939d1 svgShape"/><path fill="#d18419" d="M294.698 176.707a.477.477 0 0 1-.333-.821c.87-.845 1.77-1.718 2.352-2.77.62-1.12.761-2.298.39-3.234a.478.478 0 1 1 .889-.353c.477 1.203.316 2.68-.442 4.05-.652 1.175-1.603 2.1-2.523 2.992a.474.474 0 0 1-.333.136z" class="color1939d1 svgShape"/><path fill="#383838" d="M327.94 87.809c-.102-.129.267-.718 1.493-1.04a4.66 4.66 0 0 1 3.069.518c1.05.706 1.206 1.383 1.063 1.473-.17.138-.58-.255-1.5-.685a3.753 3.753 0 0 0-2.48-.418c-1.01.104-1.526.34-1.644.152zM317.022 87.124c-.103-.133.19-.651 1.224-.937.878-.158 1.819.001 2.596.438.882.609.99 1.195.844 1.29-.167.132-.528-.169-1.28-.502a3.035 3.035 0 0 0-2.007-.338c-.82.068-1.26.234-1.377.05z" class="color383838 svgShape"/><path fill="#fdf9f3" d="M325.795 115.176c.597.061 1.49.125 2.078.21.35.051.662.349.756.722.258 1.025.854 3.256 2.414 5.268 1.817 2.768 5.387 5.137 5.347 4.952-1.328 1.323-3.04 2.385-5.073 3.05-4.267-4.312-6.245-9.503-6.182-13.563.377.027.665-.238.66-.64z" class="colorf3f6fd svgShape"/><path fill="#fdf9f3" d="M335.2 126.868c1.527 1.494 3.482 2.682 5.806 3.42 4.65-4.783 6.864-10.483 6.915-15.034a1.16 1.16 0 0 0-.366-.848 1.17 1.17 0 0 0-.925-.32c-.614.06-1.328.128-1.838.207-.396.062-.75.404-.857.831-.28 1.172-.941 3.72-2.7 6.034-1.959 3.045-5.765 5.687-6.034 5.71z" class="colorf3f6fd svgShape"/><path fill="#a56f25" d="M331.666 205.288c-.706.8-1.422 1.604-2.145 2.412-8.874-1.896-17.208-4.347-24.953-7 .752-.67 1.496-1.336 2.23-2.002 7.723 2.532 16.03 4.845 24.868 6.59zM344.85 183.461c6.277.604 8.925 4.068 5.254 8.667-3.642 4.601-12.392 7.95-18.825 6.625-6.443-1.289-7.94-5.952-4.14-9.833 3.816-3.912 11.416-6.05 17.712-5.459zM283.61 181.517a5.539 5.539 0 0 1 2.63-1.052c1.004-.13 2.433-.051 4.317.213a296.33 296.33 0 0 1-5.955 4.555c-1.094-.577-1.743-1.198-1.91-1.868-.165-.658.145-1.275.917-1.848zM303.833 176.95a4.85 4.85 0 0 1-2.36 1.104c-.911.168-2.293.15-4.1-.035 1.767-1.458 3.487-2.9 5.164-4.326 1.069.44 1.722.95 1.947 1.532.227.583.006 1.161-.651 1.726zM256.067 182.51c-.799.458-1.606.916-2.424 1.37a1596.05 1596.05 0 0 0-8.766-4.187c.817-.429 1.625-.862 2.422-1.296 2.827 1.315 5.745 2.687 8.768 4.112z" class="color25a59f svgShape"/><path fill="#a56f25" d="M267.606 161.276c3.88 1.519 4.176 5.029.19 7.801-3.975 2.781-10.748 3.58-14.548 1.916-3.802-1.66-3.302-5.021.575-7.662 3.894-2.636 9.882-3.585 13.783-2.055zM260.596 179.82c-.762.469-1.534.934-2.315 1.396a1646.214 1646.214 0 0 0-15.632-7.165c.774-.427 1.539-.857 2.294-1.287 4.945 2.196 10.129 4.549 15.653 7.057zM318.463 187.475c-9.802 10.206-32.514 13.991-45.158 7.512-12.684-6.194-10.472-16.026-.256-23.233 10.373-7.286 25.662-9.812 37.893-6.283 12.044 3.5 17.432 12.074 7.521 22.004z" class="color25a59f svgShape"/><path fill="#b57e32" d="M366.533 172.49c-1.88 2.178-.274 4.057 3.781 3.791-8.218 10.146-17.2 22.438-28.036 36.19-4.246-.565-9.674 1.265-12.426 4.373-45.738-11.387-75.165-31.185-98.2-40.768 2.978-1.438 3.485-3.45 1.384-4.374 11.827-6.291 21.282-13.11 29.948-19.844 2.298.886 5.85.3 7.868-1.29 24.865 8.612 52.211 22.301 95.68 21.922zM273.3 194.99c12.65 6.477 35.36 2.694 45.16-7.512 9.908-9.93 4.523-18.497-7.52-22.01-12.23-3.528-27.518-.993-37.893 6.284-10.215 7.206-12.424 17.051.253 23.238m-19.478-31.658c-3.877 2.64-4.377 6.002-.575 7.662 3.8 1.665 10.573.865 14.549-1.916 3.985-2.772 3.689-6.282-.19-7.8-3.903-1.53-9.89-.582-13.784 2.054m77.456 35.422c6.434 1.322 15.185-2.013 18.825-6.625 3.67-4.599 1.023-8.063-5.253-8.667-6.296-.59-13.896 1.547-17.712 5.459-3.8 3.88-2.304 8.544 4.14 9.833m-72.998-17.537c.78-.462 1.553-.927 2.315-1.395-5.524-2.508-10.707-4.861-15.653-7.057-.755.43-1.52.86-2.294 1.287 4.93 2.219 10.106 4.607 15.632 7.165m71.24 26.484c.723-.808 1.439-1.611 2.145-2.412-8.838-1.745-17.145-4.058-24.867-6.59-.735.666-1.479 1.332-2.231 2.001 7.745 2.654 16.079 5.105 24.953 7.001m-16.097 1.453c.773-.753 1.538-1.502 2.292-2.25a240.485 240.485 0 0 1-13.28-4.325 313.72 313.72 0 0 1-2.336 2.02 246.467 246.467 0 0 0 13.324 4.555m-59.781-25.273c.818-.454 1.625-.912 2.424-1.37-3.024-1.426-5.941-2.798-8.768-4.113-.797.434-1.605.867-2.422 1.296 2.825 1.336 5.742 2.734 8.766 4.187" class="color32b5b3 svgShape"/><path fill="#a56f25" d="M315.716 206.904a379.16 379.16 0 0 1-2.292 2.249 246.767 246.767 0 0 1-13.324-4.556c.787-.675 1.566-1.347 2.335-2.019a240.485 240.485 0 0 0 13.281 4.326z" class="color25a59f svgShape"/><path fill="#c48c3f" d="M265.933 144.428c39.987 12.964 62.133 29.205 118.669 22.644-12.339 14.412-25.63 34.976-44.12 59.062-60.41-12.975-95.709-41.4-121.92-50.953 20.747-9.175 34.421-20.203 47.371-30.753zm76.345 68.042c10.837-13.752 19.817-26.044 28.036-36.189-4.056.269-5.66-1.618-3.781-3.79-43.47.378-70.816-13.311-95.681-21.922-2.015 1.601-5.57 2.168-7.868 1.29-8.667 6.732-18.121 13.552-29.948 19.843 2.102.927 1.593 2.931-1.385 4.374 23.037 9.583 52.463 29.38 98.201 40.768 2.75-3.11 8.18-4.94 12.426-4.374z" class="color3fc4bd svgShape"/><path fill="#c48c3f" d="M353.534 202.825c.144.057.308.107.402.215.544.63 1.16 1.139 2.013 1.21.286.022.451.13.537.316 1.62-2.229 3.188-4.407 4.729-6.542-.136.094-.272.194-.409.287-.688.487-1.382.967-2.07 1.461-.308.23-.566.552-.91.703-.774.322-1.576.573-2.372.838-.107.036-.236-.014-.35-.022-.667-.043-1.297.058-1.792.552-.38.38-.28.788.222.982z" class="color3fc4bd svgShape"/><path fill="#ffe7c5" d="M347.235 209.595c.196.078.422.147.55.295.748.865 1.593 1.563 2.763 1.661.393.03.62.177.738.433a.992.992 0 0 1 .117.364c.08.472.364.727.807.845.363.108.747.187 1.1.335.473.206 1.102.344 1.328.717.64 1.052 1.829 1.357 2.783 1.19 1.15-.187 2.27-.511 3.402-.806 1.13-.295 2.251-.61 3.372-.944 1.14-.334 2.31-.61 3.382-1.091 1.19-.541 2.281-1.308 3.441-1.928 1.682-.914 3.48-1.484 5.388-1.514 1.721-.03 3.442-.01 5.152.01a477.024 477.024 0 0 0-4.277-9.144c-.373.06-.747.118-1.12.168-1.721.206-3.471.196-5.211.314-.866.06-1.662-.108-2.449-.442-.845-.374-1.68-.748-2.556-1.033-1.465-.482-2.88-1.16-4.474-1.17-.658.915-1.317 1.839-1.996 2.773.07.02.128.04.197.069.276.108.54.255.816.393-.944.669-1.828 1.288-2.713 1.917-.187.128-.374.266-.56.393-.945.67-1.898 1.328-2.842 2.006-.423.315-.777.757-1.249.964-1.062.442-2.163.786-3.254 1.15-.148.05-.325-.02-.482-.03-.915-.058-1.78.08-2.458.758-.521.521-.384 1.081.305 1.347z" class="colorffc5c5 svgShape"/><path fill="#fff2e1" d="M372.452 192.42a1.437 1.437 0 0 1 2.034.39c2.245 3.492 9.064 13.528 8.14 14.836-.141.214-.416.43-.76.647-1.06.679-2.824 1.396-3.696 2.03-.4.297-1.004-.102-1.248-.544-1.426-2.492-6.129-10.75-7.485-13.588-.253-.52-.395-.853-.376-.937.08-.422 2.049-1.882 3.39-2.833z" class="colore1ebff svgShape"/><path fill="#faebd5" d="M372.452 192.42a1.437 1.437 0 0 1 2.034.39c2.245 3.492 9.064 13.528 8.14 14.836-.141.214-.416.43-.76.647a30.716 30.716 0 0 0-8.722-10.15c-1.126-.845-2.347-1.616-3.707-1.952-.253-.52-.395-.853-.376-.937.08-.422 2.049-1.882 3.39-2.833z" class="colord5e1fa svgShape"/><path fill="#f7960d" d="M169.405 285.983c.01 3.134.104 7.102.104 7.92h43.812v-7.92h-43.916z" class="colorfe6b4d svgShape"/><path fill="#f4a83d" d="M291.1 281.558v76.813a3.647 3.647 0 0 1-3.647 3.647h-94.767v-68.202h-15.103c-4.145 0-7.762-3.074-8.144-7.196-.436-4.725 3.28-8.71 7.915-8.71h110.099a3.647 3.647 0 0 1 3.647 3.648z" class="colorf4573d svgShape"/><path fill="#a56f25" d="M253.12 283.485c-.048.413.151.782.57 1.106.423.324.964.458 1.61.407.637-.057 1.301-.279 1.97-.667-1.095-.858-2.18-1.72-3.254-2.576-.557.74-.86 1.325-.896 1.73zM270.887 279.617c.371.358.742.713 1.114 1.068 2.683-1.142 5.113-1.812 7.162-1.929-.334-.405-.669-.812-1.003-1.221-2.097.17-4.563.892-7.273 2.082zM273.038 281.668c.37.349.74.697 1.112 1.042 1.44-.577 2.798-1.01 4.054-1.286-.352-.371-.705-.744-1.056-1.12-1.278.302-2.654.762-4.11 1.364zM267.045 266.042c-1.958.744-1.98 3.496.153 5.744 2.126 2.266 5.474 3.442 7.211 3.08 1.74-.37 1.396-2.405-.504-5.052-1.907-2.636-4.894-4.533-6.86-3.772z" class="color25a59f svgShape"/><path fill="#c48c3f" d="M287.744 286.352c-6.74-7.028-29.19 10.216-51.378 29.01-9.895-5.88-19.083-12.31-24.807-15.458 20.653-19.379 40.199-44.432 55.085-46.711 7.41 11.313 14.318 23.162 21.1 33.159zm-54.35 22.735c2.246-1.818 5.547-2.343 7.468-1.17 17.133-14.504 33.64-26.803 42.258-25.514-1.544-1.854-1.84-3.422-.886-3.14-4.192-5.955-8.444-12.345-12.805-18.694-1.343.2-3.816-1.06-5.37-3.067-12.503 4.434-27.954 21.39-44.056 37.19 1.338.805.824 3.142-1.349 5.012 4.183 2.587 9.265 5.958 14.74 9.383z" class="color3fc4bd svgShape"/><path fill="#b57e32" d="M264.059 257.502c1.553 2.008 4.024 3.268 5.37 3.067 4.36 6.348 8.614 12.739 12.805 18.694-.953-.282-.659 1.289.886 3.14-8.617-1.29-25.125 11.01-42.258 25.515-1.923-1.175-5.22-.65-7.468 1.169-5.475-3.426-10.557-6.796-14.74-9.383 2.172-1.872 2.686-4.21 1.35-5.012 16.101-15.801 31.551-32.756 44.055-37.19zm.57 31.336c6.038-3.839 5.394-9.575-.109-15.375-5.564-5.845-14.573-7.114-20.72-1.274-6.074 5.707-7.4 13.739-1.665 17.645 5.738 4.031 16.462 2.889 22.494-.996zm9.276-19.024c-1.906-2.638-4.893-4.532-6.86-3.773-1.957.744-1.979 3.497.153 5.745 2.127 2.264 5.473 3.443 7.211 3.08 1.74-.368 1.398-2.407-.504-5.052zm-36.48 29.868c2.722-2.288 2.986-5.353.784-6.86-2.214-1.515-5.999-.73-8.653 1.695-2.65 2.417-3.266 5.38-1.118 6.766 2.146 1.39 6.272.696 8.987-1.6zm1.73 4.399c3.677-3.047 7.244-6.029 10.707-8.804-.401-.27-.8-.537-1.197-.807-3.463 2.8-7.028 5.8-10.702 8.855.396.251.793.504 1.193.756zm32.846-23.396c2.682-1.142 5.112-1.812 7.162-1.929-.334-.405-.669-.813-1.003-1.221-2.097.17-4.563.892-7.273 2.082.37.357.742.714 1.114 1.068zm-25.592 20.796a433.787 433.787 0 0 1 5.779-4.662c-.403-.265-.806-.53-1.206-.795a455.535 455.535 0 0 0-5.781 4.691c.401.256.804.511 1.208.766zm27.74-18.771c1.44-.577 2.8-1.01 4.055-1.286-.352-.371-.705-.745-1.056-1.12-1.278.302-2.654.762-4.11 1.364.37.349.74.696 1.112 1.042z" class="color32b5b3 svgShape"/><path fill="#a56f25" d="M245.2 300.715c.402.256.805.512 1.209.766a438.258 438.258 0 015.779-4.662c-.404-.265-.806-.53-1.206-.795a464.444 464.444 0 00-5.781 4.691zM237.963 303.325c.396.251.793.504 1.193.756 3.676-3.047 7.243-6.029 10.706-8.804-.401-.27-.8-.537-1.197-.807-3.463 2.8-7.028 5.8-10.702 8.855zM252.99 276.14c-.388-.328-.864-.486-1.45-.454-.577.026-1.181.246-1.802.665.99.815 1.993 1.64 3.008 2.473.505-.708.77-1.245.788-1.624.018-.38-.155-.729-.543-1.06zM229.556 294.517c-2.651 2.417-3.265 5.381-1.118 6.766 2.145 1.39 6.27.697 8.987-1.6 2.723-2.29 2.989-5.354.784-6.861-2.215-1.515-5.998-.73-8.653 1.695z" class="color25a59f svgShape"/><path fill="#a56f25" d="M264.633 288.84c-6.04 3.88-16.76 5.029-22.5.99-5.73-3.9-4.41-11.93 1.67-17.64 6.14-5.841 15.15-4.571 20.72 1.27 5.5 5.8 6.15 11.54.11 15.38zM200.017 277.932c.435-.117.853-.36 1.258-.74.412-.389.75-.85 1.014-1.416-1.159.297-2.313.604-3.465.918.005.619.1 1 .28 1.163.169.174.477.192.913.075z" class="color25a59f svgShape"/><path fill="#a56f25" d="M209.253 273.76c-3.24 5.87-9.13 11.52-14.69 13.16-5.51 1.57-9.85-.91-9.12-6.46.66-5.54 8.11-13.17 16.19-14.94 8.12-1.69 10.92 2.48 7.62 8.24z" class="color25a59f svgShape"/><path fill="#b57e32" d="M201.525 270.571c.64.08 1.247.357 1.835.824.589.465 1.115 1.09 1.587 1.866l1.198-.647a.548.548 0 0 1 .441-.048.621.621 0 0 1 .356.312.604.604 0 0 1 .07.444.533.533 0 0 1-.29.347l-1.198.647c.614 1.282 1.041 2.56 1.262 3.84a.804.804 0 0 1-.063.482.739.739 0 0 1-.328.355.867.867 0 0 1-.622.079.825.825 0 0 1-.527-.375.872.872 0 0 1-.133-.352c-.164-1.12-.514-2.2-1.04-3.246l-3.88 2.096c.233.89.397 1.656.479 2.306.08.65.018 1.261-.196 1.839-.212.578-.65 1.044-1.313 1.402a3.766 3.766 0 0 1-1.894.453c-.677-.015-1.354-.215-2.027-.606-.67-.39-1.274-.972-1.797-1.75l-1.18.637a.587.587 0 0 1-.809-.235.591.591 0 0 1-.054-.464.567.567 0 0 1 .287-.357l1.164-.629c-.56-1.162-.878-2.29-.973-3.374-.044-.394.108-.684.444-.866a.771.771 0 0 1 .58-.067.687.687 0 0 1 .459.402c.032.071.056.178.067.322.115.954.393 1.894.84 2.818l4.014-2.167c-.254-.94-.397-1.755-.446-2.439a4.155 4.155 0 0 1 .335-1.96c.27-.623.772-1.133 1.503-1.528a3.003 3.003 0 0 1 1.85-.36zm-2.636 9.534c.044-.522-.056-1.204-.282-2.054l-3.71 2.004c.473.64.999 1.074 1.562 1.307.564.234 1.107.207 1.625-.072.495-.267.762-.66.805-1.185zm1.41-7.492c-.435.244-.667.643-.695 1.193-.025.55.067 1.293.303 2.216l3.592-2.02c-1.007-1.56-2.036-2.044-3.2-1.39z" class="color32b5b3 svgShape"/><path fill="#a56f25" d="M212.712 256.299c1.85-2.463.46-4.333-3.288-3.96-3.747.372-7.959 3.198-9.224 5.943-1.272 2.742.4 4.222 3.569 3.575 3.167-.657 7.085-3.074 8.943-5.558zM188.21 288.89c-.373.114-.745.23-1.118.345-.355 2.65-.654 5.207-1.012 7.779l1.024-.296c.38-2.583.711-5.16 1.105-7.828z" class="color25a59f svgShape"/><path fill="#b57e32" d="M202.424 293.68c-1.576.44-3.149 2.087-3.51 3.675-4.546 1.279-9.095 2.556-13.648 3.84.285-1.555-.824-2.421-2.408-1.966 1.315-11.67 1.404-23.783 8.061-42.472 2.733-.803 5.785-3.165 6.931-5.498 8.676-1.787 17.61-2.495 26.663-2.094-1.786 1.738-.774 3.155 2.196 3.213-15.349 13.645-21.473 29.144-24.285 41.301zm-16.986-13.225c-.722 5.552 3.61 8.032 9.12 6.466 5.57-1.64 11.454-7.287 14.694-13.162 3.304-5.757.5-9.93-7.621-8.236-8.074 1.761-15.533 9.39-16.193 14.932zm14.762-22.173c-1.275 2.743.401 4.222 3.569 3.575 3.168-.656 7.088-3.076 8.943-5.558 1.851-2.46.462-4.336-3.288-3.96-3.746.375-7.958 3.196-9.224 5.943zm-7.422 38.687c1.984-.558 3.94-2.64 4.403-4.663.467-2.023-.84-3.203-2.978-2.58-2.138.625-4.123 2.747-4.426 4.705-.307 1.958 1.024 3.096 3.001 2.538zm2.622-39.621a116.602 116.602 0 0 0-3.884 10.79c.5-.152 1.002-.302 1.503-.45a113.502 113.502 0 0 1 4.134-10.762c-.586.136-1.17.277-1.753.422zm-8.308 31.887c-.355 2.65-.654 5.207-1.012 7.779l1.024-.296c.381-2.584.712-5.16 1.105-7.828l-1.117.345zm-2.152.672c-.155 1.43-.296 2.834-.444 4.23.353-.107.704-.212 1.057-.317.164-1.406.324-2.82.5-4.262-.37.116-.742.232-1.113.35zm5.383-26.622a120.432 120.432 0 0 0-1.682 5.764c.494-.163.989-.322 1.484-.479a118.17 118.17 0 0 1 1.808-5.768c-.537.158-1.073.318-1.61.483z" class="color32b5b3 svgShape"/><path fill="#a56f25" d="M191.933 262.802c-.537.158-1.074.317-1.61.483a118.82 118.82 0 0 0-1.683 5.764c.495-.162.989-.322 1.485-.479.531-1.86 1.13-3.784 1.808-5.768zM186.053 289.558l-1.113.35c-.155 1.43-.296 2.833-.444 4.228l1.057-.316c.164-1.406.325-2.82.5-4.262z" class="color25a59f svgShape"/><path fill="#c48c3f" d="M189.712 250.23c-9.601 25.995-7.377 39.398-9.811 54.536l23.435-6.577c2.08-8.093 3.91-16.107 9.384-25.18 5.22-8.818 14.084-18.694 24.441-24.652a102.127 102.127 0 0 0-47.449 1.872zm1.207 6.527c2.733-.803 5.785-3.167 6.931-5.498 8.676-1.787 17.61-2.495 26.663-2.094-1.786 1.738-.774 3.155 2.196 3.213-15.349 13.645-21.473 29.144-24.285 41.301-1.576.442-3.149 2.088-3.51 3.676-4.546 1.279-9.095 2.556-13.648 3.84.285-1.555-.824-2.421-2.408-1.966 1.315-11.67 1.404-23.783 8.061-42.472z" class="color3fc4bd svgShape"/><path fill="#a56f25" d="M197.152 256.927c-.585.135-1.169.275-1.752.42a116.51 116.51 0 00-3.884 10.79c.5-.152 1.002-.303 1.503-.449a113.575 113.575 0 014.133-10.761zM197.18 292.306c.467-2.023-.837-3.203-2.977-2.58-2.138.622-4.121 2.749-4.426 4.705-.31 1.959 1.02 3.097 3.001 2.538 1.981-.56 3.942-2.64 4.403-4.663zM219.5 283.805c.435-.117.854-.36 1.259-.74.411-.389.75-.85 1.014-1.416-1.16.297-2.314.604-3.465.918.004.618.1 1 .28 1.163.168.174.477.192.913.075z" class="color25a59f svgShape"/><path fill="#a56f25" d="M228.733 279.63c-3.23 5.88-9.13 11.52-14.69 13.16-5.51 1.57-9.84-.91-9.12-6.46.66-5.54 8.12-13.17 16.19-14.93 8.12-1.7 10.93 2.469 7.62 8.23zM232.195 262.172c1.85-2.463.46-4.333-3.287-3.96-3.748.372-7.96 3.198-9.224 5.943-1.273 2.742.4 4.222 3.568 3.575 3.168-.657 7.085-3.074 8.943-5.558zM207.693 294.763l-1.117.345c-.356 2.65-.655 5.207-1.012 7.779l1.024-.296c.38-2.584.71-5.16 1.105-7.828z" class="color25a59f svgShape"/><path fill="#b57e32" d="M221.907 299.552c-1.576.442-3.148 2.087-3.509 3.676-4.546 1.278-9.095 2.556-13.649 3.84.285-1.555-.823-2.422-2.407-1.966 1.314-11.67 1.404-23.783 8.06-42.473 2.733-.802 5.786-3.165 6.932-5.497 8.675-1.787 17.609-2.495 26.663-2.094-1.787 1.738-.774 3.155 2.196 3.213-15.35 13.645-21.474 29.144-24.286 41.301zm-16.985-13.224c-.723 5.552 3.61 8.032 9.12 6.466 5.57-1.64 11.454-7.287 14.694-13.163 3.304-5.757.5-9.93-7.622-8.235-8.073 1.76-15.533 9.39-16.192 14.932zm14.762-22.173c-1.275 2.742.4 4.222 3.568 3.575 3.169-.656 7.089-3.077 8.943-5.558 1.852-2.46.462-4.336-3.287-3.96-3.746.375-7.959 3.195-9.224 5.943zm-7.422 38.687c1.983-.558 3.94-2.64 4.402-4.663.468-2.023-.839-3.203-2.977-2.581-2.138.626-4.124 2.748-4.427 4.705-.306 1.959 1.025 3.097 3.002 2.54zm2.622-39.621A116.602 116.602 0 0 0 211 274.01c.5-.153 1.001-.303 1.502-.45a113.498 113.498 0 0 1 4.135-10.762c-.587.136-1.17.277-1.753.422zm-8.308 31.887c-.356 2.65-.654 5.207-1.012 7.779l1.024-.296c.38-2.584.712-5.16 1.105-7.828-.372.114-.745.229-1.117.345zm-2.153.672c-.155 1.43-.296 2.834-.443 4.23l1.056-.317c.164-1.406.325-2.82.5-4.262-.37.116-.742.232-1.113.35zm5.384-26.622a120.415 120.415 0 0 0-1.683 5.763c.494-.162.99-.321 1.484-.478a118.17 118.17 0 0 1 1.808-5.768c-.537.158-1.073.318-1.61.483z" class="color32b5b3 svgShape"/><path fill="#a56f25" d="M211.416 268.675c-.537.157-1.073.317-1.61.483a118.803 118.803 0 0 0-1.682 5.763c.495-.16.989-.321 1.484-.478.532-1.86 1.13-3.784 1.808-5.768zM205.537 295.43l-1.114.35c-.155 1.43-.296 2.834-.443 4.23.352-.107.704-.213 1.056-.317.164-1.407.326-2.82.5-4.262z" class="color25a59f svgShape"/><path fill="#c48c3f" d="M209.196 256.102c-9.602 25.996-7.378 39.399-9.812 54.536l23.436-6.576c2.08-8.093 3.91-16.108 9.383-25.18 5.222-8.818 14.084-18.694 24.442-24.652a102.127 102.127 0 0 0-47.449 1.872zm1.207 6.527c2.732-.802 5.784-3.166 6.93-5.497 8.676-1.787 17.61-2.495 26.664-2.094-1.787 1.738-.774 3.155 2.196 3.213-15.35 13.645-21.474 29.144-24.286 41.301-1.576.442-3.148 2.087-3.509 3.676-4.546 1.278-9.095 2.556-13.649 3.84.285-1.555-.823-2.422-2.407-1.966 1.314-11.67 1.404-23.783 8.06-42.473z" class="color3fc4bd svgShape"/><path fill="#a56f25" d="M216.636 262.8c-.585.135-1.17.275-1.752.42A116.51 116.51 0 0 0 211 274.01c.5-.152 1.001-.303 1.502-.45a113.575 113.575 0 0 1 4.134-10.76zM216.664 298.179c.466-2.024-.838-3.203-2.977-2.581-2.138.623-4.122 2.75-4.427 4.705-.31 1.96 1.021 3.098 3.002 2.54 1.98-.56 3.942-2.64 4.402-4.664z" class="color25a59f svgShape"/><path fill="#f7960d" d="M281.55 297.502v72.24a3.642 3.642 0 0 1-3.648 3.647h-99.05c-5.054 0-9.145-4.091-9.145-9.138v-70.397h108.195a3.647 3.647 0 0 1 3.647 3.648z" class="colorfe6b4d svgShape"/><path fill="#faebd5" d="M181.91 368.806c0 .22-.273.418-.826.51h-1.406c-.552-.092-.826-.29-.826-.515s.274-.418.826-.514h1.406c.553.096.826.289.826.52zM188.026 368.806c0 .22-.274.418-.827.51h-1.405c-.552-.092-.826-.29-.826-.515s.274-.418.826-.514h1.405c.553.096.827.289.827.52zM194.142 368.806c0 .22-.274.418-.827.51h-1.405c-.553-.092-.826-.29-.826-.515s.273-.418.826-.514h1.405c.553.096.827.289.827.52zM200.257 368.806c0 .22-.273.418-.826.51h-1.406c-.552-.092-.825-.29-.825-.515s.273-.418.825-.514h1.406c.553.096.826.289.826.52zM206.373 368.806c0 .22-.273.418-.826.51h-1.406c-.552-.092-.826-.29-.826-.515s.274-.418.826-.514h1.406c.553.096.826.289.826.52zM212.489 368.806c0 .22-.274.418-.827.51h-1.405c-.552-.092-.826-.29-.826-.515s.274-.418.826-.514h1.405c.553.096.827.289.827.52zM218.605 368.806c0 .22-.274.418-.827.51h-1.405c-.553-.092-.826-.29-.826-.515s.273-.418.826-.514h1.405c.553.096.827.289.827.52zM224.72 368.806c0 .22-.273.418-.826.51h-1.406c-.552-.092-.825-.29-.825-.515s.273-.418.825-.514h1.406c.553.096.826.289.826.52zM230.836 368.806c0 .22-.273.418-.826.51h-1.406c-.552-.092-.826-.29-.826-.515s.274-.418.826-.514h1.406c.553.096.826.289.826.52zM236.952 368.806c0 .22-.274.418-.827.51h-1.405c-.552-.092-.826-.29-.826-.515s.274-.418.826-.514h1.405c.553.096.827.289.827.52zM243.068 368.806c0 .22-.274.418-.827.51h-1.405c-.553-.092-.826-.29-.826-.515s.273-.418.826-.514h1.405c.553.096.827.289.827.52zM249.183 368.806c0 .22-.273.418-.826.51h-1.406c-.552-.092-.825-.29-.825-.515s.273-.418.825-.514h1.406c.553.096.826.289.826.52zM255.3 368.806c0 .22-.274.418-.827.51h-1.406c-.552-.092-.826-.29-.826-.515s.274-.418.826-.514h1.406c.553.096.826.289.826.52zM261.415 368.806c0 .22-.274.418-.827.51h-1.405c-.552-.092-.826-.29-.826-.515s.274-.418.826-.514h1.405c.553.096.827.289.827.52zM267.53 368.806c0 .22-.273.418-.826.51H265.3c-.553-.092-.826-.29-.826-.515s.273-.418.826-.514h1.405c.553.096.827.289.827.52zM273.646 368.806c0 .22-.273.418-.826.51h-1.405c-.553-.092-.826-.29-.826-.515s.273-.418.826-.514h1.405c.553.096.826.289.826.52zM277.732 366.765c.22 0 .417.273.508.826v1.724h-.391c-.275-.023-.567-.052-.68-.087a1.153 1.153 0 0 1-.259-.12c-.137-.089-.206-.195-.206-.307 0-.113.069-.217.206-.305.069-.045.155-.085.258-.12.093-.035.043-.065.044-.09v-.695c.096-.553.29-.826.52-.826zM277.732 360.649c.22 0 .417.274.508.827v1.405c-.09.552-.289.826-.514.826s-.418-.274-.514-.826v-1.405c.096-.553.29-.827.52-.827zM277.732 354.533c.22 0 .417.274.508.827v1.405c-.09.553-.289.826-.514.826s-.418-.273-.514-.826v-1.405c.096-.553.29-.827.52-.827zM277.732 348.418c.22 0 .417.273.508.826v1.405c-.09.553-.289.826-.514.826s-.418-.273-.514-.826v-1.405c.096-.553.29-.826.52-.826zM277.732 342.302c.22 0 .417.273.508.826v1.406c-.09.552-.289.826-.514.826s-.418-.274-.514-.826v-1.406c.096-.553.29-.826.52-.826zM277.732 336.186c.22 0 .417.273.508.827v1.405c-.09.552-.289.826-.514.826s-.418-.274-.514-.826v-1.405c.096-.554.29-.827.52-.827zM277.732 330.07c.22 0 .417.274.508.827v1.405c-.09.553-.289.826-.514.826s-.418-.273-.514-.826v-1.405c.096-.553.29-.827.52-.827zM277.732 323.954c.22 0 .417.274.508.827v1.405c-.09.553-.289.826-.514.826s-.418-.273-.514-.826v-1.405c.096-.553.29-.827.52-.827zM277.732 317.839c.22 0 .417.273.508.826v1.406c-.09.552-.289.826-.514.826s-.418-.274-.514-.826v-1.406c.096-.553.29-.826.52-.826zM277.732 311.723c.22 0 .417.273.508.827v1.405c-.09.552-.289.826-.514.826s-.418-.274-.514-.826v-1.405c.096-.554.29-.827.52-.827zM277.732 305.607c.22 0 .417.274.508.827v1.405c-.09.553-.289.826-.514.826s-.418-.273-.514-.826v-1.405c.096-.553.29-.827.52-.827zM277.732 299.491c.22 0 .417.274.508.827v1.405c-.09.553-.289.826-.514.826s-.418-.273-.514-.826v-1.405c.096-.553.29-.827.52-.827zM272.66 298.437c0-.22.273-.418.826-.509h1.405c.553.091.826.29.826.514s-.273.418-.826.515h-1.405c-.553-.097-.827-.29-.827-.52zM266.544 298.437c0-.22.273-.418.826-.509h1.405c.553.091.827.29.827.514s-.274.418-.827.515h-1.405c-.553-.097-.826-.29-.826-.52zM260.428 298.437c0-.22.273-.418.826-.509h1.406c.552.091.826.29.826.514s-.274.418-.826.515h-1.406c-.553-.097-.826-.29-.826-.52zM254.312 298.437c0-.22.274-.418.827-.509h1.405c.552.091.826.29.826.514s-.274.418-.826.515h-1.405c-.553-.097-.827-.29-.827-.52zM248.196 298.437c0-.22.274-.418.827-.509h1.405c.553.091.826.29.826.514s-.273.418-.826.515h-1.405c-.553-.097-.827-.29-.827-.52zM242.08 298.437c0-.22.274-.418.827-.509h1.405c.553.091.826.29.826.514s-.273.418-.826.515h-1.405c-.553-.097-.826-.29-.826-.52zM235.965 298.437c0-.22.273-.418.826-.509h1.406c.552.091.826.29.826.514s-.274.418-.826.515h-1.406c-.553-.097-.826-.29-.826-.52zM229.85 298.437c0-.22.273-.418.825-.509h1.406c.552.091.826.29.826.514s-.274.418-.826.515h-1.406c-.552-.097-.826-.29-.826-.52zM223.733 298.437c0-.22.274-.418.827-.509h1.405c.553.091.826.29.826.514s-.273.418-.826.515h-1.405c-.553-.097-.827-.29-.827-.52zM217.618 298.437c0-.22.273-.418.826-.509h1.405c.553.091.826.29.826.514s-.273.418-.826.515h-1.405c-.553-.097-.826-.29-.826-.52zM211.502 298.437c0-.22.273-.418.826-.509h1.406c.552.091.826.29.826.514s-.274.418-.826.515h-1.406c-.553-.097-.826-.29-.826-.52zM205.386 298.437c0-.22.274-.418.826-.509h1.406c.552.091.826.29.826.514s-.274.418-.826.515h-1.406c-.552-.097-.826-.29-.826-.52zM199.27 298.437c0-.22.274-.418.827-.509h1.405c.553.091.826.29.826.514s-.273.418-.826.515h-1.405c-.553-.097-.827-.29-.827-.52zM193.154 298.437c0-.22.274-.418.827-.509h1.405c.553.091.826.29.826.514s-.273.418-.826.515h-1.405c-.553-.097-.827-.29-.827-.52zM187.039 298.437c0-.22.273-.418.826-.509h1.406c.552.091.826.29.826.514s-.274.418-.826.515h-1.406c-.553-.097-.826-.29-.826-.52zM180.923 298.437c0-.22.273-.418.826-.509h1.406c.552.091.826.29.826.514s-.274.418-.826.515h-1.406c-.553-.097-.826-.29-.826-.52zM175.053 296.956c.106-.194.433-.233.951-.095.408.187.828.35 1.255.489.475.248.69.498.635.718-.053.216-.373.345-.953.26a12.7 12.7 0 0 1-1.364-.531c-.485-.33-.634-.64-.524-.84zM172.218 294.857c.162-.163.327-.269.453-.278l.154.147c-.002.124-.105.3-.257.466-.153.165-.315.277-.447.284l-.167-.16c0-.13.109-.303.264-.459z" class="colord5e1fa svgShape"/><path fill="#f4a83d" d="M291.103 318.099v16.357h-17.776c-4.516 0-8.185-3.67-8.185-8.185 0-2.251.924-4.294 2.394-5.778a8.151 8.151 0 0 1 5.79-2.394h17.777z" class="colorf4573d svgShape"/><path fill="#ef9d29" d="M281.619 318.099h9.484v16.357h-9.484z" class="coloref4129 svgShape"/><circle cx="272.67" cy="326.278" r="3.84" fill="#ffffff" class="colorfff svgShape"/><circle cx="272.67" cy="326.278" r="3.055" fill="#2b2b2b" class="color2b2b2b svgShape"/><path fill="#fff2e1" d="M222.698 113.752h-33.013a.535.535 0 0 1-.535-.536v-9.204c0-.296.24-.535.535-.535h33.013c.296 0 .535.24.535.535v9.204c0 .296-.24.536-.535.536zm-32.478-1.07h31.943v-8.135H190.22v8.134z" class="colore1ebff svgShape"/><path fill="#fff2e1" d="M255.712 113.752h-33.014a.535.535 0 0 1-.535-.536v-9.204c0-.296.239-.535.535-.535h33.014c.295 0 .535.24.535.535v9.204c0 .296-.24.536-.535.536zm-32.479-1.07h31.943v-8.135h-31.943v8.134z" class="colore1ebff svgShape"/><path fill="#fff2e1" d="M239.205 122.956h-33.013a.535.535 0 0 1-.535-.535v-9.205c0-.295.24-.535.535-.535h33.013c.296 0 .535.24.535.535v9.205c0 .295-.24.535-.535.535zm-32.478-1.07h31.943v-8.134h-31.943v8.133zM239.205 104.547h-33.013a.535.535 0 0 1-.535-.535v-9.204c0-.296.24-.535.535-.535h33.013c.296 0 .535.24.535.535v9.204c0 .296-.24.535-.535.535zm-32.478-1.07h31.943v-8.134h-31.943v8.134z" class="colore1ebff svgShape"/><path fill="#fff2e1" d="M206.192 122.956h-4.017a.535.535 0 1 1 0-1.07h4.017a.535.535 0 1 1 0 1.07zM246.135 95.343h-6.93a.535.535 0 1 1 0-1.07h6.93a.535.535 0 1 1 0 1.07zM191.538 104.547h-6.615a.535.535 0 1 1 0-1.07h6.615a.535.535 0 1 1 0 1.07z" class="colore1ebff svgShape"/><path fill="#ffa30f" d="M270.562 236.965c-1.75 2.743-5.407 3.55-8.15 1.799s-3.55-5.408-1.799-8.15 5.408-3.55 8.151-1.8a5.909 5.909 0 0 1 1.798 8.151zm-7.734-4.938a3.278 3.278 0 0 0 .998 4.522 3.278 3.278 0 0 0 4.522-.998 3.278 3.278 0 0 0-.998-4.522 3.278 3.278 0 0 0-4.522.998z" class="coloredf3ff svgShape"/><path fill="#ffe7c5" d="M173.573 133.515a1.31 1.31 0 0 1-.824.576l-8.801 1.942a1.314 1.314 0 0 1-1.567-1l-1.942-8.801a1.314 1.314 0 0 1 1-1.566l8.801-1.942a1.314 1.314 0 0 1 1.567 1l1.942 8.801a1.31 1.31 0 0 1-.176.99zm-8.909-.33 6.236-1.377-1.376-6.235-6.236 1.376 1.376 6.235z" class="colorffc5c5 svgShape"/><path fill="#b57e32" d="M293.085 191.623c-1.42.386-2.937.455-4.573.228-1.635-.225-3.272-.736-4.92-1.512l-1.994 1.9a1.56 1.56 0 0 1-.895.42 1.67 1.67 0 0 1-1.014-.183c-.297-.155-.473-.359-.519-.602-.048-.244.06-.492.323-.741l1.994-1.901c-2.371-1.414-4.345-2.97-5.883-4.69a.998.998 0 0 1-.27-.763c.018-.287.154-.554.396-.784.318-.304.733-.504 1.251-.607.518-.1.99-.054 1.429.14.242.106.435.245.578.416 1.282 1.528 2.928 2.852 4.915 3.985l6.46-6.158c-1.238-1.135-2.225-2.139-2.942-3.037-.714-.899-1.094-1.852-1.125-2.876-.034-1.022.505-2.058 1.607-3.11.972-.925 2.187-1.65 3.63-2.162 1.445-.512 3.048-.749 4.798-.7 1.746.048 3.51.436 5.268 1.176l1.967-1.874c.24-.232.546-.377.912-.437s.698-.008.995.148c.298.158.47.372.504.644.037.272-.067.523-.31.755l-1.938 1.847c2.157 1.28 3.775 2.699 4.883 4.227.423.55.344 1.098-.215 1.632-.3.286-.689.471-1.17.555-.483.082-.916.008-1.31-.231-.128-.081-.267-.221-.412-.424-1.04-1.322-2.415-2.495-4.136-3.51l-6.683 6.37c1.323 1.191 2.31 2.284 2.984 3.258.67.975.982 2.03.932 3.166-.05 1.133-.687 2.285-1.904 3.445-.991.945-2.193 1.61-3.613 1.99zm-2.395-16.188c.344.809 1.125 1.739 2.314 2.82l6.18-5.89c-1.539-.574-3.015-.803-4.402-.703-1.39.097-2.516.564-3.379 1.385-.825.786-1.06 1.578-.713 2.388zm3.282 12.202c.716-.706.876-1.478.474-2.315-.407-.833-1.224-1.86-2.496-3.042l-5.913 5.821c3.436 1.516 6.02 1.422 7.935-.464zM262.103 279.928c.249.768.257 1.603.04 2.519-.216.914-.647 1.842-1.277 2.79l1.369 1.015a.686.686 0 0 1 .289.476c.025.193-.03.382-.167.569a.756.756 0 0 1-.466.314c-.185.038-.368-.01-.547-.145l-1.37-1.015c-1.128 1.375-2.352 2.538-3.688 3.467-.17.12-.363.181-.58.184a.926.926 0 0 1-.576-.183 1.086 1.086 0 0 1-.42-.664 1.033 1.033 0 0 1 .146-.797c.087-.138.197-.251.33-.338a13.279 13.279 0 0 0 3.13-2.9c-1.477-1.098-2.956-2.195-4.434-3.292-.887.737-1.669 1.329-2.363 1.766-.695.436-1.422.69-2.19.753-.768.066-1.53-.185-2.288-.747a4.717 4.717 0 0 1-1.518-1.908c-.342-.776-.474-1.651-.387-2.621.086-.968.428-1.962 1.034-2.967l-1.35-1.002a.735.735 0 0 1-.161-1.042.74.74 0 0 1 .498-.308.71.71 0 0 1 .557.137l1.33.988c1.022-1.252 2.133-2.211 3.312-2.893.425-.26.834-.241 1.218.044.206.153.334.359.383.622.048.263-.02.505-.211.734a1.271 1.271 0 0 1-.33.247 11.104 11.104 0 0 0-2.753 2.448l4.588 3.405c.932-.786 1.78-1.381 2.53-1.799a5.204 5.204 0 0 1 2.403-.66c.848-.024 1.694.275 2.53.896.68.505 1.144 1.139 1.39 1.907zm-12.215 2.063c.616-.227 1.337-.702 2.182-1.408l-4.242-3.149c-.474.877-.689 1.704-.654 2.466.033.765.35 1.366.943 1.806.566.42 1.153.514 1.77.285zm9.25-2.372c-.51-.364-1.084-.416-1.724-.156-.637.263-1.43.762-2.354 1.519l4.198 3.004c1.236-1.97 1.24-3.394-.12-4.367zM219.942 274.154c.645 0 1.281.2 1.923.591.64.39 1.24.945 1.804 1.657l1.109-.79a.548.548 0 0 1 .432-.102.621.621 0 0 1 .391.267c.1.137.142.283.124.432a.533.533 0 0 1-.244.38l-1.11.789c.767 1.196 1.349 2.412 1.725 3.656a.804.804 0 0 1-.003.485.74.74 0 0 1-.28.393.867.867 0 0 1-.609.155.825.825 0 0 1-.569-.307.872.872 0 0 1-.176-.333c-.3-1.091-.78-2.12-1.43-3.093l-3.593 2.557c.34.855.598 1.595.759 2.23.16.635.173 1.25.032 1.849-.14.6-.517 1.116-1.13 1.553-.54.384-1.151.614-1.824.683-.674.069-1.371-.047-2.086-.352-.714-.304-1.385-.808-1.999-1.516l-1.093.778a.587.587 0 0 1-.831-.134.591.591 0 0 1-.112-.454.567.567 0 0 1 .242-.39l1.077-.766c-.698-1.085-1.153-2.165-1.38-3.229-.093-.386.022-.692.333-.914a.772.772 0 0 1 .566-.137c.212.028.38.14.506.341.041.067.077.17.107.312a8.866 8.866 0 0 0 1.18 2.693l3.717-2.645c-.368-.902-.61-1.693-.743-2.365-.13-.673-.1-1.335.09-1.987.192-.65.627-1.22 1.304-1.701a3.003 3.003 0 0 1 1.79-.586zm-1.442 9.786c-.021-.524-.204-1.188-.533-2.004l-3.436 2.446c.55.576 1.125.943 1.712 1.104.589.163 1.124.07 1.603-.271.46-.326.675-.75.654-1.275zm.477-7.61c-.402.297-.584.721-.543 1.271.043.549.226 1.274.573 2.162l3.316-2.448c-1.191-1.424-2.272-1.777-3.346-.984z" class="color32b5b3 svgShape"/></svg>