<svg xmlns="http://www.w3.org/2000/svg" data-name="Layer 1" viewBox="0 0 1200 900"><path fill="#fcf0e0" d="M214.298 573.723c3.722 26.024 23.862 142.764 120.852 204.436 136.08 86.527 313.362-5.335 361.996-30.536C808.64 689.85 1026.206 524.6 983.393 325.337 949.104 165.748 756.86 76.38 608.277 86.292 363.426 102.63 184.77 367.253 214.297 573.723Z" class="colore0ecfc svgShape"/><path fill="#f3d8b3" d="M907.78 748.225h73.302l24.705-27.658-24.705-27.657H907.78v55.315z" class="colorb3c8f3 svgShape"/><path fill="#c1904c" d="M907.78 800.65s16.87 2.591 19.951-32.534 24.676-90.693 35.04-93.86 23.61-7.454 17.276 17.003-29.943 69.371-31.095 89.525-8.35 67.947-41.172 64.492Z" class="color8ec14c svgShape"/><path fill="#2f200b" d="m916.224 828.678-.527-1.93.263.966-.268-.964c.131-.037 13.128-4.027 16.722-30.84 3.57-26.642 29.185-110.895 41.292-119.587l1.166 1.625c-10.834 7.778-36.642 89.618-40.476 118.228-3.787 28.26-17.586 32.342-18.172 32.502Z" class="color2f170b svgShape"/><path fill="#c1904c" d="M886.853 730.65s-16.869 2.591-19.95-32.534-24.676-90.693-35.041-93.86-23.609-7.454-17.275 17.003 29.943 69.371 31.095 89.525 8.35 67.947 41.171 64.492Z" class="color8ec14c svgShape"/><path fill="#2f200b" d="M878.41 758.678c-.586-.16-14.385-4.242-18.172-32.502-3.835-28.61-29.643-110.45-40.476-118.228l1.166-1.625c12.106 8.691 37.72 92.945 41.292 119.587 3.593 26.813 16.59 30.803 16.722 30.84Z" class="color2f170b svgShape"/><path fill="#f3d8b3" d="M841.22 831.751h112.194v14.533H841.22zM864.4 817.218h65.834v14.533H864.4zM886.853 598.471h-93.301l-24.706-27.657 24.706-27.658h93.301v55.315z" class="colorb3c8f3 svgShape"/><path fill="#2f200b" d="M1053.647 644.814H904.78v-57.315h148.867l25.6 28.657Zm-146.867-2h145.971l23.813-26.658-23.813-26.657h-145.97Z" class="color2f170b svgShape"/><path fill="#f3d8b3" d="M907.78 531.983h110.36l24.706-27.657-24.706-27.658H907.78v55.315zM325.552 420.851l-16.188-16.5c7.239-6.19 11.64-14.319 11.64-23.23 0-19.381-20.788-35.093-46.431-35.093s-46.433 15.712-46.433 35.094 20.789 35.094 46.433 35.094a58.562 58.562 0 0 0 21.439-3.967Z" class="colorb3c8f3 svgShape"/><path fill="#edb669" d="M297.788 370.586h-46.589a1.5 1.5 0 1 1 0-3h46.589a1.5 1.5 0 0 1 0 3ZM297.788 380.704h-46.589a1.5 1.5 0 0 1 0-3h46.589a1.5 1.5 0 0 1 0 3ZM297.788 390.822h-46.589a1.5 1.5 0 1 1 0-3h46.589a1.5 1.5 0 0 1 0 3Z" class="color6986ed svgShape"/><path fill="#c1904c" d="M296.064 753.097c7.8-3.616 12.11-10.184 20.729-23.32 6.099-9.295 6.553-13.243 6.622-15.26.167-4.837-1.569-7.41-.288-13.245a24.51 24.51 0 0 1 3.743-8.637c2.492-3.538 3.884-3.312 8.35-7.773 4.082-4.077 6.284-6.276 7.197-9.789.84-3.224-.299-4.134-.576-11.229-.185-4.74-.278-7.107.288-9.501 1.598-6.756 7.081-11.538 12.67-16.411 4.473-3.902 6.458-4.63 7.484-7.774.987-3.023.396-6.162-.288-9.789-.87-4.62-1.79-5.5-2.302-8.06-1.504-7.504 4.389-9.891 5.757-19.579 1.135-8.042-1.732-14.843-2.879-17.563-3.142-7.455-5.937-7.073-8.06-12.956-3.973-11.005 2.72-20.892.287-22.17-1.642-.861-4.724 3.62-15.835 13.821-8.992 8.256-11.755 9.71-14.108 10.652-6.297 2.519-8.428.867-11.805 3.744-4.663 3.97-1.984 8.297-6.91 14.395-1.054 1.305-4.35 3.558-10.94 8.061-7.69 5.256-8.45 5.384-9.501 7.199-1.557 2.692-.757 3.923-1.44 14.107-.415 6.18-.623 9.268-1.44 10.94-2.797 5.718-7.4 4.712-11.228 10.653-2.013 3.126-2.398 6.116-3.168 12.093-1.123 8.733.653 10.788-1.151 16.698-1.198 3.92-2.094 3.392-5.183 9.501a57.583 57.583 0 0 0-6.333 19.578c-1.036 8.868 1.938 8.458.864 16.124-1.364 9.728-6.233 11.496-6.91 20.442-.093 1.215-.516 7.949 2.59 13.82 6.812 12.876 28.789 18.171 43.764 11.228Z" class="color8ec14c svgShape"/><path fill="#2f200b" d="m267.31 753.686-1.906-.609c.47-1.472 47.496-148 88.547-213.566l1.695 1.061c-40.919 65.356-87.868 211.644-88.337 213.114Z" class="color2f170b svgShape"/><path fill="#2f200b" d="M319.123 610.784v-44.888h2v41.325l43.167-26.342 1.042 1.707-46.209 28.198z" class="color2f170b svgShape"/><path fill="#2f200b" d="m307.02 640.394-12.789-49.429 1.937-.501 12.162 47.012 50.907-26.058.911 1.78-53.128 27.196zM296.326 666.137l51.235-22.716.81 1.828-51.234 22.716zM284.849 697.695l47.248-11.166.46 1.946-47.248 11.166zM272.76 732.198l49.973-15.932.608 1.906-49.974 15.932z" class="color2f170b svgShape"/><path fill="#c1904c" d="M301.755 800.65s16.869 2.591 19.951-32.534 24.676-90.693 35.04-93.86 23.61-7.454 17.275 17.003-29.943 69.371-31.094 89.525-8.35 67.947-41.172 64.492Z" class="color8ec14c svgShape"/><path fill="#2f200b" d="m310.199 828.678-.528-1.93.264.966-.268-.964c.13-.037 13.128-4.027 16.721-30.84 3.571-26.642 29.186-110.896 41.292-119.587l1.166 1.625c-10.833 7.777-36.64 89.618-40.475 118.228-3.787 28.26-17.587 32.342-18.172 32.502Z" class="color2f170b svgShape"/><path fill="#c1904c" d="M149.926 819.685s-16.41-20.73-16.41-61.326-12.957-89.982-13.389-99.19 3.455-15.255 10.797-11.368 15.98 13.388 19.002 34.981Z" class="color8ec14c svgShape"/><path fill="#2f200b" d="M148.94 785.738c-.077-.45-7.784-45.26-7.356-66.859.423-21.275-14.44-53.56-14.59-53.884l1.814-.842c.621 1.338 15.208 33.032 14.776 54.766-.424 21.408 7.25 66.03 7.328 66.478Z" class="color2f170b svgShape"/><path fill="#f3d8b3" d="M301.369 846.284H149.926V677.711a75.721 75.721 0 0 1 75.721-75.721 75.721 75.721 0 0 1 75.722 75.721Z" class="colorb3c8f3 svgShape"/><path fill="#ddb47a" d="M225.647 601.99a75.72 75.72 0 0 0-75.72 75.72v41.751h151.442v-41.75a75.722 75.722 0 0 0-75.722-75.72Z" class="color7a97dd svgShape"/><path fill="#f3d8b3" d="M648.846 171.91h210.235v151.059H648.846z" class="colorb3c8f3 svgShape"/><path fill="#fcead2" d="M859.082 322.969V188.67a38.413 38.413 0 0 0-3.484 2.307c-7.813 5.872-10.334 14.582-15.059 31.764-10.305 37.483-9.5 35.45-10.588 38.588-4.733 13.647-10.375 29.914-23.765 44.47-9.556 10.391-17.722 14.111-22.73 17.17Z" class="colorfcd2e0 svgShape"/><path fill="#2f200b" d="M705.846 171.91h2v151.059h-2z" class="color2f170b svgShape"/><path fill="#edb669" d="M835.317 171.91c-6.302 11.693-13.49 27.47-17.094 43.92-7.08 32.306-39.675 97.5-71.693 107.08l.018.059h20.366c29.838-23.192 54.996-77.248 61.076-105 3.846-17.55 12.321-34.692 18.804-46.059Z" class="color6986ed svgShape"/><path fill="#fcead2" d="M666.964 189.557h28.941v12.706h-28.941z" class="colorfcd2e0 svgShape"/><path fill="#edb669" d="M718.611 189.557h28.941v12.706h-28.941z" class="color6986ed svgShape"/><path fill="#2f200b" d="M800.552 203.263h-30.941v-14.706h30.941Zm-28.941-2h26.941v-10.706h-26.941ZM666.964 303.439h28.941v12.706h-28.941zM696.905 275.734h-30.941v-14.706h30.941Zm-28.941-2h26.941v-10.706h-26.941ZM648.846 208.792h210.235v2H648.846zM648.846 287.859h210.235v2H648.846z" class="color2f170b svgShape"/><path fill="#2f200b" d="m784.456 290.865-78.61-59.272V217.27h-57v-2h59v15.325l74.61 56.257v-42.758h-15.623v-34.302h2v32.302h15.623v48.771z" class="color2f170b svgShape"/><path fill="#2f200b" d="M825.304 304.439h-91.647v-15.58h2v13.58h87.647v-37.757h14.823v-41.764h-32.47V171.91h2v49.008h32.47v45.764h-14.823v37.757z" class="color2f170b svgShape"/><path fill="#f7960d" d="M741.66 160.737c0 8.058-14.591 36.938-14.591 36.938s-14.591-28.88-14.591-36.938a14.591 14.591 0 1 1 29.182 0Z" class="colore23203 svgShape"/><circle cx="727.069" cy="161.788" r="6.704" fill="#ffa30f" class="colorffac06 svgShape"/><path fill="#ddb47a" d="M886.853 454.187h20.927v363.257h-20.927z" class="color7a97dd svgShape"/><path fill="#2f200b" d="M655.82 294.318s1.08 1.906 0 14.392a35.245 35.245 0 0 1-8.223 19.969l-5.457-26.467Z" class="color2f170b svgShape"/><path fill="#ffbf66" d="m606.762 323-6.807 41.966-.432 1.828a11.04 11.04 0 0 0 7.142 12.998 39.507 39.507 0 0 0 9.997 1.975c17.991 4.223 18.591-21.976 18.591-21.976l1.125-24.773Z" class="colorea9d7d svgShape"/><path fill="#2f200b" d="M612.293 329.486c1.296 3.34 3.16 10.304 12.018 15.168 4.123 2.264 6.86 1.978 11.532 2.144l.535-11.78s-25.402-9.036-24.085-5.532Z" class="color2f170b svgShape"/><path fill="#ffbf66" d="M650.064 288.258s2.808 18.037 2.175 30.517c-.456 10.112-4.712 15.72-9.747 18.084s-14.362.295-21.224-2.114c-5.808-2.05-9.337-4.581-10.632-7.92-1.318-3.505-3.593-7.882-3.593-7.882l-1.136-10.73 8.961-28.695Z" class="colorea9d7d svgShape"/><path fill="#2f200b" d="M592.922 280.685a43.187 43.187 0 0 0-9.383 24.398c-1.767 26.201 20.691 29.988 20.691 29.988s2.25-20.238 6.305-23.64c4.544 1.386 8.519-.164 8.491-7.697.001-8.541-.975-14.436.205-15.603 1.628-1.563 4.648-.302 15.761 1.356s18.25 1.182 19.13-.948c.896-.793-3.996-7.156-10.39-13.48-6.767-6.61-17.239-9.695-25.503-8.897-8.638.514-16.349 2.911-25.308 14.523Z" class="color2f170b svgShape"/><path fill="#2f200b" d="M592.921 280.685a52.372 52.372 0 0 0-9.383 24.398c-1.878 15.033-13.758 41.51-26.358 47.531 0 0 4.207 5.102 21.6 8.902s22.053-1.96 22.053-1.96l5.074-32.898v-32.19Z" class="color2f170b svgShape"/><ellipse cx="603.179" cy="317.631" fill="#ffbf66" rx="8.794" ry="9.458" transform="rotate(-7.807 603.179 317.63)" class="colorea9d7d svgShape"/><ellipse cx="620.138" cy="292.002" fill="#ffad29" rx="74.731" ry="17.91" transform="rotate(-15 620.138 292.002)" class="colorffc929 svgShape"/><path fill="#ffad29" d="M646.376 286.732a158.07 158.07 0 0 1-52.875 14.168 5.408 5.408 0 0 1-4.415-.811 5.203 5.203 0 0 1-2.16-3.935l-.171-29.235a12 12 0 0 1 8.894-11.661l26.046-6.98a12 12 0 0 1 13.533 5.653l14.468 25.404a5.23 5.23 0 0 1-3.32 7.397Z" class="colorffc929 svgShape"/><path fill="#2f200b" d="M648.185 276.325a5.21 5.21 0 0 1-3.649 3.541 158.07 158.07 0 0 1-52.875 14.168 5.408 5.408 0 0 1-4.414-.81 5.288 5.288 0 0 1-.517-.432l.197 3.362a5.203 5.203 0 0 0 2.16 3.935 5.408 5.408 0 0 0 4.414.811 158.07 158.07 0 0 0 52.875-14.168 5.23 5.23 0 0 0 3.32-7.397Z" class="color2f170b svgShape"/><path fill="#2f200b" d="M587.02 296.873a36.906 36.906 0 0 1-.582-6.423 36.483 36.483 0 0 1 .417-6.435 36.484 36.484 0 0 1 .582 6.423 36.907 36.907 0 0 1-.417 6.435ZM643.58 268.596a31.25 31.25 0 0 1 3.284 4.941 30.889 30.889 0 0 1 2.408 5.423 30.906 30.906 0 0 1-3.284-4.942 31.266 31.266 0 0 1-2.408-5.422Z" class="color2f170b svgShape"/><path fill="#dea14c" d="m748.359 845.984-96.8.3a4.513 4.513 0 0 1-4.5-3.7l-6.9-35.5a4.535 4.535 0 0 1 4.1-5.4c9.6-.8 53 8.1 59.8 4l47.5 22.7a4.5 4.5 0 0 1 2.5 4.7l-1.2 8.9a4.455 4.455 0 0 1-4.5 4Z" class="color4c69de svgShape"/><path fill="#dea14c" d="M753.359 838.584c-8.9-.3-17.9-.5-26.8-.6l-26.8-.5-26.8-.2c-8.9-.1-17.9-.1-26.8-.1 8.9.3 17.9.5 26.8.6l26.8.5 26.8.2c8.9.1 17.9.1 26.8.1ZM708.759 819.284a38.25 38.25 0 0 0 3.4-7.4 26 26 0 0 0 1-4 7.21 7.21 0 0 0-.3-4.1 10.188 10.188 0 0 1-.4 3.9c-.3 1.3-.7 2.6-1.1 3.8-.8 2.7-1.8 5.2-2.6 7.8Z" class="color4c69de svgShape"/><path fill="#ffbf66" d="m704.059 805.784-26.8-29.1-35 12.9 2.1 12.2c-.1 0 48.1 10.5 59.7 4Z" class="colorea9d7d svgShape"/><path fill="#dea14c" d="m634.059 845.984-96.8.3a4.513 4.513 0 0 1-4.5-3.7l3.4-31.1c-.5-2.7 1.8-9.2 4.6-9.4 9.6-.8 42.3 7.7 49 3.6l47.5 22.7a4.5 4.5 0 0 1 2.5 4.7l-1.2 8.9a4.455 4.455 0 0 1-4.5 4Z" class="color4c69de svgShape"/><path fill="#dea14c" d="M639.059 838.584c-8.9-.3-17.9-.5-26.8-.6l-26.8-.5-26.8-.2c-8.9-.1-17.9-.1-26.8-.1 8.9.3 17.9.5 26.8.6l26.8.5 26.8.2c8.9.1 17.9.1 26.8.1ZM594.459 819.284a38.25 38.25 0 0 0 3.4-7.4 26 26 0 0 0 1-4 7.21 7.21 0 0 0-.3-4.1 10.188 10.188 0 0 1-.4 3.9c-.3 1.3-.7 2.6-1.1 3.8-.8 2.7-1.8 5.2-2.6 7.8Z" class="color4c69de svgShape"/><path fill="#ffbf66" d="m589.759 805.784-26.9-29.1-21.2 7.8-.9 17.7c0-.1 37.4 10.1 49 3.6Z" class="colorea9d7d svgShape"/><path fill="#ba7008" d="M651.759 481.684s14.3 42.2 8.9 87.3c-5.4 45.2-8.9 66.8-8.9 66.8l-54.5 163.4h-72.4l73.6-225.2v-92.3Z" class="color63ba08 svgShape"/><path fill="#2f200b" d="M604.659 504.284h-6.2v69.7l-22.6 69.3c16.6 42.6 24.5 63.6 32 95.5 1.3 5.4 2.7 10.9 4.1 16.4l38.3-114.8c-13.3-37.1-45.6-136.1-45.6-136.1Z" class="color2f170b svgShape"/><path fill="#ba7008" d="M564.759 481.684s-17 50 7 112 33.5 84.5 42.5 122.5 23 83 23 83h71s-40-153-47-169-50.2-148.5-50.2-148.5Z" class="color63ba08 svgShape"/><path fill="#2f200b" d="M655.059 613.384c.5-3.7 1.1-7.9 1.7-12.5l-29.5-69.9Z" class="color2f170b svgShape"/><path fill="#ffffff" d="M611.787 483.914c-2.8 10.87-11.046 35.391-28.65 36.474l.244 3.992c17.481-1.075 26.542-20.66 30.645-33.619-.97-2.96-1.731-5.291-2.24-6.847Z" class="colorfff svgShape"/><path fill="#ffad29" d="m511.72 636.484 28.7-66.1-11.5-3.9-26.8 65.9Z" class="colorffc929 svgShape"/><path fill="#ffbf66" d="M752.62 473.784s-75.8 1.8-83.5-3.6-23.3-64.3-23.3-64.3l31.4-1.1 17.5 39.8 56.4 8.1s21.8-12.6 22.7-2.1c0 0 12.1-.9 9 18.4s-23.2 3.9-31.5 4.6Z" class="colorea9d7d svgShape"/><path fill="#2f200b" d="m694.62 444.684-8.3 7.2 4.9-15.1ZM743.72 476.984a3 3 0 0 1-3-3v-22.2a3 3 0 0 1 6 0v22.2a3 3 0 0 1-3 3Z" class="color2f170b svgShape"/><path fill="#ffad29" d="m401.92 839.784-63.2-27.1a20.953 20.953 0 0 1-11-27.6l74-173a20.953 20.953 0 0 1 27.6-11l82.5 35.3-82.3 192.3a20.915 20.915 0 0 1-27.6 11.1Z" class="colorffc929 svgShape"/><path fill="#ffbf66" d="M575.92 414.884s-24.7 62-25.9 72.1-6.8 82-6.8 82 11.2 22.9.7 22.5c0 0-.6 12.1-19.4 6.6s-.9-23.5-.6-31.8c.3-8.4-5.8-68-4.4-82.2s8.3-59.4 37.6-97.6Z" class="colorea9d7d svgShape"/><path fill="#2f200b" d="M549.92 488.484c.1-.6.1-1.1.2-1.5a34.134 34.134 0 0 1 2.4-7.5c-1.3-.8-4.1-1.8-9.8-2.3ZM417.82 846.284a24.8 24.8 0 1 0-24.8-24.8 24.8 24.8 0 0 0 24.8 24.8Z" class="color2f170b svgShape"/><path fill="#dea14c" d="M417.82 836.484a15 15 0 1 0-15-15 15 15 0 0 0 15 15Z" class="color4c69de svgShape"/><path fill="#2f200b" d="M417.82 828.984a7.5 7.5 0 1 0-7.5-7.5 7.5 7.5 0 0 0 7.5 7.5Z" class="color2f170b svgShape"/><path fill="#ffffff" d="m367.467 825.109 88.815-212.293 3.69 1.544-88.815 212.293z" class="colorfff svgShape"/><path fill="#ffbf66" d="m633.02 355.784 9 1.1a31.98 31.98 0 0 1 25 18l14.4 57.3-25.4 2.7s-.9 22-11.8 25.4l7.7 32.5s-73.274 5.505-87.174 4.005l8.574-62.205h-35.6l15.5-58.4a35.436 35.436 0 0 1 34.3-22.3l13.5.5s-.1 12.5 14 13.8c14.4 1.4 18-12.4 18-12.4Z" class="colorea9d7d svgShape"/><path fill="#f7960d" d="m633.02 355.784 9 1.1 14 78s-.9 22-11.8 25.4l7.7 32.5s-73.7 2.655-87.6 1.155l9-59.355 7.4-81 20.3.7s-.1 12.5 14 13.8c14.4 1.5 18-12.3 18-12.3Z" class="colore23203 svgShape"/><path fill="#2f200b" d="m573.42 434.584 3.6-33.1s-5.4 55.1 12.8 61.3c18.3 6.2 54.5-2.5 54.5-2.5l12.012 32.367s-84.903 8.433-97.603 5.633Z" class="color2f170b svgShape"/><path fill="#f7960d" d="m645.82 377.884 21.2-3 27.8 49.1s-19.9 19.4-38.8 10.9l-16.12-24.98ZM578.42 379.084l-25.2-3-28.7 58.1s22.3 13.3 48.3 3.1l4.2-35.8 20.52-11.56Z" class="colore23203 svgShape"/></svg>