<svg xmlns="http://www.w3.org/2000/svg" viewBox="0 0 2300 2000"><g style="isolation:isolate" fill="#ffa30f" class="color000 svgShape"><polygon fill="#f7f1e8" points="1299.73 728.96 91.9 1428.88 1016.36 1970.86 2224.18 1269.39 1299.73 728.96" class="colore8eaf7 svgShape"/><polygon fill="#856436" points="1283.37 671.71 75.82 1324.14 75.84 1372.15 1000.52 1913.73 2208.05 1211.74 2208.03 1163.74 1283.37 671.71" class="color364085 svgShape"/><polygon fill="#ffffff" points="1299.73 599.08 91.9 1299 1016.36 1840.97 2224.18 1139.5 1299.73 599.08" class="colorfff svgShape"/><path fill="#f7f1e8" d="M1930.86,1073.83l91.36-53-10-5.87-91.39,53L1690.59,934.39l92.23-53.53-10-5.87-92.26,53.55L1444.15,791.36l93.11-54.05-10-5.88-93.16,54.07-227.3-131.91-10.1,5.85L1424,791.36l-231,134-227.49-132-10.09,5.86,227.5,132L946.54,1068.44,718.86,936.31l-10.09,5.85L936.46,1074.3,706.27,1207.89,478.41,1075.64l-10.09,5.86,227.87,132.24L465.13,1347.85l-228-132.36-10.1,5.85L455,1353.71l-135,78.37,10,5.9,135.11-78.42,236.36,137.18-136.3,79.1,10,5.88,136.34-79.12,230.18,133.58L804.25,1716l10,5.89L951.84,1642,1156,1760.51l10.08-5.85L961.92,1636.18,1193,1502.07,1397,1620.51l10.08-5.87-204-118.42,230.17-133.59,204,118.38,10.09-5.85-204-118.39,236.37-137.18,203.89,118.34,10.08-5.85-203.89-118.34,231-134L2124.59,1198l10.08-5.86ZM1434.05,797.21l236.38,137.18-231,134.05L1203.08,931.26ZM1193,937.12l236.37,137.18L1193,1211.48,956.62,1074.3Zm-246.44,143,236.36,137.18L952.72,1350.92,716.36,1213.74ZM475.21,1353.71l231.06-134.12,236.37,137.18L711.57,1490.89Zm476.63,276.62L721.65,1496.74l231.07-134.11,230.18,133.59Zm241.14-140L962.81,1356.77,1193,1223.19l230.19,133.58Zm240.27-139.44-230.17-133.59,236.36-137.18,230.17,133.59Zm246.46-143L1449.52,1074.3l231-134.06,230.19,133.59Z" class="colore8eaf7 svgShape"/><polygon fill="#f7f1e8" points="1755.92 1179.68 1042.92 765.54 970.18 808.03 1687.47 1219.52 1755.92 1179.68" class="colore8eaf7 svgShape"/><ellipse cx="697.31" cy="1209.44" fill="#f7f1e8" rx="138.81" ry="86.14" class="colore8eaf7 svgShape"/><ellipse cx="1242.38" cy="1495.91" fill="#f7f1e8" rx="138.81" ry="86.14" class="colore8eaf7 svgShape"/><ellipse cx="365.93" cy="1308.33" fill="#f7f1e8" rx="89.25" ry="55.39" class="colore8eaf7 svgShape"/><polygon fill="#a37b43" points="1791.1 526.36 1791.1 1145.31 1749.77 1175.53 1748.99 1176.1 1727.27 1162.47 1442.84 999.07 923.81 647.03 882.47 274.35 882.47 58.05 885.12 56.46 930.77 29.14 1791.1 526.36" class="color4346a3 svgShape"/><polygon fill="#856436" points="1791.1 526.36 1791.1 1145.31 1749.77 1175.53 1748.99 1176.1 1727.27 1162.47 1727.27 573.01 1749.77 556.56 1791.1 526.36" class="color364085 svgShape"/><polygon fill="#a37b43" points="1749.77 556.43 1749.77 1176.58 1748.99 1176.1 1727.27 1162.47 1442.84 999.07 882.47 677.12 882.47 54.94 885.12 56.46 1749.77 556.43" class="color4346a3 svgShape"/><polygon fill="#ffffff" points="940.94 340.84 940.94 278.94 902.32 256.61 902.32 318.51 940.94 340.84" class="colorfff svgShape"/><polygon fill="#ffffff" points="902.32 343.29 902.32 481.69 940.94 504.02 940.94 365.62 902.32 343.29" class="colorfff svgShape"/><polygon fill="#ffffff" points="1668.78 544.51 961.32 135.44 961.32 688.4 1668.78 1094.85 1668.78 544.51" class="colorfff svgShape"/><polygon fill="#f7f1e8" points="993.29 659.13 1632.94 1026.63 1632.94 987.01 993.29 619.52 993.29 659.13" class="colore8eaf7 svgShape"/><polygon fill="#f7f1e8" points="993.29 550.08 993.29 589.69 1632.94 959.56 1632.94 919.95 993.29 550.08" class="colore8eaf7 svgShape"/><polygon fill="#f7f1e8" points="1632.94 635.54 1632.94 675.15 1298.8 481.94 1298.8 442.33 1632.94 635.54" class="colore8eaf7 svgShape"/><polygon fill="#f7f1e8" points="1632.94 705.01 1632.94 744.63 1298.8 551.41 1298.8 511.79 1632.94 705.01" class="colore8eaf7 svgShape"/><polygon fill="#f7f1e8" points="1632.94 774.48 1632.94 814.09 1298.8 620.87 1298.8 581.26 1632.94 774.48" class="colore8eaf7 svgShape"/><polygon fill="#f7f1e8" points="1632.94 843.95 1632.94 883.56 1298.8 690.35 1298.8 650.74 1632.94 843.95" class="colore8eaf7 svgShape"/><polygon fill="#f7f1e8" points="1273.21 678.01 1273.21 426.36 993.29 264.51 993.29 517.2 1273.21 678.01" class="colore8eaf7 svgShape"/><ellipse cx="1708.29" cy="847.45" fill="#ffffff" rx="20.24" ry="35.05" transform="rotate(-30.31 1708.314 847.458)" class="colorfff svgShape"/><polygon fill="#f7f1e8" points="1632.94 546.75 993.29 176.88 993.29 242.01 1632.94 611.88 1632.94 546.75" class="colore8eaf7 svgShape"/><rect width="16.58" height="87.63" x="1154.55" y="620.03" fill="#ffffff" class="colorfff svgShape"/><rect width="16.58" height="74.6" x="1365.33" y="540.69" fill="#ffffff" class="colorfff svgShape"/><rect width="16.58" height="74.6" x="1522.82" y="565.56" fill="#ffffff" class="colorfff svgShape"/><rect width="16.58" height="87.63" x="1348.75" y="803.57" fill="#ffffff" class="colorfff svgShape"/><rect width="16.58" height="87.63" x="1495.58" y="897.12" fill="#ffffff" class="colorfff svgShape"/><rect width="16.58" height="75.79" x="1457.69" y="734.89" fill="#ffffff" class="colorfff svgShape"/><polygon fill="#f4b967" points="1837.14 961.68 1837.14 1130.35 1821.58 1140.32 1820.76 1140.86 1805.21 1131.86 1805.21 980.51 1821.5 970.9 1837.14 961.68" class="colora067f4 svgShape"/><polygon fill="#fbc579" points="1837.14 961.68 1821.5 970.9 1805.21 980.51 1479.87 792.48 1479.87 774.93 1481.32 774.19 1497.34 765.99 1837.14 961.68" class="colorfb79c3 svgShape"/><polygon fill="#f8c277" points="1821.58 970.95 1821.58 1141.33 1820.76 1140.86 1805.21 1131.86 1479.87 943.74 1479.87 773.35 1481.32 774.19 1821.5 970.9 1821.58 970.95" class="colorf8778d svgShape"/><polygon fill="#ffffff" points="1519.62 881.04 1518.17 880.21 1518.17 899.86 1519.62 900.69 1782.92 1052.94 1782.92 1033.29 1519.62 881.04" class="colorfff svgShape"/><polygon fill="#ffffff" points="1518.17 918.69 1518.17 938.34 1519.62 939.18 1782.92 1091.43 1782.92 1071.78 1519.62 919.53 1518.17 918.69" class="colorfff svgShape"/><polygon fill="#ffffff" points="1704.99 933.37 1596.1 870.4 1596.1 890.05 1704.99 953.02 1704.99 933.37" class="colorfff svgShape"/><polygon fill="#f4b967" points="1588.27 456.76 1588.27 571.74 1577.66 578.54 1577.1 578.9 1566.5 572.77 1566.5 469.6 1577.6 463.04 1588.27 456.76" class="colora067f4 svgShape"/><polygon fill="#fbc579" points="1588.27 456.76 1577.6 463.04 1566.5 469.6 1344.72 341.42 1344.72 329.46 1345.7 328.95 1356.63 323.36 1588.27 456.76" class="colorfb79c3 svgShape"/><polygon fill="#f8c277" points="1577.66 463.08 1577.66 579.23 1577.1 578.9 1566.5 572.77 1344.72 444.53 1344.72 328.38 1345.7 328.95 1577.6 463.04 1577.66 463.08" class="colorf8778d svgShape"/><polygon fill="#ffffff" points="1371.82 401.79 1370.83 401.22 1370.83 414.62 1371.82 415.19 1551.3 518.97 1551.3 505.58 1371.82 401.79" class="colorfff svgShape"/><polygon fill="#ffffff" points="1370.83 427.45 1370.83 440.85 1371.82 441.42 1551.3 545.21 1551.3 531.81 1371.82 428.02 1370.83 427.45" class="colorfff svgShape"/><polygon fill="#ffffff" points="1498.18 437.46 1423.95 394.54 1423.95 407.94 1498.18 450.86 1498.18 437.46" class="colorfff svgShape"/><polygon fill="#c88830" points="1149.81 431.03 1149.81 584.95 1135.62 594.05 1134.86 594.54 1120.67 586.34 1120.67 448.21 1135.54 439.44 1149.81 431.03" class="color3066c8 svgShape"/><polygon fill="#edaa4d" points="1149.81 431.03 1135.54 439.44 1120.67 448.21 823.77 276.62 823.77 260.61 825.09 259.93 839.72 252.44 1149.81 431.03" class="color4d86ed svgShape"/><polygon fill="#e2972e" points="1135.62 439.49 1135.62 594.97 1134.86 594.54 1120.67 586.34 823.77 414.65 823.77 259.17 825.09 259.93 1135.54 439.44 1135.62 439.49" class="color2ed4e2 svgShape"/><polygon fill="#ffffff" points="860.05 357.44 858.73 356.68 858.73 374.61 860.05 375.37 1100.33 514.31 1100.33 496.38 860.05 357.44" class="colorfff svgShape"/><polygon fill="#ffffff" points="858.73 391.8 858.73 409.73 860.05 410.49 1100.33 549.43 1100.33 531.5 860.05 392.56 858.73 391.8" class="colorfff svgShape"/><polygon fill="#ffffff" points="1029.22 405.2 929.84 347.73 929.84 365.67 1029.22 423.13 1029.22 405.2" class="colorfff svgShape"/><polygon fill="#f5e6d1" points="1035 1372.49 1295.83 1220.48 1451.29 1310.3 1190.46 1460.58 1035 1372.49" class="colord1d4f5 svgShape"/><path fill="#ffbf66" d="M817.4 907.39c32.23 18.8 6.77 13.71 6.77 13.71 11.31 25.46-13.58 35.65-23.77-8.49M651.69 867.6c20.26 31.33-.16 15.28-.16 15.28-1.41 27.83-28.22 25.67-17.36-18.31" class="colorffbd8b svgShape"/><path fill="#f7960d" d="M755.7,1251c-6.79-3.39-14.71-15.27-14.71-15.27v18.1H734.2s-5.66-46.39-5.66-50.92,5.66-5.66,5.66-5.66l-.31-2.52-3.08-25.2,26-1.7-5.09,30.55s11.88,22.64,17,26a10.3,10.3,0,0,0,6,1.56c2.74,0,5.07-.28,6.41,2.4C783.43,1232.87,769.28,1254.37,755.7,1251Z" class="color0f183f svgShape"/><path fill="#ffbf66" d="M774.75 1225.94c-22.12 10.09-34.25-9.29-40.86-31.24l-3.08-25.2 26-1.7-5.09 30.55s11.88 22.64 17 26A10.3 10.3 0 00774.75 1225.94zM679.53 1192.33c0 5.06-22.42 17.78-33 8.58-4.51-6.11-6.16-20.3-6.16-20.3l-8.23 16.13-6-3.09s16.06-43.89 18.11-47.93 7.62-2.46 7.62-2.46l0-.08.84-2.31 8.71-23.85 23.95 10.32L667 1152.24s.1 8.67.78 17c.48 6 1.26 11.7 2.51 13.93a10.31 10.31 0 004.66 4.13C677.34 1188.53 679.56 1189.33 679.53 1192.33z" class="colorffbd8b svgShape"/><path fill="#856436" d="M688.67,825.87c-25.46,39,4,157.86,4,157.86s-29.43,85.44-36.22,143.16l25.46,11.88s76.39-130.71,74.69-151.07-33.38-161.83-33.38-161.83Z" class="color364085 svgShape"/><path fill="#a37b43" d="M776.65,862.26c10.18,95,0,171.44,0,171.44l-19.24,142-36.78-3.39,6.22-142.59s-26-90-30-108.64-5.1-62.8-5.1-62.8" class="color4346a3 svgShape"/><path fill="#f8c277" d="M685.71,674.29c-47.13,18.22-53.92,117.24-59,194.76,0,0,17,2.26,29.43,0l6.79-63.37s22.06-45.27,33.38-75.82" class="colorf8778d svgShape"/><path fill="#f8c277" d="M782.69,863.33a36.79,36.79,0,0,1-.4,9.11c-51.48,22.63-106.37,3.4-104.67-15.84,8.49-35.08,10.75-63.94,0-82.61-4.73-8.21-10.55-19.92-13.28-33.75-3.48-17.6-1.94-38.62,13.28-60.18,10.18-10.18,21.5-10.75,53.75,0,42.52,14.18,56.58,23.77,56.58,48.1,0,9.62-1.13,58.28-7.35,75.82C775.49,818.38,781.82,846.52,782.69,863.33Z" class="colorf8778d svgShape"/><path fill="#f8c277" d="M782.29,872.44c-51.48,22.63-106.37,3.4-104.67-15.84,8.49-35.08,10.75-63.94,0-82.61-4.73-8.21-10.55-19.92-13.28-33.75,11.84,26.16,28.71,36.62,56.28,85.24,17.67,31.14,40.86,39.18,62.07,37.85A36.79,36.79,0,0,1,782.29,872.44Z" opacity=".43" class="colorf8778d svgShape"/><path fill="#f8c277" d="M821.9,909.79l-.91.5L801.53,921.1S773.24,856,769.28,847s-7.35-74.69-7.35-74.69-1.64-39.11,7.39-57.43c2.76-5.61,6.52-9.26,11.62-9.27,34.17-.06,22.29,129.51,22.29,129.51Z" class="colorf8778d svgShape"/><path fill="#f8c277" d="M821,910.29,801.53,921.1S773.24,856,769.28,847s-7.35-74.69-7.35-74.69-1.64-39.11,7.39-57.43C757.17,829.2,793.33,889.47,821,910.29Z" opacity=".43" class="colorf8778d svgShape"/><path fill="#f7960d" d="M679.53,1192.33c0,5.06-22.42,17.78-33,8.58-4.51-6.11-6.16-20.3-6.16-20.3l-8.23,16.13-6-3.09s16.06-43.89,18.11-47.93,7.62-2.46,7.62-2.46l0-.08c6.73,5.34,9.64,19,15.85,26,.48,6,1.26,11.7,2.51,13.93a10.31,10.31,0,0,0,4.66,4.13C677.34,1188.53,679.56,1189.33,679.53,1192.33Z" class="color0f183f svgShape"/><path fill="#ffbf66" d="M749.29,691.18s-36.59,17.15-36.59-10.29V655.73A51.36,51.36,0,0,1,694.4,610c3.43-29.73,51.46-51.46,74.34-22.87,12.57,18.3,9.8,71.87,5.71,80-5.71,11.44-26.3,1.15-26.3,1.15Z" class="colorffbd8b svgShape"/><path fill="#f7960d" d="M753.87,630.57c0-11.44,18.3-18.3,24-28.59a32,32,0,0,0,3-8.11,21.75,21.75,0,0,0-3-16.84,23,23,0,0,0-8.45-7.79,6.66,6.66,0,0,1-.71-.43c-3.44-2.28-51.47-24-74.34,21.73-22.87,21.73-3.43,57.18,18.3,65.19,0,11.43,30.88,8,32,0S753.87,630.57,753.87,630.57Z" class="color0f183f svgShape"/><path fill="#e2972e" d="M732.1,604.11a18.79,18.79,0,1,1-13.75-22.74A18.78,18.78,0,0,1,732.1,604.11Z" class="color2ed4e2 svgShape"/><path fill="#f7960d" d="M721,602.11c-8.88-12.61-22.22-20.91-38.63-20.06-23.9,1.23-41.16,22.4-44.08,47.35a58.58,58.58,0,0,0,2.37,25.12c14.4,43.52,2.69,57.82,2.69,57.82,35.2,3.77,79.65-15.84,88.3-56.43C735.57,637.28,731.29,616.78,721,602.11Z" class="color0f183f svgShape"/><circle cx="750.18" cy="636.2" r="10.5" fill="#f7960d" class="color0f183f svgShape"/><circle cx="750.18" cy="639.96" r="10.5" fill="#ffbf66" class="colorffbd8b svgShape"/><polygon fill="#856436" points="942.09 1426.82 942.09 1305.9 1202.92 1274.81 1358.38 1243.72 1358.38 1364.63 1097.55 1514.91 942.09 1426.82" class="color364085 svgShape"/><polygon fill="#a37b43" points="942.09 1305.9 1202.92 1153.89 1358.38 1243.72 1097.55 1394 942.09 1305.9" class="color4346a3 svgShape"/><path fill="#a37b43" d="M1284.78,1514.67l-28-3.75c-11.48-.57-14.09,24.32-14.09,24.32l3.87,5.72s31.12,47.42,48.63,42.52S1306,1550.78,1284.78,1514.67Z" class="color4346a3 svgShape"/><path fill="#856436" d="M1315.42,1482.43l-25.08,4.62c-10,2.74-5.28,24.84-5.28,24.84l4.92,3.82s40,32,53.68,22.88S1343.72,1507.5,1315.42,1482.43Z" class="color364085 svgShape"/><path fill="#ffe0b5" d="M1231.72,992.27c20.71-6.59,33.89-14.13,33.89-14.13L1332.45,884l21.66,13.18s-49.9,94.14-57.43,105.44-68.73,41.43-68.73,41.43" class="colorffb5c4 svgShape"/><path fill="#e2972e" d="M1261.09,1036c-19.56,8.52-72.43,33.08-111.58,11.49q-1.3-.7-2.58-1.5s22.07-28.91,42.1-40.87,48.88-23.55,48.88-23.55,6.08,12.94,12.81,28.69C1254.26,1018.59,1258,1027.66,1261.09,1036Z" class="color2ed4e2 svgShape"/><path fill="#e2972e" d="M1261.09,1036c-19.56,8.52-72.43,33.08-111.58,11.49,33,6.26,79-21.8,101.21-37.23C1254.26,1018.59,1258,1027.66,1261.09,1036Z" class="color2ed4e2 svgShape"/><path fill="#e2b26f" d="M1209.12,1226.69c62.14,35.78,116.74,78.14,121.45,96s-.94,168.52-.94,168.52-24.48,10.36-43.31,0c0,0-.94-102.62-5.65-116.74s-119.56-76.26-139.34-86.61-12.23-61.2-12.23-61.2" class="colore26f88 svgShape"/><path fill="#f8c277" d="M1094.26,1214.45c-9.41,52.72,5.65,75.32,6.59,82.85s125.22,86.62,134.63,89.44,4.71,136.51,4.71,136.51,27.3,4.71,47.07-4.7c7.53-97.92,9.49-155.19,3.77-166.64-10.69-21.37-59.49-64.19-90.76-90.3-15.58-13,19.21-47.16,19.21-47.16" class="colorf8778d svgShape"/><path fill="#e2972e" d="M1229,1237.41s-30,25.68-143.17,4.34c-2-25.64-2.85-50.67-3.49-84-.28-15.26-.36-30.11-.17-43.47.38-28.26,2-49.78,5.24-54.11,11.83-15.59,36.67-35,94-46.38C1214.66,1007.22,1240.19,1094.89,1229,1237.41Z" class="color2ed4e2 svgShape"/><path fill="#ffe0b5" d="M1178.34,1050.27c-21,12.71-46.4-20.35-46.4-20.35l3.17-37.51,2.43,1,35.08,13.68v15.89s1.29,1.11,3,2.9C1180.84,1031.31,1189.91,1043.25,1178.34,1050.27Z" class="colorffb5c4 svgShape"/><path d="M1175.63,1025.83c-7.9,15.26-30.9,5.66-39.88-30.24l1.79-2.23,35.08,13.68v15.89S1173.91,1024,1175.63,1025.83Z" style="mix-blend-mode:multiply" fill="#ffbf66" class="colorffbd8b svgShape"/><path fill="#ffe0b5" d="M1178.82,926.75s36.56,72.58-5.15,91.08c-45.42,20.14-66.16-52.13-66.16-52.13L1143.89,924l17.27-9.22Z" class="colorffb5c4 svgShape"/><path fill="#856436" d="M1177.38,934.21c10.22,6.26,10.19,14.21,10.19,14.21s11.36-6.11-.87-33.89c-19-41.47-84.15-17.67-89.57,14.28-13,28.05,16.41,57.91,16.41,57.91l23-2s4.92-5.79.73-17.55a26,26,0,0,1,4.32-17.45C1147.39,941.54,1160.64,944.75,1177.38,934.21Z" class="color364085 svgShape"/><circle cx="1123.59" cy="984.55" r="12.99" fill="#ffe0b5" transform="rotate(-11.5 1091.63 978.014)" class="colorffb5c4 svgShape"/><path fill="#856436" d="M1136.27,901.37c22-7.94,29.66-22.29,29.66-22.29s3.27,7.17.29,13.7c15.51-5.26,20.26-12.7,20.26-12.7s25.29,31.64,1,57.24" class="color364085 svgShape"/><path fill="#e2972e" d="M1136,1154.05s-25.77,8.86-53.67,8c-.31-16.51-.4-32.58-.2-47l39.61-8.8C1137,1137.75,1136,1154.05,1136,1154.05Z" class="color2ed4e2 svgShape"/><path fill="#ffe0b5" d="M1331.08 885.54c8.07-29.57 14.71-13.24 14.71-13.24 29.72-33.25 58.19 6.6 3.83 30.9M1144.87 1280.41c24.64 18.22 7 18.51 7 18.51 20.26 39.73-27.18 51.87-30.2-7.6" class="colorffb5c4 svgShape"/><polyline fill="#ffe0b5" points="1124.05 1121.2 1124.39 1202.21 1148.69 1290.92 1124.39 1296.36 1089.55 1212.57 1076.37 1129.72" class="colorffb5c4 svgShape"/><path fill="#e2972e" d="M1098.06,1048.79c-32,27.27-25.45,81.87-23.57,101.64,23.54-.94,53.66-4.71,53.66-4.71s-1.88-28.24-6.59-49S1098.06,1048.79,1098.06,1048.79Z" class="color2ed4e2 svgShape"/><path fill="#f8c277" d="M442.76,1149.74l-14.18,105.13-.17,1.24-.14,1-9.39,69.61-1.75,12.92,0,.24-.05.34h-.62c-17.54,14.56-43,23.72-71.34,23.72s-53.79-9.16-71.33-23.72h-.45l-.05-.41-.12-1-.14-1.16L263.61,1257l-.16-1.29,0-.44-12.3-105.52Z" class="colorf8778d svgShape"/><ellipse cx="346.94" cy="1149.66" fill="#f4dcbb" rx="95.83" ry="71.36" class="colorf4bbc4 svgShape"/><ellipse cx="348.34" cy="1145.26" fill="#856436" rx="73.99" ry="55.1" class="color364085 svgShape"/><path fill="#a37b43" d="M344,1119c36.73,0,67.2,19.94,73,46.07a43,43,0,0,0,5.37-20.63c0-30.43-33.12-55.1-74-55.1s-74,24.67-74,55.1a41.78,41.78,0,0,0,1,9C286.34,1133.27,312.93,1119,344,1119Z" class="color4346a3 svgShape"/><path fill="#eba23c" d="M620.58,1046.65c-19.92-35.28-44.5-59-70.88-73.67l-15,11.55L542,969c-42.74-20.71-89.42-18.81-128.45-4.37l-6.46,16.53-4.52-12c-65.94,29.47-104.73,94.76-53.08,140.81l3.35,0c33.62,5.83,57.66-4.16,79.93-18.59l-19.46-5.73,29.81-1.33c34.36-24.39,67.35-55.33,129.06-48.86l-7.53-11.93,18.89,13.5A235.8,235.8,0,0,1,620.58,1046.65Z" class="color3cebce svgShape"/><path fill="#856436" d="M343.88,1150.56h-.07a1.12,1.12,0,0,1-1.06-1.19c3.34-56.5,22.34-97.88,56.47-123,58.33-42.9,141.74-22.83,142.58-22.63a1.13,1.13,0,0,1-.55,2.2c-.82-.21-83.24-20-140.7,22.25C367,1052.9,348.3,1093.7,345,1149.49A1.13,1.13,0,0,1,343.88,1150.56Z" class="color364085 svgShape"/><path fill="#e2972e" d="M287.68,995.09l-4.52,10.09-2.57-15.39c-29.58-20.5-67.46-27.87-101.24-20.6l7.78,16L169.69,971.7c-34.94,10.74-63.89,38.19-71.92,84.16a288.92,288.92,0,0,0,41.57,18.44l29.12-9.1-15.77,13.51c31.95,9.8,63.69,14.28,91.4,16l45.73-16.15-23.74,17c39.16.53,66-4,66-4C332.19,1048.82,314,1016.27,287.68,995.09Z" class="color2ed4e2 svgShape"/><path fill="#856436" d="M347.17,1142.55a1.32,1.32,0,0,1-1.3-1.07c-11.68-58-36-96.14-72.31-113.37-58.09-27.57-127.79,8.56-128.49,8.92a1.33,1.33,0,1,1-1.24-2.35c.71-.38,71.54-37.12,130.86-9,37.11,17.6,61.93,56.38,73.79,115.26a1.33,1.33,0,0,1-1,1.57A1.23,1.23,0,0,1,347.17,1142.55Z" class="color364085 svgShape"/><path fill="#e2972e" d="M445.76,1082.1l-1.84,8,8.39-7.92c26.59,1.16,52.18,13.76,68.83,33.14l-11.73,5.93,16.29-.13c15.77,21.94,20.55,51.05,4.72,81.71a214.33,214.33,0,0,1-32.72-7.73l-13.07-18.38,3.24,15a292.49,292.49,0,0,1-61-31.46l-19.72-30,6.4,20.61c-23.3-17.2-37.07-31.84-37.07-31.84C395.53,1093.83,420.79,1082.79,445.76,1082.1Z" class="color2ed4e2 svgShape"/><path fill="#856436" d="M344.8,1142.33a1,1,0,0,0,1.25,0c32.81-28.94,64.19-40.52,93.26-34.43,46.54,9.73,71.43,62.17,71.68,62.69a1,1,0,1,0,1.78-.83c-.25-.53-25.53-53.84-73-63.79-29.72-6.23-61.68,5.51-95,34.88a1,1,0,0,0-.08,1.39A.86.86,0,0,0,344.8,1142.33Z" class="color364085 svgShape"/><path fill="#eba23c" d="M234.88,1119.15l4.67,6.71-10.73-4.25c-24.27,10.91-43.4,32.08-51.69,56.24l13.09,1.18L175,1184.92c-6.54,26.23-.21,55,25.83,77.67a213.7,213.7,0,0,0,27.54-19.28l5.36-21.91,2.54,15.14a292.49,292.49,0,0,0,45-51.77l7.24-35.12,1.67,21.51c15.29-24.6,22.67-43.3,22.67-43.3C285.9,1111.48,258.34,1110.56,234.88,1119.15Z" class="color3cebce svgShape"/><path fill="#856436" d="M351,1137.78a1,1,0,0,1-1.18.41c-41.18-14.74-74.62-13.9-99.39,2.5C210.77,1167,207,1224.87,207,1225.46a1,1,0,0,1-2-.12c0-.59,3.81-59.47,44.28-86.28,25.31-16.78,59.34-17.69,101.15-2.72a1,1,0,0,1,.59,1.26A1.42,1.42,0,0,1,351,1137.78Z" class="color364085 svgShape"/><path fill="#eba23c" d="M325.83,1199.9,312.15,1209a106.62,106.62,0,0,0,4.73,59l15.62-10.78-11.26,21c8.73,18.13,23.25,37.15,45.94,56.33,10.26-15.39,22.42-34.2,30.69-54.5l-9.35-14.86,13.41,3.76c8.73-27.18,9-56.32-12.28-83.09l-18.47-6s5.43-.82,11.63-1.71c-9.87-10.15-23.13-19.9-40.56-29a132.56,132.56,0,0,0-28,51.23Z" class="color3cebce svgShape"/><path fill="#856436" d="M365.85,1266.59h-.14a1.33,1.33,0,0,1-1.19-1.47c4.44-42.17-13.89-90.18-24.83-118.86-7.15-18.72-9.27-24.72-6.51-26.6,1.94-1.32,5,.4,11.73,6.58a1.33,1.33,0,0,1-1.8,2c-5.86-5.4-7.83-6.19-8.4-6.28-.63,2.16,3.48,12.94,7.47,23.38,11,28.9,29.5,77.28,25,120.09A1.33,1.33,0,0,1,365.85,1266.59Z" class="color364085 svgShape"/></g></svg>