<svg xmlns="http://www.w3.org/2000/svg" xmlns:xlink="http://www.w3.org/1999/xlink" viewBox="0 0 781.4 800"><defs><linearGradient id="a" x1="529.07" x2="590.114" y1="557.019" y2="557.019" gradientUnits="userSpaceOnUse"><stop offset=".404" stop-color="#e7d9c6" class="stopColorc6cbe7 svgShape"/><stop offset=".636" stop-color="#efe6d9" class="stopColord9ddef svgShape"/><stop offset="1" stop-color="#ffffff" class="stopColorfff svgShape"/></linearGradient><linearGradient id="h" x1="515.269" x2="482.607" y1="668.574" y2="614.738" gradientTransform="scale(1 -1) rotate(-60 -519.663 .277)" gradientUnits="userSpaceOnUse"><stop offset="0" stop-color="#e4d4bd" class="stopColorbdc1e4 svgShape"/><stop offset=".226" stop-color="#e8dac7" class="stopColorc7cae8 svgShape"/><stop offset=".605" stop-color="#f3ebe0" class="stopColore0e2f3 svgShape"/><stop offset=".876" stop-color="#fcfaf7" class="stopColorf7f7fc svgShape"/></linearGradient><linearGradient id="i" x1="379.679" x2="481.402" y1="438.213" y2="438.213" xlink:href="#a"/><linearGradient id="e" x1="402.506" x2="433.238" y1="426.463" y2="426.463" gradientUnits="userSpaceOnUse"><stop offset="0" stop-color="#e4d4bd" class="stopColorbdc1e4 svgShape"/><stop offset="1" stop-color="#f9eede" class="stopColordee2f9 svgShape"/></linearGradient><linearGradient id="f" x1="393.828" x2="413.433" y1="449.104" y2="449.104" gradientUnits="userSpaceOnUse"><stop offset="0" stop-color="#e4d4bd" class="stopColorbdc1e4 svgShape"/><stop offset="1" stop-color="#fcfaf7" class="stopColorf7f7fc svgShape"/></linearGradient><linearGradient id="j" x1="106.883" x2="116.55" y1="666.406" y2="682.573" gradientTransform="rotate(120.001 336.599 654.044)" gradientUnits="userSpaceOnUse"><stop offset="0" stop-color="#f9eede" class="stopColordee2f9 svgShape"/><stop offset=".753" stop-color="#eadbc6" class="stopColorc6caea svgShape"/><stop offset="1" stop-color="#e4d4bd" class="stopColorbdc1e4 svgShape"/></linearGradient><linearGradient id="k" x1="442.662" x2="456.031" y1="433.853" y2="433.853" gradientUnits="userSpaceOnUse"><stop offset=".404" stop-color="#e4d4bd" class="stopColorbdc1e4 svgShape"/><stop offset="1" stop-color="#f6e6d0" class="stopColord0d4f6 svgShape"/></linearGradient><linearGradient id="b" x1="189.106" x2="333.607" y1="574.833" y2="574.833" gradientUnits="userSpaceOnUse"><stop offset="0" stop-color="#e7d9c6" class="stopColorc6cbe7 svgShape"/><stop offset="1" stop-color="#ffffff" class="stopColorfff svgShape"/></linearGradient><linearGradient id="n" x1="175.166" x2="437.26" y1="374.057" y2="374.057" xlink:href="#b"/><linearGradient id="o" x1="44.556" x2="419.186" y1="407.72" y2="407.72" gradientUnits="userSpaceOnUse"><stop offset=".27" stop-color="#e2b06a" class="stopColor6a6ae2 svgShape"/><stop offset=".302" stop-color="#deac67" class="stopColor6767de svgShape"/><stop offset=".333" stop-color="#d3a25f" class="stopColor5f5fd3 svgShape"/><stop offset=".363" stop-color="#bf9150" class="stopColor5050bf svgShape"/><stop offset=".388" stop-color="#aa7e41" class="stopColor4141aa svgShape"/></linearGradient><linearGradient id="p" x1="133.932" x2="419.186" y1="366.677" y2="366.677" gradientUnits="userSpaceOnUse"><stop offset="0" stop-color="#e7d9c6" class="stopColorc6cbe7 svgShape"/><stop offset=".088" stop-color="#eadece" class="stopColorced2ea svgShape"/><stop offset=".443" stop-color="#f6f1e9" class="stopColore9ebf6 svgShape"/><stop offset=".759" stop-color="#fdfbf9" class="stopColorf9fafd svgShape"/><stop offset="1" stop-color="#ffffff" class="stopColorfff svgShape"/></linearGradient><linearGradient id="q" x1="431.918" x2="736.845" y1="343.283" y2="343.283" gradientUnits="userSpaceOnUse"><stop offset="0" stop-color="#e7d9c6" class="stopColorc6cbe7 svgShape"/><stop offset=".018" stop-color="#e8dac7" class="stopColorc7cce8 svgShape"/><stop offset=".665" stop-color="#f8f5f0" class="stopColorf0f1f8 svgShape"/><stop offset="1" stop-color="#ffffff" class="stopColorfff svgShape"/></linearGradient><linearGradient id="r" x1="655.75" x2="678.464" y1="312.896" y2="312.896" gradientTransform="matrix(-1 0 0 1 1182.222 0)" gradientUnits="userSpaceOnUse"><stop offset="0" stop-color="#b56d08" class="stopColor08b1b5 svgShape"/><stop offset=".172" stop-color="#cb7e13" class="stopColor13c5cb svgShape"/><stop offset=".508" stop-color="#f19c27" class="stopColor27e8f1 svgShape"/><stop offset=".685" stop-color="#ffa82e" class="stopColor2ef5ff svgShape"/></linearGradient><linearGradient id="s" x1="563.591" x2="694.706" y1="422.902" y2="422.902" xlink:href="#b"/><linearGradient id="t" x1="148.73" x2="277.707" y1="551.188" y2="551.188" gradientUnits="userSpaceOnUse"><stop offset="0" stop-color="#e7d9c6" class="stopColorc6cbe7 svgShape"/><stop offset=".362" stop-color="#e8dbc9" class="stopColorc9cde8 svgShape"/><stop offset=".584" stop-color="#ece1d1" class="stopColord1d5ec svgShape"/><stop offset=".768" stop-color="#f2eadf" class="stopColordfe2f2 svgShape"/><stop offset=".931" stop-color="#faf7f4" class="stopColorf4f5fa svgShape"/><stop offset="1" stop-color="#ffffff" class="stopColorfff svgShape"/></linearGradient><linearGradient id="u" x1="136.979" x2="265.958" y1="551.188" y2="551.188" gradientUnits="userSpaceOnUse"><stop offset="0" stop-color="#e7d9c6" class="stopColorc6cbe7 svgShape"/><stop offset="1" stop-color="#f4eadc" class="stopColordce1f4 svgShape"/></linearGradient><linearGradient id="v" x1="133.059" x2="262.646" y1="562.638" y2="562.638" gradientUnits="userSpaceOnUse"><stop offset="0" stop-color="#e2b06a" class="stopColor6a6ae2 svgShape"/><stop offset=".488" stop-color="#a67d43" class="stopColor4443a6 svgShape"/><stop offset="1" stop-color="#6b4a1c" class="stopColor1e1c6b svgShape"/></linearGradient><linearGradient id="w" x1="118.653" x2="106.422" y1="603.816" y2="580.887" gradientUnits="userSpaceOnUse"><stop offset="0" stop-color="#8f6831" class="stopColor34318f svgShape"/><stop offset="1" stop-color="#c69755" class="stopColor5555c6 svgShape"/></linearGradient><linearGradient id="c" x1="297.389" x2="346.391" y1="451.689" y2="451.689" gradientUnits="userSpaceOnUse"><stop offset="0" stop-color="#e7d9c6" class="stopColorc6cbe7 svgShape"/><stop offset=".077" stop-color="#eadece" class="stopColorced2ea svgShape"/><stop offset=".398" stop-color="#f6f1e9" class="stopColore9ebf6 svgShape"/><stop offset=".682" stop-color="#fdfbf9" class="stopColorf9fafd svgShape"/><stop offset=".899" stop-color="#ffffff" class="stopColorfff svgShape"/></linearGradient><linearGradient id="y" x1="319.483" x2="368.487" y1="438.683" y2="438.683" xlink:href="#c"/><linearGradient id="d" x1="306.842" x2="324.905" y1="436.96" y2="436.96" gradientUnits="userSpaceOnUse"><stop offset="0" stop-color="#e2b06a" class="stopColor6a6ae2 svgShape"/><stop offset=".284" stop-color="#c79857" class="stopColor5857c7 svgShape"/><stop offset=".756" stop-color="#9e753c" class="stopColor3e3c9e svgShape"/><stop offset="1" stop-color="#8f6831" class="stopColor34318f svgShape"/></linearGradient><linearGradient id="z" x1="284.51" x2="302.573" y1="449.96" y2="449.96" xlink:href="#d"/><linearGradient id="A" x1="292.352" x2="323.405" y1="406.801" y2="406.801" gradientUnits="userSpaceOnUse"><stop offset="0" stop-color="#a37433" class="stopColor3366a3 svgShape"/><stop offset=".016" stop-color="#bb8c4a" class="stopColor4a5abb svgShape"/><stop offset=".027" stop-color="#c69755" class="stopColor5555c6 svgShape"/><stop offset="1" stop-color="#6b4a1c" class="stopColor1e1c6b svgShape"/></linearGradient><linearGradient id="B" x1="291.153" x2="323.589" y1="351.074" y2="351.074" gradientUnits="userSpaceOnUse"><stop offset="0" stop-color="#e2b06a" class="stopColor6a6ae2 svgShape"/><stop offset=".078" stop-color="#dbaa65" class="stopColor6565db svgShape"/><stop offset=".437" stop-color="#c09251" class="stopColor5151c0 svgShape"/><stop offset=".756" stop-color="#b08345" class="stopColor4545b0 svgShape"/><stop offset="1" stop-color="#aa7e41" class="stopColor4141aa svgShape"/></linearGradient><linearGradient id="C" x1="300.383" x2="252.899" y1="337.645" y2="311.291" gradientUnits="userSpaceOnUse"><stop offset="0" stop-color="#aa7e41" class="stopColor4141aa svgShape"/><stop offset=".034" stop-color="#af8244" class="stopColor4444af svgShape"/><stop offset=".23" stop-color="#c59655" class="stopColor5555c5 svgShape"/><stop offset=".443" stop-color="#d5a461" class="stopColor6161d5 svgShape"/><stop offset=".681" stop-color="#dfad68" class="stopColor6868df svgShape"/><stop offset="1" stop-color="#e2b06a" class="stopColor6a6ae2 svgShape"/></linearGradient><linearGradient id="D" x1="515.064" x2="512.974" y1="653.281" y2="649.66" xlink:href="#e"/><linearGradient id="E" x1="543.363" x2="541.272" y1="636.943" y2="633.322" gradientUnits="userSpaceOnUse"><stop offset="0" stop-color="#6b4a1c" class="stopColor1e1c6b svgShape"/><stop offset="1" stop-color="#aa7e41" class="stopColor4141aa svgShape"/></linearGradient><linearGradient id="F" x1="348.841" x2="466.138" y1="520.782" y2="520.782" gradientUnits="userSpaceOnUse"><stop offset="0" stop-color="#e7d9c6" class="stopColorc6cbe7 svgShape"/><stop offset=".255" stop-color="#ebdfcf" class="stopColorcfd3eb svgShape"/><stop offset=".67" stop-color="#f5efe7" class="stopColore7e9f5 svgShape"/><stop offset="1" stop-color="#ffffff" class="stopColorfff svgShape"/></linearGradient><linearGradient id="G" x1="453.865" x2="458.157" y1="484.731" y2="491.856" gradientUnits="userSpaceOnUse"><stop offset="0" stop-color="#e2b06a" class="stopColor6a6ae2 svgShape"/><stop offset="1" stop-color="#8f6831" class="stopColor34318f svgShape"/></linearGradient><linearGradient id="H" x1="354.027" x2="349.993" y1="551.173" y2="544.098" xlink:href="#f"/><linearGradient id="I" x1="347.268" x2="345.57" y1="552.376" y2="550.183" gradientUnits="userSpaceOnUse"><stop offset="0" stop-color="#6b4a1c" class="stopColor1e1c6b svgShape"/><stop offset="1" stop-color="#e2b06a" class="stopColor6a6ae2 svgShape"/></linearGradient><linearGradient id="J" x1="451.689" x2="446.98" y1="495.491" y2="487.574" gradientUnits="userSpaceOnUse"><stop offset=".074" stop-color="#e4d4bd" class="stopColorbdc1e4 svgShape"/><stop offset=".137" stop-color="#f6e6d0" class="stopColord0d4f6 svgShape"/><stop offset=".559" stop-color="#f6e6d0" class="stopColord0d4f6 svgShape"/><stop offset=".69" stop-color="#fcfaf7" class="stopColorf7f7fc svgShape"/></linearGradient><linearGradient id="g" x1="449.159" x2="443.305" y1="497.291" y2="489.853" gradientUnits="userSpaceOnUse"><stop offset=".559" stop-color="#f4eadc" class="stopColordce1f4 svgShape"/><stop offset=".69" stop-color="#f9f2e8" class="stopColore8ecf9 svgShape"/></linearGradient><linearGradient id="K" x1="450.305" x2="444.451" y1="496.629" y2="489.192" xlink:href="#g"/><linearGradient id="L" x1="451.45" x2="445.596" y1="495.968" y2="488.53" xlink:href="#g"/><radialGradient id="l" cx="76.748" cy="247.506" r="88.599" gradientUnits="userSpaceOnUse"><stop offset="0" stop-color="#ffa82e" class="stopColor2ef5ff svgShape"/><stop offset=".157" stop-color="#f49f2a" class="stopColor2aecf4 svgShape"/><stop offset=".43" stop-color="#d88b1f" class="stopColor1fd5d8 svgShape"/><stop offset=".573" stop-color="#c67d18" class="stopColor18c6c6 svgShape"/><stop offset=".916" stop-color="#a56102" class="stopColor029da5 svgShape"/><stop offset=".931" stop-color="#ab6605" class="stopColor05a3ab svgShape"/><stop offset=".951" stop-color="#bc730d" class="stopColor0db4bc svgShape"/><stop offset=".975" stop-color="#d98a1b" class="stopColor1bcfd9 svgShape"/><stop offset="1" stop-color="#ffa82e" class="stopColor2ef5ff svgShape"/></radialGradient><radialGradient id="m" cx="107.741" cy="266.789" r="50.299" gradientUnits="userSpaceOnUse"><stop offset="0" stop-color="#e2e0de" class="stopColore2dede svgShape"/><stop offset=".362" stop-color="#e5e4e2" class="stopColore5e2e2 svgShape"/><stop offset=".686" stop-color="#efeeec" class="stopColorefecec svgShape"/><stop offset=".995" stop-color="#ffffff" class="stopColorfff svgShape"/><stop offset="1" stop-color="#ffffff" class="stopColorfff svgShape"/></radialGradient><radialGradient id="x" cx="70.512" cy="608.267" r="22.336" gradientUnits="userSpaceOnUse"><stop offset="0" stop-color="#f4c37f" class="stopColor7f7ff4 svgShape"/><stop offset=".142" stop-color="#e2b371" class="stopColor7171e2 svgShape"/><stop offset=".528" stop-color="#b58a4e" class="stopColor504eb5 svgShape"/><stop offset=".826" stop-color="#997139" class="stopColor3c3999 svgShape"/><stop offset="1" stop-color="#8f6831" class="stopColor34318f svgShape"/></radialGradient></defs><g data-name="Objects" fill="#000000" class="color000 svgShape"><g data-name="Clouds" fill="#000000" class="color000 svgShape"><path d="M581.10291,544.51143c-6.38278-3.6846-14.8652-5.3818-23.1963-5.1328H544.84513v2.13669a34.71873,34.71873,0,0,0-6.91022,2.99711c-11.8779,6.9033-11.8095,18.0996.1456,25.00189a35.02383,35.02383,0,0,0,6.76462,2.9366v2.2324h15.665c7.53518-.1279,15.002-1.835,20.73338-5.166C593.12541,562.612,593.06291,551.41773,581.10291,544.51143Z" style="mix-blend-mode:multiply" fill="url(#a)"/><path fill="url(#h)" d="M524.62641,569.51532c-6.0176-3.47459-9.0225-8.03609-9.0108-12.59079l.0264-8.8125c-.0137,4.5547,2.9912,9.1152,9.0097,12.5898,11.959,6.90529,31.2862,6.90629,43.1631.003,5.90332-3.4307,8.8574-7.9199,8.8711-12.416l-.0254,8.8134c-.0127,4.49609-2.9677,8.9854-8.8701,12.41509C555.91151,576.42062,536.58631,576.42162,524.62641,569.51532Z"/><path fill="#f6e6d0" d="M524.65171,560.70183c-11.955-6.9023-12.0234-18.0986-.1455-25.0019,11.88192-6.9043,31.21292-6.9024,43.168-.001,11.96,6.9063,12.0225,18.1006.1406,25.0059C555.93791,567.60812,536.61071,567.60712,524.65171,560.70183Z" class="colord0d4f6 svgShape"/><path fill="#aa7e41" d="M561.37641,538.56613c2.1464,1.2393,2.1572,3.249.0263,4.4883a8.54073,8.54073,0,0,1-7.749,0c-2.1465-1.2393-2.1572-3.249-.0244-4.4883A8.53922,8.53922,0,0,1,561.37641,538.56613Z" class="color4141aa svgShape"/><polygon fill="#aa7e41" points="541.358 544.203 544.536 542.368 554.817 548.303 551.639 550.138 549.441 548.87 537.299 555.88 539.497 557.148 536.32 558.983 526.038 553.048 529.215 551.214 531.414 552.482 543.557 545.471 541.358 544.203" class="color4141aa svgShape"/><path d="M470.11561,433.00173a14.303,14.303,0,0,0-1.47948-2.0821c-2.01272-1.998,2.625-5.3418,4.71968-6.5508.0391,0-6.1035-3.5468-6.1035-3.5468l-18.0508.0175a8.16009,8.16009,0,0,1-1.5175-4.7148l-8.6621-.0039c-.002,1.4121-.5782,4.5703-2.96778,5.9492a4.9078,4.9078,0,0,1-1.752.5996c-1.22562.2403-2.43262.5274-3.60252.8653a.63222.63222,0,0,1-.1533-.0254q-1.75785-.504-3.5928-.8633c-3.8682-.582-4.6631-4.8418-4.6533-6.54691l-8.66208-.00389c-.002,1.4121-.57822,4.5703-2.96782,5.9492a4.90766,4.90766,0,0,1-1.752.5996c-1.2255.2403-2.4326.5274-3.6025.8653-3.9893.8593-9.2119-1.5039-11.293-2.7129l-6.1416,3.5468c2.0801,1.209,6.6807,4.5547,4.6446,6.54889a13.95458,13.95458,0,0,0-1.502,2.08591,2.42057,2.42057,0,0,1-1.042,1.0117c-2.3896,1.3789-7.8418,1.7032-10.2881,1.7032l-.01458,5.0146c2.94328-.001,10.29588.47359,11.28508,2.7158a13.66915,13.66915,0,0,0,1.4805,2.084c2.0137,1.9951-2.625,5.3399-4.7187,6.54979l6.1015,3.54691c.2129-.1231.4737-.2647.7578-.4121l-.7148.4121,18.0391.0185a8.1564,8.1564,0,0,1,1.4804,4.6827l34.04012.0254,8.48238-4.7129,11.14262.0107,6.14638-3.5459c-2.0869-1.2119-6.6826-4.5547-4.64838-6.5498a15.58646,15.58646,0,0,0,.96388-1.2598l5.7099.0059,6.1397-3.5459c.0068,0,.0351-5.0137.0351-5.0137C478.24061,435.84443,471.10581,435.24583,470.11561,433.00173Z" style="mix-blend-mode:multiply" fill="url(#i)"/><path fill="#fcfaf7" d="M393.03361,415.10913c-.0049-1.9473-3.43648-4.3985-5.1524-5.3965l.0401,14.6308c1.7177.9971,5.1504,3.4483,5.1543,5.3965Z" class="colorf7f7fc svgShape"/><path fill="#e4d4bd" d="M448.01313,424.34343l-.041-14.6308c-1.73642,1.0019-5.22072,3.4726-5.21392,5.4238l.04,14.63189C442.79241,427.81513,446.27771,425.34643,448.01313,424.34343Z" class="colorbdc1e4 svgShape"/><path fill="url(#e)" d="M407.07561,431.91963c6.0156-3.4746,15.7246-3.4746,21.7011-.001,2.9668,1.72369,4.4532,3.9815,4.461,6.2422l-.043-14.6308c-.0068-2.2598-1.4932-4.5186-4.46-6.2432-5.9775-3.4726-15.6865-3.4726-21.7011,0-3.0244,1.7461-4.5342,4.0371-4.5274,6.3252l.0401,14.6309C402.54241,435.95483,404.05213,433.66383,407.07561,431.91963Z"/><polygon fill="#fcfaf7" points="393.828 440.973 387.726 437.427 387.767 452.057 393.871 455.604 393.828 440.973" class="colorf7f7fc svgShape"/><polygon fill="#e4d4bd" points="447.859 452.057 447.818 437.427 441.673 440.973 441.716 455.604 447.859 452.057" class="colorbdc1e4 svgShape"/><path fill="url(#f)" d="M405.19281,452.89132c1.166.33791,2.3691.625,3.5937.86331,3.8164.5732,4.64062,4.7334,4.6465,6.4834l-.041-14.6299c-.0078-1.751-.8301-5.9102-4.6465-6.4834-1.2246-.2393-2.4277-.52541-3.5938-.8633-3.4394-1.1728-9.2304,1.502-11.3242,2.71189l.043,14.63091C395.96421,454.39423,401.75331,451.71843,405.19281,452.89132Z"/><path fill="url(#j)" d="M425.07951,454.34932a4.87625,4.87625,0,0,1,1.7402-.59369c1.2266-.24031,2.4199-.5254,3.5957-.8614,3.459-1.1758,9.2188,1.5,11.3008,2.71l-.043-14.63091c-2.08008-1.209-7.8398-3.88469-11.2988-2.709-1.1758.335-2.3691.62111-3.5957.86041a4.91512,4.91512,0,0,0-1.7422.5937c-2.35738,1.3614-2.85738,4.4727-2.9902,5.9561l.041,14.6299C422.22213,458.822,422.72013,455.71063,425.07951,454.34932Z"/><path fill="#f6e6d0" d="M392.44471,430.87673c2.0137,1.9951-2.625,5.3398-4.7187,6.5498l6.1015,3.54679c2.0938-1.20989,7.8848-3.88469,11.3242-2.71189,1.1661.33789,2.3692.624,3.5938.8633,3.8652.5801,4.6601,4.8408,4.6445,6.5498h8.6563c.13282-1.4834.63282-4.5947,2.9902-5.9561a4.91512,4.91512,0,0,1,1.7422-.5937c1.2266-.2393,2.4199-.52541,3.5957-.86041,3.459-1.17569,9.21872,1.5,11.2988,2.709l6.1446-3.54679c-2.0821-1.209-6.6836-4.5538-4.6485-6.5498a14.52155,14.52155,0,0,0,1.5039-2.084,2.41417,2.41417,0,0,1,1.043-1.0127c2.3877-1.3789,7.83892-1.7041,10.2734-1.7032l.0284-5.0136c-3.1612.125-10.29588-.4737-11.2862-2.7178a14.30147,14.30147,0,0,0-1.4795-2.082c-2.0127-1.99811,2.625-5.3418,4.71982-6.5508l-6.10362-3.5469c-2.0947,1.209-7.8838,3.8848-11.3222,2.7129q-1.75785-.50385-3.5928-.86331c-3.8682-.582-4.6631-4.84179-4.6533-6.54689l-8.66208-.0039c-.002,1.4122-.57822,4.5704-2.96782,5.9493a4.9096,4.9096,0,0,1-1.752.5996c-1.2255.2402-2.4326.5273-3.6025.8652-3.9893.8594-9.2119-1.5039-11.293-2.7129l-6.1416,3.5469c2.0801,1.209,6.6807,4.55469,4.6446,6.5488a13.95524,13.95524,0,0,0-1.502,2.086,2.42112,2.42112,0,0,1-1.042,1.0117c-2.3896,1.3789-7.8418,1.7031-10.2881,1.7031l-.01458,5.0146c2.94328-.0009,10.29588.4737,11.28508,2.7159A13.66915,13.66915,0,0,0,392.44471,430.87673Zm14.5889-13.5899c6.0146-3.4726,15.7236-3.4726,21.7011,0,5.9698,3.4707,5.94542,9.0977-.0712,12.5713-6.0079,3.4707-15.7246,3.4668-21.69538-.0029C400.99161,426.38153,401.02381,420.75753,407.03361,417.28683Z" class="colord0d4f6 svgShape"/><path fill="#fcfaf7" d="M387.726,437.42653c2.0937-1.21,6.7324-4.5547,4.7187-6.5498a13.66915,13.66915,0,0,1-1.4805-2.084c-.9892-2.2422-8.3418-2.7168-11.28508-2.7159l.041,14.6299a36.738,36.738,0,0,1,8.01558.8623Z" class="colorf7f7fc svgShape"/><polygon fill="#e4d4bd" points="422.087 460.304 422.046 445.675 413.39 445.675 413.433 460.305 422.087 460.304" class="colorbdc1e4 svgShape"/><path fill="url(#k)" d="M456.03061,440.70673l-.041-14.6299c-2.43448-.0009-7.8857.3243-10.2734,1.7032a2.41417,2.41417,0,0,0-1.043,1.0127,14.52155,14.52155,0,0,1-1.5039,2.084c-2.0351,1.996,2.5664,5.3408,4.6485,6.5498l.0117,4.2021A36.17009,36.17009,0,0,1,456.03061,440.70673Z"/><path fill="url(#l)" d="M57.44282,266.78883a50.2983,50.2983,0,1,1,50.2978,50.2988A50.29777,50.29777,0,0,1,57.44282,266.78883Z"/><path d="M59.37392,280.58563q.31575,1.1082.6797,2.1934a16.59911,16.59911,0,0,1-.5122-2.2188Zm98.6655-13.7968a50.62753,50.62753,0,0,0-.3818-6.0957,35.03087,35.03087,0,0,0-1.2539-4.8921,17.49835,17.49835,0,0,0-.0898-2.083c-.1993-.7403-.4122-1.4751-.6436-2.20171l-.1689.04251a16.36157,16.36157,0,0,1,.4501,2.9541,37.92712,37.92712,0,0,0-5.7959-10.10061,15.41234,15.41234,0,0,0-1.8398-7.33979q-.72795-.9939-1.5039-1.95021l-.1309.09131a15.78674,15.78674,0,0,1,3.0284,8.6294,44.81451,44.81451,0,0,0-6.292-6.2408,49.70969,49.70969,0,0,0-5.958-4.1621c.0068-.1479.019-.2959.019-.4443,0-3.6001-1.88529-7.0244-5.3716-9.9043q.63435.32745,1.2398.71l.1411-.22221a49.94764,49.94764,0,0,0-6.5132-3.273c.5269.26421,1.04.53961,1.5322.82431.1743.1005.33841.2055.5069.3071-5.9629-1.6485-13.2442-.3145-21.0562,3.95359v-8.89549c-.0732-.001-.1435-.0064-.2168-.0064-.0727,0-.14349.0054-.2163.0064v8.8896a33.61432,33.61432,0,0,0-13.9971-4.6445,20.36435,20.36435,0,0,0-6.9902.6543c.146-.08791.28711-.1787.437-.2646.4985-.2881,1.0176-.5645,1.5513-.8311a50.09692,50.09692,0,0,0-6.5318,3.27979l.14161.22221q.61094-.38685,1.24959-.7183c-3.4922,2.8804-5.3809,6.30809-5.3809,9.9116,0,.14849.0122.2964.0181.4453a49.68378,49.68378,0,0,0-5.9585,4.1621,44.86178,44.86178,0,0,0-6.2881,6.2378,15.69679,15.69679,0,0,1,2.8901-8.4311l-.1435-.0991c-.4595.5717-.9097,1.1523-1.34379,1.7451a15.397,15.397,0,0,0-1.85741,7.3637,37.93916,37.93916,0,0,0-5.78859,10.0904,16.251,16.251,0,0,1,.437-2.9048l-.17431-.0425c-.2261.7129-.4336,1.4351-.6289,2.1621a17.35128,17.35128,0,0,0-.0869,2.0757,34.845,34.845,0,0,0-1.2554,4.894,50.72561,50.72561,0,0,0-.3808,6.0953c0,1.0244.0395,2.04.1005,3.0498a19.82333,19.82333,0,0,0,3.2315,7.6928,33.8199,33.8199,0,0,0-.0435,7.1006c-.1064-.251-.2119-.5014-.3061-.7539.0962.2676.2075.5274.3086.7925l.0014.0225c.17.4458.3428.8911.52491,1.332h.001c.336.8135.69,1.61719,1.06789,2.40819a32.95821,32.95821,0,0,0,10.9302,9.65231c.52491.3023,1.061.5943,1.6025.8799a19.8796,19.8796,0,0,0,2.8325,7.0947,32.37435,32.37435,0,0,1-5.7622-4.2744l-.1504.1587c.7281.7442,1.4737,1.4707,2.2466,2.1695a36.01735,36.01735,0,0,0,3.8525,2.5678c.148.085.3033.1651.4527.2486a14.14861,14.14861,0,0,0,1.895,1.9575q1.3095.8598,2.6782,1.6347l.1206-.2197a14.40611,14.40611,0,0,1-3.59909-2.7715,53.41291,53.41291,0,0,0,13.15379,4.6626,16.62958,16.62958,0,0,0,3.16021,3.4419c.186.04539.374.086.56.12939l.08059-.10789a15.45582,15.45582,0,0,1-3.2363-3.3447,70.90992,70.90992,0,0,0,14.3779,1.49559v3.27341c.07281.0015.1436.0059.2163.0059.0733,0,.1436-.0044.2168-.0059v-3.27341a70.80442,70.80442,0,0,0,14.1943-1.46089,15.3748,15.3748,0,0,1-3.2055,3.3046l.1064.1426c.1548-.0356.3101-.07031.4649-.1069a16.52463,16.52463,0,0,0,3.2011-3.458,53.35194,53.35194,0,0,0,13.5889-4.8379,17.112,17.112,0,0,1-3.853,2.9111l.12061.2197q1.45889-.8298,2.85739-1.7485a18.58084,18.58084,0,0,0,2.0918-2.05081c.0249-.01409.04981-.02729.0757-.04149a36.12847,36.12847,0,0,0,3.87211-2.58351c.76659-.69379,1.50479-1.41549,2.22849-2.15379l-.1524-.1596a31.83382,31.83382,0,0,1-5.20309,3.9331,23.65792,23.65792,0,0,0,3.69039-7.5298c.06061-.0357.126-.06691.18661-.1026A32.758,32.758,0,0,0,153.099,288.549c.2734-.5669.5274-1.1431.7793-1.7212l-.1523-.0874c-2.33789,4.103-6.2188,7.7505-11.5196,10.8482a38.63891,38.63891,0,0,0,1.2871-10.1582,34.67275,34.67275,0,0,0,10.7364-9.2129,31.61273,31.61273,0,0,1-.2032,7.7954l.1875.0303c.1075-.2598.2071-.524.3106-.7867a33.02623,33.02623,0,0,0,.0459-7.53121,19.92059,19.92059,0,0,0,3.3662-7.87789C157.99842,268.83473,158.03942,267.81713,158.03942,266.78883Zm-50.6704-40.4497c-4.1982,4.832-8.2275,12.4868-11.6113,21.9868a36.87846,36.87846,0,0,1-7.0801-2.5772c5.4458-8.4687,11.9224-15.52541,18.4824-19.39841C107.22992,226.34832,107.30022,226.34053,107.369,226.33913Zm-16.1914,4.5698a55.338,55.338,0,0,0-10.6484,8.3335,11.05281,11.05281,0,0,1-2.0625-5.5225,57.46507,57.46507,0,0,1,27.935-7.7222A33.56313,33.56313,0,0,0,91.17762,230.90893Zm15.0796-4.5098c-6.1113,3.8257-12.4053,10.5708-17.9267,19.1685-.4561-.232-.9209-.4561-1.3565-.7076a20.14031,20.14031,0,0,1-6.2163-5.2978,54.944,54.944,0,0,1,10.6172-8.3184A33.2417,33.2417,0,0,1,106.25722,226.39913Zm-19.5,18.8355c.4317.2495.8926.46969,1.3428.7006q-1.81125,2.84925-3.5005,5.9449a101.1053,101.1053,0,0,0-4.8843,10.3559c-.5815-.3012-1.1538-.6103-1.7114-.9326a29.40886,29.40886,0,0,1-8.5659-7.1279,74.11112,74.11112,0,0,1,7.3955-10.3946c1.1665-1.3701,2.375-2.6752,3.6113-3.914A20.62045,20.62045,0,0,0,86.75722,245.23463Zm-8.9702,16.4443c.5752.332,1.1665.65039,1.76711.9595A85.83686,85.83686,0,0,0,75.37342,276.11q-.91693-.47745-1.79829-.9863a33.34507,33.34507,0,0,1-9.959-8.3667,68.02686,68.02686,0,0,1,5.59079-12.1811A29.99786,29.99786,0,0,0,77.787,261.67893Zm-4.4282,13.8203c.6269.3618,1.269.71,1.9209,1.0479a58.29241,58.29241,0,0,0-1.3389,11.46919c-.5518-.292-1.0981-.58839-1.6323-.897a33.64839,33.64839,0,0,1-11.128-9.75579,49.96374,49.96374,0,0,1,2.271-10.1011A34.08243,34.08243,0,0,0,73.35882,275.49923Zm2.3178,1.2446a60.59382,60.59382,0,0,0,12.6089,4.6231,116.46314,116.46314,0,0,0-.6421,11.7915,62.11422,62.11422,0,0,1-13.2739-4.9185A57.39844,57.39844,0,0,1,75.67662,276.74383Zm.0928-.43651a86.221,86.221,0,0,1,4.1563-13.48479,52.79259,52.79259,0,0,0,10.6718,3.9155,142.02228,142.02228,0,0,0-2.2641,14.1992A60.09253,60.09253,0,0,1,75.76942,276.30732Zm4.3169-13.88769a100.28127,100.28127,0,0,1,8.3545-16.3071,37.1503,37.1503,0,0,0,7.1758,2.6191q-1.0386,2.9481-1.9927,6.1123c-1.1323,3.7803-2.1113,7.6265-2.935,11.4751A52.318,52.318,0,0,1,80.08632,262.41963Zm5.0015-40.09131a19.26353,19.26353,0,0,1,8.4092-1.15579,32.8782,32.8782,0,0,1,13.4267,4.377,57.94724,57.94724,0,0,0-28.479,7.6455c-.0019-.0669-.0088-.1333-.0088-.2002C78.43592,229.06373,80.78162,225.33173,85.08782,222.32832Zm-7.03469,11.63621a11.55546,11.55546,0,0,0,2.16159,5.584c-1.2602,1.25979-2.4907,2.586-3.6777,3.981a74.243,74.243,0,0,0-7.3506,10.3169,17.00357,17.00357,0,0,1-3.0825-6.4473,14.14858,14.14858,0,0,1-.3384-2.7969A46.12766,46.12766,0,0,1,78.05313,233.96453Zm-12.689,11.1539a14.46326,14.46326,0,0,0,.31789,2.37589,17.50455,17.50455,0,0,0,3.2695,6.76521,68.6626,68.6626,0,0,0-5.6035,12.13179,22.53842,22.53842,0,0,1-1.5332-2.33589,17.48793,17.48793,0,0,1-2.3032-8.1338A37.30414,37.30414,0,0,1,65.36413,245.11843Zm-7.665,21.559a33.698,33.698,0,0,1,1.44919-9.64211,18.1553,18.1553,0,0,0,2.2891,7.231,23.01789,23.01789,0,0,0,1.7348,2.61671,51.03106,51.03106,0,0,0-2.31,10.0015A18.3669,18.3669,0,0,1,57.69913,266.67743Zm15.77639,31.0332c-5.7681-3.3296-9.9468-7.438-12.2022-11.8989a31.93689,31.93689,0,0,1-.1577-7.7856,34.54068,34.54068,0,0,0,10.9771,9.4687c.6015.3482,1.2172.6841,1.8422,1.0117a52.81235,52.81235,0,0,0,.8038,9.8965C74.31482,298.176,73.88813,297.94893,73.47552,297.71063Zm.8955-8.9868a62.80994,62.80994,0,0,0,13.2788,4.877,42.77971,42.77971,0,0,0,1.2134,10.0888,60.26463,60.26463,0,0,1-13.6182-5.00831A50.45882,50.45882,0,0,1,74.371,288.72383Zm4.2568,17.8736a18.267,18.267,0,0,1-3.2651-7.37211,61.13312,61.13312,0,0,0,13.625,4.93261c.2588.9668.5483,1.90139.8789,2.7881a23.73254,23.73254,0,0,0,2.3628,4.7265A51.75059,51.75059,0,0,1,78.62782,306.59743Zm28.8965,6.7846a69.96,69.96,0,0,1-14.751-1.5932,25.66777,25.66777,0,0,1-3.3379-7.5269,81.07152,81.07152,0,0,0,18.0889,2.0542Zm0-7.4922a80.4517,80.4517,0,0,1-18.2241-2.0981,41.637,41.637,0,0,1-1.2598-10.0923,83.462,83.462,0,0,0,19.4839,2.3037Zm0-10.31251a82.9639,82.9639,0,0,1-19.4927-2.32029v-.0044a114.16564,114.16564,0,0,1,.64551-11.7837,80.47154,80.47154,0,0,0,18.84719,2.2373Zm0-12.29829a79.95177,79.95177,0,0,1-18.7988-2.2393c.5073-4.706,1.2783-9.4887,2.271-14.1982a70.05251,70.05251,0,0,0,16.5278,1.98579Zm0-14.8774a69.5049,69.5049,0,0,1-16.4375-1.9791,143.467,143.467,0,0,1,4.9214-17.5961,48.81214,48.81214,0,0,0,11.5161,1.4121Zm0-18.5894a48.33693,48.33693,0,0,1-11.3687-1.3906c3.2193-9.0215,7.1573-16.7407,11.3687-21.6587Zm42.5923-4.6938a37.26479,37.26479,0,0,1,5.85351,10.8051,17.46578,17.46578,0,0,1-2.291,8.1089,22.538,22.538,0,0,1-1.64261,2.4912,68.52554,68.52554,0,0,0-5.5898-12.1636,17.50621,17.50621,0,0,0,3.372-6.9531A14.31713,14.31713,0,0,0,150.11662,245.11843Zm-15.2241-5.792a55.41148,55.41148,0,0,0-10.7417-8.4229,33.5938,33.5938,0,0,0-15.1612-4.90821,57.48918,57.48918,0,0,1,28.0254,7.72461A11.09044,11.09044,0,0,1,134.89252,239.32643Zm.0835.624c1.2045,1.2124,2.3818,2.4883,3.5195,3.8252a74.08861,74.08861,0,0,1,7.4609,10.5044,29.436,29.436,0,0,1-8.3667,6.9555,87.39227,87.39227,0,0,0-8.979-15.9423c.0366-.0206.0762-.0372.1128-.0586A20.73133,20.73133,0,0,0,134.976,239.95043Zm-11.0225-8.7119a55.07171,55.07171,0,0,1,10.71,8.4082,20.26611,20.26611,0,0,1-6.1568,5.2133c-.0469.0264-.09959.0494-.1465.0767a69.52881,69.52881,0,0,0-19.146-18.5356A33.32435,33.32435,0,0,1,123.95352,231.23853Zm13.2612,30.2094a50.72367,50.72367,0,0,1-12.5649,4.9087c-.8262-3.8632-1.8081-7.7241-2.9448-11.518q-.9441-3.1488-1.98-6.0767a36.14321,36.14321,0,0,0,8.5058-3.2705A87.03306,87.03306,0,0,1,137.21472,261.44793Zm.168.40239a75.82749,75.82749,0,0,1,4.3042,13.39351,58.34836,58.34836,0,0,1-14.687,5.7281,141.93883,141.93883,0,0,0-2.25979-14.1968A51.17435,51.17435,0,0,0,137.38272,261.85032Zm.3765-.20949a30.09461,30.09461,0,0,0,8.4277-6.957,67.93754,67.93754,0,0,1,5.57421,12.2168,33.45319,33.45319,0,0,1-9.68161,8.11769A76.39363,76.39363,0,0,0,137.75922,261.64083Zm11.9531-17.0434a14.11787,14.11787,0,0,1-.3154,2.7158,16.98789,16.98789,0,0,1-3.1827,6.6455,74.27532,74.27532,0,0,0-7.4218-10.4346q-1.738-2.04195-3.586-3.8921a11.58857,11.58857,0,0,0,2.22271-5.6675A46.10348,46.10348,0,0,1,149.71232,244.59743Zm-19.2734-22.2383c4.2788,2.9995,6.6064,6.7187,6.6064,10.6367,0,.0669-.0068.1323-.0083.1992a57.94858,57.94858,0,0,0-28.4551-7.645C116.82122,221.14963,124.42572,220.06073,130.43892,222.35913Zm-22.125,3.9936c7.3056,4.3784,14.0751,11.0147,19.664,18.7832a35.84333,35.84333,0,0,1-8.395,3.2188c-3.3862-9.5152-7.4204-17.1836-11.6231-22.021C108.07752,226.33613,108.19622,226.34883,108.31392,226.35273Zm-.3565.5904c4.1602,4.9331,8.0474,12.5854,11.231,21.5146a48.38132,48.38132,0,0,1-11.231,1.3545Zm0,23.2954a48.90786,48.90786,0,0,0,11.3779-1.3745,143.154,143.154,0,0,1,4.9146,17.5922,69.62,69.62,0,0,1-16.2925,1.9454Zm0,18.58879a70.15273,70.15273,0,0,0,16.3833-1.95259c.9907,4.709,1.7607,9.4907,2.2661,14.1953a79.998,79.998,0,0,1-18.6494,2.209Zm0,14.87891a80.543,80.543,0,0,0,18.6982-2.2075,114.151,114.151,0,0,1,.6412,11.74859l-.0005.04191a83.0607,83.0607,0,0,1-19.3389,2.28809Zm0,12.2969a83.58233,83.58233,0,0,0,19.3306-2.2715,41.60746,41.60746,0,0,1-1.273,10.1016,80.52541,80.52541,0,0,1-18.0576,2.0566Zm14.5684,15.8267a70.14723,70.14723,0,0,1-14.5684,1.5522v-7.0659a81.07335,81.07335,0,0,0,17.9219-2.0122A25.60543,25.60543,0,0,1,122.52582,311.82983Zm14.7187-5.4468a51.47882,51.47882,0,0,1-14.1733,5.3276,23.72181,23.72181,0,0,0,2.3911-4.7695c.3252-.874.61081-1.7959.8672-2.7476a59.97708,59.97708,0,0,0,15.1738-5.7128A22.29585,22.29585,0,0,1,137.24452,306.383Zm4.4248-8.4883a59.00234,59.00234,0,0,1-15.2129,5.8291,42.763,42.763,0,0,0,1.2222-10.0898,61.0547,61.0547,0,0,0,15.3774-5.9566A37.47816,37.47816,0,0,1,141.66932,297.89473Zm-13.9839-4.7036a115.85294,115.85294,0,0,0-.6386-11.79,58.85371,58.85371,0,0,0,14.7348-5.7159,56.841,56.841,0,0,1,1.2803,11.4952A60.36474,60.36474,0,0,1,127.68542,293.19113Zm15.8023-6.2632a57.54637,57.54637,0,0,0-1.3125-11.4614,34.27418,34.27418,0,0,0,9.75-8.0664,49.70215,49.70215,0,0,1,2.2451,10.15719A33.67694,33.67694,0,0,1,143.48772,286.92793Zm11.0097-9.8677a50.89256,50.89256,0,0,0-2.291-10.0356,23.0868,23.0868,0,0,0,1.8506-2.7808,18.13219,18.13219,0,0,0,2.2754-7.2099,33.681,33.681,0,0,1,1.4522,9.688A18.42445,18.42445,0,0,1,154.49742,277.06023Z" style="mix-blend-mode:multiply" fill="url(#m)"/><polygon points="261.293 518.875 238.325 518.875 310.637 560.624 189.106 630.791 212.075 630.791 333.607 560.624 261.293 518.875" style="mix-blend-mode:multiply" fill="url(#b)"/><polygon fill="#e09124" points="211.26 501.248 89.728 571.415 189.105 628.791 310.637 558.624 211.26 501.248" class="color24dce0 svgShape"/><polygon fill="#fcfaf7" points="189.302 617.032 189.302 626.677 93.39 571.302 93.39 561.657 189.302 617.032" class="colorf7f7fc svgShape"/><polygon fill="#e4d4bd" points="306.976 549.093 306.976 558.738 189.302 626.677 189.302 617.032 306.976 549.093" class="colorbdc1e4 svgShape"/><polygon fill="#e09124" points="211.26 489.604 89.728 559.77 189.105 617.146 310.637 546.979 211.26 489.604" class="color24dce0 svgShape"/><polygon fill="#ffa82e" points="89.728 573.415 189.106 630.791 189.106 628.791 91.46 572.416 91.46 562.771 189.106 619.146 189.106 617.146 89.728 559.77 89.728 573.415" class="color2ef5ff svgShape"/><polygon fill="#b56d08" points="189.106 617.146 310.637 546.979 310.637 548.979 189.106 619.146 189.106 617.146" class="color08b1b5 svgShape"/><polygon fill="#b56d08" points="189.106 628.791 310.637 558.624 310.637 560.624 189.106 630.791 189.106 628.791" class="color08b1b5 svgShape"/><polygon points="198.097 509.315 123.869 552.171 202.268 597.435 276.497 554.579 198.097 509.315" style="mix-blend-mode:multiply" fill="#f4f4f4" class="colorf4f4f4 svgShape"/><polygon fill="#c67d18" points="143.046 563.243 143.164 541.031 123.869 552.171 143.046 563.243" class="color18c6c6 svgShape"/><polygon fill="#f2f0ed" points="193.75 540.635 191.344 542.025 219.841 558.478 222.247 557.089 193.75 540.635" class="colorf2eeed svgShape"/><polygon fill="#f2f0ed" points="183.169 552.578 180.762 553.968 199.157 564.588 201.564 563.198 183.169 552.578" class="colorf2eeed svgShape"/><polygon fill="#b56d08" points="91.46 572.416 93.39 571.302 93.39 563.885 91.46 562.771 91.46 572.416" class="color08b1b5 svgShape"/><polygon points="301.336 264.41 283.147 264.409 419.071 342.886 175.166 483.705 193.356 483.704 437.26 342.886 301.336 264.41" style="mix-blend-mode:multiply" fill="url(#n)"/><path fill="url(#o)" d="M44.557,398.19793v.1543A.73685.73685,0,0,0,44.557,398.19793Zm374.62311-66.4902c0,.0254.00578.0518.00578.0772A.34767.34767,0,0,0,419.18013,331.70773Zm-5.21682,7.3897L186.86172,470.21453c-6.9639,4.0205-18.3603,4.0196-25.3252-.0009l-111.7588-64.5244c-3.4707-2.004-5.209-4.6426-5.2207-7.2833V408.78c-.039,2.6836,1.6944,5.375,5.2207,7.4111l111.7588,64.5244c6.9649,4.0205,18.3613,4.0215,25.3252.001L413.96331,349.59932c3.4824-2.01069,5.2236-4.66209,5.2226-7.31249v-10.499C419.18591,334.43723,417.44471,337.08663,413.96331,339.09743Z"/><path fill="#f6e6d0" d="M186.86172,470.21453c-6.9639,4.0205-18.3603,4.0196-25.3252-.0009l-111.7588-64.5244c-6.9638-4.0206-6.9638-10.5997,0-14.6202l227.10159-131.1172c6.96382-4.0214,18.3603-4.02051,25.3242,0l111.7588,64.52349c6.96482,4.02151,6.96482,10.60061.001,14.62211Z" class="colord0d4f6 svgShape"/><polygon fill="#e4d4bd" points="190.543 460.778 66.122 388.943 279.832 265.557 404.254 337.392 190.543 460.778" class="colorbdc1e4 svgShape"/><path fill="#e4d4bd" d="M113.53062,424.14723a7.68625,7.68625,0,0,1,6.9278,0l9.1084,5.2587c1.90531,1.1006,1.9062,2.90039,0,4l-9.1074,5.2588a7.6807,7.6807,0,0,1-6.9278,0l-9.1084-5.2588c-1.9052-1.09961-1.9062-2.8994,0-4Z" class="colorbdc1e4 svgShape"/><polygon fill="#e4d4bd" points="335.438 287.81 365.711 305.289 363.763 306.413 333.49 288.934 335.438 287.81" class="colorbdc1e4 svgShape"/><path d="M413.96231,324.47532,379.52481,304.593H337.224l-123.66209,44.9995-79.6299,72.372h20.7373v2.6231h10.291v4.1738h93.70019l14.294-8.2519,141.0088-81.4121C420.92713,335.07593,420.92713,328.49683,413.96231,324.47532Z" style="mix-blend-mode:multiply" fill="url(#p)"/><polygon fill="#c69755" points="229.456 204.598 334.402 147.818 337.224 149.447 232.28 206.228 229.456 204.598" class="color5555c6 svgShape"/><polygon fill="#c69755" points="229.456 204.598 131.109 265.189 133.932 266.818 232.28 206.228 229.456 204.598" class="color5555c6 svgShape"/><polygon fill="#e2b06a" points="133.932 421.965 131.109 420.336 131.109 265.189 133.932 266.818 133.932 421.965" class="color6a6ae2 svgShape"/><polygon fill="#8f6831" points="232.28 361.375 133.932 421.965 133.932 266.818 232.28 206.228 232.28 361.375" class="color34318f svgShape"/><polygon fill="#8f6831" points="337.224 304.594 232.28 361.375 232.28 206.228 337.224 149.447 337.224 304.594" class="color34318f svgShape"/><polygon fill="#f6e6d0" points="231.983 210.52 331.6 156.621 347.642 165.883 242.872 216.807 231.983 210.52" class="colord0d4f6 svgShape"/><polygon fill="#f6e6d0" points="231.983 210.52 138.627 268.034 154.669 277.296 242.872 216.807 231.983 210.52" class="colord0d4f6 svgShape"/><polygon fill="#fcfaf7" points="154.669 424.588 138.627 415.326 138.627 268.034 154.669 277.296 154.669 424.588" class="colorf7f7fc svgShape"/><polygon fill="#e4d4bd" points="242.872 364.099 154.669 424.588 154.669 277.296 242.872 216.807 242.872 364.099" class="colorbdc1e4 svgShape"/><polygon fill="#f9f2e8" points="242.872 364.099 164.96 428.761 164.96 281.469 242.872 216.807 242.872 364.099" class="colore8ecf9 svgShape"/><polygon fill="#e4d4bd" points="347.642 313.175 242.872 364.099 242.872 216.807 347.642 165.883 347.642 313.175" class="colorbdc1e4 svgShape"/><polygon fill="#f9eede" points="349.496 317.588 242.872 364.099 242.872 216.807 349.496 170.296 349.496 317.588" class="colordee2f9 svgShape"/><polygon fill="#fcfaf7" points="347.954 328.88 242.872 364.099 242.872 216.807 347.954 181.588 347.954 328.88" class="colorf7f7fc svgShape"/><path fill="#aa7e41" d="M202.98082 260.96313c.71-.5894 1.0645-.88381 1.7745-1.4732l-.0245 2.8965c-.7109.58989-1.0654.8853-1.7753 1.4746C202.96522 262.70183 202.97113 262.12232 202.98082 260.96313zM207.932 256.85323c.7139-.5928 1.0713-.8887 1.79011-1.4848-.00791 1.1572-.01181 1.7353-.01961 2.8925-.7187.5967-1.0771.895-1.792 1.4883C207.91932 258.59153 207.92322 258.01093 207.932 256.85323zM199.80513 263.59832c-.71391.59231-1.07041.88921-1.78811 1.48491-.0117 1.1602-.0176 1.7402-.0283 2.9004.7177-.5957 1.0761-.8926 1.79-1.4854C199.78942 265.33863 199.79432 264.758 199.80513 263.59832z" class="color4141aa svgShape"/><path fill="#e4d4bd" d="M169.29332 301.70673q34.5879-28.7028 69.17289-57.4087v2.1241q-34.58938 28.70715-69.17969 57.4145C169.28942 302.98463 169.29042 302.55883 169.29332 301.70673zM169.27192 309.22432q34.5966-28.71238 69.19329-57.42529v2.124q-34.59959 28.71615-69.20019 57.4317C169.268 310.50263 169.26892 310.07643 169.27192 309.22432zM169.24942 316.74243q34.60845-28.7205 69.21479-57.4424v2.124q-34.61279 28.72275-69.22069 57.4497C169.24652 318.02173 169.24652 317.59443 169.24942 316.74243zM169.22692 324.26093q34.62015-28.72695 69.23539-57.4604c0 .8501-.001 1.2749-.001 2.125q-34.62148 28.733-69.24118 57.4663C169.223 325.53973 169.224 325.113 169.22692 324.26093zM169.20452 331.778q34.63185-28.73356 69.25679-57.4765c0 .8501-.001 1.2744-.001 2.1245q-34.63183 28.7409-69.26169 57.4834C169.20152 333.05732 169.20152 332.63013 169.20452 331.778zM169.183 339.29713q28.4883-23.64045 56.9726-47.2842c-.0019.8515-.0029 1.2778-.0048 2.12939q-28.48545 23.64482-56.9746 47.28461C169.17913 340.57493 169.18013 340.14913 169.183 339.29713zM173.91052 350.37423q32.27205-26.7861 64.54689-53.5698c0 .8501.001 1.2744.001 2.1245q-32.28223 26.78835-64.56059 53.5806C173.90272 351.65553 173.90562 351.22823 173.91052 350.37423zM169.11762 361.85132q34.6728-28.76878 69.33979-57.54639c0 .8501-.001 1.27439-.001 2.1245q-34.67429 28.77465-69.34569 57.5517C169.11372 363.12913 169.11462 362.70332 169.11762 361.85132zM169.09513 369.36883q34.6845-28.77676 69.36128-57.5629c0 .85-.0009 1.27439-.0009 2.1245q-34.68314 28.78483-69.36629 57.5683C169.09222 370.64723 169.09222 370.22093 169.09513 369.36883zM169.07362 376.88643q34.69485-28.78485 69.38189-57.5796c0 .8501-.001 1.2744-.001 2.12449q-34.69334 28.79311-69.38769 57.586C169.06972 378.16473 169.07072 377.739 169.07362 376.88643zM169.05122 384.405q34.70655-28.79235 69.40129-57.5972c0 .8501.001 1.2749.001 2.125q-34.70353 28.801-69.40819 57.6021C169.04822 385.68232 169.04822 385.25653 169.05122 384.405zM169.02972 391.92353q34.71675-28.80165 69.42279-57.61521v2.125q-34.71523 28.80977-69.42869 57.62011C169.02672 393.20183 169.02672 392.77613 169.02972 391.92353zM169.00822 399.44113q15.6723-13.00335 31.3428-26.0107c-.00789.8564-.0118 1.2851-.0196 2.1416q-15.66494 13.0005-31.33 25.999C169.00432 400.71943 169.00532 400.29363 169.00822 399.44113z" class="colorbdc1e4 svgShape"/><path fill="#aa7e41" d="M294.00141 210.71893c1.1298-.3784 1.6933-.5678 2.8232-.9463v2.877c-1.1299.3784-1.6934.5679-2.8232.9463zM301.86561 208.08323c1.1279-.37791 1.6904-.5664 2.8164-.94391v2.877c-1.126.37741-1.6885.56541-2.8164.94341zM288.96231 212.40793c-1.1279.3779-1.6914.5669-2.8174.9443v2.8765c1.126-.37741 1.6895-.5659 2.8174-.9438z" class="color4141aa svgShape"/><path fill="#e4d4bd" d="M247.44861 239.10663q47.9649-16.0752 95.9287-32.1508v2.12349q-47.9634 16.07882-95.9287 32.15141zM247.44861 246.60573q47.9649-16.07311 95.9287-32.1499v2.123q-47.9634 16.0803-95.9287 32.1523zM247.44861 254.10573q47.9664-16.07161 95.9287-32.15041v2.12351q-47.9634 16.0788-95.9287 32.1528zM247.44861 261.60613q47.9649-16.073 95.9287-32.1513v2.12449q-47.9634 16.07882-95.9287 32.15181zM247.44861 269.10613q36.9609-12.38805 73.9219-24.7753v2.12449q-36.9609 12.38746-73.9219 24.77541zM253.59121 274.54713q44.893-15.04545 89.7861-30.0923v2.12449q-44.89305 15.04606-89.7861 30.09281zM247.44861 284.10613q47.9649-16.07522 95.9287-32.1513v2.12449q-47.9634 16.07882-95.9287 32.15141zM247.44861 291.60573q47.9649-16.07312 95.9287-32.1509v2.125q-47.9634 16.07655-95.9287 32.1509zM247.44861 299.10613q41.68215-13.968 83.3623-27.9389v2.1245q-41.68065 13.971-83.3623 27.939zM253.59121 304.54663q44.893-15.04546 89.7861-30.0918v2.125q-44.89155 15.0498-89.7861 30.0918zM247.44861 314.10573q47.9649-16.0752 95.9287-32.1509v2.124q-47.9634 16.0803-95.9287 32.1523zM247.44861 321.60573c31.9766-10.71541 42.919-14.3775 74.8936-25.0992v2.1255c-31.9756 10.7202-42.917 14.38229-74.8936 25.0991z" class="colorbdc1e4 svgShape"/><polygon points="736.845 301.749 517.499 301.749 431.918 373.193 503.595 373.193 483.583 384.747 517.622 384.747 517.499 384.817 736.845 384.817 736.845 301.749" style="mix-blend-mode:multiply" fill="url(#q)"/><polygon fill="#e4d4bd" points="416.306 364.18 416.307 231.251 495.472 185.543 495.472 318.474 416.306 364.18" class="colorbdc1e4 svgShape"/><polygon fill="#fcfaf7" points="504.409 201.338 490.639 193.388 418.152 235.239 431.92 243.188 504.409 201.338" class="colorf7f7fc svgShape"/><polygon fill="#e4d4bd" points="431.918 373.193 431.919 240.263 511.084 194.556 511.084 327.488 431.918 373.193" class="colorbdc1e4 svgShape"/><polygon fill="#f6e6d0" points="414.463 230.184 493.629 184.478 495.471 185.541 418.151 230.184 431.919 238.132 509.241 193.49 511.084 194.554 431.918 240.261 414.463 230.184" class="colord0d4f6 svgShape"/><polygon fill="#ffffff" points="457.719 299.01 457.719 284.655 485.284 268.739 485.284 283.095 457.719 299.01" class="colorfff svgShape"/><polygon fill="#f9eede" points="414.464 363.117 414.463 230.184 431.918 240.261 431.918 373.193 414.464 363.117" class="colordee2f9 svgShape"/><polygon fill="#fcfaf7" points="417.884 339.041 417.883 258.209 428.497 264.337 428.497 345.168 417.884 339.041" class="colorf7f7fc svgShape"/><polygon fill="#f6e6d0" points="417.884 265.798 417.883 258.209 428.497 264.337 428.497 271.925 417.884 265.798" class="colord0d4f6 svgShape"/><polygon fill="#f6e6d0" points="417.884 339.041 417.883 331.452 428.497 337.58 428.497 345.168 417.884 339.041" class="colord0d4f6 svgShape"/><polygon fill="#f6e6d0" points="419.344 295.026 427.039 299.468 427.039 308.351 419.345 303.909 419.344 295.026" class="colord0d4f6 svgShape"/><polygon fill="#6b4a1c" points="452.778 363.277 452.779 226.693 531.944 180.985 531.944 317.571 452.778 363.277" class="color1e1c6b svgShape"/><polygon fill="#f6e6d0" points="540.88 196.781 527.111 188.831 454.623 230.681 468.392 238.63 540.88 196.781" class="colord0d4f6 svgShape"/><polygon fill="#6b4a1c" points="468.39 372.29 468.391 235.705 547.556 189.999 547.556 326.584 468.39 372.29" class="color1e1c6b svgShape"/><polygon fill="#aa7e41" points="450.935 225.626 530.101 179.92 531.943 180.983 454.622 225.626 468.391 233.574 545.712 188.933 547.556 189.996 468.39 235.703 450.935 225.626" class="color4141aa svgShape"/><polygon fill="#e4d4bd" points="495.113 299.764 495.113 285.409 522.677 269.494 522.677 283.85 495.113 299.764" class="colorbdc1e4 svgShape"/><polygon fill="#c69755" points="450.936 362.214 450.935 225.626 468.39 235.703 468.39 372.29 450.936 362.214" class="color5555c6 svgShape"/><path fill="#fcfaf7" d="M465.63513 302.40593a13.20254 13.20254 0 00-5.97262-10.3452c-3.2988-1.9043-5.9727-.3598-5.9727 3.4488a13.20046 13.20046 0 005.9727 10.3452C462.96131 307.759 465.63513 306.21553 465.63513 302.40593zM465.63513 265.23073a13.19963 13.19963 0 00-5.97262-10.3453c-3.2988-1.9043-5.9727-.3603-5.9727 3.4483a13.20186 13.20186 0 005.9727 10.3452C462.96131 270.58323 465.63513 269.03883 465.63513 265.23073zM465.63513 339.58273a13.201 13.201 0 00-5.97262-10.3452c-3.2988-1.9043-5.9727-.3608-5.9727 3.4487a13.20248 13.20248 0 005.9727 10.3452C462.96131 344.93573 465.63513 343.39132 465.63513 339.58273z" class="colorf7f7fc svgShape"/><polygon fill="#e4d4bd" points="469.083 221.808 469.083 374.13 550.523 327.113 550.523 174.788 469.083 221.808" class="colorbdc1e4 svgShape"/><polygon fill="#fcfaf7" points="559.933 191.426 545.431 183.053 469.083 227.133 483.586 235.506 559.933 191.426" class="colorf7f7fc svgShape"/><polygon fill="#e4d4bd" points="483.586 232.422 483.583 384.749 566.965 336.604 566.963 184.283 483.586 232.422" class="colorbdc1e4 svgShape"/><polygon fill="#f6e6d0" points="465.2 221.808 548.581 173.669 550.523 174.788 469.083 221.808 483.586 230.179 565.025 183.16 566.963 184.283 483.586 232.422 465.2 221.808" class="colord0d4f6 svgShape"/><polygon fill="#ffffff" points="511.729 284.772 511.73 299.894 540.763 283.134 540.763 268.011 511.729 284.772" class="colorfff svgShape"/><polygon fill="#f9eede" points="465.202 221.808 465.202 374.132 483.583 384.747 483.586 232.422 465.202 221.808" class="colordee2f9 svgShape"/><polygon fill="#fcfaf7" points="465.202 347.495 465.202 359.884 483.583 370.499 483.583 358.11 465.202 347.495" class="colorf7f7fc svgShape"/><polygon fill="#fcfaf7" points="465.202 235.883 465.202 248.274 483.583 258.889 483.583 246.5 465.202 235.883" class="colorf7f7fc svgShape"/><polygon fill="#e4d4bd" points="486.982 356.147 486.982 368.539 483.583 370.499 483.583 358.11 486.982 356.147" class="colorbdc1e4 svgShape"/><polygon fill="#e4d4bd" points="486.982 244.537 486.982 256.928 483.583 258.889 483.583 246.5 486.982 244.537" class="colorbdc1e4 svgShape"/><path fill="#b56d08" d="M509.73471,236.33663l-4.3681,2.5415v5.74219a9.9174,9.9174,0,0,0,2.2881,1.77541c5.1953,2.998,13.6191,3.0005,18.81442,0l.002,116.4624,54.85938-31.67481V195.00023Z" class="color08b1b5 svgShape"/><path fill="#f6e6d0" d="M509.39,241.29463s64.37012-37.164,67.6748-39.0737c2.57032,1.4849,12.7754,7.37739,15.3438,8.8599-3.3047,1.9086-67.6739,39.0722-67.6739,39.0722a16.98032,16.98032,0,0,1-15.3447,0C505.16251,247.71113,505.16051,243.73653,509.39,241.29463Z" class="colord0d4f6 svgShape"/><polygon fill="#b56d08" points="526.472 382.579 526.472 246.394 598.411 204.861 598.411 341.045 526.472 382.579" class="color08b1b5 svgShape"/><path fill="#e09124" d="M507.65471,246.39573c-5.1944-2.9995-5.1963-7.8633,0-10.8638l71.94042-41.5337,1.73538,1.002L509.39,236.53393c-4.2295,2.4433-4.2275,6.4165,0,8.8598a16.98652,16.98652,0,0,0,15.3447,0l71.9405-41.5351,1.7353,1.0019-71.94138,41.5352C521.27381,249.39623,512.85,249.39373,507.65471,246.39573Z" class="color24dce0 svgShape"/><path fill="url(#r)" d="M507.65471,246.39573c5.1953,2.998,13.6191,3.0005,18.81442,0l.003,136.1831c-5.19932,3-13.62412,3-18.81842,0-2.5967-1.498-3.8955-3.4629-3.8955-5.4297V240.96363C503.75821,242.92993,505.058,244.89573,507.65471,246.39573Z"/><polygon fill="#e4d4bd" points="545.843 313.764 545.843 292.839 579.039 273.674 579.039 294.602 545.843 313.764" class="colorbdc1e4 svgShape"/><path d="M523.21521 320.93432v-7.67869c-5.0166 1.51069-11.3486 1.05069-15.5605-1.3804a7.75165 7.75165 0 01-3.585-3.8042 4.64373 4.64373 0 01-.3115-1.6275c-.0293 0 0 7.67879 0 7.67879-.0059 1.96581 1.2998 3.93211 3.8965 5.43161C511.86661 321.985 518.19861 322.444 523.21521 320.93432zM507.65471 261.43093a7.75165 7.75165 0 01-3.585-3.8042 4.64843 4.64843 0 01-.3115-1.6275v3.2554c-.0059 1.9658 1.2998 3.9306 3.8965 5.4306 5.1953 3.0005 13.6181 3.0005 18.81342 0v-3.2534C521.27381 264.43043 512.85 264.42893 507.65471 261.43093zM507.65471 270.44553a7.752 7.752 0 01-3.584-3.80421 4.63824 4.63824 0 01-.3115-1.62649v3.2554c-.0049 1.9658 1.2998 3.93209 3.8955 5.4307 5.1953 3.0005 13.6191 3.0005 18.81442 0v-3.2534C521.27481 273.446 512.85191 273.445 507.65471 270.44553zM507.65661 355.27123a7.74292 7.74292 0 01-3.584-3.8037 4.63115 4.63115 0 01-.31248-1.627v3.2539c-.00482 1.9668 1.29888 3.9317 3.89648 5.4317 5.1963 2.998 13.6182 3.0009 18.81452 0v-3.2539C521.27481 358.27223 512.85291 358.26923 507.65661 355.27123zM507.65761 364.28683a7.76227 7.76227 0 01-3.585-3.8037 4.65014 4.65014 0 01-.31148-1.6279V362.11c-.00492 1.9668 1.29878 3.9327 3.89648 5.4317 5.1953 2.999 13.6172 3 18.81452 0v-3.2549C521.27671 367.28783 512.85391 367.28583 507.65761 364.28683z" style="mix-blend-mode:multiply" fill="#e2e0de" class="colore2dede svgShape"/><polygon points="622.393 370.807 599.424 370.807 671.737 412.557 563.591 474.996 586.56 474.996 694.706 412.557 622.393 370.807" style="mix-blend-mode:multiply" fill="url(#s)"/><polygon fill="#aa7e41" points="599.423 368.864 491.278 431.302 563.59 473.052 671.736 410.614 599.423 368.864" class="color4141aa svgShape"/><polygon fill="#fcfaf7" points="495.694 431.868 495.694 422.495 561.907 460.723 561.907 470.096 495.694 431.868" class="colorf7f7fc svgShape"/><polygon fill="#aa7e41" points="599.423 357.547 491.278 419.985 563.591 461.734 671.736 399.297 599.423 357.547" class="color4141aa svgShape"/><polygon fill="#c69755" points="563.591 461.734 491.278 419.984 491.278 421.928 561.907 462.706 561.907 472.08 491.278 431.302 491.278 433.246 563.591 474.996 563.591 461.734" class="color5555c6 svgShape"/><polygon fill="#c69755" points="560.806 379.843 529.895 397.689 602.208 439.439 633.119 421.593 560.806 379.843" class="color5555c6 svgShape"/><polygon fill="#6b4a1c" points="671.737 399.297 563.591 461.734 563.591 474.996 671.737 412.557 671.737 399.297" class="color1e1c6b svgShape"/><polygon fill="#8f6831" points="649.678 412.032 640.138 417.54 640.138 430.802 649.678 425.294 649.678 412.032" class="color34318f svgShape"/><polygon fill="#8f6831" points="585.65 448.999 595.19 443.491 595.19 456.753 585.65 462.26 585.65 448.999" class="color34318f svgShape"/><polygon fill="#f6e6d0" points="576.419 402.195 568.611 406.704 586.593 417.086 594.402 412.578 576.419 402.195" class="colord0d4f6 svgShape"/><polygon fill="#8f6831" points="633.12 421.593 602.208 439.439 602.208 452.7 633.119 434.853 633.12 421.593" class="color34318f svgShape"/><path d="M258.81971,524.86053c-14.6308-8.44821-34.542-11.9775-53.59958-10.6094,13.74509.9864,27.04689,4.5166,37.59958,10.6094,25.1846,14.54,25.1826,38.1143,0,52.65429-10.55369,6.0928-23.85639,9.623-37.60249,10.6094,19.0576,1.3681,38.96969-2.1621,53.60249-10.6094C284.00231,562.97483,284.00431,539.40053,258.81971,524.86053Z" style="mix-blend-mode:multiply" fill="url(#t)"/><path d="M171.86852,524.86043c10.5528-6.0928,23.8555-9.623,37.60161-10.6094-19.05861-1.3681-38.96971,2.1621-53.60161,10.6094-25.1855,14.54-25.1855,38.1143,0,52.65429,14.6309,8.4482,34.5411,11.9775,53.5987,10.6094-13.74509-.9864-27.0459-4.5166-37.5987-10.6094C146.683,562.97473,146.683,539.40043,171.86852,524.86043Z" style="mix-blend-mode:multiply" fill="url(#u)"/><path fill="#afaaa3" d="M152.02772,524.72923c-25.30959,14.6133-25.30759,38.3037.002,52.916,25.3076,14.6123,66.3398,14.6123,91.64941-.001,25.30858-14.61129,25.31048-38.30169.001-52.914C218.37152,510.11793,177.33632,510.11793,152.02772,524.72923Zm84.0899,48.54979c-21.1319,12.2012-55.3946,12.2012-76.5274,0-21.1328-12.20019-21.1338-31.98239-.001-44.18359,21.13291-12.2002,55.3965-12.2002,76.5293,0C257.25141,541.29663,257.25041,561.07883,236.11762,573.279Z" class="colorafa3a8 svgShape"/><path fill="#6b4a1c" d="M236.11852,514.20873c-21.1328-12.2002-55.39639-12.2002-76.5293-.001-13.87109,8.0088-18.6367,19.2832-14.2988,29.5361,2.2715-5.3681,7.0381-10.456,14.2988-14.6484,21.13291-12.2002,55.3965-12.2002,76.5293,0,7.26179,4.1924,12.02839,9.2803,14.29889,14.6484C254.75531,533.49093,249.98961,522.21653,236.11852,514.20873Z" class="color1e1c6b svgShape"/><path d="M159.476,518.85032c21.1289-12.19919,55.3877-12.20019,76.5175,0,21.12989,12.19921,21.12889,31.97851,0,44.17771-21.1308,12.19919-55.3877,12.20019-76.5175,0C138.34513,550.82883,138.34513,531.04953,159.476,518.85032Z" style="mix-blend-mode:screen" fill="#6b6b6b" class="color6b6b6b svgShape"/><path d="M164.91052 521.03193c4.6045-2.9297 12.2598-3.2617 17.10061-.7392 4.83989 2.5215 5.03129 6.9423.42679 9.873-4.6045 2.9297-12.25979 3.2608-17.1006.7393C160.49742 528.38353 160.306 523.96263 164.91052 521.03193zM188.11462 515.66083a7.83494 7.83494 0 017.0791-.3056c2.003 1.0439 2.0821 2.874.1768 4.0869a7.8322 7.8322 0 01-7.0791.3066C186.28752 518.70483 186.20742 516.87473 188.11462 515.66083z" style="mix-blend-mode:screen" fill="#e2b06a" class="color6a6ae2 svgShape"/><path d="M159.476,521.06123c21.1289-12.1992,55.3877-12.2002,76.5175,0,10.07819,5.8184,15.337,13.3604,15.80179,20.9824.50882-8.3584-4.749-16.8125-15.80179-23.19331-21.1298-12.20019-55.3886-12.19919-76.5175,0-11.0528,6.38081-16.3125,14.83491-15.8028,23.19331C144.13813,534.42163,149.39782,526.87963,159.476,521.06123Z" style="mix-blend-mode:screen" fill="#c6c1b9" class="colorc6b9be svgShape"/><path fill="#aa7e41" d="M152.02772,509.84253c-25.30959,14.6133-25.30759,38.3037.002,52.916,25.3076,14.61229,66.3398,14.61229,91.64941-.001,25.30858-14.6113,25.31048-38.3017.001-52.9141C218.37152,495.23113,177.33632,495.23113,152.02772,509.84253Zm84.0899,48.54979c-21.1319,12.2011-55.3946,12.2011-76.5274,0-21.1328-12.20019-21.1338-31.98239-.001-44.18459,21.13291-12.1992,55.3965-12.1992,76.5293.001C257.25141,526.40993,257.25041,546.19213,236.11762,558.39232Z" class="color4141aa svgShape"/><path fill="url(#v)" d="M243.67913,562.75753c-25.30961,14.61329-66.34181,14.61329-91.64941.001-12.4912-7.2119-18.8067-16.6348-18.9678-26.0869v14.1465c-.1641,9.69919,6.1504,19.42669,18.9678,26.82709,25.3076,14.6123,66.3398,14.6123,91.64941-.001,12.81738-7.3994,19.13078-17.1269,18.96388-26.82609V536.737C262.45451,546.16673,256.142,555.56223,243.67913,562.75753Z"/><path fill="#f6e6d0" d="M152.02972,564.74773q-2.39355-1.38135-4.4834-2.8671l-10.9004,6.29389,9.4463,5.4541,10.9004-6.2949Q154.42462,566.12819,152.02972,564.74773Z" class="colord0d4f6 svgShape"/><polygon fill="#e4d4bd" points="146.092 584.536 156.993 578.242 156.993 567.334 146.092 573.629 146.092 584.536" class="colorbdc1e4 svgShape"/><path fill="url(#w)" d="M150.19572,581.45182c0-5.6298-3.9512-12.4746-8.8262-15.289-2.5351-1.4629-4.8135-1.5381-6.4228-.4922-.0049-.0088-62.8374,36.26949-62.8374,36.26949l12.0117,21.8106,62.8325-36.2783C148.931,586.74482,150.19572,584.63452,150.19572,581.45182Z"/><path d="M145.33442,584.24772c0-5.6298-3.9512-12.4746-8.8262-15.289-2.5352-1.4629-4.8135-1.5381-6.4234-.4922-.0043-.0088-4.1679,2.3955-4.1679,2.3955,1.6098-1.0459,3.88821-.9707,6.4233.4922,4.875,2.8144,8.8262,9.6592,8.8262,15.2891,0,2.54-.8145,4.3828-2.1465,5.3994l3.0723-1.7744C144.06972,589.54072,145.33442,587.43042,145.33442,584.24772Z" style="mix-blend-mode:multiply" fill="#cccccc" class="colorccc svgShape"/><path fill="url(#x)" d="M85.36762,623.03092c1.247-1.038,1.9956-2.8515,1.9956-5.3007,0-5.6299-3.9512-12.4746-8.8262-15.2891-2.314-1.3369-4.4106-1.5088-5.9844-.7353a12.458,12.458,0,1,0,13.0239,21.2041Z"/><rect width="49.002" height="9.006" x="297.389" y="447.186" style="mix-blend-mode:multiply" fill="url(#c)"/><rect width="49.004" height="9.006" x="319.483" y="434.18" style="mix-blend-mode:multiply" fill="url(#y)"/><path fill="url(#d)" d="M324.90471,440.41473c0-7.0752-4.4844-7.2793-4.4844-7.2793a18.51364,18.51364,0,0,1-6.3711-1.6367c-3.8926-1.6172-9.377-.9922-6.3125,4.6621a1.43863,1.43863,0,0,0,.1055.209,2.76168,2.76168,0,0,0,.9941.8721l9.7969,5.7471C320.12731,443.84253,324.86951,441.87083,324.90471,440.41473Z"/><path fill="#6b4a1c" d="M324.87931,439.78093c-.086,1.4532-4.7637,3.3858-6.2461,2.5401l-9.7969-5.7461a8.99225,8.99225,0,0,1-1.3808-1.0068c.0898.1953.1679.3818.2812.5927a1.43863,1.43863,0,0,0,.1055.209,2.76168,2.76168,0,0,0,.9941.8721l9.7969,5.7471c1.3984.7988,5.6484-.8799,6.209-2.293a1.65638,1.65638,0,0,0,.04492-.2871A4.80568,4.80568,0,0,0,324.87931,439.78093Z" class="color1e1c6b svgShape"/><path fill="#ffffff" d="M323.08241,432.20483a41.05582,41.05582,0,0,0-5.2187,1.0332,2.29824,2.29824,0,0,1-.3633,1.0527c-.041.0449-.0762.0908-.11328.1377-.80272.5576-1.61722,1.4395.28508,2.6338a2.63956,2.63956,0,0,0,3.4258-.2432,3.11752,3.11752,0,0,1,1.1035-1.2548,2.858,2.858,0,0,1,1.06062-.4473.59261.59261,0,0,1,.00978-.0967S323.56681,432.20483,323.08241,432.20483Z" class="colorfff svgShape"/><path fill="#6b4a1c" d="M323.15471,363.02513c-4.4297.0791-15.502.2764-19.9297.3564,1.6484,13.3164,4.9648,25.4112,7.1816,38.3067,2.377,12.5332,5.0567,21.3398,7.39652,31.7715.85548,1.9423,4.77338,1.207,5.56838-.6622.6191-9.6054,1.332-21.3085-1.5157-32.3906C322.33241,388.45973,323.434,375.08663,323.15471,363.02513Z" class="color1e1c6b svgShape"/><path fill="url(#z)" d="M302.57261,453.41473c0-7.0752-4.4843-7.2793-4.4843-7.2793a18.52762,18.52762,0,0,1-6.3731-1.6367c-3.8906-1.6172-9.3769-.9922-6.3105,4.6621a1.446,1.446,0,0,0,.10542.209,2.74554,2.74554,0,0,0,.99418.8721l9.7969,5.7471C297.79331,456.84253,302.53751,454.87083,302.57261,453.41473Z"/><path fill="#6b4a1c" d="M302.54531,452.78093c-.084,1.4532-4.7637,3.3858-6.2441,2.5401l-9.7969-5.7461a9.09065,9.09065,0,0,1-1.3828-1.0068c.0918.1953.1699.3818.2832.5927a1.446,1.446,0,0,0,.10542.209,2.74554,2.74554,0,0,0,.99418.8721l9.7969,5.7471c1.3964.7988,5.6484-.8799,6.20892-2.293a1.45941,1.45941,0,0,0,.043-.2871A4.47632,4.47632,0,0,0,302.54531,452.78093Z" class="color1e1c6b svgShape"/><path fill="#ffffff" d="M300.74841,445.20483a41.13064,41.13064,0,0,0-5.2187,1.0332,2.28258,2.28258,0,0,1-.3614,1.0527c-.041.0449-.0761.0908-.11318.1377-.80282.5576-1.61922,1.4395.28318,2.6338a2.639,2.639,0,0,0,3.4257-.2432,3.13778,3.13778,0,0,1,1.1055-1.2548,2.85265,2.85265,0,0,1,1.05862-.4473.54188.54188,0,0,1,.01168-.0967S301.23281,445.20483,300.74841,445.20483Z" class="colorfff svgShape"/><path fill="url(#A)" d="M309.098,394.68823c1.2129-5.7246,15.1797-6.4356,14.2637-28.9434-4.3828-.64451-26.4941,9.7246-30.875,9.0801-.5488,13.4062.748,25.8809.8301,38.9648.2969,12.7539,1.5039,21.8789,2.1074,32.5528.5273,2.0566,4.5117,1.9707,5.6016.25779,2.1797-9.376,4.7949-20.80669,3.7949-32.20509C306.12541,408.08173,307.67813,401.38932,309.098,394.68823Z"/><path fill="#8f6831" d="M313.25431,322.03783c15.5976,10.4228,17.457,31.1211,9.0234,44.2568C322.27771,366.29463,324.09021,337.19013,313.25431,322.03783Z" class="color34318f svgShape"/><path fill="url(#B)" d="M313.96721,378.50463c-9.4942,5.3281-19.4278,5.3398-22.8145-1.211,1.2676-12.19531,2.4531-22.1191.0098-33.8076.72262-6.4551,2.1777-10.3769,1.3515-14.1435,5.2227-.7149,9.7207-8.7354,12.752-9.3526,12.9824-2.6504,19.28912,20.4825,18.20312,45.1455A17.95841,17.95841,0,0,1,313.96721,378.50463Z"/><path fill="#ffbf66" d="M312.46521,321.46163c-2.8164-2.0342-2.3984-3.3662-1.9765-6.1357a13.77507,13.77507,0,0,0,.8476-4.7813c0-6.1679-3.9277-11.498-8.74218-11.166-9.70112.666-7.97462,5.7705-7.97462,11.9385,0,5.7148,2.5918,9.6465,6.9258,10.3096,0,.9384-1.7949,2.9472-2.9766,4.1289,4.7403,3.6933,9.3418-.4668,11.168-1.292C311.684,323.58273,313.78551,322.82783,312.46521,321.46163Z" class="colorffd3ab svgShape"/><path fill="url(#C)" d="M295.72691,330.03293c-14.9746-2.7988-24.7187-13.8418-30.789-24.5977l-5.0723,2.2432c3.0859,13.8223,13.8164,32.9053,33.457,36.46389C303.25621,344.14232,302.475,331.29463,295.72691,330.03293Z"/><path fill="#ffbf66" d="M264.33831,303.62373l.0195.0557c0-2.5088-.5254-3.9688-1.4922-4.3965-.209-.59961-.4277-1.22561-.6406-1.8223-1.25-3.5-5.168-6.5009-6-5.6679-.502.5029,1.4902,2.0429,2.541,3.709a5.92692,5.92692,0,0,1,.875,2.625s-4.6875.4375-4.6875,4.3339c0,3.1661,1.709,1.9161,1.709,1.2911,1.209,3.208,2.6465,1.3125,3.2031,3.9267l5.0723-2.2432S264.69961,304.71063,264.33831,303.62373Z" class="colorffd3ab svgShape"/><path fill="#6b4a1c" d="M306.85781,297.81713c-1.252-.6446-2.3789-.3115-3.0762-.75881-1.6562-1.01369-3.2246-1.66019-4.10348-1.17869a9.50474,9.50474,0,0,0-1.23242.9814c-.8633.86229-2.6328-.9736-3.0567,1.253a8.38731,8.38731,0,0,0-.1464,1.7314c-4.1426.5322-2.1036,4.3047,1.22652,11.5723.00388-1.1797,2.50978-3.9063,2.50978,1.3359,0,.5635-.4219.6738-.05078,1.4219.37108.7441,2.752,2.625,4.32228,4.1953,2.1914,2.1914,3.4785.2266,7.1015.6211a5.78411,5.78411,0,0,1,.95322-3.3047,9.66448,9.66448,0,0,0,2.33788-5.9688C310.83051,310.06513,315.83051,302.44013,306.85781,297.81713Z" class="color1e1c6b svgShape"/><polygon fill="#f6e6d0" points="584.229 621.01 456.93 694.505 314.789 612.439 442.086 538.944 584.229 621.01" class="colord0d4f6 svgShape"/><polygon fill="#6d522b" points="456.93 694.505 584.229 621.01 584.228 623.01 456.93 696.505 456.93 694.505" class="color2b466d svgShape"/><path fill="#fcfaf7" d="M423.94571,526.47143a1.11025,1.11025,0,0,0-1.377.00389l-126.97558,73.3056a1.3157,1.3157,0,0,1,1.05468.1856l142.1416,82.0654,127.2989-73.4951Z" class="colorf7f7fc svgShape"/><polygon fill="#f9eede" points="576.876 612.766 449.578 686.261 307.436 604.196 434.734 530.701 576.876 612.766" class="colordee2f9 svgShape"/><polygon fill="#c69755" points="358.835 616.959 456.838 560.377 471.848 569.043 373.845 625.625 358.835 616.959" class="color5555c6 svgShape"/><path fill="#6b4a1c" d="M358.03261,588.986l13.64652,7.8789-24.26082-1.7509-3.0839,1.7812,18.2744,10.5508,3.084-1.7813-13.3321-7.6972,23.6846,1.7207,3.3467-1.9326-18.2744-10.5508Zm26.6162,2.3848-4.8896-2.8233,8.7578-5.0556-2.7451-1.585-8.7579,5.0557-4.83588-2.792,9.751-5.6299-2.90242-1.6758-12.8349,7.4112,18.2744,10.5507,13.1494-7.5918-2.9023-1.6757Zm19.8692-29.22269,8.5498,10.24809-17.2295-5.23729-2.7715,1.60059,9.0722,9.9463-17.75088-4.9356-3.32032,1.917,24.65332,6.8682,3.05858-1.7666-8.6797-9.4483.209-.1211,16.3652,5.0117,3.0596-1.7666-11.8955-14.23339Zm31.9355-3.29881a9.14175,9.14175,0,0,0-5.0459-1.26759,21.64284,21.64284,0,0,0-6.1426,1.3428,26.20691,26.20691,0,0,1-4.9424,1.3897,4.10839,4.10839,0,0,1-2.56248-.4834q-1.10883-.6417-.79592-1.4561a3.56312,3.56312,0,0,1,1.6592-1.5928,15.72085,15.72085,0,0,1,6.6016-1.8789l-.6797-2.2949a20.4702,20.4702,0,0,0-4.6016.78519,18.16607,18.16607,0,0,0-4.0517,1.67481q-2.71875,1.5702-3.1895,3.4267-.47157,1.85745,2.0645,3.3203a9.10382,9.10382,0,0,0,5.3847,1.2383,15.66317,15.66317,0,0,0,2.9161-.4609q1.45155-.36915,3.9482-1.252a17.80592,17.80592,0,0,1,3.9082-1.0195,4.05457,4.05457,0,0,1,2.4707.4756q1.05915.6108.82322,1.4873a3.33867,3.33867,0,0,1-1.72552,1.7353,17.83454,17.83454,0,0,1-8.1563,1.9317l.3916,2.46089a22.38012,22.38012,0,0,0,10.5615-2.6875q2.9283-1.69034,3.2422-3.59179Q438.84661,560.23113,436.45351,558.84932Z" class="color1e1c6b svgShape"/><polygon fill="#8f6831" points="480.221 573.877 382.218 630.459 379.621 628.959 477.623 572.377 480.221 573.877" class="color34318f svgShape"/><polygon fill="#8f6831" points="487.149 577.877 389.146 634.459 386.548 632.959 484.551 576.377 487.149 577.877" class="color34318f svgShape"/><polygon fill="#8f6831" points="494.08 581.878 396.077 638.46 393.478 636.96 491.481 580.378 494.08 581.878" class="color34318f svgShape"/><polygon fill="#8f6831" points="501.007 585.878 403.004 642.46 400.407 640.96 498.41 584.378 501.007 585.878" class="color34318f svgShape"/><polygon fill="#8f6831" points="507.937 589.879 409.934 646.461 407.336 644.961 505.339 588.379 507.937 589.879" class="color34318f svgShape"/><polygon fill="#8f6831" points="514.866 593.879 416.863 650.461 414.264 648.961 512.267 592.379 514.866 593.879" class="color34318f svgShape"/><polygon fill="#8f6831" points="472.792 626.171 423.792 654.462 421.195 652.962 470.195 624.671 472.792 626.171" class="color34318f svgShape"/><polygon fill="#8f6831" points="479.722 630.171 430.721 658.461 428.123 656.961 477.124 628.671 479.722 630.171" class="color34318f svgShape"/><polygon fill="#8f6831" points="486.653 634.172 437.651 662.462 435.053 660.962 484.054 632.672 486.653 634.172" class="color34318f svgShape"/><polygon fill="#8f6831" points="493.581 638.172 444.58 666.462 441.981 664.962 490.983 636.672 493.581 638.172" class="color34318f svgShape"/><path fill="#e2b06a" d="M449.57651,686.26142,307.43591,604.196v1.999l-10.7881-6.2285.001,2,152.9287,88.2939c.9561.5528,1.7324.1055,1.7315-1A3.82421,3.82421,0,0,0,449.57651,686.26142Z" class="color6a6ae2 svgShape"/><path fill="url(#D)" d="M576.87641,612.76632l-127.2979,73.4951a3.83082,3.83082,0,0,1,1.7305,2.999,1.21746,1.21746,0,0,1-.50688,1.1221L578.1,616.88742a1.21238,1.21238,0,0,0,.5088-1.1221A3.82437,3.82437,0,0,0,576.87641,612.76632Z"/><path fill="url(#E)" d="M563.40961,620.54172l-43.7676,25.2685a3.82428,3.82428,0,0,1,1.7324,2.9991,1.21162,1.21162,0,0,1-.5088,1.122l43.7676-25.2685a1.21217,1.21217,0,0,0,.5088-1.1221A3.824,3.824,0,0,0,563.40961,620.54172Z"/><path fill="#e2b06a" d="M296.64881,601.96652l-.001-2c-.956-.5527-1.7324-.1055-1.7314,1a3.8211,3.8211,0,0,0,1.7314,2.998l160.28232,92.5401v-2Z" class="color6a6ae2 svgShape"/><polygon fill="#aa7e41" points="563.41 620.542 519.642 645.81 476.609 620.968 520.378 595.698 563.41 620.542" class="color4141aa svgShape"/><path d="M462.28941,485.63353a3.71768,3.71768,0,0,0-1.9277.4863c-.3105.1797-1.2871.7432-2.1699,1.2529l-.4072-.2353a.66245.66245,0,0,0-.6426.00489c-.0528.02441-7.63088,4.40131-7.63088,4.40131a.74063.74063,0,0,0-.25582.21l-.3604.51369L355.44861,548.902l-4.5351,7.0284,11.8603-3.7159,89.7861-51.8378a.66763.66763,0,0,0,.6465-.0088c.041-.01761,7.6348-4.4024,7.6348-4.4024a.76787.76787,0,0,0,.2451-.207l.5469-.7783,2.8428-1.6416a4.21046,4.21046,0,0,0,1.9736-3.545A4.15981,4.15981,0,0,0,462.28941,485.63353Z" style="mix-blend-mode:multiply" fill="url(#F)"/><path fill="url(#G)" d="M455.57561,484.19213a3.71219,3.71219,0,0,0-1.9268.4863c-.3779.2178-1.7373,1.00289-2.7168,1.5684a3.66461,3.66461,0,0,1,.749.3281,7.42438,7.42438,0,0,1,3.3594,5.81839,3.22554,3.22554,0,0,1-.2207,1.20311l2.94342-1.6992a4.20957,4.20957,0,0,0,1.97258-3.545A4.15979,4.15979,0,0,0,455.57561,484.19213Z"/><path fill="url(#H)" d="M347.84413,549.24683a2.40134,2.40134,0,0,1,1.086,1.8808c0,.4209-.18072.6866-.45612.7549l7.5859-1.1094,1.6211-2.3056-1.6211-4.1778-3.2412-1.8711-5.8291,6.8243A.70094.70094,0,0,1,347.84413,549.24683Z"/><path fill="url(#I)" d="M347.84413,549.24683a.70094.70094,0,0,0-.85452-.0039l-.0879.1025-2.7011,3.1621,4.1972-.61421.0762-.01079c.2754-.0683.45612-.334.45612-.7549A2.40134,2.40134,0,0,0,347.84413,549.24683Z"/><path fill="#fcfaf7" d="M443.20061,497.40893a1.9843,1.9843,0,0,1-.7364-.8584l-1.3144-3.3897a1.25732,1.25732,0,0,1,.1279-1.0498l1.2637-1.7988a.6714.6714,0,0,1,.8642-.1914l2.6426,1.5244a1.98541,1.98541,0,0,1,.7364.8594l1.3144,3.3896a1.25764,1.25764,0,0,1-.12788,1.0498l-1.26272,1.7989a.6715.6715,0,0,1-.86528.19039Z" class="colorf7f7fc svgShape"/><polygon fill="#f7960d" points="447.867 496.399 357.681 548.468 356.06 544.29 446.246 492.221 447.867 496.399" class="colorf2990a svgShape"/><polygon fill="#e28605" points="446.246 498.705 356.06 550.773 357.681 548.468 447.867 496.399 446.246 498.705" class="colore28805 svgShape"/><polygon fill="#ffa30f" points="446.246 492.221 356.06 544.29 352.819 542.419 443.004 490.35 446.246 492.221" class="colorffcd2c svgShape"/><path fill="url(#J)" d="M455.764,491.46843l-1.3144-3.3886a1.99179,1.99179,0,0,0-.7363-.8594l-2.6426-1.5244a.66241.66241,0,0,0-.64258.0049c-.05172.02439-7.62992,4.4013-7.62992,4.4013a.69367.69367,0,0,1,.6074.0186l2.6426,1.5244a1.98541,1.98541,0,0,1,.7364.8594l1.3144,3.3896a1.25764,1.25764,0,0,1-.12788,1.0498l-1.26272,1.7989a.62965.62965,0,0,1-.1748.166l7.5937-4.3848a.74719.74719,0,0,0,.2451-.207l1.26372-1.7979A1.25963,1.25963,0,0,0,455.764,491.46843Z"/><path d="M447.64,498.26923a.62557.62557,0,0,0,.1748-.166l1.2627-1.7978a1.25275,1.25275,0,0,0,.128-1.0508l-1.3135-3.3887a1.98859,1.98859,0,0,0-.7373-.8594l-2.64158-1.5244a.66069.66069,0,0,0-.59872-.0137c-.0097-.0048-.5537.3086-.5537.3086a.69625.69625,0,0,1,.60842.0186l2.64258,1.5244a1.99112,1.99112,0,0,1,.7363.8594l1.3145,3.3896a1.2576,1.2576,0,0,1-.1279,1.0498l-1.2637,1.7989a.62831.62831,0,0,1-.17378.166Z" style="mix-blend-mode:multiply" fill="url(#g)"/><path d="M448.78551,497.60813a.62685.62685,0,0,0,.1748-.166l1.2627-1.79881a1.2502,1.2502,0,0,0,.128-1.04989l-1.3135-3.3896a1.98865,1.98865,0,0,0-.7373-.8594l-2.6416-1.5234a.65459.65459,0,0,0-.5987-.01371c-.0097-.00579-.5537.30861-.5537.30861a.69552.69552,0,0,1,.6084.0186l2.6426,1.5244a1.98465,1.98465,0,0,1,.7363.85939l1.3145,3.38861a1.26033,1.26033,0,0,1-.12788,1.0508l-1.26372,1.7979a.63.63,0,0,1-.1738.1669Z" style="mix-blend-mode:multiply" fill="url(#K)"/><path d="M449.931,496.947a.64528.64528,0,0,0,.1748-.167l1.2627-1.7979a1.25622,1.25622,0,0,0,.1289-1.05081l-1.3144-3.38859a1.98688,1.98688,0,0,0-.7373-.85941l-2.64158-1.52439a.65987.65987,0,0,0-.59862-.0137c-.0098-.00491-.5538.3086-.5538.3086a.69263.69263,0,0,1,.60842.01949l2.64258,1.52441a1.98342,1.98342,0,0,1,.7363.8584l1.3145,3.3897a1.25764,1.25764,0,0,1-.1279,1.0498l-1.2637,1.7988a.61017.61017,0,0,1-.17378.166Z" style="mix-blend-mode:multiply" fill="url(#L)"/><path fill="#e09124" d="M666.06393,422.33173l-2.2852,1.3194a61.43125,61.43125,0,0,1,.5801-10.9873,76.25474,76.25474,0,0,1,3.5947-11.7959,96.1216,96.1216,0,0,0,3.8154-12.1495,47.28845,47.28845,0,0,0,.9121-9.7998q-.00135-8.5341-2.8779-10.9155-2.87835-2.38035-6.8076-.11281a15.26679,15.26679,0,0,0-5.043,4.76761,7.42049,7.42049,0,0,0-1.5556,3.8408,5.01712,5.01712,0,0,0,1.0546,2.5908,11.54547,11.54547,0,0,1,.5235,13.3272,12.87119,12.87119,0,0,1-4.6494,4.7969q-3.11865,1.8003-5.2325.4902-2.11665-1.30815-2.1162-5.4756,0-7.56,5.6661-16.5381a44.73878,44.73878,0,0,1,15.8359-14.8452q10.77825-6.22335,16.4199-3.5405,5.6382,2.6835,5.6387,11.0923a33.27615,33.27615,0,0,1-2.8858,12.9341q-2.8842,6.8349-11.1533,17.9003-5.5503,7.4415-7.2978,11.7559A36.09308,36.09308,0,0,0,666.06393,422.33173Zm-.5909,9.71q3.72075-2.14755,6.3301-.6358,2.6103,1.51185,2.6104,5.8106a17.792,17.792,0,0,1-2.6104,8.8594,17.54209,17.54209,0,0,1-6.3301,6.7041q-3.7236,2.1489-6.331.6064-2.6118-1.541-2.6094-5.8457a19.69775,19.69775,0,0,1,8.9404-15.499Z" opacity=".6" class="color24dce0 svgShape"/><path fill="#c69755" d="M59.934,332.27463l-1.691.9761a45.52709,45.52709,0,0,1,.4292-8.1289,56.44013,56.44013,0,0,1,2.6597-8.7266,71.15776,71.15776,0,0,0,2.8228-8.9888,34.97646,34.97646,0,0,0,.6748-7.25q-.0015-6.31335-2.12939-8.0756-2.12927-1.7601-5.03621-.0831a11.29314,11.29314,0,0,0-3.7309,3.5269,5.48662,5.48662,0,0,0-1.15089,2.8418,3.712,3.712,0,0,0,.78029,1.9165,8.54093,8.54093,0,0,1,.3872,9.8599,9.52313,9.52313,0,0,1-3.4399,3.5488q-2.30715,1.33154-3.8711.3628-1.566-.96825-1.56549-4.0513,0-5.59275,4.19189-12.23481a33.09683,33.09683,0,0,1,11.7158-10.98339q7.974-4.6041,12.1475-2.6192,4.172,1.98555,4.1719,8.207a24.61146,24.61146,0,0,1-2.1348,9.5684q-2.1342,5.05665-8.2515,13.24319a43.62514,43.62514,0,0,0-5.3994,8.69721A26.705,26.705,0,0,0,59.934,332.27463Zm-.437,7.1836q2.75235-1.58865,4.68311-.4702t1.93109,4.2988a13.16717,13.16717,0,0,1-1.93109,6.5542,12.98841,12.98841,0,0,1-4.68311,4.96q-2.7555,1.58925-4.6841.4482-1.93215-1.1397-1.9307-4.3247a14.57244,14.57244,0,0,1,6.6148-11.4663Z" opacity=".6" class="color5555c6 svgShape"/><path fill="#f9f2e8" d="M213.47013 201.32493l-7.09571 4.0967c-4.1445 2.393-9.8516-10.6709-14.48829-7.9937l-12.43651 7.1802c-9.2734 5.354-5.9258-10.2339-19.7959-2.2261-16.2988 9.4107-14.9639 28.2998-24.2373 33.6538l-12.4365 7.1802c-4.63579 2.6768-5.9014 13.7607-10.0459 16.1538l-7.0957 4.0967c-1.5459.8921-4.4971 3.356-4.4981 6.5854 2.1084-1.2168 58.3135-33.6669 58.3135-33.6669s56.2041-32.4498 58.3125-33.667C217.96722 199.48853 215.016 200.43232 213.47013 201.32493zM325.29821 106.67114l-5.28808 3.05318c-3.08882 1.78372-7.34272-7.95308-10.79882-5.958l-9.2695 5.35162c-6.9121 3.9907-4.417-7.6275-14.7549-1.6592-12.1475 7.0141-11.1533 21.0932-18.0645 25.0835l-9.2695 5.3515c-3.4551 1.9952-4.3984 10.2569-7.4873 12.0401l-5.2891 3.0537c-1.1523.665-3.3515 2.501-3.3525 4.9082 1.5723-.9067 43.4629-25.0933 43.4629-25.0933s41.8916-24.186 43.4629-25.0932C328.65081 105.30244 326.45061 106.00564 325.29821 106.67114z" class="colore8ecf9 svgShape"/></g></g></svg>