<svg xmlns="http://www.w3.org/2000/svg" viewBox="0 0 5000.3 5000.3"><g data-name="Layer 2" fill="#000000" class="color000 svgShape"><g data-name="Layer 1" fill="#000000" class="color000 svgShape"><rect width="5000" height="5000" x=".15" y=".15" fill="#ffffff" class="colorfff svgShape"/><path fill="#faf7f2" d="M4750.3,2683.62v3.54c0,23.27-.38,46.27-1.13,68.86-.38,9.66-.76,19.19-1.14,28.72q-.57,10.61-1.13,21.23c-.47,7.07-.85,14-1.32,21.09-.38,6.53-.85,13.06-1.42,19.46-.56,7.35-1.23,14.7-1.88,22.05-.29,3.67-.66,7.34-1,11a5,5,0,0,1-.1,1.22,20.05,20.05,0,0,1-.19,2.45c-.28,3-.56,6-.94,8.85-.38,4.35-.85,8.71-1.32,13.06-1.13,10.62-2.36,21.1-3.78,31.58-.47,4.76-1.13,9.52-1.79,14.15-.66,5.31-1.42,10.61-2.27,15.78a1.18,1.18,0,0,1-.09.55,5.08,5.08,0,0,1-.19,1.22c-.47,4.36-1.13,8.85-1.79,13.07-.1.27-.1.68-.19.95-1.13,7.89-2.36,15.79-3.78,23.54-.38,2.45-.75,4.77-1.22,7.08-.85,5.44-1.8,10.75-2.93,16.19-2.74,15.52-5.76,30.76-9,45.87-2.08,9.25-4.07,18.5-6.24,27.62-1.32,5.72-2.64,11.43-4.06,17-1.88,7.9-3.86,15.65-5.85,23.41-2.83,10.62-5.66,21.09-8.68,31.57-4.81,16.88-9.91,33.34-15.29,49.68-2.65,8.16-5.38,16.19-8.21,24.22-2.74,7.76-5.58,15.51-8.41,23.27-.37,1.09-.75,2-1.13,3.13-2.17,5.72-4.34,11.43-6.51,17-6.61,16.74-13.41,33.21-20.58,49.26l-.28.55-.47.95a24.34,24.34,0,0,1-1.42,3.27c-2.55,5.85-5.19,11.7-7.84,17.42q-10.75,23.05-22.27,45.31c-.75,1.36-1.51,2.86-2.26,4.36l-.19.27c-122.52,233.8-308.19,391.39-526.89,481.75a1178.54,1178.54,0,0,1-161.32,53.08c-98.54,24.9-220.68,13.06-357.27-17.7-72.67-16.33-149.42-38.1-228.8-62.6-129.13-39.73-265.24-86.68-402.39-129.42-21.14-6.53-42.28-13.06-63.43-19.32-8.87-2.72-17.74-5.31-26.52-7.89-19.73-5.72-39.46-11.43-59.18-16.88-118.37-32.79-235.79-59.47-348.4-72.4-120.25-13.74-235-11.84-339.52,14.43-9.91,2.58-19.82,5.31-29.73,8.3-233.24,70.9-525,152.42-802.7,183.86-46.54,5.3-92.69,9.25-138.1,11.29a1532.38,1532.38,0,0,1-165.93-.14c-22.47-1.22-44.75-3.13-66.55-5.57-9.44-1.09-18.88-2.18-28.22-3.54-2.46-.41-5-.68-7.46-1.09-19.16-2.72-38-6.13-56.54-9.94l-5.76-1.22c-9-1.91-17.74-3.81-26.52-6l-1.61-.41-4.81-1.22h-.09c-1.23-.27-2.46-.68-3.59-1-5.76-1.49-11.52-3-17.18-4.76-3.4-.81-6.7-1.77-10-2.86-14.45-4.21-28.61-8.84-42.48-14-3.59-1.23-7.08-2.59-10.48-3.95-5.85-2.18-11.61-4.49-17.37-6.94-1-.41-2-.82-3-1.22-5.48-2.32-11-4.77-16.33-7.22s-10.77-4.9-16.05-7.62-10.58-5.31-15.67-8-10.38-5.58-15.39-8.43c-2.07-1.09-4.05-2.32-6-3.54h-.09q-3.69-2-7.36-4.49a19.06,19.06,0,0,1-2.65-1.5c-7.55-4.63-14.91-9.39-22.18-14.43-2.93-1.9-5.76-3.94-8.59-6.12a37.44,37.44,0,0,1-4-2.86c-2.92-2-5.84-4.35-8.77-6.53s-5.85-4.49-8.78-6.67c-2.45-2-4.81-4.08-7.17-6-5-4.08-9.92-8.3-14.73-12.79a9.79,9.79,0,0,1-1.79-1.63q-6.09-5.31-11.9-11c-1.41-1.37-2.83-2.73-4.24-4.22-2.65-2.59-5.29-5.18-7.84-8-2.64-2.59-5.28-5.45-7.93-8.44-3.86-4.08-7.74-8.44-11.51-13.06-2.74-3.14-5.48-6.4-8.21-9.94-1.52-1.77-3-3.67-4.53-5.58q-5.82-7.35-11.33-15.1c-4.16-5.58-8.12-11.44-12-17.42s-7.74-12-11.42-18.1h-.09c-1-1.77-2.08-3.54-3-5.31-2.36-3.68-4.54-7.49-6.61-11.43-1.42-2.32-2.65-4.77-3.87-7.21-5.76-10.62-11.24-21.64-16.33-33.07-2.83-6.26-5.57-12.52-8.31-18.78-3.11-7.08-6.13-14.16-9-21.23-4.34-10.35-8.39-20.55-12.36-30.9A1319.61,1319.61,0,0,1,290.72,3308a1139.43,1139.43,0,0,1-33.79-173c-.85-7.08-1.61-14-2.17-21.1a948.68,948.68,0,0,1-4.34-105.6c0-2.45.09-4.9.18-7.35.19-11.43.66-22.86,1.42-34.16,4.06-66.14,15.38-129.69,34.36-189.57v-.14a38.53,38.53,0,0,1,1.41-4.21,673.59,673.59,0,0,1,67.78-148.07c.94-1.63,2-3.13,3-4.76A645,645,0,0,1,437.78,2518c9.25-9.66,18.78-19.19,28.79-28.44a681.81,681.81,0,0,1,96-74.58,777.49,777.49,0,0,1,85.05-47.49h.09q16.86-8.16,34.55-15.51h.1a905.22,905.22,0,0,1,117.79-40.83c3.5-1,7.18-1.91,10.77-2.86,18.4-4.76,36.72-9.8,54.74-14.83q29.6-8.37,58.52-17.28,53-16.14,103.74-33.89c11-3.81,22-7.76,32.85-11.7,9-3.27,17.84-6.54,26.62-9.94.09.14.19,0,.19,0,35.48-13.2,70.22-27.08,104.48-41.51,6.89-2.85,13.69-5.71,20.49-8.71q41.48-17.76,81.93-36.74h.09c98.17-45.59,192.65-95.8,286.48-150,24.35-14,48.61-28.44,73-42.87q32.43-19.59,64.94-39.6,81.13-50,163.77-103.7c2.65-1.77,5.29-3.4,8-5.17.47-.41,1-.68,1.61-1.09q55.64-36.12,112.8-73.62c77.3-50.76,156.78-103.29,240.13-157.45,508.57-330.56,985.43-494.14,1410.1-375.61,114.12,31.85,245.79,101.25,377.65,200.19h.19q46.73,34.9,93.26,75c11.8,10.07,23.6,20.55,35.3,31q45.16,40.83,89.2,85.87,25.06,25.72,49.75,52.94,43.74,48.18,85.13,100.3c6.14,7.76,12.18,15.51,18.22,23.4q29.88,38.79,58.05,79.48a1810.16,1810.16,0,0,1,137.06,233.39c3.39,6.94,6.7,13.88,10,21,1.7,3.54,3.31,7.07,4.91,10.61,1,2,2,4.09,2.93,6.26l1.7,3.68c.37.81.75,1.63,1.13,2.58.94,2,1.89,4.09,2.74,6.26,1,2.05,2,4.09,2.83,6.26.09.14.19.14.19.28s.09.13.09.27c15.29,34.56,29.45,69.81,42.2,105.6,1.6,4.08,3,8.17,4.43,12.25.57,1.63,1.13,3.27,1.61,4.9a1420,1420,0,0,1,53,197.19q.7,3.06,1.13,6.12v.14a1272.92,1272.92,0,0,1,21.33,188.35v.13q.7,18.38.85,36.75C4750.3,2677.63,4750.3,2680.63,4750.3,2683.62Z" class="colorf2f5fa svgShape"/><path fill="#f6eee2" d="M4742.28,2868.57c-.29,3.67-.66,7.34-1,11a5,5,0,0,1-.1,1.22,20.05,20.05,0,0,1-.19,2.45c-.28,3-.56,6-.94,8.85-.38,4.35-.85,8.71-1.32,13.06-1.13,10.62-2.36,21.1-3.78,31.58-.47,4.76-1.13,9.52-1.79,14.15-.66,5.31-1.42,10.61-2.27,15.78a1.18,1.18,0,0,1-.09.55,5.08,5.08,0,0,1-.19,1.22c-.47,4.36-1.13,8.85-1.79,13.07-.1.27-.1.68-.19.95-1.13,7.89-2.36,15.79-3.78,23.54-.38,2.45-.75,4.77-1.22,7.08-.85,5.44-1.8,10.75-2.93,16.19-2.74,15.52-5.76,30.76-9,45.87-2.08,9.25-4.07,18.5-6.24,27.62-1.32,5.72-2.64,11.43-4.06,17-1.88,7.9-3.86,15.65-5.85,23.41-2.83,10.62-5.66,21.09-8.68,31.57-4.81,16.88-9.91,33.34-15.29,49.68-2.65,8.16-5.38,16.19-8.21,24.22-2.74,7.76-5.58,15.51-8.41,23.27-.37,1.09-.75,2-1.13,3.13-2.17,5.72-4.34,11.43-6.51,17-6.61,16.74-13.41,33.21-20.58,49.26l-.28.55-.47.95a24.34,24.34,0,0,1-1.42,3.27c-2.55,5.85-5.19,11.7-7.84,17.42q-10.75,23.05-22.27,45.31c-.75,1.36-1.51,2.86-2.26,4.36l-.19.27c-122.52,233.8-308.19,391.39-526.89,481.75a1178.54,1178.54,0,0,1-161.32,53.08c-98.54,24.9-220.68,13.06-357.27-17.7-72.67-16.33-149.42-38.1-228.8-62.6-129.13-39.73-265.24-86.68-402.39-129.42-21.14-6.53-42.28-13.06-63.43-19.32-8.87-2.72-17.74-5.31-26.52-7.89-19.73-5.72-39.46-11.43-59.18-16.88-118.37-32.79-235.79-59.47-348.4-72.4-120.25-13.74-235-11.84-339.52,14.43-9.91,2.58-19.82,5.31-29.73,8.3-233.24,70.9-525,152.42-802.7,183.86-46.54,5.3-92.69,9.25-138.1,11.29a1532.38,1532.38,0,0,1-165.93-.14c-22.47-1.22-44.75-3.13-66.55-5.57-9.44-1.09-18.88-2.18-28.22-3.54-2.46-.41-5-.68-7.46-1.09-19.16-2.72-38-6.13-56.54-9.94l-5.76-1.22c-9-1.91-17.74-3.81-26.52-6l-1.61-.41-4.81-1.22h-.09c-1.23-.27-2.46-.68-3.59-1-5.76-1.49-11.52-3-17.18-4.76-3.4-.81-6.7-1.77-10-2.86-14.45-4.21-28.61-8.84-42.48-14-3.59-1.23-7.08-2.59-10.48-3.95-5.85-2.18-11.61-4.49-17.37-6.94-1-.41-2-.82-3-1.22-5.48-2.32-11-4.77-16.33-7.22s-10.77-4.9-16.05-7.62-10.58-5.31-15.67-8-10.38-5.58-15.39-8.43c-2.07-1.09-4.05-2.32-6-3.54h-.09q-3.69-2-7.36-4.49a19.06,19.06,0,0,1-2.65-1.5c-7.55-4.63-14.91-9.39-22.18-14.43-2.93-1.9-5.76-3.94-8.59-6.12a37.44,37.44,0,0,1-4-2.86c-2.92-2-5.84-4.35-8.77-6.53s-5.85-4.49-8.78-6.67c-2.45-2-4.81-4.08-7.17-6-5-4.08-9.92-8.3-14.73-12.79a9.79,9.79,0,0,1-1.79-1.63q-6.09-5.31-11.9-11c-1.41-1.37-2.83-2.73-4.24-4.22-2.65-2.59-5.29-5.18-7.84-8-2.64-2.59-5.28-5.45-7.93-8.44-3.86-4.08-7.74-8.44-11.51-13.06-2.74-3.14-5.48-6.4-8.21-9.94-1.52-1.77-3-3.67-4.53-5.58q-5.82-7.35-11.33-15.1c-4.16-5.58-8.12-11.44-12-17.42s-7.74-12-11.42-18.1h-.09c-1-1.77-2.08-3.54-3-5.31-2.36-3.68-4.54-7.49-6.61-11.43-1.42-2.32-2.65-4.77-3.87-7.21-5.76-10.62-11.24-21.64-16.33-33.07-2.83-6.26-5.57-12.52-8.31-18.78-3.11-7.08-6.13-14.16-9-21.23-4.34-10.35-8.39-20.55-12.36-30.9A1319.61,1319.61,0,0,1,290.72,3308a1139.43,1139.43,0,0,1-33.79-173c-.85-7.08-1.61-14-2.17-21.1a948.68,948.68,0,0,1-4.34-105.6c1.41-1,2.73-1.64,4.15-2.45,5.38-3.13,10.66-6,15.95-9,62.39-34.3,121.1-58.66,179.44-76.08h.09c1.32-.41,2.74-.81,4.15-1.22h.1c7.64-2.18,15.2-4.36,22.84-6.26,1.51-.41,3-.82,4.53-1.09h.09c44.18-11.43,88.35-18.92,133.94-23.68,62-6.67,126.58-8.3,197-8h.09c143,.55,310.17,9,529.53.41,50.41-1.91,103.46-4.76,159.72-8.85,18.87-1.36,37.56-2.72,55.87-3.94,20.3-1.5,40.21-2.86,59.85-4.09,261.18-17.55,465-26.4,637.13-28.17h.1c283.45-3,481.48,12.66,709.53,38.65,92.69,10.48,179,16.74,263.16,19.19,36.35,1,72.3,1.36,108.27,1.09,11.42,0,22.75-.14,34.17-.41,28.6-.54,57.29-1.36,86.18-2.72,2.17,0,4.34-.14,6.6-.27,4-.14,8-.41,12.08-.55,20.3-1,40.78-2.17,61.46-3.53,23-1.5,46.25-3.13,69.84-5h.1c45.49-3.54,92.12-7.89,140.64-12.93,84.2-8.44,173.87-18.78,272.13-30.48,119.78-14.15,221-23,308.18-26.54,39.46-1.63,76-2,110.06-1.36,9.63.14,19.07.41,28.23.82a14.92,14.92,0,0,1,2.45.13c4.15.14,8.21.27,12.27.55h.1c1.13.13,2,.13,3.11.27h.1c40,2.18,76.36,6.12,110.06,12a27.32,27.32,0,0,1,3.3.54c16.14,2.72,31.72,6.12,46.72,9.8a580.38,580.38,0,0,1,98.45,33.48Z" class="colore2eaf6 svgShape"/><path fill="#f2e5d3" d="M4695.55,3143.19c-2.83,10.62-5.66,21.09-8.68,31.57-4.81,16.88-9.91,33.34-15.29,49.68-2.65,8.16-5.38,16.19-8.21,24.22-2.74,7.76-5.58,15.51-8.41,23.27-.37,1.09-.75,2-1.13,3.13-2.17,5.72-4.34,11.43-6.51,17-6.61,16.74-13.41,33.21-20.58,49.26l-.28.55-.47.95a24.34,24.34,0,0,1-1.42,3.27c-2.55,5.85-5.19,11.7-7.84,17.42q-10.75,23.05-22.27,45.31c-.75,1.36-1.51,2.86-2.26,4.36l-.19.27c-122.52,233.8-308.19,391.39-526.89,481.75a1178.54,1178.54,0,0,1-161.32,53.08c-98.54,24.9-220.68,13.06-357.27-17.7-72.67-16.33-149.42-38.1-228.8-62.6-129.13-39.73-265.24-86.68-402.39-129.42-21.14-6.53-42.28-13.06-63.43-19.32-8.87-2.72-17.74-5.31-26.52-7.89-19.73-5.72-39.46-11.43-59.18-16.88-118.37-32.79-235.79-59.47-348.4-72.4-120.25-13.74-235-11.84-339.52,14.43-9.91,2.58-19.82,5.31-29.73,8.3-233.24,70.9-525,152.42-802.7,183.86-46.54,5.3-92.69,9.25-138.1,11.29a1532.38,1532.38,0,0,1-165.93-.14c-22.47-1.22-44.75-3.13-66.55-5.57-9.44-1.09-18.88-2.18-28.22-3.54-2.46-.41-5-.68-7.46-1.09-19.16-2.72-38-6.13-56.54-9.94l-5.76-1.22c-9-1.91-17.74-3.81-26.52-6l-1.61-.41-4.81-1.22h-.09c-1.23-.27-2.46-.68-3.59-1-5.76-1.49-11.52-3-17.18-4.76-3.4-.81-6.7-1.77-10-2.86-14.45-4.21-28.61-8.84-42.48-14-3.59-1.23-7.08-2.59-10.48-3.95-5.85-2.18-11.61-4.49-17.37-6.94-1-.41-2-.82-3-1.22-5.48-2.32-11-4.77-16.33-7.22s-10.77-4.9-16.05-7.62-10.58-5.31-15.67-8-10.38-5.58-15.39-8.43c-2.07-1.09-4.05-2.32-6-3.54h-.09q-3.69-2-7.36-4.49a19.06,19.06,0,0,1-2.65-1.5c-7.55-4.63-14.91-9.39-22.18-14.43-2.93-1.9-5.76-3.94-8.59-6.12a37.44,37.44,0,0,1-4-2.86c-2.92-2-5.84-4.35-8.77-6.53s-5.85-4.49-8.78-6.67c-2.45-2-4.81-4.08-7.17-6-5-4.08-9.92-8.3-14.73-12.79a9.79,9.79,0,0,1-1.79-1.63q-6.09-5.31-11.9-11c-1.41-1.37-2.83-2.73-4.24-4.22-2.65-2.59-5.29-5.18-7.84-8-2.64-2.59-5.28-5.45-7.93-8.44-3.86-4.08-7.74-8.44-11.51-13.06-2.74-3.14-5.48-6.4-8.21-9.94-1.52-1.77-3-3.67-4.53-5.58q-5.82-7.35-11.33-15.1c-4.16-5.58-8.12-11.44-12-17.42s-7.74-12-11.42-18.1h-.09c-1-1.77-2.08-3.54-3-5.31-2.36-3.68-4.54-7.49-6.61-11.43-1.42-2.32-2.65-4.77-3.87-7.21-5.76-10.62-11.24-21.64-16.33-33.07-2.83-6.26-5.57-12.52-8.31-18.78,13.31-1.37,27-2.86,41.15-4.36,15.58-1.77,31.63-3.54,48.24-5.44q50-5.93,106.66-13.2c3.87-.55,7.74-1.09,11.71-1.5,2.26-.41,4.43-.68,6.7-.95,1.7-.27,3.4-.41,5.1-.68h.09c1.32-.14,2.55-.41,3.87-.55h.09c15.76-2.17,31.81-4.35,48.33-6.67s33.23-4.76,50.4-7.21c13.5-2,27.28-4.08,41.25-6.12,11.61-1.77,23.22-3.54,35.21-5.45h.1c13.78-2.17,27.84-4.35,42.1-6.66h.18c1.51-.28,3-.55,4.54-.68,5.66-1,11.32-1.91,17.08-2.86,1.7-.28,3.49-.55,5.28-.82,3.5-.68,7-1.22,10.58-1.9h.28q36.68-6.14,75.33-12.8c100.23-17.42,210.48-38.24,331.59-63.28h.09q85.95-17.76,179.25-38.51c120.06-26.67,243.53-47.36,369-63.15h.09c97.42-12.24,196-21.77,295.07-28.85,233.52-16.87,469.78-20.82,699.72-19.73l50.31.41c2.46,0,5,0,7.46.14,25,.13,49.83.4,74.66.68q44.6.6,88.82,1.36,54.22.81,107.61,1.9h1.32c8.4.14,16.89.27,25.29.55,25.49.54,50.79.95,75.89,1.49,22.57.55,44.93,1,67.21,1.5,1.8,0,3.59,0,5.38.14l42.1.81q47.14,1,93.16,1.91c11.14.27,22.19.41,33.13.68l24.26.41q58.34,1,114.88,1.63h.47c22.46.27,44.64.54,66.64.68h17.46q42.76.21,84.2,0c83.44-.27,163-1.9,237.86-5.44,101.94-4.9,195.3-13.2,278.17-26.68q75.75-12.24,141.87-20.55h.38c108.73-13.6,198.4-19.32,271.75-18.78A1.43,1.43,0,0,1,4695.55,3143.19Z" class="colord3e0f2 svgShape"/><path fill="#f3a941" d="M2506.61,1880.59c-3,164.23-10.33,376.77-20.87,512.53-6,76.78-13,129.07-20.76,133.94-31.19,19.85-263.69,39.7-269.36,0s19.39-362.93-55.46-362.93S1744.79,2220.84,1742,2045,1772.23,1582,1772.23,1582c5.33-29.15,10.32-60.91,17-90.28,4.31-19.06,9.3-37.2,15.42-52.86,11.23-29,26.43-49.67,48.77-53.07,53-7.94,277.87-28.81,268.46,60.11-6,56.48-58,187.93-84.16,282.86-7.37,26.65-12.7,50.35-14.52,68.84-1.92,19.28.23,32.78,7.94,37.65,41.63,26.43,121,28.36,155,0,21.33-17.8,13.61-88.35,20-143.13,2.38-19.84,6.46-37.65,14.4-50.13,5-8,11.68-13.83,20.41-16.56,60.45-18.94,255.19-47.29,264.6,22.69C2508.53,1670.09,2508.76,1763,2506.61,1880.59Z" class="color4152f3 svgShape"/><path fill="#e6992f" d="M2485.74,2393.12c-6,76.78-13,129.07-20.76,133.94-31.19,19.85-263.69,39.7-269.36,0s19.39-362.93-55.46-362.93S1744.79,2220.84,1742,2045,1772.23,1582,1772.23,1582c5.33-29.15,10.32-60.91,17-90.28,74.85,70.31,190.65,226.15,162,348.07-30.17,128.5-146.88,233.41-96.41,281.61s310.08-13.27,357.26,30.29-11.34,310,66.24,332.65C2334.89,2500.87,2429.82,2404.69,2485.74,2393.12Z" class="color322fe6 svgShape"/><path fill="#ffcc86" d="M2121.9,1445.87c-6,56.48-58,187.93-84.16,282.86-21.89-44.12,6.13-198.82,6.13-237,0-39.13-173.42-70-239.2-52.86,11.23-29,26.43-49.67,48.77-53.07C1906.41,1377.82,2131.31,1357,2121.9,1445.87Z" class="color86a8ff svgShape"/><path fill="#fccb86" d="M2506.61,1880.59c-16-45.71-44.92-120.56-50.14-163.2-6.8-55-167.85-46.62-235.9-75.43,5-8,11.68-13.83,20.41-16.56,60.45-18.94,255.19-47.29,264.6,22.69C2508.53,1670.09,2508.76,1763,2506.61,1880.59Z" class="color86a8fc svgShape"/><path fill="#e6992f" d="M2143.11,1905.54c-126.46,8.62-138.71-47.52-119.89-108-1.92,19.28.23,32.78,7.94,37.65,41.63,26.43,121,28.36,155,0,21.33-17.8,13.61-88.35,20-143.13C2225.33,1769.78,2270.59,1896.7,2143.11,1905.54Z" class="color322fe6 svgShape"/><path fill="#f3a941" d="M2014.15,2476c-25,152.88-425.2,146.53-675.73,117.16-34.48-4.09-66.13-8.62-93.57-13.16-112.4-18.83-98.11-88.12-41.06-163.89,58.07-77.12,160.49-160.93,218.67-204.71,115.34-87,240.1-298.74,204.15-423.5-1.82-6.46-4-12.82-6.24-18.94-40.6-111.26-139.28-157.76-201.66-101-100.71,77.91-157.42,201.31-258,99.23a131.92,131.92,0,0,1-27.56-41.62c-48.54-114,40.61-308,274.58-327,7.72-.79,15.66-1.25,23.71-1.47,285-8.51,452.3,191.44,452.3,422.47,0,101.62-73.83,209.71-142,299.2v.11c-12.47,16.44-24.72,32.21-36.29,47.18-69.18,89.37-114.1,151.3-31.53,153.11,141.09,3.06,298.63-10.32,335.15,80.64C2017.1,2419.77,2019.26,2444.72,2014.15,2476Z" class="color4152f3 svgShape"/><path fill="#ffcc86" d="M1741.72,2118.77c8.17-57.17,74.41-182.6,71.57-283-3.85-134.4-3.85-151.07-177.72-258.81-156.52-97-274.7-120.45-227.86-178.41,7.72-.79,15.66-1.25,23.71-1.47,285-8.51,452.3,191.44,452.3,422.47C1883.72,1921.19,1809.89,2029.28,1741.72,2118.77Z" class="color86a8ff svgShape"/><path fill="#e6992f" d="M2009.05 2399.81c-28-10.89-67-16.33-108.88-19.51-75.54-5.67-279.69 13.27-331.63 0s14.06-113.41 136.89-214.24c-69.18 89.37-114.1 151.3-31.53 153.11C1815 2322.23 1972.53 2308.85 2009.05 2399.81zM1338.42 2593.19c-34.48-4.09-66.13-8.62-93.57-13.16-112.4-18.83-98.11-88.12-41.06-163.89C1216.49 2498.82 1254 2556.33 1338.42 2593.19zM1620.37 1769c-40.6-111.26-139.28-157.76-201.66-101-100.71 77.91-157.42 201.31-258 99.23a131.92 131.92 0 01-27.56-41.62c58.3 13 137.35-123.62 288.87-122.15C1550.39 1604.76 1608.69 1694.13 1620.37 1769z" class="color322fe6 svgShape"/><path fill="#ffa30f" d="M3308.23,1099.49c-4,27.9-99.69,311.9-213.56,633.09-3.4,9.64-6.92,19.4-10.44,29.15-156.28,439.72-342.4,936-373.59,937.84-54.67,3.06-204.15,5.67-217.76-35.27-5.44-16.45,75.88-274.36,175.91-578.77,101.51-309.28,222.41-666.54,291-867.06,31.75-93.12,52.4-152.43,54.66-157.54,11.69-27.22,37.43-22.57,74.52-21.21C3137.88,1041.42,3317.76,1032.69,3308.23,1099.49Z" class="colorfda218 svgShape"/><path fill="#fcb138" d="M3308.23,1099.49c-4,27.9-99.69,311.9-213.56,633.09,14.86-132.47,31-373.82,60.68-467.5,32.55-102.87-73.27-70.43-195.53-46.61,31.75-93.12,52.4-152.43,54.66-157.54,11.69-27.22,37.43-22.57,74.52-21.21C3137.88,1041.42,3317.76,1032.69,3308.23,1099.49Z" class="colorfca838 svgShape"/><path fill="#fc9400" d="M3084.23,1761.73c-156.28,439.72-342.4,936-373.59,937.84-54.67,3.06-204.15,5.67-217.76-35.27-5.44-16.45,75.88-274.36,175.91-578.77,31-6.8,67.94-41.17,96.63-103.66C2827,1847.25,2952.33,1778.4,3084.23,1761.73Z" class="colorfc8000 svgShape"/><path fill="#f3a941" d="M3604.82,2392.78c-11.57,21.21-22.35,40.6-32,57.62-27.33,48.08-46.39,77.69-52.51,79.95-35.84,13.61-263.35,20.53-293.52,0s411.59-798.9,394.46-843.36-319.83,1.7-343.76-37.65c-8.06-13.27-8.74-44.24-4.88-79.85,7.48-70,32.44-157.65,52.74-161,17.8-3,49.11-5.56,88.92-7.26,188.95-8.62,569,.45,598.72,65.44C4040.79,1527.3,3754,2119,3604.82,2392.78Z" class="color4152f3 svgShape"/><path fill="#fcd59f" d="M3604.82,2392.78c-76.79-20.64,56.7-166.27,89.25-257.23,42.54-119.09,224-501.87,164.46-595.43-56.26-88.36-377.68-58-444.25-138.94,188.95-8.62,569,.45,598.72,65.44C4040.79,1527.3,3754,2119,3604.82,2392.78Z" class="color9fc3fc svgShape"/><path fill="#e6992f" d="M3382.07,2447.45c-14.41,44.91,147.1-18.72,190.76,3-27.33,48.08-46.39,77.69-52.51,79.95-35.84,13.61-263.35,20.53-293.52,0s411.59-798.9,394.46-843.36-319.83,1.7-343.76-37.65c-8.06-13.27-8.74-44.24-4.88-79.85,67,112.4,244.07,18.83,354,61.36s127,62.38,73.16,167.29S3398.85,2394.93,3382.07,2447.45Z" class="color322fe6 svgShape"/><path fill="#ffa30f" d="M1961,3028v32.55a34.95,34.95,0,0,1-34.71,34.81H1405.9a34.69,34.69,0,0,1-34.71-34.81V3028a34.58,34.58,0,0,1,34.71-34.71h520.35a34.13,34.13,0,0,1,20.08,6.35A34.87,34.87,0,0,1,1961,3028Z" class="colorfda218 svgShape"/><rect width="9.75" height="87.44" x="1420.98" y="3007.95" fill="#fc9400" class="colorfc8000 svgShape"/><rect width="9.75" height="87.44" x="1461.93" y="3007.95" fill="#fc9400" class="colorfc8000 svgShape"/><rect width="9.76" height="87.44" x="1502.87" y="3007.95" fill="#fc9400" class="colorfc8000 svgShape"/><rect width="9.75" height="87.44" x="1543.81" y="3007.95" fill="#fc9400" class="colorfc8000 svgShape"/><rect width="9.76" height="87.44" x="1584.76" y="3007.95" fill="#fc9400" class="colorfc8000 svgShape"/><rect width="9.75" height="87.44" x="1625.7" y="3007.95" fill="#fc9400" class="colorfc8000 svgShape"/><rect width="9.76" height="87.44" x="1666.64" y="3007.95" fill="#fc9400" class="colorfc8000 svgShape"/><rect width="9.75" height="87.44" x="1748.53" y="3007.95" fill="#fc9400" class="colorfc8000 svgShape"/><rect width="9.75" height="87.44" x="1707.59" y="3007.95" fill="#fc9400" class="colorfc8000 svgShape"/><rect width="9.87" height="87.44" x="1789.36" y="3007.95" fill="#fc9400" class="colorfc8000 svgShape"/><rect width="9.87" height="87.44" x="1830.3" y="3007.95" fill="#fc9400" class="colorfc8000 svgShape"/><rect width="9.87" height="87.44" x="1871.25" y="3007.95" fill="#fc9400" class="colorfc8000 svgShape"/><rect width="9.87" height="87.44" x="1912.19" y="3007.95" fill="#fc9400" class="colorfc8000 svgShape"/><path fill="#f7960d" d="M1903.21,3130.1v32.55a34.93,34.93,0,0,1-34.7,34.82H1348.15a34.69,34.69,0,0,1-34.7-34.82V3130.1a34.58,34.58,0,0,1,34.7-34.71h520.36a34.06,34.06,0,0,1,20.07,6.36A34.83,34.83,0,0,1,1903.21,3130.1Z" class="colorf4900b svgShape"/><rect width="9.75" height="87.44" x="1363.24" y="3110.03" fill="#e58703" class="colore56e03 svgShape"/><rect width="9.75" height="87.44" x="1404.18" y="3110.03" fill="#e58703" class="colore56e03 svgShape"/><rect width="9.76" height="87.44" x="1445.12" y="3110.03" fill="#e58703" class="colore56e03 svgShape"/><rect width="9.75" height="87.44" x="1486.07" y="3110.03" fill="#e58703" class="colore56e03 svgShape"/><rect width="9.76" height="87.44" x="1527.01" y="3110.03" fill="#e58703" class="colore56e03 svgShape"/><rect width="9.75" height="87.44" x="1567.95" y="3110.03" fill="#e58703" class="colore56e03 svgShape"/><rect width="9.76" height="87.44" x="1608.89" y="3110.03" fill="#e58703" class="colore56e03 svgShape"/><rect width="9.75" height="87.44" x="1690.78" y="3110.03" fill="#e58703" class="colore56e03 svgShape"/><rect width="9.75" height="87.44" x="1649.84" y="3110.03" fill="#e58703" class="colore56e03 svgShape"/><rect width="9.87" height="87.44" x="1731.61" y="3110.03" fill="#e58703" class="colore56e03 svgShape"/><rect width="9.87" height="87.44" x="1772.56" y="3110.03" fill="#e58703" class="colore56e03 svgShape"/><rect width="9.87" height="87.44" x="1813.5" y="3110.03" fill="#e58703" class="colore56e03 svgShape"/><rect width="9.87" height="87.44" x="1854.44" y="3110.03" fill="#e58703" class="colore56e03 svgShape"/><path fill="#ffa30f" d="M1925.46,3232.17v32.56a34.93,34.93,0,0,1-34.71,34.81H1370.4a34.71,34.71,0,0,1-34.71-34.81v-32.56a34.58,34.58,0,0,1,34.71-34.7h520.35a34.13,34.13,0,0,1,20.08,6.35A34.86,34.86,0,0,1,1925.46,3232.17Z" class="colorfda218 svgShape"/><rect width="9.75" height="87.44" x="1385.48" y="3212.1" fill="#fc9400" class="colorfc8000 svgShape"/><rect width="9.75" height="87.44" x="1426.43" y="3212.1" fill="#fc9400" class="colorfc8000 svgShape"/><rect width="9.76" height="87.44" x="1467.37" y="3212.1" fill="#fc9400" class="colorfc8000 svgShape"/><rect width="9.75" height="87.44" x="1508.31" y="3212.1" fill="#fc9400" class="colorfc8000 svgShape"/><rect width="9.76" height="87.44" x="1549.26" y="3212.1" fill="#fc9400" class="colorfc8000 svgShape"/><rect width="9.75" height="87.44" x="1590.2" y="3212.1" fill="#fc9400" class="colorfc8000 svgShape"/><rect width="9.76" height="87.44" x="1631.14" y="3212.1" fill="#fc9400" class="colorfc8000 svgShape"/><rect width="9.75" height="87.44" x="1713.03" y="3212.1" fill="#fc9400" class="colorfc8000 svgShape"/><rect width="9.75" height="87.44" x="1672.09" y="3212.1" fill="#fc9400" class="colorfc8000 svgShape"/><rect width="9.87" height="87.44" x="1753.86" y="3212.1" fill="#fc9400" class="colorfc8000 svgShape"/><rect width="9.87" height="87.44" x="1794.8" y="3212.1" fill="#fc9400" class="colorfc8000 svgShape"/><rect width="9.87" height="87.44" x="1835.75" y="3212.1" fill="#fc9400" class="colorfc8000 svgShape"/><rect width="9.87" height="87.44" x="1876.69" y="3212.1" fill="#fc9400" class="colorfc8000 svgShape"/><path fill="#f3a941" d="M3645.06 2940.81c51-53.87 180.05-106.33 136.1-248.1s-208.4-72.3-224 62.38S3645.06 2940.81 3645.06 2940.81zM3713.74 2963.15c47.71 18.67 114.76 87.59 194.06 22.68s-7.84-152.1-98.06-127.12S3713.74 2963.15 3713.74 2963.15z" class="color4152f3 svgShape"/><path fill="#ffffff" d="M3632.3,3154.88a5.67,5.67,0,0,1-5.67-5.67c0-44.29,19.65-349.76,25.63-379.63a5.75,5.75,0,0,1,6.67-4.46,5.66,5.66,0,0,1,4.45,6.67c-5.23,26.13-25.41,325.94-25.41,377.42A5.66,5.66,0,0,1,3632.3,3154.88Z" class="colorfff svgShape"/><path fill="#ffffff" d="M3638.52,3027.41a6,6,0,0,1-1.37-.17,5.67,5.67,0,0,1-4.14-6.86c15.8-64.11,176-85.72,182.86-86.62a5.68,5.68,0,0,1,1.47,11.26c-1.59.2-159.36,21.44-173.32,78.07A5.67,5.67,0,0,1,3638.52,3027.41Z" class="colorfff svgShape"/><path fill="#f3a941" d="M3448.39,3119.46l42.16,167.4a14.83,14.83,0,0,0,14.38,11.21h269.7a14.83,14.83,0,0,0,14.11-10.26l54.19-167.4a14.83,14.83,0,0,0-14.11-19.4h-366A14.84,14.84,0,0,0,3448.39,3119.46Z" class="color4152f3 svgShape"/><path fill="#9f5c00" d="M2703.81,2097.27c-10.64-4.25-20.56-75.13,18.43-113.41s47.49-42.53,89.31-97.12,158.79-57.41,194.23-44.65,49.62,44.65,61.67,48.2,68.05-29.06,135.39,24.81S3196.93,2042,3230,2133.66s77.5,146.5,57.66,206,7.56,92.62,56.7,136.1,43.48,104.91,20.8,178.63,50.09,118.14-58.6,148.39-582.21-13.71-661.6-114.36,48.2-143.19,28.36-216.91-11.34-89.32,11.34-129S2769.73,2168.16,2703.81,2097.27Z" class="color05009f svgShape"/><path fill="#f3a941" d="M2934.18,2470.13s-189.17,288.53-378.24,350a241,241,0,0,1-25.86,7,209.74,209.74,0,0,1-35.38,4.43c-1.71.11-3.29.11-5,.11-11.35.45-22.69.68-33.8.8-3.18.11-6.35.22-9.53.22l7.94-59.88v-.46l2.61-20a.69.69,0,0,0,.11-.45l2.27-17,4.76-35.73V2699l5-37.88,9.08-68.73c76.67-29.6,232.16-90.28,368.6-113.19C2877.14,2474,2906.74,2470.7,2934.18,2470.13Z" class="color4152f3 svgShape"/><path fill="#f3a941" d="M3306.53,2802.78s-39.35,163.77-139.61,297.6c-76.79,102.42-189.07,187.37-346.83,168.43-364.18-43.67-325.39-437.22-325.39-437.22l28.92-23.71,410.56-337.75c56.94-3.06,108.32,9.75,153.12,32.1,81.77,40.94,141.43,114,172,182.48,14.29,32.21,24.27,55.69,31.3,72.82C3306.53,2796.88,3306.53,2802.78,3306.53,2802.78Z" class="color4152f3 svgShape"/><path fill="#e6992f" d="M3166.92,3100.38c-76.79,102.42-189.07,187.37-346.83,168.43-364.18-43.67-325.39-437.22-325.39-437.22-13,.45-26.09.79-38.79.91-1.82-22-2.84-42.31-1.59-59.66v-.46a146.16,146.16,0,0,1,2.61-20,.69.69,0,0,0,.11-.45c2.95-13.5,8.17-24.16,16.67-31.08,23.48-19.39,29.95,25.41,49.91,87,1.93,6.24,4.08,12.71,6.46,19.28,22.69,64,61.7,139.62,146.42,180.79,179,87,201.88,162.53,253.94,106.72s67-90.73,44.35-175.79-6.58-102.08-6.58-102.08,24.61,20.87,55.57,69.08C3023.78,2905.88,3119.28,2979.6,3166.92,3100.38Z" class="color322fe6 svgShape"/><path fill="#fddeb2" d="M3360.74,3210.17c-74.62,76.9-216.74,94.48-216.74,94.48l-114.21-17.24h-.11l-171.14-25.86s181.46-76,215.49-132.7-22.69-119.09-64.2-223c26.88-18.83,60.68-34.94,95.84-48.43,95.72-37,200.86-54.67,200.86-54.67s66.23,80.41,96.41,273.22C3412,3133.73,3392.5,3177.28,3360.74,3210.17Z" class="colorfdb2d0 svgShape"/><path fill="#fce8cd" d="M3360.74,3210.17c-.9-10-.45-19.62,1.59-27,9.64-34.48-70.88-215.49-110.58-338.1,0,0-19.85-13.49,54.78-42.3,0,0,66.23,80.41,96.41,273.22C3412,3133.73,3392.5,3177.28,3360.74,3210.17Z" class="colorfccde0 svgShape"/><path fill="#ffbf66" d="M3157.27,3172.4c-66.23,39.7-64.87,24.5-35.27,37.77s24.05,71.23-92.21,77.24h-.11l-171.14-25.86s181.46-76,215.49-132.7-22.69-119.09-64.2-223c26.88-18.83,60.68-34.94,95.84-48.43,24,10.2,36.41,23.81,36.41,23.81C3170.43,2979.6,3223.4,3132.71,3157.27,3172.4Z" class="colorfe93bc svgShape"/><path fill="#ffcc86" d="M3019.25,2877.48c-25.81,12.91-41.59,31.19-24.58,54.82s32.14,15.12,61.44,4.73,259.91-89.53,285.43-104.31,6.61-38.58-15.12-55S3057.05,2858.58,3019.25,2877.48Z" class="color86a8ff svgShape"/><path fill="#ffbf66" d="M2763.59,2152.64c-42.37-27-73.19,3.85-64.84,40.44s69,56.18,69,56.18Z" class="colorfe93bc svgShape"/><path fill="#e6992f" d="M2534.39,2720.89c-.91,18,4.31,43,11.8,68.51,2.95,10.32,6.24,20.64,9.75,30.73,14.52,42,31,78.15,31,78.15s-3.28,115.11-52.62,19.84c-14.63-28.24-28.47-53.75-40.27-77.35-1.47-3.06-2.94-6.12-4.3-9.07-17.58-36.29-29.49-67.82-30.4-96.74a97.36,97.36,0,0,1,4.76-35.73V2699c3.86-11.68,5.11-24.61,5-37.88l9.08-68.73c76.67-29.6,232.16-90.28,368.6-113.19a171.27,171.27,0,0,1-4.65,39.13C2679,2596.36,2537.23,2665.32,2534.39,2720.89Z" class="color322fe6 svgShape"/><path fill="#fddeb2" d="M3088.09,2319.17c-2.38,10.44-4.88,21-7.49,31.42-28.58,116.7-64.3,227.06-80.29,255.64-9.64,17.13-27.79,27.22-49.34,32.21-2.38.68-4.76,1.13-7.26,1.59-50.7,9-115.68-7.6-132.92-26.66-8.28-9.18-10.1-33-8.62-61.47v-.11c.34-5.9.79-11.91,1.36-18.15,5-56,19.51-121,22.91-128.72,5.22-11.8,6.8,8-43.78-19.63-4-2.15-8.28-4.53-12.93-7.37-56.82-34-47.29-191-34.48-274.81,1.59-10.2,3.18-19.39,4.77-27.1,0,0-2.27-15,29.82-56.26,4.88-6.12,10.44-12.93,16.9-20.3,25.64-29.37,105-41.28,179.77-32,70,8.62,136.1,35.72,150.5,84.49C3130.85,2098.58,3113.72,2208.71,3088.09,2319.17Z" class="colorfdb2d0 svgShape"/><path fill="#ffbf66" d="M3088.09,2319.17c-41.06-8.39-79.39-77.69-77.35-112.05,2.15-35.39,74.4-9.87,70.2-55.24s-67.36-69.52-101.39-75.19-29-77.24-29-77.24c-9.87,43.1-160.71,104.91-215.27,103.66,1.59-10.2,3.18-19.39,4.77-27.1,0,0-2.27-15,29.82-56.26,39.36-18,112.4-36.06,175-48.88,7.37-1.47,14.63-2.61,21.66-3.4,70,8.62,136.1,35.72,150.5,84.49C3130.85,2098.58,3113.72,2208.71,3088.09,2319.17Z" class="colorfe93bc svgShape"/><path fill="#9f5c00" d="M2950.49,1999.4c-23.39,39-125.47,71.65-177.21,83.7s-65.22,16.3-69.47,14.17,14.88-84.76,82.93-133.11,201.32-90.17,292.76-25.67,57.42,197.59,39,197.06-8.51-89.31-46.08-92.86S2968.21,2066.7,2950.49,1999.4Z" class="color05009f svgShape"/><circle cx="3103.57" cy="2195.83" r="92.83" fill="#fcb138" class="colorfca838 svgShape"/><ellipse cx="2822.88" cy="2329.81" fill="#fcb138" rx="31.91" ry="24.52" class="colorfca838 svgShape"/><path fill="#fcb138" d="M2825.72,2335.48a5.67,5.67,0,0,1-.9-11.26c1.6-.27,160.63-26.8,228.7-94.86a5.67,5.67,0,1,1,8,8c-70.65,70.67-228.21,96.94-234.89,98A4.77,4.77,0,0,1,2825.72,2335.48Z" class="colorfca838 svgShape"/><line x1="2446.38" x2="2445.59" y1="2832.72" y2="2838.73" fill="none"/><line x1="2480.52" x2="2478.14" y1="2574.13" y2="2592.39" fill="none"/><path fill="#fddeb2" d="M2571.25,2227.76c-9,57-42,140.41-73.95,214.58-38.67,90.06-75.76,166.73-66.46,166.73,3.74,0,20.87-6.47,47.3-16.68l-18.72,141.43-13,98.9c-185.21,2.72-333.56-20.53-323.12-131.56,11.34-120.45,296.24-391.29,306.22-445,5.33-29-20-62.83-33.23-106.38-11.23-37.54-13.61-82.34,20.53-137.46a133.13,133.13,0,0,1,10.89-15.09C2500,1913.26,2590.19,2107.65,2571.25,2227.76Z" class="colorfdb2d0 svgShape"/><path fill="#fce8cd" d="M2571.25,2227.76c-9,57-42,140.41-73.95,214.58a18.31,18.31,0,0,1-3.85-6.23c-12.48-34,19.73-171.6,14.4-250.66-4.53-68.5-20.64-131.22-80.18-188.27C2500,1913.26,2590.19,2107.65,2571.25,2227.76Z" class="colorfccde0 svgShape"/><path fill="#ffbf66" d="M2170.55,2665.77c-10.77,68.28,261.88,68.28,288.87,68.05l-13,98.9c-185.21,2.72-333.56-20.53-323.12-131.56,11.34-120.45,296.24-391.29,306.22-445,5.33-29-20-62.83-33.23-106.38,39.81,44.46,87.1,68.39,77.46,99.35C2461.58,2287.76,2181.89,2594,2170.55,2665.77Z" class="colorfe93bc svgShape"/><path fill="#ffcc86" d="M2420.21 2849.28c.59 26 9.43 45.92 35.25 41.14s24.7-20.39 27.5-48.28 27-246.42 24.79-272.92-28.92-20.24-50.7-8.85S2419.35 2811.17 2420.21 2849.28zM3290.65 2757.53c-51.37-47.75-168.42-137.8-203.35-255.3 81.77 40.94 141.43 114 172 182.48C3273.64 2716.92 3283.62 2740.4 3290.65 2757.53z" class="color86a8ff svgShape"/><path fill="#fed193" d="M2921.14 2372c-7 5.22-84 63.18-98.22 92.78-7.14 15-14.17 43.32-19.39 68.84 5-56 19.51-121 22.91-128.72 5.22-11.8 6.8 8-43.78-19.63C2836.42 2409.57 2913.54 2375.31 2921.14 2372zM2943.71 2640c-50.7 9-115.68-7.6-132.92-26.66-8.28-9.18-10.1-33-8.62-61.47C2830.64 2597 2899.48 2625.74 2943.71 2640z" class="colorfe93fc svgShape"/><path fill="#fce8cd" d="M3080.6,2350.59c-28.58,116.7-64.3,227.06-80.29,255.64-9.64,17.13-27.79,27.22-49.34,32.21-46.5-14.29-85.52-64-35.72-104.8C2969.34,2489.41,3029.91,2412.29,3080.6,2350.59Z" class="colorfccde0 svgShape"/><polygon fill="#f9ddb7" points="1527.01 3350.05 1708.17 3740.62 1782.79 3721.22 1608.89 3338.71 1527.01 3350.05" class="colorb7cdf9 svgShape"/><polygon fill="#f9ddb7" points="2080.78 3350.05 1925.63 3681.38 1830.94 3708.16 1998.9 3338.71 2080.78 3350.05" class="colorb7cdf9 svgShape"/><polygon fill="#f9ddb7" points="2767.37 3350.05 2946.39 3748.32 3047.85 3780.96 2849.26 3338.71 2767.37 3350.05" class="colorb7cdf9 svgShape"/><polygon fill="#f9ddb7" points="3321.15 3350.05 3121.88 3805.17 3047.85 3780.96 3239.26 3338.71 3321.15 3350.05" class="colorb7cdf9 svgShape"/><rect width="2684.19" height="64.27" x="1150.54" y="3298.07" fill="#ffe5c0" class="colorc0d2ff svgShape"/><polygon fill="#9f5c00" points="1989.28 2845.12 2724.6 2845.12 2834.24 3225.11 2155.63 3225.11 1989.28 2845.12" class="color05009f svgShape"/><path fill="#784600" d="M2155.63,3225.11s9.45,69.66,13.7,71.79,988.85.71,998.07.71,36.86-56.71,28.35-60.26-361.51-12.24-361.51-12.24Z" class="color040078 svgShape"/><polygon fill="#784600" points="1989.28 2845.12 2834.24 3225.11 2155.63 3225.11 1989.28 2845.12" class="color040078 svgShape"/><circle cx="2421.21" cy="3065.34" r="52.46" fill="#fcf9f5" class="colorf5f7fc svgShape"/><path fill="#efe5d8" d="M618.7 1884.24a4.08 4.08 0 01-3.14-3.09c-.7-2.44.33-5.12 2.31-6s4.13-1.73 6.23-2.49 4.13.71 4.72 3.2-.57 5.09-2.59 5.82-3.91 1.48-5.81 2.31A3.15 3.15 0 01618.7 1884.24zM780.17 1916.67l-.35-.07a116 116 0 01-13.36-4.41c-2-.8-3.1-3.45-2.45-5.91s2.78-3.83 4.78-3a109.39 109.39 0 0012.61 4.16c2.05.54 3.37 3 2.93 5.56S782.1 1917 780.17 1916.67zm26.68 3.51c-1.89-.28-3.35-2.27-3.35-4.68 0-2.59 1.71-4.69 3.82-4.68a105.47 105.47 0 0013-.75c2.08-.25 3.95 1.64 4.16 4.22s-1.33 4.87-3.42 5.12a112 112 0 01-13.81.8A3.25 3.25 0 01806.85 1920.18zm-64.41-20.75a3.26 3.26 0 01-1.12-.39c-4.05-2.26-8.15-4.39-12.2-6.33-2-.94-2.93-3.66-2.17-6.08s3-3.61 4.92-2.67c4.18 2 8.41 4.2 12.59 6.53 1.91 1.07 2.76 3.86 1.9 6.22A3.73 3.73 0 01742.44 1899.43zm-91.28-23.22c-1.78-.26-3.21-2.06-3.34-4.34-.14-2.59 1.44-4.83 3.54-5a123.25 123.25 0 0113.78-.36c2.08.08 3.76 2.21 3.71 4.8s-1.78 4.64-3.88 4.58a118.11 118.11 0 00-13.09.34A2.87 2.87 0 01651.16 1876.21zm53.3 6.63a4.85 4.85 0 01-.49-.11c-4.31-1.35-8.64-2.52-12.88-3.47-2.06-.46-3.44-2.91-3.06-5.45s2.37-4.22 4.42-3.78c4.41 1 8.91 2.2 13.39 3.6 2 .64 3.27 3.19 2.75 5.7C708.12 1881.64 706.33 1883.11 704.46 1882.84zM846.64 1912.78a4.11 4.11 0 01-3.17-3.21c-.64-2.47.45-5.11 2.45-5.91a59.15 59.15 0 005.57-2.51c1.92-1.05 4.16 0 5 2.38s0 5.14-1.93 6.19a62.05 62.05 0 01-6.32 2.87A3.14 3.14 0 01846.64 1912.78zM462.38 1897.32a4.05 4.05 0 01-3.13-3.08c-.71-2.45.32-5.13 2.3-6s4.13-1.73 6.23-2.48 4.13.71 4.72 3.19-.57 5.1-2.59 5.82-3.91 1.48-5.8 2.31A3.1 3.1 0 01462.38 1897.32zM623.85 1929.75a2.17 2.17 0 01-.35-.07 114.08 114.08 0 01-13.36-4.41c-2-.8-3.1-3.44-2.45-5.91s2.79-3.82 4.79-3a106.73 106.73 0 0012.6 4.16c2.06.54 3.37 3 2.93 5.57S625.78 1930 623.85 1929.75zm26.68 3.51c-1.89-.28-3.35-2.27-3.35-4.68 0-2.59 1.72-4.68 3.82-4.67a105.47 105.47 0 0013-.75c2.09-.26 4 1.63 4.16 4.21s-1.33 4.88-3.42 5.13a111.8 111.8 0 01-13.8.79zm-64.41-20.75a3.31 3.31 0 01-1.12-.38c-4-2.27-8.15-4.4-12.2-6.34-2-.94-2.93-3.66-2.17-6.08s3-3.61 4.92-2.67c4.18 2 8.41 4.2 12.59 6.54 1.91 1.07 2.76 3.85 1.9 6.21A3.73 3.73 0 01586.12 1912.51zm-91.27-23.21a4.41 4.41 0 01-3.35-4.35c-.14-2.58 1.44-4.82 3.54-5a125.76 125.76 0 0113.78-.36c2.09.09 3.76 2.21 3.72 4.8s-1.79 4.65-3.89 4.59a115.72 115.72 0 00-13.09.34A3.35 3.35 0 01494.85 1889.3zm53.29 6.62a2.77 2.77 0 01-.48-.11c-4.31-1.35-8.65-2.51-12.88-3.47-2.07-.46-3.44-2.9-3.07-5.45s2.38-4.22 4.42-3.78c4.41 1 8.91 2.2 13.39 3.6 2 .64 3.27 3.2 2.75 5.71C551.8 1894.73 550 1896.2 548.14 1895.92zM690.33 1925.87a4.1 4.1 0 01-3.17-3.22c-.65-2.46.44-5.11 2.44-5.91a57.64 57.64 0 005.57-2.51c1.92-1 4.17 0 5 2.39s0 5.14-1.93 6.19a62.67 62.67 0 01-6.31 2.86A3 3 0 01690.33 1925.87zM4174.56 2141.32a4.09 4.09 0 01-3.14-3.09c-.7-2.44.33-5.13 2.31-6s4.13-1.73 6.23-2.48 4.13.71 4.72 3.2-.57 5.09-2.59 5.81-3.91 1.48-5.81 2.32A3.15 3.15 0 014174.56 2141.32zM4336 2173.74a2.17 2.17 0 01-.35-.07 114.08 114.08 0 01-13.36-4.41c-2-.8-3.1-3.44-2.45-5.91s2.78-3.83 4.78-3a109.45 109.45 0 0012.61 4.17c2.05.53 3.37 3 2.93 5.56S4338 2174 4336 2173.74zm26.68 3.51c-1.89-.28-3.35-2.27-3.35-4.67 0-2.59 1.71-4.69 3.82-4.68a105.47 105.47 0 0013-.75c2.08-.25 3.95 1.63 4.16 4.21s-1.33 4.88-3.42 5.13a112 112 0 01-13.81.8zm-64.41-20.74a3.48 3.48 0 01-1.12-.39c-4.05-2.26-8.15-4.4-12.2-6.34-2-.94-2.93-3.65-2.17-6.07s3-3.61 4.92-2.67c4.18 2 8.41 4.2 12.59 6.53 1.91 1.07 2.76 3.85 1.9 6.21A3.76 3.76 0 014298.3 2156.51zM4207 2133.29c-1.78-.26-3.21-2.06-3.34-4.34-.14-2.59 1.44-4.83 3.54-5a120.91 120.91 0 0113.78-.36c2.08.08 3.76 2.21 3.71 4.8s-1.78 4.64-3.88 4.58a118.11 118.11 0 00-13.09.34A3.43 3.43 0 014207 2133.29zm53.3 6.63l-.49-.12c-4.31-1.35-8.64-2.51-12.88-3.46-2.06-.47-3.44-2.91-3.06-5.46s2.37-4.22 4.42-3.78c4.41 1 8.91 2.21 13.39 3.61 2 .63 3.27 3.19 2.75 5.7C4264 2138.72 4262.19 2140.19 4260.32 2139.92zM4402.5 2169.86a4.11 4.11 0 01-3.17-3.22c-.64-2.46.45-5.11 2.45-5.9a57.29 57.29 0 005.57-2.52c1.92-1 4.16 0 5 2.39s0 5.14-1.93 6.19a62.05 62.05 0 01-6.32 2.87A3.14 3.14 0 014402.5 2169.86zM4018.24 2154.4a4.05 4.05 0 01-3.13-3.09c-.71-2.44.32-5.12 2.3-6s4.13-1.73 6.23-2.48 4.13.7 4.72 3.19-.57 5.09-2.59 5.82-3.91 1.48-5.81 2.31A3.15 3.15 0 014018.24 2154.4zM4179.71 2186.83l-.35-.07a116 116 0 01-13.36-4.41c-2-.8-3.1-3.45-2.45-5.91s2.79-3.82 4.79-3a106.73 106.73 0 0012.6 4.16c2.06.54 3.37 3 2.93 5.57C4183.46 2185.54 4181.64 2187.12 4179.71 2186.83zm26.68 3.51c-1.89-.28-3.35-2.27-3.35-4.68 0-2.59 1.72-4.68 3.82-4.67a105.49 105.49 0 0013-.76c2.09-.25 4 1.64 4.16 4.22s-1.33 4.87-3.42 5.12a111.81 111.81 0 01-13.8.8A3.4 3.4 0 014206.39 2190.34zM4142 2169.59a3.33 3.33 0 01-1.12-.39c-4-2.26-8.15-4.39-12.2-6.34-2-.93-2.93-3.65-2.17-6.07s3-3.61 4.92-2.67c4.18 2 8.41 4.2 12.59 6.53 1.91 1.07 2.76 3.85 1.9 6.22A3.73 3.73 0 014142 2169.59zm-91.27-23.22c-1.78-.26-3.22-2-3.35-4.34-.14-2.59 1.44-4.82 3.54-5a125.76 125.76 0 0113.78-.36c2.09.08 3.76 2.21 3.72 4.8s-1.79 4.64-3.89 4.58a118.08 118.08 0 00-13.09.35A2.8 2.8 0 014050.71 2146.37zM4104 2153a2.77 2.77 0 01-.48-.11c-4.31-1.35-8.65-2.52-12.88-3.47-2.07-.46-3.44-2.9-3.07-5.45s2.38-4.22 4.42-3.78c4.41 1 8.91 2.2 13.39 3.6 2 .64 3.27 3.19 2.75 5.7C4107.66 2151.8 4105.87 2153.28 4104 2153zM4246.19 2183a4.1 4.1 0 01-3.17-3.22c-.65-2.46.44-5.11 2.44-5.91a57.64 57.64 0 005.57-2.51c1.92-1 4.17 0 5 2.39s0 5.13-1.93 6.18a58.6 58.6 0 01-6.31 2.87A3 3 0 014246.19 2183z" class="colord8e4ef svgShape"/></g></g></svg>