<svg xmlns="http://www.w3.org/2000/svg" viewBox="0 0 900 900"><g data-name="Layer 1" fill="#000000" class="color000 svgShape"><g style="isolation:isolate" fill="#000000" class="color000 svgShape"><path fill="#8c6c40" d="m646.015 607.313 5.384-3.129.577-221.21-5.384 3.129-.577 221.21z" class="color8c6c40 svgShape"/><path fill="#d4a96e" d="M641.955 383.942c2.16-.241 4.513 2.04 4.637 2.16l-.577 221.21c-.124-.12-2.477-2.402-4.636-2.16Z" class="colord4a86e svgShape"/><path fill="#ededed" d="m649.789 385.007-.576 203.234 100.544 58.049.576-203.234-100.544-58.049z" class="colorededed svgShape"/><path fill="#b58d55" d="M634.607 371.826c-.197 69.56-.401 159.51-.598 229.07l7.37 4.256c.185-65.327.377-151.044.576-221.21l104.752 60.479c-.199 70.166-.39 159.477-.576 224.804l7.37 4.255c.197-69.56.402-163.105.599-232.665l-119.493-68.99Z" class="colorb58b55 svgShape"/><path fill="#8c6c40" d="m758.138 675.641 5.384-3.129.612-237.505-5.384 3.129-.612 237.505z" class="color8c6c40 svgShape"/><path fill="#ffbf66" d="m635.046 366.716 123.704 71.42c-.125.072-2.488 1.427-4.65 2.679l-119.493-68.99c1.283-1.758.481-4.942.44-5.11Z" class="colorf5c78c svgShape"/><path fill="#d4a96e" d="M754.1 440.815c2.162-1.252 4.525-2.607 4.65-2.679l-.612 237.505c-.124-.12-2.478-2.402-4.637-2.16Z" class="colord4a86e svgShape"/><path fill="#d6a562" d="m758.75 438.136 5.384-3.129-123.704-71.42-5.384 3.129 123.704 71.42z" class="colord6a562 svgShape"/></g><path fill="#c5bfb7" d="m733.105 623.771.174-61.505-33.702-19.458-.175 61.505 33.703 19.458z" class="colorb7c5c5 svgShape"/><g style="isolation:isolate" fill="#000000" class="color000 svgShape"><path fill="#ffffff" d="m701.298 603.211 31.813 18.367-.006 2.193-33.703-19.458 1.896-1.102z" class="colorfff svgShape"/><path fill="#78746f" d="m699.577 542.808 1.889 1.091-.168 59.312-1.896 1.102.175-61.505z" class="color6f7878 svgShape"/></g><path fill="#c5bfb7" d="m691.32 599.648.174-61.504-33.702-19.459-.175 61.505 33.703 19.458z" class="colorb7c5c5 svgShape"/><g style="isolation:isolate" fill="#000000" class="color000 svgShape"><path fill="#ffffff" d="m659.513 579.088 31.813 18.367-.006 2.193-33.703-19.458 1.896-1.102z" class="colorfff svgShape"/><path fill="#78746f" d="m657.792 518.685 1.889 1.091-.168 59.312-1.896 1.102.175-61.505z" class="color6f7878 svgShape"/></g><g style="isolation:isolate" fill="#000000" class="color000 svgShape"><path fill="#c5bfb7" d="m699.764 476.598 33.703 19.458-.16 56.483-33.703-19.458.16-56.483z" class="colorb7c5c5 svgShape"/><path fill="#ffffff" d="m701.5 531.98 31.813 18.367-.006 2.192-33.703-19.458 1.896-1.101z" class="colorfff svgShape"/><path fill="#78746f" d="m699.764 476.598 1.89 1.091-.154 54.291-1.896 1.101.16-56.483z" class="color6f7878 svgShape"/></g><path fill="#c5bfb7" d="m733.494 486.332.103-36.071-33.703-19.458-.102 36.071 33.702 19.458z" class="colorb7c5c5 svgShape"/><g style="isolation:isolate" fill="#000000" class="color000 svgShape"><path fill="#78746f" d="m699.894 430.803 1.89 1.091-.096 33.878-1.896 1.102.102-36.071z" class="color6f7878 svgShape"/><path fill="#ffffff" d="m701.688 465.772 31.813 18.367-.007 2.193-33.702-19.458 1.896-1.102z" class="colorfff svgShape"/></g><path fill="#c5bfb7" d="m691.71 462.209.102-36.071-33.703-19.458-.102 36.071 33.703 19.458z" class="colorb7c5c5 svgShape"/><g style="isolation:isolate" fill="#000000" class="color000 svgShape"><path fill="#78746f" d="m658.109 406.68 1.89 1.091-.096 33.879-1.896 1.101.102-36.071z" class="color6f7878 svgShape"/><path fill="#ffffff" d="m659.903 441.65 31.813 18.367-.006 2.192-33.703-19.458 1.896-1.101z" class="colorfff svgShape"/></g><g style="isolation:isolate" fill="#000000" class="color000 svgShape"><path fill="#c5bfb7" d="m657.98 452.475 33.702 19.458-.16 56.484-33.703-19.458.161-56.484z" class="colorb7c5c5 svgShape"/><path fill="#ffffff" d="m659.715 507.857 31.813 18.367-.006 2.193-33.703-19.458 1.896-1.102z" class="colorfff svgShape"/><path fill="#78746f" d="m657.98 452.475 1.889 1.091-.154 54.291-1.896 1.102.161-56.484z" class="color6f7878 svgShape"/></g><path fill="#d9d9d9" d="M738.217 553.82a7.484 7.484 0 0 1 3.397 5.883c-.006 2.163-1.536 3.035-3.419 1.948a7.484 7.484 0 0 1-3.397-5.883c.006-2.164 1.537-3.036 3.42-1.949Z" class="colord9d9d9 svgShape"/><g style="isolation:isolate" fill="#000000" class="color000 svgShape"><path fill="#b56a00" d="M737.53 555.495a1.581 1.581 0 0 0-1.595-.158l-4.964 2.885a1.58 1.58 0 0 1 1.594.158 4.881 4.881 0 0 1 2.207 3.822 1.569 1.569 0 0 1-.653 1.437l4.965-2.884a1.57 1.57 0 0 0 .652-1.438 4.882 4.882 0 0 0-2.207-3.822Z" class="colorb59600 svgShape"/><path fill="#c77400" d="M732.565 558.38a4.882 4.882 0 0 1 2.207 3.822c-.004 1.42-1.004 1.99-2.221 1.287a4.893 4.893 0 0 1-2.226-3.854c.004-1.4 1.004-1.97 2.24-1.255Z" class="colorc79c00 svgShape"/></g><g style="isolation:isolate" fill="#000000" class="color000 svgShape"><path fill="#ffa30f" d="M732.345 556.34a2.85 2.85 0 0 0-2.875-.282l-2.037 1.183a2.85 2.85 0 0 1 2.875.283 8.873 8.873 0 0 1 4.028 6.975 2.829 2.829 0 0 1-1.179 2.592l2.037-1.183a2.828 2.828 0 0 0 1.178-2.593 8.873 8.873 0 0 0-4.027-6.975Z" class="coloredba00 svgShape"/><path fill="#f7960d" d="M730.308 557.524a8.873 8.873 0 0 1 4.028 6.975c-.008 2.565-1.822 3.599-4.054 2.31a8.873 8.873 0 0 1-4.027-6.975c.007-2.565 1.821-3.6 4.053-2.31Z" class="colorcfa200 svgShape"/></g><path fill="#4d4131" d="M739.578 572.262a1.012 1.012 0 0 0 .134-.54l.001-.322a2.485 2.485 0 0 0-.234-1 2.487 2.487 0 0 1-.235-1.001l.002-.595a1.486 1.486 0 0 0-.675-1.168.724.724 0 0 0-.18-.076.715.715 0 0 0-.025.187l-.001.595a1.048 1.048 0 0 1-.24.727 1.048 1.048 0 0 0-.24.727v.322a2.528 2.528 0 0 0 1.147 1.987 1.023 1.023 0 0 0 .546.157Z" class="color4d3f31 svgShape"/><path fill="#78746f" d="M739.578 572.262a1.023 1.023 0 0 1-.546-.157 2.528 2.528 0 0 1-1.147-1.987v-.322a1.048 1.048 0 0 1 .24-.727 1.048 1.048 0 0 0 .24-.727l.001-.595a.72.72 0 0 1 .024-.187.392.392 0 0 0-.3.028.474.474 0 0 0-.198.435l-.002.594a1.047 1.047 0 0 1-.24.727 1.048 1.048 0 0 0-.238.727l-.001.323a2.528 2.528 0 0 0 1.147 1.986.812.812 0 0 0 .818.08.588.588 0 0 0 .202-.198Z" class="color6f7878 svgShape"/><path d="M700.342 710.023c28.953-.001 56.245-6.55 76.851-18.44l9.56-5.37-21.177-12.312-4.873 2.665c-16.066 9.27-37.522 14.376-60.417 14.376-23.128 0-44.798-5.194-61.016-14.623-15.347-8.923-23.788-20.48-23.769-32.543.02-12.035 8.467-23.532 23.784-32.371l7.053-4.071-21.176-12.311-2.366 1.365c-21.499 12.406-33.355 29.216-33.384 47.332-.03 18.15 11.81 35.037 33.336 47.552 20.798 12.091 48.354 18.75 77.587 18.75Z" style="mix-blend-mode:multiply" fill="#d9d9d9" class="colord9d9d9 svgShape"/><path fill="#5e564a" d="M596.78 631.524c-.043 14.976 9.796 29.979 29.519 41.445 39.372 22.89 103.222 23.02 142.612.288l-.027 9.355c-39.39 22.73-103.24 22.602-142.612-.288-19.722-11.466-29.562-26.47-29.52-41.445Z" class="color5e574a svgShape"/><path fill="#847868" d="m626.332 590.364 11.216 6.52c-33.193 19.156-33.206 50.32-.028 69.61s86.982 19.397 120.175.242l11.216 6.52c-39.39 22.732-103.24 22.603-142.612-.287s-39.358-59.874.033-82.605Z" class="color847868 svgShape"/><path fill="#6b6154" d="M612.67 622.945c-.036 12.62 8.255 25.262 24.875 34.925 33.177 19.289 86.981 19.397 120.174.242l-.024 8.624c-33.193 19.155-86.997 19.046-120.175-.243-16.62-9.662-24.91-22.304-24.875-34.924Z" class="color6b6254 svgShape"/><path fill="#8e8170" d="m637.572 588.261 11.583 6.734c-26.792 15.462-26.802 40.618-.022 56.187s70.21 15.658 97.003.196l11.583 6.734c-33.193 19.155-86.997 19.047-120.174-.242s-33.166-50.454.027-69.609Z" class="color8e8370 svgShape"/><path fill="#7d7263" d="M629.076 615.251c-.029 10.187 6.664 20.391 20.079 28.19 26.78 15.57 70.21 15.658 97.003.196l-.022 7.741c-26.793 15.462-70.223 15.374-97.003-.196-13.415-7.799-20.108-18.004-20.079-28.19Z" class="color7d7063 svgShape"/><path fill="#a39581" d="m649.177 587.255 48.49 28.191 48.491 28.191c-26.793 15.462-70.223 15.374-97.003-.195s-26.77-40.726.022-56.187Z" class="colora39581 svgShape"/><g style="isolation:isolate" fill="#000000" class="color000 svgShape"><path fill="#8c6c40" d="m439.936 487.879 5.384-3.128.576-221.21-5.384 3.129-.576 221.209z" class="color8c6c40 svgShape"/><path fill="#d4a96e" d="M435.875 264.51c2.16-.242 4.513 2.04 4.637 2.16l-.576 221.21c-.124-.12-2.478-2.402-4.637-2.16Z" class="colord4a86e svgShape"/><path fill="#ededed" d="m443.709 265.574-.576 203.234 100.544 58.05.576-203.235-100.544-58.049z" class="colorededed svgShape"/><path fill="#b58d55" d="M428.527 252.393c-.197 69.56-.4 159.51-.598 229.07l7.37 4.256c.185-65.327.377-151.044.576-221.21l104.752 60.479c-.198 70.166-.39 159.477-.576 224.804l7.37 4.255c.198-69.56.402-163.105.599-232.665l-119.493-68.99Z" class="colorb58b55 svgShape"/><path fill="#8c6c40" d="m552.058 556.208 5.384-3.129.612-237.505-5.384 3.129-.612 237.505z" class="color8c6c40 svgShape"/><path fill="#ffbf66" d="m428.966 247.283 123.704 71.42c-.124.072-2.488 1.427-4.65 2.679l-119.493-68.99c1.284-1.758.482-4.942.44-5.11Z" class="colorf5c78c svgShape"/><path fill="#d4a96e" d="M548.02 321.382c2.162-1.252 4.526-2.607 4.65-2.679l-.612 237.505c-.124-.12-2.477-2.402-4.637-2.16Z" class="colord4a86e svgShape"/><path fill="#d6a562" d="m552.67 318.703 5.384-3.129-123.703-71.42-5.385 3.129 123.704 71.42z" class="colord6a562 svgShape"/></g><path fill="#c5bfb7" d="m527.025 504.338.174-61.505-33.702-19.458-.174 61.505 33.702 19.458z" class="colorb7c5c5 svgShape"/><g style="isolation:isolate" fill="#000000" class="color000 svgShape"><path fill="#ffffff" d="m495.218 483.778 31.813 18.367-.006 2.193-33.702-19.458 1.895-1.102z" class="colorfff svgShape"/><path fill="#78746f" d="m493.497 423.375 1.89 1.091-.169 59.312-1.895 1.102.174-61.505z" class="color6f7878 svgShape"/></g><path fill="#c5bfb7" d="m485.24 480.215.175-61.504-33.703-19.459-.174 61.505 33.702 19.458z" class="colorb7c5c5 svgShape"/><g style="isolation:isolate" fill="#000000" class="color000 svgShape"><path fill="#ffffff" d="m453.433 459.655 31.813 18.367-.006 2.193-33.702-19.458 1.895-1.102z" class="colorfff svgShape"/><path fill="#78746f" d="m451.712 399.252 1.89 1.091-.169 59.312-1.895 1.102.174-61.505z" class="color6f7878 svgShape"/></g><g style="isolation:isolate" fill="#000000" class="color000 svgShape"><path fill="#c5bfb7" d="m493.685 357.165 33.702 19.458-.16 56.483-33.702-19.458.16-56.483z" class="colorb7c5c5 svgShape"/><path fill="#ffffff" d="m495.42 412.547 31.813 18.367-.006 2.192-33.702-19.458 1.895-1.101z" class="colorfff svgShape"/><path fill="#78746f" d="m493.685 357.165 1.889 1.091-.154 54.291-1.895 1.101.16-56.483z" class="color6f7878 svgShape"/></g><path fill="#c5bfb7" d="m527.415 366.899.102-36.071-33.702-19.458-.103 36.071 33.703 19.458z" class="colorb7c5c5 svgShape"/><g style="isolation:isolate" fill="#000000" class="color000 svgShape"><path fill="#78746f" d="m493.815 311.37 1.889 1.091-.096 33.878-1.896 1.102.103-36.071z" class="color6f7878 svgShape"/><path fill="#ffffff" d="m495.608 346.339 31.813 18.368-.006 2.192-33.703-19.458 1.896-1.102z" class="colorfff svgShape"/></g><path fill="#c5bfb7" d="m485.63 342.776.102-36.071-33.702-19.458-.103 36.071 33.703 19.458z" class="colorb7c5c5 svgShape"/><g style="isolation:isolate" fill="#000000" class="color000 svgShape"><path fill="#78746f" d="m452.03 287.247 1.889 1.091-.096 33.879-1.896 1.101.103-36.071z" class="color6f7878 svgShape"/><path fill="#ffffff" d="m453.823 322.217 31.813 18.367-.006 2.192-33.703-19.458 1.896-1.101z" class="colorfff svgShape"/></g><g style="isolation:isolate" fill="#000000" class="color000 svgShape"><path fill="#c5bfb7" d="m451.9 333.042 33.702 19.458-.16 56.484-33.702-19.459.16-56.483z" class="colorb7c5c5 svgShape"/><path fill="#ffffff" d="m453.635 388.424 31.813 18.367-.006 2.193-33.702-19.459 1.895-1.101z" class="colorfff svgShape"/><path fill="#78746f" d="m451.9 333.042 1.889 1.091-.154 54.291-1.895 1.101.16-56.483z" class="color6f7878 svgShape"/></g><path fill="#d9d9d9" d="M532.138 434.386a7.484 7.484 0 0 1 3.397 5.884c-.007 2.163-1.537 3.035-3.42 1.948a7.484 7.484 0 0 1-3.396-5.883c.006-2.164 1.536-3.036 3.419-1.949Z" class="colord9d9d9 svgShape"/><g style="isolation:isolate" fill="#000000" class="color000 svgShape"><path fill="#b56a00" d="M531.45 436.062a1.581 1.581 0 0 0-1.595-.158l-4.964 2.885a1.581 1.581 0 0 1 1.594.157 4.881 4.881 0 0 1 2.207 3.823 1.57 1.57 0 0 1-.652 1.437l4.964-2.884a1.57 1.57 0 0 0 .652-1.438 4.881 4.881 0 0 0-2.207-3.822Z" class="colorb59600 svgShape"/><path fill="#c77400" d="M526.485 438.947a4.881 4.881 0 0 1 2.207 3.822c-.004 1.42-1.004 1.99-2.221 1.287a4.893 4.893 0 0 1-2.225-3.854c.004-1.4 1.003-1.97 2.24-1.255Z" class="colorc79c00 svgShape"/></g><g style="isolation:isolate" fill="#000000" class="color000 svgShape"><path fill="#ffa30f" d="M526.265 436.907a2.85 2.85 0 0 0-2.875-.282l-2.037 1.183a2.85 2.85 0 0 1 2.876.283 8.873 8.873 0 0 1 4.027 6.975 2.829 2.829 0 0 1-1.178 2.592l2.036-1.183a2.828 2.828 0 0 0 1.178-2.593 8.873 8.873 0 0 0-4.027-6.975Z" class="coloredba00 svgShape"/><path fill="#f7960d" d="M524.229 438.09a8.873 8.873 0 0 1 4.027 6.976c-.007 2.565-1.821 3.599-4.054 2.31a8.873 8.873 0 0 1-4.027-6.975c.007-2.565 1.821-3.6 4.054-2.31Z" class="colorcfa200 svgShape"/></g><path fill="#4d4131" d="M533.498 452.83a1.011 1.011 0 0 0 .134-.54l.001-.323a2.487 2.487 0 0 0-.234-1 2.489 2.489 0 0 1-.235-1.001l.002-.595a1.486 1.486 0 0 0-.675-1.168.121.121 0 1 0-.205.111l-.001.595a1.048 1.048 0 0 1-.24.727 1.048 1.048 0 0 0-.239.727v.322a2.528 2.528 0 0 0 1.146 1.987 1.022 1.022 0 0 0 .546.157Z" class="color4d3f31 svgShape"/><path fill="#78746f" d="M533.498 452.829a1.022 1.022 0 0 1-.546-.157 2.528 2.528 0 0 1-1.147-1.987l.001-.322a1.048 1.048 0 0 1 .24-.727 1.048 1.048 0 0 0 .239-.727l.001-.595a.715.715 0 0 1 .025-.187.392.392 0 0 0-.301.028.474.474 0 0 0-.198.435l-.001.594a1.047 1.047 0 0 1-.24.727 1.048 1.048 0 0 0-.239.727v.323a2.528 2.528 0 0 0 1.146 1.986.812.812 0 0 0 .819.08.587.587 0 0 0 .2-.198Z" class="color6f7878 svgShape"/><path d="M494.262 590.59c28.953-.001 56.246-6.55 76.851-18.44l9.56-5.37-21.177-12.312-4.873 2.665c-16.065 9.27-37.522 14.376-60.416 14.376-23.129 0-44.798-5.194-61.017-14.623-15.347-8.923-23.788-20.48-23.768-32.543.019-12.035 8.466-23.532 23.784-32.371l7.052-4.071-21.176-12.311-2.366 1.365c-21.499 12.406-33.355 29.216-33.384 47.332-.03 18.15 11.81 35.037 33.336 47.552 20.798 12.091 48.355 18.75 77.588 18.75Z" style="mix-blend-mode:multiply" fill="#d9d9d9" class="colord9d9d9 svgShape"/><path fill="#5e564a" d="M390.7 512.09c-.043 14.977 9.797 29.98 29.52 41.446 39.371 22.89 103.22 23.02 142.611.288l-.026 9.355c-39.39 22.73-103.24 22.602-142.613-.288-19.722-11.466-29.561-26.47-29.519-41.445Z" class="color5e574a svgShape"/><path fill="#847868" d="m420.252 470.93 11.216 6.522c-33.193 19.155-33.205 50.32-.028 69.608s86.982 19.398 120.175.243l11.216 6.52c-39.39 22.732-103.24 22.603-142.612-.287s-39.357-59.874.033-82.605Z" class="color847868 svgShape"/><path fill="#6b6154" d="M406.59 503.512c-.036 12.62 8.255 25.262 24.875 34.925 33.177 19.289 86.981 19.397 120.174.242l-.024 8.624c-33.193 19.155-86.997 19.046-120.175-.243-16.62-9.662-24.91-22.304-24.875-34.924Z" class="color6b6254 svgShape"/><path fill="#8e8170" d="m431.492 468.828 11.584 6.734c-26.793 15.462-26.803 40.618-.023 56.187s70.21 15.658 97.003.196l11.583 6.734c-33.193 19.155-86.997 19.047-120.174-.242s-33.165-50.454.027-69.609Z" class="color8e8370 svgShape"/><path fill="#7d7263" d="M422.996 495.818c-.028 10.187 6.664 20.391 20.08 28.19 26.78 15.57 70.21 15.658 97.002.196l-.022 7.741c-26.793 15.462-70.222 15.374-97.003-.196-13.415-7.799-20.107-18.004-20.078-28.19Z" class="color7d7063 svgShape"/><path fill="#a39581" d="m443.098 467.822 48.49 28.191 48.49 28.191c-26.793 15.462-70.222 15.374-97.003-.195s-26.77-40.726.023-56.187Z" class="colora39581 svgShape"/><g style="isolation:isolate" fill="#000000" class="color000 svgShape"><path fill="#8c6c40" d="m239.108 370.77 5.384-3.129.576-221.209-5.384 3.129-.576 221.209z" class="color8c6c40 svgShape"/><path fill="#d4a96e" d="M235.048 147.4c2.159-.241 4.512 2.04 4.636 2.16l-.576 221.21c-.124-.12-2.477-2.402-4.636-2.16Z" class="colord4a86e svgShape"/><path fill="#ededed" d="m242.882 148.464-.577 203.235 100.544 58.049.577-203.234-100.544-58.05z" class="colorededed svgShape"/><path fill="#b58d55" d="M227.7 135.284c-.197 69.56-.401 159.51-.599 229.07l7.37 4.256c.186-65.327.378-151.044.577-221.21L339.8 207.88c-.199 70.165-.391 159.477-.576 224.804l7.37 4.255c.197-69.56.401-163.105.598-232.665L227.7 135.283Z" class="colorb58b55 svgShape"/><path fill="#8c6c40" d="m351.23 439.099 5.385-3.129.612-237.505-5.384 3.129-.613 237.505z" class="color8c6c40 svgShape"/><path fill="#ffbf66" d="m228.139 130.174 123.704 71.42c-.125.071-2.489 1.427-4.65 2.679L227.7 135.283c1.283-1.758.481-4.942.439-5.11Z" class="colorf5c78c svgShape"/><path fill="#d4a96e" d="M347.192 204.273c2.162-1.252 4.526-2.608 4.65-2.679l-.612 237.504c-.123-.12-2.477-2.402-4.636-2.16Z" class="colord4a86e svgShape"/><path fill="#d6a562" d="m351.843 201.594 5.384-3.129-123.704-71.42-5.384 3.129 123.704 71.42z" class="colord6a562 svgShape"/></g><path fill="#c5bfb7" d="m326.198 387.229.174-61.505-33.703-19.458-.174 61.505 33.703 19.458z" class="colorb7c5c5 svgShape"/><g style="isolation:isolate" fill="#000000" class="color000 svgShape"><path fill="#ffffff" d="m294.391 366.669 31.813 18.367-.006 2.193-33.703-19.459 1.896-1.101z" class="colorfff svgShape"/><path fill="#78746f" d="m292.669 306.266 1.89 1.091-.168 59.312-1.896 1.101.174-61.504z" class="color6f7878 svgShape"/></g><path fill="#c5bfb7" d="m284.413 363.106.174-61.505-33.702-19.458-.175 61.505 33.703 19.458z" class="colorb7c5c5 svgShape"/><g style="isolation:isolate" fill="#000000" class="color000 svgShape"><path fill="#ffffff" d="m252.606 342.546 31.813 18.367-.006 2.193-33.703-19.458 1.896-1.102z" class="colorfff svgShape"/><path fill="#78746f" d="m250.885 282.143 1.889 1.091-.168 59.312-1.896 1.102.175-61.505z" class="color6f7878 svgShape"/></g><g style="isolation:isolate" fill="#000000" class="color000 svgShape"><path fill="#c5bfb7" d="m292.857 240.056 33.703 19.458-.16 56.483-33.703-19.458.16-56.483z" class="colorb7c5c5 svgShape"/><path fill="#ffffff" d="m294.593 295.437 31.813 18.368-.006 2.192-33.703-19.458 1.896-1.102z" class="colorfff svgShape"/><path fill="#78746f" d="m292.857 240.056 1.89 1.09-.154 54.291-1.896 1.102.16-56.483z" class="color6f7878 svgShape"/></g><path fill="#c5bfb7" d="m326.587 249.79.102-36.071-33.702-19.458-.102 36.071 33.702 19.458z" class="colorb7c5c5 svgShape"/><g style="isolation:isolate" fill="#000000" class="color000 svgShape"><path fill="#78746f" d="m292.987 194.261 1.89 1.091-.096 33.878-1.896 1.102.102-36.071z" class="color6f7878 svgShape"/><path fill="#ffffff" d="m294.781 229.23 31.812 18.367-.006 2.193-33.702-19.458 1.896-1.102z" class="colorfff svgShape"/></g><path fill="#c5bfb7" d="m284.802 225.667.103-36.071-33.703-19.458-.102 36.071 33.702 19.458z" class="colorb7c5c5 svgShape"/><g style="isolation:isolate" fill="#000000" class="color000 svgShape"><path fill="#78746f" d="m251.202 170.138 1.89 1.091-.096 33.878-1.896 1.102.102-36.071z" class="color6f7878 svgShape"/><path fill="#ffffff" d="m252.996 205.107 31.813 18.368-.007 2.192-33.702-19.458 1.896-1.102z" class="colorfff svgShape"/></g><g style="isolation:isolate" fill="#000000" class="color000 svgShape"><path fill="#c5bfb7" d="m251.072 215.933 33.703 19.458-.16 56.483-33.703-19.458.16-56.483z" class="colorb7c5c5 svgShape"/><path fill="#ffffff" d="m252.808 271.315 31.813 18.367-.006 2.192-33.703-19.458 1.896-1.101z" class="colorfff svgShape"/><path fill="#78746f" d="m251.072 215.933 1.89 1.091-.154 54.291-1.896 1.101.16-56.483z" class="color6f7878 svgShape"/></g><path fill="#d9d9d9" d="M331.31 317.277a7.484 7.484 0 0 1 3.397 5.884c-.006 2.163-1.536 3.035-3.419 1.948a7.484 7.484 0 0 1-3.397-5.884c.006-2.163 1.536-3.035 3.42-1.948Z" class="colord9d9d9 svgShape"/><g style="isolation:isolate" fill="#000000" class="color000 svgShape"><path fill="#b56a00" d="M330.622 318.952a1.581 1.581 0 0 0-1.594-.157l-4.964 2.885a1.58 1.58 0 0 1 1.594.157 4.881 4.881 0 0 1 2.206 3.822 1.57 1.57 0 0 1-.652 1.438l4.964-2.885a1.57 1.57 0 0 0 .653-1.438 4.882 4.882 0 0 0-2.207-3.822Z" class="colorb59600 svgShape"/><path fill="#c77400" d="M325.658 321.837a4.881 4.881 0 0 1 2.206 3.823c-.004 1.42-1.003 1.99-2.22 1.286a4.892 4.892 0 0 1-2.226-3.853c.004-1.4 1.004-1.97 2.24-1.256Z" class="colorc79c00 svgShape"/></g><g style="isolation:isolate" fill="#000000" class="color000 svgShape"><path fill="#ffa30f" d="M325.438 319.798a2.85 2.85 0 0 0-2.876-.282l-2.036 1.183a2.85 2.85 0 0 1 2.875.282 8.873 8.873 0 0 1 4.027 6.976 2.829 2.829 0 0 1-1.178 2.592l2.037-1.184a2.828 2.828 0 0 0 1.178-2.592 8.873 8.873 0 0 0-4.027-6.975Z" class="coloredba00 svgShape"/><path fill="#f7960d" d="M323.401 320.981a8.873 8.873 0 0 1 4.027 6.976c-.007 2.565-1.82 3.599-4.053 2.31a8.873 8.873 0 0 1-4.027-6.976c.007-2.565 1.82-3.598 4.053-2.31Z" class="colorcfa200 svgShape"/></g><path fill="#4d4131" d="M332.67 335.72a1.012 1.012 0 0 0 .135-.54v-.322a2.486 2.486 0 0 0-.233-1 2.487 2.487 0 0 1-.235-1.001l.002-.595a1.486 1.486 0 0 0-.675-1.169.724.724 0 0 0-.18-.075.716.716 0 0 0-.025.187l-.002.595a1.048 1.048 0 0 1-.24.726 1.047 1.047 0 0 0-.238.727l-.001.323a2.528 2.528 0 0 0 1.147 1.987 1.023 1.023 0 0 0 .545.157Z" class="color4d3f31 svgShape"/><path fill="#78746f" d="M332.67 335.72a1.022 1.022 0 0 1-.545-.157 2.528 2.528 0 0 1-1.147-1.987v-.322a1.047 1.047 0 0 1 .24-.728 1.048 1.048 0 0 0 .24-.726l.001-.595a.715.715 0 0 1 .024-.187.392.392 0 0 0-.3.028.474.474 0 0 0-.198.434l-.002.595a1.047 1.047 0 0 1-.24.727 1.048 1.048 0 0 0-.239.727v.323a2.528 2.528 0 0 0 1.146 1.986.812.812 0 0 0 .82.08.587.587 0 0 0 .2-.198Z" class="color6f7878 svgShape"/><path d="M293.434 473.48c28.953 0 56.246-6.55 76.852-18.44l9.56-5.37-21.177-12.311-4.873 2.664c-16.066 9.272-37.522 14.377-60.417 14.377-23.128 0-44.798-5.194-61.017-14.624-15.346-8.922-23.787-20.479-23.768-32.542.02-12.035 8.466-23.532 23.784-32.371l7.053-4.071-21.176-12.312-2.367 1.366c-21.498 12.406-33.354 29.216-33.384 47.332-.029 18.149 11.81 35.037 33.337 47.552 20.797 12.09 48.354 18.75 77.587 18.75Z" style="mix-blend-mode:multiply" fill="#d9d9d9" class="colord9d9d9 svgShape"/><path fill="#5e564a" d="M189.872 394.982c-.042 14.976 9.797 29.978 29.52 41.445 39.372 22.89 103.221 23.019 142.612.287l-.027 9.355c-39.39 22.732-103.24 22.603-142.612-.287-19.723-11.467-29.562-26.47-29.52-41.445Z" class="color5e574a svgShape"/><path fill="#847868" d="m219.424 353.822 11.217 6.52c-33.193 19.155-33.206 50.32-.028 69.61s86.981 19.397 120.174.242l11.217 6.52c-39.39 22.732-103.24 22.603-142.613-.287s-39.357-59.874.033-82.606Z" class="color847868 svgShape"/><path fill="#6b6154" d="M205.762 386.403c-.036 12.62 8.256 25.262 24.875 34.925 33.178 19.288 86.982 19.397 120.175.242l-.025 8.624c-33.193 19.155-86.997 19.046-120.174-.243-16.62-9.662-24.91-22.304-24.875-34.924Z" class="color6b6254 svgShape"/><path fill="#8e8170" d="m230.665 351.719 11.583 6.734c-26.793 15.462-26.803 40.617-.022 56.187s70.21 15.657 97.003.196l11.583 6.734c-33.193 19.155-86.997 19.046-120.175-.242s-33.165-50.454.028-69.61Z" class="color8e8370 svgShape"/><path fill="#7d7263" d="M222.169 378.709c-.029 10.187 6.664 20.391 20.079 28.19 26.78 15.57 70.21 15.658 97.003.196l-.022 7.74c-26.793 15.462-70.223 15.375-97.003-.195-13.415-7.8-20.108-18.004-20.079-28.19Z" class="color7d7063 svgShape"/><path fill="#a39581" d="m242.27 350.712 48.49 28.192 48.49 28.191c-26.792 15.462-70.222 15.374-97.002-.196s-26.77-40.725.022-56.187Z" class="colora39581 svgShape"/><path d="m162.647 711.617-11.179-6.496-43.296 25.656 11.178 6.497 43.297-25.657z" style="mix-blend-mode:multiply" fill="#d9d9d9" class="colord9d9d9 svgShape"/><g style="isolation:isolate" fill="#000000" class="color000 svgShape"><path fill="#b98741" d="m158.047 686.678-7.217-4.194.003 1.18 7.217 4.194-.003-1.18z" class="colorb97f41 svgShape"/><path fill="#d09849" d="m158.05 687.858-7.217-4.194-39.355 23.321 7.217 4.194 39.355-23.321z" class="colord08f49 svgShape"/><path fill="#a87b3b" d="m118.695 711.179-7.217-4.194.064 22.349 7.216 4.194-.063-22.349z" class="colora8733b svgShape"/><path fill="#636363" d="m118.692 709.999-7.217-4.194.003 1.18 7.217 4.194-.003-1.18z" class="color636363 svgShape"/><path fill="#976e35" d="m158.047 686.678-7.217-4.194-39.355 23.321 7.217 4.194 39.355-23.321z" class="color976835 svgShape"/><path fill="#1f1f1f" d="m118.692 709.999.003 1.18 39.355-23.321-.003-1.18-39.355 23.321z" class="color1f1f1f svgShape"/><path fill="#a87b3b" d="m118.669 701.826-7.217-4.194.023 8.173 7.217 4.194-.023-8.173z" class="colora8733b svgShape"/><path fill="#4f391a" d="m118.669 701.826.023 8.173 39.355-23.321.003 1.18-39.355 23.321.063 22.349 39.356-23.321-.064-22.349-.003-1.18-.023-8.173-39.355 23.321z" class="color4f361a svgShape"/><path fill="#d69c4b" d="m158.024 678.505-7.217-4.194-39.355 23.321 7.217 4.194 39.355-23.321z" class="colord6934b svgShape"/></g><path fill="#d9d9d9" d="m138.803 684.707-9.892 5.715 2.404 1.291 9.888-5.717-2.4-1.289z" class="colord9d9d9 svgShape"/><g style="isolation:isolate" fill="#000000" class="color000 svgShape"><path fill="#c5c5c5" d="m140.482 684.324-1.804-1.049.005 1.668 1.804 1.048-.005-1.667z" class="colorc5c5c5 svgShape"/><path fill="#dcdcdc" d="m140.487 685.991-1.804-1.048-1.589.917 1.804 1.049 1.589-.918z" class="colordcdcdc svgShape"/><path fill="#9f9f9f" d="m140.482 684.324-1.804-1.049-1.589.917 1.805 1.049 1.588-.917z" class="color9f9f9f svgShape"/><path fill="#c48b3c" d="m138.894 685.241-1.805-1.049.005 1.668 1.804 1.049-.004-1.668z" class="colorc4bd3c svgShape"/><path fill="#6e460d" d="m138.894 685.241.004 1.668 1.589-.918-.005-1.667-1.588.917z" class="color6e6a0d svgShape"/><path fill="#7d7d7d" d="m138.886 682.687-1.804-1.049.007 2.554 1.805 1.049-.008-2.554z" class="color7d7d7d svgShape"/><path fill="#c5c5c5" d="m132.784 688.768-1.804-1.048.005 1.667 1.804 1.049-.005-1.668z" class="colorc5c5c5 svgShape"/><path fill="#dcdcdc" d="m132.789 690.436-1.804-1.049-1.586.916 1.805 1.048 1.585-.915z" class="colordcdcdc svgShape"/><path fill="#9f9f9f" d="m132.784 688.768-1.804-1.048-1.585.915 1.804 1.048 1.585-.915z" class="color9f9f9f svgShape"/><path fill="#6e460d" d="m131.199 689.683.005 1.668 1.585-.915-.005-1.668-1.585.915z" class="color6e6a0d svgShape"/><path fill="#c48b3c" d="m131.199 689.683-1.804-1.048.004 1.668 1.805 1.048-.005-1.668z" class="colorc4bd3c svgShape"/><path fill="#7d7d7d" d="m131.187 685.488-1.804-1.049.012 4.196 1.804 1.048-.012-4.195z" class="color7d7d7d svgShape"/><path fill="#ababab" d="m140.47 680.128-1.804-1.048-9.283 5.359 1.804 1.049 9.283-5.36z" class="colorababab svgShape"/><path fill="#2e2e2e" d="m131.187 685.488.012 4.195 1.585-.915.005 1.668-1.585.915 1.585-.915-.012-4.222 6.109-3.527.008 2.554 1.588-.917.005 1.667-1.589.918 1.589-.918-.017-5.863-9.283 5.36z" class="color2e2e2e svgShape"/></g><g style="isolation:isolate" fill="#000000" class="color000 svgShape"><g style="isolation:isolate" fill="#000000" class="color000 svgShape"><path fill="#c48b3c" d="m138.411 697.603.008 2.596a1.14 1.14 0 0 0 .475 1.044l-.361-.21a1.14 1.14 0 0 1-.475-1.044l-.007-2.595Z" class="colorc4bd3c svgShape"/><path fill="#c48b3c" d="m138.411 697.603-.36-.21.007 2.596v.005l.36.21v-.005l-.007-2.596Z" class="colorc4bd3c svgShape"/></g><path fill="#ffb650" d="m143.727 694.535-.361-.21-5.315 3.069.36.209 5.316-3.068z" class="colorfff750 svgShape"/><path fill="#6e460d" d="m138.411 697.603.008 2.596c.003 1.033.734 1.45 1.633.93l2.063-1.19a3.57 3.57 0 0 0 1.619-2.809l-.007-2.595Z" class="color6e6a0d svgShape"/></g><path fill="#2e2e2e" d="M141.23 697.942a.995.995 0 0 0-.452.785c0 .285.204.4.455.256a.994.994 0 0 0 .453-.781c0-.29-.204-.405-.456-.26Z" class="color2e2e2e svgShape"/><path fill="#ffb650" d="m121.36 700.272-2.691 1.554-2.54-1.476a7.283 7.283 0 0 1 5.231-.078Z" class="colorfff750 svgShape"/><path fill="#c48b3c" d="m116.129 700.35 2.54 1.476.007 2.776a11.184 11.184 0 0 1-2.547-4.252ZM114.026 730.808l-2.54-1.476-.008-2.777a11.182 11.182 0 0 1 2.548 4.253Z" class="colorc4bd3c svgShape"/><path fill="#6e460d" d="m118.676 704.602-.007-2.776 2.691-1.554a8.47 8.47 0 0 1-2.684 4.33ZM158.106 707.15l.008 2.776-2.692 1.554a8.471 8.471 0 0 1 2.684-4.33Z" class="color6e6a0d svgShape"/><path fill="#ffb650" d="m114.008 699.117-2.556-1.485 2.547-1.47a4.378 4.378 0 0 1 .009 2.955Z" class="colorfff750 svgShape"/><path fill="#c48b3c" d="m111.46 700.592-.008-2.96 2.556 1.485a3.862 3.862 0 0 1-2.548 1.475ZM118.75 730.568l.008 2.96-2.556-1.486a3.862 3.862 0 0 1 2.548-1.474Z" class="colorc4bd3c svgShape"/><path fill="#ffb650" d="m148.222 675.803 2.585-1.492 2.502 1.454a7.412 7.412 0 0 1-5.087.038ZM155.534 677.058l2.49 1.447-2.625 1.516a4.273 4.273 0 0 1 .135-2.963Z" class="colorfff750 svgShape"/><path fill="#6e460d" d="m155.399 680.02 2.625-1.515.009 3.094a4.6 4.6 0 0 1-2.634-1.578ZM121.375 732.012l-2.626 1.516-.01-2.959a4.398 4.398 0 0 1 2.636 1.443Z" class="color6e6a0d svgShape"/><ellipse cx="199.897" cy="745.14" rx="28.608" ry="44.364" transform="rotate(-85.297 199.897 745.14)" style="mix-blend-mode:multiply" fill="#d9d9d9" class="colord9d9d9 svgShape"/><path fill="#594932" d="M175.831 743.263a10.223 10.223 0 0 1 .313 1.703c-3.607 2.907-8.09 5.133-11.596 4.158-3.039-.846-3.495-3.414-2.945-5.892Z" class="color594432 svgShape"/><path fill="#594932" d="M164.356 748.523c4.405 1.226 11.384-4.514 14.718-7.527 3.224-2.915 6.344-4.078 8.12-6.372a7.596 7.596 0 0 0 1.136-6.618c-1.42-6.43-7.817-.91-15.91 4.955-5.199 3.766-8.618 4.092-10.24 7.198-1.347 2.58-1.82 7.253 2.176 8.364Z" class="color594432 svgShape"/><path fill="#211b13" d="M164.333 747.068c4.405 1.226 10.738-3.893 14.226-6.84 3.32-2.806 6.667-4.557 8.444-6.85a6.682 6.682 0 0 0 1.253-6.154c-1.42-6.43-8.076-1.21-16.17 4.654-5.198 3.766-8.618 4.091-10.239 7.197-1.347 2.581-1.51 6.881 2.486 7.993Z" class="color211913 svgShape"/><path fill="#424242" d="M176.491 736.256c-1.684 9.062-14.147 11.166-15.605 4.459-.185-.852 1.617-77.17 1.617-77.17l24.75-2.75s-10.192 72.395-10.762 75.461Z" class="color424242 svgShape"/><path d="m298.978 795.946-11.136-6.423-40.632 23.339 11.136 6.423 40.632-23.339z" style="mix-blend-mode:multiply" fill="#d9d9d9" class="colord9d9d9 svgShape"/><path fill="#6b4713" d="m271.598 802.505-7.56-4.394.019 6.603 7.56 4.393-.019-6.602z" class="color6b5513 svgShape"/><path fill="#7a5014" d="m266.419 797.778-7.56-4.394.022 7.705 7.56 4.393-.022-7.704z" class="color7a6114 svgShape"/><path fill="#d48d29" d="m262.263 780.956-7.561-4.393.024 8.432 7.56 4.394-.023-8.433z" class="colord4a629 svgShape"/><path fill="#ffac38" d="m271.522 775.61-7.56-4.393-9.26 5.346 7.561 4.393 9.259-5.346z" class="colorffc938 svgShape"/><path fill="#d48d29" d="m254.715 793.76-7.56-4.394.031 10.758 7.56 4.394-.031-10.758z" class="colord4a629 svgShape"/><path fill="#ffac38" d="m262.286 789.389-7.56-4.394-7.571 4.371 7.56 4.394 7.571-4.371z" class="colorffc938 svgShape"/><path fill="#d48d29" d="m271.218 668.422-7.56-4.394.304 107.189 7.56 4.393-.304-107.188z" class="colord4a629 svgShape"/><path fill="#faad31" d="m257.128 656.972 22.888-13.215a15.45 15.45 0 0 0 7-12.125l-.036-12.831c-.006-2.209-.789-3.765-2.05-4.497l7.56 4.393c1.261.733 2.044 2.289 2.05 4.497l.037 12.832a15.45 15.45 0 0 1-7 12.125l-22.889 13.214c-1.949 1.125-3.717 1.228-4.995.486l-7.56-4.394c1.277.743 3.046.64 4.995-.485Z" class="colorfac431 svgShape"/><path fill="#9c6619" d="M264.575 621.588c-9.06 5.232-16.406 17.954-16.376 28.362l.036 12.83c.03 10.412 7.426 14.624 16.484 9.394l6.5-3.752.303 107.188-9.26 5.346.024 8.433-7.57 4.37.03 10.759 11.673-6.74.022 7.704 5.157-2.977.019 6.602 9.893-5.711-.399-140.686 6.496-3.75c9.06-5.231 16.406-17.954 16.376-28.365l-.036-12.832c-.03-10.407-7.423-14.62-16.483-9.39Zm-6.933 35.762-.036-12.832a15.449 15.449 0 0 1 7-12.12l22.888-13.215c3.873-2.236 7.034-.435 7.046 4.011l.037 12.832a15.45 15.45 0 0 1-7 12.125l-22.889 13.214c-3.873 2.236-7.033.435-7.046-4.015Z" class="color9c7b19 svgShape"/><path fill="#faad31" d="m257.015 617.195 22.888-13.215c4.56-2.632 8.698-2.873 11.687-1.136l7.56 4.393c-2.989-1.737-7.126-1.496-11.686 1.137l-22.889 13.214c-9.06 5.231-16.406 17.954-16.376 28.361l.036 12.832c.015 5.172 1.847 8.813 4.798 10.528l-7.56-4.393c-2.95-1.715-4.783-5.357-4.798-10.529l-.036-12.831c-.03-10.408 7.315-23.13 16.376-28.361Z" class="colorfac431 svgShape"/><path fill="#636363" d="M137.968 613.844c3.265-7.558 18.337-27.805 23.127-32.009 2.911-2.554 7.53-3 11.342-1.24 5.027 2.32 3.728 10.802.083 14.97 0 0-11.25 14.866-18.007 21.236-2.803 2.644-19.152 3.077-16.545-2.957Z" class="color636363 svgShape"/><path fill="#404040" d="M162.54 636.794c1.007 3.024 1.674 5.147 1.674 5.147-.715 4.177-7.764 7.26-10.961 5.603 0 0-2.344-4.685-5.625-10.625Z" class="color404040 svgShape"/><path fill="#c9c9c9" d="M163.87 638.982a325.52 325.52 0 0 1 1.45 4.463c-.607 2.74-6.569 6.301-10.069 5.147 0 0-2.546-4.277-5.499-9.61Z" class="colorc9c9c9 svgShape"/><path fill="#f0d4ad" d="M156.883 643.106h6.946v8.92h-6.946z" transform="rotate(151.628 160.356 647.566)" class="colorf0c7ad svgShape"/><path fill="#ffffff" d="M163.529 637.961a337.95 337.95 0 0 1 1.791 5.484c-2.228-.81-9.214.506-10.069 5.147 0 0-2.878-4.834-6.061-10.631Z" class="colorfff svgShape"/><path fill="#6e6e6e" d="M137.662 615.038c1.188-2.646 14.937-.705 16.85 1.747 3.003 3.85 9.702 25.156 9.702 25.156-2.425-.882-10.03.551-10.961 5.603 0 0-17.21-28.9-15.591-32.506Z" class="color6e6e6e svgShape"/><path fill="#f0d4ad" d="M176.554 581.79c-.72-1.136 2.03-7.05 1.868-8.542-.698-6.424-5.56-11.291-5.3-19.613.454-14.476 2.598-16.566 12.164-16.266 8.072.253 17.912 5.297 16.832 16.537-.66 6.862-.627 17.368-3.188 21.8-1.013 1.753-5.305-.473-6.34.484-.834.771-6.126 4.458-6.717 6.13Z" class="colorf0c7ad svgShape"/><path fill="#d9bf9c" d="M193.972 575.966c-1.562.307-5.427 7.094-5.717 7.811l-11.7-2.18c-.839-1.14.223-6.913.028-8.407-.84-6.428 6.757-9.354 10.482-8.461-1.682 7.226 4.273 11.061 6.907 11.237Z" class="colord9b49c svgShape"/><path fill="#ffffff" d="M176.743 573.222c4.231-.477 12.439 5.965 15.654 8.758 2.601 2.26 4.372 13.83 4.372 13.83s-1.586-3.622-2.7-4.102c-1.953-.842-2.314-3.226-3.844-5.413-2.855-4.082-17.7-6.872-17.7-6.872s2.72-6.032 4.218-6.2Z" class="colorfff svgShape"/><path fill="#594932" d="M216.772 760.05c-1.225 1.1-10.972 4.506-13.735-.164a8.249 8.249 0 0 1-.26-2.976l14.326.633Z" class="color594432 svgShape"/><path fill="#594932" d="M203.869 758.948c2.743 3.379 7.144 1.22 13.976-.073 7.77-1.472 11.225-1.008 15.936-5.11 3.035-2.642 5.069-8.575 2.16-8.569-6.205.014-7.606 2.12-17.16 4.401-6.245 1.491-10.1-.405-13.2 1.226-2.423 1.275-3.97 5.345-1.712 8.125Z" class="color594432 svgShape"/><path fill="#211b13" d="M204.508 759.103c4.03 2.16 7.635.242 14.054-1.325 7.763-1.895 9.462-1.53 14.633-5.035 3.562-2.415 6.367-8.197 2.443-8.324-6.203-.202-7.407.584-16.961 2.865-6.244 1.49-11.705.962-14.174 3.448-2.052 2.066-2.87 6.83.005 8.37Z" class="color211913 svgShape"/><path fill="#525252" d="M220.205 749.663c.186 7.002-13.208 10.917-17.205 5.337-.605-.845-10.848-46.21-10.848-46.21L172.3 666.434l25.007-9.887s15.865 38.59 17.34 45.964c1.333 6.667 5.52 45.714 5.558 47.153Z" class="color525252 svgShape"/><path fill="#4a4a4a" d="M164.64 580.95c-16.481 10.81-5.39 75.903-5.074 80.3 1.354 2.987 3.17 6.64 10.34 9.46 13.374 5.26 32.358 3.895 35.367-.651.293-7.51-2.735-55.176-2.735-55.176.255-8.036-.304-18.239-7.137-22.475-1.875-1.162-3.204-3.57-5.98-5.29-4.137-2.565-5.712-4.152-8.506-5.885-5.56-3.446-12.578-2.708-16.276-.284Z" class="color4a4a4a svgShape"/><path fill="#6e6e6e" d="M174.714 575.597c4.231-.477 12.999 5.677 16.214 8.47 2.601 2.26 9.166 9.352 8.76 13.41-2.193-2.968-13.491-11.15-16.435-11.878a21.727 21.727 0 0 1-10.63-5.939c-.34-.365-.463-.854-.029-1.099.586-.33 1.36-2.878 2.12-2.964Z" class="color6e6e6e svgShape"/><path fill="#4d3e29" d="M173.14 562.479c-1.002 2.291.32 5.58 2.395 8.463 1.144 1.589 1.269 2.883 4.729 2.537 1.71-.17 8.088-7.147 8.172-9.901.058-1.884 1.188-6.33 4.056-7.375 2.38-.866.265 9.649.265 9.649l1.809-.416c1.031-4.097 4.462-15.738 7.327-11.733.303.424 1.354-1.202 1.705-2.865 3.977-1.402 1.122-4.837-.453-5.831.272-2.638-1.72-5.441-2.962-5.008-1.037-.798-3.803-2.293-5.246-1.487-1.42-2.974-7.27-3.252-8.566-1.12-1.702-.841-6.358-1.674-8.335.59-2.231-.694-5.376 2.917-4.465 5.772-2.265.819-2.466 4.569-1.426 5.995-1.43 1.54-1.416 5.23.236 7.286a4.052 4.052 0 0 0 .758 5.444Z" class="color4d3929 svgShape"/><path d="m273.017 607.956-16.002 9.239a33.094 33.094 0 0 0-11.144 11.502c9.766-2.474 20.118-5.602 20.118-5.602a6.148 6.148 0 0 0 .326-1.322l1.562-.6a5.256 5.256 0 0 0 .284-.757 5.978 5.978 0 0 0 2.497-.549 14.336 14.336 0 0 1 9.767-2.4c2.782.207-1.085-5.957-1.675-6.679a8.229 8.229 0 0 0-5.733-2.832Z" style="mix-blend-mode:multiply" fill="#cccccc" class="colorccc svgShape"/><path fill="#f0d4ad" d="M259.114 608.92c1.005-.123 2.798-.016 4.008-.584 1.797-.844 6.02-2.251 8.972-1.893 2.675.325 5.934 1.163 7.688 4.154.472.804 3.344 7.49.627 6.857a14.336 14.336 0 0 0-10.02.868c-1.753.758-6.271-.885-9.522.558-1.616.717-2.511-1.149-4.637-1.213-2.319-.053-1.118-8.256 2.884-8.747Z" class="colorf0c7ad svgShape"/><path fill="#ffffff" d="M264.167 607.382c4.366 1.975 5.433 8.631 3.273 11.802l-3.385.73-3.403-11.665Z" class="colorfff svgShape"/><path fill="#6e6e6e" d="M261.432 607.09c3.916 1.512 6.14 9.742 3.847 13.702 0 0-28.018 3.916-35.856 3.062-4.521-.492-16.914-1.996-27.197-4.885a16.444 16.444 0 0 1-12.15-14.9c-.345-5.526 4.183-8.88 9.378-6.965 7.946 2.928 30.615 10.786 30.615 10.786Z" class="color6e6e6e svgShape"/><g style="isolation:isolate" fill="#000000" class="color000 svgShape"><path fill="#d49740" d="m481.439 201.547 26.425-15.357 20.608 11.898-26.425 15.357-20.608-11.898z" class="colord45640 svgShape"/><path fill="#c78a34" d="m502.047 213.445 26.425-15.357-.071 25.188-26.425 15.357.071-25.188z" class="colorc74d34 svgShape"/><path fill="#ffb041" d="m482.088 226.735.071-25.188 20.608 11.898-.071 25.188-20.608-11.898z" class="colorff6441 svgShape"/></g><g style="isolation:isolate" fill="#000000" class="color000 svgShape"><path fill="#ba8437" d="M502.414 164.794a4.666 4.666 0 0 0-2.027 2.15c-.653 1.478-1.013 14.655-1.087 20.803l26.425-15.357c.074-6.147.434-19.324 1.087-20.802a4.667 4.667 0 0 1 2.026-2.15Z" class="colorba4c37 svgShape"/><path fill="#c78d3c" d="M521.703 125.077a41.879 41.879 0 0 0-8.311 3.367l-26.425 15.357a41.874 41.874 0 0 1 8.31-3.367 23.031 23.031 0 0 0 4.884-2.079L526.586 123a23.024 23.024 0 0 1-4.883 2.078Z" class="colorc7513c svgShape"/><path fill="#996d2e" d="M476.886 92.31q-6.16 3.579-7.966 18.166l26.424-15.357q1.808-14.588 7.967-18.166Z" class="color993d2e svgShape"/><path fill="#d39236" d="M546.754 86.295a78.3 78.3 0 0 0-27.68-27.43q-16.828-9.716-28.92-4.437a18.826 18.826 0 0 0-1.935.978l-26.425 15.357a18.817 18.817 0 0 1 1.935-.979q12.088-5.286 28.92 4.437a78.301 78.301 0 0 1 27.68 27.43q10.928 17.763 10.88 34.793a30.968 30.968 0 0 1-3.067 14.33q-2.843 5.47-6.402 7.538l26.424-15.356q3.564-2.07 6.403-7.538a30.967 30.967 0 0 0 3.067-14.33q.048-17.02-10.88-34.793Z" class="colord35336 svgShape"/><path fill="#ffb041" d="M520.33 101.651q10.927 17.763 10.879 34.793a30.967 30.967 0 0 1-3.067 14.33q-3.047 5.863-6.919 7.819-3.864 1.95-16.348 5.245-3.52.89-4.488 3.106c-.653 1.478-1.013 14.655-1.087 20.803l-17.1-9.873.038-22.965q.02-6.856 2.437-9.4 2.429-2.527 10.603-5.075 12.486-3.798 12.516-16.092a33.823 33.823 0 0 0-4.826-17.527 34.708 34.708 0 0 0-12.654-12.75q-18.069-10.432-21.394 16.41l-19.099-14.96q1.811-20.45 13.908-25.731 12.088-5.286 28.92 4.437a78.302 78.302 0 0 1 27.68 27.43Z" class="colorff6441 svgShape"/></g></g></svg>