<svg xmlns="http://www.w3.org/2000/svg" enable-background="new 0 0 300 300" viewBox="0 0 300 300"><path fill="#ead6bb" d="M233.588 185.17c0 .216-.447.41-1.351.5h-2.298c-.903-.09-1.35-.284-1.35-.505 0-.22.447-.41 1.35-.505h2.298c.904.095 1.351.284 1.351.51zM243.588 185.17c0 .216-.447.41-1.351.5h-2.298c-.903-.09-1.35-.284-1.35-.505 0-.22.447-.41 1.35-.505h2.298c.904.095 1.351.284 1.351.51zM253.588 185.17c0 .216-.447.41-1.351.5h-2.298c-.903-.09-1.35-.284-1.35-.505 0-.22.447-.41 1.35-.505h2.298c.904.095 1.351.284 1.351.51zM262.368 183.94c.103 0 .2.1.284.304.042.102.08.23.115.383.034.221.063.612.087 1.029l-.238.014h-2.677c-.903-.09-1.35-.284-1.35-.505 0-.22.447-.41 1.35-.505h1.92l.013.015c.025.007.055.039.09-.048.033-.153.072-.28.115-.383.084-.203.183-.305.291-.305zM262.368 173.94c.215 0 .41.446.5 1.35v2.299c-.09.903-.285 1.35-.505 1.35s-.41-.447-.505-1.35v-2.298c.095-.905.284-1.352.51-1.352zM262.368 163.94c.215 0 .41.446.5 1.35v2.299c-.09.903-.285 1.35-.505 1.35s-.41-.447-.505-1.35v-2.298c.095-.905.284-1.352.51-1.352zM262.368 153.94c.215 0 .41.446.5 1.35v2.299c-.09.903-.285 1.35-.505 1.35s-.41-.447-.505-1.35v-2.298c.095-.905.284-1.352.51-1.352zM262.368 143.94c.215 0 .41.446.5 1.35v2.299c-.09.903-.285 1.35-.505 1.35s-.41-.447-.505-1.35v-2.298c.095-.905.284-1.352.51-1.352zM262.368 133.94c.215 0 .41.446.5 1.35v2.299c-.09.903-.285 1.35-.505 1.35s-.41-.447-.505-1.35v-2.298c.095-.905.284-1.352.51-1.352zM262.368 123.94c.215 0 .41.446.5 1.35v2.299c-.09.903-.285 1.35-.505 1.35s-.41-.447-.505-1.35v-2.298c.095-.905.284-1.352.51-1.352zM262.368 113.94c.215 0 .41.446.5 1.35v2.299c-.09.903-.285 1.35-.505 1.35s-.41-.447-.505-1.35v-2.298c.095-.905.284-1.352.51-1.352zM262.368 103.94c.215 0 .41.446.5 1.35v2.299c-.09.903-.285 1.35-.505 1.35s-.41-.447-.505-1.35v-2.298c.095-.905.284-1.352.51-1.352z" class="colorbbcaea svgShape"/><path fill="#46413a" d="M230.6 74.793v163.331c0 7.115-5.78 12.895-12.907 12.895h-88.707c-7.127 0-12.906-5.78-12.906-12.895V74.781c0-10.064 8.158-18.222 18.222-18.222h78.063c10.07 0 18.235 8.164 18.235 18.234z" class="color3a4146 svgShape"/><path fill="#ffffff" d="M128.986 248.036c-5.472 0-9.924-4.446-9.924-9.912V74.781c0-8.403 6.837-15.24 15.24-15.24h78.063c8.41 0 15.252 6.842 15.252 15.252v163.331c0 5.466-4.453 9.912-9.924 9.912h-88.707z" class="colorfff svgShape"/><circle cx="160.446" cy="66.925" r="1.882" fill="#46413a" class="color3a4146 svgShape"/><path fill="#46413a" d="M186.4 66.925a1.32 1.32 0 0 1-1.313 1.313h-18.352a1.312 1.312 0 0 1-1.313-1.313c0-.732.58-1.312 1.313-1.312h18.352c.719 0 1.312.58 1.312 1.312z" class="color3a4146 svgShape"/><path fill="#fdf9f3" d="M219.95 86.69v44.24a4.187 4.187 0 0 1-4.19 4.189h-84.978a4.18 4.18 0 0 1-4.18-4.189V86.69a4.171 4.171 0 0 1 4.18-4.178h84.979a4.18 4.18 0 0 1 4.188 4.179zM146.366 145.872V156.2a2.753 2.753 0 0 1-2.756 2.756h-14.255a2.753 2.753 0 0 1-2.756-2.756v-10.327a2.753 2.753 0 0 1 2.756-2.756h14.255a2.753 2.753 0 0 1 2.756 2.756zM170.923 145.869v10.327a2.753 2.753 0 0 1-2.756 2.756h-14.255a2.753 2.753 0 0 1-2.756-2.756v-10.327a2.753 2.753 0 0 1 2.756-2.756h14.255a2.753 2.753 0 0 1 2.756 2.756z" class="colorf3f6fd svgShape"/><path fill="#bbac98" d="M195.42 145.872V156.2a2.753 2.753 0 0 1-2.757 2.756H178.41a2.753 2.753 0 0 1-2.757-2.756v-10.327a2.753 2.753 0 0 1 2.757-2.756h14.254a2.753 2.753 0 0 1 2.756 2.756z" class="colora698bb svgShape"/><path fill="#ffbe64" d="M219.946 145.872V156.2a2.753 2.753 0 0 1-2.756 2.756h-14.255a2.753 2.753 0 0 1-2.756-2.756v-10.327a2.753 2.753 0 0 1 2.756-2.756h14.255a2.753 2.753 0 0 1 2.756 2.756z" class="color64d3ff svgShape"/><path fill="#fdf9f3" d="M146.366 166.472v10.327a2.753 2.753 0 0 1-2.756 2.756h-14.255a2.753 2.753 0 0 1-2.756-2.756v-10.327a2.753 2.753 0 0 1 2.756-2.757h14.255a2.753 2.753 0 0 1 2.756 2.757zM170.893 166.472v10.327a2.753 2.753 0 0 1-2.757 2.756h-14.254a2.753 2.753 0 0 1-2.756-2.756v-10.327a2.753 2.753 0 0 1 2.756-2.757h14.254a2.753 2.753 0 0 1 2.757 2.757zM195.42 166.472v10.327a2.753 2.753 0 0 1-2.757 2.756H178.41a2.753 2.753 0 0 1-2.757-2.756v-10.327a2.753 2.753 0 0 1 2.757-2.757h14.254a2.753 2.753 0 0 1 2.756 2.757z" class="colorf3f6fd svgShape"/><path fill="#d1ad7c" d="M219.946 166.366v10.327a2.753 2.753 0 0 1-2.756 2.756h-14.255a2.753 2.753 0 0 1-2.756-2.756v-10.327a2.753 2.753 0 0 1 2.756-2.757h14.255a2.753 2.753 0 0 1 2.756 2.757z" class="color7cd194 svgShape"/><path fill="#fdf9f3" d="M146.366 187.07v10.328a2.753 2.753 0 0 1-2.756 2.756h-14.255a2.753 2.753 0 0 1-2.756-2.756V187.07a2.753 2.753 0 0 1 2.756-2.756h14.255a2.753 2.753 0 0 1 2.756 2.756zM170.893 187.07v10.328a2.753 2.753 0 0 1-2.757 2.756h-14.254a2.753 2.753 0 0 1-2.756-2.756V187.07a2.753 2.753 0 0 1 2.756-2.756h14.254a2.753 2.753 0 0 1 2.757 2.756zM195.42 187.07v10.328a2.753 2.753 0 0 1-2.757 2.756H178.41a2.753 2.753 0 0 1-2.757-2.756V187.07a2.753 2.753 0 0 1 2.757-2.756h14.254a2.753 2.753 0 0 1 2.756 2.756z" class="colorf3f6fd svgShape"/><path fill="#ffbf66" d="M219.946 187.07v10.328a2.753 2.753 0 0 1-2.756 2.756h-14.255a2.753 2.753 0 0 1-2.756-2.756V187.07a2.753 2.753 0 0 1 2.756-2.756h14.255a2.753 2.753 0 0 1 2.756 2.756z" class="colorffd964 svgShape"/><path fill="#fdf9f3" d="M146.366 207.67v10.327a2.753 2.753 0 0 1-2.756 2.756h-14.255a2.753 2.753 0 0 1-2.756-2.756V207.67a2.753 2.753 0 0 1 2.756-2.756h14.255a2.753 2.753 0 0 1 2.756 2.756zM170.893 207.67v10.327a2.753 2.753 0 0 1-2.757 2.756h-14.254a2.753 2.753 0 0 1-2.756-2.756V207.67a2.753 2.753 0 0 1 2.756-2.756h14.254a2.753 2.753 0 0 1 2.757 2.756zM195.42 207.67v10.327a2.753 2.753 0 0 1-2.757 2.756H178.41a2.753 2.753 0 0 1-2.757-2.756V207.67a2.753 2.753 0 0 1 2.757-2.756h14.254a2.753 2.753 0 0 1 2.756 2.756zM219.946 207.67v10.327a2.753 2.753 0 0 1-2.756 2.756h-14.255a2.753 2.753 0 0 1-2.756-2.756V207.67a2.753 2.753 0 0 1 2.756-2.756h14.255a2.753 2.753 0 0 1 2.756 2.756zM146.376 228.27v10.326a2.753 2.753 0 0 1-2.756 2.757h-14.255a2.753 2.753 0 0 1-2.756-2.757V228.27a2.753 2.753 0 0 1 2.756-2.756h14.255a2.753 2.753 0 0 1 2.756 2.756zM170.903 228.27v10.326a2.753 2.753 0 0 1-2.756 2.757h-14.255a2.753 2.753 0 0 1-2.756-2.757V228.27a2.753 2.753 0 0 1 2.756-2.756h14.255a2.753 2.753 0 0 1 2.756 2.756zM195.43 228.27v10.326a2.753 2.753 0 0 1-2.757 2.757H178.42a2.753 2.753 0 0 1-2.756-2.757V228.27a2.753 2.753 0 0 1 2.756-2.756h14.254a2.753 2.753 0 0 1 2.756 2.756z" class="colorf3f6fd svgShape"/><path fill="#f7960d" d="M219.956 208.17v30.426a2.753 2.753 0 0 1-2.756 2.757h-14.255a2.753 2.753 0 0 1-2.756-2.757v-30.425a2.753 2.753 0 0 1 2.756-2.756H217.2a2.753 2.753 0 0 1 2.756 2.756z" class="colorfe4c40 svgShape"/><path fill="#ead6bb" d="M135.378 216.071a.416.416 0 0 1-.124-.306c0-.077.019-.152.057-.23l2.63-5.23h-3.472a.394.394 0 0 1-.291-.12.395.395 0 0 1-.12-.292.41.41 0 0 1 .12-.296.389.389 0 0 1 .291-.125h3.902c.153 0 .28.049.383.144a.475.475 0 0 1 .153.363c0 .14-.032.281-.096.421l-2.716 5.556a.45.45 0 0 1-.172.173.473.473 0 0 1-.24.066.414.414 0 0 1-.305-.124zM159.541 215.99c-.38-.185-.655-.418-.827-.698a1.671 1.671 0 0 1-.258-.89c0-.886.475-1.488 1.425-1.807a1.74 1.74 0 0 1-.799-.53c-.207-.247-.311-.554-.311-.924 0-.274.075-.545.225-.813.15-.267.392-.488.727-.664.334-.176.763-.263 1.286-.263s.951.087 1.286.263c.335.176.577.397.727.664.15.268.225.539.225.813 0 .37-.104.677-.311.923a1.735 1.735 0 0 1-.799.53c.95.32 1.425.922 1.425 1.809 0 .312-.085.609-.258.889-.172.28-.448.513-.827.697-.38.185-.869.278-1.468.278-.6 0-1.089-.093-1.468-.278zm2.438-.684c.253-.131.434-.289.546-.474.111-.185.167-.36.167-.526 0-.408-.162-.724-.487-.951-.326-.226-.724-.34-1.196-.34s-.87.114-1.195.34c-.326.227-.488.543-.488.951 0 .167.056.341.167.526.112.185.293.343.545.474.252.13.576.196.971.196s.719-.066.97-.196zm.068-3.39c.22-.21.33-.45.33-.718 0-.3-.117-.546-.35-.74-.232-.195-.572-.293-1.018-.293-.446 0-.786.098-1.018.293a.922.922 0 0 0-.35.74c0 .268.11.507.33.718.22.21.566.315 1.038.315.472 0 .818-.105 1.038-.315zM137.348 195.496a.417.417 0 0 1-.124-.307v-1.3h-2.917a.545.545 0 0 1-.392-.158.52.52 0 0 1-.163-.387v-.086c0-.134.038-.249.115-.345l3.003-3.834a.534.534 0 0 1 .206-.168.625.625 0 0 1 .272-.062h.191c.166 0 .3.053.402.158a.55.55 0 0 1 .153.397v3.71h.727c.108 0 .2.038.277.115.076.077.115.169.115.277s-.039.2-.115.273a.385.385 0 0 1-.277.11h-.727v1.3a.408.408 0 0 1-.13.307.43.43 0 0 1-.31.124.416.416 0 0 1-.306-.124zm-2.668-2.382h2.544v-3.28l-2.544 3.28zM158.776 195.065a.536.536 0 0 1-.143-.138.37.37 0 0 1-.048-.206c0-.115.035-.212.105-.291a.35.35 0 0 1 .277-.12c.07 0 .137.016.201.048a3.235 3.235 0 0 0 1.53.402c.606 0 1.068-.102 1.387-.307.319-.203.478-.55.478-1.042 0-.395-.132-.708-.397-.938-.264-.228-.626-.343-1.085-.343-.53 0-1.02.137-1.473.41l-.11.063a.45.45 0 0 1-.225.053.674.674 0 0 1-.449-.154.498.498 0 0 1-.182-.401c0-.077.006-.153.02-.23l.43-2.544a.556.556 0 0 1 .167-.348.48.48 0 0 1 .34-.13h3.07c.114 0 .211.04.29.12.08.08.12.177.12.292a.38.38 0 0 1-.12.286.405.405 0 0 1-.29.115h-2.774l-.306 2.028a3.348 3.348 0 0 1 1.616-.392c.472 0 .875.092 1.21.277.335.185.588.44.76.765.172.325.258.698.258 1.119 0 .644-.22 1.165-.66 1.563-.44.399-1.093.598-1.96.598-.778 0-1.457-.185-2.037-.555zM134.747 174.858c-.077-.077-.115-.172-.115-.287a.404.404 0 0 1 .402-.41h1.138v-4.85l-.976.479a.586.586 0 0 1-.22.057.401.401 0 0 1-.296-.115.398.398 0 0 1-.115-.296c0-.179.083-.31.249-.393l1.3-.679a.592.592 0 0 1 .268-.067h.201c.128 0 .236.045.325.135s.134.198.134.325v5.403h.947c.115 0 .212.04.291.12.08.08.12.176.12.291s-.04.21-.12.287a.406.406 0 0 1-.291.115h-2.955a.388.388 0 0 1-.287-.115zM158.82 174.882a.478.478 0 0 1-.144-.358c0-.332.097-.638.292-.92.194-.28.43-.526.707-.74.277-.214.643-.467 1.095-.76.389-.249.698-.46.928-.631.23-.172.42-.361.574-.565a1.07 1.07 0 0 0 .23-.65c0-.364-.12-.651-.36-.865-.239-.214-.623-.32-1.152-.32-.573 0-1.119.114-1.635.343a.397.397 0 0 1-.182.049.352.352 0 0 1-.258-.106.364.364 0 0 1-.105-.268c0-.159.07-.277.21-.354a4.684 4.684 0 0 1 2.123-.487c.408 0 .78.08 1.114.243.335.163.6.39.794.684.194.293.292.631.292 1.014 0 .377-.11.725-.33 1.047-.22.322-.483.604-.79.846-.305.243-.704.523-1.195.842-.446.3-.782.54-1.008.723-.227.18-.385.367-.474.559h3.328c.115 0 .212.04.292.12.08.079.12.176.12.29s-.04.211-.12.288a.406.406 0 0 1-.292.114h-3.691a.501.501 0 0 1-.364-.138z" class="colorbbcaea svgShape"/><path fill="#ead6bb" d="M158.82 174.882a.478.478 0 0 1-.144-.358c0-.332.097-.638.292-.92.194-.28.43-.526.707-.74.277-.214.643-.467 1.095-.76.389-.249.698-.46.928-.631.23-.172.42-.361.574-.565a1.07 1.07 0 0 0 .23-.65c0-.364-.12-.651-.36-.865-.239-.214-.623-.32-1.152-.32-.573 0-1.119.114-1.635.343a.397.397 0 0 1-.182.049.352.352 0 0 1-.258-.106.364.364 0 0 1-.105-.268c0-.159.07-.277.21-.354a4.684 4.684 0 0 1 2.123-.487c.408 0 .78.08 1.114.243.335.163.6.39.794.684.194.293.292.631.292 1.014 0 .377-.11.725-.33 1.047-.22.322-.483.604-.79.846-.305.243-.704.523-1.195.842-.446.3-.782.54-1.008.723-.227.18-.385.367-.474.559h3.328c.115 0 .212.04.292.12.08.079.12.176.12.29s-.04.211-.12.288a.406.406 0 0 1-.292.114h-3.691a.501.501 0 0 1-.364-.138zM184.317 215.66a4.116 4.116 0 0 1-.756-.297.382.382 0 0 1-.143-.144.39.39 0 0 1 .052-.473.365.365 0 0 1 .283-.12c.057 0 .11.01.162.029.395.185.82.277 1.272.277.72 0 1.227-.251 1.52-.755a3.681 3.681 0 0 0 .488-1.693 2.222 2.222 0 0 1-.765.603c-.319.16-.717.239-1.195.239-.434 0-.815-.093-1.143-.278a1.958 1.958 0 0 1-.77-.784c-.185-.337-.277-.733-.277-1.185 0-.403.095-.769.286-1.1.192-.332.466-.593.823-.785.357-.191.775-.286 1.253-.286 1.746 0 2.62 1.14 2.62 3.423 0 .555-.09 1.094-.273 1.617-.181.522-.48.957-.893 1.304-.415.348-.95.522-1.607.522a3.46 3.46 0 0 1-.937-.114zm2.83-4.18c-.172-1.173-.755-1.76-1.75-1.76-.293 0-.553.063-.78.187-.226.124-.4.291-.52.502-.122.21-.182.44-.182.689 0 .433.121.78.363 1.042.243.261.596.392 1.062.392.829 0 1.43-.35 1.807-1.052zM183.045 192.853c0-.554.09-1.093.272-1.616.182-.523.48-.958.895-1.306.414-.347.95-.52 1.606-.52.357 0 .67.038.938.114.267.077.519.176.755.296.057.033.105.08.143.144a.384.384 0 0 1-.052.474.367.367 0 0 1-.282.119.448.448 0 0 1-.163-.029 2.966 2.966 0 0 0-1.272-.277c-.72 0-1.227.252-1.52.755a3.683 3.683 0 0 0-.488 1.693c.191-.242.446-.443.765-.602.319-.16.717-.239 1.195-.239a2.3 2.3 0 0 1 1.143.276c.328.186.585.447.77.785.185.338.277.733.277 1.186 0 .402-.095.769-.287 1.1a2.036 2.036 0 0 1-.822.784c-.357.191-.775.286-1.253.286-1.747 0-2.62-1.14-2.62-3.423zm3.409 2.424c.226-.124.4-.291.521-.501.121-.211.182-.44.182-.69 0-.433-.121-.78-.364-1.042-.242-.261-.595-.392-1.061-.392-.829 0-1.431.351-1.808 1.052.173 1.173.756 1.76 1.75 1.76.294 0 .554-.063.78-.187zM183.423 174.686a.418.418 0 0 1-.182-.14.365.365 0 0 1-.067-.223c0-.109.037-.203.11-.282a.353.353 0 0 1 .273-.12.48.48 0 0 1 .181.039c.46.184.966.277 1.52.277.498 0 .917-.082 1.258-.245.341-.162.512-.435.512-.817 0-.803-.705-1.205-2.113-1.205h-.154a.386.386 0 0 1-.282-.12.386.386 0 0 1-.12-.281c0-.109.04-.203.12-.283.08-.08.174-.12.282-.12h.058c.637 0 1.125-.097 1.463-.291.338-.194.507-.483.507-.866a.844.844 0 0 0-.383-.727c-.255-.178-.63-.268-1.128-.268-.536 0-1.03.106-1.482.316a.46.46 0 0 1-.173.038.347.347 0 0 1-.248-.1.336.336 0 0 1-.106-.254c0-.145.064-.254.192-.325a3.988 3.988 0 0 1 1.893-.487c.734 0 1.3.15 1.702.45.402.299.603.723.603 1.271 0 .44-.11.787-.33 1.038a1.97 1.97 0 0 1-.827.56c.363.082.687.256.97.52.284.265.426.659.426 1.182 0 .586-.231 1.041-.693 1.362-.462.322-1.057.483-1.784.483a5.238 5.238 0 0 1-1.998-.382zM159.092 235.939c-.443-.619-.664-1.453-.664-2.506 0-1.052.221-1.887.664-2.506.443-.618 1.085-.927 1.927-.927.835 0 1.476.31 1.922.927.447.62.67 1.454.67 2.506 0 1.053-.223 1.887-.67 2.506-.446.618-1.087.927-1.922.927-.842 0-1.484-.31-1.927-.927zm3.204-.574c.297-.466.445-1.11.445-1.932 0-.816-.148-1.457-.445-1.922-.297-.465-.722-.699-1.277-.699s-.98.234-1.276.699c-.297.465-.445 1.106-.445 1.922 0 .823.148 1.466.445 1.932.296.465.722.698 1.276.698s.98-.233 1.277-.698zM133.413 232.869c-.268-.321-.401-.731-.401-1.23 0-.496.133-.906.401-1.227.268-.322.647-.484 1.138-.484.491 0 .87.162 1.138.484.268.321.402.731.402 1.228 0 .498-.134.908-.402 1.229-.267.322-.647.483-1.138.483-.49 0-.87-.16-1.138-.483zm1.779-.445c.153-.203.23-.465.23-.784s-.077-.58-.23-.784c-.153-.204-.367-.306-.64-.306s-.489.102-.641.306c-.154.204-.23.465-.23.784 0 .32.076.58.23.784.152.205.366.307.64.307s.488-.102.641-.307zm-.86 4.347a.297.297 0 0 1-.096-.225c0-.057.016-.111.047-.163l3.893-6.225a.3.3 0 0 1 .267-.153c.096 0 .174.026.235.076.06.052.09.122.09.211 0 .07-.022.14-.066.21l-3.864 6.188a.38.38 0 0 1-.124.124.308.308 0 0 1-.382-.043zm2.964-.316c-.268-.321-.402-.731-.402-1.229 0-.497.134-.907.402-1.228.268-.322.647-.484 1.138-.484.49 0 .87.162 1.138.484.268.321.402.731.402 1.228 0 .498-.134.908-.402 1.23-.268.321-.647.482-1.138.482-.491 0-.87-.16-1.138-.483zm1.779-.444c.153-.204.229-.466.229-.785 0-.318-.076-.58-.23-.783a.754.754 0 0 0-.64-.307.754.754 0 0 0-.64.307c-.154.203-.23.465-.23.783 0 .32.076.581.23.785a.754.754 0 0 0 .64.306.754.754 0 0 0 .64-.306zM139.293 153.092a.577.577 0 0 1 .172.42.61.61 0 0 1-.334.574c-.345.201-.708.354-1.062.46-.363.114-.775.162-1.234.162-.67 0-1.29-.144-1.826-.44a3.287 3.287 0 0 1-1.291-1.291c-.306-.555-.469-1.205-.469-1.941 0-.727.163-1.387.469-1.932a3.168 3.168 0 0 1 1.29-1.291 3.745 3.745 0 0 1 1.827-.45c.46 0 .87.058 1.234.163.354.105.717.268 1.071.459a.64.64 0 0 1 .325.574.578.578 0 0 1-.172.42c-.172.192-.497.24-.727.115a4.8 4.8 0 0 0-.784-.315 3.26 3.26 0 0 0-.86-.105c-.498 0-.928.105-1.282.306-.344.21-.603.478-.775.832s-.267.765-.267 1.224.095.87.267 1.233c.172.354.43.622.775.823.354.2.784.306 1.281.306.326 0 .622-.029.861-.105.249-.067.517-.173.784-.316a.638.638 0 0 1 .727.115zM184.78 235.892a.926.926 0 0 1-.284-.68v-.103c0-.264.094-.49.284-.68a.93.93 0 0 1 .68-.284h.172a.93.93 0 0 1 .68.283.93.93 0 0 1 .284.681v.103c0 .264-.095.49-.284.68a.927.927 0 0 1-.68.284h-.172a.926.926 0 0 1-.68-.284z" class="colorbbcaea svgShape"/><path fill="#ffffff" d="M209.577 196.293a.66.66 0 0 1-.203-.485v-2.894h-2.894a.647.647 0 0 1-.477-.195.649.649 0 0 1-.194-.476c0-.2.065-.365.194-.495a.65.65 0 0 1 .477-.193h2.894v-2.894a.678.678 0 0 1 .688-.688c.2 0 .365.064.495.193.129.13.194.294.194.495v2.894h2.876c.2 0 .365.064.495.193.13.13.194.295.194.495a.649.649 0 0 1-.194.476.67.67 0 0 1-.495.195h-2.876v2.894c0 .188-.065.35-.194.485a.654.654 0 0 1-.494.203.662.662 0 0 1-.486-.203zM206.833 222.255a.68.68 0 0 1-.203-.502.712.712 0 0 1 .706-.724h5.456c.2 0 .37.07.512.212a.698.698 0 0 1 .211.512c0 .2-.07.368-.211.502a.714.714 0 0 1-.512.204h-5.456a.684.684 0 0 1-.503-.204zM206.833 225.535a.68.68 0 0 1-.203-.503.712.712 0 0 1 .706-.724h5.456c.2 0 .37.071.512.212.14.141.211.312.211.512s-.07.368-.211.503a.714.714 0 0 1-.512.203h-5.456a.684.684 0 0 1-.503-.203zM212.156 148.22c.19-.001.357.07.498.211a.712.712 0 0 1 .013 1.011l-4.191 4.192a.699.699 0 0 1-.512.212c-.2 0-.37-.071-.512-.213a.667.667 0 0 1-.205-.505.714.714 0 0 1 .217-.505l4.192-4.192a.684.684 0 0 1 .5-.212z" class="colorfff svgShape"/><path fill="#ffffff" d="M212.879 153.135a.68.68 0 0 1-.212.498.712.712 0 0 1-1.011.013l-4.192-4.191a.699.699 0 0 1-.212-.512c0-.2.071-.37.213-.512a.667.667 0 0 1 .505-.205.714.714 0 0 1 .506.218l4.19 4.19a.684.684 0 0 1 .213.5zM182.296 151.547a.68.68 0 0 1-.203-.502.712.712 0 0 1 .706-.724h5.456c.2 0 .37.07.512.212a.698.698 0 0 1 .211.512c0 .2-.07.368-.211.502a.714.714 0 0 1-.512.204h-5.456a.684.684 0 0 1-.503-.204z" class="colorfff svgShape"/><circle cx="185.536" cy="148.615" r=".916" fill="#ffffff" class="colorfff svgShape"/><circle cx="185.536" cy="153.457" r=".916" fill="#ffffff" class="colorfff svgShape"/><path fill="#ffffff" d="M206.823 172.04a.68.68 0 0 1-.203-.502.712.712 0 0 1 .706-.724h5.456c.2 0 .37.071.511.212.141.141.212.312.212.512s-.07.368-.212.502a.714.714 0 0 1-.511.204h-5.456a.684.684 0 0 1-.503-.204z" class="colorfff svgShape"/><path fill="#ead6bb" d="M160.554 152.867a.66.66 0 0 1-.203-.484v-1.938h-1.938a.647.647 0 0 1-.477-.194.649.649 0 0 1-.193-.477c0-.2.064-.365.193-.495a.65.65 0 0 1 .477-.193h1.938v-1.938a.678.678 0 0 1 .688-.688c.2 0 .365.064.494.193.13.13.195.294.195.495v1.938h1.92c.2 0 .364.064.494.193.13.13.194.295.194.495a.649.649 0 0 1-.194.477.67.67 0 0 1-.494.194h-1.92v1.938c0 .187-.065.35-.195.484a.654.654 0 0 1-.494.204.662.662 0 0 1-.485-.204zM157.8 155.402a.68.68 0 0 1-.203-.503.712.712 0 0 1 .706-.724h5.455c.2 0 .37.071.512.212.141.141.212.312.212.512s-.07.368-.212.503a.714.714 0 0 1-.512.203h-5.455a.684.684 0 0 1-.503-.203z" class="colorbbcaea svgShape"/><path fill="#58524a" d="M162.1 104.885c-.09-.09-.136-.203-.136-.338s.045-.249.135-.343a.451.451 0 0 1 .338-.14h1.339V98.36l-1.147.562a.697.697 0 0 1-.26.068c-.142 0-.258-.045-.348-.135s-.135-.206-.135-.349c0-.21.097-.364.292-.46l1.53-.8a.694.694 0 0 1 .315-.079h.236c.15 0 .278.053.383.158a.523.523 0 0 1 .157.382v6.356h1.114a.47.47 0 0 1 .343.14c.094.094.141.208.141.343s-.047.248-.14.338a.48.48 0 0 1-.344.135h-3.476a.46.46 0 0 1-.338-.135zM168.41 104.857a.56.56 0 0 1-.17-.422c0-.39.115-.75.345-1.08.228-.33.505-.62.832-.871.326-.252.755-.55 1.288-.895.457-.293.821-.54 1.09-.742.271-.203.496-.424.675-.664.181-.24.27-.495.27-.765 0-.427-.14-.766-.421-1.018-.281-.251-.733-.377-1.356-.377-.674 0-1.316.136-1.923.405a.47.47 0 0 1-.214.057.412.412 0 0 1-.304-.124.427.427 0 0 1-.123-.315c0-.187.082-.327.247-.417a5.513 5.513 0 0 1 2.497-.573c.48 0 .917.096 1.31.287.394.19.706.46.934.804s.344.742.344 1.192c0 .443-.13.854-.389 1.232-.258.379-.568.71-.927.996-.36.285-.83.615-1.407.989-.525.353-.92.636-1.186.85-.267.213-.452.433-.557.658h3.914c.135 0 .25.047.343.14s.14.208.14.343-.046.248-.14.338-.208.135-.343.135h-4.341a.591.591 0 0 1-.428-.163zM175.84 104.041c-.522-.727-.782-1.71-.782-2.947s.26-2.22.781-2.947 1.277-1.091 2.267-1.091c.982 0 1.736.363 2.26 1.09.526.728.789 1.71.789 2.948s-.263 2.22-.788 2.947c-.525.728-1.279 1.091-2.26 1.091-.991 0-1.746-.363-2.268-1.09zm3.768-.674c.349-.548.522-1.305.522-2.273 0-.96-.173-1.714-.522-2.26-.349-.549-.85-.822-1.502-.822s-1.153.273-1.502.821c-.349.547-.522 1.301-.522 2.261 0 .968.173 1.725.522 2.273.349.546.85.82 1.502.82s1.153-.274 1.502-.82zM182.583 104.48a.625.625 0 0 1-.168-.163.431.431 0 0 1-.057-.242c0-.135.041-.25.124-.343a.412.412 0 0 1 .326-.14c.082 0 .161.018.237.056.591.314 1.192.472 1.8.472.711 0 1.255-.12 1.63-.36s.563-.648.563-1.226c0-.465-.157-.833-.467-1.102-.312-.27-.737-.405-1.277-.405-.623 0-1.2.16-1.733.483l-.129.073a.525.525 0 0 1-.264.062c-.21 0-.386-.06-.529-.18s-.214-.277-.214-.472c0-.09.008-.18.023-.27l.506-2.992a.654.654 0 0 1 .197-.41.563.563 0 0 1 .4-.153h3.61c.135 0 .25.047.344.14s.14.209.14.344c0 .135-.047.248-.14.338s-.209.134-.344.134h-3.262l-.36 2.385a3.94 3.94 0 0 1 1.901-.46c.555 0 1.03.108 1.423.325s.692.518.894.9c.203.383.304.821.304 1.316 0 .758-.259 1.37-.776 1.839s-1.286.703-2.306.703c-.915 0-1.714-.217-2.396-.652zM189.607 102.19a.436.436 0 0 1-.129-.32c0-.127.043-.236.129-.326a.428.428 0 0 1 .321-.134h2.126c.127 0 .237.044.326.134s.135.199.135.326-.045.235-.135.32-.199.13-.326.13h-2.126a.439.439 0 0 1-.321-.13zM195.096 104.806c-.445-.217-.77-.491-.972-.821s-.304-.679-.304-1.046c0-1.042.559-1.751 1.676-2.126a2.046 2.046 0 0 1-.939-.624c-.244-.29-.366-.65-.366-1.086 0-.322.088-.64.265-.956.175-.315.46-.575.854-.781s.899-.31 1.514-.31c.614 0 1.119.104 1.513.31s.678.466.854.78c.177.316.265.635.265.957 0 .435-.122.797-.366 1.086a2.054 2.054 0 0 1-.939.624c1.117.375 1.676 1.084 1.676 2.126 0 .367-.102.716-.304 1.046s-.527.604-.973.821c-.446.218-1.022.326-1.726.326-.705 0-1.281-.108-1.728-.326zm2.87-.804c.295-.154.51-.34.64-.557.132-.217.197-.423.197-.619 0-.479-.191-.853-.574-1.119-.382-.266-.85-.4-1.405-.4-.556 0-1.025.134-1.406.4-.383.266-.575.64-.575 1.12 0 .195.066.4.198.618.13.217.344.403.64.557.297.154.677.23 1.143.23.465 0 .845-.076 1.141-.23zm.078-3.988c.258-.247.388-.528.388-.844 0-.351-.136-.642-.41-.87-.274-.23-.674-.345-1.198-.345-.526 0-.925.116-1.198.344-.275.229-.412.52-.412.871 0 .316.13.597.39.844.258.248.664.371 1.22.371.555 0 .96-.123 1.22-.371zM201.3 104.48c-.075-.053-.131-.107-.169-.163s-.056-.137-.056-.242c0-.135.042-.25.124-.343a.414.414 0 0 1 .326-.14c.083 0 .161.018.236.056.593.314 1.193.472 1.8.472.712 0 1.256-.12 1.631-.36s.563-.648.563-1.226c0-.465-.156-.833-.467-1.102-.312-.27-.737-.405-1.277-.405-.623 0-1.2.16-1.732.483l-.13.073a.52.52 0 0 1-.264.062c-.21 0-.386-.06-.529-.18s-.213-.277-.213-.472c0-.09.007-.18.023-.27l.505-2.992a.653.653 0 0 1 .197-.41.565.565 0 0 1 .4-.153h3.61c.135 0 .25.047.343.14s.14.209.14.344c0 .135-.046.248-.14.338s-.208.134-.342.134h-3.263l-.36 2.385a3.934 3.934 0 0 1 1.902-.46c.555 0 1.028.108 1.423.325.393.218.691.518.893.9.203.383.304.821.304 1.316 0 .758-.259 1.37-.775 1.839-.518.469-1.288.703-2.307.703-.915 0-1.714-.217-2.396-.652zM211.93 104.93a.49.49 0 0 1-.146-.36v-1.53h-3.43a.638.638 0 0 1-.462-.185.61.61 0 0 1-.191-.456v-.1c0-.159.045-.294.135-.406l3.532-4.51a.627.627 0 0 1 .241-.198.733.733 0 0 1 .321-.073h.225c.195 0 .352.062.473.186.12.123.18.28.18.467v4.364h.855c.127 0 .235.045.326.135.09.09.135.2.135.326a.454.454 0 0 1-.46.45h-.857v1.53a.51.51 0 0 1-.518.507.486.486 0 0 1-.359-.147zm-3.138-2.8h2.992v-3.86l-2.992 3.86zM186.846 125.052c-.123-.05-.22-.125-.293-.223s-.107-.218-.107-.362c0-.175.059-.326.177-.455s.264-.192.44-.192c.092 0 .19.02.292.061.74.298 1.557.446 2.451.446.802 0 1.478-.13 2.028-.392s.825-.701.825-1.318c0-1.295-1.136-1.943-3.407-1.943h-.247a.625.625 0 0 1-.456-.192c-.128-.13-.192-.28-.192-.455s.064-.326.192-.455a.625.625 0 0 1 .456-.193h.092c1.028 0 1.814-.156 2.359-.47s.817-.779.817-1.395c0-.493-.206-.884-.617-1.172-.411-.287-1.017-.432-1.818-.432-.864 0-1.66.17-2.39.51a.762.762 0 0 1-.277.06.56.56 0 0 1-.402-.161.537.537 0 0 1-.169-.409.56.56 0 0 1 .308-.524c.987-.523 2.004-.786 3.053-.786 1.181 0 2.096.242 2.744.725.647.483.97 1.167.97 2.05 0 .71-.176 1.267-.53 1.673s-.8.706-1.335.902a3.37 3.37 0 0 1 1.566.84c.457.426.685 1.06.685 1.904 0 .945-.372 1.677-1.117 2.197-.746.519-1.704.778-2.876.778a8.44 8.44 0 0 1-3.222-.617zM196.512 124.775c-.103-.072-.18-.147-.231-.224s-.077-.187-.077-.33c0-.186.056-.343.17-.472a.567.567 0 0 1 .447-.192c.112 0 .22.026.323.077.812.432 1.634.648 2.467.648.977 0 1.722-.164 2.235-.494s.77-.888.77-1.68c0-.637-.212-1.14-.639-1.511s-1.01-.555-1.75-.555c-.852 0-1.644.221-2.374.663-.02.01-.079.044-.177.1a.713.713 0 0 1-.362.085c-.288 0-.53-.082-.725-.246a.808.808 0 0 1-.293-.649c0-.123.01-.246.03-.369l.695-4.101a.893.893 0 0 1 .27-.563.772.772 0 0 1 .547-.208h4.949a.64.64 0 0 1 .47.193c.128.129.193.286.193.47s-.065.34-.194.463a.653.653 0 0 1-.47.185h-4.47l-.493 3.268c.78-.422 1.65-.632 2.605-.632.76 0 1.41.149 1.95.447.54.299.948.709 1.226 1.233.277.525.416 1.126.416 1.804 0 1.038-.354 1.879-1.064 2.52-.71.643-1.763.964-3.16.964-1.254 0-2.35-.298-3.284-.894zM207.165 125.33a.63.63 0 0 1-.185-.462c0-.185.062-.342.185-.471a.617.617 0 0 1 .463-.193h1.835v-7.816l-1.574.772a.951.951 0 0 1-.354.092c-.196 0-.355-.062-.478-.185s-.185-.282-.185-.478c0-.288.133-.499.401-.633l2.097-1.093a.951.951 0 0 1 .431-.109h.324c.206 0 .38.072.524.216a.716.716 0 0 1 .216.524v8.71h1.526a.64.64 0 0 1 .47.193c.129.129.193.286.193.47s-.064.34-.193.463a.653.653 0 0 1-.47.185h-4.763a.63.63 0 0 1-.463-.185z" class="color4a5258 svgShape"/><path fill="#fedcac" d="m62.876 244.236 5.347 3.668 3.108-1.368s.078-2.564.14-6.372c.03-2.875.077-5.44.077-5.595 0-.388-7.988.078-8.36.203-.156.046-.234 1.802-.265 3.916-.078 3.14-.047 5.269-.047 5.548z" class="colorfec9ac svgShape"/><path fill="#ffd190" d="M62.923 238.688a16.245 16.245 0 0 0 7.693 1.554c.28-.015.575-.031.855-.078.03-2.875.077-5.44.077-5.595 0-.388-7.988.078-8.36.203-.156.046-.234 1.802-.265 3.916z" opacity=".5" class="colorffab90 svgShape"/><path fill="#46413a" d="M60.204 250.197c.071.483.493.822.986.822h24.075c.42 0 .79-.257.945-.648.36-.975.842-2.783-.278-3.553-1.56-1.069-4.868-.082-7.148-1.695-2.27-1.602-4.992-7.056-8.258-3.348 0 0-2.63 4.026-4.417 3.173-1.787-.852-3.122-5.258-5.269-3.574-1.078.853-.986 6.748-.636 8.823z" class="color3a4146 svgShape"/><path fill="#fedcac" d="m38.392 244.236 5.346 3.668 3.108-1.368s.078-2.564.14-6.372c.031-2.875.078-5.44.078-5.595 0-.388-7.988.078-8.361.203-.156.046-.233 1.802-.264 3.916-.078 3.14-.047 5.269-.047 5.548z" class="colorfec9ac svgShape"/><path fill="#ffd190" d="M38.439 238.688a16.245 16.245 0 0 0 7.693 1.554c.28-.015.575-.031.854-.078.031-2.875.078-5.44.078-5.595 0-.388-7.988.078-8.361.203-.156.046-.233 1.802-.264 3.916z" opacity=".5" class="colorffab90 svgShape"/><path fill="#46413a" d="M35.72 250.197c.071.483.492.822.985.822H60.78c.421 0 .791-.257.945-.648.36-.975.843-2.783-.277-3.553-1.561-1.069-4.868-.082-7.149-1.695-2.27-1.602-4.991-7.056-8.257-3.348 0 0-2.63 4.026-4.417 3.173-1.787-.852-3.122-5.258-5.269-3.574-1.079.853-.986 6.748-.637 8.823z" class="color3a4146 svgShape"/><path fill="#673c00" d="m76.96 150.16-.236 10.123-1.743 76.465s-6.584 2-11.004 1.62c-2.185-.184-3.928-.533-4.266-1.148-1.047-1.846-2.318-58.518-2.318-58.518s-7.18 59.092-7.876 59.215c-.236.041-1.641-.051-3.436-.277-3.559-.451-8.645-1.425-9.322-2.954-.78-1.784 1.558-52.539 2.676-75.665.318-6.871.544-11.301.544-11.301l36.981 2.44z" class="color003567 svgShape"/><path fill="#4f2f02" d="m76.96 150.16-.236 10.123c-15.044 3.65-30.407.564-37.289-1.262.318-6.871.544-11.301.544-11.301l36.981 2.44zM63.978 237.885c-2.181-.191-3.924-.54-4.273-1.147-1.045-1.855-2.316-58.527-2.316-58.527s-7.173 59.1-7.87 59.224c-.236.034-1.641-.056-3.44-.28l11.827-68.118 6.072 68.848z" class="color022e4f svgShape"/><path fill="#ffae3d" d="M78.687 118.175s2.404 29.049.504 32.263c-2.431 4.116-40.404 5.34-42.592 1.99-.792-1.215-.225-9.689.477-17.415.64-6.897 1.396-13.2 1.396-13.2-6.141.828-16.875-.64-16.46-2.963 0-.009 0-1.53.35-3.899 1.225-8.05 6.565-25.843 30.05-26.852 17.135-.738 26.509 5.988 31.317 11.607v.01c3.323 3.88 4.458 7.239 4.458 7.239.099 1.828-6.565 9.31-9.5 11.22z" class="colorffcf3d svgShape"/><path fill="#fedcac" d="M109.609 90.741s-6.98 33.144-16.238 35.568c-3.354.878-6.5.23-9.143-.96-4.65-2.08-7.743-5.831-7.743-5.831l10.92-10.69c.02 0 .094.053.198.147.658.585 2.696 2.633 2.696 2.633l12.539-20.083s-3.7-5.768-1.703-6.49c1.995-.71 2.988 2.571 2.988 2.571s1.212-10.187 5.841-6.697c4.629 3.49-.355 9.832-.355 9.832z" class="colorfec9ac svgShape"/><path fill="#ffd190" d="M87.603 108.975c.01.909-.062 1.839-.104 2.716a45.445 45.445 0 0 1-.408 4.452 51.035 51.035 0 0 1-.94 4.984c-.272 1.066-.575 2.142-1.108 3.103-.23.397-.501.784-.815 1.118-4.65-2.08-7.743-5.83-7.743-5.83l10.92-10.69c.02 0 .094.053.198.147z" opacity=".5" class="colorffab90 svgShape"/><path fill="#ffa30f" d="M78.687 118.175s2.404 29.049.504 32.263c-2.431 4.116-40.404 5.34-42.592 1.99-.792-1.215-.225-9.689.477-17.415 38.792 21.63 38.207-22.988 38.207-22.988 8.356-2.702 8.446-11.923 8.446-12.31 3.323 3.881 4.458 7.24 4.458 7.24.099 1.828-6.565 9.31-9.5 11.22z" class="colorfcc230 svgShape"/><path fill="#fedcac" d="M47.51 88.589c1.86-2.351 2.707-5.047 3.083-6.845.25-1.201.292-1.985.292-1.985s9.373-1.954 10.01 2.027c.021.147.053.293.074.429.679 3.667 2.267 5.182 3.427 6.698 3.866 5.057-21.86 5.935-16.886-.324z" class="colorfec9ac svgShape"/><path fill="#ffd190" d="M60.969 82.215c-.94.877-2.111 1.452-3.563 1.609-2.863.313-5.12-.7-6.813-2.08.25-1.201.292-1.985.292-1.985s9.373-1.954 10.01 2.027c.021.147.053.293.074.429z" opacity=".5" class="colorffab90 svgShape"/><path fill="#ffffff" d="M77.629 114.238c-.088-.235.912-.65 2.558-1.923a11.576 11.576 0 0 0 3.441-3.952c1.034-1.803 1.308-2.85 1.559-2.795.18.022.29 1.203-.668 3.27a12.581 12.581 0 0 1-3.74 4.293c-1.917 1.234-3.102 1.287-3.15 1.107zM43.264 94.471c.066-.098.575.155 1.59.62 1.017.453 2.558 1.118 4.73 1.599 3.662.896 7.547.712 11.183-.318 2.16-.564 3.719-1.202 4.764-1.61 1.041-.42 1.575-.62 1.632-.518.051.09-.382.47-1.368 1.057-.988.574-2.535 1.366-4.756 2.042-3.776 1.072-7.847 1.269-11.692.327-2.26-.597-3.817-1.43-4.782-2.052-.964-.636-1.36-1.063-1.301-1.147z" class="colorfff svgShape"/><path fill="#ffa30f" d="m40.457 114.314-1.985 7.502c-4.744.638-12.236-.094-15.193-1.536h-.01c-.868-.428-1.348-.909-1.254-1.431 0-.01 0-1.526.345-3.898 8.923 3.417 18.097-.637 18.097-.637z" class="colorfcc230 svgShape"/><path fill="#3a352e" d="M76.184 106.874v19.117c0 .576-.478 1.044-1.054 1.044H63.901a1.053 1.053 0 0 1-1.053-1.044v-19.117c0-.585.477-1.054 1.053-1.054H75.13c.576 0 1.054.469 1.054 1.054z" class="color2e363a svgShape"/><path fill="#fedcac" d="M64.647 122.046s-21.18 22.1-32.256 20.24c-5.705-.95-7.952-6.76-8.788-12.173-.794-5.089-.334-9.833-.334-9.833h.01c2.947 1.432 10.376 2.163 15.12 1.547.02 0 .052-.01.073-.01l-.752 6.687s22.475-11.787 22.496-11.964c.47-3.48 2.675-5.56 2.675-5.56l-.041 3.836s4.931-7.471 7.627-3.344c5.256 8.014-5.83 10.574-5.83 10.574z" class="colorfec9ac svgShape"/><path fill="#ffd190" d="M38.399 121.827c-.251.209-.533.418-.805.627-2.12 1.661-4.326 3.197-6.666 4.545a53.21 53.21 0 0 1-4.054 2.11c-1.045.481-2.132.952-3.27 1.004-.795-5.089-.335-9.833-.335-9.833h.01c2.947 1.432 10.376 2.163 15.12 1.547z" opacity=".5" class="colorffab90 svgShape"/><path fill="#ffffff" d="M25.61 118.778c.076-.224 1.126.033 3.186.395 1.729.361 3.513.438 5.199.03 2-.41 2.893-1.01 3.038-.796.124.128-.61 1.12-2.803 1.777-1.867.451-3.81.36-5.638-.023-2.14-.57-3.051-1.193-2.982-1.383z" class="colorfff svgShape"/><path fill="#fedcac" d="M58.49 82.543c-7.447.81-10.788-7.365-10.788-7.365S43.506 72.953 45.09 70c1.585-2.954 4.881.387 4.881.387s2.908-11.517 7.573-11.472c4.673.045 7.969 4.322 7.969 4.322s.054.406.1 1.09c.332 3.953.827 17.352-7.124 18.216z" class="colorfec9ac svgShape"/><path fill="#3a352e" d="M57.674 64.187c-2.64 1.122-3.655-.91-3.655-.91s-1.355 6.552-4.048 7.11c0 0-3.296-3.34-4.88-.387 0 0-4.858-9.361.451-16.122 8.057-10.26 15.154-1.377 23.152-.331 5.766.754 6.706 10.303-4.799 9.464-2.137-.156-4.249.338-6.22 1.176z" class="color2e363a svgShape"/><path fill="#4f402b" d="M57.76 67.435c-.046.148-.446.101-1.12.01a2.19 2.19 0 0 0-1.576.243c-.286.132-.509.283-.635.355-.124.071-.188.134-.264.135-.07.006-.154-.137-.061-.368.094-.218.275-.46.622-.704a2.874 2.874 0 0 1 2.044-.32c.766.24 1.03.518.99.65zM63.895 66.036c-.156.05-.25.007-.778.056a3.187 3.187 0 0 0-1.275.198c-.496.125-.777.198-.866.07-.08-.11.072-.417.632-.7a3.859 3.859 0 0 1 1.543-.24c.294.042.567.145.7.3.136.156.106.284.044.316zM59.114 75.906c.015-.075.177-.092.437-.174.244-.078.655-.268.797-.681.07-.171.085-.385.057-.604-.05-.228-.134-.474-.198-.71a16.306 16.306 0 0 1-.408-1.542c-.183-1.249-.115-1.868.022-1.891.153-.026.342.576.637 1.754.102.515.238.97.397 1.498.072.27.16.522.217.805.038.3.026.627-.101.944a1.437 1.437 0 0 1-1.379.826c-.356-.03-.495-.159-.478-.225zM55.604 76.179c.138-.073.383.222.923.658a3.11 3.11 0 0 0 1.546.787c.67.18 1.053.204 1.075.362.027.128-.356.38-1.202.298a3.787 3.787 0 0 1-1.878-.955c-.565-.637-.586-1.095-.464-1.15z" class="color4f2d2b svgShape"/><ellipse cx="62.711" cy="69.481" fill="#4f402b" rx=".789" ry="1.138" class="color4f2d2b svgShape"/><ellipse cx="56.231" cy="70.113" fill="#4f402b" rx=".789" ry="1.138" class="color4f2d2b svgShape"/><path fill="#ffd190" d="M47.188 73.173c-.025.113-.6.124-1.09-.706a2.055 2.055 0 0 1 .372-2.232c.189-.173.446-.27.646-.269.2-.003.338.05.438.096.198.098.264.195.247.265-.017.073-.135.106-.32.129-.199.027-.384.05-.538.257-.344.355-.456 1.006-.231 1.48.22.603.559.836.476.98z" class="colorffab90 svgShape"/><path fill="#fdf9f3" d="M278 89.726v16.33a4.361 4.361 0 0 1-4.365 4.365h-22.554a4.354 4.354 0 0 1-4.356-4.365v-16.33a4.354 4.354 0 0 1 4.356-4.365h22.554A4.361 4.361 0 0 1 278 89.726z" class="colorf3f6fd svgShape"/><path fill="#f7960d" d="M256.919 97.682c-.449-.54-.672-1.225-.672-2.057s.223-1.517.672-2.055c.448-.54 1.083-.809 1.904-.809s1.456.27 1.904.809c.448.538.672 1.223.672 2.055s-.224 1.518-.672 2.057-1.083.808-1.904.808-1.456-.269-1.904-.808zm2.976-.744c.256-.342.384-.778.384-1.313 0-.533-.128-.97-.384-1.311-.256-.342-.613-.513-1.072-.513s-.817.171-1.072.513c-.256.34-.384.778-.384 1.311 0 .535.128.971.384 1.313s.613.512 1.072.512.816-.17 1.072-.512zm-1.44 7.272a.497.497 0 0 1-.16-.376.5.5 0 0 1 .08-.271l6.512-10.418a.502.502 0 0 1 .449-.256c.16 0 .29.043.391.128a.437.437 0 0 1 .153.352.646.646 0 0 1-.113.352l-6.464 10.354a.661.661 0 0 1-.208.208.514.514 0 0 1-.64-.073zm4.96-.528c-.448-.538-.671-1.224-.671-2.056s.223-1.517.672-2.056c.448-.538 1.082-.808 1.904-.808.821 0 1.456.27 1.904.808.448.539.672 1.224.672 2.056s-.224 1.518-.672 2.056c-.448.539-1.083.809-1.904.809-.822 0-1.456-.27-1.904-.809zm2.976-.743c.257-.342.385-.78.385-1.313s-.128-.97-.385-1.312c-.256-.341-.613-.512-1.071-.512-.459 0-.816.171-1.072.512-.256.342-.384.78-.384 1.312s.128.971.384 1.313c.256.34.613.512 1.072.512.458 0 .815-.171 1.071-.512z" class="colorfe4c40 svgShape"/></svg>