<svg xmlns="http://www.w3.org/2000/svg" xmlns:xlink="http://www.w3.org/1999/xlink" viewBox="0 0 200 200"><defs><linearGradient id="a" x1="87.672" x2="116.541" y1="91.827" y2="133.553" gradientUnits="userSpaceOnUse"><stop offset="0" stop-color="#ffffff" class="stopColorfff svgShape"/><stop offset=".064" stop-color="#e3e3e3" class="stopColore3e3e3 svgShape"/><stop offset=".211" stop-color="#a7a7a7" class="stopColora7a7a7 svgShape"/><stop offset=".357" stop-color="#747474" class="stopColor747474 svgShape"/><stop offset=".499" stop-color="#4b4b4b" class="stopColor4b4b4b svgShape"/><stop offset=".637" stop-color="#2a2a2a" class="stopColor2a2a2a svgShape"/><stop offset=".769" stop-color="#131313" class="stopColor131313 svgShape"/><stop offset=".893" stop-color="#050505" class="stopColor050505 svgShape"/><stop offset="1" stop-color="#000000" class="stopColor000000 svgShape"/></linearGradient><linearGradient id="d" x1="202.917" x2="217.341" y1="63.836" y2="63.836" gradientTransform="matrix(-1 0 0 1 280.25 0)" gradientUnits="userSpaceOnUse"><stop offset="0" stop-color="#ffffff" class="stopColorfff svgShape"/><stop offset=".006" stop-color="#fcfcfc" class="stopColorfcfcfc svgShape"/><stop offset=".126" stop-color="#c1c1c1" class="stopColorc1c1c1 svgShape"/><stop offset=".249" stop-color="#8e8e8e" class="stopColor8e8e8e svgShape"/><stop offset=".372" stop-color="#f7960d" class="stopColor626262 svgShape"/><stop offset=".496" stop-color="#3f3f3f" class="stopColor3f3f3f svgShape"/><stop offset=".62" stop-color="#232323" class="stopColor232323 svgShape"/><stop offset=".745" stop-color="#101010" class="stopColor101010 svgShape"/><stop offset=".871" stop-color="#040404" class="stopColor040404 svgShape"/><stop offset="1" stop-color="#000000" class="stopColor000000 svgShape"/></linearGradient><linearGradient id="f" x1="99.771" x2="112.435" y1="45.186" y2="63.149" xlink:href="#a"/><linearGradient id="c" x1="79.185" x2="83.279" y1="76.636" y2="76.636" gradientUnits="userSpaceOnUse"><stop offset="0" stop-color="#f7c074" class="stopColor74f4f7 svgShape"/><stop offset=".002" stop-color="#f6c074" class="stopColor74f3f6 svgShape"/><stop offset=".141" stop-color="#d9a55d" class="stopColor5dc1d9 svgShape"/><stop offset=".281" stop-color="#c08f4a" class="stopColor4a95c0 svgShape"/><stop offset=".423" stop-color="#ab7c3b" class="stopColor3b72ab svgShape"/><stop offset=".565" stop-color="#9b6e2f" class="stopColor2f569b svgShape"/><stop offset=".707" stop-color="#906426" class="stopColor264390 svgShape"/><stop offset=".852" stop-color="#895d21" class="stopColor213789 svgShape"/><stop offset="1" stop-color="#875b1f" class="stopColor1f3387 svgShape"/></linearGradient><linearGradient id="b" x1="82.717" x2="80.989" y1="87.219" y2="113.601" gradientUnits="userSpaceOnUse"><stop offset="0" stop-color="#f7c074" class="stopColor74f4f7 svgShape"/><stop offset=".067" stop-color="#f6c47e" class="stopColor7ef3f6 svgShape"/><stop offset=".295" stop-color="#f4ce99" class="stopColor99f2f4 svgShape"/><stop offset=".527" stop-color="#f2d5ac" class="stopColoracf1f2 svgShape"/><stop offset=".76" stop-color="#f1d9b8" class="stopColorb8f0f1 svgShape"/><stop offset="1" stop-color="#f1dbbc" class="stopColorbcf0f1 svgShape"/></linearGradient><linearGradient id="g" x1="86.278" x2="87.552" y1="85.049" y2="115.07" xlink:href="#b"/><linearGradient id="h" x1="84.841" x2="84.36" y1="72.401" y2="94.13" xlink:href="#c"/><linearGradient id="i" x1="98.005" x2="104.863" y1="91.706" y2="99.398" gradientTransform="rotate(-6.851 130.458 146.41)" xlink:href="#d"/><linearGradient id="j" x1="97.749" x2="95.409" y1="72.108" y2="77.772" gradientTransform="rotate(-6.851 130.458 146.41)" xlink:href="#c"/><linearGradient id="e" x1="113.866" x2="117.414" y1="61.68" y2="67.138" gradientUnits="userSpaceOnUse"><stop offset="0" stop-color="#c68326" class="stopColor2654c6 svgShape"/><stop offset=".154" stop-color="#c9872c" class="stopColor2c6ec9 svgShape"/><stop offset=".361" stop-color="#cd8c31" class="stopColor3189cd svgShape"/><stop offset=".571" stop-color="#cf8f36" class="stopColor369ccf svgShape"/><stop offset=".783" stop-color="#d19138" class="stopColor38a8d1 svgShape"/><stop offset="1" stop-color="#d19139" class="stopColor39acd1 svgShape"/></linearGradient><linearGradient id="k" x1="116.377" x2="118.556" y1="99.741" y2="72.5" xlink:href="#b"/><linearGradient id="l" x1="118.693" x2="124.239" y1="83.668" y2="83.668" xlink:href="#b"/><linearGradient id="m" x1="119.136" x2="120.098" y1="58.898" y2="86.139" xlink:href="#e"/><linearGradient id="n" x1="114.362" x2="121.847" y1="77.371" y2="77.371" xlink:href="#d"/><linearGradient id="o" x1="123.198" x2="126.888" y1="63.951" y2="63.951" xlink:href="#e"/></defs><g data-name="Layer 1" fill="#ffa30f" class="color000 svgShape"><g data-name="Contact Insurance Agent" fill="#ffa30f" class="color000 svgShape"><path fill="#ffffff" d="M36.182 92.35c-18.137 5.21-22.844 26.007 0 33.499s23.24-1.222 33.116 16.519c8.847 15.892 24.281 18.715 42.417 14.544 17.158-3.947 12.26-23.37 23.837-32.36 8.392-6.516 17.992-7.666 32.61-9.395 19.659-2.325 10.562-34.118-14.91-36.56s-43.863 4.2-50.655-5.738-32.308-4.471-37.041 6.797S48.294 88.87 36.182 92.35Z" class="colorfff svgShape"/><path fill="#efdabe" d="m146.05 102.16-31.27 19.382-24.86 15.419a7.364 7.364 0 0 1-7.02.158L55.707 120.5l-1.925-1.177c-.18-.136-.362-.25-.498-.363-.068-.068-.09-.113-.135-.113-1.155-1.132-1.699-4.845-.068-5.955l.068-.068 10.279-5.864 31.246-17.887 15.261-8.717a7.345 7.345 0 0 1 3.759-.997 6.113 6.113 0 0 1 3.215.815l18.113 11.05 9.76 5.955 1.992-1.517h.022c1.834 1.11 2.151 4.596-.747 6.498Z" class="colorefdcbe svgShape"/><path fill="#634315" d="m146.05 99.239-29.096 18.046-27.035 16.755a7.303 7.303 0 0 1-7.019.159l-23.978-14.65-5.14-3.147a2.824 2.824 0 0 1-.498-.362c-.068-.046-.09-.114-.135-.114a2.086 2.086 0 0 1-.068-3.034l.068-.068a3.152 3.152 0 0 1 .883-.724l41.05-25.45 14.853-9.215a7.28 7.28 0 0 1 6.974-.181l21.6 13.177h.023l6.25 3.827 1.267.792a2.468 2.468 0 0 1 .725.612c1.041 1.086.77 2.536-.725 3.577Z" class="color152863 svgShape"/><path fill="#f7f4ef" d="m144.078 99.753-53.524 33.192a3.066 3.066 0 0 1-2.922.072l-3.53-2.16-1.448-.875-1.397-.84-4.54-2.805-.743-.443-4.826-2.929-15.479-9.47c-.756-.468-.725-1.29.098-1.8l53.525-33.192a3.05 3.05 0 0 1 2.898-.058l31.963 19.522c.794.478.749 1.276-.075 1.786ZM133.77 89.805l-8.224-5.024c-.253-.155-.239-.418.033-.586a.996.996 0 0 1 .952-.025l8.225 5.024c.254.155.239.418-.033.586a.996.996 0 0 1-.952.025ZM124.389 83.467a.995.995 0 0 1-.952.025c-.254-.155-.239-.417.033-.586a.996.996 0 0 1 .952-.025c.254.155.239.418-.033.586Z" class="colorf7f4ef svgShape"/><path fill="#634315" d="M129.751 110.96a1.125 1.125 0 0 1 .445-.878l8.996-5.539c.246-.151.445-.003.445.33a1.125 1.125 0 0 1-.445.878l-8.996 5.538c-.245.151-.445.004-.445-.33ZM124.37 114.273a1.125 1.125 0 0 1 .444-.877l3.614-2.225c.245-.151.445-.004.445.33a1.126 1.126 0 0 1-.445.877l-3.614 2.225c-.245.151-.445.004-.445-.33Z" class="color152863 svgShape"/><path d="M138.51 90.431q-.918.136-1.835.34c-.566.136-1.11.272-1.653.453a8.74 8.74 0 0 0-1.222.43 18.661 18.661 0 0 0-10.144 8.129 39.725 39.725 0 0 0-2.898 7.743 68.877 68.877 0 0 1-3.374 8.785 7.476 7.476 0 0 1-.43.974 75.131 75.131 0 0 1-2.174 4.257L89.92 136.96a7.364 7.364 0 0 1-7.02.158L55.707 120.5c1.02-.362 2.083-.657 3.125-.928.022 0 .068-.023.09-.023 1.608-.407 3.238-.747 4.868-1.087 5.004-1.019 10.053-1.856 14.831-3.668 6.362-2.377 12.408-6.906 14.4-13.404a38.234 38.234 0 0 0 1.087-7.698c.136-1.54.34-3.08.566-4.62.09-.565.181-1.131.272-1.675l.136-.747 14.853-9.215a7.28 7.28 0 0 1 6.974-.181Z" style="mix-blend-mode:overlay" fill="url(#a)"/><path fill="#db922c" d="M62.908 64.394v3.271c0 1.213 1.488 2.334 2.554 1.728l.11-.074 7.222-5.219 2.866.809c.203.055.478-.35.386-.57l-.808-1.819a4.22 4.22 0 0 0 1.23-2.756l.405-1.415.441-1.599a.234.234 0 0 0-.018-.11 1.894 1.894 0 0 0-2.738-1.231l-9.739 5.66a4.205 4.205 0 0 0-1.782 2.499 2.59 2.59 0 0 0-.129.826Z" class="color2cd7db svgShape"/><path fill="#f6ac46" d="M63.753 64.927v3.253c0 1.176.809 1.672 1.82 1.139l.11-.055 7.974-4.649 2.867.808c.202.056.478-.349.386-.55l-.809-1.82a4.302 4.302 0 0 0 1.232-2.775v-3.27a1.211 1.211 0 0 0-.019-.258.234.234 0 0 0-.018-.11c-.147-.937-.937-1.268-1.893-.717l-9.72 5.678a4.37 4.37 0 0 0-1.93 3.326Z" class="color46e8f6 svgShape"/><path fill="#ffffff" d="m71.84 60.694 2.769-1.613a.971.971 0 0 0 .437-.758c0-.278-.196-.39-.437-.25l-2.77 1.614a.971.971 0 0 0-.436.758c0 .278.195.39.437.249ZM68.718 64.646l5.89-3.432a.971.971 0 0 0 .438-.758c0-.279-.196-.39-.437-.25l-5.891 3.432a.971.971 0 0 0-.437.759c0 .278.195.39.437.249Z" class="colorfff svgShape"/><path d="M62.908 64.394v3.271c0 1.213 1.488 2.334 2.554 1.728l.11-.074.11-.055 7.975-4.649 2.867.808c.202.056.478-.349.386-.55l-.809-1.82a4.302 4.302 0 0 0 1.232-2.775V58.11a1.568 1.568 0 0 0-.46.24 3.316 3.316 0 0 0-.643.385 12.929 12.929 0 0 0-1.562 1.452c-.147.147-.276.294-.423.44a27.21 27.21 0 0 1-1.837 1.728 8.492 8.492 0 0 1-.919.68 2.745 2.745 0 0 1-.44.257 2.668 2.668 0 0 1-2.096.312c-.036-.018-.073-.018-.11-.036-.367-.147-.68-.368-1.029-.515a4.357 4.357 0 0 0-2.94-.147c-.184.055-.386.11-.57.184a7.127 7.127 0 0 0-1.267.478 2.59 2.59 0 0 0-.129.826Z" style="mix-blend-mode:overlay" fill="url(#d)"/><path fill="#875b1f" d="M109.183 39.52s-.358 1.061-.961 2.727c-1.565 4.28-4.784 12.573-7.79 17.156-.1-.034-.201-.078-.302-.123-3.465-1.42-5.823-4.884-6.393-10.003a20.51 20.51 0 0 1-.145-2.537v-.425l6.84-8.46 6.829.592a15.864 15.864 0 0 0 1.922 1.073Z" class="color1f3387 svgShape"/><path fill="#f6ac46" d="M109.194 39.944c0 .783-.033 1.587-.112 2.392a40.859 40.859 0 0 1-6.728 18.151 9.108 9.108 0 0 1-2.224-1.207c-2.414-1.777-4.035-4.828-4.493-8.941a22.779 22.779 0 0 1-.134-2.515c0-.134 0-.29.011-.436l6.829-8.46 6.84.592c.011.134.011.28.011.424Z" class="color46e8f6 svgShape"/><path fill="#ffffff" d="M105.716 46a7.875 7.875 0 0 1-3.37 6.267c-1.86 1.072-3.37.004-3.37-2.385a7.875 7.875 0 0 1 3.37-6.267c1.861-1.072 3.37-.004 3.37 2.385Z" class="colorfff svgShape"/><path fill="#875b1f" d="M101.868 51.177a.267.267 0 0 1-.338-.012l-1.347-1.356a.746.746 0 0 1 .064-.823c.186-.301.46-.422.613-.271l.964.971 1.915-5c.128-.336.398-.568.6-.52.203.047.264.357.136.692l-2.238 5.846a.965.965 0 0 1-.343.457Z" class="color1f3387 svgShape"/><path d="M109.082 42.336a40.859 40.859 0 0 1-6.728 18.151 9.108 9.108 0 0 1-2.224-1.207c-3.465-1.42-5.823-4.884-6.393-10.003.637.335 1.263.715 1.9 1.062l.704.369a7.778 7.778 0 0 0 2.996.916 4.25 4.25 0 0 0 2.168-.369.245.245 0 0 0 .09-.056 2.48 2.48 0 0 0 .58-.38 3.616 3.616 0 0 0 1.32-3.397c-.057-.503-.18-.995-.236-1.487a3.049 3.049 0 0 1 .112-1.52 2.552 2.552 0 0 1 .906-1.129 4.542 4.542 0 0 1 .96-.547 6.647 6.647 0 0 1 2.985-.492 10.982 10.982 0 0 1 .86.09Z" style="mix-blend-mode:overlay" fill="url(#f)"/><path fill="url(#c)" d="M82.787 79.88a8.87 8.87 0 0 1-3.6-.204 9.416 9.416 0 0 1 1.245-5.457c.68-.815 1.517-1.222 2.287-.656.928 1.358.52 3.917.068 6.317Z"/><path fill="#ffe1b8" d="M84.463 87.646a4.87 4.87 0 0 1-1.495.815 26.238 26.238 0 0 1-3.374-5.479 16.645 16.645 0 0 1-.407-3.306 8.87 8.87 0 0 0 3.6.204c-.159.86-.34 1.72-.453 2.49Z" class="colorffecb8 svgShape"/><path fill="#ffbf66" d="M81.808 114.54c-.396.281-.126.906.02 1.036a1.082 1.082 0 0 0 1.139.168c.754-.298 2.963-1.294 2.849-1.825-.15-.697-3.438.215-4.008.621Z" class="colord1a86d svgShape"/><path fill="#efdabe" d="M81.808 114.393c-.396.28-.126.906.02 1.036a1.082 1.082 0 0 0 1.139.168c.754-.298 2.963-1.294 2.849-1.825-.15-.697-3.438.215-4.008.62Z" class="colorefdcbe svgShape"/><path fill="url(#b)" d="M81.828 114.363c-.05.967 1.337.783 1.566.132.027.448 1.778-14.543 1.818-16.605a108.426 108.426 0 0 0-.346-13.06l-4.904-.202c-.998.828.279 6.694 1.169 13.586Z"/><path fill="#ffbf66" d="M85.92 116.692c-.395.28-.126.906.022 1.036a1.082 1.082 0 0 0 1.137.168c.754-.298 2.964-1.294 2.85-1.825-.15-.697-3.438.215-4.009.62Z" class="colord1a86d svgShape"/><path fill="#efdabe" d="M85.92 116.544c-.395.282-.126.907.022 1.037a1.082 1.082 0 0 0 1.137.168c.754-.299 2.964-1.294 2.85-1.825-.15-.697-3.438.215-4.009.62Z" class="colorefdcbe svgShape"/><path fill="url(#g)" d="M85.94 116.515c-.049.967 1.337.783 1.567.132.027.447 1.778-14.543 1.818-16.605a108.444 108.444 0 0 0-.346-13.061l-4.905-.201c-.997.828.28 6.693 1.17 13.586Z"/><path fill="url(#h)" d="M79.598 89.9c.09 2.151 7.283 1.96 9.877-.953-1.006-6.527.082-8.262-.437-12.965-.308-1.74-5.927-3.878-7.663-2.383-1.678 2.544-1.919 8.103-1.777 16.3Z"/><path fill="#634315" d="M97.512 92.216c-.006-.047-.006-.047-.06-.09a.175.175 0 0 0-.147-.03l-.006-.047c-.207-.12-.504-.18-.557-.222-.059-.09-.112-.132-.202-.073l-.042.054-.089.059-.268.176-.09.06a1.762 1.762 0 0 0-.35-.923 1.08 1.08 0 0 0-1.497-.013l-2.883 2.082a3.927 3.927 0 0 0-1.292 3.289l-.446.294a.611.611 0 0 0-.198.361.924.924 0 0 0-.085.493l.668 5.56c.034.284.709.685 1.041.645a.148.148 0 0 0 .09-.059l6.121-5.218a1.126 1.126 0 0 0 .372-.912l-.021-5.396-.006-.048Zm-6.738 3.702a2.776 2.776 0 0 1 .356-1.055.696.696 0 0 1 .233-.462 1.289 1.289 0 0 1 .34-.378l2.883-2.082c.4-.289.69-.276.825.045.107.084.13.274.153.464l-2.526 1.846-1.728 1.268-.53.401Z" class="color152863 svgShape"/><path fill="#875b1f" d="m97.635 92.442.668 5.56a1.127 1.127 0 0 1-.372.912l-6.737 4.907a.066.066 0 0 1-.095.011.148.148 0 0 1-.09.06c-.142.016-.302-.109-.33-.347l-.669-5.56a.888.888 0 0 1 .055-.343.366.366 0 0 1 .067-.25.811.811 0 0 1 .25-.318l.358-.236-.005-.048.494-.3-.006-.047 4.92-3.58.137-.065.483-.396.446-.294.096-.012a.175.175 0 0 1 .148.03c.053.043.053.043.059.09l.005.048.048-.006.006.048a.176.176 0 0 1 .064.136Z" class="color1f3387 svgShape"/><path fill="#f6ac46" d="m97.512 92.216.005.048.012.095-.184 2.48a.586.586 0 0 1-.234.462l-.488.348-3.545 2.595-1.99 1.492a.213.213 0 0 1-.302-.108l-.428-1.154-.228-.695c-.006-.048-.059-.09-.065-.137a.366.366 0 0 1 .067-.25.479.479 0 0 1 .161-.26l.09-.058.357-.236-.005-.048.494-.3-.006-.047 4.92-3.58.137-.065.483-.396.446-.294a.167.167 0 0 0 .09-.06c.095-.01.148.031.154.079.053.041.053.041.059.09Z" class="color46e8f6 svgShape"/><path fill="#875b1f" d="m96.763 92.403-.483.395a1.717 1.717 0 0 0-.158-.511c-.182-.316-.437-.43-.71-.3a.372.372 0 0 0-.37.14L92.16 94.21a2.391 2.391 0 0 0-.85 1.355 2.798 2.798 0 0 0-.087.879l.006.047-.489.348-.005-.048a2.43 2.43 0 0 1 .045-.825l-.006-.047a2.776 2.776 0 0 1 .356-1.055.696.696 0 0 1 .233-.462 2.837 2.837 0 0 1 .722-.81l2.878-2.129a1.289 1.289 0 0 1 .737-.282 1.002 1.002 0 0 1 .658.259.715.715 0 0 1 .182.315 1.527 1.527 0 0 1 .223.648ZM94.308 96.694l-.554.406c-.101.074-.196.024-.213-.112a.449.449 0 0 1 .154-.38l.554-.406c.1-.074.196-.024.212.112a.448.448 0 0 1-.153.38Z" class="color1f3387 svgShape"/><path d="m97.635 92.442.668 5.56a1.127 1.127 0 0 1-.372.912l-6.737 4.907a.066.066 0 0 1-.095.011.148.148 0 0 1-.09.06c-.332.04-1.007-.362-1.041-.647l-.548-4.561a.176.176 0 0 1 .136-.065c.143-.017.327-.088.517-.11l.286-.035c.617-.074 1.199-.047 1.822-.074a5.783 5.783 0 0 0 .897-.156 5.723 5.723 0 0 0 1.956-.573 3.098 3.098 0 0 0 1.589-2.022c-.006-.048.036-.1.03-.148a7.257 7.257 0 0 0-.51-2.638 2.326 2.326 0 0 1-.02-.576.36.36 0 0 1 .018-.244l.091-.444c.042-.054.037-.101.126-.16a.715.715 0 0 1 .182.315c.09-.059.143-.017.202.073.053.042.35.102.557.222.095-.012.148.03.154.078.053.042.053.042.059.09l.053.04.006.049a.176.176 0 0 1 .064.136Z" style="mix-blend-mode:overlay" fill="url(#i)"/><path fill="#ffe1b8" d="m93.467 91.275-1.004.49a78.02 78.02 0 0 1-1.426-1.391 26.692 26.692 0 0 1-3.973-5.077 12.371 12.371 0 0 1-.126-8.815 2.346 2.346 0 0 1 2.192-.893 32.83 32.83 0 0 1 .602 8.801l2.704 4.99Z" class="colorffecb8 svgShape"/><path fill="#ffe1b8" d="M92.471 91.758a1.97 1.97 0 0 0 .873 1.587.955.955 0 0 0 1.273-.108c.223-.347-.422-2.16-1.488-2.155s-.658.676-.658.676Z" class="colorffecb8 svgShape"/><path fill="url(#j)" d="M89.846 82.63a9.962 9.962 0 0 1-3.835-.406 9.206 9.206 0 0 1 .929-5.744c.577-.89 1.385-1.375 2.195-.903 1.19 1.363.914 4.383.71 7.053Z"/><path fill="#ffe1b8" d="M83.719 73.109c.088.678 1.269.889 2.204.532-.266-.517-.199-.657-.103-1.798l-1.46-.174a3.223 3.223 0 0 1-.641 1.44Z" class="colorffecb8 svgShape"/><path fill="#ffe1b8" d="m83.402 69.313.31 2.711c1.167.401 2.443.977 2.942.317.79-1.747 1.176-4.141.361-4.674Z" class="colorffecb8 svgShape"/><path fill="#634315" d="M86.145 69.448c1.404.428 2.552-.24 2.38-1.028a.92.92 0 0 0-.924-.753s-.449-1.068-1.319-.942-.847.346-.847.346a1.364 1.364 0 0 0-1.465-.355 1.524 1.524 0 0 0-.719 1.687s-1.233.548-1.01 1.644a1.524 1.524 0 0 0 1.16 1.25s-.15 1.37.826 1.542a1.906 1.906 0 0 0 1.601-.454s-.111-.83-.556-1.002-.748-.925-.451-1.164.588.205.725.48a.923.923 0 0 0 .565.365s.36-.178 0-.503.034-1.113.034-1.113Z" class="color152863 svgShape"/><path fill="#ffe1b8" d="M114.616 66.882a6.464 6.464 0 0 1-3.305 1.788c-1.857-.067-9.08-4.21-9.08-4.21l.362-1.02 8.514 2.536 1.653-1.834a12.157 12.157 0 0 0 1.856 2.74Z" class="colorffecb8 svgShape"/><path fill="url(#e)" d="M115.748 65.229c.159.226-.34.928-1.132 1.653a4.027 4.027 0 0 1-1.856-2.74l3.373-3.736a44.34 44.34 0 0 0-.385 4.823Z"/><path fill="#634315" d="M116.61 93.875c-.592 1.472-.906 1.332-1.969 2.27-1.207 1.065-.372 1.08.26 1.1a1.934 1.934 0 0 0 1.876-1.1 1.213 1.213 0 0 1 1.126-.722l.309.757.343-.17-.119-.823s.181-1.155-.317-1.534a1.692 1.692 0 0 1-1.51.222Z" class="color152863 svgShape"/><path fill="url(#k)" d="m116.611 93.97-.474-25.447 5.414.766-3.457 24.63c-.04.498-1.432.807-1.483.052Z"/><path fill="#634315" d="M120.907 96.245c-.591 1.472-.905 1.331-1.968 2.27-1.207 1.065-.372 1.08.259 1.1a1.934 1.934 0 0 0 1.876-1.1 1.213 1.213 0 0 1 1.127-.723l.309.758.343-.17-.12-.823s.182-1.156-.316-1.534a1.692 1.692 0 0 1-1.51.222Z" class="color152863 svgShape"/><path fill="url(#l)" d="m120.909 96.34-2.216-25.798 5.546 1.117-1.847 24.63c-.04.498-1.433.806-1.483.051Z"/><path fill="url(#m)" d="M115.233 82.834c.687-2.755 3.255-2.54 4.868.686s5.415 2.396 5.415 2.396c-1.277-3.082-1.457-4.075-.606-7.105.483-1.722.517-3.064-.265-6.486s-.437-8.994.1-10.362-6.355-3.422-8.603-1.564c-.49 2.441-2.896 3.395-.909 7.091.794 1.74 1.375 4.19-.322 9.141-.939 2.737-.606 5.89.322 6.203Z"/><path fill="#ffe1b8" d="M102.222 64.456a4.046 4.046 0 0 1-1.007.108c-.686-.182-1.09-.657-1.793-1.487-.05-.213-.167-.446.177-.282l1.048.654a3.164 3.164 0 0 0 1.95-.02Z" class="colorffecb8 svgShape"/><path fill="#f7f4ef" d="M121.841 77.6a1.068 1.068 0 0 1-.265.81l-2.228 2.525a1.112 1.112 0 0 1-1.574.109l-2.228-1.964-1.356-1.2a1.094 1.094 0 0 1-.093-1.558l.25-.296.28-.312 1.433-1.636.265-.296a1.031 1.031 0 0 1 .717-.358 1.059 1.059 0 0 1 .841.265l3.584 3.147a1.09 1.09 0 0 1 .374.764Z" class="colorf7f4ef svgShape"/><path fill="#efdabe" d="M116.185 74.359a.382.382 0 0 1-.094.25l-1.215 1.386a.372.372 0 0 1-.53.031.39.39 0 0 1-.125-.28.382.382 0 0 1 .094-.25l.047-.062 1.168-1.325a.372.372 0 0 1 .53-.03.39.39 0 0 1 .125.28Z" class="colorefdcbe svgShape"/><path fill="#f6ac46" d="M114.594 76.646h1.847v.264h-1.847z" transform="rotate(-48.659 115.517 76.778)" class="color46e8f6 svgShape"/><path fill="#f6ac46" d="M115.119 77.107h1.847v.264h-1.847z" transform="rotate(-48.661 116.042 77.24)" class="color46e8f6 svgShape"/><path fill="#f6ac46" d="M116.499 76.161h4.106v3.565h-4.106z" transform="rotate(-48.66 118.553 77.943)" class="color46e8f6 svgShape"/><path d="M121.841 77.6a1.068 1.068 0 0 1-.265.81l-2.228 2.525a1.112 1.112 0 0 1-1.574.109l-2.228-1.964a.538.538 0 0 0 .171-.156 1.102 1.102 0 0 0 .187-.576.306.306 0 0 0 .016-.11v-.062a1.473 1.473 0 0 0-.078-.514.94.94 0 0 0-.093-.296 1.579 1.579 0 0 0-.203-.436.93.93 0 0 0-.14-.234 1.99 1.99 0 0 0-.203-.296c-.109-.14-.202-.265-.327-.405-.078-.094-.156-.187-.25-.28-.077-.094-.17-.188-.264-.281l1.168-1.325a.372.372 0 0 1 .53-.03l.265-.297a1.031 1.031 0 0 1 .717-.358 3.024 3.024 0 0 0 .016 1.122 3.092 3.092 0 0 0 .763 1.527 3.238 3.238 0 0 0 1.215.872 10.495 10.495 0 0 0 1.964.421.78.78 0 0 1 .187.031 5.277 5.277 0 0 1 .654.203Z" style="mix-blend-mode:overlay" fill="url(#n)"/><path fill="#ffe1b8" d="M127.205 68.24c-.656 1.744-6.95 7.223-6.95 7.223l-.839-.702 5.163-7.2c-.113-.294-.227-.589-.34-.86a4.966 4.966 0 0 0 2.65-1.45 5.699 5.699 0 0 1 .316 2.99Z" class="colorffecb8 svgShape"/><path fill="#ffe1b8" d="M120.253 75.457s-.036.879-.32.969-2.025.527-1.767-.473a1.672 1.672 0 0 1 1.24-1.187ZM119.009 59.634c1.41 0 .5-2.542.5-2.542l2.014.285s-.805 1.634.133 2.622c-.044 1.374-3.356 1.11-2.647-.365Z" class="colorffecb8 svgShape"/><path fill="#ffe1b8" d="M118.78 54.882a3.944 3.944 0 0 0 .28 3.894c.71.757 1.957.127 3.068-.15l-.172-3.97Z" class="colorffecb8 svgShape"/><path fill="#634315" d="M124.558 52.974a1.682 1.682 0 1 0-3.363 0 1.633 1.633 0 0 0 .094.467 2.232 2.232 0 0 0-1.561.155c-1.774.819-2.028 1.622-1.888 2.024a1.556 1.556 0 0 0 2.093 1.115c.636-.16.272 1.763 1.386 2.166s2.188-1.347 1.879-3.053a3.763 3.763 0 0 0-.444-1.217c.042.003.079.025.123.025a1.682 1.682 0 0 0 1.681-1.682Z" class="color152863 svgShape"/><path fill="#f6ac46" d="M122.877 54.94a.26.26 0 0 1-.07-.009c-.065-.018-1.577-.42-1.794-1.43a.283.283 0 0 1 .553-.12c.12.555 1.04.911 1.382 1.002a.283.283 0 0 1-.07.557Z" class="color46e8f6 svgShape"/><path fill="url(#o)" d="M126.888 65.251a4.966 4.966 0 0 1-2.649 1.45 15.99 15.99 0 0 1-1.041-4.46 1.115 1.115 0 0 1 2.037-.544 15.175 15.175 0 0 1 1.653 3.554Z"/></g></g></svg>