<svg xmlns="http://www.w3.org/2000/svg" enable-background="new 0 0 3800 3000" viewBox="0 0 3800 3000"><path fill="#ffa30f" d="M3520.8,2694.5H355.18c0,0-473.07-473.07-132.64-884.25S921.1,1549.4,1336.7,1076.32   c415.6-473.07,583.61-822.35,1211.42-804.67C3175.94,289.34,4042.51,1208.96,3520.8,2694.5z" class="colore7ebf2 svgShape"/><rect width="1144.1" height="887.96" x="763.08" y="1801.98" fill="#f7e2c4" class="colord4c4f7 svgShape"/><rect width="1075.8" height="294.56" x="797.24" y="1831.86" fill="#fbe6c8" class="colorc8d9fb svgShape"/><rect width="1075.8" height="505.17" x="797.24" y="2156.31" fill="#fbe6c8" class="colorc8d9fb svgShape"/><rect width="79.69" height="253.3" x="865.54" y="1875.97" fill="#a09380" class="color8093a0 svgShape"/><rect width="79.69" height="253.3" x="948.07" y="1875.97" fill="#8c7d69" class="color69808c svgShape"/><rect width="79.69" height="253.3" x="1201.96" y="1875.97" fill="#a09380" class="color8093a0 svgShape"/><rect width="79.69" height="253.3" x="1284.5" y="1875.97" fill="#8c7d69" class="color69808c svgShape"/><rect width="79.69" height="253.3" x="1659.58" y="2401.07" fill="#a09380" class="color8093a0 svgShape"/><rect width="79.69" height="253.3" x="1742.12" y="2401.07" fill="#8c7d69" class="color69808c svgShape"/><rect width="63.96" height="253.3" x="936.02" y="2501.43" fill="#a09380" transform="rotate(-90 967.998 2628.076)" class="color8093a0 svgShape"/><rect width="63.96" height="253.3" x="936.02" y="2366.95" fill="#a09380" transform="rotate(-90 967.998 2493.6)" class="color8093a0 svgShape"/><rect width="63.96" height="253.3" x="968.04" y="2435.18" fill="#8c7d69" transform="rotate(-90 1000.016 2561.83)" class="color69808c svgShape"/><rect width="63.96" height="253.3" x="1287.15" y="2501.43" fill="#a09380" transform="rotate(-90 1319.126 2628.076)" class="color8093a0 svgShape"/><rect width="63.96" height="253.3" x="1287.15" y="2366.95" fill="#a09380" transform="rotate(-90 1319.126 2493.6)" class="color8093a0 svgShape"/><rect width="63.96" height="253.3" x="1319.16" y="2435.18" fill="#8c7d69" transform="rotate(-90 1351.144 2561.83)" class="color69808c svgShape"/><rect width="63.96" height="253.3" x="1160.5" y="2302.99" fill="#8c7d69" transform="rotate(-90 1192.477 2429.64)" class="color69808c svgShape"/><rect width="79.69" height="253.3" x="1074.72" y="1873.13" fill="#a09380" transform="rotate(-27.994 1114.57 1999.69)" class="color8093a0 svgShape"/><g fill="#000000" class="color000 svgShape"><path fill="#896027" d="M1672.61,2034.72c-0.02,0.71-0.04,1.44-0.04,2.18c1.43-0.91,2.91-1.79,4.43-2.62      c1.87-4.72,3.43-9.42,4.45-13.97c2.52-11.33,4.68-20.37,11.74-29.85c13.97-18.83,30.97-31.43,51.97-41.06      c2.2-1,4.26,0.23,5.11,1.91c0.79,1.54,0.56,3.43-1.46,4.37c-22.26,10.19-52.57,30.14-58.08,56.17      c-1.14,5.34-2.64,10.6-4.34,15.78c-0.25,0.77-0.52,1.54-0.77,2.29c3.18-1.56,6.26-3.08,8.92-4.72      c19.08-11.72,26.03-28.9,50.68-23.51c1.31,0.29,2.08,1.06,2.41,2.02c0.81,2.35-1.1,5.68-4.34,4.97      c-19.81-4.32-30.45,12.7-45.09,22.8c-4.16,2.87-10.39,5.18-16.17,8.07c-4.26,10.6-9.31,20.93-14.53,31.01      c-0.91,1.75-2.54,2.12-3.95,1.64c-1.95-0.64-3.51-2.85-2.35-5.22c-1.18-0.06-2.37-0.54-3.03-1.48      c-0.23-0.02-0.44-0.12-0.66-0.17c-0.37,0.25-0.79,0.46-1.23,0.58c-0.85,0.25-1.81,0.23-2.68-0.12      c-0.91-0.33-1.69-1.04-2.14-2.14c-0.06-0.19-0.12-0.39-0.19-0.58c-0.29-0.13-0.62-0.23-0.94-0.37c-1.02,0-2.08-0.35-2.87-1.16      c-16.36-6.38-35.57-9.6-45.11-25.8c-11.27-19.13-17.05-42.1-39.33-50.68c-0.81-0.31-1.64-0.62-2.5-0.89      c-0.71-0.23-1.25-0.6-1.64-1.06c-2.12-2.39-0.19-7.13,3.57-5.93c1.91,0.62,3.72,1.31,5.45,2.08      c15.4,6.78,23.95,19.58,31.51,35.09c7.34,15.09,13.68,28.56,31.76,33.22c1.43,0.37,2.81,0.79,4.2,1.23      c1.21,0.4,2.41,0.83,3.6,1.27c-3.37-3.43-7.01-6.71-9.54-9.94c-5.57-7.13-10.71-14.55-18.04-20.02      c-2.87-2.14-1.35-6.4,1.21-6.92c0.77-0.15,1.6,0.02,2.45,0.65c8.69,6.48,14.4,15.01,21.2,23.26c1.5,1.81,3.16,3.56,4.88,5.3      c1.58,1.64,3.22,3.26,4.8,4.93c-1.08-2.58-2.35-5.09-4.09-7.36c-4.3-5.63-8.27-11.22-11.68-17.44      c-4.09-7.42-8.17-16.09-14.65-21.76c-6.01-5.22-13.08-9.52-18.92-14.95c-12.31-11.48-5.22-19.6-10.54-33.88      c-4.55-12.22-18.08-23.09-25.57-34.2c-1.85-2.72,0.66-5.3,3.24-5.3c1.12,0,2.24,0.48,3.03,1.64      c7.15,10.58,20.33,19.85,24.82,31.93c2.56,6.92,2.52,12.37,2.77,19.64c0.48,14.03,13.18,18.58,21.76,26.03      c17.19,14.97,28.69,37.17,37.65,58.43c0.73,1.75,1.46,3.49,2.16,5.22c1.06-13.3,1.02-29.68-3.2-41.03      c-4.07-10.87-16.48-23.45-16.9-35.4c-0.58-16.32,11.68-36.9-2.35-50.6c-0.19-0.21-0.4-0.4-0.62-0.6      c-10.83-9.89-25.32-16.8-40.18-16.63c-2.56,0.02-3.72-2.12-3.49-4.08c0.17-1.64,1.35-3.16,3.49-3.18      c15.9-0.17,34.43,6.69,45.28,19.08c0.04,0.02,0.04,0.04,0.06,0.06c5.18,5.95,8.59,13.18,9.08,21.52      c0.79,13.68-7.82,29.35-0.48,42.24c2.37,4.14,5.12,8.42,7.5,12.8c1.08,1.96,2.06,3.93,2.91,5.93      c-0.64-5.3-1.33-11.37,0.42-16.28c2.14-6.07,7.11-13.28,7.98-19.33c1.81-12.78-1.04-25.26,3.64-37.58      c4.41-11.48,16.46-16.88,22.45-27.25c1.23-2.14,3.55-2.14,5.13-1.06c1.43,0.96,2.26,2.79,1.14,4.72      c-7.73,13.41-24.09,19.96-24.49,37.42c-0.23,10.14,1.72,21.43-2.74,30.97c-4.28,9.13-5.61,17.9-5.59,26.75      c0,4.45,0.35,8.92,0.85,13.47c1.23-16.94,5.03-33.86,16.26-45.71c19.62-20.69,47.91-25.9,66-48.54      c1.79-2.25,4.43-1.16,5.51,0.89c0,0.02,0,0.02,0,0.02c0.66,1.25,0.71,2.85-0.39,4.24c-6.38,7.98-13.93,15.86-22.83,21.14      c-8.54,5.07-18.44,7.59-26.65,13.24C1677.85,1980.36,1673.17,2006.18,1672.61,2034.72z" class="color27897a svgShape"/><linearGradient id="a" x1="3369.593" x2="3527.462" y1="1821.121" y2="2084.585" gradientTransform="translate(-1792.738)" gradientUnits="userSpaceOnUse"><stop offset="0" stop-color="#ecc897" class="stopColor99ec97 svgShape"/><stop offset=".772" stop-color="#906e3e" class="stopColor3e9077 svgShape"/></linearGradient><path fill="url(#a)" d="M1753.56,1923.92c0,0.02,0,0.02,0,0.02c-0.13,0.19-0.25,0.39-0.4,0.58c-6.55,8.19-14.3,16.26-23.41,21.68      c-8.75,5.22-19.15,7.46-27.33,13.59c-37.42,28.04-29.85,76.39-29.85,77.12c1.43-0.91,2.91-1.79,4.43-2.62      c1.87-4.72,3.43-9.42,4.45-13.97c2.52-11.33,4.68-20.37,11.74-29.85c13.97-18.83,30.97-31.43,51.97-41.06      c2.2-1,4.26,0.23,5.11,1.91c-0.29,0.58-0.81,1.06-1.58,1.43c-22.84,10.46-53.92,30.89-59.58,57.58      c-1.31,6.3-3.14,12.47-5.22,18.56c0.85-0.4,1.68-0.83,2.51-1.23c-0.25,0.77-0.52,1.54-0.77,2.29c3.18-1.56,6.26-3.08,8.92-4.72      c19.08-11.72,26.03-28.9,50.68-23.51c1.31,0.29,2.08,1.06,2.41,2.02c-0.29,2-2.04,3.93-4.61,3.35      c-20.31-4.43-31.22,13.03-46.23,23.37c-4.28,2.95-10.66,5.32-16.59,8.27c-4.35,10.89-9.52,21.49-14.88,31.81      c-0.46,0.87-1.08,1.41-1.77,1.68c-2.68,1.02-6.34-2-4.68-5.36c-0.94-0.04-1.89-0.35-2.58-0.94c-0.21-0.15-0.39-0.37-0.54-0.58      c-0.23-0.02-0.44-0.11-0.67-0.17c-0.42,0.31-0.93,0.54-1.46,0.64c-0.91-0.33-1.69-1.04-2.14-2.14      c-0.06-0.19-0.12-0.39-0.19-0.58c-0.29-0.13-0.62-0.23-0.94-0.37c-1.02,0-2.08-0.35-2.87-1.16c-16.36-6.38-35.57-9.6-45.11-25.8      c-11.27-19.13-17.05-42.1-39.33-50.68c-1.31-0.71-2.68-1.35-4.14-1.95c-2.12-2.39-0.19-7.13,3.57-5.93      c1.91,0.62,3.72,1.31,5.45,2.08c12.89,7.36,20.68,19.37,27.59,33.63c7.53,15.47,14.03,29.29,32.55,34.05      c2.79,0.71,7.32,1.87,7.32,1.87c1.21,0.4,2.41,0.83,3.6,1.27c-3.37-3.43-7.01-6.71-9.54-9.94      c-5.57-7.13-10.71-14.55-18.04-20.02c-2.87-2.14-1.35-6.4,1.21-6.92c8.32,6.53,13.97,14.91,20.66,23.03      c2.97,3.58,8.63,7.57,7.86,6.19c1.58,1.64,3.22,3.26,4.8,4.93c-1.08-2.58-2.35-5.09-4.09-7.36c-4.3-5.63-8.27-11.22-11.68-17.44      c-4.09-7.42-8.17-16.09-14.65-21.76c-6.01-5.22-13.08-9.52-18.92-14.95c-12.31-11.48-5.22-19.6-10.54-33.88      c-4.55-12.22-18.08-23.09-25.57-34.2c-1.85-2.72,0.66-5.3,3.24-5.3c7.55,9.89,19.48,18.9,23.74,30.39      c2.64,7.07,2.58,12.66,2.85,20.12c0.5,14.38,13.51,19.04,22.3,26.71c19.06,16.59,41.05,62.09,41.14,60.45      c0.73,1.75,1.46,3.49,2.16,5.22c1.06-13.3,1.02-29.68-3.2-41.03c-4.07-10.87-16.48-23.45-16.9-35.4      c-0.58-16.32,11.68-36.9-2.35-50.6c-0.98-1.46-2.2-2.89-3.68-4.24c-10.96-10.02-25.57-17.04-40.6-17.07      c0.17-1.64,1.35-3.16,3.49-3.18c15.9-0.17,34.43,6.69,45.28,19.08c0.04,0.02,0.04,0.04,0.06,0.06      c3.66,5.3,5.99,11.43,6.38,18.29c0.79,14.03-8.04,30.1-0.5,43.32c3.51,6.15,12.28,18.88,13.12,20.89      c-0.64-5.3-1.33-11.37,0.42-16.28c2.14-6.07,7.11-13.28,7.98-19.33c1.81-12.78-1.04-25.26,3.64-37.58      c4.41-11.48,16.46-16.88,22.45-27.25c1.23-2.14,3.55-2.14,5.13-1.06c-0.08,0.19-0.15,0.39-0.27,0.58      c-7.94,13.74-24.7,20.47-25.13,38.37c-0.25,10.41,1.75,21.99-2.81,31.76c-6.57,14.07-3.12,38.08-2.62,42.63      c1.23-16.94,5.03-33.86,16.26-45.71c19.62-20.69,47.91-25.9,66-48.54C1749.84,1920.78,1752.48,1921.88,1753.56,1923.92z"/><path fill="#ffbf66" d="M1693.33,2076.83c-1.12-3.48-2.65-6.81-4.35-10.05c-0.97-1.84-1.99-3.64-3.02-5.44      c-0.39-0.66-2.74-5.63-3.32-5.63h-26.62h-26.64c-0.58,0-2.92,4.97-3.31,5.63c-1.03,1.8-2.06,3.6-3.02,5.44      c-1.7,3.24-3.23,6.57-4.37,10.05c-2.82,8.67-4.21,18.72-1.28,27.51c2.61,7.83,6.92,14.78,12.9,20.59      c6.79,6.6,16.81,6.78,25.72,5.53c8.91,1.25,18.92,1.07,25.72-5.53c5.97-5.8,10.28-12.75,12.89-20.59      C1697.56,2095.55,1696.16,2085.51,1693.33,2076.83z" class="coloreebb48 svgShape"/><path fill="#f7960d" d="M1693.33,2076.83c-1.12-3.48-2.65-6.81-4.35-10.05c-0.97-1.84-1.99-3.64-3.02-5.44      c-0.39-0.66-2.74-5.63-3.32-5.63h-3.53c0.87,1.71,1.74,3.42,2.55,5.16c1.86,3.95,3.53,8.03,4.77,12.28      c3.08,10.6,4.59,22.88,1.39,33.63c-2.4,8.09-6.21,15.35-11.23,21.71c1.84-0.9,3.59-2.04,5.15-3.55      c5.97-5.8,10.28-12.75,12.89-20.59C1697.56,2095.55,1696.16,2085.51,1693.33,2076.83z" opacity=".35" class="coloref4136 svgShape"/></g><g fill="#000000" class="color000 svgShape"><path fill="#ffa30f" d="M2863.65,1692.1h-941.64c0,0-3-981.87-3-992.37c0-160.72,208.12-286.61,473.82-286.61    c265.69,0,473.82,125.89,473.82,286.61C2866.65,710.23,2863.65,1692.1,2863.65,1692.1z" class="colore7ebf2 svgShape"/><g opacity=".5" fill="#000000" class="color000 svgShape"><radialGradient id="b" cx="1899.39" cy="215.582" r="2273.2" gradientUnits="userSpaceOnUse"><stop offset="0" stop-color="#f9dab0" class="stopColorbfb0f9 svgShape"/><stop offset="1" stop-color="#fff0db" class="stopColorefdbff svgShape"/></radialGradient><path fill="url(#b)" d="M1964,1645.71h857.67V727.22l0.47-2.41c1.7-8.74,2.53-16.94,2.53-25.08      c0-130.21-197.76-240.22-431.84-240.22c-234.08,0-431.83,110.01-431.83,240.22c0,8.13,0.83,16.34,2.53,25.08l0.47,2.41V1645.71z      " opacity=".83"/><rect width="182.93" height="763.22" x="1952.76" y="882.9" fill="#bfac91" opacity=".58" class="color9191bf svgShape"/><rect width="212.92" height="626.23" x="2111.69" y="1019.89" fill="#bfac91" opacity=".58" class="color9191bf svgShape"/><rect width="128.95" height="821.93" x="2375.59" y="850.29" fill="#bfac91" opacity=".58" class="color9191bf svgShape"/><rect width="203.92" height="691.47" x="2522.54" y="967.71" fill="#bfac91" opacity=".58" class="color9191bf svgShape"/><rect width="80.97" height="554.48" x="2747.45" y="1098.17" fill="#bfac91" opacity=".58" class="color9191bf svgShape"/><path fill="#ffffff" d="M2863.65,1692.1h-941.64V732.07c-1.99-10.97-3-21.84-3-32.34c0-160.72,208.12-286.61,473.82-286.61       c265.69,0,473.82,125.89,473.82,286.61c0,10.5-1.01,21.37-3,32.34V1692.1z M1964,1645.71h857.67V727.22l0.47-2.41       c1.7-8.74,2.53-16.94,2.53-25.08c0-130.21-197.76-240.22-431.84-240.22c-234.08,0-431.83,110.01-431.83,240.22       c0,8.13,0.83,16.34,2.53,25.08l0.47,2.41V1645.71z" class="colorfff svgShape"/><rect width="21.49" height="1223.76" x="2216.15" y="455.09" fill="#ffffff" class="colorfff svgShape"/><rect width="23.49" height="1223.76" x="2547.03" y="455.09" fill="#ffffff" class="colorfff svgShape"/><rect width="905.65" height="26.51" x="1940.01" y="686.48" fill="#ffffff" class="colorfff svgShape"/><rect width="905.65" height="29.82" x="1940.01" y="1188.46" fill="#ffffff" class="colorfff svgShape"/></g></g><g fill="#000000" class="color000 svgShape"><path fill="#e0bd8d" d="M3530.34,2715.54H345.85c-6.21,0-11.25-5.03-11.25-11.25c0-6.21,5.03-11.25,11.25-11.25h3184.48    c6.21,0,11.25,5.03,11.25,11.25C3541.59,2710.5,3536.55,2715.54,3530.34,2715.54z" class="color9d8de0 svgShape"/></g><g fill="#000000" class="color000 svgShape"><path fill="#fdd7a1" d="M2123.31,1453.93l-31.17,3.98c0,0-39.54-15.5-33.49-6.03c6.05,9.47,18.66,15.87,18.66,15.87       s-3.21,26.87-22.43,21.73c-19.21-5.14-20.93,29.3,14.13,30.25c35.06,0.95,44.57-11.42,46.85-25.84       c2.28-14.42,14.86-20.23,14.86-20.23L2123.31,1453.93z" class="colorfdb4a1 svgShape"/><path fill="#fed397" d="M2503.73,1007.2c0,0-40.69,20.7-48.3,33.22c-27.36,45.05-51.78,209.62-51.78,209.62l-292.83,205.84       l10.31,28.72c0,0,355.6-59.66,426.82-127.27C2619.17,1289.73,2661.92,992.91,2503.73,1007.2z" class="colorfe979a svgShape"/><polygon fill="#fdd7a1" points="2661.79 2630.51 2662.28 2657.97 2687.06 2658.38 2686.09 2630.51" class="colorfdb4a1 svgShape"/><path fill="#6d593e" d="M2570.72,2688.7c0,0-1.61-8.82,2.41-12.55c4.02-3.73,32.18-15.27,55.51-19        c23.33-3.73,59.93-9.16,64.36-3.39c4.42,5.77,2.82,34.6,2.82,34.6L2570.72,2688.7z" class="color3e5e6d svgShape"/><path fill="#4c3d29" d="M2566.04,1531.42c0,0-30.44,234.91-4.49,488.77c16.03,156.78,95.48,624.26,95.48,624.26h39.07       l65.46-634.36c0,0,96.47-391.52,87.49-467.3C2840.06,1467.01,2566.04,1531.42,2566.04,1531.42z" class="color29454c svgShape"/><path fill="#342c20" d="M2849.05,1542.78c-8.99-75.78-283.01-11.37-283.01-11.37s-19.17,147.94-14.11,335.89       c3.35-2.95,6.76-5.83,10.33-8.48c4.7-3.49,10.18-7.17,16.18-7.65c5.64-0.45,10.3,2.62,13.68,6.92       c6.21,7.91,9.26,18.31,11.87,27.85c4.43,16.2,6.79,32.59,7.83,49.33c1,16.16,1.33,32.48,5.02,48.32       c1.97,8.48,4.98,16.5,8.73,24.34c3.79,7.94,7.69,15.77,12.05,23.41c7.22,12.66,15.32,24.91,21.02,38.37       c5.68,13.39,8.35,27.52,10.43,41.84c3.72,25.67,5.53,52.12,1.83,77.9c-3.34,23.26-11.82,46.81-29.97,62.62       c-4.52,3.94-9.54,7.3-14.87,10.05c-6.82,3.51-13.49,7.03-20.77,9.53c-2.77,0.95-5.58,1.77-8.42,2.45       c27.63,178.94,60.17,370.35,60.17,370.35h39.07l65.46-634.36C2761.56,2010.08,2858.03,1618.56,2849.05,1542.78z" opacity=".2" class="color202234 svgShape"/><polygon fill="#fdd7a1" points="2919.17 2642.68 2922.54 2669.04 2946.41 2667.57 2942.53 2640.85" class="colorfdb4a1 svgShape"/><path fill="#59482f" d="M2837.73 2705.49c0 0-2.48-8.36.99-12.25 3.47-3.89 29.33-17.1 51.38-22.45 22.04-5.35 56.67-13.32 61.54-8.11 4.87 5.21 6.37 33.07 6.37 33.07L2837.73 2705.49zM2588.17 1554.64l306.4-23.97 1.57 599.79 51.15 521c0 0-13.78 10.19-31.09 4.4C2883.85 2645.04 2644.89 1964.81 2588.17 1554.64z" class="color2f4d59 svgShape"/><path fill="#342c20" d="M2896.14,2130.46l-1.57-599.79l-306.4,23.97c10.47,75.75,27.16,160.71,47.62,248.96       c4.27-7.24,9.23-14.06,14.95-20.28c11.24-12.22,25.4-21.51,41.37-26.2c18.51-5.44,37.93-4.3,56.5,0.18       c18.61,4.49,36.53,11.98,51.33,24.34c12.62,10.53,22.32,24.08,28.87,39.12c13.92,31.98,14.53,68.49,11.61,102.7       c-1.65,19.35-5.28,38.4-7.38,57.69c-2.79,25.62-3.74,51.43-3.38,77.19c0.76,54.24,7.25,108.32,16.77,161.68       c9.49,53.21,22.1,105.83,36.57,157.89c14.28,51.38,32.78,101.71,38.91,154.96c3.1,26.93,4.51,55.09,1.61,82.1       c-1.46,13.55-1.49,28.26-5.68,41.4c16.53,4.65,29.45-4.9,29.45-4.9L2896.14,2130.46z" opacity=".2" class="color202234 svgShape"/><path fill="#fec473" d="M2895.23,1577.82c-147.4,142.19-270.42,65.16-310.17,51.89c-13.81-4.62-26.54-14.07-38.25-27.4      c-0.59-0.7-1.18-1.4-1.83-2.15c-94.54-111.95-119.52-475.73-109.32-529.67c11.44-60.81,88.26-85.36,88.26-85.36      c85.73-35.88,150.36-13.16,215.14,40.88C2803.85,1080.12,2945.62,1529.21,2895.23,1577.82z" class="colorfe738c svgShape"/><path fill="#23211f" d="M2751.28,1039.64c0.5,12.92,0.93,25.84,0.8,38.78c-0.25,25.41-2.68,51-10.93,75.51      c-4.14,12.3-9.82,24.18-17.03,35.39c-7.89,12.27-18.1,23.17-27.79,34.41c-10.31,11.97-20.47,24.05-30.12,36.42      c-9.12,11.69-17.18,23.83-28.32,34.25c-17.94,16.77-40.71,28.84-60.78,43.57c7.08,0.91,14.18,1.65,21.32,2.09      c21.31,1.31,42.73,0.93,64.05,0.09c10.2-0.41,20.52-0.58,30.66-1.61c8.93-0.9,17.73-2.56,26.47-4.36      c18.32-3.79,36.51-8.55,55.28-10.47c14.37-1.48,28.84-1.28,41.63,5.14c23.2,11.64,34.34,37.46,31.85,59.67      c-1.31,11.72-6.41,22.98-16.29,31.29c-9.59,8.07-22.05,12.91-32.09,20.5c-4.95,3.74-8.99,8.21-11.3,13.54      c-2.92,6.74-2.5,13.33-0.34,20.17c4.48,14.17,13.7,27.17,14.84,42.09c1.82,23.82-12.98,47.58-37.76,58.36      c-23.38,10.16-50.78,11.1-76.22,14.43c-8.03,1.05-15.6,2.45-22.89,5.68c-6.72,2.98-12.64,7.03-18.25,11.35      c-10.4,8-19.97,16.72-33.27,21.15c-9.43,3.14-19.25,3.78-29.04,2.86c40.52,13.95,162.92,89.23,309.46-52.14      C2942.65,1532.07,2819.92,1131.82,2751.28,1039.64z" opacity=".15" class="color231f20 svgShape"/><path fill="#fed397" d="M2541.49,1377.02c-1.45,60.65-1.07,121.4,2.36,182c0.59,14.45,1.67,28.85,2.96,43.3      c-0.59-0.7-1.18-1.4-1.83-2.15c-1.18-13.7-2.15-27.4-3.06-41.04c-3.71-60.65-4.46-121.46-3.28-182.16      c1.34-60.76,4.14-121.4,8.38-182c4.08-60.59,9.35-121.14,16.38-181.46c-5.96,60.43-10.53,120.97-14.5,181.57      C2545.03,1255.67,2542.56,1316.32,2541.49,1377.02z" class="colorfe979a svgShape"/><g fill="#000000" class="color000 svgShape"><path fill="#f8f1e7" d="M2367.38,1457.35c0,0-29.76,79.04-13.87,107.72c0,0-29.19-6.82-70.59-15.42        c-79.03-16.47-202.66-39.66-255.05-35.33c0,0,30.24-51.32,87.93-80.72l50.04,4.72l53.17,5.07l40.25,3.74        c0,0,0.07,0.08,0.18,0.03L2367.38,1457.35z" class="colore7f0f8 svgShape"/><path fill="#dbc9af" d="M2102.95 1503.06c0 0 18.75-38.73 48.23-57.93l10.95.65c0 0-40.73 28.53-46.7 58.9L2102.95 1503.06zM2125.11 1505.89c0 0 9.23-25.78 19.92-33.05l11.83 2.63c0 0-18.86 12.54-21.01 31.7L2125.11 1505.89zM2171.4 1513.04c0 0 18.75-38.73 48.23-57.93l10.95.65c0 0-40.73 28.53-46.7 58.9L2171.4 1513.04zM2232.85 1521.74c0 0 15.43-39.52 43.23-60.03l10.98.14c0 0-38.23 30.34-41.61 60.93L2232.85 1521.74zM2262.35 1527.8c0 0 10.23-40.42 35.25-62.79l10.95-.62c0 0-34.12 32.88-33.53 63.57L2262.35 1527.8zM2193.56 1515.86c0 0 9.23-25.78 19.92-33.05l11.83 2.63c0 0-18.86 12.54-21.01 31.7L2193.56 1515.86z" class="colorafc8db svgShape"/><path fill="#dbc9af" d="M2367.38,1457.35c0,0-29.76,79.04-13.87,107.72c0,0-29.19-6.82-70.59-15.42       c2.96-6.59,9.8-11.8,22.63-13.76c50.78-7.94,36.28-52.81,20.33-71.8c-6.57-7.8-35.01-13.25-66.44-16.93L2367.38,1457.35z" opacity=".51" class="colorafc8db svgShape"/></g><g fill="#000000" class="color000 svgShape"><path fill="#fed397" d="M2456.68,1194.31c0,0,55.09,0.64,57.61-0.03c2.51-0.68,6.1,87.12-8.28,101.13       c-14.38,14.01-31.36,9.2-40.65-38.17C2456.06,1209.86,2456.68,1194.31,2456.68,1194.31z" class="colorfe979a svgShape"/><path fill="#eab263" d="M2456.68,1194.31c0,0,10.34-4.16,28.19-4.57c17.84-0.41,29.42,4.53,29.42,4.53       S2474.54,1203.77,2456.68,1194.31z" class="colorea6380 svgShape"/></g><g fill="#000000" class="color000 svgShape"><path fill="#fdd7a1" d="M2349.18,1494.78l-30.04,9.23c0,0-41.6-8.53-34.02-0.23c7.58,8.3,21.09,12.46,21.09,12.46       s1.41,27.03-18.39,25.24c-19.81-1.79-15.63,32.44,19.08,27.39c34.71-5.04,41.97-18.85,41.75-33.45       c-0.22-14.6,11.2-22.47,11.2-22.47L2349.18,1494.78z" class="colorfdb4a1 svgShape"/><path fill="#fed397" d="M2647.87,989.74c0,0-36.57,27.33-41.93,40.97c-19.28,49.06-15.28,215.37-15.28,215.37l-253.45,252.75       l15.05,26.55c0,0,340.22-119.42,398.87-198.17C2809.79,1248.45,2801.31,948.69,2647.87,989.74z" class="colorfe979a svgShape"/><path fill="#342c20" d="M2757.62,1190.51c-2.15,24.83-9.16,49.06-22.9,70.02c-7.59,11.59-17.31,23.88-28.94,31.59       c-11.34,7.52-24.43,10.76-37.04,15.43c-26.08,9.68-40.67,34.57-58.87,54.03c-19.8,21.16-46.63,33.87-72.05,46.99       c-24.18,12.48-48.57,24.82-70.2,41.5c-11.71,9.03-22.57,19.18-32.26,30.35c-6.14,7.08-11.98,14.24-18.34,21       c101.69-38.9,291.66-117.21,334.12-174.22c39.45-52.97,48.53-205.91,3.56-287.9       C2748.77,1089.7,2761.99,1140.07,2757.62,1190.51z" opacity=".2" class="color202234 svgShape"/></g><g fill="#000000" class="color000 svgShape"><path fill="#60513d" d="M2485.27 867.23c0 0 5.36-4.78 9.12.42 0 0 .83 1.43-.47 1.85s-7.54 2.6-8.89.93C2483.68 868.75 2485.27 867.23 2485.27 867.23zM2486.87 881.49c.01.31.05.6.09.91.59 3.22 2.9 5.47 5.09 5.03 2.19-.4 3.45-3.35 2.83-6.57-.59-3.22-2.9-5.47-5.09-5.03-.25.05-.5.13-.72.25.12.25.2.54.24.82C2489.69 879.02 2488.61 881.02 2486.87 881.49z" class="color603d52 svgShape"/><path fill="#342c20" d="M2565.36,1008.06c0,0,4.76,25.75,22.06,18.79c21.98-8.84,49.72-47.4,10.78-66.65        c0,0,2.23,20.43-1.33,25.7c-11.02,16.34-34.02,5.93-34.02,5.93s-18.62-5.82-20.29-21.64c0,0-33.49,37.95-6.48,52.09        C2554.25,1031.8,2565.36,1008.06,2565.36,1008.06z" opacity=".15" class="color202234 svgShape"/><path fill="#fed397" d="M2564.14,999.37c0,0,4.59,25.04,21.06,18.32c20.93-8.55,47.29-45.98,10.13-64.78        c0,0-2.64,14.76-6.02,19.89c-10.47,15.87-27.61,10.8-27.61,10.8s-17.76-5.7-19.39-21.08c0,0-31.84,36.83-6.07,50.63        C2553.59,1022.43,2564.14,999.37,2564.14,999.37z" class="colorfe979a svgShape"/><path fill="#fdd7a1" d="M2491.23,886.14c-0.73-6.13-1.23-12.09-1.57-17.58c-0.33-5.15-0.53-9.92-0.62-14       c-0.18-8.86,0.05-14.59,0.05-14.59s47.97-27.29,65.96-27.01c17.99,0.28,49.82,48.57,52.72,78.34       c1.21,12.44-4.3,25.83-14.42,37.05l7.27,38.58c0,0-6.05,23.45-32.01,22.32c-25.97-1.13-26.6-17.83-26.6-17.83l0.39-17.74       c-4.02,0.41-8.16,0.52-12.37,0.31c-17.97-0.91-28.11-19.12-33.81-40.73C2487.4,912.62,2489.85,893.8,2491.23,886.14z" class="colorfdb4a1 svgShape"/><path fill="#23211f" d="M2542.36 954.56c5.57-1.45 11.01-3.45 16.24-5.87 5.98-2.77 11.14-6.96 17.04-9.82 2.02 3.64-2.12 9.24-4.46 11.7-3.24 3.39-7.87 5.25-11.51 8.17-3.05 2.46-5.7 5.68-5.99 9.75-.24 3.31 1.88 5.53 4.97 6.32 3.48.89 6.99-.12 10.46.38 1.64.24 1.53 1.04 1.76 2.48.24 1.46.61 2.87 1.52 4.07 2.5 3.32 7.15 4.09 11.03 4.16.6.01 1.2-.03 1.8-.05-4.34 2.25-9.77 3.69-16.64 3.39-25.97-1.13-26.6-17.83-26.6-17.83L2542.36 954.56zM2588.35 914.77c-3.15-.68-6.73-1.67-9-4.13-2.43-2.63-2.65-7-.98-10.07 1.53-2.79 3.99-4.98 4.84-8.14.95-3.55-.1-7.44-2.23-10.36-1.69-2.32-3.95-3.68-6.84-3.65-4.17.04-7.88-.06-11.9-1.37-3.45-1.12-6.38-2.44-8.5-5.49-1.7-2.45-2.82-5.25-4.16-7.91-2.6-5.15-6.24-9.26-11.83-11.11-9.89-3.27-20.72.88-30.38 3.11-4.74 1.09-9.83 2.08-14.69 1.27-1.29-.22-2.49-.58-3.6-1.07-.01-.42-.03-.87-.03-1.28-.18-8.86.04-14.59.04-14.59s47.98-27.29 65.96-27.01c17.99.28 49.82 48.57 52.72 78.34.78 7.98-1.24 16.34-5.44 24.28C2597.95 916.73 2592.77 915.72 2588.35 914.77z" opacity=".1" class="color231f20 svgShape"/><path fill="#60513d" d="M2501.33 882.29c.06.31.15.58.24.89 1.1 3.08 3.74 4.93 5.84 4.15 2.1-.75 2.87-3.86 1.74-6.94-1.1-3.08-3.74-4.93-5.83-4.15-.24.09-.47.21-.67.36.16.23.28.5.37.77C2503.72 879.4 2502.97 881.54 2501.33 882.29zM2514.68 862.61c0 0-9.92-1.95-16 5.44 0 0-1.32 1.93 1.01 1.64 2.33-.29 13.52-1.47 15.73-3.94C2517.63 863.29 2514.68 862.61 2514.68 862.61z" class="color603d52 svgShape"/><path fill="#23211f" d="M2576.44,860.51c0,0,6.29,2.62,7.29,7.86c1,5.25-2.11,15.79-2.11,15.79s2-11.78-2.46-16.14       C2574.7,863.68,2573.37,862.25,2576.44,860.51z" opacity=".1" class="color231f20 svgShape"/><path fill="#23211f" d="M2517.04,901.66c-0.73,8.39,4.13,15.67,10.86,16.26c6.73,0.58,12.77-5.75,13.5-14.14       c0.73-8.39-4.13-15.67-10.86-16.26C2523.81,886.93,2517.77,893.26,2517.04,901.66z" opacity=".05" class="color231f20 svgShape"/><path fill="#60513d" d="M2492.64 911.51c0 0 5.6 4.29 13.35.1 0 0-4.49 5.93-9.03 4.41C2492.41 914.49 2492.64 911.51 2492.64 911.51zM2502.6 931.69c0 0 14.22 6.9 29.35-5.8 0 0-7.18 15.05-17.85 13.74C2503.44 938.32 2502.6 931.69 2502.6 931.69z" class="color603d52 svgShape"/><path fill="#7f7362" d="M2543.52,830.82c5,15.94,30.4,55.15,25.58,40.27c-0.01-0.14-0.07-0.31-0.12-0.44       c-3.29-11.04,9.38-23.22,17.77-5.89c9.37,19.42-20.92,57.09,15.01,53.58c19.12-1.87,36.02-51.85,15.13-89.3       C2601.03,800.59,2543.52,830.82,2543.52,830.82z" class="color7f6275 svgShape"/><path fill="#60513d" d="M2495.36,857.79c20.1-1.68,58.45-28.07,58.45-28.07s36.33-11.33,63.09-0.69       c-7.42-17.26-11.93-34.41-25.33-43.44c-20.8-13.99-43.94-17.57-92.87-5.24C2462.32,789.54,2446.93,861.88,2495.36,857.79z" class="color603d52 svgShape"/></g></g><g fill="#000000" class="color000 svgShape"><path fill="#f3d7af" d="M1726.96,1503.9c-7.07-3.57-13.22-7.08-16.1-9.36c-2.22-1.76-4.16-3.7-5.82-5.63       c-1.42-1.66-2.63-3.31-3.64-4.83c-2.64-3.95-3.9-7.03-3.9-7.03l-53.63-23.94c2.57-11.08,11.36-24.05,12.98-26.18       c0,0,47.29,26.44,57.13,24.08c0.09,0,0.19-0.04,0.27-0.06c0.12-0.07,0.25-0.16,0.38-0.25c2.01-1.16,5.58-1.55,9.55-1.28       c2.91,0.2,6.02,0.74,8.87,1.54c6.96,1.97,22.15-10.74,24.75-7.12c2.6,3.64-4.22,13.4-10.11,14.6c-5.87,1.21-4.73,6.46,0.4,9       l1.61,0.8c10.23,5.07,41.81,20.93,40.07,26.45c-1.13,3.6-14.89-1.65-25.32-6.24c12.55,6.07,30.22,15.42,27.11,18.5       c-2.39,2.36-21.38-4.87-31.94-9.02c6.98,3.5,20.53,10.94,19.39,13.36c-2.46,5.23-17.16-1.17-26.78-6.07       c5.53,3.31,11.51,7.69,10.54,10.65C1761.57,1519.49,1742.09,1511.58,1726.96,1503.9z" class="colorf3afb1 svgShape"/><path fill="#23211f" d="M1700.53,1479.85c-0.61-0.98-1.15-1.99-1.52-3.13c-1.22-3.83-0.84-8.11,0.41-11.89       c1.26-3.82,3.5-7.55,7.07-9.59c1.47-0.86,3.08-1.29,4.72-1.69c-4.49,5.01-5.36,12.4-5.36,12.4c-3.27,4.61-4.96,9.22-5.02,13.51       C1700.61,1479.65,1700.51,1479.8,1700.53,1479.85z" opacity=".1" class="color231f20 svgShape"/><path fill="#ffffff" d="M1727.59,1502.02c-3.04,0.64-13.86-5.21-16.74-7.48c-2.22-1.76-4.16-3.7-5.82-5.63       c-1.42-1.66-2.63-3.31-3.64-4.83c-0.44-1.48-0.63-3.04-0.58-4.62c0.06-4.29,1.75-8.89,5.02-13.51c0,0,0.88-7.39,5.36-12.4       c0.86-0.99,1.87-1.88,3.06-2.6c0.12-0.07,0.25-0.16,0.38-0.25c2.01-1.16,5.58-1.55,9.55-1.28c2.91,0.2,6.02,0.74,8.87,1.54       c6.96,1.97,22.15-10.74,24.75-7.12c2.6,3.64-4.22,13.4-10.11,14.6c-5.87,1.21-4.31,5.11-1.5,10.09       c2.44,4.32,1.39,11.36-3.55,19.77C1737.43,1497.24,1730.23,1500.48,1727.59,1502.02z" opacity=".2" class="colorfff svgShape"/><path fill="#d6ba92" d="M1735.86,1497.2c0.04,0.05,0.07,0.12,0.14,0.15l15.86,7.74l-15.29-8.54c0.35-0.33,0.71-0.64,1.05-0.97       c1.54-1.56,2.99-3.23,4.25-5.06c0.01,0.01,0.01,0.02,0.03,0.03l16.3,6.75l-15.79-7.59c0.1-0.15,0.21-0.3,0.3-0.45       c1.33-2.37,2.55-4.77,3.55-7.29c0.19-0.47,0.36-0.95,0.54-1.43c0.02,0.01,0.02,0.03,0.04,0.04l16.3,6.75l-15.9-7.64       c-0.01,0-0.02-0.01-0.02-0.01c-0.03-0.01-0.07,0.01-0.1,0c0.62-1.78,1.13-3.59,1.4-5.45c-0.77,2.57-1.8,5.04-2.93,7.46       c-1.14,2.41-2.33,4.81-3.7,7.07c-1.32,2.27-3.04,4.31-4.8,6.29c-1.77,1.98-3.65,3.87-5.56,5.73       C1733.04,1499.69,1734.47,1498.47,1735.86,1497.2z" class="colord69297 svgShape"/><path fill="#59482f" d="M1389.89,1271.8c1.49,5.85,2.28,9.13,2.28,9.13l296.24,154.79l-17.84,35.54c0,0-314.63-53.41-384.09-77.2       c-0.85-0.29-1.74-0.78-2.6-1.14C1320.81,1354.11,1354.15,1311.79,1389.89,1271.8z" class="color2f4d59 svgShape"/><g opacity=".2" fill="#000000" class="color000 svgShape"><path fill="#342c20" d="M1389.89,1271.8c1.49,5.85,2.28,9.13,2.28,9.13l104.4,54.55c2.06,8.35,2.82,16.7-1.32,23.06       c-3.44,5.29-7.11,9.67-7.41,16.3c-0.21,4.67,1.14,9.01,3.58,12.92c9.36,15.05,28.01,24.62,43.36,32.22       c16.15,8.01,32.86,14.72,50.75,17.44c10.47,1.59,21.6,1.18,31.72,4.55c11.23,3.74,20.19,12.23,30.35,18.05       c7.01,4.02,14.49,7.21,22.71,7.01c0.85-0.02,1.68-0.21,2.53-0.29l-2.27,4.52c0,0-314.64-53.41-384.09-77.2       c-0.85-0.29-1.74-0.78-2.6-1.14C1320.81,1354.11,1354.15,1311.79,1389.89,1271.8z" class="color202234 svgShape"/></g><g fill="#000000" class="color000 svgShape"><path fill="#d7b88e" d="M1392.63,2647.7c0,0,14.45-53.8,6.93-57.71c-7.52-3.91-34.33-15.58-38.55-12.06         c-4.22,3.52,4.69,70.91,11.46,78.56C1379.23,2664.15,1388.27,2661.9,1392.63,2647.7z" class="colord7a28e svgShape"/><path fill="#ffffff" d="M1377.5,2635.36c5.16-7.43,9.89-15.15,14.49-22.93c2.23-3.77,4.41-7.55,6.87-11.17         c0.95-1.4,1.91-2.8,2.85-4.2c0.33,15.56-9.08,50.64-9.08,50.64c-4.36,14.19-13.4,16.44-20.16,8.79         c-1.22-1.38-2.22-4.42-3.02-8.45C1372.02,2643.75,1374.64,2639.49,1377.5,2635.36z" opacity=".2" class="colorfff svgShape"/><path fill="#fffaf2" d="M1391.1,2614.09c3.31-0.57,6.55-1.49,9.85-2.14c-0.1,24.42-7.92,36.26-7.92,36.26         c-4.55,14.84-14.01,17.2-21.09,9.19c-4.13-4.68-11.87-31.63-11.71-50.28C1367.21,2611.36,1383.92,2615.33,1391.1,2614.09z" class="colorf2faff svgShape"/><path fill="#473721" d="M1489.49,2684.57l5.6,1.02c0,0,1.92,6.95-0.61,10.06c-2.54,3.11-26.06,10.39-71.66,8.45        c-45.6-1.94-66.41-9.9-65.31-18C1358.6,2678,1469.61,2703.22,1489.49,2684.57z" class="color213e47 svgShape"/><path fill="#59482f" d="M1357.5,2686.1c60.08,20.85,150.96,7.22,136.15-2.72c-3.26-2.18-8.96-4.1-15.9-5.96        c-24.66-6.56-64.87-12.13-65.76-24.61c-1.15-15.99-9.55-18.44-11.5-17.89c-0.5,0.15-1.85,0.66-3.72,1.26        c-5.46,1.74-15.36,4.14-21.37-0.12c-8.08-5.71-9.27-6.37-12.91-2.76C1351.82,2643.9,1351.97,2652.99,1357.5,2686.1z" class="color2f4d59 svgShape"/><path fill="#473721" d="M1396.78,2636.18c0.77,3.75,2.34,8.01,4.21,11.51c4.71,8.77-1.84,13.56,12.37,29.32        c14.2,15.77,50.04,8.34,60.43,5.08c6.11-1.93,5.5-3.61,3.96-4.68c-24.66-6.56-64.87-12.13-65.76-24.61        c-1.15-15.99-9.55-18.44-11.5-17.89C1400,2635.07,1398.65,2635.59,1396.78,2636.18z" class="color213e47 svgShape"/><path fill="#59482f" d="M1537.1,2093.66c-9.43,332.22-131.53,508.19-131.53,508.19h-51.79l-59.17-566.42l-162.04-444.17       l336.84,4.82c0,0,0.08,0.16,0.2,0.43c0.08,0.16,0.16,0.32,0.24,0.55c0.08,0.16,0.16,0.36,0.28,0.59       c0.08,0.2,0.2,0.43,0.32,0.71c0.95,2.25,2.61,6.24,4.78,11.92c0.99,2.53,2.05,5.37,3.2,8.61c0.28,0.79,0.59,1.58,0.87,2.45       c0.59,1.7,1.22,3.43,1.86,5.29c0.04,0.2,0.12,0.36,0.2,0.55c2.17,6.32,4.58,13.66,7.07,21.95c0.75,2.41,1.5,4.93,2.25,7.54       C1512.75,1731.96,1543.26,1877.5,1537.1,2093.66z" class="color2f4d59 svgShape"/><path fill="#342c20" d="M1454.52,1737.53c-9.43,37.11,1.82,75.63,0.43,113.17c-0.79,21.16-4.46,42.47-7.74,63.36       c-3.39,21.59-7.3,43.11-11.33,64.58c-8.09,43.34-16.54,86.65-22.07,130.42c-2.72,21.36-1.54,42.59-1.7,64.03       c-0.12,10.9-0.2,22.34-2.76,32.96c-2.37,9.79-6.2,19.26-10.34,28.46c-7.78,17.21-16.22,33.91-22.34,51.83       c-6.87,20.05-8.05,41.21-8.05,62.25c-0.04,20.65,0.12,41.09-2.45,61.62c-2.45,19.62-7.3,39.08-8.84,58.78       c-1.3,16.9,1.82,34.15,9.71,49.19c5.33,10.15,9.95,52.46,16.58,83.69h-29.84l-59.17-566.42l-162.04-444.17l336.84,4.82       c0,0,0.08,0.16,0.2,0.43c0.08,0.16,0.16,0.32,0.24,0.55c0.08,0.16,0.16,0.36,0.28,0.59c0.08,0.2,0.2,0.43,0.32,0.71       c0.95,2.25,2.61,6.24,4.78,11.92c0.99,2.53,2.05,5.37,3.2,8.61c0.28,0.79,0.59,1.58,0.87,2.45c0.59,1.7,1.22,3.43,1.86,5.29       c0.04,0.2,0.12,0.36,0.2,0.55c2.13,6.36,4.54,13.66,7.07,21.95c0.71,2.45,1.46,4.93,2.25,7.54c0.36,1.3,0.75,2.64,1.14,3.99       c-2.72,9.95-6.32,19.62-11.53,28.74C1471.1,1705.39,1459.22,1719.29,1454.52,1737.53z" opacity=".5" class="color202234 svgShape"/><path fill="#fffaf2" d="M1504.66,2171.4c-2.7,18.34-4.14,36.8-6.17,55.2c-1.97,17.86-4.68,35.59-9.07,53.15       c-4.3,17.2-9.5,34.35-11.36,51.91c-1.97,18.59,0.94,40.84,12.65,57.98c23.08-72.36,42.8-169.77,46.39-295.96       c2.45-86.14-0.96-160.88-7.3-224.59c-5.88-1.14-12.12,0.78-18.61,7.32c-7.39,7.46-8.8,18.02-8.88,27.37       c-0.1,12.23,2.28,24.4,5.1,36.38c2.77,11.74,6.2,23.38,9.13,35.09c2.73,10.92,3.86,21.37,4.18,32.51       c1.04,35.97,2.27,72.19-4.09,107.87C1513.28,2134.33,1507.44,2152.57,1504.66,2171.4z" opacity=".2" class="colorf2faff svgShape"/><g fill="#000000" class="color000 svgShape"><path fill="#d7b88e" d="M1102.89,2634.04c0,0,24.99-49.79,18.41-55.13c-6.58-5.34-30.49-22.17-35.33-19.57         c-4.85,2.6-9.68,70.4-4.59,79.26C1086.46,2647.45,1095.77,2647.06,1102.89,2634.04z" class="colord7a28e svgShape"/><path fill="#ffffff" d="M1090.56,2618.91c6.55-6.24,12.74-12.84,18.81-19.55c2.94-3.24,5.84-6.5,8.98-9.56         c1.22-1.18,2.43-2.35,3.64-3.54c-2.81,15.31-19.09,47.77-19.09,47.77c-7.12,13.03-16.43,13.41-21.52,4.55         c-0.92-1.6-1.29-4.77-1.26-8.89C1083.5,2626.02,1086.93,2622.37,1090.56,2618.91z" opacity=".2" class="colorfff svgShape"/><path fill="#fffaf2" d="M1108.16,2600.81c3.36,0.11,6.72-0.14,10.08-0.11c-5.01,23.9-15.06,33.92-15.06,33.92         c-7.45,13.62-17.18,14.02-22.51,4.76c-3.11-5.41-5.26-33.37-1.34-51.61C1085.31,2593.32,1100.88,2600.57,1108.16,2600.81z" class="colorf2faff svgShape"/><path fill="#473721" d="M1190.35,2689.65l5.28,2.13c0,0,0.49,7.19-2.63,9.73c-3.11,2.54-27.62,4.93-71.9-6.15        c-44.28-11.08-63.06-23.07-60.35-30.77C1063.47,2656.87,1167.12,2703.92,1190.35,2689.65z" class="color213e47 svgShape"/><path fill="#59482f" d="M1060.76,2664.58c54.65,32.52,146.42,37.46,133.91,24.75c-2.76-2.79-7.95-5.82-14.37-9.04        c-22.83-11.39-61.1-24.94-59.46-37.35c2.09-15.89-5.64-19.99-7.66-19.84c-0.52,0.04-1.94,0.28-3.89,0.48        c-5.7,0.6-15.88,0.97-20.91-4.42c-6.77-7.22-7.8-8.11-12.09-5.3C1063.69,2622.09,1062.01,2631.03,1060.76,2664.58z" class="color2f4d59 svgShape"/><path fill="#473721" d="M1109.28,2623.59c0,3.82,0.68,8.32,1.81,12.13c2.85,9.54-4.54,12.91,6.21,31.21        c10.74,18.3,47.34,18.24,58.17,17.15c6.38-0.66,6.11-2.43,4.82-3.78c-22.83-11.39-61.1-24.94-59.46-37.35        c2.09-15.89-5.64-19.99-7.66-19.84C1112.65,2623.15,1111.23,2623.38,1109.28,2623.59z" class="color213e47 svgShape"/><path fill="#59482f" d="M1373.28,2096.63c-78,330.4-250.9,499.47-250.9,499.47l-10.82-3.63l-33.55-11.33l68.25-578.06       l-67.98-467.22l331.07,54.04c0,0,0.2,0.87,0.55,2.61c0.12,0.51,0.24,1.07,0.36,1.74c0.12,0.63,0.24,1.34,0.39,2.13       c0.08,0.36,0.16,0.79,0.24,1.18c0.24,1.26,0.51,2.72,0.75,4.3c0.16,1.07,0.36,2.21,0.55,3.4c0.24,1.38,0.43,2.88,0.71,4.46       c0.04,0.47,0.12,0.95,0.2,1.42c0.17,1.19,0.35,2.45,0.53,3.74C1421.93,1674.17,1434.27,1838.28,1373.28,2096.63z" class="color2f4d59 svgShape"/><path fill="#342c20" d="M1091.02,2585.53c2.78-3.62,5.34-7.36,7.66-11.19c12.56-20.74,14.36-44.14,14.73-67.8       c0.4-25.21,0.69-50.43,12.01-73.54c11.24-22.95,29.07-41.7,41.7-63.81c7.13-12.48,11.22-25.54,14.78-39.38       c3.88-15.1,7.5-30.28,11.07-45.46c3.63-15.41,7.2-30.84,10.9-46.23c3.86-16.06,7.58-31.73,8.17-48.33       c1.1-31.04-5.76-61.67-6.86-92.62c-0.53-14.88,0.74-29.34,4.39-43.79c3.34-13.21,8.28-25.93,13.23-38.6       c8.97-22.98,17.44-46.02,17-71.02c-0.66-37.78-14.19-73.96-15.81-111.62c-0.64-14.87,0.92-30.71,9.7-43.24       c10.06-14.36,27.31-20.79,43.98-23.58c43.45-7.28,92.42,3.48,127.2,30.93c4.64,3.66,8.99,7.65,13.09,11.88       c6.07-95.35,0.26-160.4-4.33-193.25c-0.18-1.29-0.36-2.55-0.53-3.74c-0.08-0.47-0.16-0.95-0.2-1.42       c-0.28-1.58-0.47-3.08-0.71-4.46c-0.2-1.18-0.39-2.33-0.55-3.4c-0.24-1.58-0.51-3.04-0.75-4.3c-0.08-0.39-0.16-0.83-0.24-1.18       c-0.16-0.79-0.28-1.5-0.39-2.13c-0.12-0.67-0.24-1.22-0.36-1.74c-0.36-1.74-0.55-2.61-0.55-2.61l-331.07-54.04l67.98,467.22       l-68.25,578.06L1091.02,2585.53z" opacity=".2" class="color202234 svgShape"/><path fill="#fffaf2" d="M1325.22,2169.53c-6.45,17.92-11.69,36.14-17.49,54.21c-5.64,17.55-11.97,34.85-19.93,51.75       c-7.8,16.55-16.46,32.91-21.92,50.17c-5.78,18.27-7.52,40.91,0.49,59.74c37.71-68.89,77.29-163.27,106.91-288.75       c20.22-85.65,32.31-160.79,39.23-225.33c-5.56-2-12.11-1-19.86,4.59c-8.83,6.37-12.41,16.71-14.41,26.03       c-2.63,12.2-2.8,24.7-2.49,37.07c0.3,12.13,1.27,24.25,1.74,36.38c0.44,11.31-0.61,21.9-2.6,33.07       c-6.41,36.07-12.68,72.42-26.33,107.11C1341.38,2133.77,1331.85,2151.13,1325.22,2169.53z" opacity=".2" class="colorf2faff svgShape"/></g></g><g fill="#000000" class="color000 svgShape"><path fill="#4c3d29" d="M1358.2,1728.86c-14.15,0-275.36-22.33-278.33-52.78c-60.3-618.4,226.61-686.99,228.85-686.79       c2.24-0.19,29.74,6.21,31.81,6.42C1465.04,1008.41,1673.65,1728.86,1358.2,1728.86z" class="color29454c svgShape"/><path fill="#ffffff" d="M1393.39,1029.44c0,0-27.83-41.51-79.52-43.31c-51.69-1.8-21.87,63.17-11.93,86.63      c9.94,23.46,91.45,308.61,91.45,308.61S1433.21,1163.89,1393.39,1029.44z" class="colorfff svgShape"/><path fill="#342c20" d="M1443.91 1094.37l-31.81-4.01 2.65-58.55-30.93-13.64c0 0 20.61 244.74 10.53 370.17C1406.81 1313.79 1439.89 1132.14 1443.91 1094.37zM1284.05 1015l-23.86 27.07 41.75 52.34-33.8 3.61c0 0 115.28 205.78 125.9 302.05l-.42-11.9C1391.35 1340.15 1376.71 1155.21 1284.05 1015z" class="color202234 svgShape"/><path fill="#231d15" d="M1393.39,1381.36l0.24,6.8c0.08,1.79,0.15,3.42,0.21,4.82        C1393.6,1385.58,1393.39,1381.36,1393.39,1381.36z" class="color151723 svgShape"/><path fill="#342c20" d="M1394.04,1400.07c36.87,259.16,31.84,304.73,31.84,304.73       C1448.98,1643.11,1417.44,1507.16,1394.04,1400.07z" class="color202234 svgShape"/></g><g fill="#000000" class="color000 svgShape"><path fill="#ffffff" d="M1719.53,1508.24c-4.77-7.78-48.47,5.89-48.47,5.89s32.69-11.19,34.13-22.7      c1.44-11.52-4.81-68.15-21.97-68.09c-15.71,0.06-315.81,105.15-366.36,122.89c1.32,4.18,1.71,8.61,2.02,12.99      c4.11-1.1,27.55-7.43,40.16-11.9c-12.27,6.94-34.33,20.65-34.33,20.65l7.67,23.78l42.33-6.24l-39.29,15.66l9.06,28.09l42.72-8.6      l-39.76,17.78c0,0,5.17,20.69,7.05,26.5c1.87,5.81,336.71-94.36,369.94-108.52C1741.18,1544.12,1723.87,1515.32,1719.53,1508.24      z" class="colorfff svgShape"/><path fill="#23211f" d="M1671.07,1514.12c0,0,32.69-11.19,34.13-22.7c1.06-8.45-2.04-41.2-10.54-58.01      c-0.04,1.18-0.09,2.35-0.16,3.48c-0.63,10.44-2.07,21.51-5.37,31.48c-4.44,13.41-17.12,21.89-23.64,34.07      c-1.42,2.66-2.42,5.42-2.44,8.47c-0.02,4.13,2.28,6.74,4.91,9.63c4.42,4.86,7.54,10.14,4.96,16.75      c-4.33,11.07-17.82,16.87-27.67,21.89c-18.56,9.46-38.61,13.23-58.81,17.48c-10.16,2.14-20.3,4.54-30.08,8.09      c-9.97,3.63-19.52,8.29-29.12,12.8c-14.87,6.98-30.35,12.92-45.89,18.26c-6.12,2.1-12.73,4.17-19.27,4.12      c-5.21-0.05-12.22-2.23-14.72-7.26c-2.81-5.65,3.6-10.53,5.26-15.48c1.14-3.39,1.25-7.06-1.17-9.91      c-5.1-5.98-14.75-7.62-21.47-11.13c-7.67-4-13.09-10.32-12.07-19.41c1.46-13,12.64-22.61,22.73-29.59      c11.36-7.86,23.92-13.61,36.13-19.98c16.77-8.74,33.78-18.44,48.51-30.37c1.82-1.47,3.61-3.02,5.36-4.64      c-88.17,30.04-186.71,64.56-213.77,74.06c1.32,4.18,1.71,8.61,2.02,12.99c4.11-1.1,27.55-7.43,40.16-11.9      c-12.27,6.94-34.33,20.65-34.33,20.65l7.67,23.78l42.33-6.24l-39.29,15.66l9.06,28.09l42.72-8.6l-39.76,17.78      c0,0,5.17,20.69,7.05,26.5c1.87,5.81,336.71-94.36,369.94-108.52c16.74-12.28-0.57-41.08-4.9-48.16      C1714.76,1500.46,1671.07,1514.12,1671.07,1514.12z" opacity=".1" class="color231f20 svgShape"/><path fill="#23211f" d="M1435.83,1644.15c-4.3-6.22-9.25-12.17-13.82-18.2c-4-5.27-9.29-9.68-12.04-15.82      c-2.55-5.72-0.39-10.66,2.65-15.61c7.63-12.42-6.83-22.27-13.73-30.92c-8.55-10.71-7.51-25.34,0.55-36.07      c4.92-6.54,11.95-11.1,18.1-16.44c-46.67,16.19-85.28,29.72-100.69,35.13c1.32,4.18,1.71,8.61,2.02,12.99      c4.11-1.1,27.55-7.43,40.16-11.9c-12.27,6.94-34.33,20.65-34.33,20.65l7.67,23.78l42.33-6.24l-39.29,15.66l9.06,28.09l42.72-8.6      l-39.76,17.78c0,0,5.17,20.69,7.05,26.5c0.59,1.84,34.53-6.94,81.68-20.24C1436.06,1644.51,1435.95,1644.32,1435.83,1644.15z" opacity=".1" class="color231f20 svgShape"/><path fill="#23211f" d="M1527.57 1485.88c0 0 155.64-51.92 157.07-52.81 1.43-.89 1.64 3.76 1.26 3.89C1685.51 1437.08 1527.57 1485.88 1527.57 1485.88zM1562.86 1595.24c0 0 155.64-51.92 157.07-52.81 1.43-.89 1.64 3.77 1.26 3.89C1720.8 1546.45 1562.86 1595.24 1562.86 1595.24zM1541.64 1529.48c0 0 155.64-51.92 157.07-52.81 1.43-.89 1.64 3.77 1.26 3.89C1699.58 1480.68 1541.64 1529.48 1541.64 1529.48zM1593.79 1500.97c0 0 100.9-34.26 101.78-34.97.89-.71 1.51 3.81 1.25 3.89C1696.58 1469.97 1593.79 1500.97 1593.79 1500.97zM1558.35 1581.27c0 0 155.64-51.92 157.07-52.81 1.43-.89 1.64 3.77 1.26 3.89C1716.29 1532.48 1558.35 1581.27 1558.35 1581.27zM1610.5 1552.76c0 0 100.9-34.26 101.78-34.97.89-.72 1.51 3.81 1.25 3.89C1713.29 1521.76 1610.5 1552.76 1610.5 1552.76zM1627.99 1465.16c0 0 60.07-21.09 60.55-21.67.48-.58 1.41 3.84 1.25 3.89C1689.65 1447.43 1627.99 1465.16 1627.99 1465.16z" opacity=".2" class="color231f20 svgShape"/></g><g fill="#000000" class="color000 svgShape"><path fill="#f3d7af" d="M1540.07,1604.42c0,0-10.76-24.73-18.15-27.08c-17.14-5.47-34.34,0.55-37.94,4.97       C1505.16,1586.81,1540.07,1604.42,1540.07,1604.42z" class="colorf3afb1 svgShape"/><path fill="#ffffff" d="M1510.95,1581.3c3.19-1.53,6.69-2.54,9.77-4.3c-16.73-4.83-33.23,0.99-36.75,5.3       c5.54,1.18,12.02,3.26,18.57,5.68C1504.97,1585.29,1507.65,1582.89,1510.95,1581.3z" opacity=".2" class="colorfff svgShape"/><path fill="#f3d7af" d="M1471.91,1644.4c4.39,3.13,8.96,6.02,13.48,8.36l-0.01,0.02c0.02,0.01,0.02,0.01,0.03,0.03       c0.22,0.13,1.33,0.85,2.95,1.88l0.02,0.01c1.3,0.81,2.92,1.76,4.69,2.72l0,0c0,0,19.1,12.09,24.67,8.18       c5.57-3.91,3.92-8.76,3.92-8.76s6.46,1.32,9.85-4.18c3.39-5.5,0.65-9.36,0.65-9.36s5.92,1.38,9.8-4.85       c3.87-6.24,0.57-12.06,0.57-12.06s9.07,1.52,8.56-9.84c-0.51-11.31-15.96-17.51-16.57-17.85c-2.58-1.52-5.18-2.87-7.72-4.08       c-0.7-0.32-1.35-0.77-2.09-0.96c-53.26-12.99-121.12-73.43-130.09-69.61c0,0-32.45,31.28-26.38,40.66       c8.36,6.15,86.46,52.35,86.46,52.35S1455.44,1632.66,1471.91,1644.4z" class="colorf3afb1 svgShape"/><path fill="#ffffff" d="M1485.39,1652.76l-0.01,0.02c0.02,0.01,0.02,0.01,0.03,0.03c0.22,0.13,1.33,0.85,2.95,1.88l0.02,0.01       c1.3,0.81,2.92,1.76,4.69,2.72l0,0c0,0,19.1,12.09,24.67,8.18c5.57-3.91,3.92-8.76,3.92-8.76s6.46,1.32,9.85-4.18       c3.39-5.5,0.65-9.36,0.65-9.36s5.92,1.38,9.8-4.85c3.87-6.24,0.57-12.06,0.57-12.06s9.07,1.52,8.56-9.84       c-0.18-4.07-2.31-7.46-4.97-10.17c0.47,4.25-0.22,9.03-2.57,12.55c-0.6,0.9-1.35,1.73-2.24,2.36       c-1.02,0.72-2.21,1.14-3.29,1.76c-2.34,1.35-2.65,4.03-3.23,6.46c-0.75,3.14-1.78,6.11-4.11,8.44       c-1.74,1.74-3.94,2.89-6.01,4.18c-2.18,1.35-4.13,3-5.18,5.4c-1,2.29-1.88,4.47-3.67,6.27c-3.1,3.13-7.53,3.64-11.68,2.83       c-2.87-0.55-5.57-1.72-8.26-2.81c-3.51-1.43-7-2.92-10.49-4.41c-5.97-2.56-11.91-5.02-17.53-8.28       c1.24,1.11,2.57,2.22,4.06,3.28C1476.3,1647.54,1480.87,1650.42,1485.39,1652.76z" opacity=".2" class="colorfff svgShape"/><path fill="#59482f" d="M1101.46,1450.71c58.36,41.51,350.99,165.01,350.99,165.01l27.85-40.51l-242.18-205.04      c0,0,57.22-376.89-33.12-329.16C1038.78,1128.84,1043.11,1409.23,1101.46,1450.71z" class="color2f4d59 svgShape"/><path fill="#342c20" d="M1074.47,1335.3c3.2,9.41,6.59,18.83,11.59,27.46c5.36,9.27,13.39,17.1,21.72,23.71      c16.85,13.37,36.69,22.03,55.46,32.25c9.87,5.37,19.45,11.29,27.99,18.63c8.3,7.14,15.58,15.19,24.45,21.71      c17,12.51,36.07,20.72,56.29,26.34c20.69,5.74,41.34,12.22,52.19,32.34c4.82,8.95,7.66,18.94,13.8,27.18      c6.59,8.84,16.4,14.5,26.42,18.7c10.81,4.54,22.14,8.36,33.23,12.17c9.91,3.41,20.3,6.04,30.77,6.92      c16.71,1.41,33.16-1.9,46.98-11.69l4.95,4.19l-27.85,40.51c0,0-292.62-123.5-350.99-165.01      c-23.94-17.02-38.76-74.29-36.46-141.95C1068.56,1317.45,1071.45,1326.41,1074.47,1335.3z" opacity=".2" class="color202234 svgShape"/></g><g fill="#000000" class="color000 svgShape"><path fill="#342c20" d="M1354.6,996.87c-7.93-1.92-16.06-3.16-24.24-3.5c-4.05-0.17-8.27-0.12-12.38,0.44      c0.52,2.29-0.5,4.8-3.69,5.34c-5.91,0.99-11.94,1.41-17.75,2.88c-2.27,0.58-4.61,1.34-6.16,2.68      c0.35,0.97-11.49,17.41,13.57,51.33c4.73,6.4,16.61-2.52,9.22-35.68c-1.7-7.62,35.5,29.71,43.53,31.92      c11.94,3.29,26.64-17.51,14.35-32.76c-4-4.96-7.57-21.03-11.93-25.19C1354.13,989.54,1361.36,998.51,1354.6,996.87z" opacity=".15" class="color202234 svgShape"/><path fill="#fdd59e" d="M1353.4,951.86l5.55,39.83c0,0-9.62,52.92-61.03,10.52l15.26-63.38L1353.4,951.86z" class="colorfda19e svgShape"/><path fill="#3f2d13" d="M1313.17,938.83l40.22,13.03l2.14,24.65c-0.98,0.35-1.97,0.69-2.96,1c-4.72,1.51-9.53,2.75-14.15,4.55        c-3.62,1.41-7.25,3.25-9.99,6.07c-2.88,2.97-3.76-10.26-4.11-6.17c-0.56,6.72,2.71,12.72,4.96,18.83        c1.44,3.92,2.11,9.15,5.5,11.96c2.46,2.05,5.76,2.87,9.03,2.92c-9.2,5.36-23.62,4.9-45.9-13.47L1313.17,938.83z" opacity=".15" class="color33133f svgShape"/><path fill="#fdd59e" d="M1394.23,836.08c0,0,19.51,133.71-30.29,135.02c-49.8,1.31-81.94-52.76-81.94-52.76s-20.51-4.03-21-28.93       c-0.4-20.07,11.85-15.99,11.85-15.99s-7.66-51.45,28.33-60.14C1337.18,804.58,1394.23,836.08,1394.23,836.08z" class="colorfda19e svgShape"/><path fill="#3f2d13" d="M1318.64 902.07c-.66 3.21 2.74 6.63 7.6 7.63 4.86 1 9.33-.79 9.99-4 .66-3.21-2.74-6.63-7.6-7.63C1323.78 897.07 1319.31 898.86 1318.64 902.07zM1374 904.4c-.66 3.21 2.74 6.63 7.6 7.63 4.86 1 9.33-.79 9.99-4 .66-3.21-2.74-6.63-7.59-7.63C1379.14 899.4 1374.66 901.19 1374 904.4z" opacity=".05" class="color33133f svgShape"/><path fill="#342c20" d="M1372.77 873.95c.47.02.94-.21 1.21-.64.24-.37 5.84-8.91 18.59-2.69.69.33 1.5.05 1.83-.63.33-.68.05-1.5-.63-1.83-15.03-7.33-22.04 3.6-22.11 3.7-.4.64-.2 1.48.44 1.88C1372.31 873.87 1372.54 873.94 1372.77 873.95zM1346.25 873.22c.17.01.34-.02.51-.08.71-.25 1.09-1.03.83-1.74-.05-.12-4.58-12.22-22.68-9.04-.74.13-1.24.84-1.11 1.58.13.74.83 1.24 1.58 1.11 15.86-2.8 19.6 7.16 19.63 7.26C1345.21 872.85 1345.71 873.2 1346.25 873.22zM1360.56 907.99c.47.02.94-.03 1.4-.15 2.93-.74 4.27-3.96 4.33-4.09.16-.4.13-.85-.09-1.22-4.63-7.7-2.95-17.82-2.94-17.92.13-.75-.37-1.45-1.11-1.58-.76-.14-1.45.37-1.58 1.11-.08.44-1.77 10.68 2.9 19.13-.42.7-1.19 1.67-2.19 1.92-.93.23-2.04-.17-3.3-1.21-.58-.48-1.45-.4-1.92.18-.48.58-.4 1.44.18 1.92C1357.72 907.3 1359.16 907.94 1360.56 907.99zM1376.51 885.11c-.15 4.25 2.08 7.79 4.99 7.9 2.91.11 5.4-3.26 5.56-7.51s-2.08-7.79-4.99-7.9C1379.15 877.5 1376.67 880.86 1376.51 885.11zM1329.86 883.41c-.16 4.26 2.08 7.79 4.99 7.9 2.91.11 5.4-3.26 5.56-7.52.16-4.26-2.08-7.79-4.99-7.9C1332.51 875.79 1330.02 879.15 1329.86 883.41z" class="color202234 svgShape"/><path fill="#3f2d13" d="M1274.9,881.63c0,0-7.83-4.04-9.6,1.53c-1.77,5.57,2.71,19.97,10.25,23.53c0,0-13.41-13.95-8.58-21.91       C1271.79,876.82,1274.29,885.52,1274.9,881.63z" opacity=".05" class="color33133f svgShape"/><path fill="#342c20" d="M1341.23,1023.96c0,0-11.73,36.41-26.91,24.76c-15.17-11.65-50.6-46.66-12.13-69.57      c0,0-0.86,21.47,3.15,26.71c12.41,16.24,35.19,3.71,35.19,3.71s18.62-7.42,19.23-24.04c0,0,30.25,46.91,10.27,53.85      C1350.04,1046.33,1341.23,1023.96,1341.23,1023.96z" class="color202234 svgShape"/><path fill="#60513d" d="M1315.36,781.56c52.43,3.8,28.95-25.14,41.06-14.05c9.62,8.8-3.59,16.36-9.44,19.1     c7.88-2.89,70.07-3.56,79.24,44.08c11.04,57.36-109.43-2.75-109.43-2.75c7.33,22.18-17.27,45.67-27.89,54.63     c0.18,12.89,17.29,27.57,24.01,42.32c9.59,21.07,8.51-5.9,28.61-7.93c20.11-2.03,58.24,3.51,55.51,21.37     c-2.73,17.86-20.06,38.64-40.98,34.42c-30.49-6.15-75.9-22.58-76.06-88.72C1259.28,858.3,1264.26,777.86,1315.36,781.56z" class="color603d52 svgShape"/><g fill="#000000" class="color000 svgShape"><path fill="#fcfaf7" d="M1378,930.24c0,0-15.84,6.49-33-2.27C1340.77,935.08,1360.77,954.73,1378,930.24z" class="colorfcfaf7 svgShape"/><path fill="#3f2d13" d="M1357.08,948.86c1.44,0.05,2.39-0.13,2.49-0.15c0.37-0.07,0.61-0.43,0.54-0.8      c-0.07-0.37-0.44-0.61-0.8-0.54c-0.06,0.02-6.1,1.13-11.37-3.79c-0.29-0.25-0.71-0.24-0.97,0.04c-0.26,0.28-0.24,0.71,0.03,0.97      C1350.66,948,1354.6,948.77,1357.08,948.86z" opacity=".05" class="color33133f svgShape"/></g></g></g><g fill="#000000" class="color000 svgShape"><path fill="#7d6f5c" d="M2389.3,2343.52l23.02-2.26c0,0,17.2-30.98,46.7-28.56c44.27,3.63,62.08,28.85,62.08,28.85l23.29-2.93    c0,0-22.48-49.94-83.3-50.85C2438.37,2287.42,2401.93,2300.03,2389.3,2343.52z" class="color5c737d svgShape"/><path fill="#847a6d" d="M2719.67,2352.52l4.48,314.9c0.03,1.92-0.16,3.84-0.44,5.53c-2.26,11.09-11.27,19.45-22.18,19.61    l-484.44,6.89c-12.69,0.18-23.24-10.73-23.43-24.48l-4.48-314.9c-0.2-13.76,10.03-24.96,22.73-25.14l484.44-6.89    C2709.04,2327.85,2719.48,2338.76,2719.67,2352.52z" class="color6d7e84 svgShape"/><path fill="#7d6f5c" d="M2719.67,2352.52l4.48,314.9c0.03,1.92-0.16,3.84-0.44,5.53l-445.42,6.34    c-12.69,0.18-23.24-10.84-23.43-24.49l-4.48-315.01c-0.03-1.92,0.16-3.73,0.55-5.42l445.42-6.33    C2709.04,2327.85,2719.48,2338.76,2719.67,2352.52z" class="color5c737d svgShape"/><rect width="475.6" height="167.95" x="2217.52" y="2331.47" fill="#6d604d" transform="rotate(-.81 2458.414 2418.165)" class="color4d646d svgShape"/><path fill="#6d604d" d="M2486.57,2505.27c0.25,17.8-12.96,32.41-29.51,32.65c-16.55,0.23-30.18-14-30.43-31.8     c-0.25-17.8,12.96-32.42,29.51-32.65C2472.7,2473.24,2486.32,2487.47,2486.57,2505.27z" class="color4d646d svgShape"/><rect width="29.98" height="159.53" x="2263.82" y="2466.33" fill="#6d604d" transform="rotate(-.81 2277.889 2544.788)" class="color4d646d svgShape"/><rect width="29.98" height="159.53" x="2620.49" y="2461.26" fill="#6d604d" transform="rotate(-.81 2641.084 2546.064)" class="color4d646d svgShape"/></g></svg>