<svg xmlns="http://www.w3.org/2000/svg" enable-background="new 0 0 3000 3000" viewBox="0 0 3000 3000"><ellipse cx="1500" cy="2739.31" fill="#f2f2f2" rx="1450" ry="95.09" class="colorf2f2f2 svgShape"/><path fill="#ffbf66" d="M1030.89,998c-6.93,1.7-11.19,8.66-9.51,15.65c0.9,3.7,3.36,6.65,6.5,8.33c2.66,1.42,5.86,1.96,9.1,1.16    l-1.19,0.32c-7.86,1.9-12.6,9.76-10.73,17.54c1,4.16,3.71,7.52,7.28,9.43c2.98,1.59,6.59,2.15,10.2,1.27l6.82-1.63    c-6.87,2.49-10.93,9.84-9.18,17.06c1.03,4.24,3.77,7.55,7.28,9.43c3.03,1.62,6.64,2.17,10.25,1.3l4.62-1.09    c-7.37,1.74-11.88,9.19-10.11,16.5c0.94,3.99,3.56,7.17,6.86,8.93l0.05,0.03c2.87,1.53,6.24,2.02,9.64,1.17l74.01-17.89    l37.64-18.08l-23.01-100.69c-8.75,0.11-21.26-2.6-33.91-6.34c-17.6-5.22-35.45-12.42-43.73-16.65    c-8.62-3.85-16.42-8.08-22.74-4.55c-2.11,1.13-3.83,2.68-5.2,4.48c-5.34,7.07-3.08,17.3,4.1,22.57l32.55,17.86L1030.89,998z" class="colorfeb582 svgShape"/><rect width="113.84" height="147.39" x="2257.19" y="2451.68" fill="#ffbf66" transform="rotate(-23.249 2314.066 2525.433)" class="colorfeb582 svgShape"/><path fill="#413729" d="M2257.45,2557.16c0,0-100.81,138.48-105.81,148.31c-5.44,10.71-2.68,15.17-0.71,19.01        c6.06,11.75,20.62,18.18,34.28,13.05l246-96.6c1.8-0.71,2.83-2.63,2.41-4.52c-1.62-7.56-3.33-14.55-5.09-21.01        c-12.94-47.71-38.48-91.43-51.1-103.83c-1.35-1.31-3.58-0.4-3.67,1.48c-2.73,54.26-70.98,76.53-107.58,43.89        C2263.67,2554.69,2259.84,2554.76,2257.45,2557.16z" class="color293241 svgShape"/><path fill="#2d261c" d="M2150.94,2724.48c6.06,11.75,20.62,18.18,34.28,13.05l246-96.6c1.8-0.71,2.83-2.63,2.41-4.52        c-1.62-7.56-3.33-14.55-5.09-21.01L2150.94,2724.48z" class="color1c232d svgShape"/><rect width="113.84" height="147.39" x="1702.68" y="2506.23" fill="#ffbf66" transform="rotate(-1.812 1759.551 2579.958)" class="colorfeb582 svgShape"/><path fill="#413729" d="M1695.22,2588.86c0,0-144.45,92.06-152.69,99.38c-8.97,7.97-8.04,13.13-7.61,17.43        c1.35,13.15,12.56,24.45,27.14,24.68l264.29-0.02c1.94,0,3.59-1.41,3.9-3.33c1.25-7.63,2.21-14.76,2.94-21.42        c5.39-49.14-2.41-99.17-9.63-115.32c-0.76-1.72-3.18-1.69-3.95,0.03c-22.37,49.5-94.04,45.3-116.18,1.54        C1701.91,2588.82,1698.32,2587.49,1695.22,2588.86z" class="color293241 svgShape"/><path fill="#2d261c" d="M1534.93,2705.68c1.35,13.15,12.56,24.45,27.14,24.68l264.29-0.02c1.94,0,3.59-1.41,3.9-3.33        c1.25-7.63,2.21-14.76,2.94-21.42L1534.93,2705.68z" class="color1c232d svgShape"/><polygon fill="#413729" points="2378.55 2479.06 2191.17 1959.85 2179.67 1298.31 1730.94 1277.3 1625.61 1930.04 1684.19 2543.18 1833.73 2532.29 1804.29 1953.61 1946.93 1491.13 2002.27 1965.02 2227.79 2517.39" class="color293241 svgShape"/><path fill="#aa7326" d="M2332.71,1465.96l163.74,268.49c13.41,21.99,42.11,28.95,64.09,15.53l363.23-221.51        c21.99-13.41,28.95-42.1,15.53-64.1l-163.73-268.49c-5.94-9.74-18.66-12.83-28.42-6.89l-407.55,248.54        C2329.85,1443.49,2326.77,1456.22,2332.71,1465.96z" class="coloraa5f26 svgShape"/><path fill="#8a5d1e" d="M2332.71,1465.96l81.04,132.88c11.91,19.53,37.39,25.69,56.91,13.79l372.16-226.96        c19.52-11.9,25.7-37.37,13.79-56.9l-81.03-132.87c-5.94-9.74-18.66-12.83-28.42-6.89l-407.55,248.54        C2329.85,1443.49,2326.77,1456.22,2332.71,1465.96z" class="color8a3d1e svgShape"/><path fill="#aa7326" d="M2332.71,1465.96l75.19,123.3c11.9,19.52,37.38,25.69,56.9,13.79l372.16-226.96        c19.52-11.9,25.7-37.39,13.79-56.9l-75.19-123.29c-5.94-9.74-18.66-12.83-28.42-6.89l-407.55,248.54        C2329.85,1443.49,2326.77,1456.22,2332.71,1465.96z" class="coloraa5f26 svgShape"/><path fill="#8a5d1e" d="M2798.39,1461.27L2798.39,1461.27c10.94-6.68,14.41-20.96,7.73-31.91l-32.35-53.04          c-1.44-2.38-4.54-3.12-6.92-1.68l-31.05,18.93c-2.37,1.45-3.13,4.55-1.68,6.92l32.35,53.04          C2773.15,1464.49,2787.44,1467.96,2798.39,1461.27z" class="color8a3d1e svgShape"/><path fill="#674b23" d="M2793.46,1453.19L2793.46,1453.19c10.95-6.68,14.41-20.97,7.73-31.91l-32.35-53.05          c-1.45-2.37-4.55-3.12-6.92-1.67l-31.05,18.93c-2.37,1.45-3.12,4.55-1.67,6.93l32.34,53.03          C2768.22,1456.4,2782.51,1459.86,2793.46,1453.19z" class="color672e23 svgShape"/><path fill="#ffffff" d="M2774.1,1430.04l3.32,11.32l12.88-7.85l-8.55-8.13c1.25-2.53,1.22-5.6-0.35-8.18          c-2.43-3.98-7.62-5.24-11.6-2.81c-3.98,2.43-5.25,7.62-2.82,11.6C2768.55,1428.57,2771.29,1430.01,2774.1,1430.04z" class="colorfff svgShape"/><path fill="#8a5d1e" d="M2557.28,1608.32L2557.28,1608.32c10.95-6.68,14.41-20.97,7.73-31.92l-32.35-53.04          c-1.45-2.38-4.55-3.13-6.92-1.68l-31.05,18.94c-2.38,1.45-3.13,4.55-1.68,6.92l32.35,53.04          C2532.04,1611.53,2546.33,1615,2557.28,1608.32z" class="color8a3d1e svgShape"/><path fill="#674b23" d="M2552.34,1600.23L2552.34,1600.23c10.95-6.68,14.41-20.96,7.73-31.91l-32.35-53.04          c-1.45-2.37-4.55-3.12-6.92-1.68l-31.05,18.93c-2.38,1.45-3.13,4.55-1.68,6.92l32.35,53.04          C2527.11,1603.44,2541.39,1606.91,2552.34,1600.23z" class="color672e23 svgShape"/><path fill="#ffffff" d="M2532.99,1577.08l3.32,11.32l12.88-7.85l-8.54-8.14c1.25-2.52,1.22-5.6-0.35-8.17          c-2.43-3.99-7.61-5.24-11.6-2.81c-3.98,2.43-5.25,7.62-2.82,11.61C2527.44,1575.61,2530.17,1577.05,2532.99,1577.08z" class="colorfff svgShape"/><path fill="#ffa30f" d="M2587.41,1493.21l96.92-59.11c1.24-0.76,1.63-2.37,0.88-3.61l-17.04-27.95        c-0.76-1.24-2.37-1.63-3.61-0.87l-96.92,59.11c-1.24,0.76-1.63,2.37-0.88,3.61l17.04,27.95        C2584.55,1493.57,2586.17,1493.97,2587.41,1493.21z" class="colorf2a807 svgShape"/><path fill="#ff9e02" d="M2566.75,1464.39l7.47,12.24c-0.75-1.23-0.36-2.86,0.88-3.62l96.92-59.1c1.25-0.76,2.87-0.37,3.62,0.87        l-7.47-12.24c-0.76-1.25-2.38-1.64-3.62-0.88l-96.92,59.11C2566.38,1461.53,2565.99,1463.15,2566.75,1464.39z" class="colorffb902 svgShape"/><rect width="40.13" height="28.4" x="2629.02" y="1271.93" fill="#674b23" transform="rotate(-31.373 2649.085 1286.129)" class="color672e23 svgShape"/><rect width="40.13" height="28.4" x="2452.22" y="1379.75" fill="#674b23" transform="rotate(-31.377 2472.163 1393.878)" class="color672e23 svgShape"/><path fill="#85602c" d="M2490.73 1319.09l98.72-60.28 15.53-9.44c4.34-2.56 9.9-1.18 12.49 3.05l18.63 30.54c2.71 4.44 8.5 5.85 12.94 3.14l0 0c4.44-2.71 5.85-8.5 3.14-12.95l-18.63-30.54c-8.04-13.1-25.17-17.34-38.38-9.33l-14.87 9.1-98.72 60.28-9.4 5.7-5.05 21.61c-.77 1.99-1.82 3.67-3.12 5.32L2490.73 1319.09zM2440.62 1360.4l18.53 30.51c2.7 4.45 8.5 5.85 12.94 3.15l0 0c4.44-2.71 5.84-8.5 3.13-12.94l-18.63-30.55c-2.05-3.4-1.54-7.59.72-10.46-3.65 1.51-7.75 1.75-11.61.24-2.19-.93-4.2-2.18-5.98-3.97-.41-.33-.68-.74-.94-1.27C2435.36 1343.11 2435.81 1352.5 2440.62 1360.4z" class="color853d2c svgShape"/><path fill="#85602c" d="M2438.79,1335.11c0.25,0.53,0.53,0.94,0.94,1.27c1.77,1.79,3.79,3.04,5.98,3.97      c3.86,1.51,7.96,1.28,11.61-0.24c0.65-0.82,1.38-1.51,2.35-2.14l4.37-2.68c1.3-1.65,2.35-3.33,3.12-5.32l5.05-21.61      l-22.36,13.64C2444.67,1325.11,2440.84,1329.81,2438.79,1335.11z" class="color853d2c svgShape"/><path fill="#ffbf66" d="M2439.4,1228.41c2.51,8.62,3.36,21.91,3.06,35.56c-0.36,19.12-2.53,38.94-4.46,48.32      c-1.27,9.04-3.23,17.46,0.78,22.82c2.05-5.3,5.88-10,11.04-13.11l22.36-13.64l3.76-15.92l5.64,10.23l9.14,16.42l10.86,19.64      l74.43-45.36l0.02-0.12l24.38-14.77l-10.98-19.67l-9.14-16.42l-14.5-25.85c-2.42-4.32-5.29-8.37-8.54-12.11l-23.66-27.09      L2439.4,1228.41z" class="colorfeb582 svgShape"/><path fill="#e89828" d="M1659.88,582.49l14.33,203.72c0.53,11.45,10.83,294.74,27.32,573.33     c182.23,32.91,321.62,16.82,497.69-32.71c0,0-35.56-180.23-18.34-477.23c1.29-22.08,1.56-44.21,0.9-66.32l131.79,111.5     l124.92,341.95l105.83-51.58c0,0-92.43-358.02-124.87-384.24l-224.99-229.67c-21.85-16.07-46.95-27.17-73.5-32.54l-81.32-16.47     l-24.94-5.04c-7.9-1.28-15.8-2.33-23.76-3.22c-43.33-4.91-87.13-3.92-130.22,2.68c-13.21,2.1-26.37,4.64-39.41,7.74l-0.55,0.23     l-104.23,29.78C1696.07,560.27,1676.9,569.8,1659.88,582.49z" class="color2896e8 svgShape"/><path fill="#282522" d="M2021.3,402.11c0,0-6.04,30.58-19.47,44.59l2.64-38.26l12.92-17.98L2021.3,402.11z" class="color222824 svgShape"/><path fill="#ffbf66" d="M2015.18,364.27c0,0,4.71,59.84-25.62,105.86c-18.62,28.24-51.75,42.21-85.36,38.42     c-69.76-7.88-101.92-73.6-70.35-228.53l123.13-50.67l78.62,50.76L2015.18,364.27z" class="colorfeb582 svgShape"/><path fill="#ffbf66" d="M1992.67,457.1l-2.71,77.42c-1.21,34.58-29.27,62.16-63.87,62.78l0,0c-38.32,0.68-68.91-31.74-66.03-69.95     l4.13-54.65L1992.67,457.1z" class="colorfeb582 svgShape"/><path fill="#282522" d="M2015.74,370.9c0,0-14.01-11.84-7.34-35.77c-25.19-13.44-35.85-35.26-18.63-73.15     c0,0-123.58,59.66-181.17,25.77c0,0-26.94-18.66-5.71-46.7c4.72-35.11,17.3-59.1,45.64-60.81l34.9,8.47     c0,0,50.77-36.76,92.44-17.56c0,0,59.13,20.41,67.41,50.56c0,0,45.96,5.09,30.73,58.98l-31.52,74.62l-4.78,20.92L2015.74,370.9z" class="color222824 svgShape"/><path fill="#ffbf66" d="M2003.29,373.94c-3.84,15.8,2.68,30.95,14.55,33.83s24.6-7.6,28.43-23.41c3.83-15.81-2.68-30.96-14.55-33.84     C2019.85,347.66,2007.12,358.14,2003.29,373.94z" class="colorfeb582 svgShape"/><path fill="#ce841d" d="M1820.76 524.61l49.14 76.13 39.79-6.45-48.81-77.73c-13.22 2.06-26.49 4.73-39.55 7.86L1820.76 524.61zM1939.64 596.2l38.65 11.42 61.33-85.39-24.91-5.03c-7.88-1.28-16.13-2.38-24.03-3.27L1939.64 596.2z" class="color1d8bce svgShape"/><polygon fill="#ffffff" points="1894.51 590.48 1920.73 613.85 1949.68 593.98 1923.47 570.6" class="colorfff svgShape"/><path fill="#ffffff" d="M1942.51,595.86c0,0-4.18,304.32,48.43,421.32l-53.98,85.97l-66.55-78.29c0,0,26.8-415.52,32.38-430.35     L1942.51,595.86z" class="colorfff svgShape"/><path fill="#e89828" d="M1148.63,956.62l31.78,123.29c0,0,359.85-104.63,402.77-136.09l180.99-286.39l-104.29-75.01l0,0    c-72.2,61.31-206.48,265.83-206.48,265.83L1148.63,956.62z" class="color2896e8 svgShape"/><g fill="#000000" class="color000 svgShape"><path fill="#eac188" d="M951.9,2625.72v107.59c0,10.87,8.8,19.67,19.67,19.67h63.77c8.22,0,15.57-5.11,18.43-12.8l33.36-89.45      l9.32-25H951.9V2625.72z" class="colorea88b0 svgShape"/><path fill="#fad29b" d="M951.9,2625.72v44.65c53.68-3.38,108.95-13.59,135.23-19.65l9.32-25H951.9z" class="colorfa9bbd svgShape"/><path fill="#eac188" d="M658.34,2732.52c-0.47,11.18,8.47,20.46,19.65,20.46h68.16c7.6,0,14.52-4.39,17.77-11.26l36.51-77.23      l3.36-7.12l21.87-46.27l-161.99-11.84l-0.68,17l-0.25,6.19L658.34,2732.52z" class="colorea88b0 svgShape"/><path fill="#fad29b" d="M663 2616.26c40.78 19.7 94.1 32.14 140.8 41.11l21.87-46.27-161.99-11.84L663 2616.26zM1303.07 2536.6l-88.86 204.55c-3.12 7.18-10.21 11.83-18.04 11.83h-63.42c-11.12 0-20.03-9.22-19.66-20.34l4.93-144.3L1303.07 2536.6zM449.07 2447.92l7.06 285.88c.26 10.67 8.99 19.18 19.66 19.18h63.4c8.2 0 15.54-5.08 18.41-12.76l65.72-175.24-137.6-127.7L449.07 2447.92z" class="colorfa9bbd svgShape"/><ellipse cx="923.74" cy="2162.59" fill="#fad29b" rx="589.95" ry="498.17" class="colorfa9bbd svgShape"/><path fill="#eac188" d="M335.69,2202.83c24.25,256.32,278.27,457.93,588.05,457.93c325.82,0,589.95-223.04,589.95-498.17      c0-27.73-2.69-54.92-7.85-81.43c1.28,13.36,1.93,26.86,1.93,40.49c0,275.13-264.13,498.15-589.95,498.15      C624.75,2619.8,381.58,2439.35,335.69,2202.83z" class="colorea88b0 svgShape"/><ellipse cx="1307.58" cy="2361.6" fill="#eac188" rx="192.42" ry="155.49" class="colorea88b0 svgShape"/><ellipse cx="1360.43" cy="2361.6" fill="#fad29b" rx="192.42" ry="155.49" class="colorfa9bbd svgShape"/><path fill="#eac188" d="M1351.66 2356.02c0 29.12-10.42 52.73-23.28 52.73s-23.28-23.61-23.28-52.73c0-29.12 10.42-52.73 23.28-52.73S1351.66 2326.9 1351.66 2356.02zM1479.35 2356.02c0 29.12-10.42 52.73-23.28 52.73s-23.28-23.61-23.28-52.73c0-29.12 10.42-52.73 23.28-52.73C1468.92 2303.29 1479.35 2326.9 1479.35 2356.02z" class="colorea88b0 svgShape"/><circle cx="1360.43" cy="2131.33" r="35.47" fill="#eac188" class="colorea88b0 svgShape"/><circle cx="1062.47" cy="2131.33" r="35.47" fill="#eac188" class="colorea88b0 svgShape"/><path fill="#eac188" d="M962.51,1788.31c0,0-57.62-25.31-154.87,140.82c5.79,25.69,21.01,40.5,41.53,49.22l115.82-109.82       L962.51,1788.31z" class="colorea88b0 svgShape"/><path fill="#fad29b" d="M849.17,1978.35c24.73-95.97,64.47-152.22,86.45-176.57c10.94-12.11,28.1-16.89,43.45-11.35       c68.52,24.76,144.56,156.73,144.56,156.73S956.92,1883.46,849.17,1978.35z" class="colorfa9bbd svgShape"/><path fill="#eac188" d="M1269.08,1914.06c0,0-28.08-22.76-15.37-48.78c0,0,156.67-67.66,213.43-57.77l-28.38,43.59l-56.76,19.5      l-40.79,16.28L1269.08,1914.06z" class="colorea88b0 svgShape"/><path fill="#fad29b" d="M1269.08 1914.06l176.47-102.53c23.33-12.83 54.07 6.82 52.22 33.38l-9.95 211.04L1269.08 1914.06zM215.28 2040.78c5.16 14.15 15.59 26.41 30.15 35.54.06 9.67 1.9 19.05 5.32 27.27 19.1 43.82 72.19 56.68 113.34 59.79l4.08.29.46-22.39-3.77-.19c-35.31-1.72-80.79-10.91-97-44.92-1.47-3.35-2.61-6.96-3.38-10.77 7.71 2.59 16.65 4.02 25.43 4.02 23.78 0 41.79-10.06 48.15-26.92 4.19-11.91 2.2-24.89-5.44-35.68-7.89-11.16-20.4-17.81-33.41-17.81-1.06 0-2.15.04-3.21.12-29.53 3.67-45.87 29.9-49.68 54.88-1.87-1.3-3.67-2.69-5.43-4.12-26.38-21-23.2-58.53-19.61-77.06.4-2.04-.91-4.02-2.94-4.48l0 0-.06-.01c-2.09-.48-4.18.83-4.63 2.92C208.51 2005.13 209.05 2024.12 215.28 2040.78zM263.29 2072.9c.13-20.4 10.02-38.23 25.62-45.85 3.42-1.7 7.04-2.57 10.75-2.57 8.14 0 16.4 4.33 21.52 11.33 4.95 6.73 6.34 14.64 3.92 22.32-4.45 14.35-23.38 18-31.33 18.89-2.13.25-4.33.37-6.54.37C279.28 2077.39 271.22 2075.88 263.29 2072.9z" class="colorfa9bbd svgShape"/><path fill="#413729" d="M1283.32,1529.62v237.9c-53.14,37.37-106.27,65.91-159.41,85.58c-171.34,63.47-342.67,34.93-514.01-85.58     v-237.9H1283.32z" class="color293241 svgShape"/><path fill="#2b2419" d="M1283.32,1529.62v237.9c-53.14,37.37-106.27,65.91-159.41,85.58v-323.47h159.41V1529.62z" class="color19212b svgShape"/><polygon fill="#332b1f" points="1466.1 1462.75 946.62 1688.66 427.13 1462.75 946.62 1236.84" class="color1f2733 svgShape"/><polygon fill="#332b1f" points="427.13 1462.75 427.13 1426.88 534.49 1423.14 512.45 1476.3" class="color1f2733 svgShape"/><polygon fill="#332b1f" points="1466.1 1462.75 1466.1 1426.88 1397.96 1426.88 1397.96 1478.03" class="color1f2733 svgShape"/><polygon fill="#413729" points="1466.1 1426.88 946.62 1652.79 427.13 1426.88 946.62 1200.97" class="color293241 svgShape"/><path fill="#ff9e02" d="M946.64,1427.51c0,3.62-2.77,6.7-6.45,7.04l-418.03,37.06v134.17h-14.14v-147.12l430.92-38.19      c3.89-0.35,7.31,2.52,7.66,6.4v0.01C946.63,1427.1,946.64,1427.31,946.64,1427.51z" class="colorffb902 svgShape"/><path fill="#ffa30f" d="M946.64,1427.51c0,3.62-2.77,6.7-6.45,7.04l-418.03,37.06v134.17h-6.91v-139.49l431.36-39.42v0.01     C946.63,1427.1,946.64,1427.31,946.64,1427.51z" class="colorf2a807 svgShape"/><polygon fill="#fbab3b" points="555.07 1868.76 474.69 1868.76 498.03 1623.72 531.74 1623.72" class="colorfbb03b svgShape"/><polygon fill="#ff9e02" points="555.08 1868.76 474.69 1868.76 498.03 1623.72 531.74 1623.72" class="colorffb902 svgShape"/><polygon fill="#ffa30f" points="555.08 1868.76 514.88 1868.76 514.88 1623.72 531.74 1623.72" class="colorf2a807 svgShape"/><circle cx="515.1" cy="1605.79" r="27.23" fill="#ff9e02" transform="rotate(-22.5 515.071 1605.722)" class="colorffb902 svgShape"/><path fill="#ffa30f" d="M542.33,1605.78c0,15.04-12.2,27.23-27.22,27.23c-13.64,0-24.93-10.02-26.91-23.13     c4.27,9.44,13.77,16,24.81,16c15.03,0,27.22-12.18,27.22-27.23c0-1.37-0.1-2.73-0.3-4.04     C541.46,1598.02,542.33,1601.81,542.33,1605.78z" class="colorf2a807 svgShape"/><ellipse cx="940.56" cy="1426.86" fill="#2b2419" rx="28.2" ry="22.25" class="color19212b svgShape"/><path fill="#332b1f" d="M1191.58,1362.54c0,9.46-3.41,17.96-8.88,24.14c-5.52,6.13-13.1,9.95-21.54,9.95H692.63    c-16.78,0-30.42-15.23-30.42-34.09c0-9.4,3.41-17.9,8.93-24.08c3.19-3.58,7.14-6.37,11.58-8.07c3.09-1.21,6.44-1.88,9.91-1.88    h468.53c2,0,3.9,0.24,5.79,0.67c2.11,0.42,4.17,1.09,6.06,2.06h0.05C1183.95,1336.4,1191.58,1348.47,1191.58,1362.54z" class="color1f2733 svgShape"/><g fill="#000000" class="color000 svgShape"><path fill="#ff9e02" d="M1196.03,1215.58c0,44.88-10.96,87.13-30.34,124.26c-10.8,20.65-24.18,39.72-39.77,56.79H728.57       c-15.43-16.91-28.76-35.77-39.45-56.26c-0.21-0.42-0.42-0.84-0.63-1.27c-19.23-36.93-30.08-79.02-30.08-123.53       c0-148.5,120.37-268.81,268.81-268.81C1075.71,946.77,1196.03,1067.09,1196.03,1215.58z" class="colorffb902 svgShape"/><path fill="#ffa30f" d="M1196.03,1215.58c0,44.83-10.96,87.13-30.39,124.26c-10.8,20.65-24.18,39.72-39.77,56.79h-5.16       c15.43-17.65,28.6-37.3,39.03-58.58c17.59-35.71,27.44-75.91,27.44-118.37c0-148.5-120.31-268.81-268.81-268.81       c-38.61,0-75.33,8.16-108.51,22.81c35.45-17.23,75.28-26.92,117.36-26.92C1075.71,946.77,1196.03,1067.09,1196.03,1215.58z" class="colorf2a807 svgShape"/><path fill="#ffa30f" d="M1153.99,1215.58c0,44.88-13.06,86.71-35.56,121.9c-13.12,20.54-29.5,38.87-48.36,54.2       c-2.11,1.68-4.21,3.37-6.37,4.95H790.79c-19.28-14.49-36.14-32.03-49.94-51.89c-1.69-2.37-3.27-4.79-4.85-7.27       c-22.55-35.24-35.5-77.01-35.5-121.9c0-125.21,101.51-226.78,226.72-226.78S1153.99,1090.37,1153.99,1215.58z" class="colorf2a807 svgShape"/><path fill="#f7960d" d="M798.69,1396.63h-7.9c-19.28-14.49-36.14-32.03-49.94-51.89c-1.69-2.37-3.27-4.79-4.85-7.27       c-22.55-35.24-35.5-77.01-35.5-121.9c0-75.7,37.08-142.75,94.08-183.9c-54.73,41.35-90.13,106.99-90.13,180.95       c0,46.14,13.8,89.08,37.51,124.85c1.79,2.79,3.69,5.53,5.64,8.22C761.81,1365.29,779.09,1382.46,798.69,1396.63z" class="colore59c0a svgShape"/><path fill="#db8307" d="M1153.98,1215.57c0,65.97-28.16,125.36-73.14,166.8c37.16-40.4,59.86-94.31,59.86-153.52       c0-125.23-101.51-226.74-226.74-226.74c-59.21,0-113.12,22.7-153.52,59.86c41.45-44.98,100.83-73.14,166.8-73.14       C1052.47,988.83,1153.98,1090.34,1153.98,1215.57z" class="colordb9507 svgShape"/><path fill="#c67605" d="M1019.61,1309.53c-6.72,11.54-16.61,21.05-29.67,28.53s-28.47,11.85-46.22,13.12V1382h-24.34v-31.19        c-25.36-2.28-45.78-9.95-61.24-23.01c-15.47-13.06-23.45-30.75-23.96-53.07h57.06c1.52,18.26,10.9,29.29,28.15,33.1v-72.65        c-18.26-4.57-32.97-9.13-44.12-13.69c-11.16-4.57-20.8-11.92-28.91-22.06c-8.12-10.14-12.17-23.96-12.17-41.46        c0-22.06,7.92-40.07,23.78-54.02c15.85-13.95,36.32-21.93,61.43-23.96v-30.81h24.34v30.81c24.34,2.03,43.81,9.38,58.39,22.06        s22.76,30.18,24.54,52.49h-57.44c-0.76-7.35-3.36-13.75-7.8-19.2s-10.34-9.32-17.69-11.61v71.9        c19.02,4.82,34.04,9.45,45.07,13.89c11.03,4.44,20.61,11.66,28.72,21.68s12.17,23.78,12.17,41.27        C1029.7,1285.63,1026.34,1298,1019.61,1309.53z M897.32,1175.64c5.07,5.2,12.42,9.45,22.06,12.74v-65.81        c-9.13,1.27-16.36,4.69-21.68,10.27c-5.33,5.58-7.99,13.06-7.99,22.44C889.71,1163.65,892.25,1170.44,897.32,1175.64z         M966.36,1296.79c5.45-6.09,8.18-13.44,8.18-22.07c0-8.37-2.66-15.09-7.99-20.16c-5.33-5.07-12.93-9.25-22.82-12.55v66.57        C953.36,1306.81,960.91,1302.88,966.36,1296.79z" class="colorc68005 svgShape"/><path fill="#ffffff" d="M1010.2,1309.53c-6.72,11.54-16.61,21.05-29.67,28.53s-28.47,11.85-46.22,13.12V1382h-24.34v-31.19        c-25.36-2.28-45.78-9.95-61.24-23.01c-15.47-13.06-23.45-30.75-23.96-53.07h57.06c1.52,18.26,10.9,29.29,28.15,33.1v-72.65        c-18.26-4.57-32.97-9.13-44.12-13.69c-11.16-4.57-20.8-11.92-28.91-22.06s-12.17-23.96-12.17-41.46        c0-22.06,7.92-40.07,23.78-54.02c15.85-13.95,36.32-21.93,61.43-23.96v-30.81h24.34v30.81c24.34,2.03,43.81,9.38,58.39,22.06        s22.76,30.18,24.54,52.49h-57.44c-0.76-7.35-3.36-13.75-7.8-19.2s-10.34-9.32-17.69-11.61v71.9        c19.02,4.82,34.04,9.45,45.07,13.89c11.03,4.44,20.61,11.66,28.72,21.68s12.17,23.78,12.17,41.27        C1020.29,1285.63,1016.93,1298,1010.2,1309.53z M887.91,1175.64c5.07,5.2,12.42,9.45,22.06,12.74v-65.81        c-9.13,1.27-16.36,4.69-21.68,10.27c-5.33,5.58-7.99,13.06-7.99,22.44C880.3,1163.65,882.84,1170.44,887.91,1175.64z         M956.95,1296.79c5.45-6.09,8.18-13.44,8.18-22.07c0-8.37-2.66-15.09-7.99-20.16c-5.33-5.07-12.93-9.25-22.82-12.55v66.57        C943.95,1306.81,951.5,1302.88,956.95,1296.79z" class="colorfff svgShape"/><polygon fill="#ffffff" points="766.91 1084.93 755.92 1065.68 736.29 1055.4 755.54 1044.41 765.82 1024.77 776.81 1044.02 796.44 1054.3 777.19 1065.29" class="colorfff svgShape"/><polygon fill="#ffffff" points="741.68 1098.67 737.76 1091.81 730.76 1088.14 737.63 1084.23 741.29 1077.23 745.21 1084.09 752.21 1087.76 745.34 1091.67" class="colorfff svgShape"/></g></g></svg>