<svg xmlns="http://www.w3.org/2000/svg" enable-background="new 0 0 1364 960" viewBox="0 0 1364 960"><ellipse cx="662.64" cy="889.264" fill="#ffa30f" rx="325.325" ry="25.736" class="colorE7E6FF svgShape"/><path fill="#ffefd9" d="M476.918 670.301c1.228 12.486-5.605 28.36-14.143 33.44-5.607 3.353 16.861-28.696 10.402-36.49-6.442-7.774-22.874-14.568-22.874-14.568 6.227 9.501.536 46.152-8.609 48.553-9.265 2.433 12.051-44.818 4.364-49.274-7.683-4.493-32.171-10.743-32.171-10.743 11.764 11.023 14.885 37.205 11.096 40.316-6.28 5.157-4.617-36.599-14.451-39.893-9.832-3.294-26.102-2.434-26.102-2.434s19.151 18.609 17.014 28.38c-2.101 9.775-10.063-24.246-19.009-26.981-8.265-2.515-22.038-.365-22.619-.131 7.216 2.959 27.883 26.239 26.982 32.932-1.439 10.884-12.339-27.956-35.022-26.611-14.919.912-21.302.231-29.511-1.424 6.938 10.83 12.201 24.567 15.867 34.361 6.95 18.572 53.369 3.344 44.374 10.604-8.846 7.14-37.853 7.733-41.87-1.73 0 0 3.461 19.366 11.048 24.238 4.826 3.112 39.554-14.459 41.779-7.841 2.241 6.639-31.408 21.395-36.644 12.748 0 0 7.694 24.733 20.274 20.881 12.597-3.831 40.523-27.478 41.359-21.583.816 5.912-38.621 33.117-47.798 25.07 0 0 13.722 18.828 25.324 13.889 11.602-4.939 21.857-26.459 24.299-23.434 2.425 3.004-2.073 16.678-22.341 26.587 0 0 12.914 12.836 25.354 11.606 18.235-1.803 38.281-7.396 60.716-19.999 11.358-27.376 18.103-42.671 11.516-62.593C492.599 679.341 476.918 670.301 476.918 670.301zM355.943 676.089c.113 1.719-2.28 3.281-5.363 3.491-3.083.208-5.68-1.014-5.793-2.734-.114-1.719 2.279-3.281 5.362-3.49C353.233 673.147 355.829 674.37 355.943 676.089zM360.108 701.893c.294 1.07-.76 2.256-2.348 2.699-1.587.443-3.109-.072-3.386-1.122-.294-1.07.76-2.256 2.347-2.699C358.325 700.348 359.83 700.843 360.108 701.893zM430.713 754.729c-4.379 3.132-9.334 3.679-11.076 1.229-1.742-2.449.389-6.952 4.747-10.067 4.395-3.112 9.335-3.679 11.076-1.23C437.202 747.111 435.071 751.614 430.713 754.729zM410.797 713.109c-2.67 1.551-5.53 1.58-6.408.076-.842-1.5.626-3.958 3.313-5.49 2.687-1.532 5.546-1.56 6.388-.061C414.952 709.119 413.484 711.578 410.797 713.109zM409.609 671.057c-1.052-.223-1.601-1.859-1.193-3.596.392-1.758 1.543-2.989 2.612-2.745 1.089.228 1.621 1.843 1.23 3.6C411.866 670.074 410.678 671.301 409.609 671.057zM480.32 706.041c-2.53 3.718-6.27 5.564-8.346 4.155-2.076-1.409-1.706-5.562.824-9.28 2.547-3.698 6.271-5.564 8.346-4.155C483.219 698.169 482.85 702.322 480.32 706.041zM933.261 421.856c-11.96-3.79-23.859-16.323-25.166-26.173-.873-6.475 19.734 26.801 29.442 23.936 9.683-2.859 22.4-15.286 22.4-15.286-11.185 1.981-42.631-17.688-41.236-27.039 1.414-9.475 36.447 28.731 43.571 23.421 7.156-5.292 22.547-25.338 22.547-25.338-14.766 6.471-40.06-.975-41.427-5.682-2.266-7.804 35.458 10.173 42.36 2.432 6.901-7.74 12.519-23.033 12.519-23.033s-24.649 10.273-32.787 4.459c-8.157-5.781 26.249.302 32.288-6.843 5.567-6.606 9.017-20.112 9.03-20.739-5.562 5.466-35.101 15.292-40.898 11.828-9.437-5.611 30.556-.329 38.255-21.708 5.039-14.072 8.179-19.671 12.934-26.564-12.687 2.111-27.387 1.537-37.833 1.048-19.808-.928-24.097 47.736-27.227 36.609-3.078-10.944 7.803-37.838 18.083-37.804 0 0-19.163-4.447-26.63.607-4.761 3.21-2.291 42.051-9.251 41.489-6.985-.556-7.293-37.297 2.718-38.703 0 0-25.764-2.671-27.179 10.409-1.441 13.087 9.294 48.071 3.545 46.517-5.755-1.579-15.226-48.544-4.214-53.808 0 0-22.711 5.195-22.741 17.805-.031 12.609 15.709 30.513 11.967 31.565-3.716 1.045-14.513-8.475-15.636-31.008 0 0-16.885 6.813-20.655 18.731-5.526 17.471-8.282 38.1-5.535 63.685 20.688 21.223 32.09 33.449 52.995 35.242C918.775 432.708 933.261 421.856 933.261 421.856zM975.596 308.382c-1.625-.573-2.118-3.388-1.096-6.305 1.023-2.915 3.17-4.821 4.794-4.247 1.624.573 2.118 3.387 1.096 6.304C979.367 307.05 977.22 308.954 975.596 308.382zM950.238 302.046c-1.1-.152-1.775-1.587-1.556-3.221.218-1.633 1.291-2.829 2.365-2.671 1.099.151 1.774 1.587 1.556 3.22C952.36 301.015 951.312 302.204 950.238 302.046zM873.861 346.128c-1.154-5.258.296-10.028 3.233-10.665 2.938-.636 6.236 3.096 7.383 8.329 1.128 5.265-.296 10.029-3.233 10.665C878.306 355.094 875.007 351.361 873.861 346.128zM919.961 344.219c-.374-3.065.726-5.705 2.454-5.92 1.71-.183 3.392 2.135 3.741 5.207.349 3.073-.751 5.712-2.461 5.896C921.992 349.609 920.31 347.291 919.961 344.219zM959.081 359.691c.62-.879 2.339-.74 3.775.32 1.461 1.052 2.139 2.596 1.494 3.482-.638.911-2.332.764-3.793-.288S958.435 360.577 959.081 359.691zM899.071 410.904c-2.421-3.79-2.644-7.955-.531-9.308 2.112-1.353 5.784.623 8.206 4.413 2.396 3.798 2.644 7.955.531 9.308C905.164 416.669 901.492 414.694 899.071 410.904z" class="colorD9E0FF svgShape"/><path fill="#fff2e0" d="M916.009 622.644c2.304.779 4.664 1.362 7.048 1.748-.172-1.746 1.479-3.661 4.79-3.622 1.492.017 4.301.499 5.765.849 4.202 1.002 8.778.129 11.963-2.281-1.817 1.944-3.649 3.901-5.87 5.467-2.221 1.566-5.056 3.82-7.942 3.965-2.788.14-7.066-.438-8.436-3.434-1.775-.269-3.539-.645-5.278-1.129 3.278 2.559 6.438 5.243 9.466 8.044.059-.001.122.006.191.031 2.531.905 5.137 1.57 7.77 1.992-.178-1.748 1.472-3.669 4.789-3.631 1.492.018 4.3.5 5.765.848 4.202 1.002 8.777.129 11.963-2.281-1.817 1.944-3.649 3.901-5.87 5.467-2.221 1.566-5.056 3.819-7.942 3.965-2.788.14-7.066-.438-8.436-3.434-2.282-.346-4.544-.871-6.761-1.573 2.845 2.706 5.572 5.513 8.164 8.419 2.529.904 5.131 1.567 7.763 1.99-.178-1.748 1.472-3.669 4.789-3.631 1.492.017 4.301.499 5.765.848 4.202 1.002 8.778.129 11.963-2.281-1.817 1.944-3.649 3.901-5.87 5.467-2.221 1.566-5.056 3.82-7.942 3.965-2.789.14-7.068-.438-8.437-3.435-2.323-.353-4.626-.89-6.881-1.612 1.22 1.402 2.418 2.821 3.576 4.266.969 1.209 1.889 2.447 2.813 3.682 2.042 1.291 4.197 2.408 6.433 3.341.338-1.697 2.513-3.124 5.751-2.304 1.459.37 4.075 1.491 5.411 2.169 3.833 1.945 8.576 2.199 12.401.665-2.346 1.415-4.712 2.839-7.346 3.8-2.634.961-6.069 2.429-8.944 1.884-2.776-.527-6.807-2.087-7.282-5.254-1.72-.697-3.395-1.5-5.01-2.407 2.763 3.831 5.292 7.787 7.612 11.833 1.918 1.611 3.992 3.046 6.186 4.292.592-1.628 2.981-2.764 6.096-1.558 1.402.543 3.846 1.968 5.078 2.798 3.535 2.383 8.235 3.218 12.289 2.183-2.558 1.1-5.068 2.966-7.844 3.585-2.776.619-6.5.878-9.289-.012-2.693-.86-6.481-2.888-6.481-6.055-1.695-.944-3.324-1.995-4.867-3.151 1.988 3.618 3.793 7.307 5.411 11.056.04.022.08.04.118.075 1.901 1.781 3.985 3.379 6.211 4.778.68-1.597 3.137-2.625 6.194-1.283 1.375.603 3.745 2.131 4.934 3.013 3.411 2.531 8.074 3.573 12.191 2.723-2.623.981-5.307 2.701-8.122 3.193-2.815.492-6.493.61-9.238-.401-2.651-.976-6.335-3.166-6.161-6.319-1.86-1.148-3.626-2.431-5.275-3.838 1.621 3.932 3.04 7.923 4.236 11.957.035.117.609 1.796 1.862 4.319 1.603-.671 4.087-.143 5.783 2.25.827 1.167 1.957 3.571 2.452 4.869 1.423 3.725 4.841 6.879 8.938 8.246-2.879-.518-5.779-1.041-8.527-2.047-2.748-1.006-6.497-2.172-8.268-4.348-1.709-2.1-3.576-5.685-1.506-8.126-.786-1.578-1.453-3.2-1.987-4.854-.007-.017-.019-.028-.025-.046-.024-.082-.052-.162-.076-.244-.012-.039-.025-.079-.037-.119-.722-2.407-1.526-4.797-2.4-7.169-.3 1.729-.745 3.424-1.325 5.071.018.014.038.026.055.04 2.913 2.414 1.529 6.124.061 8.263-1.468 2.139-4.548 3.837-7.212 4.819-2.663.982-6.15.927-9.027 1.427 3.993-1.333 6.997-4.43 7.855-8.097.299-1.278 1.07-3.643 1.731-4.791 1.374-2.386 3.891-2.875 5.654-2.166.727-2.103 1.227-4.284 1.478-6.516-1.503-3.875-3.215-7.692-5.117-11.442-.281 2.15-.78 4.254-1.485 6.286 2.441 2.422 1.099 6.029-.302 8.145-1.45 2.19-4.462 3.951-7.06 4.981-2.598 1.029-5.984 1.014-8.785 1.557 3.894-1.402 6.848-4.583 7.723-8.318.305-1.302 1.081-3.713 1.736-4.887 1.458-2.611 4.161-3.032 5.863-2.103.752-2.222 1.25-4.53 1.467-6.891.009-.096.051-.168.104-.23-.543-1.037-1.101-2.069-1.674-3.095-1.536-2.749-3.211-5.435-4.952-8.088-.29 1.996-.766 3.95-1.424 5.842 2.435 2.422 1.094 6.025-.307 8.14-1.45 2.19-4.462 3.951-7.06 4.98s-5.984 1.014-8.785 1.557c3.894-1.402 6.848-4.583 7.723-8.318.305-1.302 1.081-3.714 1.736-4.887 1.456-2.607 4.155-3.031 5.856-2.107.706-2.094 1.187-4.263 1.422-6.482-2.338-3.475-4.851-6.856-7.527-10.135-.276 2.205-.783 4.361-1.506 6.443 2.442 2.422 1.1 6.029-.302 8.145-1.45 2.19-4.462 3.951-7.06 4.98-2.598 1.029-5.984 1.014-8.785 1.557 3.894-1.401 6.847-4.583 7.723-8.318.305-1.301 1.081-3.713 1.736-4.887 1.457-2.61 4.161-3.032 5.863-2.103.752-2.222 1.25-4.53 1.468-6.891 0-.001.001-.001 0-.002-2.464-2.96-5.077-5.818-7.803-8.591-.268 2.239-.776 4.428-1.51 6.54 2.401 2.389 1.078 5.943-.303 8.03-1.431 2.16-4.402 3.898-6.965 4.913-2.563 1.015-5.903 1.001-8.666 1.536 3.841-1.383 6.755-4.521 7.619-8.206.301-1.284 1.066-3.663 1.713-4.821 1.436-2.572 4.099-2.99 5.778-2.078.742-2.191 1.232-4.466 1.447-6.795.001-.011.007-.017.009-.027-2.708-2.707-5.552-5.302-8.497-7.806-.28 2.163-.781 4.279-1.49 6.324 2.442 2.422 1.1 6.029-.302 8.145-1.45 2.19-4.462 3.951-7.06 4.98-2.599 1.029-5.984 1.014-8.785 1.557 3.894-1.402 6.848-4.583 7.723-8.318.305-1.302 1.081-3.713 1.736-4.887 1.456-2.607 4.155-3.031 5.856-2.107.705-2.09 1.185-4.255 1.42-6.469-.34-.284-.662-.583-1.005-.863-14.637-12.005-31.855-21.371-50.248-27.331-.818-.265-.495-1.408.325-1.143 10.388 3.366 20.412 7.797 29.813 13.183C905.552 615.256 910.914 618.804 916.009 622.644zM448.389 381.135c-.559 2.367-.917 4.771-1.076 7.181 1.722-.335 3.784 1.127 4.057 4.428.123 1.487-.092 4.328-.302 5.819-.602 4.278.698 8.751 3.397 11.695-2.106-1.626-4.227-3.265-5.995-5.329-1.768-2.064-4.278-4.674-4.695-7.534-.402-2.762-.229-7.076 2.625-8.721.1-1.793.309-3.584.627-5.361-2.239 3.505-4.613 6.903-7.117 10.181.006.059.005.122-.013.193-.663 2.605-1.079 5.262-1.252 7.923 1.723-.342 3.792 1.12 4.065 4.426.123 1.487-.092 4.328-.302 5.819-.602 4.278.698 8.751 3.397 11.695-2.106-1.626-4.227-3.265-5.995-5.329-1.768-2.064-4.279-4.674-4.695-7.534-.402-2.763-.229-7.076 2.625-8.722.13-2.304.439-4.606.93-6.879-2.426 3.087-4.964 6.066-7.613 8.92-.662 2.603-1.077 5.256-1.25 7.915 1.723-.341 3.792 1.12 4.065 4.426.123 1.487-.092 4.328-.302 5.819-.602 4.278.698 8.751 3.397 11.695-2.106-1.626-4.227-3.265-5.995-5.329-1.768-2.064-4.279-4.674-4.695-7.534-.402-2.763-.229-7.077 2.626-8.722.132-2.346.45-4.689.957-7.003-1.281 1.347-2.581 2.673-3.91 3.962-1.112 1.078-2.258 2.111-3.401 3.147-1.093 2.155-2.002 4.405-2.721 6.719 1.721.177 3.346 2.207 2.835 5.508-.231 1.488-1.101 4.198-1.65 5.591-1.575 3.999-1.382 8.745.505 12.409-1.63-2.203-3.27-4.424-4.475-6.956-1.204-2.532-2.989-5.814-2.717-8.727.263-2.813 1.437-6.973 4.545-7.744.532-1.778 1.173-3.521 1.925-5.214-3.553 3.111-7.254 6.001-11.064 8.692-1.424 2.061-2.656 4.261-3.691 6.563 1.676.436 3.033 2.708 2.125 5.922-.409 1.447-1.597 4.014-2.308 5.319-2.04 3.744-2.429 8.502-1.017 12.44-1.336-2.444-3.43-4.766-4.307-7.473-.877-2.706-1.486-6.388-.863-9.249.602-2.762 2.265-6.724 5.419-7.022.78-1.777 1.674-3.497 2.679-5.142-3.415 2.32-6.917 4.464-10.497 6.428-.018.042-.032.084-.064.124-1.594 2.06-2.988 4.285-4.172 6.634 1.654.526 2.908 2.876 1.86 6.046-.471 1.426-1.769 3.929-2.535 5.196-2.199 3.634-2.797 8.375-1.564 12.394-1.224-2.519-3.189-5.029-3.944-7.786-.755-2.757-1.218-6.407-.47-9.235.722-2.731 2.555-6.605 5.711-6.728.968-1.96 2.079-3.839 3.324-5.613-3.762 1.984-7.602 3.772-11.505 5.343-.113.046-1.73.775-4.125 2.26.819 1.533.528 4.056-1.695 5.969-1.084.933-3.371 2.284-4.617 2.9-3.575 1.767-6.393 5.467-7.368 9.675.245-2.915.493-5.851 1.235-8.682.743-2.83 1.551-6.673 3.551-8.64 1.93-1.899 5.323-4.095 7.949-2.264 1.497-.931 3.049-1.747 4.645-2.435.017-.008.026-.022.043-.029.079-.032.157-.067.236-.099.038-.016.077-.032.115-.048 2.328-.945 4.632-1.971 6.911-3.065-1.75-.136-3.478-.419-5.173-.842-.013.019-.022.04-.035.059-2.129 3.128-5.953 2.099-8.22.839-2.267-1.26-4.248-4.167-5.477-6.726-1.228-2.559-1.502-6.035-2.271-8.853 1.703 3.85 5.069 6.549 8.801 7.058 1.3.177 3.728.722 4.933 1.272 2.504 1.144 3.228 3.603 2.689 5.425 2.163.526 4.381.818 6.626.858 3.716-1.861 7.355-3.925 10.909-6.171-2.167-.077-4.308-.376-6.398-.887-2.181 2.659-5.898 1.662-8.137.466-2.316-1.238-4.354-4.07-5.623-6.56-1.269-2.49-1.573-5.862-2.377-8.599 1.762 3.745 5.207 6.386 9.008 6.905 1.324.181 3.799.726 5.029 1.268 2.736 1.205 3.41 3.858 2.646 5.639 2.283.54 4.627.818 6.998.812.096 0 .172.035.239.082.982-.638 1.956-1.291 2.924-1.958 2.592-1.788 5.109-3.708 7.586-5.691-2.014-.101-4.004-.391-5.95-.867-2.182 2.652-5.896 1.656-8.133.461-2.317-1.238-4.354-4.07-5.623-6.56-1.269-2.49-1.573-5.862-2.377-8.599 1.762 3.745 5.207 6.386 9.008 6.905 1.324.181 3.799.726 5.029 1.268 2.732 1.204 3.409 3.851 2.649 5.632 2.151.506 4.356.78 6.587.805 3.24-2.655 6.369-5.475 9.382-8.448-2.221-.068-4.416-.369-6.556-.892-2.181 2.659-5.898 1.663-8.138.466-2.317-1.238-4.354-4.07-5.623-6.56-1.269-2.49-1.573-5.862-2.377-8.599 1.762 3.745 5.207 6.386 9.008 6.905 1.324.181 3.799.726 5.029 1.268 2.736 1.205 3.41 3.858 2.646 5.639 2.283.54 4.627.818 6.999.812.001 0 .001.001.002.001 2.715-2.732 5.314-5.603 7.818-8.577-2.254-.056-4.482-.355-6.653-.887-2.152 2.615-5.815 1.633-8.023.454-2.285-1.221-4.295-4.015-5.547-6.472-1.252-2.456-1.552-5.783-2.345-8.483 1.738 3.694 5.137 6.299 8.887 6.812 1.306.178 3.747.716 4.961 1.251 2.696 1.188 3.363 3.799 2.613 5.556 2.251.532 4.563.806 6.901.801.01 0 .017.005.027.006 2.44-2.951 4.756-6.026 6.971-9.194-2.18-.075-4.334-.374-6.436-.888-2.181 2.659-5.898 1.662-8.137.466-2.317-1.238-4.354-4.07-5.623-6.56-1.269-2.49-1.573-5.862-2.377-8.599 1.762 3.745 5.207 6.386 9.008 6.905 1.324.181 3.799.727 5.029 1.268 2.733 1.204 3.409 3.851 2.649 5.632 2.147.505 4.347.779 6.574.805.25-.365.518-.714.765-1.081 10.574-15.702 18.277-33.726 22.48-52.598.187-.839 1.355-.625 1.168.216-2.373 10.659-5.841 21.056-10.317 30.922C454.76 370.029 451.732 375.701 448.389 381.135z" class="colorE6E0FF svgShape"/><path fill="#fff2e0" d="M908.169,585.544l-0.098,0.118c-18.5,7.872-36.506,13.23-50.401,15.375l0.438,2.786   c13.755-2.126,31.5-7.374,49.804-15.071c7.775,5.187,24.993,9.083,25.176,9.118l0.588-2.752c-3.239-0.69-15.783-3.931-22.66-7.714   c10.294-4.471,20.669-9.713,30.595-15.6c8.397,3.952,26.214,5.193,26.404,5.207l0.135-2.822   c-0.167-0.007-15.256-1.061-23.596-4.121c18.1-11.081,34.366-24.32,45.001-39.042l-2.281-1.655   c-8.87,12.279-21.753,23.499-36.331,33.284c-0.551-6.78-1.019-19.025,1.082-24.422l-2.636-1.027   c-2.709,6.983-1.536,22.585-1.119,27.185c-8.658,5.63-17.826,10.744-27.118,15.269c-1.26-4.396-5.178-18.841-3.968-25.526   l-2.783-0.495c-1.367,7.608,3.022,23.333,4.181,27.274c-3.452,1.638-6.905,3.209-10.346,4.676   C908.218,585.573,908.187,585.559,908.169,585.544z" class="colorE6E0FF svgShape"/><path fill="#ffefd9" d="M953.163,575.103c0,0,33.75-14.569,76.631-18.335c42.88-3.767,78.652,4.697,78.652,4.697   s-33.749,14.569-76.629,18.336C988.936,583.567,953.163,575.103,953.163,575.103z" class="colorD9E0FF svgShape"/><path fill="#fff2e0" d="M921.901 593.362c0 0 31.353-1.19 65.28 10.789 33.927 11.981 57.579 32.595 57.579 32.595s-31.352 1.188-65.279-10.791C945.555 613.974 921.901 593.362 921.901 593.362zM973.701 420.273c0 0 5.751 30.843-1.153 66.155-6.902 35.311-23.846 61.719-23.846 61.719s-5.75-30.844 1.153-66.155C956.758 446.679 973.701 420.273 973.701 420.273z" class="colorE6E0FF svgShape"/><path fill="#ffefd9" d="M901.477 439.701c0 0 14.978 27.57 19.296 63.289 4.317 35.72-3.66 66.065-3.66 66.065s-14.978-27.569-19.296-63.289C893.499 470.046 901.477 439.701 901.477 439.701zM977.433 542.88c0 0 17.392-32.387 48.651-61.98 31.257-29.595 64.546-45.19 64.546-45.19s-17.392 32.387-48.65 61.98C1010.721 527.283 977.433 542.88 977.433 542.88z" class="colorD9E0FF svgShape"/><path fill="#fff2e0" d="M451.298,353.325l0.141,0.06c12.833,15.477,23.115,31.2,29.143,43.901l2.544-1.216   c-5.97-12.573-16.072-28.077-28.681-43.417c2.748-8.933,1.558-26.546,1.54-26.732l-2.806,0.223   c0.265,3.301,0.746,16.249-0.914,23.92c-7.227-8.586-15.217-17.03-23.696-24.858c1.386-9.176-2.518-26.604-2.559-26.791   l-2.743,0.677c0.041,0.161,3.344,14.922,2.797,23.789c-15.793-14.177-33.13-25.979-50.278-31.961l-0.934,2.659   c14.302,4.99,28.737,14.126,42.282,25.299c-6.34,2.467-17.94,6.416-23.712,5.946l-0.23,2.82c7.466,0.6,22.081-4.985,26.37-6.699   c7.87,6.687,15.391,14.01,22.384,21.621c-3.852,2.464-16.574,10.349-23.326,11.1l0.322,2.808   c7.682-0.865,21.495-9.567,24.94-11.804c2.556,2.839,5.049,5.7,7.439,8.577C451.313,353.27,451.307,353.303,451.298,353.325z" class="colorE6E0FF svgShape"/><path fill="#ffefd9" d="M428.43,313.195c0,0-23.61-28.177-39.478-68.191c-15.869-40.013-17.985-76.712-17.985-76.712   s23.609,28.175,39.478,68.188C426.313,276.495,428.43,313.195,428.43,313.195z" class="colorD9E0FF svgShape"/><path fill="#fff2e0" d="M454.864 337.931c0 0-10.104-29.704-8.324-65.64 1.782-35.936 14.773-64.495 14.773-64.495s10.102 29.704 8.322 65.64C467.854 309.371 454.864 337.931 454.864 337.931zM274.19 337.779c0 0 27.911-14.329 63.724-17.808 35.81-3.482 65.96 5.206 65.96 5.206s-27.913 14.328-63.724 17.808C304.339 346.465 274.19 337.779 274.19 337.779z" class="colorE6E0FF svgShape"/><path fill="#ffefd9" d="M313.457 401.433c0 0 22.137-22.235 55.131-36.585 32.995-14.349 64.354-15.38 64.354-15.38s-22.136 22.235-55.131 36.584C344.815 400.403 313.457 401.433 313.457 401.433zM390.613 299.15c0 0-36.007-7.407-73.302-28.901-37.296-21.492-61.757-48.932-61.757-48.932s36.007 7.407 73.302 28.9C366.151 271.71 390.613 299.15 390.613 299.15z" class="colorD9E0FF svgShape"/><path fill="#fff2e0" d="M671.516,285.142v564.398c-67.522,0.011-128.698-27.293-173.05-71.477   c-70.304-70.047-72.103-156.896-72.136-173.229c12.401-23.304,28.377-60.674,33.18-108.891   c8.044-80.593-19.975-142.719-33.694-168.805c36.945-8.222,82.381-28.678,128.766-59.121l116.655,17.171L671.516,285.142z" class="colorE6E0FF svgShape"/><path fill="#f5e5ce" d="M916.669,603.928c0.022,16.322-1.441,103.182-71.488,173.486c-44.285,44.441-105.529,72.002-173.229,72.125   h-0.436V285.142l115.639-17.562c46.497,30.264,92.011,50.552,128.989,58.641c-13.619,26.131-41.403,88.369-33.069,168.939   C888.07,543.355,904.18,580.657,916.669,603.928z" class="colorD6CEF5 svgShape"/><path fill="#ffeed6" d="M671.516,308.345v512.628c-57.713,0-111.985-22.411-152.886-63.154   c-53.792-53.591-62.439-119.236-63.579-146.328c17.919-35.615,28.98-73.488,32.89-112.712   c6.145-61.568-6.491-114.198-22.321-153.545c30.756-10.87,64.204-27.538,97.417-48.664L671.516,308.345z" class="colorDED6FF svgShape"/><path fill="#f0dec5" d="M887.969,610.687c-1.039,27.103-9.451,92.781-63.031,146.551c-40.833,40.989-95.184,63.623-153.031,63.735   h-0.391V308.345l107.294-12.177c33.292,20.992,66.807,37.537,97.596,48.296c-15.685,39.414-28.119,92.089-21.751,153.634   C858.71,537.3,869.915,575.138,887.969,610.687z" class="colorCEC5F0 svgShape"/><path fill="#ffffff" d="M671.489,324.181v481.911c-53.854,0-104.515-20.917-142.682-58.933   c-48.498-48.313-57.626-107.442-59.176-133.6c17.55-35.702,28.414-73.649,32.324-112.845c4.94-49.493-1.273-98.546-18.452-145.991   c27.083-10.609,55.89-25.348,84.188-43.118l103.509,12.61L671.489,324.181z" class="colorFFF svgShape"/><path fill="#fff9f0" d="M873.363,612.725c-1.458,26.169-10.378,85.334-58.679,133.82c-38.109,38.247-88.816,59.361-142.809,59.465   h-0.359V324.099l102.653-12.957c28.367,17.654,57.233,32.289,84.362,42.794c-17.006,47.514-23.034,96.59-17.92,146.072   C844.671,539.181,855.685,577.081,873.363,612.725z" class="colorF3F0FF svgShape"/><path fill="#ffeed6" d="M539.867 350.132h9.329v30.127h-9.329V350.132zM555.937 350.132h8.693l11.344 16.668v-16.668h8.775v30.127h-8.775l-11.283-16.542v16.542h-8.754V350.132zM589.311 370.292l8.858-.555c.192 1.439.583 2.535 1.172 3.288.958 1.22 2.328 1.829 4.11 1.829 1.329 0 2.353-.311 3.072-.935.719-.624 1.079-1.346 1.079-2.168 0-.781-.342-1.479-1.028-2.096-.685-.616-2.275-1.199-4.768-1.747-4.083-.918-6.994-2.137-8.734-3.658-1.753-1.521-2.63-3.46-2.63-5.816 0-1.548.45-3.011 1.346-4.387.898-1.377 2.247-2.459 4.049-3.247 1.801-.788 4.271-1.181 7.409-1.181 3.849 0 6.784.716 8.805 2.147 2.021 1.432 3.223 3.709 3.607 6.833l-8.775.514c-.233-1.357-.723-2.343-1.47-2.959-.747-.617-1.778-.925-3.093-.925-1.082 0-1.898.23-2.446.688-.548.459-.821 1.017-.821 1.675 0 .479.226.911.677 1.294.439.398 1.481.768 3.125 1.11 4.068.877 6.984 1.764 8.744 2.661 1.76.897 3.041 2.011 3.842 3.339.802 1.329 1.202 2.815 1.202 4.459 0 1.932-.535 3.713-1.603 5.343-1.069 1.63-2.563 2.867-4.481 3.709-1.918.843-4.336 1.264-7.254 1.264-5.124 0-8.672-.986-10.645-2.959C590.687 375.841 589.571 373.333 589.311 370.292zM640.933 350.132h9.29v17.949c0 1.78-.278 3.461-.832 5.042-.555 1.581-1.426 2.964-2.611 4.148-1.185 1.184-2.429 2.016-3.729 2.495-1.809.671-3.98 1.007-6.516 1.007-1.465 0-3.064-.103-4.798-.308-1.734-.206-3.182-.613-4.346-1.222-1.164-.609-2.23-1.475-3.196-2.598-.965-1.123-1.627-2.28-1.983-3.471-.575-1.916-.863-3.614-.863-5.093v-17.949h9.289v18.377c0 1.643.456 2.927 1.367 3.85.911.924 2.174 1.386 3.791 1.386 1.604 0 2.861-.455 3.772-1.365.911-.91 1.366-2.2 1.366-3.871V350.132zM656.51 380.259v-30.127h15.516c2.877 0 5.076.247 6.597.74 1.52.493 2.746 1.407 3.678 2.743.932 1.336 1.398 2.963 1.398 4.88 0 1.672-.357 3.114-1.069 4.326-.712 1.212-1.693 2.196-2.94 2.949-.795.48-1.885.877-3.27 1.192 1.108.37 1.917.741 2.423 1.111.342.247.839.775 1.489 1.584.65.809 1.086 1.434 1.304 1.872l4.509 8.73h-10.519l-4.976-9.206c-.631-1.193-1.193-1.966-1.686-2.323-.671-.465-1.432-.698-2.28-.698h-.823v12.227H656.51zM665.861 362.339h3.925c.424 0 1.246-.137 2.466-.411.617-.123 1.121-.439 1.511-.945.391-.507.586-1.089.586-1.747 0-.973-.309-1.72-.925-2.24-.617-.52-1.775-.781-3.473-.781h-4.09V362.339z" class="colorDED6FF svgShape"/><path fill="#ffeed6" d="M707.645 375.286h-10.569l-1.468 4.973h-9.505l11.322-30.127h10.155l11.321 30.127h-9.749L707.645 375.286zM705.714 368.771l-3.325-10.83-3.291 10.83H705.714zM721.923 350.132h8.693L741.96 366.8v-16.668h8.775v30.127h-8.775l-11.283-16.542v16.542h-8.754V350.132zM776.977 367.929l8.159 2.466c-.548 2.288-1.412 4.199-2.589 5.734-1.179 1.534-2.641 2.692-4.388 3.473-1.747.781-3.97 1.172-6.668 1.172-3.275 0-5.95-.476-8.025-1.427-2.076-.951-3.867-2.625-5.374-5.021-1.507-2.396-2.26-5.463-2.26-9.201 0-4.984 1.326-8.814 3.977-11.49 2.651-2.677 6.402-4.015 11.252-4.015 3.794 0 6.778.767 8.949 2.301 2.171 1.535 3.785 3.891 4.84 7.07l-8.22 1.828c-.288-.918-.589-1.589-.904-2.014-.522-.712-1.158-1.26-1.911-1.644-.754-.383-1.596-.576-2.528-.576-2.11 0-3.727.849-4.849 2.545-.85 1.259-1.274 3.236-1.274 5.932 0 3.339.506 5.628 1.521 6.866 1.014 1.238 2.438 1.858 4.275 1.858 1.78 0 3.127-.5 4.038-1.5C775.905 371.285 776.566 369.833 776.977 367.929zM789.636 350.132h24.948v6.432h-15.619v4.788h14.488v6.144h-14.488v5.939h16.071v6.823h-25.4V350.132z" class="colorDED6FF svgShape"/><path fill="#f9e6cb" d="M684.419,485.02c0,0,0.679,2.451,1.949,6.437c0.443,1.477,1.004,3.16,1.594,4.991   c0.148,0.472,0.295,0.945,0.473,1.417c6.378,19.194,19.725,53.624,34.4,59.147c1.152,0.443,2.51,0.501,3.958,0.265   c0.797-0.118,1.653-0.353,2.51-0.649c0.501-0.207,1.003-0.384,1.505-0.62c0.503-0.236,1.034-0.472,1.565-0.738   c0.591-0.324,1.181-0.649,1.772-0.974c0.532-0.324,1.034-0.649,1.565-1.004c1.24-0.768,2.51-1.683,3.809-2.686   c5.256-4.016,10.748-9.272,15.384-14.352c2.923-3.189,5.552-6.289,7.589-8.947c0.384-0.472,0.708-0.915,1.033-1.358   c0.768-1.034,1.418-1.949,1.949-2.776v-0.03c0.059-0.059,0.089-0.089,0.118-0.148v-0.029c0.649-0.945,1.092-1.742,1.359-2.362   v-0.059c0.089-0.178,0.147-0.295,0.177-0.443c0.059-0.148,0.089-0.266,0.089-0.384l0.236-2.686l0.03-0.177l4.606-47.808l0.118-1.21   l0.029-0.177c-0.118,0.147-0.266,0.295-0.384,0.443c-2.273,2.599-4.518,5.167-6.702,7.736l-0.029,0.03   c-1.063,1.24-2.127,2.51-3.16,3.75c-0.03,0.03-0.03,0.03-0.03,0.03c-8.356,9.921-12.583,21.66-19.079,31.433   c-4.281,6.466-11.827,18.04-15.517,20.325c-6.143-13.968-16.192-27.544-24.106-39.858c-0.266-0.414-0.532-0.856-0.797-1.269   c-0.827-1.329-1.594-2.658-2.332-4.016c-1.005-1.801-1.89-3.691-2.688-5.61c0,0,6.024-11.989,2.54-15.68   c-3.101-3.278-7.234,5.699-8.504,4.4c-1.418-1.417-8.475-13.524-12.372-7.884C670.452,474.036,684.419,485.02,684.419,485.02z" class="colorF9CBCB svgShape"/><path fill="#fac172" d="M686.368,491.458c0.444,1.477,1.004,3.16,1.595,4.991c0.148,0.472,0.295,0.945,0.473,1.417   c6.378,19.194,19.725,53.624,34.4,59.147c1.152,0.443,2.51,0.501,3.958,0.265c0.797-0.118,1.653-0.353,2.51-0.649   c0.501-0.207,1.003-0.384,1.505-0.62c0.503-0.236,1.034-0.472,1.565-0.738c0.591-0.324,1.181-0.649,1.772-0.974   c0.532-0.324,1.034-0.649,1.565-1.004c0.502-0.324,1.033-0.679,1.565-1.063c0.738-0.502,1.476-1.063,2.244-1.624   c5.256-4.016,10.748-9.272,15.384-14.352c2.923-3.189,5.552-6.289,7.589-8.947c0.384-0.472,0.708-0.915,1.033-1.358   c0.768-1.034,1.418-1.949,1.949-2.776v-0.03c0.059-0.059,0.089-0.089,0.118-0.148v-0.029c0.649-0.945,1.092-1.742,1.359-2.362   v-0.059c0.089-0.178,0.147-0.295,0.177-0.443c0.059-0.148,0.089-0.266,0.089-0.384l0.501-3.838l0.03-0.118l6.113-47.983v-0.03   l0.147-1.181l0.118-0.886c-1.713,1.211-3.447,1.889-5.072,3.307c-12.773,11.807-21.238,25.691-29.713,40.277   c-3.898,6.673-7.53,13.258-11.073,19.253c-6.142-13.968-17.126-24.657-25.041-36.97c-0.266-0.414-0.532-0.856-0.797-1.269   c-0.827-1.329-1.594-2.658-2.332-4.016C696.117,487.188,690.966,491.514,686.368,491.458z" class="colorFA72BE svgShape"/><path fill="#ebb263" d="M771.215,467.87l-5.487,42.192l-0.029,0.118l-0.512,3.837c0,0.118-0.03,0.237-0.09,0.384   c-0.03,0.148-0.089,0.265-0.178,0.443v0.059c-0.268,0.619-0.713,1.416-1.365,2.359v0.029c-0.03,0.059-0.06,0.089-0.119,0.147v0.03   c-0.534,0.825-1.186,1.738-1.956,2.77c-0.326,0.442-0.651,0.884-1.037,1.356c-2.044,2.652-4.681,5.746-7.612,8.927   c-4.649,5.067-10.155,10.309-15.422,14.311c-0.769,0.559-1.509,1.118-2.248,1.618c-0.533,0.383-1.066,0.736-1.568,1.059   c-0.532,0.353-1.035,0.677-1.567,1c-0.592,0.323-1.183,0.647-1.775,0.97c-0.532,0.265-1.064,0.499-1.567,0.734   c-0.503,0.235-1.005,0.411-1.508,0.616c-0.857,0.293-1.714,0.527-2.512,0.643c-1.448,0.233-2.806,0.169-3.956-0.276   c-13.725-5.206-26.219-35.744-32.95-55.383c0.068,0.212,0.136,0.419,0.206,0.636c0.147,0.472,0.295,0.945,0.473,1.417   c6.378,19.194,19.725,53.624,34.401,59.147c1.151,0.443,2.51,0.501,3.957,0.265c0.797-0.118,1.653-0.353,2.51-0.649   c0.501-0.207,1.003-0.384,1.505-0.62c0.503-0.236,1.034-0.472,1.565-0.738c0.591-0.324,1.181-0.649,1.772-0.974   c0.532-0.324,1.034-0.649,1.565-1.004c0.502-0.324,1.034-0.679,1.565-1.063c0.738-0.502,1.477-1.063,2.244-1.624   c5.256-4.016,10.748-9.272,15.384-14.352c2.923-3.19,5.552-6.289,7.589-8.947c0.384-0.472,0.709-0.915,1.034-1.358   c0.768-1.034,1.417-1.949,1.949-2.776v-0.03c0.058-0.059,0.089-0.089,0.118-0.148v-0.029c0.649-0.945,1.092-1.742,1.358-2.362   v-0.059c0.089-0.178,0.147-0.295,0.178-0.443c0.058-0.148,0.088-0.266,0.088-0.384l0.503-3.838l0.029-0.118l6.113-47.983v-0.03   l0.147-1.181l0.118-0.887C773.144,466.375,772.174,467.11,771.215,467.87z" class="colorEB63AE svgShape"/><path fill="#83673f" d="M761.049,541.605c1.288,13.845,13.268,26.839,27.767,25.806c9.372-0.625,18.46-7.392,27.733-5.259   c7.135,1.602,12.487,8.111,19.6,9.507c12.278,2.256,18.597-12.062,19.73-22.311h0.033c0.299-14.529,11.655-25.366,13.428-39.101   c-0.306-34.093-30.431-32.17-29.207-48.934c0.426-4.182,2.516-9.996,2.581-14.211c-0.066-13.171-15.216-19.577-19.599-30.87   c-1.734-7.661-5.477-13.896-12.904-17.965c-22.51-12.335-37.264,17.337-28.58,31.667c0,0,7.31,15.422,7.577,15.894   c-18.443,12.302-16.999,37.164-20.122,56.708c-1.277,10.498-7.189,19.856-8.102,30.38   C760.616,535.763,760.707,538.747,761.049,541.605z" class="color3F4883 svgShape"/><path fill="#f9e6cb" d="M772.899,745.639c0,2.473,0,4.748,0.033,6.791c0.067,7.352,1.714,14.538,4.78,21.23   c6.494,14.01,18.527,45.955,26.834,103.975c0,0,16.516,5.373,17.604-0.166c13.615-68.47,1.648-87.458-7.286-118.776   c0.099-4.484,0.528-8.836,1.153-13.055c6.692-45.328,38.834-78.59,15.165-148.149c-0.099-0.329-0.198-0.692-0.329-1.021   l-16.087,0.56h-28.846c-0.032,0.165-0.066,0.297-0.099,0.461c-8.241,37.944-11.34,81.69-12.395,114.92v0.032   C772.999,725.432,772.899,736.805,772.899,745.639z" class="colorF9CBCB svgShape"/><path fill="#f9e6cb" d="M780.54,864.319c-0.312-54.265-4.256-69.861-20.13-110.095c3.637-8.021,7.259-15.402,10.78-22.429   c6.43-12.833,12.43-24.546,17.057-36.976c10.376-28.021-7.084-95.838-7.147-95.993h-33.05   c-0.167,0.366-29.596,101.879-27.873,142.467c0.275,6.522,0.622,12.526,0.925,17.936c0.187,2.983,0.903,5.934,2.148,8.654   c15.608,33.578,33.487,65.491,39.757,99.701L780.54,864.319z" class="colorF9CBCB svgShape"/><path fill="#83673f" d="M816.023,745.642c-6.077,1.251-11.708,1.944-16.914,2.201c-41.079,2.123-40.71-7.094-78.604,0.313   c-2.424-40.364-5.262-101.931,29.024-150.808c0.212-0.291,0.414-0.592,0.626-0.883h36.286l39.179-13.92   C861.794,656.86,822.704,699.983,816.023,745.642z" class="color3F4883 svgShape"/><path fill="#f7960d" d="M816.023,745.642c-7.061-26.265,6.178-51.547,12.881-76.906c6.703-25.36,2.626-54.496-4.368-63.992   c-7.005-9.496-30.019,1.91-51.636,2.938c-19.785,0.938-22.969-8.692-23.371-10.334c0.212-0.291,0.414-0.592,0.626-0.883h36.286   l39.179-13.92C861.794,656.86,822.704,699.983,816.023,745.642z" class="color353D78 svgShape"/><path fill="#f9e6cb" d="M792.187,446.082l0.157,6.954l0.073,2.661l0.097,3.858c-0.327,11.841,14.67,11.514,15.795,0l-1.851-8.454   l-0.955-4.366l-1.415-6.398l-0.496-2.237l-4.185,2.939L792.187,446.082z" class="colorF9CBCB svgShape"/><path fill="#83673f" d="M780.524,862.002l5.708,10.943l1.137,18.449l-3.539,0.839l-6.196-15.182l-3.814,11.557   c-1.027,3.112-2.927,5.855-6.044,6.864c-8.222,2.661-24.634,6.01-26.346,0.609c-1.76-5.551,14.155-8.767,17.654-15.882   c3.387-6.89,3.404-15.306,3.404-15.306L780.524,862.002z" class="color3F4883 svgShape"/><path fill="#83673f" d="M821.768,875.355l3.609,11.803l-2.259,18.345l-3.633,0.176l-3.312-16.059l-5.865,10.663   c-1.579,2.871-3.949,5.22-7.199,5.641c-8.571,1.111-25.318,1.399-26.013-4.224c-0.713-5.78,15.521-6.028,20.262-12.382   c4.592-6.154,6.15-14.425,6.15-14.425L821.768,875.355z" class="color3F4883 svgShape"/><path fill="#f9e6cb" d="M867.526,544.462c0.531,0.325,1.092,0.65,1.653,0.975c-8.239,6.378-14.883,14.882-20.818,23.711   c-0.295,0.413-0.561,0.827-0.827,1.24c-1.24,1.831-2.451,3.691-3.632,5.522c-3.425,5.433-6.733,10.807-10.069,15.68v0.029   c-0.709,1.005-1.417,1.949-2.096,2.894c-0.295,0.414-0.502,0.827-0.679,1.27c-0.089,0.237-0.177,0.443-0.207,0.679h-0.03v0.089   c-0.089,0.296-0.148,0.591-0.148,0.886c-0.029,0,0,0.029,0,0.029l-0.029,0.03c-0.059,0.443-0.059,0.886,0,1.329   c0.089,1.093,0.443,2.185,0.974,3.189c0.797,1.388,1.624,3.012,2.392,4.547c0,0.03,0.029,0.03,0.029,0.06   c0.207,0.472,0.443,0.915,0.62,1.388v0.03c0.797,1.771,1.358,3.278,1.358,4.164c0,0.266-0.029,0.561-0.088,0.915   c-0.029,0.148-0.059,0.325-0.089,0.501c-0.768,3.455-3.514,9.302-2.569,11.162c1.21,2.451,3.13,3.278,5.227,2.865   c0.03-0.03,0.059-0.03,0.089-0.03c0.354-0.089,0.738-0.207,1.093-0.384c6.319-2.51,13.317-15.355,7.264-28.938   c0,0,5.167-3.839,12.107-9.744c1.713-1.447,3.514-3.041,5.374-4.695c0.384-0.325,0.738-0.65,1.093-1.004   c12.845-11.664,27.786-27.609,28.583-39.391c0.767-11.162-13.554-28.26-29.174-43.437c-17.305-16.772-36.173-31.182-37.886-32.452   c-0.03-0.059-0.059-0.059-0.089-0.089c-0.03-0.029-0.03-0.029-0.03-0.029v0.059l4.134,50.405c0.443,0.414,0.915,0.827,1.328,1.181   c0.059,0.089,0.118,0.118,0.148,0.148c1.742,1.594,3.337,3.011,4.872,4.311c5.463,4.754,9.922,8.209,15.355,11.811h0.03   C856.896,538.113,861.532,540.919,867.526,544.462z" class="colorF9CBCB svgShape"/><path fill="#fac172" d="M828.962,518.683c0.915,0.827,1.772,1.594,2.628,2.363c0.089,0.059,0.148,0.118,0.207,0.147   c1.565,1.358,3.041,2.599,4.518,3.78c0.354,0.296,0.708,0.561,1.063,0.827c5.138,3.987,9.833,6.969,15.296,10.128   c4.311,2.54,9.065,5.168,14.853,8.534c0.531,0.325,1.092,0.65,1.653,0.975c-8.239,6.378-14.883,14.882-20.818,23.711   c-0.295,0.413-0.561,0.827-0.827,1.24c-1.24,1.831-2.451,3.691-3.632,5.522l15.148,12.638c1.713-1.447,3.514-3.041,5.374-4.695   c0.384-0.325,0.738-0.65,1.093-1.004c12.845-11.664,29.457-29.196,30.253-40.978c0.768-11.162-16.56-25.408-30.844-41.85   c-14.97-17.231-37.089-37.82-47.173-37.113C810.003,463.451,828.962,518.683,828.962,518.683z" class="colorFA72BE svgShape"/><path fill="#f0d4ad" d="M792.187,446.082l0.157,6.954l0.073,2.661c0.399,0.181,0.822,0.338,1.282,0.471   c3.943,1.125,9.059-2.08,12.76-5.068l-0.955-4.366l-1.415-6.398l-0.496-2.237l-4.185,2.939L792.187,446.082z" class="colorF0ADAD svgShape"/><path fill="#f9e6cb" d="M807.843,437.443c-1.907,9.188-12.669,16.016-20.206,13.444c-5.96-2.033-7-9.826-6.348-17.864   c0.026-0.361,0.061-0.722,0.096-1.092h0.009c1.021-9.949,4.446-19.951,4.446-19.951s7.017,13.92,18.665,15.003   c0,0,8.831-2.606,10.055-0.017C817.282,432.662,807.843,437.443,807.843,437.443z" class="colorF9CBCB svgShape"/><path fill="#fac172" d="M829.005,523.357c-11.865,24.947-8.647,38.342,1.162,64.919c0.893,2.435-1.006,4.949-3.598,4.804   c-4.625-0.257-9.775,0.179-15.239,0.938c-0.011,0.011-0.022,0.011-0.033,0.011c-1.184,0.168-2.391,0.346-3.598,0.547h-0.045   c-20.299,3.273-43.715,9.909-58.171,2.536c12.501-23.863,24.678-40.967,15.227-74.594c-14.076-50.128,5.53-58.54,27.684-63.813   c5.641,10.289,10.646,7.34,15.618-0.737c0,0,14.165,4.558,18.132,7.396c11.328,8.133,19.249,21.573,4.368,54.719   C830.043,521.156,829.53,522.24,829.005,523.357z" class="colorFA72BE svgShape"/><path fill="#ebb263" d="M830.167,588.276c0.893,2.435-1.006,4.949-3.598,4.804c-4.625-0.257-9.775,0.179-15.239,0.938   c17.92-4.636,6.694-27.77,6.458-34.867c-0.58-17.374,9.038-32.182,5.431-39.614c-2.325-4.791-1.857-7.989-1.857-7.989   c4.044,4.625,9.15,8.535,9.15,8.535c-0.469,1.072-0.983,2.156-1.508,3.273C817.14,548.304,820.358,561.699,830.167,588.276z" class="colorEB63AE svgShape"/><path fill="#f9e6cb" d="M687.283,475.628c0,0-21.885,64.707-39.827,66.684c-8.122,0.893-17.886-2.368-26.969-7.061   c-15.361-7.932-28.767-19.931-28.879-22.668l-8.87-52.351c8.837,5.508,58.048,44.374,62.003,47.983   c8.747-9.619,28.421-35.113,29.237-37.079c0,0-1.062-15.506,2.524-19.283c3.184-3.34,2.29,9.06,3.62,7.742   c1.452-1.452,11.216-17.719,15.193-11.932C704.142,460.557,687.283,475.628,687.283,475.628z" class="colorF9CBCB svgShape"/><path fill="#f4bb6b" d="M636.721,499.777c-3.206,12.825-13.416,29.273-15.438,37.305c-15.361-7.932-34.603-12.724-34.715-15.461   l-3.83-61.388C591.575,465.741,619.617,485.779,636.721,499.777z" class="color6BA5F4 svgShape"/><path fill="#f1e2cc" d="M573.876,745.31c-3.441,12.813-5.567,24.312-6.693,35.004c-2.899,27.313-2.081,69.37,2.916,95.953   l14.005-1.375c0,0,19.786-71.847,29.135-108.588c2.404-9.322,4.269-17.649,5.238-23.931   c5.649-35.853-15.275-137.426-16.618-144.001l-0.056-0.252l-0.018-0.093l-56.354-7.872   C515.492,661.394,551.007,679.313,573.876,745.31z" class="colorF1CCCD svgShape"/><path fill="#f7960d" d="M547.306,686.772c7.952,16.361,18.117,34.161,26.57,58.538c-3.119,11.605-6.669,23.669-10.772,37.735   l48.74,6.809c2.402-9.322,5.663-41.2,6.633-47.482c5.649-35.853-15.275-137.426-16.618-144.001l-0.056-0.252l-0.018-0.093   l-56.354-7.872C526.531,635.095,533.701,658.803,547.306,686.772z" class="color353D78 svgShape"/><path fill="#6e5430" d="M547.306,686.772c7.952,16.361,18.117,34.161,26.57,58.538c-3.119,11.605-6.669,23.669-10.772,37.735   l8.993,1.256c1.542-13.916,13.836-36.793,17.963-36.059c-3.657-0.905-37.155-66.502-39.704-89.22L547.306,686.772z" class="color30386E svgShape"/><path fill="#f1e2cc" d="M514.877,892.668l-34.335-39.799c0,0,25.212-39.377,45.611-65.557c4.842-6.266,9.413-11.743,13.317-15.799   c27.936-28.935,42.525-174.76,42.525-174.76h-46.187c-36.209,33.285-27.09,79.115-28.158,124.39   c-0.369,15.693-5.416,30.824-13.892,44.036c-1.707,2.661-3.315,5.358-4.832,8.119c-10.564,19.279-16.829,41.888-22.609,79.026   l-7.151,24.104L514.877,892.668z" class="colorF1CCCD svgShape"/><path fill="#83673f" d="M486.596,772.511l13.346,6.114l27.12,12.409c4.842-6.264,8.505-15.465,12.409-19.521   c27.936-28.935,45.975-175.334,45.975-175.334l-47.67,0.544l-1.967,0.03c-34.998,32.172-27.65,76.063-28.083,119.845   c-0.176,17.866-5.953,35.307-16.85,49.466C489.277,768.141,487.821,770.273,486.596,772.511z" class="color3F4883 svgShape"/><path fill="#f7960d" d="M486.596,772.511l13.346,6.114c4.329-6.779,10.835-19.657,14.272-28.355   c9.08-22.984,3.496-54.197,5.675-98.083c1.606-32.335,28.936-48.048,28.936-48.048l-11.048-7.415l-1.967,0.03   c-34.998,32.172-27.65,76.063-28.083,119.845c-0.176,17.866-5.953,35.307-16.85,49.466   C489.277,768.141,487.821,770.273,486.596,772.511z" class="color353D78 svgShape"/><path fill="#f1a946" d="M512.352,502.623c0.394,29.117,7.567,79.601,10.291,97.762c0.394,2.632,1.847,4.903,3.905,6.326   c1.12,0.786,2.452,1.332,3.874,1.543c13.045,1.937,25.818,2.997,38.257,2.965c11.199,0,22.125-0.846,32.748-2.693   c4.147-0.726,7.325-4.056,7.779-8.233c1.483-13.74-2.827-43.886-2.131-73.215c0.454-18.553-5.367-66.043-40.014-73.515   l-20.295-0.184c-22.76,5.903-32.295,23.306-33.869,35.472C512.413,492.454,512.262,497.175,512.352,502.623z" class="color468EF1 svgShape"/><path fill="#f7960d" d="M585.748 870.883c21.555 8.275 45.471 7.423 46.962 26.876l-67.817-2.367c-.798-8.245.573-16.414 4.111-24.509H585.748zM480.543 852.869c17.252 15.343 43.063 26.16 37.6 44.889l-62.628-20.937c2.16-7.996 5.058-20.836 11.223-27.164L480.543 852.869z" class="color353D78 svgShape"/><path fill="#83673f" d="M560.735,435.663c-6.608,2.043-9.278,5.343-17.728,1.525c-12.858-5.81-23.712-28.065-6.637-38.131   c1.181-3.523,2.37-4.895,6.87-5.873c4.499-0.977,9.112,0.982,15.314,0.876c6.203-0.107,14.977-6.493,20.384,2.528   c5.407,9.019-8.001,16.033-14.72,20.474C557.498,421.503,559.678,429.165,560.735,435.663z" class="color3F4883 svgShape"/><path fill="#f1e2cc" d="M546.477,453.433c7.385,7.385,14.351,8.799,20.584,0.131l-1.755-14.246l-0.733-5.998h-16.342l-0.314,3.719   L546.477,453.433z" class="colorF1CCCD svgShape"/><path fill="#f0d7b4" d="M547.685,439.69c4.038,4.859,15.166,6.266,18.182,4.183l-1.294-10.552l-16.435-6.897L547.685,439.69z" class="colorF0B4B4 svgShape"/><path fill="#f1e2cc" d="M572.948 404.758c3.007 8.477 5.955 27.217-1.239 34.186-4.554 4.412-21.079 2.705-24.452-9.427-3.985-2.887-6.911-9.923-3.238-13.116 2.619-2.275 5.962 3.738 10.528 2.743 1.733-.377-3.589-11.953 1.819-13.959C561.773 403.179 567.496 407.525 572.948 404.758zM672.318 777.182c1.935 19.88 2.065 57.076-6.027 82.236l-2.963 11.363-9.07 4.186 1.718-13.266c-2.012-33.294-12.132-86.013-12.305-91.01-1.065-28.533 19.815-105.892 21.16-110.9l.055-.192.018-.071 37.034-.845C716.162 717.138 691.886 727.791 672.318 777.182z" class="colorF1CCCD svgShape"/><path fill="#f1e2cc" d="M712.274,881.947l6.716-19.128c-4.223-24.593-22.171-64.586-31.438-77.209   c-17.243-23.486-16.312-134.211-16.312-134.211l33.838,7.283c18.382,30.058,3.739,108.728,11.933,122.481   c8.904,14.946,13.996,52.122,12.349,81.534l0.735,10.827L712.274,881.947z" class="colorF1CCCD svgShape"/><path fill="#ad916b" d="M739.172,754.993c0,0-1.832,1.877-4.636,3.776c-3.508,2.391-8.524,4.826-13.361,3.731   c0,0-9.664,13.518-24.824,4.19c-11.484,6.558-22.98,6.558-34.476,0c-15.149,9.328-24.813-4.19-24.813-4.19   c-1.855-38.978,15.607-64.483,24.12-111.874l8.636-0.402l38.643-1.776C709.277,651.464,725.006,724.996,739.172,754.993z" class="color7E6BAD svgShape"/><path fill="#9e8158" d="M739.172,754.993c0,0-1.832,1.877-4.636,3.776c-0.012,0-0.012,0-0.022,0   c-21.383-6.926-17.664-101.543-36.758-97.392c-15.082,3.279-30.965,5.975-38.789,0.287c0,0,5.455-4.915,10.851-11.44l38.643-1.776   C709.277,651.464,725.006,724.996,739.172,754.993z" class="color6C589E svgShape"/><path fill="#83673f" d="M732.711 872.724c-.531 3.207-1.454 16.005-1.145 17.24l-3.341.627-1.702-10.585c0 0-4.381 1.358-6.464 5.007-2.083 3.649-3.447 6.85-8.695 7.562-5.248.711-13.052 2.167-12.75-1.188.301-3.355 11.462-10.307 14.623-15.984 3.51-6.303 5.308-13.482 5.308-13.482 4.104 1.427 6.871 1.267 10.625-.776C729.17 861.144 733.242 869.516 732.711 872.724zM669.307 871.146c-.674 3.181-2.173 15.924-1.92 17.171l-3.367.475-1.224-10.651c0 0-4.438 1.159-6.683 4.711-2.245 3.551-3.752 6.688-9.026 7.162-5.275.474-13.136 1.578-12.683-1.76.452-3.338 11.914-9.781 15.328-15.31 3.79-6.139 5.909-13.229 5.909-13.229 4.035 1.61 6.807 1.576 10.65-.297C666.291 859.419 669.982 867.965 669.307 871.146zM708.478 610.57c1.746-7.104 10.135-12.304 8.935-19.52-.3-1.803-1.204-3.443-2.166-4.998-4.287-6.924-10.247-13.586-10.361-21.727-.067-4.903 2.054-9.53 3.254-14.284 1.201-4.753 1.26-10.391-2.175-13.89-3.186-3.246-8.394-3.64-11.842-6.607-3.394-2.921-4.75-8.05-8.795-9.973-1.745-.829-3.754-.914-5.678-.734-11.295 1.06-20.753 11.945-20.225 23.277.158 3.381 3.591 6.792 6.797 7.881-4.236 9.481-6.951 19.706-4.458 27.568 4.126 13.009-4.551 28.201-6.228 35.355-1.73 7.376 3.579 15.648 11.005 17.148 2.62.529 5.336.309 7.983.675 6.162.851 11.42 4.747 17.224 6.985 5.804 2.239 13.558 2.212 16.967-2.991C713.23 627.846 706.511 618.57 708.478 610.57z" class="color3F4883 svgShape"/><path fill="#f1e2cc" d="M661.964 576.605l1.184 32.605c0 0-15.041 15.822-20.958 19.396-4.101 2.48-8.065 4.335-10.76 4.277-11.796-.234-39.351-26.013-39.351-26.013-10.858-.781-18.552-5.898-21.853-15.799-3.515-10.565 12.831 3.183 18.319 2.949 0 0 .566-10.155 2.929-10.116 3.769.078 5.488 14.12 5.488 14.12s35.211 18.885 35.211 17.771c0-.312 2.07-3.476 5.058-7.929 4.57-6.777 11.288-16.541 16.053-23.396 0-.019.019-.019.019-.019C656.426 579.919 661.964 576.605 661.964 576.605zM778.717 563.495c-.078 11.952-10.448 15.897-19.353 18.201-3.144 7.089-19.744 33.473-28.825 33.903-3.457.156-8.417-.137-13.885-.82-3.242-.41-6.64-.957-10.018-1.621-8.553-1.66-16.834-4.101-21.384-7.031-8.007-5.156-9.355-27.888 3.124-30.036.703-.117 1.504-.097 2.363.059 6.269 1.093 16.288 8.885 25.779 15.701 4.414 3.164 8.71 6.113 12.479 8.085 7.265-6.816 13.241-13.885 22.849-23.591 0 0 .586-12.245 5.956-17.01 4.668-4.14 3.125 9.648 3.125 9.648C770.047 567.792 778.756 556.504 778.717 563.495zM669.734 528.525c0 0-9.315 26.884-2.765 32.309 6.716 5.563 16.954 3.873 21.633-3.863 0 0 8.585-.892 7.435-6.978-1.149-6.086-7.657-1.546-7.657-1.546S674.065 541.839 669.734 528.525z" class="colorF1CCCD svgShape"/><path fill="#fed59c" d="M717.924,616.038c-3.251-0.413-11.831-1.866-15.216-2.525c0.66,13.909,5.363,27.862,8.48,40.185   c0.514,2.011-1.072,3.899-3.151,3.776c-1.128-0.078-2.257-0.123-3.374-0.134c-23.07-0.469-43.19,9.161-47.692,2.782   c-2.301-3.262,0.86-9.619,0.894-43.257c-4.055,3.642-7.429,6.603-12.345,11.574l-12.244-16.456   c11.619-21.997,22.802-35.638,37.023-38.811c3.619-0.816,7.44-0.938,11.507-0.369c10.68,1.519,23.092,7.932,38.297,19.852   C720.203,598.722,718.036,611.078,717.924,616.038z" class="colorFEE69C svgShape"/><path fill="#f1e2cc" d="M679.942,558.571l1.867,14.238c-4.316,5.585-8.6,6.017-11.725,0.412l1.142-12.528L679.942,558.571z" class="colorF1CCCD svgShape"/><path fill="#ffbf66" d="M708.037,657.474c-1.128-0.078-2.257-0.123-3.374-0.134c-0.413-4.111,0.721-9.347,0.38-12.937   c-0.85-8.957-3.462-24.976-7.069-30.877c-2.189-3.581-3.277-5.845-3.277-5.845c3.933,3.352,8.01,5.832,8.01,5.832   c0.66,13.909,5.363,27.862,8.48,40.185C711.701,655.709,710.115,657.597,708.037,657.474z" class="colorEBD081 svgShape"/><path fill="#f1e2cc" d="M521.619,496.943c0,0,4.934,27.976,13.286,46.581c2.012,4.429,4.195,8.305,6.552,11.17   c16.337,19.811,69.985,39.41,69.985,39.41c3.923,17.715,29.971,29.389,37.012,25.835c12.52-6.397-17.234-15.977-16.149-23.454   c0,0,14.969,0.298,14.355-6.067c-0.576-6.38-27.427-5.576-27.427-5.576c-15.401-19.769-33.063-35.899-51.483-48.137   c-0.306-3.034-0.612-6.066-0.985-9.096c-2.784-21.805-8.18-43.288-21.033-62.847C530.411,471.233,524.06,482.965,521.619,496.943z" class="colorF1CCCD svgShape"/><path fill="#f4bb6b" d="M530.152,541.479l40.755-13.615c-2.784-21.806-5.707-67.789-28.657-63.199   C511.694,470.776,521.8,522.873,530.152,541.479z" class="color6BA5F4 svgShape"/><path fill="#d9cdbd" d="M690.844,494.009c0.011,5.34-2.134,10.178-5.631,13.685c-3.553,3.575-8.513,5.765-13.965,5.687   c-10.625-0.145-19.037-9.094-19.059-19.718v-2.536c-0.011-2.57,2.078-4.67,4.659-4.67c0.011,0,0.011,0,0.022,0   c2.558,0,4.648,2.089,4.648,4.659l0.011,2.67c0.011,5.206,3.876,9.753,9.06,10.222c5.943,0.536,10.937-4.156,10.926-9.976   l-0.022-7.63l-0.045-43.335v-5.15l-0.012-3.352v-4.078l-0.011-3.352l-0.201-179.195l-0.022-9.328l9.329-0.023l0.234,188.546   l0.011,3.352v7.429l0.011,4.614v0.525L690.844,494.009z" class="colorBDC3D9 svgShape"/><path fill="#c9b9a3" d="M658.431 491.116l.011 2.67c.011 5.206 3.876 9.753 9.06 10.222.846.076 1.669.036 2.465-.088-4.866-.763-8.428-5.14-8.438-10.134l-.011-2.67c0-2.569-2.089-4.659-4.648-4.659-.011 0-.011 0-.022 0-.541 0-1.052.111-1.536.28C657.12 487.375 658.431 489.086 658.431 491.116zM690.787 443.055v-.525l-.011-4.614v-7.429l-.011-3.352-.234-188.546-3.087.008.234 188.538.011 3.352v7.429l.012 4.614v.525l.056 50.954c.011 5.34-2.134 10.178-5.631 13.685-3.12 3.14-7.326 5.208-11.997 5.613.372.027.741.068 1.119.073 5.452.078 10.412-2.112 13.965-5.687 3.497-3.508 5.642-8.345 5.631-13.685L690.787 443.055z" class="colorA3ACC9 svgShape"/><path fill="#b5a084" d="M690.844,494.009c0.011,5.34-2.134,10.178-5.631,13.685c-3.553,3.575-8.513,5.765-13.965,5.687   c-10.625-0.145-19.037-9.094-19.059-19.718v-2.536c-0.011-2.57,2.078-4.67,4.659-4.67c0.011,0,0.011,0,0.022,0   c2.558,0,4.648,2.089,4.648,4.659l0.011,2.67c0.011,5.206,3.876,9.753,9.06,10.222c5.943,0.536,10.937-4.156,10.926-9.976   l-0.022-7.63l-0.045-43.335v-0.19h9.339v0.179L690.844,494.009z" class="color848DB5 svgShape"/><polygon fill="#b5a084" points="690.776 434.564 690.776 437.916 681.448 437.916 681.437 434.564" class="color848DB5 svgShape"/><polygon fill="#b5a084" points="690.776 430.486 681.437 430.486 681.426 427.135 690.765 427.135" class="color848DB5 svgShape"/><path fill="#ffe2ba" d="M683.814,45.002c-135.382,0.291-247.854,98.336-271.579,227.616l0.592-0.001   c6.986-18.207,24.623-31.155,45.301-31.2c20.667-0.044,38.349,12.828,45.413,31.005C503.541,272.422,586.925,45.21,683.814,45.002z   " class="colorBACAFF svgShape"/><path fill="#fecc86" d="M683.814,45.002c95.878-0.206,178.511,219.614,181.065,226.483c0.043,0.107,0.065,0.161,0.065,0.161h0.021   c6.986-18.207,24.613-31.155,45.279-31.199c20.677-0.044,38.37,12.828,45.424,31.005l0.689-0.001   C932.077,142.274,819.196,44.712,683.814,45.002z" class="color86A4FE svgShape"/><path fill="#fecc86" d="M956.352,271.445l-0.681,0.011c-7.061-18.176-24.745-31.058-45.425-31.013   c-20.668,0.045-38.297,12.993-45.279,31.203h-0.022c0,0-0.022-0.056-0.067-0.156c-2.547-6.871-85.107-226.485-180.927-226.485   c75.409-0.123,143.836,30.108,193.83,79.253c0,0,0.011,0.011,0.034,0.045C917.519,163.325,945.604,214.302,956.352,271.445z" class="color86A4FE svgShape"/><path fill="#d6ba94" d="M684.846,271.105c-0.054,0.118-0.096,0.237-0.15,0.366c-0.075,0.183-0.15,0.366-0.225,0.56l-0.022,0   c-0.119-0.312-0.249-0.624-0.378-0.924L684.846,271.105z" class="color9894D6 svgShape"/><path fill="#fecc86" d="M683.814,45.002c-96.889,0.208-180.273,227.42-180.273,227.42h0.021c6.986-18.207,24.613-31.155,45.29-31.2   c20.419-0.044,37.918,12.517,45.153,30.349c0,0,0-0.011,0.011-0.043C594.515,268.053,626.742,45.125,683.814,45.002z" class="color86A4FE svgShape"/><path fill="#ffe2ba" d="M774.709,270.644c-7.375-17.542-24.733-29.855-44.948-29.812c-20.323,0.044-37.702,12.55-44.915,30.274   l-0.775,0.002c-7.289-17.692-24.723-30.124-45.034-30.08c-20.409,0.044-37.842,12.658-45.023,30.5   c0.498-3.476,32.64-225.812,89.572-226.515C683.629,45,683.662,45,683.705,45l0.107,0c0.108,0,0.226,0,0.333,0.01   c1.538,0.007,3.067,0.187,4.573,0.528c0.054,0.011,0.108,0.021,0.161,0.032C743.517,58.04,774.709,270.644,774.709,270.644z" class="colorBACAFF svgShape"/><path fill="#fecc86" d="M774.752,270.547c-0.011,0.032-0.032,0.065-0.043,0.097c-7.375-17.542-24.733-29.855-44.948-29.812   c-20.323,0.044-37.702,12.55-44.915,30.274c-0.054,0.118-0.096,0.237-0.15,0.366l-0.001-0.366l-1.109-226.095V45   c0,0,0.043,0,0.118,0l0.107,0c0.108,0,0.226,0,0.333,0.01c0.786,0.041,2.367,0.156,4.573,0.528   c0.054,0.011,0.108,0.021,0.161,0.032c11.462,1.998,39.12,11.04,59.401,51.964C765.872,133.031,772.381,218.352,774.752,270.547z" class="color86A4FE svgShape"/><path fill="#ffe2ba" d="M864.799,271.277c-7.161-17.986-24.746-30.678-45.279-30.633c-20.187,0.033-37.459,12.378-44.765,29.907   c-0.012,0.022-0.034,0.056-0.045,0.09c0,0-31.192-212.599-85.833-225.066c-0.056-0.011-0.1-0.022-0.157-0.034   c-1.508-0.346-3.038-0.525-4.58-0.536c33.883,0.101,66.103,27.639,93.697,63.478C827.619,173.134,862.375,264.798,864.799,271.277z   " class="colorBACAFF svgShape"/><path fill="#fff2e0" d="M402.176 492.128c-4.932 1.779-2.497 5.786-2.497 5.786s-2.739-3.759-6.34.052c-3.64 3.852 2.422 10.372 9.969 9.397 1.503-.194 2.826-1.067 3.597-2.37C410.788 498.431 407.265 490.292 402.176 492.128zM1034.733 388.014c-2.891-4.374-6.211-1.064-6.211-1.064s3.008-3.548-1.544-6.15c-4.601-2.63-9.509 4.797-6.784 11.902.543 1.414 1.702 2.495 3.151 2.937C1030.636 397.868 1037.716 392.527 1034.733 388.014zM1063.154 618.293c1.692-4.963-2.957-5.565-2.957-5.565s4.647.21 3.921-4.983c-.733-5.249-9.611-4.59-13.566 1.913-.787 1.294-.932 2.873-.397 4.29C1052.852 621.078 1061.408 623.413 1063.154 618.293zM297.249 608.069c-5.155.954-3.405 5.303-3.405 5.303s-2.092-4.155-6.264-.98c-4.218 3.209.703 10.627 8.309 10.893 1.514.053 2.961-.593 3.935-1.754C304.721 615.689 302.568 607.085 297.249 608.069zM369.014 592.962c0-1.771 1.435-3.206 3.206-3.206 1.771 0 3.206 1.435 3.206 3.206 0 1.77-1.435 3.206-3.206 3.206C370.45 596.167 369.014 594.732 369.014 592.962zM436.068 465.68c0-1.771 1.435-3.206 3.206-3.206 1.771 0 3.206 1.435 3.206 3.206 0 1.771-1.435 3.206-3.206 3.206C437.503 468.885 436.068 467.45 436.068 465.68zM302.567 696.29c0-1.771 1.435-3.206 3.206-3.206 1.77 0 3.206 1.435 3.206 3.206 0 1.771-1.435 3.206-3.206 3.206C304.002 699.496 302.567 698.061 302.567 696.29zM994.454 664.094c0-1.771 1.435-3.206 3.206-3.206 1.771 0 3.206 1.435 3.206 3.206 0 1.771-1.435 3.206-3.206 3.206C995.889 667.299 994.454 665.864 994.454 664.094zM1073.947 671.088c0-1.771 1.435-3.206 3.206-3.206 1.771 0 3.206 1.435 3.206 3.206s-1.435 3.206-3.206 3.206C1075.383 674.294 1073.947 672.859 1073.947 671.088zM1057.016 532.3c0-1.771 1.435-3.206 3.206-3.206 1.771 0 3.206 1.435 3.206 3.206 0 1.771-1.435 3.206-3.206 3.206C1058.451 535.506 1057.016 534.07 1057.016 532.3zM1034.031 344.961c0-1.771 1.435-3.206 3.206-3.206s3.206 1.435 3.206 3.206c0 1.77-1.435 3.206-3.206 3.206S1034.031 346.731 1034.031 344.961zM339.288 438.063c0-2.414 1.957-4.372 4.371-4.372 2.415 0 4.372 1.957 4.372 4.372 0 2.414-1.957 4.372-4.372 4.372C341.245 442.434 339.288 440.477 339.288 438.063zM1010.668 438.944c0-2.414 1.957-4.372 4.372-4.372s4.371 1.957 4.371 4.372c0 2.414-1.957 4.371-4.371 4.371S1010.668 441.358 1010.668 438.944zM917.53 726.033c0-2.414 1.957-4.372 4.372-4.372 2.414 0 4.372 1.957 4.372 4.372 0 2.414-1.957 4.371-4.372 4.371C919.487 730.405 917.53 728.448 917.53 726.033zM267.37 290.922c0-2.414 1.957-4.372 4.372-4.372s4.371 1.957 4.371 4.372-1.957 4.371-4.371 4.371S267.37 293.336 267.37 290.922z" class="colorE6E0FF svgShape"/></svg>