<svg xmlns="http://www.w3.org/2000/svg" viewBox="0 0 2800 1900"><g data-name="Layer 1" fill="#ffa30f" class="color000 svgShape"><ellipse cx="1400" cy="1711.985" opacity=".15" rx="590.031" ry="120.45" fill="#ffa30f" class="color000 svgShape"/><path fill="#443b2e" d="M1721.5232,1749.719c-85.5073,19.9213-124.5745,0-136.4747-20.9572-11.7738-20.9564-38.1624-7.2442-40.88-15.5227-2.7161-8.1497,0-35.4447,0-35.4447,14.4899-35.4455,35.4447-33.6343,56.4027-31.823,20.8269,1.8112,29.1062,24.5781,29.1062,24.5781,10.8658,6.8565,20.4384,13.0655,28.8472,18.7574,47.9923,32.3402,61.3168,47.6047,64.1624,54.5907C1724.7572,1748.8134,1721.5232,1749.719,1721.5232,1749.719Z" class="color44362e svgShape"/><path fill="#63533d" d="M1722.687,1743.8976c-90.0346,10.0897-130.7836-13.0656-116.6837-34.5399,8.5383-12.9361,32.8582-17.9806,52.5213-20.0508C1706.5169,1721.6471,1719.8414,1736.9116,1722.687,1743.8976Z" class="color63493d svgShape"/><path fill="#443b2e" d="M1306.0801,1712.3631c-16.2996,8.1497-.9064,38.1615-17.206,50.9681-15.5226,12.0305-102.4527,11.7723-115.7772-5.0444a7.36024,7.36024,0,0,1-1.6818-3.1054c-2.4587-10.6068,20.5679-33.1163,42.6881-51.7443,19.5336-16.5577,38.2919-30.1405,38.2919-30.1405l17.3339-20.0507s63.6445-31.8231,66.3621,9.0546C1338.8088,1703.3084,1322.5092,1704.2133,1306.0801,1712.3631Z" class="color44362e svgShape"/><path fill="#63533d" d="M1173.0969,1758.2868a7.36024,7.36024,0,0,1-1.6818-3.1054c-2.4587-10.6068,20.5679-33.1163,42.6881-51.7443,18.6288-1.2933,40.7505-.1287,55.1078,9.8316C1295.4716,1731.3795,1277.7493,1769.4116,1173.0969,1758.2868Z" class="color63493d svgShape"/><path fill="#cc9e5e" d="M1495.9458,517.2356l8.1803-44.0047,120.0627-43.0528-4.851,100.6586s-85.4992,67.9143-104.2969,70.3398-55.1804-1.8191-54.574-13.3403S1495.9458,517.2356,1495.9458,517.2356Z" class="colorcc805e svgShape"/><path d="M1624.1412,430.176l-4.7847,100.6423s-85.5089,67.9144-104.2656,70.3723c-18.8861,2.4579-55.2373-1.8113-54.5898-13.3246.5179-11.5125,35.4447-70.6304,35.4447-70.6304l.1295-.3885c-1.5539,10.3495-6.727,44.3707-3.752,49.0282,3.493,5.433,21.4743,4.3979,71.4074-17.4641,49.9331-21.7325,46.1827-45.7935,0-36.3504-29.7536,6.0804-52.6507-2.1989-65.1983-8.9259l5.5632-29.8823Z" style="mix-blend-mode:soft-light" opacity=".44" fill="#ffa30f" class="color000 svgShape"/><path fill="#cc9e5e" d="M1664.2097,856.4614l34.5635,69.127,60.0314,176.4558s-25.4679,23.6487-25.4679,36.3827,10.9148,45.4783,36.3827,32.7443c0,0,3.6382,36.3827,18.1913,38.2018s23.6487-20.0104,23.6487-20.0104,38.2018-14.5531,43.6592-50.9357-23.6487-78.2227-23.6487-78.2227-23.6487-181.9132-67.3079-254.6785S1658.7523,794.6109,1664.2097,856.4614Z" class="colorcc805e svgShape"/><path d="M1855.1809,1138.4262c-5.4337,36.3504-43.5961,50.9674-43.5961,50.9674s-6.5975,15.7825-17.5913,19.2755c2.0686-9.4439,1.6802-19.7926-3.3635-26.2607-3.8815-4.9157-11.7723-6.9852-20.44-7.5031-.3885-2.3284-.518-3.7512-.518-3.7512-7.6302,3.7512-13.8409,3.6225-18.8861,1.0351,8.7972-5.1747,17.3354-13.5827,15.7816-27.0367-1.6802-14.0999-13.3245-21.7325-23.6725-25.8722a171.83581,171.83581,0,0,1,15.9128-17.2052s54.5898-82.2732,9.702-180.3281c-30.401-66.2335-74.6414-65.1984-100.1267-57.0486l-4.1388-8.2793c-5.4338-61.834,56.4011-123.6688,99.9956-50.8387,43.724,72.7007,67.267,254.5819,67.267,254.5819S1860.613,1102.0751,1855.1809,1138.4262Z" style="mix-blend-mode:soft-light" opacity=".44" fill="#ffa30f" class="color000 svgShape"/><path fill="#726047" d="M1296.745,981.9815s-70.9461,352.9116-34.5635,665.8024c0,0,38.2018,25.4678,85.4992,14.553,0,0,12.7339-372.9221,69.127-533.0057,0,0,27.287,325.6247,132.7967,536.644,0,0,40.0209,21.8296,81.8609,1.8191,0,0-81.8609-301.9759-73.6748-651.2493C1557.7905,1016.545,1358.5955,927.4075,1296.745,981.9815Z" class="color4c4772 svgShape"/><path d="M1631.5156,1667.7703a86.81557,86.81557,0,0,1-42.9486,8.2793c-39.7131-100.3841-103.3592-378.1221-100.771-553.9229a431.80616,431.80616,0,0,1-72.3122-9.9611l1.2933,17.2052c-56.4012,160.0192-69.0783,532.9666-69.0783,532.9666a111.78465,111.78465,0,0,1-43.2076,1.1638v-.1295c-10.9953-152.9045,26.1311-497.521,35.1858-578.1133-25.4837-13.0656-43.2061-27.036-54.3309-37.6437,6.468-41.3956,11.3838-65.586,11.3838-65.586,61.8348-54.5906,261.0507,34.5391,261.0507,34.5391C1549.6292,1365.8419,1631.5156,1667.7703,1631.5156,1667.7703Z" style="mix-blend-mode:soft-light" opacity=".44" fill="#ffa30f" class="color000 svgShape"/><path fill="#ffbf66" d="M1776.1401,818.2583c-38.2903-5.4337-122.8928,42.6889-122.8928,42.6889l-26.3885-54.4611c-46.3106,36.3503-77.2296,142.814-70.891,170.8858,6.3401,28.2006,1.8128,39.1959,1.8128,39.1959-91.8474,20.9564-200.1207-14.6178-200.1207-14.6178l-38.1624-23.5438,32.7271-424.8203,63.6476-29.1062,48.2513,6.3386.9049-1.1646,6.3385-7.8908,24.5789-4.5273c-6.3386,19.0156-8.1498,59.1179-8.1498,59.1179,66.3621-4.5281,128.197-55.4962,134.5355-54.5906,6.468.9056,17.3339,36.3503,17.3339,36.3503s41.7833,47.3465,54.5899,63.6461C1706.934,638.1876,1776.1401,818.2583,1776.1401,818.2583Z" class="coloreac583 svgShape"/><path d="M1639.6654,686.8274c9.7021-14.6179,40.3605-29.8824,66.8801-40.8777-5.5632-12.2894-9.961-21.0859-12.2902-24.1904-12.8066-16.2996-54.5899-63.6461-54.5899-63.6461s-10.8659-35.4447-17.3339-36.3503c-6.3385-.9056-68.1734,50.0625-134.5355,54.5906,0,0,1.8112-40.1023,8.1498-59.1179l-24.5789,4.5273-6.3385,7.8908-.9049,1.1646-48.2513-6.3386-63.6476,29.1062-32.7271,424.8203,38.1624,23.5438s108.2733,35.5742,200.1207,14.6178c0,0,1.9392-4.6568,1.4212-15.5234-31.5633,5.0452-93.5276,12.8074-112.1548-.6467-25.3542-18.11-24.7067-52.0025,7.6335-50.192,32.2107,1.9407,90.423-7.8908,90.423-7.8908a73.289,73.289,0,0,1,13.323-.9056c8.6677-43.4651,34.2809-108.2749,68.4323-134.9232l26.3885,54.4611a562.64524,562.64524,0,0,1,58.8598-28.33C1684.0368,793.4205,1625.954,707.5248,1639.6654,686.8274Zm-210.8571,5.8213c2.4571-24.837,51.2264-107.4987,51.2264-107.4987s29.8815,41.7833,23.5429,56.6601C1497.2391,656.6861,1426.2201,717.6153,1428.8083,692.6487Zm170.8851,94.9504c-6.0796,22.38-25.2247,56.1429-25.2247,56.1429s-146.8258-2.5873-132.8538-37.2559c13.9704-34.7981,127.8069-84.214,127.8069-84.214S1605.6435,765.2199,1599.6934,787.5991Z" style="mix-blend-mode:soft-light" opacity=".44" fill="#ffa30f" class="color000 svgShape"/><path fill="#d6a765" d="M1487.7961,576.3534a623.21777,623.21777,0,0,0-39.3163,62.064c-11.7425,21.3451-22.8322,43.0226-32.0406,65.5202a640.97517,640.97517,0,0,0-24.8436,68.5636c-7.4167,23.2709-12.5895,47.1328-18.447,71.2265.5021-24.6926,2.9725-49.5717,8.6817-73.7842,5.0156-24.3994,13.2231-48.0442,22.7123-71.0668a398.25629,398.25629,0,0,1,35.3581-65.7054C1453.6691,612.4973,1469.2311,592.8206,1487.7961,576.3534Z" class="colord6aa65 svgShape"/><path fill="#f4e3cb" d="M1495.9458 517.2356c-6.3386 19.0156-8.1498 59.1179-8.1498 59.1179l-45.5353-8.2792 21.8628-34.5391.9049-3.8815 6.3385-7.8908zM1639.6654 558.1132c-41.9128 67.2678-122.7632 95.4683-122.7632 95.4683-5.5632-54.5898-29.1062-77.228-29.1062-77.228 66.3621-4.5281 128.197-55.4962 134.5355-54.5906C1628.7995 522.6685 1639.6654 558.1132 1639.6654 558.1132z" class="colorf4e2cb svgShape"/><path fill="#d6a765" d="M1626.9174,806.4353a50.41757,50.41757,0,0,1-11.2877-10.8785,78.08458,78.08458,0,0,1-8.0989-12.5282,76.81849,76.81849,0,0,1-5.5618-13.8408,49.89808,49.89808,0,0,1-2.3386-15.5075,49.90763,49.90763,0,0,1,11.305,10.87,76.8095,76.8095,0,0,1,8.0819,12.5367,78.0775,78.0775,0,0,1,5.5444,13.8493A50.39892,50.39892,0,0,1,1626.9174,806.4353Z" class="colord6aa65 svgShape"/><path fill="#474543" d="M1442.2756 568.1289l-53.6644 73.6749-11.8244-50.9357 55.4836-81.861s12.7339-5.4574 20.0104.9096 16.3722 15.4626 16.3722 15.4626zM1716.055 636.3464s-282.8751 89.1374-354.7308 183.7323l.9096-53.6644s223.7532-179.1845 312.8907-189.1897C1675.1245 577.2246 1701.5019 599.0542 1716.055 636.3464z" class="color474343 svgShape"/><path d="M1468.6493 525.3854l-26.3886 42.6889-53.685 73.7358-11.7707-50.9682 25.7427-38.0321 17.4634 16.6872 36.738-55.4954C1462.8287 519.564 1468.6493 525.3854 1468.6493 525.3854zM1716.1181 636.3763s-282.9136 89.1298-354.8373 183.6925l.9048-53.6843s37.387-30.0118 87.8365-65.9744c3.1045 5.3042 6.5975 10.8666 10.479 16.8167 106.0752-73.994 199.2143-106.4636 235.4359-117.0713A159.78655 159.78655 0 011716.1181 636.3763z" style="mix-blend-mode:soft-light" opacity=".44" fill="#ffa30f" class="color000 svgShape"/><path fill="#474543" d="M1392.2495,866.4666s130.9775,27.287,188.2801,12.7339c0,0,7.2766,40.0209-18.1913,57.3027,0,0-93.6853,20.92-170.9984-16.3722S1392.2495,866.4666,1392.2495,866.4666Z" class="color474343 svgShape"/><path fill="#edc183" d="M1256.7241,710.0212l-128.2488,67.3079s-47.2974,15.4626-46.3879,40.0209c0,0-9.0956,21.8296-1.8191,26.3774s36.3826-6.3669,41.84-4.5478,12.734,20.0105,20.92,17.2818,10.0053-33.654,10.0053-33.654l90.047-28.1965Z" class="coloreda983 svgShape"/><path d="M1256.7578,709.9826l-13.713,84.6025-90.0346,28.2005s-1.8112,30.9175-9.961,33.6335c-8.1498,2.7169-15.5226-15.3939-20.9564-17.2044-5.4337-1.8112-34.5399,9.0546-41.7832,4.5273a6.81834,6.81834,0,0,1-2.7177-5.1747c24.5804-4.0102,42.9487-24.0609,40.3621-28.4588-2.8456-4.7862-35.8332,7.2442-35.8332,7.2442a18.92978,18.92978,0,0,1,.259-3.8814c14.0999-5.5625,43.0765-17.8511,42.5602-22.7669-.3885-3.3635-4.9174-6.2098-9.0562-8.1498,4.5273-2.1997,8.4087-3.6224,10.6069-4.5281,16.1701,14.4884,52.9097,19.9221,62.0938-2.0694a442.08041,442.08041,0,0,1,19.2746-40.231v-.1295Z" style="mix-blend-mode:soft-light" opacity=".44" fill="#ffa30f" class="color000 svgShape"/><path fill="#edc183" d="M1384.9729,738.2178,1516.86,796.43s45.4783,7.2765,57.3027,16.3722,10.0052,24.5583,1.8191,25.4678-45.4783,1.8192-46.3879,5.4574-2.7287,19.1009-9.0956,19.1009-20.0105-20.92-25.4679-24.5583-110.0575-19.1008-110.0575-19.1008Z" class="coloreda983 svgShape"/><path d="M1527.1206,820.0688c-6.4681,8.2793-.3869,15.7824,8.7972,21.4743-3.6209.5172-6.0796,1.2933-6.3385,2.1989-.9049,3.6225-2.7177,19.1452-9.0562,19.1452s-20.05-20.9564-25.4837-24.5781c-5.4322-3.6225-110.0862-19.1459-110.0862-19.1459V738.184l26.3901,11.642c9.1841,18.628,23.2856,46.1819,30.2716,53.8145,7.7597,8.408,54.3309-.6474,80.0735-6.3393,10.0906,1.8112,33.763,6.468,46.6991,12.1599a15.34489,15.34489,0,0,0,2.0702,1.0351C1552.8633,809.4611,1534.3655,810.8847,1527.1206,820.0688Z" style="mix-blend-mode:soft-light" opacity=".44" fill="#ffa30f" class="color000 svgShape"/><path fill="#edc183" d="M1478.6103,1091.0798c-3.6209,14.6178-63.6445,29.1061-87.3185,21.862-20.05-6.2091-19.791-17.7224-28.3293-32.7279a61.85055,61.85055,0,0,0-5.3026-8.1498c-14.4899-19.1459-39.0672-77.3583-39.0672-77.3583L1260.3803,983.84s-41.9127,40.8776-47.3465,47.2162a11.94386,11.94386,0,0,0-2.3292,4.3986c-2.5865,6.9852-3.4929,17.2052-20.4384,23.8019-20.8269,8.2793-86.4137-37.2551-81.7553-50.8387,4.5257-13.7122,46.3106-5.5624,46.3106-5.5624,31.8222-75.4175,76.4526-89.1297,76.4526-89.1297s142.8133,31.823,159.1128,54.5906c16.1701,22.5087,29.6242,82.1438,36.2201,88.8708l.259.259C1433.2045,1062.8792,1482.2328,1076.5914,1478.6103,1091.0798Z" class="coloreda983 svgShape"/><path d="M1478.6103,1091.0798c-3.6209,14.6178-63.6445,29.1061-87.3185,21.862-20.05-6.2091-19.791-17.7224-28.3293-32.7279a57.24344,57.24344,0,0,0-4.2699-6.727c12.4197-6.727,29.6241-16.6881,35.8332-22.6381,10.0905-9.8316,4.1404-41.1367-19.6631-31.9526-12.2886,4.7863-28.8472,6.8565-42.0422,7.7622-8.0188-17.2053-14.2278-31.9526-14.2278-31.9526L1260.3803,983.84s-41.9127,40.8776-47.3465,47.2162a11.94386,11.94386,0,0,0-2.3292,4.3986c-2.5865,6.9852-3.4929,17.2052-20.4384,23.8019-20.8269,8.2793-86.4137-37.2551-81.7553-50.8387,4.5257-13.7122,46.3106-5.5624,46.3106-5.5624,1.4228-3.234,2.8455-6.468,4.1388-9.4431,32.0813,22.6382,63.2576,13.4533,50.1921-15.0063a159.48334,159.48334,0,0,1-12.6771-40.4891c19.2746-19.4042,34.7988-24.1912,34.7988-24.1912s142.8133,31.823,159.1128,54.5906c16.1701,22.5087,29.6242,82.1438,36.2201,88.8708l.259.259C1433.2045,1062.8792,1482.2328,1076.5914,1478.6103,1091.0798Z" style="mix-blend-mode:soft-light" opacity=".44" fill="#ffa30f" class="color000 svgShape"/><path fill="#686562" d="M1408.6273,958.3555c-7.245,35.4447-77.3575,88.2241-150.9646,51.8738-34.022-16.8168-48.1219-53.2966-53.0376-93.7866-5.9501-47.3457.6474-99.8661,2.0686-132.7243,1.8128-41.2661,19.5336-64.1624,30.66-74.6406a56.08823,56.08823,0,0,1,9.3136-7.2442s105.5573,8.149,128.3249,17.3339c22.7676,9.0555,30.0126,16.2996,34.5415,37.256C1414.0594,777.3799,1415.8722,922.9108,1408.6273,958.3555Z" class="color686262 svgShape"/><path fill="#f4e3cb" d="M1210.7046 1035.4548c-2.5865 6.9852-3.4929 17.2052-20.4384 23.8019-20.8269 8.2793-86.4137-37.2551-81.7553-50.8387 4.5257-13.7122 46.3106-5.5624 46.3106-5.5624S1188.3255 1009.5826 1210.7046 1035.4548zM1478.6103 1091.0798c-3.6209 14.6178-63.6445 29.1061-87.3185 21.862-20.05-6.2091-19.791-17.7224-28.3293-32.7279 10.738-8.9259 32.9877-23.6732 63.6445-23.0266l.259.259C1433.2045 1062.8792 1482.2328 1076.5914 1478.6103 1091.0798z" class="colorf4e2cb svgShape"/><path d="M1210.7046 1035.5843c-2.5865 6.9852-3.4929 17.2044-20.4384 23.8019-10.22 4.1397-31.4353-4.9158-49.6741-16.6872 14.7458-6.8565 16.4291-28.0711 2.9751-37.6445q-3.29955-2.3283-6.5976-4.2683a138.22134 138.22134 0 0117.8519 2.1989S1188.3255 1009.7121 1210.7046 1035.5843zM1478.6103 1091.0798c-1.9391 8.0203-20.8253 15.9111-41.3948 20.3097 2.7161-14.3589-45.4058-27.8129-51.7443-33.2458l-.259-.259a91.687 91.687 0 00-22.1202 2.1997c10.738-8.9259 32.9876-23.5437 63.515-22.8971l.259.259C1433.2045 1062.8792 1482.2328 1076.5914 1478.6103 1091.0798z" style="mix-blend-mode:soft-light" opacity=".44" fill="#ffa30f" class="color000 svgShape"/><path fill="#72706e" d="M1225.7989,770.0526s55.4835,35.4731,153.7166,11.8243l-2.7287,170.0889s-58.2122,43.6592-149.1688-2.7287C1227.618,949.2371,1198.5119,865.557,1225.7989,770.0526Z" class="color726e6e svgShape"/><path fill="#686562" d="M1237.6626,874.6527s43.6503,14.3734,120.9329,4.7911l-2.1467,68.9187s-45.7971,17.6904-117.355-1.1056C1239.0938,947.2569,1216.1952,913.3503,1237.6626,874.6527Z" class="color686262 svgShape"/><path d="M1408.6273,958.3555c-7.245,35.4447-77.3575,88.2241-150.9646,51.8738-34.022-16.8168-48.1219-53.2966-53.0376-93.7866,77.3575,63.6453,161.5714,2.8464,132.2063-127.42-73.6055-24.7084-98.8302-78.9106-98.8302-78.9106l-.6475-1.0343a56.08823,56.08823,0,0,1,9.3136-7.2442s105.5573,8.149,128.3249,17.3339c22.7676,9.0555,30.0126,16.2996,34.5415,37.256C1414.0594,777.3799,1415.8722,922.9108,1408.6273,958.3555Z" style="mix-blend-mode:soft-light" opacity=".44" fill="#ffa30f" class="color000 svgShape"/><path fill="#edc183" d="M1426.4791,665.4825c-14.4883,66.6211-54.5914,86.6719-106.0768,84.214-21.4727-1.0343-41.7832-8.408-58.0828-18.628-23.0266-14.4883-37.9019-34.7981-36.4791-51.0969,2.3292-27.8128,24.1904-41.784,24.1904-41.784l17.7224-79.0393a19.71661,19.71661,0,0,1,5.8222-10.2192l.1295-.1295c0-.1295.1279-.1295.1279-.2589a20.69339,20.69339,0,0,1,5.6927-3.7512C1388.3167,499.6427,1440.7085,600.5439,1426.4791,665.4825Z" class="coloreda983 svgShape"/><path fill="#ddae6c" d="M1302.9785,660.2552c-3.3174,1.4877-6.5991,2.7298-9.6574,4.2033-2.902,1.3854-6.3036,3.2413-6.688,5.1012-1.0973,1.0359,1.8889,3.0094,5.0265,4.1016,3.1307,1.2092,6.5371,2.0985,9.9849,3.2458a29.89909,29.89909,0,0,1-10.912.1552,14.70216,14.70216,0,0,1-5.5714-2.0133c-1.8693-.8501-3.9593-4.1295-2.885-6.8912a9.7687,9.7687,0,0,1,4.5613-4.8846,18.77589,18.77589,0,0,1,5.293-2.1151A31.69786,31.69786,0,0,1,1302.9785,660.2552Z" class="colordd8f6c svgShape"/><path fill="#2d261c" d="M1320.152,693.7775c-26.206,35.2501-69.1808,17.8026-59.9923-27.3018a31.6104,31.6104,0,0,0,3.3385,3.6176c6.3754,6.3086,22.1579,18.8251,48.9631,22.7935Q1316.12655,693.4049,1320.152,693.7775Z" class="color231c2d svgShape"/><path fill="#ffffff" d="M1312.4613,692.8868c-21.4222,15.1693-46.6248,4.4114-48.9631-22.7935C1269.8736,676.4019,1285.6561,688.9184,1312.4613,692.8868Z" class="colorfff svgShape"/><path d="M1278.7038,626.0941c-5.3918-2.3015-12.4226,2.0622-15.7031,9.7473s-1.5682,15.7815,3.8236,18.083,12.4229-2.0627,15.7033-9.7478S1284.0956,628.3956,1278.7038,626.0941Z" style="mix-blend-mode:soft-light" opacity=".44" fill="#ffa30f" class="color000 svgShape"/><path fill="#2d261c" d="M1277.4471,646.5321c-2.3783,5.5718-7.1344,8.8814-10.623,7.3923s-4.3887-7.2131-2.0104-12.7849,7.1345-8.8814,10.6231-7.3923S1279.8255,640.9604,1277.4471,646.5321Z" class="color231c2d svgShape"/><path fill="#ffffff" d="M1276.3863 641.4269c-.7475 1.7512-2.154 2.829-3.1415 2.4075s-1.182-2.1828-.4345-3.9339 2.1539-2.8291 3.1414-2.4076S1277.1338 639.6758 1276.3863 641.4269zM1271.2681 646.2165a1.90955 1.90955 0 11-.9056-2.7085A2.02656 2.02656 0 011271.2681 646.2165z" class="colorfff svgShape"/><path fill="#38322a" d="M1267.5832,620.1522c2.4895-3.9976,6.657-5.6058,11.0692-5.3529a11.2292,11.2292,0,0,1,6.3183,2.6651,7.3204,7.3204,0,0,1,2.4182,6.3627c-4.5335-1.536-6.4442-1.2621-9.3971-1.5724A40.87823,40.87823,0,0,1,1267.5832,620.1522Z" class="color382a2a svgShape"/><path d="M1339.8108,648.9985c-5.6118-3.1255-13.7731.8242-18.2281,8.8229s-3.5165,17.0174,2.0953,20.1429,13.7735-.8248,18.2284-8.8235S1345.4226,652.124,1339.8108,648.9985Z" style="mix-blend-mode:soft-light" opacity=".44" fill="#ffa30f" class="color000 svgShape"/><path fill="#2d261c" d="M1336.1004,671.1258c-3.2298,5.7991-8.7916,8.8608-12.4226,6.8385s-3.9562-8.3628-.7263-14.1619,8.7916-8.8608,12.4226-6.8386S1339.3303,665.3266,1336.1004,671.1258Z" class="color231c2d svgShape"/><path fill="#ffffff" d="M1335.5291 665.4411c-1.0151 1.8226-2.6712 2.8361-3.699 2.2636s-1.038-2.514-.0229-4.3366 2.6712-2.836 3.699-2.2636S1336.5442 663.6185 1335.5291 665.4411zM1329.4032 670.074a2.09228 2.09228 0 11-.6765-3.0551A2.22034 2.22034 0 011329.4032 670.074z" class="colorfff svgShape"/><path fill="#38322a" d="M1328.3732,641.2501c3.1694-4.0806,7.897-5.3404,12.6751-4.5653a12.30085,12.30085,0,0,1,6.5797,3.6283,7.88894,7.88894,0,0,1,1.9065,7.2099c-4.7696-2.1889-6.8744-2.1161-10.06-2.7901A44.63618,44.63618,0,0,1,1328.3732,641.2501Z" class="color382a2a svgShape"/><path d="M1426.4791,665.4825c-14.4883,66.6211-54.5914,86.6719-106.0768,84.214-21.4727-1.0343-41.7832-8.408-58.0828-18.628-11.5118-10.0897-21.0843-23.6724-28.3293-40.8776,35.0563,67.9144,151.8694,54.4611,167.0036,0,15.2653-54.4612,8.7973-112.1556-39.713-102.1954-48.5103,9.9611-64.4214-6.3385-64.4214-6.3385-5.3043-4.6568-8.7973-24.8371,14.4883-42.0423-11.6428,0-36.2216,8.7965-37.6428,9.1849,0-.1295.1279-.1295.1279-.2589a20.69339,20.69339,0,0,1,5.6927-3.7512C1388.3167,499.6427,1440.7085,600.5439,1426.4791,665.4825Z" style="mix-blend-mode:soft-light" opacity=".44" fill="#ffa30f" class="color000 svgShape"/><path fill="#7c5f35" d="M1367.6912,542.9642a168.14669,168.14669,0,0,0-25.0868-.0352c-8.2686.5398-16.5278,1.7809-24.0988,4.5528-7.4665,2.8157-14.4878,6.994-18.2141,13.5777-3.6566,6.4474-4.8761,15.1808.1179,19.6955,4.5273,5.1273,13.2712,6.4991,21.0195,6.7229a61.04861,61.04861,0,0,0,23.4221-4.1658c3.6158-1.5189,6.7934-3.7203,6.5888-6.6331-.1156-2.7765-3.6487-5.4802-7.2167-7.1344-7.2992-3.6226-15.6217-5.4614-23.8292-7.1764a85.12705,85.12705,0,0,1,25.1021,4.2727c3.7964,1.6189,8.8138,3.7561,10.0122,9.6636a9.71025,9.71025,0,0,1-.506,4.0544,14.80747,14.80747,0,0,1-2.2256,3.3408,22.49092,22.49092,0,0,1-5.7481,4.0857c-8.0711,4.1789-16.8698,5.3318-25.6243,5.579a50.648,50.648,0,0,1-13.2654-1.4553,43.91071,43.91071,0,0,1-6.5451-2.3326c-1.9915-1.4013-4.2977-2.2798-5.8842-4.3886-3.8386-3.5464-4.8958-9.1516-4.7889-13.8868a50.9247,50.9247,0,0,1,1.4231-6.9014,52.20816,52.20816,0,0,1,2.8944-6.3371c4.9381-8.0714,13.3646-12.997,21.727-15.2876C1333.9026,538.1182,1351.275,539.3877,1367.6912,542.9642Z" class="color7c4e35 svgShape"/><path fill="#cc9e5e" d="M1630.0103,440.4273c11.4858,7.5763,24.4655,4.4521,35.9123-4.4008,22.4525-17.2941,39.0308-56.4696,27.027-79.7583-4.722-9.1216-10.5797-13.1723-16.7051-14.1532-17.4587-2.7914-36.9264,19.3807-36.9264,19.3807S1596.0227,417.9972,1630.0103,440.4273Z" class="colorcc805e svgShape"/><path d="M1630.0103,440.4273c11.4858,7.5763,24.4655,4.4521,35.9123-4.4008-11.8069.9978-17.799-4.026-10.7204-13.0487,9.278-11.8116,34.1466-34.1109,31.9578-48.6452-2.1688-14.5549-23.1248.5681-23.1248.5681-.8232-17.4756,5.8381-27.3663,12.2093-32.7857-17.4587-2.7914-36.9264,19.3807-36.9264,19.3807S1596.0227,417.9972,1630.0103,440.4273Z" style="mix-blend-mode:soft-light" opacity=".45" fill="#ffa30f" class="color000 svgShape"/><path fill="#916527" d="M1637.8076,409.1054a54.95282,54.95282,0,0,1,14.6602-32.0787c4.3017-4.3357,9.4591-8.1794,15.5212-10.0767a26.88134,26.88134,0,0,1,18.0518.8194,47.19542,47.19542,0,0,0-15.7311,4.7619,54.24869,54.24869,0,0,0-12.252,9.8506,108.65141,108.65141,0,0,0-10.3805,12.6532Z" class="color914027 svgShape"/><path fill="#2d261c" d="M1703.7702,236.9137a161.70979,161.70979,0,0,1-2.9298,35.3417,178.29434,178.29434,0,0,1-4.3203,17.7583c-.9428,3.2734-1.9831,6.6-3.1836,10.027-2.0889,6.0127-4.5331,12.2322-7.4138,18.602a293.79436,293.79436,0,0,1-22.38,40.8146l-22.3213,54.1798-293.0042,7.9866-51.8844-147.7194s-2.9581-29.4276,18.1758-68.0556c8.6285-15.8251,21.2995-33.1649,39.8262-50.6697,33.1556-31.3103,85.0549-63.1148,166.2373-87.6146l-7.5174,43.5176s41.6267-1.7719,88.4904,11.2409a244.721,244.721,0,0,1,24.5445,8.1247c16.8073,6.5608,33.5114,15.3161,48.4661,27.0265,0,0,6.8858,6.9253,14.0085,20.2993a125.52324,125.52324,0,0,1,7.9701,18.4645A137.768,137.768,0,0,1,1703.7702,236.9137Z" class="color231c2d svgShape"/><path fill="#3f362a" d="M1450.3444,256.4817c-33.1707-74.0885,59.9732-143.3719,62.6474-145.3526-133.9926,81.6866-85.964,149.5617-85.964,149.5617-151.6821-90.0043,93.5443-193.1264,93.5443-193.1264l-7.5174,43.5176s41.6267-1.7719,88.4904,11.2409C1474.0882,159.5991,1450.3444,256.4817,1450.3444,256.4817Z" class="color322a3f svgShape"/><path fill="#3f362a" d="M1476.9478 242.6192c29.1283-71.9945 114.8112-102.5856 149.1418-112.1716 16.8073 6.5608 33.5114 15.3161 48.4661 27.0265 0 0 6.8858 6.9253 14.0085 20.2993-18.6278.545-43.1369-.6663-85.3562 2.9603C1530.1832 186.9964 1478.4505 241.0639 1476.9478 242.6192zM1696.5343 196.2379a137.768 137.768 0 017.2359 40.6758c-65.4884 4.938-100.2565-32.1588-100.2565-32.1588C1635.7988 209.128 1669.239 203.6976 1696.5343 196.2379zM1618.2509 269.7939l-2.0696 7.8997c16.6007 18.6542 50.5409 22.5145 77.1552 22.3471-2.0889 6.0127-4.5331 12.2322-7.4138 18.602-55.7299 1.8923-90.5532-31.1641-90.5532-31.1641s-36.5125-85.684 22.1392-44.124a158.18035 158.18035 0 0083.3317 28.9008 178.29434 178.29434 0 01-4.3203 17.7583C1646.8873 286.9531 1618.2509 269.7939 1618.2509 269.7939z" class="color322a3f svgShape"/><path fill="#cc9e5e" d="M1417.879,478.7216c-8.1118,11.114-21.3647,12.7253-35.1844,8.4336-27.0821-8.352-56.3116-39.2582-53.2084-65.2741,1.2347-10.1969,5.3063-16.04,10.7021-19.1008,15.3806-8.7196,41.3721,5.2461,41.3721,5.2461S1441.8786,445.8235,1417.879,478.7216Z" class="colorcc805e svgShape"/><path d="M1417.879,478.7216c-8.1118,11.114-21.3647,12.7253-35.1844,8.4336,11.4106-3.1935,15.2679-9.9953,5.4813-15.9735-12.8223-7.822-43.9181-20.0185-46.9493-34.4008-3.0572-14.3945,21.8637-7.5533,21.8637-7.5533-5.3389-16.6603-15.0381-23.5977-22.902-26.4473,15.3806-8.7196,41.3721,5.2461,41.3721,5.2461S1441.8786,445.8235,1417.879,478.7216Z" style="mix-blend-mode:soft-light" opacity=".45" fill="#ffa30f" class="color000 svgShape"/><path fill="#916527" d="M1399.6222,452.1031l-14.1665-9.7313a108.59133,108.59133,0,0,0-14.1494-8.2248,54.24523,54.24523,0,0,0-14.9227-4.9455,47.19492,47.19492,0,0,0-16.4033,1.0394,26.87518,26.87518,0,0,1,16.626-7.0793c6.3428-.3426,12.5185,1.4553,18.0646,4.013A54.95472,54.95472,0,0,1,1399.6222,452.1031Z" class="color914027 svgShape"/><path fill="#cc9e5e" d="M1651.1995,360.9461l-9.6227,77.2955c-25.0762,53.9351-96.0904,106.3094-116.9859,120.8871a31.22227,31.22227,0,0,1-14.478,5.4594c-16.6706,1.9377-45.3637,2.045-59.5903,1.9404a23.28672,23.28672,0,0,1-10.1046-2.3108,22.90956,22.90956,0,0,1-5.2612-3.4121c-3.0248-2.6256-6.237-5.5796-9.5084-8.7026q-.49005-.463-.9799-.9264c-4.924-4.8059-10.0453-10.0096-15.0673-15.2627-.3316-.3437-.6235-.6573-.9201-1.0057-12.3442-13.0205-23.9381-26.2519-30.7186-34.2012a39.45822,39.45822,0,0,1-8.496-16.4283l-48.9761-196.9531a.10884.10884,0,0,1,.025-.0745c3.0688-12.7977,15.1867-27.0359,24.5941-36.5719a18.05857,18.05857,0,0,1,23.1298-2.1307c13.998,9.6352,39.4904,23.1591,68.1458,19.229,37.1776-5.0843,78.4347-39.5881,94.5227-50.2693,2.9547-1.9367,24.7421-6.5734,28.2517-6.5673,40.3828.1034,78.9731,30.0157,78.9731,30.0157C1583.5795,327.7151,1651.1995,360.9461,1651.1995,360.9461Z" class="colorcc805e svgShape"/><path fill="#2d261c" d="M1495.8526,500.8359s-2.0118,16.4351-17.1272,20.3552-21.1439-12.3976-21.1439-12.3976Z" class="color231c2d svgShape"/><path fill="#f7960d" d="M1500.3066 497.447c-5.4759 7.4997-14.4806 11.1678-23.1498 12.893a51.17876 51.17876 0 01-13.3482.5392 40.06016 40.06016 0 01-12.947-3.3282c8.7823-2.3162 16.8691-3.3032 24.9308-4.7966 4.0283-.6756 8.0038-1.5138 12.0488-2.3389C1491.8468 499.454 1495.9783 498.7085 1500.3066 497.447zM1554.919 444.6977c-1.438 5.6694-3.2266 11.1922-4.9089 16.7593l-.1443.4773-.6844.4569a184.36575 184.36575 0 01-35.4795 17.9771 221.4052 221.4052 0 01-38.3323 10.8973 184.61119 184.61119 0 01-39.7901 3.3322c-13.3451.0057-26.5858-2.6367-39.2978-6.028l-.281-.075-.1011-.0795c-2.225-1.7446-4.3327-3.6669-6.4906-5.5132 2.5512 1.2473 5.1526 2.419 7.637 3.7686l-.379-.1534c13.0842.616 25.928 1.0746 38.7499-.0136a288.92728 288.92728 0 0038.0602-5.0796 401.52947 401.52947 0 0073.8137-22.3776l-.8265.9319C1549.2365 454.8653 1551.9027 449.7085 1554.919 444.6977z" class="colorb25734 svgShape"/><path fill="#f7960d" d="M1558.5913,449.7306c-3.9661-.4171-5.5251-.2949-7.1384-.6324a29.82319,29.82319,0,0,1-6.853-2.9163c1.2788-3.8141,4.9886-5.2995,8.5518-4.6011C1556.6555,442.3985,1559.711,445.7438,1558.5913,449.7306Z" class="colorb25734 svgShape"/><path fill="#3f362a" d="M1390.37,250.8649c-37.2147-11.3304-60.8599-28.1064-75.8614-45.0162,8.6285-15.8251,21.2995-33.1649,39.8262-50.6697C1328.277,212.1733,1387.5999,249.1535,1390.37,250.8649Z" class="color322a3f svgShape"/><path fill="#dbb47d" d="M1431.8105,415.1529s31.6533-3.3342,33.9748,9.526-27.6002,23.4272-44.5876,17.4927S1431.8105,415.1529,1431.8105,415.1529Z" class="colordb987d svgShape"/><path fill="#f7960d" d="M1435.195,400.9869c-.1551,4.954-.7185,9.8108-1.2663,14.671l-.0557.4944-.6824.6853c-2.8038,2.8162-5.5942,5.6489-8.4993,8.3413-3.4237,3.0435-4.5054,4.4045-4.6233,7.2582a6.95058,6.95058,0,0,0,3.3012,6.1542,51.33688,51.33688,0,0,0,9.8191,4.3584,40.42747,40.42747,0,0,0,21.2536.6245c7.1966-1.7371,14.2113-5.1506,21.1547-9.2152a48.46581,48.46581,0,0,1-19.2579,15.025,39.05673,39.05673,0,0,1-25.4544,1.5434,43.69614,43.69614,0,0,1-11.8332-5.1614,14.41618,14.41618,0,0,1-6.7511-13.9818,14.13634,14.13634,0,0,1,3.0538-7.3429c1.9235-2.2707,3.7078-3.0958,5.2287-4.2749,3.2104-2.3202,6.5352-4.5005,9.8467-6.6974l-.7365,1.1769C1431.4011,410.0629,1433.094,405.476,1435.195,400.9869Z" class="colorb25734 svgShape"/><path d="M1651.1995,360.9461l-9.6227,77.2955c-25.0762,53.9351-96.0904,106.3094-116.9859,120.8871a31.22227,31.22227,0,0,1-14.478,5.4594c-16.6706,1.9377-45.3637,2.045-59.5903,1.9404a23.28672,23.28672,0,0,1-10.1046-2.3108,181.44163,181.44163,0,0,1-14.7696-12.1147q-.49005-.463-.9799-.9264c-5.41-4.9862-10.457-10.1648-15.0673-15.2627-.3316-.3437-.6235-.6573-.9201-1.0057a301.17281,301.17281,0,0,1-28.8959-37.6453l63.2419,58.2263c25.8704-19.5609,66.0906-2.5999,66.0906-2.5999,50.0114-32.2171,105.0112-123.6454,91.5752-200.8404s-56.7443-92.4136-123.2382-78.4869c-66.5285,13.9315-64.0318-1.6925-104.428-10.0166-39.3398-8.117-51.9107,22.1688-52.5113,23.7057,3.0688-12.7977,15.1867-27.0359,24.5941-36.5719a18.05857,18.05857,0,0,1,23.1298-2.1307c13.998,9.6352,39.4904,23.1591,68.1458,19.229,37.1776-5.0843,78.4347-39.5881,94.5227-50.2693,2.9547-1.9367,24.7421-6.5734,28.2517-6.5673,40.3828.1034,78.9731,30.0157,78.9731,30.0157C1583.5795,327.7151,1651.1995,360.9461,1651.1995,360.9461Z" style="mix-blend-mode:soft-light" opacity=".45" fill="#ffa30f" class="color000 svgShape"/><path fill="#212120" d="M1471.9955,312.0501c4.7262,14.048,12.7303,16.3377,12.7303,16.3377a167.60144,167.60144,0,0,1,24.3469-15.1972c.72-.37,1.4444-.7204,2.1446-1.0855.5235-.2368,1.0229-.4885,1.5273-.7205a120.44543,120.44543,0,0,1,19.9292-7.3628c1.2883-.3471,2.5081-.6352,3.6941-.894,1.2645-.2785,2.4746-.5224,3.592-.7221a53.23728,53.23728,0,0,1,12.9902-1.0796,64.23242,64.23242,0,0,0-12.7759-7.2125c-1.3694-.5499-2.7293-1.0605-4.0886-1.4878-1.3155-.4177-2.6211-.796-3.9069-1.0959a51.62231,51.62231,0,0,0-20.2282-.7369c-.9262.1304-1.8425.3-2.7348.4842-.9113.1891-1.7981.393-2.6799.6163C1486.1048,297.1102,1471.9955,312.0501,1471.9955,312.0501Z" class="color212021 svgShape"/><path fill="#3f362a" d="M1536.0856 292.6258a45.25913 45.25913 0 00.2823 10.502c1.2645-.2785 2.4746-.5224 3.592-.7221a39.51507 39.51507 0 01.2143-8.2921C1538.8048 293.5637 1537.4449 293.0531 1536.0856 292.6258zM1511.9505 290.793c-1.8556 7.248-.6149 15.1091.7941 20.5916a120.44543 120.44543 0 0119.9292-7.3628 51.867 51.867 0 01-.4951-12.4919A51.62231 51.62231 0 001511.9505 290.793zM1509.0727 313.1906c.72-.37 1.4444-.7204 2.1446-1.0855a54.62282 54.62282 0 01-2.0016-20.8279c-.9113.1891-1.7981.393-2.6799.6163A55.2786 55.2786 0 001509.0727 313.1906z" class="color322a3f svgShape"/><path fill="#212120" d="M1422.2904,326.6176c.7541,14.8026-5.8529,19.8677-5.8529,19.8677a167.59513,167.59513,0,0,0-28.2236-5.2112c-.8055-.0802-1.6079-.1406-2.3933-.2235-.5738-.0284-1.1307-.0794-1.685-.1103a120.44168,120.44168,0,0,0-21.2409.4577c-1.3259.1494-2.5664.3286-3.7646.5228-1.2785.2045-2.4938.4213-3.6066.6453a53.23931,53.23931,0,0,0-12.4813,3.7588,64.23286,64.23286,0,0,1,9.2414-11.3948c1.0724-1.0137,2.1504-1.9874,3.2583-2.8834,1.0707-.8709,2.1467-1.7016,3.2329-2.4521a51.619,51.619,0,0,1,18.5491-8.1028c.9095-.2183,1.8242-.3965,2.7218-.5523.9172-.1583,1.817-.2937,2.7192-.4093C1403.6858,317.8919,1422.2904,326.6176,1422.2904,326.6176Z" class="color212021 svgShape"/><path fill="#3f362a" d="M1355.5419 332.0467a45.26307 45.26307 0 013.5882 9.8741c-1.2785.2045-2.4938.4213-3.6066.6453a39.51661 39.51661 0 00-3.2399-7.636C1353.356 333.9164 1354.434 332.9427 1355.5419 332.0467zM1377.3239 321.4918c4.384 6.0627 6.1122 13.8312 6.8117 19.4485a120.44168 120.44168 0 00-21.2409.4577 51.86883 51.86883 0 00-4.1199-11.8034A51.619 51.619 0 011377.3239 321.4918zM1388.2139 341.2741c-.8055-.0802-1.6079-.1406-2.3933-.2235a54.62062 54.62062 0 00-5.7749-20.1111c.9172-.1583 1.817-.2937 2.7192-.4093A55.27711 55.27711 0 011388.2139 341.2741z" class="color322a3f svgShape"/><ellipse cx="1518.191" cy="371.864" rx="23.285" ry="39.143" transform="rotate(-5.284 1518.192 371.864)" style="mix-blend-mode:soft-light" opacity=".45" fill="#ffa30f" class="color000 svgShape"/><ellipse cx="1518.979" cy="381.746" fill="#231e17" rx="15.4" ry="25.888" transform="rotate(-5.284 1518.978 381.746)" class="color1b1723 svgShape"/><path fill="#ffffff" d="M1520.2097 372.4399c.3563 4.4721 2.8064 7.9756 5.4724 7.8253s4.5383-3.8974 4.182-8.3695-2.8064-7.9757-5.4724-7.8254S1519.8534 367.9677 1520.2097 372.4399zM1517.782 383.1002c.1804 2.2644 1.421 4.0385 2.7709 3.9624s2.298-1.9735 2.1176-4.238-1.421-4.0385-2.7709-3.9624S1517.6015 380.8357 1517.782 383.1002z" class="colorfff svgShape"/><ellipse cx="1391.841" cy="387.262" rx="20.218" ry="33.928" transform="rotate(-12.262 1391.841 387.262)" style="mix-blend-mode:soft-light" opacity=".45" fill="#ffa30f" class="color000 svgShape"/><path fill="#231e17" d="M1380.9443,399.2123c2.8797,12.0484,10.9868,20.2059,18.1079,18.2202s10.5593-13.3625,7.6796-25.4109-10.9868-20.2059-18.1078-18.2202S1378.0646,387.1639,1380.9443,399.2123Z" class="color1b1723 svgShape"/><path fill="#ffffff" d="M1393.6259 387.3833c.9037 3.7811 3.448 6.3412 5.6828 5.718s3.3138-4.1936 2.4101-7.9747-3.448-6.3412-5.6828-5.7181S1392.7221 383.6021 1393.6259 387.3833zM1393.0082 397.0036c.4576 1.9146 1.7459 3.2109 2.8775 2.8954s1.678-2.1235 1.2203-4.0381-1.7459-3.2109-2.8775-2.8954S1392.5505 395.089 1393.0082 397.0036z" class="colorfff svgShape"/><path fill="#edc183" d="M1400.1191,734.7033c4.7871,3.4755,10.4223,2.3839,15.5095-1.1977,9.9769-6.9949,17.8529-23.5014,13.1463-33.7355-1.8523-4.0089-4.2901-5.8616-6.9021-6.401-7.4447-1.5356-16.2338,7.612-16.2338,7.612S1385.9538,724.414,1400.1191,734.7033Z" class="coloreda983 svgShape"/><path d="M1400.1191,734.7033c4.7871,3.4755,10.4223,2.3839,15.5095-1.1977-5.0904.2009-7.5672-2.0724-4.3529-5.8112,4.2127-4.8943,15.324-13.9924,14.6641-20.2772-.6508-6.2932-9.9431-.2019-9.9431-.2019-.0167-7.5218,3.0352-11.6415,5.8761-13.8462-7.4447-1.5356-16.2338,7.612-16.2338,7.612S1385.9538,724.414,1400.1191,734.7033Z" style="mix-blend-mode:soft-light" opacity=".45" fill="#ffa30f" class="color000 svgShape"/><path fill="#ddae6c" d="M1404.0721,721.4004a24.14679,24.14679,0,0,1,6.9159-13.4942,17.92589,17.92589,0,0,1,6.8664-4.0118,11.5777,11.5777,0,0,1,7.7313.6824,18.19294,18.19294,0,0,0-12.3014,5.7359C1409.8037,713.3875,1407.2395,717.4454,1404.0721,721.4004Z" class="colordd8f6c svgShape"/></g></svg>