<svg xmlns="http://www.w3.org/2000/svg" enable-background="new 0 0 300 300" viewBox="0 0 300 300"><path fill="#7d561f" d="M59.5 100.6C72.8 96.5 80.8 88.3 91 90.1c9.8 1.7 11.4 11.7 5.7 16.3-.7-.3-1.3-.7-2-1-.8-.4-1.6-.7-2.3-1.1-1.2-1-2-2.3-2.7-3.4-.9-1.6-1.5-3.1-1.9-4.4-.8-2.5-.9-4-.9-4 0 0 0 1.5.5 4.1.3 1.3.8 2.9 1.6 4.6.3.7.8 1.4 1.2 2.1-2.1-.8-4.1-1.4-6.1-1.8 0 0-.3-.2-.5-.2-2.4-1.1-3.7-3.2-4.4-4.6C78.4 95 78 94.1 78 94.1c0 0 .2 1.1.8 2.9.3.9.8 2 1.7 3.2.2.3.5.6.7.8-.6-.1-1.2-.2-1.8-.3-4.3-.5-7.7-.3-10-.1-2.3.3-3.4.5-3.4.5 0 0 1.2-.2 3.5-.2 2.3-.1 5.7 0 9.9.9.1 0 .3.1.4.1-.4.1-.8.2-1.2.4-1.5.5-2.7 1.2-3.6 1.9-1.9 1.3-2.2 2.6-2.2 2.6 0 0 .6-1.2 2.5-2.3.9-.5 2.2-1 3.7-1.4 1.1-.2 2.3-.5 3.6-.5 2.4.7 5.1 1.6 7.8 2.9-1.2.2-2.4.6-3.3 1.1-2.1 1-3.7 2.3-4.9 3.3-2.4 2.1-3.6 3.4-3.6 3.4 0 0 1.4-1.2 3.9-3.1 1.3-.9 2.9-2.1 5-2.9 1.4-.6 3.1-.9 4.8-.9.6.3 1.1.6 1.7.9.9.5 1.9 1.1 2.9 1.7 1.4 5.8-3.4 13.4-12.4 11.8C77.8 119.7 71.5 104.8 59.5 100.6zM115.9 173.3h11.1c-7.4-7.3-4.5-45.4-6-63-.4-4.4-.9-8.7-1.6-12.8-.7-4.2-1.5-7.9-2.2-11.6-1.5-7.4-3.1-14.2-5-20.2-3.7-12-8.3-20.7-11.9-26.2-3.7-5.5-6.1-7.9-6.1-7.9 0 0 2.1 2.6 5.2 8.2 3.1 5.6 6.8 14.3 9.5 26.2 1.4 5.9 2.5 12.6 3.5 20l1.5 11.6c.4 3.9.6 8.1.8 12.5C115.2 127.3 116.5 150.9 115.9 173.3zM175 40.2c-17.5 3.2-31.5-1.2-42 6.8-10.1 7.8-5.9 20.1 3.3 21.8.5-.8 1.1-1.5 1.6-2.3.7-.9 1.4-1.8 2-2.6.7-1.9 1-3.8 1.1-5.5.1-2.4-.2-4.4-.4-6.1-.6-3.3-1.3-5.1-1.3-5.1 0 0 .9 1.7 1.9 5 .4 1.7.9 3.8 1 6.2 0 1 0 2-.2 3.1 1.9-2.2 3.9-4.1 5.8-5.7 0 0 .3-.4.5-.5 2.1-2.7 2.3-5.9 2.2-7.9-.1-2.4-.3-3.8-.3-3.8 0 0 .4 1.3.8 3.8.2 1.2.3 2.8 0 4.6-.1.5-.2.9-.3 1.4.6-.5 1.2-.9 1.9-1.4 4.6-3.2 8.6-5 11.3-6.1 2.7-1.1 4.2-1.4 4.2-1.4 0 0-1.5.5-4.1 1.8-2.6 1.3-6.4 3.4-10.7 6.9-.1.1-.3.2-.4.4.6-.1 1.1-.2 1.6-.3 2-.3 3.8-.3 5.2-.1 2.9.4 4.1 1.7 4.1 1.6 0 0-1.4-1-4.2-1.1-1.4 0-3.1.1-5 .6-1.3.3-2.9.8-4.3 1.6-2.4 2.2-4.8 4.9-7.1 8 1.5-.5 3.1-.7 4.4-.7 3-.1 5.5.4 7.5.9 4 1 6.1 1.7 6.1 1.7 0 0-2.2-.5-6.3-1.2-2-.3-4.5-.6-7.4-.3-1.9.2-4.1.8-6 1.9-.5.7-.9 1.3-1.4 2-.8 1.2-1.5 2.4-2.2 3.6 1.9 7.4 11.8 13.1 21.1 6C165.6 72.7 164 52.1 175 40.2z" class="color1f7d64 svgShape"/><path fill="#7d561f" d="M57.8 2.5C79.3 8.2 97.2 4 109.6 15c11.9 10.7 5.4 25.7-6.2 27-.6-1-1.2-2-1.8-3-.8-1.2-1.5-2.3-2.3-3.4-.7-2.4-.9-4.8-.8-6.9.1-3 .6-5.5 1.1-7.6 1.1-4.1 2.1-6.2 2.1-6.2 0 0-1.3 2-2.8 6.1-.7 2-1.5 4.6-1.8 7.7-.1 1.2-.1 2.5-.1 3.9-2.2-2.9-4.4-5.4-6.7-7.7 0 0-.3-.5-.6-.7-2.4-3.6-2.3-7.6-2.1-10.1.3-3 .7-4.7.7-4.7 0 0-.6 1.6-1.4 4.6-.3 1.5-.7 3.5-.5 5.7.1.6.1 1.2.3 1.8-.7-.7-1.5-1.3-2.2-1.9-5.4-4.5-10.2-7.1-13.5-8.6-3.3-1.6-5.1-2.2-5.1-2.2 0 0 1.8.8 5 2.7 3.2 1.9 7.7 4.9 12.7 9.6.2.2.3.3.5.5-.7-.2-1.3-.4-2-.5-2.5-.6-4.7-.7-6.5-.6-3.7.2-5.2 1.7-5.2 1.6 0 0 1.8-1.1 5.3-.9 1.7.1 3.8.5 6.2 1.2 1.6.6 3.5 1.3 5.3 2.4 2.7 3 5.5 6.6 8.2 10.6-1.9-.7-3.7-1.2-5.5-1.4-3.8-.4-6.9 0-9.5.4-5.1.8-7.8 1.6-7.8 1.6 0 0 2.9-.5 8-.9 2.6-.2 5.7-.3 9.2.3 2.4.4 5 1.4 7.3 2.9.5.9 1 1.8 1.5 2.7.8 1.5 1.6 3.1 2.4 4.7-3.1 9-16 15.3-26.9 5.5C66.3 44 70.4 18.4 57.8 2.5zM115.9 145.8h5.4c-.2-14.7 1-28.1 2.8-39.8 1.7-11.6 5.7-21.1 9.4-28.5 7.7-14.9 15-21.3 14.9-21.3.1 0-7.5 5.6-16.3 20-4.3 7.2-9 16.7-11.5 28.6C118.2 116.7 116.3 130.4 115.9 145.8z" class="color1f7d64 svgShape"/><path fill="#7d561f" d="M110.8,173.3h8.8c0.8-11.7-1.1-27.8-3.5-36.7c-2.5-8.8-6-16.1-9.9-21.2c-3.9-5.2-8.3-8.1-11.4-9.4     c-3.1-1.3-5-1.4-4.9-1.4c0,0,1.7,0.4,4.6,1.9c2.8,1.6,6.6,4.7,9.8,9.9c3.3,5.2,6,12.3,7.7,20.9     C113.7,145.8,115.9,167.6,110.8,173.3z" class="color1f7d64 svgShape"/><g fill="#000000" class="color000 svgShape"><path fill="#b87d29" d="M167.1,252.3c0,0-8.7-44.3-41.6-63.9H102c-32.9,19.6-41.7,63.9-41.7,63.9c-9.6,51.5,50.2,45,50.2,45h6.5    C117,297.2,176.8,303.8,167.1,252.3z" class="colorb86829 svgShape"/><path fill="#7f571e" d="M167.1 252.3c0 0-8.7-44.3-41.6-63.9h-13.1c22.4 19.7 28.6 51.5 28.6 51.5 8.8 47.1-45.8 41.1-45.8 41.1h-5.9c0 0-14.2 1.6-27-3.2 11 23.6 48.2 19.5 48.2 19.5h6.5C117 297.2 176.8 303.8 167.1 252.3zM78.1 159.6c-1.2-1.6-3.1-5.1-1.1-6.7 2.7-2.1 8.1.1 10.9.9 3.6 1 7.6 1.9 11.6 1.5 3.9-.4 8.3-2.6 11.8-4 3.5-1.4 7.2-4 11.4-2.7 4.4 1.4 6.1 5.2 11.2 5.7 8.9.8 14.1-7.1 22.4-6.3 4.3.4 3.8 3.1 1.4 5l-32.2 35.3H102L78.1 159.6zM104.4 188.4c0 0-10.8 7.9-14.2 14 0 0 14.5-10.7 22.2-14H104.4z" class="color7f481e svgShape"/><path fill="#7f571e" d="M107.7 188.4c0 0 8.3 4.4 12.4 14 0 0-.5-8-4.9-14H107.7zM134 210c0 0 7.3 13.8 11.3 28.8C145.3 238.8 146.2 221.7 134 210z" class="color7f481e svgShape"/><path fill="#b87d29" d="M92 154.8l15.7 29.4v-31.3c-.3.1-.6.2-.9.4-.1 0-.1 0-.2.1-.3.1-.6.2-.9.4 0 0 0 0 0 0-.3.1-.6.2-1 .4-.1 0-.1 0-.2.1-.3.1-.5.2-.8.3-.1 0-.2.1-.3.1-.3.1-.6.2-.9.3 0 0-.1 0-.1 0-.3.1-.6.2-.9.2-.1 0-.2 0-.2.1-.2.1-.5.1-.7.1-.1 0-.2 0-.3 0-.3.1-.6.1-.9.1C97 155.6 94.5 155.3 92 154.8zM87.9 153.8c-.3-.1-.7-.2-1.1-.3l13 20-9.5-19C89.5 154.2 88.7 154 87.9 153.8zM157.7 153c2.4-1.9 2.9-4.6-1.4-5-7.6-.8-12.6 5.8-20.2 6.3l-17.4 34h6.7L157.7 153zM120.8 180l12.9-25.7c-2.6-.3-4.4-1.5-6.1-2.8L120.8 180z" class="colorb86829 svgShape"/><path fill="#7f571e" d="M100.4,261.3c-14,0-25.5-11.1-25.5-24.9s11.4-24.9,25.5-24.9c14,0,25.5,11.1,25.5,24.9     S114.4,261.3,100.4,261.3z M100.4,214.8c-12.3,0-22.3,9.7-22.3,21.7c0,11.9,10,21.7,22.3,21.7c12.3,0,22.3-9.7,22.3-21.7     C122.7,224.5,112.7,214.8,100.4,214.8z" class="color7f481e svgShape"/><path fill="#f7960d" d="M131.9,187.1c-0.1,0-0.3,0-0.4,0c-11.9-2.6-33.8,0-34,0c-1.2,0.2-2.4-0.9-2.5-2.3c-0.1-1.4,0.8-2.7,2-2.8      c0.9-0.1,22.9-2.7,35.4,0c1.2,0.3,2,1.6,1.8,3C133.9,186.3,133,187.1,131.9,187.1z" class="colorf7921e svgShape"/><path fill="#d58d27" d="M112.2 180.9c-.4 0-.8 0-1.1 0-.7 1.1-1.6 2.9-2.1 5.2.3 0 .6 0 1 0C110.5 183.6 111.6 181.8 112.2 180.9zM105.7 181.2c-.4 0-.8.1-1.1.1-.7 1.2-1.5 3-2 5.3.3 0 .6-.1.9-.1C104.1 184.1 105.1 182.2 105.7 181.2zM109 181c-.4 0-.8 0-1.1.1-.7 1.1-1.6 2.9-2 5.3.3 0 .6 0 .9-.1C107.3 183.8 108.4 182 109 181zM102.5 181.5c-.4 0-.8.1-1.1.1-.7 1.2-1.5 3-1.9 5.3.3 0 .6-.1 1-.1C100.9 184.4 101.8 182.6 102.5 181.5zM98 181.9c-.6 1.2-1.3 2.9-1.7 5.1.3.1.6.2.9.2.4-2.4 1.2-4.2 1.9-5.4C98.7 181.8 98.4 181.9 98 181.9zM130.4 181.7c-.3-.1-.6-.1-1-.2-.6 1.1-1.4 2.8-1.8 4.9.3 0 .6.1.9.1C129 184.4 129.8 182.8 130.4 181.7zM132.3 182.1C132.3 182.1 132.3 182.1 132.3 182.1c-.7 1.2-1.3 2.8-1.7 4.9.3.1.5.1.8.2 0 0 .1 0 .1 0 .3-2 1-3.5 1.6-4.7C132.9 182.3 132.6 182.1 132.3 182.1zM124.6 181c-.3 0-.7 0-1.1-.1-.7 1.1-1.5 2.8-2 5 .3 0 .6 0 .9 0C123 183.7 124 181.9 124.6 181zM127.5 181.3c-.3 0-.7-.1-1-.1-.7 1.1-1.5 2.8-1.9 5 .3 0 .6 0 .9.1C126 184 126.9 182.3 127.5 181.3zM121.6 180.9c-.4 0-.7 0-1.1 0-.7 1-1.6 2.8-2.1 5.1.3 0 .6 0 .9 0C119.9 183.5 121 181.7 121.6 180.9zM117.4 180.8c-.7 1-1.6 2.8-2.1 5.2.3 0 .6 0 .9 0 .6-2.5 1.7-4.3 2.3-5.1C118.1 180.8 117.8 180.8 117.4 180.8zM115.4 180.8c-.4 0-.7 0-1.1 0-.7 1.1-1.6 2.8-2.1 5.2.3 0 .6 0 1 0C113.7 183.4 114.8 181.6 115.4 180.8z" class="colord56f27 svgShape"/><path fill="#b4b4b4" d="M131.9,185c-0.1,0-0.3,0-0.4,0c-11.9-2.6-33.8,0-34,0c-1,0.1-1.9-0.5-2.3-1.5c-0.2,0.4-0.3,0.9-0.2,1.4     c0.1,1.4,1.3,2.4,2.5,2.3c0.2,0,22.2-2.7,34,0c0.1,0,0.3,0,0.4,0c1.1,0,2-0.8,2.2-2.1c0.1-0.6,0-1.1-0.2-1.6     C133.6,184.4,132.8,185,131.9,185z" opacity=".8" class="colorb4b4b4 svgShape"/><g fill="#000000" class="color000 svgShape"><path fill="#f7960d" d="M131.9,192.3c-0.1,0-0.3,0-0.4,0c-11.9-2.6-33.8,0-34,0c-1.2,0.2-2.4-0.9-2.5-2.3c-0.1-1.4,0.8-2.7,2-2.8      c0.9-0.1,22.9-2.7,35.4,0c1.2,0.3,2,1.6,1.8,3C133.9,191.4,133,192.3,131.9,192.3z" class="colorf7921e svgShape"/><path fill="#d58d27" d="M112.2 186c-.4 0-.8 0-1.1 0-.7 1.1-1.6 2.9-2.1 5.2.3 0 .6 0 1 0C110.5 188.7 111.6 186.9 112.2 186zM105.7 186.4c-.4 0-.8.1-1.1.1-.7 1.2-1.5 3-2 5.3.3 0 .6-.1.9-.1C104.1 189.2 105.1 187.4 105.7 186.4zM109 186.2c-.4 0-.8 0-1.1.1-.7 1.1-1.6 2.9-2 5.3.3 0 .6 0 .9-.1C107.3 188.9 108.4 187.1 109 186.2zM102.5 186.6c-.4 0-.8.1-1.1.1-.7 1.2-1.5 3-1.9 5.3.3 0 .6-.1 1-.1C100.9 189.5 101.8 187.7 102.5 186.6zM98 187.1c-.6 1.2-1.3 2.9-1.7 5.1.3.1.6.2.9.2.4-2.4 1.2-4.2 1.9-5.4C98.7 187 98.4 187 98 187.1zM130.4 186.8c-.3-.1-.6-.1-1-.2-.6 1.1-1.4 2.8-1.8 4.9.3 0 .6.1.9.1C129 189.6 129.8 187.9 130.4 186.8zM132.3 187.2C132.3 187.2 132.3 187.2 132.3 187.2c-.7 1.2-1.3 2.8-1.7 4.9.3.1.5.1.8.2 0 0 .1 0 .1 0 .3-2 1-3.5 1.6-4.7C132.9 187.4 132.6 187.3 132.3 187.2zM124.6 186.2c-.3 0-.7 0-1.1-.1-.7 1.1-1.5 2.8-2 5 .3 0 .6 0 .9 0C123 188.8 124 187.1 124.6 186.2zM127.5 186.4c-.3 0-.7-.1-1-.1-.7 1.1-1.5 2.8-1.9 5 .3 0 .6 0 .9.1C126 189.1 126.9 187.4 127.5 186.4zM121.6 186c-.4 0-.7 0-1.1 0-.7 1-1.6 2.8-2.1 5.1.3 0 .6 0 .9 0C119.9 188.6 121 186.9 121.6 186zM117.4 185.9c-.7 1-1.6 2.8-2.1 5.2.3 0 .6 0 .9 0 .6-2.5 1.7-4.3 2.3-5.1C118.1 186 117.8 185.9 117.4 185.9zM115.4 186c-.4 0-.7 0-1.1 0-.7 1.1-1.6 2.8-2.1 5.2.3 0 .6 0 1 0C113.7 188.6 114.8 186.8 115.4 186z" class="colord56f27 svgShape"/><path fill="#b4b4b4" d="M131.9,190.1c-0.1,0-0.3,0-0.4,0c-11.9-2.6-33.8,0-34,0c-1,0.1-1.9-0.5-2.3-1.5c-0.2,0.4-0.3,0.9-0.2,1.4     c0.1,1.4,1.3,2.4,2.5,2.3c0.2,0,22.2-2.7,34,0c0.1,0,0.3,0,0.4,0c1.1,0,2-0.8,2.2-2.1c0.1-0.6,0-1.1-0.2-1.6     C133.6,189.5,132.8,190.1,131.9,190.1z" opacity=".8" class="colorb4b4b4 svgShape"/></g><g fill="#000000" class="color000 svgShape"><path fill="#ffa30f" d="M104.9 239.6c.5.3 1 .7 1.4 1.1.6.7 1 1.6 1.1 2.6.1.9 0 1.7-.3 2.4 1.7-.4 3.3-1 4.9-1.6.1-.8.1-1.6 0-2.4-.3-2.4-1.6-4.2-3.3-5.6C107.5 237.3 106.2 238.5 104.9 239.6zM96.3 243.7c-.7-.7-1.5-1.4-3.4-1.1-1.8.2-2.6 1.3-2.4 3.3 1.8-.4 3.6-.9 5.3-1.5C96 244.2 96.2 243.9 96.3 243.7z" class="colore3b323 svgShape"/><path fill="#ffa30f" d="M102.1 238.3c1 .3 1.9.8 2.7 1.3 1.4-1 2.6-2.2 3.8-3.5-.7-.5-1.4-.9-2.2-1.3-.9-.4-1.9-.8-2.9-1.1-1.3 1.7-2.9 3.1-4.6 4.3l.6 4.9c1.1-.5 2.1-1.1 3.1-1.7L102.1 238.3zM95.4 246.5c-.1-.9.1-1.6.4-2.1-1.7.6-3.5 1.1-5.3 1.5 0 .1 0 .2 0 .3.1.6.2 1.1.5 1.6 1.6-.1 3.2-.2 4.8-.4C95.6 247.2 95.5 246.8 95.4 246.5z" class="colore3b323 svgShape"/><path fill="#ffa30f" d="M111.9 244.1c-1.6.6-3.2 1.2-4.9 1.6-.6 1.4-1.9 2.4-3.7 2.9l-.2-2.1c-1.1.2-2.1.4-3.2.5l.2 2c-2.2 0-3.7-.6-4.3-1.6-1.6.1-3.2.3-4.8.4 1.4 2.5 5.1 4.1 9.4 3.9l.2 2.1 3.2-.4-.2-2.1C108.5 250.2 111.4 247.6 111.9 244.1zM106.6 228.1c.2 0 .5 0 .8 0 1.9-.2 2.7-1.4 2.4-3.6-.2-1.4-1-2.6-2.3-3.6C107.7 223.3 107.4 225.8 106.6 228.1z" class="colore3b323 svgShape"/><path fill="#ffa30f" d="M103.1 246.5l-.6-5.3c-1 .6-2 1.2-3.1 1.7l.5 4.1C101 246.9 102 246.7 103.1 246.5zM103.5 233.7c-.1 0-.2-.1-.3-.1-.5-.1-1.1-.3-1.6-.4l-1.3-11.6c2.9 0 4.5 1.1 4.7 2.5.2 1.4-.4 2.3-.9 2.8.6.6 1.3 1.2 2.6 1.2.8-2.3 1.1-4.8.9-7.2-1.8-1.3-4.6-2.1-7.6-1.9l-.2-2.1-3.2.4.2 2.1c-5.9 1.3-8.9 4.9-8.3 9.7.5 4 3.4 6.2 7.3 7.4 1 .3 2 .6 3.2.9l.1.8C100.6 236.8 102.2 235.4 103.5 233.7zM93 227.4c-.3-2.7 1.2-4.5 4-5.3l1.2 10.2C95.6 231.4 93.3 230.1 93 227.4z" class="colore3b323 svgShape"/></g></g><g fill="#000000" class="color000 svgShape"><path fill="#ba8132" d="M242.1 180.4h-61.2c-.1 0-.2-.1-.2-.2v-2.5c0-.1.1-.2.2-.2h61.2c.1 0 .2.1.2.2v2.5C242.2 180.3 242.2 180.4 242.1 180.4zM242.1 291.4h-61.2c-.1 0-.2-.1-.2-.2v-2.5c0-.1.1-.2.2-.2h61.2c.1 0 .2.1.2.2v2.5C242.2 291.3 242.2 291.4 242.1 291.4z" opacity=".5" class="color32ba99 svgShape"/><path fill="#c9a777" d="M231.4,255.4c-2.4-3.9-5.6-6.6-9.1-9.5c-2.6-2.1-9-7.4-8.8-11.4c-0.2-4.1,6.2-9.3,8.8-11.4    c3.5-2.9,6.7-5.6,9.1-9.5c2.3-3.8,3.9-8,5-12.3c0.3-1.3,3.3-20.8,2.5-20.8c0,0-27.4,0-27.4,0s-27.4,0-27.4,0    c-0.8,0,2.2,19.6,2.5,20.8c1.1,4.3,2.6,8.5,5,12.3c2.4,3.9,5.6,6.6,9.1,9.5c2.6,2.1,9,7.4,8.8,11.4c0.2,4.1-6.2,9.3-8.8,11.4    c-3.5,2.9-6.7,5.6-9.1,9.5c-2.3,3.8-3.9,8-5,12.3c-0.3,1.3-3.3,20.8-2.5,20.8c0,0,27.4,0,27.4,0s27.4,0,27.4,0    c0.8,0-2.2-19.6-2.5-20.8C235.3,263.4,233.8,259.2,231.4,255.4z" opacity=".5" class="color77c9b3 svgShape"/><path fill="#d5a766" d="M221.7,221.2c3.3-2.8,6.3-5.3,8.5-9.1c2.2-3.6,3.7-7.7,4.7-11.8c0.1-0.3,0.3-1.5,0.5-3.1    c-2.2-0.1-4.4,0.1-6.6,0.4c-4.1,0.6-8.1,1.6-12.2,1.7c-5.9,0.2-11.6-1.4-17.3-3c-4.1-1.1-8.2-2.3-12.3-3.4c0.5,3.7,1,6.9,1.1,7.3    c1,4.1,2.5,8.2,4.7,11.8c2.3,3.8,5.2,6.3,8.5,9.1c2.4,2.1,9.5,7.1,9.3,10.9v30.6c-17.2,0.8-21.6,25.8-21.6,25.8h22.5H234    c0,0-4.4-25-21.6-25.8v-30.6C212.2,228.3,219.3,223.3,221.7,221.2z" class="colord58466 svgShape"/><path fill="#ba8132" d="M193.2,267.7c1.1-4.3,2.6-8.5,5-12.3c2.4-3.9,5.6-6.6,9.1-9.5c1.8-1.5,5.6-4.6,7.5-7.7    c-0.8-1.3-1.3-2.5-1.2-3.7c-0.1-1.2,0.4-2.4,1.2-3.7c-2-3.1-5.7-6.2-7.5-7.7c-3.5-2.9-6.7-5.6-9.1-9.5c-2.3-3.8-3.9-8-5-12.3    c-0.3-1.3-3.3-20.8-2.5-20.8c-3.8,0-6.6,0-6.6,0c-0.8,0,2.2,19.6,2.5,20.8c1.1,4.3,2.6,8.5,5,12.3c2.4,3.9,5.6,6.6,9.1,9.5    c2.6,2.1,9,7.4,8.8,11.4c0.2,4.1-6.2,9.3-8.8,11.4c-3.5,2.9-6.7,5.6-9.1,9.5c-2.3,3.8-3.9,8-5,12.3c-0.3,1.3-3.3,20.8-2.5,20.8    c0,0,2.8,0,6.6,0C189.9,288.5,192.9,268.9,193.2,267.7z" opacity=".5" class="color32ba99 svgShape"/><path fill="#eae2d6" d="M231.4,255.4c-2.4-3.9-5.6-6.6-9.1-9.5c-2.6-2.1-9-7.4-8.8-11.4c-0.2-4.1,6.2-9.3,8.8-11.4    c3.5-2.9,6.7-5.6,9.1-9.5c2.3-3.8,3.9-8,5-12.3c0.3-1.3,3.3-20.8,2.5-20.8c0,0-0.4,0-1.1,0c0.8,0-2.2,19.6-2.5,20.8    c-1.1,4.3-2.6,8.5-5,12.3c-2.4,3.9-5.6,6.6-9.1,9.5c-2.6,2.1-9,7.4-8.8,11.4c-0.2,4.1,6.2,9.3,8.8,11.4c3.5,2.9,6.7,5.6,9.1,9.5    c2.3,3.8,3.9,8,5,12.3c0.3,1.3,3.3,20.8,2.5,20.8c0.7,0,1.1,0,1.1,0c0.8,0-2.2-19.6-2.5-20.8C235.3,263.4,233.8,259.2,231.4,255.4    z" opacity=".5" class="colorded6ea svgShape"/></g><g fill="#000000" class="color000 svgShape"><path fill="#ffbf66" d="M200.8,170.7c0.3-0.4,3.7-0.1,3.8,0.1c0.1,0.6,0.3,3.1-0.1,3.4c-0.3,0.3-3.3,1-3.3,0.4    C201.1,174,200.5,171.1,200.8,170.7z" class="colorf5af86 svgShape"/><path fill="#0b0a08" d="M204.7,173.5c0,0,1.6,2.3,0.5,4.1c0,0-8.3,0.4-10.8,0c0,0-0.1-3,2.1-3.3c2.1-0.3,4.5-0.2,4.5-0.2    S203.2,175.2,204.7,173.5z" class="color08090b svgShape"/><path fill="#ffbf66" d="M219.5,170.7c0.3-0.4,3.3-0.1,3.3,0.1c0.1,0.6,0.3,3.1-0.1,3.4c-0.3,0.3-2.9,1.3-3,0.7    C219.7,174.4,219.2,171.1,219.5,170.7z" class="colorf5af86 svgShape"/><path fill="#0b0a08" d="M204.6,141.3c-0.4,4.9,0,14.7,0.4,19.5c0,0.3,0,11.6,0,11.6l-4.6,0.4c-2.5-7.4-7.2-24.1-7.2-31.5    s0.6-19.7,3.4-25.5c2.6-5.6,12.8,2.1,14,3.5c0.6,0.6-0.5,6.3-1.9,10C206.9,133.7,204.8,138.7,204.6,141.3z" class="color08090b svgShape"/><path fill="#0b0a08" d="M205.3,160.8c-0.3-4.9-1.1-14.6-0.7-19.5c0.2-2.6,3.4-10.1,5.1-14.5c-0.4-1.3,0.1-4.2-1-4.9    c-0.9-0.6-4.5,3.4-4.9,4.6c-0.3,0.9,0.3,2.1,0.3,3.1c0.1,1.7-0.3,3.4-1.1,4.9c-1.3,2.2-2.8,4-3.5,6.5c-1.4,4.9-0.3,10,0.9,14.9    c0.7,3,1.5,6.1,1.7,9.3c0.1,1.8,0.4,5.8,0.1,7.5l2.8-0.3C205,172.5,205.6,165.7,205.3,160.8z" class="color08090b svgShape"/><path fill="#0b0a08" d="M223.2,172.5l-4.1,0.4c-2.1-7-7.8-19-8.6-26.3c-1.3-11.4-2.8-23.6-2.9-26.6c0-0.5,0-0.7,0-0.7    c2.8-3.4,7.5-4.8,9.6-5c0.8-0.1,1.4,0.1,1.7,0.5c0.9,1.4,1.5,2.8,2,4c3.4,8.1,0.5,12.9,0.6,23.4c0,0.6,0,1.2,0,1.8    c0.1,4.3-1.1,9.7,0.2,14.2C224.2,167.1,223.2,172.5,223.2,172.5z" class="color08090b svgShape"/><path fill="#ffbf66" d="M197.8,103.6c0,0.1,0,0.1,0,0.2c0,0.5-0.1,0.9-0.2,1.4c-0.1,0.3-0.2,0.7-0.3,1.1c-0.1,0.2-0.1,0.4-0.2,0.7    c-0.8,2.1-3.3,7.2-7.5,7.2c-3.5,0-14.1-8.5-15.4-11c-0.4-0.8,1.7-0.9,1.7-0.9c0.1,0,1.3,0.5,2.2,0.8c3.2,1.1,10.4,4,10.7,3.5    c0.2-0.4,0.2-2.1,0.1-4.5v0c0-0.1,0-0.3,0-0.5c0-0.2,0-0.5,0-0.7c0,0,0,0,0-0.1c-0.1-4.7,0.5-9.8,2.1-12.2    c1.6-2.3,5.3,8.5,5.3,8.5s0.6,0.8,1.2,2.2C197.9,100.5,198,101.6,197.8,103.6z" class="colorf5af86 svgShape"/><path fill="#e4a650" d="M198.2,105.5c0.2-1.2,0.7-2.6,1.1-4c0.1-0.5,0.3-1,0.4-1.5c0.1-0.7,0.2-1.3,0.2-1.8c0-0.2-0.1-0.5-0.1-0.6    c-0.2-0.4-0.8-1.5-1.7-2.9c-2.4-3.6-6.2-8.1-7.5-6.5c-2.2,2.7-2.4,8.3-2.8,12.8C189.6,104,193.3,106.2,198.2,105.5z" class="color50b2e4 svgShape"/><path fill="#0b0a08" d="M222.5,157.9c-0.7-4.6-0.9-9.6-1-13.9c0-0.6,0-1.2,0-1.8c-0.1-10.5,2.8-15.6-0.6-23.7c0-1.6-3.8-2.4-3.8-1.4    c0,1.2,0.1,2.4,0.3,3.5c0.3,2,0.8,4.1,0.5,6.2c-0.5,3.3-1.5,6.3-1.7,9.6c-0.4,6.1,1,11.7,3.1,17.3c1.3,3.5,2.3,7,2.7,10.7    c0.3,2.4,0.3,5.7,0.3,8.1l0.9-0.1C223.2,172.5,224.2,169.1,222.5,157.9z" class="color08090b svgShape"/><path fill="#eeb463" d="M190.8,88.4c0,0-0.8,2.8,0.5,6.8c0.3,1.1,3.5,8.2,4.3,10.7c0.5-0.5,3.7-2.2,3.9-2.6l-6.3-8.8L190.8,88.4z" class="color63c2ee svgShape"/><path fill="#e4a650" d="M221.9,117.4c0,0.7-2.4,2.1-6,2.9c-2,0.5-4.5,0.8-7.1,0.7c-5.6-0.2-13.1-3.3-13.6-4    c-0.6-2.8,2.7-8.8,1.5-12.6c-0.4-1.2-1.3-2.9-2.2-4.9c-2.1-4.2-4.5-8.8-3.8-11.5c3.3-2.9,11.5-5.2,16.8-4.4    c0.9,0.1,1.7,0.4,2.2,0.8c0.1,0.1,0.2,0.2,0.4,0.3c0.4,0.4,0.9,1.1,1.5,2c1.6,2.6,3.7,7,5.3,11.5    C218.8,103.7,221.9,116.4,221.9,117.4z" class="color50b2e4 svgShape"/><path fill="#ffbf66" d="M195.7,82.9v2.3c0,0-0.6,1.3,0,1.4c2,0.3,3.2-2.3,3.2-2.3v-2.7L195.7,82.9z" class="colorf5af86 svgShape"/><path fill="#ffbf66" d="M198.8,83.2v-1.4c0,0-1.6,1.4-3.1,1.5C195.7,83.3,197.5,84,198.8,83.2z" class="colorf5af86 svgShape"/><path fill="#ffbf66" d="M194.9,76.5c0,0-1,2-1.3,4.2c-0.2,1.6,2.5,4,4.8,1.8c2.3-2.2,1.7-5.6,1.7-5.6L194.9,76.5z" class="colorf5af86 svgShape"/><path fill="#0b0a08" d="M200.7,79.4c0,0,0-0.1,0.1-0.2c0.2-0.6,0.1-1.2-0.3-1.6c-0.2-0.2-0.4-0.2-0.6,0c0,0,0,0,0,0    c-0.7-0.1-0.7,0.8-0.8,1.2c-0.2,0.7-0.6,1.6-0.4,2.4c0.2,0.5,0.7,0.8,1.2,0.7c0.6-0.2,0.6-0.8,0.8-1.3c0.1-0.3,0.2-0.5,0.1-0.8    C200.8,79.6,200.7,79.5,200.7,79.4z" class="color08090b svgShape"/><path fill="#0b0a08" d="M193.7 74.9c-.7.7-.4 2 .1 2.6 1.7 1.5 2.9.4 3.5.8 1 .5 2.2 1.7 2.9.1C201.5 75.7 195.3 73.4 193.7 74.9zM223 173.5c0 0 1.6 2.3.5 4.1 0 0-8.3.4-10.8 0 0 0-.1-3 2.1-3.3 2.1-.3 4.9-.4 4.9-.4S221.5 175.2 223 173.5z" class="color08090b svgShape"/><path fill="#eeb463" d="M216.8,98.3c-1.6-4.5-3.6-8.9-5.3-11.5c-1,0-2,0.4-2.5,1.3c-0.6,1-0.3,2.1,0.6,2.6c0,0.1,0,0.1,0,0.2    c2.6,4.5,3.5,9.7,4.2,14.7c0.7,4.9,1.3,9.7,2,14.6c3.6-0.8,6-2.2,6-2.9C221.9,116.4,218.8,103.7,216.8,98.3z" class="color63c2ee svgShape"/><path fill="#ffbf66" d="M206.5,104.9c-0.4,0.5-0.9,1-1.3,1.5c-0.2,0.2-0.4,0.4-0.6,0.6c-1.8,1.8-3.6,3.4-5,4.3    c-0.7,0.5-1.3,0.8-1.8,0.9c-4.1,1-9.8-0.8-12.4-1.7c-0.9-0.3-1.4-0.5-1.4-0.5l-0.7-3c0,0,11-0.5,11.6-0.8c1.3-0.7,7.3-8.1,7-10.2    c-0.4-2,7.2-1,8.7,0.2C212.2,97.3,209.8,101.2,206.5,104.9z" class="colorf5af86 svgShape"/><path fill="#ffbf66" d="M209.5,99.8c-1.5,0-2.9-0.3-4.3-0.8c-0.1-0.3-0.2-0.6-0.3-0.9c-0.2-0.5-0.9-0.2-0.7,0.3    c1.9,4.9-4.8,13-4.6,13c1.4-0.9,3.3-2.5,5-4.3c0.2-0.2,0.4-0.4,0.6-0.6c0.5-0.5,0.9-1,1.3-1.5c1.2-1.4,2.4-3,3.4-4.6    C210.1,100.1,209.8,99.8,209.5,99.8z" class="colorf5af86 svgShape"/><path fill="#e4a650" d="M200.8,97.2c0.1-0.9,0.6-6.7,3.4-9.7c1.2-1.4,5.1-3.7,6.9-2.3c3,2.3,1.9,9.5,0.9,14.6    C208.4,100.8,204.3,99.7,200.8,97.2z" class="color50b2e4 svgShape"/><path fill="#f1b35c" d="M174.5,106.3l-10.5,6.6l4.5,11.8c0.3,0.5,3.8-1.2,7.9-3.8c4.1-2.6,7.1-5,6.8-5.5L174.5,106.3z" class="colorf15c70 svgShape"/><path fill="#e5a955" d="M174.5,106.3c0.2,0.3-2,2-4.9,3.8c-2.9,1.8-5.4,3.1-5.6,2.8c-0.2-0.3,2-2,4.9-3.8S174.3,106,174.5,106.3z" class="colore55565 svgShape"/><path fill="#f1b35c" d="M179.2,114.4l-0.4-1c2.2-0.9,4.1-2.2,4.2-2.6c-0.1-0.8-2.1-3.8-3.5-4.7c-0.3-0.2-0.4-0.2-0.5-0.2     c-0.8,0.3-2.3,2.2-3,3.4l-0.9-0.6c0.2-0.3,2.1-3.3,3.6-3.8c0.4-0.2,0.9-0.1,1.4,0.2c1.6,1,3.9,4.2,4,5.5     C184.2,112,181.1,113.6,179.2,114.4z" class="colorf15c70 svgShape"/><polygon fill="#f1b35c" points="155.9 116.8 166.6 117.9 168.3 121.6 155.8 117.7" class="colorf15c70 svgShape"/><path fill="#f1b35c" d="M154.5,115c1.2,0.1,2.2,1.2,2,2.5c-0.1,1.2-1.2,2.2-2.5,2c0.3,0,0.6-1,0.7-2.2     C154.9,116.1,154.8,115,154.5,115z" class="colorf15c70 svgShape"/><path fill="#e5a955" d="M154.5,115c0.3,0,0.4,1.1,0.3,2.3c-0.1,1.2-0.4,2.2-0.7,2.2c-0.3,0-0.4-1.1-0.3-2.3     C153.9,116,154.2,115,154.5,115z" class="colore55565 svgShape"/><g fill="#000000" class="color000 svgShape"><path fill="#efb564" d="M151.7 119.6c-.2 0-.4-.1-.5-.3-.1-.3 0-.6.3-.7.3-.1.5-.2.5-.2.3-.1.6.1.6.3.1.3-.1.6-.3.6 0 0-.2.1-.4.2C151.8 119.6 151.8 119.6 151.7 119.6zM139.2 132.6c-.1 0-.1 0-.2 0-.3-.1-.4-.4-.3-.7.1-.3.2-.6.4-.9.1-.3.4-.4.7-.3.3.1.4.4.3.7-.1.3-.2.6-.4.8C139.6 132.5 139.4 132.6 139.2 132.6zM141.3 128.5c-.1 0-.2 0-.3-.1-.2-.2-.3-.5-.2-.7.2-.3.3-.5.5-.8.2-.2.5-.3.7-.1.2.2.3.5.1.7-.2.2-.3.5-.5.8C141.6 128.4 141.5 128.5 141.3 128.5zM144.2 124.9c-.1 0-.3 0-.4-.1-.2-.2-.2-.5 0-.7.2-.2.4-.5.7-.7.2-.2.5-.2.7 0 .2.2.2.5 0 .7-.2.2-.4.4-.6.6C144.4 124.8 144.3 124.9 144.2 124.9zM147.7 121.8c-.2 0-.3-.1-.4-.2-.2-.2-.1-.6.1-.7.3-.2.5-.4.8-.5.2-.2.6-.1.7.2.2.2.1.6-.2.7-.2.2-.5.3-.7.5C147.9 121.8 147.8 121.8 147.7 121.8zM138 136.7c0 0-.1 0-.1 0-.3-.1-.4-.3-.4-.6 0-.2.1-.3.1-.5.1-.3.3-.4.6-.4.3.1.4.3.4.6 0 .2-.1.3-.1.5C138.4 136.5 138.2 136.7 138 136.7z" class="color64c4ef svgShape"/><g fill="#000000" class="color000 svgShape"><path fill="#efb564" d="M151 117.1c-.3 0-.5-.2-.5-.5 0-.3.2-.5.5-.5.4 0 .5 0 .5 0 .3 0 .5.2.5.5 0 .3-.2.5-.5.5C151.5 117.1 151.3 117.1 151 117.1 151 117.1 151 117.1 151 117.1zM133.3 126.4c-.1 0-.2 0-.3-.1-.2-.2-.3-.5-.1-.7.2-.3.4-.6.6-.8.2-.2.5-.3.7-.1.2.2.3.5.1.7-.2.3-.4.5-.6.8C133.7 126.3 133.5 126.4 133.3 126.4zM136.8 122.6c-.1 0-.3-.1-.4-.2-.2-.2-.2-.5.1-.7.3-.2.5-.4.8-.7.2-.2.5-.1.7.1.2.2.1.5-.1.7-.3.2-.5.4-.8.6C137 122.5 136.9 122.6 136.8 122.6zM141.1 119.7c-.2 0-.4-.1-.5-.3-.1-.3 0-.6.2-.7.3-.2.6-.3 1-.5.3-.1.6 0 .7.3.1.3 0 .6-.3.7-.3.1-.6.3-.9.4C141.3 119.7 141.2 119.7 141.1 119.7zM145.9 117.9c-.2 0-.4-.2-.5-.4-.1-.3.1-.6.4-.6.3-.1.7-.2 1-.2.3-.1.6.1.6.4.1.3-.1.6-.4.6-.3.1-.6.2-1 .2C146 117.9 146 117.9 145.9 117.9zM131.1 130.4c-.1 0-.1 0-.2 0-.3-.1-.4-.4-.3-.7.1-.2.1-.3.2-.5.1-.3.4-.4.7-.3.3.1.4.4.3.7-.1.2-.1.3-.2.5C131.5 130.3 131.3 130.4 131.1 130.4z" class="color64c4ef svgShape"/></g><g fill="#000000" class="color000 svgShape"><path fill="#efb564" d="M150.7 125.2c-.1 0-.2 0-.3-.1-.2-.2-.2-.5-.1-.7.2-.3.4-.4.4-.4.2-.2.5-.2.7 0 .2.2.2.5 0 .7 0 0-.1.1-.3.4C151 125.1 150.9 125.2 150.7 125.2zM147.8 129.7c-.1 0-.1 0-.2 0-.3-.1-.4-.4-.3-.7.2-.3.3-.7.5-1 .1-.2.4-.3.7-.2.2.1.3.4.2.7-.2.3-.3.6-.5.9C148.2 129.6 148 129.7 147.8 129.7zM146.7 134.4c-.3 0-.5-.2-.5-.5 0-.2 0-.4 0-.5 0-.3.3-.5.5-.5.3 0 .5.3.5.5 0 .2 0 .3 0 .5C147.2 134.1 147 134.4 146.7 134.4 146.7 134.4 146.7 134.4 146.7 134.4z" class="color64c4ef svgShape"/></g></g><g fill="#000000" class="color000 svgShape"><path fill="#ffbf66" d="M183.5,106.8c-1.3-0.5-3.5-0.7-4.6,0.4c-0.5,0.5-0.2,0.9,0.4,0.6c1.3-0.5,2.3-0.4,0.3,0.2     c-0.4,0.1-1.1,0.6-1,0.8c0.2,0.6,1.5,0,2.1-0.2c0.5,0.1-0.8,0.8-1,1c-0.7,1.2,1.9,0,2,0.2c0.4,0.4-1.4,0.9-0.6,1.3     c0.6,0.3,2.1-0.9,2.7-1c0.5-0.1,0.8,0.2,1.2-0.3C185.9,109,184.1,107.1,183.5,106.8z" class="colorf5af86 svgShape"/><path fill="#ffbf66" d="M184.1,107.2c-0.3-0.4-1.2-1.5-1.7-1.6c-0.3-0.1-0.7,0-0.5,0.4c0.1,0.2,0.4,0.5,0.6,0.6     c0.2,0.1,0.4,0.3,0.6,0.5C183.2,107.1,184.1,107.3,184.1,107.2z" class="colorf5af86 svgShape"/></g><g fill="#000000" class="color000 svgShape"><path fill="#ffbf66" d="M175.8,104.2c-0.4,0.3-0.6,0-1-0.1c-0.5-0.1-2.1,0.5-2.5,0.1c-0.6-0.5,1.1-0.4,0.9-0.8     c-0.1-0.1-2.6,0.2-1.6-0.6c0.2-0.2,1.6-0.4,1.2-0.6c-0.6,0-1.8,0.2-1.8-0.3c0-0.2,0.8-0.4,1.1-0.4c1.8,0,1-0.3-0.2-0.2     c-0.6,0-0.8-0.3-0.1-0.6c1.3-0.6,3,0,3.9,0.7C176,101.7,176.8,103.6,175.8,104.2z" class="colorf5af86 svgShape"/><path fill="#ffbf66" d="M175.1,101.4c-0.1-0.1-0.2-0.3-0.3-0.5c-0.1-0.2-0.3-0.4-0.3-0.6c0-0.3,0.3-0.3,0.5-0.2     c0.4,0.2,0.7,1.2,0.8,1.6C175.9,101.9,175.2,101.6,175.1,101.4z" class="colorf5af86 svgShape"/></g></g></svg>