<svg xmlns="http://www.w3.org/2000/svg" xmlns:xlink="http://www.w3.org/1999/xlink" viewBox="0 0 1327.9 2000"><ellipse cx="941.5" cy="1221.5" fill="#492e09" rx="197.3" ry="114.3" transform="matrix(1 -.00283 .00283 1 -3.459 2.674)" class="color092749 svgShape"/><ellipse cx="941.8" cy="1173.2" fill="#e6cfae" rx="180.8" ry="104.7" transform="matrix(1 -.00284 .00284 1 -3.322 2.675)" class="colorAEC7E6 svgShape"/><path fill="#d1d1d1" d="M1046.5 1679.7c56 32.3 56.3 84.8.7 117.1-55.7 32.3-146.2 32.3-202.2 0s-56.3-84.8-.7-117.1c55.7-32.4 146.2-32.4 202.2 0z" class="colorD1D1D1 svgShape"/><path fill="#f2ce9b" d="M1088.7 1074.8v663.4c.1 21.2-13.7 42.4-41.5 58.6l-1.5.9c-55.8 31.5-145.2 31.2-200.7-.9-28.8-16.6-42.8-38.5-42.2-60.3v-661.7c0-79 64-143 142.9-143 38.9 0 74.1 15.5 99.9 40.7 26.6 26 43.1 62.3 43.1 102.3z" class="colorF2A29B svgShape"/><path fill="#f2ce9b" d="m1045.7 972.5 2 155.3-2 669.8c-55.8 31.5-145.2 31.2-200.7-.9-28.8-16.6-42.8-38.5-42.2-60.3v-661.7c0-79 64-143 142.9-143 38.9.1 74.2 15.7 100 40.8z" class="colorF2A29B svgShape"/><path fill="#f5ebdc" d="M823.1 1892.1c.3.2.7.3 1 .5.7.4 1.4.7 2.1 1.1.8.4 1.6.9 2.5 1.3.6.3 1.3.6 1.9.9.7.4 1.5.7 2.2 1.1.5.2 1 .5 1.5.7 1.1.5 2.2 1 3.3 1.4.6.3 1.3.6 1.9.8l.6.3 6 2.4h.1l.9.3c1.7.6 3.4 1.3 5.1 1.9l.9.3c.8.3 1.7.6 2.5.8 1 .3 2 .7 3 1 .6.2 1.1.3 1.7.5.9.3 1.8.6 2.8.8l2.1.6c.9.2 1.7.5 2.6.7.9.3 1.9.5 2.8.8.5.1.9.3 1.4.4 1.2.3 2.5.6 3.7.9l2.4.6c.2.1.5.1.7.2 2.3.5 4.5 1 6.8 1.5h.1c.2 0 .4.1.6.1 2 .4 4.1.8 6.1 1.2.3.1.6.1 1 .2.8.1 1.6.3 2.3.4l3.3.6 2.1.3c.9.1 1.7.3 2.6.4.6.1 1.3.2 1.9.3 1.3.2 2.5.3 3.8.5l2.1.3c.2 0 .5.1.7.1 2.3.2 4.5.5 6.8.7h.3c.6.1 1.2.1 1.8.1 1.8.1 3.6.3 5.4.4h.8c1.4.1 2.9.1 4.3.2 1.2.1 2.3.1 3.5.2h.6c3.8.1 7.6.2 11.3.1h1c1 0 1.9 0 2.9-.1 1.6 0 3.1-.1 4.7-.1 1.4 0 2.8-.1 4.2-.2 1.5-.1 3.1-.1 4.6-.2.5 0 1 0 1.5-.1.5 0 1-.1 1.5-.1 4.2-.3 8.4-.7 12.6-1.1h.1c3-.3 5.9-.7 8.9-1.1.1 0 .3 0 .4-.1 2.1-.3 4.3-.7 6.4-1 .4-.1.8-.1 1.3-.2h.1c2.5-.4 5-.9 7.5-1.4.1 0 .2-.1.4-.1.8-.2 1.5-.3 2.3-.5 1.6-.3 3.1-.6 4.7-1 .3-.1.6-.1.9-.2 1-.2 2.1-.5 3.1-.7 1.1-.3 2.3-.5 3.4-.8l1.2-.3 3.3-.9c.9-.3 1.9-.5 2.8-.8.5-.2 1-.3 1.6-.5 1.1-.3 2.3-.7 3.4-1 .8-.2 1.6-.5 2.4-.7l1.8-.6c1.1-.4 2.2-.7 3.3-1.1.7-.2 1.4-.5 2-.7.7-.3 1.4-.5 2.1-.8 1-.4 2.1-.8 3.1-1.2.5-.2 1.1-.4 1.6-.6.9-.3 1.7-.7 2.6-1.1.9-.4 1.9-.8 2.8-1.2.4-.2.8-.3 1.1-.5 1.1-.5 2.2-1 3.4-1.5.8-.3 1.5-.7 2.3-1l.6-.3c2-.9 3.9-1.9 5.8-2.9h.1c.1-.1.3-.1.4-.2 1.7-.9 3.5-1.8 5.1-2.8.4-.2.8-.5 1.3-.7 1.4-.8 2.7-1.6 4-2.4l1.5-.9c.7-.4 1.3-.8 2-1.3.5-.3 1-.7 1.5-1 .8-.5 1.6-1.1 2.3-1.6.6-.4 1.1-.8 1.7-1.2.2-.2.5-.3.7-.5 1.5-1.1 3-2.2 4.5-3.4 1.5-1.2 2.9-2.3 4.3-3.5l.5-.5c.5-.4 1-.9 1.4-1.3l2.1-1.8c.3-.3.6-.6 1-.9.6-.5 1.1-1.1 1.7-1.7.4-.4.9-.8 1.3-1.3s.8-.9 1.3-1.4c.5-.6 1.1-1.1 1.6-1.7.3-.3.6-.6.8-.9.5-.5.9-1.1 1.4-1.6.6-.7 1.1-1.4 1.7-2 .2-.2.4-.5.6-.7.4-.6.8-1.2 1.3-1.7.5-.7 1.1-1.5 1.6-2.3.2-.2.3-.4.5-.7.4-.5.6-1.1 1-1.6.6-.9 1.2-1.8 1.7-2.8.2-.3.3-.5.5-.8l.6-1.2c.7-1.2 1.3-2.4 1.9-3.6.2-.4.4-.7.6-1.1.2-.5.4-1 .7-1.5.2-.4.3-.8.5-1.2.6-1.4 1.1-2.8 1.6-4.2v-.1c.1-.4.2-.8.4-1.2.4-1.2.7-2.4 1-3.6.1-.6.3-1.2.4-1.8.2-.8.4-1.6.5-2.3 0-.2 0-.4.1-.6.2-1.2.4-2.4.5-3.6.1-.6.2-1.2.2-1.8.2-1.8.2-3.6.2-5.4l-4.5-642c0 1.8-.1 3.6-.2 5.4-.1.6-.1 1.2-.2 1.8-.1 1.2-.3 2.4-.5 3.6-.2 1-.4 2-.6 2.9-.1.6-.2 1.2-.4 1.8-.3 1.2-.7 2.4-1 3.6-.1.4-.2.8-.4 1.2-.5 1.5-1.1 2.9-1.7 4.4-.2.4-.3.8-.5 1.2-.4.9-.8 1.7-1.2 2.6-.6 1.2-1.2 2.4-1.9 3.6-.4.7-.7 1.3-1.1 2-.5.9-1.1 1.9-1.7 2.8-.5.7-.9 1.5-1.5 2.2-.5.8-1.1 1.5-1.6 2.3-.6.8-1.2 1.6-1.8 2.5-.5.7-1.1 1.4-1.7 2-.7.9-1.4 1.7-2.2 2.5-.5.6-1 1.1-1.6 1.7-.8.9-1.7 1.8-2.5 2.6-.6.6-1.1 1.1-1.7 1.6-1 .9-2 1.9-3 2.8-.5.4-1 .9-1.5 1.3-1.5 1.3-3.1 2.7-4.8 4-1.7 1.3-3.4 2.6-5.1 3.8-.6.4-1.1.8-1.7 1.2-1.3.9-2.6 1.7-3.9 2.6-.7.4-1.3.8-2 1.3-1.8 1.1-3.6 2.2-5.5 3.3-2.1 1.2-4.2 2.4-6.4 3.5-.1.1-.3.2-.4.2-2.1 1.1-4.3 2.2-6.5 3.2-.8.4-1.5.7-2.3 1-1.5.7-3 1.4-4.5 2-.9.4-1.9.8-2.8 1.2-1.4.6-2.8 1.1-4.2 1.7-1 .4-2.1.8-3.1 1.2l-4.2 1.5c-1.1.4-2.2.8-3.3 1.1-1.4.5-2.8.9-4.2 1.4-1.1.4-2.3.7-3.4 1.1-1.4.4-2.9.8-4.4 1.2l-3.3.9c-1.5.4-3.1.8-4.7 1.2-1 .3-2.1.5-3.1.8-1.8.4-3.7.8-5.5 1.2-.8.2-1.5.3-2.3.5-2.6.5-5.3 1-7.9 1.5-.4.1-.8.1-1.3.2-2.3.4-4.5.7-6.8 1.1-2.9.4-5.9.8-8.9 1.1h-.1c-4.2.5-8.4.8-12.6 1.1-1 .1-2 .1-3 .2-1.5.1-3.1.2-4.6.2-1.4.1-2.8.1-4.2.2-1.6.1-3.1.1-4.7.1-1.3 0-2.6 0-3.8.1-3.8 0-7.6 0-11.3-.1-1.4 0-2.7-.1-4.1-.2-1.4-.1-2.9-.1-4.3-.2-2.1-.1-4.1-.3-6.2-.4-.6 0-1.2-.1-1.8-.1-2.6-.2-5.2-.5-7.8-.8l-2.1-.3c-1.9-.2-3.8-.5-5.7-.7-.9-.1-1.7-.2-2.6-.4-1.8-.3-3.6-.6-5.5-.9-.8-.1-1.6-.3-2.3-.4-2.4-.4-4.7-.9-7.1-1.3-.2 0-.4-.1-.6-.1-2.5-.5-5.1-1.1-7.6-1.7l-2.4-.6c-1.7-.4-3.4-.8-5.1-1.3-.9-.2-1.9-.5-2.8-.8-1.6-.4-3.1-.9-4.7-1.3-.9-.3-1.8-.6-2.8-.8l-4.8-1.5c-.8-.3-1.7-.5-2.5-.8-2-.7-4.1-1.4-6.1-2.2l-.9-.3c-2.3-.9-4.6-1.8-6.8-2.7-.6-.3-1.3-.6-1.9-.8-1.6-.7-3.2-1.4-4.7-2.1-.8-.4-1.5-.7-2.3-1.1-1.5-.7-2.9-1.4-4.4-2.2-.7-.4-1.4-.7-2.1-1.1-2-1.1-4.1-2.2-6-3.3-2.1-1.2-4.1-2.4-6-3.7-.6-.4-1.1-.7-1.6-1.1-1.3-.9-2.6-1.7-3.9-2.6-.7-.5-1.4-1-2.2-1.6-1.1-.8-2.1-1.6-3.1-2.3-.8-.6-1.5-1.2-2.2-1.8-.9-.7-1.8-1.5-2.7-2.3l-2.4-2.1c-.8-.7-1.5-1.4-2.3-2.1-.9-.8-1.7-1.7-2.6-2.6-.7-.7-1.3-1.3-1.9-2-1-1.1-1.9-2.1-2.9-3.2-.5-.6-1-1.2-1.5-1.7-1.5-1.9-2.9-3.7-4.3-5.6-1-1.5-2-2.9-2.9-4.4v-.1c-.9-1.5-1.8-3.1-2.6-4.6-.2-.3-.3-.6-.4-.9-.6-1.2-1.1-2.3-1.6-3.5-.2-.5-.4-.9-.6-1.4-.4-1.1-.9-2.2-1.2-3.3-.1-.4-.3-.8-.4-1.2-.5-1.5-.9-3-1.3-4.4-.1-.2-.1-.4-.1-.6-.3-1.3-.6-2.6-.8-3.9-.1-.5-.2-.9-.2-1.4-.2-1.1-.3-2.2-.4-3.3 0-.5-.1-.9-.1-1.4-.1-1.5-.2-3-.2-4.5l4.5 642c0 1.5.1 3 .2 4.5 0 .5.1.9.1 1.4.1 1.1.2 2.2.4 3.3.1.5.1.9.2 1.4.2 1.3.5 2.6.8 3.9.1.2.1.4.1.6.4 1.5.8 3 1.3 4.4.1.4.3.8.4 1.2l1.2 3.3c.2.5.4.9.6 1.4.5 1.2 1 2.3 1.6 3.5.2.3.3.6.5.9 0 .1.1.2.1.3.8 1.4 1.6 2.9 2.4 4.3v.1l2.7 4.2c0 .1.1.1.1.2 1.3 1.9 2.7 3.8 4.3 5.6.1.2.2.3.4.5.4.4.8.8 1.1 1.3.9 1.1 1.9 2.1 2.9 3.2.3.3.5.6.8.9l1.2 1.2c.8.9 1.7 1.7 2.6 2.6.4.3.7.7 1.1 1 .4.4.8.7 1.2 1.1l2.4 2.1c.4.4.8.7 1.2 1.1l1.5 1.2c.7.6 1.5 1.2 2.2 1.8.4.3.7.6 1.1.9.6.5 1.3 1 2 1.4.7.5 1.4 1 2.2 1.6l.9.6c1 .7 2 1.3 3 2 .5.4 1.1.7 1.6 1.1.1.1.3.2.4.3 1.7 1.1 3.5 2.2 5.3 3.2.1.1.2.1.3.2 1.7.3 3.4 1.2 5.1 2.2z" class="colorDCE9F5 svgShape"/><path d="M815.2 1887.5c-.9-.6-1.9-1.1-2.8-1.7-.1-.1-.3-.2-.4-.3-.6-.4-1.1-.7-1.6-1.1-1-.7-2.1-1.3-3-2l-.9-.6c-.7-.5-1.5-1.1-2.2-1.6-.7-.5-1.4-1-2-1.5-.4-.3-.8-.6-1.1-.9-.8-.6-1.5-1.2-2.2-1.7l-1.5-1.2c-.4-.4-.8-.7-1.2-1.1l-2.4-2.1c-.4-.4-.8-.7-1.2-1.1-.3-.4-.7-.7-1-1l-2.6-2.6c-.4-.4-.8-.8-1.2-1.1-.3-.3-.5-.6-.8-.9-1-1.1-1.9-2.1-2.9-3.2-.4-.4-.8-.8-1.1-1.2-.1-.2-.2-.3-.4-.5-1.5-1.9-3-3.7-4.3-5.6 0-.1-.1-.1-.2-.2-1-1.4-1.9-2.8-2.7-4.2-.9-1.4-1.7-2.9-2.4-4.3 0-.1-.1-.2-.1-.3-.2-.3-.3-.6-.5-.9-.6-1.2-1.1-2.3-1.6-3.5-.2-.5-.4-.9-.6-1.4-.4-1.1-.9-2.2-1.2-3.3-.2-.4-.3-.8-.5-1.2-.5-1.5-.9-3-1.3-4.4 0-.2-.1-.4-.1-.6-.3-1.3-.6-2.6-.8-3.9-.1-.4-.1-.9-.2-1.4-.2-1.1-.3-2.2-.4-3.3 0-.5-.1-.9-.1-1.3-.1-1.5-.2-3-.2-4.5l-4.5-641.5c0 1.3.1 2.7.2 4 0 .4.1.9.1 1.4.1 1.1.3 2.2.4 3.3.1.5.1.9.2 1.4.2 1.3.5 2.6.8 3.9 0 .2.1.4.1.6.4 1.5.8 3 1.3 4.4.1.4.3.8.4 1.2l1.2 3.3c.2.5.4.9.6 1.4.5 1.2 1.1 2.3 1.6 3.5.1.3.3.6.4.9.8 1.5 1.6 3.1 2.6 4.6.9 1.5 1.9 2.9 2.9 4.4 1.3 1.9 2.7 3.8 4.3 5.6.5.6 1 1.2 1.5 1.7.9 1.1 1.9 2.2 2.9 3.2.6.7 1.3 1.4 1.9 2 .9.9 1.7 1.7 2.6 2.5.8.7 1.5 1.4 2.3 2.1l2.4 2.1c.9.8 1.8 1.5 2.7 2.3.7.6 1.5 1.2 2.2 1.8 1 .8 2.1 1.6 3.1 2.3.7.5 1.4 1 2.2 1.6 1.2.9 2.5 1.8 3.9 2.6.6.4 1.1.7 1.6 1.1 1.9 1.2 3.9 2.5 6 3.7l.2.1 1.6 640.2z" opacity=".07" fill="#000000" class="color000 svgShape"/><path fill="#e6cfae" d="m818 1889.2-.3-.2c-1.8-1.1-3.6-2.1-5.3-3.2-.1-.1-.3-.2-.4-.3-.6-.3-1.1-.7-1.7-1.1-1-.7-2-1.3-3-2l-.9-.6c-.7-.5-1.4-1-2.2-1.6-.7-.5-1.4-1-2-1.4-.4-.3-.8-.6-1.1-.9-.7-.6-1.5-1.2-2.2-1.8l-1.5-1.2c-.4-.4-.8-.7-1.2-1.1-.8-.7-1.6-1.4-2.3-2.1-.4-.4-.8-.7-1.3-1.1-.4-.3-.7-.7-1.1-1-.9-.8-1.7-1.7-2.6-2.5l-1.2-1.2c-.3-.3-.5-.6-.8-.9-1-1.1-1.9-2.1-2.8-3.2-.4-.4-.8-.8-1.1-1.2-.1-.2-.2-.3-.4-.5-1.5-1.9-2.9-3.7-4.3-5.6-.1-.1-.1-.1-.1-.2-1-1.4-1.9-2.8-2.7-4.2-.9-1.4-1.7-2.9-2.4-4.3 0-.1-.1-.2-.1-.3-.2-.3-.3-.6-.5-1-.6-1.1-1.1-2.3-1.6-3.5-.2-.5-.4-.9-.6-1.4-.4-1.1-.9-2.2-1.2-3.3-.1-.4-.3-.8-.5-1.2-.5-1.5-.9-3-1.3-4.4 0-.2-.1-.4-.1-.6-.3-1.3-.6-2.6-.8-3.9-.1-.5-.1-.9-.2-1.4-.2-1.1-.3-2.2-.4-3.3l-.1-1.4c-.1-1.5-.2-3-.2-4.5l-4.3-555.5c.1.1.1.2.2.2 1 1.2 2 2.3 3.1 3.5.7.8 1.4 1.5 2.1 2.2.9.9 1.8 1.9 2.8 2.8.8.8 1.6 1.5 2.5 2.3.8.8 1.7 1.5 2.5 2.3 1 .8 2 1.7 3 2.5.8.7 1.6 1.3 2.4 1.9 1.1.9 2.2 1.7 3.4 2.6.8.6 1.6 1.1 2.4 1.7 1.4 1 2.8 1.9 4.2 2.9l1.8 1.2c2.1 1.4 4.3 2.7 6.5 4l6.6 3.6c.8.4 1.5.8 2.3 1.2l4.8 2.4c.8.4 1.6.8 2.5 1.2 1.7.8 3.4 1.6 5.2 2.3l2.1.9c2.4 1 4.9 2.1 7.4 3 .3.1.7.2 1 .4l6.6 2.4 2.7.9c1.7.6 3.4 1.1 5.2 1.7l3 .9 5.1 1.5c1 .3 2 .6 3.1.8 1.8.5 3.7 1 5.6 1.4l2.7.6c2.7.6 5.5 1.2 8.3 1.8.2 0 .4.1.7.1 2.6.5 5.1 1 7.7 1.4.8.2 1.7.3 2.5.4 2 .3 4 .7 5.9.9.9.1 1.9.3 2.9.4 2.1.3 4.1.5 6.2.8.8.1 1.5.2 2.3.3 2.8.3 5.7.6 8.5.8.7 0 1.3.1 2 .1 2.2.2 4.5.3 6.8.5 1.6.1 3.1.2 4.7.2 1.5.1 3 .1 4.5.2 4.1.1 8.2.2 12.4.1h4.2c1.7 0 3.4-.1 5.1-.1 1.5 0 3-.1 4.5-.2 1.7-.1 3.4-.1 5.1-.3 1.1-.1 2.2-.1 3.2-.2 4.6-.3 9.2-.7 13.8-1.2h.1c3.2-.4 6.5-.8 9.7-1.2 2.5-.3 5-.8 7.4-1.2.5-.1.9-.1 1.4-.2 2.9-.5 5.8-1 8.7-1.6.8-.2 1.6-.4 2.5-.5 2-.4 4-.9 6-1.3 1.1-.3 2.3-.6 3.4-.8 1.7-.4 3.4-.8 5.1-1.3 1.2-.3 2.4-.7 3.6-1 1.6-.4 3.2-.9 4.8-1.4 1.3-.4 2.5-.8 3.7-1.1 1.5-.5 3-1 4.6-1.5l3.6-1.2c1.5-.5 3-1.1 4.5-1.6 1.2-.4 2.3-.9 3.4-1.3 1.5-.6 3.1-1.2 4.6-1.9 1-.4 2.1-.8 3.1-1.3 1.7-.7 3.3-1.4 4.9-2.2.8-.4 1.7-.8 2.5-1.1 2.4-1.1 4.7-2.3 7.1-3.5.1-.1.3-.2.5-.3 2.4-1.2 4.7-2.5 7-3.8 2.1-1.2 4-2.4 6-3.6.7-.5 1.4-.9 2.2-1.4 1.4-.9 2.8-1.9 4.2-2.8.6-.4 1.2-.9 1.8-1.3 1.9-1.4 3.8-2.8 5.6-4.2 1.8-1.4 3.5-2.9 5.2-4.3.6-.5 1.1-.9 1.6-1.4l3.3-3 1.8-1.8c1-1 1.9-1.9 2.8-2.9.6-.6 1.2-1.2 1.7-1.8.8-.9 1.6-1.9 2.4-2.8.6-.7 1.2-1.5 1.8-2.2.7-.9 1.4-1.8 2-2.7l1.8-2.4c.4-.7.9-1.3 1.3-2l4.3 565.2c0 1.8-.1 3.6-.2 5.4-.1.6-.2 1.2-.2 1.8-.1 1.2-.3 2.4-.5 3.6 0 .2 0 .4-.1.6-.1.8-.3 1.5-.5 2.3-.1.6-.2 1.2-.4 1.8-.3 1.2-.7 2.4-1 3.6-.1.4-.2.8-.4 1.2v.1c-.5 1.4-1 2.8-1.6 4.2-.2.4-.3.8-.5 1.2l-.6 1.5c-.2.4-.4.7-.6 1.1l-1.8 3.6-.6 1.2c-.2.3-.3.5-.5.8-.5.9-1.1 1.9-1.7 2.8-.3.5-.6 1.1-1 1.6-.2.2-.3.4-.5.7-.5.8-1.1 1.5-1.6 2.3-.4.6-.8 1.2-1.3 1.7-.2.2-.4.5-.6.7-.5.7-1.1 1.4-1.7 2-.5.5-.9 1.1-1.3 1.7-.3.3-.6.6-.8.9-.5.6-1 1.1-1.6 1.7-.4.4-.8.9-1.3 1.4l-1.3 1.3-1.7 1.7-.9.9-2.1 1.8c-.5.4-.9.9-1.4 1.3l-.5.5c-1.4 1.2-2.8 2.3-4.3 3.5-1.4 1.1-2.9 2.3-4.5 3.4-.2.2-.5.3-.7.5-.6.4-1.1.8-1.7 1.2-.8.5-1.5 1.1-2.3 1.6-.5.3-1 .7-1.5 1-.7.4-1.3.9-2 1.3-.5.3-1 .6-1.5 1-1.3.8-2.7 1.6-4 2.4-.4.3-.9.5-1.3.7-1.7 1-3.4 1.9-5.1 2.8-.1.1-.3.1-.4.2-1.9 1-3.9 2-5.9 2.9l-.6.3c-.7.3-1.5.7-2.3 1-1.1.5-2.2 1.1-3.4 1.6-.4.2-.8.3-1.1.5-.9.4-1.9.8-2.8 1.2-.9.4-1.7.7-2.6 1.1-.6.2-1.1.4-1.6.6-1 .4-2.1.8-3.1 1.2-.7.3-1.4.6-2.1.8-.7.2-1.4.4-2 .7-1.1.4-2.2.8-3.3 1.1l-1.8.6c-.8.2-1.6.5-2.4.7-1.1.4-2.3.7-3.4 1.1-.5.2-1 .3-1.6.5-.9.3-1.9.5-2.8.8l-3.3.9-1.2.3c-1.1.3-2.3.6-3.4.8-1 .2-2 .5-3.1.8-.3.1-.6.2-.9.2-1.5.4-3.1.7-4.7 1-.7.2-1.5.3-2.2.5-.1 0-.2.1-.4.1-2.5.5-5 1-7.5 1.4h-.1c-.4.1-.8.1-1.3.2-2.1.4-4.3.7-6.4 1-.1 0-.3 0-.4.1-3 .4-5.9.8-8.9 1.1h-.1c-4.2.5-8.4.8-12.6 1.1-.5 0-1 .1-1.5.1s-1 0-1.5.1c-1.5.1-3.1.2-4.6.2-1.4.1-2.8.1-4.2.2-1.5 0-3.1.1-4.7.1-1 0-1.9.1-2.9.1h-.9c-3.8 0-7.6 0-11.3-.1h-.6c-1.2-.1-2.3-.1-3.5-.2-1.4-.1-2.9-.1-4.3-.2h-.8c-1.8-.1-3.6-.3-5.4-.4-.6 0-1.2-.1-1.8-.1h-.2c-2.3-.2-4.5-.4-6.8-.7-.2 0-.5-.1-.7-.1l-2.1-.3c-1.3-.1-2.5-.3-3.8-.5-.6-.1-1.3-.2-1.9-.3-.9-.1-1.8-.2-2.6-.4l-2.1-.3c-1.1-.2-2.2-.4-3.3-.5-.8-.1-1.6-.3-2.3-.4-.3-.1-.7-.1-1-.2-2-.4-4.1-.7-6.1-1.2-.2 0-.4-.1-.6-.1h-.1c-2.3-.5-4.6-1-6.8-1.5-.2-.1-.4-.1-.7-.2-.8-.2-1.6-.4-2.5-.6-1.2-.3-2.5-.6-3.7-.9-.5-.1-.9-.3-1.4-.4-1-.3-1.9-.5-2.8-.8-.9-.2-1.7-.4-2.6-.7l-2.1-.6c-.9-.3-1.8-.5-2.8-.8-.6-.2-1.2-.3-1.7-.5-1-.3-2-.7-3.1-1-.8-.3-1.6-.5-2.5-.8l-.9-.3c-1.7-.6-3.4-1.2-5.2-1.9l-.9-.3c-.1 0-.1 0-.1-.1-2-.8-4-1.6-6.1-2.4l-.6-.3c-.6-.3-1.3-.6-1.9-.8-1.1-.5-2.2-.9-3.3-1.4-.5-.2-1-.5-1.5-.7-.7-.4-1.5-.7-2.2-1.1-.6-.3-1.3-.6-1.9-.9-.8-.4-1.6-.8-2.5-1.3-.7-.3-1.4-.7-2.1-1.1-.3-.2-.6-.3-1-.5-2-1.3-3.7-2.2-5.4-3.2z" class="colorAEC7E6 svgShape"/><path fill="#613e0c" d="M1159 1875.9c.4 31.8-20.2 63.6-61.9 87.9-24.7 14.3-54 24.4-85.1 30.2-73.6 13.7-157.8 3.7-216.5-30.2-20.8-12-36.4-25.8-46.9-40.6s-15.8-30.5-16-46.2v-.2c0-1.3 0-2.6.1-3.9l11.6-650.9c0 1.6.1 3.3.2 4.9 0 .5.1 1 .1 1.5.1 1.2.3 2.4.4 3.6.1.5.2 1 .2 1.5.2 1.4.5 2.8.9 4.2.1.2.1.5.1.7.4 1.6.9 3.2 1.4 4.9.1.4.3.9.5 1.4.4 1.2.9 2.4 1.4 3.6l.6 1.5c.6 1.3 1.1 2.5 1.8 3.8.2.3.3.7.5 1 .9 1.7 1.8 3.4 2.8 5v.1c1 1.6 2 3.2 3.1 4.8 1.4 2.1 3 4.1 4.7 6.2.5.6 1.1 1.3 1.6 1.9 1 1.2 2 2.3 3.1 3.5.7.7 1.4 1.5 2.1 2.2l2.8 2.8c.8.8 1.7 1.6 2.5 2.3.8.8 1.7 1.5 2.6 2.3 1 .8 2 1.7 3 2.5.8.6 1.6 1.3 2.4 1.9 1.1.9 2.3 1.7 3.4 2.6.8.6 1.6 1.1 2.4 1.7 1.4 1 2.8 1.9 4.2 2.9l1.8 1.2c2.1 1.4 4.3 2.7 6.6 4 2.2 1.3 4.4 2.5 6.6 3.6.8.4 1.5.8 2.3 1.2l4.8 2.4c.8.4 1.6.8 2.5 1.2 1.7.8 3.4 1.6 5.2 2.3l2.1.9c2.4 1 4.9 2 7.4 3 .3.1.7.2 1 .4l6.6 2.4 2.7.9c1.7.6 3.5 1.1 5.2 1.7l3 .9 5.1 1.5c1 .3 2 .6 3.1.8 1.8.5 3.7 1 5.6 1.4l2.7.6c2.7.6 5.5 1.2 8.3 1.8.2 0 .4.1.7.1 2.6.5 5.1 1 7.7 1.4.8.1 1.7.3 2.5.4 2 .3 4 .6 5.9.9.9.1 1.9.3 2.9.4 2.1.3 4.1.5 6.2.8.8.1 1.5.2 2.3.3 2.8.3 5.7.6 8.5.8.7.1 1.3.1 2 .2 2.2.2 4.5.3 6.8.5 1.6.1 3.2.2 4.7.2 1.5.1 3 .1 4.5.2 4.1.1 8.2.2 12.4.2 1.4 0 2.8 0 4.2-.1 1.7 0 3.4-.1 5.1-.1 1.5-.1 3-.1 4.5-.2 1.7-.1 3.4-.1 5.1-.3 1.1-.1 2.2-.1 3.3-.2 4.6-.3 9.2-.7 13.8-1.2h.1c3.2-.4 6.5-.8 9.7-1.2 2.5-.4 5-.8 7.4-1.2.5-.1.9-.1 1.4-.2 2.9-.5 5.8-1 8.7-1.6.8-.2 1.7-.4 2.5-.5 1.2-.3 2.5-.5 3.7-.8.8-.2 1.6-.3 2.3-.5 1.1-.3 2.3-.5 3.4-.8 1.7-.4 3.4-.8 5.1-1.3 1.2-.3 2.4-.7 3.6-1 1.6-.4 3.2-.9 4.8-1.4 1.3-.4 2.5-.8 3.7-1.1 1.5-.5 3.1-1 4.6-1.5l3.6-1.2c1.5-.5 3-1.1 4.5-1.6 1.1-.4 2.3-.9 3.4-1.3 1.5-.6 3.1-1.2 4.6-1.8 1-.4 2.1-.8 3.1-1.3 1.7-.7 3.3-1.4 4.9-2.2.8-.4 1.7-.8 2.5-1.1 2.4-1.1 4.7-2.3 7.1-3.5.2-.1.3-.2.5-.3 2.4-1.2 4.7-2.5 7-3.8 2.1-1.2 4-2.4 6-3.6.7-.5 1.4-.9 2.2-1.4 1.4-.9 2.9-1.9 4.2-2.8.6-.4 1.2-.8 1.8-1.3 1.9-1.4 3.8-2.8 5.6-4.2 1.8-1.4 3.5-2.9 5.2-4.3.5-.5 1.1-.9 1.6-1.4l3.3-3 1.8-1.8c1-1 1.9-1.9 2.8-2.9.6-.6 1.1-1.2 1.7-1.9.8-.9 1.6-1.8 2.4-2.8.6-.7 1.2-1.5 1.8-2.2.7-.9 1.4-1.8 2-2.7.6-.8 1.2-1.6 1.8-2.5.6-.8 1.1-1.6 1.6-2.4.6-1 1.3-2 1.9-3 .4-.7.8-1.5 1.2-2.2.7-1.3 1.4-2.6 2-3.9.5-1 .9-1.9 1.3-2.9.2-.4.4-.8.5-1.3.7-1.6 1.3-3.2 1.8-4.8.1-.4.2-.8.4-1.3.4-1.3.8-2.6 1.1-3.9.2-.6.3-1.3.4-1.9.2-1.1.5-2.1.7-3.2.2-1.3.4-2.6.5-4 .1-.6.2-1.3.2-1.9.2-2 .3-3.9.3-5.9l20.1 652.6v.5l-.2 1.6z" class="color0C3461 svgShape"/><path fill="#492e09" d="M1011.9 1328.1v666c-73.6 13.7-157.8 3.7-216.5-30.2-20.8-12-36.4-25.8-46.9-40.6s-15.8-30.5-16-46.2v-.2c0-1.3 0-2.6.1-3.9l11.6-650.9c0 1.6.1 3.3.2 4.9 0 .5.1 1 .1 1.5.1 1.2.3 2.4.4 3.6.1.5.2 1 .2 1.5.2 1.4.5 2.8.9 4.2.1.2.1.5.1.7.4 1.6.9 3.2 1.4 4.9.1.4.3.9.5 1.4.4 1.2.9 2.4 1.4 3.6l.6 1.5c.6 1.3 1.1 2.5 1.8 3.8.2.3.3.7.5 1 .9 1.7 1.8 3.4 2.8 5v.1c1 1.6 2 3.2 3.1 4.8 1.4 2.1 3 4.1 4.7 6.2.5.6 1.1 1.3 1.6 1.9 1 1.2 2 2.3 3.1 3.5.7.7 1.4 1.5 2.1 2.2l2.8 2.8c.8.8 1.7 1.6 2.5 2.3.8.8 1.7 1.5 2.6 2.3 1 .8 2 1.7 3 2.5.8.6 1.6 1.3 2.4 1.9 1.1.9 2.3 1.7 3.4 2.6.8.6 1.6 1.1 2.4 1.7 1.4 1 2.8 1.9 4.2 2.9l1.8 1.2c2.1 1.4 4.3 2.7 6.6 4 2.2 1.3 4.4 2.5 6.6 3.6.8.4 1.5.8 2.3 1.2l4.8 2.4c.8.4 1.6.8 2.5 1.2 1.7.8 3.4 1.6 5.2 2.3l2.1.9c2.4 1 4.9 2 7.4 3 .3.1.7.2 1 .4l6.6 2.4 2.7.9c1.7.6 3.5 1.1 5.2 1.7l3 .9 5.1 1.5c1 .3 2 .6 3.1.8 1.8.5 3.7 1 5.6 1.4l2.7.6c2.7.6 5.5 1.2 8.3 1.8.2 0 .4.1.7.1 2.6.5 5.1 1 7.7 1.4.8.1 1.7.3 2.5.4 2 .3 4 .6 5.9.9.9.1 1.9.3 2.9.4 2.1.3 4.1.5 6.2.8.8.1 1.5.2 2.3.3 2.8.3 5.7.6 8.5.8.7.1 1.3.1 2 .2 2.2.2 4.5.3 6.8.5 1.6.1 3.2.2 4.7.2 1.5.1 3 .1 4.5.2 4.1.1 8.2.2 12.4.2 1.4 0 2.8 0 4.2-.1 1.7 0 3.4-.1 5.1-.1 1.5-.1 3-.1 4.5-.2 1.7-.1 3.4-.1 5.1-.3 1.1-.1 2.2-.1 3.3-.2 4.6-.3 9.2-.7 13.8-1.2h.1c3.2-.4 6.5-.8 9.7-1.2 2.5-.4 5-.8 7.4-1.2.5-.1.9-.1 1.4-.2 2.9-.5 5.8-1 8.7-1.6.8-.2 1.7-.4 2.5-.5 1-.6 2.2-.8 3.4-1.1z" class="color092749 svgShape"/><path fill="#ffdfb3" d="M1088.7 1079.7c-1 75.3-19.9 108.9-93.2 150.8-73.3 41.9-106.9 69.8-158.2 89.7-51.4 20-231-19.1-336.5-68.5-71-33.2-125.1-87.6-129.6-134-2.2-22.5 7.3-43.1 32.1-58.5 0 0 282.5-179.3 361.3-211.2 26-10.5 121.5-14.1 206.1 39.7 79.2 50.5 114.8 91.2 117.9 174.7.1 5.6.2 11.3.1 17.3z" class="colorFFC5B3 svgShape"/><path fill="#f2ce9b" d="M912.1 1026.9c-10.7 22.8 15.2 49.3 7.2 73.2-9.8 29.3-35.4 50-59.8 69-35.8 27.9-90.9 46.9-137.3 80.4-13 9.4-39.1 32.8-66.8 54.8-54.7-13.5-111-32.1-154.7-52.5-71-33.2-125.1-87.6-129.6-134-2.2-22.5 7.3-43.1 32.1-58.5 0 0 282.5-179.3 361.3-211.2 1.2-.5 2.6-1 4.1-1.4.6-.2 1.2-.3 1.8-.5.4-.1.7-.2 1.1-.3 25.1 4.4 51.6 11 73.6 18.4 25.7 8.6 60.7 6.3 60.7 6.3 20.5 17.8 65 51.8 43.7 78.4-16.5 20.4-26.3 54.2-37.4 77.9z" class="colorF2A29B svgShape"/><path fill="#f2ce9b" d="M1088.7 1079.7c-1 75.3-19.9 108.9-93.2 150.8-73.3 41.9-106.9 69.8-158.2 89.7-51.4 20-231-19.1-336.5-68.5-71-33.2-125.1-87.6-129.6-134 28.1 30.7 60.6 57.6 96 79.6 27.3 16.9 56.3 30.9 86.6 41.5 97.5 34.2 206.9 33.2 303.7-2.7 53.3-19.8 109.7-36.5 153.4-72.9 69.2-57.8 77.6-100.8 77.6-100.8.2 5.6.3 11.3.2 17.3z" class="colorF2A29B svgShape"/><path fill="#ffdfb3" d="M476.6 1133.1c0-35.6-28.9-73.1-75.1-72.7-19.5.2-124.5-1.7-148-.7-57.9-44.8-90.6-58.7-90.6-58.7-2.5-14.3-60.5-86.1-122.7-82.3-30.2 1.9-51.1 33.8-34.1 57.5 0 0 63.4 82.7 80.7 106.1 9.6 13 96.6 87.6 111 94.7 14.4 7.1 176.4 24.1 231.8 29.9 43.4 4.5 47-40.2 47-73.8z" class="colorFFC5B3 svgShape"/><path fill="#f2ce9b" d="M476.6 1133.1c0 33.7-3.6 78.3-47 73.8-55.4-5.8-217.4-22.8-231.8-29.9-14.4-7.1-101.4-81.6-111-94.7-17.3-23.4-80.7-106.1-80.7-106.1-6.8-9.5-7.5-20.2-4-29.9 1.1 4.7 2 9.3 6.1 12.6 9.4 7.6 24 11 34.3 18 12.5 8.3 23.8 18.4 33.5 29.9 14.6 17.2 52 32.5 52 32.5s33.6-8.5 58.9-2.1c59.2 15 90 73.7 90 73.7s13.7 3.1 34.1 7c13.9 2.7 21.9-3.7 45.9-1 24 2.8 36.2 14.4 36.2 14.4 33.3 4.1 65.5 6.1 83.5 1.8z" class="colorF2A29B svgShape"/><path fill="#ffeacc" d="M56 1020.9c-5 .3-11.6-.5-19-4.3-16.8-22-30.9-40.5-30.9-40.5-1.8-2.5-3.1-5.1-4.1-7.7 3.6 3.8 10.1 8.3 21.6 10 4.8.7 9.2 3.1 12.2 6.9 6 7.5 16.8 19.7 23.6 27.3 2.7 3.1.8 8.1-3.4 8.3z" class="colorFFD8CC svgShape"/><path fill="#f2ce9b" d="M180.9 1026.9c-3.6-16-17.2-25.4-18-26h.1c.6.3 4.1 1.8 10.1 5 8.1 11.4 7.8 21 7.8 21zM277.8 1085.6c-4.8-17.5-24.2-26-24.2-26 2.3-.1 5.4-.2 9.1-.2 3.9 2.6 11 9.4 15.1 26.2z" class="colorF2A29B svgShape"/><path fill="#ffdfb3" d="M560.4 1202.4c0-36.6-28.5-82.7-83.8-69.3-18.4 4.5-88.4 24.4-113 31.6-6.5-4.9-63.5-38.3-90-48.5-2.9-11.7-47.6-80.7-122.7-75.2-30.2 2.2-51.1 33.8-34.1 57.5 0 0 72 97.5 82.3 111.2 1.9 2.6 98.3 77.2 128.4 80.5 38 4.2 191.6-15.3 212.2-21.8 20.7-6.7 20.7-41.8 20.7-66z" class="colorFFC5B3 svgShape"/><path fill="#f2ce9b" d="M560.4 1202.4c0 24.2 0 59.4-20.7 65.9-20.7 6.5-174.2 26-212.2 21.8-30.2-3.3-126.5-77.9-128.4-80.5-10.2-13.5-81.2-109.6-82.3-111.2 33.2 17.9 48.6 10.9 57.5 22.2 24.8 31.2 37.6 38.9 57 57.6 28.3 27.2 69 19.5 83.3 18.6 24.8-1.6 11.7-29.1 33.1-42 8.1 4.8 14.1 8.5 15.9 9.9 7.6-2.2 19.4-5.6 32.8-9.4 14.3 4.1 28.7 9 35.9 14.7 18.7 14.7 63.7 33.9 63.7 33.9s39.4-6.6 63.5-13.1c.1.5.2 1 .2 1.5.1.5.1 1 .2 1.5 0 .4.1.7.1 1.1 0 .4.1.8.1 1.2.1.7.1 1.4.2 2.2 0 .5 0 1 .1 1.5v2.6z" class="colorF2A29B svgShape"/><path fill="#ffeacc" d="M164.1 1144.4c-4.6.6-10.2.4-14.9-2.1-17.3-23.5-32.4-43.9-32.4-43.9-.4-.6-.9-1.3-1.3-1.9 4.4 4.3 11 9 20.6 11.9 6.4 2 12.2 5.6 16.7 10.7l14.6 16.7c2.7 3.1.9 8.1-3.3 8.6z" class="colorFFD8CC svgShape"/><path fill="#f2ce9b" d="M277.2 1152.3c1.2-30.2-7.7-44.8-7.7-44.8 2.3 3.9 3.6 6.9 4.1 8.6 1.1.4 2.3.9 3.6 1.4 0 .1 4.8 10.9 0 34.8z" class="colorF2A29B svgShape"/><path fill="#ffdfb3" d="M689.8 1244c0 28.5-7.4 50.5-32.2 60.7-16.1 4.9-166.2 35.6-195.9 32.4-49.4-5.4-93.4-67-94.7-69.2-19.9-33.3-49.2-65.9-70.8-95.3-11.4-15.5 8.3-50.2 38.5-52.7 54.7-4.5 83.8 34.7 96.1 48 3.6 3.9 7.3 8.8 10.3 14.6.2.4.5.9.7 1.4.9.4 3.2 1.5 6.5 3.1 10.2 4.8 29.3 14.1 41 20.9 1.9 1.1 3.6 2.2 5 3.1 2.7-1 5.5-1.9 8.4-2.9 44.4-15.1 110.8-32.5 118.9-32.5 37.6.1 68.2 30.7 68.2 68.4z" class="colorFFC5B3 svgShape"/><path fill="#f2ce9b" d="M521.2 1251.9c-1-31.6-28.4-41.8-27-40.8 2.7-1 8.4-2.9 8.4-2.9s19.3 7.8 18.6 43.7zM448.9 1217.9c1.8-29.6-7.5-34.4-7.3-33.9.9.4 3.2 1.5 6.5 3.1.1-.1 7 6.9.8 30.8z" class="colorF2A29B svgShape"/><g fill="#f2ce9b" class="colorF2A29B svgShape"><path d="M689.8 1244c0 28.5-7.4 50.5-32.2 60.7-16.1 4.9-166.2 35.6-195.9 32.4-49.4-5.4-93.4-67-94.7-69.2-9.6-16.1-21.5-32.1-33.5-47.6-12.8-16.4-25.8-32.2-36.9-47.3-.1-.2-.2-.3-.3-.5-.2-.3-.4-.5-.5-.8 0 0 13.6 10.1 32.8 9.7 6.4-.1 12.6 2.2 17.1 6.7 5.2 5.1 12.4 12.5 20.2 21.8 19.3 22.9 33.9 50.5 58.1 68.1 20.8 15.1 47 21.3 72.8 22 25.7.7 51.3-3.8 76.6-8.2 15.3-2.7 30.8-5.4 44.5-12.7 14.3-7.6 25.7-19.7 39.4-28.3 9.7-6.1 21.1-10 32.5-11.2 0 .7.1 1.4.1 2.1-.2.9-.1 1.6-.1 2.3z" fill="#000000" class="color000 svgShape"/><path d="M689.8 1244c0 28.5-7.4 50.5-32.2 60.7-.8.2-1.9.5-3.3.9-.2-51-33.5-130-32.8-130 36.3 0 66 28.3 68.2 64.1 0 .7.1 1.4.1 2.1-.1.8 0 1.5 0 2.2z" fill="#000000" class="color000 svgShape"/></g><path fill="#ffeacc" d="M333.3 1220.4c-12.8-16.4-25.8-32.2-36.9-47.3 16.2 16.2 30.8 10.1 35.4 15.5 3.1 3.7 13.2 14 19.5 20.4 2.9 2.9 1.9 7.8-1.9 9.4-4.1 1.7-9.8 3.1-16.1 2z" class="colorFFD8CC svgShape"/><g fill="#e6bf8a" class="colorE68D8A svgShape"><path d="M931.2 1087.8c-112.5 36-225.5 11.3-312.2-23.7-34.8-14.1-91.6-43.3-125.4-61.3 4-2.4 8-4.9 12.1-7.5 178.7 100.2 309.1 2.2 318.9-3.5-47.6 50.8-163.3 73.4-163.3 73.4 111.5 57.9 254.4 26.3 269.9 22.6zM587.9 1137.9s42.6-12 158.5 29.8c88.4 31.9 110.1 50.6 110.1 50.6s-24.9-23.6-89.5-51.2c-49.7-21.3-128.3-44.1-179.1-29.2z" fill="#000000" class="color000 svgShape"/><path d="M430.2 1050.8c7.3.7 14.5 2.8 21.4 5.4 6.9 2.6 13.5 5.9 20 9.5 6.4 3.7 12.5 7.8 18.5 12.1 5.8 4.3 11.9 8.2 18.2 11.7 6.3 3.5 12.8 6.4 19.6 9.2 6.8 2.9 13.5 6.4 19.9 10.2 6.4 3.9 12.5 8.3 18.2 13.2 2.8 2.4 5.6 5.1 8.2 7.6 2.6 2.5 5.3 4.9 8 7.2 10.9 9.3 23.1 17 36.3 22.9 13.4 6.4 26.2 14.1 37.8 23.5 11.1 9.5 22.8 18 35.8 24.4 3.2 1.7 6.5 3 9.9 4.6 3.4 1.5 6.7 3.2 9.9 5 6.4 3.7 12.4 8 17.9 12.9-5.9-4.4-12.2-8.1-18.7-11.2-3.3-1.6-6.6-3-10-4.3-3.4-1.3-6.9-2.5-10.3-4-6.8-2.9-13.4-6.4-19.7-10.4-6.3-3.9-12.3-8.5-18-12.9-11.6-8.6-24.1-15.9-37.3-21.8-13.6-5.8-26.5-13.9-37.9-23.5-2.9-2.4-5.6-4.9-8.3-7.5-2.7-2.6-5.2-5-7.9-7.4-5.4-4.7-11.2-8.9-17.2-12.8-6.1-3.8-12.4-7.3-18.9-10.3-3.2-1.5-6.8-2.9-10.1-4.6-3.3-1.7-6.6-3.5-9.8-5.4-6.4-3.8-12.5-8.1-18.3-12.7-5.7-4.5-11.5-8.9-17.6-12.8-6.1-3.9-12.4-7.5-19-10.6-3.3-1.5-6.7-2.9-10.1-4.1-3.4-1.4-6.9-2.5-10.5-3.1z" fill="#000000" class="color000 svgShape"/></g><path fill="#ffdfb3" d="M899.4 855.1c-22-25-118.2-80.7-216.4-108.6-66.9-19-125.4-17.7-155.8-14.9-21.6-3.7-83.8-18.6-110.1-26-20.5-5.8-70.4-20.2-92.1-25.3-.9-.2-131.1-33.9-154.1-35.4-22.9-1.5-70.7-1-80.8 39.9-10.1 40.9 14.5 72.3 56.1 91.2 41.6 18.9 119.9 36.3 138.2 42.8 35.9 16.4 131.7 69.6 165.6 91.5 24.2 32.9 44.9 67.5 56 84.7 17.9 27.7 174.2 81.1 278.6 23.3 104.5-57.8 136.8-138.2 114.8-163.2z" class="colorFFC5B3 svgShape"/><path fill="#f2ce9b" d="M471.6 826.9c0-1.7 0-3.4.1-5.1.1 1.7.1 3.4-.1 5.1z" class="colorF2A29B svgShape"/><path fill="#f2ce9b" d="M784.7 1018.4c-104.4 57.8-260.6 4.4-278.6-23.3-11.1-17.2-31.8-51.8-56-84.7-34-21.9-129.8-75.2-165.6-91.5-18.3-6.4-96.6-23.8-138.2-42.8-20.9-9.5-37.4-22.1-47.5-37.5 3.7 3.1 7.2 5.8 10.1 7.6 37.1 22.5 78.7 37.5 121.6 43.5 14.9 2.1 46.4 2.2 65.3-43.9.2 23.5 6.4 48.3 20.5 56.3 20.4 11.5 89.6 57.4 114.9 62.4 19.5 3.8 37.8-3.6 55.4-33.4.3 51.1 35.4 124 85.2 137.3 263.5 70.3 333.8-97.9 333.8-97.9 4 34.1-32.8 99.1-120.9 147.9z" class="colorF2A29B svgShape"/><path fill="#946017" d="M953 940.2v-.4c0-1.1-.1-2.5-.1-4v-.3c-.1-1.3-.2-3.1-.2-4.4v-.6c-.1-1.6-.2-2.9-.3-3.8-.1-1.7-.2-2.4-.4-3.9v-.3l-.2-1.3c-.1-1-.2-2-.4-2.9l-.1-1v-.1c-.1-1-.3-2-.4-2.9-1.7-11-4.4-22.3-8.3-33.7-.6-1.7-1-2.8-1.1-3.1v-.1c-.4-1.1-1-2.6-1.4-3.7l-.5-1.2c-.3-.9-.7-1.7-1-2.5-.4-1.1-.9-2.1-1.2-3-4.2-10.2-9.5-20.6-15.9-30.9-.1-.1-.2-.3-.2-.4-.7-1.2-1.4-2.3-2.2-3.5-.1-.1-.2-.3-.3-.5-.6-1-1.3-1.9-1.9-2.9-.2-.4-.5-.7-.7-1.1-.7-1.1-1.5-2.2-2.2-3.2-.7-1-1.3-1.9-2-2.8l-.2-.3c-.7-.9-1.6-2.2-2.3-3.2l-2.3-3.1c-.7-.9-1.7-2.2-2.4-3.1-.5-.7-1.2-1.5-1.9-2.4-2.8-3.5-5.8-7-8.9-10.5-13-14.6-26.9-27.1-40.9-37.6-.3-.2-.5-.4-.8-.6-1.1-.8-2.1-1.6-3.4-2.5-.3-.2-.5-.4-.8-.6-.1-.1-.2-.1-.3-.2-1.1-.8-2.2-1.6-3.2-2.3-.4-.3-.8-.6-1.2-.8l-.6-.4c-5.6-3.9-9.3-6.3-13.4-8.9-1.8-1.1-4.2-2.6-6-3.7-.1-.1-.2-.1-.3-.2-1.7-1-3.6-2.1-5.2-3l-.5-.3-2.3-1.3-2.7-1.5c-1.9-1-8.7-4.7-17.3-8.7-1.6-.7-3.2-1.5-4.8-2.2l-.5-.2-3.5-1.5-.3-.1c-1.6-.7-3.1-1.3-4.7-2l-.4-.2c-1.1-.5-2.7-1.1-3.8-1.5l-3.6-1.4-.9-.3c-.2-.1-.5-.2-.7-.3-.8-.3-1.5-.6-2.2-.8l-1.2-.4c-.5-.2-.9-.3-1.4-.5l-.9-.3c-.8-.3-1.7-.6-2.6-.9-.2-.1-.5-.2-.7-.2-.1 0-.3-.1-.4-.1l-2.5-.6-.5-.1c-.1 0-.2-.1-.2-.1H759c-.1 0-.3-.1-.4-.1-.1 0-.1 0-.2-.1-1.1-.3-2.3-.7-3.3-1l-.8-.2-1.2-.3-1.6-.4c-.6-.2-1.3-.4-2-.5-.3-.1-.6-.2-.9-.2-.4-.1-.7-.2-1.1-.3l-2.4-.6c-.3-.1-.6-.1-.8-.2l-.3-.1c-1.2-.3-2.9-.7-4.1-1-1.2-.3-2.4-.5-3.5-.8h-.2c-.5-.1-1-.2-1.6-.3-.7-.2-1.5-.3-2.2-.4-.2 0-.5-.1-.7-.1l-.5-.1c-1-.2-1.9-.4-2.9-.5l-.5-.1h-.1c-1.6-.3-3.2-.6-4.7-.8h-.5c-.5-.1-.9-.1-1.4-.2-.2 0-.4-.1-.7-.1-.5-.1-1-.1-1.6-.2-.1 0-.3 0-.4-.1-.2 0-.3 0-.5-.1-6.5-.9-11.3-1.2-14.2-1.4-.7 0-1.4-.1-2.1-.1-1-.1-1.9-.1-2.9-.2-1 0-1.9-.1-2.9-.1-3.1-.1-6.1-.1-9.1 0-3.4.1-6.7.2-9.8.4h-.6c-2 .1-4.8.4-6.8.6-8 .8-14.5 1.9-16.9 2.3-.8.1-2.1.4-3.5.6-.1 0-.3 0-.4.1h-.2c-1.4.3-2.8.6-4.1.8-.1 0-.2 0-.3.1-1.1.2-2.4.5-3.4.7l-.7.2c-.9.2-1.8.4-2.6.6l-.5.1c-1.2.3-2.7.7-3.9 1-.3.1-.9.2-1.6.4-11.2 3-21.8 6.6-31.2 10.4l-.3.1c-.2.1-.4.2-.6.2-.3.1-.5.2-.8.3-.7.3-1.4.6-1.9.8-.2.1-2.1.9-5.1 2.2-.1 0-.2.1-.3.1l-.4.2c-1.4.6-3.1 1.4-4.9 2.2l-.2.1c-.2.1-.3.2-.5.2-1.7.8-3.5 1.6-5.4 2.5-1.8.9-4.2 2-5.9 3-.1 0-.2.1-.3.1-1.7.9-3.6 1.9-5.2 2.7-1.2.7-2.7 1.5-4.1 2.3-.5.3-1 .5-1.4.8l-3.1 1.8-.9.5c-1.2.7-2.5 1.5-4 2.4l-.6.4c-.4.2-.8.5-1.2.7-1.4.9-3 1.8-4.6 2.9 0 0-.1.1-.2.1l-.2.1c-1.6 1-3.3 2.1-5.1 3.3l-.2.1c-.1.1-.3.2-.4.2-1.7 1.1-3.4 2.3-5.2 3.6-.1.1-.2.1-.3.2l-.2.2c-1.6 1.1-3.2 2.3-4.9 3.5l-.3.2c-.2.2-.5.3-.7.5-1.6 1.1-3.2 2.3-4.8 3.6-.1.1-.2.2-.4.3l-.4.3c-1.5 1.1-3 2.3-4.5 3.5l-.4.3c-.4.4-.9.7-1.4 1.1-1.3 1.1-2.6 2.2-4 3.3-.1.1-.3.2-.4.3l-.3.3c-1.6 1.3-3.1 2.7-4.7 4.1l-.2.2-.2.2-.2.2c-.3.3-.6.5-.9.8l-.1.1c-1.3 1.1-2.5 2.3-3.8 3.4l-.4.4-.3.2c-.5.5-1 .9-1.5 1.4-.6.6-1.3 1.2-1.9 1.8l-.6.6c-13.9 13.5-24.4 26.3-31.9 37-.4.6-.7 1.1-1 1.4-.4.6-1 1.4-1.6 2.3l-.6.9c-.4.6-.8 1.2-1.3 1.9-.1.1-.2.3-.3.4-.2.3-.4.7-.6.9l-.2.4c-.5.8-1.1 1.7-1.7 2.7l-.2.2c-.1.2-.2.4-.4.6-.6.9-1.1 1.8-1.7 2.8-.6 1-1.2 1.9-1.7 2.8l-.3.5c-.2.3-.4.6-.6 1-.4.7-.8 1.5-1.2 2.1-.1.1-.1.2-.2.4l-.3.6c-.4.8-.8 1.5-1.2 2.2l-.3.6c-.3.6-.7 1.2-1 1.9-.3.6-.6 1.2-.9 1.7 0 0-.7 1.4-1.8 3.5-.5 1.1-1.1 2.3-1.8 3.6-.8 1.7-1.1 2.3-1.8 3.8-.5 1.1-1.1 2.5-1.6 3.6-.6 1.3-1.2 2.8-1.9 4.5-8.3 20.5-13.1 41.4-14.3 62.5 0 .7-.1 1.4-.1 2.1v1.2c0 1.1-.1 2.1-.1 3.1v.5c0 2-.1 3.9-.1 5.6 0 8 .4 17.4 1.6 27.9.1.6.1 1.3.2 1.9 0 .3.1.5.1.8.4 3.6.8 5.8.8 5.9v.1c.1.4.1.8.2 1.2 0 .2.1.5.1.7.1.9.3 1.8.4 2.5v.2c.3 1.7.4 2.5.8 4.3v.1c.2 1 .4 2.1.6 3.3.1.4.2.9.3 1.3l.3 1.3c.2.9.4 1.8.6 2.6 0 .1 0 .2.1.3 0 .1 0 .2.1.3 0 .2.4 1.6.9 3.7 0 .1 0 .2.1.3 0 .2.1.4.1.6.2.9.5 1.8.7 2.8.1.5.3 1.1.4 1.6.3 1.2.5 2 .8 2.8.7 2.3 1.4 4.7 2.2 7 .1.3.2.5.2.8 3.7 11.3 8.4 22.9 14.6 34.6 1 1.9 1.7 3.1 1.8 3.3.4.8 1 1.9 1.8 3.2.1.1.1.2.2.3l.2.3c.5.9 1.1 1.9 1.8 3.1l.1.2s0 .1.1.1v.1c.1.2.3.5.4.7.5.8 1 1.7 1.5 2.5 0 0 0 .1.1.1l.1.2c.5.9 1.1 1.8 1.7 2.8l.3.4c.3.4.6.9.9 1.4.3.5.6 1 1 1.5.1.2.3.4.4.6l.3.5c.6.9 1.2 1.8 1.9 2.8l.1.1c.3.4.6.9 1 1.4.3.5.7 1 1 1.4.2.2.3.4.4.6l.3.4c.6.9 1.3 1.8 2 2.7l.2.2v.1s0 .1.1.1c.6.8 1.3 1.8 2 2.6 1.1 1.5 2.3 2.9 3.4 4.3l1.5 1.8c1.1 1.4 2.3 2.7 3.5 4.1 2.3 2.7 4.2 4.8 6 6.7 2 2.2 3 3.2 4.8 5l.5.5s2 2.1 5.1 5c1.5 1.4 3.3 3.1 5.2 4.8l.1.1.6.6c1.7 1.5 3.4 3 5.1 4.4.2.1.3.3.5.4l.2.2 5.1 4.2.4.3c.2.1.4.3.5.4.1.1.3.2.4.3 7.6 5.9 14 10.3 19.8 14 .1 0 .1.1.2.1l.3.2c2.2 1.4 4.3 2.7 6.4 4 5.5 3.3 11.4 6.6 17.5 9.6.6.3 1.1.6 1.7.9.2.1.5.2.7.3.8.4 1.7.8 2.5 1.2 10.4 5 21.2 9.4 31.1 12.6 1.1.4 2.4.8 3.7 1.2l4.8 1.5c1 .3 2.2.6 3.3.9 1.7.5 3.4 1 4.9 1.4 3 .8 6.9 1.8 9.9 2.5.4.1.9.2 1.3.3 2.1.5 4.2.9 6.3 1.4 2.1.4 4.2.9 6 1.2.2 0 .5.1.7.1 2.8.5 5.6.9 8.4 1.4.8.1 1.6.2 2.3.4l3.2.4c1.8.2 3.5.4 5.3.6 1 .1 2 .2 2.9.3 1.4.1 3 .3 4.7.4 8.8.8 18 1.1 27.3 1 2.4 0 4.9-.1 7-.1 4.8-.2 11.1-.5 15.9-1 3.5-.4 8.2-.8 11.7-1.3 2.9-.4 6.3-.9 9.7-1.5l2.1-.3c.4-.1.9-.2 1.4-.3 2.1-.4 4.2-.7 6-1.1l2.7-.6c8.4-1.7 16.5-3.8 24.3-6.2 2-.6 3.9-1.2 5.6-1.8.7-.2 1.5-.5 2.3-.8l2.7-.9 3.9-1.3 5.3-2c.6-.2 1.1-.4 1.7-.6l1.9-.7c2.5-1 5.8-2.4 8.4-3.6 4-1.8 8-3.6 12-5.6l4-2c2.3-1.2 5.4-2.8 7.6-4.1 2.5-1.4 5.8-3.3 8.2-4.8.5-.3 1.1-.6 1.7-1 5.1-3.1 10.5-6.7 15.8-10.6 1.3-1 2.6-1.9 3.7-2.8 0 0 .1-.1.2-.1 1.9-1.4 3.7-2.8 5.5-4.3.1 0 .1-.1.2-.1l.2-.1c5.7-4.5 11.1-9.2 15.8-13.8.7-.6 1.1-1.1 1.2-1.2 1.1-1 2.5-2.4 3.6-3.5.4-.4.9-.9 1.4-1.5l2-2c.6-.6 1.1-1.2 1.6-1.7.9-.9 2.1-2.2 2.9-3.2.5-.6 1.3-1.4 2.1-2.4l.3-.3c.1-.1.2-.2.2-.3l.1-.2c.2-.2.4-.5.6-.7 3.9-4.4 8.1-9.6 12.4-15.6 0 0 0-.1.1-.1v-.1c.7-1 1.5-2 2.2-3.1l.1-.2c0-.1.1-.2.2-.2l1.8-2.7c.1-.2.2-.3.3-.5l.1-.2c.5-.7 1-1.5 1.5-2.2.2-.3.4-.5.5-.8l.1-.2c.1-.2.2-.3.3-.5.2-.3.4-.7.6-1 .4-.7.8-1.3 1.3-2l.3-.4c.4-.6.8-1.3 1.2-2l.6-1.1c.9-1.5 1.2-2 2-3.4 0-.1.1-.2.1-.2l.5-.9c.3-.5.6-1 .9-1.6l.1-.1c.2-.3.3-.6.5-.9l.5-.9.3-.6s0-.1.1-.1c.1-.2.3-.5.4-.7 0-.1.1-.1.1-.2.2-.4.4-.7.6-1.1l.2-.4.2-.4s0 .1-.1.1l.5-.9c.2-.4.4-.9.7-1.3l.3-.6c.3-.5.6-1.2.9-1.8 0 0 0-.1.1-.1.1-.3.3-.6.4-.9.1-.2.2-.4.3-.5.1-.1.1-.2.2-.3l1.7-3.7c0-.1.1-.1.1-.2.5-1.1 1.1-2.4 1.6-3.5l.2-.6.6-1.3.8-1.8c.2-.4.4-1 .6-1.5.2-.4.3-.8.5-1.2.2-.6.5-1.1.7-1.6l.5-1.3c.2-.6.5-1.2.7-1.8.1-.2.1-.3.2-.5l.3-.7c.4-1 .7-2 1-2.9 0-.1 0-.1.1-.2.1-.4.3-.9.4-1.3.5-1.5.9-2.7 1.2-3.5v-.1c.1-.3.2-.5.2-.7.4-1.1.8-2.6 1.2-3.7.1-.3.2-.5.2-.8.4-1.2.7-2.5 1.1-3.9l.2-.6c.1-.2.1-.5.2-.7.3-1.1.6-2.3 1-3.5 0-.1 0-.2.1-.3l.1-.6c.3-1.2.6-2.4.9-3.7l.1-.3v-.2c4.3-16.1 7.5-37 6.9-60.3zM593.7 756.7v-1.5c0-.4.1-.8.1-1.2 0-.2 0-.3.1-.5 0-.3.1-.7.1-1 .1-.4.1-.8.2-1.2 0-.1 0-.3.1-.4.1-.4.2-.7.3-1.1.1-.4.2-.9.3-1.3 0-.1 0-.1.1-.2.1-.4.2-.8.4-1.2.2-.5.3-.9.5-1.4.1-.4.3-.8.5-1.2 0-.1 0-.1.1-.2.2-.4.4-.9.6-1.3.2-.4.3-.7.5-1.1 0-.1.1-.1.1-.2 0 0 .1-.1.1-.2.2-.4.4-.8.7-1.2.2-.4.4-.7.6-1.1.1-.2.2-.3.3-.5.2-.4.4-.7.7-1.1l.6-.9c.1-.2.3-.4.4-.6.2-.3.5-.7.8-1 .2-.3.4-.5.6-.8.2-.2.4-.4.5-.7.3-.3.6-.7.9-1 .2-.2.4-.5.6-.7l.6-.6.2-.2c.3-.3.6-.6.9-1l.6-.6c.2-.2.4-.3.5-.5.1-.1.3-.2.4-.4.3-.3.7-.6 1.1-1 .2-.1.3-.3.5-.5.2-.1.3-.3.5-.4l.3-.3c.1-.1.2-.2.3-.2.4-.3.8-.6 1.2-1 .1-.1.3-.2.4-.3.1-.1.3-.2.4-.3.1-.1.2-.1.3-.2.1-.1.3-.2.4-.3 0 0 .1-.1.2-.1.5-.3.9-.7 1.4-1 .1-.1.2-.1.3-.2.1-.1.2-.1.3-.2l.2-.2c.1-.1.2-.1.3-.2.1-.1.2-.1.3-.2.1-.1.2-.1.2-.2l1.8-1.2c.1 0 .1-.1.2-.1s.1-.1.2-.1c0 0 .1 0 .1-.1.1 0 .1-.1.2-.1s.1-.1.2-.1c0 0 .1 0 .1-.1.1-.1.2-.1.3-.2.1 0 .1-.1.2-.1 1-.6 2.1-1.3 3.2-1.9 1.4-.8 2.9-1.6 4.4-2.3.1 0 .2-.1.3-.1.1 0 .2-.1.2-.1.1 0 .2-.1.3-.1.3-.1.6-.3.8-.4 1-.5 2.1-1 3.2-1.4.1 0 .2-.1.3-.1.5-.2 1-.4 1.6-.7 1.1-.4 2.1-.9 3.2-1.3.6-.2 1.1-.4 1.7-.6h.1c1.2-.4 2.4-.8 3.7-1.3.2-.1.5-.1.7-.2.2-.1.5-.1.7-.2.2-.1.4-.1.6-.2 1.2-.4 2.5-.7 3.8-1.1l1.2-.3c.1 0 .3-.1.4-.1h.2c1.4-.4 2.7-.7 4.1-1 .1 0 .2 0 .3-.1.6-.1 1.2-.2 1.7-.4 1.2-.3 2.4-.5 3.6-.7.7-.1 1.3-.2 2-.4 1.2-.2 2.5-.4 3.7-.6.6-.1 1.3-.2 1.9-.3 1.5-.2 3-.4 4.6-.5.2 0 .4 0 .5-.1.4 0 .9-.1 1.3-.1l4.2-.3c.3 0 .7 0 1-.1h1.2c1.3-.1 2.6-.1 3.9-.2h8.2c1.3 0 2.6.1 3.9.1h1.2c.4 0 .8 0 1.1.1 1.4.1 2.7.2 4.1.3.4 0 .8.1 1.1.1h.6c1.6.1 3.1.3 4.6.5.5.1 1.1.1 1.6.2l4.2.6c.2 0 .4.1.6.1.8.1 1.5.2 2.3.4.7.1 1.4.2 2.1.4h.2c.7.1 1.4.3 2.1.4.6.1 1.3.3 1.9.4.1 0 .2.1.4.1.7.2 1.4.3 2 .5.6.1 1.2.3 1.8.4.1 0 .2.1.4.1.7.2 1.4.4 2.1.5.6.2 1.3.4 1.9.5h.1l2.1.6c.7.2 1.3.4 2 .6.7.2 1.4.5 2.1.7.7.2 1.3.5 2 .7.7.3 1.4.5 2.1.8.6.2 1.3.5 1.9.7.7.3 1.3.5 2 .8h.1c.6.3 1.2.5 1.8.8.7.3 1.3.6 1.9.9l1.8.9c.6.3 1.3.6 1.9 1 .6.3 1.2.6 1.7.9 1 .5 2 1.1 2.9 1.7 1 .6 2.1 1.3 3.1 1.9l.1.1s.1 0 .1.1l.1.1.1.1s.1 0 .1.1l.1.1c.1 0 .1.1.2.1l.1.1s.1 0 .1.1l.1.1.1.1c.5.4 1.1.8 1.6 1.1 0 0 .1 0 .1.1.1 0 .1.1.2.1l.1.1.1.1c.1.1.2.2.3.2.1.1.2.1.2.2l.1.1c.1 0 .1.1.2.1.1.1.2.1.3.2l1.2.9.2.1c.1.1.3.2.4.3l.3.3.2.2c.1.1.2.1.2.2.1.1.3.2.4.3.3.3.6.5.9.8l.3.3c.1.1.3.2.4.3l.2.2.3.3c.2.2.4.3.5.5.3.2.5.5.8.8l.4.4.3.3.3.3c.2.2.4.5.7.7l.6.6.3.3.3.3c.1.1.2.2.3.4.3.3.5.6.8.9.1.2.3.3.4.5 0 .1.1.1.1.2.1.1.2.3.3.4.1.1.2.3.3.4.3.4.6.8.8 1.2.1.1.2.3.3.4.1.1.2.3.3.4.1.1.2.3.3.4.3.5.7 1.1 1 1.6.1.1.2.3.2.4.1.1.2.3.3.5l.9 1.8c0 .1.1.1.1.2.1.2.1.3.2.5.3.7.6 1.3.9 2 .1.2.1.3.2.5.3.7.5 1.5.8 2.2 0 .1.1.2.1.3.2.8.5 1.7.7 2.5v.1c3.7 16.9-5.8 34.5-28.6 47.4-1.2.7-2.5 1.3-3.8 2-.1 0-.1.1-.2.1l-.6.3s-.1 0-.1.1c-.2.1-.3.2-.5.2-.9.4-1.8.9-2.8 1.3l-.6.3c-.4.1-.7.3-1.1.5-.9.4-1.8.8-2.8 1.1h-.1c-.5.2-1.1.4-1.6.6-1 .4-2 .7-3 1.1-.7.2-1.4.5-2.1.7h-.1c-5.3 1.8-10.9 3.2-16.6 4.3-.4.1-.8.1-1.1.2-1 .2-2.1.4-3.1.5-.3.1-.7.1-1 .2-1.3.2-2.7.4-4 .6-.2 0-.5.1-.7.1-1.1.1-2.3.3-3.4.4h-.4c-1.7.2-3.4.3-5.1.4-.4 0-.7 0-1.1.1-1.1.1-2.2.1-3.4.2h-.7c-.7 0-1.5.1-2.2.1h-5.7c-1.1 0-2.1 0-3.2-.1-.7 0-1.4 0-2.1-.1h-1c-.8 0-1.7-.1-2.5-.1-.5 0-1.1-.1-1.6-.1h-.6c-.4 0-.7-.1-1.1-.1-.8-.1-1.6-.1-2.4-.2-.3 0-.6-.1-1-.1-.3 0-.7-.1-1-.1-.5 0-.9-.1-1.4-.2-.9-.1-1.8-.2-2.8-.3-.4 0-.8-.1-1.1-.2-.6-.1-1.1-.2-1.7-.2-.9-.1-1.8-.3-2.7-.4-.3 0-.5-.1-.8-.1-.7-.1-1.4-.2-2-.4-.6-.1-1.1-.2-1.7-.3l-1.5-.3c-.6-.1-1.3-.3-1.9-.4-.2 0-.4-.1-.6-.1-.5-.1-1-.2-1.5-.4l-1.2-.3c-.5-.1-1.1-.3-1.6-.4-.2 0-.4-.1-.6-.2-.1 0-.2-.1-.3-.1-.5-.1-1.1-.3-1.6-.5-.3-.1-.7-.2-1-.3-.4-.1-.9-.3-1.3-.4-.2 0-.3-.1-.5-.2-.2 0-.3-.1-.5-.1-.1 0-.2-.1-.3-.1l-1.7-.6c-.3-.1-.5-.2-.8-.3-.4-.1-.7-.2-1.1-.4-.1 0-.3-.1-.4-.1-.1 0-.3-.1-.4-.1-.2-.1-.5-.2-.7-.2-.6-.2-1.2-.5-1.8-.7-.2-.1-.4-.1-.6-.2-.2-.1-.3-.1-.5-.2-.1 0-.2-.1-.3-.1-.1 0-.2-.1-.3-.1-.1 0-.2-.1-.3-.1-.2-.1-.4-.2-.6-.2-.2-.1-.3-.1-.5-.2h-.1c-.7-.3-1.3-.6-2-.9-.1 0-.2-.1-.4-.2-.1-.1-.2-.1-.4-.2-.1 0-.1-.1-.2-.1s-.1-.1-.2-.1-.1-.1-.2-.1l-.4-.2c-.1 0-.2-.1-.3-.1-.1 0-.1-.1-.2-.1h-.1s-.1 0-.2-.1c-.1 0-.1-.1-.2-.1l-2.4-1.2c-.1 0-.1-.1-.2-.1 0 0-.1 0-.2-.1 0 0-.1-.1-.2-.1h-.1s-.1 0-.1-.1c-.1 0-.1-.1-.2-.1s-.1 0-.2-.1c0 0-.1 0-.1-.1 0 0-.1 0-.1-.1-.1 0-.1-.1-.2-.1s-.1-.1-.2-.1h-.1s-.1 0-.1-.1c0 0-.1 0-.1-.1-1.4-.7-2.7-1.5-4-2.2-2-1.2-4-2.5-5.8-3.8-.5-.3-.9-.7-1.4-1l-1.5-1.2c-.4-.3-.9-.7-1.3-1-.5-.4-1-.8-1.4-1.2-.4-.3-.8-.7-1.2-1-.4-.4-.9-.8-1.3-1.3l-1.1-1.1c-.4-.4-.8-.9-1.2-1.3-.3-.4-.7-.7-1-1.1-.4-.4-.7-.9-1.1-1.3-.3-.3-.5-.6-.8-1l-.3-.3-.1-.1c-.3-.3-.5-.7-.7-1-.2-.3-.4-.5-.5-.8-.1-.1-.2-.2-.2-.4-.1-.1-.2-.3-.3-.4l-.6-1c-.1-.2-.2-.4-.4-.6 0-.1-.1-.2-.2-.3-.1-.2-.3-.5-.4-.7-.2-.3-.4-.7-.6-1.1-.1-.1-.1-.3-.2-.4 0 0 0-.1-.1-.1-.1-.3-.3-.6-.4-.9-.2-.4-.4-.9-.6-1.4v-.1c-.1-.3-.3-.7-.4-1-.2-.5-.4-1-.5-1.5l-.3-.9c0-.1-.1-.2-.1-.3-.1-.4-.2-.9-.4-1.4 0-.2-.1-.4-.2-.7 0-.2-.1-.4-.1-.6 0-.1 0-.3-.1-.4-.1-.4-.1-.8-.2-1.1v-.3c0-.2-.1-.5-.1-.7 0-.2 0-.4-.1-.7 0-.4-.1-.8-.1-1.1v-2.3c1 0 1-.4 1-.9z" class="color175294 svgShape"/><path fill="#774d11" d="M427.8 920.5c-.5 3.8-.8 7.7-1 11.5 0 .7-.1 1.4-.1 2.1v1.1c0 1.1-.1 2.1-.1 3.1v.5c-.1 2-.1 3.9-.1 5.7 0 8 .4 17.4 1.6 27.9.1.7.1 1.3.2 1.9 0 .3.1.5.1.8.4 3.6.8 5.8.8 5.9v.1c.1.4.1.8.2 1.2 0 .2.1.5.1.7.1.9.3 1.8.4 2.5v.2c.3 1.7.4 2.5.8 4.3v.1c.2 1 .4 2.1.7 3.3.1.4.2.9.3 1.3l.3 1.3c.2.9.4 1.8.6 2.6 0 .1 0 .2.1.3 0 .1 0 .2.1.3.1.2.4 1.6.9 3.7 0 .1.1.2.1.3 0 .2.1.4.1.6.2.9.5 1.8.7 2.8.1.5.3 1.1.4 1.6.3 1.2.5 2 .8 2.8.7 2.3 1.4 4.7 2.1 7 .1.3.2.5.3.8 3.7 11.3 8.4 22.9 14.6 34.6 1 1.9 1.7 3.1 1.8 3.3.4.8 1 1.9 1.8 3.2.1.1.1.2.2.4l.2.3c.5.9 1.1 1.9 1.8 3.1l.1.2s0 .1.1.1v.1c.1.2.3.5.4.7.5.8 1 1.7 1.5 2.6 0 0 0 .1.1.1l.1.2c.5.9 1.1 1.8 1.7 2.8l.3.4c.3.4.6.9.9 1.4.3.5.6 1 1 1.5.1.2.3.4.4.6l.3.5c.6.9 1.2 1.8 1.9 2.8l.1.2c.3.4.6.9 1 1.4.3.5.7 1 1 1.5.2.2.3.4.5.6l.3.4c.6.9 1.3 1.8 2 2.7l.2.2v.1s0 .1.1.1c.6.8 1.4 1.8 2 2.6 1.1 1.5 2.3 2.9 3.4 4.3l1.5 1.8c1.1 1.4 2.3 2.7 3.5 4.1 2.3 2.7 4.2 4.8 6 6.7 2 2.2 3 3.2 4.8 5l.5.5s2 2.1 5.1 5c1.5 1.4 3.3 3.1 5.2 4.8l.1.1.6.6c1.7 1.5 3.4 3 5.1 4.4.2.1.3.3.5.4l.2.2 5.1 4.2.4.3c.2.1.4.3.5.4.1.1.3.2.4.3 7.6 5.9 14 10.3 19.8 14 .1 0 .2.1.2.1l.3.2c2.2 1.4 4.3 2.7 6.4 4 5.5 3.3 11.4 6.5 17.5 9.6.6.3 1.1.6 1.7.9.2.1.5.2.7.4.9.4 1.7.8 2.5 1.2 10.4 5 21.2 9.4 31.1 12.6 1.1.4 2.4.8 3.7 1.2l4.8 1.5c1 .3 2.2.6 3.3.9 1.7.5 3.4 1 4.9 1.4 3 .8 6.9 1.8 9.9 2.5.4.1.9.2 1.3.3 2.1.5 4.2.9 6.3 1.4 2.1.4 4.2.9 6 1.2.2 0 .5.1.7.1 2.8.5 5.6.9 8.4 1.4.8.1 1.6.3 2.3.4l3.2.4c1.8.2 3.5.4 5.3.6 1 .1 2 .2 2.9.3 1.4.2 3 .3 4.8.4 8.8.8 18 1.1 27.3 1 2.4 0 4.9-.1 7-.1 4.8-.2 11.1-.5 15.9-1 3.5-.4 8.2-.8 11.7-1.3 2.9-.4 6.3-.9 9.7-1.5l2.1-.3c.4-.1.9-.2 1.4-.3 2.1-.4 4.2-.7 6-1.1l2.7-.6c8.4-1.7 16.5-3.8 24.3-6.2 2-.6 3.9-1.2 5.6-1.8.7-.2 1.5-.5 2.3-.8l2.7-.9 3.9-1.3 5.3-2c.6-.2 1.1-.4 1.7-.6l1.9-.7c2.5-1 5.8-2.4 8.4-3.5 4-1.8 8-3.6 12-5.6l4-2c2.3-1.2 5.4-2.8 7.6-4.1 2.5-1.4 5.8-3.3 8.2-4.8.5-.3 1.1-.6 1.7-1 5.1-3.1 10.5-6.7 15.8-10.6 1.4-1 2.6-1.9 3.7-2.8.1 0 .1-.1.2-.1 1.9-1.4 3.7-2.8 5.5-4.3.1 0 .1-.1.2-.1l.2-.1c5.7-4.5 11.1-9.2 15.8-13.8.7-.7 1.1-1.1 1.3-1.2 1.1-1 2.5-2.4 3.6-3.5.4-.4.9-.9 1.4-1.5l2-2c.6-.6 1.1-1.2 1.6-1.7.9-.9 2.1-2.2 2.9-3.2.5-.6 1.3-1.4 2.1-2.4l.3-.3.3-.3.2-.2c.2-.2.4-.5.6-.7 3.9-4.4 8.1-9.6 12.4-15.6 0 0 0-.1.1-.1v-.1c.7-1 1.5-2 2.2-3.1l.1-.2c.1-.1.1-.2.2-.2l1.8-2.7c.1-.2.2-.4.4-.5l.1-.2c.5-.7 1-1.5 1.5-2.2.2-.3.4-.5.5-.8l.1-.2c.1-.2.2-.3.3-.5.2-.3.4-.7.7-1 .4-.7.8-1.3 1.3-2l.3-.4c.4-.6.8-1.3 1.2-2l.6-1.1c.9-1.5 1.2-2 2-3.4 0-.1.1-.2.1-.2l.5-.9c.3-.5.6-1.1.9-1.6l.1-.1c.2-.3.3-.6.5-.9l.5-.9.3-.6s0-.1.1-.1c.1-.2.3-.5.4-.7 0-.1.1-.1.1-.2.2-.4.4-.7.6-1.1l.2-.4.2-.4-.1.1.5-.9c.2-.4.4-.9.7-1.3l.3-.6c.3-.5.6-1.2.9-1.8 0 0 0-.1.1-.1.1-.3.3-.6.4-.9.1-.2.2-.4.3-.5.1-.1.1-.2.2-.4l1.7-3.7c0-.1.1-.2.1-.2.5-1.1 1.1-2.4 1.6-3.5l.3-.6c.2-.4.4-.9.6-1.3l.8-1.8c.2-.4.4-1 .6-1.5.2-.4.3-.8.5-1.2.2-.6.5-1.1.7-1.6l.5-1.3c.2-.6.5-1.2.7-1.8.1-.2.1-.3.2-.5l.3-.7c.4-1 .7-2 1.1-2.9 0-.1 0-.1.1-.2.2-.4.3-.9.4-1.3.5-1.5.9-2.7 1.2-3.5v-.1c.1-.3.2-.5.2-.7.4-1.1.8-2.6 1.2-3.7 0 .1 0 .1-.1.2.1-.3.2-.7.3-1 .4-1.2.7-2.5 1.1-3.9l.2-.6c.1-.2.1-.5.2-.7.3-1.1.6-2.3.9-3.5 0-.1.1-.2.1-.3l.1-.6.9-3.6.1-.3c0-.1 0-.2.1-.2 3.8-16 7.1-36.8 6.5-60.1v-.4c0-1.1-.1-2.5-.1-4v-.3c-.1-1.3-.2-3.1-.2-4.4v-.6c-.1-1.6-.2-2.9-.3-3.8-.2-1.7-.2-2.4-.4-3.9v-.3l-.2-1.3s1.4 227.5-262 227.5-262.4-228.8-262.4-228.8z" class="color114077 svgShape"/><path fill="#8a5914" d="M832.1 765.8v-.1c-.3-1.2-.6-2.5-1-3.7 0-.1-.1-.3-.1-.4-.3-1.1-.7-2.2-1.2-3.3-.1-.2-.2-.5-.3-.7-.4-1-.8-2-1.3-3-.1-.2-.2-.5-.3-.7 0-.1-.1-.2-.2-.3-.4-.9-.9-1.8-1.4-2.6-.1-.2-.2-.5-.4-.7-.1-.2-.2-.4-.4-.6l-1.5-2.4c-.1-.2-.3-.4-.4-.6-.1-.2-.3-.4-.4-.6-.1-.2-.3-.4-.4-.6-.4-.6-.8-1.1-1.2-1.7-.1-.2-.3-.4-.4-.6-.2-.2-.3-.4-.5-.6-.1-.1-.1-.2-.2-.3-.2-.2-.4-.5-.6-.7-.4-.5-.7-.9-1.1-1.4-.1-.2-.3-.3-.4-.5-.1-.2-.3-.3-.4-.5-.1-.2-.3-.3-.4-.5-.1-.1-.1-.2-.2-.2l-2.3-1.3-2.7-1.5c-1.9-1-8.7-4.7-17.3-8.7-1.6-.7-3.2-1.5-4.8-2.2l-.5-.2-3.5-1.5-.3-.1c-1.6-.7-3.1-1.3-4.7-2l-.4-.2c-1.1-.5-2.7-1.1-3.8-1.5l-3.6-1.4-.9-.3c-.2-.1-.5-.2-.7-.3-.8-.3-1.5-.6-2.2-.8l-1.2-.4c-.5-.2-.9-.3-1.4-.5l-.9-.3c-.8-.3-1.7-.6-2.6-.9-.2-.1-.5-.2-.7-.2-.1 0-.3-.1-.4-.1L760 713l-.5-.1c-.1 0-.2-.1-.2-.1H759c-.1 0-.3-.1-.4-.1-.1 0-.1 0-.2-.1-1.1-.3-2.3-.7-3.3-1l-.8-.2-1.2-.3-1.6-.4c-.6-.2-1.3-.4-2-.5-.3-.1-.6-.2-.9-.2-.4-.1-.7-.2-1.1-.3l-2.4-.6c-.3-.1-.6-.1-.8-.2l-.3-.1c-1.2-.3-2.9-.7-4.1-1-1.2-.3-2.4-.5-3.5-.8h-.2c-.5-.1-1-.2-1.6-.3-.7-.2-1.5-.3-2.2-.4-.2 0-.5-.1-.7-.1l-.5-.1c-1-.2-1.9-.4-2.9-.5l-.5-.1h-.1c-1.6-.3-3.2-.6-4.7-.8h-.5c-.5-.1-.9-.1-1.4-.2-.2 0-.4-.1-.7-.1-.5-.1-1-.1-1.6-.2-.1 0-.3 0-.4-.1-.2 0-.3 0-.5-.1-6.5-.9-11.3-1.2-14.2-1.4-.7 0-1.4-.1-2.1-.1-1-.1-1.9-.1-2.9-.2-1 0-1.9-.1-2.9-.1-3.1-.1-6.1-.1-9.1 0-3.4.1-6.7.2-9.8.4h-.6c-2 .1-4.8.4-6.8.6-8 .8-14.5 1.9-16.9 2.3-.8.1-2.1.4-3.5.6-.1 0-.3 0-.4.1h-.2c-1.4.3-2.8.6-4.1.8-.1 0-.2 0-.3.1-1.1.2-2.4.5-3.4.7l-.7.2c-.9.2-1.8.4-2.6.6l-.5.1c-1.2.3-2.7.7-3.9 1-.3.1-.9.2-1.6.4-11.2 3-21.8 6.6-31.2 10.4l-.3.1c-.2.1-.4.2-.6.2-.3.1-.5.2-.8.3-.7.3-1.4.6-1.9.8-.2.1-2.1.9-5.1 2.2-.1 0-.2.1-.3.1l-.4.2c-1.4.6-3.1 1.4-4.9 2.2l-.2.1c-.2.1-.3.2-.5.2-1.7.8-3.5 1.6-5.4 2.5-1.8.9-4.2 2-5.9 3-.1 0-.2.1-.3.1-1.7.9-3.6 1.9-5.2 2.7-1.2.7-2.7 1.5-4.1 2.3l-.5.5c-.3.3-.6.7-.9 1-.4.5-.9 1-1.3 1.5-.3.3-.5.7-.8 1l-.9 1.2c-.4.5-.8 1-1.1 1.5l-.6.9c-.3.5-.6.9-.9 1.4-.3.5-.7 1-1 1.6-.1.2-.3.5-.4.7-.3.5-.6 1-.9 1.6-.3.6-.7 1.2-1 1.8 0 .1-.1.1-.1.2s-.1.2-.1.3c-.3.5-.5 1.1-.8 1.6-.3.6-.6 1.3-.9 2 0 .1-.1.2-.1.3-.2.6-.5 1.2-.7 1.7-.3.7-.5 1.4-.8 2.1l-.6 1.8c0 .1-.1.2-.1.3-.2.6-.4 1.3-.5 1.9-.1.5-.3 1.1-.4 1.6 0 .2-.1.4-.1.6l-.3 1.8c-.1.5-.1 1-.2 1.5 0 .2-.1.5-.1.7-.1.6-.1 1.2-.2 1.8 0 .4-.1.9-.1 1.3v5.3c0 .3 0 .6.1.9 0 .6.1 1.1.2 1.7 0 .3.1.6.1 1 0 .3.1.7.1 1 0 .1 0 .2.1.4.1.5.2 1.1.3 1.7 0 .2.1.4.1.6.1.3.1.6.2.8.1.3.2.7.2 1 .2.7.3 1.3.5 2 0 .1.1.3.1.4.1.5.3.9.4 1.4.2.7.5 1.5.8 2.2l.6 1.5c0 .1 0 .1.1.2.3.7.6 1.3.9 2 .2.4.4.9.6 1.3 0 .1.1.1.1.2l.3.6c.3.5.5 1 .8 1.6.2.3.4.7.6 1 .1.1.2.3.2.4.2.3.4.6.5.9.3.5.6 1 .9 1.4.1.2.3.4.4.6l.4.5c.3.4.5.8.8 1.1.4.5.7 1 1.1 1.5 0 .1.1.1.1.2.1.2.2.3.4.5.4.5.8.9 1.1 1.4.5.7 1.1 1.3 1.6 2 .5.5 1 1.1 1.4 1.6.6.6 1.2 1.3 1.8 1.9l1.6 1.6c.6.6 1.3 1.2 1.9 1.9.6.5 1.2 1 1.7 1.6l2.1 1.8c.6.5 1.3 1 1.9 1.5.7.6 1.5 1.2 2.3 1.8.7.5 1.3 1 2 1.5 2.7 1.9 5.5 3.8 8.6 5.6 1.9 1.1 3.9 2.3 5.9 3.3 0 0 .1 0 .1.1h.1c.1 0 .1.1.2.1h.1c.1 0 .2.1.3.1.1 0 .2.1.3.1 0 0 .1 0 .2.1.1 0 .1 0 .2.1.1 0 .2.1.2.1.1.1.2.1.3.2.1 0 .1.1.2.1 0 0 .1 0 .1.1.1 0 .2.1.2.1.1 0 .1.1.2.1s.2.1.3.1c1.2.6 2.3 1.2 3.5 1.7.1 0 .2.1.3.1.1 0 .2.1.2.1s.1.1.2.1.2.1.3.1c.2.1.3.1.5.2l.6.3c.1 0 .2.1.3.1.1 0 .2.1.3.1.1 0 .2.1.3.1.2.1.4.2.5.2.2.1.4.1.5.2 1 .4 1.9.9 2.9 1.3h.1c.2.1.5.2.7.3.3.1.6.2.8.3.1.1.3.1.4.2.1.1.3.1.4.2.2.1.3.1.5.2.3.1.5.2.8.3.3.1.6.2.8.3.9.3 1.8.7 2.7 1 .3.1.7.2 1.1.4.2.1.4.1.6.2.2.1.4.1.6.2.5.2 1 .4 1.6.5.4.1.8.3 1.2.4.8.3 1.7.6 2.5.8.1 0 .3.1.4.1.2.1.5.1.7.2.2.1.5.1.7.2.7.2 1.3.4 2 .6.5.1 1 .3 1.5.4.8.2 1.6.5 2.4.7.2 0 .3.1.5.1.3.1.6.1.9.2l2.4.6c.6.1 1.2.3 1.8.4.8.2 1.5.4 2.3.5.3.1.6.1.9.2.9.2 1.9.4 2.8.6.7.1 1.4.3 2.2.4.8.2 1.7.3 2.5.5 1 .2 2 .4 3 .5.4.1.8.1 1.2.2 1.3.2 2.6.4 4 .6.8.1 1.7.2 2.5.4.6.1 1.1.2 1.7.2 1.4.2 2.7.3 4.1.5.7.1 1.3.2 2 .2.5.1 1 .1 1.5.2.5 0 1 .1 1.4.1 1.2.1 2.3.2 3.5.3.5 0 1.1.1 1.7.1.3 0 .6 0 1 .1.8.1 1.6.1 2.4.1 1.2.1 2.5.1 3.7.2.5 0 1 0 1.5.1 1 0 2.1.1 3.1.1 1.6 0 3.2.1 4.8.1h3.5c1.6 0 3.2 0 4.8-.1 1.1 0 2.2-.1 3.3-.1h1.1c1.7-.1 3.3-.2 5-.3.5 0 1.1 0 1.6-.1 2.5-.2 5-.4 7.5-.7h.5c1.7-.2 3.3-.4 5-.6.4 0 .7-.1 1.1-.1l6-.9c.5-.1 1-.2 1.5-.2 1.5-.3 3.1-.5 4.6-.8.6-.1 1.1-.2 1.7-.3 8.5-1.6 16.7-3.8 24.6-6.4.1 0 .1 0 .2-.1 1-.3 2-.7 3-1.1 1.5-.5 3-1 4.4-1.6l2.4-.9s.1 0 .1-.1c1.4-.5 2.7-1.1 4.1-1.7.5-.2 1.1-.5 1.6-.7.3-.1.6-.3.9-.4 1.4-.6 2.8-1.3 4.1-1.9.3-.1.5-.2.8-.4.1 0 .1-.1.2-.1.3-.1.6-.3 1-.5.1 0 .2-.1.3-.1 1.9-.9 3.7-1.9 5.6-2.9 33.9-18.1 48.1-44.3 42.5-69.2zm-74.7 32.6c-1.2.7-2.5 1.3-3.8 2-.1 0-.1.1-.2.1l-.6.3s-.1 0-.1.1c-.2.1-.3.2-.5.2-.9.4-1.8.9-2.8 1.3l-.6.3c-.4.1-.7.3-1.1.5-.9.4-1.8.8-2.8 1.1h-.1c-.5.2-1.1.4-1.6.6-1 .4-2 .7-3 1.1-.7.2-1.4.5-2.1.7h-.1c-5.3 1.8-10.9 3.2-16.6 4.3-.4.1-.8.1-1.1.2-1 .2-2.1.4-3.1.5-.3.1-.7.1-1 .2-1.3.2-2.7.4-4 .6-.2 0-.5.1-.7.1-1.1.1-2.3.3-3.4.4h-.4c-1.7.2-3.4.3-5.1.4-.4 0-.7 0-1.1.1-1.1.1-2.2.1-3.4.2h-.7c-.7 0-1.5.1-2.2.1h-5.7c-1.1 0-2.1 0-3.2-.1-.7 0-1.4 0-2.1-.1h-1c-.8 0-1.7-.1-2.5-.1-.5 0-1.1-.1-1.6-.1h-.6c-.4 0-.7-.1-1.1-.1-.8-.1-1.6-.1-2.4-.2-.3 0-.6-.1-1-.1-.3 0-.7-.1-1-.1-.5 0-.9-.1-1.4-.2-.9-.1-1.8-.2-2.8-.3-.4 0-.8-.1-1.1-.2-.6-.1-1.1-.2-1.7-.2-.9-.1-1.8-.3-2.7-.4-.3 0-.5-.1-.8-.1-.7-.1-1.4-.2-2-.4-.6-.1-1.1-.2-1.7-.3l-1.5-.3c-.6-.1-1.3-.3-1.9-.4-.2 0-.4-.1-.6-.1-.5-.1-1-.2-1.5-.4l-1.2-.3c-.5-.1-1.1-.3-1.6-.4-.2 0-.4-.1-.6-.2-.1 0-.2-.1-.3-.1-.5-.1-1.1-.3-1.6-.5-.3-.1-.7-.2-1-.3-.4-.1-.9-.3-1.3-.4-.2 0-.3-.1-.5-.2-.2 0-.3-.1-.5-.1-.1 0-.2-.1-.3-.1l-1.7-.6c-.3-.1-.5-.2-.8-.3-.4-.1-.7-.2-1.1-.4-.1 0-.3-.1-.4-.1-.1 0-.3-.1-.4-.1-.2-.1-.5-.2-.7-.2-.6-.2-1.2-.5-1.8-.7-.2-.1-.4-.1-.6-.2-.2-.1-.3-.1-.5-.2-.1 0-.2-.1-.3-.1-.1 0-.2-.1-.3-.1-.1 0-.2-.1-.3-.1-.2-.1-.4-.2-.6-.2-.2-.1-.3-.1-.5-.2h-.1c-.7-.3-1.3-.6-2-.9-.1 0-.2-.1-.4-.2-.1-.1-.2-.1-.4-.2-.1 0-.1-.1-.2-.1s-.1-.1-.2-.1-.1-.1-.2-.1l-.4-.2c-.1 0-.2-.1-.3-.1-.1 0-.1-.1-.2-.1h-.1s-.1 0-.2-.1c-.1 0-.1-.1-.2-.1l-2.4-1.2c-.1 0-.1-.1-.2-.1 0 0-.1 0-.2-.1 0 0-.1-.1-.2-.1h-.1s-.1 0-.1-.1c-.1 0-.1-.1-.2-.1s-.1 0-.2-.1c0 0-.1 0-.1-.1 0 0-.1 0-.1-.1-.1 0-.1-.1-.2-.1s-.1-.1-.2-.1h-.1s-.1 0-.1-.1c0 0-.1 0-.1-.1-1.4-.7-2.7-1.5-4-2.2-2-1.2-4-2.5-5.8-3.8-.5-.3-.9-.7-1.4-1l-1.5-1.2c-.4-.3-.9-.7-1.3-1-.5-.4-1-.8-1.4-1.2-.4-.3-.8-.7-1.2-1-.4-.4-.9-.8-1.3-1.3l-1.1-1.1c-.4-.4-.8-.9-1.2-1.3-.3-.4-.7-.7-1-1.1-.4-.4-.7-.9-1.1-1.3-.3-.3-.5-.6-.8-1l-.3-.3-.1-.1c-.3-.3-.5-.7-.7-1-.2-.3-.4-.5-.5-.8-.1-.1-.2-.2-.2-.4-.1-.1-.2-.3-.3-.4l-.6-1c-.1-.2-.2-.4-.4-.6 0-.1-.1-.2-.2-.3-.1-.2-.3-.5-.4-.7-.2-.3-.4-.7-.6-1.1-.1-.1-.1-.3-.2-.4 0 0 0-.1-.1-.1-.1-.3-.3-.6-.4-.9-.2-.4-.4-.9-.6-1.4v-.1c-.1-.3-.3-.7-.4-1-.2-.5-.4-1-.5-1.5l-.3-.9c0-.1-.1-.2-.1-.3-.1-.4-.2-.9-.4-1.4 0-.2-.1-.4-.2-.7 0-.2-.1-.4-.1-.6 0-.1 0-.3-.1-.4-.1-.4-.1-.8-.2-1.1v-.3c0-.2-.1-.5-.1-.7 0-.2 0-.4-.1-.7 0-.4-.1-.8-.1-1.1V755c0-.4.1-.8.1-1.2 0-.2 0-.3.1-.5 0-.3.1-.7.1-1 .1-.4.1-.8.2-1.2 0-.1 0-.3.1-.4.1-.4.2-.7.3-1.1.1-.4.2-.9.3-1.3 0-.1 0-.1.1-.2.1-.4.2-.8.4-1.2.2-.5.3-.9.5-1.4.1-.4.3-.8.5-1.2 0-.1 0-.1.1-.2.2-.4.4-.9.6-1.3.2-.4.3-.7.5-1.1 0-.1.1-.1.1-.2 0 0 .1-.1.1-.2.2-.4.4-.8.7-1.2.2-.4.4-.7.6-1.1.1-.2.2-.3.3-.5.2-.4.4-.7.7-1.1l.6-.9c.1-.2.3-.4.4-.6.2-.3.5-.7.8-1 .2-.3.4-.5.6-.8.2-.2.4-.4.5-.7.3-.3.6-.7.9-1 .2-.2.4-.5.6-.7l.6-.6.2-.2c.3-.3.6-.6.9-1l.6-.6c.2-.2.4-.3.5-.5.1-.1.3-.2.4-.4.3-.3.7-.6 1.1-1 .2-.1.3-.3.5-.5.2-.1.3-.3.5-.4l.3-.3c.1-.1.2-.2.3-.2.4-.3.8-.6 1.2-1 .1-.1.3-.2.4-.3.1-.1.3-.2.4-.3.1-.1.2-.1.3-.2.1-.1.3-.2.4-.3 0 0 .1-.1.2-.1.5-.3.9-.7 1.4-1 .1-.1.2-.1.3-.2.1-.1.2-.1.3-.2l.2-.2c.1-.1.2-.1.3-.2.1-.1.2-.1.3-.2.1-.1.2-.1.2-.2l1.8-1.2c.1 0 .1-.1.2-.1s.1-.1.2-.1c0 0 .1 0 .1-.1.1 0 .1-.1.2-.1s.1-.1.2-.1c0 0 .1 0 .1-.1.1-.1.2-.1.3-.2.1 0 .1-.1.2-.1 1-.6 2.1-1.3 3.2-1.9 1.4-.8 2.9-1.6 4.4-2.3.1 0 .2-.1.3-.1.1 0 .2-.1.2-.1.1 0 .2-.1.3-.1.3-.1.6-.3.8-.4 1-.5 2.1-1 3.2-1.4.1 0 .2-.1.3-.1.5-.2 1-.4 1.6-.7 1.1-.4 2.1-.9 3.2-1.3.6-.2 1.1-.4 1.7-.6h.1c1.2-.4 2.4-.8 3.7-1.3.2-.1.5-.1.7-.2.2-.1.5-.1.7-.2.2-.1.4-.1.6-.2 1.2-.4 2.5-.7 3.8-1.1l1.2-.3c.1 0 .3-.1.4-.1h.2c1.4-.4 2.7-.7 4.1-1 .1 0 .2 0 .3-.1.6-.1 1.2-.2 1.7-.4 1.2-.3 2.4-.5 3.6-.7.7-.1 1.3-.2 2-.4 1.2-.2 2.5-.4 3.7-.6.6-.1 1.3-.2 1.9-.3 1.5-.2 3-.4 4.6-.5.2 0 .4 0 .5-.1.4 0 .9-.1 1.3-.1l4.2-.3c.3 0 .7 0 1-.1h1.2c1.3-.1 2.6-.1 3.9-.2h8.2c1.3 0 2.6.1 3.9.1h1.2c.4 0 .8 0 1.1.1 1.4.1 2.7.2 4.1.3.4 0 .8.1 1.1.1h.6c1.6.1 3.1.3 4.6.5.5.1 1.1.1 1.6.2l4.2.6c.2 0 .4.1.6.1.8.1 1.5.2 2.3.4.7.1 1.4.2 2.1.4h.2c.7.1 1.4.3 2.1.4.6.1 1.3.3 1.9.4.1 0 .2.1.4.1.7.2 1.4.3 2 .5.6.1 1.2.3 1.8.4.1 0 .2.1.4.1.7.2 1.4.4 2.1.5.6.2 1.3.4 1.9.5h.1l2.1.6c.7.2 1.3.4 2 .6.7.2 1.4.5 2.1.7.7.2 1.3.5 2 .7.7.3 1.4.5 2.1.8.6.2 1.3.5 1.9.7.7.3 1.3.5 2 .8h.1c.6.3 1.2.5 1.8.8.7.3 1.3.6 1.9.9l1.8.9c.6.3 1.3.6 1.9 1 .6.3 1.2.6 1.7.9 1 .5 2 1.1 2.9 1.7 1 .6 2.1 1.3 3.1 1.9l.1.1s.1 0 .1.1l.1.1.1.1s.1 0 .1.1l.1.1c.1 0 .1.1.2.1l.1.1s.1 0 .1.1l.1.1.1.1c.5.4 1.1.8 1.6 1.1 0 0 .1 0 .1.1.1 0 .1.1.2.1l.1.1.1.1c.1.1.2.2.3.2.1.1.2.1.2.2l.1.1c.1 0 .1.1.2.1.1.1.2.1.3.2l1.2.9.2.1c.1.1.3.2.4.3l.3.3.2.2c.1.1.2.1.2.2.1.1.3.2.4.3.3.3.6.5.9.8l.3.3c.1.1.3.2.4.3l.2.2.3.3c.2.2.4.3.5.5.3.2.5.5.8.8l.4.4.3.3.3.3c.2.2.4.5.7.7l.6.6.3.3.3.3c.1.1.2.2.3.4.3.3.5.6.8.9.1.2.3.3.4.5 0 .1.1.1.1.2.1.1.2.3.3.4.1.1.2.3.3.4.3.4.6.8.8 1.2.1.1.2.3.3.4.1.1.2.3.3.4.1.1.2.3.3.4.3.5.7 1.1 1 1.6.1.1.2.3.2.4.1.1.2.3.3.5l.9 1.8c0 .1.1.1.1.2.1.2.1.3.2.5.3.7.6 1.3.9 2 .1.2.1.3.2.5.3.7.5 1.5.8 2.2 0 .1.1.2.1.3.2.8.5 1.7.7 2.5v.1c4.8 17.3-4.8 34.9-27.6 47.8z" class="color144B8A svgShape"/><path fill="#613e0c" d="M807.7 656.1v.3c0 .7 0 1.3-.1 2v.5c0 .5-.1 1-.1 1.4 0 .2-.1.4-.1.7-.1.5-.1.9-.2 1.4 0 .2-.1.4-.1.6-.1.6-.2 1.2-.4 1.8v.2c-.2.6-.3 1.3-.5 1.9-.1.2-.1.4-.2.6-.1.5-.3.9-.5 1.4-.1.2-.2.5-.2.7-.2.5-.3.9-.5 1.4-.1.2-.2.4-.2.6-.3.6-.5 1.3-.8 1.9-16 34.4-32.1 68.9-48.1 103.3.3-.6.5-1.1.7-1.7 0-.1.1-.2.1-.4.2-.6.4-1.1.6-1.7 0-.1 0-.2.1-.3.1-.5.3-1 .4-1.6 0-.1 0-.2.1-.3.1-.6.2-1.1.3-1.7v-.4c.1-.5.1-1.1.1-1.7v-2.2c0-.6-.1-1.2-.2-1.7v-.2c-.1-.5-.2-1.1-.3-1.6 0-.1 0-.2-.1-.3-.1-.6-.3-1.1-.5-1.7 0-.1-.1-.2-.1-.3-.2-.5-.4-1.1-.6-1.6 0-.1-.1-.1-.1-.2-.2-.6-.5-1.1-.8-1.7-.1-.1-.1-.3-.2-.4-.3-.6-.6-1.1-.9-1.7l-.1-.1c-.3-.5-.7-1-1-1.6-.1-.1-.2-.2-.2-.4-.4-.5-.8-1.1-1.2-1.6-.1-.1-.2-.2-.2-.3-.4-.5-.8-1-1.3-1.4l-.2-.2-1.5-1.5-.5-.5c-.2-.2-.4-.4-.7-.6-.2-.2-.4-.3-.6-.5-.2-.2-.5-.4-.7-.6-.2-.2-.4-.3-.6-.5-.2-.2-.5-.4-.7-.6-.2-.2-.4-.3-.7-.5-.3-.2-.5-.4-.8-.6-.2-.2-.4-.3-.7-.5-.4-.3-.8-.5-1.1-.8-.2-.1-.4-.2-.5-.4-.6-.4-1.1-.7-1.7-1.1-.6-.4-1.3-.7-1.9-1.1-.3-.2-.7-.4-1-.5-.5-.3-1-.5-1.5-.8-.3-.2-.7-.3-1-.5-.3-.1-.6-.3-.9-.4-1.2-.6-2.5-1.1-3.7-1.6-.1 0-.2-.1-.3-.1-1.2-.5-2.5-1-3.8-1.4-.3-.1-.6-.2-1-.3-1.1-.4-2.2-.7-3.3-1-.2-.1-.4-.1-.5-.2-1.2-.4-2.5-.7-3.8-1-.3-.1-.7-.2-1-.2-1-.2-1.9-.4-2.9-.6-.4-.1-.7-.1-1.1-.2-1.3-.2-2.5-.5-3.8-.7h-.2c-.7-.1-1.5-.2-2.2-.3-.5-.1-.9-.1-1.4-.2-.4 0-.8-.1-1.2-.1l-2.7-.3c-.4 0-.8-.1-1.2-.1-1-.1-2.1-.1-3.1-.2h-.7c-1.2 0-2.5-.1-3.7-.1h-4.9c-.8 0-1.7.1-2.5.1-.4 0-.8 0-1.2.1-1.2.1-2.3.2-3.5.3h-.4c-1.2.1-2.4.3-3.7.5-.2 0-.4 0-.6.1-.4.1-.9.1-1.3.2l-1.8.3-1.5.3c-.6.1-1.2.2-1.7.3-.5.1-1.1.2-1.6.3l-1.2.3c-.6.1-1.2.3-1.8.4-.4.1-.7.2-1.1.3-.6.2-1.2.3-1.8.5-.3.1-.7.2-1 .3-.7.2-1.5.5-2.2.7-.2.1-.4.1-.6.2l-2.7.9c-.2.1-.5.2-.7.3-.6.2-1.3.5-1.9.8-.3.1-.6.3-1 .4-.5.2-1.1.5-1.6.7-.3.2-.7.3-1 .5l-1.2.6c-1.2.6-2.3 1.2-3.4 1.8-.9.5-1.8 1-2.6 1.6-.1.1-.2.2-.4.2-.8.5-1.6 1-2.3 1.6-.2.1-.4.3-.6.4-.2.2-.4.3-.7.5-.2.2-.5.4-.7.6-.2.2-.4.3-.6.5-.2.2-.5.4-.7.6-.2.2-.4.3-.6.5l-.6.6c-.2.2-.4.3-.6.5-.2.1-.3.3-.4.4-.5.4-.9.9-1.3 1.3l-.2.2c-.5.5-.9 1-1.3 1.5-.1.1-.2.3-.3.4-.3.3-.5.7-.8 1-.1.2-.2.3-.3.4-.3.4-.6.9-.9 1.3l-.1.1c-.3.5-.6.9-.8 1.3-.1.1-.2.3-.2.4-.2.3-.3.6-.5 1-.1.2-.2.4-.3.5-.1.3-.2.5-.4.8-.1.2-.2.4-.2.5-.1.3-.2.5-.3.8-.1.2-.1.4-.2.6-.1.2-.2.5-.2.7-.1.2-.1.4-.2.6-.1.2-.1.5-.2.8 0 .2-.1.4-.1.6-.1.2-.1.5-.2.7 0 .2-.1.4-.1.6 0 .2-.1.5-.1.7 0 .2-.1.4-.1.6 0 .2-.1.5-.1.7v3.2c0 .3 0 .6.1.8v.5c0 .4.1.9.2 1.3v.1c.1.4.1.8.2 1.2 0 .1.1.3.1.4.1.3.2.6.2.9.1.2.1.3.2.5.1.3.2.5.3.8 0 .1.1.2.1.2.3.7.5 1.4.9 2.2-15.9-34.5-31.7-69.1-47.6-103.6l-.9-2.1c-.1-.2-.2-.5-.3-.7-.2-.4-.3-.8-.5-1.2 0-.1 0-.1-.1-.2-.2-.5-.3-.9-.4-1.4l-.3-.9c-.2-.5-.3-1.1-.4-1.6-.1-.2-.1-.4-.2-.6v-.1c-.2-.7-.3-1.3-.4-2v-.2c-.1-.8-.2-1.5-.3-2.2 0-.2 0-.5-.1-.8 0-.5-.1-1-.1-1.5V653c0-.3.1-.7.1-1 0-.4.1-.8.1-1.3v-.2c0-.3.1-.5.1-.8.1-.4.1-.9.2-1.3.1-.3.1-.7.2-1l.3-1.2c0-.1 0-.2.1-.3.1-.2.1-.5.2-.7.1-.4.2-.9.4-1.3.1-.3.2-.7.3-1 .1-.4.3-.9.4-1.3.1-.2.1-.3.1-.4.1-.2.2-.4.2-.5.2-.5.3-.9.5-1.4.1-.3.3-.6.4-1 .2-.5.4-.9.6-1.3l.3-.6c.1-.1.1-.2.2-.3.3-.5.6-1.1.9-1.7.1-.2.2-.5.4-.7.4-.8.9-1.5 1.4-2.3 0-.1.1-.1.1-.2.5-.8 1-1.5 1.5-2.2.2-.3.4-.5.6-.8.4-.6.9-1.2 1.4-1.7.1-.2.2-.3.4-.5l.4-.4c.2-.2.3-.4.5-.6.4-.5.8-.9 1.2-1.4.1-.2.3-.3.4-.4.5-.6 1.1-1.2 1.7-1.8l.4-.4 1-1c.1-.1.3-.2.4-.4.3-.3.7-.6 1-.9.4-.3.7-.7 1.1-1 .3-.3.7-.6 1-.9.4-.3.8-.7 1.2-1 .4-.3.7-.6 1.1-.9l1.2-.9 1.2-.9c.2-.2.4-.3.6-.5.2-.2.5-.3.7-.5.3-.2.7-.5 1-.7.5-.3 1-.7 1.5-1 .3-.2.6-.4 1-.6.6-.4 1.2-.7 1.8-1.1.3-.2.6-.4.9-.5.9-.5 1.8-1.1 2.7-1.6 1.3-.7 2.6-1.4 4-2.1l1.2-.6c.5-.2 1-.5 1.5-.7.5-.2.9-.4 1.4-.6.6-.3 1.1-.5 1.7-.8.9-.4 1.9-.8 2.8-1.2.5-.2 1.1-.5 1.6-.7 1.1-.5 2.2-.9 3.3-1.3.4-.2.8-.3 1.3-.5 1.5-.6 3.1-1.1 4.7-1.6.3-.1.6-.2 1-.3 1.3-.4 2.5-.8 3.8-1.2.6-.2 1.2-.3 1.7-.5 1-.3 2.1-.6 3.2-.9.6-.2 1.3-.3 1.9-.5 1-.2 2-.5 3.1-.7.7-.2 1.3-.3 2-.4l1.2-.3 1.5-.3 3-.6c.9-.2 1.7-.3 2.6-.5 1-.2 2-.3 3-.5.5-.1.9-.2 1.3-.2.6-.1 1.1-.2 1.7-.2.5-.1 1-.1 1.5-.2 1.5-.2 2.9-.4 4.4-.5.2 0 .4 0 .6-.1h.1c1.5-.2 3.1-.3 4.7-.4h.1c.4 0 .8-.1 1.2-.1.5 0 .9-.1 1.4-.1.4 0 .9 0 1.3-.1 1.5-.1 2.9-.2 4.4-.2.4 0 .9 0 1.3-.1h.9c1.5 0 3-.1 4.6-.1H692.2c2.1 0 4.3.1 6.4.2h.2c1.5.1 3.1.2 4.6.2.4 0 .8 0 1.1.1.3 0 .5 0 .8.1h.6l3.6.3c1.2.1 2.4.2 3.6.4.4 0 .9.1 1.3.2s.8.1 1.2.2c1.6.2 3.2.4 4.8.7H720.7c1.5.2 3.1.5 4.6.8.4.1.8.2 1.2.2.4.1.8.1 1.2.2 1.1.2 2.3.5 3.4.7.1 0 .2 0 .2.1 1.2.3 2.5.5 3.7.8.3.1.7.2 1 .2.4.1.9.2 1.3.3 1.3.3 2.6.7 3.9 1 .3.1.6.2.9.2.1 0 .2.1.3.1 1.4.4 2.8.8 4.2 1.3.4.1.7.2 1.1.4.7.2 1.4.4 2 .7.5.2.9.3 1.4.5.5.2.9.3 1.4.5 1.2.4 2.4.9 3.6 1.4.3.1.5.2.8.3.1 0 .1.1.2.1 1.4.6 2.8 1.1 4.2 1.7.4.2.7.3 1.1.5.8.4 1.6.7 2.4 1.1.2.1.5.2.7.4l1.8.9c.9.4 1.7.9 2.5 1.3.6.3 1.2.6 1.8 1 .4.2.8.4 1.2.7.7.4 1.4.8 2.2 1.3 1 .6 2 1.2 3 1.9l.9.6c.7.4 1.3.9 1.9 1.3.1.1.3.2.4.3.2.2.5.4.7.5.5.3.9.7 1.4 1 .4.3.8.6 1.1.9.4.3.9.7 1.3 1 .4.3.7.6 1.1.9.4.3.8.7 1.2 1 .3.3.7.6 1 .9.4.3.8.7 1.2 1 .2.2.4.3.6.5l.5.5.6.6c.4.4.9.8 1.3 1.3l.5.5c.6.6 1.1 1.2 1.6 1.8.1.1.1.2.2.2.5.5.9 1 1.3 1.6.2.2.3.4.5.6.3.4.7.8 1 1.3.2.2.3.4.5.6.3.5.7.9 1 1.4.1.2.2.3.3.5.4.6.8 1.2 1.2 1.9.1.1.1.2.2.4l.9 1.5.3.6c.2.4.5.9.7 1.3.1.2.2.4.3.7.2.5.5 1 .7 1.5.1.2.2.3.2.5.3.6.5 1.3.8 1.9.1.2.1.3.2.5.2.5.4 1 .5 1.5.1.2.1.4.2.7.1.4.3.9.4 1.3.1.2.1.4.2.7.1.5.2 1 .4 1.5 0 .1.1.3.1.4.1.6.2 1.3.3 2 0 .2 0 .3.1.5.1.5.1 1 .2 1.5 0 .2 0 .5.1.7 0 .5.1.9.1 1.4v.6c-.5.1-.5.7-.5 1.2z" class="color0C3461 svgShape"/><path fill="#8a5914" d="M825.2 683.5c-.4.8-.8 1.6-1.2 2.3-.1.2-.3.5-.4.7-.3.5-.6 1.1-.9 1.6-.2.3-.3.6-.5.8l-.9 1.5c-.2.3-.3.5-.5.8-.4.6-.8 1.1-1.1 1.7-.1.2-.3.4-.4.6-.5.8-1.1 1.5-1.7 2.2-.1.2-.3.3-.4.5-.5.6-1 1.2-1.4 1.8-.2.3-.4.5-.7.8-.4.4-.8.9-1.2 1.3-.5.6-1.1 1.1-1.6 1.7l-.9.9c-.7.7-1.4 1.3-2.1 2-.2.2-.4.4-.6.5-.9.8-1.8 1.7-2.8 2.5-.3.2-.5.4-.8.7-.7.6-1.4 1.2-2.2 1.8-.4.3-.8.6-1.1.9-.7.5-1.4 1-2 1.5-.4.3-.8.6-1.3.9l-2.1 1.5c-.4.3-.9.6-1.3.9l-2.4 1.5c-.4.2-.8.5-1.2.7-1.2.7-2.5 1.5-3.7 2.2-1.5.9-3.1 1.7-4.7 2.5-.4.2-.8.4-1.3.6-1.4.7-2.9 1.4-4.3 2.1l-.6.3c-1.6.7-3.3 1.5-5 2.2-.4.2-.9.4-1.3.5-1.4.6-2.9 1.1-4.3 1.7-.3.1-.6.2-1 .4-1.7.6-3.5 1.2-5.2 1.8-.4.1-.9.3-1.3.4-1.5.5-2.9.9-4.4 1.4-.4.1-.8.2-1.2.4l-5.4 1.5-1.2.3c-1.5.4-3.1.8-4.6 1.1-.5.1-.9.2-1.4.3-1.9.4-3.7.8-5.6 1.2-.3.1-.6.1-.9.2-1.6.3-3.3.6-4.9.9-.5.1-1 .2-1.5.2-1.9.3-3.8.6-5.8.8-.1 0-.3 0-.4.1l-5.4.6c-.5.1-1 .1-1.5.2-1.9.2-3.9.4-5.8.5h-.1c-2 .1-3.9.3-5.9.4-.5 0-1 0-1.5.1-1.8.1-3.6.1-5.4.2h-8c-1.3 0-2.6-.1-3.9-.1-1.1 0-2.1-.1-3.2-.1s-2.3-.1-3.4-.2-2.1-.1-3.2-.2-2.3-.2-3.4-.3c-1-.1-2.1-.2-3.1-.3-1.1-.1-2.3-.2-3.4-.4-1-.1-2.1-.2-3.1-.4-1.1-.1-2.3-.3-3.4-.5-1-.1-2-.3-3.1-.4-1.1-.2-2.2-.4-3.4-.6-1-.2-2-.3-3-.5-1.1-.2-2.2-.4-3.3-.7l-3-.6c-1.1-.2-2.2-.5-3.3-.8-1-.2-1.9-.4-2.9-.7l-3.3-.9c-.9-.3-1.9-.5-2.8-.8-1.1-.3-2.2-.6-3.2-1-.9-.3-1.9-.6-2.8-.8-1.1-.3-2.1-.7-3.2-1.1l-2.7-.9c-1.1-.4-2.1-.8-3.2-1.2-.8-.3-1.7-.6-2.5-1-1.1-.4-2.1-.9-3.2-1.3-.8-.3-1.6-.7-2.4-1l-3.3-1.5c-.7-.3-1.5-.7-2.2-1-1.2-.6-2.3-1.2-3.5-1.8l-1.8-.9c-1.7-.9-3.4-1.9-5.1-2.9-17.2-10.3-28.8-22.6-34.8-35.5 1.3 2.8 2.6 5.6 3.9 8.5 12.4 27 24.8 54.1 37.2 81.1 4.1 9 12.1 17.5 24.1 24.6 1.1.7 2.3 1.4 3.5 2l1.2.6 2.4 1.2c.5.2 1 .5 1.5.7.7.4 1.5.7 2.2 1 .5.2 1.1.5 1.7.7.7.3 1.5.6 2.2.9.6.2 1.2.4 1.7.7.7.3 1.5.6 2.2.8l1.8.6c.7.3 1.5.5 2.2.8.6.2 1.3.4 1.9.6.7.2 1.5.5 2.3.7.7.2 1.3.4 2 .5.8.2 1.5.4 2.3.6.7.2 1.3.3 2 .5.8.2 1.5.4 2.3.5.7.1 1.4.3 2.1.4.8.2 1.5.3 2.3.5.7.1 1.4.2 2.1.4.8.1 1.6.3 2.3.4l2.1.3 2.4.3 2.1.3 2.4.3c.7.1 1.4.1 2.2.2.8.1 1.6.1 2.4.2.7.1 1.4.1 2.2.1.8 0 1.6.1 2.4.1.7 0 1.5.1 2.2.1H693.4c1.9 0 3.8-.1 5.6-.2.5 0 1-.1 1.6-.1 1.4-.1 2.8-.2 4.3-.3.5 0 1.1-.1 1.6-.1 1.9-.2 3.7-.4 5.6-.6h.1l3.9-.6c.3-.1.7-.1 1-.2 1.1-.2 2.3-.4 3.4-.6.2 0 .4-.1.6-.1 1.3-.3 2.6-.5 3.9-.8.3-.1.6-.1 1-.2 1.1-.2 2.1-.5 3.2-.8.3-.1.5-.1.8-.2 1.3-.3 2.5-.7 3.8-1l.9-.3c1-.3 2-.6 3.1-.9l.9-.3c1.2-.4 2.4-.8 3.6-1.3.2-.1.4-.2.7-.3l3-1.2c.3-.1.6-.2.9-.4 1.2-.5 2.3-1 3.4-1.5.1-.1.3-.1.4-.2 1-.5 2-.9 3-1.4.3-.1.6-.3.9-.4 1.1-.6 2.2-1.1 3.2-1.7.9-.5 1.7-1 2.6-1.5.3-.2.5-.3.8-.5.6-.4 1.1-.7 1.7-1.1l.9-.6c.5-.3 1-.7 1.5-1l.9-.6c.5-.4 1-.7 1.4-1.1.3-.2.5-.4.8-.6l1.5-1.2c.2-.1.4-.3.5-.4.7-.6 1.3-1.1 1.9-1.7l.4-.4c.5-.5 1-.9 1.4-1.4l.6-.6c.4-.4.7-.8 1.1-1.2l.3-.3c.2-.2.3-.4.5-.6l.5-.5c.3-.4.7-.8 1-1.2l.3-.3c.4-.5.8-1 1.2-1.6.1-.1.2-.3.3-.4.3-.4.5-.8.8-1.2.1-.2.2-.4.4-.6.2-.3.4-.7.7-1.1l.3-.6c.2-.4.4-.7.6-1.1.1-.2.2-.3.3-.5.3-.5.5-1.1.8-1.6 12.6-27 25.1-53.9 37.7-80.9 1-2.8 2.3-5.6 3.7-8.4z" class="color144B8A svgShape"/><path fill="#774d11" d="M794.3 748.4c-.4.5-.8 1-1.2 1.4-.2.2-.4.4-.5.6-.2.2-.4.5-.6.7-.1.1-.2.2-.3.4-.4.5-.9.9-1.3 1.4l-.7.7c-.5.5-1.1 1.1-1.7 1.6l-.5.5c-.7.7-1.5 1.4-2.3 2-.2.2-.4.4-.6.5l-1.8 1.5c-.3.2-.6.5-.9.7-.6.4-1.1.8-1.7 1.3-.3.2-.7.5-1 .7l-1.8 1.2c-.4.2-.7.5-1.1.7-.7.4-1.3.8-2 1.3-.3.2-.6.4-1 .6-1 .6-2 1.2-3.1 1.8l-3.9 2.1c-.3.2-.7.4-1 .5-1.2.6-2.3 1.2-3.5 1.7-.2.1-.3.2-.5.2-1.3.6-2.7 1.2-4.1 1.8-.4.1-.7.3-1.1.4-1.2.5-2.4.9-3.5 1.4-.3.1-.5.2-.8.3-1.4.5-2.8 1-4.3 1.5-.3.1-.7.2-1.1.3-1.2.4-2.4.8-3.6 1.1-.3.1-.7.2-1 .3l-4.5 1.2c-.3.1-.6.2-1 .2-1.3.3-2.5.6-3.8.9-.4.1-.8.2-1.1.3-1.5.3-3.1.7-4.6 1-.2 0-.5.1-.7.1-1.3.3-2.7.5-4.1.7-.4.1-.8.1-1.2.2-1.5.2-3.1.5-4.7.7h-.1c-2.2.3-4.4.5-6.6.7-.6.1-1.3.1-1.9.2-1.7.1-3.4.3-5.1.4-.6 0-1.2.1-1.9.1-2.2.1-4.4.2-6.7.2H686.2c-.6 0-1.1 0-1.7-.1-.9 0-1.7-.1-2.6-.1-.9 0-1.9-.1-2.8-.1-.9 0-1.7-.1-2.6-.2-.9-.1-1.9-.1-2.8-.2-.9-.1-1.7-.1-2.6-.2-.9-.1-1.9-.2-2.8-.3-.8-.1-1.7-.2-2.5-.3-.9-.1-1.9-.3-2.8-.4-.8-.1-1.7-.2-2.5-.4-.9-.1-1.8-.3-2.8-.5-.8-.1-1.7-.3-2.5-.4-.9-.2-1.8-.4-2.7-.5-.8-.2-1.6-.3-2.4-.5l-2.7-.6-2.4-.6c-.9-.2-1.8-.5-2.7-.7-.8-.2-1.6-.4-2.3-.6-.9-.3-1.8-.5-2.7-.8-.8-.2-1.5-.4-2.3-.7l-2.7-.9c-.7-.2-1.5-.5-2.2-.7-.9-.3-1.8-.7-2.6-1-.7-.3-1.4-.5-2.1-.8-.9-.4-1.8-.7-2.6-1.1-.7-.3-1.3-.5-2-.8l-2.7-1.2c-.6-.3-1.2-.5-1.8-.8-1-.5-1.9-1-2.9-1.5-.5-.2-1-.5-1.4-.7l-4.2-2.4c-9.8-5.9-17.4-12.5-22.8-19.6 3.9 8.5 7.8 17 11.7 25.4 4.1 9 12.1 17.5 24.1 24.6 1.1.7 2.3 1.4 3.5 2l1.2.6 2.4 1.2c.5.2 1 .5 1.5.7.7.4 1.5.7 2.2 1 .5.2 1.1.5 1.7.7.7.3 1.5.6 2.2.9.6.2 1.2.4 1.7.7.7.3 1.5.6 2.2.8l1.8.6c.7.3 1.5.5 2.2.8.6.2 1.3.4 1.9.6.7.2 1.5.5 2.3.7.7.2 1.3.4 2 .5.8.2 1.5.4 2.3.6.7.2 1.3.3 2 .5.8.2 1.5.4 2.3.5.7.1 1.4.3 2.1.4.8.2 1.5.3 2.3.5.7.1 1.4.2 2.1.4.8.1 1.6.3 2.3.4l2.1.3 2.4.3 2.1.3 2.4.3c.7.1 1.4.1 2.2.2.8.1 1.6.1 2.4.2.7.1 1.4.1 2.2.1.8 0 1.6.1 2.4.1.7 0 1.5.1 2.2.1H693.2c1.9 0 3.8-.1 5.6-.2.5 0 1-.1 1.6-.1 1.4-.1 2.8-.2 4.3-.3.5 0 1.1-.1 1.6-.1 1.9-.2 3.7-.4 5.6-.6h.1l3.9-.6c.3-.1.7-.1 1-.2 1.1-.2 2.3-.4 3.4-.6.2 0 .4-.1.6-.1 1.3-.3 2.6-.5 3.9-.8.3-.1.6-.1 1-.2 1.1-.2 2.1-.5 3.2-.8.3-.1.5-.1.8-.2 1.3-.3 2.5-.7 3.8-1l.9-.3c1-.3 2-.6 3.1-.9l.9-.3c1.2-.4 2.4-.8 3.6-1.3.2-.1.4-.2.7-.3l3-1.2c.3-.1.6-.2.9-.4 1.2-.5 2.3-1 3.4-1.5.1-.1.3-.1.4-.2 1-.5 2-.9 3-1.4.3-.1.6-.3.9-.4 1.1-.6 2.2-1.1 3.2-1.7.9-.5 1.7-1 2.6-1.5.3-.2.5-.3.8-.5.6-.4 1.1-.7 1.7-1.1l.9-.6c.5-.3 1-.7 1.5-1l.9-.6c.5-.4 1-.7 1.4-1.1.3-.2.5-.4.8-.6l1.5-1.2c.2-.1.4-.3.5-.4.7-.6 1.3-1.1 1.9-1.7l.4-.4c.5-.5 1-.9 1.4-1.4l.6-.6c.4-.4.7-.8 1.1-1.2l.3-.3c.2-.2.3-.4.5-.6l.5-.5c.3-.4.7-.8 1-1.2l.3-.3c.4-.5.8-1 1.2-1.6.1-.1.2-.3.3-.4.3-.4.5-.8.8-1.2.1-.2.2-.4.4-.6.2-.3.4-.7.7-1.1l.3-.6c.2-.4.4-.7.6-1.1.1-.2.2-.3.3-.5.3-.5.5-1.1.8-1.6l12.3-26.4c-.4.5-.8 1.1-1.2 1.6-.2.3-.3.5-.4.6z" class="color114077 svgShape"/><path fill="#b48b53" d="m827 678.9.9-2.7c.1-.2.1-.4.2-.6.3-.9.5-1.8.7-2.6 0-.1 0-.2.1-.4.2-.8.3-1.6.5-2.4 0-.1 0-.2.1-.3v-.2l.3-2.4v-.4c.1-.7.1-1.4.2-2.1V661.6c0-.8-.1-1.6-.1-2.5v-.7c0-.6-.1-1.2-.2-1.8 0-.2 0-.4-.1-.6-.1-.8-.2-1.5-.4-2.3 0-.1-.1-.2-.1-.4-.1-.7-.3-1.3-.4-2-.1-.2-.1-.5-.2-.7-.1-.6-.3-1.2-.5-1.8 0-.1-.1-.3-.1-.4 0-.1 0-.1-.1-.2-.2-.7-.5-1.5-.7-2.2 0-.1-.1-.2-.1-.3-.2-.7-.5-1.3-.7-1.9-.1-.2-.2-.5-.3-.7-.2-.5-.4-1-.7-1.6-.1-.2-.2-.5-.3-.7l-.9-1.8c-.1-.1-.1-.2-.2-.4v-.1l-1.2-2.1c-.1-.2-.2-.4-.3-.5-.3-.5-.6-1.1-1-1.6-.2-.2-.3-.5-.5-.7-.3-.5-.6-.9-1-1.4-.2-.2-.3-.5-.5-.7-.4-.5-.8-1-1.1-1.6-.1-.1-.2-.3-.3-.4l-.1-.1c-.5-.7-1.1-1.4-1.6-2l-.4-.4c-.4-.5-.9-1.1-1.4-1.6-.2-.2-.4-.5-.6-.7-.4-.4-.8-.9-1.2-1.3-.2-.2-.4-.5-.7-.7-.4-.5-.9-.9-1.4-1.4l-.4-.4-.2-.2c-.7-.7-1.4-1.3-2.1-1.9l-.2-.2c-.6-.6-1.3-1.2-2-1.7-.2-.2-.5-.4-.7-.6-.5-.4-1.1-.9-1.6-1.3-.3-.2-.6-.4-.8-.7-.6-.4-1.1-.9-1.7-1.3-.2-.1-.4-.3-.5-.4-.1-.1-.2-.1-.3-.2-.4-.3-.9-.6-1.3-1-.3-.2-.6-.5-1-.7-.5-.3-1-.7-1.4-1l-.9-.6c-.5-.4-1.1-.7-1.7-1.1-.3-.2-.5-.3-.8-.5-.8-.5-1.7-1-2.6-1.6-.7-.4-1.5-.9-2.3-1.3-.7-.4-1.5-.8-2.3-1.2-.3-.2-.6-.3-.9-.5-1.5-.8-3.1-1.6-4.7-2.4-.4-.2-.8-.4-1.1-.5-1.3-.6-2.7-1.3-4-1.9-.4-.2-.7-.3-1.1-.5l-.6-.3c-1.5-.6-3-1.3-4.5-1.9-.3-.1-.6-.2-1-.4-1.4-.6-2.9-1.1-4.3-1.6-.6-.2-1.1-.4-1.7-.6-1.3-.5-2.7-.9-4-1.3-.5-.2-1-.3-1.5-.5-.2-.1-.4-.1-.6-.2-1.3-.4-2.6-.8-4-1.2l-1.2-.3c-1.9-.5-3.9-1-5.8-1.5-.5-.1-1.1-.3-1.6-.4-1.4-.3-2.8-.7-4.3-1-.7-.2-1.5-.3-2.2-.5-.8-.2-1.7-.4-2.5-.5-.4-.1-.7-.1-1.1-.2-1.2-.2-2.5-.4-3.7-.7-1-.2-2-.3-3-.5-1.3-.2-2.6-.4-3.8-.6-1-.1-1.9-.3-2.9-.4-1.3-.2-2.7-.3-4-.5-.9-.1-1.9-.2-2.8-.3-1.4-.1-2.9-.2-4.3-.4-.8-.1-1.5-.1-2.2-.2h-.4c-.4 0-.8 0-1.2-.1-1.6-.1-3.2-.2-4.9-.3-.6 0-1.2 0-1.8-.1-1.6-.1-3.1-.1-4.7-.1h-8.8c-1.6 0-3.2.1-4.7.1-.6 0-1.2.1-1.8.1l-4.8.3c-.4 0-.8.1-1.3.1-1.8.1-3.6.3-5.4.5-.2 0-.4 0-.6.1-.5.1-1 .1-1.5.2-1.5.2-3 .3-4.5.5-.6.1-1.3.2-1.9.2-1.5.2-3 .4-4.5.7-.5.1-.9.1-1.4.2-1.9.3-3.9.7-5.8 1-.4.1-.9.2-1.3.3l-4.5.9c-.6.1-1.2.3-1.8.4-1.4.3-2.8.7-4.2 1-.5.1-1 .2-1.5.4-1.9.5-3.7 1-5.6 1.5-.3.1-.6.2-1 .3-1.5.5-3 .9-4.5 1.4-.6.2-1.1.4-1.7.6-1.3.4-2.6.9-3.9 1.4-.5.2-1 .4-1.5.5-1.8.7-3.5 1.3-5.2 2-.2.1-.4.2-.6.2-1.5.6-3 1.3-4.5 2-.5.2-1 .5-1.5.7-1.2.6-2.4 1.1-3.6 1.7-.5.2-1 .5-1.5.7-1.6.8-3.2 1.7-4.8 2.5-.8.5-1.7.9-2.5 1.4-.3.2-.5.3-.8.5-.5.3-1.1.6-1.6 1l-.9.6c-.5.3-.9.6-1.4.9-.3.2-.6.4-1 .6-.4.3-.9.6-1.3.9-.3.2-.6.4-1 .7l-1.2.9c-.3.2-.6.5-.9.7l-1.2.9c-.3.2-.6.5-.9.7-.4.3-.7.6-1.1.9-.3.2-.6.5-.9.7-.4.3-.7.6-1.1.9-.3.2-.6.5-.9.7-.3.3-.7.6-1 .9-.3.2-.6.5-.8.7-.3.3-.7.6-1 .9-.3.2-.5.5-.8.7-.3.3-.6.6-1 .9l-.7.7c-.3.3-.6.6-.9 1l-.7.7c-.3.3-.6.7-.9 1-.2.2-.4.5-.6.7-.3.4-.7.8-1 1.2-.2.2-.3.4-.5.6-.5.6-.9 1.2-1.4 1.7l-1.8 2.4c-.1.2-.3.4-.4.6-.5.7-1 1.5-1.5 2.2 0 .1-.1.1-.1.2-.5.8-1 1.6-1.4 2.4l-.3.6c-.4.7-.8 1.4-1.1 2.1-.1.1-.1.2-.2.4-.4.8-.8 1.6-1.1 2.4l-.3.6c-.3.7-.6 1.4-.8 2.1-.1.2-.1.3-.2.5-.3.8-.6 1.6-.8 2.5-.1.2-.1.4-.2.6l-.6 2.1c0 .1-.1.2-.1.4v.2l-.3 1.2c-.1.3-.1.5-.2.8-.1.4-.2.9-.2 1.3 0 .2-.1.5-.1.7-.1.5-.2 1.1-.2 1.6v.4c-.1.7-.1 1.3-.2 2v.6c0 .5 0 .9-.1 1.4v2.8c0 .4 0 .8.1 1.2 0 .3 0 .6.1.9 0 .4.1.8.1 1.1v.3c0 .2.1.5.1.7 0 .2.1.5.1.7.1.4.1.8.2 1.2 0 .2.1.4.1.6.1.6.2 1.2.4 1.8.1.6.3 1.2.4 1.8.1.2.1.4.2.6.1.4.2.8.4 1.2.1.2.1.5.2.7.1.4.2.7.4 1.1.1.2.2.5.3.7.1.4.3.7.4 1.1.1.2.2.5.3.7.1.1.1.3.2.4 0 .1.1.2.1.3.3.8.7 1.6 1.1 2.5 0 0 0 .1.1.1.4.9.9 1.7 1.3 2.6l.3.6c.5.8 1 1.7 1.5 2.5 0 .1.1.1.1.2.5.8 1 1.6 1.6 2.4.1.1.1.2.2.3.1.1.1.2.2.3.5.7 1 1.5 1.6 2.2 0 0 0 .1.1.1.6.7 1.2 1.5 1.8 2.2.2.2.3.4.5.6.5.6 1 1.2 1.5 1.7.2.2.3.4.5.5.7.7 1.4 1.4 2.1 2.2l.1.1.4.4c.5.5 1 1 1.6 1.5.2.2.5.4.7.7.5.5 1 .9 1.6 1.4.2.2.4.4.7.6.8.7 1.5 1.3 2.3 1.9 0 0 .1 0 .1.1l2.4 1.8c.1.1.2.1.3.2.2.1.4.3.6.4.5.4 1 .8 1.5 1.1.3.2.6.5.9.7.5.4 1.1.7 1.6 1.1.3.2.6.4 1 .6l1.8 1.2c.3.2.6.4.8.5.9.6 1.8 1.1 2.7 1.7.1.1.3.2.4.3l4.2 2.4c.3.2.6.3.9.5 1.5.8 3.1 1.6 4.6 2.4.3.1.5.3.8.4.6.3 1.2.6 1.9.9.4.2.9.4 1.4.6 1.2.6 2.4 1.1 3.7 1.6.8.3 1.6.7 2.5 1l3.9 1.5c.6.2 1.1.4 1.6.6.2.1.5.2.7.3 1.4.5 2.8 1 4.1 1.4.7.2 1.5.5 2.2.7 1.8.6 3.7 1.2 5.6 1.7.3.1.5.2.8.2h.1c2.2.6 4.4 1.2 6.6 1.7.7.2 1.4.3 2 .5 1.5.4 3.1.7 4.7 1 .2 0 .4.1.6.1.7.1 1.4.3 2.1.4 1.4.3 2.7.5 4.1.8.9.2 1.9.3 2.8.5 1.3.2 2.7.4 4 .6.4.1.8.1 1.2.2.6.1 1.2.1 1.7.2 1.4.2 2.7.4 4.1.5l3 .3c1.4.1 2.8.3 4.1.4.6.1 1.2.1 1.8.2.6 0 1.2.1 1.8.1.4 0 .7.1 1.1.1 1.9.1 3.8.2 5.8.3h1.1c1.9.1 3.9.1 5.8.1h7.5c2 0 4-.1 5.9-.2 1.5-.1 3-.1 4.5-.2.4 0 .7-.1 1.1-.1l3.3-.3 3.3-.3c1.1-.1 2.2-.2 3.3-.4 1.1-.1 2.2-.2 3.3-.4 1.1-.1 2.2-.3 3.3-.4 1.1-.2 2.2-.3 3.3-.5 1.1-.2 2.2-.4 3.2-.5.7-.1 1.5-.2 2.2-.4.4-.1.7-.1 1.1-.2.9-.2 1.7-.3 2.6-.5 1.2-.2 2.4-.5 3.5-.7.9-.2 1.7-.4 2.6-.6 1.2-.3 2.3-.5 3.5-.8.9-.2 1.7-.4 2.6-.7 1.1-.3 2.3-.6 3.4-.9.8-.2 1.7-.5 2.5-.7 1.2-.3 2.3-.7 3.4-1.1.8-.3 1.6-.5 2.4-.8l3.6-1.2c.7-.2 1.4-.5 2.1-.7 1.4-.5 2.8-1.1 4.2-1.6.5-.2.9-.4 1.4-.5 1.8-.7 3.5-1.5 5.3-2.3 0 0 .1 0 .1-.1 1.2-.6 2.5-1.2 3.7-1.8l1.8-.9c1.8-.9 3.6-1.9 5.3-2.8 1.4-.8 2.7-1.6 4-2.3.2-.1.4-.2.6-.4 1.2-.8 2.4-1.5 3.6-2.3.2-.1.4-.3.7-.4 1.2-.8 2.3-1.6 3.4-2.4.2-.1.3-.2.5-.3 1.1-.8 2.2-1.6 3.2-2.5l.1-.1c.6-.5 1.2-1 1.9-1.5l.2-.2c.7-.6 1.3-1.1 2-1.7l.6-.6c.4-.4.8-.8 1.3-1.2l.7-.7 1.1-1.1c.2-.2.5-.5.7-.8l1-1c.2-.3.5-.5.7-.8.3-.3.6-.7.9-1 .2-.3.5-.5.7-.8.3-.3.6-.7.8-1 .2-.3.5-.6.7-.8.3-.3.5-.7.8-1 .1-.1.1-.2.2-.3.2-.3.4-.5.6-.8.2-.2.3-.4.5-.7l.9-1.2c.1-.2.2-.3.4-.5.4-.6.8-1.2 1.1-1.7.1-.1.1-.2.2-.3l.9-1.5c.1-.2.2-.4.4-.6.2-.4.4-.8.6-1.1.1-.2.2-.5.4-.7.2-.4.4-.7.6-1.1.1-.2.2-.5.4-.7.2-.4.3-.7.5-1.1.1-.2.2-.5.3-.7.1-.1.1-.3.2-.4 0-.1.1-.2.1-.3.1 0 .4-.9.7-1.8zm-44.1 18.6c-.1.1-.3.2-.4.3-.9.7-1.9 1.3-2.9 2-.2.1-.4.3-.6.4-1 .7-2 1.3-3 1.9-.2.1-.3.2-.5.3-1.1.7-2.2 1.3-3.4 2l-4.5 2.4c-.5.3-1 .5-1.5.7-1 .5-2.1 1-3.1 1.5-1.5.7-3 1.3-4.5 2-.4.2-.8.3-1.2.5-1.2.5-2.3.9-3.5 1.4l-1.8.6c-1 .4-2 .7-3 1-.7.2-1.3.4-2 .6-1 .3-1.9.6-2.9.9l-2.1.6c-1 .3-1.9.5-2.9.8-.7.2-1.4.4-2.2.6-1 .2-1.9.5-2.9.7-.7.2-1.5.3-2.2.5l-3 .6c-.7.1-1.5.3-2.2.4-.9.2-1.8.3-2.8.5-.9.2-1.8.3-2.7.5-.9.1-1.8.3-2.7.4-.9.1-1.8.3-2.8.4-.9.1-1.8.2-2.8.3-.9.1-1.8.2-2.8.3-.9.1-1.9.2-2.8.2-.9.1-1.9.2-2.8.2-1.5.1-3.1.2-4.7.3-1.7.1-3.3.1-5 .2H687.4c-1.8 0-3.5-.1-5.3-.1-.7 0-1.4-.1-2.1-.1-1.4-.1-2.7-.1-4.1-.2-.8-.1-1.6-.1-2.4-.2-1.2-.1-2.3-.2-3.5-.3-.8-.1-1.7-.2-2.5-.3-1.2-.1-2.3-.3-3.5-.4-.8-.1-1.6-.2-2.5-.3-1.1-.2-2.3-.3-3.4-.5-.8-.1-1.6-.3-2.4-.4-1.2-.2-2.3-.4-3.5-.7-.7-.1-1.5-.3-2.2-.4l-3.9-.9c-.6-.1-1.1-.3-1.7-.4-1.9-.5-3.7-.9-5.5-1.4-.2-.1-.5-.1-.7-.2-1.6-.5-3.2-.9-4.7-1.4l-1.8-.6c-1.2-.4-2.3-.8-3.5-1.2-.7-.2-1.3-.5-2-.8-1.1-.4-2.2-.8-3.3-1.3l-2.1-.9c-1-.4-2.1-.9-3.1-1.4-.7-.3-1.3-.6-2-.9-1.1-.5-2.1-1-3.2-1.6l-1.8-.9c-1.2-.6-2.4-1.3-3.6-2-.5-.3-.9-.5-1.4-.8-.8-.5-1.5-.9-2.3-1.4-.2-.2-.5-.3-.7-.5-.5-.3-1-.6-1.5-1-.3-.2-.5-.4-.8-.5-.4-.3-.9-.6-1.3-.9-.3-.2-.5-.4-.8-.6-.4-.3-.9-.6-1.3-1-.2-.2-.5-.4-.7-.5-.7-.5-1.3-1-2-1.6l-.1-.1c-.7-.5-1.3-1.1-1.9-1.6-.2-.2-.4-.3-.6-.5-.4-.4-.9-.8-1.3-1.2l-.6-.6c-.4-.4-.9-.8-1.3-1.3l-.4-.4c-.6-.6-1.2-1.2-1.7-1.8l-.4-.4c-.4-.5-.9-1-1.3-1.5-.1-.2-.3-.3-.4-.5-.5-.6-1-1.2-1.5-1.9l-.1-.1c-.5-.6-.9-1.2-1.3-1.8-.1-.2-.2-.3-.4-.5-.5-.7-.9-1.3-1.3-2l-.1-.1c-.4-.7-.9-1.4-1.3-2.1-.1-.2-.2-.3-.3-.5-.4-.7-.8-1.4-1.1-2.2 0 0 0-.1-.1-.1l-.9-2.1c-.1-.2-.1-.3-.2-.5l-.9-2.4c0-.1-.1-.3-.1-.4-.3-.8-.5-1.7-.8-2.5 0-.1 0-.2-.1-.2-.2-.8-.4-1.7-.6-2.5v-.2c-.2-.8-.3-1.7-.4-2.5 0-.2 0-.3-.1-.5 0-.3-.1-.6-.1-1 0-.2 0-.5-.1-.7V653.1c0-.6.1-1.1.1-1.7v-.3c.1-.5.1-.9.2-1.4 0-.2.1-.4.1-.6.1-.4.1-.7.2-1.1 0-.2.1-.5.1-.7.1-.3.1-.7.2-1 0-.2.1-.3.1-.5.1-.6.3-1.2.5-1.7 0-.2.1-.3.1-.5.2-.7.4-1.4.7-2.1 0-.1.1-.3.2-.4.2-.6.5-1.2.7-1.7.1-.2.1-.3.2-.5.3-.7.6-1.4 1-2 .1-.1.1-.2.2-.3l.9-1.8c.1-.2.2-.3.3-.5.4-.7.8-1.3 1.2-2 0-.1.1-.1.1-.2l1.2-1.8c.1-.2.2-.3.4-.5.5-.7 1-1.3 1.5-2 .7-.9 1.4-1.8 2.2-2.7l.2-.2c.7-.8 1.5-1.7 2.3-2.5l.3-.3c.8-.8 1.6-1.6 2.5-2.4.1-.1.3-.2.4-.4.8-.8 1.7-1.5 2.6-2.3.1-.1.3-.2.4-.4.9-.8 1.9-1.5 2.8-2.2.2-.1.3-.2.5-.3 1-.7 2-1.5 3.1-2.2.1-.1.3-.2.4-.3 1.1-.7 2.2-1.5 3.4-2.2.1-.1.2-.1.3-.2 1.2-.7 2.5-1.5 3.8-2.2 1.3-.7 2.6-1.4 4-2.1l1.2-.6 3-1.5c.4-.2.9-.4 1.3-.6 1.3-.6 2.5-1.1 3.8-1.6.2-.1.3-.1.5-.2 1.4-.6 2.9-1.2 4.4-1.7.4-.2.9-.3 1.3-.5l3.3-1.2c.5-.2.9-.3 1.4-.5 1.3-.4 2.5-.8 3.8-1.2.3-.1.5-.2.8-.3 1.5-.4 3.1-.9 4.7-1.3.4-.1.8-.2 1.3-.3l3.6-.9 1.5-.3c1.3-.3 2.5-.5 3.8-.8.4-.1.7-.1 1.1-.2 1.6-.3 3.2-.6 4.9-.9.4-.1.8-.1 1.2-.2 1.3-.2 2.5-.4 3.8-.6.5-.1 1.1-.1 1.6-.2 1.3-.2 2.5-.3 3.8-.4.4 0 .8-.1 1.3-.1 1.7-.2 3.3-.3 5-.4.4 0 .7 0 1.1-.1 1.3-.1 2.7-.2 4-.2.5 0 1 0 1.6-.1 1.3-.1 2.6-.1 4-.1h7.3c1.3 0 2.6 0 3.9.1.5 0 1 0 1.6.1 1.4.1 2.7.1 4.1.2.3 0 .7 0 1 .1.7 0 1.5.1 2.2.2l3.6.3 2.4.3c1.1.1 2.2.2 3.4.4.8.1 1.6.2 2.5.3 1.1.1 2.2.3 3.2.5.8.1 1.7.3 2.5.4 1 .2 2.1.4 3.1.6l3 .6c.6.1 1.2.3 1.9.4 1.2.3 2.4.5 3.6.8.5.1.9.2 1.4.3 1.6.4 3.3.8 4.9 1.3.3.1.6.2 1 .3l3.9 1.2c.4.1.8.3 1.2.4 1.1.4 2.3.7 3.4 1.1.5.2.9.3 1.4.5 1.2.4 2.4.9 3.6 1.4.3.1.5.2.8.3 1.5.6 2.9 1.2 4.3 1.8.3.1.6.3.9.4 1.1.5 2.3 1 3.4 1.6.3.2.6.3.9.5 1.3.7 2.6 1.3 3.9 2 .2.1.5.3.7.4 1.3.7 2.6 1.4 3.8 2.2.7.4 1.4.9 2.1 1.3.2.1.5.3.7.4.5.3.9.6 1.4.9.3.2.5.4.8.5.4.3.8.5 1.2.8.3.2.6.4.8.6.4.3.7.5 1.1.8.2.2.4.3.7.5.5.4.9.7 1.4 1.1.2.2.5.4.7.6.5.4.9.7 1.3 1.1.2.2.4.3.6.5.6.5 1.1 1 1.7 1.4l.2.2c.6.5 1.2 1.1 1.7 1.6l.5.5 1.2 1.2.6.6c.4.4.7.8 1 1.1.2.2.3.4.5.6.4.4.8.9 1.1 1.3.1.1.2.2.3.4.5.6.9 1.1 1.4 1.7.1.1.2.3.3.4.3.4.7.9 1 1.3.1.2.3.4.4.6.3.4.5.8.8 1.2.1.2.3.4.4.6.3.4.6.9.8 1.3.1.2.2.3.3.5.3.6.7 1.2 1 1.8.1.1.1.2.2.4.3.5.5 1 .7 1.5l.3.6c.2.4.4.9.6 1.3.1.2.2.4.2.6.2.5.4 1.1.6 1.6 0 .1.1.2.1.2.2.6.4 1.2.6 1.9.1.2.1.3.1.5.1.5.3 1 .4 1.5 0 .2.1.4.1.6.1.6.2 1.1.4 1.7 0 .1 0 .2.1.3.1.6.2 1.3.3 2 0 .2 0 .4.1.5.1.5.1 1 .2 1.5v.6c0 .7.1 1.4.1 2.1v2.7c0 .6-.1 1.2-.1 1.8v.3c-.1.7-.2 1.4-.3 2 0 .2-.1.3-.1.5-.1.7-.2 1.4-.4 2 0 .1 0 .2-.1.3-.2.7-.4 1.5-.6 2.2 0 .2-.1.3-.1.5-.2.7-.5 1.5-.7 2.2-.3.7-.6 1.5-.9 2.2-.1.2-.1.3-.2.5-.4.8-.7 1.6-1.1 2.4-.1.1-.1.3-.2.4-.4.8-.9 1.7-1.4 2.5 0 .1-.1.2-.1.2-.5.8-1 1.6-1.6 2.5 0 .1-.1.1-.1.2-.6.8-1.1 1.6-1.8 2.4-.1.2-.2.3-.3.5-.2.3-.4.6-.7.8-.2.2-.4.5-.6.7-.2.3-.5.6-.7.8-.2.2-.4.5-.6.7-.2.3-.5.6-.8.8-.2.2-.4.4-.6.7-.3.3-.5.6-.8.9l-.6.6-.9.9-.6.6c-.4.3-.7.7-1.1 1l-.5.5c-.5.5-1.1 1-1.6 1.4-.5.5-1.1.9-1.7 1.4l-.1.1c-.1.2-1 .9-2 1.6z" class="color5386B4 svgShape"/><path fill="#ffa30f" d="M684.2 631.1s24.6-124.5-102.8-133.9C498.2 491 442.2 539 442.2 539s21.7-3.1 73.3 62.4c45.4 57.9 168.7 29.7 168.7 29.7z" class="colorF8AB37 svgShape"/><path fill="#f7960d" d="M684.2 631.1s-51.2-146.3-242-92c0-.1 172.1-50 242 92z" class="colorDB8918 svgShape"/><path fill="#f7960d" d="M640.9 585.8c-5.5 1.4-10.9 2.6-16.4 4-5.4 1.4-10.8 2.8-16 4.7-5.2 1.9-10.3 4.2-15 7-4.7 2.8-9.2 6.2-13.1 10.3 3.1-4.7 7.3-8.7 12-12 4.7-3.3 9.9-5.8 15.2-7.7 5.4-1.9 10.9-3.3 16.5-4.2 5.6-1.1 11.2-1.7 16.8-2.1zM591.9 559c-5.7-.2-11.3.1-16.8.9-5.5.9-10.9 2.3-16.1 4.3-5.2 1.9-10.2 4.5-14.9 7.5-4.7 3-9.1 6.5-13.2 10.4 3.3-4.6 7.4-8.7 12-12.1 4.6-3.4 9.7-6.2 15.1-8.2 5.4-2 11.1-3.4 16.8-3.8 5.8-.7 11.6-.4 17.1 1zM537.6 543.7c-3.5.4-6.8.9-10 1.7-3.2.8-6.4 1.9-9.4 3.3-3 1.3-5.9 3-8.7 4.9-2.8 1.9-5.4 4-8 6.4 1.7-3 4-5.7 6.7-8s5.7-4.2 8.9-5.6c3.2-1.4 6.6-2.4 10.1-2.9 3.5-.6 7-.6 10.4.2zM489.9 536.9c-1.9.9-3.8 1.6-5.6 2.5-1.8.8-3.6 1.6-5.4 2.5-1.8.9-3.5 1.8-5.3 2.8-1.8 1-3.5 2-5.4 3 1.1-1.8 2.6-3.3 4.2-4.7 1.6-1.3 3.4-2.5 5.3-3.4 1.9-.9 3.9-1.6 5.9-2.1 2.1-.6 4.2-.8 6.3-.6zM493.5 522.8c-1.1-.1-2-.4-2.9-.7-.9-.4-1.7-.8-2.5-1.3s-1.5-1.1-2.2-1.8c-.7-.7-1.3-1.5-1.7-2.4 1.1.1 2 .4 2.9.7.9.4 1.7.8 2.5 1.3s1.5 1.1 2.1 1.8c.7.7 1.3 1.4 1.8 2.4zM546.2 523.5c-1.9-.7-3.7-1.7-5.3-2.8-1.6-1.2-3.2-2.5-4.5-4-1.4-1.5-2.6-3.1-3.6-4.9-1-1.8-1.8-3.6-2.3-5.6 1.4 1.5 2.7 2.9 4 4.4l3.8 4.3 3.9 4.2c1.3 1.4 2.7 2.8 4 4.4zM601.4 535.1c-2.2-1.8-4.2-3.9-5.9-6.1-1.7-2.3-3.3-4.7-4.6-7.2-1.3-2.6-2.4-5.2-3.1-8-.3-1.4-.5-2.9-.3-4.4.2-1.5.7-3 1.8-4-1.1 2.7-.4 5.3.5 7.8 1 2.5 2.3 5 3.5 7.4 1.2 2.4 2.5 4.9 3.9 7.3l4.2 7.2zM650.5 568.6c-1.5-3.3-2.6-6.8-3.4-10.3-.8-3.6-1.3-7.2-1.5-10.8-.2-3.6-.1-7.3.3-10.9.4-3.6 1.1-7.2 2.2-10.7-.1 3.6-.2 7.2-.2 10.8 0 3.6.1 7.1.3 10.7.2 3.5.5 7.1.9 10.6.3 3.5.9 7 1.4 10.6z" class="colorDB8918 svgShape"/><path fill="#e6cfae" d="M704.8 328.6V723c-1.5.1-3.1.2-4.7.3-1.7.1-3.3.1-5 .2H687.8c-1.8 0-3.5-.1-5.3-.2-.7 0-1.4-.1-2.1-.1-1.4-.1-2.7-.1-4.1-.2-.6 0-1.2-.1-1.8-.2V328.6h30.3z" class="colorAEC7E6 svgShape"/><path fill="#ffa30f" d="M700.4 624c21.3-22.5 214.3-129.8 226.9 109 0 0-46.2-28.5-119-17.9-71.5 10.4-156.6-40.4-107.9-91.1z" class="colorF8AB37 svgShape"/><path fill="#f7960d" d="M700.4 624s150.1-17.5 226.9 109c0 0-23.5-69.7-115.6-98.3-79.5-24.6-111.3-10.7-111.3-10.7z" class="colorDB8918 svgShape"/><path fill="#f7960d" d="M729.4 628.9c.7.9 1.6 1.8 2.2 2.8.3.5.6 1 .9 1.6l.7 1.6.4.8.3.9.5 1.7c.3 1.2.5 2.3.8 3.5.8 4.7.7 9.6.2 14.3-.6 4.7-1.7 9.4-3.4 13.9s-3.8 8.7-6.5 12.6c1.8-4.4 3.3-8.8 4.6-13.2 1.2-4.5 2.2-9 2.8-13.5.6-4.6.7-9.2.4-13.7-.6-4.6-1.5-9.2-3.9-13.3zM779.5 634.8c3.8 3.4 6.7 7.8 8.9 12.4 2.2 4.7 3.6 9.7 4.2 14.8.2 1.3.2 2.6.3 3.9l.1 1.9-.1 1.9c-.1 1.3-.1 2.6-.2 3.9-.2 1.3-.4 2.5-.6 3.8l-.3 1.9-.5 1.9-1 3.7c-.8 2.4-1.8 4.8-2.8 7.1.4-2.5 1.1-4.9 1.5-7.4l.6-3.7.3-1.8.1-1.9c.1-1.2.2-2.5.3-3.7v-5.6l-.1-1.8c-.1-1.2-.1-2.5-.3-3.7l-.5-3.7c-.2-1.2-.6-2.4-.8-3.6-.2-1.2-.7-2.4-1-3.6-.3-1.2-.8-2.3-1.2-3.5-1.6-4.7-3.9-9.1-6.9-13.2zM827.9 649.7c2.6 3 4.8 6.4 6.6 10 1.8 3.6 3.3 7.3 4.4 11.2 1.1 3.9 1.8 7.8 2.2 11.8.3 4 .3 8-.3 12-.5-4-1-7.8-1.7-11.7-.7-3.8-1.6-7.6-2.7-11.4-1-3.7-2.3-7.4-3.7-11.1-1.5-3.6-3.1-7.2-4.8-10.8zM871 674.5c2 1.7 3.8 3.7 5.2 5.9 1.4 2.2 2.6 4.6 3.5 7.1.9 2.5 1.5 5.1 1.7 7.7.3 2.6.2 5.3-.4 7.9-.5-2.6-1-5.1-1.7-7.5-.6-2.5-1.3-4.9-2.2-7.2-.8-2.4-1.8-4.7-2.8-7-1-2.3-2.1-4.5-3.3-6.9zM874.9 658c2.6-.4 5.1-.7 7.7-1l7.6-.9 7.5-1c2.5-.3 5.1-.7 7.7-.9-2.3 1.3-4.7 2.2-7.2 2.9-2.5.7-5.1 1.3-7.6 1.6-2.6.3-5.2.5-7.8.4-2.7-.2-5.3-.5-7.9-1.1zM836.1 629c3.3-1.2 6.6-2.3 9.8-3.6 3.2-1.3 6.4-2.6 9.5-4 3.1-1.4 6.2-3 9.2-4.6 3-1.7 6-3.4 9.1-5.2-2.4 2.6-5.1 4.9-8 6.9-2.9 2-6 3.8-9.2 5.3-3.2 1.5-6.5 2.7-10 3.6-3.4.9-6.9 1.5-10.4 1.6zM781.9 615.5c4.5-1.1 9-2.3 13.4-3.6 4.4-1.4 8.7-2.9 12.9-4.7l3.1-1.4c1.1-.4 2-1 3.1-1.5l1.5-.8c.5-.3 1-.6 1.5-.8 1-.6 2-1.1 3-1.7 3.9-2.4 7.5-5.2 11-8.3-2.7 3.8-6 7.2-9.8 10-3.8 2.8-8 5.1-12.3 6.9-4.4 1.8-8.8 3.2-13.4 4.2-4.7 1.1-9.4 1.7-14 1.7zM736.5 612.4c3-.8 5.9-1.7 8.7-2.8 2.7-1.2 5.4-2.6 7.9-4.2s5-3.3 7.5-5c2.4-1.8 4.9-3.6 7.3-5.6-1.7 2.7-3.8 5-6 7.1-2.3 2.1-4.8 4.1-7.4 5.7-2.7 1.6-5.6 2.9-8.6 3.8-3.1.9-6.3 1.3-9.4 1z" class="colorDB8918 svgShape"/><defs><path id="a" d="m806.1 529.2 35.8-20.8c36.4-21.2 59-66.2 59.2-130.2.4-128.8-90.2-285.7-202.3-350.4C642.3-4.7 591.2-7.7 554.3 13.7l-35.8 20.8c36.9-21.4 88-18.4 144.4 14.1C775 113.3 865.6 270.2 865.2 399c-.1 64.1-22.7 109.1-59.1 130.2z" fill="#000000" class="color000 svgShape"/></defs><clipPath id="b"><use overflow="visible" xlink:href="#a"/></clipPath><g clip-path="url(#b)" fill="#000000" class="color000 svgShape"><path fill="#d69a46" d="m806.1 529.2 35.8-20.8c36.4-21.2 59-66.2 59.2-130.2.4-128.8-90.2-285.7-202.3-350.4C642.3-4.7 591.2-7.7 554.3 13.7l-35.8 20.8c36.9-21.4 88-18.4 144.4 14.1C775 113.3 865.6 270.2 865.2 399c-.1 64.1-22.7 109.1-59.1 130.2z" class="colorD69746 svgShape"/></g><path fill="#fbc477" d="M865.3 399.1c.4-128.8-90.2-285.7-202.3-350.4C581.5 1.6 511.2 16.2 478.6 77c-12.3 22.9-19.2 52.4-19.3 87.7-.1 39.6 8.4 81.8 23.4 123.2 33.9 93.3 101.2 182.4 178.9 227.2 112.1 64.7 203.3 12.8 203.7-116zM661.7 474c-92.2-53.2-166.9-182.7-166.6-288.6.3-105.9 75.6-148.8 167.7-95.6C755 143 829.7 272.5 829.4 378.4c-.3 105.9-75.5 148.8-167.7 95.6z" class="colorFBC977 svgShape"/><path fill="#f7960d" d="M495.1 185.4c.3-105.9 75.5-148.8 167.7-95.6C755 143 829.7 272.5 829.4 378.4c-.3 105.9-75.5 148.8-167.7 95.6-92.1-53.2-166.9-182.7-166.6-288.6zm167.7-71.6c-80.6-46.6-146.5-9.1-146.7 83.6-.3 92.7 65.2 206 145.8 252.5 80.7 46.6 146.5 9 146.7-83.6.2-92.7-65.2-205.9-145.8-252.5z" class="colorDB8918 svgShape"/><path fill="#fbc477" d="M516 197.4c.3-92.7 66.1-130.2 146.7-83.6 80.7 46.6 146 159.8 145.8 252.5-.3 92.7-66.1 130.2-146.7 83.6-80.6-46.5-146-159.8-145.8-252.5z" class="colorFBC977 svgShape"/><path fill="#f7960d" d="m682.2 163.2-.1 20.4c29.5 23.9 48.3 56.9 49.8 91.8l-50.1-28.9c-.8-14.5-9.4-27.9-21.9-35.4-.3-.2-.5-.3-.8-.5-10.7-6.2-18.7-4.3-18.8 9.1-.1 38 93.9 75.1 93.7 148.2-.1 31.7-18.8 48.1-52.5 35.3l-.1 19.7-38.8-22.4.1-20.5c-29.9-24.3-51.2-58.8-52.2-95.3l49.3 28.4c1.3 17.6 10.5 31 23.5 38.5 13.5 7.8 22.2 5 22.3-7.7.1-40.4-95-73.5-94.2-150.7.1-35.1 21.3-44.7 52-32.9l.1-19.7 38.7 22.6z" class="colorDB8918 svgShape"/><path fill="#ffbf66" d="M662.9 48.6C606.5 16.1 555.4 13 518.5 34.5l35.8-20.8c36.9-21.4 88-18.4 144.4 14.1 6.1 3.5 12.1 7.4 18.1 11.4L681 60c-6-4-12-7.9-18.1-11.4z" class="colorF9C166 svgShape"/><path fill="#f9b453" d="m681 60 35.9-20.7C768.8 74.6 815 129 848.2 190l-35.8 20.7C779.2 149.7 732.9 95.3 681 60z" class="colorF9B953 svgShape"/><path fill="#ffa30f" d="M864.8 383c-3-56.4-22.3-117-52.5-172.4l35.8-20.7c30.1 55.4 49.4 116 52.4 172.4L864.8 383z" class="colorF8AB37 svgShape"/><path fill="#f7960d" d="M901.1 378.3c-.2 64-22.8 109-59.2 130.2l-35.8 20.8c36.4-21.2 59-66.2 59.2-130.2 0-5.3-.2-10.7-.5-16l35.8-20.7c.3 5.3.5 10.6.5 15.9z" class="colorDB8918 svgShape"/><path fill="#ffdfb3" d="M776.3 1208.9s-24.4-1.1-29.2-1.1c-9.3-18.7-26.2-43-28.1-44 0-10.2-2.4-23.1-9.9-38.9-16.7-35.1-38.9-48.9-65.6-48.9-27.4 0-33.7 12-32.7 24.2 1.1 12.2 12 84.3 13.3 89.9.9 4 40.4 93.3 42.5 95.9 5.7 9.4 71.5 39.2 116.6 39.2 47.2 0 53.3-25.5 49.1-61-3.9-34.6-22.5-55.1-56-55.3z" class="colorFFC5B3 svgShape"/><path fill="#ffeacc" d="M647.5 1161.5c-6.1 2-16.4 3.5-27.7-2.4-.4-.2-.6-.5-.7-1-3.3-21.6-7.1-47.7-8-56.6-.1-.8.5-1.4 1.3-1.4 6.1-.1 30.3.5 32.6 13.2 3.4 18.6 6 32.8 7.3 40.2.6 3.4-1.4 6.9-4.8 8z" class="colorFFD8CC svgShape"/><path fill="#f2ce9b" d="M783.3 1325.2c-40.9 0-98.8-24.5-113.5-36.1 1.1.4 36.5 16.3 58.1 1.6 33.1-22.7 11.9-64.7 1.9-64.2 0 0-7.3-45.2-12.8-53.8-8.1 1.5-29.1 13.1-37.2 14.6 17.9-10.7 31.9-32 27.8-52.4-1.5-7.2-7.2-25.9-7.2-25.9 3.1 4.7 6 10 8.8 15.9 7.5 15.8 9.9 28.6 9.9 38.8 1.8 1 18.7 25.4 28.1 44 0 0-3.9 16.7 13.8 26.4 17.8 9.7 67.5 11.6 67.5 11.6 1.9 5.6 3.2 11.7 4 18.4 4.1 35.6-2 61.1-49.2 61.1z" class="colorF2A29B svgShape"/><path fill="#f2ce9b" d="M719 1162.1c-1.2.6-2.5.8-3.8.2-2.6-1.2-3.2-4.5-3.5-7.4-2.2-19.1-19.8-68.4-60.9-74.2-19.5-2.7-31.7.7-31.7.7 5.1-3.4 12.9-5.5 24.4-5.5 26.7 0 48.9 13.7 65.6 48.9 7.2 15 9.7 27.3 9.9 37.3z" class="colorF2A29B svgShape"/><path fill="#eda744" d="M1250.4 1419.2c0-.7.2-1.5.5-2.4l21.6-50.9 21.6 26.1c.4.4.5 1 .5 1.8 0 1.2-.5 2.8-1.5 4.1-.6.7-1.2 1.3-1.8 1.6-1.1.6-2.1.6-2.8-.2l-16.1-19.4-16.1 37.9c-1 2.3-3 4-4.5 3.7-.8-.1-1.4-1-1.4-2.3z" class="colorED4944 svgShape"/><path fill="#eda744" d="M1269.2 1402.6c0-2.1 1.5-4.6 3.3-5.7 1.8-1 3.3-.2 3.3 1.9v15.2c0 2.1-1.5 4.7-3.3 5.7-1.8 1-3.3.2-3.3-1.9v-15.2zM1269.2 1443.6c0-2.1 1.5-4.7 3.3-5.7 1.8-1 3.3-.2 3.3 1.9v31c0 2.1-1.5 4.6-3.3 5.7-1.8 1-3.3.2-3.3-1.9v-31zM1269.2 1500.4c0-2.1 1.5-4.7 3.3-5.7 1.8-1 3.3-.2 3.3 1.9v31c0 2.1-1.5 4.7-3.3 5.7-1.8 1-3.3.2-3.3-1.9v-31zM1269.2 1557.2c0-2.1 1.5-4.6 3.3-5.7 1.8-1 3.3-.2 3.3 1.9v31c0 2.1-1.5 4.7-3.3 5.7-1.8 1-3.3.2-3.3-1.9v-31zM1269.2 1614c0-2.1 1.5-4.7 3.3-5.7 1.8-1 3.3-.2 3.3 1.9v15.2c0 2.1-1.5 4.7-3.3 5.7-1.8 1-3.3.2-3.3-1.9V1614zM1253.7 1682.1c0-12.1 8.5-26.7 18.9-32.7 10.4-6 18.9-1 18.9 11s-8.5 26.7-18.9 32.7c-10.5 6.1-18.9 1.1-18.9-11zm31.1-17.8c0-7.9-5.5-11.1-12.3-7.2-6.8 3.9-12.3 13.5-12.3 21.3 0 7.9 5.5 11.1 12.3 7.2 6.8-3.9 12.3-13.5 12.3-21.3zM1161.3 851.3c.3-.7.5-1.4.5-2 0-.6-.1-1-.4-1.4l19.6 23.7c.3.4.5.9.5 1.5 0 1.1-.5 2.4-1.3 3.5-.5.6-1 1.1-1.5 1.4-.9.5-1.8.5-2.4-.1l-17.3-21 2.3-5.6zM1157.6 848.8c.4-.5.8-.9 1.3-1.1-.4.2-.9.6-1.3 1.1zM1157.4 849c.1 0 .1 0 0 0 .1 0 0 0 0 0z" class="colorED4944 svgShape"/><path fill="#eda744" d="M1136.5 898.8c0-.6.1-1.3.5-2l19.6-46.4.3-.6c0-.1.1-.1.1-.2.1-.1.1-.2.1-.2.1-.1.1-.2.1-.2 0-.1.1-.1.1-.2.6-.7 1-1.1 1.5-1.4.6-.3 1.1-.5 1.6-.4.4.1.7.3.9.6.2.4.4.8.4 1.4 0 .6-.1 1.3-.5 2l-2.4 5.6-17.3 40.8c-.5 1.3-1.4 2.3-2.3 2.8-.5.3-1.1.4-1.5.3-.7 0-1.2-.8-1.2-1.9zM1156.2 877.5c0-1.8 1.3-4 2.8-4.9 1.5-.9 2.8-.2 2.8 1.6v26c0 1.8-1.3 4-2.8 4.9-1.6.9-2.8.1-2.8-1.6v-26zM1156.2 932.7c0-1.8 1.3-4 2.8-4.9 1.5-.9 2.8-.1 2.8 1.7v26c0 1.8-1.3 4-2.8 4.9-1.6.9-2.8.1-2.8-1.7v-26zM1156.2 988c0-1.8 1.3-4 2.8-4.9 1.5-.9 2.8-.1 2.8 1.6v26c0 1.8-1.3 4-2.8 4.9-1.6.9-2.8.2-2.8-1.6v-26zM1156.2 1043.2c0-1.8 1.3-4 2.8-4.9 1.5-.9 2.8-.2 2.8 1.6v26c0 1.8-1.3 4-2.8 4.9-1.6.9-2.8.2-2.8-1.6v-26zM1156.2 1098.5c0-1.8 1.3-4 2.8-4.9 1.5-.9 2.8-.2 2.8 1.6v6.8c0 1.8-1.3 4-2.8 4.9-1.6.9-2.8.2-2.8-1.6v-6.8zM1142 1142.5c0-10.9 7.6-24.1 17-29.4 9.4-5.4 17-.9 17 9.9 0 10.9-7.6 24.1-17 29.4-9.4 5.4-17 .9-17-9.9zm28.3-16.3c0-7.3-5.1-10.3-11.4-6.7-6.3 3.6-11.4 12.5-11.4 19.7s5.1 10.2 11.4 6.6c6.3-3.5 11.4-12.3 11.4-19.6zM966.1 308.7c0-1.8 1.3-4 2.9-5 1.5-.9 2.8-.1 2.8 1.7v13.2c0 1.8-1.3 4-2.8 4.9-1.6.9-2.9.2-2.9-1.7v-13.1zM971.4 279.6c.3-.7.4-1.5.4-2.1 0-.5-.1-1-.3-1.4l21.8 26.5c.3.4.5.9.5 1.5 0 1.1-.5 2.4-1.3 3.5-.5.6-1 1.1-1.5 1.4-.9.5-1.8.5-2.4-.2L969 285.2l2.4-5.6z" class="colorED4944 svgShape"/><path fill="#eda744" d="M944.1 332.6c0-.6.1-1.3.4-2.1l21.8-51.3.2-.5c.4-1 1.1-1.9 1.8-2.5.1-.1.2-.1.2-.2.1-.1.2-.1.2-.2l.1-.1s.1 0 .1-.1c.1 0 .1-.1.2-.1.5-.2.9-.3 1.3-.2.4.1.7.3 1 .7.2.4.3.8.3 1.4 0 .6-.1 1.3-.4 2.1l-2.4 5.6-19.6 46.2c-.5 1.3-1.4 2.3-2.4 2.9-.5.3-1.1.4-1.5.3-.8 0-1.3-.8-1.3-1.9zM966.1 352c0-1.8 1.3-4 2.9-4.9 1.5-.9 2.8-.1 2.8 1.6v28.6c0 1.8-1.3 4-2.8 4.9-1.6.9-2.9.2-2.9-1.7V352zM966.1 412.8c0-1.8 1.3-4 2.9-5 1.5-.9 2.8-.1 2.8 1.7v13.2c0 1.8-1.3 4-2.8 4.9-1.6.9-2.9.2-2.9-1.7v-13.1z" class="colorED4944 svgShape"/><path fill="#eda744" d="m966.4 279.2.2-.5c.4-1 1.1-1.9 1.8-2.5-.3.3-.6.6-.9 1-.6.7-.9 1.3-1.1 2zM950.3 467.5c0-12 8.4-26.5 18.7-32.4 10.3-5.9 18.7-1 18.7 10.9s-8.4 26.5-18.7 32.4c-10.4 6-18.7 1-18.7-10.9zm31.7-18.2c0-8.3-5.8-11.7-13-7.6s-13 14.2-13 22.6c0 8.3 5.8 11.7 13 7.6 7.1-4.2 13-14.3 13-22.6z" class="colorED4944 svgShape"/><path fill="#ffbf66" d="m215.7 173.3 49.9-86.4 49.9 29.1-33.4 19.2v346.4l-32.9 18.9V154.1z" class="colorFF8666 svgShape"/><path fill="#f7f1e9" d="M853.7 1744.7c0-1.8 1.3-4 2.8-4.9s2.8-.1 2.8 1.6v13.1c0 1.8-1.2 4-2.8 4.9-1.6.9-2.8.1-2.8-1.6v-13.1zM853.7 1787.7c0-1.8 1.3-4 2.8-4.9 1.6-.9 2.8-.1 2.8 1.7v28.3c0 1.8-1.2 4-2.8 4.9-1.6.9-2.8.2-2.8-1.6v-28.4zM853.7 1847.9c0-1.8 1.3-4 2.8-4.9s2.8-.1 2.8 1.6v13.1c0 1.8-1.2 4-2.8 4.9s-2.8.1-2.8-1.6v-13.1zM831.9 1768.4c0-.6.1-1.3.5-2l21.8-51.4c.8-2 2.6-3.4 3.9-3.2.1 0 .2 0 .3.1.7.4 1 1.1 1 1.9 0 .6-.1 1.3-.5 2l-2.4 5.6-19.4 45.8c-.5 1.3-1.4 2.3-2.4 2.9-.5.3-1 .4-1.5.4-.8-.2-1.3-1-1.3-2.1z" opacity=".7" class="colorE9F0F7 svgShape"/><path fill="#f7f1e9" d="M858.9 1715.9c.3-.7.5-1.4.5-2 0-.9-.3-1.5-.8-1.9.1.1.3.2.4.3l21.8 26.4c.3.4.5.9.5 1.5 0 1.1-.5 2.4-1.3 3.5-.5.6-1 1.1-1.5 1.4-.9.5-1.8.5-2.4-.1l-19.4-23.5 2.2-5.6zM838 1902.2c0-11.8 8.3-26.3 18.5-32.1 10.2-5.9 18.6-1 18.6 10.8s-8.3 26.2-18.6 32.1c-10.2 5.9-18.5 1-18.5-10.8zm31.4-18c0-8.2-5.8-11.6-12.9-7.5-7.1 4.1-12.9 14.1-12.9 22.3 0 8.2 5.8 11.6 12.9 7.5 7.1-4.1 12.9-14.1 12.9-22.3z" opacity=".7" class="colorE9F0F7 svgShape"/><path fill="#ffbf66" d="m1217.1 305.5 55.4-95.9 55.4 32.3-37.1 21.4v433.1l-36.5 20.9V284.2z" class="colorFF8666 svgShape"/><path fill="#eda744" d="M234.3 1428c0-2 1.4-4.3 3.1-5.3 1.7-1 3-.2 3 1.8v14.2c0 2-1.4 4.3-3 5.3-1.7 1-3.1.2-3.1-1.8V1428zM234.3 1466.2c0-2 1.4-4.3 3.1-5.3s3-.2 3 1.8v28.9c0 2-1.4 4.3-3 5.3-1.7 1-3.1.2-3.1-1.8v-28.9zM234.3 1519.3c0-2 1.4-4.3 3.1-5.3 1.7-1 3-.2 3 1.8v28.9c0 2-1.4 4.3-3 5.3s-3.1.2-3.1-1.8v-28.9zM234.3 1572.2c0-2 1.4-4.3 3.1-5.3s3-.2 3 1.8v28.9c0 2-1.4 4.3-3 5.3s-3.1.2-3.1-1.8v-28.9zM234.3 1625.2c0-2 1.4-4.3 3.1-5.3 1.7-1 3-.2 3 1.8v14.2c0 2-1.4 4.3-3 5.3-1.7 1-3.1.2-3.1-1.8v-14.2z" class="colorED4944 svgShape"/><path fill="#eda744" d="M216.7 1443.5c0-.7.2-1.4.5-2.2l20.1-47.5 20.1 24.4c.3.4.5 1 .5 1.6 0 1.2-.5 2.6-1.4 3.8-.5.7-1.1 1.2-1.7 1.5-1 .6-2 .6-2.6-.1l-15-18.2-15 35.4c-.9 2.2-2.8 3.7-4.2 3.5-.8-.2-1.3-1-1.3-2.2zM219.7 1688.8c0-11.2 7.9-24.9 17.6-30.5 9.7-5.6 17.6-.9 17.6 10.3 0 11.3-7.9 25-17.6 30.5-9.7 5.6-17.6 1-17.6-10.3zm29.1-16.7c0-7.3-5.1-10.3-11.5-6.7-6.3 3.6-11.5 12.5-11.5 19.9 0 7.4 5.2 10.4 11.5 6.7 6.4-3.6 11.5-12.5 11.5-19.9zM254.4 814.7c0-1.3.9-2.8 2-3.4 1.1-.6 2-.1 2 1.1v9.1c0 1.3-.9 2.8-2 3.4-1.1.6-2 .1-2-1.1v-9.1zM254.4 839.2c0-1.3.9-2.8 2-3.4 1.1-.6 2-.1 2 1.1v18.5c0 1.3-.9 2.8-2 3.4-1.1.6-2 .1-2-1.1v-18.5zM254.4 873.1c0-1.3.9-2.8 2-3.4 1.1-.6 2-.1 2 1.2v18.5c0 1.3-.9 2.8-2 3.4-1.1.6-2 .1-2-1.1v-18.6zM254.4 907c0-1.3.9-2.8 2-3.4 1.1-.6 2-.1 2 1.1v18.5c0 1.3-.9 2.8-2 3.4-1.1.6-2 .1-2-1.1V907zM254.4 941c0-1.3.9-2.8 2-3.4 1.1-.6 2-.1 2 1.2v9.1c0 1.3-.9 2.8-2 3.4-1.1.6-2 .1-2-1.1V941z" class="colorED4944 svgShape"/><path fill="#eda744" d="M243.2 824.6c0-.4.1-.9.3-1.4l12.9-30.4 12.9 15.6c.2.3.3.6.3 1 0 .7-.3 1.6-.9 2.4-.3.4-.7.8-1.1 1-.6.4-1.3.4-1.6-.1l-9.6-11.6-9.6 22.6c-.6 1.4-1.8 2.4-2.7 2.2-.6 0-.9-.5-.9-1.3zM245.1 981.6c0-7.2 5.1-16 11.3-19.5 6.2-3.6 11.3-.6 11.3 6.6 0 7.2-5.1 16-11.3 19.5-6.3 3.6-11.3.7-11.3-6.6zm18.6-10.6c0-4.7-3.3-6.6-7.3-4.3-4.1 2.3-7.4 8-7.4 12.7 0 4.7 3.3 6.6 7.4 4.3 4-2.3 7.3-8 7.3-12.7z" class="colorED4944 svgShape"/><path fill="#ffbf66" d="m468 1530.4 34.4-59.5 34.3 20.1-23 13.2v339.7l-22.6 13v-339.7z" class="colorFF8666 svgShape"/></svg>