<svg xmlns="http://www.w3.org/2000/svg" enable-background="new 0 0 3000 3000" viewBox="0 0 3000 3000"><ellipse cx="1500" cy="2907.2" fill="#ffa30f" rx="1360.7" ry="67.8" class="coloreee svgShape"/><path fill="#424140" d="M1370.3,2676.4l-55.5-72.4c26.5-38.5,46.4-80.4,59.8-123.9c0,0,0,0,0,0l91.2-1.6       c13.5-0.2,24.5-10.9,25.3-24.3l8.7-152.6c0.8-13.5-9-25.3-22.4-27.1l-90.4-12c-8.3-44.8-23.4-88.6-45.3-129.9l63.4-65.6       c9.4-9.7,9.7-25,0.7-35.1l-101.7-114.1c-9-10.1-24.2-11.5-35-3.3l-72.4,55.5c-38.5-26.5-80.3-46.4-123.9-59.8l-1.6-91.2       c-0.2-13.5-10.9-24.5-24.3-25.3l-152.6-8.7c-13.5-0.8-25.3,9-27.1,22.4l-12,90.4c0,0,0,0,0,0c-44.7,8.3-88.6,23.4-129.9,45.3       l-65.6-63.4c-9.7-9.4-25-9.7-35.1-0.7l-114.1,101.7c-10.1,9-11.5,24.2-3.3,35l55.5,72.4c-26.5,38.5-46.4,80.3-59.8,123.9       l-91.3,1.6c-13.5,0.2-24.6,10.8-25.3,24.3l-8.7,152.6c-0.8,13.5,9,25.3,22.4,27.1l90.5,12l0,0c8.3,44.8,23.4,88.6,45.3,129.9       l-63.4,65.7c-9.4,9.7-9.7,25-0.7,35.1l101.7,114.1c9,10.1,24.2,11.5,35,3.3l72.5-55.5c38.5,26.5,80.3,46.5,123.8,59.8       c0,0,0,0,0,0l1.6,91.2c0.2,13.5,10.8,24.6,24.3,25.3l152.6,8.7c13.5,0.8,25.3-9,27.1-22.4l12-90.5       c44.8-8.3,88.6-23.3,129.9-45.3l65.6,63.4c9.7,9.4,25,9.7,35.1,0.7l114.1-101.7C1377.1,2702.4,1378.6,2687.2,1370.3,2676.4z        M704.7,2554.8c-115.3-129.3-103.9-327.5,25.3-442.8c129.3-115.3,327.5-103.9,442.8,25.3c115.3,129.3,103.9,327.5-25.3,442.8       S820,2684,704.7,2554.8z" class="color414042 svgShape"/><path fill="#5b5a58" d="M718 2078.3c-3.7-4.3-3.2-10.7 1.1-14.4 142.9-122.7 359-106.2 481.6 36.7 3.7 4.3 3.2 10.7-1.1 14.4-4.3 3.7-10.7 3.2-14.4-1.1-115.3-134.4-318.5-149.8-452.8-34.5C728.2 2083.1 721.7 2082.6 718 2078.3zM628.2 2623c-3.8-4.2-3.4-10.7.8-14.4 4.2-3.8 10.7-3.4 14.4.8 145.3 162.9 395.9 177.2 558.8 32 4.2-3.8 10.7-3.4 14.4.8 3.8 4.2 3.4 10.7-.8 14.4C1044.5 2809.4 780.9 2794.3 628.2 2623z" class="color58595b svgShape"/><path fill="#424140" d="M758.9,2500c-84.9-95.2-76.5-241.7,18.7-326.6c95.2-84.9,241.7-76.5,326.6,18.7        c61.3,68.7,76,167.2,37.5,250.8c-2.3,5-8.2,7.2-13.2,4.9c-5-2.3-7.2-8.2-4.9-13.2c35.2-76.4,21.7-166.4-34.2-229.2        c-77.6-87-211.4-94.6-298.4-17.1c-87,77.6-94.6,211.4-17.1,298.4c19.8,22.2,43.4,39.6,70.2,51.8c5,2.3,7.2,8.2,5,13.2        c-2.3,5-8.2,7.2-13.2,5C806.4,2543.3,780.5,2524.2,758.9,2500z" class="color414042 svgShape"/><path fill="#424140" d="M1125.2 2445.3c-.9-1-1.6-2.2-2-3.6l-17.6-54.6c-1.7-5.2 1.2-10.9 6.4-12.6 5.2-1.7 10.9 1.2 12.6 6.4l13.3 41 34.1-26.6c4.4-3.4 10.6-2.6 14 1.7 3.4 4.3 2.6 10.6-1.7 14l-45.4 35.3c-2.6 2-6 2.6-9.1 1.7C1127.9 2447.6 1126.4 2446.6 1125.2 2445.3zM1491.3 2514.6l64.2 138.7c5.7 12.3 19.8 18.1 32.5 13.3l85.4-32.1c29.2 36.5 63.4 67.8 101.2 93.2l-25 87.8c-3.7 13 3.3 26.6 15.9 31.3l143.5 52.7c12.7 4.7 26.8-1.3 32.4-13.6l37.7-83.1c0 0 0 0 0 0 45.2 5.1 91.6 3.4 137.4-5.6l44.4 79.7c6.6 11.8 21.1 16.5 33.4 10.9l138.7-64.2c12.3-5.7 18.1-19.9 13.3-32.5l-32.1-85.4c36.5-29.1 67.8-63.4 93.2-101.1l0 0 87.8 24.9c13 3.7 26.6-3.3 31.3-15.9l52.7-143.5c4.7-12.7-1.3-26.8-13.6-32.4l-83.1-37.8c5.1-45.2 3.4-91.5-5.6-137.4l79.7-44.4c11.8-6.6 16.5-21.1 10.9-33.4l-64.2-138.7c-5.7-12.3-19.8-18.1-32.5-13.3l-85.4 32.1c-29.2-36.5-63.4-67.8-101.2-93.2 0 0 0 0 0 0l24.9-87.8c3.7-13-3.3-26.6-15.9-31.3l-143.5-52.7c-12.7-4.7-26.8 1.3-32.4 13.6l-37.7 83c-45.3-5-91.6-3.4-137.4 5.7l-44.4-79.7c-6.6-11.8-21.1-16.5-33.4-10.9l-138.7 64.2c-12.3 5.7-18.1 19.8-13.3 32.5l32 85.4c-36.5 29.2-67.8 63.4-93.2 101.2l-87.7-24.9c-13-3.7-26.6 3.3-31.3 15.9l-52.7 143.5c-4.7 12.7 1.3 26.8 13.6 32.4l83.1 37.7c0 0 0 0 0 0-5 45.2-3.4 91.5 5.6 137.4l-79.7 44.4C1490.3 2487.8 1485.6 2502.4 1491.3 2514.6zM1744.9 2481.4c-72.8-157.2-4.4-343.6 152.8-416.4 157.2-72.8 343.6-4.4 416.4 152.8 72.8 157.2 4.4 343.6-152.8 416.4C2004.1 2707 1817.6 2638.6 1744.9 2481.4z" class="color414042 svgShape"/><path fill="#5b5a58" d="M2338.5 2191.7c5.1-2.5 7.2-8.6 4.7-13.6-82.3-169.4-287.1-240.2-456.5-157.8-5.1 2.5-7.2 8.6-4.7 13.6 2.5 5.1 8.6 7.2 13.6 4.7 159.2-77.4 351.8-10.9 429.2 148.4C2327.3 2192.1 2333.4 2194.2 2338.5 2191.7zM2204.4 2727.3c5.1-2.4 7.3-8.4 5-13.6-2.4-5.1-8.4-7.3-13.5-5-198 91.7-433.8 5.2-525.5-192.8-2.4-5.1-8.4-7.3-13.6-5-5.1 2.4-7.3 8.4-5 13.6C1748.2 2732.8 1996.1 2823.7 2204.4 2727.3z" class="color58595b svgShape"/><path fill="#424140" d="M2133.3,2562.4c115.7-53.6,166.3-191.4,112.7-307.1c-53.6-115.7-191.4-166.3-307.1-112.7        c-83.5,38.7-136.2,123.2-134.1,215.2c0.1,5.5,4.7,9.9,10.2,9.8c5.5-0.1,9.9-4.7,9.8-10.2c-1.9-84.1,46.2-161.3,122.5-196.7        c105.7-49,231.6-2.8,280.6,103c49,105.7,2.8,231.6-103,280.6c-27,12.5-55.6,19.1-85,19.6c-5.5,0.1-9.9,4.6-9.8,10.2        c0.1,5.5,4.6,9.9,10.2,9.8C2072.5,2583.3,2103.8,2576,2133.3,2562.4z" class="color414042 svgShape"/><path fill="#424140" d="M1819,2366.6c1.2-0.6,2.4-1.4,3.3-2.5l37.9-43.1c3.6-4.1,3.2-10.4-0.9-14.1c-4.1-3.6-10.4-3.2-14.1,0.9        l-28.5,32.4l-20.7-38c-2.6-4.8-8.7-6.6-13.5-4c-4.8,2.6-6.6,8.7-4,13.5l27.6,50.5c1.6,2.9,4.4,4.8,7.7,5.1        C1815.5,2367.7,1817.3,2367.4,1819,2366.6z" class="color414042 svgShape"/><g fill="#000000" class="color000 svgShape"><path fill="#f7d19b" d="M1372.5,507.1l22-14.2c4.3-2.2,7.5-6.1,8.8-10.8l5.8-20.1c1.1-3.8,5-6,8.8-5l0,0c3.1,0.8,5.4,3.6,5.4,6.9     l0.4,18.6c0.1,4.9,4.5,8.7,9.4,7.9l49.3-7.5c3.9-0.6,7.5,2,8.2,5.8l0,0c0.7,3.8-1.7,7.4-5.4,8.3l-27.2,6.5l30.8-7.3     c4.5-1.1,8.9,1.9,9.5,6.5l0,0c0.6,4.1-2.1,8-6.1,8.8l-45.7,9.6l36.4-7.9c4.2-0.9,8.4,1.8,9.3,6.1l0,0c0.8,4.2-1.9,8.3-6.1,9.1     l-49,9.6l37-7.4c4.1-0.8,8.2,1.8,9.1,5.9l0,0c0.9,4-1.5,8-5.5,9.1c-29.6,8.5-63.1,13.5-98.9,16.5L1372.5,507.1z" class="colorf7c19b svgShape"/><path fill="#333333" d="M752.2,312.2c0,0-132.8,71.9-53.4,220.8l71.7-63.7L752.2,312.2z" class="color333 svgShape"/><rect width="71.8" height="109.6" x="753.7" y="1625.1" fill="#f7d19b" transform="matrix(.9993 -.03618 .03618 .9993 -60.267 29.67)" class="colorf7c19b svgShape"/><path fill="#333333" d="M759.1,1752.6l-10.4,14.3l-2.8,4.7c-1.6,2.7-2.4,5.8-2.3,9l0.4,12.2c0.1,3,2.7,5.4,5.7,5.3l13.6-0.5        l-0.1-3.5l7.4-0.3l0.1,3.4l16.3-0.2l-0.1-2.8l7.7-0.3l0.1,3.1l18.3-0.8l8.9-12.3c14.7,3.7,28,8.4,39.4,14.4        c0.5,0.4,19-0.2,19.1-0.7l-0.1-2.7l7.2-0.3l0.1,2.7c6,0.2,11.8,0,17.6-0.6l-0.1-2.9l7-0.3l0.1,2.3c6.2-0.2,11.6-1.1,16.3-2.6        l-0.1-2.3l7-1.1l0.1,2c4.1-0.7,7.9-2,11.5-3.6l-0.4-2.3l6.2-2.8l1.4,2.2c6.7-3,12.8-6.2,18.1-9.5c0,0,0.8-9.4-5-9.7l-74.6-5.5        l-95.9-9.6L759.1,1752.6z" class="color333 svgShape"/><path fill="#5b5a58" d="M744.9,1746.4c0.2,4.6,0.8,9.1,1.9,13.6l1.8,7c28.6-1.5,55.3-0.4,79.3,4.8c5,1.1,9.9,2.3,14.6,3.7        c40.7,12.5,82.2,8.7,124.6-9.1l-0.2-6.7c-0.2-5-3.8-9.1-8.7-9.9l-32.1-5.3c-5.7-1-11.4-1.7-17.2-2.6        c-16.1-2.4-31.1-8.2-45.2-17c-0.8-0.5-1.5-1-2.3-1.5c-0.4-0.3-0.9-0.6-1.3-0.9c-0.6,7-7,15.8-7.3,16.2        c-0.2,0.3-0.5,0.4-0.8,0.4c-0.2,0-0.3-0.1-0.4-0.2c-0.4-0.3-0.5-0.8-0.2-1.3c2.3-3.1,7.1-11.1,7-16.4c-0.3-0.2-0.6-0.4-1-0.7        c-5.7-1.3-15,1.2-18.8,2.6c-0.5,0.2-1-0.1-1.1-0.5c-0.2-0.5,0.1-1,0.5-1.1c0.5-0.2,9.2-3.3,16.4-3.1c-1.1-0.8-2.3-1.7-3.4-2.6        c-0.7-0.6-1.4-1.1-2.1-1.7c-1.5-1.2-3-2.5-4.6-3.8c-0.6-0.5-1.2-1.1-1.8-1.6c-2.2-2-4.4-4-6.5-6.1c-4.5,0.5-10.1,3.9-12.4,5.5        c-0.4,0.3-1,0.2-1.2-0.2c-0.3-0.4-0.2-1,0.2-1.2c0.4-0.2,6.3-4.4,11.9-5.6c-0.9-0.9-1.7-1.7-2.6-2.6c-1.4-1.5-3.3-2.3-5.4-2.3        l-74.2,0c-2.7,0-4.9,2.3-4.7,5l0.6,8.7c0.4,6.5-0.1,13-1.6,19.3C745.3,1734.8,744.7,1740.6,744.9,1746.4z" class="color58595b svgShape"/><path fill="#23211f" d="M851.5 1739c.1.1.3.2.4.2.3 0 .6-.1.8-.4.3-.5 6.7-9.3 7.3-16.2-.6-.4-1.2-.8-1.7-1.2.1 5.3-4.8 13.3-7 16.4C851 1738.1 851.1 1738.7 851.5 1739zM837.5 1722.7c.2.5.7.7 1.1.5 3.8-1.4 13.1-3.9 18.8-2.6-1-.7-2-1.4-3-2.2-7.2-.2-15.9 2.9-16.4 3.1C837.5 1721.7 837.3 1722.3 837.5 1722.7z" class="color231f20 svgShape"/><path fill="#303030" d="M822.3,1708c0.3,0.4,0.8,0.5,1.2,0.2c2.3-1.7,7.9-5,12.4-5.5c-0.5-0.5-1-1-1.5-1.6        c-5.6,1.2-11.6,5.4-11.9,5.6C822.1,1707,822,1707.6,822.3,1708z" class="color303030 svgShape"/><path fill="#424140" d="M744.9,1746.4c0.2,4.6,0.8,9.1,1.9,13.6l1.8,7c28.6-1.5,55.3-0.4,79.3,4.8l35.7-26.7        c2.1-1.5,2.4-4.5,0.7-6.4l-37.8-42.5l-74.2,0c-2.7,0-4.9,2.3-4.7,5l0.6,8.7c0.4,6.5-0.1,13-1.6,19.3        C745.3,1734.8,744.7,1740.6,744.9,1746.4z" class="color414042 svgShape"/><polygon fill="#5b5a58" points="825.3 1699.6 825.9 1699.1 825.4 1698.5 824.7 1698.5 824.7 1699.3 825 1699.3" class="color58595b svgShape"/><path fill="#5b5a58" d="M750.2,1761.8l0.8-0.2l0.3,1l-0.8,0.2L750.2,1761.8z M749.7,1759.7l0.8-0.2l0.3,1l-0.8,0.2           L749.7,1759.7z M749.2,1757.6l0.8-0.2c0.1,0.3,0.2,0.7,0.2,1l-0.8,0.2C749.3,1758.3,749.3,1758,749.2,1757.6z            M748.7,1755.5l0.8-0.2c0.1,0.3,0.1,0.7,0.2,1l-0.8,0.2C748.9,1756.2,748.8,1755.9,748.7,1755.5z M748.4,1753.4l0.8-0.1           c0.1,0.3,0.1,0.7,0.2,1l-0.8,0.1C748.5,1754.1,748.4,1753.7,748.4,1753.4z M748.1,1751.3l0.8-0.1c0,0.4,0.1,0.7,0.1,1.1           l-0.8,0.1C748.2,1752,748.1,1751.6,748.1,1751.3z M747.9,1749.1l0.8-0.1c0,0.4,0.1,0.7,0.1,1.1l-0.8,0.1           C747.9,1749.8,747.9,1749.5,747.9,1749.1z M747.7,1747l0.8,0c0,0.4,0,0.7,0.1,1.1l-0.8,0.1           C747.8,1747.7,747.7,1747.3,747.7,1747z M747.7,1745.9c0-0.4,0-0.7,0-1.1l0.8,0c0,0.4,0,0.7,0,1.1L747.7,1745.9z            M747.6,1743.7c0-0.4,0-0.7,0-1.1l0.8,0c0,0.4,0,0.7,0,1.1L747.6,1743.7z M747.7,1741.6c0-0.4,0-0.7,0-1.1l0.8,0           c0,0.4,0,0.7,0,1.1L747.7,1741.6z M747.8,1739.4c0-0.4,0.1-0.7,0.1-1.1l0.8,0.1c0,0.4-0.1,0.7-0.1,1.1L747.8,1739.4z            M748,1737.3c0-0.4,0.1-0.7,0.1-1.1l0.8,0.1c0,0.4-0.1,0.7-0.1,1.1L748,1737.3z M748.3,1735.1c0.1-0.4,0.1-0.7,0.2-1.1           l0.8,0.1c-0.1,0.3-0.1,0.7-0.2,1.1L748.3,1735.1z M748.6,1733c0.1-0.4,0.1-0.7,0.2-1.1l0.8,0.2c-0.1,0.3-0.1,0.7-0.2,1           L748.6,1733z M749,1730.9c0.1-0.4,0.2-0.7,0.2-1.1l0.8,0.2c-0.1,0.3-0.2,0.7-0.2,1L749,1730.9z M749.5,1728.8           c0.1-0.3,0.2-0.7,0.2-1l0.8,0.2c-0.1,0.4-0.1,0.7-0.2,1.1L749.5,1728.8z M749.9,1726.7c0.1-0.3,0.1-0.7,0.2-1l0.8,0.1           c-0.1,0.4-0.1,0.7-0.2,1.1L749.9,1726.7z M750.3,1724.6c0.1-0.4,0.1-0.7,0.2-1.1l0.8,0.1c-0.1,0.4-0.1,0.7-0.2,1.1           L750.3,1724.6z M750.6,1722.5c0-0.4,0.1-0.7,0.1-1.1l0.8,0.1c0,0.4-0.1,0.7-0.1,1.1L750.6,1722.5z M750.8,1720.4           c0-0.4,0.1-0.7,0.1-1.1l0.8,0.1c0,0.4-0.1,0.7-0.1,1.1L750.8,1720.4z M750.9,1718.2c0-0.4,0-0.7,0.1-1.1l0.8,0           c0,0.4,0,0.7-0.1,1.1L750.9,1718.2z M751,1716.1c0-0.4,0-0.7,0-1.1l0.8,0c0,0.4,0,0.7,0,1.1L751,1716.1z M751,1714           c0-0.4,0-0.7,0-1.1l0.8,0c0,0.4,0,0.7,0,1.1L751,1714z M750.9,1710.8l0.8,0c0,0.4,0,0.7,0.1,1.1l-0.8,0           C751,1711.5,751,1711.1,750.9,1710.8z M750.8,1708.7l0.8-0.1l0.1,1.1l-0.8,0.1L750.8,1708.7z M750.7,1706.5l0.8-0.1           l0.1,1.1l-0.8,0.1L750.7,1706.5z M750.5,1704.4l0.8-0.1l0.1,1.1l-0.8,0.1L750.5,1704.4z M750.4,1702.2l0.8-0.1l0.1,1.1           l-0.8,0.1L750.4,1702.2z M822.5,1699.3v-0.8h1.1v0.8H822.5z M820.4,1699.3v-0.8h1.1v0.8H820.4z M818.2,1699.3l0-0.8h1.1           l0,0.8L818.2,1699.3z M816.1,1699.3l0-0.8h1.1l0,0.8H816.1z M813.9,1699.3v-0.8l1.1,0v0.8L813.9,1699.3z M811.8,1699.3           l0-0.8l1.1,0l0,0.8H811.8z M809.6,1699.3v-0.8h1.1v0.8H809.6z M807.5,1699.3l0-0.8h1.1v0.8H807.5z M805.3,1699.3l0-0.8h1.1           v0.8H805.3z M803.2,1699.3l0-0.8l1.1,0l-0.1,0.8H803.2z M750.3,1701.1c0-0.4,0.2-0.8,0.4-1.2l0.7,0.4           c-0.2,0.3-0.2,0.5-0.3,0.9L750.3,1701.1z M801.1,1699.3l0-0.8h1.1v0.8H801.1z M798.9,1699.3v-0.8l1.1,0v0.8L798.9,1699.3z            M796.8,1699.3l0-0.8l1.1,0l-0.1,0.8L796.8,1699.3z M794.6,1699.3l0-0.8l1.1,0l-0.1,0.8L794.6,1699.3z M792.5,1699.3v-0.8           h1.1l-0.1,0.8L792.5,1699.3z M790.3,1699.3l0-0.8l1.1,0l0,0.8H790.3z M788.2,1699.3l0-0.8l1.1,0v0.8H788.2z M786,1699.3           l0-0.8h1.1v0.8H786z M783.9,1699.3l0-0.8l1.1,0v0.8H783.9z M781.7,1699.3l0-0.8h1.1v0.8H781.7z M779.6,1699.3l0-0.8l1.1,0           l0,0.8H779.6z M777.5,1699.3l0-0.8h1.1v0.8L777.5,1699.3z M775.3,1699.3l0-0.8l1.1,0l0,0.8L775.3,1699.3z M773.2,1699.3           v-0.8h1.1l0,0.8H773.2z M771,1699.3v-0.8h1.1l0,0.8H771z M768.9,1699.3v-0.8h1.1l0,0.8H768.9z M766.7,1699.3v-0.8l1.1,0           v0.8L766.7,1699.3z M764.6,1699.3v-0.8l1.1,0v0.8L764.6,1699.3z M762.4,1699.3v-0.8l1.1,0v0.8H762.4z M751.5,1699           c0.3-0.2,0.7-0.4,1.1-0.5l0.2,0.8c-0.3,0.1-0.6,0.2-0.8,0.3L751.5,1699z M760.3,1699.3l0-0.8h1.1l0,0.8H760.3z            M758.1,1699.3l0-0.8h1.1v0.8L758.1,1699.3z M756,1699.3l0-0.8l1.1,0v0.8L756,1699.3z M753.8,1699.3l0-0.8l1.1,0v0.8H753.8           z" class="color58595b svgShape"/><polygon fill="#5b5a58" points="750.9 1764.6 751.8 1764.6 751.8 1763.8 751.5 1763.8 751.5 1763.6 750.7 1763.8" class="color58595b svgShape"/><path fill="#5b5a58" d="M824.4,1768.7l0.2-0.8l1,0.2l-0.2,0.8L824.4,1768.7z M822.3,1768.3l0.1-0.8l1,0.2l-0.2,0.8           L822.3,1768.3z M820.2,1767.9l0.1-0.8l1,0.2l-0.1,0.8L820.2,1767.9z M818.1,1767.5l0.1-0.8l1,0.2l-0.1,0.8L818.1,1767.5z            M816,1767.2l0.1-0.8l1,0.2l-0.1,0.8L816,1767.2z M814,1766.9l0.1-0.8l1,0.2l-0.1,0.8L814,1766.9z M811.9,1766.6l0.1-0.8           l1,0.1l-0.1,0.8L811.9,1766.6z M809.8,1766.3l0.1-0.8l1.1,0.1l-0.1,0.8L809.8,1766.3z M807.7,1766l0.1-0.8l1.1,0.1           l-0.1,0.8L807.7,1766z M805.6,1765.8l0.1-0.8l1.1,0.1l-0.1,0.8L805.6,1765.8z M803.5,1765.6l0.1-0.8l1.1,0.1l-0.1,0.8           L803.5,1765.6z M801.4,1765.4l0.1-0.8l1.1,0.1l-0.1,0.8L801.4,1765.4z M799.3,1765.2l0.1-0.8l1.1,0.1l-0.1,0.8           L799.3,1765.2z M797.2,1765l0.1-0.8l1.1,0.1l-0.1,0.8L797.2,1765z M795.1,1764.8l0.1-0.8l1.1,0.1l-0.1,0.8L795.1,1764.8z            M793,1764.7l0.1-0.8l1.1,0.1l-0.1,0.8L793,1764.7z M790.9,1764.6l0-0.8l1.1,0.1l0,0.8L790.9,1764.6z M788.8,1764.5l0-0.8           l1.1,0.1l0,0.8L788.8,1764.5z M786.6,1764.4l0-0.8l1.1,0l0,0.8L786.6,1764.4z M784.5,1764.3l0-0.8l1.1,0l0,0.8           L784.5,1764.3z M782.4,1764.2l0-0.8l1.1,0l0,0.8L782.4,1764.2z M780.3,1764.1l0-0.8l1.1,0l0,0.8L780.3,1764.1z            M778.2,1764.1l0-0.8l1.1,0l0,0.8L778.2,1764.1z M776.1,1764.1l0-0.8l1.1,0l0,0.8L776.1,1764.1z M774,1764l0-0.8l1.1,0           l0,0.8L774,1764z M771.9,1764v-0.8l1.1,0l0,0.8L771.9,1764z M769.7,1764.1l0-0.8l1.1,0l0,0.8L769.7,1764.1z M767.6,1764.1           l0-0.8l1.1,0l0,0.8L767.6,1764.1z M765.5,1764.1l0-0.8l1.1,0l0,0.8L765.5,1764.1z M763.4,1764.1l0-0.8l1.1,0l0,0.8           L763.4,1764.1z M761.3,1764.2l0-0.8l1.1,0l0,0.8L761.3,1764.2z M752.8,1763.7l1.1,0l0,0.8l-1.1,0L752.8,1763.7z            M759.2,1764.3l0-0.8l1.1,0l0,0.8L759.2,1764.3z M754.9,1763.6l1.1,0l0,0.8l-1.1,0L754.9,1763.6z M757.1,1764.3l0-0.8           l1.1,0l0,0.8L757.1,1764.3z" class="color58595b svgShape"/><polygon fill="#5b5a58" points="827.1 1769.2 827.7 1768.8 827.2 1768.2 826.9 1768.4 826.6 1768.3 826.4 1769.1" class="color58595b svgShape"/><path fill="#5b5a58" d="M828.1,1767.5l0.8-0.6l0.5,0.6l-0.8,0.6L828.1,1767.5z M829.8,1766.3l0.8-0.6l0.5,0.6l-0.8,0.6           L829.8,1766.3z M831.5,1765l0.8-0.6l0.5,0.6l-0.8,0.6L831.5,1765z M833.2,1763.7l0.8-0.6l0.5,0.6l-0.8,0.6L833.2,1763.7z            M834.9,1762.5l0.8-0.6l0.5,0.6l-0.8,0.6L834.9,1762.5z M836.5,1761.2l0.8-0.6l0.5,0.6l-0.8,0.6L836.5,1761.2z M838.2,1760           l0.8-0.6l0.5,0.6l-0.8,0.6L838.2,1760z M839.9,1758.7l0.8-0.6l0.5,0.6l-0.8,0.6L839.9,1758.7z M841.6,1757.4l0.8-0.6           l0.5,0.6l-0.8,0.6L841.6,1757.4z M843.3,1756.2l0.8-0.6l0.5,0.6l-0.8,0.6L843.3,1756.2z M845,1754.9l0.8-0.6l0.5,0.6           l-0.8,0.6L845,1754.9z M846.7,1753.6l0.8-0.6l0.5,0.6l-0.8,0.6L846.7,1753.6z M848.4,1752.4l0.8-0.6l0.5,0.6l-0.8,0.6           L848.4,1752.4z M850.1,1751.1l0.8-0.6l0.5,0.6l-0.8,0.6L850.1,1751.1z M851.8,1749.8l0.8-0.6l0.5,0.6l-0.8,0.6           L851.8,1749.8z M853.5,1748.6l0.8-0.6l0.5,0.6l-0.8,0.6L853.5,1748.6z M855.2,1747.3l0.8-0.6l0.5,0.6l-0.8,0.6           L855.2,1747.3z M856.9,1746.1l0.8-0.6l0.5,0.6l-0.8,0.6L856.9,1746.1z M858.6,1744.8l0.8-0.6l0.5,0.6l-0.8,0.6           L858.6,1744.8z M860.3,1743.5l0.8-0.6l0.5,0.6l-0.8,0.6L860.3,1743.5z M861.7,1742.2c0.1-0.2,0.2-0.4,0.2-0.7           c0-0.1,0-0.1,0-0.2l0.8,0c0,0.1,0,0.2,0,0.3c0,0.3-0.1,0.6-0.3,0.9L861.7,1742.2z M861.4,1740.2l-0.3-0.4l0.6-0.5l0.3,0.4           c0.1,0.2,0.3,0.3,0.4,0.5l-0.7,0.4C861.6,1740.4,861.5,1740.3,861.4,1740.2z M859.7,1738.3l0.6-0.5l0.7,0.8l-0.6,0.5           L859.7,1738.3z M858.3,1736.7l0.6-0.5l0.7,0.8l-0.6,0.5L858.3,1736.7z M856.9,1735.1l0.6-0.5l0.7,0.8l-0.6,0.5           L856.9,1735.1z M855.5,1733.5l0.6-0.5l0.7,0.8l-0.6,0.5L855.5,1733.5z M854.1,1731.9l0.6-0.5l0.7,0.8l-0.6,0.5           L854.1,1731.9z M852.7,1730.4l0.6-0.5l0.7,0.8l-0.6,0.5L852.7,1730.4z M851.3,1728.8l0.6-0.5l0.7,0.8l-0.6,0.5           L851.3,1728.8z M849.9,1727.2l0.6-0.5l0.7,0.8l-0.6,0.5L849.9,1727.2z M848.4,1725.6l0.6-0.5l0.7,0.8l-0.6,0.5           L848.4,1725.6z M847,1724.1l0.6-0.5l0.7,0.8l-0.6,0.5L847,1724.1z M845.6,1722.5l0.6-0.5l0.7,0.8l-0.6,0.5L845.6,1722.5z            M844.2,1720.9l0.6-0.5l0.7,0.8l-0.6,0.5L844.2,1720.9z M842.8,1719.3l0.6-0.5l0.7,0.8l-0.6,0.5L842.8,1719.3z            M841.4,1717.7l0.6-0.5l0.7,0.8l-0.6,0.5L841.4,1717.7z M840,1716.2l0.6-0.5l0.7,0.8l-0.6,0.5L840,1716.2z M838.6,1714.6           l0.6-0.5l0.7,0.8l-0.6,0.5L838.6,1714.6z M837.2,1713l0.6-0.5l0.7,0.8l-0.6,0.5L837.2,1713z M835.8,1711.4l0.6-0.5l0.7,0.8           l-0.6,0.5L835.8,1711.4z M834.4,1709.8l0.6-0.5l0.7,0.8l-0.6,0.5L834.4,1709.8z M833,1708.3l0.6-0.5l0.7,0.8l-0.6,0.5           L833,1708.3z M831.6,1706.7l0.6-0.5l0.7,0.8l-0.6,0.5L831.6,1706.7z M830.2,1705.1l0.6-0.5l0.7,0.8l-0.6,0.5L830.2,1705.1z            M828.8,1703.5l0.6-0.5l0.7,0.8l-0.6,0.5L828.8,1703.5z M827.4,1702l0.6-0.5l0.7,0.8l-0.6,0.5L827.4,1702z M826,1700.4           l0.6-0.5l0.7,0.8l-0.6,0.5L826,1700.4z" class="color58595b svgShape"/><path fill="#e8e7e6" d="M847.6 1737.9c.2-2.3 2.2-3.9 4.4-3.7 2.3.2 3.9 2.2 3.7 4.4-.2 2.3-2.2 3.9-4.4 3.7C849.1 1742.1 847.4 1740.1 847.6 1737.9zM848.9 1738c-.1 1.6 1 2.9 2.6 3.1 1.6.1 2.9-1 3.1-2.6.1-1.6-1-2.9-2.6-3.1C850.4 1735.3 849 1736.4 848.9 1738zM833.3 1722.8c.2-2.3 2.2-3.9 4.4-3.7 2.3.2 3.9 2.2 3.7 4.4-.2 2.3-2.2 3.9-4.4 3.7C834.8 1727.1 833.1 1725.1 833.3 1722.8zM834.6 1722.9c-.1 1.6 1 2.9 2.6 3.1 1.6.1 2.9-1 3.1-2.6.1-1.6-1-2.9-2.6-3.1C836.1 1720.2 834.7 1721.4 834.6 1722.9z" class="colore6e7e8 svgShape"/><path fill="#23211f" d="M851.3,1737.7c-0.3,0.4-0.2,1,0.2,1.3c0.1,0.1,0.3,0.2,0.4,0.2c0.3,0,0.6-0.1,0.8-0.4           c0.3-0.5,6.7-9.3,7.3-16.2c0-0.2,0-0.4,0-0.6c0-0.8,0-1.5-0.2-2.2c-0.2-0.8-0.4-1.5-0.8-2.1c-1.6-2.6-5.1-3.7-10.3-3.3           c0.7,0.6,1.4,1.2,2.1,1.7c3.4,0,5.6,0.9,6.6,2.6c0.1,0.1,0.2,0.3,0.2,0.5c0.3,0.6,0.4,1.3,0.5,2c0,0.1,0,0.3,0,0.4           C858.4,1726.6,853.6,1734.6,851.3,1737.7z" class="color231f20 svgShape"/><path fill="#23211f" d="M837.5,1722.7c0.2,0.5,0.7,0.7,1.1,0.5c3.8-1.4,13.1-3.9,18.8-2.6c0.3,0.1,0.6,0.2,0.9,0.3           c0.7,0.2,1.3,0.5,1.8,0.9c0.2,0.2,0.4,0.3,0.6,0.5c0.3,0.3,0.5,0.6,0.7,1c0.8,0.5,1.5,1,2.3,1.5c-0.2-1.5-0.8-2.7-1.7-3.7           c-0.6-0.6-1.3-1.1-2.1-1.5c-0.6-0.3-1.4-0.6-2.1-0.8c-1.1-0.3-2.2-0.4-3.5-0.4c-7.2-0.2-15.9,2.9-16.4,3.1           C837.5,1721.7,837.3,1722.3,837.5,1722.7z" class="color231f20 svgShape"/><path fill="#e8e7e6" d="M818.9,1707.6c-0.1-2.3,1.7-4.2,4-4.2c2.3-0.1,4.2,1.7,4.2,4c0.1,2.3-1.7,4.2-4,4.2          C820.9,1711.6,819,1709.8,818.9,1707.6z M820.2,1707.5c0,1.6,1.4,2.8,2.9,2.7c1.6-0.1,2.8-1.4,2.7-2.9          c-0.1-1.6-1.4-2.8-2.9-2.7C821.4,1704.7,820.2,1706,820.2,1707.5z" class="colore6e7e8 svgShape"/><path fill="#23211f" d="M822.3,1708c0.3,0.4,0.8,0.5,1.2,0.2c2.3-1.7,7.9-5,12.4-5.5c1.5-0.2,2.9,0,3.9,0.6          c1.5,0.9,2.4,2.7,2.6,5.6c0.6,0.5,1.2,1.1,1.8,1.6c0.1-4.4-1.1-7.3-3.5-8.7c-1.8-1-4.1-1.1-6.4-0.6          c-5.6,1.2-11.6,5.4-11.9,5.6C822.1,1707,822,1707.6,822.3,1708z" class="color231f20 svgShape"/><rect width="71.8" height="109.6" x="994.4" y="1624.9" fill="#f7d19b" transform="rotate(-2.075 1030.223 1679.62)" class="colorf7c19b svgShape"/><path fill="#333333" d="M999.7,1752.4l-10.4,14.3l-2.8,4.7c-1.6,2.7-2.4,5.8-2.3,9l0.4,12.2c0.1,3,2.7,5.4,5.7,5.3l13.6-0.5        l-0.1-3.5l7.4-0.3l0.1,3.4l16.3-0.2l-0.1-2.8l7.7-0.3l0.1,3.1l18.3-0.8l8.9-12.3c14.7,3.7,28,8.4,39.4,14.4        c0.5,0.4,19-0.2,19.1-0.7l-0.1-2.7l7.2-0.3l0.1,2.7c6,0.2,11.8,0,17.6-0.6l-0.1-2.9l7-0.3l0.1,2.3c6.2-0.2,11.6-1.1,16.3-2.6        l-0.1-2.3l7-1.1l0.1,2c4.1-0.7,7.9-2,11.5-3.6l-0.4-2.3l6.2-2.8l1.4,2.2c6.7-3,12.8-6.2,18.1-9.5c0,0,0.8-9.4-5-9.7l-74.6-5.5        l-95.9-9.6L999.7,1752.4z" class="color333 svgShape"/><path fill="#5b5a58" d="M985.6,1746.2c0.2,4.6,0.8,9.1,1.9,13.6l1.8,7c28.6-1.5,55.3-0.4,79.3,4.8c5,1.1,9.9,2.3,14.6,3.7        c40.7,12.5,82.2,8.7,124.6-9.1l-0.2-6.7c-0.2-5-3.8-9.1-8.7-9.9l-32.1-5.3c-5.7-1-11.4-1.7-17.2-2.6        c-16.1-2.4-31.1-8.2-45.2-17c-0.8-0.5-1.6-1-2.3-1.5c-0.4-0.3-0.9-0.6-1.3-0.9c-0.6,7-7,15.8-7.3,16.2        c-0.2,0.3-0.5,0.4-0.8,0.4c-0.2,0-0.3-0.1-0.4-0.2c-0.4-0.3-0.5-0.8-0.2-1.3c2.3-3.1,7.1-11.1,7-16.4c-0.3-0.2-0.6-0.4-1-0.7        c-5.7-1.3-15,1.2-18.8,2.6c-0.5,0.2-1-0.1-1.1-0.5c-0.2-0.5,0.1-1,0.5-1.1c0.5-0.2,9.2-3.3,16.4-3.1c-1.1-0.8-2.3-1.7-3.4-2.6        c-0.7-0.6-1.4-1.1-2.1-1.7c-1.5-1.2-3-2.5-4.6-3.8c-0.6-0.5-1.2-1.1-1.8-1.6c-2.2-2-4.4-4-6.5-6.1c-4.5,0.5-10.1,3.9-12.4,5.5        c-0.4,0.3-1,0.2-1.2-0.2c-0.3-0.4-0.2-1,0.2-1.2c0.4-0.2,6.3-4.4,11.9-5.6c-0.9-0.9-1.7-1.7-2.6-2.6c-1.4-1.5-3.3-2.3-5.4-2.3        l-74.2-0.1c-2.7,0-4.9,2.3-4.7,5l0.6,8.7c0.4,6.5-0.1,13-1.6,19.3C985.9,1734.6,985.4,1740.4,985.6,1746.2z" class="color58595b svgShape"/><path fill="#23211f" d="M1092.1 1738.7c.1.1.3.2.4.2.3 0 .6-.1.8-.4.3-.5 6.7-9.3 7.3-16.2-.6-.4-1.2-.8-1.7-1.2.1 5.3-4.8 13.3-7 16.4C1091.7 1737.9 1091.7 1738.4 1092.1 1738.7zM1078.1 1722.5c.2.5.7.7 1.1.5 3.8-1.4 13.1-3.9 18.8-2.6-1-.7-2-1.4-3-2.2-7.2-.2-15.9 2.9-16.4 3.1C1078.2 1721.5 1077.9 1722 1078.1 1722.5z" class="color231f20 svgShape"/><path fill="#303030" d="M1063,1707.7c0.3,0.4,0.8,0.5,1.2,0.2c2.3-1.7,7.9-5,12.4-5.5c-0.5-0.5-1-1-1.5-1.6        c-5.6,1.2-11.6,5.4-11.9,5.6C1062.8,1706.8,1062.7,1707.3,1063,1707.7z" class="color303030 svgShape"/><path fill="#424140" d="M985.6,1746.2c0.2,4.6,0.8,9.1,1.9,13.6l1.8,7c28.6-1.5,55.3-0.4,79.3,4.8l35.7-26.7        c2.1-1.5,2.4-4.5,0.7-6.4l-37.8-42.5l-74.2-0.1c-2.7,0-4.9,2.3-4.7,5l0.6,8.7c0.4,6.5-0.1,13-1.6,19.3        C985.9,1734.6,985.4,1740.4,985.6,1746.2z" class="color414042 svgShape"/><polygon fill="#5b5a58" points="1065.9 1699.3 1066.5 1698.8 1066 1698.3 1065.3 1698.3 1065.3 1699.1 1065.7 1699.1" class="color58595b svgShape"/><path fill="#5b5a58" d="M990.9,1761.5l0.8-0.2l0.3,1l-0.8,0.2L990.9,1761.5z M990.3,1759.5l0.8-0.2l0.3,1l-0.8,0.2           L990.3,1759.5z M989.8,1757.4l0.8-0.2c0.1,0.3,0.2,0.7,0.2,1l-0.8,0.2C990,1758.1,989.9,1757.7,989.8,1757.4z            M989.4,1755.3l0.8-0.2c0.1,0.4,0.1,0.7,0.2,1l-0.8,0.2C989.5,1756,989.5,1755.6,989.4,1755.3z M989,1753.1l0.8-0.1           c0.1,0.4,0.1,0.7,0.2,1l-0.8,0.1C989.1,1753.9,989.1,1753.5,989,1753.1z M988.7,1751l0.8-0.1c0,0.4,0.1,0.7,0.1,1.1           l-0.8,0.1C988.8,1751.7,988.8,1751.4,988.7,1751z M988.5,1748.9l0.8-0.1c0,0.4,0.1,0.7,0.1,1.1l-0.8,0.1           C988.6,1749.6,988.5,1749.2,988.5,1748.9z M988.4,1746.7l0.8,0c0,0.4,0,0.7,0.1,1.1l-0.8,0.1           C988.4,1747.4,988.4,1747.1,988.4,1746.7z M988.3,1745.6c0-0.4,0-0.7,0-1.1l0.8,0c0,0.4,0,0.7,0,1.1L988.3,1745.6z            M988.3,1743.5c0-0.4,0-0.7,0-1.1l0.8,0c0,0.4,0,0.7,0,1.1L988.3,1743.5z M988.3,1741.3c0-0.4,0-0.7,0.1-1.1l0.8,0           c0,0.4,0,0.7,0,1.1L988.3,1741.3z M988.5,1739.2c0-0.4,0.1-0.7,0.1-1.1l0.8,0.1c0,0.4-0.1,0.7-0.1,1.1L988.5,1739.2z            M988.6,1737c0-0.4,0.1-0.7,0.1-1.1l0.8,0.1c0,0.4-0.1,0.7-0.1,1.1L988.6,1737z M988.9,1734.9c0.1-0.4,0.1-0.7,0.2-1.1           l0.8,0.1c-0.1,0.4-0.1,0.7-0.2,1.1L988.9,1734.9z M989.2,1732.7c0.1-0.4,0.1-0.7,0.2-1.1l0.8,0.2c-0.1,0.3-0.1,0.7-0.2,1           L989.2,1732.7z M989.7,1730.6c0.1-0.4,0.2-0.7,0.2-1.1l0.8,0.2c-0.1,0.3-0.2,0.7-0.2,1L989.7,1730.6z M990.1,1728.5           c0.1-0.3,0.2-0.7,0.2-1l0.8,0.2c-0.1,0.4-0.1,0.7-0.2,1.1L990.1,1728.5z M990.6,1726.4c0.1-0.4,0.1-0.7,0.2-1.1l0.8,0.1           c-0.1,0.4-0.1,0.7-0.2,1.1L990.6,1726.4z M990.9,1724.3c0.1-0.4,0.1-0.7,0.2-1.1l0.8,0.1c0,0.4-0.1,0.7-0.2,1.1           L990.9,1724.3z M991.2,1722.2c0-0.4,0.1-0.7,0.1-1.1l0.8,0.1c0,0.4-0.1,0.7-0.1,1.1L991.2,1722.2z M991.4,1720.1           c0-0.4,0.1-0.7,0.1-1.1l0.8,0.1c0,0.4-0.1,0.7-0.1,1.1L991.4,1720.1z M991.6,1718c0-0.4,0-0.7,0.1-1.1l0.8,0           c0,0.4,0,0.7-0.1,1.1L991.6,1718z M991.7,1715.9c0-0.4,0-0.7,0-1.1l0.8,0c0,0.4,0,0.7,0,1.1L991.7,1715.9z M991.7,1713.7           c0-0.4,0-0.7,0-1.1l0.8,0c0,0.4,0,0.7,0,1.1L991.7,1713.7z M991.6,1710.5l0.8,0c0,0.4,0,0.7,0.1,1.1l-0.8,0           C991.6,1711.2,991.6,1710.9,991.6,1710.5z M991.5,1708.4l0.8-0.1l0.1,1.1l-0.8,0.1L991.5,1708.4z M991.3,1706.3l0.8-0.1           l0.1,1.1l-0.8,0.1L991.3,1706.3z M991.2,1704.1l0.8-0.1l0.1,1.1l-0.8,0.1L991.2,1704.1z M991,1702l0.8-0.1l0.1,1.1           l-0.8,0.1L991,1702z M1063.2,1699.1v-0.8h1.1v0.8L1063.2,1699.1z M1061,1699.1v-0.8l1.1,0v0.8H1061z M1058.9,1699.1l0-0.8           l1.1,0l0,0.8L1058.9,1699.1z M1056.7,1699.1l0-0.8l1.1,0v0.8H1056.7z M1054.6,1699.1l0-0.8h1.1v0.8H1054.6z M1052.4,1699.1           l0-0.8h1.1v0.8H1052.4z M1050.3,1699.1l0-0.8l1.1,0v0.8H1050.3z M1048.1,1699.1l0-0.8h1.1v0.8H1048.1z M1046,1699.1l0-0.8           h1.1v0.8L1046,1699.1z M1043.9,1699.1l0-0.8l1.1,0l-0.1,0.8H1043.9z M991,1700.9c0-0.4,0.2-0.8,0.4-1.2l0.7,0.4           c-0.2,0.3-0.2,0.5-0.3,0.9L991,1700.9z M1041.7,1699.1v-0.8h1.1v0.8L1041.7,1699.1z M1039.6,1699.1v-0.8h1.1v0.8H1039.6z            M1037.4,1699.1l0-0.8h1.1l-0.1,0.8L1037.4,1699.1z M1035.3,1699l0-0.8h1.1l-0.1,0.8H1035.3z M1033.1,1699l0-0.8l1.1,0           l-0.1,0.8L1033.1,1699z M1031,1699l0-0.8h1.1l0,0.8L1031,1699z M1028.8,1699v-0.8l1.1,0v0.8H1028.8z M1026.7,1699v-0.8h1.1           v0.8L1026.7,1699z M1024.5,1699l0-0.8h1.1v0.8L1024.5,1699z M1022.4,1699v-0.8h1.1v0.8H1022.4z M1020.3,1699v-0.8h1.1v0.8           L1020.3,1699z M1018.1,1699l0-0.8h1.1l0,0.8H1018.1z M1016,1699l0-0.8l1.1,0l0,0.8L1016,1699z M1013.8,1699v-0.8l1.1,0           l0,0.8H1013.8z M1011.7,1699v-0.8l1.1,0l0,0.8L1011.7,1699z M1009.5,1699l0-0.8h1.1v0.8H1009.5z M1007.4,1699v-0.8l1.1,0           l0,0.8H1007.4z M1005.2,1699l0-0.8l1.1,0v0.8H1005.2z M1003.1,1699v-0.8h1.1l0,0.8H1003.1z M992.2,1698.8           c0.3-0.2,0.7-0.4,1.1-0.5l0.2,0.8c-0.3,0.1-0.6,0.2-0.8,0.3L992.2,1698.8z M1000.9,1699v-0.8l1.1,0l0,0.8L1000.9,1699z            M998.8,1699l0-0.8l1.1,0v0.8H998.8z M996.6,1699l0-0.8h1.1l0,0.8L996.6,1699z M994.5,1699v-0.8l1.1,0l0,0.8H994.5z" class="color58595b svgShape"/><polygon fill="#5b5a58" points="991.6 1764.3 992.4 1764.3 992.4 1763.5 992.2 1763.5 992.1 1763.3 991.4 1763.5" class="color58595b svgShape"/><path fill="#5b5a58" d="M1065,1768.4l0.2-0.8l1,0.2l-0.2,0.8L1065,1768.4z M1062.9,1768l0.1-0.8l1,0.2l-0.2,0.8L1062.9,1768z            M1060.9,1767.6l0.1-0.8l1,0.2l-0.1,0.8L1060.9,1767.6z M1058.8,1767.3l0.1-0.8l1,0.2l-0.1,0.8L1058.8,1767.3z            M1056.7,1767l0.1-0.8l1,0.2l-0.1,0.8L1056.7,1767z M1054.6,1766.6l0.1-0.8l1,0.2l-0.1,0.8L1054.6,1766.6z M1052.5,1766.3           l0.1-0.8l1,0.1l-0.1,0.8L1052.5,1766.3z M1050.4,1766.1l0.1-0.8l1.1,0.1l-0.1,0.8L1050.4,1766.1z M1048.3,1765.8l0.1-0.8           l1.1,0.1l-0.1,0.8L1048.3,1765.8z M1046.2,1765.6l0.1-0.8l1.1,0.1l-0.1,0.8L1046.2,1765.6z M1044.1,1765.3l0.1-0.8l1.1,0.1           l-0.1,0.8L1044.1,1765.3z M1042,1765.1l0.1-0.8l1.1,0.1l-0.1,0.8L1042,1765.1z M1039.9,1764.9l0.1-0.8l1.1,0.1l-0.1,0.8           L1039.9,1764.9z M1037.8,1764.7l0.1-0.8l1.1,0.1l-0.1,0.8L1037.8,1764.7z M1035.7,1764.6l0.1-0.8l1.1,0.1l-0.1,0.8           L1035.7,1764.6z M1033.6,1764.4l0.1-0.8l1.1,0.1l-0.1,0.8L1033.6,1764.4z M1031.5,1764.3l0-0.8l1.1,0.1l0,0.8           L1031.5,1764.3z M1029.4,1764.2l0-0.8l1.1,0.1l0,0.8L1029.4,1764.2z M1027.3,1764.1l0-0.8l1.1,0l0,0.8L1027.3,1764.1z            M1025.2,1764l0-0.8l1.1,0l0,0.8L1025.2,1764z M1023.1,1763.9l0-0.8l1.1,0l0,0.8L1023.1,1763.9z M1021,1763.9l0-0.8l1.1,0           l0,0.8L1021,1763.9z M1018.8,1763.8l0-0.8l1.1,0l0,0.8L1018.8,1763.8z M1016.7,1763.8l0-0.8l1.1,0l0,0.8L1016.7,1763.8z            M1014.6,1763.8l0-0.8l1.1,0l0,0.8L1014.6,1763.8z M1012.5,1763.8l0-0.8h1.1l0,0.8H1012.5z M1010.4,1763.8l0-0.8l1.1,0           l0,0.8L1010.4,1763.8z M1008.3,1763.8l0-0.8l1.1,0l0,0.8L1008.3,1763.8z M1006.2,1763.8l0-0.8l1.1,0l0,0.8L1006.2,1763.8z            M1004.1,1763.9l0-0.8l1.1,0l0,0.8L1004.1,1763.9z M1001.9,1763.9l0-0.8l1.1,0l0,0.8L1001.9,1763.9z M993.5,1763.5l1.1,0           l0,0.8l-1.1,0L993.5,1763.5z M999.8,1764l0-0.8l1.1,0l0,0.8L999.8,1764z M995.6,1763.4l1.1,0l0,0.8l-1.1,0L995.6,1763.4z            M997.7,1764.1l0-0.8l1.1,0l0,0.8L997.7,1764.1z" class="color58595b svgShape"/><polygon fill="#5b5a58" points="1067.8 1769 1068.4 1768.6 1067.9 1767.9 1067.6 1768.1 1067.3 1768.1 1067.1 1768.8" class="color58595b svgShape"/><path fill="#5b5a58" d="M1068.7,1767.3l0.8-0.6l0.5,0.6l-0.8,0.6L1068.7,1767.3z M1070.4,1766l0.8-0.6l0.5,0.6l-0.8,0.6           L1070.4,1766z M1072.1,1764.8l0.8-0.6l0.5,0.6l-0.8,0.6L1072.1,1764.8z M1073.8,1763.5l0.8-0.6l0.5,0.6l-0.8,0.6           L1073.8,1763.5z M1075.5,1762.2l0.8-0.6l0.5,0.6l-0.8,0.6L1075.5,1762.2z M1077.2,1761l0.8-0.6l0.5,0.6l-0.8,0.6           L1077.2,1761z M1078.9,1759.7l0.8-0.6l0.5,0.6l-0.8,0.6L1078.9,1759.7z M1080.6,1758.4l0.8-0.6l0.5,0.6l-0.8,0.6           L1080.6,1758.4z M1082.3,1757.2l0.8-0.6l0.5,0.6l-0.8,0.6L1082.3,1757.2z M1084,1755.9l0.8-0.6l0.5,0.6l-0.8,0.6           L1084,1755.9z M1085.7,1754.7l0.8-0.6l0.5,0.6l-0.8,0.6L1085.7,1754.7z M1087.4,1753.4l0.8-0.6l0.5,0.6l-0.8,0.6           L1087.4,1753.4z M1089.1,1752.1l0.8-0.6l0.5,0.6l-0.8,0.6L1089.1,1752.1z M1090.8,1750.9l0.8-0.6l0.5,0.6l-0.8,0.6           L1090.8,1750.9z M1092.4,1749.6l0.9-0.6l0.5,0.6l-0.8,0.6L1092.4,1749.6z M1094.1,1748.3l0.8-0.6l0.5,0.6l-0.8,0.6           L1094.1,1748.3z M1095.8,1747.1l0.9-0.6l0.5,0.6l-0.8,0.6L1095.8,1747.1z M1097.5,1745.8l0.9-0.6l0.5,0.6l-0.8,0.6           L1097.5,1745.8z M1099.2,1744.5l0.8-0.6l0.5,0.6l-0.8,0.6L1099.2,1744.5z M1100.9,1743.3l0.8-0.6l0.5,0.6l-0.8,0.6           L1100.9,1743.3z M1102.3,1742c0.1-0.2,0.2-0.4,0.2-0.7c0-0.1,0-0.1,0-0.2l0.8,0c0,0.1,0,0.2,0,0.3c0,0.3-0.1,0.7-0.3,0.9           L1102.3,1742z M1102.1,1740l-0.3-0.4l0.6-0.5l0.3,0.4c0.1,0.2,0.3,0.3,0.4,0.5l-0.7,0.4           C1102.3,1740.2,1102.2,1740.1,1102.1,1740z M1100.3,1738l0.6-0.5l0.7,0.8l-0.6,0.5L1100.3,1738z M1098.9,1736.4l0.6-0.5           l0.7,0.8l-0.6,0.5L1098.9,1736.4z M1097.5,1734.9l0.6-0.5l0.7,0.8l-0.6,0.5L1097.5,1734.9z M1096.1,1733.3l0.6-0.5l0.7,0.8           l-0.6,0.5L1096.1,1733.3z M1094.7,1731.7l0.6-0.5l0.7,0.8l-0.6,0.5L1094.7,1731.7z M1093.3,1730.1l0.6-0.5l0.7,0.8           l-0.6,0.5L1093.3,1730.1z M1091.9,1728.5l0.6-0.5l0.7,0.8l-0.6,0.5L1091.9,1728.5z M1090.5,1727l0.6-0.5l0.7,0.8l-0.6,0.5           L1090.5,1727z M1089.1,1725.4l0.6-0.5l0.7,0.8l-0.6,0.5L1089.1,1725.4z M1087.7,1723.8l0.6-0.5l0.7,0.8l-0.6,0.5           L1087.7,1723.8z M1086.3,1722.2l0.6-0.5l0.7,0.8l-0.6,0.5L1086.3,1722.2z M1084.9,1720.6l0.6-0.5l0.7,0.8l-0.6,0.5           L1084.9,1720.6z M1083.5,1719.1l0.6-0.5l0.7,0.8l-0.6,0.5L1083.5,1719.1z M1082.1,1717.5l0.6-0.5l0.7,0.8l-0.6,0.5           L1082.1,1717.5z M1080.7,1715.9l0.6-0.5l0.7,0.8l-0.6,0.5L1080.7,1715.9z M1079.3,1714.3l0.6-0.5l0.7,0.8l-0.6,0.5           L1079.3,1714.3z M1077.9,1712.8l0.6-0.5l0.7,0.8l-0.6,0.5L1077.9,1712.8z M1076.5,1711.2l0.6-0.5l0.7,0.8l-0.6,0.5           L1076.5,1711.2z M1075,1709.6l0.6-0.5l0.7,0.8l-0.6,0.5L1075,1709.6z M1073.6,1708l0.6-0.5l0.7,0.8l-0.6,0.5L1073.6,1708z            M1072.2,1706.4l0.6-0.5l0.7,0.8l-0.6,0.5L1072.2,1706.4z M1070.8,1704.9l0.6-0.5l0.7,0.8l-0.6,0.5L1070.8,1704.9z            M1069.4,1703.3l0.6-0.5l0.7,0.8l-0.6,0.5L1069.4,1703.3z M1068,1701.7l0.6-0.5l0.7,0.8l-0.6,0.5L1068,1701.7z            M1066.6,1700.1l0.6-0.5l0.7,0.8l-0.6,0.5L1066.6,1700.1z" class="color58595b svgShape"/><path fill="#e8e7e6" d="M1088.3 1737.6c.2-2.3 2.2-3.9 4.4-3.7 2.3.2 3.9 2.2 3.7 4.4-.2 2.3-2.2 3.9-4.4 3.7C1089.8 1741.9 1088.1 1739.9 1088.3 1737.6zM1089.6 1737.7c-.1 1.6 1 2.9 2.6 3.1 1.6.1 2.9-1 3.1-2.6.1-1.6-1-2.9-2.6-3.1C1091.1 1735 1089.7 1736.2 1089.6 1737.7zM1074 1722.6c.2-2.3 2.2-3.9 4.4-3.7 2.3.2 3.9 2.2 3.7 4.4-.2 2.3-2.2 3.9-4.4 3.7C1075.4 1726.8 1073.8 1724.8 1074 1722.6zM1075.2 1722.7c-.1 1.6 1 2.9 2.6 3.1 1.6.1 2.9-1 3.1-2.6.1-1.6-1-2.9-2.6-3.1C1076.7 1720 1075.4 1721.1 1075.2 1722.7z" class="colore6e7e8 svgShape"/><path fill="#23211f" d="M1092,1737.5c-0.3,0.4-0.2,1,0.2,1.3c0.1,0.1,0.3,0.2,0.4,0.2c0.3,0,0.6-0.1,0.8-0.4           c0.3-0.5,6.7-9.3,7.3-16.2c0-0.2,0-0.4,0-0.6c0-0.8,0-1.5-0.2-2.2c-0.2-0.8-0.4-1.5-0.8-2.1c-1.6-2.6-5.1-3.7-10.3-3.3           c0.7,0.6,1.4,1.2,2.1,1.7c3.4,0,5.6,0.9,6.6,2.6c0.1,0.1,0.2,0.3,0.2,0.5c0.3,0.6,0.4,1.3,0.5,2c0,0.1,0,0.3,0,0.4           C1099.1,1726.4,1094.2,1734.4,1092,1737.5z" class="color231f20 svgShape"/><path fill="#23211f" d="M1078.1,1722.5c0.2,0.5,0.7,0.7,1.1,0.5c3.8-1.4,13.1-3.9,18.8-2.6c0.3,0.1,0.6,0.2,0.9,0.3           c0.7,0.2,1.3,0.5,1.8,0.9c0.2,0.2,0.4,0.3,0.6,0.5c0.3,0.3,0.5,0.6,0.7,1c0.8,0.5,1.5,1,2.3,1.5c-0.2-1.5-0.8-2.7-1.7-3.7           c-0.6-0.6-1.3-1.1-2.1-1.5c-0.6-0.3-1.4-0.6-2.1-0.8c-1.1-0.3-2.2-0.4-3.5-0.4c-7.2-0.2-15.9,2.9-16.4,3.1           C1078.2,1721.5,1077.9,1722,1078.1,1722.5z" class="color231f20 svgShape"/><g fill="#000000" class="color000 svgShape"><path fill="#e8e7e6" d="M1059.6,1707.3c-0.1-2.3,1.7-4.2,4-4.2c2.3-0.1,4.2,1.7,4.2,4c0.1,2.3-1.7,4.2-4,4.2          C1061.6,1711.4,1059.7,1709.6,1059.6,1707.3z M1060.9,1707.3c0,1.6,1.4,2.8,2.9,2.7c1.6,0,2.8-1.4,2.7-2.9          c-0.1-1.6-1.4-2.8-2.9-2.7C1062,1704.4,1060.8,1705.7,1060.9,1707.3z" class="colore6e7e8 svgShape"/><path fill="#23211f" d="M1063,1707.7c0.3,0.4,0.8,0.5,1.2,0.2c2.3-1.7,7.9-5,12.4-5.5c1.5-0.2,2.9,0,3.9,0.6          c1.5,0.9,2.4,2.7,2.6,5.6c0.6,0.5,1.2,1.1,1.8,1.6c0.1-4.4-1.1-7.3-3.5-8.7c-1.8-1-4.1-1.1-6.4-0.6          c-5.6,1.2-11.6,5.4-11.9,5.6C1062.8,1706.8,1062.7,1707.3,1063,1707.7z" class="color231f20 svgShape"/></g><g fill="#000000" class="color000 svgShape"><path fill="#333333" d="M1039.6,737.2c79.5,194.7,30.2,555.2,36.5,929l-91.8,0.1l-73.5-675l-72.7,675.1l-94.6,0.1l-6.2-651.1       c-1.3-74.1,7.7-148,26.9-219.6l4.3-58.4L1039.6,737.2z" class="color333 svgShape"/><path fill="#f7960d" d="M990.1,488.7l-8.1,52.7l53.9,7.4l44.9,32.9c30.8,22.6,69.3,32.3,107.1,26.9          c146.5-20.6,224.8-41.1,224.8-41.1l-30.8-74.3l-174.8,28c-28.9,4.6-57.8-7.7-74.3-31.9c-28.8-42.2-59.6-104-101.8-112.8          l-18.4-6.1c-8.8-2.9-17.3-6.9-25.1-11.8l0,0c-11.8-6-23.2-12.9-34-20.5l44.5,86.9l1.7,3.3l-0.1,0.7l-2.5,16.2l-1.1,6.9          l-4.5,28.9L990.1,488.7z" class="coloref5350 svgShape"/><path fill="#f7960d" d="M685.2,680.9L791,838.1l59-41.5l-99.4-179.8l15.7-60.6l2.3,181.4l271-0.3l-2.3-115.3v-46.7l-4.9-88.3          l-11.8-87.8l-23.6-21.5l-3.4-3.1l-40.3-36.5l-90.2,0.1l-26.1,16c-2.9,1.8-5.9,3.5-9,5c-0.3,0.1-0.5,0.3-0.9,0.4          c-6.2,3.2-12.7,5.8-19.4,8l-33.8,10.9c-38.5,12.4-67.5,44.4-76.1,83.9l-29.7,136.4c-0.4,1.8-0.7,3.5-1,5.3          C662.5,630.9,669.6,658.5,685.2,680.9z" class="coloref5350 svgShape"/><rect width="90.2" height="99.5" x="863.1" y="291.1" fill="#f7d19b" transform="rotate(180 908.14 340.901)" class="colorf7c19b svgShape"/><path fill="#f7d19b" d="M848.4,385.5l0,18.6c0,18.1,5.1,35.9,14.6,51.3l45.4,73.5l45.2-73.6C963,439.9,968,422.1,968,404          l0-18.6c0-10.9-2.5-21.7-7.2-31.5l-7.6-15.8l-90.2,0.1l-7.5,15.8C850.8,363.8,848.3,374.6,848.4,385.5z" class="colorf7c19b svgShape"/><g fill="#000000" class="color000 svgShape"><path fill="#e5a345" d="M904.5,580c0.7-0.7,1.4-1.4,2-2.1c28.4-29.3,56-59.2,83.6-89.3c6.2-6.7,12.4-13.5,18.6-20.3l1.1-1.2         c-4.2-7.4-8.6-14.7-12.9-22c-3.1-5.4-6.4-10.7-9.5-16.1l12-0.1l17-0.1l2.9,0l-1.1-2.6c-5.9-13.6-13.6-31.3-21.2-48.5         c-2.8-6.3-5.5-12.5-8.2-18.4c-0.5-0.3-1-0.5-1.5-0.8c2,5.1,4.1,10.5,6.2,16c0,0,0,0,0,0c6.8,17.5,14.2,36,20,50.4l-15.7-0.1         l-14.1-0.1l-3.6,0c5.3,9.1,10.5,18.1,15.7,27.2c2.8,4.9,5.7,9.7,8.5,14.5c-4.3,4.8-8.7,9.6-13,14.4         c-28.6,31.9-57,63.9-84.8,96.6C905.8,578.4,905.2,579.3,904.5,580z" class="colore54545 svgShape"/><path fill="#e5a345" d="M805.2,423.3l30.3,16l-17.4,31l-0.8,1.4l1.2,1.1c20.7,18.5,62.4,55.3,83.8,74         c0.1,29.2,0.3,58.5,0.7,87.7c0.2,22,1,66.6,1.6,88.7c0.9-47,1.6-97.1,1.9-145.2l0-0.3c0-11.1,0.1-22,0.1-32.8         c-21-18.6-62.2-55-84.1-74.1l17.1-31.3l0.9-1.7l-1.6-0.8l-31.3-15.7c5.2-15.4,14-42.2,20.5-62.1c-0.3,0.1-0.5,0.3-0.9,0.4         c-7.5,20.4-17.5,47.5-23.1,63.1L805.2,423.3z" class="colore54545 svgShape"/></g></g><polygon fill="#f7d19b" points="794.9 835.3 808.8 855.9 861.1 819.4 846.5 799" class="colorf7c19b svgShape"/><rect width="19.4" height="107.5" x="825.4" y="785.8" fill="#2d2d2d" transform="rotate(54.733 835.06 839.54)" class="color2d2d2d svgShape"/><path fill="#ffbf66" d="M953.2,300.2c0,0-38,0.4-52.3-16.1c0,0-4.2,21.8,52.3,31.7V300.2z" class="coloreab896 svgShape"/><g fill="#000000" class="color000 svgShape"><path fill="#333333" d="M960.7,89.3c34.5-10.6,76.9,27.5,50,106.9h-13.8l-15.2-15.1l-35-47L960.7,89.3z" class="color333 svgShape"/><path fill="#f7d19b" d="M897.6,292.8c0,0,166.5,60.6,99.3-154.8l-99.6-3.8l-4.4,25.4l-12.7,83.1L897.6,292.8z" class="colorf7c19b svgShape"/><path fill="#333333" d="M981,182c-9.4,9.8-22.9,19.4-42.5,26.1c0,0-56.8-15.9-20.6,41.9c0,0,11.7,67.8-33.8,115.7      c-17.9,18.8-43.1,29-69,29h-73c0,0-7.2-136.1,66.1-191.3c0,0-38.8-144.2,133.2-119.2c6.1,0.9,12.2,2.3,18,4.6      c9.6,3.8,17.1,8.9,23.3,15.7C1002.4,126.2,1001.4,160.7,981,182z" class="color333 svgShape"/></g></g><g fill="#000000" class="color000 svgShape"><path fill="#f7d19b" d="M1998.1,279.2c30.5,52.9,58.1,47.7,83-12.5l1.8-60.9l-79.6,5.3L1998.1,279.2z" class="colorf7c19b svgShape"/><path fill="#f7d19b" d="M1959.4,92.6c0,0-29.5,81.4-4.2,128.5c13.1,24.4,42.5,34.5,67.9,23.9c19.3-8,47.9-23.7,70.5-51.6     c2-2.4-2.4-76.5-2.4-76.5l-16.9-25.5l-66-10.3L1959.4,92.6z" class="colorf7c19b svgShape"/><path fill="#333333" d="M2028.1,161.3l10.5-28.5c0,0-8.7,3.3-19.3,4.7c-15.4,2.1-29.5-9-31.6-24.7l-0.5-3.9c0,0-67.5-4.7-41.4-65.7     c3.3-7.7,9.9-13.5,17.9-15.8c13.8-3.9,38.2-5.3,70.4,14.6c9.4,5.8,21.3,4.3,31.6,0.6c11.2-4,28.1-3.1,38.9,30.4     c1.9,5.9,4.7,11.3,8.4,16.3c10.5,14.2,41.2,67.1-27.9,128c-1.9,1.7-5,0.2-4.8-2.4c0.9-13.2,1.8-41.9-6.3-57.2     c-5-9.4-17.8-10.5-24.3-2.2l-9.8,12.5c-2.3,2.9-6.5,3.5-9.5,1.3l0,0C2028,167.5,2027,164.2,2028.1,161.3z" class="color333 svgShape"/><path fill="#f7d19b" d="M1497.6,497.9l-29.3-7.9c-4.7-1.3-8.6-4.4-11-8.6l-10.1-18.3c-1.9-3.5-6.2-4.8-9.7-3l0,0     c-2.8,1.5-4.3,4.7-3.7,7.8l3.9,18.1c1,4.8-2.4,9.4-7.3,9.7l-41.1,3.2c-3.9,0.2-6.8,3.5-6.6,7.4l0,0c0.2,3.8,3.3,6.8,7.1,6.9     l19.6,0.4l-18-0.3c-4.5-0.1-8.1,3.7-7.8,8.3l0,0c0.3,4.1,3.8,7.3,7.9,7.3l32.9-0.5l-28.7,0.1c-4.3,0-7.7,3.5-7.6,7.8l0,0     c0.1,4.3,3.7,7.7,8,7.6l41.3-1.2l-37.5,0.6c-4.2,0.1-7.5,3.5-7.4,7.7l0,0c0.1,4.1,3.3,7.4,7.3,7.7c30.5,2.1,64-0.1,99.2-4.6     L1497.6,497.9z" class="colorf7c19b svgShape"/><polygon fill="#f7d19b" points="2129.5 1759.3 2202 1755.7 2196.7 1643.1 2124.2 1646.7" class="colorf7c19b svgShape"/><path fill="#333333" d="M2200,1773l11.7,13.8l3.2,4.5c1.8,2.6,2.9,5.8,3.1,9l0.6,12.6c0.1,3.1-2.2,5.8-5.3,5.9l-13.7,0.7       l-0.2-3.6l-7.4,0.4l0.2,3.5l-16.5,1.2l-0.1-2.9l-7.8,0.4l0.1,3.2l-18.4,0.8l-10-11.8c-14.5,5.1-27.5,11-38.5,18.2       c-0.5,0.4-19.2,1.4-19.3,0.9l-0.1-2.8l-7.3,0.4l0.1,2.8c-6,0.7-11.9,1-17.8,0.9l-0.1-3l-7.1,0.3l0.1,2.4       c-6.2,0.3-11.8-0.1-16.6-1.3l-0.1-2.3l-7.1-0.6l0.1,2.1c-4.2-0.4-8.1-1.3-11.9-2.7l0.3-2.4l-6.4-2.3l-1.2,2.4       c-7-2.5-13.4-5.2-19-8.2c0,0-1.6-9.6,4.2-10.3l74.6-12.1l95.7-18.2L2200,1773z" class="color333 svgShape"/><path fill="#5b5a58" d="M2213.7,1765.4c0.2,4.7,0,9.4-0.8,14.1l-1.2,7.3c-28.9,0.9-55.7,4.4-79.4,11.8c-4.9,1.5-9.7,3.2-14.4,5.1       c-39.9,16.3-82,16.1-126.2,1.5l-0.3-6.9c-0.2-5.1,3.1-9.7,7.9-10.9l31.9-8.2c5.7-1.5,11.4-2.8,17.1-4.1       c16-3.8,30.6-11.1,44-21.3c0.7-0.6,1.5-1.1,2.2-1.7c0.4-0.3,0.9-0.7,1.3-1c1.2,7.1,8.4,15.6,8.8,16c0.2,0.3,0.5,0.4,0.8,0.3       c0.1,0,0.3-0.1,0.4-0.2c0.4-0.3,0.4-0.9,0.1-1.3c-2.6-3-8.1-10.7-8.5-16.2c0.3-0.2,0.6-0.5,0.9-0.8c5.6-1.9,15.2-0.1,19.1,1       c0.5,0.1,1-0.2,1.1-0.6c0.1-0.5-0.2-1-0.6-1.1c-0.5-0.1-9.6-2.6-16.8-1.7c1.1-1,2.1-1.9,3.2-3c0.7-0.6,1.3-1.3,2-1.9       c1.4-1.4,2.9-2.8,4.3-4.3c0.6-0.6,1.1-1.2,1.7-1.8c2.1-2.2,4.1-4.5,6.1-6.9c4.6,0.1,10.5,3.1,13,4.6c0.4,0.3,1,0.1,1.2-0.3       c0.3-0.4,0.1-1-0.3-1.3c-0.4-0.2-6.7-4-12.5-4.7c0.8-1,1.6-1.9,2.3-2.9c1.3-1.6,3.1-2.7,5.2-2.8l74.7-6.5       c2.7-0.2,5.1,1.9,5.1,4.7l0.1,9c0.1,6.7,1.2,13.3,3.2,19.6C2212.4,1753.6,2213.4,1759.5,2213.7,1765.4z" class="color58595b svgShape"/><path fill="#23211f" d="M2105.8 1767c-.1.1-.3.2-.4.2-.3 0-.6-.1-.8-.3-.4-.4-7.5-8.9-8.8-16 .5-.4 1.1-.9 1.6-1.4.4 5.4 5.9 13.2 8.5 16.2C2106.2 1766.1 2106.2 1766.7 2105.8 1767zM2118.6 1749.2c-.1.5-.6.8-1.1.6-4-1.1-13.6-2.9-19.1-1 .9-.8 1.9-1.6 2.8-2.5 7.2-.9 16.2 1.6 16.8 1.7C2118.4 1748.2 2118.7 1748.7 2118.6 1749.2z" class="color231f20 svgShape"/><path fill="#303030" d="M2132.6,1732.7c-0.2,0.4-0.8,0.6-1.2,0.3c-2.5-1.5-8.4-4.4-13-4.6c0.5-0.6,1-1.1,1.4-1.7       c5.8,0.7,12.1,4.5,12.5,4.7C2132.7,1731.7,2132.8,1732.3,2132.6,1732.7z" class="color303030 svgShape"/><path fill="#424140" d="M2213.7,1765.4c0.2,4.7,0,9.4-0.8,14.1l-1.2,7.3c-28.9,0.9-55.7,4.4-79.4,11.8l-38.3-24.2       c-2.2-1.4-2.8-4.4-1.2-6.5l34.5-46.8l74.7-6.5c2.7-0.2,5.1,1.9,5.1,4.7l0.1,9c0.1,6.7,1.2,13.3,3.2,19.6       C2212.4,1753.6,2213.4,1759.5,2213.7,1765.4z" class="color414042 svgShape"/><polygon fill="#5b5a58" points="2128.9 1724.4 2128.2 1723.9 2128.7 1723.3 2129.4 1723.3 2129.4 1724.1 2129.1 1724.1" class="color58595b svgShape"/><path fill="#5b5a58" d="M2209.5,1782.7l-0.8-0.1l0.2-1.1l0.8,0.1L2209.5,1782.7z M2209.9,1780.6l-0.8-0.1l0.2-1.1l0.8,0.1          L2209.9,1780.6z M2210.2,1778.4l-0.8-0.1c0.1-0.4,0.1-0.7,0.2-1.1l0.8,0.1C2210.3,1777.7,2210.3,1778,2210.2,1778.4z           M2210.5,1776.2l-0.8-0.1c0-0.4,0.1-0.7,0.1-1.1l0.8,0.1C2210.6,1775.5,2210.6,1775.8,2210.5,1776.2z M2210.8,1774l-0.8-0.1          c0-0.4,0.1-0.7,0.1-1.1l0.8,0.1C2210.8,1773.3,2210.8,1773.6,2210.8,1774z M2210.9,1771.8l-0.8,0c0-0.4,0-0.7,0-1.1l0.8,0          C2211,1771,2210.9,1771.4,2210.9,1771.8z M2211,1769.6l-0.8,0c0-0.4,0-0.7,0-1.1h0.8C2211,1768.8,2211,1769.2,2211,1769.6z           M2211,1767.3l-0.8,0c0-0.4,0-0.7,0-1.1l0.8,0C2211,1766.6,2211,1767,2211,1767.3z M2210.1,1765.2c0-0.4,0-0.7-0.1-1.1          l0.8-0.1c0,0.4,0,0.7,0.1,1.1L2210.1,1765.2z M2210,1763c0-0.4-0.1-0.7-0.1-1.1l0.8-0.1c0,0.4,0.1,0.7,0.1,1.1L2210,1763z           M2209.7,1760.8c0-0.4-0.1-0.7-0.1-1.1l0.8-0.1c0,0.4,0.1,0.7,0.1,1.1L2209.7,1760.8z M2209.4,1758.6          c-0.1-0.4-0.1-0.7-0.2-1.1l0.8-0.1c0.1,0.4,0.1,0.7,0.2,1.1L2209.4,1758.6z M2209.1,1756.5c-0.1-0.4-0.1-0.7-0.2-1.1          l0.8-0.2c0.1,0.4,0.1,0.7,0.2,1.1L2209.1,1756.5z M2208.6,1754.3c-0.1-0.4-0.2-0.7-0.2-1.1l0.8-0.2c0.1,0.4,0.2,0.7,0.3,1.1          L2208.6,1754.3z M2208.1,1752.2c-0.1-0.4-0.2-0.7-0.3-1.1l0.8-0.2c0.1,0.4,0.2,0.7,0.3,1.1L2208.1,1752.2z M2207.5,1750.1          c-0.1-0.4-0.2-0.7-0.3-1l0.8-0.3c0.1,0.4,0.2,0.7,0.3,1.1L2207.5,1750.1z M2206.9,1748c-0.1-0.4-0.2-0.7-0.3-1.1l0.8-0.2          c0.1,0.4,0.2,0.7,0.3,1L2206.9,1748z M2206.3,1745.9c-0.1-0.4-0.2-0.7-0.3-1.1l0.8-0.2c0.1,0.4,0.2,0.7,0.3,1.1          L2206.3,1745.9z M2205.7,1743.7c-0.1-0.4-0.2-0.7-0.3-1.1l0.8-0.2c0.1,0.4,0.2,0.7,0.2,1.1L2205.7,1743.7z M2205.2,1741.6          c-0.1-0.4-0.1-0.7-0.2-1.1l0.8-0.2c0.1,0.4,0.1,0.7,0.2,1.1L2205.2,1741.6z M2204.8,1739.4c-0.1-0.4-0.1-0.7-0.2-1.1          l0.8-0.1c0.1,0.4,0.1,0.7,0.2,1.1L2204.8,1739.4z M2204.5,1737.2c-0.1-0.4-0.1-0.7-0.1-1.1l0.8-0.1c0,0.4,0.1,0.7,0.1,1.1          L2204.5,1737.2z M2204.2,1735c0-0.4-0.1-0.7-0.1-1.1l0.8-0.1c0,0.4,0.1,0.7,0.1,1.1L2204.2,1735z M2204,1732.8          c0-0.4-0.1-0.7-0.1-1.1l0.8,0c0,0.4,0,0.7,0.1,1.1L2204,1732.8z M2204.7,1730.6l-0.8,0c0-0.4,0-0.7,0-1.1l0.8,0          C2204.7,1729.8,2204.7,1730.2,2204.7,1730.6z M2204.6,1728.4l-0.8,0l0-1.1l0.8,0L2204.6,1728.4z M2204.6,1726.2l-0.8,0          l0-1.1l0.8,0L2204.6,1726.2z M2204.6,1724l-0.8,0l0-1.1l0.8,0L2204.6,1724z M2204.5,1721.8l-0.8,0l0-1.1l0.8,0          L2204.5,1721.8z M2130.5,1724l-0.1-0.8l1.1-0.1l0.1,0.8L2130.5,1724z M2132.7,1723.8l-0.1-0.8l1.1-0.1l0.1,0.8          L2132.7,1723.8z M2134.9,1723.6l-0.1-0.8l1.1-0.1l0.1,0.8L2134.9,1723.6z M2137,1723.4l-0.1-0.8l1.1-0.1l0.1,0.8          L2137,1723.4z M2139.2,1723.2l-0.1-0.8l1.1-0.1l0.1,0.8L2139.2,1723.2z M2141.3,1723.1l-0.1-0.8l1.1-0.1l0.1,0.8          L2141.3,1723.1z M2143.5,1722.9l-0.1-0.8l1.1-0.1l0.1,0.8L2143.5,1722.9z M2145.7,1722.7l-0.1-0.8l1.1-0.1l0.1,0.8          L2145.7,1722.7z M2147.8,1722.5l-0.1-0.8l1.1-0.1l0.1,0.8L2147.8,1722.5z M2150.1,1722.3l-0.2-0.8l1.1-0.1l0.1,0.8          L2150.1,1722.3z M2203.6,1719.6c-0.1-0.3-0.2-0.6-0.3-0.8l0.7-0.5c0.2,0.4,0.4,0.7,0.5,1.2L2203.6,1719.6z M2152.1,1722.1          l-0.1-0.8l1.1-0.1l0.1,0.8L2152.1,1722.1z M2154.3,1721.9l-0.1-0.8l1.1-0.1l0.1,0.8L2154.3,1721.9z M2156.6,1721.7l-0.2-0.8          l1.1-0.1l0.1,0.8L2156.6,1721.7z M2158.7,1721.6l-0.1-0.8l1.1-0.1l0.1,0.8L2158.7,1721.6z M2160.8,1721.4l-0.1-0.8l1.1-0.1          l0.1,0.8L2160.8,1721.4z M2163,1721.2l-0.1-0.8l1.1-0.1l0.1,0.8L2163,1721.2z M2165.1,1721l-0.1-0.8l1.1-0.1l0.1,0.8          L2165.1,1721z M2167.3,1720.8l-0.1-0.8l1.1-0.1l0.1,0.8L2167.3,1720.8z M2169.4,1720.6l-0.1-0.8l1.1-0.1l0.1,0.8          L2169.4,1720.6z M2171.6,1720.4l-0.1-0.8l1.1-0.1l0.1,0.8L2171.6,1720.4z M2173.7,1720.3l-0.1-0.8l1.1-0.1l0.1,0.8          L2173.7,1720.3z M2175.9,1720.1l-0.1-0.8l1.1-0.1l0.1,0.8L2175.9,1720.1z M2178.1,1719.9l-0.1-0.8l1.1-0.1l0.1,0.8          L2178.1,1719.9z M2180.2,1719.7l-0.1-0.8l1.1-0.1l0.1,0.8L2180.2,1719.7z M2182.4,1719.5l-0.1-0.8l1.1-0.1l0.1,0.8          L2182.4,1719.5z M2184.5,1719.3l-0.1-0.8l1.1-0.1l0.1,0.8L2184.5,1719.3z M2186.7,1719.1l-0.1-0.8l1.1-0.1l0.1,0.8          L2186.7,1719.1z M2188.9,1718.9l-0.1-0.8l1.1-0.1l0.1,0.8L2188.9,1718.9z M2191,1718.8l-0.1-0.8l1.1-0.1l0.1,0.8          L2191,1718.8z M2202.6,1718.2c-0.3-0.2-0.5-0.3-0.9-0.3l0.1-0.8c0.4,0,0.8,0.2,1.2,0.4L2202.6,1718.2z M2193.2,1718.6          l-0.1-0.8l1.1-0.1l0.1,0.8L2193.2,1718.6z M2195.3,1718.4l-0.1-0.8l1.1-0.1l0.1,0.8L2195.3,1718.4z M2197.5,1718.2l-0.1-0.8          l1.1-0.1l0.1,0.8L2197.5,1718.2z M2199.7,1718l-0.1-0.8l1.1-0.1l0.1,0.8L2199.7,1718z" class="color58595b svgShape"/><polygon fill="#5b5a58" points="2209.2 1784.6 2208.4 1784.6 2208.3 1783.8 2208.5 1783.8 2208.6 1783.6 2209.4 1783.7" class="color58595b svgShape"/><path fill="#5b5a58" d="M2134.6,1795.4l-0.2-0.8l1-0.3l0.2,0.8L2134.6,1795.4z M2136.7,1794.8l-0.2-0.8l1-0.3l0.2,0.8          L2136.7,1794.8z M2138.7,1794.2l-0.2-0.8l1-0.3l0.2,0.8L2138.7,1794.2z M2140.8,1793.7l-0.2-0.8l1-0.3l0.2,0.8          L2140.8,1793.7z M2142.9,1793.2l-0.2-0.8l1-0.3l0.2,0.8L2142.9,1793.2z M2144.9,1792.6l-0.2-0.8l1-0.3l0.2,0.8          L2144.9,1792.6z M2147,1792.1l-0.2-0.8l1-0.2l0.2,0.8L2147,1792.1z M2149.1,1791.7l-0.2-0.8l1-0.2l0.2,0.8L2149.1,1791.7z           M2151.2,1791.2l-0.2-0.8l1-0.2l0.2,0.8L2151.2,1791.2z M2153.3,1790.8l-0.2-0.8l1.1-0.2l0.2,0.8L2153.3,1790.8z           M2155.4,1790.3l-0.2-0.8l1.1-0.2l0.2,0.8L2155.4,1790.3z M2157.5,1789.9l-0.1-0.8l1.1-0.2l0.1,0.8L2157.5,1789.9z           M2159.6,1789.6l-0.1-0.8l1.1-0.2l0.1,0.8L2159.6,1789.6z M2161.7,1789.2l-0.1-0.8l1.1-0.2l0.1,0.8L2161.7,1789.2z           M2163.8,1788.8l-0.1-0.8l1.1-0.2l0.1,0.8L2163.8,1788.8z M2165.9,1788.5l-0.1-0.8l1.1-0.2l0.1,0.8L2165.9,1788.5z           M2168,1788.2l-0.1-0.8l1.1-0.2l0.1,0.8L2168,1788.2z M2170.1,1787.9l-0.1-0.8l1.1-0.1l0.1,0.8L2170.1,1787.9z           M2172.2,1787.6l-0.1-0.8l1.1-0.1l0.1,0.8L2172.2,1787.6z M2174.3,1787.3l-0.1-0.8l1.1-0.1l0.1,0.8L2174.3,1787.3z           M2176.4,1787l-0.1-0.8l1.1-0.1l0.1,0.8L2176.4,1787z M2178.6,1786.8l-0.1-0.8l1.1-0.1l0.1,0.8L2178.6,1786.8z           M2180.7,1786.6l-0.1-0.8l1.1-0.1l0.1,0.8L2180.7,1786.6z M2182.8,1786.3l-0.1-0.8l1.1-0.1l0.1,0.8L2182.8,1786.3z           M2184.9,1786.1l-0.1-0.8l1.1-0.1l0.1,0.8L2184.9,1786.1z M2187.1,1785.9l-0.1-0.8l1.1-0.1l0.1,0.8L2187.1,1785.9z           M2189.2,1785.7l-0.1-0.8l1.1-0.1l0.1,0.8L2189.2,1785.7z M2191.3,1785.6l-0.1-0.8l1.1-0.1l0.1,0.8L2191.3,1785.6z           M2193.4,1785.4l-0.1-0.8l1.1-0.1l0.1,0.8L2193.4,1785.4z M2195.6,1785.3l-0.1-0.8l1.1-0.1l0,0.8L2195.6,1785.3z           M2197.7,1785.1l0-0.8l1.1-0.1l0,0.8L2197.7,1785.1z M2207.3,1784.7l-1.1,0l0-0.8l1.1,0L2207.3,1784.7z M2199.8,1785l0-0.8          l1.1-0.1l0,0.8L2199.8,1785z M2205.2,1784.7l-1.1,0l0-0.8l1.1,0L2205.2,1784.7z M2202,1784.9l0-0.8l1.1-0.1l0,0.8          L2202,1784.9z" class="color58595b svgShape"/><polygon fill="#5b5a58" points="2132.9 1795.9 2132.3 1795.5 2132.7 1794.8 2133 1795 2133.4 1794.9 2133.6 1795.7" class="color58595b svgShape"/><path fill="#5b5a58" d="M2131.4,1795l-0.9-0.6l0.4-0.7l0.9,0.6L2131.4,1795z M2129.6,1793.8l-0.9-0.6l0.4-0.7l0.9,0.6          L2129.6,1793.8z M2127.8,1792.7l-0.9-0.6l0.4-0.7l0.9,0.6L2127.8,1792.7z M2126,1791.5l-0.9-0.6l0.4-0.7l0.9,0.6          L2126,1791.5z M2124.2,1790.4l-0.9-0.6l0.4-0.7l0.9,0.6L2124.2,1790.4z M2122.3,1789.2l-0.9-0.6l0.4-0.7l0.9,0.6          L2122.3,1789.2z M2120.5,1788.1l-0.9-0.6l0.4-0.7l0.9,0.6L2120.5,1788.1z M2118.7,1786.9l-0.9-0.6l0.4-0.7l0.9,0.6          L2118.7,1786.9z M2116.9,1785.8l-0.9-0.6l0.4-0.7l0.9,0.6L2116.9,1785.8z M2115.1,1784.6l-0.9-0.6l0.4-0.7l0.9,0.6          L2115.1,1784.6z M2113.3,1783.5l-0.9-0.6l0.4-0.7l0.9,0.6L2113.3,1783.5z M2111.5,1782.4l-0.9-0.6l0.4-0.7l0.9,0.6          L2111.5,1782.4z M2109.6,1781.2l-0.9-0.6l0.4-0.7l0.9,0.6L2109.6,1781.2z M2107.8,1780.1l-0.9-0.6l0.4-0.7l0.9,0.6          L2107.8,1780.1z M2106,1778.9l-0.9-0.6l0.4-0.7l0.9,0.6L2106,1778.9z M2104.2,1777.8l-0.9-0.6l0.4-0.7l0.9,0.6          L2104.2,1777.8z M2102.4,1776.6l-0.9-0.6l0.4-0.7l0.9,0.6L2102.4,1776.6z M2100.6,1775.5l-0.9-0.6l0.4-0.7l0.9,0.6          L2100.6,1775.5z M2098.8,1774.3l-0.9-0.6l0.4-0.7l0.9,0.6L2098.8,1774.3z M2097,1773.2l-0.9-0.6l0.4-0.7l0.9,0.6          L2097,1773.2z M2095.2,1771.7c-0.2-0.3-0.3-0.6-0.4-0.9c0-0.1,0-0.2,0-0.3l0.8-0.1c0,0.1,0,0.1,0,0.2c0,0.2,0.1,0.5,0.2,0.7          L2095.2,1771.7z M2095.7,1769.6l-0.7-0.3c0.1-0.2,0.2-0.4,0.3-0.6l0.3-0.4l0.6,0.5l-0.3,0.4          C2095.8,1769.3,2095.8,1769.4,2095.7,1769.6z M2096.9,1767.9l-0.6-0.5l0.6-0.9l0.6,0.5L2096.9,1767.9z M2098.2,1766.1          l-0.6-0.5l0.6-0.9l0.6,0.5L2098.2,1766.1z M2099.4,1764.4l-0.6-0.5l0.6-0.9l0.6,0.5L2099.4,1764.4z M2100.7,1762.7l-0.6-0.5          l0.6-0.9l0.6,0.5L2100.7,1762.7z M2102,1760.9l-0.6-0.5l0.6-0.9l0.6,0.5L2102,1760.9z M2103.3,1759.2l-0.6-0.5l0.6-0.9          l0.6,0.5L2103.3,1759.2z M2104.6,1757.5l-0.6-0.5l0.6-0.9l0.6,0.5L2104.6,1757.5z M2105.8,1755.7l-0.6-0.5l0.6-0.9l0.6,0.5          L2105.8,1755.7z M2107.1,1754l-0.6-0.5l0.6-0.9l0.6,0.5L2107.1,1754z M2108.4,1752.2l-0.6-0.5l0.6-0.9l0.6,0.5          L2108.4,1752.2z M2109.7,1750.5l-0.6-0.5l0.6-0.9l0.6,0.5L2109.7,1750.5z M2111,1748.8l-0.6-0.5l0.6-0.9l0.6,0.5          L2111,1748.8z M2112.2,1747l-0.6-0.5l0.6-0.9l0.6,0.5L2112.2,1747z M2113.5,1745.3l-0.6-0.5l0.6-0.9l0.6,0.5L2113.5,1745.3z           M2114.8,1743.5l-0.6-0.5l0.6-0.9l0.6,0.5L2114.8,1743.5z M2116.1,1741.8l-0.6-0.5l0.6-0.9l0.6,0.5L2116.1,1741.8z           M2117.4,1740.1l-0.6-0.5l0.6-0.9l0.6,0.5L2117.4,1740.1z M2118.6,1738.3l-0.6-0.5l0.6-0.9l0.6,0.5L2118.6,1738.3z           M2119.9,1736.6l-0.6-0.5l0.6-0.9l0.6,0.5L2119.9,1736.6z M2121.2,1734.9l-0.6-0.5l0.6-0.9l0.6,0.5L2121.2,1734.9z           M2122.5,1733.1l-0.6-0.5l0.6-0.9l0.6,0.5L2122.5,1733.1z M2123.8,1731.4l-0.6-0.5l0.6-0.9l0.6,0.5L2123.8,1731.4z           M2125,1729.6l-0.6-0.5l0.6-0.9l0.6,0.5L2125,1729.6z M2126.3,1727.9l-0.6-0.5l0.6-0.9l0.6,0.5L2126.3,1727.9z           M2127.6,1726.2l-0.6-0.5l0.6-0.9l0.6,0.5L2127.6,1726.2z" class="color58595b svgShape"/><path fill="#e8e7e6" d="M2106.2 1770.4c-2.3.4-4.4-1.1-4.8-3.4-.4-2.3 1.1-4.5 3.4-4.9 2.3-.4 4.4 1.1 4.8 3.4C2110 1767.9 2108.5 1770 2106.2 1770.4zM2105.1 1763.4c-1.6.3-2.6 1.8-2.3 3.4.3 1.6 1.8 2.6 3.3 2.4 1.6-.3 2.6-1.8 2.3-3.4C2108.1 1764.2 2106.6 1763.1 2105.1 1763.4zM2119.4 1753.8c-2.3.4-4.4-1.2-4.8-3.4-.4-2.3 1.1-4.5 3.4-4.9 2.3-.4 4.4 1.1 4.8 3.4C2123.2 1751.2 2121.6 1753.4 2119.4 1753.8zM2118.2 1746.8c-1.6.3-2.6 1.8-2.3 3.4.3 1.6 1.7 2.6 3.3 2.4 1.6-.3 2.6-1.8 2.3-3.4C2121.2 1747.6 2119.7 1746.5 2118.2 1746.8z" class="colore6e7e8 svgShape"/><path fill="#23211f" d="M2105.9,1765.7c0.3,0.4,0.3,1-0.1,1.3c-0.1,0.1-0.3,0.2-0.4,0.2c-0.3,0-0.6-0.1-0.8-0.3          c-0.4-0.4-7.5-8.9-8.8-16c0-0.2-0.1-0.4-0.1-0.7c-0.1-0.8-0.1-1.5,0-2.2c0.1-0.8,0.3-1.6,0.6-2.3c1.4-2.8,4.8-4.3,10.1-4.3          c-0.7,0.7-1.3,1.3-2,1.9c-3.4,0.3-5.5,1.4-6.4,3.2c-0.1,0.2-0.1,0.3-0.2,0.5c-0.2,0.6-0.3,1.3-0.3,2.1c0,0.1,0,0.3,0,0.4          C2097.8,1755,2103.4,1762.7,2105.9,1765.7z" class="color231f20 svgShape"/><path fill="#23211f" d="M2118.6,1749.2c-0.1,0.5-0.6,0.8-1.1,0.6c-4-1.1-13.6-2.9-19.1-1c-0.3,0.1-0.6,0.2-0.9,0.4          c-0.7,0.3-1.2,0.7-1.7,1.1c-0.2,0.2-0.4,0.4-0.6,0.6c-0.3,0.3-0.5,0.7-0.6,1.1c-0.7,0.6-1.5,1.2-2.2,1.7          c0.1-1.5,0.5-2.8,1.4-3.9c0.5-0.7,1.2-1.3,2-1.7c0.6-0.4,1.3-0.7,2.1-1c1.1-0.4,2.2-0.6,3.4-0.7c7.2-0.9,16.2,1.6,16.8,1.7          C2118.4,1748.2,2118.7,1748.7,2118.6,1749.2z" class="color231f20 svgShape"/><path fill="#e8e7e6" d="M2132,1736.5c-2.3,0.1-4.2-1.7-4.4-4c-0.1-2.3,1.6-4.3,3.9-4.4c2.3-0.1,4.2,1.7,4.4,4         C2136,1734.4,2134.3,1736.4,2132,1736.5z M2131.6,1729.4c-1.6,0.1-2.8,1.5-2.7,3.1c0.1,1.6,1.4,2.8,3,2.8         c1.6-0.1,2.8-1.5,2.7-3.1C2134.6,1730.5,2133.2,1729.3,2131.6,1729.4z" class="colore6e7e8 svgShape"/><path fill="#23211f" d="M2132.6,1732.7c-0.2,0.4-0.8,0.6-1.2,0.3c-2.5-1.5-8.4-4.4-13-4.6c-1.5-0.1-2.9,0.2-3.9,0.9         c-1.5,1-2.2,3-2.1,5.9c-0.6,0.6-1.1,1.2-1.7,1.8c-0.4-4.5,0.5-7.6,2.8-9.2c1.7-1.2,4-1.5,6.4-1.2c5.8,0.7,12.1,4.5,12.5,4.7         C2132.7,1731.7,2132.8,1732.3,2132.6,1732.7z" class="color231f20 svgShape"/><polygon fill="#f7d19b" points="1874 1756 1945.8 1758.8 1950 1646.2 1878.2 1643.4" class="colorf7c19b svgShape"/><path fill="#333333" d="M1946.1,1773l11.7,13.8l3.2,4.5c1.8,2.6,2.9,5.8,3.1,9l0.6,12.6c0.1,3.1-2.2,5.8-5.3,5.9l-13.7,0.7       l-0.2-3.6l-7.4,0.4l0.2,3.5l-16.5,1.2l-0.1-2.9l-7.8,0.4l0.2,3.2l-18.4,0.8l-10-11.8c-14.5,5.1-27.5,11-38.5,18.2       c-0.5,0.4-19.2,1.4-19.3,0.9l-0.1-2.8l-7.3,0.4l0.1,2.8c-6,0.7-11.9,1-17.8,0.9l-0.1-3l-7.1,0.3l0.1,2.4       c-6.2,0.3-11.8-0.1-16.6-1.3l-0.1-2.3l-7.1-0.6l0.1,2.1c-4.2-0.4-8.1-1.3-11.9-2.7l0.3-2.4l-6.4-2.3l-1.2,2.4       c-7-2.5-13.4-5.2-19-8.2c0,0-1.6-9.6,4.2-10.3l74.6-12.1l95.7-18.2L1946.1,1773z" class="color333 svgShape"/><path fill="#5b5a58" d="M1959.8,1765.4c0.2,4.7,0,9.4-0.8,14.1l-1.2,7.3c-28.9,0.9-55.7,4.4-79.4,11.8c-4.9,1.5-9.7,3.2-14.4,5.1       c-39.9,16.3-82,16.1-126.2,1.5l-0.3-6.9c-0.2-5.1,3.1-9.7,7.9-10.9l31.9-8.2c5.7-1.5,11.4-2.8,17.1-4.1       c16-3.8,30.6-11.1,44-21.3c0.7-0.6,1.5-1.1,2.2-1.7c0.4-0.3,0.9-0.7,1.3-1c1.2,7.1,8.4,15.6,8.8,16c0.2,0.3,0.5,0.4,0.8,0.3       c0.1,0,0.3-0.1,0.4-0.2c0.4-0.3,0.4-0.9,0.1-1.3c-2.6-3-8.1-10.7-8.5-16.2c0.3-0.2,0.6-0.5,0.9-0.8c5.6-1.9,15.2-0.1,19.1,1       c0.5,0.1,1-0.2,1.1-0.6c0.1-0.5-0.2-1-0.6-1.1c-0.5-0.1-9.6-2.6-16.8-1.7c1.1-1,2.1-1.9,3.2-3c0.7-0.6,1.3-1.3,2-1.9       c1.4-1.4,2.9-2.8,4.3-4.3c0.6-0.6,1.1-1.2,1.7-1.8c2-2.2,4.1-4.5,6.1-6.9c4.6,0.1,10.5,3.1,13,4.6c0.4,0.3,1,0.1,1.2-0.3       c0.3-0.4,0.1-1-0.3-1.3c-0.4-0.2-6.7-4-12.5-4.7c0.8-1,1.6-1.9,2.3-2.9c1.3-1.6,3.1-2.7,5.2-2.8l74.7-6.5       c2.7-0.2,5.1,1.9,5.1,4.7l0.1,9c0.1,6.7,1.2,13.3,3.2,19.6C1958.5,1753.6,1959.5,1759.5,1959.8,1765.4z" class="color58595b svgShape"/><path fill="#23211f" d="M1851.9 1767c-.1.1-.3.2-.4.2-.3 0-.6-.1-.8-.3-.4-.4-7.6-8.9-8.8-16 .5-.4 1.1-.9 1.6-1.4.4 5.4 5.9 13.2 8.5 16.2C1852.3 1766.1 1852.3 1766.7 1851.9 1767zM1864.7 1749.2c-.1.5-.6.8-1.1.6-4-1.1-13.6-2.9-19.1-1 .9-.8 1.9-1.6 2.8-2.5 7.2-.9 16.2 1.6 16.8 1.7C1864.5 1748.2 1864.8 1748.7 1864.7 1749.2z" class="color231f20 svgShape"/><path fill="#303030" d="M1878.6,1732.7c-0.2,0.4-0.8,0.6-1.2,0.3c-2.5-1.5-8.4-4.4-13-4.6c0.5-0.6,1-1.1,1.4-1.7       c5.8,0.7,12.1,4.5,12.5,4.7C1878.8,1731.7,1878.9,1732.3,1878.6,1732.7z" class="color303030 svgShape"/><path fill="#424140" d="M1959.8,1765.4c0.2,4.7,0,9.4-0.8,14.1l-1.2,7.3c-28.9,0.9-55.7,4.4-79.4,11.8l-38.3-24.2       c-2.2-1.4-2.8-4.4-1.2-6.5l34.5-46.8l74.7-6.5c2.7-0.2,5.1,1.9,5.1,4.7l0.1,9c0.1,6.7,1.2,13.3,3.2,19.6       C1958.5,1753.6,1959.5,1759.5,1959.8,1765.4z" class="color414042 svgShape"/><polygon fill="#5b5a58" points="1875 1724.4 1874.3 1723.9 1874.8 1723.3 1875.5 1723.3 1875.5 1724.1 1875.2 1724.1" class="color58595b svgShape"/><path fill="#5b5a58" d="M1955.6,1782.7l-0.8-0.1l0.2-1.1l0.8,0.1L1955.6,1782.7z M1956,1780.6l-0.8-0.1l0.2-1.1l0.8,0.1          L1956,1780.6z M1956.3,1778.4l-0.8-0.1c0.1-0.4,0.1-0.7,0.2-1.1l0.8,0.1C1956.4,1777.7,1956.4,1778,1956.3,1778.4z           M1956.6,1776.2l-0.8-0.1c0-0.4,0.1-0.7,0.1-1.1l0.8,0.1C1956.7,1775.5,1956.7,1775.8,1956.6,1776.2z M1956.9,1774l-0.8-0.1          c0-0.4,0.1-0.7,0.1-1.1l0.8,0.1C1956.9,1773.3,1956.9,1773.6,1956.9,1774z M1957,1771.8l-0.8,0c0-0.4,0-0.7,0-1.1l0.8,0          C1957,1771,1957,1771.4,1957,1771.8z M1957.1,1769.6l-0.8,0c0-0.4,0-0.7,0-1.1h0.8          C1957.1,1768.8,1957.1,1769.2,1957.1,1769.6z M1957.1,1767.3l-0.8,0c0-0.4,0-0.7,0-1.1l0.8,0          C1957.1,1766.6,1957.1,1767,1957.1,1767.3z M1956.2,1765.2c0-0.4,0-0.7-0.1-1.1l0.8-0.1c0,0.4,0,0.7,0.1,1.1L1956.2,1765.2z           M1956.1,1763c0-0.4-0.1-0.7-0.1-1.1l0.8-0.1c0,0.4,0.1,0.7,0.1,1.1L1956.1,1763z M1955.8,1760.8c0-0.4-0.1-0.7-0.1-1.1          l0.8-0.1c0.1,0.4,0.1,0.7,0.1,1.1L1955.8,1760.8z M1955.5,1758.6c-0.1-0.4-0.1-0.7-0.2-1.1l0.8-0.1c0.1,0.4,0.1,0.7,0.2,1.1          L1955.5,1758.6z M1955.2,1756.5c-0.1-0.4-0.1-0.7-0.2-1.1l0.8-0.2c0.1,0.4,0.1,0.7,0.2,1.1L1955.2,1756.5z M1954.7,1754.3          c-0.1-0.4-0.2-0.7-0.2-1.1l0.8-0.2c0.1,0.4,0.2,0.7,0.3,1.1L1954.7,1754.3z M1954.2,1752.2c-0.1-0.4-0.2-0.7-0.3-1.1          l0.8-0.2c0.1,0.4,0.2,0.7,0.3,1.1L1954.2,1752.2z M1953.6,1750.1c-0.1-0.4-0.2-0.7-0.3-1l0.8-0.3c0.1,0.4,0.2,0.7,0.3,1.1          L1953.6,1750.1z M1953,1748c-0.1-0.4-0.2-0.7-0.3-1.1l0.8-0.2c0.1,0.4,0.2,0.7,0.3,1L1953,1748z M1952.4,1745.9          c-0.1-0.4-0.2-0.7-0.3-1.1l0.8-0.2c0.1,0.4,0.2,0.7,0.3,1.1L1952.4,1745.9z M1951.8,1743.7c-0.1-0.4-0.2-0.7-0.2-1.1          l0.8-0.2c0.1,0.4,0.2,0.7,0.2,1.1L1951.8,1743.7z M1951.3,1741.6c-0.1-0.4-0.1-0.7-0.2-1.1l0.8-0.2c0.1,0.4,0.1,0.7,0.2,1.1          L1951.3,1741.6z M1950.9,1739.4c-0.1-0.4-0.1-0.7-0.2-1.1l0.8-0.1c0.1,0.4,0.1,0.7,0.2,1.1L1950.9,1739.4z M1950.6,1737.2          c-0.1-0.4-0.1-0.7-0.1-1.1l0.8-0.1c0,0.4,0.1,0.7,0.1,1.1L1950.6,1737.2z M1950.3,1735c0-0.4-0.1-0.7-0.1-1.1l0.8-0.1          c0,0.4,0.1,0.7,0.1,1.1L1950.3,1735z M1950.1,1732.8c0-0.4-0.1-0.7-0.1-1.1l0.8,0c0,0.4,0,0.7,0.1,1.1L1950.1,1732.8z           M1950.8,1730.6l-0.8,0c0-0.4,0-0.7,0-1.1l0.8,0C1950.7,1729.8,1950.8,1730.2,1950.8,1730.6z M1950.7,1728.4l-0.8,0l0-1.1          l0.8,0L1950.7,1728.4z M1950.7,1726.2l-0.8,0l0-1.1l0.8,0L1950.7,1726.2z M1950.6,1724l-0.8,0l0-1.1l0.8,0L1950.6,1724z           M1950.6,1721.8l-0.8,0l0-1.1l0.8,0L1950.6,1721.8z M1876.6,1724l-0.1-0.8l1.1-0.1l0.1,0.8L1876.6,1724z M1878.8,1723.8          l-0.1-0.8l1.1-0.1l0.1,0.8L1878.8,1723.8z M1880.9,1723.6l-0.1-0.8l1.1-0.1l0.1,0.8L1880.9,1723.6z M1883.1,1723.4l-0.1-0.8          l1.1-0.1l0.1,0.8L1883.1,1723.4z M1885.3,1723.2l-0.1-0.8l1.1-0.1l0.1,0.8L1885.3,1723.2z M1887.4,1723.1l-0.1-0.8l1.1-0.1          l0.1,0.8L1887.4,1723.1z M1889.6,1722.9l-0.1-0.8l1.1-0.1l0.1,0.8L1889.6,1722.9z M1891.8,1722.7l-0.1-0.8l1.1-0.1l0.1,0.8          L1891.8,1722.7z M1893.9,1722.5l-0.1-0.8l1.1-0.1l0.1,0.8L1893.9,1722.5z M1896.2,1722.3l-0.2-0.8l1.1-0.1l0.1,0.8          L1896.2,1722.3z M1949.7,1719.6c-0.1-0.3-0.2-0.6-0.3-0.8l0.7-0.5c0.2,0.4,0.4,0.7,0.5,1.2L1949.7,1719.6z M1898.2,1722.1          l-0.1-0.8l1.1-0.1l0.1,0.8L1898.2,1722.1z M1900.4,1721.9l-0.1-0.8l1.1-0.1l0.1,0.8L1900.4,1721.9z M1902.6,1721.7l-0.2-0.8          l1.1-0.1l0.1,0.8L1902.6,1721.7z M1904.8,1721.6l-0.1-0.8l1.1-0.1l0.1,0.8L1904.8,1721.6z M1906.9,1721.4l-0.1-0.8l1.1-0.1          l0.1,0.8L1906.9,1721.4z M1909,1721.2l-0.1-0.8l1.1-0.1l0.1,0.8L1909,1721.2z M1911.2,1721l-0.1-0.8l1.1-0.1l0.1,0.8          L1911.2,1721z M1913.4,1720.8l-0.1-0.8l1.1-0.1l0.1,0.8L1913.4,1720.8z M1915.5,1720.6l-0.1-0.8l1.1-0.1l0.1,0.8          L1915.5,1720.6z M1917.7,1720.4l-0.1-0.8l1.1-0.1l0.1,0.8L1917.7,1720.4z M1919.8,1720.3l-0.1-0.8l1.1-0.1l0.1,0.8          L1919.8,1720.3z M1922,1720.1l-0.1-0.8l1.1-0.1l0.1,0.8L1922,1720.1z M1924.2,1719.9l-0.1-0.8l1.1-0.1l0.1,0.8          L1924.2,1719.9z M1926.3,1719.7l-0.1-0.8l1.1-0.1l0.1,0.8L1926.3,1719.7z M1928.5,1719.5l-0.1-0.8l1.1-0.1l0.1,0.8          L1928.5,1719.5z M1930.6,1719.3l-0.1-0.8l1.1-0.1l0.1,0.8L1930.6,1719.3z M1932.8,1719.1l-0.1-0.8l1.1-0.1l0.1,0.8          L1932.8,1719.1z M1935,1718.9l-0.1-0.8l1.1-0.1l0.1,0.8L1935,1718.9z M1937.1,1718.8l-0.1-0.8l1.1-0.1l0.1,0.8          L1937.1,1718.8z M1948.7,1718.2c-0.3-0.2-0.5-0.3-0.9-0.3l0.1-0.8c0.4,0,0.8,0.2,1.2,0.4L1948.7,1718.2z M1939.3,1718.6          l-0.1-0.8l1.1-0.1l0.1,0.8L1939.3,1718.6z M1941.4,1718.4l-0.1-0.8l1.1-0.1l0.1,0.8L1941.4,1718.4z M1943.6,1718.2l-0.1-0.8          l1.1-0.1l0.1,0.8L1943.6,1718.2z M1945.8,1718l-0.1-0.8l1.1-0.1l0.1,0.8L1945.8,1718z" class="color58595b svgShape"/><polygon fill="#5b5a58" points="1955.3 1784.6 1954.5 1784.6 1954.4 1783.8 1954.6 1783.8 1954.7 1783.6 1955.5 1783.7" class="color58595b svgShape"/><path fill="#5b5a58" d="M1880.7,1795.4l-0.2-0.8l1-0.3l0.2,0.8L1880.7,1795.4z M1882.8,1794.8l-0.2-0.8l1-0.3l0.2,0.8          L1882.8,1794.8z M1884.8,1794.2l-0.2-0.8l1-0.3l0.2,0.8L1884.8,1794.2z M1886.9,1793.7l-0.2-0.8l1-0.3l0.2,0.8          L1886.9,1793.7z M1889,1793.2l-0.2-0.8l1-0.3l0.2,0.8L1889,1793.2z M1891,1792.6l-0.2-0.8l1-0.3l0.2,0.8L1891,1792.6z           M1893.1,1792.1l-0.2-0.8l1-0.2l0.2,0.8L1893.1,1792.1z M1895.2,1791.7l-0.2-0.8l1-0.2l0.2,0.8L1895.2,1791.7z           M1897.3,1791.2l-0.2-0.8l1-0.2l0.2,0.8L1897.3,1791.2z M1899.4,1790.8l-0.2-0.8l1.1-0.2l0.2,0.8L1899.4,1790.8z           M1901.5,1790.3l-0.2-0.8l1.1-0.2l0.2,0.8L1901.5,1790.3z M1903.6,1789.9l-0.1-0.8l1.1-0.2l0.1,0.8L1903.6,1789.9z           M1905.7,1789.6l-0.1-0.8l1.1-0.2l0.1,0.8L1905.7,1789.6z M1907.8,1789.2l-0.1-0.8l1.1-0.2l0.1,0.8L1907.8,1789.2z           M1909.9,1788.8l-0.1-0.8l1.1-0.2l0.1,0.8L1909.9,1788.8z M1912,1788.5l-0.1-0.8l1.1-0.2l0.1,0.8L1912,1788.5z           M1914.1,1788.2l-0.1-0.8l1.1-0.2l0.1,0.8L1914.1,1788.2z M1916.2,1787.9l-0.1-0.8l1.1-0.1l0.1,0.8L1916.2,1787.9z           M1918.3,1787.6l-0.1-0.8l1.1-0.1l0.1,0.8L1918.3,1787.6z M1920.4,1787.3l-0.1-0.8l1.1-0.1l0.1,0.8L1920.4,1787.3z           M1922.5,1787l-0.1-0.8l1.1-0.1l0.1,0.8L1922.5,1787z M1924.7,1786.8l-0.1-0.8l1.1-0.1l0.1,0.8L1924.7,1786.8z           M1926.8,1786.6l-0.1-0.8l1.1-0.1l0.1,0.8L1926.8,1786.6z M1928.9,1786.3l-0.1-0.8l1.1-0.1l0.1,0.8L1928.9,1786.3z           M1931,1786.1l-0.1-0.8l1.1-0.1l0.1,0.8L1931,1786.1z M1933.1,1785.9l-0.1-0.8l1.1-0.1l0.1,0.8L1933.1,1785.9z           M1935.3,1785.7l-0.1-0.8l1.1-0.1l0.1,0.8L1935.3,1785.7z M1937.4,1785.6l-0.1-0.8l1.1-0.1l0.1,0.8L1937.4,1785.6z           M1939.5,1785.4l-0.1-0.8l1.1-0.1l0.1,0.8L1939.5,1785.4z M1941.7,1785.3l-0.1-0.8l1.1-0.1l0,0.8L1941.7,1785.3z           M1943.8,1785.1l0-0.8l1.1-0.1l0,0.8L1943.8,1785.1z M1953.4,1784.7l-1.1,0l0-0.8l1.1,0L1953.4,1784.7z M1945.9,1785l0-0.8          l1.1-0.1l0,0.8L1945.9,1785z M1951.3,1784.7l-1.1,0l0-0.8l1.1,0L1951.3,1784.7z M1948.1,1784.9l0-0.8l1.1-0.1l0,0.8          L1948.1,1784.9z" class="color58595b svgShape"/><polygon fill="#5b5a58" points="1879 1795.9 1878.4 1795.5 1878.8 1794.8 1879.1 1795 1879.5 1794.9 1879.7 1795.7" class="color58595b svgShape"/><path fill="#5b5a58" d="M1877.5,1795l-0.9-0.6l0.4-0.7l0.9,0.6L1877.5,1795z M1875.7,1793.8l-0.9-0.6l0.4-0.7l0.9,0.6          L1875.7,1793.8z M1873.9,1792.7l-0.9-0.6l0.4-0.7l0.9,0.6L1873.9,1792.7z M1872.1,1791.5l-0.9-0.6l0.4-0.7l0.9,0.6          L1872.1,1791.5z M1870.2,1790.4l-0.9-0.6l0.4-0.7l0.9,0.6L1870.2,1790.4z M1868.4,1789.2l-0.9-0.6l0.4-0.7l0.9,0.6          L1868.4,1789.2z M1866.6,1788.1l-0.9-0.6l0.4-0.7l0.9,0.6L1866.6,1788.1z M1864.8,1786.9l-0.9-0.6l0.4-0.7l0.9,0.6          L1864.8,1786.9z M1863,1785.8l-0.9-0.6l0.4-0.7l0.9,0.6L1863,1785.8z M1861.2,1784.6l-0.9-0.6l0.4-0.7l0.9,0.6          L1861.2,1784.6z M1859.4,1783.5l-0.9-0.6l0.4-0.7l0.9,0.6L1859.4,1783.5z M1857.6,1782.4l-0.9-0.6l0.4-0.7l0.9,0.6          L1857.6,1782.4z M1855.7,1781.2l-0.9-0.6l0.4-0.7l0.9,0.6L1855.7,1781.2z M1853.9,1780.1l-0.9-0.6l0.4-0.7l0.9,0.6          L1853.9,1780.1z M1852.1,1778.9l-0.9-0.6l0.4-0.7l0.9,0.6L1852.1,1778.9z M1850.3,1777.8l-0.9-0.6l0.4-0.7l0.9,0.6          L1850.3,1777.8z M1848.5,1776.6l-0.9-0.6l0.4-0.7l0.9,0.6L1848.5,1776.6z M1846.7,1775.5l-0.9-0.6l0.4-0.7l0.9,0.6          L1846.7,1775.5z M1844.9,1774.3l-0.9-0.6l0.4-0.7l0.9,0.6L1844.9,1774.3z M1843.1,1773.2l-0.9-0.6l0.4-0.7l0.9,0.6          L1843.1,1773.2z M1841.3,1771.7c-0.2-0.3-0.3-0.6-0.4-0.9c0-0.1,0-0.2,0-0.3l0.8-0.1c0,0.1,0,0.1,0,0.2          c0,0.2,0.1,0.5,0.3,0.7L1841.3,1771.7z M1841.8,1769.6l-0.7-0.3c0.1-0.2,0.2-0.4,0.3-0.6l0.3-0.4l0.6,0.5l-0.3,0.4          C1841.9,1769.3,1841.9,1769.4,1841.8,1769.6z M1843,1767.9l-0.6-0.5l0.6-0.9l0.6,0.5L1843,1767.9z M1844.2,1766.1l-0.6-0.5          l0.6-0.9l0.6,0.5L1844.2,1766.1z M1845.5,1764.4l-0.6-0.5l0.6-0.9l0.6,0.5L1845.5,1764.4z M1846.8,1762.7l-0.6-0.5l0.6-0.9          l0.6,0.5L1846.8,1762.7z M1848.1,1760.9l-0.6-0.5l0.6-0.9l0.6,0.5L1848.1,1760.9z M1849.4,1759.2l-0.6-0.5l0.6-0.9l0.6,0.5          L1849.4,1759.2z M1850.6,1757.5l-0.6-0.5l0.6-0.9l0.6,0.5L1850.6,1757.5z M1851.9,1755.7l-0.6-0.5l0.6-0.9l0.6,0.5          L1851.9,1755.7z M1853.2,1754l-0.6-0.5l0.6-0.9l0.6,0.5L1853.2,1754z M1854.5,1752.2l-0.6-0.5l0.6-0.9l0.6,0.5          L1854.5,1752.2z M1855.8,1750.5l-0.6-0.5l0.6-0.9l0.6,0.5L1855.8,1750.5z M1857.1,1748.8l-0.6-0.5l0.6-0.9l0.6,0.5          L1857.1,1748.8z M1858.3,1747l-0.6-0.5l0.6-0.9l0.6,0.5L1858.3,1747z M1859.6,1745.3l-0.6-0.5l0.6-0.9l0.6,0.5          L1859.6,1745.3z M1860.9,1743.5l-0.6-0.5l0.6-0.9l0.6,0.5L1860.9,1743.5z M1862.2,1741.8l-0.6-0.5l0.6-0.9l0.6,0.5          L1862.2,1741.8z M1863.5,1740.1l-0.6-0.5l0.6-0.9l0.6,0.5L1863.5,1740.1z M1864.7,1738.3l-0.6-0.5l0.6-0.9l0.6,0.5          L1864.7,1738.3z M1866,1736.6l-0.6-0.5l0.6-0.9l0.6,0.5L1866,1736.6z M1867.3,1734.9l-0.6-0.5l0.6-0.9l0.6,0.5          L1867.3,1734.9z M1868.6,1733.1l-0.6-0.5l0.6-0.9l0.6,0.5L1868.6,1733.1z M1869.9,1731.4l-0.6-0.5l0.6-0.9l0.6,0.5          L1869.9,1731.4z M1871.1,1729.6l-0.6-0.5l0.6-0.9l0.6,0.5L1871.1,1729.6z M1872.4,1727.9l-0.6-0.5l0.6-0.9l0.6,0.5          L1872.4,1727.9z M1873.7,1726.2l-0.6-0.5l0.6-0.9l0.6,0.5L1873.7,1726.2z" class="color58595b svgShape"/><path fill="#e8e7e6" d="M1852.3 1770.4c-2.3.4-4.4-1.1-4.8-3.4-.4-2.3 1.1-4.5 3.4-4.9 2.3-.4 4.4 1.1 4.8 3.4C1856.1 1767.9 1854.6 1770 1852.3 1770.4zM1851.1 1763.4c-1.6.3-2.6 1.8-2.3 3.4.3 1.6 1.7 2.6 3.3 2.4 1.6-.3 2.6-1.8 2.3-3.4C1854.2 1764.2 1852.7 1763.1 1851.1 1763.4zM1865.5 1753.8c-2.3.4-4.4-1.2-4.8-3.4-.4-2.3 1.1-4.5 3.4-4.9 2.3-.4 4.4 1.1 4.8 3.4C1869.2 1751.2 1867.7 1753.4 1865.5 1753.8zM1864.3 1746.8c-1.6.3-2.6 1.8-2.3 3.4.3 1.6 1.7 2.6 3.3 2.4 1.6-.3 2.6-1.8 2.3-3.4C1867.3 1747.6 1865.8 1746.5 1864.3 1746.8z" class="colore6e7e8 svgShape"/><path fill="#23211f" d="M1852,1765.7c0.3,0.4,0.3,1-0.1,1.3c-0.1,0.1-0.3,0.2-0.4,0.2c-0.3,0-0.6-0.1-0.8-0.3          c-0.4-0.4-7.6-8.9-8.8-16c0-0.2-0.1-0.4-0.1-0.7c-0.1-0.8-0.1-1.5,0-2.2c0.1-0.8,0.3-1.6,0.6-2.3c1.4-2.8,4.8-4.3,10.1-4.3          c-0.7,0.7-1.3,1.3-2,1.9c-3.4,0.3-5.5,1.4-6.4,3.2c-0.1,0.2-0.1,0.3-0.2,0.5c-0.2,0.6-0.3,1.3-0.3,2.1c0,0.1,0,0.3,0,0.4          C1843.9,1755,1849.5,1762.7,1852,1765.7z" class="color231f20 svgShape"/><path fill="#23211f" d="M1864.7,1749.2c-0.1,0.5-0.6,0.8-1.1,0.6c-4-1.1-13.6-2.9-19.1-1c-0.3,0.1-0.6,0.2-0.9,0.4          c-0.7,0.3-1.2,0.7-1.7,1.1c-0.2,0.2-0.4,0.4-0.6,0.6c-0.3,0.3-0.5,0.7-0.6,1.1c-0.7,0.6-1.5,1.2-2.2,1.7          c0.1-1.5,0.5-2.8,1.4-3.9c0.5-0.7,1.2-1.3,2-1.7c0.6-0.4,1.3-0.7,2.1-1c1.1-0.4,2.2-0.6,3.4-0.7c7.2-0.9,16.2,1.6,16.8,1.7          C1864.5,1748.2,1864.8,1748.7,1864.7,1749.2z" class="color231f20 svgShape"/><g fill="#000000" class="color000 svgShape"><path fill="#e8e7e6" d="M1878.1,1736.5c-2.3,0.1-4.2-1.7-4.4-4c-0.1-2.3,1.6-4.3,3.9-4.4c2.3-0.1,4.2,1.7,4.4,4         C1882.1,1734.4,1880.4,1736.4,1878.1,1736.5z M1877.7,1729.4c-1.6,0.1-2.8,1.5-2.7,3.1c0.1,1.6,1.4,2.8,3,2.8         c1.6-0.1,2.8-1.5,2.7-3.1C1880.6,1730.5,1879.3,1729.3,1877.7,1729.4z" class="colore6e7e8 svgShape"/><path fill="#23211f" d="M1878.6,1732.7c-0.2,0.4-0.8,0.6-1.2,0.3c-2.5-1.5-8.4-4.4-13-4.6c-1.5-0.1-2.9,0.2-3.9,0.9         c-1.5,1-2.2,3-2.1,5.9c-0.6,0.6-1.1,1.2-1.7,1.8c-0.4-4.5,0.5-7.6,2.8-9.2c1.7-1.2,4-1.5,6.4-1.2c5.8,0.7,12.1,4.5,12.5,4.7         C1878.8,1731.7,1878.9,1732.3,1878.6,1732.7z" class="color231f20 svgShape"/></g><polygon fill="#333333" points="2192.8 829.1 2212.6 1690.9 2112.8 1695.7 2025.5 1018.1 1963.5 1690.7 1865.1 1695.6 1866.4 774.4 2044.4 744.3" class="color333 svgShape"/><path fill="#f2f2f1" d="M2098.3,300.1l-17.2-33.5c-23.5,33.3-50.9,38.9-83,12.5l-87,139.6l29.3,63.7l5.6,228.7l27.4,108.2     c19.1,28.2,49.5,31.9,86.3,21.6l41.2-29l56.3-228.4l0.1-96.2c0,0-18.9-67.4-22-70.8C2132.2,413.1,2098.3,300.1,2098.3,300.1z" class="colorf1f2f2 svgShape"/><path fill="#e5921e" d="M1482.3,481.5c0,0,238.3-7.3,243.4-13.5c122.9-151.4,270.7-187.6,272.4-188.8c-4,19.7-7.9,39.4-11.9,59.2     c-7.5,37.1-10.7,73-7.3,111c2.7,30.4,7.2,60.7,7.4,91.3c0.2,35.8-7.7,70.1-12,105.3c-8,65.6-1.9,132.5-0.4,198.4     c0.2,9.4-7.8,16.8-17,15.7c-36.6-4.7-67.4-19.4-92.3-44.5c-2.6-2.6-3.8-6.4-3.4-10.1c4.9-43.6,10.6-87.2,16.8-130.6     c6.8-47.4,22.9-188.8,14.9-190.6c-4.3-1-44.9,22.5-77.5,41.8c-31.3,18.5-66.1,30.4-102.3,34.7c-96.8,11.6-235.1,0-235.1,0     L1482.3,481.5z" class="color1e88e5 svgShape"/><g fill="#000000" class="color000 svgShape"><path fill="#5b411d" d="M2395.9,1024.7h-147.3v-45.3c0-11.8,9.5-21.5,21.1-21.5h105.1c11.6,0,21.1,9.6,21.1,21.5V1024.7z        M2256.4,1016.8h131.7v-37.4c0-7.5-6-13.6-13.3-13.6h-105.1c-7.3,0-13.3,6.1-13.3,13.6V1016.8z" class="color5b291d svgShape"/><path fill="#7f5f33" d="M2495.1,1014.1v220.6c0,13.1-10.4,23.8-23.3,23.8h-149.5c-52.9-84.9-57.9-166.7,0-244.3H2495.1z" class="color7f4833 svgShape"/><path fill="#836234" d="M2322.3,1014.1v244.3h-149.5c-12.9,0-23.3-10.6-23.3-23.8v-220.6H2322.3z" class="color834e34 svgShape"/><path fill="#634823" d="M2500.7,1024.1v73.4c0,3.3-2,6.2-5.1,7.3l-173.3,61.8c-39.9-60.3-31.2-115,0-167.1h154.2        C2489.9,999.5,2500.7,1010.6,2500.7,1024.1z" class="color633223 svgShape"/><path fill="#684c25" d="M2322.3,999.5v167.1l-173.3-61.8c-3.1-1.1-5.1-4-5.1-7.3v-73.4c0-13.6,10.8-24.6,24.2-24.6H2322.3z" class="color683725 svgShape"/><path fill="#bdbdbd" d="M2342.2,1148.6v40.2c0,2.5-2,4.4-4.3,4.4h-15.6v-49h15.6C2340.2,1144.1,2342.2,1146.1,2342.2,1148.6z" class="colorbdbdbd svgShape"/><path fill="#e0e0e0" d="M2322.3,1144.1v49h-15.6c-2.4,0-4.3-2-4.3-4.4v-40.2c0-2.4,1.9-4.4,4.3-4.4H2322.3z" class="colore0e0e0 svgShape"/></g><path fill="#e5921e" d="M2356.5,897.8l-77.7,7.5l-19-252.1c-1.2-16.1-7.2-31.5-17.1-44.1l-44.5-56.6l-2.1,339.6     c0,4.1-3.4,7.4-7.4,7.2c-24.8-0.9-105.3-7.9-129.1-58.5c-2.2-4.7,0.2-11.3,1.2-16c1.6-7.9,2.8-15.9,3.9-23.9     c12.4-95.5-10.7-190.7-8.7-286.2c1.6-76.4,15.3-152.9,23-228.9c0.1-1,2.1-19.3,2.1-19.3c81.6,9.5,188.4,109.8,266.7,300.4     C2361.6,600.5,2356.5,897.8,2356.5,897.8z" class="color1e88e5 svgShape"/><path fill="#f7d19b" d="M2287.3,904.5l-7,17.1c-1.4,4.6-4.6,8.5-8.9,10.6l-18.4,9.3c-3.5,1.8-5,6-3.3,9.6l0,0     c1.4,2.9,4.5,4.6,7.6,4.1l18.1-3c4.8-0.8,9.2,2.9,9.3,7.9l1.4,26.5c0.1,3.9,3.2,7,7.1,7l0,0c3.8,0,6.9-3,7.1-6.8l1.5-28     l-1.6,31.6c-0.2,4.6,3.4,8.4,7.9,8.2l0,0c4.1-0.1,7.3-3.5,7.5-7.6l1.3-23.3l-1.3,13.8c-0.2,4.3,3.2,8,7.5,8l0,0     c4.2,0.1,7.7-3.4,7.8-7.7l0.6-26.5l-0.6,14.3c-0.1,4.2,3.2,7.7,7.3,7.9l0,0c4,0.1,7.5-2.9,7.9-7c3-30.6,2.5-35.9-0.9-71.6     L2287.3,904.5z" class="colorf7c19b svgShape"/><path fill="#ffbf66" d="M2000.4,249.2c0,0,36.1,4.3,65.7-22.8c0,0-21.4,37.6-67.3,42.9L2000.4,249.2z" class="coloreab896 svgShape"/></g></svg>