<svg xmlns="http://www.w3.org/2000/svg" viewBox="0 0 1000 1000"><path fill="#ffa30f" d="M756,207.15s-98.52-92.79-198.44,43.22S436.14,489.57,322.62,461,158.33,494.9,161.68,570.1s102.08,197,382.92,163.46S933.54,354.26,756,207.15Z" class="colorf7faff svgShape"/><path fill="#ffffff" d="M740.38,195.62c-29.3,4.12-63.33,15.46-104.64,25-23.13,5.34-40.81,4.95-54.39,1.44-1.58,1.62-3.15,3.28-4.73,5,15.14,4.59,34.91,5.55,60.52-.36,45.12-10.42,81.4-22.77,111.12-25.75C746.05,199.34,743.44,197.53,740.38,195.62Zm24.68,25.08a52.82,52.82,0,0,0-27.33,7.46c-27.46,16.47-69.44,31.93-112.49,36.47-25.3,2.66-50.92,1.55-74.29-5.17-1.29,1.8-2.57,3.6-3.83,5.38,24.89,7.55,52.14,8.79,78.78,6,44.09-4.64,86.66-20.3,115-37.32,11.92-7.16,24.79-7.82,37.44-5.17q-3.48-3.75-7.14-7.38C769.19,220.78,767.13,220.68,765.06,220.7Zm-8.19,44.68a71.83,71.83,0,0,0-12,1.22c-11.42,2-24.84,6.35-39.07,11.56-28.46,10.42-60.19,24.35-83.64,30.21-30.78,7.7-66.21.67-97.69-10.26q-1.81,2.75-3.58,5.45c32.46,11.52,69.56,19.17,102.78,10.86,24.41-6.1,56.1-20.09,84.27-30.41,14.09-5.16,27.29-9.39,38-11.27s18.66-1.16,22.57,2c4.39,3.54,6.06,8.16,5.1,14s-4.91,12.8-12.42,19.69c-15,13.79-44.12,27.06-89.1,31-45.84,4-79.94,15.23-110.39,19.06-23.71,3-45.13,1.73-69-10.63-1.1,1.76-2.21,3.51-3.3,5.24,25.29,13.11,48.51,14.67,73.08,11.58,31.37-3.95,65.07-15.08,110.16-19,46-4,76.29-17.48,92.78-32.61,8.24-7.57,13.07-15.59,14.35-23.26a20.61,20.61,0,0,0-7.33-19.85C768.37,266.63,763.07,265.38,756.87,265.38Zm61.73,23.07c-1.19,6.57-4.21,15.29-8.94,24.64a161.75,161.75,0,0,1-25.94,37c-22.08,23.55-52.7,41.4-88.49,34.86-37.55-6.86-58.42-2-75.65,4.53s-30.44,14.15-54.88,13.77c-25.12-.4-54.94-1-81.12-4.37-7.62-1-14.92-2.23-21.69-3.75-1.33,1.9-2.65,3.78-4,5.61A251,251,0,0,0,482.79,405c26.67,3.42,56.67,4,81.81,4.41,25.8.41,40.51-7.88,57.18-14.16s35.68-10.93,72.33-4.24c38.39,7,71.18-12.22,94.17-36.73a167.92,167.92,0,0,0,27-38.4,119.14,119.14,0,0,0,7.49-18.07q-2-4.74-4.12-9.39Zm23.89,112.28a141.74,141.74,0,0,1-17.58,4.32c-24,4.53-52.18,5.82-69.78,17.84-15.28,10.43-32,7.87-50.56,4.69s-38.59-7-58.38,3.09c-37.45,19.12-108.94,54.11-167,22.37-15.7-8.58-31.11-16.22-45.45-22.65-1.56,1.62-3.13,3.21-4.7,4.73,14.77,6.55,30.81,14.46,47.16,23.39,61.59,33.67,135.28-3.12,172.81-22.29,17.7-9,35.91-5.69,54.49-2.5s37.7,6.22,55.13-5.68c15.1-10.31,42.79-12.22,67.42-16.86a158.05,158.05,0,0,0,16.37-3.87Q842.51,404,842.49,400.73ZM308.43,457.88c4.75,5.62,9.61,11.66,14.19,18.06,16.31,22.8,28.88,49.73,21.25,77.93-3.77,14-11.53,21.47-22,26.47s-23.76,7.16-37.57,9.36-28.16,4.43-40.86,10.15-23.76,15.15-30.24,31a64.18,64.18,0,0,1-14.1,21.43c1.37,1.52,2.78,3,4.23,4.54A70,70,0,0,0,219,633.24c5.89-14.43,15.38-22.46,27-27.7s25.47-7.49,39.28-9.69,27.6-4.32,39.28-9.88,21.15-14.91,25.35-30.47c8.34-30.82-5.42-59.73-22.2-83.19-3.07-4.29-6.25-8.4-9.42-12.33Q313.26,458.81,308.43,457.88Zm79.87,3.17c-2,.67-4,1.26-6.07,1.79,6.91,13.35,13.44,31,17.42,54.87,6.27,37.65-2.49,53.3-18.63,70.22s-40.14,34.51-62.36,72.88c-11.35,19.61-12.72,39-7.65,56.45.28.93.57,1.86.88,2.78,2.45.77,4.94,1.51,7.46,2.24a70.27,70.27,0,0,1-2.35-6.76c-4.65-16-3.52-33.31,7.06-51.59,21.66-37.4,44.71-54.12,61.48-71.7s26.74-36.62,20.26-75.55C401.82,492.83,395.28,474.83,388.3,461.05Zm427.47,1c-8.83,0-17.63.22-26.08.49-33.81,1.1-61.81,3.7-61.81,3.7a3.12,3.12,0,0,0,.58,6.21s27.83-2.58,61.43-3.68c14.59-.47,30.29-.64,45.21-.21.46-2.09.89-4.17,1.31-6.26C829.62,462.09,822.69,462,815.77,462ZM215.85,465.5c-1.9.93-3.75,1.92-5.55,2.95,4.15,9.29,8.57,16.61,13.88,22.18,9,9.4,20.54,13.34,35.84,12.93,6.2-.17,9.23,2.69,10.9,7.86s1.21,12.77-1.63,20.22c-5.68,14.89-19.93,28.91-42.39,25.54-23-3.44-45.32-.48-65.36,4,0,2.17,0,4.36.06,6.56,20-4.64,42-7.79,64.38-4.43,25.4,3.81,42.65-12.48,49.14-29.49,3.24-8.51,4-17.27,1.73-24.35s-8.43-12.41-17-12.18c-14.21.38-23.39-2.85-31.17-11C224,481.43,219.87,474.56,215.85,465.5ZM475,494.78c-.43,0-.85,0-1.26.05a13.2,13.2,0,0,0-8.39,3.54,17.09,17.09,0,0,0-4.33,7.92c-3.47,12.41-.83,32.16-2.4,56.17-1.52,23.19-15.75,43.22-30.75,62.29s-30.84,37-33.83,57.1c-1.56,10.44,2,22.08,7.28,34,3.24,7.35,7.17,14.81,11.13,22.08,2.43.16,4.88.32,7.36.45-4.57-8.33-9.17-16.85-12.78-25-5.06-11.46-8.07-22.25-6.83-30.56,2.59-17.38,17.46-34.95,32.57-54.17s30.4-40.26,32.07-65.73c1.62-24.65-.53-45.18,2.18-54.9a11.27,11.27,0,0,1,2.67-5.13,6.54,6.54,0,0,1,4.49-1.79c4.31-.31,12.06,1.88,23.63,7.76,23.49,11.95,42.69,22.31,64.08,26.11s44.73.84,75.82-13.29c60.11-27.33,109.59,0,143.82,9.73,8.68,2.48,20.75,1.14,34.19-2.14,1-2.39,2-4.79,3-7.19l-.26.07c-14.65,3.93-28,5.31-35.17,3.26-32.77-9.36-85.4-37.92-148.12-9.4-30.33,13.78-52.06,16.4-72.15,12.82s-38.78-13.55-62.35-25.53C489.44,497.54,481.43,494.72,475,494.78Zm218.49,49.51a84.82,84.82,0,0,0-10.58.75c-14.27,1.88-29.25,7-44.15,12.93-29.81,11.84-59.58,26.68-80.46,26.3-23.55-.42-44.13,13.12-57.15,34.29s-18.69,50.06-13,81.07a153.38,153.38,0,0,0,12.61,38c2.23-.14,4.47-.31,6.73-.47a149,149,0,0,1-13.21-38.69c-5.46-29.61,0-57,12.15-76.67s30.61-31.7,51.73-31.32c23.79.42,53.44-15,82.87-26.74,14.71-5.85,29.3-10.79,42.67-12.55s25.37-.39,35.56,6.09c20.05,12.76,49,14.86,75.41,13.43q1.9-3.22,3.75-6.48c-26.93,1.77-56.9-.17-75.81-12.21C713.86,546.45,703.94,544.25,693.51,544.29ZM732.41,597a81.36,81.36,0,0,0-10.75.79c-23,3.2-46.49,15.17-62.51,28.73-14.56,12.32-39.12,16.84-58.8,24.19-9.84,3.67-18.6,8.1-24.11,15.34s-7.19,17.15-3.42,29.94c3.11,10.51,5.9,21.1,8.18,31.32,2-.47,4.06-.94,6.08-1.44-2.31-10.36-5.14-21-8.27-31.65-3.41-11.54-1.9-18.77,2.39-24.4s11.93-9.76,21.33-13.27c18.81-7,44.1-11.27,60.65-25.27,15.09-12.77,37.88-24.33,59.34-27.31,16-2.22,30.89,0,42.16,9.7,1.29-1.58,2.58-3.18,3.84-4.78C758.41,600.39,745.68,596.9,732.41,597Z" class="colorfff svgShape"/><path fill="#ffefd8" d="M142.45,187.28H281.61a11,11,0,0,1,11,11V378.44a11,11,0,0,1-11,11H142.45a11,11,0,0,1-11-11V198.28A11,11,0,0,1,142.45,187.28Z" class="colord8e7ff svgShape"/><path fill="#ff9400" d="M142.45,187.28a11,11,0,0,0-11,11V208H292.61v-9.74a11,11,0,0,0-11-11Z" class="color007dff svgShape"/><path fill="#ffffff" d="M255.31 197.25a3.39 3.39 0 01-6.78 0h0a3.39 3.39 0 013.39-3.39h0a3.39 3.39 0 013.39 3.39zM278.84 197.25a3.39 3.39 0 11-3.39-3.39h0a3.39 3.39 0 013.39 3.39zM266.88 197.25a3.4 3.4 0 01-6.79 0h0a3.39 3.39 0 013.39-3.39h0a3.39 3.39 0 013.39 3.39z" class="colorfff svgShape"/><path fill="#ff9400" d="M199,229.11a16.3,16.3,0,0,0-12.55,27.37l19.89,21.43a5.8,5.8,0,0,0,8.19.31l21.43-19.89a16.29,16.29,0,0,0-22.16-23.88l-1.8,1.67-1.67-1.8A16.2,16.2,0,0,0,199,229.11Z" class="color007dff svgShape"/><path fill="#ffffff" d="M219.26 239.73a3.84 3.84 0 00-3.18 1.64L205.5 256.5l-4.85-4.85a3.83 3.83 0 00-2.7-1.11H179.26a3.82 3.82 0 000 7.63h17.12l6.94 6.95a3.82 3.82 0 005.4 0 4.15 4.15 0 00.43-.51l9.76-14 4.67 8.1a3.82 3.82 0 003.31 1.91h17.62a3.82 3.82 0 100-7.63H229.09l-6.57-11.39A3.85 3.85 0 00219.26 239.73zM155.17 346.86h48.89l10.86 12.41-10.86 11.28H155.17z" class="colorfff svgShape"/><path fill="#ff9400" d="M213.83,346.86l10.86,12.41-10.86,11.28h22.73l10.86-11.28-10.86-12.41Z" class="color007dff svgShape"/><path fill="#ffd499" d="M244.94 346.86l10.85 12.41-10.85 11.28h22.73l10.86-11.28-10.86-12.41zM163.15 291.38h97.76v12.17H163.15z" class="color99c4ff svgShape"/><path fill="#ffffff" d="M158.59 312.25H265.47v4.28H158.59zM194 325.5h36.11v4.28H194z" class="colorfff svgShape"/><g fill="#000000" class="color000 svgShape"><path fill="#ffefd8" d="M331.51,186.36h341a14.88,14.88,0,0,1,14.91,14.91V477.15a14.87,14.87,0,0,1-14.91,14.9h-341a14.87,14.87,0,0,1-14.91-14.9V201.27A14.88,14.88,0,0,1,331.51,186.36Z" class="colord8e7ff svgShape"/><path fill="#ffffff" d="M500.52,186.36V338.62H316.6v5.71H500.52V492.05h6.62V344.33H687.43v-5.71H507.14V186.36Z" class="colorfff svgShape"/></g><path fill="#ffefd8" d="M333.59,794.44c-107,6-172.9,17.22-172.9,29.31H852.3c0-12.09-65.9-23.26-172.9-29.31S440.58,788.4,333.59,794.44Z" class="colord8e7ff svgShape"/><g fill="#000000" class="color000 svgShape"><path fill="#ff9400" d="M379.71 525.48l35.79 23.8 27 13.84s3.66 30.17-38.63 38.64-103.23 12.69-149.76-11.57-47.39-84.65-52.18-131.31-11.57-73 28.71-85.35 94.13-14.76 100.91 18 48.18 134 48.18 134zM222.63 743.29a9.22 9.22 0 019.23 9.24v50.82a9.24 9.24 0 01-18.47 0V752.53A9.22 9.22 0 01222.63 743.29zM665.69 743.29a9.22 9.22 0 019.24 9.24v50.82a9.24 9.24 0 01-18.47 0V752.53A9.22 9.22 0 01665.69 743.29z" class="color007dff svgShape"/><path fill="#ffd499" d="M205.74,523.72H683.2a11.07,11.07,0,0,1,11.09,11.09V756.17a11.06,11.06,0,0,1-11.09,11.08H205.74a11.06,11.06,0,0,1-11.09-11.08V534.81A11.07,11.07,0,0,1,205.74,523.72Z" class="color99c4ff svgShape"/><path fill="#ffbf66" d="M498.94,386c-2.23-.32-16,8.9-23.7,20.79-6,5.22-55.58,47.31-55.58,47.31s-1.69-7-3.72-15.41c0,0-25.12,7.3-25.23,7.69-1.06,12.52-1.33,29.91-1.4,30.29-.15,1,5.67,15.71,19.83,16.65,27.24,1.81,73.06-70.71,75.58-70.13,3,.69,19-5.7,25.94-9.45,9.67-5.21,10.13-10,11.93-11.22s-.69-4.57-7.07-4.76c-9-.26-20.71-.75-20-2.06s5-7.32,4-9.36a.65.65,0,0,0-.5-.34Z" class="colorf9c5ae svgShape"/><path fill="#ff9500" d="M346.08,370.12s-56.74,142.81-47.92,145.8c34.1,10.84,49.89,13.05,87.53,12.89,9.2.91,26-23.39,26-23.39-6.62-6.54-19.76-17-19.76-17s-3.59-13.53-.43-36.76c.23-.81.42-1.39.42-1.39l24.05-11.51s3-5.64-1.93-8c-2.43-10.09-4.75-19.86-4.95-21a48.25,48.25,0,0,0-5.88-17c-4.36-7.3-18.3-17-23.81-21.38Z" class="colorff5200 svgShape"/><path fill="#453012" d="M358.41,336.71c.19,2.84,0,8.7,2.64,11.16s5.66.31,5.66.31l-1.55-8.94Z" class="color121745 svgShape"/><path fill="#ffffff" d="M379.37,371.37s26.45,14.68,32.93,25.87,9.86,49.13,9.86,49.13l37.51-28.87c-.15-6.83,4.41-7.63,9.08-8.32l15.43,19.68c.47.22,3.1,6.92-7.44,10.13-10,13.36-35.75,54.7-46.18,62.69-15.12,11.59-26.12,3.19-26.12,3.19l-1.17,14.53H385.78a300.93,300.93,0,0,1-5.49-54.79C380.29,435.93,379.37,371.37,379.37,371.37Z" class="colorfff svgShape"/><path fill="#ffbf66" d="M365.29,332.68,353,365.41c-.69,36.8,28.29,47.09,27.74,10.36l.63-8.63,4-11.61Z" class="colorf9c5ae svgShape"/><path fill="#d6a867" d="M381,345.56l4.46,10h0l-4,11.62c-15.56-13-.42-21.59-.42-21.59Z" class="colord66780 svgShape"/><path fill="#453012" d="M395.38,307.6c1.6,0,9.41,1.12,9.2,9.15s-6.9,14.29-6.9,14.29Z" class="color121745 svgShape"/><path fill="#ffbf66" d="M399.1,310.56c2.22-1.52,1.86,5,1.77,10.57l-2.76,26.77s-.47,16.7-10.48,14.72c-15.76-3.12-25.61-18.11-25-26s1.31-12.19,2.52-24.5,17.64,9.62,33.92-1.57Z" class="colorf9c5ae svgShape"/><path fill="#453012" d="M362.17,331.11s7.42.32,7.2-8.89,9.55-8.53,18.76-7.44,10.38.68,13-4.38-4.28-10.45-12.77-15.06-22.36,5.39-24.7,6.24-5.27,10-5.82,13.61S362.17,331.11,362.17,331.11Z" class="color121745 svgShape"/><path fill="#ffbf66" d="M355.24,333.59c1.32,4,4.86,6.35,7.9,5.33s4.41-5.05,3.08-9-4.85-6.36-7.89-5.34S353.91,329.62,355.24,333.59Z" class="colorf9c5ae svgShape"/><path fill="#d6a867" d="M395.43 332.63s2.33 1.85 4.13 1.71.93 4.68-2.69 4.74S392.34 330 395.43 332.63zM362.93 334.84c0-.18.59-3.82-1-5.73s-4.46-1.29-4.4-.27 1.3-.19 2.7.78-3.33 5.13 2.72 5.22z" class="colord66780 svgShape"/><path fill="#d7a969" d="M495.76,395.56s-2.3,6.48-4.92,9.37a14.24,14.24,0,0,1-5.34,3.82s8.15,1.39,11.13-3.31S495.76,395.56,495.76,395.56Z" class="colord76981 svgShape"/><path fill="#ff9400" d="M188.33,511.77H695.77a11.09,11.09,0,1,1,0,22.17H188.33a11.09,11.09,0,0,1,0-22.17Z" class="color007dff svgShape"/><path fill="#ffd499" d="M405.71,428s.26,34.72,0,44.72-1.27,32.13-1.27,32.13h0s4.72-10.41,5.31-29.46a152.87,152.87,0,0,1,6.19-36.66s-.89-3-3.05,1.5-2.95,11.4-3.63,6.39S407.57,422.07,405.71,428Z" class="color99c4ff svgShape"/><path fill="#ffbf66" d="M368.46,492s26-4.15,29.62-5.12,13.7,13.33,13.58,18.52-5.12,6.34-5.12,6.34H354.36s-2.25-17.95,3.54-23.05c6.89,2.52,9.57,3.66,10.56,3.31Z" class="colorf9c5ae svgShape"/><path fill="#ffffff" d="M306.92,377.62S292.27,382,286.38,402.8s-26.55,79.07-20,96.74c9.75,26.18,53,18.79,74.39,14.14,8.42,7.28,13.57-1.92,13.57-1.92l3.54-23.05c-2-3.59-4.32-7.42-10.35-4.12,1.64-6.59,4.91-11.93,8.78-42.18,1.43-11.2,1.16-67.33-3.29-77Z" class="colorfff svgShape"/><path fill="#ffd499" d="M340.49 482.23s-23.94-6.16-30.33-6.72-15.27 5.28-15.82 2.78 8.88-7.22 8.88-7.22 2.78-16.39 6.39-24.16.55 19.72 1.11 21.1S336.08 467.84 340.49 482.23zM353 365.41l2.7-7.05s-12.57 5.79-15 11.29-7.95 30.15-7.56 34.47 11.79 7.26 11.79 14.92-7.66 22.39-6.68 28.68 10.41 33.39 10.41 33.39 10.92-26.12 10-60.49C357.37 370.69 353 365.41 353 365.41zM381.41 367.14s-2.3 9.09-2.49 33.84 2 78 2 78 10.8-24.16 12.37-39.09-8.84-21.8-7.66-24.35 7.86 2.75 10.21-4.13-4.63-41.35-14.39-44.24z" class="color99c4ff svgShape"/><path fill="#ffffff" d="M241.2,570H647.74a9.21,9.21,0,0,1,9.23,9.23v42.54a9.21,9.21,0,0,1-9.23,9.23H241.2a9.21,9.21,0,0,1-9.23-9.23V579.24A9.21,9.21,0,0,1,241.2,570Z" class="colorfff svgShape"/></g><g fill="#000000" class="color000 svgShape"><path fill="#453012" d="M461.71,809.92c-1.67-2.76-3.66-7.42-.52-10.56,3.46-3.46,7.88-4,9,.36,2.3,8.58,56.1,7.58,63.58,7.48a9.11,9.11,0,0,0,9.07-6.43s3.49,5.42,3.09,8.43-2.59,3-2.59,3H466.59s-3.49,0-4.88-2.29Z" class="color121745 svgShape"/><path fill="#ff9400" d="M706.93,642.64h20v141.6h-20Z" class="color004cff svgShape"/><path fill="#ff9400" d="M781.42,628.87c0,18.8-28.87,34-64.49,34s-64.49-15.24-64.49-34,28.87-34,64.49-34,64.49,15.24,64.49,34" class="color007dff svgShape"/><path fill="#ffefd8" d="M781.82,555.08s-47.86,35.1-80.17,34.7-39.74-17.66-45.1-10.61-20.11-5.39-20.11-5.39l-26.19,18.94s-3.67,30.18,38.63,38.64,103.22,12.69,149.75-11.57,47.4-84.65,52.19-131.31,11.57-73-28.72-85.35S728,388.37,721.2,421.08,781.82,555.08,781.82,555.08Z" class="colord8e7ff svgShape"/><path fill="#ffffff" d="M702.06,555.09h72.18a7.56,7.56,0,0,1,7.58,7.58v5.18a7.56,7.56,0,0,1-7.58,7.58H702.06a7.56,7.56,0,0,1-7.58-7.58v-5.18A7.56,7.56,0,0,1,702.06,555.09Z" class="colorfff svgShape"/><path fill="#ffbf66" d="M534.31 782.3l10.6-25.85-30.64-4.71-3.14 34S524.68 799.31 534.31 782.3zM625.27 747.28l-13.19-24.43-25.27 19.3 25.27 24.44S630 756.43 625.27 747.28z" class="colorf9c5ae svgShape"/><path fill="#4b3413" d="M611.64,545.87s-95.45,24.41-94.1,60.9c2.07,56.13,58.73,129.89,58.73,129.89s-1.66,12.65,8.91,12.26c4.3-.16,15.17-8.79,26.08-16s9.37-15.63,3-20.25-18-38.18-26.11-54.4S572.6,633,572.6,633s20-37,34.82-47.72,29.2,9.6,37.92-2.13,63.1-30.13,61.48-35.38S699,518.53,611.64,545.87Z" class="color13194b svgShape"/><path fill="#6a491b" d="M726.38,530.4s-140.62,39.67-167.33,60.1S517,723.26,510,739.76s-8.25,25.53,21.61,27.89,25.92-9.43,25.53-17.28S608.94,639.6,608.94,639.6s10.21-11.79,40.85-18.07,102.13,16.89,124.12-19.64S768.56,527.89,726.38,530.4Z" class="color1b256a svgShape"/><path fill="#ffefd8" d="M781.82,555.08s-31.51,28.32-69,26.73-59.05,41-59.05,41,39.94,21.1,107,2.75,34.26-68,21.1-70.43Z" class="colord8e7ff svgShape"/><path fill="#ff9400" d="M684.25 774.72c-5.7 0-11.84 4.59-13.76 10.29l-6 27.57h14L691.08 785C693.67 779.35 690 774.72 684.25 774.72zM749.13 774.72c5.71 0 11.84 4.59 13.77 10.29l6 27.57h-14L742.31 785C739.72 779.35 743.43 774.72 749.13 774.72z" class="color004cff svgShape"/><path fill="#ff9400" d="M671.24,769.53h91.38c6.84,0,12.35,10.7,12.35,15.55s-5.51,8.76-12.35,8.76H671.24c-6.84,0-12.35-3.91-12.35-8.76S664.4,769.53,671.24,769.53Z" class="color007dff svgShape"/><path fill="#ff9400" d="M717.55,774.72A10.27,10.27,0,0,0,707.26,785l3.3,27.57h14l3.3-27.57C728.53,779.35,723.25,774.72,717.55,774.72Z" class="color004cff svgShape"/><path fill="#ffffff" d="M534.31,782.3c-4.5,1.24-9.48,3.54-18.35-1.73-7.09-4.22-4.74,7.65,1.61,11.95s18,.21,19.32-3S534.31,782.3,534.31,782.3Z" class="colorfff svgShape"/><path fill="#ff9400" d="M507.85,776.88c3.1-4,7.89,7.86,8.4,9.32,3.1,8.74,17.71,3.47,18.2.86a11.4,11.4,0,0,0-.11-4.76s7.9,4.37,8,12.34a38.76,38.76,0,0,0,.55,6.13c2.09,16.2-87.37,7.57-75.28-1.54,6.53-3.13,33.31-13.52,40.24-22.35Z" class="color004cff svgShape"/><path fill="#ffffff" d="M493.28 787.19s5.09-1.64 8.66.61S498.47 778.15 493.28 787.19zM484 791.68s5.09-1.64 8.67.61S489.2 782.63 484 791.68zM717.28 365.41s60.64 167 51.82 170c-34.1 10.85-48.72 12.18-84.7 2.85-9.19.91-11-28.07-11-28.07 6.62-6.54 5-21.74 5-21.74s3.6-13.53.43-36.76c-.22-.81-.42-1.39-.42-1.39l-24-11.5s-3-5.65 1.93-8.05c2.43-10.09 4.75-19.86 5-21a48.34 48.34 0 015.89-17c4.35-7.3 18.29-17 23.8-21.38z" class="colorfff svgShape"/><path fill="#453012" d="M711.9,336.71c-.18,2.84,0,8.7-2.64,11.16s-5.66.31-5.66.31l1.55-8.94Z" class="color121745 svgShape"/><path fill="#f7960d" d="M666.09,391.55c-5.11,3.34-10.61,3.14-17.67,18.85s-15.72,67.17-15.72,67.17l-26.25,10.75-17.94,23.44h78.33Z" class="colorff9600 svgShape"/><path fill="#ff9500" d="M658.46,413s-6,8.4-4.09,25.73,1.68,45.19,3,55.93,15.82,8.61,15.82,8.61Z" class="colorff5d00 svgShape"/><path fill="#f7960d" d="M690.94,371.37S664.49,386.05,658,397.24s-1.71,33.46-1.71,33.46l10,81.05-7.21,23.09c12.71,10,17.53,5.91,25.63,7.68,0,0,5.35-49.24,5.35-77.91s.91-93.24.91-93.24Z" class="colorff9600 svgShape"/><path fill="#ffbf66" d="M705,332.68l12.25,32.73c.68,36.8-28.3,47.09-27.75,10.36l-.62-8.63-4-11.61Z" class="colorf9c5ae svgShape"/><path fill="#d6a867" d="M689.33,345.56l-4.46,10h0l4,11.62c15.55-13,.41-21.59.41-21.59Z" class="colord66780 svgShape"/><path fill="#453012" d="M674.93,307.6c-1.6,0-9.41,1.12-9.2,9.15s6.9,14.29,6.9,14.29Z" class="color121745 svgShape"/><path fill="#ffbf66" d="M669.45,321.13l2.75,26.77s.47,16.7,10.48,14.72c15.76-3.12,25.61-18.11,25-26s-1.37-11.51-2.52-24.5S669,292.34,669.45,321.13Z" class="colorf9c5ae svgShape"/><path fill="#d6a867" d="M674.87,332.63s-2.31,1.85-4.12,1.71-.93,4.68,2.69,4.74S678,330,674.87,332.63Z" class="colord66780 svgShape"/><path fill="#ffbf66" d="M565.59,498.17s-23.44-12.7-28.78-11.27-13.7,13.33-13.58,18.52,5.11,6.34,5.11,6.34h77.32c5.85,1.26,13.49-12.72.79-23.44C599.56,490.84,566.59,498.52,565.59,498.17Z" class="colorf9c5ae svgShape"/><path fill="#d7a969" d="M551.2,502.41a15.13,15.13,0,0,1-4.91,3.15c-2.36.68-8.45,2.65-9.33,4.42s-.79-2.66,1.67-3.83,5.1-4.52,8.34-5.21S551.2,502.41,551.2,502.41Z" class="colord76981 svgShape"/><path fill="#ffbf66" d="M667.92,457c-.66,1.13,0,3.06,4.05,4.59,1.46.55,3.84.37,6,.55-4.35.53-9.05,1.12-10.19,1.28a1.94,1.94,0,0,0-1.57,1.23c-.44,1.23.54,3,4.84,3.75,1.72.29,5.17.51,8.59.74a31.24,31.24,0,0,0-6.15,1.38c-.65.34-1.53.75-1.54,1.44,0,1.3,1.81,2.82,5.79,2.68a33.39,33.39,0,0,0,7.92-.72c-3.2,1-5.41,1.63-6.16,1.89-1.89.65-1.33,2.83,3,3.15,2.3.17,10.24-1.36,14.25-3,3.65.61,18.81-3.38,18.81-3.38l-.87-13.83s-7.45-5-10.3-6.37-9.12-7.05-11-8.32-2.4,3.22-.61,5.71,3.18,4.29,3.18,4.29-11.27,1.47-12.72,1.32-11.46.79-13.59.69a2,2,0,0,0-1.78.9Z" class="colorf9c5ae svgShape"/><path fill="#d7a969" d="M696,454.06l5.59.42a55.52,55.52,0,0,0-6.35-3.7c-1.43-.46-1.69,0-1.69,0Z" class="colord76981 svgShape"/><path fill="#f7960d" d="M717.28,365.41s37.78,7.48,53.88,16.91,32.6,82.09,33.78,99.77-2.41,32.12-22.83,29.76c-2.06-.24,4.46,23.6,1.3,25.55-12.08,7.49-39.92,4.88-45.63,2.22-7.6-3.55,5.88-45.75,5.88-45.75s-17.28-54.2-22-75-4.39-53.44-4.39-53.44Z" class="colorff9600 svgShape"/><path fill="#ff9500" d="M752.06 472.88s22.92-2.37 30.42 1.24 8.61 2.5 5.13-.69-7.36-1-9.43-6.81-7.78-32.07-12.5-34.16 2.21 11.67 3.6 23.19-2.91 12.23-8.6 13.06A14.82 14.82 0 00752.06 472.88zM743.56 493.53s.11.34.11.34-1 3.14-2.28 7.7A90.81 90.81 0 00758 507.13c12.57 2.75 14.53 1.18 11.19.2-2.39-.71-17.27-9.06-25.64-13.8z" class="colorff5d00 svgShape"/><path fill="#ffbf66" d="M714.72,458.75l43.87,12.34c14.12,5.06,3,33.12-14.93,22.78l-34.6-22.47s-4.83-12,5.66-12.65Z" class="colorf9c5ae svgShape"/><path fill="#ffefd8" d="M678.4,537.86H797.06a12,12,0,0,1,0,23.93H678.4a12,12,0,1,1,0-23.93Z" class="colord8e7ff svgShape"/><path fill="#453012" d="M679,301.94c0,7-4.4,12.72-9.82,12.72h0c-5.42,0-9.82-5.7-9.82-12.72s4.4-12.71,9.82-12.71,9.82,5.68,9.82,12.71Z" class="color121745 svgShape"/><path fill="#453012" d="M669.13,314.66s2.55-.1,9.92-3.63,22.78-7.66,21.5.29-1.57,15,1.68,20.23,5.79,2.55,6.28-1.08,3.5-2,5-9.14,2.89-22.34-5.36-28.13-11.89-5.1-20.53,1.82-17.38-2.16-17.77.49S669.13,314.66,669.13,314.66Z" class="color121745 svgShape"/><path fill="#ffbf66" d="M715.07,333.59c-1.32,4-4.86,6.35-7.89,5.33s-4.42-5.05-3.1-9,4.87-6.36,7.9-5.34S716.4,329.62,715.07,333.59Z" class="colorf9c5ae svgShape"/><path fill="#d6a867" d="M707.38,334.84c0-.18-.59-3.82,1-5.73s4.47-1.29,4.4-.27-1.3-.19-2.71.78,3.34,5.13-2.71,5.22Z" class="colord66780 svgShape"/><path fill="#453012" d="M689.53,297.08c0,5.64-3.54,10.22-7.89,10.22h0c-4.36,0-7.89-4.58-7.89-10.22s3.53-10.21,7.89-10.21,7.89,4.56,7.9,10.2Z" class="color121745 svgShape"/><path fill="#ffffff" d="M625.27,747.27c-2,4.23-3.41,9.53-13.17,12.89-7.8,2.7,2.79,8.56,10.17,6.5S634,753.06,632.48,750s-7.21-2.72-7.21-2.72Z" class="colorfff svgShape"/><path fill="#ff9400" d="M631.38,746.27a19.08,19.08,0,0,0-6.11,1,11.1,11.1,0,0,1,3.73,3c1.68,2.06-3.73,16.61-12.41,13.34C615.14,763,603,759.06,604,764h0c1.3,6.31-1.21,17.69-3.95,27.78H600c-7,3.28-13.66,6.08-16.43,7.41-4.72,3.56,6.09,7,20.83,9l19-15-1.64-.1c15.47-15.42,30.59-35.66,23.23-40.42a51.43,51.43,0,0,1-5-3.54,13.14,13.14,0,0,0-8.5-2.84Z" class="color004cff svgShape"/><path fill="#453012" d="M644.91,752.65a9.14,9.14,0,0,1-.95,11.09c-2.77,3.38-19.55,24.92-32.05,37.71-1.32,1.35-3.59,3-9.51,3-7.93,0-15.61-2.39-16.26-4.82-1.17-4.34-5.58-3.83-9-.36-3.14,3.13-1.15,7.79.52,10.55,1.39,2.29,4.88,2.29,4.88,2.29h21.13a15.56,15.56,0,0,0,12.15-5.5c12.62-14.6,25.6-29.32,38.18-44.81,0,0,1.42-1.68-.62-3.92s-8.43-5.24-8.43-5.24Z" class="color121745 svgShape"/><path fill="#ffffff" d="M602.51 781.76s2-4.94 6.07-6.22S599 772 602.51 781.76zM600 791.74s2-5 6.06-6.22S596.39 781.93 600 791.74z" class="colorfff svgShape"/></g><g fill="#000000" class="color000 svgShape"><path fill="#ff9400" d="M544.93,253a11.84,11.84,0,0,1,11.87,11.87v61.89a11.84,11.84,0,0,1-11.87,11.86h-37.8l-26.87,16.07a4.25,4.25,0,0,1-6.46-3.75V338.62H450.34a11.84,11.84,0,0,1-11.87-11.86V264.87A11.85,11.85,0,0,1,450.34,253Z" class="color007dff svgShape"/><path fill="#ffffff" d="M501.78,269h-7a5.24,5.24,0,0,0-5.25,5.25V312a5.24,5.24,0,0,0,5.25,5.25h7A5.24,5.24,0,0,0,507,312V274.2A5.24,5.24,0,0,0,501.78,269Z" class="colorfff svgShape"/><path fill="#ffffff" d="M474.12,289.59v7a5.25,5.25,0,0,0,5.26,5.26h37.79a5.25,5.25,0,0,0,5.25-5.26v-7a5.25,5.25,0,0,0-5.25-5.26H479.38A5.25,5.25,0,0,0,474.12,289.59Z" class="colorfff svgShape"/></g><g fill="#000000" class="color000 svgShape"><path fill="#ffd499" d="M798.87,184.91a10,10,0,0,1,10,10v52a10,10,0,0,1-10,10H767.1l-22.59,13.5a3.57,3.57,0,0,1-5.43-3.15V256.89H719.35a10,10,0,0,1-10-10v-52a10,10,0,0,1,10-10Z" class="color99c4ff svgShape"/><path fill="#ffffff" d="M740.53,209.27a11.64,11.64,0,0,1,2-6.2,15.12,15.12,0,0,1,5.74-5.22,18.06,18.06,0,0,1,8.81-2.07,18.73,18.73,0,0,1,8.27,1.74,13.19,13.19,0,0,1,5.51,4.68,11.4,11.4,0,0,1,2,6.46,9.73,9.73,0,0,1-1.13,4.8,14.44,14.44,0,0,1-2.64,3.59c-1,1-2.84,2.66-5.49,5a22.47,22.47,0,0,0-1.77,1.78,6.51,6.51,0,0,0-1,1.38,6.84,6.84,0,0,0-.52,1.26c-.11.41-.28,1.14-.51,2.2q-.62,3.35-3.84,3.35a4,4,0,0,1-2.84-1.09A4.34,4.34,0,0,1,752,227.7a12,12,0,0,1,.83-4.68,11.71,11.71,0,0,1,2.23-3.49,50.46,50.46,0,0,1,3.74-3.58c1.38-1.2,2.37-2.11,3-2.71a8.62,8.62,0,0,0,1.55-2.07,4.85,4.85,0,0,0,.65-2.45,5.71,5.71,0,0,0-1.94-4.36c-1.27-1.18-10-3.83-13,5.3q-1.1,3.65-4.17,3.64a4.17,4.17,0,0,1-3.06-1.26,4,4,0,0,1-1.23-2.77Zm15.75,35.37a5.17,5.17,0,0,1-3.45-1.26,4.54,4.54,0,0,1-1.45-3.58,4.59,4.59,0,0,1,1.41-3.42,4.79,4.79,0,0,1,3.49-1.39,4.75,4.75,0,0,1,4.81,4.81,4.54,4.54,0,0,1-1.45,3.55A4.91,4.91,0,0,1,756.28,244.64Z" class="colorfff svgShape"/></g><g fill="#000000" class="color000 svgShape"><path fill="#ff9400" d="M858.57,289.4a10,10,0,0,1,10,10v52a10,10,0,0,1-10,10H826.81l-22.6,13.51a3.58,3.58,0,0,1-5.43-3.16V361.37H779.06a10,10,0,0,1-10-10v-52a10,10,0,0,1,10-10Z" class="color007dff svgShape"/><path fill="#ffefd8" d="M783,305h71.67v12.17H783Z" class="colord8e7ff svgShape"/><path fill="#ffffff" d="M782.53 325.86h72.61v4.28H782.53zM782.53 340h45.39v4.28H782.53z" class="colorfff svgShape"/></g></svg>