<svg width="140" height="138" viewBox="0 0 140 138" fill="none" xmlns="http://www.w3.org/2000/svg">
<path d="M39.9528 4.16504C39.9528 4.16504 37.2217 0.700045 34.9875 1.51004C34.9875 1.51004 35.7638 1.88004 36.0005 2.76004C36.0005 2.76004 34.7651 1.16504 32.7865 1.65004C32.7865 1.65004 32.7108 2.74004 34.4006 3.81004C34.4006 3.81004 33.4161 4.00504 33.151 3.35504C33.151 3.35504 32.7581 4.03005 34.0977 5.08004C34.0977 5.08004 33.5817 5.01005 33.293 4.74005C33.293 4.74005 34.1639 6.68005 38.6322 9.05504L41.3539 4.87004L39.9528 4.16504Z" fill="#F7960D"/>
<path d="M39.9528 4.87999C39.9528 4.87999 37.8843 2.24999 36.1851 2.86499C36.1851 2.86499 36.772 3.14499 36.9519 3.80999C36.9519 3.80999 36.0147 2.59999 34.5142 2.96999C34.5142 2.96999 34.4574 3.79999 35.7401 4.60999C35.7401 4.60999 34.9923 4.75999 34.7935 4.26499C34.7935 4.26499 34.4953 4.77499 35.5129 5.56999C35.5129 5.56999 35.1201 5.51499 34.9023 5.30999C34.9023 5.30999 35.5603 6.77999 38.9541 8.57999L41.0178 5.40499L39.9528 4.87999Z" fill="#FFBF66"/>
<path d="M41.4533 4.725L43.9099 1.145C44.0519 0.940001 44.3217 0.895001 44.5157 1.045L45.9925 2.175C46.2907 2.405 46.499 2.745 46.57 3.13L47.7439 9.535L41.4533 4.725ZM38.4523 9.54L35.9957 13.12C35.8537 13.325 35.8963 13.61 36.0904 13.76L37.5672 14.89C37.8654 15.12 38.2393 15.22 38.6085 15.17L44.7335 14.355L38.4523 9.54Z" fill="#FFA30F"/>
<path d="M38.5659 9.75998L36.6016 8.24998C36.4785 8.15498 36.4501 7.96998 36.5401 7.83998L39.5363 3.47498C39.6262 3.34498 39.8013 3.31498 39.9244 3.40998L41.8935 4.91498L38.5659 9.75998Z" fill="#CCCCCC"/>
<path d="M39.4984 11L37.0655 9.13497C36.9282 9.02997 36.8998 8.82997 36.9992 8.68497L40.4356 3.67997C40.535 3.53497 40.7243 3.50497 40.8616 3.60997L43.2945 5.47497L39.4984 11Z" fill="#FFA30F"/>
<path d="M55.871 24.74L37.0323 10.315C36.8099 10.145 36.7578 9.81498 36.9235 9.57998L41.2166 3.32498C41.3775 3.08998 41.6899 3.03498 41.9124 3.20998L60.7511 17.635C62.6113 19.06 64.3863 22.845 63.0373 24.81C61.6883 26.77 57.7265 26.165 55.871 24.74Z" fill="#F7960D"/>
<path d="M47.4504 9.95496L48.416 10.695C49.5236 11.545 49.7461 12.675 48.8799 13.94C48.0137 15.205 46.9013 15.365 45.8269 14.54L44.8281 13.775L47.4504 9.95496ZM46.1251 13.935C46.854 14.49 47.5687 14.375 48.2172 13.435C48.8609 12.495 48.7237 11.77 47.9947 11.21L47.7155 10.995L45.8458 13.715L46.1251 13.935ZM50.9105 12.605L53.0878 14.27L52.6949 14.84L51.1613 13.665L50.4892 14.645L51.7909 15.64L51.398 16.21L50.0963 15.215L49.3201 16.345L50.9105 17.565L50.5176 18.135L48.2835 16.425L50.9105 12.605ZM53.883 14.885L55.0379 15.77C55.7811 16.34 56.1645 17 55.6817 17.7C55.4355 18.06 55.0095 18.27 54.6119 18.145L54.5977 18.17C54.9338 18.57 55.0237 19.09 54.6687 19.61C54.1433 20.375 53.3055 20.28 52.5103 19.67L51.2607 18.715L53.883 14.885ZM53.9019 17.305C54.4084 17.69 54.7634 17.65 54.9906 17.315C55.2462 16.945 55.1042 16.625 54.6356 16.265L54.1623 15.905L53.4428 16.955L53.9019 17.305ZM52.8085 19.085C53.3387 19.49 53.7741 19.52 54.0676 19.09C54.3421 18.69 54.1765 18.29 53.6369 17.88L53.0973 17.465L52.2689 18.675L52.8085 19.085ZM57.3857 18.435L56.3396 17.635L56.7325 17.065L59.4636 19.155L59.0707 19.725L58.0247 18.925L55.7953 22.175L55.1515 21.685L57.3857 18.435Z" fill="white"/>
<path d="M17.0766 29.64C17.0766 29.64 13.6355 26.97 11.6522 28.325C11.6522 28.325 12.49 28.485 12.916 29.28C12.916 29.28 11.354 28.045 9.54587 29.015C9.54587 29.015 9.721 30.095 11.6049 30.705C11.6049 30.705 10.6913 31.145 10.289 30.58C10.289 30.58 10.0618 31.335 11.6001 32.015C11.6001 32.015 11.0795 32.075 10.7387 31.885C10.7387 31.885 12.0214 33.545 16.9062 34.72L18.596 29.965L17.0766 29.64Z" fill="#F7960D"/>
<path d="M17.2423 30.34C17.2423 30.34 14.6342 28.315 13.129 29.34C13.129 29.34 13.7633 29.46 14.0899 30.065C14.0899 30.065 12.9065 29.13 11.5339 29.865C11.5339 29.865 11.6664 30.685 13.0959 31.145C13.0959 31.145 12.4048 31.48 12.0971 31.05C12.0971 31.05 11.9267 31.62 13.0911 32.135C13.0911 32.135 12.6983 32.18 12.4379 32.04C12.4379 32.04 13.413 33.3 17.1145 34.19L18.3972 30.585L17.2423 30.34Z" fill="#FFBF66"/>
<path d="M18.6623 29.805L20.2337 25.705C20.3237 25.47 20.5745 25.355 20.797 25.45L22.4868 26.175C22.8323 26.32 23.1069 26.6 23.2631 26.955L25.8569 32.875L18.6623 29.805ZM16.8447 35.24L15.2732 39.34C15.1833 39.575 15.2921 39.84 15.5146 39.935L17.2044 40.66C17.5499 40.805 17.9333 40.81 18.2789 40.67L24.0393 38.325L16.8447 35.24Z" fill="#FFA30F"/>
<path d="M17.0056 35.425L14.7525 34.46C14.6105 34.4 14.5443 34.23 14.6011 34.08L16.5133 29.085C16.5701 28.935 16.7311 28.865 16.8731 28.925L19.1261 29.89L17.0056 35.425Z" fill="#CCCCCC"/>
<path d="M18.1889 36.395L15.401 35.2C15.2448 35.135 15.1691 34.945 15.2306 34.78L17.4316 29.05C17.4931 28.885 17.673 28.805 17.8292 28.87L20.6171 30.06L18.1889 36.395Z" fill="#FFA30F"/>
<path d="M37.2075 45.58L15.6424 36.355C15.3868 36.245 15.2637 35.94 15.3679 35.67L18.1132 28.505C18.2173 28.235 18.5061 28.105 18.7617 28.215L40.3267 37.435C42.452 38.345 45.0364 41.57 44.1797 43.815C43.3182 46.07 39.3375 46.49 37.2075 45.58Z" fill="#F7960D"/>
<path d="M28.2378 35.065L26.9361 34.51L27.2107 33.8L30.6092 35.255L30.3394 35.965L29.0377 35.41L27.4899 39.45L26.69 39.11L28.2378 35.065ZM31.9677 35.835L32.9049 36.235L32.5499 41.615L31.7026 41.255L31.9866 38.43C32.0339 37.865 32.1144 37.265 32.1807 36.69L32.1523 36.68C31.8257 37.155 31.4896 37.635 31.1535 38.075L29.4921 40.31L28.678 39.96L31.9677 35.835ZM30.2921 38.385L32.4126 39.29L32.157 39.95L30.0365 39.045L30.2921 38.385ZM34.8361 39.74L34.5189 36.925L35.4041 37.305L35.4987 38.575C35.5224 38.84 35.5319 39.1 35.5603 39.445L35.5887 39.455C35.8111 39.215 35.9863 39.035 36.1709 38.855L37.0513 38.005L37.8985 38.37L35.8017 40.2L36.1567 43.155L35.2715 42.775L35.1532 41.415C35.1295 41.125 35.1106 40.835 35.0869 40.485L35.0585 40.475C34.8266 40.715 34.6278 40.91 34.429 41.105L33.4634 42L32.6161 41.635L34.8361 39.74Z" fill="white"/>
<path d="M7.68092 58.805C7.68092 58.805 3.80432 56.915 2.11452 58.66C2.11452 58.66 2.96652 58.64 3.53452 59.33C3.53452 59.33 1.76899 58.45 0.183319 59.785C0.183319 59.785 0.557253 60.805 2.52159 61.005C2.52159 61.005 1.71219 61.63 1.21045 61.16C1.21045 61.16 1.12999 61.945 2.76299 62.29C2.76299 62.29 2.26599 62.46 1.89679 62.345C1.89679 62.345 3.46825 63.705 8.47612 63.82L9.23345 58.805H7.68092Z" fill="#F7960D"/>
<path d="M7.96967 59.45C7.96967 59.45 5.03027 58.015 3.75227 59.34C3.75227 59.34 4.39601 59.325 4.83147 59.85C4.83147 59.85 3.49194 59.18 2.28967 60.195C2.28967 60.195 2.57367 60.97 4.05994 61.12C4.05994 61.12 3.44461 61.59 3.06594 61.235C3.06594 61.235 3.00441 61.83 4.24454 62.09C4.24454 62.09 3.86587 62.22 3.58661 62.135C3.58661 62.135 4.77941 63.165 8.57554 63.255L9.14827 59.45H7.96967Z" fill="#FFBF66"/>
<path d="M9.26188 58.63L10.0239 54.28C10.0665 54.03 10.2937 53.865 10.5304 53.915L12.3243 54.265C12.6888 54.335 13.0154 54.55 13.2331 54.865L16.892 60.115L9.26188 58.63ZM8.50928 64.34L7.74721 68.69C7.70461 68.94 7.86081 69.18 8.09274 69.225L9.88668 69.575C10.2511 69.645 10.6298 69.57 10.9375 69.36L16.1394 65.845L8.50928 64.34Z" fill="#FFA30F"/>
<path d="M8.69861 64.485L6.30827 64.015C6.15681 63.985 6.05741 63.835 6.08581 63.675L7.01827 58.375C7.04667 58.215 7.18867 58.11 7.34014 58.14L9.73047 58.61L8.69861 64.485Z" fill="#CCCCCC"/>
<path d="M10.0429 65.185L7.08453 64.605C6.91886 64.57 6.80999 64.405 6.83839 64.23L7.90813 58.15C7.94126 57.975 8.09746 57.86 8.26313 57.89L11.2215 58.47L10.0429 65.185Z" fill="#FFA30F"/>
<path d="M30.4151 70.17L7.53893 65.685C7.26913 65.63 7.08927 65.355 7.14133 65.07L8.47613 57.47C8.5282 57.185 8.78853 56.995 9.05833 57.05L31.9345 61.535C34.1923 61.975 37.3353 64.595 36.914 66.975C36.4975 69.365 32.6729 70.615 30.4151 70.17Z" fill="#F7960D"/>
<path d="M16.7926 60.685L17.5547 60.835L16.8731 64.705L18.6623 65.055L18.5439 65.735L15.9927 65.235L16.7926 60.685ZM19.2729 63.505C19.5332 62.035 20.4609 61.32 21.5827 61.54C22.7045 61.76 23.3293 62.785 23.069 64.25C22.8087 65.72 21.8762 66.475 20.7544 66.255C19.6326 66.03 19.0173 64.975 19.2729 63.505ZM22.288 64.095C22.4679 63.075 22.1413 62.37 21.4644 62.24C20.7875 62.105 20.2432 62.64 20.0633 63.66C19.8835 64.68 20.2053 65.42 20.8822 65.555C21.5543 65.685 22.1081 65.115 22.288 64.095ZM25.1138 62.315L26.0084 62.49L26.6143 67.315L25.8049 67.155L25.5729 64.605C25.5209 64.095 25.4877 63.555 25.4451 63.03L25.4167 63.025C25.2085 63.505 24.9907 63.995 24.773 64.45L23.6891 66.74L22.9081 66.585L25.1138 62.315ZM24.0677 64.885L26.0936 65.285L25.98 65.92L23.9541 65.52L24.0677 64.885ZM27.9065 62.865L28.6922 63.02L29.5821 65.84L29.8566 66.9L29.885 66.905C29.9323 66.43 29.9702 65.84 30.0601 65.335L30.4057 63.36L31.1346 63.5L30.3347 68.05L29.5489 67.895L28.6591 65.07L28.3845 64.015L28.3561 64.01C28.3088 64.5 28.2709 65.06 28.1857 65.565L27.8355 67.555L27.1065 67.415L27.9065 62.865Z" fill="white"/>
<path d="M8.36726 92.6C8.36726 92.6 4.13093 92.055 3.02806 94.265C3.02806 94.265 3.83273 93.97 4.57586 94.44C4.57586 94.44 2.63993 94.175 1.51813 95.96C1.51813 95.96 2.17133 96.81 4.09779 96.365C4.09779 96.365 3.50613 97.22 2.89553 96.935C2.89553 96.935 3.04699 97.71 4.70366 97.505C4.70366 97.505 4.27766 97.83 3.89426 97.84C3.89426 97.84 5.78759 98.62 10.5825 97.11L9.84406 92.09L8.36726 92.6Z" fill="#F7960D"/>
<path d="M8.83113 93.1201C8.83113 93.1201 5.6172 92.71 4.78413 94.385C4.78413 94.385 5.39473 94.165 5.958 94.52C5.958 94.52 4.49066 94.3201 3.63866 95.67C3.63866 95.67 4.13566 96.315 5.59353 95.975C5.59353 95.975 5.14386 96.625 4.68 96.41C4.68 96.41 4.7936 96.9951 6.05266 96.8401C6.05266 96.8401 5.7308 97.085 5.43733 97.095C5.43733 97.095 6.87153 97.6901 10.5067 96.5401L9.9482 92.735L8.83113 93.1201Z" fill="#FFBF66"/>
<path d="M9.8204 91.92L9.28553 87.535C9.25713 87.285 9.4228 87.055 9.65946 87.02L11.4676 86.775C11.8368 86.725 12.206 86.825 12.5089 87.055L17.5215 90.865L9.8204 91.92ZM10.7623 97.6L11.2972 101.985C11.3256 102.235 11.5433 102.415 11.7847 102.38L13.5929 102.135C13.9621 102.085 14.2981 101.89 14.5301 101.585L18.4587 96.5551L10.7623 97.6Z" fill="#FFA30F"/>
<path d="M10.9895 97.6751L8.58026 98.0051C8.42879 98.0251 8.29153 97.9151 8.26786 97.7501L7.61466 92.4101C7.59573 92.2501 7.69986 92.1051 7.85606 92.0801L10.2653 91.7501L10.9895 97.6751Z" fill="#CCCCCC"/>
<path d="M12.4711 97.905L9.48906 98.31C9.32339 98.335 9.16719 98.21 9.14826 98.03L8.39566 91.9C8.37199 91.725 8.49033 91.56 8.66073 91.54L11.6427 91.135L12.4711 97.905Z" fill="#FFA30F"/>
<path d="M33.3119 96.045L10.2369 99.195C9.96239 99.23 9.71626 99.03 9.67839 98.74L8.74119 91.075C8.70806 90.785 8.89739 90.525 9.17193 90.485L32.2469 87.335C34.5237 87.025 38.2725 88.495 38.5659 90.9C38.8594 93.305 35.5839 95.73 33.3119 96.045Z" fill="#F7960D"/>
<path d="M18.3025 91.1901L19.7793 90.9901C20.726 90.8601 21.4644 91.0701 21.5733 91.9651C21.6301 92.4251 21.4455 92.9051 21.0621 93.1101L21.0668 93.1401C21.5922 93.1951 22.0135 93.5151 22.0939 94.1751C22.2123 95.1501 21.5117 95.7101 20.4988 95.8501L18.9037 96.0701L18.3025 91.1901ZM19.9545 93.0101C20.5982 92.9201 20.8396 92.6201 20.7875 92.1951C20.7307 91.7251 20.4041 91.5851 19.8077 91.6701L19.2066 91.7501L19.3723 93.0901L19.9545 93.0101ZM20.3284 95.1851C21.0053 95.0951 21.3508 94.7851 21.2845 94.2351C21.223 93.7201 20.8254 93.5501 20.1391 93.6451L19.448 93.7401L19.6373 95.2801L20.3284 95.1851ZM22.5199 90.6101L23.3388 90.5001L23.9352 95.3751L23.1163 95.4851L22.5199 90.6101ZM24.5079 90.3401L25.3268 90.2301L25.8333 94.3751L27.7503 94.1151L27.8402 94.8401L25.1043 95.2151L24.5079 90.3401ZM28.0532 89.8551L28.8721 89.7451L29.3785 93.8901L31.2955 93.6301L31.3855 94.3551L28.6496 94.7301L28.0532 89.8551Z" fill="white"/>
<path d="M102.849 73.6L98.0829 72.335C97.0794 72.07 96.0191 72.12 95.0441 72.49L94.9352 72.53C94.1021 72.845 93.6667 73.815 93.9649 74.695C94.1826 75.335 94.7364 75.775 95.3801 75.815L99.3845 76.065L101.898 75.79L102.849 73.6Z" fill="#FDDEB3"/>
<path d="M122.606 89.805C120.552 92.81 116.567 93.49 113.717 91.32L73.6068 60.715C73.1855 60.39 73.0909 59.77 73.3938 59.32C73.7015 58.875 74.2884 58.775 74.7144 59.095L114.825 89.7C116.827 91.225 119.629 90.75 121.073 88.635C122.516 86.52 122.067 83.56 120.064 82.035C119.643 81.71 119.549 81.09 119.851 80.64C120.159 80.195 120.746 80.095 121.172 80.415C124.017 82.59 124.661 86.8 122.606 89.805ZM58.9997 48.065C58.6921 48.51 58.1051 48.61 57.6791 48.29L52.4441 44.295C52.0228 43.97 51.9281 43.35 52.2311 42.9C52.534 42.45 53.1257 42.355 53.5517 42.675L58.7867 46.67C59.208 46.995 59.3027 47.62 58.9997 48.065Z" fill="#9F845D"/>
<path d="M90.8077 57.195C82.6427 61.09 78.1082 67.815 77.0811 77.27C57.646 69.175 49.197 52.28 54.3611 44.82C54.3895 44.775 54.4226 44.735 54.451 44.69C59.4305 37.095 76.9012 39.585 90.8077 57.195Z" fill="#D7973F"/>
<path d="M54.361 44.82C50.5696 50.365 60.77 64.825 77.081 77.27C70.2556 79.315 66.2133 84.06 66.3979 92.895C45.9263 84.385 43.0389 60.755 54.1623 45.115L54.361 44.82ZM101.491 41.57C93.217 44.5 90.5 50.115 90.8077 57.195C74.6244 44.845 58.4412 39.39 54.451 44.695L54.4936 44.63C65.0016 29.05 87.0826 24.54 101.491 41.57Z" fill="#B57B2A"/>
<path d="M109.869 29.315C103.029 31.755 100.142 35.8 101.491 41.57C85.3171 29.23 64.3342 30.815 54.4936 44.63C68.9019 24.09 93.6856 16.97 109.869 29.315ZM54.1575 45.12C44.6009 59.305 50.1342 80.49 66.3932 92.9C60.3866 93.05 58.0673 97.715 58.0152 105.15C41.7041 92.7 39.8392 66.06 54.1575 45.12Z" fill="#D7973F"/>
<path d="M114.067 81.67C114.11 81.8 111.568 82.71 109.874 83.3C108.903 83.64 108.056 84.285 107.441 85.15L107.294 85.36C106.707 86.19 105.898 86.82 104.975 87.17L98.4379 89.635C97.5291 89.98 96.5256 89.475 96.2037 88.515C95.8771 87.555 96.3552 86.495 97.264 86.155L100.189 85.05L95.6878 86.75C94.779 87.095 93.7755 86.59 93.4537 85.63C93.1271 84.67 93.6051 83.61 94.5139 83.27L100.369 81.06L92.6064 83.99C91.6645 84.345 90.6279 83.825 90.2918 82.83C89.9557 81.835 90.448 80.74 91.3899 80.385L97.2829 78.16L92.0715 80.125C91.1722 80.465 90.1877 79.97 89.8658 79.02C89.5439 78.07 90.0125 77.03 90.9119 76.69L98.7597 73.73C100.08 73.23 101.519 73.185 102.868 73.6C104.217 74.015 105.651 73.97 106.977 73.47L110.451 72.16L114.067 81.67Z" fill="#FDDEB3"/>
<path d="M92.0573 80.125C93.4821 79.32 94.992 78.75 96.5824 78.42C95.1529 79.22 93.6383 79.79 92.0573 80.125ZM94.3435 83.285C95.7683 82.48 97.2782 81.91 98.8686 81.58C97.4391 82.38 95.9292 82.95 94.3435 83.285ZM97.1977 86.23C98.6225 85.425 100.132 84.855 101.723 84.525C100.293 85.325 98.7834 85.895 97.1977 86.23Z" fill="#F4D5AB"/>
<path d="M109.335 85.3005L112.798 83.9933L108.546 71.4217L105.083 72.7288L109.335 85.3005Z" fill="#E0E0E0"/>
<path d="M105.973 71.31L139.817 58.535V74.88L110.872 85.8L105.973 71.31Z" fill="#F7960D"/>
<path d="M82.3036 130.915V133.07H84.2916V130.915H82.3036Z" fill="#FDDEB3"/>
<path d="M77.9094 134.52C77.9094 134.52 77.6491 135.995 80.5175 135.705C80.7967 135.675 81.076 135.62 81.3458 135.54C81.7339 135.425 82.3729 135.28 82.8273 135.24L82.8463 135.735L84.555 135.635C84.7349 135.615 84.8721 135.45 84.8674 135.255L84.7822 134.15C84.7822 134.15 81.9091 134.24 81.8617 134.265C81.8144 134.29 79.372 134.845 79.372 134.845L77.9094 134.52Z" fill="#2C2B2A"/>
<path d="M79.3104 135.495L79.4051 135.5C79.6986 135.515 80.0489 135.505 80.4607 135.46C80.7399 135.43 81.0192 135.375 81.289 135.295C81.6771 135.18 82.3209 135.005 82.7705 134.96C82.7705 134.96 83.1113 134.955 83.5137 134.93C83.5421 134.93 83.5705 134.925 83.5989 134.925C83.6651 134.92 83.7361 134.92 83.8071 134.91C83.8355 134.91 83.8639 134.905 83.8971 134.905C83.9491 134.9 84.0012 134.9 84.0533 134.89C84.0817 134.885 84.1101 134.885 84.1432 134.88C84.5124 134.845 84.8059 134.795 84.8059 134.72C84.8343 134.43 84.839 134.14 84.8248 133.85C84.8106 133.505 84.768 133.16 84.6923 132.82C84.6449 132.59 84.4414 132.44 84.2189 132.465L82.6617 132.655C82.5433 132.67 82.425 132.625 82.3398 132.54C82.3303 132.53 82.3209 132.52 82.3114 132.51L82.3067 132.505L82.283 132.475V132.47L82.2783 132.465L82.2214 132.395L82.1647 132.325L82.1599 132.32C82.0889 132.23 81.9564 132.23 81.8854 132.32C81.5825 132.685 81.2606 133.02 80.9151 133.32C80.4701 133.705 79.9447 133.965 79.3814 134.07C79.3483 134.075 79.3152 134.08 79.2821 134.085C79.159 134.105 79.0359 134.115 78.9129 134.12C77.881 134.155 77.8999 134.515 77.8999 134.515C77.8999 134.515 77.6916 135.385 79.3104 135.495Z" fill="#434241"/>
<path d="M82.3019 132.795C82.3542 132.795 82.3966 132.75 82.3966 132.695C82.3966 132.64 82.3542 132.595 82.3019 132.595C82.2496 132.595 82.2073 132.64 82.2073 132.695C82.2073 132.75 82.2496 132.795 82.3019 132.795Z" fill="#CDCAC6"/>
<path d="M82.3067 132.745C82.2925 132.745 82.283 132.74 82.2735 132.73L81.8996 132.34C81.8807 132.32 81.8807 132.29 81.8996 132.27C81.9185 132.25 81.9469 132.25 81.9659 132.27L82.3398 132.66C82.3587 132.68 82.3587 132.71 82.3398 132.73C82.3256 132.735 82.3161 132.74 82.3067 132.745Z" fill="#2C2B2A"/>
<path d="M82.0795 132.985C82.1317 132.985 82.1741 132.94 82.1741 132.885C82.1741 132.83 82.1317 132.785 82.0795 132.785C82.0272 132.785 81.9848 132.83 81.9848 132.885C81.9848 132.94 82.0272 132.985 82.0795 132.985Z" fill="#CDCAC6"/>
<path d="M82.0842 132.93C82.07 132.93 82.0605 132.925 82.0511 132.915L81.7055 132.55C81.6866 132.53 81.6866 132.5 81.7055 132.48C81.7245 132.46 81.7529 132.46 81.7718 132.48L82.1173 132.845C82.1363 132.865 82.1363 132.895 82.1173 132.915C82.1031 132.925 82.0937 132.93 82.0842 132.93Z" fill="#2C2B2A"/>
<path d="M81.857 133.185C81.9093 133.185 81.9517 133.14 81.9517 133.085C81.9517 133.03 81.9093 132.985 81.857 132.985C81.8047 132.985 81.7623 133.03 81.7623 133.085C81.7623 133.14 81.8047 133.185 81.857 133.185Z" fill="#CDCAC6"/>
<path d="M81.8617 133.13C81.8475 133.13 81.8381 133.125 81.8286 133.115L81.4973 132.76C81.4783 132.74 81.4783 132.71 81.4973 132.69C81.5162 132.67 81.5446 132.67 81.5635 132.69L81.8949 133.045C81.9138 133.065 81.9138 133.095 81.8949 133.115C81.8807 133.125 81.8712 133.13 81.8617 133.13Z" fill="#2C2B2A"/>
<path d="M81.6487 133.38C81.701 133.38 81.7434 133.335 81.7434 133.28C81.7434 133.225 81.701 133.18 81.6487 133.18C81.5964 133.18 81.5541 133.225 81.5541 133.28C81.5541 133.335 81.5964 133.38 81.6487 133.38Z" fill="#CDCAC6"/>
<path d="M81.6487 133.33C81.6345 133.33 81.6251 133.325 81.6156 133.315L81.3032 132.96C81.2843 132.94 81.289 132.91 81.3032 132.89C81.3221 132.87 81.3505 132.875 81.3695 132.89L81.6819 133.245C81.7008 133.265 81.6961 133.295 81.6819 133.315C81.6724 133.325 81.6582 133.33 81.6487 133.33Z" fill="#2C2B2A"/>
<path d="M81.4168 133.56C81.4691 133.56 81.5115 133.515 81.5115 133.46C81.5115 133.405 81.4691 133.36 81.4168 133.36C81.3645 133.36 81.3221 133.405 81.3221 133.46C81.3221 133.515 81.3645 133.56 81.4168 133.56Z" fill="#CDCAC6"/>
<path d="M81.4168 133.505C81.4026 133.505 81.3931 133.5 81.3837 133.49L81.0807 133.15C81.0618 133.13 81.0665 133.1 81.0807 133.08C81.0949 133.06 81.1281 133.065 81.147 133.08L81.4499 133.42C81.4689 133.44 81.4641 133.47 81.4499 133.49C81.4405 133.5 81.4263 133.505 81.4168 133.505Z" fill="#2C2B2A"/>
<path d="M81.1849 133.75C81.2371 133.75 81.2795 133.705 81.2795 133.65C81.2795 133.595 81.2371 133.55 81.1849 133.55C81.1326 133.55 81.0902 133.595 81.0902 133.65C81.0902 133.705 81.1326 133.75 81.1849 133.75Z" fill="#CDCAC6"/>
<path d="M81.1849 133.695C81.1707 133.695 81.1612 133.69 81.1517 133.68L80.863 133.36C80.8441 133.34 80.8488 133.31 80.863 133.29C80.8772 133.27 80.9103 133.275 80.9293 133.29L81.218 133.61C81.2369 133.63 81.2322 133.66 81.218 133.68C81.2085 133.69 81.1991 133.695 81.1849 133.695Z" fill="#2C2B2A"/>
<path d="M80.7967 133.885C80.7967 134.05 80.863 134.21 80.9813 134.32C81.1044 134.435 81.2701 134.48 81.4357 134.445L82.9457 134.125C83.0687 134.1 83.1965 134.13 83.2959 134.21C83.3953 134.285 83.4616 134.41 83.4758 134.54L83.5137 134.935C83.5421 134.935 83.5705 134.93 83.5989 134.93L83.561 134.53C83.5421 134.375 83.4663 134.23 83.3433 134.135C83.2249 134.045 83.0687 134.005 82.922 134.04L81.4121 134.36C81.2748 134.39 81.1375 134.35 81.0334 134.255C80.934 134.165 80.8772 134.03 80.8772 133.89C80.8772 133.75 80.9387 133.62 81.0429 133.53L82.2783 132.475L82.2215 132.405L80.9861 133.46C80.8725 133.56 80.7967 133.72 80.7967 133.885Z" fill="#2C2B2A"/>
<path d="M89.7012 130.914V133.069H91.6892V130.914H89.7012Z" fill="#FDDEB3"/>
<path d="M85.3076 134.52C85.3076 134.52 85.0473 135.995 87.9157 135.705C88.1949 135.675 88.4742 135.62 88.744 135.54C89.1321 135.425 89.7711 135.28 90.2255 135.24L90.2445 135.735L91.9532 135.635C92.1331 135.615 92.2703 135.45 92.2656 135.255L92.1804 134.15C92.1804 134.15 89.3073 134.24 89.2599 134.265C89.2126 134.29 86.7702 134.845 86.7702 134.845L85.3076 134.52Z" fill="#2C2B2A"/>
<path d="M86.7087 135.495L86.8033 135.5C87.0968 135.515 87.4471 135.505 87.8589 135.46C88.1381 135.43 88.4174 135.375 88.6872 135.295C89.0753 135.18 89.7191 135.005 90.1687 134.96C90.1687 134.96 90.5095 134.955 90.9119 134.93C90.9403 134.93 90.9687 134.925 90.9971 134.925C91.0633 134.92 91.1343 134.92 91.2053 134.91C91.2337 134.91 91.2621 134.905 91.2953 134.905C91.3473 134.9 91.3994 134.9 91.4515 134.89C91.4799 134.885 91.5083 134.885 91.5414 134.88C91.9106 134.845 92.2041 134.795 92.2041 134.72C92.2325 134.43 92.2372 134.14 92.223 133.85C92.2088 133.505 92.1662 133.16 92.0905 132.82C92.0431 132.59 91.8396 132.44 91.6171 132.465L90.0599 132.655C89.9415 132.67 89.8232 132.625 89.738 132.54C89.7285 132.53 89.7191 132.52 89.7096 132.51L89.7049 132.505L89.6812 132.475V132.47L89.6765 132.465L89.6197 132.395L89.5629 132.325L89.5581 132.32C89.4871 132.23 89.3546 132.23 89.2836 132.32C88.9807 132.685 88.6588 133.02 88.3133 133.32C87.8683 133.705 87.3429 133.965 86.7797 134.07C86.7465 134.075 86.7134 134.08 86.6803 134.085C86.5572 134.105 86.4341 134.115 86.3111 134.12C85.2792 134.155 85.2981 134.515 85.2981 134.515C85.2981 134.515 85.0899 135.385 86.7087 135.495Z" fill="#434241"/>
<path d="M89.7001 132.795C89.7524 132.795 89.7948 132.75 89.7948 132.695C89.7948 132.64 89.7524 132.595 89.7001 132.595C89.6478 132.595 89.6055 132.64 89.6055 132.695C89.6055 132.75 89.6478 132.795 89.7001 132.795Z" fill="#CDCAC6"/>
<path d="M89.7049 132.745C89.6907 132.745 89.6812 132.74 89.6717 132.73L89.2978 132.34C89.2789 132.32 89.2789 132.29 89.2978 132.27C89.3167 132.25 89.3451 132.25 89.3641 132.27L89.738 132.66C89.7569 132.68 89.7569 132.71 89.738 132.73C89.7238 132.735 89.7143 132.74 89.7049 132.745Z" fill="#2C2B2A"/>
<path d="M89.4777 132.985C89.5299 132.985 89.5723 132.94 89.5723 132.885C89.5723 132.83 89.5299 132.785 89.4777 132.785C89.4254 132.785 89.383 132.83 89.383 132.885C89.383 132.94 89.4254 132.985 89.4777 132.985Z" fill="#CDCAC6"/>
<path d="M89.4824 132.93C89.4682 132.93 89.4587 132.925 89.4493 132.915L89.1037 132.55C89.0848 132.53 89.0848 132.5 89.1037 132.48C89.1227 132.46 89.1511 132.46 89.17 132.48L89.5155 132.845C89.5345 132.865 89.5345 132.895 89.5155 132.915C89.5013 132.925 89.4919 132.93 89.4824 132.93Z" fill="#2C2B2A"/>
<path d="M89.2552 133.185C89.3075 133.185 89.3499 133.14 89.3499 133.085C89.3499 133.03 89.3075 132.985 89.2552 132.985C89.2029 132.985 89.1605 133.03 89.1605 133.085C89.1605 133.14 89.2029 133.185 89.2552 133.185Z" fill="#CDCAC6"/>
<path d="M89.2552 133.13C89.241 133.13 89.2315 133.125 89.2221 133.115L88.8907 132.76C88.8718 132.74 88.8718 132.71 88.8907 132.69C88.9097 132.67 88.9381 132.67 88.957 132.69L89.2883 133.045C89.3073 133.065 89.3073 133.095 89.2883 133.115C89.2789 133.125 89.2694 133.13 89.2552 133.13Z" fill="#2C2B2A"/>
<path d="M89.0469 133.38C89.0992 133.38 89.1416 133.335 89.1416 133.28C89.1416 133.225 89.0992 133.18 89.0469 133.18C88.9946 133.18 88.9523 133.225 88.9523 133.28C88.9523 133.335 88.9946 133.38 89.0469 133.38Z" fill="#CDCAC6"/>
<path d="M89.0469 133.33C89.0327 133.33 89.0233 133.325 89.0138 133.315L88.7014 132.96C88.6825 132.94 88.6872 132.91 88.7014 132.89C88.7203 132.87 88.7487 132.875 88.7677 132.89L89.0801 133.245C89.099 133.265 89.0943 133.295 89.0801 133.315C89.0659 133.325 89.0564 133.33 89.0469 133.33Z" fill="#2C2B2A"/>
<path d="M88.815 133.56C88.8673 133.56 88.9097 133.515 88.9097 133.46C88.9097 133.405 88.8673 133.36 88.815 133.36C88.7627 133.36 88.7203 133.405 88.7203 133.46C88.7203 133.515 88.7627 133.56 88.815 133.56Z" fill="#CDCAC6"/>
<path d="M88.815 133.505C88.8008 133.505 88.7913 133.5 88.7819 133.49L88.4789 133.15C88.46 133.13 88.4647 133.1 88.4789 133.08C88.4931 133.06 88.5263 133.065 88.5452 133.08L88.8481 133.42C88.8671 133.44 88.8623 133.47 88.8481 133.49C88.8387 133.5 88.8245 133.505 88.815 133.505Z" fill="#2C2B2A"/>
<path d="M88.5831 133.75C88.6353 133.75 88.6777 133.705 88.6777 133.65C88.6777 133.595 88.6353 133.55 88.5831 133.55C88.5308 133.55 88.4884 133.595 88.4884 133.65C88.4884 133.705 88.5308 133.75 88.5831 133.75Z" fill="#CDCAC6"/>
<path d="M88.5831 133.695C88.5689 133.695 88.5594 133.69 88.5499 133.68L88.2612 133.36C88.2423 133.34 88.247 133.31 88.2612 133.29C88.2754 133.27 88.3085 133.275 88.3275 133.29L88.6162 133.61C88.6351 133.63 88.6304 133.66 88.6162 133.68C88.6067 133.69 88.5925 133.695 88.5831 133.695Z" fill="#2C2B2A"/>
<path d="M88.1949 133.885C88.1949 134.05 88.2612 134.21 88.3795 134.32C88.5026 134.435 88.6683 134.48 88.8339 134.445L90.3439 134.125C90.4669 134.1 90.5947 134.13 90.6941 134.21C90.7935 134.285 90.8598 134.41 90.874 134.54L90.9119 134.935C90.9403 134.935 90.9687 134.93 90.9971 134.93L90.9592 134.53C90.9403 134.375 90.8645 134.23 90.7415 134.135C90.6231 134.045 90.4669 134.005 90.3202 134.04L88.8103 134.36C88.673 134.39 88.5357 134.35 88.4316 134.255C88.3322 134.165 88.2754 134.03 88.2754 133.89C88.2754 133.75 88.3369 133.62 88.4411 133.53L89.6765 132.475L89.6197 132.405L88.3843 133.46C88.2707 133.56 88.1949 133.72 88.1949 133.885Z" fill="#2C2B2A"/>
<path d="M91.868 103.68C92.5259 107.855 91.8491 111.95 91.5083 117.67L92.1757 131.7H89.1937L87.5607 118.395L86.9311 112.92L85.7052 117.67L84.7112 131.7H81.7576L81.6866 117.13C82.1836 112.375 82.8557 107.835 83.7977 103.64L91.868 103.68Z" fill="#434241"/>
<path d="M74.7002 99.275L73.0246 99.72C72.8447 99.77 72.6649 99.835 72.4945 99.91C71.9691 100.145 70.5727 100.58 69.7728 98.995C69.6497 98.75 69.8296 98.46 70.0899 98.495C70.5491 98.555 71.3443 98.605 71.5857 98.325L71.0082 97.825C70.8993 97.73 70.8899 97.56 70.9845 97.45C71.0603 97.365 71.1786 97.345 71.2733 97.395L72.0637 97.825C72.2578 97.93 72.4755 97.97 72.6933 97.93L74.2742 97.67" fill="#FDDEB3"/>
<path d="M86.9974 96.085L81.8807 98.425C81.644 98.535 81.3979 98.615 81.1423 98.665L73.0057 99.96L72.5181 97.75L80.3376 95.795C80.6879 95.69 81.0192 95.515 81.3127 95.285C83.0167 93.57 84.5834 92.115 85.7573 91.43L86.2921 91.79L87.679 94.485L86.9974 96.085Z" fill="#5E5B58"/>
<path d="M86.9901 92.6235H89.21V88.4385H86.9901V92.6235Z" fill="#FDDEB3"/>
<path d="M85.3833 87.795C85.1277 89.555 86.3111 90.645 87.4707 90.645C88.6257 90.645 89.5723 89.395 89.5723 87.795C89.5723 86.195 88.6351 84.895 87.4802 84.895C86.3253 84.895 85.6105 86.215 85.3833 87.795Z" fill="#FDDEB3"/>
<path d="M86.4673 84.745C87.3997 83.95 88.1997 84.67 88.1997 84.67C89.5723 84.27 89.7948 85.865 89.7948 85.865C91.3663 85.82 89.2126 89.855 89.2126 89.855L89.0659 89.315C88.9901 89.04 89.0043 88.74 89.1132 88.475C89.3215 87.965 89.3735 87.345 88.8765 87.26C88.4411 87.185 88.2091 87.875 88.1239 88.21C88.1003 88.305 88.0056 88.36 87.9157 88.34C87.8305 88.315 87.7737 88.23 87.7879 88.135L87.9819 86.795C87.3666 86.99 86.1407 86.75 85.8756 86.65C85.8756 86.65 84.7443 86.28 84.9337 85.015C84.9337 85.015 85.0804 85.335 85.6957 85.355C85.6957 85.355 85.1893 85.23 85.2508 84.465C85.2461 84.475 85.9182 85.21 86.4673 84.745Z" fill="#434241"/>
<path d="M85.1277 98.765C85.1277 98.84 85.1277 107.21 85.1277 107.21C87.5749 108.445 89.809 107.525 89.8043 107.545L89.6859 93.32L89.2031 90.89L87.466 92.115L86.3773 91.15L85.6768 91.8L85.5301 95.12C85.5348 95.12 85.1277 98.69 85.1277 98.765Z" fill="#E5E5E5"/>
<path d="M92.6869 108.135C92.7579 108.45 92.6916 108.775 92.3934 108.855C92.3934 108.855 86.7134 109.57 87.3761 102.26L87.6932 94.855C87.6932 93.49 88.1003 92.065 89.0517 91.135L89.2079 90.885L90.3817 91.405C91.6739 92.07 92.4644 93.485 92.3887 95.005L92.3745 97.845C92.2656 100.18 92.5354 107.44 92.6869 108.135ZM86.9879 90.975L86.3773 91.145C85.4354 91.435 84.6828 92.23 84.6828 93.245V94.985C84.6828 96.04 84.6165 97.095 84.4887 98.145L82.851 106.39C82.8037 106.755 82.9646 106.905 83.3717 107.155L85.7809 108.22C86.0365 108.285 86.2448 108 86.1217 107.755C85.6673 106.86 85.4733 104.925 85.5679 103.915L86.1123 98.02C86.1596 97.495 86.188 96.975 86.2022 96.445L86.9879 90.975Z" fill="#5E5B58"/>
<path d="M86.9879 90.975L86.7655 92.535L88.0813 92.66L89.2079 90.89L87.4707 92.11L86.9879 90.975Z" fill="#CDCAC6"/>
<path d="M85.3644 88.59L87.6837 88.46L87.8257 87.835L88.1997 87.95L87.8825 89.73C87.7784 90.3 87.2719 90.68 86.7276 90.59C85.833 90.445 85.2697 89.54 85.3644 88.59Z" fill="#434241"/>
<path d="M70.9372 94.895C70.9372 94.895 69.6592 93.345 68.9871 94.14C68.8735 94.275 68.8119 94.45 68.7977 94.63C68.7693 95.04 68.8261 95.93 69.6781 96.83C70.8378 98.055 69.7349 96.845 69.7207 96.795C69.7065 96.745 70.9372 94.895 70.9372 94.895Z" fill="#F7D5A5"/>
<path d="M69.6592 96.54C69.7965 96.305 70.0899 95.85 70.71 94.91C70.4402 94.615 69.8817 94.1 69.4557 94.1C69.3231 94.1 69.2095 94.155 69.1149 94.265C69.0344 94.365 68.9823 94.5 68.9681 94.645C68.9492 95.03 69.006 95.765 69.6592 96.54Z" fill="#D5A158"/>
<path d="M85.0047 94.41C84.858 94.575 84.7018 94.705 84.5929 94.905C84.4935 95.09 84.4367 95.29 84.4036 95.495C84.3846 95.595 84.3751 95.695 84.3704 95.795C84.3657 95.9 84.3515 96.02 84.3751 96.125C84.4083 96.29 84.5455 96.405 84.7017 96.43C85.0236 96.48 85.2934 96.07 85.1656 95.76C85.0852 95.56 84.8343 95.56 84.6591 95.57C84.4319 95.58 84.2142 95.65 84.0154 95.77C83.7929 95.905 83.5894 96.075 83.3906 96.245C83.1729 96.425 82.9599 96.605 82.7611 96.805C82.6333 96.935 82.4392 96.73 82.567 96.6C82.7705 96.395 82.993 96.205 83.2155 96.02C83.4285 95.845 83.6415 95.66 83.8781 95.52C84.1195 95.375 84.3941 95.29 84.6733 95.285C84.9337 95.275 85.2224 95.32 85.3739 95.565C85.639 95.995 85.3313 96.635 84.8627 96.715C84.6402 96.75 84.4035 96.67 84.2521 96.49C84.0769 96.28 84.077 96.005 84.1006 95.74C84.1243 95.45 84.1811 95.165 84.29 94.895C84.3468 94.765 84.4178 94.645 84.503 94.53C84.5976 94.41 84.7112 94.315 84.8106 94.2C84.9337 94.07 85.1277 94.275 85.0047 94.41ZM76.4563 103.155L76.745 104.715L76.8207 105.12L77.048 106.355C77.0669 106.465 77.1568 106.54 77.261 106.54H78.5106C78.6289 106.54 78.7283 106.435 78.7283 106.31V103.52L76.4563 103.155ZM71.2543 106.535H72.6176C72.698 106.535 72.7738 106.49 72.8116 106.415L73.7062 104.645L73.9097 104.245L74.4636 103.155L71.723 102.78L71.6756 103.015L71.5857 103.49L71.0461 106.26C71.0129 106.405 71.1171 106.535 71.2543 106.535Z" fill="#ECC084"/>
<path d="M80.5837 103.515V106.305C80.5837 106.43 80.4844 106.535 80.366 106.535H79.1117C79.0076 106.535 78.9176 106.455 78.8987 106.35L78.3117 103.155L80.5837 103.515ZM73.4554 103.36L72.8921 106.26C72.8637 106.405 72.9678 106.535 73.1051 106.535H74.4683C74.5488 106.535 74.6245 106.49 74.6624 106.415L76.3143 103.155L73.4554 103.36Z" fill="#F7D5A5"/>
<path d="M76.4516 104.975C80.5192 104.975 83.8166 102.116 83.8166 98.59C83.8166 95.0637 80.5192 92.205 76.4516 92.205C72.3839 92.205 69.0865 95.0637 69.0865 98.59C69.0865 102.116 72.3839 104.975 76.4516 104.975Z" fill="#F7D5A5"/>
<path d="M70.2698 102.065C71.5809 103.82 73.8624 104.98 76.4516 104.98C80.5175 104.98 83.8166 102.12 83.8166 98.595C83.8166 97.03 83.1681 95.6 82.0937 94.49C82.8415 95.49 83.277 96.68 83.277 97.965C83.277 101.49 79.9779 104.35 75.9119 104.35C73.6494 104.345 71.6235 103.46 70.2698 102.065Z" fill="#ECC084"/>
<path d="M72.394 99.2698C72.4507 98.3467 71.6572 97.5408 70.6216 97.4697C69.5859 97.3987 68.7004 98.0895 68.6436 99.0126C68.5869 99.9357 69.3804 100.742 70.4161 100.813C71.4517 100.884 72.3373 100.193 72.394 99.2698Z" fill="#D5A158"/>
<path d="M71.9109 99.2382C71.9676 98.315 71.1741 97.5091 70.1385 97.4381C69.1028 97.367 68.2173 98.0578 68.1605 98.9809C68.1038 99.9041 68.8973 100.71 69.933 100.781C70.9686 100.852 71.8542 100.161 71.9109 99.2382Z" fill="#F7D5A5"/>
<path d="M69.6672 99.0429C69.6909 98.6571 69.5325 98.3322 69.3134 98.3172C69.0942 98.3021 68.8974 98.6027 68.8737 98.9885C68.8499 99.3743 69.0084 99.6992 69.2275 99.7142C69.4466 99.7293 69.6435 99.4287 69.6672 99.0429Z" fill="#D5A158"/>
<path d="M70.9836 99.134C71.0073 98.7482 70.8489 98.4233 70.6297 98.4083C70.4106 98.3933 70.2138 98.6938 70.19 99.0796C70.1663 99.4654 70.3247 99.7903 70.5439 99.8054C70.763 99.8204 70.9599 99.5198 70.9836 99.134Z" fill="#D5A158"/>
<path d="M73.4222 96.99C73.4222 96.99 72.7643 94.77 71.5667 94.535C71.3159 94.485 71.0745 94.665 71.0366 94.93C70.9893 95.23 71.0366 95.695 71.4484 96.305C71.917 96.33 72.6223 96.595 73.4222 96.99Z" fill="#D5A158"/>
<path d="M73.6541 97.165C73.6541 97.155 73.3228 94.945 71.7513 94.395C71.7513 94.395 73.1382 94.42 74.473 96.705C74.2458 97.02 73.9713 97.17 73.6541 97.165Z" fill="#EFC283"/>
<path d="M79.8169 104.775L78.2407 105.525C78.0703 105.605 77.9047 105.705 77.7485 105.815C77.2704 106.145 75.9735 106.835 74.9132 105.425C74.7523 105.21 74.8801 104.89 75.1404 104.875C75.6043 104.85 76.3947 104.75 76.5841 104.425L75.9309 104.04C75.8078 103.97 75.7699 103.8 75.8457 103.675C75.9025 103.58 76.0161 103.535 76.1202 103.57L76.9722 103.845C77.1805 103.91 77.4029 103.91 77.6112 103.835L79.1211 103.285" fill="#FDDEB3"/>
<path d="M78.4206 105.69C78.4206 105.69 86.7276 102.13 86.9737 101.93C89.7333 99.65 91.8301 96.765 91.8301 96.765L89.9699 94.62L88.2896 94.605L85.0851 99.49C84.981 99.7 77.2325 103.575 77.2325 103.575L78.4206 105.69Z" fill="#5E5B58"/>
<path d="M80.7985 96.5403C80.9222 96.5288 81.0185 96.4759 81.0135 96.4221L80.9834 96.0974C80.9784 96.0436 80.874 96.0093 80.7503 96.0208L75.224 96.5338C75.1003 96.5453 75.004 96.5982 75.009 96.652L75.0428 97.0152C75.0477 97.069 75.1521 97.1033 75.2758 97.0918L76.868 96.944C77.3778 96.8967 77.7765 96.9412 78.0268 97.0596L75.2964 97.313C75.1726 97.3245 75.0764 97.3774 75.0814 97.4312L75.1115 97.7559C75.1165 97.8097 75.2209 97.844 75.3446 97.8325L78.3085 97.5574C78.2197 97.8611 77.7373 98.0904 76.957 98.1628L75.3888 98.3084C75.265 98.3199 75.1688 98.3728 75.1738 98.4266L75.2137 98.8569C75.2162 98.8841 75.2448 98.9076 75.2924 98.9218L78.4887 99.8724C78.5316 99.8852 78.5867 99.8894 78.6431 99.8842L80.1845 99.7411C80.3884 99.7221 80.4762 99.6042 80.3207 99.558L77.3989 98.689C78.8253 98.5374 79.8071 98.0283 79.8849 97.411L80.8708 97.3195C80.9946 97.308 81.0908 97.2551 81.0858 97.2013L81.0557 96.8766C81.0507 96.8229 80.9463 96.7886 80.8226 96.8L79.7269 96.9017C79.6531 96.8141 79.5555 96.7355 79.4367 96.6667L80.7985 96.5403Z" fill="#F7960D"/>
<path d="M78.5531 137.05C92.5702 137.05 103.933 136.358 103.933 135.505C103.933 134.652 92.5702 133.96 78.5531 133.96C64.5361 133.96 53.173 134.652 53.173 135.505C53.173 136.358 64.5361 137.05 78.5531 137.05Z" fill="#EDEDED"/>
</svg>
