<svg width="1534" height="1843" viewBox="0 0 1534 1843" fill="none" xmlns="http://www.w3.org/2000/svg">
<g clip-path="url(#clip0_261_52)">
<path d="M453.549 1786.18L397.459 1783.29L402.393 1678.46L458.488 1681.35L453.549 1786.18Z" fill="#FFBF66"/>
<path d="M545.196 1824.57H394.625C394.306 1824.57 394.048 1824.26 394.048 1823.88V1810.71H545.767V1823.88C545.767 1824.26 545.509 1824.57 545.196 1824.57Z" fill="#DBDAD9"/>
<path d="M545.773 1815.42C545.49 1815.48 545.19 1815.51 544.877 1815.51H395.256C394.845 1815.51 394.447 1815.47 394.054 1815.39C391.017 1814.8 388.722 1812.02 388.722 1808.66V1756.17C388.722 1748.89 395.827 1744.02 402.245 1746.86C419.261 1754.4 436.797 1754.15 454.96 1744.98C457.285 1743.8 460.065 1744.21 461.949 1746.05L468.005 1751.98L468.22 1752.18L469.128 1753.08C470.208 1754.13 471.312 1755.12 472.447 1756.08C472.564 1756.19 472.687 1756.29 472.803 1756.38C478.375 1761.03 484.701 1764.61 491.475 1766.88C491.69 1766.96 491.917 1767.03 492.126 1767.09C493.604 1767.58 495.12 1768 496.636 1768.34C496.961 1768.41 497.292 1768.48 497.599 1768.57C497.623 1768.57 497.642 1768.57 497.654 1768.59C533.881 1777.24 546.141 1799.68 549.35 1808.94C550.368 1811.85 548.552 1814.87 545.773 1815.42Z" fill="#4D4539"/>
<path d="M473.533 1766.55C473.619 1767.77 472.736 1768.84 471.564 1768.94H471.337C470.257 1768.9 469.367 1768.02 469.281 1766.88L468.514 1756.39L468.22 1752.18L469.128 1753.07C470.208 1754.12 471.312 1755.11 472.447 1756.08C472.564 1756.18 472.687 1756.28 472.803 1756.37L473.533 1766.55Z" fill="#E7E4DF"/>
<path d="M472.441 1756.08L468.514 1756.39L458.494 1757.18C458.408 1757.2 458.322 1757.2 458.255 1757.2C457.193 1757.15 456.298 1756.28 456.212 1755.13C456.113 1753.92 456.991 1752.86 458.169 1752.74L468.011 1751.96L468.226 1752.17L469.134 1753.06C470.202 1754.12 471.306 1755.11 472.441 1756.08ZM497.654 1768.59L502.293 1777.88C502.833 1778.97 502.434 1780.32 501.385 1780.88C501.182 1780.98 500.986 1781.05 500.771 1781.1C499.875 1781.26 498.955 1780.82 498.519 1779.93L493.868 1770.6L492.126 1767.09C493.604 1767.58 495.12 1768 496.636 1768.34C496.961 1768.41 497.292 1768.48 497.599 1768.57L497.654 1768.59Z" fill="#E7E4DF"/>
<path d="M497.593 1768.57L493.862 1770.6L484.928 1775.46C484.732 1775.56 484.529 1775.63 484.315 1775.68C483.425 1775.84 482.498 1775.39 482.063 1774.51C481.51 1773.42 481.922 1772.07 482.959 1771.51L491.463 1766.88C491.678 1766.95 491.905 1767.02 492.113 1767.08C493.592 1767.57 495.108 1767.99 496.623 1768.33C496.955 1768.4 497.286 1768.48 497.593 1768.57Z" fill="#E7E4DF"/>
<path d="M670.223 1785.5L614.232 1790.11L606.354 1685.47L662.338 1680.87L670.223 1785.5Z" fill="#FFBF66"/>
<path d="M758.538 1824.57H607.967C607.648 1824.57 607.39 1824.26 607.39 1823.88V1810.71H759.109V1823.88C759.109 1824.26 758.851 1824.57 758.538 1824.57Z" fill="#DBDAD9"/>
<path d="M759.115 1815.42C758.833 1815.48 758.532 1815.51 758.219 1815.51H608.599C608.188 1815.51 607.789 1815.47 607.397 1815.39C604.359 1814.8 602.064 1812.02 602.064 1808.66V1756.17C602.064 1748.89 609.17 1744.02 615.588 1746.86C632.603 1754.4 650.14 1754.15 668.303 1744.98C670.628 1743.8 673.408 1744.21 675.291 1746.05L681.348 1751.98L681.562 1752.18L682.471 1753.08C683.551 1754.13 684.655 1755.12 685.79 1756.08C685.901 1756.19 686.029 1756.29 686.146 1756.38C691.718 1761.03 698.044 1764.61 704.818 1766.88C705.033 1766.96 705.26 1767.03 705.468 1767.09C706.941 1767.58 708.463 1768 709.978 1768.34C710.303 1768.41 710.635 1768.48 710.942 1768.57C710.966 1768.57 710.985 1768.57 710.997 1768.59C747.224 1777.24 759.484 1799.68 762.693 1808.94C763.711 1811.85 761.895 1814.87 759.115 1815.42Z" fill="#4D4539"/>
<path d="M686.882 1766.55C686.968 1767.77 686.084 1768.84 684.912 1768.94H684.685C683.605 1768.9 682.716 1768.02 682.63 1766.88L681.863 1756.39L681.568 1752.18L682.476 1753.07C683.556 1754.12 684.661 1755.11 685.796 1756.08C685.907 1756.18 686.035 1756.28 686.152 1756.37L686.882 1766.55Z" fill="#E7E4DF"/>
<path d="M685.784 1756.08L681.857 1756.39L671.837 1757.18C671.751 1757.2 671.665 1757.2 671.597 1757.2C670.536 1757.15 669.64 1756.28 669.554 1755.13C669.456 1753.92 670.333 1752.86 671.512 1752.74L681.348 1751.96L681.562 1752.17L682.47 1753.06C683.544 1754.12 684.655 1755.11 685.784 1756.08ZM710.997 1768.59L715.636 1777.88C716.176 1778.97 715.777 1780.32 714.727 1780.88C714.531 1780.98 714.329 1781.05 714.12 1781.1C713.23 1781.26 712.304 1780.82 711.868 1779.93L707.217 1770.6L705.474 1767.09C706.947 1767.58 708.469 1768 709.984 1768.34C710.309 1768.41 710.641 1768.48 710.948 1768.57L710.997 1768.59Z" fill="#E7E4DF"/>
<path d="M710.941 1768.57L707.211 1770.6L698.277 1775.46C698.074 1775.56 697.878 1775.63 697.663 1775.68C696.773 1775.84 695.847 1775.39 695.411 1774.51C694.859 1773.42 695.27 1772.07 696.301 1771.51L704.812 1766.88C705.026 1766.95 705.253 1767.02 705.462 1767.08C706.935 1767.57 708.456 1767.99 709.972 1768.33C710.297 1768.4 710.629 1768.48 710.941 1768.57Z" fill="#E7E4DF"/>
<path d="M609.342 900.313L648.459 908.503L680.262 1713.53H590.78L525.634 1065.9L472.675 1713.53H386.016L401.27 908.503L508.319 896.914L609.342 900.313Z" fill="#4D4539"/>
<path d="M1016.72 590.365C1013.42 591.102 1010.02 591.072 1006.67 590.49L1002.98 589.826L986.368 586.841L941.582 578.768L943.944 524.223L965.665 520.154C969.862 519.35 973.599 516.401 975.833 512.066L985.061 494.337C986.46 491.602 989.246 490.385 991.805 491.366C992.964 491.794 993.916 492.656 994.597 493.688C995.91 495.693 996.272 498.48 995.314 500.994L988.516 518.65C988.516 518.65 993.701 518.709 1000.33 517.293C1004.29 516.438 1007.83 516.261 1010.92 516.667C1043.23 520.847 1030.14 587.408 1016.72 590.365Z" fill="#FFBF66"/>
<path d="M643.574 483.375L952.246 514.514L948.392 589.834C785.702 580.81 789.341 583.796 648.201 566.435" fill="#F6B964"/>
<path d="M506.83 382.572L501.351 511.488L570.959 515.758L576.438 386.842L506.83 382.572Z" fill="#FFBF66"/>
<path d="M548.509 259.539L590.173 272.27C590.173 272.27 637.064 366.904 591.369 410.362C573.937 426.942 549.694 429.249 529.825 417.255C519.155 410.805 508.214 400.078 501.514 382.209L490.984 299.613L548.509 259.539Z" fill="#FFBF66"/>
<path d="M505.165 421.531L515.492 384.17C515.492 384.17 501.262 369.315 507.607 351.77C510.472 343.838 517.615 338.825 524.554 341.11C530.457 343.049 534.93 354.033 536.845 361.39L544.828 358.419C544.828 358.419 529.555 259.015 591.633 275.403C591.633 275.403 608.335 264.146 595.063 243.497C595.063 243.497 605.813 208.075 563.972 219.074C563.972 219.074 550.099 203.379 523.775 228.429C523.775 228.429 480.075 195.24 464.587 264.891C464.587 264.891 418.96 322.142 477.43 381.273C480.056 383.926 482.903 386.263 485.812 388.468C489.757 391.468 501.047 404.62 505.165 421.531Z" fill="#343433"/>
<path d="M390.974 814.038C390.949 834.407 389.581 857.858 389.108 878.448C388.82 891.806 388.562 908.562 388.139 921.869C388.826 922.105 442.78 938.677 518.068 941.876L537.618 481.79L531.439 488.491C530.224 487.186 517.13 473.024 509.49 455.221L481.657 460.669C432.404 471.292 396.214 522.151 395.134 582.248L390.974 814.038ZM518.087 941.891C593.204 947.884 653.294 935.522 654.036 935.389C655.546 907.375 656.159 879.583 656.435 851.481C656.797 817.046 657.583 783.26 655.717 748.774C653.999 717.443 651.275 684.881 656.374 653.756L643.58 483.367L595.106 467.621L567.862 458.789C558.775 475.59 544.521 488.071 543.208 489.228L537.624 481.775L518.087 941.891Z" fill="#F7960D"/>
<path d="M491.457 766.673L523.364 817.415L559.407 770.838L547.926 508.049L555.713 501.289L555.799 501.207L537.624 481.79L517.903 498.885L517.983 498.974L525.162 506.655L491.457 766.673Z" fill="#4D4539"/>
<path d="M543.116 489.302L555.523 505.815L560.879 512.936C586.522 486.124 595.247 467.797 595.247 467.797L595.106 467.643L574.01 443.713C572.661 448.977 570.452 454.056 567.868 458.811C558.763 475.59 544.539 488.07 543.214 489.221C543.146 489.28 543.116 489.302 543.116 489.302ZM531.531 488.594L517.786 503.5L511.859 509.936C488.622 480.123 481.498 460.831 481.498 460.831L481.651 460.691L504.398 439.452C505.3 444.856 507.331 450.201 509.484 455.243C517.124 473.046 530.218 487.208 531.439 488.513C531.5 488.557 531.531 488.594 531.531 488.594Z" fill="#FF5C00" fill-opacity="0.7"/>
<path d="M859.328 573.284C859.328 570.04 861.654 567.482 866.299 565.624C870.95 563.766 876.436 562.425 882.75 561.606C889.07 560.781 897.672 559.926 908.57 559.034V545.698C904.36 546.118 900.98 546.84 898.439 547.85C895.899 548.86 894.408 550.047 893.978 551.411H861.077C862.096 547.275 866.777 544.024 875.135 541.672C883.486 539.321 894.635 537.957 908.576 537.581V531.868H922.523V537.581C936.9 537.957 948.638 539.439 957.707 542.026C966.788 544.614 971.329 547.953 971.329 552.045C971.329 555.289 969.009 557.854 964.358 559.734C959.707 561.614 954.191 562.978 947.797 563.825C941.404 564.673 932.979 565.521 922.523 566.369V579.845C932.402 579.137 937.777 577.095 938.642 573.704H971.329C971.04 577.847 966.463 581.127 957.603 583.545C948.748 585.971 937.047 587.386 922.523 587.814V593.601H908.576V587.888C898.409 587.652 889.591 586.841 882.105 585.455C874.625 584.069 868.956 582.307 865.109 580.162C861.255 578.024 859.328 575.731 859.328 573.284ZM939.514 551.551C939.514 549.811 937.992 548.425 934.936 547.386C931.887 546.354 927.745 545.72 922.517 545.484V557.692C928.039 557.08 932.249 556.291 935.157 555.325C938.059 554.36 939.514 553.106 939.514 551.551ZM908.57 579.985V567.637C902.906 568.249 898.55 569.023 895.5 569.966C892.444 570.91 890.923 572.156 890.923 573.704C890.923 575.304 892.487 576.667 895.611 577.795C898.734 578.931 903.053 579.66 908.57 579.985Z" fill="#D68E28"/>
<path d="M849.737 595.016H1070.38C1053.09 574.028 1010.21 559.188 960.063 559.188C909.907 559.188 867.03 574.035 849.737 595.016Z" fill="#D68E28"/>
<path d="M841.569 595.016L841.573 632.045C841.573 663.236 894.618 688.515 960.066 688.515C1025.5 688.515 1078.56 663.236 1078.56 632.045V595.016H841.569Z" fill="#F7960D"/>
<path d="M841.569 595.016C841.569 626.207 894.618 651.493 960.063 651.493C1025.5 651.493 1078.56 626.207 1078.56 595.016C1078.56 563.825 1025.51 538.539 960.063 538.539C894.618 538.539 841.569 563.818 841.569 595.016Z" fill="#FFB031"/>
<path d="M865.813 595.016C865.813 617.906 908.01 636.454 960.062 636.454C1012.12 636.454 1054.31 617.899 1054.31 595.016C1054.31 572.126 1012.12 553.571 960.062 553.571C908.01 553.571 865.813 572.126 865.813 595.016Z" fill="#DD9726"/>
<path d="M926.635 605.565C926.635 602.321 928.023 599.771 930.796 597.905C933.572 596.048 936.843 594.706 940.616 593.88C944.389 593.055 949.524 592.199 956.029 591.307V577.971C953.517 578.399 951.498 579.114 949.982 580.124C948.466 581.134 947.576 582.321 947.319 583.685H927.679C928.287 579.549 931.082 576.298 936.071 573.946C941.056 571.595 947.711 570.231 956.033 569.855V564.142H964.359V569.855C972.941 570.231 979.948 571.713 985.362 574.3C990.783 576.888 993.493 580.227 993.493 584.319C993.493 587.562 992.109 590.128 989.332 592.008C986.556 593.888 983.263 595.251 979.446 596.099C975.633 596.947 970.6 597.795 964.359 598.643V612.119C970.256 611.411 973.465 609.369 973.981 605.978H993.493C993.321 610.121 990.588 613.401 985.299 615.819C980.014 618.245 973.029 619.668 964.359 620.088V625.875H956.033V620.161C949.964 619.926 944.697 619.115 940.232 617.729C935.767 616.343 932.382 614.573 930.085 612.436C927.781 610.305 926.635 608.005 926.635 605.565ZM974.498 583.832C974.498 582.092 973.589 580.706 971.765 579.667C969.945 578.635 967.472 578.001 964.351 577.765V589.973C967.648 589.361 970.161 588.572 971.893 587.607C973.633 586.641 974.498 585.38 974.498 583.832ZM956.026 612.266V599.918C952.645 600.53 950.044 601.304 948.224 602.247C946.403 603.191 945.491 604.437 945.491 605.985C945.491 607.585 946.425 608.949 948.29 610.077C950.154 611.204 952.733 611.934 956.026 612.266Z" fill="#D68E28"/>
<path d="M839.209 618.966H1063.09C1045.54 597.978 1002.03 583.138 951.151 583.138C900.261 583.138 856.755 597.978 839.209 618.966Z" fill="#D68E28"/>
<path d="M830.917 618.958V655.988C830.917 687.179 884.74 712.457 951.147 712.457C1017.54 712.457 1071.38 687.179 1071.38 655.988V618.958H830.917Z" fill="#F7960D"/>
<path d="M830.917 618.958C830.917 650.149 884.747 675.435 951.147 675.435C1017.55 675.435 1071.38 650.149 1071.38 618.958C1071.38 587.767 1017.55 562.474 951.147 562.474C884.747 562.481 830.917 587.767 830.917 618.958Z" fill="#FFB031"/>
<path d="M855.521 618.959C855.521 641.841 898.335 660.397 951.151 660.397C1003.96 660.397 1046.78 641.841 1046.78 618.959C1046.78 596.068 1003.96 577.513 951.151 577.513C898.335 577.521 855.521 596.076 855.521 618.959Z" fill="#FFA30F"/>
<path d="M917.229 629.507C917.229 626.264 918.638 623.713 921.451 621.848C924.268 619.99 927.587 618.649 931.415 617.83C935.24 617.005 940.454 616.149 947.054 615.25V601.914C944.505 602.334 942.457 603.057 940.918 604.067C939.38 605.077 938.477 606.264 938.213 607.627H918.285C918.902 603.492 921.737 600.241 926.799 597.889C931.858 595.537 938.61 594.174 947.058 593.798V588.084H955.506V593.798C964.214 594.174 971.323 595.655 976.82 598.243C982.321 600.83 985.067 604.17 985.067 608.261C985.067 611.505 983.662 614.071 980.845 615.95C978.028 617.83 974.687 619.194 970.814 620.042C966.945 620.89 961.843 621.737 955.506 622.585V636.061C961.489 635.354 964.745 633.311 965.269 629.92H985.067C984.893 634.063 982.12 637.344 976.753 639.762C971.39 642.187 964.303 643.61 955.506 644.03V649.817H947.058V644.104C940.9 643.868 935.555 643.057 931.021 641.671C926.491 640.285 923.061 638.523 920.727 636.378C918.396 634.248 917.229 631.955 917.229 629.507ZM965.797 607.775C965.797 606.035 964.872 604.649 963.024 603.61C961.177 602.578 958.669 601.944 955.502 601.708V613.916C958.843 613.304 961.397 612.515 963.155 611.549C964.916 610.591 965.797 609.33 965.797 607.775ZM947.058 636.216V623.868C943.628 624.48 940.985 625.254 939.138 626.197C937.291 627.141 936.366 628.387 936.366 629.935C936.366 631.535 937.313 632.899 939.205 634.027C941.097 635.154 943.713 635.884 947.058 636.216Z" fill="#ECEAE8"/>
<path d="M993.811 745.063C969.164 747.11 948.997 724.292 948.839 694.161L946.926 269.713C946.925 265.237 949.862 261.386 953.533 261.048C957.197 260.768 960.167 264.129 960.214 268.611L962.126 693.058C962.236 714.231 976.399 730.291 993.737 728.835C1011.07 727.38 1025.1 709.009 1024.99 687.836C1024.99 683.359 1027.93 679.508 1031.6 679.17C1035.26 678.89 1038.23 682.251 1038.28 686.733C1038.39 716.859 1018.46 743.016 993.811 745.063ZM954.307 107.315C950.643 107.595 947.674 104.234 947.627 99.7524L947.38 44.3521C947.379 39.8757 950.315 36.0245 953.987 35.6869C957.658 35.3493 960.62 38.7677 960.667 43.2494L960.914 98.6497C960.915 103.126 957.952 107.003 954.307 107.315Z" fill="#9F845D"/>
<path d="M1037.11 365.151C982.361 331.419 927.464 336.415 872.445 378.807C835.363 208.176 891.055 64.4183 952.507 59.7614C952.866 59.7151 953.218 59.7261 953.578 59.6798C1014.99 53.0999 1074.02 181.584 1037.11 365.151Z" fill="#D7973F"/>
<path d="M952.505 59.7603C907.023 63.5329 871.662 206.206 872.444 378.806C833.178 344.308 790.952 342.26 744.283 389.44C705.134 209.795 820.032 67.781 950.097 59.9802L952.505 59.7603ZM1165.27 354.516C1115.25 315.044 1073.84 326.286 1037.11 365.15C1036.35 193.889 998.566 58.4953 953.549 59.7048L954.074 59.6483C1081.27 48.0905 1196.99 170.648 1165.27 354.516Z" fill="#B57B2A"/>
<path d="M1265.78 346.169C1224.34 313.632 1190.66 315.58 1165.27 354.516C1164.49 183.369 1069.03 52.8576 954.075 59.6474C1124.06 48.0801 1264.99 174.934 1265.78 346.169ZM950.051 59.974C834.291 70.5666 743.484 217.36 744.237 389.434C718.539 350.493 683.882 359.423 643.749 397.754C642.995 225.128 778.291 74.2168 950.051 59.974Z" fill="#D7973F"/>
<path d="M829.03 721.529H1074.26C1055.03 702.76 1007.38 689.489 951.645 689.489C895.898 689.489 848.244 702.76 829.03 721.529Z" fill="#D68E28"/>
<path d="M819.947 721.529V754.644C819.947 782.537 878.901 805.143 951.64 805.143C1024.37 805.143 1083.33 782.537 1083.33 754.644V721.529H819.947Z" fill="#F7960D"/>
<path d="M819.947 721.529C819.947 749.422 878.905 772.035 951.64 772.035C1024.37 772.035 1083.33 749.422 1083.33 721.529C1083.33 693.636 1024.37 671.023 951.64 671.023C878.91 671.017 819.947 693.629 819.947 721.529Z" fill="#FFB031"/>
<path d="M846.892 721.529C846.892 741.999 893.788 758.586 951.64 758.586C1009.49 758.586 1056.39 741.992 1056.39 721.529C1056.39 701.065 1009.49 684.465 951.64 684.465C893.788 684.465 846.892 701.059 846.892 721.529Z" fill="#DD9726"/>
<path d="M914.49 730.963C914.49 728.062 916.033 725.781 919.115 724.113C922.201 722.452 925.836 721.252 930.029 720.52C934.218 719.782 939.929 719.017 947.159 718.22V706.294C944.367 706.676 942.123 707.315 940.438 708.219C938.753 709.122 937.764 710.183 937.479 711.403H915.646C916.322 707.704 919.428 704.797 924.973 702.694C930.513 700.591 937.91 699.371 947.159 699.035V693.926H956.412V699.035C965.95 699.371 973.738 700.696 979.759 703.01C985.784 705.324 988.796 708.311 988.796 711.97C988.796 714.871 987.253 717.165 984.172 718.846C981.086 720.527 977.426 721.747 973.184 722.505C968.947 723.263 963.353 724.021 956.416 724.779V736.83C962.971 736.204 966.537 734.371 967.115 731.339H988.8C988.609 735.044 985.572 737.977 979.69 740.14C973.815 742.309 966.056 743.581 956.416 743.957V749.132H947.163V744.023C940.418 743.812 934.564 743.087 929.601 741.847C924.639 740.608 920.882 739.032 918.325 737.114C915.769 735.195 914.49 733.145 914.49 730.963ZM967.689 711.521C967.689 709.966 966.675 708.726 964.652 707.797C962.629 706.874 959.881 706.3 956.412 706.096V717.013C960.076 716.466 962.869 715.761 964.794 714.897C966.724 714.04 967.689 712.913 967.689 711.521ZM947.159 736.956V725.913C943.402 726.46 940.507 727.152 938.488 727.996C936.465 728.84 935.451 729.954 935.451 731.339C935.451 732.769 936.489 733.989 938.561 734.998C940.634 736.006 943.499 736.659 947.159 736.956ZM818.694 677.372H1063.92C1044.7 658.603 997.044 645.332 941.309 645.332C885.563 645.325 837.909 658.603 818.694 677.372Z" fill="#D68E28"/>
<path d="M809.611 677.366V710.48C809.611 738.373 868.566 760.979 941.304 760.979C1014.03 760.979 1073 738.373 1073 710.48V677.366H809.611Z" fill="#F7960D"/>
<path d="M941.304 727.871C1014.04 727.871 1073 705.259 1073 677.366C1073 649.472 1014.04 626.86 941.304 626.86C868.572 626.86 809.611 649.472 809.611 677.366C809.611 705.259 868.572 727.871 941.304 727.871Z" fill="#FFB031"/>
<path d="M836.556 677.365C836.556 697.829 883.453 714.422 941.3 714.422C999.151 714.422 1046.05 697.829 1046.05 677.365C1046.05 656.895 999.151 640.302 941.3 640.302C883.453 640.308 836.556 656.902 836.556 677.365Z" fill="#DD9726"/>
<path d="M904.153 686.799C904.153 683.899 905.696 681.618 908.778 679.95C911.863 678.288 915.499 677.088 919.692 676.357C923.881 675.618 929.592 674.854 936.822 674.056V662.13C934.029 662.506 931.786 663.152 930.101 664.055C928.416 664.958 927.426 666.019 927.141 667.239H905.313C905.989 663.541 909.095 660.633 914.64 658.53C920.18 656.427 927.577 655.208 936.83 654.871V649.762H946.083V654.871C955.621 655.208 963.409 656.533 969.43 658.847C975.455 661.161 978.467 664.147 978.467 667.806C978.467 670.707 976.924 673.001 973.843 674.682C970.757 676.363 967.097 677.583 962.855 678.341C958.618 679.099 953.024 679.857 946.087 680.615V692.667C952.641 692.034 956.208 690.208 956.786 687.175H978.471C978.28 690.88 975.243 693.814 969.365 695.976C963.49 698.145 955.727 699.411 946.091 699.793V704.968H936.838V699.859C930.093 699.648 924.239 698.923 919.276 697.684C914.314 696.444 910.557 694.869 908 692.95C905.427 691.038 904.153 688.988 904.153 686.799ZM957.351 667.364C957.351 665.809 956.342 664.569 954.315 663.64C952.291 662.717 949.543 662.15 946.075 661.939V672.856C949.739 672.309 952.532 671.603 954.457 670.74C956.387 669.883 957.351 668.755 957.351 667.364ZM936.822 692.799V681.756C933.065 682.303 930.17 682.995 928.147 683.839C926.124 684.683 925.11 685.797 925.11 687.182C925.11 688.612 926.148 689.832 928.22 690.841C930.296 691.849 933.158 692.502 936.822 692.799Z" fill="#D68E28"/>
<path d="M829.03 633.208H1074.26C1055.03 614.439 1007.38 601.168 951.645 601.168C895.898 601.168 848.244 614.446 829.03 633.208Z" fill="#D68E28"/>
<path d="M819.947 633.208V666.323C819.947 694.216 878.902 716.822 951.64 716.822C1024.37 716.822 1083.33 694.216 1083.33 666.323V633.208H819.947Z" fill="#F7960D"/>
<path d="M819.947 633.208C819.947 661.102 878.905 683.714 951.64 683.714C1024.37 683.714 1083.33 661.102 1083.33 633.208C1083.33 605.315 1024.37 582.703 951.64 582.703C878.91 582.703 819.947 605.315 819.947 633.208Z" fill="#FFB031"/>
<path d="M846.892 633.208C846.892 653.678 893.789 670.265 951.64 670.265C1009.49 670.265 1056.39 653.672 1056.39 633.208C1056.39 612.739 1009.49 596.145 951.64 596.145C893.789 596.145 846.892 612.739 846.892 633.208Z" fill="#DD9726"/>
<path d="M914.489 642.642C914.489 639.741 916.032 637.46 919.113 635.792C922.199 634.131 925.834 632.931 930.027 632.199C934.216 631.467 939.928 630.696 947.158 629.892V617.966C944.365 618.342 942.122 618.988 940.437 619.891C938.751 620.794 937.762 621.855 937.477 623.075H915.645C916.321 619.377 919.427 616.469 924.971 614.366C930.512 612.263 937.909 611.044 947.158 610.707V605.598H956.411V610.707C965.949 611.044 973.736 612.369 979.757 614.683C985.782 616.997 988.795 619.983 988.795 623.642C988.795 626.543 987.252 628.837 984.17 630.518C981.084 632.199 977.425 633.419 973.183 634.177C968.945 634.935 963.352 635.693 956.415 636.451V648.503C962.969 647.87 966.535 646.044 967.113 643.011H988.799C988.607 646.716 985.571 649.65 979.688 651.812C973.814 653.981 966.055 655.253 956.415 655.629V660.804H947.162V655.695C940.416 655.484 934.562 654.759 929.6 653.52C924.637 652.28 920.88 650.705 918.324 648.786C915.767 646.881 914.489 644.831 914.489 642.642ZM967.687 623.207C967.687 621.651 966.673 620.412 964.65 619.482C962.627 618.559 959.879 617.986 956.411 617.781V628.699C960.075 628.151 962.867 627.446 964.793 626.582C966.722 625.719 967.687 624.598 967.687 623.207ZM947.158 648.634V637.592C943.4 638.139 940.506 638.831 938.487 639.675C936.463 640.519 935.45 641.633 935.45 643.018C935.45 644.448 936.488 645.668 938.56 646.676C940.632 647.692 943.498 648.344 947.158 648.634Z" fill="#D68E28"/>
<path d="M833.802 589.051H1079.03C1059.81 570.282 1012.15 557.011 956.417 557.011C900.67 557.011 853.016 570.282 833.802 589.051Z" fill="#D68E28"/>
<path d="M824.718 589.051V622.166C824.718 650.059 883.676 672.665 956.411 672.665C1029.14 672.665 1088.1 650.059 1088.1 622.166V589.051H824.718Z" fill="#F7960D"/>
<path d="M824.718 589.051C824.718 616.945 883.68 639.557 956.411 639.557C1029.14 639.557 1088.1 616.945 1088.1 589.051C1088.1 561.158 1029.15 538.539 956.411 538.539C883.68 538.539 824.718 561.152 824.718 589.051Z" fill="#FFB031"/>
<path d="M851.664 589.051C851.664 609.515 898.56 626.108 956.412 626.108C1014.26 626.108 1061.16 609.515 1061.16 589.051C1061.16 568.582 1014.26 551.988 956.412 551.988C898.56 551.988 851.664 568.582 851.664 589.051Z" fill="#FFA30F"/>
<path d="M1034.08 748.184C1031.04 749.865 1027.73 750.838 1024.36 751.251L1020.65 751.701L1003.94 753.684L958.867 759.028L950.049 705.449L970.28 695.113C974.182 693.101 977.207 689.149 978.49 684.276L983.828 664.379C984.632 661.312 987.074 659.315 989.762 659.506C990.976 659.58 992.075 660.133 992.946 660.944C994.627 662.499 995.542 665.094 995.131 667.815L992.136 686.93C992.136 686.93 997.18 685.471 1003.32 682.146C1006.99 680.148 1010.38 678.939 1013.46 678.423C1045.63 672.997 1046.5 741.372 1034.08 748.184Z" fill="#FFBF66"/>
<path d="M655.65 768.708C758.189 785.221 837.214 785.995 966.494 769.784L955.044 687.402C822.862 702.308 714.329 699.787 654.091 655.002C648.115 693.115 647.317 731.177 655.65 768.708Z" fill="#E0B272"/>
<path d="M990.327 557.519C991.682 557.37 992.737 556.683 992.682 555.985L992.352 551.771C992.298 551.073 991.154 550.627 989.798 550.776L929.247 557.434C927.891 557.583 926.836 558.27 926.891 558.968L927.26 563.682C927.315 564.381 928.458 564.826 929.814 564.677L947.26 562.759C952.846 562.144 957.214 562.722 959.957 564.258L930.039 567.548C928.683 567.697 927.629 568.384 927.683 569.082L928.014 573.296C928.068 573.994 929.212 574.439 930.567 574.29L963.044 570.719C962.07 574.661 956.785 577.638 948.235 578.578L931.051 580.467C929.696 580.616 928.641 581.303 928.696 582.001L929.133 587.586C929.161 587.939 929.474 588.244 929.996 588.428L965.018 600.766C965.488 600.932 966.092 600.986 966.709 600.918L983.599 599.061C985.833 598.816 986.795 597.285 985.092 596.685L953.077 585.406C968.706 583.439 979.463 576.831 980.316 568.82L991.119 567.632C992.475 567.483 993.53 566.796 993.475 566.098L993.145 561.884C993.09 561.186 991.947 560.741 990.591 560.89L978.585 562.21C977.776 561.073 976.707 560.053 975.405 559.16L990.327 557.519Z" fill="white" fill-opacity="0.84"/>
<g clip-path="url(#clip1_261_52)">
<path d="M1300.3 554.431C1300.3 554.431 1347.2 544.176 1358.52 558.328C1391 597.606 1228.59 727.745 1228.59 727.745C1229.74 663.239 1270.22 572.07 1300.3 554.431Z" fill="#FFBF66"/>
<path d="M1405.41 1697.27L1312.54 1698.2C1317.44 1730.23 1312.21 1762.85 1297.44 1792.34L1384.71 1788.54L1399.58 1774.08C1395.58 1748.4 1397.56 1722.24 1405.41 1697.27Z" fill="#FFE6CC"/>
<path d="M1147.96 1827.92L1409.07 1825.16C1409.96 1813.4 1409 1801.6 1406.21 1790.08C1405.04 1785.15 1403.51 1780.28 1401.64 1775.52C1401.41 1775.05 1401.02 1774.67 1400.52 1774.43C1400.03 1774.18 1399.45 1774.1 1398.89 1774.19L1286.01 1792.44C1284.9 1792.62 1283.77 1792.47 1282.77 1792.01C1281.78 1791.54 1280.98 1790.79 1280.52 1789.88C1280.02 1788.87 1279.95 1787.74 1280.31 1786.68C1280.66 1785.63 1281.43 1784.73 1282.46 1784.14L1309.68 1767.93C1310.71 1767.39 1311.47 1766.52 1311.81 1765.49C1312.14 1764.46 1312.03 1763.36 1311.49 1762.41C1310.95 1761.45 1310.03 1760.72 1308.9 1760.35C1307.78 1759.99 1306.55 1760.02 1305.45 1760.45L1238.77 1785.37C1215.08 1795.68 1190.62 1804.52 1165.57 1811.82C1161.12 1812.5 1157.01 1814.41 1153.85 1817.31C1150.68 1820.2 1148.62 1823.92 1147.96 1827.92Z" fill="#FFBF66"/>
<path d="M1317.92 1787.31C1316.65 1780.47 1312.96 1774.18 1307.4 1769.37L1282.23 1784.24C1281.14 1784.94 1280.39 1786 1280.16 1787.19C1279.92 1788.38 1280.22 1789.6 1280.98 1790.6C1281.53 1791.3 1282.3 1791.85 1283.19 1792.18C1284.08 1792.51 1285.06 1792.6 1286.01 1792.44L1317.92 1787.31ZM1147.96 1833.77V1827.93L1409.07 1825.16V1836.33C1409.07 1838.59 1406.33 1840.54 1402.78 1840.54L1162.6 1843C1154.59 1843.1 1147.96 1839 1147.96 1833.77Z" fill="#28221A"/>
<path d="M1228.02 1081.55C1236.14 1126.98 1235.68 1186.87 1244.83 1267.48C1249.98 1313.22 1263.82 1376.8 1268.51 1443.66C1278.8 1591.75 1281.55 1634.82 1302.82 1698.09C1320.55 1701.74 1338.75 1703.19 1356.92 1702.4C1374.43 1702.62 1391.92 1701.42 1409.19 1698.81C1435.61 1587.44 1434.35 1493.71 1434.12 1378.54C1434.12 1241.12 1479.18 1157.23 1454.59 1081.14L1228.02 1081.55Z" fill="#6A5E4D"/>
<path d="M1294.7 1697.58C1358.06 1717.58 1424.86 1695.43 1424.86 1695.43L1427.71 1654.41C1403.59 1658.09 1379.21 1660.22 1354.75 1660.77C1332.41 1660.68 1310.1 1659.31 1287.95 1656.66L1294.7 1697.58ZM1216.58 1105.85C1233.61 1135.49 1256.92 1161.86 1285.21 1183.49C1314.85 1207.95 1350.51 1225.79 1389.29 1235.58C1412.93 1240.78 1437.67 1240.43 1461.11 1234.56C1462.78 1234.24 1464.25 1233.38 1465.26 1232.16C1466.27 1230.93 1466.75 1229.41 1466.6 1227.89L1465.23 1220.71C1464.92 1219.85 1464.42 1219.05 1463.76 1218.36C1463.1 1217.67 1462.3 1217.1 1461.39 1216.69C1460.49 1216.28 1459.5 1216.03 1458.49 1215.97C1457.48 1215.9 1456.47 1216.02 1455.51 1216.3C1419.14 1224.61 1377.28 1213.74 1349.14 1198.97C1319.26 1183.48 1292.66 1163.37 1270.57 1139.59C1258.48 1126.7 1248.05 1112.63 1239.46 1097.65C1233.17 1086.68 1209.95 1094.78 1216.58 1105.85Z" fill="#383126"/>
<path d="M1375.68 547.355C1361.72 552.585 1302.48 572.891 1300.3 554.431L1302.93 451.879L1392.83 455.161C1392.83 455.161 1392.83 461.519 1392.83 472.8C1394.46 492.405 1399.44 511.67 1407.59 529.921C1408.39 532.075 1377.96 546.535 1375.68 547.355Z" fill="#F9E3CB"/>
<g style="mix-blend-mode:multiply" opacity="0.2">
<path d="M1301.33 513.513V499.053C1301.33 499.053 1355.09 492.798 1370.64 473.723C1370.99 473.723 1362.52 505.719 1301.33 513.513Z" fill="#9F845D"/>
</g>
<path d="M1390.32 454.853C1384.54 454.562 1378.99 452.781 1374.32 449.724C1369.66 446.667 1366.07 442.465 1364.01 437.624C1364.01 437.624 1338.39 345.327 1302.25 345.327C1259.36 344.302 1241.06 355.583 1236.6 393.63C1235.83 399.481 1233.76 405.135 1230.52 410.26C1227.28 415.384 1222.93 419.877 1217.73 423.472C1216.98 424.236 1216.51 425.188 1216.4 426.198C1216.28 427.208 1216.51 428.227 1217.06 429.114C1217.61 430.001 1218.45 430.714 1219.47 431.155C1220.49 431.595 1221.64 431.742 1222.76 431.574H1228.94C1229.28 431.56 1229.63 431.608 1229.95 431.714C1230.28 431.82 1230.58 431.982 1230.83 432.192C1231.09 432.401 1231.29 432.654 1231.44 432.935C1231.58 433.216 1231.67 433.52 1231.68 433.83C1233.63 455.161 1244.61 485.106 1252.15 490.131C1264.36 495.611 1277.74 498.688 1291.38 499.156C1355.43 502.54 1390.32 454.853 1390.32 454.853Z" fill="#FFE6CC"/>
<path d="M1251.7 413.627C1251.94 414.019 1252.28 414.355 1252.7 414.611C1253.11 414.867 1253.58 415.036 1254.08 415.105C1254.57 415.174 1255.08 415.142 1255.56 415.01C1256.04 414.879 1256.48 414.651 1256.84 414.345C1257.67 413.649 1258.21 412.724 1258.37 411.719C1258.54 410.714 1258.32 409.688 1257.76 408.807C1257.51 408.406 1257.16 408.059 1256.75 407.793C1256.33 407.527 1255.85 407.348 1255.35 407.27C1254.84 407.191 1254.32 407.215 1253.83 407.339C1253.34 407.463 1252.88 407.684 1252.5 407.987C1251.68 408.712 1251.16 409.661 1251.01 410.683C1250.87 411.706 1251.11 412.742 1251.7 413.627ZM1417.88 319.689C1400.61 297.846 1370.53 288.206 1332.1 292C1332.1 292 1290.01 298.256 1274.11 298.564L1261.65 344.61C1271.62 348.374 1280.82 353.608 1288.87 360.095C1299.34 370.79 1306.02 384.032 1308.08 398.142C1308.08 401.526 1308.77 406.038 1308.77 409.115V409.73C1318.37 423.062 1325.35 410.346 1325.47 410.448V405.218C1325.52 405.016 1325.52 404.805 1325.47 404.603C1325.47 404.603 1342.85 411.166 1344.22 420.396C1348.11 448.187 1373.27 474.338 1388.94 474.441C1423.25 474.441 1420.17 430.446 1435.61 394.348C1448.53 365.838 1435.15 341.328 1417.88 319.689Z" fill="#383126"/>
<path d="M1360.24 411.269C1359.86 413.216 1359.06 415.078 1357.88 416.745C1356.7 418.412 1355.16 419.85 1353.35 420.977C1351.54 422.104 1349.49 422.895 1347.34 423.306C1345.18 423.717 1342.96 423.739 1340.79 423.37C1336.46 422.766 1332.53 420.744 1329.76 417.695C1327 414.646 1325.59 410.785 1325.81 406.859C1325.82 404.839 1326.28 402.841 1327.16 400.98C1328.03 399.119 1329.31 397.43 1330.91 396.011C1332.52 394.593 1334.42 393.471 1336.51 392.71C1338.59 391.95 1340.83 391.565 1343.08 391.579C1345.78 391.546 1348.45 392.073 1350.88 393.119C1353.31 394.165 1355.44 395.701 1357.1 397.608C1358.77 399.514 1359.91 401.739 1360.46 404.109C1361 406.479 1360.92 408.929 1360.24 411.269Z" fill="#FDDEB3"/>
<g style="mix-blend-mode:multiply" opacity="0.5">
<path d="M1346.51 408.295C1346.36 407.62 1346.02 406.992 1345.52 406.471C1345.01 405.95 1344.37 405.554 1343.65 405.321C1342.9 405.163 1342.12 405.163 1341.36 405.321C1342.15 403.713 1343.42 402.33 1345.02 401.321C1345.82 401.321 1345.02 399.68 1344.22 400.193C1342.26 401.434 1340.72 403.137 1339.76 405.116C1339.08 407.365 1339.08 409.737 1339.76 411.987C1339.76 412.909 1341.36 411.987 1341.25 411.987C1340.85 410.331 1340.85 408.617 1341.25 406.961H1343.65V407.679C1343.58 407.737 1343.52 407.808 1343.48 407.888C1343.44 407.967 1343.42 408.054 1343.42 408.141C1343.42 408.228 1343.44 408.314 1343.48 408.394C1343.52 408.474 1343.58 408.545 1343.65 408.602C1343.81 408.719 1344.02 408.782 1344.22 408.782C1344.43 408.782 1344.63 408.719 1344.79 408.602C1345.38 408.586 1345.96 408.482 1346.51 408.295Z" fill="#9F845D"/>
</g>
<path d="M1274.91 396.604C1264.88 394.964 1254.66 394.482 1244.49 395.168C1242.97 395.263 1241.48 394.814 1240.33 393.92C1239.18 393.026 1238.48 391.759 1238.37 390.399C1238.27 389.039 1238.77 387.697 1239.76 386.668C1240.76 385.639 1242.17 385.008 1243.69 384.913C1256.07 384.436 1268.4 386.543 1279.72 391.066C1286.35 393.527 1285.21 399.68 1274.91 396.604Z" fill="#383126"/>
<path d="M1248.61 343.483C1242.2 340.122 1237.04 335.134 1233.78 329.148C1230.52 323.163 1229.32 316.446 1230.31 309.846C1231.45 300.309 1232.71 286.567 1248.61 282.978C1255.01 281.439 1279.6 260.826 1298.93 263.493C1316.32 265.954 1326.5 276.107 1344.68 280.106C1373.73 286.259 1388.14 294.874 1388.94 304.308C1389.74 313.743 1384.14 321.742 1391.46 333.536C1399.58 347.175 1407.59 349.329 1411.02 360.199C1412.85 366.045 1408.39 366.66 1400.27 386.35C1394.09 401.118 1397.98 411.475 1392.37 413.732C1380.94 418.244 1374.53 404.707 1364.47 402.861C1355.48 401.234 1347.05 397.719 1339.88 392.606C1332.56 383.479 1344.79 373.018 1338.62 367.378C1332.44 361.738 1315.74 373.018 1292.87 367.891C1279.15 365.122 1261.65 365.84 1257.76 362.353C1245.06 352.303 1256.73 348.098 1248.61 343.483Z" fill="#383126"/>
<path d="M1235.8 455.058C1235.88 455.83 1236.07 456.588 1236.37 457.315C1236.41 457.964 1236.41 458.614 1236.37 459.263C1236.37 459.776 1236.37 461.109 1236.37 461.109C1252.27 465.211 1258.67 453.418 1255.81 454.341C1249.3 455.978 1242.44 456.224 1235.8 455.058Z" fill="white"/>
<path d="M1309 404.295L1270.57 402.244C1269.69 399.246 1267.89 396.527 1265.39 394.39C1262.89 392.253 1259.77 390.782 1256.39 390.143C1251.01 390.045 1245.78 391.779 1241.77 394.994C1237.76 398.21 1235.26 402.67 1234.77 407.474H1232.48C1231.68 408.599 1230.96 409.763 1230.31 410.961H1234.2C1233.46 415.552 1234.62 420.226 1237.47 424.099C1240.31 427.973 1244.64 430.778 1249.64 431.984C1255.3 432.015 1260.75 430.076 1264.84 426.576C1268.94 423.075 1271.36 418.286 1271.6 413.217C1272 410.666 1272 408.077 1271.6 405.526L1309.34 407.577L1309 404.295ZM1250.21 428.497C1245.74 427.368 1241.94 424.723 1239.62 421.124C1237.29 417.525 1236.62 413.254 1237.74 409.218C1237.92 405.056 1239.91 401.123 1243.29 398.265C1246.67 395.408 1251.17 393.854 1255.81 393.937C1260.27 395.044 1264.07 397.669 1266.4 401.252C1268.73 404.834 1269.4 409.092 1268.28 413.115C1268.07 417.277 1266.07 421.205 1262.7 424.074C1259.33 426.942 1254.86 428.528 1250.21 428.497Z" fill="#FFBF66"/>
<mask id="mask0_261_52" style="mask-type:luminance" maskUnits="userSpaceOnUse" x="1158" y="510" width="334" height="640">
<path d="M1399.58 510.437C1399.58 510.437 1314.6 568.789 1289.78 618.527C1262.33 673.495 1229.74 699.543 1222.07 756.049C1210.64 836.86 1201.49 854.089 1192.11 936.028C1180.67 1038.58 1172.89 1079.6 1158.48 1126.37C1158.48 1126.37 1258.67 1149.34 1337.36 1149.34C1474.61 1149.34 1491.65 1104.21 1491.65 1104.21C1486.27 1048.32 1488.22 1015.92 1487.07 896.751C1486.04 794.199 1481.13 761.997 1473.92 653.497C1470.38 600.58 1470.72 535.152 1399.58 510.437Z" fill="white"/>
</mask>
<g mask="url(#mask0_261_52)">
<path d="M1391.4 510.437C1391.4 510.437 1299.02 566.139 1272.03 613.619C1242.19 666.091 1206.75 690.957 1198.42 744.898C1185.99 822.04 1176.04 838.487 1165.85 916.706C1153.41 1014.6 1144.96 1053.76 1129.29 1098.4C1129.29 1098.4 1238.21 1120.33 1323.76 1120.33C1472.97 1120.33 1491.5 1077.26 1491.5 1077.26C1485.65 1023.9 1487.77 992.967 1486.52 879.211C1485.4 781.315 1480.06 750.576 1472.22 647.002C1468.37 596.487 1468.74 534.029 1391.4 510.437Z" fill="#F7960D"/>
<path opacity="0.15" d="M1265.57 569.664C1268.45 573.532 1272.45 576.809 1277.25 579.225C1282.05 581.642 1287.5 583.129 1293.17 583.565C1295.53 583.565 1295.53 580.726 1293.17 580.628C1288.05 580.284 1283.1 578.964 1278.77 576.781C1274.44 574.598 1270.85 571.617 1268.3 568.097C1266.94 566.629 1263.7 568.097 1265.07 569.664H1265.57Z" fill="#28221A"/>
<path d="M1256.74 1038.1C1257.42 1038.98 1258.36 1039.71 1259.47 1040.25L1262.71 1042.11C1264.92 1043.25 1267.2 1044.29 1269.55 1045.24C1270 1045.42 1270.51 1045.46 1271 1045.35C1271.48 1045.25 1271.9 1045 1272.16 1044.66C1272.29 1044.49 1272.37 1044.31 1272.4 1044.12C1272.43 1043.92 1272.41 1043.73 1272.34 1043.55C1272.27 1043.36 1272.15 1043.19 1271.99 1043.04C1271.83 1042.9 1271.63 1042.78 1271.41 1042.7C1269.23 1041.81 1267.11 1040.83 1265.07 1039.76C1263.99 1039.26 1262.95 1038.71 1261.96 1038.1H1260.84H1260.22C1260.11 1037.93 1259.95 1037.78 1259.76 1037.67C1259.57 1037.55 1259.35 1037.47 1259.11 1037.42C1258.88 1037.38 1258.64 1037.37 1258.4 1037.4C1258.16 1037.43 1257.94 1037.5 1257.73 1037.61C1257.32 1037.83 1257.03 1038.16 1256.92 1038.54C1256.8 1038.92 1256.87 1039.32 1257.11 1039.66L1256.74 1038.1Z" fill="#C6862C"/>
<path d="M1326.25 651.505C1347.89 656.426 1370.08 659.704 1392.52 661.295C1403.83 662.078 1415.27 662.371 1426.59 662.274C1436.93 662.84 1447.32 662.013 1457.3 659.826C1459.79 658.945 1458.67 655.714 1456.06 656.498C1446.08 658.715 1435.68 659.51 1425.35 658.847C1414.39 658.961 1403.43 658.634 1392.52 657.868C1370.47 656.438 1348.65 653.323 1327.37 648.568C1326.86 648.55 1326.35 648.671 1325.94 648.909C1325.53 649.147 1325.23 649.489 1325.1 649.878C1324.97 650.266 1325.02 650.678 1325.22 651.046C1325.43 651.413 1325.79 651.713 1326.25 651.897V651.505ZM1317.67 737.36C1340.47 742.236 1364.04 744.543 1387.67 744.213C1411.85 744.674 1436.04 743.363 1459.91 740.297C1462.65 740.297 1461.53 736.675 1458.79 737.066C1435.27 739.967 1411.47 741.212 1387.67 740.786C1364.42 741.149 1341.22 738.874 1318.79 734.031C1318.28 734.014 1317.77 734.134 1317.36 734.372C1316.95 734.61 1316.65 734.952 1316.52 735.341C1316.39 735.73 1316.44 736.142 1316.64 736.509C1316.85 736.876 1317.21 737.176 1317.67 737.36ZM1305.85 819.984C1354.22 831.215 1404.8 835.362 1455.06 832.221C1457.8 832.221 1457.8 828.697 1455.06 828.795C1405.3 831.879 1355.23 827.764 1307.35 816.656C1306.84 816.638 1306.33 816.758 1305.92 816.997C1305.51 817.235 1305.22 817.577 1305.08 817.965C1304.95 818.354 1305 818.766 1305.2 819.133C1305.41 819.501 1305.77 819.801 1306.23 819.984H1305.85ZM1288.94 908.678C1335.93 919.583 1384.57 925.477 1433.55 926.202C1436.41 926.202 1436.41 922.873 1433.55 922.775C1384.94 922.083 1336.68 916.222 1290.06 905.35C1287.33 904.664 1286.21 907.993 1288.94 908.678ZM1273.03 978.576C1313.97 990.658 1357.26 997.051 1400.98 997.47C1403.71 997.47 1403.83 994.141 1400.98 994.044C1357.63 993.647 1314.71 987.286 1274.15 975.247C1271.54 974.464 1270.42 977.793 1273.03 978.576ZM1139.49 1049.26C1193.93 1066.05 1251.99 1074.39 1310.45 1073.83C1371.56 1076.21 1432.76 1071.09 1491.87 1058.65C1494.6 1057.97 1493.36 1054.64 1490.75 1055.33C1434.03 1067.27 1375.34 1072.39 1316.67 1070.5C1257.19 1071.43 1198.05 1063.19 1142.59 1046.22C1139.98 1045.44 1137.75 1048.38 1140.36 1049.26H1139.49ZM1155.15 987.485C1191.77 994.559 1229.35 998.077 1267.06 997.959C1269.8 997.959 1269.8 994.631 1267.06 994.533C1230.07 994.562 1193.2 991.078 1157.27 984.156C1156.76 984.138 1156.25 984.259 1155.84 984.497C1155.43 984.735 1155.14 985.077 1155.01 985.466C1154.87 985.854 1154.92 986.266 1155.12 986.634C1155.33 987.001 1155.69 987.301 1156.15 987.485H1155.15ZM1405.7 995.806C1433.54 996.938 1461.44 994.861 1488.51 989.638C1491.25 989.638 1490 985.82 1487.39 986.408C1460.68 991.52 1433.15 993.532 1405.7 992.379C1402.96 992.379 1402.96 995.708 1405.7 995.806ZM1163.36 916.999C1202.67 923.502 1242.69 926.945 1282.85 927.278C1283.34 927.186 1283.77 926.966 1284.09 926.656C1284.4 926.345 1284.57 925.961 1284.57 925.565C1284.57 925.17 1284.4 924.785 1284.09 924.475C1283.77 924.164 1283.34 923.945 1282.85 923.852C1243.12 923.68 1203.51 920.4 1164.6 914.062C1161.87 913.573 1160.62 916.901 1163.36 917.391V916.999ZM1433.55 932.663C1452.62 934.353 1471.87 934.155 1490.87 932.075C1493.73 932.075 1492.49 928.453 1489.75 928.747C1470.97 930.607 1451.96 930.607 1433.18 928.747C1430.44 928.747 1430.44 931.977 1433.18 932.173L1433.55 932.663ZM1179.03 830.851C1218.53 838.115 1258.69 842.959 1299.14 845.339C1302 845.339 1302 842.109 1299.14 841.913C1259.02 839.571 1219.19 834.759 1180.02 827.522C1177.29 827.033 1176.17 830.361 1178.9 830.851H1179.03ZM1452.7 854.737C1463.51 856.628 1474.63 857.157 1485.65 856.304C1488.39 856.304 1488.51 852.682 1485.65 852.877C1474.93 853.681 1464.11 853.186 1453.57 851.409C1450.84 851.409 1449.72 854.248 1452.45 854.737H1452.7ZM1190.71 763.988C1209.65 768.368 1228.98 771.64 1248.53 773.777C1269.05 775.931 1289.81 776.616 1310.7 777.301C1313.44 777.301 1313.44 773.973 1310.7 773.875C1290.81 773.19 1270.91 772.505 1251.14 770.547C1231.28 768.258 1211.66 764.79 1192.46 760.17C1191.95 760.152 1191.44 760.272 1191.03 760.511C1190.62 760.749 1190.32 761.091 1190.19 761.479C1190.06 761.868 1190.11 762.28 1190.31 762.647C1190.52 763.014 1190.88 763.315 1191.34 763.498L1190.71 763.988ZM1460.66 782.196C1468.37 782.196 1475.95 782.196 1483.66 782.196C1486.4 782.196 1486.4 778.672 1483.66 778.77C1475.95 778.77 1468.37 778.77 1460.66 778.77C1457.92 778.77 1457.92 782.098 1460.66 782.196ZM1221.3 683.027C1252.97 691.759 1286.03 696.934 1319.53 698.397C1322.27 698.397 1322.27 695.069 1319.53 694.971C1286.41 693.483 1253.72 688.342 1222.42 679.699C1219.81 679.014 1218.57 682.244 1221.3 683.027ZM1462.4 706.62C1467.43 706.783 1472.47 706.553 1477.44 705.935C1477.98 705.78 1478.43 705.476 1478.71 705.079C1478.98 704.683 1479.06 704.222 1478.94 703.781C1478.76 703.344 1478.38 702.977 1477.87 702.758C1477.36 702.538 1476.76 702.484 1476.2 702.607C1471.64 703.195 1467.01 703.392 1462.4 703.194C1461.83 703.219 1461.29 703.416 1460.9 703.744C1460.5 704.071 1460.28 704.505 1460.29 704.956C1460.27 705.179 1460.31 705.401 1460.41 705.61C1460.51 705.818 1460.66 706.007 1460.86 706.165C1461.06 706.322 1461.3 706.445 1461.57 706.523C1461.83 706.602 1462.12 706.635 1462.4 706.62ZM1274.52 593.061C1282.92 598.652 1291.86 603.724 1301.25 608.235C1310.17 613.099 1319.82 617.078 1329.98 620.08C1332.59 620.766 1333.83 617.535 1331.1 616.752C1321.32 613.799 1312.01 609.955 1303.37 605.298C1294.34 600.894 1285.7 596.021 1277.5 590.711C1275.52 589.243 1272.41 591.593 1274.52 593.061ZM1447.6 592.767C1454.27 592.881 1460.92 592.086 1467.25 590.418C1467.79 590.283 1468.24 590.002 1468.54 589.625C1468.84 589.248 1468.95 588.8 1468.87 588.362C1468.69 587.925 1468.31 587.557 1467.8 587.338C1467.29 587.119 1466.69 587.065 1466.13 587.187C1460.16 588.736 1453.89 589.465 1447.6 589.341C1444.74 589.341 1444.74 592.669 1447.6 592.767Z" fill="#FAF4EC"/>
<path d="M1435.42 917.88C1440.7 949.418 1442.82 981.235 1441.76 1013.04C1440.95 1028.88 1441.57 1044.74 1443.62 1060.51C1447.77 1075.51 1450.52 1090.72 1451.83 1106.04C1451.95 1106.42 1452.23 1106.76 1452.62 1107.01C1453.02 1107.25 1453.5 1107.39 1454.01 1107.39C1454.51 1107.39 1455 1107.25 1455.39 1107.01C1455.79 1106.76 1456.07 1106.42 1456.18 1106.04C1454.51 1089.6 1451.6 1073.26 1447.48 1057.09C1445.78 1041.27 1445.32 1025.38 1446.11 1009.51C1447.09 978.617 1444.88 947.711 1439.52 917.097C1439.52 914.943 1434.92 915.824 1435.42 917.978V917.88ZM1356.46 1055.33C1359.78 1077.46 1358.98 1099.85 1354.1 1121.8C1354.1 1123.95 1358.08 1123.95 1358.45 1121.8C1363.54 1099.54 1364.42 1076.81 1361.06 1054.35C1361.06 1052.19 1356.34 1053.17 1356.83 1055.33H1356.46ZM1336.82 535.498C1326.99 572.209 1306.85 606.277 1290.81 641.422C1275.08 678.078 1263.87 715.846 1257.36 754.198C1241.69 832.515 1232.49 911.713 1226.9 990.911C1223.42 1036.43 1220.81 1082.05 1218.07 1127.97C1218.07 1130.12 1222.3 1130.12 1222.42 1127.97C1222.42 1123.17 1223.04 1118.18 1223.29 1113.57C1223.29 1111.42 1219.06 1111.42 1218.94 1113.57C1218.94 1118.37 1218.94 1123.36 1218.07 1127.97H1222.42C1228.39 1026.45 1234.23 924.831 1249.53 823.802C1255.74 772.935 1266.8 722.508 1282.6 672.944C1298.89 626.639 1328.48 583.859 1340.92 536.673C1340.92 534.519 1337.31 533.638 1336.82 535.792V535.498ZM1150.68 1107.5C1150.68 1049.16 1150.26 990.845 1149.43 932.565C1149.32 932.18 1149.04 931.838 1148.64 931.593C1148.25 931.348 1147.76 931.215 1147.26 931.215C1146.76 931.215 1146.27 931.348 1145.87 931.593C1145.48 931.838 1145.2 932.18 1145.08 932.565C1145.08 990.845 1145.5 1049.16 1146.32 1107.5C1146.44 1107.89 1146.72 1108.23 1147.12 1108.48C1147.51 1108.72 1148 1108.85 1148.5 1108.85C1149 1108.85 1149.49 1108.72 1149.89 1108.48C1150.28 1108.23 1150.56 1107.89 1150.68 1107.5ZM1309.34 1062.47C1326.12 1058.65 1326.99 1033.1 1329.98 1022.34C1336.19 1000.5 1342.41 978.674 1347.01 956.745C1357.95 910.44 1367.15 863.939 1376.23 817.439C1384.52 772.994 1393.14 728.516 1402.09 684.006C1410.05 643.086 1417.76 601.382 1404.33 560.657C1404.1 560.299 1403.72 560.015 1403.25 559.852C1402.79 559.688 1402.26 559.655 1401.77 559.758C1401.27 559.861 1400.84 560.093 1400.54 560.417C1400.24 560.741 1400.08 561.137 1400.1 561.538C1414.16 604.025 1404.83 647.393 1396.62 689.978C1388.91 729.854 1381.16 769.698 1373.37 809.509C1365.41 850.43 1357.46 891.448 1348.5 932.271C1343.9 952.633 1339.05 973.094 1333.71 993.358C1330.85 1004.22 1327.86 1015.19 1324.75 1026.06C1322.27 1034.38 1320.78 1056.4 1308.34 1059.14C1307.87 1059.33 1307.5 1059.64 1307.29 1060.02C1307.08 1060.4 1307.04 1060.82 1307.19 1061.22C1307.34 1061.62 1307.66 1061.96 1308.1 1062.19C1308.54 1062.42 1309.06 1062.52 1309.58 1062.47H1309.34Z" fill="#FBF5ED"/>
<path d="M1380.17 544.012C1348.08 572.171 1334.14 609.142 1328.1 646.62C1321.06 689.771 1320.2 733.428 1314.52 776.679C1302.18 868.754 1281.33 959.916 1259.98 1050.88C1259.98 1052.8 1263.07 1053.61 1263.56 1051.69C1283.43 966.905 1302.92 882.023 1315.39 796.229C1321.68 753.078 1324.39 709.725 1329.21 666.474C1334.02 623.222 1345.49 578.957 1382.76 546.24C1384.49 544.822 1381.77 542.594 1380.17 544.012ZM1447.66 611.675C1458.86 649.166 1463.51 687.772 1461.48 726.337C1460.86 765.335 1459.51 804.433 1454.82 843.329C1450.51 882.739 1440.74 921.616 1425.7 959.207C1411.01 994.659 1393.12 1029.1 1376.96 1064.04C1376.09 1065.87 1379.67 1066.68 1380.54 1064.85C1396.95 1029.2 1415.33 993.95 1429.89 957.89C1444.55 920.697 1454.07 882.269 1458.27 843.329C1463.09 803.623 1464.44 763.714 1464.94 724.007C1466.87 685.941 1462.17 647.843 1450.99 610.864C1450.93 610.672 1450.82 610.491 1450.67 610.333C1450.52 610.175 1450.33 610.043 1450.12 609.945C1449.69 609.745 1449.19 609.693 1448.71 609.801C1448.24 609.908 1447.83 610.166 1447.59 610.518C1447.35 610.869 1447.28 611.285 1447.42 611.675H1447.66Z" fill="#C6862C"/>
<path d="M1349.25 1056.31C1358.57 1055.66 1367.76 1054.12 1376.6 1051.7C1378.84 1051.12 1377.97 1048.28 1375.61 1048.87C1367.09 1051.21 1358.24 1052.72 1349.25 1053.37C1346.89 1053.37 1346.89 1056.5 1349.25 1056.31Z" fill="#C6862C"/>
</g>
<path d="M1290.24 1069.14C1287.72 1074.17 1285.89 1078.27 1277.32 1093.24C1263.36 1117.24 1250.9 1130.06 1252.73 1132.72C1257.53 1137.95 1276.29 1128.21 1281.66 1122.47C1281.66 1122.47 1280.75 1133.95 1280.4 1151.8C1280.4 1166.98 1282.81 1182.56 1287.61 1182.56C1290.7 1182.56 1296.19 1178.05 1296.19 1178.05C1296.87 1181.85 1300.42 1187.18 1303.62 1187.28C1310.6 1187.28 1313.11 1178.15 1313.11 1178.15C1315.17 1181.95 1319.52 1185.03 1322.95 1184.51C1330.73 1183.28 1331.87 1166.46 1331.87 1166.46C1332.39 1167.38 1333.12 1168.19 1334 1168.84C1334.89 1169.49 1335.92 1169.98 1337.02 1170.26C1342.85 1171.18 1345.71 1159.28 1347.54 1146.06C1348.8 1137.65 1351.89 1128.11 1353.49 1110.37C1354.09 1100.25 1356.01 1090.24 1359.21 1080.52C1335.56 1081.37 1312 1077.48 1290.24 1069.14Z" fill="#FFE6CC"/>
<path opacity="0.5" d="M1296.09 1175.17C1294.21 1166.98 1293.76 1158.62 1294.74 1150.38C1296.41 1142.66 1298.42 1135.05 1300.9 1127.47C1300.92 1126.54 1299.44 1126.07 1299.18 1127.39C1296.54 1135.51 1294.39 1143.78 1292.75 1152.14C1291.97 1160.06 1292.51 1168.07 1294.35 1175.91C1294.33 1176.94 1296.18 1175.99 1296.07 1175.99L1296.09 1175.17ZM1312.87 1176.64C1311.24 1162.78 1312.98 1148.85 1317.97 1135.82C1318 1134.9 1316.63 1134.43 1316.26 1135.75C1311.28 1148.78 1309.54 1162.7 1311.16 1176.56C1311.13 1177.59 1313.08 1177.67 1312.87 1176.64ZM1332.45 1166.54C1331.71 1155.53 1333.53 1144.56 1337.81 1134.35C1337.75 1134.19 1337.63 1134.05 1337.48 1133.95C1337.33 1133.85 1337.15 1133.79 1336.96 1133.78C1336.78 1133.77 1336.59 1133.81 1336.44 1133.9C1336.28 1133.99 1336.16 1134.12 1336.09 1134.28C1331.81 1144.49 1329.95 1155.44 1330.63 1166.45C1330.6 1167.48 1332.43 1167.56 1332.34 1166.53L1332.45 1166.54Z" fill="#9F845D"/>
<path opacity="0.15" d="M1281.32 576.378C1287.74 583.63 1296.97 588.46 1307.17 589.915C1307.61 590.008 1308.07 589.941 1308.45 589.73C1308.84 589.519 1309.12 589.18 1309.23 588.787C1309.29 588.598 1309.32 588.399 1309.3 588.201C1309.28 588.004 1309.21 587.812 1309.1 587.639C1309 587.465 1308.85 587.314 1308.67 587.194C1308.5 587.073 1308.3 586.987 1308.08 586.941C1298.46 585.612 1289.76 581.069 1283.72 574.224C1283.4 573.942 1282.97 573.784 1282.52 573.784C1282.07 573.784 1281.64 573.942 1281.32 574.224C1281.15 574.359 1281.01 574.525 1280.92 574.71C1280.82 574.896 1280.78 575.097 1280.78 575.301C1280.78 575.505 1280.82 575.706 1280.92 575.892C1281.01 576.077 1281.15 576.243 1281.32 576.378Z" fill="#28221A"/>
</g>
</g>
<defs>
<clipPath id="clip0_261_52">
<rect width="1534" height="1843" fill="white"/>
</clipPath>
<clipPath id="clip1_261_52">
<rect width="345.404" height="1579.71" fill="white" transform="translate(1147.96 263.286)"/>
</clipPath>
</defs>
</svg>
