<svg xmlns="http://www.w3.org/2000/svg" enable-background="new 0 0 3000 3000" viewBox="0 0 3000 3000"><path fill="#f7960d" d="M865.2,203.3c0,0-57.7-69.3-104.9-53.1c0,0,16.4,7.4,21.4,25c0,0-26.1-31.9-67.9-22.2      c0,0-1.6,21.8,34.1,43.2c0,0-20.8,3.9-26.4-9.1c0,0-8.3,13.5,20,34.5c0,0-10.9-1.4-17-6.8c0,0,18.4,38.8,112.8,86.3l57.5-83.7      L865.2,203.3z" class="colore25651 svgShape"/><path fill="#ffbf66" d="M865.2,217.6c0,0-43.7-52.6-79.6-40.3c0,0,12.4,5.6,16.2,18.9c0,0-19.8-24.2-51.5-16.8      c0,0-1.2,16.6,25.9,32.8c0,0-15.8,3-20-6.9c0,0-6.3,10.2,15.2,26.1c0,0-8.3-1.1-12.9-5.2c0,0,13.9,29.4,85.6,65.4l43.6-63.5      L865.2,217.6z" class="colorfabc3f svgShape"/><path fill="#ffa30f" d="M896.9 214.5l51.9-71.6c3-4.1 8.7-5 12.8-2l31.2 22.6c6.3 4.6 10.7 11.4 12.2 19.1l24.8 128.1L896.9 214.5zM833.5 310.8l-51.9 71.6c-3 4.1-2.1 9.8 2 12.8l31.2 22.6c6.3 4.6 14.2 6.6 22 5.6l129.4-16.3L833.5 310.8z" class="colorcd3e3e svgShape"/><path fill="#cccccc" d="M835.9,315.2L794.4,285c-2.6-1.9-3.2-5.6-1.3-8.2l63.3-87.3c1.9-2.6,5.6-3.2,8.2-1.3l41.6,30.1       L835.9,315.2z" class="colorccc svgShape"/><path fill="#ffa30f" d="M855.6,340l-51.4-37.3c-2.9-2.1-3.5-6.1-1.4-9l72.6-100.1c2.1-2.9,6.1-3.5,9-1.4l51.4,37.3L855.6,340z" class="colorcd3e3e svgShape"/><path fill="#f7960d" d="M1201.5,614.8l-398-288.5c-4.7-3.4-5.8-10-2.3-14.7l90.7-125.1c3.4-4.7,10-5.8,14.7-2.3l398,288.5        c39.3,28.5,76.8,104.2,48.3,143.5l0,0C1324.4,655.4,1240.7,643.3,1201.5,614.8z" class="colore25651 svgShape"/><path fill="#ffffff" d="M1023.6 319.1l20.4 14.8c23.4 17 28.1 39.6 9.8 64.9-18.3 25.3-41.8 28.5-64.5 12l-21.1-15.3L1023.6 319.1zM995.6 398.7c15.4 11.1 30.5 8.8 44.2-10 13.6-18.8 10.7-33.3-4.7-44.5l-5.9-4.3-39.5 54.4L995.6 398.7zM1096.7 372.1l46 33.3-8.3 11.4-32.4-23.5-14.2 19.6 27.5 19.9-8.3 11.4-27.5-19.9-16.4 22.6 33.6 24.4-8.3 11.4-47.2-34.2L1096.7 372.1zM1159.5 417.7l24.4 17.7c15.7 11.4 23.8 24.6 13.6 38.6-5.2 7.2-14.2 11.4-22.6 8.9l-.3.5c7.1 8 9 18.4 1.5 28.8-11.1 15.3-28.8 13.4-45.6 1.2l-26.4-19.1L1159.5 417.7zM1159.9 466.1c10.7 7.7 18.2 6.9 23 .2 5.4-7.4 2.4-13.8-7.5-21l-10-7.2-15.2 21L1159.9 466.1zM1136.8 501.7c11.2 8.1 20.4 8.7 26.6.1 5.8-8 2.3-16-9.1-24.2l-11.4-8.3-17.5 24.2L1136.8 501.7zM1233.5 488.7l-22.1-16 8.3-11.4 57.7 41.8-8.3 11.4-22.1-16-47.1 65-13.6-9.8L1233.5 488.7z" class="colorfff svgShape"/><path fill="#f7960d" d="M381.9,712.8c0,0-72.7-53.4-114.6-26.3c0,0,17.7,3.2,26.7,19.1c0,0-33-24.7-71.2-5.3      c0,0,3.7,21.6,43.5,33.8c0,0-19.3,8.8-27.8-2.5c0,0-4.8,15.1,27.7,28.7c0,0-11,1.2-18.2-2.6c0,0,27.1,33.2,130.3,56.7l35.7-95.1      L381.9,712.8z" class="colore25651 svgShape"/><path fill="#ffbf66" d="M385.4,726.8c0,0-55.1-40.5-86.9-20c0,0,13.4,2.4,20.3,14.5c0,0-25-18.7-54-4c0,0,2.8,16.4,33,25.6      c0,0-14.6,6.7-21.1-1.9c0,0-3.6,11.4,21,21.7c0,0-8.3,0.9-13.8-1.9c0,0,20.6,25.2,98.8,43l27.1-72.1L385.4,726.8z" class="colorfabc3f svgShape"/><path fill="#ffa30f" d="M415.4 716.1l33.2-82c1.9-4.7 7.2-7 11.9-5.1l35.7 14.5c7.3 2.9 13.1 8.5 16.4 15.6l54.8 118.4L415.4 716.1zM377 824.8l-33.2 82c-1.9 4.7.4 10 5.1 11.9l35.7 14.5c7.3 2.9 15.4 3 22.7.2l121.7-46.9L377 824.8z" class="colorcd3e3e svgShape"/><path fill="#cccccc" d="M380.4,828.5l-47.6-19.3c-3-1.2-4.4-4.6-3.2-7.6l40.4-99.9c1.2-3,4.6-4.4,7.6-3.2l47.6,19.3L380.4,828.5z       " class="colorccc svgShape"/><path fill="#ffa30f" d="M405.4,847.9L346.5,824c-3.3-1.3-4.9-5.1-3.6-8.4L389.4,701c1.3-3.3,5.1-4.9,8.4-3.6l58.9,23.8        L405.4,847.9z" class="colorcd3e3e svgShape"/><path fill="#f7960d" d="M807.2,1031.6L351.6,847.1c-5.4-2.2-8-8.3-5.8-13.7l58-143.3c2.2-5.4,8.3-8,13.7-5.8l455.6,184.4        c44.9,18.2,99.5,82.7,81.4,127.6l0,0C936.3,1041.4,852.2,1049.8,807.2,1031.6z" class="colore25651 svgShape"/><path fill="#ffffff" d="M617.7 821.3l-27.5-11.1L596 796l71.8 29.1-5.7 14.2-27.5-11.1L601.9 909l-16.9-6.8L617.7 821.3zM696.5 836.7l19.8 8-7.5 107.6-17.9-7.2 6-56.5c1-11.3 2.7-23.3 4.1-34.8l-.6-.2c-6.9 9.5-14 19.1-21.1 27.9l-35.1 44.7-17.2-7L696.5 836.7zM661.1 887.7l44.8 18.1-5.4 13.2-44.8-18.1L661.1 887.7zM757.1 914.8l-6.7-56.3 18.7 7.6 2 25.4c.5 5.3.7 10.5 1.3 17.4l.6.2c4.7-4.8 8.4-8.4 12.3-12l18.6-17 17.9 7.3-44.3 36.6 7.5 59.1-18.7-7.6-2.5-27.2c-.5-5.8-.9-11.6-1.4-18.6l-.6-.2c-4.9 4.8-9.1 8.7-13.3 12.6l-20.4 17.9-17.9-7.3L757.1 914.8z" class="colorfff svgShape"/><path fill="#f7960d" d="M183.4,1296.1c0,0-81.9-37.8-117.6-2.9c0,0,18-0.4,30,13.4c0,0-37.3-17.6-70.8,9.1c0,0,7.9,20.4,49.4,24.4      c0,0-17.1,12.5-27.7,3.1c0,0-1.7,15.7,32.8,22.6c0,0-10.5,3.4-18.3,1.1c0,0,33.2,27.2,139,29.5l16-100.3L183.4,1296.1z" class="colore25651 svgShape"/><path fill="#ffbf66" d="M189.5,1309c0,0-62.1-28.7-89.1-2.2c0,0,13.6-0.3,22.8,10.2c0,0-28.3-13.4-53.7,6.9c0,0,6,15.5,37.4,18.5      c0,0-13,9.4-21,2.3c0,0-1.3,11.9,24.9,17.1c0,0-8,2.6-13.9,0.9c0,0,25.2,20.6,105.4,22.4l12.1-76.1L189.5,1309z" class="colorfabc3f svgShape"/><path fill="#ffa30f" d="M216.8 1292.6l16.1-87c.9-5 5.7-8.3 10.7-7.3l37.9 7c7.7 1.4 14.6 5.7 19.2 12l77.3 105L216.8 1292.6zM200.9 1406.8l-16.1 87c-.9 5 2.4 9.8 7.3 10.7l37.9 7c7.7 1.4 15.7-.1 22.2-4.3l109.9-70.3L200.9 1406.8z" class="colorcd3e3e svgShape"/><path fill="#cccccc" d="M204.9,1409.7l-50.5-9.4c-3.2-0.6-5.3-3.6-4.7-6.8l19.7-106c0.6-3.2,3.6-5.3,6.8-4.7l50.5,9.4       L204.9,1409.7z" class="colorccc svgShape"/><path fill="#ffa30f" d="M233.3,1423.7l-62.5-11.6c-3.5-0.7-5.8-4-5.2-7.5l22.6-121.6c0.7-3.5,4-5.8,7.5-5.2l62.5,11.6        L233.3,1423.7z" class="colorcd3e3e svgShape"/><path fill="#f7960d" d="M663.7,1523.4l-483.3-89.7c-5.7-1.1-9.5-6.6-8.4-12.3l28.2-152c1.1-5.7,6.6-9.5,12.3-8.4l483.3,89.7        c47.7,8.8,114.1,61.2,105.2,108.8v0C792.2,1507.3,711.4,1532.3,663.7,1523.4z" class="colore25651 svgShape"/><path fill="#ffffff" d="M375.9 1333.7l16.1 3-14.4 77.4 37.8 7-2.5 13.6-53.9-10L375.9 1333.7zM428.3 1390.1c5.5-29.4 25.1-43.7 48.8-39.3 23.7 4.4 36.9 24.9 31.4 54.2-5.5 29.4-25.2 44.5-48.9 40.1C435.9 1440.6 422.9 1419.5 428.3 1390.1zM492 1401.9c3.8-20.4-3.1-34.5-17.4-37.1-14.3-2.7-25.8 8-29.6 28.4-3.8 20.4 3 35.2 17.3 37.9C476.5 1433.7 488.2 1422.3 492 1401.9zM551.7 1366.3l18.9 3.5 12.8 96.5-17.1-3.2-4.9-51c-1.1-10.2-1.8-21-2.7-31.5l-.6-.1c-4.4 9.6-9 19.4-13.6 28.5l-22.9 45.8-16.5-3.1L551.7 1366.3zM529.6 1417.7l42.8 8-2.4 12.7-42.8-8L529.6 1417.7zM610.7 1377.3l16.6 3.1 18.8 56.4 5.8 21.2.6.1c1-9.5 1.8-21.3 3.7-31.4l7.3-39.5 15.4 2.8-16.9 91-16.6-3.1-18.8-56.5-5.8-21.1-.6-.1c-1 9.8-1.8 21-3.6 31.1l-7.4 39.8-15.4-2.8L610.7 1377.3z" class="colorfff svgShape"/><g fill="#000000" class="color000 svgShape"><path fill="#f7960d" d="M197.9,1972c0,0-89.5-10.9-112.8,33.3c0,0,17-5.9,32.7,3.5c0,0-40.9-5.3-64.6,30.4c0,0,13.8,17,54.5,8.1      c0,0-12.5,17.1-25.4,11.4c0,0,3.2,15.5,38.2,11.4c0,0-9,6.5-17.1,6.7c0,0,40,15.6,141.3-14.6l-15.6-100.4L197.9,1972z" class="colore25651 svgShape"/><path fill="#ffbf66" d="M207.7,1982.4c0,0-67.9-8.2-85.5,25.3c0,0,12.9-4.4,24.8,2.7c0,0-31-4-49,23c0,0,10.5,12.9,41.3,6.1      c0,0-9.5,13-19.3,8.7c0,0,2.4,11.7,29,8.6c0,0-6.8,4.9-13,5.1c0,0,30.3,11.9,107.1-11.1l-11.8-76.1L207.7,1982.4z" class="colorfabc3f svgShape"/><path fill="#ffa30f" d="M228.6 1958.4l-11.3-87.7c-.6-5 2.9-9.6 7.9-10.3l38.2-4.9c7.8-1 15.6 1 22 5.6l105.9 76.2L228.6 1958.4zM248.5 2072l11.3 87.7c.6 5 5.2 8.6 10.3 7.9l38.2-4.9c7.8-1 14.9-4.9 19.8-11l83-100.6L248.5 2072z" class="colorcd3e3e svgShape"/><path fill="#cccccc" d="M253.3,2073.5l-50.9,6.6c-3.2,0.4-6.1-1.8-6.6-5.1L182,1968.2c-0.4-3.2,1.8-6.1,5.1-6.6l50.9-6.6       L253.3,2073.5z" class="colorccc svgShape"/><path fill="#ffa30f" d="M284.6,2078.1l-63,8.1c-3.5,0.5-6.8-2-7.2-5.6L198.5,1958c-0.5-3.5,2-6.8,5.6-7.2l63-8.1L284.6,2078.1z" class="colorcd3e3e svgShape"/><path fill="#f7960d" d="M724.9,2040.9l-487.5,63c-5.8,0.7-11-3.3-11.8-9.1l-19.8-153.3c-0.7-5.8,3.3-11,9.1-11.8l487.5-63        c48.1-6.2,127.3,23.2,133.5,71.3l0,0C842.1,1986.1,772.9,2034.6,724.9,2040.9z" class="colore25651 svgShape"/><g fill="#000000" class="color000 svgShape"><path fill="#ffffff" d="M407.8 1943.8l31.2-4c20-2.6 35.6 1.6 37.9 19.5 1.2 9.2-2.7 18.8-10.8 22.9l.1.6c11.1 1.1 20 7.5 21.7 20.7 2.5 19.5-12.3 30.7-33.7 33.5l-33.7 4.4L407.8 1943.8zM442.7 1980.2c13.6-1.8 18.7-7.8 17.6-16.3-1.2-9.4-8.1-12.2-20.7-10.5l-12.7 1.6 3.5 26.8L442.7 1980.2zM450.6 2023.7c14.3-1.8 21.6-8 20.2-19-1.3-10.3-9.7-13.7-24.2-11.8l-14.6 1.9 4 30.8L450.6 2023.7zM496.9 1932.2l17.3-2.2 12.6 97.5-17.3 2.2L496.9 1932.2zM538.9 1926.8l17.3-2.2 10.7 82.9 40.5-5.2 1.9 14.5-57.8 7.5L538.9 1926.8zM613.8 1917.1l17.3-2.2 10.7 82.9 40.5-5.2 1.9 14.5-57.8 7.5L613.8 1917.1z" class="colorfff svgShape"/></g></g><g fill="#000000" class="color000 svgShape"><path fill="#fddeb3" d="M2194,1592l-100.7-25.3c-21.2-5.3-43.6-4.3-64.2,3.1l-2.3,0.8c-17.6,6.3-26.8,25.7-20.5,43.3v0    c4.6,12.8,16.3,21.6,29.9,22.4l84.6,5l53.1-5.5L2194,1592z" class="colorfdbab3 svgShape"/><path fill="#434241" d="M2611.4 1916.1c-43.4 60.1-127.6 73.7-187.8 30.3l-847.4-612.1c-8.9-6.5-10.9-18.9-4.5-27.9 6.5-8.9 18.9-10.9 27.9-4.5l847.4 612.1c42.3 30.5 101.5 21 132-21.3 30.5-42.3 21-101.5-21.3-132-8.9-6.5-10.9-18.9-4.5-27.9 6.5-8.9 18.9-10.9 27.9-4.5C2641.2 1771.8 2654.8 1856 2611.4 1916.1zM1267.6 1081.3c-6.5 8.9-18.9 10.9-27.9 4.5l-110.6-79.9c-8.9-6.5-10.9-18.9-4.5-27.9s18.9-10.9 27.9-4.5l110.6 79.9C1272 1059.9 1274 1072.4 1267.6 1081.3z" class="color414143 svgShape"/><path fill="#d7973f" d="M1939.6,1263.9c-172.5,77.9-268.3,212.4-290,401.5c-410.6-161.9-589.1-499.8-480-649      c0.6-0.9,1.3-1.7,1.9-2.6C1276.7,861.9,1645.8,911.7,1939.6,1263.9z" class="color3f98d7 svgShape"/><path fill="#b57b2a" d="M1169.6 1016.4c-80.1 110.9 135.4 400.1 480 649-144.2 40.9-229.6 135.8-225.7 312.5-432.5-170.2-493.5-642.8-258.5-955.6L1169.6 1016.4zM2165.3 951.4c-174.8 58.6-232.2 170.9-225.7 312.5-341.9-247-683.8-356.1-768.1-250l.9-1.3C1394.4 701 1860.9 610.8 2165.3 951.4z" class="color2a84b5 svgShape"/><path fill="#d7973f" d="M2342.3 706.3c-144.5 48.8-205.5 129.7-177 245.1-341.7-246.8-785-215.1-992.9 61.2C1476.8 601.8 2000.4 459.4 2342.3 706.3zM1165.3 1022.4c-201.9 283.7-85 707.4 258.5 955.6-126.9 3-175.9 96.3-177 245C902.2 1974 862.8 1441.2 1165.3 1022.4z" class="color3f98d7 svgShape"/><path fill="#fddeb3" d="M2431,1753.4c0.9,2.6-52.8,20.8-88.6,32.6c-20.5,6.8-38.4,19.7-51.4,37l-3.1,4.2    c-12.4,16.6-29.5,29.2-49,36.2l-138.1,49.3c-19.2,6.9-40.4-3.2-47.2-22.4l0,0c-6.9-19.2,3.2-40.4,22.4-47.2l61.8-22.1l-95.1,34    c-19.2,6.9-40.4-3.2-47.2-22.4h0c-6.9-19.2,3.2-40.4,22.4-47.2l123.7-44.2l-164,58.6c-19.9,7.1-41.8-3.3-48.9-23.2h0    c-7.1-19.9,3.3-41.8,23.2-48.9l124.5-44.5l-110.1,39.3c-19,6.8-39.8-3.1-46.6-22.1l0,0c-6.8-19,3.1-39.8,22.1-46.6l165.8-59.2    c27.9-10,58.3-10.9,86.8-2.6l0,0c28.5,8.3,58.8,7.4,86.8-2.6l73.4-26.2L2431,1753.4z" class="colorfdbab3 svgShape"/><path fill="#f4d5ab" d="M1966 1722.5c30.1-16.1 62-27.5 95.6-34.1C2031.4 1704.4 1999.4 1715.8 1966 1722.5L1966 1722.5zM2014.3 1785.7c30.1-16.1 62-27.5 95.6-34.1C2079.7 1767.6 2047.8 1779 2014.3 1785.7L2014.3 1785.7zM2074.6 1844.6c30.1-16.1 62-27.5 95.6-34.1C2140 1826.5 2108.1 1837.9 2074.6 1844.6L2074.6 1844.6z" class="colorf4b0ab svgShape"/><rect width="77.7" height="267" x="2283.9" y="1553.7" fill="#e0e0e0" transform="rotate(160.339 2322.717 1687.205)" class="colore0e0e0 svgShape"/><polygon fill="#434241" points="2260 1546.2 2975 1290.7 2975 1617.6 2363.5 1836" class="color414143 svgShape"/></g><ellipse cx="1680.7" cy="2830.1" fill="#ededed" rx="536.2" ry="30.9" class="colorededed svgShape"/><g fill="#000000" class="color000 svgShape"><rect width="43.1" height="42" x="1759.4" y="2738.9" fill="#fddeb3" transform="rotate(-90 1780.917 2759.881)" class="colorfdbab3 svgShape"/><path fill="#2c2b2a" d="M1667.1,2810.4c0,0-5.5,29.5,55.1,23.7c5.9-0.6,11.8-1.7,17.5-3.3c8.2-2.3,21.7-5.2,31.3-6l0.4,9.9l36.1-2      c3.8-0.4,6.7-3.7,6.6-7.6l-1.8-22.1c0,0-60.7,1.8-61.7,2.3c-1,0.5-52.6,11.6-52.6,11.6L1667.1,2810.4z" class="color2a2a2c svgShape"/><path fill="#434241" d="M1696.7,2829.9l2,0.1c6.2,0.3,13.6,0.1,22.3-0.8c5.9-0.6,11.8-1.7,17.5-3.3c8.2-2.3,21.8-5.8,31.3-6.7      c0,0,7.2-0.1,15.7-0.6c0.6,0,1.2-0.1,1.8-0.1c1.4-0.1,2.9-0.1,4.4-0.3c0.6,0,1.2-0.1,1.9-0.1c1.1-0.1,2.2-0.1,3.3-0.3      c0.6-0.1,1.2-0.1,1.9-0.2c7.8-0.7,14-1.7,14-3.2c0.6-5.8,0.7-11.6,0.4-17.4c-0.3-6.9-1.2-13.8-2.8-20.6c-1-4.6-5.3-7.6-10-7.1      l-32.9,3.8c-2.5,0.3-5-0.6-6.8-2.3c-0.2-0.2-0.4-0.4-0.6-0.6l-0.1-0.1l-0.5-0.6l0-0.1l-0.1-0.1l-1.2-1.4l0,0l-1.2-1.4l-0.1-0.1      c-1.5-1.8-4.3-1.8-5.8,0c-6.4,7.3-13.2,14-20.5,20c-9.4,7.7-20.5,12.9-32.4,15c-0.7,0.1-1.4,0.2-2.1,0.3      c-2.6,0.4-5.2,0.6-7.8,0.7c-21.8,0.7-21.4,7.9-21.4,7.9S1662.5,2827.7,1696.7,2829.9z" class="color414143 svgShape"/><circle cx="1759.9" cy="2773.9" r="2" fill="#cdcac6" class="colorc6c7cd svgShape"/><path fill="#2c2b2a" d="M1760,2774.9c-0.3,0-0.5-0.1-0.7-0.3l-7.9-7.8c-0.4-0.4-0.4-1,0-1.4c0.4-0.4,1-0.4,1.4,0l7.9,7.8        c0.4,0.4,0.4,1,0,1.4C1760.4,2774.7,1760.2,2774.8,1760,2774.9z" class="color2a2a2c svgShape"/><circle cx="1755.2" cy="2777.7" r="2" fill="#cdcac6" class="colorc6c7cd svgShape"/><path fill="#2c2b2a" d="M1755.3,2778.6c-0.3,0-0.5-0.1-0.7-0.3l-7.3-7.3c-0.4-0.4-0.4-1,0-1.4c0.4-0.4,1-0.4,1.4,0l7.3,7.3        c0.4,0.4,0.4,1,0,1.4C1755.7,2778.5,1755.5,2778.6,1755.3,2778.6z" class="color2a2a2c svgShape"/><circle cx="1750.5" cy="2781.7" r="2" fill="#cdcac6" class="colorc6c7cd svgShape"/><path fill="#2c2b2a" d="M1750.6,2782.6c-0.3,0-0.5-0.1-0.7-0.3l-7-7.1c-0.4-0.4-0.4-1,0-1.4c0.4-0.4,1-0.4,1.4,0l7,7.1        c0.4,0.4,0.4,1,0,1.4C1751,2782.5,1750.8,2782.6,1750.6,2782.6z" class="color2a2a2c svgShape"/><circle cx="1746.1" cy="2785.6" r="2" fill="#cdcac6" class="colorc6c7cd svgShape"/><path fill="#2c2b2a" d="M1746.1,2786.6c-0.3,0-0.5-0.1-0.7-0.3l-6.6-7.1c-0.4-0.4-0.3-1,0-1.4c0.4-0.4,1-0.3,1.4,0l6.6,7.1        c0.4,0.4,0.3,1,0,1.4C1746.6,2786.5,1746.3,2786.6,1746.1,2786.6z" class="color2a2a2c svgShape"/><circle cx="1741.2" cy="2789.2" r="2" fill="#cdcac6" class="colorc6c7cd svgShape"/><path fill="#2c2b2a" d="M1741.2,2790.1c-0.3,0-0.5-0.1-0.7-0.3l-6.4-6.8c-0.4-0.4-0.3-1,0-1.4s1-0.3,1.4,0l6.4,6.8        c0.4,0.4,0.3,1,0,1.4C1741.7,2790,1741.4,2790.1,1741.2,2790.1z" class="color2a2a2c svgShape"/><circle cx="1736.3" cy="2793" r="2" fill="#cdcac6" class="colorc6c7cd svgShape"/><path fill="#2c2b2a" d="M1736.3,2793.9c-0.3,0-0.5-0.1-0.7-0.3l-6.1-6.4c-0.4-0.4-0.3-1,0-1.4s1-0.3,1.4,0l6.1,6.4        c0.4,0.4,0.3,1,0,1.4C1736.8,2793.8,1736.6,2793.9,1736.3,2793.9z" class="color2a2a2c svgShape"/><g fill="#000000" class="color000 svgShape"><path fill="#2c2b2a" d="M1728.1,2797.7c0,3.3,1.4,6.5,3.9,8.7c2.6,2.3,6.1,3.2,9.6,2.5l31.9-6.4c2.6-0.5,5.3,0.1,7.4,1.7      c2.1,1.5,3.5,4,3.8,6.6l0.8,7.9c0.6,0,1.2-0.1,1.8-0.1l-0.8-8c-0.4-3.1-2-6-4.6-7.9c-2.5-1.8-5.8-2.6-8.9-1.9l-31.9,6.4      c-2.9,0.6-5.8-0.2-8-2.1c-2.1-1.8-3.3-4.5-3.3-7.3c0-2.8,1.3-5.4,3.5-7.2l26.1-21.1l-1.2-1.4l-26.1,21.1      C1729.7,2791.2,1728.1,2794.4,1728.1,2797.7z" class="color2a2a2c svgShape"/></g><g fill="#000000" class="color000 svgShape"><rect width="43.1" height="42" x="1915.7" y="2738.9" fill="#fddeb3" transform="rotate(-90 1937.204 2759.881)" class="colorfdbab3 svgShape"/><path fill="#2c2b2a" d="M1823.4,2810.4c0,0-5.5,29.5,55.1,23.7c5.9-0.6,11.8-1.7,17.5-3.3c8.2-2.3,21.7-5.2,31.3-6l0.4,9.9l36.1-2      c3.8-0.4,6.7-3.7,6.6-7.6l-1.8-22.1c0,0-60.7,1.8-61.7,2.3c-1,0.5-52.6,11.6-52.6,11.6L1823.4,2810.4z" class="color2a2a2c svgShape"/><path fill="#434241" d="M1853,2829.9l2,0.1c6.2,0.3,13.6,0.1,22.3-0.8c5.9-0.6,11.8-1.7,17.5-3.3c8.2-2.3,21.8-5.8,31.3-6.7      c0,0,7.2-0.1,15.7-0.6c0.6,0,1.2-0.1,1.8-0.1c1.4-0.1,2.9-0.1,4.4-0.3c0.6,0,1.2-0.1,1.9-0.1c1.1-0.1,2.2-0.1,3.3-0.3      c0.6-0.1,1.2-0.1,1.9-0.2c7.8-0.7,14-1.7,14-3.2c0.6-5.8,0.7-11.6,0.4-17.4c-0.3-6.9-1.2-13.8-2.8-20.6c-1-4.6-5.3-7.6-10-7.1      l-32.9,3.8c-2.5,0.3-5-0.6-6.8-2.3c-0.2-0.2-0.4-0.4-0.6-0.6l-0.1-0.1l-0.5-0.6l0-0.1l-0.1-0.1l-1.2-1.4l0,0l-1.2-1.4l-0.1-0.1      c-1.5-1.8-4.3-1.8-5.8,0c-6.4,7.3-13.2,14-20.5,20c-9.4,7.7-20.5,12.9-32.4,15c-0.7,0.1-1.4,0.2-2.1,0.3      c-2.6,0.4-5.2,0.6-7.8,0.7c-21.8,0.7-21.4,7.9-21.4,7.9S1818.8,2827.7,1853,2829.9z" class="color414143 svgShape"/><circle cx="1916.2" cy="2773.9" r="2" fill="#cdcac6" class="colorc6c7cd svgShape"/><path fill="#2c2b2a" d="M1916.3,2774.9c-0.3,0-0.5-0.1-0.7-0.3l-7.9-7.8c-0.4-0.4-0.4-1,0-1.4c0.4-0.4,1-0.4,1.4,0l7.9,7.8        c0.4,0.4,0.4,1,0,1.4C1916.7,2774.7,1916.5,2774.8,1916.3,2774.9z" class="color2a2a2c svgShape"/><circle cx="1911.5" cy="2777.7" r="2" fill="#cdcac6" class="colorc6c7cd svgShape"/><path fill="#2c2b2a" d="M1911.6,2778.6c-0.3,0-0.5-0.1-0.7-0.3l-7.3-7.3c-0.4-0.4-0.4-1,0-1.4c0.4-0.4,1-0.4,1.4,0l7.3,7.3        c0.4,0.4,0.4,1,0,1.4C1912,2778.5,1911.8,2778.6,1911.6,2778.6z" class="color2a2a2c svgShape"/><circle cx="1906.8" cy="2781.7" r="2" fill="#cdcac6" class="colorc6c7cd svgShape"/><path fill="#2c2b2a" d="M1906.8,2782.6c-0.3,0-0.5-0.1-0.7-0.3l-7-7.1c-0.4-0.4-0.4-1,0-1.4c0.4-0.4,1-0.4,1.4,0l7,7.1        c0.4,0.4,0.4,1,0,1.4C1907.3,2782.5,1907.1,2782.6,1906.8,2782.6z" class="color2a2a2c svgShape"/><circle cx="1902.4" cy="2785.6" r="2" fill="#cdcac6" class="colorc6c7cd svgShape"/><path fill="#2c2b2a" d="M1902.4,2786.6c-0.3,0-0.5-0.1-0.7-0.3l-6.6-7.1c-0.4-0.4-0.3-1,0-1.4c0.4-0.4,1-0.3,1.4,0l6.6,7.1        c0.4,0.4,0.3,1,0,1.4C1902.8,2786.5,1902.6,2786.6,1902.4,2786.6z" class="color2a2a2c svgShape"/><circle cx="1897.5" cy="2789.2" r="2" fill="#cdcac6" class="colorc6c7cd svgShape"/><path fill="#2c2b2a" d="M1897.5,2790.1c-0.3,0-0.5-0.1-0.7-0.3l-6.4-6.8c-0.4-0.4-0.3-1,0-1.4s1-0.3,1.4,0l6.4,6.8        c0.4,0.4,0.3,1,0,1.4C1898,2790,1897.7,2790.1,1897.5,2790.1z" class="color2a2a2c svgShape"/><circle cx="1892.6" cy="2793" r="2" fill="#cdcac6" class="colorc6c7cd svgShape"/><path fill="#2c2b2a" d="M1892.6,2793.9c-0.3,0-0.5-0.1-0.7-0.3l-6.1-6.4c-0.4-0.4-0.3-1,0-1.4s1-0.3,1.4,0l6.1,6.4        c0.4,0.4,0.3,1,0,1.4C1893.1,2793.8,1892.8,2793.9,1892.6,2793.9z" class="color2a2a2c svgShape"/><g fill="#000000" class="color000 svgShape"><path fill="#2c2b2a" d="M1884.4,2797.7c0,3.3,1.4,6.5,3.9,8.7c2.6,2.3,6.1,3.2,9.6,2.5l31.9-6.4c2.6-0.5,5.3,0.1,7.4,1.7      c2.1,1.5,3.5,4,3.8,6.6l0.8,7.9c0.6,0,1.2-0.1,1.8-0.1l-0.8-8c-0.4-3.1-2-6-4.6-7.9c-2.5-1.8-5.8-2.6-8.9-1.9l-31.9,6.4      c-2.9,0.6-5.8-0.2-8-2.1c-2.1-1.8-3.3-4.5-3.3-7.3c0-2.8,1.3-5.4,3.5-7.2l26.1-21.1l-1.2-1.4l-26.1,21.1      C1886,2791.2,1884.4,2794.4,1884.4,2797.7z" class="color2a2a2c svgShape"/></g></g><g fill="#000000" class="color000 svgShape"><path fill="#434241" d="M1962,2193.6c13.9,83.5-0.4,165.4-7.6,279.8l14.1,280.6h-63l-34.5-266.1l-13.3-109.5l-25.9,95l-21,280.6     h-62.4l-1.5-291.4c10.5-95.1,24.7-185.9,44.6-269.8L1962,2193.6z" class="color414143 svgShape"/></g></g><g fill="#000000" class="color000 svgShape"><path fill="#fddeb3" d="M1599.3,2105.5l-35.4,8.9c-3.8,1-7.6,2.3-11.2,3.8c-11.1,4.7-40.6,13.4-57.5-18.3c-2.6-4.9,1.2-10.7,6.7-10    c9.7,1.2,26.5,2.2,31.6-3.4l-12.2-10c-2.3-1.9-2.5-5.3-0.5-7.5l0,0c1.6-1.7,4.1-2.1,6.1-1.1l16.7,8.6c4.1,2.1,8.7,2.9,13.3,2.1    l33.4-5.2" class="colorfdbab3 svgShape"/><path fill="#5e5b58" d="M1859.1,2041.7l-108.1,46.8c-5,2.2-10.2,3.8-15.6,4.8l-171.9,25.9l-10.3-44.2l165.2-39.1    c7.4-2.1,14.4-5.6,20.6-10.2c36-34.3,69.1-63.4,93.9-77.1l11.3,7.2l29.3,53.9L1859.1,2041.7z" class="color585a5e svgShape"/></g><g fill="#000000" class="color000 svgShape"><rect width="46.9" height="83.7" x="1858.9" y="1888.8" fill="#fddeb3" transform="rotate(-180 1882.373 1930.635)" class="colorfdbab3 svgShape"/><path fill="#fddeb3" d="M1825,1875.9c-5.4,35.2,19.6,57,44.1,57c24.4,0,44.4-25,44.4-57c0-32-19.8-58-44.2-58    S1829.8,1844.3,1825,1875.9z" class="colorfdbab3 svgShape"/><path fill="#434241" d="M1847.9,1814.9c19.7-15.9,36.6-1.5,36.6-1.5c29-8,33.7,23.9,33.7,23.9c33.2-0.9-12.3,79.8-12.3,79.8    l-3.1-10.8c-1.6-5.5-1.3-11.5,1-16.8c4.4-10.2,5.5-22.6-5-24.3c-9.2-1.5-14.1,12.3-15.9,19c-0.5,1.9-2.5,3-4.4,2.6l0,0    c-1.8-0.5-3-2.2-2.7-4.1l4.1-26.8c-13,3.9-38.9-0.9-44.5-2.9c0,0-23.9-7.4-19.9-32.7c0,0,3.1,6.4,16.1,6.8c0,0-10.7-2.5-9.4-17.8    C1822.1,1809.5,1836.3,1824.2,1847.9,1814.9z" class="color414143 svgShape"/></g><g fill="#000000" class="color000 svgShape"><path fill="#e5e5e5" d="M1819.6,2095.3c0,1.5,0,168.9,0,168.9c51.7,24.7,98.9,6.3,98.8,6.7l-2.5-284.5l-10.2-48.6l-36.7,24.5    l-23-19.3l-14.8,13l-3.1,66.4C1828.2,2022.4,1819.6,2093.8,1819.6,2095.3z" class="colore5e5e5 svgShape"/><path fill="#5e5b58" d="M1979.3 2282.7c1.5 6.3.1 12.8-6.2 14.4 0 0-120 14.3-106-131.9l6.7-148.1c0-27.3 8.6-55.8 28.7-74.4l3.3-5 24.8 10.4c27.3 13.3 44 41.6 42.4 72l-.3 56.8C1970.4 2123.6 1976.1 2268.8 1979.3 2282.7zM1858.9 1939.5l-12.9 3.4c-19.9 5.8-35.8 21.7-35.8 42v34.8c0 21.1-1.4 42.2-4.1 63.2l-34.6 164.9c-1 7.3 2.4 10.3 11 15.3l50.9 21.3c5.4 1.3 9.8-4.4 7.2-9.3l0 0c-9.6-17.9-13.7-56.6-11.7-76.8l11.5-117.9c1-10.5 1.6-20.9 1.9-31.5L1858.9 1939.5z" class="color585a5e svgShape"/></g><polygon fill="#cdcac6" points="1858.9 1939.5 1854.2 1970.7 1882 1973.2 1905.8 1937.8 1869.1 1962.2" class="colorc6c7cd svgShape"/><path fill="#434241" d="M1824.6,1891.8L1824.6,1891.8l49-2.6l3-12.5l7.9,2.3l-6.7,35.6c-2.2,11.4-12.9,19-24.4,17.2l0,0   C1834.5,1928.9,1822.6,1910.8,1824.6,1891.8z" class="color414143 svgShape"/><path fill="#f7960d" d="M1869.1,1962.2l5.8,7.1l-2.1,8.8l2.2,17.9c6,49.9,34.7,94.3,77.8,120.3l7.8,4.7c23.7,14.3,43.3,34.6,56.8,58.8   l16.7,30l-12.4,22.8l-25.3-10.4l-20.2-36.5c-9.1-16.4-21.4-30.9-36.1-42.7l-15.3-12.2c-38.8-30.9-61.4-77.8-61.5-127.3l-0.1-24.7   l-0.9-10.1L1869.1,1962.2z" class="colore25651 svgShape"/><g fill="#000000" class="color000 svgShape"><path fill="#f7d5a5" d="M1519.8,2017.9c0,0-27-31-41.2-15.1c-2.4,2.7-3.7,6.2-4,9.8c-0.6,8.2,0.6,26,18.6,44     c24.5,24.5,1.2,0.3,0.9-0.7S1519.8,2017.9,1519.8,2017.9z" class="colorf7a5b1 svgShape"/><path fill="#d5a158" d="M1492.8,2050.8c2.9-4.7,9.1-13.8,22.2-32.6c-5.7-5.9-17.5-16.2-26.5-16.2c-2.8,0-5.2,1.1-7.2,3.3     c-1.7,2-2.8,4.7-3.1,7.6C1477.8,2020.6,1479,2035.3,1492.8,2050.8z" class="colord55863 svgShape"/><path fill="#ecc084" d="M1817 2008.2c-3.1 3.3-6.4 5.9-8.7 9.9-2.1 3.7-3.3 7.7-4 11.8-.4 2-.6 4-.7 6-.1 2.1-.4 4.5.1 6.6.7 3.3 3.6 5.6 6.9 6.1 6.8 1 12.5-7.2 9.8-13.4-1.7-4-7-4-10.7-3.8-4.8.2-9.4 1.6-13.6 4-4.7 2.7-9 6.1-13.2 9.5-4.6 3.6-9.1 7.2-13.3 11.2-2.7 2.6-6.8-1.5-4.1-4.1 4.3-4.1 9-7.9 13.7-11.6 4.5-3.5 9-7.2 14-10 5.1-2.9 10.9-4.6 16.8-4.7 5.5-.2 11.6.7 14.8 5.6 5.6 8.6-.9 21.4-10.8 23-4.7.7-9.7-.9-12.9-4.5-3.7-4.2-3.7-9.7-3.2-15 .5-5.8 1.7-11.5 4-16.9 1.2-2.6 2.7-5 4.5-7.3 2-2.4 4.4-4.3 6.5-6.6C1815.5 2001.4 1819.6 2005.5 1817 2008.2L1817 2008.2zM1636.4 2183.1l6.1 31.2 1.6 8.1 4.8 24.7c.4 2.2 2.3 3.7 4.5 3.7h26.4c2.5 0 4.6-2.1 4.6-4.6v-55.8L1636.4 2183.1zM1526.5 2250.7h28.8c1.7 0 3.3-.9 4.1-2.4l18.9-35.4 4.3-8 11.7-21.8-57.9-7.5-1 4.7-1.9 9.5-11.4 55.4C1521.4 2248.1 1523.6 2250.7 1526.5 2250.7z" class="colorec848e svgShape"/><path fill="#f7d5a5" d="M1723.6 2190.3v55.8c0 2.5-2.1 4.6-4.6 4.6h-26.5c-2.2 0-4.1-1.6-4.5-3.7l-12.4-63.9L1723.6 2190.3zM1573 2187.2l-11.9 58c-.6 2.9 1.6 5.5 4.5 5.5h28.8c1.7 0 3.3-.9 4.1-2.4l34.9-65.2L1573 2187.2z" class="colorf7a5b1 svgShape"/><ellipse cx="1636.3" cy="2091.8" fill="#f7d5a5" rx="155.6" ry="127.7" class="colorf7a5b1 svgShape"/><path fill="#ecc084" d="M1505.7,2161.3c27.7,35.1,75.9,58.3,130.6,58.3c85.9,0,155.6-57.2,155.6-127.7c0-31.3-13.7-59.9-36.4-82.1    c15.8,20,25,43.8,25,69.5c0,70.5-69.7,127.7-155.6,127.7C1577.1,2206.9,1534.3,2189.2,1505.7,2161.3z" class="colorec848e svgShape"/><ellipse cx="1511" cy="2102.8" fill="#d5a158" rx="33.5" ry="39.7" transform="rotate(-86.285 1510.993 2102.833)" class="colord55863 svgShape"/><ellipse cx="1500.7" cy="2102.2" fill="#f7d5a5" rx="33.5" ry="39.7" transform="rotate(-86.285 1500.722 2102.166)" class="colorf7a5b1 svgShape"/><ellipse cx="1484.6" cy="2100.3" fill="#d5a158" rx="14" ry="8.4" transform="rotate(-86.285 1484.6 2100.314)" class="colord55863 svgShape"/><ellipse cx="1512.4" cy="2102.1" fill="#d5a158" rx="14" ry="8.4" transform="rotate(-86.285 1512.418 2102.12)" class="colord55863 svgShape"/><g fill="#000000" class="color000 svgShape"><path fill="#d5a158" d="M1572.3,2059.8c0,0-13.9-44.4-39.2-49.1c-5.3-1-10.4,2.6-11.2,7.9c-1,6,0,15.3,8.7,27.5     C1540.5,2046.6,1555.4,2051.9,1572.3,2059.8z" class="colord55863 svgShape"/><path fill="#efc283" d="M1577.2,2063.3c0-0.2-7-44.4-40.2-55.4c0,0,29.3,0.5,57.5,46.2C1589.7,2060.4,1583.9,2063.4,1577.2,2063.3z     " class="coloref8388 svgShape"/></g></g><g fill="#000000" class="color000 svgShape"><path fill="#fddeb3" d="M1707.4,2215.5l-33.3,15c-3.6,1.6-7.1,3.6-10.4,5.8c-10.1,6.6-37.5,20.4-59.9-7.8c-3.4-4.3-0.7-10.7,4.8-11    c9.8-0.5,26.5-2.5,30.5-9l-13.8-7.7c-2.6-1.4-3.4-4.8-1.8-7.3l0,0c1.2-1.9,3.6-2.8,5.8-2.1l18,5.5c4.4,1.3,9.1,1.3,13.5-0.2    l31.9-11" class="colorfdbab3 svgShape"/><path fill="#5e5b58" d="M1677.9,2233.8c0,0,175.5-71.2,180.7-75.2c58.3-45.6,102.6-103.3,102.6-103.3l-39.3-42.9l-35.5-0.3    l-67.7,97.7c-2.2,4.2-165.9,81.7-165.9,81.7L1677.9,2233.8z" class="color585a5e svgShape"/></g></svg>