<svg xmlns="http://www.w3.org/2000/svg" enable-background="new 0 0 3000 3000" viewBox="0 0 3000 3000"><path fill="#f2f2f2" d="M2449.93,2898.66c0,42.16-534.34,76.34-1193.47,76.34c-659.14,0-1193.48-34.18-1193.48-76.34    c0-42.16,534.34-76.33,1193.48-76.33C1915.59,2822.33,2449.93,2856.51,2449.93,2898.66z" class="colorf2f2f2 svgShape"/><path fill="#eac188" d="M1326.36,2728.46v143.9c0,14.53,11.77,26.3,26.3,26.3h85.3c10.99,0,20.82-6.83,24.65-17.12l44.61-119.64    l12.47-33.44H1326.36z" class="colorea88b0 svgShape"/><path fill="#ffbf66" d="M1326.36,2728.46v59.72c71.8-4.53,145.71-18.18,180.86-26.28l12.47-33.44H1326.36z" class="colorfa9bbd svgShape"/><path fill="#eac188" d="M933.73,2871.3c-0.62,14.95,11.33,27.36,26.28,27.36h91.17c10.16,0,19.42-5.87,23.77-15.05l48.83-103.3    l4.5-9.52l29.25-61.89l-216.65-15.83l-0.91,22.73l-0.34,8.28L933.73,2871.3z" class="colorea88b0 svgShape"/><path fill="#ffbf66" d="M939.96 2715.81c54.55 26.35 125.85 42.98 188.31 54.99l29.25-61.89-216.65-15.83L939.96 2715.81zM1796.04 2609.26l-118.85 273.58c-4.17 9.61-13.65 15.82-24.13 15.82h-84.82c-14.88 0-26.79-12.33-26.29-27.2l6.59-193L1796.04 2609.26zM653.84 2490.65l9.45 382.36c.35 14.27 12.02 25.65 26.3 25.65h84.8c10.96 0 20.78-6.8 24.63-17.07l87.89-234.38-184.04-170.8L653.84 2490.65z" class="colorfa9bbd svgShape"/><path fill="#ffbf66" d="M2077.77,2109.09c0,367.91-353.25,666.22-789.13,666.22c-435.77,0-789.01-298.31-789.01-666.22    c0-49,6.29-96.72,18.27-142.69h1541.6C2071.48,2012.36,2077.77,2060.09,2077.77,2109.09z" class="colorfa9bbd svgShape"/><path fill="#eac188" d="M502.2,2162.85c32.43,342.82,372.17,612.47,786.5,612.47c435.77,0,789.04-298.31,789.04-666.29    c0-37.09-3.6-73.45-10.5-108.91c1.71,17.87,2.59,35.92,2.59,54.16c0,367.98-353.27,666.26-789.04,666.26    C888.8,2720.54,563.57,2479.19,502.2,2162.85z" class="colorea88b0 svgShape"/><ellipse cx="1802.07" cy="2375.21" fill="#eac188" rx="257.36" ry="207.96" class="colorea88b0 svgShape"/><ellipse cx="1872.76" cy="2375.21" fill="#ffbf66" rx="257.36" ry="207.96" class="colorfa9bbd svgShape"/><path fill="#eac188" d="M1861.03 2367.75c0 38.95-13.94 70.53-31.14 70.53-17.2 0-31.14-31.58-31.14-70.53s13.94-70.53 31.14-70.53C1847.09 2297.22 1861.03 2328.8 1861.03 2367.75zM2031.81 2367.75c0 38.95-13.94 70.53-31.14 70.53-17.2 0-31.14-31.58-31.14-70.53s13.94-70.53 31.14-70.53C2017.87 2297.22 2031.81 2328.8 2031.81 2367.75z" class="colorea88b0 svgShape"/><circle cx="1872.76" cy="2067.22" r="47.44" fill="#eac188" class="colorea88b0 svgShape"/><circle cx="1474.24" cy="2067.22" r="47.44" fill="#eac188" class="colorea88b0 svgShape"/><path fill="#ffbf66" d="M1302.37,639.16L518.04,1966.31c-218.55-218.8-250.88-604.7-58.66-929.95     C651.65,711.02,1005.29,553.23,1302.37,639.16z" class="colorfa9bbd svgShape"/><path fill="#eac188" d="M628.43,1075.98c0,0-68.35,49.13,56.76,274.15c33.52,10.81,60.94,3.37,84.93-14.33l-47.63-208.09      L628.43,1075.98z" class="colorea88b0 svgShape"/><path fill="#ffbf66" d="M770.12,1335.8c-93.68-93.78-131.4-177.81-144.48-219.7c-6.51-20.84-0.33-43.86,16.5-57.75      c75.14-62.04,278.84-59.8,278.84-59.8S734.18,1147.17,770.12,1335.8z" class="colorfa9bbd svgShape"/><path fill="#eac188" d="M981.83,808.56c0,0-45.32,16.85-66.62-15.49c0,0,28.71-226.43,78.71-285.06l30.87,62.33l-16.16,78.63     l-9.02,58.05L981.83,808.56z" class="colorea88b0 svgShape"/><path fill="#ffbf66" d="M981.83 808.56l2.04-272.96c1.11-35.59 44.64-57.61 73.97-37.42l236.22 155.06L981.83 808.56zM341.15 2034.19c6.91 18.93 20.84 35.33 40.32 47.54.08 12.93 2.54 25.48 7.11 36.47 25.55 58.61 96.55 75.81 151.58 79.97l5.46.39.62-29.95-5.04-.26c-47.23-2.3-108.06-14.58-129.73-60.08-1.97-4.47-3.49-9.31-4.53-14.4 10.32 3.46 22.27 5.38 34.01 5.38 31.81 0 55.89-13.45 64.4-36 5.61-15.93 2.95-33.29-7.27-47.72-10.55-14.92-27.29-23.82-44.69-23.82-1.42 0-2.87.05-4.29.15-39.49 4.92-61.35 39.98-66.44 73.4-2.51-1.73-4.91-3.6-7.27-5.51-35.29-28.09-31.03-78.29-26.23-103.07.53-2.73-1.22-5.37-3.93-5.99l0 0-.08-.02c-2.79-.64-5.6 1.11-6.2 3.91C332.1 1986.5 332.82 2011.9 341.15 2034.19zM405.37 2077.15c.18-27.28 13.4-51.13 34.27-61.32 4.58-2.27 9.41-3.44 14.38-3.44 10.89 0 21.93 5.79 28.78 15.16 6.62 9 8.48 19.58 5.25 29.85-5.95 19.19-31.27 24.08-41.9 25.27-2.84.34-5.79.49-8.74.49C426.75 2083.15 415.97 2081.13 405.37 2077.15z" class="colorfa9bbd svgShape"/><circle cx="518.97" cy="1964.58" r="39.81" fill="#eac188" class="colorea88b0 svgShape"/><circle cx="518.97" cy="1964.58" r="26.71" fill="#ffffff" transform="rotate(-85.934 518.996 1964.567)" class="colorfff svgShape"/><path fill="#f2f2f2" d="M2414.15,465.11c0,0-15.38,1.75-37.72-31.83c0,0-44.18,21.01-77.04-20.48c0,0-10.68-1.74-29.39-26.13      l13.64-6.13c0,0-7.85-0.34-19.69-11.54c-4.72-4.48-10.09-10.69-15.86-19.34l13.97-10.91c0,0-6.5-2.59-14.71-11.19l-0.23-0.27      c-0.35-0.36-0.69-0.72-1.02-1.09c-2.89-3.16-5.93-7.04-8.95-11.79c0,0,8.42-13.2,26.65-12.68c0,0-16.61-9.63-30.75-31.15      c0,0,17.09-19.22,42.58-9.94c-1.62-1.16-38.2-26.73-44.86-48.2c0,0,20.36-8.99,36.66-2.08c0,0-28.08-28.42-31.8-49.5      c0,0,17-4.31,37.85,8.17c0,0-30.79-37.04-29.05-65.5c0,0,11.41,0.21,21.28,8.85c0,0-25.78-50.24-12.33-87.35      c9.73,26.96,25.57,52.78,44.89,77.96c13.43,17.52,28.53,34.77,44.38,51.87l0.85-9.87c2.1,4.22,4.57,8.29,7.39,12.09      c2.3,3.16,4.85,6.15,7.62,8.91c6.49,6.44,15.96,14.3,28.73,21.28c0,0,106.68,62.82,33.73,206.64      C2420.99,393.89,2399.66,438.07,2414.15,465.11z" class="colorf2f2f2 svgShape"/><path fill="#eaeaea" d="M2262.88 205.45c-8.09-9.05-24.45-28.88-27.23-44.61 0 0 17-4.31 37.85 8.17 0 0-30.79-37.04-29.05-65.5 0 0 11.41.21 21.28 8.85 0 0-25.78-50.24-12.33-87.35 1.12 3.14 2.35 6.26 3.64 9.37-10.55 36.66 13.53 83.59 13.53 83.59-9.86-8.64-21.28-8.85-21.28-8.85-1.75 28.47 29.05 65.5 29.05 65.5-20.85-12.47-37.85-8.17-37.85-8.17C2242.8 179.46 2254.36 195.27 2262.88 205.45zM2235.64 218.03c1.65 5.36 5.18 10.98 9.57 16.41-6.55-7.09-12.16-14.79-14.41-22.02 0 0 19.91-8.79 36.12-2.31 3.22 3.64 5.39 5.84 5.39 5.84C2255.99 209.04 2235.64 218.03 2235.64 218.03zM2237.92 276.17c2.25 3.41 4.55 6.53 6.86 9.37-3.81-4.14-7.85-9.14-11.71-14.99 0 0 15.15-17.04 38.17-11.28 5.09 4.01 8.77 6.6 9.26 6.95C2255.01 256.95 2237.92 276.17 2237.92 276.17zM2247.38 327.58l-.17-.2c-.35-.36-.69-.72-1.02-1.09-2.89-3.16-5.93-7.04-8.95-11.79 0 0 8.42-13.21 26.65-12.68 5.98 3.71 9.09 3.25 9.45 3.49-18.21-.5-31.26 14.81-31.26 14.81C2243.84 322.89 2245.63 325.37 2247.38 327.58zM2260.12 365.1c-3.72-3.99-7.75-9.07-12.03-15.45l13.97-10.9c5.12 2.94 8.98 1.53 8.98 1.53l-18.1 14.98C2255.42 358.97 2257.84 362.23 2260.12 365.1zM2380.56 439.18c-5.71 2.45-45.87 17.66-76.31-20.76 32.19 33.85 72.17 14.85 72.17 14.85C2377.83 435.39 2379.22 437.36 2380.56 439.18zM2304.24 418.4c0 0-9.32-1.51-25.81-21.63 13.45 14.8 20.96 16.02 20.96 16.02C2300.98 414.82 2302.59 416.68 2304.24 418.4z" class="coloreaeaea svgShape"/><path fill="#eaeaea" d="M2283.64,380.53l-4.49,2.02c-2.91-1.71-6.4-4.23-10.35-7.95c-2.7-2.55-5.61-5.69-8.68-9.51      c1.31,1.43,2.59,2.72,3.83,3.89C2275.79,380.18,2283.64,380.53,2283.64,380.53z" class="coloreaeaea svgShape"/><path fill="#f2f2f2" d="M2524.93,593.34c0,0-3.96,14.97,26.01,41.95c0,0-27.2,40.66,9.08,79.19c0,0,0.17,10.82,21.58,32.87      l8.05-12.61c0,0-0.8,7.82,8.56,21.16c3.75,5.32,9.11,11.53,16.83,18.5l12.82-12.24c0,0,1.62,6.81,8.94,16.18l0.23,0.27      c0.3,0.4,0.61,0.79,0.93,1.17c2.71,3.32,6.1,6.89,10.37,10.57c0,0,14.29-6.42,16.42-24.53c0,0,7.11,17.83,26.35,34.95      c0,0,21.5-14.12,16.02-40.68c0.91,1.77,20.9,41.68,41.18,51.38c0,0,11.85-18.83,7.39-35.97c0,0,24.04,31.91,44.35,38.65      c0,0,6.73-16.2-2.58-38.63c0,0,32.17,35.85,60.59,38.26c0,0,1.45-11.32-5.66-22.34c0,0,45.96,32.8,84.63,24.88      c-25.26-13.54-48.51-32.97-70.62-55.74c-15.39-15.84-30.26-33.28-44.87-51.45l9.89,0.6c-3.88-2.69-7.54-5.73-10.89-9.07      c-2.79-2.74-5.38-5.69-7.71-8.83c-5.43-7.36-11.83-17.86-16.88-31.51c0,0-46.66-114.67-199.55-63.38      C2596.38,596.91,2549.57,611.6,2524.93,593.34z" class="colorf2f2f2 svgShape"/><path fill="#eaeaea" d="M2759.86 780.71c7.78 9.32 25.03 28.39 40.18 33.42 0 0 6.73-16.2-2.58-38.63 0 0 32.17 35.85 60.59 38.26 0 0 1.45-11.32-5.66-22.34 0 0 45.96 32.8 84.63 24.88-2.94-1.57-5.85-3.23-8.74-4.96-37.8 5.12-80.74-25.53-80.74-25.53 7.11 11.01 5.66 22.34 5.66 22.34-28.42-2.41-60.59-38.25-60.59-38.25 9.31 22.44 2.58 38.63 2.58 38.63C2782.66 804.36 2768.7 790.63 2759.86 780.71zM2743.46 805.85c-5.06-2.41-10.11-6.72-14.84-11.85 6.06 7.51 12.87 14.18 19.69 17.46 0 0 11.59-18.42 7.53-35.4-3.14-3.72-4.99-6.18-4.99-6.18C2755.31 787.01 2743.46 805.85 2743.46 805.85zM2686.26 795.14c-3.04-2.72-5.79-5.45-8.28-8.15 3.55 4.38 7.9 9.1 13.13 13.76 0 0 19.05-12.51 16.71-36.12-3.23-5.62-5.26-9.63-5.53-10.17C2707.76 781.02 2686.26 795.14 2686.26 795.14zM2636.78 778.32l.17.2c.3.4.61.79.93 1.17 2.71 3.31 6.1 6.89 10.37 10.57 0 0 14.29-6.42 16.42-24.53-2.8-6.45-1.9-9.47-2.08-9.86-2.15 18.09-19.19 28.77-19.19 28.77C2640.9 782.5 2638.71 780.37 2636.78 778.32zM2601.51 760.26c3.41 4.26 7.84 8.99 13.54 14.14l12.81-12.24c-2.16-5.5-.21-9.11-.21-9.11l-17.45 15.74C2606.88 765.8 2604.01 762.93 2601.51 760.26zM2545.7 630.33c-3.25 5.29-24.14 42.81 9.46 78.52-28.82-36.77-4.21-73.56-4.21-73.56C2549.06 633.59 2547.31 631.92 2545.7 630.33zM2555.18 708.87c0 0 .14 9.45 17.65 28.68-12.69-15.45-12.8-23.07-12.8-23.07C2558.25 712.61 2556.64 710.74 2555.18 708.87z" class="coloreaeaea svgShape"/><path fill="#eaeaea" d="M2589.66,734.74l-2.65,4.15c1.27,3.13,3.25,6.95,6.36,11.4c2.13,3.04,4.81,6.38,8.15,9.97      c-1.22-1.5-2.32-2.95-3.3-4.36C2588.85,742.56,2589.66,734.74,2589.66,734.74z" class="coloreaeaea svgShape"/><g fill="#000000" class="color000 svgShape"><path fill="#ff9e02" d="M2576.8,639.59c-64.21,55.47-161.23,48.39-216.71-15.82c-55.47-64.21-48.39-161.23,15.82-216.7       s161.23-48.39,216.71,15.82S2641.01,584.12,2576.8,639.59z" class="colorffb902 svgShape"/><path fill="#ffa30f" d="M2576.81,639.59c-47.47,41.01-112.86,47.83-166.15,22.66c52.31,22.41,115.1,14.76,161.07-24.95       c64.21-55.47,71.29-152.49,15.82-216.7c-14.43-16.7-31.67-29.54-50.41-38.42c20.71,8.9,39.76,22.5,55.49,40.71       C2648.1,487.1,2641.01,584.12,2576.81,639.59z" class="colorf2a807 svgShape"/><circle cx="2476.36" cy="523.33" r="129.6" fill="#ffa30f" class="colorf2a807 svgShape"/><path fill="#f7960d" d="M2449.05,650.02c-26.59-5.71-51.61-19.8-70.76-41.97c-46.79-54.16-40.82-136.01,13.35-182.8       c32.74-28.29,75.6-37.29,114.71-28.01c-38.35-8.21-79.97,1.02-111.94,28.64c-54.16,46.79-60.14,128.64-13.35,182.8       C2399.55,630.08,2423.5,643.95,2449.05,650.02z" class="colore59c0a svgShape"/><path fill="#db8307" d="M2561.09,621.4c-28.53,24.65-64.74,34.66-99.47,30.69c31.36,0.98,63.16-9.35,88.76-31.47       c54.16-46.79,60.14-128.63,13.35-182.79c-22.12-25.61-52.09-40.44-83.25-44.03c34.94,1.12,69.31,16.28,93.96,44.81       C2621.23,492.77,2615.25,574.6,2561.09,621.4z" class="colordb9507 svgShape"/><path fill="#c67605" d="M2470.24,598.39c-7.5,1.4-15.31,0.68-23.43-2.17c-8.12-2.85-15.76-7.89-22.95-15.09l-13.33,11.51        l-9.1-10.53l13.49-11.66c-8.49-11.82-12.8-23.52-12.93-35.09s4.53-21.63,14-30.19l21.32,24.68c-7.33,7.48-8.6,15.66-3.8,24.54        l31.42-27.15c-4.85-9.6-8.37-17.67-10.56-24.2s-2.62-13.45-1.26-20.75c1.35-7.3,5.82-14.22,13.38-20.76        c9.54-8.24,20.29-11.55,32.25-9.9c11.95,1.64,23.06,7.51,33.32,17.62l13.33-11.51l9.1,10.53l-13.33,11.51        c8.22,11.29,12.31,22.45,12.28,33.5c-0.04,11.05-4.55,21.12-13.54,30.23l-21.46-24.84c2.89-3.08,4.69-6.59,5.39-10.55        c0.7-3.96,0.17-7.95-1.59-11.99l-31.1,26.86c5.02,10.03,8.63,18.26,10.84,24.68c2.2,6.43,2.66,13.27,1.35,20.52        c-1.3,7.25-5.73,14.15-13.3,20.69C2484.35,593.82,2477.74,596.99,2470.24,598.39z M2482.46,495.47        c-0.35,4.13,0.55,8.9,2.73,14.3l28.46-24.59c-3.96-3.47-8.14-5.32-12.54-5.54c-4.41-0.22-8.63,1.43-12.69,4.93        C2484.8,487.7,2482.81,491.33,2482.46,495.47z M2455.86,570.6c4.67,0.08,8.87-1.48,12.6-4.71c3.62-3.13,5.53-6.79,5.74-10.99        c0.2-4.2-0.83-9.05-3.1-14.56l-28.79,24.87C2446.67,568.72,2451.19,570.51,2455.86,570.6z" class="colorc68005 svgShape"/><path fill="#ffffff" d="M2466.73,594.32c-7.5,1.41-15.31,0.68-23.42-2.17c-8.12-2.85-15.76-7.89-22.95-15.09l-13.33,11.51        l-9.1-10.53l13.49-11.66c-8.49-11.82-12.8-23.52-12.93-35.09s4.53-21.63,14-30.19l21.32,24.68c-7.33,7.48-8.6,15.66-3.8,24.54        l31.42-27.15c-4.85-9.6-8.37-17.67-10.56-24.2c-2.2-6.53-2.61-13.45-1.26-20.75c1.36-7.3,5.82-14.22,13.39-20.76        c9.54-8.24,20.29-11.54,32.25-9.9c11.95,1.64,23.06,7.51,33.32,17.62l13.33-11.51l9.1,10.53l-13.33,11.51        c8.22,11.29,12.31,22.45,12.27,33.5s-4.55,21.12-13.53,30.23l-21.46-24.84c2.9-3.08,4.69-6.59,5.39-10.55        s0.17-7.95-1.59-11.99l-31.1,26.86c5.02,10.03,8.63,18.26,10.84,24.68c2.2,6.43,2.66,13.27,1.36,20.52        c-1.3,7.25-5.74,14.15-13.3,20.69C2480.83,589.75,2474.23,592.92,2466.73,594.32z M2478.94,491.4        c-0.35,4.13,0.56,8.9,2.73,14.3l28.46-24.59c-3.96-3.48-8.14-5.32-12.54-5.54c-4.41-0.22-8.63,1.43-12.69,4.93        C2481.29,483.63,2479.3,487.26,2478.94,491.4z M2452.34,566.53c4.67,0.08,8.87-1.48,12.6-4.71c3.62-3.13,5.53-6.79,5.74-10.99        c0.2-4.2-0.83-9.05-3.1-14.56l-28.79,24.87C2443.15,564.65,2447.67,566.44,2452.34,566.53z" class="colorfff svgShape"/><polygon fill="#ffffff" points="2472.97 405.17 2477.19 393.23 2474.3 380.89 2486.24 385.11 2498.58 382.22 2494.36 394.17 2497.25 406.5 2485.3 402.28" class="colorfff svgShape"/><polygon fill="#ffffff" points="2457.59 399.39 2459.1 395.13 2458.07 390.74 2462.33 392.24 2466.72 391.21 2465.22 395.47 2466.25 399.87 2461.99 398.36" class="colorfff svgShape"/></g><g fill="#000000" class="color000 svgShape"><path fill="#f2f2f2" d="M1779.12,572.89c0,0-9.96,0.56-23.1-21.88c0,0-29.21,11.89-48.83-16.03c0,0-6.81-1.51-17.95-17.9l9.01-3.44      c0,0-5.04-0.51-12.25-8.15c-2.87-3.06-6.1-7.25-9.49-13.03l9.4-6.5c0,0-4.09-1.91-9.05-7.75l-0.14-0.18      c-0.21-0.24-0.42-0.49-0.62-0.74c-1.74-2.14-3.56-4.75-5.32-7.92c0,0,5.91-8.19,17.62-7.18c0,0-10.33-6.81-18.64-21.19      c0,0,11.71-11.74,27.77-4.83c-1-0.8-23.6-18.61-27.09-32.68c0,0,13.43-5.03,23.67,0.01c0,0-17.02-19.33-18.64-33.03      c0,0,11.1-2.14,24.06,6.65c0,0-18.45-24.97-16.28-43.23c0,0,7.34,0.56,13.37,6.48c0,0-14.74-33.29-4.71-56.67      c5.27,17.71,14.51,34.92,26.01,51.84c8,11.77,17.08,23.43,26.65,35.02l0.91-6.32c1.2,2.8,2.63,5.51,4.31,8.06      c1.37,2.12,2.9,4.14,4.58,6.02c3.94,4.38,9.74,9.79,17.7,14.76c0,0,66.34,44.37,14.08,134.24      C1786.15,527.31,1770.79,554.96,1779.12,572.89z" class="colorf2f2f2 svgShape"/><path fill="#eaeaea" d="M1691.35 400.19c-4.87-6.12-14.67-19.49-15.88-29.72 0 0 11.1-2.14 24.06 6.65 0 0-18.45-24.97-16.28-43.23 0 0 7.34.56 13.37 6.48 0 0-14.74-33.29-4.71-56.67.61 2.06 1.28 4.12 2 6.16-8.15 23.2 5.63 54.3 5.63 54.3-6.03-5.92-13.37-6.48-13.37-6.48-2.18 18.26 16.28 43.23 16.28 43.23-12.96-8.8-24.06-6.65-24.06-6.65C1679.38 382.72 1686.24 393.32 1691.35 400.19zM1673.34 407.28c.86 3.51 2.93 7.26 5.55 10.92-3.95-4.8-7.28-9.97-8.46-14.71 0 0 13.14-4.92 23.33-.15 1.94 2.46 3.26 3.96 3.26 3.96C1686.78 402.24 1673.34 407.28 1673.34 407.28zM1672.67 444.78c1.32 2.28 2.69 4.37 4.07 6.29-2.3-2.81-4.72-6.17-6.98-10.08 0 0 10.38-10.4 24.98-5.85 3.13 2.77 5.4 4.57 5.7 4.82C1684.38 433.04 1672.67 444.78 1672.67 444.78zM1676.86 478.22l-.1-.13c-.21-.24-.42-.49-.62-.74-1.74-2.14-3.56-4.75-5.32-7.92 0 0 5.91-8.19 17.62-7.18 3.71 2.61 5.73 2.43 5.95 2.59-11.7-.99-20.66 8.38-20.66 8.38C1674.75 475.07 1675.81 476.73 1676.86 478.22zM1683.67 502.84c-2.25-2.71-4.66-6.12-7.17-10.39l9.4-6.5c3.19 2.08 5.72 1.32 5.72 1.32l-12.21 8.97C1680.87 498.72 1682.31 500.91 1683.67 502.84zM1758.46 554.97c-3.76 1.37-30.17 9.67-48.35-16.18 19.47 22.98 45.9 12.22 45.9 12.22C1756.84 552.43 1757.66 553.75 1758.46 554.97zM1710.1 538.77c0 0-5.95-1.32-15.81-14.87 8.11 10.02 12.9 11.08 12.9 11.08C1708.14 536.35 1709.11 537.61 1710.1 538.77zM1698.24 513.64l-2.96 1.13c-1.81-1.21-3.97-2.96-6.37-5.5-1.65-1.74-3.4-3.87-5.23-6.44.79.97 1.56 1.85 2.32 2.65C1693.2 513.13 1698.24 513.64 1698.24 513.64z" class="coloreaeaea svgShape"/><path fill="#f2f2f2" d="M1845.68,659.52c0,0-3.1,9.48,15.19,27.96c0,0-19.01,25.16,2.92,51.31c0,0-0.29,6.97,12.68,21.96l5.65-7.82      c0,0-0.8,5,4.72,13.93c2.22,3.56,5.44,7.76,10.15,12.53l8.7-7.4c0,0,0.79,4.44,5.16,10.74l0.14,0.18      c0.18,0.27,0.36,0.53,0.56,0.79c1.62,2.23,3.67,4.66,6.28,7.18c0,0,9.43-3.6,11.47-15.18c0,0,3.92,11.74,15.67,23.46      c0,0,14.36-8.29,11.81-25.59c0.52,1.17,11.91,27.59,24.61,34.59c0,0,8.32-11.68,6.08-22.88c0,0,14.3,21.43,27.12,26.51      c0,0,4.93-10.18-0.24-24.96c0,0,19.38,24.26,37.59,26.86c0,0,1.35-7.23-2.82-14.59c0,0,28.37,22.81,53.55,19.14      c-15.76-9.65-30-23.01-43.39-38.48c-9.32-10.76-18.25-22.54-26.98-34.77l6.34,0.75c-2.39-1.88-4.64-3.96-6.68-6.24      c-1.7-1.87-3.25-3.86-4.63-5.97c-3.22-4.94-6.96-11.93-9.7-20.9c0,0-25.79-75.53-126.09-48.16      C1891.54,664.46,1860.87,672.18,1845.68,659.52z" class="colorf2f2f2 svgShape"/><path fill="#eaeaea" d="M1989.98 788.79c4.66 6.28 15.06 19.19 24.63 22.99 0 0 4.93-10.17-.24-24.96 0 0 19.38 24.26 37.59 26.86 0 0 1.35-7.23-2.82-14.59 0 0 28.37 22.81 53.55 19.14-1.83-1.12-3.65-2.3-5.44-3.52-24.52 1.9-51.02-19.41-51.02-19.41 4.17 7.35 2.82 14.59 2.82 14.59-18.2-2.6-37.59-26.86-37.59-26.86 5.17 14.79.24 24.96.24 24.96C2003.78 804.86 1995.3 795.5 1989.98 788.79zM1978.49 804.36c-3.17-1.74-6.26-4.7-9.12-8.17 3.62 5.06 7.76 9.6 12.03 11.96 0 0 8.14-11.43 6.16-22.51-1.88-2.51-2.99-4.16-2.99-4.16C1986.81 792.68 1978.49 804.36 1978.49 804.36zM1942.07 795.36c-1.86-1.86-3.53-3.72-5.03-5.55 2.12 2.95 4.75 6.15 7.94 9.34 0 0 12.73-7.35 12.09-22.63-1.87-3.74-3.03-6.39-3.19-6.75C1956.43 787.07 1942.07 795.36 1942.07 795.36zM1910.84 782.7l.1.13c.18.27.36.53.56.79 1.62 2.23 3.68 4.66 6.28 7.18 0 0 9.43-3.6 11.47-15.18-1.56-4.26-.87-6.16-.97-6.42-2.05 11.56-13.42 17.81-13.42 17.81C1913.34 785.55 1912.01 784.1 1910.84 782.7zM1888.81 769.78c2.04 2.87 4.72 6.07 8.19 9.6l8.7-7.41c-1.19-3.62.2-5.87.2-5.87l-11.81 9.49C1892.06 773.55 1890.32 771.59 1888.81 769.78zM1857.69 684.09c-2.29 3.28-17.12 26.67 3.19 50.89-17.19-24.73.01-47.5.01-47.5C1859.73 686.32 1858.66 685.18 1857.69 684.09zM1860.89 734.99c0 0-.26 6.08 10.3 19.11-7.6-10.41-7.39-15.32-7.39-15.32C1862.73 737.51 1861.76 736.25 1860.89 734.99z" class="coloreaeaea svgShape"/><path fill="#eaeaea" d="M1882.12,752.92l-1.86,2.57c0.7,2.06,1.84,4.59,3.67,7.57c1.26,2.04,2.86,4.28,4.88,6.72      c-0.73-1.01-1.38-1.99-1.96-2.93C1881.32,757.92,1882.12,752.92,1882.12,752.92z" class="coloreaeaea svgShape"/><g fill="#000000" class="color000 svgShape"><circle cx="1816.94" cy="612.68" r="99.05" fill="#ff9e02" transform="rotate(-45.001 1816.943 612.7)" class="colorffb902 svgShape"/><path fill="#ffa30f" d="M1877.37,691.2c-32.07,24.64-74.41,26.62-107.78,8.45c32.84,16.36,73.54,13.75,104.59-10.11       c43.37-33.33,51.52-95.52,18.18-138.89c-8.67-11.28-19.29-20.18-31.03-26.59c13,6.49,24.76,15.95,34.22,28.25       C1928.88,595.69,1920.74,657.87,1877.37,691.2z" class="colorf2a807 svgShape"/><path fill="#ffa30f" d="M1867.92,678.91c-36.59,28.12-89.04,21.25-117.16-15.34s-21.25-89.04,15.34-117.16       c36.59-28.12,89.04-21.25,117.16,15.34C1911.38,598.34,1904.51,650.8,1867.92,678.91z" class="colorf2a807 svgShape"/><path fill="#f7960d" d="M1794.76,693.2c-16.9-4.66-32.49-14.65-43.99-29.62c-28.12-36.59-21.25-89.05,15.34-117.16       c22.12-17,50.04-21.21,74.87-13.8c-24.38-6.7-51.51-2.3-73.11,14.3c-36.59,28.12-43.46,80.57-15.34,117.16       C1763.63,678.54,1778.53,688.35,1794.76,693.2z" class="colore59c0a svgShape"/><path fill="#db8307" d="M1867.92,678.91c-19.27,14.81-42.95,19.92-65.16,16.08c20.14,1.79,40.99-3.69,58.29-16.98       c36.59-28.12,43.46-80.57,15.34-117.16c-13.29-17.3-32.03-27.95-51.96-31.41c22.45,2.01,44.01,13.04,58.82,32.31       C1911.38,598.34,1904.51,650.79,1867.92,678.91z" class="colordb9507 svgShape"/><path fill="#c67605" d="M1810.3,660.75c-4.88,0.63-9.88-0.13-15-2.26c-5.12-2.14-9.85-5.66-14.21-10.56l-9,6.92l-5.47-7.11        l9.11-7c-5.03-7.92-7.37-15.61-7.03-23.06s3.72-13.76,10.12-18.92l12.81,16.67c-5,4.54-6.11,9.76-3.35,15.65l21.23-16.31        c-2.77-6.36-4.74-11.68-5.91-15.97s-1.19-8.75-0.05-13.4c1.14-4.65,4.27-8.94,9.38-12.87c6.45-4.95,13.48-6.68,21.12-5.18        c7.63,1.5,14.57,5.69,20.79,12.57l9-6.92l5.47,7.11l-9,6.92c4.87,7.57,7.09,14.91,6.66,22.01        c-0.43,7.11-3.71,13.43-9.83,18.96l-12.9-16.78c1.98-1.87,3.26-4.07,3.86-6.59s0.4-5.11-0.58-7.77l-21,16.14        c2.86,6.64,4.88,12.07,6.06,16.29s1.22,8.64,0.11,13.26c-1.1,4.62-4.21,8.89-9.32,12.82        C1819.55,658.33,1815.18,660.12,1810.3,660.75z M1821.96,594.96c-0.38,2.65,0.03,5.75,1.23,9.31l19.23-14.78        c-2.42-2.38-5.04-3.73-7.87-4.03c-2.83-0.3-5.61,0.6-8.35,2.71C1823.76,590.04,1822.34,592.31,1821.96,594.96z         M1802.07,642.33c3,0.22,5.76-0.63,8.28-2.56c2.44-1.88,3.81-4.17,4.1-6.86c0.28-2.69-0.2-5.86-1.46-9.49l-19.45,14.95        C1796.22,640.78,1799.07,642.1,1802.07,642.33z" class="colorc68005 svgShape"/><path fill="#ffffff" d="M1808.19,658c-4.88,0.63-9.88-0.13-15-2.26c-5.12-2.14-9.85-5.66-14.21-10.56l-9,6.92l-5.47-7.11l9.11-7        c-5.03-7.92-7.37-15.61-7.03-23.06s3.72-13.76,10.12-18.92l12.81,16.67c-5,4.54-6.11,9.76-3.35,15.65l21.23-16.31        c-2.77-6.36-4.74-11.68-5.91-15.97s-1.19-8.75-0.04-13.4c1.14-4.65,4.27-8.94,9.38-12.87c6.45-4.95,13.48-6.68,21.12-5.18        c7.63,1.5,14.56,5.69,20.79,12.57l9-6.92l5.47,7.11l-9,6.92c4.87,7.57,7.1,14.91,6.66,22.01c-0.43,7.11-3.71,13.43-9.83,18.96        l-12.9-16.78c1.98-1.87,3.26-4.07,3.86-6.59s0.4-5.11-0.58-7.77l-21.01,16.14c2.86,6.64,4.88,12.07,6.06,16.29        s1.22,8.64,0.11,13.26c-1.1,4.62-4.21,8.89-9.32,12.82C1817.44,655.58,1813.07,657.37,1808.19,658z M1819.85,592.21        c-0.38,2.65,0.03,5.75,1.23,9.31l19.23-14.78c-2.42-2.38-5.04-3.72-7.87-4.03c-2.83-0.3-5.61,0.6-8.35,2.71        C1821.65,587.29,1820.23,589.56,1819.85,592.21z M1799.95,639.58c3,0.23,5.76-0.63,8.28-2.56c2.45-1.88,3.81-4.17,4.1-6.86        c0.29-2.7-0.2-5.86-1.46-9.49l-19.45,14.95C1794.11,638.03,1796.95,639.35,1799.95,639.58z" class="colorfff svgShape"/><polygon fill="#ffffff" points="1819.19 536.49 1822.34 528.96 1820.94 520.91 1828.47 524.07 1836.52 522.66 1833.36 530.2 1834.77 538.24 1827.23 535.08" class="colorfff svgShape"/><polygon fill="#ffffff" points="1809.51 532.2 1810.63 529.52 1810.13 526.65 1812.82 527.78 1815.68 527.27 1814.56 529.96 1815.06 532.83 1812.38 531.7" class="colorfff svgShape"/></g></g><g fill="#000000" class="color000 svgShape"><path fill="#f2f2f2" d="M2208.36,1270.09c0,0-8.96,4.39-29.8-11.15c0,0-22.27,22.32-51.21,4.25c0,0-6.86,1.26-23.5-9.5l6.96-6.68      c0,0-4.84,1.49-14.46-2.74c-3.84-1.7-8.44-4.31-13.82-8.31l6.12-9.65c0,0-4.51-0.17-11.35-3.61l-0.2-0.11      c-0.29-0.14-0.58-0.29-0.86-0.44c-2.44-1.3-5.13-2.99-7.99-5.22c0,0,2.26-9.84,13.44-13.48c0,0-12.17-2.25-25.42-12.25      c0,0,6.22-15.38,23.7-15.26c-1.23-0.35-28.98-7.96-37.68-19.55c0,0,10.41-9.87,21.81-9.2c0,0-23.21-11.18-30.03-23.17      c0,0,9.39-6.3,24.75-3.24c0,0-26.72-15.82-31.83-33.48c0,0,6.98-2.35,14.84,0.76c0,0-26.54-24.92-26.4-50.37      c11.75,14.26,26.96,26.51,44.15,37.62c11.95,7.73,24.85,14.93,38.18,21.88l-1.62-6.18c2.19,2.11,4.57,4.05,7.11,5.74      c2.08,1.42,4.28,2.69,6.56,3.76c5.34,2.5,12.78,5.23,22.05,6.7c0,0,78.38,15.03,65.24,118.16      C2197.09,1225.36,2193.71,1256.81,2208.36,1270.09z" class="colorf2f2f2 svgShape"/><path fill="#eaeaea" d="M2060.27 1145.19c-6.87-3.74-21.1-12.24-26.2-21.19 0 0 9.39-6.3 24.75-3.24 0 0-26.72-15.82-31.83-33.48 0 0 6.98-2.34 14.84.76 0 0-26.54-24.92-26.41-50.37 1.36 1.66 2.78 3.29 4.24 4.9 1.53 24.54 26.33 47.83 26.33 47.83-7.86-3.11-14.84-.76-14.84-.76 5.11 17.66 31.83 33.48 31.83 33.48-15.36-3.06-24.75 3.24-24.75 3.24C2042.44 1133.76 2052.89 1140.85 2060.27 1145.19zM2046.45 1158.73c2.16 2.9 5.53 5.54 9.36 7.89-5.51-2.89-10.58-6.35-13.52-10.25 0 0 10.18-9.65 21.43-9.23 2.75 1.51 4.54 2.38 4.54 2.38C2056.86 1148.86 2046.45 1158.73 2046.45 1158.73zM2060.43 1193.54c2.1 1.58 4.18 2.98 6.2 4.21-3.21-1.69-6.75-3.85-10.36-6.56 0 0 5.51-13.62 20.73-15.12 3.96 1.33 6.75 2.11 7.13 2.22C2066.65 1178.17 2060.43 1193.54 2060.43 1193.54zM2077.31 1222.7l-.15-.08c-.29-.14-.58-.28-.86-.44-2.44-1.29-5.12-2.99-7.99-5.22 0 0 2.25-9.84 13.44-13.48 4.43.96 6.23.01 6.49.07-11.17 3.64-15.77 15.76-15.77 15.76C2074.14 1220.63 2075.77 1221.74 2077.31 1222.7zM2093.18 1242.73c-3.12-1.62-6.67-3.82-10.65-6.77l6.12-9.64c3.75.67 5.78-1.02 5.78-1.02l-7.75 13.02C2088.99 1240.03 2091.17 1241.48 2093.18 1242.73zM2182.36 1261.62c-2.93 2.72-24.03 20.66-50.83 3.92 26.88 13.58 47.04-6.62 47.04-6.62C2179.87 1259.91 2181.15 1260.81 2182.36 1261.62zM2131.51 1265.54c0 0-5.99 1.1-20.36-7.54 11.37 6.07 16.2 5.18 16.2 5.18C2128.76 1264.06 2130.14 1264.85 2131.51 1265.54zM2110.8 1247l-2.29 2.2c-2.14-.41-4.8-1.18-8.01-2.58-2.19-.96-4.64-2.24-7.33-3.89 1.1.58 2.16 1.09 3.17 1.54C2105.96 1248.49 2110.8 1247 2110.8 1247z" class="coloreaeaea svgShape"/><path fill="#f2f2f2" d="M2303.41,1323.95c0,0,0.84,9.95,24.88,19.83c0,0-7.71,30.58,22.67,46.12c0,0,2.44,6.53,20.23,15.29      l2.16-9.4c0,0,1.21,4.92,9.78,10.99c3.43,2.42,8.03,5.03,14.23,7.58l5.14-10.21c0,0,2.46,3.78,8.93,7.89l0.2,0.11      c0.27,0.17,0.54,0.35,0.82,0.51c2.36,1.43,5.2,2.86,8.58,4.17c0,0,7.29-6.99,4.66-18.45c0,0,8.18,9.29,23.57,15.51      c0,0,10-13.23,0.92-28.17c0.94,0.88,21.72,20.78,36.13,22.28c0,0,3.11-14-3.31-23.44c0,0,21.51,14.17,35.3,13.86      c0,0,0.58-11.29-9.94-22.9c0,0,27.3,14.8,45.08,10.1c0,0-1.57-7.19-8.28-12.34c0,0,35.01,9.96,56.78-3.22      c-18.27-2.75-36.6-9.51-54.95-18.55c-12.77-6.28-25.58-13.65-38.39-21.52l6.13-1.78c-2.94-0.8-5.82-1.84-8.58-3.15      c-2.29-1.06-4.5-2.29-6.6-3.69c-4.89-3.29-11.05-8.28-17.07-15.48c0,0-53.17-59.52-134.9,4.74      C2347.57,1310.65,2322.33,1329.7,2303.41,1323.95z" class="colorf2f2f2 svgShape"/><path fill="#eaeaea" d="M2486.65 1386.84c6.74 3.97 21.34 11.81 31.64 11.59 0 0 .58-11.29-9.94-22.9 0 0 27.3 14.8 45.08 10.1 0 0-1.57-7.19-8.28-12.34 0 0 35.01 9.96 56.78-3.22-2.13-.31-4.26-.7-6.38-1.12-21.84 11.29-54.56 1.99-54.56 1.99 6.71 5.15 8.28 12.34 8.28 12.34-17.78 4.69-45.08-10.1-45.08-10.1 10.52 11.61 9.94 22.9 9.94 22.9C2505.61 1396.26 2494.16 1390.95 2486.65 1386.84zM2482.13 1405.65c-3.59-.36-7.59-1.89-11.58-3.98 5.31 3.25 10.88 5.82 15.74 6.34 0 0 3.05-13.69-3.1-23.13-2.71-1.58-4.37-2.67-4.37-2.67C2485.25 1391.65 2482.13 1405.65 2482.13 1405.65zM2445.09 1411.55c-2.44-.99-4.7-2.06-6.79-3.15 3.1 1.89 6.77 3.81 10.95 5.51 0 0 8.86-11.72 2.32-25.55-3.18-2.71-5.28-4.71-5.56-4.98C2455.08 1398.31 2445.09 1411.55 2445.09 1411.55zM2411.39 1412.05l.15.08c.27.17.54.35.82.51 2.36 1.43 5.2 2.86 8.58 4.17 0 0 7.28-6.99 4.66-18.45-3.1-3.31-3.2-5.34-3.4-5.53 2.61 11.45-5.42 21.63-5.42 21.63C2414.8 1413.69 2413.01 1412.88 2411.39 1412.05zM2386.06 1408.72c2.99 1.85 6.71 3.76 11.28 5.65l5.13-10.21c-2.5-2.87-2.1-5.48-2.1-5.48l-7.19 13.34C2390.53 1410.93 2388.17 1409.8 2386.06 1408.72zM2324.03 1341.92c-.83 3.92-5.38 31.23 22.75 45.63-25.46-16.08-18.49-43.76-18.49-43.76C2326.78 1343.17 2325.36 1342.54 2324.03 1341.92zM2346.8 1387.55c0 0 2.13 5.7 16.93 13.59-11.05-6.63-12.77-11.23-12.77-11.23C2349.48 1389.16 2348.09 1388.37 2346.8 1387.55zM2373.34 1395.8l-.71 3.1c1.45 1.62 3.48 3.52 6.33 5.54 1.95 1.39 4.3 2.83 7.1 4.29-1.07-.65-2.05-1.29-2.95-1.93C2374.55 1400.72 2373.34 1395.8 2373.34 1395.8z" class="coloreaeaea svgShape"/><g fill="#000000" class="color000 svgShape"><circle cx="2258.72" cy="1291.97" r="99.05" fill="#ff9e02" class="colorffb902 svgShape"/><path fill="#ffa30f" d="M2344.93,1340.8c-19.94,35.18-58.17,53.49-95.98,49.75c36.62,2.28,73.09-15.97,92.4-50.04       c26.97-47.59,10.26-108.04-37.33-135.01c-12.38-7.02-25.63-11.08-38.93-12.41c14.5,0.92,29.02,5.05,42.51,12.7       C2355.18,1232.76,2371.9,1293.21,2344.93,1340.8z" class="colorf2a807 svgShape"/><circle cx="2258.76" cy="1291.9" r="83.55" fill="#ffa30f" class="colorf2a807 svgShape"/><path fill="#f7960d" d="M2269.61,1374.81c-17.38,2.29-35.63-0.84-52.06-10.16c-40.15-22.75-54.25-73.74-31.49-113.89       c13.75-24.27,37.83-39.02,63.59-41.86c-25.07,3.32-48.34,17.94-61.77,41.64c-22.75,40.15-8.65,91.14,31.49,113.89       C2235.24,1373.42,2252.78,1376.66,2269.61,1374.81z" class="colore59c0a svgShape"/><path fill="#db8307" d="M2331.44,1333.16c-11.99,21.15-31.8,35.07-53.75,40.18c19.25-6.2,36.32-19.36,47.08-38.34       c22.75-40.15,8.65-91.13-31.49-113.88c-18.98-10.76-40.39-13.28-60.09-8.7c21.46-6.89,45.61-5.13,66.76,6.86       C2340.1,1242.03,2354.2,1293.01,2331.44,1333.16z" class="colordb9507 svgShape"/><path fill="#c67605" d="M2271.3,1338.87c-4.25,2.48-9.15,3.73-14.69,3.75c-5.55,0.03-11.28-1.37-17.2-4.19l-5.6,9.88l-7.8-4.42        l5.67-10c-7.72-5.34-12.87-11.51-15.45-18.5c-2.59-7-1.93-14.12,1.96-21.37l18.29,10.37c-2.83,6.13-1.83,11.37,3.01,15.72        l13.2-23.29c-5.02-4.78-8.91-8.91-11.66-12.41c-2.75-3.49-4.5-7.6-5.26-12.32c-0.76-4.73,0.45-9.89,3.63-15.5        c4.01-7.07,9.82-11.41,17.44-13c7.61-1.59,15.63-0.43,24.05,3.48l5.6-9.88l7.8,4.42l-5.6,9.88        c7.44,5.07,12.34,10.97,14.71,17.68c2.37,6.72,1.81,13.81-1.67,21.29l-18.41-10.44c1.09-2.5,1.42-5.02,0.99-7.57        c-0.43-2.55-1.62-4.87-3.56-6.94l-13.06,23.05c5.22,5,9.19,9.21,11.93,12.64c2.73,3.43,4.49,7.48,5.27,12.17        c0.78,4.69-0.42,9.83-3.6,15.44C2278.87,1333.04,2275.55,1336.39,2271.3,1338.87z M2256.42,1273.73        c0.68,2.59,2.27,5.29,4.76,8.09l11.96-21.1c-3.16-1.25-6.1-1.47-8.82-0.65s-4.93,2.74-6.64,5.74        C2256.16,1268.5,2255.74,1271.14,2256.42,1273.73z M2256.54,1325.11c2.85-0.96,5.07-2.82,6.63-5.59        c1.52-2.68,1.89-5.32,1.1-7.91c-0.79-2.59-2.47-5.32-5.04-8.17l-12.1,21.34C2250.55,1325.96,2253.69,1326.07,2256.54,1325.11z        " class="colorc68005 svgShape"/><path fill="#ffffff" d="M2268.28,1337.16c-4.25,2.48-9.15,3.73-14.69,3.75c-5.55,0.03-11.28-1.37-17.2-4.19l-5.6,9.88l-7.8-4.42        l5.67-10c-7.72-5.34-12.87-11.51-15.45-18.5c-2.59-7-1.93-14.12,1.96-21.37l18.29,10.37c-2.83,6.13-1.83,11.37,3.01,15.72        l13.2-23.29c-5.02-4.78-8.91-8.92-11.66-12.41s-4.5-7.6-5.26-12.33s0.45-9.89,3.63-15.5c4.01-7.07,9.82-11.4,17.44-13        c7.61-1.59,15.63-0.43,24.05,3.48l5.6-9.88l7.8,4.42l-5.6,9.88c7.43,5.07,12.34,10.97,14.71,17.68        c2.37,6.71,1.81,13.81-1.67,21.29l-18.41-10.44c1.09-2.5,1.42-5.02,0.99-7.57c-0.43-2.55-1.62-4.87-3.56-6.94l-13.06,23.05        c5.22,5,9.2,9.22,11.93,12.64c2.73,3.43,4.49,7.48,5.27,12.17c0.78,4.69-0.42,9.83-3.6,15.44        C2275.86,1331.33,2272.53,1334.68,2268.28,1337.16z M2253.4,1272.02c0.68,2.59,2.27,5.29,4.76,8.09l11.96-21.1        c-3.16-1.25-6.1-1.47-8.82-0.65s-4.93,2.74-6.64,5.74C2253.14,1266.79,2252.72,1269.43,2253.4,1272.02z M2253.52,1323.4        c2.85-0.96,5.07-2.82,6.63-5.59c1.52-2.68,1.89-5.32,1.1-7.91c-0.79-2.59-2.47-5.32-5.04-8.17l-12.09,21.34        C2247.54,1324.25,2250.67,1324.36,2253.52,1323.4z" class="colorfff svgShape"/><polygon fill="#ffffff" points="2231.1 1220.96 2231.07 1212.79 2226.64 1205.92 2234.81 1205.9 2241.68 1201.47 2241.7 1209.64 2246.13 1216.5 2237.96 1216.53" class="colorfff svgShape"/><polygon fill="#ffffff" points="2220.51 1220.78 2220.5 1217.86 2218.92 1215.42 2221.83 1215.41 2224.28 1213.83 2224.29 1216.74 2225.87 1219.19 2222.96 1219.2" class="colorfff svgShape"/></g></g><g fill="#000000" class="color000 svgShape"><path fill="#f2f2f2" d="M1413.49,1710.23c0,0-8.96,4.39-29.8-11.15c0,0-22.27,22.32-51.21,4.25c0,0-6.86,1.26-23.5-9.5l6.96-6.68      c0,0-4.84,1.49-14.46-2.74c-3.84-1.7-8.44-4.31-13.82-8.31l6.12-9.65c0,0-4.51-0.17-11.35-3.61l-0.2-0.11      c-0.29-0.14-0.58-0.29-0.86-0.44c-2.44-1.3-5.13-2.99-7.99-5.22c0,0,2.26-9.84,13.44-13.48c0,0-12.17-2.25-25.42-12.25      c0,0,6.22-15.37,23.7-15.26c-1.23-0.35-28.98-7.96-37.68-19.55c0,0,10.41-9.87,21.81-9.2c0,0-23.21-11.18-30.03-23.17      c0,0,9.39-6.3,24.75-3.24c0,0-26.72-15.82-31.83-33.48c0,0,6.98-2.35,14.84,0.76c0,0-26.54-24.92-26.4-50.37      c11.75,14.26,26.96,26.51,44.15,37.62c11.95,7.73,24.85,14.93,38.18,21.88l-1.62-6.18c2.19,2.11,4.57,4.05,7.11,5.74      c2.08,1.42,4.28,2.69,6.56,3.76c5.34,2.5,12.78,5.23,22.05,6.7c0,0,78.38,15.03,65.24,118.16      C1402.22,1665.5,1398.84,1696.95,1413.49,1710.23z" class="colorf2f2f2 svgShape"/><path fill="#eaeaea" d="M1265.4 1585.32c-6.87-3.74-21.1-12.24-26.2-21.19 0 0 9.39-6.3 24.75-3.24 0 0-26.72-15.82-31.83-33.48 0 0 6.98-2.34 14.84.76 0 0-26.54-24.92-26.41-50.37 1.36 1.66 2.78 3.29 4.24 4.9 1.53 24.54 26.33 47.83 26.33 47.83-7.86-3.11-14.84-.76-14.84-.76 5.11 17.66 31.83 33.48 31.83 33.48-15.36-3.06-24.75 3.24-24.75 3.24C1247.57 1573.9 1258.01 1580.99 1265.4 1585.32zM1251.58 1598.86c2.16 2.9 5.53 5.54 9.36 7.89-5.51-2.89-10.58-6.35-13.52-10.25 0 0 10.18-9.65 21.43-9.23 2.75 1.51 4.54 2.38 4.54 2.38C1261.99 1589 1251.58 1598.86 1251.58 1598.86zM1265.55 1633.68c2.1 1.58 4.18 2.98 6.2 4.21-3.21-1.69-6.75-3.85-10.36-6.56 0 0 5.51-13.62 20.73-15.12 3.96 1.33 6.75 2.11 7.13 2.22C1271.77 1618.3 1265.55 1633.68 1265.55 1633.68zM1282.43 1662.84l-.15-.08c-.29-.14-.58-.28-.86-.44-2.44-1.29-5.12-2.99-7.99-5.22 0 0 2.25-9.84 13.44-13.48 4.43.96 6.23.01 6.49.07-11.17 3.64-15.77 15.76-15.77 15.76C1279.27 1660.76 1280.89 1661.88 1282.43 1662.84zM1298.3 1682.86c-3.12-1.62-6.67-3.82-10.65-6.77l6.12-9.64c3.75.67 5.78-1.02 5.78-1.02l-7.75 13.02C1294.12 1680.16 1296.29 1681.61 1298.3 1682.86zM1387.48 1701.76c-2.93 2.72-24.03 20.66-50.83 3.92 26.88 13.58 47.04-6.62 47.04-6.62C1385 1700.05 1386.27 1700.94 1387.48 1701.76zM1336.63 1705.67c0 0-5.99 1.1-20.36-7.54 11.37 6.07 16.2 5.18 16.2 5.18C1333.88 1704.2 1335.26 1704.98 1336.63 1705.67zM1315.92 1687.14l-2.29 2.2c-2.14-.41-4.8-1.18-8.01-2.58-2.19-.96-4.64-2.24-7.33-3.89 1.1.58 2.16 1.09 3.17 1.54C1311.08 1688.63 1315.92 1687.14 1315.92 1687.14z" class="coloreaeaea svgShape"/><path fill="#f2f2f2" d="M1508.53,1764.09c0,0,0.84,9.95,24.88,19.83c0,0-7.71,30.58,22.67,46.12c0,0,2.44,6.53,20.23,15.29      l2.16-9.4c0,0,1.21,4.92,9.78,10.99c3.43,2.42,8.03,5.03,14.23,7.58l5.14-10.21c0,0,2.46,3.78,8.93,7.89l0.2,0.11      c0.27,0.17,0.54,0.35,0.82,0.51c2.36,1.43,5.2,2.86,8.58,4.17c0,0,7.29-6.99,4.66-18.45c0,0,8.18,9.29,23.57,15.51      c0,0,10-13.23,0.92-28.17c0.93,0.88,21.71,20.78,36.13,22.28c0,0,3.11-14-3.31-23.44c0,0,21.51,14.17,35.3,13.86      c0,0,0.58-11.29-9.94-22.9c0,0,27.3,14.8,45.08,10.1c0,0-1.57-7.19-8.28-12.34c0,0,35.01,9.96,56.78-3.22      c-18.27-2.75-36.6-9.51-54.95-18.55c-12.77-6.28-25.58-13.65-38.39-21.52l6.13-1.78c-2.94-0.8-5.82-1.84-8.58-3.15      c-2.29-1.06-4.5-2.29-6.6-3.69c-4.89-3.29-11.05-8.28-17.07-15.48c0,0-53.17-59.52-134.9,4.74      C1552.69,1750.78,1527.45,1769.84,1508.53,1764.09z" class="colorf2f2f2 svgShape"/><path fill="#eaeaea" d="M1691.77 1826.98c6.74 3.97 21.34 11.81 31.64 11.59 0 0 .58-11.29-9.94-22.9 0 0 27.3 14.8 45.08 10.1 0 0-1.57-7.19-8.28-12.34 0 0 35.01 9.96 56.78-3.22-2.13-.31-4.26-.7-6.38-1.12-21.84 11.3-54.56 1.99-54.56 1.99 6.71 5.15 8.28 12.34 8.28 12.34-17.78 4.69-45.08-10.1-45.08-10.1 10.52 11.61 9.94 22.9 9.94 22.9C1710.74 1836.4 1699.29 1831.08 1691.77 1826.98zM1687.26 1845.79c-3.59-.36-7.59-1.89-11.58-3.98 5.31 3.25 10.88 5.82 15.74 6.34 0 0 3.05-13.69-3.1-23.13-2.71-1.58-4.37-2.67-4.37-2.67C1690.37 1831.79 1687.26 1845.79 1687.26 1845.79zM1650.21 1851.68c-2.44-.99-4.7-2.06-6.79-3.15 3.1 1.89 6.77 3.81 10.95 5.51 0 0 8.86-11.72 2.32-25.55-3.18-2.71-5.28-4.71-5.56-4.98C1660.21 1838.45 1650.21 1851.68 1650.21 1851.68zM1616.52 1852.18l.15.08c.27.17.54.35.82.51 2.36 1.43 5.2 2.86 8.58 4.17 0 0 7.28-6.99 4.66-18.45-3.1-3.31-3.2-5.34-3.4-5.53 2.61 11.45-5.42 21.63-5.42 21.63C1619.93 1853.83 1618.13 1853.01 1616.52 1852.18zM1591.19 1848.86c2.99 1.85 6.71 3.76 11.28 5.65l5.13-10.21c-2.5-2.87-2.1-5.48-2.1-5.48l-7.19 13.34C1595.65 1851.06 1593.29 1849.94 1591.19 1848.86zM1529.16 1782.05c-.83 3.92-5.38 31.23 22.75 45.63-25.46-16.08-18.49-43.76-18.49-43.76C1531.9 1783.31 1530.48 1782.67 1529.16 1782.05zM1551.93 1827.69c0 0 2.13 5.7 16.93 13.59-11.05-6.63-12.77-11.23-12.77-11.23C1554.6 1829.29 1553.22 1828.51 1551.93 1827.69zM1578.47 1835.93l-.71 3.09c1.45 1.62 3.48 3.52 6.33 5.54 1.95 1.39 4.3 2.83 7.1 4.29-1.07-.65-2.05-1.29-2.95-1.93C1579.67 1840.85 1578.47 1835.93 1578.47 1835.93z" class="coloreaeaea svgShape"/><g fill="#000000" class="color000 svgShape"><circle cx="1463.86" cy="1732.1" r="99.05" fill="#ff9e02" class="colorffb902 svgShape"/><path fill="#ffa30f" d="M1550.05,1780.94c-19.94,35.18-58.17,53.49-95.98,49.75c36.62,2.28,73.09-15.97,92.4-50.04       c26.97-47.59,10.26-108.04-37.33-135.01c-12.38-7.02-25.63-11.08-38.93-12.41c14.5,0.92,29.02,5.05,42.51,12.7       C1560.31,1672.9,1577.02,1733.35,1550.05,1780.94z" class="colorf2a807 svgShape"/><circle cx="1463.91" cy="1732.04" r="83.55" fill="#ffa30f" class="colorf2a807 svgShape"/><path fill="#f7960d" d="M1474.74,1814.95c-17.38,2.29-35.63-0.84-52.06-10.16c-40.15-22.75-54.25-73.74-31.49-113.89       c13.75-24.27,37.83-39.02,63.59-41.86c-25.07,3.32-48.34,17.94-61.77,41.64c-22.75,40.15-8.65,91.14,31.49,113.89       C1440.36,1813.56,1457.91,1816.8,1474.74,1814.95z" class="colore59c0a svgShape"/><path fill="#db8307" d="M1536.57,1773.29c-11.99,21.15-31.8,35.07-53.75,40.18c19.25-6.2,36.32-19.36,47.08-38.34       c22.75-40.15,8.65-91.13-31.49-113.88c-18.98-10.76-40.39-13.28-60.09-8.7c21.46-6.89,45.61-5.13,66.76,6.86       C1545.22,1682.17,1559.32,1733.15,1536.57,1773.29z" class="colordb9507 svgShape"/><path fill="#c67605" d="M1476.42,1779c-4.25,2.48-9.15,3.73-14.69,3.75c-5.55,0.03-11.28-1.37-17.2-4.19l-5.6,9.88l-7.8-4.42        l5.67-10c-7.72-5.34-12.87-11.51-15.45-18.5c-2.59-7-1.93-14.12,1.96-21.37l18.29,10.37c-2.83,6.13-1.83,11.37,3.01,15.72        l13.2-23.29c-5.02-4.78-8.91-8.91-11.66-12.41c-2.75-3.49-4.5-7.6-5.26-12.32c-0.76-4.73,0.45-9.89,3.63-15.5        c4.01-7.07,9.82-11.41,17.44-13c7.61-1.59,15.63-0.43,24.05,3.48l5.6-9.88l7.8,4.42l-5.6,9.88        c7.44,5.07,12.34,10.97,14.71,17.68c2.37,6.72,1.81,13.81-1.67,21.29l-18.41-10.44c1.09-2.49,1.42-5.02,0.99-7.57        c-0.43-2.55-1.62-4.87-3.56-6.94l-13.06,23.05c5.22,5,9.19,9.21,11.93,12.64c2.73,3.43,4.49,7.48,5.27,12.17        c0.78,4.69-0.42,9.83-3.6,15.44C1484,1773.17,1480.67,1776.53,1476.42,1779z M1461.55,1713.86c0.68,2.59,2.27,5.29,4.76,8.09        l11.96-21.1c-3.16-1.25-6.1-1.47-8.82-0.65s-4.93,2.74-6.64,5.74C1461.28,1708.64,1460.86,1711.28,1461.55,1713.86z         M1461.66,1765.24c2.85-0.96,5.07-2.82,6.63-5.59c1.52-2.68,1.89-5.32,1.1-7.91c-0.79-2.59-2.47-5.32-5.04-8.17l-12.1,21.34        C1455.68,1766.09,1458.81,1766.2,1461.66,1765.24z" class="colorc68005 svgShape"/><path fill="#ffffff" d="M1473.41,1777.29c-4.25,2.48-9.15,3.73-14.69,3.75c-5.55,0.03-11.28-1.37-17.2-4.19l-5.6,9.88l-7.8-4.42        l5.67-10c-7.72-5.34-12.87-11.51-15.45-18.5c-2.59-7-1.93-14.12,1.96-21.37l18.29,10.37c-2.83,6.13-1.83,11.37,3.01,15.72        l13.2-23.29c-5.02-4.78-8.91-8.92-11.66-12.41s-4.5-7.6-5.26-12.33s0.45-9.89,3.63-15.5c4.01-7.07,9.82-11.4,17.44-13        c7.61-1.59,15.63-0.43,24.05,3.48l5.6-9.88l7.8,4.42l-5.6,9.88c7.43,5.07,12.34,10.97,14.71,17.68        c2.37,6.71,1.81,13.81-1.67,21.29l-18.41-10.44c1.09-2.5,1.42-5.02,0.99-7.57s-1.62-4.87-3.56-6.94l-13.06,23.05        c5.22,5,9.2,9.22,11.93,12.64c2.73,3.43,4.49,7.48,5.27,12.17c0.78,4.69-0.42,9.83-3.6,15.44        C1480.98,1771.46,1477.66,1774.82,1473.41,1777.29z M1458.53,1712.15c0.68,2.59,2.27,5.29,4.76,8.09l11.96-21.1        c-3.16-1.25-6.1-1.47-8.82-0.65s-4.93,2.74-6.64,5.74C1458.27,1706.93,1457.85,1709.56,1458.53,1712.15z M1458.65,1763.53        c2.85-0.96,5.07-2.82,6.63-5.59c1.52-2.68,1.89-5.32,1.1-7.91c-0.79-2.59-2.47-5.32-5.04-8.17l-12.1,21.34        C1452.66,1764.38,1455.8,1764.49,1458.65,1763.53z" class="colorfff svgShape"/><polygon fill="#ffffff" points="1436.22 1661.09 1436.2 1652.92 1431.77 1646.06 1439.94 1646.03 1446.8 1641.61 1446.82 1649.77 1451.25 1656.64 1443.08 1656.66" class="colorfff svgShape"/><polygon fill="#ffffff" points="1425.64 1660.91 1425.63 1658 1424.05 1655.55 1426.96 1655.55 1429.41 1653.97 1429.42 1656.88 1430.99 1659.32 1428.08 1659.33" class="colorfff svgShape"/></g></g><g fill="#000000" class="color000 svgShape"><path fill="#f2f2f2" d="M1487.67,1124.21c0,0-9.79,1.96-25.96-18.39c0,0-27.24,15.9-50.6-8.97c0,0-6.96-0.53-20.3-15.19l8.43-4.68      c0,0-5.06,0.21-13.28-6.34c-3.28-2.62-7.06-6.32-11.24-11.56l8.38-7.77c0,0-4.32-1.31-10.06-6.39l-0.16-0.16      c-0.24-0.21-0.49-0.42-0.72-0.65c-2.03-1.88-4.19-4.2-6.39-7.09c0,0,4.69-8.94,16.43-9.6c0,0-11.19-5.28-21.45-18.34      c0,0,9.94-13.28,26.81-8.7c-1.1-0.65-25.99-15.09-31.44-28.53c0,0,12.59-6.88,23.44-3.33c0,0-19.58-16.73-23.12-30.07      c0,0,10.69-3.69,24.76,3.19c0,0-21.8-22.12-22.22-40.5c0,0,7.34-0.49,14.15,4.53c0,0-19.29-30.87-12.67-55.44      c7.72,16.79,19.3,32.51,33.07,47.64c9.58,10.53,20.22,20.79,31.33,30.91l0.01-6.39c1.58,2.6,3.39,5.08,5.4,7.37      c1.65,1.91,3.45,3.69,5.38,5.31c4.52,3.78,11.03,8.32,19.61,12.11c0,0,71.94,34.55,32.9,130.91      C1488.19,1078.09,1476.89,1107.64,1487.67,1124.21z" class="colorf2f2f2 svgShape"/><path fill="#eaeaea" d="M1376.38 965.63c-5.69-5.37-17.28-17.23-19.92-27.18 0 0 10.69-3.69 24.76 3.19 0 0-21.79-22.12-22.22-40.5 0 0 7.34-.49 14.15 4.53 0 0-19.29-30.87-12.67-55.44.89 1.95 1.85 3.89 2.85 5.82-4.79 24.12 13.24 52.96 13.24 52.96-6.81-5.01-14.15-4.53-14.15-4.53.43 18.38 22.22 40.5 22.22 40.5-14.07-6.88-24.76-3.19-24.76-3.19C1362.06 950.03 1370.35 959.56 1376.38 965.63zM1359.56 975.2c1.35 3.35 3.93 6.77 7.04 10.02-4.59-4.2-8.61-8.84-10.46-13.36 0 0 12.31-6.73 23.08-3.45 2.27 2.17 3.78 3.46 3.78 3.46C1372.15 968.32 1359.56 975.2 1359.56 975.2zM1364.19 1012.42c1.63 2.07 3.28 3.94 4.92 5.65-2.67-2.45-5.54-5.44-8.34-8.99 0 0 8.8-11.77 23.9-9.32 3.49 2.3 5.99 3.77 6.33 3.96C1374.12 999.15 1364.19 1012.42 1364.19 1012.42zM1373.06 1044.93l-.12-.12c-.24-.21-.49-.42-.72-.65-2.03-1.87-4.19-4.2-6.39-7.09 0 0 4.69-8.94 16.43-9.6 4.04 2.06 6.02 1.6 6.26 1.73-11.73.67-19.27 11.21-19.27 11.21C1370.53 1042.11 1371.81 1043.61 1373.06 1044.93zM1383.28 1068.34c-2.61-2.36-5.47-5.4-8.56-9.27l8.38-7.76c3.45 1.61 5.85.5 5.85.5l-10.82 10.61C1379.93 1064.66 1381.66 1066.62 1383.28 1068.34zM1464.68 1109.39c-3.53 1.88-28.5 13.84-50.15-9.19 22.52 20 47.17 5.62 47.17 5.62C1462.72 1107.1 1463.72 1108.29 1464.68 1109.39zM1414.52 1100.18c0 0-6.07-.46-17.76-12.49 9.44 8.78 14.34 9.15 14.34 9.15C1412.24 1098.06 1413.37 1099.17 1414.52 1100.18zM1399.23 1076.98l-2.78 1.54c-1.96-.94-4.34-2.37-7.08-4.54-1.87-1.49-3.91-3.35-6.09-5.63.92.84 1.81 1.61 2.67 2.29C1394.17 1077.18 1399.23 1076.98 1399.23 1076.98z" class="coloreaeaea svgShape"/><path fill="#f2f2f2" d="M1565.8,1200.57c0,0-1.73,9.83,18.99,25.53c0,0-15.26,27.6,10.14,50.38c0,0,0.69,6.94,15.65,19.94      l4.48-8.54c0,0-0.09,5.07,6.65,13.13c2.7,3.22,6.48,6.91,11.82,10.97l7.57-8.56c0,0,1.41,4.29,6.62,9.91l0.16,0.16      c0.22,0.24,0.43,0.47,0.66,0.7c1.92,1.98,4.3,4.09,7.23,6.22c0,0,8.83-4.9,9.22-16.65c0,0,5.54,11.07,18.83,21.02      c0,0,13.04-10.24,8.08-27.01c0.68,1.09,15.69,25.64,29.25,30.77c0,0,6.59-12.74,2.79-23.51c0,0,17.18,19.19,30.59,22.42      c0,0,3.44-10.77-3.76-24.68c0,0,22.61,21.28,41,21.28c0,0,0.32-7.35-4.85-14.04c0,0,31.31,18.57,55.72,11.38      c-16.96-7.33-32.95-18.54-48.4-31.97c-10.74-9.34-21.25-19.73-31.62-30.61l6.39-0.15c-2.64-1.52-5.16-3.27-7.49-5.23      c-1.94-1.61-3.77-3.36-5.43-5.26c-3.89-4.43-8.57-10.83-12.56-19.32c0,0-36.2-71.13-131.63-29.87      C1611.9,1198.98,1582.62,1210.96,1565.8,1200.57z" class="colorf2f2f2 svgShape"/><path fill="#eaeaea" d="M1726.91 1308.16c5.5 5.56 17.62 16.87 27.63 19.28 0 0 3.44-10.77-3.76-24.68 0 0 22.61 21.28 41 21.28 0 0 .32-7.35-4.85-14.04 0 0 31.31 18.57 55.72 11.38-1.98-.85-3.94-1.76-5.88-2.71-24 5.34-53.25-12.01-53.25-12.01 5.17 6.69 4.85 14.04 4.85 14.04-18.39 0-41-21.28-41-21.28 7.2 13.91 3.76 24.68 3.76 24.68C1742.84 1322.12 1733.12 1314.05 1726.91 1308.16zM1717.74 1325.2c-3.38-1.27-6.86-3.77-10.18-6.8 4.3 4.49 9.04 8.41 13.6 10.15 0 0 6.44-12.46 2.91-23.15-2.22-2.22-3.54-3.7-3.54-3.7C1724.32 1312.46 1717.74 1325.2 1717.74 1325.2zM1680.41 1321.43c-2.1-1.58-4.02-3.19-5.76-4.78 2.52 2.62 5.57 5.41 9.18 8.13 0 0 11.56-9.07 8.77-24.11-2.38-3.43-3.9-5.9-4.11-6.23C1693.46 1311.19 1680.41 1321.43 1680.41 1321.43zM1647.71 1313.31l.12.12c.22.24.43.48.66.7 1.92 1.98 4.3 4.09 7.23 6.22 0 0 8.83-4.9 9.21-16.65-2.15-3.99-1.73-5.98-1.87-6.22-.4 11.74-10.76 19.53-10.76 19.53C1650.58 1315.78 1649.06 1314.53 1647.71 1313.31zM1624.07 1303.63c2.42 2.55 5.53 5.35 9.46 8.35l7.57-8.56c-1.69-3.41-.63-5.84-.63-5.84l-10.35 11.06C1627.82 1306.9 1625.82 1305.21 1624.07 1303.63zM1581.16 1223.2c-1.8 3.57-13.18 28.82 10.34 49.92-20.51-22.05-6.7-47.03-6.7-47.03C1583.49 1225.11 1582.28 1224.14 1581.16 1223.2zM1591.51 1273.14c0 0 .6 6.06 12.9 17.46-8.99-9.24-9.48-14.12-9.48-14.12C1593.69 1275.37 1592.55 1274.26 1591.51 1273.14zM1615.07 1287.89l-1.48 2.81c.98 1.94 2.47 4.29 4.7 6.97 1.53 1.84 3.44 3.84 5.77 5.96-.86-.9-1.65-1.77-2.36-2.62C1614.98 1292.95 1615.07 1287.89 1615.07 1287.89z" class="coloreaeaea svgShape"/><g fill="#000000" class="color000 svgShape"><circle cx="1530.77" cy="1158.26" r="99.05" fill="#ff9e02" class="colorffb902 svgShape"/><path fill="#ffa30f" d="M1601.64,1227.46c-28.26,28.92-69.9,36.86-105.5,23.59c34.82,11.56,74.74,3.22,102.11-24.79       c38.23-39.13,37.51-101.83-1.62-140.07c-10.18-9.95-21.95-17.26-34.47-21.94c13.79,4.59,26.77,12.29,37.86,23.13       C1639.15,1125.62,1639.87,1188.33,1601.64,1227.46z" class="colorf2a807 svgShape"/><circle cx="1530.75" cy="1158.16" r="83.55" fill="#ffa30f" class="colorf2a807 svgShape"/><path fill="#f7960d" d="M1520.14,1241.1c-17.39-2.22-34.23-9.92-47.74-23.11c-33-32.25-33.61-85.15-1.36-118.16       c19.5-19.95,46.54-28.06,72.17-24.23c-25.08-3.19-51.31,5-70.35,24.48c-32.25,33-31.64,85.9,1.36,118.15       C1487.26,1230.98,1503.39,1238.6,1520.14,1241.1z" class="colore59c0a svgShape"/><path fill="#db8307" d="M1590.56,1216.62c-16.99,17.38-39.71,25.78-62.23,25.12c20.19-1.08,40.06-9.44,55.31-25.04       c32.25-33,31.64-85.9-1.36-118.15c-15.6-15.25-35.66-23.15-55.87-23.76c22.51-1.18,45.41,6.69,62.8,23.68       C1622.19,1130.73,1622.81,1183.62,1590.56,1216.62z" class="colordb9507 svgShape"/><path fill="#c67605" d="M1530.95,1206.78c-4.74,1.31-9.8,1.27-15.17-0.12s-10.56-4.21-15.56-8.44l-7.94,8.12l-6.42-6.27        l8.03-8.22c-6.1-7.13-9.5-14.41-10.21-21.84c-0.71-7.42,1.74-14.14,7.35-20.16l15.04,14.69c-4.3,5.2-4.67,10.53-1.1,15.97        l18.71-19.15c-3.64-5.9-6.34-10.89-8.1-14.97s-2.41-8.5-1.94-13.26c0.47-4.76,2.96-9.45,7.47-14.06        c5.68-5.82,12.41-8.52,20.18-8.11s15.22,3.57,22.36,9.5l7.93-8.12l6.42,6.27l-7.93,8.12c5.89,6.8,9.13,13.75,9.71,20.85        s-1.77,13.81-7.05,20.15l-15.14-14.79c1.69-2.13,2.66-4.49,2.89-7.07s-0.32-5.12-1.67-7.62l-18.52,18.95        c3.77,6.17,6.54,11.26,8.3,15.27s2.43,8.38,1.99,13.11s-2.92,9.4-7.42,14.01C1539.76,1203.08,1535.69,1205.48,1530.95,1206.78        z M1533.2,1140c0,2.67,0.84,5.69,2.53,9.04l16.95-17.34c-2.73-2.02-5.52-2.98-8.36-2.88s-5.47,1.39-7.89,3.86        C1534.28,1134.89,1533.2,1137.33,1533.2,1140z M1520.19,1189.71c3-0.2,5.62-1.44,7.84-3.71c2.15-2.21,3.18-4.66,3.09-7.37        c-0.1-2.71-1.03-5.77-2.78-9.19l-17.14,17.54C1514.19,1189,1517.19,1189.91,1520.19,1189.71z" class="colorc68005 svgShape"/><path fill="#ffffff" d="M1528.47,1204.36c-4.74,1.31-9.8,1.27-15.17-0.12s-10.55-4.21-15.56-8.44l-7.93,8.12l-6.42-6.27        l8.03-8.22c-6.1-7.13-9.5-14.41-10.21-21.84c-0.71-7.42,1.74-14.14,7.35-20.16l15.04,14.69c-4.3,5.2-4.67,10.53-1.1,15.97        l18.71-19.15c-3.64-5.91-6.34-10.9-8.1-14.97c-1.77-4.08-2.41-8.5-1.94-13.26c0.47-4.76,2.96-9.45,7.47-14.06        c5.68-5.81,12.4-8.52,20.18-8.11c7.77,0.41,15.22,3.57,22.36,9.51l7.94-8.12l6.42,6.27l-7.93,8.12        c5.89,6.8,9.13,13.75,9.71,20.85s-1.77,13.81-7.05,20.15l-15.14-14.79c1.69-2.13,2.66-4.49,2.89-7.07s-0.32-5.12-1.67-7.62        l-18.52,18.95c3.77,6.17,6.54,11.26,8.3,15.27s2.43,8.38,1.99,13.11c-0.44,4.73-2.92,9.4-7.42,14.01        C1537.28,1200.66,1533.21,1203.05,1528.47,1204.36z M1530.72,1137.58c0,2.68,0.84,5.69,2.53,9.04l16.95-17.34        c-2.73-2.02-5.52-2.98-8.36-2.88s-5.47,1.39-7.89,3.86C1531.8,1132.46,1530.72,1134.9,1530.72,1137.58z M1517.71,1187.29        c3-0.2,5.62-1.44,7.84-3.71c2.16-2.21,3.18-4.66,3.09-7.37c-0.1-2.71-1.03-5.77-2.78-9.19l-17.14,17.54        C1511.71,1186.58,1514.71,1187.49,1517.71,1187.29z" class="colorfff svgShape"/><polygon fill="#ffffff" points="1522.19 1082.51 1524.25 1074.61 1521.73 1066.85 1529.63 1068.91 1537.4 1066.38 1535.33 1074.28 1537.86 1082.05 1529.96 1079.99" class="colorfff svgShape"/><polygon fill="#ffffff" points="1512 1079.64 1512.74 1076.82 1511.84 1074.05 1514.65 1074.79 1517.42 1073.89 1516.69 1076.7 1517.59 1079.47 1514.77 1078.74" class="colorfff svgShape"/></g></g></svg>