<svg xmlns="http://www.w3.org/2000/svg" enable-background="new 0 0 2500 2500" viewBox="0 0 2500 2500"><polygon fill="#ffbf66" points="739.16 2422.92 647.75 2419 655.79 2276.81 747.21 2280.73" class="colorf3be99 svgShape"/><path fill="#dbdad9" d="M888.52,2475H643.13c-0.52,0-0.94-0.42-0.94-0.94v-17.86h247.26v17.86       C889.45,2474.58,889.03,2475,888.52,2475z" class="colordbdbd9 svgShape"/><path fill="#4d4539" d="M889.46,2462.59c-0.46,0.08-0.95,0.12-1.46,0.12H644.16c-0.67,0-1.32-0.06-1.96-0.16       c-4.95-0.8-8.69-4.58-8.69-9.13v-71.21c0-9.87,11.58-16.48,22.04-12.62c27.73,10.23,56.31,9.89,85.91-2.55       c3.79-1.61,8.32-1.05,11.39,1.45l9.87,8.04l0.35,0.28l1.48,1.21c1.76,1.43,3.56,2.77,5.41,4.08c0.19,0.14,0.39,0.28,0.58,0.4       c9.08,6.31,19.39,11.17,30.43,14.25c0.35,0.1,0.72,0.2,1.06,0.28c2.41,0.66,4.88,1.23,7.35,1.69c0.53,0.1,1.07,0.2,1.57,0.32       c0.04,0,0.07,0,0.09,0.02c59.04,11.74,79.02,42.18,84.25,54.74C896.95,2457.74,893.99,2461.84,889.46,2462.59z" class="color39424d svgShape"/><path fill="#e7e4df" d="M771.73,2396.3c0.14,1.65-1.3,3.1-3.21,3.24h-0.37c-1.76-0.06-3.21-1.25-3.35-2.8l-1.25-14.23l-0.48-5.71        l1.48,1.21c1.76,1.43,3.56,2.77,5.41,4.08c0.19,0.14,0.39,0.28,0.58,0.4L771.73,2396.3z" class="colordfe1e7 svgShape"/><path fill="#e7e4df" d="M769.95 2382.09l-6.4.42-16.33 1.08c-.14.02-.28.02-.39.02-1.73-.06-3.19-1.25-3.33-2.8-.16-1.65 1.27-3.09 3.19-3.24l16.04-1.06.35.28 1.48 1.21C766.3 2379.44 768.1 2380.78 769.95 2382.09zM811.04 2399.06l7.56 12.61c.88 1.47.23 3.3-1.48 4.06-.33.14-.65.24-1 .3-1.46.22-2.96-.38-3.67-1.59l-7.58-12.65-2.84-4.76c2.41.66 4.88 1.23 7.35 1.69.53.1 1.07.2 1.57.32L811.04 2399.06z" class="colordfe1e7 svgShape"/><path fill="#e7e4df" d="M810.94,2399.04l-6.08,2.75l-14.56,6.59c-0.32,0.14-0.65,0.24-1,0.3c-1.45,0.22-2.96-0.39-3.67-1.59        c-0.9-1.47-0.23-3.3,1.46-4.06l13.86-6.29c0.35,0.1,0.72,0.2,1.06,0.28c2.41,0.66,4.88,1.23,7.35,1.69        C809.9,2398.81,810.44,2398.92,810.94,2399.04z" class="colordfe1e7 svgShape"/><polygon fill="#ffbf66" points="1092.28 2422 1001.03 2428.25 988.19 2286.32 1079.43 2280.07" class="colorf3be99 svgShape"/><path fill="#dbdad9" d="M1236.21,2475H990.82c-0.52,0-0.94-0.42-0.94-0.94v-17.86h247.26v17.86       C1237.14,2474.58,1236.72,2475,1236.21,2475z" class="colordbdbd9 svgShape"/><path fill="#4d4539" d="M1237.15,2462.59c-0.46,0.08-0.95,0.12-1.46,0.12H991.85c-0.67,0-1.32-0.06-1.96-0.16       c-4.95-0.8-8.69-4.58-8.69-9.13v-71.21c0-9.87,11.58-16.48,22.04-12.62c27.73,10.23,56.31,9.89,85.91-2.55       c3.79-1.61,8.32-1.05,11.39,1.45l9.87,8.04l0.35,0.28l1.48,1.21c1.76,1.43,3.56,2.77,5.41,4.08c0.18,0.14,0.39,0.28,0.58,0.4       c9.08,6.31,19.39,11.17,30.43,14.25c0.35,0.1,0.72,0.2,1.06,0.28c2.4,0.66,4.88,1.23,7.35,1.69c0.53,0.1,1.07,0.2,1.57,0.32       c0.04,0,0.07,0,0.09,0.02c59.04,11.74,79.02,42.18,84.25,54.74C1244.64,2457.74,1241.68,2461.84,1237.15,2462.59z" class="color39424d svgShape"/><path fill="#e7e4df" d="M1119.43,2396.3c0.14,1.65-1.3,3.1-3.21,3.24h-0.37c-1.76-0.06-3.21-1.25-3.35-2.8l-1.25-14.23        l-0.48-5.71l1.48,1.21c1.76,1.43,3.56,2.77,5.41,4.08c0.18,0.14,0.39,0.28,0.58,0.4L1119.43,2396.3z" class="colordfe1e7 svgShape"/><path fill="#e7e4df" d="M1117.64 2382.09l-6.4.42-16.33 1.08c-.14.02-.28.02-.39.02-1.73-.06-3.19-1.25-3.33-2.8-.16-1.65 1.27-3.09 3.19-3.24l16.03-1.06.35.28 1.48 1.21C1113.99 2379.44 1115.8 2380.78 1117.64 2382.09zM1158.73 2399.06l7.56 12.61c.88 1.47.23 3.3-1.48 4.06-.32.14-.65.24-.99.3-1.45.22-2.96-.38-3.67-1.59l-7.58-12.65-2.84-4.76c2.4.66 4.88 1.23 7.35 1.69.53.1 1.07.2 1.57.32L1158.73 2399.06z" class="colordfe1e7 svgShape"/><path fill="#e7e4df" d="M1158.64,2399.04l-6.08,2.75l-14.56,6.59c-0.33,0.14-0.65,0.24-1,0.3c-1.45,0.22-2.96-0.39-3.67-1.59        c-0.9-1.47-0.23-3.3,1.45-4.06l13.87-6.29c0.35,0.1,0.72,0.2,1.06,0.28c2.4,0.66,4.88,1.23,7.35,1.69        C1157.59,2398.81,1158.13,2398.92,1158.64,2399.04z" class="colordfe1e7 svgShape"/><polygon fill="#4d4539" points="993.06 1221.26 1056.81 1232.37 1108.64 2324.37 962.81 2324.37 856.64 1445.87 770.33 2324.37 629.1 2324.37 653.96 1232.37 828.42 1216.65" class="color39424d svgShape"/><path fill="#ffbf66" d="M1656.97,800.82c-5.38,1-10.92,0.96-16.38,0.17l-6.01-0.9l-27.07-4.05l-72.99-10.95l3.85-73.99l35.4-5.52   c6.84-1.09,12.93-5.09,16.57-10.97l15.04-24.05c2.28-3.71,6.82-5.36,10.99-4.03c1.89,0.58,3.44,1.75,4.55,3.15   c2.14,2.72,2.73,6.5,1.17,9.91l-11.08,23.95c0,0,8.45,0.08,19.25-1.84c6.46-1.16,12.22-1.4,17.27-0.85   C1700.18,706.52,1678.85,796.81,1656.97,800.82z" class="colorf3be99 svgShape"/><path fill="#f6b964" d="M1048.85,655.69l503.05,42.24l-6.28,102.17c-265.14-12.24-259.21-8.19-489.23-31.74" class="color64b5f6 svgShape"/><rect width="175.1" height="113.59" x="790.7" y="552.5" fill="#ffbf66" transform="rotate(-87.077 878.245 609.29)" class="colorf3be99 svgShape"/><path fill="#ffbf66" d="M893.92,352.06l67.9,17.27c0,0,76.42,128.37,1.95,187.32c-28.41,22.49-67.92,25.62-100.3,9.35    c-17.39-8.75-35.22-23.3-46.14-47.54l-17.16-112.04L893.92,352.06z" class="colorf3be99 svgShape"/><path fill="#343433" d="M823.28,571.8l16.83-50.68c0,0-23.19-20.15-12.85-43.95c4.67-10.76,16.31-17.56,27.62-14.46    c9.62,2.63,16.91,17.53,20.03,27.51l13.01-4.03c0,0-24.89-134.84,76.28-112.61c0,0,27.22-15.27,5.59-43.28    c0,0,17.52-48.05-50.67-33.13c0,0-22.61-21.29-65.51,12.69c0,0-71.22-45.02-96.46,49.46c0,0-74.36,77.66,20.93,157.87    c4.28,3.6,8.92,6.77,13.66,9.76C798.17,531.02,816.57,548.86,823.28,571.8z" class="color343433 svgShape"/><path fill="#f6b964" d="M637.18 1104.23c-.04 27.63-2.27 59.44-3.04 87.37-.47 18.12-.89 40.85-1.58 58.9 1.12.32 89.05 22.8 211.75 27.14l31.86-624.1-10.07 9.09c-1.98-1.77-23.32-20.98-35.77-45.13l-45.36 7.39 0 0c-80.27 14.41-139.25 83.4-141.01 164.92L637.18 1104.23zM844.34 1277.66c122.42 8.13 220.35-8.64 221.56-8.82 2.46-38 3.46-75.7 3.91-113.82.59-46.71 1.87-92.54-1.17-139.32-2.8-42.5-7.24-86.67 1.07-128.89l-20.85-231.13-79-21.36-44.4-11.98c-14.81 22.79-38.04 39.72-40.18 41.29l-9.1-10.11L844.34 1277.66z" class="color64b5f6 svgShape"/><polygon fill="#ed9a25" points="800.94 1039.98 852.94 1108.81 911.68 1045.63 892.97 689.16 905.66 679.99 905.8 679.88 876.18 653.54 844.04 676.73 844.17 676.85 855.87 687.27" class="colored3425 svgShape"/><path fill="#f5aa42" d="M885.13 663.73l20.22 22.4 8.73 9.66c41.79-36.37 56.01-61.23 56.01-61.23l-.23-.21-34.38-32.46c-2.2 7.14-5.8 14.03-10.01 20.48-14.84 22.76-38.02 39.69-40.18 41.25C885.18 663.7 885.13 663.73 885.13 663.73zM866.25 662.77l-22.4 20.22-9.66 8.73c-37.87-40.44-49.48-66.61-49.48-66.61l.25-.19 37.07-28.81c1.47 7.33 4.78 14.58 8.29 21.42 12.45 24.15 33.79 43.36 35.78 45.13C866.2 662.72 866.25 662.77 866.25 662.77z" class="color42a5f5 svgShape"/><path fill="#d68e28" d="M1215.93,830.33h602.39c-47.22-28.47-164.28-48.6-301.19-48.6       C1380.2,781.73,1263.14,801.86,1215.93,830.33z" class="colord69728 svgShape"/><path fill="#f7960d" d="M1193.63,830.32l0.01,50.23c0,42.31,144.82,76.6,323.5,76.6c178.65,0,323.5-34.29,323.5-76.6v-50.23       H1193.63z" class="colore5a424 svgShape"/><ellipse cx="1517.12" cy="830.32" fill="#ffb031" rx="323.5" ry="76.61" class="colorffc431 svgShape"/><path fill="#dd9726" d="M1259.82,830.32c0,31.05,115.2,56.21,257.31,56.21s257.31-25.17,257.31-56.21       c0-31.04-115.2-56.22-257.31-56.22C1375.02,774.11,1259.82,799.28,1259.82,830.32z" class="colorddad26 svgShape"/><path fill="#d68e28" d="M1425.87 844.63c0-4.4 3.79-7.86 11.36-10.39 7.58-2.52 16.51-4.34 26.81-5.46s24.32-2.28 42.08-3.49V807.2c-6.86.58-12.37 1.55-16.51 2.92s-6.57 2.98-7.27 4.83h-53.62c1.66-5.61 9.29-10.02 22.91-13.21 13.61-3.19 31.78-5.04 54.5-5.55v-7.75h22.73v7.75c23.43.51 42.56 2.52 57.34 6.03 14.8 3.51 22.2 8.04 22.2 13.59 0 4.4-3.78 7.88-11.36 10.43s-16.57 4.4-26.99 5.55c-10.41 1.15-24.15 2.3-41.19 3.45v18.28c16.1-.95 24.86-3.73 26.27-8.33h53.27c-.47 5.62-7.93 10.07-22.37 13.35-14.43 3.29-33.5 5.22-57.17 5.79v7.85h-22.73v-7.75c-16.57-.32-30.95-1.42-43.14-3.3-12.19-1.88-21.43-4.27-27.7-7.18C1429 851.06 1425.87 847.95 1425.87 844.63zM1556.54 815.15c0-2.36-2.48-4.24-7.46-5.65-4.97-1.4-11.72-2.26-20.24-2.58v16.56c9-.83 15.86-1.9 20.59-3.21C1554.18 818.97 1556.54 817.26 1556.54 815.15zM1506.11 853.73v-16.75c-9.23.83-16.33 1.88-21.3 3.16-4.97 1.28-7.46 2.97-7.46 5.07 0 2.17 2.55 4.02 7.64 5.55C1490.08 852.29 1497.12 853.28 1506.11 853.73zM1190.54 763.35h602.39c-47.22-28.47-164.28-48.6-301.19-48.6C1354.81 714.74 1237.74 734.88 1190.54 763.35z" class="colord69728 svgShape"/><path fill="#f7960d" d="M1710.52,870c64.37-14,104.72-34.1,104.72-56.43v-50.23h-647v50.23c0,42.31,144.83,76.6,323.5,76.6       C1576.1,890.17,1652.92,882.53,1710.52,870" class="colore5a424 svgShape"/><path fill="#ffb031" d="M1168.23,763.34c0,42.31,144.83,76.61,323.5,76.61s323.5-34.3,323.5-76.61s-144.83-76.61-323.5-76.61       S1168.23,721.03,1168.23,763.34z" class="colorffc431 svgShape"/><path fill="#dd9726" d="M1234.43,763.34c0,31.04,115.2,56.21,257.3,56.21c142.11,0,257.31-25.17,257.31-56.21       c0-31.05-115.2-56.22-257.31-56.22C1349.63,707.13,1234.43,732.3,1234.43,763.34z" class="colorddad26 svgShape"/><path fill="#d68e28" d="M1400.47,777.65c0-4.4,3.79-7.87,11.36-10.39c7.58-2.52,16.52-4.34,26.81-5.45        c10.3-1.12,24.32-2.28,42.08-3.49v-18.09c-6.86,0.57-12.37,1.55-16.51,2.92s-6.57,2.98-7.27,4.83h-53.62        c1.66-5.61,9.29-10.02,22.91-13.21c13.61-3.19,31.78-5.04,54.5-5.55v-7.75h22.73v7.75c23.43,0.51,42.56,2.52,57.34,6.03        c14.8,3.51,22.2,8.04,22.2,13.59c0,4.4-3.78,7.88-11.36,10.43s-16.57,4.4-26.99,5.55c-10.42,1.15-24.15,2.3-41.19,3.45v18.28        c16.1-0.96,24.86-3.73,26.27-8.33H1583c-0.47,5.62-7.93,10.07-22.37,13.35c-14.43,3.29-33.5,5.21-57.17,5.79v7.85h-22.73        v-7.75c-16.57-0.32-30.94-1.42-43.14-3.3c-12.19-1.88-21.43-4.27-27.7-7.18C1403.61,784.08,1400.47,780.97,1400.47,777.65z         M1531.15,748.17c0-2.36-2.48-4.24-7.46-5.65c-4.97-1.4-11.72-2.26-20.24-2.58v16.56c9-0.83,15.86-1.9,20.6-3.21        C1528.78,751.98,1531.15,750.28,1531.15,748.17z M1480.72,786.74v-16.75c-9.23,0.83-16.33,1.88-21.3,3.16        c-4.98,1.28-7.46,2.97-7.46,5.07c0,2.17,2.55,4.02,7.64,5.55C1464.69,785.31,1471.73,786.3,1480.72,786.74z" class="colord69728 svgShape"/><g fill="#000000" class="color000 svgShape"><path fill="#d68e28" d="M1215.93,696.36h602.39c-47.22-28.47-164.28-48.6-301.19-48.6C1380.2,647.76,1263.14,667.9,1215.93,696.36       z" class="colord69728 svgShape"/><path fill="#f7960d" d="M1193.63,696.36l0.01,50.23c0,42.31,144.82,76.6,323.5,76.6c178.65,0,323.5-34.29,323.5-76.6v-50.23       H1193.63z" class="colore5a424 svgShape"/><path fill="#ffb031" d="M1193.63,696.36c0,42.31,144.83,76.61,323.5,76.61c178.66,0,323.5-34.3,323.5-76.61       s-144.83-76.61-323.5-76.61S1193.63,654.04,1193.63,696.36z" class="colorffc431 svgShape"/><path fill="#dd9726" d="M1259.82,696.36c0,31.05,115.2,56.21,257.31,56.21s257.31-25.17,257.31-56.21       c0-31.05-115.2-56.22-257.31-56.22C1375.02,640.14,1259.82,665.31,1259.82,696.36z" class="colorddad26 svgShape"/><path fill="#d68e28" d="M1425.87,710.67c0-4.4,3.79-7.86,11.36-10.39c7.58-2.52,16.51-4.34,26.81-5.46s24.32-2.28,42.08-3.49        v-18.09c-6.86,0.58-12.37,1.55-16.51,2.92s-6.57,2.98-7.27,4.83h-53.62c1.66-5.61,9.29-10.02,22.91-13.21        c13.61-3.19,31.78-5.04,54.5-5.55v-7.75h22.73v7.75c23.43,0.51,42.56,2.52,57.34,6.03c14.8,3.51,22.2,8.04,22.2,13.59        c0,4.4-3.78,7.88-11.36,10.43s-16.57,4.4-26.99,5.55c-10.41,1.15-24.15,2.3-41.19,3.45v18.28c16.1-0.96,24.86-3.73,26.27-8.33        h53.27c-0.47,5.62-7.93,10.07-22.37,13.35c-14.43,3.29-33.5,5.22-57.17,5.79v7.85h-22.73v-7.75        c-16.57-0.32-30.95-1.42-43.14-3.3c-12.19-1.88-21.43-4.28-27.7-7.18C1429,717.1,1425.87,713.98,1425.87,710.67z         M1556.54,681.19c0-2.36-2.48-4.24-7.46-5.65c-4.97-1.4-11.72-2.26-20.24-2.58v16.56c9-0.83,15.86-1.9,20.59-3.21        C1554.18,685,1556.54,683.29,1556.54,681.19z M1506.11,719.76v-16.75c-9.23,0.83-16.33,1.88-21.3,3.16        c-4.97,1.28-7.46,2.97-7.46,5.07c0,2.17,2.55,4.02,7.64,5.55C1490.08,718.32,1497.12,719.31,1506.11,719.76z" class="colord69728 svgShape"/></g><g fill="#000000" class="color000 svgShape"><path fill="#d68e28" d="M1227.65,629.38h602.39c-47.22-28.47-164.28-48.6-301.19-48.6       C1391.92,580.78,1274.86,600.91,1227.65,629.38z" class="colord69728 svgShape"/><path fill="#f7960d" d="M1205.34,629.37v50.23c0,42.31,144.82,76.6,323.5,76.6c178.65,0,323.5-34.29,323.5-76.6v-50.23H1205.34z" class="colore5a424 svgShape"/><path fill="#ffb031" d="M1205.34,629.37c0,42.31,144.84,76.61,323.5,76.61s323.5-34.3,323.5-76.61s-144.84-76.62-323.5-76.62       C1350.18,552.76,1205.34,587.06,1205.34,629.37z" class="colorffc431 svgShape"/><path fill="#ffa30f" d="M1271.54,629.37c0,31.04,115.2,56.21,257.31,56.21c142.1,0,257.3-25.17,257.3-56.21       c0-31.05-115.2-56.22-257.3-56.22C1386.74,573.16,1271.54,598.33,1271.54,629.37z" class="colorfcb614 svgShape"/><path fill="#eceae8" d="M1437.58,643.68c0-4.4,3.79-7.86,11.36-10.39c7.58-2.52,16.51-4.34,26.81-5.45        c10.29-1.12,24.32-2.28,42.08-3.5v-18.09c-6.86,0.57-12.37,1.55-16.51,2.92s-6.57,2.98-7.28,4.83h-53.62        c1.66-5.61,9.29-10.02,22.91-13.21c13.61-3.19,31.78-5.04,54.51-5.55v-7.75h22.73v7.75c23.43,0.51,42.56,2.52,57.35,6.03        c14.8,3.51,22.19,8.04,22.19,13.59c0,4.4-3.78,7.88-11.36,10.43s-16.57,4.4-26.99,5.55c-10.41,1.15-24.14,2.3-41.19,3.45        v18.28c16.1-0.96,24.86-3.73,26.27-8.33h53.27c-0.47,5.62-7.93,10.07-22.37,13.35c-14.43,3.29-33.5,5.22-57.17,5.79v7.85        h-22.73v-7.75c-16.57-0.32-30.95-1.42-43.15-3.3c-12.19-1.88-21.42-4.27-27.7-7.18C1440.72,650.11,1437.58,647,1437.58,643.68        z M1568.26,614.2c0-2.36-2.49-4.24-7.46-5.65c-4.97-1.4-11.72-2.26-20.24-2.58v16.56c8.99-0.83,15.86-1.9,20.59-3.21        C1565.89,618.02,1568.26,616.31,1568.26,614.2z M1517.84,652.78v-16.75c-9.23,0.83-16.34,1.88-21.31,3.16        c-4.97,1.28-7.46,2.97-7.46,5.07c0,2.17,2.55,4.02,7.64,5.55C1501.8,651.34,1508.84,652.33,1517.84,652.78z" class="colorecece8 svgShape"/></g><g fill="#000000" class="color000 svgShape"><path fill="#d68e28" d="M1215.93,566.94h602.39c-47.22-28.47-164.28-48.6-301.19-48.6       C1380.2,518.33,1263.14,538.47,1215.93,566.94z" class="colord69728 svgShape"/><path fill="#f7960d" d="M1193.63,566.93l0.01,50.23c0,42.31,144.82,76.6,323.5,76.6c178.65,0,323.5-34.29,323.5-76.6v-50.23       H1193.63z" class="colore5a424 svgShape"/><path fill="#ffb031" d="M1193.63,566.93c0,42.31,144.83,76.61,323.5,76.61c178.66,0,323.5-34.3,323.5-76.61       s-144.83-76.61-323.5-76.61S1193.63,524.62,1193.63,566.93z" class="colorffc431 svgShape"/><path fill="#dd9726" d="M1259.82,566.93c0,31.05,115.2,56.21,257.31,56.21s257.31-25.17,257.31-56.21       c0-31.04-115.2-56.22-257.31-56.22C1375.02,510.72,1259.82,535.89,1259.82,566.93z" class="colorddad26 svgShape"/><path fill="#d68e28" d="M1425.87 581.24c0-4.4 3.79-7.86 11.36-10.39 7.58-2.52 16.51-4.34 26.81-5.45 10.3-1.12 24.32-2.28 42.08-3.49v-18.09c-6.86.58-12.37 1.55-16.51 2.92s-6.57 2.98-7.27 4.83h-53.62c1.66-5.61 9.29-10.02 22.91-13.21 13.61-3.19 31.78-5.04 54.5-5.55v-7.75h22.73v7.75c23.43.51 42.56 2.52 57.34 6.03 14.8 3.51 22.2 8.04 22.2 13.59 0 4.4-3.78 7.88-11.36 10.43s-16.57 4.4-26.99 5.55c-10.41 1.15-24.15 2.3-41.19 3.45v18.28c16.1-.96 24.86-3.73 26.27-8.33h53.27c-.47 5.62-7.93 10.07-22.37 13.35-14.43 3.29-33.5 5.22-57.17 5.79v7.85h-22.73v-7.75c-16.57-.32-30.95-1.42-43.14-3.3-12.19-1.88-21.43-4.27-27.7-7.18C1429 587.67 1425.87 584.56 1425.87 581.24zM1556.54 551.76c0-2.36-2.48-4.24-7.46-5.65-4.97-1.4-11.72-2.26-20.24-2.58v16.56c9-.83 15.86-1.9 20.59-3.21C1554.18 555.57 1556.54 553.87 1556.54 551.76zM1506.11 590.33v-16.75c-9.23.83-16.33 1.88-21.3 3.16-4.97 1.28-7.46 2.97-7.46 5.07 0 2.17 2.55 4.02 7.64 5.55C1490.08 588.9 1497.12 589.89 1506.11 590.33zM1190.54 499.95h602.39c-47.22-28.47-164.28-48.6-301.19-48.6C1354.81 451.35 1237.74 471.49 1190.54 499.95z" class="colord69728 svgShape"/><path fill="#f7960d" d="M1168.23,499.95v50.23c0,42.31,144.83,76.6,323.5,76.6c178.65,0,323.5-34.29,323.5-76.6v-50.23       L1168.23,499.95L1168.23,499.95z" class="colore5a424 svgShape"/><path fill="#ffb031" d="M1168.23,499.95c0,42.31,144.83,76.61,323.5,76.61s323.5-34.3,323.5-76.61s-144.83-76.61-323.5-76.61       S1168.23,457.64,1168.23,499.95z" class="colorffc431 svgShape"/><ellipse cx="1491.73" cy="499.95" fill="#dd9726" rx="257.31" ry="56.21" class="colorddad26 svgShape"/><path fill="#d68e28" d="M1400.47,514.26c0-4.4,3.79-7.86,11.36-10.39c7.58-2.52,16.52-4.34,26.81-5.45        c10.3-1.12,24.32-2.28,42.08-3.49v-18.09c-6.86,0.57-12.37,1.55-16.51,2.92c-4.14,1.37-6.57,2.98-7.27,4.83h-53.62        c1.66-5.61,9.29-10.02,22.91-13.21c13.61-3.19,31.78-5.04,54.5-5.55v-7.75h22.73v7.75c23.43,0.51,42.56,2.52,57.34,6.03        c14.8,3.51,22.2,8.04,22.2,13.59c0,4.4-3.78,7.88-11.36,10.43s-16.57,4.4-26.99,5.55s-24.15,2.3-41.19,3.45v18.28        c16.1-0.96,24.86-3.73,26.27-8.33H1583c-0.47,5.62-7.93,10.07-22.37,13.35c-14.43,3.29-33.5,5.22-57.17,5.79v7.85h-22.73        v-7.75c-16.57-0.32-30.94-1.42-43.14-3.3c-12.19-1.88-21.43-4.27-27.7-7.18C1403.61,520.69,1400.47,517.58,1400.47,514.26z         M1531.15,484.78c0-2.36-2.48-4.24-7.46-5.65c-4.97-1.4-11.72-2.27-20.24-2.58v16.56c9-0.83,15.86-1.9,20.6-3.21        C1528.78,488.59,1531.15,486.88,1531.15,484.78z M1480.72,523.35V506.6c-9.23,0.83-16.33,1.88-21.3,3.16        c-4.98,1.28-7.46,2.97-7.46,5.07c0,2.17,2.55,4.02,7.64,5.55S1471.73,522.9,1480.72,523.35z" class="colord69728 svgShape"/><g fill="#000000" class="color000 svgShape"><path fill="#d68e28" d="M1215.93,432.97h602.39c-47.22-28.47-164.28-48.6-301.19-48.6C1380.2,384.37,1263.14,404.5,1215.93,432.97       z" class="colord69728 svgShape"/><path fill="#f7960d" d="M1193.63,432.96l0.01,50.23c0,42.31,144.82,76.6,323.5,76.6c178.65,0,323.5-34.29,323.5-76.6v-50.23       L1193.63,432.96L1193.63,432.96z" class="colore5a424 svgShape"/><path fill="#ffb031" d="M1193.63,432.96c0,42.31,144.83,76.61,323.5,76.61c178.66,0,323.5-34.3,323.5-76.61       s-144.83-76.61-323.5-76.61C1338.46,356.35,1193.63,390.65,1193.63,432.96z" class="colorffc431 svgShape"/><path fill="#dd9726" d="M1259.82,432.96c0,31.05,115.2,56.21,257.31,56.21s257.31-25.17,257.31-56.21       c0-31.05-115.2-56.22-257.31-56.22C1375.02,376.75,1259.82,401.92,1259.82,432.96z" class="colorddad26 svgShape"/><path fill="#d68e28" d="M1425.87,447.27c0-4.4,3.79-7.86,11.36-10.39c7.58-2.52,16.51-4.34,26.81-5.45        c10.3-1.12,24.32-2.28,42.08-3.5v-18.09c-6.86,0.58-12.37,1.55-16.51,2.92c-4.14,1.37-6.57,2.98-7.27,4.83h-53.62        c1.66-5.61,9.29-10.02,22.91-13.21c13.61-3.19,31.78-5.04,54.5-5.55v-7.75h22.73v7.75c23.43,0.51,42.56,2.52,57.34,6.03        c14.8,3.51,22.2,8.04,22.2,13.59c0,4.4-3.78,7.88-11.36,10.43s-16.57,4.4-26.99,5.55c-10.41,1.15-24.15,2.3-41.19,3.45v18.28        c16.1-0.96,24.86-3.73,26.27-8.33h53.27c-0.47,5.62-7.93,10.07-22.37,13.35c-14.43,3.28-33.5,5.21-57.17,5.79v7.85h-22.73        v-7.75c-16.57-0.32-30.95-1.42-43.14-3.3c-12.19-1.88-21.43-4.27-27.7-7.18C1429,453.7,1425.87,450.59,1425.87,447.27z         M1556.54,417.79c0-2.36-2.48-4.24-7.46-5.65c-4.97-1.4-11.72-2.26-20.24-2.58v16.56c9-0.83,15.86-1.9,20.59-3.21        C1554.18,421.61,1556.54,419.9,1556.54,417.79z M1506.11,456.37v-16.75c-9.23,0.83-16.33,1.88-21.3,3.16        c-4.97,1.28-7.46,2.97-7.46,5.07c0,2.17,2.55,4.02,7.64,5.55S1497.12,455.92,1506.11,456.37z" class="colord69728 svgShape"/></g><g fill="#000000" class="color000 svgShape"><path fill="#d68e28" d="M1227.65,365.98h602.39c-47.22-28.47-164.28-48.6-301.19-48.6       C1391.92,317.38,1274.86,337.52,1227.65,365.98z" class="colord69728 svgShape"/><path fill="#f7960d" d="M1205.34,365.98v50.23c0,42.31,144.82,76.6,323.5,76.6c178.65,0,323.5-34.29,323.5-76.6v-50.23H1205.34z" class="colore5a424 svgShape"/><path fill="#ffb031" d="M1205.34,365.98c0,42.31,144.84,76.61,323.5,76.61s323.5-34.3,323.5-76.61s-144.84-76.62-323.5-76.62       C1350.18,289.37,1205.34,323.67,1205.34,365.98z" class="colorffc431 svgShape"/><path fill="#ffa30f" d="M1271.54,365.98c0,31.04,115.2,56.21,257.31,56.21c142.1,0,257.3-25.17,257.3-56.21       c0-31.05-115.2-56.22-257.3-56.22C1386.74,309.77,1271.54,334.93,1271.54,365.98z" class="colorfcb614 svgShape"/><path fill="#eceae8" d="M1437.58,380.29c0-4.4,3.79-7.86,11.36-10.39c7.58-2.52,16.51-4.34,26.81-5.46        c10.29-1.12,24.32-2.28,42.08-3.49v-18.09c-6.86,0.57-12.37,1.55-16.51,2.92c-4.14,1.37-6.57,2.98-7.28,4.83h-53.62        c1.66-5.61,9.29-10.02,22.91-13.21c13.61-3.19,31.78-5.04,54.51-5.55v-7.75h22.73v7.75c23.43,0.51,42.56,2.52,57.35,6.03        c14.8,3.51,22.19,8.04,22.19,13.59c0,4.4-3.78,7.88-11.36,10.43s-16.57,4.4-26.99,5.55c-10.41,1.15-24.14,2.3-41.19,3.45        v18.28c16.1-0.96,24.86-3.73,26.27-8.33h53.27c-0.47,5.62-7.93,10.07-22.37,13.35c-14.43,3.29-33.5,5.22-57.17,5.79v7.85        h-22.73v-7.75c-16.57-0.32-30.95-1.42-43.15-3.3c-12.19-1.88-21.42-4.27-27.7-7.18        C1440.72,386.72,1437.58,383.61,1437.58,380.29z M1568.26,350.81c0-2.36-2.49-4.24-7.46-5.65c-4.97-1.4-11.72-2.27-20.24-2.58        v16.56c8.99-0.83,15.86-1.9,20.59-3.21C1565.89,354.62,1568.26,352.92,1568.26,350.81z M1517.84,389.38v-16.75        c-9.23,0.83-16.34,1.88-21.31,3.16c-4.97,1.28-7.46,2.97-7.46,5.07c0,2.17,2.55,4.02,7.64,5.55        C1501.8,387.95,1508.84,388.94,1517.84,389.38z" class="colorecece8 svgShape"/></g></g><g fill="#000000" class="color000 svgShape"><path fill="#d68e28" d="M1234.49,302.57h602.39c-47.22-28.47-164.28-48.6-301.19-48.6       C1398.75,253.97,1281.69,274.1,1234.49,302.57z" class="colord69728 svgShape"/><path fill="#f7960d" d="M1212.18,302.57v50.23c0,42.31,144.82,76.6,323.5,76.6c178.65,0,323.5-34.29,323.5-76.6v-50.23H1212.18z" class="colore5a424 svgShape"/><path fill="#ffb031" d="M1212.18,302.57c0,42.31,144.83,76.61,323.5,76.61c178.66,0,323.5-34.3,323.5-76.61       s-144.83-76.61-323.5-76.61C1357.02,225.95,1212.18,260.25,1212.18,302.57z" class="colorffc431 svgShape"/><path fill="#dd9726" d="M1278.37,302.57c0,31.05,115.2,56.21,257.31,56.21s257.31-25.17,257.31-56.21s-115.2-56.22-257.31-56.22       S1278.37,271.52,1278.37,302.57z" class="colorddad26 svgShape"/><path fill="#d68e28" d="M1444.42 316.88c0-4.4 3.79-7.86 11.36-10.39 7.58-2.52 16.51-4.34 26.81-5.45 10.29-1.12 24.32-2.28 42.08-3.49v-18.09c-6.86.58-12.37 1.55-16.51 2.92-4.14 1.37-6.57 2.98-7.27 4.83h-53.63c1.66-5.61 9.29-10.02 22.91-13.21 13.61-3.19 31.78-5.04 54.5-5.55v-7.75h22.73v7.75c23.43.51 42.56 2.52 57.35 6.03 14.8 3.51 22.2 8.04 22.2 13.59 0 4.4-3.79 7.88-11.36 10.43-7.58 2.55-16.57 4.4-26.99 5.55-10.41 1.15-24.15 2.3-41.19 3.45v18.28c16.1-.95 24.86-3.73 26.28-8.33h53.27c-.47 5.62-7.93 10.07-22.38 13.35-14.43 3.29-33.49 5.22-57.17 5.79v7.85h-22.73v-7.75c-16.57-.32-30.95-1.42-43.14-3.3-12.19-1.88-21.42-4.27-27.7-7.18C1447.56 323.3 1444.42 320.19 1444.42 316.88zM1575.1 287.39c0-2.36-2.49-4.24-7.46-5.65-4.97-1.4-11.72-2.27-20.24-2.58v16.56c9-.83 15.86-1.9 20.59-3.21C1572.73 291.21 1575.1 289.5 1575.1 287.39zM1524.67 325.97v-16.75c-9.23.83-16.34 1.88-21.3 3.16-4.97 1.28-7.46 2.97-7.46 5.07 0 2.17 2.55 4.02 7.64 5.55S1515.68 325.52 1524.67 325.97zM1209.1 235.59h602.39c-47.22-28.47-164.28-48.6-301.19-48.6C1373.36 186.98 1256.3 207.12 1209.1 235.59z" class="colord69728 svgShape"/><path fill="#f7960d" d="M1186.79,235.58v50.23c0,42.31,144.82,76.6,323.5,76.6c178.65,0,323.5-34.29,323.5-76.6v-50.23H1186.79z" class="colore5a424 svgShape"/><ellipse cx="1510.29" cy="235.58" fill="#ffb031" rx="323.5" ry="76.61" class="colorffc431 svgShape"/><path fill="#dd9726" d="M1252.98,235.58c0,31.04,115.2,56.21,257.3,56.21c142.11,0,257.31-25.17,257.31-56.21       c0-31.05-115.2-56.22-257.31-56.22C1368.18,179.37,1252.98,204.54,1252.98,235.58z" class="colorddad26 svgShape"/><path fill="#d68e28" d="M1419.03,249.89c0-4.4,3.79-7.86,11.36-10.39c7.58-2.52,16.51-4.34,26.81-5.45        c10.29-1.12,24.32-2.28,42.08-3.49v-18.09c-6.86,0.57-12.37,1.55-16.51,2.92s-6.57,2.98-7.27,4.83h-53.62        c1.66-5.61,9.29-10.02,22.91-13.21c13.61-3.19,31.78-5.04,54.51-5.55v-7.75h22.73v7.75c23.43,0.51,42.56,2.52,57.35,6.03        c14.8,3.51,22.2,8.04,22.2,13.59c0,4.4-3.79,7.88-11.36,10.43c-7.58,2.55-16.57,4.4-26.99,5.55        c-10.41,1.15-24.15,2.3-41.19,3.45v18.28c16.1-0.96,24.86-3.73,26.28-8.33h53.27c-0.47,5.62-7.93,10.07-22.37,13.35        c-14.43,3.29-33.5,5.21-57.17,5.79v7.85h-22.73v-7.75c-16.57-0.32-30.95-1.42-43.14-3.3c-12.19-1.88-21.42-4.27-27.7-7.18        C1422.16,256.32,1419.03,253.21,1419.03,249.89z M1549.71,220.41c0-2.36-2.48-4.24-7.46-5.65c-4.97-1.4-11.72-2.26-20.24-2.58        v16.56c9-0.83,15.86-1.9,20.59-3.21C1547.34,224.23,1549.71,222.52,1549.71,220.41z M1499.28,258.99v-16.75        c-9.23,0.83-16.34,1.88-21.31,3.16c-4.97,1.28-7.46,2.97-7.46,5.07c0,2.17,2.55,4.02,7.64,5.55        C1483.25,257.55,1490.28,258.54,1499.28,258.99z" class="colord69728 svgShape"/><g fill="#000000" class="color000 svgShape"><path fill="#d68e28" d="M1234.49,168.6h602.39c-47.22-28.47-164.28-48.6-301.19-48.6C1398.75,120,1281.69,140.14,1234.49,168.6z" class="colord69728 svgShape"/><path fill="#f7960d" d="M1212.18,168.6v50.23c0,42.31,144.82,76.6,323.5,76.6c178.65,0,323.5-34.29,323.5-76.6V168.6       L1212.18,168.6L1212.18,168.6z" class="colore5a424 svgShape"/><path fill="#ffb031" d="M1212.18,168.6c0,42.31,144.83,76.61,323.5,76.61c178.66,0,323.5-34.3,323.5-76.61       s-144.83-76.61-323.5-76.61C1357.02,91.99,1212.18,126.29,1212.18,168.6z" class="colorffc431 svgShape"/><path fill="#dd9726" d="M1278.37,168.6c0,31.05,115.2,56.21,257.31,56.21s257.31-25.17,257.31-56.21       c0-31.05-115.2-56.22-257.31-56.22C1393.57,112.38,1278.37,137.55,1278.37,168.6z" class="colorddad26 svgShape"/><path fill="#d68e28" d="M1444.42,182.91c0-4.4,3.79-7.86,11.36-10.39c7.58-2.52,16.51-4.34,26.81-5.45        c10.29-1.11,24.32-2.28,42.08-3.5v-18.09c-6.86,0.57-12.37,1.55-16.51,2.92s-6.57,2.98-7.27,4.83h-53.63        c1.66-5.61,9.29-10.02,22.91-13.21c13.61-3.19,31.78-5.04,54.5-5.55v-7.75h22.73v7.75c23.43,0.51,42.56,2.52,57.35,6.03        c14.8,3.51,22.2,8.04,22.2,13.59c0,4.4-3.79,7.88-11.36,10.43c-7.58,2.55-16.57,4.4-26.99,5.55        c-10.41,1.15-24.15,2.3-41.19,3.45v18.28c16.1-0.96,24.86-3.73,26.28-8.33h53.27c-0.47,5.62-7.93,10.07-22.38,13.35        c-14.43,3.29-33.49,5.22-57.17,5.79v7.85h-22.73v-7.75c-16.57-0.32-30.95-1.42-43.14-3.3c-12.19-1.88-21.42-4.27-27.7-7.18        C1447.56,189.34,1444.42,186.23,1444.42,182.91z M1575.1,153.43c0-2.36-2.49-4.24-7.46-5.65c-4.97-1.4-11.72-2.27-20.24-2.58        v16.56c9-0.83,15.86-1.9,20.59-3.21C1572.73,157.24,1575.1,155.54,1575.1,153.43z M1524.67,192v-16.75        c-9.23,0.83-16.34,1.88-21.3,3.16c-4.97,1.28-7.46,2.97-7.46,5.07c0,2.17,2.55,4.02,7.64,5.55        C1508.64,190.57,1515.68,191.56,1524.67,192z" class="colord69728 svgShape"/></g><g fill="#000000" class="color000 svgShape"><path fill="#d68e28" d="M1246.21,101.62h602.39c-47.22-28.47-164.28-48.6-301.19-48.6C1410.47,53.02,1293.41,73.15,1246.21,101.62       z" class="colord69728 svgShape"/><path fill="#f7960d" d="M1223.9,101.62v50.23c0,42.31,144.83,76.6,323.5,76.6c178.65,0,323.49-34.29,323.49-76.6v-50.23       C1870.89,101.62,1223.9,101.62,1223.9,101.62z" class="colore5a424 svgShape"/><path fill="#ffb031" d="M1223.9,101.62c0,42.31,144.84,76.61,323.5,76.61s323.5-34.3,323.5-76.61S1726.07,25,1547.4,25       C1368.74,25,1223.9,59.3,1223.9,101.62z" class="colorffc431 svgShape"/><path fill="#ffa30f" d="M1290.09,101.62c0,31.04,115.2,56.21,257.31,56.21s257.3-25.17,257.3-56.21       c0-31.05-115.2-56.22-257.3-56.22C1405.29,45.4,1290.09,70.57,1290.09,101.62z" class="colorfcb614 svgShape"/><path fill="#eceae8" d="M1456.14,115.93c0-4.4,3.79-7.86,11.36-10.39c7.58-2.52,16.51-4.34,26.81-5.46        c10.29-1.12,24.33-2.28,42.08-3.49V78.5c-6.86,0.57-12.37,1.55-16.51,2.92c-4.14,1.37-6.57,2.98-7.28,4.83h-53.62        c1.66-5.61,9.29-10.02,22.91-13.21c13.62-3.19,31.78-5.04,54.51-5.55v-7.75h22.73v7.75c23.43,0.51,42.55,2.52,57.34,6.03        c14.8,3.51,22.2,8.04,22.2,13.59c0,4.4-3.78,7.88-11.36,10.43s-16.57,4.4-26.99,5.55c-10.41,1.15-24.14,2.3-41.19,3.45v18.28        c16.1-0.96,24.86-3.73,26.27-8.33h53.27c-0.47,5.62-7.93,10.07-22.37,13.35c-14.43,3.29-33.5,5.22-57.17,5.79v7.85h-22.73        v-7.75c-16.57-0.32-30.95-1.42-43.14-3.3c-12.19-1.88-21.42-4.27-27.7-7.18C1459.27,122.35,1456.14,119.24,1456.14,115.93z         M1586.82,86.44c0-2.36-2.48-4.24-7.46-5.65c-4.97-1.4-11.72-2.26-20.24-2.58v16.56c8.99-0.83,15.86-1.9,20.59-3.21        C1584.45,90.26,1586.82,88.55,1586.82,86.44z M1536.39,125.02v-16.75c-9.23,0.83-16.34,1.88-21.3,3.16        c-4.98,1.28-7.46,2.97-7.46,5.07c0,2.17,2.55,4.02,7.64,5.55C1520.36,123.58,1527.39,124.57,1536.39,125.02z" class="colorecece8 svgShape"/></g></g><path fill="#ffbf66" d="M1685.27,1014.9c-4.96,2.28-10.35,3.6-15.84,4.16l-6.05,0.61l-27.24,2.69l-73.45,7.25l-14.37-72.68   l32.97-14.02c6.36-2.73,11.29-8.09,13.38-14.7l8.7-26.99c1.31-4.16,5.29-6.87,9.67-6.61c1.98,0.1,3.77,0.85,5.19,1.95   c2.74,2.11,4.23,5.63,3.56,9.32l-4.88,25.93c0,0,8.22-1.98,18.22-6.49c5.99-2.71,11.51-4.35,16.53-5.05   C1704.09,912.91,1705.51,1005.66,1685.27,1014.9z" class="colorf3be99 svgShape"/><path fill="#e0b272" d="M1068.53,1042.74c167.11,22.4,295.9,23.45,506.59,1.46l-18.66-111.75c-215.42,20.22-392.3,16.8-490.47-43.95   C1056.25,940.2,1054.95,991.83,1068.53,1042.74z" class="color72b0e0 svgShape"/></svg>