<svg xmlns="http://www.w3.org/2000/svg" viewBox="0 0 30.2 154.04"><defs><clipPath id="a"><path fill="none" d="M22,24.1s-7.43,5.69-9.6,10.54C10,40,7.15,42.54,6.48,48.05c-1,7.88-1.8,9.56-2.62,17.55-1,10-1.68,14-2.94,18.56,0,0,8.76,2.24,15.64,2.24,12,0,13.49-4.4,13.49-4.4-.47-5.45-.3-8.61-.4-20.23-.09-10-.52-13.14-1.15-23.72C28.19,32.89,28.22,26.51,22,24.1Z"/></clipPath></defs><g data-name="Layer 1" fill="#ffa30f" class="color000 svgShape"><path fill="#ffbf66" d="M13.32,28.39s4.1-1,5.09.38C21.25,32.6,7.05,45.29,7.05,45.29,7.15,39,10.69,30.11,13.32,28.39Z" class="colorf4e2cb svgShape"/><path fill="#9f845d" d="M22.51,139.83l-8.12.09a16.83,16.83,0,0,1-1.32,9.18l7.63-.37L22,147.32A18.28,18.28,0,0,1,22.51,139.83Z" class="color9f6a5d svgShape"/><path fill="#ffbf66" d="M0,152.57l22.83-.27a12.21,12.21,0,0,0-.25-3.42,11.53,11.53,0,0,0-.4-1.42.22.22,0,0,0-.24-.13l-9.87,1.78a.44.44,0,0,1-.48-.25.45.45,0,0,1,.17-.56l2.38-1.58a.41.41,0,0,0-.37-.73l-5.83,2.43A50.17,50.17,0,0,1,1.54,151,1.87,1.87,0,0,0,0,152.57Z" class="colorf4e2cb svgShape"/><path fill="#28221a" d="M14.86 148.61h0a3.15 3.15 0 00-.92-1.75h0l-2.2 1.45a.45.45 0 00-.11.62.44.44 0 00.44.18zM0 153.14v-.57l22.83-.27v1.09c0 .22-.24.41-.55.41l-21 .24C.58 154.05 0 153.65 0 153.14z" class="color281a24 svgShape"/><path fill="#6a5e4d" d="M7,79.79c.71,4.43.67,10.27,1.47,18.13.45,4.46,1.66,10.66,2.07,17.18.9,14.44,1.14,18.64,3,24.81a17.39,17.39,0,0,0,4.73.42,25.42,25.42,0,0,0,4.57-.35c2.31-10.86,2.2-20,2.18-31.23,0-13.4,3.94-21.58,1.79-29Z" class="color6a4d52 svgShape"/><path fill="#383126" d="M12.83 139.86c5.54 1.95 11.38-.21 11.38-.21l.25-4a44.59 44.59 0 01-6.38.62 45.63 45.63 0 01-5.84-.4zM6 82.16a25 25 0 006 7.57 22.41 22.41 0 009.1 5.08 12.38 12.38 0 006.28-.1.61.61 0 00.48-.65l-.12-.7a.67.67 0 00-.85-.43c-3.18.81-6.84-.25-9.3-1.69a25.67 25.67 0 01-6.87-5.79A22 22 0 018 81.36c-.55-1.07-2.58-.28-2 .8z" class="color382633 svgShape"/><path fill="#967c57" d="M19.91,27.7c-1.22.51-6.4,2.49-6.59.69l.23-10,7.86.32s0,.62,0,1.72A18.73,18.73,0,0,0,22.7,26C22.77,26.21,20.11,27.62,19.91,27.7Z" class="color966157 svgShape"/><path d="M13.41,24.4l0-1.41s4.7-.61,6.06-2.47C19.5,20.52,18.76,23.64,13.41,24.4Z" style="mix-blend-mode:multiply" fill="#9f845d" opacity=".2" class="color9f6a5d svgShape"/><path fill="#967c57" d="M21.19,18.68A2.62,2.62,0,0,1,18.89,17s-2.24-9-5.4-9C9.74,7.9,8.14,9,7.75,12.71A4.31,4.31,0,0,1,6.1,15.62a.48.48,0,0,0,.44.79l.54,0a.23.23,0,0,1,.24.22c.17,2.08,1.13,5,1.79,5.49a8.38,8.38,0,0,0,3.43.88C18.14,23.33,21.19,18.68,21.19,18.68Z" class="color966157 svgShape"/><path fill="#383126" d="M9.07 14.66a.29.29 0 00.45.07.44.44 0 00.08-.54.3.3 0 00-.46-.08A.45.45 0 009.07 14.66zM23.6 5.5c-1.51-2.13-4.14-3.07-7.5-2.7 0 0-3.68.61-5.07.64 0 0-1.09 4.49-1.09 4.49a8.48 8.48 0 012.38 1.51A7 7 0 0114 13.15c0 .33.06.77.06 1.07v.06c.84 1.3 1.45.06 1.46.07v-.51a.13.13 0 000-.06s1.52.64 1.64 1.54c.34 2.71 2.54 5.26 3.91 5.27 3 0 2.73-4.29 4.08-7.81C26.28 10 25.11 7.61 23.6 5.5z" class="color382633 svgShape"/><path fill="#967c57" d="M18.56,14.43a1.45,1.45,0,0,1-1.7,1.18A1.55,1.55,0,0,1,15.55,14a1.5,1.5,0,0,1,1.51-1.49A1.53,1.53,0,0,1,18.56,14.43Z" class="color966157 svgShape"/><path d="M17.36,14.14a.39.39,0,0,0-.25-.29.44.44,0,0,0-.2,0,.94.94,0,0,1,.32-.39c.07,0,0-.16-.07-.11a1.14,1.14,0,0,0-.39.48,1.27,1.27,0,0,0,0,.67c0,.09.14,0,.13,0a1.15,1.15,0,0,1,0-.49h.21l0,0h0l0,0h0a.08.08,0,0,0,0,0h0v0s0,0,0,0h0v.07h0v0s0,0,0,0v0h0l0,0v0h0a.06.06,0,0,0,0,.09.08.08,0,0,0,.1,0A.46.46,0,0,0,17.36,14.14Z" style="mix-blend-mode:multiply" fill="#9f845d" opacity=".5" class="color9f6a5d svgShape"/><path fill="#383126" d="M11.1,13a10.46,10.46,0,0,0-2.66-.14.49.49,0,0,1-.07-1,7,7,0,0,1,3.15.6C12.1,12.7,12,13.3,11.1,13Z" class="color382633 svgShape"/><path fill="#ffbf66" d="M8.8,7.82A3.29,3.29,0,0,1,7.2,4.54c.1-.93.21-2.27,1.6-2.62.56-.15,2.71-2.16,4.4-1.9,1.52.24,2.41,1.23,4,1.62C19.74,2.24,21,3.08,21.07,4s-.42,1.7.22,2.85C22,8.18,22.7,8.39,23,9.45c.16.57-.23.63-.94,2.55-.54,1.44-.2,2.45-.69,2.67-1,.44-1.56-.88-2.44-1.06a5.07,5.07,0,0,1-2.15-1c-.64-.89.43-1.91-.11-2.46s-2,.55-4,.05C11.47,9.93,9.94,10,9.6,9.66,8.49,8.68,9.51,8.27,8.8,7.82Z" class="colorf4e2cb svgShape"/><path fill="#ffffff" d="M7.68,18.7a.87.87,0,0,0,.05.22,1.67,1.67,0,0,1,0,.19c0,.05,0,.18,0,.18,1.39.4,1.95-.75,1.7-.66A3.79,3.79,0,0,1,7.68,18.7Z" class="colorfff svgShape"/><path fill="#ffbf66" d="M14.08,13.75l-3.36-.2a1.63,1.63,0,0,0-1.24-1.18,1.86,1.86,0,0,0-1.89,1.69l-.2,0a3.45,3.45,0,0,0-.19.34l.34,0a1.85,1.85,0,0,0,1.35,2.05,1.91,1.91,0,0,0,1.92-1.83,2.68,2.68,0,0,0,0-.75l3.3.2ZM8.94,16.11a1.56,1.56,0,0,1-1.09-1.88,1.55,1.55,0,0,1,1.58-1.49,1.55,1.55,0,0,1,1.09,1.87A1.57,1.57,0,0,1,8.94,16.11Z" class="colorf4e2cb svgShape"/><g clip-path="url(#a)" fill="#ffa30f" class="color000 svgShape"><path fill="#f7960d" d="M22,24.1s-7.43,5.69-9.6,10.54C10,40,7.15,42.54,6.48,48.05c-1,7.88-1.8,9.56-2.62,17.55-1,10-1.68,14-2.94,18.56,0,0,8.76,2.24,15.64,2.24,12,0,13.49-4.4,13.49-4.4-.47-5.45-.3-8.61-.4-20.23-.09-10-.52-13.14-1.15-23.72C28.19,32.89,28.22,26.51,22,24.1Z" class="colord8624a svgShape"/><path fill="#28221a" d="M11.88,30.15a2.9,2.9,0,0,0,2.22,1.42c.19,0,.19-.29,0-.3a2.55,2.55,0,0,1-2-1.28c-.11-.15-.37,0-.26.16Z" opacity=".15" class="color281a24 svgShape"/><path fill="#c6862c" d="M11.17,78a.66.66,0,0,0,.22.22l.26.19a6.05,6.05,0,0,0,.55.32.16.16,0,0,0,.21-.06.14.14,0,0,0-.06-.2,5.24,5.24,0,0,1-.51-.3,2.2,2.2,0,0,1-.25-.17L11.5,78l-.05,0h0l0,0a.14.14,0,0,0-.2-.05.16.16,0,0,0-.05.21Z" class="colorc6432c svgShape"/><path fill="#faf4ec" d="M16.76 38.51a28.38 28.38 0 005.33 1c.91.08 1.83.11 2.74.1a7.32 7.32 0 002.47-.25c.2-.09.11-.42-.1-.34a7 7 0 01-2.47.24 25.89 25.89 0 01-2.64-.1 27.45 27.45 0 01-5.24-.95.18.18 0 00-.09.34zM16.07 47.28a20.12 20.12 0 005.63.7 31.37 31.37 0 005.81-.4c.22 0 .13-.37-.09-.33a32.23 32.23 0 01-5.72.38 19.49 19.49 0 01-5.54-.69.18.18 0 00-.09.34zM15.12 55.72a33.15 33.15 0 0012 1.25c.22 0 .22-.36 0-.35a32.9 32.9 0 01-11.88-1.24.18.18 0 00-.09.34zM13.76 64.78a44.06 44.06 0 0011.63 1.79c.23 0 .23-.34 0-.35a43.39 43.39 0 01-11.54-1.78c-.22-.07-.31.27-.09.34zM12.48 71.92a30.37 30.37 0 0010.29 1.93c.22 0 .23-.34 0-.35a29.9 29.9 0 01-10.2-1.92c-.21-.08-.3.26-.09.34zM1.74 79.14a36.47 36.47 0 0013.75 2.51A47.44 47.44 0 0030.08 80.1c.22-.07.12-.41-.09-.34a46.77 46.77 0 01-14 1.55 36.64 36.64 0 01-14-2.48c-.21-.08-.39.22-.18.31zM3 72.83A37.15 37.15 0 0012 73.9c.22 0 .22-.34 0-.35a37 37 0 01-8.83-1.06.18.18 0 00-.09.34zM23.15 73.68a23 23 0 006.66-.63c.22 0 .12-.39-.09-.33a22.7 22.7 0 01-6.57.61c-.22 0-.22.34 0 .35zM3.66 65.63a49.26 49.26 0 009.61 1.05.18.18 0 000-.35 48.25 48.25 0 01-9.51-1c-.22-.05-.32.29-.1.34zM25.39 67.23A18.47 18.47 0 0030 67.17c.23 0 .13-.37-.09-.34a18.23 18.23 0 01-4.55 0c-.22 0-.22.33 0 .35zM4.92 56.83a63.16 63.16 0 009.66 1.48c.23 0 .23-.33 0-.35A62 62 0 015 56.49c-.22-.05-.31.29-.09.34zM26.93 59.27a8.42 8.42 0 002.65.16c.22 0 .23-.37 0-.35A8.48 8.48 0 0127 58.93c-.22 0-.31.29-.09.34zM5.86 50a32.23 32.23 0 004.65 1c1.65.22 3.32.29 5 .36.22 0 .22-.34 0-.35-1.6-.07-3.2-.14-4.79-.34A32 32 0 016 49.61a.18.18 0 00-.09.34zM27.57 51.86c.62 0 1.23 0 1.85 0 .22 0 .22-.36 0-.35-.62 0-1.23 0-1.85 0-.22 0-.22.34 0 .35zM8.32 41.73a28.71 28.71 0 007.9 1.57c.22 0 .22-.34 0-.35a28.51 28.51 0 01-7.81-1.56c-.21-.07-.31.26-.09.34zM27.71 44.14a6.15 6.15 0 001.21-.07.19.19 0 00.12-.22.18.18 0 00-.22-.12 5.14 5.14 0 01-1.11.06.18.18 0 00-.17.18.16.16 0 00.17.17zM12.6 32.54a17.24 17.24 0 002.15 1.55 10.6 10.6 0 002.31 1.21c.21.07.31-.26.09-.34a10.79 10.79 0 01-2.23-1.17 19.18 19.18 0 01-2.08-1.49c-.16-.15-.41.09-.24.24zM26.52 32.51a4.66 4.66 0 001.58-.24.19.19 0 00.13-.21.18.18 0 00-.22-.12 4.41 4.41 0 01-1.49.22c-.23 0-.23.34 0 .35z" class="colorfaf6ec svgShape"/><path fill="#fbf5ed" d="M25.54 65.72a61.91 61.91 0 01.51 9.72 34.14 34.14 0 00.15 4.85 31.94 31.94 0 01.66 4.65.18.18 0 00.35 0 42.8 42.8 0 00-.7-5 39.34 39.34 0 01-.11-4.86 58.49 58.49 0 00-.53-9.44c0-.22-.37-.13-.33.09zM19.19 79.76A23.45 23.45 0 0119 86.55c0 .22.32.22.35 0a23.42 23.42 0 00.21-6.89c0-.22-.38-.12-.34.1zM17.61 26.66c-.79 3.75-2.41 7.23-3.7 10.82A61.4 61.4 0 0011.22 49c-1.26 8-2 16.09-2.45 24.18-.28 4.65-.49 9.31-.71 14 0 .22.34.22.35 0 0-.49.05-1 .07-1.47 0-.22-.34-.22-.35 0 0 .49 0 1-.07 1.47h.35c.48-10.37.95-20.75 2.18-31.07a104.31 104.31 0 012.66-15.41c1.31-4.73 3.69-9.1 4.69-13.92 0-.22-.29-.31-.33-.09zM2.64 85.09q0-8.94-.1-17.87a.18.18 0 00-.35 0q0 8.93.1 17.87a.18.18 0 00.35 0zM15.4 80.49c1.35-.39 1.42-3 1.66-4.1.5-2.23 1-4.46 1.37-6.7.88-4.73 1.62-9.48 2.35-14.23q1-6.81 2.08-13.63c.64-4.18 1.26-8.44.18-12.6a.18.18 0 00-.34.09c1.13 4.34.38 8.77-.28 13.12q-.93 6.11-1.87 12.21c-.64 4.18-1.28 8.37-2 12.54-.37 2.08-.76 4.17-1.19 6.24-.23 1.11-.47 2.23-.72 3.34-.2.85-.32 3.1-1.32 3.38a.18.18 0 00.1.34z" class="colorfafbed svgShape"/><path fill="#c6862c" d="M20.89 27.87c-2.6 2.78-3.73 6.43-4.22 10.13-.57 4.26-.64 8.57-1.1 12.84-1 9.09-2.69 18.09-4.42 27.07 0 .19.25.27.29.08 1.61-8.37 3.19-16.75 4.2-25.22.51-4.26.73-8.54 1.12-12.81s1.32-8.64 4.34-11.87c.14-.14-.08-.36-.21-.22zM26.36 34.55a40.26 40.26 0 011.12 11.32c-.05 3.85-.16 7.71-.54 11.55a51.36 51.36 0 01-2.36 11.44c-1.19 3.5-2.64 6.9-3.95 10.35-.07.18.22.26.29.08 1.33-3.52 2.82-7 4-10.56a51.5 51.5 0 002.3-11.31c.39-3.92.5-7.86.54-11.78a39.55 39.55 0 00-1.13-11.17.15.15 0 00-.29.08z" class="colorc6432c svgShape"/><path fill="#c6862c" d="M18.61,79.86a9.18,9.18,0,0,0,2.2-.47c.18-.06.11-.35-.08-.29a8.91,8.91,0,0,1-2.12.46c-.19,0-.19.32,0,.3Z" class="colorc6432c svgShape"/></g><path fill="#967c57" d="M12.44,78.58c-.22.49-.38.89-1.13,2.35C10.09,83.27,9,84.52,9.16,84.78c.42.51,2.06-.44,2.53-1,0,0-.08,1.12-.11,2.86,0,1.48.21,3,.63,3,.27,0,.75-.44.75-.44.06.37.37.89.65.9.61,0,.83-.89.83-.89.18.37.56.67.86.62.68-.12.78-1.76.78-1.76a.73.73,0,0,0,.45.37c.51.09.76-1.07.92-2.36.11-.82.38-1.75.52-3.48a12.72,12.72,0,0,1,.5-2.91A13.94,13.94,0,0,1,12.44,78.58Z" class="color966157 svgShape"/><path fill="#9f845d" d="M13 89a7.83 7.83 0 01-.17-2.41c.13-.76.29-1.51.49-2.26 0-.09-.13-.13-.15 0a23 23 0 00-.51 2.44 7.83 7.83 0 00.19 2.31c0 .1.16 0 .15 0zM14.47 89.07a9.34 9.34 0 01.36-4c0-.09-.12-.13-.15 0a9.36 9.36 0 00-.36 4c0 .1.17.1.15 0zM16.16 88a7.7 7.7 0 01.4-3.16.08.08 0 00-.15 0A7.79 7.79 0 0016 88c0 .1.16.1.15 0z" opacity=".5" class="color9f6a5d svgShape"/><path fill="#28221a" d="M11.66,30.53a3.61,3.61,0,0,0,2.26,1.32.15.15,0,0,0,.18-.11.14.14,0,0,0-.1-.18,3.37,3.37,0,0,1-2.13-1.24.15.15,0,0,0-.21,0,.14.14,0,0,0,0,.21Z" opacity=".15" class="color281a24 svgShape"/></g></svg>