<svg xmlns="http://www.w3.org/2000/svg" enable-background="new 0 0 2000 2000" viewBox="-17.016 200.101 2034.032 1547.227"><ellipse cx="1000" cy="1648.69" fill="#f9f2e8" rx="924.56" ry="28.31" class="coloreae8f9 svgShape"/><g opacity=".45" fill="#000000" class="color000 svgShape"><path fill="#fbefdf" d="M138.03,826.04L138.03,826.04c0-101.77,88.48-184.26,197.63-184.26h41.22      c-19.28-15.56-31.5-38.53-31.5-64.18v0c0-46.87,40.76-84.87,91.03-84.87h137.21c-13.88-11.14-22.7-27.6-22.7-46.01      c0-33.54,29.16-60.73,65.13-60.73h344.52c35.97,0,65.13,27.19,65.13,60.73c0,33.54-29.16,60.73-65.13,60.73h-129      c-24.02,15.28-39.79,41-39.79,70.15v0c0,25.64,12.22,48.61,31.5,64.18h212.16c109.15,0,197.63,82.5,197.63,184.26l0,0      c0,101.77-88.48,184.26-197.63,184.26h281.06c50.27,0,91.03,38,91.03,84.87c0,46.87-40.76,84.87-91.03,84.87h114.52      c125.12,0,228.98,84.58,249.6,195.74h40.1c78.01,0,141.26,58.97,141.26,131.7v13.34c0,72.74-63.24,131.7-141.26,131.7h-289.7      H482.92h-91.51c-139.94,0-253.38-105.77-253.38-236.25v0c0-130.47,113.44-236.24,253.38-236.24H835      c-50.27,0-91.03-38-91.03-84.87c0-46.87,40.75-84.87,91.03-84.87H335.66C226.51,1010.31,138.03,927.81,138.03,826.04z" class="colore1dffb svgShape"/><ellipse cx="1145.17" cy="446.72" fill="#fbefdf" rx="59.17" ry="60.73" class="colore1dffb svgShape"/></g><path fill="#f5ce99" d="M824.76,675.55c0.22-10.16-1.34-20.43-4.78-30.34l22.18-19.67l-14.54-23.43l-27.34,11.09        c-7.35-7.61-15.9-13.67-25.16-18.07l1.77-29.47l-26.84-6.29l-11.55,27.33c-10.15-0.1-20.39,1.58-30.25,5.15l-19.82-22.37        l-23.43,14.54l11.37,28.03c-7.26,7.22-13.06,15.56-17.29,24.55l-30.5-1.84l-6.29,26.85l28.48,12.04        c-0.02,9.72,1.59,19.51,4.92,28.95l-23.29,20.65l14.53,23.43l28.97-11.75c6.97,7.06,14.99,12.75,23.64,16.97l-1.88,31.22        l26.84,6.29l12.11-28.66c9.72,0.14,19.54-1.35,29.02-4.57l20.49,23.12l23.43-14.54l-11.48-28.3        c7.4-7.1,13.34-15.34,17.73-24.26l30.17,1.82l6.29-26.85L824.76,675.55z M760.74,710.75c-20.44,12.68-47.29,6.39-59.97-14.05        c-12.68-20.45-6.39-47.3,14.04-59.98c20.44-12.68,47.29-6.39,59.97,14.05C787.46,671.21,781.18,698.07,760.74,710.75z" class="color9c99f5 svgShape"/><path fill="#efe0ca" d="M814.29,680.98c0.22-10.16-1.34-20.43-4.78-30.34l22.18-19.67l-14.54-23.44l-27.34,11.09        c-7.35-7.61-15.9-13.67-25.16-18.07l1.77-29.47l-26.84-6.29l-11.55,27.33c-10.15-0.1-20.39,1.58-30.25,5.15l-19.82-22.37        l-23.43,14.54l11.37,28.03c-7.26,7.22-13.06,15.56-17.29,24.55l-30.5-1.84l-6.29,26.85l28.48,12.04        c-0.02,9.71,1.59,19.5,4.92,28.95l-23.29,20.65l14.54,23.43l28.97-11.75c6.97,7.06,14.98,12.75,23.64,16.97l-1.88,31.22        l26.84,6.29l12.11-28.66c9.72,0.14,19.54-1.35,29.02-4.57l20.49,23.12l23.42-14.54l-11.48-28.3        c7.4-7.1,13.34-15.34,17.73-24.26l30.17,1.82l6.29-26.85L814.29,680.98z M750.27,716.19c-20.44,12.68-47.29,6.39-59.97-14.05        c-12.68-20.45-6.39-47.3,14.04-59.99c20.44-12.68,47.29-6.39,59.97,14.05C777,676.65,770.71,703.51,750.27,716.19z" class="colorcacfef svgShape"/><polygon fill="#f5ce99" points="618.12 640.19 627.19 640.74 628.59 634.76" class="color9c99f5 svgShape"/><polygon fill="#f5ce99" points="739.59 564.81 750.06 559.37 747.03 566.55" class="color9c99f5 svgShape"/><polygon fill="#f5ce99" points="677.97 574.92 688.44 569.48 678.57 575.6" class="color9c99f5 svgShape"/><polygon fill="#f5ce99" points="714.05 794.86 724.52 789.42 717.08 787.68" class="color9c99f5 svgShape"/><polygon fill="#f5ce99" points="835.52 719.47 845.99 714.04 836.92 713.49" class="color9c99f5 svgShape"/><polygon fill="#f5ce99" points="775.67 784.75 786.14 779.31 785.53 778.63" class="color9c99f5 svgShape"/><path fill="#c89a5a" d="M1462.55,1190.55h-3.45c-3.69,0-6.69,1.17-6.69,2.61v26.75c0,1.44,2.99,2.61,6.69,2.61h3.45    c3.69,0,6.69-1.17,6.69-2.61v-26.75C1469.24,1191.72,1466.25,1190.55,1462.55,1190.55z" class="color5a5ec8 svgShape"/><path fill="#eddabf" d="M1481.03,1166.18h-40.4c-13.37,0-24.21,7.6-24.21,16.98l0,0c0,9.38,10.84,16.98,24.21,16.98h40.4    c13.37,0,24.21-7.6,24.21-16.98l0,0C1505.24,1173.78,1494.4,1166.18,1481.03,1166.18z" class="colorc2bfed svgShape"/><path fill="#e2c69f" d="M1488.52,1167.02c5.08,3.11,8.31,7.68,8.31,12.78c0,9.38-10.84,16.98-24.21,16.98h-40.4    c-2.62,0-5.13-0.3-7.49-0.84c4.26,2.61,9.81,4.2,15.9,4.2h40.4c13.37,0,24.21-7.6,24.21-16.98    C1505.24,1175.62,1498.22,1169.23,1488.52,1167.02z" class="color9fa5e2 svgShape"/><path fill="#c89a5a" d="M1631.02,1248.35c-0.15-1.41-0.88-2.71-1.99-3.55l-0.99-0.75l0,0c-1.12-0.84-2.56-1.18-3.96-0.94     c-1.35,0.24-2.56,0.98-3.4,2.09l-15.95,21.15c-0.84,1.11-1.22,2.48-1.08,3.85c0.15,1.41,0.88,2.71,1.99,3.55l0.99,0.75     c0.91,0.69,1.98,1.02,3.06,1.02c1.62,0,3.24-0.75,4.31-2.17l15.95-21.15C1630.79,1251.08,1631.17,1249.71,1631.02,1248.35z" class="color5a5ec8 svgShape"/><path fill="#eddabf" d="M1639.49,1212.7l21.28,16.23c22.32,17.04,26.61,48.94,9.58,71.27l-102.12-77.92     C1585.26,1199.95,1617.17,1195.67,1639.49,1212.7z" class="colorc2bfed svgShape"/><path fill="#e2c69f" d="M1670.23,1238.36c3.47,14.37,0.67,30.13-8.99,42.8l-86.44-65.96c-2.36,2.11-4.57,4.47-6.57,7.09     l102.12,77.92C1684.6,1281.52,1683.91,1256.13,1670.23,1238.36z" class="color9fa5e2 svgShape"/><path fill="#c89a5a" d="M1315.49,1266.35l-15.95-21.15c-0.84-1.11-2.05-1.86-3.4-2.09c-1.4-0.24-2.85,0.1-3.96,0.94l-1,0.75     c-1.12,0.84-1.84,2.14-1.99,3.55c-0.15,1.37,0.24,2.73,1.08,3.85l15.95,21.15c1.07,1.42,2.69,2.17,4.31,2.17     c1.07,0,2.15-0.33,3.06-1.02l0.99-0.75c1.12-0.84,1.84-2.14,1.99-3.55C1316.71,1268.83,1316.33,1267.46,1315.49,1266.35z" class="color5a5ec8 svgShape"/><path fill="#eddabf" d="M1280.72,1212.7l-21.28,16.23c-22.32,17.04-26.61,48.94-9.58,71.27l102.12-77.92     C1334.95,1199.95,1303.04,1195.67,1280.72,1212.7z" class="colorc2bfed svgShape"/><path fill="#e2c69f" d="M1249.98,1238.36c-3.47,14.37-0.67,30.13,8.99,42.8l86.44-65.96c2.36,2.11,4.57,4.47,6.57,7.09     l-102.12,77.92C1235.61,1281.52,1236.3,1256.13,1249.98,1238.36z" class="color9fa5e2 svgShape"/><path fill="#c89a5a" d="M1367.27 1553.99c-.97-4.28-3.86-8.03-7.92-10.29l-.32-.18c-8.03-4.47-18.32-2.32-23.42 4.9l-55.09 77.87c-2.5 3.53-3.35 7.74-2.42 11.86.97 4.28 3.86 8.02 7.92 10.29l.32.18c2.83 1.57 5.93 2.33 9 2.33 5.63 0 11.12-2.55 14.43-7.23l55.09-77.87C1367.35 1562.32 1368.21 1558.11 1367.27 1553.99zM1635.72 1627.93l-51.19-79.94c-4.76-7.43-14.94-9.99-23.18-5.84l-.33.17c-4.18 2.11-7.25 5.75-8.41 10-1.11 4.06-.45 8.28 1.86 11.89l51.19 79.94c3.22 5.03 8.92 7.83 14.82 7.83 2.82 0 5.69-.64 8.36-1.99l.33-.17c4.18-2.11 7.25-5.75 8.41-10C1638.69 1635.76 1638.03 1631.54 1635.72 1627.93z" class="color5a5ec8 svgShape"/><ellipse cx="1460.83" cy="1429.16" fill="#eddabf" rx="216.6" ry="214.68" class="colorc2bfed svgShape"/><path fill="#e2c69f" d="M1460.83,1214.48c-21.18,0-41.64,3.03-60.98,8.64c14.84-3.32,30.28-5.08,46.14-5.08    c115.22,0,208.63,92.58,208.63,206.77c0,114.2-93.41,206.77-208.63,206.77c-58.57,0-111.49-23.93-149.38-62.45    c39.72,45.74,98.56,74.71,164.23,74.71c119.63,0,216.6-96.12,216.6-214.68C1677.43,1310.59,1580.45,1214.48,1460.83,1214.48z" class="color9fa5e2 svgShape"/><ellipse cx="1460.83" cy="1429.16" fill="#ffffff" rx="175.33" ry="173.77" class="colorfff svgShape"/><path fill="#fbefdf" d="M1285.54 1432.71h18.84c4.92 0 8.91-3.99 8.91-8.91l0 0c0-4.92-3.99-8.91-8.91-8.91h-18.29c-.39 4.7-.59 9.46-.59 14.26C1285.5 1430.35 1285.52 1431.53 1285.54 1432.71zM1606.57 1423.8L1606.57 1423.8c0 4.92 3.99 8.91 8.91 8.91h20.64c.02-1.18.05-2.37.05-3.56 0-4.8-.21-9.56-.59-14.26h-20.09C1610.56 1414.89 1606.57 1418.88 1606.57 1423.8zM1356.24 1534.92c-3.48-3.48-9.12-3.48-12.6 0l-11.86 11.86c4.04 4.35 8.31 8.5 12.77 12.43l11.69-11.69C1359.72 1544.04 1359.72 1538.4 1356.24 1534.92L1356.24 1534.92zM1578.35 1300.21l-14.73 14.73c-3.48 3.48-3.48 9.12 0 12.6 3.48 3.48 9.12 3.48 12.6 0l14.79-14.79C1587 1308.36 1582.78 1304.17 1578.35 1300.21zM1459.93 1577.87c-4.92 0-8.91 3.99-8.91 8.91v15.88c3.25.18 6.52.28 9.81.28 2.69 0 5.35-.07 8.01-.19v-15.96C1468.84 1581.86 1464.85 1577.87 1459.93 1577.87zM1460.83 1255.38c-3.29 0-6.56.1-9.81.28v20.02c0 4.92 3.99 8.91 8.91 8.91 4.92 0 8.91-3.99 8.91-8.91v-20.11C1466.18 1255.45 1463.51 1255.38 1460.83 1255.38zM1589.01 1547.71l-12.79-12.79c-3.48-3.48-9.12-3.48-12.6 0-3.48 3.48-3.48 9.12 0 12.6l12.53 12.53C1580.64 1556.15 1584.93 1552.03 1589.01 1547.71zM1329.8 1313.7l13.84 13.84c3.48 3.48 9.12 3.48 12.6 0l0 0c3.48-3.48 3.48-9.12 0-12.6l-13.88-13.88C1337.96 1305.06 1333.77 1309.28 1329.8 1313.7z" class="colore1dffb svgShape"/><path fill="#e2c69f" d="M1458.8,1421.79L1458.8,1421.79c-2.82,0-5.1-2.28-5.1-5.1v-51.29c0-2.82,2.28-5.1,5.1-5.1l0,0    c2.82,0,5.1,2.28,5.1,5.1v51.29C1463.9,1419.5,1461.62,1421.79,1458.8,1421.79z" class="color9fa5e2 svgShape"/><path fill="#daa252" d="M1561.02,1477.13L1561.02,1477.13c-1.31,2.5-4.39,3.46-6.89,2.16l-95.6-50.03c-2.5-1.31-3.46-4.39-2.16-6.89    l0,0c1.31-2.5,4.39-3.46,6.89-2.15l95.6,50.03C1561.36,1471.55,1562.32,1474.63,1561.02,1477.13z" class="colorda6d52 svgShape"/><path fill="#5c3907" d="M1472.14,1424.12c0,7.12-5.77,12.89-12.89,12.89s-12.89-5.77-12.89-12.89c0-7.12,5.77-12.89,12.89-12.89    S1472.14,1417,1472.14,1424.12z" class="color070f5c svgShape"/><path fill="#23211f" d="M1571.49,1294.37c27.68,30.73,44.52,71.26,44.52,115.69c0,95.97-78.5,173.78-175.33,173.78    c-41.96,0-80.48-14.62-110.66-38.99c32.11,35.64,78.81,58.08,130.81,58.08c96.83,0,175.33-77.8,175.33-173.78    C1636.16,1374.77,1610.95,1326.23,1571.49,1294.37z" opacity=".15" class="color231f20 svgShape"/><rect width="16.67" height="72.54" x="460.81" y="1211.78" fill="#f6e5ce" transform="matrix(1 -.00567 .00567 1 -7.068 2.68)" class="colorced1f6 svgShape"/><path fill="#23211f" d="M460.61,1211.83l0.04,7.46l5.12-0.03c3.86-0.02,7.01,3.09,7.03,6.95l0.33,58.09l4.56-0.03l-0.41-72.54    L460.61,1211.83z" opacity=".1" class="color231f20 svgShape"/><path fill="#dabd94" d="M465.53,1057.16c-44.24,0.25-79.91,36.32-79.66,80.56c0.25,44.24,36.32,79.91,80.57,79.66    c44.24-0.25,79.91-36.32,79.66-80.56C545.84,1092.57,509.77,1056.91,465.53,1057.16z M526.05,1136.93    c0.19,33.17-26.55,60.22-59.73,60.41c-33.17,0.19-60.22-26.55-60.41-59.73c-0.19-33.17,26.55-60.22,59.73-60.41    C498.81,1077.02,525.86,1103.76,526.05,1136.93z" class="color949ada svgShape"/><path fill="#694c24" d="M465.53,1057.16c-11.72,0.07-22.83,2.67-32.84,7.25c7.94-2.69,16.44-4.2,25.28-4.25    c44.24-0.25,80.31,35.41,80.57,79.66c0.18,32.52-19.05,60.6-46.82,73.31c31.78-10.78,54.57-40.92,54.37-76.32    C545.84,1092.57,509.77,1056.91,465.53,1057.16z" class="color242c69 svgShape"/><path fill="#fff9f0" d="M526.05,1136.93c0.19,33.17-26.55,60.22-59.73,60.41c-33.17,0.19-60.22-26.55-60.41-59.73    c-0.19-33.17,26.55-60.22,59.73-60.41C498.81,1077.02,525.86,1103.76,526.05,1136.93z" class="colorf1f0ff svgShape"/><path fill="#f5e5ce" d="M466.32,1197.34c-33.17,0.19-60.22-26.55-60.41-59.73c-0.04-7.36,1.31-14.39,3.69-20.92    c-3.21,7.43-4.99,15.61-4.94,24.22c0.19,33.32,27.35,60.18,60.68,59.99c29.56-0.17,53.98-21.57,59-49.66    C518.07,1177.53,494.56,1197.18,466.32,1197.34z" class="colord0cef5 svgShape"/><path fill="#694c24" d="M475.37,1255.09l-12.36,0.07c-8.07,0.05-14.58,6.61-14.53,14.66l0.68,120.55    c0.04,8.05,6.62,14.54,14.69,14.49l12.36-0.07c8.07-0.05,14.58-6.61,14.53-14.66l-0.68-120.55    C490.02,1261.54,483.44,1255.05,475.37,1255.09z" class="color242c69 svgShape"/><path fill="#23211f" d="M472.01,1255.11c1.73,3.02,2.75,6.5,2.77,10.23l0.61,108.11c0.07,11.48-9.19,20.83-20.66,20.9h-0.03    c-1.76,0.01-3.46-0.22-5.09-0.62c1.56,6.41,7.34,11.17,14.25,11.14l12.36-0.07c8.07-0.05,14.58-6.61,14.53-14.66l-0.68-120.55    c-0.05-8.05-6.62-14.54-14.69-14.5L472.01,1255.11z" opacity=".2" class="color231f20 svgShape"/><path fill="#ffffff" d="M492.66 1112.94c3.99 10.82-1.56 22.82-12.38 26.81-10.82 3.99-22.82-1.56-26.81-12.38-3.99-10.82 1.56-22.82 12.38-26.81C476.67 1096.57 488.67 1102.11 492.66 1112.94zM510.91 1143.23c1.42 3.85-.55 8.11-4.4 9.53-3.85 1.42-8.11-.55-9.53-4.4-1.42-3.85.55-8.11 4.4-9.53C505.23 1137.42 509.49 1139.39 510.91 1143.23z" class="colorfff svgShape"/><g fill="#000000" class="color000 svgShape"><path fill="#fcb24a" d="M1364.8 689.08c-2.22 5.91-8.81 8.91-14.72 6.69-5.91-2.22-8.91-8.81-6.69-14.72 2.22-5.91 8.81-8.91 14.72-6.69S1367.02 683.17 1364.8 689.08zM1351.88 772.41c-2.98 7.95-11.84 11.98-19.79 9s-11.98-11.84-9-19.79c2.98-7.95 11.84-11.98 19.79-9C1350.83 755.6 1354.86 764.46 1351.88 772.41zM1362.51 754.26c-1.18 3.14-4.68 4.73-7.82 3.56-3.14-1.18-4.73-4.68-3.56-7.82 1.18-3.14 4.68-4.73 7.82-3.56C1362.09 747.61 1363.68 751.11 1362.51 754.26z" class="colorfca94a svgShape"/><circle cx="1299.25" cy="730.54" r="6.08" fill="#fcb24a" transform="rotate(-24.453 1299.027 730.545)" class="colorfca94a svgShape"/><circle cx="1299.4" cy="691.99" r="16.28" fill="#fe9501" transform="rotate(-64.393 1299.46 691.96)" class="colorfe4401 svgShape"/><path fill="#fcb24a" d="M1361.78,610.01l-20.83-2.76l-20.83-2.76c0,0-23.76,0.99-10.79,41.58c12.97,40.6,16.67,74.12,16.67,74.12      s12.29-31.4,35.37-67.23C1384.46,617.14,1361.78,610.01,1361.78,610.01z" class="colorfca94a svgShape"/><path fill="#fe9501" d="M1357.08,609.39l-16.13-2.13l-16.13-2.13c0,0-18.39,0.76-8.35,32.2c10.04,31.43,12.91,57.38,12.91,57.38      s9.51-24.31,27.39-52.05C1374.64,614.91,1357.08,609.39,1357.08,609.39z" class="colorfe4401 svgShape"/><path fill="#ffdbaa" d="M1349.6,608.4l-8.65-1.14l-8.65-1.14c0,0-9.87,0.41-4.48,17.27c5.39,16.86,6.92,30.78,6.92,30.78      s5.1-13.04,14.69-27.92C1359.02,611.36,1349.6,608.4,1349.6,608.4z" class="colorffa svgShape"/><radialGradient id="a" cx="2841.357" cy="1896.658" r="1.271" gradientTransform="rotate(7.773 220887.284 -281367.225) scale(14.6051)" gradientUnits="userSpaceOnUse"><stop offset="0" stop-color="#c2b7a8" class="stopColoraea8c2 svgShape"/><stop offset=".983" stop-color="#b19774" class="stopColor8c74b1 svgShape"/></radialGradient><path fill="url(#a)" fill-rule="evenodd" d="M1360.26,609.87c-4.81,1.02-12.42,2.04-21.59,0.67c-8.39-1.25-14.9-4.03-19.09-6.22      c-1.55-7.5-3.09-15.01-4.63-22.51l53.97,7.37L1360.26,609.87z" clip-rule="evenodd"/><radialGradient id="b" cx="2840.65" cy="1889.774" r="5.984" gradientTransform="rotate(7.773 220887.284 -281367.225) scale(14.6051)" gradientUnits="userSpaceOnUse"><stop offset="0" stop-color="#ebe3d7" class="stopColorebd7e3 svgShape"/><stop offset=".983" stop-color="#d2c3af" class="stopColorbdafd2 svgShape"/></radialGradient><path fill="url(#b)" fill-rule="evenodd" d="      M1436.52,411.08l-71.64-9.78l-71.64-9.78c-32.49,148.91,14.8,197.58,14.8,197.58c15.14,7.26,30.08,8.16,30.08,8.16      s14.64,3.14,31.17,0.2C1369.31,597.46,1427.91,563.25,1436.52,411.08z" clip-rule="evenodd"/><path fill-rule="evenodd" d="M1436.52,411.08l-15.25-2.08c-12.33,135.26-65.75,166.46-65.75,166.46c-16.53,2.94-31.17-0.2-31.17-0.2      s-14.11-0.87-28.79-7.58c6.34,15.09,12.5,21.42,12.5,21.42c15.14,7.26,30.08,8.16,30.08,8.16s14.64,3.14,31.17,0.2      C1369.31,597.46,1427.91,563.25,1436.52,411.08z" clip-rule="evenodd" opacity=".15" fill="#000000" class="color000 svgShape"/><path fill="#84591e" fill-rule="evenodd" d="M1293.24,391.53c0,0,67.84-5.02,143.27,19.56C1436.52,411.08,1382.12,418.33,1293.24,391.53z" clip-rule="evenodd" class="color1e3484 svgShape"/><radialGradient id="c" cx="2841.859" cy="-353.133" r="2.335" gradientTransform="matrix(14.4709 1.9752 -2.6211 19.2026 -40667.25 1567.4)" gradientUnits="userSpaceOnUse"><stop offset="0" stop-color="#c2b7a8" class="stopColoraea8c2 svgShape"/><stop offset=".983" stop-color="#b19774" class="stopColor8c74b1 svgShape"/></radialGradient><path fill="url(#c)" fill-rule="evenodd" d="      M1307.32,380.36l-1.47,10.76c0,0,15.16,7.37,58.61,13.3c43.45,5.93,59.15,2.72,59.15,2.72l1.46-10.71L1307.32,380.36z" clip-rule="evenodd"/><path fill="#b39263" fill-rule="evenodd" d="M1306.89,383.47c0,0,17.53,9.71,61.55,18.4c44.02,8.7,55.54,2.58,55.54,2.58l1.1-8.03l-117.76-16.07      L1306.89,383.47z" clip-rule="evenodd" opacity=".8" class="color9a63b3 svgShape"/><path fill="#84591e" fill-rule="evenodd" d="M1289.86,551.34l2.85,8.97c0,0-21.1,56.96-15.85,116.11l-1.98,0.7      C1274.89,677.11,1255.8,636.79,1289.86,551.34z" clip-rule="evenodd" class="color1e3484 svgShape"/><path fill="#996c2e" fill-rule="evenodd" d="M1281.85,486.31c0,0-16.33,19.2-50.92,28.57c0,0-21.93,96.58,36.02,161.16l7.93,1.08      c0,0-10.72-62.07,14.98-125.77C1289.86,551.34,1282.02,522.19,1281.85,486.31z" clip-rule="evenodd" class="color2e4299 svgShape"/><path fill="#84591e" fill-rule="evenodd" d="M1396.34,565.87l-5.15,7.87c0,0,5.06,60.53-15.85,116.11l1.72,1.2      C1377.06,691.06,1406.25,657.33,1396.34,565.87z" clip-rule="evenodd" class="color1e3484 svgShape"/><path fill="#996c2e" fill-rule="evenodd" d="M1421.48,505.36c0,0,10.59,22.87,41.4,41.17c0,0-4.75,98.92-77.9,145.61l-7.93-1.08      c0,0,26.96-56.93,19.28-125.19C1396.34,565.87,1411.7,539.89,1421.48,505.36z" clip-rule="evenodd" class="color2e4299 svgShape"/><polygon fill="#996c2e" fill-rule="evenodd" points="1351.68 504.99 1362.02 506.4 1360.6 550.8 1341.14 548.15" clip-rule="evenodd" class="color2e4299 svgShape"/><polygon fill="#84591e" fill-rule="evenodd" points="1341.14 548.15 1330.86 696.08 1336.03 696.78 1360.6 550.8" clip-rule="evenodd" class="color1e3484 svgShape"/><path fill="#bd9763" fill-rule="evenodd" d="M1392.4,466c-2.62,19.19-20.3,32.62-39.49,30c-19.19-2.62-32.62-20.3-30-39.49      c2.62-19.19,20.3-32.62,39.49-30C1381.58,429.13,1395.02,446.81,1392.4,466z" clip-rule="evenodd" opacity=".8" class="colorbd63b3 svgShape"/><radialGradient id="d" cx="2842.245" cy="-351.244" r="2.212" gradientTransform="matrix(14.4709 1.9752 -2.6211 19.2026 -40667.25 1567.4)" gradientUnits="userSpaceOnUse"><stop offset="0" stop-color="#ddcfbc" class="stopColorddbcd0 svgShape"/><stop offset=".983" stop-color="#c3af94" class="stopColora794c3 svgShape"/></radialGradient><circle cx="1358.31" cy="456.41" r="35.07" fill="url(#d)" fill-rule="evenodd" clip-rule="evenodd"/><radialGradient id="e" cx="2840.813" cy="-348.8" r="1.64" gradientTransform="matrix(14.4709 1.9752 -2.6211 19.2026 -40667.25 1567.4)" gradientUnits="userSpaceOnUse"><stop offset="0" stop-color="#c2b7a8" class="stopColoraea8c2 svgShape"/><stop offset=".983" stop-color="#b19774" class="stopColor8c74b1 svgShape"/></radialGradient><path fill="url(#e)" fill-rule="evenodd" d="      M1384.07,459.93c-1.94,14.23-15.05,24.19-29.28,22.24c-14.23-1.94-24.19-15.05-22.25-29.28c1.94-14.23,15.05-24.19,29.28-22.24      C1376.06,432.6,1386.02,445.7,1384.07,459.93z" clip-rule="evenodd"/><radialGradient id="f" cx="2840.574" cy="-349.181" r="1.484" gradientTransform="matrix(14.4709 1.9752 -2.6211 19.2026 -40667.25 1567.4)" gradientUnits="userSpaceOnUse"><stop offset="0" stop-color="#feb651" class="stopColor5178fe svgShape"/><stop offset=".994" stop-color="#926b35" class="stopColor713592 svgShape"/></radialGradient><path fill="url(#f)" fill-rule="evenodd" d="      M1381.63,459.6c-1.76,12.88-13.62,21.89-26.5,20.13c-12.88-1.76-21.89-13.62-20.13-26.5s13.62-21.89,26.5-20.13      C1374.37,434.86,1383.39,446.72,1381.63,459.6z" clip-rule="evenodd"/><radialGradient id="g" cx="2835.417" cy="-351.368" r=".539" gradientTransform="matrix(14.4709 1.9752 -2.6211 19.2026 -40667.25 1567.4)" gradientUnits="userSpaceOnUse"><stop offset="0" stop-color="#feb651" class="stopColor5178fe svgShape"/><stop offset=".994" stop-color="#926b35" class="stopColor713592 svgShape"/></radialGradient><path fill="url(#g)" fill-rule="evenodd" d="      M1289.51,410.06c0,0-7.86,1.5-10.16,6.74c-2.3,5.24,6.83,13.42,6.83,13.42L1289.51,410.06z" clip-rule="evenodd"/><radialGradient id="h" cx="2846.093" cy="-351.506" r=".513" gradientTransform="matrix(14.4709 1.9752 -2.6211 19.2026 -40667.25 1567.4)" gradientUnits="userSpaceOnUse"><stop offset="0" stop-color="#feb651" class="stopColor5178fe svgShape"/><stop offset=".994" stop-color="#926b35" class="stopColor713592 svgShape"/></radialGradient><path fill="url(#h)" fill-rule="evenodd" d="      M1435.33,427.83c0,0,6.16,2.97,7.64,7.67c1.47,4.7-9.59,11.65-9.59,11.65L1435.33,427.83z" clip-rule="evenodd"/><path fill="#ffffff" fill-rule="evenodd" d="M1381.72,430.3l-4.41,8.37c0,0,5.1,5.09,6.03,10.7l8.9-1.85C1392.24,447.52,1390.76,438.4,1381.72,430.3z" clip-rule="evenodd" class="colorfff svgShape"/><polygon fill="#ffffff" fill-rule="evenodd" points="1371.83 434.51 1377.78 427.24 1374.28 425.19 1368.44 432.47" clip-rule="evenodd" class="colorfff svgShape"/><path fill="#ffffff" fill-rule="evenodd" d="M1374.06,446.88c-0.19,1.38-1.46,2.35-2.84,2.16c-1.38-0.19-2.35-1.46-2.16-2.84      c0.19-1.38,1.46-2.35,2.84-2.16C1373.29,444.22,1374.25,445.5,1374.06,446.88z" clip-rule="evenodd" class="colorfff svgShape"/><path fill="#ffcc86" fill-rule="evenodd" d="M1334.84,458.14c0,0,6.95-5.79,15.74-1.42c8.79,4.37,7.31,23.21,7.31,23.21S1337.44,480.18,1334.84,458.14      z" clip-rule="evenodd" class="color86b0ff svgShape"/><linearGradient id="i" x1="1424.674" x2="1424.674" y1="391.747" y2="284.063" gradientTransform="rotate(7.778 -90.712 -435.554)" gradientUnits="userSpaceOnUse"><stop offset=".017" stop-color="#dca559" class="stopColor599fdc svgShape"/><stop offset=".111" stop-color="#d29e55" class="stopColor5597d2 svgShape"/><stop offset=".274" stop-color="#b58849" class="stopColor4983b5 svgShape"/><stop offset=".486" stop-color="#886637" class="stopColor376288 svgShape"/><stop offset=".74" stop-color="#48361d" class="stopColor1d3448 svgShape"/><stop offset="1" stop-color="#000000" class="stopColor000000 svgShape"/></linearGradient><path fill="url(#i)" fill-rule="evenodd" d="      M1284.05,478.31c0,0-3.65,78.03,26.63,109.92l17.59,4.79C1328.27,593.03,1289.39,555.45,1284.05,478.31z" clip-rule="evenodd" opacity=".5"/><polygon fill="#bd9763" fill-rule="evenodd" points="1362.02 506.4 1365.22 598.07 1352.54 598.7 1360.6 550.8" clip-rule="evenodd" opacity=".8" class="colorbd63b3 svgShape"/><path fill="#b39263" fill-rule="evenodd" d="M1462.88,546.53l-70.79,96.65l-4.48-0.61c0,0,7.02-38.84,3.57-68.83c0,0,18.05-25.54,30.29-68.39      C1421.48,505.36,1432.65,527.25,1462.88,546.53z" clip-rule="evenodd" opacity=".8" class="color9a63b3 svgShape"/><path fill="#bd9763" fill-rule="evenodd" d="M1273.12,494.27c0,0,14.86,45.26,11.27,71.54l3.6,9.46l4.72-14.96c0,0-10.62-32.96-10.86-74      L1273.12,494.27z" clip-rule="evenodd" opacity=".8" class="colorbd63b3 svgShape"/><path fill="#ffffff" fill-rule="evenodd" d="M1422.75,456.07c0,0-10.6,17.41-3.78,27.66C1418.97,483.73,1428.73,474.55,1422.75,456.07z" clip-rule="evenodd" class="colorfff svgShape"/><radialGradient id="j" cx="2840.545" cy="1878.308" r="4.758" gradientTransform="rotate(7.773 220887.284 -281367.225) scale(14.6051)" gradientUnits="userSpaceOnUse"><stop offset="0" stop-color="#ddcfbc" class="stopColorddbcd0 svgShape"/><stop offset=".983" stop-color="#c3af94" class="stopColora794c3 svgShape"/></radialGradient><path fill="url(#j)" d="M1376.91,270.43      c-71.18,29.62-86.31,104.55-86.31,104.55c0,0,71.8,33.11,149.84,20.45C1448.19,297.38,1376.91,270.43,1376.91,270.43z"/><path fill="#ffffff" d="M1413.35,355.46l-16.63,11.85l7.65,31.01c11.7-0.03,23.81-0.89,36.07-2.88      c7.75-98.05-63.53-125.01-63.53-125.01S1419.84,319.86,1413.35,355.46z" opacity=".5" class="colorfff svgShape"/><path fill="#ffffff" fill-rule="evenodd" d="M1370.74,346.99l56.51,3.74C1427.25,350.73,1395.28,358.1,1370.74,346.99z" clip-rule="evenodd" class="colorfff svgShape"/><radialGradient id="k" cx="2840.597" cy="1879.759" r="3.556" gradientTransform="rotate(7.773 220887.284 -281367.225) scale(14.6051)" gradientUnits="userSpaceOnUse"><stop offset="0" stop-color="#daa863" class="stopColor8363da svgShape"/><stop offset=".994" stop-color="#aa8c62" class="stopColor9162aa svgShape"/></radialGradient><path fill="url(#k)" fill-rule="evenodd" d="      M1308.28,331.72c-4.35,7.44-7.73,14.52-10.3,20.73c74.98,21.38,125.52,21.22,142.8,20.28c-0.4-8.15-1.37-15.71-2.83-22.7      C1384.93,354.88,1329.44,338.78,1308.28,331.72z" clip-rule="evenodd"/></g><g fill="#000000" class="color000 svgShape"><path fill="#161411" d="M1572.39,918.15l5.08,0.08c6.79,0.1,12.38-5.33,12.48-12.14l0,0c0.04-2.87-2.25-5.24-5.11-5.28l-19.3-0.29     c-2.87-0.04-5.23,2.25-5.27,5.12l0,0C1560.17,912.45,1565.59,918.05,1572.39,918.15z" class="color161111 svgShape"/><path fill="#f5ce99" d="M1547.9,891.15l54.84,0.82c2.52,0.04,4.53,2.11,4.49,4.63l-0.09,6.09c-0.04,2.52-2.11,4.53-4.63,4.49     l-54.84-0.82c-2.52-0.04-4.53-2.11-4.49-4.63l0.09-6.09C1543.31,893.13,1545.39,891.12,1547.9,891.15z" class="color9c99f5 svgShape"/><path fill="#efe0ca" d="M1550.64,890.09l49.39,0.74c4.02,0.06,7.24,3.37,7.18,7.39l-0.01,0.64c-0.06,4.02-3.37,7.23-7.39,7.17     l-49.39-0.74c-4.02-0.06-7.23-3.37-7.17-7.39l0.01-0.64C1543.31,893.24,1546.62,890.03,1550.64,890.09z" class="colorcacfef svgShape"/><path fill="#f5ce99" d="M1543.24,898.03l0.01-0.9c0.06-3.95,3.3-7.1,7.24-7.04l19.19,0.29c0.33,0.57,0.71,1.16,1.14,1.77     c0,0-5.44,5.09-2.26,13.42l-18.29-0.27C1546.33,905.23,1543.18,901.98,1543.24,898.03z" class="color9c99f5 svgShape"/><path fill="#ffa30f" d="M1504.68,785.12c0.63-42.03,33.15-75.62,72.63-75.03c39.49,0.59,70.99,35.14,70.36,77.17     c-0.37,24.46-11.54,46.06-28.6,59.73c-5.89,4.72-9.42,12.06-9.54,19.9l-0.18,11.84l-68.24-1.02l0.17-11.13     c0.12-7.95-3.28-15.47-9.16-20.36C1515.1,832.07,1504.31,809.89,1504.68,785.12z" class="colororange svgShape"/><path fill="#925909" d="M1583.33,838.13l-14.94-0.05l-0.6,40.02l-2.83-0.04l0.6-39.98l-13.33-0.04l-0.37-0.26       c-0.26-0.19-6.48-4.66-6.52-10.49c-0.02-3.09,1.66-5.88,4.98-8.31c3.47-2.53,6.83-3.37,9.97-2.48       c5.44,1.53,8.06,7.66,8.17,7.92l-0.04,10.83l14.92,0.05l0.11-13.04l0.29-0.38c0.19-0.24,4.63-5.88,10.38-5.8c0,0,0.01,0,0.01,0       c3.17,0.05,6.03,1.8,8.49,5.2c2.73,3.76,3.62,7.23,2.66,10.31c-1.44,4.61-6.52,6.43-6.73,6.51l-12.4,0.04l-0.35,40.22       l-2.83-0.03L1583.33,838.13z M1565.75,825.27c-0.5-1.04-2.6-5.03-6.21-6.04c-2.27-0.64-4.81,0.05-7.55,2.04       c-2.54,1.85-3.83,3.87-3.82,5.99c0.02,3.71,3.81,7.01,4.99,7.94l12.44,0.04L1565.75,825.27z M1602.6,830.73       c0.67-2.18-0.08-4.8-2.25-7.78c-1.91-2.63-4.01-3.99-6.24-4.03c-0.01,0-0.01,0-0.02,0c-3.63-0.05-6.84,3.26-7.81,4.36       l-0.1,12.03l11.65,0.04C1598.66,835,1601.73,833.55,1602.6,830.73z" opacity=".85" class="color923509 svgShape"/><path fill="#f7960d" d="M1504.72,783.37c0.01-0.16,0.01-0.32,0.02-0.48c0.02-0.47,0.04-0.94,0.07-1.41     c0.01-0.12,0.01-0.24,0.02-0.36c0.04-0.57,0.08-1.14,0.13-1.71c0.01-0.14,0.03-0.27,0.04-0.41c0.04-0.45,0.09-0.91,0.13-1.36     c0.02-0.16,0.03-0.31,0.05-0.47c0.06-0.56,0.13-1.13,0.21-1.69c0.01-0.06,0.02-0.12,0.03-0.18c0.07-0.5,0.14-1.01,0.22-1.51     c0.03-0.16,0.05-0.33,0.08-0.5c0.07-0.45,0.15-0.91,0.23-1.36c0.02-0.11,0.04-0.22,0.06-0.34c0.1-0.54,0.21-1.08,0.32-1.62     c0.03-0.16,0.07-0.31,0.1-0.47c0.09-0.41,0.18-0.82,0.27-1.23c0.04-0.16,0.07-0.32,0.11-0.49c0.12-0.53,0.25-1.05,0.39-1.57     c0.03-0.12,0.06-0.23,0.09-0.35c0.11-0.42,0.22-0.84,0.34-1.26c0.05-0.18,0.1-0.36,0.15-0.54c0.12-0.42,0.24-0.83,0.37-1.24     c0.04-0.12,0.07-0.24,0.11-0.35c0.15-0.5,0.32-1,0.48-1.49c0.06-0.18,0.12-0.36,0.19-0.55c0.12-0.35,0.24-0.7,0.37-1.05     c0.06-0.18,0.13-0.36,0.19-0.54c0.17-0.48,0.35-0.95,0.53-1.42c0.07-0.17,0.13-0.34,0.2-0.51c0.13-0.33,0.27-0.67,0.4-1     c0.08-0.2,0.17-0.4,0.25-0.6c0.15-0.35,0.3-0.7,0.45-1.05c0.1-0.23,0.2-0.45,0.3-0.68c0.16-0.36,0.33-0.72,0.49-1.08     c0.1-0.21,0.2-0.42,0.3-0.63c0.13-0.28,0.27-0.56,0.4-0.83c0.1-0.21,0.2-0.41,0.3-0.62c0.21-0.42,0.42-0.83,0.64-1.25     c0.11-0.22,0.23-0.43,0.35-0.65c0.13-0.24,0.27-0.49,0.4-0.73c0.13-0.23,0.25-0.46,0.38-0.69c0.14-0.25,0.29-0.51,0.44-0.76     c0.21-0.36,0.42-0.72,0.63-1.07c0.13-0.22,0.27-0.45,0.4-0.67c0.15-0.24,0.3-0.48,0.45-0.72c0.12-0.2,0.25-0.39,0.37-0.59     c0.26-0.41,0.53-0.81,0.8-1.21c0.13-0.19,0.25-0.38,0.38-0.57c0.17-0.25,0.35-0.5,0.52-0.75c0.11-0.16,0.23-0.33,0.35-0.49     c0.18-0.25,0.36-0.51,0.55-0.76c0.09-0.13,0.19-0.25,0.28-0.37c0.36-0.48,0.71-0.95,1.08-1.42c0.1-0.12,0.19-0.25,0.29-0.38     c0.21-0.26,0.41-0.52,0.62-0.78c0.09-0.11,0.19-0.23,0.28-0.34c0.47-0.57,0.94-1.13,1.42-1.68c0.01-0.01,0.01-0.01,0.02-0.02     c0.23-0.27,0.47-0.54,0.71-0.8c0.08-0.09,0.17-0.19,0.25-0.28c0.76-0.84,1.55-1.67,2.35-2.48c0.06-0.06,0.12-0.12,0.18-0.18     c0.27-0.27,0.54-0.53,0.81-0.79c0.04-0.04,0.07-0.07,0.11-0.11c0.85-0.82,1.73-1.63,2.62-2.41c0.05-0.04,0.09-0.08,0.14-0.13     c0.9-0.78,1.81-1.55,2.75-2.28c0.03-0.02,0.06-0.05,0.09-0.07c1.29-1.02,2.61-1.99,3.97-2.91c0.02-0.01,0.03-0.02,0.05-0.03     c1.01-0.69,2.04-1.35,3.09-1.99c0.01-0.01,0.03-0.02,0.05-0.03c1.41-0.86,2.85-1.66,4.32-2.42     c-17.06,20.45-39.42,65.9-19.19,107.06c26.88,54.71,72,38.63,85.6,32.18c-1.32,3.11-2.06,6.52-2.11,10.02l-0.18,11.84     l-68.24-1.02l0.17-11.13c0.02-1.24-0.05-2.47-0.2-3.69c-0.12-0.97-0.29-1.93-0.51-2.87c-0.06-0.24-0.12-0.47-0.18-0.7     c-0.12-0.47-0.26-0.93-0.41-1.39c-0.22-0.69-0.47-1.36-0.75-2.02c-0.83-1.99-1.9-3.86-3.19-5.57c-0.29-0.38-0.58-0.75-0.89-1.11     c-0.31-0.36-0.62-0.72-0.95-1.06c-0.16-0.17-0.33-0.34-0.5-0.51c-0.51-0.5-1.04-0.98-1.59-1.44c-2.13-1.77-4.16-3.66-6.08-5.67     c-0.24-0.25-0.48-0.5-0.72-0.76c-0.47-0.51-0.94-1.03-1.4-1.55c-0.46-0.52-0.91-1.05-1.36-1.59c-0.67-0.81-1.32-1.63-1.96-2.46     c-0.64-0.83-1.26-1.69-1.86-2.55c-0.4-0.58-0.8-1.16-1.19-1.75c-1.94-2.94-3.68-6.04-5.22-9.26c-0.46-0.97-0.9-1.95-1.32-2.94     c-0.28-0.66-0.55-1.33-0.82-2c-0.26-0.67-0.52-1.35-0.77-2.03c-0.62-1.7-1.18-3.43-1.68-5.19c-2.11-7.38-3.19-15.23-3.07-23.36     C1504.68,784.53,1504.7,783.95,1504.72,783.37z" opacity=".58" class="coloreb860d svgShape"/><path fill="#f5ce99" d="M1542.97,892.61l64.67,0.96c4.1,0.06,7.47-3.22,7.53-7.33l0,0c0.06-4.11-3.21-7.49-7.31-7.55l-64.66-0.96     c-4.1-0.06-7.47,3.22-7.53,7.32l0,0C1535.6,889.17,1538.87,892.55,1542.97,892.61z" class="color9c99f5 svgShape"/><path fill="#efe0ca" d="M1541.54,891.7l67.55,1.01c3.3,0.05,6.02-2.59,6.07-5.89l0.04-2.91c0.05-3.3-2.59-6.02-5.89-6.07     l-66.05-0.99c-4.13-0.06-7.52,3.23-7.59,7.36l-0.02,1.42C1536.07,887.2,1538.49,890.91,1541.54,891.7z" class="colorcacfef svgShape"/><path fill="#fda414" d="M1576.73,781.03c10.82,15.34,30.08,20.34,43.02,11.17c12.94-9.17,14.67-29.03,3.85-44.37     c-10.82-15.33-30.08-20.34-43.02-11.17C1567.64,745.83,1565.91,765.7,1576.73,781.03z" opacity=".65" class="colorfdce14 svgShape"/><path fill="#ffeed6" d="M1599.47 748.3c2.32 3.29 5.95 4.72 8.1 3.19 2.15-1.53 2.02-5.43-.3-8.72-2.32-3.29-5.95-4.72-8.1-3.2C1597.01 741.11 1597.15 745.01 1599.47 748.3zM1616.01 759.94c.6.84 1.58 1.17 2.2.73.62-.44.64-1.48.04-2.32-.6-.84-1.58-1.17-2.2-.73C1615.43 758.05 1615.41 759.1 1616.01 759.94z" class="colorfffbd6 svgShape"/><path fill="#f5ce99" d="M1543.2,876.85l26.57,0.4c-2.04,2.49-4.21,7.45,1.06,14.89l-27.85-0.42c-4.1-0.06-7.37-3.44-7.31-7.55l0,0     C1535.73,880.07,1539.11,876.79,1543.2,876.85z" class="color9c99f5 svgShape"/><rect width="29.43" height="7.97" x="1563.05" y="675.57" fill="#ffa30f" transform="rotate(-89.141 1577.744 679.552)" class="colororange svgShape"/><rect width="7.99" height="29.37" x="1467.79" y="800.67" fill="#ffa30f" transform="rotate(-89.141 1471.77 815.342)" class="colororange svgShape"/><polygon fill="#ffa30f" points="1472.97 704.96 1467.25 710.53 1487.7 731.64 1493.43 726.08" class="colororange svgShape"/><rect width="7.99" height="29.37" x="1668.62" y="804.48" fill="#ffa30f" transform="rotate(-88.367 1672.58 819.168)" class="colororange svgShape"/><polygon fill="#ffa30f" points="1687.5 709.07 1692.98 714.88 1671.63 735.09 1666.15 729.28" class="colororange svgShape"/></g><g fill="#000000" class="color000 svgShape"><ellipse cx="506.92" cy="798.96" fill="#694d25" rx="110.53" ry="99.08" transform="rotate(-85.509 506.962 798.988)" class="color252e69 svgShape"/><ellipse cx="498.46" cy="794.72" fill="#85663b" rx="110.61" ry="98.26" transform="rotate(-86.445 498.472 794.702)" class="color3b4385 svgShape"/><ellipse cx="498.46" cy="794.72" fill="#fffdfb" rx="86.42" ry="76.78" transform="rotate(-86.445 498.48 794.705)" class="colorfcfffb svgShape"/><ellipse cx="498.46" cy="794.72" fill="#85663b" rx="64.73" ry="57.5" transform="rotate(-86.445 498.47 794.702)" class="color3b4385 svgShape"/><path fill="#fffdfb" d="M466.27,776.21c-9.39,20.22-2.53,44.94,15.32,55.2c17.85,10.26,39.93,2.18,49.32-18.04    c9.39-20.23,2.53-44.94-15.32-55.2C497.74,747.91,475.66,755.99,466.27,776.21z" class="colorfcfffb svgShape"/><path fill="#85663b" d="M483.32,786.01c-4.43,9.55-1.19,21.23,7.24,26.08c8.43,4.85,18.86,1.03,23.3-8.52    c4.43-9.55,1.19-21.23-7.24-26.08C498.19,772.64,487.76,776.46,483.32,786.01z" class="color3b4385 svgShape"/><path fill="#3c2d17" d="M308.16,770.18l13.64-7.97c1.13-0.66,1.48-2.13,0.76-3.23l-7.93-12.16c-1.13-1.73,0.43-3.95,2.44-3.48     l35.78,8.36c0.54,0.13,1.02,0.45,1.35,0.9l9.94,14c0.34,0.48,0.86,0.82,1.45,0.93l112.72,21.06c1.39,0.26,2.68-0.78,2.71-2.19     c0.05-1.87,2.19-2.9,3.68-1.76l10.86,8.28c1.5,1.15,1.05,3.52-0.77,4.03l-12.89,3.63c-1.76,0.5-3.37-1.17-2.8-2.91l0.59-1.81     c0.43-1.33-0.42-2.74-1.8-2.97l-115.82-19.3c-0.59-0.1-1.18,0.04-1.67,0.37l-9.21,6.32c-0.48,0.33-1.07,0.46-1.64,0.38     l-40.58-6.22C306.83,774.1,306.3,771.27,308.16,770.18z" class="color19173c svgShape"/><path fill="#f7ab31" d="M364.5,766.95c-0.12-0.11-0.26-0.2-0.36-0.34l-9.94-14c-0.32-0.46-0.8-0.78-1.35-0.9l-35.78-8.36     c-2.01-0.47-3.57,1.75-2.44,3.48l7.93,12.16c0.72,1.1,0.37,2.57-0.76,3.23l-13.64,7.97c-1.87,1.09-1.33,3.92,0.81,4.24     l40.58,6.22c0.58,0.09,1.16-0.05,1.64-0.38l9.21-6.32c0.37-0.25,0.81-0.35,1.25-0.36L364.5,766.95z" class="colorf7af31 svgShape"/><path fill="#ffffff" d="M357.4,765.59l-30.59-4.69c-0.63-0.1-1.18-0.45-1.53-0.96l-7.58-11.32c-1.1-1.64,0.41-3.75,2.37-3.3     l31.81,7.29c0.53,0.12,1,0.43,1.31,0.86l6.36,8.72C360.71,763.75,359.35,765.89,357.4,765.59z" opacity=".3" class="colorfff svgShape"/><polygon fill="#f7ab31" points="446.44 787.64 407.79 781.2 408.82 775.61 447.33 782.8" class="colorf7af31 svgShape"/><g opacity=".2" fill="#000000" class="color000 svgShape"><path fill="#23211f" d="M315.59 744.75l7.93 12.16c.68 1.04.38 2.39-.61 3.09-.04-.35-.13-.69-.34-1.01l-7.93-12.16c-.73-1.13-.32-2.45.6-3.11C315.28 744.06 315.37 744.41 315.59 744.75zM308 770.31c.1.96.77 1.86 1.91 2.03l40.58 6.22c.58.09 1.16-.05 1.64-.38l9.21-6.32c.49-.34 1.09-.47 1.67-.37l115.82 19.3c1.38.23 2.23 1.63 1.8 2.97l-.59 1.82c-.56 1.74 1.04 3.41 2.8 2.91l12.89-3.63c.27-.08.5-.2.71-.35.1 1.03-.5 2.11-1.65 2.43l-12.89 3.63c-1.76.5-3.37-1.17-2.8-2.91l.59-1.81c.43-1.33-.42-2.74-1.8-2.97l-115.82-19.3c-.59-.1-1.18.04-1.67.37l-9.21 6.32c-.48.33-1.07.46-1.64.38l-40.58-6.22C306.91 774.11 306.36 771.47 308 770.31zM481.09 786.06c.1-.57.39-1.05.8-1.38C481.77 785.24 481.51 785.73 481.09 786.06z" class="color231f20 svgShape"/></g></g><path fill="#23211f" d="M1316.48,1269.14c-0.09-1-0.37-1.97-0.99-2.79l-7.76-10.3l44.26-33.77c-0.02-0.03-0.04-0.05-0.07-0.08   c-1-1.31-2.05-2.55-3.15-3.73c-0.62-0.67-1.3-1.28-1.95-1.91c-0.47-0.45-0.91-0.94-1.4-1.37l-0.01,0.01   c-17.82-15.94-44.98-17.54-64.69-2.5l-21.27,16.23c-3.67,2.8-6.8,6.03-9.48,9.52c0.01-0.03,0.01-0.07,0.02-0.1   c-0.19,0.25-0.35,0.51-0.54,0.76c-0.43,0.59-0.85,1.18-1.26,1.78c-0.46,0.68-0.9,1.38-1.33,2.08c-0.37,0.61-0.74,1.22-1.08,1.84   c-0.42,0.76-0.8,1.54-1.18,2.32c-0.28,0.58-0.59,1.16-0.85,1.75c-0.58,1.32-1.11,2.66-1.57,4.01c-0.17,0.5-0.3,1.02-0.46,1.53   c-0.29,0.94-0.57,1.87-0.8,2.82c-0.15,0.63-0.27,1.26-0.4,1.89c-0.18,0.85-0.34,1.71-0.47,2.57c-0.1,0.65-0.18,1.3-0.25,1.95   c-0.1,0.87-0.17,1.74-0.23,2.62c-0.04,0.63-0.08,1.26-0.09,1.9c-0.02,0.96,0,1.92,0.03,2.88c0.02,0.55,0.02,1.09,0.05,1.63   c0.1,1.48,0.25,2.97,0.47,4.44c0.04,0.24,0.1,0.48,0.14,0.72c0.21,1.26,0.46,2.52,0.77,3.76c0.13,0.52,0.29,1.03,0.44,1.55   c0.27,0.97,0.57,1.94,0.9,2.89c0.19,0.56,0.41,1.11,0.62,1.66c0.36,0.92,0.74,1.83,1.16,2.74c0.24,0.53,0.49,1.07,0.75,1.6   c0.48,0.96,1,1.89,1.54,2.83c0.26,0.45,0.5,0.9,0.77,1.34c0.85,1.35,1.75,2.69,2.73,3.98l48.62-37.1l7.72,10.24   c0.89,1.18,2.17,1.87,3.5,2.08c-40.38,38.99-65.49,93.45-65.49,153.74c0,53.71,19.95,102.78,52.84,140.42   c-0.15-0.15-0.31-0.3-0.46-0.45c0.51,0.59,1.06,1.14,1.57,1.72c1.51,1.7,3.04,3.38,4.6,5.03c0.96,1.01,1.92,2.02,2.9,3.01   c1.6,1.63,3.23,3.22,4.88,4.8c0.02,0.02,0.04,0.04,0.06,0.05l-30.1,42.54c-2.5,3.53-3.35,7.74-2.42,11.86   c0.88,3.86,3.37,7.23,6.83,9.53h20.66c1.58-1.09,3.04-2.35,4.18-3.96l27.22-38.47c0.14,0.1,0.28,0.2,0.42,0.29   c0.63,0.44,1.25,0.9,1.89,1.33c3.08,2.07,6.21,4.07,9.4,5.99c0.07,0.04,0.15,0.08,0.22,0.13c3.06,1.83,6.17,3.59,9.33,5.28   c0.97,0.52,1.97,0.99,2.94,1.49c2.29,1.18,4.58,2.34,6.91,3.44c1.24,0.58,2.49,1.12,3.74,1.68c0.45,0.2,0.91,0.39,1.36,0.59   c0.59-2.33,0.94-4.76,0.94-7.27v-267.37l0-0.01V1232.5C1352.94,1241.68,1333.48,1254.06,1316.48,1269.14z" opacity=".2" class="color231f20 svgShape"/><g fill="#000000" class="color000 svgShape"><path fill="#eddabf" d="M1318.87,1651.97H662.6c-18.29,0-33.11-14.83-33.11-33.11V774.55c0-16.29,13.2-29.49,29.49-29.49h659.9      c16.29,0,29.49,13.2,29.49,29.49v847.93C1348.36,1638.77,1335.16,1651.97,1318.87,1651.97z" class="colorc2bfed svgShape"/><polygon fill="#d18213" points="1292.7 799.69 1308.11 799.93 1292.73 1308.84" class="color1378d1 svgShape"/><path fill="#efc68e" d="M643.92,1602.8V793.43c0-22.84,15.17-42.12,35.97-48.37h-20.92c-16.29,0-29.49,13.2-29.49,29.49v847.94      c0,16.29,13.2,29.49,29.49,29.49H683C660.62,1646.78,643.92,1626.76,643.92,1602.8z" class="color8e8eef svgShape"/><path fill="#fff0dc" d="M1347.14,1380.29l1.22-25.18V774.55c0-9.27-4.29-17.53-10.98-22.94L1347.14,1380.29z" class="colordcdfff svgShape"/><linearGradient id="l" x1="988.924" x2="988.924" y1="784.788" y2="1611.615" gradientUnits="userSpaceOnUse"><stop offset="0" stop-color="#fdfdfd" class="stopColorfdfdfd svgShape"/><stop offset=".479" stop-color="#fdfcfb" class="stopColorfbfdfd svgShape"/><stop offset=".652" stop-color="#fdf9f4" class="stopColorf4fbfd svgShape"/><stop offset=".775" stop-color="#fef5e9" class="stopColore9f8fe svgShape"/><stop offset=".874" stop-color="#feeed8" class="stopColord8f4fe svgShape"/><stop offset=".958" stop-color="#ffe5c2" class="stopColorc2efff svgShape"/><stop offset="1" stop-color="#ffe0b4" class="stopColorb4ecff svgShape"/></linearGradient><path fill="url(#l)" d="M1307.69,1611.62H670.15     c-0.23,0-0.41-0.18-0.41-0.41v-826c0-0.23,0.18-0.41,0.41-0.41h637.54c0.23,0,0.41,0.18,0.41,0.41v826     C1308.11,1611.43,1307.92,1611.62,1307.69,1611.62z"/><path fill="#f9e9d2" d="M1308.01,826.9H669.83c-0.05,0-0.09-0.04-0.09-0.09v-41.93c0-0.05,0.04-0.09,0.09-0.09h638.18     c0.05,0,0.09,0.04,0.09,0.09v41.93C1308.11,826.86,1308.06,826.9,1308.01,826.9z" class="colord2daf9 svgShape"/><path fill="#f5a320" d="M1095.58,725.57h-53.08c0.54-0.84,0.87-1.8,0.87-2.83v-24.04c0-5.24-4.89-9.49-10.93-9.49h-75.4      c-6.04,0-10.93,4.25-10.93,9.49v24.04c0,1.03,0.33,1.99,0.87,2.83h-53.08c-7.45,0-13.5,5.25-13.5,11.72v35.41      c0,10.39,9.7,18.81,21.67,18.81h185.35c11.97,0,21.67-8.42,21.67-18.81v-35.41C1109.07,730.81,1103.03,725.57,1095.58,725.57z" class="colorf5d420 svgShape"/><path fill="#ea960f" d="M1095.58,725.57h-53.08c0.54-0.84,0.87-1.8,0.87-2.83v-24.04c0-5.24-4.89-9.49-10.93-9.49h-15.77      c6.77,3.89,14.35,9.99,14.87,18.08c0.95,14.79-5.68,32.05,1.89,34.51c7.57,2.46,58.68-8.22,57.73,13.15      c-0.57,12.84-2.16,27.16-3.34,36.55c11.78-0.19,21.27-8.52,21.27-18.8v-35.41C1109.07,730.81,1103.03,725.57,1095.58,725.57z" class="coloreac00f svgShape"/><path fill="#fbefdf" d="M851.74 1465.23H747.43c-2.03 0-3.67-1.64-3.67-3.67v-14.01c0-2.03 1.64-3.67 3.67-3.67h104.32c2.03 0 3.67 1.64 3.67 3.67v14.01C855.41 1463.59 853.77 1465.23 851.74 1465.23zM882.03 1465.23h137.48c2.02 0 3.67-1.64 3.67-3.67v-14.01c0-2.02-1.64-3.67-3.67-3.67H882.03c-2.03 0-3.67 1.64-3.67 3.67v14.01C878.37 1463.59 880.01 1465.23 882.03 1465.23zM1045.09 1465.23h75.67c2.03 0 3.67-1.64 3.67-3.67v-14.01c0-2.02-1.64-3.67-3.67-3.67h-75.67c-2.03 0-3.67 1.64-3.67 3.67v14.01C1041.43 1463.59 1043.07 1465.23 1045.09 1465.23zM818.19 1421.73h-70.76c-2.03 0-3.67-1.64-3.67-3.67v-14.01c0-2.03 1.64-3.67 3.67-3.67h70.76c2.03 0 3.67 1.64 3.67 3.67v14.01C821.86 1420.08 820.21 1421.73 818.19 1421.73zM971.63 1421.73H848.87c-2.03 0-3.67-1.64-3.67-3.67v-14.01c0-2.02 1.64-3.67 3.67-3.67h122.76c2.03 0 3.67 1.64 3.67 3.67v14.01C975.3 1420.08 973.66 1421.73 971.63 1421.73zM1085.24 1421.73h-90.38c-2.03 0-3.67-1.64-3.67-3.67v-14.01c0-2.02 1.64-3.67 3.67-3.67h90.39c2.02 0 3.67 1.64 3.67 3.67v14.01C1088.91 1420.08 1087.27 1421.73 1085.24 1421.73zM1159.62 1421.73h-38.89c-1.91 0-3.47-1.55-3.47-3.47v-14.41c0-1.91 1.55-3.47 3.47-3.47h38.89c1.91 0 3.46 1.55 3.46 3.46v14.41C1163.08 1420.18 1161.53 1421.73 1159.62 1421.73z" class="colore1dffb svgShape"/><g fill="#000000" class="color000 svgShape"><path fill="#fbefdf" d="M848.02 1268.74H747.43c-2.03 0-3.67-1.64-3.67-3.67v-14.01c0-2.03 1.64-3.67 3.67-3.67h100.59c2.03 0 3.67 1.64 3.67 3.67v14.01C851.68 1267.1 850.04 1268.74 848.02 1268.74zM866.46 1311.69H747.43c-2.02 0-3.67-1.64-3.67-3.67v-14.01c0-2.03 1.64-3.67 3.67-3.67h119.03c2.03 0 3.67 1.64 3.67 3.67v14.01C870.13 1310.05 868.48 1311.69 866.46 1311.69zM1011.27 1311.69H892.24c-2.03 0-3.67-1.64-3.67-3.67v-14.01c0-2.03 1.64-3.67 3.67-3.67h119.03c2.03 0 3.67 1.64 3.67 3.67v14.01C1014.94 1310.05 1013.29 1311.69 1011.27 1311.69zM1187.28 1311.69h-150.23c-2.03 0-3.67-1.64-3.67-3.67v-14.01c0-2.03 1.64-3.67 3.67-3.67h150.23c2.03 0 3.67 1.64 3.67 3.67v14.01C1190.95 1310.05 1189.3 1311.69 1187.28 1311.69zM934.99 1268.74h-63.3c-2.02 0-3.67-1.64-3.67-3.67v-14.01c0-2.03 1.64-3.67 3.67-3.67h63.3c2.03 0 3.67 1.64 3.67 3.67v14.01C938.66 1267.1 937.01 1268.74 934.99 1268.74zM822.31 1350.27h-74.88c-2.03 0-3.67-1.64-3.67-3.67v-14.01c0-2.02 1.64-3.67 3.67-3.67h74.88c2.02 0 3.67 1.64 3.67 3.67v14.01C825.98 1348.63 824.34 1350.27 822.31 1350.27zM1227.47 1350.27H851.04c-3.65 0-6.62-4.78-6.62-10.67l0 0c0-5.89 2.96-10.67 6.62-10.67h376.43c3.65 0 6.62 4.78 6.62 10.67l0 0C1234.09 1345.49 1231.13 1350.27 1227.47 1350.27zM878.82 1224.42H747.43c-2.03 0-3.67-1.64-3.67-3.67v-14.01c0-2.03 1.64-3.67 3.67-3.67h131.39c2.02 0 3.67 1.64 3.67 3.67v14.01C882.49 1222.77 880.85 1224.42 878.82 1224.42zM1191.75 1224.42H947.07c-1.88 0-3.41-1.53-3.41-3.41v-14.52c0-1.88 1.53-3.41 3.41-3.41h244.67c1.88 0 3.41 1.53 3.41 3.41v14.52C1195.15 1222.89 1193.63 1224.42 1191.75 1224.42z" class="colore1dffb svgShape"/><path fill="#fbefdf" d="M940.34,1224.42h-38.58c-2.03,0-3.67-1.64-3.67-3.67v-14.01c0-2.03,1.64-3.67,3.67-3.67h38.58        c2.02,0,3.67,1.64,3.67,3.67v14.01C944,1222.77,942.36,1224.42,940.34,1224.42z" class="colore1dffb svgShape"/><g fill="#000000" class="color000 svgShape"><path fill="#fbefdf" d="M848.01 1180.09H747.43c-2.03 0-3.67-1.64-3.67-3.67v-14.01c0-2.03 1.64-3.67 3.67-3.67h100.59c2.03 0 3.67 1.64 3.67 3.67v14.01C851.68 1178.45 850.04 1180.09 848.01 1180.09zM1135.28 1180.09h-100.59c-2.03 0-3.67-1.64-3.67-3.67v-14.01c0-2.03 1.64-3.67 3.67-3.67h100.59c2.03 0 3.67 1.64 3.67 3.67v14.01C1138.95 1178.45 1137.31 1180.09 1135.28 1180.09zM1019.12 1180.09H872.17c-2.03 0-3.67-1.64-3.67-3.67v-14.01c0-2.03 1.64-3.67 3.67-3.67h146.95c2.03 0 3.67 1.64 3.67 3.67v14.01C1022.79 1178.45 1021.14 1180.09 1019.12 1180.09zM1199.25 1180.09h-36.03c-2.03 0-3.67-1.64-3.67-3.67v-14.01c0-2.03 1.64-3.67 3.67-3.67h36.03c2.03 0 3.67 1.64 3.67 3.67v14.01C1202.92 1178.45 1201.27 1180.09 1199.25 1180.09z" class="colore1dffb svgShape"/></g></g><g fill="#000000" class="color000 svgShape"><rect width="12.5" height="41.75" x="791.72" y="1056.23" fill="#c3a781" class="color8192c3 svgShape"/><rect width="12.5" height="95.19" x="818.81" y="1002.78" fill="#d6902f" class="color2f6bd6 svgShape"/><rect width="12.5" height="60.72" x="845.91" y="1037.25" fill="#ffcd87" class="color87b1ff svgShape"/><rect width="12.5" height="95.19" x="890.85" y="1002.78" fill="#c3a781" class="color8192c3 svgShape"/><rect width="12.5" height="41.75" x="917.94" y="1056.23" fill="#d6902f" class="color2f6bd6 svgShape"/><rect width="12.5" height="60.72" x="945.03" y="1037.25" fill="#ffcd87" class="color87b1ff svgShape"/><rect width="12.5" height="60.72" x="989.97" y="1037.25" fill="#c3a781" class="color8192c3 svgShape"/><rect width="12.5" height="95.19" x="1017.06" y="1002.78" fill="#d6902f" class="color2f6bd6 svgShape"/><rect width="12.5" height="113.54" x="1044.16" y="984.44" fill="#ffcd87" class="color87b1ff svgShape"/><g fill="#000000" class="color000 svgShape"><rect width="12.5" height="78.06" x="1089.1" y="1019.92" fill="#c3a781" class="color8192c3 svgShape"/><rect width="12.5" height="97.72" x="1116.19" y="1000.25" fill="#d6902f" class="color2f6bd6 svgShape"/><rect width="12.5" height="60.72" x="1143.28" y="1037.25" fill="#ffcd87" class="color87b1ff svgShape"/></g><rect width="404.44" height="2.85" x="773.08" y="1095.13" fill="#563e1d" class="color1d3856 svgShape"/></g><g fill="#000000" class="color000 svgShape"><path fill="#77521d" d="M792.83 884.96l-8.21 2.75c-1.1-3.26-3.44-4.89-7.01-4.89-3.81 0-5.72 1.24-5.72 3.71 0 .99.36 1.82 1.07 2.5.71.68 2.33 1.28 4.84 1.78 4.2.85 7.27 1.7 9.22 2.57 1.95.86 3.59 2.26 4.93 4.18 1.34 1.92 2 4.07 2 6.44 0 3.72-1.43 6.94-4.3 9.65-2.86 2.72-7.11 4.07-12.74 4.07-4.22 0-7.81-.96-10.78-2.88-2.96-1.92-4.92-4.77-5.86-8.55l8.93-2.02c1 3.84 3.79 5.76 8.37 5.76 2.21 0 3.85-.43 4.94-1.28 1.08-.85 1.63-1.88 1.63-3.06 0-1.21-.49-2.14-1.48-2.81-.98-.66-2.88-1.29-5.69-1.87-5.24-1.09-8.98-2.57-11.21-4.45-2.23-1.88-3.34-4.63-3.34-8.25 0-3.66 1.33-6.75 3.99-9.26 2.66-2.51 6.28-3.77 10.84-3.77C785.33 875.28 790.52 878.51 792.83 884.96zM826.66 875.91v8.15h-10.2v33.04h-9.78v-33.04h-10.26v-8.15H826.66zM848.13 875.91l12.89 41.19h-10.37l-2.54-8.48H834.8l-2.58 8.48h-8.46l13.2-41.19H848.13zM837.12 901.02h8.73l-4.33-14.45L837.12 901.02zM875.18 900.77v16.32h-9.72v-41.19h18.1c3.34 0 6.02.39 8.04 1.16 2.02.77 3.7 2.2 5.02 4.27 1.33 2.07 1.99 4.37 1.99 6.91 0 4.95-2.38 8.49-7.15 10.64l7.6 18.21h-10.66l-6.33-16.32H875.18zM875.18 883.24v10.5h5.91c1.93 0 3.33-.14 4.21-.41.88-.27 1.65-.88 2.34-1.81.68-.94 1.03-2.01 1.03-3.21 0-1.15-.34-2.17-1.03-3.08-.68-.91-1.43-1.46-2.23-1.67-.8-.21-2.31-.32-4.53-.32H875.18zM932.18 875.91v8.15h-10.2v33.04h-9.78v-33.04h-10.26v-8.15H932.18zM951.76 875.91h19.19c3.44 0 6.02.42 7.75 1.27 1.73.84 3.16 2.05 4.28 3.62 1.13 1.57 1.69 3.48 1.69 5.73 0 4.56-2.47 7.61-7.42 9.14 2.86.64 5 1.92 6.43 3.84 1.43 1.91 2.14 4 2.14 6.25 0 3.08-1.17 5.74-3.5 7.99-2.33 2.24-6.13 3.37-11.38 3.37h-19.19V875.91zM961.39 883.18v9.02h7.3c2.68 0 4.36-.53 5.05-1.58.69-1.06 1.04-2.07 1.04-3.03 0-1.05-.29-1.95-.86-2.7-.57-.75-1.2-1.23-1.89-1.42-.68-.19-2.03-.29-4.04-.29H961.39zM961.39 899.54v9.93h7.41c2.53 0 4.32-.44 5.36-1.33 1.04-.89 1.57-2.12 1.57-3.71 0-1.33-.5-2.47-1.51-3.44-1-.97-2.67-1.45-5-1.45H961.39zM1024.48 875.91v25.65c0 4.14-.47 7.23-1.42 9.25-.95 2.02-2.69 3.68-5.24 4.98-2.54 1.3-5.8 1.95-9.76 1.95s-7.12-.58-9.46-1.75c-2.34-1.17-4.1-2.83-5.27-4.98-1.17-2.15-1.75-5.3-1.75-9.44v-25.65h10.47v25.65c0 2.21.19 3.84.56 4.89.37 1.05 1.12 1.88 2.23 2.49 1.12.61 2.49.92 4.12.92 1.81 0 3.28-.3 4.42-.91 1.14-.6 1.89-1.4 2.26-2.4.37-1 .56-2.66.56-4.99v-25.65H1024.48zM1060.6 884.96l-8.21 2.75c-1.1-3.26-3.44-4.89-7.01-4.89-3.81 0-5.72 1.24-5.72 3.71 0 .99.36 1.82 1.07 2.5.71.68 2.33 1.28 4.84 1.78 4.2.85 7.27 1.7 9.22 2.57 1.95.86 3.59 2.26 4.93 4.18 1.34 1.92 2 4.07 2 6.44 0 3.72-1.43 6.94-4.3 9.65-2.86 2.72-7.11 4.07-12.74 4.07-4.22 0-7.81-.96-10.78-2.88-2.96-1.92-4.92-4.77-5.86-8.55l8.93-2.02c1 3.84 3.79 5.76 8.37 5.76 2.21 0 3.85-.43 4.94-1.28 1.08-.85 1.63-1.88 1.63-3.06 0-1.21-.49-2.14-1.48-2.81-.98-.66-2.88-1.29-5.69-1.87-5.24-1.09-8.98-2.57-11.21-4.45-2.23-1.88-3.34-4.63-3.34-8.25 0-3.66 1.33-6.75 3.99-9.26 2.66-2.51 6.28-3.77 10.84-3.77C1053.09 875.28 1058.29 878.51 1060.6 884.96zM1077.65 875.91v41.19h-9.63v-41.19H1077.65zM1117.6 875.91v41.19h-8.23l-16.12-27.82c.02.7.04 1.17.06 1.39.08.7.12 1.3.12 1.78v24.65h-7.51v-41.19h10.4l14.01 24.29c-.12-1.21-.18-2.12-.18-2.75v-21.54H1117.6zM1155.29 883.76h-19.61v8.45h15.42v7.75h-15.42v8.99h19.61v8.15h-29.42v-41.19h29.42V883.76zM1189.54 884.96l-8.21 2.75c-1.1-3.26-3.44-4.89-7.01-4.89-3.81 0-5.72 1.24-5.72 3.71 0 .99.36 1.82 1.07 2.5.71.68 2.33 1.28 4.84 1.78 4.2.85 7.27 1.7 9.22 2.57 1.95.86 3.59 2.26 4.93 4.18 1.34 1.92 2 4.07 2 6.44 0 3.72-1.43 6.94-4.3 9.65-2.86 2.72-7.11 4.07-12.74 4.07-4.22 0-7.81-.96-10.78-2.88-2.96-1.92-4.92-4.77-5.86-8.55l8.93-2.02c1 3.84 3.79 5.76 8.37 5.76 2.21 0 3.85-.43 4.94-1.28 1.08-.85 1.63-1.88 1.63-3.06 0-1.21-.49-2.14-1.48-2.81-.98-.66-2.88-1.29-5.69-1.87-5.24-1.09-8.98-2.57-11.21-4.45-2.23-1.88-3.34-4.63-3.34-8.25 0-3.66 1.33-6.75 3.99-9.26 2.66-2.51 6.28-3.77 10.84-3.77C1182.03 875.28 1187.23 878.51 1189.54 884.96zM1225.42 884.96l-8.21 2.75c-1.1-3.26-3.44-4.89-7.01-4.89-3.81 0-5.72 1.24-5.72 3.71 0 .99.36 1.82 1.07 2.5.71.68 2.33 1.28 4.84 1.78 4.2.85 7.27 1.7 9.22 2.57 1.95.86 3.59 2.26 4.93 4.18 1.34 1.92 2 4.07 2 6.44 0 3.72-1.43 6.94-4.3 9.65-2.86 2.72-7.11 4.07-12.74 4.07-4.22 0-7.81-.96-10.78-2.88-2.96-1.92-4.92-4.77-5.86-8.55l8.93-2.02c1 3.84 3.79 5.76 8.37 5.76 2.21 0 3.85-.43 4.94-1.28 1.08-.85 1.63-1.88 1.63-3.06 0-1.21-.49-2.14-1.48-2.81-.98-.66-2.88-1.29-5.69-1.87-5.24-1.09-8.98-2.57-11.21-4.45-2.23-1.88-3.34-4.63-3.34-8.25 0-3.66 1.33-6.75 3.99-9.26 2.66-2.51 6.28-3.77 10.84-3.77C1217.91 875.28 1223.1 878.51 1225.42 884.96z" class="color1d3b77 svgShape"/></g><path fill="#77521d" d="M1229.8,1516.38h-130.17c-2.37,0-4.29,1.92-4.29,4.29v19.44c0,2.37,1.92,4.28,4.29,4.28h130.17    c2.37,0,4.28-1.92,4.28-4.28v-19.44C1234.09,1518.3,1232.17,1516.38,1229.8,1516.38z" class="color1d3b77 svgShape"/></g><path fill="#23211f" d="M841.82,1619.07l-76.12-315.55c-1.74-7.2-8.02-12.25-15.24-12.25h-44.58c-2.72-9.26-9.41-15.67-17.43-15.67   c-7.83,0-14.39,6.09-17.23,15c-0.09,0.27,0.14,0.56,0.46,0.56h6.27c0.2,0,0.37-0.11,0.44-0.28c2.12-5.34,5.88-8.99,10.07-8.99   c4.29,0,8.09,3.85,10.18,9.39h-69.15v331.22c0,6.16,1.89,11.87,5.12,16.6h191.97C836.78,1639.08,844.27,1629.24,841.82,1619.07z" opacity=".2" class="color231f20 svgShape"/><g fill="#000000" class="color000 svgShape"><polygon fill="#fff0dc" points="348.55 1325.66 314.16 1651.97 435.23 1651.97" class="colordcdfff svgShape"/><polygon fill="#e2c69f" points="348.55 1325.66 369.15 1638.26 435.23 1651.97" class="color9fa5e2 svgShape"/><polygon fill="#c89a5a" points="314.16 1651.97 369.47 1629.46 435.23 1651.97" class="color5a5ec8 svgShape"/><path fill="#eddabf" d="M363.04,1314.49h369.03c7.2,0,13.46,4.9,15.19,11.89l75.9,306.17c2.45,9.87-5.02,19.42-15.2,19.42H438.94    c-7.2,0-13.46-4.9-15.2-11.89l-75.9-306.17C345.4,1324.04,352.87,1314.49,363.04,1314.49z" class="colorc2bfed svgShape"/><polygon fill="#ffffff" points="730.57 1356.71 798.91 1637.79 445.73 1637.79 377.39 1356.71" class="colorfff svgShape"/><polygon fill="#f9f5ef" points="630.68 1387.56 646.93 1448.76 588.69 1448.76 571.08 1387.56" class="colorefeff9 svgShape"/><polygon fill="#fbefdf" points="555.49 1387.56 571.74 1448.76 513.49 1448.76 495.88 1387.56" class="colore1dffb svgShape"/><polygon fill="#f9f5ef" points="480.29 1387.56 496.54 1448.76 438.3 1448.76 420.69 1387.56" class="colorefeff9 svgShape"/><polygon fill="#fbefdf" points="652.16 1466.57 668.41 1527.77 610.17 1527.77 592.56 1466.57" class="colore1dffb svgShape"/><polygon fill="#ffc16a" points="729.03 1466.57 745.28 1527.77 687.03 1527.77 669.42 1466.57" class="colorff6a8f svgShape"/><polygon fill="#c89a5a" points="576.97 1466.57 593.22 1527.77 534.97 1527.77 517.36 1466.57" class="color5a5ec8 svgShape"/><polygon fill="#fbefdf" points="501.77 1466.57 518.02 1527.77 459.78 1527.77 442.17 1466.57" class="colore1dffb svgShape"/><polygon fill="#c89a5a" points="675.97 1548.45 692.22 1609.65 633.98 1609.65 616.37 1548.45" class="color5a5ec8 svgShape"/><polygon fill="#fbefdf" points="752.84 1548.45 769.09 1609.65 710.85 1609.65 693.24 1548.45" class="colore1dffb svgShape"/><polygon fill="#fbefdf" points="600.78 1548.45 617.03 1609.65 558.79 1609.65 541.18 1548.45" class="colore1dffb svgShape"/><polygon fill="#fbefdf" points="525.58 1548.45 541.84 1609.65 483.59 1609.65 465.98 1548.45" class="colore1dffb svgShape"/><polygon fill="#f9e9d2" points="732.54 1364.81 379.36 1364.81 377.39 1356.71 730.57 1356.71" class="colord2daf9 svgShape"/><path fill="#e2c69f" d="M414.34,1344.38c0,4.03,2.38,7.3,5.32,7.3c2.94,0,5.32-3.27,5.32-7.3s-2.38-7.3-5.32-7.3     C416.72,1337.09,414.34,1340.35,414.34,1344.38z" class="color9fa5e2 svgShape"/><path fill="#3c2d17" d="M418.97,1342c0-0.27,0.29-0.46,0.58-0.4c0.44,0.09,0.89,0.14,1.34,0.14c6.42,0,11.84-8.33,11.84-18.18     c0-9.85-5.42-18.18-11.84-18.18c-4.18,0-7.93,3.54-10.04,8.72c-0.07,0.16-0.24,0.27-0.43,0.27h-6.26c-0.31,0-0.54-0.27-0.46-0.54     c2.84-8.64,9.38-14.55,17.18-14.55c10.48,0,18.7,10.66,18.7,24.27s-8.21,24.27-18.7,24.27c-0.51,0-1.01-0.03-1.51-0.07     c-0.24-0.02-0.42-0.21-0.42-0.42V1342z" class="color19173c svgShape"/><path fill="#e2c69f" d="M498.02,1344.38c0,4.03,2.38,7.3,5.32,7.3c2.94,0,5.32-3.27,5.32-7.3s-2.38-7.3-5.32-7.3     C500.41,1337.09,498.02,1340.35,498.02,1344.38z" class="color9fa5e2 svgShape"/><path fill="#3c2d17" d="M502.66,1342c0-0.27,0.29-0.46,0.58-0.4c0.44,0.09,0.89,0.14,1.34,0.14c6.42,0,11.84-8.33,11.84-18.18     c0-9.85-5.42-18.18-11.84-18.18c-4.18,0-7.93,3.54-10.04,8.72c-0.07,0.16-0.24,0.27-0.43,0.27h-6.26c-0.31,0-0.54-0.27-0.46-0.54     c2.84-8.64,9.38-14.55,17.18-14.55c10.48,0,18.7,10.66,18.7,24.27s-8.21,24.27-18.7,24.27c-0.51,0-1.01-0.03-1.51-0.07     c-0.24-0.02-0.42-0.21-0.42-0.42V1342z" class="color19173c svgShape"/><g fill="#000000" class="color000 svgShape"><path fill="#e2c69f" d="M581.71,1344.38c0,4.03,2.38,7.3,5.32,7.3c2.94,0,5.32-3.27,5.32-7.3s-2.38-7.3-5.32-7.3     C584.09,1337.09,581.71,1340.35,581.71,1344.38z" class="color9fa5e2 svgShape"/><path fill="#3c2d17" d="M586.35,1342c0-0.27,0.29-0.46,0.58-0.4c0.44,0.09,0.89,0.14,1.34,0.14c6.42,0,11.84-8.33,11.84-18.18     c0-9.85-5.42-18.18-11.84-18.18c-4.18,0-7.93,3.54-10.04,8.72c-0.07,0.16-0.24,0.27-0.43,0.27h-6.26c-0.31,0-0.54-0.27-0.46-0.54     c2.84-8.64,9.38-14.55,17.18-14.55c10.48,0,18.7,10.66,18.7,24.27s-8.21,24.27-18.7,24.27c-0.51,0-1.01-0.03-1.51-0.07     c-0.24-0.02-0.42-0.21-0.42-0.42V1342z" class="color19173c svgShape"/></g><g fill="#000000" class="color000 svgShape"><ellipse cx="669.01" cy="1344.38" fill="#e2c69f" rx="5.32" ry="7.3" class="color9fa5e2 svgShape"/><path fill="#3c2d17" d="M668.32,1342c0-0.27,0.29-0.46,0.58-0.4c0.44,0.09,0.89,0.14,1.34,0.14c6.42,0,11.84-8.33,11.84-18.18     c0-9.85-5.42-18.18-11.84-18.18c-4.18,0-7.93,3.54-10.04,8.72c-0.07,0.16-0.24,0.27-0.43,0.27h-6.26c-0.31,0-0.54-0.27-0.46-0.54     c2.84-8.64,9.38-14.55,17.18-14.55c10.48,0,18.7,10.66,18.7,24.27s-8.21,24.27-18.7,24.27c-0.51,0-1.01-0.03-1.51-0.07     c-0.24-0.02-0.42-0.21-0.42-0.42V1342z" class="color19173c svgShape"/></g></g><g fill="#000000" class="color000 svgShape"><path fill="#332d25" d="M814.33,1646.72c-5.28-1.54-18.63,1.26-23.38-4.15l-18.45-0.46c-0.76,4.84-2.34,17.15,0.8,18.49    c3.93,1.67,42.85-7.55,42.85-7.55S820.24,1648.44,814.33,1646.72z" class="color252933 svgShape"/><path fill="#3d362d" d="M850.64,1650.82c-4.94-1.44-17.69-1.41-23.4-6.35l-19.63-0.49c-0.79,5.35-2,18.36,0.94,19.62    c3.92,1.67,43.92-6.45,43.92-6.45S856.55,1652.54,850.64,1650.82z" class="color2d313d svgShape"/><path fill="#9f6f2d" d="M791.32,1456.26c0,0-13.74-22.04-18.77-26.5c0,0,12.53-21.26,13.35-31.32     c0.82-10.06-12.36-30.71-17.07-14.21c-4.72,16.49-15.56,41.94-11.07,53.11c4.49,11.17,17.07,14.21,24.08,27.61L791.32,1456.26z" class="color2d4f9f svgShape"/><path fill="#e09f44" d="M784.85,1462.18l-3.01,2.76c-7.01-13.39-19.59-16.44-24.08-27.61c-4.49-11.17,6.35-36.61,11.07-53.11     c1.68-5.87,4.43-7.02,7.24-5.63c-4.47,5.57-14.15,40.85-14.13,48.95c0.02,8.1,5.62,13.96,11.22,19.81     C777.13,1451.52,782.23,1458.49,784.85,1462.18z" class="color4484e0 svgShape"/><path fill="#524a3f" d="M791.39,1642.58l-19.82-0.5c0,0,3.27-51.49,11.84-77.05c0,0-6.17-30.9-7.66-50.77c0,0-5.7-10.06-3.07-35.78    l55.55-0.59c0,0,12.24,65.76,13.92,77.7c1.68,11.94-13.73,73.04-14.12,88.89l-21.8-0.55c0,0,3.47-59.41,11.84-77.05    c0,0-9.51-16.1-15.21-26.16c0,0,3.17,31.81,1.04,37.71C801.78,1584.34,792.9,1621.8,791.39,1642.58z" class="color3f4752 svgShape"/><path fill="#e09f44" d="M823.38,1434.14c2.28-11.84,4.75-26.89,4.75-26.89s0.45-4.4,0.51-4.4c0-0.04-0.28-4.78-0.28-4.82    c0.14-21.66-13.45-23.6-13.45-23.6s0.02-0.01,0.03-0.01l-3.85-4.05l-27.75-0.7c0,0-13.97,3.62-16.4,21.41    c-2.43,17.79,8.72,47.82,6.44,59.66c-2.28,11.84-7.34,30.58-1.14,33.2c6.2,2.62,47.87,1.68,56-6.05    C836.36,1470.17,821.1,1445.99,823.38,1434.14z" class="color4484e0 svgShape"/><path fill="#9f6f2d" d="M823.38,1434.14c1.9-9.85,3.92-21.9,4.55-25.67c0.02-0.27,0.03-0.54,0.05-0.8c0.01-0.22,0.02-0.43,0.03-0.64    c0.22-4.01,0.33-7.19,0.37-8.64c-0.01-0.2-0.02-0.34-0.02-0.35c0.02-2.43-0.16-4.58-0.45-6.54c-11.35-0.39-9.84,4.02-9.84,4.02    s-3.02,2.58-3.52,7.22c-1.87,17.41-1.04,24.53-1.29,34.56c-0.25,10.03,6.82,10.21,6.37,28.26c-0.24,9.74-11.38,15.7-21.59,19.13    c5.36-0.33,10.7-0.85,15.56-1.56c6.66-1.18,12.18-2.89,14.63-5.22C836.36,1470.17,821.1,1445.99,823.38,1434.14z" class="color2d4f9f svgShape"/><path fill="#40392f" d="M803.91,1578.44c2.13-5.9-1.04-37.71-1.04-37.71c0.57,1,1.18,2.07,1.81,3.17v0    c1.29-15.68-10.01-32.13-10.01-32.13c7.08,33.89,2.58,55.6-1.79,71.36c-4.36,15.76-8.15,59.3-8.15,59.3l6.67,0.17    C792.9,1621.8,801.78,1584.34,803.91,1578.44z" class="color2f3740 svgShape"/><path fill="#fbd7a4" d="M818.83,1328.85c-1.12,1.28-2.35,2.54-3.73,3.73c0.02,0.03,3.74,5.27,1.61,11.15c0,0-1.78-7.98-5.75-8.08     c0,0,0.7,20.39-3.37,24.25c-3.57,3.39-16.25,5.71-20.79,4.5c0.32,1.59-0.13,5.27-0.13,5.27l23.82,0.67l-0.22-6.94     c0,0,12.04-5.65,12.24-13.58c0.2-7.93-3.67-20.98-3.67-20.98C818.84,1328.85,818.84,1328.85,818.83,1328.85z" class="colorfbc0a4 svgShape"/><path fill="#523c1e" d="M771.13,1331.56c0.09-1.62,0.54-3.2,1.31-4.64l3.2-6.02c0,0,0.27-0.74,0.85-1.84     c3.83-7.21,12.34-10.57,20.14-8.17l16.05,4.93c3.5,1.07,7.25,1.29,10.79,0.35c0.8-0.21,1.58-0.48,2.28-0.82     c0.55-0.27,1.13,0.27,0.9,0.83c-1.39,3.41-4.93,10.68-11.55,16.41c0.02,0.03,3.74,5.27,1.61,11.15c0,0-1.78-7.98-5.75-8.08     c0,0,1.44,21.85-2.63,25.72c-4.06,3.86-20.94,4.43-22.87,2.4c-1.93-2.03,0.2-7.93-3.72-10.01     C778.16,1351.86,770.56,1342.29,771.13,1331.56z" class="color221e52 svgShape"/><path fill="#fbd7a4" d="M864.8,1376.01c0.03-1.23,0.2-2.22,0.58-2.74c1.8-2.41,4.9-5.43,2.9-8.45c-0.37-0.56-0.73-1.17-0.7-1.84    c0.03-0.8,0.6-1.46,1.05-2.12c0.45-0.66,0.81-1.54,0.4-2.23c-0.42-0.72-1.43-0.84-1.99-1.46c-0.49-0.54-0.53-1.34-0.47-2.07    c0.05-0.73,0.17-1.48-0.1-2.16c-1.37-3.44-7.28,1.59-8.58,2.71c-1.24,1.07-2.43,2.21-3.58,3.39c-0.31,0.32-1.43,1.14-1.51,1.61    l-0.94,5.25l3.34,9.74C857.81,1375.2,861.41,1374.98,864.8,1376.01z" class="colorfbc0a4 svgShape"/><polygon fill="#674a21" points="853.87 1365.34 845.21 1337.96 861.02 1334.33 865.23 1364.45" class="color213267 svgShape"/><path fill="#7a5b31" d="M857.11,1362.65c0.2,0.73,0.95,1.16,1.68,0.95c0.73-0.2,1.16-0.95,0.96-1.68c-0.2-0.73-0.95-1.15-1.68-0.95     C857.34,1361.17,856.91,1361.92,857.11,1362.65z" class="color31467a svgShape"/><polygon fill="#f7e0c1" points="849.48 1338.99 850.16 1340.26 856.32 1338.92 856.5 1337.62 859.56 1336.98 861.95 1359.9 853.34 1360.47 847.56 1339.47" class="colorc1dbf7 svgShape"/><polygon fill="#7a5b31" points="855.18 1337.74 850.51 1338.66 850.72 1339.42 855.3 1338.16" class="color31467a svgShape"/><path fill="#fbd7a4" d="M854.44,1372.34c0,0,0.3,1.37,0.74,3.29c1.65-0.27,3.68-0.46,5.82-0.31c-0.44-7.48-7.13-9.99-7.13-9.99    s5.24-1.55,4.73-4.38c-0.51-2.83-10.59,0.75-11.04,3.04C847.11,1366.28,854.44,1372.34,854.44,1372.34z" class="colorfbc0a4 svgShape"/><path fill="#e09f44" d="M867.61,1377.2c-6.78-3.9-16.15-0.69-16.15-0.69l-0.95,33.74c0,0-25.46-31.76-28.74-33.49    c-2.19-1.16-4.76-2.62-11.27-1.44l2.99,26.27c0,0,36.43,40.26,44.94,38.42c5.79-1.25,9.91-5.09,10.79-13.67    C870.54,1413.42,867.61,1377.2,867.61,1377.2z" class="color4484e0 svgShape"/></g><g fill="#000000" class="color000 svgShape"><path fill="#edc183" d="M1403.15,1470.63c0,0-0.21-9.1-8.3-12.48C1386.99,1454.86,1392.57,1476.56,1403.15,1470.63z" class="coloredb183 svgShape"/><path fill="#fcd196" d="M1372.95,1419.85c3.92,7.61,14.53,6.13,14.53,6.13l0,0l-4.73,11.26c-12.09,3.47-23.23-8.16-23.23-8.16      c-13.45-14.24-14.23-52.23-14.23-52.23C1362.52,1382.15,1369.03,1412.25,1372.95,1419.85z" class="colorfcc596 svgShape"/><polygon fill="#fdd399" points="1355.43 1627.28 1357.23 1642.72 1336.57 1641.22 1336.57 1627.28" class="colorfdce99 svgShape"/><polygon fill="#fdd399" points="1297.79 1615.85 1289.26 1627.93 1273.38 1614.38 1281.39 1603.08" class="colorfdce99 svgShape"/><path fill="#3d362d" d="M1273.93,1610.48c0,0,12.89,13.13,19.24,14.19c0,0,0.55,6.74,7.01,18.3c6.46,11.56,7.93,18.66-4.45,10.44       c-12.38-8.22-33.89-27.23-31.87-30.71C1265.9,1619.21,1273.93,1610.48,1273.93,1610.48z" class="color2d313d svgShape"/><path fill="#524431" d="M1348.55,1468.37c0,0,11.07,126.38,10.34,160.74h-26.13l-0.5-48.78c0,0-19.7,22.42-34.81,37.83      c0,0-14.12-0.79-18.44-13.27c0,0,30.71-49.54,32.87-56.15c2.16-6.6-22.58-51.01-21.14-80.37H1348.55z" class="color314452 svgShape"/><path fill="#3d3222" d="M1281.76,1600.42c10.4-12.02,29.62-38.3,33.95-42.34c5.76-5.38-11.03-58.68-11.99-74.27      c-0.93-15.1,23.53-15.43,25.06-15.43h-38.05c-1.44,29.36,23.3,73.76,21.14,80.37      C1310.1,1554.13,1289.35,1588.09,1281.76,1600.42z" class="color22333d svgShape"/><path fill="#3d362d" d="M1334.78,1637.74c0,0,17.99,2.94,23.75,0c0,0,4.32,5.14,16.19,10.64c11.88,5.51,20.51,10.28,5.76,11.01      c-14.75,0.73-45.34-1.47-45.7-5.5C1334.42,1649.85,1334.78,1637.74,1334.78,1637.74z" class="color2d313d svgShape"/><path fill="#f8b65a" d="M1339.04,1370.4c-6.55,1.32-11.67,6.74-9.76,13.26c0.22,0.74,1.94,3.66,2.26,4.36      c2.73,5.9,12.11,20.37,14.03,27.71l24.1-6.42c0,0-3.92-8.02-7.8-18.7C1358.6,1381.62,1354.39,1367.29,1339.04,1370.4z" class="colorf85a7d svgShape"/><path fill="#eaa544" d="M1356,1412.95l-10.43,2.78c-0.72-2.77-2.51-6.56-4.6-10.51l5.43-17.66L1356,1412.95z" class="colorea4477 svgShape"/><path fill="#f8b65a" d="M1344.17,1475.37c2.11,0.1,3.61-0.11,4.7-0.45c1.17-2,1.4-5.08,1.12-11.04      c-0.46-9.85,1.18-28.16,1.17-42.98c0-13.79,4.13-37.44-1.18-46.96c-5.31-9.52-25.89-13.72-25.89-13.72      c-1.66-0.27-18.24-0.71-23.38,8.34c-7.19,12.65-5.08,21.7-3.87,35.75c1.21,14.05-3.2,37.2-5.2,49.13      c-1.19,7.09-1.24,13.27,0.53,17.12C1306.36,1471.49,1337.61,1475.07,1344.17,1475.37z" class="colorf85a7d svgShape"/><path fill="#efc386" d="M1322.49,1354.58c0,0-1.75,6.18-5.82,5.84c0.36-0.24-3.22,3.63,7.59,10.58       c10.81,6.95,17.88,1.72,16.05-6.65C1340.32,1364.35,1326.63,1354.7,1322.49,1354.58z" class="colorefb386 svgShape"/><path fill="#eaa544" d="M1344.11,1475.44c2.28,0.11,3.85-0.14,4.95-0.53c0.4-0.66,0.7-1.43,0.87-2.38      c-11.16,1.45-37.88-4.58-46.22-9c-9.41-4.99-6.52-23.58-0.84-38.25c5.68-14.67,1.54-33.22,1.54-33.22      c-1.85-1.49-4.86-5.78-8.22-11.3c-1.32,7.34-2.03,13.29-2.16,22.55c-0.19,13.12-3.76,35.51-3.92,49.35      c-0.08,7.37-1.94,13.81-0.33,17.82C1302.54,1471.12,1337.17,1475.11,1344.11,1475.44z" class="colorea4477 svgShape"/><path fill="#3d3222" d="M1343.03,1580.33c0.48-11-6.46-37.41-6.46-37.41c2.65,22.98-4.33,37.41-4.33,37.41l0.5,48.78h9.58      C1330.15,1601.83,1343.47,1582.77,1343.03,1580.33z" class="color22333d svgShape"/><path fill="#ffbf66" d="M1345.55,1453.1c4.24,1.54,9.63,2.55,9.98,4.57c0.75,4.4-5.38,6.67-8.44,5.46         c-2.98-1.41-5.47-6.23-5.47-6.23S1341.35,1451.58,1345.55,1453.1z" class="colorf4be84 svgShape"/><path fill="#ffbf66" d="M1363.52 1464.24c.54-.37-2.03-4.69-2.86-5.38-.67-.56-1.36-1.33-7.87-3.36l2.24 4c0 0 4.07.63 4.62.93C1360.2 1460.72 1361.38 1464.15 1363.52 1464.24zM1358.59 1471.97c.92-.05-.13-4.73-.59-5.77-.58-1.31-.41-1.9-4.22-8.33l-.72 4.42c0 0 3.02 4.23 3.27 4.86C1356.57 1467.78 1357.19 1471.17 1358.59 1471.97zM1355.45 1472.49c.89-.05-.13-4.54-.57-5.54-.56-1.26-.39-1.82-4.06-8l-.69 4.24c0 0 2.9 4.06 3.14 4.67C1353.51 1468.46 1354.1 1471.72 1355.45 1472.49zM1351.41 1470.45c.75-.04-.11-3.84-.48-4.69-.47-1.07-.33-1.54-3.43-6.77l-.59 3.59c0 0 2.45 3.43 2.66 3.95C1349.77 1467.04 1350.27 1469.8 1351.41 1470.45zM1342.25 1457.24l-6.6.29-.01-6.99c0 0 4 .64 9.91 2.57L1342.25 1457.24z" class="colorf4be84 svgShape"/><path fill="#fcd196" d="M1302.9,1372.08c-12.69-1.14-33.16,63.55-26.11,73.9c8.94,14.92,45.06,10.89,64.45,13.59       c0,0,3.87-3.17,4.9-6.97c-12.8-9.87-48.76-15.05-51.7-16.99C1291.51,1433.66,1315.55,1373.22,1302.9,1372.08z" class="colorfcc596 svgShape"/><path fill="#efc386" d="M1278.88,1443.03c-5.54-8.12,6.45-49.72,18.5-68.2c-12.55,16.05-26.45,62.55-20.59,71.14       c8.94,14.92,45.06,10.89,64.45,13.59c0,0,1.32-1.16,2.62-2.82C1324.32,1454.2,1287.73,1457.81,1278.88,1443.03z" class="colorefb386 svgShape"/><polygon fill="#b4a083" points="1394.88 1472.38 1329.4 1469.23 1345.56 1418.11 1411.04 1421.25" class="color8394b4 svgShape"/><polygon fill="#d7c2a5" points="1394.31 1477.09 1297.93 1472.55 1298.11 1468.54 1394.49 1473.08" class="colora5c0d7 svgShape"/><polygon fill="#d7c2a5" points="1394.93 1472.32 1330.95 1469.31 1346.79 1419.18 1410.77 1422.19" class="colora5c0d7 svgShape"/><path fill="#b4a083" d="M1377,1445.48c-0.92,2.43-3.83,4.3-6.51,4.18c-2.68-0.13-4.1-2.2-3.18-4.63c0.92-2.43,3.83-4.3,6.51-4.18       C1376.5,1440.97,1377.92,1443.05,1377,1445.48z" class="color8394b4 svgShape"/><polygon fill="#d7c2a5" points="1330.95 1469.31 1346.79 1419.18 1410.77 1422.19" opacity=".2" class="colora5c0d7 svgShape"/><polygon fill="#b4a083" points="1328.99 1474.02 1297.93 1472.55 1298.11 1468.54 1329.18 1470" class="color8394b4 svgShape"/><polygon fill="#b4a083" points="1349.36 1471.95 1337.36 1471.39 1337.44 1469.62 1349.44 1470.19" class="color8394b4 svgShape"/><polygon fill="#b4a083" points="1390.45 1473.89 1380.18 1473.4 1380.25 1471.64 1390.53 1472.12" class="color8394b4 svgShape"/><polygon fill="#f2dbba" points="1347.18 1419.85 1410.57 1422.83 1410.77 1422.19 1346.79 1419.18 1330.95 1469.31 1331.54 1469.33" class="colorbad6f2 svgShape"/><path fill="#eaa544" d="M1301.12,1413.03c0,0,18.07-36.63,5.35-44.14c-12.72-7.51-24.54,19.11-28.55,37.99L1301.12,1413.03z" class="colorea4477 svgShape"/><g fill="#000000" class="color000 svgShape"><path fill="#fcd196" d="M1357.08,1332.7c0,0-1.27,9.7-2.23,14.85c-0.96,5.15-2.99,16.96-13.4,16.73      c-10.41-0.23-15.23-6.41-18.54-9.31c0,0-10.12-13.11-7.81-16.21c2.32-3.11,5.91-13.07,16.01-11.13      C1341.2,1329.57,1357.08,1332.7,1357.08,1332.7z" class="colorfcc596 svgShape"/><path fill="#523c1e" d="M1346.23,1314.88c-2.15-1.37-4.28-2.79-6.27-4.18c-3.35-2.35-7.49-3.35-11.48-2.53      c-8.26,1.68-11.93,8.65-11.93,8.65l-4,2.78c-4,2.78-3.91,13.4-0.66,19.54c6.08,11.47,11.43,16.31,11.43,16.31      c0.43,0.08,0.48-0.25,0.3-0.83c-0.18-2.49,0.55-4.06,0.55-4.06c-7.27-3.29-6.77-10.54-3.51-11.13c3.27-0.6,4.89,5.84,4.89,5.84      l0.79-2.03c1.66-5.46-0.25-12.12-0.25-12.12s0.17,0.13,0.48,0.34c0.01,0.03,0.02,0.05,0.03,0.08c0,0,2.17,3.63,6.49,4.3      c0,0-0.57-0.69-1.29-1.62c3.26,1.31,7.68,2.42,12.68,1.85c0,0-3.26-0.92-5.61-2.34c3.24,0.32,6.98,0.46,11.09,0.22      c14.09-0.83,17.51-9.79,17.51-9.79C1360.3,1322.22,1354.26,1320.01,1346.23,1314.88z" class="color221e52 svgShape"/></g><g fill="#000000" class="color000 svgShape"><path fill="#fcd196" d="M1397.44,1465.93c0,0-9.81,0.31-10.62,0.17c-0.81-0.14-3.52-2.31-5.44-3.33c-1.93-1.02-2.07,0.94-0.22,2.5      c1.08,0.92,4.5,3.41,5.06,3.84c0.55,0.42,9.99,0.55,11.02,0.64C1398.25,1469.83,1399.15,1465.88,1397.44,1465.93z" class="colorfcc596 svgShape"/><path fill="#fcd196" d="M1397.35,1471.52c0,0-8.75,1.1-10.35,1.02c-1.6-0.08-3.98-3.51-4.77-5.07c-0.79-1.56,0.94-2.16,2.23-1      c1.44,1.3,3.16,2.98,3.16,2.98l8.66-1.67C1396.28,1467.79,1400.83,1471.01,1397.35,1471.52z" class="colorfcc596 svgShape"/><path fill="#fcd196" d="M1398.09,1474.25c0,0-8.41,1.61-9.96,1.58c-1.55-0.03-3.93-3.51-4.74-4.98c-0.81-1.48,0.69-1.96,1.85-0.75      c1.51,1.58,2.93,2.65,3.28,2.67c0.35,0.02,8.42-2.08,8.42-2.08S1401.43,1473.63,1398.09,1474.25z" class="colorfcc596 svgShape"/><path fill="#fcd196" d="M1400.41 1474.26c0 0-6.88 3.6-8.22 3.98-1.35.38-4.29-2.01-5.36-3.07-1.07-1.06.1-1.88 1.42-1.13 1.71.97 3.2 1.52 3.51 1.45.31-.07 6.76-4 6.76-4S1403.15 1472.85 1400.41 1474.26zM1397.05 1465.04c0 0-2.93-1.53-4.66-1.82-1.73-.29-4.66-.48-5.84-1.28-1.18-.81-.89 1.88.54 3 1.43 1.12 4.54 3.34 4.54 3.34S1399.49 1466.6 1397.05 1465.04z" class="colorfcc596 svgShape"/><path fill="#fcd196" d="M1396.45,1475.82c0,0,5.06-1.4,6.61-3.2c1.08-1.26,0.86-5.92-1.76-7.15c-2.62-1.22-7.42-0.68-10.34,0.7      C1388.7,1467.23,1394.2,1475.69,1396.45,1475.82z" class="colorfcc596 svgShape"/></g></g></svg>