<svg xmlns="http://www.w3.org/2000/svg" fill="none" viewBox="0 0 1080 1080"><path fill="#ffa30f" d="M165.74 551.378C186.09 446.548 249.48 351.518 336 288.888C422.52 226.258 530.9 195.788 637.61 199.758C697.17 201.968 758.52 215.588 805.33 252.468C879.33 310.748 900.92 411.228 937.5 498.008C970.97 577.438 1021.45 655.888 1014.1 741.758C1007.91 813.968 959.37 878.108 897.46 915.758C835.55 953.408 761.76 967.398 689.32 969.558C616.88 971.718 544.63 962.828 472.32 958.128C392.22 952.928 281.46 941.518 229.32 869.978C166.2 783.458 145.71 654.568 165.74 551.378Z" class="colorD4E5D8 svgShape"/><path fill="#fbbc64" d="M728.86 195.342V171.112L715.94 168.182C715.302 166.287 714.54 164.437 713.66 162.642L721.18 151.792L704.05 134.662L692.83 141.722C691.042 140.837 689.198 140.068 687.31 139.422L684.95 126.422H660.73L657.79 139.352C655.896 139.988 654.046 140.746 652.25 141.622L641.4 134.112L624.27 151.232L631.34 162.452C630.436 164.247 629.654 166.101 629 168.002L616 170.362V194.592L629 197.512C629.636 199.402 630.395 201.25 631.27 203.042L623.76 213.892L640.86 231.002L652.07 224.002C653.859 224.885 655.703 225.654 657.59 226.302L659.96 239.302H684.18L687.12 226.372C689.012 225.74 690.86 224.981 692.65 224.102L703.51 231.612L720.63 214.492L713.57 203.272C714.455 201.484 715.223 199.64 715.87 197.752L728.86 195.342ZM672.45 203.702C668.324 203.702 664.291 202.478 660.861 200.186C657.43 197.894 654.757 194.636 653.178 190.825C651.599 187.013 651.186 182.819 651.991 178.772C652.796 174.726 654.782 171.009 657.7 168.092C660.617 165.174 664.334 163.188 668.38 162.383C672.427 161.578 676.621 161.991 680.433 163.57C684.244 165.149 687.502 167.822 689.794 171.253C692.087 174.683 693.31 178.716 693.31 182.842C693.31 188.374 691.112 193.68 687.2 197.592C683.288 201.504 677.982 203.702 672.45 203.702Z" class="colorFBB464 svgShape"/><path fill="#ab8e65" d="M840.09 166.863V149.763L831 147.693C830.556 146.355 830.021 145.049 829.4 143.783L834.7 136.123L822.57 124.003L814.65 129.003C813.392 128.372 812.092 127.828 810.76 127.373L809.09 118.203H792L789.93 127.333C788.583 127.799 787.27 128.357 786 129.003L778.34 123.703L766.25 135.793L771.25 143.703C770.628 144.968 770.087 146.27 769.63 147.603L760.46 149.273V166.373L769.59 168.443C770.036 169.781 770.57 171.087 771.19 172.353L765.89 180.013L778 192.053L785.91 187.053C787.172 187.682 788.475 188.227 789.81 188.683L791.48 197.853H808.58L810.65 188.723C811.987 188.277 813.294 187.743 814.56 187.123L822.22 192.423L834.31 180.333L829.31 172.413C829.941 171.155 830.486 169.855 830.94 168.523L840.09 166.863ZM800.27 172.763C797.361 172.761 794.517 171.897 792.099 170.28C789.68 168.663 787.795 166.366 786.681 163.678C785.568 160.991 785.275 158.034 785.841 155.18C786.407 152.326 787.806 149.704 789.861 147.645C791.916 145.586 794.535 144.182 797.387 143.61C800.24 143.038 803.198 143.325 805.888 144.433C808.578 145.541 810.879 147.422 812.5 149.837C814.122 152.252 814.992 155.094 815 158.003C815.005 159.94 814.628 161.86 813.89 163.651C813.152 165.442 812.068 167.07 810.699 168.441C809.331 169.812 807.705 170.9 805.915 171.642C804.126 172.383 802.207 172.764 800.27 172.763Z" class="color8665AB svgShape"/><path fill="#fbbc64" d="M875.83 223.703C877.83 220.493 881.34 218.703 884.76 217.383 888.91 215.783 893.32 214.383 897.76 214.263 904.93 214.133 911.01 218.323 914.59 224.363 923 238.553 914.72 254.953 904.12 265.363 900.56 268.853 896.67 272.023 893.38 275.783 890.202 279.409 887.567 283.478 885.56 287.863 884.76 289.603 887.35 291.133 888.15 289.373 890.062 285.149 892.586 281.231 895.64 277.743 898.85 274.103 902.64 271.023 906.08 267.653 912.25 261.653 917.47 254.303 919.82 245.933 920.944 242.198 921.313 238.277 920.904 234.398 920.495 230.52 919.318 226.761 917.44 223.343 913.75 216.843 907.44 211.963 899.82 211.343 894.45 210.913 889.07 212.543 884.1 214.443 879.85 216.073 875.68 218.233 873.2 222.213 872.2 223.853 874.76 225.363 875.79 223.723L875.83 223.703zM886.25 317.413C890.795 317.413 894.48 313.728 894.48 309.183 894.48 304.638 890.795 300.953 886.25 300.953 881.705 300.953 878.02 304.638 878.02 309.183 878.02 313.728 881.705 317.413 886.25 317.413z" class="colorFBB464 svgShape"/><path fill="#ab8e65" d="M207.3 676.65C208.59 674.65 210.82 673.52 212.99 672.65 215.706 671.471 218.613 670.793 221.57 670.65 226.24 670.65 230.09 673.6 232.27 677.59 237.27 686.77 231.66 697.08 224.93 703.59 222.64 705.81 220.17 707.84 218.07 710.24 215.95 712.657 214.192 715.369 212.85 718.29 212.04 720.03 214.63 721.56 215.44 719.81 216.746 716.909 218.497 714.23 220.63 711.87 222.84 709.45 225.4 707.39 227.7 705.07 231.786 701.157 234.788 696.25 236.41 690.83 237.147 688.271 237.359 685.589 237.032 682.946 236.706 680.303 235.848 677.753 234.51 675.45 233.289 673.277 231.56 671.434 229.47 670.077 227.379 668.72 224.991 667.891 222.51 667.66 218.88 667.41 215.19 668.54 211.85 669.87 209.03 670.99 206.39 672.46 204.72 675.08 203.72 676.71 206.27 678.22 207.31 676.59L207.3 676.65zM213.72 738.09C216.713 738.09 219.14 735.663 219.14 732.67 219.14 729.677 216.713 727.25 213.72 727.25 210.727 727.25 208.3 729.677 208.3 732.67 208.3 735.663 210.727 738.09 213.72 738.09zM507.95 126.43H227.49C204.692 126.43 186.21 144.911 186.21 167.71V413.3C186.21 436.098 204.692 454.58 227.49 454.58H507.95C530.748 454.58 549.23 436.098 549.23 413.3V167.71C549.23 144.911 530.748 126.43 507.95 126.43z" class="color8665AB svgShape"/><path fill="#f7960d" d="M463.21 300.593C483.91 300.593 500.69 283.812 500.69 263.113C500.69 242.413 483.91 225.633 463.21 225.633C442.51 225.633 425.73 242.413 425.73 263.113C425.73 283.812 442.51 300.593 463.21 300.593Z" class="color141C40 svgShape"/><path fill="#897861" d="M472 209.242C472 209.242 514.71 331.412 489.88 365.182C465.05 398.952 425.32 388.812 425.32 388.812V454.582H340.88V375.122L347.83 218.122L472 209.242Z" class="color89616B svgShape"/><path fill="#fbbc64" d="M472 209.236C472 209.236 473.31 245.736 419.26 248.416C391.99 248.416 348.67 285.886 340.89 368.176C340.89 368.176 270.21 340.746 299.65 222.316C324.09 123.996 476.28 154.076 472 209.236Z" class="colorFBB464 svgShape"/><path fill="#fbbc64" d="M311.69 218.093C311.69 218.093 256.31 198.353 242.1 303.283C233.31 368.183 203.27 423.933 203.27 423.933C203.27 423.933 263.09 445.533 290.53 426.163C290.53 426.163 282.97 251.413 308.34 246.413L311.69 218.093Z" class="colorFBB464 svgShape"/><path fill="#f7960d" d="M343.8 338.077C364.5 338.077 381.28 321.297 381.28 300.597C381.28 279.898 364.5 263.117 343.8 263.117C323.1 263.117 306.32 279.898 306.32 300.597C306.32 321.297 323.1 338.077 343.8 338.077Z" class="color141C40 svgShape"/><path fill="#f7960d" d="M350.07 278.349C350.07 278.349 366.17 167.179 453.47 176.349 453.47 176.349 443.54 161.819 422.12 162.189 422.12 162.189 336.53 156.979 330.65 278.359L350.07 278.349zM297.88 217.372C289.766 239.566 287.171 263.401 290.32 286.822 290.333 287.216 290.495 287.59 290.773 287.869 291.052 288.147 291.426 288.309 291.82 288.322 292.55 288.322 293.43 287.622 293.32 286.822 290.908 268.837 291.902 250.559 296.25 232.942 297.496 227.942 299.004 223.012 300.77 218.172 301.43 216.352 298.53 215.572 297.88 217.372zM447.15 198.622C451.49 205.432 451.52 214.522 450.61 222.292 449.73 229.842 446.61 237.632 439.97 241.862 438.35 242.862 439.85 245.482 441.49 244.452 448.81 239.802 452.4 231.552 453.49 223.212 454.62 214.672 454.49 204.602 449.74 197.102 448.74 195.482 446.11 196.982 447.15 198.622z" class="color141C40 svgShape"/><path fill="#f7960d" d="M416 203.919C419.33 211.339 421.75 219.359 421.22 227.569 420.991 231.474 419.97 235.291 418.22 238.789 416.369 242.23 414.009 245.373 411.22 248.109 409.87 249.489 411.98 251.609 413.34 250.229 416.325 247.312 418.856 243.965 420.85 240.299 422.759 236.46 423.884 232.278 424.16 227.999 424.84 219.099 422.16 210.419 418.56 202.389 417.78 200.629 415.19 202.159 415.97 203.909L416 203.919zM383 220.168C386.904 227.158 388.87 235.064 388.694 243.069 388.518 251.073 386.207 258.886 382 265.698 381 267.338 383.56 268.838 384.59 267.208 388.083 261.558 390.367 255.246 391.299 248.67 392.23 242.093 391.788 235.395 390 228.998 388.983 225.383 387.525 221.907 385.66 218.648 385.458 218.304 385.129 218.055 384.743 217.955 384.358 217.854 383.948 217.911 383.605 218.113 383.261 218.314 383.012 218.644 382.912 219.029 382.811 219.415 382.868 219.824 383.07 220.168H383zM402.23 384.73C408.046 387.714 414.324 389.695 420.8 390.59 421.176 390.686 421.575 390.636 421.916 390.451 422.257 390.265 422.516 389.958 422.64 389.59 422.742 389.205 422.689 388.796 422.492 388.451 422.296 388.105 421.972 387.85 421.59 387.74 415.374 386.899 409.343 385.019 403.75 382.18 402.03 381.3 400.51 383.89 402.23 384.77V384.73zM449.3 265.767C451.04 274.687 452.863 283.593 454.77 292.487 455.743 296.967 456.743 301.443 457.77 305.917 458.28 308.157 458.77 310.387 459.31 312.627 459.46 313.287 459.82 314.217 459.21 314.687 458.6 315.157 456.87 315.407 456 315.637 451.186 316.951 446.301 317.993 441.37 318.757 439.47 319.057 440.28 321.947 442.17 321.657 446.865 320.922 451.518 319.941 456.11 318.717 457.97 318.227 460.8 317.927 461.94 316.157 463.08 314.387 462.3 312.237 461.87 310.397 459.63 300.737 457.507 291.07 455.5 281.397 454.373 275.943 453.28 270.483 452.22 265.017 451.85 263.127 448.96 263.927 449.32 265.817L449.3 265.767zM416.33 301.091C419.887 301.091 422.77 298.208 422.77 294.651 422.77 291.094 419.887 288.211 416.33 288.211 412.773 288.211 409.89 291.094 409.89 294.651 409.89 298.208 412.773 301.091 416.33 301.091zM478.52 294.653C482.077 294.653 484.96 291.77 484.96 288.213 484.96 284.657 482.077 281.773 478.52 281.773 474.963 281.773 472.08 284.657 472.08 288.213 472.08 291.77 474.963 294.653 478.52 294.653z" class="color141C40 svgShape"/><path fill="#ffbf66" d="M463.24 348.001L411.24 336.921C410.857 336.825 410.452 336.88 410.109 337.076C409.766 337.272 409.512 337.592 409.4 337.971C406.88 346.921 409.53 357.581 416.62 363.691C419.927 366.508 423.802 368.577 427.982 369.76C432.162 370.942 436.548 371.208 440.84 370.541C447.47 369.341 453.24 365.301 457.59 360.281C460.276 357.273 462.494 353.879 464.17 350.211C464.93 348.451 462.34 346.921 461.58 348.691C458.19 356.541 451.38 364.181 443.13 366.871C435.64 369.311 427.13 367.401 420.7 363.061C418.272 361.409 416.222 359.261 414.686 356.758C413.15 354.255 412.163 351.454 411.79 348.541C411.495 346.19 411.495 343.812 411.79 341.461C411.802 341.313 411.822 341.167 411.85 341.021C411.85 340.841 411.9 340.671 411.93 340.491L412.11 339.561C412.17 339.291 412.23 339.021 412.3 338.761L410.45 339.761L462.45 350.851C464.33 351.331 465.13 348.441 463.24 348.001Z" class="colorFCB664 svgShape"/><path fill="#f7960d" d="M475.51 339.998C475.51 339.998 506.13 320.238 496.21 309.208L494.6 297.578C499.73 298.788 515.91 310.768 499.31 331.858C491.11 342.278 478.06 348.588 478.06 348.588L475.51 339.998Z" class="color141C40 svgShape"/><path fill="#f7960d" d="M469.28 363.18C477.94 363.18 484.96 356.16 484.96 347.5C484.96 338.84 477.94 331.82 469.28 331.82C460.62 331.82 453.6 338.84 453.6 347.5C453.6 356.16 460.62 363.18 469.28 363.18Z" class="color141C40 svgShape"/><path fill="#fbbc64" d="M189.53 261.082C211.942 261.082 230.11 242.914 230.11 220.502C230.11 198.09 211.942 179.922 189.53 179.922C167.118 179.922 148.95 198.09 148.95 220.502C148.95 242.914 167.118 261.082 189.53 261.082Z" class="colorFBB464 svgShape"/><path fill="#ab8e65" d="M166.44 226.307L184.76 240.557C185.045 240.831 185.425 240.984 185.82 240.984 186.215 240.984 186.595 240.831 186.88 240.557L213.94 208.997C215.19 207.547 213.08 205.407 211.82 206.877L184.76 238.487H186.88L168.56 224.227C167.06 223.057 164.92 225.167 166.44 226.357V226.307zM325.57 776.662C325.57 776.662 293.26 713.132 275.14 679.802 257.02 646.472 232.39 616.032 239.64 603.722 246.89 591.412 257.48 597.192 257.48 597.192 257.48 597.192 202 510.572 230.94 500.622 230.94 500.622 226.59 491.402 238.94 486.332 251.29 481.262 262.85 497.202 262.85 497.202 262.85 497.202 275.17 480.632 306.33 540.002 306.33 540.002 324.44 517.492 383.14 653.002L412.14 705.172 325.57 776.662z" class="color8665AB svgShape"/><path fill="#f0e5d5" d="M663.67 623.146C663.67 623.146 527.87 625.546 485 812.836L409.89 677.996C409.89 677.996 346.14 722.996 311.69 779.136C311.69 779.136 388.4 1009.51 497.63 1015.14C560.04 1015.14 586.26 964.576 586.26 964.576L584.38 1015.14H919.63C919.63 1015.14 921.2 665.136 799.87 617.406L663.67 623.146Z" class="colorF0E6D5 svgShape"/><mask id="a" style="mask-type:luminance" width="609" height="399" x="311" y="617" maskUnits="userSpaceOnUse"><path fill="#ffffff" d="M663.67 623.146C663.67 623.146 527.87 625.546 485 812.836L409.89 677.996C409.89 677.996 346.14 722.996 311.69 779.136C311.69 779.136 388.4 1009.51 497.63 1015.14C560.04 1015.14 586.26 964.576 586.26 964.576L584.38 1015.14H919.63C919.63 1015.14 921.2 665.136 799.87 617.406L663.67 623.146Z" class="colorfff svgShape"/></mask><g mask="url(#a)" fill="#000000" class="color000 svgShape"><path fill="#ffbf66" d="M478.58 733.832C503.58 749.482 531.19 760.532 559.48 768.712 588.95 777.232 619.22 782.862 649.48 787.582 681.526 792.576 713.753 796.179 746.16 798.392 778.72 800.612 811.333 801.419 844 800.812 876.76 800.192 909.45 798.146 942.07 794.672 946.07 794.252 950.043 793.806 953.99 793.332 955.89 793.112 955.91 790.112 953.99 790.332 921.756 794.112 889.4 796.499 856.92 797.492 824.44 798.486 791.996 798.062 759.59 796.222 727.163 794.389 694.856 791.159 662.67 786.532 632.26 782.142 601.85 776.832 572.11 769.052 543.46 761.562 515.31 751.502 489.5 736.832 486.34 735.042 483.23 733.172 480.14 731.242 478.5 730.242 476.99 732.812 478.63 733.832H478.58zM476.56 783.997C506.653 797.34 537.642 808.564 569.3 817.588 601.239 826.661 633.703 833.774 666.51 838.887 699.172 843.98 732.071 847.425 765.08 849.207 798.56 851.067 832.08 851.387 865.63 850.457 899.18 849.527 932.3 847.367 965.51 844.247 969.69 843.854 973.863 843.444 978.03 843.017 979.93 842.827 979.95 839.827 978.03 840.017 945.03 843.367 911.89 845.787 878.72 847.017 845.55 848.247 812.24 848.307 779.02 846.887 745.8 845.467 712.62 842.567 679.7 837.887 647.107 833.264 614.817 826.712 583 818.267 551.166 809.823 519.958 799.177 489.6 786.407 485.74 784.774 481.9 783.107 478.08 781.407 476.33 780.637 474.8 783.217 476.56 783.997zM492.74 837.709C520.468 849.228 548.923 858.916 577.92 866.709 609.13 875.266 640.75 882.252 672.66 887.639 703.085 892.903 733.768 896.545 764.58 898.549 798.613 900.731 832.748 900.808 866.79 898.779 902.2 896.579 937.6 891.299 971.46 880.489 975.62 879.156 979.757 877.743 983.87 876.249 985.67 875.599 984.87 872.699 983.07 873.359 949.75 885.439 914.7 891.889 879.45 894.859 844.96 897.749 810.12 897.719 775.55 896.139 745.133 894.641 714.823 891.456 684.76 886.599 653.18 881.599 621.82 875.129 590.89 867.079 561.442 859.598 532.489 850.286 504.2 839.199 500.867 837.866 497.55 836.506 494.25 835.119 492.49 834.369 490.96 836.959 492.74 837.709z" class="colorFCB664 svgShape"/><path fill="#fbbc64" d="M316.43 845.309C334.65 822.803 353.82 801.113 373.94 780.239 394.06 759.366 415.043 739.419 436.89 720.399 449.17 709.733 461.71 699.339 474.51 689.219 476.02 688.019 473.89 685.909 472.38 687.089 449.647 705.029 427.717 723.926 406.59 743.779 385.463 763.633 365.267 784.373 346 805.999 335.153 818.139 324.603 830.546 314.35 843.219 313.14 844.699 315.25 846.839 316.47 845.339L316.43 845.309zM334.68 866.357C353.83 850.937 369.03 831.478 384.87 812.838 392.913 803.232 401.444 794.047 410.43 785.318 419.83 776.318 429.78 767.887 439.99 759.807 451.55 750.637 463.46 741.907 475.36 733.177 476.9 732.047 475.36 729.448 473.84 730.588 452.73 746.078 431.55 761.587 412.32 779.417 403.038 788.087 394.25 797.271 386 806.927 377.93 816.287 370.16 825.927 362 835.188 352.91 845.567 343.33 855.567 332.56 864.188 331.05 865.408 333.19 867.518 334.68 866.318V866.357z" class="colorFBB464 svgShape"/></g><path fill="#ab8e65" d="M632.27 332.711C632.27 332.711 578.45 472.891 600.88 520.001C613.88 549.161 663.67 558.131 663.67 558.131V623.131C663.67 623.131 708.53 642.191 751.14 623.131L768 398.871C768 398.871 700.68 339.441 632.27 332.711Z" class="color8665AB svgShape"/><path fill="#f7960d" d="M632.27 332.712C632.27 332.712 648.89 403.832 721 442.542 721 442.542 707.34 643.022 760.13 671.172H888.63C888.63 671.172 856.6 528.482 854.12 400.002 851.67 273.502 668.67 236.552 632.27 332.712zM627.09 396.913L607.19 428.913 597.19 444.913C596.414 445.88 595.919 447.043 595.76 448.273 595.796 448.869 595.968 449.45 596.262 449.969 596.557 450.489 596.967 450.935 597.46 451.273 599.612 453.013 601.858 454.632 604.19 456.123 609.48 459.533 615.144 462.324 621.07 464.443 622.89 465.093 623.68 462.193 621.87 461.543 616.954 459.772 612.224 457.522 607.75 454.823 605.563 453.489 603.437 452.056 601.37 450.523 600.88 450.163 600.37 449.793 599.93 449.423 599.64 449.193 598.93 448.752 598.8 448.362 598.67 447.972 599.3 447.182 599.51 446.833 599.91 446.202 600.3 445.563 600.69 444.933L619.15 415.253 629.63 398.413C630.63 396.773 628.05 395.263 627.04 396.903L627.09 396.913z" class="color141C40 svgShape"/><path fill="#ffbf66" d="M664 484.543C645.89 483.113 627.71 481.653 610 477.413C609.624 477.31 609.222 477.356 608.879 477.543C608.535 477.729 608.278 478.041 608.16 478.413C607.221 483.173 606.832 488.025 607 492.873C607.2 501.283 609 510.413 615 516.733C621.7 523.843 633 525.733 641.92 521.943C650.09 518.413 655.71 510.633 659.54 502.883C662.169 497.755 664.151 492.32 665.44 486.703L665.5 486.433C665.91 484.553 663.02 483.753 662.61 485.643C661.638 489.918 660.252 494.088 658.47 498.093C655.29 505.443 650.82 513.023 643.93 517.463C636.53 522.233 626.22 522.053 619.2 516.533C612.8 511.533 610.61 502.943 610.13 495.163C609.923 491.71 609.987 488.247 610.32 484.803L610.53 482.853C610.63 482.063 610.6 482.263 610.72 481.483C610.84 480.703 611.01 480.163 611.05 479.483C611.062 479.399 611.079 479.316 611.1 479.233L609.26 480.233C627.26 484.533 645.69 486.023 664.06 487.473C666 487.693 665.94 484.693 664 484.543Z" class="colorFCB664 svgShape"/><path fill="#f7960d" d="M665.05 558C672.738 559.003 680.553 558.237 687.9 555.76 689.72 555.14 688.9 552.24 687.1 552.86 680.011 555.254 672.467 555.986 665.05 555 664.24 554.89 663.56 555.77 663.55 556.5 663.558 556.895 663.718 557.272 663.998 557.552 664.278 557.832 664.655 557.992 665.05 558zM649.47 427.488C653.292 427.488 656.39 424.39 656.39 420.568 656.39 416.747 653.292 413.648 649.47 413.648 645.648 413.648 642.55 416.747 642.55 420.568 642.55 424.39 645.648 427.488 649.47 427.488zM634.46 335.547C638.813 344.295 642.358 353.423 645.05 362.817 647.68 371.507 649.92 380.297 653.18 388.817 657.93 401.187 664.26 413.127 673.18 423.057 679.156 429.892 686.479 435.42 694.69 439.297 700.39 441.933 706.497 443.58 712.75 444.167 715.45 444.397 718.68 444.707 721.36 444.027H721.48C723.38 443.707 722.57 440.817 720.68 441.137 720.16 441.227 720.96 441.137 720.6 441.137 720.24 441.137 719.71 441.237 719.26 441.267 717.635 441.367 716.005 441.367 714.38 441.267 712.007 441.164 709.648 440.853 707.33 440.337 704.195 439.68 701.126 438.743 698.16 437.537 690.417 434.274 683.424 429.462 677.61 423.397 668.9 414.487 662.52 403.477 657.73 392.037 654.559 384.059 651.851 375.906 649.62 367.617 647.099 358.383 643.952 349.332 640.2 340.527 639.233 338.34 638.197 336.183 637.09 334.057 636.2 332.347 633.61 333.857 634.5 335.567L634.46 335.547zM720.57 512.401C719.83 535.101 719.1 557.821 719.85 580.531 720.22 591.841 720.96 603.151 722.26 614.401 723.301 624.962 725.066 635.44 727.54 645.761 729.96 655.211 734.02 664.601 742.14 670.481 743.71 671.621 745.21 669.011 743.66 667.891 736.66 662.891 733.1 654.661 730.87 646.621 728.14 636.761 726.7 626.461 725.48 616.331 722.82 594.331 722.33 572.051 722.61 549.871 722.76 537.381 723.16 524.871 723.61 512.401 723.67 510.471 720.67 510.471 720.61 512.401H720.57zM258.49 599.14C264.603 605.14 270.56 611.31 276.36 617.65 279.26 620.81 282.117 624.007 284.93 627.24 285.996 628.699 287.322 629.95 288.84 630.93 290.548 631.673 292.387 632.071 294.25 632.1 308.99 633.49 321.63 643.2 329.62 655.24 334.324 662.536 337.91 670.494 340.26 678.85 340.81 680.7 343.7 679.91 343.15 678.05 338.86 663.53 331.61 649.27 319.55 639.7 313.835 635.054 307.156 631.74 300 630 298.243 629.604 296.463 629.317 294.67 629.14 292.82 628.95 290.83 628.94 289.36 627.65 287.936 626.234 286.6 624.731 285.36 623.15 283.893 621.484 282.41 619.817 280.91 618.15 274.357 610.91 267.6 603.86 260.64 597 259.27 595.64 257.14 597.76 258.52 599.12L258.49 599.14zM232 503.242C250.25 521.682 260.54 545.922 273.42 568.042 277.077 574.396 281.083 580.542 285.42 586.452 286.55 587.982 289.16 586.452 288.01 584.932 272.45 563.932 262.89 539.302 248.01 517.932 243.894 511.949 239.271 506.332 234.19 501.142 232.83 499.762 230.71 501.892 232.07 503.262L232 503.242zM262.24 499.16C276.997 519.669 290.178 541.268 301.67 563.77 304.78 569.77 307.77 575.9 310.59 582.08 311.38 583.83 313.97 582.31 313.18 580.57 302.601 557.625 290.3 535.515 276.38 514.43 272.66 508.743 268.81 503.146 264.83 497.64 263.71 496.1 261.1 497.59 262.24 499.16zM308.08 543.463C317.413 561.309 327.08 578.976 337.08 596.463 339.9 601.389 342.753 606.303 345.64 611.203 345.842 611.546 346.171 611.796 346.557 611.896 346.942 611.996 347.352 611.939 347.695 611.738 348.038 611.536 348.288 611.206 348.388 610.821 348.488 610.436 348.432 610.026 348.23 609.683 338.017 592.349 328.153 574.799 318.64 557.033 315.973 552.026 313.307 546.999 310.64 541.953 309.74 540.243 307.15 541.763 308.05 543.473L308.08 543.463z" class="color141C40 svgShape"/><path fill="#f7960d" d="M287.39 587.561C294.588 584.091 302.526 582.44 310.51 582.751 318.99 583.071 326.81 585.981 334.51 589.421 336.26 590.201 337.78 587.621 336.02 586.831 327.86 583.171 319.58 580.091 310.55 579.751 302.021 579.45 293.548 581.253 285.88 585.001 284.14 585.851 285.66 588.431 287.39 587.591V587.561zM484.09 812.508C486.09 817.568 488.51 822.428 490.87 827.318 493.71 833.052 496.244 838.934 498.46 844.938 501.306 852.942 503.473 861.171 504.94 869.538 506.918 881.123 507.982 892.846 508.12 904.598 508.345 921.048 507.594 937.497 505.87 953.858 505.63 956.258 505.377 958.651 505.11 961.038 504.9 962.948 507.9 962.938 508.11 961.038 510.112 943.974 511.137 926.809 511.18 909.628 511.211 897.298 510.319 884.984 508.51 872.788 507.179 863.959 505.095 855.261 502.28 846.788 500.079 840.389 497.498 834.128 494.55 828.038 493.33 825.468 492.07 822.918 490.84 820.358 490.27 819.158 489.7 817.968 489.15 816.758 488.87 816.158 488.6 815.558 488.34 814.958 488.05 814.308 487.82 813.758 487.68 813.408 487.44 812.838 487.21 812.258 486.98 811.678 486.29 809.898 483.38 810.678 484.09 812.478V812.508zM587.86 967.462C590.47 962.582 592.67 957.462 594.86 952.392 598.11 944.692 601.12 936.902 603.99 929.062 607.63 919.162 611.047 909.182 614.24 899.122 617.88 887.695 621.267 876.189 624.4 864.602 627.74 852.172 630.78 839.602 633.4 827.052 636.02 814.502 638.4 801.522 640.09 788.642 641.833 776.103 642.938 763.483 643.4 750.832 643.856 739.174 643.435 727.497 642.14 715.902 641.006 705.425 638.657 695.116 635.14 685.182 632.002 676.257 627.314 667.957 621.29 660.662 619.887 659.005 618.398 657.423 616.83 655.922 615.44 654.592 613.31 656.712 614.71 658.052 621.201 664.411 626.394 671.971 630 680.312 633.965 689.534 636.718 699.232 638.19 709.162 639.91 720.357 640.696 731.676 640.54 743.002 640.424 755.309 639.636 767.601 638.18 779.822 636.71 792.612 634.64 805.342 632.18 817.982 629.72 830.622 626.83 843.122 623.63 855.572 620.61 867.312 617.31 878.979 613.73 890.572 610.53 900.959 607.117 911.275 603.49 921.522 600.49 929.852 597.43 938.132 594.11 946.322 591.8 952.002 589.4 957.662 586.69 963.162 586.23 964.082 585.77 965.002 585.28 965.912 584.37 967.612 586.96 969.132 587.87 967.422L587.86 967.462z" class="color141C40 svgShape"/><path fill="#fbbc64" d="M386.79 552.98C409.202 552.98 427.37 534.812 427.37 512.4C427.37 489.989 409.202 471.82 386.79 471.82C364.378 471.82 346.21 489.989 346.21 512.4C346.21 534.812 364.378 552.98 386.79 552.98Z" class="colorFBB464 svgShape"/><path fill="#ab8e65" d="M404.83 526.002C404.865 525.093 404.716 524.186 404.392 523.336C404.069 522.486 403.577 521.71 402.946 521.055C402.315 520.399 401.559 519.878 400.722 519.522C399.885 519.166 398.985 518.982 398.075 518.982C397.165 518.982 396.265 519.166 395.428 519.522C394.591 519.878 393.835 520.399 393.204 521.055C392.573 521.71 392.081 522.486 391.757 523.336C391.434 524.186 391.285 525.093 391.32 526.002C391.321 526.408 391.358 526.813 391.43 527.212C388.16 527.512 383.35 526.452 378.75 519.802C373.49 512.212 374.66 506.802 376.37 503.712C377.51 504.143 378.745 504.258 379.945 504.043C381.144 503.829 382.263 503.294 383.183 502.495C384.104 501.696 384.79 500.663 385.171 499.505C385.551 498.348 385.611 497.109 385.344 495.92C385.077 494.731 384.493 493.636 383.654 492.752C382.815 491.868 381.753 491.228 380.58 490.899C379.406 490.57 378.166 490.565 376.99 490.884C375.814 491.203 374.746 491.835 373.9 492.712C373.9 492.712 358.43 505.852 371.08 524.712C376.85 533.322 383.51 535.222 389.03 535.582C391.533 535.802 394.055 535.489 396.428 534.663C398.802 533.838 400.974 532.518 402.8 530.792C403.439 530.168 403.947 529.423 404.296 528.601C404.644 527.778 404.826 526.895 404.83 526.002Z" class="color8665AB svgShape"/><path fill="#fbbc64" d="M235.1 827.829C236.416 831.37 238.584 834.533 241.413 837.038C244.242 839.543 247.645 841.312 251.32 842.189C255.018 842.969 258.853 842.802 262.468 841.702C266.084 840.602 269.363 838.606 272 835.899C274.6 833.269 277 829.689 277.49 825.969C277.683 825.01 277.633 824.018 277.345 823.084C277.057 822.149 276.54 821.302 275.84 820.619C275.221 820.042 274.453 819.649 273.622 819.485C272.792 819.321 271.932 819.391 271.14 819.689C269.23 820.529 268.67 822.689 268.27 824.519C266.601 832.185 267.933 840.199 271.992 846.914C276.05 853.628 282.527 858.532 290.09 860.619C290.469 860.712 290.869 860.653 291.206 860.456C291.542 860.259 291.789 859.938 291.893 859.562C291.997 859.186 291.95 858.784 291.763 858.442C291.576 858.1 291.263 857.844 290.89 857.729C284.229 855.9 278.494 851.645 274.813 845.801C271.132 839.956 269.772 832.946 271 826.149C271.18 825.149 271.38 822.419 272.7 822.369C274.24 822.309 274.7 824.179 274.57 825.369C274.26 828.429 272.09 831.519 270.01 833.669C267.891 835.899 265.274 837.596 262.373 838.62C259.472 839.644 256.369 839.965 253.32 839.559C249.893 838.982 246.677 837.519 243.99 835.316C241.303 833.113 239.238 830.246 238 826.999C237.35 825.199 234.45 825.999 235.11 827.799L235.1 827.829Z" class="colorFBB464 svgShape"/><path fill="#ab8e65" d="M928.45 609.847C937.467 618.541 943.332 629.99 945.12 642.387C946.045 648.481 945.875 654.692 944.62 660.727C943.52 665.727 941.08 672.037 935.77 673.947C932.06 675.277 926.12 673.767 925.11 669.447C923.95 664.447 929.99 661.747 934.05 662.137C939.98 662.697 943.89 668.807 946.48 673.517C949.899 679.736 952.812 686.22 955.19 692.907C960.736 708.131 963.283 724.285 962.69 740.477C962.6 742.407 965.6 742.397 965.69 740.477C966.28 724.545 963.879 708.644 958.61 693.597C956.054 686.137 952.863 678.91 949.07 671.997C946.07 666.507 941.58 660.177 934.86 659.237C929.74 658.517 923.22 661.237 922.15 666.747C921.08 672.257 926 676.587 931.15 677.297C937.38 678.147 942.41 673.937 945.05 668.597C947.98 662.677 948.75 655.657 948.62 649.127C948.312 635.22 943.15 621.859 934.03 611.357C932.917 610.097 931.75 608.887 930.53 607.727C929.13 606.397 927.01 608.517 928.41 609.847H928.45Z" class="color8665AB svgShape"/><path fill="#fbbc64" d="M536.38 560.869C539.768 571.988 539.526 583.896 535.69 594.869C532.059 604.839 524.997 613.19 515.77 618.429C510.803 621.25 505.282 622.956 499.59 623.429C497.67 623.579 497.66 626.579 499.59 626.429C510.568 625.439 520.795 620.432 528.31 612.369C536.5 603.729 540.94 592.259 541.66 580.449C542.059 573.545 541.25 566.624 539.27 559.999C538.73 558.149 535.83 558.939 536.38 560.799V560.869Z" class="colorFBB464 svgShape"/><path fill="#fbbc64" d="M515.3 631.363C509.356 629.402 503.619 626.863 498.17 623.783L498.47 626.133L510.24 612.633C511.5 611.183 509.39 609.053 508.12 610.513L496.35 624.003C496.19 624.167 496.07 624.365 495.997 624.582C495.925 624.799 495.902 625.029 495.931 625.256C495.96 625.483 496.039 625.7 496.164 625.892C496.288 626.084 496.454 626.245 496.65 626.363C502.334 629.564 508.316 632.207 514.51 634.253C516.34 634.853 517.13 631.963 515.3 631.353V631.363Z" class="colorFBB464 svgShape"/><path fill="#ab8e65" d="M486.51 614.411C483.595 603.264 484.274 591.481 488.45 580.742C492.431 570.832 499.827 562.673 509.3 557.742C514.419 555.081 520.057 553.573 525.82 553.322C527.75 553.252 527.75 550.252 525.82 550.322C514.717 550.907 504.226 555.593 496.38 563.471C487.92 571.821 483.15 583.121 482 594.861C481.368 601.68 481.912 608.557 483.61 615.192C484.09 617.062 486.98 616.272 486.51 614.392V614.411Z" class="color8665AB svgShape"/><path fill="#ab8e65" d="M510.42 544.881C516.282 547.085 521.915 549.855 527.24 553.151L526.94 550.801L514.64 563.801C513.32 565.211 515.44 567.331 516.76 565.931L529.06 552.931C529.217 552.766 529.336 552.567 529.406 552.35C529.477 552.133 529.498 551.903 529.469 551.677C529.439 551.451 529.359 551.234 529.235 551.043C529.11 550.851 528.945 550.69 528.75 550.571C523.202 547.147 517.33 544.276 511.22 542.001C509.41 541.321 508.63 544.221 510.42 544.891V544.881Z" class="color8665AB svgShape"/></svg>