<svg xmlns="http://www.w3.org/2000/svg" enable-background="new 0 0 1364 960" viewBox="0 0 1364 960"><path fill="#ff9400" d="M254.318 886.831c-2.683.749-5.757-.536-7.693-2.779-1.936-2.243-2.827-5.29-2.9-8.228-.073-2.941.609-5.803 1.474-8.548 1.434-4.544 3.49-9 6.673-12.313-6.835-.07-13.648.414-20.365 1.441-.61.093-1.219.199-1.828.302 1.301 4.98 2.604 9.961 3.905 14.941.868 3.324 1.745 6.746 1.379 10.1-.366 3.355-2.279 6.669-5.382 7.536-2.683.749-5.757-.536-7.693-2.779-1.936-2.243-2.827-5.29-2.9-8.229-.071-2.938.609-5.801 1.475-8.548 1.478-4.685 3.618-9.281 6.975-12.623-7.404 1.381-14.661 3.415-21.672 6.081 1.137 5.088 2.272 10.178 3.407 15.266.747 3.348 1.5 6.797 1.009 10.127-.491 3.331-2.527 6.56-5.666 7.299-2.715.638-5.746-.765-7.602-3.08-1.856-2.314-2.637-5.388-2.601-8.323.036-2.934.823-5.761 1.791-8.464 1.551-4.329 3.679-8.554 6.813-11.701-5.021 2.053-9.909 4.425-14.618 7.122-1.395.799-2.766 1.634-4.127 2.49 1.005 5.264 2.01 10.528 3.015 15.791.643 3.367 1.288 6.832.691 10.138-.596 3.306-2.737 6.458-5.904 7.087-2.737.544-5.727-.961-7.512-3.333-1.787-2.373-2.471-5.467-2.342-8.393.129-2.926 1.005-5.719 2.061-8.383 1.507-3.806 3.474-7.511 6.181-10.421-4.504 3.074-8.801 6.461-12.86 10.141-1.456 4.866-2.914 9.732-4.37 14.598-.956 3.193-1.957 6.472-4.005 8.997-2.05 2.527-5.427 4.153-8.582 3.115-2.727-.897-4.747-3.668-5.279-6.581-.533-2.912.261-5.894 1.714-8.328 1.452-2.435 3.522-4.383 5.694-6.133 4.001-3.225 8.62-5.932 13.714-6.532.014-.014.022-.027.036-.04 4.312-3.925 8.897-7.518 13.708-10.762-4.044.912-8.417.625-12.612-.149-2.797-.516-5.609-1.253-8.135-2.7-2.524-1.448-4.758-3.677-5.801-6.465-1.042-2.786-.713-6.141 1.2-8.19 2.213-2.369 5.997-2.52 9.091-1.27 3.093 1.249 5.66 3.643 8.144 5.982 3.783 3.564 7.567 7.127 11.35 10.691 6.01-3.781 12.341-7.031 18.911-9.721-4.407-.047-8.875-1.503-13.02-3.428-2.624-1.218-5.21-2.652-7.346-4.689-2.135-2.036-3.797-4.745-4.156-7.678-.361-2.933.761-6.052 3.128-7.512 2.738-1.689 6.492-.853 9.232 1.143 2.74 1.996 4.691 4.948 6.573 7.828 2.866 4.383 5.731 8.766 8.598 13.149.208-.078.416-.163.625-.241 6.865-2.561 13.957-4.523 21.183-5.874-4.925-.709-9.614-3.295-13.787-6.361-2.363-1.736-4.645-3.671-6.363-6.095-1.718-2.426-2.838-5.401-2.624-8.316.214-2.916 1.93-5.7 4.558-6.613 3.04-1.057 6.594.549 8.919 3.06 2.325 2.513 3.683 5.785 4.988 8.971 2.05 5.006 4.1 10.013 6.151 15.021.1-.018.202-.033.303-.051l.052-.138c.011.042.022.084.033.125 7.059-1.191 14.235-1.795 21.453-1.785-3.924-2.393-7.231-5.982-10.026-9.794-1.789-2.442-3.44-5.046-4.386-7.925-.945-2.881-1.131-6.081-.025-8.778 1.106-2.697 3.65-4.762 6.517-4.745 3.314.018 6.317 2.737 7.832 5.903 1.515 3.167 1.846 6.729 2.15 10.194.43 4.92.862 9.839 1.294 14.759.038.147.077.292.115.439 7.958.23 15.927 1.214 23.79 2.967.831.184.784 1.56-.056 1.372-7.732-1.722-15.558-2.698-23.371-2.948 1.234 4.725 2.469 9.45 3.705 14.175.868 3.324 1.745 6.746 1.379 10.1C259.332 882.65 257.421 885.966 254.318 886.831zM726.934 560.153c-1.168-2.726.801-6.003 3.531-7.145s5.881-.636 8.7.296c4.56 1.507 8.388 3.85 12.281 6.474-2.338-3.792-4.537-7.67-6.607-11.601-1.368-2.601-2.682-5.234-3.938-7.895-6.148 2.585-13.076 3.289-19.617 1.973-2.479-.498-5.187-1.525-6.177-3.852-1.156-2.718.813-5.996 3.535-7.144 2.723-1.148 5.859-.65 8.664.273 4.711 1.551 8.634 4.002 12.657 6.734-3.776-8.245-6.976-16.759-9.411-25.488-6.399 1.496-13.24 1.075-19.396-1.226-2.368-.886-4.88-2.329-5.489-4.784-.71-2.866 1.755-5.792 4.623-6.492 2.87-.701 5.888.288 8.512 1.644 4.252 2.198 7.645 5.109 11.058 8.306-2.423-9.241-4.089-19.048-2.943-28.561.023-.199.056-.395.082-.594-6.616.618-13.412-.773-19.242-3.965-2.217-1.213-4.497-3.001-4.748-5.517-.293-2.938 2.563-5.482 5.502-5.766 2.94-.284 5.785 1.126 8.188 2.842 4.235 3.025 7.346 6.739 10.526 10.762 1.623-10.951 5.275-21.651 6.518-32.642-6.723.699-13.651-.682-19.581-3.928-2.217-1.214-4.497-3.001-4.75-5.517-.293-2.938 2.564-5.482 5.504-5.766 2.94-.284 5.785 1.124 8.188 2.842 4.349 3.106 7.512 6.939 10.782 11.087.262-2.752.365-5.523.233-8.323-.267-5.668-1.747-11.225-4.113-16.436-6.425 2.554-13.65 3.066-20.368 1.419-2.454-.602-5.118-1.743-6.01-4.108-1.041-2.764 1.065-5.958 3.832-6.99 2.768-1.031 5.881-.402 8.645.638 5.07 1.907 9.155 4.848 13.445 8.065-3.994-8.328-10.252-15.708-17.461-21.137-6.07 1.59-12.588 1.455-18.577-.425-2.412-.757-4.998-2.064-5.737-4.481-.862-2.826 1.442-5.878 4.27-6.732 2.827-.853 5.894-.027 8.587 1.186 4.294 1.937 7.796 4.607 11.32 7.562.169.027.341.092.511.214 6.24 4.483 11.528 10.235 15.672 16.695.915 1.425 1.781 2.889 2.591 4.385-.666-6.067.336-12.317 2.912-17.853 1.065-2.291 2.701-4.684 5.195-5.099 2.914-.485 5.637 2.199 6.112 5.114.476 2.915-.745 5.846-2.299 8.357-2.903 4.684-6.658 8.159-10.725 11.812 1.563 3.214 2.824 6.569 3.591 10.053 1.159 5.278 1.256 10.558.771 15.819 2.142-5.921 5.971-11.228 10.942-15.096 1.995-1.553 4.541-2.936 6.949-2.166 2.813.898 4.013 4.529 3.106 7.341-.906 2.811-3.331 4.862-5.862 6.385-4.848 2.919-9.917 4.296-15.368 5.731-1.052 8.652-3.511 17.245-5.269 25.688-.553 2.657-1.027 5.31-1.356 7.976 1.998-6.539 6.038-12.44 11.43-16.647 1.994-1.555 4.537-2.941 6.947-2.176 2.815.895 4.019 4.525 3.115 7.337s-3.325 4.867-5.853 6.393c-4.955 2.993-10.144 4.371-15.732 5.849-.319 2.845-.458 5.707-.317 8.605.259 5.303 1.12 10.57 2.297 15.742.313 1.375.651 2.746 1.009 4.111 1.238-6.074 4.182-11.8 8.431-16.318 1.732-1.841 4.035-3.599 6.532-3.211 2.919.454 4.663 3.858 4.2 6.775-.464 2.918-2.542 5.319-4.809 7.214-4.186 3.502-8.794 5.616-13.748 7.787 2.382 8.527 5.571 16.845 9.271 24.888-.304-6.463 1.29-13.012 4.569-18.592 1.281-2.179 3.137-4.404 5.659-4.579 2.947-.204 5.402 2.728 5.597 5.675.196 2.948-1.298 5.749-3.088 8.099-3.396 4.46-7.549 7.593-12.034 10.903.499 1.063 1.004 2.122 1.519 3.174 2.83 5.775 5.933 11.445 9.34 16.921-.2-6.299 1.397-12.651 4.592-18.088 1.281-2.18 3.136-4.404 5.659-4.58 2.947-.204 5.402 2.727 5.597 5.675.195 2.946-1.3 5.749-3.089 8.099-3.302 4.338-7.322 7.419-11.664 10.63 3.958 6.198 8.319 12.134 13.137 17.678 1.004 1.154-.857 2.631-1.858 1.479-4.866-5.598-9.256-11.602-13.248-17.863-6.18 2.59-13.155 3.287-19.743 1.948C730.655 563.522 727.933 562.487 726.934 560.153z" class="colorDBE1FF svgShape"/><path fill="#ff9400" d="M917.814 625.852c-17.532 4.917-41.949-.828-51.372-11.742-6.213-7.165 45.28 16.828 54.783 5.624 9.479-11.176 15.026-36.379 15.026-36.379-12 11.305-65.822 12.454-71.57-.007-5.823-12.625 67.103 5.871 71.524-6.243 4.475-12.118 7.205-48.697 7.205-48.697-12.773 19.604-49.401 30.694-54.807 26.068-8.96-7.669 51.135-15.867 53.352-30.754 2.217-14.886-3.132-37.92-3.132-37.92s-21.745 32.083-36.25 31.503c-14.501-.526 32.103-20.52 33.746-33.998 1.501-12.448-5.059-31.588-5.542-32.36-2.401 11.061-30.436 46.493-40.23 46.902-15.919.699 36.827-24.715 29.161-56.79-5.083-21.091-5.726-30.385-5.439-42.535-13.719 12.658-32.02 23.659-45.088 31.377-24.782 14.637 8.737 77.117-3.917 66.102-12.444-10.835-20.638-52.138-8.132-60.276 0 0-26.799 9.85-31.84 21.927-3.225 7.685 30.682 52.866 21.786 57.721-8.921 4.884-38.53-39.468-27.499-49.141 0 0-33.398 17.26-24.708 34.263 8.666 17.031 49.533 50.952 41.319 53.641-8.242 2.664-57.109-46.807-47.932-61.96 0 0-23.432 24.379-13.436 39.708 9.997 15.331 43.348 24.536 39.643 28.791-3.679 4.226-24.359 1.261-43.654-25.194 0 0-15.074 21.706-10.166 39.172 7.194 25.604 40.632 41.461 63.254 35.903-.522 18.823 38.463 43.928 70.348 44.378C907.761 655.102 917.814 625.852 917.814 625.852zM878.905 454.429c-2.428.596-5.266-2.427-6.347-6.78-1.078-4.353.011-8.373 2.439-8.971 2.427-.598 5.267 2.427 6.346 6.78C882.423 449.811 881.331 453.831 878.905 454.429zM843.083 466.917c-1.455.691-3.417-.516-4.452-2.671-1.034-2.157-.684-4.462.746-5.124 1.455-.691 3.418.516 4.452 2.671C844.838 463.977 844.513 466.253 843.083 466.917zM785.455 581.201c-5.585-5.465-7.622-12.409-4.563-15.518 3.06-3.11 10.034-1.204 15.59 4.235 5.56 5.493 7.622 12.409 4.563 15.518C797.985 588.546 791.009 586.64 785.455 581.201zM839.891 542.2c-2.893-3.424-3.66-7.504-1.732-9.14 1.929-1.582 5.815-.107 8.683 3.344 2.87 3.453 3.635 7.532 1.704 9.115C846.645 547.126 842.759 545.649 839.891 542.2zM899.687 529.85c.053-1.559 2.251-2.759 4.837-2.615 2.612.114 4.663 1.448 4.585 3.037-.049 1.614-2.223 2.783-4.835 2.669C901.664 532.827 899.609 531.439 899.687 529.85zM867.6 639.764c-5.955-2.674-9.54-7.552-8.052-10.874 1.488-3.323 7.516-3.849 13.471-1.174 5.93 2.702 9.54 7.552 8.053 10.874C879.583 641.914 873.553 642.438 867.6 639.764zM329.599 690.859c.016 18.208-12.088 40.178-25.135 46.317-8.572 4.053 28.393-39.08 20.161-51.248-8.212-12.137-30.992-24.263-30.992-24.263 7.658 14.601-5.722 66.745-19.27 68.926-13.726 2.212 23.715-63.046 13.238-70.565-10.464-7.571-44.96-20.044-44.96-20.044 15.443 17.578 16.266 55.839 10.356 59.799-9.798 6.566-1.521-53.518-15.261-59.66-13.74-6.143-37.363-7.19-37.363-7.19s25.046 29.578 20.583 43.391c-4.41 13.825-11.123-36.44-23.661-41.651-11.585-4.796-31.784-3.629-32.657-3.372 10.008 5.29 36.586 41.826 34.344 51.369-3.611 15.52-13.891-42.121-46.847-43.37-21.68-.782-30.804-2.664-42.429-6.21 8.499 16.621 14.169 37.207 18.085 51.87 7.426 27.806 76.622 12.341 62.608 21.564-13.784 9.069-55.769 5.844-60.24-8.391 0 0 2.275 28.462 12.549 36.568 6.532 5.175 59.172-15.321 61.455-5.448 2.304 9.906-48.381 26.486-54.728 13.259 0 0 7.632 36.81 26.347 33.018 18.735-3.762 62.404-33.992 62.782-25.358.348 8.655-60.45 42.405-72.573 29.487 0 0 17.172 29.129 34.626 23.627 17.454-5.502 35.297-35.144 38.398-30.432 3.079 4.681-5.34 23.801-36.014 35.263 0 0 16.848 20.36 34.991 20.334 26.596-.038 50.866-27.974 51.602-51.258 17.986 5.57 52.658-25.22 61.674-55.809C355.065 708.414 329.599 690.859 329.599 690.859zM154.03 682.195c-.078 2.5-3.755 4.42-8.239 4.289-4.482-.134-8.061-2.265-7.983-4.765.078-2.498 3.754-4.419 8.238-4.286C150.529 677.565 154.108 679.697 154.03 682.195zM156.416 720.056c.274 1.588-1.415 3.152-3.77 3.569-2.356.417-4.481-.542-4.734-2.096-.273-1.588 1.416-3.154 3.771-3.569C154.057 717.574 156.162 718.501 156.416 720.056zM250.972 806.317c-6.765 3.909-14.001 4.001-16.172.218-2.172-3.783 1.54-9.987 8.273-13.874 6.787-3.876 14.002-4.001 16.174-.218C261.419 796.226 257.706 802.432 250.972 806.317zM228.061 743.392c-4.075 1.865-8.21 1.505-9.267-.791-1.005-2.284 1.462-5.63 5.557-7.464 4.097-1.833 8.232-1.472 9.237.812C234.624 738.214 232.156 741.559 228.061 743.392zM232.262 682.479c-1.488-.47-2.051-2.911-1.217-5.362.813-2.484 2.65-4.101 4.16-3.598 1.54.481 2.083 2.89 1.27 5.373C235.66 681.377 233.772 682.982 232.262 682.479zM329.484 742.966c-4.178 5.014-9.841 7.155-12.64 4.828-2.801-2.327-1.682-8.275 2.496-13.29 4.198-4.984 9.84-7.156 12.64-4.828C334.781 732.003 333.662 737.95 329.484 742.966z" class="colorDBE1FF svgShape"/><path fill="#dec9b3" d="M719.794,498.285l-146.689,0.274c-16.585,0.03-30.007,13.501-29.976,30.088l0.117,62.475   c0.032,16.586,13.501,30.007,30.088,29.976l146.689-0.274c16.586-0.03,30.007-13.501,29.977-30.088l-0.117-62.475   C749.852,511.674,736.381,498.254,719.794,498.285z M728.841,590.776c0.008,4.892-3.964,8.881-8.856,8.889l-146.689,0.274   c-4.894,0.01-8.881-3.964-8.89-8.856l-0.117-62.475c-0.01-4.892,3.964-8.881,8.856-8.889l146.689-0.274   c4.894-0.01,8.881,3.964,8.89,8.856L728.841,590.776z" class="colorB3C1DE svgShape"/><path fill="#96305e" d="M699.103 524.099l-100.454.188c-7.917.015-14.346-6.391-14.36-14.306l0 0c-.015-7.917 6.389-14.346 14.306-14.36l100.454-.188c7.917-.015 14.346 6.391 14.361 14.306l0 0C713.424 517.656 707.019 524.086 699.103 524.099zM567.657 564.306c.015 7.918-6.392 14.349-14.309 14.362-7.917.015-14.347-6.391-14.362-14.308-.014-7.918 6.392-14.349 14.309-14.363C561.212 549.983 567.642 556.389 567.657 564.306zM753.513 563.959c.014 7.918-6.392 14.347-14.309 14.362-7.918.015-14.347-6.391-14.363-14.309-.015-7.917 6.391-14.347 14.309-14.362C747.067 549.636 753.498 556.042 753.513 563.959z" class="color305096 svgShape"/><path fill="#fabb78" d="M881.41,589.535l0.559,299.202c0.019,10.776-8.692,19.526-19.466,19.547l-429.287,0.802   c-10.776,0.019-19.526-8.698-19.545-19.474l-0.559-299.202c-0.021-10.774,8.698-19.518,19.473-19.538l429.287-0.802   C872.646,570.05,881.389,578.76,881.41,589.535z" class="color78A0FA svgShape"/><path fill="#ebaa63" d="M881.477,625.328l0.492,263.409c0.019,10.776-8.692,19.526-19.466,19.547l-79.987,0.149   c125.438-0.234,85.905-156.877,77.574-178.97c-8.331-22.085-83.215,34.223-94.595,40.303c-9.938,5.308-40.522,0.997-53.593,5.39   c-13.756,4.623-8.947,42.435-14.086,52.207c-6.167,11.726-88.256,9.421-97.862,4.05c-14.649-8.19-0.244-38.918-15.241-56.02   c-6.976-7.957-36.73-4.504-51.128-6.162c-10.371-1.193-98.404-52.004-120.266-67.625l-0.104-56.198l186.405,8.619L881.477,625.328z   " class="color638CEB svgShape"/><path fill="#fac58c" d="M887.094,591.808l0.149,80.248c0.014,6.861-3.762,13.17-9.814,16.4l-122.991,65.648   c-2.678,1.429-5.666,2.179-8.7,2.186l-196.401,0.366c-3.033,0.005-6.022-0.732-8.704-2.15L417.47,689.403   c-6.067-3.207-9.869-9.502-9.882-16.366l-0.15-80.333c-0.023-12.034,9.714-21.808,21.747-21.83l436.078-0.814   C877.298,570.037,887.071,579.775,887.094,591.808z" class="color8CAEFA svgShape"/><path fill="#ffffff" d="M658.937,822.069l-24.413,0.045c-18.429,0.034-33.396-14.878-33.431-33.307l-0.056-29.755l91.151-0.17   l0.056,29.755C692.279,807.066,677.366,822.034,658.937,822.069z" class="colorFFF svgShape"/><path fill="#96305e" d="M688.034 775.2l-82.78.155c-8.469.016-15.348-6.836-15.363-15.306l-.015-7.887c-.017-8.469 6.838-15.348 15.306-15.364l82.78-.155c8.469-.015 15.348 6.838 15.365 15.307l.014 7.885C703.356 768.306 696.503 775.185 688.034 775.2zM671.757 809.911l-50.326.093c-3.334.007-6.042-2.692-6.049-6.025l-.005-3.104c-.005-3.334 2.692-6.042 6.026-6.049l50.326-.093c3.335-.007 6.043 2.691 6.048 6.026l.005 3.104C677.789 807.196 675.09 809.904 671.757 809.911zM1011.053 532.323c1.12-4.438 2.993-8.65 4.288-13.041 2.907-9.854 2.824-20.316 4.541-30.444 1.715-10.128 5.794-20.652 14.437-26.205l-6.454-15.193c-6.701-5.469-6.07-16.994.225-22.925 6.293-5.933 16.408-6.513 24.28-2.927 3.55 1.617 6.862 4.108 8.589 7.607 1.22 2.475 1.574 5.286 2.572 7.859 1.943 5.005 6.128 8.72 9.823 12.614 3.694 3.894 7.187 8.618 7.119 13.984-.047 3.632-1.821 8.653-2.201 12.265-.965 9.158 8.493 11.136 15.107 17.543 6.613 6.409 11.565 18.669 9.868 27.72-.76 4.056-3.21 7.551-5.173 11.182-2.164 3.998-3.781 8.292-4.799 12.724-1.244 5.424-1.603 11.096-3.724 16.242-2.12 5.144-6.641 9.86-12.204 9.98-7.078.155-12.33-6.821-19.237-8.382-7.998-1.807-15.729 3.971-23.906 4.588-8.176.616-16.215-4.319-20.389-11.378C1009.642 549.08 1009.046 540.273 1011.053 532.323z" class="color305096 svgShape"/><path fill="#b02463" d="M1071.524,611.138c-10.905-28.698-13.23-44.515-1.2-69.701c16.074-33.624-3.089-54.379-3.089-54.379   l-17.786-7.485l-15.066,0.027c-17.76,6.451-40.02,12.091-25.396,61.164c9.433,31.656-2.52,47.941-14.401,70.515L1071.524,611.138z" class="color3E3279 svgShape"/><path fill="#ffffff" d="M1071.527,612.412c-10.906-28.976-13.231-44.945-1.201-70.376c16.072-33.949-3.09-54.907-3.09-54.907   l-17.786-7.556c-4.725,7.713-9.665,9.838-15.066,0.027c-21.128,5.073-38.915,13.952-25.395,61.755   c9.07,32.07-2.52,48.406-14.399,71.2L1071.527,612.412z" class="colorFFF svgShape"/><path fill="#f9e3cb" d="M1016.177,752.598c0.004,2.358,0.008,4.53,0.044,6.48c0.075,7.015,1.66,13.867,4.597,20.247   c6.222,13.357,17.76,43.816,25.791,99.161c0,0,15.768,5.098,16.796-0.189c12.868-65.356,1.416-83.451-7.164-113.318   c0.086-4.278,0.488-8.431,1.078-12.458c6.304-43.262,36.913-75.057,14.205-141.383c-0.095-0.314-0.189-0.661-0.315-0.975   l-15.348,0.565l-27.524,0.051c-0.03,0.156-0.062,0.283-0.093,0.44c-7.796,36.218-10.676,77.965-11.622,109.673v0.03   C1016.235,733.316,1016.162,744.168,1016.177,752.598z" class="colorF9CBCB svgShape"/><path fill="#f9e3cb" d="M980.082,878.61c9.089-50.973,8.086-66.29,0.145-106.788c4.8-6.898,9.476-13.197,13.994-19.182   c8.253-10.931,15.909-20.884,22.4-31.747c14.581-24.499,23.208-53.737,19.359-109.688c0-0.156,0-0.282-0.032-0.439l-0.001-0.158   l-41.047-0.302c-0.221,0.315-0.472,0.629-0.691,0.976c-33.255,46.521-44.095,103.064-49.497,141.45   c-0.869,6.167-1.581,11.86-2.232,16.99c-0.34,2.831-0.178,5.724,0.52,8.491c8.84,34.207,20.098,67.244,20.066,100.429   L980.082,878.61z" class="colorF9CBCB svgShape"/><path fill="#96305e" d="M1065.812,688.694c-1.09,12.037-13.353,44.025-24.627,65.969c-39.673,9.162-56.593-8.39-96.478-1.929   c5.402-38.641,16.244-95.586,49.497-142.425l34.61-0.066c-0.716,16.017-0.037,29.164,2.597,36.846   C1039.101,669.468,1069.008,653.684,1065.812,688.694z" class="color305096 svgShape"/><path fill="#872652" d="M1057.315,752.524c-5.786,1.203-11.154,1.88-16.13,2.139c11.273-21.943,23.537-53.932,24.627-65.969   c3.196-35.01-26.711-19.226-34.4-41.605c-2.634-7.682-3.313-20.829-2.597-36.846l42.705-0.079   C1094.234,676.96,1063.623,708.944,1057.315,752.524z" class="color264487 svgShape"/><path fill="#f0e4d8" d="M1071.52,610.163l-42.705,0.079c1.737-38.084,11.391-92.318,21.488-127.34L1071.52,610.163z" class="colorD8DAF0 svgShape"/><path fill="#f9e3cb" d="M931.288 504.077c0 0 .665 2.358 1.867 6.162 4.936 15.749 19.167 56.582 34.906 62.466 11.929 4.444 42.121-31.596 42.302-35.653l4.689-49.676c-17.232 19.66-32.829 39.222-41.852 58.144-6.696-15.18-19.393-26.323-26.938-40.275-.978-1.728-1.83-3.52-2.589-5.342 0 0 .993-14.439-2.347-17.956-2.963-3.11-2.136 8.434-3.366 7.209-1.355-1.351-10.447-16.491-14.149-11.106C915.593 490.049 931.288 504.077 931.288 504.077zM1034.044 466.737l.169 6.636.17 6.228c-.293 11.294 14.017 10.952 15.066-.027l-2.696-12.23-1.364-6.1-.476-2.138-3.99 2.807L1034.044 466.737z" class="colorF9CBCB svgShape"/><path fill="#fab264" d="M1039.625 642.243c.86 5.786 5.493 10.275 11.281 11.083 5.254.745 10.538.924 15.886.536 5.377-.325 10.755-1.216 16.256-2.641-16.422-52.436-6.435-76.988-5.738-108.413v-.095c.317-15.476-1.603-32.648-10.075-55.655l-17.786-7.485C1050.76 540.97 1030.198 580.075 1039.625 642.243zM933.156 510.239c4.936 15.749 19.167 56.582 34.906 62.466 3.462 1.285 8.428-.801 13.769-4.585 5.654-3.943 11.745-9.742 16.799-15.287 6.686-7.311 11.643-14.146 11.734-15.782l6.477-51.567c-18.628 13.026-31.914 40.007-43.64 60.034-6.696-15.18-19.393-26.323-26.938-40.275L933.156 510.239z" class="color6492FA svgShape"/><path fill="#fab264" d="M1034.383,479.601c0,0-16.735-1.172-27.313,16.059c-16.529,26.926-2.31,46.763-12.525,93.305   c-3.673,16.734-13.724,34.02-24.98,60.401c10.938,3.011,21.876,5.979,33.014,4.382c5.383-0.772,9.772-4.756,11.043-10.045   C1028.621,581.261,1017.617,545.487,1034.383,479.601z" class="color6492FA svgShape"/><path fill="#eb4b93" d="M1055.882,526.447c22.863,40.371-8.074,84.297,10.91,127.416c5.377-0.325,10.755-1.216,16.256-2.641   c-16.422-52.436-6.435-76.988-5.738-108.413v-0.095L1055.882,526.447z" class="color4B7BEB svgShape"/><path fill="#f9e3cb" d="M1072.053,608.307c-1.505,2.079-1.342,4.909-0.112,7.139c1.83,3.3,4.23,7.951,4.234,9.712   c0.005,2.831-3.662,9.946-2.62,12.021c4.83,9.649,21.124-7.148,13.006-25.314c0,0,4.932-3.658,11.527-9.3   c13.001-11.128,32.498-29.879,33.387-43.093c1.53-22.995-64.24-72.413-64.24-72.413l4.021,48.15   c13.329,12.115,19.218,16.1,36.442,26.195c-9.863,7.662-17.297,18.528-24.071,29.109   C1079.675,596.78,1075.913,602.953,1072.053,608.307z" class="colorF9CBCB svgShape"/><path fill="#fab264" d="M1069.268,535.942c13.329,12.117,21.206,15.366,38.43,25.462c-9.863,7.662-17.297,18.528-24.071,29.109   l14.461,12.052c13.001-11.128,32.498-29.879,33.387-43.093c1.53-22.995-64.24-72.413-64.24-72.413L1069.268,535.942z" class="color6492FA svgShape"/><path fill="#eb4b93" d="M981.831,568.119c5.654-3.943,11.745-9.742,16.799-15.287c0,0,0.476-14.723,1.017-27.777   C986.499,533.345,995.579,552.79,981.831,568.119z" class="color4B7BEB svgShape"/><path fill="#96305e" d="M980.469 876.434l3.463 11.254-2.124 17.508-3.465.175-3.189-15.318-5.578 10.186c-1.501 2.742-3.758 4.988-6.858 5.395-8.176 1.075-24.155 1.381-24.827-3.984-.691-5.513 14.799-5.778 19.311-11.849 4.37-5.879 5.842-13.774 5.842-13.774L980.469 876.434zM1063.035 876.28l3.465 11.254-2.123 17.508-3.466.176-3.189-15.318-5.576 10.185c-1.501 2.742-3.76 4.988-6.858 5.397-8.176 1.075-24.156 1.379-24.828-3.984-.691-5.515 14.798-5.778 19.311-11.851 4.371-5.879 5.842-13.774 5.842-13.774L1063.035 876.28z" class="color305096 svgShape"/><path fill="#aa7842" d="M1034.044,466.737l0.169,6.636c1.825,0.185,4.373-0.008,7.547-1.272c2.767-1.105,4.242-2.901,4.994-4.758   l-1.364-6.1l-4.466,0.669L1034.044,466.737z" class="colorF0B4B4 svgShape"/><path fill="#f9e3cb" d="M1029.307,435.525c0,0,6.458,12.233,16.821,12.998c0,0,7.81-2.441,8.948-0.174   c2.52,5.02-5.792,9.431-5.792,9.431c-1.346,6.259-10.999,14.441-17.715,12.277C1019.466,466.16,1029.307,435.525,1029.307,435.525z   " class="colorF9CBCB svgShape"/><path fill="#ad4272" d="M935.404,48.008h-0.273c-0.082,0-0.137,0-0.137,0c-83.372,0.211-159.7,24.115-218.854,63.656   c-59.153,39.527-90.028,92.767-115.794,154.091l0,0c8.622-17.674,103.846-14.51,112.547,3.132h0.027   c8.622-17.674,102.561-18.15,111.467-0.835c0,0,0-0.014,0.014-0.041c0-0.014,0-0.014,0-0.014   c8.868-17.32,102.029-17.604,111.003-0.425l0.765-0.001l0.001,0.354c0.067-0.123,0.122-0.232,0.191-0.355   c8.896-17.21,101.674-17.493,110.756-0.465c0.014-0.027,0.041-0.069,0.055-0.096c7.589-14.306,74.88-16.34,101.218-6.156   c4.884,1.884,8.375,4.194,9.802,6.93c0.027,0.041,0.041,0.082,0.055,0.123c0.055,0.108,0.082,0.149,0.082,0.149h0.027   c1.198-2.442,4.024-4.545,8.04-6.324c25.054-11.055,97.012-9.086,104.492,6.118l0,0C1223.75,157.703,1102.204,47.75,935.404,48.008   z" class="color4263AD svgShape"/><path fill="#dec9b3" d="M939.316,204.058l0.25,265.301l0.001,0.668l0.003,8.515l0.016,9.143l-0.004,4.81l0.016,9.129l0.025,34.702   c0.012,6.935-2.782,13.234-7.325,17.794c-4.623,4.64-11.076,7.486-18.176,7.39c-13.815-0.192-24.75-11.834-24.776-25.649   l-0.007-3.298c-0.005-3.351,2.701-6.081,6.066-6.088c1.675-0.003,3.189,0.676,4.296,1.777c1.091,1.089,1.776,2.612,1.778,4.289   l0.007,3.487c0.012,6.758,5.051,12.676,11.783,13.29c7.726,0.694,14.227-5.409,14.213-12.971l-0.019-9.932l-0.018-24.769   l-0.018-9.129l0.005-4.809l-0.018-9.143l-0.003-8.516l-0.001-0.668l-0.214-253.146l-0.022-12.154L939.316,204.058z" class="colorB3C1DE svgShape"/><path fill="#96305e" d="M939.567,470.026l0.003,8.515l0.016,9.143l-0.004,4.81l0.016,9.129l0.025,34.702   c0.012,6.935-2.782,13.234-7.325,17.794c-4.623,4.64-11.076,7.486-18.176,7.39c-13.815-0.192-24.75-11.834-24.776-25.649   l-0.007-3.298c-0.005-3.351,2.701-6.081,6.066-6.088c1.675-0.003,3.189,0.676,4.296,1.777c1.091,1.089,1.776,2.612,1.778,4.289   l0.007,3.487c0.012,6.758,5.051,12.676,11.783,13.29c7.726,0.694,14.227-5.409,14.213-12.971l-0.019-9.932l-0.018-24.769   l-0.018-9.129l0.005-4.809l-0.018-9.143l-0.003-8.516L939.567,470.026z" class="color305096 svgShape"/><path fill="#fabb78" d="M933.781,44.862c-165.117,0.706-302.482,95.478-333.435,220.892c10.02-26.132,43.541-45.377,83.394-45.453   c40.205-0.074,74.045,19.395,83.822,45.849c0,0,0.014-0.029,0.027-0.086C769.325,261.022,843.424,46.72,933.781,44.862z" class="color78A0FA svgShape"/><path fill="#ebaa63" d="M1271,267.848h-0.381c-8.431-27.797-43.172-48.565-84.713-48.487c-40.207,0.075-73.973,19.67-83.652,46.161   c0,0-0.014-0.029-0.027-0.088c-0.014-0.038-0.027-0.088-0.055-0.155c-0.424-1.242-2.465-7.131-5.929-16.239   c-19.443-50.998-83.708-202.911-160.295-204.185c41.501,0.019,81.255,5.993,118.048,16.913   C1164.867,94.675,1248.641,172.521,1271,267.848z" class="color638CEB svgShape"/><path fill="#ebaa63" d="M1102.13,265.154c-18.95-60.797-148.506-60.538-167.215,0.326c-18.85-60.716-148.133-60.58-167.134,0.044   C866.153-24.408,1001.014-32.824,1102.13,265.154z" class="color638CEB svgShape"/><path fill="#fabb78" d="M1097.973,256.725c-13.325-21.857-43.94-37.118-79.557-37.052c-40.015,0.075-73.646,19.495-83.501,45.802   c-0.219-0.592-0.466-1.183-0.712-1.766l-0.422-218.85c0.354-0.011,0.721-0.011,1.076-0.012c0.367,0,0.721-0.001,1.09,0.008   c76.587,1.274,140.853,153.187,160.295,204.185L1097.973,256.725z" class="color78A0FA svgShape"/><rect width="12.153" height="9.143" x="927.425" y="478.553" fill="#dec9b3" transform="translate(-.865 1.675)" class="colorB3C1DE svgShape"/><rect width="12.153" height="9.129" x="927.438" y="492.505" fill="#dec9b3" transform="translate(-.897 1.688)" class="colorB3C1DE svgShape"/><path fill="#eba75e" d="M553.665,747.747l0.276,148.013c0.01,5.214-2.095,9.939-5.508,13.36c-1.99,1.998-4.425,3.548-7.146,4.493   c-1.933,0.676-4.013,1.042-6.176,1.046l-264.1,0.494c-10.421,0.019-18.88-8.411-18.901-18.83l-0.276-148.013   c-0.019-10.419,8.409-18.88,18.83-18.9l264.1-0.494C545.183,728.898,553.645,737.328,553.665,747.747z" class="color5E89EB svgShape"/><path fill="#f6d0a8" d="M329.03,812.036l0.049,26.077c0,0.417-0.041,0.825-0.116,1.216c-0.053,0.291-0.129,0.569-0.225,0.842   c-0.845,2.475-3.192,4.259-5.956,4.263l-37.855,0.071c-0.155,0-0.311-0.004-0.463-0.021c-2.561-0.176-4.7-1.888-5.508-4.22   c-0.099-0.273-0.174-0.551-0.229-0.842c-0.077-0.391-0.121-0.798-0.121-1.215l-0.049-26.077c0-0.089,0-0.177,0.008-0.265   c0.008-0.286,0.037-0.568,0.088-0.842c0.512-2.92,3.03-5.15,6.085-5.21c0.037-0.004,0.079-0.004,0.116-0.004l37.855-0.071   c0.038,0,0.079,0,0.118,0.004c3.053,0.049,5.582,2.269,6.104,5.187c0.051,0.274,0.081,0.555,0.089,0.842   C329.03,811.859,329.03,811.948,329.03,812.036z" class="colorA8C0F6 svgShape"/><path fill="#fbecdc" d="M329.036 814.825l-.001-.842L320.832 814c-1.591.003-3.052.565-4.204 1.492-1.12-.831-2.501-1.325-3.998-1.322l-.714.001c1.074-1.437 2.779-2.372 4.706-2.376l12.399-.023c-.008-.286-.038-.568-.089-.842l-12.311.023c-2.419.004-4.536 1.296-5.719 3.219l-15.048.029c-1.19-1.92-3.313-3.203-5.731-3.199l-11.47.022c-.051.274-.079.555-.088.842l11.559-.022c1.927-.004 3.636.927 4.715 2.358l-.295.001c-1.597.003-3.064.569-4.216 1.505-1.183-1.024-2.724-1.648-4.405-1.645l-7.362.014.001.84 7.362-.012c1.438-.004 2.76.516 3.783 1.372-1.163 1.214-1.883 2.859-1.88 4.667l.018 9.675c.004 1.719.662 3.288 1.733 4.481-1 .779-2.251 1.253-3.614 1.256l-7.362.014.003.841 7.36-.014c1.599-.003 3.065-.569 4.216-1.505 1.183 1.024 2.724 1.648 4.407 1.645h.047c-1.079 1.259-2.676 2.061-4.459 2.065l-11.449.021c.055.291.13.569.229.842l11.221-.021c2.288-.005 4.305-1.157 5.522-2.909l15.444-.029c1.223 1.748 3.244 2.893 5.533 2.888l12.063-.022c.096-.273.171-.551.225-.842l-12.289.023c-1.784.003-3.383-.793-4.467-2.048l.468-.001c1.589-.003 3.052-.565 4.203-1.493 1.121.831 2.501 1.326 3.998 1.323l8.202-.016-.001-.841-8.202.015c-1.253.003-2.41-.391-3.366-1.057 1.167-1.215 1.887-2.86 1.884-4.673l-.018-9.675c-.004-1.904-.806-3.62-2.083-4.841.987-.75 2.21-1.203 3.543-1.205L329.036 814.825zM288.686 830.619l-.018-9.675c-.003-1.581.625-3.016 1.641-4.079.935 1.042 1.51 2.412 1.512 3.917l.018 9.675c.004 1.582-.624 3.016-1.64 4.079C289.264 833.494 288.689 832.125 288.686 830.619zM296.052 833.502c.003 1.094-.299 2.113-.819 2.993l-.647.001c-1.44.001-2.76-.518-3.784-1.374 1.163-1.213 1.884-2.859 1.88-4.667l-.018-9.675c-.003-1.719-.662-3.288-1.733-4.481 1-.779 2.251-1.253 3.616-1.255l.82-.003c.414.803.655 1.715.657 2.679L296.052 833.502zM296.188 836.493c.448-.905.707-1.915.706-2.992l-.03-15.782c-.001-.95-.204-1.858-.564-2.678l14.157-.026c-.355.821-.555 1.729-.554 2.681l.029 15.78c.003 1.078.266 2.087.717 2.99L296.188 836.493zM312.673 836.463l-1.069.001c-.522-.878-.828-1.895-.829-2.989l-.03-15.78c-.001-.964.237-1.877.647-2.681l1.241-.003c1.254-.003 2.412.391 3.367 1.057-1.167 1.215-1.888 2.86-1.884 4.673l.018 9.673c.003 1.906.806 3.621 2.083 4.841C315.229 836.008 314.005 836.46 312.673 836.463zM318.532 820.89l.018 9.673c.004 1.611-.646 3.075-1.695 4.142-1.15-1.075-1.877-2.596-1.88-4.292l-.019-9.673c-.003-1.611.647-3.077 1.696-4.142C317.802 817.673 318.529 819.193 318.532 820.89zM290.539 809.118l26.498-.051c2.465-.004 4.621-1.342 5.79-3.325-.038-.004-.079-.004-.118-.004l-.883.001c-1.065 1.5-2.813 2.483-4.791 2.487l-26.498.049c-1.977.003-3.728-.974-4.799-2.469l-.884.003c-.037 0-.079 0-.116.004C285.914 807.792 288.075 809.122 290.539 809.118zM316.677 841.237l-26.498.049c-2.409.005-4.527 1.283-5.715 3.199.152.016.309.021.463.021l.539-.001c1.074-1.44 2.788-2.373 4.715-2.376l26.497-.049c1.927-.004 3.645.923 4.725 2.358l1.013-.001C321.226 842.515 319.095 841.233 316.677 841.237z" class="colorDCE6FB svgShape"/><path fill="#f0b16e" d="M553.665,747.747l0.073,39.18l-301.83,0.564l-0.073-39.18c-0.019-10.419,8.409-18.88,18.83-18.9   l264.1-0.494C545.183,728.898,553.645,737.328,553.665,747.747z" class="color6E96F0 svgShape"/><path fill="#ffffff" d="M521.881 823.748l-58.044.108c-2.394.004-4.357-1.951-4.361-4.347l0 0c-.004-2.394 1.951-4.356 4.345-4.361l58.044-.108c2.395-.004 4.358 1.951 4.362 4.346l0 0C526.232 821.781 524.276 823.743 521.881 823.748zM521.678 844.064l-75.458.14c-2.527.005-4.599-2.058-4.603-4.586l0 0c-.005-2.527 2.06-4.599 4.586-4.604l75.457-.14c2.528-.005 4.599 2.059 4.604 4.586l0 0C526.269 841.987 524.205 844.059 521.678 844.064zM307.69 892.155l-25.789.048c-1.765.004-3.196-1.423-3.2-3.188l-.003-1.643c-.003-1.763 1.423-3.196 3.188-3.199l25.79-.048c1.763-.004 3.196 1.423 3.199 3.188l.003 1.641C310.881 890.719 309.453 892.152 307.69 892.155zM345.304 892.085l-25.789.048c-1.763.003-3.196-1.425-3.199-3.188l-.003-1.643c-.004-1.763 1.423-3.196 3.186-3.199l25.789-.048c1.765-.004 3.198 1.423 3.2 3.186l.003 1.643C348.496 890.649 347.069 892.081 345.304 892.085zM382.919 892.014l-25.789.049c-1.763.003-3.196-1.425-3.199-3.188l-.004-1.643c-.003-1.763 1.425-3.196 3.188-3.2l25.789-.048c1.763-.003 3.196 1.425 3.2 3.188l.003 1.643C386.11 890.578 384.683 892.011 382.919 892.014zM420.535 891.944l-25.789.048c-1.765.004-3.196-1.423-3.2-3.188l-.003-1.641c-.003-1.765 1.425-3.196 3.188-3.2l25.789-.048c1.763-.003 3.196 1.425 3.199 3.188l.004 1.643C423.725 890.508 422.298 891.941 420.535 891.944zM527.294 773.536l-102.464.192c-3.339.005-6.049-2.696-6.056-6.033l-.032-17.445c-.007-3.339 2.694-6.049 6.033-6.056l102.464-.191c3.339-.007 6.049 2.694 6.056 6.033l.031 17.445C533.334 770.819 530.633 773.531 527.294 773.536zM303.674 751.6l-30.27.056c-2.391.004-4.333-1.931-4.338-4.322l-.007-4.168c-.005-2.391 1.93-4.333 4.322-4.338l30.269-.056c2.393-.004 4.334 1.93 4.338 4.322l.008 4.168C308 749.653 306.065 751.594 303.674 751.6z" class="colorFFF svgShape"/><path fill="#fab264" d="M532.437,290.481c-23.729-5.184-52.929-18.202-82.766-37.625l-74.616,0.14l-74.616,0.138   c-29.763,19.534-58.916,32.662-82.625,37.934c8.805,16.739,26.782,56.603,21.624,108.32c-3.086,30.938-13.333,54.912-21.291,69.871   c0.021,10.478,1.172,66.204,46.284,111.146c28.521,28.412,67.882,45.948,111.321,45.868c43.441-0.084,82.736-17.764,111.15-46.284   c44.944-45.11,45.887-100.84,45.868-111.319c-8.013-14.929-18.35-38.864-21.551-69.79   C505.868,347.182,523.695,307.251,532.437,290.481z" class="color6492FA svgShape"/><path fill="#eb4b93" d="M375.718,607.938c-37.123,0.069-72.051-14.323-98.349-40.522c-34.518-34.386-40.064-76.503-40.791-93.886   c11.497-22.853,18.591-47.158,21.103-72.322c3.939-39.503-4.165-73.273-14.321-98.522c19.729-6.978,41.195-17.675,62.503-31.227   l138.454-0.258c21.358,13.473,42.864,24.089,62.618,30.993c-10.061,25.286-18.039,59.086-13.954,98.574   c2.605,25.157,9.79,49.436,21.374,72.243c-0.666,17.39-6.06,59.531-40.441,94.038C447.713,593.346,412.84,607.868,375.718,607.938   L375.718,607.938z" class="color4B7CEB svgShape"/><path fill="#fde0c1" d="M375.69,592.887c-33.453,0.062-64.928-12.908-88.628-36.517c-30.05-29.936-35.705-66.569-36.664-82.777   c10.87-22.126,17.606-45.638,20.028-69.918c3.059-30.667-0.788-61.06-11.435-90.461c16.781-6.572,34.633-15.708,52.168-26.715   l127.917-0.239c17.576,10.942,35.463,20.012,52.267,26.52c-10.537,29.439-14.271,59.848-11.101,90.501   c2.515,24.274,9.339,47.76,20.294,69.844c-0.902,16.215-6.428,52.876-36.357,82.913   C440.568,579.737,409.143,592.824,375.69,592.887L375.69,592.887z" class="colorC1D3FD svgShape"/><path fill="#fdd6ac" d="M364.607,498.188c-0.681,0.001-1.368-0.174-1.989-0.537l-69.623-40.707c-0.931-0.546-1.597-1.449-1.843-2.5   c-0.245-1.052-0.047-2.158,0.548-3.058l26.74-40.459c0.624-0.943,1.623-1.571,2.742-1.726c0.176-0.023,0.352-0.036,0.529-0.036   c0.939-0.003,1.855,0.333,2.576,0.956l37.715,32.594l49.702-80.197c0.583-0.939,1.533-1.591,2.619-1.794   c0.237-0.044,0.476-0.066,0.713-0.066c0.851-0.001,1.688,0.274,2.378,0.797l40.728,30.824c0.884,0.669,1.445,1.68,1.542,2.783   c0.1,1.104-0.273,2.198-1.024,3.012l-91.171,98.847C366.725,497.751,365.673,498.185,364.607,498.188z" class="colorACC4FD svgShape"/><polygon fill="#ffffff" points="321.718 413.093 294.978 453.552 364.601 494.26 455.773 395.413 415.043 364.587 362.918 448.699" class="colorFFF svgShape"/><path fill="#decdba" d="M1172.856,428.764l0.026,13.699c-12.524-0.351-24.591-4.804-34.303-12.657l7.859-11.312   C1153.85,424.803,1163.109,428.402,1172.856,428.764z" class="colorBADDDE svgShape"/><path fill="#ffe6cc" d="M1172.856,428.764l0.026,13.699c-12.524-0.351-24.591-4.804-34.303-12.657l7.859-11.312   C1153.85,424.803,1163.109,428.402,1172.856,428.764z" class="colorCCD5FF svgShape"/><path fill="#ede0d1" d="M1143.889,416.151l-7.918,11.402c-11.729-10.696-18.433-25.783-18.462-41.688   c-0.001-0.485,0.001-0.926,0.012-1.329l13.763-0.026c-0.014,0.44-0.019,0.882-0.018,1.329   C1131.287,397.187,1135.87,408.148,1143.889,416.151z" class="colorD1ECED svgShape"/><path fill="#ff9400" d="M1143.889,416.151l-7.918,11.402c-11.729-10.696-18.433-25.783-18.462-41.688   c-0.001-0.485,0.001-0.926,0.012-1.329l13.763-0.026c-0.014,0.44-0.019,0.882-0.018,1.329   C1131.287,397.187,1135.87,408.148,1143.889,416.151z" class="colorDBE1FF svgShape"/><path fill="#decdba" d="M1160.419,345.06c-15.738,5.405-27.1,19.564-28.894,36.026l-13.811,0.026   c0.894-11.122,5.013-21.598,11.974-30.403c6.879-8.7,15.993-15.125,26.441-18.658L1160.419,345.06z" class="colorBADDDE svgShape"/><path fill="#ffe6cc" d="M1160.419,345.06c-15.738,5.405-27.1,19.564-28.894,36.026l-13.811,0.026   c0.894-11.122,5.013-21.598,11.974-30.403c6.879-8.7,15.993-15.125,26.441-18.658L1160.419,345.06z" class="colorCCD5FF svgShape"/><path fill="#decdba" d="M1231.473,385.659c0.01,5.517-0.771,10.953-2.325,16.185l-12.758-5.512   c0.88-3.462,1.323-7.037,1.316-10.648c-0.025-13.24-6.224-25.771-16.673-33.884l8.63-10.671   c6.418,5.024,11.755,11.441,15.491,18.642C1229.33,367.819,1231.455,376.53,1231.473,385.659z" class="colorBADDDE svgShape"/><path fill="#ffe6cc" d="M1231.473,385.659c0.01,5.517-0.771,10.953-2.325,16.185l-12.758-5.512   c0.88-3.462,1.323-7.037,1.316-10.648c-0.025-13.24-6.224-25.771-16.673-33.884l8.63-10.671   c6.418,5.024,11.755,11.441,15.491,18.642C1229.33,367.819,1231.455,376.53,1231.473,385.659z" class="colorCCD5FF svgShape"/><path fill="#ede0d1" d="M1228.072,405.109c-3.845,10.566-10.682,19.663-19.855,26.378c-9.337,6.836-20.337,10.611-31.91,10.969   l-0.025-13.697c17.729-0.743,33.414-12.431,39.125-29.123L1228.072,405.109z" class="colorD1ECED svgShape"/><path fill="#ff9400" d="M1228.072,405.109c-3.845,10.566-10.682,19.663-19.855,26.378c-9.337,6.836-20.337,10.611-31.91,10.969   l-0.025-13.697c17.729-0.743,33.414-12.431,39.125-29.123L1228.072,405.109z" class="colorDBE1FF svgShape"/><path fill="#ede0d1" d="M1206.9,339.095l-8.657,10.71c-7.078-4.652-15.282-7.093-23.83-7.078c-0.98,0.003-1.957,0.037-2.906,0.103   c-2.637,0.178-5.26,0.599-7.814,1.257l-4.296-13.035c4.575-1.25,9.318-1.924,14.12-2.005c0.286-0.004,0.578-0.008,0.865-0.01   C1186.124,329.016,1197.326,332.487,1206.9,339.095z" class="colorD1ECED svgShape"/><path fill="#ff9400" d="M1206.9,339.095l-8.657,10.71c-7.078-4.652-15.282-7.093-23.83-7.078c-0.98,0.003-1.957,0.037-2.906,0.103   c-2.637,0.178-5.26,0.599-7.814,1.257l-4.296-13.035c4.575-1.25,9.318-1.924,14.12-2.005c0.286-0.004,0.578-0.008,0.865-0.01   C1186.124,329.016,1197.326,332.487,1206.9,339.095z" class="colorDBE1FF svgShape"/><path fill="#ffe6cc" d="M841.052 370.681c-.794.001-1.593-.037-2.379-.115-.586-.058-1.012-.579-.954-1.164.058-.586.579-1.013 1.164-.956 1.471.145 2.989.139 4.46-.022.586-.066 1.111.359 1.174.945.065.584-.358 1.111-.943 1.174C842.741 370.633 841.893 370.679 841.052 370.681zM834.196 369.625c-.108 0-.218-.015-.326-.051-1.558-.496-3.069-1.16-4.49-1.973-.511-.292-.688-.943-.396-1.453.292-.51.943-.688 1.453-.396 1.293.739 2.665 1.342 4.08 1.793.561.18.869.779.691 1.338C835.064 369.336 834.646 369.625 834.196 369.625zM848.035 369.558c-.448.001-.865-.284-1.013-.731-.185-.559.119-1.161.677-1.347 1.411-.465 2.778-1.082 4.063-1.833.506-.298 1.16-.126 1.456.381.298.507.126 1.16-.381 1.458-1.414.827-2.918 1.505-4.47 2.018C848.257 369.54 848.145 369.558 848.035 369.558zM826.111 365.007c-.254 0-.507-.088-.712-.27-1.222-1.089-2.332-2.308-3.3-3.624-.348-.475-.247-1.141.226-1.489.474-.348 1.141-.248 1.489.226.882 1.197 1.891 2.306 3.003 3.296.439.392.479 1.065.086 1.504C826.694 364.886 826.403 365.007 826.111 365.007zM856.073 364.86c-.289.001-.58-.117-.79-.348-.396-.436-.363-1.109.071-1.505 1.101-1 2.1-2.12 2.971-3.325.344-.477 1.01-.584 1.486-.241.477.344.585 1.009.241 1.486-.957 1.326-2.055 2.557-3.266 3.657C856.584 364.768 856.328 364.86 856.073 364.86zM820.594 357.51c-.406 0-.795-.233-.974-.627-.675-1.49-1.193-3.058-1.541-4.656-.125-.574.24-1.142.814-1.267.575-.125 1.142.24 1.267.815.317 1.452.788 2.875 1.401 4.23.243.536.004 1.167-.532 1.41C820.888 357.478 820.74 357.508 820.594 357.51zM861.518 357.307c-.144 0-.291-.029-.431-.091-.539-.237-.783-.866-.546-1.404.601-1.36 1.057-2.789 1.359-4.245.119-.576.684-.946 1.259-.827.576.119.946.683.827 1.259-.332 1.603-.835 3.174-1.494 4.671C862.315 357.069 861.926 357.307 861.518 357.307zM818.61 348.414c-.588.001-1.067-.476-1.068-1.063v-.093c-.003-1.641.164-3.283.499-4.876.121-.576.684-.946 1.26-.824.576.119.945.684.824 1.26-.303 1.449-.455 2.941-.453 4.436v.093C819.674 347.935 819.198 348.412 818.61 348.414zM863.411 348.191c-.587.001-1.065-.473-1.067-1.061-.005-1.495-.167-2.986-.478-4.433-.125-.574.241-1.141.816-1.266.579-.123 1.142.243 1.267.817.343 1.592.52 3.232.525 4.873.003.588-.472 1.067-1.06 1.07C863.412 348.191 863.412 348.191 863.411 348.191zM820.521 339.211c-.145 0-.292-.03-.433-.092-.538-.239-.78-.868-.542-1.405.661-1.493 1.485-2.923 2.446-4.25.346-.477 1.011-.584 1.488-.238.476.345.583 1.01.237 1.488-.873 1.207-1.622 2.506-2.224 3.864C821.318 338.973 820.928 339.209 820.521 339.211zM861.448 339.093c-.407 0-.797-.233-.974-.628-.61-1.353-1.366-2.649-2.246-3.85-.348-.474-.245-1.141.229-1.489.474-.348 1.141-.245 1.489.229.968 1.322 1.799 2.746 2.469 4.235.241.536.003 1.167-.533 1.408C861.741 339.063 861.593 339.093 861.448 339.093zM825.982 331.668c-.291 0-.581-.118-.793-.351-.395-.436-.361-1.109.075-1.504 1.214-1.1 2.545-2.073 3.957-2.894.507-.296 1.16-.123 1.456.385.296.509.123 1.16-.385 1.456-1.283.747-2.494 1.632-3.599 2.633C826.491 331.576 826.236 331.667 825.982 331.668zM855.944 331.583c-.254 0-.507-.089-.712-.272-1.109-.994-2.325-1.873-3.614-2.613-.51-.292-.687-.943-.394-1.453.293-.51.943-.687 1.455-.394 1.416.814 2.753 1.781 3.974 2.872.439.392.476 1.065.084 1.504C856.527 331.462 856.236 331.582 855.944 331.583zM834.029 326.987c-.448.001-.866-.284-1.013-.733-.184-.558.121-1.16.68-1.344 1.554-.509 3.166-.854 4.795-1.028.586-.059 1.109.362 1.172.946.062.585-.362 1.111-.946 1.172-1.481.158-2.947.472-4.357.935C834.25 326.971 834.139 326.987 834.029 326.987zM847.869 326.949c-.11 0-.219-.016-.328-.052-1.414-.454-2.882-.76-4.364-.909-.585-.059-1.012-.581-.953-1.167.059-.586.577-1.011 1.167-.953 1.63.165 3.246.5 4.802 1.001.559.18.868.779.688 1.34C848.736 326.659 848.319 326.947 847.869 326.949zM850.416 336.366c-3.501 4.909-7.001 9.817-10.501 14.726-2.448-2.29-4.895-4.578-7.342-6.867-1.467 1.876-2.936 3.751-4.404 5.627 4.148 2.731 8.295 5.463 12.443 8.194 5.277-5.692 11.62-9.429 16.898-15.121C855.5 341.391 852.424 337.9 850.416 336.366zM1183.843 706.915c-.792.001-1.593-.037-2.377-.114-.586-.059-1.013-.58-.956-1.165s.579-1.013 1.164-.954c1.471.144 2.989.137 4.46-.023.585-.066 1.111.359 1.175.945.063.584-.359 1.111-.945 1.174C1185.532 706.867 1184.684 706.914 1183.843 706.915zM1176.988 705.861c-.108 0-.218-.017-.326-.051-1.558-.498-3.069-1.161-4.49-1.974-.51-.292-.688-.942-.396-1.453.292-.51.943-.687 1.453-.396 1.293.739 2.665 1.342 4.08 1.795.561.178.871.777.691 1.338C1177.856 705.57 1177.437 705.859 1176.988 705.861zM1190.826 705.792c-.448.001-.865-.282-1.013-.731-.185-.559.119-1.161.677-1.345 1.411-.466 2.778-1.083 4.063-1.834.506-.298 1.16-.126 1.458.381.296.509.125 1.16-.383 1.457-1.414.827-2.918 1.506-4.47 2.018C1191.049 705.774 1190.936 705.792 1190.826 705.792zM1168.902 701.241c-.254.001-.507-.088-.71-.269-1.223-1.09-2.332-2.309-3.302-3.625-.348-.474-.247-1.141.226-1.489.474-.348 1.141-.247 1.489.226.882 1.197 1.892 2.306 3.003 3.297.44.391.479 1.064.086 1.503C1169.485 701.121 1169.194 701.241 1168.902 701.241zM1198.864 701.095c-.289.001-.579-.117-.79-.348-.396-.436-.363-1.109.071-1.504 1.102-1.001 2.1-2.12 2.971-3.326.344-.477 1.01-.584 1.486-.241.477.344.585 1.01.241 1.488-.956 1.326-2.055 2.556-3.266 3.655C1199.375 701.003 1199.12 701.095 1198.864 701.095zM1163.385 693.744c-.406 0-.795-.232-.974-.627-.675-1.49-1.193-3.058-1.541-4.655-.125-.576.24-1.144.814-1.268.576-.125 1.142.24 1.267.815.317 1.453.788 2.877 1.401 4.231.243.535.004 1.167-.532 1.409C1163.68 693.713 1163.531 693.744 1163.385 693.744zM1204.309 693.541c-.144.001-.291-.029-.431-.09-.539-.237-.783-.865-.546-1.404.601-1.36 1.057-2.789 1.359-4.245.119-.576.684-.945 1.259-.827.577.119.946.683.828 1.26-.333 1.602-.836 3.174-1.496 4.671C1205.107 693.304 1204.717 693.541 1204.309 693.541zM1161.401 684.648c-.588.001-1.067-.474-1.067-1.063v-.093c-.004-1.641.165-3.282.498-4.876.121-.576.684-.946 1.26-.824.576.121.946.684.824 1.26-.303 1.449-.455 2.942-.453 4.436v.093C1162.465 684.169 1161.989 684.647 1161.401 684.648zM1206.202 684.426c-.587.001-1.064-.473-1.067-1.061-.005-1.495-.167-2.985-.479-4.431-.123-.576.241-1.142.817-1.267.579-.122 1.141.243 1.266.817.343 1.592.52 3.232.526 4.873.001.588-.473 1.068-1.061 1.069C1206.204 684.426 1206.204 684.426 1206.202 684.426zM1163.312 675.445c-.146 0-.292-.029-.433-.092-.537-.239-.78-.868-.542-1.405.662-1.493 1.485-2.923 2.446-4.25.345-.477 1.01-.583 1.488-.239.476.346.583 1.012.237 1.488-.873 1.207-1.622 2.508-2.224 3.865C1164.109 675.208 1163.719 675.444 1163.312 675.445zM1204.239 675.327c-.407.001-.797-.233-.973-.628-.61-1.353-1.366-2.649-2.246-3.85-.347-.474-.245-1.141.23-1.489.473-.347 1.139-.245 1.488.229.969 1.322 1.8 2.746 2.471 4.235.241.536.001 1.167-.535 1.408C1204.532 675.297 1204.384 675.327 1204.239 675.327zM1168.773 667.903c-.291 0-.581-.118-.792-.351-.395-.436-.361-1.109.075-1.504 1.214-1.098 2.545-2.072 3.957-2.894.507-.296 1.16-.123 1.456.385.296.509.123 1.16-.385 1.456-1.283.747-2.494 1.633-3.598 2.633C1169.282 667.811 1169.027 667.903 1168.773 667.903zM1198.735 667.818c-.254 0-.507-.089-.712-.271-1.109-.994-2.326-1.872-3.614-2.612-.51-.293-.686-.945-.393-1.455.293-.51.943-.687 1.455-.392 1.416.813 2.753 1.78 3.973 2.871.439.392.476 1.067.084 1.504C1199.318 667.697 1199.027 667.818 1198.735 667.818zM1176.82 663.223c-.448 0-.867-.285-1.013-.734-.184-.559.121-1.161.68-1.345 1.553-.509 3.166-.854 4.795-1.028.585-.059 1.109.362 1.172.947.062.584-.362 1.109-.946 1.171-1.481.158-2.947.473-4.357.935C1177.041 663.205 1176.93 663.221 1176.82 663.223zM1190.661 663.183c-.108 0-.219-.017-.328-.052-1.414-.454-2.882-.76-4.364-.909-.586-.059-1.012-.581-.953-1.167s.577-1.01 1.167-.953c1.63.165 3.245.502 4.802 1.001.559.18.868.78.688 1.339C1191.527 662.894 1191.11 663.182 1190.661 663.183zM1193.207 672.6c-3.5 4.909-7.001 9.817-10.501 14.726-2.448-2.288-4.895-4.578-7.342-6.867-1.467 1.876-2.936 3.751-4.404 5.627 4.148 2.731 8.295 5.462 12.443 8.194 5.277-5.692 11.62-9.428 16.898-15.121C1198.291 677.625 1195.217 674.136 1193.207 672.6zM144.454 557.776c-.794.001-1.593-.037-2.379-.114-.585-.058-1.013-.58-.954-1.165.058-.585.579-1.013 1.164-.954 1.471.144 2.988.137 4.46-.023.586-.066 1.111.359 1.174.945.064.584-.358 1.111-.943 1.174C146.143 557.727 145.295 557.774 144.454 557.776zM137.598 556.721c-.108 0-.218-.017-.326-.051-1.557-.496-3.068-1.161-4.49-1.974-.511-.292-.688-.942-.396-1.453.292-.51.942-.687 1.453-.396 1.293.739 2.665 1.342 4.08 1.793.561.18.869.779.691 1.34C138.466 556.43 138.048 556.72 137.598 556.721zM151.437 556.653c-.448.001-.865-.282-1.013-.731-.185-.559.119-1.161.677-1.346 1.411-.465 2.778-1.082 4.063-1.833.506-.298 1.16-.126 1.456.381.298.509.126 1.16-.381 1.458-1.414.827-2.918 1.505-4.47 2.018C151.659 556.635 151.547 556.653 151.437 556.653zM129.512 552.102c-.252.001-.506-.088-.71-.27-1.222-1.089-2.332-2.308-3.3-3.624-.35-.474-.248-1.141.226-1.489.474-.348 1.141-.247 1.489.226.882 1.197 1.891 2.306 3.003 3.297.439.391.479 1.064.086 1.503C130.096 551.981 129.805 552.102 129.512 552.102zM159.475 551.955c-.289.001-.58-.117-.79-.348-.396-.436-.363-1.109.071-1.504 1.101-1.001 2.101-2.12 2.971-3.326.344-.477 1.009-.584 1.486-.241.477.344.585 1.011.241 1.488-.957 1.326-2.055 2.556-3.266 3.655C159.986 551.863 159.73 551.955 159.475 551.955zM123.996 544.604c-.407 0-.795-.232-.973-.627-.675-1.49-1.193-3.058-1.541-4.655-.125-.576.24-1.143.814-1.268.575-.125 1.142.24 1.267.814.317 1.453.788 2.877 1.401 4.23.243.536.004 1.168-.532 1.411C124.29 544.573 124.142 544.604 123.996 544.604zM164.919 544.402c-.144.001-.291-.029-.432-.091-.538-.237-.782-.865-.544-1.404.6-1.36 1.057-2.789 1.359-4.245.119-.576.684-.946 1.259-.827.576.119.946.683.827 1.259-.332 1.603-.835 3.175-1.495 4.673C165.717 544.164 165.328 544.402 164.919 544.402zM122.012 535.508c-.588.001-1.067-.474-1.068-1.063v-.093c-.003-1.641.165-3.282.499-4.876.121-.576.684-.946 1.26-.824.576.121.945.684.824 1.26-.303 1.449-.455 2.943-.452 4.437v.092C123.076 535.03 122.6 535.507 122.012 535.508zM166.813 535.286c-.587.001-1.065-.473-1.067-1.061-.005-1.495-.167-2.985-.479-4.432-.125-.576.241-1.142.816-1.267.579-.123 1.142.243 1.267.817.343 1.592.52 3.232.525 4.873.003.588-.472 1.068-1.06 1.069C166.814 535.286 166.813 535.286 166.813 535.286zM123.923 526.305c-.145 0-.292-.03-.433-.092-.537-.239-.78-.868-.542-1.405.661-1.493 1.485-2.923 2.446-4.25.346-.477 1.011-.584 1.488-.239.476.345.583 1.012.237 1.488-.873 1.207-1.622 2.508-2.224 3.865C124.719 526.068 124.33 526.304 123.923 526.305zM164.85 526.188c-.407.001-.797-.233-.973-.628-.61-1.353-1.366-2.649-2.246-3.85-.348-.474-.245-1.141.229-1.489.474-.348 1.141-.245 1.489.229.968 1.322 1.799 2.746 2.469 4.235.241.536.003 1.167-.533 1.408C165.143 526.157 164.995 526.188 164.85 526.188zM129.384 518.763c-.292 0-.581-.118-.792-.351-.395-.436-.361-1.109.075-1.504 1.213-1.098 2.545-2.073 3.957-2.894.507-.296 1.16-.123 1.456.385.296.509.123 1.16-.385 1.456-1.283.747-2.494 1.633-3.599 2.633C129.893 518.671 129.638 518.762 129.384 518.763zM159.346 518.678c-.254 0-.509-.089-.712-.271-1.111-.994-2.327-1.872-3.614-2.612-.51-.293-.687-.945-.393-1.455.292-.51.943-.687 1.455-.393 1.416.814 2.753 1.781 3.973 2.872.437.392.476 1.067.084 1.504C159.928 518.557 159.638 518.678 159.346 518.678zM137.431 514.083c-.448 0-.867-.285-1.015-.735-.182-.558.122-1.16.681-1.344 1.553-.509 3.166-.854 4.795-1.028.585-.059 1.109.362 1.172.947.062.584-.362 1.109-.947 1.171-1.48.158-2.945.473-4.356.935C137.652 514.065 137.541 514.082 137.431 514.083zM151.271 514.044c-.11 0-.219-.016-.329-.052-1.414-.454-2.881-.76-4.363-.909-.585-.059-1.012-.581-.953-1.167.059-.585.577-1.01 1.167-.953 1.63.164 3.245.502 4.802 1.001.559.18.868.78.688 1.34C152.138 513.754 151.721 514.042 151.271 514.044zM153.818 523.46c-3.501 4.909-7.001 9.817-10.502 14.726-2.447-2.288-4.895-4.578-7.342-6.867-1.468 1.876-2.936 3.751-4.404 5.627 4.148 2.731 8.295 5.463 12.443 8.194 5.277-5.692 11.62-9.428 16.898-15.121C158.902 528.486 155.826 524.996 153.818 523.46z" class="colorCCD5FF svgShape"/><path fill="#ff9400" d="M1213.927 571.056c-.01-4.707 3.799-8.531 8.508-8.539 4.707-.01 8.53 3.799 8.539 8.508.008 4.707-3.801 8.53-8.508 8.539C1217.759 579.572 1213.935 575.763 1213.927 571.056zM787.754 419.163c-.01-4.707 3.799-8.531 8.508-8.539 4.707-.008 8.53 3.801 8.539 8.508.008 4.707-3.801 8.531-8.508 8.539C791.586 427.681 787.762 423.872 787.754 419.163zM635.555 410.924c-.008-4.707 3.801-8.531 8.508-8.539 4.707-.01 8.531 3.799 8.539 8.508.01 4.707-3.801 8.531-8.508 8.539C639.388 419.44 635.564 415.631 635.555 410.924zM93 815.422c-.01-4.707 3.799-8.531 8.508-8.539 4.707-.008 8.53 3.801 8.539 8.508.008 4.707-3.801 8.531-8.508 8.539C96.832 823.938 93.008 820.128 93 815.422z" class="colorDBE1FF svgShape"/></svg>