<svg xmlns="http://www.w3.org/2000/svg" xmlns:xlink="http://www.w3.org/1999/xlink" data-name="layer 1" viewBox="0 0 1159 771"><defs><linearGradient id="a" x1="1733.525" x2="1733.525" y1="636.771" y2="183.423" gradientTransform="translate(-892.086)" gradientUnits="userSpaceOnUse"><stop offset="0" stop-color="#ffffff" class="stopColorfff svgShape"/><stop offset="1" stop-color="#ffe9ca" class="stopColordfcaff svgShape"/></linearGradient><linearGradient id="b" x1="1802.998" x2="1802.998" y1="601.423" y2="284.902" gradientTransform="translate(-892.086)" gradientUnits="userSpaceOnUse"><stop offset="0" stop-color="#ffffff" class="stopColorfff svgShape"/><stop offset="1" stop-color="#f9ddb7" class="stopColorc2b7f9 svgShape"/></linearGradient><linearGradient id="h" x1="1426.773" x2="1426.773" y1="648.354" y2="283.734" xlink:href="#a"/><linearGradient id="i" x1="1489.224" x2="1489.224" y1="619.923" y2="365.353" xlink:href="#b"/><linearGradient id="j" x1="1635.169" x2="1635.169" y1="636.771" y2="360.864" xlink:href="#a"/><linearGradient id="k" x1="1697.65" x2="1697.65" y1="636.771" y2="360.864" xlink:href="#b"/><linearGradient id="l" x1="1858.182" x2="1858.182" y1="651.77" y2="381.674" xlink:href="#a"/><linearGradient id="m" x1="1915.126" x2="1915.126" y1="651.77" y2="381.674" xlink:href="#b"/><linearGradient id="n" x1="1178.167" x2="1178.167" y1="648.352" y2="414.179" xlink:href="#a"/><linearGradient id="o" x1="1225.404" x2="1225.404" y1="648.352" y2="414.179" xlink:href="#b"/><linearGradient id="p" x1="1057.279" x2="1057.279" y1="648.352" y2="457.26" xlink:href="#a"/><linearGradient id="q" x1="1104.516" x2="1104.516" y1="648.352" y2="457.26" xlink:href="#b"/><linearGradient id="c" x1="709.693" x2="709.693" y1="409.801" y2="229.602" gradientUnits="userSpaceOnUse"><stop offset="0" stop-color="#ffffff" stop-opacity="0" class="stopColorfff svgShape"/><stop offset="1" stop-color="#f9c67f" class="stopColorf9d77f svgShape"/></linearGradient><linearGradient id="d" x1="710.764" x2="710.764" y1="188.173" y2="130.075" gradientUnits="userSpaceOnUse"><stop offset="0" stop-color="#ffe9ca" class="stopColordfcaff svgShape"/><stop offset="1" stop-color="#ffffff" stop-opacity="0" class="stopColorfff svgShape"/></linearGradient><linearGradient id="r" x1="290.783" x2="290.783" y1="445.205" y2="265.008" xlink:href="#c"/><linearGradient id="s" x1="291.853" x2="291.853" y1="223.577" y2="165.48" xlink:href="#d"/><linearGradient id="e" x1="423.058" x2="451.676" y1="560.621" y2="560.621" gradientUnits="userSpaceOnUse"><stop offset="0" stop-color="#db7f00" class="stopColor00b2db svgShape"/><stop offset="1" stop-color="#f7c989" class="stopColor89e8f7 svgShape"/></linearGradient><linearGradient id="t" x1="423.058" x2="514.998" y1="558.183" y2="558.183" xlink:href="#e"/><linearGradient id="u" x1="451.676" x2="522.819" y1="541.059" y2="541.059" xlink:href="#e"/><linearGradient id="f" x1="465.949" x2="522.819" y1="541.059" y2="541.059" gradientUnits="userSpaceOnUse"><stop offset="0" stop-color="#f7c989" class="stopColor89e8f7 svgShape"/><stop offset="1" stop-color="#db7f00" class="stopColor00b2db svgShape"/></linearGradient><linearGradient id="v" x1="208.763" x2="237.381" y1="554.277" y2="554.277" xlink:href="#e"/><linearGradient id="w" x1="235.848" x2="306.75" y1="534.715" y2="534.715" xlink:href="#e"/><linearGradient id="x" x1="237.381" x2="308.524" y1="534.715" y2="534.715" xlink:href="#f"/><linearGradient id="y" x1="251.654" x2="308.524" y1="534.715" y2="534.715" xlink:href="#e"/><linearGradient id="z" x1="932.181" x2="1023.906" y1="476.031" y2="476.031" xlink:href="#e"/><linearGradient id="A" x1="932.181" x2="1002.368" y1="475.935" y2="475.935" xlink:href="#f"/><clipPath id="g"><path fill="none" d="M1040.8769,485.7412c36.4629-126.2998,8.8946-353.2119-180.1826-360.0215-180.2334-6.4902-183.8535,93.1084-369.4082,66.1739C305.7304,164.959,207.3926,172.7471,143.126,244.1543,62.3564,333.8975,36.2724,687.6348,334.8476,652.4434s436.7119,15.5468,534.5498-9.1905C967.2363,618.5156,1017.6465,566.2051,1040.8769,485.7412Z"/></clipPath></defs><path fill="#ffa30f" d="M1040.8769,485.7412c36.4629-126.2998,8.8946-353.2119-180.1826-360.0215-180.2334-6.4902-183.8535,93.1084-369.4082,66.1739C305.7304,164.959,207.3926,172.7471,143.126,244.1543,62.3564,333.8975,36.2724,687.6348,334.8476,652.4434s436.7119,15.5468,534.5498-9.1905C967.2363,618.5156,1017.6465,566.2051,1040.8769,485.7412Z" class="colorf2e9ff svgShape"/><g clip-path="url(#g)" fill="#000000" class="color000 svgShape"><path fill="#ffffff" d="M556.2998,302.5303H435.6123a16.1615,16.1615,0,0,1,21.2129-9.8008c4.4375-6.2373,10.0185-13.0098,17.7324-14.8789,6.0156-1.457,10.6914.8994,15.8838-4.5654,2.8642-3.0147,4.7383-6.0039,8.6445-7.9444,14.9209-7.4121,29.8604,3.0196,33.916,17.4776a12.18466,12.18466,0,0,1,13.8946-2.7325c8.1005,3.4288,9.6875,13.1563,9.1767,21.0508A1.59178,1.59178,0,0,1,556.2998,302.5303Z" class="colorfff svgShape"/><polygon fill="url(#a)" points="874.369 284.902 874.369 267.345 835.599 267.345 835.599 183.423 824.911 183.423 824.911 267.345 783.149 267.345 783.149 284.902 760.782 284.902 760.782 636.771 922.097 636.771 922.097 284.902 874.369 284.902"/><rect width="22.368" height="316.521" x="899.729" y="284.902" fill="url(#b)"/><polygon fill="url(#h)" points="564.288 365.352 564.288 351.23 529.436 351.23 529.436 283.734 519.829 283.734 519.829 351.23 482.287 351.23 482.287 365.352 462.181 365.352 462.181 648.353 607.193 648.353 607.193 365.352 564.288 365.352"/><rect width="20.108" height="254.57" x="587.085" y="365.353" fill="url(#i)"/><rect width="145.079" height="275.907" x="670.544" y="360.864" fill="url(#j)"/><rect width="20.116" height="275.907" x="795.507" y="360.864" fill="url(#k)"/><rect width="132.222" height="270.097" x="899.985" y="381.674" fill="url(#l)"/><rect width="18.334" height="270.097" x="1013.873" y="381.674" fill="url(#m)"/><rect width="109.683" height="234.174" x="231.24" y="414.179" fill="url(#n)"/><rect width="15.209" height="234.174" x="325.714" y="414.179" fill="url(#o)"/><rect width="109.682" height="191.093" x="110.353" y="457.26" fill="url(#p)"/><rect width="15.208" height="191.093" x="204.826" y="457.26" fill="url(#q)"/><rect width="11.082" height="574.907" x="1060.277" y="87.873" fill="#ffffff" transform="rotate(180 1065.818 375.327)" class="colorfff svgShape"/><rect width="11.082" height="574.907" x="553.707" y="87.873" fill="#ffffff" transform="rotate(180 559.248 375.327)" class="colorfff svgShape"/><polygon fill="#ffffff" points="891.421 645.402 930.736 645.402 719.978 100.716 680.663 100.716 891.421 645.402" opacity=".29" class="colorfff svgShape"/><polygon fill="#ffffff" points="960.842 645.402 980.499 645.402 769.741 100.716 750.084 100.716 960.842 645.402" opacity=".29" class="colorfff svgShape"/><polygon fill="#ffffff" points="726.12 645.402 745.778 645.402 565.086 159.194 565.086 198.367 726.12 645.402" opacity=".31" class="colorfff svgShape"/><rect width="11.081" height="569.108" x="891.421" y="90.772" fill="#ffffff" transform="rotate(180 896.961 375.327)" class="colorfff svgShape"/><rect width="14.857" height="517.651" x="805.106" y="397.719" fill="#ffffff" transform="rotate(-90 812.535 656.545)" class="colorfff svgShape"/><rect width="11.082" height="569.108" x="722.563" y="90.772" fill="#ffffff" transform="rotate(180 728.105 375.327)" class="colorfff svgShape"/><rect width="4.534" height="495.373" x="810.268" y="399.983" fill="#ffffff" transform="rotate(90 812.535 647.67)" class="colorfff svgShape"/><rect width="12.844" height="517.651" x="806.113" y="-164.532" fill="#ffffff" transform="rotate(-90 812.535 94.294)" class="colorfff svgShape"/><rect width="4.534" height="495.583" x="810.268" y="-144.809" fill="#ffffff" transform="rotate(90 812.535 102.983)" class="colorfff svgShape"/><rect width="11.082" height="574.907" x="553.66" y="87.873" fill="#ffffff" transform="rotate(180 559.201 375.327)" class="colorfff svgShape"/><rect width="11.082" height="574.907" x="47.09" y="87.873" fill="#ffffff" transform="rotate(180 52.63 375.327)" class="colorfff svgShape"/><polygon fill="#ffffff" points="384.804 645.402 424.119 645.402 213.36 100.716 174.046 100.716 384.804 645.402" opacity=".28" class="colorfff svgShape"/><polygon fill="#ffffff" points="454.225 645.402 473.882 645.402 263.124 100.716 243.467 100.716 454.225 645.402" opacity=".28" class="colorfff svgShape"/><polygon fill="#ffffff" points="219.503 645.402 239.161 645.402 58.469 159.194 58.469 198.367 219.503 645.402" opacity=".28" class="colorfff svgShape"/><rect width="11.081" height="569.108" x="384.804" y="90.772" fill="#ffffff" transform="rotate(180 390.344 375.327)" class="colorfff svgShape"/><rect width="14.857" height="517.651" x="298.489" y="397.719" fill="#ffffff" transform="rotate(-90 305.917 656.545)" class="colorfff svgShape"/><rect width="11.082" height="569.108" x="215.946" y="90.772" fill="#ffffff" transform="rotate(180 221.487 375.327)" class="colorfff svgShape"/><rect width="4.534" height="495.373" x="303.651" y="399.983" fill="#ffffff" transform="rotate(90 305.918 647.67)" class="colorfff svgShape"/><rect width="12.844" height="517.651" x="299.496" y="-164.532" fill="#ffffff" transform="rotate(-90 305.917 94.294)" class="colorfff svgShape"/><rect width="4.534" height="495.582" x="303.651" y="-144.808" fill="#ffffff" transform="rotate(90 305.918 102.983)" class="colorfff svgShape"/><rect width="6.422" height="1042.47" x="546.915" y="-328.917" fill="#ffffff" transform="rotate(-90 550.125 192.317)" class="colorfff svgShape"/><rect width="6.422" height="1042.47" x="546.914" y="-157.677" fill="#ffffff" transform="rotate(-90 550.125 363.558)" class="colorfff svgShape"/><rect width="6.422" height="1042.47" x="546.914" y="13.563" fill="#ffffff" transform="rotate(-90 550.125 534.798)" class="colorfff svgShape"/></g><ellipse cx="601.53" cy="654.654" fill="#ffe9ca" rx="436.337" ry="23.616" class="colordfcaff svgShape"/><path fill="#f2d6af" d="M711.1885,266.7441a42.02194,42.02194,0,0,1-41.9727-41.9736h1.9746a39.99855,39.99855,0,1,0,79.9971,0h1.9746A42.02213,42.02213,0,0,1,711.1885,266.7441Z" class="colorc5aff2 svgShape"/><polygon fill="#f2d6af" points="710.623 191.936 657.683 235.796 774.407 235.796 710.623 191.936" class="colorc5aff2 svgShape"/><polygon fill="url(#c)" points="684.314 229.602 628.403 409.801 790.982 409.801 738.146 229.602 684.314 229.602" opacity=".22"/><rect width="5.141" height="58.098" x="708.193" y="130.075" fill="url(#d)"/><path fill="#ffbf66" d="M708.2324,197.7402h5.0625a6.0811,6.0811,0,0,1,6.0811,6.0811v12.5771a0,0,0,0,1,0,0H702.1513a0,0,0,0,1,0,0V203.8213A6.0811,6.0811,0,0,1,708.2324,197.7402Z" class="colorf4bf62 svgShape"/><path fill="#f9c67f" d="M720.5644,237.2754a10.03075,10.03075,0,1,0-10.0302,10.0303A10.03117,10.03117,0,0,0,720.5644,237.2754Z" class="colorf9d77f svgShape"/><path fill="#ffffff" d="M710.6709,243.5518c-2.375-.4287-5.6387-2.2959-6.251-4.8057-.2188-.8955-1.6016-.5156-1.3818.3818.7304,2.9922,4.3818,5.2871,7.2519,5.8057C711.1914,245.0967,711.5781,243.7158,710.6709,243.5518Z" class="colorfff svgShape"/><polygon fill="#ffe9ca" points="710.623 191.936 652.261 235.796 768.986 235.796 710.623 191.936" class="colordfcaff svgShape"/><path fill="#f2d6af" d="M708.2196 186.5137h4.8067a3.0186 3.0186 0 013.0186 3.0186v4.8075a3.0176 3.0176 0 01-3.0176 3.0176h-4.8086a3.0176 3.0176 0 01-3.0176-3.0176v-4.8076A3.0185 3.0185 0 01708.2196 186.5137zM292.2783 302.1484a42.0213 42.0213 0 01-41.9727-41.9736h1.9747a39.998 39.998 0 1079.996 0h1.9747A42.0213 42.0213 0 01292.2783 302.1484z" class="colorc5aff2 svgShape"/><polygon fill="#f2d6af" points="291.713 227.34 238.771 271.2 355.497 271.2 291.713 227.34" class="colorc5aff2 svgShape"/><polygon fill="url(#r)" points="265.402 265.008 209.493 445.205 372.072 445.205 319.235 265.008 265.402 265.008" opacity=".22"/><rect width="5.141" height="58.098" x="289.282" y="165.48" fill="url(#s)"/><path fill="#ffbf66" d="M289.3213,233.1445h5.0625a6.082,6.082,0,0,1,6.082,6.082v12.5762a0,0,0,0,1,0,0H283.2402a0,0,0,0,1,0,0V239.2256A6.0811,6.0811,0,0,1,289.3213,233.1445Z" class="colorf4bf62 svgShape"/><path fill="#f9c67f" d="M301.6543,272.6797A10.03075,10.03075,0,1,0,291.624,282.71,10.03119,10.03119,0,0,0,301.6543,272.6797Z" class="colorf9d77f svgShape"/><path fill="#ffffff" d="M291.7597,278.9561c-2.374-.4287-5.6377-2.2959-6.2509-4.8057-.2188-.8945-1.6006-.5156-1.3819.3818.7315,2.9922,4.3819,5.2871,7.252,5.8057C292.2803,280.501,292.6679,279.1201,291.7597,278.9561Z" class="colorfff svgShape"/><polygon fill="#ffe9ca" points="291.713 227.34 233.35 271.2 350.075 271.2 291.713 227.34" class="colordfcaff svgShape"/><path fill="#f2d6af" d="M289.3095,221.918h4.8076a3.0176,3.0176,0,0,1,3.0176,3.0176v4.8085a3.0176,3.0176,0,0,1-3.0176,3.0176h-4.8085a3.0176,3.0176,0,0,1-3.0176-3.0176v-4.8076A3.0185,3.0185,0,0,1,289.3095,221.918Z" class="colorc5aff2 svgShape"/><path fill="#ffe9ca" d="M662.3428,539.294l.624-16.1006-10.1182-1.2744a40.59646,40.59646,0,0,0-4.9033-13.2559l6.8623-7.5449L643.874,489.3027l-8.0537,6.2559a40.6427,40.6427,0,0,0-12.835-5.915l-.4873-10.1866-16.1006-.625-1.2744,10.1182a40.81949,40.81949,0,0,0-13.2558,4.9033l-7.544-6.8613-11.8164,10.9326,6.2559,8.0537a40.63584,40.63584,0,0,0-5.9141,12.836l-10.1875.4863-.624,16.1006,10.1182,1.2744a40.80918,40.80918,0,0,0,4.9023,13.2558l-6.8613,7.545,10.9336,11.8154,8.0527-6.2559a40.81459,40.81459,0,0,0,12.8359,5.9151l.4864,10.1865,16.1015.625,1.2744-10.1191a40.62056,40.62056,0,0,0,13.2549-4.9024l7.5449,6.8613,11.8164-10.9326-6.2568-8.0537a40.80655,40.80655,0,0,0,5.9151-12.8359ZM611.374,558.3535a29.07852,29.07852,0,1,1,30.1846-27.9287A29.07845,29.07845,0,0,1,611.374,558.3535Z" class="colordfcaff svgShape"/><path fill="#f2d6af" d="M853.6103,658.21H639.7246a9.77985,9.77985,0,0,1-9.9004-11.5196l18.96-145.7754a13.706,13.706,0,0,1,13.1386-11.5195H875.8086a9.77953,9.77953,0,0,1,9.9013,11.5195L866.749,646.6904A13.70544,13.70544,0,0,1,853.6103,658.21Z" class="colorc5aff2 svgShape"/><path fill="#ffe9ca" d="M839.8213,647.3457H625.9355a9.77889,9.77889,0,0,1-9.9004-11.5195l18.96-134.9112a13.706,13.706,0,0,1,13.1387-11.5195H862.0195a9.77964,9.77964,0,0,1,9.9014,11.5195l-18.961,134.9112A13.70691,13.70691,0,0,1,839.8213,647.3457Z" class="colordfcaff svgShape"/><path fill="#ffffff" d="M832.3252,641.169H635.167a9.01468,9.01468,0,0,1-9.126-10.6192l17.4775-124.3594a12.63383,12.63383,0,0,1,12.1114-10.6181H852.7881a9.01378,9.01378,0,0,1,9.1259,10.6181L844.4365,630.5498A12.63464,12.63464,0,0,1,832.3252,641.169Z" class="colorfff svgShape"/><rect width="24.235" height="5.432" x="550.565" y="628.098" fill="#f2d6af" class="colorc5aff2 svgShape"/><rect width="24.235" height="5.432" x="579.084" y="628.098" fill="#f2d6af" class="colorc5aff2 svgShape"/><rect width="24.236" height="5.432" x="607.602" y="628.098" fill="#f2d6af" class="colorc5aff2 svgShape"/><rect width="80.339" height="5.432" x="636.121" y="628.098" fill="#f2d6af" class="colorc5aff2 svgShape"/><rect width="24.235" height="5.432" x="721.678" y="628.098" fill="#f2d6af" class="colorc5aff2 svgShape"/><rect width="24.236" height="5.432" x="750.196" y="628.098" fill="#f2d6af" class="colorc5aff2 svgShape"/><rect width="24.235" height="5.432" x="778.715" y="628.098" fill="#f2d6af" class="colorc5aff2 svgShape"/><rect width="24.236" height="5.432" x="807.233" y="628.098" fill="#f2d6af" class="colorc5aff2 svgShape"/><path fill="#f2d6af" d="M534.6865,633.5557H853.9287a0,0,0,0,1,0,0v10.3301A14.3242,14.3242,0,0,1,839.6045,658.21H549.0107a14.3242,14.3242,0,0,1-14.3242-14.3242V633.5557A0,0,0,0,1,534.6865,633.5557Z" class="colorc5aff2 svgShape"/><rect width="319.49" height="9.093" x="534.341" y="633.544" fill="#ffe9ca" class="colordfcaff svgShape"/><path fill="#f9c67f" d="M334.374,630.4063c10.5166,23.6425,48.7773,35.0781,112.6191,28.6142,44.9981-4.5498,52.2569-22.374,47.9063-48.4785-3.5547-21.2803-41.293-41.0449-41.293-41.0449-10.8642-30.2051-34.7558-66.7754-67.2978-65.8057h-.0244a45.24678,45.24678,0,0,0-11.3125,1.8145c-18.2227,5.2705-30.0069,17.7754-37.2413,33.0898a94.8908,94.8908,0,0,0-5.7675,15.9854C324.206,583.7676,328.4082,616.9815,334.374,630.4063Z" class="colorf9d77f svgShape"/><path fill="#ffbf66" d="M374.9814,593.5s33.3965-22.6601,72.0137-19.0947C446.9951,574.4053,412.0791,552.583,374.9814,593.5Z" class="colorf4bf62 svgShape"/><path fill="#ffd69c" d="M393.0166 619.5117c1.9873 11.6319 23.5547 17.6514 48.1709 13.4453 24.6172-4.206 42.9619-17.0449 40.9736-28.6767-1.9863-11.6319-15.0225-22.044-48.1699-13.4453C409.8174 597.1055 391.0293 607.8799 393.0166 619.5117zM411.0039 522.3565c-3.8281-11.1622-18.6719-16.1836-33.1543-11.2159-14.4824 4.9668-23.1192 18.042-19.2901 29.2041 3.8282 11.1621 14.3047 20.7403 33.1543 11.2159C405.4599 544.6162 414.832 533.5186 411.0039 522.3565z" class="colorffe09c svgShape"/><path fill="#ffbf66" d="M331.9648,554.5869l-.0019-.0058c.0088-.0323.0185-.0645.0273-.0957q.5157-1.93215,1.1045-3.834c.0703-.2295.1475-.4551.2197-.6836q.4995-1.5777,1.0479-3.1319c.1025-.289.207-.5751.3115-.8623q.55815-1.53075,1.169-3.0341c.0957-.2354.1875-.4717.2841-.7061.5108-1.2266,1.0391-2.4434,1.6035-3.6377,7.2344-15.3144,19.0186-27.8193,37.2413-33.0898a45.24678,45.24678,0,0,1,11.3125-1.8145h.0244s-51.0127,7.3418-48.6973,66.8682c1.9092,49.0986,34.126,77.8857,78.1484,79.7597,84.5264,3.5987,79.1397-39.7773,79.1397-39.7773,4.3506,26.1045-2.9082,43.9287-47.9063,48.4785-63.8418,6.4639-102.1025-4.9717-112.6191-28.6142C328.4179,616.9873,324.2051,583.7676,331.9648,554.5869Z" class="colorf4bf62 svgShape"/><path fill="#d69e50" d="M397.3076 415.3525s-12.1348 24.5254 14.5566 39.8897L414.331 434.79l-9.2754-14.666zM508.9804 647.125c-2.4003 1.1162-4.2646 8.6406-4.2646 8.6406h22.3135s-5.2266-2.081-10.3633-4.374C510.792 648.7715 510.8603 646.251 508.9804 647.125z" class="color6650d6 svgShape"/><rect width="22.314" height="1.998" x="504.716" y="655.766" fill="#996d30" transform="rotate(180 515.873 656.765)" class="color4c3099 svgShape"/><path fill="#d69e50" d="M469.4853,647.125c-2.4004,1.1162-4.2646,8.6406-4.2646,8.6406h22.3135s-5.2266-2.081-10.3633-4.374C471.2969,648.7715,471.3662,646.251,469.4853,647.125Z" class="color6650d6 svgShape"/><rect width="22.314" height="1.998" x="465.221" y="655.766" fill="#996d30" transform="rotate(180 476.377 656.765)" class="color4c3099 svgShape"/><path fill="#7a5520" d="M502.331,565.5059c4.7305,7.1767,11.5098,84.3828,11.5098,84.3828l-7.8125,1.7666L483.0674,582.958s-36.1973-1.165-40.6612-8.2051c-4.1875-6.6035-4.1875-18.247-4.1875-18.247,2.0479.0888-11.5185-11.503-11.5185-11.503C457.7549,545.0029,498.7412,560.0586,502.331,565.5059Z" class="color34207a svgShape"/><path fill="#604115" d="M483.0674,582.958l22.9609,68.6973,2.6494-.6309s-18.3555-76.5146-20.9512-83.0713c-4.7236-11.9306-41.5156-20.124-41.5156-20.124l16.9756,33.1504S480.8467,583.8213,483.0674,582.958Z" class="color221560 svgShape"/><path fill="#7a5520" d="M482.5957,570.2363c2.5732,6.9512-8.8975,79.2549-8.8975,79.2549l-6.8984.209-9.8115-67.3945s-47.7217,4.2832-52.1866-2.7569c-4.1875-6.6035-6.6298-25.8935-6.6298-25.8935,2.0478.0888,21.4599-8.8633,21.4599-8.8633C450.6865,544.792,480.331,564.1182,482.5957,570.2363Z" class="color34207a svgShape"/><path fill="#604115" d="M461.2959,578.0693c2.5722,6.9522,8.9746,71.5264,8.9746,71.5264l-3.4707.1045-9.8115-67.3945s-47.7217,4.2832-52.1866-2.7569c-4.1875-6.6035-6.6298-25.8935-6.6298-25.8935,2.0478.0888,21.4599-8.8633,21.4599-8.8633C391.3369,595.6289,459.0303,571.9512,461.2959,578.0693Z" class="color221560 svgShape"/><path fill="#d69e50" d="M438.5556,470.6065c12.0166.7783,28.6631,46.7851,37.1895,56.2441,7.3682,8.1748-17.1133,18.7812-23.3232,14.6855C446.2119,537.4424,431.4619,470.1465,438.5556,470.6065Z" class="color6650d6 svgShape"/><path fill="#996d30" d="M438.5556,470.6065c13.5704,11.9003,6.6485,71.9316,28.6631,66.916,0,0-9.5166,8.8427-14.7968,4.0136C439.0888,529.3438,412.4463,471.5986,438.5556,470.6065Z" class="color4c3099 svgShape"/><path fill="#f5c179" d="M437.4062,451.3965c-.2549.6465-.4892,1.2529-.665,1.8203a31.5154,31.5154,0,0,0-1.0967,4.5606,34.64748,34.64748,0,0,0-.5088,4.208,39.14771,39.14771,0,0,0,.1572,7.2617c-11.9003,5.8711-24.7988-2.2119-24.7988-2.2119a39.11232,39.11232,0,0,0,1.3701-5.7344,88.18589,88.18589,0,0,0,1.0762-9.5713.73361.73361,0,0,0,.0195-.1953.79486.79486,0,0,0,.0205-.1377Z" class="colorf5b379 svgShape"/><path fill="#f2b766" d="M437.4062,451.3965c-.2549.6465-.4892,1.2529-.665,1.8203a18.76606,18.76606,0,0,0-1.0967,4.5606,34.64748,34.64748,0,0,0-.5088,4.208c-5.6562,2.4863-12.0371,3.4843-16.6758,2.4863a15.79866,15.79866,0,0,1-6.5957-3.1709,88.18589,88.18589,0,0,0,1.0762-9.5713.73361.73361,0,0,0,.0195-.1953.79486.79486,0,0,0,.0205-.1377Z" class="colorf29866 svgShape"/><path fill="#d69e50" d="M409.7763,463.9131s-15.7861,10.4385-21.6582,15.0059c0,0,11.0909,67.5234,9.6231,87.749,0,0,47.4629-8.1553,56.5967-18.5938,0,0-9.1338-24.1396-9.1338-41.7539,0-17.6162-1.6309-33.5996-8.8076-38.166C436.3965,468.1543,425.4345,475.3301,409.7763,463.9131Z" class="color6650d6 svgShape"/><path fill="#996d30" d="M393.0107,511.5391s6.6846,46.4834,4.7305,55.1289c0,0,13.2558-1.8008,21.5293-4.5449,0,0-16.7871-24.9864-16.3623-40.9161.8945-33.5009-14.5742-42.3662-14.5742-42.3662S395.9472,504.6885,393.0107,511.5391Z" class="color4c3099 svgShape"/><path fill="#d69e50" d="M388.334,478.8408c-15.3428,9.5186-22.3741,52.334-16.2579,78.7344,1.9229,8.2988,11.6133,7.9766,19.9307,2.3691,5.875-3.9609,2.4795-8.6835,3.0459-10.3964,1.419-4.2842,5.791-37.6827,5.791-37.6827S398.8066,489.8027,388.334,478.8408Z" class="color6650d6 svgShape"/><path fill="#f5c179" d="M447.5957,549.0615a32.67262,32.67262,0,0,0-9.3926,2.8721c-1.1455.5547-1.8877,1.085-2.0771,2.2959a1.29677,1.29677,0,0,0,.1543,1.8135c3.2412,2.4385,5.8857,1.6914,9.0722-.3184,3.2969-2.0801,4.9893-.4033,7.9229.8682,1.0869.4717,1.6904.7129,2.7334.1738a1.21,1.21,0,0,0,.4843-1C456.7783,551.7334,450.3359,548.7188,447.5957,549.0615Z" class="colorf5b379 svgShape"/><path fill="#f5c179" d="M450.623,546.917a39.1438,39.1438,0,0,0-9.4834,1.624c-1.164.3584-3.6894-1.0429-3.9228-.1084-.3965.3584-.4805,3.5772.1172,3.9805,3.1464,2.1221,7.5468.9268,10.8027-.4336,3.3691-1.4082,4.9961.0146,7.8779,1.2031a3.33033,3.33033,0,0,0,2.7237.3174.87773.87773,0,0,0,.5205-.75C459.6924,549.6152,453.372,546.8311,450.623,546.917Z" class="colorf5b379 svgShape"/><path fill="#f5c179" d="M451.9687,545.6582a39.11014,39.11014,0,0,0-9.4843,1.624c-1.1641.3584-1.9249.7237-2.1592,1.6582a.87441.87441,0,0,0,.0869,1.4287c3.1465,2.1211,5.8144,1.712,9.0703.3516,3.3691-1.4082,4.9961.0147,7.8779,1.2031a3.33,3.33,0,0,0,2.7237.3174.87773.87773,0,0,0,.5205-.75C461.0381,548.3565,454.7178,545.5713,451.9687,545.6582Z" class="colorf5b379 svgShape"/><path fill="#f5c179" d="M458.9785,548.4053l.001.001-.003-.0049a9.10419,9.10419,0,0,0-3.9384-3.542,11.48024,11.48024,0,0,0-8.0186-1.7383,89.72365,89.72365,0,0,0-12.7978,3.0039l4.748,2.3555c.4902,3.1621,6.2207,1.8789,9.167.6474,3.3691-1.4082,4.9961.0147,7.8779,1.2032a3.33065,3.33065,0,0,0,2.7237.3173.876.876,0,0,0,.5205-.75A2.66068,2.66068,0,0,0,458.9785,548.4053Z" class="colorf5b379 svgShape"/><path fill="#ffffff" d="M409.7763 463.9131s9.3594 7.96 22.3389 5.9062l-1.3935 7.4864S409.5986 473.417 409.7763 463.9131zM432.1152 469.8193l4.5537 6.2139a39.01272 39.01272 0 001.3721-6.54 5.22652 5.22652 0 00-2.8984-1.8096S434.875 469.5244 432.1152 469.8193z" class="colorfff svgShape"/><path fill="#eab771" d="M402.1142,553.6807c0,8.2353-7.4043,14.9111-16.5371,14.9111-9.1338,0-16.5381-6.6758-16.5381-14.9111,0-8.2344,7.4043-14.9102,16.5381-14.9102C394.7099,538.7705,402.1142,545.4463,402.1142,553.6807Z" class="color7c71ea svgShape"/><path fill="#f5c179" d="M407.6963,443.9551s.9638,10.2002,6.5673,15.5586c3.8174,3.6504,19.7852,4.3994,24.2569-1.3369,5.7344-7.3555,2.791-38.0909,1.5-40.7393s-23.6914-12.4775-31.2959-1.6504C401.1191,426.6152,407.6963,443.9551,407.6963,443.9551Z" class="colorf5b379 svgShape"/><path fill="#d69e50" d="M442.1679,396.0664c-7.8037,8.7793-35.7587-2.2383-43.4003,16.2451a10.07518,10.07518,0,0,1-1.9639-6.7588c.0781-1.2539-1.877-1.1552-1.9551.0928a11.81738,11.81738,0,0,0,2.2559,7.751,20.03542,20.03542,0,0,0-5.4698,2.0635c-1.0888.6386-.041,2.291,1.0459,1.6543a17.345,17.345,0,0,1,4.627-1.7618c-2.2148,2.8702-4.9395,17.543,2.0371,26.9815,1.8887,2.5527,4.5557,2.4912,5.7109,1.4189,4.712-4.372,6.0704-13.1035,6.3497-23.6289,6.7236-4.0019,20.4843-4.5341,28.6152-2.6865C444.9013,418.5459,447.497,402.5625,442.1679,396.0664Z" class="color6650d6 svgShape"/><path fill="#996d30" d="M442.1679,396.0664c1.3643,4.1807,1.1778,11.5078-4.1367,13.9356-8.2685,3.7783-33.6953-4.1514-31.3642,5.3505,3.1084,12.6778-2.7666,29.4727-1.6114,28.4004,4.712-4.372,6.0704-13.1035,6.3497-23.6289,6.7236-4.0019,20.4843-4.5341,28.6152-2.6865C444.9013,418.5459,447.497,402.5625,442.1679,396.0664Z" class="color4c3099 svgShape"/><path fill="#f5c179" d="M408.4648,436.9424c-1.5459-1.584-8.0918-3.4688-8.9111-.8516-1.3106,4.1866,3.7461,12.2627,9.7832,8.9864C411.5381,443.8828,409.8047,438.3174,408.4648,436.9424Z" class="colorf5b379 svgShape"/><path fill="#f2b766" d="M407.3115,439.6094s-4.7969-3.1455-5.249-1.7207c-.8838,2.7803,3.0654,5.0752,4.1972,5.4785,0,0-2.205-2.418-1.6367-3.458C405.1924,438.8701,407.3115,439.6094,407.3115,439.6094Z" class="colorf29866 svgShape"/><rect width="63.322" height="2.773" x="451.676" y="561.444" fill="#d6891e" class="color1eb4d6 svgShape"/><polygon fill="url(#e)" points="451.676 564.218 423.058 559.798 423.058 557.024 451.676 561.444 451.676 564.218"/><polygon fill="url(#t)" points="423.058 557.024 494.913 554.921 514.998 561.444 451.676 561.444 423.058 557.024"/><path fill="#d6891e" d="M513.2138,561.4443H450.1426l8.3027-38.833a2.379,2.379,0,0,1,2.2842-1.9384h56.8008a3.68566,3.68566,0,0,1,3.4257,4.5654Z" class="color1eb4d6 svgShape"/><path fill="url(#u)" d="M514.747,561.4443H451.6758l8.3037-38.833a2.37712,2.37712,0,0,1,2.2832-1.9384h57.997a2.68361,2.68361,0,0,1,2.4942,3.3242Z"/><path fill="url(#f)" d="M514.747,561.4443H465.9492l33.2031-40.7714h21.1074a2.68361,2.68361,0,0,1,2.4942,3.3242Z"/><path fill="#f5c179" d="M373.3174,555.4541c-.1983,1.9551,1.3349,10.8994,8.9707,11.2139,18.9004.7783,55.9306-10.1621,55.9306-10.1621l-.1777-11.2627s-50.0527-1.8213-56.1611-.2403C375.7636,546.5859,373.8066,550.6211,373.3174,555.4541Z" class="colorf5b379 svgShape"/><path fill="#f2b766" d="M374.417,560.7256a56.32035,56.32035,0,0,0,19.3291,1.2529c11.3759-1.0801,44.4726-5.4726,44.4726-5.4726s-43.9931,13.2715-58.2402,9.7529A7.772,7.772,0,0,1,374.417,560.7256Z" class="colorf29866 svgShape"/><path fill="#281f12" d="M429.4648 453.7266a5.97143 5.97143 0 01-1.4619-.1807 7.46118 7.46118 0 01-4.3867-3.5469.49988.49988 0 01.8877-.4599 6.54423 6.54423 0 003.7529 3.039c1.667.417 3.5225-.0556 5.5098-1.414a.50025.50025 0 11.5644.8261A8.72456 8.72456 0 01429.4648 453.7266zM434.0078 434.1631a2.33228 2.33228 0 002.3808 2.0742 2.24251 2.24251 0 001.5635-2.8281 2.27824 2.27824 0 00-2.5312-2.0596A2.30206 2.30206 0 00434.0078 434.1631zM419.9638 436.1221a2.5925 2.5925 0 002.6465 2.3047 2.49329 2.49329 0 001.7373-3.1436 2.28546 2.28546 0 10-4.3838.8389zM430.8457 445.8535a8.16082 8.16082 0 01-1.7529-.1465.49975.49975 0 11.2949-.955c.6006.1845 3.4062.1543 3.7578-.2754-.1485-.2315-.3389-.5791-.6035-1.0606a40.99549 40.99549 0 01-2.4414-5.2451.50031.50031 0 01.9316-.3652 39.82724 39.82724 0 002.3867 5.1289 11.49794 11.49794 0 01.6358 1.2666.88231.88231 0 01-.1768.956C433.376 445.7002 432.0049 445.8535 430.8457 445.8535zM415.1826 430.7617a1 1 0 01-.6856-1.7275 10.82117 10.82117 0 019.6944-2.624 1 1 0 01-.5078 1.9345 8.80282 8.80282 0 00-7.8155 2.1446A.99383.99383 0 01415.1826 430.7617zM439.8428 428.0606a.99255.99255 0 01-.6319-.2266 7.1853 7.1853 0 00-7.0234-1.041 1.00014 1.00014 0 01-.7871-1.8389 9.19105 9.19105 0 019.0761 1.333.99992.99992 0 01-.6337 1.7735z" class="color161228 svgShape"/><rect width="9.541" height="102.562" x="206.563" y="543.545" fill="#996d30" transform="rotate(180 211.333 594.826)" class="color4c3099 svgShape"/><path fill="#7a5520" d="M210.1211,574.9502h2.4238a7.252,7.252,0,0,1,7.252,7.252v11.4794a7.251,7.251,0,0,1-7.251,7.251H210.122a7.2519,7.2519,0,0,1-7.2519-7.2519V582.2012A7.251,7.251,0,0,1,210.1211,574.9502Z" transform="rotate(180 211.333 587.941)" class="color34207a svgShape"/><path fill="#996d30" d="M212.8857,506.8359H148.4746l19.668,82.3448h65.1416l-13.4873-74.2842C219.7969,509.8799,214.8017,506.8359,212.8857,506.8359Z" class="color4c3099 svgShape"/><path fill="#996d30" d="M190.8799,591.3281s66.9101,4.6055,75.6318-2.1474c2.3691-1.834,2.5557-11.9258-5.2959-11.9258H195.8095Z" class="color4c3099 svgShape"/><path fill="#7a5520" d="M147.1738,507.0293c5.0508-.9541,7.5156,1.832,8.0723,3.665l13.7685,66.5606h36.4346c6.1934,0,11.0527,8.5166,5.8838,11.9258-7.1494,4.7168-38.3789,1.2793-46.6592-1.2393-11.4609-3.4853-22.1143-72.3769-22.1143-72.3769C142.1601,511.0244,144.1074,507.6094,147.1738,507.0293Z" class="color34207a svgShape"/><path fill="#996d30" d="M185.6826,648.9688h51.3008a5.72442,5.72442,0,0,0-5.7246-5.7237H191.4072a5.72442,5.72442,0,0,0-5.7246,5.7237Z" class="color4c3099 svgShape"/><path fill="#7a5520" d="M225.9619,651.8311a4.29345,4.29345,0,1,0,4.293-4.293A4.29273,4.29273,0,0,0,225.9619,651.8311Z" class="color34207a svgShape"/><path fill="#996d30" d="M227.4795,651.8311a2.77585,2.77585,0,1,0,2.7754-2.7754A2.77548,2.77548,0,0,0,227.4795,651.8311Z" class="color4c3099 svgShape"/><path fill="#7a5520" d="M207.04,651.8311a4.293,4.293,0,1,0,4.293-4.293A4.29273,4.29273,0,0,0,207.04,651.8311Z" class="color34207a svgShape"/><circle cx="211.333" cy="651.831" r="2.775" fill="#996d30" class="color4c3099 svgShape"/><path fill="#7a5520" d="M188.1181,651.8311a4.293,4.293,0,1,0,4.293-4.293A4.29273,4.29273,0,0,0,188.1181,651.8311Z" class="color34207a svgShape"/><circle cx="192.411" cy="651.831" r="2.775" fill="#996d30" class="color4c3099 svgShape"/><path fill="#f7960d" d="M235.082,436.999s6.2529,4.6045,5.4522,18.5684c-1.2793,22.3125,11.0986,23.9814,5.1328,35.2969-2.9317,5.5605-13.5401,7.209-17.4561,7.3066-3.916.0967-14.7578-40.4961-14.7578-40.4961Z" class="color483670 svgShape"/><path fill="#665030" d="M234.7588,435.9678s4.7109,22.4717,2.8037,29.958c-2.3516,9.2266-.0869,18.9863-4.4033,27.3144,0,0-30.6797-3.8476-32.8448-5.749-2.166-1.9004,5.3799-55.4726,7.6534-55.9267C210.2422,431.1094,234.7588,435.9678,234.7588,435.9678Z" class="color3e3066 svgShape"/><path fill="#ffc87b" d="M290.3906,568.9815c4.3564,7.1767,13.2256,79.6484,13.2256,79.6484l-4.8233.3555-22.6943-66.0977s-36.7881-5.2519-40.8994-12.292c-3.8564-6.6035-3.8564-18.2471-3.8564-18.2471,1.8857.0889-10.0313-8.125-10.0313-8.125C249.9131,544.2236,287.083,563.5342,290.3906,568.9815Z" class="colorff7bb1 svgShape"/><path fill="#f9b453" d="M276.0986,582.8877l22.7149,65.9941,1.3242,1.3165s-17.0489-68.6915-19.4405-75.2481c-4.3505-11.9307-46.4443-26.4453-46.4443-26.4453l-17.1035,14.332S274.0517,583.751,276.0986,582.8877Z" class="colorf9539e svgShape"/><path fill="#ffc87b" d="M272.2138,573.7119c2.3702,6.9512-21.5488,76.4864-21.5488,76.4864l-3.208-.9043,3.6963-65.71s-47.6738-3.7256-51.7852-10.7656c-3.8564-6.6035.6914-24.2666.6914-24.2666,1.8858.0879,13.3731-2.9825,13.3731-2.9825C231.3428,552.3486,270.1279,567.5938,272.2138,573.7119Z" class="colorff7bb1 svgShape"/><path fill="#f9b453" d="M255.8916,580.2393c2.3701,6.9521-8.2227,70.3769-8.2227,70.3769l-.2119-1.3222,3.6963-65.71s-47.6738-3.7256-51.7852-10.7656c-3.8564-6.6035.6914-24.2666.6914-24.2666,1.8858.0879,25.9024,5.8418,25.9024,5.8418-8.6328,4.663-15.9746,10.8252-7.2715,14.4189C235.4424,575.7305,254.5185,576.2129,255.8916,580.2393Z" class="colorf9539e svgShape"/><path fill="#f5c179" d="M277.9072,529.5674a22.301,22.301,0,0,0,1.8731,1.2949.24034.24034,0,0,0,.0498.0576,9.68827,9.68827,0,0,0,3.0869,1.7041,13.4462,13.4462,0,0,0,3.9824-.0537c.2705-.0176.4043-.2461.2959-.416-.7188-1.1338-2.2774-.6387-3.544-.9756a9.05981,9.05981,0,0,0,1.1495-.5332,5.66882,5.66882,0,0,1,2.3867.8447,5.163,5.163,0,0,0,2.8506,1.0489.39852.39852,0,0,0,.3877-.2237c.1298-.3349-.2745-.5625-.5664-.7988-.2061-.166-.4346-.3379-.6514-.5098a4.14709,4.14709,0,0,0,2.0713.5938.39787.39787,0,0,0,.3886-.2246c.1299-.334-.2753-.5625-.5673-.7979-.0459-.0371-.0987-.0761-.1455-.1142.0517.0029.0918.0156.1445.0166a.399.399,0,0,0,.3887-.2237c.1298-.3349-.2754-.5634-.5674-.7988-.3887-.3135-.7979-.6474-1.2295-.9639a4.07806,4.07806,0,0,0,.6963-.0302.33213.33213,0,0,0,.3095-.2813c.0264-.3496-.4336-.5117-.7851-.6982a18.22008,18.22008,0,0,0-3.0791-1.4043c-1.8047-.5547-8.1846-.207-9.2363,1.0918l.0019.0049A1.31726,1.31726,0,0,0,277.9072,529.5674Z" class="colorf5b379 svgShape"/><path fill="#eab771" d="M219.9775,481.999c-3.6299,1.3565-.2041,16.4473,21.211,46.0508,5.4882,7.586,15.3984.2236,12.5664-4.4873-2.833-4.71-16.5411-26.1767-16.5411-26.1767S226.748,479.4697,219.9775,481.999Z" class="color7c71ea svgShape"/><path fill="#d69e50" d="M219.9775,481.999c-3.6299,1.3565-.2041,16.4473,21.211,46.0508-5.6602-18.2178-4.8604-21.1797-7.0723-29.1367C232.6406,493.6035,226.748,479.4697,219.9775,481.999Z" class="color6650d6 svgShape"/><path fill="#d6891e" d="M242.2871,528.9004c.0166,1.458,3.9834,3.0713,9.8408,3.4697,4.583.3106,26.8106-1.7099,26.8106-1.7099l1.7822-4.5401s-25.5742-3.8633-30.3936-2.8135C245.5088,524.3574,242.251,525.6504,242.2871,528.9004Z" class="color1eb4d6 svgShape"/><path fill="#eab771" d="M242.2861,545.9863c-20.5605,15.9512-46.457,9.7452-46.457,9.7452s11.4795-26.3174,6.917-52.0889c-1.0078-5.6895-1.3164-10.8809-2.1856-13.334-1.1592-3.2783,1.8955-5.9092,4.5713-7.5146.5801-.334,1.1377-.6241,1.627-.8692,1.0927-.5351,1.873-.8252,1.873-.8252s2.4756-.3115,10.1016-.8252c2.0293-.1328,3.9238.9365,5.6181,2.7432,6.9131,7.3574,11.0606,27.1357,10.9268,31.3945-.1563,5.3067-5.4639,5.5518-5.4639,5.5518C230.4013,529.9775,242.2861,545.9863,242.2861,545.9863Z" class="color7c71ea svgShape"/><path fill="#d69e50" d="M229.8174 519.9561s-7.6104.0488-12.4883-1.337c0 0 6.0762 5.252 13.0722 4.9297zM201.4287 492.1777a253.472 253.472 0 011.4648 37.0508c-.3115 8.834-7.0644 26.503-7.0644 26.503s13.2783 2.2978 22.8613.3486c0 0-7.4336.4619-6.0859-11.8008 1.3466-12.2637-4.9766-47.085-9.0645-53.5889C199.4511 484.1875 201.4287 492.1777 201.4287 492.1777z" class="color6650d6 svgShape"/><path fill="#f5c179" d="M209.9892,535.5186c2.9844-3.7627,12.1289,3.7275,13.9971,6.1611a.898.898,0,0,1-.6377,1.4238c.1309.169.2715.3311.3975.503.6211.8457-.5752,1.9882-1.2041,1.1298-.041-.0556-.0899-.1045-.1319-.1601a.90955.90955,0,0,1-1.3261-.1465c-.1729-.2422-.375-.457-.5577-.6914-.2168.417-.6816.1025-1.1015-.2412-1.6172-1.3203-2.5674-2.3936-4.1309-3.5196-1.7285-.206-3.8554-.4462-5.1435-1.5595A1.82758,1.82758,0,0,1,209.9892,535.5186Z" class="colorf5b379 svgShape"/><path fill="#eab771" d="M209.0781,485.9834c-.335,3.5899-2.252,9.5879-6.332,17.6592-3.7237,7.4473-8.9366,15.3594-16.8135,26.0371-5.0166,6.8008-13.5147-1.4121-10.6826-6.1172,2.832-4.7041,15.499-26.0293,15.499-26.0293s7.4258-12.6875,13.8252-15.207a5.11318,5.11318,0,0,1,2.1846-.4014,3.98057,3.98057,0,0,1,1.249.2227C208.8779,482.4824,209.2783,483.7754,209.0781,485.9834Z" class="color7c71ea svgShape"/><path fill="#eab771" d="M175.5224,525.666c.4424-1.3896,2.6993-1.7959,8.418-.4638,4.4727,1.0429,28.1631,8.955,28.1631,8.955l-.6397,5.4063s-25.5869-3.7832-29.8877-6.1973C177.2754,530.9531,174.5381,528.7627,175.5224,525.666Z" class="color7c71ea svgShape"/><path fill="#d69e50" d="M224.3515 483.0176c-1.6943-1.8067-3.5888-2.876-5.6181-2.7432-7.626.5137-10.1016.8252-10.1016.8252s-.7803.2901-1.873.8252a5.11318 5.11318 0 00-2.1846.4014c.1787.1562.3789.3125.5576.4678 1.3154 1.0488 2.6309 2.1181 3.9463 3.1894.8916.7354 1.8066 1.4707 2.6982 2.207 1.917 1.5606 4.0127 3.9239 6.3545 4.9053 3.3672 1.4053 5.3516-1.873 5.9092-4.7051A17.46789 17.46789 0 00224.3515 483.0176zM205.5693 497.626s-1.3848 7.2617-16.8105 28.6758c3.3701 1.2265 13.9941 4.7656 13.9941 4.7656s-20.918-3.1279-18.8125-5.8652C187.8428 520.1299 205.5693 497.626 205.5693 497.626z" class="color6650d6 svgShape"/><path fill="#f5c179" d="M220.6865,467.1279a84.066,84.066,0,0,0-.0537,14.4678c-2.2383,6.8164-12.919.1201-12.919.1201.1553-1.4218.2149-3.1465.2217-4.8662.0156-3.5234-.1992-7.0371-.2763-8.0537a.96012.96012,0,0,0-.0059-.165c.001-.083-.002-.1153-.002-.1153Z" class="colorf5b379 svgShape"/><path fill="#f2b766" d="M220.7275,469.2705c-.0781.5547-.1494,1.0742-.1933,1.5586a23.47188,23.47188,0,0,0-.1797,3.8701c-.0137,1.2578.0478,3.208.039,4.5283-2.7978,2.3965-10.3076-2.4921-12.5049-5.791-.1054-3.5859-.621-7.9814-.621-7.9814Z" class="colorf29866 svgShape"/><path fill="#eab771" d="M220.4687 481.5957c-1.8047 4.2871-10.1181 1.2637-12.6484-.2119-1.2412-.7246-2.1904.5605-.9502 1.2842 4.0547 2.3642 13.6943 5.1963 14.8252-.9307C221.8174 481.0811 220.8701 480.6416 220.4687 481.5957zM300.3535 647.3262c-2.0342.8232-3.6895 7.7304-3.6895 7.7304h18.8985a45.75575 45.75575 0 01-8.7002-4.5839C302.5068 647.6231 301.9453 646.6807 300.3535 647.3262z" class="color7c71ea svgShape"/><rect width="18.898" height="1.474" x="296.664" y="655.057" fill="#d69e50" transform="rotate(180 306.113 655.793)" class="color6650d6 svgShape"/><path fill="#eab771" d="M248.1523,647.3262c-2.0332.8232-3.6894,7.7304-3.6894,7.7304h18.8984a45.75575,45.75575,0,0,1-8.7002-4.5839C250.3056,647.6231,249.7441,646.6807,248.1523,647.3262Z" class="color7c71ea svgShape"/><rect width="18.898" height="1.474" x="244.463" y="655.057" fill="#d69e50" transform="rotate(180 253.912 655.793)" class="color6650d6 svgShape"/><rect width="63.323" height="2.772" x="237.381" y="555.101" fill="#d6891e" class="color1eb4d6 svgShape"/><polygon fill="url(#v)" points="237.381 557.873 208.763 553.453 208.763 550.681 237.381 555.101 237.381 557.873"/><polygon fill="#d6891e" points="208.763 550.681 280.618 548.576 300.704 555.101 237.381 555.101 208.763 550.681" class="color1eb4d6 svgShape"/><path fill="url(#w)" d="M298.9189,555.1006H235.8476l8.3037-38.833a2.37813,2.37813,0,0,1,2.2832-1.9385h56.8018a3.68479,3.68479,0,0,1,3.4248,4.5645Z"/><path fill="url(#x)" d="M300.4521,555.1006H237.3808l8.3037-38.833a2.37815,2.37815,0,0,1,2.2833-1.9385h57.998a2.68364,2.68364,0,0,1,2.4941,3.3242Z"/><path fill="url(#y)" d="M300.4521,555.1006H251.6543l33.2041-40.7715h21.1074a2.68364,2.68364,0,0,1,2.4941,3.3242Z"/><path fill="#f5c179" d="M203.9072,444.3262s.3193,18.9912,4.6738,25.5322c3.752,5.6367,9.9131,11.2168,16.5674,8.9336,8.4531-2.8994,10.8613-17.2373,9.9873-29.7246C234.0488,433.5361,219.2597,427.3057,203.9072,444.3262Z" class="colorf5b379 svgShape"/><path fill="#f7960d" d="M206.5703,442.7432a34.07349,34.07349,0,0,1,.96,13.6103c-1.7413-1.333-5.2208-.8056-5.2208-.8056s-11.7451-10.8868-7.4667-20.2422c-.002-.0196.0175-.0205.0166-.0401a18.84706,18.84706,0,0,1,7.1162-8.3779c8.1464-5.0439,18.1406-1.625,18.1406-1.625,17.3193-6.1074,26.5449,10.2568,22.8467,16.0625C237.8877,449.291,206.5703,442.7432,206.5703,442.7432Z" class="color483670 svgShape"/><path fill="#f7960d" d="M194.8428,435.3057s-3.7618,12.1133-4.0098,20.8935c-.249,8.7803-17.5596,27.8116-3.8125,41.628,3.7842,3.8046,19.4922,5.5537,25.8721.7851s2.9531-12.9609-1.002-17.167c-3.9561-4.207-6.124-12.7978-5.334-17.2392,2.5508-14.3477.0137-21.4629.0137-21.4629Z" class="color483670 svgShape"/><path fill="#f5c179" d="M208.2275,456.9297c-1.4795-1.4424-6.6777-4.6475-7.5683-1.2969-1.1163,4.208,4.8496,13.7998,8.2002,8.3682A6.57494,6.57494,0,0,0,208.2275,456.9297Z" class="colorf5b379 svgShape"/><path fill="#f2b766" d="M206.9814,458.3955s-4.082-3.1426-4.0937-.8711c-.0176,3.4072,2.4804,5.3135,3.4111,5.4444a5.11917,5.11917,0,0,1-.9463-3.2979C205.5693,457.917,206.9814,458.3955,206.9814,458.3955Z" class="colorf29866 svgShape"/><path fill="#281f12" d="M222.7763 472.4463a4.972 4.972 0 01-1.5253-.2354 6.196 6.196 0 01-3.462-3.1669.5.5 0 01.9141-.4053 5.25987 5.25987 0 002.8604 2.6221 5.50016 5.50016 0 004.497-.8711.50006.50006 0 11.5117.8593A7.47951 7.47951 0 01222.7763 472.4463zM227.1562 456.5889a1.90944 1.90944 0 001.8418 1.8135 1.83527 1.83527 0 001.419-2.2325 1.86506 1.86506 0 00-1.9649-1.8095A1.88393 1.88393 0 00227.1562 456.5889zM215.583 457.4844a2.12243 2.12243 0 002.0469 2.0166 2.04033 2.04033 0 001.5761-2.4815 1.87061 1.87061 0 10-3.623.4649zM224.5791 466.0947a8.03246 8.03246 0 01-2.0498-.2343.50008.50008 0 01.3535-.9356 7.29488 7.29488 0 002.9043.0332c-.0869-.2344-.211-.4971-.3731-.8428a33.42717 33.42717 0 01-1.7373-4.4199.5.5 0 01.9512-.3086 32.59374 32.59374 0 001.6904 4.3028 9.59178 9.59178 0 01.46 1.0742.81415.81415 0 01-.2158.8672A3.16683 3.16683 0 01224.5791 466.0947zM211.9941 452.5479a.5.5 0 01-.3203-.8838 8.53211 8.53211 0 017.75-1.6006.5.5 0 01-.3115.9502 7.51128 7.51128 0 00-6.7979 1.4189A.502.502 0 01211.9941 452.5479zM232.2812 451.5772a.4994.4994 0 01-.3398-.1329 6.26715 6.26715 0 00-6.0078-1.2705.5001.5001 0 11-.3379-.9414 7.19672 7.19672 0 017.0254 1.4776.50006.50006 0 01-.3399.8672z" class="color161228 svgShape"/><path fill="#f2d6af" d="M829.7178,613.4121H612.5908a5.39959,5.39959,0,0,1-5.4688-6.2353l31.8086-259.0635a9.26617,9.26617,0,0,1,8.9414-7.9639H861.541a6.897,6.897,0,0,1,6.9863,7.9639L836.7178,607.1768A7.25266,7.25266,0,0,1,829.7178,613.4121Z" class="colorc5aff2 svgShape"/><path fill="#ffe9ca" d="M822.9765,613.4121H605.8506a5.40029,5.40029,0,0,1-5.4698-6.2353l31.8096-259.0635a9.26529,9.26529,0,0,1,8.9414-7.9639h213.668a6.89706,6.89706,0,0,1,6.9863,7.9639L829.9775,607.1768A7.25431,7.25431,0,0,1,822.9765,613.4121Z" class="colordfcaff svgShape"/><path fill="#ffffff" d="M813.4013,601.7842H618.2803a2.91837,2.91837,0,0,1-2.9561-3.3701l16.9443-138.003a3.92213,3.92213,0,0,1,3.7842-3.3711H831.1748a2.9191,2.9191,0,0,1,2.956,3.3711l-16.9443,138.003A3.92144,3.92144,0,0,1,813.4013,601.7842Z" class="colorfff svgShape"/><path fill="#d69e50" d="M859.3965,367.5811H629.7998l2.3906-19.4678a9.26529,9.26529,0,0,1,8.9414-7.9639h213.668a6.89706,6.89706,0,0,1,6.9863,7.9639Z" class="color6650d6 svgShape"/><path fill="#ffffff" d="M675.3642 353.8652a4.90232 4.90232 0 014.7305-4.2128 3.64875 3.64875 0 013.6963 4.2128 4.90143 4.90143 0 01-4.7305 4.2129A3.64884 3.64884 0 01675.3642 353.8652zM659.1533 353.8652a4.8997 4.8997 0 014.7295-4.2128 3.6488 3.6488 0 013.6963 4.2128 4.90232 4.90232 0 01-4.7305 4.2129A3.64764 3.64764 0 01659.1533 353.8652zM642.9404 353.8652a4.90224 4.90224 0 014.7305-4.2128 3.6476 3.6476 0 013.6953 4.2128 4.89978 4.89978 0 01-4.7295 4.2129A3.64879 3.64879 0 01642.9404 353.8652z" class="colorfff svgShape"/><polygon fill="#ffffff" points="841.383 350.785 843.724 348.7 846.337 351.679 849.683 348.7 851.512 350.785 848.167 353.765 850.78 356.743 848.439 358.828 845.825 355.85 842.48 358.828 840.651 356.743 843.996 353.765 841.383 350.785" class="colorfff svgShape"/><path fill="#ffa30f" d="M767.4131 542.8965H691.2656a.70893.70893 0 01-.7178-.8184.95211.95211 0 01.919-.8193h76.1465a.70918.70918 0 01.7177.8193A.95179.95179 0 01767.4131 542.8965zM677.4053 542.8965H659.5732a.70822.70822 0 01-.7168-.8184.9503.9503 0 01.918-.8193h17.832a.7085.7085 0 01.7168.8193A.95179.95179 0 01677.4053 542.8965zM765.7803 556.1865H725.2178a.70834.70834 0 01-.7178-.8183.9518.9518 0 01.9179-.8194h40.5635a.70874.70874 0 01.7178.8194A.95208.95208 0 01765.7803 556.1865zM713.1816 556.1865H657.9414a.70764.70764 0 01-.7168-.8183.9511.9511 0 01.918-.8194h55.2402a.70854.70854 0 01.7168.8194A.95189.95189 0 01713.1816 556.1865zM786.5635 568.9199H710.417a.70834.70834 0 01-.7178-.8183.95208.95208 0 01.9189-.8184h76.1465a.70867.70867 0 01.7168.8184A.95179.95179 0 01786.5635 568.9199zM696.5556 568.9199h-30.831a.70884.70884 0 01-.7178-.8183.95189.95189 0 01.918-.8184h30.832a.70837.70837 0 01.7178.8184A.9521.9521 0 01696.5556 568.9199zM784.9316 582.208H734.3691a.70894.70894 0 01-.7178-.8183.95189.95189 0 01.918-.8184h50.5635a.70817.70817 0 01.7168.8184A.95189.95189 0 01784.9316 582.208zM722.333 582.208H664.0928a.70814.70814 0 01-.7168-.8183.951.951 0 01.9179-.8184h58.2403a.70827.70827 0 01.7168.8184A.95189.95189 0 01722.333 582.208z" class="colorf2e9ff svgShape"/><path fill="#d69e50" d="M803.542 575.8721a4.81973 4.81973 0 00-1.6797.3281 2.7919 2.7919 0 00-1.0567.9014 4.96618 4.96618 0 00-.7529 1.5859 18.21645 18.21645 0 00-.4228 2.4717 22.05638 22.05638 0 01-.7559 4.0371 4.28545 4.28545 0 01-1.1865 1.8389 5.60889 5.60889 0 01-2.1905 1.0947 11.36807 11.36807 0 01-2.8916.2685h-.79l.4395-3.5742a6.97184 6.97184 0 002.1093-.2021 1.725 1.725 0 00.793-.5801 2.88871 2.88871 0 00.3965-1.2881q.12015-.90825.5537-3.4707a9.68271 9.68271 0 01.7061-2.4805 5.93978 5.93978 0 011.0654-1.5781 6.20707 6.20707 0 011.5322-1.1396 5.11755 5.11755 0 01-1.4365-1.3994 5.34829 5.34829 0 01-.6455-2.503 44.568 44.568 0 01.3242-4.5869 3.85677 3.85677 0 00-.0176-1.4892 1.04 1.04 0 00-.5996-.5733 6.84394 6.84394 0 00-2.1426-.2012l.4366-3.5595h.79a11.21652 11.21652 0 013.0449.3125 3.43041 3.43041 0 011.6709 1.0654 3.37866 3.37866 0 01.7637 1.8467 16.20578 16.20578 0 01-.1631 3.4482 17.30606 17.30606 0 00-.2129 3.5596 2.67361 2.67361 0 00.7891 1.7051 3.3127 3.3127 0 001.9677.5879zM640.789 546.9346a4.04631 4.04631 0 002.1133-.5879 3.66438 3.66438 0 001.2071-1.7051 18.231 18.231 0 00.6611-3.5596 17.19343 17.19343 0 01.6826-3.4482 4.56028 4.56028 0 011.2178-1.8467 4.72805 4.72805 0 011.9326-1.0654 12.1292 12.1292 0 013.1221-.3125h.789l-.4365 3.5605a7.36245 7.36245 0 00-2.1924.2012 1.46326 1.46326 0 00-.7402.5723 4.29491 4.29491 0 00-.3838 1.4892q-.5112 3.54645-.8018 4.5879a6.81656 6.81656 0 01-1.2607 2.503 7.36884 7.36884 0 01-1.7803 1.3994 4.01822 4.01822 0 011.9297 2.7177 8.62954 8.62954 0 01.0977 2.4805q-.19335 2.562-.2989 3.4697a2.5441 2.5441 0 00.0801 1.2891 1.2186 1.2186 0 00.6504.5801 6.48914 6.48914 0 002.0615.2011L649 563.0361h-.7891a10.60684 10.60684 0 01-2.8271-.2695 4.14773 4.14773 0 01-1.9219-1.0937 3.20237 3.20237 0 01-.7344-1.8399 20.89545 20.89545 0 01.2363-4.0361 17.49743 17.49743 0 00.1846-2.4727 3.97992 3.97992 0 00-.3652-1.5859 1.945 1.945 0 00-.835-.9014 4.13828 4.13828 0 00-1.5976-.3271z" class="color6650d6 svgShape"/><path fill="#ffa30f" d="M769.7412 477.0645H693.5937a.70827.70827 0 01-.7168-.8184.95208.95208 0 01.918-.8193h76.1475a.709.709 0 01.7168.8193A.95189.95189 0 01769.7412 477.0645zM679.7334 477.0645H661.9013a.70827.70827 0 01-.7168-.8184.9528.9528 0 01.918-.8193h17.832a.70964.70964 0 01.7178.8193A.95281.95281 0 01679.7334 477.0645zM768.1094 490.3545H727.5459a.70817.70817 0 01-.7168-.8184.95017.95017 0 01.9179-.8183h40.5635a.7077.7077 0 01.7168.8183A.951.951 0 01768.1094 490.3545zM715.5107 490.3545H660.2695a.70817.70817 0 01-.7168-.8184.951.951 0 01.918-.8183h55.2402a.7084.7084 0 01.7178.8183A.95269.95269 0 01715.5107 490.3545zM788.8916 503.0879H712.7451a.70817.70817 0 01-.7168-.8184.95109.95109 0 01.918-.8183h76.1465a.70812.70812 0 01.7167.8183A.95171.95171 0 01788.8916 503.0879zM698.8847 503.0879h-30.832a.70822.70822 0 01-.7168-.8184.95189.95189 0 01.918-.8183h30.832a.70934.70934 0 01.7178.8183A.95291.95291 0 01698.8847 503.0879zM787.2597 516.376H736.6972a.70827.70827 0 01-.7168-.8184.95117.95117 0 01.918-.8183h50.5625a.70934.70934 0 01.7178.8183A.95291.95291 0 01787.2597 516.376zM724.6611 516.376H666.4209a.70817.70817 0 01-.7168-.8184.95179.95179 0 01.9179-.8183h58.2403a.70769.70769 0 01.7168.8183A.95029.95029 0 01724.6611 516.376z" class="colorf2e9ff svgShape"/><path fill="#d69e50" d="M805.8701 510.041a4.80223 4.80223 0 00-1.6797.3272 2.79 2.79 0 00-1.0557.9013 4.96779 4.96779 0 00-.7529 1.586 17.89543 17.89543 0 00-.4228 2.4717 22.11341 22.11341 0 01-.7569 4.0371 4.27746 4.27746 0 01-1.1855 1.8388 5.60894 5.60894 0 01-2.1905 1.0948 11.378 11.378 0 01-2.8916.2685h-.791l.4395-3.5742a7.01306 7.01306 0 002.1094-.2012 1.71764 1.71764 0 00.7939-.581 2.90206 2.90206 0 00.3965-1.2881q.11865-.90825.5527-3.4707a9.73067 9.73067 0 01.7071-2.4805 5.89516 5.89516 0 011.0654-1.5781 6.17193 6.17193 0 011.5322-1.1397 5.11486 5.11486 0 01-1.4365-1.3994 5.34762 5.34762 0 01-.6465-2.5019 45.001 45.001 0 01.3252-4.5879 3.86936 3.86936 0 00-.0186-1.4893 1.03291 1.03291 0 00-.5996-.5722 6.80076 6.80076 0 00-2.1425-.2022l.4375-3.5596h.789a11.159 11.159 0 013.0449.3135 3.41736 3.41736 0 011.6709 1.0645 3.38246 3.38246 0 01.7647 1.8466 16.27481 16.27481 0 01-.1631 3.4483 17.34088 17.34088 0 00-.2139 3.5596 2.67548 2.67548 0 00.7891 1.705 3.31721 3.31721 0 001.9687.5879zM643.1181 481.1035a4.06208 4.06208 0 002.1133-.5888 3.65855 3.65855 0 001.2061-1.7051 18.12944 18.12944 0 00.6611-3.5596 17.26489 17.26489 0 01.6836-3.4482 4.5582 4.5582 0 011.2168-1.8467 4.71223 4.71223 0 011.9336-1.0645 12.06414 12.06414 0 013.1211-.3134h.79l-.4375 3.5605a7.3501 7.3501 0 00-2.1914.2012 1.46638 1.46638 0 00-.7412.5722 4.31953 4.31953 0 00-.3838 1.4893 46.31163 46.31163 0 01-.8017 4.5879 6.81432 6.81432 0 01-1.2598 2.5029 7.38389 7.38389 0 01-1.7803 1.3994 4.01766 4.01766 0 011.9297 2.7188 8.65651 8.65651 0 01.0977 2.4795q-.19485 2.562-.2998 3.4697a2.54206 2.54206 0 00.08 1.2891 1.22032 1.22032 0 00.6514.58 6.471 6.471 0 002.0606.2022l-.4385 3.5742h-.7901a10.61194 10.61194 0 01-2.8271-.2695 4.14051 4.14051 0 01-1.9209-1.0938 3.19572 3.19572 0 01-.7354-1.8398 20.9818 20.9818 0 01.2364-4.0361 17.50015 17.50015 0 00.1845-2.4727 3.99676 3.99676 0 00-.3642-1.5859 1.95 1.95 0 00-.835-.9014 4.1457 4.1457 0 00-1.5986-.3272z" class="color6650d6 svgShape"/><path fill="#ffa30f" d="M721.4482,437.4326l104.8467,1.6963c4.7021,0,10.8877-5.5088,11.4648-10.2109l4.5186-36.7989a7.37326,7.37326,0,0,0-7.4688-8.5136H728.0576c-4.7022,0-12.125,3.8535-12.7031,8.5556l-1.375,36.7569A7.374,7.374,0,0,0,721.4482,437.4326Z" class="colorf2e9ff svgShape"/><path fill="#ffffff" d="M717.8857,439.29h106.752a9.90552,9.90552,0,0,0,9.5586-8.5146l4.5185-36.7988a7.373,7.373,0,0,0-7.4678-8.5137H724.4941a9.90643,9.90643,0,0,0-9.5596,8.5137l-4.5175,36.7988A7.373,7.373,0,0,0,717.8857,439.29Z" class="colorfff svgShape"/><polygon fill="#ffe9ca" points="829.779 404.273 768.482 404.273 769.862 393.036 831.159 393.036 829.779 404.273" class="colordfcaff svgShape"/><polygon fill="#ffa30f" points="778.854 413.231 767.383 413.231 767.593 411.52 779.064 411.52 778.854 413.231" class="colorf2e9ff svgShape"/><polygon fill="#ffa30f" points="828.679 413.231 782.94 413.231 783.15 411.52 828.89 411.52 828.679 413.231" class="colorf2e9ff svgShape"/><polygon fill="#ffa30f" points="797.138 417.283 766.886 417.283 767.096 415.572 797.349 415.572 797.138 417.283" class="colorf2e9ff svgShape"/><polygon fill="#ffa30f" points="811.048 417.283 799.577 417.283 799.786 415.572 811.258 415.572 811.048 417.283" class="colorf2e9ff svgShape"/><polygon fill="#ffa30f" points="828.182 417.283 813.895 417.283 814.104 415.572 828.392 415.572 828.182 417.283" class="colorf2e9ff svgShape"/><polygon fill="#ffa30f" points="802.571 421.335 766.388 421.335 766.599 419.624 802.78 419.624 802.571 421.335" class="colorf2e9ff svgShape"/><polygon fill="#ffa30f" points="827.684 421.335 805.841 421.335 806.051 419.624 827.894 419.624 827.684 421.335" class="colorf2e9ff svgShape"/><polygon fill="#ffa30f" points="827.176 425.477 798.57 425.477 798.78 423.767 827.386 423.767 827.176 425.477" class="colorf2e9ff svgShape"/><polygon fill="#ffa30f" points="772.96 425.386 765.891 425.386 766.101 423.675 773.169 423.675 772.96 425.386" class="colorf2e9ff svgShape"/><polygon fill="#ffa30f" points="795.699 425.386 775.581 425.386 775.791 423.675 795.909 423.675 795.699 425.386" class="colorf2e9ff svgShape"/><polygon fill="#ffa30f" points="776.864 429.438 765.394 429.438 765.603 427.727 777.074 427.727 776.864 429.438" class="colorf2e9ff svgShape"/><polygon fill="#ffa30f" points="826.689 429.438 780.95 429.438 781.161 427.727 826.899 427.727 826.689 429.438" class="colorf2e9ff svgShape"/><path fill="#ffa30f" d="M647.5381,437.9365l39.3877,1.7451c4.8378,0,11.2021-5.6679,11.7959-10.5058l4.6494-37.8643a7.586,7.586,0,0,0-7.6846-8.7597H654.3388c-4.8378,0-12.4755,3.9658-13.0703,8.8037l-1.415,37.8203A7.58729,7.58729,0,0,0,647.5381,437.9365Z" class="colorf2e9ff svgShape"/><path fill="#ffffff" d="M643.872,439.8477h41.3487a10.192,10.192,0,0,0,9.8349-8.7608l4.6495-37.8633a7.58644,7.58644,0,0,0-7.6846-8.7607H650.6728a10.19208,10.19208,0,0,0-9.8359,8.7607l-4.6484,37.8633A7.58615,7.58615,0,0,0,643.872,439.8477Z" class="colorfff svgShape"/><path fill="#ffe9ca" d="M764.3545,395.7998l-3.9239,31.9649a3.2118,3.2118,0,0,1-3.0918,2.7529H722.8672a2.38885,2.38885,0,0,1-2.4151-2.7529l3.9248-31.9649a3.213,3.213,0,0,1,3.0928-2.7637h34.4717A2.39086,2.39086,0,0,1,764.3545,395.7998Z" class="colordfcaff svgShape"/><path fill="#f2d6af" d="M762.3701 411.9609l-1.9395 15.8038a3.2118 3.2118 0 01-3.0918 2.7529H722.8672a2.38885 2.38885 0 01-2.4151-2.7529l.5489-4.4688 6.8154-6.6758a1.31689 1.31689 0 011.9326-.0342l6.918 8.1924a1.32037 1.32037 0 001.9199-.0224l18.4648-17.7657a1.31866 1.31866 0 011.9981.0664zM740.4385 402.7051a4.18021 4.18021 0 00-4.2354-4.8272 5.6161 5.6161 0 00-5.4199 4.8272 4.18088 4.18088 0 004.2353 4.8281A5.61619 5.61619 0 00740.4385 402.7051z" class="colorc5aff2 svgShape"/><path fill="#ffc87b" d="M659.6426 397.1367h5.623l-3.4385 17.6875a20.334 20.334 0 01-1.6465 5.335 9.99616 9.99616 0 01-3.7343 3.918 11.33181 11.33181 0 01-5.9668 1.4765q-4.1382 0-5.916-2.3154-1.78125-2.316-.9278-6.7959l5.4356-.6094a6.91634 6.91634 0 00.0459 3.3936 2.4265 2.4265 0 002.4892 1.5049 3.7164 3.7164 0 002.878-1.0762q.99015-1.0782 1.6494-4.4697zM666.1748 415.9863l5.5928-.5341a5.505 5.505 0 001.2216 4.0595 5.13522 5.13522 0 003.8369 1.2969 7.28955 7.28955 0 004.3311-1.1533 4.367 4.367 0 001.9053-2.6963 2.23266 2.23266 0 00-.2539-1.6875 3.57037 3.57037 0 00-1.794-1.21q-.9228-.34425-4.2793-1.2197-4.31835-1.1265-5.8281-2.7646a6.11636 6.11636 0 01-1.4805-5.6211 8.71537 8.71537 0 011.9864-3.9932 9.95251 9.95251 0 014.0371-2.8301 15.42822 15.42822 0 015.6875-.9726q5.2602 0 7.4707 2.3056a6.84212 6.84212 0 011.5957 6.1563l-5.6895.248a3.93246 3.93246 0 00-.9511-3.0967 4.90107 4.90107 0 00-3.3897-.9443 7.41423 7.41423 0 00-4.0459 1.0108 2.59159 2.59159 0 00-1.2344 1.7334 1.78836 1.78836 0 00.5098 1.6982q.89205.89505 4.8213 1.8672a22.7808 22.7808 0 015.6973 2.0107 5.912 5.912 0 012.5371 2.8399 7.60139 7.60139 0 01.249 4.4492 9.978 9.978 0 01-2.208 4.498 10.523 10.523 0 01-4.3799 3.1172 17.41205 17.41205 0 01-6.2783 1.0196q-5.29845 0-7.6621-2.4493Q665.8169 420.6748 666.1748 415.9863z" class="colorff7bb1 svgShape"/><path fill="#ffffff" d="M992.2138,649.7617c2.5079.8477-7.3095,9.4932-7.3095,9.4932l-9.6905,1.0605s4.9678-2.6386,9.8252-5.4755C990.5928,651.5957,990.25,649.0967,992.2138,649.7617Z" class="colorfff svgShape"/><polygon fill="#f2d6af" points="984.665 662.068 975.431 662.302 975.214 660.315 988.09 658.905 984.665 662.068" class="colorc5aff2 svgShape"/><path fill="#ffffff" d="M981.5166,659.1104c.9804-1.8057,2.3437-3.5733,3.541-5.918,2.9238-5.7285,1.2871-7.6465,3.2998-8.1475,2.5684-.6396,8.7451,4.044,8.7451,4.044l-12.6982,10.2529Z" class="colorfff svgShape"/><path fill="#f2d6af" d="M984.4043,659.3418l12.6982-10.2529,1.2549,1.5547L984.665,662.0684C984.5937,662.0654,984.4043,659.3418,984.4043,659.3418Z" class="colorc5aff2 svgShape"/><path fill="#ffffff" d="M890.9853,651.249c1.7461,1.9893.416,9.627.416,9.627l-20.4169-9.001s5.622.2031,11.247.1777C888.6631,652.0244,889.6172,649.6904,890.9853,651.249Z" class="colorfff svgShape"/><rect width="22.313" height="1.998" x="869.634" y="656.291" fill="#f2d6af" transform="rotate(23.791 880.79 657.29)" class="colorc5aff2 svgShape"/><path fill="#7a5520" d="M911.5107,476.3682c-7.9277,46.1367-25.041,174.8994-25.041,174.8994l6.1484,2.376S948.791,530.334,950.833,525.2207c2.0488-5.126-.9961-38.8896-.9961-38.8896Z" class="color34207a svgShape"/><path fill="#604115" d="M933.0615,519.4307c1.7227-4.7598,19.0313-28.9082,19.0313-28.9082s.789,29.5722-1.2598,34.6982c-2.043,5.1133-58.2149,128.4229-58.2149,128.4229l-4.5976-1.7774C892.4697,641.4502,931.1513,524.7061,933.0615,519.4307Z" class="color221560 svgShape"/><polygon fill="#7a5520" points="985.971 648.814 951.985 574.082 931.06 517.395 921.584 510.129 923.101 475.099 971.952 478.995 975.761 568.595 993.489 645.903 985.971 648.814" class="color34207a svgShape"/><polygon fill="#604115" points="930.583 524.328 943.147 515.522 931.06 517.395 918.059 507.179 930.583 524.328" class="color221560 svgShape"/><path fill="#604115" d="M968.8379,574.9912s-1.5547-54.7558-11.291-72.1377c-5.2842-9.4326-48.5342-11.2021-48.5342-11.2021l7.6875-17.3555,55.2519,4.6992,3.8086,89.5996,17.7285,77.3086-4.8349,1.8721Z" class="color221560 svgShape"/><path fill="#f5c179" d="M835.2324,419.1807c-2.126,2.8125.208,6.5537,2.1279,7.7519,1.5723.9815,4.8594.3047,5.7774.2862a56.78466,56.78466,0,0,0,10.2676,4.9482c.4931.1787,8.3261-6.8984,7.8037-7.2578-2.7871-1.9131-5.4561-3.2324-8.4307-5.1289-3.1191-1.9883-5.8613-3.6768-10.1152-3.71C841.5488,416.0615,836.3935,417.6445,835.2324,419.1807Z" class="colorf5b379 svgShape"/><path fill="#f5c179" d="M824.1953,416.9072c-.6494-.4433-.0703-2.5371.6963-2.4013a19.22988,19.22988,0,0,1,5.958,2.3545,12.40286,12.40286,0,0,0,6.7588,1.3945c2.1758-.1104,4.3584-.4111,6.501-.709,1.1289-.1572,1.2558,1.0859.1357,1.2412-.4356.0615-.8867.125-1.333.1885.4668.2734.3398.8408-.2861,1.0625-3.5186,1.2412-8.1573,2.0371-11.6973.5869A42.3651,42.3651,0,0,1,824.1953,416.9072Z" class="colorf5b379 svgShape"/><path fill="#f5c179" d="M822.3847,421.8018c-.6494-.4434-.2099-2.2315.1983-2.253,2.6387-.1416,4.1855.7325,6.2109,1.7432a12.40429,12.40429,0,0,0,6.7598,1.3936c2.1748-.1094,4.3574-.4112,6.5-.709,1.1289-.1573,1.2558,1.0869.1357,1.2422-.4365.0605-.8867.124-1.333.1875.4668.2734.3399.8408-.2861,1.0625-3.5186,1.2412-8.1572,2.0371-11.6973.5869A38.24313,38.24313,0,0,1,822.3847,421.8018Z" class="colorf5b379 svgShape"/><path fill="#f5c179" d="M825.4424,425.582c-.7735-.333-1.7754-.5996-1.7539-1.3291.0078-.2724.0087-1.0254.4023-1.1084,2.5488-.5341,4.5635.5596,6.8613,1.2364a13.32731,13.32731,0,0,0,7.0645.3379c2.1015-.4346,4.1543-1.0567,6.167-1.668,1.0605-.3223,1.5644.8662.5127,1.1865-.4102.124-.833.2539-1.252.3828.542.1953,2.5195,1.3233,1.9727,1.6319-3.0762,1.7363-9.3164,2.6494-13.2364,1.7744A38.85942,38.85942,0,0,1,825.4424,425.582Z" class="colorf5b379 svgShape"/><path fill="#f5c179" d="M821.8818 419.4522c-.6494-.4434.1182-2.3536.9893-2.2139a15.23134 15.23134 0 015.4199 1.7578 12.40357 12.40357 0 006.7598 1.3945c2.1748-.1103 4.3584-.4111 6.5009-.7099 1.1289-.1563 1.2559 1.0869.1348 1.2422-.4355.0605-.8867.125-1.333.1884.4668.2735.3408.8409-.2861 1.0616-3.5176 1.2421-8.1573 2.0371-11.6973.5879A38.4316 38.4316 0 01821.8818 419.4522zM832.6396 415.1025c-.416-.2783-.1357-2.4511.7881-2.5878a19.5087 19.5087 0 018.5889.9814 33.74788 33.74788 0 018.622 5.1445c.4141.3955-2.5361.0225-3.0068.1836a.67253.67253 0 01-.583.5352c-3.2646.5654-4.4639-1.6065-7.042-2.6104C837.4101 415.7373 834.5996 416.416 832.6396 415.1025z" class="colorf5b379 svgShape"/><path fill="#eab771" d="M937.6709,420.8858s-11.9629,32.1152-40.7012,41.3554c-13.5166,4.3457-50.0527-28.0429-50.0527-28.0429l9.0644-15.8711s32.4063,18.4306,34.0635,18.1669c4.4561-.7099,21.7637-36.6533,37.3301-40.1386C933.8652,394.9024,940.2168,409.1309,937.6709,420.8858Z" class="color7c71ea svgShape"/><path fill="#d69e50" d="M920.0322,406.1963s-12.1494,42.9326-24.9707,46.835c-9.4609,2.8798-48.1445-18.833-48.1445-18.833s31.9795,30.124,47.7734,28.4951,33.6318-26.1993,33.6318-26.1993Z" class="color6650d6 svgShape"/><path fill="#eab771" d="M946.4277,391.7051c-12.7441-.4795-21.6094,4.1357-24.4277,11.5264-14.7715,38.7304-15.2959,82.997-15.2959,82.997s42.9101,11.1924,66.6601,6.5586c0,0,7.1582-67.4551-.8691-86.8896C966.9912,392.5742,955.5664,392.0488,946.4277,391.7051Z" class="color7c71ea svgShape"/><path fill="#f5c179" d="M929.3408,377.2686c.2549.6455.4893,1.2519.666,1.8193a31.5979,31.5979,0,0,1,1.0957,4.5605,34.83118,34.83118,0,0,1,.5088,4.2081,39.14771,39.14771,0,0,1-.1572,7.2617c11.9004,5.8711,24.7988-2.2119,24.7988-2.2119a39.09587,39.09587,0,0,1-1.3701-5.7354,88.23416,88.23416,0,0,1-1.0772-9.5703.73361.73361,0,0,1-.0195-.1953.83358.83358,0,0,1-.0195-.1367Z" class="colorf5b379 svgShape"/><path fill="#f2b766" d="M929.3408,377.2686c.2549.6455.4893,1.2519.666,1.8193a18.79815,18.79815,0,0,1,1.0957,4.5605,34.83118,34.83118,0,0,1,.5088,4.2081c5.6563,2.4853,12.0371,3.4843,16.6758,2.4853a15.77446,15.77446,0,0,0,6.5957-3.1709,88.23416,88.23416,0,0,1-1.0772-9.5703.73361.73361,0,0,1-.0195-.1953.83358.83358,0,0,1-.0195-.1367Z" class="colorf29866 svgShape"/><path fill="#ffffff" d="M959.7627 390.5205a42.65378 42.65378 0 01-22.0918 6.543 38.71037 38.71037 0 012.8437 7.7881S956.9111 400.2285 959.7627 390.5205zM932.9511 394.6768s.9727 1.6425 4.7198 2.3867l-6.0342 5.4502s-.085-6.5713.0019-7.5127C931.7256 394.0606 932.9511 394.6768 932.9511 394.6768z" class="colorfff svgShape"/><path fill="#d69e50" d="M963.0693,433.4746s3.4883,6.9219-3.3066,16.3985c-8.0782,11.2666-25.2256,33.5771-53.0586,36.3554,0,0,43.3584,11.9551,66.6601,6.5586,0,0,4.1983-48.1191,2.9385-64.7851C975.8506,422.0186,963.0693,433.4746,963.0693,433.4746Z" class="color6650d6 svgShape"/><path fill="#f5c179" d="M958.2763,368.3428s-2.2304,11.0859-6.8486,13.6494-19.8164,5.8643-23.5723-1.6289c-4.8955-9.7666-3.1953-35.8897-1.9043-38.5371,1.2911-2.6485,23.6915-12.4776,31.2959-1.6504C964.8525,351.0029,958.2763,368.3428,958.2763,368.3428Z" class="colorf5b379 svgShape"/><path fill="#f7960d" d="M920.1513,328.6221c4.7618-5.2959,17.4493-4.9903,29.1875-3.5723,9.6661,1.1699,16.0557,12.792,15.9239,13.3067,2.416.791,4.3213,6.7988,3.5156,11.0351-3.0205,15.8721-11.084,18.6504-12.6016,18.2246-7.0302-1.9687-7.6416-15.0703-3.7441-25.1152-6.2022-.6006-11.4356-1.4932-18.1895.0889-2.9619.6943-11.9101,1.6386-14.9238-.1797C914.8428,339.7119,917.5283,331.5391,920.1513,328.6221Z" class="color483670 svgShape"/><path fill="#f5c179" d="M957.5068,361.3311c1.5459-1.584,8.0918-3.4688,8.9111-.8516,1.3116,4.1865-3.746,12.2617-9.7822,8.9863C954.4345,368.2715,956.167,362.7051,957.5068,361.3311Z" class="colorf5b379 svgShape"/><path fill="#f2b766" d="M958.6601,363.9971s4.7969-3.1446,5.2491-1.7207c.8837,2.7812-3.0645,5.0761-4.1963,5.4795,0,0,2.205-2.418,1.6357-3.458C960.7803,363.2578,958.6601,363.9971,958.6601,363.9971Z" class="colorf29866 svgShape"/><path fill="#423421" d="M952.4326,342.501s-10.8037-1.1221-14.0723-.6094c-3.2675.5127-15.4931,3.8809-19.581.4434s-1.0938-9.1709-1.0938-9.1709,1.0557,9.9355,8.2656,8.6621C933.1621,340.5527,946.5244,337.8535,952.4326,342.501Z" class="color292142 svgShape"/><path fill="#d6891e" d="M952.499,434.7022l68.5684,27.8134a2.57585,2.57585,0,0,1,1.4179,1.4121h.003l1.2314,2.8985-1.7461.3525-17.4492,43.0186a2.593,2.593,0,0,1-3.377,1.4277l-66.2343-26.8662-2.5332.5107-1.1797-2.7871.0078-.0009a2.5728,2.5728,0,0,1-.0567-2.0459l17.9717-44.3057A2.59137,2.59137,0,0,1,952.499,434.7022Z" class="color1eb4d6 svgShape"/><path fill="url(#z)" d="M933.7998,486.6787l68.5683,27.8135a2.59228,2.59228,0,0,0,3.376-1.4277l17.9717-44.3057a2.59276,2.59276,0,0,0-1.4277-3.376l-68.5684-27.8135a2.59365,2.59365,0,0,0-3.3769,1.4278L932.372,483.3027A2.5915,2.5915,0,0,0,933.7998,486.6787Z"/><path fill="url(#A)" d="M933.7998,486.6787l68.5683,27.8135-24.8144-67.2549-23.834-9.668a2.59365,2.59365,0,0,0-3.3769,1.4278L932.372,483.3027A2.5915,2.5915,0,0,0,933.7998,486.6787Z"/><path fill="#f5c179" d="M963.1748,503.5225a2.76485,2.76485,0,0,1,4.374,1.1259,2.38177,2.38177,0,0,0,3.2354-.6582,2.11982,2.11982,0,0,0,1.9755,1.3194,2.8806,2.8806,0,0,0,2.4883-.9746,1.778,1.778,0,0,0,2.5518.9765c2.7051-1.7558,2.8183-6.3437,2.7187-9.248-.1064-3.127-.9072-6.4981-4.082-7.8037-4.6641-1.9199-10.2803,1.3369-12.1943,5.7988-.0147.0273-.0401.0313-.0537.0596C963.0849,496.3477,959.7695,501.8672,963.1748,503.5225Z" class="colorf5b379 svgShape"/><path fill="#f5c179" d="M962.2617,488.0586c2.4619-.7578,5.4951-.4668,8.0195-.21a1.11188,1.11188,0,0,1,.1436.045,1.71457,1.71457,0,0,1,1.4394,2.7949c-1.3125,1.4765-2.9248,3.1562-4.873,3.0312-1.0742-.0683-2.0098-1.0009-3.0723-.7382-1.3926.3437-2.5136,2.4668-3.1172,3.6396-1.0351,2.0166-4.9052-.3066-4.1992-2.416C957.414,491.7822,959.622,488.8711,962.2617,488.0586Z" class="colorf5b379 svgShape"/><polygon fill="#f5c179" points="970.056 490.742 975.825 479.19 985.394 485.484 978.569 496.021 970.056 490.742" class="colorf5b379 svgShape"/><path fill="#eab771" d="M965.4013,396.3555s39.6563,20.0254,47.0889,49.2832c3.4961,13.7607-27.0967,47.3428-27.0967,47.3428l-15.2773-10.0342s18.5703-26.4326,18.4092-28.1035c-.4317-4.4913-20.3858-14.1075-25.4561-21.3692C961.2861,423.6729,958.0517,406.9961,965.4013,396.3555Z" class="color7c71ea svgShape"/><path fill="#d69e50" d="M963.0693,433.4746s33.0742,9.709,29.7305,19.9287c-3.3457,10.2198-22.6836,29.544-22.6836,29.544s18.7812-25.083,18.4092-28.1035C988.1533,451.8242,966.5527,440.3037,963.0693,433.4746Z" class="color6650d6 svgShape"/><path fill="#281f12" d="M936.1953 377.8213a9.2266 9.2266 0 01-4.4043-1.2891.50042.50042 0 11.4824-.8769c2.1113 1.1601 4.0059 1.457 5.6289.875a6.511 6.511 0 003.4356-3.3819.49959.49959 0 01.9277.3711 7.45168 7.45168 0 01-4.0264 3.9522A6.01393 6.01393 0 01936.1953 377.8213zM930.3994 358.7549a2.33289 2.33289 0 01-2.1719 2.293 2.24259 2.24259 0 01-1.8271-2.6651 2.2792 2.2792 0 012.3213-2.2939A2.30392 2.30392 0 01930.3994 358.7549zM944.5683 359.3545a2.593 2.593 0 01-2.413 2.5488 2.49337 2.49337 0 01-2.0313-2.9629 2.53286 2.53286 0 012.5801-2.5488A2.55944 2.55944 0 01944.5683 359.3545zM933.5918 370.1445a3.278 3.278 0 01-2.0069-.458.88214.88214 0 01-.2675-.9345 11.69655 11.69655 0 01.5107-1.3213 39.66518 39.66518 0 001.8838-5.336.49216.49216 0 01.6172-.3437.4985.4985 0 01.3437.6172 40.47424 40.47424 0 01-1.9258 5.457 10.73717 10.73717 0 00-.4687 1.2022c.3623.3076 3.1582.0664 3.7383-.1749a.49947.49947 0 11.3847.9219A10.34816 10.34816 0 01933.5918 370.1445zM948.7158 353.5625a.99112.99112 0 01-.6113-.21 8.8111 8.8111 0 00-7.9893-1.3828 1.00023 1.00023 0 01-.6894-1.8779 10.83511 10.83511 0 019.9033 1.6807.99993.99993 0 01-.6133 1.79zM923.9062 353.2441a1 1 0 01-.7051-1.7099 9.19484 9.19484 0 018.9083-2.1973.99975.99975 0 01-.6065 1.9053 7.1798 7.1798 0 00-6.8916 1.7119A.9989.9989 0 01923.9062 353.2441z" class="color161228 svgShape"/></svg>