<svg width="93" height="93" viewBox="0 0 93 93" fill="none" xmlns="http://www.w3.org/2000/svg">
<circle cx="46.6488" cy="46.3914" r="45.7716" fill="white" stroke="#FFD3B5" stroke-width="0.953575"/>
<g opacity="0.75">
<path opacity="0.75" d="M43.5739 75.3803H29.4684C29.4684 75.3803 26.0409 73.8807 27.491 68.3438C28.9412 62.8071 30.5231 59.7751 25.3818 58.325C20.2406 56.8748 14.1765 52.2609 19.8451 53.1837C25.5137 54.1065 27.7862 57.5595 29.2049 54.7656C30.6499 51.9199 24.018 44.6395 28.8094 45.1422C33.6886 45.6542 38.0373 51.4699 35.6644 53.9746C33.2916 56.4793 37.2464 57.1385 38.5646 53.5792C39.8828 50.0198 41.5967 45.1422 42.6512 49.8879C43.7059 54.6337 39.751 57.2702 39.2237 61.3569C38.6963 65.4437 43.5739 75.3803 43.5739 75.3803Z" fill="#C7D9F7"/>
<path opacity="0.75" d="M36.9244 74.4832H27.9946C27.9946 74.4832 25.2377 68.26 28.9675 65.1788C32.6974 62.0975 36.1262 63.95 38.883 62.1661C41.6399 60.3823 39.3253 57.1445 39.7871 55.5369C40.0932 54.4708 42.9141 53.1783 43.887 57.2325C44.8601 61.2867 45.6708 58.2055 46.9683 55.4486C48.2656 52.6917 54.7522 54.9621 50.8603 57.8811C46.9683 60.8001 42.2655 62.4218 45.6709 62.9084C49.0765 63.3948 54.5901 65.0165 50.5359 66.1517C46.4818 67.2869 41.3205 66.8039 42.9141 68.9086C43.8551 70.1513 50.3738 68.9086 47.9413 71.6654C45.5088 74.4223 36.9244 74.4832 36.9244 74.4832Z" fill="#C6D8DC"/>
<path opacity="0.75" d="M30.7259 75.156C30.7259 75.156 28.4555 71.5273 27.8069 68.284C27.1582 65.0407 29.7529 63.0946 31.5367 65.0407C33.3205 66.9867 34.78 63.419 34.1313 60.3378C33.4826 57.2566 34.4557 52.3915 36.4017 54.824C38.3477 57.2566 36.0773 61.1486 41.429 59.8513C46.7804 58.554 49.6995 64.0677 44.3479 64.2298C38.9964 64.392 39.4829 66.6623 41.7533 68.6084C44.0237 70.5544 42.5641 73.6356 39.4829 73.6356C36.4017 73.6356 36.3206 75.1561 36.3206 75.1561H30.7259V75.156Z" fill="#E3EDFD"/>
</g>
<path d="M33.6835 30.0809C33.6835 30.0809 29.962 30.4249 27.1091 27.5609C24.2562 24.6968 20.9987 23.2974 20.9987 23.2974L17.5801 30.3277C17.5801 30.3277 22.0632 31.8516 23.986 33.4427C27.1817 36.0872 30.6642 36.29 30.6642 36.29L33.6835 30.0809Z" fill="#ED9B27"/>
<path d="M20.8869 24.4105L18.3613 29.6043C18.3961 29.6125 18.4257 29.6226 18.457 29.6379C18.6974 29.7548 18.8011 30.0464 18.6825 30.2903C18.6791 30.2973 18.6741 30.3076 18.6671 30.3129C19.4343 30.6042 20.5549 31.0544 21.6382 31.5811C22.7669 32.1299 23.639 32.6574 24.2298 33.1428C24.9816 33.7669 25.8157 34.3016 26.7109 34.7369C28.1565 35.4398 29.4469 35.7271 30.1428 35.8371C30.1444 35.825 30.1495 35.8144 30.1545 35.8041C30.2325 35.6439 30.4031 35.5589 30.5714 35.5934L32.848 30.9116C32.6739 30.827 32.5921 30.6321 32.6473 30.4565C31.7959 30.3915 30.5393 30.1766 29.2156 29.533C28.3273 29.1009 27.5276 28.5312 26.8322 27.8356C24.9174 25.9095 22.8266 24.6645 21.6731 24.0605C21.6685 24.123 21.6536 24.1803 21.6249 24.2396C21.5063 24.4834 21.2129 24.582 20.9725 24.4651C20.941 24.4497 20.9149 24.4327 20.8869 24.4105Z" fill="#E28305"/>
<path d="M28.0917 32.0394C27.9595 32.3112 28.0727 32.6387 28.3445 32.7708C28.6162 32.903 28.9438 32.7898 29.0759 32.5179C29.2081 32.2462 29.095 31.9187 28.8231 31.7866C28.5513 31.6544 28.2239 31.7677 28.0917 32.0394ZM22.3425 28.5685C22.1959 28.87 22.3215 29.2335 22.6231 29.3802C22.9247 29.5269 23.2881 29.4012 23.4348 29.0997C23.5816 28.7981 23.4559 28.4346 23.1543 28.2879C22.8526 28.1411 22.4891 28.2668 22.3425 28.5685Z" fill="#ED9B27"/>
<path d="M37.6315 41.6062L37.5684 36.6374C37.5684 36.6374 43.2618 29.0006 53.4648 33.6059L52.4248 43.4705C52.4248 43.4704 45.3929 36.3473 37.6315 41.6062Z" fill="#ED9B27"/>
<path d="M52.5435 34.2324C52.6468 34.3206 52.7739 34.3587 52.897 34.3489L52.1722 41.2568C51.8597 41.0923 51.4619 41.1549 51.2226 41.4356C51.1407 41.5316 51.0874 41.6391 51.0624 41.7582C48.5889 40.0442 43.9933 37.8344 38.9521 40.2832C38.9533 40.1247 38.8787 39.9654 38.7457 39.852C38.5574 39.6914 38.301 39.6705 38.0961 39.7763L38.0625 37.3177C38.2115 37.33 38.365 37.2696 38.4721 37.1441C38.6579 36.9262 38.6323 36.6047 38.4182 36.422L38.4034 36.4095C39.7632 34.9795 44.6734 30.6652 52.386 33.6773C52.322 33.8713 52.3773 34.0907 52.5435 34.2324Z" fill="#E28305"/>
<path d="M48.8822 35.6695C49.1694 35.9144 49.2037 36.3457 48.9588 36.6328C48.7139 36.92 48.2826 36.9542 47.9954 36.7094C47.7083 36.4645 47.674 36.0332 47.9189 35.746C48.1638 35.4589 48.5951 35.4246 48.8822 35.6695ZM41.2557 36.6513C41.4587 36.8244 41.4829 37.1293 41.3098 37.3324C41.1366 37.5355 40.8316 37.5596 40.6287 37.3865C40.4256 37.2133 40.4014 36.9083 40.5745 36.7054C40.7477 36.5023 41.0526 36.4781 41.2557 36.6513Z" fill="#ED9B27"/>
<path d="M36.8384 48.4649L36.8975 43.8212C36.8975 43.8212 31.5765 36.6841 22.041 40.9881L23.0129 50.2072C23.0129 50.2071 29.5848 43.55 36.8384 48.4649Z" fill="#ED9B27"/>
<path d="M22.9026 41.5737C22.806 41.6561 22.6873 41.6918 22.5723 41.6825L23.2496 48.1384C23.5417 47.9846 23.9135 48.0432 24.1371 48.3055C24.2137 48.3951 24.2636 48.4956 24.2869 48.6069C26.5986 47.0051 30.8936 44.9399 35.605 47.2285C35.6039 47.0805 35.6736 46.9315 35.7978 46.8256C35.9738 46.6755 36.2134 46.656 36.405 46.7548L36.4363 44.4571C36.2971 44.4685 36.1535 44.4121 36.0535 44.2948C35.8799 44.0912 35.9037 43.7906 36.1038 43.6199L36.1176 43.6082C34.8468 42.2718 30.2579 38.2397 23.0498 41.0547C23.1096 41.2361 23.0579 41.4411 22.9026 41.5737Z" fill="#E28305"/>
<path d="M26.3239 42.9167C26.0555 43.1455 26.0234 43.5486 26.2524 43.817C26.4813 44.0853 26.8843 44.1174 27.1526 43.8884C27.421 43.6595 27.4531 43.2565 27.2241 42.9882C26.9953 42.7198 26.5922 42.6877 26.3239 42.9167ZM33.4515 43.8341C33.2617 43.9959 33.239 44.2809 33.4009 44.4707C33.5628 44.6604 33.8478 44.6831 34.0375 44.5213C34.2272 44.3595 34.2499 44.0744 34.0881 43.8847C33.9264 43.695 33.6412 43.6722 33.4515 43.8341Z" fill="#ED9B27"/>
<path d="M37.6504 24.6162H36.8242V62.5571H37.6504V24.6162Z" fill="#D38220"/>
<path d="M45.5029 19.6653C45.1901 24.2307 41.235 27.6787 36.6696 27.366C36.2666 27.3384 35.8726 27.2827 35.4896 27.1994C33.838 26.8466 32.3809 26.0051 31.264 24.8434C31.0658 24.6381 30.8796 24.4223 30.7034 24.197C30.422 23.8371 30.17 23.4527 29.9508 23.0491C29.2243 21.713 28.8573 20.1609 28.9689 18.5326C29.2381 14.6026 32.2065 11.5013 35.9393 10.9123C36.3856 10.843 36.8419 10.808 37.3067 10.8133C37.4708 10.8143 37.6356 10.8204 37.8021 10.8319C37.923 10.8401 38.0425 10.8514 38.1608 10.8657C39.8554 11.0532 41.3828 11.7463 42.601 12.7844C44.5346 14.4287 45.6896 16.9384 45.5029 19.6653Z" fill="#E28305"/>
<path d="M41.0482 25.6601C44.6721 23.555 45.9034 18.9107 43.7983 15.2868C41.6932 11.6629 37.0489 10.4317 33.425 12.5368C29.801 14.6419 28.5698 19.2862 30.6749 22.9101C32.78 26.534 37.4243 27.7652 41.0482 25.6601Z" fill="#ED9B27"/>
<path d="M42.2728 24.1357C45.0545 21.3539 45.0544 16.8437 42.2726 14.062C39.4908 11.2803 34.9806 11.2803 32.1989 14.0622C29.4171 16.844 29.4172 21.3542 32.1991 24.1359C34.9809 26.9176 39.491 26.9175 42.2728 24.1357Z" fill="#E28305"/>
<path opacity="0.25" d="M37.3069 10.8135L36.9608 11.516L36.7252 11.9935L31.2864 23.0163L31.0507 23.4948L30.7038 24.1973C30.4224 23.8374 30.1703 23.4529 29.9512 23.0493L30.3385 22.2649L30.6096 21.7164L35.2809 12.2486L35.5521 11.6991L35.9395 10.9127C36.3859 10.8432 36.8422 10.8082 37.3069 10.8135ZM42.6013 12.7847L42.2815 13.432L42.0682 13.8651L40.1269 17.7998L39.5772 18.9158L39.3322 19.411L37.7675 22.583L37.5495 23.0251L37.257 23.617L36.0228 26.1191L35.8095 26.5522L35.4897 27.1994C33.8381 26.8466 32.381 26.0051 31.2641 24.8434L31.5946 24.1735L31.8173 23.7227L35.2058 16.8556L35.7221 15.8099L37.6089 11.9857L37.8316 11.5347L38.161 10.8657C39.8558 11.0533 41.3831 11.7466 42.6013 12.7847Z" fill="white"/>
<path d="M32.1599 58.697C32.096 59.6294 31.2883 60.3336 30.3559 60.2697C30.2736 60.264 30.1931 60.2526 30.1149 60.2357C29.7776 60.1636 29.4801 59.9918 29.252 59.7545C29.2115 59.7126 29.1735 59.6686 29.1375 59.6226C29.0801 59.5491 29.0286 59.4705 28.9838 59.3881C28.8354 59.1153 28.7605 58.7984 28.7833 58.4658C28.8383 57.6631 29.4445 57.0297 30.2068 56.9095C30.298 56.8953 30.3911 56.8881 30.4861 56.8893C30.5196 56.8895 30.5533 56.8908 30.5873 56.893C30.612 56.8947 30.6364 56.897 30.6606 56.9C31.0066 56.9382 31.3186 57.0798 31.5674 57.2918C31.9621 57.6276 32.1981 58.1401 32.1599 58.697Z" fill="#E28305"/>
<path d="M32.0159 58.687C31.9574 59.541 31.2177 60.1857 30.3638 60.1272C29.5099 60.0688 28.865 59.3291 28.9236 58.4751C28.9821 57.6212 29.7218 56.9764 30.5756 57.0349C31.4296 57.0935 32.0745 57.8332 32.0159 58.687Z" fill="#ED9B27"/>
<path d="M31.9218 58.6805C31.8668 59.482 31.1726 60.0873 30.371 60.0324C29.5694 59.9774 28.9641 59.2832 29.0191 58.4816C29.074 57.68 29.7683 57.0747 30.5699 57.1297C31.3713 57.1846 31.9766 57.8789 31.9218 58.6805Z" fill="#E28305"/>
<path opacity="0.25" d="M30.4847 56.8893L30.414 57.0327L30.3659 57.1303L29.2551 59.3814L29.207 59.4791L29.1361 59.6225C29.0787 59.549 29.0271 59.4705 28.9824 59.3881L29.0615 59.2279L29.117 59.1159L30.0709 57.1823V57.182L30.1262 57.0699L30.2053 56.9093C30.2966 56.8954 30.3899 56.8882 30.4847 56.8893ZM31.566 57.2918L31.5007 57.424L31.4572 57.5125L31.0606 58.3161L30.9484 58.544L30.8984 58.6451L30.5789 59.2929L30.5344 59.3832L30.4746 59.5041L30.2226 60.0151L30.179 60.1036L30.1137 60.2358C29.7765 60.1637 29.4789 59.9919 29.2508 59.7546L29.3183 59.6178L29.3637 59.5258L30.0557 58.1234L30.1612 57.9099L30.5465 57.1289L30.592 57.0367L30.6593 56.9001C31.0052 56.9382 31.3171 57.0798 31.566 57.2918Z" fill="white"/>
<path d="M34.1924 56.7653C34.6432 57.5839 34.345 58.6132 33.5265 59.064C33.4541 59.1038 33.3803 59.1378 33.3054 59.1658C32.9828 59.2877 32.6396 59.3042 32.3193 59.2281C32.2626 59.2147 32.2068 59.1983 32.1517 59.179C32.0635 59.1483 31.9778 59.1101 31.8955 59.065C31.623 58.9158 31.3886 58.6898 31.2278 58.3979C30.8397 57.6932 31.0067 56.8326 31.5828 56.319C31.6518 56.2577 31.7262 56.2012 31.8066 56.1508C31.8349 56.1329 31.8639 56.1157 31.8938 56.0993C31.9155 56.0873 31.9372 56.0761 31.9591 56.0655C32.2709 55.9104 32.6099 55.8606 32.9337 55.9043C33.4475 55.9729 33.9231 56.2762 34.1924 56.7653Z" fill="#E28305"/>
<path d="M34.0676 56.8342C34.4805 57.5839 34.2074 58.5264 33.4578 58.9393C32.7081 59.3522 31.7655 59.0791 31.3527 58.3294C30.9398 57.5798 31.2129 56.6372 31.9626 56.2243C32.7123 55.8113 33.6549 56.0844 34.0676 56.8342Z" fill="#ED9B27"/>
<path d="M33.9852 56.88C34.3729 57.5838 34.1165 58.4684 33.4127 58.8559C32.7089 59.2436 31.8242 58.9872 31.4366 58.2834C31.049 57.5796 31.3054 56.695 32.0091 56.3073C32.713 55.9199 33.5977 56.1762 33.9852 56.88Z" fill="#E28305"/>
<path opacity="0.25" d="M31.808 56.1508L31.8262 56.3097L31.8384 56.4177L32.1225 58.9118L32.1349 59.02L32.153 59.179C32.0648 59.1482 31.9791 59.1101 31.8968 59.065L31.8766 58.8875L31.8626 58.7633L31.6185 56.621L31.6184 56.6208L31.6043 56.4967L31.584 56.3188C31.6531 56.2578 31.7276 56.2013 31.808 56.1508ZM32.9351 55.9043L32.9517 56.0508L32.963 56.1488L33.0644 57.0392L33.0933 57.2915L33.106 57.4038L33.1878 58.1214L33.1992 58.2214L33.2145 58.3553L33.279 58.9215L33.2903 59.0194L33.3068 59.1659C32.9843 59.2879 32.641 59.3043 32.3207 59.2283L32.3035 59.0767L32.2919 58.9747L32.115 57.4209L32.0881 57.1842L31.9895 56.319L31.9778 56.2169L31.9605 56.0656C32.2723 55.9104 32.6112 55.8606 32.9351 55.9043Z" fill="white"/>
<path d="M35.6579 59.0017C35.5941 59.934 34.7863 60.6383 33.854 60.5744C33.7717 60.5688 33.6911 60.5574 33.613 60.5404C33.2757 60.4683 32.9781 60.2965 32.75 60.0592C32.7095 60.0173 32.6716 59.9732 32.6355 59.9272C32.5781 59.8537 32.5266 59.7752 32.4819 59.6928C32.3335 59.42 32.2586 59.103 32.2814 58.7704C32.3363 57.9678 32.9426 57.3345 33.7049 57.2141C33.7961 57.1999 33.8893 57.1929 33.9842 57.194C34.0176 57.1942 34.0513 57.1955 34.0853 57.1978C34.11 57.1995 34.1344 57.2018 34.1586 57.2047C34.5047 57.243 34.8166 57.3846 35.0653 57.5966C35.4603 57.9322 35.6961 58.4449 35.6579 59.0017Z" fill="#E28305"/>
<path d="M35.5177 58.9918C35.4593 59.8457 34.7196 60.4906 33.8658 60.4321C33.0118 60.3735 32.367 59.634 32.4256 58.78C32.484 57.9261 33.2237 57.2814 34.0775 57.3399C34.9315 57.3983 35.5763 58.1379 35.5177 58.9918Z" fill="#ED9B27"/>
<path d="M35.4218 58.9854C35.3668 59.7869 34.6726 60.3922 33.871 60.3373C33.0694 60.2823 32.4641 59.5881 32.5191 58.7865C32.574 57.985 33.2683 57.3797 34.0699 57.4346C34.8713 57.4896 35.4766 58.1838 35.4218 58.9854Z" fill="#E28305"/>
<path opacity="0.25" d="M33.9847 57.1939L33.914 57.3374L33.8659 57.435L32.7551 59.6861L32.707 59.7839L32.6361 59.9273C32.5787 59.8539 32.5271 59.7753 32.4824 59.6929L32.5615 59.5327L32.617 59.4207L33.5709 57.4871V57.4868L33.6263 57.3749L33.7054 57.2143C33.7965 57.2001 33.8897 57.1929 33.9847 57.1939ZM35.0659 57.5965L35.0006 57.7287L34.9571 57.8171L34.5606 58.6206L34.4484 58.8485L34.3984 58.9497L34.0789 59.5975L34.0344 59.6877L33.9746 59.8087L33.7226 60.3197L33.679 60.4082L33.6137 60.5404C33.2765 60.4683 32.9789 60.2965 32.7508 60.0592L32.8183 59.9223L32.8637 59.8303L33.5558 58.4279L33.6612 58.2143L34.0465 57.4333L34.0919 57.3413L34.1592 57.2046C34.5052 57.243 34.8171 57.3845 35.0659 57.5965Z" fill="white"/>
<path d="M36.009 54.688C35.9676 55.2917 35.4447 55.7476 34.8411 55.7062C34.7878 55.7026 34.7357 55.6952 34.6851 55.6843C34.4666 55.6376 34.274 55.5264 34.1264 55.3727C34.1002 55.3455 34.0756 55.317 34.0523 55.2873C34.0151 55.2397 33.9818 55.1888 33.9528 55.1355C33.8567 54.9588 33.8081 54.7536 33.8229 54.5383C33.8585 54.0186 34.2511 53.6085 34.7446 53.5307C34.8036 53.5215 34.864 53.5168 34.9254 53.5177C34.9471 53.5178 34.9689 53.5186 34.9909 53.5201C35.0068 53.5213 35.0227 53.5227 35.0383 53.5246C35.2624 53.5494 35.4643 53.641 35.6254 53.7783C35.881 53.9956 36.0338 54.3275 36.009 54.688Z" fill="#E28305"/>
<path d="M35.9165 54.6818C35.8786 55.2346 35.3998 55.6522 34.847 55.6143C34.2941 55.5764 33.8766 55.0975 33.9145 54.5447C33.9524 53.9918 34.4313 53.5743 34.9841 53.6123C35.5369 53.6501 35.9544 54.1289 35.9165 54.6818Z" fill="#ED9B27"/>
<path d="M35.8542 54.6775C35.8187 55.1965 35.3692 55.5883 34.8502 55.5528C34.3312 55.5172 33.9393 55.0677 33.9749 54.5487C34.0105 54.0297 34.46 53.6378 34.979 53.6734C35.498 53.709 35.8898 54.1585 35.8542 54.6775Z" fill="#E28305"/>
<path opacity="0.25" d="M34.9258 53.5177L34.8801 53.6105L34.849 53.6737L34.1298 55.1311L34.0986 55.1944L34.0527 55.2873C34.0155 55.2397 33.9821 55.1888 33.9531 55.1355L34.0043 55.0318L34.0401 54.9593L34.6578 53.7074V53.7073L34.6936 53.6347L34.7448 53.5307C34.8041 53.5215 34.8645 53.5168 34.9258 53.5177ZM35.626 53.7782L35.5837 53.8637L35.5555 53.921L35.2989 54.4413L35.2263 54.5889L35.1939 54.6544L34.987 55.0738L34.9581 55.1323L34.9195 55.2106L34.7563 55.5414L34.728 55.5987L34.6858 55.6843C34.4673 55.6376 34.2747 55.5264 34.1271 55.3727L34.1708 55.2841L34.2002 55.2244L34.6483 54.3165L34.7165 54.1782L34.966 53.6726L34.9955 53.613L35.039 53.5246C35.2629 53.5492 35.4649 53.6409 35.626 53.7782Z" fill="white"/>
<path d="M37.158 58.632C36.8212 59.5037 35.8413 59.9375 34.9696 59.6007C34.8927 59.571 34.8192 59.5362 34.7495 59.4969C34.4486 59.3283 34.2151 59.0762 34.0674 58.7821C34.0411 58.7301 34.0179 58.6767 33.9971 58.6221C33.964 58.5349 33.938 58.4447 33.9196 58.3527C33.8586 58.0482 33.8808 57.7232 34.0008 57.4123C34.2908 56.6619 35.0571 56.2361 35.821 56.3467C35.9122 56.3602 36.0035 56.3808 36.0937 56.41C36.1257 56.4201 36.1575 56.4312 36.1893 56.4435C36.2124 56.4525 36.2351 56.4618 36.2573 56.4718C36.5766 56.6107 36.8327 56.8382 37.0076 57.1143C37.2854 57.5518 37.3591 58.1112 37.158 58.632Z" fill="#E28305"/>
<path d="M37.0271 58.5806C36.7187 59.379 35.8213 59.7762 35.0229 59.4678C34.2245 59.1594 33.8274 58.262 34.1358 57.4636C34.4442 56.6652 35.3415 56.2681 36.1399 56.5764C36.9382 56.885 37.3355 57.7822 37.0271 58.5806Z" fill="#ED9B27"/>
<path d="M36.9352 58.5465C36.6457 59.2959 35.8034 59.6687 35.0539 59.3793C34.3045 59.0898 33.9317 58.2475 34.2212 57.498C34.5107 56.7486 35.3529 56.3758 36.1024 56.6653C36.8518 56.9549 37.2247 57.797 36.9352 58.5465Z" fill="#E28305"/>
<path opacity="0.25" d="M36.0961 56.4112L35.9861 56.5274L35.9112 56.6063L34.1844 58.4281L34.1095 58.5072L33.9994 58.6233C33.9663 58.5361 33.9403 58.446 33.9219 58.3539L34.0448 58.2243L34.1308 58.1337L35.614 56.5688L35.6141 56.5686L35.7002 56.478L35.8233 56.3479C35.9146 56.3614 36.0057 56.3821 36.0961 56.4112ZM37.0099 57.1155L36.9084 57.2225L36.8406 57.2941L36.2242 57.9444L36.0495 58.129L35.9718 58.2108L35.4749 58.7351L35.4056 58.8081L35.3129 58.9059L34.9209 59.3195L34.8532 59.3911L34.7517 59.498C34.4509 59.3295 34.2174 59.0773 34.0697 58.7832L34.1746 58.6725L34.2453 58.598L35.3212 57.4629L35.4851 57.2901L36.0841 56.6579L36.1548 56.5834L36.2594 56.4728C36.5788 56.6119 36.8349 56.8394 37.0099 57.1155Z" fill="white"/>
<path d="M40.4236 58.5327C40.3597 59.4652 39.552 60.1693 38.6196 60.1054C38.5373 60.0998 38.4568 60.0884 38.3786 60.0714C38.0413 59.9993 37.7437 59.8274 37.5156 59.5902C37.4751 59.5483 37.4371 59.5041 37.4012 59.4581C37.3438 59.3846 37.2922 59.3061 37.2475 59.2237C37.0991 58.9509 37.0242 58.6339 37.047 58.3013C37.1019 57.4988 37.7081 56.8654 38.4705 56.7452C38.5617 56.731 38.6549 56.7238 38.7498 56.725C38.7832 56.7252 38.8169 56.7264 38.851 56.7287C38.8756 56.7304 38.9 56.7327 38.9242 56.7357C39.2703 56.7739 39.5822 56.9155 39.831 57.1275C40.2259 57.4633 40.4617 57.9759 40.4236 58.5327Z" fill="#E28305"/>
<path d="M40.2815 58.5232C40.223 59.3771 39.4833 60.0219 38.6294 59.9634C37.7755 59.9049 37.1308 59.1652 37.1892 58.3113C37.2477 57.4574 37.9874 56.8127 38.8412 56.8711C39.6951 56.9297 40.34 57.6693 40.2815 58.5232Z" fill="#ED9B27"/>
<path d="M40.1874 58.5166C40.1324 59.3182 39.4382 59.9235 38.6366 59.8685C37.8351 59.8136 37.2298 59.1193 37.2847 58.3178C37.3397 57.5162 38.0339 56.9109 38.8355 56.9659C39.637 57.0208 40.2423 57.7151 40.1874 58.5166Z" fill="#E28305"/>
<path opacity="0.25" d="M38.7484 56.725L38.6777 56.8684L38.6296 56.966L37.5188 59.2171L37.4707 59.3149L37.3998 59.4583C37.3424 59.3848 37.2908 59.3063 37.2461 59.2239L37.3252 59.0636L37.3806 58.9516L38.3346 57.0181V57.0178L38.39 56.9059L38.4691 56.7453C38.5602 56.7311 38.6534 56.7239 38.7484 56.725ZM39.8296 57.1275L39.7643 57.2597L39.7207 57.3481L39.3243 58.1516L39.2121 58.3795L39.1621 58.4807L38.8425 59.1284L38.798 59.2187L38.7383 59.3396L38.4862 59.8506L38.4427 59.9391L38.3773 60.0713C38.04 59.9993 37.7424 59.8274 37.5143 59.5901L37.5818 59.4533L37.6273 59.3612L38.3193 57.9589L38.4247 57.7453L38.81 56.9643L38.8556 56.8722L38.9228 56.7355C39.2689 56.774 39.5808 56.9155 39.8296 57.1275Z" fill="white"/>
<path d="M45.3794 58.8008C45.3389 59.3919 44.8269 59.8384 44.2358 59.7979C44.1837 59.7944 44.1326 59.7871 44.083 59.7763C43.8692 59.7306 43.6806 59.6217 43.536 59.4713C43.5103 59.4446 43.4862 59.4168 43.4634 59.3876C43.4271 59.341 43.3944 59.2912 43.366 59.239C43.272 59.0659 43.2244 58.8651 43.2389 58.6542C43.2737 58.1454 43.6581 57.744 44.1413 57.6677C44.199 57.6586 44.2581 57.6542 44.3183 57.6549C44.3396 57.655 44.3609 57.6558 44.3825 57.6572C44.3981 57.6583 44.4136 57.6598 44.429 57.6615C44.6484 57.6859 44.8461 57.7755 45.0039 57.91C45.254 58.1229 45.4036 58.4477 45.3794 58.8008Z" fill="#E28305"/>
<path d="M45.2907 58.7945C45.2536 59.3358 44.7847 59.7446 44.2434 59.7075C43.7021 59.6704 43.2934 59.2015 43.3305 58.6602C43.3676 58.1189 43.8364 57.7101 44.3777 57.7472C44.919 57.7843 45.3278 58.2532 45.2907 58.7945Z" fill="#ED9B27"/>
<path d="M45.229 58.7905C45.1943 59.2987 44.7541 59.6824 44.246 59.6475C43.7379 59.6127 43.3542 59.1725 43.3889 58.6645C43.4238 58.1563 43.8639 57.7726 44.372 57.8074C44.8801 57.8422 45.2639 58.2823 45.229 58.7905Z" fill="#E28305"/>
<path d="M44.3183 58.8177C44.2817 58.803 44.2461 58.7881 44.2115 58.7727C44.1768 58.7574 44.1462 58.7391 44.1198 58.7177C44.0932 58.6963 44.0723 58.6706 44.0569 58.6401C44.0414 58.6096 44.0345 58.5724 44.0364 58.5281C44.0382 58.4855 44.0475 58.4484 44.0644 58.4168C44.0813 58.3853 44.1037 58.3587 44.1316 58.3371C44.1596 58.3156 44.1919 58.2989 44.2284 58.2874C44.265 58.2758 44.3038 58.2691 44.3449 58.2676L44.3508 58.1243L44.4147 58.1268L44.4088 58.2685C44.4513 58.2719 44.4902 58.2797 44.5251 58.2918C44.5602 58.3039 44.5901 58.3191 44.6147 58.3377C44.6394 58.3561 44.6584 58.377 44.6716 58.4003C44.6849 58.4236 44.691 58.4477 44.69 58.4728C44.6893 58.4897 44.6858 58.5038 44.6796 58.5151C44.6734 58.5262 44.6655 58.5354 44.6559 58.5424C44.6463 58.5495 44.6358 58.5544 44.6246 58.5572C44.6133 58.5599 44.6024 58.5611 44.5921 58.5607C44.579 58.5601 44.567 58.5576 44.5562 58.5527C44.5454 58.5478 44.5363 58.5415 44.5288 58.5335C44.5211 58.5255 44.5154 58.5162 44.5114 58.5058C44.5074 58.4951 44.5058 58.484 44.5062 58.472C44.5068 58.4572 44.511 58.4415 44.5188 58.4249C44.5265 58.4084 44.5384 58.3932 44.5542 58.3796C44.5447 58.3721 44.5339 58.3656 44.5218 58.3602C44.5098 58.3548 44.4971 58.3502 44.4838 58.3465C44.4705 58.3426 44.4573 58.3396 44.444 58.3375C44.4308 58.3352 44.4181 58.3337 44.4061 58.3326L44.3919 58.6782C44.429 58.6924 44.4656 58.7076 44.5015 58.7238C44.5375 58.7401 44.5695 58.7595 44.5976 58.7819C44.6256 58.8044 44.6479 58.831 44.6645 58.8617C44.6809 58.8925 44.6883 58.9297 44.6866 58.9734C44.6848 59.016 44.6749 59.0534 44.657 59.0858C44.6389 59.1181 44.6153 59.1452 44.5859 59.1671C44.5566 59.1888 44.5228 59.2056 44.4846 59.217C44.4464 59.2286 44.4065 59.2354 44.3648 59.2375L44.3586 59.3891L44.2947 59.3865L44.3008 59.2374C44.2538 59.2343 44.211 59.226 44.1722 59.2124C44.1334 59.1988 44.1002 59.1817 44.0726 59.1611C44.045 59.1405 44.0239 59.1175 44.009 59.092C43.9942 59.0666 43.9872 59.0403 43.9884 59.0129C43.9896 58.9835 43.9997 58.9589 44.0189 58.9394C44.0381 58.9201 44.0632 58.9109 44.0943 58.9122C44.1069 58.9127 44.1187 58.9151 44.1301 58.9194C44.1414 58.9237 44.1514 58.9299 44.16 58.9383C44.1687 58.9465 44.1755 58.9569 44.1805 58.9695C44.1854 58.9821 44.1876 58.9964 44.1869 59.0128C44.1861 59.0319 44.1814 59.0498 44.1728 59.0663C44.1641 59.0829 44.1509 59.0972 44.1329 59.109C44.1572 59.1308 44.1847 59.1464 44.2155 59.1559C44.2462 59.1653 44.2756 59.1712 44.3034 59.1734L44.3183 58.8177ZM44.1694 58.4876C44.1685 58.51 44.171 58.5293 44.1768 58.5457C44.1827 58.5621 44.1923 58.5766 44.2055 58.5891C44.2186 58.6017 44.2354 58.6133 44.2557 58.6241C44.276 58.6347 44.3004 58.646 44.3291 58.6575L44.3425 58.3316C44.3195 58.3333 44.2977 58.3373 44.2776 58.3437C44.2572 58.35 44.2393 58.3593 44.2234 58.3719C44.2076 58.3843 44.1949 58.4 44.1854 58.419C44.1759 58.4379 44.1706 58.4608 44.1694 58.4876ZM44.5375 59.0154C44.5384 58.9931 44.5358 58.9734 44.5296 58.9565C44.5235 58.9396 44.514 58.9243 44.5012 58.9109C44.4883 58.8977 44.4718 58.8851 44.4518 58.8737C44.4317 58.8622 44.4083 58.8509 44.3814 58.8399L44.3678 59.1733C44.3903 59.1715 44.4117 59.1672 44.4319 59.1604C44.4521 59.1536 44.47 59.1438 44.4852 59.1309C44.5005 59.1181 44.5128 59.1023 44.522 59.0833C44.5312 59.0644 44.5364 59.0417 44.5375 59.0154Z" fill="#ED9B27"/>
<path opacity="0.25" d="M44.3194 57.6549L44.2746 57.7458L44.2441 57.8076L43.54 59.2346L43.5095 59.2966L43.4646 59.3876C43.4282 59.341 43.3956 59.2912 43.3672 59.239L43.4173 59.1374L43.4524 59.0664L44.0572 57.8407V57.8406L44.0923 57.7695L44.1425 57.6678C44.2001 57.6586 44.2591 57.6542 44.3194 57.6549ZM45.0048 57.9101L44.9634 57.9939L44.9358 58.05L44.6845 58.5595L44.6133 58.704L44.5816 58.7681L44.379 59.1787L44.3508 59.236L44.3129 59.3127L44.1531 59.6367L44.1255 59.6928L44.0841 59.7766C43.8702 59.731 43.6817 59.622 43.5371 59.4716L43.5798 59.3849L43.6087 59.3265L44.0474 58.4375L44.1143 58.302L44.3586 57.807L44.3873 57.7486L44.4299 57.662C44.6494 57.6858 44.847 57.7756 45.0048 57.9101Z" fill="white"/>
<path d="M41.4276 56.4346C41.1509 56.9726 40.4902 57.1845 39.9521 56.9078C39.9046 56.8834 39.8597 56.856 39.8176 56.8258C39.6354 56.6966 39.5025 56.5183 39.4276 56.3187C39.4143 56.2834 39.4029 56.2474 39.3933 56.2108C39.3779 56.1525 39.3675 56.0925 39.362 56.032C39.3437 55.8318 39.3803 55.6241 39.4789 55.4322C39.7171 54.9689 40.2398 54.7476 40.724 54.8712C40.7818 54.8862 40.839 54.9058 40.8952 54.9308C40.9151 54.9395 40.9348 54.9488 40.9544 54.9589C40.9686 54.9663 40.9826 54.9739 40.9962 54.9818C41.1922 55.0932 41.3414 55.2574 41.435 55.4471C41.5839 55.7481 41.5929 56.1131 41.4276 56.4346Z" fill="#E28305"/>
<path d="M41.345 56.3921C41.0916 56.8849 40.4867 57.0789 39.9938 56.8255C39.501 56.572 39.3071 55.967 39.5605 55.4743C39.814 54.9815 40.4189 54.7876 40.9117 55.041C41.4046 55.2945 41.5985 55.8994 41.345 56.3921Z" fill="#ED9B27"/>
<path d="M41.2914 56.3641C41.0535 56.8268 40.4856 57.0089 40.023 56.7709C39.5605 56.5331 39.3783 55.9651 39.6162 55.5025C39.8542 55.0399 40.422 54.8578 40.8847 55.0957C41.3472 55.3337 41.5294 55.9016 41.2914 56.3641Z" fill="#E28305"/>
<path opacity="0.25" d="M40.8946 54.9322L40.8158 54.9995L40.7622 55.0451L39.5252 56.0992L39.4716 56.145L39.3927 56.2121C39.3773 56.1538 39.3668 56.0938 39.3613 56.0333L39.4494 55.9583L39.511 55.9059L40.5735 55.0004L40.5736 55.0003L40.6353 54.9478L40.7234 54.8726C40.7812 54.8876 40.8384 54.9072 40.8946 54.9322ZM41.4344 55.4485L41.3617 55.5104L41.3131 55.5518L40.8716 55.928L40.7465 56.0349L40.6908 56.0822L40.3349 56.3855L40.2853 56.4278L40.2189 56.4844L39.9381 56.7237L39.8896 56.7652L39.8169 56.827C39.6347 56.6978 39.5018 56.5195 39.4269 56.3199L39.5021 56.2558L39.5527 56.2127L40.3234 55.556L40.4408 55.456L40.87 55.0903L40.9205 55.0472L40.9956 54.9833C41.1916 55.0945 41.3408 55.2587 41.4344 55.4485Z" fill="white"/>
<path d="M43.6199 58.4706C43.7346 59.3982 43.0757 60.2432 42.1483 60.358C42.0663 60.3681 41.9852 60.3723 41.9053 60.3704C41.5604 60.3638 41.2355 60.2518 40.9665 60.0624C40.9188 60.0289 40.873 59.9929 40.829 59.9545C40.7586 59.8933 40.693 59.8259 40.6334 59.7536C40.4358 59.514 40.3019 59.2171 40.261 58.8863C40.1622 58.0879 40.6368 57.3507 41.3623 57.0876C41.4491 57.0564 41.5392 57.0316 41.6325 57.0146C41.6655 57.0084 41.6988 57.0032 41.7326 56.9991C41.7571 56.9961 41.7815 56.9937 41.8058 56.992C42.153 56.9637 42.4861 57.0433 42.7707 57.2041C43.2222 57.4584 43.5513 57.9167 43.6199 58.4706Z" fill="#E28305"/>
<path d="M43.4786 58.4873C43.5836 59.3367 42.9802 60.1105 42.1309 60.2155C41.2814 60.3206 40.5077 59.7172 40.4025 58.8679C40.2974 58.0184 40.9008 57.2447 41.7503 57.1396C42.5996 57.0344 43.3735 57.6378 43.4786 58.4873Z" fill="#ED9B27"/>
<path d="M43.3831 58.499C43.4817 59.2963 42.9153 60.0226 42.1179 60.1213C41.3206 60.2201 40.5943 59.6536 40.4955 58.8562C40.3968 58.0588 40.9632 57.3325 41.7607 57.2338C42.5581 57.1352 43.2845 57.7016 43.3831 58.499Z" fill="#E28305"/>
<path opacity="0.25" d="M41.6319 57.0136L41.5899 57.1679L41.5613 57.2728L40.8993 59.6942L40.8707 59.7992L40.8284 59.9536C40.758 59.8924 40.6924 59.8251 40.6328 59.7527L40.68 59.5804L40.713 59.4598L41.2815 57.3801V57.3799L41.3145 57.2593L41.3617 57.0867C41.4485 57.0554 41.5386 57.0307 41.6319 57.0136ZM42.7701 57.203L42.7311 57.3452L42.7052 57.4404L42.4688 58.3047L42.4021 58.5498L42.3721 58.6586L42.1817 59.3554L42.1552 59.4525L42.1196 59.5825L41.9695 60.1321L41.9435 60.2274L41.9045 60.3695C41.5596 60.3629 41.2348 60.2509 40.9657 60.0615L41.0059 59.9143L41.033 59.8152L41.4454 58.3067L41.5083 58.077L41.738 57.2369L41.7651 57.1378L41.8051 56.991C42.1524 56.9627 42.4855 57.0423 42.7701 57.203Z" fill="white"/>
<path d="M45.4849 60.9348L45.3249 62.7138L44.252 74.2631C44.1389 75.4868 43.1129 76.4185 41.8893 76.4185H32.58C31.3564 76.4185 30.3305 75.4867 30.2175 74.2631L29.1445 62.7138L28.9844 60.9348H45.4849Z" fill="#F4B88F"/>
<path opacity="0.25" d="M35.9161 72.4945C36.5494 73.2736 36.8344 74.2793 36.7051 75.2752C36.6377 75.7943 36.5752 76.2779 36.5583 76.4211H32.5797C31.3529 76.4211 30.3279 75.4868 30.215 74.2652L28.9805 60.939H44.9372L45.0698 62.0577L36.8538 67.0587C34.9591 68.2123 34.5173 70.7725 35.9161 72.4945Z" fill="white"/>
<path d="M45.4848 60.9348L45.3247 62.7138H29.1445L28.9844 60.9348H45.4848Z" fill="#19110D"/>
<path d="M45.5477 58.886H28.9257C28.107 58.886 27.4434 59.5496 27.4434 60.3683C27.4434 61.3011 28.1995 62.0574 29.1323 62.0574H45.3408C46.2736 62.0574 47.0298 61.3011 47.0298 60.3683C47.03 59.5496 46.3663 58.886 45.5477 58.886Z" fill="#F4B88F"/>
<path d="M59.6162 43.3948L58.8037 43.1217C58.8037 43.1217 58.8853 41.8721 58.6176 41.9695C58.35 42.067 58.0576 42.7177 58.1811 42.8589C58.1811 42.8589 57.0921 42.3313 56.6254 43.0355C56.1589 43.7396 56.6195 44.9905 57.7655 44.8216C58.9115 44.6527 59.4782 44.5854 59.4782 44.5854L59.6162 43.3948Z" fill="#F8B985"/>
<path d="M59.4768 43.1896L59.1641 44.7049C59.1641 44.7049 65.052 45.9519 67.0139 45.6698C68.3051 45.4841 69.3002 43.5657 69.4201 42.3337C69.5254 41.2531 69.9513 40.3928 69.9172 39.3078C69.8943 38.5779 69.6069 37.9553 68.6378 38.1036C66.4845 38.4331 66.6925 43.1705 65.6363 43.1974C64.5804 43.2241 59.4768 43.1896 59.4768 43.1896Z" fill="#A33635"/>
<path d="M49.9325 45.8763C50.5593 46.7728 51.7684 47.0095 52.6334 46.4048C53.4984 45.8001 53.6915 44.5832 53.0647 43.6866C52.4379 42.7901 51.2288 42.5535 50.3638 43.1581C49.4989 43.7627 49.3058 44.9797 49.9325 45.8763Z" fill="#E28305"/>
<path d="M60.2222 49.4243L59.9621 49.1201C59.9919 49.0932 60.0162 49.0695 60.0351 49.0517C60.6625 48.3951 60.603 46.9487 59.9065 45.9531C59.44 45.2829 59.3094 44.8483 59.0891 44.127C58.9514 43.6617 58.7747 43.0853 58.4664 42.2974C58.1719 41.5599 57.6963 41.359 57.3471 41.3218C56.3106 41.2066 55.1865 42.4741 54.604 43.2445C54.0685 43.0323 53.5075 43.0558 53.0781 43.3556L51.4015 44.5276L51.0076 44.8032L49.331 45.9753C48.6171 46.4749 48.4936 47.5739 49.0387 48.5342L51.6011 53.0495C49.1246 52.8296 42.6249 51.9965 42.6249 51.9965L42.5156 52.6175L47.18 53.9493C47.18 53.9493 47.1828 53.9492 47.1858 53.9519L53.5566 55.7714C53.8759 55.954 54.2196 56.0538 54.5472 56.0525C54.8467 56.0526 55.1341 55.9769 55.3803 55.8044L57.6065 54.245L58.0004 53.9694L60.2295 52.4126C61.0749 51.8221 61.0714 50.4239 60.2222 49.4243ZM59.2115 48.2344L55.5814 43.9613C55.5694 43.9476 55.5577 43.937 55.5457 43.9235C55.9635 43.3756 56.4301 42.9045 56.7856 42.6561C56.966 42.5289 57.1182 42.4597 57.2176 42.472C57.2461 42.4762 57.3171 42.5464 57.3876 42.7239C57.6824 43.4671 57.84 43.9965 57.9805 44.4617C58.2146 45.236 58.3849 45.7958 58.9575 46.6165C59.4297 47.2891 59.3483 48.0811 59.2115 48.2344Z" fill="#E28305"/>
<path d="M42.3435 52.2688C42.3849 52.035 42.51 51.8617 42.623 51.8817C42.7359 51.9018 42.794 52.1074 42.7526 52.3413C42.7111 52.5751 42.586 52.7484 42.4729 52.7284C42.36 52.7085 42.302 52.5027 42.3435 52.2688Z" fill="#A33635"/>
<path opacity="0.18" d="M60.2237 49.4243L59.9637 49.1201C59.9935 49.0932 60.0178 49.0695 60.0367 49.0517C60.664 48.3951 60.6045 46.9487 59.908 45.9531C59.4415 45.2829 59.311 44.8483 59.0906 44.127C58.9529 43.6617 58.7762 43.0853 58.4679 42.2974C58.1734 41.5599 57.6979 41.359 57.3486 41.3218C56.3121 41.2066 55.188 42.4741 54.6055 43.2445C54.6055 43.2445 56.7481 45.9799 57.5636 48.6056C58.3788 51.2284 55.5389 55.0567 55.0962 54.6538C54.6535 54.2509 52.8272 54.7604 52.8272 54.7604L47.1816 53.9493C47.1816 53.9493 47.1845 53.9492 47.1874 53.9519L53.5582 55.7714C53.8775 55.954 54.2212 56.0538 54.5489 56.0525C54.8484 56.0526 55.1357 55.9769 55.3819 55.8044L57.6082 54.245L58.002 53.9694L60.2312 52.4126C61.0764 51.8221 61.0729 50.4239 60.2237 49.4243ZM59.213 48.2344L55.5829 43.9613C55.5709 43.9476 55.5592 43.937 55.5472 43.9235C55.965 43.3756 56.4316 42.9045 56.7871 42.6561C56.9675 42.5289 57.1197 42.4597 57.2191 42.472C57.2476 42.4762 57.3187 42.5464 57.3891 42.7239C57.6839 43.4671 57.8415 43.9965 57.9821 44.4617C58.2161 45.236 58.3865 45.7958 58.959 46.6165C59.4313 47.2891 59.3498 48.0811 59.213 48.2344Z" fill="#432266"/>
<path d="M57.2852 42.6736C57.2852 42.6736 58.2912 42.7598 58.3108 43.5004C58.3304 44.241 58.288 44.6739 57.9768 44.7909C57.6656 44.9078 57.2852 42.6736 57.2852 42.6736Z" fill="#F8B985"/>
<path d="M65.8861 73.714C65.8861 73.714 65.934 74.392 65.836 74.4826C65.7376 74.5751 65.4844 74.7244 65.4844 74.7244C65.4844 74.7244 66.7784 75.3529 67.0272 75.0026C67.276 74.6522 67.1496 73.2119 67.1496 73.2119L65.8861 73.714Z" fill="#F8B985"/>
<path d="M63.9047 75.2825C63.9047 75.2825 63.0667 75.3498 63.0022 75.7368C62.9682 75.9406 63.0072 75.9702 63.0072 75.9702L67.3258 75.8761C67.3258 75.8761 67.4695 75.8703 67.4511 75.5538L67.3742 74.5393C67.3742 74.5393 67.239 74.4633 67.0095 74.6802C66.7807 74.8965 66.2383 75.0311 65.6449 74.4313C65.6449 74.4313 65.5568 74.3664 65.1955 74.6637C64.833 74.9612 64.9288 75.2602 63.9047 75.2825Z" fill="#244D77"/>
<path d="M73.9688 70.6464C73.9688 70.6464 74.4692 71.1064 74.46 71.2396C74.4519 71.3744 74.3704 71.6568 74.3704 71.6568C74.3704 71.6568 75.7427 71.2252 75.683 70.7998C75.6234 70.3742 74.5424 69.4138 74.5424 69.4138L73.9688 70.6464Z" fill="#F8B985"/>
<path d="M73.6056 73.1475C73.6056 73.1475 73.0426 73.7716 73.2614 74.0974C73.3767 74.2689 73.4255 74.2636 73.4255 74.2636L76.5004 71.2297C76.5004 71.2297 76.6008 71.1269 76.3702 70.9095L75.6178 70.2246C75.6178 70.2246 75.4673 70.2623 75.4494 70.5775C75.4316 70.8919 75.1297 71.3621 74.2864 71.3335C74.2864 71.3335 74.1778 71.3469 74.1194 71.8111C74.06 72.2763 74.3348 72.428 73.6056 73.1475Z" fill="#244D77"/>
<path d="M70.5335 54.0264C70.6312 54.5243 71.8521 64.0473 71.8521 64.0473L75.4202 69.7993L74.0858 70.9582C74.0858 70.9582 69.8026 66.4534 69.7037 66.2788C69.6047 66.1043 66.7751 60.9053 67.1803 59.0156C67.5856 57.1259 70.5335 54.0264 70.5335 54.0264Z" fill="#244D77"/>
<path d="M70.8298 56.1536L70.9405 56.9603C70.9405 56.9603 68.5908 59.5899 68.3835 60.6859C68.1763 61.7819 68.2277 63.2283 68.2158 63.1672C68.2038 63.1062 67.4102 61.3199 67.3676 60.7796C67.325 60.2392 70.8298 56.1536 70.8298 56.1536Z" fill="#244D77"/>
<path d="M72.3646 53.7969C71.9251 54.8529 66.7605 61.8137 66.7605 61.8137C66.7605 61.8137 67.4054 66.1047 67.3602 68.1825C67.3149 70.2602 67.4643 73.9243 67.4643 73.9243L65.6212 73.8162C65.6212 73.8162 63.5514 64.8999 63.2339 63.2807C62.997 62.0728 63.0625 59.6529 63.4812 57.7859C63.6232 57.1512 63.8062 56.58 64.0322 56.1424C64.1176 55.9778 64.2106 55.8031 64.3113 55.6216C65.2566 53.9038 66.7617 51.5985 66.7617 51.5985L72.2123 51.3704C72.2122 51.3704 72.8043 52.7408 72.3646 53.7969Z" fill="#416D99"/>
<path d="M69.7142 37.4157C71.2943 37.4867 71.9263 38.914 72.8783 42.2715C73.8304 45.6291 74.2437 50.482 72.3236 51.9075C72.3236 51.9075 67.024 53.5516 65.8366 52.4389C64.3323 51.0294 65.923 47.2981 66.4211 44.2139C66.9192 41.1296 66.7559 40.3886 67.1455 39.1779C67.4697 38.17 68.9402 37.3808 69.7142 37.4157Z" fill="white"/>
<path d="M69.7483 37.6939L68.2244 38.5235L68.1003 38.5912C67.8717 38.6899 67.6094 38.5856 67.5133 38.357C67.4287 38.1594 67.3243 37.9337 67.2311 37.7869C67.2283 37.7841 67.2283 37.7785 67.2255 37.7757C67.0251 37.3919 66.4439 37.5218 65.9275 37.4202C65.8654 37.4033 65.8033 37.3864 65.7412 37.3637C65.7299 37.3581 65.7186 37.3553 65.7073 37.3468C65.6594 37.3215 65.6198 37.2932 65.5888 37.2622C65.5888 37.2622 65.586 37.2622 65.586 37.2594C65.5042 37.1691 65.4731 37.0393 65.4618 36.8982V36.8869C65.4533 36.7628 65.459 36.6302 65.4646 36.5059C65.4702 36.4016 65.4731 36.3056 65.4646 36.2237V36.2125C65.4533 36.1166 65.4279 36.046 65.3659 36.0205C65.0837 35.8963 65.3856 35.2699 65.5267 34.745C65.6678 34.2174 65.1797 33.6812 65.1797 33.6812C65.9585 33.3539 66.6667 33.3455 67.2651 33.4808C68.4672 33.7517 69.2234 34.5954 69.2234 34.5954C69.2234 34.5954 69.3278 36.17 69.3673 36.2912C69.373 36.3053 69.3814 36.3421 69.3984 36.39C69.4886 36.7203 69.7483 37.6939 69.7483 37.6939Z" fill="#F8B985"/>
<path opacity="0.21" d="M69.3972 36.3904C69.3944 36.3904 69.3944 36.3932 69.3915 36.3932C69.146 36.4722 68.4914 34.8582 67.8592 34.8327C67.2272 34.8101 67.4895 35.6172 67.9072 35.9389C68.3221 36.2577 67.9665 36.4947 67.7492 37.0451C67.5319 37.5953 68.0962 38.377 68.2148 38.4757C68.2317 38.4898 68.2345 38.5067 68.2232 38.5238C68.2148 38.535 68.2007 38.5491 68.181 38.5632C67.9496 38.7326 67.6195 38.6281 67.5009 38.3657C67.4219 38.1794 67.3176 37.9623 67.23 37.7872C67.2272 37.7844 67.2272 37.7788 67.2243 37.776C67.024 37.3922 66.4427 37.522 65.9263 37.4205C65.9207 37.4205 65.9122 37.4177 65.9065 37.4177C65.8416 37.4036 65.788 37.3867 65.74 37.364C65.7287 37.3584 65.7175 37.3556 65.7061 37.3471C65.6582 37.3218 65.6186 37.2935 65.5876 37.2625C65.5876 37.2625 65.5848 37.2625 65.5848 37.2597C65.424 37.1017 65.4606 36.8984 65.4606 36.8984V36.8872L65.4634 36.5062V36.2128C65.4634 36.2128 65.6384 36.0519 66.262 36.2749C66.8884 36.495 66.8348 36.2636 66.9702 36.0435C67.1028 35.8262 67.2101 35.276 67.1085 34.4463C67.0041 33.6139 66.626 33.5942 66.626 33.5942C66.7924 33.5124 67.0154 33.4785 67.2637 33.4814C67.8646 33.487 68.6097 33.7015 69.0104 33.9469C69.5776 34.2883 69.3434 34.9656 69.3434 34.9656C69.3434 34.9656 69.6314 36.2887 69.3972 36.3904Z" fill="#254DA5"/>
<path d="M66.6252 33.5935C66.6252 33.5935 64.4744 34.9005 63.9371 33.9643C63.3998 33.0281 64.5043 31.1653 66.3177 30.872C68.9742 30.4425 69.6809 32.4057 70.1205 33.9618C70.56 35.5181 69.3904 36.392 69.3904 36.392C69.3904 36.392 68.2016 36.132 67.8543 35.0658C67.5071 33.9996 67.3128 33.9273 67.3128 33.9273C67.3128 33.9273 67.6645 35.4734 67.0861 35.0083C66.5076 34.5431 66.6252 33.5935 66.6252 33.5935Z" fill="#3D2214"/>
<path d="M61.0904 48.9719L60.2158 49.2808C60.2158 49.2808 59.4524 48.1611 59.2892 48.4227C59.1261 48.6841 59.3106 49.4335 59.5102 49.4717C59.5102 49.4717 58.2301 49.7479 58.3017 50.6591C58.3733 51.5705 59.5998 52.3298 60.4641 51.4218C61.3284 50.514 61.7667 50.0787 61.7667 50.0787L61.0904 48.9719Z" fill="#F8B985"/>
<path d="M60.8359 48.8899L61.5794 50.3901C61.5794 50.3901 67.4298 47.5282 68.914 45.9798C69.8908 44.9607 70.8755 42.5175 71.4345 40.9661C71.8329 39.8608 71.6459 38.6141 70.8935 37.7117C70.3874 37.1049 69.7274 36.7655 69.0003 37.538C67.3843 39.2544 66.9741 44.0636 66.0918 44.7904C65.2093 45.5174 60.8359 48.8899 60.8359 48.8899Z" fill="#A33635"/>
<path d="M39.4908 55.9432C39.3298 56.256 38.9456 56.3792 38.6329 56.2182C38.6052 56.204 38.5791 56.1882 38.5546 56.1706C38.4487 56.0954 38.3714 55.9917 38.3279 55.8758C38.3202 55.8552 38.3136 55.8343 38.308 55.8131C38.299 55.7791 38.2929 55.7443 38.2898 55.7092C38.2791 55.5927 38.3003 55.472 38.3579 55.3604C38.4964 55.0911 38.8002 54.9625 39.0817 55.0343C39.1153 55.043 39.1486 55.0544 39.1813 55.0688C39.1929 55.0739 39.2043 55.0793 39.2156 55.0853C39.224 55.0895 39.2321 55.094 39.2399 55.0985C39.3539 55.1633 39.4407 55.2588 39.4952 55.369C39.5817 55.5439 39.5868 55.7563 39.4908 55.9432Z" fill="#E28305"/>
<path d="M39.4401 55.9187C39.2928 56.2051 38.941 56.3179 38.6545 56.1706C38.368 56.0233 38.2553 55.6714 38.4026 55.385C38.5499 55.0985 38.9016 54.9857 39.1882 55.1331C39.4746 55.2804 39.5874 55.6321 39.4401 55.9187Z" fill="#ED9B27"/>
<path d="M39.4098 55.9024C39.2716 56.1714 38.9412 56.2772 38.6723 56.139C38.4033 56.0006 38.2974 55.6703 38.4357 55.4015C38.5741 55.1326 38.9042 55.0267 39.1732 55.165C39.4421 55.3033 39.5481 55.6335 39.4098 55.9024Z" fill="#E28305"/>
<path opacity="0.25" d="M39.1804 55.0691L39.1346 55.1081L39.1035 55.1347L38.3843 55.7476L38.353 55.7742L38.3073 55.8133C38.2983 55.7793 38.2922 55.7445 38.2891 55.7094L38.3402 55.6658L38.3761 55.6352L38.9938 55.1088V55.1087L39.0296 55.0782L39.0809 55.0344C39.1146 55.0431 39.1479 55.0545 39.1804 55.0691ZM39.4945 55.3692L39.4522 55.4053L39.4239 55.4293L39.1672 55.6482L39.0945 55.7104L39.0621 55.7378L38.8551 55.9142L38.8263 55.9388L38.7876 55.9717L38.6245 56.1108L38.5963 56.135L38.554 56.1709C38.4481 56.0958 38.3708 55.992 38.3273 55.8761L38.371 55.8389L38.4005 55.8138L38.8486 55.4319L38.9169 55.3738L39.1665 55.1612L39.1959 55.1361L39.2395 55.0989C39.3531 55.1636 39.4399 55.2589 39.4945 55.3692Z" fill="white"/>
<path d="M42.2204 60.0662C42.0561 60.3854 41.6642 60.5111 41.345 60.3469C41.3168 60.3324 41.2902 60.3162 41.2651 60.2983C41.1571 60.2215 41.0783 60.1157 41.0338 59.9974C41.0259 59.9765 41.0191 59.9551 41.0135 59.9334C41.0044 59.8988 40.9982 59.8632 40.9949 59.8274C40.984 59.7086 41.0057 59.5853 41.0643 59.4716C41.2056 59.1967 41.5158 59.0654 41.8029 59.1387C41.8372 59.1475 41.8711 59.1592 41.9045 59.1741C41.9162 59.1792 41.928 59.1849 41.9396 59.1907C41.948 59.1951 41.9564 59.1995 41.9643 59.2042C42.0807 59.2703 42.1692 59.3677 42.2247 59.4804C42.313 59.6588 42.3184 59.8754 42.2204 60.0662Z" fill="#E28305"/>
<path d="M42.1717 60.042C42.0213 60.3343 41.6623 60.4495 41.37 60.2991C41.0776 60.1487 40.9626 59.7899 41.1129 59.4974C41.2633 59.2051 41.6222 59.09 41.9146 59.2404C42.207 59.3907 42.3221 59.7497 42.1717 60.042Z" fill="#ED9B27"/>
<path d="M42.1398 60.0244C41.9987 60.2989 41.6618 60.4069 41.3873 60.2658C41.1129 60.1247 41.0048 59.7878 41.146 59.5133C41.2871 59.2388 41.624 59.1308 41.8984 59.2719C42.1729 59.413 42.2809 59.75 42.1398 60.0244Z" fill="#E28305"/>
<path opacity="0.25" d="M41.9038 59.1741L41.8571 59.2141L41.8253 59.2412L41.0913 59.8666L41.0595 59.8939L41.0127 59.9337C41.0036 59.899 40.9974 59.8635 40.9941 59.8277L41.0464 59.7832L41.083 59.7521L41.7133 59.2149L41.7498 59.1838L41.8022 59.1392C41.8366 59.1477 41.8705 59.1593 41.9038 59.1741ZM42.2241 59.4804L42.181 59.5172L42.1521 59.5417L41.8902 59.765L41.8159 59.8284L41.7828 59.8564L41.5717 60.0364L41.5422 60.0615L41.5028 60.0951L41.3362 60.2371L41.3075 60.2617L41.2643 60.2984C41.1563 60.2216 41.0774 60.1159 41.0329 59.9975L41.0775 59.9595L41.1075 59.9339L41.5648 59.5443L41.6345 59.485L41.8891 59.2681L41.9192 59.2425L41.9637 59.2044C42.08 59.2705 42.1685 59.3678 42.2241 59.4804Z" fill="white"/>
<path d="M37.1519 55.7606C36.9047 56.2412 36.3145 56.4306 35.8339 56.1832C35.7914 56.1615 35.7514 56.137 35.7137 56.1101C35.551 55.9947 35.4322 55.8353 35.3654 55.6571C35.3535 55.6255 35.3433 55.5935 35.3348 55.5608C35.321 55.5086 35.3116 55.4552 35.3068 55.4012C35.2904 55.2223 35.3231 55.0368 35.4113 54.8653C35.6241 54.4515 36.091 54.2538 36.5235 54.3642C36.5751 54.3775 36.6262 54.3951 36.6765 54.4174C36.6942 54.4252 36.7118 54.4336 36.7293 54.4425C36.7421 54.4491 36.7545 54.4559 36.7667 54.463C36.9418 54.5625 37.0751 54.709 37.1587 54.8785C37.2915 55.1474 37.2996 55.4736 37.1519 55.7606Z" fill="#E28305"/>
<path d="M37.0783 55.7232C36.8519 56.1634 36.3115 56.3367 35.8713 56.1104C35.4311 55.8839 35.2578 55.3435 35.4842 54.9033C35.7106 54.4631 36.251 54.2898 36.6913 54.5161C37.1314 54.7426 37.3047 55.283 37.0783 55.7232Z" fill="#ED9B27"/>
<path d="M37.0291 55.6978C36.8165 56.1111 36.3093 56.2737 35.8962 56.0612C35.4829 55.8486 35.3202 55.3414 35.5328 54.9281C35.7453 54.5149 36.2526 54.3523 36.6658 54.5648C37.0789 54.7774 37.2416 55.2846 37.0291 55.6978Z" fill="#E28305"/>
<path opacity="0.25" d="M36.6761 54.4194L36.6058 54.4794L36.5579 54.5201L35.4529 55.4617L35.405 55.5026L35.3346 55.5626C35.3208 55.5103 35.3115 55.4569 35.3066 55.4029L35.3853 55.3359L35.4404 55.289L36.3895 54.4802V54.4801L36.4445 54.4332L36.5233 54.366C36.5748 54.3795 36.6259 54.3971 36.6761 54.4194ZM37.1584 54.8805L37.0935 54.9358L37.05 54.9728L36.6556 55.3089L36.5438 55.4043L36.4942 55.4466L36.1763 55.7176L36.132 55.7554L36.0726 55.806L35.8218 56.0198L35.7784 56.0569L35.7135 56.1121C35.5508 55.9967 35.432 55.8373 35.3652 55.6591L35.4324 55.6019L35.4776 55.5634L36.1661 54.9768L36.2709 54.8874L36.6542 54.5607L36.6994 54.5222L36.7664 54.465C36.9415 54.5645 37.0747 54.711 37.1584 54.8805Z" fill="white"/>
<path d="M42.2842 54.0216C42.1412 54.2996 41.8 54.409 41.522 54.266C41.4974 54.2533 41.4742 54.2392 41.4525 54.2237C41.3584 54.1569 41.2898 54.0648 41.251 53.9617C41.2441 53.9435 41.2383 53.925 41.2334 53.9061C41.2254 53.8759 41.22 53.8449 41.2172 53.8137C41.2077 53.7102 41.2266 53.6029 41.2777 53.5037C41.4007 53.2645 41.6707 53.1502 41.9209 53.214C41.9507 53.2218 41.9803 53.2319 42.0093 53.2448C42.0195 53.2492 42.0297 53.2541 42.0399 53.2593C42.0473 53.2631 42.0545 53.2671 42.0615 53.2712C42.1628 53.3287 42.2398 53.4135 42.2882 53.5115C42.365 53.6669 42.3695 53.8556 42.2842 54.0216Z" fill="#E28305"/>
<path d="M42.2411 53.9996C42.1101 54.2541 41.7976 54.3544 41.5431 54.2235C41.2886 54.0926 41.1883 53.7801 41.3192 53.5254C41.4501 53.2709 41.7626 53.1707 42.0172 53.3017C42.2718 53.4326 42.3721 53.7451 42.2411 53.9996Z" fill="#ED9B27"/>
<path d="M42.2142 53.9851C42.0913 54.2241 41.7979 54.3181 41.5591 54.1952C41.32 54.0723 41.226 53.7789 41.3489 53.5399C41.4718 53.301 41.7652 53.207 42.0041 53.3298C42.2431 53.4528 42.3371 53.7462 42.2142 53.9851Z" fill="#E28305"/>
<path opacity="0.25" d="M42.0089 53.2447L41.9681 53.2795L41.9404 53.3031L41.3014 53.8477L41.2737 53.8713L41.233 53.906C41.225 53.8759 41.2196 53.8449 41.2168 53.8136L41.2622 53.7749L41.294 53.7478L41.8429 53.2801L41.8747 53.253L41.9202 53.2141C41.9503 53.2217 41.9799 53.2318 42.0089 53.2447ZM42.2878 53.5113L42.2503 53.5433L42.2252 53.5646L41.9971 53.7591L41.9325 53.8142L41.9038 53.8386L41.7199 53.9954L41.6944 54.0172L41.66 54.0464L41.515 54.17L41.49 54.1914L41.4524 54.2235C41.3584 54.1567 41.2897 54.0645 41.251 53.9614L41.2898 53.9283L41.316 53.906L41.7141 53.5668L41.7747 53.5151L41.9963 53.3262L42.0225 53.304L42.0612 53.2709C42.1623 53.3286 42.2394 53.4134 42.2878 53.5113Z" fill="white"/>
<path d="M35.7485 68.3622V68.5561C35.7485 68.915 35.4556 69.2059 35.0967 69.2059H26.8666C26.5077 69.2059 26.2148 68.915 26.2148 68.5561V68.3622C26.2148 68.271 26.2342 68.1857 26.2672 68.1081C26.3662 67.8734 26.597 67.7104 26.8666 67.7104H35.0967C35.2053 67.7104 35.3062 67.7357 35.3955 67.7823C35.6049 67.8908 35.7485 68.1099 35.7485 68.3622Z" fill="#ED9B27"/>
<path d="M35.3938 67.7822C35.2948 68.0168 35.0621 68.1818 34.7925 68.1818H26.5624C26.4557 68.1818 26.3548 68.1547 26.2656 68.1081C26.3646 67.8734 26.5954 67.7104 26.865 67.7104H35.0951C35.2037 67.7104 35.3046 67.7357 35.3938 67.7822Z" fill="#E28305"/>
<path opacity="0.3" d="M32.7265 67.7104H29.8789V69.2059H32.7265V67.7104Z" fill="white"/>
<path d="M34.0121 69.8577V70.0516C34.0121 70.4105 33.7192 70.7014 33.3604 70.7014H25.1303C24.7714 70.7014 24.4785 70.4105 24.4785 70.0516V69.8577C24.4785 69.7665 24.4979 69.6811 24.5309 69.6037C24.6298 69.369 24.8606 69.2061 25.1303 69.2061H33.3604C33.469 69.2061 33.5698 69.2313 33.6591 69.2778C33.8686 69.3864 34.0121 69.6055 34.0121 69.8577Z" fill="#ED9B27"/>
<path d="M33.6594 69.2778C33.5604 69.5124 33.3278 69.6774 33.0581 69.6774H24.828C24.7213 69.6774 24.6205 69.6503 24.5312 69.6037C24.6302 69.369 24.861 69.2061 25.1307 69.2061H33.3608C33.4692 69.2061 33.5701 69.2313 33.6594 69.2778Z" fill="#E28305"/>
<path opacity="0.3" d="M30.9921 69.2061H28.1445V70.7015H30.9921V69.2061Z" fill="white"/>
<path d="M34.5844 71.3575V71.5514C34.5844 71.9103 34.2915 72.2012 33.9326 72.2012H25.7025C25.3437 72.2012 25.0508 71.9103 25.0508 71.5514V71.3575C25.0508 71.2663 25.0701 71.1809 25.1031 71.1034C25.2021 70.8688 25.4329 70.7058 25.7025 70.7058H33.9326C34.0412 70.7058 34.1422 70.7311 34.2314 70.7775C34.4408 70.8861 34.5844 71.1053 34.5844 71.3575Z" fill="#ED9B27"/>
<path d="M34.2317 70.7775C34.1327 71.0122 33.8999 71.1771 33.6304 71.1771H25.4003C25.2936 71.1771 25.1927 71.1499 25.1035 71.1034C25.2025 70.8688 25.4333 70.7058 25.7029 70.7058H33.933C34.0416 70.7058 34.1425 70.7311 34.2317 70.7775Z" fill="#E28305"/>
<path opacity="0.3" d="M31.5644 70.7058H28.7168V72.2013H31.5644V70.7058Z" fill="white"/>
<path d="M35.5629 72.8538V73.0477C35.5629 73.4066 35.27 73.6975 34.9112 73.6975H26.6811C26.3222 73.6975 26.0293 73.4065 26.0293 73.0477V72.8538C26.0293 72.7626 26.0487 72.6772 26.0817 72.5998C26.1806 72.3651 26.4114 72.2021 26.6811 72.2021H34.9112C35.0197 72.2021 35.1207 72.2274 35.2099 72.2739C35.4194 72.3823 35.5629 72.6016 35.5629 72.8538Z" fill="#ED9B27"/>
<path d="M35.2102 72.2729C35.1112 72.5076 34.8785 72.6725 34.6089 72.6725H26.3788C26.2721 72.6725 26.1713 72.6454 26.082 72.5988C26.181 72.3641 26.4118 72.2012 26.6814 72.2012H34.9115C35.0201 72.2012 35.121 72.2264 35.2102 72.2729Z" fill="#E28305"/>
<path opacity="0.3" d="M32.5429 72.2012H29.6953V73.6966H32.5429V72.2012Z" fill="white"/>
<path d="M35.3696 74.3526V74.5465C35.3696 74.9054 35.0767 75.1963 34.7178 75.1963H26.4877C26.1288 75.1963 25.8359 74.9054 25.8359 74.5465V74.3526C25.8359 74.2615 25.8553 74.1761 25.8883 74.0985C25.9873 73.8639 26.2181 73.7009 26.4877 73.7009H34.7178C34.8264 73.7009 34.9272 73.7262 35.0166 73.7727C35.226 73.8812 35.3696 74.1004 35.3696 74.3526Z" fill="#ED9B27"/>
<path d="M35.0168 73.7727C34.9179 74.0073 34.6852 74.1723 34.4155 74.1723H26.1854C26.0787 74.1723 25.9779 74.145 25.8887 74.0985C25.9876 73.8639 26.2184 73.7009 26.4881 73.7009H34.7182C34.8266 73.7009 34.9275 73.7261 35.0168 73.7727Z" fill="#E28305"/>
<path opacity="0.3" d="M32.3496 73.7009H29.502V75.1964H32.3496V73.7009Z" fill="white"/>
<path d="M35.5629 75.8492V76.0431C35.5629 76.402 35.27 76.6929 34.9112 76.6929H26.6811C26.3222 76.6929 26.0293 76.4019 26.0293 76.0431V75.8492C26.0293 75.7581 26.0487 75.6727 26.0817 75.5951C26.1806 75.3605 26.4114 75.1975 26.6811 75.1975H34.9112C35.0197 75.1975 35.1207 75.2228 35.2099 75.2692C35.4194 75.3777 35.5629 75.597 35.5629 75.8492Z" fill="#ED9B27"/>
<path d="M35.2102 75.2683C35.1112 75.5029 34.8785 75.6679 34.6089 75.6679H26.3788C26.2721 75.6679 26.1713 75.6406 26.082 75.5941C26.181 75.3595 26.4118 75.1965 26.6814 75.1965H34.9115C35.0201 75.1965 35.121 75.2218 35.2102 75.2683Z" fill="#E28305"/>
<path opacity="0.3" d="M32.5429 75.1965H29.6953V76.692H32.5429V75.1965Z" fill="white"/>
<path d="M27.3086 71.8364C27.3086 71.8364 29.69 73.2794 32.5347 72.2899C35.3794 71.3005 38.0179 71.4241 38.0179 71.4241V77.2485C38.0179 77.2485 34.5176 76.8088 32.7109 77.2485C29.7081 77.9792 27.3087 76.9803 27.3087 76.9803V71.8364H27.3086Z" fill="#ED9B27"/>
<path d="M37.728 72.2055V76.5085C37.7021 76.5026 37.679 76.4998 37.653 76.4998C37.4539 76.4998 37.2893 76.6615 37.2893 76.8634C37.2893 76.8691 37.2893 76.8778 37.2923 76.8836C36.6834 76.8287 35.7858 76.7652 34.8883 76.7652C33.9533 76.7652 33.1971 76.8345 32.643 76.9673C31.936 77.1404 31.203 77.2269 30.4613 77.2269C29.2636 77.2269 28.3056 76.999 27.8034 76.846C27.8063 76.8374 27.8063 76.8286 27.8063 76.8201C27.8063 76.6873 27.7197 76.5747 27.5957 76.543V72.6643C27.74 72.6643 27.8583 72.5604 27.8785 72.4247C28.4702 72.6585 29.3821 72.924 30.4786 72.924C31.2146 72.924 31.936 72.8027 32.6286 72.5633C34.539 71.8966 36.3456 71.7436 37.3153 71.7148C37.298 71.7582 37.2893 71.8015 37.2893 71.8504C37.2893 72.0525 37.4538 72.214 37.653 72.214C37.679 72.2141 37.7021 72.2113 37.728 72.2055Z" fill="#E28305"/>
<path d="M30.417 74.9698C30.417 75.195 30.2344 75.3775 30.0093 75.3775C29.7841 75.3775 29.6016 75.195 29.6016 74.9698C29.6016 74.7446 29.7841 74.5621 30.0093 74.5621C30.2344 74.5621 30.417 74.7446 30.417 74.9698ZM35.4 74.5174C35.4 74.7673 35.1975 74.9698 34.9475 74.9698C34.6977 74.9698 34.4951 74.7672 34.4951 74.5174C34.4951 74.2674 34.6977 74.0649 34.9475 74.0649C35.1973 74.0648 35.4 74.2674 35.4 74.5174Z" fill="#ED9B27"/>
<path d="M29.6189 74.4354C28.8358 76.5188 26.4499 77.8476 24.2901 77.4028C24.0994 77.3636 23.917 77.3121 23.7437 77.2484C22.9956 76.9771 22.409 76.4934 22.0308 75.8845C21.9637 75.7768 21.9037 75.6652 21.8498 75.5496C21.7639 75.3652 21.6954 75.1714 21.6455 74.971C21.4799 74.3075 21.5178 73.5679 21.7972 72.8248C22.4713 71.0313 24.3331 69.7974 26.216 69.7718C26.4411 69.7692 26.666 69.7831 26.8896 69.8162C26.9686 69.8274 27.0474 69.8412 27.1261 69.8574C27.1832 69.8691 27.2393 69.8821 27.2945 69.8966C28.0863 70.0946 28.7274 70.5145 29.1714 71.0732C29.8768 71.9581 30.0866 73.1909 29.6189 74.4354Z" fill="#ED9B27"/>
<path opacity="0.76" d="M30.3982 74.1058C29.6151 76.1893 27.2292 77.5179 25.0694 77.0732C24.8787 77.034 24.6963 76.9824 24.523 76.9189C23.7749 76.6474 23.1883 76.1638 22.8101 75.5549C22.743 75.4472 22.683 75.3355 22.6291 75.2201C22.5432 75.0356 22.4747 74.8418 22.4249 74.6414C22.2592 73.9779 22.2971 73.2383 22.5764 72.4952C23.2505 70.7018 25.1124 69.4678 26.9952 69.4422C27.2202 69.4396 27.4453 69.4535 27.6688 69.4866C27.7478 69.4978 27.8266 69.5116 27.9052 69.5278C27.9624 69.5395 28.0185 69.5527 28.0737 69.567C28.8655 69.7649 29.5066 70.185 29.9506 70.7436C30.656 71.6285 30.8659 72.8613 30.3982 74.1058Z" fill="#F4B88F"/>
<path d="M29.4586 74.1634C28.6755 76.2469 26.2894 77.5756 24.1297 77.131C23.9391 77.0917 23.7567 77.0402 23.5834 76.9765C22.8353 76.7052 22.2486 76.2214 21.8706 75.6125C21.8035 75.5049 21.7436 75.3932 21.6896 75.2777C21.6037 75.0933 21.5352 74.8995 21.4853 74.6991C21.3198 74.0354 21.3576 73.296 21.6369 72.5529C22.311 70.7594 24.1728 69.5255 26.0556 69.4998C26.2806 69.4972 26.5057 69.5111 26.7292 69.5442C26.8082 69.5555 26.887 69.5692 26.9656 69.5854C27.0228 69.5971 27.0789 69.6102 27.1341 69.6246C27.9259 69.8225 28.5669 70.2426 29.011 70.8012C29.7165 71.6862 29.9264 72.9189 29.4586 74.1634Z" fill="#E28305"/>
<path d="M29.1284 74.0955C28.4112 76.0036 26.2263 77.2204 24.2483 76.813C22.2704 76.4058 21.2484 74.5288 21.9655 72.6206C22.6827 70.7124 24.8676 69.4958 26.8456 69.903C28.8235 70.3104 29.8455 72.1874 29.1284 74.0955Z" fill="#ED9B27"/>
<path d="M28.9095 74.0501C28.2364 75.8413 26.1854 76.9834 24.3288 76.6011C22.4721 76.2188 21.5126 74.4569 22.1859 72.6657C22.8591 70.8745 24.91 69.7324 26.7667 70.1148C28.6235 70.497 29.5828 72.2589 28.9095 74.0501Z" fill="#E28305"/>
<path opacity="0.25" d="M26.7303 69.5442L26.466 69.8452L26.2862 70.0498L22.1353 74.7718L21.9553 74.9768L21.6906 75.2777C21.6047 75.0933 21.5362 74.8994 21.4863 74.699L21.7818 74.3631L21.9887 74.128L25.5539 70.0721L25.5541 70.0716L25.761 69.8367L26.0568 69.4998C26.2817 69.4972 26.5068 69.5112 26.7303 69.5442ZM29.0121 70.8012L28.7681 71.0785L28.6052 71.2641L27.1236 72.9498L26.7038 73.4279L26.5169 73.64L25.3226 74.999L25.1562 75.1883L24.9331 75.4419L23.991 76.5138L23.8281 76.6994L23.5841 76.9767C22.836 76.7054 22.2494 76.2216 21.8714 75.6127L22.1235 75.3257L22.2934 75.1326L24.8795 72.1908L25.2734 71.7428L26.7135 70.1045L26.8834 69.9114L27.1349 69.6247C27.927 69.8226 28.5681 70.2427 29.0121 70.8012Z" fill="white"/>
<path d="M53.3346 26.2506C53.4677 26.2506 53.5755 26.1427 53.5755 26.0097C53.5755 25.8767 53.4677 25.7688 53.3346 25.7688C53.2016 25.7688 53.0938 25.8767 53.0938 26.0097C53.0938 26.1427 53.2016 26.2506 53.3346 26.2506Z" fill="#F4B88F"/>
<path d="M54.9401 26.2506C55.0732 26.2506 55.181 26.1427 55.181 26.0097C55.181 25.8767 55.0732 25.7688 54.9401 25.7688C54.8071 25.7688 54.6992 25.8767 54.6992 26.0097C54.6992 26.1427 54.8071 26.2506 54.9401 26.2506Z" fill="#F4B88F"/>
<path d="M56.5456 26.2506C56.6786 26.2506 56.7865 26.1427 56.7865 26.0097C56.7865 25.8767 56.6786 25.7688 56.5456 25.7688C56.4125 25.7688 56.3047 25.8767 56.3047 26.0097C56.3047 26.1427 56.4125 26.2506 56.5456 26.2506Z" fill="#F4B88F"/>
<path d="M58.151 26.2506C58.2841 26.2506 58.3919 26.1427 58.3919 26.0097C58.3919 25.8767 58.2841 25.7688 58.151 25.7688C58.018 25.7688 57.9102 25.8767 57.9102 26.0097C57.9102 26.1427 58.018 26.2506 58.151 26.2506Z" fill="#F4B88F"/>
<path d="M54.1374 25.1532C54.2704 25.1532 54.3783 25.0453 54.3783 24.9123C54.3783 24.7792 54.2704 24.6714 54.1374 24.6714C54.0043 24.6714 53.8965 24.7792 53.8965 24.9123C53.8965 25.0453 54.0043 25.1532 54.1374 25.1532Z" fill="#F4B88F"/>
<path d="M55.7428 25.1532C55.8759 25.1532 55.9837 25.0453 55.9837 24.9123C55.9837 24.7792 55.8759 24.6714 55.7428 24.6714C55.6098 24.6714 55.502 24.7792 55.502 24.9123C55.502 25.0453 55.6098 25.1532 55.7428 25.1532Z" fill="#F4B88F"/>
<path d="M57.3483 25.1532C57.4814 25.1532 57.5892 25.0453 57.5892 24.9123C57.5892 24.7792 57.4814 24.6714 57.3483 24.6714C57.2153 24.6714 57.1074 24.7792 57.1074 24.9123C57.1074 25.0453 57.2153 25.1532 57.3483 25.1532Z" fill="#F4B88F"/>
<path d="M58.9538 25.1532C59.0868 25.1532 59.1947 25.0453 59.1947 24.9123C59.1947 24.7792 59.0868 24.6714 58.9538 24.6714C58.8207 24.6714 58.7129 24.7792 58.7129 24.9123C58.7129 25.0453 58.8207 25.1532 58.9538 25.1532Z" fill="#F4B88F"/>
<path d="M18.5768 64.1145C18.7098 64.1145 18.8177 64.2224 18.8177 64.3554C18.8177 64.4884 18.7098 64.5963 18.5768 64.5963C18.4438 64.5963 18.3359 64.4884 18.3359 64.3554C18.3359 64.2224 18.4437 64.1145 18.5768 64.1145ZM20.1824 64.1145C20.3154 64.1145 20.4233 64.2224 20.4233 64.3554C20.4233 64.4884 20.3154 64.5963 20.1824 64.5963C20.0494 64.5963 19.9415 64.4884 19.9415 64.3554C19.9415 64.2224 20.0494 64.1145 20.1824 64.1145ZM21.7881 64.1145C21.9212 64.1145 22.029 64.2224 22.029 64.3554C22.029 64.4884 21.9211 64.5963 21.7881 64.5963C21.6551 64.5963 21.5472 64.4884 21.5472 64.3554C21.5472 64.2224 21.6551 64.1145 21.7881 64.1145ZM23.3938 64.1145C23.5268 64.1145 23.6347 64.2224 23.6347 64.3554C23.6347 64.4884 23.5268 64.5963 23.3938 64.5963C23.2607 64.5963 23.1529 64.4884 23.1529 64.3554C23.1529 64.2224 23.2608 64.1145 23.3938 64.1145ZM19.3797 63.0171C19.5127 63.0171 19.6206 63.125 19.6206 63.258C19.6206 63.391 19.5127 63.4989 19.3797 63.4989C19.2467 63.4989 19.1388 63.391 19.1388 63.258C19.1388 63.125 19.2466 63.0171 19.3797 63.0171ZM20.9853 63.0171C21.1184 63.0171 21.2262 63.125 21.2262 63.258C21.2262 63.391 21.1183 63.4989 20.9853 63.4989C20.8523 63.4989 20.7444 63.391 20.7444 63.258C20.7444 63.125 20.8523 63.0171 20.9853 63.0171ZM22.591 63.0171C22.724 63.0171 22.8319 63.125 22.8319 63.258C22.8319 63.391 22.724 63.4989 22.591 63.4989C22.458 63.4989 22.3501 63.391 22.3501 63.258C22.3501 63.125 22.458 63.0171 22.591 63.0171ZM24.1967 63.0171C24.3297 63.0171 24.4376 63.125 24.4376 63.258C24.4376 63.391 24.3297 63.4989 24.1967 63.4989C24.0636 63.4989 23.9558 63.391 23.9558 63.258C23.9558 63.125 24.0636 63.0171 24.1967 63.0171Z" fill="#F4B88F"/>
<svg width="25" height="30" viewBox="0 0 25 30" fill="none" xmlns="http://www.w3.org/2000/svg">
<path d="M6.90209 23.1098C5.24921 21.8048 3.95886 20.132 3.14495 18.2392C2.23073 16.1543 2.02429 13.9177 2.32226 11.5274L2.32594 11.4982L2.72533 7.71784C4.82918 7.58379 9.08583 6.81181 11.5395 2.92676H12.2011C14.2909 6.93462 19.1581 7.63129 21.4222 7.73021L21.8212 11.5294L21.8249 11.5588C22.1204 13.9414 21.9163 16.0428 21.0093 18.1226C20.1981 20.0101 18.9146 21.6797 17.2708 22.9859L12.1037 27.0731L6.90209 23.1098Z" fill="#E28305"/>
<path d="M12.1077 30L5.83594 24.9717C3.74469 23.2951 2.09116 21.1909 1.17983 19.0467C0.138789 16.5973 -0.223118 13.7457 0.133158 10.8L0.676451 5.15096L0.864698 5.16939C0.930954 5.17553 7.60888 5.75949 10.4086 0.104035L10.4601 0H13.3874L13.4311 0.124625C15.4153 5.78405 23.2042 5.17564 23.2831 5.16915L23.4693 5.15301L24.015 10.8388C24.3674 13.771 24.0075 16.6137 22.9733 19.0554C22.0682 21.1924 20.4232 23.294 18.3411 24.9732L12.1077 30ZM1.01595 5.55083L0.507192 10.8393C0.15814 13.7262 0.510993 16.5134 1.52692 18.9041C2.41485 20.9932 4.02956 23.0462 6.07378 24.6852L12.107 29.5222L18.1025 24.6871C20.1377 23.0458 21.7442 20.9953 22.626 18.9133C23.6353 16.53 23.9863 13.7515 23.6409 10.8778L23.1295 5.54974C21.7408 5.60982 20.3506 5.47403 19.0011 5.14651C16.0376 4.41121 14.0073 2.76109 13.1204 0.369878H10.6946C9.16271 3.37478 6.58255 4.62191 4.67721 5.13857C3.48605 5.46248 2.25075 5.60157 1.01595 5.55083Z" fill="#2D4574"/>
<path d="M12.4388 21.9515C12.3561 21.9515 12.2736 21.9501 12.1913 21.9474L12.2041 21.5713C12.3649 21.5768 12.5276 21.5766 12.6884 21.5708L12.7019 21.9469C12.6146 21.9501 12.5269 21.9516 12.4388 21.9515ZM11.6824 21.9128C11.5146 21.8955 11.3445 21.8722 11.1769 21.843L11.2413 21.4723C11.4002 21.4999 11.5616 21.5222 11.7208 21.5385L11.6824 21.9128ZM13.2107 21.9111L13.1718 21.5368C13.3305 21.5203 13.4916 21.4977 13.651 21.4697L13.7161 21.8403C13.5482 21.8698 13.3781 21.8936 13.2107 21.9111ZM10.6773 21.738C10.5126 21.6974 10.3474 21.6503 10.1863 21.5983L10.3019 21.2401C10.4548 21.2896 10.6115 21.3342 10.7675 21.3728L10.6773 21.738ZM14.2155 21.7341L14.1244 21.3691C14.2804 21.3301 14.4369 21.2852 14.5898 21.2355L14.7061 21.5934C14.5451 21.6458 14.38 21.6931 14.2155 21.7341ZM9.7056 21.4238C9.54835 21.3604 9.39124 21.2906 9.23853 21.2162L9.40337 20.8779C9.54812 20.9485 9.69703 21.0147 9.84618 21.0747L9.7056 21.4238ZM15.1857 21.4181L15.0445 21.0692C15.1929 21.0092 15.3416 20.9428 15.4861 20.872L15.6514 21.2101C15.4989 21.2847 15.3423 21.3546 15.1857 21.4181ZM8.78738 20.9764C8.63968 20.8911 8.49395 20.8001 8.3541 20.7057L8.56474 20.3938C8.69712 20.4832 8.83538 20.5696 8.97548 20.6506L8.78738 20.9764ZM16.1016 20.97L15.913 20.6444C16.052 20.564 16.1899 20.4775 16.323 20.3875L16.5339 20.6991C16.3934 20.7941 16.248 20.8853 16.1016 20.97ZM7.94092 20.4057C7.8067 20.3009 7.67517 20.1906 7.54965 20.0778L7.80118 19.798C7.92021 19.905 8.04513 20.0096 8.17237 20.109L7.94092 20.4057ZM16.9461 20.3985L16.7144 20.1021C16.8404 20.0035 16.9651 19.8986 17.0849 19.7906L17.3367 20.0701C17.2105 20.184 17.0791 20.2945 16.9461 20.3985ZM7.18201 19.7237C7.06408 19.6019 6.94897 19.4744 6.83986 19.3448L7.12764 19.1025C7.23112 19.2255 7.34023 19.3463 7.45217 19.4618L7.18201 19.7237ZM17.7039 19.7152L17.4332 19.4538C17.5449 19.3382 17.654 19.2171 17.7573 19.094L18.0455 19.3357C17.9366 19.4657 17.8216 19.5934 17.7039 19.7152ZM6.52476 18.9432C6.42508 18.8065 6.32869 18.6644 6.23857 18.5207L6.55696 18.3206C6.64269 18.4568 6.73404 18.5916 6.82871 18.7212L6.52476 18.9432ZM18.3602 18.9334L18.0557 18.7122C18.1506 18.5816 18.2418 18.4465 18.327 18.3105L18.6459 18.5102C18.5562 18.6534 18.4601 18.7958 18.3602 18.9334ZM5.98224 18.0795C5.90276 17.9308 5.82721 17.7767 5.75778 17.6217L6.10091 17.4677C6.16692 17.6149 6.23868 17.761 6.31412 17.9021L5.98224 18.0795ZM18.9017 18.0677L18.5696 17.8909C18.6452 17.7488 18.7168 17.6023 18.7822 17.4554L19.1258 17.6085C19.0568 17.7633 18.9814 17.9179 18.9017 18.0677ZM5.56575 17.1492C5.50734 16.9897 5.45394 16.8264 5.40717 16.6637L5.76867 16.5596C5.813 16.7137 5.86358 16.8686 5.91893 17.0198L5.56575 17.1492ZM19.3172 17.1346L18.9635 17.006C19.0184 16.8552 19.0687 16.7001 19.1129 16.5453L19.4747 16.6489C19.4279 16.8121 19.375 16.9755 19.3172 17.1346ZM5.28311 16.1684C5.24759 16.0019 5.2176 15.8329 5.19408 15.6658L5.56661 15.6131C5.5889 15.7717 5.61731 15.932 5.65098 16.0898L5.28311 16.1684ZM19.5978 16.1533L19.2296 16.0757C19.2628 15.9184 19.2909 15.7578 19.3132 15.5986L19.6857 15.6505C19.6623 15.8185 19.6328 15.9876 19.5978 16.1533ZM5.14032 15.1581C5.12832 14.9885 5.12208 14.8168 5.12183 14.6478L5.49803 14.6473C5.49828 14.8077 5.50415 14.9706 5.51554 15.1314L5.14032 15.1581ZM19.7385 15.1424L19.3632 15.1167C19.3741 14.9564 19.3798 14.7936 19.3798 14.6326V14.6027H19.756V14.6326C19.756 14.8021 19.7501 14.9736 19.7385 15.1424ZM5.51358 14.1631L5.13812 14.1379C5.1495 13.9684 5.1669 13.7975 5.18967 13.6302L5.56245 13.6811C5.54077 13.8399 5.52437 14.002 5.51358 14.1631ZM19.361 14.1193C19.3494 13.9589 19.3319 13.797 19.3091 13.6378L19.6814 13.5843C19.7055 13.7522 19.7239 13.9229 19.7363 14.0918L19.361 14.1193ZM5.64499 13.2041L5.27662 13.1272C5.31127 12.9612 5.3523 12.7944 5.39859 12.6313L5.76059 12.7341C5.71663 12.8887 5.67781 13.0469 5.64499 13.2041ZM19.2238 13.1611C19.1897 13.0035 19.1498 12.8456 19.1051 12.6918L19.4664 12.5867C19.5135 12.749 19.5556 12.9155 19.5914 13.0818L19.2238 13.1611ZM5.90914 12.273L5.55523 12.1451C5.61277 11.9858 5.67696 11.8261 5.7459 11.6706L6.08976 11.8232C6.02438 11.9705 5.96364 12.1219 5.90914 12.273ZM18.9536 12.2319C18.8979 12.0809 18.8364 11.9304 18.7706 11.7843L19.1135 11.6298C19.183 11.7837 19.2479 11.9426 19.3065 12.1018L18.9536 12.2319ZM6.30138 11.387L5.96903 11.2109C6.04875 11.0603 6.13447 10.9112 6.22387 10.7679L6.543 10.9671C6.45838 11.1029 6.37707 11.2442 6.30138 11.387ZM18.5567 11.3502C18.4805 11.2084 18.3985 11.0678 18.3129 10.9323L18.631 10.7314C18.7212 10.8743 18.8076 11.0226 18.8881 11.1721L18.5567 11.3502ZM6.81341 10.5648L6.50872 10.3441C6.60779 10.2072 6.71335 10.0717 6.82246 9.94124L7.11099 10.1825C7.0075 10.3064 6.90746 10.435 6.81341 10.5648ZM18.0404 10.5323C17.9451 10.4023 17.8443 10.2743 17.7407 10.1518L18.028 9.90878C18.1371 10.0379 18.2434 10.1727 18.3439 10.3098L18.0404 10.5323ZM7.43441 9.82182L7.16328 9.56115C7.28035 9.43928 7.40355 9.31961 7.52944 9.20557L7.78196 9.4846C7.66244 9.59276 7.5456 9.70631 7.43441 9.82182ZM17.4155 9.79303C17.3035 9.67789 17.186 9.56508 17.066 9.45765L17.3168 9.17715C17.4434 9.29045 17.5673 9.40939 17.6851 9.53066L17.4155 9.79303ZM8.15205 9.17188L7.91936 8.87619C8.05273 8.77122 8.19135 8.66992 8.33121 8.57487L8.54257 8.88599C8.40995 8.97626 8.27855 9.07241 8.15205 9.17188ZM16.6938 9.14714C16.5668 9.04841 16.4348 8.95287 16.3013 8.86321L16.511 8.55085C16.6517 8.6453 16.7909 8.74598 16.9248 8.84997L16.6938 9.14714ZM8.95208 8.62827L8.763 8.30294C8.90922 8.21792 9.06034 8.13672 9.21232 8.06187L9.37862 8.39946C9.23436 8.4705 9.09084 8.54743 8.95208 8.62827ZM15.8897 8.60744C15.7494 8.52697 15.6052 8.45078 15.4612 8.38097L15.6253 8.04239C15.777 8.11589 15.929 8.19625 16.0768 8.28114L15.8897 8.60744ZM9.81974 8.20115L9.67768 7.85278C9.83443 7.78872 9.99571 7.72956 10.157 7.67664L10.2741 8.03432C10.1212 8.08441 9.9684 8.14052 9.81974 8.20115ZM15.0181 8.18486C14.8681 8.12495 14.7146 8.06971 14.562 8.02072L14.6768 7.66232C14.8379 7.71401 14.9997 7.7723 15.1578 7.83551L15.0181 8.18486ZM10.7392 7.89969L10.6473 7.53492C10.8123 7.49327 10.9802 7.45726 11.1465 7.42774L11.2124 7.79816C11.0548 7.8262 10.8956 7.86038 10.7392 7.89969ZM14.096 7.88904C13.9406 7.85082 13.7811 7.81775 13.6222 7.79043L13.6859 7.41953C13.8535 7.44832 14.0217 7.48335 14.1856 7.52353L14.096 7.88904ZM11.6917 7.72968L11.6518 7.35559C11.8208 7.33747 11.9921 7.32522 12.1608 7.31898L12.1746 7.69502C12.0145 7.7009 11.8521 7.71254 11.6917 7.72968ZM13.1424 7.72514C12.9831 7.7091 12.8206 7.69844 12.6593 7.69342L12.6708 7.31738C12.8408 7.32253 13.0121 7.33379 13.1801 7.35082L13.1424 7.72514Z" fill="#2D4574"/>
<path d="M13.2118 19.585V10.3654H11.7235C11.6708 10.7167 11.561 11.0108 11.3942 11.2479C11.2274 11.485 11.021 11.6781 10.7752 11.8274C10.5381 11.9679 10.2659 12.0689 9.95858 12.1303C9.66005 12.183 9.34834 12.205 9.02346 12.1962V13.6054H11.3415V19.585H13.2118Z" fill="white"/>

</svg>

</svg>
