<svg width="93" height="93" viewBox="0 0 93 93" fill="none" xmlns="http://www.w3.org/2000/svg">
<circle cx="46.4261" cy="46.3914" r="45.7716" fill="white" stroke="#EFD2BE" stroke-width="0.953575"/>
<g opacity="0.75">
<path opacity="0.75" d="M46.5078 70.3768L32.0514 72.6431C32.0514 72.6431 28.2977 71.6569 28.8943 65.7494C29.4909 59.842 30.6251 56.4803 25.1228 55.8202C19.6207 55.16 12.6645 51.4055 18.6223 51.4405C24.5801 51.4755 27.464 54.6494 28.4691 51.558C29.4928 48.4094 21.5263 42.0133 26.5176 41.7587C31.6005 41.4995 36.9918 46.7612 34.9622 49.7095C32.9327 52.6578 37.0918 52.698 37.8709 48.8383C38.6501 44.9786 39.6228 39.7043 41.4661 44.3987C43.3094 49.0931 39.6799 52.4306 39.796 56.7037C39.9125 60.9766 46.5078 70.3768 46.5078 70.3768Z" fill="#CDE0FF"/>
<path opacity="0.75" d="M62.1641 72.46H52.9004C52.9004 72.46 50.0404 66.0041 53.9097 62.8077C57.779 59.6113 61.3361 61.533 64.196 59.6824C67.056 57.8318 64.6549 54.473 65.1339 52.8052C65.4515 51.6993 68.3778 50.3585 69.3872 54.5643C70.3965 58.77 71.2377 55.5736 72.5836 52.7137C73.9294 49.8537 80.6587 52.209 76.6211 55.2372C72.5836 58.2654 67.7048 59.9476 71.2376 60.4524C74.7705 60.9571 80.4904 62.6394 76.2846 63.817C72.0788 64.9947 66.7246 64.4936 68.3777 66.677C69.3539 67.9662 76.1164 66.677 73.5929 69.5369C71.0694 72.3969 62.1641 72.46 62.1641 72.46Z" fill="#D1DAE8"/>
<path opacity="0.75" d="M56.872 72.8288C56.872 72.8288 54.5168 69.0645 53.8439 65.6999C53.171 62.3353 55.8627 60.3165 57.7132 62.3353C59.5638 64.3541 61.0778 60.653 60.4049 57.4565C59.732 54.2601 60.7413 49.2131 62.7602 51.7366C64.779 54.2601 62.4237 58.2977 67.9754 56.9518C73.527 55.6059 76.5552 61.3258 71.0035 61.494C65.4519 61.6623 65.9566 64.0175 68.3118 66.0362C70.6671 68.0551 69.153 71.2514 65.9566 71.2514C62.7602 71.2514 62.676 72.8288 62.676 72.8288H56.872Z" fill="#E3EDFD"/>
</g>
<path d="M34.0797 74.2673C33.7194 74.2629 33.3642 74.1943 33.0243 74.0634C31.7894 73.6076 30.9573 72.4042 30.959 71.0707L30.9595 70.669L30.966 70.6691L30.9877 48.6948L31.0299 17.9841L31.0237 17.6343C31.0231 16.7813 31.3547 15.9802 31.9571 15.3784C32.5583 14.7781 33.3579 14.4471 34.2085 14.4465L62.1059 14.478C63.8477 14.4994 65.2595 15.9338 65.2531 17.6756L65.1911 70.8864L65.1878 71.1559C65.1667 72.8913 63.7382 74.3041 62.0035 74.3053L34.0797 74.2673Z" fill="#E5B093"/>
<path d="M65.2526 17.878L65.2484 21.8656L65.2314 35.5761L65.1902 70.6832L65.187 70.9462C65.168 72.4591 63.9182 73.6808 62.3839 73.6818H62.3437L34.3767 73.6441C34.0384 73.6472 33.7063 73.5833 33.4029 73.4681C32.3381 73.0804 31.581 72.0578 31.582 70.8666H31.5894L31.6 60.557L31.6095 50.3071L31.6116 48.6622L31.6539 17.8382H31.6476C31.6465 16.3053 32.9038 15.0701 34.4507 15.0701L62.4579 15.1005C64.0049 15.1067 65.2579 16.3451 65.2526 17.878Z" fill="#F8CCB1"/>
<path d="M63.381 18.9047L63.3193 69.884C63.3184 70.6051 62.7307 71.1886 62.0105 71.1877L34.1339 71.1541C33.4116 71.1531 32.8273 70.5683 32.8281 69.8471L32.8901 18.8678C32.8909 18.1467 33.4765 17.5633 34.1989 17.5642L62.0754 17.5978C62.7958 17.5986 63.3819 18.1835 63.381 18.9047Z" fill="url(#paint0_radial_5907:19057)"/>
<path opacity="0.3" d="M62.0513 71.1875L34.1357 71.1543C33.4116 71.1543 32.8263 70.5697 32.8281 69.8491L32.8484 53.6168C32.8504 51.9549 34.2049 50.6093 35.8737 50.6111L60.3625 50.638C62.0315 50.6399 63.383 51.9888 63.381 53.6511L63.3618 69.8852C63.3618 70.6064 62.773 71.1887 62.0513 71.1875Z" fill="white"/>
<path opacity="0.3" d="M58.799 18.225L58.3945 71.1877L61.7313 71.1505L62.1357 18.1877L58.799 18.225Z" fill="url(#paint1_linear_5907:19057)"/>
<path opacity="0.55" d="M43.2021 65.627L37.7888 65.6816C37.4615 65.6811 37.1958 65.936 37.1953 66.2512C37.1947 66.5664 37.4593 66.8224 37.7867 66.8229L43.2 66.7683C43.5272 66.7689 43.7929 66.5139 43.7936 66.1986C43.7941 65.8835 43.5293 65.6276 43.2021 65.627ZM59.0509 65.627L53.6376 65.6816C53.3103 65.6811 53.0446 65.936 53.044 66.2512C53.0434 66.5664 53.3081 66.8224 53.6354 66.8229L59.0487 66.7683C59.3759 66.7689 59.6416 66.5139 59.6421 66.1986C59.6428 65.8835 59.378 65.6276 59.0509 65.627ZM59.0473 61.9613L37.7854 62.0471C37.4582 62.0484 37.1942 62.3048 37.1955 62.6201C37.1969 62.9353 37.4631 63.1897 37.7905 63.1884L59.0523 63.1026C59.3796 63.1013 59.6436 62.8448 59.6424 62.5296C59.6408 62.2143 59.3745 61.96 59.0473 61.9613ZM59.0473 59.4039L37.7854 59.4896C37.4582 59.4909 37.1942 59.7475 37.1955 60.0626C37.1969 60.3779 37.4631 60.6323 37.7905 60.6309L59.0523 60.5452C59.3796 60.5439 59.6436 60.2873 59.6424 59.9722C59.6408 59.6569 59.3745 59.4026 59.0473 59.4039ZM59.0473 56.8464L37.7854 56.9322C37.4582 56.9335 37.1942 57.1901 37.1955 57.5052C37.1969 57.8205 37.4631 58.0748 37.7905 58.0735L59.0523 57.9878C59.3796 57.9865 59.6436 57.7299 59.6424 57.4147C59.6408 57.0995 59.3745 56.8451 59.0473 56.8464Z" fill="#E5B093"/>
<path d="M55.9094 52.4819C55.9094 52.8263 55.628 53.1055 55.2809 53.1055C54.9337 53.1055 54.6523 52.8263 54.6523 52.4819C54.6523 52.1376 54.9337 51.8584 55.2809 51.8584C55.628 51.8584 55.9094 52.1376 55.9094 52.4819ZM57.77 52.4819C57.77 52.8263 57.4886 53.1055 57.1414 53.1055C56.7943 53.1055 56.5129 52.8263 56.5129 52.4819C56.5129 52.1376 56.7943 51.8584 57.1414 51.8584C57.4885 51.8584 57.77 52.1376 57.77 52.4819Z" fill="white"/>
<path opacity="0.55" d="M59.6416 52.4819C59.6416 52.8263 59.3624 53.1055 59.0181 53.1055C58.6737 53.1055 58.3945 52.8263 58.3945 52.4819C58.3945 52.1376 58.6737 51.8584 59.0181 51.8584C59.3624 51.8584 59.6416 52.1376 59.6416 52.4819Z" fill="#E5B093"/>
<path d="M45.9345 26.552C45.9345 27.7131 45.5323 28.7782 44.8544 29.6179C44.7456 29.7596 44.6241 29.8936 44.4977 30.0201C43.6073 30.908 42.3829 31.457 41.027 31.457H40.7564C39.2084 31.457 37.8272 30.7412 36.9317 29.6179C36.2538 28.7782 35.8516 27.7131 35.8516 26.552C35.8516 25.1987 36.4005 23.9694 37.2884 23.0814C38.1763 22.1935 39.4031 21.6445 40.7564 21.6445H41.027C43.7363 21.6445 45.9345 23.8428 45.9345 26.552Z" fill="#EDE0D3"/>
<path d="M44.4433 29.2999C44.3458 29.4269 44.2369 29.5471 44.1236 29.6604C43.3254 30.4563 42.2281 30.9483 41.0128 30.9483H40.7701C39.3825 30.9483 38.1445 30.3065 37.3418 29.2998C38.0651 28.2387 39.2533 27.5199 40.616 27.4338C39.6932 27.2977 38.9857 26.5087 38.9857 25.5496C38.9857 24.4975 39.8406 23.645 40.8926 23.645C41.9447 23.645 42.7972 24.4976 42.7972 25.5496C42.7972 26.5087 42.0897 27.2977 41.1692 27.4338C42.5319 27.52 43.72 28.2388 44.4433 29.2999Z" fill="#E5B093"/>
<path d="M20.4425 38.6307C20.3478 40.0121 19.1511 41.0554 17.7697 40.9608C17.6477 40.9525 17.5285 40.9357 17.4126 40.9104C16.9128 40.8037 16.4719 40.549 16.134 40.1976C16.0741 40.1354 16.0177 40.0701 15.9644 40.0021C15.8792 39.8931 15.8029 39.7768 15.7367 39.6546C15.5168 39.2504 15.4058 38.7808 15.4395 38.288C15.5209 37.0989 16.4192 36.1605 17.5487 35.9823C17.6838 35.9613 17.8219 35.9507 17.9625 35.9523C18.0122 35.9526 18.062 35.9544 18.1125 35.9579C18.149 35.9604 18.1852 35.9638 18.221 35.9682C18.7337 36.0249 19.1959 36.2347 19.5645 36.5487C20.1495 37.0462 20.499 37.8055 20.4425 38.6307Z" fill="#E28305"/>
<path d="M20.2316 38.6163C20.145 39.8815 19.0491 40.8368 17.7839 40.7502C16.5187 40.6635 15.5633 39.5676 15.65 38.3024C15.7366 37.0373 16.8325 36.0819 18.0977 36.1685C19.3629 36.2552 20.3183 37.3511 20.2316 38.6163Z" fill="#ED9B27"/>
<path d="M20.0929 38.6068C20.0115 39.7944 18.9828 40.6912 17.7953 40.6098C16.6077 40.5285 15.7109 39.4998 15.7922 38.3122C15.8736 37.1245 16.9023 36.2277 18.0899 36.3091C19.2774 36.3904 20.1742 37.4191 20.0929 38.6068Z" fill="#E28305"/>
<path opacity="0.25" d="M17.964 35.9523L17.8593 36.1649L17.788 36.3094L16.1423 39.6447L16.0709 39.7895L15.966 40.0021C15.8808 39.8932 15.8045 39.7768 15.7383 39.6547L15.8555 39.4173L15.9376 39.2513L17.351 36.3865V36.3862L17.433 36.2202L17.5503 35.9822C17.6852 35.9613 17.8234 35.9506 17.964 35.9523ZM19.5659 36.5487L19.4693 36.7446L19.4047 36.8757L18.8173 38.0662L18.651 38.4039L18.5768 38.5537L18.1034 39.5135L18.0374 39.6473L17.9489 39.8264L17.5755 40.5835L17.5109 40.7145L17.4141 40.9103C16.9143 40.8036 16.4734 40.5489 16.1355 40.1975L16.2355 39.9947L16.3029 39.8583L17.3282 37.7804L17.4845 37.4639L18.0554 36.3067L18.1228 36.1703L18.2225 35.968C18.7352 36.0249 19.1974 36.2347 19.5659 36.5487Z" fill="#EDE0D3"/>
<path opacity="0.2" d="M64.996 21.6985L64.9791 35.5264H55.0271C54.0803 35.5264 53.3047 34.6515 53.3047 33.5831V23.6407C53.3047 22.7182 53.8838 21.9394 54.652 21.745C54.7724 21.7133 54.8982 21.6985 55.0271 21.6985H64.996Z" fill="#244D77"/>
<path d="M56.5341 34.4605C55.3554 34.4605 54.3965 33.4028 54.3965 32.1024V22.1605C54.3965 21.0727 55.0946 20.1063 56.0563 19.8623C56.2089 19.8228 56.3704 19.8025 56.5341 19.8025H75.766C76.9456 19.8025 77.9051 20.8602 77.9051 22.1605V32.1024C77.9051 33.1905 77.2064 34.1572 76.2435 34.4008C76.0912 34.4402 75.9297 34.4604 75.766 34.4604H56.5341V34.4605Z" fill="#E5B093"/>
<path d="M77.4894 22.1607V32.1026C77.4894 33.0258 76.9105 33.8039 76.1409 33.9987C76.02 34.0301 75.8948 34.0456 75.7653 34.0456H56.5332C55.5857 34.0456 54.8105 33.1708 54.8105 32.1025V22.1606C54.8105 21.2373 55.3895 20.4593 56.1577 20.2644C56.2786 20.2332 56.4038 20.2175 56.5333 20.2175H75.7654C76.7128 20.2176 77.4894 21.0925 77.4894 22.1607Z" fill="#EDE0D3"/>
<g opacity="0.6">
<path opacity="0.6" d="M75.35 22.9813H63.6545C63.6071 22.9813 63.5684 22.9426 63.5684 22.8952V22.4172C63.5684 22.3698 63.6071 22.3311 63.6545 22.3311H75.35C75.3973 22.3311 75.4361 22.3698 75.4361 22.4172V22.8952C75.4361 22.9426 75.3973 22.9813 75.35 22.9813ZM75.35 24.2007H63.6545C63.6071 24.2007 63.5684 24.1619 63.5684 24.1145V23.6365C63.5684 23.5892 63.6071 23.5504 63.6545 23.5504H75.35C75.3973 23.5504 75.4361 23.5892 75.4361 23.6365V24.1145C75.4361 24.1619 75.3973 24.2007 75.35 24.2007ZM75.35 25.4199H63.6545C63.6071 25.4199 63.5684 25.3811 63.5684 25.3338V24.8557C63.5684 24.8084 63.6071 24.7696 63.6545 24.7696H75.35C75.3973 24.7696 75.4361 24.8084 75.4361 24.8557V25.3338C75.4361 25.3811 75.3973 25.4199 75.35 25.4199Z" fill="white"/>
</g>
<path opacity="0.6" d="M75.3496 32.187H57.2326C57.1853 32.187 57.1465 32.1482 57.1465 32.1009V31.6229C57.1465 31.5755 57.1853 31.5367 57.2326 31.5367H75.3496C75.397 31.5367 75.4358 31.5755 75.4358 31.6229V32.1009C75.4358 32.1482 75.397 32.187 75.3496 32.187ZM59.5341 24.2661V24.3628H61.4956V24.8308C61.4956 25.1565 61.231 25.4197 60.9053 25.4197H57.8981C57.5723 25.4197 57.3092 25.1565 57.3092 24.8308V24.8181H59.0162V24.7213H57.3092V22.9816H59.0774V22.8848H57.3106C57.3291 22.5747 57.5851 22.3315 57.8981 22.3315H60.9053C61.2182 22.3315 61.4757 22.5748 61.4941 22.8848H59.7929V22.9816H61.4955V24.2661H59.5341Z" fill="white"/>
<g opacity="0.6">
<path opacity="0.6" d="M60.5873 29.013V30.501H60.3769V29.1979H60.041V29.013H60.5873ZM61.9585 30.3161V30.5011H60.8892V30.3566L61.495 29.7719C61.5688 29.7011 61.6185 29.6398 61.6439 29.588C61.6694 29.5362 61.6822 29.4843 61.6822 29.4317C61.6822 29.3539 61.655 29.2932 61.6004 29.25C61.5458 29.2068 61.4676 29.1851 61.3655 29.1851C61.2009 29.1851 61.0743 29.239 60.985 29.3467L60.8403 29.2213C60.8984 29.1504 60.9746 29.0952 61.0689 29.0554C61.1632 29.0158 61.2684 28.9958 61.3846 28.9958C61.5405 28.9958 61.6644 29.0332 61.7567 29.1075C61.8488 29.1819 61.8948 29.283 61.8948 29.4105C61.8948 29.4899 61.8779 29.5651 61.8437 29.6359C61.8097 29.7067 61.7453 29.7875 61.6504 29.8782L61.1955 30.316H61.9585V30.3161ZM63.0363 29.7729C63.1128 29.8487 63.1512 29.9455 63.1512 30.063C63.1512 30.1481 63.1299 30.225 63.0874 30.2937C63.0448 30.3625 62.9815 30.417 62.8972 30.4574C62.8128 30.4977 62.7097 30.5179 62.5878 30.5179C62.4815 30.5179 62.3795 30.502 62.2817 30.47C62.184 30.4381 62.1038 30.394 62.0416 30.3372L62.1392 30.1694C62.1903 30.2175 62.2554 30.2562 62.3348 30.2852C62.4143 30.3143 62.4986 30.3288 62.5878 30.3288C62.6984 30.3288 62.7844 30.3053 62.8461 30.2586C62.9077 30.2119 62.9385 30.1473 62.9385 30.0651C62.9385 29.9829 62.908 29.9192 62.8471 29.8738C62.7861 29.8284 62.694 29.8057 62.5707 29.8057H62.4517V29.6571L62.8257 29.198H62.1094V29.0131H63.0915V29.1576L62.7025 29.6381C62.8485 29.6521 62.9598 29.6972 63.0363 29.7729ZM64.6434 30.1354H64.3608V30.501H64.1545V30.1354H63.3277V29.9865L64.0886 29.013H64.3182L63.589 29.9526H64.1608V29.6294H64.3607V29.9526H64.6433V30.1354H64.6434ZM65.6583 29.7261C65.7584 29.8062 65.8082 29.9157 65.8082 30.0546C65.8082 30.1425 65.7874 30.2214 65.7456 30.2916C65.7037 30.3617 65.6407 30.417 65.5563 30.4574C65.472 30.4977 65.3682 30.5179 65.2449 30.5179C65.1401 30.5179 65.0388 30.502 64.9409 30.47C64.8432 30.4381 64.7623 30.394 64.6985 30.3372L64.7964 30.1694C64.8473 30.2175 64.9125 30.2562 64.992 30.2852C65.0712 30.3143 65.1549 30.3288 65.2428 30.3288C65.3546 30.3288 65.4415 30.3051 65.5031 30.2575C65.5648 30.21 65.5956 30.1452 65.5956 30.063C65.5956 29.9737 65.5616 29.9061 65.4936 29.86C65.4256 29.814 65.3094 29.7909 65.1451 29.7909H64.807L64.8856 29.0129H65.7253V29.1978H65.0642L65.0239 29.6059H65.1898C65.4023 29.6061 65.5584 29.6461 65.6583 29.7261ZM66.023 30.4724C65.9946 30.4448 65.9805 30.4097 65.9805 30.3672C65.9805 30.3261 65.9946 30.2917 66.023 30.2641C66.0513 30.2365 66.0853 30.2227 66.125 30.2227C66.1647 30.2227 66.198 30.2361 66.2249 30.263C66.2517 30.29 66.2652 30.3247 66.2652 30.3672C66.2652 30.4097 66.2514 30.4448 66.2237 30.4724C66.1961 30.5001 66.1632 30.5139 66.1249 30.5139C66.0854 30.5138 66.0513 30.5001 66.023 30.4724ZM66.901 29.013V30.501H66.6906V29.1979H66.3547V29.013H66.901ZM68.272 30.3161V30.5011H67.2029V30.3566L67.8087 29.7719C67.8824 29.7011 67.932 29.6398 67.9576 29.588C67.983 29.5362 67.9958 29.4843 67.9958 29.4317C67.9958 29.3539 67.9686 29.2932 67.9139 29.25C67.8593 29.2068 67.7811 29.1851 67.679 29.1851C67.5145 29.1851 67.3878 29.239 67.2985 29.3467L67.1539 29.2213C67.212 29.1504 67.2882 29.0952 67.3824 29.0554C67.4768 29.0158 67.5819 28.9958 67.6981 28.9958C67.854 28.9958 67.978 29.0332 68.0702 29.1075C68.1624 29.1819 68.2083 29.283 68.2083 29.4105C68.2083 29.4899 68.1913 29.5651 68.1573 29.6359C68.1233 29.7067 68.0588 29.7875 67.9639 29.8782L67.509 30.316H68.272V30.3161ZM69.3498 29.7729C69.4263 29.8487 69.4646 29.9455 69.4646 30.063C69.4646 30.1481 69.4434 30.225 69.4007 30.2937C69.3582 30.3625 69.2948 30.417 69.2105 30.4574C69.1262 30.4977 69.0231 30.5179 68.9011 30.5179C68.7949 30.5179 68.6928 30.502 68.5951 30.47C68.4973 30.4381 68.4171 30.394 68.3549 30.3372L68.4525 30.1694C68.5037 30.2175 68.5688 30.2562 68.6481 30.2852C68.7276 30.3143 68.8119 30.3288 68.9011 30.3288C69.0117 30.3288 69.0978 30.3053 69.1594 30.2586C69.2209 30.2119 69.2518 30.1473 69.2518 30.0651C69.2518 29.9829 69.2214 29.9192 69.1604 29.8738C69.0994 29.8284 69.0073 29.8057 68.8841 29.8057H68.765V29.6571L69.1392 29.198H68.4228V29.0131H69.4049V29.1576L69.016 29.6381C69.162 29.6521 69.2733 29.6972 69.3498 29.7729ZM70.9569 30.1354H70.6741V30.501H70.4678V30.1354H69.641V29.9865L70.402 29.013H70.6316L69.9024 29.9526H70.4742V29.6294H70.6741V29.9526H70.9569V30.1354ZM71.9719 29.7261C72.072 29.8062 72.1219 29.9157 72.1219 30.0546C72.1219 30.1425 72.1011 30.2214 72.0592 30.2916C72.0174 30.3617 71.9543 30.417 71.8701 30.4574C71.7858 30.4977 71.682 30.5179 71.5586 30.5179C71.4537 30.5179 71.3524 30.502 71.2546 30.47C71.1567 30.4381 71.076 30.394 71.0122 30.3372L71.11 30.1694C71.1609 30.2175 71.2261 30.2562 71.3056 30.2852C71.385 30.3143 71.4685 30.3288 71.5565 30.3288C71.6683 30.3288 71.7551 30.3051 71.8167 30.2575C71.8784 30.21 71.9093 30.1452 71.9093 30.063C71.9093 29.9737 71.8753 29.9061 71.8072 29.86C71.7393 29.814 71.623 29.7909 71.4587 29.7909H71.1207L71.1993 29.0129H72.0388V29.1978H71.3778L71.3373 29.6059H71.5032C71.7158 29.6061 71.8721 29.6461 71.9719 29.7261Z" fill="white"/>
</g>
<g opacity="0.15">
<path opacity="0.15" d="M71.5889 34.0459H63.6926L56.1562 20.2648C56.2771 20.2335 56.4024 20.2179 56.5318 20.2179H64.0269L71.5889 34.0459ZM76.1394 33.999C76.0185 34.0304 75.8933 34.0459 75.7639 34.0459H72.9645L65.4011 20.2178H68.6031L76.1394 33.999Z" fill="#F6E9EB"/>
</g>
<path opacity="0.2" d="M37.9385 52.3268V58.779C37.9385 59.7015 37.3594 60.4803 36.5901 60.6747C36.4686 60.7064 36.3439 60.7212 36.2139 60.7212H31.3711L31.3806 50.3835H36.2139C37.1618 50.3835 37.9385 51.2585 37.9385 52.3268Z" fill="#244D77"/>
<path d="M18.4871 59.6561C17.3085 59.6561 16.3496 58.5984 16.3496 57.2981V50.8468C16.3496 49.759 17.0478 48.7924 18.0097 48.5484C18.1617 48.509 18.3231 48.4888 18.4872 48.4888H37.7194C38.8987 48.4888 39.8583 49.5465 39.8583 50.8468V57.2981C39.8583 58.386 39.1595 59.3526 38.1968 59.5965C38.0444 59.6359 37.883 59.6561 37.7193 59.6561H18.4871Z" fill="#E5B093"/>
<path d="M39.4444 50.8466V57.298C39.4444 58.2212 38.8654 58.9992 38.0959 59.1942C37.975 59.2255 37.8498 59.2411 37.7203 59.2411H18.4882C17.5409 59.2411 16.7656 58.3663 16.7656 57.298V50.8466C16.7656 49.9234 17.3446 49.1453 18.1127 48.9505C18.2336 48.9192 18.3588 48.9036 18.4882 48.9036H37.7204C38.6677 48.9035 39.4444 49.7783 39.4444 50.8466Z" fill="#EDE0D3"/>
<path d="M37.3031 54.5842H25.6076C25.5603 54.5842 25.5215 54.5454 25.5215 54.4981V54.02C25.5215 53.9727 25.5603 53.9339 25.6076 53.9339H37.3031C37.3504 53.9339 37.3892 53.9727 37.3892 54.02V54.4981C37.3892 54.5455 37.3506 54.5842 37.3031 54.5842ZM37.3031 52.8866H25.6076C25.5603 52.8866 25.5215 52.8478 25.5215 52.8005V52.3224C25.5215 52.2751 25.5603 52.2363 25.6076 52.2363H37.3031C37.3504 52.2363 37.3892 52.2751 37.3892 52.3224V52.8005C37.3892 52.8478 37.3506 52.8866 37.3031 52.8866ZM37.3031 56.2818H25.6076C25.5603 56.2818 25.5215 56.243 25.5215 56.1957V55.7176C25.5215 55.6703 25.5603 55.6315 25.6076 55.6315H37.3031C37.3504 55.6315 37.3892 55.6703 37.3892 55.7176V56.1957C37.3892 56.2431 37.3504 56.2818 37.3031 56.2818Z" fill="#E5B093"/>
<g opacity="0.15">
<path opacity="0.15" d="M33.544 59.2412H25.6478L18.1113 48.9505C18.2322 48.9192 18.3574 48.9036 18.4869 48.9036H25.982L33.544 59.2412ZM38.0946 59.1943C37.9737 59.2256 37.8485 59.2412 37.719 59.2412H34.9195L27.3561 48.9036H30.5581L38.0946 59.1943Z" fill="#F6E9EB"/>
</g>
<path d="M64.9661 64.6759L64.9414 62.7288C64.9414 62.7288 67.1725 59.7362 71.1708 61.5408L70.7633 65.4064C70.7632 65.4065 68.0076 62.6152 64.9661 64.6759Z" fill="#ED9B27"/>
<path d="M70.8095 61.7865C70.85 61.821 70.8998 61.8359 70.9481 61.8321L70.664 64.5391C70.5416 64.4746 70.3857 64.4991 70.292 64.6091C70.2598 64.6467 70.2389 64.6889 70.2292 64.7355C69.2599 64.0639 67.4591 63.1979 65.4835 64.1575C65.484 64.0954 65.4547 64.033 65.4026 63.9885C65.3288 63.9256 65.2283 63.9174 65.148 63.9588L65.1348 62.9953C65.1932 63.0001 65.2533 62.9764 65.2953 62.9273C65.3681 62.8419 65.358 62.7158 65.2741 62.6443L65.2683 62.6393C65.8011 62.079 67.7254 60.3884 70.7476 61.5686C70.7228 61.645 70.7444 61.7309 70.8095 61.7865Z" fill="#E28305"/>
<path d="M69.377 62.3494C69.4895 62.4454 69.503 62.6143 69.4069 62.7269C69.311 62.8394 69.1419 62.8528 69.0295 62.7569C68.9169 62.6609 68.9035 62.4919 68.9994 62.3793C69.0954 62.2669 69.2645 62.2535 69.377 62.3494ZM66.3884 62.7341C66.4679 62.8019 66.4774 62.9214 66.4096 63.001C66.3418 63.0806 66.2222 63.0901 66.1427 63.0222C66.0631 62.9544 66.0536 62.8349 66.1214 62.7553C66.1893 62.6757 66.3088 62.6662 66.3884 62.7341Z" fill="#ED9B27"/>
<path d="M64.9742 59.7686H64.6504V74.6365H64.9742V59.7686Z" fill="#D38220"/>
<path d="M68.0533 57.8286C67.9308 59.6177 66.3809 60.9688 64.5918 60.8463C64.4339 60.8355 64.2795 60.8137 64.1294 60.7811C63.4822 60.6428 62.9112 60.313 62.4736 59.8578C62.3959 59.7774 62.323 59.6928 62.2539 59.6045C62.1437 59.4635 62.0449 59.3128 61.9589 59.1546C61.6743 58.6311 61.5305 58.0229 61.5741 57.3847C61.6797 55.8447 62.8429 54.6294 64.3056 54.3986C64.4804 54.3715 64.6593 54.3577 64.8414 54.3598C64.9058 54.3603 64.9703 54.3627 65.0355 54.3671C65.0829 54.3704 65.1298 54.3747 65.1761 54.3803C65.8402 54.4538 66.4387 54.7254 66.916 55.1322C67.6739 55.7766 68.1265 56.7601 68.0533 57.8286Z" fill="#E28305"/>
<path d="M67.7804 57.8098C67.6681 59.4483 66.2489 60.6854 64.6104 60.5732C62.9719 60.461 61.7347 59.0418 61.8469 57.4034C61.9591 55.7648 63.3784 54.5277 65.0169 54.6399C66.6553 54.7521 67.8926 56.1714 67.7804 57.8098Z" fill="#ED9B27"/>
<path d="M66.1351 60.0612C67.4934 59.332 68.0034 57.6398 67.2742 56.2815C66.5451 54.9232 64.8528 54.4132 63.4946 55.1424C62.1363 55.8715 61.6263 57.5638 62.3554 58.922C63.0846 60.2803 64.7768 60.7903 66.1351 60.0612Z" fill="#E28305"/>
<path opacity="0.25" d="M64.8414 54.3598L64.7059 54.6351L64.6135 54.8222L62.4823 59.1418L62.3899 59.3292L62.2539 59.6045C62.1437 59.4634 62.0449 59.3128 61.959 59.1546L62.1107 58.8472L62.217 58.6322L64.0475 54.9221V54.9217L64.1538 54.7067L64.3057 54.3985C64.4805 54.3715 64.6593 54.3578 64.8414 54.3598ZM66.9162 55.1323L66.7908 55.3859L66.7072 55.5556L65.9465 57.0975L65.7311 57.5348L65.635 57.7289L65.0218 58.9719L64.9364 59.1452L64.8218 59.3771L64.3381 60.3576L64.2545 60.5273L64.1292 60.7809C63.482 60.6427 62.9111 60.3129 62.4734 59.8577L62.6028 59.5952L62.6901 59.4185L64.018 56.7276L64.2203 56.3178L64.9597 54.8192L65.047 54.6425L65.176 54.3803C65.8402 54.4539 66.4387 54.7255 66.9162 55.1323Z" fill="#EDE0D3"/>
<path d="M68.0443 68.842L67.9815 69.5391L67.561 74.065C67.5168 74.5445 67.1147 74.9096 66.6351 74.9096H62.9871C62.5077 74.9096 62.1056 74.5444 62.0614 74.065L61.6409 69.5391L61.5781 68.842H68.0443Z" fill="#ED9B27"/>
<path opacity="0.7" d="M64.2941 73.372C64.5423 73.6773 64.654 74.0714 64.6033 74.4617C64.5769 74.6651 64.5525 74.8547 64.5458 74.9108H62.9866C62.5058 74.9108 62.1043 74.5446 62.0599 74.0659L61.5762 68.8438H67.8291L67.881 69.2822L64.6614 71.2419C63.9191 71.694 63.746 72.6973 64.2941 73.372Z" fill="#E28305"/>
<path opacity="0.2" d="M68.0441 68.842L67.9814 69.5391H61.6408L61.5781 68.842H68.0441Z" fill="#D3801E"/>
<path d="M68.0692 68.0393H61.5555C61.2347 68.0393 60.9746 68.2994 60.9746 68.6202C60.9746 68.9857 61.271 69.2821 61.6365 69.2821H67.9881C68.3537 69.2821 68.65 68.9858 68.65 68.6202C68.65 68.2994 68.39 68.0393 68.0692 68.0393Z" fill="#ED9B27"/>
<path opacity="0.1" d="M34.3458 45.3775L38.6158 48.871L41.5958 46.7061L41.6799 46.7059C41.8421 46.4562 42.1863 45.9512 42.3775 45.853C42.6334 45.7214 43.198 45.7173 43.198 45.7173C43.198 45.7173 43.9371 45.1488 43.9529 45.3644C43.9688 45.5799 43.6809 45.8784 43.6809 45.8784C43.6809 45.8784 45.156 45.5026 45.1912 45.715C45.2262 45.9274 44.9483 46.9453 43.8981 46.7718C42.8478 46.5984 42.8751 46.7029 42.8751 46.7029C42.8751 46.7029 40.887 50.4385 38.6634 50.7114C36.9384 50.9232 33.258 47.7967 33.258 47.7967C33.258 47.7967 31.849 45.6317 34.3458 45.3775ZM26.5416 44.5384L21.494 46.7655L19.2 43.8837L19.1191 43.8611C19.0294 43.5772 18.8324 42.9985 18.6744 42.8529C18.4629 42.6578 17.9199 42.5031 17.9199 42.5031C17.9199 42.5031 17.3594 41.758 17.2866 41.9615C17.2138 42.165 17.4115 42.5296 17.4115 42.5296C17.4115 42.5296 16.0903 41.7736 15.9997 41.9689C15.9092 42.1642 15.9054 43.2194 16.9638 43.3325C18.0222 43.4457 17.9679 43.5392 17.9679 43.5392C17.9679 43.5392 18.8867 47.6701 20.9568 48.5266C22.5628 49.1912 26.9441 47.1605 26.9441 47.1605C26.9441 47.1605 28.88 45.4499 26.5416 44.5384Z" fill="#416D99"/>
<path d="M34.3707 44.7023L38.6407 48.1958L41.6207 46.031L41.7047 46.0308C41.867 45.7811 42.2113 45.2761 42.4023 45.1778C42.6582 45.0462 43.2228 45.0421 43.2228 45.0421C43.2228 45.0421 43.9619 44.4736 43.9777 44.6892C43.9935 44.9047 43.7057 45.2033 43.7057 45.2033C43.7057 45.2033 45.1808 44.8274 45.216 45.0398C45.251 45.2522 44.9731 46.2701 43.9229 46.0967C42.8726 45.9233 42.8999 46.0278 42.8999 46.0278C42.8999 46.0278 40.9117 49.7635 38.6882 50.0364C36.9632 50.2481 33.2828 47.1216 33.2828 47.1216C33.2828 47.1216 31.8738 44.9566 34.3707 44.7023Z" fill="#F7BAAC"/>
<path d="M32.9922 43.1091C32.9922 43.1091 35.6907 44.176 36.5893 46.171C36.9362 46.9411 36.4272 49.3017 35.5178 49.1367C34.6083 48.9719 33.0712 47.778 33.0712 47.778L32.9922 43.1091Z" fill="#E28305"/>
<path d="M26.6979 43.8809L21.6503 46.1079L19.3563 43.2261L19.2754 43.2035C19.1856 42.9196 18.9887 42.3409 18.8307 42.1952C18.6191 42 18.0761 41.8454 18.0761 41.8454C18.0761 41.8454 17.5156 41.1002 17.4428 41.3038C17.3701 41.5073 17.5677 41.8718 17.5677 41.8718C17.5677 41.8718 16.2466 41.1159 16.156 41.3112C16.0654 41.5064 16.0616 42.5617 17.12 42.6748C18.1784 42.788 18.1243 42.8815 18.1243 42.8815C18.1243 42.8815 19.0431 47.0123 21.1132 47.8689C22.7191 48.5335 27.1005 46.5028 27.1005 46.5028C27.1005 46.5028 29.0364 44.7925 26.6979 43.8809Z" fill="#F7BAAC"/>
<path d="M29.3049 42.8417C29.3049 42.8417 25.6056 42.5756 24.1677 44.7043C23.6948 45.4043 23.4882 47.7646 24.4087 47.8485C25.3292 47.9323 27.1293 47.1921 27.1293 47.1921L29.3049 42.8417Z" fill="#E28305"/>
<path d="M36.5985 74.6777L37.2331 76.3266L36.0027 76.727L35.2637 74.8484L36.5985 74.6777Z" fill="#E9C3B7"/>
<path d="M37.9544 76.585L37.2113 75.677L35.5717 75.8615C35.5717 75.8615 35.5318 76.5981 35.8732 77.0557C36.2156 77.5105 36.9057 77.4181 36.9057 77.4181L37.9544 76.585Z" fill="#416D99"/>
<path d="M36.9074 77.4181C36.9074 77.4181 36.8308 76.4674 37.9289 76.3439C39.0265 76.2204 38.9534 77.188 38.9534 77.188L36.9074 77.4181Z" fill="#244D77"/>
<path d="M37.0613 75.2377C37.0613 75.2377 36.7202 75.3918 36.2329 75.4871C35.9687 75.5406 35.6621 75.5752 35.3441 75.5594C34.8654 75.5361 33.3207 70.9385 32.1871 67.0537C31.583 64.984 31.0495 63.0682 30.7623 62.0346C30.7676 62.0322 30.7698 62.0191 30.767 61.9955C30.7612 61.6819 30.2894 59.579 29.6818 58.6879C29.3253 58.1656 28.894 57.7142 28.4816 57.2349C28.0182 56.6934 27.824 56.8173 27.5651 56.1499C27.4957 55.9739 27.4389 55.7947 27.3926 55.6124C29.3942 54.992 30.29 55.118 30.29 55.118C30.29 55.118 33.4453 54.3404 33.5805 55.1916C33.7059 55.9818 34.6448 60.4546 34.6448 60.4546L37.0613 75.2377Z" fill="#416D99"/>
<path d="M26.2156 74.1243L25.7051 75.8158L26.9619 76.1236L27.5595 74.1954L26.2156 74.1243Z" fill="#E9C3B7"/>
<path d="M30.8777 55.6677C30.8777 55.6677 28.6514 54.8551 26.6267 54.6047C26.5962 54.785 26.4925 64.0811 26.6005 64.6871C26.6948 65.2161 25.5906 74.579 25.9313 74.736C26.3861 74.9456 27.4695 74.9918 27.6122 74.7072C28.8643 72.2093 28.843 68.4795 29.6195 64.8011C30.7242 59.5675 30.8777 55.6677 30.8777 55.6677ZM25.002 76.1275L25.6756 75.1667L27.3244 75.229C27.3244 75.229 27.4188 75.9606 27.1124 76.4423C26.8047 76.9213 26.1096 76.8804 26.1096 76.8804L25.002 76.1275Z" fill="#416D99"/>
<path d="M26.1105 76.8804C26.1105 76.8804 26.1163 75.9266 25.0121 75.8849C23.9084 75.8432 24.0531 76.8027 24.0531 76.8027L26.1105 76.8804Z" fill="#244D77"/>
<path d="M36.2358 75.5076C35.9717 75.5613 35.665 75.5958 35.347 75.58C34.8684 75.5567 33.3237 70.9591 32.1901 67.0743C31.586 65.0046 31.0524 63.0888 30.7652 62.0551L30.3984 60.3814L31.3387 58.0205C31.3387 58.0205 31.7266 62.9394 32.0299 64.1643C32.3247 65.3626 36.0598 75.0533 36.2358 75.5076Z" fill="#244D77"/>
<path opacity="0.3" d="M26.6253 54.605L26.5879 55.5541C26.5879 55.5541 29.3346 57.151 30.7742 57.1246C32.2137 57.0981 33.2111 57.1829 33.8422 56.2627L33.8085 55.3175L26.6253 54.605Z" fill="#222B5E"/>
<path d="M31.0518 42.8347C31.7963 42.904 33.5404 42.7742 33.7955 44.0244C34.1017 45.5248 35.0434 54.6094 33.9836 55.3338C31.4856 57.0412 27.2236 56.3604 26.7255 55.3636C25.768 53.4475 27.2131 43.9984 27.9539 43.0911C28.1158 42.8927 29.8695 42.7247 31.0518 42.8347Z" fill="white"/>
<path d="M29.6349 43.045C29.6349 43.045 29.8436 41.3548 29.8553 41.0447C29.8671 40.7345 29.3767 40.012 29.8525 39.2016C30.3283 38.3912 32.1839 38.6063 32.5615 39.573C32.9392 40.5398 32.8096 42.875 32.1526 42.7259C31.4955 42.5768 31.5209 42.4536 31.5209 42.4536L31.5552 43.7387C31.5552 43.7387 31.2973 44.5365 30.4508 43.9248C29.6041 43.3131 29.6349 43.045 29.6349 43.045Z" fill="#F7B9AC"/>
<path d="M31.5213 42.4537L30.5611 41.7619C30.5611 41.7619 31.0895 42.9032 31.5394 43.1298L31.5213 42.4537ZM32.739 40.3903L32.7597 40.6305C32.7597 40.6305 32.3648 40.7155 31.74 40.4722C31.1151 40.2291 30.8379 39.6181 30.8379 39.6181C30.8379 39.6181 30.9075 40.5404 30.6712 40.5743C30.435 40.6081 30.2119 39.9469 30.2119 39.9469L30.0311 40.9192L29.9805 39.5075L30.6631 39.0632L32.739 40.3903Z" fill="#E8A89E"/>
<path d="M30.8717 39.3233C30.8717 39.3233 31.9032 40.569 32.7373 40.3905C33.5716 40.212 34.3881 39.4277 33.935 38.8138C33.4819 38.2 33.2895 36.1634 31.533 36.6147C31.533 36.6147 30.0379 36.724 30.1822 37.2886C30.1822 37.2886 28.9829 37.2433 29.0496 38.2191C29.1162 39.1949 29.2622 40.8156 29.6902 40.9974C30.1182 41.1791 30.0305 40.7617 30.0305 40.7617L30.1276 39.8335C30.1276 39.8335 30.3008 39.633 30.3473 40.0489C30.3937 40.4648 30.6173 40.5768 30.6765 40.1027C30.7359 39.6287 30.4144 39.3681 30.8717 39.3233Z" fill="#5B5B5B"/>
<path d="M48.1841 30.8787C43.9268 35.7797 39.1784 35.9001 38.9733 35.9042H36.9155C36.5395 35.9042 36.2331 36.2102 36.2331 36.5862V37.3414C36.0385 41.8401 36.5574 45.7884 37.8193 49.4256C38.94 52.6542 40.5656 55.1339 42.7924 57.005C44.3257 58.2954 46.0991 59.222 48.067 59.7571C48.1011 59.7672 48.1407 59.7734 48.1842 59.7762C48.229 59.7734 48.2684 59.7672 48.2994 59.7583C50.2685 59.222 52.0443 58.2966 53.5772 57.0059C55.8027 55.134 57.4289 52.6542 58.5499 49.4257C59.8118 45.7885 60.3307 41.8401 60.1366 37.3569L60.1357 36.5862C60.1357 36.2102 59.8297 35.9042 59.4536 35.9042H57.4004C57.1903 35.9002 52.441 35.7797 48.1841 30.8787Z" fill="#E28305"/>
<path opacity="0.3" d="M59.0601 35.9042C57.9573 43.7115 51.2483 49.715 43.1381 49.715C41.1881 49.715 39.3191 49.3687 37.5898 48.733C36.4951 45.2884 36.0499 41.5565 36.2335 37.3414V36.5862C36.2335 36.2098 36.5391 35.9042 36.9151 35.9042H38.9729C39.178 35.9009 43.9256 35.7789 48.1845 30.8787C52.4405 35.7789 57.189 35.901 57.399 35.9042H59.0601Z" fill="#5590EB"/>
<path d="M54.6218 44.4571C54.6182 43.7076 54.2137 43.2537 53.4792 43.1777C52.8183 43.1109 52.7491 42.6622 52.7544 42.3296C52.7654 41.7404 52.7654 41.1048 52.7544 40.382C52.7288 38.5817 51.3473 37.2145 49.5404 37.2006C48.6164 37.1958 47.6889 37.1974 46.7652 37.2145C45.1705 37.2433 43.8989 38.3396 43.6758 39.8815C43.5896 40.4625 43.5944 41.0547 43.6017 41.6801C43.6037 41.9234 43.605 42.1659 43.6017 42.4101C43.5981 42.6022 43.5896 43.1141 42.9397 43.1882C42.1006 43.2834 41.7405 43.696 41.738 44.5653C41.7332 46.7826 41.7332 49.0016 41.738 51.2181C41.742 52.1858 42.2015 52.6387 43.1863 52.6387L45.1876 52.6399H48.5386V52.6521L51.2537 52.6557C51.9315 52.6557 52.6135 52.6541 53.294 52.65C54.1343 52.6472 54.6161 52.1593 54.6202 51.3153C54.6308 49.0138 54.6308 46.707 54.6218 44.4571ZM49.5951 46.691C49.5617 47.041 49.3884 47.3568 49.1059 47.579C48.5985 47.9806 48.5473 48.4392 48.5635 48.8332C48.5782 49.1236 48.5737 49.424 48.5709 49.7134C48.5692 49.844 48.5692 49.975 48.5692 50.1072C48.5692 50.2549 48.5692 50.4092 48.5582 50.4926C48.4736 50.5056 48.3117 50.5113 48.1537 50.5182C48.0337 50.5239 47.9316 50.5276 47.8486 50.5276C47.8148 50.5276 47.7879 50.5276 47.7688 50.5259C47.7598 50.4356 47.7598 50.2826 47.7598 50.1316L47.7557 49.8878C47.7557 49.6974 47.7545 49.5066 47.7598 49.3182C47.7757 48.7436 47.7952 48.0323 47.0713 47.4097C46.7721 47.1574 46.709 46.8266 46.707 46.5975C46.7033 46.1808 46.8971 45.7609 47.2283 45.4703C47.4879 45.2432 47.8199 45.1159 48.1615 45.1159C48.5663 45.1159 48.9554 45.2962 49.2276 45.6046C49.4966 45.9138 49.6305 46.3093 49.5951 46.691ZM50.4426 42.4664C50.1163 42.4591 49.7879 42.4574 49.4588 42.4574L48.1713 42.4607L47.8413 42.4781L46.8537 42.4752C46.5343 42.4752 46.2124 42.4765 45.873 42.4851C45.849 42.4851 45.8314 42.4838 45.8156 42.4838C45.8139 42.4606 45.8115 42.4288 45.8115 42.387C45.8205 42.0631 45.8184 41.7433 45.8156 41.423C45.8139 41.0927 45.8115 40.7597 45.822 40.4285C45.8363 39.8519 46.2233 39.4544 46.7828 39.4405C47.7138 39.4177 48.6575 39.4247 49.5931 39.4649C50.1164 39.4861 50.4817 39.8624 50.5029 40.3997C50.5171 40.7655 50.5134 41.1432 50.5119 41.507C50.5099 41.806 50.5062 42.1039 50.5135 42.4022V42.464C50.496 42.464 50.4748 42.4665 50.4467 42.4665C50.4467 42.4664 50.4451 42.4664 50.4426 42.4664Z" fill="white"/>
<path d="M48.1825 60.4746L48.172 60.4738C48.0642 60.4701 47.9669 60.4559 47.8773 60.4323C45.8158 59.8683 43.9505 58.8949 42.3398 57.5398C40.0164 55.5845 38.3194 53.0059 37.158 49.656C35.8664 45.9326 35.3346 41.9004 35.5323 37.3269V36.5863C35.5323 35.8237 36.1513 35.2043 36.9138 35.2043H38.9676C39.0116 35.2035 43.8067 35.0676 47.9135 30.1177L48.1824 29.7917L48.4518 30.1177C52.5719 35.0815 57.3541 35.2035 57.4022 35.2043H59.4519C60.214 35.2043 60.833 35.8237 60.833 36.5863V37.3415C61.0299 41.9004 60.4992 45.9326 59.2089 49.656C58.0451 53.0059 56.3507 55.5845 54.0238 57.5398C52.4128 58.8949 50.5494 59.8682 48.4855 60.4323C48.3984 60.4559 48.3019 60.4701 48.1937 60.4738L48.1825 60.4746ZM48.1825 30.8787C43.9252 35.7797 39.1768 35.9001 38.9717 35.9042H36.9139C36.538 35.9042 36.2315 36.2102 36.2315 36.5862V37.3414C36.037 41.8401 36.5558 45.7884 37.8177 49.4256C38.9384 52.6542 40.5641 55.1339 42.7908 57.005C44.3241 58.2954 46.0976 59.222 48.0654 59.7571C48.0996 59.7672 48.1391 59.7734 48.1826 59.7762C48.2274 59.7734 48.2668 59.7672 48.2978 59.7583C50.267 59.222 52.0427 58.2966 53.5757 57.0059C55.8012 55.134 57.4273 52.6542 58.5484 49.4257C59.8103 45.7885 60.3291 41.8401 60.135 37.3569L60.1342 36.5862C60.1342 36.2102 59.8281 35.9042 59.4521 35.9042H57.3988C57.1887 35.9002 52.4394 35.7797 48.1825 30.8787Z" fill="#E5B093"/>
<path opacity="0.3" d="M59.0601 35.9042C57.9573 43.7115 51.2483 49.715 43.1381 49.715C41.1881 49.715 39.3191 49.3687 37.5898 48.733C36.4951 45.2884 36.0499 41.5565 36.2335 37.3414V36.5862C36.2335 36.2098 36.5391 35.9042 36.9151 35.9042H38.9729C39.178 35.9009 43.9256 35.7789 48.1845 30.8787C52.4405 35.7789 57.189 35.901 57.399 35.9042H59.0601Z" fill="#5590EB"/>
<path d="M70.5775 53.6019C70.5775 53.4821 70.6747 53.385 70.7944 53.385C70.9141 53.385 71.0112 53.4821 71.0112 53.6019C71.0112 53.7217 70.9141 53.8187 70.7944 53.8187C70.6747 53.8188 70.5775 53.7217 70.5775 53.6019ZM70.5775 52.1566C70.5775 52.0369 70.6747 51.9398 70.7944 51.9398C70.9141 51.9398 71.0112 52.0369 71.0112 52.1566C71.0112 52.2764 70.9141 52.3735 70.7944 52.3735C70.6747 52.3735 70.5775 52.2763 70.5775 52.1566ZM70.5775 50.7113C70.5775 50.5916 70.6747 50.4944 70.7944 50.4944C70.9141 50.4944 71.0112 50.5916 71.0112 50.7113C71.0112 50.831 70.9141 50.9281 70.7944 50.9281C70.6747 50.9281 70.5775 50.831 70.5775 50.7113ZM70.5775 49.2659C70.5775 49.1462 70.6747 49.0491 70.7944 49.0491C70.9141 49.0491 71.0112 49.1462 71.0112 49.2659C71.0112 49.3856 70.9141 49.4828 70.7944 49.4828C70.6747 49.4828 70.5775 49.3856 70.5775 49.2659ZM69.5898 52.8792C69.5898 52.7595 69.687 52.6624 69.8067 52.6624C69.9264 52.6624 70.0235 52.7595 70.0235 52.8792C70.0235 52.9989 69.9264 53.096 69.8067 53.096C69.687 53.0961 69.5898 52.999 69.5898 52.8792ZM69.5898 51.4339C69.5898 51.3141 69.687 51.2171 69.8067 51.2171C69.9264 51.2171 70.0235 51.3142 70.0235 51.4339C70.0235 51.5537 69.9264 51.6508 69.8067 51.6508C69.687 51.6508 69.5898 51.5537 69.5898 51.4339ZM69.5898 49.9886C69.5898 49.8688 69.687 49.7718 69.8067 49.7718C69.9264 49.7718 70.0235 49.8689 70.0235 49.9886C70.0235 50.1083 69.9264 50.2054 69.8067 50.2054C69.687 50.2054 69.5898 50.1083 69.5898 49.9886ZM69.5898 48.5433C69.5898 48.4235 69.687 48.3264 69.8067 48.3264C69.9264 48.3264 70.0235 48.4235 70.0235 48.5433C70.0235 48.663 69.9264 48.7601 69.8067 48.7601C69.687 48.7601 69.5898 48.663 69.5898 48.5433Z" fill="#E5B093"/>
<path d="M26.9076 32.2779C26.9076 32.1581 27.0047 32.061 27.1245 32.061C27.2442 32.061 27.3413 32.1582 27.3413 32.2779C27.3413 32.3976 27.2442 32.4947 27.1245 32.4947C27.0047 32.4947 26.9076 32.3976 26.9076 32.2779ZM26.9076 30.8325C26.9076 30.7127 27.0047 30.6157 27.1245 30.6157C27.2442 30.6157 27.3413 30.7128 27.3413 30.8325C27.3413 30.9523 27.2442 31.0494 27.1245 31.0494C27.0047 31.0494 26.9076 30.9524 26.9076 30.8325ZM26.9076 29.3872C26.9076 29.2675 27.0047 29.1704 27.1245 29.1704C27.2442 29.1704 27.3413 29.2675 27.3413 29.3872C27.3413 29.507 27.2442 29.604 27.1245 29.604C27.0047 29.6041 26.9076 29.507 26.9076 29.3872ZM26.9076 27.9418C26.9076 27.8221 27.0047 27.725 27.1245 27.725C27.2442 27.725 27.3413 27.8221 27.3413 27.9418C27.3413 28.0617 27.2442 28.1587 27.1245 28.1587C27.0047 28.1588 26.9076 28.0617 26.9076 27.9418ZM25.9199 31.5552C25.9199 31.4354 26.017 31.3384 26.1368 31.3384C26.2565 31.3384 26.3536 31.4355 26.3536 31.5552C26.3536 31.6749 26.2565 31.772 26.1368 31.772C26.017 31.772 25.9199 31.6749 25.9199 31.5552ZM25.9199 30.1099C25.9199 29.99 26.017 29.893 26.1368 29.893C26.2565 29.893 26.3536 29.9901 26.3536 30.1099C26.3536 30.2296 26.2565 30.3267 26.1368 30.3267C26.017 30.3267 25.9199 30.2297 25.9199 30.1099ZM25.9199 28.6645C25.9199 28.5448 26.017 28.4477 26.1368 28.4477C26.2565 28.4477 26.3536 28.5448 26.3536 28.6645C26.3536 28.7843 26.2565 28.8814 26.1368 28.8814C26.017 28.8815 25.9199 28.7843 25.9199 28.6645ZM25.9199 27.2193C25.9199 27.0996 26.017 27.0024 26.1368 27.0024C26.2565 27.0024 26.3536 27.0996 26.3536 27.2193C26.3536 27.3391 26.2565 27.4361 26.1368 27.4361C26.017 27.4361 25.9199 27.339 25.9199 27.2193Z" fill="#E5B093"/>
<defs>
<radialGradient id="paint0_radial_5907:19057" cx="0" cy="0" r="1" gradientUnits="userSpaceOnUse" gradientTransform="translate(25.37 -1.05772) scale(80.1777 80.0552)">
<stop offset="0.204" stop-color="white"/>
<stop offset="1" stop-color="#F4E9D0"/>
</radialGradient>
<linearGradient id="paint1_linear_5907:19057" x1="70.008" y1="24.0349" x2="44.7232" y2="77.1213" gradientUnits="userSpaceOnUse">
<stop stop-color="#302424"/>
<stop offset="0.051" stop-color="#3F3434"/>
<stop offset="0.23" stop-color="#716969"/>
<stop offset="0.405" stop-color="#9A9595"/>
<stop offset="0.573" stop-color="#BAB7B7"/>
<stop offset="0.733" stop-color="#D0CFCF"/>
<stop offset="0.879" stop-color="#DEDEDE"/>
<stop offset="1" stop-color="#E3E3E3"/>
</linearGradient>
</defs>
<svg width="25" height="32" viewBox="0 0 25 32" fill="none" xmlns="http://www.w3.org/2000/svg">
<path d="M7.07345 24.4255C5.3796 23.0881 4.05727 21.3739 3.22318 19.4342C2.2863 17.2975 2.07475 15.0055 2.3801 12.556L2.38387 12.5261L2.79316 8.65202C4.94915 8.51465 9.31131 7.72353 11.8258 3.74219H12.5037C14.6454 7.84939 19.6332 8.56332 21.9534 8.66469L22.3624 12.5581L22.3662 12.5882C22.6689 15.0299 22.4598 17.1834 21.5303 19.3147C20.699 21.249 19.3837 22.96 17.6991 24.2985L12.404 28.487L7.07345 24.4255Z" fill="#E28305"/>
<path d="M12.4078 31.4867L5.98059 26.3338C3.83751 24.6157 2.14299 22.4593 1.20907 20.2619C0.142229 17.7519 -0.228648 14.8296 0.136458 11.8109L0.693218 6.0218L0.88613 6.04069C0.954029 6.04698 7.79748 6.6454 10.6666 0.849778L10.7194 0.743164H13.7192L13.764 0.870878C15.7974 6.67057 23.7793 6.04709 23.8602 6.04043L24.051 6.0239L24.6102 11.8506C24.9714 14.8555 24.6025 17.7687 23.5427 20.2708C22.6152 22.4608 20.9294 24.6146 18.7957 26.3353L12.4078 31.4867ZM1.04113 6.43157L0.519764 11.8511C0.16206 14.8096 0.523659 17.6659 1.56477 20.1159C2.47471 22.2567 4.12943 24.3606 6.22432 26.0402L12.4071 30.9971L18.5512 26.0422C20.6368 24.3601 22.2831 22.2588 23.1868 20.1252C24.2211 17.6829 24.5808 14.8355 24.2269 11.8906L23.7028 6.43046C22.2797 6.49203 20.855 6.35288 19.4721 6.01724C16.4351 5.26371 14.3545 3.57269 13.4456 1.12221H10.9597C9.38982 4.20159 6.7457 5.47964 4.79314 6.0091C3.57246 6.34104 2.30654 6.48358 1.04113 6.43157Z" fill="#2D4574"/>
<path d="M12.7474 23.2381C12.6626 23.2381 12.578 23.2367 12.4938 23.2338L12.5068 22.8485C12.6716 22.8541 12.8384 22.8538 13.0032 22.8479L13.017 23.2333C12.9275 23.2366 12.8376 23.2382 12.7474 23.2381ZM11.9722 23.1984C11.8003 23.1807 11.626 23.1567 11.4541 23.1269L11.5202 22.747C11.683 22.7753 11.8485 22.7981 12.0116 22.8148L11.9722 23.1984ZM13.5384 23.1967L13.4985 22.8131C13.6612 22.7961 13.8263 22.773 13.9896 22.7443L14.0563 23.1241C13.8843 23.1544 13.71 23.1787 13.5384 23.1967ZM10.9422 23.0193C10.7734 22.9776 10.6041 22.9294 10.439 22.8761L10.5575 22.509C10.7142 22.5597 10.8747 22.6054 11.0346 22.645L10.9422 23.0193ZM14.5681 23.0153L14.4747 22.6412C14.6346 22.6013 14.795 22.5552 14.9516 22.5043L15.0709 22.871C14.9058 22.9248 14.7367 22.9732 14.5681 23.0153ZM9.94641 22.6973C9.78527 22.6323 9.62426 22.5607 9.46776 22.4845L9.63669 22.1378C9.78502 22.2101 9.93763 22.2781 10.0905 22.3396L9.94641 22.6973ZM15.5623 22.6914L15.4176 22.3339C15.5697 22.2724 15.7221 22.2044 15.8702 22.1318L16.0396 22.4783C15.8833 22.5547 15.7228 22.6264 15.5623 22.6914ZM9.00543 22.2388C8.85407 22.1514 8.70473 22.0581 8.56142 21.9614L8.77728 21.6418C8.91293 21.7334 9.05462 21.8219 9.1982 21.9049L9.00543 22.2388ZM16.5009 22.2322L16.3076 21.8986C16.4501 21.8161 16.5914 21.7275 16.7278 21.6352L16.9439 21.9546C16.8 22.052 16.651 22.1454 16.5009 22.2322ZM8.13799 21.6539C8.00045 21.5465 7.86565 21.4335 7.73703 21.3179L7.99479 21.0312C8.11677 21.1408 8.24478 21.248 8.37518 21.3499L8.13799 21.6539ZM17.3663 21.6465L17.1289 21.3428C17.258 21.2417 17.3858 21.1343 17.5087 21.0235L17.7667 21.31C17.6373 21.4267 17.5026 21.54 17.3663 21.6465ZM7.36027 20.955C7.23942 20.8302 7.12145 20.6996 7.00964 20.5668L7.30455 20.3185C7.4106 20.4445 7.52242 20.5683 7.63712 20.6866L7.36027 20.955ZM18.1429 20.9463L17.8656 20.6785C17.98 20.56 18.0918 20.4358 18.1977 20.3097L18.4931 20.5575C18.3814 20.6907 18.2635 20.8215 18.1429 20.9463ZM6.68673 20.1552C6.58458 20.0151 6.4858 19.8695 6.39344 19.7222L6.71973 19.5171C6.80758 19.6567 6.9012 19.7949 6.99821 19.9277L6.68673 20.1552ZM18.8155 20.1451L18.5035 19.9184C18.6007 19.7846 18.6942 19.6461 18.7815 19.5068L19.1083 19.7114C19.0164 19.8582 18.9179 20.0042 18.8155 20.1451ZM6.13077 19.2701C6.04932 19.1177 5.97189 18.9598 5.90074 18.801L6.25238 18.6431C6.32002 18.7939 6.39356 18.9437 6.47087 19.0883L6.13077 19.2701ZM19.3704 19.258L19.0301 19.0768C19.1076 18.9311 19.1809 18.781 19.2479 18.6305L19.6001 18.7874C19.5294 18.9461 19.4521 19.1045 19.3704 19.258ZM5.70395 18.3167C5.64409 18.1533 5.58937 17.9859 5.54144 17.8192L5.9119 17.7125C5.95733 17.8704 6.00916 18.0291 6.06588 18.1841L5.70395 18.3167ZM19.7962 18.3018L19.4338 18.17C19.49 18.0154 19.5416 17.8565 19.5869 17.6979L19.9576 17.804C19.9097 17.9712 19.8555 18.1387 19.7962 18.3018ZM5.4143 17.3116C5.37791 17.141 5.34717 16.9678 5.32307 16.7966L5.70484 16.7426C5.72767 16.905 5.75679 17.0693 5.7913 17.231L5.4143 17.3116ZM20.0838 17.2962L19.7065 17.2166C19.7405 17.0554 19.7693 16.8909 19.7921 16.7277L20.1739 16.7809C20.1499 16.953 20.1196 17.1263 20.0838 17.2962ZM5.26798 16.2763C5.25568 16.1024 5.24928 15.9266 5.24902 15.7533L5.63455 15.7528C5.63481 15.9171 5.64082 16.0841 5.65249 16.2489L5.26798 16.2763ZM20.228 16.2602L19.8434 16.2338C19.8546 16.0695 19.8604 15.9027 19.8604 15.7378V15.7071H20.2459V15.7378C20.2459 15.9115 20.2399 16.0872 20.228 16.2602ZM5.65049 15.2566L5.26572 15.2308C5.27739 15.057 5.29521 14.8819 5.31855 14.7105L5.70057 14.7627C5.67835 14.9254 5.66154 15.0916 5.65049 15.2566ZM19.8412 15.2117C19.8293 15.0474 19.8113 14.8814 19.788 14.7182L20.1695 14.6635C20.1942 14.8355 20.213 15.0105 20.2257 15.1836L19.8412 15.2117ZM5.78515 14.2739L5.40766 14.195C5.44316 14.025 5.48521 13.854 5.53264 13.6868L5.90361 13.7922C5.85857 13.9506 5.81879 14.1127 5.78515 14.2739ZM19.7005 14.2298C19.6656 14.0683 19.6247 13.9065 19.5789 13.7488L19.9491 13.6411C19.9974 13.8074 20.0406 13.9781 20.0772 14.1485L19.7005 14.2298ZM6.05585 13.3196L5.69317 13.1886C5.75214 13.0254 5.81791 12.8617 5.88857 12.7023L6.24095 12.8587C6.17395 13.0097 6.1117 13.1648 6.05585 13.3196ZM19.4236 13.2776C19.3665 13.1228 19.3035 12.9685 19.2361 12.8189L19.5875 12.6605C19.6587 12.8183 19.7252 12.9811 19.7853 13.1443L19.4236 13.2776ZM6.45781 12.4117L6.11722 12.2312C6.19892 12.0769 6.28677 11.9241 6.37838 11.7773L6.70543 11.9814C6.61871 12.1206 6.53538 12.2653 6.45781 12.4117ZM19.0169 12.374C18.9388 12.2287 18.8547 12.0846 18.767 11.9457L19.0931 11.7399C19.1854 11.8862 19.274 12.0383 19.3565 12.1915L19.0169 12.374ZM6.98253 11.5692L6.67029 11.343C6.77181 11.2026 6.87999 11.0638 6.99181 10.9301L7.28749 11.1774C7.18144 11.3043 7.07891 11.4361 6.98253 11.5692ZM18.4878 11.5358C18.3902 11.4026 18.2869 11.2714 18.1807 11.1459L18.4751 10.8968C18.5869 11.0291 18.6959 11.1673 18.7988 11.3078L18.4878 11.5358ZM7.61893 10.8077L7.34107 10.5406C7.46105 10.4157 7.5873 10.2931 7.71631 10.1762L7.97509 10.4621C7.85261 10.573 7.73288 10.6893 7.61893 10.8077ZM17.8474 10.7782C17.7327 10.6602 17.6122 10.5446 17.4892 10.4345L17.7462 10.1471C17.876 10.2632 18.003 10.3851 18.1237 10.5093L17.8474 10.7782ZM8.35435 10.1417L8.1159 9.83865C8.25257 9.73108 8.39462 9.62727 8.53795 9.52987L8.75455 9.84869C8.61864 9.9412 8.48399 10.0397 8.35435 10.1417ZM17.1078 10.1163C16.9777 10.0151 16.8424 9.91723 16.7056 9.82535L16.9205 9.50525C17.0647 9.60204 17.2073 9.70522 17.3445 9.81179L17.1078 10.1163ZM9.17422 9.58459L8.98045 9.25119C9.13029 9.16407 9.28516 9.08085 9.4409 9.00415L9.61133 9.3501C9.46349 9.42291 9.31641 9.50174 9.17422 9.58459ZM16.2838 9.56325C16.14 9.48078 15.9923 9.4027 15.8447 9.33116L16.0129 8.98419C16.1683 9.05951 16.3241 9.14186 16.4756 9.22885L16.2838 9.56325ZM10.0634 9.14688L9.9178 8.78988C10.0784 8.72424 10.2437 8.6636 10.409 8.60937L10.529 8.97591C10.3724 9.02725 10.2157 9.08475 10.0634 9.14688ZM15.3906 9.13019C15.2369 9.0688 15.0795 9.01219 14.9232 8.96198L15.0409 8.59469C15.2059 8.64766 15.3717 8.70741 15.5337 8.77218L15.3906 9.13019ZM11.0056 8.83795L10.9115 8.46414C11.0805 8.42146 11.2526 8.38456 11.423 8.3543L11.4905 8.7339C11.329 8.76264 11.1659 8.79767 11.0056 8.83795ZM14.4456 8.82704C14.2864 8.78787 14.123 8.75398 13.9601 8.72598L14.0253 8.34589C14.1972 8.37539 14.3695 8.41129 14.5375 8.45247L14.4456 8.82704ZM11.9817 8.66373L11.9408 8.28037C12.114 8.26179 12.2896 8.24925 12.4625 8.24284L12.4766 8.6282C12.3125 8.63423 12.1461 8.64616 11.9817 8.66373ZM13.4684 8.65908C13.3051 8.64264 13.1386 8.63171 12.9733 8.62657L12.9851 8.24121C13.1593 8.24648 13.3349 8.25802 13.507 8.27548L13.4684 8.65908Z" fill="#2D4574"/>
<path d="M12.4594 13.4467V16.7265H9.97593L12.4189 13.4467H12.4594ZM12.4594 18.3056V20.4922H14.2815V18.3056H15.5368V16.7265H14.2815V11.0442H12.5674L8.46425 16.551V18.3056H12.4594Z" fill="white"/>
</svg>

</svg>
