<svg width="93" height="93" viewBox="0 0 93 93" fill="none" xmlns="http://www.w3.org/2000/svg">
<circle cx="46.4535" cy="46.3914" r="45.7716" fill="white" stroke="#EFD2BE" stroke-width="0.953575"/>
<g opacity="0.75">
<path opacity="0.75" d="M40.7513 69.5259H26.52C26.52 69.5259 23.0619 68.0129 24.5249 62.4267C25.9879 56.8406 27.5839 53.7816 22.3969 52.3185C17.2098 50.8554 11.0916 46.2003 16.8107 47.1313C22.5298 48.0624 24.8226 51.5461 26.254 48.7274C27.7119 45.8562 21.0209 38.5109 25.8549 39.0182C30.7777 39.5347 35.1652 45.4023 32.7711 47.9294C30.377 50.4565 34.3671 51.1215 35.6971 47.5303C37.0272 43.9393 38.7562 39.0181 39.8202 43.8062C40.8843 48.5943 36.8942 51.2544 36.3622 55.3775C35.8302 59.5007 40.7513 69.5259 40.7513 69.5259Z" fill="#CDE0FF"/>
<path opacity="0.75" d="M34.0421 68.6209H25.0326C25.0326 68.6209 22.2512 62.3421 26.0143 59.2334C29.7774 56.1248 33.2368 57.9937 36.0182 56.1939C38.7997 54.3941 36.4645 51.1275 36.9303 49.5055C37.2392 48.4299 40.0852 47.126 41.0669 51.2163C42.0485 55.3066 42.8667 52.1979 44.1755 49.4165C45.4845 46.6351 52.029 48.9257 48.1023 51.8707C44.1755 54.8158 39.4308 56.4519 42.8667 56.9428C46.3025 57.4336 51.8654 59.0698 47.7751 60.2151C43.6848 61.3604 38.4775 60.8731 40.0852 62.9965C41.0346 64.2504 47.6115 62.9965 45.1573 65.778C42.7029 68.5594 34.0421 68.6209 34.0421 68.6209Z" fill="#D1DAE8"/>
<path opacity="0.75" d="M27.788 69.2999C27.788 69.2999 25.4974 65.639 24.8429 62.3667C24.1885 59.0945 26.8063 57.1311 28.606 59.0945C30.4058 61.0579 31.8783 57.4584 31.2239 54.3496C30.5694 51.2409 31.5511 46.3325 33.5145 48.7867C35.4779 51.2409 33.1873 55.1678 38.5866 53.8588C43.9858 52.5498 46.9309 58.1127 41.5316 58.2763C36.1323 58.4399 36.6232 60.7305 38.9138 62.6938C41.2044 64.6572 39.7318 67.7659 36.6232 67.7659C33.5145 67.7659 33.4327 69.2999 33.4327 69.2999H27.788Z" fill="#E3EDFD"/>
</g>
<path d="M29.7392 74.2582L22.8267 75.8711L20.1934 74.2582V64.5039H29.7392L32.3725 66.1169L29.7392 74.2582Z" fill="#E5B093"/>
<path d="M42.7295 74.1971L35.8169 75.8713L33.1836 74.1971V53.9487H42.7295L45.3628 55.6229L42.7295 74.1971Z" fill="#E5B093"/>
<path d="M56.358 74.2049L48.9847 75.8713L46.1758 74.2049V42.5815H56.358L59.1669 44.248L56.358 74.2049Z" fill="#E5B093"/>
<path d="M69.3502 74.2595L61.9768 75.8712L59.168 74.2595V35.2739H69.3502L72.1591 36.8856L69.3502 74.2595Z" fill="#E28305"/>
<path opacity="0.2" d="M69.3502 74.2595L61.9768 75.8712L59.168 74.2595V35.2739H69.3502L72.1591 36.8856L69.3502 74.2595Z" fill="#A8681B"/>
<path d="M32.7808 66.0244H22.8477V75.9576H32.7808V66.0244Z" fill="url(#paint0_radial_5907:19146)"/>
<path d="M45.7984 56.0911H35.8652V75.9574H45.7984V56.0911Z" fill="url(#paint1_radial_5907:19146)"/>
<path d="M58.8121 44.7878H48.8789V75.9574H58.8121V44.7878Z" fill="url(#paint2_radial_5907:19146)"/>
<path d="M71.8277 36.2249H61.8945V75.9575H71.8277V36.2249Z" fill="#E28305"/>
<path d="M26.3261 64.369C25.3466 63.9506 23.7436 62.5157 23.7436 62.5157C23.7436 62.5157 23.3438 62.3053 23.0963 62.6545C22.9424 62.8715 22.7935 63.5648 22.703 64.0578C22.6498 64.3471 22.8793 64.5486 23.1553 64.687C24.5083 65.3652 25.3051 65.6901 26.4745 65.6665C26.7539 65.6608 27.3055 64.7873 26.3261 64.369Z" fill="#416D99"/>
<path d="M23.0059 58.8813C23.116 60.6437 23.239 62.2597 23.2418 63.4829C23.2635 63.4876 23.1639 63.8004 23.7472 63.812C24.3474 63.824 24.4209 63.5605 24.4209 63.5605C24.4209 63.5605 24.3657 61.5274 24.725 58.9322C24.0427 58.8755 23.6918 58.883 23.0059 58.8813Z" fill="#FCBCCA"/>
<path d="M32.443 61.4414C31.4159 61.1595 29.354 59.9619 29.354 59.9619C29.354 59.9619 28.9294 59.8077 28.7316 60.187C28.6084 60.423 28.5548 61.13 28.5318 61.6307C28.5182 61.9245 28.7729 62.0932 29.065 62.1929C30.4974 62.6816 31.8742 62.9246 33.0296 62.743C33.306 62.6995 33.47 61.7234 32.443 61.4414Z" fill="#416D99"/>
<path d="M30.3915 60.647L30.7634 59.0813L29.5947 58.8157C29.5947 58.8157 29.2799 59.657 29.0762 60.4357C29.1921 60.7355 29.4414 60.7681 29.6467 60.8014C29.8797 60.8391 30.1674 60.8673 30.3915 60.647Z" fill="#FCBCCA"/>
<path d="M23.9354 44.0572L29.4557 52.2837L29.0132 59.5729L30.7768 59.9414L33.1858 50.7574L28.0692 39.336C28.0693 39.336 23.1458 37.1324 23.9354 44.0572Z" fill="#416D99"/>
<path d="M21.3596 41.4585C21.3596 41.4585 21.2473 45.2606 21.5337 46.9794C21.8201 48.6981 22.2976 54.3317 22.2976 54.3317L22.6795 61.9704L24.8755 62.0659L25.2574 53.4723C25.2574 53.4723 27.0529 43.013 27.0529 42.2491C27.0531 41.4852 21.3596 41.4585 21.3596 41.4585Z" fill="#416D99"/>
<path d="M35.8636 26.7236C35.8636 26.7236 36.2297 26.1506 36.166 25.4505C36.1023 24.7502 35.8318 23.5567 36.2933 23.7318C36.7549 23.9068 36.6435 24.2569 36.6435 24.2569C36.6435 24.2569 37.9325 21.5198 38.2667 22.029C38.6009 22.5382 37.7575 24.0182 37.7575 24.0182C37.7575 24.0182 39.1897 24.8297 38.6645 25.53C38.1394 26.2303 36.9617 26.9464 36.7389 27.4237C36.5161 27.9012 35.5932 27.3442 35.8636 26.7236Z" fill="#FCBCCA"/>
<path d="M28.05 31.4181C28.05 31.4181 31.9648 34.9987 32.7286 34.5213C33.4925 34.0439 37.0732 27.36 37.0732 27.36L35.8319 26.3574C35.8319 26.3574 33.1106 30.3678 32.4899 30.4155C31.8693 30.4632 28.5273 28.0283 27.6203 28.0283C26.7132 28.0284 28.05 31.4181 28.05 31.4181Z" fill="#A33635"/>
<path d="M25.1691 27.5003C26.3969 27.5574 28.7314 27.7743 29.1882 30.3319C29.6449 32.8895 30.8055 39.156 29.1262 41.6328C27.949 43.3688 22.4917 44.4757 21.1114 40.7108C20.0735 37.8797 20.6021 31.5649 21.4699 29.5098C22.3376 27.4546 24.1178 27.4514 25.1691 27.5003Z" fill="white"/>
<path d="M28.4511 34.5029L28.7693 36.158L15.2065 42.302L15.123 41.1621C15.123 41.1621 19.3505 40.1236 20.7394 39.3826C24.2228 37.5241 27.7001 35.4586 28.4511 34.5029Z" fill="#E5B093"/>
<path d="M28.31 35.6013L14.8275 42.0144C14.8275 42.0144 13.7772 43.6853 15.4959 44.497L28.7085 38.3354C28.7085 38.3354 27.5939 37.6542 28.31 35.6013Z" fill="url(#paint3_radial_5907:19146)"/>
<path d="M27.7168 36.8346C27.7168 37.6783 28.0909 38.3624 28.5523 38.3624C29.0137 38.3624 29.3878 37.6783 29.3878 36.8346C29.3878 35.9909 28.9859 35.5737 28.5245 35.5737C28.063 35.5737 27.7168 35.9909 27.7168 36.8346Z" fill="#CCD8EA"/>
<path d="M26.1983 26.5683V27.8034C26.1983 27.8034 25.941 28.4724 25.2978 28.2666C24.6545 28.0608 24.6288 27.7004 24.6288 27.7004L24.4355 25.9456L26.1983 26.5683Z" fill="#FCBCCA"/>
<path d="M26.1977 26.8413L25.0312 26.4226C25.0312 26.4226 25.4601 27.5033 26.1977 27.5205V26.8413Z" fill="#EAACBC"/>
<path d="M25.6828 24.1239C25.6828 24.1239 30.8848 23.635 30.5246 21.1391C30.0978 18.1823 26.665 19.3122 25.1726 21.3192C25.1726 21.3192 21.9305 21.9111 23.1098 24.9164C24.314 27.9852 24.6021 26.251 24.6021 26.251L25.6828 24.1239Z" fill="#525252"/>
<path d="M27.6894 22.9917C27.6894 22.9917 28.3069 26.3881 27.6894 26.6283C27.0718 26.8685 25.1507 27.0743 24.6017 26.2509C24.0528 25.4275 24.4473 24.8272 24.4473 24.8272C24.4473 24.8272 23.8813 24.1925 24.2586 23.9866C24.6063 23.797 24.6532 24.1925 24.6532 24.1925C24.6532 24.1925 24.7217 23.5406 25.0305 23.5234C25.3392 23.5064 27.2433 23.6092 27.6894 22.9917Z" fill="#FCBCCA"/>
<path d="M25.0312 23.5234C25.0312 23.5234 26.3664 24.3602 27.8602 24.139L27.7765 23.5234H25.0312Z" fill="#EAACBC"/>
<path d="M25.7352 28.4078L26.7617 29.0284C26.7617 29.0284 26.7617 27.6917 26.523 27.3575C26.2842 27.0233 25.7352 28.4078 25.7352 28.4078ZM24.9952 28.4078L23.9688 29.0284C23.9688 29.0284 23.9687 27.6917 24.2075 27.3575C24.4462 27.0233 24.9952 28.4078 24.9952 28.4078Z" fill="white"/>
<path d="M21.9709 38.7524C21.9709 38.7524 22.7842 39.4967 23.1423 39.3296C23.0274 38.9192 23.3177 38.4259 23.5003 38.5419C23.7422 38.6954 23.381 39.0432 24.0971 39.5205C24.8132 39.998 25.8158 39.8786 25.3861 40.2844C24.9565 40.6902 23.9172 41.7922 22.5455 40.9767C21.4071 40.2998 21.2109 39.7162 21.2109 39.7162L21.9709 38.7524Z" fill="#FCBCCA"/>
<path d="M23.064 28.428C23.6552 29.1267 23.2297 30.0312 22.1794 31.9886C21.1291 33.9461 20.0787 36.3809 20.0787 36.3809L22.2669 38.7154C22.2669 38.7154 22.1967 39.6517 21.4328 40.2724C20.669 40.893 17.5006 38.3383 17.3574 37.2402C17.2143 36.1421 21.0353 26.0303 23.064 28.428Z" fill="#A33635"/>
<path d="M27.7599 37.2974L28.8025 36.8804C28.8025 36.8804 29.0945 38.0481 28.6635 38.3261C28.2326 38.6041 27.7042 37.631 27.7599 37.2974Z" fill="#E5B093"/>
<path d="M25.2246 23.4972C25.2246 23.4972 26.3056 24.1375 27.4238 23.9065C28.5419 23.6755 28.0632 22.4883 28.0632 22.4883L25.2246 23.4972Z" fill="#5A5A5A"/>
<path fill-rule="evenodd" clip-rule="evenodd" d="M35.5938 20.9539C35.6089 21.0344 35.6206 21.1113 35.6339 21.1868C35.6608 21.371 35.7546 21.5319 35.8886 21.6457C35.9405 21.6909 35.9975 21.7295 36.0595 21.758C36.155 21.8049 36.2638 21.83 36.3761 21.83C36.7497 21.83 37.0597 21.5569 37.12 21.1917C37.135 21.1063 37.1501 21.0191 37.1668 20.9287C36.9105 20.989 36.6241 21.0209 36.3208 21.0209C36.2404 21.0209 36.1617 21.0193 36.0847 21.0142C35.9137 21.0058 35.7478 20.9856 35.5938 20.9539Z" fill="#FF9C61"/>
<path fill-rule="evenodd" clip-rule="evenodd" d="M34.2031 17.0003C34.2031 17.5934 34.4427 18.1328 34.8281 18.5282C35.1681 19.1832 35.4244 19.6841 35.5736 20.4648C35.7461 20.4983 35.9287 20.5217 36.1197 20.5301C36.185 20.5335 36.252 20.5352 36.3207 20.5352C36.6339 20.5352 36.9271 20.5 37.1901 20.4363C37.3459 19.664 37.6123 19.1732 37.9523 18.5282C38.3828 18.086 38.6308 17.4661 38.5638 16.7859C38.4666 15.7707 37.6508 14.9398 36.6356 14.8292C35.3188 14.6835 34.2031 15.7137 34.2031 17.0003Z" fill="#E28305"/>
<path d="M36.6017 12.5396H36.291V13.9377H36.6017V12.5396Z" fill="#E28305"/>
<path d="M40.8358 16.7729H39.4375V17.0836H40.8358V16.7729Z" fill="#E28305"/>
<path d="M33.4567 16.7729H32.0586V17.0836H33.4567V16.7729Z" fill="#E28305"/>
<path d="M39.4419 13.7133L38.4531 14.7019L38.6728 14.9216L39.6615 13.933L39.4419 13.7133Z" fill="#E28305"/>
<path d="M34.223 18.9357L33.2344 19.9243L33.4541 20.1441L34.4428 19.1554L34.223 18.9357Z" fill="#E28305"/>
<path d="M38.6727 18.9333L38.4531 19.1531L39.4421 20.1414L39.6617 19.9217L38.6727 18.9333Z" fill="#E28305"/>
<path d="M33.4542 13.7151L33.2344 13.9348L34.2228 14.9238L34.4426 14.7041L33.4542 13.7151Z" fill="#E28305"/>
<path opacity="0.35" fill-rule="evenodd" clip-rule="evenodd" d="M36.0844 21.0143C35.9135 21.0059 35.7476 20.9859 35.5936 20.954C35.6087 21.0345 35.6204 21.1114 35.6338 21.1869C35.6606 21.3711 35.7544 21.532 35.8884 21.6458C35.9403 21.6911 35.9974 21.7296 36.0593 21.7581C36.0191 21.5471 36.0493 21.3394 36.0844 21.0143ZM34.2031 17.0005C34.2031 17.5935 34.4427 18.133 34.8281 18.5283C35.1681 19.1834 35.4244 19.6843 35.5736 20.4649C35.7461 20.4984 35.9287 20.5219 36.1197 20.5303C36.1096 19.6474 35.5233 18.4714 35.2184 17.3574C34.8951 16.173 36.6357 14.8295 36.6357 14.8295C35.3188 14.6836 34.2031 15.7139 34.2031 17.0005Z" fill="#FF9C61"/>
<path d="M77.0254 65.5279C77.0254 65.4115 77.1198 65.317 77.2363 65.317C77.3528 65.317 77.4472 65.4115 77.4472 65.5279C77.4472 65.6445 77.3527 65.7388 77.2363 65.7388C77.1198 65.7388 77.0254 65.6444 77.0254 65.5279ZM77.0254 64.1223C77.0254 64.0058 77.1198 63.9114 77.2363 63.9114C77.3528 63.9114 77.4472 64.0058 77.4472 64.1223C77.4472 64.2388 77.3527 64.3331 77.2363 64.3331C77.1198 64.3332 77.0254 64.2388 77.0254 64.1223Z" fill="#E5B093"/>
<path d="M77.2363 62.9276C77.3527 62.9276 77.4471 62.8332 77.4471 62.7167C77.4471 62.6003 77.3527 62.5059 77.2363 62.5059C77.1198 62.5059 77.0254 62.6003 77.0254 62.7167C77.0254 62.8332 77.1198 62.9276 77.2363 62.9276Z" fill="#E5B093"/>
<path d="M77.2363 61.5221C77.3527 61.5221 77.4471 61.4277 77.4471 61.3112C77.4471 61.1948 77.3527 61.1003 77.2363 61.1003C77.1198 61.1003 77.0254 61.1948 77.0254 61.3112C77.0254 61.4277 77.1198 61.5221 77.2363 61.5221Z" fill="#E5B093"/>
<path d="M76.0645 64.8253C76.0645 64.7089 76.1589 64.6144 76.2753 64.6144C76.3918 64.6144 76.4862 64.7089 76.4862 64.8253C76.4862 64.9417 76.3918 65.0362 76.2753 65.0362C76.1589 65.0362 76.0645 64.9417 76.0645 64.8253ZM76.0645 63.4196C76.0645 63.3032 76.1589 63.2087 76.2753 63.2087C76.3918 63.2087 76.4862 63.3032 76.4862 63.4196C76.4862 63.5361 76.3918 63.6305 76.2753 63.6305C76.1589 63.6306 76.0645 63.5362 76.0645 63.4196Z" fill="#E5B093"/>
<path d="M76.2753 62.225C76.3918 62.225 76.4862 62.1306 76.4862 62.0141C76.4862 61.8976 76.3918 61.8032 76.2753 61.8032C76.1589 61.8032 76.0645 61.8976 76.0645 62.0141C76.0645 62.1306 76.1589 62.225 76.2753 62.225Z" fill="#E5B093"/>
<path d="M76.2753 60.8192C76.3918 60.8192 76.4862 60.7248 76.4862 60.6083C76.4862 60.4919 76.3918 60.3975 76.2753 60.3975C76.1589 60.3975 76.0645 60.4919 76.0645 60.6083C76.0645 60.7248 76.1589 60.8192 76.2753 60.8192Z" fill="#E5B093"/>
<path d="M39.7285 43.1466C39.7285 43.0302 39.823 42.9357 39.9394 42.9357C40.0558 42.9357 40.1503 43.0302 40.1503 43.1466C40.1503 43.2631 40.0558 43.3575 39.9394 43.3575C39.823 43.3575 39.7285 43.2631 39.7285 43.1466ZM39.7285 41.7409C39.7285 41.6245 39.823 41.53 39.9394 41.53C40.0558 41.53 40.1503 41.6245 40.1503 41.7409C40.1503 41.8575 40.0558 41.9518 39.9394 41.9518C39.823 41.9519 39.7285 41.8575 39.7285 41.7409Z" fill="#E5B093"/>
<path d="M39.9394 40.5465C40.0559 40.5465 40.1503 40.4521 40.1503 40.3356C40.1503 40.2192 40.0559 40.1248 39.9394 40.1248C39.8229 40.1248 39.7285 40.2192 39.7285 40.3356C39.7285 40.4521 39.8229 40.5465 39.9394 40.5465Z" fill="#E5B093"/>
<path d="M39.9394 39.1408C40.0559 39.1408 40.1503 39.0463 40.1503 38.9299C40.1503 38.8134 40.0559 38.719 39.9394 38.719C39.8229 38.719 39.7285 38.8134 39.7285 38.9299C39.7285 39.0463 39.8229 39.1408 39.9394 39.1408Z" fill="#E5B093"/>
<path d="M38.7676 42.4442C38.7676 42.3278 38.862 42.2333 38.9785 42.2333C39.095 42.2333 39.1893 42.3278 39.1893 42.4442C39.1893 42.5607 39.0949 42.6551 38.9785 42.6551C38.862 42.6552 38.7676 42.5607 38.7676 42.4442ZM38.7676 41.0385C38.7676 40.9221 38.862 40.8276 38.9785 40.8276C39.095 40.8276 39.1893 40.9221 39.1893 41.0385C39.1893 41.1551 39.0949 41.2494 38.9785 41.2494C38.862 41.2495 38.7676 41.1551 38.7676 41.0385Z" fill="#E5B093"/>
<path d="M38.9785 39.8436C39.0949 39.8436 39.1893 39.7492 39.1893 39.6328C39.1893 39.5163 39.0949 39.4219 38.9785 39.4219C38.862 39.4219 38.7676 39.5163 38.7676 39.6328C38.7676 39.7492 38.862 39.8436 38.9785 39.8436Z" fill="#E5B093"/>
<path d="M38.9785 38.4379C39.0949 38.4379 39.1893 38.3435 39.1893 38.227C39.1893 38.1105 39.0949 38.0161 38.9785 38.0161C38.862 38.0161 38.7676 38.1105 38.7676 38.227C38.7676 38.3435 38.862 38.4379 38.9785 38.4379Z" fill="#E5B093"/>
<path d="M60.1504 22.1328C60.1544 25.1854 62.6325 27.6571 65.6849 27.6533C68.7374 27.6494 71.2092 25.1713 71.2053 22.1188C71.2015 19.0664 68.7232 16.5946 65.6708 16.5984C62.6183 16.6022 60.1465 19.0804 60.1504 22.1328ZM61.2884 22.1313C61.2853 19.7076 63.2486 17.7393 65.6723 17.7364C68.096 17.7332 70.0643 19.6965 70.0674 22.1202C70.0704 24.544 68.1072 26.5122 65.6835 26.5153C63.2597 26.5185 61.2915 24.5551 61.2884 22.1313Z" fill="#E5B093"/>
<path d="M56.9861 35.3111C55.9082 35.3045 55.0301 34.422 55.0287 33.3438L55.0137 21.5871C55.0134 21.2646 55.0925 20.9454 55.2424 20.6638C55.5853 20.0179 56.2514 19.6158 56.981 19.6148L74.7831 19.5923C75.5083 19.5968 76.1707 19.9985 76.5115 20.6408C76.6608 20.9211 76.74 21.2389 76.7404 21.5596L76.7554 33.3163C76.7568 34.4023 75.8743 35.2871 74.788 35.2885L56.9861 35.3111Z" fill="#E5B093"/>
<path d="M55.7344 21.8939L55.7486 33.0354C55.7498 33.982 56.5191 34.7493 57.4656 34.7481L74.3219 34.7267C75.2686 34.7255 76.0358 33.9562 76.0347 33.0097L76.0205 21.8682C76.0202 21.58 75.9482 21.3066 75.8212 21.0685C75.5322 20.5238 74.9618 20.1547 74.3034 20.1555L57.4471 20.1769C56.7905 20.1778 56.2211 20.5484 55.9333 21.0905C55.8054 21.3306 55.7341 21.6039 55.7344 21.8939Z" fill="#F4E9D0"/>
<path d="M55.3828 20.7389L55.3886 25.2393C55.3898 26.2188 56.184 27.0109 57.1636 27.0097L74.6023 26.9876C75.5819 26.9863 76.3758 26.1922 76.3745 25.2125L76.3688 20.7157C76.0639 20.141 75.4618 19.7514 74.7672 19.7522L56.9802 19.7747C56.2873 19.7758 55.6864 20.1669 55.3828 20.7389Z" fill="#F8CCB1"/>
<path d="M63.9395 27.0898C63.9406 28.1422 64.795 28.9945 65.8474 28.993C66.8999 28.9917 67.7521 28.1375 67.7506 27.0849C67.7495 26.0325 66.8951 25.1802 65.8425 25.1816C64.7901 25.183 63.938 26.0372 63.9395 27.0898Z" fill="white"/>
<path d="M64.2578 27.0896C64.2588 27.9666 64.9708 28.6767 65.8477 28.6756C66.7247 28.6745 67.4348 27.9626 67.4337 27.0855C67.4328 26.2085 66.7207 25.4984 65.8437 25.4995C64.9666 25.5006 64.2567 26.2125 64.2578 27.0896Z" fill="#E5B093"/>
<path d="M73.8988 22.6592V22.8915C73.8988 23.3214 73.548 23.6699 73.1181 23.6699H63.2593C62.8295 23.6699 62.4785 23.3214 62.4785 22.8915V22.6592C62.4785 22.5499 62.5017 22.4478 62.5412 22.3548C62.6597 22.0736 62.9362 21.8784 63.2592 21.8784H73.118C73.2481 21.8784 73.369 21.9086 73.4758 21.9644C73.7269 22.0945 73.8988 22.3571 73.8988 22.6592Z" fill="#ED9B27"/>
<path d="M73.4776 21.9643C73.3591 22.2455 73.0803 22.443 72.7573 22.443H62.8985C62.7707 22.443 62.6498 22.4104 62.543 22.3547C62.6615 22.0736 62.938 21.8784 63.2609 21.8784H73.1198C73.25 21.8783 73.3708 21.9085 73.4776 21.9643Z" fill="#E28305"/>
<path opacity="0.3" d="M70.2822 21.8784H66.8711V23.6699H70.2822V21.8784Z" fill="#EDE0D3"/>
<path d="M71.8188 24.4507V24.683C71.8188 25.1129 71.4679 25.4614 71.038 25.4614H61.1792C60.7493 25.4614 60.3984 25.1129 60.3984 24.683V24.4507C60.3984 24.3414 60.4217 24.2393 60.4611 24.1463C60.5796 23.8651 60.8562 23.6699 61.1791 23.6699H71.0379C71.168 23.6699 71.2889 23.7001 71.3958 23.7559C71.6468 23.886 71.8188 24.1486 71.8188 24.4507Z" fill="#ED9B27"/>
<path d="M71.3975 23.7558C71.279 24.037 71.0002 24.2345 70.6772 24.2345H60.8184C60.6906 24.2345 60.5698 24.2021 60.4629 24.1463C60.5814 23.8651 60.8579 23.6699 61.1808 23.6699H71.0397C71.1698 23.6698 71.2906 23.7 71.3975 23.7558Z" fill="#E28305"/>
<path opacity="0.3" d="M68.2021 23.6699H64.791V25.4614H68.2021V23.6699Z" fill="#EDE0D3"/>
<path d="M72.5081 26.2473V26.4797C72.5081 26.9095 72.1573 27.258 71.7274 27.258H61.8685C61.4387 27.258 61.0879 26.9094 61.0879 26.4797V26.2473C61.0879 26.138 61.1111 26.0359 61.1506 25.9429C61.2691 25.6617 61.5456 25.4666 61.8685 25.4666H71.7274C71.8575 25.4666 71.9783 25.4968 72.0852 25.5526C72.3362 25.6827 72.5081 25.9453 72.5081 26.2473Z" fill="#ED9B27"/>
<path d="M72.0831 25.5527C71.9646 25.8339 71.6858 26.0314 71.3628 26.0314H61.5039C61.3762 26.0314 61.2553 25.9988 61.1484 25.9431C61.2669 25.662 61.5435 25.4668 61.8664 25.4668H71.7252C71.8553 25.4667 71.9762 25.4969 72.0831 25.5527Z" fill="#E28305"/>
<path opacity="0.3" d="M68.8896 25.4666H65.4785V27.258H68.8896V25.4666Z" fill="#EDE0D3"/>
<path d="M73.6801 28.0385V28.2709C73.6801 28.7008 73.3292 29.0493 72.8993 29.0493H63.0405C62.6106 29.0493 62.2598 28.7008 62.2598 28.2709V28.0385C62.2598 27.9293 62.283 27.8272 62.3226 27.7341C62.4411 27.453 62.7176 27.2578 63.0405 27.2578H72.8993C73.0295 27.2578 73.1503 27.288 73.2572 27.3438C73.5082 27.4739 73.6801 27.7364 73.6801 28.0385Z" fill="#ED9B27"/>
<path d="M73.2588 27.3437C73.1403 27.6249 72.8614 27.8224 72.5385 27.8224H62.6797C62.5519 27.8224 62.4311 27.7899 62.3242 27.7342C62.4427 27.453 62.7193 27.2578 63.0422 27.2578H72.901C73.031 27.2577 73.1519 27.2879 73.2588 27.3437Z" fill="#E28305"/>
<path opacity="0.3" d="M70.0615 27.2578H66.6504V29.0493H70.0615V27.2578Z" fill="#EDE0D3"/>
<path d="M73.4477 29.8352V30.0675C73.4477 30.4974 73.0968 30.8459 72.6669 30.8459H62.8081C62.3782 30.8459 62.0273 30.4973 62.0273 30.0675V29.8352C62.0273 29.7259 62.0506 29.6238 62.09 29.5308C62.2085 29.2496 62.4851 29.0544 62.8081 29.0544H72.6669C72.797 29.0544 72.9179 29.0847 73.0248 29.1405C73.2757 29.2706 73.4477 29.5331 73.4477 29.8352Z" fill="#ED9B27"/>
<path d="M73.0245 29.1405C72.906 29.4215 72.6272 29.6191 72.3042 29.6191H62.4453C62.3175 29.6191 62.1967 29.5866 62.0898 29.5308C62.2083 29.2496 62.4849 29.0544 62.8079 29.0544H72.6667C72.7967 29.0545 72.9176 29.0848 73.0245 29.1405Z" fill="#E28305"/>
<path opacity="0.3" d="M69.8291 29.0544H66.418V30.8459H69.8291V29.0544Z" fill="#EDE0D3"/>
<path d="M73.6801 31.6264V31.8588C73.6801 32.2887 73.3292 32.6372 72.8993 32.6372H63.0405C62.6106 32.6372 62.2598 32.2886 62.2598 31.8588V31.6264C62.2598 31.5172 62.283 31.415 62.3226 31.322C62.4411 31.0409 62.7176 30.8457 63.0405 30.8457H72.8993C73.0295 30.8457 73.1503 30.8759 73.2572 30.9316C73.5082 31.0618 73.6801 31.3244 73.6801 31.6264Z" fill="#ED9B27"/>
<path d="M73.2588 30.9319C73.1403 31.213 72.8614 31.4106 72.5385 31.4106H62.6797C62.5519 31.4106 62.4311 31.3781 62.3242 31.3223C62.4427 31.0411 62.7193 30.8459 63.0422 30.8459H72.901C73.031 30.8459 73.1519 30.8762 73.2588 30.9319Z" fill="#E28305"/>
<path opacity="0.3" d="M70.0615 30.8457H66.6504V32.6372H70.0615V30.8457Z" fill="#EDE0D3"/>
<path d="M61.8516 26.236C61.8516 26.236 64.8939 27.7347 68.2409 26.2328C71.5879 24.731 74.8025 24.6016 74.8025 24.6016L75.4193 31.6688C75.4193 31.6688 71.1255 31.506 68.9797 32.2308C65.4135 33.4355 62.3963 32.4776 62.3963 32.4776L61.8516 26.236Z" fill="#ED9B27"/>
<path d="M74.5351 25.5804L74.9908 30.8014C74.9588 30.7971 74.9304 30.7961 74.8988 30.7989C74.6572 30.8199 74.4747 31.0335 74.4962 31.2786C74.4968 31.2856 74.4977 31.2961 74.5018 31.3029C73.7572 31.3008 72.6614 31.3189 71.5724 31.4139C70.4378 31.513 69.5277 31.6771 68.8695 31.8969C68.0299 32.1818 67.1496 32.3646 66.2496 32.4431C64.7964 32.5699 63.6096 32.3948 62.9841 32.2623C62.9867 32.2515 62.9857 32.241 62.9848 32.2306C62.9707 32.0694 62.8538 31.9421 62.6998 31.9167L62.2891 27.2104C62.4642 27.1951 62.5967 27.0565 62.6068 26.8897C63.3494 27.1107 64.4841 27.3364 65.8148 27.2202C66.7077 27.1423 67.5703 26.9187 68.3853 26.5547C70.6329 25.5435 72.8088 25.1665 73.9823 25.0288C73.9659 25.0832 73.96 25.1366 73.9652 25.1961C73.9866 25.4412 74.2033 25.6199 74.4449 25.5989C74.4765 25.596 74.5042 25.59 74.5351 25.5804Z" fill="#E28305"/>
<path d="M65.9542 29.7091C65.978 29.9824 65.7759 30.2232 65.5027 30.247C65.2295 30.2708 64.9886 30.0687 64.9648 29.7955C64.941 29.5223 65.1431 29.2815 65.4164 29.2576C65.6895 29.2338 65.9303 29.4359 65.9542 29.7091ZM71.9526 28.6324C71.9791 28.9357 71.7546 29.2029 71.4515 29.2294C71.1482 29.2559 70.881 29.0315 70.8545 28.7283C70.828 28.425 71.0523 28.1578 71.3556 28.1313C71.6589 28.1048 71.9262 28.3291 71.9526 28.6324Z" fill="#ED9B27"/>
<path d="M67.2633 29.6249C66.2177 32.4066 63.0322 34.1805 60.1487 33.5868C59.8941 33.5344 59.6506 33.4656 59.4193 33.3807C58.4204 33.0184 57.6372 32.3726 57.1324 31.5596C57.0427 31.4158 56.9628 31.2667 56.8907 31.1127C56.776 30.8664 56.6847 30.6077 56.6181 30.3401C56.3969 29.4542 56.4476 28.467 56.8204 27.4747C57.7204 25.0802 60.2062 23.4328 62.7199 23.3986C63.0203 23.3951 63.3208 23.4137 63.6192 23.4578C63.7248 23.4729 63.8298 23.4912 63.9349 23.5128C64.0113 23.5285 64.0862 23.546 64.1598 23.5651C65.2169 23.8294 66.0728 24.3901 66.6657 25.136C67.6077 26.3176 67.8878 27.9634 67.2633 29.6249Z" fill="#ED9B27"/>
<path opacity="0.76" d="M68.3002 29.1846C67.2546 31.9664 64.0691 33.7403 61.1857 33.1466C60.9312 33.0942 60.6876 33.0253 60.4563 32.9405C59.4575 32.5782 58.6743 31.9324 58.1696 31.1194C58.0798 30.9756 57.9998 30.8265 57.9278 30.6724C57.8132 30.4262 57.7218 30.1675 57.6552 29.8998C57.434 29.014 57.4846 28.0266 57.8576 27.0344C58.7575 24.6399 61.2434 22.9925 63.757 22.9582C64.0574 22.9547 64.3578 22.9733 64.6563 23.0174C64.7619 23.0325 64.8669 23.0507 64.972 23.0724C65.0484 23.0881 65.1233 23.1054 65.1969 23.1247C66.2541 23.389 67.11 23.9497 67.7027 24.6956C68.6446 25.8772 68.9246 27.5231 68.3002 29.1846Z" fill="#E5B093"/>
<path d="M67.0483 29.2615C66.0027 32.0431 62.8172 33.8171 59.9337 33.2234C59.6791 33.171 59.4356 33.1021 59.2042 33.0173C58.2054 32.655 57.4222 32.0092 56.9174 31.1962C56.8277 31.0524 56.7478 30.9033 56.6758 30.7492C56.5611 30.503 56.4698 30.2442 56.4032 29.9766C56.1821 29.0908 56.2327 28.1035 56.6055 27.1112C57.5055 24.7167 59.9913 23.0693 62.505 23.0351C62.8054 23.0316 63.1058 23.0502 63.4043 23.0943C63.5099 23.1094 63.6149 23.1276 63.72 23.1493C63.7964 23.165 63.8713 23.1823 63.945 23.2016C65.0021 23.4659 65.858 24.0266 66.4508 24.7725C67.3926 25.954 67.6727 27.5999 67.0483 29.2615Z" fill="#E28305"/>
<path d="M64.1213 32.0649C66.6288 30.583 67.6351 27.645 66.369 25.5026C65.1029 23.3602 62.0438 22.8247 59.5363 24.3066C57.0288 25.7885 56.0225 28.7265 57.2886 30.8689C58.5547 33.0113 61.6138 33.5467 64.1213 32.0649Z" fill="#ED9B27"/>
<path d="M66.3169 29.1102C65.418 31.5016 62.6799 33.0264 60.201 32.516C57.7221 32.0056 56.4412 29.6532 57.34 27.2619C58.2388 24.8704 60.977 23.3456 63.4559 23.856C65.9349 24.3664 67.2157 26.7188 66.3169 29.1102Z" fill="#E28305"/>
<path opacity="0.25" d="M63.4054 23.0943L63.0526 23.4961L62.8126 23.7693L57.2707 30.0737L57.0304 30.3475L56.6769 30.7492C56.5623 30.503 56.4709 30.2442 56.4043 29.9766L56.7988 29.528L57.075 29.2144L61.8348 23.7993L62.1112 23.4849L62.5062 23.0351C62.8065 23.0316 63.1069 23.0501 63.4054 23.0943ZM66.4519 24.7725L66.1263 25.1427L65.9088 25.3904L63.9307 27.6409L63.3702 28.2793L63.1208 28.5625L61.5263 30.3768L61.3042 30.6296L61.0063 30.9681L59.7486 32.3993L59.5311 32.6471L59.2054 33.0173C58.2066 32.655 57.4234 32.0092 56.9186 31.1962L57.2553 30.813L57.4821 30.5551L60.9349 26.6276L61.4608 26.0295L63.3835 23.8422L63.6103 23.5843L63.9461 23.2017C65.0032 23.4659 65.8591 24.0267 66.4519 24.7725Z" fill="#EDE0D3"/>
<defs>
<radialGradient id="paint0_radial_5907:19146" cx="0" cy="0" r="1" gradientUnits="userSpaceOnUse" gradientTransform="translate(1.87504 21.3432) scale(77.8372)">
<stop stop-color="white"/>
<stop offset="1" stop-color="#F8CCB1"/>
</radialGradient>
<radialGradient id="paint1_radial_5907:19146" cx="0" cy="0" r="1" gradientUnits="userSpaceOnUse" gradientTransform="translate(1.87681 21.343) scale(77.8371)">
<stop stop-color="white"/>
<stop offset="1" stop-color="#F8CCB1"/>
</radialGradient>
<radialGradient id="paint2_radial_5907:19146" cx="0" cy="0" r="1" gradientUnits="userSpaceOnUse" gradientTransform="translate(1.87452 21.343) scale(77.8371)">
<stop stop-color="white"/>
<stop offset="1" stop-color="#F8CCB1"/>
</radialGradient>
<radialGradient id="paint3_radial_5907:19146" cx="0" cy="0" r="1" gradientUnits="userSpaceOnUse" gradientTransform="translate(3.28394 51.2489) scale(33.8112)">
<stop stop-color="#E5B093"/>
<stop offset="1" stop-color="#F8CCB1"/>
</radialGradient>
</defs>
<svg width="25" height="31" viewBox="0 0 25 31" fill="none" xmlns="http://www.w3.org/2000/svg">
<path d="M7.0732 23.6823C5.37936 22.345 4.05702 20.6308 3.22294 18.691C2.28606 16.5544 2.0745 14.2624 2.37986 11.8129L2.38362 11.7829L2.79291 7.90885C4.94891 7.77148 9.31107 6.98037 11.8256 2.99902H12.5035C14.6452 7.10623 19.6329 7.82016 21.9532 7.92153L22.3621 11.8149L22.3659 11.845C22.6687 14.2867 22.4596 16.4402 21.5301 18.5715C20.6987 20.5058 19.3834 22.2168 17.6989 23.5553L12.4038 27.7439L7.0732 23.6823Z" fill="#E28305"/>
<path d="M12.4078 30.7436L5.98059 25.5907C3.83751 23.8725 2.14299 21.7162 1.20907 19.5188C0.142229 17.0087 -0.228648 14.0864 0.136458 11.0677L0.693218 5.27863L0.88613 5.29752C0.954029 5.30381 7.79748 5.90224 10.6666 0.106613L10.7194 0H13.7192L13.764 0.127714C15.7974 5.92741 23.7793 5.30393 23.8602 5.29727L24.051 5.28073L24.6102 11.1075C24.9714 14.1123 24.6025 17.0255 23.5427 19.5277C22.6152 21.7177 20.9294 23.8714 18.7957 25.5922L12.4078 30.7436ZM1.04113 5.68841L0.519764 11.108C0.16206 14.0664 0.523659 16.9227 1.56477 19.3727C2.47471 21.5136 4.12943 23.6175 6.22432 25.297L12.4071 30.254L18.5512 25.299C20.6368 23.617 22.2831 21.5157 23.1868 19.3821C24.2211 16.9397 24.5808 14.0923 24.2269 11.1474L23.7028 5.6873C22.2797 5.74887 20.855 5.60971 19.4721 5.27407C16.4351 4.52054 14.3545 2.82953 13.4456 0.379046H10.9597C9.38982 3.45843 6.7457 4.73647 4.79314 5.26594C3.57246 5.59787 2.30654 5.74041 1.04113 5.68841Z" fill="#2D4574"/>
<path d="M12.7472 22.4949C12.6623 22.4949 12.5778 22.4935 12.4935 22.4906L12.5066 22.1053C12.6714 22.1109 12.8381 22.1107 13.0029 22.1048L13.0167 22.4901C12.9272 22.4934 12.8374 22.495 12.7472 22.4949ZM11.972 22.4552C11.8 22.4375 11.6257 22.4136 11.4539 22.3837L11.5199 22.0039C11.6828 22.0321 11.8482 22.0549 12.0114 22.0716L11.972 22.4552ZM13.5382 22.4535L13.4983 22.0699C13.6609 22.0529 13.8261 22.0298 13.9893 22.0011L14.0561 22.3809C13.884 22.4112 13.7097 22.4355 13.5382 22.4535ZM10.942 22.2761C10.7732 22.2345 10.6039 22.1863 10.4387 22.1329L10.5572 21.7659C10.714 21.8166 10.8745 21.8623 11.0344 21.9018L10.942 22.2761ZM14.5679 22.2721L14.4745 21.898C14.6344 21.8581 14.7948 21.812 14.9514 21.7611L15.0706 22.1279C14.9056 22.1816 14.7364 22.2301 14.5679 22.2721ZM9.94616 21.9541C9.78502 21.8891 9.62401 21.8176 9.46751 21.7414L9.63644 21.3947C9.78478 21.467 9.93738 21.5349 10.0902 21.5964L9.94616 21.9541ZM15.5621 21.9482L15.4174 21.5908C15.5695 21.5292 15.7218 21.4612 15.8699 21.3887L16.0393 21.7351C15.8831 21.8115 15.7226 21.8832 15.5621 21.9482ZM9.00519 21.4956C8.85383 21.4082 8.70449 21.315 8.56117 21.2182L8.77703 20.8986C8.91269 20.9902 9.05438 21.0787 9.19795 21.1617L9.00519 21.4956ZM16.5007 21.4891L16.3074 21.1554C16.4498 21.073 16.5911 20.9843 16.7276 20.8921L16.9437 21.2114C16.7997 21.3088 16.6508 21.4022 16.5007 21.4891ZM8.13775 20.9108C8.0002 20.8033 7.86541 20.6904 7.73678 20.5747L7.99455 20.288C8.11653 20.3976 8.24454 20.5048 8.37494 20.6068L8.13775 20.9108ZM17.3661 20.9034L17.1287 20.5996C17.2578 20.4986 17.3856 20.3911 17.5084 20.2804L17.7664 20.5668C17.6371 20.6836 17.5024 20.7968 17.3661 20.9034ZM7.36003 20.2118C7.23918 20.0871 7.12121 19.9564 7.00939 19.8236L7.30431 19.5753C7.41035 19.7013 7.52217 19.8251 7.63688 19.9435L7.36003 20.2118ZM18.1427 20.2032L17.8653 19.9353C17.9798 19.8168 18.0916 19.6927 18.1974 19.5665L18.4928 19.8143C18.3811 19.9475 18.2633 20.0783 18.1427 20.2032ZM6.68648 19.412C6.58433 19.2719 6.48556 19.1263 6.3932 18.9791L6.71949 18.7739C6.80733 18.9135 6.90095 19.0517 6.99797 19.1845L6.68648 19.412ZM18.8152 19.4019L18.5032 19.1753C18.6005 19.0414 18.694 18.903 18.7812 18.7636L19.108 18.9683C19.0162 19.115 18.9176 19.261 18.8152 19.4019ZM6.13052 18.5269C6.04907 18.3745 5.97165 18.2166 5.90049 18.0578L6.25213 17.8999C6.31978 18.0508 6.39331 18.2005 6.47063 18.3452L6.13052 18.5269ZM19.3702 18.5149L19.0298 18.3336C19.1074 18.188 19.1807 18.0379 19.2477 17.8873L19.5998 18.0443C19.5292 18.2029 19.4519 18.3613 19.3702 18.5149ZM5.70371 17.5735C5.64385 17.4101 5.58913 17.2428 5.54119 17.0761L5.91166 16.9694C5.95709 17.1273 6.00892 17.286 6.06564 17.441L5.70371 17.5735ZM19.796 17.5586L19.4336 17.4268C19.4898 17.2723 19.5414 17.1133 19.5867 16.9547L19.9574 17.0609C19.9094 17.2281 19.8552 17.3955 19.796 17.5586ZM5.41406 16.5684C5.37766 16.3978 5.34692 16.2246 5.32283 16.0534L5.70459 15.9994C5.72743 16.1619 5.75655 16.3262 5.79105 16.4879L5.41406 16.5684ZM20.0835 16.553L19.7063 16.4734C19.7403 16.3122 19.769 16.1477 19.7919 15.9845L20.1736 16.0377C20.1497 16.2098 20.1194 16.3832 20.0835 16.553ZM5.26774 15.5331C5.25544 15.3593 5.24904 15.1834 5.24878 15.0102L5.63431 15.0097C5.63457 15.174 5.64058 15.3409 5.65225 15.5057L5.26774 15.5331ZM20.2277 15.517L19.8432 15.4907C19.8544 15.3264 19.8601 15.1595 19.8601 14.9946V14.964H20.2456V14.9946C20.2456 15.1683 20.2396 15.3441 20.2277 15.517ZM5.65025 14.5135L5.26547 14.4876C5.27714 14.3139 5.29497 14.1388 5.3183 13.9673L5.70032 14.0195C5.67811 14.1822 5.6613 14.3484 5.65025 14.5135ZM19.8409 14.4685C19.829 14.3042 19.8111 14.1383 19.7877 13.9751L20.1692 13.9203C20.1939 14.0923 20.2128 14.2673 20.2254 14.4404L19.8409 14.4685ZM5.78491 13.5307L5.40741 13.4519C5.44292 13.2818 5.48497 13.1108 5.5324 12.9436L5.90337 13.0491C5.85833 13.2075 5.81854 13.3695 5.78491 13.5307ZM19.7002 13.4866C19.6653 13.3251 19.6244 13.1633 19.5786 13.0056L19.9489 12.8979C19.9972 13.0643 20.0403 13.235 20.077 13.4053L19.7002 13.4866ZM6.0556 12.5765L5.69292 12.4454C5.7519 12.2822 5.81767 12.1185 5.88832 11.9591L6.24071 12.1155C6.1737 12.2665 6.11145 12.4217 6.0556 12.5765ZM19.4234 12.5344C19.3663 12.3796 19.3033 12.2254 19.2359 12.0757L19.5873 11.9173C19.6585 12.0751 19.725 12.2379 19.7851 12.4011L19.4234 12.5344ZM6.45757 11.6685L6.11698 11.488C6.19867 11.3338 6.28652 11.181 6.37814 11.0341L6.70518 11.2382C6.61846 11.3774 6.53514 11.5222 6.45757 11.6685ZM19.0167 11.6309C18.9386 11.4855 18.8545 11.3414 18.7668 11.2026L19.0928 10.9967C19.1852 11.1431 19.2738 11.2951 19.3562 11.4484L19.0167 11.6309ZM6.98229 10.826L6.67005 10.5998C6.77157 10.4595 6.87975 10.3206 6.99157 10.1869L7.28724 10.4342C7.1812 10.5611 7.07867 10.6929 6.98229 10.826ZM18.4876 10.7926C18.3899 10.6594 18.2866 10.5283 18.1805 10.4027L18.4749 10.1537C18.5867 10.286 18.6956 10.4242 18.7985 10.5647L18.4876 10.7926ZM7.61868 10.0646L7.34083 9.79743C7.46081 9.67254 7.58706 9.5499 7.71607 9.43303L7.97485 9.71898C7.85236 9.82982 7.73263 9.94619 7.61868 10.0646ZM17.8471 10.0351C17.7324 9.91706 17.612 9.80145 17.489 9.69136L17.746 9.40391C17.8757 9.52002 18.0028 9.64191 18.1235 9.76618L17.8471 10.0351ZM8.35411 9.39851L8.11566 9.09549C8.25233 8.98792 8.39438 8.88411 8.53771 8.7867L8.75431 9.10553C8.6184 9.19804 8.48375 9.29658 8.35411 9.39851ZM17.1076 9.37316C16.9774 9.27197 16.8422 9.17407 16.7054 9.08219L16.9202 8.76209C17.0644 8.85888 17.2071 8.96205 17.3443 9.06863L17.1076 9.37316ZM9.17397 8.84142L8.9802 8.50803C9.13005 8.42091 9.28492 8.33769 9.44066 8.26099L9.61108 8.60694C9.46325 8.67974 9.31617 8.75858 9.17397 8.84142ZM16.2836 8.82008C16.1397 8.73761 15.992 8.65954 15.8444 8.58799L16.0126 8.24103C16.1681 8.31635 16.3238 8.39869 16.4753 8.48569L16.2836 8.82008ZM10.0631 8.40372L9.91756 8.04672C10.0782 7.98107 10.2435 7.92044 10.4087 7.86621L10.5287 8.23275C10.3721 8.28409 10.2155 8.34158 10.0631 8.40372ZM15.3904 8.38702C15.2367 8.32563 15.0793 8.26902 14.9229 8.21882L15.0406 7.85153C15.2057 7.9045 15.3714 7.96424 15.5335 8.02902L15.3904 8.38702ZM11.0054 8.09479L10.9112 7.72097C11.0803 7.6783 11.2523 7.64139 11.4228 7.61114L11.4903 7.99074C11.3288 8.01948 11.1656 8.0545 11.0054 8.09479ZM14.4454 8.08388C14.2861 8.04471 14.1227 8.01082 13.9598 7.98282L14.0251 7.60273C14.1969 7.63223 14.3692 7.66813 14.5373 7.7093L14.4454 8.08388ZM11.9815 7.92057L11.9406 7.5372C12.1138 7.51863 12.2893 7.50608 12.4623 7.49968L12.4763 7.88504C12.3123 7.89107 12.1459 7.903 11.9815 7.92057ZM13.4681 7.91591C13.3049 7.89947 13.1383 7.88855 12.973 7.88341L12.9848 7.49805C13.159 7.50332 13.3346 7.51486 13.5068 7.53232L13.4681 7.91591Z" fill="#2D4574"/>
<path d="M11.3256 14.1197V15.4694C11.5596 15.4694 11.8025 15.4784 12.0545 15.4964C12.3154 15.5054 12.5539 15.5549 12.7698 15.6449C12.9858 15.7259 13.1613 15.8609 13.2962 16.0498C13.4402 16.2388 13.5122 16.5132 13.5122 16.8731C13.5122 17.3321 13.3637 17.6965 13.0668 17.9664C12.7698 18.2274 12.4054 18.3578 11.9735 18.3578C11.6946 18.3578 11.4516 18.3083 11.2447 18.2094C11.0467 18.1104 10.8802 17.9799 10.7453 17.8179C10.6103 17.647 10.5068 17.449 10.4348 17.2241C10.3628 16.9901 10.3224 16.7472 10.3134 16.4952H8.49124C8.48224 17.0441 8.55873 17.53 8.72069 17.9529C8.89166 18.3758 9.13011 18.7358 9.43604 19.0327C9.74198 19.3206 10.1109 19.5411 10.5428 19.6941C10.9837 19.847 11.4696 19.9235 12.0005 19.9235C12.4594 19.9235 12.9003 19.856 13.3232 19.7211C13.7461 19.5861 14.1196 19.3881 14.4435 19.1272C14.7674 18.8662 15.0239 18.5423 15.2128 18.1554C15.4108 17.7685 15.5098 17.3276 15.5098 16.8327C15.5098 16.2928 15.3613 15.8294 15.0644 15.4424C14.7674 15.0555 14.358 14.8036 13.8361 14.6866V14.6596C14.277 14.5336 14.6055 14.2952 14.8214 13.9443C15.0464 13.5933 15.1588 13.1884 15.1588 12.7295C15.1588 12.3066 15.0644 11.9332 14.8754 11.6092C14.6864 11.2853 14.439 11.0109 14.1331 10.7859C13.8361 10.561 13.4987 10.3945 13.1208 10.2865C12.7429 10.1695 12.3649 10.1111 11.987 10.1111C11.5011 10.1111 11.0602 10.192 10.6643 10.354C10.2684 10.507 9.92644 10.7274 9.6385 11.0154C9.35956 11.3033 9.13911 11.6497 8.97714 12.0547C8.82417 12.4506 8.73869 12.8915 8.72069 13.3774H10.5428C10.5338 12.8915 10.6508 12.4911 10.8937 12.1761C11.1457 11.8522 11.5146 11.6902 12.0005 11.6902C12.3514 11.6902 12.6619 11.7982 12.9318 12.0142C13.2018 12.2301 13.3367 12.5406 13.3367 12.9455C13.3367 13.2154 13.2692 13.4314 13.1343 13.5933C13.0083 13.7553 12.8418 13.8813 12.6349 13.9713C12.4369 14.0522 12.221 14.1017 11.987 14.1197C11.7531 14.1377 11.5326 14.1377 11.3256 14.1197Z" fill="white"/>
</svg>

</svg>
