<svg width="93" height="93" viewBox="0 0 93 93" fill="none" xmlns="http://www.w3.org/2000/svg">
<circle cx="46.6663" cy="46.3914" r="45.7716" fill="white" stroke="#EFD2BE" stroke-width="0.953575"/>
<g opacity="0.75">
<path opacity="0.75" d="M33.8926 65.6633H44.9261C44.9261 65.6633 47.6071 64.4903 46.4729 60.1594C45.3386 55.8286 44.1012 53.4569 48.1228 52.3225C52.1443 51.1882 56.8877 47.5791 52.4536 48.3009C48.0197 49.0227 46.242 51.7238 45.1323 49.5384C44.0019 47.3125 49.1895 41.6176 45.4416 42.0108C41.625 42.4113 38.2235 46.9605 40.0796 48.9196C41.9357 50.8789 38.8421 51.3944 37.811 48.6103C36.7798 45.8261 35.4393 42.0108 34.6144 45.723C33.7895 49.4352 36.883 51.4975 37.2954 54.6941C37.7079 57.8908 33.8926 65.6633 33.8926 65.6633Z" fill="#CDE0FF"/>
<path opacity="0.75" d="M39.0939 64.9617H46.0789C46.0789 64.9617 48.2353 60.0938 45.3178 57.6836C42.4003 55.2735 39.7183 56.7225 37.5619 55.3271C35.4054 53.9318 37.2159 51.3992 36.8547 50.1416C36.6152 49.3077 34.4088 48.2968 33.6477 51.4679C32.8866 54.6392 32.2523 52.229 31.2375 50.0726C30.2227 47.9161 25.1487 49.692 28.1932 51.9753C31.2375 54.2585 34.9161 55.527 32.2523 55.9076C29.5884 56.2882 25.2756 57.5566 28.4468 58.4446C31.618 59.3326 35.6552 58.9547 34.4087 60.6011C33.6726 61.5732 28.5736 60.6011 30.4763 62.7575C32.3791 64.9141 39.0939 64.9617 39.0939 64.9617ZM70.8089 64.9617H63.8239C63.8239 64.9617 61.6675 60.0938 64.585 57.6836C67.5026 55.2735 70.1845 56.7225 72.341 55.3271C74.4974 53.9318 72.6869 51.3992 73.0481 50.1416C73.2875 49.3077 75.4941 48.2968 76.2551 51.4679C77.0162 54.6392 77.6505 52.229 78.6653 50.0726C79.6801 47.9161 84.7541 49.692 81.7097 51.9753C78.6653 54.2585 74.9867 55.527 77.6505 55.9076C80.3143 56.2882 84.6272 57.5566 81.456 58.4446C78.2848 59.3326 74.2476 58.9547 75.4942 60.6011C76.2302 61.5732 81.3292 60.6011 79.4265 62.7575C77.5237 64.9141 70.8089 64.9617 70.8089 64.9617Z" fill="#D1DAE8"/>
<path opacity="0.75" d="M43.9407 65.488C43.9407 65.488 45.7166 62.6497 46.224 60.1127C46.7313 57.5757 44.7018 56.0535 43.3065 57.5757C41.9111 59.0979 40.7695 56.3072 41.2769 53.8971C41.7843 51.487 41.0232 47.6815 39.501 49.5842C37.9788 51.4869 39.7547 54.5313 35.5687 53.5165C31.3827 52.5017 29.0993 56.8146 33.2854 56.9414C37.4714 57.0682 37.0908 58.8441 35.3149 60.3663C33.539 61.8885 34.6807 64.2986 37.0908 64.2986C39.501 64.2986 39.5644 65.4879 39.5644 65.4879H43.9407V65.488Z" fill="#E3EDFD"/>
</g>
<path d="M46.2791 69.1195C45.9543 69.1155 45.6343 69.0539 45.328 68.9365C44.2152 68.5271 43.4654 67.4464 43.4668 66.249L43.4672 65.8882L43.4732 65.8883L43.4928 46.1553L43.5307 18.5768L43.5252 18.2628C43.5247 17.4968 43.8234 16.7773 44.3664 16.237C44.9081 15.6978 45.6287 15.4007 46.3952 15.4001L71.5346 15.4284C73.1043 15.4475 74.3763 16.7357 74.3706 18.2998L74.3147 66.0837L74.3117 66.3257C74.2926 67.8841 73.0053 69.1527 71.4421 69.154L46.2791 69.1195Z" fill="#E5B093"/>
<path d="M73.9566 66.083L73.9536 66.3211C73.9368 67.6903 72.8158 68.7959 71.4405 68.7969L71.4048 68.7965L46.3278 68.7629C46.0241 68.7652 45.7271 68.708 45.4545 68.6034C44.5002 68.2524 43.8209 67.3272 43.8223 66.2496L43.8282 66.2497L43.8483 46.1558L43.8866 18.2627L43.8806 18.2626C43.8798 16.8753 45.0069 15.7579 46.394 15.7571L71.5068 15.7851C72.894 15.7902 74.0174 16.9114 74.0123 18.2986L73.9566 66.083Z" fill="#F8CCB1"/>
<path d="M72.506 19.5858L72.451 64.9931C72.4502 65.6354 71.9276 66.1551 71.287 66.1543L46.4952 66.1243C45.8528 66.1235 45.3333 65.6026 45.334 64.9602L45.3891 19.5528C45.3898 18.9105 45.9106 18.3908 46.5531 18.3916L71.3449 18.4217C71.9854 18.4225 72.5068 18.9434 72.506 19.5858Z" fill="url(#paint0_radial_5907:19254)"/>
<path opacity="0.3" d="M71.2882 66.1535L46.4972 66.1238C45.8541 66.1239 45.3343 65.6026 45.3359 64.96L45.354 50.4851C45.3557 49.0032 46.5586 47.8031 48.0406 47.8047L69.7884 47.8287C71.2705 47.8303 72.4707 49.0333 72.469 50.5156L72.452 64.992C72.452 65.6353 71.929 66.1546 71.2882 66.1535Z" fill="white"/>
<path opacity="0.3" d="M49.0368 66.1366L49.4044 18.4976L46.3714 18.5311L46.0039 66.1702L49.0368 66.1366Z" fill="url(#paint1_linear_5907:19254)"/>
<path opacity="0.3" d="M68.5337 18.5311L68.166 66.1702L71.199 66.1366L71.5666 18.4976L68.5337 18.5311Z" fill="url(#paint2_linear_5907:19254)"/>
<path d="M54.3686 61.4667L49.4565 61.5181C49.1595 61.5176 48.9185 61.7578 48.918 62.0547C48.9175 62.3516 49.1576 62.5927 49.4546 62.5933L54.3667 62.542C54.6637 62.5425 54.9048 62.3023 54.9053 62.0054C54.9057 61.7083 54.6654 61.4672 54.3686 61.4667ZM68.7499 61.4667L63.8377 61.5181C63.5408 61.5176 63.2997 61.7578 63.2992 62.0547C63.2987 62.3516 63.5388 62.5927 63.8358 62.5933L68.7479 62.542C69.0448 62.5425 69.2859 62.3023 69.2864 62.0054C69.287 61.7083 69.0467 61.4672 68.7499 61.4667ZM68.7466 58.0137L49.4534 58.0945C49.1564 58.0957 48.9168 58.3373 48.9181 58.6342C48.9193 58.9312 49.1609 59.1708 49.458 59.1696L68.7513 59.0889C69.0482 59.0876 69.2878 58.846 69.2866 58.5491C69.2853 58.2522 69.0436 58.0125 68.7466 58.0137ZM68.7466 55.6048L49.4534 55.6855C49.1564 55.6868 48.9168 55.9284 48.9181 56.2253C48.9193 56.5222 49.1609 56.7619 49.458 56.7607L68.7513 56.6799C69.0482 56.6787 69.2878 56.4371 69.2866 56.1401C69.2853 55.8432 69.0436 55.6035 68.7466 55.6048ZM68.7466 53.1958L49.4534 53.2766C49.1564 53.2778 48.9168 53.5194 48.9181 53.8164C48.9193 54.1133 49.1609 54.353 49.458 54.3517L68.7513 54.271C69.0482 54.2697 69.2878 54.0281 69.2866 53.7312C69.2853 53.4343 69.0436 53.1946 68.7466 53.1958ZM65.7052 49.5113C65.7052 49.8497 65.4308 50.1242 65.0923 50.1242C64.7539 50.1242 64.4794 49.8498 64.4794 49.5113C64.4794 49.1728 64.7538 48.8984 65.0923 48.8984C65.4307 48.8984 65.7052 49.1728 65.7052 49.5113ZM67.5192 49.5113C67.5192 49.8497 67.2449 50.1242 66.9064 50.1242C66.5679 50.1242 66.2935 49.8498 66.2935 49.5113C66.2935 49.1728 66.5678 48.8984 66.9064 48.8984C67.2449 48.8984 67.5192 49.1728 67.5192 49.5113ZM69.3333 49.5113C69.3333 49.8497 69.0589 50.1242 68.7204 50.1242C68.3819 50.1242 68.1075 49.8498 68.1075 49.5113C68.1075 49.1728 68.3819 48.8984 68.7204 48.8984C69.0589 48.8984 69.3333 49.1728 69.3333 49.5113Z" fill="#E5B093"/>
<path d="M36.8054 54.1649V54.5275C36.8054 55.1984 36.2578 55.7423 35.5869 55.7423H20.2008C19.53 55.7423 18.9824 55.1984 18.9824 54.5275V54.1649C18.9824 53.9945 19.0187 53.8349 19.0803 53.6899C19.2653 53.2512 19.6968 52.9465 20.2008 52.9465H35.5869C35.7899 52.9465 35.9785 52.9936 36.1453 53.0806C36.537 53.2838 36.8054 53.6936 36.8054 54.1649Z" fill="#ED9B27"/>
<path d="M36.1431 53.0806C35.9582 53.5195 35.523 53.8277 35.019 53.8277H19.633C19.4335 53.8277 19.245 53.7769 19.0781 53.6899C19.2631 53.2512 19.6946 52.9465 20.1986 52.9465H35.5847C35.7877 52.9464 35.9764 52.9935 36.1431 53.0806Z" fill="#E28305"/>
<path opacity="0.3" d="M31.1555 52.9465H25.832V55.7424H31.1555V52.9465Z" fill="#EDE0D3"/>
<path d="M33.5572 56.9606V57.3231C33.5572 57.994 33.0096 58.5379 32.3387 58.5379H16.9527C16.282 58.5379 15.7344 57.9939 15.7344 57.3231V56.9606C15.7344 56.7901 15.7706 56.6306 15.8323 56.4855C16.0171 56.0468 16.4487 55.7422 16.9527 55.7422H32.3388C32.542 55.7422 32.7306 55.7894 32.8973 55.8764C33.2889 56.0794 33.5572 56.4892 33.5572 56.9606Z" fill="#ED9B27"/>
<path d="M32.8971 55.8763C32.7122 56.315 32.2769 56.6233 31.773 56.6233H16.3869C16.1874 56.6233 15.9989 56.5725 15.832 56.4855C16.0169 56.0468 16.4485 55.7422 16.9525 55.7422H32.3386C32.5418 55.7421 32.7303 55.7892 32.8971 55.8763Z" fill="#E28305"/>
<path opacity="0.3" d="M27.9094 55.7422H22.5859V58.538H27.9094V55.7422Z" fill="#EDE0D3"/>
<path d="M34.6276 59.7652V60.1278C34.6276 60.7987 34.08 61.3426 33.4091 61.3426H18.0231C17.3522 61.3426 16.8047 60.7987 16.8047 60.1278V59.7652C16.8047 59.5948 16.8409 59.4353 16.9026 59.2902C17.0875 58.8515 17.519 58.5469 18.0231 58.5469H33.4091C33.6122 58.5469 33.8008 58.594 33.9676 58.6811C34.3592 58.884 34.6276 59.2938 34.6276 59.7652Z" fill="#ED9B27"/>
<path d="M33.9674 58.6801C33.7825 59.1189 33.3474 59.427 32.8433 59.427H17.4572C17.2577 59.427 17.0692 59.3762 16.9023 59.2892C17.0872 58.8505 17.5188 58.5459 18.0228 58.5459H33.4089C33.6121 58.5459 33.8005 58.5931 33.9674 58.6801Z" fill="#E28305"/>
<path opacity="0.3" d="M28.9797 58.5459H23.6562V61.3417H28.9797V58.5459Z" fill="#EDE0D3"/>
<path d="M36.4577 62.5605V62.9231C36.4577 63.594 35.9101 64.1379 35.2392 64.1379H19.8531C19.1823 64.1379 18.6348 63.594 18.6348 62.9231V62.5605C18.6348 62.3901 18.6711 62.2306 18.7326 62.0855C18.9176 61.6468 19.3492 61.342 19.8531 61.342H35.2392C35.4423 61.342 35.6308 61.3892 35.7977 61.4762C36.1893 61.6793 36.4577 62.0891 36.4577 62.5605Z" fill="#ED9B27"/>
<path d="M35.7994 61.4762C35.6144 61.9151 35.1793 62.2233 34.6753 62.2233H19.2892C19.0898 62.2233 18.9012 62.1725 18.7344 62.0855C18.9194 61.6468 19.3509 61.342 19.8549 61.342H35.2409C35.444 61.342 35.6326 61.3892 35.7994 61.4762Z" fill="#E28305"/>
<path opacity="0.3" d="M30.8118 61.342H25.4883V64.1379H30.8118V61.342Z" fill="#EDE0D3"/>
<path d="M36.0963 65.3641V65.7267C36.0963 66.3976 35.5487 66.9415 34.8778 66.9415H19.4918C18.821 66.9415 18.2734 66.3975 18.2734 65.7267V65.3641C18.2734 65.1937 18.3098 65.0342 18.3713 64.8891C18.5563 64.4504 18.9878 64.1458 19.4918 64.1458H34.8779C35.0809 64.1458 35.2695 64.1928 35.4363 64.28C35.828 64.4829 36.0963 64.8927 36.0963 65.3641Z" fill="#ED9B27"/>
<path d="M35.4382 64.2799C35.2532 64.7186 34.8181 65.0269 34.3141 65.0269H18.9279C18.7285 65.0269 18.5399 64.9761 18.373 64.8891C18.558 64.4504 18.9896 64.1458 19.4935 64.1458H34.8796C35.0828 64.1458 35.2714 64.1928 35.4382 64.2799Z" fill="#E28305"/>
<path opacity="0.3" d="M30.4505 64.1458H25.127V66.9416H30.4505V64.1458Z" fill="#EDE0D3"/>
<path d="M36.4577 68.16V68.5226C36.4577 69.1935 35.9101 69.7374 35.2392 69.7374H19.8531C19.1823 69.7374 18.6348 69.1935 18.6348 68.5226V68.16C18.6348 67.9896 18.6711 67.8301 18.7326 67.685C18.9176 67.2463 19.3492 66.9417 19.8531 66.9417H35.2392C35.4423 66.9417 35.6308 66.9887 35.7977 67.0757C36.1893 67.2788 36.4577 67.6886 36.4577 68.16Z" fill="#ED9B27"/>
<path d="M35.7994 67.0757C35.6144 67.5146 35.1793 67.8228 34.6753 67.8228H19.2892C19.0898 67.8228 18.9012 67.772 18.7344 67.685C18.9194 67.2463 19.3509 66.9417 19.8549 66.9417H35.2409C35.444 66.9417 35.6326 66.9887 35.7994 67.0757Z" fill="#E28305"/>
<path opacity="0.3" d="M30.8118 66.9417H25.4883V69.7375H30.8118V66.9417Z" fill="#EDE0D3"/>
<path d="M25.346 65.5188C23.8819 69.4139 19.4215 71.8978 15.3839 71.0664C15.0275 70.9931 14.6864 70.8966 14.3625 70.7777C12.9639 70.2705 11.8672 69.3662 11.1605 68.2278C11.0349 68.0265 10.9228 67.8177 10.8221 67.6019C10.6614 67.2572 10.5335 66.8948 10.4403 66.5201C10.1307 65.2796 10.2016 63.8972 10.7237 62.5079C11.9839 59.155 15.4647 56.8481 18.9845 56.8001C19.4052 56.7953 19.8258 56.8213 20.2437 56.8831C20.3916 56.9043 20.5387 56.9298 20.6858 56.9602C20.7927 56.9821 20.8977 57.0066 21.0007 57.0334C22.481 57.4035 23.6794 58.1887 24.5096 59.2331C25.8282 60.8876 26.2205 63.1922 25.346 65.5188Z" fill="#ED9B27"/>
<path opacity="0.76" d="M26.7973 64.9024C25.3332 68.7975 20.8727 71.2815 16.835 70.4501C16.4786 70.3768 16.1376 70.2803 15.8137 70.1615C14.415 69.6542 13.3184 68.7499 12.6116 67.6116C12.486 67.4103 12.374 67.2015 12.2732 66.9857C12.1126 66.641 11.9847 66.2787 11.8915 65.9039C11.5819 64.6634 11.6526 63.2809 12.1749 61.8916C13.435 58.5388 16.9158 56.2319 20.4356 56.1839C20.8562 56.1791 21.2769 56.205 21.6948 56.2669C21.8425 56.288 21.9897 56.3136 22.1369 56.344C22.2438 56.366 22.3488 56.3903 22.4518 56.4172C23.9321 56.7873 25.1304 57.5725 25.9606 58.6169C27.2794 60.2713 27.6716 62.5759 26.7973 64.9024Z" fill="#E5B093"/>
<path d="M25.0454 65.0102C23.5813 68.9053 19.1208 71.3892 15.0831 70.5579C14.7267 70.4845 14.3857 70.3881 14.0618 70.2692C12.6631 69.7619 11.5664 68.8576 10.8597 67.7193C10.7341 67.518 10.6221 67.3092 10.5213 67.0934C10.3607 66.7487 10.2328 66.3864 10.1396 66.0116C9.82992 64.771 9.90071 63.3886 10.4229 61.9993C11.6831 58.6465 15.1639 56.3396 18.6837 56.2916C19.1043 56.2868 19.525 56.3127 19.943 56.3745C20.0907 56.3956 20.2379 56.4213 20.3851 56.4515C20.492 56.4736 20.597 56.4979 20.7 56.5248C22.1803 56.8949 23.3786 57.6802 24.2089 58.7245C25.5275 60.3791 25.9198 62.6837 25.0454 65.0102Z" fill="#E28305"/>
<path d="M24.4306 64.883C23.0898 68.4502 19.0052 70.7248 15.3075 69.9634C11.6097 69.202 9.69909 65.693 11.0398 62.1257C12.3805 58.5584 16.4651 56.2839 20.1628 57.0453C23.8607 57.8067 25.7714 61.3157 24.4306 64.883Z" fill="#ED9B27"/>
<path d="M24.0191 64.7985C22.7605 68.1471 18.9263 70.2823 15.4553 69.5676C11.9842 68.8529 10.1905 65.5589 11.449 62.2104C12.7076 58.8617 16.5418 56.7266 20.0128 57.4413C23.4841 58.1561 25.2777 61.45 24.0191 64.7985Z" fill="#E28305"/>
<path opacity="0.25" d="M19.9422 56.3744L19.4482 56.9371L19.112 57.3195L11.3519 66.1474L11.0154 66.5306L10.5204 67.0931C10.3598 66.7484 10.2319 66.3861 10.1387 66.0113L10.6911 65.3832L11.0778 64.944L17.7429 57.3614L17.7433 57.3606L18.1299 56.9213L18.683 56.2913C19.1035 56.2866 19.5243 56.3127 19.9422 56.3744ZM24.2081 58.7244L23.752 59.2427L23.4475 59.5897L20.6776 62.7409L19.8928 63.6348L19.5436 64.0313L17.3109 66.5718L16.9998 66.9259L16.5828 67.3999L14.8216 69.4039L14.5171 69.7508L14.0612 70.2691C12.6625 69.7619 11.5658 68.8575 10.8591 67.7192L11.3307 67.1826L11.6483 66.8216L16.4829 61.3221L17.2194 60.4846L19.9115 57.4219L20.2292 57.0607L20.6995 56.5249C22.1795 56.8948 23.3779 57.68 24.2081 58.7244Z" fill="#EDE0D3"/>
<path d="M28.0977 60.1079C28.0977 60.1079 32.5497 62.8054 37.8677 60.9556C43.1858 59.1059 48.1185 59.3371 48.1185 59.3371V70.2257C48.1185 70.2257 41.5747 69.4037 38.197 70.2257C32.5833 71.5918 28.0977 69.7244 28.0977 69.7244V60.1079Z" fill="#ED9B27"/>
<path d="M47.579 60.7978V68.8419C47.5305 68.8311 47.4873 68.8257 47.4388 68.8257C47.0664 68.8257 46.7589 69.1278 46.7589 69.5055C46.7589 69.5163 46.7589 69.5325 46.7644 69.5433C45.626 69.4408 43.948 69.3221 42.2702 69.3221C40.5222 69.3221 39.1086 69.4515 38.0728 69.6997C36.751 70.0234 35.3807 70.1853 33.9941 70.1853C31.7551 70.1853 29.964 69.7591 29.0252 69.4732C29.0306 69.457 29.0306 69.4409 29.0306 69.4247C29.0306 69.1765 28.8687 68.966 28.6367 68.9067V61.6557C28.9065 61.6557 29.1277 61.4615 29.1654 61.2079C30.2714 61.6448 31.9763 62.1412 34.0265 62.1412C35.4023 62.1412 36.751 61.9146 38.0458 61.4668C41.6174 60.2205 44.9947 59.9346 46.8076 59.8806C46.7752 59.9616 46.759 60.0424 46.759 60.1341C46.759 60.5118 47.0665 60.814 47.4389 60.814C47.4873 60.814 47.5305 60.8086 47.579 60.7978Z" fill="#E28305"/>
<path d="M33.9081 65.998C33.9291 65.5775 33.6053 65.2197 33.1848 65.1988C32.7644 65.1778 32.4066 65.5016 32.3856 65.9221C32.3646 66.3425 32.6885 66.7003 33.1089 66.7213C33.5294 66.7423 33.8872 66.4184 33.9081 65.998Z" fill="#ED9B27"/>
<path d="M43.225 65.12C43.225 65.5871 42.8463 65.9658 42.379 65.9658C41.9119 65.9658 41.5332 65.5871 41.5332 65.12C41.5332 64.6529 41.9119 64.2742 42.379 64.2742C42.8463 64.2742 43.225 64.6529 43.225 65.12Z" fill="#ED9B27"/>
<path d="M32.4512 43.8943C32.4512 43.8943 34.1427 51.9093 36.4788 50.6607C38.8148 49.4122 40.285 42.6512 40.285 42.6512L39.3844 42.7628L36.4788 47.3436C36.4788 47.3436 36.6055 40.0339 34.6723 39.4296C32.739 38.8255 32.4512 43.8943 32.4512 43.8943Z" fill="#E5AEB4"/>
<path d="M32.8711 46.6105C32.8711 46.6105 35.908 45.3926 36.4566 44.8879C37.0052 44.3832 36.3817 40.5379 35.7268 40.2856C35.0718 40.0333 32.8711 46.6105 32.8711 46.6105Z" fill="#ED9B27"/>
<path d="M40.2337 39.4294H37.4759C37.3717 39.4294 37.2812 39.5011 37.2572 39.6024L36.0745 44.6113C36.0412 44.7523 36.1481 44.8876 36.293 44.8876H39.0015C39.105 44.8876 39.1949 44.817 39.2197 44.7165L40.4517 39.7076C40.4867 39.5662 40.3794 39.4294 40.2337 39.4294Z" fill="#244D77"/>
<path d="M40.3959 39.4294H37.638C37.5339 39.4294 37.4434 39.5011 37.4194 39.6024L36.2366 44.6113C36.2032 44.7523 36.3103 44.8876 36.4551 44.8876H39.1637C39.267 44.8876 39.3571 44.817 39.3818 44.7165L40.6138 39.7076C40.6488 39.5662 40.5417 39.4294 40.3959 39.4294Z" fill="#244D77"/>
<path d="M39.2714 40.672C39.1949 40.9241 38.9287 41.1285 38.6766 41.1285C38.4245 41.1285 38.2821 40.9241 38.3585 40.672C38.4349 40.42 38.7012 40.2156 38.9534 40.2156C39.2054 40.2156 39.3478 40.42 39.2714 40.672Z" fill="#FD9C2A"/>
<path d="M37.916 61.9919L38.6678 63.8178H39.6881L39.0706 61.9919H37.916Z" fill="#FEC6C7"/>
<path d="M24.7322 49.9626C24.7322 49.9626 21.9665 54.4468 25.1619 55.0643C28.3572 55.6819 33.0293 55.8698 33.0293 55.8698L37.6477 62.3141C37.6477 62.3141 39.4199 62.6363 39.3661 62.3141C39.3125 61.9919 38.0773 52.4866 36.6273 51.5737C35.1774 50.6607 30.7738 50.8756 30.7738 50.8756L30.3441 49.9626H24.7322Z" fill="#244D77"/>
<path d="M20.8123 49.9626C20.8123 49.9626 18.0466 54.4468 21.242 55.0643C24.4373 55.6819 27.5742 55.4308 27.5742 55.4308L28.6545 61.2187C28.6545 61.2187 30.4267 61.5409 30.373 61.2187C30.3192 60.8965 34.1573 52.4866 32.7073 51.5737C31.2574 50.6607 26.8538 50.8756 26.8538 50.8756L26.4242 49.9626H20.8123Z" fill="#244D77"/>
<path d="M31.1226 36.9178C31.1226 36.9178 26.8935 36.7652 24.0742 42.4039C21.2549 48.0426 19.4826 49.4523 20.0869 49.9759C20.6911 50.4994 27.9408 52.3118 30.0351 50.2175C32.1295 48.1231 36.4515 41.6386 35.6197 40.1081C34.7878 38.5775 33.8212 36.587 31.1226 36.9178Z" fill="white"/>
<path d="M36.8836 35.2388C36.8836 35.2388 36.1125 38.9401 35.3414 38.6317C34.5704 38.3232 33.9021 37.8091 33.9021 37.8091L32.2571 40.2767C32.2571 40.2767 31.4452 40.5163 30.5607 38.4775C30.5607 38.4775 30.1495 37.6293 30.9206 37.1667C31.6917 36.7039 32.3342 35.8558 32.3342 35.8558C32.3342 35.8558 33.568 33.8253 34.8532 33.9281C36.1382 34.0308 36.8836 35.2388 36.8836 35.2388Z" fill="#FEC6C7"/>
<path d="M34.055 36.3105L33.5191 37.375L32.6934 36.8428C32.6934 36.8428 32.9627 38.8971 33.1975 38.8657L33.9017 37.8093L34.055 36.3105ZM36.7137 35.9602L36.6597 36.1682C36.6597 36.1682 35.4724 35.6833 35.2441 35.1329L34.6726 35.3675L35.2307 34.3408L36.7136 35.7102V35.9602H36.7137Z" fill="#E5B1B4"/>
<path d="M32.0011 36.0958C32.0011 36.0958 33.8003 37.004 34.2115 36.0958C34.2115 36.0958 33.6718 35.0848 34.2115 34.9306C34.7513 34.7764 34.6742 35.3676 34.6742 35.3676C34.6742 35.3676 35.2653 34.6736 35.2653 34.7506C35.2653 34.8278 36.6757 36.5797 37.6781 35.8847C38.6806 35.1898 38.7834 33.3391 37.3183 33.185C35.8532 33.0308 36.1947 32.2644 35.5946 31.9578C33.7823 31.0314 31.1039 32.1592 32.0011 36.0958Z" fill="#4E4E4E"/>
<path d="M34.6474 36.6606V37.6567C34.6474 37.6567 35.3116 37.2135 35.8154 37.2539C36.3193 37.2943 36.2875 37.3835 36.2875 37.3835C36.2875 37.3835 35.9937 38.8901 35.4731 38.7241C34.9526 38.558 33.9023 37.8092 33.9023 37.8092L34.0556 36.3104C34.3218 36.1642 34.6474 36.3569 34.6474 36.6606Z" fill="#4E4E4E"/>
<path d="M36.0679 37.6769C36.0679 37.6769 35.3308 37.5159 34.9482 37.8179C34.5656 38.12 35.7239 38.3515 35.7239 38.3515C35.7239 38.3515 36.0901 38.2308 36.0679 37.6769ZM34.3642 40.672C33.7601 40.4853 33.3371 41.3823 33.3371 41.3823C33.3371 41.3823 33.1962 41.1004 32.9142 41.2414C32.6323 41.3823 33.035 43.2954 33.035 43.2954L29.5108 47.8064C29.5108 47.8064 29.5108 43.2149 29.5108 40.8789C29.5108 38.5429 28.0538 38.4582 27.2955 38.6582C26.5687 38.85 25.5233 39.5443 25.4026 40.9943C25.2817 42.4442 25.6442 51.0635 28.5039 51.3856C31.3635 51.7079 33.9587 43.8942 33.9587 43.8942C33.9587 43.8942 34.6058 42.8726 35.3048 42.262C36.004 41.6515 34.9683 40.8588 34.3642 40.672Z" fill="#FEC6C7"/>
<path d="M25.3822 44.7456L29.733 43.7789C29.733 43.7789 30.4373 37.9929 28.4228 37.9929C25.6436 37.993 24.6169 41.0221 25.3822 44.7456Z" fill="#ED9B27"/>
<path d="M30.5427 60.7522L29.8491 63.2858L28.334 63.6454L28.9248 60.8261L30.5427 60.7522Z" fill="#E9C3B7"/>
<path d="M30.6907 63.6669L29.8884 62.5049L27.9037 62.5655C27.9037 62.5655 27.7836 63.4452 28.1483 64.0275C28.5144 64.6066 29.3514 64.5633 29.3514 64.5633L30.6907 63.6669Z" fill="#244D77"/>
<path d="M29.3516 64.5632C29.3516 64.5632 29.3528 63.4155 30.6821 63.3748C32.0107 63.3343 31.8282 64.4876 31.8282 64.4876L29.3516 64.5632Z" fill="#244D77"/>
<path d="M29.2159 52.3003C29.2159 52.3003 30.3347 50.6219 32.1382 51.4049C33.9418 52.1879 33.1283 53.4741 32.477 55.5285C31.8257 57.583 30.4612 62.1988 30.4612 62.1988L28.3568 61.8427C28.3567 61.8426 26.66 56.0145 29.2159 52.3003Z" fill="#244D77"/>
<path d="M40.0814 62.8985C40.0814 62.8985 38.5614 63.2008 38.355 62.968C38.355 62.968 38.1934 62.4188 38.0395 63.0696C37.8856 63.7203 37.8536 64.2064 38.0711 64.3454C38.2886 64.4846 42.5739 64.5391 42.5739 64.5391C42.5739 64.5391 43.0738 63.9916 42.0774 63.793C41.0811 63.5945 40.0814 62.8985 40.0814 62.8985Z" fill="#244D77"/>
<path d="M40.644 41.9793C40.644 41.9793 40.3555 40.822 40.1766 41.2877C39.9978 41.7535 40.0604 41.967 40.0604 41.967C40.0604 41.967 39.2609 41.4758 39.0806 41.5238C38.9005 41.5718 38.276 42.0881 38.6988 42.5008C39.1215 42.9134 39.3138 43.2019 39.9404 43.1999C40.5669 43.1978 40.5323 42.8247 40.5323 42.8247L40.644 41.9793Z" fill="#E5AEB4"/>
<path opacity="0.2" d="M81.8368 23.0479V31.9682C81.8368 32.7964 81.3173 33.4946 80.6268 33.6695C80.5184 33.6976 80.4061 33.7116 80.2899 33.7116H63.0339C62.1839 33.7116 61.4883 32.9266 61.4883 31.9682V23.0479C61.4883 22.2196 62.0077 21.5214 62.697 21.3466C62.8055 21.3185 62.9178 21.3044 63.0339 21.3044H80.2899C81.1399 21.3044 81.8368 22.0894 81.8368 23.0479Z" fill="#244D77"/>
<path d="M83.1883 21.7196V30.6398C83.1883 31.4681 82.6688 32.1663 81.9783 32.3411C81.8698 32.3692 81.7575 32.3832 81.6414 32.3832H64.3855C63.5355 32.3832 62.8398 31.5982 62.8398 30.6397V21.7195C62.8398 20.8911 63.3593 20.193 64.0485 20.0181C64.1569 19.99 64.2693 19.9761 64.3854 19.9761H81.6414C82.4914 19.9761 83.1883 20.761 83.1883 21.7196Z" fill="#F8CCB1"/>
<g opacity="0.6">
<path opacity="0.6" d="M81.2688 22.4556H70.7779C70.7346 22.4556 70.6992 22.4202 70.6992 22.3769V21.9508C70.6992 21.9075 70.7346 21.8721 70.7779 21.8721H81.2688C81.3121 21.8721 81.3474 21.9075 81.3474 21.9508V22.3769C81.3474 22.4202 81.3121 22.4556 81.2688 22.4556ZM81.2688 23.5495H70.7779C70.7346 23.5495 70.6992 23.5141 70.6992 23.4708V23.0447C70.6992 23.0014 70.7346 22.966 70.7779 22.966H81.2688C81.3121 22.966 81.3474 23.0014 81.3474 23.0447V23.4708C81.3474 23.5141 81.3121 23.5495 81.2688 23.5495ZM81.2688 24.6435H70.7779C70.7346 24.6435 70.6992 24.6081 70.6992 24.5648V24.1387C70.6992 24.0954 70.7346 24.06 70.7779 24.06H81.2689C81.3122 24.06 81.3476 24.0954 81.3476 24.1387V24.5648C81.3475 24.6081 81.3121 24.6435 81.2688 24.6435Z" fill="white"/>
</g>
<path opacity="0.6" d="M81.2687 30.7155H65.0162C64.9729 30.7155 64.9375 30.6801 64.9375 30.6368V30.2107C64.9375 30.1674 64.9729 30.132 65.0162 30.132H81.2687C81.312 30.132 81.3474 30.1674 81.3474 30.2107V30.6368C81.3474 30.6801 81.312 30.7155 81.2687 30.7155ZM67.0798 23.6086V23.6954H68.8398V24.1153C68.8398 24.4076 68.6024 24.6437 68.3101 24.6437H65.6119C65.3197 24.6437 65.0835 24.4076 65.0835 24.1153V24.1038H66.6151V24.017H65.0835V22.4561H66.67V22.3693H65.0847C65.1014 22.091 65.3311 21.8728 65.6119 21.8728H68.3101C68.5909 21.8728 68.8219 22.091 68.8385 22.3693H67.312V22.4561H68.8397V23.6086H67.0798Z" fill="white"/>
<g opacity="0.6">
<path opacity="0.6" d="M68.0234 27.8677V29.2029H67.8346V28.0337H67.5332V27.8677H68.0234ZM69.2537 29.037V29.2029H68.2943V29.0732L68.8379 28.5486C68.904 28.485 68.9486 28.4301 68.9714 28.3836C68.9942 28.3372 69.0057 28.2905 69.0057 28.2434C69.0057 28.1736 68.9813 28.1192 68.9323 28.0804C68.8833 28.0416 68.8131 28.0222 68.7215 28.0222C68.574 28.0222 68.4602 28.0706 68.3801 28.1672L68.2503 28.0548C68.3024 27.9912 68.3708 27.9416 68.4554 27.906C68.54 27.8704 68.6343 27.8525 68.7386 27.8525C68.8785 27.8525 68.9897 27.886 69.0724 27.9527C69.155 28.0194 69.1963 28.1101 69.1963 28.2245C69.1963 28.2957 69.1812 28.3631 69.1506 28.4267C69.1201 28.4903 69.0622 28.5627 68.9771 28.6441L68.5688 29.037H69.2537ZM70.2208 28.5497C70.2894 28.6177 70.3238 28.7045 70.3238 28.81C70.3238 28.8862 70.3047 28.9553 70.2666 29.0169C70.2284 29.0786 70.1716 29.1276 70.0959 29.1639C70.0202 29.2001 69.9278 29.2182 69.8183 29.2182C69.723 29.2182 69.6315 29.2039 69.5438 29.1753C69.4559 29.1466 69.384 29.1069 69.3282 29.056L69.4158 28.9054C69.4617 28.9486 69.5202 28.9833 69.5913 29.0094C69.6626 29.0354 69.7382 29.0484 69.8182 29.0484C69.9174 29.0484 69.9947 29.0274 70.0501 28.9854C70.1053 28.9435 70.1329 28.8856 70.1329 28.8118C70.1329 28.7382 70.1056 28.6809 70.0509 28.6402C69.9962 28.5996 69.9135 28.5792 69.803 28.5792H69.6962V28.4457L70.0318 28.0337H69.389V27.8677H70.2703V27.9974L69.9212 28.4284C70.0522 28.4413 70.1521 28.4817 70.2208 28.5497ZM71.6627 28.8749H71.4091V29.203H71.224V28.8749H70.4821V28.7414L71.1649 27.8678H71.3709L70.7167 28.7109H71.2297V28.4209H71.409V28.7109H71.6626V28.8749H71.6627ZM72.5733 28.5077C72.6631 28.5796 72.7078 28.6779 72.7078 28.8024C72.7078 28.8812 72.6892 28.9521 72.6516 29.015C72.614 29.0779 72.5575 29.1275 72.4819 29.1638C72.4062 29.2 72.3131 29.2181 72.2024 29.2181C72.1083 29.2181 72.0174 29.2038 71.9297 29.1752C71.842 29.1465 71.7695 29.1068 71.7122 29.0559L71.7999 28.9053C71.8457 28.9485 71.9041 28.9832 71.9755 29.0093C72.0467 29.0353 72.1217 29.0483 72.2006 29.0483C72.3009 29.0483 72.3788 29.0271 72.4342 28.9844C72.4895 28.9418 72.5172 28.8837 72.5172 28.8099C72.5172 28.7298 72.4866 28.6691 72.4257 28.6278C72.3647 28.5865 72.2604 28.5658 72.113 28.5658H71.8097L71.8803 27.8677H72.6335V28.0337H72.0404L72.0041 28.3999H72.1529C72.3435 28.4 72.4837 28.4359 72.5733 28.5077ZM72.9005 29.1772C72.8751 29.1524 72.8623 29.121 72.8623 29.0828C72.8623 29.0459 72.8751 29.015 72.9005 28.9903C72.926 28.9655 72.9564 28.9531 72.9921 28.9531C73.0276 28.9531 73.0576 28.9652 73.0817 28.9893C73.1057 29.0136 73.1178 29.0446 73.1178 29.0828C73.1178 29.121 73.1055 29.1524 73.0807 29.1772C73.0558 29.202 73.0263 29.2145 72.992 29.2145C72.9565 29.2145 72.926 29.202 72.9005 29.1772ZM73.6883 27.8677V29.2029H73.4995V28.0337H73.1981V27.8677H73.6883ZM74.9184 29.037V29.2029H73.9591V29.0732L74.5027 28.5486C74.5689 28.485 74.6134 28.4301 74.6363 28.3836C74.6591 28.3372 74.6706 28.2905 74.6706 28.2434C74.6706 28.1736 74.6461 28.1192 74.5971 28.0804C74.5482 28.0416 74.478 28.0222 74.3864 28.0222C74.2388 28.0222 74.125 28.0706 74.0449 28.1672L73.9151 28.0548C73.9672 27.9912 74.0357 27.9416 74.1202 27.906C74.2049 27.8704 74.2992 27.8525 74.4035 27.8525C74.5433 27.8525 74.6546 27.886 74.7374 27.9527C74.82 28.0194 74.8612 28.1101 74.8612 28.2245C74.8612 28.2957 74.846 28.3631 74.8154 28.4267C74.785 28.4903 74.7271 28.5627 74.6419 28.6441L74.2337 29.037H74.9184ZM75.8855 28.5497C75.9541 28.6177 75.9886 28.7045 75.9886 28.81C75.9886 28.8862 75.9695 28.9553 75.9312 29.0169C75.893 29.0786 75.8362 29.1276 75.7606 29.1639C75.685 29.2001 75.5924 29.2182 75.4829 29.2182C75.3876 29.2182 75.2961 29.2039 75.2084 29.1753C75.1207 29.1466 75.0487 29.1069 74.9928 29.056L75.0805 28.9054C75.1263 28.9486 75.1848 28.9833 75.2559 29.0094C75.3272 29.0354 75.4028 29.0484 75.4828 29.0484C75.5821 29.0484 75.6593 29.0274 75.7147 28.9854C75.7699 28.9435 75.7976 28.8856 75.7976 28.8118C75.7976 28.7382 75.7703 28.6809 75.7156 28.6402C75.6609 28.5996 75.5783 28.5792 75.4677 28.5792H75.3609V28.4457L75.6966 28.0337H75.0538V27.8677H75.935V27.9974L75.586 28.4284C75.717 28.4413 75.8168 28.4817 75.8855 28.5497ZM77.3274 28.8749H77.0738V29.203H76.8887V28.8749H76.1468V28.7414L76.8296 27.8678H77.0356L76.3813 28.7109H76.8943V28.4209H77.0737V28.7109H77.3273V28.8749H77.3274ZM78.2382 28.5077C78.3279 28.5796 78.3727 28.6779 78.3727 28.8024C78.3727 28.8812 78.354 28.9521 78.3165 29.015C78.2789 29.0779 78.2224 29.1275 78.1468 29.1638C78.071 29.2 77.978 29.2181 77.8673 29.2181C77.7732 29.2181 77.6823 29.2038 77.5946 29.1752C77.5068 29.1465 77.4343 29.1068 77.377 29.0559L77.4648 28.9053C77.5105 28.9485 77.569 28.9832 77.6403 29.0093C77.7114 29.0353 77.7865 29.0483 77.8654 29.0483C77.9658 29.0483 78.0436 29.0271 78.0989 28.9844C78.1542 28.9418 78.1819 28.8837 78.1819 28.8099C78.1819 28.7298 78.1514 28.6691 78.0903 28.6278C78.0294 28.5865 77.925 28.5658 77.7776 28.5658H77.4743L77.5449 27.8677H78.2983V28.0337H77.7051L77.6687 28.3999H77.8175C78.0083 28.4 78.1486 28.4359 78.2382 28.5077Z" fill="white"/>
</g>
<g opacity="0.15">
<path opacity="0.15" d="M77.8957 32.3834H70.8108L64.0488 20.0183C64.1573 19.9902 64.2696 19.9763 64.3858 19.9763H71.1107L77.8957 32.3834ZM81.9787 32.3412C81.8701 32.3693 81.7579 32.3833 81.6417 32.3833H79.1299L72.3436 19.9761H75.2166L81.9787 32.3412Z" fill="#F6E9EB"/>
</g>
<path opacity="0.1" d="M67.8169 35.6101H44.9092C43.9142 35.6101 43.1074 36.4167 43.1074 37.4118V42.1735C43.1074 43.1686 43.9141 43.9753 44.9092 43.9753H67.8169C68.8119 43.9753 69.6186 43.1686 69.6186 42.1735V37.4118C69.6186 36.4167 68.812 35.6101 67.8169 35.6101Z" fill="#416D99"/>
<path d="M68.1748 36.6601V41.4239C68.1748 42.4192 67.3671 43.2245 66.3742 43.2245H43.4665C42.4712 43.2245 41.6635 42.4191 41.6635 41.4239V38.7423H39.2383L41.6635 36.6602C41.6635 35.6673 42.4712 34.8596 43.4665 34.8596H66.3742C67.3671 34.8594 68.1748 35.6671 68.1748 36.6601Z" fill="#E28305"/>
<path d="M70.7371 35.6895L63.1075 38.5959L62.1704 37.4574C62.0004 37.2508 61.6415 37.0654 61.3743 37.0797C60.6245 37.1196 60.234 38.0132 60.7361 38.5918L62.5762 40.7125C62.8782 41.0604 63.3942 41.1241 63.7716 40.8599L70.8505 35.9033C70.9681 35.8209 70.8713 35.6385 70.7371 35.6895ZM48.772 39.6937C48.772 39.9593 48.6759 40.1727 48.4838 40.3339C48.2917 40.4952 48.0226 40.5918 47.6768 40.6234V41.1371H47.3335V40.6334C46.9258 40.6251 46.5683 40.5533 46.2608 40.418V39.7564C46.4061 39.8283 46.5812 39.8917 46.7858 39.9468C46.9905 40.0019 47.1731 40.0345 47.3335 40.0445V39.2677L47.1656 39.2026C46.8348 39.0723 46.6004 38.9307 46.4626 38.7778C46.3248 38.6249 46.2559 38.4357 46.2559 38.2102C46.2559 37.9681 46.3506 37.7688 46.5403 37.6126C46.73 37.4564 46.9943 37.3616 47.3336 37.3282V36.9448H47.6769V37.3181C48.0595 37.3348 48.4053 37.4118 48.7145 37.5487L48.4789 38.135C48.2181 38.0282 47.9508 37.9631 47.6769 37.9396V38.6788C48.0026 38.8041 48.2344 38.9127 48.3722 39.0045C48.5102 39.0965 48.6111 39.1975 48.6756 39.3077C48.7397 39.4181 48.772 39.5469 48.772 39.6937ZM47.0103 38.2103C47.0103 38.2839 47.0356 38.3444 47.0867 38.392C47.1376 38.4396 47.2199 38.4885 47.3336 38.5385V37.9497C47.118 37.9815 47.0103 38.0684 47.0103 38.2103ZM48.0176 39.7314C48.0176 39.6612 47.9892 39.602 47.9323 39.5535C47.8755 39.505 47.7903 39.455 47.6768 39.403V40.0271C47.904 39.9887 48.0176 39.8902 48.0176 39.7314ZM50.5037 38.4985C50.8578 38.4985 51.1398 38.5979 51.3495 38.7967C51.559 38.9956 51.664 39.2678 51.664 39.6136C51.664 40.023 51.5378 40.3377 51.2855 40.5582C51.0333 40.7787 50.6724 40.889 50.203 40.889C49.7953 40.889 49.4661 40.823 49.2156 40.691V40.0219C49.3476 40.0921 49.5012 40.1495 49.6766 40.1936C49.8522 40.2379 50.0184 40.26 50.1755 40.26C50.6483 40.26 50.8847 40.0663 50.8847 39.6786C50.8847 39.3095 50.6398 39.1248 50.1504 39.1248C50.0618 39.1248 49.9641 39.1336 49.8573 39.1511C49.7503 39.1686 49.6634 39.1874 49.5966 39.2075L49.2884 39.0421L49.4262 37.1753H51.4137V37.8318H50.1055L50.0379 38.551L50.1256 38.5334C50.2271 38.5102 50.3533 38.4985 50.5037 38.4985ZM54.6411 39.0072C54.6411 39.6471 54.5363 40.1207 54.3267 40.428C54.117 40.7354 53.794 40.8891 53.358 40.8891C52.9353 40.8891 52.6166 40.7304 52.4019 40.4129C52.1872 40.0957 52.0798 39.627 52.0798 39.0072C52.0798 38.3607 52.1843 37.8843 52.3931 37.5776C52.6021 37.2711 52.9235 37.1177 53.358 37.1177C53.7807 37.1177 54.1002 37.2781 54.3166 37.5988C54.533 37.9197 54.6411 38.3893 54.6411 39.0072ZM52.8494 39.0072C52.8494 39.4567 52.8883 39.7787 52.966 39.9732C53.0437 40.1678 53.1743 40.2651 53.3582 40.2651C53.5386 40.2651 53.6689 40.1666 53.7491 39.9694C53.8294 39.7724 53.8694 39.4516 53.8694 39.0072C53.8694 38.5579 53.8288 38.2352 53.7479 38.0387C53.667 37.8424 53.537 37.7442 53.3582 37.7442C53.1761 37.7442 53.0458 37.8424 52.9673 38.0387C52.8885 38.235 52.8494 38.5578 52.8494 39.0072ZM57.5708 39.0072C57.5708 39.6471 57.4658 40.1207 57.2563 40.428C57.0466 40.7354 56.7237 40.8891 56.2877 40.8891C55.865 40.8891 55.5463 40.7304 55.3315 40.4129C55.1168 40.0957 55.0096 39.627 55.0096 39.0072C55.0096 38.3607 55.114 37.8843 55.3228 37.5776C55.5317 37.2711 55.8533 37.1177 56.2877 37.1177C56.7104 37.1177 57.0299 37.2781 57.2463 37.5988C57.4626 37.9197 57.5708 38.3893 57.5708 39.0072ZM55.779 39.0072C55.779 39.4567 55.8178 39.7787 55.8955 39.9732C55.9732 40.1678 56.1038 40.2651 56.2877 40.2651C56.468 40.2651 56.5984 40.1666 56.6786 39.9694C56.7588 39.7724 56.7988 39.4516 56.7988 39.0072C56.7988 38.5579 56.7583 38.2352 56.6772 38.0387C56.5963 37.8424 56.4663 37.7442 56.2876 37.7442C56.1054 37.7442 55.9751 37.8424 55.8967 38.0387C55.8182 38.235 55.779 38.5578 55.779 39.0072Z" fill="white"/>
<g opacity="0.15">
<path opacity="0.15" d="M60.5139 43.2237H52.9702L48.3965 34.8586H55.9401L60.5139 43.2237Z" fill="#F6E9EB"/>
<path opacity="0.15" d="M64.8848 43.2237H61.8303L57.252 34.8586H60.311L64.8848 43.2237Z" fill="#F6E9EB"/>
</g>
<path opacity="0.6" d="M58.9951 27.277C58.9951 28.5591 58.551 29.735 57.8023 30.6623C57.6822 30.8188 57.5482 30.9667 57.4085 31.1064C56.4252 32.0868 55.0734 32.693 53.5762 32.693H53.2774C51.568 32.693 50.0429 31.9026 49.0541 30.6624C48.3055 29.7351 47.8613 28.5592 47.8613 27.2771C47.8613 25.7827 48.4675 24.4252 49.4478 23.4449C50.4282 22.4645 51.7829 21.8584 53.2773 21.8584H53.5761C56.5679 21.8583 58.9951 24.2855 58.9951 27.277Z" fill="white"/>
<path d="M57.3493 30.3115C57.2417 30.4518 57.1214 30.5844 56.9963 30.7096C56.1149 31.5885 54.9032 32.1317 53.5612 32.1317H53.2933C51.7611 32.1317 50.3941 31.4233 49.5078 30.3115C50.3065 29.1398 51.6184 28.3462 53.123 28.251C52.1041 28.1008 51.3229 27.2295 51.3229 26.1705C51.3229 25.0087 52.2667 24.0674 53.4285 24.0674C54.5902 24.0674 55.5316 25.0087 55.5316 26.1705C55.5316 27.2295 54.7504 28.1008 53.7339 28.251C55.2387 28.3462 56.5507 29.1398 57.3493 30.3115Z" fill="#E5B093"/>
<path d="M41.94 31.7214C41.8819 32.5688 41.1477 33.2089 40.3003 33.1508C40.2256 33.1457 40.1524 33.1353 40.0813 33.1199C39.7747 33.0544 39.5043 32.8983 39.2969 32.6826C39.2601 32.6446 39.2256 32.6044 39.1929 32.5627C39.1407 32.4959 39.0939 32.4245 39.0531 32.3496C38.9182 32.1016 38.8502 31.8135 38.8708 31.5111C38.9208 30.7817 39.4719 30.206 40.1647 30.0966C40.2475 30.0837 40.3323 30.0772 40.4185 30.0782C40.449 30.0784 40.4796 30.0796 40.5105 30.0817C40.5329 30.0833 40.5551 30.0853 40.5771 30.088C40.8916 30.1228 41.1751 30.2514 41.4012 30.4442C41.7602 30.7493 41.9747 31.2151 41.94 31.7214Z" fill="#E28305"/>
<path d="M41.812 31.7122C41.7589 32.4883 41.0865 33.0744 40.3105 33.0212C39.5343 32.9681 38.9482 32.2958 39.0014 31.5197C39.0545 30.7435 39.7269 30.1575 40.5029 30.2106C41.2791 30.2638 41.8652 30.9361 41.812 31.7122Z" fill="#ED9B27"/>
<path d="M41.7274 31.7064C41.6776 32.4349 41.0465 32.9851 40.3179 32.9352C39.5894 32.8852 39.0392 32.2542 39.0891 31.5257C39.139 30.7971 39.77 30.247 40.4986 30.2968C41.2272 30.3468 41.7773 30.9779 41.7274 31.7064Z" fill="#E28305"/>
<path opacity="0.25" d="M40.4182 30.0782L40.354 30.2086L40.3102 30.2973L39.3006 32.3434L39.2569 32.4323L39.1925 32.5627C39.1403 32.4959 39.0935 32.4245 39.0527 32.3496L39.1247 32.204L39.175 32.1022L40.0421 30.3448V30.3446L40.0924 30.2428L40.1643 30.0968C40.2473 30.0837 40.332 30.0772 40.4182 30.0782ZM41.401 30.4441L41.3417 30.5642L41.3021 30.6447L40.9418 31.3751L40.8398 31.5822L40.7944 31.6742L40.5039 32.263L40.4635 32.3451L40.4092 32.455L40.1801 32.9194L40.1405 32.9998L40.0812 33.1199C39.7746 33.0545 39.5042 32.8983 39.2968 32.6826L39.3582 32.5583L39.3995 32.4746L40.0286 31.2L40.1244 31.0058L40.4746 30.2959L40.5159 30.2122L40.5771 30.0881C40.8914 30.1228 41.1749 30.2514 41.401 30.4441Z" fill="#EDE0D3"/>
<path d="M31.9551 27.1027L32.76 24.8312C32.76 24.8312 36.6317 22.3117 40.5015 26.1188L38.3734 30.4327C38.3733 30.4327 36.3688 26.0119 31.9551 27.1027Z" fill="#ED9B27"/>
<path d="M39.9766 26.2491C40.0088 26.3066 40.0602 26.3453 40.1179 26.3615L38.6292 29.3829C38.5146 29.2557 38.323 29.2174 38.167 29.305C38.1137 29.3349 38.0713 29.3748 38.04 29.4248C37.2021 28.2299 35.4818 26.4535 32.7772 26.7219C32.8043 26.65 32.7971 26.565 32.7556 26.4912C32.6968 26.3865 32.5838 26.334 32.4727 26.3477L32.8698 25.2234C32.9356 25.254 33.0155 25.2524 33.0853 25.2132C33.2063 25.1451 33.2487 24.9945 33.1819 24.8755L33.1773 24.8673C34.0359 24.4448 36.9939 23.3055 39.9978 25.9699C39.9365 26.0477 39.9248 26.1568 39.9766 26.2491Z" fill="#E28305"/>
<path d="M38.0696 26.289C38.1591 26.4486 38.1024 26.6505 37.9427 26.7401C37.7832 26.8297 37.5812 26.7729 37.4916 26.6133C37.402 26.4537 37.4588 26.2517 37.6184 26.1621C37.7781 26.0726 37.98 26.1293 38.0696 26.289ZM34.4348 25.4561C34.4981 25.5689 34.4579 25.7117 34.3451 25.7751C34.2322 25.8384 34.0894 25.7983 34.0261 25.6855C33.9628 25.5726 34.0029 25.4298 34.1158 25.3665C34.2286 25.3031 34.3715 25.3433 34.4348 25.4561Z" fill="#ED9B27"/>
<path d="M27.5773 26.4972C27.5773 26.6135 27.483 26.7077 27.3668 26.7077C27.2504 26.7077 27.1562 26.6134 27.1562 26.4972C27.1562 26.3809 27.2505 26.2866 27.3668 26.2866C27.4831 26.2865 27.5773 26.3808 27.5773 26.4972ZM27.5773 27.9005C27.5773 28.0169 27.483 28.1111 27.3668 28.1111C27.2504 28.1111 27.1562 28.0168 27.1562 27.9005C27.1562 27.7843 27.2505 27.69 27.3668 27.69C27.4831 27.6899 27.5773 27.7842 27.5773 27.9005ZM27.5773 29.3039C27.5773 29.4201 27.483 29.5144 27.3668 29.5144C27.2504 29.5144 27.1562 29.4201 27.1562 29.3039C27.1562 29.1875 27.2505 29.0933 27.3668 29.0933C27.4831 29.0932 27.5773 29.1875 27.5773 29.3039ZM27.5773 30.7071C27.5773 30.8234 27.483 30.9177 27.3668 30.9177C27.2504 30.9177 27.1562 30.8234 27.1562 30.7071C27.1562 30.5908 27.2505 30.4966 27.3668 30.4966C27.4831 30.4966 27.5773 30.5909 27.5773 30.7071ZM28.5364 27.1988C28.5364 27.3152 28.4421 27.4094 28.3259 27.4094C28.2095 27.4094 28.1154 27.3151 28.1154 27.1988C28.1154 27.0826 28.2096 26.9883 28.3259 26.9883C28.4421 26.9882 28.5364 27.0825 28.5364 27.1988ZM28.5364 28.6021C28.5364 28.7184 28.4421 28.8126 28.3259 28.8126C28.2095 28.8126 28.1154 28.7183 28.1154 28.6021C28.1154 28.4858 28.2096 28.3916 28.3259 28.3916C28.4421 28.3916 28.5364 28.4858 28.5364 28.6021ZM28.5364 30.0055C28.5364 30.1217 28.4421 30.216 28.3259 30.216C28.2095 30.216 28.1154 30.1217 28.1154 30.0055C28.1154 29.8891 28.2096 29.7949 28.3259 29.7949C28.4421 29.7949 28.5364 29.8892 28.5364 30.0055ZM28.5364 31.4088C28.5364 31.5251 28.4421 31.6194 28.3259 31.6194C28.2095 31.6194 28.1154 31.5251 28.1154 31.4088C28.1154 31.2925 28.2096 31.1983 28.3259 31.1983C28.4421 31.1983 28.5364 31.2926 28.5364 31.4088Z" fill="#E5B093"/>
<rect x="45.2363" y="36.3789" width="3.8143" height="5.72145" fill="#E28305"/>
<defs>
<radialGradient id="paint0_radial_5907:19254" cx="0" cy="0" r="1" gradientUnits="userSpaceOnUse" gradientTransform="translate(58.92 42.2729) scale(19.428)">
<stop stop-color="white"/>
<stop offset="1" stop-color="#F4E9D0"/>
</radialGradient>
<linearGradient id="paint1_linear_5907:19254" x1="38.1622" y1="61.6474" x2="60.7552" y2="13.7135" gradientUnits="userSpaceOnUse">
<stop stop-color="#302424"/>
<stop offset="0.051" stop-color="#3F3434"/>
<stop offset="0.23" stop-color="#716969"/>
<stop offset="0.405" stop-color="#9A9595"/>
<stop offset="0.573" stop-color="#BAB7B7"/>
<stop offset="0.733" stop-color="#D0CFCF"/>
<stop offset="0.879" stop-color="#DEDEDE"/>
<stop offset="1" stop-color="#E3E3E3"/>
</linearGradient>
<linearGradient id="paint2_linear_5907:19254" x1="76.9403" y1="21.8249" x2="54.3472" y2="69.7587" gradientUnits="userSpaceOnUse">
<stop stop-color="#302424"/>
<stop offset="0.051" stop-color="#3F3434"/>
<stop offset="0.23" stop-color="#716969"/>
<stop offset="0.405" stop-color="#9A9595"/>
<stop offset="0.573" stop-color="#BAB7B7"/>
<stop offset="0.733" stop-color="#D0CFCF"/>
<stop offset="0.879" stop-color="#DEDEDE"/>
<stop offset="1" stop-color="#E3E3E3"/>
</linearGradient>
</defs>
<svg width="26" height="30" viewBox="0 0 26 30" fill="none" xmlns="http://www.w3.org/2000/svg">
<path d="M7.18905 23.1098C5.46747 21.8048 4.12348 20.132 3.27574 18.2392C2.32352 16.1543 2.1085 13.9177 2.41886 11.5274L2.42269 11.4982L2.83868 7.71784C5.02997 7.58379 9.46356 6.81181 12.0192 2.92676H12.7083C14.885 6.93462 19.9544 7.63129 22.3126 7.73021L22.7283 11.5294L22.7322 11.5588C23.0399 13.9414 22.8274 16.0429 21.8827 18.1226C21.0377 20.0101 19.7008 21.6797 17.9887 22.9859L12.6069 27.0731L7.18905 23.1098Z" fill="#E28305"/>
<path d="M12.611 30L6.07852 24.9717C3.90034 23.2951 2.17808 21.1909 1.22887 19.0467C0.144558 16.5973 -0.232392 13.7457 0.138693 10.8L0.704569 5.15096L0.900639 5.16939C0.96965 5.17553 7.92515 5.75949 10.8413 0.104035L10.8949 0H13.9438L13.9893 0.124625C16.056 5.78405 24.1687 5.17564 24.2508 5.16915L24.4449 5.15301L25.0132 10.8388C25.3803 13.771 25.0054 16.6137 23.9282 19.0554C22.9855 21.1924 21.2721 23.294 19.1034 24.9732L12.611 30ZM1.05818 5.55083L0.528274 10.8393C0.164714 13.7262 0.532233 16.5134 1.59039 18.9041C2.51523 20.9932 4.19705 23.0462 6.32624 24.6852L12.6102 29.5222L18.855 24.6871C20.9747 23.0458 22.648 20.9953 23.5664 18.9133C24.6177 16.53 24.9833 13.7515 24.6236 10.8778L24.0909 5.54974C22.6445 5.60982 21.1965 5.47403 19.7909 5.14651C16.7042 4.41121 14.5895 2.76109 13.6657 0.369878H11.1392C9.54357 3.37478 6.85615 4.62191 4.87162 5.13857C3.63095 5.46248 2.34431 5.60157 1.05818 5.55083Z" fill="#2D4574"/>
<path d="M12.9559 21.9515C12.8696 21.9515 12.7837 21.9501 12.6981 21.9474L12.7114 21.5713C12.8788 21.5768 13.0483 21.5766 13.2158 21.5708L13.2299 21.9469C13.1389 21.9501 13.0476 21.9516 12.9559 21.9515ZM12.168 21.9128C11.9932 21.8955 11.8161 21.8722 11.6414 21.843L11.7085 21.4723C11.8741 21.4999 12.0422 21.5222 12.208 21.5385L12.168 21.9128ZM13.7598 21.9111L13.7193 21.5368C13.8846 21.5203 14.0524 21.4977 14.2184 21.4697L14.2862 21.8403C14.1114 21.8698 13.9342 21.8936 13.7598 21.9111ZM11.1212 21.738C10.9496 21.6974 10.7775 21.6503 10.6097 21.5983L10.7301 21.2401C10.8894 21.2896 11.0525 21.3342 11.215 21.3728L11.1212 21.738ZM14.8064 21.7341L14.7115 21.3691C14.874 21.3301 15.037 21.2852 15.1962 21.2355L15.3174 21.5934C15.1496 21.6458 14.9777 21.6931 14.8064 21.7341ZM10.109 21.4238C9.94524 21.3604 9.78159 21.2906 9.62253 21.2162L9.79422 20.8779C9.94499 20.9485 10.1001 21.0147 10.2554 21.0747L10.109 21.4238ZM15.8169 21.4181L15.6698 21.0692C15.8244 21.0092 15.9793 20.9428 16.1298 20.872L16.302 21.2101C16.1432 21.2847 15.98 21.3546 15.8169 21.4181ZM9.15263 20.9764C8.99879 20.8911 8.84701 20.8001 8.70135 20.7057L8.92074 20.3938C9.05862 20.4832 9.20263 20.5696 9.34855 20.6506L9.15263 20.9764ZM16.7708 20.97L16.5744 20.6444C16.7192 20.564 16.8628 20.4775 17.0015 20.3875L17.2211 20.6991C17.0748 20.7941 16.9234 20.8853 16.7708 20.97ZM8.27099 20.4057C8.13119 20.3009 7.99419 20.1906 7.86346 20.0778L8.12544 19.798C8.24942 19.905 8.37953 20.0096 8.51206 20.109L8.27099 20.4057ZM17.6504 20.3985L17.4091 20.1021C17.5404 20.0035 17.6702 19.8986 17.7951 19.7906L18.0573 20.0701C17.9258 20.184 17.789 20.2945 17.6504 20.3985ZM7.48054 19.7237C7.35771 19.6019 7.2378 19.4744 7.12416 19.3448L7.4239 19.1025C7.53168 19.2255 7.64533 19.3463 7.76192 19.4618L7.48054 19.7237ZM18.4397 19.7152L18.1579 19.4538C18.2742 19.3382 18.3878 19.2171 18.4954 19.094L18.7956 19.3357C18.6821 19.4657 18.5623 19.5934 18.4397 19.7152ZM6.79596 18.9432C6.69214 18.8065 6.59175 18.6644 6.49787 18.5207L6.8295 18.3206C6.91879 18.4568 7.01394 18.5916 7.11254 18.7212L6.79596 18.9432ZM19.1233 18.9334L18.8062 18.7122C18.9051 18.5816 19.0001 18.4465 19.0887 18.3105L19.4209 18.5102C19.3275 18.6534 19.2274 18.7958 19.1233 18.9334ZM6.2309 18.0795C6.14812 17.9308 6.06942 17.7767 5.9971 17.6217L6.3545 17.4677C6.42325 17.6149 6.49799 17.761 6.57657 17.9021L6.2309 18.0795ZM19.6873 18.0677L19.3414 17.8909C19.4202 17.7488 19.4947 17.6023 19.5628 17.4554L19.9208 17.6085C19.8489 17.7633 19.7704 17.9179 19.6873 18.0677ZM5.79709 17.1492C5.73625 16.9897 5.68064 16.8264 5.63192 16.6637L6.00845 16.5596C6.05462 16.7137 6.1073 16.8686 6.16495 17.0198L5.79709 17.1492ZM20.1201 17.1346L19.7518 17.006C19.8089 16.8552 19.8613 16.7001 19.9074 16.5453L20.2842 16.6489C20.2354 16.8121 20.1803 16.9755 20.1201 17.1346ZM5.5027 16.1684C5.46571 16.0019 5.43447 15.8329 5.40998 15.6658L5.79799 15.6131C5.8212 15.7717 5.8508 15.932 5.88587 16.0898L5.5027 16.1684ZM20.4123 16.1533L20.0289 16.0757C20.0635 15.9184 20.0927 15.7578 20.1159 15.5986L20.5039 15.6505C20.4796 15.8185 20.4488 15.9876 20.4123 16.1533ZM5.35398 15.1581C5.34148 14.9885 5.33498 14.8168 5.33472 14.6478L5.72656 14.6473C5.72682 14.8077 5.73293 14.9706 5.74479 15.1314L5.35398 15.1581ZM20.5589 15.1424L20.1681 15.1167C20.1794 14.9564 20.1853 14.7936 20.1853 14.6326V14.6027H20.5771V14.6326C20.5771 14.8021 20.571 14.9736 20.5589 15.1424ZM5.74276 14.1631L5.35168 14.1379C5.36354 13.9684 5.38166 13.7975 5.40538 13.6302L5.79366 13.6811C5.77107 13.8399 5.75399 14.002 5.74276 14.1631ZM20.1658 14.1193C20.1537 13.9589 20.1354 13.797 20.1117 13.6378L20.4995 13.5843C20.5246 13.7522 20.5437 13.9229 20.5566 14.0918L20.1658 14.1193ZM5.87963 13.2041L5.49595 13.1272C5.53204 12.9612 5.57477 12.7944 5.62298 12.6313L6.00003 12.7341C5.95425 12.8887 5.91381 13.0469 5.87963 13.2041ZM20.0228 13.1611C19.9873 13.0035 19.9458 12.8456 19.8992 12.6918L20.2755 12.5867C20.3246 12.749 20.3685 12.9155 20.4057 13.0818L20.0228 13.1611ZM6.15475 12.273L5.78613 12.1451C5.84607 11.9858 5.91292 11.8261 5.98473 11.6706L6.34289 11.8232C6.27479 11.9705 6.21152 12.1219 6.15475 12.273ZM19.7414 12.2319C19.6834 12.0809 19.6193 11.9304 19.5509 11.7843L19.908 11.6298C19.9803 11.7837 20.0479 11.9426 20.109 12.1018L19.7414 12.2319ZM6.5633 11.387L6.21713 11.2109C6.30016 11.0603 6.38945 10.9112 6.48257 10.7679L6.81497 10.9671C6.72683 11.1029 6.64214 11.2442 6.5633 11.387ZM19.328 11.3502C19.2487 11.2084 19.1632 11.0678 19.0741 10.9323L19.4054 10.7314C19.4993 10.8743 19.5894 11.0226 19.6732 11.1721L19.328 11.3502ZM7.09661 10.5648L6.77926 10.3441C6.88244 10.2072 6.99239 10.0717 7.10604 9.94124L7.40656 10.1825C7.29877 10.3064 7.19457 10.435 7.09661 10.5648ZM18.7903 10.5323C18.691 10.4023 18.586 10.2743 18.4781 10.1518L18.7774 9.90878C18.891 10.0379 19.0017 10.1727 19.1063 10.3098L18.7903 10.5323ZM7.74342 9.82182L7.46102 9.56115C7.58296 9.43928 7.71128 9.31961 7.8424 9.20557L8.10542 9.4846C7.98093 9.59276 7.85924 9.70631 7.74342 9.82182ZM18.1394 9.79303C18.0228 9.67789 17.9003 9.56508 17.7753 9.45765L18.0366 9.17715C18.1684 9.29045 18.2975 9.40939 18.4202 9.53066L18.1394 9.79303ZM8.49089 9.17188L8.24853 8.87619C8.38744 8.77122 8.53182 8.66992 8.6775 8.57487L8.89765 8.88599C8.75951 8.97626 8.62265 9.07241 8.49089 9.17188ZM17.3877 9.14714C17.2554 9.04841 17.1179 8.95287 16.9789 8.86321L17.1973 8.55085C17.3438 8.6453 17.4888 8.74598 17.6283 8.84997L17.3877 9.14714ZM9.32418 8.62827L9.12724 8.30294C9.27954 8.21792 9.43694 8.13672 9.59523 8.06187L9.76845 8.39946C9.61819 8.4705 9.4687 8.54743 9.32418 8.62827ZM16.5502 8.60744C16.404 8.52697 16.2539 8.45078 16.1039 8.38097L16.2748 8.04239C16.4328 8.11589 16.5911 8.19625 16.7451 8.28114L16.5502 8.60744ZM10.2279 8.20115L10.0799 7.85278C10.2432 7.78872 10.4112 7.72956 10.5792 7.67664L10.7011 8.03432C10.5419 8.08441 10.3827 8.14052 10.2279 8.20115ZM15.6424 8.18486C15.4861 8.12495 15.3262 8.06971 15.1672 8.02072L15.2869 7.66232C15.4546 7.71401 15.6231 7.7723 15.7878 7.83551L15.6424 8.18486ZM11.1856 7.89969L11.0899 7.53492C11.2617 7.49327 11.4366 7.45726 11.6098 7.42774L11.6784 7.79816C11.5143 7.8262 11.3484 7.86038 11.1856 7.89969ZM14.6819 7.88904C14.52 7.85082 14.354 7.81775 14.1884 7.79043L14.2547 7.41953C14.4294 7.44832 14.6045 7.48335 14.7753 7.52353L14.6819 7.88904ZM12.1777 7.72968L12.1361 7.35559C12.3121 7.33747 12.4906 7.32522 12.6663 7.31898L12.6806 7.69502C12.5139 7.7009 12.3448 7.71254 12.1777 7.72968ZM13.6887 7.72514C13.5227 7.7091 13.3535 7.69844 13.1855 7.69342L13.1974 7.31738C13.3745 7.32253 13.5529 7.33379 13.7279 7.35082L13.6887 7.72514Z" fill="#2D4574"/>
<path d="M8.87651 13.8397H10.6894C10.6894 13.5909 10.7116 13.3421 10.756 13.0932C10.8094 12.8355 10.8938 12.6045 11.0093 12.4001C11.1248 12.1868 11.2759 12.0179 11.4625 11.8935C11.658 11.7602 11.8935 11.6936 12.169 11.6936C12.5778 11.6936 12.9111 11.8224 13.1688 12.0802C13.4354 12.329 13.5687 12.68 13.5687 13.1332C13.5687 13.4176 13.502 13.6709 13.3687 13.893C13.2443 14.1152 13.0844 14.3152 12.8889 14.4929C12.7022 14.6706 12.4934 14.835 12.2623 14.9861C12.0313 15.1283 11.8136 15.2705 11.6092 15.4127C11.2093 15.6881 10.8271 15.9592 10.4628 16.2258C10.1073 16.4924 9.79628 16.7857 9.52968 17.1056C9.26308 17.4166 9.0498 17.7721 8.88984 18.172C8.73877 18.5719 8.66323 19.0429 8.66323 19.585H15.5149V17.9587H11.1026C11.3337 17.6388 11.6003 17.3588 11.9024 17.1189C12.2046 16.879 12.5156 16.6568 12.8355 16.4524C13.1555 16.2391 13.4709 16.0258 13.782 15.8126C14.1019 15.5993 14.3863 15.3638 14.6351 15.1061C14.8839 14.8395 15.0839 14.5373 15.2349 14.1996C15.386 13.8619 15.4615 13.4576 15.4615 12.9866C15.4615 12.5334 15.3727 12.1246 15.1949 11.7602C15.0261 11.3959 14.795 11.0893 14.5018 10.8405C14.2085 10.5916 13.8664 10.4006 13.4754 10.2673C13.0932 10.134 12.6889 10.0673 12.2623 10.0673C11.7025 10.0673 11.2048 10.1651 10.7694 10.3606C10.3428 10.5472 9.98735 10.8138 9.70297 11.1604C9.4186 11.4981 9.20532 11.898 9.06313 12.3601C8.92095 12.8133 8.85874 13.3065 8.87651 13.8397Z" fill="white"/>
</svg>

</svg>
