<svg xmlns="http://www.w3.org/2000/svg" data-name="Layer 1" viewBox="0 0 3600 1884"><defs><clipPath id="a"><path fill="#ffa30f" d="m1120.851 878.437-23.409-54c-2.466-5.688-10.806-9.2-16.5-6.726l-3.381 1.468-85.4 37.082c-5.7 2.473-7.2 10.261-4.736 15.949l23.41 54a12.176 12.176 0 0 0 5.3 5.877 10.229 10.229 0 0 0 9.09.452l88.777-38.55c5.698-2.474 9.321-9.848 6.849-15.552Z" class="colorfdbec1 svgShape"/></clipPath><clipPath id="b"><path fill="none" d="M0 0h3600v1884H0z"/></clipPath></defs><path fill="#fb600a" d="M2620.185 593.31a759.619 759.619 0 0 0-206.46 28.44c-168.78-217.32-432.57-357.21-729.06-357.21-439.771 0-807.605 307.678-900.116 719.494a181.855 181.855 0 0 0-215.533 214.25c-169.482 43.556-301.412 180.678-337.525 353.022A464.268 464.268 0 0 0 286.965 1884h2872.92a755.749 755.749 0 0 0 218.49-532.5c0-418.74-339.45-758.19-758.19-758.19Z" class="coloreff2f5 svgShape"/><g opacity=".5" fill="#000000" class="color000 svgShape"><path fill="#e3d5cd" d="M1286.662 1241.974c1.748.019 3.472.083 5.172.239a76.34 76.34 0 0 1 19.254 3.979 73.854 73.854 0 0 1 9.525 4.012 77.482 77.482 0 0 1 16.827 11.474 77.789 77.789 0 0 1 18.028 23.814 72.677 72.677 0 0 1 3.9 9.587 75.607 75.607 0 0 1 3.787 20c.12 1.7.147 3.428.128 5.176s-.083 3.472-.239 5.172a76.338 76.338 0 0 1-3.979 19.254 73.826 73.826 0 0 1-4.012 9.525 77.474 77.474 0 0 1-11.474 16.827 77.791 77.791 0 0 1-23.814 18.029 72.665 72.665 0 0 1-9.587 3.9 75.6 75.6 0 0 1-20 3.787c-1.7.12-3.428.147-5.176.128s-3.472-.083-5.172-.24a76.337 76.337 0 0 1-19.254-3.979 73.826 73.826 0 0 1-9.525-4.012 77.481 77.481 0 0 1-16.827-11.474 77.791 77.791 0 0 1-18.029-23.814 72.65 72.65 0 0 1-3.9-9.587 75.6 75.6 0 0 1-3.787-20c-.12-1.7-.147-3.428-.128-5.176s.083-3.472.24-5.172a76.337 76.337 0 0 1 3.979-19.254 73.839 73.839 0 0 1 4.012-9.525 77.483 77.483 0 0 1 11.474-16.827 77.79 77.79 0 0 1 23.814-18.028 72.642 72.642 0 0 1 9.587-3.9 75.6 75.6 0 0 1 20-3.787 63.82 63.82 0 0 1 5.176-.128Z" class="colorcddde3 svgShape"/><path fill="#cdb5a7" d="m1291.287 1293.151 15.813-37.5 3.989-9.456a73.854 73.854 0 0 1 9.525 4.012l-3.989 9.456-16.049 38.1 36.865-36.081a78.42 78.42 0 0 1 7.234 7.392l-7.322 7.166-29.079 28.483 37.7-15.349 9.494-3.877a72.677 72.677 0 0 1 3.9 9.587l-9.471 3.854-38.3 15.6 51.559.554c.12 1.7.147 3.428.128 5.176s-.083 3.472-.239 5.172l-50.938-.548 37.526 15.813 9.433 3.988a73.826 73.826 0 0 1-4.012 9.525l-9.456-3.966-38.1-16.072 28.915 29.543 7.166 7.322a78.384 78.384 0 0 1-7.392 7.234l-7.166-7.3-28.483-29.1 15.349 37.7 3.877 9.494a72.665 72.665 0 0 1-9.587 3.9l-3.854-9.471-15.6-38.3-.554 51.559c-1.7.12-3.428.147-5.176.128s-3.472-.083-5.172-.24l.548-50.938-15.813 37.526-3.988 9.433a73.826 73.826 0 0 1-9.525-4.012l3.966-9.456 16.072-38.075-29.543 28.915-7.322 7.143a78.4 78.4 0 0 1-7.234-7.392l36.4-35.626-37.7 15.349-9.494 3.854a72.65 72.65 0 0 1-3.9-9.587l9.471-3.854 38.3-15.6-51.559-.554c-.12-1.7-.147-3.428-.128-5.176s.083-3.472.24-5.172l50.938.548-37.526-15.813-9.433-3.988a73.839 73.839 0 0 1 4.012-9.525l9.456 3.989 38.1 16.049-28.915-29.543-7.166-7.322a78.409 78.409 0 0 1 7.392-7.234l7.166 7.322 28.482 29.1-15.349-37.7-3.877-9.517a72.642 72.642 0 0 1 9.587-3.9l3.877 9.494 15.573 38.278.554-51.559c1.7-.12 3.428-.147 5.176-.128s3.472.083 5.172.239Z" class="colora7c3cd svgShape"/><circle cx="1285.829" cy="1319.431" r="67.237" fill="#bc9b88" transform="rotate(-89.384 1285.83 1319.43)" class="color88aebc svgShape"/><circle cx="1285.829" cy="1319.431" r="63.452" fill="#d3bdb0" transform="rotate(-89.384 1285.83 1319.43)" class="colorb0cad3 svgShape"/><path fill="#bd9d8a" d="m1314.3 1346.122 6.561 9.761-12.4 8.334-6.265-9.322c-9.149 5.383-19.275 8.742-26.738 9.034l-3.482-19.618a50.889 50.889 0 0 0 24.1-8.025c5.892-3.96 7.175-6.61 5.757-8.72-5.2-7.739-35.038 21.378-50.464-1.574-6.679-9.937-5.083-23.138 7.98-34.854l-6.442-9.585 12.4-8.334 6.324 9.409c6.921-3.758 14.376-6.343 21.28-6.9l3.863 19.234c-8.137 1-14.858 3.347-20.222 6.952-6.068 4.078-6.821 7.138-5.4 9.248 4.965 7.387 34.861-21.642 50.109 1.046 6.381 9.502 5.077 22.378-6.961 33.914Z" class="color8ab0bd svgShape"/></g><g opacity=".44" fill="#000000" class="color000 svgShape"><path fill="#e3d5cd" d="M2553.625 971.484c-2.528 2.4-5.087 4.7-7.738 6.836a152.228 152.228 0 0 1-33.09 21.026 147.269 147.269 0 0 1-19.206 7.475 154.507 154.507 0 0 1-40.018 6.927 155.124 155.124 0 0 1-58.865-9.075 144.909 144.909 0 0 1-18.888-8.315 150.76 150.76 0 0 1-33.186-23.386c-2.535-2.273-4.969-4.7-7.368-7.233s-4.7-5.087-6.836-7.738a152.231 152.231 0 0 1-21.026-33.09 147.258 147.258 0 0 1-7.475-19.206 154.5 154.5 0 0 1-6.929-40.018 155.13 155.13 0 0 1 9.075-58.866 144.9 144.9 0 0 1 8.315-18.888 150.75 150.75 0 0 1 23.386-33.186c2.273-2.535 4.7-4.969 7.233-7.368s5.087-4.7 7.738-6.836a152.222 152.222 0 0 1 33.09-21.026 147.229 147.229 0 0 1 19.206-7.475 154.5 154.5 0 0 1 40.018-6.927 155.124 155.124 0 0 1 58.866 9.075 144.908 144.908 0 0 1 18.888 8.315A150.756 150.756 0 0 1 2552 745.891c2.535 2.272 4.969 4.7 7.368 7.233s4.7 5.087 6.836 7.738a152.224 152.224 0 0 1 21.026 33.09 147.232 147.232 0 0 1 7.475 19.206 154.5 154.5 0 0 1 6.927 40.018 155.118 155.118 0 0 1-9.075 58.866 144.863 144.863 0 0 1-8.315 18.888 150.754 150.754 0 0 1-23.386 33.187c-2.27 2.534-4.703 4.968-7.231 7.367Z" class="colorcddde3 svgShape"/><path fill="#cdb5a7" d="m2475.973 904.627 29.411 75.644 7.413 19.075a147.269 147.269 0 0 1-19.206 7.475l-7.413-19.075-29.9-76.825-2.706 102.827a156.369 156.369 0 0 1-20.617-.543l.537-20.423 2.1-81.14-32.675 74.3-8.213 18.728a144.909 144.909 0 0 1-18.888-8.315l8.212-18.664 33.193-75.489-74.591 70.766c-2.535-2.273-4.969-4.7-7.368-7.233s-4.7-5.087-6.836-7.738l73.693-69.914-75.677 29.442-19.041 7.382a147.258 147.258 0 0 1-7.475-19.206l19.043-7.447 76.856-29.866-82.4-2.168-20.425-.533a156.3 156.3 0 0 1 .543-20.617l20.391.5 81.172 2.135-74.3-32.675-18.728-8.213a144.9 144.9 0 0 1 8.315-18.888l18.663 8.212 75.489 33.193-70.766-74.591c2.273-2.535 4.7-4.969 7.233-7.368s5.087-4.7 7.738-6.836l69.914 73.692-29.443-75.677-7.382-19.041a147.229 147.229 0 0 1 19.206-7.475l7.447 19.043 29.834 76.823 2.168-82.4.569-20.389a156.3 156.3 0 0 1 20.617.542l-2.671 101.529 32.675-74.3 8.245-18.7a144.908 144.908 0 0 1 18.888 8.315l-8.211 18.664-33.193 75.489L2552 745.891c2.535 2.272 4.969 4.7 7.368 7.233s4.7 5.087 6.836 7.738l-73.693 69.914 75.677-29.442 19.041-7.382a147.232 147.232 0 0 1 7.475 19.206l-19.075 7.413-76.824 29.9 82.4 2.168 20.423.537a156.373 156.373 0 0 1-.542 20.617l-20.423-.537-81.163-2.136 74.3 32.675 18.76 8.247a144.863 144.863 0 0 1-8.315 18.888l-18.729-8.213-75.424-33.191 70.766 74.591c-2.273 2.535-4.7 4.969-7.233 7.368s-5.087 4.7-7.738 6.836Z" class="colora7c3cd svgShape"/><circle cx="2447.312" cy="859.426" r="134.076" fill="#bc9b88" transform="rotate(-43.493 2447.304 859.426)" class="color88aebc svgShape"/><circle cx="2447.312" cy="859.426" r="126.528" fill="#d3bdb0" transform="rotate(-43.493 2447.304 859.426)" class="colorb0cad3 svgShape"/><path fill="#bd9d8a" d="m2369.5 860.73-22.941-4.87 6.187-29.142 21.908 4.651c5.628-20.4 15.465-39.268 25.744-50.045l32.214 23.255c-10.956 11.93-19.985 29.02-23.364 44.935-2.94 13.847-1.1 19.423 3.861 20.476 18.188 3.861 20.5-79.239 74.439-67.787 23.355 4.958 39.391 26.075 36.949 60.98l22.528 4.783-6.187 29.142-22.114-4.7c-4.695 14.987-11.78 29.034-20.9 39.411l-32.224-22.174c10.262-12.725 16.628-25.413 19.3-38.021 3.028-14.261-.141-19.686-5.1-20.739-17.361-3.686-19.875 79.371-73.2 68.05-22.317-4.735-38.322-24.985-37.1-58.205Z" class="color8ab0bd svgShape"/></g><path fill="#e3d5cd" d="M2385.287 673.481c1.172 1.3 2.295 2.607 3.334 3.962a76.337 76.337 0 0 1 10.142 16.843 73.838 73.838 0 0 1 3.516 9.719 77.483 77.483 0 0 1 2.991 20.146 77.79 77.79 0 0 1-5.259 29.4 72.685 72.685 0 0 1-4.4 9.369 75.606 75.606 0 0 1-12.124 16.356c-1.17 1.244-2.419 2.434-3.715 3.607s-2.607 2.295-3.962 3.334a76.342 76.342 0 0 1-16.843 10.142 73.828 73.828 0 0 1-9.719 3.516 77.475 77.475 0 0 1-20.146 2.991 77.793 77.793 0 0 1-29.4-5.259 72.663 72.663 0 0 1-9.369-4.4 75.6 75.6 0 0 1-16.356-12.124c-1.244-1.17-2.435-2.418-3.607-3.715s-2.295-2.607-3.334-3.962a76.34 76.34 0 0 1-10.142-16.843 73.834 73.834 0 0 1-3.516-9.719 77.484 77.484 0 0 1-2.991-20.146 77.793 77.793 0 0 1 5.259-29.4 72.681 72.681 0 0 1 4.4-9.369 75.6 75.6 0 0 1 12.124-16.356c1.17-1.244 2.419-2.435 3.715-3.607s2.607-2.295 3.962-3.334a76.336 76.336 0 0 1 16.843-10.142 73.832 73.832 0 0 1 9.719-3.516 77.486 77.486 0 0 1 20.146-2.991 77.79 77.79 0 0 1 29.4 5.259 72.655 72.655 0 0 1 9.369 4.4 75.6 75.6 0 0 1 16.356 12.124 64.123 64.123 0 0 1 3.607 3.715Z" class="colorcddde3 svgShape"/><path fill="#cdb5a7" d="m2350.833 711.606 38.278-13.833 9.652-3.487a73.838 73.838 0 0 1 3.516 9.719l-9.652 3.487-38.875 14.064 51.518 2.6a78.439 78.439 0 0 1-.52 10.33l-10.232-.516-40.653-2.032 36.857 17.277 9.29 4.343a72.685 72.685 0 0 1-4.4 9.369l-9.258-4.342-37.446-17.55 34.579 38.248c-1.17 1.244-2.419 2.434-3.715 3.607s-2.607 2.295-3.962 3.334l-34.163-37.787 13.849 38.295 3.471 9.635a73.828 73.828 0 0 1-9.719 3.516l-3.5-9.637-14.048-38.897-2.08 41.286-.515 10.232a78.39 78.39 0 0 1-10.33-.52l.5-10.217 2.049-40.669-17.277 36.857-4.343 9.29a72.663 72.663 0 0 1-9.369-4.4l4.342-9.258 17.55-37.446-38.248 34.579c-1.244-1.17-2.435-2.418-3.607-3.715s-2.295-2.607-3.334-3.962l37.787-34.163-38.294 13.857-9.635 3.471a73.834 73.834 0 0 1-3.516-9.719l9.637-3.5 38.874-14.031-41.286-2.08-10.215-.531a78.4 78.4 0 0 1 .52-10.33l50.869 2.563-36.857-17.277-9.273-4.359a72.681 72.681 0 0 1 4.4-9.369l9.258 4.342 37.445 17.551-34.579-38.248c1.17-1.244 2.419-2.435 3.715-3.607s2.607-2.295 3.962-3.334l34.163 37.787-13.849-38.295-3.471-9.635a73.832 73.832 0 0 1 9.719-3.516l3.487 9.652 14.064 38.875 2.08-41.286.515-10.232a78.443 78.443 0 0 1 10.33.52l-.515 10.232-2.049 40.669 17.277-36.857 4.36-9.306a72.655 72.655 0 0 1 9.369 4.4l-4.343 9.29-17.549 37.413 38.248-34.579c1.244 1.17 2.434 2.419 3.607 3.715s2.295 2.607 3.334 3.962Z" class="colora7c3cd svgShape"/><circle cx="2327.827" cy="725.43" r="67.237" fill="#bc9b88" transform="rotate(-42.116 2327.821 725.43)" class="color88aebc svgShape"/><circle cx="2327.827" cy="725.43" r="63.452" fill="#d3bdb0" transform="rotate(-42.116 2327.823 725.43)" class="colorb0cad3 svgShape"/><path fill="#bd9d8a" d="m2327.543 764.456-2.718 11.443-14.535-3.453 2.6-10.927c-10.162-3.067-19.5-8.226-24.779-13.51l12.047-15.87a50.888 50.888 0 0 0 22.246 12.255c6.907 1.641 9.724.785 10.312-1.689 2.155-9.072-39.479-11.23-33.087-38.136 2.767-11.649 13.547-19.434 31.017-17.789l2.669-11.237 14.529 3.457-2.62 11.03c7.457 2.534 14.414 6.256 19.506 10.951l-11.507 15.889c-6.256-5.3-12.54-8.642-18.829-10.136-7.113-1.69-9.871-.167-10.459 2.308-2.057 8.659 39.552 10.921 33.234 37.517-2.644 11.13-12.987 18.91-29.626 17.897Z" class="color8ab0bd svgShape"/><path fill="#e3d5cd" d="M1517.142 463.665c.217 2.441.367 4.856.386 7.249a107.028 107.028 0 0 1-2.87 27.416 103.546 103.546 0 0 1-4.272 13.847 108.633 108.633 0 0 1-13.664 25.074 109.068 109.068 0 0 1-30.714 28.468 101.891 101.891 0 0 1-12.832 6.774 106 106 0 0 1-27.381 8.068c-2.36.4-4.763.683-7.2.9s-4.856.367-7.249.386a107.031 107.031 0 0 1-27.415-2.87 103.537 103.537 0 0 1-13.847-4.272 108.626 108.626 0 0 1-25.074-13.664 109.068 109.068 0 0 1-28.468-30.714 101.876 101.876 0 0 1-6.774-12.832 106 106 0 0 1-8.068-27.381c-.4-2.36-.683-4.763-.9-7.2s-.367-4.856-.386-7.249a107.028 107.028 0 0 1 2.87-27.415 103.516 103.516 0 0 1 4.271-13.847 108.629 108.629 0 0 1 13.664-25.074 109.068 109.068 0 0 1 30.714-28.468 101.88 101.88 0 0 1 12.832-6.774 106 106 0 0 1 27.381-8.068c2.36-.4 4.763-.683 7.2-.9s4.856-.367 7.249-.386a107.028 107.028 0 0 1 27.416 2.87 103.519 103.519 0 0 1 13.847 4.271 108.635 108.635 0 0 1 25.074 13.664 109.064 109.064 0 0 1 28.468 30.714 101.84 101.84 0 0 1 6.774 12.832 106 106 0 0 1 8.069 27.381c.403 2.356.682 4.759.899 7.2Z" class="colorcddde3 svgShape"/><path fill="#cdb5a7" d="m1446.387 477.243 54.523 16.839 13.747 4.248a103.546 103.546 0 0 1-4.272 13.847l-13.748-4.248-55.387-17.086 55.47 46.408a109.955 109.955 0 0 1-9.305 11.122l-11.017-9.217-43.786-36.6 26.663 50.459 6.731 12.706a101.891 101.891 0 0 1-12.832 6.774l-6.7-12.677-27.091-51.263 6.405 72.008c-2.36.4-4.763.683-7.2.9s-4.856.367-7.249.386l-6.328-71.141-16.836 54.556-4.251 13.715a103.537 103.537 0 0 1-13.847-4.272l4.216-13.745 17.118-55.39-37.191 44.453-9.217 11.017a109.9 109.9 0 0 1-11.122-9.3l9.185-11.014 36.635-43.789-50.457 26.661-12.706 6.731a101.876 101.876 0 0 1-6.774-12.832l12.677-6.7 51.263-27.091-72.008 6.405c-.4-2.36-.683-4.763-.9-7.2s-.367-4.856-.386-7.249l71.141-6.328L1317 452.5l-13.715-4.251a103.516 103.516 0 0 1 4.271-13.847l13.745 4.216 55.358 17.121-44.459-37.194-10.985-9.22a109.9 109.9 0 0 1 9.3-11.122l54.771 45.823-26.663-50.459-6.7-12.709a101.88 101.88 0 0 1 12.832-6.774l6.7 12.677 27.091 51.263-6.405-72.008c2.36-.4 4.763-.683 7.2-.9s4.856-.367 7.249-.386l6.328 71.141 16.837-54.555 4.251-13.715a103.519 103.519 0 0 1 13.847 4.271l-4.248 13.748-17.086 55.387 37.191-44.453 9.217-11.017a109.958 109.958 0 0 1 11.122 9.3l-9.217 11.017-36.632 43.792 50.459-26.663 12.738-6.733a101.84 101.84 0 0 1 6.774 12.832l-12.706 6.731-51.234 27.056 72.008-6.405c.4 2.36.683 4.763.9 7.2s.367 4.856.386 7.249Z" class="colora7c3cd svgShape"/><circle cx="1408.963" cy="473.288" r="94.27" fill="#bc9b88" transform="rotate(-5.083 1409.023 473.304)" class="color88aebc svgShape"/><circle cx="1408.963" cy="473.288" r="88.963" fill="#d3bdb0" transform="rotate(-5.083 1409.034 473.304)" class="colorb0cad3 svgShape"/><path fill="#bd9d8a" d="m1375.691 516.729-12.7 10.512-13.358-16.141 12.133-10.038c-8.784-12.014-14.879-25.674-16.327-36.045l26.884-7.59a71.348 71.348 0 0 0 14.551 32.5c6.345 7.669 10.221 9.09 12.967 6.817 10.073-8.334-34.7-45.906-4.83-70.623 12.934-10.7 31.573-10.312 49.737 6.281l12.476-10.323 13.353 16.139-12.247 10.133c6.206 9.133 10.851 19.173 12.586 28.728l-26.3 8.068c-2.528-11.213-6.738-20.262-12.515-27.245-6.534-7.9-10.907-8.522-13.654-6.249-9.614 7.955 35.048 45.622 5.517 70.054-12.358 10.232-30.504 10.206-48.273-4.978Z" class="color8ab0bd svgShape"/><path fill="#e3d5cd" d="M1464.965 1144.722c.642 2.514 1.209 5.012 1.636 7.51a113.313 113.313 0 0 1 1.661 29.137 109.625 109.625 0 0 1-2.11 15.2 115.017 115.017 0 0 1-10.017 28.525 115.474 115.474 0 0 1-27.257 34.97 107.882 107.882 0 0 1-12.258 9.26 112.228 112.228 0 0 1-27.242 13.086c-2.4.823-4.861 1.523-7.375 2.165s-5.012 1.209-7.51 1.636a113.317 113.317 0 0 1-29.137 1.661 109.611 109.611 0 0 1-15.2-2.11 115.009 115.009 0 0 1-28.525-10.017 115.481 115.481 0 0 1-34.97-27.257 107.864 107.864 0 0 1-9.26-12.258 112.221 112.221 0 0 1-13.086-27.242c-.823-2.4-1.523-4.861-2.165-7.375s-1.209-5.012-1.635-7.51a113.316 113.316 0 0 1-1.661-29.137 109.593 109.593 0 0 1 2.11-15.2 115.014 115.014 0 0 1 10.017-28.525 115.475 115.475 0 0 1 27.257-34.97 107.87 107.87 0 0 1 12.258-9.26 112.224 112.224 0 0 1 27.242-13.086c2.4-.823 4.861-1.523 7.375-2.165s5.012-1.209 7.51-1.635a113.314 113.314 0 0 1 29.138-1.661 109.589 109.589 0 0 1 15.2 2.11 115.015 115.015 0 0 1 28.525 10.017 115.472 115.472 0 0 1 34.97 27.257 107.837 107.837 0 0 1 9.26 12.258 112.223 112.223 0 0 1 13.086 27.242c.822 2.396 1.521 4.86 2.163 7.374Z" class="colorcddde3 svgShape"/><path fill="#cdb5a7" d="m1393.333 1170.938 59.84 8.329 15.088 2.1a109.625 109.625 0 0 1-2.11 15.2l-15.088-2.1-60.785-8.44 65.856 39.068a116.405 116.405 0 0 1-7.833 13.2l-13.08-7.759-51.978-30.807 36.441 48.2 9.193 12.134a107.882 107.882 0 0 1-12.258 9.26l-9.152-12.11-37.024-48.966 18.934 74.161c-2.4.823-4.861 1.523-7.375 2.165s-5.012 1.209-7.51 1.636l-18.706-73.268-8.321 59.873-2.111 15.055a109.611 109.611 0 0 1-15.2-2.11l2.069-15.08 8.473-60.793-31.308 52.776-7.759 13.08a116.356 116.356 0 0 1-13.2-7.833l7.726-13.071 30.84-51.987-48.2 36.441-12.134 9.193a107.864 107.864 0 0 1-9.26-12.258l12.109-9.152 48.965-37.024-74.161 18.934c-.823-2.4-1.523-4.861-2.165-7.375s-1.209-5.012-1.635-7.51l73.267-18.706-59.873-8.321-15.055-2.111a109.593 109.593 0 0 1 2.11-15.2l15.08 2.069 60.76 8.482-52.776-31.308-13.047-7.768a116.37 116.37 0 0 1 7.833-13.2l65.025 38.575-36.441-48.2-9.16-12.142a107.87 107.87 0 0 1 12.258-9.26l9.152 12.109 37.024 48.966-18.934-74.161c2.4-.823 4.861-1.523 7.375-2.165s5.012-1.209 7.51-1.635l18.706 73.268 8.321-59.873 2.111-15.055a109.589 109.589 0 0 1 15.2 2.11l-2.1 15.088-8.44 60.784 31.308-52.776 7.76-13.08a116.414 116.414 0 0 1 13.2 7.833l-7.759 13.08-30.841 51.987 48.2-36.441 12.167-9.2a107.837 107.837 0 0 1 9.26 12.258l-12.134 9.194-48.941 36.983 74.161-18.934c.823 2.4 1.523 4.861 2.165 7.375s1.209 5.012 1.636 7.51Z" class="colora7c3cd svgShape"/><circle cx="1353.553" cy="1173.166" r="99.808" fill="#bc9b88" transform="rotate(-14.322 1353.576 1173.181)" class="color88aebc svgShape"/><circle cx="1353.553" cy="1173.166" r="94.189" fill="#d3bdb0" transform="rotate(-14.322 1353.572 1173.18)" class="colorb0cad3 svgShape"/><path fill="#bd9d8a" d="m1326.167 1224.218-11.49 13.144-16.7-14.6 10.972-12.553c-11.221-11.062-19.913-24.3-23.189-34.892l26.8-12.5a75.541 75.541 0 0 0 20.73 31.491c7.934 6.935 12.226 7.761 14.71 4.92 9.109-10.421-44.069-42.073-17.053-72.981 11.7-13.382 31.242-16.143 53.044-1.891l11.283-12.908 16.7 14.6-11.076 12.671c8.038 8.489 14.6 18.192 18.035 27.882l-26.109 12.9c-4.548-11.287-10.485-20.029-17.709-26.343-8.171-7.142-12.847-7.051-15.331-4.209-8.695 9.947 44.38 41.717 17.674 72.27-11.173 12.789-30.141 15.846-51.291 2.999Z" class="color8ab0bd svgShape"/><path fill="#dbd7d4" d="M3000.609 1306.081c-3.2 27.2 13.87 51.554 13.87 51.554s22.253-19.735 25.451-46.931-13.87-51.554-13.87-51.554-22.253 19.735-25.451 46.931ZM2896.969 1373.237c1.355 27.35 22.226 48.541 22.226 48.541s18.673-23.151 17.317-50.5-22.226-48.541-22.226-48.541-18.672 23.15-17.317 50.5ZM3132.638 1294.644c-26.252 7.79-41.9 33.082-41.9 33.082s26.913 12.663 53.165 4.873 41.9-33.082 41.9-33.082-26.913-12.662-53.165-4.873ZM3065.823 1364.977c-23.939-13.3-52.957-6.77-52.957-6.77s9.794 28.084 33.732 41.381 52.957 6.77 52.957 6.77-9.794-28.085-33.732-41.381ZM2972.662 1428.12c-23.939-13.3-52.957-6.77-52.957-6.77s9.794 28.084 33.732 41.381 52.957 6.77 52.957 6.77-9.794-28.084-33.732-41.381Z" class="colordbd6d4 svgShape"/><path fill="#dbd7d4" d="m2767.762 1584.043 4.726 2.963c.344-.548 35.032-55.472 93.955-115 34.568-34.925 70.591-64.58 107.07-88.141 45.519-29.4 91.873-49.334 137.776-59.252l-1.178-5.451c-46.584 10.064-93.582 30.271-139.688 60.06-36.827 23.793-73.176 53.722-108.036 88.953-59.327 59.957-94.278 115.317-94.625 115.868ZM2840.3 1069.052c9.349 36.72 43.474 59.729 43.474 59.729s18.966-36.526 9.617-73.247-43.474-59.729-43.474-59.729-18.963 36.527-9.617 73.247ZM2739.7 1207.187c15.308 34.662 52.775 51.695 52.775 51.695s12.648-39.166-2.66-73.828-52.775-51.695-52.775-51.695-12.651 39.166 2.66 73.828ZM3005.205 988.831c-30.054 23.077-37.736 63.511-37.736 63.511s41.046 3.019 71.1-20.057 37.736-63.511 37.736-63.511-41.046-3.02-71.1 20.057ZM2953.748 1112.815c-37.518-5.312-71.772 17.5-71.772 17.5s26.574 31.428 64.092 36.74 71.772-17.5 71.772-17.5-26.574-31.428-64.092-36.74ZM2864.692 1240.572c-37.518-5.312-71.772 17.5-71.772 17.5s26.574 31.428 64.092 36.74 71.772-17.5 71.772-17.5-26.574-31.429-64.092-36.74Z" class="colordbd6d4 svgShape"/><path fill="#dbd7d4" d="m2677.268 1543.58 7.575 1.486c.173-.879 17.762-89.031 64.376-195.149 27.347-62.256 59.186-118.424 94.635-166.945 44.234-60.545 94.238-109.277 148.625-144.844l-4.224-6.459c-55.194 36.094-105.9 85.5-150.7 146.836-35.784 48.994-67.908 105.677-95.481 168.474-46.919 106.871-64.632 195.721-64.806 196.601Z" class="colordbd6d4 svgShape"/><path fill="#e6deda" d="M2638.1 1687.8H961.9a56.09 56.09 0 0 1 0-112.179h1676.2a56.09 56.09 0 0 1 0 112.179Z" class="colordae0e6 svgShape"/><path fill="#cbc5c2" d="M901.9 1396.2a107.684 107.684 0 0 0-25.97 24.2l-.682-1.182a646.886 646.886 0 0 0-20.665-33.3 107.685 107.685 0 0 0 28.945-21.9 106.18 106.18 0 0 0 20.488-33.472 106.179 106.179 0 0 0-31.645 23.211 107.689 107.689 0 0 0-19.164 30.094 613.525 613.525 0 0 0-21.836-30.6 107.747 107.747 0 0 0 22.2-28.4 106.181 106.181 0 0 0 11.248-37.6 106.18 106.18 0 0 0-24.658 30.531 107.6 107.6 0 0 0-10.684 32.985 548.31 548.31 0 0 0-26.009-31.359 107.737 107.737 0 0 0 17.628-31.486 106.18 106.18 0 0 0 5.381-38.874 106.181 106.181 0 0 0-19.713 33.935 107.6 107.6 0 0 0-5.529 33.95 483.767 483.767 0 0 0-19.9-20.7 107.734 107.734 0 0 0 4.393-35.727 106.179 106.179 0 0 0-9.712-38.024 101.246 101.246 0 0 0 1.307 69.875q-7.372-7.046-15.172-13.842a101.251 101.251 0 0 0-53.835-44.638 101.231 101.231 0 0 0 50.2 48.376q8.076 7.009 15.683 14.323a107.579 107.579 0 0 0-34.235 1.858 106.18 106.18 0 0 0-35.858 15.949 106.182 106.182 0 0 0 39.227-1.17 107.694 107.694 0 0 0 33.357-14.243 480.196 480.196 0 0 1 20.035 20.747 107.687 107.687 0 0 0-33.66 11.924 106.177 106.177 0 0 0-29.723 25.626 106.18 106.18 0 0 0 37.218-12.45 107.686 107.686 0 0 0 27.827-23.277c9.622 10.673 18.544 21.481 26.759 32.142a107.678 107.678 0 0 0-34.392 8.889 106.186 106.186 0 0 0-31.869 22.9 106.182 106.182 0 0 0 38.171-9.115 107.723 107.723 0 0 0 29.663-20.619 609.871 609.871 0 0 1 22.069 30.877 107.7 107.7 0 0 0-34.5 7.633 106.179 106.179 0 0 0-32.675 21.737 106.182 106.182 0 0 0 38.475-7.732 107.708 107.708 0 0 0 30.207-19.371 644.25 644.25 0 0 1 20.39 32.862l.862 1.493a107.252 107.252 0 0 0-36.134 12.313 106.178 106.178 0 0 0-29.723 25.626 106.181 106.181 0 0 0 37.218-12.45 107.253 107.253 0 0 0 29.054-24.768c23.577 41.058 35.331 71.8 35.449 72.112l4.872-1.847c-.118-.311-11.738-30.72-35.007-71.47a107.68 107.68 0 0 0 32.863-13.817 106.181 106.181 0 0 0 28.207-27.285 106.181 106.181 0 0 0-36.446 14.55Z" class="colorc2c4cb svgShape"/><path fill="#cbc5c2" d="M1098.145 1379.715c-22.969 7.889-40.71 20.646-48.654 26.994-.2-.685-.391-1.368-.59-2.056a1017.31 1017.31 0 0 0-18.843-58.473c9.274-2.18 31.154-8.4 52.309-22.367a166.433 166.433 0 0 0 43.82-43.17 166.431 166.431 0 0 0-56.912 23.343c-20.46 13.51-34.518 30.49-40.529 38.532a963.086 963.086 0 0 0-21.645-54.808c8.6-4.612 27.861-16.166 44.5-34.815a166.43 166.43 0 0 0 31.324-52.941 166.434 166.434 0 0 0-49.051 37.12 168.649 168.649 0 0 0-28.722 46.136c-8.242-18.84-17.455-38.15-27.708-57.536 7.768-5.846 25.087-20.217 38.72-41.23a166.429 166.429 0 0 0 22.883-57.1 166.431 166.431 0 0 0-42.816 44.167 168.652 168.652 0 0 0-21.246 49.553c-7-13.026-14.468-26.069-22.444-39.015 5.011-8.418 15.534-28.2 20.19-52.686a166.429 166.429 0 0 0-.4-61.512 158.695 158.695 0 0 0-24.429 106.784q-8.551-13.506-17.846-26.792a158.7 158.7 0 0 0-65.015-88.254 158.673 158.673 0 0 0 58.065 92.564q9.636 13.715 18.442 27.716a168.618 168.618 0 0 0-52.779-10.117 166.429 166.429 0 0 0-60.575 10.7 166.434 166.434 0 0 0 60.113 13.051c25.31.492 47.1-5.933 56.125-9.055 8.051 12.977 15.577 26.062 22.633 39.134-9.991-.723-32.064-1.223-55.71 5.412a166.43 166.43 0 0 0-54.9 27.744 166.429 166.429 0 0 0 61.321-4.867c24.385-6.842 43.4-19.3 51.129-24.887 10.6 19.873 20.086 39.686 28.553 59.01-10.025-1.6-31.774-3.957-55.676.519a166.436 166.436 0 0 0-57.137 22.788 166.432 166.432 0 0 0 61.511.566c24.677-4.622 44.588-15.206 52.917-20.15a957.827 957.827 0 0 1 21.9 55.312c-10.093-1.966-31.557-5.006-55.362-1.431a166.428 166.428 0 0 0-57.922 20.711 166.435 166.435 0 0 0 61.45 2.785c24.51-3.681 44.585-13.334 53.274-18.046a1008.717 1008.717 0 0 1 18.593 57.7q.377 1.3.746 2.6a168.11 168.11 0 0 0-59.62 5.068 166.43 166.43 0 0 0-54.9 27.744 166.431 166.431 0 0 0 61.321-4.867 168.105 168.105 0 0 0 53.559-26.691c20.342 71.37 26.6 122.578 26.659 123.1l8.11-.968c-.062-.517-6.24-51.167-26.229-121.951 10.06.143 32.059-.641 55.213-8.593a166.433 166.433 0 0 0 53.224-30.841 166.431 166.431 0 0 0-60.944 8.366Z" class="colorc2c4cb svgShape"/><path fill="#b7aea9" d="M1165.484 479.775a33.417 33.417 0 0 1 32.123 24.217h-64.247a33.417 33.417 0 0 1 32.124-24.217ZM1008.908 468.318a49.227 49.227 0 0 1 47.321 35.674h-94.642a49.226 49.226 0 0 1 47.321-35.674Z" class="colorb7aea9 svgShape"/><path fill="#b7aea9" d="M1155.765 503.992c-7.256-25.108-36.01-43.862-70.381-43.862s-63.125 18.754-70.381 43.862Z" class="colorb7aea9 svgShape"/><path fill="#cac4c0" d="M2670.63 1480.206a141.832 141.832 0 0 1 136.342 102.786h-272.683a141.832 141.832 0 0 1 136.341-102.786Z" class="colorcac4c0 svgShape"/><path fill="#cac4c0" d="M2830.188 1512.06a97.878 97.878 0 0 1 94.089 70.932H2736.1a97.878 97.878 0 0 1 94.088-70.932ZM2627.386 1582.992c-18.313-63.369-90.884-110.7-177.63-110.7s-159.317 47.331-177.63 110.7Z" class="colorcac4c0 svgShape"/><path fill="#ffffff" d="M1090.908 607.551a112.348 112.348 0 0 1 108 81.419h-216a112.348 112.348 0 0 1 108-81.419ZM564.5 569.032a165.5 165.5 0 0 1 159.092 119.937H405.408A165.5 165.5 0 0 1 564.5 569.032Z" class="colorfff svgShape"/><path fill="#ffffff" d="M1058.233 688.969c-24.4-84.414-121.067-147.463-236.622-147.463s-212.227 63.05-236.622 147.463Z" class="colorfff svgShape"/><path fill="#d9c7bc" d="M856.547 663.3a76.742 76.742 0 0 1 73.771 55.615H782.776a76.742 76.742 0 0 1 73.771-55.615Z" class="colorbcd2d9 svgShape"/><path fill="#d9c7bc" d="M942.88 680.538a52.959 52.959 0 0 1 50.909 38.38H891.971a52.959 52.959 0 0 1 50.909-38.38ZM833.149 718.918c-9.909-34.287-49.175-59.9-96.111-59.9s-86.2 25.61-96.111 59.9Z" class="colorbcd2d9 svgShape"/><path fill="#cbc5c2" d="M913.82 1469.6a172.443 172.443 0 0 0-165.767 124.969h331.534A172.443 172.443 0 0 0 913.82 1469.6Z" class="colorc2c4cb svgShape"/><path fill="#cbc5c2" d="M719.827 1508.328a119 119 0 0 0-114.4 86.241h228.79a119 119 0 0 0-114.39-86.241ZM966.4 1594.568c22.266-77.045 110.5-134.591 215.967-134.591s193.7 57.546 215.967 134.591Z" class="colorc2c4cb svgShape"/><path fill="#d17705" d="M2257.175 1546.223a56.257 56.257 0 0 1 54.079 40.769H2203.1a56.257 56.257 0 0 1 54.075-40.769Z" class="color806b6d svgShape"/><path fill="#d17705" d="M2320.462 1558.858a38.822 38.822 0 0 1 37.319 28.135h-74.639a38.822 38.822 0 0 1 37.32-28.135ZM2240.022 1586.992c-7.264-25.135-36.048-43.908-70.456-43.908s-63.192 18.774-70.455 43.908Z" class="color806b6d svgShape"/><path fill="#ffffff" d="M3021.972 817.451a34.35 34.35 0 0 1 33.021 24.894h-66.041a34.35 34.35 0 0 1 33.02-24.894ZM2861.023 805.674a50.6 50.6 0 0 1 48.642 36.671h-97.285a50.6 50.6 0 0 1 48.643-36.671Z" class="colorfff svgShape"/><path fill="#ffffff" d="M3011.981 842.345c-7.459-25.81-37.016-45.087-72.347-45.087s-64.888 19.278-72.347 45.087Z" class="colorfff svgShape"/><path fill="#80776c" d="M1315.785 1668.891a47.056 47.056 0 0 1 45.234 34.1h-90.469a47.056 47.056 0 0 1 45.235-34.1Z" class="color6c7080 svgShape"/><path fill="#80776c" d="M1368.721 1679.459a32.473 32.473 0 0 1 31.216 23.533h-62.432a32.473 32.473 0 0 1 31.216-23.533ZM1301.437 1702.992c-6.076-21.024-30.153-36.727-58.933-36.727s-52.857 15.7-58.933 36.727Z" class="color6c7080 svgShape"/><path fill="#80776c" d="M1179.34 1552.852a8.829 8.829 0 0 1 11.4 11.282 254.153 254.153 0 0 1 21.557 21.981c-1.61-8.173-3.385-20.455-2.733-32.675a8.865 8.865 0 1 1 4.746.5c-.912 18.294 3.924 37.24 4.706 40.16a382.941 382.941 0 0 1 55.167 93.809l-4.452 1.7a357.8 357.8 0 0 0-21.588-44.189 381.47 381.47 0 0 0-15.5-24.931c-3.361-.682-16.062-2.8-32.952.065a8.825 8.825 0 1 1-1.3-4.61 103.013 103.013 0 0 1 30.494-.9c-11.108-15.765-24.824-32.465-40.936-47.007a8.834 8.834 0 1 1-8.6-15.179Z" class="color6c7080 svgShape"/><path fill="#80776c" d="M1288.1 1613.249c-2.905-1.823-14.046-8.275-30.863-11.546a8.824 8.824 0 1 1 .4-4.774 103 103 0 0 1 28.856 9.9c-4.843-18.667-11.8-39.128-21.755-58.414a8.85 8.85 0 1 1 3.987-2.664 254.124 254.124 0 0 1 12.433 28.165c1.372-8.216 4.037-20.337 8.951-31.543a8.863 8.863 0 1 1 4.267 2.136c-7.3 16.8-9.444 36.233-9.741 39.243a382.954 382.954 0 0 1 18.59 107.228l-4.764.02a357.746 357.746 0 0 0-4.64-48.961 381.717 381.717 0 0 0-5.721-28.79Z" class="color6c7080 svgShape"/><path fill="#ffffff" d="M1408.951 459.992v1153h782.098v-1153h-782.098z" class="colorfff svgShape"/><path fill="#e0d1c8" d="M1606.427 628.823c0 18.114-15.293 28.655-43.949 28.655h-58.5V553.547h55.529c28.655 0 42.017 11.433 42.017 27.171 0 9.651-4.9 17.668-14.4 22.419 12.176 4.455 19.303 13.363 19.303 25.686Zm-68-50.777v15.441h16.332c7.869 0 11.433-2.673 11.433-7.72s-3.563-7.721-11.433-7.721Zm32.665 46.769c0-5.345-3.861-8.166-11.581-8.166h-21.083v16.331h21.083c7.719 0 11.58-2.82 11.58-8.166ZM1618.749 553.547h35.04v103.931h-35.04ZM1670.714 553.547h35.04v76.76h46.917v27.171h-81.956ZM1762.32 553.547h35.04v76.76h46.916v27.171h-81.956Z" class="colorc8dae0 svgShape"/><path fill="#ffa30f" d="M1889.276 643.144h191.284v15.216h-191.284zM1504.276 697.278h576.284v15.216h-576.284zM1504.276 751.411h576.284v15.216h-576.284z" class="colorfdbec1 svgShape"/><path fill="#cbc5c2" d="M1973.049 553.439h107.218v47.042h-107.218z" class="colorc2c4cb svgShape"/><path fill="#e0d1c8" d="M1647.915 872.024h299.361v15.311h-299.361zM1647.915 936.02h299.361v15.311h-299.361zM1519.44 1000.017h507.538v15.311H1519.44zM1647.915 1097.604h299.361v15.311h-299.361zM1647.915 1161.6h299.361v15.311h-299.361zM1519.44 1225.597h507.538v15.311H1519.44zM1647.915 1323.184h299.361v15.311h-299.361zM1647.915 1387.18h299.361v15.311h-299.361zM1519.44 1451.177h507.538v15.311H1519.44z" class="colorc8dae0 svgShape"/><path fill="none" stroke="#b7aea9" stroke-linecap="round" stroke-linejoin="round" stroke-width="10" d="m1978.749 907.577 28.74 28.74 67.597-67.597M1976.749 1130.987l28.74 28.74 67.597-67.597M1976.749 1356.989l28.74 28.741 67.597-67.597" class="colorStrokeb7aea9 svgStroke"/><path fill="#e6deda" d="M1519.559 920.992c0-25.957 47-91 47-91s47 65.043 47 91a47 47 0 1 1-94 0ZM1619.313 1101.5a52.507 52.507 0 1 0-87.256 39.347 32.326 32.326 0 0 1 10.732 24.274v1.394a7.047 7.047 0 0 0 7.047 7.047h33.94a7.047 7.047 0 0 0 7.047-7.047v-1.4a32.846 32.846 0 0 1 10.973-24.482 52.344 52.344 0 0 0 17.517-39.133Z" class="colordae0e6 svgShape"/><path fill="none" stroke="#3b3329" stroke-miterlimit="10" stroke-width="1.33" d="M1566.806 1105.319c-7.095.02-16.85-5.1-17.294-13.3-.617-11.412 15.52-10.642 12.122 2.151-3.982 14.994-21.434 6.052-21.434 6.052M1593.412 1100.22s-17.452 8.942-21.434-6.052c-3.4-12.793 12.739-13.564 12.122-2.151-.443 8.2-10.2 13.323-17.294 13.3" class="colorStroke292b3b svgStroke"/><path fill="none" stroke="#3b3329" stroke-miterlimit="10" stroke-width="1.33" d="M1541.224 1100.691s19.2 30.078 20.558 72.871M1592.388 1100.691s-19.2 30.078-20.558 72.871M1566.806 1105.319v68.242" class="colorStroke292b3b svgStroke"/><path fill="#ffd1b5" d="M1569.359 1208.88h-5.106a8.4 8.4 0 0 1-8.4-8.4v-20.7a6.544 6.544 0 0 1 6.544-6.544h8.822a6.544 6.544 0 0 1 6.544 6.544v20.7a8.4 8.4 0 0 1-8.404 8.4Z" class="colorffb8b5 svgShape"/><path fill="#fbb890" d="M1576.865 1203.152h-20.119a8.908 8.908 0 0 1-8.908-8.908V1173.4a.167.167 0 0 1 .167-.167h37.6a.167.167 0 0 1 .167.167v20.847a8.908 8.908 0 0 1-8.907 8.905Z" class="colorff9b96 svgShape"/><path fill="#ffd1b5" d="M1586.376 1198.027h-39.141a2.789 2.789 0 1 1 0-5.578h39.141a2.789 2.789 0 1 1 0 5.578ZM1586.376 1189.976h-39.141a2.789 2.789 0 1 1 0-5.577h39.141a2.789 2.789 0 1 1 0 5.577ZM1586.376 1181.925h-39.141a2.789 2.789 0 1 1 0-5.577h39.141a2.789 2.789 0 1 1 0 5.577Z" class="colorffb8b5 svgShape"/><path fill="#e6deda" d="M1602.637 1332.484s8.48 16.307 0 24.461-38.812 6.2-29.353-21.2 26.092-47.292 2.935-71.753c0 0-.532 18.749-24.787 45.008-39.464 42.726-41.747 105.346 13.372 115.13s71.096-66.53 37.833-91.646Z" class="colordae0e6 svgShape"/><path fill="#ffa30f" d="M1554.671 1351.992s-.765 7.747-11.481 24.533c-5.554 8.7-6.671 18.474-3.866 24.9 7.235 16.569 24.742 14 29.124 9.964 23.439-21.589-13.777-59.397-13.777-59.397Z" class="colorfdbec1 svgShape"/><path fill="#c6bfbb" d="M1259.368 904.492c9.666-6.348 20.076-11.948 27.822-20.534 18.093-20.056 17.063-50.093 20.3-76.908 6.9-57.088 39.286-110.421 86.08-143.678L1385.609 645a6.038 6.038 0 0 0-7.944-3.137L929.8 836.344a6.038 6.038 0 0 0-3.135 7.939l109.706 253.071a6.038 6.038 0 0 0 7.944 3.137l130.45-56.647c6.018-55.744 37.654-108.517 84.603-139.352Z" class="colorc6bfbb svgShape"/><path fill="#b7aea9" d="m1495.315 898.071-101.742-234.7c-46.794 33.258-79.182 86.59-86.08 143.678-3.24 26.815-2.211 56.853-20.3 76.909-7.746 8.586-18.156 14.186-27.822 20.534-46.95 30.835-78.586 83.605-84.6 139.353L1492.18 906.01a6.038 6.038 0 0 0 3.135-7.939Z" class="colorb7aea9 svgShape"/><path fill="#ffffff" d="M1219.168 963.143h103.751v6.509h-103.751z" transform="rotate(-23.497 1271.016 966.384)" class="colorfff svgShape"/><path fill="#ffffff" d="M1210.005 945.975h66.178v6.509h-66.178z" transform="rotate(-23.497 1243.069 949.218)" class="colorfff svgShape"/><path fill="#ffffff" d="M1035.992 1025.694h184.839v6.509h-184.839z" transform="rotate(-23.497 1128.386 1028.933)" class="colorfff svgShape"/><path fill="#ffffff" d="M1025.58 1001.744h184.839v6.51H1025.58z" transform="rotate(-23.497 1117.972 1004.984)" class="colorfff svgShape"/><path fill="#e0d1c8" d="M1403.188 865.421c-9.105-8.821-23.488-12.648-37.855-8.819-20.725 5.525-33.559 24.883-28.666 43.238s25.66 28.756 46.385 23.231c13-3.464 22.886-12.369 27.251-23.053a23.041 23.041 0 0 1-6.281-5.485c-6.593-8.313-6.561-19.908-.834-29.112Z" class="colorc8dae0 svgShape"/><path fill="#797064" d="M1447.027 860.421c-8.6-10.84-25.2-11.99-37.071-2.571a29.674 29.674 0 0 0-6.768 7.571 31.169 31.169 0 0 1 8.53 14.412 31.537 31.537 0 0 1-1.415 20.184c9.011 5.371 21.381 4.55 30.79-2.914 11.876-9.419 14.533-25.842 5.934-36.682Z" class="color646879 svgShape"/><path fill="#a89387" d="M1411.718 879.834a31.169 31.169 0 0 0-8.53-14.412c-5.727 9.2-5.759 20.8.835 29.112a23.041 23.041 0 0 0 6.281 5.485 31.537 31.537 0 0 0 1.414-20.185Z" class="color8987a8 svgShape"/><path fill="#ffa30f" d="m1120.851 878.437-23.409-54c-2.466-5.688-10.806-9.2-16.5-6.726l-3.381 1.468-85.4 37.082c-5.7 2.473-7.2 10.261-4.736 15.949l23.41 54a12.176 12.176 0 0 0 5.3 5.877 10.229 10.229 0 0 0 9.09.452l88.777-38.55c5.698-2.474 9.321-9.848 6.849-15.552Z" class="colorfdbec1 svgShape"/><g clip-path="url(#a)" fill="#000000" class="color000 svgShape"><path fill="none" stroke="#ffffff" stroke-miterlimit="10" stroke-width="2.547" d="m1019.33 823.738 18.643 41.523 33.557-13.191 11.652 27.173-34.59 14.448 10.621 26.623" class="colorStrokefff svgStroke"/></g><path fill="#d17705" d="M1582.6 1601.591a40.571 40.571 0 0 1 39 29.4h-78a40.571 40.571 0 0 1 39-29.4ZM1392.511 1587.681a59.764 59.764 0 0 1 57.45 43.311h-114.9a59.764 59.764 0 0 1 57.45-43.311Z" class="color806b6d svgShape"/><path fill="#d17705" d="M1570.805 1630.992c-8.809-30.483-43.719-53.251-85.448-53.251s-76.638 22.768-85.448 53.251Z" class="color806b6d svgShape"/><path fill="#8f847d" d="m1783.044 1084.258-19.846-1.4c-.194 2.717-1.573 28.581-.307 38.281.807 2.976 5.78 4.218 11.106 2.773 4.788-1.3 8.2-4.324 8.262-7.085l.023-.005c-.759-5.816.094-23.07.762-32.564Z" class="color8f7d7f svgShape"/><path fill="#c0a18f" d="M1757.14 1122.049c9.228-10.14 16.843-1.2 17.157-1.048 3.681 1.824 4.568 9.8 1.991 14.1l-62.411 92.9c-.857 1.591-3.52.216-5.139-.586a3.332 3.332 0 0 1-1.291-1.135c-2.976-3.022-3.725-8.578-2.433-12.713 6.73-21.53 40.126-78.333 52.126-91.518Z" class="color8fb3c0 svgShape"/><path fill="#8f847d" d="M1749.76 1639.476s3.64 12.376 1.456 13.1-53.145 2.912-56.785.728 7.28-5.824 7.28-5.824 24.024-6.552 37.857-8.008c0 .004 10.192-.724 10.192.004Z" class="color8f7d7f svgShape"/><path fill="#8f847d" d="M1756.816 1471.3c-2.912-5.824-6.212-8.736-11.648-8.736a10.554 10.554 0 0 0-10.548 10.914l5.68 166.385a4.871 4.871 0 0 0 9.736 0l.245-7.19c9.335-113.873 15.271-140.256 6.535-161.373Z" class="color8f7d7f svgShape"/><path fill="#8f847d" d="M1773.945 1324.094c-4.147-19.487-14.562-22.791-21.763-22.541a10.488 10.488 0 0 0-12.755 9.946l-5.742 166.383a4.864 4.864 0 0 0 6.986 4.55 16.874 16.874 0 0 0 12.038-12.507c7.335-31.947 26.628-120.492 21.236-145.831ZM1815.017 1306.571c-9.561-17.48-20.485-17.659-27.312-15.354a10.489 10.489 0 0 0-9.367 13.185l42.206 161.043a4.864 4.864 0 0 0 8 2.356 16.874 16.874 0 0 0 7.946-15.434c-2.136-32.707-9.041-123.067-21.473-145.796Z" class="color8f7d7f svgShape"/><path fill="#4a3d2d" d="M1719.418 1641.868c5.279 2.317 14.047 3.834 23.979 3.834 3.175 0 6.228-.157 9.09-.443.662 4.5.953 9.737-1.229 9.989-3.849.444-59.257 2.125-59.582-.444-.642-5.074 14.224-9.921 27.742-12.936Z" class="color2d334a svgShape"/><path fill="#8f847d" d="M1847.718 1639.476s3.64 12.376 1.456 13.1-53.145 2.912-56.785.728 7.28-5.824 7.28-5.824 24.024-6.552 37.857-8.008c0 .004 10.192-.724 10.192.004Z" class="color8f7d7f svgShape"/><path fill="#8f847d" d="M1844.132 1470.914c-3.258-5.638-6.727-8.346-12.153-8.019a10.554 10.554 0 0 0-9.871 11.529l15.692 165.741a4.871 4.871 0 0 0 9.718-.586l-.188-7.192c2.458-114.236 6.794-140.926-3.198-161.473Z" class="color8f7d7f svgShape"/><path fill="#4a3d2d" d="M1817.375 1641.868c5.279 2.317 14.047 3.834 23.979 3.834a91.79 91.79 0 0 0 9.091-.443c.662 4.5.953 9.737-1.229 9.989-3.849.444-59.257 2.125-59.582-.444-.643-5.074 14.224-9.921 27.741-12.936Z" class="color2d334a svgShape"/><path fill="#c0a18f" d="M1851.687 1492.044c-20.77-6.722-47.557-.958-73.7-2.123l-9.248-.4a71.335 71.335 0 0 1-18.767-3.629c-4-1.449-22.037 6.526-25.684 3.912 2.495-5.292 4.429-141.973 16.739-197.436 3.906-17.62 13.759-83.529 10.1-93.281-10.3-27.442-6.59-23.681-3.944-42.4 2.306-16.38 7.144-31.89 12.505-37.534a8.228 8.228 0 0 1 2.331-1.8c10.307-4.952 18.477-3.818 25.01 1.751 6.073 5.166 10.729 14.168 14.37 25.678 6.016 19.025 16.184 83.265 15.075 109.579 4.917 30.369 37.279 238.351 35.213 237.683Z" class="color8fb3c0 svgShape"/><path fill="#c0a18f" d="M1775.945 1142.211c-8.77-10.676 1.275-17.05 1.476-17.343 2.363-3.433 8.671-6.616 12.583-3.429l77.108 82.56c6.234 8.311 3.86 10.9 2.821 12.409a3.4 3.4 0 0 1-1.323 1.134c-3.455 2.557-7.117 1.633-11.056-.244-20.511-9.775-70.205-61.205-81.609-75.087Z" class="color8fb3c0 svgShape"/><path fill="#4a3d2d" d="M1777.635 1107.682s18.189-6.973 19.264-25.414c1.444-24.762-23.816-36.4-37.218-27.977-12.339 7.756-9.982 18.4-8.459 21s26.413 32.391 26.413 32.391Z" class="color2d334a svgShape"/><path fill="#8f847d" d="M1781.641 1087.147c-3.007 15.662-16.354 26.265-25.926 24.427s-11.742-15.419-8.735-31.081 12.3-22.143 21.867-20.306 15.8 11.298 12.794 26.96Z" class="color8f7d7f svgShape"/><path fill="#4a3d2d" d="M1755.048 1061.7s-2.361 18.094 12.47 30.035c7.64 6.151 25.731-1.028 25.731-1.028l-5.212-27.365s-14.883-8.31-20.453-8.8c-.477-.042-12.536 7.158-12.536 7.158Z" class="color2d334a svgShape"/><path fill="#4a3d2d" d="M1750.163 1070.617s17.449-6.393 20.014-12.491-6.411-5.3-6.411-5.3a23.039 23.039 0 0 0-13.603 17.791Z" class="color2d334a svgShape"/><path fill="#8f847d" d="M1712.434 1136.816a12.581 12.581 0 0 0 1.294-11.11c-3.4-9.5-10.424-27.2-16.227-29.427-7.983-3.059-1.673 28.835 13.712 42.412Z" class="color8f7d7f svgShape"/><path fill="#c0a18f" d="M1716.263 1130.84c3.879 23.035 4.793 74.248 1.676 88.724-2.586 12.008-9.838 10.262-10.159 10.285-3.758.275-8.753-4.763-8.712-9.243l6.019-89.614Z" class="color8fb3c0 svgShape"/><path fill="#8f847d" d="M1860.138 1284.437a12.581 12.581 0 0 0-10.421 4.063c-6.8 7.457-19.147 21.956-18.392 28.124 1.038 8.486 26.257-12.034 31.043-31.987Z" class="color8f7d7f svgShape"/><path fill="#c0a18f" d="M1851.687 1285.258c-2.822-20.639-1.93-63.86 1.459-74.909 2.811-9.165 9.492-5.195 9.79-5.1 3.5 1.069 6.876 8.352 6.57 14.388l-7.428 69.363Z" class="color8fb3c0 svgShape"/><path fill="#4a3d2d" d="M1870.043 1179a63.758 63.758 0 0 1-17.352.088c-14.283-1.913-36.674-5.821-52.037-32.159-7.234-12.4-13.983-24.382-22.825-28.848-14.508-7.328-14.632-35.226-14.632-35.226 1.918-.353 15.457-2.692 28.983 2.247 11.707 4.275 23.6 17 38.111 41.888 7.13 12.224 16.088 19.138 26.626 20.549a30.9 30.9 0 0 0 12.778-.926l11.542 29.666a53.253 53.253 0 0 1-11.194 2.721Z" class="color2d334a svgShape"/><path fill="#4a3d2d" d="M1881.651 1175.771a17.906 17.906 0 0 1-25.81-5.69 19.717 19.717 0 0 1-2.223-11.982c1.577-15.276 21.28-19.961 30.269-11.375 9.3 8.883 6.9 19.61 2.618 24.691a24.933 24.933 0 0 1-4.854 4.356Z" class="color2d334a svgShape"/><path fill="#4a3d2d" d="M1855.314 1165.119a19.106 19.106 0 0 1-27.54-6.072 21.039 21.039 0 0 1-2.372-12.785c1.683-16.3 22.707-21.3 32.3-12.138 9.924 9.479 7.361 20.925 2.793 26.346a26.605 26.605 0 0 1-5.181 4.649Z" class="color2d334a svgShape"/><path fill="#4a3d2d" d="M1863.993 1186.177a15.725 15.725 0 0 1-22.666-5 17.316 17.316 0 0 1-1.953-10.522c1.385-13.416 18.688-17.53 26.582-9.99 8.167 7.8 6.058 17.222 2.3 21.684a21.9 21.9 0 0 1-4.263 3.828Z" class="color2d334a svgShape"/><path fill="#8f847d" d="M1773 1091.6c-1.554 3.643-7.159 6.759-9.8 5.634s-2.038-4.361-.484-8 5.147-6.139 7.785-5.014 4.054 3.741 2.499 7.38Z" class="color8f7d7f svgShape"/><path fill="#ffffff" d="M1193.75 797.661a29.929 29.929 0 0 0 29.929-29.929 29.929 29.929 0 0 0 29.929 29.929 29.929 29.929 0 0 0-29.929 29.929 29.929 29.929 0 0 0-29.929-29.929ZM1661.75 394.661a29.929 29.929 0 0 0 29.929-29.929 29.929 29.929 0 0 0 29.929 29.929 29.929 29.929 0 0 0-29.929 29.929 29.929 29.929 0 0 0-29.929-29.929ZM2262.75 1062.661a29.929 29.929 0 0 0 29.929-29.929 29.929 29.929 0 0 0 29.929 29.929 29.929 29.929 0 0 0-29.929 29.929 29.929 29.929 0 0 0-29.929-29.929ZM1315.75 1447.661a29.929 29.929 0 0 0 29.929-29.929 29.929 29.929 0 0 0 29.929 29.929 29.929 29.929 0 0 0-29.929 29.929 29.929 29.929 0 0 0-29.929-29.929ZM1167.04 893.148a16.612 16.612 0 0 0 16.612-16.612 16.612 16.612 0 0 0 16.612 16.612 16.612 16.612 0 0 0-16.612 16.612 16.612 16.612 0 0 0-16.612-16.612ZM2399.04 1098.148a16.612 16.612 0 0 0 16.612-16.612 16.612 16.612 0 0 0 16.612 16.612 16.612 16.612 0 0 0-16.612 16.612 16.612 16.612 0 0 0-16.612-16.612ZM1143.04 1225.148a16.612 16.612 0 0 0 16.612-16.612 16.612 16.612 0 0 0 16.612 16.612 16.612 16.612 0 0 0-16.612 16.612 16.612 16.612 0 0 0-16.612-16.612ZM1536.04 365.148a16.612 16.612 0 0 0 16.612-16.612 16.612 16.612 0 0 0 16.612 16.612 16.612 16.612 0 0 0-16.612 16.612 16.612 16.612 0 0 0-16.612-16.612ZM1285.04 1137.148a16.612 16.612 0 0 0 16.612-16.612 16.612 16.612 0 0 0 16.612 16.612 16.612 16.612 0 0 0-16.612 16.612 16.612 16.612 0 0 0-16.612-16.612Z" class="colorfff svgShape"/><g clip-path="url(#b)" fill="#000000" class="color000 svgShape"><path fill="#f5d1bc" d="m2377.04 1827.064 132.432-5.782-41.781-305.812-140.235 12.96 49.584 298.634z" class="colorf5d1bc svgShape"/><path fill="#f5d1bc" d="M2372 1366.161c-7.808 74.265-22.719 151.1-20.394 154.4l111.161 54.115c18.572-7.75 10.839 1.705 61.778-120.9q2.732-6.575 5.989-12.918l27.843-54.211s-6.871-73.435-73.648-79.576l-15.735.193c-9.2-.293-93.066 64.83-96.992 58.894Z" class="colorf5d1bc svgShape"/><path fill="#f5d1bc" d="m2416.463 1208.487 35.151 151.864c3.622 11.059 26.111 4.861 37.17 1.239a21.07 21.07 0 0 0 13.465-26.582l-45.738-139.638a21.07 21.07 0 0 0-26.582-13.465 21.07 21.07 0 0 0-13.466 26.582ZM2528.245 1076.34l-5.358 43.179c-.9 13.573 8.534 25.16 20.595 25.285 11.542.12 21.008-10.339 21.144-23.361l.567-54.338c.088-8.409-6.1-15.162-13.543-14.788-11.904.597-21.75 10.705-23.405 24.023Z" class="colorf5d1bc svgShape"/><path fill="#f5d1bc" d="m2506.165 1195.8-51.081 125.2c-3.623 11.158 13.545 21.192 24.7 24.815a21.241 21.241 0 0 0 26.762-13.642l40.021-123.249a21.241 21.241 0 0 0-13.642-26.763 21.241 21.241 0 0 0-26.76 13.639Z" class="colorf5d1bc svgShape"/><path fill="#f5d1bc" d="m2521.817 1124.383-15.532 76.774a20.77 20.77 0 0 0 16.239 24.476 20.77 20.77 0 0 0 24.476-16.239l15.532-76.774a20.77 20.77 0 0 0-16.239-24.476 20.77 20.77 0 0 0-24.476 16.239ZM2601.695 1124.936l-15.831 39.807c-4.244 12.674 1.7 25.6 12.97 28.2 10.786 2.494 22.275-5.464 25.663-17.774l14.135-51.367c2.188-7.949-1.917-15.623-8.989-16.8-11.306-1.89-23.065 5.656-27.948 17.934ZM2559.308 1225.2l-63.144 98.554c-6.228 11.883 6.979 28.219 16.958 33.366 9.979 5.147 23.117-.314 29.346-12.2l52.977-101.083c6.228-11.884 3.188-25.689-6.792-30.836-9.978-5.15-23.117.311-29.345 12.199Z" class="colorf5d1bc svgShape"/><path fill="#f5d1bc" d="m2585.9 1165.522-22.324 52.359c-5.25 12.313-1.238 25.621 8.96 29.725 10.2 4.1 22.722-2.552 27.972-14.865l22.324-52.359c5.25-12.313 1.238-25.621-8.96-29.725-10.196-4.104-22.719 2.552-27.972 14.865ZM2650.761 1228.516l-27.125 26.874c-8.009 8.858-8.088 21.778-.172 28.2 7.575 6.142 19.554 3.92 26.755-4.962l30.046-37.06c4.65-5.735 4.243-13.624-.891-17.277-8.208-5.844-20.247-4.064-28.613 4.225ZM2585.977 1302.637l-76.7 74.182c-6.912 7.563-1.255 23.425 6.308 30.337a18.552 18.552 0 0 0 26.21-1.179l71.57-78.31a18.552 18.552 0 0 0-1.179-26.21 18.552 18.552 0 0 0-26.209 1.18Z" class="colorf5d1bc svgShape"/><path fill="#f5d1bc" d="m2621.756 1257.8-34.491 44.321a18.4 18.4 0 0 0 3.221 25.824 18.4 18.4 0 0 0 25.824-3.221l34.491-44.321a18.4 18.4 0 0 0-3.221-25.824 18.4 18.4 0 0 0-25.824 3.221ZM2335.353 1169l89.027 41.451a19.727 19.727 0 0 0 26.21-9.557 19.727 19.727 0 0 0-9.557-26.21l-89.027-41.451a19.727 19.727 0 0 0-26.21 9.557 19.726 19.726 0 0 0 9.557 26.21ZM2433.184 1277.404l-28.614 75.246 54.7 2.983 10.905-67.726-36.991-10.503zM2332.375 1564.588c32.012-5.779 72.44-14.6 93.705-59.542 16.989-35.9 20.31-65.044 12.215-89.365-8.354-25.1-34.632-50.56-69.6-48.248-6.744.446-12.9-.876-15.742-4.426-.043-.052-.086-.11-.129-.162-14.837-18.76.255-25.348-30.927-72.286s-62.146-30.306-68.832-24.593 13.617 23.979 21.5 34.089 10.219 46.587 16.631 63.737c3.749 10.035 4.785 35.3 5 54.538a342.741 342.741 0 0 0 4.9 53.98c4.461 26.077 2.144 49.929 12.126 70.753 3.166 6.599 14.933 15.983 19.153 21.525Z" class="colorf5d1bc svgShape"/><path fill="#4c3f2f" d="M2234.01 1016.905h31.936v334.689h-31.936z" transform="rotate(142.4 2250.511 1184.22)" class="color2f354c svgShape"/><path fill="#fbc19f" d="M2366.928 1336.025a25.6 25.6 0 0 0 4.652-35.9l-134.672-174.775-40.549 31.245 134.672 174.775a25.6 25.6 0 0 0 35.897 4.655Z" class="colorfb9fa4 svgShape"/><path fill="#4c3f2f" d="M1871.9 1023.732c67.927 88.155 194.457 104.552 282.612 36.625s104.552-194.457 36.624-282.612-194.456-104.552-282.611-36.625-104.552 194.457-36.625 282.612Zm14.385-11.084a183.348 183.348 0 1 1 257.143 33.324 183.348 183.348 0 0 1-257.142-33.324Z" class="color2f354c svgShape"/><path fill="#e0d0c7" d="M2143.43 1045.974a183.478 183.478 0 1 1 33.323-257.143c61.806 80.208 46.885 195.336-33.323 257.143Z" opacity=".61" class="colorc7d9e0 svgShape"/><path fill="#e0d0c7" d="M2176.753 788.83a183.163 183.163 0 0 0-40.211-38.435q-3.335-2.331-6.757-4.495a184.02 184.02 0 0 1 25.955 27.342c61.806 80.209 46.886 195.337-33.323 257.144a183.413 183.413 0 0 1-210.337 9.5 183.41 183.41 0 0 0 231.35 6.087c80.209-61.805 95.129-176.934 33.323-257.143Z" opacity=".94" class="colorc7d9e0 svgShape"/><path fill="#fbc19f" d="m2567.391 2005.409-168.015 26.513-59.244-375.443 155.708-24.57 71.551 373.5z" class="colorfb9fa4 svgShape"/><path fill="#f5d1bc" d="m2299.567 1194.05 39.485-18.174c12.039-6.325 17.45-19.725 11.807-29.243-5.4-9.108-18.858-11.108-30.061-4.467l-46.744 27.711c-7.234 4.289-10.061 12.634-6.191 18.277 6.186 9.021 19.526 11.502 31.704 5.896Z" class="colorf5d1bc svgShape"/></g><rect width="220.783" height="220.783" x="1916.464" y="790.138" fill="#706659" rx="110.391" ry="110.391" class="color595e70 svgShape"/><path fill="none" stroke="#faaa7a" stroke-linecap="round" stroke-linejoin="round" stroke-width="16" d="m1950.316 872.327 72.955 72.955 171.588-171.588" class="colorStrokefa7a81 svgStroke"/></svg>