<svg width="151" height="102" viewBox="0 0 151 102" fill="none" xmlns="http://www.w3.org/2000/svg">
<path d="M136.117 89.0779C136.119 88.9824 136.12 88.8867 136.12 88.7907V29.0423C136.12 21.4636 131.939 15.2628 126.83 15.2628H22.8717C17.7622 15.2628 13.5818 21.4636 13.5818 29.0423V88.7907C13.5818 88.8867 13.5829 88.9823 13.5842 89.0779H136.117Z" fill="#FFA30F"/>
<path d="M13.5818 59.3723V88.7908C13.5818 88.8867 13.5829 88.9823 13.5842 89.0779H136.117C136.119 88.9824 136.12 88.8867 136.12 88.7908V59.3723H13.5818Z" fill="#EBB56A"/>
<path d="M124.378 46.0533C124.378 47.3165 123.617 48.3499 122.687 48.3499H111.867C110.937 48.3499 110.176 47.3165 110.176 46.0533V38.8077C110.176 37.5446 110.937 36.5111 111.867 36.5111H122.687C123.617 36.5111 124.378 37.5446 124.378 38.8077V46.0533Z" fill="#9E6E2B"/>
<path d="M123.276 45.4912C123.276 46.5583 122.633 47.4314 121.848 47.4314H112.707C111.921 47.4314 111.278 46.5583 111.278 45.4912V39.37C111.278 38.3029 111.921 37.4298 112.707 37.4298H121.848C122.633 37.4298 123.276 38.3029 123.276 39.37V45.4912Z" fill="#FFBD61"/>
<path d="M116.751 48.35H118.291V86.5764H116.751V48.35Z" fill="#9E6E2B"/>
<path d="M119.268 49.3196C119.268 49.9091 118.913 50.3914 118.479 50.3914H116.601C116.167 50.3914 115.812 49.9091 115.812 49.3196V49.0134C115.812 48.4239 116.167 47.9417 116.601 47.9417H118.479C118.913 47.9417 119.268 48.4239 119.268 49.0134V49.3196Z" fill="#9E6E2B"/>
<path d="M122.424 43.3487H113.52C113.483 43.3487 113.447 43.3323 113.418 43.302C113.388 43.2716 113.367 43.229 113.357 43.1807L113.093 41.8933L112.779 43.1908C112.768 43.2368 112.746 43.2768 112.717 43.3051C112.689 43.3335 112.654 43.3487 112.618 43.3487H111.717C111.672 43.3487 111.629 43.3245 111.597 43.2815C111.565 43.2384 111.548 43.18 111.548 43.1191C111.548 43.0582 111.565 42.9998 111.597 42.9567C111.629 42.9136 111.672 42.8894 111.717 42.8894H112.496L112.946 41.0313C112.969 40.9352 113.034 40.867 113.111 40.8735C113.147 40.8746 113.182 40.8916 113.211 40.9218C113.239 40.9521 113.26 40.994 113.27 41.0414L113.649 42.8895H122.424C122.447 42.889 122.469 42.8947 122.49 42.906C122.51 42.9173 122.529 42.9342 122.545 42.9555C122.561 42.9769 122.574 43.0024 122.583 43.0305C122.591 43.0586 122.596 43.0887 122.596 43.1191C122.596 43.1496 122.591 43.1797 122.583 43.2078C122.574 43.2359 122.561 43.2614 122.545 43.2827C122.529 43.3041 122.51 43.3209 122.49 43.3323C122.469 43.3436 122.447 43.3492 122.424 43.3487Z" fill="#FFCB82"/>
<path d="M122.18 85.7842C122.18 86.542 121.724 87.1621 121.166 87.1621H114.065C113.507 87.1621 113.051 86.542 113.051 85.7842V85.7408C113.051 84.9829 113.507 84.3628 114.065 84.3628H121.166C121.724 84.3628 122.18 84.9829 122.18 85.7408V85.7842Z" fill="#422803"/>
<path opacity="0.3" d="M116.751 50.3914H118.291V52.101L116.751 53.1983V50.3914Z" fill="#9E6E2B"/>
<path d="M116.77 56.2361V55.5919C116.04 55.2734 115.271 54.7167 114.483 53.5756C113.595 52.291 113.85 48.6083 113.852 48.5713C113.855 48.5313 113.852 48.4909 113.844 48.4524C113.835 48.4139 113.821 48.3781 113.802 48.347C113.783 48.316 113.76 48.2902 113.734 48.2713C113.708 48.2523 113.68 48.2405 113.65 48.2366C113.526 48.2207 113.416 48.3431 113.404 48.5113C113.392 48.6738 113.127 52.508 114.154 53.9947C115.065 55.3135 115.944 55.9074 116.77 56.2361ZM116.742 79.4314C115.324 78.9559 114.064 78.2521 113.203 77.1762C112.036 75.7182 111.61 73.0504 112.167 70.6887C112.792 68.0426 114.473 66.3033 116.779 65.9164C119.24 65.5035 120.967 64.0683 121.519 61.9787C121.921 60.4578 121.616 58.8175 120.681 57.4786C119.975 56.4673 119.144 56.2399 118.263 56.0353V56.6567C119.067 56.8458 119.767 57.0587 120.354 57.8999C121.167 59.0651 121.437 60.4764 121.095 61.7719C120.603 63.6359 119.009 64.9251 116.723 65.3086C114.236 65.7259 112.419 67.6187 111.738 70.5016C111.119 73.1239 111.585 75.9874 112.898 77.627C113.843 78.8074 115.215 79.5606 116.742 80.059V79.4314ZM127.464 82.8354C127.226 81.5693 126.127 80.7547 124.449 80.6003C124.092 80.5674 123.714 80.5365 123.322 80.5045C121.794 80.3798 120.013 80.2287 118.32 79.8557V80.4737C120.013 80.8411 121.777 80.9918 123.295 81.1158C123.686 81.1477 124.062 81.1784 124.419 81.2113C125.89 81.3467 126.84 81.9938 127.027 82.9869C127.24 84.119 126.457 85.5833 124.933 86.9039C124.908 86.9255 124.886 86.9536 124.869 86.9866C124.852 87.0195 124.84 87.0567 124.834 87.0959C124.828 87.1352 124.827 87.1758 124.832 87.2154C124.837 87.255 124.848 87.2928 124.864 87.3267C124.896 87.3952 124.947 87.4435 125.005 87.461C125.064 87.4785 125.125 87.4638 125.175 87.4201C126.897 85.9285 127.731 84.2574 127.464 82.8354Z" fill="#422803"/>
<path d="M114.318 48.8603C114.318 49.0287 114.217 49.1665 114.093 49.1665H113.163C113.039 49.1665 112.938 49.0287 112.938 48.8603V48.4648C112.938 48.2963 113.039 48.1586 113.163 48.1586H114.093C114.217 48.1586 114.318 48.2964 114.318 48.4648V48.8603Z" fill="#9E6E2B"/>
<path d="M141.376 89.0757C141.376 90.1805 140.615 91.0845 139.685 91.0845H11.1111C10.1812 91.0845 9.42041 90.1805 9.42041 89.0757C9.42041 87.9709 10.1812 87.0669 11.1111 87.0669H139.685C140.615 87.0669 141.376 87.9709 141.376 89.0757Z" fill="#422803"/>
<path d="M82.996 39.8536C82.996 41.0087 82.2549 41.9452 81.3407 41.9452C80.4264 41.9452 79.6853 41.0087 79.6853 39.8536C79.6853 38.6985 80.4038 37.8984 81.3451 37.9461C82.3355 37.9964 82.996 38.6985 82.996 39.8536Z" fill="#F7960D"/>
<path d="M83.6178 82.8857C83.6178 82.8857 83.8193 83.2809 83.8486 84.0912C83.8779 84.9014 83.985 85.5444 83.8209 85.8303C83.6662 86.1 82.3015 85.6227 82.3015 85.6227C82.3015 85.6227 82.4611 85.1598 82.5125 84.1902C82.5638 83.2207 82.804 81.9272 83.6178 82.8857Z" fill="#422803"/>
<path d="M83.8023 60.0018C83.8303 60.115 84.8908 64.4659 84.1028 70.6291C84.1028 70.6291 84.0324 71.9707 84.2491 74.2691C84.4659 76.5674 83.636 81.2839 83.6418 84.4245L82.6841 84.4955C82.6841 84.4955 82.5372 78.4206 82.4179 75.4519C82.2985 72.4832 82.2404 72.9413 81.9818 68.9032C81.7231 64.8651 83.2129 57.6182 83.8023 60.0018Z" fill="#F7960D"/>
<path d="M83.8862 85.1714C83.9042 85.2272 84.2066 86.7872 83.0687 86.7919C83.0687 86.7919 81.9944 86.8817 82.3016 85.6227C82.3016 85.6227 83.6357 84.3969 83.8862 85.1714Z" fill="#422803"/>
<path d="M82.6663 84.3739C82.6564 84.8459 82.5149 85.1459 83.0286 85.2019C83.4826 85.2513 83.6268 84.8139 83.6466 84.3994C83.6655 84.0028 83.4068 83.6965 83.1466 83.7158C82.8864 83.7351 82.6747 83.9766 82.6663 84.3739Z" fill="#F7960D"/>
<path opacity="0.5" d="M82.2107 71.6915C82.2107 71.6915 82.2243 72.1655 82.2723 72.831L84.1252 72.5365C84.1252 72.5365 84.0866 71.7895 84.0866 71.6425C84.0866 71.4954 82.2107 71.6915 82.2107 71.6915Z" fill="#9E6E2B"/>
<path d="M80.0667 83.0317C80.0667 83.0317 79.8814 83.4412 79.8846 84.2524C79.8879 85.0637 79.8067 85.7136 79.982 85.987C80.1473 86.2448 81.4908 85.6672 81.4908 85.6672C81.4908 85.6672 81.3129 85.2167 81.2227 84.2524C81.1325 83.2881 80.8408 82.0143 80.0667 83.0317Z" fill="#422803"/>
<path d="M78.1985 60.3279C78.1751 60.4431 78.0563 64.7334 79.0905 70.8292C79.0905 70.8292 79.2147 72.1635 79.0905 74.4746C78.9663 76.7855 79.9842 81.4335 80.1045 84.5699H81.0636C81.0636 84.5699 80.9665 78.4931 80.9665 75.52C80.9665 72.547 81.0429 73 81.1391 68.9488C81.2353 64.8976 78.6913 57.9043 78.1985 60.3279Z" fill="#F7960D"/>
<path d="M79.8906 85.3339C79.8748 85.3909 79.6355 86.971 80.772 86.8914C80.772 86.8914 81.8483 86.9016 81.491 85.6671C81.491 85.6671 80.1096 84.542 79.8906 85.3339Z" fill="#422803"/>
<path d="M81.0758 84.4472C81.1046 84.9178 81.2579 85.2068 80.7472 85.3007C80.2959 85.3838 80.1344 84.9577 80.098 84.5453C80.0632 84.1507 80.3093 83.8257 80.5698 83.8257C80.8304 83.8257 81.0515 84.0511 81.0758 84.4472Z" fill="#F7960D"/>
<path opacity="0.5" d="M79.1309 71.5659C79.1309 71.5659 79.1602 72.2748 79.1309 73.2657L81.0089 72.8342C81.0089 72.8342 81.0586 71.7129 81.0586 71.6486C81.0586 71.5844 79.1309 71.5659 79.1309 71.5659Z" fill="#9E6E2B"/>
<path d="M83.0505 54.0499C82.6816 54.0499 82.3061 53.9101 81.9471 53.6297C80.9241 52.8307 79.9663 51.1029 79.019 48.3475C78.3649 46.4449 77.7512 45.1058 77.7346 45.0349C77.556 44.2742 77.8044 43.6084 78.3644 43.3658C78.9244 43.1233 79.176 42.8849 79.4302 43.4595C79.4449 43.4929 80.3619 45.4257 80.9571 47.1518C81.9664 50.0787 82.7276 50.9041 83.0081 51.1231C83.0153 51.1288 83.022 51.1337 83.028 51.1379C83.1203 51.0281 83.294 50.7095 83.441 50.1329C83.6003 49.5081 83.6539 48.8607 83.6235 48.5688C83.5411 47.7782 83.946 47.0466 84.528 46.9346C85.1099 46.8224 85.6486 47.3728 85.731 48.1633C85.8892 49.6815 85.3799 52.4702 84.1908 53.5631C83.8381 53.8873 83.4482 54.0499 83.0505 54.0499Z" fill="#422803"/>
<path opacity="0.5" d="M85.7309 48.1634C85.6485 47.3728 85.1098 46.8225 84.5279 46.9347C83.9459 47.0466 83.541 47.7783 83.6234 48.5688C83.6538 48.8607 83.6002 49.5082 83.4409 50.133C83.2939 50.7096 83.1202 51.0282 83.0279 51.138C83.0212 51.1333 83.0145 51.1284 83.008 51.1232C82.8665 51.0127 82.6025 50.7474 82.2461 50.1361C82.16 50.952 82.0784 51.7683 82.0374 52.5977C82.0198 52.9531 82.0057 53.3089 81.9951 53.6649C82.3395 53.9208 82.6979 54.05 83.0504 54.05C83.4481 54.05 83.838 53.8875 84.1907 53.5632C85.3798 52.4703 85.8892 49.6815 85.7309 48.1634Z" fill="#9E6E2B"/>
<path d="M85.4178 48.827C85.0701 49.2206 84.5455 49.0382 84.115 48.5995C83.6845 48.1608 83.5557 47.4065 83.8274 46.9147C84.099 46.4228 84.4387 46.0732 85.0987 46.8184C85.5125 47.2857 85.8226 48.3687 85.4178 48.827Z" fill="#FFBF66"/>
<path d="M75.5676 57.8438C75.5676 57.8438 75.1534 68.2106 75.0813 70.71C75.0813 70.71 75.1828 84.3892 75.0325 85.4674C74.8822 86.5455 74.2059 85.1787 71.7887 85.8427C71.7887 85.8427 71.2656 86.1256 71.428 84.5685C71.556 83.3401 72.0704 73.7109 72.1856 70.7486C72.338 66.8284 71.9483 57.1631 72.3581 56.4169C72.768 55.6706 75.5074 55.7855 75.5676 57.8438Z" fill="#422803"/>
<path d="M75.2546 58.0645C75.2546 58.0645 75.6678 68.4025 75.74 70.9019C75.74 70.9019 75.1844 85.3076 75.7465 85.8986C76.0512 86.2192 76.6163 85.3993 79.0335 86.0633C79.0335 86.0633 79.5386 86.0143 79.3943 84.7891C79.2499 83.564 78.5241 73.5692 78.4089 70.6069C78.2565 66.6867 78.6783 57.3098 78.2684 56.5635C77.8585 55.8172 75.3147 56.0062 75.2546 58.0645Z" fill="#422803"/>
<path d="M71.3017 45.1316C71.3017 45.1316 72.2288 49.8905 72.0604 53.9446C71.9776 55.9404 71.7699 57.9345 71.8501 58.3523C71.9702 58.9784 73.2992 59.8937 75.5687 59.8581C77.7243 59.8243 78.973 58.7921 78.915 58.3523C78.1463 52.5271 78.9871 46.5069 78.9871 45.7769C78.9871 45.0468 76.8586 45.6788 76.6241 46.6263C76.3896 47.5737 75.4363 48.8187 75.1914 48.7843C74.9466 48.7499 73.5757 46.3789 73.4794 46.1432C73.3833 45.9074 71.1876 44.1996 71.3017 45.1316Z" fill="#422803"/>
<path d="M74.5068 43.7982C74.5068 44.7579 73.2849 45.1945 72.4347 45.9078C71.7696 46.4657 70.7329 47.1151 70.59 45.6221C70.4184 43.8307 71.6395 42.8335 72.6979 42.4661C73.9797 42.0213 74.5068 42.8385 74.5068 43.7982Z" fill="#422803"/>
<path d="M78.5319 45.1447C78.5319 47.0663 77.0359 48.624 75.1905 48.624C73.3451 48.624 71.8491 47.0663 71.8491 45.1447C71.8491 43.242 73.3878 41.9706 75.2578 41.9706C77.1032 41.9706 78.5319 43.2232 78.5319 45.1447Z" fill="#422803"/>
<path opacity="0.5" d="M75.803 53.8044C75.803 53.8044 77.3046 46.7199 79.3067 46.229C79.3067 46.229 79.5423 46.1609 79.5395 46.069C79.5366 45.9771 79.9951 44.8428 80.4423 45.7499C80.8894 46.657 79.853 48.4525 79.8369 48.4919C79.8207 48.5314 78.6651 49.2598 78.6651 49.2598C78.6651 49.2598 78.5685 52.7974 78.5994 53.8986C78.6303 54.9998 75.6948 54.5385 75.803 53.8044ZM71.8989 56.6667C71.8989 56.6667 71.9824 55.3682 72.0011 55.0952C72.0197 54.8222 76.3865 55.3314 76.3865 55.3314L78.6651 55.0952C78.6651 55.0952 78.6852 56.0118 78.7032 56.2507C78.7032 56.2507 77.7307 57.2605 77.3372 57.291C76.9438 57.3213 76.6227 56.9784 76.3865 56.8558C76.1502 56.7332 71.8989 56.6667 71.8989 56.6667Z" fill="#9E6E2B"/>
<path d="M74.0217 38.9738C74.0217 38.9738 74.3999 41.3826 73.7991 42.3129L75.2894 42.7057L76.752 42.2585C76.752 42.2585 76.0423 41.7232 76.581 38.4739C76.581 38.4739 73.9829 38.6601 74.0217 38.9738Z" fill="#CFAE80"/>
<path d="M75.2827 51.763C76.3787 51.763 77.2672 50.0938 77.2672 48.0348C77.2672 45.9758 76.3787 44.3066 75.2827 44.3066C74.1866 44.3066 73.2981 45.9758 73.2981 48.0348C73.2981 50.0938 74.1866 51.763 75.2827 51.763Z" fill="#422803"/>
<path d="M76.1506 43.7595C76.1506 44.7192 76.8629 45.4972 77.7416 45.4972C78.6202 45.4972 79.4412 45.1695 79.5309 44.2154C79.653 42.9168 78.4505 42.4512 77.4495 42.1572C76.5954 41.9063 76.1506 42.7998 76.1506 43.7595Z" fill="#422803"/>
<path opacity="0.5" d="M78.5722 59.6038L78.6679 58.8233C77.595 59.7728 75.9396 59.5828 75.8436 59.4897C75.7477 59.3966 75.6092 58.1966 75.519 58.0741C75.4288 57.9516 75.3116 59.4897 75.3116 59.4897C75.2124 59.8298 72.1703 58.9864 72.1719 58.8653L72.1646 60.7516C74.1823 60.7357 76.2846 60.2552 77.5088 59.9211L77.5105 59.9207C77.8809 59.8224 77.7346 60.329 77.7346 60.329C77.7346 60.329 77.5076 61.6337 77.6774 63.4529C77.8473 65.2721 78.3792 66.9996 78.3792 66.9996C78.3839 66.0995 78.4275 65.7683 78.4275 65.7683C78.4275 65.7683 78.6053 60.6806 78.5706 59.6045L78.5722 59.6038Z" fill="#9E6E2B"/>
<path d="M73.6757 55.9752C71.9805 55.9752 70.6806 55.899 69.7973 55.7472C69.052 55.6191 68.5289 55.4424 68.2092 54.9891C67.4083 53.9392 67.8006 52.2154 67.9323 51.6368C68.1291 50.7722 68.4764 49.6876 68.9646 48.4132C69.7684 46.315 70.8198 44.0837 70.8616 44.0062C71.188 43.3995 71.7347 43.4285 72.2442 43.8783C72.7537 44.3282 73.0274 45.6395 72.6962 46.3316C72.685 46.3552 71.862 47.9082 71.1722 49.6351C70.3992 51.5703 70.088 52.2148 69.9821 52.7682C70.6532 52.894 72.2014 53.052 75.6205 52.9566C76.2283 52.9391 76.7307 53.595 76.7432 54.4203C76.7556 55.2456 76.2732 55.9285 75.6657 55.9454C74.9517 55.9653 74.2878 55.9752 73.6757 55.9752Z" fill="#422803"/>
<path opacity="0.5" d="M80.1229 45.014C80.1229 45.014 79.6177 45.1395 79.3451 44.8049C79.0725 44.4703 79.4549 43.5244 79.4549 43.5244C79.4549 43.5244 80.0955 44.9495 80.1229 45.014Z" fill="#9E6E2B"/>
<path d="M81.1579 43.6996C81.1667 44.2938 80.9152 44.7223 80.3818 44.7971C79.7593 44.8844 79.3228 44.2294 79.5739 43.7428C80.0128 42.8922 79.9037 42.0547 80.3411 42.0428C80.7785 42.0309 81.1491 43.1055 81.1579 43.6996ZM81.6113 43.6873C81.6201 44.2815 81.8841 44.6959 82.4192 44.7416C83.0437 44.7949 83.4606 44.1167 83.1953 43.6442C82.7316 42.8183 82.8159 41.9754 82.3785 41.9873C81.9411 41.9992 81.6025 43.0931 81.6113 43.6873Z" fill="#F7960D"/>
<path opacity="0.5" d="M79.8906 42.8563L79.8391 43.0441C79.8391 43.0441 80.0843 43.9099 80.2217 44.1028C80.3592 44.2957 80.3425 44.8016 80.3425 44.8016C80.3425 44.8016 80.5889 44.7797 80.5732 44.7092C80.5574 44.6388 80.552 43.9497 80.5536 43.9742C80.5551 43.9986 80.0866 42.792 80.0866 42.792L79.8906 42.8563Z" fill="#9E6E2B"/>
<path d="M73.6587 42.082C73.6587 42.082 75.0787 48.8561 75.193 48.8807C75.3072 48.9051 76.9033 42.15 76.9033 42.15L75.2519 42.8927L73.6587 42.082Z" fill="#FFD69C"/>
<path d="M75.2391 44.2653C75.5128 44.2653 75.7346 43.9637 75.7346 43.5917C75.7346 43.2197 75.5128 42.9181 75.2391 42.9181C74.9655 42.9181 74.7437 43.2197 74.7437 43.5917C74.7437 43.9637 74.9655 44.2653 75.2391 44.2653Z" fill="#422803"/>
<path d="M74.6677 46.4486L74.9765 44.0062H75.424L75.8824 46.2036C75.8824 46.2036 75.3891 49.1188 75.293 49.0861C75.1969 49.0534 74.7229 47.0226 74.6677 46.4486Z" fill="#422803"/>
<path d="M83.844 46.6673C83.844 46.6673 85.419 48.6675 86.7967 51.7475C86.7967 51.7475 87.8063 53.6793 87.1394 54.6144C86.5546 55.4345 86.0035 53.2359 84.5559 50.8826C83.9073 49.8282 83.689 49.5179 83.2767 48.8807C82.8643 48.2435 83.0484 45.9041 83.844 46.6673Z" fill="#9E6E2B"/>
<path d="M83.8391 48.573C83.7389 50.1208 82.667 52.3845 81.2747 52.3764C79.8824 52.3683 78.8049 50.0684 78.6733 48.573C78.548 47.1493 79.871 46.1351 81.2633 46.1432C82.6556 46.1513 83.9317 47.1447 83.8391 48.573Z" fill="#9E6E2B"/>
<path d="M81.0298 47.3551C80.9641 48.0078 79.9399 48.8673 79.4582 48.9429C78.8793 49.0338 78.1471 49.4128 78.1477 48.5175C78.1485 47.423 78.7009 46.7696 79.3661 46.4982C80.575 46.0049 81.0954 46.7024 81.0298 47.3551Z" fill="#9E6E2B"/>
<path d="M84.5142 48.4539C84.3964 49.0928 83.8922 48.6169 83.2348 48.5683C82.6655 48.5262 80.8723 47.6409 80.9902 47.0019C81.108 46.3629 82.5217 45.9238 83.5796 46.4905C84.3238 46.8892 84.635 47.799 84.5142 48.4539Z" fill="#9E6E2B"/>
<path d="M80.3432 42.9367C80.3432 42.9367 80.6159 44.3389 80.4249 45.9076C80.4249 45.9076 81.1306 47.0725 82.2319 45.8903C82.2319 45.8903 82.0911 43.7474 82.4468 42.8763C82.7781 42.0648 80.3166 42.5519 80.3432 42.9367Z" fill="#CFAE80"/>
<path d="M78.799 49.3205C78.799 49.3205 79.7427 53.2111 78.7283 57.6854L84.0045 57.5057C83.5565 55.0698 83.1728 52.3763 83.7506 49.1156L78.799 49.3205Z" fill="#9E6E2B"/>
<path d="M78.3566 47.4383C78.3566 47.4383 76.3686 51.9879 76.3356 54.4489C76.3218 55.474 77.5228 54.9953 77.9397 53.3133C78.4317 51.3282 79.0841 49.0122 79.3137 48.649C79.5432 48.2858 79.158 45.8789 78.3566 47.4383ZM82.9703 56.1065C82.9703 56.1065 84.345 55.4504 84.8337 54.9737C85.4198 54.402 85.8101 53.8044 85.967 53.4005C86.124 52.9967 87.0016 52.1698 87.2322 53.0461C87.4385 53.8302 87.4643 54.2834 86.7968 55.1044C86.2196 55.8143 84.5157 56.7636 83.6447 57.172C83.3171 57.3256 82.5251 56.3842 82.9703 56.1065Z" fill="#9E6E2B"/>
<path d="M79.1533 54.4805C79.1533 54.4805 79.1342 55.8997 78.5317 58.633C78.2903 59.7286 77.8647 61.456 78.1203 63.7787C78.377 66.1115 78.7255 68.32 78.5792 71.4564C78.5792 71.4564 78.4416 72.0153 78.8581 72.0135C79.2747 72.0118 84.59 72.0135 84.59 72.0135C84.59 72.0135 84.9508 72.0118 84.8545 71.4238C84.7583 70.8357 84.4457 68.9081 84.5659 66.9805C84.6663 65.3726 85.2213 62.3806 84.3074 58.633C84.1298 57.9046 83.5925 56.2755 83.5498 54.7125C83.425 50.1446 79.1533 54.4805 79.1533 54.4805Z" fill="#9E6E2B"/>
<path opacity="0.5" d="M83.9753 61.68C83.9958 61.9209 83.8674 62.1409 83.69 62.1687L79.4344 62.8365C79.257 62.8643 79.0951 62.6899 79.0746 62.4489L78.7575 58.7199C78.737 58.4789 78.8654 58.2589 79.0428 58.2311L83.2984 57.5633C83.4758 57.5355 83.6377 57.7099 83.6582 57.9509L83.9753 61.68Z" fill="#9E6E2B"/>
<path d="M84.1387 61.4104C84.1592 61.6514 84.0308 61.8714 83.8534 61.8992L79.5978 62.567C79.4204 62.5949 79.2585 62.4204 79.238 62.1795L78.9208 58.4504C78.9004 58.2094 79.0288 57.9895 79.2061 57.9616L83.4617 57.2938C83.6392 57.266 83.801 57.4404 83.8215 57.6814L84.1387 61.4104Z" fill="#422803"/>
<path d="M78.9397 58.6715C78.9397 58.6715 81.4159 60.526 81.6645 60.4403C81.9131 60.3545 83.8216 57.6815 83.8216 57.6815C83.8216 57.6815 83.825 57.1922 83.2659 57.291L79.2647 57.9525C79.2647 57.9525 78.7801 57.944 78.9397 58.6715Z" fill="#F7960D"/>
<path opacity="0.5" d="M83.8972 56.8374C83.8972 56.8374 83.9287 57.113 83.9775 57.3578C83.9983 57.4622 83.8757 57.581 83.8259 57.6814C83.8259 57.6814 83.8293 57.842 83.7707 57.9093C83.712 57.9767 82.6885 58.5312 82.6208 58.8604C82.5532 59.1895 82.4116 59.7531 82.2817 59.7408C82.2817 59.7408 82.1305 59.7897 82.1527 59.5313C82.1527 59.5313 81.757 59.9503 81.7199 59.7445C81.7199 59.7445 81.5038 59.9906 81.4603 59.8014C81.4169 59.6122 81.5792 59.2386 81.5792 59.1589C81.5792 59.0793 81.3672 59.551 81.2049 59.3366C81.0426 59.1222 81.2652 58.871 81.3117 58.4178C81.3582 57.9645 81.3688 57.623 81.3688 57.623L83.8972 56.8374Z" fill="#9E6E2B"/>
<path d="M83.676 56.4379C83.9581 57.0575 83.6712 57.1864 83.1801 57.8404C82.6969 58.4839 82.2527 58.3248 81.9121 57.9524C81.454 57.4513 81.8677 56.9784 82.4272 56.4615C82.9868 55.9446 83.4459 55.9327 83.676 56.4379Z" fill="#FFBF66"/>
<path opacity="0.5" d="M72.8494 42.4612C72.8494 42.4612 72.7163 42.4341 72.448 42.5639C72.448 42.5639 72.8675 46.1977 73.0298 46.6632C73.0298 46.6632 73.1285 46.8897 73.4084 46.807C73.4084 46.807 73.5254 46.8225 73.4084 46.994C73.2913 47.1655 73.3635 47.3615 73.5349 47.6677C73.7062 47.974 75.6361 51.4655 75.5911 51.245C75.546 51.0244 73.7423 45.2974 73.7423 45.2974L72.8494 42.4612ZM74.9598 47.925L75.6941 45.2973L75.7666 45.6447C75.7666 45.6447 76.06 44.7398 76.0149 44.6663C75.9698 44.5928 75.1401 43.6254 75.2393 42.8289C75.3385 42.0324 76.8548 41.9878 76.8413 42.1863C76.8277 42.3848 76.5381 44.4091 76.2449 45.6464C75.9518 46.8837 75.412 49.149 75.3121 49.2598C75.2123 49.3706 74.9495 48.2295 74.9598 47.925Z" fill="#9E6E2B"/>
<path d="M72.6978 42.4661C72.6978 42.4661 72.7638 43.4981 73.5467 46.5148C73.5467 46.5148 74.1707 46.5602 74.1301 46.6704C74.0895 46.7807 73.752 47.0073 73.799 47.1421C73.846 47.2768 75.4651 51.3257 75.6363 51.4145C75.8075 51.5033 74.8932 47.1044 74.6199 46.1432C74.3465 45.1819 73.6878 41.8916 73.6587 41.8186C73.6587 41.8186 73.6434 41.6832 73.4877 41.7144C73.3319 41.7456 72.6567 42.2424 72.6978 42.4661Z" fill="#F7960D"/>
<path d="M77.0167 46.3722C77.7995 43.3556 77.8655 42.3236 77.8655 42.3236C77.9066 42.0999 77.2314 41.603 77.0756 41.5718C76.9199 41.5406 76.9046 41.676 76.9046 41.676C76.8755 41.7491 76.2168 45.0393 75.9434 46.0006C75.7992 46.5077 75.4768 47.9712 75.2292 49.2281C75.2353 49.2465 75.2404 49.2665 75.2442 49.2886C75.2958 49.597 75.3794 49.892 75.4533 50.1908C75.9886 48.9547 76.7327 47.0903 76.7643 46.9995C76.8113 46.8648 76.4738 46.6381 76.4332 46.5279C76.3926 46.4176 77.0167 46.3722 77.0167 46.3722Z" fill="#F7960D"/>
<path opacity="0.5" d="M81.0352 48.8623C81.0352 48.8623 80.7397 48.726 80.5542 49.1157C80.3686 49.5054 80.4354 50.1413 80.3445 50.3838C80.2536 50.6264 80.1928 50.9992 80.186 51.4146C80.1792 51.83 79.1852 52.6045 79.1852 52.6045C79.1852 52.6045 79.199 53.1623 79.1852 53.2909C79.1714 53.4196 80.3445 52.6204 80.3445 52.6204L80.8673 51.7631L81.0686 50.8482C81.0686 50.8481 81.1134 48.8255 81.0352 48.8623ZM83.8439 46.68C83.8439 46.68 83.7084 46.5539 83.5795 46.4906C83.5795 46.4906 83.0865 46.8501 83.0634 47.2176C83.0403 47.5851 83.4394 47.2451 83.4394 47.2451C83.4394 47.2451 83.6457 47.1584 83.4191 47.4544C83.1925 47.7505 83.1403 48.1478 83.4935 47.9159C83.8467 47.684 84.1406 47.3187 83.9354 47.6724C83.7302 48.0261 83.5578 48.4534 83.7269 48.5177C83.8959 48.582 84.0045 48.4168 84.0045 48.4168C84.0045 48.4168 83.9525 48.5443 84.0443 48.5769C84.1361 48.6096 84.4506 48.1869 84.5757 48.095C84.7008 48.0031 84.8057 47.654 84.7888 47.6219C84.7719 47.5897 84.6232 47.2227 84.5791 47.167C84.5349 47.1114 83.8439 46.68 83.8439 46.68Z" fill="#9E6E2B"/>
<path opacity="0.2" d="M76.4058 41.1833C76.4058 41.1833 75.4324 42.369 75.2754 42.4122C75.1183 42.4553 74.905 42.262 74.905 42.262C74.905 42.262 75.0724 42.7889 75.3295 42.7981C75.5865 42.8072 76.3864 41.5761 76.4058 41.5209C76.4252 41.4658 76.4058 41.1833 76.4058 41.1833Z" fill="#9E6E2B"/>
<path opacity="0.5" d="M73.6794 41.8242C73.6794 41.8242 73.5982 41.6221 73.4764 41.8242C73.3547 42.0264 73.6861 43.3862 73.862 43.8731C74.0379 44.3601 74.4166 44.5163 74.6398 44.3877C74.863 44.259 75.3247 43.1901 75.2258 42.8793C75.1268 42.5685 73.6794 41.8242 73.6794 41.8242Z" fill="#9E6E2B"/>
<path d="M84.4457 46.389C84.4457 46.389 83.6334 46.3488 83.2411 47.0655C83.2411 47.0655 83.0923 47.297 83.2123 47.4348C83.3322 47.5726 83.7146 46.9399 84.2895 46.9016C84.8645 46.8634 84.7709 46.4567 84.4457 46.389Z" fill="#FFBF66"/>
<path d="M84.5566 46.6853C84.5566 46.6853 84.1034 46.7955 83.7449 47.2182C83.3864 47.6409 83.3357 47.843 83.3763 47.9349C83.4168 48.0268 83.5927 47.9578 83.7212 47.8109C83.8498 47.6639 84.3976 47.1769 84.5769 47.1309C84.7561 47.085 84.7967 46.6256 84.5566 46.6853Z" fill="#FFBF66"/>
<path opacity="0.5" d="M79.149 54.5967C79.149 54.5967 79.0775 55.4779 79.043 55.7425C79.043 55.7425 80.1594 54.7364 81.1399 53.6216C81.1399 53.6216 81.1624 53.9428 81.3664 53.8986C81.5703 53.8543 81.7988 53.6828 82.0679 53.9891C82.3369 54.2953 82.7698 53.3398 82.6796 52.2985C82.5894 51.2571 82.2949 49.5298 82.0679 49.4685C81.8409 49.4073 80.8949 50.5525 80.8673 51.2111C80.8398 51.8697 80.3618 52.7234 80.1183 52.9765C79.8749 53.2295 79.1894 54.1238 79.1894 54.1238L79.149 54.5967Z" fill="#9E6E2B"/>
<path d="M84.6453 47.0501C84.6453 47.0501 84.3748 47.1607 84.1314 47.5067C83.8881 47.8526 83.7077 48.2524 83.8441 48.3977C83.9648 48.5264 84.2306 47.9639 84.3792 47.7974C84.5279 47.631 84.7667 47.5585 84.8073 47.4177C84.8478 47.2769 84.8033 46.995 84.6453 47.0501Z" fill="#FFBF66"/>
<path d="M84.8834 47.2915C84.8834 47.2915 84.5814 47.4373 84.3584 47.733C84.1353 48.0287 83.9742 48.3747 84.0714 48.468C84.2353 48.6251 84.6363 47.9601 84.9568 47.9384C85.2773 47.9166 85.2596 47.1715 84.8834 47.2915ZM80.4766 51.8704C80.4766 51.8704 80.4814 51.3563 80.5085 51.1174C80.5355 50.8785 80.6099 50.3278 80.7348 50.1336C80.8044 50.0255 80.8331 50.4283 80.8128 50.7774C80.7925 51.1266 80.4956 52.116 80.4766 51.8704Z" fill="#FFBF66"/>
<path d="M80.8146 51.1266C80.8002 51.1727 80.525 49.5604 80.9414 48.7843C81.3579 48.0082 82.3531 48.1228 82.4776 48.6723C82.6164 49.2849 82.5893 49.7023 82.6029 50.5223C82.6144 51.2205 83.0016 53.3176 82.4591 53.4458C82.0767 53.5362 81.9651 53.0288 81.6534 53.2003C81.2953 53.3974 81.2402 52.808 81.4439 51.6249C81.6459 50.4519 80.9604 50.661 80.8146 51.1266Z" fill="#FFD69C"/>
<path opacity="0.3" d="M81.4438 51.625C81.3198 52.3453 81.2923 52.844 81.3702 53.0806C81.4749 52.8953 81.5805 52.7706 81.7255 52.6338C81.942 52.4295 81.8517 51.7512 82.0141 51.5359C82.58 50.7856 82.3298 50.1685 82.0141 49.649C81.7512 49.2163 81.2401 49.9105 80.7144 49.8825C80.6952 50.5389 80.8056 51.1554 80.8146 51.1266C80.9603 50.6611 81.6459 50.452 81.4438 51.625Z" fill="#9E6E2B"/>
<path d="M81.7327 51.4023C81.5946 52.3457 81.2995 52.741 80.7493 52.5762C80.365 52.4611 80.4664 51.7434 80.5599 51.2213C80.7029 50.4231 80.8288 49.8147 81.2141 49.923C81.9267 50.1233 81.8436 50.6449 81.7327 51.4023Z" fill="#FFBF66"/>
<path d="M80.7451 50.3638C80.7451 50.3638 81.0574 49.3638 81.1318 49.2277C81.2061 49.0917 81.611 49.0625 81.6663 49.1493C81.7216 49.2362 81.7673 49.4667 81.732 49.5714C81.6967 49.6761 81.604 49.712 81.5716 49.6142C81.5433 49.5286 81.5184 49.4351 81.5081 49.4315C81.4977 49.4278 81.3589 49.4418 81.3457 49.4937C81.3325 49.5456 81.2462 50.0044 81.1899 50.1617C81.1336 50.319 80.6598 50.7067 80.7451 50.3638Z" fill="#FFBF66"/>
<path d="M81.1398 49.9842C81.1398 49.9842 81.6039 49.8065 81.7446 49.776C81.8853 49.7453 82.0025 49.8127 81.9664 49.9842C81.9304 50.1557 81.5879 50.3027 81.4167 50.3395C81.2455 50.3762 80.926 50.1128 81.1398 49.9842Z" fill="#FFBF66"/>
<path d="M81.3573 50.0155C81.3573 50.0155 81.8394 50.0275 81.9806 50.0533C82.1218 50.0792 82.2197 50.1897 82.1487 50.3397C82.0778 50.4898 81.7188 50.4962 81.547 50.4643C81.3753 50.4323 81.1253 50.0548 81.3573 50.0155Z" fill="#FFBF66"/>
<path d="M81.445 50.3838C81.445 50.3838 81.9271 50.3958 82.0682 50.4216C82.2094 50.4475 82.3073 50.558 82.2364 50.708C82.1655 50.8581 81.8064 50.8645 81.6347 50.8326C81.4629 50.8006 81.213 50.4231 81.445 50.3838Z" fill="#FFBF66"/>
<path d="M82.2513 50.5564C82.2513 50.5564 82.287 50.6764 82.1969 50.995C82.1068 51.3135 81.9865 51.3065 81.9556 51.2247C81.8836 51.0348 82.0534 50.2954 82.2513 50.5564Z" fill="#FFBF66"/>
<path d="M82.1415 51.1459C82.1415 51.1459 82.0729 51.292 82.012 51.3196C81.9512 51.3472 81.8771 51.3809 81.844 51.4115C81.8108 51.4421 81.7349 51.2369 81.9422 51.0746C82.1495 50.9122 82.1712 51.0898 82.1415 51.1459ZM82.1666 50.1888C82.1666 50.1888 82.2023 50.3088 82.1122 50.6273C82.0221 50.9458 81.9018 50.9389 81.8708 50.857C81.7989 50.6672 81.9687 49.9279 82.1666 50.1888Z" fill="#FFBF66"/>
<path d="M82.0569 50.7784C82.0569 50.7784 81.9883 50.9244 81.9274 50.952C81.8666 50.9796 81.7925 51.0133 81.7594 51.0439C81.7263 51.0745 81.6504 50.8693 81.8576 50.707C82.0649 50.5447 82.0866 50.7223 82.0569 50.7784ZM81.9659 49.8764C81.9659 49.8764 82.0016 49.9965 81.9115 50.315C81.8214 50.6335 81.7012 50.6266 81.6702 50.5447C81.5982 50.3548 81.768 49.6155 81.9659 49.8764Z" fill="#FFBF66"/>
<path d="M81.8559 50.466C81.8559 50.466 81.7873 50.6121 81.7265 50.6397C81.6656 50.6673 81.5915 50.701 81.5584 50.7316C81.5253 50.7622 81.4494 50.557 81.6566 50.3947C81.8639 50.2323 81.8857 50.4099 81.8559 50.466ZM81.78 57.2274C81.78 57.2274 81.4515 57.9332 81.4216 58.1509C81.3918 58.3687 81.3735 58.8844 81.3153 59.1241C81.2572 59.3639 81.5346 59.2127 81.6068 58.8918C81.6603 58.6532 81.7004 58.2676 81.7444 58.1913C81.7884 58.1151 81.9937 57.7753 82.0185 57.6204C82.0432 57.4654 81.8769 57.0123 81.78 57.2274ZM82.2242 57.9097C82.2242 57.9097 82.0623 58.7119 82.002 58.9248C81.9417 59.1376 81.8766 59.397 81.8185 59.5336C81.7605 59.6703 82.0238 59.6064 82.1372 59.3505C82.2507 59.0945 82.2978 58.8718 82.3573 58.6865C82.4168 58.5012 82.4875 58.2797 82.4852 58.1279C82.4828 57.976 82.2855 57.706 82.2242 57.9097Z" fill="#FFBF66"/>
<path d="M81.9199 57.7971C81.9199 57.7971 81.7578 58.6923 81.6955 58.9304C81.6333 59.1686 81.5641 59.4498 81.5328 59.6195C81.5007 59.7929 81.7344 59.6846 81.8546 59.3965C81.9749 59.1085 82.0222 58.8598 82.0842 58.6522C82.1462 58.4446 82.2198 58.1964 82.2139 58.0283C82.208 57.8603 81.9835 57.5691 81.9199 57.7971ZM82.5083 57.8571C82.5083 57.8571 82.4243 58.6536 82.3902 58.877C82.3561 59.1003 82.3229 59.3706 82.2819 59.5183C82.2408 59.666 82.4932 59.5447 82.5747 59.2671C82.6561 58.9895 82.6759 58.7593 82.7125 58.5633C82.7491 58.3673 82.7925 58.1332 82.772 57.9839C82.7516 57.8346 82.5445 57.6425 82.5083 57.8571Z" fill="#FFBF66"/>
<path d="M74.1258 41.0017C74.1258 41.0017 74.1134 41.1857 74.1022 41.2783C74.1022 41.2783 74.718 42.1867 75.2256 42.5358C75.2256 42.5358 75.2851 42.5449 75.2893 42.7058C75.2935 42.8666 75.0838 43.7578 74.5968 44.1896C74.1098 44.6215 73.7175 42.5749 73.6363 42.1143C73.5551 41.6537 74.0132 40.9468 74.1258 41.0017Z" fill="#FFD69C"/>
<path d="M76.3891 41.0017C76.3891 41.0017 76.4014 41.1857 76.4128 41.2783C76.4128 41.2783 75.7969 42.1867 75.2894 42.5358C75.2894 42.5358 75.2298 42.5449 75.2256 42.7058C75.2215 42.8666 75.4312 43.7578 75.9181 44.1896C76.4051 44.6215 76.7975 42.5749 76.8786 42.1143C76.9598 41.6537 76.5017 40.9468 76.3891 41.0017Z" fill="#FFD69C"/>
<path d="M72.1926 85.216C72.1926 85.216 72.3962 83.9886 73.2263 83.7679C74.1164 83.5312 74.4629 84.6953 74.3464 84.9517C74.23 85.2081 72.1344 85.7026 72.1926 85.216Z" fill="#5C4320"/>
<path d="M71.6582 85.8034C71.6582 85.8034 71.7083 85.4264 72.0669 85.0628C72.5137 84.6097 73.3229 84.3788 73.9924 84.4388C74.565 84.4901 74.7813 85.43 74.7924 85.7464C74.8035 86.0628 71.627 86.0911 71.6582 85.8034Z" fill="#F7960D"/>
<path d="M71.6768 86.3792C71.6768 86.3792 71.5848 85.7219 71.7252 85.6685C71.8656 85.6152 73.0926 85.9151 74.1624 85.5928C74.708 85.4284 74.8613 85.3758 74.7887 86.3418C74.7887 86.3418 71.6854 86.4684 71.6768 86.3792Z" fill="#5C4320"/>
<path d="M74.905 86.5842C74.905 86.7347 74.8144 86.8578 74.7037 86.8578H71.7329C71.6221 86.8578 71.5315 86.7347 71.5315 86.5842V86.5415C71.5315 86.391 71.6221 86.2679 71.7329 86.2679H74.7037C74.8144 86.2679 74.905 86.391 74.905 86.5415V86.5842Z" fill="#422803"/>
<path opacity="0.2" d="M74.1338 40.8284C74.4642 41.1219 74.9572 41.2643 75.2893 41.1361C75.8368 40.9248 76.1215 40.4344 76.3958 40.0386C76.4214 39.6022 76.4786 39.0832 76.5809 38.4657C76.5809 38.4657 73.9828 38.6519 74.0217 38.9656C74.0217 38.9656 74.1682 39.8992 74.1338 40.8284Z" fill="#9E6E2B"/>
<path d="M77.0029 36.6868C76.9056 37.9611 76.2309 38.9738 75.2878 38.9738C74.3447 38.9738 73.6256 37.9313 73.5515 36.6542C73.4734 35.3065 74.3447 34.3346 75.2878 34.3346C76.2309 34.3346 77.1051 35.3473 77.0029 36.6868Z" fill="#422803"/>
<path d="M73.763 37.6792C73.7546 37.713 73.3532 39.4802 74.9766 39.4434C76.6001 39.4066 77.0655 39.0511 76.7922 37.532C76.5189 36.0129 73.8481 37.3361 73.763 37.6792Z" fill="#422803"/>
<path d="M74.2419 37.8127C74.226 38.1719 74.1148 38.332 73.8031 38.4562C73.5489 38.5575 73.4563 38.2124 73.3723 37.6827C73.2875 37.148 73.5383 36.788 73.7917 37.1231C73.9816 37.3741 74.2577 37.4534 74.2419 37.8127ZM76.2957 37.717C76.2798 38.0763 76.3761 38.2532 76.6746 38.4272C76.9181 38.5691 77.0404 38.2416 77.1705 37.7293C77.3018 37.2123 77.0844 36.814 76.8033 37.1055C76.5927 37.3239 76.3116 37.3577 76.2957 37.717ZM75.8694 40.2594C75.8065 40.5517 75.671 40.8108 75.2742 40.8108C74.8953 40.8108 74.7157 40.5598 74.6789 40.2594C74.6067 39.6714 74.9655 38.8383 75.2942 38.8383C75.623 38.8383 75.9631 39.8245 75.8694 40.2594Z" fill="#FFBF66"/>
<path d="M76.7924 37.6077C76.7924 39.2734 76.1142 40.6237 75.2777 40.6237C74.4411 40.6237 73.7629 39.2734 73.7629 37.6077C73.7629 35.9421 74.0747 34.594 75.2777 34.5918C76.5158 34.5895 76.7924 35.9421 76.7924 37.6077Z" fill="#FFBF66"/>
<path opacity="0.2" d="M73.8416 37.812C73.8416 37.812 73.8686 38.0447 73.9498 38.0264C74.0309 38.008 74.0535 37.5486 74.067 37.2056C74.0805 36.8625 74.0737 36.7339 74.3252 36.4582C74.5766 36.1826 74.5585 35.8589 74.6081 35.8094C74.6578 35.7599 74.775 36.2867 75.2485 36.3847C75.7219 36.4828 76.1683 36.4889 76.3352 36.6236C76.502 36.7584 76.5245 36.8748 76.5065 37.1504C76.4885 37.426 76.6012 38.0998 76.6824 37.959C76.7636 37.8181 76.77 36.8947 76.636 36.5785C76.502 36.2622 76.1007 36.0479 75.8617 35.956C75.6227 35.8641 74.7853 35.4575 74.6697 35.3239C74.554 35.1903 74.5434 34.7243 74.3999 35.0339C74.2564 35.3435 74.2654 35.2945 74.2159 35.7416C74.1662 36.1888 74.1335 36.3211 74.0214 36.4785C73.9092 36.6359 73.8416 37.812 73.8416 37.812Z" fill="#9E6E2B"/>
<path d="M74.2125 34.6286C74.2125 34.6286 73.9031 34.7066 73.7628 35.1023C73.6171 35.5134 73.5176 35.8096 73.5516 36.6542C73.5534 36.6978 73.6695 36.9535 73.6795 36.9935C73.6795 36.9935 74.0889 36.0172 74.1087 35.8701C74.1284 35.7231 74.3651 35.1824 74.3651 35.1824C74.3651 35.1824 74.5068 34.5782 74.2125 34.6286Z" fill="#422803"/>
<path d="M74.3657 34.8101C74.3657 34.8101 74.2491 34.6204 74.4115 34.3917C74.5738 34.163 75.0248 33.7138 75.59 33.9826C76.3998 34.3676 76.9433 34.8794 77.0043 36.2841C77.0653 37.6889 76.0165 35.478 75.5116 35.2738C75.0067 35.0696 74.3982 35.0547 74.3657 34.8101Z" fill="#422803"/>
<path d="M74.4596 35.1922C74.4596 35.1922 74.616 36.1151 76.035 36.3193C76.035 36.3193 76.6122 36.3439 76.5942 37.0708C76.5798 37.6506 76.5762 38.0999 76.7265 37.9774C76.8768 37.8549 76.8739 36.6788 76.7521 36.107C76.6303 35.5353 76.2454 34.4653 75.578 34.4734C74.9106 34.4816 74.2044 34.7916 74.1831 35.037C74.1617 35.2824 74.4394 35.1361 74.4596 35.1922Z" fill="#422803"/>
<path d="M74.4648 35.135C74.4648 35.135 74.6688 36.058 74.17 36.5399C73.8945 36.806 74.0503 37.7338 73.9361 37.9284C73.8151 38.1349 73.6852 37.4588 73.713 36.7359C73.7409 36.013 74.2121 34.5584 74.4648 35.135Z" fill="#422803"/>
<path opacity="0.5" d="M71.771 48.2361L72.2312 47.2561C72.2312 47.2561 72.2715 47.6494 72.2312 48.3661C72.191 49.0827 72.0101 50.5161 72.0101 50.5161C72.0101 50.5161 71.7971 48.3633 71.771 48.2361Z" fill="#9E6E2B"/>
<path d="M84.8123 56.5001C84.6268 56.1799 84.441 55.8596 84.2478 55.5478C84.2271 55.5143 84.2062 55.4809 84.1854 55.4474C83.6204 55.7963 82.9702 56.1066 82.9702 56.1066C82.5249 56.3842 83.317 57.3256 83.6446 57.172C83.9631 57.0226 84.393 56.8008 84.8384 56.545C84.8297 56.53 84.821 56.5151 84.8123 56.5001ZM80.5542 51.7718C80.5542 51.7718 79.9378 52.3602 79.2639 52.9254C79.4749 53.3754 79.7355 53.7788 79.9456 54.2224C80.632 53.4553 81.2384 52.6599 81.3859 52.3765C81.6284 51.9106 80.6771 51.6188 80.5542 51.7718Z" fill="#FFBF66"/>
<path d="M79.2949 52.8993C78.5945 53.489 77.8223 54.0637 77.6109 53.9305C77.3635 53.7745 76.2389 54.0535 76.2451 54.3173C76.2513 54.5811 76.2744 55.737 76.7304 56.1001C77.1538 56.4372 77.612 56.1501 78.2165 55.8069C78.7157 55.5233 79.4311 54.808 80.0594 54.0941C79.7988 53.7025 79.535 53.3147 79.2949 52.8993Z" fill="#9E6E2B"/>
<path d="M77.0829 54.4587C77.0185 55.1962 76.486 56.0028 75.8976 55.8356C74.8134 55.5277 74.764 54.8255 74.836 54.2597C74.9186 53.6099 75.1425 53.3042 75.5811 53.3383C75.6644 53.3447 75.9327 53.4707 76.213 53.497C77.0318 53.5737 77.1453 53.7442 77.0829 54.4587Z" fill="#FFBF66"/>
<path d="M75.0886 53.5203C75.0886 53.5203 75.5067 53.0083 75.9189 52.8971C76.5809 52.7185 76.8021 52.4663 76.8309 52.6192C76.9141 53.0607 76.5456 53.23 75.8823 53.4905C75.5267 53.6301 74.647 54.1039 75.0886 53.5203ZM76.5635 53.5454C76.5635 53.5454 77.6342 53.7726 78.2626 53.805C78.8132 53.8335 78.5002 54.2452 77.9853 54.2358C77.5591 54.2281 76.6043 54.3787 76.4672 54.0231C76.3302 53.6674 76.3712 53.4927 76.5635 53.5454Z" fill="#FFBF66"/>
<path d="M76.9644 54.2257C76.9644 54.2257 77.3391 54.3354 77.9466 54.3791C78.267 54.4022 78.5125 54.3839 78.6296 54.4305C78.7467 54.4771 78.7843 54.6089 78.6756 54.6967C78.4286 54.8961 76.9871 54.8773 76.8075 54.7331C76.628 54.589 76.7877 54.1884 76.9644 54.2257Z" fill="#FFBF66"/>
<path d="M76.7947 54.7493C76.7947 54.7493 77.1695 54.859 77.7769 54.9027C78.0942 54.9255 78.3904 54.9456 78.4969 54.9837C78.6182 55.027 78.591 55.1867 78.4289 55.259C78.2049 55.359 76.6845 55.5323 76.5049 55.3881C76.3254 55.2439 76.618 54.712 76.7947 54.7493Z" fill="#FFBF66"/>
<path d="M76.1154 55.2196C76.1154 55.2196 76.4583 55.4169 77.0657 55.4607C77.7065 55.5069 78.1652 55.5172 77.9793 55.7095C77.6488 56.0514 76.117 55.9389 75.8008 55.8056C75.6016 55.7217 75.9387 55.1823 76.1154 55.2196Z" fill="#FFBF66"/>
<path opacity="0.2" d="M80.46 43.8914C80.46 43.8914 80.4839 44.2635 80.4872 44.3922L80.4927 44.6908C80.4927 44.6908 80.947 44.9848 81.3697 44.9527C81.7924 44.9205 82.2129 44.4281 82.2129 44.4281C82.2129 44.4281 82.2422 43.9466 82.2321 43.8915C82.2219 43.8363 80.46 43.8914 80.46 43.8914Z" fill="#9E6E2B"/>
<path d="M82.9366 40.6733C82.9563 42.0024 82.2638 43.9817 81.3739 44.006C80.484 44.0302 79.7337 42.0902 79.714 40.7611C79.6944 39.432 80.3999 38.3349 81.2898 38.3106C82.1797 38.2864 82.917 39.3442 82.9366 40.6733Z" fill="#F7960D"/>
<path d="M82.2749 42.1565C82.2652 42.4844 82.3553 42.6434 82.6295 42.7944C82.8532 42.9177 82.9602 42.6161 83.0717 42.146C83.1843 41.6715 82.9811 41.3139 82.729 41.5866C82.5401 41.7909 82.2845 41.8287 82.2749 42.1565Z" fill="#FFBF66"/>
<path d="M82.7263 42.0446C82.7487 43.5628 81.8872 44.8176 81.3862 44.8312C80.9336 44.8436 79.9873 43.638 79.9649 42.1198C79.9425 40.6016 80.2085 39.3651 81.305 39.3332C82.4336 39.3003 82.7039 40.5263 82.7263 42.0446Z" fill="#FFBF66"/>
<path opacity="0.2" d="M79.9678 41.6581C79.9752 41.6654 80.1094 41.6281 80.2853 41.2606C80.2853 41.2606 80.3755 41.3157 80.4386 41.2606C80.5018 41.2055 80.6912 41.0509 80.7948 41.1221C80.8986 41.1932 81.0662 41.198 81.1582 41.1221C81.2503 41.0462 81.3449 41.0693 81.4103 41.1221C81.4757 41.1748 81.6561 41.1886 81.7959 41.099C81.9357 41.0095 81.9718 41.1484 82.0664 41.1892C82.1611 41.2299 82.2378 41.2272 82.319 41.1581C82.4001 41.0891 82.6399 41.593 82.7117 41.6045C82.7834 41.6159 82.5083 40.5807 82.5083 40.5807C82.5083 40.5807 82.3818 40.3112 82.3684 40.3112C82.355 40.3112 80.2366 40.2377 80.2366 40.2377C80.2366 40.2377 79.8096 41.5025 79.9678 41.6581Z" fill="#9E6E2B"/>
<path d="M80.4261 39.4401C80.4261 39.4401 80.178 40.4635 80.2495 40.8526C80.3211 41.2417 80.6367 40.8979 80.7691 40.9502C80.9015 41.0024 81.0256 41.0549 81.2295 40.9376C81.4334 40.8203 81.4357 40.9818 81.6006 41.0083C81.7655 41.0348 81.7553 40.9009 81.8707 40.9201C81.9861 40.9393 82.2047 41.2607 82.3241 40.9932C82.4435 40.7258 82.3131 39.4556 82.0335 39.1394C81.754 38.8231 80.5855 39.1006 80.4261 39.4401Z" fill="#F7960D"/>
<path d="M81.2691 38.3894C81.2691 38.3894 80.7072 38.0082 80.2036 38.4631C79.548 39.0553 79.6322 40.1867 79.7261 41.0171C79.82 41.8474 80.6339 39.4122 80.9333 39.2625C81.2326 39.1128 81.5099 38.4292 81.2691 38.3894Z" fill="#F7960D"/>
<path d="M81.4931 38.5247C81.4931 38.5247 81.952 38.3378 82.2759 38.4772C83.0981 38.831 83.0552 40.1701 82.9287 40.9904C82.8022 41.8108 81.3172 38.5289 81.4378 38.5262M80.3657 39.6577C80.3636 39.7373 80.2133 41.468 79.9673 41.6705C79.6212 41.9555 80.0825 40.8124 80.0033 39.4069C79.986 39.0986 80.3696 39.5194 80.3657 39.6577Z" fill="#F7960D"/>
<path d="M82.3359 40.1254C82.3358 40.1607 82.308 40.9933 82.7113 41.6045C82.7113 41.6045 82.9356 41.2279 82.7885 40.7228C82.6413 40.2176 82.3364 39.9473 82.3359 40.1254Z" fill="#F7960D"/>
<path d="M80.4035 42.2948C80.3939 42.6227 80.2947 42.7713 80.0126 42.8923C79.7824 42.9909 79.6934 42.6787 79.6098 42.198C79.5253 41.7127 79.749 41.3783 79.9843 41.6774C80.1606 41.9015 80.4132 41.9669 80.4035 42.2948Z" fill="#FFBF66"/>
<path opacity="0.5" d="M80.0592 46.3316C80.0592 46.3316 79.7055 46.3244 79.7135 46.3835C79.7215 46.4427 80.3004 47.4804 80.9985 47.5067C81.6965 47.533 82.6695 46.7852 82.6746 46.5159C82.6796 46.2467 80.8488 46.8347 80.7767 46.8225C80.7045 46.8102 80.0592 46.3316 80.0592 46.3316Z" fill="#9E6E2B"/>
<path d="M81.2754 47.3282C81.2115 47.3282 81.1477 47.3232 81.0841 47.3131C80.3662 47.1996 79.9557 46.4678 79.9386 46.4368C79.8193 46.22 79.8518 45.9129 80.0114 45.7508C80.0876 45.6734 80.1833 45.64 80.2775 45.6579C80.3718 45.6758 80.457 45.7437 80.5147 45.8466C80.5231 45.8611 80.7727 46.2821 81.1756 46.3408C81.5001 46.3881 81.8555 46.1951 82.2319 45.7673C82.3847 45.5936 82.6121 45.6211 82.74 45.8287C82.8679 46.0363 82.8477 46.3453 82.6949 46.519C82.2217 47.0568 81.7452 47.3282 81.2754 47.3282Z" fill="#F7960D"/>
<path d="M78.5724 85.216C78.5724 85.216 78.3688 83.9886 77.5387 83.7679C76.6486 83.5312 76.3021 84.6953 76.4185 84.9517C76.535 85.2081 78.6306 85.7026 78.5724 85.216Z" fill="#5C4320"/>
<path d="M79.1069 85.8034C79.1069 85.8034 79.0568 85.4264 78.6982 85.0628C78.2514 84.6097 77.4422 84.3788 76.7726 84.4388C76.2 84.4901 75.9838 85.43 75.9727 85.7464C75.9615 86.0628 79.138 86.0911 79.1069 85.8034Z" fill="#F7960D"/>
<path d="M79.0882 86.3792C79.0882 86.3792 79.1802 85.7219 79.0398 85.6685C78.8994 85.6152 77.6724 85.9151 76.6027 85.5928C76.057 85.4284 75.9038 85.3758 75.9763 86.3418C75.9763 86.3418 79.0796 86.4684 79.0882 86.3792Z" fill="#5C4320"/>
<path d="M75.8604 86.5842C75.8604 86.7347 75.9509 86.8578 76.0617 86.8578H79.0325C79.1433 86.8578 79.2339 86.7347 79.2339 86.5842V86.5415C79.2339 86.391 79.1433 86.2679 79.0325 86.2679H76.0617C75.9509 86.2679 75.8604 86.391 75.8604 86.5415V86.5842Z" fill="#422803"/>
<path d="M80.2735 40.2377C80.2735 40.2377 80.1343 41.0166 80.207 41.9452C80.2796 42.8738 80.0665 44.7346 79.6624 44.5007C79.2584 44.2668 78.82 43.2706 79.1341 42.792C79.4482 42.3133 79.7624 41.5607 79.7137 40.9032C79.665 40.2458 80.2938 39.8257 80.2735 40.2377ZM82.2743 40.308C82.2743 40.308 82.5433 41.0166 82.4706 41.9452C82.398 42.8738 82.6111 44.7346 83.0151 44.5007C83.4192 44.2668 83.7453 43.3716 83.5435 42.792C83.3714 42.2975 82.9371 41.3094 82.9721 40.6475C83.0145 39.8441 82.254 39.896 82.2743 40.308Z" fill="#F7960D"/>
<path d="M37.3239 59.0277C36.6437 58.837 36.56 59.5603 36.3817 60.3518C36.1311 61.4648 36.2329 61.7526 36.7316 61.9489C37.4455 62.2299 37.6693 62.0341 37.8354 60.8668C37.954 60.0326 37.9411 59.2008 37.3239 59.0277Z" fill="#FFBF66"/>
<path d="M37.8365 59.6165C37.8365 59.6165 38.069 60.4951 38.0939 60.7691C38.1187 61.0431 37.9566 61.3351 38.0175 61.664C38.0871 62.0397 37.8516 62.0967 37.7388 61.7223C37.6685 61.4888 37.7264 60.882 37.6023 60.6507C37.4782 60.4194 37.7314 59.2945 37.8365 59.6165ZM36.2632 61.0171C36.2632 61.0171 36.1561 62.1103 36.2009 62.3605C36.2456 62.6108 36.2237 62.8232 36.2678 63.0464C36.3133 63.2761 36.4672 63.1318 36.4744 62.725C36.4802 62.393 36.4606 62.3387 36.4717 62.1955C36.486 62.0106 36.5598 61.4953 36.5328 61.4049C36.5057 61.3145 36.2569 60.7227 36.2632 61.0171Z" fill="#FFBF66"/>
<path d="M37.7884 61.1597C37.7884 61.1597 37.6956 62.3958 37.5946 62.942C37.4936 63.4881 37.3915 63.5765 37.2919 63.4248C37.2262 63.3247 37.2907 62.8447 37.3268 62.4521C37.3632 62.0561 37.3473 61.8758 37.3569 61.5271C37.3665 61.1784 37.7888 60.9318 37.7884 61.1597ZM36.5214 61.4749C36.5214 61.4749 36.4832 62.3161 36.5056 62.485C36.528 62.654 36.5682 62.9899 36.5905 63.2809C36.6128 63.572 36.8185 63.5349 36.8436 63.2232C36.8688 62.9114 36.805 62.5764 36.8559 62.2755C36.9067 61.9746 36.9501 61.5837 36.8712 61.4675C36.7923 61.3512 36.5258 61.3716 36.5214 61.4749Z" fill="#FFBF66"/>
<path d="M36.905 61.5347C36.905 61.5347 36.915 62.4461 36.9078 62.7352C36.9004 63.0314 36.9426 63.3682 36.943 63.5928C36.9434 63.8173 37.1901 63.8408 37.23 63.5075C37.262 63.2404 37.2293 62.9519 37.2521 62.6042C37.275 62.2564 37.3217 61.5711 37.2507 61.4355C37.1797 61.2999 36.9095 61.3726 36.905 61.5347Z" fill="#FFBF66"/>
<path d="M37.4436 58.0786C37.6047 58.0357 37.7623 58.1797 37.7939 58.3985L37.8942 59.0948C37.9258 59.3136 37.8198 59.5277 37.6587 59.5706L36.8202 59.7936C36.6591 59.8365 36.5015 59.6925 36.4699 59.4737L36.3696 58.7775C36.338 58.5586 36.444 58.3446 36.6051 58.3017L37.4436 58.0786Z" fill="#FFD69C"/>
<path opacity="0.4" d="M36.3665 58.6483L36.4303 59.1993L37.8327 58.6686L37.776 58.3196L36.3665 58.6483Z" fill="#9E6E2B"/>
<path d="M35.2536 44.2281C35.2536 44.2281 35.1123 48.0364 35.3499 51.1014C35.558 53.7851 36.0893 58.6419 36.2617 58.7542C36.434 58.8666 37.8342 58.5746 38.0004 58.2352C38.1667 57.8959 37.3554 51.8354 37.3536 51.533C37.3459 50.2864 37.8228 45.4914 37.1329 44.3846C36.7089 43.7046 35.7842 42.7228 35.2536 44.2281Z" fill="#FFFAF3"/>
<path opacity="0.5" d="M37.189 58.649C37.0461 58.7045 36.4152 58.8463 36.0936 58.7188C35.8012 58.6028 36.8579 49.1364 36.8579 49.1364L36.9787 49.2744L37.189 58.649Z" fill="#9E6E2B"/>
<path d="M33.8739 84.2966C33.9532 83.9093 35.6458 83.4095 36.2099 84.168C36.7741 84.9265 38.0964 85.2493 38.7575 85.6366C39.4187 86.0239 39.1983 86.9717 39.1983 86.9717H36.21C35.7374 86.5479 35.4078 86.7162 35.4078 86.7162L35.3741 86.9717H33.9092C33.9092 86.9717 33.7946 84.6839 33.8739 84.2966Z" fill="#5C4320"/>
<path d="M33.9853 87.067H35.3965C35.4981 87.067 35.5805 86.96 35.5805 86.8281C35.5805 86.6962 35.4981 86.5892 35.3965 86.5892H33.9853C33.8836 86.5892 33.8013 86.6962 33.8013 86.8281C33.8013 86.96 33.8836 87.067 33.9853 87.067ZM36.1921 87.067H39.1839C39.2855 87.067 39.3679 86.96 39.3679 86.8281C39.3679 86.6962 39.2855 86.5892 39.1839 86.5892H36.1921C36.0904 86.5892 36.0081 86.6962 36.0081 86.8281C36.0081 86.96 36.0905 87.067 36.1921 87.067Z" fill="#422803"/>
<path opacity="0.5" d="M36.1 84.0679C36.1 84.0679 36.5398 84.5991 36.9352 84.7768C36.9352 84.7768 36.6399 85.583 35.8221 85.6494C35.0044 85.7157 33.8459 85.4504 33.8459 85.4504L33.8595 84.7604L36.1 84.0679Z" fill="#9E6E2B"/>
<path d="M28.1471 84.249C28.2264 83.8617 29.919 83.3619 30.4831 84.1204C31.0473 84.8789 32.3696 85.2017 33.0307 85.589C33.6919 85.9763 33.4715 86.924 33.4715 86.924H30.4832C30.0106 86.5003 29.681 86.6686 29.681 86.6686L29.6473 86.924H28.1824C28.1824 86.924 28.0678 84.6363 28.1471 84.249Z" fill="#5C4320"/>
<path d="M28.2584 87.0193H29.6697C29.7713 87.0193 29.8537 86.9124 29.8537 86.7805C29.8537 86.6486 29.7713 86.5416 29.6697 86.5416H28.2584C28.1568 86.5416 28.0745 86.6486 28.0745 86.7805C28.0745 86.9124 28.1568 87.0193 28.2584 87.0193ZM30.4653 87.0193H33.4571C33.5587 87.0193 33.641 86.9124 33.641 86.7805C33.641 86.6486 33.5587 86.5416 33.4571 86.5416H30.4653C30.3636 86.5416 30.2813 86.6486 30.2813 86.7805C30.2813 86.9124 30.3636 87.0193 30.4653 87.0193Z" fill="#422803"/>
<path opacity="0.5" d="M30.3732 84.0203C30.3732 84.0203 30.813 84.5515 31.2084 84.7292C31.2084 84.7292 30.9131 85.5354 30.0953 85.6018C29.2776 85.6681 28.1191 85.4027 28.1191 85.4027L28.1327 84.7127L30.3732 84.0203Z" fill="#9E6E2B"/>
<path d="M36.1547 57.4009C36.1547 57.4009 35.7974 66.7376 35.8989 71.3812C35.8989 71.3812 35.967 72.4476 35.8655 73.7979C35.764 75.1481 35.7125 81.8708 36.3251 83.9395C36.3251 83.9395 36.5787 84.7063 35.7445 85.0344C35.1593 85.2646 33.739 85.1351 33.6304 84.8178C33.4274 84.225 33.3687 74.7732 33.4361 72.1715C33.5035 69.5698 32.7752 58.9653 33.1811 57.8566C33.5871 56.7478 35.8615 54.5576 36.1547 57.4009Z" fill="#422803"/>
<path d="M33.8046 58.1229C33.8046 58.1229 32.3586 67.0668 31.8633 71.6675C31.8633 71.6675 31.7697 72.7442 31.4965 74.0537C31.2233 75.3632 30.4671 82.0746 30.8059 84.2468C30.8059 84.2468 30.9999 84.7228 30.2478 84.8396C29.6406 84.934 28.0808 85.0371 28.0745 84.69C28.0682 84.3429 28.9536 74.3051 29.3537 71.7542C29.7538 69.2034 29.9256 58.3826 30.468 57.377C31.0104 56.3714 33.88 55.2561 33.8046 58.1229Z" fill="#422803"/>
<path opacity="0.5" d="M29.5714 69.3723C30.3173 69.6947 31.3697 69.8957 32.0599 69.9952C32.0141 70.3599 31.9701 70.725 31.9279 71.0905C31.1066 70.9939 30.2858 70.8912 29.4653 70.7824C29.5022 70.3738 29.5374 69.8975 29.5714 69.3723ZM35.8816 69.849C35.8833 70.3976 35.8888 70.9134 35.899 71.3811C35.899 71.3811 35.9004 71.4041 35.9024 71.4438C35.3226 71.4353 34.4066 71.358 33.436 71.2578C33.4304 70.9083 33.4198 70.5078 33.4058 70.0697C34.7623 70.0815 35.4953 69.9609 35.8816 69.849Z" fill="#9E6E2B"/>
<path d="M37.1329 45.5313C37.1329 45.5313 36.4486 65.5753 36.6549 68.8329C36.6549 68.8329 36.6701 70.2644 35.9129 70.3825C35.9129 70.3825 35.0959 70.5511 33.806 70.5764C33.6991 70.5785 33.5972 69.1977 33.4878 69.1977C33.3754 69.1977 33.4058 70.5603 33.0575 70.5603C31.1909 70.5603 29.1127 70.2224 29.2015 68.8329C29.2015 68.8329 30.603 48.7353 30.1295 45.6956C29.8441 43.864 37.0258 41.5957 37.1329 45.5313Z" fill="#FFFAF3"/>
<path opacity="0.5" d="M36.8918 53.2624L36.8533 54.6199C36.8533 54.6199 36.2887 54.4462 36.2196 54.3746C36.2196 54.3746 35.9396 54.5294 35.8038 54.4609C35.8038 54.4609 34.4824 53.8376 32.6364 54.3925C32.4834 54.4385 30.0078 55.1448 30.0078 55.1448L30.0785 53.554C30.0785 53.554 34.2349 51.924 34.8137 52.067C35.3925 52.2101 36.9301 52.4571 36.8918 53.2624Z" fill="#9E6E2B"/>
<path d="M31.4582 45.1375C31.4946 46.5249 32.6389 48.614 34.2323 48.5435C35.5108 48.4869 37.0154 46.2446 36.979 44.8572C36.9425 43.4699 35.4271 42.5201 33.8328 42.5173C31.7913 42.5139 31.4217 43.7501 31.4582 45.1375Z" fill="#FFFAF3"/>
<path opacity="0.5" d="M35.1756 44.2164C35.3418 43.7154 35.6091 42.9097 35.59 42.9675C35.59 42.9675 35.9433 43.1017 36.2297 43.3256C36.2297 43.3256 36.2356 44.3748 36.2297 44.7684C36.2239 45.162 35.9207 45.4362 35.8564 45.472C35.792 45.5078 36.1228 45.7247 36.1044 46.141C36.086 46.5573 35.1127 50.1075 34.598 50.4969C34.595 50.4992 34.5923 50.5001 34.5894 50.5019C34.8174 48.4561 35.166 46.2897 35.1756 44.2164Z" fill="#9E6E2B"/>
<path d="M34.9638 42.7648C34.9638 42.7648 34.7583 48.5208 34.6798 49.5243C34.6157 50.3423 32.1084 42.8389 32.1084 42.8389C32.1084 42.8389 33.3974 42.3774 33.639 42.4154C33.8806 42.4534 34.8705 42.7182 34.9638 42.7648Z" fill="#FFD69C"/>
<path d="M34.7769 41.1704C34.1479 41.2289 34.4376 42.8323 34.4447 42.8966H32.4182C32.7936 41.239 32.4861 39.1784 32.4861 39.1784C32.4591 38.987 33.6211 39.5191 33.6622 39.5177C33.7032 39.5162 35.2345 41.1278 34.7769 41.1704Z" fill="#FFBF66"/>
<path d="M32.4342 38.268C32.5197 39.9625 33.6524 41.1314 34.5514 41.1915C35.5167 41.2561 35.285 40.3364 35.4433 38.5979C35.4433 38.5979 35.4386 38.4449 35.4019 38.3167C35.2195 37.6796 35.4292 37.5619 35.4232 37.371C35.3719 35.7524 34.7106 34.9931 33.906 35.0615C33.0077 35.1379 32.3487 36.5735 32.4342 38.268Z" fill="#FFBF66"/>
<path d="M34.3856 40.7051C34.3943 41.0367 34.3309 41.2081 34.8407 41.2285C35.1006 41.2389 35.3005 40.9858 35.273 40.6639C35.2403 40.2831 35.4351 39.5099 35.2146 39.5196C34.9548 39.5312 34.3769 40.3736 34.3856 40.7051Z" fill="#FFBF66"/>
<path d="M35.327 37.857C35.327 37.857 35.3199 37.9829 35.3649 38.1033C35.4216 38.2551 35.5347 38.4305 35.5559 38.6979C35.5797 38.9979 35.7108 39.1007 35.6986 39.285C35.6865 39.4694 35.3654 39.6306 35.1629 39.4632C34.9605 39.2957 35.2095 37.4761 35.327 37.857Z" fill="#FFBF66"/>
<path d="M34.113 43.5742L34.9108 46.5283C34.9108 46.5283 34.7326 49.6889 34.6624 49.689C34.4425 49.6896 33.5713 47.5199 33.5713 47.5199L33.6881 43.6414L34.113 43.5742Z" fill="#422803"/>
<path opacity="0.5" d="M34.7635 49.0466C34.7635 49.0466 33.3744 45.5308 33.013 44.5299C33.013 44.5299 33.8348 44.0969 33.9039 42.9539L32.1973 42.7128C32.1973 42.7128 32.2182 43.0511 32.8061 45.3052C33.3941 47.5592 34.7732 50.8652 34.7635 49.0466Z" fill="#9E6E2B"/>
<path opacity="0.2" d="M35.2642 36.264L35.3541 36.6649C35.3541 36.6649 35.1017 36.7649 34.8537 36.747C34.6057 36.7291 34.5234 36.586 34.4789 36.8544C34.4345 37.1227 34.3897 37.2658 34.2409 37.552C34.0921 37.8382 34.079 38.0529 34.0658 38.2676C34.0526 38.4822 33.9209 38.7752 33.8024 38.5929C33.6839 38.4106 33.638 37.0511 33.5358 36.908C33.4337 36.7649 33.0903 37.0511 33.0513 37.3373C33.0122 37.6235 33.0377 38.1065 33.0513 38.4822C33.065 38.8578 32.9365 40.0847 32.5662 39.9543C32.5662 39.9543 32.5777 36.6364 32.6304 36.6649C32.683 36.6933 33.144 35.8704 33.2625 35.7631C33.381 35.6558 35.1852 36.103 35.2642 36.264Z" fill="#9E6E2B"/>
<path d="M34.2238 36.4906C34.2238 36.4906 35.3621 36.7049 35.6054 36.0471C35.8486 35.3894 35.699 34.5432 35.1748 34.1547C34.6506 33.7662 34.5594 34.4025 34.2219 34.5939C33.8845 34.7853 32.8076 34.8471 32.4142 35.2989C31.815 35.9871 31.6921 36.685 31.8364 37.4491C32.014 38.3897 32.3134 39.3592 32.4265 39.7652C32.5987 40.3833 33.1228 39.4121 32.9147 38.0741C32.8329 37.5484 32.9718 37.0152 33.2179 37.0043C33.3367 36.999 33.5905 37.1362 33.5672 37.8871C33.544 38.638 33.8257 38.9605 33.9307 38.5327C34.0357 38.1049 33.9298 37.9887 34.0922 37.6139C34.2548 37.2391 34.4714 36.8619 34.2238 36.4906Z" fill="#422803"/>
<path d="M34.7779 42.6456C34.7779 42.6456 34.9105 46.5823 34.5522 50.5071C34.5522 50.5071 34.6914 50.698 35.1028 48.9443C35.4128 47.6228 35.8619 46.1981 35.6654 46C35.6654 46 35.2739 45.6263 35.35 45.4945C35.426 45.3628 35.638 45.2058 35.6968 44.8973C35.7556 44.5889 35.7441 43.2099 35.7324 43.0543C35.7064 42.7071 34.7815 42.3398 34.7779 42.6456Z" fill="#F7EAD7"/>
<path d="M33.9317 44.1748C34.2334 44.1748 34.4779 43.8571 34.4779 43.4652C34.4779 43.0732 34.2334 42.7555 33.9317 42.7555C33.6301 42.7555 33.3855 43.0732 33.3855 43.4652C33.3855 43.8571 33.6301 44.1748 33.9317 44.1748Z" fill="#422803"/>
<path opacity="0.5" d="M34.778 42.6455C34.778 42.6455 34.7383 42.494 35.086 42.5519C35.4336 42.6097 34.9835 44.0766 34.6711 44.1124C34.3587 44.1482 33.9348 43.0954 33.9321 42.8965C33.9295 42.6977 34.778 42.6455 34.778 42.6455Z" fill="#9E6E2B"/>
<path d="M34.3658 42.0211C34.3658 42.0211 34.2997 42.2913 33.9384 42.5262C33.9384 42.5262 33.7952 42.6444 33.9149 42.9572C34.025 43.2448 34.3654 43.9945 34.5995 43.8078C34.8336 43.6211 34.8783 42.8206 34.7927 42.4133C34.7304 42.1167 34.4436 41.7954 34.3781 41.8723L34.3658 42.0211Z" fill="#FFD69C"/>
<path d="M36.2318 53.4107C36.2318 53.4107 36.2091 53.6646 36.0401 53.7187C35.8711 53.7728 35.5425 53.663 35.542 53.4873C35.5415 53.3116 36.1362 53.0488 36.2318 53.4107Z" fill="#FFBF66"/>
<path d="M32.1921 42.5174C32.1921 42.5174 32.751 44.9614 34.2322 48.5436C34.7746 49.7988 34.7632 49.808 34.7637 49.8317C34.7441 50.0132 34.216 49.2586 33.7553 48.6198C33.0281 47.6112 32.1031 46.4387 32.2437 46.242C32.2437 46.242 32.5767 45.6672 32.4664 45.586C32.356 45.5047 32.1132 45.4708 31.9643 45.2186C31.8154 44.9664 31.2628 43.1327 31.2627 42.9763C31.2625 42.6303 32.0947 42.2389 32.1921 42.5174Z" fill="#F7EAD7"/>
<path d="M32.5759 41.7993C32.5759 41.7993 32.559 42.1363 32.8312 42.2845C33.1034 42.4327 33.8909 42.3889 33.9294 42.6977C33.968 43.0065 33.5853 43.9363 33.2942 43.9805C33.0031 44.0247 32.3232 43.255 32.1972 42.7126C32.0792 42.2043 32.3764 41.6382 32.5833 41.6792L32.5759 41.7993Z" fill="#FFD69C"/>
<path d="M34.445 56.4326L31.1877 54.6167C30.953 54.4858 30.8408 54.1213 30.9371 53.8023L32.9002 47.3045C32.9965 46.9857 33.2649 46.8333 33.4997 46.9641L36.757 48.78C36.9917 48.9109 37.1039 49.2755 37.0076 49.5944L35.0445 56.0922C34.9481 56.411 34.6797 56.5634 34.445 56.4326Z" fill="#422803"/>
<path d="M34.4638 56.443L31.3926 54.7308C31.1683 54.6057 31.061 54.2573 31.1531 53.9526L33.0527 47.665C33.1448 47.3603 33.4013 47.2147 33.6256 47.3397L36.6968 49.0519C36.9212 49.177 37.0284 49.5254 36.9363 49.8301L35.0367 56.1177C34.9447 56.4224 34.6881 56.5681 34.4638 56.443Z" fill="#5C4320"/>
<path d="M35.0165 51.0194C35.0165 51.0194 35.7277 50.7649 36.1843 50.8198C36.641 50.8747 36.4042 51.3357 36.0659 51.3467C35.7277 51.3577 34.6521 51.2521 35.0165 51.0194ZM36.6118 53.1922C36.6118 53.1922 36.589 53.4461 36.4199 53.5001C36.2508 53.5542 35.9219 53.4444 35.9214 53.2688C35.921 53.0931 36.5161 52.8302 36.6118 53.1922Z" fill="#FFBF66"/>
<path d="M36.9784 52.8465C36.9784 52.8465 36.9556 53.1004 36.7867 53.1545C36.6177 53.2086 36.2891 53.0988 36.2886 52.9231C36.2881 52.7474 36.8828 52.4846 36.9784 52.8465Z" fill="#FFBF66"/>
<path d="M37.1324 52.3237C37.1324 52.3237 37.1097 52.5776 36.9407 52.6317C36.7717 52.6857 36.4431 52.5759 36.4426 52.4003C36.4422 52.2246 37.0368 51.9617 37.1324 52.3237Z" fill="#FFBF66"/>
<path d="M34.3851 51.8195C34.3928 52.505 34.7466 52.8286 35.4421 53.0801C36.1482 53.3352 36.2942 52.5542 36.6409 51.8195C36.9168 51.235 36.1568 51.079 35.4952 51.0173C34.7889 50.9515 34.3775 51.1341 34.3851 51.8195Z" fill="#FFBF66"/>
<path d="M36.5301 51.2983C36.5301 51.2983 36.7591 51.4565 36.8943 51.7528C37.0295 52.0492 37.2576 52.2798 37.0464 52.5103C36.8352 52.7408 36.607 52.3017 36.4465 52.0492C36.2859 51.7967 36.3801 51.1624 36.5301 51.2983Z" fill="#FFBF66"/>
<path d="M36.4876 51.7982C36.4876 51.7982 36.7749 52.4364 36.927 52.6716C37.0791 52.9069 36.8594 53.1704 36.7073 53.0606C36.5553 52.9509 36.3298 52.6764 36.2608 52.3251C36.1919 51.9738 36.3609 51.6445 36.4876 51.7982Z" fill="#FFBF66"/>
<path d="M36.1864 51.975C36.1864 51.975 36.4267 52.814 36.5702 53.0409C36.7136 53.2677 36.4464 53.4982 36.3195 53.3774C36.1927 53.2567 35.9899 52.9143 35.9561 52.575C35.9223 52.2358 36.0258 51.7558 36.1864 51.975Z" fill="#FFBF66"/>
<path d="M35.4422 53.08C35.4422 53.08 35.626 53.1689 35.7697 53.3116C35.9133 53.4544 36.0868 53.641 36.2029 53.5092C36.319 53.3775 36.0569 52.9367 35.9809 52.7234C35.9049 52.5103 35.1485 52.6178 35.4422 53.08Z" fill="#FFBF66"/>
<path d="M33.7692 52.5444C33.7796 52.6887 33.7285 52.7969 33.8396 52.7835L34.4948 52.7214C34.6058 52.708 34.6882 52.579 34.6779 52.4347L34.5975 51.3102C34.5872 51.166 34.4879 51.0589 34.3768 51.0723L33.872 51.1332C33.761 51.1467 33.6785 51.2757 33.6889 51.4199L33.7692 52.5444Z" fill="#FFD69C"/>
<path d="M30.0025 43.6842C30.2958 43.4587 31.223 43.0515 31.6212 42.868C31.7554 43.3998 31.8494 43.9461 32.0204 44.4594C31.764 45.0998 31.182 45.5115 31.0934 45.6956C30.8738 46.1516 29.2981 51.6157 29.4866 51.6979C29.7557 51.8154 33.8269 51.0711 33.8269 51.0711C33.7738 51.5543 33.8967 53.2624 33.8967 53.2624C33.5927 53.5529 27.3935 55.3734 27.2764 53.2624C27.1508 50.996 28.0744 45.1662 30.0025 43.6842Z" fill="#FFFAF3"/>
<path d="M88.4472 57.1105C88.4472 57.1105 88.805 56.7018 89.6778 56.7956C90.5999 56.8948 91.6754 57.8291 91.6096 58.0842C91.5439 58.3394 89.3413 57.861 89.0314 57.6441C88.7214 57.4272 88.2932 57.2415 88.4472 57.1105Z" fill="#FFBF66"/>
<path d="M66.7356 85.2084C66.8798 84.0017 66.2765 82.8646 65.3882 82.6688C64.4998 82.4729 63.6628 83.2924 63.5186 84.4991C63.3745 85.7058 63.9777 86.8429 64.8661 87.0387C65.7544 87.2346 66.5914 86.4151 66.7356 85.2084Z" fill="#9E6E2B"/>
<path d="M104.019 85.376C104.226 84.1862 103.684 82.994 102.808 82.713C101.932 82.4321 101.054 83.1688 100.848 84.3586C100.641 85.5484 101.183 86.7407 102.059 87.0216C102.935 87.3026 103.813 86.5658 104.019 85.376Z" fill="#9E6E2B"/>
<path opacity="0.5" d="M66.264 85.1044C66.3659 84.2515 65.9395 83.4478 65.3116 83.3094C64.6837 83.1709 64.0921 83.7502 63.9902 84.6031C63.8883 85.456 64.3147 86.2597 64.9426 86.3981C65.5705 86.5366 66.1621 85.9573 66.264 85.1044Z" fill="#9E6E2B"/>
<path opacity="0.5" d="M103.436 85.1889C103.567 84.4366 103.224 83.6827 102.67 83.5051C102.116 83.3274 101.561 83.7933 101.431 84.5456C101.3 85.298 101.643 86.0518 102.197 86.2295C102.75 86.4071 103.305 85.9413 103.436 85.1889Z" fill="#9E6E2B"/>
<path d="M103.826 78.201C103.162 78.201 102.623 77.4695 102.623 76.5672V57.8748C102.623 56.9725 103.162 56.241 103.826 56.241C104.49 56.241 105.029 56.9725 105.029 57.8748V76.5671C105.029 77.4695 104.49 78.201 103.826 78.201Z" fill="#9E6E2B"/>
<path opacity="0.5" d="M105.029 63.2883V57.8746C105.029 56.9724 104.49 56.2408 103.826 56.2408C103.162 56.2408 102.623 56.9724 102.623 57.8746V65.799C103.429 64.9702 104.231 64.1332 105.029 63.2883Z" fill="#9E6E2B"/>
<path d="M65.1246 85.7494C65.002 85.7494 64.8781 85.7031 64.7674 85.606C64.4614 85.3375 64.3735 84.7829 64.5711 84.3672L66.9767 79.3077C67.1743 78.8919 67.5826 78.7725 67.8886 79.0411C68.1946 79.3095 68.2825 79.8642 68.0848 80.2798L65.6793 85.3394C65.5532 85.6048 65.3411 85.7494 65.1246 85.7494ZM102.429 85.7495C102.194 85.7495 101.967 85.5796 101.848 85.2801L99.8305 80.2206C99.657 79.7855 99.7761 79.2416 100.096 79.006C100.417 78.7702 100.817 78.932 100.99 79.367L103.008 84.4266C103.181 84.8617 103.062 85.4056 102.742 85.6411C102.646 85.7122 102.538 85.7495 102.429 85.7495Z" fill="#9E6E2B"/>
<path opacity="0.5" d="M67.1014 82.3486L68.0849 80.2799C68.2825 79.8641 68.1947 79.3097 67.8887 79.0411C67.5826 78.7725 67.1744 78.8919 66.9767 79.3077L65.531 82.3485L67.1014 82.3486ZM100.679 82.3486H102.179L100.99 79.3669C100.817 78.932 100.417 78.7701 100.096 79.006C99.7761 79.2416 99.6571 79.7853 99.8306 80.2205L100.679 82.3486Z" fill="#9E6E2B"/>
<path d="M91.9337 79.499C91.9337 80.5425 91.2057 81.3963 90.3159 81.3963H64.0296C63.1398 81.3963 62.4119 80.5425 62.4119 79.499V73.6352C62.4119 72.5917 63.1398 71.7379 64.0296 71.7379H90.3159C91.2057 71.7379 91.9337 72.5917 91.9337 73.6352V79.499Z" fill="#9E6E2B"/>
<path d="M107.501 78.1707C107.501 79.9448 106.314 81.3963 104.863 81.3963H89.8864C88.4353 81.3963 87.2481 79.9448 87.2481 78.1707C87.2481 76.3966 88.4353 74.945 89.8864 74.945H104.863C106.314 74.945 107.501 76.3966 107.501 78.1707ZM93.3671 72.49H58.7226C57.2012 72.49 57.2012 65.0061 58.7226 65.0061H92.4398L103.197 53.9101C104.409 52.6604 106.137 52.9816 107.057 54.6273C107.977 56.2733 107.741 58.6207 106.529 59.8706L95.033 71.7283C94.5538 72.2225 93.9687 72.49 93.3671 72.49Z" fill="#9E6E2B"/>
<path d="M58.607 72.6788C57.9428 72.6788 57.4043 71.9473 57.4043 71.045V62.8191C57.4043 61.9168 57.9428 61.1853 58.607 61.1853C59.2713 61.1853 59.8098 61.9168 59.8098 62.8191V71.045C59.8098 71.9473 59.2713 72.6788 58.607 72.6788ZM104.477 73.9791C104.411 73.9791 104.348 73.9436 104.302 73.8804C104.255 73.8172 104.229 73.7315 104.229 73.6421V65.0228C104.229 64.9334 104.255 64.8477 104.302 64.7845C104.348 64.7213 104.411 64.6858 104.477 64.6857C104.543 64.6858 104.606 64.7213 104.653 64.7845C104.699 64.8477 104.725 64.9334 104.725 65.0228V73.6421C104.725 73.7315 104.699 73.8172 104.653 73.8804C104.606 73.9436 104.543 73.9791 104.477 73.9791ZM105.718 59.9073C105.663 59.9074 105.61 59.8829 105.567 59.8376C105.523 59.7924 105.492 59.7289 105.478 59.6571C105.464 59.5853 105.468 59.5092 105.489 59.4406C105.51 59.372 105.547 59.3148 105.594 59.2779C106.01 58.9542 106.308 58.43 106.434 57.8018C106.56 57.1736 106.498 56.5167 106.259 55.9519C106.021 55.3869 105.635 54.9819 105.173 54.8114C104.71 54.6405 104.227 54.725 103.811 55.0486C103.783 55.0706 103.752 55.0849 103.719 55.0905C103.687 55.0962 103.654 55.0931 103.623 55.0815C103.591 55.0699 103.562 55.05 103.536 55.023C103.51 54.9959 103.488 54.9622 103.472 54.9237C103.44 54.8461 103.431 54.7541 103.448 54.6678C103.465 54.5815 103.507 54.5081 103.564 54.4636C104.095 54.0502 104.712 53.9423 105.303 54.1608C105.893 54.3787 106.386 54.8957 106.69 55.6166C106.994 56.3376 107.073 57.1765 106.913 57.9784C106.753 58.7804 106.372 59.4496 105.841 59.8628C105.804 59.892 105.761 59.9074 105.718 59.9073Z" fill="#9E6E2B"/>
<path d="M59.2521 71.2644C59.1863 71.2644 59.1233 71.2288 59.0768 71.1656C59.0303 71.1024 59.0042 71.0167 59.0042 70.9274V62.9237C59.0042 62.7377 59.1152 62.5867 59.2521 62.5867C59.3889 62.5867 59.5 62.7377 59.5 62.9237V70.9274C59.5 71.0167 59.4738 71.1024 59.4273 71.1656C59.3809 71.2288 59.3178 71.2644 59.2521 71.2644Z" fill="#9E6E2B"/>
<path opacity="0.5" d="M94.4134 81.3964H93.1736C93.1736 81.3964 93.2675 80.0995 93.7935 79.1299C94.3194 78.1602 94.9994 74.9451 94.9994 74.9451H96.344L94.4134 81.3964Z" fill="#9E6E2B"/>
<path d="M98.3624 55.1009C98.7472 55.8153 97.7941 56.8683 97.2844 56.6652L98.7243 59.0151C99.4389 57.5083 101.047 56.2347 101.047 56.2347C101.176 56.1363 100.093 55.2428 100.066 55.1977C100.04 55.1525 98.0825 54.5811 98.3624 55.1009Z" fill="#FFBF66"/>
<path d="M101.611 55.6844C100.568 56.7209 99.1337 56.2828 98.5001 55.3573C97.8199 54.3636 98.5094 54.0001 99.4158 52.6727C99.4158 52.6727 99.5079 52.5759 99.607 52.5299C100.099 52.3016 100.028 51.9981 100.143 51.8775C101.119 50.8549 102.002 51.0595 102.497 51.969C103.051 52.9845 102.654 54.648 101.611 55.6844Z" fill="#FFBF66"/>
<path d="M98.8932 55.2113C98.6946 55.4227 98.6372 55.605 98.2858 55.0706C98.1068 54.7982 98.1208 54.4149 98.3263 54.2302C98.5695 54.0117 98.8895 53.2875 99.0306 53.531C99.1969 53.818 99.0918 54.9999 98.8932 55.2113Z" fill="#FFBF66"/>
<path d="M99.9236 52.3039C99.9236 52.3039 99.8551 52.3954 99.7551 52.4272C99.6292 52.4674 99.4518 52.4626 99.2822 52.6179C99.0918 52.792 98.9448 52.7196 98.8457 52.8553C98.7467 52.9911 98.8667 53.4436 99.0989 53.5497C99.331 53.6559 100.223 52.1767 99.9236 52.3039Z" fill="#FFBF66"/>
<path opacity="0.2" d="M100.893 51.3108L100.6 51.481C100.6 51.481 100.71 51.8187 100.886 52.0731C101.061 52.3275 101.199 52.3207 101.073 52.547C100.946 52.7734 100.893 52.9168 100.825 53.2671C100.758 53.6175 100.641 53.7746 100.525 53.9316C100.409 54.0887 100.326 54.4252 100.511 54.4311C100.696 54.4371 101.518 53.5811 101.669 53.5955C101.821 53.61 101.883 54.1692 101.742 54.4017C101.602 54.6342 101.304 54.9285 101.076 55.164C100.848 55.3995 100.22 56.3542 100.542 56.6651C100.542 56.6651 102.465 54.4437 102.414 54.406C102.362 54.3684 102.534 53.3256 102.518 53.1268C102.501 52.9281 101.04 51.2884 100.893 51.3108Z" fill="#9E6E2B"/>
<path d="M101.454 52.5788C101.454 52.5788 100.572 51.4991 100.792 50.7999C101.013 50.1008 101.605 49.698 102.18 50.0023C102.755 50.3065 102.446 50.8282 102.559 51.318C102.673 51.8078 103.354 53.0053 103.353 53.7286C103.351 54.8304 103.027 55.427 102.486 55.7808C101.82 56.2163 101.057 56.5403 100.745 56.6892C100.271 56.9157 100.487 55.7063 101.404 55.0389C101.765 54.7767 101.982 54.2726 101.825 54.001C101.749 53.87 101.5 53.6887 101.079 54.2137C100.657 54.7386 100.282 54.6507 100.461 54.2532C100.64 53.8556 100.778 53.892 100.888 53.4679C100.998 53.0439 101.073 52.5601 101.454 52.5788Z" fill="#422803"/>
<path d="M95.1962 77.1161C95.1573 77.2242 94.726 78.7369 94.5131 79.3946C94.3003 80.0524 95.9239 79.5292 95.9239 79.5292C95.9239 79.5292 95.9539 79.0942 96.2922 77.8482C96.6306 76.6022 95.1962 77.1161 95.1962 77.1161Z" fill="#FFBF66"/>
<path d="M95.5274 78.5425C95.5274 78.5425 94.9483 78.4256 94.5938 79.2017C94.2393 79.9777 93.8974 81.6558 94.0948 81.8867C94.2922 82.1176 95.5988 82.1985 95.7973 81.7769C95.9958 81.3553 96.1203 78.7459 95.5274 78.5425Z" fill="#FFBF66"/>
<path d="M94.0417 81.4464C94.0417 81.4464 93.9956 82.7809 94.0182 82.9551C94.0407 83.1294 94.1633 83.8394 94.3668 84.0318C94.5702 84.2242 94.4458 83.2711 94.3951 82.9478C94.3445 82.6246 94.6077 81.7806 94.4855 81.6259C94.3633 81.4712 94.0463 81.3075 94.0417 81.4464Z" fill="#FFBF66"/>
<path d="M94.5318 81.4429C94.5205 81.4879 94.501 82.6335 94.6334 83.0594C94.7985 83.5906 94.9666 84.3569 95.2122 84.3324C95.3624 84.3174 95.0845 83.1504 95.034 82.8881C94.9801 82.6081 94.9822 81.6251 94.9822 81.6251C94.9822 81.6251 94.5777 81.2599 94.5318 81.4429Z" fill="#FFBF66"/>
<path d="M94.8795 81.6924C94.8795 81.6924 94.9618 82.6749 95.0929 83.0183C95.2543 83.4408 95.435 84.137 95.6205 84.0986C95.7846 84.0646 95.5037 83.0607 95.4587 82.8498C95.4138 82.639 95.3195 81.7754 95.3195 81.7754C95.3195 81.7754 94.8706 81.6329 94.8795 81.6924Z" fill="#FFBF66"/>
<path d="M95.8612 81.5541C95.8535 81.5923 95.7699 82.6317 95.7935 82.8476C95.817 83.0635 96.2264 83.8173 95.9995 83.8945C95.8959 83.9298 95.5081 83.3656 95.4145 82.9146C95.3209 82.4637 95.2429 81.9306 95.2808 81.7633C95.3186 81.596 95.8973 81.3761 95.8612 81.5541Z" fill="#FFBF66"/>
<path d="M98.3484 63.5563C99.4842 62.595 99.6901 60.2572 98.8084 58.3348C97.9266 56.4124 96.291 55.6333 95.1552 56.5947C94.0194 57.556 93.8135 59.8937 94.6952 61.8162C95.577 63.7386 97.2126 64.5176 98.3484 63.5563Z" fill="#422803"/>
<path d="M95.41 56.4125C95.41 56.4125 92.9559 57.557 91.7441 57.8879C90.5324 58.2188 87.6632 58.685 87.6632 58.685L87.0308 65.006C87.0308 65.006 91.6283 65.2965 93.0236 65.1433C94.4189 64.9902 97.4858 64.9614 98.565 63.3425C99.112 62.5218 96.6245 55.8017 95.41 56.4125Z" fill="#422803"/>
<path opacity="0.5" d="M97.1931 64.4127C96.9371 64.5797 96.593 64.5926 96.3197 64.6721C95.5968 64.8822 94.848 64.9862 94.1098 65.0303C93.697 65.0549 93.2789 65.0352 92.8674 65.0888C92.5655 65.128 92.2867 65.1856 91.9902 65.0792C91.8792 65.0394 91.8153 64.8917 91.8243 64.7497C91.705 64.5251 91.5929 64.3047 91.4958 64.0746C89.2942 64.4477 87.2821 64.7633 87.3004 64.6677C87.3406 64.4572 61.4832 65.0696 61.4832 65.0696L60.1682 65.0061C60.1682 65.0061 60.2809 65.7331 60.8257 66.1924C61.3704 66.6517 62.4224 68.6421 63.0235 69.8159C63.6247 70.9898 64.1882 72.49 64.1882 72.49H62.7426C62.7426 72.49 62.3073 73.0775 62.4118 74.2601H66.0385C66.0385 74.2601 66.3485 74.3134 66.6021 74.6005C66.8557 74.8875 69.8707 77.6817 72.308 77.9497C74.7454 78.2176 78.7747 76.5335 79.761 75.6913C80.7472 74.8492 83.6353 73.0503 84.213 73.1842C84.7906 73.3182 86.0022 74.5628 87.1293 74.9451C88.2564 75.3273 91.2097 74.7878 91.5954 74.5239C91.9812 74.2601 91.9336 74.2601 91.9336 74.2601C91.9336 74.2601 92.0899 73.0206 91.6032 72.49H92.5535C92.5535 72.49 92.793 70.7729 92.6521 68.8399C92.5112 66.9069 92.3703 65.663 92.3703 65.663C92.3703 65.663 96.1465 65.2802 96.7521 65.0888C96.7521 65.0888 96.9069 65.0697 96.8928 65.3376C96.8787 65.6056 96.796 66.926 96.8937 66.9452C96.9914 66.9644 97.2168 66.9452 97.2027 67.0792C97.1886 67.2132 96.902 69.8002 96.902 69.8002C96.902 69.8002 97.6677 69.0121 97.7663 68.8016C97.8529 68.6168 98.0589 64.7155 98.1079 63.7657C97.8007 63.976 97.5029 64.2106 97.1931 64.4127Z" fill="#9E6E2B"/>
<path d="M90.6375 57.5533C89.8485 57.8836 86.5517 57.8355 85.8191 57.7131C85.0865 57.5907 83.5645 57.5533 83.5645 57.5533C83.5355 57.5489 83.5062 57.548 83.4771 57.5506C80.8893 57.4895 77.2485 58.1255 75.8663 58.3792C74.3049 58.6659 70.9721 60.1728 67.9095 59.5457C64.8469 58.9185 64.4866 57.1953 63.6459 57.1776C62.9455 57.1629 62.8286 58.3174 62.7049 59.6586C62.5391 61.1334 62.3473 61.9693 62.1618 62.8191C62.1271 62.9449 62.091 63.07 62.0536 63.1944C61.7795 63.9653 61.1303 64.2276 61.1303 64.2276C59.8098 65.0061 61.0446 65.1359 61.7837 65.9883C63.3013 67.7383 66.7626 76.8413 73.7685 76.2974C78.7661 75.9095 81.8461 71.1428 84.9597 72.2146C86.2042 72.999 90.9098 76.5367 92.2154 70.0563C92.5917 68.1883 91.6518 62.1224 91.7645 59.9074C91.8773 57.6924 91.4264 57.223 90.6375 57.5533Z" fill="#FFCB82"/>
<path d="M97.5692 65.4715C97.5692 65.4715 97.5391 68.2691 97.3744 68.9738C97.2097 69.6785 99.054 69.9705 99.054 69.9705C99.054 69.9705 99.4617 67.6342 99.4453 65.6438C99.4288 63.6534 97.5782 64.936 97.5692 65.4715Z" fill="#FFBF66"/>
<path d="M94.9994 77.7787C94.9994 77.7787 97.0108 70.6962 97.3746 68.9738C97.7383 67.2514 99.1003 68.6699 99.1038 69.3324C99.1155 71.5766 96.6479 76.6119 96.2069 78.1707C95.766 79.7295 94.7172 78.7781 94.9994 77.7787Z" fill="#FFBF66"/>
<path d="M97.2427 66.5433H99.718C99.779 64.9996 99.7685 63.3768 99.6769 62.4861C99.4815 60.5857 99.4963 60.144 98.7538 58.8299C97.8374 57.208 96.7034 60.3581 97.0861 63.321C97.2288 64.4252 97.2598 65.5572 97.2427 66.5433Z" fill="#422803"/>
<path d="M98.9487 58.6665C98.9487 58.6665 97.9636 57.7206 96.3481 57.7971C94.7326 57.8737 97.2851 56.4945 97.2851 56.4945C97.2851 56.4945 98.7714 57.172 98.9487 58.6665Z" fill="#FFBF66"/>
<path opacity="0.5" d="M88.017 57.7876L87.5873 57.8046C87.5873 57.8046 87.3619 58.065 87.228 58.7923C87.0942 59.5195 87.0801 60.0841 87.228 60.0745C87.376 60.0649 87.4112 60.0267 87.4041 60.2659C87.3971 60.5051 87.5229 60.7466 87.6507 60.5625C87.6507 60.5625 87.6014 61.0219 87.8057 60.9931C88.01 60.9644 87.9466 60.285 88.1016 59.8161C88.2565 59.3473 88.4604 59.2229 88.4148 59.5004C88.3692 59.7779 88.2709 60.7606 88.4892 60.8242C88.7074 60.8879 88.7215 59.6091 88.7637 59.3155C88.806 59.0219 89.2146 58.3043 89.1935 58.62C89.1724 58.9358 89.0441 59.5865 89.2597 59.6535C89.4752 59.7205 89.6161 59.2229 89.6373 58.8018C89.6584 58.3808 89.3672 57.7527 89.5903 57.6696C89.8134 57.5865 88.3128 57.4239 88.017 57.7876Z" fill="#9E6E2B"/>
<path d="M89.5903 57.7235C89.5903 57.7235 89.143 58.342 89.0252 58.7212C88.8011 59.4421 88.8863 60.0201 88.7341 60.4404C88.6439 60.6895 88.5251 60.6116 88.5135 60.29C88.5019 59.9684 88.5126 59.5151 88.6595 58.7537C88.6595 58.7537 88.5189 58.84 88.3914 59.1672C88.264 59.4943 88.1271 60.1966 88.0466 60.5655C87.9661 60.9345 87.7539 60.9117 87.7729 60.48C87.792 60.0484 87.8693 59.4854 88.0321 58.9492L88.195 58.4129" fill="#FFBF66"/>
<path d="M88.0146 58.2344C88.0146 58.2344 87.7677 58.6301 87.6214 59.3182C87.4946 59.9141 87.4889 60.3614 87.5892 60.3948C87.7511 60.4489 88.0806 59.4047 88.2918 58.6879" fill="#FFBF66"/>
<path d="M87.8206 57.823C87.8206 57.823 87.518 58.4048 87.4051 58.859C87.2922 59.3132 87.2627 59.8421 87.3565 59.8552C87.4503 59.8682 87.8154 58.6694 87.9802 58.4762C87.9802 58.4762 88.0868 58.6971 88.2964 58.6647C88.506 58.6324 88.9645 58.4413 88.9645 58.4413C88.9645 58.4413 89.3396 58.0879 89.4649 57.9057C89.5902 57.7235 89.6436 57.5243 89.6738 57.4071C89.7303 57.1883 89.1696 56.6625 88.712 56.9191C88.361 57.1159 87.9029 57.6559 87.8206 57.823Z" fill="#FFBF66"/>
<path d="M89.6288 57.2299C89.6288 57.2299 89.7497 57.4881 89.7661 57.852C89.7825 58.2159 89.8168 58.5446 89.7592 58.7794C89.7014 59.0141 89.6564 59.1305 89.6526 59.4229C89.6488 59.7153 89.4059 59.3784 89.4233 59.0984C89.4406 58.8184 89.5016 58.428 89.4429 58.329C89.3842 58.23 89.2609 57.8245 89.2595 57.7262C89.2582 57.628 89.5155 56.9986 89.6288 57.2299Z" fill="#FFBF66"/>
<path opacity="0.5" d="M97.2028 64.4094C97.2028 64.4094 97.0215 62.7153 97.01 62.0552C96.9985 61.3951 96.59 62.3807 96.3927 63.0219C96.1954 63.663 95.6685 64.8326 95.6685 64.8326C95.6685 64.8326 96.7168 64.6964 97.2028 64.4094ZM97.5469 66.5433H99.4273C99.4273 66.5433 99.3727 67.4681 99.3297 67.8773L97.5239 67.2103L97.5469 66.5433Z" fill="#9E6E2B"/>
</svg>
