<svg width="105" height="68" viewBox="0 0 105 68" fill="none" xmlns="http://www.w3.org/2000/svg">
<path d="M52.8334 63.6878C80.5443 63.6878 103.008 62.7351 103.008 61.56C103.008 60.3848 80.5443 59.4321 52.8334 59.4321C25.1225 59.4321 2.65845 60.3848 2.65845 61.56C2.65845 62.7351 25.1225 63.6878 52.8334 63.6878Z" fill="#F2F2F2"/>
<path d="M36.6005 22.5946C36.3607 22.6326 36.2133 22.7884 36.2715 22.9448C36.3026 23.0276 36.3877 23.0936 36.4964 23.1312C36.5884 23.163 36.6992 23.175 36.8113 23.1571L36.7701 23.1643C36.4981 23.2068 36.3341 23.3827 36.3988 23.5568C36.4334 23.6499 36.5272 23.7251 36.6507 23.7678C36.7538 23.8034 36.8788 23.8159 37.0037 23.7962L37.2397 23.7598C37.0019 23.8155 36.8615 23.9799 36.922 24.1415C36.9576 24.2364 37.0525 24.3105 37.1739 24.3525C37.2788 24.3888 37.4037 24.4011 37.5286 24.3816L37.6885 24.3572C37.4334 24.3962 37.2774 24.5629 37.3386 24.7264C37.3712 24.8157 37.4618 24.8869 37.576 24.9263L37.5777 24.9269C37.6771 24.9612 37.7937 24.9721 37.9113 24.9531L40.4723 24.5528L41.7748 24.1482L40.9786 21.8951C40.6758 21.8975 40.2429 21.8369 39.8052 21.7532C39.1961 21.6364 38.5785 21.4753 38.292 21.3806C37.9937 21.2945 37.7238 21.1998 37.5051 21.2788C37.4321 21.3041 37.3725 21.3388 37.3251 21.3791C37.1404 21.5373 37.2186 21.7662 37.467 21.8841L38.5933 22.2838L36.6005 22.5946Z" fill="#FFBF66"/>
<path d="M81.8066 54.7545L78.1873 55.76L80.2004 58.7903L83.8198 57.7848L81.8066 54.7545Z" fill="#FFBF66"/>
<path d="M79.0438 57.484C79.0438 57.484 75.5554 60.5828 75.3824 60.8027C75.1942 61.0424 75.2897 61.1422 75.3578 61.2281C75.5675 61.491 76.0714 61.6349 76.544 61.5201L85.0565 59.3585C85.1188 59.3426 85.1544 59.2997 85.1399 59.2574C85.0838 59.0882 85.0247 58.9318 84.9637 58.7872C84.516 57.7196 83.6322 56.7413 83.1955 56.4638C83.1488 56.4345 83.0716 56.4549 83.0685 56.4969C82.9741 57.7111 80.6124 58.2094 79.3459 57.4791C79.259 57.4287 79.1265 57.4303 79.0438 57.484Z" fill="#413729"/>
<path d="M75.3582 61.2281C75.5679 61.4911 76.0717 61.6349 76.5444 61.5201L85.0568 59.3585C85.1191 59.3426 85.1547 59.2997 85.1402 59.2574C85.0841 59.0882 85.025 58.9318 84.9641 58.7872L75.3582 61.2281Z" fill="#2D261C"/>
<path d="M63.7044 56.3048L59.7671 56.3854L59.9284 59.6819L63.8656 59.6013L63.7044 56.3048Z" fill="#FFBF66"/>
<path d="M59.5887 58.1933C59.5887 58.1933 54.5902 60.2534 54.3051 60.4172C53.9947 60.5955 54.0269 60.711 54.0418 60.8072C54.0885 61.1015 54.4764 61.3543 54.9809 61.3595L64.1262 61.359C64.1934 61.359 64.2505 61.3275 64.2612 61.2845C64.3044 61.1138 64.3376 60.9542 64.3629 60.8052C64.5494 59.7056 64.2795 58.5861 64.0297 58.2247C64.0034 58.1862 63.9196 58.1869 63.893 58.2253C63.1189 59.333 60.6389 59.239 59.8728 58.2598C59.8202 58.1924 59.6959 58.1627 59.5887 58.1933Z" fill="#413729"/>
<path d="M54.042 60.8074C54.0887 61.1017 54.4766 61.3546 54.9811 61.3597L64.1265 61.3593C64.1936 61.3593 64.2507 61.3277 64.2614 61.2847C64.3047 61.114 64.3379 60.9545 64.3631 60.8054L54.042 60.8074Z" fill="#2D261C"/>
<path d="M83.2342 55.7363L76.7502 44.1179L76.3523 29.3146L60.8247 28.8445L57.1799 43.4509L59.207 57.1711L64.3816 56.9275L63.3629 43.9783L68.2987 33.6294L70.2137 44.2336L78.0174 56.594L83.2342 55.7363Z" fill="#413729"/>
<path d="M81.6481 33.0662L87.314 39.0742C87.7781 39.5662 88.7712 39.722 89.5318 39.4217L102.101 34.4649C102.862 34.1649 103.103 33.5229 102.638 33.0306L96.9726 27.0226C96.767 26.8046 96.3268 26.7355 95.9891 26.8684L81.8865 32.43C81.5491 32.5633 81.4425 32.8482 81.6481 33.0662Z" fill="#AA7326"/>
<path d="M81.6481 33.0661L84.4523 36.0396C84.8645 36.4766 85.7461 36.6145 86.4216 36.3482L99.2996 31.2695C99.9751 31.0032 100.189 30.4333 99.7768 29.9962L96.9729 27.023C96.7673 26.805 96.3272 26.7359 95.9895 26.8688L81.8868 32.4304C81.5491 32.5633 81.4425 32.8482 81.6481 33.0661Z" fill="#8A5D1E"/>
<path d="M81.6479 33.0661L84.2497 35.8252C84.6615 36.262 85.5432 36.4001 86.2186 36.1338L99.0966 31.0551C99.7721 30.7888 99.9859 30.2184 99.5738 29.7819L96.972 27.023C96.7664 26.805 96.3263 26.7359 95.9885 26.8688L81.8859 32.4304C81.5489 32.5633 81.4423 32.8482 81.6479 33.0661Z" fill="#AA7326"/>
<path d="M97.7621 32.9612C98.1407 32.8117 98.2608 32.4922 98.0296 32.2471L96.9102 31.0602C96.8604 31.007 96.7531 30.9904 96.6707 31.0227L95.5963 31.4463C95.5143 31.4787 95.488 31.5481 95.5382 31.6011L96.6576 32.788C96.8887 33.0332 97.3832 33.1109 97.7621 32.9612Z" fill="#8A5D1E"/>
<path d="M97.5915 32.7804C97.9704 32.6309 98.0901 32.3111 97.859 32.0663L96.7395 30.8792C96.6894 30.8262 96.5821 30.8094 96.5001 30.8419L95.4256 31.2655C95.3436 31.2979 95.3177 31.3673 95.3679 31.4205L96.4869 32.6072C96.7181 32.8522 97.2126 32.9296 97.5915 32.7804Z" fill="#674B23"/>
<path d="M96.9217 32.2623L97.0365 32.5157L97.4822 32.34L97.1864 32.1581C97.2296 32.1015 97.2286 32.0328 97.1743 31.975C97.0902 31.886 96.9106 31.8578 96.7729 31.9121C96.6351 31.9665 96.5912 32.0827 96.6753 32.1717C96.7296 32.2295 96.8244 32.2617 96.9217 32.2623Z" fill="white"/>
<path d="M89.419 36.2517C89.7979 36.1022 89.9176 35.7825 89.6864 35.5374L88.567 34.3506C88.5168 34.2973 88.4096 34.2805 88.3276 34.313L87.2531 34.7368C87.1708 34.7692 87.1448 34.8386 87.195 34.8916L88.3144 36.0785C88.5456 36.3236 89.04 36.4012 89.419 36.2517Z" fill="#8A5D1E"/>
<path d="M89.2478 36.0707C89.6267 35.9212 89.7464 35.6017 89.5153 35.3566L88.3959 34.1698C88.3457 34.1167 88.2384 34.0999 88.1564 34.1322L87.082 34.5558C86.9996 34.5882 86.9737 34.6576 87.0238 34.7106L88.1433 35.8975C88.3748 36.1425 88.8689 36.2202 89.2478 36.0707Z" fill="#674B23"/>
<path d="M88.5783 35.5527L88.6932 35.806L89.1389 35.6303L88.8434 35.4482C88.8866 35.3918 88.8856 35.3229 88.8313 35.2654C88.7472 35.1761 88.5679 35.1481 88.4299 35.2025C88.2921 35.2569 88.2482 35.373 88.3323 35.4623C88.3863 35.5198 88.4807 35.552 88.5783 35.5527Z" fill="white"/>
<path d="M90.4614 33.6759L93.8152 32.3532C93.8581 32.3362 93.8716 32.3002 93.8456 32.2724L93.256 31.647C93.2297 31.6192 93.174 31.6105 93.131 31.6275L89.7773 32.9502C89.7344 32.9672 89.7209 33.0033 89.7468 33.031L90.3365 33.6564C90.3624 33.684 90.4185 33.6929 90.4614 33.6759Z" fill="#FFA30F"/>
<path d="M89.7466 33.031L90.0051 33.3049C89.9791 33.2774 89.9926 33.2409 90.0355 33.2239L93.3893 31.9014C93.4325 31.8844 93.4886 31.8931 93.5145 31.9209L93.2561 31.647C93.2298 31.619 93.1737 31.6103 93.1308 31.6273L89.777 32.95C89.7338 32.967 89.7203 33.0032 89.7466 33.031Z" fill="#FF9E02"/>
<path d="M92.9327 28.537L91.7471 29.0045L92.2587 29.5471L93.4443 29.0796L92.9327 28.537Z" fill="#674B23"/>
<path d="M86.8154 30.948L85.6299 31.4156L86.1416 31.9582L87.3271 31.4906L86.8154 30.948Z" fill="#674B23"/>
<path d="M87.1159 29.7796L90.5319 28.4307L91.0693 28.2195C91.2195 28.1622 91.4119 28.1931 91.5015 28.2877L92.1462 28.9711C92.24 29.0705 92.4403 29.102 92.594 29.0414C92.7476 28.9807 92.7964 28.8512 92.7026 28.7516L92.058 28.0682C91.7797 27.7751 91.187 27.6802 90.7299 27.8594L90.2153 28.0631L86.7993 29.4119L86.474 29.5395L86.2992 30.0231C86.2726 30.0676 86.2363 30.1052 86.1913 30.1421L87.1159 29.7796ZM85.3819 30.704L86.0231 31.3867C86.1165 31.4863 86.3172 31.5176 86.4709 31.4572C86.6245 31.3966 86.673 31.267 86.5792 31.1676L85.9345 30.484C85.8636 30.4079 85.8812 30.3142 85.9594 30.25C85.8331 30.2838 85.6913 30.2891 85.5577 30.2553C85.4819 30.2345 85.4124 30.2066 85.3508 30.1665C85.3366 30.1591 85.3272 30.1499 85.3182 30.1381C85.1999 30.3171 85.2155 30.5272 85.3819 30.704Z" fill="#85602C"/>
<path d="M85.3186 30.1381C85.3273 30.1499 85.3369 30.1591 85.3511 30.1665C85.4124 30.2066 85.4823 30.2345 85.5581 30.2553C85.6916 30.2891 85.8335 30.284 85.9598 30.25C85.9823 30.2316 86.0076 30.2162 86.0411 30.2021L86.1923 30.1421C86.2373 30.1052 86.2737 30.0676 86.3003 30.0231L86.475 29.5395L85.7013 29.8447C85.5221 29.9143 85.3895 30.0195 85.3186 30.1381Z" fill="#85602C"/>
<path d="M85.3399 27.7505C85.4267 27.9434 85.4561 28.2407 85.4458 28.5462C85.4333 28.974 85.3582 29.4176 85.2914 29.6275C85.2475 29.8297 85.1797 30.0182 85.3184 30.1381C85.3894 30.0195 85.5219 29.9143 85.7004 29.8447L86.4742 29.5395L86.6043 29.1833L86.7995 29.4122L87.1157 29.7796L87.4915 30.2191L90.0671 29.2041L90.0677 29.2014L90.9114 28.8709L90.5314 28.4307L90.2152 28.0633L89.7134 27.4848C89.6297 27.3882 89.5304 27.2976 89.4179 27.2139L88.5992 26.6077L85.3399 27.7505Z" fill="#FFBF66"/>
<path d="M58.3657 13.2967L58.8616 17.8553C58.8799 18.1115 59.2363 24.4507 59.807 30.6848C66.1127 31.4212 70.9361 31.0611 77.0287 29.9528C77.0287 29.9528 75.7982 25.9198 76.3941 19.2738C76.4387 18.7797 76.4481 18.2845 76.4252 17.7898L80.9856 20.2848L85.3083 27.9366L88.9704 26.7824C88.9704 26.7824 85.772 18.771 84.6494 18.1843L76.864 13.0449C76.1079 12.6853 75.2394 12.4369 74.3207 12.3168L71.5067 11.9482L70.6437 11.8354C70.3703 11.8068 70.097 11.7833 69.8215 11.7634C68.3222 11.6535 66.8065 11.6757 65.3155 11.8234C64.8584 11.8704 64.403 11.9272 63.9518 11.9966L63.9327 12.0017L60.326 12.6681C59.618 12.7994 58.9547 13.0127 58.3657 13.2967Z" fill="#E89828"/>
<path d="M70.8722 9.26033C70.8722 9.26033 70.6632 9.94462 70.1985 10.2581L70.2898 9.40197L70.7369 8.99963L70.8722 9.26033Z" fill="#282522"/>
<path d="M70.6603 8.41358C70.6603 8.41358 70.8232 9.75262 69.7737 10.7824C69.1294 11.4143 67.983 11.727 66.82 11.6421C64.406 11.4658 63.2932 9.99519 64.3856 6.52831L68.6463 5.39447L71.3669 6.53033L70.6603 8.41358Z" fill="#FFBF66"/>
<path d="M69.8814 10.4908L69.7876 12.2233C69.7457 12.9971 68.7748 13.6142 67.5775 13.6281C66.2515 13.6433 65.193 12.9179 65.2926 12.0628L65.4355 10.8399L69.8814 10.4908Z" fill="#FFBF66"/>
<path d="M70.6797 8.56189C70.6797 8.56189 70.1949 8.29695 70.4257 7.76146C69.554 7.46072 69.1852 6.97245 69.781 6.12458C69.781 6.12458 65.5047 7.4596 63.5119 6.70124C63.5119 6.70124 62.5797 6.28368 63.3143 5.65623C63.4777 4.87057 63.913 4.33375 64.8936 4.29548L66.1013 4.48502C66.1013 4.48502 67.8581 3.66243 69.3 4.09207C69.3 4.09207 71.3461 4.54879 71.6327 5.22346C71.6327 5.22346 73.223 5.33736 72.696 6.54326L71.6053 8.21303L71.4399 8.68116L70.6797 8.56189Z" fill="#282522"/>
<path d="M70.2488 8.62993C70.1159 8.98349 70.3416 9.3225 70.7523 9.38695C71.163 9.45139 71.6035 9.21688 71.7361 8.8631C71.8686 8.50932 71.6433 8.17031 71.2326 8.10586C70.8218 8.04186 70.3813 8.27637 70.2488 8.62993Z" fill="#FFBF66"/>
<path d="M63.9329 12.0015L65.6333 13.7051L67.0101 13.5607L65.3212 11.8214C64.8637 11.8675 64.4045 11.9272 63.9526 11.9972L63.9329 12.0015ZM68.0465 13.6035L69.3839 13.859L71.5062 11.9482L70.6442 11.8357C70.3715 11.807 70.086 11.7824 69.8127 11.7625L68.0465 13.6035Z" fill="#CE841D"/>
<path d="M66.4849 13.4755L67.3922 13.9984L68.3939 13.5538L67.487 13.0306L66.4849 13.4755Z" fill="white"/>
<path d="M68.1458 13.5959C68.1458 13.5959 68.0011 20.4057 69.8216 23.0238L67.9537 24.9475L65.6509 23.1956C65.6509 23.1956 66.5783 13.8975 66.7713 13.5657L68.1458 13.5959Z" fill="white"/>
<path d="M40.6748 21.6686L41.7745 24.4275C41.7745 24.4275 54.2265 22.0862 55.7117 21.3822L61.9746 14.9736L58.3658 13.2951C55.8674 14.667 51.2209 19.2436 51.2209 19.2436L40.6748 21.6686Z" fill="#E89828"/>
<path d="M33.8672 59.0181V61.4257C33.8672 61.6689 34.1717 61.8658 34.5478 61.8658H36.7545C37.0389 61.8658 37.2933 61.7515 37.3922 61.5794L38.5466 59.5778L38.8691 59.0184H33.8672V59.0181Z" fill="#EAC188"/>
<path d="M33.8672 59.0181V60.0173C35.7247 59.9416 37.6372 59.7132 38.5466 59.5776L38.8691 59.0181H33.8672Z" fill="#FAD29B"/>
<path d="M23.7089 61.408C23.6926 61.6582 24.002 61.8658 24.3888 61.8658H26.7474C27.0104 61.8658 27.2498 61.7676 27.3623 61.6139L28.6257 59.8857L28.7419 59.7264L29.4987 58.691L23.8933 58.426L23.8698 58.8064L23.8611 58.9449L23.7089 61.408Z" fill="#EAC188"/>
<path d="M23.8702 58.8064C25.2814 59.2473 27.1264 59.5256 28.7424 59.7264L29.4992 58.691L23.8938 58.426L23.8702 58.8064ZM46.0188 57.0239L42.944 61.6011C42.836 61.7618 42.5907 61.8658 42.3197 61.8658H40.1252C39.7404 61.8658 39.4321 61.6595 39.4449 61.4107L39.6155 58.1817L46.0188 57.0239ZM16.4675 55.0395L16.7118 61.4366C16.7208 61.6754 17.0229 61.8658 17.3921 61.8658H19.586C19.8697 61.8658 20.1237 61.7521 20.223 61.5803L22.4972 57.6589L17.7357 54.8014L16.4675 55.0395Z" fill="#FAD29B"/>
<path d="M32.8926 59.8022C44.1671 59.8022 53.3068 54.8113 53.3068 48.6547C53.3068 42.498 44.1671 37.5071 32.8926 37.5071C21.6181 37.5071 12.4783 42.498 12.4783 48.6547C12.4783 54.8113 21.6181 59.8022 32.8926 59.8022Z" fill="#FAD29B"/>
<path d="M30.0953 47.2218C30.1924 47.2209 30.2705 47.1493 30.2696 47.0621L30.2644 46.5354C30.2635 46.4482 30.184 46.3782 30.0869 46.3792L25.0098 46.0521C24.9127 46.0531 25.5731 46.4948 25.5739 46.5821L25.5798 47.1712C25.5807 47.2584 25.6601 47.3284 25.7573 47.3274L27.0073 47.315C27.4075 47.311 27.7159 47.4391 27.9045 47.6649L25.7608 47.6862C25.6637 47.6872 25.5856 47.7587 25.5865 47.846L25.5917 48.3726C25.5926 48.4599 25.6721 48.5298 25.7692 48.5288L28.0962 48.5057C28.0098 48.9817 27.6207 49.2825 27.0081 49.2886L25.7769 49.3008C25.6797 49.3018 25.6017 49.3733 25.6025 49.4605L25.6095 50.1585C25.6099 50.2026 25.6309 50.2444 25.6672 50.274L28.1064 52.2559C28.1392 52.2825 28.1819 52.297 28.2261 52.2966L29.6332 52.4837C30.5827 52.8102 29.9742 52.0146 29.8556 51.9182L27.3231 50.1976C28.4441 50.1556 29.2383 49.4755 29.3337 48.4934L30.1078 48.4857C30.205 48.4848 30.283 48.4132 30.2821 48.326L30.2769 47.7994C30.276 47.7121 30.1966 47.6422 30.0995 47.6431L29.2392 47.6517C29.1866 47.5002 29.1149 47.36 29.0261 47.2324L30.0953 47.2218Z" fill="#DB8307"/>
<path d="M30.0953 47.2218C30.1924 47.2209 30.2705 47.1493 30.2696 47.0621L30.2644 46.5354C30.2635 46.4482 30.184 46.3782 30.0869 46.3792L25.0098 46.0521C24.9127 46.0531 25.5731 46.4948 25.5739 46.5821L25.5798 47.1712C25.5807 47.2584 25.6601 47.3284 25.7573 47.3274L27.0073 47.315C27.4075 47.311 27.7159 47.4391 27.9045 47.6649L25.7608 47.6862C25.6637 47.6872 25.5856 47.7587 25.5865 47.846L25.5917 48.3726C25.5926 48.4599 25.6721 48.5298 25.7692 48.5288L28.0962 48.5057C28.0098 48.9817 27.6207 49.2825 27.0081 49.2886L25.7769 49.3008C25.6797 49.3018 25.6017 49.3733 25.6025 49.4605L25.6095 50.1585C25.6099 50.2026 25.6309 50.2444 25.6672 50.274L28.1064 52.2559C28.1392 52.2825 28.1819 52.297 28.2261 52.2966L29.6332 52.4837C30.5827 52.8102 29.9742 52.0146 29.8556 51.9182L27.3231 50.1976C28.4441 50.1556 29.2383 49.4755 29.3337 48.4934L30.1078 48.4857C30.205 48.4848 30.283 48.4132 30.2821 48.326L30.2769 47.7994C30.276 47.7121 30.1966 47.6422 30.0995 47.6431L29.2392 47.6517C29.1866 47.5002 29.1149 47.36 29.0261 47.2324L30.0953 47.2218Z" fill="#DE8404"/>
<path d="M12.5442 49.5551C13.3833 55.2908 22.1733 59.8022 32.8927 59.8022C44.1672 59.8022 53.307 54.8112 53.307 48.6546C53.307 48.0341 53.2139 47.4257 53.0354 46.8325C53.0797 47.1314 53.1022 47.4335 53.1022 47.7385C53.1022 53.8951 43.9624 58.8856 32.6879 58.8856C22.5467 58.8856 14.1321 54.8477 12.5442 49.5551Z" fill="#EAC188"/>
<path d="M46.1747 56.5873C49.8521 56.5873 52.8331 55.0295 52.8331 53.1079C52.8331 51.1863 49.8521 49.6285 46.1747 49.6285C42.4974 49.6285 39.5164 51.1863 39.5164 53.1079C39.5164 55.0295 42.4974 56.5873 46.1747 56.5873Z" fill="#EAC188"/>
<path d="M48.0036 56.5873C51.6809 56.5873 54.662 55.0295 54.662 53.1079C54.662 51.1863 51.6809 49.6285 48.0036 49.6285C44.3263 49.6285 41.3452 51.1863 41.3452 53.1079C41.3452 55.0295 44.3263 56.5873 48.0036 56.5873Z" fill="#FAD29B"/>
<path d="M47.7002 52.983C47.7002 53.6347 47.3397 54.163 46.8947 54.163C46.4497 54.163 46.0891 53.6347 46.0891 52.983C46.0891 52.3314 46.4497 51.8031 46.8947 51.8031C47.3397 51.8031 47.7002 52.3314 47.7002 52.983ZM52.1188 52.983C52.1188 53.6347 51.7582 54.163 51.3132 54.163C50.8682 54.163 50.5076 53.6347 50.5076 52.983C50.5076 52.3314 50.8682 51.8031 51.3132 51.8031C51.7578 51.8031 52.1188 52.3314 52.1188 52.983Z" fill="#EAC188"/>
<path d="M48.0038 48.7488C48.6816 48.7488 49.2311 48.3934 49.2311 47.9551C49.2311 47.5167 48.6816 47.1614 48.0038 47.1614C47.3259 47.1614 46.7764 47.5167 46.7764 47.9551C46.7764 48.3934 47.3259 48.7488 48.0038 48.7488Z" fill="#EAC188"/>
<path d="M37.6932 48.7488C38.3711 48.7488 38.9206 48.3934 38.9206 47.9551C38.9206 47.5167 38.3711 47.1614 37.6932 47.1614C37.0153 47.1614 36.4658 47.5167 36.4658 47.9551C36.4658 48.3934 37.0153 48.7488 37.6932 48.7488Z" fill="#EAC188"/>
<path d="M34.2343 40.2794C34.2343 40.2794 32.2404 39.713 28.8752 43.4305C29.0756 44.0054 29.6023 44.3368 30.3123 44.5319L34.3201 42.0745L34.2343 40.2794Z" fill="#EAC188"/>
<path d="M30.3123 44.5319C31.168 42.3844 32.5431 41.1257 33.3037 40.5808C33.6823 40.3098 34.2761 40.2028 34.8072 40.3268C37.1783 40.8809 39.8095 43.834 39.8095 43.834C39.8095 43.834 34.0408 42.4085 30.3123 44.5319Z" fill="#FAD29B"/>
<path d="M44.8426 43.0933C44.8426 43.0933 43.871 42.584 44.3108 42.0017C44.3108 42.0017 49.7321 40.4877 51.6962 40.709L50.7142 41.6844L48.7501 42.1208L47.3386 42.4851L44.8426 43.0933Z" fill="#EAC188"/>
<path d="M44.8426 43.0933L50.9491 40.7989C51.7564 40.5118 52.8201 40.9515 52.7561 41.5459L52.4118 46.2683L44.8426 43.0933ZM8.37753 45.9289C8.55608 46.2455 8.91699 46.5199 9.42082 46.7242C9.42289 46.9405 9.48656 47.1504 9.60491 47.3344C10.2658 48.3149 12.1029 48.6027 13.5269 48.6723L13.668 48.6788L13.684 48.1778L13.5535 48.1735C12.3317 48.135 10.7579 47.9294 10.197 47.1683C10.1461 47.0934 10.1067 47.0126 10.08 46.9273C10.3468 46.9853 10.6562 47.0173 10.96 47.0173C11.7828 47.0173 12.4061 46.7922 12.6261 46.4149C12.7711 46.1484 12.7023 45.8579 12.4379 45.6165C12.1649 45.3668 11.732 45.218 11.2818 45.218C11.2451 45.218 11.2074 45.2189 11.1707 45.2206C10.1489 45.3028 9.58345 45.8897 9.45162 46.4487C9.38691 46.4196 9.32462 46.3885 9.26372 46.3565C8.35088 45.8866 8.46092 45.0468 8.58515 44.6321C8.59899 44.5865 8.55366 44.5422 8.48341 44.5319L8.48134 44.5317C8.40901 44.5209 8.33669 44.5502 8.32112 44.597C8.14326 45.1311 8.16195 45.5561 8.37753 45.9289ZM10.0388 46.6476C10.0433 46.1911 10.3856 45.7922 10.9254 45.6216C11.0437 45.5836 11.169 45.5641 11.2974 45.5641C11.579 45.5641 11.8649 45.661 12.042 45.8177C12.2133 45.9683 12.2614 46.1453 12.1777 46.3171C12.0237 46.6382 11.3686 46.7199 11.0935 46.7398C11.0198 46.7454 10.9437 46.7481 10.8672 46.7481C10.5921 46.7481 10.3132 46.7143 10.0388 46.6476Z" fill="#FAD29B"/>
<path d="M45.3353 34.4906V39.8141C43.4965 40.6503 41.658 41.289 39.8192 41.7291C33.8903 43.1494 27.9617 42.5108 22.0327 39.8141V34.4906H45.3353Z" fill="#413729"/>
<path d="M45.3355 34.4906V39.8141C43.4966 40.6503 41.6582 41.289 39.8193 41.7291V34.4908H45.3355V34.4906Z" fill="#2B2419"/>
<path d="M51.6602 32.9943L33.6844 38.0495L15.7083 32.9943L33.6844 27.9391L51.6602 32.9943Z" fill="#332B1F"/>
<path d="M15.7083 32.9943V32.1916L19.4233 32.1079L18.6606 33.2975L15.7083 32.9943Z" fill="#332B1F"/>
<path d="M51.6601 32.9943V32.1916H49.3022V33.3362L51.6601 32.9943Z" fill="#332B1F"/>
<path d="M51.6602 32.1916L33.6844 37.2468L15.7083 32.1916L33.6844 27.1364L51.6602 32.1916Z" fill="#413729"/>
<path d="M33.6851 32.2057C33.6851 32.2867 33.5892 32.3557 33.4619 32.3633L18.9966 33.1926V36.1949H18.5073V32.9028L33.4186 32.0482C33.5532 32.0404 33.6716 32.1046 33.6837 32.1914V32.1916C33.6847 32.1966 33.6851 32.2013 33.6851 32.2057Z" fill="#FF9E02"/>
<path d="M33.6851 32.2057C33.6851 32.2867 33.5893 32.3557 33.4619 32.3633L18.9967 33.1926V36.1949H18.7576V33.0735L33.6841 32.1914V32.1916C33.6848 32.1966 33.6851 32.2013 33.6851 32.2057Z" fill="#FFA30F"/>
<path d="M20.1354 42.0796H17.354L18.1616 36.5963H19.3281L20.1354 42.0796Z" fill="#FBAB3B"/>
<path d="M20.1358 42.0796H17.354L18.1616 36.5963H19.3281L20.1358 42.0796Z" fill="#FF9E02"/>
<path d="M20.1357 42.0796H18.7446V36.5963H19.328L20.1357 42.0796Z" fill="#FFA30F"/>
<path d="M19.1137 36.7576C19.5944 36.6289 19.8228 36.2724 19.6236 35.9615C19.4245 35.6506 18.8733 35.503 18.3925 35.6318C17.9117 35.7605 17.6834 36.117 17.8826 36.4279C18.0817 36.7388 18.6329 36.8864 19.1137 36.7576Z" fill="#FF9E02"/>
<path d="M19.6946 36.1948C19.6946 36.5314 19.2725 36.8042 18.7527 36.8042C18.2807 36.8042 17.89 36.5799 17.8215 36.2866C17.9693 36.4978 18.298 36.6446 18.68 36.6446C19.2001 36.6446 19.6219 36.3721 19.6219 36.0353C19.6219 36.0046 19.6185 35.9742 19.6116 35.9449C19.6645 36.0212 19.6946 36.106 19.6946 36.1948Z" fill="#FFA30F"/>
<path d="M33.4746 32.6891C34.0135 32.6891 34.4504 32.4662 34.4504 32.1912C34.4504 31.9162 34.0135 31.6933 33.4746 31.6933C32.9357 31.6933 32.4988 31.9162 32.4988 32.1912C32.4988 32.4662 32.9357 32.6891 33.4746 32.6891Z" fill="#2B2419"/>
<path d="M42.1608 30.7518C42.1608 30.9635 42.0428 31.1537 41.8535 31.292C41.6625 31.4292 41.4002 31.5147 41.1082 31.5147H24.8954C24.3148 31.5147 23.8428 31.1739 23.8428 30.7518C23.8428 30.5415 23.9608 30.3513 24.1518 30.213C24.2622 30.1329 24.3988 30.0705 24.5525 30.0324C24.6594 30.0053 24.7753 29.9904 24.8954 29.9904H41.1082C41.1774 29.9904 41.2431 29.9957 41.3085 30.0054C41.3815 30.0147 41.4528 30.0297 41.5182 30.0514H41.5199C41.8968 30.1669 42.1608 30.437 42.1608 30.7518Z" fill="#332B1F"/>
<path d="M42.3149 27.4633C42.3149 28.4676 41.9357 29.413 41.265 30.2439C40.8913 30.706 40.4283 31.1327 39.8889 31.5147H26.1392C25.6053 31.1363 25.144 30.7143 24.7741 30.2558C24.7668 30.2464 24.7596 30.237 24.7523 30.2273C24.0869 29.401 23.7114 28.4591 23.7114 27.4631C23.7114 24.1401 27.8766 21.4479 33.0132 21.4479C38.1514 21.4482 42.3149 24.1406 42.3149 27.4633Z" fill="#FF9E02"/>
<path d="M42.315 27.4633C42.315 28.4665 41.9357 29.413 41.2634 30.2439C40.8896 30.706 40.4266 31.1327 39.8872 31.5147H39.7086C40.2426 31.1197 40.6983 30.68 41.0592 30.2039C41.6679 29.4048 42.0087 28.5052 42.0087 27.5551C42.0087 24.2321 37.8456 21.5399 32.707 21.5399C31.3709 21.5399 30.1003 21.7225 28.9521 22.0503C30.1788 21.6648 31.5571 21.4479 33.0132 21.4479C38.1515 21.4482 42.315 24.1406 42.315 27.4633Z" fill="#FFA30F"/>
<path d="M40.8603 27.4633C40.8603 28.4676 40.4084 29.4036 39.6298 30.1911C39.1758 30.6507 38.609 31.0609 37.9564 31.4039C37.8833 31.4415 37.8107 31.4793 37.7359 31.5147H28.2923C27.6252 31.1904 27.0417 30.7979 26.5642 30.3535C26.5057 30.3005 26.4511 30.2464 26.3964 30.1909C25.6161 29.4023 25.168 28.4676 25.168 27.4631C25.168 24.6613 28.6806 22.3884 33.0133 22.3884C37.3459 22.3884 40.8603 24.6615 40.8603 27.4633Z" fill="#FFA30F"/>
<path d="M28.5657 31.5147H28.2923C27.6252 31.1904 27.0417 30.798 26.5642 30.3535C26.5057 30.3005 26.4511 30.2464 26.3964 30.1909C25.6161 29.4023 25.168 28.4676 25.168 27.4631C25.168 25.7692 26.4511 24.2688 28.4235 23.348C26.5296 24.2733 25.3047 25.7421 25.3047 27.3971C25.3047 28.4296 25.7822 29.3904 26.6026 30.1909C26.6646 30.2533 26.7303 30.3146 26.7978 30.3748C27.2895 30.8134 27.8875 31.1976 28.5657 31.5147Z" fill="#F7960D"/>
<path d="M40.8598 27.4631C40.8598 28.9393 39.8853 30.2683 38.3289 31.1956C39.6147 30.2916 40.4002 29.0852 40.4002 27.7603C40.4002 24.958 36.8876 22.6865 32.5543 22.6865C30.5054 22.6865 28.6399 23.1945 27.2419 24.026C28.6763 23.0195 30.731 22.3893 33.0138 22.3893C37.3472 22.3893 40.8598 24.6608 40.8598 27.4631Z" fill="#DB8307"/>
<path d="M27.4658 24.5397L27.0855 24.109L26.4062 23.879L27.0724 23.633L27.4281 23.1935L27.8084 23.6243L28.4876 23.8543L27.8215 24.1003L27.4658 24.5397Z" fill="white"/>
<path d="M26.593 24.8473L26.4573 24.6938L26.2151 24.6116L26.4528 24.5241L26.5795 24.3675L26.7151 24.521L26.9573 24.6031L26.7196 24.6906L26.593 24.8473Z" fill="white"/>
<path d="M35.1016 25.125C35.2181 25.125 35.3125 25.062 35.3125 24.9844V24.5156C35.3125 24.438 35.2181 24.375 35.1016 24.375H29.8984C29.7819 24.375 29.6875 24.438 29.6875 24.5156V25.04C29.6875 25.1177 29.7819 25.1806 29.8984 25.1806H31.3975C31.8775 25.1806 32.2458 25.2973 32.4692 25.5H29.8984C29.7819 25.5 29.6875 25.563 29.6875 25.6406V26.1094C29.6875 26.187 29.7819 26.25 29.8984 26.25H32.6891C32.5798 26.6729 32.1097 26.9371 31.375 26.9371H29.8984C29.7819 26.9371 29.6875 27.0001 29.6875 27.0777V27.699C29.6875 27.7382 29.7121 27.7757 29.7554 27.8023L32.6567 29.5877C32.6956 29.6117 32.7467 29.625 32.7997 29.625H34.251C34.4431 29.625 34.5352 29.4679 34.3941 29.381L31.7419 27.7489C33.0866 27.7215 34.0471 27.1232 34.1732 26.25H35.1016C35.2181 26.25 35.3125 26.187 35.3125 26.1094V25.6406C35.3125 25.563 35.2181 25.5 35.1016 25.5H34.0699C34.0086 25.3648 33.9244 25.2393 33.8194 25.125H35.1016Z" fill="#E6E6E6"/>
</svg>
