<svg width="111" height="99" viewBox="0 0 111 99" fill="none" xmlns="http://www.w3.org/2000/svg">
<g clip-path="url(#clip0_164_2189)">
<path d="M78.0455 22.1635C79.6935 24.0722 84.5309 23.7428 86.5168 22.8824C86.7144 22.2877 86.9307 21.7936 87.1245 21.686C87.6788 21.3737 88.6435 19.9825 88.7421 18.9542C88.8445 17.9227 87.9828 16.8475 86.2132 15.5941C85.2108 14.8852 83.1451 14.8749 81.535 14.9994H81.5312C78.8958 15.8665 78.7709 17.9227 78.7709 17.9227C78.7709 17.9227 76.1698 19.9995 78.0455 22.1635Z" fill="#353534"/>
<path d="M81.5349 14.9994C83.145 14.8752 85.2107 14.8852 86.2131 15.5941C87.9823 16.8475 88.8444 17.9227 88.742 18.9542C88.6434 19.9825 87.679 21.3737 87.1244 21.686C86.9306 21.7936 86.7143 22.2874 86.5167 22.8824C86.7903 22.7649 87.0067 22.6403 87.1583 22.5061C87.2874 22.3919 87.4318 22.291 87.5948 22.1971C88.7567 20.5169 93.2068 20.2885 93.6663 19.6132C94.1863 18.8537 93.2486 18.3935 93.0703 17.7215C92.8957 17.0496 95.4509 17.2274 96.6659 15.6381C97.8809 14.0488 98.4886 14.2269 99.7035 13.4877C100.919 12.7485 106.109 11.4279 106.109 11.4279C106.109 11.4279 106.109 11.4279 100.968 11.8511C95.8302 12.278 94.3266 13.4877 93.2332 13.3532C92.136 13.2186 90.4119 13.5616 89.554 13.7564C88.692 13.9512 88.2705 12.3382 87.0898 13.2626C85.9471 14.1596 81.9981 14.8889 81.7513 14.9325C81.7437 14.9358 81.74 14.9358 81.74 14.9358C81.6677 14.9558 81.5996 14.9758 81.5349 14.9994Z" fill="#FFA30F"/>
<path d="M93.2336 13.3528C92.1364 13.2183 90.4123 13.5613 89.5544 13.7561C88.6924 13.9509 88.271 12.3379 87.0902 13.2623C85.9475 14.1593 81.9985 14.8885 81.7517 14.9322C84.5805 14.1157 85.283 13.5173 86.1943 12.59C87.1019 11.6693 90.3901 12.1261 91.4535 12.2773C92.5168 12.4285 98.045 11.1415 98.5349 11.0273C98.5579 11.024 98.5691 11.0206 98.5691 11.0206C100.19 10.8358 101.645 10.4662 104.557 10.4089C106.744 10.3653 109.254 9.71335 110.458 9.36072C110.86 9.24318 111.183 9.68671 110.883 9.95543C110.051 10.708 107.868 11.6893 105.449 13.4434C102.085 15.8828 102.032 16.938 98.9451 17.7645C95.8581 18.5946 94.6849 20.177 92.9951 20.7587C91.484 21.2828 88.993 21.387 87.5956 22.1968C88.7575 20.5166 93.2077 20.2882 93.6671 19.6129C94.1871 18.8534 93.2494 18.3932 93.0711 17.7212C92.8965 17.0493 95.4517 17.2271 96.6667 15.6378C97.8817 14.0484 98.4894 14.2266 99.7044 13.4874C100.919 12.7481 106.11 11.4275 106.11 11.4275C106.11 11.4275 106.11 11.4275 100.969 11.8508C95.831 12.2776 94.3274 13.4874 93.2336 13.3528ZM96.7424 16.6224C95.7817 17.58 94.2402 16.9384 94.183 17.6103C94.1261 18.2823 94.2097 19.0721 95.8156 18.3865C97.4181 17.6976 97.756 16.6091 98.6331 16.2797C99.4835 15.9604 100.904 14.8013 100.991 14.7307C100.892 14.7574 97.6876 15.6817 96.7424 16.6224Z" fill="#FFBF66"/>
<path d="M95.8159 18.3865C97.4185 17.6976 97.7564 16.6091 98.6335 16.2797C99.4838 15.9604 100.904 14.8013 100.992 14.7307C100.893 14.7577 97.6879 15.6817 96.7427 16.6227C95.7821 17.5804 94.2405 16.9387 94.1833 17.6107C94.1261 18.2823 94.2096 19.0721 95.8159 18.3865Z" fill="#FFA30F"/>
<path d="M55.5173 13.5173C56.6612 14.0055 58.6013 12.9626 59.2244 12.2317C59.1645 11.9466 59.1367 11.6999 59.192 11.6187C59.3485 11.3846 59.4185 10.6234 59.2142 10.1758C59.0103 9.72598 58.3936 9.43862 57.3558 9.24682C56.7681 9.13861 55.9034 9.52087 55.2615 9.87416L55.26 9.87483C54.3675 10.7299 54.8066 11.6117 54.8066 11.6117C54.8066 11.6117 54.2173 12.9652 55.5173 13.5173Z" fill="#353534"/>
<path d="M55.2615 9.87417C55.9038 9.52087 56.7681 9.13861 57.3558 9.24683C58.3939 9.43863 59.0106 9.72599 59.2142 10.1758C59.4189 10.6234 59.3489 11.3846 59.192 11.6187C59.1367 11.6999 59.1645 11.9463 59.2244 12.2317C59.3102 12.1314 59.3711 12.0389 59.4023 11.9546C59.4291 11.8827 59.4652 11.8138 59.5107 11.7439C59.5939 10.8252 61.3966 9.89681 61.4271 9.52886C61.4628 9.11464 60.9612 9.09799 60.7261 8.85091C60.4924 8.60318 61.6016 8.19927 61.7288 7.30854C61.856 6.41782 62.1521 6.37853 62.4825 5.84243C62.8129 5.30633 64.6634 3.78394 64.6634 3.78394C64.6634 3.78394 64.6634 3.78394 62.6191 4.92307C60.5771 6.06286 60.2388 6.84903 59.7504 6.99787C59.2605 7.14705 58.6227 7.61289 58.3111 7.85497C57.9981 8.09771 57.4367 7.50334 57.1647 8.11003C56.902 8.69841 55.4285 9.74197 55.336 9.80624C55.3337 9.8089 55.3318 9.8099 55.3318 9.8099C55.3063 9.83121 55.2825 9.85219 55.2615 9.87417Z" fill="#FFA30F"/>
<path d="M59.7499 6.99728C59.26 7.14646 58.6222 7.6123 58.3106 7.85438C57.9976 8.09712 57.4362 7.50275 57.1641 8.10944C56.9015 8.69782 55.428 9.74138 55.3354 9.80565C56.3209 8.93523 56.471 8.5543 56.6298 7.99656C56.7886 7.44248 58.27 7.0176 58.7497 6.88174C59.2295 6.74588 61.229 5.17388 61.4062 5.03469C61.4149 5.02903 61.419 5.02537 61.419 5.02537C62.0515 4.64477 62.57 4.21822 63.7718 3.64916C64.6741 3.22161 65.5659 2.47973 65.9839 2.10712C66.1239 1.98258 66.3643 2.10745 66.3034 2.27561C66.1363 2.74544 65.4598 3.56358 64.8694 4.74833C64.0484 6.39592 64.2787 6.84644 63.1879 7.76913C62.0978 8.69349 61.9864 9.57356 61.4205 10.1323C60.9152 10.6338 59.9004 11.1436 59.5109 11.7433C59.5941 10.8246 61.3968 9.89622 61.4273 9.52828C61.463 9.11405 60.9615 9.0974 60.7263 8.85032C60.4926 8.60259 61.6019 8.19868 61.7291 7.30796C61.8562 6.41723 62.1524 6.37794 62.4827 5.84184C62.8131 5.30574 64.6636 3.78335 64.6636 3.78335C64.6636 3.78335 64.6636 3.78335 62.6193 4.92248C60.5769 6.0626 60.2383 6.84877 59.7499 6.99728ZM61.9954 7.7052C61.8235 8.28459 61.0266 8.30523 61.1635 8.59659C61.3005 8.88762 61.524 9.20162 62.0304 8.61491C62.5346 8.02753 62.4154 7.50974 62.7025 7.20839C62.9813 6.91604 63.2966 6.16649 63.3162 6.12054C63.2819 6.15018 62.1651 7.13547 61.9954 7.7052Z" fill="#FFBF66"/>
<path d="M62.0305 8.61485C62.5347 8.02747 62.4154 7.50968 62.7025 7.20833C62.9813 6.91598 63.2967 6.16643 63.3162 6.12048C63.2812 6.15012 62.1648 7.13574 61.9951 7.70547C61.8232 8.28486 61.0262 8.30551 61.1632 8.59687C61.3005 8.88756 61.5241 9.20156 62.0305 8.61485Z" fill="#FFA30F"/>
<path d="M43.9447 56.8674L43.6938 58.7977L44.7357 59.0185C44.7357 59.0185 47.9422 60.6293 48.7983 58.2151C49.132 57.275 47.758 56.5147 46.7204 57.0709C46.7058 57.0788 46.6915 57.0865 46.6768 57.0948C46.6412 57.1143 46.5972 57.081 46.6226 57.0535L47.2309 56.3941C47.3343 56.2819 47.3038 56.1264 47.1619 56.0429C47.0315 55.9664 46.8484 55.975 46.7307 56.0634L45.9393 56.6597C45.7622 56.7928 45.5248 56.8674 45.2775 56.8674H43.9447Z" fill="#FFBF66"/>
<path d="M44.8889 56.8671L44.3281 59.2235L33.1217 57.173C29.9675 55.6485 25.9343 53.0495 25.9343 53.0495L28.3244 49.3867L34.4589 54.2191L44.8889 56.8671Z" fill="#F2B45F"/>
<path d="M27.9131 91.3418L27.3455 94.9706L31.4586 95.354L32.0262 91.7253L27.9131 91.3418Z" fill="#FFBF66"/>
<path d="M27.2189 97.1397H38.1962C38.361 97.1397 38.4573 97.04 38.5104 96.8956C38.711 96.3495 38.1882 95.8003 37.4598 95.7214C36.1179 95.5757 34.1011 94.8779 32.1767 93.8214C32.1311 93.7964 32.076 93.7826 32.0201 93.7826H27.5109C27.3695 93.7826 27.2514 93.8652 27.2375 93.9738L26.8701 96.8445C26.8515 97.003 27.0128 97.1397 27.2189 97.1397Z" fill="#353534"/>
<path d="M4.3675 88.5783L1.84912 91.6735L5.35743 93.3747L7.87581 90.2795L4.3675 88.5783Z" fill="#FFBF66"/>
<path d="M0.164219 93.1735L9.45998 97.681C9.59987 97.7486 9.75007 97.7036 9.89433 97.6033C10.4404 97.223 10.3758 96.5435 9.81388 96.1776C8.77794 95.5033 7.55097 94.084 6.64937 92.3995C6.62797 92.3594 6.59112 92.3251 6.54356 92.3022L2.72515 90.4506C2.60547 90.3925 2.44813 90.4142 2.36174 90.5002L0.0726721 92.7804C-0.052957 92.9067 -0.0105522 93.0891 0.164219 93.1735ZM23.8372 66.8132C24.8715 67.7632 24.9096 68.0835 25.9439 69.0335C27.5585 70.5164 32.7228 75.2182 33.4979 76.1941C34.0076 76.8363 34.4812 77.544 34.6639 78.2905C34.8771 79.1612 32.6039 90.5411 32.2115 92.3936C32.2072 92.4135 32.1398 92.7785 32.1303 92.7782L27.4408 92.6341C27.551 91.6924 28.9697 79.6819 28.5841 79.1428C28.2275 78.6441 19.3668 72.7874 19.3855 72.7391L16.5471 80.0809C16.4409 80.3553 16.286 80.6172 16.0858 80.8583L7.08056 91.7368L3.13929 89.589L10.2359 78.9296C10.511 78.5166 10.6612 78.0616 10.6758 77.5972C10.7476 75.3142 10.5815 67.9152 11.3567 65.9009L23.8372 66.8132Z" fill="#353534"/>
<path d="M24.3654 67.2709C24.3654 67.2709 26.8078 59.6635 28.5642 54.5508L29.4496 51.9736C29.9038 50.6513 28.8876 49.2956 27.1752 48.9438C26.3041 48.7648 24.0539 48.305 21.879 47.8607C19.1262 47.2984 16.3073 48.5702 15.5908 50.6975C13.8478 55.8725 11.0931 64.7171 10.6326 65.7586C9.7076 67.8522 24.3654 67.2709 24.3654 67.2709Z" fill="#F2B45F"/>
<path d="M25.2472 48.5678C25.3367 48.3582 25.4005 48.208 25.4005 48.208C25.4005 48.208 26.8074 48.3031 26.954 48.2805C27.2461 48.2355 27.86 47.6377 28.1382 46.841C28.4164 46.0443 28.5833 45.2155 28.6487 44.8726C28.714 44.5296 28.9772 43.147 27.4906 42.3632C26.0041 41.5794 23.677 41.8464 22.7481 43.0017C21.8191 44.157 21.7862 45.1663 21.984 45.6001C22.1821 46.0336 22.2364 46.7471 22.1972 47.0136C22.1817 47.1182 22.0735 47.4443 21.9479 47.8026C21.7121 48.4742 22.1869 49.1723 23.0362 49.4042C23.9465 49.6536 24.944 49.2757 25.2472 48.5678Z" fill="#FFBF66"/>
<path d="M23.1897 44.6421C23.2761 44.8067 23.3458 45.1644 23.3458 45.1644C23.6712 44.9766 24.4539 43.501 24.3247 43.0534C24.3568 43.3477 27.3517 43.4116 28.1415 43.3804C28.3056 43.374 28.4978 43.4566 28.5557 43.5983C28.6183 43.7512 28.6817 44.4525 28.6884 44.6324C28.7907 44.3904 28.847 44.148 28.9219 43.9011C28.9932 43.6674 30.2047 42.9356 29.913 42.4179C29.4894 41.6653 25.8279 41.4101 25.3785 41.4074C24.8843 41.4043 23.282 41.6004 23.0268 42.1025C22.4312 42.2292 21.9873 42.4225 21.832 43.2241C21.7571 43.6102 21.7028 44.0024 21.6449 44.3916C21.5874 44.778 21.6679 45.1255 21.7337 45.5089C21.7899 45.8366 21.8827 46.1587 21.9524 46.4839C21.9647 46.5415 22.0578 47.0154 22.1985 47.0022C22.2223 47.0001 22.4799 46.6381 22.5437 46.5451C22.6448 46.3974 22.68 46.237 22.7252 46.077C22.7419 46.0174 22.7787 45.9504 22.7573 45.8886C22.7244 45.7922 22.5841 45.783 22.4855 45.7448C22.1728 45.6239 22.0729 45.3428 22.0888 45.0913C22.1058 44.8199 22.2184 44.4754 22.6242 44.4197C22.835 44.391 23.0736 44.4678 23.1746 44.6174C23.1806 44.6256 23.1853 44.6339 23.1897 44.6421Z" fill="#353534"/>
<path d="M66.7047 25.8552L67.3826 26.1199L68.6909 24.1225L68.013 23.8578L66.7047 25.8552Z" fill="#353534"/>
<path d="M68.0107 23.8577L68.6883 24.1224L69.2034 23.0372L68.8364 22.8937L68.0107 23.8577Z" fill="#353534"/>
<path d="M44.5992 65.012C46.1155 65.5082 47.8719 64.9477 48.615 63.813L49.1469 63.001C49.2757 62.8043 49.1734 62.5638 48.9186 62.4644C48.6638 62.3649 48.3523 62.4439 48.2235 62.6406L47.6746 63.4783C47.2022 64.1997 46.1108 64.5821 45.1236 64.3126C43.9291 63.9865 43.4111 62.9371 43.964 62.0927L58.8611 39.3453L57.9377 38.9849L43.0406 61.7323C42.2388 62.9563 42.9363 64.4674 44.5992 65.012Z" fill="#6D6C6A"/>
<path d="M43.8102 60.3822L42.9498 61.6962C42.1199 62.9635 42.8416 64.5256 44.5608 65.087C46.1282 65.5989 47.9429 65.0185 48.7109 63.8461L49.24 63.0384C49.3945 62.8022 49.2721 62.514 48.9661 62.3944C48.6602 62.2751 48.2869 62.3696 48.1319 62.6058L47.5826 63.4444C47.1332 64.1307 46.0945 64.4944 45.1556 64.2371C44.0214 63.9266 43.5332 62.9301 44.0583 62.1285L44.9187 60.8145L43.8102 60.3822Z" fill="#353534"/>
<path d="M66.9031 48.6629C66.9031 48.6629 78.1181 48.185 81.1182 53.4684C81.1182 53.4684 90.0525 34.8705 68.9876 26.1682C68.5525 25.988 68.1201 25.8179 67.6889 25.66C67.9125 25.9079 75.3083 34.2706 66.9031 48.6629Z" fill="#F4B864"/>
<path d="M45.135 40.7105C45.135 40.7105 60.0223 40.4024 66.9029 48.6629C75.3082 34.2703 67.9123 25.9079 67.6884 25.6601C67.6864 25.6564 67.6828 25.6555 67.6828 25.6555C67.6793 25.6546 67.6781 25.657 67.6749 25.6561C53.3013 26.6642 45.135 40.7105 45.135 40.7105Z" fill="#E69F3A"/>
<path d="M31.2812 35.2095C31.2812 35.2095 41.4374 34.1617 45.1349 40.7105C45.1349 40.7105 53.3012 26.6642 67.6748 25.6561C47.9967 18.3476 34.8876 30.5732 31.2812 35.2095Z" fill="#F4B864"/>
<path d="M42.2861 59.1687L42.4593 61.1038L43.5345 61.1861C43.5345 61.1861 47.0462 62.3579 47.364 59.8665C47.488 58.8964 45.9678 58.3252 45.0666 59.0084C45.0539 59.0179 45.0413 59.0276 45.0286 59.0377C44.9977 59.0616 44.9469 59.0347 44.966 59.0041L45.4217 58.275C45.4994 58.1508 45.4352 58.0018 45.2771 57.9379C45.132 57.8794 44.9533 57.9119 44.8566 58.014L44.2062 58.7046C44.0608 58.8588 43.8428 58.9631 43.5991 58.9955L42.2861 59.1687Z" fill="#FFBF66"/>
<path d="M43.2173 59.0461L43.1777 61.4416L31.684 60.8753C28.2429 59.7819 23.9758 56.861 23.9758 56.861L25.5341 52.9403L32.3585 57.7899L43.2173 59.0461Z" fill="#F2B45F"/>
<path d="M47.9458 77.1716L45.971 79.3044C45.971 79.3044 49.8936 80.5676 52.0424 84.0783C54.1912 87.5891 54.1912 90.405 53.6415 91.9096C53.1148 93.3519 50.1984 95.4394 44.3132 95.1511C38.4281 95.439 35.5117 93.3519 34.985 91.9096C34.4353 90.405 34.4353 87.5891 36.5841 84.0783C38.7328 80.5679 42.6555 79.3044 42.6555 79.3044L40.8206 77.3711C40.4346 76.9645 40.5832 76.3768 41.1582 76.1378C41.4079 76.0341 41.6806 76.0207 41.9291 76.225C42.6392 76.8091 42.7165 77.1071 43.7045 76.5946C44.6925 76.0821 44.9549 76.1657 45.5723 76.6185C46.1897 77.0713 46.5294 76.5827 46.9618 76.2728C47.0699 76.1953 47.2086 76.1675 47.3565 76.1736C47.9874 76.1999 48.3132 76.7748 47.9458 77.1716Z" fill="#B5761C"/>
<path d="M44.3314 76.6525C44.3257 76.653 44.3194 76.654 44.3132 76.6545L44.3314 76.6525Z" fill="#BF8431"/>
<path d="M44.612 79.5298C43.6462 79.5298 42.6939 79.4224 42.6341 79.4154C42.5548 79.4062 42.4997 79.3493 42.5116 79.2878C42.5235 79.2266 42.598 79.1841 42.6769 79.1933C42.6987 79.1957 44.8645 79.4402 45.9302 79.1966C46.007 79.1792 46.0879 79.2128 46.1109 79.2725C46.1339 79.3319 46.0899 79.3943 46.0126 79.412C45.6254 79.5004 45.1169 79.5298 44.612 79.5298Z" fill="#8A6024"/>
<path d="M38.9334 81.5372C38.8807 81.5372 38.8296 81.5149 38.8038 81.476C38.7673 81.4209 38.7955 81.3533 38.8668 81.3249C38.8799 81.3197 40.2075 80.7901 41.3306 80.0023C42.325 79.3044 42.5584 79.1912 42.6602 79.1909C42.9527 79.1609 45.8204 78.8678 46.2979 78.8207C46.3776 78.8131 46.4505 78.8562 46.4604 78.9177C46.4703 78.9792 46.4145 79.0355 46.3348 79.0431C45.8513 79.0909 42.9103 79.3916 42.6876 79.4145C42.6408 79.4341 42.4098 79.5482 41.526 80.1684C40.3736 80.9773 39.0551 81.5029 38.9992 81.5246C38.9782 81.5332 38.9556 81.5372 38.9334 81.5372ZM42.5941 79.4063C42.6119 79.4127 42.6285 79.4155 42.6432 79.4164C42.6262 79.4152 42.6095 79.4118 42.5941 79.4063Z" fill="#8A6024"/>
<path d="M40.3038 82.0884C40.2662 82.0884 40.2285 82.0771 40.2004 82.0548C40.1441 82.0107 40.1449 81.9394 40.202 81.896C40.3645 81.7724 40.3645 81.7724 40.3978 81.6292C40.4326 81.4784 40.498 81.1981 40.7889 80.5645C41.4016 79.2303 42.6012 79.193 42.652 79.1921C42.7324 79.1905 42.799 79.2395 42.801 79.3016C42.803 79.3634 42.7399 79.4148 42.6599 79.4163C42.6151 79.4175 41.6049 79.4598 41.0632 80.6395C40.7802 81.2557 40.7176 81.5243 40.6843 81.6687C40.6415 81.8526 40.6193 81.8939 40.4061 82.0557C40.3776 82.0777 40.3407 82.0884 40.3038 82.0884Z" fill="#8A6024"/>
<path d="M78.9189 93.8904V94.6436L65.9299 94.6256V93.9393" fill="#FF9D00"/>
<path d="M72.2984 92.438C68.7123 92.461 65.8608 93.4403 65.9302 94.6255C65.9995 95.8108 68.9635 96.7534 72.5497 96.7305C76.1363 96.7075 78.9873 95.7282 78.9179 94.5426C78.8486 93.3574 75.885 92.4151 72.2984 92.438Z" fill="#FF9D00"/>
<path d="M72.2983 91.7518C68.7118 91.7747 65.8607 92.754 65.9297 93.9393C65.999 95.1245 68.963 96.0671 72.5492 96.0442C76.1358 96.0212 78.9868 95.0419 78.9178 93.8564C78.8485 92.6711 75.8849 91.7288 72.2983 91.7518Z" fill="#FF9D00"/>
<path d="M78.9189 92.8884V93.6417L65.9299 93.6236V92.9374" fill="#FF9D00"/>
<path d="M72.2984 91.4361C68.7123 91.459 65.8608 92.4384 65.9302 93.6236C65.9995 94.8088 68.9635 95.7514 72.5497 95.7285C76.1363 95.7056 78.9873 94.7262 78.9179 93.5407C78.8486 92.3551 75.885 91.4131 72.2984 91.4361Z" fill="#FF9D00"/>
<path d="M72.2983 90.7496C68.7118 90.7725 65.8607 91.7518 65.9297 92.9371C65.999 94.1223 68.963 95.0649 72.5492 95.042C76.1358 95.019 78.9868 94.0397 78.9178 92.8542C78.8485 91.6692 75.8849 90.7266 72.2983 90.7496Z" fill="#FF9D00"/>
<path d="M78.9189 91.8864V92.6396L65.9299 92.6212V91.9353" fill="#FF9D00"/>
<path d="M72.2984 90.4337C68.7123 90.4567 65.8608 91.436 65.9302 92.6213C65.9995 93.8065 68.9635 94.7491 72.5497 94.7262C76.1363 94.7032 78.9873 93.7239 78.9179 92.5384C78.8486 91.3531 75.885 90.4111 72.2984 90.4337Z" fill="#FF9D00"/>
<path d="M72.2983 89.7476C68.7118 89.7705 65.8607 90.7499 65.9297 91.9351C65.999 93.1204 68.963 94.063 72.5492 94.04C76.1358 94.0171 78.9868 93.0377 78.9178 91.8522C78.8485 90.667 75.8849 89.7247 72.2983 89.7476Z" fill="#FF9D00"/>
<path d="M78.9189 90.8844V91.6376L65.9299 91.6193V90.933" fill="#FF9D00"/>
<path d="M72.2984 89.4318C68.7123 89.4548 65.8608 90.4341 65.9302 91.6193C65.9995 92.8046 68.9635 93.7472 72.5497 93.7242C76.1363 93.7013 78.9873 92.722 78.9179 91.5364C78.8486 90.3512 75.885 89.4089 72.2984 89.4318Z" fill="#FF9D00"/>
<path d="M72.2983 88.7456C68.7118 88.7686 65.8607 89.7479 65.9297 90.9332C65.999 92.1184 68.963 93.061 72.5492 93.0381C76.1358 93.0151 78.9868 92.0358 78.9178 90.8503C78.8485 89.665 75.8849 88.7227 72.2983 88.7456Z" fill="#FF9D00"/>
<path d="M78.9191 89.8821V90.6353L65.9302 90.6173V89.931" fill="#FF9D00"/>
<path d="M72.2984 88.4299C68.7123 88.4528 65.8608 89.4321 65.9302 90.6174C65.9995 91.8026 68.9635 92.7452 72.5497 92.7223C76.1363 92.6993 78.9873 91.72 78.9179 90.5345C78.8486 89.3492 75.885 88.4069 72.2984 88.4299Z" fill="#FF9D00"/>
<path d="M72.2983 87.7436C68.7118 87.7665 65.8607 88.7459 65.9297 89.9311C65.999 91.1163 68.963 92.0589 72.5492 92.036C76.1358 92.0131 78.9868 91.0337 78.9178 89.8482C78.8485 88.6629 75.8849 87.7206 72.2983 87.7436Z" fill="#FF9D00"/>
<path d="M65.9302 89.6149V88.929L78.9191 88.88V89.6332L65.9302 89.6149Z" fill="#FF9D00"/>
<path d="M72.2984 87.4275C68.7123 87.4505 65.8608 88.4298 65.9302 89.615C65.9995 90.8003 68.9635 91.7429 72.5497 91.7199C76.1363 91.697 78.9873 90.7177 78.9179 89.5321C78.8486 88.3469 75.885 87.4049 72.2984 87.4275Z" fill="#FF9D00"/>
<path d="M72.2983 86.7413C68.7118 86.7642 65.8607 87.7435 65.9297 88.9288C65.999 90.114 68.963 91.0566 72.5492 91.0337C76.1358 91.0107 78.9868 90.0314 78.9178 88.8459C78.8485 87.6606 75.8849 86.7183 72.2983 86.7413ZM72.5254 90.6252C69.6217 90.6436 67.2224 89.8809 67.1662 88.9211C67.1099 87.9614 69.4184 87.1684 72.3221 87.15C75.2258 87.1313 77.6255 87.8944 77.6818 88.8541C77.7376 89.8136 75.4292 90.6066 72.5254 90.6252Z" fill="#FF9D00"/>
<path d="M76.3097 87.7166C75.3645 87.4489 74.1296 87.2901 72.7866 87.2987C69.8828 87.317 67.5743 88.1104 67.6306 89.0698C67.6564 89.5088 68.1724 89.9066 69.0026 90.2073C67.9037 89.8959 67.1967 89.4369 67.1665 88.9211C67.1103 87.9614 69.4187 87.1683 72.3225 87.15C73.8978 87.1399 75.3249 87.3599 76.3097 87.7166Z" fill="#F7960D"/>
<path d="M77.6818 88.8538C77.738 89.8135 75.4296 90.6066 72.5258 90.6252C71.1831 90.6338 69.9478 90.4753 69.0027 90.2073C68.1724 89.9066 67.6564 89.5088 67.6306 89.0698C67.5744 88.11 69.8829 87.317 72.7866 87.2987C74.1297 87.2901 75.3646 87.4486 76.3098 87.7166C77.14 88.017 77.656 88.4151 77.6818 88.8538Z" fill="#FF9D00"/>
<path d="M72.9876 88.7997L72.9277 88.792C72.6693 88.759 72.4799 88.7302 72.3313 88.7015C71.9936 88.6366 71.8625 88.5711 71.8625 88.4689C71.8625 88.4347 71.8946 88.3187 72.3091 88.2624C72.4478 88.2438 72.6135 88.2343 72.8017 88.2343C72.8409 88.2343 72.8782 88.2346 72.9131 88.2352C73.33 88.2419 73.649 88.2851 73.8432 88.3203L74.031 88.3539L74.3584 88.0339L74.2292 88.0097C74.0528 87.9767 73.6831 87.9225 73.1017 87.9091V87.7325C73.1017 87.6946 73.0082 87.6637 72.8929 87.6637H72.2707C72.1553 87.6637 72.0618 87.6946 72.0618 87.7325V87.9415C71.247 88.022 70.7286 88.2361 70.7286 88.4983C70.7286 88.7578 71.2014 88.9481 72.1736 89.0796C72.2504 89.09 72.3313 89.1001 72.4141 89.1099C72.5798 89.131 72.7185 89.1515 72.8378 89.1723C73.2535 89.2457 73.4152 89.3219 73.4152 89.4443C73.4152 89.5636 73.219 89.652 72.8623 89.6937C72.7145 89.7108 72.5433 89.7197 72.3527 89.7197C72.3186 89.7197 72.2841 89.7194 72.2496 89.7187C71.8414 89.7126 71.4126 89.6695 71.0726 89.6003L70.8741 89.56L70.5745 89.8885L70.6854 89.913C70.9945 89.9812 71.5411 90.0329 72.0622 90.0452V90.1917C72.0622 90.2297 72.1557 90.2606 72.271 90.2606H72.8933C73.0086 90.2606 73.1021 90.2297 73.1021 90.1917V90.0161C74.0045 89.9375 74.5581 89.7145 74.5581 89.4238C74.5573 89.131 74.0877 88.9444 72.9876 88.7997Z" fill="#F7960D"/>
<path d="M72.8262 88.7382L72.7663 88.7306C72.5079 88.6975 72.3185 88.6688 72.1699 88.64C71.8322 88.5751 71.7011 88.51 71.7011 88.4075C71.7011 88.3732 71.7332 88.2573 72.1477 88.201C72.2864 88.182 72.4521 88.1725 72.6399 88.1725C72.6791 88.1725 72.7164 88.1728 72.7513 88.1734C73.1682 88.1802 73.4872 88.2233 73.6814 88.2585L73.8692 88.2921L74.1966 87.9721L74.0674 87.9479C73.891 87.9149 73.5213 87.8608 72.9395 87.8473V87.6708C72.9395 87.6325 72.846 87.6019 72.7307 87.6019H72.1081C71.9927 87.6019 71.8992 87.6328 71.8992 87.6708V87.8794C71.0844 87.9599 70.5656 88.174 70.5656 88.4362C70.5656 88.6957 71.0384 88.886 72.0106 89.0175C72.0875 89.0279 72.1683 89.038 72.2515 89.0478C72.4172 89.0689 72.5559 89.0894 72.6752 89.1102C73.0905 89.1837 73.2526 89.2598 73.2526 89.3822C73.2526 89.5015 73.0564 89.59 72.6997 89.6316C72.5523 89.6487 72.3807 89.6576 72.1901 89.6576C72.156 89.6576 72.1215 89.6573 72.0871 89.6567C71.6785 89.6505 71.2497 89.6074 70.91 89.5383L70.7115 89.4979L70.4119 89.8265L70.5224 89.8509C70.8316 89.9192 71.3781 89.9709 71.8992 89.9834V90.13C71.8992 90.1682 71.9923 90.1991 72.1081 90.1991H72.7307C72.846 90.1991 72.9395 90.1682 72.9395 90.13V89.9546C73.8419 89.876 74.3959 89.6527 74.3959 89.3623C74.3959 89.0692 73.9263 88.8826 72.8262 88.7382Z" fill="#FF9D00"/>
<path d="M63.7667 93.8904V94.6436L50.7777 94.6256L50.7773 93.9393" fill="#FF9D00"/>
<path d="M57.1461 92.438C53.5599 92.461 50.7085 93.4403 50.7779 94.6255C50.8472 95.8108 53.8112 96.7534 57.3974 96.7305C60.9835 96.7075 63.8349 95.7282 63.7656 94.5426C63.6962 93.3574 60.7323 92.4151 57.1461 92.438Z" fill="#FF9D00"/>
<path d="M57.146 91.7518C53.5594 91.7747 50.7084 92.754 50.7773 93.9393C50.8467 95.1245 53.8107 96.0671 57.3969 96.0442C60.9834 96.0212 63.8344 95.0419 63.7655 93.8564C63.6961 92.6711 60.7326 91.7288 57.146 91.7518Z" fill="#FF9D00"/>
<path d="M63.7667 92.8883V93.6415L50.7777 93.6235L50.7773 92.9373" fill="#FF9D00"/>
<path d="M57.1461 91.436C53.5599 91.4589 50.7085 92.4382 50.7779 93.6235C50.8472 94.8087 53.8112 95.7513 57.3974 95.7284C60.9835 95.7054 63.8349 94.7261 63.7656 93.5406C63.6962 92.355 60.7323 91.413 57.1461 91.436Z" fill="#FF9D00"/>
<path d="M57.146 90.7496C53.5594 90.7725 50.7084 91.7518 50.7773 92.9371C50.8467 94.1223 53.8107 95.0649 57.3969 95.042C60.9834 95.019 63.8344 94.0397 63.7655 92.8542C63.6961 91.6692 60.7326 90.7266 57.146 90.7496Z" fill="#FF9D00"/>
<path d="M63.7667 91.8864V92.6396L50.7777 92.6212L50.7773 91.9353" fill="#FF9D00"/>
<path d="M57.1461 90.4337C53.5599 90.4567 50.7085 91.436 50.7779 92.6213C50.8472 93.8065 53.8112 94.7491 57.3974 94.7262C60.9835 94.7032 63.8349 93.7239 63.7656 92.5384C63.6962 91.3531 60.7323 90.4111 57.1461 90.4337Z" fill="#FF9D00"/>
<path d="M57.146 89.7476C53.5594 89.7705 50.7084 90.7499 50.7773 91.9351C50.8467 93.1204 53.8107 94.063 57.3969 94.04C60.9834 94.0171 63.8344 93.0377 63.7655 91.8522C63.6961 90.667 60.7326 89.7247 57.146 89.7476Z" fill="#FF9D00"/>
<path d="M63.7667 90.8844V91.6376L50.7777 91.6193L50.7773 90.933" fill="#FF9D00"/>
<path d="M57.1461 89.4318C53.5599 89.4548 50.7085 90.4341 50.7779 91.6193C50.8472 92.8046 53.8112 93.7472 57.3974 93.7242C60.9835 93.7013 63.8349 92.722 63.7656 91.5364C63.6962 90.3512 60.7323 89.4089 57.1461 89.4318Z" fill="#FF9D00"/>
<path d="M57.146 88.7455C53.5594 88.7685 50.7084 89.7478 50.7773 90.933C50.8467 92.1183 53.8107 93.0609 57.3969 93.038C60.9834 93.015 63.8344 92.0357 63.7655 90.8501C63.6961 89.6649 60.7326 88.7226 57.146 88.7455Z" fill="#FF9D00"/>
<path d="M63.7667 89.8822V90.6354L50.7777 90.6174L50.7773 89.9312" fill="#FF9D00"/>
<path d="M57.1461 88.4299C53.5599 88.4528 50.7085 89.4321 50.7779 90.6174C50.8472 91.8026 53.8112 92.7452 57.3974 92.7223C60.9835 92.6993 63.8349 91.72 63.7656 90.5345C63.6962 89.3492 60.7323 88.4069 57.1461 88.4299Z" fill="#FF9D00"/>
<path d="M57.146 87.7436C53.5594 87.7665 50.7084 88.7459 50.7773 89.9311C50.8467 91.1163 53.8107 92.0589 57.3969 92.036C60.9834 92.0131 63.8344 91.0337 63.7655 89.8482C63.6961 88.6629 60.7326 87.7206 57.146 87.7436Z" fill="#FF9D00"/>
<path d="M63.7667 88.8802V89.6335L50.7777 89.6151L50.7773 88.9292" fill="#FF9D00"/>
<path d="M57.1461 87.4275C53.5599 87.4505 50.7085 88.4298 50.7779 89.615C50.8472 90.8003 53.8112 91.7429 57.3974 91.7199C60.9835 91.697 63.8349 90.7177 63.7656 89.5321C63.6962 88.3469 60.7323 87.4049 57.1461 87.4275Z" fill="#FF9D00"/>
<path d="M57.146 86.7413C53.5594 86.7642 50.7084 87.7435 50.7773 88.9288C50.8467 90.114 53.8107 91.0566 57.3969 91.0337C60.9834 91.0107 63.8344 90.0314 63.7655 88.8459C63.6961 87.6606 60.7326 86.7183 57.146 86.7413Z" fill="#FF9D00"/>
<path d="M63.7667 87.8782V88.6314L50.7777 88.6131L50.7773 87.9268" fill="#FF9D00"/>
<path d="M57.1461 86.4256C53.5599 86.4485 50.7085 87.4279 50.7779 88.6131C50.8472 89.7983 53.8112 90.7409 57.3974 90.718C60.9835 90.6951 63.8349 89.7157 63.7656 88.5302C63.6962 87.3449 60.7323 86.4026 57.1461 86.4256Z" fill="#FF9D00"/>
<path d="M57.146 85.7394C53.5594 85.7624 50.7084 86.7417 50.7773 87.9269C50.8467 89.1122 53.8107 90.0548 57.3969 90.0318C60.9834 90.0089 63.8344 89.0296 63.7655 87.844C63.6961 86.6588 60.7326 85.7165 57.146 85.7394Z" fill="#FF9D00"/>
<path d="M63.7667 86.8761V87.6293L50.7777 87.6113L50.7773 86.9251" fill="#FF9D00"/>
<path d="M57.1461 85.4238C53.5599 85.4467 50.7085 86.426 50.7779 87.6113C50.8472 88.7965 53.8112 89.7391 57.3974 89.7162C60.9835 89.6932 63.8349 88.7139 63.7656 87.5284C63.6962 86.3431 60.7323 85.4008 57.1461 85.4238Z" fill="#FF9D00"/>
<path d="M57.146 84.7375C53.5594 84.7604 50.7084 85.7397 50.7773 86.925C50.8467 88.1102 53.8107 89.0528 57.3969 89.0299C60.9834 89.0069 63.8344 88.0276 63.7655 86.8421C63.6961 85.6568 60.7326 84.7145 57.146 84.7375Z" fill="#FF9D00"/>
<path d="M63.7667 85.8739V86.6271L50.7777 86.6091L50.7773 85.9229" fill="#FF9D00"/>
<path d="M57.1461 84.4216C53.5599 84.4445 50.7085 85.4238 50.7779 86.6091C50.8472 87.7946 53.8112 88.7369 57.3974 88.714C60.9835 88.691 63.8349 87.7117 63.7656 86.5262C63.6962 85.3406 60.7323 84.3986 57.1461 84.4216Z" fill="#FF9D00"/>
<path d="M57.146 83.735C53.5594 83.758 50.7084 84.7373 50.7773 85.9225C50.8467 87.1078 53.8107 88.0504 57.3969 88.0275C60.9834 88.0045 63.8344 87.0252 63.7655 85.8396C63.6961 84.6547 60.7326 83.7121 57.146 83.735Z" fill="#FF9D00"/>
<path d="M63.7667 84.8719V85.6252L50.7777 85.6068L50.7773 84.9206" fill="#FF9D00"/>
<path d="M57.1461 83.4194C53.5599 83.4423 50.7085 84.4216 50.7779 85.6069C50.8472 86.7924 53.8112 87.7347 57.3974 87.7118C60.9835 87.6888 63.8349 86.7095 63.7656 85.524C63.6962 84.3387 60.7323 83.3964 57.1461 83.4194Z" fill="#FF9D00"/>
<path d="M57.146 82.7331C53.5594 82.756 50.7084 83.7354 50.7773 84.9206C50.8467 86.1058 53.8107 87.0484 57.3969 87.0255C60.9834 87.0026 63.8344 86.0232 63.7655 84.8377C63.6961 83.6524 60.7326 82.7101 57.146 82.7331Z" fill="#FF9D00"/>
<path d="M50.7777 84.6049L50.7773 83.9186L63.7667 83.87V84.6232L50.7777 84.6049Z" fill="#FF9D00"/>
<path d="M57.1461 82.4174C53.5599 82.4403 50.7085 83.4197 50.7779 84.6049C50.8472 85.7902 53.8112 86.7328 57.3974 86.7098C60.9835 86.6869 63.8349 85.7075 63.7656 84.522C63.6962 83.3368 60.7323 82.3945 57.1461 82.4174Z" fill="#FF9D00"/>
<path d="M57.146 81.7311C53.5594 81.7541 50.7084 82.7334 50.7773 83.9186C50.8467 85.1039 53.8107 86.0465 57.3969 86.0235C60.9834 86.0006 63.8344 85.0213 63.7655 83.8357C63.6961 82.6505 60.7326 81.7082 57.146 81.7311ZM57.3731 85.6151C54.4693 85.6335 52.0701 84.8707 52.0138 83.911C51.9575 82.9512 54.266 82.1582 57.1698 82.1399C60.0735 82.1212 62.4731 82.8842 62.5294 83.844C62.5853 84.8034 60.2768 85.5964 57.3731 85.6151Z" fill="#FF9D00"/>
<path d="M61.1569 82.7062C60.2117 82.4385 58.9768 82.2797 57.6337 82.2883C54.73 82.3067 52.4215 83.1 52.4778 84.0594C52.5035 84.4985 53.0195 84.8962 53.8498 85.1969C52.7508 84.8855 52.0438 84.4266 52.0137 83.9107C51.9574 82.951 54.2659 82.158 57.1697 82.1396C58.745 82.1295 60.1721 82.3495 61.1569 82.7062Z" fill="#F7960D"/>
<path d="M62.5297 83.8437C62.5859 84.8034 60.2775 85.5964 57.3737 85.6151C56.031 85.6237 54.7957 85.4652 53.8506 85.1972C53.0203 84.8964 52.5043 84.4987 52.4785 84.0597C52.4223 83.0999 54.7308 82.3069 57.6345 82.2885C58.9776 82.28 60.2125 82.4385 61.1577 82.7065C61.9879 83.0069 62.5039 83.4046 62.5297 83.8437Z" fill="#FF9D00"/>
<path d="M57.8352 83.7895L57.7754 83.7819C57.517 83.7488 57.3276 83.7201 57.1789 83.6913C56.8413 83.6265 56.7101 83.561 56.7101 83.4588C56.7101 83.4245 56.7422 83.3086 57.1568 83.2523C57.2955 83.2336 57.4611 83.2242 57.6494 83.2242C57.6886 83.2242 57.7258 83.2245 57.7607 83.2251C58.1776 83.2318 58.4967 83.2749 58.6909 83.3101L58.8787 83.3438L59.2061 83.0238L59.0769 82.9996C58.9005 82.9665 58.5307 82.9124 57.9494 82.8989V82.7224C57.9494 82.6845 57.8558 82.6536 57.7405 82.6536H57.1183C57.003 82.6536 56.9095 82.6845 56.9095 82.7224V82.9314C56.0947 83.0118 55.5763 83.226 55.5763 83.4882C55.5763 83.7476 56.0491 83.9379 57.0212 84.0695C57.0981 84.0799 57.1789 84.09 57.2618 84.0998C57.4274 84.1209 57.5661 84.1414 57.6854 84.1622C58.1011 84.2356 58.2628 84.3118 58.2628 84.4342C58.2628 84.5535 58.0667 84.6419 57.71 84.6835C57.5622 84.7006 57.391 84.7095 57.2003 84.7095C57.1663 84.7095 57.1318 84.7092 57.0973 84.7086C56.6891 84.7025 56.2603 84.6593 55.9203 84.5902L55.7217 84.5498L55.4221 84.8784L55.5331 84.9029C55.8422 84.9711 56.3887 85.0228 56.9099 85.035V85.1816C56.9099 85.2195 57.0034 85.2504 57.1187 85.2504H57.7409C57.8562 85.2504 57.9498 85.2195 57.9498 85.1816V85.0057C58.8522 84.927 59.4058 84.704 59.4058 84.4134C59.405 84.1206 58.9354 83.9339 57.8352 83.7895Z" fill="#F7960D"/>
<path d="M57.6741 83.7278L57.6142 83.7201C57.3558 83.6871 57.1664 83.6583 57.0178 83.6296C56.6801 83.5647 56.549 83.4995 56.549 83.397C56.549 83.3628 56.5811 83.2468 56.9956 83.1905C57.1343 83.1716 57.2999 83.1621 57.4878 83.1621C57.527 83.1621 57.5643 83.1624 57.5992 83.163C58.0161 83.1697 58.3351 83.2129 58.5293 83.2477L58.7171 83.2814L59.0445 82.9614L58.9153 82.9372C58.7389 82.9042 58.3692 82.85 57.7874 82.8366V82.66C57.7874 82.6218 57.6939 82.5912 57.5786 82.5912H56.956C56.8406 82.5912 56.7471 82.6221 56.7471 82.66V82.8687C55.9323 82.9491 55.4135 83.1633 55.4135 83.4255C55.4135 83.6849 55.8863 83.8752 56.8585 84.0068C56.9353 84.0172 57.0162 84.0273 57.0994 84.0371C57.2651 84.0582 57.4038 84.0787 57.5231 84.0995C57.9384 84.1729 58.1005 84.2491 58.1005 84.3715C58.1005 84.4908 57.9043 84.5792 57.5476 84.6208C57.4002 84.638 57.2286 84.6468 57.038 84.6468C57.0039 84.6468 56.9694 84.6465 56.935 84.6459C56.5264 84.6398 56.0976 84.5967 55.7579 84.5275L55.5594 84.4871L55.2598 84.8157L55.3703 84.8402C55.6795 84.9084 56.226 84.9601 56.7471 84.9727V85.1192C56.7471 85.1575 56.8406 85.1884 56.956 85.1884H57.5786C57.6939 85.1884 57.7874 85.1575 57.7874 85.1192V84.9439C58.6898 84.8653 59.2438 84.6419 59.2438 84.3516C59.2438 84.0591 58.7742 83.8725 57.6741 83.7278Z" fill="#FF9D00"/>
<path d="M44.5234 86.5C44.614 86.5 44.6875 86.416 44.6875 86.3125V85.6875C44.6875 85.584 44.614 85.5 44.5234 85.5H40.4766C40.386 85.5 40.3125 85.584 40.3125 85.6875V86.3867C40.3125 86.4902 40.386 86.5742 40.4766 86.5742H41.6425C42.0159 86.5742 42.3023 86.7298 42.4761 87H40.4766C40.386 87 40.3125 87.084 40.3125 87.1875V87.8125C40.3125 87.916 40.386 88 40.4766 88H42.6471C42.5621 88.5638 42.1964 88.9161 41.625 88.9161H40.4766C40.386 88.9161 40.3125 89.0001 40.3125 89.1036V89.9319C40.3125 89.9843 40.3316 90.0342 40.3653 90.0697L42.6219 92.4503C42.6522 92.4822 42.6919 92.5 42.7331 92.5H43.8619C44.0113 92.5 44.0829 92.2905 43.9732 92.1747L41.9103 89.9985C42.9562 89.962 43.7033 89.1642 43.8014 88H44.5234C44.614 88 44.6875 87.916 44.6875 87.8125V87.1875C44.6875 87.084 44.614 87 44.5234 87H43.721C43.6734 86.8197 43.6078 86.6524 43.5262 86.5H44.5234Z" fill="black"/>
<g clip-path="url(#clip1_164_2189)">
<path d="M57.9917 82.6584C58.04 82.6542 58.0762 82.6178 58.0727 82.577L58.0513 82.3312C58.0478 82.2904 58.0058 82.2608 57.9575 82.265L55.8032 82.4522C55.7549 82.4564 54.9965 82.6177 55 82.6584L55.7462 82.8087C55.7497 82.8494 55.7917 82.879 55.8399 82.8748L56.4606 82.8209C56.6594 82.8036 56.8172 82.8516 56.9189 82.9498L55.8545 83.0423C55.8062 83.0465 55.77 83.0829 55.7735 83.1237L55.7949 83.3696C55.7984 83.4103 55.8404 83.4399 55.8887 83.4357L57.0441 83.3353C57.0182 83.561 56.8356 83.7165 56.5314 83.743L55.92 83.7961C55.8717 83.8003 55.8355 83.8367 55.8391 83.8775L55.8674 84.2033C55.8692 84.2239 55.8811 84.2427 55.9002 84.2551L57.1829 85.0872C57.2001 85.0983 57.2219 85.1035 57.2438 85.1016L57.8447 85.0493C57.9242 85.0424 58.5624 85.0405 58.5 85L56.7203 84.1556C57.2758 84.0928 57.6462 83.7444 57.6587 83.2819L58.043 83.2485C58.0913 83.2443 58.1275 83.2079 58.124 83.1671L58.1026 82.9213C58.099 82.8805 58.0571 82.8509 58.0088 82.8551L57.5817 82.8922C57.5501 82.8235 57.5095 82.7607 57.4608 82.7045L57.9917 82.6584Z" fill="#D68E28"/>
</g>
<g clip-path="url(#clip2_164_2189)">
<path d="M73.9917 87.6584C74.04 87.6542 74.0762 87.6178 74.0727 87.577L74.0513 87.3312C74.0478 87.2904 74.0058 87.2608 73.9575 87.265L71.8032 87.4522C71.7549 87.4564 70.9965 87.6177 71 87.6584L71.7462 87.8087C71.7497 87.8494 71.7917 87.879 71.8399 87.8748L72.4606 87.8209C72.6594 87.8036 72.8172 87.8516 72.9189 87.9498L71.8545 88.0423C71.8062 88.0465 71.77 88.0829 71.7735 88.1237L71.7949 88.3696C71.7984 88.4103 71.8404 88.4399 71.8887 88.4357L73.0441 88.3353C73.0182 88.561 72.8356 88.7165 72.5314 88.743L71.92 88.7961C71.8717 88.8003 71.8355 88.8367 71.8391 88.8775L71.8674 89.2033C71.8692 89.2239 71.8811 89.2427 71.9002 89.2551L73.1829 90.0872C73.2001 90.0983 73.2219 90.1035 73.2438 90.1016L73.8447 90.0493C73.9242 90.0424 74.5624 90.0405 74.5 90L72.7203 89.1556C73.2758 89.0928 73.6462 88.7444 73.6587 88.2819L74.043 88.2485C74.0913 88.2443 74.1275 88.2079 74.124 88.1671L74.1026 87.9213C74.099 87.8805 74.0571 87.8509 74.0088 87.8551L73.5817 87.8922C73.5501 87.8235 73.5095 87.7607 73.4608 87.7045L73.9917 87.6584Z" fill="#D68E28"/>
</g>
</g>
<defs>
<clipPath id="clip0_164_2189">
<rect width="111" height="98.2295" fill="white" transform="translate(0 0.770508)"/>
</clipPath>
<clipPath id="clip1_164_2189">
<rect width="3.74052" height="3.15899" fill="white" transform="translate(55 82.3239) rotate(-4.9673)"/>
</clipPath>
<clipPath id="clip2_164_2189">
<rect width="3.74052" height="3.15899" fill="white" transform="translate(71 87.3239) rotate(-4.9673)"/>
</clipPath>
</defs>
</svg>
