<svg xmlns="http://www.w3.org/2000/svg" enable-background="new 0 0 3000 3000" viewBox="0 0 3000 3000"><path fill="#f0edec" d="M2776.42,2916.66c0,16.61-37.57,31.72-97.8,42.29c-8.12,1.51-16.8,2.83-25.86,4.16   c-53.24,7.36-119.71,11.89-191.83,11.89c-78.17,0-149.73-5.29-204.86-13.97c-9.06-1.32-17.75-3.02-25.87-4.53   c-52.68-10.38-84.77-24.36-84.77-39.84s32.1-29.46,84.77-39.84c8.12-1.7,16.8-3.21,25.87-4.53   c55.13-8.87,126.69-14.16,204.86-14.16c72.13,0,138.59,4.53,191.83,12.08c9.06,1.32,17.75,2.64,25.86,4.16   C2738.85,2884.94,2776.42,2900.04,2776.42,2916.66z" class="coloreceff0 svgShape"/><circle cx="2460.16" cy="347.86" r="322.86" fill="#fb600a" class="coloree3a4f svgShape"/><circle cx="2460.16" cy="347.86" r="264.26" fill="#ffffff" class="colorfff svgShape"/><circle cx="2460.16" cy="347.86" r="194.6" fill="#fb600a" class="coloree3a4f svgShape"/><path fill="#ffffff" d="M2597.77,347.86c0,76-61.61,137.6-137.61,137.6s-137.61-61.61-137.61-137.6s61.61-137.61,137.61-137.61     S2597.77,271.87,2597.77,347.86z" class="colorfff svgShape"/><circle cx="2460.16" cy="347.86" r="61.92" fill="#fb600a" class="coloree3a4f svgShape"/><path fill="#d17705" d="M2256.06 753.27v2207.76c-9.06-1.32-17.75-3.02-25.87-4.53V753.27H2256.06zM2678.62 753.27v2205.68c-8.12 1.51-16.8 2.83-25.86 4.16V753.27H2678.62z" class="colorbf6f30 svgShape"/><rect width="422.55" height="27.79" x="2243.14" y="2694.62" fill="#d17705" class="colorbf6f30 svgShape"/><rect width="422.55" height="27.79" x="2243.14" y="2403.77" fill="#d17705" class="colorbf6f30 svgShape"/><rect width="422.55" height="27.79" x="2243.14" y="2112.92" fill="#d17705" class="colorbf6f30 svgShape"/><rect width="422.55" height="27.79" x="2243.14" y="1822.06" fill="#d17705" class="colorbf6f30 svgShape"/><rect width="422.55" height="27.79" x="2243.14" y="1531.2" fill="#d17705" class="colorbf6f30 svgShape"/><rect width="422.55" height="27.79" x="2243.14" y="1240.34" fill="#d17705" class="colorbf6f30 svgShape"/><rect width="422.55" height="27.79" x="2243.14" y="949.49" fill="#d17705" class="colorbf6f30 svgShape"/><path fill="#7f7467" d="M2256,670.72c-1.38,0-2.79-0.3-4.12-0.95c-4.68-2.28-6.64-7.93-4.36-12.62l134.92-277.55    c13.67-30.39,44.29-50.18,77.9-50.18c31.09,0,59.78,16.91,74.84,44.12l158.55,264.67c2.68,4.47,1.23,10.27-3.25,12.94    c-4.47,2.69-10.28,1.24-12.94-3.25l-158.72-264.95c-11.9-21.49-34.25-34.66-58.48-34.66c-26.18,0-50.05,15.42-60.79,39.3    l-135.04,277.8C2262.87,668.77,2259.51,670.72,2256,670.72z" class="color67747f svgShape"/><path fill="#4c4337" d="M2806.37,826.28l-682.04,30.88c-6.28,0.28-11.6-4.58-11.89-10.86l-9.34-206.26   c-0.29-6.28,4.58-11.6,10.86-11.89L2796,597.27c6.28-0.28,11.6,4.58,11.89,10.86l9.34,206.27   C2817.51,820.67,2812.65,825.99,2806.37,826.28z" class="color37424c svgShape"/><path fill="#e8e3e0" d="M1692.09,2929.31c0,13.01-29.43,24.84-76.6,33.12c-6.36,1.18-13.16,2.22-20.26,3.25    c-41.7,5.77-93.76,9.32-150.25,9.32c-61.22,0-117.27-4.14-160.45-10.94c-7.1-1.03-13.9-2.37-20.26-3.55    c-41.26-8.13-66.4-19.07-66.4-31.2s25.14-23.07,66.4-31.2c6.36-1.33,13.16-2.51,20.26-3.55c43.18-6.95,99.23-11.09,160.45-11.09    c56.49,0,108.55,3.55,150.25,9.46c7.1,1.03,13.9,2.07,20.26,3.26C1662.66,2904.46,1692.09,2916.29,1692.09,2929.31z" class="colore0e2e8 svgShape"/><rect width="57.68" height="63.99" x="1522.63" y="2817.04" fill="#fbb890" class="colorf5bf9a svgShape"/><path fill="#5c5348" d="M1598.49,2936.09c-4.97,8.4-19.32,7.63-26.09,7.63s-34.26,0.04-43.34,0.02s-26.36-2.05-27-16.14        c-0.11-2.46,0.26-4.27,0.76-5.85c2.48,2.67,6.75,5.59,14.05,7.38c16.16,3.97,26.1,2.8,30.88,2.8h34.49        c5.19,0,13.57-3.28,17.54-12.32C1600.99,2924.62,1602.01,2930.13,1598.49,2936.09z" class="color484a5c svgShape"/><path fill="#4c4338" d="M1599.78,2919.61c-3.98,9.04-12.36,12.32-17.54,12.32h-34.49c-4.78,0-14.72,1.17-30.88-2.8        c-7.3-1.8-11.56-4.71-14.05-7.38c0.66-2.05,1.53-3.71,1.85-5.9c1.11,3.22,4.23,6.9,12.2,8.85c16.16,3.97,26.1,2.8,30.88,2.8        s28.98-0.1,34.49,0c8.28,0.14,14.1-4.26,16.44-12.63C1598.97,2916.4,1599.38,2917.98,1599.78,2919.61z" class="color38424c svgShape"/><path fill="#5c5348" d="M1598.68,2914.87c0,0.01,0,0.01,0,0.01c-2.34,8.37-8.17,12.77-16.44,12.63c-5.51-0.1-29.71,0-34.49,0        s-14.72,1.17-30.88-2.8c-7.97-1.95-11.09-5.63-12.2-8.85c0.05-0.32,0.08-0.65,0.1-0.99c0.27-4.52,1.9-14.17,5.15-19.5        s4.52-6.68,5.69-13.18c1.17-6.5,11.64-25.19,32.69-25.19c21.04,0,31.69,6.14,36.48,17.25c4.78,11.11,1.89,8.03,6.5,18.6        c4.6,10.56,6.32,14.36,7.22,20.86C1598.55,2914.08,1598.61,2914.47,1598.68,2914.87z" class="color484a5c svgShape"/><rect width="57.68" height="63.99" x="1315.63" y="2817.04" fill="#fbb890" class="colorf5bf9a svgShape"/><path fill="#5c5348" d="M1391.48,2936.09c-4.96,8.4-19.32,7.63-26.09,7.63s-34.26,0.04-43.34,0.02s-26.37-2.05-27-16.14        c-0.11-2.46,0.26-4.27,0.76-5.85c2.48,2.67,6.75,5.59,14.05,7.38c16.16,3.97,26.1,2.8,30.88,2.8h34.49        c5.18,0,13.56-3.28,17.54-12.32C1393.99,2924.62,1395.01,2930.13,1391.48,2936.09z" class="color484a5c svgShape"/><path fill="#4c4338" d="M1392.77,2919.61c-3.98,9.04-12.36,12.32-17.54,12.32h-34.49c-4.78,0-14.72,1.17-30.88-2.8        c-7.3-1.8-11.56-4.71-14.05-7.38c0.66-2.05,1.53-3.71,1.85-5.9c1.11,3.22,4.23,6.9,12.2,8.85c16.16,3.97,26.1,2.8,30.88,2.8        s28.99-0.1,34.49,0c8.28,0.14,14.1-4.26,16.44-12.63C1391.96,2916.4,1392.37,2917.98,1392.77,2919.61z" class="color38424c svgShape"/><path fill="#5c5348" d="M1391.68,2914.87c0,0.01,0,0.01,0,0.01c-2.34,8.37-8.17,12.77-16.44,12.63c-5.51-0.1-29.71,0-34.49,0        s-14.72,1.17-30.88-2.8c-7.97-1.95-11.09-5.63-12.2-8.85c0.05-0.32,0.08-0.65,0.1-0.99c0.27-4.52,1.9-14.17,5.14-19.5        c3.25-5.33,4.52-6.68,5.69-13.18c1.17-6.5,11.65-25.19,32.69-25.19c21.04,0,31.69,6.14,36.48,17.25        c4.78,11.11,1.9,8.03,6.5,18.6c4.61,10.56,6.32,14.36,7.22,20.86C1391.54,2914.08,1391.6,2914.47,1391.68,2914.87z" class="color484a5c svgShape"/><path fill="#f0edec" d="M1480.56,1723.55c-0.25,1.92-0.5,3.77-0.68,5.56c0.19-1.79,0.37-3.65,0.62-5.5v-0.06H1480.56z" class="coloreceff0 svgShape"/><path fill="#fbb890" d="M1443.3,1755.45L1443.3,1755.45c-20.84,0-37.73-16.89-37.73-37.73v-29.3h75.46v29.3      C1481.03,1738.56,1464.14,1755.45,1443.3,1755.45z" class="colorf5bf9a svgShape"/><path fill="#fbb890" d="M1512.2,1654.69c-12.43,64.26-68.18,64.67-68.18,64.67s-55.75-0.4-68.18-64.67c0,0-28.3-19.45-5.92-35.73      l5.52-50.17c0,0,17.26-28.08,18.47-28.08s50.11,9.61,50.11,9.61s48.9-9.61,50.11-9.61s18.47,28.08,18.47,28.08l5.52,50.17      C1540.5,1635.24,1512.2,1654.69,1512.2,1654.69z" class="colorf5bf9a svgShape"/><path fill="#514940" d="M1520.12,1575.95c-4.14,15.48,0.75,27.38-2,43.01l-3.2,0.32c1.2-30.51-15.45-48.06-15.45-48.06      c-18.93,7.55-41.33-14.21-49.77-4.31c-22.75,26.7-44.88,2.77-48.59-4.46c0.4,23.68-21.69,23.27-21.69,23.27l-6.44,33.26h-3.07      l-8.61-35.88c-16.87-61.14,30.99-57.65,30.99-57.65s46.07-61.39,96.28-6.33C1488.58,1519.12,1535.47,1518.59,1520.12,1575.95z" class="color404251 svgShape"/><path fill="#4c453c" d="M1598.24,2138.94l-0.39,39.95l-8.93,648.72h-78.9l-63.38-538.23L1385,2827.61h-83.13l7.8-641.87      l3.35-53.81c23.75,7.63,47.73,13.31,71.95,17.05c0.39,0.08,0.78,0.15,1.17,0.23c43.84,6.77,88.46,7.55,133.85,2.8      c2.88-0.23,5.69-0.55,8.56-0.93C1551.6,2148.44,1574.81,2144.4,1598.24,2138.94z" class="color3d3c4c svgShape"/><path fill="#fbb890" d="M1305.57,1673.64L1305.57,1673.64l40.93-57.76c0,0,8.31-5.08,13.59-12.45c2.13-2.97,3.77-6.3,4.19-9.82      l-0.34-4.37l0,0l-1.2-15.3c-0.54-6.93,1.62-13.81,6.04-19.18l0,0c3.58-4.36,8.45-7.47,13.9-8.9l14.36-3.76l0.8-0.21l0.98-0.26      c2.54-0.67,4.18-3.13,3.8-5.73c-0.4-2.84-3.03-4.79-5.84-4.39c-0.08,0.01-0.15,0.02-0.23,0.04l-22.79,4.26l18.38-5.91l6.92-0.99      c1.35-0.19,2.5-0.91,3.27-1.92s1.16-2.3,0.99-3.66c-0.35-2.77-2.9-4.72-5.67-4.33l-7.41,1.06l-12.27,3.86l10.59-5.59      c1.85-0.97,2.82-2.99,2.53-4.96c-0.07-0.46-0.2-0.92-0.41-1.36c-1.09-2.34-3.83-3.4-6.21-2.43l-7.22,2.96l0,0      c-8.07,3.31-15.22,8.5-20.87,15.14l-7.62,8.96c-1.09,1.28-2.12,2.6-3.11,3.95c-5.7,7.79-9.68,16.73-11.64,26.22l-8.66,24.61      l-33.26,36.15l-0.01,0.01c0.01,0,0.01-0.01,0.01-0.01C1295.64,1656.98,1302.1,1669.08,1305.57,1673.64z" class="colorf5bf9a svgShape"/><path fill="#ffa30f" d="M1612.42,2187.16c-40.52,52.04-293.02,57.99-325.22,1.43l24.84-324.74l-93.99-41.59      c-39.45-17.35-52.52-66.66-27.09-101.36l115.38-126.78l44.56,39.21l-74.38,122.15c7.48-6.06,19.25-11.76,32.91-16.75      c21.98-8.08,45.15-12.47,68.44-14.26l27.92-2.26c28.16,30.89,39.81,34.22,74.74,1.43c17.59,0.95,51.37,12.39,72.43,18.48      l18.15,101.62L1612.42,2187.16z" class="colorffc431 svgShape"/><path fill="#fbb890" d="M1749.59,1640.77l33.16,24.68l12.84-12.28c0,0,56.55-27.6,19.66-66.12c-14.37-15-39.88-3.94-38.48,16.79       c0.02,0.29,0.04,0.58,0.07,0.88c0.06,0.72-0.92,0.98-1.21,0.32l-6.91-15.81c-1.18-2.69-4.28-3.96-7-2.87l0,0       c-2.5,1-3.9,3.68-3.27,6.31l4.2,17.69c0.94,3.96,0.3,8.13-1.79,11.61L1749.59,1640.77z" class="colorf5bf9a svgShape"/><path fill="#ffa30f" d="M1400.1,1831.68c0,0,91.32,48.87,223.19,5.29c13.71-4.53,25.14-14.26,34.55-25.22l143.89-154.62      l-45.56-40.16l-107.64,106.79l-124.79,23.95L1400.1,1831.68z" class="colorffc431 svgShape"/><g fill="#000000" class="color000 svgShape"><path fill="#f0edec" d="M858.18,2916.66c0,16.61-37.2,31.53-96.86,42.1c-0.38,0-0.57,0.19-0.94,0.19    c-7.55,1.32-15.67,2.64-24.17,3.97c-0.57,0-1.13,0.19-1.7,0.19c-53.24,7.36-119.71,11.89-191.83,11.89    c-72.88,0-139.91-4.53-193.34-12.27c-3.97-0.57-7.74-1.13-11.52-1.7c-4.72-0.75-9.25-1.51-13.6-2.27    c-4.34-0.75-8.31-1.51-12.27-2.26c-52.68-10.38-84.77-24.36-84.77-39.84s32.1-29.46,84.77-39.84c3.97-0.75,7.93-1.51,12.27-2.45    c4.34-0.75,8.87-1.32,13.6-2.08c3.77-0.57,7.55-1.13,11.52-1.7c53.43-7.93,120.46-12.46,193.34-12.46    c72.13,0,138.59,4.53,191.83,12.08c0.57,0,1.13,0.19,1.7,0.19c8.5,1.32,16.61,2.64,24.17,3.97c0.38,0,0.57,0.19,0.94,0.19    C820.98,2885.13,858.18,2900.04,858.18,2916.66z" class="coloreceff0 svgShape"/><path fill="#d17705" d="M349.34 2316.24v646.49c-3.97-.57-7.74-1.13-11.52-1.7-4.72-.75-9.25-1.51-13.6-2.27v-642.52H349.34zM761.32 2316.24v642.52c-.38 0-.57.19-.94.19-7.55 1.32-15.67 2.64-24.17 3.97v-646.68H761.32z" class="colorbf6f30 svgShape"/><rect width="411.87" height="9.56" x="336.81" y="2808.95" fill="#d17705" class="colorbf6f30 svgShape"/><rect width="411.87" height="9.56" x="336.81" y="2684.79" fill="#d17705" class="colorbf6f30 svgShape"/><rect width="411.87" height="9.56" x="336.81" y="2560.64" fill="#d17705" class="colorbf6f30 svgShape"/><rect width="411.87" height="9.56" x="336.81" y="2436.49" fill="#d17705" class="colorbf6f30 svgShape"/><g fill="#000000" class="color000 svgShape"><circle cx="545.46" cy="1855.02" r="327.95" fill="#fb600a" class="coloree3a4f svgShape"/><path fill="#ffffff" d="M813.89,1855.02c0,148.24-120.18,268.42-268.42,268.42s-268.42-120.18-268.42-268.42        c0-148.25,120.18-268.43,268.42-268.43S813.89,1706.77,813.89,1855.02z" class="colorfff svgShape"/><path fill="#fb600a" d="M743.13,1855.02c0,109.17-88.5,197.67-197.67,197.67s-197.67-88.5-197.67-197.67        s88.5-197.67,197.67-197.67S743.13,1745.85,743.13,1855.02z" class="coloree3a4f svgShape"/><path fill="#ffffff" d="M685.24,1855.02c0,77.19-62.58,139.77-139.77,139.77s-139.77-62.58-139.77-139.77        c0-77.2,62.58-139.77,139.77-139.77S685.24,1777.83,685.24,1855.02z" class="colorfff svgShape"/><path fill="#fb600a" d="M608.36,1855.02c0,34.73-28.16,62.89-62.9,62.89s-62.89-28.16-62.89-62.89c0-34.74,28.16-62.9,62.89-62.9        S608.36,1820.29,608.36,1855.02z" class="coloree3a4f svgShape"/><path fill="#7f7467" d="M338.09,2182.97c-1.4,0-2.84-0.31-4.19-0.96c-4.75-2.31-6.74-8.06-4.43-12.82l137.05-281.92      c13.89-30.86,44.99-50.97,79.12-50.97c31.59,0,60.72,17.18,76.02,44.82l161.05,268.85c2.73,4.54,1.25,10.43-3.29,13.15      c-4.54,2.73-10.44,1.25-13.15-3.3l-161.22-269.13c-12.09-21.83-34.79-35.21-59.41-35.21c-26.6,0-50.84,15.67-61.75,39.92      l-137.17,282.18C345.07,2180.99,341.65,2182.97,338.09,2182.97z" class="color67747f svgShape"/><path fill="#4c4337" d="M897.12,2340.98l-692.78,31.36c-6.38,0.29-11.79-4.65-12.08-11.03l-9.49-209.51      c-0.29-6.38,4.65-11.79,11.03-12.08l692.78-31.37c6.38-0.29,11.79,4.65,12.08,11.03l9.49,209.51      C908.44,2335.28,903.5,2340.69,897.12,2340.98z" class="color37424c svgShape"/></g></g><g fill="#000000" class="color000 svgShape"><path fill="#ffffff" d="M2205.17 754.59l23.48-1.06.42 9.19-34.87 1.58-3.15-69.44 11.39-.52L2205.17 754.59zM2248.23 759.2c-4.31-2.18-7.76-5.36-10.34-9.55-2.59-4.19-4.02-9.11-4.28-14.78-.25-5.59.75-10.61 3.02-15.06 2.27-4.44 5.48-7.92 9.64-10.44 4.16-2.53 8.87-3.91 14.13-4.15 5.26-.24 10.07.71 14.44 2.86 4.37 2.13 7.88 5.31 10.54 9.53 2.66 4.22 4.12 9.13 4.38 14.72.25 5.59-.79 10.61-3.13 15.06-2.33 4.45-5.63 7.95-9.88 10.51-4.26 2.56-9.02 3.96-14.28 4.2C2257.28 762.35 2252.53 761.37 2248.23 759.2zM2270.17 749.75c2.5-1.52 4.49-3.71 5.96-6.58s2.12-6.3 1.94-10.3c-.18-4-1.1-7.34-2.76-10.03-1.66-2.7-3.78-4.68-6.38-5.97-2.6-1.29-5.36-1.87-8.29-1.73-2.94.13-5.62.95-8.05 2.47-2.44 1.51-4.32 3.68-5.66 6.51-1.34 2.83-1.92 6.24-1.74 10.24.27 5.92 1.99 10.44 5.17 13.53 3.18 3.1 7.06 4.54 11.66 4.33C2264.96 752.08 2267.67 751.26 2270.17 749.75zM2339.3 704.37c3.51 1.64 6.31 4.19 8.41 7.63 2.09 3.44 3.25 7.66 3.48 12.66l1.47 32.47-11.29.51-1.39-30.77c-.22-4.93-1.63-8.65-4.21-11.17-2.58-2.52-6.01-3.68-10.27-3.49-4.27.19-7.58 1.66-9.96 4.41s-3.45 6.58-3.23 11.51l1.39 30.77-11.39.52-2.49-55.05 11.39-.52.29 6.29c1.76-2.35 4.06-4.22 6.9-5.62 2.84-1.4 5.89-2.17 9.16-2.32C2331.87 702 2335.79 702.73 2339.3 704.37zM2398.24 701.55c3.37 1.55 6.05 3.55 8.03 5.99l-.36-7.99 11.49-.52 2.53 55.95c.23 5.06-.63 9.62-2.58 13.68-1.96 4.06-4.89 7.31-8.82 9.76-3.93 2.45-8.69 3.8-14.29 4.05-7.46.34-13.73-1.13-18.82-4.41-5.08-3.27-8.1-7.89-9.03-13.86l11.29-.51c1 2.83 2.95 5.05 5.86 6.69 2.91 1.64 6.33 2.37 10.26 2.19 4.6-.21 8.25-1.78 10.96-4.7 2.7-2.93 3.93-7.05 3.69-12.38l-.42-9.19c-1.81 2.68-4.33 4.99-7.54 6.9-3.22 1.92-6.93 2.97-11.12 3.16-4.8.22-9.23-.8-13.31-3.05-4.07-2.25-7.36-5.5-9.85-9.77-2.49-4.26-3.87-9.15-4.12-14.68-.25-5.53.68-10.48 2.78-14.85 2.1-4.36 5.08-7.82 8.94-10.36 3.86-2.54 8.18-3.93 12.98-4.15C2391.05 699.32 2394.87 700 2398.24 701.55zM2404.36 717.24c-1.7-2.73-3.84-4.76-6.43-6.11-2.6-1.35-5.36-1.96-8.29-1.83s-5.63.97-8.1 2.52c-2.47 1.55-4.42 3.74-5.86 6.57-1.44 2.83-2.07 6.15-1.9 9.95.17 3.8 1.1 7.09 2.8 9.88 1.7 2.8 3.86 4.88 6.49 6.26 2.63 1.39 5.38 2.01 8.25 1.88 2.93-.13 5.63-.99 8.09-2.57 2.47-1.58 4.42-3.82 5.86-6.72 1.43-2.9 2.07-6.25 1.9-10.05C2406.98 723.23 2406.05 719.97 2404.36 717.24zM2475.29 710.53l.44 9.59-41.07 1.86-.43-9.59L2475.29 710.53zM2535.05 679.29l.42 9.29-18.49.84 2.72 60.15-11.39.52-2.72-60.15-18.59.84-.42-9.29L2535.05 679.29zM2598.68 722.66l-42.07 1.91c.53 4.38 2.32 7.84 5.38 10.37 3.05 2.53 6.71 3.7 10.97 3.51 6.13-.28 10.34-3.04 12.64-8.28l12.29-.56c-1.44 5.14-4.26 9.42-8.48 12.85s-9.55 5.29-16.01 5.58c-5.26.24-10.03-.73-14.3-2.91-4.27-2.17-7.68-5.36-10.24-9.55s-3.97-9.11-4.23-14.78c-.26-5.66.67-10.69 2.77-15.09s5.19-7.86 9.24-10.38 8.78-3.9 14.18-4.15c5.2-.23 9.87.69 14.04 2.77 4.16 2.08 7.47 5.12 9.92 9.11 2.45 4 3.8 8.65 4.04 13.98C2598.92 719.12 2598.87 720.98 2598.68 722.66zM2586.78 713.99c-.26-4.19-1.91-7.49-4.95-9.88-3.05-2.4-6.74-3.5-11.07-3.3-3.93.18-7.23 1.58-9.92 4.2-2.68 2.63-4.2 6.08-4.54 10.37L2586.78 713.99zM2626.93 691c2.69-1.69 5.94-2.62 9.74-2.8l.54 11.79-2.9.13c-4.47.2-7.79 1.49-9.98 3.86-2.2 2.37-3.17 6.35-2.92 11.94l1.31 28.98-11.39.52-2.49-55.05 11.39-.52.36 7.99C2622.12 694.97 2624.24 692.69 2626.93 691zM2725.56 686.88c3.51 1.64 6.33 4.19 8.46 7.63 2.12 3.44 3.3 7.66 3.52 12.65l1.47 32.47-11.29.51-1.39-30.77c-.22-4.93-1.63-8.65-4.21-11.17-2.59-2.52-6.01-3.68-10.27-3.49-4.27.19-7.58 1.66-9.96 4.41s-3.45 6.58-3.23 11.51l1.39 30.77-11.29.51-1.39-30.77c-.22-4.93-1.63-8.65-4.21-11.17-2.58-2.52-6.01-3.68-10.27-3.49-4.27.19-7.58 1.66-9.96 4.41s-3.45 6.58-3.23 11.51l1.39 30.77-11.39.52-2.49-55.05 11.39-.52.29 6.29c1.76-2.35 4.05-4.22 6.86-5.62 2.8-1.39 5.84-2.16 9.1-2.31 4.4-.2 8.37.56 11.92 2.27 3.54 1.71 6.33 4.29 8.36 7.73 1.51-3.41 3.99-6.17 7.43-8.3 3.44-2.12 7.2-3.28 11.25-3.46C2718.13 684.51 2722.05 685.24 2725.56 686.88z" class="colorfff svgShape"/></g><g fill="#000000" class="color000 svgShape"><path fill="#ffffff" d="M273.9 2276.47c-3.79-1.46-6.82-3.64-9.08-6.53-2.26-2.89-3.48-6.34-3.67-10.32l12.16-.55c.4 2.98 1.69 5.38 3.87 7.22 2.18 1.83 5.16 2.66 8.95 2.49 3.92-.18 6.93-1.27 9.04-3.26 2.11-2 3.09-4.49 2.96-7.47-.11-2.32-.87-4.19-2.3-5.59-1.43-1.4-3.17-2.45-5.23-3.16s-4.91-1.44-8.54-2.21c-4.57-.99-8.3-2.04-11.17-3.14-2.88-1.1-5.38-2.91-7.49-5.41s-3.26-5.91-3.46-10.23c-.18-3.99.65-7.52 2.52-10.6 1.86-3.08 4.54-5.5 8.06-7.25 3.51-1.76 7.63-2.74 12.35-2.96 6.71-.31 12.29 1.12 16.72 4.29 4.44 3.16 7.02 7.65 7.75 13.48l-12.56.57c-.31-2.51-1.61-4.62-3.88-6.31-2.27-1.69-5.2-2.46-8.79-2.3-3.26.15-5.88 1.1-7.86 2.85-1.98 1.75-2.91 4.19-2.77 7.31.1 2.13.82 3.84 2.18 5.14 1.35 1.3 3.05 2.31 5.08 3.02s4.79 1.45 8.29 2.22c4.64 1.06 8.44 2.15 11.38 3.28 2.95 1.13 5.5 2.97 7.64 5.5s3.31 5.99 3.51 10.38c.16 3.52-.64 6.88-2.39 10.09-1.75 3.21-4.4 5.85-7.93 7.9-3.53 2.06-7.76 3.2-12.68 3.42C281.92 2278.55 277.69 2277.93 273.9 2276.47zM361.12 2221.04c3.37 1.64 6.08 4.19 8.14 7.62 2.05 3.44 3.2 7.64 3.42 12.63l1.47 32.39-11.27.51-1.39-30.7c-.22-4.92-1.62-8.63-4.2-11.15-2.58-2.51-5.99-3.67-10.24-3.48-4.26.19-7.56 1.66-9.94 4.4-2.37 2.74-3.44 6.56-3.22 11.48l1.39 30.7-11.36.52-3.34-73.75 11.36-.52 1.14 25.21c1.82-2.41 4.18-4.32 7.08-5.72 2.9-1.39 6.11-2.17 9.63-2.33C353.98 2218.67 357.75 2219.39 361.12 2221.04zM398.24 2269.94c-4.3-2.17-7.74-5.34-10.32-9.52-2.59-4.18-4.01-9.09-4.26-14.74-.25-5.58.75-10.59 3.01-15.02s5.47-7.91 9.62-10.42c4.15-2.52 8.84-3.9 14.1-4.14 5.25-.24 10.05.71 14.41 2.85 4.36 2.13 7.86 5.3 10.52 9.51 2.65 4.21 4.11 9.1 4.37 14.69.25 5.58-.79 10.59-3.12 15.02s-5.62 7.93-9.86 10.48c-4.25 2.55-8.99 3.95-14.24 4.19C407.27 2273.08 402.53 2272.11 398.24 2269.94zM420.13 2260.51c2.49-1.51 4.48-3.7 5.94-6.56s2.11-6.29 1.93-10.28-1.1-7.32-2.75-10.01c-1.66-2.69-3.78-4.67-6.36-5.95-2.59-1.28-5.35-1.86-8.27-1.73-2.93.13-5.6.95-8.03 2.46s-4.31 3.67-5.65 6.5c-1.33 2.82-1.91 6.23-1.73 10.21.27 5.91 1.98 10.41 5.16 13.5 3.17 3.09 7.04 4.53 11.63 4.32C414.93 2262.84 417.64 2262.02 420.13 2260.51zM467.74 2215.86c2.69-1.69 5.92-2.62 9.71-2.79l.53 11.76-2.89.13c-4.45.2-7.77 1.48-9.96 3.85s-3.16 6.34-2.91 11.92l1.31 28.9-11.36.52-2.49-54.91 11.36-.52.36 7.97C462.94 2219.83 465.05 2217.55 467.74 2215.86zM501.63 2222.17l1.38 30.4c.09 2.06.64 3.51 1.65 4.37 1 .85 2.67 1.22 4.99 1.12l6.98-.32.43 9.47-8.97.41c-5.12.23-9.09-.79-11.92-3.06-2.83-2.27-4.37-6.09-4.61-11.47l-1.38-30.4-6.48.29-.42-9.27 6.48-.29-.62-13.66 11.46-.52.62 13.66 13.35-.61.42 9.27L501.63 2222.17zM567.83 2223.97l.43 9.57-40.96 1.86-.44-9.57L567.83 2223.97zM627.44 2192.81l.42 9.27-18.44.83 2.72 60-11.36.52-2.72-60-18.54.84-.42-9.27L627.44 2192.81zM690.92 2236.07l-41.96 1.9c.53 4.37 2.32 7.82 5.36 10.34 3.04 2.53 6.69 3.69 10.95 3.5 6.11-.28 10.31-3.03 12.61-8.26l12.26-.56c-1.43 5.12-4.25 9.4-8.46 12.81-4.2 3.42-9.53 5.27-15.97 5.57-5.25.24-10-.73-14.26-2.9s-7.67-5.35-10.22-9.53-3.96-9.09-4.22-14.74c-.26-5.65.67-10.67 2.77-15.06 2.09-4.39 5.17-7.84 9.22-10.35 4.05-2.52 8.76-3.9 14.15-4.14 5.18-.24 9.85.69 14 2.76 4.16 2.07 7.45 5.1 9.9 9.09 2.44 3.98 3.79 8.63 4.03 13.95C691.16 2232.53 691.11 2234.4 690.92 2236.07zM679.04 2227.42c-.26-4.18-1.91-7.47-4.94-9.86-3.04-2.39-6.72-3.49-11.04-3.29-3.92.18-7.22 1.58-9.89 4.19-2.68 2.62-4.19 6.07-4.53 10.34L679.04 2227.42zM719.1 2204.48c2.69-1.69 5.92-2.62 9.71-2.79l.53 11.76-2.89.13c-4.45.2-7.77 1.49-9.96 3.85s-3.16 6.34-2.91 11.92l1.31 28.9-11.36.52-2.48-54.91 11.36-.52.36 7.97C714.3 2208.45 716.41 2206.17 719.1 2204.48zM817.48 2200.38c3.5 1.64 6.32 4.18 8.44 7.61 2.12 3.44 3.29 7.64 3.52 12.63l1.47 32.39-11.26.51-1.39-30.7c-.22-4.92-1.62-8.63-4.2-11.15-2.58-2.51-5.99-3.67-10.24-3.48s-7.56 1.66-9.94 4.4c-2.37 2.74-3.45 6.56-3.23 11.48l1.39 30.7-11.26.51-1.39-30.7c-.22-4.92-1.62-8.63-4.2-11.15-2.58-2.51-5.99-3.67-10.24-3.48s-7.56 1.66-9.94 4.4c-2.37 2.74-3.45 6.57-3.23 11.48l1.39 30.7-11.36.52-2.49-54.91 11.36-.52.28 6.28c1.76-2.34 4.04-4.21 6.84-5.61 2.8-1.39 5.83-2.16 9.08-2.31 4.39-.2 8.35.56 11.89 2.26 3.53 1.7 6.32 4.27 8.34 7.71 1.51-3.4 3.98-6.15 7.41-8.28 3.43-2.12 7.18-3.27 11.22-3.45C810.06 2198.02 813.97 2198.74 817.48 2200.38z" class="colorfff svgShape"/></g></svg>