<svg width="141" height="107" viewBox="0 0 141 107" fill="none" xmlns="http://www.w3.org/2000/svg">
<g clip-path="url(#clip0_164_2503)" filter="url(#filter0_d_164_2503)">
<path d="M137 14.9463C136.742 16.7921 135.878 18.7428 133.915 20.5183C130.918 23.2288 126.946 23.5063 123.108 23.7783C118.892 24.0747 114.909 24.3521 112.545 27.8389C107.97 34.5882 102.749 42.5342 102.699 42.6147L102.106 42.3615C102.159 42.2835 107.381 34.3321 111.955 27.5803C114.49 23.8403 118.841 23.536 123.048 23.2397C126.759 22.9811 130.593 22.7116 133.413 20.1599C135.245 18.5027 136.065 16.6786 136.323 14.9463H137Z" fill="#FFA30F"/>
<path d="M102.457 51.2269L103.16 59.7753L98.0401 61.0611L96.1262 56.1279L102.457 51.2269Z" fill="#E5C79D"/>
<path d="M70.3689 59.2842L75.8345 66.6367L80.9543 65.3513L79.0405 60.418L70.3689 59.2842Z" fill="#E5C79D"/>
<path d="M88.8729 61.6046C100.192 58.763 106.753 49.7209 103.529 41.4085C100.305 33.0961 88.5155 28.6612 77.1969 31.5028C65.8782 34.3444 59.3164 43.3865 62.5407 51.6989C65.7649 60.0112 77.5543 64.4462 88.8729 61.6046Z" fill="#F1DDC2"/>
<path d="M84.9145 51.4002C88.5313 50.4922 90.7926 48.0272 89.9653 45.8945C89.138 43.7617 85.5355 42.7689 81.9188 43.6769C78.302 44.5848 76.0407 47.0499 76.868 49.1826C77.6953 51.3153 81.2978 52.3082 84.9145 51.4002Z" fill="#D7B380"/>
<path d="M80.9949 49.1221C81.4988 48.9956 81.7346 48.4478 81.5216 47.8986C81.3085 47.3494 80.7273 47.0067 80.2234 47.1332C79.7195 47.2598 79.4837 47.8075 79.6968 48.3567C79.9098 48.9059 80.491 49.2486 80.9949 49.1221Z" fill="#FFA30F"/>
<path d="M86.5281 47.7327C87.032 47.6062 87.2678 47.0584 87.0548 46.5092C86.8417 45.96 86.2605 45.6173 85.7566 45.7438C85.2527 45.8703 85.0169 46.4181 85.23 46.9673C85.443 47.5165 86.0242 47.8592 86.5281 47.7327Z" fill="#FFA30F"/>
<path d="M99.4814 34.8494C99.7136 35.7986 99.4647 36.8411 99.4647 36.8411L99.1058 36.7232C95.3931 34.0638 91.4432 32.5317 87.13 32.6401L86.4167 32.3978C86.4167 32.3978 88.6101 27.8066 93.7588 25.4135C93.7583 25.4131 98.1149 29.3452 99.4814 34.8494Z" fill="#D7B380"/>
<path d="M99.1057 36.7232C95.393 34.0638 91.4431 32.5317 87.1299 32.6401C88.2556 31.0873 90.2926 28.8291 93.4097 27.3732C93.4097 27.3732 97.7158 31.2633 99.1057 36.7232Z" fill="#E5C79D"/>
<path d="M61.4307 44.4036C61.9109 45.2904 62.8527 46.034 62.8527 46.034L63.0646 45.7728C64.2381 41.8864 66.4031 38.8189 70.0275 36.9343L70.4427 36.4083C70.4427 36.4083 65.3928 33.6358 59.4659 34.0235C59.4659 34.0239 58.663 39.2513 61.4307 44.4036Z" fill="#D7B380"/>
<path d="M63.0646 45.7728C64.2381 41.8863 66.4031 38.8189 70.0275 36.9342C68.0036 36.1722 64.7318 35.2473 61.139 35.4761C61.1386 35.4761 60.3473 40.6462 63.0646 45.7728Z" fill="#E5C79D"/>
<path d="M96.5316 49.5639C98.736 49.5639 100.523 48.1262 100.523 46.3528C100.523 44.5794 98.736 43.1417 96.5316 43.1417C94.3273 43.1417 92.5403 44.5794 92.5403 46.3528C92.5403 48.1262 94.3273 49.5639 96.5316 49.5639Z" fill="#E5C79D"/>
<path d="M92.6602 41.1083C93.4395 41.1083 94.0713 40.6001 94.0713 39.9731C94.0713 39.3461 93.4395 38.8378 92.6602 38.8378C91.8808 38.8378 91.249 39.3461 91.249 39.9731C91.249 40.6001 91.8808 41.1083 92.6602 41.1083Z" fill="#FFA30F"/>
<path d="M93.1757 39.6942C93.3394 39.6531 93.4306 39.513 93.3795 39.3813C93.3284 39.2495 93.1543 39.176 92.9906 39.2171C92.827 39.2582 92.7358 39.3983 92.7869 39.53C92.838 39.6618 93.0121 39.7353 93.1757 39.6942Z" fill="white"/>
<path d="M92.5934 40.5759C92.6335 40.6789 92.5619 40.7884 92.4344 40.8203C92.3065 40.8526 92.1704 40.795 92.1308 40.6923C92.0907 40.5893 92.1623 40.4798 92.2898 40.4478C92.4177 40.4156 92.5538 40.4729 92.5934 40.5759Z" fill="white"/>
<path d="M71.2899 55.9018C73.4943 55.9018 75.2813 54.4641 75.2813 52.6907C75.2813 50.9173 73.4943 49.4796 71.2899 49.4796C69.0856 49.4796 67.2986 50.9173 67.2986 52.6907C67.2986 54.4641 69.0856 55.9018 71.2899 55.9018Z" fill="#E5C79D"/>
<path d="M69.9636 46.8072C70.743 46.8072 71.3748 46.2989 71.3748 45.6719C71.3748 45.0449 70.743 44.5366 69.9636 44.5366C69.1843 44.5366 68.5525 45.0449 68.5525 45.6719C68.5525 46.2989 69.1843 46.8072 69.9636 46.8072Z" fill="#FFA30F"/>
<path d="M69.2401 45.7996C69.4115 45.7996 69.5504 45.6877 69.5504 45.5497C69.5504 45.4117 69.4115 45.2998 69.2401 45.2998C69.0687 45.2998 68.9297 45.4117 68.9297 45.5497C68.9297 45.6877 69.0687 45.7996 69.2401 45.7996Z" fill="white"/>
<path d="M70.4372 46.2494C70.4773 46.3524 70.6129 46.4098 70.7409 46.3775C70.8688 46.3452 70.94 46.236 70.8999 46.133C70.8598 46.03 70.7242 45.9727 70.5963 46.005C70.4688 46.0369 70.3976 46.1464 70.4372 46.2494Z" fill="white"/>
<path d="M105.81 43.6408C106.421 45.2168 106.163 46.9179 105.187 48.6078C103.713 51.1703 100.593 53.7158 96.3682 55.7826C93.8624 57.0093 90.9675 58.0684 87.7981 58.8645C84.1137 59.7894 80.4831 60.2537 77.1612 60.2947C73.3556 60.3422 69.9517 59.8388 67.3278 58.8464C64.7579 57.875 62.9383 56.4351 62.2206 54.586C61.7787 53.4474 61.9014 52.2472 62.3121 51.0292C63.6872 51.9636 65.3918 52.673 67.5261 53.1409C70.1185 53.7111 73.1811 53.9197 76.4858 53.7289C79.2865 53.5689 82.2644 53.121 85.2769 52.3647C87.8806 51.7111 90.2994 50.8798 92.467 49.9229C95.2722 48.6883 97.659 47.2461 99.498 45.7068C101.423 44.0978 102.682 42.4159 103.247 40.7336C104.446 41.5465 105.368 42.5022 105.81 43.6408Z" fill="#E09122"/>
<path d="M76.4854 53.7285C76.0769 56.0386 76.6405 58.6045 77.1608 60.2943C73.3552 60.3418 69.9513 59.8384 67.3273 58.846C66.5857 56.6835 67.0086 54.5784 67.5257 53.1406C70.1185 53.7107 73.1811 53.9197 76.4854 53.7285ZM105.187 48.6078C103.713 51.1703 100.593 53.7158 96.3682 55.7826C95.6523 53.7006 94.0455 51.6117 92.4661 49.9226C95.2713 48.6879 97.6581 47.2458 99.4971 45.7064C102.006 46.771 103.873 47.7884 105.187 48.6078Z" fill="#F7F6F5"/>
<path d="M8.92073 79.474L5.7395 79.7997L6.09372 82.0391L9.27495 81.7135L8.92073 79.474Z" fill="#FFBF66"/>
<path d="M4.00167 79.761L4.93989 85.6953C4.95386 85.7845 5.04944 85.8277 5.17929 85.8433C5.67161 85.9031 6.10488 85.5716 6.11164 85.1708C6.12381 84.4323 6.55843 83.28 7.3136 82.1458C7.33118 82.119 7.33885 82.0881 7.33389 82.0577L6.94841 79.6199C6.93624 79.5437 6.85419 79.4871 6.75861 79.4889L4.22845 79.5462C4.08959 79.5502 3.98409 79.6496 4.00167 79.761Z" fill="#FFA30F"/>
<path d="M42.8406 88.1086L43.4143 90.6473L46.1751 90.2435L45.6014 87.7048L42.8406 88.1086Z" fill="#FFBF66"/>
<path d="M43.4567 92.0505L50.7721 90.9801C50.8821 90.9641 50.9304 90.8854 50.943 90.7799C50.9908 90.3813 50.5561 90.0508 50.0584 90.0668C49.1414 90.0965 47.6874 89.8085 46.2393 89.2623C46.205 89.2492 46.1662 89.2449 46.1288 89.2507L43.1239 89.6903C43.0297 89.7041 42.9639 89.773 42.9715 89.8499L43.1771 91.8796C43.1902 91.9913 43.3191 92.0704 43.4567 92.0505ZM46.0774 88.5898L43.1104 75.6755C42.9242 75.0871 42.5428 74.5503 42.0063 74.1227L33.8807 65.5268L23.2461 65.418L20.5112 77.0585C20.3169 77.6577 8.07324 79.4676 8.07324 79.4676L8.26485 81.9246C8.26485 81.9246 18.5397 81.3149 22.687 80.9181C23.719 80.8194 24.5986 80.2953 25.0165 79.5296L29.7586 70.8409L37.1416 77.0498C37.6926 77.3653 38.1051 77.8133 38.3192 78.3294L42.7682 89.037L46.0774 88.5898Z" fill="#FFA30F"/>
<path d="M44.6164 45.7666L46.4342 46.4521L46.9261 45.8812C46.9261 45.8812 49.3494 44.3821 47.2187 43.1954C46.3891 42.7333 45.2823 43.3564 45.5505 44.1391C45.5541 44.15 45.5582 44.1613 45.5623 44.1721C45.5722 44.1993 45.528 44.2168 45.5077 44.1939L45.0253 43.6429C44.9432 43.549 44.7832 43.5247 44.6642 43.5878C44.5551 43.6458 44.5149 43.7594 44.5699 43.8548L44.9423 44.4993C45.0253 44.6433 45.0352 44.808 44.9698 44.9581L44.6164 45.7666Z" fill="#FFBF66"/>
<path d="M33.8766 65.5245C33.8766 65.5245 22.8768 67.5684 23.0625 65.7316C23.2483 63.8945 22.0819 52.707 26.1563 50.0922C27.7455 49.0723 32.9821 50.0712 34.4104 50.4042C34.7215 50.4767 41.573 49.7752 41.573 49.7752L44.655 45.2522L46.7226 46.2707L43.7673 51.1448C43.5031 51.5801 43.0252 51.9072 42.4481 52.0465L35.1809 53.801C35.1664 53.8376 35.1601 53.8826 35.1461 53.9188C33.8793 58.156 33.8766 65.5245 33.8766 65.5245Z" fill="#F7960D"/>
<path d="M31.7697 50.2039C31.8179 50.0215 31.8517 49.8906 31.8517 49.8906C31.8517 49.8906 32.9964 49.8695 33.1123 49.8401C33.3427 49.7814 33.7683 49.2351 33.9004 48.546C34.0325 47.8572 34.0708 47.1488 34.0843 46.8561C34.0974 46.5634 34.1497 45.3831 32.8607 44.8318C31.5722 44.2805 29.7274 44.6715 29.1124 45.7085C28.4974 46.7455 28.5876 47.5957 28.7973 47.9457C29.0069 48.2957 29.1336 48.8909 29.1322 49.1176C29.1318 49.2065 29.0826 49.4883 29.0222 49.7984C28.91 50.3791 29.3734 50.9315 30.0844 51.0654C30.8473 51.2094 31.6074 50.8205 31.7697 50.2039Z" fill="#FFBF66"/>
<path d="M29.6577 47.0549C29.746 47.187 29.8439 47.4826 29.8439 47.4826C30.0842 47.3012 30.5445 46.006 30.3885 45.6393C30.4484 45.8845 32.8695 45.723 33.5025 45.64C33.6341 45.6226 33.7987 45.6784 33.8614 45.793C33.9294 45.9171 34.0615 46.5014 34.0877 46.6519C34.1422 46.4412 34.1594 46.2337 34.1914 46.0212C34.2216 45.8195 35.1134 45.118 34.8185 44.7042C34.3902 44.1024 31.4096 44.151 31.0472 44.1812C30.6486 44.2142 29.3799 44.4938 29.2325 44.9338C28.7668 45.0832 28.4318 45.2773 28.3993 45.9617C28.3836 46.2914 28.3854 46.6247 28.3836 46.9555C28.3822 47.2842 28.4868 47.5703 28.5842 47.8877C28.6676 48.159 28.7794 48.4227 28.8732 48.6911C28.8899 48.7383 29.0197 49.13 29.1315 49.1086C29.1504 49.105 29.3164 48.7825 29.3569 48.6998C29.4214 48.5685 29.4313 48.4314 29.4489 48.2936C29.4557 48.2421 29.4773 48.1833 29.453 48.1329C29.4151 48.0546 29.301 48.0567 29.2172 48.0317C28.9512 47.9526 28.8385 47.7238 28.8218 47.5112C28.8042 47.282 28.8551 46.9846 29.1757 46.9087C29.3425 46.8692 29.5431 46.9167 29.6423 47.0353C29.6482 47.0415 29.6531 47.048 29.6577 47.0549Z" fill="#323231"/>
<path d="M14.9848 44.9806L13.3243 45.8884L12.7265 45.3875C12.7265 45.3875 10.0394 44.2149 11.9104 42.7727C12.639 42.2109 13.854 42.6857 13.7431 43.4927C13.7418 43.504 13.74 43.5156 13.7382 43.5268C13.7341 43.5548 13.781 43.5664 13.7963 43.541L14.1647 42.9356C14.2273 42.8326 14.3802 42.788 14.5105 42.8351C14.6295 42.8783 14.6917 42.9853 14.6561 43.0869L14.4149 43.7706C14.3612 43.9236 14.3838 44.0872 14.478 44.2269L14.9848 44.9806Z" fill="#FFBF66"/>
<path d="M28.4926 53.472C28.4926 53.472 21.4089 52.5681 18.7669 51.7854C18.257 51.6341 17.8242 51.3625 17.5054 51.0085L12.6575 45.6225L14.794 44.4945L19.9982 49.0538C20.1041 49.1467 20.2488 49.204 20.4048 49.2148L27.4173 49.7092L28.4926 53.472Z" fill="#F7960D"/>
</g>
<defs>
<filter id="filter0_d_164_2503" x="0" y="0" width="141" height="115" filterUnits="userSpaceOnUse" color-interpolation-filters="sRGB">
<feFlood flood-opacity="0" result="BackgroundImageFix"/>
<feColorMatrix in="SourceAlpha" type="matrix" values="0 0 0 0 0 0 0 0 0 0 0 0 0 0 0 0 0 0 127 0" result="hardAlpha"/>
<feOffset dy="4"/>
<feGaussianBlur stdDeviation="2"/>
<feComposite in2="hardAlpha" operator="out"/>
<feColorMatrix type="matrix" values="0 0 0 0 0 0 0 0 0 0 0 0 0 0 0 0 0 0 0.25 0"/>
<feBlend mode="normal" in2="BackgroundImageFix" result="effect1_dropShadow_164_2503"/>
<feBlend mode="normal" in="SourceGraphic" in2="effect1_dropShadow_164_2503" result="shape"/>
</filter>
<clipPath id="clip0_164_2503">
<rect width="133" height="107" fill="white" transform="translate(4)"/>
</clipPath>
</defs>
</svg>
