<svg xmlns="http://www.w3.org/2000/svg" enable-background="new 0 0 2000 2000" viewBox="-26.72 345.334 2053.44 1309.382"><polygon fill="#ffa30f" fill-rule="evenodd" points="155.1 1023.5 971.2 541.8 974.3 540.2 977.6 538.8 981.2 537.6 985 536.7 988.9 536 992.9 535.6 997 535.4 1001.2 535.5 1005.4 535.8 1009.6 536.3 1013.8 537 1017.9 538 1021.8 539.2 1025.7 540.6 1029.4 542.3 1032.9 544.2 1840.8 1021.1 1846.9 1025.3 1851.3 1030 1854.3 1034.8 1855.6 1039.8 1855.4 1044.7 1853.5 1049.4 1850 1053.7 1844.9 1057.5 1028.8 1539.2 1025.7 1540.8 1022.3 1542.2 1018.8 1543.4 1015 1544.3 1011.1 1544.9 1007.1 1545.4 1003 1545.6 998.8 1545.5 994.6 1545.2 990.4 1544.7 986.2 1544 982.1 1543 978.2 1541.8 974.3 1540.3 970.6 1538.7 967.1 1536.8 159.2 1059.9 153.1 1055.7 148.7 1051 145.7 1046.2 144.4 1041.2 144.6 1036.3 146.5 1031.6 150 1027.3" clip-rule="evenodd" class="colore5e8e5 svgShape"/><polygon fill="#f6dac9" fill-rule="evenodd" points="1814.4 1021.9 1814.4 984.2 1812.6 988.6 1809.3 992.8 1804.4 996.4 1027.4 1455 1024.5 1456.5 1021.3 1457.9 1017.9 1459 1014.3 1459.8 1010.6 1460.5 1006.8 1460.9 1002.8 1461 998.9 1461 994.9 1460.7 990.9 1460.2 986.9 1459.5 983 1458.6 979.2 1457.4 975.5 1456.1 972 1454.5 968.7 1452.7 199.5 998.7 193.7 994.6 189.5 990.2 186.7 985.6 185.4 980.9 185.4 1018.6 186.7 1023.3 189.5 1028 193.7 1032.4 199.5 1036.4 968.7 1490.4 972 1492.2 975.5 1493.8 979.2 1495.2 983 1496.3 986.9 1497.2 990.9 1498 994.9 1498.5 998.9 1498.7 1002.8 1498.8 1006.8 1498.6 1010.6 1498.2 1014.3 1497.5 1017.9 1496.7 1021.3 1495.6 1024.5 1494.3 1027.4 1492.7 1804.4 1034.1 1809.3 1030.5 1812.6 1026.4" clip-rule="evenodd" class="colorc9e3f6 svgShape"/><polygon fill="#fcece3" fill-rule="evenodd" points="195.6 964 972.6 505.4 975.5 503.8 978.7 502.5 982.1 501.4 985.7 500.6 989.4 499.9 993.2 499.5 997.2 499.3 1001.1 499.4 1005.1 499.7 1009.1 500.1 1013.1 500.9 1017 501.8 1020.8 502.9 1024.5 504.3 1028 505.9 1031.3 507.7 1800.5 961.7 1806.3 965.7 1810.5 970.2 1813.3 974.8 1814.6 979.5 1814.4 984.2 1812.6 988.6 1809.3 992.8 1804.4 996.4 1027.4 1455 1024.5 1456.5 1021.3 1457.9 1017.9 1459 1014.3 1459.8 1010.6 1460.5 1006.8 1460.9 1002.8 1461 998.9 1461 994.9 1460.7 990.9 1460.2 986.9 1459.5 983 1458.6 979.2 1457.4 975.5 1456.1 972 1454.5 968.7 1452.7 199.5 998.7 193.7 994.6 189.5 990.2 186.7 985.6 185.4 980.9 185.6 976.2 187.4 971.8 190.7 967.6" clip-rule="evenodd" class="colore3f3fc svgShape"/><path fill="#ffffff" fill-rule="evenodd" d="M233.1,983L233.1,983l-0.2-0.1l-0.2-0.2l-0.1-0.1l-0.1-0.1l-0.1-0.1l-0.1-0.1l-0.1-0.2l-0.1-0.1l0,0     l-0.1-0.1l-0.1-0.1l-0.1-0.2l0-0.1l-0.1-0.2l0-0.1l0-0.1l0,0c-0.1-0.2-0.1-0.5-0.1-0.7v-0.2c0-0.2,0-0.5,0.1-0.7l0,0l0-0.1l0-0.1     l0.1-0.2l0-0.1l0.1-0.2l0.1-0.1l0.1-0.1l0,0l0-0.1l0-0.1l0.1-0.1l0.1-0.1l0-0.1l0.1-0.1l0,0l0.1-0.1l0.2-0.2l0.1-0.1l0.1-0.1l0,0     l0.1,0l0.2-0.1l3.2-1.9c1.5-0.9,3.5-0.4,4.5,1.2c0.6,1.1,0.6,2.3,0,3.3l1.2,0.7c1.5,0.9,2.1,2.9,1.2,4.5     c-0.9,1.5-2.9,2.1-4.5,1.2L233.1,983L233.1,983z M256.5,971.1c-1.5,0.9-3.5,0.4-4.5-1.2c-0.9-1.5-0.4-3.5,1.2-4.5l5.6-3.3     c1.5-0.9,3.5-0.4,4.5,1.2c0.9,1.5,0.4,3.5-1.1,4.5L256.5,971.1L256.5,971.1z M279,957.9c-1.5,0.9-3.5,0.4-4.5-1.2     c-0.9-1.5-0.4-3.5,1.2-4.5l5.6-3.3c1.5-0.9,3.5-0.4,4.5,1.1c0.9,1.5,0.4,3.5-1.2,4.5L279,957.9L279,957.9z M301.4,944.6     c-1.5,0.9-3.5,0.4-4.5-1.1c-0.9-1.5-0.4-3.5,1.1-4.5l5.6-3.3c1.5-0.9,3.5-0.4,4.5,1.2c0.9,1.5,0.4,3.5-1.1,4.5L301.4,944.6     L301.4,944.6z M323.9,931.4c-1.5,0.9-3.5,0.4-4.5-1.2c-0.9-1.5-0.4-3.5,1.1-4.5l5.6-3.3c1.5-0.9,3.5-0.4,4.5,1.2     c0.9,1.5,0.4,3.5-1.2,4.5L323.9,931.4L323.9,931.4z M346.3,918.1c-1.5,0.9-3.5,0.4-4.5-1.2c-0.9-1.5-0.4-3.5,1.2-4.5l5.6-3.3     c1.5-0.9,3.5-0.4,4.5,1.1c0.9,1.5,0.4,3.5-1.2,4.5L346.3,918.1L346.3,918.1z M368.8,904.9c-1.5,0.9-3.5,0.4-4.5-1.1     c-0.9-1.5-0.4-3.5,1.2-4.5l5.6-3.3c1.5-0.9,3.5-0.4,4.5,1.2c0.9,1.5,0.4,3.5-1.1,4.5L368.8,904.9L368.8,904.9z M391.2,891.6     c-1.5,0.9-3.5,0.4-4.5-1.2c-0.9-1.5-0.4-3.5,1.1-4.5l5.6-3.3c1.5-0.9,3.5-0.4,4.5,1.2c0.9,1.5,0.4,3.5-1.1,4.5L391.2,891.6     L391.2,891.6z M413.6,878.4c-1.5,0.9-3.5,0.4-4.5-1.2c-0.9-1.5-0.4-3.5,1.2-4.5l5.6-3.3c1.5-0.9,3.5-0.4,4.5,1.1     c0.9,1.5,0.4,3.5-1.2,4.5L413.6,878.4L413.6,878.4z M436.1,865.1c-1.5,0.9-3.5,0.4-4.5-1.1c-0.9-1.5-0.4-3.5,1.2-4.5l5.6-3.3     c1.5-0.9,3.5-0.4,4.5,1.2c0.9,1.5,0.4,3.5-1.2,4.5L436.1,865.1L436.1,865.1z M458.5,851.9c-1.5,0.9-3.5,0.4-4.5-1.2     c-0.9-1.5-0.4-3.5,1.2-4.5l5.6-3.3c1.5-0.9,3.5-0.4,4.5,1.2c0.9,1.5,0.4,3.5-1.1,4.5L458.5,851.9L458.5,851.9z M481,838.6     c-1.5,0.9-3.5,0.4-4.5-1.2c-0.9-1.5-0.4-3.5,1.1-4.5l5.6-3.3c1.5-0.9,3.5-0.4,4.5,1.1c0.9,1.5,0.4,3.5-1.1,4.5L481,838.6     L481,838.6z M503.4,825.4c-1.5,0.9-3.5,0.4-4.5-1.1c-0.9-1.5-0.4-3.5,1.1-4.5l5.6-3.3c1.5-0.9,3.5-0.4,4.5,1.2     c0.9,1.5,0.4,3.5-1.1,4.5L503.4,825.4L503.4,825.4z M525.8,812.2c-1.5,0.9-3.5,0.4-4.5-1.2c-0.9-1.5-0.4-3.5,1.1-4.5l5.6-3.3     c1.5-0.9,3.5-0.4,4.5,1.2c0.9,1.5,0.4,3.5-1.2,4.5L525.8,812.2L525.8,812.2z M548.3,798.9c-1.5,0.9-3.5,0.4-4.5-1.2     c-0.9-1.5-0.4-3.5,1.2-4.5l5.6-3.3c1.5-0.9,3.5-0.4,4.5,1.1c0.9,1.5,0.4,3.5-1.2,4.5L548.3,798.9L548.3,798.9z M570.7,785.7     c-1.5,0.9-3.5,0.4-4.5-1.1c-0.9-1.5-0.4-3.5,1.2-4.5l5.6-3.3c1.5-0.9,3.5-0.4,4.5,1.2c0.9,1.5,0.4,3.5-1.2,4.5L570.7,785.7     L570.7,785.7z M593.2,772.4c-1.5,0.9-3.5,0.4-4.5-1.2c-0.9-1.5-0.4-3.5,1.2-4.5l5.6-3.3c1.5-0.9,3.5-0.4,4.5,1.2     c0.9,1.5,0.4,3.5-1.2,4.5L593.2,772.4L593.2,772.4z M615.6,759.2c-1.5,0.9-3.5,0.4-4.5-1.2c-0.9-1.5-0.4-3.5,1.2-4.5l5.6-3.3     c1.5-0.9,3.5-0.4,4.5,1.1c0.9,1.5,0.4,3.5-1.2,4.5L615.6,759.2L615.6,759.2z M638,745.9c-1.5,0.9-3.5,0.4-4.5-1.1     c-0.9-1.5-0.4-3.5,1.2-4.5l5.6-3.3c1.5-0.9,3.5-0.4,4.5,1.2c0.9,1.5,0.4,3.5-1.1,4.5L638,745.9L638,745.9z M660.5,732.7     c-1.5,0.9-3.5,0.4-4.5-1.2c-0.9-1.5-0.4-3.5,1.1-4.5l5.6-3.3c1.5-0.9,3.5-0.4,4.5,1.2c0.9,1.5,0.4,3.5-1.1,4.5L660.5,732.7     L660.5,732.7z M682.9,719.4c-1.5,0.9-3.5,0.4-4.5-1.2c-0.9-1.5-0.4-3.5,1.1-4.5l5.6-3.3c1.5-0.9,3.5-0.4,4.5,1.1     c0.9,1.5,0.4,3.5-1.1,4.5L682.9,719.4L682.9,719.4z M705.4,706.2c-1.5,0.9-3.5,0.4-4.5-1.1c-0.9-1.5-0.4-3.5,1.1-4.5l5.6-3.3     c1.5-0.9,3.5-0.4,4.5,1.2c0.9,1.5,0.4,3.5-1.2,4.5L705.4,706.2L705.4,706.2z M727.8,693c-1.5,0.9-3.5,0.4-4.5-1.2     c-0.9-1.5-0.4-3.5,1.2-4.5l5.6-3.3c1.5-0.9,3.5-0.4,4.5,1.2c0.9,1.5,0.4,3.5-1.2,4.5L727.8,693L727.8,693z M750.2,679.7     c-1.5,0.9-3.5,0.4-4.5-1.2c-0.9-1.5-0.4-3.5,1.2-4.5l5.6-3.3c1.5-0.9,3.5-0.4,4.5,1.1c0.9,1.5,0.4,3.5-1.2,4.5L750.2,679.7     L750.2,679.7z M772.7,666.5c-1.5,0.9-3.5,0.4-4.5-1.1c-0.9-1.5-0.4-3.5,1.2-4.5l5.6-3.3c1.5-0.9,3.5-0.4,4.5,1.2     c0.9,1.5,0.4,3.5-1.2,4.5L772.7,666.5L772.7,666.5z M795.1,653.2c-1.5,0.9-3.5,0.4-4.5-1.2c-0.9-1.5-0.4-3.5,1.2-4.5l5.6-3.3     c1.5-0.9,3.5-0.4,4.5,1.2c0.9,1.5,0.4,3.5-1.2,4.5L795.1,653.2L795.1,653.2z M817.6,640c-1.5,0.9-3.5,0.4-4.5-1.2     c-0.9-1.5-0.4-3.5,1.2-4.5l5.6-3.3c1.5-0.9,3.5-0.4,4.5,1.1c0.9,1.5,0.4,3.5-1.1,4.5L817.6,640L817.6,640z M840,626.7     c-1.5,0.9-3.5,0.4-4.5-1.1c-0.9-1.5-0.4-3.5,1.1-4.5l5.6-3.3c1.5-0.9,3.5-0.4,4.5,1.2c0.9,1.5,0.4,3.5-1.1,4.5L840,626.7     L840,626.7z M862.5,613.5c-1.5,0.9-3.5,0.4-4.5-1.2c-0.9-1.5-0.4-3.5,1.1-4.5l5.6-3.3c1.5-0.9,3.5-0.4,4.5,1.2s0.4,3.5-1.1,4.5     L862.5,613.5L862.5,613.5z M884.9,600.2c-1.5,0.9-3.5,0.4-4.5-1.2c-0.9-1.5-0.4-3.5,1.1-4.5l5.6-3.3c1.5-0.9,3.5-0.4,4.5,1.1     c0.9,1.5,0.4,3.5-1.2,4.5L884.9,600.2L884.9,600.2z M907.3,587c-1.5,0.9-3.5,0.4-4.5-1.2c-0.9-1.5-0.4-3.5,1.2-4.5l5.6-3.3     c1.5-0.9,3.5-0.4,4.5,1.1c0.9,1.5,0.4,3.5-1.2,4.5L907.3,587L907.3,587z M929.8,573.8c-1.5,0.9-3.5,0.4-4.5-1.1     c-0.9-1.5-0.4-3.5,1.2-4.5l5.6-3.3c1.5-0.9,3.5-0.4,4.5,1.2c0.9,1.5,0.4,3.5-1.2,4.5L929.8,573.8L929.8,573.8z M952.2,560.5     c-1.5,0.9-3.5,0.4-4.5-1.1c-0.9-1.5-0.4-3.5,1.2-4.5l5.6-3.3c1.5-0.9,3.5-0.4,4.5,1.2c0.9,1.5,0.4,3.5-1.2,4.5L952.2,560.5     L952.2,560.5z M974.7,547.3c-1.5,0.9-3.5,0.4-4.5-1.1c-0.9-1.5-0.4-3.5,1.2-4.5l5.6-3.3c1.5-0.9,3.5-0.4,4.5,1.2     c0.9,1.5,0.4,3.5-1.2,4.5L974.7,547.3L974.7,547.3z M996.4,536.6c-1.8,0.1-3.3-1.3-3.4-3.1c-0.1-1.8,1.3-3.3,3.1-3.4l1.5-0.1     l0.1,0h0l0.2,0l2.1,0l0.2,0l2.1,0.1l0.2,0l0.8,0.1c1.8,0.2,3.1,1.8,2.8,3.6c-0.2,1.8-1.8,3.1-3.6,2.8l-0.7-0.1l-1.9-0.1l-1.9,0     L996.4,536.6L996.4,536.6z M1002.1,530.1l-0.4,6.5L1002.1,530.1L1002.1,530.1L1002.1,530.1z M1019,543.5     c-1.5-0.9-2.1-2.9-1.2-4.5c0.9-1.5,2.9-2.1,4.5-1.2l5.6,3.3c1.5,0.9,2.1,2.9,1.1,4.5c-0.9,1.5-2.9,2.1-4.5,1.2L1019,543.5     L1019,543.5z M1041.4,556.8c-1.5-0.9-2.1-2.9-1.2-4.5c0.9-1.5,2.9-2.1,4.5-1.2l5.6,3.3c1.5,0.9,2.1,2.9,1.2,4.5     c-0.9,1.5-2.9,2.1-4.5,1.1L1041.4,556.8L1041.4,556.8z M1063.9,570c-1.5-0.9-2.1-2.9-1.1-4.5c0.9-1.5,2.9-2.1,4.5-1.1l5.6,3.3     c1.5,0.9,2.1,2.9,1.2,4.5c-0.9,1.5-2.9,2.1-4.5,1.2L1063.9,570L1063.9,570z M1086.3,583.3c-1.5-0.9-2.1-2.9-1.2-4.5     c0.9-1.5,2.9-2.1,4.5-1.2l5.6,3.3c1.5,0.9,2.1,2.9,1.2,4.5c-0.9,1.5-2.9,2.1-4.5,1.2L1086.3,583.3L1086.3,583.3z M1108.8,596.5     c-1.5-0.9-2.1-2.9-1.1-4.5c0.9-1.5,2.9-2.1,4.5-1.2l5.6,3.3c1.5,0.9,2.1,2.9,1.1,4.5c-0.9,1.5-2.9,2.1-4.5,1.1L1108.8,596.5     L1108.8,596.5z M1131.2,609.8c-1.5-0.9-2.1-2.9-1.2-4.5c0.9-1.5,2.9-2.1,4.5-1.1l5.6,3.3c1.5,0.9,2.1,2.9,1.2,4.5     c-0.9,1.5-2.9,2.1-4.5,1.2L1131.2,609.8L1131.2,609.8z M1153.7,623c-1.5-0.9-2.1-2.9-1.2-4.5c0.9-1.5,2.9-2.1,4.5-1.2l5.6,3.3     c1.5,0.9,2.1,2.9,1.2,4.5c-0.9,1.5-2.9,2.1-4.5,1.2L1153.7,623L1153.7,623z M1176.1,636.3c-1.5-0.9-2.1-2.9-1.1-4.5     c0.9-1.5,2.9-2.1,4.5-1.2l5.6,3.3c1.5,0.9,2.1,2.9,1.1,4.5c-0.9,1.5-2.9,2.1-4.5,1.1L1176.1,636.3L1176.1,636.3z M1198.5,649.5     c-1.5-0.9-2.1-2.9-1.1-4.5c0.9-1.5,2.9-2.1,4.5-1.1l5.6,3.3c1.5,0.9,2.1,2.9,1.2,4.5c-0.9,1.5-2.9,2.1-4.5,1.2L1198.5,649.5     L1198.5,649.5z M1221,662.8c-1.5-0.9-2.1-2.9-1.2-4.5c0.9-1.5,2.9-2.1,4.5-1.2l5.6,3.3c1.5,0.9,2.1,2.9,1.2,4.5     c-0.9,1.5-2.9,2.1-4.5,1.2L1221,662.8L1221,662.8z M1243.4,676c-1.5-0.9-2.1-2.9-1.2-4.5c0.9-1.5,2.9-2.1,4.5-1.2l5.6,3.3     c1.5,0.9,2.1,2.9,1.2,4.5c-0.9,1.5-2.9,2.1-4.5,1.2L1243.4,676L1243.4,676z M1265.9,689.3c-1.5-0.9-2.1-2.9-1.2-4.5     c0.9-1.5,2.9-2.1,4.5-1.2l5.6,3.3c1.5,0.9,2.1,2.9,1.2,4.5c-0.9,1.5-2.9,2.1-4.5,1.1L1265.9,689.3L1265.9,689.3z M1288.3,702.5     c-1.5-0.9-2.1-2.9-1.2-4.5c0.9-1.5,2.9-2.1,4.5-1.1l5.6,3.3c1.5,0.9,2.1,2.9,1.2,4.5c-0.9,1.5-2.9,2.1-4.5,1.2L1288.3,702.5     L1288.3,702.5z M1310.7,715.8c-1.5-0.9-2.1-2.9-1.2-4.5c0.9-1.5,2.9-2.1,4.5-1.2l5.6,3.3c1.5,0.9,2.1,2.9,1.1,4.5     c-0.9,1.5-2.9,2.1-4.5,1.2L1310.7,715.8L1310.7,715.8z M1333.2,729c-1.5-0.9-2.1-2.9-1.1-4.5c0.9-1.5,2.9-2.1,4.5-1.2l5.6,3.3     c1.5,0.9,2.1,2.9,1.1,4.5c-0.9,1.5-2.9,2.1-4.5,1.1L1333.2,729L1333.2,729z M1355.6,742.3c-1.5-0.9-2.1-2.9-1.1-4.5     c0.9-1.5,2.9-2.1,4.5-1.1l5.6,3.3c1.5,0.9,2.1,2.9,1.1,4.5c-0.9,1.5-2.9,2.1-4.5,1.2L1355.6,742.3L1355.6,742.3z M1378.1,755.5     c-1.5-0.9-2.1-2.9-1.1-4.5c0.9-1.5,2.9-2.1,4.5-1.2l5.6,3.3c1.5,0.9,2.1,2.9,1.2,4.5c-0.9,1.5-2.9,2.1-4.5,1.2L1378.1,755.5     L1378.1,755.5z M1400.5,768.7c-1.5-0.9-2.1-2.9-1.2-4.5c0.9-1.5,2.9-2.1,4.5-1.2l5.6,3.3c1.5,0.9,2.1,2.9,1.2,4.5     c-0.9,1.5-2.9,2.1-4.5,1.1L1400.5,768.7L1400.5,768.7z M1423,782c-1.5-0.9-2.1-2.9-1.2-4.5c0.9-1.5,2.9-2.1,4.5-1.1l5.6,3.3     c1.5,0.9,2.1,2.9,1.2,4.5c-0.9,1.5-2.9,2.1-4.5,1.2L1423,782L1423,782z M1445.4,795.2c-1.5-0.9-2.1-2.9-1.2-4.5     c0.9-1.5,2.9-2.1,4.5-1.2l5.6,3.3c1.5,0.9,2.1,2.9,1.2,4.5c-0.9,1.5-2.9,2.1-4.5,1.2L1445.4,795.2L1445.4,795.2z M1467.8,808.5     c-1.5-0.9-2.1-2.9-1.2-4.5c0.9-1.5,2.9-2.1,4.5-1.2l5.6,3.3c1.5,0.9,2.1,2.9,1.2,4.5c-0.9,1.5-2.9,2.1-4.5,1.1L1467.8,808.5     L1467.8,808.5z M1490.3,821.7c-1.5-0.9-2.1-2.9-1.2-4.5c0.9-1.5,2.9-2.1,4.5-1.1l5.6,3.3c1.5,0.9,2.1,2.9,1.1,4.5     c-0.9,1.5-2.9,2.1-4.5,1.2L1490.3,821.7L1490.3,821.7z M1512.7,835c-1.5-0.9-2.1-2.9-1.1-4.5c0.9-1.5,2.9-2.1,4.5-1.2l5.6,3.3     c1.5,0.9,2.1,2.9,1.1,4.5c-0.9,1.5-2.9,2.1-4.5,1.2L1512.7,835L1512.7,835z M1535.2,848.2c-1.5-0.9-2.1-2.9-1.1-4.5     c0.9-1.5,2.9-2.1,4.5-1.2l5.6,3.3c1.5,0.9,2.1,2.9,1.1,4.5c-0.9,1.5-2.9,2.1-4.5,1.1L1535.2,848.2L1535.2,848.2z M1557.6,861.5     c-1.5-0.9-2.1-2.9-1.1-4.5c0.9-1.5,2.9-2.1,4.5-1.1l5.6,3.3c1.5,0.9,2.1,2.9,1.1,4.5c-0.9,1.5-2.9,2.1-4.5,1.2L1557.6,861.5     L1557.6,861.5z M1580,874.7c-1.5-0.9-2.1-2.9-1.1-4.5c0.9-1.5,2.9-2.1,4.5-1.2l5.6,3.3c1.5,0.9,2.1,2.9,1.2,4.5     c-0.9,1.5-2.9,2.1-4.5,1.2L1580,874.7L1580,874.7z M1602.5,887.9c-1.5-0.9-2.1-2.9-1.2-4.5c0.9-1.5,2.9-2.1,4.5-1.2l5.6,3.3     c1.5,0.9,2.1,2.9,1.2,4.5c-0.9,1.5-2.9,2.1-4.5,1.1L1602.5,887.9L1602.5,887.9z M1624.9,901.2c-1.5-0.9-2.1-2.9-1.2-4.5     c0.9-1.5,2.9-2.1,4.5-1.1l5.6,3.3c1.5,0.9,2.1,2.9,1.2,4.5c-0.9,1.5-2.9,2.1-4.5,1.2L1624.9,901.2L1624.9,901.2z M1647.3,914.4     c-1.5-0.9-2.1-2.9-1.2-4.5c0.9-1.5,2.9-2.1,4.5-1.1l5.6,3.3c1.5,0.9,2.1,2.9,1.2,4.5c-0.9,1.5-2.9,2.1-4.5,1.2L1647.3,914.4     L1647.3,914.4z M1669.8,927.7c-1.5-0.9-2.1-2.9-1.2-4.5c0.9-1.5,2.9-2.1,4.5-1.2l5.6,3.3c1.5,0.9,2.1,2.9,1.2,4.5     c-0.9,1.5-2.9,2.1-4.5,1.2L1669.8,927.7L1669.8,927.7z M1692.2,940.9c-1.5-0.9-2.1-2.9-1.2-4.5c0.9-1.5,2.9-2.1,4.5-1.2l5.6,3.3     c1.5,0.9,2.1,2.9,1.1,4.5c-0.9,1.5-2.9,2.1-4.5,1.2L1692.2,940.9L1692.2,940.9z M1714.7,954.2c-1.5-0.9-2.1-2.9-1.1-4.5     c0.9-1.5,2.9-2.1,4.5-1.2l5.6,3.3c1.5,0.9,2.1,2.9,1.1,4.5c-0.9,1.5-2.9,2.1-4.5,1.1L1714.7,954.2L1714.7,954.2z M1737.1,967.4     c-1.5-0.9-2.1-2.9-1.1-4.5c0.9-1.5,2.9-2.1,4.5-1.2l5.6,3.3c1.5,0.9,2.1,2.9,1.1,4.5c-0.9,1.5-2.9,2.1-4.5,1.1L1737.1,967.4     L1737.1,967.4z M1759.6,980.6c-1.5-0.9-2.1-2.9-1.1-4.5c0.9-1.5,2.9-2.1,4.5-1.1l4,2.4c0.5,0.3,0.9,0.7,1.2,1.2     c0.9,1.5,0.4,3.5-1.2,4.5l-1.6,1c-1.5,0.9-3.5,0.4-4.5-1.2c-0.3-0.5-0.5-1.1-0.4-1.7L1759.6,980.6L1759.6,980.6z M1745.1,988.3     c1.5-0.9,3.5-0.4,4.5,1.2c0.9,1.5,0.4,3.5-1.2,4.5l-5.6,3.3c-1.5,0.9-3.5,0.4-4.5-1.1c-0.9-1.5-0.4-3.5,1.1-4.5L1745.1,988.3     L1745.1,988.3z M1722.6,1001.5c1.5-0.9,3.5-0.4,4.5,1.1c0.9,1.5,0.4,3.5-1.2,4.5l-5.6,3.3c-1.5,0.9-3.5,0.4-4.5-1.2     c-0.9-1.5-0.4-3.5,1.2-4.5L1722.6,1001.5L1722.6,1001.5z M1700.2,1014.8c1.5-0.9,3.5-0.4,4.5,1.1c0.9,1.5,0.4,3.5-1.1,4.5     l-5.6,3.3c-1.5,0.9-3.5,0.4-4.5-1.2c-0.9-1.5-0.4-3.5,1.2-4.5L1700.2,1014.8L1700.2,1014.8z M1677.7,1028     c1.5-0.9,3.5-0.4,4.5,1.2c0.9,1.5,0.4,3.5-1.2,4.5l-5.6,3.3c-1.5,0.9-3.5,0.4-4.5-1.1c-0.9-1.5-0.4-3.5,1.2-4.5L1677.7,1028     L1677.7,1028z M1655.3,1041.3c1.5-0.9,3.5-0.4,4.5,1.1c0.9,1.5,0.4,3.5-1.2,4.5l-5.6,3.3c-1.5,0.9-3.5,0.4-4.5-1.2     c-0.9-1.5-0.4-3.5,1.2-4.5L1655.3,1041.3L1655.3,1041.3z M1632.9,1054.5c1.5-0.9,3.5-0.4,4.5,1.1c0.9,1.5,0.4,3.5-1.1,4.5     l-5.6,3.3c-1.5,0.9-3.5,0.4-4.5-1.2c-0.9-1.5-0.4-3.5,1.1-4.5L1632.9,1054.5L1632.9,1054.5z M1610.4,1067.8     c1.5-0.9,3.5-0.4,4.5,1.2c0.9,1.5,0.4,3.5-1.2,4.5l-5.6,3.3c-1.5,0.9-3.5,0.4-4.5-1.1c-0.9-1.5-0.4-3.5,1.2-4.5L1610.4,1067.8     L1610.4,1067.8z M1588,1081c1.5-0.9,3.5-0.4,4.5,1.1c0.9,1.5,0.4,3.5-1.2,4.5l-5.6,3.3c-1.5,0.9-3.5,0.4-4.5-1.2     c-0.9-1.5-0.4-3.5,1.2-4.5L1588,1081L1588,1081z M1565.5,1094.3c1.5-0.9,3.5-0.4,4.5,1.2c0.9,1.5,0.4,3.5-1.1,4.5l-5.6,3.3     c-1.5,0.9-3.5,0.4-4.5-1.1c-0.9-1.5-0.4-3.5,1.1-4.5L1565.5,1094.3L1565.5,1094.3z M1543.1,1107.5c1.5-0.9,3.5-0.4,4.5,1.1     c0.9,1.5,0.4,3.5-1.2,4.5l-5.6,3.3c-1.5,0.9-3.5,0.4-4.5-1.2c-0.9-1.5-0.4-3.5,1.1-4.5L1543.1,1107.5L1543.1,1107.5z      M1520.6,1120.8c1.5-0.9,3.5-0.4,4.5,1.2c0.9,1.5,0.4,3.5-1.1,4.5l-5.6,3.3c-1.5,0.9-3.5,0.4-4.5-1.1c-0.9-1.5-0.4-3.5,1.1-4.5     L1520.6,1120.8L1520.6,1120.8z M1498.2,1134c1.5-0.9,3.5-0.4,4.5,1.2c0.9,1.5,0.4,3.5-1.1,4.5l-5.6,3.3c-1.5,0.9-3.5,0.4-4.5-1.1     c-0.9-1.5-0.4-3.5,1.1-4.5L1498.2,1134L1498.2,1134z M1475.8,1147.3c1.5-0.9,3.5-0.4,4.5,1.1c0.9,1.5,0.4,3.5-1.2,4.5l-5.6,3.3     c-1.5,0.9-3.5,0.4-4.5-1.2c-0.9-1.5-0.4-3.5,1.2-4.5L1475.8,1147.3L1475.8,1147.3z M1453.3,1160.5c1.5-0.9,3.5-0.4,4.5,1.2     c0.9,1.5,0.4,3.5-1.2,4.5l-5.6,3.3c-1.5,0.9-3.5,0.4-4.5-1.1c-0.9-1.5-0.4-3.5,1.2-4.5L1453.3,1160.5L1453.3,1160.5z      M1430.9,1173.8c1.5-0.9,3.5-0.4,4.5,1.2c0.9,1.5,0.4,3.5-1.2,4.5l-5.6,3.3c-1.5,0.9-3.5,0.4-4.5-1.1c-0.9-1.5-0.4-3.5,1.2-4.5     L1430.9,1173.8L1430.9,1173.8z M1408.4,1187c1.5-0.9,3.5-0.4,4.5,1.1c0.9,1.5,0.4,3.5-1.2,4.5l-5.6,3.3c-1.5,0.9-3.5,0.4-4.5-1.2     c-0.9-1.5-0.4-3.5,1.2-4.5L1408.4,1187L1408.4,1187z M1386,1200.2c1.5-0.9,3.5-0.4,4.5,1.2c0.9,1.5,0.4,3.5-1.2,4.5l-5.6,3.3     c-1.5,0.9-3.5,0.4-4.5-1.2c-0.9-1.5-0.4-3.5,1.2-4.5L1386,1200.2L1386,1200.2z M1363.6,1213.5c1.5-0.9,3.5-0.4,4.5,1.2     c0.9,1.5,0.4,3.5-1.1,4.5l-5.6,3.3c-1.5,0.9-3.5,0.4-4.5-1.1c-0.9-1.5-0.4-3.5,1.1-4.5L1363.6,1213.5L1363.6,1213.5z      M1341.1,1226.7c1.5-0.9,3.5-0.4,4.5,1.1c0.9,1.5,0.4,3.5-1.1,4.5l-5.6,3.3c-1.5,0.9-3.5,0.4-4.5-1.2c-0.9-1.5-0.4-3.5,1.1-4.5     L1341.1,1226.7L1341.1,1226.7z M1318.7,1240c1.5-0.9,3.5-0.4,4.5,1.2c0.9,1.5,0.4,3.5-1.1,4.5l-5.6,3.3c-1.5,0.9-3.5,0.4-4.5-1.2     c-0.9-1.5-0.4-3.5,1.1-4.5L1318.7,1240L1318.7,1240z M1296.2,1253.2c1.5-0.9,3.5-0.4,4.5,1.2c0.9,1.5,0.4,3.5-1.2,4.5l-5.6,3.3     c-1.5,0.9-3.5,0.4-4.5-1.1c-0.9-1.5-0.4-3.5,1.2-4.5L1296.2,1253.2L1296.2,1253.2z M1273.8,1266.5c1.5-0.9,3.5-0.4,4.5,1.1     c0.9,1.5,0.4,3.5-1.2,4.5l-5.6,3.3c-1.5,0.9-3.5,0.4-4.5-1.2c-0.9-1.5-0.4-3.5,1.2-4.5L1273.8,1266.5L1273.8,1266.5z      M1251.4,1279.7c1.5-0.9,3.5-0.4,4.5,1.2c0.9,1.5,0.4,3.5-1.2,4.5l-5.6,3.3c-1.5,0.9-3.5,0.4-4.5-1.2c-0.9-1.5-0.4-3.5,1.2-4.5     L1251.4,1279.7L1251.4,1279.7z M1228.9,1293c1.5-0.9,3.5-0.4,4.5,1.2c0.9,1.5,0.4,3.5-1.2,4.5l-5.6,3.3c-1.5,0.9-3.5,0.4-4.5-1.1     c-0.9-1.5-0.4-3.5,1.2-4.5L1228.9,1293L1228.9,1293z M1206.5,1306.2c1.5-0.9,3.5-0.4,4.5,1.1c0.9,1.5,0.4,3.5-1.2,4.5l-5.6,3.3     c-1.5,0.9-3.5,0.4-4.5-1.2c-0.9-1.5-0.4-3.5,1.2-4.5L1206.5,1306.2L1206.5,1306.2z M1184,1319.4c1.5-0.9,3.5-0.4,4.5,1.2     c0.9,1.5,0.4,3.5-1.1,4.5l-5.6,3.3c-1.5,0.9-3.5,0.4-4.5-1.2c-0.9-1.5-0.4-3.5,1.1-4.5L1184,1319.4L1184,1319.4z M1161.6,1332.7     c1.5-0.9,3.5-0.4,4.5,1.2c0.9,1.5,0.4,3.5-1.1,4.5l-5.6,3.3c-1.5,0.9-3.5,0.4-4.5-1.1c-0.9-1.5-0.4-3.5,1.1-4.5L1161.6,1332.7     L1161.6,1332.7z M1139.2,1345.9c1.5-0.9,3.5-0.4,4.5,1.1c0.9,1.5,0.4,3.5-1.1,4.5l-5.6,3.3c-1.5,0.9-3.5,0.4-4.5-1.2     c-0.9-1.5-0.4-3.5,1.2-4.5L1139.2,1345.9L1139.2,1345.9z M1116.7,1359.2c1.5-0.9,3.5-0.4,4.5,1.1c0.9,1.5,0.4,3.5-1.2,4.5     l-5.6,3.3c-1.5,0.9-3.5,0.4-4.5-1.2c-0.9-1.5-0.4-3.5,1.2-4.5L1116.7,1359.2L1116.7,1359.2z M1094.3,1372.4     c1.5-0.9,3.5-0.4,4.5,1.2c0.9,1.5,0.4,3.5-1.2,4.5l-5.6,3.3c-1.5,0.9-3.5,0.4-4.5-1.2c-0.9-1.5-0.4-3.5,1.2-4.5L1094.3,1372.4     L1094.3,1372.4z M1071.8,1385.7c1.5-0.9,3.5-0.4,4.5,1.2c0.9,1.5,0.4,3.5-1.2,4.5l-5.6,3.3c-1.5,0.9-3.5,0.4-4.5-1.2     c-0.9-1.5-0.4-3.5,1.2-4.5L1071.8,1385.7L1071.8,1385.7z M1049.4,1398.9c1.5-0.9,3.5-0.4,4.5,1.2c0.9,1.5,0.4,3.5-1.2,4.5     l-5.6,3.3c-1.5,0.9-3.5,0.4-4.5-1.1c-0.9-1.5-0.4-3.5,1.2-4.5L1049.4,1398.9L1049.4,1398.9z M1027,1412.1     c1.5-0.9,3.5-0.4,4.5,1.2c0.9,1.5,0.4,3.5-1.2,4.5l-5.6,3.3c-1.5,0.9-3.5,0.4-4.5-1.1c-0.9-1.5-0.4-3.5,1.1-4.5L1027,1412.1     L1027,1412.1z M1005.3,1423.7c1.8-0.2,3.4,1.1,3.6,2.9s-1.1,3.4-2.9,3.6l-1.5,0.2l-0.1,0l-0.1,0l-1.9,0.1l-0.1,0h0l-0.2,0l-2.1,0     l-0.2,0l-1-0.1c-1.8-0.1-3.2-1.7-3-3.5c0.1-1.8,1.7-3.2,3.5-3l0.9,0.1l1.9,0l1.7-0.1L1005.3,1423.7L1005.3,1423.7z M982.6,1417.8     c1.5,0.9,2.1,2.9,1.1,4.5c-0.9,1.5-2.9,2.1-4.5,1.2l-5.6-3.3c-1.5-0.9-2.1-2.9-1.1-4.5c0.9-1.5,2.9-2.1,4.5-1.1L982.6,1417.8     L982.6,1417.8z M960.2,1404.6c1.5,0.9,2.1,2.9,1.2,4.5c-0.9,1.5-2.9,2.1-4.5,1.1l-5.6-3.3c-1.5-0.9-2.1-2.9-1.2-4.5     c0.9-1.5,2.9-2.1,4.5-1.2L960.2,1404.6L960.2,1404.6z M937.7,1391.3c1.5,0.9,2.1,2.9,1.1,4.5c-0.9,1.5-2.9,2.1-4.5,1.2l-5.6-3.3     c-1.5-0.9-2.1-2.9-1.2-4.5c0.9-1.5,2.9-2.1,4.5-1.2L937.7,1391.3L937.7,1391.3z M915.3,1378.1c1.5,0.9,2.1,2.9,1.2,4.5     c-0.9,1.5-2.9,2.1-4.5,1.2l-5.6-3.3c-1.5-0.9-2.1-2.9-1.2-4.5c0.9-1.5,2.9-2.1,4.5-1.1L915.3,1378.1L915.3,1378.1z M892.8,1364.8     c1.5,0.9,2.1,2.9,1.1,4.5c-0.9,1.5-2.9,2.1-4.5,1.1l-5.6-3.3c-1.5-0.9-2.1-2.9-1.1-4.5c0.9-1.5,2.9-2.1,4.5-1.2L892.8,1364.8     L892.8,1364.8z M870.4,1351.6c1.5,0.9,2.1,2.9,1.1,4.5c-0.9,1.5-2.9,2.1-4.5,1.2l-5.6-3.3c-1.5-0.9-2.1-2.9-1.2-4.5     c0.9-1.5,2.9-2.1,4.5-1.2L870.4,1351.6L870.4,1351.6z M848,1338.3c1.5,0.9,2.1,2.9,1.2,4.5c-0.9,1.5-2.9,2.1-4.5,1.2l-5.6-3.3     c-1.5-0.9-2.1-2.9-1.2-4.5c0.9-1.5,2.9-2.1,4.5-1.1L848,1338.3L848,1338.3z M825.5,1325c1.5,0.9,2.1,2.9,1.2,4.5     c-0.9,1.5-2.9,2.1-4.5,1.1l-5.6-3.3c-1.5-0.9-2.1-2.9-1.1-4.5c0.9-1.5,2.9-2.1,4.5-1.2L825.5,1325L825.5,1325z M803.1,1311.8     c1.5,0.9,2.1,2.9,1.1,4.5c-0.9,1.5-2.9,2.1-4.5,1.2l-5.6-3.3c-1.5-0.9-2.1-2.9-1.1-4.5c0.9-1.5,2.9-2.1,4.5-1.2L803.1,1311.8     L803.1,1311.8z M780.6,1298.5c1.5,0.9,2.1,2.9,1.2,4.5c-0.9,1.5-2.9,2.1-4.5,1.2l-5.6-3.3c-1.5-0.9-2.1-2.9-1.2-4.5     c0.9-1.5,2.9-2.1,4.5-1.2L780.6,1298.5L780.6,1298.5z M758.2,1285.3c1.5,0.9,2.1,2.9,1.2,4.5c-0.9,1.5-2.9,2.1-4.5,1.2l-5.6-3.3     c-1.5-0.9-2.1-2.9-1.2-4.5c0.9-1.5,2.9-2.1,4.5-1.1L758.2,1285.3L758.2,1285.3z M735.7,1272.1c1.5,0.9,2.1,2.9,1.2,4.5     c-0.9,1.5-2.9,2.1-4.5,1.1l-5.6-3.3c-1.5-0.9-2.1-2.9-1.2-4.5c0.9-1.5,2.9-2.1,4.5-1.2L735.7,1272.1L735.7,1272.1z M713.3,1258.8     c1.5,0.9,2.1,2.9,1.2,4.5c-0.9,1.5-2.9,2.1-4.5,1.2l-5.6-3.3c-1.5-0.9-2.1-2.9-1.2-4.5c0.9-1.5,2.9-2.1,4.5-1.2L713.3,1258.8     L713.3,1258.8z M690.9,1245.6c1.5,0.9,2.1,2.9,1.2,4.5c-0.9,1.5-2.9,2.1-4.5,1.2l-5.6-3.3c-1.5-0.9-2.1-2.9-1.1-4.5     c0.9-1.5,2.9-2.1,4.5-1.1L690.9,1245.6L690.9,1245.6z M668.4,1232.3c1.5,0.9,2.1,2.9,1.1,4.5c-0.9,1.5-2.9,2.1-4.5,1.1l-5.6-3.3     c-1.5-0.9-2.1-2.9-1.1-4.5c0.9-1.5,2.9-2.1,4.5-1.2L668.4,1232.3L668.4,1232.3z M646,1219.1c1.5,0.9,2.1,2.9,1.1,4.5     c-0.9,1.5-2.9,2.1-4.5,1.2l-5.6-3.3c-1.5-0.9-2.1-2.9-1.1-4.5c0.9-1.5,2.9-2.1,4.5-1.2L646,1219.1L646,1219.1z M623.5,1205.8     c1.5,0.9,2.1,2.9,1.1,4.5c-0.9,1.5-2.9,2.1-4.5,1.2l-5.6-3.3c-1.5-0.9-2.1-2.9-1.2-4.5c0.9-1.5,2.9-2.1,4.5-1.1L623.5,1205.8     L623.5,1205.8z M601.1,1192.6c1.5,0.9,2.1,2.9,1.2,4.5c-0.9,1.5-2.9,2.1-4.5,1.1l-5.6-3.3c-1.5-0.9-2.1-2.9-1.2-4.5     c0.9-1.5,2.9-2.1,4.5-1.2L601.1,1192.6L601.1,1192.6z M578.7,1179.3c1.5,0.9,2.1,2.9,1.2,4.5c-0.9,1.5-2.9,2.1-4.5,1.2l-5.6-3.3     c-1.5-0.9-2.1-2.9-1.2-4.5c0.9-1.5,2.9-2.1,4.5-1.2L578.7,1179.3L578.7,1179.3z M556.2,1166.1c1.5,0.9,2.1,2.9,1.2,4.5     c-0.9,1.5-2.9,2.1-4.5,1.2l-5.6-3.3c-1.5-0.9-2.1-2.9-1.2-4.5c0.9-1.5,2.9-2.1,4.5-1.1L556.2,1166.1L556.2,1166.1z M533.8,1152.9     c1.5,0.9,2.1,2.9,1.2,4.5c-0.9,1.5-2.9,2.1-4.5,1.1l-5.6-3.3c-1.5-0.9-2.1-2.9-1.2-4.5c0.9-1.5,2.9-2.1,4.5-1.2L533.8,1152.9     L533.8,1152.9z M511.3,1139.6c1.5,0.9,2.1,2.9,1.2,4.5c-0.9,1.5-2.9,2.1-4.5,1.2l-5.6-3.3c-1.5-0.9-2.1-2.9-1.1-4.5     c0.9-1.5,2.9-2.1,4.5-1.2L511.3,1139.6L511.3,1139.6z M488.9,1126.4c1.5,0.9,2.1,2.9,1.1,4.5c-0.9,1.5-2.9,2.1-4.5,1.2l-5.6-3.3     c-1.5-0.9-2.1-2.9-1.1-4.5c0.9-1.5,2.9-2.1,4.5-1.1L488.9,1126.4L488.9,1126.4z M466.5,1113.1c1.5,0.9,2.1,2.9,1.1,4.5     c-0.9,1.5-2.9,2.1-4.5,1.1l-5.6-3.3c-1.5-0.9-2.1-2.9-1.1-4.5c0.9-1.5,2.9-2.1,4.5-1.2L466.5,1113.1L466.5,1113.1z M444,1099.9     c1.5,0.9,2.1,2.9,1.2,4.5c-0.9,1.5-2.9,2.1-4.5,1.2l-5.6-3.3c-1.5-0.9-2.1-2.9-1.2-4.5c0.9-1.5,2.9-2.1,4.5-1.2L444,1099.9     L444,1099.9z M421.6,1086.6c1.5,0.9,2.1,2.9,1.2,4.5c-0.9,1.5-2.9,2.1-4.5,1.2l-5.6-3.3c-1.5-0.9-2.1-2.9-1.2-4.5     c0.9-1.5,2.9-2.1,4.5-1.1L421.6,1086.6L421.6,1086.6z M399.1,1073.4c1.5,0.9,2.1,2.9,1.2,4.5c-0.9,1.5-2.9,2.1-4.5,1.1l-5.6-3.3     c-1.5-0.9-2.1-2.9-1.2-4.5c0.9-1.5,2.9-2.1,4.5-1.2L399.1,1073.4L399.1,1073.4z M376.7,1060.1c1.5,0.9,2.1,2.9,1.2,4.5     c-0.9,1.5-2.9,2.1-4.5,1.2l-5.6-3.3c-1.5-0.9-2.1-2.9-1.2-4.5c0.9-1.5,2.9-2.1,4.5-1.2L376.7,1060.1L376.7,1060.1z M354.3,1046.9     c1.5,0.9,2.1,2.9,1.2,4.5c-0.9,1.5-2.9,2.1-4.5,1.2l-5.6-3.3c-1.5-0.9-2.1-2.9-1.2-4.5c0.9-1.5,2.9-2.1,4.5-1.2L354.3,1046.9     L354.3,1046.9z M331.8,1033.7c1.5,0.9,2.1,2.9,1.1,4.5c-0.9,1.5-2.9,2.1-4.5,1.2l-5.6-3.3c-1.5-0.9-2.1-2.9-1.1-4.5     c0.9-1.5,2.9-2.1,4.5-1.1L331.8,1033.7L331.8,1033.7z M309.4,1020.4c1.5,0.9,2.1,2.9,1.1,4.5c-0.9,1.5-2.9,2.1-4.5,1.2l-5.6-3.3     c-1.5-0.9-2.1-2.9-1.1-4.5c0.9-1.5,2.9-2.1,4.5-1.1L309.4,1020.4L309.4,1020.4z M286.9,1007.2c1.5,0.9,2.1,2.9,1.1,4.5     c-0.9,1.5-2.9,2.1-4.5,1.1l-5.6-3.3c-1.5-0.9-2.1-2.9-1.1-4.5c0.9-1.5,2.9-2.1,4.5-1.2L286.9,1007.2L286.9,1007.2z M264.5,993.9     c1.5,0.9,2.1,2.9,1.2,4.5c-0.9,1.5-2.9,2.1-4.5,1.1l-5.6-3.3c-1.5-0.9-2.1-2.9-1.2-4.5c0.9-1.5,2.9-2.1,4.5-1.2L264.5,993.9z" clip-rule="evenodd" class="colorfff svgShape"/><polygon fill="#f2cdb7" fill-rule="evenodd" points="1804.4 996.4 1027.4 1455 1024.5 1456.5 1021.3 1457.9 1017.9 1459 1014.3 1459.8 1010.6 1460.5 1006.8 1460.9 1002.8 1461 1000 1461 1000 1498.7 1002.8 1498.8 1006.8 1498.6 1010.6 1498.2 1014.3 1497.5 1017.9 1496.7 1021.3 1495.6 1024.5 1494.3 1027.4 1492.7 1804.4 1034.1 1809.3 1030.5 1812.6 1026.4 1814.4 1021.9 1814.4 984.2 1812.6 988.6 1809.3 992.8" clip-rule="evenodd" class="colorb7d9f2 svgShape"/><path fill="#f6dac9" fill-rule="evenodd" d="M446.4 1080.8c-8.8 0-16.8-1.1-23.4-3.4-30.7-10.7-21.5-43.3 20.4-72.8 32.9-23.1 76.2-37.5 108.1-37.5 8.8 0 16.8 1.1 23.5 3.4 30.7 10.6 21.5 43.2-20.4 72.8C521.7 1066.4 478.4 1080.8 446.4 1080.8zM961.4 1334.4c-20.9 0-41.8-4.6-57.7-13.8-31.9-18.4-31.9-48.2 0-66.7 15.9-9.2 36.8-13.8 57.7-13.8 20.9 0 41.8 4.6 57.7 13.8 31.9 18.4 31.9 48.3 0 66.7C1003.2 1329.8 982.3 1334.4 961.4 1334.4zM678.9 945.4c-15.4 0-30.8-3.4-42.5-10.2-23.5-13.5-23.5-35.5 0-49.1 11.7-6.8 27.1-10.2 42.5-10.2 15.4 0 30.8 3.4 42.5 10.2 23.5 13.6 23.5 35.5 0 49.1C709.7 942 694.3 945.4 678.9 945.4z" clip-rule="evenodd" class="colorc9e3f6 svgShape"/><polygon fill="#d8a180" fill-rule="evenodd" points="1616.1 873 1623 981.1 1699 981.1 1705.9 873" clip-rule="evenodd" class="color80a8d8 svgShape"/><path fill="#d8a180" fill-rule="evenodd" d="M1699,981.1c0,11.8-17,21.4-38,21.4c-21,0-38-9.6-38-21.4c0-11.8,17-21.4,38-21.4    C1682,959.7,1699,969.3,1699,981.1z" clip-rule="evenodd" class="color80a8d8 svgShape"/><path fill="#e9bba0" fill-rule="evenodd" d="M1705.9,873c0,13.9-20.1,25.3-44.9,25.3s-44.9-11.3-44.9-25.3c0-13.9,20.1-25.3,44.9-25.3    S1705.9,859.1,1705.9,873z" clip-rule="evenodd" class="colora0c6e9 svgShape"/><path fill="#d8a180" fill-rule="evenodd" d="M1699,872c0,11.8-17,21.4-38,21.4c-21,0-38-9.6-38-21.4c0-11.8,17-21.4,38-21.4    C1682,850.6,1699,860.2,1699,872z" clip-rule="evenodd" class="color80a8d8 svgShape"/><path fill="#e9bba0" fill-rule="evenodd" d="M1690,800.5c0,0-8.4,53.9-9.1,65.6c-0.7,11.7,0,16.6,0,16.6l2-0.8c0,0,1.9-32.5,3.7-45.1    c1.8-12.6,5.1-36.4,5.1-36.4H1690z" clip-rule="evenodd" class="colora0c6e9 svgShape"/><path fill="#d39a78" fill-rule="evenodd" d="M1599.4 783.1c7.2 11.4 20.8 29 30.2 41.8 9.3 12.8 17.7 67.1 17.7 67.1s5.6 1.3 7.9 1.2c-.7-6.9-5.1-44.6-12.1-62.3C1636.1 813.2 1609.4 790.7 1599.4 783.1zM1701.7 714.2c0 0-21.5 51.3-29.7 88.6-8.2 37.3-7.2 90.5-7.2 90.5s8.4-.5 9.3-1.1c.9-.6 7.8-64.1 13.4-94.8C1693.1 766.6 1701.7 714.2 1701.7 714.2z" clip-rule="evenodd" class="color789fd3 svgShape"/><path fill="#e1ad8e" fill-rule="evenodd" d="M1598.1 731.8c0 0 11.3 61.7 15.9 86.7 4.6 25 17.8 67.2 17.8 67.2s3.2 2.4 8.4 4.2c-.5-19-8.5-55-15.3-87.9C1618 769.1 1598.1 731.8 1598.1 731.8zM1630.9 702.7c0 0 10.3 81.2 14.7 104.3 4.4 23.1 12.8 86.3 12.8 86.3s6.1 0 11.6-.5c2.3-20.2-6.1-70.1-11.9-98.3C1652.4 766.3 1630.9 702.7 1630.9 702.7z" clip-rule="evenodd" class="color8eb6e1 svgShape"/><path fill="#e9bba0" fill-rule="evenodd" d="M1653.2 723.8c0 0 9.6 73.9 10.4 102.2.8 28.4 1.1 67.2 1.1 67.2l2.8-.2c0 0-.4-55.8-2.8-92.6-2.4-36.8-8.6-75.8-8.6-75.8L1653.2 723.8zM1625.2 757.6c0 0 16.8 73.4 18.9 90.2 2.1 16.8 4.9 44.5 4.9 44.5l2.9.5c0 0-3.4-33.1-6.2-52.5-2.8-19.5-17.6-83.4-17.6-83.4L1625.2 757.6zM1687.4 738c0 0-12.6 63.2-15.7 98.9-3.1 35.7 0 55.9 0 55.9l2.3-.7c0 0-.5-42.2.8-56.9 2.4-26.6 14.8-97.9 14.8-97.9L1687.4 738zM1651.3 808.5c0 0 3.7 18.2 4.8 30.4 1.2 12.1 3.2 54.5 3.2 54.5l2.2 0c0 0-1.3-38.2-3.2-55.6-1.8-15.9-5.7-31.1-5.7-31.1L1651.3 808.5z" clip-rule="evenodd" class="colora0c6e9 svgShape"/><path fill="#f2cdb7" fill-rule="evenodd" d="M1721.9,717.3c0,0-8.2,7.5-14.2,12.2c-6,4.7-13,7.3-13,7.3s6.1,4.7,9,11.5c2.9,6.8,3.9,16,3.9,16    s-8.9-7.4-12.3-11.2c-3.5-3.8-4.4-13-4.4-13s-6.6,9.2-12.6,12.4c-6.1,3.2-14.6,8.5-14.6,8.5c0,0,3.1-11.9,7.7-16.1    c4.6-4.1,15.7-9.9,15.7-9.9s-5.3-1.1-10.2-10c-4.9-8.9-4.8-18-4.8-18s8.3,7.6,12.6,12.9c4.3,5.3,6.2,10.2,6.2,10.2    s6.9-7.2,13.8-10.6C1711.5,716,1721.9,717.3,1721.9,717.3z" clip-rule="evenodd" class="colorb7d9f2 svgShape"/><path fill="#f6dac9" fill-rule="evenodd" d="M1728.7,725.3c0,0-11.3,9.7-20.3,11.7c-9,2-12.2,2.1-12.2,2.1c0,0,2.4,6.6,2.1,15.1    c-0.3,8.5-5.8,16.9-5.8,16.9s-4.1-18.2-4.7-22.7c-0.6-4.5,0-9.5,0-9.5s-7.9,6.9-15.2,10.4c-7.3,3.5-12.3,6.1-12.3,6.1    s3.7-11.9,10.6-16.9c6.9-5,12.8-6.2,12.8-6.2s-1.9-12.3-0.9-18.1c1-5.8,4.1-11.8,4.1-11.8s3.5,10.3,4.7,16.5    c1.2,6.2,0.3,13.8,0.3,13.8C1692.1,732.8,1712.3,723.6,1728.7,725.3z" clip-rule="evenodd" class="colorc9e3f6 svgShape"/><path fill="#ffffff" fill-rule="evenodd" d="M1692.2,736c0,0,3.7-1,6.6-0.5c2.9,0.5,1.7,2.6-0.4,2.8c-2.1,0.2-4.6-0.2-4.6-0.2s2.4,4.1,2,6.6    c-0.3,2.5-2.4,3-2.7,1.4c-0.2-1.6-1.5-7-1.5-7c0,0-1,3.7-3.5,4.8c-2.5,1.1-2.8-0.9-1.9-2.2c0.9-1.3,3.5-4.4,3.5-4.4    s-3.4,1.6-5.5,0.7c-2.1-0.9-1.3-2.8,0-2.9c1.4-0.2,6,0.2,6,0.2c0,0-1.9-2.7-1.8-5c0.1-2.3,0.6-2.8,2.4-0.5    C1692.2,731.4,1692.2,736,1692.2,736z" clip-rule="evenodd" class="colorfff svgShape"/><path fill="#f2cdb7" fill-rule="evenodd" d="M1618.1,721.9c0,0-0.3,11.2,0,18.7c0.3,7.6,2.9,14.6,2.9,14.6s-7.5-1.5-14.6,0.7c-7,2.2-14.7,7.4-14.7,7.4    s11.4,1.9,16.6,2.1c5.2,0.2,12.7-5.2,12.7-5.2s-2.7,11-1.2,17.7c1.5,6.7,3.1,16.6,3.1,16.6c0,0,7-10.1,7.2-16.3    c0.2-6.2-2.7-18.4-2.7-18.4s4.3,3.3,14.3,1.2c10-2.1,16.8-8.1,16.8-8.1c0,0-11.2-1.4-18-1.2c-6.9,0.2-11.8,1.9-11.8,1.9    s1-10-0.9-17.3C1625.8,728.9,1618.1,721.9,1618.1,721.9z" clip-rule="evenodd" class="colorb7d9f2 svgShape"/><path fill="#f6dac9" fill-rule="evenodd" d="M1607.5,721.9c0,0,0,14.9,4.3,23c4.3,8.2,6.3,10.6,6.3,10.6s-6.6,2.4-12.9,8.2c-6.3,5.8-9.1,15.4-9.1,15.4    c0,0,16.5-8.7,20.3-11.2c3.8-2.5,7.2-6.2,7.2-6.2c0,0-0.1,10.5,2,18.3c2.1,7.8,3.4,13.3,3.4,13.3s6.6-10.6,5.9-19    c-0.7-8.5-3.6-13.7-3.6-13.7c0,0,10.5-6.5,14.3-11.1c3.8-4.6,6.3-10.8,6.3-10.8s-10.1,4-15.6,7.1c-5.5,3.2-10.7,8.7-10.7,8.7    S1619.5,733.2,1607.5,721.9z" clip-rule="evenodd" class="colorc9e3f6 svgShape"/><path fill="#ffffff" fill-rule="evenodd" d="M1623.2,756.6c0,0-1.7-3.4-3.9-5.3c-2.2-1.9-3.1,0.4-1.8,2.1c1.2,1.7,3.2,3.4,3.2,3.4s-4.6,0.9-6.4,2.7    c-1.7,1.9-0.7,3.8,0.7,2.9c1.4-0.9,6.3-3.4,6.3-3.4c0,0-2.1,3.2-1.4,5.8c0.8,2.6,2.5,1.5,2.9,0c0.4-1.5,1-5.5,1-5.5s1,3.6,3.1,4.6    c2.1,1,3-0.8,2.2-1.9c-0.8-1.2-4.1-4.5-4.1-4.5c0,0,3.2-0.3,5-1.8c1.7-1.5,1.7-2.2-1.2-2.2    C1626.7,753.6,1623.2,756.6,1623.2,756.6z" clip-rule="evenodd" class="colorfff svgShape"/><path fill="#f2cdb7" fill-rule="evenodd" d="M1659,686.4c0,0,0.3,11.2,0,18.7c-0.3,7.6-2.9,14.6-2.9,14.6c0,0,7.6-1.5,14.6,0.7c7,2.2,14.7,7.4,14.7,7.4    s-11.4,1.9-16.6,2.1c-5.2,0.2-12.7-5.2-12.7-5.2c0,0,2.7,11,1.2,17.7c-1.5,6.7-3.1,16.6-3.1,16.6s-7-10.1-7.2-16.3    c-0.2-6.2,2.7-18.4,2.7-18.4s-4.3,3.3-14.3,1.2c-10-2.1-16.8-8.1-16.8-8.1c0,0,11.2-1.4,18-1.2c6.9,0.2,11.8,1.9,11.8,1.9    s-1-10,0.9-17.3C1651.3,693.4,1659,686.4,1659,686.4z" clip-rule="evenodd" class="colorb7d9f2 svgShape"/><path fill="#f6dac9" fill-rule="evenodd" d="M1669.6,686.4c0,0,0,14.9-4.3,23c-4.3,8.2-6.3,10.6-6.3,10.6s6.6,2.4,12.9,8.2c6.3,5.8,9.1,15.4,9.1,15.4    s-16.5-8.7-20.3-11.2c-3.8-2.5-7.2-6.2-7.2-6.2s0.1,10.5-2,18.3c-2.1,7.8-3.4,13.3-3.4,13.3s-6.6-10.6-5.9-19    c0.7-8.5,3.6-13.7,3.6-13.7s-10.5-6.5-14.3-11.1c-3.8-4.6-6.3-10.8-6.3-10.8c0,0,10.1,4,15.6,7.1c5.5,3.2,10.7,8.7,10.7,8.7    C1651.4,719.1,1657.6,697.7,1669.6,686.4z" clip-rule="evenodd" class="colorc9e3f6 svgShape"/><path fill="#ffffff" fill-rule="evenodd" d="M1653.9,721.1c0,0,1.7-3.4,3.9-5.3c2.2-1.9,3.1,0.4,1.8,2.1c-1.2,1.7-3.2,3.4-3.2,3.4s4.6,0.9,6.4,2.7    c1.7,1.9,0.7,3.8-0.7,2.9c-1.4-0.9-6.3-3.4-6.3-3.4s2.1,3.2,1.4,5.8c-0.8,2.6-2.5,1.5-2.9,0c-0.4-1.5-1-5.5-1-5.5    c0,0-1,3.6-3.1,4.6c-2.1,1-3-0.8-2.2-1.9c0.8-1.2,4.1-4.5,4.1-4.5c0,0-3.2-0.3-5-1.8c-1.7-1.5-1.7-2.2,1.2-2.2    C1650.4,718.1,1653.9,721.1,1653.9,721.1z" clip-rule="evenodd" class="colorfff svgShape"/><path fill="#f2cdb7" fill-rule="evenodd" d="M1621.7,783.9c0,0,8.2,7.5,14.2,12.2c6,4.7,13,7.3,13,7.3s-6.1,4.7-9,11.5c-2.9,6.8-3.9,16-3.9,16    c0,0,8.9-7.4,12.3-11.2c3.5-3.8,4.4-13,4.4-13c0,0,6.6,9.2,12.6,12.4c6.1,3.2,14.6,8.5,14.6,8.5s-3.1-11.9-7.7-16.1    c-4.6-4.1-15.7-9.9-15.7-9.9s5.3-1.1,10.2-10c4.9-8.9,4.8-18,4.8-18c0,0-8.3,7.6-12.6,12.9c-4.3,5.3-6.2,10.2-6.2,10.2    s-6.9-7.2-13.8-10.6C1632.1,782.6,1621.7,783.9,1621.7,783.9z" clip-rule="evenodd" class="colorb7d9f2 svgShape"/><path fill="#f6dac9" fill-rule="evenodd" d="M1614.9,791.9c0,0,11.3,9.7,20.3,11.7c9,2,12.2,2.1,12.2,2.1s-2.4,6.6-2.1,15.1c0.3,8.5,5.8,16.9,5.8,16.9    s4.1-18.2,4.7-22.7c0.6-4.5,0-9.5,0-9.5s7.9,6.9,15.2,10.4c7.3,3.5,12.3,6.1,12.3,6.1s-3.7-11.9-10.6-16.9    c-6.9-5-12.8-6.2-12.8-6.2s1.9-12.3,0.9-18.1c-1-5.8-4.1-11.8-4.1-11.8s-3.5,10.3-4.7,16.5c-1.2,6.2-0.3,13.8-0.3,13.8    S1631.2,790.2,1614.9,791.9z" clip-rule="evenodd" class="colorc9e3f6 svgShape"/><path fill="#ffffff" fill-rule="evenodd" d="M1651.4,802.5c0,0-3.7-1-6.6-0.5c-2.9,0.5-1.7,2.6,0.4,2.8c2.1,0.2,4.6-0.2,4.6-0.2c0,0-2.4,4.1-2,6.6    c0.3,2.5,2.4,3,2.7,1.4c0.2-1.6,1.5-7,1.5-7s1,3.7,3.5,4.8c2.5,1.1,2.8-0.9,1.9-2.2c-0.9-1.3-3.5-4.4-3.5-4.4s3.4,1.6,5.5,0.7    c2.1-0.9,1.3-2.8,0-2.9c-1.4-0.2-6,0.2-6,0.2s1.9-2.6,1.8-5c-0.1-2.3-0.6-2.8-2.4-0.5C1651.4,798,1651.4,802.5,1651.4,802.5z" clip-rule="evenodd" class="colorfff svgShape"/><path fill="#f2cdb7" fill-rule="evenodd" d="M1699.7,760.4c0,0,0.3,11.2,0,18.7c-0.3,7.6-2.9,14.6-2.9,14.6s7.6-1.5,14.6,0.7c7,2.2,14.7,7.4,14.7,7.4    s-11.4,1.9-16.6,2.1c-5.1,0.2-12.7-5.2-12.7-5.2s2.7,11,1.2,17.7c-1.5,6.7-3.1,16.6-3.1,16.6s-7-10.1-7.2-16.3    c-0.2-6.2,2.7-18.4,2.7-18.4s-4.3,3.3-14.2,1.2c-10-2.1-16.8-8.1-16.8-8.1s11.2-1.4,18-1.2c6.9,0.2,11.8,1.9,11.8,1.9    s-1-10,0.9-17.3C1692,767.4,1699.7,760.4,1699.7,760.4z" clip-rule="evenodd" class="colorb7d9f2 svgShape"/><path fill="#f6dac9" fill-rule="evenodd" d="M1710.3,760.4c0,0,0,14.9-4.3,23c-4.3,8.2-6.3,10.6-6.3,10.6s6.6,2.4,12.9,8.2c6.3,5.8,9.1,15.4,9.1,15.4    s-16.5-8.7-20.3-11.2c-3.8-2.5-7.2-6.2-7.2-6.2s0.1,10.5-2,18.3c-2.1,7.8-3.4,13.3-3.4,13.3s-6.6-10.6-5.9-19    c0.7-8.5,3.6-13.7,3.6-13.7c0,0-10.5-6.6-14.3-11.1c-3.8-4.6-6.3-10.8-6.3-10.8s10.1,4,15.6,7.1c5.5,3.2,10.7,8.7,10.7,8.7    C1692.1,793.1,1698.3,771.7,1710.3,760.4z" clip-rule="evenodd" class="colorc9e3f6 svgShape"/><path fill="#ffffff" fill-rule="evenodd" d="M1694.6,795.1c0,0,1.7-3.4,3.9-5.3c2.2-1.9,3.1,0.4,1.8,2.1c-1.2,1.7-3.2,3.4-3.2,3.4s4.6,0.9,6.4,2.7    c1.7,1.9,0.7,3.8-0.7,2.9c-1.4-0.9-6.3-3.4-6.3-3.4s2.1,3.2,1.4,5.8c-0.8,2.6-2.5,1.5-2.9,0c-0.4-1.5-1-5.5-1-5.5s-1,3.6-3.1,4.6    c-2.1,1-3-0.8-2.2-1.9c0.8-1.2,4-4.5,4-4.5c0,0-3.2-0.3-4.9-1.8c-1.7-1.5-1.7-2.2,1.2-2.2C1691.1,792.1,1694.6,795.1,1694.6,795.1    z" clip-rule="evenodd" class="colorfff svgShape"/><path fill="#e1ad8e" fill-rule="evenodd" d="M1724.6,764.7c0,0-31.1,49.8-38.3,71c-7.2,21.2-9,55.6-9,55.6s5.9-1.7,8.5-3.1c2.9-17.7,9.7-44.2,15.2-56.7    C1706.4,819,1724.6,776.4,1724.6,764.7z" clip-rule="evenodd" class="color8eb6e1 svgShape"/><path fill="#d39a78" fill-rule="evenodd" d="M1591.7 798.1c0 0 17.3 31.3 24.4 44.9 7.1 13.6 20.7 45.5 20.7 45.5s3.3 1.4 7.9 2.8c-2.1-14.7-10.2-32-19.6-51.1C1615.9 821.2 1591.7 798.1 1591.7 798.1zM1731.9 798.9c0 0-31.9 34.2-38.2 47.1-6.3 12.9-9.5 43-9.5 43s6.9-3.6 8.6-5.2c1.8-6.4 5.3-29.7 8.9-35.9C1705.3 841.5 1726.2 816.9 1731.9 798.9z" clip-rule="evenodd" class="color789fd3 svgShape"/><path fill="#d8a180" fill-rule="evenodd" d="M1264.4,461.9l12.1-7c1.3-0.7,2.9-0.6,4.7,0.4l272.6,157.4c4.1,2.4,7.4,8.7,7.4,14.1V1052c0,3-1,5.1-2.6,6    l0,0l-12.1,7l-0.8-12.1l-264.5-152.7c-4.1-2.4-7.4-8.7-7.4-14.1V469.9l-1.9,2.2L1264.4,461.9z" clip-rule="evenodd" class="color80a8d8 svgShape"/><path fill="#ffffff" fill-rule="evenodd" d="M1269.3,907.2l272.6,157.4c4.1,2.4,7.4-0.1,7.4-5.6V633.8c0-5.4-3.3-11.7-7.4-14.1l-272.6-157.4    c-4.1-2.4-7.4,0.1-7.4,5.6v425.2C1261.9,898.5,1265.2,904.8,1269.3,907.2z" clip-rule="evenodd" class="colorfff svgShape"/><path fill="#f2cdb7" fill-rule="evenodd" d="M1543.4,1064.4c1.8,0,2.4-2.4,2.4-4.5V634.8c0-4.7-2.9-10.4-6.4-12.4L1266.9,465c-0.7-0.4-1.4-0.6-1.9-0.6    c-1.8,0-2.4,2.4-2.4,4.5v425.2c0,4.7,2.9,10.4,6.4,12.4l272.6,157.4C1542.2,1064.2,1542.9,1064.4,1543.4,1064.4z" clip-rule="evenodd" class="colorb7d9f2 svgShape"/><polygon fill="#d8a180" fill-rule="evenodd" points="1284.8 889.2 1535 1033.8 1535 644.9 1284.8 500.4" clip-rule="evenodd" class="color80a8d8 svgShape"/><polygon fill="#e1ad8e" fill-rule="evenodd" points="1280.4 882.6 1530.7 1027.1 1530.7 643.6 1280.4 499.1" clip-rule="evenodd" class="color8eb6e1 svgShape"/><polygon fill="#e9bba0" fill-rule="evenodd" points="1268.6 888 1518.9 1032.5 1530.7 643.6 1280.4 499.1" clip-rule="evenodd" class="colora0c6e9 svgShape"/><path fill="#ffffff" fill-rule="evenodd" d="M1280.4,499.1l242.8,140.3c0.8,185.4-1.7,313.8-38.1,383.2c-145.8-85.3-226.6-130.9-243.6-139    C1285.9,781.1,1280.7,654.4,1280.4,499.1z" clip-rule="evenodd" class="colorfff svgShape"/><polygon fill="#e1ad8e" fill-rule="evenodd" points="1452.6 605.4 1338.4 539.4 1348.9 558.2 1456.3 623.7 1459.3 622" clip-rule="evenodd" class="color8eb6e1 svgShape"/><path fill="#e1ad8e" fill-rule="evenodd" d="M1369.1,523.3l58.3,33.6l-0.5-2.2c-2.6-11.2-11.5-23.1-21.8-29.1l-13.7-7.9c-10.2-5.9-19.2-4.3-21.8,3.9    L1369.1,523.3z" clip-rule="evenodd" class="color8eb6e1 svgShape"/><path fill="#e1ad8e" fill-rule="evenodd" d="M1391.9,509.3c0.5,0,1.2,0.2,2.1,0.7c3.5,2,6.5,7.3,6.5,11.2c0,1.5-0.4,2.3-0.8,2.5c-0.4,0.2-1.3,0.2-2.7-0.6    c-3.5-2-6.5-7.3-6.5-11.2c0-1.5,0.4-2.3,0.8-2.5L1391.9,509.3L1391.9,509.3z M1399.1,529.9c1.3,0,2.5-0.3,3.6-0.9    c2.4-1.4,3.8-4.2,3.8-7.7c0-6.1-4.2-13.4-9.5-16.4c-3.1-1.8-6.2-2-8.7-0.6c-2.4,1.4-3.8,4.2-3.8,7.7c0,6.1,4.2,13.4,9.5,16.4    C1395.7,529.4,1397.5,529.9,1399.1,529.9z" clip-rule="evenodd" class="color8eb6e1 svgShape"/><path fill="#f6dac9" fill-rule="evenodd" d="M1390.9,508.3c0.7,0,1.6,0.3,2.6,0.8c3.8,2.2,7,7.7,7,12.1c0,1.7-0.5,2.9-1.3,3.4c-0.9,0.5-2.2,0.3-3.7-0.6    c-3.8-2.2-7-7.7-7-12.1c0-1.7,0.5-2.9,1.3-3.4C1390.1,508.4,1390.5,508.3,1390.9,508.3L1390.9,508.3z M1398.1,529    c1.1,0,2.2-0.3,3.1-0.8c2.1-1.2,3.3-3.7,3.3-6.9c0-5.8-4-12.7-9-15.6c-2.8-1.6-5.5-1.8-7.7-0.6c-2.1,1.2-3.3,3.7-3.3,6.9    c0,5.8,4,12.7,9,15.6C1395.1,528.5,1396.7,529,1398.1,529z" clip-rule="evenodd" class="colorc9e3f6 svgShape"/><polygon fill="#e1ad8e" fill-rule="evenodd" points="1353.4 514.2 1369.1 523.3 1427.4 556.9 1439.8 564.1 1452.6 605.4 1338.4 539.4 1350.4 515.9" clip-rule="evenodd" class="color8eb6e1 svgShape"/><polygon fill="#dac2b4" fill-rule="evenodd" points="1449.6 607.1 1335.4 541.2 1345.9 560 1456.3 623.7" clip-rule="evenodd" class="colorb4ceda svgShape"/><path fill="#f0e5de" fill-rule="evenodd" d="M1366.1,525l58.3,33.6l-0.5-2.2c-2.6-11.2-11.5-23.1-21.8-29.1l-13.7-7.9c-10.2-5.9-19.2-4.3-21.8,3.9    L1366.1,525z" clip-rule="evenodd" class="colordeebf0 svgShape"/><polygon fill="#f0e5de" fill-rule="evenodd" points="1350.4 515.9 1366.1 525 1424.4 558.7 1436.8 565.8 1449.6 607.1 1335.4 541.2" clip-rule="evenodd" class="colordeebf0 svgShape"/><polygon fill="#e1ad8e" fill-rule="evenodd" points="1449.6 607.1 1335.4 541.2 1345.9 560 1456.3 623.7" clip-rule="evenodd" class="color8eb6e1 svgShape"/><path fill="#f6dac9" fill-rule="evenodd" d="M1366.1,525l58.3,33.6l-0.5-2.2c-2.6-11.2-11.5-23.1-21.8-29.1l-13.7-7.9c-10.2-5.9-19.2-4.3-21.8,3.9    L1366.1,525z" clip-rule="evenodd" class="colorc9e3f6 svgShape"/><polygon fill="#f6dac9" fill-rule="evenodd" points="1350.4 515.9 1366.1 525 1424.4 558.7 1436.8 565.8 1449.6 607.1 1335.4 541.2" clip-rule="evenodd" class="colorc9e3f6 svgShape"/><path fill="#f2cdb7" fill-rule="evenodd" d="M1488.6 712.9l-169.4-97.8c-2.4-1.4-4.3-5.1-4.3-8.3 0-3.2 1.9-4.7 4.3-3.3l169.4 97.8c2.4 1.4 4.3 5.1 4.3 8.3C1492.9 712.8 1491 714.3 1488.6 712.9zM1485.1 753.2l-169.4-97.8c-2.4-1.4-4.3-5.1-4.3-8.3 0-3.2 1.9-4.7 4.3-3.3l169.4 97.8c2.4 1.4 4.3 5.1 4.3 8.3C1489.4 753.1 1487.5 754.6 1485.1 753.2zM1481.5 793.5l-169.4-97.8c-2.4-1.4-4.3-5.1-4.3-8.3s1.9-4.7 4.3-3.3l169.4 97.8c2.4 1.4 4.3 5.1 4.3 8.3C1485.9 793.4 1483.9 794.9 1481.5 793.5zM1478 833.7l-169.4-97.8c-2.4-1.4-4.3-5.1-4.3-8.3 0-3.2 1.9-4.7 4.3-3.3l169.4 97.8c2.4 1.4 4.3 5.1 4.3 8.3C1482.4 833.7 1480.4 835.1 1478 833.7zM1474.5 874l-169.4-97.8c-2.4-1.4-4.3-5.1-4.3-8.3 0-3.2 1.9-4.7 4.3-3.3l169.4 97.8c2.4 1.4 4.3 5.1 4.3 8.3C1478.8 873.9 1476.9 875.4 1474.5 874zM1471 914.3l-169.4-97.8c-2.4-1.4-4.3-5.1-4.3-8.3 0-3.2 1.9-4.7 4.3-3.3l169.4 97.8c2.4 1.4 4.3 5.1 4.3 8.3C1475.3 914.2 1473.4 915.7 1471 914.3z" clip-rule="evenodd" class="colorb7d9f2 svgShape"/><path fill="#e9bba0" fill-rule="evenodd" d="M1392.1,612.7l3.3,139l122.9,61.6l-2.8-119.9c-0.2-10.5-4.3-17.8-10.3-21.2l-0.5-0.1l-35.2-18.6L1392.1,612.7z   " clip-rule="evenodd" class="colora0c6e9 svgShape"/><path fill="#f6dac9" fill-rule="evenodd" d="M1506.9,673.1l-1.8-0.8l-0.4-0.2c-6.4-2.5-14.5-1.3-23.3,4c-5.9,3.6-11.5,8.8-16.4,14.9   c-11.1,13.7-18.4,32.2-17.9,47.9l1.7,62.3l7,261.8c1.1,41.3-26.9,92.3-62.3,113.9l-151.3,91.5l-271.1-149.1l151.3-91.5   c35.4-21.6,63.3-72.6,62.3-113.9l-8.7-324.1c-0.6-22.7,14.8-50.9,34.3-62.7c9.8-6,18.8-6.7,25.5-3.1l234.5,129L1506.9,673.1z" clip-rule="evenodd" class="colorc9e3f6 svgShape"/><path fill="#ffffff" fill-rule="evenodd" d="M1251.3,745.8v9.8l160,92.4v-9.8L1251.3,745.8L1251.3,745.8z M1205.3,938.3L1205.3,938.3   c0-5.7-0.5-11.3-1.5-16.8C1204.8,927,1205.3,932.6,1205.3,938.3L1205.3,938.3z M1188.1,882.2L1188.1,882.2   c-1.4-2.2-2.9-4.3-4.4-6.4l0,0C1185.3,877.8,1186.7,880,1188.1,882.2L1188.1,882.2z M1407.4,771.8l-8.4-4.8v9.9l9.5,5.5v6.2   l-16.6-9.6v-36.7l16,9.2v6.2l-8.8-5.1v8.4l8.4,4.8V771.8L1407.4,771.8z M1387.9,776.1c-1-0.1-3.1-0.9-5.6-2.3   c-9.4-5.4-13.8-15.7-13.8-26.1c0-13.9,7.7-14.8,14.8-10.7c2.5,1.5,4.3,2.9,5,3.9l-1.2,5.3c-0.8-0.9-1.7-1.7-3.3-2.6   c-4-2.3-7.7-0.9-7.7,8.2c0,8.8,3.3,14.1,7.7,16.7c1.2,0.7,2.6,1.2,3.4,1.4L1387.9,776.1L1387.9,776.1z M1342.2,750.3v-36.7l6.5,3.8   l5.7,17.7c1.1,3.5,2.9,9.2,3.9,13c-0.1-3.9-0.6-10.6-0.6-17.4v-8.1l6.3,3.6v36.7l-6.5-3.8l-5.6-17.2c-1.2-3.8-2.9-9.4-3.7-13.2   c0,3.7,0.3,9.6,0.3,16.9v8.3L1342.2,750.3L1342.2,750.3z M1329.1,728.7l-1.2-8.4c-0.4-2.4-0.9-6.4-1.2-9c-0.5,2.1-1.1,5.6-1.5,7.5   l-1.4,6.9L1329.1,728.7L1329.1,728.7z M1323.1,730.8l-1.6,7.5l-6.9-4l8-32.2l8.6,4.9l7.1,40.9l-6.9-4l-1.6-9.3L1323.1,730.8   L1323.1,730.8z M1298.8,705l1.3,0.7c3.1,1.8,4.9,0.3,4.9-2.9c0-3.1-1.3-6.1-4.5-8l-1.7-0.8V705L1298.8,705z M1291.7,684.9   c2.2,0.9,5.1,2.2,7.8,3.8c3.9,2.3,7.4,4.8,9.8,8.4c2.2,3.3,2.9,6.1,2.9,9.3c0,3.9-1.9,6.4-5.7,5.9c2.5,2.5,3.8,5.6,4.5,9.9   c0.7,4.5,1.7,9.6,2.4,11.3l-7.5-4.3c-0.4-1.3-1.3-5.5-1.8-9.8c-0.7-5-1.8-6.9-4.2-8.3l-1-0.6v14.7l-7.1-4.1V684.9L1291.7,684.9z    M1271.4,672.6v23.9c0,5.4,1.6,8,3.5,9c2.1,1.2,3.5,0.6,3.5-5v-23.9l7.1,4.1v22.6c0,9.4-3.5,12.5-10.6,8.4   c-7.7-4.4-10.7-11.5-10.7-20.7v-22.7L1271.4,672.6L1271.4,672.6z M1242.1,685.2c1.5,1.7,4,3.7,6,4.9c3.4,2,5,1.2,5-1.3   c0-2.7-1.6-4.9-4.7-8.7c-5-6-6.9-10.9-6.9-14.3c0-5.9,3.9-8.5,11.6-4.1c2.4,1.4,4.7,3.4,5.8,4.6l-1.1,5.5c-1-1.3-2.6-2.8-4.7-4   c-3.1-1.8-4.5-0.7-4.5,1.2c0,2.2,1.1,4,5.1,8.7c4.8,5.7,6.6,10.5,6.6,14.4c0,6.7-5,8.3-12.2,4.1c-2.9-1.7-5.8-4.1-7-5.5   L1242.1,685.2L1242.1,685.2z M1214.8,676.7V640l6.5,3.8l5.7,17.7c1.1,3.5,2.9,9.2,3.9,13c-0.1-3.9-0.6-10.6-0.6-17.3v-8.1l6.3,3.6   v36.7l-6.5-3.8l-5.6-17.2c-1.2-3.8-2.9-9.4-3.7-13.2c0,3.7,0.3,9.6,0.3,16.9v8.3L1214.8,676.7L1214.8,676.7z M1208.5,636.3V673   l-7.1-4.1v-36.8L1208.5,636.3L1208.5,636.3z M1251.3,960.1v9.8l110.2,63.6v-9.8L1251.3,960.1L1251.3,960.1z M1236.4,951.5   l-12.5-7.2v9.7l12.5,7.2V951.5L1236.4,951.5z M1251.3,933.3l110.2,63.6v9.8l-110.2-63.6V933.3L1251.3,933.3z M1236.4,924.8   l-12.5-7.2v9.7l12.5,7.2V924.8L1236.4,924.8z M1251.3,906.5l160,92.4v9.8l-160-92.4V906.5L1251.3,906.5z M1236.4,898l-12.5-7.2v9.8   l12.5,7.2V898L1236.4,898z M1251.3,879.8v9.8l110.2,63.6v-9.8L1251.3,879.8L1251.3,879.8z M1236.4,871.2L1224,864v9.8l12.5,7.2   V871.2L1236.4,871.2z M1251.3,853l71.5,41.3v9.8l-71.5-41.3V853L1251.3,853z M1236.4,844.4l-12.5-7.2v9.8l12.5,7.2V844.4   L1236.4,844.4z M1251.3,826.2l160,92.4v9.8l-160-92.4V826.2L1251.3,826.2z M1236.4,817.6l-12.5-7.2v9.7l12.5,7.2V817.6   L1236.4,817.6z M1236.4,790.8l-12.5-7.2v9.7l12.5,7.2V790.8L1236.4,790.8z M1251.3,799.7l125,72.2v9.5l-125-72.2V799.7   L1251.3,799.7z M1236.4,764.1l-12.5-7.2v9.8l12.5,7.2V764.1L1236.4,764.1z M1251.3,772.6l89.1,51.4v9.8l-89.1-51.4V772.6   L1251.3,772.6z M1236.4,737.3l-12.5-7.2v9.7l12.5,7.2V737.3z" clip-rule="evenodd" class="colorfff svgShape"/><path fill="#f5f4f4" fill-rule="evenodd" d="M1183.7,875.7c-33.6-45.9-102.8-77.7-183.2-78.7C1080.9,798,1150.1,829.8,1183.7,875.7L1183.7,875.7z" clip-rule="evenodd" class="colorf5f4f4 svgShape"/><g fill="#000000" class="color000 svgShape"><path fill="#d8a180" fill-rule="evenodd" d="M1092.9,743.1c20.1-4.2,41.3-4.7,64.9,3.1l-111.4-133.7l-174.1-71.5l-126.6-9.5l-29.5,10.4    c26.9,13.2,47.5,31.8,61.8,56.1c61.5,20.1,112.6,49.2,157.4,83.8C989.3,692.7,1041.9,712.6,1092.9,743.1z" clip-rule="evenodd" class="color80a8d8 svgShape"/><path fill="#ce926e" fill-rule="evenodd" d="M991.6,529.1c-4.9,6.5-8.9,13.3-12.6,20.3l-11,21.1c-3.7,7-7.2,14.2-10.8,21.2c-3.6,7.1-7,14.2-10.4,21.4    l7.1,3.4c3.5-7.1,6.9-14.3,10.2-21.5c3.3-7.2,6.7-14.4,9.8-21.7l9.6-21.8C986.7,544.3,989.6,536.9,991.6,529.1z" clip-rule="evenodd" class="color6e96ce svgShape"/><path fill="#f2cdb7" fill-rule="evenodd" d="M716.2,541.8c21.7-6.5,42.3-5.8,61.8,3.1c55.9,10.6,108.2,31.4,157,61.8c50.2,17,102.2,45.4,155.6,83.3    c24.7,11.6,47.1,30.4,67.1,56.1c-25-80.7-75.5-150.2-180.2-195.6C829,478.3,719,540.2,716.2,541.8L716.2,541.8z" clip-rule="evenodd" class="colorb7d9f2 svgShape"/><path fill="#a05021" fill-rule="evenodd" d="M1008.3,638.7L1008.3,638.7c-17.9-9.5-35.6-17.7-53.2-24.7c0,0,0,0.1-0.1,0.1    C972.9,621.3,990.6,629.5,1008.3,638.7L1008.3,638.7z M947.7,611.3c0,0,0-0.1,0-0.1c-4.2-1.6-8.5-3.1-12.7-4.5c0,0,0,0,0,0    C939.3,608.2,943.5,609.7,947.7,611.3z" clip-rule="evenodd" class="color2172a0 svgShape"/><path fill="#979696" fill-rule="evenodd" d="M955.1,614.2c0,0,0-0.1,0.1-0.1c-2.5-1-5-1.9-7.4-2.9c0,0,0,0.1,0,0.1C950.2,612.3,952.6,613.2,955.1,614.2z    " clip-rule="evenodd" class="color969697 svgShape"/><path fill="#ffffff" fill-rule="evenodd" d="M1002.8,562.5c-6.2-3.4-12.7-6.6-19.8-9.7l0,0.1C989.9,556.1,996.5,559.2,1002.8,562.5L1002.8,562.5z     M978.2,550.9L978.2,550.9c-0.2-0.1-0.4-0.2-0.7-0.3c0,0,0,0,0,0C977.8,550.7,978,550.8,978.2,550.9z" clip-rule="evenodd" class="colorfff svgShape"/><path fill="#979696" fill-rule="evenodd" d="M983,553L983,553c-1.5-0.8-3.2-1.5-4.8-2.1l0,0C979.8,551.6,981.4,552.3,983,553z" clip-rule="evenodd" class="color969697 svgShape"/><path fill="#f6dac9" fill-rule="evenodd" d="M1090.7,690c0,0,1.9-78.4-87.8-127.5c-6.4-3.3-13-6.5-19.8-9.6c-1.6-0.7-3.2-1.4-4.8-2.1    c-0.2-0.1-0.4-0.2-0.7-0.3c-13.9,2.9-28.2,31.2-42.5,56.1c4.2,1.4,8.4,2.9,12.7,4.5c2.5,0.9,5,1.9,7.4,2.9    c17.5,6.9,35.2,15.2,53.2,24.7C1035.9,653.2,1063.3,670.3,1090.7,690z" clip-rule="evenodd" class="colorc9e3f6 svgShape"/><path fill="#ad6b43" fill-rule="evenodd" d="M778,544.9L778,544.9c-8.5-3.8-17.1-6.1-26-7C760.7,538.7,769.3,541,778,544.9z" clip-rule="evenodd" class="color4384ad svgShape"/><path fill="#e9bba0" fill-rule="evenodd" d="M977.5,550.6c-54.5-26.5-103.8-35-144.5-35c-70.3,0-115.1,25.2-116.8,26.2l-0.1,0c9.2-2.8,18.4-4.3,27.6-4.3    c2.7,0,5.5,0.1,8.2,0.4c8.9,0.8,17.6,3.1,26,7l0,0c26.6-14,55.7-21.7,87.5-21.7C899.5,523.2,936.6,531.8,977.5,550.6z" clip-rule="evenodd" class="colora0c6e9 svgShape"/><rect width="228.4" height="7.9" x="786.7" y="713.9" fill="#ce926e" fill-rule="evenodd" clip-rule="evenodd" transform="rotate(-64.347 900.994 717.876)" class="color6e96ce svgShape"/><path fill="#e1ad8e" fill-rule="evenodd" d="M820.6,871.4c9.1,0,16.2-6.3,21.4-18.7l14.2-29.6c1.3-2.6,0.2-5.8-2.5-7c-2.6-1.3-5.8-0.2-7,2.5l-14.4,30    c-4.8,11.6-9.4,13-13.6,12.2c-1.9-1.5-4-4.7,2.4-15.6c1.5-2.5,0.6-5.7-1.9-7.2c-2.5-1.5-5.7-0.6-7.2,1.9    c-8.2,14-7.7,24.2,1.7,30.3l0.8,0.5l0.9,0.2C817.2,871.2,818.9,871.4,820.6,871.4z" clip-rule="evenodd" class="color8eb6e1 svgShape"/></g><g fill="#000000" class="color000 svgShape"><path fill="#3b2810" fill-rule="evenodd" d="M905,1285.9c-0.7,0.1-2.6,1.9-3,4.3c-0.4,2.4,0.6,6.3,0.6,6.3s4.1,3.1,8,3c4-0.1,7.9-1.6,9.2-2.6    c1.3-1,1.8-3.4,3.3-4.1c1.6-0.7,4.7-0.1,6.1-0.1c1.5,0,6-1.7,8-3.5c2-1.8,3-4.1,3.1-6.9c0.1-2.7-3.8-4.7-3.8-4.7L905,1285.9z" clip-rule="evenodd" class="color101e3b svgShape"/><path fill="#3b2810" fill-rule="evenodd" d="M923.3,1272.4c3.3-0.2,8.4,0.3,11.2,1.7c2.7,1.4,4.7,3.3,4.9,6.1c0.2,2.8,1,5-2.1,6.6c-3.1,1.6-3.8,3-8.9,3    c-5.2,0.1-8.9,2.6-10.9,3.6c-1.9,1-14.1,2.5-14.4-4.3c2.9-11.3,4.5-17,4.6-17.9C907.8,1270.4,923.3,1272.4,923.3,1272.4z" clip-rule="evenodd" class="color101e3b svgShape"/><path fill="#fbb890" fill-rule="evenodd" d="M926.6,1244.6c-1.4,4.4-2.3,10.5-1.3,14.2c1,3.7,2.7,15.6,2.7,15.6s3,1.8,1.9,4.4    c-1.2,2.6-16.2,0.9-16.2,0.9s-7,0.3-6.7-3.8c0.3-4.1,2.7-13.8,3.3-17.2c0.6-3.4,1.1-14.3,1.3-15.7    C911.6,1241.5,926.6,1244.6,926.6,1244.6z" clip-rule="evenodd" class="colorf4ae92 svgShape"/><path fill="#c67443" fill-rule="evenodd" d="M907,1249.2c0.1,2.4,10.2,5.1,13.4,4.9c1.8-0.1,4.7-0.6,7.1-1.4c1.8-0.6,3.2-1.3,3.6-1.9    c0.9-1.6,10.3-48.9,16.8-66.4c6.5-17.6,20.1-48.2,21.3-59.5c0.3-3.2,1-9.1,1.7-16.3c1.9-18.7,4.1-45.5,1.1-52.2    c-4.2-9.3-36.5-15.3-36.5-15.3c-6.9,7.8-15.1,20.9-16.7,49.8c-1.6,28.8,2.2,32.5,2.4,42.5c0.1,10,1.3,15.9,0,21.9    c-1.4,5.9-6.5,19.6-7.2,37C909,1213,906.9,1246.9,907,1249.2z" clip-rule="evenodd" class="color4385c6 svgShape"/><path fill="#b7622f" fill-rule="evenodd" d="M927.3,1253.4c0-0.3,4.1-28.8,6.5-36.2c0.2-0.7,22.2-66.9,23-73.2c0.7-5.8-0.7-31.9-1.7-36.8l-2.6,0.5    c0.9,4.7,2.3,30.4,1.6,35.9c-0.6,5-18.2,58.7-22.8,72.7c-2.5,7.6-6.5,35.4-6.7,36.6L927.3,1253.4z" clip-rule="evenodd" class="color2f73b7 svgShape"/><path fill="#b7622f" fill-rule="evenodd" d="M927.5,1252.7c1.8-0.6,3.2-1.3,3.6-1.9c0.9-1.6,10.3-48.9,16.8-66.4c6.5-17.6,20.1-48.2,21.3-59.5    c0.3-3.2,1-9.1,1.7-16.3c-10.8-8.1-23.4-14.3-23.4-14.3c-0.4,0.7,4.2,27.7,4.2,27.7l2.5,13.5c-0.2-9.8-1.1-24.2-1.8-27.6l2.6-0.5    c0.9,4.9,2.4,30.9,1.7,36.8c-0.6,5-15,49-20.7,66.3C932.8,1225.3,928.8,1244.2,927.5,1252.7L927.5,1252.7z M941.1,1186.4    c1.3-4.6,3.7-12,6.2-19.3C945.3,1173.2,943.2,1179.9,941.1,1186.4z" clip-rule="evenodd" class="color2f73b7 svgShape"/><path fill="#b7622f" fill-rule="evenodd" d="M936.1,1210.3c5.7-17.3,20-61.3,20.7-66.3c0.7-5.8-0.7-31.9-1.7-36.8l-2.6,0.5c0.6,3.4,1.6,17.8,1.8,27.6    l1.5,7.8c0,0-4.4,12-8.5,24c-1.9,6.1-4.1,12.8-6.2,19.3c-0.4,1.6-0.7,2.8-0.8,3.6C939.8,1192.8,938.1,1200.7,936.1,1210.3z" clip-rule="evenodd" class="color2f73b7 svgShape"/><path fill="#3b2810" fill-rule="evenodd" d="M963.5,1286.6c-0.3-0.1-2.7,1.6-2.9,3.1c-0.2,1.5,0.1,2.7,1.8,4.6c1.7,1.8,5.2,3.9,9.8,3.4    c4.7-0.5,11.9-5,13.8-5.6c1.9-0.6,11.8-1.9,14.8-3.9c3-2.1,5.7-5.5,6.5-8c0.8-2.5-0.7-5.1-2.4-6.5    C1003.3,1272.3,963.5,1286.6,963.5,1286.6z" clip-rule="evenodd" class="color101e3b svgShape"/><path fill="#3b2810" fill-rule="evenodd" d="M985.2,1269.6c0.3,0.1,3.1,1.1,6.2,0.4c3.1-0.7,9.7-1.3,12.3,1.1c2.6,2.4,3,4.3,2.7,6.6    c-0.4,2.2-1,5.7-4.9,7.8c-4,2.1-15.4,3.7-17.6,4.5c-2.2,0.8-10.4,7.5-16.2,5.2c-5.8-2.4-6.9-5-6.4-7.2c0.5-2.2,1.5-9.4,3-11.4    c1.6-2,6.5-4.6,6.5-4.6L985.2,1269.6z" clip-rule="evenodd" class="color101e3b svgShape"/><path fill="#fbb890" fill-rule="evenodd" d="M987,1241.5c0,0-2.1,23.3-2.1,25.5c0,2.2,2.1,3,3.4,4c1.3,1,1.8,4.9,1.8,4.9s-10.1,5.3-15.2,5.5    c-5.1,0.2-9.6-2.6-9.4-5.5c0.2-3,2.4-7.9,2.5-12.3c0.1-4.4-1.4-19-1.4-21.4C966.7,1239.8,987,1241.5,987,1241.5z" clip-rule="evenodd" class="colorf4ae92 svgShape"/><path fill="#c67443" fill-rule="evenodd" d="M995.2,1042.8c0.4,0.6,9.3,15.7,10.6,29.9c1.3,14.2,4.6,22.3-0.7,53.7c-5.3,31.4-10.9,66-12,71.3    c-1,5.3-3.4,48.3-4.1,50.6c-0.7,2.4-20.1-0.7-23.6-2.2c-3.5-1.5-2.4-6.9-2.4-6.9s-4.3-46.5-2.8-60.4c1.5-13.9,4.3-46.1,4.3-46.1    s-7.1-12.8-17.6-20.8c-10.5-8-2.4-51.2,3.5-58.3C956.4,1046.5,995.2,1042.8,995.2,1042.8z" clip-rule="evenodd" class="color4385c6 svgShape"/><path fill="#b7622f" fill-rule="evenodd" d="M987.2 1249.3c0 0 2.4-30.7 3.6-44.9 1.2-13.8 7.6-47.8 11.5-65.1 4.6-20.2 5.4-38.1 2.8-58.1-3-22.6-8.4-31.1-8.6-31.5l-2.2 1.5c.1.1 5.3 8.4 8.2 30.3 2.6 19.6 1.7 37.2-2.8 57.1-3.9 17.4-10.4 51.5-11.5 65.5-1.2 14.2-3.6 44.9-3.6 44.9L987.2 1249.3zM958.9 965.2c0 0 2.6.7 5.6 1 3 .2 22 16.8 25.6 22.4 3.5 5.5 8 15.5 7.2 25.8-.8 10.3-1.6 22.7-1 28.1.6 5.4-2.5 8.7-19.6 12-17.1 3.2-49-.9-47.6-8.2 1.3-7.4-9-34.6-12-40.1-2.9-5.5-12.8-27.6-10-37.5 2.8-10 7.4-10.7 13-11.9 5.6-1.3 26.4 5.2 26.4 5.2L958.9 965.2z" clip-rule="evenodd" class="color2f73b7 svgShape"/><path fill="#c67443" fill-rule="evenodd" d="M918.8,941.6c0,0-7.8,8.8-9.5,14.8c-1.8,6-2.3,12.1-2.3,12.1s10.1,6.4,14.8,1.4c4.8-5,9.1-13.5,9.1-13.5    s0.7-10.6-3.3-12.1C923.6,942.9,918.8,941.6,918.8,941.6z" clip-rule="evenodd" class="color4385c6 svgShape"/><path fill="#fbb890" fill-rule="evenodd" d="M921.5,913.2c-0.2,2-0.4,4.1-0.6,6.3c-0.2,3.1,2,4.6,5,5c1.5,0.2,3.3,0.2,5.1-0.1c5.9-1,12.1-4.4,12.3-8.3    c0.4-7.6,5.1-45,6.2-47.4c1.1-2.4,1.3-6,0.9-9.7c-0.5-3.8-12.2-15.3-12.2-15.3l-3.9-2.9l-2.2-2.3c0,0-2.6-1.2-3.6-0.7    c-1,0.5,0.5,3,0.5,3s-0.8,0.6-1.8,1.5c-1,0.9-1.8,1.9-1.8,1.9c0,0-2.1,1.1-2.7,2.4c-0.6,1.3-1.9,4.7-1.9,4.7s-0.1,2.7,1.7,4.7    c1.4,1.6,9.1,3.6,12.1,8.7c0.9,1.6,1.4,3.5,1,5.8c-1.5,9.5-9.2,21.6-11,27C923.4,901.6,922.3,906.7,921.5,913.2z" clip-rule="evenodd" class="colorf4ae92 svgShape"/><path fill="#87653b" fill-rule="evenodd" d="M928.2,925.4c1,0,2-0.4,2.7-1.1l0,0c-1.1,0.2-2.1,0.3-3.1,0.3c-0.7,0-1.3,0-2-0.1l0,0    c0.5,0.4,1.1,0.7,1.7,0.9C927.8,925.4,928,925.4,928.2,925.4z" clip-rule="evenodd" class="color3b5887 svgShape"/><path fill="#fbb890" fill-rule="evenodd" d="M927.9,924.7c1,0,2.1-0.1,3.1-0.3l0,0l0.4-0.4c1-1,1.6-2.3,2.2-3.5c4.9-10.3,8-21.4,11-32.4    c0.5-1.6,0.9-3.3,1.4-4.9c0.2-0.9,0.5-1.7,0.6-2.5c0-0.2,0.1-0.5,0.1-0.7l-14.4,1.5c-2.8,6.5-6.4,12.6-7.5,16.1    c-1.4,4.1-2.5,9.2-3.3,15.7c0.5,1.7,1.2,3.3,1.7,4.9c0.4,1.5,0.6,3,1.2,4.4c0.4,0.8,0.9,1.5,1.5,2.1l0,0    C926.5,924.6,927.2,924.7,927.9,924.7z" clip-rule="evenodd" class="colorf4ae92 svgShape"/><path fill="#f2cdb7" fill-rule="evenodd" d="M1112.3,824.3l-0.5-0.3l53.7,12.5l-51.4,24.9c3.2-2,5.8-5.6,7.1-10.6c0.4-1.6,0.7-3.3,0.8-4.9    C1122.7,837.1,1118.8,828,1112.3,824.3z" clip-rule="evenodd" class="colorb7d9f2 svgShape"/><path fill="#ce926e" fill-rule="evenodd" d="M1143.8,831.5c6.2,5.1,1.7,14.8,1.7,14.8l24.2-9.7L1143.8,831.5z" clip-rule="evenodd" class="color6e96ce svgShape"/><path fill="#e1ad8e" fill-rule="evenodd" d="M1105.4,822.7L821.8,852c1.1-0.1,2.2-0.1,3.3,0.2l283.6-29.3C1107.5,822.6,1106.4,822.6,1105.4,822.7z" clip-rule="evenodd" class="color8eb6e1 svgShape"/><path fill="#e1ad8e" fill-rule="evenodd" d="M1108.7,822.9l-283.6,29.3c1.2,0.3,2.5,0.7,3.7,1.4c0.7,0.4,1.4,0.9,2.1,1.4l283.6-29.3    c-0.6-0.5-1.3-1-2.1-1.4C1111.1,823.6,1109.9,823.1,1108.7,822.9z" clip-rule="evenodd" class="color8eb6e1 svgShape"/><path fill="#e9bba0" fill-rule="evenodd" d="M1114.4,825.7L830.8,855c4.4,3.6,7.2,9.9,7.7,16.6l283.6-29.3C1121.6,835.6,1118.8,829.4,1114.4,825.7z" clip-rule="evenodd" class="colora0c6e9 svgShape"/><path fill="#e9bba0" fill-rule="evenodd" d="M1122.1,842.3l-283.6,29.3c0.2,2.7,0,5.4-0.6,8.1l283.6-29.3C1122.1,847.7,1122.3,845,1122.1,842.3z" clip-rule="evenodd" class="colora0c6e9 svgShape"/><path fill="#e1ad8e" fill-rule="evenodd" d="M1121.5,850.3l-283.6,29.3l-0.1,0.6c-1.9,7.2-6.6,11.6-11.8,12.2l283.6-29.3c5.3-0.5,9.9-5,11.8-12.2    L1121.5,850.3z" clip-rule="evenodd" class="color8eb6e1 svgShape"/><path fill="#f2cdb7" fill-rule="evenodd" d="M809.9,864.2c-2.7,10.3,1.3,22.2,9,26.6c7.7,4.4,16.1-0.3,18.8-10.6c2.7-10.3-1.3-22.2-9-26.6    C821.1,849.2,812.6,853.9,809.9,864.2z" clip-rule="evenodd" class="colorb7d9f2 svgShape"/><path fill="#ce926e" fill-rule="evenodd" d="M818.8,869.3c-1,3.7,0.5,8.1,3.3,9.7c2.8,1.6,5.9-0.1,6.9-3.9c1-3.7-0.5-8.1-3.3-9.7    C822.8,863.8,819.8,865.5,818.8,869.3z" clip-rule="evenodd" class="color6e96ce svgShape"/><path fill="#c67443" fill-rule="evenodd" d="M965.7,966.6c0,0,8.6-5.5,10.3-6.4c1.7-0.9,15.9,22.6,14.8,27c-1.1,4.4-2.2,8.2-3.3,11.7    c-1.1,3.4-0.2,5.5-1.6,7.5c-1.3,2-13.7,7.4-17.8,1.4c-4.1-6-8-16.3-7.4-26.7C961.4,970.8,962.3,968.8,965.7,966.6z" clip-rule="evenodd" class="color4385c6 svgShape"/><path fill="#fbb890" fill-rule="evenodd" d="M949.6,842.3L949.6,842.3l0.1,0.3l0.7,0.7l0.2,0.2l0.3,0.3c0.5,0.4,1,0.8,1.3,1l0.4,0.3l-0.6,0.3h0    c-0.7,0.4-1.6,1.2-0.4,2.2c1.8,1.5,10,7.5,10.8,8.3c0.8,0.8,4.9,5,4.9,5s0.3,3,0.3,3.8c0,0.7-1.3-0.5-1.3-0.5l-2.1-3.9    c-0.1-0.2-2.7-2.9-4.3-2.2c-1.5,0.7-2.1,3-0.7,4.3c1.3,1.3,2.1,5.5,3.6,6.4c0.7,0.5,1.5,0.9,2.2,1.1c0.7,0.2,1.4,0.3,1.8,0.3    c0.8-0.1,4-1.6,5.1-0.8c1.1,0.7,10,13.2,14.7,21.2c4.7,8,14.8,30.2,14.7,32c0,0.4-0.4,1.5-1.1,3.1l0,0.1    c-2.3,5.3-7.5,15.5-11.5,21c-5.2,7.2-11.2,11.8-12.1,15.4c-0.1,0.4-0.1,0.8-0.1,1.3c0.1,4.4,4.3,13.5,7.1,17.4    c3.1,4.4,6.8,8.2,6.8,8.2s17.1-25.2,19.6-30.5c2.4-5.2,13.7-36.2,14.2-39.1c0.5-2.9-2.5-7.9-3.5-9.8c-1-2-11.3-17.2-17.5-25.3    c-6.2-8-21.9-19.8-22.1-21.3c-0.1-1.5-1.2-13.4-1.2-13.4s-6.1-6.9-8-7.9c-1.9-1-9-4.7-10.2-5.2c-0.9-0.3-1.9,0.3-2.2,0.9l-0.1,0.7    c0.2,0.8,6.3,4,7.2,4.5l-0.3-0.1c-0.3-0.1-0.6-0.2-1.1-0.5c-2.9-1.2-9.2-3.7-10.2-3.3c-1.2,0.4-0.8,1.8-0.8,1.8l7.4,4.4l0,0    l0.4,0.3c-1.1-0.5-9.9-4.5-10.7-4.5C950.6,840.7,949.4,841.5,949.6,842.3z" clip-rule="evenodd" class="colorf4ae92 svgShape"/><path fill="#fbb890" fill-rule="evenodd" d="M976.4 963.5c2.2-2.3 4.6-5.1 7.1-8 12.9-15.2 16.3-28.1 16.6-29.7-2.3 5.3-7.5 15.5-11.5 21-5.2 7.2-11.2 11.8-12.1 15.4-.1.3-.1.6-.1.9C976.4 963.2 976.4 963.3 976.4 963.5L976.4 963.5zM1000.2 925.6l4.1-1.9c0 0-2.5-3.7-8.3-17.3-5.7-13.6-21.8-36.6-21.8-36.6l-2.5-2.2-6.7 2.2v0c.6.2 1.2.3 1.7.3.1 0 .1 0 .2 0 .6-.1 2.8-1 4.2-1 .4 0 .7.1.9.2.5.4 2.9 3.4 5.7 7.5 3 4.3 6.6 9.6 9 13.7 4.7 7.9 14.7 29.8 14.7 32 0 0 0 0 0 0C1001.2 922.9 1000.8 924 1000.2 925.6z" clip-rule="evenodd" class="colorf4ae92 svgShape"/><path fill="#d17705" fill-rule="evenodd" d="M975.4 847.5l-7.3-5.4-8.6-4.5-.1.7c0 0 0 0 0 0l0 0c.2.5 2.5 1.9 4.4 3 1.3.7 2.4 1.3 2.7 1.5l0 0 .1 0L975.4 847.5zM972.2 850.5c.5 0 .9-.1.5-.3-.8-.5-8.1-4.8-8.1-4.8l-10.3-4.8 2.4 1.4 5 3 0 0 .5.3 8.6 5.1C970.8 850.5 971.6 850.5 972.2 850.5zM968.8 855.2l.6-.6c0 0-8.3-6-9.2-6.5-1-.4-7.6-3.1-7.6-3.1l-.6.3c3.1 1.5 7.8 3.8 7.8 3.8L968.8 855.2z" clip-rule="evenodd" class="colord8703c svgShape"/><path fill="#fbb890" fill-rule="evenodd" d="M1006.6,926.7c2.2-2.7,5-5.5,8.4-5.5c0.8,0,1.5,0.2,2.2,0.6c1,0.6,1.7,1.6,2.1,2.7c1.2,3.4-0.7,7-2.3,10.2    c-1.6,3.3-2.8,6.8-4.3,10.1c-3.1,7.3-6.9,14.2-10.8,21c-2.3,4-4.5,8.1-6.8,12.1c-1.2,2.1-2.9,4.6-5.4,4.4    c-0.9-0.1-1.7-0.5-2.4-0.9c-1.7-1-3.4-2.4-4.2-4.3c-0.7-1.7-0.7-3.6-0.7-5.4c0-2.2,0-4.3,0.6-6.4c0.6-2.3,1.9-4.4,3.1-6.4    C992.7,947.9,998.2,936.6,1006.6,926.7z" clip-rule="evenodd" class="colorf4ae92 svgShape"/><path fill="#fbb890" fill-rule="evenodd" d="M979.8 869.1c2.4-5.7 7.5 1.5 9.7 3.4 4.6 4.1 8.9 8.4 12.9 13 2 2.3 3.5 4.6 5 7.2 1.6 2.8 4.3 4.7 6.2 7.3 1.8 2.8 3.4 5.9 5 8.8 1.9 3.4 3.4 5.6 3.2 9.7-.1 1.5-.3 3-1.1 4.3-.7 1.3-2.1 2.3-3.5 2.4-2.2.1-4-1.8-5.3-3.6-1.4-1.9-2.7-3.9-3.8-6-1.8-3.3-3-6.8-4.7-10.1-1.8-3.5-4.2-6.8-6.5-10-5.2-7.1-10.4-14.3-15.5-21.4C980.2 872.6 979.1 870.8 979.8 869.1zM951.5 903.7c0 0 6.6 1.3 10.7 9.7 4.1 8.4 5.9 17.5 5.9 21.3 0 3.8-1.7 13.4-3 15.1-1.3 1.7-7.3 2.8-7.5 4.3-.2 1.6-1.7 3.8 2.2 13.5-5.5 1.5-13.1 1.5-16.3 3.4-3.2 1.9-7 6.5-13.7 1.4-6.8-5.1-5-11.6-4.3-13.8.7-2.2 1.9-11.9 1.3-17.6-.6-5.8 10.7-29.7 13.4-31.4C942.9 907.8 951.5 903.7 951.5 903.7z" clip-rule="evenodd" class="colorf4ae92 svgShape"/><path fill="#b7622f" fill-rule="evenodd" d="M939.7,1039.9c1,0,2.1-0.4,2.6-1.3c0.5-0.8,0.4-1.8,0.2-2.7c-0.7-4-2.7-7.7-3-11.8c-0.3-3,0.4-6.1,0.9-9.1    c0.9-5.5,1-11.1,0.5-16.7c-0.6-6.4-2.2-12.7-4.1-18.9c-0.5-1.5-0.8-3.1-1.3-4.7c-1.6,0-3.5-0.7-5.7-2.3c-2.8-2.1-4.1-4.4-4.7-6.6    c-1,1.3-2,2.6-3,3.8c0,0.4-0.1,0.9-0.1,1.4c-0.3,3.5-0.3,7-0.4,10.5c-0.3,10-0.6,20,1.1,29.9c1.7,9.8,5.7,19.6,13,26.4    c1,0.9,2,1.7,3.3,2C939.2,1039.9,939.5,1039.9,939.7,1039.9z" clip-rule="evenodd" class="color2f73b7 svgShape"/><path fill="#fb600a" fill-rule="evenodd" d="M922.1,969.6c1.1-1.1,2.1-2.4,3-3.8c-0.4-1.4-0.4-2.7-0.3-3.8c-0.2,0.1-0.4,0.2-0.6,0.3    c-0.2-1.4,0.5-2.7,1.3-3.9c0.1-0.4,0.2-0.9,0.3-1.6c-0.1-0.1-0.3-0.3-0.4-0.3c-0.3-0.2-0.6-0.3-0.9-0.3c-0.7,0-1.4,0.3-1.9,0.8    c-1.4,1.2-2,3.2-2,5.1c0.1,1.7,0.7,3.2,1.2,4.8C922.1,968,922.1,968.7,922.1,969.6z" clip-rule="evenodd" class="colorce1936 svgShape"/><path fill="#f0a172" fill-rule="evenodd" d="M935.5 974.8c-.3-.8-.5-1.6-.9-2.4-.2-.4-.3-.7-.5-1.1-1.6-2.9-3.6-5.7-5.4-8.4-.4-.7-.9-1.3-1.2-2-.9.4-1.8.9-2.6 1.3-.1 1.1 0 2.4.3 3.8.6 2.2 1.9 4.5 4.7 6.6C932 974.1 933.8 974.7 935.5 974.8L935.5 974.8zM925.5 958.5c.1-.1.1-.2.2-.3.2-.2.3-.4.5-.7-.1-.2-.2-.4-.4-.6C925.7 957.6 925.6 958.1 925.5 958.5zM927.4 960.8c1.8-.8 3.6-1.5 5.6-1.8.8-.1 1.6-.2 2.4-.2.6 0 1.3 0 2 0 .7 0 1.4 0 2 0 2.3 0 4.5-.3 6.1-1.6 1.6-1.3 2.4-3.3 3.3-5.2.9-1.8 2.3-3.7 4.3-4.2.8-.2 1.7-.2 2.1-.8.4-.7.1-1.6-.3-2.3-1.7-3.1-3.6-9-7.4-9-.9 0-1.8.3-2.9 1-1.7 1.1-2.9 2.9-4 4.5-1.3 1.8-2.7 3.6-3.9 5.5-1 1.4-1.8 3.5-3.1 4.7-1.2 1-2.8 1.7-4 2.7-1.2 1-2.4 2.2-3.4 3.5.3.5.4 1.2.6 1.8C927 959.8 927.2 960.3 927.4 960.8z" clip-rule="evenodd" class="colorf09172 svgShape"/><path fill="#b44c13" fill-rule="evenodd" d="M924.2,962.4c0.2-0.1,0.4-0.2,0.6-0.3c0.1-1.5,0.5-2.7,0.7-3.5c0,0,0-0.1,0-0.1    C924.7,959.7,924,961,924.2,962.4z" clip-rule="evenodd" class="colorb41321 svgShape"/><path fill="#f0a172" fill-rule="evenodd" d="M924.8,962.1c0.9-0.4,1.7-0.9,2.6-1.3c-0.2-0.5-0.4-0.9-0.6-1.4c-0.2-0.6-0.3-1.2-0.6-1.8    c-0.2,0.2-0.3,0.4-0.5,0.7c-0.1,0.1-0.1,0.2-0.2,0.3c0,0,0,0.1,0,0.1C925.3,959.3,924.9,960.6,924.8,962.1z" clip-rule="evenodd" class="colorf09172 svgShape"/><path fill="#f3a97d" fill-rule="evenodd" d="M953.8,935.2c0,0-3.1-0.6-2.6,5.2c0.4,5.9,3.8,6.8,5.2,6.1c1.4-0.7-0.3-6.1-0.3-6.1S955,935.7,953.8,935.2z" clip-rule="evenodd" class="colorf3a87d svgShape"/><path fill="#3b2810" fill-rule="evenodd" d="M919.8,911.5c5.5-6,17.2-11,24.5-9.7c8-0.7,14.7,4.2,16.1,14.5c1.3,10.3-1.2,10.9-1,14.1    c0.2,3.2,0.2,7.1,0.2,7.1s-5-4.8-7.4-0.9c-2.4,3.9-3.5,14.7-8.3,18.3c-4.8,3.5-15.4,1-19.1,5.1c-3.7,4.1-4.8-2.4-4.9-5.1    c-0.1-2.7-4-7.2-5.4-14.5C913,933,912.4,919.6,919.8,911.5z" clip-rule="evenodd" class="color101e3b svgShape"/><path fill="#3b2810" fill-rule="evenodd" d="M921.9,955.3c0,0,2.4,1.7,3.1,5.2c0.7,3.5,7,15.4,8.4,23.9c1.4,8.5,3.2,20,3.7,29.2    c0.4,9.2-2.9,34.3-14.5,37c-15.1-9.3-15.7-30.3-14.6-41.3c1.1-11,10.7-31,9.5-39.4c-1.2-8.4,0.7-13.1,2.3-15.1    C920.4,954.2,921.9,955.3,921.9,955.3z" clip-rule="evenodd" class="color101e3b svgShape"/><path fill="#b7622f" fill-rule="evenodd" d="M922.9,953.4c1,0.4,2,1,2.9,1.7c0.8,0.8,1.4,1.8,1.4,3c0,0.7-0.2,1.3-0.4,2c-0.2,0.6-0.5,1.2-1,1.4    c-0.5,0.2-1.1,0-1.6-0.3c-0.8-0.4-1.7-0.8-2.5-1.2c-1.3-0.6-2.9-1.3-4.2-0.7c-0.1-1.2-0.8-2.2-0.6-3.4c0.1-0.7,0.6-1.2,1.1-1.6    C919.4,952.8,920.8,952.5,922.9,953.4z" clip-rule="evenodd" class="color2f73b7 svgShape"/></g><g fill="#000000" class="color000 svgShape"><path fill="#7d4d10" fill-rule="evenodd" d="M485.5,703.2l16.5,40c2.1,8,13.3,16.6,25.2,31c7.2,8.8,24.1-0.2,18.3-10.8l-20.7-36.9l-13.6-35    c-6.4-12.1-17.7-18.7-25.6-14.6V703.2z" clip-rule="evenodd" class="color103e7d svgShape"/><path fill="#3b2810" fill-rule="evenodd" d="M501.7,977.2c-2.3,3-2.3,10-1.7,17.9c2.1,8,9.7,7.4,16.1,8.4c12.4,1.9,18.6,11.3,35.2,11.3    c9.8,0,16.4-2.1,18.5-8.4c0.3-2.9-1.4-5.8-4.9-8.7c0,0-22.6-10.1-23.1-10.5c-0.6-0.4-10.7-7.8-10.9-8.6    c-0.2-0.8-3.9-18.1-3.9-18.1h-24.3L501.7,977.2z" clip-rule="evenodd" class="color101e3b svgShape"/><path fill="#7d4d10" fill-rule="evenodd" d="M532.9,980.6c-12.6,7.5-30.9,14.1-32.8,4.8c-0.6-2.8-1.2-5.6-1.8-8.4c-5.4-26.5-7.9-51.8-3-74.1L483,860.9    l-3.4-11.7c-0.2-27.1,11.7-35.9,32.2-31.9c0.8,0.2,1.6,0.3,2.5,0.5c1.2,0.3,2.4,0.6,3.6,1l2.4,14.8l10.4,63.7    C533.7,922.1,528.7,959.1,532.9,980.6z" clip-rule="evenodd" class="color103e7d svgShape"/><path fill="#3b2810" fill-rule="evenodd" d="M428,1014.9c-2.2,7.2-2.7,9.3-1.7,14.6c1.1,2.8,2.1,4.1,3.3,8c1.4,4.8,1.2,12.8,8.3,17.6    c8.5,6.7,25,7,30.2-0.1c0-3.5-2.3-11.2-6.6-17.5L453,1022l0.5-14.6l-24-5.3L428,1014.9z" clip-rule="evenodd" class="color101e3b svgShape"/><path fill="#7d4d10" fill-rule="evenodd" d="M516.5,821c0,1.5-0.2,2.9-0.6,4.3c-1.4,5.9-5.4,10.8-10.2,15.3l-0.1,0.1c-0.4,0.4-0.9,0.8-1.4,1.2    c-7.8,6.9-17.1,12.6-21.1,18.9c-0.4,0.6-0.7,1.2-1,1.8c-0.5,3.2-1.1,6.4-1.7,9.7c-3.8,21.2-8.8,44-14.6,68    c-6.8,28.5-9.7,55.5-10.4,81.6c-11.8,5.5-26.4,2.1-29.6-7.2c0.1-11.7,0.1-23.5,0.4-34.5c0.6-23,2.2-42.8,7.3-51.6V813.5l17-2l43-5    l11.7-1.4l9.1,12.7L516.5,821z" clip-rule="evenodd" class="color103e7d svgShape"/><path fill="#5d3707" fill-rule="evenodd" d="M498.4,977c-3.4-16.7-5.6-32.9-5.6-48.2c0-9,0.8-17.7,2.6-26l0,0L483,860.9c4.1-6.3,13.3-12,21.1-18.9l0,0    c-2.4,2.3-4.4,5.2-6.2,8.8c-4.6,12,0,30.9,5.5,50.5C497.9,916.4,498.1,946.7,498.4,977L498.4,977z M505.5,840.7L505.5,840.7    l0.1-0.1c3-2.8,5.7-5.7,7.6-9c2.3-1,4.3-2.4,6-4.1l1,6.2c-5.3,1.3-10.3,3.3-14.6,6.9L505.5,840.7z" clip-rule="evenodd" class="color072b5d svgShape"/><path fill="#5d3707" fill-rule="evenodd" d="M426.2,980.2c0.6-23,2.2-42.8,7.3-51.6v-80.1c3.4,3,7.5,5.4,11.8,7.3c3.3,1.4,6.7,2.5,10.1,3.3l0,0    c3.8,0.9,7.6,1.3,11,1.3c5.7,0,10.6-1.2,13.3-3.6c3.6-2.8,11.7-21.5,14.6-35c0,0,0-0.1,0-0.1l0,0c4.4,5.8,9.8,9.6,16.2,10.8    c0.9-0.3,1.8-0.6,2.7-1c-1.9,3.3-4.6,6.2-7.6,9l-0.1,0.1c-0.5,0.4-0.9,0.8-1.4,1.2l0,0c-7.8,6.9-17.1,12.6-21.1,18.9l0,0    c-0.4,0.6-0.7,1.2-1,1.8c-0.5,3.2-1.1,6.4-1.7,9.7l0,0c-0.3,0-0.6,0-0.8,0c-10.6,0-20.7,9.8-30.7,21.3l-5.4,35    C435.1,940,430.8,960.4,426.2,980.2z" clip-rule="evenodd" class="color072b5d svgShape"/><path fill="#7d4d10" fill-rule="evenodd" d="M522,818.8c0.8,2.4,0.4,5.1-1.3,7.1c-2.7,3.2-6,5.5-10.2,6.6c-6.5-1.2-11.8-5-16.2-10.8    c-2.9,13.5-11,32.3-14.6,35.1c-4.4,3.9-14.2,4.6-24.3,2.3c-3.4-0.8-6.8-1.9-10.1-3.3c-7.4-3.2-14.1-8.1-18.1-14.6    c-3.4-7.6,2.8-25.3,2.1-46.8l-3.1-28.1l-8.5-42.3c11.8-20.9,27.6-33,42.7-43h34c7.8,7.3,12.1,19,14.4,33.2c0,0-0.4,56.8,2.1,70.6    C513.2,798.6,522,818.8,522,818.8z" clip-rule="evenodd" class="color103e7d svgShape"/><path fill="#f6dac9" fill-rule="evenodd" d="M475.9,707l-25.2,0l39.9,71.2c11.3-26.9,13.9-52.5,0.3-80.7L475.9,707z" clip-rule="evenodd" class="colorc9e3f6 svgShape"/><path fill="#c67443" fill-rule="evenodd" d="M475.4,707.9l-0.7,9.5l6,9c2.1,13.7,5.8,28.5,5.6,39.2l4.9,13.4l5-13.6c-3.2-16.7-7.9-31.9-11.2-42.8    l-0.4-11.7l-6.5-4.1L475.4,707.9z" clip-rule="evenodd" class="color4385c6 svgShape"/><path fill="#ffffff" fill-rule="evenodd" d="M463.8,677.4l-13.7,10.9c-6.8,20.9,10.3,29.5,21.5,41.2l6.6-18.3l16.2,3.2l-6-29.8L463.8,677.4z" clip-rule="evenodd" class="colorfff svgShape"/><path fill="#5d3707" fill-rule="evenodd" d="M455.3,684.1c-10.1,7.7-4.7,22.8,7.1,36.7c10.6,12.5,27.6,40.3,29.5,60.8c-10.5-20.1-29.3-45-39.5-52.1    l3-7.4l-6.8,1.5c-6.6-9-9.7-18.4-8.9-27.3L455.3,684.1z" clip-rule="evenodd" class="color072b5d svgShape"/><path fill="#5d3707" fill-rule="evenodd" d="M479.6,681.4c14.7,14.2,23.3,72.6,11.3,98.3c13.2-15.9,17.3-40,12-77.7l-3.9-2.4l1.1-4.1l-12.5-15.1    L479.6,681.4z" clip-rule="evenodd" class="color072b5d svgShape"/><path fill="#090500" fill-rule="evenodd" d="M494.3,821.8c0,0,0-0.1,0-0.1l0,0C494.3,821.7,494.3,821.8,494.3,821.8z" clip-rule="evenodd" class="color000509 svgShape"/><path fill="#5d3707" fill-rule="evenodd" d="M455.3,859.1c-3.4-0.8-6.8-1.9-10.1-3.3c-7.4-3.2-14.1-8.1-18.1-14.6c-0.7-1.7-1-3.8-1-6.4    c0-8.6,3.2-21.8,3.2-37.1c0-1.1,0-2.2,0-3.2l-3.1-28.1l20.2-20.5c0,0,4.3,15.3,4.3,33c37.3,15.8,43.1,29.9,43.6,42.8    c0,0,0,0.1,0,0.1c-0.5,1-9.4,1.2-19,1.2c-1.6,0-3.3,0-4.9,0c-1.6,0-3.2,0-4.8,0c-8.2,0-15,0.1-14.9,0.8    C451.7,845.5,455.3,859.1,455.3,859.1z" clip-rule="evenodd" class="color072b5d svgShape"/><path fill="#fbb890" fill-rule="evenodd" d="M462.8,672.5l-6.5,11.4c-5.2,13.8,11.3,25.4,21.4,23.7l10.2-18.5L462.8,672.5z" clip-rule="evenodd" class="colorf4ae92 svgShape"/><path fill="#c67443" fill-rule="evenodd" d="M477.9,711.7l0.2-0.6l0.5,0.1C478.4,711.4,478.1,711.6,477.9,711.7z" clip-rule="evenodd" class="color4385c6 svgShape"/><path fill="#ffffff" fill-rule="evenodd" d="M475,712.6c-2.4,0-5-1.8-7.8-6.9l0,0c2.8,1.4,5.8,2.1,8.5,2.1c0.7,0,1.4-0.1,2.1-0.2l3.2-5.7l3.2,2.9    c-1.3,1.9-3.2,4.8-5.5,6.5l-0.5-0.1l-0.2,0.6C477,712.2,476,712.6,475,712.6z" clip-rule="evenodd" class="colorfff svgShape"/><path fill="#f0a172" fill-rule="evenodd" d="M475.7,707.8c-2.7,0-5.7-0.8-8.5-2.1c-2.7-5.8-3.7-12.1-3.4-18.9l17.1,15.2l-3.2,5.7    C477.1,707.7,476.4,707.8,475.7,707.8z" clip-rule="evenodd" class="colorf09172 svgShape"/><path fill="#fbb890" fill-rule="evenodd" d="M463.4,683.5c1.1,9.4,3.9,18.4,14.2,24.9c3.1,2.2,6.6,1.7,8.9-0.2l8.4-11.5c3.4-3.5,5.6-7.6,7.1-12.2    l-12.8-26.4h-19.9l-9.4,13L463.4,683.5z" clip-rule="evenodd" class="colorf4ae92 svgShape"/><path fill="#3b2810" fill-rule="evenodd" d="M458.4,681.2l7.9,1.7c2.4-2.3,6-2.5,8.6-0.6c4.2,2.9,11.1,6.6,19,6c9.5-0.7,14.1-8,13.5-15.1    c-0.6-7.6-13.3-24.7-28.1-23.7c-17.4,1.2-25.8,14.2-22.5,33.5L458.4,681.2z" clip-rule="evenodd" class="color101e3b svgShape"/><path fill="#7d4d10" fill-rule="evenodd" d="M415.4,727.6c-8,18.5-4.8,56.8,0.3,68.3c5,11.3,52.8,26.8,63.9,22.5c5.5-5,4.7-9,3.2-15.4    c-8.2-8.7-21.9-16.6-38.7-24.4l2.5-36.5C443.1,716.3,421.2,710.3,415.4,727.6z" clip-rule="evenodd" class="color103e7d svgShape"/><polygon fill="#ce926e" fill-rule="evenodd" points="512.8 790.8 495.3 819.2 496.8 821 546 794.8 565 768.2 563.5 766.3" clip-rule="evenodd" class="color6e96ce svgShape"/><polygon fill="#bb7a54" fill-rule="evenodd" points="514.3 792.6 496.8 821 547.5 796.6 565 768.2" clip-rule="evenodd" class="color5479bb svgShape"/><path fill="#f3a97d" fill-rule="evenodd" d="M523.6 806.4l-19.3 3.2-2.8-.7 1.1-1.4 3.4-5.7-9.3-2.5c-5 1.1-9.6 2.3-13.9 3.8l-4.7-1.5c-4.1-.4-6.7 13.3-2.5 14.2l10.1 2.6L498 821c4.5 1.3 6.9.1 12 0l5.5-2.6 3.8-3.6 3.8-3.7 1.7-1.1C527.4 809.2 527.4 806.4 523.6 806.4zM547 790.8l8.1-6.5 3.3-5.4 1.5 7-2.1 6.9-5.2 5.1c-.9.9-2 1.4-3.2 1.6l-2.4.4c-.9.1-1.7-.3-2.2-1l-.2-.3-1.5-.7c-.6-.3-1-.9-1.1-1.5l-.1-1.1c-.1-.9.3-1.7 1.1-2.1L547 790.8zM537.1 779.1l-1.7-3.3c-3.9-7.3 5.1-10.6 10.2-6.9l7.5 2.5L537.1 779.1z" clip-rule="evenodd" class="colorf3a87d svgShape"/><path fill="#3b2810" fill-rule="evenodd" d="M458.4,681.2l7.9,1.7c2.5-2.3,6-2.5,8.6-0.6c3.1,2.2,7.6,4.7,13,5.7c-2,1.2-4.5,1.7-9.4,1.2    c7.6,2.6,9.9,3,17.3-0.7c-1.1,2-1.8,2.6-4.7,4.4c9.9-1.8,14.6-7.7,16-14.9c0.4-1.5,0.5-3.2,0.4-4.8c-0.5-7.3-12.6-23.6-26.7-23.7    c-0.5,0-0.9,0-1.4,0c-17.4,1.2-25.8,14.2-22.5,33.5L458.4,681.2z" clip-rule="evenodd" class="color101e3b svgShape"/><path fill="#fbb890" fill-rule="evenodd" d="M461.6,672.6c-1.3-0.3-2.7,0.1-3.5,1.2c-0.5,0.8-0.6,1.8-0.6,2.7c0,2,0.5,4,1.4,5.8c0.4,0.8,0.8,1.5,1.5,2.1    c0.6,0.6,1.5,0.9,2.3,0.8c3-0.4,2.4-4.2,2.7-6.4C465.7,676.3,464.2,673.2,461.6,672.6z" clip-rule="evenodd" class="colorf4ae92 svgShape"/></g><g fill="#000000" class="color000 svgShape"><path fill="#fbb890" fill-rule="evenodd" d="M736.7 687.9c0 0-16.3-24.8-22.8-36.5-5.5-9.9-12.5-27.5-22-37.8-5.3-5.7-7-2.8-13.3.8-17.8 10.2 13.3 35.4 13.3 35.4s17.9 23.2 22 30.3c2.2 3.8 13.8 16.5 13.8 16.5L736.7 687.9zM669.1 788c-1.8-4.8 27.4-19.2 27.4-19.2 0 0-2.7 17-2.8 24.7-.1 7.6-.2 11-1.9 20.4-1.6 8.9-3.9 44.4-4 56.1-.1 11.7 7.1 22.7 9.8 26.9 2.7 4.2-5.8 10.9-12.3 4.7-6.5-6.2-7.1-7.4-10.8-9.3-3.7-1.9-6.4-10.3-3.5-19.5 2.9-9.3 1.5-27.5-1.6-43.5C666.5 813.1 670.9 792.7 669.1 788z" clip-rule="evenodd" class="colorf4ae92 svgShape"/><path fill="#3b2810" fill-rule="evenodd" d="M670.2,876.3c0,0,1.9,12.7,10.9,18c8.5,5.1,12,5.9,16.6,2.5c0,0,8,6.6,10.6,9.9c2.7,3.2-5.6,8-13.4,5.3    c-7.8-2.7-14.3-10.1-20.5-15.7c-6.1-5.5-7.8-7.4-7.5-13.6C667.1,879.5,670.2,876.3,670.2,876.3z" clip-rule="evenodd" class="color101e3b svgShape"/><path fill="#fbb890" fill-rule="evenodd" d="M643.1,766.1c7.2-4.3,28.6,16.4,28.6,16.4s-1,17.1-1.1,24.8c-0.1,7.6-1.3,10.1-3.6,18.8    c-2.3,8.7-4,45.9-4.1,57.6c-0.1,11.7,7.1,22.7,9.8,26.9c2.7,4.2-5.8,10.9-12.3,4.7c-6.5-6.2-7.1-7.4-10.8-9.3    c-3.6-1.9-6.4-10.3-3.5-19.5c2.9-9.3,1.5-27.5-1.6-43.5c-3.1-16,2-36.4,0.9-41.4C642.8,789.2,636.2,770.3,643.1,766.1z" clip-rule="evenodd" class="colorf4ae92 svgShape"/><path fill="#3b2810" fill-rule="evenodd" d="M645.4,890.1c0,0,1.9,12.7,10.9,18c8.5,5.1,12,5.8,16.5,2.5c0,0,8,6.6,10.6,9.9c2.7,3.2-5.6,8-13.4,5.3    c-7.8-2.7-14.3-10.1-20.5-15.7c-6.1-5.4-7.8-7.4-7.5-13.6C642.2,893.3,645.4,890.1,645.4,890.1z" clip-rule="evenodd" class="color101e3b svgShape"/><path fill="#7d4d10" fill-rule="evenodd" d="M701.5,703.8c0,0,0.4,18.9,0.7,34.6c0.4,19.3-2.6,42.3-2.6,42.3s-28.7,22.2-38.8,18.6    c-16.5-5.8-24.6-18.8-24.6-18.8s-0.4-44,7.7-72.7C652,679.1,700.9,688.9,701.5,703.8z" clip-rule="evenodd" class="color103e7d svgShape"/><path fill="#c67443" fill-rule="evenodd" d="M653.5,620.6c0,0,10.3,8.2,13.9,11c3.5,2.7,9.2,9.7,9.7,10.3c0,0,0.1,0,0.1,0c-0.1-1.1-0.8-10.3-4.4-20.1    c-1.1-3.1,0.6-12.1,0.6-12.1c0,0,1.4-0.4,3.5-0.7c3.1,3.5,9.3,12.7,12.6,16.5c3.2,3.7,12.7,16.4,9.8,28.4    c-2.5,10.3-3.8,23.8-3.5,28.8c0.3,5.8,5.7,21.2,5.7,21.2s-13.4,15.5-27.7,14.8c-16.7-0.7-28.6-12.6-28.6-12.6s4-25.3,3.5-35.8    c0,0-20.1-11.3-15.2-31.2C635.1,633.2,653.5,620.6,653.5,620.6z" clip-rule="evenodd" class="color4385c6 svgShape"/><path fill="#b7622f" fill-rule="evenodd" d="M656.5,618.8c0,0,4.2,6.8,8.5,11c4.2,4.2,13.4,13.5,13.4,13.5l-16.6,2.8c0,0-11.9-17.6-12.4-21.5    C648,614.5,656.5,618.8,656.5,618.8z" clip-rule="evenodd" class="color2f73b7 svgShape"/><polygon fill="#b7622f" fill-rule="evenodd" points="678.6 614.5 689.9 630.4 678.3 643.4 673.3 617.2" clip-rule="evenodd" class="color2f73b7 svgShape"/><path fill="#3b2810" fill-rule="evenodd" d="M696.8,600.7c-0.8,4.2-5.9,15.1-5.9,15.1l-18.6-13.7l23.5-18C695.9,584.1,698.4,592.3,696.8,600.7z" clip-rule="evenodd" class="color101e3b svgShape"/><path fill="#f0a172" fill-rule="evenodd" d="M676.2,626.9c1.5,2.4,3.1,9.9,2.2,16.5c-3.4-1.9-9.9-8.1-13.5-12.5c-7.5-9-9.6-13.7-9.6-13.7L654,591    l20.5,20C674.5,611.1,674.3,621.4,676.2,626.9z" clip-rule="evenodd" class="colorf09172 svgShape"/><path fill="#fbb890" fill-rule="evenodd" d="M663.9,574.1c7-4.8,23.1-5.7,28.1,11.1c5.3,17.6-11.5,38.5-19.7,34.5c-4.6-2.3-14.1-10.1-16.4-19.4    C653.4,590,658.5,577.9,663.9,574.1z" clip-rule="evenodd" class="colorf4ae92 svgShape"/><path fill="#3b2810" fill-rule="evenodd" d="M664.7,564.6c9.9-3.5,16.4,0.2,25.1,9.1c5.2,5.3,7.5,11.4,7,20.9c0,0-14.6,9.4-23.2,10.7    c-4,0.6-9.3-2-12.4-3.7c-0.6,4.3-1.2,9.2-1.3,11.6c-0.2,4.7,1,11.6,1,11.6s-12.6-3-16.1-8.7c-3.5-5.7-0.5-28.7,5-37.9    C652.8,573.1,659.7,566.4,664.7,564.6z" clip-rule="evenodd" class="color101e3b svgShape"/><path fill="#e9bba0" fill-rule="evenodd" d="M748.5,665.1l-26.2,45.4c-1.6,2.7-5.1,5.9-7.8,7.1l-24.3,14.1c-2.7,1.2-3.7-0.1-2.1-2.8l26.2-45.4    c1.6-2.7,5.1-5.9,7.8-7.1l24.3-14.1C749.1,661.1,750,662.4,748.5,665.1z" clip-rule="evenodd" class="colora0c6e9 svgShape"/><polygon fill="#e9bba0" fill-rule="evenodd" points="687.8 731.9 690.3 733.4 691.9 730.1 688.6 730.1" clip-rule="evenodd" class="colora0c6e9 svgShape"/><polygon fill="#e9bba0" fill-rule="evenodd" points="751.3 663.5 748.8 662 747.3 663.5 749.2 665.3" clip-rule="evenodd" class="colora0c6e9 svgShape"/><path fill="#d8a180" fill-rule="evenodd" d="M751,666.5l-26.2,45.4c-1.6,2.7-5.1,5.9-7.8,7.1l-24.3,14.1c-2.7,1.2-3.7-0.1-2.1-2.8l26.2-45.4    c1.6-2.7,5.1-5.9,7.8-7.1l24.3-14.1C751.6,662.5,752.6,663.8,751,666.5z" clip-rule="evenodd" class="color80a8d8 svgShape"/><path fill="#ffffff" fill-rule="evenodd" d="M727.1,695.1c-1.2,2.5-3.8,5.4-5.8,6.4c-2,1-2.7-0.2-1.5-2.7c1.2-2.5,3.8-5.4,5.8-6.4    C727.6,691.3,728.3,692.5,727.1,695.1z" clip-rule="evenodd" class="colorfff svgShape"/><path fill="#fbb890" fill-rule="evenodd" d="M650.3,675.1c1.4,6.1,8.9,16.8,11.8,19c2.3,1.7,21.2,12.5,27.2,13.6c3.8,0.7,7.2-0.6,10.9,0    c-0.5,1.1-2.2,5.1-0.3,6.4c3.6,2.4,7.8-1.6,10.7,0c2.8,1.5-0.5,7.3-4.6,9.3c-7.4,3.6-13.1-0.9-20.6-4.4c-7.3-3.5-23-3.3-34.5-12.4    c-9.3-7.3-12.6-15-15.1-20.5c-2.5-5.5-6.8-16.2-7.5-22c-3.7-31.6,7.9-31.6,13.7-24.8C648,646.2,648.9,669.1,650.3,675.1z" clip-rule="evenodd" class="colorf4ae92 svgShape"/><path fill="#f8d1b9" fill-rule="evenodd" d="M737.4,691.7c-3.3-0.7-8.2,5.5-7.5,9c0.7,3.4,5.7,0.7,7.7-2.3C739.6,695.3,740.2,692.3,737.4,691.7z" clip-rule="evenodd" class="colorf8cbb9 svgShape"/></g></svg>