<svg width="107" height="65" viewBox="0 0 107 65" fill="none" xmlns="http://www.w3.org/2000/svg">
<path d="M87.0529 62.8043C87.0529 63.7178 68.2618 64.4584 45.0823 64.4584C21.9024 64.4584 3.11133 63.7178 3.11133 62.8043C3.11133 61.8909 21.9024 61.1505 45.0823 61.1505C68.2618 61.1505 87.0529 61.8911 87.0529 62.8043Z" fill="#F2F2F2"/>
<path d="M47.5405 59.1166V62.2345C47.5405 62.5493 47.9544 62.8043 48.4654 62.8043H51.4651C51.8516 62.8043 52.1973 62.6563 52.332 62.4334L53.9008 59.8412L54.3393 59.1166H47.5405Z" fill="#EAC188"/>
<path d="M47.5405 59.1166V60.4106C50.0655 60.3124 52.6647 60.0167 53.9008 59.8412L54.3393 59.1166H47.5405Z" fill="#FFBF66"/>
<path d="M33.7327 62.2115C33.7109 62.5354 34.1312 62.8043 34.6569 62.8043H37.8631C38.2204 62.8043 38.546 62.6771 38.699 62.4782L40.4162 60.2401L40.5745 60.0338L41.6031 58.6928L33.9842 58.3499L33.9522 58.8423L33.9402 59.0217L33.7327 62.2115Z" fill="#EAC188"/>
<path d="M33.9521 58.8425C35.8704 59.4134 38.3778 59.7738 40.5743 60.034L41.603 58.693L33.9841 58.35L33.9521 58.8425ZM64.0577 56.5339L59.8781 62.4615C59.7315 62.6697 59.3981 62.8043 59.0296 62.8043H56.0467C55.5234 62.8043 55.1046 62.5371 55.1222 62.2149L55.3539 58.0333L64.0577 56.5339ZM23.8901 53.9641L24.2225 62.2485C24.2348 62.5577 24.6452 62.8043 25.1474 62.8043H28.1295C28.5149 62.8043 28.8603 62.6569 28.9957 62.4344L32.0865 57.3562L25.6144 53.6555L23.8901 53.9641Z" fill="#FFBF66"/>
<path d="M73.965 45.697C73.965 53.6683 61.5423 60.1317 46.2138 60.1317C30.8891 60.1317 18.4668 53.6683 18.4668 45.697C18.4668 44.6353 18.688 43.6014 19.1093 42.6053H73.3225C73.7438 43.6011 73.965 44.6353 73.965 45.697Z" fill="#FFBF66"/>
<path d="M18.5571 46.8618C19.6976 54.2895 31.6452 60.1319 46.2159 60.1319C61.5405 60.1319 73.9639 53.6686 73.9639 45.6957C73.9639 44.892 73.8373 44.1042 73.5947 43.3359C73.6548 43.7231 73.6857 44.1142 73.6857 44.5094C73.6857 52.4823 61.2623 58.945 45.9377 58.945C32.1526 58.945 20.7153 53.7158 18.5571 46.8618Z" fill="#EAC188"/>
<path d="M64.2698 55.9687C69.2683 55.9687 73.3203 53.9514 73.3203 51.4629C73.3203 48.9744 69.2683 46.9571 64.2698 46.9571C59.2713 46.9571 55.2192 48.9744 55.2192 51.4629C55.2192 53.9514 59.2713 55.9687 64.2698 55.9687Z" fill="#EAC188"/>
<path d="M66.7556 55.9687C71.7541 55.9687 75.8062 53.9514 75.8062 51.4629C75.8062 48.9744 71.7541 46.9571 66.7556 46.9571C61.7571 46.9571 57.7051 48.9744 57.7051 51.4629C57.7051 53.9514 61.7571 55.9687 66.7556 55.9687Z" fill="#FFBF66"/>
<path d="M66.343 51.3012C66.343 52.1451 65.8528 52.8294 65.2479 52.8294C64.6431 52.8294 64.1528 52.1451 64.1528 51.3012C64.1528 50.4573 64.6431 49.7731 65.2479 49.7731C65.8528 49.7731 66.343 50.4573 66.343 51.3012ZM72.3488 51.3012C72.3488 52.1451 71.8586 52.8294 71.2537 52.8294C70.6489 52.8294 70.1586 52.1451 70.1586 51.3012C70.1586 50.4573 70.6489 49.7731 71.2537 49.7731C71.8586 49.7731 72.3488 50.4573 72.3488 51.3012Z" fill="#EAC188"/>
<path d="M66.7557 45.8176C67.6771 45.8176 68.424 45.3574 68.424 44.7898C68.424 44.2221 67.6771 43.7619 66.7557 43.7619C65.8343 43.7619 65.0874 44.2221 65.0874 44.7898C65.0874 45.3574 65.8343 45.8176 66.7557 45.8176Z" fill="#EAC188"/>
<path d="M52.7411 45.8176C53.6625 45.8176 54.4094 45.3574 54.4094 44.7898C54.4094 44.2221 53.6625 43.7619 52.7411 43.7619C51.8197 43.7619 51.0728 44.2221 51.0728 44.7898C51.0728 45.3574 51.8197 45.8176 52.7411 45.8176Z" fill="#EAC188"/>
<path d="M46.6968 13.8484L19.1143 42.6034C11.4286 37.8627 10.2917 29.5015 17.0514 22.4544C23.813 15.4054 36.2494 11.9866 46.6968 13.8484Z" fill="#FFBF66"/>
<path d="M22.9966 23.3129C22.9966 23.3129 20.5929 24.3774 24.9927 29.2528C26.1715 29.4871 27.1357 29.3259 27.9794 28.9424L26.3044 24.4337L22.9966 23.3129Z" fill="#EAC188"/>
<path d="M27.9793 28.9423C24.6849 26.9104 23.3584 25.0898 22.8984 24.1821C22.6695 23.7306 22.8868 23.2318 23.4787 22.9309C26.1211 21.5867 33.2846 21.6352 33.2846 21.6352C33.2846 21.6352 26.7154 24.8553 27.9793 28.9423Z" fill="#FFBF66"/>
<path d="M35.4244 17.5188C35.4244 17.5188 33.8306 17.8839 33.0815 17.1832C33.0815 17.1832 34.0912 12.2772 35.8495 11.0069L36.9351 12.3574L36.3668 14.061L36.0496 15.3188L35.4244 17.5188Z" fill="#EAC188"/>
<path d="M35.4243 17.5188L35.496 11.6047C35.535 10.8336 37.0658 10.3565 38.0973 10.7939L46.4044 14.1536L35.4243 17.5188ZM12.8936 44.0741C13.1366 44.4843 13.6264 44.8396 14.3115 45.1042C14.3143 45.3843 14.4008 45.6562 14.5615 45.8944C15.46 47.1642 17.9569 47.5369 19.8921 47.627L20.0841 47.6355L20.1059 46.9866L19.9287 46.9809C18.2678 46.9311 16.1286 46.665 15.3665 45.6792C15.2972 45.5824 15.2438 45.4775 15.2072 45.3672C15.5701 45.4422 15.9903 45.4838 16.4032 45.4838C17.5219 45.4838 18.3687 45.1924 18.668 44.7038C18.8652 44.3586 18.7717 43.9825 18.4123 43.6698C18.0413 43.3466 17.4526 43.1537 16.8407 43.1537C16.7907 43.1537 16.7398 43.1548 16.6898 43.157C15.3011 43.2636 14.5323 44.0232 14.3533 44.7473C14.2651 44.7098 14.1807 44.6693 14.0977 44.6279C12.8566 44.0193 13.0064 42.9317 13.1752 42.3948C13.1939 42.3356 13.1323 42.2784 13.037 42.265L13.0342 42.2645C12.9361 42.2507 12.8373 42.2886 12.8162 42.3493C12.5753 43.0409 12.6006 43.5912 12.8936 44.0741ZM15.152 45.0049C15.1583 44.4139 15.6232 43.8971 16.3571 43.6763C16.5182 43.6272 16.6881 43.6018 16.8628 43.6018C17.2458 43.6018 17.634 43.7273 17.8749 43.9303C18.1077 44.1253 18.1732 44.3545 18.0596 44.577C17.8503 44.9928 16.9599 45.0988 16.5861 45.1245C16.4862 45.1319 16.3825 45.1352 16.2787 45.1352C15.9038 45.1349 15.5247 45.0912 15.152 45.0049Z" fill="#FFBF66"/>
<path d="M19.1471 43.4285C19.9203 43.4285 20.5471 43.0423 20.5471 42.5659C20.5471 42.0895 19.9203 41.7034 19.1471 41.7034C18.3739 41.7034 17.7471 42.0895 17.7471 42.5659C17.7471 43.0423 18.3739 43.4285 19.1471 43.4285Z" fill="#EAC188"/>
<path d="M20.0855 42.6072C20.1223 42.2884 19.7326 42.0116 19.2152 41.9889C18.6977 41.9663 18.2484 42.2063 18.2116 42.5252C18.1748 42.844 18.5645 43.1208 19.082 43.1435C19.5994 43.1661 20.0487 42.926 20.0855 42.6072Z" fill="white"/>
<path d="M85.7946 10.0774C85.7946 10.0774 85.2537 10.1153 84.4681 9.38771C84.4681 9.38771 82.9144 9.84293 81.7588 8.94398C81.7588 8.94398 81.3833 8.90628 80.7253 8.37783L81.205 8.24501C81.205 8.24501 80.9289 8.23765 80.5125 7.99498C80.3465 7.89791 80.1577 7.76336 79.9548 7.57595L80.4461 7.33956C80.4461 7.33956 80.2175 7.28345 79.9288 7.09711L79.9207 7.09126C79.9084 7.08346 79.8964 7.07566 79.8848 7.06765C79.7832 6.99918 79.6763 6.91511 79.5701 6.8122C79.5701 6.8122 79.8662 6.5262 80.5073 6.53746C80.5073 6.53746 79.9231 6.32881 79.4259 5.86255C79.4259 5.86255 80.0269 5.44611 80.9233 5.64718C80.8663 5.62205 79.5799 5.06803 79.3457 4.60285C79.3457 4.60285 80.0617 4.40806 80.6349 4.55778C80.6349 4.55778 79.6474 3.94201 79.5166 3.48528C79.5166 3.48528 80.1144 3.3919 80.8477 3.6623C80.8477 3.6623 79.7649 2.85976 79.8261 2.24313C79.8261 2.24313 80.2273 2.24768 80.5744 2.43488C80.5744 2.43488 79.6678 1.34635 80.1408 0.542297C80.483 1.12643 81.04 1.68586 81.7195 2.23143C82.1918 2.61103 82.7228 2.98478 83.2802 3.35528L83.3101 3.14143C83.3839 3.23286 83.4708 3.32105 83.5699 3.40338C83.6508 3.47185 83.7405 3.53663 83.8379 3.59643C84.0662 3.73596 84.3992 3.90626 84.8483 4.0575C84.8483 4.0575 88.5999 5.4186 86.0344 8.5347C86.0351 8.53426 85.285 9.4915 85.7946 10.0774Z" fill="#F2F2F2"/>
<path d="M80.4748 4.4514C80.1903 4.25532 79.615 3.82567 79.5172 3.48485C79.5172 3.48485 80.1151 3.39147 80.8483 3.66187C80.8483 3.66187 79.7655 2.85934 79.8267 2.2427C79.8267 2.2427 80.228 2.24725 80.5751 2.43445C80.5751 2.43445 79.6685 1.34592 80.1414 0.54187C80.1808 0.609903 80.2241 0.677503 80.2695 0.744887C79.8984 1.53919 80.7453 2.556 80.7453 2.556C80.3985 2.3688 79.9969 2.36425 79.9969 2.36425C79.9354 2.9811 81.0185 3.78342 81.0185 3.78342C80.2853 3.51324 79.6874 3.6064 79.6874 3.6064C79.7687 3.88829 80.1752 4.23084 80.4748 4.4514ZM79.5169 4.72397C79.5749 4.8401 79.699 4.96187 79.8534 5.07952C79.6231 4.9259 79.4258 4.75907 79.3467 4.60242C79.3467 4.60242 80.0468 4.41197 80.6169 4.55237C80.7301 4.63124 80.8065 4.6789 80.8065 4.6789C80.2325 4.52919 79.5169 4.72397 79.5169 4.72397ZM79.5971 5.98367C79.6762 6.05755 79.7571 6.12515 79.8383 6.18669C79.7043 6.09699 79.5623 5.98865 79.4265 5.8619C79.4265 5.8619 79.9593 5.4927 80.7688 5.6175C80.9478 5.70439 81.0772 5.7605 81.0945 5.76809C80.1981 5.56724 79.5971 5.98367 79.5971 5.98367ZM79.9297 7.09755L79.9238 7.09322C79.9115 7.08542 79.8995 7.07762 79.8879 7.0696C79.7863 7.00114 79.6794 6.91707 79.5732 6.81415C79.5732 6.81415 79.8693 6.52794 80.5103 6.53942C80.7206 6.6198 80.83 6.60984 80.8427 6.61504C80.2023 6.6042 79.7434 6.93592 79.7434 6.93592C79.8053 6.99594 79.8682 7.04967 79.9297 7.09755ZM80.3778 7.91049C80.247 7.82404 80.1052 7.71397 79.9547 7.57574L80.446 7.33957C80.6261 7.40327 80.7618 7.37272 80.7618 7.37272L80.1253 7.69729C80.2125 7.77767 80.2976 7.8483 80.3778 7.91049ZM84.6133 9.51555C84.4125 9.56864 83.0002 9.89819 81.9297 9.06575C83.0617 9.79917 84.4677 9.3875 84.4677 9.3875C84.5173 9.43344 84.5661 9.47612 84.6133 9.51555ZM81.9293 9.06532C81.9293 9.06532 81.6016 9.0326 81.0217 8.59667C81.4947 8.91734 81.7588 8.94377 81.7588 8.94377C81.8147 8.98775 81.8713 9.02805 81.9293 9.06532Z" fill="#EAEAEA"/>
<path d="M81.205 8.24481L81.0471 8.28858C80.9448 8.25153 80.8221 8.19693 80.6832 8.11633C80.5882 8.06108 80.4859 7.99304 80.3779 7.91028C80.424 7.94126 80.469 7.96921 80.5126 7.99456C80.929 8.23723 81.205 8.24481 81.205 8.24481Z" fill="#EAEAEA"/>
<path d="M89.6902 12.8557C89.6902 12.8557 89.5509 13.18 90.6049 13.7646C90.6049 13.7646 89.6483 14.6456 90.9242 15.4804C90.9242 15.4804 90.9302 15.7148 91.6831 16.1926L91.9662 15.9193C91.9662 15.9193 91.938 16.0888 92.2672 16.3778C92.3991 16.4931 92.5876 16.6276 92.8591 16.7786L93.3099 16.5134C93.3099 16.5134 93.3669 16.661 93.6243 16.864L93.6324 16.8699C93.6429 16.8785 93.6538 16.887 93.6651 16.8952C93.7604 16.9671 93.8796 17.0445 94.0298 17.1242C94.0298 17.1242 94.5323 16.9851 94.6072 16.5927C94.6072 16.5927 94.8572 16.9791 95.5338 17.35C95.5338 17.35 96.2899 17.0441 96.0972 16.4686C96.1292 16.5069 96.8322 17.3717 97.5454 17.5818C97.5454 17.5818 97.9621 17.1738 97.8053 16.8025C97.8053 16.8025 98.6507 17.4939 99.3649 17.6399C99.3649 17.6399 99.6016 17.2889 99.2742 16.8029C99.2742 16.8029 100.406 17.5797 101.405 17.6319C101.405 17.6319 101.456 17.3866 101.206 17.1478C101.206 17.1478 102.822 17.8585 104.182 17.6869C103.294 17.3935 102.476 16.9726 101.699 16.4792C101.157 16.136 100.634 15.7581 100.121 15.3645L100.468 15.3775C100.332 15.3192 100.203 15.2533 100.085 15.1809C99.9874 15.1216 99.8963 15.0577 99.8144 14.9896C99.6234 14.8302 99.3983 14.6027 99.2207 14.3069C99.2207 14.3069 97.5798 11.8224 92.2032 12.9337C92.2028 12.933 90.5567 13.2513 89.6902 12.8557Z" fill="#F2F2F2"/>
<path d="M97.952 16.9154C98.2256 17.1173 98.8322 17.5305 99.365 17.6395C99.365 17.6395 99.6017 17.2885 99.2743 16.8025C99.2743 16.8025 100.406 17.5793 101.405 17.6315C101.405 17.6315 101.456 17.3862 101.206 17.1474C101.206 17.1474 102.822 17.8581 104.182 17.6865C104.079 17.6525 103.976 17.6165 103.875 17.579C102.545 17.69 101.035 17.0259 101.035 17.0259C101.285 17.2644 101.234 17.5099 101.234 17.5099C100.235 17.4577 99.1037 16.6812 99.1037 16.6812C99.4311 17.1674 99.1944 17.5182 99.1944 17.5182C98.7538 17.4278 98.2629 17.1303 97.952 16.9154ZM97.3753 17.4601C97.1973 17.4079 97.0197 17.3145 96.8534 17.2033C97.0665 17.3661 97.306 17.5106 97.5458 17.5816C97.5458 17.5816 97.9534 17.1825 97.8106 16.8146C97.7002 16.734 97.6352 16.6807 97.6352 16.6807C97.792 17.0519 97.3753 17.4601 97.3753 17.4601ZM95.3637 17.228C95.2568 17.1691 95.1601 17.11 95.0725 17.0515C95.1974 17.1464 95.3504 17.2486 95.5343 17.3496C95.5343 17.3496 96.2042 17.0785 96.1219 16.567C96.0083 16.4452 95.9369 16.3583 95.9275 16.3466C96.1198 16.9221 95.3637 17.228 95.3637 17.228ZM93.6237 16.8636L93.6296 16.8679C93.6402 16.8766 93.6511 16.8851 93.6623 16.8933C93.7576 16.965 93.8769 17.0426 94.027 17.1223C94.027 17.1223 94.5296 16.9832 94.6045 16.5908C94.506 16.4511 94.5377 16.3856 94.5313 16.3772C94.4557 16.7691 93.8565 17.0005 93.8565 17.0005C93.7686 16.9542 93.6915 16.908 93.6237 16.8636ZM92.3833 16.4723C92.5033 16.5646 92.659 16.6671 92.8595 16.7787L93.31 16.5135C93.234 16.3943 93.3026 16.3161 93.3026 16.3161L92.6889 16.6571C92.5722 16.5923 92.4713 16.5302 92.3833 16.4723ZM90.4207 13.6572C90.3064 13.7718 89.5717 14.5847 90.7533 15.3584C89.7398 14.5617 90.6053 13.7646 90.6053 13.7646C90.5388 13.7278 90.4773 13.6916 90.4207 13.6572ZM90.7541 15.3589C90.7541 15.3589 90.759 15.5636 91.3748 15.9803C90.9285 15.6455 90.9246 15.4804 90.9246 15.4804C90.862 15.4399 90.8054 15.3994 90.7541 15.3589Z" fill="#EAEAEA"/>
<path d="M91.9667 15.9194L91.8735 16.0093C91.9182 16.0771 91.9878 16.1599 92.0972 16.2563C92.1721 16.3222 92.2663 16.3945 92.3838 16.4723C92.3409 16.4398 92.3022 16.4084 92.2678 16.3778C91.9382 16.0888 91.9667 15.9194 91.9667 15.9194Z" fill="#EAEAEA"/>
<path d="M91.5147 13.8578C89.2566 15.0596 85.8447 14.9062 83.8936 13.515C81.9429 12.1238 82.1919 10.0217 84.45 8.81985C86.708 7.618 90.1199 7.7714 92.071 9.16262C94.0221 10.5538 93.7727 12.6559 91.5147 13.8578Z" fill="#FF9E02"/>
<path d="M91.5149 13.8578C89.8455 14.7463 87.5459 14.8941 85.6719 14.3488C87.5115 14.8343 89.7196 14.6686 91.3362 13.8082C93.5943 12.6063 93.8432 10.5042 91.8925 9.11301C91.3851 8.75118 90.7788 8.47298 90.1198 8.28058C90.8481 8.47341 91.518 8.76808 92.0712 9.16263C94.0219 10.5538 93.7726 12.6559 91.5149 13.8578Z" fill="#FFA30F"/>
<path d="M87.9824 14.1468C90.4995 14.1468 92.5401 12.8896 92.5401 11.3388C92.5401 9.78801 90.4995 8.53082 87.9824 8.53082C85.4653 8.53082 83.4248 9.78801 83.4248 11.3388C83.4248 12.8896 85.4653 14.1468 87.9824 14.1468Z" fill="#FFA30F"/>
<path d="M87.0221 14.0837C86.087 13.96 85.2071 13.6547 84.5337 13.1744C82.8882 12.0009 83.0981 10.2275 85.0031 9.21372C86.1545 8.60077 87.6618 8.40577 89.0371 8.60684C87.6885 8.42896 86.2248 8.62894 85.1005 9.22737C83.1959 10.2412 82.9856 12.0146 84.6311 13.188C85.2813 13.6517 86.1236 13.9522 87.0221 14.0837Z" fill="#F7960D"/>
<path d="M90.9624 13.4637C89.9591 13.9978 88.6857 14.2146 87.4644 14.1286C88.5672 14.1499 89.6855 13.926 90.5858 13.4468C92.4904 12.433 92.7007 10.6598 91.0552 9.48633C90.2773 8.93145 89.2234 8.61013 88.1276 8.53235C89.3563 8.55662 90.565 8.88508 91.4319 9.50323C93.0773 10.6767 92.867 12.4497 90.9624 13.4637Z" fill="#DB8307"/>
<path d="M87.8633 8.77869L88.0117 8.51999L87.9101 8.25262L88.3299 8.34406L88.7639 8.28144L88.6155 8.54036L88.7171 8.80751L88.2969 8.71607L87.8633 8.77869Z" fill="white"/>
<path d="M87.3223 8.65348L87.3754 8.56118L87.3391 8.46606L87.489 8.49856L87.6433 8.47625L87.5906 8.56855L87.6268 8.66388L87.477 8.63116L87.3223 8.65348Z" fill="white"/>
<path d="M63.4625 12.4126C63.4625 12.4126 63.1123 12.4248 62.6502 11.9386C62.6502 11.9386 61.623 12.1962 60.933 11.5913C60.933 11.5913 60.6935 11.5585 60.3017 11.2034L60.6186 11.1289C60.6186 11.1289 60.4414 11.1178 60.1878 10.9523C60.0869 10.886 59.9733 10.7952 59.8541 10.67L60.1846 10.5292C60.1846 10.5292 60.0408 10.4878 59.8664 10.3612L59.8615 10.3573C59.8541 10.3521 59.8467 10.3467 59.8397 10.3413C59.7785 10.2949 59.7145 10.2384 59.6526 10.1697C59.6526 10.1697 59.8604 9.99225 60.2722 10.0141C60.2722 10.0141 59.9089 9.86658 59.6167 9.55502C59.6167 9.55502 60.0285 9.30065 60.5933 9.45037C60.5581 9.43303 59.7633 9.04715 59.6406 8.7423C59.6406 8.7423 60.1129 8.63332 60.473 8.74252C60.473 8.74252 59.8745 8.3237 59.8175 8.02687C59.8175 8.02687 60.2079 7.9805 60.6636 8.17095C60.6636 8.17095 60.0148 7.62993 60.0911 7.2343C60.0911 7.2343 60.3492 7.24643 60.5613 7.3747C60.5613 7.3747 60.0429 6.65342 60.3956 6.14685C60.581 6.53057 60.9059 6.90345 61.3103 7.27005C61.5917 7.52507 61.911 7.7777 62.2475 8.02882L62.2795 7.89188C62.3217 7.95255 62.372 8.01127 62.4311 8.06652C62.4793 8.11245 62.5331 8.15622 62.5922 8.19695C62.7307 8.29185 62.9347 8.40907 63.2146 8.51675C63.2146 8.51675 65.5476 9.4781 63.7098 11.4253C63.7098 11.4251 63.1696 12.0242 63.4625 12.4126Z" fill="#F2F2F2"/>
<path d="M60.376 8.6708C60.2047 8.5382 59.8601 8.24852 59.8175 8.02687C59.8175 8.02687 60.2079 7.9805 60.6636 8.17095C60.6636 8.17095 60.0148 7.62993 60.0911 7.2343C60.0911 7.2343 60.3492 7.24643 60.5613 7.3747C60.5613 7.3747 60.0429 6.65342 60.3956 6.14685C60.4171 6.19148 60.4407 6.23612 60.466 6.28032C60.1794 6.78298 60.664 7.45682 60.664 7.45682C60.4519 7.32855 60.1938 7.31642 60.1938 7.31642C60.1171 7.71205 60.7663 8.25307 60.7663 8.25307C60.3105 8.0624 59.9202 8.10898 59.9202 8.10898C59.955 8.29228 60.1962 8.52195 60.376 8.6708ZM59.7426 8.82442C59.7728 8.90047 59.8456 8.98172 59.9378 9.06102C59.7989 8.95702 59.6818 8.845 59.6403 8.7423C59.6403 8.7423 60.1024 8.6357 60.4607 8.73905C60.5289 8.79235 60.5753 8.82485 60.5753 8.82485C60.2152 8.71522 59.7426 8.82442 59.7426 8.82442ZM59.719 9.63692C59.7655 9.68632 59.8136 9.7316 59.8622 9.7732C59.7813 9.71232 59.6962 9.63952 59.6167 9.5548C59.6167 9.5548 59.9817 9.32947 60.4952 9.42805C60.6052 9.48807 60.6851 9.52707 60.6956 9.53248C60.1308 9.38255 59.719 9.63692 59.719 9.63692ZM59.8664 10.3615L59.8629 10.3586C59.8555 10.3534 59.8481 10.348 59.8411 10.3426C59.7799 10.2962 59.7159 10.2397 59.654 10.171C59.654 10.171 59.8618 9.99355 60.2736 10.0154C60.4041 10.072 60.4751 10.0681 60.4829 10.0716C60.0714 10.0501 59.7563 10.2531 59.7563 10.2531C59.7922 10.2932 59.8295 10.3292 59.8664 10.3615ZM60.1059 10.8949C60.0267 10.8362 59.942 10.7623 59.8537 10.6698L60.1843 10.5289C60.2965 10.574 60.3854 10.5575 60.3854 10.5575L59.9561 10.7519C60.0074 10.8056 60.058 10.8531 60.1059 10.8949ZM62.736 12.0244C62.6038 12.054 61.675 12.2339 61.0357 11.6738C61.7204 12.1717 62.6498 11.9386 62.6498 11.9386C62.679 11.9693 62.7079 11.9979 62.736 12.0244ZM61.0353 11.6734C61.0353 11.6734 60.8261 11.6448 60.4793 11.3512C60.7645 11.5683 60.933 11.5913 60.933 11.5913C60.9664 11.6209 61.0005 11.6482 61.0353 11.6734ZM60.6183 11.1289L60.5142 11.1534C60.4505 11.1272 60.3745 11.0892 60.2901 11.0342C60.2321 10.9965 60.1706 10.9504 60.1062 10.8947C60.134 10.9157 60.1611 10.9348 60.1878 10.9521C60.441 11.1178 60.6183 11.1289 60.6183 11.1289Z" fill="#EAEAEA"/>
<path d="M65.8034 14.2896C65.8034 14.2896 65.6944 14.495 66.3376 14.8954C66.3376 14.8954 65.669 15.4405 66.4402 16.0071C66.4402 16.0071 66.43 16.1581 66.8862 16.4829L67.0849 16.3135C67.0849 16.3135 67.0567 16.4218 67.2508 16.6153C67.3289 16.6924 67.4421 16.7834 67.6078 16.8868L67.9137 16.7265C67.9137 16.7265 67.9415 16.8227 68.0952 16.9592L68.1001 16.9631C68.1064 16.9689 68.1128 16.9745 68.1198 16.9802C68.1768 17.0285 68.2489 17.0811 68.3407 17.1357C68.3407 17.1357 68.6723 17.0577 68.744 16.8068C68.744 16.8068 68.8819 17.0612 69.2951 17.3151C69.2951 17.3151 69.8001 17.1355 69.7104 16.7607C69.7287 16.786 70.1292 17.3585 70.5759 17.5101C70.5759 17.5101 70.8685 17.2571 70.7897 17.0144C70.7897 17.0144 71.2926 17.4787 71.7434 17.5888C71.7434 17.5888 71.9168 17.3682 71.735 17.048C71.735 17.048 72.4165 17.5736 73.0569 17.63C73.0569 17.63 73.1044 17.4733 72.9577 17.3138C72.9577 17.3138 73.9554 17.8081 74.8409 17.7285C74.2867 17.5195 73.7859 17.23 73.315 16.8948C72.9873 16.6617 72.6732 16.4064 72.3662 16.1415L72.5892 16.1577C72.5051 16.117 72.426 16.0719 72.3543 16.0225C72.2945 15.982 72.24 15.9389 72.1914 15.8932C72.0782 15.7861 71.9467 15.6347 71.8503 15.4403C71.8503 15.4403 70.9434 13.8038 67.4161 14.3969C67.4161 14.3966 66.3376 14.5639 65.8034 14.2896Z" fill="#F2F2F2"/>
<path d="M70.8776 17.0905C71.0415 17.2265 71.4072 17.5062 71.7438 17.5886C71.7438 17.5886 71.9172 17.3682 71.7354 17.0478C71.7354 17.0478 72.4169 17.5734 73.0573 17.6297C73.0573 17.6297 73.1047 17.4731 72.9581 17.3136C72.9581 17.3136 73.9558 17.8078 74.8413 17.7283C74.7769 17.7041 74.7129 17.6785 74.65 17.6521C73.7877 17.6932 72.8558 17.2315 72.8558 17.2315C73.0024 17.3908 72.9549 17.5476 72.9549 17.5476C72.3149 17.4913 71.633 16.9657 71.633 16.9657C71.8148 17.2861 71.6415 17.5065 71.6415 17.5065C71.3629 17.4386 71.0647 17.2358 70.8776 17.0905ZM70.4736 17.4278C70.3621 17.3901 70.2534 17.326 70.1528 17.2508C70.2801 17.3604 70.4257 17.4588 70.5759 17.5099C70.5759 17.5099 70.8622 17.2623 70.7925 17.0222C70.7264 16.9678 70.6874 16.9321 70.6874 16.9321C70.7662 17.1747 70.4736 17.4278 70.4736 17.4278ZM69.1928 17.2328C69.1274 17.1925 69.0686 17.1522 69.0159 17.1126C69.0905 17.1765 69.1829 17.2458 69.2951 17.3149C69.2951 17.3149 69.7428 17.1557 69.7203 16.8246C69.6545 16.7436 69.6137 16.6862 69.6081 16.6784C69.6978 17.0532 69.1928 17.2328 69.1928 17.2328ZM68.0945 16.9585L68.098 16.9613C68.1044 16.9672 68.1107 16.9728 68.1177 16.9784C68.1747 17.0268 68.2472 17.0794 68.3386 17.134C68.3386 17.134 68.6702 17.056 68.7419 16.8051C68.6871 16.7128 68.7114 16.6716 68.7078 16.666C68.6357 16.9165 68.2359 17.0519 68.2359 17.0519C68.1824 17.0203 68.1357 16.9888 68.0945 16.9585ZM67.3198 16.6786C67.3915 16.7408 67.4858 16.8101 67.6078 16.8866L67.9138 16.726C67.8719 16.6476 67.9208 16.5988 67.9208 16.5988L67.5055 16.8045C67.4341 16.7603 67.3729 16.7178 67.3198 16.6786ZM66.2254 14.822C66.1449 14.893 65.6234 15.3998 66.3376 15.9246C65.7331 15.3888 66.3379 14.8954 66.3379 14.8954C66.2971 14.8703 66.2595 14.8456 66.2254 14.822ZM66.3379 15.9248C66.3379 15.9248 66.3288 16.0565 66.7002 16.3388C66.4329 16.1133 66.4403 16.0069 66.4403 16.0069C66.4027 15.9794 66.3685 15.9521 66.3379 15.9248Z" fill="#EAEAEA"/>
<path d="M67.0849 16.3133L67.0195 16.369C67.0441 16.4136 67.0842 16.4684 67.1486 16.533C67.1929 16.5772 67.2492 16.6257 67.3202 16.6786C67.2945 16.6567 67.2717 16.6355 67.2513 16.6151C67.0568 16.4216 67.0849 16.3133 67.0849 16.3133Z" fill="#EAEAEA"/>
<path d="M67.2554 14.7925C68.6157 13.9543 68.6156 12.5955 67.2553 11.7574C65.895 10.9194 63.6895 10.9194 62.3292 11.7575C60.9689 12.5956 60.969 13.9544 62.3293 14.7925C63.6896 15.6306 65.8951 15.6306 67.2554 14.7925Z" fill="#FF9E02"/>
<path d="M66.9177 14.976C65.7899 15.5099 64.301 15.5528 63.1274 15.1591C64.2823 15.5136 65.7136 15.457 66.8055 14.9401C68.3307 14.2179 68.6173 12.8705 67.4449 11.9308C67.14 11.6864 66.7665 11.4936 66.3536 11.3547C66.8108 11.4953 67.2244 11.7003 67.5571 11.9668C68.7292 12.9067 68.4429 14.2539 66.9177 14.976Z" fill="#FFA30F"/>
<path d="M66.5857 14.7098C65.299 15.319 63.4545 15.1702 62.4656 14.3774C61.4767 13.5846 61.7183 12.4482 63.005 11.8389C64.2918 11.2297 66.1363 11.3785 67.1252 12.1713C68.1141 12.9641 67.8725 14.1007 66.5857 14.7098Z" fill="#FFA30F"/>
<path d="M64.0126 15.0194C63.4183 14.9184 62.87 14.702 62.4656 14.3776C61.4767 13.5848 61.7183 12.4482 63.005 11.8392C63.7829 11.4708 64.7648 11.3796 65.638 11.5402C64.7806 11.395 63.8265 11.4903 63.0669 11.85C61.7802 12.4593 61.5386 13.5957 62.5275 14.3885C62.9178 14.7018 63.4418 14.9143 64.0126 15.0194Z" fill="#F7960D"/>
<path d="M66.5854 14.7098C65.9078 15.0307 65.075 15.1414 64.2939 15.0582C65.0022 15.097 65.7354 14.9782 66.3438 14.6903C67.6306 14.081 67.8722 12.9446 66.8833 12.1518C66.4159 11.777 65.7569 11.5462 65.056 11.4713C65.8455 11.5148 66.6037 11.7538 67.1245 12.1713C68.1138 12.9641 67.8722 14.1005 66.5854 14.7098Z" fill="#DB8307"/>
<path d="M64.8721 11.624L64.9828 11.4609L64.9336 11.2864L65.1984 11.3549L65.4815 11.3244L65.3704 11.4877L65.42 11.6619L65.1548 11.5935L64.8721 11.624Z" fill="white"/>
<path d="M64.5312 11.531L64.5706 11.4729L64.5531 11.4108L64.6477 11.4353L64.7482 11.4242L64.7088 11.4825L64.7264 11.5447L64.6322 11.5202L64.5312 11.531Z" fill="white"/>
<path d="M78.5577 27.5188C78.5577 27.5188 78.2426 27.6139 77.5097 27.2772C77.5097 27.2772 76.7266 27.7608 75.7088 27.3693C75.7088 27.3693 75.4676 27.3966 74.8824 27.1635L75.1272 27.0187C75.1272 27.0187 74.957 27.051 74.6187 26.9594C74.4836 26.9225 74.3219 26.866 74.1327 26.7793L74.3479 26.5702C74.3479 26.5702 74.1893 26.5665 73.9487 26.492L73.9417 26.4896C73.9315 26.4866 73.9213 26.4833 73.9115 26.4801C73.8257 26.4519 73.7311 26.4153 73.6305 26.367C73.6305 26.367 73.71 26.1538 74.1031 26.0749C74.1031 26.0749 73.6751 26.0262 73.2092 25.8095C73.2092 25.8095 73.4279 25.4763 74.0426 25.4789C73.9994 25.4713 73.0235 25.3064 72.7175 25.0553C72.7175 25.0553 73.0836 24.8414 73.4845 24.856C73.4845 24.856 72.6683 24.6137 72.4285 24.3539C72.4285 24.3539 72.7587 24.2174 73.2989 24.2837C73.2989 24.2837 72.3592 23.941 72.1795 23.5583C72.1795 23.5583 72.425 23.5074 72.7014 23.5748C72.7014 23.5748 71.768 23.0349 71.773 22.4835C72.1862 22.7924 72.7211 23.0578 73.3256 23.2986C73.7458 23.466 74.1995 23.622 74.6683 23.7726L74.6113 23.6387C74.6883 23.6844 74.772 23.7265 74.8613 23.7631C74.9345 23.7939 75.0118 23.8214 75.092 23.8446C75.2798 23.8987 75.5415 23.9579 75.8674 23.9897C75.8674 23.9897 78.6238 24.3154 78.1617 26.5499C78.1614 26.5496 78.0425 27.2311 78.5577 27.5188Z" fill="#F2F2F2"/>
<path d="M73.3497 24.8124C73.1081 24.7314 72.6077 24.5472 72.4283 24.3533C72.4283 24.3533 72.7586 24.2168 73.2987 24.2831C73.2987 24.2831 72.3591 23.9404 72.1794 23.5577C72.1794 23.5577 72.4248 23.507 72.7012 23.5742C72.7012 23.5742 71.7679 23.0343 71.7725 22.4828C71.8203 22.5188 71.8702 22.5541 71.9216 22.589C71.9754 23.1207 72.8475 23.6253 72.8475 23.6253C72.5711 23.5579 72.3257 23.6089 72.3257 23.6089C72.5054 23.9915 73.445 24.3343 73.445 24.3343C72.9048 24.268 72.5746 24.4045 72.5746 24.4045C72.7227 24.5648 73.0902 24.7184 73.3497 24.8124ZM72.8637 25.1058C72.9397 25.1686 73.0582 25.2258 73.1929 25.2768C72.9991 25.2141 72.8208 25.1392 72.7174 25.0547C72.7174 25.0547 73.0754 24.8456 73.471 24.8547C73.5677 24.8874 73.6307 24.9063 73.6307 24.9063C73.2298 24.892 72.8637 25.1058 72.8637 25.1058ZM73.3553 25.86C73.4292 25.8943 73.5023 25.9246 73.5734 25.9512C73.4605 25.9146 73.336 25.8678 73.209 25.8091C73.209 25.8091 73.4028 25.514 73.9381 25.4815C74.0773 25.5103 74.1754 25.5272 74.1888 25.5296C73.5741 25.527 73.3553 25.86 73.3553 25.86ZM73.949 26.4918L73.9437 26.4901C73.9335 26.4871 73.9233 26.484 73.9134 26.4806C73.8276 26.4526 73.7334 26.4158 73.6325 26.3675C73.6325 26.3675 73.7116 26.1543 74.1051 26.0754C74.2609 26.0962 74.3242 26.0756 74.3333 26.0769C73.9405 26.1558 73.7787 26.4184 73.7787 26.4184C73.8375 26.447 73.8948 26.471 73.949 26.4918ZM74.507 26.9258C74.3973 26.8907 74.2725 26.843 74.1325 26.7791L74.3477 26.5703C74.4796 26.5848 74.551 26.5482 74.551 26.5482L74.2785 26.8303C74.3597 26.8673 74.4364 26.8987 74.507 26.9258ZM77.6432 27.3351C77.5402 27.394 76.7982 27.7827 75.8557 27.42C76.801 27.7143 77.51 27.2766 77.51 27.2766C77.5557 27.298 77.6007 27.3175 77.6432 27.3351ZM75.855 27.42C75.855 27.42 75.6443 27.4439 75.139 27.2567C75.5388 27.3882 75.7087 27.3689 75.7087 27.3689C75.7583 27.388 75.8068 27.4051 75.855 27.42ZM75.1267 27.0183L75.0462 27.066C74.9709 27.0571 74.8774 27.0404 74.7645 27.0101C74.6875 26.9893 74.6013 26.9616 74.5067 26.9258C74.5454 26.9384 74.5827 26.9494 74.6182 26.9592C74.9565 27.0506 75.1267 27.0183 75.1267 27.0183Z" fill="#EAEAEA"/>
<path d="M81.9004 28.6856C81.9004 28.6856 81.9299 28.9011 82.7753 29.1152C82.7753 29.1152 82.5042 29.7778 83.5726 30.1145C83.5726 30.1145 83.6584 30.256 84.284 30.4458L84.36 30.2421C84.36 30.2421 84.4025 30.3487 84.7039 30.4802C84.8245 30.5326 84.9863 30.5892 85.2043 30.6444L85.3851 30.4232C85.3851 30.4232 85.4716 30.5051 85.6991 30.5942L85.7061 30.5966C85.7156 30.6002 85.7251 30.6041 85.735 30.6076C85.818 30.6386 85.9179 30.6696 86.0367 30.698C86.0367 30.698 86.2931 30.5465 86.2006 30.2982C86.2006 30.2982 86.4883 30.4995 87.0295 30.6343C87.0295 30.6343 87.3811 30.3476 87.0618 30.0239C87.0949 30.043 87.8257 30.4741 88.3324 30.5066C88.3324 30.5066 88.4418 30.2033 88.216 29.9988C88.216 29.9988 88.9724 30.3058 89.4574 30.2991C89.4574 30.2991 89.4778 30.0545 89.1078 29.8029C89.1078 29.8029 90.0679 30.1236 90.6932 30.0217C90.6932 30.0217 90.6379 29.866 90.402 29.7544C90.402 29.7544 91.6332 29.9702 92.3988 29.6846C91.7563 29.625 91.1116 29.4786 90.4663 29.2827C90.0173 29.1466 89.5668 28.9869 89.1163 28.8164L89.3319 28.7779C89.2285 28.7605 89.1272 28.738 89.0301 28.7096C88.9496 28.6866 88.8719 28.66 88.798 28.6297C88.6261 28.5584 88.4094 28.4503 88.1977 28.2943C88.1977 28.2943 86.3279 27.0047 83.4537 28.397C83.4534 28.3974 82.5657 28.8101 81.9004 28.6856Z" fill="#F2F2F2"/>
<path d="M88.3442 30.0482C88.5812 30.1342 89.0946 30.3041 89.4569 30.2993C89.4569 30.2993 89.4773 30.0547 89.1073 29.8032C89.1073 29.8032 90.0674 30.1238 90.6926 30.022C90.6926 30.022 90.6374 29.8662 90.4014 29.7546C90.4014 29.7546 91.6326 29.9704 92.3982 29.6849C92.3233 29.6781 92.2484 29.6697 92.1739 29.6606C91.4058 29.9052 90.2551 29.7037 90.2551 29.7037C90.4911 29.8153 90.5463 29.9711 90.5463 29.9711C89.9211 30.0727 88.961 29.7523 88.961 29.7523C89.331 30.0038 89.3106 30.2484 89.3106 30.2484C89.0109 30.2523 88.6083 30.1373 88.3442 30.0482ZM88.1852 30.4558C88.059 30.448 87.9183 30.4148 87.778 30.3695C87.9647 30.44 88.1606 30.4956 88.3315 30.5069C88.3315 30.5069 88.4388 30.2103 88.2225 30.0058C88.1272 29.9715 88.0688 29.9479 88.0688 29.9479C88.2949 30.1524 88.1852 30.4558 88.1852 30.4558ZM86.8826 30.5836C86.7968 30.5622 86.7174 30.539 86.6439 30.5154C86.7529 30.5563 86.8819 30.5979 87.0289 30.6347C87.0289 30.6347 87.3405 30.3808 87.1105 30.0811C86.9987 30.0224 86.9248 29.9791 86.915 29.9733C87.234 30.2967 86.8826 30.5836 86.8826 30.5836ZM85.6975 30.5944L85.7028 30.5962C85.7123 30.5999 85.7218 30.6038 85.7316 30.6072C85.8146 30.6382 85.9145 30.6692 86.0334 30.6976C86.0334 30.6976 86.2894 30.5461 86.1972 30.2978C86.0882 30.2261 86.0847 30.1821 86.0777 30.178C86.1695 30.4261 85.8871 30.6466 85.8871 30.6466C85.8174 30.63 85.7545 30.6124 85.6975 30.5944ZM84.8067 30.5223C84.9119 30.5624 85.0427 30.6038 85.2034 30.6447L85.3838 30.4235C85.2959 30.3613 85.31 30.3048 85.31 30.3048L85.0571 30.5938C84.9639 30.5702 84.8809 30.5457 84.8067 30.5223ZM82.6253 29.075C82.5962 29.1599 82.4361 29.7516 83.4254 30.0636C82.53 29.7152 82.7752 29.1155 82.7752 29.1155C82.7221 29.102 82.6721 29.0884 82.6253 29.075ZM83.4261 30.0636C83.4261 30.0636 83.501 30.1871 84.0215 30.3581C83.6329 30.2144 83.5724 30.1147 83.5724 30.1147C83.5203 30.0985 83.4715 30.0814 83.4261 30.0636ZM84.3594 30.2424L84.3345 30.3095C84.3854 30.3446 84.4568 30.3858 84.5571 30.4295C84.6256 30.4597 84.7083 30.4909 84.8067 30.5225C84.7691 30.5084 84.7347 30.4946 84.703 30.4807C84.402 30.349 84.3594 30.2424 84.3594 30.2424Z" fill="#EAEAEA"/>
<path d="M80.3285 30.1388C82.2523 30.1388 83.8118 29.1779 83.8118 27.9927C83.8118 26.8075 82.2523 25.8466 80.3285 25.8466C78.4047 25.8466 76.8452 26.8075 76.8452 27.9927C76.8452 29.1779 78.4047 30.1388 80.3285 30.1388Z" fill="#FF9E02"/>
<path d="M83.3602 29.0507C82.659 29.813 81.3145 30.2097 79.9849 30.1286C81.2727 30.178 82.5552 29.7826 83.2343 29.0444C84.1827 28.0133 83.5951 26.7036 81.9215 26.1192C81.4861 25.9671 81.0202 25.8792 80.5525 25.8503C81.0624 25.8703 81.573 25.9598 82.0474 26.1255C83.7206 26.7099 84.3086 28.0196 83.3602 29.0507Z" fill="#FFA30F"/>
<path d="M80.3298 29.8014C81.9525 29.8014 83.268 28.9909 83.268 27.9912C83.268 26.9914 81.9525 26.1809 80.3298 26.1809C78.7071 26.1809 77.3916 26.9914 77.3916 27.9912C77.3916 28.9909 78.7071 29.8014 80.3298 29.8014Z" fill="#FFA30F"/>
<path d="M80.7115 29.7876C80.1003 29.8372 79.4585 29.7694 78.8807 29.5675C77.4688 29.0745 76.9729 27.9698 77.7733 27.0998C78.2569 26.574 79.1037 26.2544 80.0096 26.1929C79.1279 26.2648 78.3096 26.5816 77.8373 27.0951C77.0373 27.965 77.5331 29.0698 78.9447 29.5627C79.5028 29.7575 80.1197 29.8277 80.7115 29.7876Z" fill="#F7960D"/>
<path d="M82.8858 28.8852C82.4642 29.3434 81.7675 29.645 80.9956 29.7557C81.6726 29.6214 82.2729 29.3363 82.6512 28.925C83.4513 28.0551 82.9554 26.9506 81.5438 26.4576C80.8764 26.2245 80.1235 26.1699 79.4307 26.2691C80.1853 26.1199 81.0346 26.158 81.7784 26.4178C83.1904 26.9107 83.6862 28.0153 82.8858 28.8852Z" fill="#DB8307"/>
<path d="M79.357 26.4541L79.356 26.2771L79.2002 26.1283L79.4875 26.1278L79.7291 26.0319L79.7298 26.2089L79.8856 26.3575L79.5983 26.3582L79.357 26.4541Z" fill="white"/>
<path d="M78.9846 26.4503L78.9843 26.387L78.9287 26.3341L79.0311 26.3339L79.1172 26.2997L79.1176 26.3627L79.1731 26.4158L79.0708 26.416L78.9846 26.4503Z" fill="white"/>
<path d="M50.6046 37.055C50.6046 37.055 50.2895 37.1502 49.5566 36.8135C49.5566 36.8135 48.7734 37.2971 47.7557 36.9055C47.7557 36.9055 47.5145 36.9328 46.9293 36.6997L47.1741 36.555C47.1741 36.555 47.0038 36.5873 46.6655 36.4956C46.5305 36.4588 46.3687 36.4022 46.1795 36.3156L46.3948 36.1065C46.3948 36.1065 46.2362 36.1028 45.9956 36.0283L45.9886 36.0259C45.9784 36.0228 45.9682 36.0196 45.9583 36.0163C45.8725 35.9882 45.7779 35.9516 45.6774 35.9032C45.6774 35.9032 45.7568 35.69 46.15 35.6112C46.15 35.6112 45.722 35.5624 45.2561 35.3458C45.2561 35.3458 45.4748 35.0127 46.0895 35.0151C46.0463 35.0075 45.0704 34.8427 44.7644 34.5915C44.7644 34.5915 45.1305 34.3777 45.5314 34.3922C45.5314 34.3922 44.7152 34.15 44.4754 33.8902C44.4754 33.8902 44.8056 33.7537 45.3457 33.82C45.3457 33.82 44.4061 33.4772 44.2264 33.0946C44.2264 33.0946 44.4718 33.0437 44.7482 33.1111C44.7482 33.1111 43.8149 32.5711 43.8198 32.0197C44.2331 32.3287 44.7679 32.5941 45.3725 32.8348C45.7927 33.0023 46.2464 33.1583 46.7151 33.3089L46.6582 33.175C46.7352 33.2207 46.8189 33.2627 46.9082 33.2993C46.9813 33.3301 47.0587 33.3576 47.1389 33.3808C47.3267 33.435 47.5883 33.4941 47.9143 33.526C47.9143 33.526 50.6707 33.8516 50.2086 36.0861C50.2083 36.0859 50.0894 36.7673 50.6046 37.055Z" fill="#F2F2F2"/>
<path d="M45.3966 34.3486C45.155 34.2675 44.6546 34.0834 44.4752 33.8895C44.4752 33.8895 44.8054 33.753 45.3456 33.8193C45.3456 33.8193 44.4059 33.4765 44.2262 33.0939C44.2262 33.0939 44.4717 33.0432 44.7481 33.1103C44.7481 33.1103 43.8148 32.5704 43.8194 32.019C43.8672 32.0549 43.9171 32.0903 43.9685 32.1251C44.0223 32.6568 44.8944 33.1615 44.8944 33.1615C44.618 33.0941 44.3725 33.145 44.3725 33.145C44.5522 33.5276 45.4919 33.8704 45.4919 33.8704C44.9517 33.8041 44.6215 33.9406 44.6215 33.9406C44.7696 34.1011 45.1367 34.2548 45.3966 34.3486ZM44.9106 34.6419C44.9865 34.7048 45.105 34.762 45.2397 34.8129C45.046 34.7503 44.8677 34.6753 44.7643 34.5908C44.7643 34.5908 45.1223 34.3817 45.5179 34.3908C45.6146 34.4235 45.6776 34.4424 45.6776 34.4424C45.2767 34.4283 44.9106 34.6419 44.9106 34.6419ZM45.4019 35.3964C45.4757 35.4306 45.5489 35.4609 45.6199 35.4876C45.507 35.451 45.3825 35.4042 45.2556 35.3455C45.2556 35.3455 45.4493 35.0504 45.9846 35.0179C46.1238 35.0467 46.222 35.0636 46.2353 35.066C45.6206 35.0631 45.4019 35.3964 45.4019 35.3964ZM45.9955 36.0282L45.9902 36.0264C45.98 36.0234 45.9698 36.0204 45.96 36.0169C45.8742 35.989 45.7799 35.9521 45.679 35.9038C45.679 35.9038 45.7581 35.6906 46.1516 35.6117C46.3074 35.6325 46.3707 35.612 46.3798 35.6133C45.987 35.6921 45.8253 35.9547 45.8253 35.9547C45.8843 35.9831 45.9413 36.0074 45.9955 36.0282ZM46.5536 36.4619C46.4439 36.4268 46.319 36.3792 46.179 36.3153L46.3943 36.1064C46.5261 36.1209 46.5975 36.0843 46.5975 36.0843L46.325 36.3664C46.4066 36.4034 46.4829 36.4349 46.5536 36.4619ZM49.6898 36.8714C49.5867 36.9304 48.8447 37.3191 47.9022 36.9564C48.8475 37.2506 49.5565 36.8129 49.5565 36.8129C49.6025 36.8344 49.6472 36.8537 49.6898 36.8714ZM47.9015 36.9562C47.9015 36.9562 47.6909 36.98 47.1855 36.7928C47.5854 36.9243 47.7552 36.905 47.7552 36.905C47.8048 36.9243 47.8533 36.9412 47.9015 36.9562ZM47.1732 36.5547L47.0927 36.6023C47.0174 36.5935 46.9239 36.5768 46.811 36.5464C46.734 36.5256 46.6478 36.4979 46.5532 36.4622C46.5919 36.4747 46.6292 36.4858 46.6647 36.4955C47.003 36.587 47.1732 36.5547 47.1732 36.5547Z" fill="#EAEAEA"/>
<path d="M53.9468 38.2219C53.9468 38.2219 53.9763 38.4375 54.8217 38.6516C54.8217 38.6516 54.5506 39.3142 55.619 39.6509C55.619 39.6509 55.7048 39.7923 56.3304 39.9821L56.4063 39.7785C56.4063 39.7785 56.4489 39.8851 56.7503 40.0166C56.8709 40.069 57.0327 40.1256 57.2507 40.1808L57.4315 39.9596C57.4315 39.9596 57.518 40.0415 57.7455 40.1306L57.7525 40.1329C57.762 40.1366 57.7715 40.1405 57.7814 40.144C57.8644 40.175 57.9642 40.206 58.0831 40.2343C58.0831 40.2343 58.3395 40.0829 58.247 39.8346C58.247 39.8346 58.5346 40.0359 59.0759 40.1706C59.0759 40.1706 59.4275 39.884 59.1082 39.5603C59.1409 39.5794 59.8717 40.0105 60.3788 40.043C60.3788 40.043 60.4882 39.7397 60.2624 39.5352C60.2624 39.5352 61.0188 39.8422 61.5038 39.8355C61.5038 39.8355 61.5242 39.5908 61.1542 39.3393C61.1542 39.3393 62.1143 39.66 62.7395 39.5581C62.7395 39.5581 62.6843 39.4023 62.4484 39.2908C62.4484 39.2908 63.6796 39.5066 64.4451 39.221C63.8026 39.1614 63.158 39.0149 62.5127 38.8191C62.0636 38.683 61.6131 38.5233 61.1627 38.3528L61.3782 38.3142C61.2748 38.2969 61.1736 38.2744 61.0765 38.246C60.996 38.223 60.9183 38.1964 60.8444 38.166C60.6724 38.0948 60.4558 37.9866 60.2441 37.8306C60.2441 37.8306 58.3743 36.541 55.5001 37.9333C55.4997 37.9336 54.6121 38.3465 53.9468 38.2219Z" fill="#F2F2F2"/>
<path d="M60.3907 39.5846C60.6277 39.6706 61.1412 39.8404 61.5034 39.8357C61.5034 39.8357 61.5238 39.5911 61.1538 39.3395C61.1538 39.3395 62.1139 39.6602 62.7391 39.5584C62.7391 39.5584 62.6839 39.4026 62.448 39.291C62.448 39.291 63.6792 39.5068 64.4447 39.2212C64.3698 39.2145 64.2949 39.206 64.2204 39.1969C63.4523 39.4418 62.3017 39.2401 62.3017 39.2401C62.5376 39.3516 62.5929 39.5074 62.5929 39.5074C61.9676 39.6091 61.0075 39.2886 61.0075 39.2886C61.3775 39.5401 61.3571 39.7848 61.3571 39.7848C61.0578 39.7887 60.6552 39.6734 60.3907 39.5846ZM60.2321 39.9921C60.1059 39.9843 59.9652 39.9512 59.8249 39.9059C60.0116 39.9763 60.2075 40.032 60.3784 40.0433C60.3784 40.0433 60.4857 39.7466 60.2694 39.5421C60.1741 39.5079 60.1157 39.4842 60.1157 39.4842C60.3415 39.6888 60.2321 39.9921 60.2321 39.9921ZM58.9292 40.1197C58.8434 40.0983 58.7639 40.0751 58.6904 40.0515C58.7994 40.0924 58.9285 40.134 59.0755 40.1709C59.0755 40.1709 59.387 39.9169 59.157 39.6173C59.0452 39.5586 58.9714 39.5152 58.9615 39.5094C59.2808 39.8331 58.9292 40.1197 58.9292 40.1197ZM57.7444 40.1306L57.7497 40.1323C57.7592 40.136 57.7687 40.1399 57.7785 40.1434C57.8615 40.1743 57.9614 40.2053 58.0802 40.2337C58.0802 40.2337 58.3363 40.0822 58.2441 39.8339C58.1351 39.7622 58.1316 39.7182 58.1245 39.7141C58.2163 39.9622 57.9339 40.1828 57.9339 40.1828C57.8643 40.1663 57.801 40.1486 57.7444 40.1306ZM56.8536 40.0586C56.9588 40.0987 57.0896 40.1401 57.2503 40.181L57.4307 39.9598C57.3428 39.8977 57.3569 39.8411 57.3569 39.8411L57.104 40.1301C57.0105 40.1063 56.9275 40.082 56.8536 40.0586ZM54.6722 38.6111C54.643 38.696 54.483 39.2877 55.4723 39.5997C54.5769 39.2513 54.822 38.6516 54.822 38.6516C54.7686 38.6384 54.7186 38.6245 54.6722 38.6111ZM55.473 39.5999C55.473 39.5999 55.5479 39.7235 56.0683 39.8944C55.6797 39.7508 55.6193 39.6511 55.6193 39.6511C55.5669 39.6346 55.5183 39.6177 55.473 39.5999ZM56.4063 39.7785L56.3813 39.8454C56.4323 39.8805 56.5037 39.9217 56.6039 39.9655C56.6725 39.9956 56.7552 40.0268 56.8536 40.0584C56.816 40.0443 56.7815 40.0305 56.7499 40.0166C56.4485 39.8851 56.4063 39.7785 56.4063 39.7785Z" fill="#EAEAEA"/>
<path d="M52.3759 39.6749C54.2996 39.6749 55.8591 38.7141 55.8591 37.5288C55.8591 36.3436 54.2996 35.3828 52.3759 35.3828C50.4521 35.3828 48.8926 36.3436 48.8926 37.5288C48.8926 38.7141 50.4521 39.6749 52.3759 39.6749Z" fill="#FF9E02"/>
<path d="M55.4071 38.5871C54.7058 39.3493 53.3614 39.7461 52.0317 39.665C53.3195 39.7144 54.6021 39.319 55.2812 38.5808C56.2296 37.5497 55.642 36.24 53.9684 35.6556C53.533 35.5035 53.0671 35.4155 52.5993 35.3867C53.1093 35.4067 53.6199 35.4961 54.0943 35.6619C55.7679 36.2462 56.3555 37.556 55.4071 38.5871Z" fill="#FFA30F"/>
<path d="M52.3776 39.3378C54.0004 39.3378 55.3158 38.5273 55.3158 37.5275C55.3158 36.5278 54.0004 35.7173 52.3776 35.7173C50.7549 35.7173 49.4395 36.5278 49.4395 37.5275C49.4395 38.5273 50.7549 39.3378 52.3776 39.3378Z" fill="#FFA30F"/>
<path d="M52.7584 39.3239C52.1472 39.3735 51.5054 39.3057 50.9276 39.1038C49.5156 38.6109 49.0198 37.5061 49.8202 36.6362C50.3037 36.1103 51.1506 35.7907 52.0565 35.7292C51.1748 35.8011 50.3565 36.1179 49.8842 36.6314C49.0842 37.5013 49.58 38.6061 50.9916 39.099C51.5493 39.2938 52.1665 39.364 52.7584 39.3239Z" fill="#F7960D"/>
<path d="M54.9327 38.4213C54.511 38.8796 53.8144 39.1812 53.0425 39.2919C53.7194 39.1575 54.3197 38.8724 54.6981 38.4612C55.4982 37.5913 55.0023 36.4867 53.5907 35.9938C52.9233 35.7606 52.1703 35.706 51.4775 35.8053C52.2322 35.656 53.0815 35.6941 53.8253 35.9539C55.2369 36.447 55.7327 37.5516 54.9327 38.4213Z" fill="#DB8307"/>
<path d="M51.404 35.9903L51.4033 35.8133L51.2476 35.6647L51.5349 35.664L51.7761 35.5682L51.7768 35.745L51.9326 35.8939L51.6453 35.8943L51.404 35.9903Z" fill="white"/>
<path d="M51.032 35.9864L51.0316 35.9233L50.9761 35.8702H51.0784L51.1646 35.836L51.1649 35.899L51.2201 35.9519L51.1178 35.9521L51.032 35.9864Z" fill="white"/>
<path d="M53.2131 24.3579C53.2131 24.3579 52.8688 24.4003 52.3002 23.9594C52.3002 23.9594 51.3422 24.3039 50.5207 23.7651C50.5207 23.7651 50.276 23.7536 49.8069 23.4359L50.1033 23.3345C50.1033 23.3345 49.9254 23.3391 49.6363 23.1972C49.5209 23.1404 49.388 23.0602 49.241 22.9467L49.5357 22.7784C49.5357 22.7784 49.3838 22.75 49.1819 22.6399L49.1763 22.6364C49.1679 22.6319 49.1591 22.6273 49.151 22.6224C49.0796 22.5816 49.0036 22.5314 48.9263 22.4687C48.9263 22.4687 49.0912 22.275 49.5041 22.2607C49.5041 22.2607 49.1105 22.1463 48.7497 21.8634C48.7497 21.8634 49.0993 21.5756 49.6926 21.6749C49.6539 21.6608 48.7786 21.3479 48.5869 21.0567C48.5869 21.0567 49.0297 20.9077 49.4112 20.9846C49.4112 20.9846 48.7227 20.6221 48.5982 20.3331C48.5982 20.3331 48.9741 20.2531 49.4689 20.4022C49.4689 20.4022 48.7023 19.9229 48.6875 19.5247C48.6875 19.5247 48.9456 19.5141 49.1851 19.6228C49.1851 19.6228 48.5067 18.954 48.7395 18.4216C49.011 18.7854 49.4183 19.126 49.9025 19.4538C50.2394 19.682 50.6136 19.9043 51.0043 20.1235L51.0046 19.9851C51.0602 20.0414 51.1239 20.0952 51.1945 20.1448C51.2526 20.1862 51.3159 20.2247 51.3837 20.2598C51.5427 20.3417 51.7716 20.4401 52.0734 20.5222C52.0734 20.5222 54.6033 21.2708 53.2303 23.3586C53.2314 23.3586 52.834 23.9988 53.2131 24.3579Z" fill="#F2F2F2"/>
<path d="M49.2997 20.922C49.0996 20.8056 48.692 20.5486 48.5991 20.3331C48.5991 20.3331 48.9751 20.2531 49.4699 20.4022C49.4699 20.4022 48.7036 19.9229 48.6885 19.5247C48.6885 19.5247 48.9466 19.5141 49.1861 19.6228C49.1861 19.6228 48.5077 18.954 48.7405 18.4216C48.7718 18.4639 48.8056 18.5059 48.8407 18.5477C48.6723 19.0703 49.3063 19.6952 49.3063 19.6952C49.0669 19.5866 48.8087 19.597 48.8087 19.597C48.8239 19.9953 49.5901 20.4745 49.5901 20.4745C49.0953 20.3255 48.7194 20.4054 48.7194 20.4054C48.7961 20.584 49.0876 20.7904 49.2997 20.922ZM48.7082 21.1293C48.7556 21.2019 48.8464 21.276 48.9557 21.3464C48.7943 21.2554 48.6529 21.1549 48.5879 21.0569C48.5879 21.0569 49.0208 20.9111 49.3995 20.9822C49.4794 21.0292 49.5325 21.0572 49.5325 21.0572C49.1509 20.9802 48.7082 21.1293 48.7082 21.1293ZM48.871 21.9357C48.9283 21.9806 48.9863 22.0211 49.044 22.0582C48.9501 22.0051 48.8492 21.9403 48.7507 21.8634C48.7507 21.8634 49.0602 21.6084 49.5912 21.6614C49.7139 21.7113 49.8018 21.7431 49.8138 21.7472C49.2202 21.6482 48.871 21.9357 48.871 21.9357ZM49.1829 22.6401L49.1787 22.6375C49.1703 22.633 49.1615 22.6284 49.1534 22.6234C49.082 22.5829 49.006 22.5324 48.9287 22.4698C48.9287 22.4698 49.0936 22.2761 49.5064 22.2618C49.6485 22.3065 49.7182 22.2965 49.7266 22.2993C49.3141 22.3138 49.0489 22.5422 49.0489 22.5422C49.0939 22.579 49.139 22.6115 49.1829 22.6401ZM49.5423 23.1473C49.4505 23.0962 49.35 23.0303 49.2413 22.9465L49.536 22.7784C49.6573 22.8132 49.7417 22.7892 49.7417 22.7892L49.3612 23.0191C49.4245 23.0676 49.4853 23.1101 49.5423 23.1473ZM52.4049 24.0368C52.2808 24.0775 51.4026 24.3366 50.6413 23.8376C51.4332 24.271 52.3001 23.9594 52.3001 23.9594C52.336 23.9871 52.3711 24.0129 52.4049 24.0368ZM50.6409 23.8372C50.6409 23.8372 50.4275 23.8272 50.0164 23.5666C50.3483 23.7568 50.5207 23.7648 50.5207 23.7648C50.5607 23.7913 50.6005 23.8153 50.6409 23.8372ZM50.1032 23.3345L50.0055 23.3679C49.9365 23.3475 49.8528 23.3166 49.7565 23.2695C49.6907 23.2373 49.619 23.197 49.5423 23.1476C49.5747 23.1658 49.606 23.1824 49.6362 23.1972C49.9253 23.3389 50.1032 23.3345 50.1032 23.3345Z" fill="#EAEAEA"/>
<path d="M55.9607 26.0123C55.9607 26.0123 55.8999 26.2253 56.6285 26.5655C56.6285 26.5655 56.0919 27.1635 56.9851 27.657C56.9851 27.657 57.0094 27.8074 57.5355 28.0891L57.693 27.904C57.693 27.904 57.6899 28.0139 57.9269 28.1885C58.0218 28.2583 58.1548 28.3382 58.3426 28.4262L58.6088 28.2407C58.6088 28.2407 58.6584 28.3337 58.8416 28.4554L58.8472 28.4589C58.8549 28.4641 58.8623 28.4691 58.8704 28.4741C58.9379 28.517 59.0216 28.5627 59.1247 28.6088C59.1247 28.6088 59.4352 28.5027 59.4489 28.2481C59.4489 28.2481 59.6437 28.4879 60.1111 28.7035C60.1111 28.7035 60.5697 28.4817 60.3953 28.1183C60.4192 28.1419 60.947 28.6738 61.4239 28.785C61.4239 28.785 61.6556 28.509 61.522 28.2756C61.522 28.2756 62.1262 28.6914 62.5978 28.7614C62.5978 28.7614 62.7187 28.528 62.4655 28.2266C62.4655 28.2266 63.2607 28.6877 63.9074 28.6877C63.9074 28.6877 63.9186 28.5285 63.7368 28.3835C63.7368 28.3835 64.8379 28.7859 65.6963 28.6301C65.0999 28.4713 64.5376 28.2284 63.9942 27.9374C63.6165 27.735 63.2469 27.5099 62.8823 27.2742L63.107 27.2709C63.0141 27.238 62.9255 27.2001 62.8436 27.1576C62.7754 27.1227 62.711 27.0848 62.6526 27.0436C62.5158 26.9477 62.3512 26.809 62.2109 26.625C62.2109 26.625 60.9379 25.0839 57.5819 25.9779C57.5819 25.9779 56.5522 26.2374 55.9607 26.0123Z" fill="#F2F2F2"/>
<path d="M61.6264 28.3434C61.8199 28.4639 62.2461 28.7089 62.5981 28.7612C62.5981 28.7612 62.7191 28.5278 62.4659 28.2264C62.4659 28.2264 63.261 28.6875 63.9077 28.6875C63.9077 28.6875 63.919 28.5282 63.7372 28.3833C63.7372 28.3833 64.8382 28.7856 65.6966 28.6299C65.627 28.6114 65.5581 28.5917 65.4899 28.5711C64.6459 28.6868 63.6172 28.3109 63.6172 28.3109C63.799 28.4559 63.7878 28.6151 63.7878 28.6151C63.1411 28.6151 62.346 28.1541 62.346 28.1541C62.5992 28.4554 62.4782 28.6888 62.4782 28.6888C62.1866 28.6459 61.8448 28.471 61.6264 28.3434ZM61.304 28.7126C61.1851 28.6851 61.0627 28.6309 60.946 28.5653C61.0972 28.6626 61.2639 28.7475 61.4242 28.7852C61.4242 28.7852 61.6507 28.5152 61.5266 28.2836C61.4485 28.2355 61.4021 28.2035 61.4021 28.2035C61.5354 28.4366 61.304 28.7126 61.304 28.7126ZM59.9912 28.6309C59.9173 28.5967 59.8498 28.5618 59.7886 28.5274C59.8772 28.5841 59.9845 28.6446 60.1114 28.7035C60.1114 28.7035 60.518 28.507 60.4199 28.1811C60.3362 28.1068 60.2827 28.0533 60.2753 28.0462C60.4501 28.4091 59.9912 28.6309 59.9912 28.6309ZM58.8412 28.455L58.8454 28.4576C58.8532 28.4628 58.8606 28.468 58.8687 28.4728C58.9362 28.5157 59.0199 28.5614 59.1229 28.6075C59.1229 28.6075 59.4334 28.5014 59.4468 28.2468C59.3712 28.1603 59.386 28.1172 59.381 28.112C59.367 28.3664 59.0026 28.5352 59.0026 28.5352C58.9422 28.5085 58.8887 28.4814 58.8412 28.455ZM58.0099 28.2453C58.095 28.3005 58.2044 28.3612 58.3426 28.4262L58.6088 28.2407C58.5493 28.1668 58.5866 28.1142 58.5866 28.1142L58.2226 28.3538C58.1418 28.3161 58.0714 28.2795 58.0099 28.2453ZM56.5009 26.5026C56.4376 26.58 56.0374 27.1271 56.8645 27.5842C56.1432 27.1065 56.6289 26.5652 56.6289 26.5652C56.5828 26.544 56.5403 26.523 56.5009 26.5026ZM56.8648 27.5847C56.8648 27.5847 56.8859 27.716 57.3185 27.963C57.0023 27.7628 56.9851 27.657 56.9851 27.657C56.9415 27.633 56.9014 27.6089 56.8648 27.5847ZM57.6934 27.9042L57.6413 27.9651C57.6758 28.0072 57.7282 28.0581 57.8066 28.1161C57.8604 28.156 57.9276 28.1993 58.0095 28.2453C57.9793 28.2258 57.9515 28.2069 57.9265 28.1885C57.6902 28.0139 57.6934 27.9042 57.6934 27.9042Z" fill="#EAEAEA"/>
<path d="M54.7289 27.2417C56.6526 27.2417 58.2122 26.2809 58.2122 25.0956C58.2122 23.9104 56.6526 22.9495 54.7289 22.9495C52.8051 22.9495 51.2456 23.9104 51.2456 25.0956C51.2456 26.2809 52.8051 27.2417 54.7289 27.2417Z" fill="#FF9E02"/>
<path d="M57.2213 26.5949C56.2275 27.2215 54.7632 27.3936 53.5112 27.1061C54.7357 27.3565 56.1396 27.1758 57.1021 26.5689C58.4465 25.7211 58.4212 24.3626 57.0451 23.5341C56.6871 23.3185 56.2732 23.1601 55.8329 23.0587C56.3179 23.1582 56.7744 23.325 57.1644 23.5599C58.5404 24.3884 58.5658 25.7471 57.2213 26.5949Z" fill="#FFA30F"/>
<path d="M54.7282 26.9037C56.351 26.9037 57.6664 26.0932 57.6664 25.0935C57.6664 24.0937 56.351 23.2832 54.7282 23.2832C53.1055 23.2832 51.79 24.0937 51.79 25.0935C51.79 26.0932 53.1055 26.9037 54.7282 26.9037Z" fill="#FFA30F"/>
<path d="M54.355 26.8905C53.7434 26.8424 53.1512 26.6755 52.6761 26.3898C51.5156 25.691 51.4941 24.5448 52.6283 23.8296C53.314 23.3974 54.2649 23.2217 55.1663 23.3046C54.2843 23.2355 53.3619 23.413 52.6923 23.835C51.5581 24.55 51.5796 25.6962 52.7401 26.395C53.1987 26.6712 53.7659 26.8363 54.355 26.8905Z" fill="#F7960D"/>
<path d="M56.8316 26.3601C56.2342 26.7367 55.4352 26.9187 54.6432 26.9044C55.3532 26.881 56.052 26.6998 56.5883 26.3618C57.7224 25.6468 57.701 24.5007 56.5405 23.8019C55.9919 23.4715 55.2864 23.3003 54.5757 23.2871C55.3673 23.2615 56.1726 23.4321 56.7842 23.8002C57.944 24.4991 57.9658 25.6451 56.8316 26.3601Z" fill="#DB8307"/>
<path d="M54.4273 23.4543L54.4998 23.2832L54.4111 23.115L54.689 23.1597L54.9622 23.1049L54.8894 23.276L54.9784 23.4444L54.7006 23.3997L54.4273 23.4543Z" fill="white"/>
<path d="M54.0686 23.3922L54.0946 23.3311L54.063 23.271L54.1618 23.2871L54.2592 23.2676L54.2335 23.3285L54.2652 23.3885L54.166 23.3727L54.0686 23.3922Z" fill="white"/>
<path d="M65.7614 13.953C65.7806 13.9892 65.8164 14.0079 65.8413 13.9948L65.9914 13.9152C66.0163 13.902 66.0209 13.8619 66.0016 13.8257L65.1055 11.8748C65.0862 11.8385 65.0882 12.1511 65.0634 12.1643L64.8954 12.2533C64.8706 12.2665 64.866 12.3065 64.8852 12.3428L65.1325 12.8094C65.2117 12.9589 65.2351 13.0933 65.207 13.1972L64.7829 12.397C64.7637 12.3608 64.7279 12.342 64.7031 12.3552L64.5529 12.4348C64.5281 12.448 64.5235 12.4881 64.5427 12.5243L65.0031 13.393C64.8496 13.4308 64.6875 13.3293 64.5663 13.1006L64.3227 12.641C64.3034 12.6047 64.2677 12.586 64.2428 12.5992L64.0438 12.7046C64.0313 12.7113 64.0233 12.7253 64.022 12.7433L63.9288 13.9495C63.9275 13.9657 63.9317 13.9838 63.9405 14.0003L64.1611 14.5552C64.2526 14.9592 64.3623 14.6139 64.3668 14.5552L64.3668 13.3526C64.5974 13.7665 64.9475 13.9639 65.248 13.855L65.4011 14.1439C65.4203 14.1802 65.4561 14.1989 65.481 14.1857L65.6311 14.1062C65.656 14.093 65.6605 14.0529 65.6413 14.0166L65.4711 13.6955C65.5043 13.6535 65.5306 13.6059 65.5499 13.5539L65.7614 13.953Z" fill="#DB8307"/>
<path d="M65.7614 13.953C65.7806 13.9892 65.8164 14.0079 65.8413 13.9948L65.9914 13.9152C66.0163 13.902 66.0209 13.8619 66.0016 13.8257L65.1055 11.8748C65.0862 11.8385 65.0882 12.1511 65.0634 12.1643L64.8954 12.2533C64.8706 12.2665 64.866 12.3065 64.8852 12.3428L65.1325 12.8094C65.2117 12.9589 65.2351 13.0933 65.207 13.1972L64.7829 12.397C64.7637 12.3608 64.7279 12.342 64.7031 12.3552L64.5529 12.4348C64.5281 12.448 64.5235 12.4881 64.5427 12.5243L65.0031 13.393C64.8496 13.4308 64.6875 13.3293 64.5663 13.1006L64.3227 12.641C64.3034 12.6047 64.2677 12.586 64.2428 12.5992L64.0438 12.7046C64.0313 12.7113 64.0233 12.7253 64.022 12.7433L63.9288 13.9495C63.9275 13.9657 63.9317 13.9838 63.9405 14.0003L64.1611 14.5552C64.2526 14.9592 64.3623 14.6139 64.3668 14.5552L64.3668 13.3526C64.5974 13.7665 64.9475 13.9639 65.248 13.855L65.4011 14.1439C65.4203 14.1802 65.4561 14.1989 65.481 14.1857L65.6311 14.1062C65.656 14.093 65.6605 14.0529 65.6413 14.0166L65.4711 13.6955C65.5043 13.6535 65.5306 13.6059 65.5499 13.5539L65.7614 13.953Z" fill="#E6E6E6"/>
<path d="M55.2049 25.3099C55.2167 25.3321 55.2425 25.3415 55.2625 25.3309L55.3835 25.2667C55.4035 25.2561 55.4102 25.2295 55.3985 25.2073L54.8708 24.0022C54.8591 23.98 54.8355 24.1845 54.8155 24.1951L54.6802 24.2668C54.6601 24.2774 54.6534 24.3041 54.6652 24.3262L54.8165 24.6118C54.865 24.7033 54.8721 24.7894 54.8424 24.8597L54.5828 24.3699C54.571 24.3477 54.5452 24.3384 54.5252 24.349L54.4042 24.4131C54.3842 24.4237 54.3775 24.4503 54.3892 24.4725L54.671 25.0042C54.5508 25.0412 54.4352 24.9878 54.361 24.8478L54.2119 24.5665C54.2002 24.5443 54.1744 24.5349 54.1543 24.5455L53.994 24.6305C53.9839 24.6359 53.9767 24.6457 53.9742 24.6576L53.8064 25.4545C53.8042 25.4652 53.8059 25.4768 53.8112 25.4869L53.9352 25.8324C53.9726 26.0894 54.084 25.8546 54.0922 25.8159L54.1886 25.0287C54.3314 25.2811 54.5828 25.3823 54.8209 25.2869L54.9146 25.4638C54.9264 25.486 54.9522 25.4953 54.9722 25.4847L55.0932 25.4206C55.1132 25.41 55.1199 25.3834 55.1082 25.3612L55.004 25.1646C55.0327 25.1345 55.0566 25.1013 55.0755 25.0656L55.2049 25.3099Z" fill="#DB8307"/>
<path d="M55.2049 25.3099C55.2167 25.3321 55.2425 25.3415 55.2625 25.3309L55.3835 25.2667C55.4035 25.2561 55.4102 25.2295 55.3985 25.2073L54.8708 24.0022C54.8591 23.98 54.8355 24.1845 54.8155 24.1951L54.6802 24.2668C54.6601 24.2774 54.6534 24.3041 54.6652 24.3262L54.8165 24.6118C54.865 24.7033 54.8721 24.7894 54.8424 24.8597L54.5828 24.3699C54.571 24.3477 54.5452 24.3384 54.5252 24.349L54.4042 24.4131C54.3842 24.4237 54.3775 24.4503 54.3892 24.4725L54.671 25.0042C54.5508 25.0412 54.4352 24.9878 54.361 24.8478L54.2119 24.5665C54.2002 24.5443 54.1744 24.5349 54.1543 24.5455L53.994 24.6305C53.9839 24.6359 53.9767 24.6457 53.9742 24.6576L53.8064 25.4545C53.8042 25.4652 53.8059 25.4768 53.8112 25.4869L53.9352 25.8324C53.9726 26.0894 54.084 25.8546 54.0922 25.8159L54.1886 25.0287C54.3314 25.2811 54.5828 25.3823 54.8209 25.2869L54.9146 25.4638C54.9264 25.486 54.9522 25.4953 54.9722 25.4847L55.0932 25.4206C55.1132 25.41 55.1199 25.3834 55.1082 25.3612L55.004 25.1646C55.0327 25.1345 55.0566 25.1013 55.0755 25.0656L55.2049 25.3099Z" fill="#E6E6E6"/>
<path d="M53.2944 38.2226C53.3152 38.262 53.3498 38.2846 53.3716 38.273L53.503 38.2034C53.5248 38.1918 53.5255 38.1506 53.5046 38.1112L52.5085 36.004C52.4876 35.9646 52.5167 36.2899 52.4949 36.3014L52.3479 36.3793C52.3262 36.3909 52.3254 36.4321 52.3463 36.4715L52.615 36.9784C52.701 37.1407 52.7343 37.2826 52.7175 37.3883L52.2568 36.519C52.2359 36.4796 52.2013 36.457 52.1795 36.4686L52.0481 36.5382C52.0264 36.5498 52.0256 36.591 52.0465 36.6304L52.5466 37.574C52.4085 37.5999 52.2502 37.4802 52.1185 37.2318L51.8539 36.7325C51.833 36.6931 51.7984 36.6706 51.7766 36.6821L51.6025 36.7744C51.5915 36.7802 51.5854 36.7941 51.5857 36.8127L51.6051 38.059C51.6053 38.0758 51.6108 38.095 51.6203 38.113L51.8721 38.7093C51.9916 39.1374 52.0625 38.7879 52.0616 38.7273L51.9566 37.4765C52.2053 37.9271 52.5452 38.163 52.8126 38.0759L52.979 38.3898C52.9998 38.4292 53.0344 38.4517 53.0562 38.4402L53.1876 38.3705C53.2094 38.359 53.2101 38.3177 53.1892 38.2783L53.0044 37.9295C53.0313 37.8887 53.0514 37.8415 53.0646 37.7891L53.2944 38.2226Z" fill="#DB8307"/>
<path d="M53.2944 38.2226C53.3152 38.262 53.3498 38.2846 53.3716 38.273L53.503 38.2034C53.5248 38.1918 53.5255 38.1506 53.5046 38.1112L52.5085 36.004C52.4876 35.9646 52.5167 36.2899 52.4949 36.3014L52.3479 36.3793C52.3262 36.3909 52.3254 36.4321 52.3463 36.4715L52.615 36.9784C52.701 37.1407 52.7343 37.2826 52.7175 37.3883L52.2568 36.519C52.2359 36.4796 52.2013 36.457 52.1795 36.4686L52.0481 36.5382C52.0264 36.5498 52.0256 36.591 52.0465 36.6304L52.5466 37.574C52.4085 37.5999 52.2502 37.4802 52.1185 37.2318L51.8539 36.7325C51.833 36.6931 51.7984 36.6706 51.7766 36.6821L51.6025 36.7744C51.5915 36.7802 51.5854 36.7941 51.5857 36.8127L51.6051 38.059C51.6053 38.0758 51.6108 38.095 51.6203 38.113L51.8721 38.7093C51.9916 39.1374 52.0625 38.7879 52.0616 38.7273L51.9566 37.4765C52.2053 37.9271 52.5452 38.163 52.8126 38.0759L52.979 38.3898C52.9998 38.4292 53.0344 38.4517 53.0562 38.4402L53.1876 38.3705C53.2094 38.359 53.2101 38.3177 53.1892 38.2783L53.0044 37.9295C53.0313 37.8887 53.0514 37.8415 53.0646 37.7891L53.2944 38.2226Z" fill="#E6E6E6"/>
<path d="M80.8416 28.3099C80.8534 28.3321 80.8792 28.3415 80.8992 28.3309L81.0202 28.2667C81.0402 28.2561 81.0469 28.2295 81.0352 28.2073L80.5075 27.0022C80.4958 26.98 80.4723 27.1845 80.4522 27.1951L80.3169 27.2668C80.2968 27.2774 80.2901 27.3041 80.3019 27.3262L80.4533 27.6118C80.5017 27.7033 80.5088 27.7894 80.4791 27.8597L80.2195 27.3699C80.2077 27.3477 80.1819 27.3384 80.1619 27.349L80.0409 27.4131C80.0209 27.4237 80.0142 27.4503 80.0259 27.4725L80.3077 28.0042C80.1876 28.0412 80.0719 27.9878 79.9977 27.8478L79.8486 27.5665C79.8369 27.5443 79.8111 27.5349 79.791 27.5455L79.6307 27.6305C79.6206 27.6359 79.6134 27.6457 79.6109 27.6576L79.4431 28.4545C79.4409 28.4652 79.4426 28.4768 79.448 28.4869L79.5719 28.8324C79.6093 29.0894 79.7207 28.8546 79.7289 28.8159L79.8253 28.0287C79.9681 28.2811 80.2195 28.3823 80.4576 28.2869L80.5513 28.4638C80.5631 28.486 80.5889 28.4953 80.6089 28.4847L80.7299 28.4206C80.7499 28.41 80.7566 28.3834 80.7449 28.3612L80.6407 28.1646C80.6694 28.1345 80.6933 28.1013 80.7122 28.0656L80.8416 28.3099Z" fill="#DB8307"/>
<path d="M80.8416 28.3099C80.8534 28.3321 80.8792 28.3415 80.8992 28.3309L81.0202 28.2667C81.0402 28.2561 81.0469 28.2295 81.0352 28.2073L80.5075 27.0022C80.4958 26.98 80.4723 27.1845 80.4522 27.1951L80.3169 27.2668C80.2968 27.2774 80.2901 27.3041 80.3019 27.3262L80.4533 27.6118C80.5017 27.7033 80.5088 27.7894 80.4791 27.8597L80.2195 27.3699C80.2077 27.3477 80.1819 27.3384 80.1619 27.349L80.0409 27.4131C80.0209 27.4237 80.0142 27.4503 80.0259 27.4725L80.3077 28.0042C80.1876 28.0412 80.0719 27.9878 79.9977 27.8478L79.8486 27.5665C79.8369 27.5443 79.8111 27.5349 79.791 27.5455L79.6307 27.6305C79.6206 27.6359 79.6134 27.6457 79.6109 27.6576L79.4431 28.4545C79.4409 28.4652 79.4426 28.4768 79.448 28.4869L79.5719 28.8324C79.6093 29.0894 79.7207 28.8546 79.7289 28.8159L79.8253 28.0287C79.9681 28.2811 80.2195 28.3823 80.4576 28.2869L80.5513 28.4638C80.5631 28.486 80.5889 28.4953 80.6089 28.4847L80.7299 28.4206C80.7499 28.41 80.7566 28.3834 80.7449 28.3612L80.6407 28.1646C80.6694 28.1345 80.6933 28.1013 80.7122 28.0656L80.8416 28.3099Z" fill="#E6E6E6"/>
<path d="M89.237 11.3156C89.2573 11.3538 89.3158 11.3625 89.3677 11.335L89.6811 11.1689C89.7331 11.1413 89.7587 11.088 89.7385 11.0498L88.9054 8.93501C88.8851 8.8968 88.7551 9.29622 88.7032 9.32374L88.3526 9.50958C88.3007 9.5371 88.275 9.59039 88.2952 9.6286L88.5558 10.1203C88.6393 10.2778 88.6253 10.44 88.5286 10.5851L88.0817 9.74178C88.0614 9.70357 88.0029 9.6949 87.951 9.72242L87.6376 9.88854C87.5856 9.91606 87.56 9.96936 87.5802 10.0076L88.0654 10.923C87.7636 11.037 87.5052 10.9764 87.3775 10.7354L87.1208 10.2511C87.1005 10.2129 87.042 10.2042 86.9901 10.2317L86.5747 10.4519C86.5485 10.4658 86.5277 10.4871 86.5174 10.5107L85.828 12.0952C85.8188 12.1164 85.8188 12.1379 85.828 12.1553L86.0013 12.7715C85.9986 13.2496 86.3504 12.7605 86.384 12.6835L86.8985 11.1434C87.1506 11.5748 87.7177 11.6779 88.3234 11.4098L88.4848 11.7143C88.5051 11.7525 88.5636 11.7612 88.6155 11.7337L88.9289 11.5675C88.9809 11.54 89.0065 11.4867 88.9863 11.4485L88.8069 11.1101C88.8867 11.0421 88.9559 10.97 89.0141 10.895L89.237 11.3156Z" fill="#DB8307"/>
<path d="M89.237 11.3156C89.2573 11.3538 89.3158 11.3625 89.3677 11.335L89.6811 11.1689C89.7331 11.1413 89.7587 11.088 89.7385 11.0498L88.9054 8.93501C88.8851 8.8968 88.7551 9.29622 88.7032 9.32374L88.3526 9.50958C88.3007 9.5371 88.275 9.59039 88.2952 9.6286L88.5558 10.1203C88.6393 10.2778 88.6253 10.44 88.5286 10.5851L88.0817 9.74178C88.0614 9.70357 88.0029 9.6949 87.951 9.72242L87.6376 9.88854C87.5856 9.91606 87.56 9.96936 87.5802 10.0076L88.0654 10.923C87.7636 11.037 87.5052 10.9764 87.3775 10.7354L87.1208 10.2511C87.1005 10.2129 87.042 10.2042 86.9901 10.2317L86.5747 10.4519C86.5485 10.4658 86.5277 10.4871 86.5174 10.5107L85.828 12.0952C85.8188 12.1164 85.8188 12.1379 85.828 12.1553L86.0013 12.7715C85.9986 13.2496 86.3504 12.7605 86.384 12.6835L86.8985 11.1434C87.1506 11.5748 87.7177 11.6779 88.3234 11.4098L88.4848 11.7143C88.5051 11.7525 88.5636 11.7612 88.6155 11.7337L88.9289 11.5675C88.9809 11.54 89.0065 11.4867 88.9863 11.4485L88.8069 11.1101C88.8867 11.0421 88.9559 10.97 89.0141 10.895L89.237 11.3156Z" fill="#E6E6E6"/>
<path d="M45.7982 49.4549C45.9657 49.4509 46.0995 49.3638 46.0971 49.2603L46.0825 48.6354C46.0801 48.5319 45.9423 48.4511 45.7748 48.455L37.0169 48.212C36.8494 48.2159 37.9929 48.7213 37.9953 48.8248L38.0117 49.5239C38.0141 49.6274 38.1519 49.7082 38.3193 49.7043L40.4746 49.6538C41.1647 49.6376 41.6979 49.7808 42.0254 50.0434L38.3293 50.13C38.1618 50.1339 38.028 50.2211 38.0304 50.3246L38.0451 50.9495C38.0475 51.053 38.1852 51.1338 38.3527 51.1299L42.3649 51.0359C42.221 51.6033 41.5534 51.9714 40.4971 51.9961L38.3742 52.0459C38.2067 52.0498 38.0729 52.1369 38.0753 52.2404L38.0947 53.0686C38.0959 53.1209 38.1325 53.1701 38.1955 53.2041L42.4225 55.4866C42.4793 55.5173 42.5531 55.5333 42.6294 55.5315L45.0576 55.7133C46.6983 56.0737 45.6406 55.1469 45.435 55.0358L41.0499 53.066C42.9823 52.9842 44.3447 52.1542 44.4987 50.9859L45.8334 50.9546C46.0008 50.9507 46.1347 50.8636 46.1322 50.7601L46.1176 50.1352C46.1152 50.0316 45.9774 49.9509 45.8099 49.9548L44.3267 49.9895C44.2344 49.8113 44.1093 49.6469 43.9548 49.498L45.7982 49.4549Z" fill="#DB8307"/>
<path d="M45.7982 49.4549C45.9657 49.4509 46.0995 49.3638 46.0971 49.2603L46.0825 48.6354C46.0801 48.5319 45.9423 48.4511 45.7748 48.455L37.0169 48.212C36.8494 48.2159 37.9929 48.7213 37.9953 48.8248L38.0117 49.5239C38.0141 49.6274 38.1519 49.7082 38.3193 49.7043L40.4746 49.6538C41.1647 49.6376 41.6979 49.7808 42.0254 50.0434L38.3293 50.13C38.1618 50.1339 38.028 50.2211 38.0304 50.3246L38.0451 50.9495C38.0475 51.053 38.1852 51.1338 38.3527 51.1299L42.3649 51.0359C42.221 51.6033 41.5534 51.9714 40.4971 51.9961L38.3742 52.0459C38.2067 52.0498 38.0729 52.1369 38.0753 52.2404L38.0947 53.0686C38.0959 53.1209 38.1325 53.1701 38.1955 53.2041L42.4225 55.4866C42.4793 55.5173 42.5531 55.5333 42.6294 55.5315L45.0576 55.7133C46.6983 56.0737 45.6406 55.1469 45.435 55.0358L41.0499 53.066C42.9823 52.9842 44.3447 52.1542 44.4987 50.9859L45.8334 50.9546C46.0008 50.9507 46.1347 50.8636 46.1322 50.7601L46.1176 50.1352C46.1152 50.0316 45.9774 49.9509 45.8099 49.9548L44.3267 49.9895C44.2344 49.8113 44.1093 49.6469 43.9548 49.498L45.7982 49.4549Z" fill="#E28908"/>
</svg>
