<svg width="118" height="72" viewBox="0 0 118 72" fill="none" xmlns="http://www.w3.org/2000/svg">
<g filter="url(#filter0_d_117_483)">
<path d="M58.9716 63.9546C88.3587 63.9546 112.182 63.4057 112.182 62.7287C112.182 62.0516 88.3587 61.5027 58.9716 61.5027C29.5845 61.5027 5.76147 62.0516 5.76147 62.7287C5.76147 63.4057 29.5845 63.9546 58.9716 63.9546Z" fill="#F9F2E8"/>
<g opacity="0.45">
<path d="M9.36353 27.1052C9.36353 22.6983 14.4557 19.1262 20.7375 19.1262H23.1098C22.0002 18.4524 21.2969 17.4577 21.2969 16.347C21.2969 14.3173 23.6427 12.6718 26.5358 12.6718H34.4325C33.6337 12.1894 33.1261 11.4766 33.1261 10.6794C33.1261 9.22704 34.8043 8.04962 36.8745 8.04962H56.7022C58.7724 8.04962 60.4506 9.22704 60.4506 10.6794C60.4506 12.1318 58.7724 13.3092 56.7022 13.3092H49.278C47.8956 13.9709 46.988 15.0847 46.988 16.347C46.988 17.4573 47.6913 18.4519 48.8009 19.1262H61.0111C67.2929 19.1262 72.3851 22.6987 72.3851 27.1052C72.3851 31.5122 67.2929 35.0843 61.0111 35.0843H77.1866C80.0798 35.0843 82.4256 36.7298 82.4256 38.7594C82.4256 40.7891 80.0798 42.4346 77.1866 42.4346H83.7775C90.9784 42.4346 96.9557 46.0972 98.1424 50.9108H100.45C104.94 50.9108 108.58 53.4644 108.58 56.6138V57.1915C108.58 60.3414 104.94 62.8945 100.45 62.8945H83.7775H29.2126H23.946C15.8922 62.8945 9.36353 58.3143 9.36353 52.6641C9.36353 47.0143 15.8922 42.4342 23.946 42.4342H49.4754C46.5823 42.4342 44.2365 40.7886 44.2365 38.759C44.2365 36.7294 46.5817 35.0839 49.4754 35.0839H20.7375C14.4557 35.0847 9.36353 31.5122 9.36353 27.1052Z" fill="#FBEFDF"/>
<path d="M67.3262 13.3092C69.207 13.3092 70.7316 12.1318 70.7316 10.6794C70.7316 9.22703 69.207 8.04962 67.3262 8.04962C65.4455 8.04962 63.9209 9.22703 63.9209 10.6794C63.9209 12.1318 65.4455 13.3092 67.3262 13.3092Z" fill="#FBEFDF"/>
</g>
<path d="M48.8862 20.5885C48.8988 20.1485 48.809 19.7038 48.6111 19.2746L49.8876 18.4229L49.0508 17.4083L47.4773 17.8885C47.0543 17.559 46.5622 17.2966 46.0293 17.106L46.1312 15.8299L44.5865 15.5575L43.9217 16.741C43.3376 16.7366 42.7483 16.8094 42.1808 16.964L41.0401 15.9953L39.6917 16.6249L40.346 17.8387C39.9282 18.1514 39.5944 18.5125 39.351 18.9018L37.5956 18.8221L37.2336 19.9848L38.8727 20.5062C38.8716 20.9271 38.9642 21.351 39.1559 21.7598L37.8155 22.654L38.6517 23.6686L40.319 23.1598C40.7201 23.4655 41.1817 23.7119 41.6795 23.8947L41.5713 25.2466L43.116 25.519L43.813 24.2779C44.3724 24.284 44.9375 24.2194 45.4831 24.08L46.6624 25.0812L48.0108 24.4516L47.3501 23.2261C47.776 22.9186 48.1178 22.5618 48.3705 22.1755L50.1068 22.2543L50.4688 21.0917L48.8862 20.5885ZM45.2017 22.1127C44.0253 22.6618 42.4801 22.3895 41.7503 21.5043C41.0206 20.6188 41.3826 19.4561 42.5583 18.907C43.7347 18.3579 45.28 18.6303 46.0097 19.5154C46.7395 20.4005 46.3781 21.5637 45.2017 22.1127Z" fill="#F5CE99"/>
<path d="M48.2836 20.8236C48.2963 20.3837 48.2065 19.939 48.0085 19.5098L49.285 18.658L48.4482 17.643L46.8748 18.1233C46.4517 17.7937 45.9597 17.5313 45.4268 17.3408L45.5286 16.0646L43.9839 15.7922L43.3192 16.9757C42.7351 16.9714 42.1457 17.0441 41.5783 17.1987L40.4376 16.23L39.0891 16.8597L39.7435 18.0735C39.3257 18.3861 38.9919 18.7473 38.7484 19.1365L36.9931 19.0569L36.6311 20.2196L38.2702 20.7409C38.269 21.1614 38.3617 21.5854 38.5533 21.9946L37.213 22.8888L38.0498 23.9034L39.717 23.3946C40.1182 23.7003 40.5792 23.9467 41.0776 24.1294L40.9694 25.4813L42.5141 25.7537L43.211 24.5126C43.7704 24.5187 44.3356 24.4542 44.8812 24.3148L46.0604 25.3159L47.4083 24.6863L46.7476 23.4608C47.1734 23.1534 47.5153 22.7965 47.768 22.4103L49.5043 22.4891L49.8663 21.3264L48.2836 20.8236ZM44.5992 22.3484C43.4228 22.8974 41.8775 22.6251 41.1478 21.7399C40.418 20.8544 40.78 19.6917 41.9558 19.1422C43.1322 18.5931 44.6774 18.8655 45.4072 19.7506C46.1375 20.6361 45.7755 21.7993 44.5992 22.3484Z" fill="#EFE0CA"/>
<path d="M36.9937 19.0573L37.5156 19.0811L37.5962 18.8221L36.9937 19.0573Z" fill="#F5CE99"/>
<path d="M43.9844 15.7931L44.5869 15.5575L44.4126 15.8684L43.9844 15.7931Z" fill="#F5CE99"/>
<path d="M40.4382 16.2309L41.0408 15.9953L40.4728 16.2603L40.4382 16.2309Z" fill="#F5CE99"/>
<path d="M42.5146 25.755L43.1172 25.5194L42.689 25.4441L42.5146 25.755Z" fill="#F5CE99"/>
<path d="M49.5054 22.4904L50.1079 22.2553L49.5859 22.2314L49.5054 22.4904Z" fill="#F5CE99"/>
<path d="M46.061 25.3172L46.6636 25.0816L46.6285 25.0522L46.061 25.3172Z" fill="#F5CE99"/>
<path d="M85.5921 42.8897H85.3936C85.1812 42.8897 85.0085 42.9404 85.0085 43.0027V44.1611C85.0085 44.2234 85.1806 44.2741 85.3936 44.2741H85.5921C85.8045 44.2741 85.9771 44.2234 85.9771 44.1611V43.0027C85.9771 42.9404 85.8051 42.8897 85.5921 42.8897Z" fill="#C89A5A"/>
<path d="M86.6557 41.8344H84.3306C83.5611 41.8344 82.9373 42.1635 82.9373 42.5697C82.9373 42.9759 83.5611 43.305 84.3306 43.305H86.6557C87.4251 43.305 88.049 42.9759 88.049 42.5697C88.049 42.1635 87.4251 41.8344 86.6557 41.8344Z" fill="#EDDABF"/>
<path d="M87.0868 41.8708C87.3791 42.0055 87.565 42.2034 87.565 42.4242C87.565 42.8304 86.9412 43.1595 86.1717 43.1595H83.8466C83.6958 43.1595 83.5513 43.1465 83.4155 43.1231C83.6607 43.2361 83.9801 43.305 84.3306 43.305H86.6557C87.4252 43.305 88.049 42.9759 88.049 42.5697C88.049 42.2432 87.645 41.9665 87.0868 41.8708Z" fill="#E2C69F"/>
<path d="M95.288 45.3926C95.2794 45.3316 95.2374 45.2753 95.1735 45.2389L95.1165 45.2064C95.052 45.1701 94.9692 45.1553 94.8886 45.1657C94.8109 45.1761 94.7413 45.2082 94.6929 45.2562L93.775 46.1721C93.7266 46.2202 93.7048 46.2795 93.7128 46.3388C93.7215 46.3999 93.7635 46.4562 93.8273 46.4925L93.8843 46.525C93.9367 46.5549 93.9983 46.5692 94.0604 46.5692C94.1537 46.5692 94.2469 46.5367 94.3085 46.4752L95.2264 45.5594C95.2748 45.5109 95.2966 45.4515 95.288 45.3926Z" fill="#C89A5A"/>
<path d="M95.7755 43.8489L97.0002 44.5517C98.2847 45.2896 98.5316 46.6709 97.5515 47.6379L91.6743 44.2637C92.6544 43.2967 94.4909 43.1114 95.7755 43.8489Z" fill="#EDDABF"/>
<path d="M97.5446 44.96C97.7443 45.5823 97.5832 46.2647 97.0272 46.8134L92.0524 43.9571C91.9166 44.0485 91.7894 44.1507 91.6743 44.2641L97.5515 47.6383C98.3716 46.829 98.3319 45.7295 97.5446 44.96Z" fill="#E2C69F"/>
<path d="M77.1287 46.1721L76.2108 45.2562C76.1624 45.2082 76.0928 45.1757 76.0151 45.1657C75.9345 45.1553 75.8511 45.1701 75.7872 45.2064L75.7296 45.2389C75.6652 45.2753 75.6237 45.3316 75.6151 45.3926C75.6065 45.452 75.6289 45.5109 75.6773 45.5594L76.5952 46.4752C76.6568 46.5367 76.75 46.5692 76.8433 46.5692C76.9048 46.5692 76.967 46.5549 77.0194 46.525L77.0763 46.4925C77.1408 46.4562 77.1822 46.3999 77.1909 46.3388C77.1989 46.2795 77.1771 46.2202 77.1287 46.1721Z" fill="#C89A5A"/>
<path d="M75.1276 43.8489L73.9029 44.5517C72.6183 45.2896 72.3714 46.6709 73.3515 47.6379L79.2287 44.2637C78.2486 43.2967 76.4121 43.1114 75.1276 43.8489Z" fill="#EDDABF"/>
<path d="M73.3583 44.96C73.1586 45.5823 73.3198 46.2647 73.8757 46.8134L78.8505 43.9571C78.9863 44.0485 79.1135 44.1507 79.2286 44.2641L73.3514 47.6383C72.5313 46.829 72.571 45.7295 73.3583 44.96Z" fill="#E2C69F"/>
<path d="M80.1086 58.6278C80.0527 58.4425 79.8864 58.2801 79.6528 58.1822L79.6343 58.1744C79.1722 57.9809 78.58 58.074 78.2865 58.3866L75.116 61.7587C74.9721 61.9115 74.9232 62.0938 74.9767 62.2722C75.0325 62.4576 75.1988 62.6195 75.4325 62.7178L75.4509 62.7256C75.6138 62.7936 75.7922 62.8265 75.9689 62.8265C76.2929 62.8265 76.6088 62.7161 76.7993 62.5134L79.9699 59.1414C80.1132 58.9885 80.1627 58.8062 80.1086 58.6278ZM95.5584 61.8297L92.6123 58.368C92.3383 58.0463 91.7525 57.9354 91.2782 58.1151L91.2592 58.1225C91.0187 58.2138 90.842 58.3715 90.7752 58.5555C90.7113 58.7313 90.7493 58.9141 90.8823 59.0704L93.8284 62.5321C94.0137 62.7499 94.3417 62.8711 94.6813 62.8711C94.8436 62.8711 95.0087 62.8434 95.1624 62.7849L95.1814 62.7776C95.422 62.6862 95.5986 62.5286 95.6654 62.3445C95.7293 62.1687 95.6913 61.986 95.5584 61.8297Z" fill="#C89A5A"/>
<path d="M85.4931 62.5186C92.3777 62.5186 97.9588 58.3565 97.9588 53.2223C97.9588 48.088 92.3777 43.9259 85.4931 43.9259C78.6084 43.9259 73.0273 48.088 73.0273 53.2223C73.0273 58.3565 78.6084 62.5186 85.4931 62.5186Z" fill="#EDDABF"/>
<path d="M85.4932 43.9259C84.2742 43.9259 83.0967 44.0571 81.9836 44.3C82.8377 44.1563 83.7263 44.0801 84.6391 44.0801C91.2702 44.0801 96.6461 48.0891 96.6461 53.0339C96.6461 57.9791 91.2702 61.9877 84.6391 61.9877C81.2683 61.9877 78.2226 60.9515 76.042 59.2834C78.328 61.2641 81.7143 62.5186 85.4937 62.5186C92.3787 62.5186 97.9595 58.3563 97.9595 53.2223C97.9589 48.0878 92.3775 43.9259 85.4932 43.9259Z" fill="#E2C69F"/>
<path d="M85.4931 60.7471C91.066 60.7471 95.5837 57.3781 95.5837 53.2223C95.5837 49.0664 91.066 45.6974 85.4931 45.6974C79.9203 45.6974 75.4026 49.0664 75.4026 53.2223C75.4026 57.3781 79.9203 60.7471 85.4931 60.7471Z" fill="white"/>
<path d="M75.4049 53.376H76.4892C76.7723 53.376 77.002 53.2032 77.002 52.9902C77.002 52.7771 76.7723 52.6043 76.4892 52.6043H75.4365C75.4141 52.8079 75.4026 53.014 75.4026 53.2218C75.4026 53.2738 75.4037 53.3249 75.4049 53.376ZM93.8808 52.9902C93.8808 53.2032 94.1104 53.376 94.3935 53.376H95.5814C95.5826 53.3249 95.5843 53.2734 95.5843 53.2218C95.5843 53.014 95.5722 52.8079 95.5503 52.6043H94.3941C94.1104 52.6043 93.8808 52.7771 93.8808 52.9902ZM79.4738 57.802C79.2735 57.6513 78.9489 57.6513 78.7487 57.802L78.0661 58.3156C78.2986 58.504 78.5443 58.6837 78.801 58.8539L79.4738 58.3476C79.6741 58.1969 79.6741 57.9527 79.4738 57.802ZM92.2566 47.6383L91.4089 48.2762C91.2086 48.4269 91.2086 48.6711 91.4089 48.8218C91.6092 48.9725 91.9338 48.9725 92.1341 48.8218L92.9853 48.1813C92.7545 47.9912 92.5116 47.8098 92.2566 47.6383ZM85.4414 59.6619C85.1582 59.6619 84.9286 59.8347 84.9286 60.0477V60.7354C85.1156 60.7432 85.3038 60.7475 85.4931 60.7475C85.648 60.7475 85.8011 60.7445 85.9541 60.7393V60.0482C85.9541 59.8347 85.7245 59.6619 85.4414 59.6619ZM85.4931 45.697C85.3038 45.697 85.1156 45.7014 84.9286 45.7091V46.5761C84.9286 46.7891 85.1582 46.9619 85.4414 46.9619C85.7245 46.9619 85.9541 46.7891 85.9541 46.5761V45.7052C85.8011 45.7001 85.6474 45.697 85.4931 45.697ZM92.8701 58.3559L92.1341 57.802C91.9338 57.6513 91.6092 57.6513 91.4089 57.802C91.2086 57.9527 91.2086 58.1969 91.4089 58.3476L92.13 58.8902C92.3884 58.7213 92.6353 58.5429 92.8701 58.3559ZM77.9521 48.2225L78.7487 48.8218C78.9489 48.9725 79.2735 48.9725 79.4738 48.8218C79.6741 48.6711 79.6741 48.4269 79.4738 48.2762L78.675 47.6751C78.4218 47.8483 78.1806 48.0311 77.9521 48.2225Z" fill="#FBEFDF"/>
<path d="M85.3763 52.9031C85.214 52.9031 85.0828 52.8044 85.0828 52.6823V50.4613C85.0828 50.3391 85.214 50.2404 85.3763 50.2404C85.5386 50.2404 85.6698 50.3391 85.6698 50.4613V52.6823C85.6698 52.804 85.5386 52.9031 85.3763 52.9031Z" fill="#E2C69F"/>
<path d="M91.2593 55.2996C91.1839 55.4078 91.0066 55.4494 90.8627 55.3931L85.3608 53.2266C85.2169 53.1699 85.1616 53.0365 85.2365 52.9283C85.3119 52.82 85.4891 52.7785 85.633 52.8352L91.135 55.0016C91.2788 55.0579 91.3341 55.1913 91.2593 55.2996Z" fill="#DAA252"/>
<path d="M86.1441 53.004C86.1441 53.3124 85.812 53.5622 85.4022 53.5622C84.9925 53.5622 84.6604 53.3124 84.6604 53.004C84.6604 52.6957 84.9925 52.4459 85.4022 52.4459C85.812 52.4459 86.1441 52.6957 86.1441 53.004Z" fill="#5C3907"/>
<path opacity="0.15" d="M91.8619 47.3854C93.4549 48.7161 94.4241 50.4712 94.4241 52.3952C94.4241 56.551 89.9063 59.9204 84.3335 59.9204C81.9187 59.9204 79.7018 59.2873 77.9648 58.232C79.8128 59.7754 82.5005 60.7471 85.4932 60.7471C91.0659 60.7471 95.5838 57.3781 95.5838 53.2219C95.5838 50.867 94.1329 48.7651 91.8619 47.3854Z" fill="#23211F"/>
<path d="M28.8883 43.8079L27.929 43.812L27.9526 46.9532L28.912 46.9491L28.8883 43.8079Z" fill="#F6E5CE"/>
<path opacity="0.1" d="M27.9287 43.8112L27.931 44.1342L28.2257 44.1329C28.4478 44.132 28.6291 44.2667 28.6303 44.4339L28.6493 46.9493L28.9117 46.948L28.8881 43.8068L27.9287 43.8112Z" fill="#23211F"/>
<path d="M28.2119 37.1135C25.6658 37.1243 23.6129 38.6862 23.6273 40.602C23.6417 42.5177 25.7176 44.0623 28.2642 44.0515C30.8103 44.0407 32.8632 42.4787 32.8488 40.563C32.8338 38.6468 30.7579 37.1026 28.2119 37.1135ZM31.6949 40.5678C31.7058 42.0041 30.1669 43.1755 28.2573 43.1837C26.3483 43.1919 24.7915 42.034 24.7806 40.5972C24.7697 39.1608 26.3086 37.9895 28.2182 37.9813C30.1272 37.9735 31.684 39.1314 31.6949 40.5678Z" fill="#DABD94"/>
<path d="M28.2118 37.1135C27.5373 37.1165 26.8979 37.2291 26.3218 37.4274C26.7787 37.3109 27.2679 37.2455 27.7767 37.2434C30.3228 37.2325 32.3987 38.7767 32.4136 40.6929C32.424 42.1011 31.3173 43.3171 29.7191 43.8675C31.5481 43.4007 32.8597 42.0955 32.8482 40.5626C32.8338 38.6468 30.7579 37.1026 28.2118 37.1135Z" fill="#694C24"/>
<path d="M31.6949 40.5677C31.7058 42.0041 30.1669 43.1755 28.2573 43.1837C26.3483 43.1919 24.7915 42.034 24.7806 40.5972C24.7696 39.1608 26.3086 37.9895 28.2181 37.9812C30.1271 37.9734 31.6839 39.1314 31.6949 40.5677Z" fill="#FFF9F0"/>
<path d="M28.2572 43.1837C26.3482 43.1919 24.7914 42.034 24.7805 40.5972C24.7782 40.2785 24.8559 39.9741 24.9929 39.6913C24.8081 40.013 24.7057 40.3673 24.7086 40.7401C24.7195 42.183 26.2826 43.3461 28.2008 43.3379C29.902 43.3305 31.3074 42.4038 31.5964 41.1874C31.2355 42.3259 29.8825 43.1768 28.2572 43.1837Z" fill="#F5E5CE"/>
<path d="M28.7781 45.6845L28.0667 45.6875C27.6023 45.6897 27.2276 45.9737 27.2305 46.3223L27.2696 51.5425C27.2719 51.8911 27.6506 52.1722 28.1151 52.17L28.8264 52.167C29.2908 52.1648 29.6655 51.8807 29.6626 51.5321L29.6235 46.3119C29.6212 45.9638 29.2425 45.6827 28.7781 45.6845Z" fill="#694C24"/>
<path opacity="0.2" d="M28.5848 45.6853C28.6844 45.8161 28.7431 45.9668 28.7442 46.1283L28.7793 50.8098C28.7834 51.307 28.2504 51.7118 27.5903 51.7149H27.5886C27.4873 51.7153 27.3895 51.7053 27.2957 51.688C27.3854 51.9656 27.7181 52.1717 28.1158 52.1704L28.8271 52.1674C29.2916 52.1652 29.6662 51.8812 29.6633 51.5326L29.6242 46.3124C29.6213 45.9638 29.2432 45.6827 28.7788 45.6845L28.5848 45.6853Z" fill="#23211F"/>
<path d="M29.7733 39.5289C30.0029 39.9975 29.6835 40.5171 29.0608 40.6899C28.4381 40.8627 27.7474 40.6223 27.5178 40.1538C27.2882 39.6853 27.6076 39.1656 28.2303 38.9928C28.853 38.8201 29.5436 39.06 29.7733 39.5289ZM30.8236 40.8406C30.9053 41.0073 30.7919 41.1918 30.5704 41.2533C30.3488 41.3148 30.1036 41.2294 30.0219 41.0627C29.9402 40.896 30.0535 40.7115 30.2751 40.65C30.4967 40.589 30.7419 40.6743 30.8236 40.8406Z" fill="white"/>
<path d="M79.9665 21.1744C79.8388 21.4303 79.4595 21.5602 79.1194 21.4641C78.7792 21.3679 78.6066 21.0826 78.7343 20.8266C78.8621 20.5707 79.2414 20.4408 79.5815 20.5369C79.9216 20.6331 80.0943 20.9185 79.9665 21.1744ZM79.223 24.7828C79.0515 25.1271 78.5415 25.3016 78.084 25.1726C77.6265 25.0435 77.3945 24.6599 77.566 24.3156C77.7375 23.9713 78.2475 23.7968 78.705 23.9259C79.1625 24.0549 79.3945 24.4386 79.223 24.7828ZM79.8347 23.9969C79.7668 24.1329 79.5654 24.2017 79.3847 24.151C79.204 24.0999 79.1125 23.9484 79.1798 23.8124C79.2477 23.6764 79.4491 23.6076 79.6299 23.6582C79.8106 23.7089 79.9021 23.8605 79.8347 23.9969Z" fill="#FCB24A"/>
<path d="M76.3375 23.2054C76.5134 23.1452 76.5911 22.9891 76.5111 22.8568C76.4311 22.7244 76.2237 22.6659 76.0478 22.7261C75.8719 22.7863 75.7941 22.9424 75.8741 23.0747C75.9541 23.2071 76.1615 23.2656 76.3375 23.2054Z" fill="#FCB24A"/>
<path d="M77.0511 21.6067C77.2747 21.2556 77.0777 20.8345 76.6111 20.6663C76.1445 20.498 75.5849 20.6462 75.3612 20.9973C75.1376 21.3484 75.3346 21.7695 75.8012 21.9377C76.2678 22.106 76.8274 21.9578 77.0511 21.6067Z" fill="#FE9501"/>
<path d="M79.7928 17.7504L78.594 17.6309L77.3952 17.5114C77.3952 17.5114 76.0277 17.5542 76.7742 19.3119C77.5206 21.07 77.7336 22.5215 77.7336 22.5215C77.7336 22.5215 78.4409 21.1618 79.7692 19.6103C81.0981 18.0591 79.7928 17.7504 79.7928 17.7504Z" fill="#FCB24A"/>
<path d="M79.5222 17.7235L78.5939 17.6313L77.6656 17.5391C77.6656 17.5391 76.6072 17.572 77.185 18.9334C77.7628 20.2945 77.928 21.4182 77.928 21.4182C77.928 21.4182 78.4753 20.3655 79.5044 19.1642C80.5328 17.9626 79.5222 17.7235 79.5222 17.7235Z" fill="#FE9501"/>
<path d="M79.0918 17.6807L78.5939 17.6313L78.0961 17.582C78.0961 17.582 77.5281 17.5997 77.8383 18.3298C78.1485 19.0599 78.2365 19.6627 78.2365 19.6627C78.2365 19.6627 78.53 19.098 79.082 18.4537C79.6339 17.8089 79.0918 17.6807 79.0918 17.6807Z" fill="#FFDBAA"/>
<path fill-rule="evenodd" clip-rule="evenodd" d="M79.7053 17.7443C79.4285 17.7885 78.9905 17.8327 78.4628 17.7733C77.9799 17.7192 77.6053 17.5988 77.3641 17.504C77.2749 17.1792 77.1863 16.854 77.0977 16.5292L80.2037 16.8484L79.7053 17.7443Z" fill="url(#paint0_radial_117_483)"/>
<path fill-rule="evenodd" clip-rule="evenodd" d="M84.0942 9.13607L79.9712 8.71257L75.8482 8.28906C73.9783 14.7374 76.6999 16.8449 76.6999 16.8449C77.5713 17.1593 78.4311 17.1983 78.4311 17.1983C78.4311 17.1983 79.2736 17.3343 80.225 17.2069C80.2261 17.2069 83.5987 15.7255 84.0942 9.13607Z" fill="url(#paint1_radial_117_483)"/>
<path opacity="0.15" fill-rule="evenodd" clip-rule="evenodd" d="M84.0942 9.13609L83.2165 9.04602C82.5069 14.9032 79.4325 16.2543 79.4325 16.2543C78.4812 16.3816 77.6386 16.2456 77.6386 16.2456C77.6386 16.2456 76.8266 16.2079 75.9817 15.9174C76.3466 16.5708 76.7011 16.8449 76.7011 16.8449C77.5724 17.1593 78.4322 17.1983 78.4322 17.1983C78.4322 17.1983 79.2748 17.3343 80.2261 17.207C80.2261 17.207 83.5987 15.7255 84.0942 9.13609Z" fill="black"/>
<path fill-rule="evenodd" clip-rule="evenodd" d="M75.8481 8.28952C75.8481 8.28952 79.7525 8.07214 84.0936 9.13653C84.0942 9.1361 80.9634 9.45005 75.8481 8.28952Z" fill="#84591E"/>
<path fill-rule="evenodd" clip-rule="evenodd" d="M76.6583 7.80579L76.5737 8.27173C76.5737 8.27173 77.4462 8.59088 79.9468 8.84766C82.4475 9.10445 83.351 8.96545 83.351 8.96545L83.4351 8.50167L76.6583 7.80579Z" fill="url(#paint2_radial_117_483)"/>
<path opacity="0.8" fill-rule="evenodd" clip-rule="evenodd" d="M76.6338 7.94046C76.6338 7.94046 77.6427 8.36094 80.1761 8.73724C82.7095 9.11398 83.3725 8.84897 83.3725 8.84897L83.4358 8.50124L76.6585 7.80536L76.6338 7.94046Z" fill="#B39263"/>
<path fill-rule="evenodd" clip-rule="evenodd" d="M75.6536 15.2098L75.8176 15.5982C75.8176 15.5982 74.6033 18.0648 74.9054 20.6262L74.7915 20.6565C74.7921 20.656 73.6934 18.91 75.6536 15.2098Z" fill="#84591E"/>
<path fill-rule="evenodd" clip-rule="evenodd" d="M75.1926 12.3938C75.1926 12.3938 74.2528 13.2252 72.2621 13.631C72.2621 13.631 71 17.8132 74.3351 20.6097L74.7915 20.6565C74.7915 20.6565 74.1745 17.9687 75.6536 15.2102C75.6536 15.2098 75.2024 13.9475 75.1926 12.3938Z" fill="#996C2E"/>
<path fill-rule="evenodd" clip-rule="evenodd" d="M81.7818 15.839L81.4854 16.1798C81.4854 16.1798 81.7767 18.8009 80.5732 21.2077L80.6722 21.2597C80.6722 21.2601 82.3522 19.7995 81.7818 15.839Z" fill="#84591E"/>
<path fill-rule="evenodd" clip-rule="evenodd" d="M83.2287 13.2187C83.2287 13.2187 83.8381 14.209 85.6113 15.0015C85.6113 15.0015 85.3379 19.285 81.128 21.3069L80.6716 21.2601C80.6716 21.2601 82.2232 18.7949 81.7812 15.839C81.7818 15.839 82.6658 14.714 83.2287 13.2187Z" fill="#996C2E"/>
<path fill-rule="evenodd" clip-rule="evenodd" d="M79.2113 13.2027L79.8064 13.2638L79.7247 15.1864L78.6047 15.0717L79.2113 13.2027Z" fill="#996C2E"/>
<path fill-rule="evenodd" clip-rule="evenodd" d="M78.6048 15.0717L78.0132 21.4775L78.3107 21.5078L79.7248 15.1864L78.6048 15.0717Z" fill="#84591E"/>
<path opacity="0.8" fill-rule="evenodd" clip-rule="evenodd" d="M81.5549 11.5143C81.4042 12.3453 80.3866 12.9268 79.2822 12.8134C78.1778 12.6999 77.4049 11.9343 77.5557 11.1033C77.7064 10.2724 78.724 9.69079 79.8284 9.80424C80.9322 9.9177 81.7057 10.6833 81.5549 11.5143Z" fill="#BD9763"/>
<path d="M79.5931 12.6177C80.7078 12.6177 81.6114 11.9378 81.6114 11.099C81.6114 10.2603 80.7078 9.58038 79.5931 9.58038C78.4784 9.58038 77.5747 10.2603 77.5747 11.099C77.5747 11.9378 78.4784 12.6177 79.5931 12.6177Z" fill="url(#paint3_radial_117_483)"/>
<path fill-rule="evenodd" clip-rule="evenodd" d="M81.0755 11.2514C80.9638 11.8676 80.2093 12.2989 79.3904 12.2145C78.5714 12.1305 77.9982 11.5628 78.1098 10.9466C78.2215 10.3304 78.976 9.89908 79.795 9.98352C80.6145 10.068 81.1877 10.6352 81.0755 11.2514Z" fill="url(#paint4_radial_117_483)"/>
<path fill-rule="evenodd" clip-rule="evenodd" d="M80.9351 11.2371C80.8338 11.7949 80.1512 12.185 79.4099 12.1088C78.6687 12.0326 78.1501 11.519 78.2514 10.9613C78.3527 10.4035 79.0353 10.0134 79.7765 10.0896C80.5172 10.1658 81.0363 10.6794 80.9351 11.2371Z" fill="url(#paint5_radial_117_483)"/>
<path fill-rule="evenodd" clip-rule="evenodd" d="M75.6335 9.09192C75.6335 9.09192 75.1811 9.15687 75.0487 9.38378C74.9164 9.61069 75.4418 9.96491 75.4418 9.96491L75.6335 9.09192Z" fill="url(#paint6_radial_117_483)"/>
<path fill-rule="evenodd" clip-rule="evenodd" d="M84.0256 9.86139C84.0256 9.86139 84.3801 9.99 84.4653 10.1935C84.5499 10.3971 83.9133 10.698 83.9133 10.698L84.0256 9.86139Z" fill="url(#paint7_radial_117_483)"/>
<path fill-rule="evenodd" clip-rule="evenodd" d="M80.9403 9.96838L80.6865 10.3308C80.6865 10.3308 80.98 10.5512 81.0336 10.7942L81.5458 10.7141C81.5458 10.7141 81.4606 10.3191 80.9403 9.96838Z" fill="white"/>
<path fill-rule="evenodd" clip-rule="evenodd" d="M80.3711 10.1507L80.7136 9.83584L80.5121 9.74707L80.176 10.0623L80.3711 10.1507Z" fill="white"/>
<path fill-rule="evenodd" clip-rule="evenodd" d="M80.4996 10.6863C80.4886 10.7461 80.4155 10.7881 80.3361 10.7799C80.2567 10.7716 80.2009 10.7166 80.2118 10.6569C80.2228 10.5971 80.2958 10.5551 80.3753 10.5633C80.4553 10.5711 80.5105 10.6266 80.4996 10.6863Z" fill="white"/>
<path fill-rule="evenodd" clip-rule="evenodd" d="M78.2422 11.1739C78.2422 11.1739 78.6422 10.9232 79.1481 11.1124C79.6539 11.3017 79.5688 12.1175 79.5688 12.1175C79.5688 12.1175 78.3918 12.1283 78.2422 11.1739Z" fill="#FFCC86"/>
<path opacity="0.5" fill-rule="evenodd" clip-rule="evenodd" d="M75.3192 12.0474C75.3192 12.0474 75.1091 15.4263 76.8518 16.8073L77.8641 17.0147C77.8641 17.0151 75.6265 15.3878 75.3192 12.0474Z" fill="url(#paint8_linear_117_483)"/>
<path opacity="0.8" fill-rule="evenodd" clip-rule="evenodd" d="M79.8066 13.2637L79.9907 17.2333L79.261 17.2606L79.7249 15.1864L79.8066 13.2637Z" fill="#BD9763"/>
<path opacity="0.8" fill-rule="evenodd" clip-rule="evenodd" d="M85.6112 15.0015L81.5371 19.1868L81.2793 19.1603C81.2793 19.1603 81.6833 17.4784 81.4848 16.1798C81.4848 16.1798 82.5236 15.0738 83.228 13.2183C83.2286 13.2187 83.8714 14.1666 85.6112 15.0015Z" fill="#B39263"/>
<path opacity="0.8" fill-rule="evenodd" clip-rule="evenodd" d="M74.6902 12.7385C74.6902 12.7385 75.5454 14.6984 75.3388 15.8364L75.546 16.2461L75.8176 15.5982C75.8176 15.5982 75.2064 14.171 75.1926 12.3938L74.6902 12.7385Z" fill="#BD9763"/>
<path fill-rule="evenodd" clip-rule="evenodd" d="M83.3016 11.0843C83.3016 11.0843 82.6916 11.8382 83.0841 12.2821C83.0841 12.2821 83.6458 11.8845 83.3016 11.0843Z" fill="white"/>
<path d="M80.6636 3.04547C76.5671 4.32811 75.6963 7.57283 75.6963 7.57283C75.6963 7.57283 79.8285 9.0066 84.3199 8.45838C84.7659 4.21249 80.6636 3.04547 80.6636 3.04547Z" fill="url(#paint9_radial_117_483)"/>
<path opacity="0.5" d="M82.7608 6.72755L81.8037 7.24069L82.2439 8.58353C82.9173 8.58223 83.6143 8.54499 84.3198 8.45881C84.7659 4.21293 80.6636 3.04547 80.6636 3.04547C80.6636 3.04547 83.1343 5.18595 82.7608 6.72755Z" fill="white"/>
<path fill-rule="evenodd" clip-rule="evenodd" d="M80.3083 6.36078L83.5606 6.52273C83.5606 6.52273 81.7207 6.84188 80.3083 6.36078Z" fill="white"/>
<path fill-rule="evenodd" clip-rule="evenodd" d="M76.7136 5.69952C76.4633 6.0217 76.2688 6.32829 76.1208 6.5972C80.4361 7.52303 83.3448 7.5161 84.3393 7.47539C84.3162 7.12247 84.2604 6.7951 84.1764 6.49241C81.125 6.70243 77.9314 6.00525 76.7136 5.69952Z" fill="url(#paint10_radial_117_483)"/>
<path d="M91.9137 31.0938L92.206 31.0973C92.5968 31.1016 92.9185 30.8665 92.9243 30.5716C92.9266 30.4473 92.7948 30.3447 92.6302 30.343L91.5194 30.3304C91.3543 30.3287 91.2184 30.4278 91.2161 30.5521C91.2104 30.847 91.5223 31.0895 91.9137 31.0938Z" fill="#161411"/>
<path d="M90.5043 29.9247L93.6605 29.9602C93.8055 29.9619 93.9212 30.0516 93.9189 30.1607L93.9137 30.4244C93.9114 30.5335 93.7923 30.6206 93.6472 30.6188L90.4911 30.5833C90.3461 30.5816 90.2304 30.492 90.2327 30.3828L90.2379 30.1191C90.2402 30.0104 90.3599 29.9234 90.5043 29.9247Z" fill="#F5CE99"/>
<path d="M90.6619 29.8788L93.5044 29.9108C93.7358 29.9134 93.9211 30.0567 93.9176 30.2308L93.9171 30.2585C93.9136 30.4326 93.7231 30.5716 93.4918 30.569L90.6493 30.537C90.4179 30.5344 90.2332 30.391 90.2366 30.217L90.2372 30.1892C90.2401 30.0152 90.4306 29.8762 90.6619 29.8788Z" fill="#EFE0CA"/>
<path d="M90.2361 30.2226L90.2367 30.1836C90.2402 30.0126 90.4266 29.8762 90.6534 29.8788L91.7578 29.8913C91.7768 29.916 91.7987 29.9415 91.8234 29.968C91.8234 29.968 91.5103 30.1884 91.6933 30.5491L90.6407 30.5374C90.414 30.5344 90.2327 30.3936 90.2361 30.2226Z" fill="#F5CE99"/>
<path d="M88.0169 25.3332C88.0531 23.5132 89.9247 22.0586 92.1969 22.0842C94.4696 22.1097 96.2825 23.6059 96.2462 25.4259C96.2249 26.4851 95.5821 27.4205 94.6002 28.0124C94.2613 28.2168 94.0581 28.5346 94.0512 28.8741L94.0408 29.3869L90.1135 29.3427L90.1233 28.8607C90.1302 28.5165 89.9345 28.1908 89.5961 27.9791C88.6166 27.3663 87.9956 26.4059 88.0169 25.3332Z" fill="#FFA30F"/>
<path opacity="0.85" d="M92.5433 27.6287L91.6835 27.6265L91.649 29.3595L91.4861 29.3578L91.5206 27.6265L90.7535 27.6248L90.7322 27.6135C90.7172 27.6053 90.3592 27.4118 90.3569 27.1593C90.3558 27.0255 90.4525 26.9047 90.6436 26.7994C90.8433 26.6899 91.0366 26.6535 91.2173 26.6921C91.5304 26.7583 91.6812 27.0238 91.6875 27.035L91.6852 27.504L92.5439 27.5062L92.5502 26.9415L92.5669 26.925C92.5779 26.9146 92.8334 26.6704 93.1643 26.6739H93.1649C93.3473 26.676 93.5119 26.7518 93.6535 26.899C93.8106 27.0619 93.8619 27.2121 93.8066 27.3455C93.7237 27.5451 93.4314 27.6239 93.4193 27.6274L92.7056 27.6291L92.6855 29.3708L92.5226 29.3695L92.5433 27.6287ZM91.5316 27.0718C91.5028 27.0268 91.3819 26.854 91.1742 26.8103C91.0435 26.7826 90.8974 26.8124 90.7397 26.8986C90.5935 26.9787 90.5192 27.0662 90.5198 27.158C90.521 27.3187 90.7391 27.4616 90.807 27.5018L91.5229 27.5036L91.5316 27.0718ZM93.6524 27.3083C93.6909 27.2139 93.6478 27.1004 93.5229 26.9714C93.4129 26.8575 93.2921 26.7986 93.1637 26.7968C93.1632 26.7968 93.1632 26.7968 93.1626 26.7968C92.9537 26.7947 92.7689 26.938 92.7131 26.9856L92.7074 27.5066L93.3778 27.5083C93.4256 27.4932 93.6023 27.4304 93.6524 27.3083Z" fill="#925909"/>
<path opacity="0.58" d="M88.0192 25.2574C88.0197 25.2505 88.0198 25.2436 88.0203 25.2366C88.0215 25.2163 88.0226 25.1959 88.0244 25.1756C88.0249 25.1704 88.0249 25.1652 88.0255 25.16C88.0278 25.1353 88.0301 25.1106 88.033 25.0859C88.0336 25.0799 88.0347 25.0742 88.0353 25.0682C88.0376 25.0487 88.0405 25.0288 88.0428 25.0093C88.0439 25.0024 88.0445 24.9959 88.0457 24.9889C88.0491 24.9647 88.0531 24.94 88.0577 24.9158C88.0583 24.9132 88.0589 24.9106 88.0595 24.908C88.0635 24.8863 88.0675 24.8642 88.0721 24.8426C88.0739 24.8356 88.075 24.8283 88.0767 24.8209C88.0808 24.8014 88.0854 24.7815 88.09 24.762C88.0911 24.7573 88.0923 24.7525 88.0934 24.7473C88.0992 24.7239 88.1055 24.7005 88.1118 24.6771C88.1136 24.6702 88.1159 24.6637 88.1176 24.6568C88.1228 24.639 88.1279 24.6213 88.1331 24.6035C88.1354 24.5966 88.1372 24.5897 88.1395 24.5823C88.1464 24.5594 88.1538 24.5368 88.1619 24.5143C88.1636 24.5091 88.1654 24.5044 88.1671 24.4992C88.1734 24.481 88.1797 24.4628 88.1867 24.4446C88.1895 24.4368 88.1924 24.429 88.1953 24.4212C88.2022 24.403 88.2091 24.3853 88.2166 24.3675C88.2189 24.3623 88.2206 24.3571 88.2229 24.3524C88.2315 24.3307 88.2413 24.3091 88.2505 24.2879C88.254 24.2801 88.2574 24.2723 88.2615 24.264C88.2684 24.2489 88.2753 24.2337 88.2828 24.2186C88.2862 24.2108 88.2902 24.203 88.2937 24.1952C88.3035 24.1744 88.3138 24.154 88.3242 24.1337C88.3282 24.1263 88.3317 24.119 88.3357 24.1116C88.3432 24.0973 88.3512 24.0826 88.3587 24.0683C88.3633 24.0596 88.3685 24.051 88.3731 24.0423C88.3818 24.0272 88.3904 24.012 88.399 23.9969C88.4048 23.9869 88.4105 23.9774 88.4163 23.9674C88.4255 23.9518 88.4353 23.9362 88.4445 23.9206C88.4502 23.9115 88.456 23.9025 88.4618 23.8934C88.4692 23.8812 88.4773 23.8691 88.4848 23.8574C88.4905 23.8483 88.4963 23.8397 88.502 23.8306C88.5141 23.8124 88.5262 23.7946 88.5389 23.7764C88.5452 23.7669 88.5521 23.7578 88.559 23.7483C88.5665 23.7379 88.5746 23.7271 88.582 23.7167C88.5895 23.7067 88.5964 23.6968 88.6039 23.6868C88.612 23.676 88.6206 23.6647 88.6292 23.6539C88.6413 23.6383 88.6534 23.6227 88.6655 23.6076C88.673 23.598 88.681 23.5881 88.6885 23.5785C88.6971 23.5682 88.7058 23.5578 88.7144 23.5474C88.7213 23.5387 88.7288 23.5305 88.7357 23.5218C88.7507 23.5041 88.7662 23.4867 88.7817 23.4694C88.7892 23.4612 88.7961 23.453 88.8036 23.4447C88.8134 23.4339 88.8238 23.4231 88.8335 23.4123C88.8399 23.4053 88.8468 23.398 88.8537 23.391C88.864 23.3802 88.8744 23.369 88.8853 23.3581C88.8905 23.3525 88.8963 23.3473 88.9014 23.3421C88.9222 23.3213 88.9423 23.301 88.9636 23.2806C88.9694 23.2754 88.9745 23.2698 88.9803 23.2642C88.9924 23.2529 89.0039 23.2416 89.016 23.2304C89.0212 23.2256 89.0269 23.2204 89.0321 23.2157C89.0591 23.191 89.0862 23.1667 89.1138 23.1429C89.1144 23.1425 89.1144 23.1425 89.115 23.142C89.1282 23.1304 89.142 23.1187 89.1558 23.1074C89.1604 23.1035 89.1656 23.0992 89.1702 23.0953C89.214 23.0589 89.2594 23.023 89.3055 22.9879C89.3089 22.9853 89.3124 22.9827 89.3158 22.9801C89.3314 22.9684 89.3469 22.9571 89.3624 22.9459C89.3647 22.9442 89.3665 22.9429 89.3688 22.9411C89.4177 22.9056 89.4683 22.8705 89.5196 22.8368C89.5224 22.835 89.5247 22.8333 89.5276 22.8311C89.5794 22.7974 89.6318 22.764 89.6859 22.7324C89.6876 22.7315 89.6893 22.7302 89.6911 22.7294C89.7653 22.6852 89.8413 22.6432 89.9195 22.6034C89.9207 22.6029 89.9213 22.6025 89.9224 22.6021C89.9805 22.5722 90.0398 22.5436 90.1003 22.5159C90.1008 22.5155 90.102 22.515 90.1031 22.5146C90.1843 22.4773 90.2672 22.4427 90.3518 22.4098C89.3699 23.2953 88.0831 25.2635 89.2473 27.0458C90.7943 29.415 93.3911 28.7186 94.1738 28.4393C94.0978 28.574 94.0552 28.7217 94.0523 28.8732L94.042 29.3859L90.1146 29.3418L90.1244 28.8598C90.1256 28.8061 90.1215 28.7529 90.1129 28.7C90.106 28.658 90.0962 28.6164 90.0836 28.5757C90.0801 28.5654 90.0767 28.5554 90.0732 28.5454C90.0663 28.5251 90.0582 28.5052 90.0496 28.4852C90.0369 28.4554 90.0226 28.4263 90.0064 28.3978C89.9587 28.3116 89.8971 28.2306 89.8229 28.1566C89.8062 28.1401 89.7895 28.1241 89.7716 28.1085C89.7538 28.0929 89.7359 28.0773 89.717 28.0626C89.7077 28.0552 89.698 28.0479 89.6882 28.0405C89.6588 28.0189 89.6283 27.9981 89.5967 27.9782C89.4741 27.9015 89.3573 27.8197 89.2468 27.7326C89.2329 27.7218 89.2191 27.711 89.2053 27.6997C89.1783 27.6776 89.1512 27.6551 89.1247 27.6326C89.0983 27.6101 89.0724 27.5871 89.0465 27.5637C89.0079 27.5287 88.9705 27.4932 88.9337 27.4572C88.8968 27.4213 88.8612 27.384 88.8266 27.3468C88.8036 27.3217 88.7806 27.2966 88.7581 27.271C88.6465 27.1437 88.5463 27.0095 88.4577 26.87C88.4312 26.828 88.4059 26.7856 88.3818 26.7427C88.3656 26.7141 88.3501 26.6851 88.3346 26.6561C88.3196 26.6271 88.3046 26.5977 88.2902 26.5682C88.2546 26.4946 88.2223 26.4197 88.1936 26.3435C88.0721 26.0239 88.01 25.684 88.0169 25.3319C88.0169 25.3076 88.018 25.2825 88.0192 25.2574Z" fill="#F7960D"/>
<path d="M90.2205 29.9879L93.9424 30.0295C94.1783 30.0321 94.3723 29.89 94.3757 29.7121C94.3792 29.5341 94.191 29.3877 93.955 29.3851L90.2337 29.3435C89.9978 29.3409 89.8038 29.483 89.8004 29.6605C89.7963 29.8389 89.9845 29.9853 90.2205 29.9879Z" fill="#F5CE99"/>
<path d="M90.1383 29.9485L94.0259 29.9922C94.2158 29.9944 94.3724 29.8801 94.3753 29.7372L94.3776 29.6112C94.3804 29.4683 94.2285 29.3505 94.0386 29.3483L90.2373 29.3055C89.9996 29.3029 89.8045 29.4453 89.8005 29.6242L89.7993 29.6857C89.8235 29.7536 89.9628 29.9143 90.1383 29.9485Z" fill="#EFE0CA"/>
<path opacity="0.65" d="M92.1634 25.1561C92.7862 25.8204 93.8946 26.0369 94.6393 25.6398C95.3841 25.2427 95.4836 24.3827 94.8609 23.7184C94.2382 23.0546 93.1297 22.8376 92.385 23.2347C91.6403 23.6318 91.5407 24.4923 92.1634 25.1561Z" fill="#FDA414"/>
<path d="M93.4722 23.7388C93.6058 23.8813 93.8147 23.9432 93.9384 23.877C94.0622 23.8107 94.0547 23.6418 93.9212 23.4994C93.7876 23.3569 93.5787 23.295 93.455 23.3608C93.3307 23.4275 93.3387 23.5963 93.4722 23.7388ZM94.4242 24.2429C94.4587 24.2792 94.5151 24.2935 94.5508 24.2745C94.5865 24.2554 94.5876 24.2104 94.5531 24.174C94.5185 24.1376 94.4621 24.1233 94.4265 24.1424C94.3908 24.161 94.3896 24.2065 94.4242 24.2429Z" fill="#FFEED6"/>
<path d="M90.2337 29.3055L91.7629 29.3228C91.6455 29.4306 91.5206 29.6454 91.8239 29.9676L90.221 29.9494C89.9851 29.9468 89.7969 29.8004 89.8003 29.6224C89.8038 29.4449 89.9983 29.3029 90.2337 29.3055Z" fill="#F5CE99"/>
<path d="M92.0054 20.1212L91.98 21.3954L92.4386 21.4006L92.464 20.1264L92.0054 20.1212Z" fill="#FFA30F"/>
<path d="M85.282 26.4588L85.2751 26.8047L86.9653 26.8238L86.9721 26.4779L85.282 26.4588Z" fill="#FFA30F"/>
<path d="M86.192 21.8621L85.8628 22.1033L87.0397 23.0174L87.3695 22.7766L86.192 21.8621Z" fill="#FFA30F"/>
<path d="M96.8415 26.615L96.8284 26.9609L98.518 26.9971L98.5311 26.6513L96.8415 26.615Z" fill="#FFA30F"/>
<path d="M98.5385 22.04L98.8539 22.2916L97.6252 23.1668L97.3098 22.9152L98.5385 22.04Z" fill="#FFA30F"/>
<path d="M36.2794 26.2715C36.5545 23.6362 34.2324 21.3494 31.0928 21.1639C27.9532 20.9783 25.1851 22.9642 24.91 25.5995C24.6349 28.2348 26.957 30.5216 30.0966 30.7071C33.2362 30.8927 36.0043 28.9067 36.2794 26.2715Z" fill="#694D25"/>
<path d="M35.7529 26.0126C35.9709 23.3723 33.6206 21.1139 30.5034 20.9682C27.3862 20.8224 24.6825 22.8447 24.4645 25.4849C24.2465 28.1251 26.5968 30.3836 29.714 30.5293C32.8312 30.675 35.5349 28.6528 35.7529 26.0126Z" fill="#85663B"/>
<path d="M34.5194 25.9554C34.6898 23.8926 32.8533 22.128 30.4175 22.0142C27.9817 21.9003 25.8691 23.4802 25.6988 25.5431C25.5285 27.6059 27.3649 29.3704 29.8007 29.4843C32.2365 29.5982 34.3491 28.0182 34.5194 25.9554Z" fill="#FFFDFB"/>
<path d="M33.4117 25.9031C33.5392 24.358 32.1639 23.0363 30.3398 22.951C28.5157 22.8658 26.9335 24.0492 26.8059 25.5943C26.6784 27.1394 28.0537 28.461 29.8778 28.5463C31.7019 28.6316 33.2841 27.4482 33.4117 25.9031Z" fill="#85663B"/>
<path d="M28.2545 24.9474C27.7141 25.823 28.1089 26.8934 29.1362 27.3377C30.1635 27.782 31.4343 27.4321 31.9747 26.5565C32.5151 25.6805 32.1203 24.6105 31.093 24.1662C30.0657 23.7219 28.7949 24.0718 28.2545 24.9474Z" fill="#FFFDFB"/>
<path d="M29.2357 25.3718C28.9808 25.7854 29.1672 26.2911 29.6524 26.5012C30.1376 26.7112 30.7378 26.5458 30.9934 26.1322C31.2483 25.7187 31.0618 25.2129 30.5767 25.0029C30.0915 24.7928 29.4913 24.9583 29.2357 25.3718Z" fill="#85663B"/>
<path d="M19.155 24.6863L19.94 24.3411C20.0051 24.3126 20.0252 24.2489 19.9838 24.2013L19.5274 23.6747C19.4623 23.5998 19.5521 23.5037 19.6678 23.524L21.727 23.886C21.7581 23.8917 21.7857 23.9055 21.8047 23.925L22.3768 24.5312C22.3963 24.552 22.4263 24.5667 22.4602 24.5715L28.9475 25.4835C29.0275 25.4947 29.1017 25.4497 29.1034 25.3886C29.1063 25.3077 29.2295 25.2631 29.3152 25.3124L29.9402 25.671C30.0266 25.7208 30.0007 25.8234 29.8959 25.8455L29.1541 26.0027C29.0528 26.0243 28.9601 25.952 28.9929 25.8767L29.0269 25.7983C29.0516 25.7407 29.0027 25.6796 28.9233 25.6697L22.2576 24.8339C22.2237 24.8296 22.1897 24.8357 22.1615 24.85L21.6315 25.1236C21.6038 25.1379 21.5699 25.1435 21.5371 25.1401L19.2016 24.8707C19.0785 24.856 19.048 24.7335 19.155 24.6863Z" fill="#3C2D17"/>
<path d="M22.3975 24.5464C22.3906 24.5416 22.3825 24.5377 22.3768 24.5317L21.8047 23.9254C21.7863 23.9055 21.7587 23.8916 21.727 23.8865L19.6678 23.5244C19.5521 23.5041 19.4623 23.6002 19.5274 23.6751L19.9838 24.2017C20.0252 24.2493 20.0051 24.313 19.94 24.3416L19.155 24.6867C19.0474 24.7339 19.0785 24.8564 19.2016 24.8703L21.5371 25.1396C21.5705 25.1435 21.6038 25.1375 21.6315 25.1232L22.1615 24.8495C22.1828 24.8387 22.2081 24.8344 22.2335 24.8339L22.3975 24.5464Z" fill="#F7AB31"/>
<path opacity="0.3" d="M21.9888 24.4875L20.2283 24.2844C20.192 24.2801 20.1604 24.265 20.1402 24.2429L19.704 23.7527C19.6407 23.6817 19.7276 23.5903 19.8404 23.6098L21.6711 23.9255C21.7016 23.9307 21.7287 23.9441 21.7465 23.9627L22.1125 24.3403C22.1793 24.4079 22.101 24.5005 21.9888 24.4875Z" fill="white"/>
<path d="M27.1133 25.4424L24.8889 25.1635L24.9482 24.9214L27.1645 25.2328L27.1133 25.4424Z" fill="#F7AB31"/>
<g opacity="0.2">
<path d="M19.5824 23.5851L20.0388 24.1116C20.0779 24.1567 20.0607 24.2151 20.0037 24.2454C20.0014 24.2303 19.9962 24.2156 19.9841 24.2017L19.5277 23.6751C19.4857 23.6262 19.5093 23.569 19.5623 23.5405C19.5646 23.5552 19.5698 23.5703 19.5824 23.5851ZM19.1456 24.6919C19.1514 24.7335 19.1899 24.7724 19.2555 24.7798L21.591 25.0492C21.6244 25.0531 21.6577 25.047 21.6854 25.0327L22.2154 24.759C22.2436 24.7443 22.2781 24.7387 22.3115 24.743L28.9772 25.5788C29.0566 25.5887 29.1055 25.6493 29.0808 25.7074L29.0468 25.7862C29.0146 25.8615 29.1067 25.9338 29.208 25.9122L29.9498 25.755C29.9653 25.7515 29.9786 25.7463 29.9907 25.7398C29.9964 25.7844 29.9619 25.8312 29.8957 25.8451L29.1539 26.0023C29.0526 26.0239 28.9599 25.9516 28.9927 25.8762L29.0267 25.7979C29.0514 25.7403 29.0025 25.6792 28.9231 25.6693L22.2574 24.8335C22.2235 24.8292 22.1895 24.8352 22.1613 24.8495L21.6313 25.1232C21.6036 25.1375 21.5697 25.1431 21.5369 25.1397L19.2014 24.8703C19.0829 24.8565 19.0512 24.7421 19.1456 24.6919ZM29.1072 25.3739C29.113 25.3492 29.1297 25.3285 29.1533 25.3142C29.1464 25.3384 29.1314 25.3596 29.1072 25.3739Z" fill="#23211F"/>
</g>
<path opacity="0.2" d="M77.1856 46.2929C77.1804 46.2496 77.1643 46.2076 77.1286 46.1721L76.682 45.7261L79.2293 44.2637C79.2281 44.2624 79.227 44.2615 79.2253 44.2602C79.1677 44.2035 79.1073 44.1498 79.044 44.0987C79.0083 44.0697 78.9691 44.0433 78.9317 44.016C78.9047 43.9965 78.8794 43.9753 78.8512 43.9567L78.8506 43.9571C77.825 43.2669 76.2619 43.1976 75.1276 43.8489L73.9034 44.5517C73.6922 44.6729 73.5121 44.8128 73.3578 44.9639C73.3584 44.9626 73.3584 44.9609 73.359 44.9596C73.3481 44.9704 73.3389 44.9817 73.3279 44.9925C73.3032 45.018 73.279 45.0436 73.2554 45.0696C73.2289 45.099 73.2036 45.1293 73.1789 45.1596C73.1576 45.1861 73.1363 45.2125 73.1167 45.2393C73.0925 45.2722 73.0707 45.306 73.0488 45.3398C73.0327 45.3649 73.0148 45.39 72.9999 45.4156C72.9665 45.4727 72.936 45.5308 72.9095 45.5892C72.8997 45.6109 72.8922 45.6334 72.883 45.6555C72.8664 45.6962 72.8502 45.7364 72.837 45.7776C72.8284 45.8049 72.8215 45.8321 72.814 45.8594C72.8036 45.8962 72.7944 45.9335 72.7869 45.9707C72.7812 45.9989 72.7766 46.027 72.7725 46.0552C72.7668 46.0928 72.7628 46.1305 72.7593 46.1686C72.757 46.1959 72.7547 46.2232 72.7541 46.2509C72.753 46.2925 72.7541 46.334 72.7559 46.3756C72.757 46.3994 72.757 46.4228 72.7587 46.4462C72.7645 46.5103 72.7731 46.5748 72.7858 46.6385C72.7881 46.6488 72.7915 46.6592 72.7938 46.6696C72.8059 46.7242 72.8203 46.7788 72.8381 46.8324C72.8456 46.855 72.8548 46.8771 72.8635 46.8996C72.879 46.9416 72.8963 46.9836 72.9153 47.0247C72.9262 47.049 72.9389 47.0728 72.951 47.0966C72.9717 47.1364 72.9935 47.1758 73.0177 47.2152C73.0315 47.2382 73.0459 47.2616 73.0609 47.2845C73.0885 47.3261 73.1184 47.3664 73.1495 47.4071C73.1645 47.4266 73.1783 47.4461 73.1938 47.4651C73.2427 47.5236 73.2945 47.5816 73.3509 47.6375L76.1491 46.0309L76.5934 46.4743C76.6446 46.5254 76.7183 46.5553 76.7948 46.5644C74.4709 48.2528 73.0258 50.6111 73.0258 53.2218C73.0258 55.5477 74.1739 57.6726 76.0668 59.3025C76.0582 59.296 76.049 59.2895 76.0403 59.283C76.0697 59.3086 76.1013 59.3324 76.1307 59.3575C76.2176 59.4311 76.3057 59.5039 76.3954 59.5753C76.4507 59.619 76.5059 59.6628 76.5623 59.7056C76.6544 59.7762 76.7482 59.8451 76.8432 59.9135C76.8443 59.9144 76.8455 59.9152 76.8466 59.9157L75.1143 61.7578C74.9704 61.9107 74.9215 62.093 74.975 62.2714C75.0257 62.4385 75.169 62.5844 75.3681 62.684H76.5572C76.6481 62.6368 76.7321 62.5823 76.7977 62.5126L78.3643 60.8467C78.3723 60.851 78.3804 60.8554 78.3885 60.8592C78.4247 60.8783 78.4604 60.8982 78.4972 60.9168C78.6745 61.0065 78.8546 61.0931 79.0382 61.1762C79.0422 61.178 79.0468 61.1797 79.0509 61.1819C79.227 61.2611 79.406 61.3373 79.5878 61.4105C79.6437 61.433 79.7012 61.4534 79.757 61.475C79.8888 61.5261 80.0206 61.5764 80.1547 61.624C80.2261 61.6491 80.298 61.6725 80.37 61.6967C80.3959 61.7054 80.4223 61.7136 80.4482 61.7223C80.4822 61.6214 80.5023 61.5162 80.5023 61.4075V49.8295V49.829V44.7063C79.284 45.1038 78.164 45.6399 77.1856 46.2929Z" fill="#23211F"/>
<path d="M77.323 62.8707H39.5535C38.5009 62.8707 37.6479 62.2285 37.6479 61.4369V24.8755C37.6479 24.1701 38.4076 23.5985 39.3452 23.5985H77.3236C78.2611 23.5985 79.0208 24.1701 79.0208 24.8755V61.5937C79.0202 62.2991 78.2606 62.8707 77.323 62.8707Z" fill="#EDDABF"/>
<path d="M75.8169 25.9642L76.7038 25.9746L75.8186 48.012L75.8169 25.9642Z" fill="#D18213"/>
<path d="M38.4785 60.7415V25.6931C38.4785 24.704 39.3516 23.8692 40.5487 23.5985H39.3447C38.4071 23.5985 37.6475 24.1701 37.6475 24.8755V61.5941C37.6475 62.2995 38.4071 62.8711 39.3447 62.8711H40.7276C39.4396 62.6459 38.4785 61.779 38.4785 60.7415Z" fill="#EFC68E"/>
<path d="M78.9501 51.1061L79.0203 50.0157V24.8756C79.0203 24.4742 78.7734 24.1165 78.3884 23.8822L78.9501 51.1061Z" fill="#FFF0DC"/>
<path d="M76.6798 61.1234H39.9882C39.975 61.1234 39.9646 61.1156 39.9646 61.1057V25.3372C39.9646 25.3272 39.975 25.3194 39.9882 25.3194H76.6798C76.693 25.3194 76.7034 25.3272 76.7034 25.3372V61.1057C76.704 61.1152 76.693 61.1234 76.6798 61.1234Z" fill="url(#paint11_linear_117_483)"/>
<path d="M76.6982 27.1425H39.9698C39.9669 27.1425 39.9646 27.1407 39.9646 27.1386V25.3229C39.9646 25.3207 39.9669 25.319 39.9698 25.319H76.6982C76.7011 25.319 76.7034 25.3207 76.7034 25.3229V27.1386C76.704 27.1407 76.7011 27.1425 76.6982 27.1425Z" fill="#F9E9D2"/>
<path d="M64.4724 22.7546H61.4175C61.4486 22.7182 61.4676 22.6766 61.4676 22.632V21.591C61.4676 21.3641 61.1862 21.1801 60.8386 21.1801H56.4991C56.1515 21.1801 55.8701 21.3641 55.8701 21.591V22.632C55.8701 22.6766 55.8891 22.7182 55.9202 22.7546H52.8653C52.4366 22.7546 52.0884 22.9819 52.0884 23.2621V24.7954C52.0884 25.2454 52.6466 25.61 53.3355 25.61H64.0028C64.6917 25.61 65.2499 25.2454 65.2499 24.7954V23.2621C65.2488 22.9815 64.9011 22.7546 64.4724 22.7546Z" fill="#F5A320"/>
<path d="M64.4723 22.7546H61.4175C61.4486 22.7182 61.4675 22.6766 61.4675 22.632V21.591C61.4675 21.3641 61.1861 21.1801 60.8385 21.1801H59.9309C60.3205 21.3485 60.7568 21.6127 60.7867 21.963C60.8414 22.6034 60.4598 23.3508 60.8955 23.4574C61.3311 23.5639 64.2726 23.1014 64.2179 24.0268C64.1851 24.5828 64.0936 25.2029 64.0257 25.6095C64.7037 25.6013 65.2498 25.2406 65.2498 24.7954V23.2621C65.2487 22.9815 64.9011 22.7546 64.4723 22.7546Z" fill="#EA960F"/>
<path d="M50.4388 54.7842H44.4356C44.3187 54.7842 44.2244 54.7132 44.2244 54.6253V54.0186C44.2244 53.9307 44.3187 53.8597 44.4356 53.8597H50.4394C50.5562 53.8597 50.6506 53.9307 50.6506 54.0186V54.6253C50.65 54.7132 50.5556 54.7842 50.4388 54.7842ZM52.1821 54.7842H60.0943C60.2105 54.7842 60.3055 54.7132 60.3055 54.6253V54.0186C60.3055 53.9312 60.2111 53.8597 60.0943 53.8597H52.1821C52.0652 53.8597 51.9708 53.9307 51.9708 54.0186V54.6253C51.9714 54.7132 52.0658 54.7842 52.1821 54.7842ZM61.5665 54.7842H65.9214C66.0382 54.7842 66.1326 54.7132 66.1326 54.6253V54.0186C66.1326 53.9312 66.0382 53.8597 65.9214 53.8597H61.5665C61.4496 53.8597 61.3552 53.9307 61.3552 54.0186V54.6253C61.3558 54.7132 61.4502 54.7842 61.5665 54.7842ZM48.5079 52.9005H44.4356C44.3187 52.9005 44.2244 52.8295 44.2244 52.7416V52.1349C44.2244 52.047 44.3187 51.976 44.4356 51.976H48.5079C48.6248 51.976 48.7192 52.047 48.7192 52.1349V52.7416C48.7192 52.8291 48.6242 52.9005 48.5079 52.9005ZM57.3387 52.9005H50.2736C50.1568 52.9005 50.0624 52.8295 50.0624 52.7416V52.1349C50.0624 52.0475 50.1568 51.976 50.2736 51.976H57.3387C57.4555 51.976 57.5499 52.047 57.5499 52.1349V52.7416C57.5499 52.8291 57.4555 52.9005 57.3387 52.9005ZM63.8772 52.9005H58.6756C58.5588 52.9005 58.4644 52.8295 58.4644 52.7416V52.1349C58.4644 52.0475 58.5588 51.976 58.6756 51.976H63.8777C63.994 51.976 64.089 52.047 64.089 52.1349V52.7416C64.0884 52.8291 63.994 52.9005 63.8772 52.9005ZM68.1579 52.9005H65.9197C65.8098 52.9005 65.72 52.8334 65.72 52.7503V52.1263C65.72 52.0436 65.8092 51.976 65.9197 51.976H68.1579C68.2678 51.976 68.357 52.0431 68.357 52.1258V52.7498C68.357 52.8334 68.2678 52.9005 68.1579 52.9005Z" fill="#FBEFDF"/>
<path d="M50.2247 46.2756H44.4356C44.3187 46.2756 44.2244 46.2046 44.2244 46.1167V45.51C44.2244 45.4221 44.3187 45.3511 44.4356 45.3511H50.2247C50.3416 45.3511 50.4359 45.4221 50.4359 45.51V46.1167C50.4354 46.2046 50.341 46.2756 50.2247 46.2756ZM51.286 48.1355H44.4356C44.3193 48.1355 44.2244 48.0645 44.2244 47.9766V47.3699C44.2244 47.282 44.3187 47.211 44.4356 47.211H51.286C51.4028 47.211 51.4972 47.282 51.4972 47.3699V47.9766C51.4972 48.0645 51.4022 48.1355 51.286 48.1355ZM59.6201 48.1355H52.7697C52.6528 48.1355 52.5584 48.0645 52.5584 47.9766V47.3699C52.5584 47.282 52.6528 47.211 52.7697 47.211H59.6201C59.7369 47.211 59.8313 47.282 59.8313 47.3699V47.9766C59.8313 48.0645 59.7363 48.1355 59.6201 48.1355ZM69.7498 48.1355H61.1037C60.9869 48.1355 60.8925 48.0645 60.8925 47.9766V47.3699C60.8925 47.282 60.9869 47.211 61.1037 47.211H69.7498C69.8666 47.211 69.961 47.282 69.961 47.3699V47.9766C69.961 48.0645 69.866 48.1355 69.7498 48.1355ZM55.23 46.2756H51.587C51.4707 46.2756 51.3758 46.2046 51.3758 46.1167V45.51C51.3758 45.4221 51.4701 45.3511 51.587 45.3511H55.23C55.3468 45.3511 55.4412 45.4221 55.4412 45.51V46.1167C55.4412 46.2046 55.3463 46.2756 55.23 46.2756ZM48.7451 49.8061H44.4356C44.3187 49.8061 44.2244 49.7351 44.2244 49.6472V49.0405C44.2244 48.9531 44.3187 48.8816 44.4356 48.8816H48.7451C48.8613 48.8816 48.9563 48.9526 48.9563 49.0405V49.6472C48.9563 49.7351 48.8619 49.8061 48.7451 49.8061ZM72.0628 49.8061H50.3985C50.1885 49.8061 50.0175 49.5991 50.0175 49.3441C50.0175 49.089 50.1879 48.882 50.3985 48.882H72.0628C72.2728 48.882 72.4438 49.089 72.4438 49.3441C72.4438 49.5991 72.2734 49.8061 72.0628 49.8061ZM51.9973 44.3564H44.4356C44.3187 44.3564 44.2244 44.2854 44.2244 44.1975V43.5908C44.2244 43.5029 44.3187 43.4319 44.4356 43.4319H51.9973C52.1136 43.4319 52.2085 43.5029 52.2085 43.5908V44.1975C52.2085 44.285 52.1141 44.3564 51.9973 44.3564ZM70.007 44.3564H55.9252C55.817 44.3564 55.729 44.2902 55.729 44.2087V43.58C55.729 43.4986 55.817 43.4323 55.9252 43.4323H70.0064C70.1146 43.4323 70.2027 43.4986 70.2027 43.58V44.2087C70.2027 44.2902 70.1152 44.3564 70.007 44.3564Z" fill="#FBEFDF"/>
<path d="M55.538 44.3564H53.3177C53.2008 44.3564 53.1064 44.2854 53.1064 44.1975V43.5908C53.1064 43.5029 53.2008 43.4319 53.3177 43.4319H55.538C55.6543 43.4319 55.7492 43.5029 55.7492 43.5908V44.1975C55.7486 44.285 55.6543 44.3564 55.538 44.3564Z" fill="#FBEFDF"/>
<path d="M50.2241 42.4368H44.4356C44.3187 42.4368 44.2244 42.3658 44.2244 42.2779V41.6712C44.2244 41.5833 44.3187 41.5123 44.4356 41.5123H50.2247C50.3416 41.5123 50.4359 41.5833 50.4359 41.6712V42.2779C50.4354 42.3658 50.341 42.4368 50.2241 42.4368ZM66.7571 42.4368H60.9679C60.8511 42.4368 60.7567 42.3658 60.7567 42.2779V41.6712C60.7567 41.5833 60.8511 41.5123 60.9679 41.5123H66.7571C66.8739 41.5123 66.9683 41.5833 66.9683 41.6712V42.2779C66.9683 42.3658 66.8739 42.4368 66.7571 42.4368ZM60.0718 42.4368H51.6146C51.4978 42.4368 51.4034 42.3658 51.4034 42.2779V41.6712C51.4034 41.5833 51.4978 41.5123 51.6146 41.5123H60.0718C60.1887 41.5123 60.2831 41.5833 60.2831 41.6712V42.2779C60.2831 42.3658 60.1881 42.4368 60.0718 42.4368ZM70.4387 42.4368H68.3651C68.2482 42.4368 68.1538 42.3658 68.1538 42.2779V41.6712C68.1538 41.5833 68.2482 41.5123 68.3651 41.5123H70.4387C70.5555 41.5123 70.6499 41.5833 70.6499 41.6712V42.2779C70.6499 42.3658 70.5549 42.4368 70.4387 42.4368Z" fill="#FBEFDF"/>
<path d="M47.704 37.0732H46.9846V38.8812H47.704V37.0732Z" fill="#C3A781"/>
<path d="M49.2631 34.7587H48.5437V38.8807H49.2631V34.7587Z" fill="#D6902F"/>
<path d="M50.8227 36.2513H50.1033V38.8807H50.8227V36.2513Z" fill="#FFCD87"/>
<path d="M53.4091 34.7587H52.6897V38.8807H53.4091V34.7587Z" fill="#C3A781"/>
<path d="M54.9682 37.0732H54.2488V38.8812H54.9682V37.0732Z" fill="#D6902F"/>
<path d="M56.5273 36.2513H55.8079V38.8807H56.5273V36.2513Z" fill="#FFCD87"/>
<path d="M59.1137 36.2513H58.3943V38.8807H59.1137V36.2513Z" fill="#C3A781"/>
<path d="M60.6728 34.7587H59.9534V38.8807H60.6728V34.7587Z" fill="#D6902F"/>
<path d="M62.2323 33.9645H61.5129V38.8811H62.2323V33.9645Z" fill="#FFCD87"/>
<path d="M64.8188 35.5009H64.0994V38.8811H64.8188V35.5009Z" fill="#C3A781"/>
<path d="M66.3778 34.6491H65.6584V38.8807H66.3778V34.6491Z" fill="#D6902F"/>
<path d="M67.9369 36.2513H67.2175V38.8807H67.9369V36.2513Z" fill="#FFCD87"/>
<path d="M69.1881 38.7577H45.9119V38.8811H69.1881V38.7577Z" fill="#563E1D"/>
<path d="M47.0484 29.6567L46.5759 29.7757C46.5126 29.6346 46.378 29.564 46.1725 29.564C45.9532 29.564 45.8433 29.6177 45.8433 29.7246C45.8433 29.7675 45.864 29.8035 45.9049 29.8329C45.9458 29.8624 46.039 29.8883 46.1834 29.91C46.4252 29.9468 46.6018 29.9836 46.7141 30.0213C46.8263 30.0585 46.9207 30.1191 46.9978 30.2023C47.0749 30.2854 47.1129 30.3785 47.1129 30.4812C47.1129 30.6422 47.0306 30.7817 46.8654 30.899C46.7008 31.0168 46.4562 31.0753 46.1322 31.0753C45.8894 31.0753 45.6827 31.0337 45.5118 30.9506C45.3415 30.8674 45.2287 30.744 45.1746 30.5803L45.6885 30.4928C45.746 30.6591 45.9066 30.7423 46.1702 30.7423C46.2974 30.7423 46.3918 30.7237 46.4545 30.6868C46.5167 30.65 46.5483 30.6054 46.5483 30.5543C46.5483 30.5019 46.5201 30.4617 46.4631 30.4327C46.4067 30.4041 46.2974 30.3768 46.1357 30.3517C45.8341 30.3045 45.6189 30.2404 45.4905 30.159C45.3622 30.0776 45.2983 29.9585 45.2983 29.8017C45.2983 29.6432 45.3748 29.5094 45.5279 29.4007C45.681 29.292 45.8894 29.2375 46.1518 29.2375C46.6168 29.2375 46.9155 29.3774 47.0484 29.6567ZM48.9954 29.2648V29.6177H48.4084V31.0484H47.8455V29.6177H47.2551V29.2648H48.9954ZM50.2311 29.2648L50.9729 31.0484H50.3761L50.2299 30.6812H49.4639L49.3154 31.0484H48.8285L49.5882 29.2648H50.2311ZM49.5974 30.3521H50.0998L49.8506 29.7264L49.5974 30.3521ZM51.7878 30.3413V31.048H51.2284V29.2643H52.2701C52.4623 29.2643 52.6166 29.2812 52.7328 29.3146C52.8491 29.3479 52.9458 29.4098 53.0218 29.4995C53.0983 29.5891 53.1363 29.6887 53.1363 29.7987C53.1363 30.013 52.9993 30.1663 52.7248 30.2594L53.1622 31.048H52.5487L52.1844 30.3413H51.7878ZM51.7878 29.5822V30.0369H52.128C52.239 30.0369 52.3196 30.0308 52.3703 30.0191C52.4209 30.0074 52.4652 29.981 52.5049 29.9407C52.5441 29.9 52.5642 29.8537 52.5642 29.8017C52.5642 29.7519 52.5446 29.7078 52.5049 29.6684C52.4658 29.6289 52.4226 29.6051 52.3766 29.596C52.3306 29.5869 52.2437 29.5822 52.1159 29.5822H51.7878ZM55.0683 29.2648V29.6177H54.4813V31.0484H53.9184V29.6177H53.3279V29.2648H55.0683ZM56.1952 29.2648H57.2996C57.4976 29.2648 57.646 29.283 57.7456 29.3198C57.8452 29.3561 57.9275 29.4085 57.9919 29.4765C58.057 29.5445 58.0892 29.6272 58.0892 29.7246C58.0892 29.9221 57.947 30.0542 57.6622 30.1204C57.8268 30.1482 57.9499 30.2036 58.0322 30.2867C58.1145 30.3694 58.1554 30.4599 58.1554 30.5574C58.1554 30.6907 58.088 30.8059 57.9539 30.9034C57.8198 31.0004 57.6012 31.0493 57.299 31.0493H56.1946V29.2648H56.1952ZM56.7494 29.5796V29.9702H57.1695C57.3238 29.9702 57.4204 29.9472 57.4601 29.9018C57.4999 29.8559 57.52 29.8121 57.52 29.7706C57.52 29.7251 57.5033 29.6861 57.4705 29.6536C57.4377 29.6212 57.4014 29.6004 57.3617 29.5921C57.3226 29.5839 57.2449 29.5796 57.1292 29.5796H56.7494ZM56.7494 30.288V30.718H57.1758C57.3214 30.718 57.4245 30.699 57.4843 30.6604C57.5442 30.6219 57.5747 30.5686 57.5747 30.4998C57.5747 30.4422 57.5459 30.3928 57.4878 30.3508C57.4302 30.3088 57.3341 30.288 57.2 30.288H56.7494ZM60.3803 29.2648V30.3755C60.3803 30.5548 60.3533 30.6886 60.2986 30.7761C60.2439 30.8635 60.1438 30.9354 59.997 30.9917C59.8509 31.048 59.6632 31.0761 59.4353 31.0761C59.2074 31.0761 59.0256 31.051 58.8909 31.0004C58.7562 30.9497 58.6549 30.8778 58.5876 30.7847C58.5203 30.6916 58.4869 30.5552 58.4869 30.3759V29.2652H59.0894V30.3759C59.0894 30.4716 59.1004 30.5422 59.1217 30.5877C59.143 30.6332 59.1861 30.6691 59.25 30.6955C59.3145 30.7219 59.3933 30.7353 59.4871 30.7353C59.5913 30.7353 59.6759 30.7224 59.7415 30.6959C59.8071 30.67 59.8503 30.6353 59.8716 30.592C59.8929 30.5487 59.9038 30.4768 59.9038 30.3759V29.2652H60.3803V29.2648ZM62.4591 29.6567L61.9866 29.7757C61.9233 29.6346 61.7886 29.564 61.5832 29.564C61.3639 29.564 61.254 29.6177 61.254 29.7246C61.254 29.7675 61.2747 29.8035 61.3155 29.8329C61.3564 29.8624 61.4496 29.8883 61.5941 29.91C61.8358 29.9468 62.0125 29.9836 62.1247 30.0213C62.237 30.0585 62.3313 30.1191 62.4085 30.2023C62.4856 30.2854 62.5236 30.3785 62.5236 30.4812C62.5236 30.6422 62.4413 30.7817 62.2761 30.899C62.1115 31.0168 61.8669 31.0753 61.5429 31.0753C61.3 31.0753 61.0934 31.0337 60.9225 30.9506C60.7521 30.8674 60.6393 30.744 60.5852 30.5803L61.0992 30.4928C61.1567 30.6591 61.3173 30.7423 61.5809 30.7423C61.708 30.7423 61.8024 30.7237 61.8652 30.6868C61.9273 30.65 61.959 30.6054 61.959 30.5543C61.959 30.5019 61.9308 30.4617 61.8738 30.4327C61.8174 30.4041 61.708 30.3768 61.5463 30.3517C61.2448 30.3045 61.0295 30.2404 60.9012 30.159C60.7728 30.0776 60.7089 29.9585 60.7089 29.8017C60.7089 29.6432 60.7855 29.5094 60.9386 29.4007C61.0917 29.292 61.3 29.2375 61.5624 29.2375C62.0269 29.2375 62.3262 29.3774 62.4591 29.6567ZM63.4404 29.2648V31.0484H62.8861V29.2648H63.4404ZM65.7396 29.2648V31.0484H65.2659L64.3382 29.8437C64.3393 29.874 64.3405 29.8944 64.3416 29.9039C64.3462 29.9342 64.3485 29.9602 64.3485 29.981V31.0484H63.9163V29.2648H64.5149L65.3212 30.3166C65.3142 30.2642 65.3108 30.2248 65.3108 30.1975V29.2648H65.7396ZM67.9087 29.6047H66.7801V29.9706H67.6675V30.3062H66.7801V30.6955H67.9087V31.0484H66.2155V29.2648H67.9087V29.6047ZM69.8798 29.6567L69.4073 29.7757C69.344 29.6346 69.2094 29.564 69.0039 29.564C68.7846 29.564 68.6747 29.6177 68.6747 29.7246C68.6747 29.7675 68.6954 29.8035 68.7363 29.8329C68.7771 29.8624 68.8704 29.8883 69.0148 29.91C69.2565 29.9468 69.4332 29.9836 69.5455 30.0213C69.6577 30.0585 69.7521 30.1191 69.8292 30.2023C69.9063 30.2854 69.9443 30.3785 69.9443 30.4812C69.9443 30.6422 69.862 30.7817 69.6968 30.899C69.5322 31.0168 69.2876 31.0753 68.9636 31.0753C68.7207 31.0753 68.5141 31.0337 68.3432 30.9506C68.1728 30.8674 68.06 30.744 68.0059 30.5803L68.5199 30.4928C68.5774 30.6591 68.738 30.7423 69.0016 30.7423C69.1288 30.7423 69.2232 30.7237 69.2859 30.6868C69.3481 30.65 69.3797 30.6054 69.3797 30.5543C69.3797 30.5019 69.3515 30.4617 69.2945 30.4327C69.2381 30.4041 69.1288 30.3768 68.9671 30.3517C68.6655 30.3045 68.4502 30.2404 68.3219 30.159C68.1936 30.0776 68.1297 29.9585 68.1297 29.8017C68.1297 29.6432 68.2062 29.5094 68.3593 29.4007C68.5124 29.292 68.7207 29.2375 68.9832 29.2375C69.4476 29.2375 69.7469 29.3774 69.8798 29.6567ZM71.9448 29.6567L71.4723 29.7757C71.409 29.6346 71.2743 29.564 71.0689 29.564C70.8496 29.564 70.7397 29.6177 70.7397 29.7246C70.7397 29.7675 70.7604 29.8035 70.8012 29.8329C70.8421 29.8624 70.9353 29.8883 71.0798 29.91C71.3215 29.9468 71.4982 29.9836 71.6104 30.0213C71.7226 30.0585 71.817 30.1191 71.8942 30.2023C71.9713 30.2854 72.0093 30.3785 72.0093 30.4812C72.0093 30.6422 71.927 30.7817 71.7618 30.899C71.5972 31.0168 71.3526 31.0753 71.0286 31.0753C70.7857 31.0753 70.5791 31.0337 70.4082 30.9506C70.2378 30.8674 70.125 30.744 70.0709 30.5803L70.5848 30.4928C70.6424 30.6591 70.803 30.7423 71.0666 30.7423C71.1937 30.7423 71.2881 30.7237 71.3509 30.6868C71.413 30.65 71.4447 30.6054 71.4447 30.5543C71.4447 30.5019 71.4165 30.4617 71.3595 30.4327C71.3031 30.4041 71.1937 30.3768 71.032 30.3517C70.7305 30.3045 70.5152 30.2404 70.3869 30.159C70.2585 30.0776 70.1946 29.9585 70.1946 29.8017C70.1946 29.6432 70.2712 29.5094 70.4243 29.4007C70.5774 29.292 70.7857 29.2375 71.0481 29.2375C71.5126 29.2375 71.8113 29.3774 71.9448 29.6567Z" fill="#77521D"/>
<path d="M72.1969 56.9992H64.7054C64.569 56.9992 64.4585 57.0824 64.4585 57.185V58.0268C64.4585 58.1294 64.569 58.2121 64.7054 58.2121H72.1969C72.3333 58.2121 72.4432 58.129 72.4432 58.0268V57.185C72.4438 57.0824 72.3333 56.9992 72.1969 56.9992Z" fill="#77521D"/>
<path opacity="0.2" d="M49.8679 61.446L45.4871 47.7817C45.3869 47.4699 45.0255 47.2512 44.61 47.2512H42.0443C41.8878 46.8502 41.5028 46.5726 41.0412 46.5726C40.5906 46.5726 40.213 46.8363 40.0496 47.2222C40.0444 47.2339 40.0576 47.2464 40.0761 47.2464H40.4369C40.4484 47.2464 40.4582 47.2417 40.4622 47.2343C40.5842 47.0031 40.8006 46.845 41.0418 46.845C41.2887 46.845 41.5074 47.0117 41.6277 47.2516H37.6479V61.5945C37.6479 61.8613 37.7567 62.1085 37.9426 62.3134H48.9908C49.5779 62.3125 50.0089 61.8864 49.8679 61.446Z" fill="#23211F"/>
<path d="M21.4795 48.7404L19.5002 62.8706H26.468L21.4795 48.7404Z" fill="#FFF0DC"/>
<path d="M21.4795 48.7404L22.6651 62.277L26.4681 62.8706L21.4795 48.7404Z" fill="#E2C69F"/>
<path d="M19.5002 62.8706L22.6834 61.8959L26.468 62.8706H19.5002Z" fill="#C89A5A"/>
<path d="M22.3134 48.2567H43.5518C43.9661 48.2567 44.3264 48.4688 44.426 48.7715L48.7942 62.0297C48.9352 62.4571 48.5053 62.8706 47.9194 62.8706H26.6816C26.2672 62.8706 25.907 62.6585 25.8068 62.3558L21.4386 49.0976C21.2982 48.6702 21.7281 48.2567 22.3134 48.2567Z" fill="#EDDABF"/>
<path d="M43.4653 50.0849L47.3984 62.2566H27.0723L23.1392 50.0849H43.4653Z" fill="white"/>
<path d="M37.7165 51.4208L38.6517 54.071H35.2999L34.2864 51.4208H37.7165Z" fill="#F9F5EF"/>
<path d="M33.3892 51.4208L34.3244 54.071H30.972L29.9585 51.4208H33.3892Z" fill="#FBEFDF"/>
<path d="M29.0614 51.4208L29.9967 54.071H26.6448L25.6313 51.4208H29.0614Z" fill="#F9F5EF"/>
<path d="M38.9528 54.8422L39.888 57.4924H36.5362L35.5227 54.8422H38.9528Z" fill="#FBEFDF"/>
<path d="M43.3767 54.8422L44.3119 57.4924H40.9595L39.946 54.8422H43.3767Z" fill="#FFC16A"/>
<path d="M34.6255 54.8422L35.5607 57.4924H32.2083L31.1948 54.8422H34.6255Z" fill="#C89A5A"/>
<path d="M30.2975 54.8422L31.2327 57.4924H27.8809L26.8674 54.8422H30.2975Z" fill="#FBEFDF"/>
<path d="M40.3232 58.3879L41.2584 61.038H37.9066L36.8931 58.3879H40.3232Z" fill="#C89A5A"/>
<path d="M44.747 58.3879L45.6822 61.038H42.3304L41.3169 58.3879H44.747Z" fill="#FBEFDF"/>
<path d="M35.9958 58.3879L36.931 61.038H33.5792L32.5657 58.3879H35.9958Z" fill="#FBEFDF"/>
<path d="M31.6679 58.3879L32.6037 61.038H29.2513L28.2378 58.3879H31.6679Z" fill="#FBEFDF"/>
<path d="M43.5787 50.4357H23.2525L23.1392 50.0849H43.4653L43.5787 50.4357Z" fill="#F9E9D2"/>
<path d="M25.2659 49.551C25.2659 49.7255 25.4028 49.8671 25.572 49.8671C25.7412 49.8671 25.8782 49.7255 25.8782 49.551C25.8782 49.3765 25.7412 49.2349 25.572 49.2349C25.4028 49.2353 25.2659 49.3765 25.2659 49.551Z" fill="#E2C69F"/>
<path d="M25.5323 49.4479C25.5323 49.4362 25.549 49.428 25.5657 49.4306C25.591 49.4345 25.6169 49.4367 25.6428 49.4367C26.0123 49.4367 26.3242 49.076 26.3242 48.6494C26.3242 48.2229 26.0123 47.8622 25.6428 47.8622C25.4023 47.8622 25.1864 48.0155 25.065 48.2398C25.061 48.2467 25.0512 48.2515 25.0403 48.2515H24.68C24.6621 48.2515 24.6489 48.2398 24.6535 48.2281C24.817 47.8539 25.1933 47.598 25.6423 47.598C26.2454 47.598 26.7185 48.0596 26.7185 48.649C26.7185 49.2384 26.246 49.7 25.6423 49.7C25.6129 49.7 25.5841 49.6987 25.5553 49.6969C25.5415 49.6961 25.5312 49.6878 25.5312 49.6787V49.4479H25.5323Z" fill="#3C2D17"/>
<path d="M30.0818 49.551C30.0818 49.7255 30.2188 49.8671 30.388 49.8671C30.5572 49.8671 30.6941 49.7255 30.6941 49.551C30.6941 49.3765 30.5572 49.2349 30.388 49.2349C30.2193 49.2353 30.0818 49.3765 30.0818 49.551Z" fill="#E2C69F"/>
<path d="M30.3487 49.4479C30.3487 49.4362 30.3654 49.428 30.3821 49.4306C30.4074 49.4345 30.4333 49.4367 30.4592 49.4367C30.8287 49.4367 31.1406 49.076 31.1406 48.6494C31.1406 48.2229 30.8287 47.8622 30.4592 47.8622C30.2187 47.8622 30.0028 48.0155 29.8814 48.2398C29.8774 48.2467 29.8676 48.2515 29.8567 48.2515H29.4964C29.4785 48.2515 29.4653 48.2398 29.4699 48.2281C29.6334 47.8539 30.0098 47.598 30.4587 47.598C31.0618 47.598 31.5349 48.0596 31.5349 48.649C31.5349 49.2384 31.0624 49.7 30.4587 49.7C30.4293 49.7 30.4005 49.6987 30.3718 49.6969C30.3579 49.6961 30.3476 49.6878 30.3476 49.6787V49.4479H30.3487Z" fill="#3C2D17"/>
<path d="M34.8984 49.551C34.8984 49.7255 35.0354 49.8671 35.2046 49.8671C35.3738 49.8671 35.5108 49.7255 35.5108 49.551C35.5108 49.3765 35.3738 49.2349 35.2046 49.2349C35.0354 49.2353 34.8984 49.3765 34.8984 49.551Z" fill="#E2C69F"/>
<path d="M35.1654 49.4479C35.1654 49.4362 35.1821 49.428 35.1988 49.4306C35.2241 49.4345 35.25 49.4367 35.2759 49.4367C35.6454 49.4367 35.9573 49.076 35.9573 48.6494C35.9573 48.2229 35.6454 47.8622 35.2759 47.8622C35.0353 47.8622 34.8195 48.0155 34.6981 48.2398C34.694 48.2467 34.6842 48.2515 34.6733 48.2515H34.313C34.2952 48.2515 34.282 48.2398 34.2866 48.2281C34.45 47.8539 34.8264 47.598 35.2753 47.598C35.8785 47.598 36.3515 48.0596 36.3515 48.649C36.3515 49.2384 35.879 49.7 35.2753 49.7C35.246 49.7 35.2172 49.6987 35.1884 49.6969C35.1746 49.6961 35.1642 49.6878 35.1642 49.6787V49.4479H35.1654Z" fill="#3C2D17"/>
<path d="M39.9226 49.8671C40.0917 49.8671 40.2288 49.7256 40.2288 49.551C40.2288 49.3764 40.0917 49.2349 39.9226 49.2349C39.7535 49.2349 39.6165 49.3764 39.6165 49.551C39.6165 49.7256 39.7535 49.8671 39.9226 49.8671Z" fill="#E2C69F"/>
<path d="M39.8829 49.4479C39.8829 49.4362 39.8996 49.428 39.9163 49.4306C39.9416 49.4345 39.9675 49.4367 39.9934 49.4367C40.3629 49.4367 40.6748 49.076 40.6748 48.6494C40.6748 48.2229 40.3629 47.8622 39.9934 47.8622C39.7528 47.8622 39.537 48.0155 39.4156 48.2398C39.4116 48.2467 39.4018 48.2515 39.3908 48.2515H39.0306C39.0127 48.2515 38.9995 48.2398 39.0041 48.2281C39.1675 47.8539 39.5439 47.598 39.9928 47.598C40.596 47.598 41.0691 48.0596 41.0691 48.649C41.0691 49.2384 40.5966 49.7 39.9928 49.7C39.9635 49.7 39.9347 49.6987 39.9059 49.6969C39.8921 49.6961 39.8818 49.6878 39.8818 49.6787V49.4479H39.8829Z" fill="#3C2D17"/>
<path d="M48.2858 62.6433C47.9819 62.5766 47.2136 62.6979 46.9402 62.4636L45.8784 62.4437C45.8346 62.6533 45.7437 63.1863 45.9244 63.2443C46.1506 63.3167 48.3905 62.9174 48.3905 62.9174C48.3905 62.9174 48.6259 62.7178 48.2858 62.6433Z" fill="#332D25"/>
<path d="M50.3755 62.8209C50.0912 62.7585 49.3574 62.7598 49.0288 62.5459L47.899 62.5247C47.8535 62.7563 47.7839 63.3197 47.9531 63.3743C48.1787 63.4466 50.4808 63.095 50.4808 63.095C50.4808 63.095 50.7156 62.8953 50.3755 62.8209Z" fill="#3D362D"/>
<path d="M46.9616 54.3958C46.9616 54.3958 46.1708 53.4414 45.8813 53.2483C45.8813 53.2483 46.6025 52.3276 46.6497 51.892C46.6969 51.4564 45.9383 50.5622 45.6672 51.2767C45.3956 51.9907 44.7717 53.0928 45.0301 53.5765C45.2886 54.0602 46.0126 54.1918 46.416 54.7721L46.9616 54.3958Z" fill="#9F6F2D"/>
<path d="M46.5892 54.6521L46.416 54.7716C46.0126 54.1918 45.2886 54.0597 45.0301 53.576C44.7717 53.0923 45.3956 51.9907 45.6672 51.2762C45.7639 51.022 45.9222 50.9722 46.0839 51.0324C45.8267 51.2736 45.2696 52.8013 45.2707 53.1521C45.2719 53.5028 45.5942 53.7566 45.9164 54.0099C46.1449 54.1905 46.4384 54.4923 46.5892 54.6521Z" fill="#E09F44"/>
<path d="M46.9656 62.464L45.825 62.4424C45.825 62.4424 46.0131 60.2127 46.5064 59.1058C46.5064 59.1058 46.1513 57.7678 46.0655 56.9073C46.0655 56.9073 45.7375 56.4717 45.8888 55.3579L49.0858 55.3324C49.0858 55.3324 49.7903 58.18 49.887 58.6971C49.9836 59.2141 49.0968 61.8599 49.0743 62.5463L47.8197 62.5225C47.8197 62.5225 48.0194 59.9498 48.5011 59.186C48.5011 59.186 47.9538 58.4888 47.6257 58.0531C47.6257 58.0531 47.8082 59.4306 47.6856 59.6861C47.5636 59.942 47.0525 61.5642 46.9656 62.464Z" fill="#524A3F"/>
<path d="M48.8066 53.4379C48.9378 52.9252 49.08 52.2735 49.08 52.2735C49.08 52.2735 49.1059 52.0829 49.1093 52.0829C49.1093 52.0812 49.0932 51.8759 49.0932 51.8742C49.1013 50.9362 48.3192 50.8522 48.3192 50.8522C48.3192 50.8522 48.3203 50.8518 48.3209 50.8518L48.0993 50.6764L46.5022 50.6461C46.5022 50.6461 45.6982 50.8029 45.5584 51.5732C45.4185 52.3436 46.0602 53.644 45.929 54.1567C45.7978 54.6694 45.5066 55.4809 45.8634 55.5944C46.2202 55.7078 48.6184 55.6671 49.0863 55.3324C49.5536 54.9981 48.6754 53.951 48.8066 53.4379Z" fill="#E09F44"/>
<path d="M48.8068 53.4379C48.9161 53.0114 49.0324 52.4896 49.0686 52.3263C49.0698 52.3146 49.0703 52.3029 49.0715 52.2917C49.0721 52.2821 49.0726 52.273 49.0732 52.264C49.0859 52.0903 49.0922 51.9526 49.0945 51.8898C49.0939 51.8812 49.0934 51.8751 49.0934 51.8747C49.0945 51.7694 49.0842 51.6763 49.0675 51.5915C48.4142 51.5746 48.5012 51.7655 48.5012 51.7655C48.5012 51.7655 48.3273 51.8773 48.2986 52.0782C48.1909 52.8321 48.2387 53.1404 48.2243 53.5747C48.2099 54.0091 48.6168 54.0169 48.5909 54.7985C48.5771 55.2203 47.936 55.4783 47.3484 55.6269C47.6569 55.6126 47.9642 55.5901 48.2439 55.5593C48.6272 55.5082 48.9449 55.4342 49.0859 55.3333C49.5538 54.9981 48.6755 53.951 48.8068 53.4379Z" fill="#9F6F2D"/>
<path d="M47.6861 59.6866C47.8087 59.4311 47.6263 58.0536 47.6263 58.0536C47.6591 58.0969 47.6942 58.1433 47.7304 58.1909C47.8047 57.5119 47.1543 56.7996 47.1543 56.7996C47.5618 58.2671 47.3028 59.2072 47.0513 59.8897C46.8004 60.5721 46.5823 62.4576 46.5823 62.4576L46.9661 62.4649C47.0525 61.5642 47.5635 59.9421 47.6861 59.6866Z" fill="#40392F"/>
<path d="M48.545 48.8785C48.4805 48.9339 48.4097 48.9885 48.3303 49.04C48.3314 49.0413 48.5455 49.2682 48.423 49.5228C48.423 49.5228 48.3205 49.1773 48.092 49.1729C48.092 49.1729 48.1323 50.0559 47.8981 50.2231C47.6926 50.3699 46.9629 50.4703 46.7016 50.4179C46.72 50.4868 46.6941 50.6461 46.6941 50.6461L48.065 50.6751L48.0523 50.3746C48.0523 50.3746 48.7452 50.1299 48.7568 49.7866C48.7683 49.4432 48.5455 48.8781 48.5455 48.8781C48.5455 48.8785 48.5455 48.8785 48.545 48.8785Z" fill="#FBD7A4"/>
<path d="M45.7996 48.9959C45.8048 48.9257 45.8307 48.8573 45.875 48.7949L46.0592 48.5342C46.0592 48.5342 46.0747 48.5022 46.1081 48.4546C46.3285 48.1423 46.8183 47.9968 47.2672 48.1008L48.1909 48.3143C48.3923 48.3606 48.6081 48.3701 48.8119 48.3294C48.8579 48.3203 48.9028 48.3086 48.9431 48.2939C48.9747 48.2822 49.0081 48.3056 48.9949 48.3298C48.9149 48.4775 48.7111 48.7923 48.3302 49.0405C48.3313 49.0417 48.5454 49.2687 48.4228 49.5233C48.4228 49.5233 48.3204 49.1777 48.0919 49.1734C48.0919 49.1734 48.1748 50.1196 47.9405 50.2872C47.7069 50.4543 46.7354 50.479 46.6243 50.3911C46.5132 50.3032 46.6358 50.0477 46.4102 49.9576C46.2042 49.8749 45.7668 49.4605 45.7996 48.9959Z" fill="#523C1E"/>
<path d="M51.1905 50.9207C51.1922 50.8674 51.202 50.8246 51.2239 50.8021C51.3275 50.6977 51.5059 50.5669 51.3908 50.4361C51.3695 50.4119 51.3488 50.3855 51.3505 50.3565C51.3522 50.3218 51.385 50.2932 51.4109 50.2647C51.4368 50.2361 51.4576 50.198 51.434 50.1681C51.4098 50.1369 51.3517 50.1317 51.3194 50.1049C51.2912 50.0815 51.2889 50.0468 51.2924 50.0152C51.2953 49.9836 51.3022 49.9511 51.2866 49.9217C51.2078 49.7727 50.8677 49.9905 50.7928 50.039C50.7215 50.0854 50.653 50.1347 50.5868 50.1858C50.569 50.1997 50.5045 50.2352 50.4999 50.2556L50.4458 50.4829L50.638 50.9047C50.7882 50.8856 50.9954 50.8761 51.1905 50.9207Z" fill="#FBD7A4"/>
<path d="M50.5614 50.4586L50.063 49.273L50.9729 49.1158L51.2152 50.4201L50.5614 50.4586Z" fill="#674A21"/>
<path d="M50.7479 50.3422C50.7594 50.3738 50.8026 50.3924 50.8446 50.3833C50.8866 50.3747 50.9114 50.3422 50.8999 50.3106C50.8884 50.279 50.8452 50.2608 50.8032 50.2694C50.7612 50.2781 50.7364 50.3106 50.7479 50.3422Z" fill="#7A5B31"/>
<path d="M50.3087 49.3176L50.3479 49.3726L50.7024 49.3145L50.7128 49.2582L50.8889 49.2305L51.0264 50.223L50.5309 50.2477L50.1982 49.3384L50.3087 49.3176Z" fill="#F7E0C1"/>
<path d="M50.6369 49.2635L50.3682 49.3033L50.3802 49.3362L50.6438 49.2817L50.6369 49.2635Z" fill="#7A5B31"/>
<path d="M50.5944 50.7618C50.5944 50.7618 50.6116 50.8211 50.637 50.9042C50.7319 50.8925 50.8487 50.8843 50.9719 50.8908C50.9466 50.5669 50.5616 50.4582 50.5616 50.4582C50.5616 50.4582 50.8631 50.3911 50.8338 50.2685C50.8044 50.146 50.2243 50.301 50.1984 50.4002C50.1725 50.4994 50.5944 50.7618 50.5944 50.7618Z" fill="#FBD7A4"/>
<path d="M51.3522 50.9722C50.962 50.8033 50.4228 50.9423 50.4228 50.9423L50.3681 52.4034C50.3681 52.4034 48.9028 51.0281 48.714 50.9532C48.588 50.9029 48.4401 50.8397 48.0654 50.8908L48.2375 52.0284C48.2375 52.0284 50.3341 53.7718 50.8239 53.6921C51.1571 53.638 51.3942 53.4717 51.4449 53.1001C51.5208 52.5407 51.3522 50.9722 51.3522 50.9722Z" fill="#E09F44"/>
<path d="M82.1737 55.018C82.1737 55.018 82.1616 54.624 81.696 54.4776C81.2437 54.3352 81.5648 55.2748 82.1737 55.018Z" fill="#EDC183"/>
<path d="M80.4356 52.8191C80.6612 53.1487 81.2719 53.0846 81.2719 53.0846L80.9996 53.5722C80.3038 53.7224 79.6627 53.2188 79.6627 53.2188C78.8886 52.6022 78.8438 50.9571 78.8438 50.9571C79.8354 51.1866 80.21 52.49 80.4356 52.8191Z" fill="#FCD196"/>
<path d="M79.4272 61.8015L79.5308 62.4701L78.3418 62.4052V61.8015H79.4272Z" fill="#FDD399"/>
<path d="M76.1099 61.3065L75.619 61.8296L74.7051 61.2429L75.1661 60.7535L76.1099 61.3065Z" fill="#FDD399"/>
<path d="M74.7369 61.074C74.7369 61.074 75.4787 61.6426 75.8441 61.6885C75.8441 61.6885 75.8758 61.9804 76.2476 62.481C76.6194 62.9815 76.704 63.289 75.9915 62.933C75.279 62.5771 74.041 61.7539 74.1573 61.6032C74.2747 61.4521 74.7369 61.074 74.7369 61.074Z" fill="#3D362D"/>
<path d="M79.0315 54.9202C79.0315 54.9202 79.6686 60.3928 79.6265 61.8807H78.1227L78.0939 59.7684C78.0939 59.7684 76.9602 60.7393 76.0905 61.4066C76.0905 61.4066 75.2779 61.3724 75.0293 60.8319C75.0293 60.8319 76.7967 58.6867 76.921 58.4004C77.0453 58.1146 75.6215 56.1916 75.7044 54.9202H79.0315Z" fill="#524431"/>
<path d="M75.1875 60.6384C75.786 60.1179 76.8922 58.9798 77.1414 58.8049C77.4729 58.5719 76.5066 56.2639 76.4513 55.5888C76.3978 54.9349 77.8055 54.9206 77.8936 54.9206H75.7037C75.6209 56.192 77.0447 58.1146 76.9204 58.4009C76.8185 58.6338 75.6243 60.1044 75.1875 60.6384Z" fill="#3D3222"/>
<path d="M78.2389 62.2545C78.2389 62.2545 79.2743 62.3818 79.6058 62.2545C79.6058 62.2545 79.8544 62.477 80.5376 62.7152C81.2213 62.9538 81.718 63.1604 80.8691 63.192C80.0202 63.2236 78.2597 63.1283 78.2389 62.9538C78.2182 62.7789 78.2389 62.2545 78.2389 62.2545Z" fill="#3D362D"/>
<path d="M78.4842 50.6778C78.1072 50.7349 77.8125 50.9696 77.9225 51.252C77.9351 51.284 78.0341 51.4105 78.0525 51.4408C78.2096 51.6963 78.7495 52.3229 78.86 52.6407L80.247 52.3627C80.247 52.3627 80.0214 52.0154 79.7981 51.5529C79.6099 51.1636 79.3676 50.5431 78.4842 50.6778Z" fill="#F8B65A"/>
<path d="M79.4602 52.5203L78.86 52.6407C78.8185 52.5207 78.7155 52.3566 78.5952 52.1856L78.9077 51.4208L79.4602 52.5203Z" fill="#EAA544"/>
<path d="M78.7793 55.2233C78.9007 55.2277 78.987 55.2186 79.0498 55.2038C79.1171 55.1172 79.1303 54.9839 79.1142 54.7258C79.0878 54.2992 79.1821 53.5064 79.1816 52.8646C79.1816 52.2674 79.4193 51.2433 79.1137 50.8311C78.8081 50.4188 77.6236 50.237 77.6236 50.237C77.5281 50.2253 76.5739 50.2062 76.2781 50.5981C75.8643 51.1459 75.9857 51.5378 76.0554 52.1462C76.125 52.7546 75.8712 53.7571 75.7561 54.2737C75.6876 54.5807 75.6847 54.8483 75.7866 55.015C76.6032 55.0553 78.4017 55.2103 78.7793 55.2233Z" fill="#F8B65A"/>
<path d="M77.5316 49.9927C77.5316 49.9927 77.4309 50.2604 77.1967 50.2456C77.2174 50.2352 77.0113 50.4028 77.6335 50.7038C78.2556 51.0047 78.6625 50.7783 78.5572 50.4158C78.5578 50.4158 77.7699 49.9979 77.5316 49.9927Z" fill="#EFC386"/>
<path d="M78.7757 55.2264C78.907 55.2311 78.9973 55.2203 79.0606 55.2034C79.0837 55.1748 79.1009 55.1415 79.1107 55.1003C78.4684 55.1631 76.9306 54.902 76.4507 54.7106C75.9091 54.4945 76.0754 53.6895 76.4023 53.0543C76.7292 52.419 76.4909 51.6157 76.4909 51.6157C76.3845 51.5512 76.2112 51.3654 76.0179 51.1264C75.9419 51.4442 75.901 51.7019 75.8936 52.1029C75.8826 52.671 75.6772 53.6406 75.6679 54.2399C75.6633 54.5591 75.5563 54.8379 75.649 55.0116C76.3833 55.0393 78.3763 55.2121 78.7757 55.2264Z" fill="#EAA544"/>
<path d="M78.7138 59.7684C78.7414 59.2921 78.342 58.1484 78.342 58.1484C78.4945 59.1435 78.0928 59.7684 78.0928 59.7684L78.1215 61.8807H78.6729C77.9725 60.6994 78.7391 59.8741 78.7138 59.7684Z" fill="#3D3222"/>
<path d="M78.8587 54.259C79.1027 54.3256 79.4129 54.3694 79.4331 54.4569C79.4762 54.6474 79.1234 54.7457 78.9473 54.6933C78.7758 54.6322 78.6325 54.4235 78.6325 54.4235C78.6325 54.4235 78.617 54.1931 78.8587 54.259Z" fill="#FFBF66"/>
<path d="M79.8929 54.7413C79.924 54.7253 79.776 54.5382 79.7283 54.5084C79.6897 54.4841 79.65 54.4508 79.2753 54.3629L79.4043 54.5361C79.4043 54.5361 79.6385 54.5634 79.6702 54.5763C79.7018 54.5889 79.7697 54.7374 79.8929 54.7413ZM79.6091 55.0761C79.6621 55.0739 79.6017 54.8712 79.5752 54.8262C79.5418 54.7695 79.5516 54.7439 79.3323 54.4655L79.2909 54.6569C79.2909 54.6569 79.4647 54.8401 79.4791 54.8673C79.4929 54.8946 79.5286 55.0414 79.6091 55.0761ZM79.4284 55.0986C79.4796 55.0964 79.4209 54.902 79.3956 54.8587C79.3634 54.8041 79.3732 54.7799 79.162 54.5122L79.1223 54.6959C79.1223 54.6959 79.2892 54.8717 79.303 54.8981C79.3168 54.9241 79.3507 55.0652 79.4284 55.0986ZM79.1959 55.0102C79.2391 55.0085 79.1896 54.844 79.1683 54.8071C79.1413 54.7608 79.1493 54.7405 78.9709 54.514L78.9369 54.6694C78.9369 54.6694 79.0779 54.818 79.09 54.8405C79.1015 54.8626 79.1303 54.9821 79.1959 55.0102ZM78.6687 54.4382L78.2889 54.4508L78.2883 54.1481C78.2883 54.1481 78.5185 54.1758 78.8587 54.2594L78.6687 54.4382Z" fill="#FFBF66"/>
<path d="M76.4041 50.7505C75.6738 50.7012 74.4957 53.5024 74.9015 53.9506C75.416 54.5967 77.4947 54.4222 78.6107 54.5391C78.6107 54.5391 78.8334 54.4019 78.8927 54.2373C78.156 53.8099 76.0864 53.5856 75.9172 53.5016C75.7486 53.4171 77.1322 50.7999 76.4041 50.7505Z" fill="#FCD196"/>
<path d="M75.0218 53.8229C74.703 53.4713 75.393 51.6699 76.0865 50.8696C75.3643 51.5646 74.5643 53.5782 74.9016 53.9502C75.4161 54.5963 77.4948 54.4218 78.6108 54.5387C78.6108 54.5387 78.6867 54.4885 78.7616 54.4166C77.637 54.3066 75.5312 54.4629 75.0218 53.8229Z" fill="#EFC386"/>
<path d="M81.6977 55.0938L77.9292 54.9574L78.8592 52.7438L82.6277 52.8797L81.6977 55.0938Z" fill="#B4A083"/>
<path d="M81.665 55.2978L76.1182 55.1012L76.1285 54.9276L81.6754 55.1241L81.665 55.2978Z" fill="#D7C2A5"/>
<path d="M81.7007 55.0912L78.0186 54.9609L78.9302 52.7901L82.6123 52.9204L81.7007 55.0912Z" fill="#D7C2A5"/>
<path d="M80.6688 53.929C80.6158 54.0342 80.4483 54.1152 80.2941 54.11C80.1399 54.1044 80.0581 54.0147 80.1111 53.9095C80.164 53.8043 80.3315 53.7233 80.4857 53.7285C80.64 53.7337 80.7217 53.8238 80.6688 53.929Z" fill="#B4A083"/>
<path opacity="0.2" d="M78.0186 54.9609L78.9302 52.7901L82.6123 52.9204L78.0186 54.9609Z" fill="#D7C2A5"/>
<path d="M77.9057 55.1649L76.1182 55.1012L76.1285 54.9276L77.9167 54.9908L77.9057 55.1649Z" fill="#B4A083"/>
<path d="M79.0781 55.0752L78.3875 55.051L78.3921 54.9743L79.0827 54.999L79.0781 55.0752Z" fill="#B4A083"/>
<path d="M81.4429 55.1592L80.8518 55.138L80.8558 55.0618L81.4475 55.0826L81.4429 55.1592Z" fill="#B4A083"/>
<path d="M78.9526 52.8191L82.6008 52.9482L82.6123 52.9204L78.9302 52.7901L78.0186 54.9609L78.0525 54.9618L78.9526 52.8191Z" fill="#F2DBBA"/>
<path d="M76.3018 52.5238C76.3018 52.5238 77.3417 50.9376 76.6097 50.6124C75.8776 50.2872 75.1973 51.4399 74.9666 52.2575L76.3018 52.5238Z" fill="#EAA544"/>
<path d="M79.5222 49.0452C79.5222 49.0452 79.4491 49.4653 79.3938 49.6883C79.3386 49.9113 79.2218 50.4227 78.6226 50.4128C78.0235 50.4028 77.7461 50.1352 77.5556 50.0096C77.5556 50.0096 76.9732 49.4419 77.1062 49.3077C77.2397 49.173 77.4463 48.7417 78.0276 48.8257C78.6083 48.9097 79.5222 49.0452 79.5222 49.0452Z" fill="#FCD196"/>
<path d="M78.8977 48.2736C78.774 48.2142 78.6514 48.1528 78.5369 48.0926C78.3441 47.9908 78.1058 47.9475 77.8762 47.983C77.4008 48.0558 77.1896 48.3576 77.1896 48.3576L76.9594 48.478C76.7292 48.5983 76.7344 49.0582 76.9214 49.3241C77.2713 49.8208 77.5792 50.0304 77.5792 50.0304C77.604 50.0338 77.6069 50.0196 77.5965 49.9944C77.5861 49.8866 77.6281 49.8186 77.6281 49.8186C77.2097 49.6762 77.2385 49.3622 77.4261 49.3367C77.6143 49.3107 77.7076 49.5896 77.7076 49.5896L77.753 49.5017C77.8486 49.2652 77.7386 48.9768 77.7386 48.9768C77.7386 48.9768 77.7484 48.9824 77.7663 48.9915C77.7668 48.9928 77.7674 48.9937 77.768 48.995C77.768 48.995 77.8929 49.1522 78.1415 49.1812C78.1415 49.1812 78.1087 49.1513 78.0673 49.1111C78.2549 49.1678 78.5093 49.2158 78.797 49.1912C78.797 49.1912 78.6094 49.1513 78.4742 49.0898C78.6606 49.1037 78.8759 49.1098 79.1124 49.0994C79.9233 49.0634 80.1201 48.6754 80.1201 48.6754C79.7075 48.5914 79.3599 48.4957 78.8977 48.2736Z" fill="#523C1E"/>
<path d="M81.8451 54.8145C81.8451 54.8145 81.2806 54.8279 81.2339 54.8219C81.1873 54.8158 81.0314 54.7218 80.9209 54.6777C80.8098 54.6335 80.8017 54.7184 80.9082 54.7859C80.9704 54.8258 81.1672 54.9336 81.1994 54.9522C81.2311 54.9704 81.7744 54.976 81.8336 54.9799C81.8918 54.9834 81.9436 54.8123 81.8451 54.8145Z" fill="#FCD196"/>
<path d="M81.8399 55.0566C81.8399 55.0566 81.3363 55.1042 81.2442 55.1007C81.1522 55.0973 81.0152 54.9487 80.9697 54.8812C80.9242 54.8136 81.0238 54.7876 81.098 54.8379C81.1809 54.8942 81.2799 54.9669 81.2799 54.9669L81.7783 54.8946C81.7783 54.895 82.0402 55.0345 81.8399 55.0566Z" fill="#FCD196"/>
<path d="M81.8824 55.1748C81.8824 55.1748 81.3984 55.2445 81.3092 55.2432C81.22 55.2419 81.083 55.0912 81.0364 55.0276C80.9898 54.9635 81.0761 54.9427 81.1429 54.9951C81.2298 55.0635 81.3115 55.1098 81.3317 55.1107C81.3518 55.1116 81.8163 55.0206 81.8163 55.0206C81.8163 55.0206 82.0747 55.1479 81.8824 55.1748Z" fill="#FCD196"/>
<path d="M82.0161 55.1752C82.0161 55.1752 81.6202 55.3311 81.5431 55.3476C81.4654 55.364 81.2962 55.2605 81.2346 55.2146C81.173 55.1687 81.2403 55.1332 81.3163 55.1657C81.4147 55.2077 81.5005 55.2315 81.5183 55.2285C81.5362 55.2255 81.9074 55.0553 81.9074 55.0553C81.9074 55.0553 82.1738 55.1142 82.0161 55.1752ZM81.8228 54.776C81.8228 54.776 81.6541 54.7097 81.5546 54.6972C81.455 54.6846 81.2864 54.6764 81.2185 54.6417C81.1506 54.6067 81.1673 54.7231 81.2495 54.7716C81.3318 54.8201 81.5108 54.9163 81.5108 54.9163C81.5108 54.9163 81.9632 54.8435 81.8228 54.776Z" fill="#FCD196"/>
<path d="M81.7881 55.2428C81.7881 55.2428 82.0793 55.1822 82.1685 55.1042C82.2307 55.0497 82.218 54.8479 82.0673 54.7946C81.9165 54.7418 81.6402 54.7652 81.4722 54.8249C81.3421 54.8708 81.6586 55.2372 81.7881 55.2428Z" fill="#FCD196"/>
</g>
<defs>
<filter id="filter0_d_117_483" x="-3.55957" y="0" width="125.062" height="75" filterUnits="userSpaceOnUse" color-interpolation-filters="sRGB">
<feFlood flood-opacity="0" result="BackgroundImageFix"/>
<feColorMatrix in="SourceAlpha" type="matrix" values="0 0 0 0 0 0 0 0 0 0 0 0 0 0 0 0 0 0 127 0" result="hardAlpha"/>
<feOffset dy="4"/>
<feGaussianBlur stdDeviation="2"/>
<feComposite in2="hardAlpha" operator="out"/>
<feColorMatrix type="matrix" values="0 0 0 0 0 0 0 0 0 0 0 0 0 0 0 0 0 0 0.25 0"/>
<feBlend mode="normal" in2="BackgroundImageFix" result="effect1_dropShadow_117_483"/>
<feBlend mode="normal" in="SourceGraphic" in2="effect1_dropShadow_117_483" result="shape"/>
</filter>
<radialGradient id="paint0_radial_117_483" cx="0" cy="0" r="1" gradientUnits="userSpaceOnUse" gradientTransform="translate(78.8578 17.2711) rotate(5.86415) scale(1.06409 0.807051)">
<stop stop-color="#C2B7A8"/>
<stop offset="0.983" stop-color="#B19774"/>
</radialGradient>
<radialGradient id="paint1_radial_117_483" cx="0" cy="0" r="1" gradientUnits="userSpaceOnUse" gradientTransform="translate(79.0515 12.8969) rotate(5.86416) scale(5.00985 3.79968)">
<stop stop-color="#EBE3D7"/>
<stop offset="0.983" stop-color="#D2C3AF"/>
</radialGradient>
<radialGradient id="paint2_radial_117_483" cx="0" cy="0" r="1" gradientUnits="userSpaceOnUse" gradientTransform="translate(80.9911 8.63756) rotate(5.86382) scale(1.95488 1.96746)">
<stop stop-color="#C2B7A8"/>
<stop offset="0.983" stop-color="#B19774"/>
</radialGradient>
<radialGradient id="paint3_radial_117_483" cx="0" cy="0" r="1" gradientUnits="userSpaceOnUse" gradientTransform="translate(81.0278 10.2414) rotate(5.86381) scale(1.8519 1.86382)">
<stop stop-color="#DDCFBC"/>
<stop offset="0.983" stop-color="#C3AF94"/>
</radialGradient>
<radialGradient id="paint4_radial_117_483" cx="0" cy="0" r="1" gradientUnits="userSpaceOnUse" gradientTransform="translate(79.4664 12.1512) rotate(5.86382) scale(1.37302 1.38186)">
<stop stop-color="#C2B7A8"/>
<stop offset="0.983" stop-color="#B19774"/>
</radialGradient>
<radialGradient id="paint5_radial_117_483" cx="0" cy="0" r="1" gradientUnits="userSpaceOnUse" gradientTransform="translate(79.3248 11.8139) rotate(5.86381) scale(1.24242 1.25041)">
<stop stop-color="#FEB651"/>
<stop offset="0.994" stop-color="#926B35"/>
</radialGradient>
<radialGradient id="paint6_radial_117_483" cx="0" cy="0" r="1" gradientUnits="userSpaceOnUse" gradientTransform="translate(75.3599 9.55425) rotate(5.86379) scale(0.451256 0.454159)">
<stop stop-color="#FEB651"/>
<stop offset="0.994" stop-color="#926B35"/>
</radialGradient>
<radialGradient id="paint7_radial_117_483" cx="0" cy="0" r="1" gradientUnits="userSpaceOnUse" gradientTransform="translate(84.2719 10.3526) rotate(5.86383) scale(0.429486 0.432252)">
<stop stop-color="#FEB651"/>
<stop offset="0.994" stop-color="#926B35"/>
</radialGradient>
<linearGradient id="paint8_linear_117_483" x1="76.1663" y1="16.8502" x2="76.645" y2="12.193" gradientUnits="userSpaceOnUse">
<stop offset="0.017" stop-color="#DCA559"/>
<stop offset="0.111" stop-color="#D29E55"/>
<stop offset="0.274" stop-color="#B58849"/>
<stop offset="0.486" stop-color="#886637"/>
<stop offset="0.74" stop-color="#48361D"/>
<stop offset="1"/>
</linearGradient>
<radialGradient id="paint9_radial_117_483" cx="0" cy="0" r="1" gradientUnits="userSpaceOnUse" gradientTransform="translate(80.2676 5.70286) rotate(5.86416) scale(3.98344 3.0212)">
<stop stop-color="#DDCFBC"/>
<stop offset="0.983" stop-color="#C3AF94"/>
</radialGradient>
<radialGradient id="paint10_radial_117_483" cx="0" cy="0" r="1" gradientUnits="userSpaceOnUse" gradientTransform="translate(80.1458 6.61656) rotate(5.86416) scale(2.97711 2.25797)">
<stop stop-color="#DAA863"/>
<stop offset="0.994" stop-color="#AA8C62"/>
</radialGradient>
<linearGradient id="paint11_linear_117_483" x1="58.3342" y1="25.3189" x2="58.3342" y2="61.1232" gradientUnits="userSpaceOnUse">
<stop stop-color="#FDFDFD"/>
<stop offset="0.479" stop-color="#FDFCFB"/>
<stop offset="0.652" stop-color="#FDF9F4"/>
<stop offset="0.775" stop-color="#FEF5E9"/>
<stop offset="0.874" stop-color="#FEEED8"/>
<stop offset="0.958" stop-color="#FFE5C2"/>
<stop offset="1" stop-color="#FFE0B4"/>
</linearGradient>
</defs>
</svg>
