<svg xmlns="http://www.w3.org/2000/svg" enable-background="new 0 0 3000 2500" viewBox="0 0 3000 2500"><rect width="2918.6" height="2432.2" x="40.7" y="33.9" fill="none"/><g opacity=".2" fill="#000000" class="color000 svgShape"><ellipse cx="1361.3" cy="2119.5" fill="#4c2a00" opacity="0" rx="353.9" ry="186.8" transform="translate(-3.084 1.984)" class="color4c0000 svgShape"/><ellipse cx="1361.3" cy="2119.5" fill="#4a2a01" opacity=".038" rx="344.7" ry="182" transform="translate(-3.085 1.984)" class="color4a0101 svgShape"/><ellipse cx="1361.3" cy="2119.5" fill="#482902" opacity=".077" rx="335.6" ry="177.2" transform="translate(-3.085 1.985)" class="color480202 svgShape"/><ellipse cx="1361.3" cy="2119.5" fill="#462803" opacity=".115" rx="326.5" ry="172.4" transform="translate(-3.085 1.985)" class="color460303 svgShape"/><ellipse cx="1361.3" cy="2119.5" fill="#442804" opacity=".154" rx="317.4" ry="167.5" transform="translate(-3.086 1.985)" class="color440404 svgShape"/><ellipse cx="1361.3" cy="2119.5" fill="#422705" opacity=".192" rx="308.3" ry="162.7" transform="translate(-3.086 1.985)" class="color420505 svgShape"/><ellipse cx="1361.3" cy="2119.5" fill="#402606" opacity=".231" rx="299.2" ry="157.9" transform="translate(-3.086 1.986)" class="color400606 svgShape"/><ellipse cx="1361.3" cy="2119.5" fill="#3e2506" opacity=".269" rx="290.1" ry="153.1" transform="translate(-3.087 1.986)" class="color3e0606 svgShape"/><ellipse cx="1361.3" cy="2119.5" fill="#3c2507" opacity=".308" rx="280.9" ry="148.3" transform="translate(-3.087 1.986)" class="color3c0707 svgShape"/><ellipse cx="1361.3" cy="2119.5" fill="#3a2408" opacity=".346" rx="271.8" ry="143.5" transform="translate(-3.087 1.986)" class="color3a0808 svgShape"/><ellipse cx="1361.3" cy="2119.5" fill="#382309" opacity=".385" rx="262.7" ry="138.7" transform="translate(-3.088 1.986)" class="color380909 svgShape"/><ellipse cx="1361.3" cy="2119.5" fill="#36230a" opacity=".423" rx="253.6" ry="133.9" transform="translate(-3.088 1.987)" class="color360a0a svgShape"/><ellipse cx="1361.3" cy="2119.5" fill="#34220b" opacity=".462" rx="244.5" ry="129.1" transform="translate(-3.089 1.987)" class="color340b0b svgShape"/><ellipse cx="1361.3" cy="2119.5" fill="#33220c" opacity=".5" rx="235.4" ry="124.2" transform="translate(-3.09 1.988)" class="color330c0c svgShape"/><ellipse cx="1361.3" cy="2119.5" fill="#31210d" opacity=".538" rx="226.2" ry="119.4" transform="translate(-3.09 1.988)" class="color310d0d svgShape"/><ellipse cx="1361.3" cy="2119.5" fill="#2f200e" opacity=".577" rx="217.1" ry="114.6" transform="translate(-3.09 1.988)" class="color2f0e0e svgShape"/><ellipse cx="1361.3" cy="2119.5" fill="#2d200f" opacity=".615" rx="208" ry="109.8" transform="translate(-3.091 1.989)" class="color2d0f0f svgShape"/><ellipse cx="1361.3" cy="2119.5" fill="#2b1f10" opacity=".654" rx="198.9" ry="105" transform="translate(-3.092 1.99)" class="color2b1010 svgShape"/><ellipse cx="1361.3" cy="2119.5" fill="#291e11" opacity=".692" rx="189.8" ry="100.2" transform="translate(-3.093 1.99)" class="color291111 svgShape"/><ellipse cx="1361.3" cy="2119.5" fill="#271e12" opacity=".731" rx="180.7" ry="95.4" transform="translate(-3.093 1.99)" class="color271212 svgShape"/><ellipse cx="1361.3" cy="2119.5" fill="#251d12" opacity=".769" rx="171.6" ry="90.6" transform="translate(-3.095 1.99)" class="color251212 svgShape"/><ellipse cx="1361.3" cy="2119.5" fill="#231c13" opacity=".808" rx="162.4" ry="85.7" transform="translate(-3.095 1.991)" class="color231313 svgShape"/><ellipse cx="1361.3" cy="2119.5" fill="#211b14" opacity=".846" rx="153.3" ry="80.9" transform="translate(-3.096 1.992)" class="color211414 svgShape"/><ellipse cx="1361.3" cy="2119.5" fill="#1f1b15" opacity=".885" rx="144.2" ry="76.1" transform="translate(-3.098 1.993)" class="color1f1515 svgShape"/><ellipse cx="1361.3" cy="2119.5" fill="#1d1a16" opacity=".923" rx="135.1" ry="71.3" transform="translate(-3.1 1.994)" class="color1d1616 svgShape"/><ellipse cx="1361.3" cy="2119.5" fill="#1b1917" opacity=".962" rx="126" ry="66.5" transform="translate(-3.102 1.995)" class="color1b1717 svgShape"/><ellipse cx="1361.3" cy="2119.5" fill="#191918" rx="116.9" ry="61.7" transform="translate(-3.103 1.996)" class="color191818 svgShape"/></g><linearGradient id="a" x1="299.423" x2="980.747" y1="1379.999" y2="1379.999" gradientUnits="userSpaceOnUse"><stop offset="0" stop-color="#ffffff" class="stopColorfff svgShape"/><stop offset="1" stop-color="#eeeeee" class="stopColoreee svgShape"/></linearGradient><polygon fill="url(#a)" points="686 1163.5 980.7 1361.1 581.4 1596.5 299.4 1380"/><path fill="#d8d8d8" d="M699.7 1461.1l-189-127.8c-3.8-2.6-3.8-6.3 0-8.3l0 0c3.8-2 10-1.5 13.8 1l189 127.8c3.8 2.6 3.8 6.3 0 8.3l0 0C709.6 1464.2 703.4 1463.7 699.7 1461.1zM667.5 1478l-189-127.8c-3.8-2.6-3.8-6.3 0-8.3h0c3.8-2 10-1.5 13.8 1l189 127.8c3.8 2.6 3.8 6.3 0 8.3l0 0C677.5 1481 671.3 1480.6 667.5 1478zM635.3 1494.9l-189-127.8c-3.8-2.6-3.8-6.3 0-8.3l0 0c3.8-2 10-1.5 13.8 1l189 127.8c3.8 2.6 3.8 6.3 0 8.3l0 0C645.3 1497.9 639.1 1497.5 635.3 1494.9zM603.1 1511.8l-189-127.8c-3.8-2.6-3.8-6.3 0-8.3l0 0c3.8-2 10-1.5 13.8 1l189 127.8c3.8 2.6 3.8 6.3 0 8.3h0C613.1 1514.8 606.9 1514.3 603.1 1511.8zM852.1 1371.2l-189-127.8c-3.8-2.6-3.8-6.3 0-8.3h0c3.8-2 10-1.5 13.8 1L866 1364c3.8 2.6 3.8 6.3 0 8.3l0 0C862.1 1374.3 855.9 1373.8 852.1 1371.2zM820 1388.1l-189-127.8c-3.8-2.6-3.8-6.3 0-8.3l0 0c3.8-2 10-1.5 13.8 1l189 127.8c3.8 2.6 3.8 6.3 0 8.3l0 0C829.9 1391.1 823.7 1390.7 820 1388.1zM787.8 1405l-189-127.8c-3.8-2.6-3.8-6.3 0-8.3l0 0c3.8-2 10-1.5 13.8 1l189 127.8c3.8 2.6 3.8 6.3 0 8.3h0C797.8 1408 791.6 1407.6 787.8 1405zM755.6 1421.9l-189-127.8c-3.8-2.6-3.8-6.3 0-8.3l0 0c3.8-2 10-1.5 13.8 1l189 127.8c3.8 2.6 3.8 6.3 0 8.3l0 0C765.6 1424.9 759.4 1424.4 755.6 1421.9z" class="colord8d8d8 svgShape"/><linearGradient id="b" x1="1329.483" x2="1536.595" y1="1481.765" y2="1948.54" gradientUnits="userSpaceOnUse"><stop offset="0" stop-color="#ffffff" class="stopColorfff svgShape"/><stop offset="1" stop-color="#f2f2f2" class="stopColorf2f2f2 svgShape"/></linearGradient><polygon fill="url(#b)" points="817.1 1804.3 1558.3 1343.9 2090.3 1719.3 1331.5 2261.2"/><linearGradient id="c" x1="2379.38" x2="2343.637" y1="149.701" y2="221.478" gradientTransform="matrix(.8658 .6293 -.8269 .5623 -407.9 8.04)" gradientUnits="userSpaceOnUse"><stop offset="0" stop-color="#ffa30f" class="stopColorffac06 svgShape"/><stop offset="1" stop-color="#fb600a" class="stopColorff7c0a svgShape"/></linearGradient><polygon fill="url(#c)" points="1455.9 1649.7 1399.3 1608.5 1480.6 1553.2 1537.2 1594.4"/><linearGradient id="d" x1="2486.81" x2="2439.348" y1="112.563" y2="207.876" gradientTransform="matrix(.8658 .6293 -.8269 .5623 -407.9 8.04)" gradientUnits="userSpaceOnUse"><stop offset="0" stop-color="#ffa30f" class="stopColorffac06 svgShape"/><stop offset="1" stop-color="#fb600a" class="stopColorff7c0a svgShape"/></linearGradient><polygon fill="url(#d)" points="1542.2 1712.4 1485.5 1671.2 1602.3 1591.8 1659 1633"/><linearGradient id="e" x1="2598.772" x2="2532.785" y1="53.861" y2="186.375" gradientTransform="matrix(.8658 .6293 -.8269 .5623 -407.9 8.04)" gradientUnits="userSpaceOnUse"><stop offset="0" stop-color="#ffa30f" class="stopColorffac06 svgShape"/><stop offset="1" stop-color="#fb600a" class="stopColorff7c0a svgShape"/></linearGradient><polygon fill="url(#e)" points="1628.5 1775.1 1571.8 1733.9 1744.7 1616.3 1801.4 1657.5"/><linearGradient id="f" x1="2686.064" x2="2638.602" y1="112.564" y2="207.876" gradientTransform="matrix(.8658 .6293 -.8269 .5623 -407.9 8.04)" gradientUnits="userSpaceOnUse"><stop offset="0" stop-color="#ffa30f" class="stopColorffac06 svgShape"/><stop offset="1" stop-color="#fb600a" class="stopColorff7c0a svgShape"/></linearGradient><polygon fill="url(#f)" points="1714.7 1837.8 1658 1796.6 1774.8 1717.2 1831.5 1758.4"/><path fill="#d8d8d8" d="M1583.5 1959.1l-358.3-282.5c-7.2-5.6-7-14.3.3-19.1l0 0c7.3-4.9 19.2-4.2 26.3 1.4l358.3 282.5c7.2 5.6 7 14.3-.3 19.1h0C1602.5 1965.4 1590.6 1964.8 1583.5 1959.1zM1521.6 2000.4l-358.3-282.5c-7.2-5.6-7-14.3.3-19.1h0c7.3-4.9 19.2-4.2 26.3 1.4l358.3 282.5c7.2 5.6 7 14.3-.3 19.1v0C1540.6 2006.7 1528.8 2006 1521.6 2000.4zM1459.7 2041.6l-358.3-282.5c-7.2-5.6-7-14.3.3-19.1h0c7.3-4.9 19.2-4.2 26.3 1.4l358.3 282.5c7.2 5.6 7 14.3-.3 19.1l0 0C1478.8 2047.9 1466.9 2047.2 1459.7 2041.6zM1397.9 2082.8l-358.3-282.5c-7.2-5.6-7-14.3.3-19.1l0 0c7.3-4.9 19.2-4.2 26.3 1.4l358.3 282.5c7.2 5.6 7 14.3-.3 19.1l0 0C1416.9 2089.1 1405 2088.5 1397.9 2082.8z" class="colord8d8d8 svgShape"/><g opacity=".35" fill="#000000" class="color000 svgShape"><ellipse cx="1216.1" cy="1717.2" fill="#4c2a00" opacity="0" rx="353.9" ry="186.8" transform="translate(-2.499 1.772)" class="color4c0000 svgShape"/><ellipse cx="1216.1" cy="1717.2" fill="#4a2a01" opacity=".038" rx="344.7" ry="182" transform="translate(-2.499 1.772)" class="color4a0101 svgShape"/><ellipse cx="1216.1" cy="1717.2" fill="#482902" opacity=".077" rx="335.6" ry="177.2" transform="translate(-2.499 1.772)" class="color480202 svgShape"/><ellipse cx="1216.1" cy="1717.2" fill="#462803" opacity=".115" rx="326.5" ry="172.4" transform="translate(-2.5 1.773)" class="color460303 svgShape"/><ellipse cx="1216.1" cy="1717.2" fill="#442804" opacity=".154" rx="317.4" ry="167.5" transform="translate(-2.5 1.773)" class="color440404 svgShape"/><ellipse cx="1216.1" cy="1717.2" fill="#422705" opacity=".192" rx="308.3" ry="162.7" transform="translate(-2.5 1.773)" class="color420505 svgShape"/><ellipse cx="1216.1" cy="1717.2" fill="#402606" opacity=".231" rx="299.2" ry="157.9" transform="translate(-2.5 1.773)" class="color400606 svgShape"/><ellipse cx="1216.1" cy="1717.2" fill="#3e2506" opacity=".269" rx="290.1" ry="153.1" transform="translate(-2.5 1.774)" class="color3e0606 svgShape"/><ellipse cx="1216.1" cy="1717.2" fill="#3c2507" opacity=".308" rx="280.9" ry="148.3" transform="translate(-2.5 1.774)" class="color3c0707 svgShape"/><ellipse cx="1216.1" cy="1717.2" fill="#3a2408" opacity=".346" rx="271.8" ry="143.5" transform="translate(-2.5 1.774)" class="color3a0808 svgShape"/><ellipse cx="1216.1" cy="1717.2" fill="#382309" opacity=".385" rx="262.7" ry="138.7" transform="translate(-2.502 1.774)" class="color380909 svgShape"/><ellipse cx="1216.1" cy="1717.2" fill="#36230a" opacity=".423" rx="253.6" ry="133.9" transform="translate(-2.502 1.774)" class="color360a0a svgShape"/><ellipse cx="1216.1" cy="1717.2" fill="#34220b" opacity=".462" rx="244.5" ry="129.1" transform="translate(-2.502 1.775)" class="color340b0b svgShape"/><ellipse cx="1216.1" cy="1717.2" fill="#33220c" opacity=".5" rx="235.4" ry="124.2" transform="translate(-2.503 1.775)" class="color330c0c svgShape"/><ellipse cx="1216.1" cy="1717.2" fill="#31210d" opacity=".538" rx="226.2" ry="119.4" transform="translate(-2.503 1.776)" class="color310d0d svgShape"/><ellipse cx="1216.1" cy="1717.2" fill="#2f200e" opacity=".577" rx="217.1" ry="114.6" transform="translate(-2.504 1.776)" class="color2f0e0e svgShape"/><ellipse cx="1216.1" cy="1717.2" fill="#2d200f" opacity=".615" rx="208" ry="109.8" transform="translate(-2.504 1.776)" class="color2d0f0f svgShape"/><ellipse cx="1216.1" cy="1717.2" fill="#2b1f10" opacity=".654" rx="198.9" ry="105" transform="translate(-2.505 1.777)" class="color2b1010 svgShape"/><ellipse cx="1216.1" cy="1717.2" fill="#291e11" opacity=".692" rx="189.8" ry="100.2" transform="translate(-2.505 1.777)" class="color291111 svgShape"/><ellipse cx="1216.1" cy="1717.2" fill="#271e12" opacity=".731" rx="180.7" ry="95.4" transform="translate(-2.506 1.778)" class="color271212 svgShape"/><ellipse cx="1216.1" cy="1717.2" fill="#251d12" opacity=".769" rx="171.6" ry="90.6" transform="translate(-2.507 1.778)" class="color251212 svgShape"/><ellipse cx="1216.1" cy="1717.2" fill="#231c13" opacity=".808" rx="162.4" ry="85.7" transform="translate(-2.508 1.779)" class="color231313 svgShape"/><ellipse cx="1216.1" cy="1717.2" fill="#211b14" opacity=".846" rx="153.3" ry="80.9" transform="translate(-2.509 1.78)" class="color211414 svgShape"/><ellipse cx="1216.1" cy="1717.2" fill="#1f1b15" opacity=".885" rx="144.2" ry="76.1" transform="translate(-2.51 1.78)" class="color1f1515 svgShape"/><ellipse cx="1216.1" cy="1717.2" fill="#1d1a16" opacity=".923" rx="135.1" ry="71.3" transform="translate(-2.511 1.781)" class="color1d1616 svgShape"/><ellipse cx="1216.1" cy="1717.2" fill="#1b1917" opacity=".962" rx="126" ry="66.5" transform="translate(-2.513 1.782)" class="color1b1717 svgShape"/><ellipse cx="1216.1" cy="1717.2" fill="#191918" rx="116.9" ry="61.7" transform="translate(-2.515 1.784)" class="color191818 svgShape"/></g><g opacity=".2" fill="#000000" class="color000 svgShape"><ellipse cx="2060.3" cy="1380" fill="#4c2a00" opacity="0" rx="251.9" ry="133" transform="translate(-2.006 3)" class="color4c0000 svgShape"/><ellipse cx="2060.3" cy="1380" fill="#4a2a01" opacity=".038" rx="245.4" ry="129.5" transform="translate(-2.006 3)" class="color4a0101 svgShape"/><ellipse cx="2060.3" cy="1380" fill="#482902" opacity=".077" rx="238.9" ry="126.1" transform="translate(-2.006 3)" class="color480202 svgShape"/><ellipse cx="2060.3" cy="1380" fill="#462803" opacity=".115" rx="232.4" ry="122.7" transform="translate(-2.006 3)" class="color460303 svgShape"/><ellipse cx="2060.3" cy="1380" fill="#442804" opacity=".154" rx="225.9" ry="119.3" transform="translate(-2.006 3)" class="color440404 svgShape"/><ellipse cx="2060.3" cy="1380" fill="#422705" opacity=".192" rx="219.4" ry="115.8" transform="translate(-2.007 3)" class="color420505 svgShape"/><ellipse cx="2060.3" cy="1380" fill="#402606" opacity=".231" rx="213" ry="112.4" transform="translate(-2.007 3)" class="color400606 svgShape"/><ellipse cx="2060.3" cy="1380" fill="#3e2506" opacity=".269" rx="206.5" ry="109" transform="translate(-2.007 3.001)" class="color3e0606 svgShape"/><ellipse cx="2060.3" cy="1380" fill="#3c2507" opacity=".308" rx="200" ry="105.6" transform="translate(-2.007 3.002)" class="color3c0707 svgShape"/><ellipse cx="2060.3" cy="1380" fill="#3a2408" opacity=".346" rx="193.5" ry="102.1" transform="translate(-2.008 3.002)" class="color3a0808 svgShape"/><ellipse cx="2060.3" cy="1380" fill="#382309" opacity=".385" rx="187" ry="98.7" transform="translate(-2.008 3.002)" class="color380909 svgShape"/><ellipse cx="2060.3" cy="1380" fill="#36230a" opacity=".423" rx="180.5" ry="95.3" transform="translate(-2.008 3.003)" class="color360a0a svgShape"/><ellipse cx="2060.3" cy="1380" fill="#34220b" opacity=".462" rx="174" ry="91.9" transform="translate(-2.009 3.004)" class="color340b0b svgShape"/><ellipse cx="2060.3" cy="1380" fill="#33220c" opacity=".5" rx="167.5" ry="88.4" transform="translate(-2.009 3.004)" class="color330c0c svgShape"/><ellipse cx="2060.3" cy="1380" fill="#31210d" opacity=".538" rx="161.1" ry="85" transform="translate(-2.01 3.005)" class="color310d0d svgShape"/><ellipse cx="2060.3" cy="1380" fill="#2f200e" opacity=".577" rx="154.6" ry="81.6" transform="translate(-2.01 3.005)" class="color2f0e0e svgShape"/><ellipse cx="2060.3" cy="1380" fill="#2d200f" opacity=".615" rx="148.1" ry="78.2" transform="translate(-2.01 3.006)" class="color2d0f0f svgShape"/><ellipse cx="2060.3" cy="1380" fill="#2b1f10" opacity=".654" rx="141.6" ry="74.7" transform="translate(-2.01 3.006)" class="color2b1010 svgShape"/><ellipse cx="2060.3" cy="1380" fill="#291e11" opacity=".692" rx="135.1" ry="71.3" transform="translate(-2.011 3.007)" class="color291111 svgShape"/><ellipse cx="2060.3" cy="1380" fill="#271e12" opacity=".731" rx="128.6" ry="67.9" transform="translate(-2.011 3.008)" class="color271212 svgShape"/><ellipse cx="2060.3" cy="1380" fill="#251d12" opacity=".769" rx="122.1" ry="64.5" transform="translate(-2.012 3.009)" class="color251212 svgShape"/><ellipse cx="2060.3" cy="1380" fill="#231c13" opacity=".808" rx="115.6" ry="61" transform="translate(-2.013 3.01)" class="color231313 svgShape"/><ellipse cx="2060.3" cy="1380" fill="#211b14" opacity=".846" rx="109.1" ry="57.6" transform="translate(-2.014 3.011)" class="color211414 svgShape"/><ellipse cx="2060.3" cy="1380" fill="#1f1b15" opacity=".885" rx="102.7" ry="54.2" transform="translate(-2.015 3.013)" class="color1f1515 svgShape"/><ellipse cx="2060.3" cy="1380" fill="#1d1a16" opacity=".923" rx="96.2" ry="50.8" transform="translate(-2.016 3.015)" class="color1d1616 svgShape"/><ellipse cx="2060.3" cy="1380" fill="#1b1917" opacity=".962" rx="89.7" ry="47.3" transform="translate(-2.018 3.017)" class="color1b1717 svgShape"/><ellipse cx="2060.3" cy="1380" fill="#191918" rx="83.2" ry="43.9" transform="translate(-2.018 3.018)" class="color191818 svgShape"/></g><g opacity=".2" fill="#000000" class="color000 svgShape"><ellipse cx="1004" cy="1183.4" fill="#4c2a00" opacity="0" rx="251.9" ry="133" transform="translate(-1.72 1.462)" class="color4c0000 svgShape"/><ellipse cx="1004" cy="1183.4" fill="#4a2a01" opacity=".038" rx="245.4" ry="129.5" transform="translate(-1.721 1.462)" class="color4a0101 svgShape"/><ellipse cx="1004" cy="1183.4" fill="#482902" opacity=".077" rx="238.9" ry="126.1" transform="translate(-1.721 1.462)" class="color480202 svgShape"/><ellipse cx="1004" cy="1183.4" fill="#462803" opacity=".115" rx="232.4" ry="122.7" transform="translate(-1.722 1.463)" class="color460303 svgShape"/><ellipse cx="1004" cy="1183.4" fill="#442804" opacity=".154" rx="225.9" ry="119.3" transform="translate(-1.721 1.463)" class="color440404 svgShape"/><ellipse cx="1004" cy="1183.4" fill="#422705" opacity=".192" rx="219.4" ry="115.8" transform="translate(-1.722 1.463)" class="color420505 svgShape"/><ellipse cx="1004" cy="1183.4" fill="#402606" opacity=".231" rx="213" ry="112.4" transform="translate(-1.722 1.463)" class="color400606 svgShape"/><ellipse cx="1004" cy="1183.4" fill="#3e2506" opacity=".269" rx="206.5" ry="109" transform="translate(-1.722 1.463)" class="color3e0606 svgShape"/><ellipse cx="1004" cy="1183.4" fill="#3c2507" opacity=".308" rx="200" ry="105.6" transform="translate(-1.722 1.463)" class="color3c0707 svgShape"/><ellipse cx="1004" cy="1183.4" fill="#3a2408" opacity=".346" rx="193.5" ry="102.1" transform="translate(-1.722 1.464)" class="color3a0808 svgShape"/><ellipse cx="1004" cy="1183.4" fill="#382309" opacity=".385" rx="187" ry="98.7" transform="translate(-1.722 1.464)" class="color380909 svgShape"/><ellipse cx="1004" cy="1183.4" fill="#36230a" opacity=".423" rx="180.5" ry="95.3" transform="translate(-1.723 1.464)" class="color360a0a svgShape"/><ellipse cx="1004" cy="1183.4" fill="#34220b" opacity=".462" rx="174" ry="91.9" transform="translate(-1.723 1.464)" class="color340b0b svgShape"/><ellipse cx="1004" cy="1183.4" fill="#33220c" opacity=".5" rx="167.5" ry="88.4" transform="translate(-1.724 1.464)" class="color330c0c svgShape"/><ellipse cx="1004" cy="1183.4" fill="#31210d" opacity=".538" rx="161.1" ry="85" transform="translate(-1.724 1.465)" class="color310d0d svgShape"/><ellipse cx="1004" cy="1183.4" fill="#2f200e" opacity=".577" rx="154.6" ry="81.6" transform="translate(-1.724 1.465)" class="color2f0e0e svgShape"/><ellipse cx="1004" cy="1183.4" fill="#2d200f" opacity=".615" rx="148.1" ry="78.2" transform="translate(-1.725 1.466)" class="color2d0f0f svgShape"/><ellipse cx="1004" cy="1183.4" fill="#2b1f10" opacity=".654" rx="141.6" ry="74.7" transform="translate(-1.725 1.466)" class="color2b1010 svgShape"/><ellipse cx="1004" cy="1183.4" fill="#291e11" opacity=".692" rx="135.1" ry="71.3" transform="translate(-1.726 1.466)" class="color291111 svgShape"/><ellipse cx="1004" cy="1183.4" fill="#271e12" opacity=".731" rx="128.6" ry="67.9" transform="translate(-1.726 1.467)" class="color271212 svgShape"/><ellipse cx="1004" cy="1183.4" fill="#251d12" opacity=".769" rx="122.1" ry="64.5" transform="translate(-1.726 1.467)" class="color251212 svgShape"/><ellipse cx="1004" cy="1183.4" fill="#231c13" opacity=".808" rx="115.6" ry="61" transform="translate(-1.727 1.467)" class="color231313 svgShape"/><ellipse cx="1004" cy="1183.4" fill="#211b14" opacity=".846" rx="109.1" ry="57.6" transform="translate(-1.728 1.468)" class="color211414 svgShape"/><ellipse cx="1004" cy="1183.4" fill="#1f1b15" opacity=".885" rx="102.7" ry="54.2" transform="translate(-1.728 1.468)" class="color1f1515 svgShape"/><ellipse cx="1004" cy="1183.4" fill="#1d1a16" opacity=".923" rx="96.2" ry="50.8" transform="translate(-1.73 1.47)" class="color1d1616 svgShape"/><ellipse cx="1004" cy="1183.4" fill="#1b1917" opacity=".962" rx="89.7" ry="47.3" transform="translate(-1.731 1.47)" class="color1b1717 svgShape"/><ellipse cx="1004" cy="1183.4" fill="#191918" rx="83.2" ry="43.9" transform="translate(-1.732 1.471)" class="color191818 svgShape"/></g><g opacity=".2" fill="#000000" class="color000 svgShape"><ellipse cx="1546.1" cy="1373.5" fill="#4c2a00" opacity="0" rx="353.9" ry="186.8" transform="translate(-1.998 2.252)" class="color4c0000 svgShape"/><ellipse cx="1546.1" cy="1373.5" fill="#4a2a01" opacity=".038" rx="344.7" ry="182" transform="translate(-1.998 2.253)" class="color4a0101 svgShape"/><ellipse cx="1546.1" cy="1373.5" fill="#482902" opacity=".077" rx="335.6" ry="177.2" transform="translate(-1.998 2.253)" class="color480202 svgShape"/><ellipse cx="1546.1" cy="1373.5" fill="#462803" opacity=".115" rx="326.5" ry="172.4" transform="translate(-1.999 2.253)" class="color460303 svgShape"/><ellipse cx="1546.1" cy="1373.5" fill="#442804" opacity=".154" rx="317.4" ry="167.5" transform="translate(-1.999 2.253)" class="color440404 svgShape"/><ellipse cx="1546.1" cy="1373.5" fill="#422705" opacity=".192" rx="308.3" ry="162.7" transform="translate(-1.999 2.253)" class="color420505 svgShape"/><ellipse cx="1546.1" cy="1373.5" fill="#402606" opacity=".231" rx="299.2" ry="157.9" transform="translate(-2 2.254)" class="color400606 svgShape"/><ellipse cx="1546.1" cy="1373.5" fill="#3e2506" opacity=".269" rx="290.1" ry="153.1" transform="translate(-2 2.254)" class="color3e0606 svgShape"/><ellipse cx="1546.1" cy="1373.5" fill="#3c2507" opacity=".308" rx="280.9" ry="148.3" transform="translate(-2 2.254)" class="color3c0707 svgShape"/><ellipse cx="1546.1" cy="1373.5" fill="#3a2408" opacity=".346" rx="271.8" ry="143.5" transform="translate(-2 2.254)" class="color3a0808 svgShape"/><ellipse cx="1546.1" cy="1373.5" fill="#382309" opacity=".385" rx="262.7" ry="138.7" transform="translate(-2 2.255)" class="color380909 svgShape"/><ellipse cx="1546.1" cy="1373.5" fill="#36230a" opacity=".423" rx="253.6" ry="133.9" transform="translate(-2 2.255)" class="color360a0a svgShape"/><ellipse cx="1546.1" cy="1373.5" fill="#34220b" opacity=".462" rx="244.5" ry="129.1" transform="translate(-2 2.255)" class="color340b0b svgShape"/><ellipse cx="1546.1" cy="1373.5" fill="#33220c" opacity=".5" rx="235.4" ry="124.2" transform="translate(-2.001 2.256)" class="color330c0c svgShape"/><ellipse cx="1546.1" cy="1373.5" fill="#31210d" opacity=".538" rx="226.2" ry="119.4" transform="translate(-2.001 2.256)" class="color310d0d svgShape"/><ellipse cx="1546.1" cy="1373.5" fill="#2f200e" opacity=".577" rx="217.1" ry="114.6" transform="translate(-2.002 2.257)" class="color2f0e0e svgShape"/><ellipse cx="1546.1" cy="1373.5" fill="#2d200f" opacity=".615" rx="208" ry="109.8" transform="translate(-2.002 2.257)" class="color2d0f0f svgShape"/><ellipse cx="1546.1" cy="1373.5" fill="#2b1f10" opacity=".654" rx="198.9" ry="105" transform="translate(-2.003 2.258)" class="color2b1010 svgShape"/><ellipse cx="1546.1" cy="1373.5" fill="#291e11" opacity=".692" rx="189.8" ry="100.2" transform="translate(-2.003 2.258)" class="color291111 svgShape"/><ellipse cx="1546.1" cy="1373.5" fill="#271e12" opacity=".731" rx="180.7" ry="95.4" transform="translate(-2.004 2.259)" class="color271212 svgShape"/><ellipse cx="1546.1" cy="1373.5" fill="#251d12" opacity=".769" rx="171.6" ry="90.6" transform="translate(-2.005 2.26)" class="color251212 svgShape"/><ellipse cx="1546.1" cy="1373.5" fill="#231c13" opacity=".808" rx="162.4" ry="85.7" transform="translate(-2.005 2.26)" class="color231313 svgShape"/><ellipse cx="1546.1" cy="1373.5" fill="#211b14" opacity=".846" rx="153.3" ry="80.9" transform="translate(-2.006 2.262)" class="color211414 svgShape"/><ellipse cx="1546.1" cy="1373.5" fill="#1f1b15" opacity=".885" rx="144.2" ry="76.1" transform="translate(-2.007 2.263)" class="color1f1515 svgShape"/><ellipse cx="1546.1" cy="1373.5" fill="#1d1a16" opacity=".923" rx="135.1" ry="71.3" transform="translate(-2.008 2.264)" class="color1d1616 svgShape"/><ellipse cx="1546.1" cy="1373.5" fill="#1b1917" opacity=".962" rx="126" ry="66.5" transform="translate(-2.01 2.265)" class="color1b1717 svgShape"/><ellipse cx="1546.1" cy="1373.5" fill="#191918" rx="116.9" ry="61.7" transform="translate(-2.01 2.266)" class="color191818 svgShape"/></g><g opacity=".35" fill="#000000" class="color000 svgShape"><ellipse cx="919.1" cy="1407.3" fill="#4c2a00" opacity="0" rx="353.9" ry="186.8" transform="translate(-2.048 1.34)" class="color4c0000 svgShape"/><ellipse cx="919.1" cy="1407.3" fill="#4a2a01" opacity=".038" rx="344.7" ry="182" transform="translate(-2.048 1.34)" class="color4a0101 svgShape"/><ellipse cx="919.1" cy="1407.3" fill="#482902" opacity=".077" rx="335.6" ry="177.2" transform="translate(-2.048 1.34)" class="color480202 svgShape"/><ellipse cx="919.1" cy="1407.3" fill="#462803" opacity=".115" rx="326.5" ry="172.4" transform="translate(-2.048 1.34)" class="color460303 svgShape"/><ellipse cx="919.1" cy="1407.3" fill="#442804" opacity=".154" rx="317.4" ry="167.5" transform="translate(-2.049 1.34)" class="color440404 svgShape"/><ellipse cx="919.1" cy="1407.3" fill="#422705" opacity=".192" rx="308.3" ry="162.7" transform="translate(-2.049 1.34)" class="color420505 svgShape"/><ellipse cx="919.1" cy="1407.3" fill="#402606" opacity=".231" rx="299.2" ry="157.9" transform="translate(-2.049 1.34)" class="color400606 svgShape"/><ellipse cx="919.1" cy="1407.3" fill="#3e2506" opacity=".269" rx="290.1" ry="153.1" transform="translate(-2.05 1.34)" class="color3e0606 svgShape"/><ellipse cx="919.1" cy="1407.3" fill="#3c2507" opacity=".308" rx="280.9" ry="148.3" transform="translate(-2.05 1.34)" class="color3c0707 svgShape"/><ellipse cx="919.1" cy="1407.3" fill="#3a2408" opacity=".346" rx="271.8" ry="143.5" transform="translate(-2.05 1.34)" class="color3a0808 svgShape"/><ellipse cx="919.1" cy="1407.3" fill="#382309" opacity=".385" rx="262.7" ry="138.7" transform="translate(-2.05 1.341)" class="color380909 svgShape"/><ellipse cx="919.1" cy="1407.3" fill="#36230a" opacity=".423" rx="253.6" ry="133.9" transform="translate(-2.05 1.341)" class="color360a0a svgShape"/><ellipse cx="919.1" cy="1407.3" fill="#34220b" opacity=".462" rx="244.5" ry="129.1" transform="translate(-2.05 1.341)" class="color340b0b svgShape"/><ellipse cx="919.1" cy="1407.3" fill="#33220c" opacity=".5" rx="235.4" ry="124.2" transform="translate(-2.051 1.342)" class="color330c0c svgShape"/><ellipse cx="919.1" cy="1407.3" fill="#31210d" opacity=".538" rx="226.2" ry="119.4" transform="translate(-2.051 1.342)" class="color310d0d svgShape"/><ellipse cx="919.1" cy="1407.3" fill="#2f200e" opacity=".577" rx="217.1" ry="114.6" transform="translate(-2.052 1.342)" class="color2f0e0e svgShape"/><ellipse cx="919.1" cy="1407.3" fill="#2d200f" opacity=".615" rx="208" ry="109.8" transform="translate(-2.052 1.343)" class="color2d0f0f svgShape"/><ellipse cx="919.1" cy="1407.3" fill="#2b1f10" opacity=".654" rx="198.9" ry="105" transform="translate(-2.053 1.343)" class="color2b1010 svgShape"/><ellipse cx="919.1" cy="1407.3" fill="#291e11" opacity=".692" rx="189.8" ry="100.2" transform="translate(-2.053 1.343)" class="color291111 svgShape"/><ellipse cx="919.1" cy="1407.3" fill="#271e12" opacity=".731" rx="180.7" ry="95.4" transform="translate(-2.054 1.343)" class="color271212 svgShape"/><ellipse cx="919.1" cy="1407.3" fill="#251d12" opacity=".769" rx="171.6" ry="90.6" transform="translate(-2.055 1.344)" class="color251212 svgShape"/><ellipse cx="919.1" cy="1407.3" fill="#231c13" opacity=".808" rx="162.4" ry="85.7" transform="translate(-2.055 1.345)" class="color231313 svgShape"/><ellipse cx="919.1" cy="1407.3" fill="#211b14" opacity=".846" rx="153.3" ry="80.9" transform="translate(-2.056 1.345)" class="color211414 svgShape"/><ellipse cx="919.1" cy="1407.3" fill="#1f1b15" opacity=".885" rx="144.2" ry="76.1" transform="translate(-2.057 1.346)" class="color1f1515 svgShape"/><ellipse cx="919.1" cy="1407.3" fill="#1d1a16" opacity=".923" rx="135.1" ry="71.3" transform="translate(-2.058 1.347)" class="color1d1616 svgShape"/><ellipse cx="919.1" cy="1407.3" fill="#1b1917" opacity=".962" rx="126" ry="66.5" transform="translate(-2.06 1.347)" class="color1b1717 svgShape"/><ellipse cx="919.1" cy="1407.3" fill="#191918" rx="116.9" ry="61.7" transform="translate(-2.06 1.348)" class="color191818 svgShape"/></g><linearGradient id="g" x1="924.815" x2="1743.314" y1="1288.156" y2="1288.156" gradientUnits="userSpaceOnUse"><stop offset="0" stop-color="#ffffff" class="stopColorfff svgShape"/><stop offset="1" stop-color="#f2f2f2" class="stopColorf2f2f2 svgShape"/></linearGradient><polygon fill="url(#g)" points="986.2 1226 1284.8 1074.2 1743.3 1317.4 1456.1 1476 924.8 1502.1"/><linearGradient id="h" x1="594.582" x2="1600.042" y1="1467.946" y2="1467.946" gradientUnits="userSpaceOnUse"><stop offset="0" stop-color="#fbb890" class="stopColorefcc9e svgShape"/><stop offset="1" stop-color="#e28a56" class="stopColore2a956 svgShape"/></linearGradient><polygon fill="url(#h)" points="594.6 1398.3 1138.4 1783.1 1600 1490.8 1038.3 1432.9 1030.3 1152.8"/><linearGradient id="i" x1="594.582" x2="1183.419" y1="1563.344" y2="1563.344" gradientUnits="userSpaceOnUse"><stop offset="0" stop-color="#fbb890" class="stopColorefcc9e svgShape"/><stop offset="1" stop-color="#e28a56" class="stopColore2a956 svgShape"/></linearGradient><polygon fill="url(#i)" points="594.6 1398.3 1183.4 1343.6 1138.4 1783.1"/><path fill="#ffffff" d="M1573.5,1330.1c0,28.4-20.7,53-50.9,64.8c-12.2,4.8-25.8,7.4-40.3,7.4c-23.7,0-45.3-7.2-61.5-18.9     c-18.2-13.2-29.7-32.2-29.7-53.3c0-39.9,40.8-72.3,91.2-72.3c49.1,0,89.2,30.8,91.1,69.3     C1573.5,1328.2,1573.5,1329.2,1573.5,1330.1z" class="colorfff svgShape"/><linearGradient id="j" x1="1482.362" x2="1573.542" y1="1361.087" y2="1361.087" gradientUnits="userSpaceOnUse"><stop offset="0" stop-color="#ffa30f" class="stopColorffac06 svgShape"/><stop offset="1" stop-color="#fb600a" class="stopColorff7c0a svgShape"/></linearGradient><path fill="url(#j)" d="M1573.5,1330.1c0,28.4-20.7,53-50.9,64.8c-17.4-27.2-40.3-64.8-40.3-64.8l91.1-2.9     C1573.5,1328.2,1573.5,1329.2,1573.5,1330.1z"/><linearGradient id="k" x1="1420.834" x2="1522.66" y1="1366.271" y2="1366.271" gradientUnits="userSpaceOnUse"><stop offset="0" stop-color="#ed9f70" class="stopColor70ed85 svgShape"/><stop offset="1" stop-color="#b34a0b" class="stopColor0ba2b3 svgShape"/></linearGradient><path fill="url(#k)" d="M1522.7,1395c-12.2,4.8-25.8,7.4-40.3,7.4c-23.7,0-45.3-7.2-61.5-18.9l61.5-53.3L1522.7,1395z"/><path fill="#d8d8d8" d="M1302.5 1322.6l-175.6-115c-3.5-2.3-3.4-5.8.2-7.7l0 0c3.6-2 9.5-1.7 13 .6l175.6 115c3.5 2.3 3.4 5.8-.2 7.7l0 0C1311.9 1325.2 1306 1324.9 1302.5 1322.6zM1271.7 1339.1l-175.6-115c-3.5-2.3-3.4-5.8.2-7.7l0 0c3.6-2 9.5-1.7 13 .6l175.6 115c3.5 2.3 3.4 5.8-.2 7.7l0 0C1281.1 1341.7 1275.2 1341.4 1271.7 1339.1zM1240.9 1355.6l-175.6-115c-3.5-2.3-3.4-5.8.2-7.7l0 0c3.6-2 9.5-1.7 13 .6l175.6 115c3.5 2.3 3.4 5.8-.2 7.7l0 0C1250.2 1358.2 1244.4 1357.9 1240.9 1355.6zM1210.1 1372.1l-175.6-115c-3.5-2.3-3.4-5.8.2-7.7l0 0c3.6-2 9.5-1.7 13 .6l175.6 115c3.5 2.3 3.4 5.8-.2 7.7l0 0C1219.4 1374.6 1213.6 1374.4 1210.1 1372.1zM1437.9 1234.4l-145.3-94.8c-3.5-2.3-3.4-5.8.2-7.7l0 0c3.6-2 9.5-1.7 13 .6l145.3 94.8c3.5 2.3 3.4 5.8-.2 7.7l0 0C1447.3 1237 1441.4 1236.7 1437.9 1234.4zM1407.1 1250.9l-145.3-94.8c-3.5-2.3-3.4-5.8.2-7.7h0c3.6-2 9.5-1.7 13 .6l145.3 94.8c3.5 2.3 3.4 5.8-.2 7.7h0C1416.5 1253.5 1410.6 1253.2 1407.1 1250.9zM1376.3 1267.4l-145.3-94.8c-3.5-2.3-3.4-5.8.2-7.7h0c3.6-2 9.5-1.7 13 .6l145.3 94.8c3.5 2.3 3.4 5.8-.2 7.7l0 0C1385.7 1270 1379.8 1269.7 1376.3 1267.4zM1345.5 1283.9l-145.3-94.8c-3.5-2.3-3.4-5.8.2-7.7l0 0c3.6-2 9.5-1.7 13 .6l145.3 94.8c3.5 2.3 3.4 5.8-.2 7.7l0 0C1354.8 1286.4 1349 1286.2 1345.5 1283.9z" class="colord8d8d8 svgShape"/><linearGradient id="l" x1="1825.906" x2="1546.643" y1="777.696" y2="882.957" gradientUnits="userSpaceOnUse"><stop offset="0" stop-color="#303030" class="stopColor303030 svgShape"/><stop offset="1" stop-color="#727272" class="stopColor727272 svgShape"/></linearGradient><path fill="url(#l)" d="M1735.8,349.7l460.1,120.8c16.3,4.3,24.6,22.3,17.4,37.5l-342.6,712.9c-8.1,16.8-28.3,23.8-45,15.7    l-434.3-211.4c-13.6-6.6-19.1-23-12.4-36.5L1688.7,371C1697.4,353.7,1717,344.8,1735.8,349.7z"/><linearGradient id="m" x1="1825.023" x2="1545.759" y1="775.709" y2="880.97" gradientUnits="userSpaceOnUse"><stop offset="0" stop-color="#8f8f8f" class="stopColor8f8f8f svgShape"/><stop offset=".298" stop-color="#ffffff" class="stopColorfff svgShape"/><stop offset=".798" stop-color="#515151" class="stopColor515151 svgShape"/><stop offset="1" stop-color="#727272" class="stopColor727272 svgShape"/></linearGradient><path fill="url(#m)" d="M1734.9,347.7L2195,468.5c16.3,4.3,24.6,22.3,17.4,37.5l-342.6,712.9c-8.1,16.8-28.3,23.8-45,15.7    l-434.3-211.4c-13.6-6.6-19.1-23-12.4-36.5L1687.8,369C1696.5,351.7,1716.2,342.8,1734.9,347.7z"/><linearGradient id="n" x1="1689.228" x2="1832.316" y1="2003.21" y2="203.301" gradientUnits="userSpaceOnUse"><stop offset="0" stop-color="#303030" class="stopColor303030 svgShape"/><stop offset="1" stop-color="#727272" class="stopColor727272 svgShape"/></linearGradient><path fill="url(#n)" d="M1729.8,335.8L2190,456.6c16.3,4.3,24.6,22.3,17.4,37.5L1864.7,1207c-8.1,16.8-28.3,23.8-45,15.7    l-434.3-211.4c-13.6-6.6-19.1-23-12.4-36.5L1682.8,357C1691.5,339.7,1711.1,330.8,1729.8,335.8z"/><linearGradient id="o" x1="1696.169" x2="1828.7" y1="1913.023" y2="245.901" gradientUnits="userSpaceOnUse"><stop offset="0" stop-color="#727272" class="stopColor727272 svgShape"/><stop offset="1" stop-color="#e4e4e4" class="stopColore4e4e4 svgShape"/></linearGradient><path fill="url(#o)" d="M1834.4,1193.6c-0.2,0-0.3,0-0.5-0.1l-429.4-209l307.3-612.8c1.4-2.9,4.4-4.7,7.6-4.7c0.7,0,1.5,0.1,2.2,0.3    l453.5,119l-339.6,706.7C1835.2,1193.5,1834.6,1193.6,1834.4,1193.6z"/><linearGradient id="p" x1="1696.876" x2="1823.005" y1="1910.352" y2="323.766" gradientUnits="userSpaceOnUse"><stop offset="0" stop-color="#ffffff" class="stopColorfff svgShape"/><stop offset="1" stop-color="#727272" class="stopColor727272 svgShape"/></linearGradient><path fill="url(#p)" d="M2209.5,477.9c0.5,4.8-0.2,9.8-2.5,14.5l-342.6,712.9c-8.1,16.8-28.3,23.8-45,15.7l-434.3-211.4    c-8-3.9-13.2-11.3-14.8-19.4c1.1,8.8,6.4,17,15,21.2l434.3,211.4c16.8,8.2,36.9,1.1,45-15.7l342.6-712.9    C2209.9,488.8,2210.5,483.2,2209.5,477.9z"/><linearGradient id="q" x1="1136.095" x2="1136.508" y1="860.661" y2="851.513" gradientUnits="userSpaceOnUse"><stop offset="0" stop-color="#dd6d2f" class="stopColordd2f2f svgShape"/><stop offset="1" stop-color="#d17705" class="stopColora02d2d svgShape"/></linearGradient><path fill="url(#q)" d="M1141.8,856.9l-10.9-5C1135,852.8,1138.6,854.5,1141.8,856.9z"/><linearGradient id="r" x1="1553.795" x2="1824.644" y1="1182.501" y2="476.917" gradientUnits="userSpaceOnUse"><stop offset="0" stop-color="#ffffff" class="stopColorfff svgShape"/><stop offset="1" stop-color="#f2f2f2" class="stopColorf2f2f2 svgShape"/></linearGradient><path fill="url(#r)" d="M2083.5,488.5l-293.3,612.1c0,0-60.2,139.4-183.1,114.8c0,0-17.1-4.3-36.2-16.3   c-27.9-17.5-60-51.1-49.7-111.3c6.1-35.5-1.9-58.3-17.9-67c0,0-0.1,0-0.1,0l-1-0.5c-1-0.6-2-1-3.2-1.4l-53.7-24.3l-70.5-31.9   c14.2-19.8,21.3-36.2,21.3-36.2l263.6-550L2083.5,488.5z"/><linearGradient id="s" x1="1498.482" x2="1498.595" y1="1020.504" y2="1017.998" gradientUnits="userSpaceOnUse"><stop offset="0" stop-color="#dd6d2f" class="stopColordd2f2f svgShape"/><stop offset="1" stop-color="#d17705" class="stopColora02d2d svgShape"/></linearGradient><path fill="url(#s)" d="M1500.4,1019.5c-1-0.4-2.2-0.9-3.7-1.4c0.8,0.2,1.6,0.5,2.4,0.8L1500.4,1019.5z"/><linearGradient id="t" x1="1498.482" x2="1498.595" y1="1020.504" y2="1017.998" gradientUnits="userSpaceOnUse"><stop offset="0" stop-color="#dd6d2f" class="stopColordd2f2f svgShape"/><stop offset="1" stop-color="#d17705" class="stopColora02d2d svgShape"/></linearGradient><path fill="url(#t)" d="M1496.7,1018.1c0.8,0.2,1.6,0.5,2.4,0.8l1.3,0.6C1499.4,1019.1,1498.2,1018.6,1496.7,1018.1z"/><g fill="#000000" class="color000 svgShape"><linearGradient id="u" x1="1597.776" x2="1617.623" y1="525.318" y2="275.655" gradientTransform="matrix(1.1123 -.038 .0381 1.1124 67.152 70.776)" gradientUnits="userSpaceOnUse"><stop offset="0" stop-color="#dd6d2f" class="stopColordd2f2f svgShape"/><stop offset="1" stop-color="#d17705" class="stopColora02d2d svgShape"/></linearGradient><path fill="url(#u)" d="M1931.2,396c2.1-4.6,3.5-9.4,4-14.4c2.7-24.7-15.8-44-41.3-43.1c-22.6,0.8-43,17.1-49.3,37.9l-20.1-4.6    c-12-2.7-24.1,3.5-28.9,14.8l-23.8,38.2l4,8l173.7,44l22.2-55.4c3.1-7.8-1.5-16.6-9.7-18.5L1931.2,396z M1917.1,382.2    c-1.6,15-15.5,27.6-31,28.1c-15.5,0.5-26.8-11.2-25.1-26.2c1.6-15,15.5-27.6,31-28.1C1907.5,355.4,1918.8,367.1,1917.1,382.2z"/><linearGradient id="v" x1="1596.361" x2="1616.208" y1="518.197" y2="268.535" gradientTransform="matrix(1.1123 -.038 .0381 1.1124 67.152 70.776)" gradientUnits="userSpaceOnUse"><stop offset="0" stop-color="#dd6d2f" class="stopColordd2f2f svgShape"/><stop offset="1" stop-color="#ff9357" class="stopColorff6757 svgShape"/></linearGradient><path fill="url(#v)" d="M1927.2,388c2.1-4.6,3.5-9.4,4-14.4c2.7-24.7-15.8-44-41.3-43.1c-22.6,0.8-43,17.1-49.3,37.9l-20.1-4.6    c-12-2.7-24.1,3.5-28.9,14.8l-19.7,46.2l173.7,44l22.2-55.4c3.1-7.8-1.5-16.6-9.7-18.5L1927.2,388z M1913.1,374.2    c-1.6,15-15.5,27.6-31,28.1c-15.5,0.5-26.8-11.2-25.1-26.2c1.6-15,15.5-27.6,31-28.1C1903.5,347.4,1914.7,359.2,1913.1,374.2z"/></g><g fill="#000000" class="color000 svgShape"><linearGradient id="w" x1="2220.042" x2="2222.343" y1="44.611" y2="-6.36" gradientTransform="matrix(.9728 .261 -.4381 .8989 -307.063 37.479)" gradientUnits="userSpaceOnUse"><stop offset="0" stop-color="#929292" class="stopColor929292 svgShape"/><stop offset="1" stop-color="#e4e4e4" class="stopColore4e4e4 svgShape"/></linearGradient><path fill="url(#w)" d="M1944.6,659.7L1748,607c-4.2-1.1-6.1-5.2-4.2-9.1l0,0c1.9-3.9,6.9-6.2,11.1-5l196.6,52.7     c4.2,1.1,6.1,5.2,4.2,9.1v0C1953.8,658.6,1948.8,660.9,1944.6,659.7z"/><linearGradient id="x" x1="2179.944" x2="2182.245" y1="536.88" y2="485.909" gradientTransform="matrix(.9728 .261 -.4381 .8989 -307.063 37.479)" gradientUnits="userSpaceOnUse"><stop offset="0" stop-color="#929292" class="stopColor929292 svgShape"/><stop offset="1" stop-color="#e4e4e4" class="stopColore4e4e4 svgShape"/></linearGradient><path fill="url(#x)" d="M1689.9,1091.8l-196.6-52.7c-4.2-1.1-6.1-5.2-4.2-9.1l0,0c1.9-3.9,6.9-6.2,11.1-5l196.6,52.7     c4.2,1.1,6.1,5.2,4.2,9.1l0,0C1699.1,1090.7,1694.1,1092.9,1689.9,1091.8z"/><linearGradient id="y" x1="2170.42" x2="2172.721" y1="594.828" y2="543.857" gradientTransform="matrix(.9728 .261 -.4381 .8989 -307.063 37.479)" gradientUnits="userSpaceOnUse"><stop offset="0" stop-color="#929292" class="stopColor929292 svgShape"/><stop offset="1" stop-color="#e4e4e4" class="stopColore4e4e4 svgShape"/></linearGradient><path fill="url(#y)" d="M1655.3,1141.4l-196.6-52.7c-4.2-1.1-6.1-5.2-4.2-9.1l0,0c1.9-3.9,6.9-6.2,11.1-5l196.6,52.7     c4.2,1.1,6.1,5.2,4.2,9.1h0C1664.5,1140.3,1659.5,1142.5,1655.3,1141.4z"/><linearGradient id="z" x1="2148.552" x2="2150.852" y1="-51.905" y2="-102.856" gradientTransform="matrix(.9949 .259 -.4381 .8989 -352.372 41.055)" gradientUnits="userSpaceOnUse"><stop offset="0" stop-color="#929292" class="stopColor929292 svgShape"/><stop offset="1" stop-color="#e4e4e4" class="stopColore4e4e4 svgShape"/></linearGradient><path fill="url(#z)" d="M1921.7,553.4l-201-52.3c-4.3-1.1-6.3-5.2-4.4-9.1l0,0c1.9-3.9,7-6.2,11.3-5l201,52.3     c4.3,1.1,6.3,5.2,4.4,9.1l0,0C1931.1,552.3,1926.1,554.5,1921.7,553.4z"/><linearGradient id="A" x1="2220.041" x2="2222.343" y1="84.798" y2="33.827" gradientTransform="matrix(.9728 .261 -.4381 .8989 -307.063 37.479)" gradientUnits="userSpaceOnUse"><stop offset="0" stop-color="#929292" class="stopColor929292 svgShape"/><stop offset="1" stop-color="#e4e4e4" class="stopColore4e4e4 svgShape"/></linearGradient><path fill="url(#A)" d="M1927,695.9l-196.6-52.7c-4.2-1.1-6.1-5.2-4.2-9.1v0c1.9-3.9,6.9-6.2,11.1-5l196.6,52.7     c4.2,1.1,6.1,5.2,4.2,9.1l0,0C1936.2,694.7,1931.2,697,1927,695.9z"/><path fill="#cca892" d="M1650.4,632.8L1650.4,632.8c-20.1-5.4-29.1-24.9-20-43.5v0c9-18.5,32.8-29.3,52.9-23.9l0,0      c20.1,5.4,29.1,24.9,20,43.5v0C1694.3,627.4,1670.4,638.2,1650.4,632.8z" class="color92cca1 svgShape"/><polygon fill="#ffffff" points="1652.4 584.6 1652.6 610.9 1691.4 603.4 1688.7 594.3 1664.3 598.4 1662.6 581.5" class="colorfff svgShape"/><linearGradient id="B" x1="2220.041" x2="2222.342" y1="138.895" y2="87.924" gradientTransform="matrix(.9728 .261 -.4381 .8989 -307.063 37.479)" gradientUnits="userSpaceOnUse"><stop offset="0" stop-color="#929292" class="stopColor929292 svgShape"/><stop offset="1" stop-color="#e4e4e4" class="stopColore4e4e4 svgShape"/></linearGradient><path fill="url(#B)" d="M1903.3,744.5l-196.6-52.7c-4.2-1.1-6.1-5.2-4.2-9.1l0,0c1.9-3.9,6.9-6.2,11.1-5l196.6,52.7     c4.2,1.1,6.1,5.2,4.2,9.1v0C1912.5,743.4,1907.5,745.6,1903.3,744.5z"/><linearGradient id="C" x1="2220.04" x2="2222.341" y1="179.082" y2="128.111" gradientTransform="matrix(.9728 .261 -.4381 .8989 -307.063 37.479)" gradientUnits="userSpaceOnUse"><stop offset="0" stop-color="#929292" class="stopColor929292 svgShape"/><stop offset="1" stop-color="#e4e4e4" class="stopColore4e4e4 svgShape"/></linearGradient><path fill="url(#C)" d="M1885.7,780.6l-196.6-52.7c-4.2-1.1-6.1-5.2-4.2-9.1l0,0c1.9-3.9,6.9-6.2,11.1-5l196.6,52.7     c4.2,1.1,6.1,5.2,4.2,9.1l0,0C1894.9,779.5,1889.9,781.8,1885.7,780.6z"/><path fill="#cca892" d="M1609.1,717.5L1609.1,717.5c-20.1-5.4-29.1-24.9-20-43.5v0c9-18.5,32.8-29.3,52.9-23.9l0,0      c20.1,5.4,29.1,24.9,20,43.5v0C1652.9,712.2,1629.1,722.9,1609.1,717.5z" class="color92cca1 svgShape"/><polygon fill="#ffffff" points="1611.1 669.4 1611.3 695.7 1650.1 688.2 1647.4 679.1 1623 683.2 1621.3 666.3" class="colorfff svgShape"/><path fill="#999999" d="M1558.4,734.3l-104.7,214.8l318.2,85.4l104.7-214.8L1558.4,734.3z M1849.8,869.4l-133.5-35.8l23.5-48.3    l133.5,35.8L1849.8,869.4z M1574.9,795.6l11.3-23.1l139.1,37.3L1714,833L1574.9,795.6z M1713,835l-78.1,160.3L1495.8,958    l78.1-160.3L1713,835z M1726.3,807.8l-139.1-37.3l11.3-23.1l139.1,37.3L1726.3,807.8z M1596.2,746.8l-23.5,48.3l-36.5-9.8    l23.5-48.3L1596.2,746.8z M1535.1,787.3l36.5,9.8l-78.1,160.3l-36.5-9.8L1535.1,787.3z M1637.1,995.9l78.1-160.3l133.5,35.8    l-78.1,160.3L1637.1,995.9z" class="color999 svgShape"/></g><linearGradient id="D" x1="1173.224" x2="1304.336" y1="1164.654" y2="876.555" gradientUnits="userSpaceOnUse"><stop offset="0" stop-color="#ffffff" class="stopColorfff svgShape"/><stop offset="1" stop-color="#eeeeee" class="stopColoreee svgShape"/></linearGradient><path fill="url(#D)" d="M1499.1,1018.9c-0.8-0.3-1.6-0.6-2.4-0.8c-0.1,0-0.3-0.1-0.4-0.1c-27.9-7.3-73,19.5-113,85.6   c-4.5,7.3-8.9,15.2-13.2,23.5c-71.3,138.5-71.3,138.5-71.3,138.5l-344.2-190.9c0,0,0,0,50-97c4.3-8.4,9-17.5,14.1-27.4   c38-73.7,84.1-104.4,112.2-98.3l10.9,5l233,105.7l70.5,31.9L1499.1,1018.9z"/><linearGradient id="E" x1="1492.443" x2="1476.857" y1="1023.557" y2="1153.435" gradientUnits="userSpaceOnUse"><stop offset="0" stop-color="#929292" class="stopColor929292 svgShape"/><stop offset="1" stop-color="#e4e4e4" class="stopColore4e4e4 svgShape"/></linearGradient><path fill="url(#E)" d="M1570.9,1199.1l-187.6-95.6c39.9-66.1,85-92.8,113-85.6c0.1,0,0.3,0.1,0.4,0.1c1.5,0.5,2.7,1,3.7,1.4   l-1.3-0.6c1.1,0.4,2.1,0.8,3.2,1.4l1,0.5c0,0,0.1,0,0.1,0c16,8.7,24,31.5,17.9,67C1510.9,1147.9,1543,1181.6,1570.9,1199.1z"/><g fill="#000000" class="color000 svgShape"><linearGradient id="F" x1="1297.929" x2="2084.398" y1="876.984" y2="876.984" gradientUnits="userSpaceOnUse"><stop offset=".011" stop-color="#e9e9e9" class="stopColore9e9e9 svgShape"/><stop offset="1" stop-color="#bababa" class="stopColorbababa svgShape"/></linearGradient><path fill="url(#F)" d="M1299.8,1265.9l-1.8-0.8c32.9-78.2,65.2-139.1,95.9-181c31.3-42.7,60.9-65.6,88.1-68    c13.2-1.2,23.6,2.2,30.7,10.2c17.7,19.7,9.9,60,9.5,61.7c-6.5,28.4-0.4,59.5,16.3,83.2c18,25.6,47.4,41.5,84.9,46    c45.7,5.5,83.3-17.7,106.8-38.1c25-21.7,39.7-45,40.5-46.1l312-645l1.8,0.9l-312,645.1l0,0c-0.1,0.2-15.1,24.2-40.8,46.6    c-23.8,20.7-61.9,44.2-108.4,38.6c-38.1-4.6-68-20.8-86.3-46.9c-17-24.2-23.2-55.9-16.6-84.8c0.1-0.4,8-41-9.1-60    c-6.7-7.5-16.5-10.7-29.1-9.6C1429.1,1022.8,1366,1108.5,1299.8,1265.9z"/></g><linearGradient id="G" x1="1908.395" x2="1910.695" y1="195.345" y2="144.411" gradientTransform="matrix(.9191 .4116 -.5749 .8183 -414.49 54.632)" gradientUnits="userSpaceOnUse"><stop offset="0" stop-color="#929292" class="stopColor929292 svgShape"/><stop offset="1" stop-color="#e4e4e4" class="stopColore4e4e4 svgShape"/></linearGradient><path fill="url(#G)" d="M1336.9,1020.4l-185.7-83.2c-4-1.8-5.2-6.1-2.7-9.7l0,0c2.5-3.5,7.8-5,11.8-3.2l185.7,83.2   c4,1.8,5.2,6.1,2.7,9.7l0,0C1346.1,1020.7,1340.8,1022.1,1336.9,1020.4z"/><linearGradient id="H" x1="1907.689" x2="1909.988" y1="241.189" y2="190.255" gradientTransform="matrix(.9191 .4116 -.5749 .8183 -414.49 54.632)" gradientUnits="userSpaceOnUse"><stop offset="0" stop-color="#929292" class="stopColor929292 svgShape"/><stop offset="1" stop-color="#e4e4e4" class="stopColore4e4e4 svgShape"/></linearGradient><path fill="url(#H)" d="M1309.9,1057.6l-185.7-83.2c-4-1.8-5.2-6.1-2.7-9.7l0,0c2.5-3.5,7.8-5,11.8-3.2l185.7,83.2   c4,1.8,5.2,6.1,2.7,9.7l0,0C1319.1,1057.9,1313.8,1059.4,1309.9,1057.6z"/><g fill="#000000" class="color000 svgShape"><linearGradient id="I" x1="2103.945" x2="2272.482" y1="1295.982" y2="925.644" gradientTransform="matrix(1 0 .0084 1.0175 4.539 9.22)" gradientUnits="userSpaceOnUse"><stop offset="0" stop-color="#dd6d2f" class="stopColordd2f2f svgShape"/><stop offset="1" stop-color="#d17705" class="stopColora02d2d svgShape"/></linearGradient><path fill="url(#I)" d="M2068,990.9l-131.4,263c-9.6,20.2-1.5,44.5,18.2,54.9l263.5,118.8c22.5,11.9,50.1,2.9,61.5-20l137.4-267.6    c13.2-26.4,1.1-58.9-26.1-70l-256.8-105C2108.7,954.7,2079.8,965.9,2068,990.9z"/><linearGradient id="J" x1="2144.238" x2="2198.778" y1="944.874" y2="1422.515" gradientUnits="userSpaceOnUse"><stop offset="0" stop-color="#dd6d2f" class="stopColordd2f2f svgShape"/><stop offset="1" stop-color="#ff9357" class="stopColorff6757 svgShape"/></linearGradient><path fill="url(#J)" d="M2061.3,973.9l-131.4,263c-9.6,20.2-1.5,44.5,18.2,54.9l263.5,118.8c22.5,11.9,50.1,2.9,61.5-20l137.4-267.6    c13.2-26.4,1.1-58.9-26.1-70l-256.8-105C2102,937.7,2073.1,949,2061.3,973.9z"/><path fill="#ffffff" d="M2296,1184.1c0,48.6-28.1,90.6-68.9,110.8c-16.5,8.1-35,12.7-54.6,12.7c-32.1,0-61.4-12.3-83.3-32.3     c-24.7-22.6-40.2-55-40.2-91.1c0-68.2,55.3-123.5,123.5-123.5c66.5,0,120.7,52.6,123.3,118.4     C2296,1180.7,2296,1182.4,2296,1184.1z" class="colorfff svgShape"/><linearGradient id="K" x1="2172.542" x2="2296.004" y1="1236.958" y2="1236.958" gradientUnits="userSpaceOnUse"><stop offset="0" stop-color="#ffa30f" class="stopColorffac06 svgShape"/><stop offset="1" stop-color="#fb600a" class="stopColorff7c0a svgShape"/></linearGradient><path fill="url(#K)" d="M2296,1184.1c0,48.6-28.1,90.6-68.9,110.8c-23.6-46.5-54.6-110.8-54.6-110.8l123.3-5     C2296,1180.7,2296,1182.4,2296,1184.1z"/><linearGradient id="L" x1="2089.23" x2="2227.108" y1="1245.816" y2="1245.816" gradientUnits="userSpaceOnUse"><stop offset="0" stop-color="#ed9f70" class="stopColor70ed85 svgShape"/><stop offset="1" stop-color="#b34a0b" class="stopColor0ba2b3 svgShape"/></linearGradient><path fill="url(#L)" d="M2227.1,1294.8c-16.5,8.1-35,12.7-54.6,12.7c-32.1,0-61.4-12.3-83.3-32.3l83.3-91.1L2227.1,1294.8z"/></g><g fill="#000000" class="color000 svgShape"><linearGradient id="M" x1="2598.484" x2="2162.141" y1="721.587" y2="831.855" gradientUnits="userSpaceOnUse"><stop offset="0" stop-color="#674820" class="stopColor206751 svgShape"/><stop offset="1" stop-color="#964311" class="stopColor119096 svgShape"/></linearGradient><path fill="url(#M)" d="M2138.8,920l290.8,116.5c21.8,8.7,46.7-0.3,57.8-21l209.9-382.4c8.7-16.2,0-36.3-17.8-41.1l-318.9-86.5    c-17.5-4.7-35.9,3.4-44.1,19.5l-190.6,360.3C2119,898.4,2125,914.5,2138.8,920z"/><linearGradient id="N" x1="2117.579" x2="2695.153" y1="754.51" y2="754.51" gradientUnits="userSpaceOnUse"><stop offset="0" stop-color="#fbab7c" class="stopColor82fb7c svgShape"/><stop offset="1" stop-color="#b34a0b" class="stopColor0ba2b3 svgShape"/></linearGradient><path fill="url(#N)" d="M2133.3,902.5l290.8,116.5c21.8,8.7,46.7-0.3,57.8-21l209.9-382.4c8.7-16.2,0-36.3-17.8-41.1L2355.1,488    c-17.5-4.7-35.9,3.4-44.1,19.5l-190.6,360.3C2113.6,880.9,2119.6,897,2133.3,902.5z"/><polygon fill="none" stroke="#ffffff" stroke-miterlimit="10" stroke-width="2" points="2528 707.6 2393.1 662.4 2409.2 632.7 2544.2 677.9" class="colorStrokefff svgStroke"/><path fill="#ffffff" d="M2385.7 633.1l-59-19.7c-1.4-.5-2-1.9-1.4-3.1l0 0c.7-1.3 2.4-1.9 3.8-1.4l59 19.7c1.4.5 2 1.9 1.4 3.1l0 0C2388.9 633 2387.2 633.6 2385.7 633.1zM2510.4 610.6l-90.6-25.9c-2.2-.6-3.2-2.7-2.1-4.6l0 0c1-1.9 3.7-2.9 5.9-2.3l90.6 25.9c2.2.6 3.2 2.7 2.1 4.6l0 0C2515.3 610.2 2512.6 611.2 2510.4 610.6zM2366.6 644l-47.9-16c-1.4-.5-2-1.9-1.4-3.1l0 0c.7-1.3 2.4-1.9 3.8-1.4l47.9 16c1.4.5 2 1.9 1.4 3.1l0 0C2369.8 643.8 2368.1 644.5 2366.6 644z" opacity=".72" class="colorfff svgShape"/><polygon fill="none" stroke="#ffffff" stroke-miterlimit="10" stroke-width="2" points="2498.5 761.8 2363.6 716.6 2379.7 686.9 2514.7 732.1" class="colorStrokefff svgStroke"/><path fill="#ffffff" d="M2356.2 687.3l-59-19.7c-1.4-.5-2-1.9-1.4-3.1l0 0c.7-1.3 2.4-1.9 3.8-1.4l59 19.7c1.4.5 2 1.9 1.4 3.1l0 0C2359.4 687.1 2357.6 687.8 2356.2 687.3zM2337.1 698.2l-47.9-16c-1.4-.5-2-1.9-1.4-3.1l0 0c.7-1.3 2.4-1.9 3.8-1.4l47.9 16c1.4.5 2 1.9 1.4 3.1l0 0C2340.3 698 2338.6 698.7 2337.1 698.2z" opacity=".72" class="colorfff svgShape"/><polygon fill="none" stroke="#ffffff" stroke-miterlimit="10" stroke-width="2" points="2469 815.9 2334.1 770.8 2350.2 741.1 2485.2 786.3" class="colorStrokefff svgStroke"/><path fill="#ffffff" d="M2326.7 741.5l-59-19.7c-1.4-.5-2-1.9-1.4-3.1l0 0c.7-1.3 2.4-1.9 3.8-1.4l59 19.7c1.4.5 2 1.9 1.4 3.1l0 0C2329.9 741.3 2328.1 741.9 2326.7 741.5zM2307.6 752.4l-47.9-16c-1.4-.5-2-1.9-1.4-3.1l0 0c.7-1.3 2.4-1.9 3.8-1.4l47.9 16c1.4.5 2 1.9 1.4 3.1l0 0C2310.8 752.2 2309 752.8 2307.6 752.4z" opacity=".72" class="colorfff svgShape"/><linearGradient id="O" x1="2552.252" x2="2735.714" y1="1034.731" y2="1034.731" gradientTransform="matrix(.892 0 0 .8921 -24.773 -72.09)" gradientUnits="userSpaceOnUse"><stop offset="0" stop-color="#ffa30f" class="stopColorffac06 svgShape"/><stop offset="1" stop-color="#fb600a" class="stopColorff7c0a svgShape"/></linearGradient><path fill="url(#O)" d="M2392,890.3l-135.9-45.5c-3.7-1.2-5.4-5.5-3.5-8.9l10.7-19.6c2.3-4.2,7.2-6.1,11.7-4.6l135,45.2     c4.7,1.6,6.9,7.1,4.5,11.4l-9.1,16.7C2402.8,889.8,2397.1,892,2392,890.3z"/><g fill="#000000" class="color000 svgShape"><circle cx="2273.2" cy="914.5" r="5.3" fill="#ffffff" class="colorfff svgShape"/><circle cx="2298.5" cy="922.9" r="5.3" fill="#ffffff" class="colorfff svgShape"/><circle cx="2323.7" cy="931.2" r="5.3" fill="#ffffff" class="colorfff svgShape"/></g></g><g fill="#000000" class="color000 svgShape"><linearGradient id="P" x1="1332.097" x2="1427.702" y1="340.295" y2="204.856" gradientUnits="userSpaceOnUse"><stop offset="0" stop-color="#303030" class="stopColor303030 svgShape"/><stop offset="1" stop-color="#727272" class="stopColor727272 svgShape"/></linearGradient><path fill="url(#P)" d="M1528.6,328.4l-48.3,88.2l-9.8-28.6c0,0-264.3,43.3-396.8,63.6l130.2-215.4c7-13.7,22.7-20.6,37.6-16.6     l270.8,55.3C1527.5,278.9,1536,314.5,1528.6,328.4z"/><linearGradient id="Q" x1="1431.846" x2="1199.768" y1="503.253" y2="562.601" gradientUnits="userSpaceOnUse"><stop offset="0" stop-color="#f7f7f7" class="stopColorf7f7f7 svgShape"/><stop offset="1" stop-color="#e4e4e4" class="stopColore4e4e4 svgShape"/></linearGradient><path fill="url(#Q)" d="M1480.4,416.6l-130.7,237.8c-9.4,17.7-30.7,25.4-49.3,17.9l-252.3-88.6c-11.7-4.7-31.1-36.4-25.4-47.6     l51.1-84.5c132.4-20.3,396.8-63.6,396.8-63.6L1480.4,416.6z"/><linearGradient id="R" x1="1022.709" x2="1519.582" y1="422.08" y2="422.08" gradientUnits="userSpaceOnUse"><stop offset="0" stop-color="#303030" class="stopColor303030 svgShape"/><stop offset="1" stop-color="#727272" class="stopColor727272 svgShape"/></linearGradient><path fill="url(#R)" d="M1516.7,303.7l-46.1,84.3l-132.8,241.7c-9.4,17.7-30.7,25.4-49.3,17.9L1036.1,559     c-11.7-4.7-16.8-18.4-11.1-29.6L1151,289.6l0-0.1l41-78.1c7-13.7,22.7-20.6,37.6-16.6l271.9,73.7     C1516.7,272.7,1524.1,289.8,1516.7,303.7z"/><linearGradient id="S" x1="1022.709" x2="1470.548" y1="471.039" y2="471.039" gradientUnits="userSpaceOnUse"><stop offset="0" stop-color="#f7f7f7" class="stopColorf7f7f7 svgShape"/><stop offset="1" stop-color="#e4e4e4" class="stopColore4e4e4 svgShape"/></linearGradient><path fill="url(#S)" d="M1470.5,388l-132.8,241.7c-9.4,17.7-30.7,25.4-49.3,17.9L1036.1,559c-11.7-4.7-16.8-18.4-11.1-29.6     l124.9-237.7l0-0.1L1470.5,388z"/><linearGradient id="T" x1="1193.638" x2="1488.146" y1="291.061" y2="291.061" gradientUnits="userSpaceOnUse"><stop offset="0" stop-color="#fbab7c" class="stopColor82fb7c svgShape"/><stop offset="1" stop-color="#b34a0b" class="stopColor0ba2b3 svgShape"/></linearGradient><polygon fill="url(#T)" points="1224.1 226.8 1488.1 298.2 1456.1 355.3 1193.6 278.4"/><linearGradient id="U" x1="1171.54" x2="1225.812" y1="362.01" y2="362.01" gradientUnits="userSpaceOnUse"><stop offset="0" stop-color="#303030" class="stopColor303030 svgShape"/><stop offset="1" stop-color="#727272" class="stopColor727272 svgShape"/></linearGradient><path fill="url(#U)" d="M1224.2,350.8c1.4,0.4,2,2,1.3,3.2l-14.4,27.5c-1.2,2.2-3.9,3.2-6.2,2.3l-31.7-11.1     c-1.5-0.6-2.1-2.3-1.4-3.7l14.1-26.8c0.9-1.8,3-2.6,4.9-2L1224.2,350.8z"/><linearGradient id="V" x1="1225.812" x2="1280.084" y1="380.262" y2="380.262" gradientUnits="userSpaceOnUse"><stop offset="0" stop-color="#303030" class="stopColor303030 svgShape"/><stop offset="1" stop-color="#727272" class="stopColor727272 svgShape"/></linearGradient><path fill="url(#V)" d="M1278.5,369c1.4,0.4,2,2,1.3,3.2l-14.4,27.5c-1.2,2.2-3.9,3.2-6.2,2.3l-31.7-11.1c-1.5-0.6-2.1-2.3-1.4-3.7     l14.1-26.8c0.9-1.8,3-2.6,4.9-2L1278.5,369z"/><linearGradient id="W" x1="1280.084" x2="1334.356" y1="398.513" y2="398.513" gradientUnits="userSpaceOnUse"><stop offset="0" stop-color="#303030" class="stopColor303030 svgShape"/><stop offset="1" stop-color="#727272" class="stopColor727272 svgShape"/></linearGradient><path fill="url(#W)" d="M1332.8,387.3c1.4,0.4,2,2,1.3,3.2l-14.4,27.5c-1.2,2.2-3.9,3.2-6.2,2.3l-31.7-11.1     c-1.5-0.6-2.1-2.3-1.4-3.7l14.1-26.8c0.9-1.8,3-2.6,4.9-2L1332.8,387.3z"/><linearGradient id="X" x1="1334.356" x2="1388.628" y1="416.764" y2="416.764" gradientUnits="userSpaceOnUse"><stop offset="0" stop-color="#303030" class="stopColor303030 svgShape"/><stop offset="1" stop-color="#727272" class="stopColor727272 svgShape"/></linearGradient><path fill="url(#X)" d="M1387,405.5c1.4,0.4,2,2,1.3,3.2l-14.4,27.5c-1.2,2.2-3.9,3.2-6.2,2.3l-31.7-11.1c-1.5-0.6-2.1-2.3-1.4-3.7     l14.1-26.8c0.9-1.8,3-2.6,4.9-2L1387,405.5z"/><linearGradient id="Y" x1="1144.404" x2="1198.676" y1="411.628" y2="411.628" gradientUnits="userSpaceOnUse"><stop offset="0" stop-color="#303030" class="stopColor303030 svgShape"/><stop offset="1" stop-color="#727272" class="stopColor727272 svgShape"/></linearGradient><path fill="url(#Y)" d="M1197.1,400.4c1.4,0.4,2,2,1.3,3.2l-14.4,27.5c-1.2,2.2-3.9,3.2-6.2,2.3l-31.7-11.1     c-1.5-0.6-2.1-2.3-1.4-3.7l14.1-26.8c0.9-1.8,3-2.6,4.9-2L1197.1,400.4z"/><linearGradient id="Z" x1="1198.676" x2="1252.948" y1="429.879" y2="429.879" gradientUnits="userSpaceOnUse"><stop offset="0" stop-color="#303030" class="stopColor303030 svgShape"/><stop offset="1" stop-color="#727272" class="stopColor727272 svgShape"/></linearGradient><path fill="url(#Z)" d="M1251.4,418.6c1.4,0.4,2,2,1.3,3.2l-14.4,27.5c-1.2,2.2-3.9,3.2-6.2,2.3l-31.7-11.1     c-1.5-0.6-2.1-2.3-1.4-3.7l14.1-26.8c0.9-1.8,3-2.6,4.9-2L1251.4,418.6z"/><linearGradient id="aa" x1="1252.948" x2="1307.22" y1="448.13" y2="448.13" gradientUnits="userSpaceOnUse"><stop offset="0" stop-color="#303030" class="stopColor303030 svgShape"/><stop offset="1" stop-color="#727272" class="stopColor727272 svgShape"/></linearGradient><path fill="url(#aa)" d="M1305.6,436.9c1.4,0.4,2,2,1.3,3.2l-14.4,27.5c-1.2,2.2-3.9,3.2-6.2,2.3l-31.7-11.1     c-1.5-0.6-2.1-2.3-1.4-3.7l14.1-26.8c0.9-1.8,3-2.6,4.9-2L1305.6,436.9z"/><linearGradient id="ab" x1="1307.22" x2="1361.492" y1="466.382" y2="466.382" gradientUnits="userSpaceOnUse"><stop offset="0" stop-color="#303030" class="stopColor303030 svgShape"/><stop offset="1" stop-color="#727272" class="stopColor727272 svgShape"/></linearGradient><path fill="url(#ab)" d="M1359.9,455.1c1.4,0.4,2,2,1.3,3.2l-14.4,27.5c-1.2,2.2-3.9,3.2-6.2,2.3l-31.7-11.1     c-1.5-0.6-2.1-2.3-1.4-3.7l14.1-26.8c0.9-1.8,3-2.6,4.9-2L1359.9,455.1z"/><linearGradient id="ac" x1="1117.268" x2="1171.54" y1="461.245" y2="461.245" gradientUnits="userSpaceOnUse"><stop offset="0" stop-color="#303030" class="stopColor303030 svgShape"/><stop offset="1" stop-color="#727272" class="stopColor727272 svgShape"/></linearGradient><path fill="url(#ac)" d="M1169.9,450c1.4,0.4,2,2,1.3,3.2l-14.4,27.5c-1.2,2.2-3.9,3.2-6.2,2.3l-31.7-11.1c-1.5-0.6-2.1-2.3-1.4-3.7     l14.1-26.8c0.9-1.8,3-2.6,4.9-2L1169.9,450z"/><linearGradient id="ad" x1="1171.54" x2="1225.812" y1="479.496" y2="479.496" gradientUnits="userSpaceOnUse"><stop offset="0" stop-color="#303030" class="stopColor303030 svgShape"/><stop offset="1" stop-color="#727272" class="stopColor727272 svgShape"/></linearGradient><path fill="url(#ad)" d="M1224.2,468.3c1.4,0.4,2,2,1.3,3.2l-14.4,27.5c-1.2,2.2-3.9,3.2-6.2,2.3l-31.7-11.1     c-1.5-0.6-2.1-2.3-1.4-3.7l14.1-26.8c0.9-1.8,3-2.6,4.9-2L1224.2,468.3z"/><linearGradient id="ae" x1="1225.812" x2="1280.084" y1="497.748" y2="497.748" gradientUnits="userSpaceOnUse"><stop offset="0" stop-color="#303030" class="stopColor303030 svgShape"/><stop offset="1" stop-color="#727272" class="stopColor727272 svgShape"/></linearGradient><path fill="url(#ae)" d="M1278.5,486.5c1.4,0.4,2,2,1.3,3.2l-14.4,27.5c-1.2,2.2-3.9,3.2-6.2,2.3l-31.7-11.1     c-1.5-0.6-2.1-2.3-1.4-3.7l14.1-26.8c0.9-1.8,3-2.6,4.9-2L1278.5,486.5z"/><linearGradient id="af" x1="1280.084" x2="1334.356" y1="515.999" y2="515.999" gradientUnits="userSpaceOnUse"><stop offset="0" stop-color="#303030" class="stopColor303030 svgShape"/><stop offset="1" stop-color="#727272" class="stopColor727272 svgShape"/></linearGradient><path fill="url(#af)" d="M1332.8,504.8c1.4,0.4,2,2,1.3,3.2l-14.4,27.5c-1.2,2.2-3.9,3.2-6.2,2.3l-31.7-11.1     c-1.5-0.6-2.1-2.3-1.4-3.7l14.1-26.8c0.9-1.8,3-2.6,4.9-2L1332.8,504.8z"/><linearGradient id="ag" x1="1090.132" x2="1144.404" y1="510.862" y2="510.862" gradientUnits="userSpaceOnUse"><stop offset="0" stop-color="#303030" class="stopColor303030 svgShape"/><stop offset="1" stop-color="#727272" class="stopColor727272 svgShape"/></linearGradient><path fill="url(#ag)" d="M1142.8,499.6c1.4,0.4,2,2,1.3,3.2l-14.4,27.5c-1.2,2.2-3.9,3.2-6.2,2.3l-31.7-11.1     c-1.5-0.6-2.1-2.3-1.4-3.7l14.1-26.8c0.9-1.8,3-2.6,4.9-2L1142.8,499.6z"/><linearGradient id="ah" x1="1144.404" x2="1198.676" y1="529.114" y2="529.114" gradientUnits="userSpaceOnUse"><stop offset="0" stop-color="#303030" class="stopColor303030 svgShape"/><stop offset="1" stop-color="#727272" class="stopColor727272 svgShape"/></linearGradient><path fill="url(#ah)" d="M1197.1,517.9c1.4,0.4,2,2,1.3,3.2l-14.4,27.5c-1.2,2.2-3.9,3.2-6.2,2.3l-31.7-11.1     c-1.5-0.6-2.1-2.3-1.4-3.7l14.1-26.8c0.9-1.8,3-2.6,4.9-2L1197.1,517.9z"/><linearGradient id="ai" x1="1198.676" x2="1252.948" y1="547.365" y2="547.365" gradientUnits="userSpaceOnUse"><stop offset="0" stop-color="#303030" class="stopColor303030 svgShape"/><stop offset="1" stop-color="#727272" class="stopColor727272 svgShape"/></linearGradient><path fill="url(#ai)" d="M1251.4,536.1c1.4,0.4,2,2,1.3,3.2l-14.4,27.5c-1.2,2.2-3.9,3.2-6.2,2.3l-31.7-11.1     c-1.5-0.6-2.1-2.3-1.4-3.7l14.1-26.8c0.9-1.8,3-2.6,4.9-2L1251.4,536.1z"/><linearGradient id="aj" x1="1252.948" x2="1307.22" y1="565.616" y2="565.616" gradientUnits="userSpaceOnUse"><stop offset="0" stop-color="#303030" class="stopColor303030 svgShape"/><stop offset="1" stop-color="#727272" class="stopColor727272 svgShape"/></linearGradient><path fill="url(#aj)" d="M1305.6,554.4c1.4,0.4,2,2,1.3,3.2l-14.4,27.5c-1.2,2.2-3.9,3.2-6.2,2.3l-31.7-11.1     c-1.5-0.6-2.1-2.3-1.4-3.7l14.1-26.8c0.9-1.8,3-2.6,4.9-2L1305.6,554.4z"/></g><g fill="#000000" class="color000 svgShape"><linearGradient id="ak" x1="3552.575" x2="4018.439" y1="2812.396" y2="2812.396" gradientTransform="matrix(.5753 .0885 -.1423 .5932 -443.13 -1266.944)" gradientUnits="userSpaceOnUse"><stop offset="0" stop-color="#674820" class="stopColor206751 svgShape"/><stop offset="1" stop-color="#b34a0b" class="stopColor0ba2b3 svgShape"/></linearGradient><path fill="url(#ak)" d="M1310.6,878c-75.1-6.2-125.2-74.6-112-152.8c13.2-78.2,84.7-136.6,159.8-130.5     c75.1,6.2,125.2,74.6,112,152.8C1457.2,825.8,1385.6,884.2,1310.6,878z"/><linearGradient id="al" x1="1730.773" x2="1518.377" y1="-817.968" y2="-623.737" gradientTransform="rotate(13.493 -4663.447 -1308.603)" gradientUnits="userSpaceOnUse"><stop offset="0" stop-color="#fbab7c" class="stopColor82fb7c svgShape"/><stop offset="1" stop-color="#b34a0b" class="stopColor0ba2b3 svgShape"/></linearGradient><path fill="url(#al)" d="M1288.1,872.6c-75.1-6.2-125.2-74.6-112-152.8c1.7-10,4.4-19.8,7.9-29.1c23.8-63.1,86.5-106.8,151.9-101.4     c58.7,4.8,102.1,47.7,112,103.5c2.8,15.6,2.9,32.2,0,49.3C1434.7,820.4,1363.1,878.8,1288.1,872.6z"/><path fill="#ffffff" d="M1447.8,692.8c-23.8,63.1-86.5,106.8-151.9,101.4c-58.6-4.8-102.1-47.6-112-103.5     c23.8-63.1,86.5-106.8,151.9-101.4C1394.5,594.2,1438,637,1447.8,692.8z" opacity=".26" class="colorfff svgShape"/><polygon fill="#ffffff" points="1275.3 677.5 1269.8 768.5 1367.2 752.6 1369.2 725.2 1295.2 738.3 1299 673.4" class="colorfff svgShape"/><g opacity=".1" fill="#000000" class="color000 svgShape"><path fill="#4c2a00" d="M1220.1,1024.7c-16.7,68.7-165.7,91.4-332.7,50.8c-167-40.6-288.9-129.3-272.2-197.9s165.7-91.4,332.7-50.8     C1115,867.4,1236.8,956,1220.1,1024.7z" opacity="0" class="color4c0000 svgShape"/><path fill="#4a2a01" d="M1214,1023.2c-16.4,67.3-162.3,89.6-326,49.8S605,946.3,621.4,879s162.3-89.6,326-49.8     C1111,869.1,1230.4,955.9,1214,1023.2z" opacity=".038" class="color4a0101 svgShape"/><ellipse cx="917.7" cy="951.1" fill="#482902" opacity=".077" rx="122.8" ry="298.7" transform="rotate(-76.326 917.655 951.048)" class="color480202 svgShape"/><ellipse cx="917.7" cy="951.1" fill="#462803" opacity=".115" rx="120.2" ry="292.4" transform="rotate(-76.326 917.655 951.048)" class="color460303 svgShape"/><ellipse cx="917.7" cy="951.1" fill="#442804" opacity=".154" rx="117.6" ry="286.1" transform="rotate(-76.326 917.655 951.048)" class="color440404 svgShape"/><ellipse cx="917.7" cy="951.1" fill="#422705" opacity=".192" rx="115" ry="279.8" transform="rotate(-76.326 917.655 951.048)" class="color420505 svgShape"/><ellipse cx="917.7" cy="951.1" fill="#402606" opacity=".231" rx="112.4" ry="273.5" transform="rotate(-76.326 917.655 951.048)" class="color400606 svgShape"/><ellipse cx="917.7" cy="951.1" fill="#3e2506" opacity=".269" rx="109.8" ry="267.2" transform="rotate(-76.326 917.655 951.048)" class="color3e0606 svgShape"/><ellipse cx="917.7" cy="951.1" fill="#3c2507" opacity=".308" rx="107.3" ry="260.9" transform="rotate(-76.326 917.655 951.048)" class="color3c0707 svgShape"/><ellipse cx="917.7" cy="951.1" fill="#3a2408" opacity=".346" rx="104.7" ry="254.6" transform="rotate(-76.326 917.655 951.048)" class="color3a0808 svgShape"/><ellipse cx="917.7" cy="951.1" fill="#382309" opacity=".385" rx="102.1" ry="248.3" transform="rotate(-76.326 917.655 951.048)" class="color380909 svgShape"/><ellipse cx="917.7" cy="951.1" fill="#36230a" opacity=".423" rx="99.5" ry="242" transform="rotate(-76.326 917.655 951.048)" class="color360a0a svgShape"/><ellipse cx="917.7" cy="951.1" fill="#34220b" opacity=".462" rx="96.9" ry="235.7" transform="rotate(-76.326 917.655 951.048)" class="color340b0b svgShape"/><ellipse cx="917.7" cy="951.1" fill="#33220c" opacity=".5" rx="94.3" ry="229.4" transform="rotate(-76.326 917.655 951.048)" class="color330c0c svgShape"/><ellipse cx="917.7" cy="951.1" fill="#31210d" opacity=".538" rx="91.7" ry="223.1" transform="rotate(-76.326 917.655 951.048)" class="color310d0d svgShape"/><ellipse cx="917.7" cy="951.1" fill="#2f200e" opacity=".577" rx="89.1" ry="216.7" transform="rotate(-76.326 917.655 951.048)" class="color2f0e0e svgShape"/><ellipse cx="917.7" cy="951.1" fill="#2d200f" opacity=".615" rx="86.5" ry="210.4" transform="rotate(-76.326 917.655 951.048)" class="color2d0f0f svgShape"/><ellipse cx="917.7" cy="951.1" fill="#2b1f10" opacity=".654" rx="83.9" ry="204.1" transform="rotate(-76.326 917.655 951.048)" class="color2b1010 svgShape"/><ellipse cx="917.7" cy="951.1" fill="#291e11" opacity=".692" rx="81.4" ry="197.8" transform="rotate(-76.326 917.655 951.048)" class="color291111 svgShape"/><ellipse cx="917.7" cy="951.1" fill="#271e12" opacity=".731" rx="78.8" ry="191.5" transform="rotate(-76.326 917.655 951.048)" class="color271212 svgShape"/><ellipse cx="917.7" cy="951.1" fill="#251d12" opacity=".769" rx="76.2" ry="185.2" transform="rotate(-76.326 917.655 951.048)" class="color251212 svgShape"/><ellipse cx="917.7" cy="951.1" fill="#231c13" opacity=".808" rx="73.6" ry="178.9" transform="rotate(-76.326 917.655 951.048)" class="color231313 svgShape"/><ellipse cx="917.7" cy="951.1" fill="#211b14" opacity=".846" rx="71" ry="172.6" transform="rotate(-76.326 917.656 951.048)" class="color211414 svgShape"/><ellipse cx="917.7" cy="951.1" fill="#1f1b15" opacity=".885" rx="68.4" ry="166.3" transform="rotate(-76.326 917.655 951.048)" class="color1f1515 svgShape"/><ellipse cx="917.7" cy="951.1" fill="#1d1a16" opacity=".923" rx="65.8" ry="160" transform="rotate(-76.326 917.656 951.048)" class="color1d1616 svgShape"/><ellipse cx="917.7" cy="951.1" fill="#1b1917" opacity=".962" rx="63.2" ry="153.7" transform="rotate(-76.326 917.655 951.048)" class="color1b1717 svgShape"/><ellipse cx="917.7" cy="951.1" fill="#191918" rx="60.6" ry="147.4" transform="rotate(-76.326 917.656 951.048)" class="color191818 svgShape"/></g><g opacity=".1" fill="#000000" class="color000 svgShape"><path fill="#4c2a00" d="M1623.6,1003.6c-16.7,68.7-165.7,91.4-332.7,50.8c-167-40.6-288.9-129.3-272.2-197.9     c16.7-68.7,165.7-91.4,332.7-50.8C1518.5,846.3,1640.3,934.9,1623.6,1003.6z" opacity="0" class="color4c0000 svgShape"/><path fill="#4a2a01" d="M1617.5,1002.1c-16.4,67.3-162.3,89.6-326,49.8s-283.1-126.6-266.7-193.9c16.4-67.3,162.3-89.6,326-49.8     C1514.5,848,1633.9,934.8,1617.5,1002.1z" opacity=".038" class="color4a0101 svgShape"/><ellipse cx="1321.2" cy="930" fill="#482902" opacity=".077" rx="122.8" ry="298.7" transform="rotate(-76.326 1321.133 929.94)" class="color480202 svgShape"/><ellipse cx="1321.2" cy="930" fill="#462803" opacity=".115" rx="120.2" ry="292.4" transform="rotate(-76.326 1321.133 929.94)" class="color460303 svgShape"/><ellipse cx="1321.2" cy="930" fill="#442804" opacity=".154" rx="117.6" ry="286.1" transform="rotate(-76.326 1321.133 929.94)" class="color440404 svgShape"/><ellipse cx="1321.2" cy="930" fill="#422705" opacity=".192" rx="115" ry="279.8" transform="rotate(-76.326 1321.133 929.94)" class="color420505 svgShape"/><ellipse cx="1321.2" cy="930" fill="#402606" opacity=".231" rx="112.4" ry="273.5" transform="rotate(-76.326 1321.133 929.94)" class="color400606 svgShape"/><ellipse cx="1321.2" cy="930" fill="#3e2506" opacity=".269" rx="109.8" ry="267.2" transform="rotate(-76.326 1321.133 929.94)" class="color3e0606 svgShape"/><ellipse cx="1321.2" cy="930" fill="#3c2507" opacity=".308" rx="107.3" ry="260.9" transform="rotate(-76.326 1321.133 929.94)" class="color3c0707 svgShape"/><ellipse cx="1321.2" cy="930" fill="#3a2408" opacity=".346" rx="104.7" ry="254.6" transform="rotate(-76.326 1321.133 929.94)" class="color3a0808 svgShape"/><ellipse cx="1321.2" cy="930" fill="#382309" opacity=".385" rx="102.1" ry="248.3" transform="rotate(-76.326 1321.133 929.94)" class="color380909 svgShape"/><ellipse cx="1321.2" cy="930" fill="#36230a" opacity=".423" rx="99.5" ry="242" transform="rotate(-76.326 1321.133 929.94)" class="color360a0a svgShape"/><ellipse cx="1321.2" cy="930" fill="#34220b" opacity=".462" rx="96.9" ry="235.7" transform="rotate(-76.326 1321.133 929.94)" class="color340b0b svgShape"/><ellipse cx="1321.2" cy="930" fill="#33220c" opacity=".5" rx="94.3" ry="229.4" transform="rotate(-76.326 1321.133 929.94)" class="color330c0c svgShape"/><ellipse cx="1321.2" cy="930" fill="#31210d" opacity=".538" rx="91.7" ry="223.1" transform="rotate(-76.326 1321.133 929.94)" class="color310d0d svgShape"/><ellipse cx="1321.2" cy="930" fill="#2f200e" opacity=".577" rx="89.1" ry="216.7" transform="rotate(-76.326 1321.133 929.94)" class="color2f0e0e svgShape"/><ellipse cx="1321.2" cy="930" fill="#2d200f" opacity=".615" rx="86.5" ry="210.4" transform="rotate(-76.326 1321.133 929.94)" class="color2d0f0f svgShape"/><ellipse cx="1321.2" cy="930" fill="#2b1f10" opacity=".654" rx="83.9" ry="204.1" transform="rotate(-76.326 1321.133 929.94)" class="color2b1010 svgShape"/><ellipse cx="1321.2" cy="930" fill="#291e11" opacity=".692" rx="81.4" ry="197.8" transform="rotate(-76.326 1321.133 929.94)" class="color291111 svgShape"/><ellipse cx="1321.2" cy="930" fill="#271e12" opacity=".731" rx="78.8" ry="191.5" transform="rotate(-76.326 1321.133 929.94)" class="color271212 svgShape"/><ellipse cx="1321.2" cy="930" fill="#251d12" opacity=".769" rx="76.2" ry="185.2" transform="rotate(-76.326 1321.133 929.94)" class="color251212 svgShape"/><ellipse cx="1321.2" cy="930" fill="#231c13" opacity=".808" rx="73.6" ry="178.9" transform="rotate(-76.326 1321.133 929.94)" class="color231313 svgShape"/><ellipse cx="1321.2" cy="930" fill="#211b14" opacity=".846" rx="71" ry="172.6" transform="rotate(-76.326 1321.133 929.94)" class="color211414 svgShape"/><ellipse cx="1321.2" cy="930" fill="#1f1b15" opacity=".885" rx="68.4" ry="166.3" transform="rotate(-76.326 1321.133 929.94)" class="color1f1515 svgShape"/><ellipse cx="1321.2" cy="930" fill="#1d1a16" opacity=".923" rx="65.8" ry="160" transform="rotate(-76.326 1321.133 929.94)" class="color1d1616 svgShape"/><ellipse cx="1321.2" cy="930" fill="#1b1917" opacity=".962" rx="63.2" ry="153.7" transform="rotate(-76.326 1321.133 929.94)" class="color1b1717 svgShape"/><ellipse cx="1321.2" cy="930" fill="#191918" rx="60.6" ry="147.4" transform="rotate(-76.326 1321.133 929.94)" class="color191818 svgShape"/></g><linearGradient id="am" x1="-6289.262" x2="-6409.676" y1="-2461.091" y2="-2427.011" gradientTransform="matrix(.1306 -.9913 .9914 .1307 3993.546 -5110.052)" gradientUnits="userSpaceOnUse"><stop offset="0" stop-color="#303030" class="stopColor303030 svgShape"/><stop offset="1" stop-color="#727272" class="stopColor727272 svgShape"/></linearGradient><path fill="url(#am)" d="M878.3,881.5c-0.7-0.9-1.3-1.8-1.9-2.8c-0.7-1-1.4-2.1-2-3.2c-0.4-0.7-0.9-1.5-1.3-2.2       c-0.4-0.7-0.8-1.4-1.2-2.2c-0.5-1-1.1-2-1.6-3.1c-0.3-0.6-0.6-1.2-0.8-1.8c-0.5-1.2-1.1-2.4-1.6-3.6c-0.2-0.5-0.4-1-0.6-1.5       c-0.7-1.7-1.3-3.5-1.9-5.2c-0.1-0.2-0.1-0.4-0.2-0.6c-0.5-1.6-1-3.2-1.4-4.8c-0.1-0.5-0.3-1-0.4-1.5c-0.4-1.5-0.8-3.1-1.1-4.7       c-0.1-0.3-0.1-0.6-0.2-0.9c-0.4-1.8-0.7-3.7-1-5.5c-0.1-0.5-0.2-1.1-0.2-1.6c-0.2-1.3-0.4-2.7-0.5-4c-0.1-0.7-0.1-1.5-0.2-2.2       c-0.1-1.1-0.2-2.3-0.2-3.4c0-1-0.1-1.9-0.1-2.9c0-0.9,0-1.8,0-2.7c0-1.5,0-3.1,0.1-4.6c0-0.9,0.1-1.9,0.2-2.8       c0.1-0.7,0.1-1.4,0.2-2.2c0.1-1.2,0.3-2.3,0.4-3.5c0.1-0.7,0.2-1.4,0.3-2.1c0.2-1.2,0.5-2.4,0.7-3.6c0.1-0.6,0.2-1.1,0.4-1.7       c0.4-1.7,0.9-3.4,1.4-5.1c0.5-1.6,1.1-3.1,1.7-4.5c0.2-0.4,0.3-0.7,0.5-1.1c0.4-0.8,0.7-1.5,1.1-2.2c0.5-1.1,1.1-2.1,1.7-3.1       c0.4-0.6,0.8-1.2,1.2-1.8c0.4-0.5,0.8-1.1,1.2-1.6c0.5-0.7,1.1-1.3,1.6-1.9c0.3-0.4,0.6-0.7,1-1c0.7-0.7,1.4-1.4,2.2-2       c0.2-0.1,0.3-0.3,0.5-0.5c0.9-0.7,1.9-1.4,2.9-2c0.2-0.1,0.5-0.3,0.7-0.4c0.8-0.4,1.6-0.8,2.4-1.2c0.3-0.1,0.5-0.2,0.8-0.3       c1.1-0.4,2.2-0.7,3.3-1l-281.6,58.8c-0.1,0-0.2,0-0.3,0.1c-0.9,0.2-1.7,0.4-2.5,0.7c-0.2,0.1-0.3,0.1-0.5,0.2       c-0.3,0.1-0.5,0.2-0.8,0.3c-0.4,0.2-0.8,0.3-1.2,0.5c-0.4,0.2-0.8,0.4-1.2,0.7c-0.2,0.1-0.5,0.3-0.7,0.4       c-0.1,0.1-0.3,0.1-0.4,0.2c-0.8,0.5-1.6,1-2.3,1.6c0,0-0.1,0.1-0.1,0.1c-0.2,0.1-0.3,0.3-0.5,0.5c-0.6,0.5-1.1,0.9-1.7,1.5       c-0.2,0.2-0.3,0.4-0.5,0.6c-0.3,0.3-0.6,0.7-1,1c-0.3,0.3-0.6,0.6-0.9,1c-0.2,0.3-0.5,0.7-0.7,1c-0.4,0.5-0.8,1-1.2,1.6       c-0.2,0.3-0.4,0.5-0.6,0.9c-0.2,0.3-0.4,0.7-0.5,1c-0.6,1-1.2,2-1.7,3.1c-0.2,0.4-0.4,0.7-0.6,1.1c-0.2,0.4-0.3,0.8-0.5,1.2       c-0.2,0.4-0.3,0.7-0.5,1.1c-0.6,1.4-1.2,2.9-1.7,4.5c-0.5,1.7-1,3.4-1.4,5.1c-0.1,0.6-0.2,1.1-0.4,1.7       c-0.3,1.2-0.5,2.4-0.7,3.6c-0.1,0.7-0.2,1.4-0.3,2.1c-0.2,1.2-0.3,2.3-0.4,3.5c-0.1,0.7-0.1,1.4-0.2,2.2c0,0.5-0.1,0.9-0.1,1.4       c0,0.5,0,1,0,1.5c-0.1,1.5-0.1,3-0.1,4.6c0,0.5,0,1,0,1.5c0,0.4,0,0.8,0.1,1.2c0,1,0.1,1.9,0.1,2.9c0,0.6,0,1.3,0.1,1.9       c0,0.5,0.1,1,0.1,1.5c0.1,0.7,0.1,1.4,0.2,2.2c0.1,0.5,0.1,1,0.1,1.5c0.1,0.8,0.2,1.7,0.4,2.5c0.1,0.5,0.1,1.1,0.2,1.6       c0,0.2,0.1,0.4,0.1,0.7c0.2,1.5,0.5,3.1,0.8,4.6c0,0.1,0,0.2,0.1,0.3c0.1,0.3,0.1,0.6,0.2,0.9c0.2,1.1,0.5,2.1,0.7,3.2       c0.1,0.5,0.3,1,0.4,1.5c0.1,0.5,0.3,1,0.4,1.5c0.1,0.4,0.2,0.9,0.4,1.3c0.3,1.2,0.7,2.3,1.1,3.5c0.1,0.2,0.1,0.4,0.2,0.6       c0,0.1,0,0.1,0.1,0.2c0.5,1.4,1,2.9,1.5,4.3c0.1,0.3,0.2,0.5,0.3,0.8c0.2,0.5,0.4,1,0.6,1.5c0.3,0.7,0.5,1.4,0.8,2.1       c0.2,0.5,0.5,1,0.7,1.6c0.3,0.6,0.6,1.2,0.9,1.8c0.2,0.4,0.3,0.8,0.5,1.1c0.3,0.7,0.7,1.3,1,2c0.4,0.7,0.8,1.5,1.2,2.2       c0.1,0.2,0.3,0.5,0.4,0.8c0.3,0.5,0.6,1,0.9,1.5c0.7,1.1,1.3,2.2,2,3.2c0.2,0.3,0.4,0.6,0.6,0.9c0.4,0.7,0.9,1.3,1.4,1.9       c0.3,0.4,0.7,0.9,1,1.4c1.1,1.4,2.2,2.7,3.3,4c9.9,11,20.7,15.3,30.3,13.3l281.6-58.8c-9.5,2-20.4-2.3-30.3-13.3       c-1.1-1.3-2.2-2.6-3.3-4C879,882.4,878.7,882,878.3,881.5z"/><linearGradient id="an" x1="-2910.644" x2="-2816.834" y1="284.219" y2="284.219" gradientTransform="matrix(.7454 -.6665 .6666 .7454 2844.717 -1285.093)" gradientUnits="userSpaceOnUse"><stop offset="0" stop-color="#303030" class="stopColor303030 svgShape"/><stop offset="1" stop-color="#727272" class="stopColor727272 svgShape"/></linearGradient><path fill="url(#an)" d="M863.5,795.4c9.3-28.4,33-33.5,53-11.4c19.9,22.1,28.5,63.1,19.1,91.5c-9.3,28.4-33.1,33.5-53,11.4        C862.7,864.7,854.2,823.8,863.5,795.4z"/><linearGradient id="ao" x1="-4117.757" x2="-3788.508" y1="4405.153" y2="4405.153" gradientTransform="matrix(.4426 -.3957 .3958 .4425 994.709 -2694.02)" gradientUnits="userSpaceOnUse"><stop offset="0" stop-color="#f6f6f6" class="stopColorf6f6f6 svgShape"/><stop offset="1" stop-color="#cbcbcb" class="stopColorcbcbcb svgShape"/></linearGradient><path fill="url(#ao)" d="M1063.3,827.4c-0.4-0.5-0.8-1.1-1.2-1.7c-0.4-0.6-0.8-1.3-1.2-1.9c-0.3-0.4-0.5-0.9-0.8-1.3       c-0.2-0.4-0.5-0.9-0.7-1.3c-0.3-0.6-0.6-1.2-0.9-1.8c-0.2-0.4-0.3-0.7-0.5-1.1c-0.3-0.7-0.6-1.4-0.9-2.2       c-0.1-0.3-0.2-0.6-0.4-0.9c-0.4-1-0.8-2-1.1-3.1c0-0.1-0.1-0.2-0.1-0.4c-0.3-0.9-0.6-1.9-0.9-2.9c-0.1-0.3-0.2-0.6-0.2-0.9       c-0.2-0.9-0.5-1.8-0.7-2.8c0-0.2-0.1-0.4-0.1-0.5c-0.2-1.1-0.4-2.2-0.6-3.3c-0.1-0.3-0.1-0.6-0.1-1c-0.1-0.8-0.2-1.6-0.3-2.4       c0-0.4-0.1-0.9-0.1-1.3c-0.1-0.7-0.1-1.4-0.1-2c0-0.6-0.1-1.1-0.1-1.7c0-0.5,0-1.1,0-1.6c0-0.9,0-1.8,0.1-2.7       c0-0.6,0.1-1.1,0.1-1.7c0-0.4,0.1-0.9,0.1-1.3c0.1-0.7,0.2-1.4,0.3-2.1c0.1-0.4,0.1-0.8,0.2-1.2c0.1-0.7,0.3-1.4,0.4-2.2       c0.1-0.3,0.1-0.7,0.2-1c0.3-1,0.5-2,0.9-3c0.3-0.9,0.7-1.8,1-2.7c0.1-0.2,0.2-0.4,0.3-0.7c0.2-0.5,0.4-0.9,0.7-1.3       c0.3-0.6,0.7-1.2,1-1.8c0.2-0.4,0.5-0.7,0.7-1.1c0.2-0.3,0.5-0.6,0.7-0.9c0.3-0.4,0.6-0.8,0.9-1.2c0.2-0.2,0.4-0.4,0.6-0.6       c0.4-0.4,0.9-0.8,1.3-1.2c0.1-0.1,0.2-0.2,0.3-0.3c0.6-0.4,1.1-0.8,1.7-1.2c0.1-0.1,0.3-0.2,0.4-0.2c0.5-0.3,0.9-0.5,1.4-0.7       c0.2-0.1,0.3-0.1,0.5-0.2c0.6-0.2,1.3-0.4,1.9-0.6l-167.2,34.9c-0.1,0-0.1,0-0.2,0c-0.5,0.1-1,0.3-1.5,0.4       c-0.1,0-0.2,0.1-0.3,0.1c-0.2,0.1-0.3,0.1-0.5,0.2c-0.2,0.1-0.5,0.2-0.7,0.3c-0.2,0.1-0.5,0.3-0.7,0.4       c-0.1,0.1-0.3,0.2-0.4,0.2c-0.1,0-0.2,0.1-0.2,0.1c-0.5,0.3-0.9,0.6-1.4,1c0,0-0.1,0-0.1,0.1c-0.1,0.1-0.2,0.2-0.3,0.3       c-0.3,0.3-0.7,0.6-1,0.9c-0.1,0.1-0.2,0.2-0.3,0.3c-0.2,0.2-0.4,0.4-0.6,0.6c-0.2,0.2-0.4,0.4-0.5,0.6       c-0.1,0.2-0.3,0.4-0.4,0.6c-0.2,0.3-0.5,0.6-0.7,0.9c-0.1,0.2-0.3,0.3-0.4,0.5c-0.1,0.2-0.2,0.4-0.3,0.6       c-0.4,0.6-0.7,1.2-1,1.8c-0.1,0.2-0.2,0.4-0.4,0.6c-0.1,0.2-0.2,0.5-0.3,0.7c-0.1,0.2-0.2,0.4-0.3,0.7c-0.4,0.9-0.7,1.7-1,2.7       c-0.3,1-0.6,2-0.9,3c-0.1,0.3-0.1,0.7-0.2,1c-0.2,0.7-0.3,1.4-0.4,2.2c-0.1,0.4-0.1,0.8-0.2,1.2c-0.1,0.7-0.2,1.4-0.3,2.1       c0,0.4-0.1,0.9-0.1,1.3c0,0.3-0.1,0.5-0.1,0.8c0,0.3,0,0.6,0,0.9c0,0.9-0.1,1.8-0.1,2.7c0,0.3,0,0.6,0,0.9c0,0.2,0,0.5,0,0.7       c0,0.6,0,1.1,0.1,1.7c0,0.4,0,0.7,0,1.1c0,0.3,0.1,0.6,0.1,0.9c0,0.4,0.1,0.9,0.1,1.3c0,0.3,0,0.6,0.1,0.9       c0.1,0.5,0.1,1,0.2,1.5c0,0.3,0.1,0.6,0.1,1c0,0.1,0,0.3,0.1,0.4c0.1,0.9,0.3,1.8,0.5,2.7c0,0.1,0,0.1,0,0.2       c0,0.2,0.1,0.4,0.1,0.6c0.1,0.6,0.3,1.3,0.4,1.9c0.1,0.3,0.2,0.6,0.2,0.9c0.1,0.3,0.2,0.6,0.2,0.9c0.1,0.3,0.1,0.5,0.2,0.8       c0.2,0.7,0.4,1.4,0.6,2.1c0,0.1,0.1,0.2,0.1,0.4c0,0,0,0.1,0,0.1c0.3,0.9,0.6,1.7,0.9,2.5c0.1,0.2,0.1,0.3,0.2,0.5       c0.1,0.3,0.2,0.6,0.4,0.9c0.2,0.4,0.3,0.8,0.5,1.2c0.1,0.3,0.3,0.6,0.4,0.9c0.2,0.4,0.3,0.7,0.5,1.1c0.1,0.2,0.2,0.4,0.3,0.7       c0.2,0.4,0.4,0.8,0.6,1.2c0.2,0.4,0.5,0.9,0.7,1.3c0.1,0.1,0.2,0.3,0.2,0.4c0.2,0.3,0.4,0.6,0.6,0.9c0.4,0.7,0.8,1.3,1.2,1.9       c0.1,0.2,0.2,0.4,0.3,0.5c0.3,0.4,0.5,0.7,0.8,1.1c0.2,0.3,0.4,0.5,0.6,0.8c0.6,0.8,1.3,1.6,2,2.4c5.9,6.5,12.3,9.1,18,7.9       l167.2-34.9c-5.7,1.2-12.1-1.4-18-7.9c-0.7-0.8-1.3-1.6-2-2.4C1063.6,827.9,1063.5,827.7,1063.3,827.4z"/><linearGradient id="ap" x1="-3868.641" x2="-3774.83" y1="4478.633" y2="4478.633" gradientTransform="matrix(.4426 -.3957 .3958 .4425 994.709 -2694.02)" gradientUnits="userSpaceOnUse"><stop offset="0" stop-color="#f6f6f6" class="stopColorf6f6f6 svgShape"/><stop offset="1" stop-color="#cbcbcb" class="stopColorcbcbcb svgShape"/></linearGradient><path fill="url(#ap)" d="M1054.5,776.2c5.5-16.9,19.6-19.9,31.4-6.8c11.8,13.1,16.9,37.5,11.4,54.3        c-5.5,16.9-19.6,19.9-31.4,6.8C1054,817.4,1048.9,793.1,1054.5,776.2z"/><linearGradient id="aq" x1="1532.453" x2="2062.009" y1="-472.722" y2="-472.722" gradientTransform="matrix(.943 .1451 -.2333 .9724 -465.888 956.917)" gradientUnits="userSpaceOnUse"><stop offset="0" stop-color="#bebebe" class="stopColorbebebe svgShape"/><stop offset="1" stop-color="#727272" class="stopColor727272 svgShape"/></linearGradient><path fill="url(#aq)" d="M1592.4,778.9c24.6-145.8-68.8-273.3-208.7-284.8c-139.8-11.5-273.1,97.3-297.7,243.1     c-24.6,145.8,68.8,273.3,208.7,284.8C1434.5,1033.4,1567.8,924.6,1592.4,778.9z M1302,978.2c-116.7-9.6-194.7-116-174.1-237.6     c20.5-121.6,131.8-212.4,248.5-202.8c116.7,9.6,194.7,116,174.1,237.6C1530,897,1418.7,987.8,1302,978.2z"/><linearGradient id="ar" x1="1371.17" x2="1874.687" y1="-719.361" y2="-719.361" gradientTransform="rotate(13.493 -4663.447 -1308.603)" gradientUnits="userSpaceOnUse"><stop offset="0" stop-color="#f6f6f6" class="stopColorf6f6f6 svgShape"/><stop offset="1" stop-color="#cbcbcb" class="stopColorcbcbcb svgShape"/></linearGradient><path fill="url(#ar)" d="M1565.2,751.8c24.6-145.8-68.9-273.3-208.7-284.8c-139.8-11.5-273.1,97.3-297.7,243.1     c-24.6,145.8,68.8,273.2,208.7,284.8C1407.3,1006.4,1540.6,897.6,1565.2,751.8z M1100.7,713.6     c20.5-121.6,131.8-212.4,248.5-202.8c24.6,2,47.4,8.3,68,18.2c77.2,36.9,122.3,123.4,106.1,219.4     c-20.5,121.6-131.8,212.4-248.5,202.8c-18.1-1.5-35.3-5.3-51.3-11.2C1136.3,908.2,1083.3,816.3,1100.7,713.6z"/><g opacity=".5" fill="#000000" class="color000 svgShape"><linearGradient id="as" x1="1409.251" x2="1702.627" y1="-726.327" y2="-726.327" gradientTransform="rotate(13.493 -4663.447 -1308.603)" gradientUnits="userSpaceOnUse"><stop offset="0" stop-color="#f6f6f6" class="stopColorf6f6f6 svgShape"/><stop offset="1" stop-color="#ffffff" class="stopColorfff svgShape"/></linearGradient><path fill="url(#as)" d="M1345.9,508.6c-116.7-9.6-227.9,81.2-248.5,202.8c-14.6,86.4,20.5,165,83.9,206.8      c-61.3-42.3-95-119.8-80.7-204.7c20.5-121.6,131.8-212.4,248.5-202.8c33.8,2.8,64.4,13.7,90.3,30.8      C1412.8,523.2,1381.2,511.5,1345.9,508.6z"/><linearGradient id="at" x1="1523.396" x2="1874.678" y1="-712.552" y2="-712.552" gradientTransform="rotate(13.493 -4663.447 -1308.603)" gradientUnits="userSpaceOnUse"><stop offset="0" stop-color="#f6f6f6" class="stopColorf6f6f6 svgShape"/><stop offset="1" stop-color="#ffffff" class="stopColorfff svgShape"/></linearGradient><path fill="url(#at)" d="M1565.2,751.8c17.4-103.3-24.5-197.5-100.1-247.6c73.7,50.7,114.2,143.6,97,245.5      c-24.6,145.8-157.9,254.6-297.7,243.1c-40.7-3.3-77.5-16.5-108.5-37.1c31.7,21.8,69.6,35.8,111.7,39.3      C1407.3,1006.4,1540.6,897.6,1565.2,751.8z"/></g></g></svg>