<svg xmlns="http://www.w3.org/2000/svg" enable-background="new 0 0 4000 4000" viewBox="0 0 4000 4000"><switch><g><path fill="#f5d6c4" d="M3053.488,1538.456c0,0-125.41-1177.79-839.186-1229.399     c-713.784-51.606-1376.513,413.147-1118.038,937.531c335.016,679.675-327.408,1051.59,86.012,1476.122     C1609.235,3161.145,3759.538,2989.552,3053.488,1538.456" class="colorC4F0F5 svgShape"/><path fill="#110c07" d="M3054.115 3511.248c0 3.555-2.891 6.446-6.452 6.446h-850.086c-3.562 0-6.446-2.892-6.446-6.446 0-3.568 2.885-6.459 6.446-6.459h850.086C3051.225 3504.789 3054.115 3507.68 3054.115 3511.248zM1614.381 3504.789c0 3.567-1.667 6.459-3.725 6.459h-490.763c-2.057 0-3.724-2.892-3.724-6.459s1.667-6.447 3.724-6.447h490.763C1612.714 3498.342 1614.381 3501.222 1614.381 3504.789zM1736.464 3564.702c0 3.566-1.669 6.459-3.728 6.459h-490.763c-2.057 0-3.724-2.893-3.724-6.459 0-3.568 1.667-6.447 3.724-6.447h490.763C1734.794 3558.255 1736.464 3561.134 1736.464 3564.702zM2158.665 3524.153c0 3.555-1.661 6.445-3.728 6.445h-490.762c-2.058 0-3.725-2.891-3.725-6.445 0-3.58 1.667-6.459 3.725-6.459h490.762C2157.004 3517.694 2158.665 3520.573 2158.665 3524.153zM2671.245 3571.148c0 3.567-1.666 6.458-3.727 6.458h-490.756c-2.067 0-3.734-2.891-3.734-6.458 0-3.568 1.667-6.446 3.734-6.446h490.756C2669.579 3564.702 2671.245 3567.58 2671.245 3571.148z" class="color071111 svgShape"/><path fill="#fff9f6" d="M1698.853,1125.403c-50.329-24.057-109.322-6.2-122.126-0.516     c-44.756-13.164-93.037-49.53-140.067-96.242c33.764,9.304,113.576,29.795,145.027,25.022     c19.075-2.891,26.623-13.164,32.684-21.418c7.087-9.651,11.377-15.47,30.699-7.649l0.676,0.341l0.943-0.203     c2.039,0.976,4.78,12.614-0.498,23.991c-5.009,10.801-19.794,26.056-62.619,6.803l-2.583,5.745     c15.673,7.043,28.049,9.719,37.812,9.719c13.695,0,22.24-5.259,27.499-11.079c10.664-11.797,11.051-29.712,6.634-37.361     c-2.017-3.491-4.438-4.012-6.225-4.082c-23.308-9.186-30.159,0.166-37.415,10.045c-5.654,7.698-12.06,16.423-28.548,18.925     c-33.936,5.13-130.996-21.591-153.08-27.865c-57.929-59.332-113.465-133.235-157.575-197.559     c29.778,8.347,117.147,31.562,150.401,26.511c19.074-2.887,26.622-13.164,32.684-21.418c7.086-9.651,11.376-15.47,30.697-7.649     l0.676,0.342l0.945-0.203c2.04,0.975,4.78,12.613-0.498,23.989c-5.011,10.801-19.794,26.056-62.62,6.804l-2.583,5.744     c15.674,7.047,28.05,9.72,37.812,9.72c13.697,0,22.24-5.263,27.5-11.082c10.663-11.795,11.05-29.71,6.634-37.359     c-2.018-3.491-4.439-4.01-6.226-4.081c-23.307-9.187-30.159,0.166-37.415,10.044c-5.653,7.699-12.059,16.425-28.547,18.925     c-35.053,5.302-137.456-23.384-155.011-28.419c-52.719-77.588-87.788-139.288-88.673-140.859l-5.487,3.094     c6.06,10.737,101.551,178.714,215.878,308.717c-3.159,18.131-25.903,152.651-13.875,197.759     c6.035,22.637,19.472,30.387,30.267,36.612c12.607,7.27,20.933,12.069,13.834,37.313l-0.261,0.923l0.308,0.922     c0.083,0.252-0.357,0.911-1.335,1.631c-5.721,4.201-24.417,6.914-38.291-3.088c-11.512-8.299-22.234-27.491-7.933-71.792     l-5.991-1.944c-15.47,47.918-2.971,69.325,10.239,78.847c7.951,5.732,17.666,7.996,26.352,7.996     c8.107,0,15.316-1.974,19.354-4.945c3.798-2.793,4.112-5.795,3.835-7.615c8-29.305-4.127-36.305-16.962-43.704     c-10.297-5.937-21.969-12.672-27.333-32.781c-10.755-40.339,8.139-160.079,13.151-190.076c9.9,11.094,19.93,21.887,30.049,32.248     l-0.341,1.16c0.295,0.086,1.009,0.295,2.054,0.599c50.698,51.622,103.5,92.299,152.744,106.368l1.178,0.337l1.095-0.547     c0.572-0.283,62.958-26.161,117.738,0.024c11.801,5.642,19.072,13.324,19.45,20.557c0.305,5.795-3.838,9.597-7.365,11.762     c-17.283,10.617-61.602,9.116-129.662-30.018l-3.138,5.462c46.614,26.807,82.563,36.521,107.237,36.521     c12.573,0,22.225-2.528,28.859-6.601c7.043-4.324,10.721-10.525,10.358-17.451     C1721.363,1141.6,1712.972,1132.157,1698.853,1125.403z" class="colorFFF8F6 svgShape"/><path fill="#fffcfa" d="M2529.122,420.407l-1.375,0.008c0.484,0.335,0.902,0.626,1.385,0.962     C2529.126,420.836,2529.123,420.51,2529.122,420.407" class="colorFFFBFA svgShape"/><path fill="#f6e9e2" d="M2527.747,420.416l-4.924,0.031c0.08,12.328,1.999,205.541,38.813,374.704     c-11.558,14.316-96.765,120.869-108.144,166.144c-5.728,22.717,2.264,36.016,8.679,46.7c7.492,12.481,12.438,20.718-6.028,39.334     l-0.676,0.687l-0.179,0.95c-0.049,0.265-0.757,0.624-1.956,0.778c-0.413,0.053-0.864,0.08-1.347,0.08     c-7.73,0-23.783-6.798-30.633-21.372c-6.028-12.84-6.085-34.825,27.926-66.613l-4.293-4.603     c-36.791,34.376-36.257,59.16-29.329,73.898c4.164,8.869,11.557,15.568,19.154,19.785c6.141,3.411,12.413,5.201,17.211,5.201     c0.738,0,1.441-0.042,2.104-0.127c4.682-0.59,6.41-3.076,7.056-4.797c21.223-21.733,14.013-33.736,6.392-46.439     c-6.121-10.193-13.059-21.748-7.984-41.93c10.192-40.487,84.85-135.987,103.796-159.778c3.267,14.506,6.792,28.81,10.61,42.782     l-0.861,0.849c0.215,0.218,0.738,0.748,1.508,1.519c19.253,69.743,45.66,130.944,81.879,167.16l0.867,0.86l1.217,0.056     c0.641,0.028,67.744,7.698,102.924,57.188c7.572,10.666,10.198,20.914,7.018,27.421c-2.553,5.21-8.016,6.521-12.149,6.7     c-0.375,0.016-0.759,0.024-1.146,0.024c-20.532,0-57.88-23.21-97.631-89.224l-5.395,3.251     c27.73,46.07,54.439,72.016,76.012,83.998c10.328,5.734,19.484,8.274,27.002,8.274c0.482,0,0.959-0.01,1.429-0.031     c8.261-0.363,14.486-3.999,17.53-10.223c4.275-8.748,1.526-21.08-7.534-33.832c-32.319-45.473-92.563-58.51-106.515-59.752     c-32.731-33.242-57.287-88.479-75.715-152.151c24.998,24.528,84.818,81.199,114.634,92.295     c6.209,2.315,11.653,3.208,16.503,3.208c9.265,0,16.358-3.255,22.471-6.058c4.735-2.175,8.655-3.973,12.65-3.973     c5.186,0,10.499,3.027,17.896,12.188l0.424,0.626l0.93,0.284c1.304,1.842-1.956,13.345-12.094,20.727     c-3.7,2.697-8.989,5.268-15.691,5.268c-10.723,0-25.068-6.573-42.352-29.726l-5.05,3.768c10.278,13.77,19.8,22.116,28.345,26.858     c7.086,3.937,13.49,5.385,19.075,5.385c3.85,0,7.311-0.688,10.34-1.722c15.052-5.13,24.083-20.609,23.935-29.439     c-0.067-4.032-1.925-5.659-3.457-6.591c-8.727-10.614-15.836-13.944-22.316-13.944c-5.331,0-10.236,2.254-15.268,4.561     c-5.697,2.616-11.894,5.462-19.9,5.462c-4.189,0-8.876-0.78-14.246-2.78c-32.157-11.993-104.028-82.482-120.293-98.691     c-21.823-79.994-34.494-171.568-41.821-249.22c21.978,21.757,87.083,84.475,118.602,96.206     c6.214,2.316,11.661,3.208,16.512,3.208c9.267,0,16.355-3.255,22.469-6.06c4.731-2.174,8.651-3.971,12.647-3.971     c5.188,0,10.506,3.027,17.899,12.187l0.425,0.626l0.928,0.282c1.311,1.846-1.949,13.35-12.086,20.73     c-3.703,2.697-8.992,5.268-15.695,5.268c-10.723,0-25.066-6.575-42.349-29.725l-5.05,3.768     c10.279,13.77,19.801,22.116,28.333,26.856c7.087,3.937,13.496,5.386,19.084,5.386c3.851,0,7.311-0.688,10.337-1.723     c15.053-5.13,24.088-20.604,23.94-29.437c-0.067-4.033-1.931-5.659-3.456-6.592c-8.732-10.614-15.846-13.945-22.328-13.946     c-5.332,0-10.235,2.252-15.263,4.56c-5.693,2.619-11.891,5.463-19.896,5.463c-4.19,0-8.876-0.779-14.243-2.778     c-33.222-12.384-108.809-87.184-121.713-100.111c-7.937-88.113-9.007-156.247-9.113-165.225     C2528.649,421.042,2528.231,420.751,2527.747,420.416" class="colorE2F4F6 svgShape"/><path fill="#fffcfa" d="M3052.955,1533.781c0.011,0.092,0.022,0.187,0.032,0.276l0.009-0.275L3052.955,1533.781" class="colorFFFBFA svgShape"/><path fill="#f6e9e2" d="M2987.831,1955.051l-292.436-8.956l-60.768-175.801l292.428,8.956L2987.831,1955.051 M2924.854,1772.877     l-292.435-8.956l-82.704-239.242l292.429,8.95L2924.854,1772.877 M2808.966,1418.361l-5.955,2.066l36.932,106.834l-292.428-8.956     l-30.074-86.99l-5.955,2.055l29.287,84.728l-172.105-5.273l-0.195,6.299l174.503,5.346l82.709,239.242l-189.433-5.794     l-0.197,6.298l191.832,5.869l60.774,175.802l-234.983-7.197l-0.195,6.299l237.381,7.271l44.313,128.18l5.954-2.056     l-43.532-125.915l292.435,8.957l36.668,106.07l5.954-2.054l-35.887-103.808l141.042,4.317l0.196-6.299l-143.44-4.392     l-60.773-175.801l186.592,5.707l0.195-6.299l-188.989-5.781l-82.709-239.248l203.919,6.243l0.188-6.024     c-0.01-0.09-0.021-0.185-0.032-0.276l-206.276-6.315L2808.966,1418.361" class="colorE2F4F6 svgShape"/><path fill="#fffcfa" d="M1096.707,2119.659l-0.107,3.416c0.35-1.138,0.691-2.249,1.042-3.388L1096.707,2119.659" class="colorFFFBFA svgShape"/><path fill="#f6e9e2" d="M1767.017,2140.192c1.443,1.511,2.381,2.362,3.391,2.362c0.817,0,1.681-0.557,2.896-1.773     c0.123-0.124,0.249-0.252,0.378-0.385L1767.017,2140.192 M1715.87,2561.881l-292.435-8.956l-60.768-175.801l292.429,8.956     L1715.87,2561.881 M1652.895,2379.707l-292.436-8.956l-82.702-239.246l292.428,8.956L1652.895,2379.707 M1537.005,2025.2     l-5.954,2.053l36.932,106.836l-292.43-8.956l-30.072-86.991l-5.955,2.067l29.286,84.728l-171.169-5.249     c-0.351,1.139-0.693,2.25-1.042,3.388l-0.09,2.882l174.504,5.353l82.709,239.244l-189.433-5.807l-0.197,6.299l191.832,5.881     l60.773,175.802l-234.982-7.196l-0.198,6.298l237.382,7.271l44.313,128.179l5.954-2.055l-43.531-125.928l292.433,8.956     l36.668,106.071l5.955-2.054l-35.886-103.808l119.818,3.668c-0.614-2.135-1.223-4.253-1.829-6.361l-120.191-3.68l-60.775-175.803     l127.369,3.905c0-0.002,0-0.003-0.001-0.005c-0.328-1.971-0.677-4.09-1.04-6.332l-128.53-3.94l-82.709-239.245l84.832,2.6     c-1.901-2.12-3.817-4.281-5.747-6.481l-81.288-2.491L1537.005,2025.2" class="colorE2F4F6 svgShape"/><path fill="#f5d6c4" d="M915.212 1302.841c0 122.514-99.32 221.837-221.834 221.837-122.517 0-221.837-99.323-221.837-221.837 0-122.52 99.321-221.837 221.837-221.837C815.892 1081.004 915.212 1180.321 915.212 1302.841zM914.523 1862.673c0 69.951-56.711 126.665-126.663 126.665-69.955 0-126.666-56.714-126.666-126.665 0-69.952 56.71-126.666 126.666-126.666C857.813 1736.007 914.523 1792.721 914.523 1862.673zM3264.672 673.028c0 69.954-56.714 126.663-126.666 126.663s-126.665-56.708-126.665-126.663c0-69.955 56.713-126.666 126.665-126.666S3264.672 603.073 3264.672 673.028zM2891.706 420.407c0 44.445-36.034 80.474-80.478 80.474-44.442 0-80.476-36.028-80.476-80.474 0-44.446 36.033-80.476 80.476-80.476C2855.672 339.931 2891.706 375.961 2891.706 420.407z" class="colorC4F0F5 svgShape"/><path fill="#88725a" d="M2173.273,1297.773l-9.441,0.54c0,0-24.026,150.509-9.337,220.928     c6.172,29.588,8.742,49.517,10.401,62.508c0.774-0.708,1.366-1.216,1.759-1.5c2.372-1.714,16.682-13.446,35.084-26.887     c-9.802-21.193-31.682-71.132-32.66-96.53C2168.027,1429.543,2173.273,1297.773,2173.273,1297.773" class="color5A7688 svgShape"/><path fill="#54391c" d="M2098.739 1103.05c0 0-45.137-33.593-40.941-48.288 4.2-14.701 33.068-61.515 74.018-40.518 40.942 20.998 25.188 21.619 39.891 35.265 14.701 13.644 18.367 17.322 25.718 37.264 7.351 19.948 10.733 44.621 23.332 66.667 12.597 22.045 18.657 64.033 22.857 90.281 4.201 26.248 59.07 166.888 75.869 206.785 16.799 39.897 84.099 126.002 92.496 136.508 8.396 10.494 30.412 72.152-9.11 115.665-12.542 13.804-51.892 33.327-83.386 33.327s-94.766-79.707-115.761-94.409c-20.993-14.701-31.486-29.399-41.987-83.985-10.499-54.586-14.694-75.585-12.597-104.976 2.098-29.397 7.351-105.604 8.396-116.32 1.046-10.703 0-35.898 6.299-38.002 6.299-2.104 21 3.15 25.195-8.402 4.195-11.541 21-52.483 18.897-68.23-2.105-15.747-1.046-31.5-9.449-29.403-8.402 2.104-18.896 19.949-25.195 22.046-6.299 2.104-11.546 5.253-19.947-5.241-8.403-10.507-8.403-30.448-21.002-45.15C2119.739 1149.246 2082.993 1125.096 2098.739 1103.05zM2306.965 2142.479c1.488 7.123-7.167-23.006-9.86-28.001-2.35-4.367-27.287-36.833-30.394-46.651-8.261 7.1-36.027 21.715-48.292 26.77-15.017 6.189-25.043 12.033-37.265 24.668-8.139 8.402-24.181 11.135-46.19 11.552-3.009.058-6.402-.002-9.773-.063-4.674-.083-9.304-.166-12.801.063-12.764.825-27.638 3.457-43.041 7.874-13.605 3.9-24.438 7.442-35.693 8.918-2.83.369-7.808.53-10.502.53-12.867 0-21.48-1.538-32.539-5.253-6.977-2.338-16.029-5.758-22.575-6.828-10.604-1.734-24.618-.689-37.265 0-9.639.541-19.757 1.242-26.77.529-15.636-1.575-29.414-3.74-53.018-25.195-9.781-8.896-18.392-21.124-26.775-22.575-11.412 20.495-36.786 59.335-47.876 83.46-19.536 42.518 3.789 51.965 1.163 72.436-2.62 20.473 0 33.07 0 51.967 0 18.896 7.505 68.314 11.7 93.51 4.193 25.195 13.63 57.662 30.294 99.662 11.62 29.268 39.891 140.666 58.787 191.057 18.897 50.392 87.139 203.643 94.482 219.39 7.351 15.747 5.253 21 4.202 48.3-1.052 27.286-1.052 109.195-4.202 144.885-3.148 35.701 7.351 54.6 14.701 86.094 7.352 31.492 16.794 64.033 17.845 91.332 1.054 27.3-6.298 60.885 32.546 67.184 38.846 6.299 57.736 21.001 82.932 37.793 25.201 16.793 64.04 40.942 82.936 28.346 18.897-12.598 32.283-57.157 22.835-78.158-9.448-20.988-37.529-121.302-38.581-140.199-1.051-18.896-7.345-32.551 0-51.448 7.345-18.896 39.367-91.333 45.667-118.104 6.298-26.769 29.919-111.804 36.219-140.149 6.298-28.344 14.172-102.355 15.747-176.367 1.573-74.012 22.045-212.045 25.195-228.85 3.148-16.793 21.468-90.816 24.616-131.759 3.15-40.942-20.415-139.116-24.616-179.001C2310.2 2154.486 2308.812 2148.508 2306.965 2142.479" class="color1C3054 svgShape"/><path fill="#f27a37" d="M2378.836 1637.401c-8.606-22.041-61.733-104.979-83.779-124.926-22.046-19.95-121.776 62.988-128.401 67.773-6.625 4.792-69.828 73.283-109.129 86.544-39.307 13.263-106.81-36.733-106.81-36.733-75.057-135.953-183.188-136.481-210.192-120.673-27.005 15.803-54.881 37.731-89.525 81.823-34.644 44.089-132.276 162.191-148.023 187.388-15.748 25.196-25.195 80.311-20.472 105.506 4.724 25.195 26.771 15.747 42.517 15.747 15.747 0 51.966 7.873 75.587 11.023 23.621 3.149 20.47-4.725 12.597-15.748-7.874-11.022-3.148-25.194 0-29.92 3.15-4.723 59.839-66.139 84.287-88.183 24.448-22.046 76.333-28.345 85.782 4.724 9.449 33.07 11.023 111.805 11.023 135.425 0 23.621 35.093 112.925 35.093 144.419 0 11.343-4.393 23.387-10.875 36.121 8.267 2.681 18.479 7.725 28.837 17.148 22.2 20.188 41.847 24.469 56.48 25.945 6.489.628 15.34.148 24.715-.356 12.389-.688 26.438-1.477 37.757.381 7.062 1.145 13.896 3.445 21.129 5.869 12.666 4.256 25.768 8.647 40.641 6.705 10.766-1.402 23.388-5.021 36.754-8.847 15.741-4.514 32.017-9.189 45.476-10.063 6.184-.406 13.029-.529 20.281-.664 18.748-.357 42.081-.8 48.367-7.284 12.855-13.286 26.229-22.526 42.092-29.069 17.143-7.063 42.85-21.604 48.029-26.426-1.451-2.019-2.362-3.225-2.362-3.225s-2.54-18.439-3.543-25.724c-3.543-25.725-10.106-20.581-15.354-59.321-1.519-11.196 12.599-44.08 18.896-61.932 6.3-17.851-1.052-59.838-3.149-76.632-2.098-16.805 10.5-25.195 10.5-11.735 0 13.471 4.195 32.723 4.195 54.77 0 22.046-3.149 45.15-4.195 60.897-1.045 15.747 5.247 61.93 5.247 86.081 0 13.568 1.987 39.403 5.223 60.365l-.099-.17c1.077 4.576 2.283 8.426 3.537 10.137 3.783 5.154 13.601 23.178 17.586 33.512-1.07-3.125-2.227-6.25-3.506-9.351 25.091 4.158 96.211 6.065 91.69-8.415-5.247-16.792 3.672-199.987 8.396-267.7C2406.86 1784.896 2387.44 1659.449 2378.836 1637.401M2129.711 3377.459c0 0 27.005-8.611 36.748 15.747 9.743 24.371 20.674 70.283 36.501 70.283 15.84 0 47.512-14.615 47.512-14.615s40.199 29.243 32.885 60.91c-3.654 23.141-3.654 23.141-3.654 23.141l-72.64 3.654-34.539-62.128-25.588-3.654-1.226 65.782h-15.826C2129.884 3536.579 2095.591 3429.842 2129.711 3377.459z" class="colorF27637 svgShape"/><path fill="#ffb58a" d="M2097.288 3387.584l-60.484 89.401c0 0-89.833 56.456-76.373-14.677 13.305-26.573 74.472-136.237 74.472-136.237s71.576 5.241 63.8 56.334M2195.843 3325.419l55.121 133.457c0 0-18.337 72.732-69.761 21.787-14.578-25.896-71.244-137.959-71.244-137.959s44.388-56.395 82.39-21.357M1964.312 1610.149c0 0-18.688-170.966-22.951-188.774-4.262-17.814-64.298-138.809-34.821-242.739 29.483-103.932 109.792-152.748 179.081-108.655 20.471 17.322 59.838 96.057 69.286 105.505 9.448 9.448 23.622 3.15 34.644 6.298 11.023 3.15 39.935 6.299 28.628 53.541-11.306 47.241-28.628 75.641-44.374 83.459-10.586 5.253-22.483 98.063-18.897 154.321 1.753 27.429 137.572 37.658 140.156 44.879 7.873 22.046-114.961 59.052-114.961 59.052s-90.28 111.765-154.321 96.055C1961.74 1657.394 1953.239 1647.982 1964.312 1610.149z" class="colorE8AE71 svgShape"/><path fill="#33210e" d="M2172.229,3102.93c1.796-6.04,0-203.666,0-239.355s-6.299-66.138-15.747-102.356     s-28.344-158.259-33.069-172.431c-4.724-14.173-10.235-49.604-14.959-75.586c-4.726-25.983-16.534-42.518-16.534-42.518     s-7.087,10.235,0,30.706c7.086,20.473,21.258,105.507,25.982,128.34c4.724,22.833,22.138,88.971,22.488,111.804     c0.345,22.834,8.218,74.799,12.943,100.782c4.723,25.982,5.511,225.184,6.298,240.143     C2160.419,3097.419,2163.567,3132.063,2172.229,3102.93z" class="color0E1D33 svgShape"/><path fill="#624322" d="M1920.275,1332.958c0,0,22.046,92.907,36.218,151.172c14.172,58.266,11.023,231.479-18.109,278.721     c-29.132,47.241-73.636,87.507-144.085,61.413c-85.035-31.494-106.038-74.798-93.44-155.108     c12.597-80.308,30.451-139.359,54.072-197.623c23.621-58.264,67.713-184.241,67.713-237.781     c0-53.54,48.816-165.345,78.735-196.838c29.92-31.495,130.701-74.013,155.896-66.14c25.195,7.875,59.84,15.748,58.264,39.369     c-1.574,23.621-33.068,56.69-56.688,56.69s-53.541-9.449-72.437,0C1967.517,1076.28,1876.988,1123.472,1920.275,1332.958" class="color223762 svgShape"/><path fill="#f27a37" d="M1961.899,3453.536c0,0,45.385,23.83,56.727,10.704c11.355-13.127,29.668-60.134,47.5-69.853     c17.827-9.731,24.605-23.597,33.58-1.194s12.123,84.985,4.299,120.712c-0.252,18.194-6.439,22.956-6.439,22.956l-11.805,0.419     l-7.972-45.162c0,0,9.51-39.122-2.972-32.455c-12.486,6.655-46.238,54.217-54.604,74.492     c-3.567,1.956-108.729,9.337-108.729,9.337l-6.188-20.681C1905.297,3522.812,1863.253,3490.69,1961.899,3453.536z" class="colorF27637 svgShape"/><path fill="#ffb58a" d="M1610.583 1907.208c0 0 141.72 219.4 150.12 226.758 8.4 7.345 8.396 11.022 12.601 6.815 4.195-4.194 11.539-14.173 12.597-20.472 1.047-6.298 1.575-20.987 9.971-25.713 8.397-4.723 14.697-7.355 26.771-2.632 12.075 4.726 22.046 7.886 22.046 15.231 0 7.344 2.096 10.494-5.777 11.021-7.873.518-10.494-2.62-18.367-3.148-7.874-.529-10.494-2.104-9.977 3.666.528 5.783-1.575 6.299 11.022 14.172 12.599 7.874 51.965 30.449 45.667 37.277-6.298 6.815-3.672 13.113-16.27 10.493s-19.418-6.828-19.418-6.828 26.769 12.081 19.942 19.955c-6.822 7.873-17.322 8.92-27.294 5.239-9.971-3.664-18.374-5.768-20.472-5.768-2.096 0-4.729 1.451-.522 7.812 4.195 6.36 16.265 14.233 17.322 17.912 1.045 3.667 5.241 9.448-4.723 11.023-9.979 1.575-19.426 1.045-26.249-3.15-6.821-4.206-12.604-4.343-17.848-4.009-5.246.331-15.225 9.841-28.345 7.971-13.12-1.869-22.046-10.789-26.244-17.088-4.199-6.299-8.396-20.471-21.521-35.172-13.124-14.689-100.781-118.092-110.229-129.644-9.448-11.553-85.035-132.275-91.333-141.724-6.3-9.461-8.4-18.896-5.25-24.15C1491.954 1877.806 1576.99 1870.46 1610.583 1907.208M2294.269 2119.522c0 0 11.811 82.18 11.811 111.559s18.109 99.453 18.109 114.413 4.988 110.759 0 125.46c-4.988 14.689-15.482 24.138-21.782 51.436-6.3 27.301-4.724 76.633-8.138 85.035-3.414 8.403-2.369 16.793-6.563 28.346-4.195 11.551-9.443 10.492-7.346 22.045s14.696 7.346 14.696 7.346-16.794 12.598-5.247 15.746c11.546 3.149 25.945 12.598 36.592 0 10.648-12.598 19.045-19.941 31.643-37.793 12.598-17.838 26.241-18.896 30.443-38.84 4.201-19.94-2.104-51.436 0-70.331 2.104-18.897 2.952-79.794 1.477-109.185-1.477-29.391 1.912-246.714.743-258.253-1.169-11.552 3.026-51.437-5.369-55.644C2376.941 2106.667 2305.027 2087.241 2294.269 2119.522" class="colorE8AE71 svgShape"/><path fill="#c77445" d="M2318.154,2643.644c0.142-1.563,2.104-19.426,3.148-29.391c1.046-9.979,5.771-24.15,8.396-28.346     c2.627-4.193,6.194-5.769,5.721,8.92c-0.474,14.702,1.624,37.793-3.623,48.816c-5.246,11.022-11.017,23.621-18.367,25.195     c-7.351,1.575-11.552-2.104-10.5-4.195C2303.981,2662.54,2317.828,2647.334,2318.154,2643.644z" class="colorC78845 svgShape"/><path fill="#e1783d" d="M1500.946,1879.157c-1.917,0.041-3.486,0.559-4.786,1.389c1.809-0.326,3.906-0.629,6.25-0.889     c-0.09-0.039-0.625-0.26-1.445-0.5C1500.958,1879.157,1500.952,1879.157,1500.946,1879.157" class="colorE17D3D svgShape"/><path fill="#c6b7af" d="M1487.724,1895.994c4.198,15.71,42.197,75.9,87.791,138.686c-23.249-35.093-76.231-119.628-81.46-127.472     c-2.267-3.403-3.989-6.805-5.12-10.008C1488.517,1896.827,1488.113,1896.427,1487.724,1895.994" class="colorC5C6AF svgShape"/><path fill="#e1783d" d="M1488.361,1895.418c-0.197,0.283-0.407,0.472-0.641,0.545c-0.002-0.003-0.004-0.004-0.007-0.007     c0.003,0.013,0.007,0.025,0.01,0.038c0.389,0.433,0.792,0.833,1.21,1.206C1488.723,1896.599,1488.531,1896.005,1488.361,1895.418     " class="colorE17D3D svgShape"/><path fill="#c6b7af" d="M1661.752,2143.271c10.822,12.07,21.155,22.809,30.639,31.639c0.003,0.002,0.006,0.005,0.009,0.008     c-5.578-6.4-15.465-17.936-27.066-31.537L1661.752,2143.271 M1590.766,2055.39c21.602,28.922,44.197,57.412,65.239,81.399     l3.809,0.117C1634.628,2107.343,1603.742,2070.867,1590.766,2055.39" class="colorC5C6AF svgShape"/><path fill="#d7beaf" d="M1656.005,2136.789c1.929,2.2,3.846,4.361,5.747,6.481l3.582,0.109c-1.8-2.11-3.646-4.275-5.519-6.474     L1656.005,2136.789" class="colorD7C9AF svgShape"/><path fill="#db8d5f" d="M1502.41,1879.657c-2.343,0.26-4.441,0.563-6.25,0.889c-5.459,3.49-6.15,12.5-7.799,14.872     c0.17,0.587,0.361,1.181,0.573,1.782c1.131,3.203,2.854,6.604,5.12,10.008c5.229,7.844,58.211,92.379,81.46,127.472     c5,6.885,10.104,13.818,15.251,20.71c12.976,15.478,43.862,51.953,69.048,81.517c1.874,2.198,3.719,4.363,5.519,6.474     c11.601,13.602,21.489,25.137,27.066,31.537c2.531,2.293,39.691,12.328,34.973,19.404c-4.725,7.086-11.457,17.359-11.457,17.359     s15.851,2.99,26.644,2.99c2.718,0,5.117-0.19,6.859-0.665c8.66-2.362,13.384-14.173,15.746-28.345     c2.363-14.173,10.237-16.535,14.173-25.983c3.938-9.448,3.149-10.235,0-14.172c-1.05-1.313-2.974-1.75-5.074-1.75     c-4.199,0-9.099,1.75-9.099,1.75c-3.486,2.024-11.358,3.471-21.077,3.471c-12.959,0-29.2-2.571-42.697-9.77     c-23.621-12.599-74.012-75.586-96.059-100.78c-22.045-25.196-102.909-158.764-102.909-158.764     S1502.419,1879.661,1502.41,1879.657" class="colorDB9F5F svgShape"/><path fill="#e1783d" d="M2326.67,2100.998c-5.743,0-15.774,1.013-23.718,7.168c7.167-4.913,17.434-6.776,28.322-6.919     c0-0.004,0-0.006,0-0.006S2329.488,2100.998,2326.67,2100.998" class="colorE17D3D svgShape"/><path fill="#5e5041" d="M2319.725,2316.894c0.01,0.053,0.019,0.105,0.028,0.158c3.648,20.758,5.472,62.646,5.881,75.144     c-0.64-21.616-1.445-40.688-1.445-46.701C2324.188,2340.651,2322.291,2330.034,2319.725,2316.894 M2305.761,2221.046     c0.021,0.506,0.049,1.03,0.081,1.573C2305.816,2222.102,2305.789,2221.578,2305.761,2221.046 M2294.269,2119.522     c0,0,9.246,70.454,11.195,96.703C2303.039,2180.551,2294.269,2119.522,2294.269,2119.522" class="color60534E svgShape"/><path fill="#c6b7af" d="M2324.188,2470.954L2324.188,2470.954c-1.443,3.307-4.129,8.818-7.069,14.893     C2319.888,2480.844,2322.394,2476.239,2324.188,2470.954L2324.188,2470.954" class="colorC5C6AF svgShape"/><path fill="#db8d5f" d="M2331.274,2101.247c-10.889,0.143-21.155,2.006-28.322,6.919c-3.47,2.689-6.542,6.36-8.684,11.356l0,0     l0,0c0,0,8.771,61.028,11.195,96.703c0.136,1.823,0.236,3.434,0.295,4.792c0.001,0.009,0.001,0.019,0.002,0.028     c0.028,0.532,0.056,1.056,0.081,1.573c1.279,21.849,10.077,72.607,13.883,94.274c2.566,13.141,4.464,23.758,4.464,28.601     c0,6.013,0.806,25.085,1.445,46.701c0.027,0.819,0.048,1.513,0.063,2.065c0.238,8.969,2.484,67.54-1.508,76.693l0,0     c-1.795,5.285-4.301,9.89-7.069,14.893c-5.188,10.719-11.176,23.189-12.554,28.388c-0.592,2.237-0.857,3.229-0.631,3.229     c0.599,0,4.64-6.931,15.179-16.073c14.523-12.597,20.821-28.344,23.185-42.517s3.936-88.184,0-102.354     c-3.938-14.174-8.156-166.921-6.834-181.094C2336.778,2161.331,2331.335,2101.899,2331.274,2101.247" class="colorDB9F5F svgShape"/><path fill="#c77445" d="M2158.844,1299.102c0,0-41.729,109.442-111.018,118.891c-21.258,0-60.627,11.023-103.931-50.391     c-8.66-19.685-10.235,10.236-10.235,10.236s50.391,62.988,105.505,53.54C2085.62,1424.291,2147.033,1365.239,2158.844,1299.102z" class="colorC78845 svgShape"/><path fill="#d19673" d="M1797.133,1934.891c4.222,22.604,10.589,46.565,20.109,69.776c0.003,0.007,0.006,0.016,0.009,0.021     C1810.04,1979.806,1801.479,1953.276,1797.133,1934.891 M1789.974,1822.63c-0.071,0.872-3.401,42.557,4.336,95.296     c-0.007-0.258-0.011-0.511-0.011-0.754c0-16.302-0.75-58.863-4.322-94.54L1789.974,1822.63" class="colorD19873 svgShape"/><path fill="#e36b27" d="M1789.977,1822.632c3.571,35.677,4.322,78.238,4.322,94.54c0,0.243,0.004,0.496,0.011,0.754     c0.813,5.546,1.749,11.209,2.824,16.965c4.345,18.386,12.907,44.915,20.119,69.798c24.283,56.85,5.391,87.276,5.391,87.276     s16.351,2.667,20.618,10.839c0.038,0.054,0.075,0.107,0.112,0.161c2.886-3.802,1.849-41.97,0.277-56.383     c-1.569-14.396-40.49-217.728-40.818-219.44c-2.803-0.851-5.643-1.808-8.533-2.878     C1792.84,1823.724,1791.397,1823.179,1789.977,1822.632" class="colorE36727 svgShape"/><path fill="#906639" d="M1789.975,1822.616c0,0,0,0.005-0.001,0.014l0.003,0.002c1.421,0.547,2.863,1.092,4.322,1.632     c2.89,1.07,5.73,2.027,8.533,2.878c-0.001-0.007-0.002-0.01-0.002-0.01L1789.975,1822.616" class="color904E39 svgShape"/><path fill="#df793f" d="M1843.261,2102.804c0.032,0.061,0.063,0.123,0.094,0.184c0.006-0.007,0.012-0.015,0.018-0.022     C1843.336,2102.911,1843.299,2102.857,1843.261,2102.804" class="colorDF7D3F svgShape"/><path fill="#d19673" d="M1481.285,1868.767c-0.113,11.385,1.315,21.819,6.2,26.955c-2.267-2.64-3.998-6.381-4.98-11.618     C1481.693,1879.772,1481.3,1874.562,1481.285,1868.767 M1495.119,1794.794c-5.125,11.311-9.05,23.938-10.26,37.672     C1487.257,1819.257,1490.77,1805.992,1495.119,1794.794 M1523.747,1750.217c-2.625,3.37-5.631,7.221-8.786,11.522     C1517.599,1758.227,1520.546,1754.364,1523.747,1750.217 M1530.493,1741.534c-1.533,1.949-2.751,3.512-3.607,4.63     C1528.059,1744.653,1529.264,1743.107,1530.493,1741.534 M1740.499,1509.397c-0.771,0.345-48.111,21.682-89.5,81.813     c-9.426,11.799-27.406,34.156-46.878,58.378c18.854-23.321,35.98-44.509,46.878-58.378     c34.631-44.076,62.501-66.005,89.497-81.807C1740.498,1509.399,1740.498,1509.4,1740.499,1509.397" class="colorD19873 svgShape"/><path fill="#e36b27" d="M1740.497,1509.403c-26.996,15.802-54.866,37.73-89.497,81.807     c-10.898,13.869-28.024,35.057-46.878,58.378c-29.037,36.12-61.389,76.384-73.628,91.946c-1.229,1.573-2.434,3.119-3.607,4.63     c-0.004,0.006-0.009,0.011-0.013,0.017c-0.961,1.257-2.009,2.603-3.126,4.036c-3.201,4.147-6.148,8.01-8.786,11.522     c-6.682,9.108-14.033,20.234-19.842,33.055c-4.349,11.198-7.862,24.463-10.26,37.672c0,0.005-0.001,0.013-0.001,0.018     c-1.295,8.986-3.443,23.256-3.572,36.283c0.015,5.795,0.408,11.006,1.22,15.337c0.982,5.237,2.713,8.979,4.98,11.618     c0.076,0.079,0.152,0.158,0.229,0.234c-0.191-0.721-0.31-1.348-0.354-1.875c-0.209-2.478-0.175-4.576,0.049-6.352     c0.111-1.342,0.4-2.572,0.875-3.66c1.708-4.459,5.181-5.588,8.257-5.589c1.727,0,3.329,0.355,4.424,0.677     c0.006,0,0.013,0,0.019,0c5.464,0,1.736-23.95,4.354-39.404c2.624-15.489,24.408-61.155,55.903-90.287     c31.494-29.133,98.681-122.568,107.08-135.164c8.332-12.496,58.752-65.598,59.571-66.459     C1731.845,1534.677,1736.048,1521.921,1740.497,1509.403" class="colorE36727 svgShape"/><path fill="#906639" d="M1740.509,1509.393c0,0-0.003,0.001-0.01,0.005c-0.001,0.003-0.001,0.002-0.002,0.006     c-4.449,12.518-8.651,25.273-12.605,38.439c0.007-0.008,0.01-0.012,0.01-0.012S1739.281,1512.825,1740.509,1509.393" class="color904E39 svgShape"/><path fill="#df793f" d="M1488.284,1884.069c-0.475,1.088-0.765,2.318-0.875,3.66     C1487.588,1886.313,1487.889,1885.102,1488.284,1884.069" class="colorDF7D3F svgShape"/><path fill="#dc6a2a" d="M1487.409,1887.729c-0.225,1.775-0.259,3.874-0.049,6.352c0.044,0.527,0.164,1.154,0.354,1.875     c0.003,0.003,0.004,0.004,0.007,0.007c0.233-0.073,0.444-0.262,0.641-0.545     C1487.55,1892.622,1487.221,1890.013,1487.409,1887.729 M1496.541,1878.48c-3.076,0.001-6.549,1.13-8.257,5.589     c0.154-0.353,0.327-0.689,0.52-1.012c0.508-0.848,3.146-1.749,7.356-2.512c1.3-0.83,2.869-1.348,4.786-1.389     c0.006,0,0.013,0,0.019,0C1499.87,1878.836,1498.268,1878.48,1496.541,1878.48" class="colorDC6A2A svgShape"/><path fill="#da7237" d="M1496.16,1880.546c-4.21,0.763-6.848,1.664-7.356,2.512c-0.193,0.322-0.366,0.659-0.52,1.012     c-0.396,1.032-0.696,2.243-0.875,3.66c-0.188,2.283,0.141,4.893,0.953,7.688     C1490.01,1893.046,1490.701,1884.036,1496.16,1880.546" class="colorDA7737 svgShape"/><path fill="#d57b48" d="M2283.428,2086.915c0.036,0.275,0.073,0.556,0.113,0.841     C2283.503,2087.477,2283.466,2087.194,2283.428,2086.915 M2274.333,1963.108c0.305,14.764,3.635,44.756,4.57,58.684     c0.02,0.29,0.04,0.591,0.061,0.901C2278.009,2004.233,2275.338,1980.031,2274.333,1963.108 M2270.823,1825.807     c0.005,0.015,0.01,0.03,0.015,0.045c1.766,5.522,7.419,61.401,7.1,73.974c-0.009,0.327-0.019,0.671-0.031,1.028     c0.219-4.529,0.351-9.087,0.351-13.601c0-22.047-4.195-41.299-4.195-54.77     C2274.062,1827.954,2272.636,1825.899,2270.823,1825.807" class="colorD57A48 svgShape"/><path fill="#9a4602" d="M2285.522,2098.615c2.488,11.798,5.966,24.623,5.966,24.623c1.508-0.515,2.655-2.999,3.508-6.993     c-2.817-5.139-5.447-9.531-7.026-11.682C2287.124,2103.409,2286.3,2101.282,2285.522,2098.615" class="colorB35428 svgShape"/><path fill="#ff5c00" d="M2231.356,1749.376c-0.031,0.001-0.057,0.01-0.076,0.028c4.712,35.262,37.615,70.733,39.543,76.402     c1.813,0.093,3.238,2.147,3.238,6.677c0,13.471,4.195,32.723,4.195,54.77c0,4.514-0.132,9.071-0.351,13.601     c-0.472,13.392-3.838,47.679-3.579,61.948c0.002,0.102,0.004,0.204,0.006,0.307c1.005,16.923,3.676,41.125,4.631,59.585     c0.965,14.688,2.935,51.407,4.381,63.551c0.025,0.22,0.054,0.443,0.083,0.671c0.038,0.279,0.075,0.562,0.113,0.841     c0.445,3.175,1.159,6.96,1.981,10.859c0.777,2.667,1.602,4.794,2.447,5.948c1.579,2.15,4.209,6.543,7.026,11.682     c6.036-28.274-2.733-132.09-3.612-146.578c-1.003-16.534,2.104-58.793,3.679-66.667c1.574-7.874-4.773-82.401-4.201-85.551     C2275.094,1808.894,2233.878,1749.37,2231.356,1749.376" class="colorDE6222 svgShape"/></g></switch></svg>