<svg xmlns="http://www.w3.org/2000/svg" xmlns:xlink="http://www.w3.org/1999/xlink" viewBox="0 0 70.87 150"><defs><linearGradient id="b" x1="39.25" x2="39.25" y1="129.9" y2="64.84" gradientUnits="userSpaceOnUse"><stop offset="0" stop-color="#e7cebf" class="stopColorbfe5e7 svgShape"/><stop offset="1" stop-color="#e4cbbd" class="stopColorbdc4e4 svgShape"/></linearGradient><linearGradient id="c" x1="30.88" x2="30.88" y1="139.29" y2="65.54" gradientUnits="userSpaceOnUse"><stop offset="0" stop-color="#e4cbbd" class="stopColorbdc4e4 svgShape"/><stop offset="1" stop-color="#e7cebf" class="stopColorbfe5e7 svgShape"/></linearGradient><linearGradient id="d" x1="35.32" x2="35.32" y1="75.1" y2="30.66" gradientUnits="userSpaceOnUse"><stop offset="0" stop-color="#715434" class="stopColor345171 svgShape"/><stop offset="1" stop-color="#986834" class="stopColor98347e svgShape"/></linearGradient><linearGradient id="a" x1="35.83" x2="35.83" y1="16.23" y2="4.01" gradientUnits="userSpaceOnUse"><stop offset="0" stop-color="#976b3b" class="stopColor975f3b svgShape"/><stop offset="1" stop-color="#ad7d49" class="stopColorad8749 svgShape"/></linearGradient><linearGradient id="e" x1="35.92" x2="35.92" y1="28.37" y2="15.26" xlink:href="#a"/></defs><g data-name="Layer 1"><path fill="#9a4602" fill-rule="evenodd" d="M35.12 139c-.3-1.33-3.82 0-3.82 0A8.17 8.17 0 0030 142.23 3.59 3.59 0 0033.28 146a3.42 3.42 0 003-3A22.6 22.6 0 0035.12 139zM39.44 129.36c.26-1.65-4-1.21-4-1.21s-1.37 2.45-1.58 3.08c-1 2.78.79 6.17 2.14 6.64 1.09.37 3.35-2.33 3.67-4.32C39.91 131.84 39.33 130.07 39.44 129.36z" class="color92375c svgShape"/><path fill="url(#b)" fill-rule="evenodd" d="M44.92,67.51a28.46,28.46,0,0,1,2.35,8.29c1,7.16-5.19,34.85-5.11,36.91.25,6.13-2.35,17.19-2.35,17.19l-4.81-1s-.48-7.9-.13-13.77c.11-1.89.6-4.89.6-4.89l-.06-33.16-4.3-12.21Z"/><path fill="url(#c)" fill-rule="evenodd" d="M26.65,65.54s-2.79,5.92-3.07,11.14c-.39,7.22,3.77,30.58,3.39,31.69a41.37,41.37,0,0,0-.4,8.85c1.42,10.5,4.09,22.07,4.09,22.07L35.4,139s.17-21-.49-31L36.14,80l2.07-2.36V65.55Z"/><path fill="#ff5c00" fill-rule="evenodd" d="M17.79 38.22l8.62 4.49c-2.73 3.8-5.67 14-6.12 14.84l-6.59-.44C13.65 49.53 17 39.38 17.79 38.22zM52.25 37.43l-8.71 5.28c1.85 4.17 5.65 12.17 7.34 14.84l6.59-.44C57.52 49.53 53 38.59 52.25 37.43z" class="colorf1b183 svgShape"/><path fill="url(#d)" fill-rule="evenodd" d="M48.93,54.74l7.62-3.41a1.26,1.26,0,0,0,.72-1.41c-.78-3.63-3.89-16-10.35-17.21A27.48,27.48,0,0,0,40.64,31c-6.11-1.11-12.66.59-17,1.76a10.15,10.15,0,0,0-1.89.67c-5,2-7.63,12.75-8.37,16.2a1.33,1.33,0,0,0,.77,1.49l7.2,3.17a.53.53,0,0,0,.64-.17c.37-.5.73-1,1.07-1.6,1.35,7.38,2.49,15.35,1.48,18.81-1.24,4.24,23.48,5.32,22.84,1s.42-11,1.54-17.57Z"/><path fill="#ff5c00" fill-rule="evenodd" d="M46.14,73.26a4.91,4.91,0,0,0-2,2.11l2.75,4.1a6.13,6.13,0,0,0,1.54-3.53C48.69,73.6,46.14,73.26,46.14,73.26Z" class="colorf1b183 svgShape"/><path fill="#ff5c00" fill-rule="evenodd" d="M50.88 57.55l6.59-.44c.67 4.15-5.87 15-9.13 19.09l-2.2-2.94C47.21 70 49.23 60.44 50.88 57.55zM25 73.26a4.89 4.89 0 012.05 2.11l-2.75 4.1a6.18 6.18 0 01-1.55-3.53C22.48 73.6 25 73.26 25 73.26z" class="colorf1b183 svgShape"/><path fill="#ff5c00" fill-rule="evenodd" d="M20.29 57.55l-6.59-.44c0 4.43 5.87 15 9.13 19.09L25 73.26C24 70 21.94 60.44 20.29 57.55zM32.37 24.49a15.63 15.63 0 01-1 6.61s6 8.08 9.3-.08h0l-1-7.1L32.46 21z" class="colorf1b183 svgShape"/><path fill="#ffb58a" fill-rule="evenodd" d="M28.84,14.89c0,4.91,2,11,7.1,11,4.84,0,7.07-6.08,7.07-11S41.69,6,35.91,6C29.81,6,28.83,10,28.84,14.89Z" class="colorf6bc91 svgShape"/><path fill="url(#a)" fill-rule="evenodd" d="M35.91,9c-2,0-3.39-1-4.43-.32-1.8,1.25-2.43,4.89-2.59,7.48,0-.42-.45.15-.5-.25C27.71,10.6,27.36,4,35.91,4c8.36,0,7.9,6.15,7.5,11.91,0,.44-.42-.15-.46.31-.19-2.58-.89-6.23-2.64-7.5C39.26,8,37.83,9,35.91,9Z"/><path fill="#ffb58a" fill-rule="evenodd" d="M41.57 17.92c-.09 1.19 0 2.63.67 2.7s1.38-1.07 1.88-2.46c.39-1.11 0-2.17-.71-2.24A2.1 2.1 0 0041.57 17.92zM30.58 17.89c.11 1.19.11 2.63-.48 2.7s-1.77-1.07-2.23-2.46c-.37-1.11-.07-2.17.52-2.24A2.55 2.55 0 0130.58 17.89z" class="colorf6bc91 svgShape"/><path fill="url(#e)" fill-rule="evenodd" d="M28.91,15.26c.64,4.72,1.17,7.13,2.1,7.23s.56-1.93,4.81-1.93,3.63,1.8,4.71,1.76,1.8-2.33,2.4-7c0,.6.08,2.26.08,2.91,0,3.36-2.22,10.1-7.07,10.1-4.6,0-7.1-6.64-7.1-10.08C28.84,17.6,28.86,15.9,28.91,15.26Z"/><path fill="#ffb58a" d="M37.68,18.57l-.56.31a4.69,4.69,0,0,1-.55.28,2.07,2.07,0,0,1-.61.17h-.15l-.13,0-.3-.1a4.51,4.51,0,0,1-.54-.29l-.54-.34a2.07,2.07,0,0,0,.35.56,2.35,2.35,0,0,0,.51.47,1.84,1.84,0,0,0,.37.19l.24.05H36a2.1,2.1,0,0,0,1.32-.74A2.54,2.54,0,0,0,37.68,18.57Z" opacity=".5" class="colorf6bc91 svgShape"/><path fill="#5e5041" d="M42.14 13.38a3.06 3.06 0 00-.7-.61 3.84 3.84 0 00-.76-.37 3.06 3.06 0 00-.43-.13l-.46-.09-.47 0a2.23 2.23 0 00-.45 0 3.06 3.06 0 00-.83.17 3.21 3.21 0 00-.84.4v.1l2.46.38 2.48.26zM29.73 13.59l2.46-.36 2.45-.48 0-.1a3 3 0 00-.85-.37 4.19 4.19 0 00-1.29-.13l-.46 0-.46.1c-.15 0-.29.11-.43.15a3.29 3.29 0 00-.74.41 3 3 0 00-.68.63z" class="color6b402f svgShape"/><path fill="#524332" fill-rule="evenodd" d="M39.16 15.31a.76.76 0 01.16 0 .88.88 0 00-.06.33.58.58 0 00.51.6.43.43 0 00.32-.19 1.84 1.84 0 01.09.42c0 .69-.36 1.27-.89 1.29s-1-.5-1-1.19A1.14 1.14 0 0139.16 15.31zM32.5 15.66a.41.41 0 01.16 0 .7.7 0 00-.06.33.56.56 0 00.51.59.45.45 0 00.32-.19 1.43 1.43 0 01.08.43 1.13 1.13 0 01-.88 1.29 1.14 1.14 0 01-1-1.19C31.58 16.26 32 15.68 32.5 15.66z" class="color323652 svgShape"/><path fill="#ffb58a" d="M38.64,22.18a1.63,1.63,0,0,0-.8-.55,7.2,7.2,0,0,0-1.92-.09,7.14,7.14,0,0,0-1.91.09,1.59,1.59,0,0,0-.8.55c-.56.94-.25,3.16.89,3.16,1.92,0,.87-2,1.82-2s-.09,2,1.82,2C38.89,25.34,39.19,23.12,38.64,22.18Z" class="colorf6bc91 svgShape"/><path fill="#ffb58a" d="M38,22a2.26,2.26,0,0,1-.53.47,2.92,2.92,0,0,1-1.53.46,3.42,3.42,0,0,1-.85-.12,3.08,3.08,0,0,1-.68-.31,2.07,2.07,0,0,1-.54-.46s.27.1.66.2a3.86,3.86,0,0,0,.66.13,3.64,3.64,0,0,0,.75.05,5,5,0,0,0,1.41-.21C37.72,22.11,38,22,38,22Z" class="colorf6bc91 svgShape"/></g></svg>