<svg xmlns="http://www.w3.org/2000/svg" enable-background="new 0 0 1364 960" viewBox="0 0 1364 960"><path fill="#ffa30f" d="M1048.035,882.303c-4.317-3.258-18.823-5.584-25.079-7.377c12.348-4.945,38.879-4.962,38.879-21.711   c0-12.089-28.493-11.509-28.493-11.509l-643.547-1.429c-11.083,0.617-29.299,0.244-30.983,6.853   c-1.517,5.951,7.147,7.343,3.332,9.737c-5.816,3.65-56.879,6.056-84.236,11.555c-4.84,0.973-10.256,2.35-11.844,5.264   c-2.796,5.129,8.457,8.977,17.439,9.129c8.983,0.152,19.655-0.65,25.33,3.535c3.008,2.218,3.644,5.319,6.506,7.605   c4.658,3.721,13.493,4.196,21.241,4.349c48.3,0.953,96.6,1.906,144.901,2.859c-3.623,0.979-3.654,4.344-0.982,6.109   c2.673,1.765,6.855,2.323,10.768,2.733c28.325,2.961,57.246,2.972,85.997,2.974c85.602,0.007,171.204,0.014,256.807,0.021   c18.742,0.002,40.429-0.851,51.41-9.972c2.368-1.967,4.211-4.309,7.682-5.552c3.465-1.241,7.778-1.106,11.804-0.945   c42.234,1.692,84.625,1.973,126.912,0.839c6.351-0.17,13.482-0.597,17.513-3.55C1053.788,890.6,1052.353,885.56,1048.035,882.303z" class="colorE9E6FF svgShape"/><path fill="#f7e0d2" d="M448.497,779.184c-15.008-8.834-28.163-20.718-38.36-34.847c-4.781-6.625-9.306-13.813-12.136-21.545   l0.632,0.431c2.125,0.483,16.78,3.6,25.462-4.833c7.058-6.857,7.218-18.481,7.345-27.774c0.045-3.275-0.159-6.015-0.364-7.959   c-2.55,3.285-6.642,7.779-12.71,11.588c-4.803,3.014-7.301,3.375-10.44,5.423c-4.056,2.645-8.697,7.793-11.299,18.79   c-2.11-7.957-1.684-16.148-0.77-24.273c0.909-8.068,2.305-16.189,1.782-24.336c-0.4-6.224-2.137-11.987-5.352-17.151   c3.905,0.772,16.682,2.618,24.552-5.026c7.058-6.857,7.217-18.481,7.344-27.774c0.045-3.275-0.159-6.015-0.364-7.959   c-2.551,3.285-6.642,7.78-12.71,11.589c-4.803,3.014-7.3,3.375-10.44,5.422c-4.144,2.703-8.9,8.015-11.467,19.514   c-5.68-6.846-12.88-12.682-19.899-18.066c-3.458-2.653-7.059-5.085-10.674-7.498c4.986,0.793,16.044,1.602,23.128-5.279   c7.059-6.857,7.217-18.481,7.345-27.773c0.045-3.275-0.159-6.015-0.364-7.959c-2.551,3.285-6.642,7.78-12.711,11.588   c-4.802,3.014-7.3,3.375-10.44,5.422c-4.296,2.802-9.247,8.408-11.738,20.799c-1.854-1.255-3.697-2.527-5.51-3.846   c-7.886-5.739-14.52-12.909-16.231-22.788l1.317,0.897c2.124,0.483,16.78,3.6,25.462-4.833c7.058-6.856,7.217-18.481,7.344-27.773   c0.045-3.276-0.159-6.015-0.364-7.959c-2.551,3.285-6.642,7.779-12.711,11.588c-4.803,3.015-7.3,3.375-10.44,5.423   c-3.954,2.578-8.462,7.533-11.098,17.965c-0.266-7.027,1.364-14.066,3.395-20.851l2.472-0.728   c1.789-1.39,13.957-11.117,12.9-23.658c-0.86-10.195-10.101-17.986-17.488-24.214c-2.604-2.195-4.941-3.838-6.639-4.955   c0.96,4.217,1.876,10.469,0.938,17.859c-0.743,5.848-2.099,8.094-2.523,11.968c-0.581,5.313,0.67,13.013,9.041,23.219   c-1.992,6.678-3.578,13.532-3.495,20.502c0.084,7.105,2.248,13.687,6.404,19.263c-4.142-2.917-12.138-7.341-20.208-4.997   c-8.752,2.542-13.931,11.981-18.072,19.527c-1.46,2.66-2.483,4.989-3.16,6.668c3.513-1.579,8.813-3.478,15.431-3.957   c5.238-0.379,7.438,0.411,10.895,0.1c4.852-0.436,11.55-2.983,19.209-12.62l-0.14-0.266c5.31,5.16,11.751,9.039,17.883,13.124   c4.575,3.047,9.007,6.303,13.288,9.747l-0.367-0.2c-2.002-0.251-15.794-1.785-23.025,6.781c-5.878,6.964-4.963,17.692-4.231,26.268   c0.258,3.023,0.697,5.529,1.063,7.303c2.051-3.261,5.411-7.777,10.655-11.842c4.151-3.217,6.42-3.778,9.127-5.951   c3.739-3.004,7.832-8.706,8.95-20.587c2.658,2.208,5.256,4.488,7.781,6.85c2.589,2.421,5.011,4.938,7.108,7.644   c-0.022,0.116-0.046,0.228-0.067,0.345l0.668,0.454c3.104,4.193,5.414,8.852,6.338,14.332c0.922,5.466,0.69,11.018,0.139,16.534   l-1.942-1.263c-1.977-0.406-15.608-3.006-23.483,4.973c-6.401,6.487-6.321,17.253-6.257,25.861   c0.023,3.034,0.265,5.567,0.492,7.363c2.298-3.092,5.999-7.333,11.543-10.978c4.388-2.885,6.694-3.268,9.561-5.225   c3.347-2.285,7.097-6.472,9.407-14.809c-0.104,0.845-0.209,1.689-0.312,2.53c-0.981,8.045-1.921,16.259-0.524,24.315   c0.385,2.222,0.948,4.399,1.645,6.534c-0.006,0.033-0.013,0.065-0.019,0.098l0.064,0.043c2.243,6.805,5.885,13.173,9.797,19.116   c10.709,16.272,25.156,29.927,41.936,39.804C448.571,780.848,449.273,779.64,448.497,779.184z" class="colorD2D4F7 svgShape"/><path fill="#f7e0d2" d="M327.162,867.487c6.668,1.83,17.151,3.722,34.882,1.029c10.874-1.691,25.958-3.944,42.765-13.515   c0.726-0.414,2.009-1.132,3.623-2.178c0.083-0.044,0.178-0.096,0.251-0.151c0.154-0.078,0.309-0.176,0.475-0.262   c0.551-0.339,1.13-0.719,1.77-1.067c12.055-7.869,36.167-26.357,37.81-51.994c0.118-1.473,1.169-20.127-7.845-24.147   c-11.321-4.913-30.32,16.349-34.539,12.67c-2.126-1.875,2.018-7.617,4.38-15.822c5.483-18.384,1.02-44.546-14.429-51.591   c-7.281-3.406-17.323-2.574-24.55,2.65c-11.839,8.359-8.135,29.211-9.893,29.327c-2.55,0.06,2.177-40.824-17.874-52.971   c-7.056-4.229-17.758-5.265-23.277-0.656c-8.078,6.771-1.437,22.982-6.098,24.905c-4.941,2.038-11.46-16.228-31.156-24.874   c-5.012-2.157-16.773-7.295-26.666-1.885c-8.619,4.602-13.435,15.389-11.951,24.689c1.419,8.579,7.837,13.694,9.642,15.042   c11.567,8.956,22.108,2.672,44.781,10.475c7.917,2.695,16.277,6.766,15.81,9.56c-0.482,2.036-5.541,1.472-11.998,5.346   c-0.141,0.068-0.353,0.169-0.609,0.364c-1.955,1.206-8.893,5.539-10.653,12.963c-0.119,0.301-1.852,8.396,2.77,12.559   c2.345,2.19,5.452,2.384,6.803,2.517c13.494,1.118,29.875,6.595,29.752,8.803c-0.068,2.532-21.809,0.524-24.925,8.393   c-2.579,6.542,9.122,16.185,10.635,17.426c12.664,10.282,28.664,11.028,28.431,12.223c-0.239,1.007-12.606-2.769-24.62,2.684   c-5.608,2.503-14.119,8.293-13.634,14.386C307.534,861.885,321.344,865.842,327.162,867.487z" class="colorD2D4F7 svgShape"/><path fill="#ffffff" d="M335.037,820.547c1.149-2.769,4.446-3.393,7.137-3.243c3.393,0.187,6.681,1.261,9.764,2.64   c6.486,2.902,12.385,7.419,19.462,8.848c3.577,0.723,7.319,0.604,10.667-0.93c-6.638-9.002-12.204-18.801-17.59-28.586   c-2.016-3.661-4.026-7.342-6.079-11.002c-9.866-5.409-21.749-0.878-32.106-4.539c-2.756-0.974-5.239-2.531-7.148-4.759   c-0.321-0.375,0.292-0.836,0.612-0.462c3.658,4.269,9.37,5.631,14.755,6.023c5.331,0.387,10.694-0.198,16.009,0.501   c2.501,0.328,4.942,0.984,7.215,2.068c-5.568-9.866-11.501-19.541-18.891-28.157c-8.95-10.432-20.103-19.45-33.301-23.793   c-1.656-0.538-3.333-1.002-5.022-1.381c-0.475-0.122-0.371-0.874,0.109-0.774c13.11,3.005,24.562,10.663,33.909,20.142   c1.594,1.613,3.107,3.292,4.582,5.001c-0.012-0.086-0.005-0.177,0.06-0.266c3.995-5.513,1.372-12.526-1.316-17.963   c-1.47-2.972-3.079-5.908-4.045-9.096c-0.803-2.648-1.292-5.616-0.043-8.205c0.215-0.444,0.923-0.15,0.708,0.295   c-1.461,3.026-0.413,6.648,0.733,9.601c1.247,3.215,2.997,6.199,4.414,9.338c2.328,5.159,3.748,11.54,0.156,16.497   c-0.116,0.16-0.276,0.159-0.416,0.101c8.279,9.662,14.828,20.688,20.996,31.798c3.421,6.158,6.774,12.372,10.297,18.479   c6.808-4.886,11.597-12.674,13.109-20.894c0.827-4.491,0.417-8.848-0.637-13.264c-1.145-4.794-2.753-9.56-2.755-14.541   c-0.002-4.917,1.812-10.105,6.199-12.759c0.418-0.253,0.885,0.356,0.463,0.612c-4.419,2.674-6.055,7.951-5.884,12.875   c0.175,5.05,1.888,9.851,2.975,14.741c0.941,4.232,1.175,8.445,0.348,12.716c-0.769,3.97-2.282,7.777-4.357,11.243   c-2.32,3.876-5.385,7.32-9.07,9.947c4.307,7.426,8.885,14.679,14.22,21.431c3.694,4.683,7.79,9.122,12.277,13.089   c0.624-12.395,11.981-20.395,16.91-30.987c1.443-3.099,2.327-6.436,2.179-9.873c-0.022-0.49,0.74-0.585,0.762-0.089   c0.546,12.631-10.835,21.07-16.228,31.329c-1.629,3.1-2.744,6.432-2.883,9.95c-0.004,0.105-0.055,0.169-0.111,0.221   c3.427,2.968,7.073,5.663,10.976,7.938c-0.166,0.086-0.321,0.185-0.475,0.262c-0.074,0.055-0.169,0.107-0.251,0.151   c-6.65-3.92-12.644-9.008-17.95-14.713c-2.84-3.058-5.468-6.281-7.953-9.61c-5.615,2.668-12.061,1.388-17.525-1.013   c-6.342-2.789-12.05-7.091-18.849-8.791c-3.135-0.783-8.832-1.656-10.409,2.146C335.556,821.299,334.849,821.003,335.037,820.547z" class="colorFFF svgShape"/><path fill="#f7e0d2" d="M887.089,781.831c15.008-8.834,28.163-20.718,38.359-34.847c4.781-6.625,9.306-13.813,12.136-21.545   l-0.632,0.431c-2.125,0.483-16.78,3.6-25.462-4.833c-7.058-6.857-7.218-18.481-7.345-27.774c-0.045-3.276,0.159-6.015,0.364-7.959   c2.551,3.285,6.642,7.779,12.71,11.588c4.803,3.014,7.3,3.375,10.44,5.423c4.056,2.645,8.697,7.793,11.299,18.79   c2.11-7.957,1.685-16.148,0.77-24.273c-0.909-8.068-2.305-16.19-1.782-24.336c0.4-6.224,2.137-11.987,5.352-17.151   c-3.905,0.772-16.682,2.618-24.552-5.026c-7.058-6.856-7.218-18.481-7.344-27.774c-0.045-3.275,0.159-6.015,0.364-7.959   c2.55,3.285,6.642,7.78,12.71,11.589c4.803,3.014,7.3,3.375,10.44,5.422c4.144,2.702,8.9,8.015,11.467,19.514   c5.68-6.846,12.88-12.682,19.899-18.066c3.457-2.653,7.059-5.085,10.674-7.498c-4.986,0.793-16.044,1.602-23.128-5.279   c-7.058-6.857-7.217-18.481-7.345-27.774c-0.045-3.276,0.159-6.015,0.364-7.96c2.551,3.285,6.642,7.78,12.711,11.588   c4.802,3.014,7.3,3.375,10.44,5.422c4.296,2.802,9.247,8.408,11.738,20.799c1.854-1.255,3.697-2.527,5.509-3.846   c7.886-5.739,14.52-12.909,16.231-22.788l-1.317,0.897c-2.124,0.483-16.78,3.6-25.462-4.833   c-7.058-6.857-7.217-18.481-7.344-27.774c-0.045-3.276,0.159-6.015,0.364-7.959c2.551,3.285,6.642,7.779,12.711,11.588   c4.803,3.015,7.3,3.375,10.44,5.423c3.954,2.578,8.462,7.533,11.098,17.965c0.266-7.027-1.364-14.066-3.395-20.851l-2.472-0.728   c-1.789-1.39-13.957-11.117-12.9-23.658c0.86-10.195,10.101-17.986,17.488-24.214c2.604-2.195,4.941-3.838,6.639-4.955   c-0.96,4.217-1.876,10.469-0.938,17.859c0.743,5.848,2.099,8.094,2.523,11.968c0.581,5.313-0.67,13.013-9.041,23.219   c1.992,6.678,3.578,13.533,3.495,20.502c-0.084,7.105-2.248,13.687-6.404,19.263c4.141-2.917,12.138-7.341,20.208-4.997   c8.752,2.542,13.931,11.981,18.072,19.527c1.46,2.66,2.483,4.989,3.16,6.668c-3.513-1.579-8.813-3.478-15.431-3.957   c-5.238-0.379-7.438,0.411-10.895,0.1c-4.852-0.436-11.55-2.983-19.209-12.62l0.14-0.266c-5.31,5.16-11.751,9.039-17.883,13.124   c-4.575,3.047-9.007,6.303-13.288,9.747l0.367-0.2c2.002-0.251,15.794-1.785,23.025,6.781c5.878,6.964,4.963,17.692,4.231,26.268   c-0.258,3.023-0.697,5.529-1.063,7.302c-2.051-3.261-5.411-7.777-10.655-11.841c-4.151-3.217-6.42-3.778-9.127-5.951   c-3.739-3.004-7.832-8.706-8.95-20.587c-2.658,2.208-5.256,4.488-7.781,6.85c-2.589,2.421-5.011,4.938-7.108,7.644   c0.022,0.116,0.045,0.228,0.067,0.345l-0.668,0.454c-3.104,4.193-5.414,8.852-6.338,14.332c-0.922,5.466-0.69,11.018-0.139,16.534   l1.942-1.263c1.977-0.406,15.608-3.006,23.483,4.973c6.401,6.487,6.321,17.253,6.257,25.861c-0.023,3.034-0.265,5.567-0.492,7.363   c-2.298-3.092-5.999-7.333-11.543-10.978c-4.388-2.885-6.694-3.268-9.561-5.225c-3.347-2.285-7.097-6.472-9.407-14.809   c0.104,0.845,0.209,1.689,0.312,2.529c0.981,8.045,1.921,16.259,0.524,24.315c-0.385,2.222-0.948,4.399-1.645,6.534   c0.006,0.033,0.013,0.065,0.019,0.098l-0.064,0.043c-2.243,6.805-5.885,13.173-9.797,19.116   c-10.708,16.272-25.156,29.927-41.936,39.804C887.014,783.496,886.313,782.288,887.089,781.831z" class="colorD2D4F7 svgShape"/><path fill="#f7e0d2" d="M1008.424,870.135c-6.668,1.83-17.151,3.722-34.882,1.029c-10.874-1.69-25.958-3.943-42.765-13.515   c-0.726-0.414-2.009-1.132-3.623-2.177c-0.083-0.044-0.178-0.096-0.251-0.151c-0.154-0.078-0.309-0.176-0.475-0.262   c-0.551-0.339-1.13-0.719-1.77-1.067c-12.055-7.869-36.167-26.357-37.81-51.994c-0.118-1.473-1.169-20.127,7.845-24.146   c11.321-4.913,30.32,16.349,34.539,12.67c2.126-1.875-2.018-7.617-4.38-15.822c-5.483-18.384-1.02-44.546,14.429-51.591   c7.281-3.406,17.323-2.574,24.55,2.65c11.839,8.359,8.135,29.211,9.893,29.327c2.55,0.06-2.177-40.824,17.874-52.971   c7.056-4.229,17.758-5.265,23.277-0.656c8.078,6.771,1.437,22.982,6.098,24.905c4.941,2.038,11.46-16.228,31.156-24.874   c5.012-2.157,16.773-7.295,26.666-1.885c8.619,4.602,13.435,15.389,11.951,24.689c-1.419,8.579-7.837,13.694-9.642,15.042   c-11.567,8.956-22.108,2.672-44.781,10.475c-7.917,2.695-16.277,6.766-15.81,9.56c0.482,2.036,5.541,1.472,11.998,5.346   c0.141,0.068,0.353,0.169,0.609,0.364c1.955,1.206,8.893,5.539,10.653,12.963c0.119,0.301,1.852,8.396-2.77,12.559   c-2.345,2.19-5.452,2.384-6.803,2.517c-13.494,1.119-29.875,6.596-29.752,8.803c0.068,2.532,21.809,0.524,24.924,8.393   c2.579,6.542-9.122,16.185-10.635,17.426c-12.664,10.282-28.664,11.028-28.431,12.223c0.239,1.007,12.606-2.77,24.62,2.684   c5.609,2.503,14.119,8.293,13.634,14.386C1028.052,864.533,1014.242,868.49,1008.424,870.135z" class="colorD2D4F7 svgShape"/><path fill="#ffffff" d="M1000.548,823.195c-1.149-2.769-4.446-3.393-7.137-3.243c-3.393,0.187-6.681,1.261-9.764,2.64   c-6.486,2.902-12.385,7.419-19.462,8.848c-3.577,0.723-7.319,0.604-10.667-0.93c6.638-9.002,12.204-18.801,17.591-28.586   c2.016-3.661,4.026-7.342,6.078-11.002c9.866-5.409,21.749-0.877,32.106-4.539c2.756-0.974,5.239-2.531,7.148-4.759   c0.321-0.375-0.292-0.836-0.612-0.462c-3.658,4.269-9.37,5.631-14.755,6.023c-5.33,0.387-10.694-0.198-16.009,0.5   c-2.501,0.328-4.942,0.984-7.215,2.068c5.568-9.866,11.501-19.541,18.891-28.157c8.95-10.432,20.103-19.45,33.301-23.793   c1.656-0.538,3.333-1.002,5.022-1.381c0.475-0.122,0.371-0.874-0.109-0.774c-13.11,3.005-24.562,10.663-33.909,20.142   c-1.594,1.613-3.107,3.292-4.582,5.001c0.011-0.086,0.005-0.177-0.06-0.266c-3.995-5.513-1.372-12.526,1.316-17.963   c1.47-2.972,3.079-5.908,4.045-9.096c0.803-2.648,1.293-5.616,0.043-8.205c-0.215-0.443-0.923-0.15-0.708,0.295   c1.461,3.026,0.413,6.648-0.733,9.601c-1.247,3.215-2.997,6.2-4.414,9.338c-2.328,5.159-3.748,11.54-0.156,16.497   c0.115,0.16,0.276,0.158,0.416,0.101c-8.279,9.662-14.828,20.688-20.997,31.798c-3.42,6.158-6.774,12.372-10.297,18.48   c-6.808-4.886-11.597-12.675-13.109-20.894c-0.827-4.491-0.417-8.848,0.637-13.264c1.145-4.794,2.753-9.56,2.755-14.541   c0.002-4.917-1.812-10.105-6.199-12.759c-0.418-0.253-0.885,0.357-0.463,0.612c4.419,2.674,6.055,7.951,5.884,12.875   c-0.175,5.05-1.888,9.851-2.975,14.741c-0.941,4.232-1.175,8.445-0.348,12.716c0.769,3.97,2.282,7.777,4.357,11.243   c2.32,3.876,5.385,7.32,9.07,9.946c-4.307,7.426-8.885,14.679-14.22,21.431c-3.695,4.683-7.791,9.122-12.278,13.089   c-0.624-12.395-11.981-20.395-16.91-30.986c-1.443-3.099-2.327-6.436-2.179-9.873c0.022-0.49-0.74-0.585-0.762-0.09   c-0.546,12.631,10.835,21.07,16.228,31.329c1.629,3.1,2.745,6.431,2.883,9.95c0.004,0.105,0.055,0.169,0.111,0.222   c-3.427,2.967-7.073,5.663-10.976,7.938c0.166,0.086,0.321,0.185,0.475,0.262c0.074,0.055,0.168,0.108,0.251,0.151   c6.65-3.921,12.644-9.009,17.95-14.713c2.84-3.058,5.468-6.281,7.953-9.61c5.615,2.668,12.061,1.388,17.525-1.013   c6.343-2.789,12.05-7.091,18.849-8.791c3.135-0.783,8.832-1.656,10.409,2.146C1000.03,823.947,1000.737,823.651,1000.548,823.195z" class="colorFFF svgShape"/><path fill="#f9dccb" d="M581.352,469.416c0,0,5.941-2.904,7.181-4.646c1.846-2.591,2.88-11.699,5.081-11.665   c4.752-0.106-1.076,9.976,3.497,9.841c4.573-0.135,13.138-16.823,18.272-14.54c5.134,2.283-0.358,21.111-13.091,25.616   c-7.199,2.547-10.664,6.477-10.664,6.477L581.352,469.416z" class="colorF9CBCB svgShape"/><path fill="#fa9c64" d="M456.125,456.871l28.742,62.554c0,0,46.756,5.505,57.449,2.187c15.045-4.668,53.497-42.295,53.497-42.295   c-5.848-6.977-11.354-13.153-11.354-13.153l-45.701,18.118c-6.57-0.093-18.033-4.451-32.336-9.542   C488.358,468.316,465.542,457.614,456.125,456.871z" class="color6492FA svgShape"/><path fill="#e6874e" d="M592.588,475.505c-6.785,6.535-38.782,36.875-52.196,41.036c-10.693,3.318-57.45-2.187-57.45-2.187   l-26.391-57.438c-0.141-0.015-0.29-0.035-0.426-0.045l28.742,62.554c0,0,46.756,5.505,57.449,2.187   c15.045-4.668,53.497-42.295,53.497-42.295C594.715,478.006,593.628,476.724,592.588,475.505z" class="color4E7DE6 svgShape"/><polygon fill="#875e2b" points="480.698 576.687 479.152 576.842 423.534 575.919 474.838 855.178 495.031 855.178" class="color392B87 svgShape"/><polygon fill="#694921" points="433.593 576.086 448.193 632.694 449.308 680.146 484.867 855.177 474.838 855.177 423.533 575.919" class="color2C2169 svgShape"/><polygon fill="#e0824a" points="480.216 576.735 480.698 576.687 480.701 576.743" class="color524AE0 svgShape"/><polygon fill="#966930" points="401.169 576.482 399.624 576.315 400.996 855.178 419.726 854.977 457.269 576.004" class="color3F3096 svgShape"/><path fill="#ffffff" d="M448.697,455.361c0,0,32.461,3.177,33.31,38.485c0.416,17.282,2.318,74.105,2.173,97.289   c-0.021,3.373-2.451,6.249-5.773,6.834c-28.375,5.001-48.989-3.753-75.381-1.907c-4.969,0.347-9.18-3.596-9.127-8.577   c0.546-51.074,2.076-70.275,26.576-99.613c10.623-12.721,14.472-33.45,14.472-33.45L448.697,455.361z" class="colorFFF svgShape"/><path fill="#5e4525" d="M495.031 855.178c8.483 4.475 25.928 3.28 23.374 14.681h-45.2c-.323-5.183-.936-10.126 1.633-14.681L495.031 855.178zM419.726 854.976c8.483 4.475 26.674 3.482 24.12 14.882l-45.16-.25c.208-5.648-.121-9.423 2.31-14.633H419.726z" class="color28255E svgShape"/><path fill="#fa9c64" d="M434.949 454.421c0 0-33.901 4.805-40.732 47.568-6.831 42.763 4.235 62.543-.944 131.472 1.655 4.287 20.351 1.095 36.281.454 9.228-.371 16.376-8.217 15.999-17.446C443.02 554.345 440.576 490.329 434.949 454.421zM449.493 455.414c15.041 60.726-1.178 101.027 4.305 168.83.248 3.068 2.043 5.842 4.798 7.214 11.159 5.558 20.965 1.566 34.428 1.335 1.971-.034 3.547-1.639 3.482-3.61-.774-23.447-5.858-152.514-24.243-164.865C459.61 455.82 449.493 455.414 449.493 455.414z" class="color6492FA svgShape"/><path fill="#f9dccb" d="M489.756,604.797l6.264,5.169c0,0,11.417-0.746,12.016,1.255c1.459,4.272-9.339,1.886-7.906,5.987   c1.433,4.101,18.996,7.071,18.4,12.373c-0.595,5.302-21.287,4.296-27.785-3.779c-4.546-5.649-9.178-8.925-9.178-8.925   L489.756,604.797z" class="colorF9CBCB svgShape"/><path fill="#fa9c64" d="M401.284,483.243c7.832-8.451,24.559-8.984,32.022,4.21c7.527,13.306,5.688,59.45,5.688,59.45   l55.795,61.916l-11.445,14.377c-2.888-0.991-71.066-39.721-80.845-52.655C392.443,557.237,389.688,495.755,401.284,483.243z" class="color6492FA svgShape"/><path fill="#e6874e" d="M401.284,483.243c2.88-3.107,6.964-5.139,11.346-5.816c-2.764,1.154-5.228,2.89-7.105,5.104   c-11.031,13.012-5.563,74.313,5.073,87.158c8.871,10.714,61.517,38.495,78.151,46.719l-5.403,6.787   c-2.888-0.991-71.066-39.721-80.845-52.655C392.443,557.238,389.688,495.755,401.284,483.243z" class="color4E7DE6 svgShape"/><path fill="#d17705" d="M446.926,439.363c-5.897,2.516-8.044,5.813-16.201,3.101c-12.411-4.128-24.547-23.612-9.764-34.525   c0.752-3.361,1.717-4.74,5.774-6.072c4.055-1.33,8.496,0.035,14.205-0.656c5.709-0.691,13.189-7.418,19.037,0.382   c5.848,7.799-5.845,15.548-11.616,20.285C442.587,426.616,445.33,433.472,446.926,439.363z" class="color3F4883 svgShape"/><path fill="#f9dccb" d="M446.484,431.108l0.711,4.513l1.917,12.104l0.291,1.844c1.902,9.519-12.976,8.764-14.982,3.263l0.173-9.938   l0.129-7.282l0.042-2.556l0.074-4.338L446.484,431.108z" class="colorF9CBCB svgShape"/><path fill="#f0cab4" d="M447.195,435.62l1.917,12.104c-3.685,0.072-9.395-0.362-12.935-3.423c-0.55-0.47-1.075-0.938-1.583-1.409   l0.129-7.282l0.042-2.556L447.195,435.62z" class="colorF0B4B4 svgShape"/><path fill="#f9dccb" d="M455.233,409.699c3.583,7.529,8.092,24.527,2.125,31.64c-3.777,4.503-17.911,2.875-22.619-5.509   c-3.951-2.281-8.15-9.335-5.069-12.63c2.197-2.348,5.855,2.877,9.97,1.523c1.562-0.513-4.452-10.679,0.343-13.045   C444.778,409.311,450.47,412.772,455.233,409.699z" class="colorF9CBCB svgShape"/><path fill="#d68f65" d="M670.562,50.597l-0.311,0.001c-0.094,0-0.156,0-0.156,0c-94.872,0.239-181.728,27.441-249.042,72.436   c-67.313,44.979-102.447,105.563-131.767,175.346l0,0c9.811-20.112,118.17-16.512,128.072,3.563h0.031   c9.811-20.112,116.709-20.652,126.843-0.95c0,0,0-0.016,0.015-0.047c0-0.016,0-0.016,0-0.016   c10.091-19.709,116.103-20.031,126.315-0.484l0.871-0.002l0.001,0.403c0.077-0.14,0.139-0.264,0.217-0.404   c10.123-19.585,115.699-19.907,126.035-0.53c0.015-0.031,0.046-0.078,0.062-0.109c8.635-16.28,85.208-18.594,115.179-7.006   c5.558,2.145,9.53,4.773,11.154,7.887c0.031,0.046,0.047,0.093,0.063,0.139c0.063,0.124,0.094,0.171,0.094,0.171l0.031,0   c1.364-2.778,4.58-5.171,9.151-7.196c28.51-12.58,110.393-10.34,118.904,6.962l0,0C998.681,175.422,860.37,50.304,670.562,50.597z" class="color7965D6 svgShape"/><path fill="#dec3b3" d="M675.013,228.172l0.284,301.895l0.001,0.759l0.003,9.69l0.02,10.404l-0.005,5.473l0.019,10.388   l0.028,39.489c0.015,7.891-3.166,15.06-8.335,20.248c-5.261,5.281-12.604,8.52-20.682,8.411   c-15.722-0.219-28.165-13.467-28.195-29.188l-0.007-3.752c-0.007-3.814,3.073-6.921,6.902-6.927   c1.907-0.004,3.63,0.768,4.888,2.021c1.243,1.238,2.021,2.973,2.025,4.88l0.008,3.969c0.014,7.69,5.748,14.423,13.408,15.123   c8.792,0.789,16.19-6.154,16.174-14.759l-0.021-11.302l-0.022-28.187l-0.02-10.388l0.005-5.473l-0.019-10.404l-0.003-9.69   l-0.001-0.76l-0.244-288.066l-0.026-13.83L675.013,228.172z" class="colorB3C1DE svgShape"/><path fill="#f0ceb9" d="M668.714,47.018c-187.893,0.804-344.205,108.648-379.428,251.361   c11.402-29.737,49.548-51.637,94.897-51.722c45.753-0.086,84.259,22.069,95.386,52.173c0,0,0.015-0.033,0.031-0.099   C481.574,292.993,565.895,49.132,668.714,47.018z" class="colorC2B9F0 svgShape"/><path fill="#f0a97f" d="M1052.45,300.761l-0.434,0.001c-9.594-31.631-49.127-55.264-96.399-55.175   c-45.752,0.085-84.177,22.383-95.19,52.529c0,0-0.015-0.033-0.031-0.1c-0.016-0.044-0.031-0.099-0.062-0.177   c-0.483-1.413-2.806-8.114-6.748-18.479c-22.124-58.032-95.254-230.899-182.405-232.35c47.225,0.022,92.464,6.82,134.332,19.247   C931.677,103.701,1027.007,192.284,1052.45,300.761z" class="color937FF0 svgShape"/><path fill="#f0a97f" d="M860.286,297.694c-21.564-69.182-168.991-68.888-190.281,0.372c-21.45-69.09-168.566-68.937-190.189,0.05   C591.758-31.808,745.222-41.386,860.286,297.694z" class="color937FF0 svgShape"/><path fill="#f0ceb9" d="M855.555,288.104c-15.163-24.871-50.002-42.238-90.53-42.162c-45.535,0.085-83.805,22.184-95.02,52.119   c-0.25-0.673-0.53-1.347-0.81-2.009l-0.481-249.039c0.403-0.012,0.822-0.012,1.225-0.013c0.419-0.001,0.822-0.001,1.241,0.009   c87.151,1.45,160.281,174.318,182.405,232.35L855.555,288.104z" class="colorC2B9F0 svgShape"/><rect width="13.829" height="10.404" x="661.482" y="540.53" fill="#dec3b3" transform="translate(-1.027 1.26)" class="colorB3C1DE svgShape"/><rect width="13.83" height="10.388" x="661.496" y="556.406" fill="#dec3b3" transform="translate(-1.048 1.25)" class="colorB3C1DE svgShape"/><path fill="#cbb6a9" d="M825.846,630.559c0.011,2.556-1.689,4.65-3.817,4.661c-1.058,0.011-2.016-0.507-2.714-1.34   c-0.698-0.822-1.137-1.993-1.137-3.266l-0.011-2.657c-0.034-5.157-3.232-9.661-7.477-10.101c-4.887-0.506-8.985,4.167-8.952,9.932   l0.034,7.578l0.079,18.894l0.034,6.959l0.011,3.67l0.034,6.97v0.698l0.011,3.828l0.011,1.971v1.7l0.777,191.882l0.045,9.266   l-7.679,0.057l-0.822-201.205v-1.644l-0.011-2.027l-0.011-3.828v-0.642l-0.034-6.97l-0.011-3.671l-0.034-6.97l-0.101-26.461   c-0.034-5.292,1.723-10.1,4.583-13.591c2.905-3.558,6.981-5.754,11.463-5.698c8.726,0.101,15.663,8.952,15.719,19.491   L825.846,630.559z" class="colorAEA9CB svgShape"/><path fill="#c28763" d="M825.846,630.559c0.011,2.556-1.689,4.65-3.817,4.661c-1.058,0.011-2.016-0.507-2.714-1.34   c-0.698-0.822-1.137-1.993-1.137-3.266l-0.011-2.657c-0.034-5.157-3.232-9.661-7.477-10.101c-4.887-0.506-8.985,4.167-8.952,9.932   l0.034,7.578l0.079,18.894l0.034,6.959l0.011,3.67l0.034,6.97v0.698h-7.679v-0.642l-0.034-6.97l-0.011-3.671l-0.034-6.97   l-0.101-26.461c-0.034-5.292,1.723-10.1,4.583-13.591c2.905-3.558,6.981-5.754,11.463-5.698   c8.726,0.101,15.663,8.952,15.719,19.491L825.846,630.559z" class="color7463C2 svgShape"/><polygon fill="#c28763" points="801.952 678.357 801.952 680.057 794.273 680.057 794.273 678.414 794.262 676.387 801.941 676.387" class="color7463C2 svgShape"/><path fill="#c28763" d="M873.685,461.874l-15.72,64.749c0,0-46.225,9.548-52.844,9.765c-15.569,0.516-59.981-29.291-59.981-29.291   c-16.037,0.221-20.841-17.278-7.087-23.169c15.717-6.731,18.446,8.732,18.446,8.732l43.122,8.585   c6.35-1.374,18.407-8.328,31.277-16.058C847.153,475.429,864.702,464.435,873.685,461.874z" class="color7463C2 svgShape"/><path fill="#b37754" d="M869.252,463.507l-13.86,57.09c0,0-46.225,9.547-52.844,9.765c-15.569,0.516-59.981-29.291-59.981-29.291   c-5.712,0.079-9.989-2.096-12.521-5.188c0.615,5.865,6.08,11.339,15.095,11.215c0,0,44.412,29.807,59.981,29.291   c6.619-0.217,52.844-9.765,52.844-9.765l15.72-64.75C872.383,462.246,870.884,462.811,869.252,463.507z" class="color6554B3 svgShape"/><polygon fill="#875e2b" points="855.446 578.135 853.918 577.981 839.745 853.374 859.713 853.374 910.447 577.222" class="color392B87 svgShape"/><polygon fill="#694921" points="900.499 577.387 886.062 633.366 884.959 680.29 849.796 853.375 859.713 853.375 910.447 577.222" class="color2C2169 svgShape"/><polygon fill="#e0824a" points="854.394 578.029 853.918 577.981 853.915 578.037" class="color524AE0 svgShape"/><polygon fill="#966930" points="932.563 577.779 877.087 577.305 914.212 853.175 932.734 853.374 934.09 577.613" class="color3F3096 svgShape"/><path fill="#ffffff" d="M885.563,458.005c0,0-32.1,3.142-32.939,38.056c-0.411,17.09-2.292,73.281-2.149,96.207   c0.021,3.335,2.424,6.179,5.708,6.758c28.059,4.946,48.445-3.711,74.542-1.886c4.914,0.344,9.078-3.556,9.025-8.482   c-0.54-50.506,14.435-88.3-9.793-117.311c-10.505-12.579-30.799-14.272-30.799-14.272L885.563,458.005z" class="colorFFF svgShape"/><path fill="#ffdcc7" d="M899.158,457.076c-9.709,12.148-15.001,5.976-14.382,0.981l0.299-2.21l0.701-5.184l1.413-10.454   l7.386-0.507l1.015,3.85l1.7,6.438L899.158,457.076z" class="colorFFC9C7 svgShape"/><path fill="#fbb890" d="M897.289,449.989c-1.09,1.033-2.251,2.041-3.349,2.748c-4.255,2.741-7.957,2.953-8.865,3.11l0.701-5.184   l9.814-7.111L897.289,449.989z" class="colorF5AEAC svgShape"/><path fill="#deccc1" d="M868.177,426.67c0,0-9.195-14.338-2.627-20.599c6.569-6.261,12.002,1.775,17.792,0.948   c5.79-0.826,14.769-0.116,15.832,4.02c1.063,4.136,11.374,14.653,2.494,23.513c-8.88,8.86-14.197,7.323-14.197,7.323   L868.177,426.67z" class="colorC1C5DE svgShape"/><path fill="#ffdcc7" d="M867.748,420.74c-0.092,1.395-1.72,30.343,13.63,31.36c15.35,1.017,16.553-17.124,16.553-17.124   s4.752-6.663,3.542-9.547c-1.21-2.883-4.698-3.216-8.821,0.246c0,0-7.694-0.153-15.755-7.669c-1.976-1.843-5.038-1.582-6.771,0.491   C869.471,419.282,868.688,420.032,867.748,420.74z" class="colorFFC9C7 svgShape"/><path fill="#5e4525" d="M839.745 853.375c-8.389 4.426-25.64 3.244-23.114 14.518l44.697 0c.319-5.125.925-10.014-1.615-14.518L839.745 853.375zM914.212 853.176c-8.389 4.426-26.378 3.443-23.852 14.717l44.658-.247c-.206-5.585.12-9.318-2.284-14.47H914.212z" class="color28255E svgShape"/><path fill="#c28763" d="M899.159 457.075c0 0 36.604-.228 43.358 42.059 6.755 42.288.228 107.486-2.146 134.99-1.636 4.239-20.124 1.083-35.877.449-9.126-.367-16.194-8.126-15.821-17.252C891.177 555.888 893.593 492.585 899.159 457.075zM884.776 458.057c-14.874 60.05 1.165 99.903-4.257 166.952-.245 3.034-2.021 5.777-4.745 7.134-11.035 5.497-20.731 1.548-34.045 1.32-1.95-.033-3.507-1.621-3.443-3.569.766-23.186 5.793-150.818 23.974-163.031C874.771 458.459 884.776 458.057 884.776 458.057z" class="color7463C2 svgShape"/><path fill="#ffdcc7" d="M834.152,621.011c-0.021,0.011-0.043,0.011-0.064,0.011c0,0.032-1.659,4.635-8.959,10.083   c-10.639,7.963-24.34,6.026-25.806-10.083c-1.338-14.739,20.016-15.37,23.676-15.37c0.332,0,0.525,0.011,0.525,0.011l2.173-1.541   L834.152,621.011z" class="colorFFC9C7 svgShape"/><path fill="#c28763" d="M938.165,491.803c-6.973-9.764-24.183-12.525-33.635,0.118c-9.533,12.75-13.729,60.66-13.729,60.66   l-68.877,51.54l12.984,21.41c3.115-0.642,78.658-31.643,90.468-43.712C937.521,569.407,948.49,506.259,938.165,491.803z" class="color7463C2 svgShape"/><path fill="#b37754" d="M938.165,491.803c-2.564-3.59-6.514-6.228-10.952-7.507c2.703,1.557,5.019,3.676,6.665,6.211   c9.676,14.899-4.072,77.5-16.754,89.363c-10.579,9.896-68.632,31.638-86.901,37.936l4.685,7.725   c3.115-0.642,78.658-31.643,90.468-43.712C937.521,569.407,948.49,506.259,938.165,491.803z" class="color6554B3 svgShape"/><path fill="#deccc1" d="M868.289 437.2c0 0 1.03-.619 3.958.089 2.363.571 4.266-.335 5.979-.749 1.713-.414 4.079-2.309 7.136-2.619 3.308-.335 1.815-9.794 1.815-9.794l5.51-.21c0 0-1.501 7.247-1.42 9.216.081 1.969 3.244 2.915 2.377 5.987-.867 3.072 1.134 5.301-.643 7.68-1.735 2.324-1.735 4.49-6.026 6.184-2.715 1.072-3.741-.473-6.577.236-2.836.709-7.286-.827-8.074-3.309-.788-2.481-4.963-4.293-4.451-6.774C868.388 440.656 866.849 438.354 868.289 437.2zM729.982 438.341c0 0-9.547-8.146-6.489-14.481 2.485-5.148 5.947-2.58 7.518-3.511 1.571-.932 3.623-4.65 8.187-5.368 2.418-.38 7.4-.196 10.458 3.964 1.841 2.504 6.44-.423 10.627 3.572 3.733 3.563 6.451 8.777 3.55 15.049-2.9 6.272 4.036 5.441 3.16 12.857-.332 2.81-1.529 6.86-6.534 8.223-3.564.97-9.758.653-13.177 1.696-3.419 1.044-13.594 3.617-15.811.646-2.217-2.971-2.275-8.173-1.237-9.661C731.271 449.839 732.619 440.864 729.982 438.341z" class="colorC1C5DE svgShape"/><polygon fill="#ffdcc7" points="740.352 588.014 739.773 646.902 738.882 737.43 737.733 854.012 722.191 854.664 713.32 738.502 701.949 589.624" class="colorFFC9C7 svgShape"/><polygon fill="#ffdcc7" points="777.083 589.547 778.771 738.844 767.598 854.811 751.594 853.839 752.451 737.245 753.12 646.707 740.352 588.014" class="colorFFC9C7 svgShape"/><path fill="#d6804d" d="M805.95,753.129c-25.935,11.232-93.447,20.581-127.299-2.713c1.842-32.016,4.183-69.091,9.569-103.135   c2.788-17.64,6.393-34.465,11.168-49.352c0.435-1.357,0.882-2.7,1.337-4.022c2.093-6.089,4.396-11.819,6.938-17.108   c1.168-12.196,0.943-22.949,0.164-32.6c-2.262-28.142-6.079-46.208,3.031-64.017c7.216-14.105,27.507-14.607,27.507-14.607   l13.935,0.096c0,0,19.575,0.552,28.061,16.542c8.34,15.716-6.906,78.592-1.591,95.192c2.779,5.155,5.356,11.396,7.724,18.501   c4.79,14.379,8.731,32.287,11.778,51.865v0.003C803.614,682.056,806.253,718.673,805.95,753.129z" class="colorD64D77 svgShape"/><path fill="#fb600a" d="M710.436,584.718c-2.915,4.386-5.698,10.097-11.048,13.211c2.44-7.598,5.181-14.691,8.275-21.131   c1.168-12.196,0.943-22.949,0.164-32.6l5.774-10.08C717.314,551.554,717.142,574.627,710.436,584.718z" class="colorC73864 svgShape"/><path fill="#ffdcc7" d="M738.901,465.671c0.452,8.325,13.141,8.326,13.935-0.094l-0.824-3.875l-1.476-6.951l-1.321-6.208   l-7.157,0.048L741,454.308l-1.291,6.981L738.901,465.671z" class="colorFFC9C7 svgShape"/><path fill="#fbb890" d="M739.71,461.289c0,0,1.097,1.7,5.048,1.621c2.166-0.042,5.072-0.66,7.254-1.209l-1.476-6.951l-0.879-1.166   c0,0-5.533-2.294-6.166-1.897c-0.27,0.167-1.339,1.327-2.491,2.621L739.71,461.289z" class="colorF5AEAC svgShape"/><path fill="#ffdcc7" d="M728.688,427.971c-0.034,1.265-0.856,31.623,13.638,32.015c14.493,0.392,14.938-16.052,14.938-16.052   s4.222-6.188,2.973-8.754c-1.249-2.565-4.61-1.768-8.361,1.503c0.066-7.143-14.41-0.835-15.457-13.182   C734.26,425.997,731.878,427.953,728.688,427.971z" class="colorFFC9C7 svgShape"/><path fill="#573b18" d="M722.063 852.994c0 0-8.119 11.741-3.289 15.416 5.078 3.865 17.612 2.881 22.216-.932 5.14-4.258-3.244-14.751-3.244-14.751C731.696 853.989 727.878 854.033 722.063 852.994zM751.607 852.15c0 0-7.782 12.128-3.039 15.914 4.988 3.981 17.922 2.946 22.613-.759 5.237-4.138-3.362-14.791-3.362-14.791C761.888 854.649 757.566 854.359 751.607 852.15z" class="color182F57 svgShape"/><path fill="#cbb6a9" d="M742.479,864.188h-0.334c-1.574,0-2.851-1.276-2.851-2.851V596.883h6.036v264.455   C745.33,862.912,744.054,864.188,742.479,864.188z" class="colorAEA9CB svgShape"/><path fill="#fb600a" d="M777.191,586.659c2.915,4.386,4.737,8.543,10.088,11.658c-2.44-7.598-4.221-13.138-7.315-19.578   c-1.168-12.196-0.943-22.949,0.091-40.859l-5.774-10.079C770.313,553.496,770.484,576.569,777.191,586.659z" class="colorC73864 svgShape"/><path fill="#ffdcc7" d="M741.166,597.458c6.789,4.053,15.397-7.551,15.397-7.551s37.601-2.069,63.313-13.442   c13.907-6.151,4.659-30.141-8.422-53.386l-23.865,23.801l7.656,14.029l-42.713,18.629c0,0-9.423-2.034-16.491,0   C728.972,581.573,734.38,593.405,741.166,597.458z" class="colorFFC9C7 svgShape"/><path fill="#fbb890" d="M820.649 573.145c-24.598 12.416-61.295 16.319-61.295 16.319s-.063.094-.18.26c8.951-.701 39.043-3.679 60.701-13.259 5.446-2.409 7.517-7.507 7.235-14.214C826.881 567.17 824.924 570.987 820.649 573.145zM795.244 560.91l5.145-1.055c-4.277-.89-8.333-7.161-12.392-13.358l-.409.383L795.244 560.91z" class="colorF5AEAC svgShape"/><path fill="#d6804d" d="M755.399,465.993l10.68,59.262c8.174,9.201,23.204,27.29,23.204,27.29   c11.093-4.549,21.418-10.44,30.155-18.037C819.438,534.509,788.628,467.221,755.399,465.993z" class="colorD64D77 svgShape"/><path fill="#ffdcc7" d="M743.458,597.458c-6.789,4.053-15.397-7.551-15.397-7.551s-37.601-2.069-63.313-13.442   c-13.907-6.151-4.659-30.141,8.422-53.386l23.865,23.801l-7.656,14.029l42.713,18.629c0,0,9.423-2.034,16.491,0   C755.652,581.573,750.244,593.405,743.458,597.458z" class="colorFFC9C7 svgShape"/><path fill="#fbb890" d="M663.975 573.145c24.598 12.416 61.295 16.319 61.295 16.319s.063.094.18.26c-8.951-.701-39.043-3.679-60.702-13.259-5.446-2.409-7.517-7.507-7.234-14.214C657.743 567.17 659.7 570.987 663.975 573.145zM689.38 560.91l-5.145-1.055c4.277-.89 8.333-7.161 12.392-13.358l.409.383L689.38 560.91z" class="colorF5AEAC svgShape"/><path fill="#d6804d" d="M731.359,466.521l-12.353,59.05c-8.636,8.885-23.666,26.974-23.666,26.974   c-11.093-4.549-21.418-8.937-30.155-16.534C666.845,525.741,701.712,469.734,731.359,466.521z" class="colorD64D77 svgShape"/><path fill="#faa572" d="M613.703,569.405c-12.286,4.426-34.669-51.288-34.669-51.288s2.447-28.146,1.033-34.144   c19.311,13.186,28.339,39.359,37.502,59.535C619.998,548.856,627.932,564.28,613.703,569.405z" class="colorFA72BE svgShape"/><path fill="#d17705" d="M595.426,557.983c-1.226,13.173-12.624,25.535-26.418,24.552c-8.916-0.595-17.563-7.033-26.385-5.004   c-6.788,1.524-11.881,7.717-18.648,9.045c-11.682,2.146-17.694-11.476-18.772-21.227h-0.032   c-0.285-13.823-11.088-24.134-12.776-37.201c0.292-32.437,28.953-30.608,27.788-46.557c-0.405-3.979-2.394-9.511-2.456-13.52   c0.062-12.531,16.261-15.985,20.438-26.726c2.207-5.674,2.939-7.809,9.578-12.373c21.17-14.553,38.125,6.618,28.095,22.735   c0,0-6.951,14.704-7.205,15.153c17.547,11.704,16.173,35.358,19.145,53.953c1.215,9.988,6.84,18.892,7.708,28.904   C595.838,552.425,595.752,555.263,595.426,557.983z" class="color3F4883 svgShape"/><path fill="#f9dccb" d="M581.15,730.825c0,2.181,0,4.186-0.029,5.988c-0.059,6.482-1.512,12.818-4.215,18.72   c-5.726,12.353-16.336,40.521-23.661,91.679c0,0-14.563,4.738-15.522-0.146c-12.005-60.373-1.453-77.115,6.424-104.73   c-0.087-3.954-0.466-7.791-1.017-11.512c-5.901-39.968-34.242-69.297-13.371-130.629c0.087-0.29,0.174-0.61,0.29-0.901   l14.185,0.494h25.435c0.029,0.145,0.058,0.261,0.087,0.407c7.267,33.457,9.999,72.029,10.929,101.33v0.028   C581.063,713.008,581.15,723.036,581.15,730.825z" class="colorF9CBCB svgShape"/><path fill="#f9dccb" d="M574.414,835.471c0.275-47.848,3.752-61.6,17.749-97.076c-3.207-7.072-6.4-13.581-9.505-19.776   c-5.669-11.315-10.96-21.643-15.04-32.603c-9.149-24.707,6.246-84.504,6.302-84.642l22.289-7.643   c0.147,0.323,32.948,97.473,31.429,133.262c-0.243,5.751-0.548,11.045-0.815,15.815c-0.165,2.63-0.797,5.232-1.894,7.63   c-13.762,29.607-29.527,57.746-35.055,87.91L574.414,835.471z" class="colorF9CBCB svgShape"/><path fill="#d17705" d="M543.127,730.826c5.359,1.103,10.324,1.724,14.914,1.94c36.221,1.872,35.896-6.255,69.309,0.286   c2.128-35.541-7.142-74.825-25.71-132.422c-0.148-0.443-0.286-0.886-0.434-1.33h-31.994l-34.546-12.284   C502.759,652.543,537.226,690.576,543.127,730.826z" class="color3F4883 svgShape"/><path fill="#785932" d="M543.127,730.826c3.822-5.418-7.196-44.012-14.806-70.787c-3.536-12.44,4.26-44.348,9.615-50.281   c6.681-7.402,12.352-6.774,27.768-3.307c15.426,3.467,35.255-4.866,35.255-4.866s0.246-0.345,0.68-0.956   c-0.148-0.443-0.286-0.886-0.434-1.33h-31.994l-34.546-12.284C502.759,652.543,537.226,690.576,543.127,730.826z" class="color323B78 svgShape"/><path fill="#f9dccb" d="M564.144,466.693l-0.139,6.132l-0.064,2.346l-0.085,3.402c0.288,10.44-12.936,10.152-13.927,0l1.632-7.454   l0.843-3.85l1.248-5.641l0.437-1.973l3.69,2.591L564.144,466.693z" class="colorF9CBCB svgShape"/><path fill="#d17705" d="M574.427,833.427l-5.033,9.649l-1.003,16.267l3.121,0.739l5.463-13.386l3.363,10.19   c0.905,2.744,2.581,5.163,5.329,6.052c7.25,2.346,21.721,5.299,23.23,0.537c1.551-4.894-12.481-7.73-15.566-14.003   c-2.986-6.075-3.002-13.496-3.002-13.496L574.427,833.427z" class="color3F4883 svgShape"/><path fill="#d17705" d="M538.061,845.201l-3.182,10.407l1.992,16.175l3.203,0.156l2.921-14.16l5.171,9.402   c1.392,2.532,3.482,4.603,6.348,4.974c7.557,0.979,22.324,1.234,22.936-3.724c0.628-5.096-13.686-5.315-17.866-10.918   c-4.049-5.426-5.423-12.719-5.423-12.719L538.061,845.201z" class="color3F4883 svgShape"/><path fill="#f0c6ad" d="M564.144,466.693l-0.139,6.132c-5.557-0.286-9.665-1.917-11.602-5.556l1.247-5.641l0.437-1.973l3.69,2.591   L564.144,466.693z" class="colorF0ADAD svgShape"/><path fill="#f9dccb" d="M548.567,458.228c1.873,6.843,9.251,12.636,16.716,10.09c5.903-2.014,8.534-7.589,8.903-15.568   c0.132-2.859-1.404-15.644-1.404-15.644s-12.789-2.887-20.698,1.102c-1.825,0.92,1.27,8.358-0.893,8.559   c0,0-5.791-4.362-7.004-1.797C541.492,450.612,548.567,458.228,548.567,458.228z" class="colorF9CBCB svgShape"/><path fill="#faa572" d="M530.656,592.07c-0.64,1.743,0.355,3.536,1.99,4.078c0.365,0.128,0.778,0.177,1.201,0.157   c16.894-0.936,43.855,8.846,61.98,6.393c1.803-0.236,3.527-0.601,5.132-1.113c1.861-0.591,2.729-2.709,1.803-4.423   c-5.674-10.412-11.633-19.632-14.766-30.231c-2.758-9.289-3.339-19.652,0.365-32.832c12.411-44.2-4.866-51.627-24.4-56.277   c-4.975,9.082-9.388,6.472-13.772-0.65c0,0-12.254,4.393-15.987,6.531c-4.532,2.591-17.426,19.78-2.522,51.125   c0.916,1.921,1.724,3.763,2.443,5.546C541.601,558.982,538.546,570.684,530.656,592.07z" class="colorFA72BE svgShape"/><path fill="#d68656" d="M532.646 596.148c-.109-9.673 7.781-23.642 11.407-36.438 4.117-14.51-2.436-28.456-2.436-28.456-2.178 3.952-4.623 5.932-7.493 9.119 7.477 18.608 4.422 30.31-3.468 51.696C530.016 593.813 531.011 595.606 532.646 596.148zM569.517 574.526l5.506 5.152c.562-1.704 8.324-3.29 12.127-1.025 3.191 1.901 7.398 18.687 8.678 24.045 1.803-.236 3.527-.601 5.132-1.113 1.861-.591 2.729-2.709 1.803-4.423-5.674-10.412-11.633-19.632-14.766-30.231-4.157.749-9.309 1.665-9.565 1.596C577.999 568.428 569.517 574.526 569.517 574.526z" class="colorD6569C svgShape"/><path fill="#f9dccb" d="M588.932,508.723l-21.921-2.568l-8.953-16.462c0.611-1.23,0.144-2.212,0.362-3.483   c0.222-1.293,1.308-2.541,1-2.985c-0.871-1.255-3.013,1.82-3.013,1.82s-0.188-4.319-1.554-4.562   c-1.366-0.243-0.772,4.56-0.772,4.56s-1.146-5.495-2.616-5.319c-1.469,0.176,0.974,6.267,0.974,6.267s-1.974-5.568-2.938-5.155   c-1.22,0.522,1.071,6.025,1.071,6.025s-2.336-2.671-2.875-2.233c-0.539,0.438,1.167,3.934,4.428,6.375   c0,0,4.046,20.226,6.566,22.417c2.52,2.191,22.055,11.788,22.237,11.983C581.11,525.599,588.932,508.723,588.932,508.723z" class="colorF9CBCB svgShape"/><path fill="#50320b" d="M579.747,552.706c0,0-14.699,10.307-17.353,15.332c-3.456,6.543,5.581,26.345,5.581,26.345l10.18-2.886   c0,0-4.483-15.803-3.85-16.15c9.565-5.234,25.917-3.148,24.977-19.258C595.059,544.819,589.192,540.829,579.747,552.706z" class="color0B2D50 svgShape"/><path fill="#50320b" d="M568.621,549.809c0,0-15.124,8.873-17.777,13.897c-3.455,6.543-0.993,28.516-0.993,28.516l10.741,0.686   c0,0,1.53-21.546,2.163-21.892c9.565-5.234,25.094-1.263,24.155-17.374C584.896,545.68,579.335,543.525,568.621,549.809z" class="color0B2D50 svgShape"/><path fill="#fbc19e" d="M597.713,505.298c6.719,3.364,12.027,9.818,10.073,16.397c-3.722,12.531-1.804,21.568-8.745,33.626   c-7.986-7.818-15.419-5.115-29.062-6.275l5.4-29.939l10.177-13.632L597.713,505.298z" class="colorFBE79E svgShape"/><path fill="#f9dccb" d="M588.261,505.374v0.077c-0.019,5.209,9.218,5.732,9.805-0.142c-0.323-1.924-1.135-5.646-1.439-7.467   l-6.591-0.045L588.261,505.374z" class="colorF9CBCB svgShape"/><path fill="#ebc6b0" d="M588.259,505.451c1.399-1.93,3.476-5.994,8.815-4.819l-0.445-2.715l-6.594-0.043L588.259,505.451z" class="colorEBB0B0 svgShape"/><path fill="#f9dccb" d="M579.284,481.283c0.916-0.501,1.934-0.083,2.57,0.278v0.028c0.359,0.216,0.541,0.32,0.687,0.473   c0.001,1.71-0.091,5.216-0.102,6.955C577.46,487.129,577.725,481.945,579.284,481.283z" class="colorF9CBCB svgShape"/><path fill="#f9dccb" d="M581.957,485.751c0.184,18.277,21.494,17.962,22.316-0.001   C604.461,468.156,581.763,468.181,581.957,485.751z" class="colorF9CBCB svgShape"/><path fill="#f9dccb" d="M603.533,482.162c0.025,0.517,0.045,1.807,0.053,2.337l0.052,2.576l0.049,2.43   c0.028-0.013,0.052-0.031,0.073-0.04c0.016-0.009,0.032-0.013,0.056-0.013c0,0,0,0,0-0.031c6.013-2.474,4.846-9.291,1.237-8.116   c-0.246,0.075-0.509,0.194-0.78,0.358c-0.105,0.04-0.242,0.124-0.368,0.221C603.747,481.99,603.606,482.109,603.533,482.162z" class="colorF9CBCB svgShape"/><path fill="#d17705" d="M604.206,487.722c0,0,0.717-4.74-4.923-8.116c0,0-0.317,2.882,1.807,4.301c0,0-6.6-1.299-7.958-5.354   c0,0,0.52,3.164,1.358,4.055c0,0-4.224-0.813-5.176-4.178c0,0-1.81,3.308,1.137,4.906c0,0-5.832-1.438-5.871-4.794   c0,0-3.531,5.406-1.881,8.101c0,0-5.368-4.888-1.536-12.304c2.163-4.186,6.284-3.909,6.284-3.909s0.112-1.945-0.706-2.428   c1.226,0.089,2.495,0.639,2.586,2.359c0,0,0.716-2.437,0.246-3.371c0,0,1.708,1.34,1.518,2.541c0,0,5.038-0.658,8.847,0.847   C606.725,473.061,607.674,482.732,604.206,487.722z" class="color3F4883 svgShape"/><path fill="#f9dccb" d="M604.064,509.951l22.043,1.114l11.566-14.743c-0.398-1.315,0.226-2.205,0.222-3.495   c-0.003-1.312-0.867-2.723-0.49-3.11c1.067-1.093,2.669,2.296,2.669,2.296s0.904-4.227,2.291-4.24   c1.388-0.012,0.002,4.625,0.002,4.625s2.044-5.228,3.464-4.809c1.42,0.418-2.002,6.018-2.002,6.018s2.872-5.162,3.755-4.595   c1.116,0.717-2.058,5.763-2.058,5.763s2.665-2.659,3.206-1.724c0.348,0.601-1.805,3.685-5.427,5.55c0,0-7.355,19.271-10.204,21.012   c-2.849,1.741-23.709,7.955-23.921,8.117C608.969,527.893,604.064,509.951,604.064,509.951z" class="colorF9CBCB svgShape"/><path fill="#fbc19e" d="M598.112 505.607l7.284 24.25c0 0 .78-.186 1.986-.48 0 0 0 0 .007 0 3.825-.92 11.875-2.865 12.502-3.065.773-.247.839-1.413.586-3.059-.567-3.665-2.719-9.716-2.193-13.261L598.112 505.607zM563.826 518.662l10.409 4.285 1.906.786 9.416-18.259-15.54-.173c-2.499 2.106-2.832 7.137-5.165 11.629C564.546 517.522 564.206 518.102 563.826 518.662z" class="colorFBE79E svgShape"/><path fill="#f0b089" d="M606.942 519.342l-1.096 10.407c0 0 1.536-.372 1.543-.372 3.825-.92 11.875-2.865 12.502-3.065.773-.247.839-1.413.586-3.059C616.057 525.572 608.884 527.454 606.942 519.342zM563.826 518.662l10.409 4.285 1.897-6.018c-2.76 1.859-6.577 2.639-11.28 0C564.546 517.522 564.206 518.102 563.826 518.662z" class="colorF0DA89 svgShape"/><path fill="#d9c3b6" d="M549.638 591.42c-5.4 4.057-16.566 4.177-14.401 9.805l24.82 1.278c1.483-2.66 1.605-7.266.322-10.397L549.638 591.42zM567.763 593.581c-2.743 6.173-11.131 13.477-6.501 17.339l22.304-10.964c0-3.046-2.874-7.195-5.519-9.306L567.763 593.581z" class="colorC4B6D9 svgShape"/><path fill="#f9dccb" d="M551.843,582.644c0,0,10.698-3.381,11.305-1.825c1.016,2.601-4.179,3.971-3.35,4.832   c0.829,0.861,16.768-2.164,15.997,1.159c-0.771,3.322-6.105,8.528-13.92,8.479c-4.98-0.031-13.159-2.493-13.159-2.493   L551.843,582.644z" class="colorF9CBCB svgShape"/><path fill="#faa572" d="M492.987,562.006c1.645,12.284,41.53,27.237,57.134,31.492c-0.029-0.108-0.049-0.207-0.068-0.315v-0.01   c-0.02-0.099-0.04-0.187-0.049-0.276c-0.03-0.128-0.05-0.266-0.06-0.394c-0.03-0.167-0.049-0.325-0.059-0.473v-0.069   c-0.02-0.148-0.03-0.295-0.03-0.433c-0.158-3.28,1.182-6.216,2.818-9.141c0.039-0.069,0.078-0.148,0.117-0.217   c-6.245-2.748-14.736-9.338-21.661-15.239c-6.906-5.881-12.254-11.072-12.254-11.072s2.404-2.177,5.802-5.605   c0.01-0.01,0.02-0.02,0.02-0.02c6.619-6.669,16.963-18.066,20.568-27.286c-3.053-28.459-2.335-41.284-8.403-40.457   c-0.857,0.118-1.832,0.532-2.905,1.212c-0.207,0.128-0.415,0.266-0.631,0.423c-0.217,0.148-0.433,0.305-0.65,0.473   c-0.207,0.158-0.414,0.325-0.63,0.493c-0.03,0.02-0.059,0.049-0.089,0.069c-0.207,0.177-0.423,0.365-0.65,0.562   c-0.502,0.443-1.034,0.926-1.566,1.458c-0.197,0.197-0.404,0.394-0.601,0.601c-2.492,2.542-5.23,5.871-8.038,9.732   c-0.286,0.384-0.571,0.768-0.847,1.172c-4.147,5.802-8.442,12.697-12.353,19.839c-0.286,0.522-0.572,1.054-0.857,1.586   c-0.335,0.621-0.669,1.231-0.985,1.852c-0.266,0.493-0.522,0.985-0.769,1.478c-0.798,1.547-1.576,3.093-2.324,4.64   c-0.444,0.916-0.877,1.832-1.301,2.738c-1.783,3.852-3.378,7.644-4.709,11.24c-0.158,0.433-0.316,0.857-0.472,1.291   c-1.005,2.837-1.832,5.536-2.443,8.048c-0.069,0.305-0.148,0.601-0.207,0.896c-0.059,0.256-0.118,0.522-0.167,0.768   c-0.079,0.355-0.148,0.709-0.207,1.054c-0.06,0.266-0.109,0.532-0.148,0.788c-0.049,0.296-0.098,0.571-0.137,0.857   c-0.098,0.68-0.177,1.33-0.227,1.97c-0.029,0.246-0.039,0.473-0.049,0.709C492.82,559.74,492.84,560.932,492.987,562.006z" class="colorFA72BE svgShape"/><path fill="#eb935e" d="M533.955,483.708c-14.415,11.733-40.36,60.115-38.078,77.163c1.573,11.754,37.164,25.737,53.979,30.661   c0.03,0.641,0.11,1.293,0.263,1.962c-15.602-4.252-55.482-19.204-57.126-31.484C490.607,544.193,520.162,492.386,533.955,483.708z" class="colorEB5EAC svgShape"/><path fill="#eb935e" d="M512.127,555.987c0,0,3.664,1.557,6.55,1.99c2.897,0.443,8.511,8.718,12.452,8.954   c-6.906-5.881-12.254-11.072-12.254-11.072s2.404-2.177,5.802-5.605C524.194,550.618,515.88,556.854,512.127,555.987z" class="colorEB5EAC svgShape"/><path fill="#f9dccb" d="M578.246,563.018c0,0-10.8-5.396-10.828-3.726c-0.029,1.67,3.44,4.625,2.477,5.332   c-0.964,0.707-16.154-4.991-15.961-1.586c0.193,3.405,4.561,9.444,12.271,10.729c4.913,0.819,13.391-0.213,13.391-0.213   L578.246,563.018z" class="colorF9CBCB svgShape"/><path fill="#faa572" d="M617.57,543.508c-12.392,9.652-21.94,16.754-40.091,19.016c0.997,4.673,0.543,8.161-0.674,11.628   c0,0,25.89,2.315,39.381-4.624C629.149,562.862,617.57,543.508,617.57,543.508z" class="colorFA72BE svgShape"/><path fill="#eb935e" d="M615.597,567.58c6.962-3.58,6.843-10.817,5.244-16.752c2.073,6.207,3.09,14.717-4.656,18.701   c-13.491,6.938-39.381,4.624-39.381,4.624C577.021,573.535,603.801,573.647,615.597,567.58z" class="colorEB5EAC svgShape"/><path fill="#d17705" d="M574.193,451.034c-0.253-0.071-0.427-6.449-6.108-14.102c-3.421,10.436-8.561,13.378-14.843,15.581   c0,0-3.928-6.929-3.16-10.769c0.039-0.193-2.657-3.382-2.503-3.846c0.155-0.464,5.45-5.914,5.991-6.107   c0.541-0.193,9.238-1.817,9.972-1.817c0.734,0,12.695,8.552,12.888,8.822C576.625,439.068,574.193,451.034,574.193,451.034z" class="color3F4883 svgShape"/><path fill="#ffdcc7" d="M649.861,774.071c1.706,17.529,1.821,50.327-5.315,72.511l-2.612,10.019l-7.997,3.69l1.514-11.698   c-1.774-29.357-10.697-75.841-10.85-80.248c-0.939-25.158,17.472-93.369,18.657-97.785l0.048-0.169l0.016-0.063l32.655-0.745   C688.52,721.128,667.115,730.521,649.861,774.071z" class="colorFFC9C7 svgShape"/><path fill="#ffdcc7" d="M685.091,866.446l5.922-16.866c-3.724-21.685-19.549-56.948-27.72-68.078   c-15.204-20.708-14.383-118.339-14.383-118.339l29.836,6.421c16.208,26.503,3.297,95.87,10.522,107.997   c7.851,13.178,12.341,45.958,10.889,71.891l0.648,9.547L685.091,866.446z" class="colorFFC9C7 svgShape"/><path fill="#ad846b" d="M708.809,754.506c0,0-1.616,1.655-4.088,3.329c-3.093,2.108-7.516,4.255-11.781,3.29   c0,0-8.521,11.919-21.888,3.694c-10.126,5.782-20.263,5.782-30.399,0c-13.358,8.225-21.878-3.694-21.878-3.694   c-1.635-34.369,13.761-56.858,21.267-98.644l7.615-0.355l34.073-1.566C682.449,663.22,696.318,728.057,708.809,754.506z" class="color7E6BAD svgShape"/><path fill="#9e7258" d="M708.809,754.506c0,0-1.616,1.655-4.088,3.329c-0.01,0-0.01,0-0.02,0   c-18.854-6.107-15.575-89.535-32.411-85.875c-13.298,2.891-27.303,5.268-34.201,0.253c0,0,4.81-4.334,9.568-10.087l34.073-1.566   C682.449,663.22,696.318,728.057,708.809,754.506z" class="color6C589E svgShape"/><path fill="#d17705" d="M703.112 858.314c-.468 2.828-1.282 14.113-1.01 15.201l-2.946.552-1.501-9.333c0 0-3.863 1.198-5.7 4.415-1.837 3.217-3.039 6.04-7.666 6.667-4.627.627-11.508 1.911-11.242-1.048.266-2.958 10.107-9.088 12.894-14.094 3.095-5.557 4.681-11.888 4.681-11.888 3.618 1.258 6.058 1.117 9.368-.684C699.99 848.104 703.58 855.486 703.112 858.314zM647.206 856.922c-.595 2.805-1.916 14.041-1.693 15.141l-2.969.419-1.079-9.391c0 0-3.913 1.022-5.892 4.154-1.98 3.131-3.308 5.897-7.958 6.315-4.651.418-11.583 1.391-11.184-1.552.399-2.943 10.505-8.624 13.515-13.499 3.342-5.413 5.21-11.665 5.21-11.665 3.558 1.42 6.002 1.39 9.39-.262C644.547 846.582 647.801 854.118 647.206 856.922zM681.744 627.162c1.54-6.264 8.936-10.849 7.878-17.212-.264-1.59-1.061-3.036-1.91-4.407-3.78-6.105-9.036-11.979-9.135-19.158-.059-4.323 1.811-8.403 2.869-12.595 1.059-4.191 1.111-9.162-1.918-12.247-2.809-2.862-7.402-3.21-10.442-5.826-2.993-2.575-4.188-7.098-7.755-8.794-1.538-.731-3.31-.806-5.006-.647-9.959.935-18.299 10.532-17.833 20.525.139 2.982 3.166 5.989 5.993 6.949-3.735 8.36-6.129 17.375-3.93 24.308 3.638 11.47-4.013 24.866-5.492 31.174-1.525 6.504 3.156 13.797 9.704 15.12 2.31.466 4.705.273 7.039.595 5.433.75 10.07 4.185 15.187 6.159 5.117 1.974 11.955 1.95 14.961-2.637C685.934 642.395 680.01 634.216 681.744 627.162z" class="color3F4883 svgShape"/><path fill="#ffdcc7" d="M640.731 597.214l1.044 28.749c0 0-13.262 13.951-18.48 17.102-3.616 2.187-7.112 3.823-9.488 3.771-10.401-.207-34.697-22.937-34.697-22.937-9.574-.689-16.359-5.2-19.269-13.93-3.099-9.316 11.313 2.807 16.152 2.6 0 0 .499-8.954 2.583-8.92 3.323.069 4.839 12.45 4.839 12.45s31.047 16.651 31.047 15.67c0-.275 1.825-3.065 4.46-6.991 4.03-5.975 9.953-14.585 14.155-20.629 0-.017.017-.017.017-.017C635.848 600.136 640.731 597.214 640.731 597.214zM743.678 585.654c-.068 10.539-9.212 14.017-17.065 16.049-2.772 6.251-17.409 29.514-25.416 29.893-3.048.138-7.422-.12-12.243-.724-2.858-.361-5.854-.844-8.833-1.429-7.542-1.464-14.844-3.616-18.855-6.199-7.06-4.546-8.248-24.59 2.755-26.484.62-.103 1.326-.086 2.084.052 5.528.964 14.361 7.835 22.73 13.844 3.892 2.79 7.68 5.39 11.003 7.129 6.406-6.01 11.675-12.243 20.147-20.801 0 0 .517-10.797 5.252-14.998 4.116-3.651 2.755 8.507 2.755 8.507C736.032 589.443 743.712 579.49 743.678 585.654zM647.582 554.82c0 0-8.214 23.705-2.438 28.489 5.921 4.905 14.949 3.415 19.074-3.407 0 0 7.57-.787 6.556-6.153-1.013-5.366-6.752-1.363-6.752-1.363S651.401 566.559 647.582 554.82z" class="colorFFC9C7 svgShape"/><path fill="#fec19c" d="M690.073,631.984c-2.867-0.364-10.432-1.645-13.417-2.226c0.581,12.264,4.728,24.567,7.477,35.433   c0.453,1.773-0.946,3.438-2.778,3.33c-0.995-0.069-1.99-0.109-2.975-0.118c-20.341-0.414-38.082,8.077-42.052,2.453   c-2.029-2.876,0.759-8.481,0.788-38.142c-3.576,3.211-6.551,5.822-10.885,10.205l-10.796-14.51   c10.245-19.396,20.105-31.424,32.645-34.221c3.191-0.719,6.56-0.827,10.146-0.325c9.417,1.34,20.361,6.994,33.768,17.505   C692.083,616.715,690.172,627.61,690.073,631.984z" class="colorFEE69C svgShape"/><path fill="#ffdcc7" d="M656.583,581.312l1.646,12.554c-3.806,4.925-7.583,5.305-10.338,0.363l1.007-11.047L656.583,581.312z" class="colorFFC9C7 svgShape"/><path fill="#eba981" d="M681.356,668.52c-0.995-0.069-1.99-0.109-2.975-0.118c-0.364-3.625,0.636-8.242,0.335-11.407   c-0.749-7.898-3.052-22.022-6.233-27.226c-1.93-3.158-2.889-5.153-2.889-5.153c3.468,2.955,7.063,5.142,7.063,5.142   c0.581,12.264,4.728,24.567,7.477,35.433C684.587,666.963,683.188,668.628,681.356,668.52z" class="colorEBD081 svgShape"/><path fill="#e6a883" d="M346.834,200.397v192.775c-23.063,0.004-43.958-9.322-59.107-24.414   c-24.013-23.925-24.627-53.589-24.639-59.168c4.236-7.96,9.692-20.724,11.333-37.193c2.748-27.527-6.823-48.747-11.508-57.657   c12.619-2.808,28.138-9.795,43.981-20.193l39.845,5.865L346.834,200.397z" class="color9583E6 svgShape"/><path fill="#e6a27a" d="M430.569,309.282c0.008,5.575-0.492,35.243-24.417,59.256c-15.126,15.179-36.045,24.593-59.168,24.635   h-0.149V200.397l39.498-5.998c15.881,10.337,31.427,17.266,44.057,20.029c-4.652,8.925-14.141,30.183-11.295,57.703   C420.8,288.592,426.303,301.333,430.569,309.282z" class="color8E7AE6 svgShape"/><path fill="#e69a6c" d="M346.834,208.322v175.093c-19.712,0-38.25-7.654-52.22-21.571c-18.373-18.305-21.326-40.726-21.716-49.98   c6.121-12.165,9.898-25.1,11.234-38.498c2.099-21.029-2.217-39.006-7.624-52.445c10.505-3.713,21.929-9.406,33.274-16.622   L346.834,208.322z" class="color836CE6 svgShape"/><path fill="#e69463" d="M420.766,311.59c-0.355,9.257-3.228,31.69-21.529,50.056c-13.947,14-32.511,21.731-52.269,21.769h-0.134   V208.322l36.647-4.159c11.371,7.17,22.819,12.821,33.335,16.496c-5.357,13.462-9.604,31.454-7.429,52.475   C410.772,286.524,414.599,299.448,420.766,311.59z" class="color7C63E6 svgShape"/><path fill="#ffffff" d="M346.825,213.731v164.601c-18.394,0-35.698-7.145-48.734-20.129   c-16.565-16.502-19.683-36.698-20.212-45.632c5.994-12.194,9.705-25.156,11.04-38.543c1.687-16.905-0.435-33.659-6.303-49.864   c9.251-3.623,19.09-8.658,28.755-14.727l35.354,4.307L346.825,213.731z" class="colorFFF svgShape"/><path fill="#fff2eb" d="M415.774,312.287c-0.492,8.936-3.539,29.147-20.035,45.708c-13.022,13.059-30.345,20.276-48.782,20.314   h-0.121v-65.4l0.242,0.149l45.801-47.166l-19.524-15.577l-26.518,40.441v-77.056l35.064-4.421   c9.688,6.028,19.543,11.025,28.813,14.611c-5.805,16.236-7.867,32.992-6.121,49.897   C405.975,287.162,409.737,300.11,415.774,312.287z" class="colorEFEBFF svgShape"/><polygon fill="#e69463" points="392.878 265.892 347.078 313.058 346.836 312.909 346.836 290.757 373.354 250.315" class="color7C63E6 svgShape"/><polygon fill="#e6a27a" points="346.836 290.757 346.836 312.909 313.565 292.299 327.135 272.858 346.827 290.775" class="color8E7AE6 svgShape"/><path fill="#f7e0d2" d="M255.788 659.03c-.584-.062-1.008-.587-.945-1.171.063-.585.584-1.009 1.171-.945 1.47.157 2.987.162 4.457.014.586-.061 1.107.368 1.165.953.059.585-.367 1.106-.952 1.165-.784.079-1.583.119-2.376.119C257.467 659.164 256.619 659.119 255.788 659.03zM264.144 657.358c-.18-.56.128-1.159.688-1.339 1.413-.454 2.784-1.059 4.074-1.8.509-.293 1.16-.117 1.453.393.293.51.117 1.16-.393 1.453-1.42.815-2.928 1.482-4.483 1.981-.108.035-.218.051-.326.051C264.707 658.097 264.289 657.809 264.144 657.358zM250.997 658.001c-1.552-.509-3.057-1.185-4.47-2.008-.508-.296-.68-.947-.384-1.455.296-.508.948-.681 1.455-.384 1.285.748 2.652 1.362 4.063 1.825.558.183.863.785.679 1.343-.147.448-.563.733-1.011.733C251.219 658.055 251.107 658.037 250.997 658.001zM272.435 653.113c-.392-.438-.355-1.111.084-1.503 1.108-.992 2.116-2.102 2.994-3.3.348-.474 1.013-.576 1.487-.229.474.348.577 1.014.229 1.488-.965 1.317-2.073 2.537-3.292 3.628-.203.182-.457.271-.71.271C272.936 653.468 272.645 653.348 272.435 653.113zM242.574 653.101c-1.212-1.097-2.312-2.324-3.27-3.648-.345-.476-.238-1.141.238-1.486.476-.344 1.141-.238 1.486.238.872 1.204 1.872 2.32 2.974 3.318.436.395.469 1.067.075 1.503-.21.232-.499.35-.789.35C243.033 653.376 242.777 653.285 242.574 653.101zM278.29 645.87c-.536-.242-.775-.872-.533-1.408.61-1.354 1.078-2.777 1.392-4.23.124-.574.691-.94 1.265-.816.574.124.94.69.816 1.265-.345 1.598-.86 3.165-1.532 4.655-.178.394-.565.627-.971.627C278.581 645.965 278.432 645.934 278.29 645.87zM236.86 645.205c-.662-1.495-1.168-3.065-1.503-4.665-.12-.576.248-1.139.824-1.26.575-.121 1.139.249 1.26.824.304 1.455.764 2.881 1.366 4.239.238.537-.004 1.166-.542 1.404-.14.062-.286.091-.431.091C237.425 645.839 237.036 645.602 236.86 645.205zM279.628 635.808v-.092c0-1.494-.155-2.984-.461-4.432-.122-.575.246-1.14.821-1.261.574-.121 1.14.246 1.261.821.336 1.592.507 3.231.507 4.872v.092c0 .588-.477 1.064-1.064 1.064C280.105 636.872 279.628 636.396 279.628 635.808zM235.922 636.733c-.588-.001-1.063-.479-1.062-1.066.003-1.641.177-3.28.517-4.871.123-.575.686-.94 1.263-.818.575.123.941.688.818 1.263-.309 1.446-.467 2.937-.47 4.43-.001.587-.477 1.062-1.064 1.062C235.924 636.733 235.923 636.733 235.922 636.733zM277.793 627.048c-.604-1.355-1.354-2.653-2.23-3.857-.345-.476-.24-1.141.235-1.487.476-.346 1.141-.241 1.487.235.963 1.325 1.788 2.752 2.452 4.243.239.537-.002 1.166-.539 1.405-.141.063-.288.093-.433.093C278.358 627.679 277.969 627.444 277.793 627.048zM237.435 627.544c-.536-.24-.777-.87-.536-1.406.667-1.489 1.495-2.915 2.46-4.236.347-.475 1.013-.578 1.487-.232.475.347.579 1.012.232 1.487-.877 1.202-1.63 2.498-2.236 3.852-.177.395-.565.629-.972.629C237.724 627.638 237.576 627.608 237.435 627.544zM272.582 619.879c-1.105-.997-2.317-1.88-3.601-2.624-.509-.295-.682-.946-.387-1.454.295-.509.946-.682 1.454-.387 1.412.818 2.744 1.789 3.959 2.884.436.394.471 1.067.078 1.503-.21.233-.5.352-.791.352C273.04 620.152 272.785 620.062 272.582 619.879zM242.563 619.77c-.393-.437-.357-1.11.081-1.503 1.217-1.093 2.551-2.061 3.965-2.877.509-.295 1.16-.119 1.454.39.294.509.119 1.16-.39 1.454-1.286.742-2.5 1.622-3.607 2.617-.203.183-.457.273-.711.273C243.063 620.123 242.773 620.005 242.563 619.77zM264.915 615.439c-1.41-.46-2.876-.771-4.356-.926-.585-.061-1.009-.585-.947-1.169.061-.585.587-1.008 1.169-.948 1.628.17 3.241.513 4.793 1.019.559.182.865.783.683 1.341-.146.449-.563.735-1.012.735C265.135 615.491 265.024 615.474 264.915 615.439zM250.403 614.74c-.181-.559.126-1.159.685-1.34 1.554-.502 3.167-.842 4.796-1.009.587-.059 1.108.365 1.168.95.06.585-.365 1.107-.95 1.168-1.481.152-2.947.46-4.359.917-.109.035-.219.052-.328.052C250.966 615.477 250.548 615.191 250.403 614.74zM272.206 630.784c-1.399-2.557-4.937-4.365-8.356-3.432-3.664 1-5.068 4.741-5.223 5.173 0 .163.001.327.001.491-.004-.164-.007-.327-.01-.491-.154-.431-1.558-4.173-5.223-5.173-3.419-.933-6.957.875-8.356 3.432-2.564 4.685 2.823 10.485 3.432 11.141 3.645 3.925 8.463 4.574 10.205 4.708.037.003.072.005.106.008.045-.004.092-.008.142-.013 1.742-.174 6.333-.91 9.849-4.702C269.396 641.255 274.767 635.463 272.206 630.784zM309.406 669.74c0-2.448 1.985-4.433 4.433-4.433 2.448 0 4.433 1.985 4.433 4.433 0 2.448-1.984 4.433-4.433 4.433C311.39 674.173 309.406 672.188 309.406 669.74z" class="colorD2D4F7 svgShape"/><circle cx="291.996" cy="574.083" r="10.239" fill="#f7e0d2" class="colorD2D4F7 svgShape"/><path fill="#f7e0d2" d="M250.63 773.878c0-2.479 2.009-4.487 4.487-4.487 2.479 0 4.488 2.009 4.488 4.487 0 2.479-2.009 4.488-4.488 4.488C252.639 778.366 250.63 776.357 250.63 773.878zM366.268 493.392c0-2.444 1.981-4.425 4.425-4.425 2.444 0 4.425 1.981 4.425 4.425 0 2.444-1.981 4.425-4.425 4.425C368.25 497.818 366.268 495.837 366.268 493.392zM1105.692 657.13c-.793 0-1.592-.04-2.376-.119-.585-.059-1.011-.581-.952-1.165.059-.585.579-1.013 1.165-.952 1.47.148 2.988.143 4.457-.014.587-.064 1.109.361 1.171.945.062.585-.361 1.109-.945 1.171C1107.381 657.084 1106.533 657.13 1105.692 657.13zM1098.843 656.063c-.108 0-.218-.016-.326-.051-1.555-.499-3.063-1.166-4.483-1.981-.51-.293-.686-.943-.393-1.453.293-.51.943-.686 1.453-.393 1.29.741 2.661 1.346 4.074 1.8.56.18.868.779.688 1.339C1099.711 655.775 1099.293 656.063 1098.843 656.063zM1112.671 656.021c-.447 0-.864-.285-1.011-.733-.183-.559.121-1.16.679-1.343 1.411-.463 2.777-1.077 4.063-1.825.507-.296 1.159-.124 1.456.384.295.508.123 1.159-.385 1.455-1.414.823-2.918 1.499-4.47 2.008C1112.893 656.003 1112.781 656.021 1112.671 656.021zM1090.772 651.433c-.253 0-.506-.089-.709-.271-1.219-1.09-2.326-2.311-3.292-3.628-.348-.474-.245-1.14.229-1.488.474-.347 1.14-.245 1.488.229.878 1.198 1.886 2.308 2.994 3.3.438.392.476 1.065.084 1.503C1091.355 651.314 1091.064 651.433 1090.772 651.433zM1120.713 651.342c-.29 0-.579-.118-.789-.35-.395-.436-.361-1.109.075-1.503 1.102-.998 2.103-2.114 2.974-3.318.345-.476 1.011-.581 1.486-.238.476.345.583 1.01.238 1.486-.958 1.323-2.059 2.551-3.27 3.648C1121.223 651.251 1120.967 651.342 1120.713 651.342zM1085.273 643.931c-.405 0-.793-.233-.971-.627-.672-1.49-1.187-3.057-1.532-4.655-.124-.575.242-1.141.816-1.265.574-.125 1.141.241 1.265.816.313 1.453.781 2.876 1.392 4.23.242.536.003 1.166-.533 1.408C1085.568 643.9 1085.419 643.931 1085.273 643.931zM1126.167 643.805c-.144 0-.291-.029-.431-.092-.538-.238-.78-.867-.542-1.404.602-1.359 1.061-2.785 1.366-4.239.12-.575.685-.945 1.26-.824.575.12.944.684.824 1.26-.335 1.601-.84 3.171-1.503 4.666C1126.964 643.568 1126.575 643.805 1126.167 643.805zM1083.307 634.838c-.588 0-1.064-.476-1.064-1.064v-.092c0-1.641.171-3.28.507-4.872.121-.575.687-.942 1.261-.821.575.121.943.686.821 1.261-.306 1.447-.461 2.938-.461 4.432v.092C1084.372 634.362 1083.895 634.838 1083.307 634.838zM1128.076 634.699c-.587 0-1.063-.475-1.064-1.062-.003-1.493-.161-2.984-.47-4.43-.123-.575.244-1.141.818-1.263.578-.121 1.141.244 1.263.818.34 1.591.514 3.23.517 4.871.001.588-.474 1.065-1.062 1.066C1128.077 634.699 1128.076 634.699 1128.076 634.699zM1085.235 625.645c-.145 0-.292-.03-.432-.093-.537-.239-.778-.868-.539-1.405.664-1.491 1.489-2.918 2.452-4.243.346-.476 1.011-.581 1.487-.235.475.346.58 1.011.235 1.487-.876 1.204-1.626 2.502-2.23 3.857C1086.031 625.41 1085.642 625.645 1085.235 625.645zM1126.13 625.604c-.407 0-.795-.234-.972-.629-.606-1.354-1.359-2.65-2.236-3.852-.347-.475-.243-1.141.232-1.487.474-.347 1.14-.243 1.487.232.965 1.322 1.793 2.747 2.46 4.236.24.536 0 1.166-.536 1.406C1126.424 625.574 1126.276 625.604 1126.13 625.604zM1090.705 618.118c-.291 0-.581-.119-.791-.352-.393-.437-.359-1.11.078-1.503 1.215-1.096 2.547-2.066 3.959-2.884.508-.295 1.159-.121 1.454.387.295.509.121 1.16-.388 1.454-1.284.744-2.495 1.627-3.601 2.624C1091.215 618.028 1090.96 618.118 1090.705 618.118zM1120.645 618.089c-.254 0-.508-.09-.711-.273-1.107-.995-2.321-1.875-3.607-2.617-.509-.294-.684-.945-.39-1.454.293-.509.944-.685 1.454-.39 1.414.816 2.749 1.784 3.965 2.877.438.393.473 1.066.081 1.503C1121.227 617.97 1120.937 618.089 1120.645 618.089zM1098.756 613.457c-.448 0-.865-.286-1.012-.735-.182-.559.124-1.159.683-1.341 1.552-.505 3.165-.848 4.793-1.019.582-.06 1.108.363 1.17.948.061.585-.363 1.108-.948 1.17-1.48.155-2.946.466-4.356.926C1098.976 613.44 1098.865 613.457 1098.756 613.457zM1112.585 613.443c-.109 0-.219-.017-.328-.052-1.412-.456-2.878-.765-4.359-.917-.585-.06-1.01-.583-.95-1.168.06-.585.581-1.009 1.168-.95 1.629.167 3.242.507 4.796 1.009.559.181.866.781.685 1.34C1113.452 613.157 1113.034 613.443 1112.585 613.443zM1091.794 628.75c1.399-2.557 4.937-4.365 8.356-3.432 3.664 1 5.068 4.742 5.222 5.173 0 .164-.001.327-.001.491.004-.164.007-.327.01-.491.154-.431 1.558-4.173 5.223-5.173 3.419-.933 6.957.875 8.356 3.432 2.564 4.685-2.823 10.485-3.432 11.141-3.645 3.925-8.463 4.574-10.205 4.708-.037.003-.072.005-.106.008-.045-.004-.092-.008-.142-.013-1.742-.174-6.333-.91-9.849-4.702C1094.604 639.221 1089.233 633.429 1091.794 628.75zM1054.594 667.706c0-2.448-1.985-4.433-4.433-4.433-2.448 0-4.433 1.985-4.433 4.433 0 2.448 1.985 4.433 4.433 4.433C1052.61 672.139 1054.594 670.154 1054.594 667.706z" class="colorD2D4F7 svgShape"/><circle cx="1072.004" cy="572.049" r="10.239" fill="#f7e0d2" class="colorD2D4F7 svgShape"/><path fill="#f7e0d2" d="M1113.37 771.844c0-2.479-2.009-4.488-4.488-4.488-2.478 0-4.488 2.009-4.488 4.488 0 2.478 2.009 4.488 4.488 4.488C1111.361 776.332 1113.37 774.322 1113.37 771.844zM997.732 491.358c0-2.444-1.981-4.425-4.425-4.425-2.444 0-4.425 1.981-4.425 4.425 0 2.444 1.981 4.425 4.425 4.425C995.75 495.784 997.732 493.802 997.732 491.358z" class="colorD2D4F7 svgShape"/></svg>