<svg xmlns="http://www.w3.org/2000/svg" viewBox="0 0 800 500"><g data-name="‘ëîé_2"><path fill="#deeffc" d="M123.61,80.12c-26.67,25-35.32,66.68-28.07,106.18s18.69,75.47,8,112.29S92.87,390.16,173.2,412.45s487.18,8.44,511.65-16.25,36.64-76.69,35.25-106.79S688.81,225.14,688.81,196s10.19-81.76-4-112.49-88.5-41.32-160.92-8-153.07-4.44-218.8-18.77C252,45.24,170.15,36.5,123.61,80.12Z" class="colordeeffc svgShape"/><path fill="#878721" d="M413,410.34s-67.9-77.17-52.93-93.62S400.72,320,400.72,320s-60-126.15-32.45-145.27c17.24-12,46.77,26.62,46.77,26.62s-15.58-55.45,0-61.16S445.45,184,445.45,184s-13.76-72.73,11.21-74.62,32,71.88,32,71.88,8.85-43.35,29.89-41.06,16.55,61.16,16.55,61.16,16.52-28.38,33.51-26.62,16.73,58.87,16.73,58.87,18.46-42.7,42.35-32.43,10.79,138.29-32.15,211.3S413,410.34,413,410.34Z" class="color878721 svgShape"/><path fill="#acb741" d="M702.55 395.3c7.9-1 19.49-21.43 15.77-25.32s-12.26 7.39-12.26 7.39 22-36.76 10.91-45-25.15 31.09-25.15 31.09 13.14-53.18-11.77-50.62-16.31 51.91-16.31 51.91-17.6-34.52-30.62-22.44 15.42 41.09 21.1 44.2S690 396.94 702.55 395.3zM437 403.8c-7.85 1.59-26.64 5.68-30.69 5s-27.17-11.9-22-21.87 23 6.87 23 6.87-15.62-27.59-1.32-34.42 17.79 27.68 17.79 27.68 0-26.45 8.39-23.89 3.07 29.16 3.07 29.16S441 369 450.84 368.43s8.33 18.33 8.33 18.33 9.24-20.32 20.91-19.9 11.67 23.43 11.67 23.43S461.66 398.81 437 403.8z" class="coloracb741 svgShape"/><path fill="#878721" d="M120.45,422a16.05,16.05,0,0,1-11.93-4.36c-8-7.53-29.9-25.62-25-29.29,6.79-5,26.47,10.39,26.47,10.39s-37.34-52.71-23.32-60.2,37.56,27.57,37.56,27.57-42.63-79.48-17.08-86.09c20.89-5.4,54.41,76.84,54.41,76.84s-16.32-76.82,8.57-83.34,42.55,90.19,42.55,90.19,18.5-53,34.13-47c21.55,8.24,14.92,59.6,14.92,59.6s5.09-19.46,20.76-17.63c14.64,1.7,11,27,7.37,42.42A16.17,16.17,0,0,1,275,413.58Z" class="color878721 svgShape"/><path fill="#dac646" d="M405.93,400.42c-33.44.67-110.41-12.73-148.67-12.73-30.88,0-75.67,12.73-114.32,17.93-25,3.37-67.17,16.71-67.17,33.25,0,10.71,67.51,22.11,203.2,18.93s244.49,4.77,339.31-13.25c20.88-4,51.74-14.3,88.33-22.22S755,387.79,629,380.24,478.36,399,405.93,400.42Z" class="colordac646 svgShape"/><path fill="#ffcb7f" d="M373,362.85c-3.3-.7-7.47,0-10.78.6-2.08.36-4.13.84-6.17,1.39-1.81.49-3.77.87-5.3,2-.49.37,0,1.21.48.84,2.68-2,7.16-2.54,10.37-3.15s7.78-1.47,11.14-.76C373.34,363.91,373.6,363,373,362.85Z" class="colorffcb7f svgShape"/><path fill="#ffcb7f" d="M374.75,365.15c-7.95.09-17.16,0-24.19,4.26a.48.48,0,0,0,.48.83c6.9-4.19,15.92-4,23.71-4.13A.48.48,0,0,0,374.75,365.15Z" class="colorffcb7f svgShape"/><path fill="#49342d" d="M355.42,426.84c6.92.59,17.44,1.11,28.29,2.5s37.45,5.58,38,6.61-30.8,2.2-40.43,2.92-46.42,2.41-54.61,0-50.42.91-49.9-2.05S329.82,424.64,355.42,426.84Z" class="color49342d svgShape"/><path fill="#664444" d="M176,438.08a10.58,10.58,0,0,1-3.22,2.77c-2.38,1.38-13.56,1.87-17.45,1.19A66.45,66.45,0,0,1,142.1,438c-1.53-.68-10.17-1.37-11.11-2.74-.42-.6-.51-2.14-.47-4,0-2.29.33-5,.47-6.72.25-3.05,1.73-7.33,1.27-10.5l19.84-.51s-.12,3.6.84,5,12.38,10.42,13.9,11.09,8.48,4.07,9.67,5.26C177.18,435.59,176.92,436.81,176,438.08Z" class="color644 svgShape"/><path fill="#440a09" d="M176,438.08a10.58,10.58,0,0,1-3.22,2.77c-2.38,1.38-13.56,1.87-17.45,1.19A66.45,66.45,0,0,1,142.1,438c-1.53-.68-10.17-1.37-11.11-2.74-.42-.6-.51-2.14-.47-4,4.16.6,11.61,2.55,15.09,4.77,4.2,2.67,12.2,4.45,18.18,4.45A36.32,36.32,0,0,0,176,438.08Z" class="color440a09 svgShape"/><path fill="#664444" d="M253.53,434.75c-1.3,1.76-4.57,3.71-9.43,4-6.79.48-13.35-1.25-16.39-1.51S220,438.56,217,438.63s-13-1.24-13.86-1.78c-.33-.21-.53-1.79-.61-3.81a63.42,63.42,0,0,1,.25-9.14c.42-3,1.25-9.29,1.21-11.36l19.21.85s.88,5,1.69,6.08,13.19,6.42,16.7,7.88,12.1,3.59,12.56,5.47A2.47,2.47,0,0,1,253.53,434.75Z" class="color644 svgShape"/><path fill="#440a09" d="M253.53,434.75c-1.3,1.76-4.57,3.71-9.43,4-6.79.48-13.35-1.25-16.39-1.51S220,438.56,217,438.63s-13-1.24-13.86-1.78c-.33-.21-.53-1.79-.61-3.81,3.58.78,9.64,2,12.9,2,4.83,0,10.3-1.14,15.77,0C235.85,436,247.42,436.44,253.53,434.75Z" class="color440a09 svgShape"/><path fill="#356887" d="M205.15,235.22s12.4,68.83,15.27,82,3.55,63.4,4.23,66.45,2.08,13.23,2.23,14.92-2.95,11.19-2.95,11.19l.34,5.76s-3.66,1-8.25,2.38-13.58.6-13.58.6,0-7.05-1.76-8.74a21.83,21.83,0,0,1-4.8-6.44c-1.07-2.38,0-12.55-1-16.28s-4.77-55.34-6.13-60.22-14.83-47.55-15.51-46.19-11.61,63-13,72.17-1.44,50.4-3.43,53.45-4.37,5.08-3.69,10.51c0,0-11.19,3.81-21.36.08,0,0-.68-6.1-1.69-7.8s-6.46-4.06-6.45-8.47.07-40.71.22-54.95c.09-8.82,4.87-47.43,4.19-62.84s-2-40-.67-53.82,12.2-43,16.1-45S205.15,235.22,205.15,235.22Z" class="color356887 svgShape"/><path fill="#002b50" d="M141.45,411.92c-2.8,0-8.19-.78-11.55-2.5a.34.34,0,0,1-.15-.46.36.36,0,0,1,.47-.16,28.24,28.24,0,0,0,12.17,2.38c2.26-.25,9.59-1.17,9.66-1.18a.35.35,0,0,1,.09.69c-.08,0-7.4.93-9.67,1.18A9.78,9.78,0,0,1,141.45,411.92Z" class="color002b50 svgShape"/><path fill="#002b50" d="M134.8 410.69a.33.33 0 01-.3-.18c-1.94-3.5-5.52-9.12-6.88-9.26a.2.2 0 00-.18.07.34.34 0 01-.49 0 .35.35 0 010-.49.9.9 0 01.78-.31c2.11.22 6.55 8.05 7.42 9.62a.35.35 0 01-.14.47A.33.33 0 01134.8 410.69zM138.58 411.73a.35.35 0 01-.35-.32c0-.15-.17-3.52 4.55-6.09a.35.35 0 01.47.14.35.35 0 01-.14.47c-4.33 2.36-4.19 5.4-4.18 5.43a.35.35 0 01-.33.37zM209.63 412c-3.53 0-7.09-.71-9.12-1.87a.34.34 0 01-.13-.47.33.33 0 01.47-.13c2.31 1.32 6.71 2 10.72 1.7a.33.33 0 01.37.32.35.35 0 01-.32.37C211 412 210.3 412 209.63 412z" class="color002b50 svgShape"/><path fill="#002b50" d="M207.7 411.92a.35.35 0 01-.23-.09c-3.42-3-5.28-8.11-5.35-8.32a.35.35 0 01.2-.45.36.36 0 01.45.21c0 .05 1.88 5.13 5.16 8a.35.35 0 010 .49A.34.34 0 01207.7 411.92zM218.72 410.69a.35.35 0 01-.31-.18.35.35 0 01.14-.47s4.68-2.6 5.16-6.69c.16-1.34-.11-2.18-.73-2.3-.84-.16-2.25.92-2.66 2.43a.34.34 0 01-.42.24.34.34 0 01-.25-.42c.48-1.76 2.16-3.18 3.46-2.93.48.09 1.58.58 1.29 3.06-.52 4.45-5.31 7.11-5.52 7.22A.32.32 0 01218.72 410.69zM173.2 281.05h-.06a.34.34 0 01-.28-.4l2.8-17.07a.35.35 0 01.39-.29.35.35 0 01.29.4l-2.8 17.08A.34.34 0 01173.2 281.05zM136.58 256.89a.36.36 0 01-.29-.16.35.35 0 01.11-.48 16.63 16.63 0 004.68-5.56c2.17-3.76 4.81-10.57 5.07-21.67a.35.35 0 01.35-.34h0a.36.36 0 01.34.36c-.51 21.63-9.69 27.56-10.08 27.8A.41.41 0 01136.58 256.89z" class="color002b50 svgShape"/><path fill="#ebd8bd" d="M237.78,134.87c1.64,4.38-5.75,46.65-3.46,59.11S248,244.72,248,244.72l-13.2,5.59s-16.67-28.73-19.21-42.21-3.7-44.46-3.7-44.46S236.26,130.8,237.78,134.87Z" class="colorebd8bd svgShape"/><path fill="#ebd8bd" d="M224.62,121.39c2.74,3.56,12.4,11.19,13.16,13.48s-23.42,43.23-26.2,48.06-5.64,22.38-6.37,27.46,4.67,35.09,4.67,35.09-13.78,3.82-20.4,3.56-22.38-4.58-28-4.83-19.07.76-20.59,0-3.31-31.28-1.78-40.94c0,0-4.58,14.24-5.85,21.87s-1.53,17.54-2.29,18.56-6.1.51-7.12-.51,1-22.63,4.58-36.1S144,167.16,147.52,159s3.68-58.85,8.26-63.11,29.89-.76,38.27-.57S224.62,121.39,224.62,121.39Z" class="colorebd8bd svgShape"/><path fill="#ceb99d" d="M199.89,81.53c1.39-2.8,13.23,5.53,17.05,8.71s13.17,18,11.3,21-16.36,2.27-19.38-1.62S197.85,85.66,199.89,81.53Z" class="colorceb99d svgShape"/><path fill="#440a09" d="M215,45c-3.95.74-7.56,4.83-9.82,8.9s-1.88,17.17-2.13,20.35,1.4,9,9.53,9.4,8.27-25.68,6.74-29.11S219.1,44.22,215,45Z" class="color440a09 svgShape"/><path fill="#f76a52" d="M209.52,75.59S203.33,87.45,200.41,91s7.34,18.81,11.17,21.1,11.2,1.78,11.2,1.78l8.42-15.64Z" class="colorf76a52 svgShape"/><path fill="#ff8f76" d="M251.26,57.06c0,3-1.9,16.66-2.67,18.56s-3.94,6.11-4.7,7.89-1.4,6-2.67,8.39-6.48,15.13-14.75,13.6S211.6,90.75,211.09,89.23s0-9.66,0-9.66A6.09,6.09,0,0,1,206,75.88c-1.52-3.56-.76-13.22,1.53-14.62s7.24,5.08,7.24,5.08,7-13.73,10.81-14.62S251.26,57.06,251.26,57.06Z" class="colorff8f76 svgShape"/><path fill="#f76a52" d="M234.73,89.37a.38.38,0,0,1-.39-.36.4.4,0,0,1,.36-.44c1.11-.09,3.05-.47,3.53-1.11s.68-3,.68-3.83a.4.4,0,1,1,.8,0c0,.33,0,3.22-.84,4.31s-3.77,1.4-4.1,1.43Z" class="colorf76a52 svgShape"/><path fill="#2d0505" d="M235.77 71.2a.32.32 0 01-.23-.09A14.59 14.59 0 00225.62 68a.35.35 0 110-.69A15 15 0 01236 70.6a.36.36 0 010 .49A.38.38 0 01235.77 71.2zM248 75.72a.35.35 0 01-.22-.08c-1.29-1-4.08-1.07-4.1-1.07a.35.35 0 110-.69c.12 0 3.06 0 4.54 1.22a.35.35 0 010 .49A.37.37 0 01248 75.72z" class="color2d0505 svgShape"/><path fill="#440a09" d="M211.6,78.63c1,.13,3.94,6.78,5.21,9.33s7.75-.26,10.93,0,5.34,2.28,7,2.54,5.43.75,5.83,2.73-2.15,6.3-4.18,9.09-4.71,6.36-6.23,6.74-9.92-1.27-12.33-3.43S210.2,91.77,209.94,89,210.2,78.46,211.6,78.63Z" class="color440a09 svgShape"/><path fill="#ff8f76" d="M225.24,91.64a6.68,6.68,0,0,0,0,5.6c1.23,2.54,3.77,1.27,3.9,0s-.89-2.67,1-2.8,4.45,1.27,3.94,2-2.42,3.06-1.27,3.82S236,99.14,237,97.24s1.78-4.2-3.05-5.6S226.69,89.35,225.24,91.64Z" class="colorff8f76 svgShape"/><path fill="#f76a52" d="M237,94.71H237a33.84,33.84,0,0,1-9.54-3.35.4.4,0,1,1,.38-.7,33.8,33.8,0,0,0,9.27,3.26.4.4,0,0,1-.06.79Z" class="colorf76a52 svgShape"/><path fill="#160705" d="M229.21 76c-.52 1.34-1.37 2.26-1.91 2s-.56-1.46 0-2.81 1.37-2.26 1.91-2S229.73 74.62 229.21 76zM244.61 81.91c-.52 1.34-1.37 2.26-1.91 2s-.56-1.46 0-2.8 1.37-2.27 1.91-2.06S245.13 80.57 244.61 81.91z" class="color160705 svgShape"/><path fill="#440a09" d="M211.06,62.44c.93,2,.79,9,2.19,9.5s4.32-3.49,5.21-4.29,1.4-5.63,2.8-7.92,3-5.08,4.34-5.08,5.58,5.59,7.74,6.23,5-.89,7.27-1,6.33,1.52,6.33,1.52a20.12,20.12,0,0,1-5.21-.25,17.37,17.37,0,0,0,7,2.18c4.07.36,6-.53,7.37-2.56s-.89-5-3-6.74-2.29-6-7.24-8.14-8.24-1.27-10-1.65-4.31-2.8-10.17-2.54-8.66,3-10.57,3.3S206.57,52.56,211.06,62.44Z" class="color440a09 svgShape"/><path fill="#ebd8bd" d="M199.89,81.53s10.18,21.3,13.49,24.1,14.86,5.59,14.86,5.59a26.39,26.39,0,0,0-3,5.34,11.18,11.18,0,0,0-.62,4.83s-7.72,3.06-13,2.55-16-13.74-18.8-18.31-3.81-9.78-3.05-10.86,5.34-1.86,6.86-4.53A55.8,55.8,0,0,0,199.89,81.53Z" class="colorebd8bd svgShape"/><path fill="#e2a452" d="M181.59,210.9c2.54.76,11.81-13.13,9.41-14.75S179.05,210.14,181.59,210.9Z" class="colore2a452 svgShape"/><polygon fill="#ff5e47" points="230.9 266.41 226.88 282.85 267.73 265.44 264.77 261.48 230.9 266.41" class="colorff5e47 svgShape"/><path fill="#e23e2d" d="M245.75,264.25c-.5.77-1,1.52-1.45,2.31a47.91,47.91,0,0,0-3,7c-.41,1.19-.82,2.4-1.2,3.62l-13.27,5.66,4-16.44Z" opacity=".48" class="colore23e2d svgShape"/><path fill="#ff5e47" d="M193.29,231.47h0A33.9,33.9,0,0,1,198.71,217c2.86-4,6.29-5.95,9.65-5.45s6.07,3.34,7.66,8A34,34,0,0,1,217,235c-1.8,12.16-8.42,20.92-15.07,19.94a7.37,7.37,0,0,1-3.52-1.57C194,249.87,191.84,241.28,193.29,231.47Zm14.62-16.95c-2.14-.32-4.6,1.22-6.74,4.21a30.9,30.9,0,0,0-4.89,13.18h0c-1.5,10.14,1.29,19.3,6.1,20s10.13-7.26,11.63-17.4a30.82,30.82,0,0,0-.86-14,10.71,10.71,0,0,0-3.14-5A4.35,4.35,0,0,0,207.91,214.52Z" class="colorff5e47 svgShape"/><path fill="#e23e2d" d="M196.35,221.05a34.36,34.36,0,0,0-1.85,9.54,25.53,25.53,0,0,0,.92,8.39c.2.69.42,1.44.68,2.21.7,5.9,3,10.25,6.28,10.74,4.8.71,10.13-7.26,11.63-17.4a30.82,30.82,0,0,0-.86-14,12.41,12.41,0,0,0-2.17-4.08c2.63,1.9,3.89,6.07,4.66,8.85a42.6,42.6,0,0,1,1.45,9.05L217,235c-1.8,12.16-8.42,20.92-15.07,19.94a7.37,7.37,0,0,1-3.52-1.57c-4.38-3.48-6.57-12.07-5.12-21.88h0A37.94,37.94,0,0,1,196.35,221.05Z" opacity=".48" class="colore23e2d svgShape"/><path fill="#ff5e47" d="M192.92,262.28l30,23.81a5.77,5.77,0,0,0,8.48-1.45L253.77,249,222,223.82l-29.59,29.87A5.78,5.78,0,0,0,192.92,262.28Z" class="colorff5e47 svgShape"/><path fill="#e23e2d" d="M193,253.14a14.79,14.79,0,0,0,5.26,7.55,58.54,58.54,0,0,1,7.82,6.76c1.54,1.66,3.11,3.3,4.76,4.85,3.42,3.2,7.39,6.36,12,7.55,6.62,1.71,11.46-1.61,15.5-6.18l-6.88,11a5.77,5.77,0,0,1-8.48,1.45l-30-23.81a5.78,5.78,0,0,1-.51-8.59Z" class="colore23e2d svgShape"/><path fill="#e23e2d" d="M240.74,242.36c-3.94-3.05-8.08-5.8-12.1-8.74a44.33,44.33,0,0,1-8.27-8.15l1.63-1.65L253.77,249l-2.26,3.61C248.7,248.64,244.79,245.5,240.74,242.36Z" opacity=".48" class="colore23e2d svgShape"/><path fill="#ff5e47" d="M221.53 225.21l31 24.59a2.91 2.91 0 004.1-.48h0a2.92 2.92 0 00-.47-4.1l-31-24.59a2.91 2.91 0 00-4.1.48h0A2.91 2.91 0 00221.53 225.21zM268.47 268.57h0a1.53 1.53 0 01-1.89-1.07l-2.12-7.7a1.55 1.55 0 011.08-1.89h0a1.54 1.54 0 011.88 1.07l2.12 7.71A1.54 1.54 0 01268.47 268.57z" class="colorff5e47 svgShape"/><path fill="#ff8f76" d="M187.12,195.21s7,4.79,8.95,6.13,11.28,7.68,12.12,8.6,2.68,8.87,2.75,9.86-2.32,2.68-2.53,3a17.5,17.5,0,0,1-2.26,3c-.56.35-2.32,1.2-2.68,1.55s-1.69,2.35-2.18,2.76a7.21,7.21,0,0,1-2.68,1.26c-.58,0-1-1.78-2.11-2.75s-3.67-4.3-5.5-6.34a65.86,65.86,0,0,1-6.41-10c-.85-1.83-5.85-6.69-5.85-6.69Z" class="colorff8f76 svgShape"/><path fill="#f76a52" d="M208.41 223.23a.4.4 0 01-.39-.3l-1.76-7.19a.4.4 0 11.77-.19l1.76 7.19a.39.39 0 01-.29.48zM204.67 226.47a.38.38 0 01-.38-.29l-1.7-6.06a.4.4 0 01.28-.49.38.38 0 01.49.27l1.7 6.06a.41.41 0 01-.28.5zM201.71 229.43a.41.41 0 01-.38-.27l-2.06-6a.41.41 0 01.25-.51.4.4 0 01.51.25l2.06 6a.4.4 0 01-.25.51z" class="colorf76a52 svgShape"/><path fill="#ebd8bd" d="M155.78,95.92c-6.69,5.07-17.42,29.8-21.23,35.9s-13.73,33.62-14,40.33,21.87,20.44,30,24.51,31,14.24,31,14.24,4.58-10.43,9.41-14.75l-39.92-27a2.3,2.3,0,0,0-1.78-2.8,39.88,39.88,0,0,0,3.3-7.88c1-3.82,3.69-13.27,6.49-16.83S164.17,89.57,155.78,95.92Z" class="colorebd8bd svgShape"/><path fill="#ceb99d" d="M137.6 169.55a.37.37 0 01-.27-.13.35.35 0 010-.49c4.13-3.35 11.62-2.9 11.94-2.87a.35.35 0 010 .69c-.08 0-7.54-.46-11.46 2.72A.35.35 0 01137.6 169.55zM134.55 166.72a.37.37 0 01-.3-.16.34.34 0 01.12-.48 17.26 17.26 0 0114.74-1.91c.85-2.1 5.67-14 7.51-18.8 2-5.25 3.71-10.89 3.72-11a.35.35 0 01.43-.23.35.35 0 01.24.43c0 .06-1.72 5.73-3.74 11s-7.59 19-7.65 19.14a.35.35 0 01-.19.19.32.32 0 01-.27 0 16.33 16.33 0 00-14.43 1.73A.37.37 0 01134.55 166.72z" class="colorceb99d svgShape"/><path fill="#ff8f76" d="M244.78,244.85c3.36.58,9.63,7.56,9,9.4s-2.87,2.29-3.52,3.18-1.4,4.58-4.5,5.81c-1.17.47-4.28-4.28-3.64-5.93s3.64-.77,3.64-.77-4-6.21-3.13-7.49S248,252,248,252,241.6,244.3,244.78,244.85Z" class="colorff8f76 svgShape"/><path fill="#f76a52" d="M251.14 256a.39.39 0 01-.3-.13l-2.67-3a.4.4 0 01.59-.53l2.67 3a.39.39 0 010 .56A.37.37 0 01251.14 256zM247.92 260.38a.4.4 0 01-.39-.32 10.38 10.38 0 00-2.08-3.25.4.4 0 11.6-.53 11.19 11.19 0 012.26 3.61.4.4 0 01-.31.48z" class="colorf76a52 svgShape"/><path fill="#ceb99d" d="M212.75,181.26a.33.33,0,0,1-.17,0,.35.35,0,0,1-.13-.48l11.87-20.6a.35.35,0,0,1,.61.35l-11.88,20.6A.34.34,0,0,1,212.75,181.26Z" class="colorceb99d svgShape"/><path fill="#ff5e47" d="M296,235.93A125.78,125.78,0,0,0,284.77,253c-4.38,8.48-8.85,19.94-3,23.34,5.36,3.12,16.52-2.68,20.75-13.62S299.92,230.89,296,235.93Z" class="colorff5e47 svgShape"/><path fill="#e84636" d="M370.63,230c.59-1.89,11,3.8,10.61,5.6s-5.64,1.74-7.66,1.13A5.24,5.24,0,0,1,370.63,230Z" class="colore84636 svgShape"/><path fill="#ff8f76" d="M371.11,234.58c.25-1.38,1.7-5.67,1.7-6.48a27,27,0,0,1,0-5.14c.33-1.83.81-5.88,1.22-6.29s1.13,1.7,1.22,3.08.32,2.51.81,2.35,7.45-10.13,7.94-9.56-2.35,6-2.19,6.4,5.75-6.2,6.56-5.61-4.29,6.69-3.89,7.24,5.35-4.06,6.08-3.49-4.62,5.61-4.37,5.88,4.37-1.91,4.86-1.43-5.29,6.33-6.57,7.3a16.81,16.81,0,0,1-4.88,2.66c-1.06.4-1.76,6.38-1.76,6.38Z" class="colorff8f76 svgShape"/><path fill="#f76a52" d="M376.18 229.43a.39.39 0 01-.3-.13.39.39 0 010-.56c.14-.13 3.51-3.22 7.46-3a.4.4 0 01.38.42.42.42 0 01-.42.38c-3.6-.17-6.85 2.78-6.88 2.81A.38.38 0 01376.18 229.43zM386.88 224.81a.39.39 0 01-.33-.17c-1.87-2.69-6.15-5.08-6.19-5.11a.41.41 0 01-.16-.54.42.42 0 01.55-.16c.18.11 4.48 2.51 6.45 5.35a.39.39 0 01-.1.56A.38.38 0 01386.88 224.81zM377.27 226.51h0a.42.42 0 01-.38-.43 4.69 4.69 0 00-.53-2.88.4.4 0 01.64-.48 5.3 5.3 0 01.69 3.41A.4.4 0 01377.27 226.51z" class="colorf76a52 svgShape"/><path fill="#ff5e47" d="M349.77,235c2.43,2,14.5,12.83,21,16.6s3.6,13.51-2.07,12.86-19.29-6.38-24.8-11.11S349.77,235,349.77,235Z" class="colorff5e47 svgShape"/><path fill="#b2b195" d="M297.57,291.43c-3.21,4.85-.73,45.1.85,53.82s4.63,26.56,4.08,28.83-1.07,7.13,0,9.4,4.95,12.72,4.95,12.72h13.38s1.54-17.26,1.22-20.83.93-53.16.93-53.16,3.52,30.81,4.53,37.28-.69,19.12,0,22,2.32,10.7,2.32,10.7l13.42,4A43.05,43.05,0,0,0,347,385.75c1-5.19.16-13-.49-18.81s2-16.42,1.08-31.12c-.66-10.85-1.81-43.93-1.81-43.93S304.87,280.43,297.57,291.43Z" class="colorb2b195 svgShape"/><path fill="#0a4775" d="M307.45,226.67c3.53-.93,23.35-1.85,31,0s-5.84,20.82-13.62,19.52S297.88,229.2,307.45,226.67Z" class="color0a4775 svgShape"/><path fill="#e84636" d="M310.81,220.55c-.46-1.53,24.69-4.85,24.35-1.91s-8.5,8.42-12.43,8.42S311.73,223.61,310.81,220.55Z" class="colore84636 svgShape"/><path fill="#ff8f76" d="M332.58,205.51s-.11,4.14-.24,9.3c-.17,6.19-.39,13.88-.57,17.6-.32,6.81-18.47,4.38-18.47.82,0-2.31.34-9.27.36-15.71a84.59,84.59,0,0,0-.36-9.26C312.49,201.62,332.58,205.51,332.58,205.51Z" class="colorff8f76 svgShape"/><path fill="#f76a52" d="M332.58 205.51s-.11 4.14-.24 9.3c-2.42 2.72-5.25 4.94-8.18 5.19a17.27 17.27 0 01-10.5-2.48 84.59 84.59 0 00-.36-9.26C312.49 201.62 332.58 205.51 332.58 205.51zM307.58 204.88a3.24 3.24 0 01-3.83 1c-1.64-.67-6.26-6.56-5.16-9.3s5.16-1.46 6.26-.61S307.58 204.88 307.58 204.88zM333.44 199.33c.41.33 2.15 1.6 3.8.61s2.94-7.95 2.18-10.25c-.83-2.51-5.11-1.62-6.73.83S333.44 199.33 333.44 199.33z" class="colorf76a52 svgShape"/><path fill="#ff8f76" d="M323,217.66c4.8-.22,11.52-7.45,12-13.28s-.39-15.73-1.36-21.1-7.4-14.33-18.26-12.66-16.57,10.29-14.58,19c2.22,9.8,6.13,17.88,8.24,21.12S317.33,217.92,323,217.66Z" class="colorff8f76 svgShape"/><path fill="#f76a52" d="M327.51,204.38s-.91,5.1-4.59,5.94-6.59-3.76-6.59-3.76l.75,0a36.17,36.17,0,0,0,9.56-1.81C326.93,204.62,327.22,204.5,327.51,204.38Z" class="colorf76a52 svgShape"/><path fill="#ffffff" d="M326.64,204.72a6.26,6.26,0,0,1-9.56,1.81A36.17,36.17,0,0,0,326.64,204.72Z" class="colorfff svgShape"/><path fill="#f76a52" d="M320.83,202.58a.34.34,0,0,1-.19-.05.4.4,0,0,1-.16-.54s.83-1.55,0-2.6a.39.39,0,0,1,.07-.56.4.4,0,0,1,.56.07c1.12,1.47.08,3.4,0,3.48A.39.39,0,0,1,320.83,202.58Z" class="colorf76a52 svgShape"/><path fill="#75321a" d="M305 193.6a.34.34 0 01-.24-.1.35.35 0 010-.49c3.5-3.81 9.16-2.53 9.4-2.47a.34.34 0 01.25.42.35.35 0 01-.41.26c-.06 0-5.5-1.25-8.73 2.26A.32.32 0 01305 193.6zM321.86 190a.36.36 0 01-.25-.11.35.35 0 010-.49c.13-.13 3.39-3.21 9.95-1.48a.35.35 0 01-.18.67c-6.18-1.63-9.26 1.28-9.29 1.31A.33.33 0 01321.86 190z" class="color75321a svgShape"/><path fill="#160705" d="M311.66 197c.24 1.1 0 2.08-.43 2.18s-1-.72-1.27-1.83 0-2.08.43-2.18S311.43 195.85 311.66 197zM328.38 194.17c.1 1.13-.21 2.08-.68 2.12s-.95-.84-1.05-2 .21-2.08.68-2.12S328.28 193.05 328.38 194.17z" class="color160705 svgShape"/><path fill="#b45833" d="M303.81,199.64c.61-.45.17-4.09-.4-5.6s-1.54-7.42-1.22-8.39,2-.57,3.33-2,3.91-6.08,4-5.84a8.8,8.8,0,0,0,4.93.57,11.84,11.84,0,0,0,3.73-2.43s4.38,3.64,7,3.64,5.1-.24,5.35,0,3.47,13.15,4.33,13.06,2.64-6.82,2.64-9.09a26,26,0,0,0-1.57-7.61c-.7-1.87.19-5.27-1.35-7.3a28.76,28.76,0,0,0-5-5.35c-1.94-1.54-9.71.89-9.71.89s-3.82-1.58-6.09-1.4a11.18,11.18,0,0,0-4.78,2.13s-6.53-.56-8.49,1.3-3.5,5.43-3.83,9.65a15.4,15.4,0,0,0-1.78,6.15c-.16,3.33,2.11,7.14,2.67,9.32S302.74,200.43,303.81,199.64Z" class="colorb45833 svgShape"/><path fill="#75321a" d="M299.08 186.65h-.31a.35.35 0 010-.7 6.52 6.52 0 003.19-.58.35.35 0 01.49.08.34.34 0 01-.09.48A6.55 6.55 0 01299.08 186.65zM297.74 179.76a.36.36 0 01-.27-.12 5.84 5.84 0 01-.89-3.4.38.38 0 01.36-.34.35.35 0 01.33.36 5.3 5.3 0 00.73 2.93.35.35 0 010 .49A.4.4 0 01297.74 179.76zM309.5 178.14a.4.4 0 01-.23-.08.36.36 0 010-.49c.66-.79.8-3.21.8-4.08a.35.35 0 01.7 0c0 .35 0 3.4-1 4.52A.33.33 0 01309.5 178.14zM330.48 179.92a.35.35 0 110-.69s1.94 0 3.28-.16a.34.34 0 01.38.3.35.35 0 01-.3.39C332.46 179.92 330.56 179.92 330.48 179.92zM317.79 166.14l-.15 0a.36.36 0 01-.16-.47 4.57 4.57 0 012.18-1.79.35.35 0 01.25.65A3.83 3.83 0 00318.1 166 .34.34 0 01317.79 166.14z" class="color75321a svgShape"/><path fill="#ff5e47" d="M310.81,220.55s6.61,2.14,11.11,2.14,13.24-4.05,13.24-4.05-1.12,8.91-.79,10.05,10.53,5.94,11.51,7,.64,38.66.31,44-.4,12.17-.4,12.17-37.19,1.81-48.22-.46c0,0,1.5-21.35.85-27.18s.77-29.89,1.1-31,12.32-4.86,12.32-4.86S311.89,222.8,310.81,220.55Z" class="colorff5e47 svgShape"/><path fill="#6a8ea5" d="M309.5 227.06c1.36 1.54 3.13 13.83 1.19 21.61a39.11 39.11 0 011.78 23.67s2.55 18.75.71 21.67-17.23.16-19.17 0-2.29-14.06.3-19.73a70.73 70.73 0 00-1.71-22.42s-1-14.49-.21-16.64S307.48 224.8 309.5 227.06zM336.48 227.06c-1.36 1.54-3.14 13.83-1.19 21.61a39.11 39.11 0 00-1.78 23.67S331 291.09 332.79 294s17.23.16 19.18 0 2.28-14.06-.31-19.73c0 0 4.72-14.21 1.71-22.42 0 0 1-14.49.22-16.64S338.49 224.8 336.48 227.06z" class="color6a8ea5 svgShape"/><path fill="#440d02" d="M292.6,252.1a.24.24,0,0,1-.09-.46,28.72,28.72,0,0,1,5-1.57.26.26,0,0,1,.29.19.24.24,0,0,1-.19.29,28.21,28.21,0,0,0-4.92,1.53A.16.16,0,0,1,292.6,252.1Z" class="color440d02 svgShape"/><path fill="#002b50" d="M304.22 249.4a.34.34 0 01-.33-.24.35.35 0 01.22-.44c2.15-.71 6.42-.41 6.6-.39a.35.35 0 110 .69s-4.31-.31-6.33.36zM294.31 274.63a.33.33 0 01-.32-.24.34.34 0 01.22-.44c.08 0 8.88-2.9 16.51-2.13a.35.35 0 11-.07.69c-7.47-.77-16.14 2.07-16.23 2.1zM347 273.89h0c-4.83-.05-13.46-1.2-13.55-1.21a.36.36 0 01-.3-.39.36.36 0 01.39-.3c.09 0 8.68 1.16 13.46 1.21a.35.35 0 01.35.35A.35.35 0 01347 273.89zM353.37 252.21l-.13 0c-.08 0-8-3.1-11.43-3.24a.33.33 0 01-.33-.36.34.34 0 01.36-.33c3.58.14 11.33 3.16 11.66 3.29a.33.33 0 01.19.44A.34.34 0 01353.37 252.21zM335.29 249a.36.36 0 01-.35-.3.35.35 0 01.3-.39 14.76 14.76 0 013.24-.07.34.34 0 01.28.39.34.34 0 01-.4.29 13.18 13.18 0 00-3 .08z" class="color002b50 svgShape"/><path fill="#878567" d="M323 322.56a.34.34 0 01-.34-.34l-.23-7.7a.35.35 0 01.33-.36.35.35 0 01.36.34l.23 7.7a.35.35 0 01-.34.36zM304.22 373.13h-.06a.34.34 0 01-.28-.4 66 66 0 00.61-16.72.33.33 0 01.3-.38.35.35 0 01.39.31 66.07 66.07 0 01-.62 16.91A.35.35 0 01304.22 373.13zM344.48 388.73a.28.28 0 01-.17-.05.34.34 0 01-.13-.47l1.88-3.28a.34.34 0 01.47-.13.33.33 0 01.13.47l-1.88 3.29A.34.34 0 01344.48 388.73zM297.57 308.62a.31.31 0 01-.2-.07.35.35 0 01-.08-.48c0-.06 3.77-5.3 4.87-10.57a.34.34 0 01.41-.27.35.35 0 01.27.41c-1.13 5.42-4.83 10.61-5 10.83A.35.35 0 01297.57 308.62zM345.42 308.62a.38.38 0 01-.29-.15 34 34 0 01-4.79-10.83.35.35 0 01.68-.14 33.73 33.73 0 004.68 10.57.35.35 0 01-.28.55z" class="color878567 svgShape"/><path fill="#ff5e47" d="M322.29,412.75a4.47,4.47,0,0,1-.15,1.72c-.49.81-5.2,3.09-6.17,3.57s-3.65,2.88-7.22,3.86-11.1.15-11.91-.82a3.73,3.73,0,0,1-.11-2.35c.32-2.22,1.33-5.29,2.3-6.19,1.46-1.34,7.18-4.22,7.18-4.22l-3.61-20.63c1.81.48,12.81,1.46,20.26,0,0,0-1,12.95-1,15.88S322.27,410.52,322.29,412.75Z" class="colorff5e47 svgShape"/><path fill="#a34828" d="M322.14,414.47c-.49.81-5.2,3.09-6.17,3.57s-3.65,2.88-7.22,3.86-11.1.15-11.91-.82a3.73,3.73,0,0,1-.11-2.35c3,1,7.59,2.11,11.87.89,5.16-1.47,9.11-5.82,13.69-6.87A4.47,4.47,0,0,1,322.14,414.47Z" class="colora34828 svgShape"/><path fill="#ff5e47" d="M328.12,412.75a4.21,4.21,0,0,0,.16,1.72c.49.81,5.19,3.09,6.16,3.57s3.65,2.88,7.22,3.86,11.11.15,11.91-.82a3.59,3.59,0,0,0,.11-2.35c-.31-2.22-1.32-5.29-2.29-6.19-1.46-1.34-7.18-4.22-7.18-4.22l3.61-20.63c-1.81.48-12.81,1.46-20.26,0,0,0,1,12.95,1,15.88S328.14,410.52,328.12,412.75Z" class="colorff5e47 svgShape"/><path fill="#a34828" d="M328.28,414.47c.49.81,5.19,3.09,6.16,3.57s3.65,2.88,7.22,3.86,11.11.15,11.91-.82a3.59,3.59,0,0,0,.11-2.35c-3,1-7.58,2.11-11.86.89-5.17-1.47-9.12-5.82-13.7-6.87A4.21,4.21,0,0,0,328.28,414.47Z" class="colora34828 svgShape"/><path fill="#b2b195" d="M310.38 387.69c2.43.77 5.82 2.14 8.91 1.83s3.42-7.34 2.61-9.28S310.38 387.69 310.38 387.69zM334 386.23s5.8 4.06 7.92 4.06 4.4-5.19 4.4-5.19z" class="colorb2b195 svgShape"/><path fill="#ff5e47" d="M370.8,264.18c4.8-1.41,6.52-8.12,7.82-14.15s2.62-14.47,2.62-14.47-5.83,1.45-10.61-5.6c0,0-5.47,17.35-6.6,21.61S365.57,265.72,370.8,264.18Z" class="colorff5e47 svgShape"/><path fill="#e23e2d" d="M363.77,254.44a.34.34,0,0,1-.34-.32c-.09-1.32.69-4.18,1.39-6.51a.35.35,0,0,1,.43-.24.36.36,0,0,1,.24.44c-.4,1.34-1.46,4.89-1.37,6.26a.35.35,0,0,1-.33.37Z" class="colore23e2d svgShape"/><path fill="#e84636" d="M292.24,263.24c1.7,2.42,2.79,1.25,2.57-1.76s-.59-8-2.57-8.46S290.4,260.6,292.24,263.24Z" class="colore84636 svgShape"/><path fill="#ff8f76" d="M290.71,247.92c-.66-2.08-1.32-6.34-.66-7.44a11.72,11.72,0,0,1,3.84-3.42c1.12-.48,5.88.88,5.54,1.54s-3.26.44-4,.67-3.2,2.37-2.91,2.56,2.61-.58,3.71-.47,4.8.93,5,1.66-.15,6.21-.81,6.57-3.85,1.45-4.07,1.56,0,2.24-.81,2.68C293.89,254.7,292.47,253.47,290.71,247.92Z" class="colorff8f76 svgShape"/><path fill="#f76a52" d="M292.24 245.92a.39.39 0 01-.32-.16.4.4 0 01.09-.56 10.09 10.09 0 014.61-1.84 7.79 7.79 0 014 .94.4.4 0 01.14.55.41.41 0 01-.55.14 7 7 0 00-3.56-.83 9.44 9.44 0 00-4.18 1.69A.42.42 0 01292.24 245.92zM293.72 249.07a.42.42 0 01-.34-.19.4.4 0 01.14-.55 15.08 15.08 0 013.51-1.56 13.1 13.1 0 014.08 0 .4.4 0 01.33.45.39.39 0 01-.45.34 13.24 13.24 0 00-3.77 0 15 15 0 00-3.29 1.47A.37.37 0 01293.72 249.07z" class="colorf76a52 svgShape"/><path fill="#ff8f76" d="M291.6,247.15l-1.82,5.12s0,7.87,2.46,11c1.37-1.63,3.72-7.83,3.88-10.61S291.6,247.15,291.6,247.15Z" class="colorff8f76 svgShape"/><path fill="#e23e2d" d="M281.85,261.82a.33.33,0,0,1-.24-.1.35.35,0,0,1,0-.49,25.61,25.61,0,0,1,4-3.5,50.9,50.9,0,0,0,3.87-6.8.34.34,0,0,1,.46-.15.35.35,0,0,1,.16.46c-1,2-3.52,6.81-4.2,7.12a24.19,24.19,0,0,0-3.79,3.36A.35.35,0,0,1,281.85,261.82Z" class="colore23e2d svgShape"/><path fill="#e23e2d" d="M282.35 258.4a.34.34 0 01-.26-.12.35.35 0 010-.49 8.37 8.37 0 014.69-1.59.33.33 0 01.36.33.35.35 0 01-.34.36 7.86 7.86 0 00-4.25 1.42A.35.35 0 01282.35 258.4zM289.78 275.39a.31.31 0 01-.19-.06.35.35 0 01-.11-.48c2.68-4.11 4.3-10.41 4.32-10.48a.35.35 0 01.42-.25.34.34 0 01.25.42 42 42 0 01-4.4 10.69A.36.36 0 01289.78 275.39z" class="colore23e2d svgShape"/><path fill="#878567" d="M312.17 388.63a.31.31 0 01-.13 0l-7.34-3.05a.35.35 0 01.26-.64l7.34 3a.35.35 0 01.19.45A.33.33 0 01312.17 388.63zM335.89 387.8l-.14 0A16.87 16.87 0 01329.4 382a.34.34 0 01.09-.48.35.35 0 01.49.09 16.47 16.47 0 006.06 5.53.35.35 0 01.17.46A.34.34 0 01335.89 387.8z" class="color878567 svgShape"/><path fill="#0a4775" d="M548.89,236.88s1,37,.63,49.68,3.3,73.09,3.3,73.09,24.42,1.66,23.35.62,4.69-106.08,4.69-106.08l16.5,108.93,22.15.1-2-122.88Z" class="color0a4775 svgShape"/><path fill="#878567" d="M601.07,95.39c-.37-2.32-34.44,3.15-34.2,7.55s7.56,9.15,17.79,6.83S601.75,99.69,601.07,95.39Z" class="color878567 svgShape"/><path fill="#ff8f76" d="M571.71,111.39c-1.7-3.69-2.19-25.73-2.19-25.73L582.73,85l15.86-.78s-.14,2.21-.23,5.38a115.08,115.08,0,0,0,.42,16.15C599.82,113.8,573.41,115.09,571.71,111.39Z" class="colorff8f76 svgShape"/><path fill="#f76a52" d="M598.36,89.61c-2.84,2.06-7,5.12-7,5.12L582.73,85l15.86-.78S598.45,86.44,598.36,89.61Z" class="colorf76a52 svgShape"/><path fill="#b2b195" d="M629.52,204.23l-7.49-27s.24,19.55,1,25.68,3.6,32.15,3.15,35.17-1.74,8.61-1.74,8.61-29,3.17-41.68,2.74-34.88-3-38.09-3.71c-2.54-.52-2.34-9.18-2.61-16.43-.3-8-.26-15.28-.26-15.28a14.48,14.48,0,0,1-11.65-5.4c-5-6-9.36-11.72-11-25.08s6.27-30.07,7.65-32.36,3.5-4.18,4.42-7.67,3.15-19.17,5.86-21.72c5.58-5.25,27.81-9.12,29.2-10.74s.55-8.08.55-8.08a23.4,23.4,0,0,0,7.65,2.83,13.58,13.58,0,0,0,4.84,0,36.14,36.14,0,0,0,6.83-2.54c6.78-3.12,14.88-7.81,14.88-7.81s.36,11.42,1.47,14.15,28.32,7.41,33.63,14.06c8,10.05,17.49,46.51,17.49,46.51Z" class="colorb2b195 svgShape"/><path fill="#878567" d="M541.78 214.34a.35.35 0 01-.11-.67c.08 0 4.3-2.33 4.62-24.08.21-14.56-3.65-23.89-3.69-24a.34.34 0 01.18-.45.35.35 0 01.46.18c0 .1 4 9.54 3.74 24.26-.32 22.6-4.86 24.64-5.05 24.71A.4.4 0 01541.78 214.34zM529.27 156.18c-.94 1.79-1.39 9.56-.2 17.2s4.17 9.62 6.45 9.3 2.72-10.69 2.21-15.19c0 0-2.08.5-4-1.91C531.89 163.37 531 161.05 529.27 156.18zM622 177.56a.34.34 0 01-.32-.34c-.09-5.09 1.8-28.91 1.81-29.15a.35.35 0 01.37-.32h0a.35.35 0 01.32.37c0 .24-1.91 24-1.82 29.09a.35.35 0 01-.34.35zM587.7 169.8c-4.17 1.47-13.41-.91-13.41-.91s1.69-39 2-44.68c.2-4.33-1.1-14.07-1.72-18.44a14 14 0 003.83.13c.34 0 .67-.09 1-.16a21.46 21.46 0 003.15-1c1.14-.44 2.38-1 3.68-1.57.79 6.1 2.06 16.38 2 19.06C588 126.15 587.7 169.8 587.7 169.8z" class="color878567 svgShape"/><path fill="#b45833" d="M583.42,165.93l-4.56-.31S580.27,126.43,580,118a62.25,62.25,0,0,0-1.63-12.07c.34,0,.67-.09,1-.16a21.46,21.46,0,0,0,3.15-1c.57,3.82,1.33,9.47,1.66,15.11C584.67,128.36,583.42,165.93,583.42,165.93Z" class="colorb45833 svgShape"/><path fill="#fce1cd" d="M573.63 50.22s-7.82.78-10 2.6-5.93 9.73-5.35 14.78 6.35 12.28 6.48 11.76S573.63 50.22 573.63 50.22zM592.73 52.05a2.78 2.78 0 012-1.71c1.47-.3 5.62 2.62 7.42 5.11s5.51 11.83 5.68 15.14-7.78 11.84-9 11.89-4.61-7.69-5.92-11.73S592.73 52.05 592.73 52.05z" class="colorfce1cd svgShape"/><path fill="#ff8f76" d="M564.54,56.18a25,25,0,0,0-4.84,14.94c-.1,3.42,1.85,7.63,2.51,13.34A49.88,49.88,0,0,0,566.68,100c2.08,4.22,7.78,10.54,12.29,10,5.89-.63,15.83-13.14,16.73-14.65S597,87.36,597,87.36a4.69,4.69,0,0,0,4.67-2.83c1.4-3.2,2.28-12.23.94-13.77s-6.45,1.8-6.45,1.8,1.92-5.55,1.2-9.76c-.95-5.63-1.69-9.13-2.16-10.85C595.24,52,574.14,42.88,564.54,56.18Z" class="colorff8f76 svgShape"/><path fill="#f76a52" d="M574.56,90.71a.42.42,0,0,1-.26-.12,4.17,4.17,0,0,1-1-4.3.4.4,0,0,1,.51-.24.4.4,0,0,1,.24.51,3.4,3.4,0,0,0,.82,3.46.41.41,0,0,1,0,.57A.47.47,0,0,1,574.56,90.71Z" class="colorf76a52 svgShape"/><path fill="#e2caba" d="M560.88 73.13a.39.39 0 01-.27-.15.36.36 0 01.1-.49 9.09 9.09 0 018.86-.19.34.34 0 11-.3.62 8.58 8.58 0 00-8.18.15A.32.32 0 01560.88 73.13zM579.59 71.63a.35.35 0 01-.05-.69c.27-.06 6.6-1.41 9.83.7a.34.34 0 01.1.48.33.33 0 01-.48.1c-3-2-9.24-.61-9.3-.6z" class="colore2caba svgShape"/><path fill="#fce1cd" d="M595.24 52c-.57 1.68-4.27 6.69-4.78 8.37s3.06 8.77 3.47 11.53.74 9.62 1.27 9.62 7.21-11.09 7.69-14.23S596 49.68 595.24 52zM563.32 90.57c.42-1.14 8.78 1.41 12.61 1.28s10.18-1.41 12.52-2.51 6.43-5.15 7.35-5.09 1.79 4.6 1.59 7.61-3.61 8.45-6.17 11.3-7.89 8-12.35 8.51-11.13-7.87-12.19-9.79S562.73 92.15 563.32 90.57z" class="colorfce1cd svgShape"/><path fill="#c9a98f" d="M576.15,96.11a12.13,12.13,0,0,1-3.32-.72.34.34,0,0,1-.19-.45.33.33,0,0,1,.45-.19s5,1.94,8.32-.81a.34.34,0,0,1,.48,0,.35.35,0,0,1,0,.49A8,8,0,0,1,576.15,96.11Z" class="colorc9a98f svgShape"/><path fill="#160705" d="M585.92 78.69c0 1.35-.46 2.44-1 2.44s-.9-1.12-.87-2.47.45-2.45 1-2.44S585.94 77.34 585.92 78.69zM568.27 79.59c0 1.35-.45 2.44-1 2.43s-.9-1.11-.87-2.46.45-2.45 1-2.44S568.3 78.24 568.27 79.59z" class="color160705 svgShape"/><path fill="#440a09" d="M550 357.51s21.24 2.06 27 .44c0 0-.89 37.89-1.47 38.94s-5.77 2.21-7.06 3.19-6.12 6.69-10.31 7.37-19.82-.44-20-2.24-.4-5.29 1.69-7.36 11.68-8.92 12.52-10.69S550 357.51 550 357.51zM595.58 359.21A91.52 91.52 0 00621.44 361s-.39 24.16-.19 27.25 9.16 7.4 10.46 10.81 1.66 7.72.51 8.46-9.1 1.22-16.16.73c-5.41-.38-12-6.16-14.35-7.78a35.68 35.68 0 00-5.51-3z" class="color440a09 svgShape"/><path fill="#b9bdc6" d="M610,345.9l7.64,32a11,11,0,0,1-2.12,9.47l-10.89,13.57a11,11,0,0,1-8.45,4.11,10.62,10.62,0,0,1-4.69-1l-15.86-7.17a11,11,0,0,1-6.17-7.49l-7.65-32a3,3,0,0,1,2.2-3.59l42.4-10.14A3,3,0,0,1,610,345.9Z" class="colorb9bdc6 svgShape"/><path fill="#9e2500" d="M528.55,111.89a3,3,0,0,1,3.61,2.22l59.07,247c1,4.06.44,7.65-1.16,8s-3.7-2.57-4.68-6.63l-59.07-247a3,3,0,0,1,2.23-3.61Z" class="color9e2500 svgShape"/><path fill="#a3aab5" d="M585.33,336.45l7,29.08a3,3,0,1,1-5.84,1.4l-7-29.09Z" class="colora3aab5 svgShape"/><path fill="#a3aab5" d="M617.06 375.53l.56 2.35a11 11 0 01-2.12 9.47l-10.89 13.57a11 11 0 01-8.45 4.11c-10.76-2.67-23-12-24.16-15-1.47-3.76-8.6-30.66-8-33.34a9.62 9.62 0 011.84-3.26l12.38-3c-.84 4.05-1.77 10.9-.16 17.25 2.5 9.85 11.16 25.42 18 22.55s8.18-10 14.58-14A7.33 7.33 0 01617.06 375.53zM596.33 348.93c-.57.67 3.65 4.07 5.92 7.05s4 9.54 5 9.06.41-13-1.16-16S597.54 347.51 596.33 348.93z" class="colora3aab5 svgShape"/><path fill="#c4c8ce" d="M583.67,338.83c1,0,7.37,26.46,6.48,27.1S582,338.8,583.67,338.83Z" class="colorc4c8ce svgShape"/><path fill="#ff8f76" d="M529.25,156.83c0-4.23,2-12.38,3.23-15.59s5.82-4.51,6.94-4.27,1.48,4.49,1.48,4.49,2.75,2.61,2.44,4.71c0,0,1.28,2.69.56,4.91a8.65,8.65,0,0,1,.72,3.71c-.06,1.13-2.41,1.34-2.41,1.34s-1.59-1-2.28-.44c0,0-.95,11.74-3.07,13S529.19,165.51,529.25,156.83Z" class="colorff8f76 svgShape"/><path fill="#f76a52" d="M535.63 143.61a.39.39 0 01-.3-.16.4.4 0 01.09-.56 10.52 10.52 0 015.47-1.83.4.4 0 01.41.39.4.4 0 01-.39.41 9.93 9.93 0 00-5 1.67A.37.37 0 01535.63 143.61zM537.94 147.34a.39.39 0 01-.32-.19.4.4 0 01.14-.55c1.28-.76 5.14-.83 5.58-.83a.38.38 0 01.4.39.4.4 0 01-.39.41c-1.13 0-4.26.16-5.18.72A.37.37 0 01537.94 147.34zM543.87 151.48h-.07c-1.27-.32-3.51-.7-4.15-.34a.4.4 0 01-.39-.7c1.09-.63 4.14.11 4.74.27a.4.4 0 01-.13.78z" class="colorf76a52 svgShape"/><path fill="#440a09" d="M663.89 400.35s-2.8 7.38-3.89 8.55-6 4.46-6.2 5.31 2.31 3.69 6.44 3.24 8.27-3.36 10.21-4 8.39-2.8 8.63-3.77-5.71-13.49-6.07-13.37S663.89 400.35 663.89 400.35zM624.74 402.54s-1.21 3.52-1.94 4.25-13.49 5.84-13.49 5.84a3.81 3.81 0 002.79 4.25c3.41 1.22 10.21.12 14.23 0s9.48.56 10.45-.51-1.22-16-1.22-16z" class="color440a09 svgShape"/><path fill="#b45833" d="M613.32,279.11s-1.13,36.51-1.62,45.87c-1.14,21.52,1.16,32.94,4.54,48.26,1.79,8.15,6.56,31,6.56,31s7.89,2.76,13.79,0c0,0-.66-41.9-1.15-45.79s1.15-25.77,1.15-25.77,12,44.25,25.85,70.15c0,0,8.07,1.22,12.48-3.16,0,0-2.52-28.56-4.22-35.14s-4.09-17-5.69-24.56-7.44-60.82-7.44-60.82Z" class="colorb45833 svgShape"/><path fill="#440a09" d="M624.58,189.11a35.94,35.94,0,0,0-4.93,8.81c-1.48,4.36,2,11.05,1.24,13.37-2.15,6.91-8.65,6.9-9.47,13.54-.93,7.51,7.73,10.53,7.73,10.53s43.61,5.1,48.55,4.6,11.68-4,10.86-10.69-5.1-7-6.59-11.08,1.16-7-1.15-11.13-6.25-1.83-11-9.14S624.58,189.11,624.58,189.11Z" class="color440a09 svgShape"/><path fill="#f2e9e7" d="M611.7,281.1s11.46,3.16,16,4a19,19,0,0,0,7.72,0s14.73,3.46,20.5.82,10.19-52,9.07-51.88-21.49-13.47-21.49-13.47l-25.11,9.61Z" class="colorf2e9e7 svgShape"/><path fill="#e0d1c6" d="M598.73,243s-4.21,1.54-5.27,4.82.25,13.88,1.62,15.31,6.14,1.34,8-2.59S598.73,243,598.73,243Z" class="colore0d1c6 svgShape"/><path fill="#ff5e47" d="M630 222.38s-8.4 1.41-11.8 5.11-8.08 17.8-9.78 30.6-2.68 43.32-2.19 47.63 9.24 7.95 10.21 6.5 1.53-31.37 1.61-39.39.95-33.19 7.45-41.52S630 222.38 630 222.38zM658.78 216.42c3.41.85 9.61 6 10.94 9.12s2.44 37.81 2.44 47a187.45 187.45 0 002.18 25c.73 4.86 1.43 10.41.48 11.17-10.93 8.76-27.22 7.31-28.8 5.85s-7.28-30.64-9-48.94c-1.11-11.56.16-26.4 3.71-34s10.92-15.32 10.92-15.32z" class="colorff5e47 svgShape"/><path fill="#f2e9e7" d="M622.33,218.25c-1.93-1.86.17-5.26,6.22-9.49s24.76-7.41,28.65-4.13c0,0-6,5.11-8.63,8.75S628.66,224.32,622.33,218.25Z" class="colorf2e9e7 svgShape"/><path fill="#ff8f76" d="M628.22,171.82c-2.6,2.76-4.55,9.9-4.87,11.69s-.49,7.74-1,12.12,2.76,16.79,8.45,18.25,13.09-3.17,15.2-4.31,4.87-6.17,4.87-6.17,5.36,1.79,7.63-3.08.17-7.31-3.73-7c0,0,3.8-10.48,2.17-12.59S628.22,171.82,628.22,171.82Z" class="colorff8f76 svgShape"/><path fill="#2d0505" d="M632.19 186a.35.35 0 01-.25-.1s-2.83-2.85-6.32-2a.35.35 0 01-.16-.68c3.87-.92 6.85 2.08 7 2.2a.35.35 0 010 .49A.34.34 0 01632.19 186zM649.48 191.08a.34.34 0 01-.27-.13 8.81 8.81 0 00-8.32-3 .34.34 0 11-.16-.67 9.5 9.5 0 019 3.19.35.35 0 01-.27.57z" class="color2d0505 svgShape"/><path fill="#f76a52" d="M632.12,200a.42.42,0,0,1-.34-.19,3.16,3.16,0,0,1,.54-3.81.4.4,0,0,1,.56,0,.41.41,0,0,1,0,.57,2.37,2.37,0,0,0-.44,2.84.39.39,0,0,1-.13.55A.42.42,0,0,1,632.12,200Z" class="colorf76a52 svgShape"/><path fill="#ffffff" d="M628.55,201.44A75.38,75.38,0,0,0,637,203s-2.81,2.43-5.21,2.27S628.55,201.44,628.55,201.44Z" class="colorfff svgShape"/><path fill="#160705" d="M644.46 193.54c-.31 1-1 1.75-1.51 1.59s-.69-1.13-.37-2.16 1-1.75 1.52-1.59S644.78 192.51 644.46 193.54zM628.7 190.26c-.32 1-1 1.75-1.51 1.59s-.69-1.13-.37-2.17 1-1.74 1.52-1.58S629 189.22 628.7 190.26z" class="color160705 svgShape"/><path fill="#ffffff" d="M657.2,204.63a22.57,22.57,0,0,0-9.72,2.55c-5.35,2.68-11.5,10.09-15.29,11.55a13,13,0,0,1-9.86-.48s3.87,3.89,4.48,5.83-2.67,4.74-2.67,5.35.6,2.31,3.58,2.31,8.08-1.82,14.34-6,7.12-8.87,16.72-9.36a2.31,2.31,0,0,0,0-2.24c-.6-1.4-2.79-2.74-3-4.08S657.2,204.63,657.2,204.63Z" class="colorfff svgShape"/><path fill="#e0d1c6" d="M646 217.62a.34.34 0 01-.24-.59c5.77-5.65 11.25-4.88 11.48-4.84a.35.35 0 01.29.4.37.37 0 01-.4.29s-5.38-.75-10.89 4.64A.33.33 0 01646 217.62zM633.62 222.73a.34.34 0 01-.31-.19.35.35 0 01.15-.47c.06 0 6.58-3.55 10.11-9.23a.34.34 0 01.47-.12.35.35 0 01.12.48c-3.63 5.85-10.31 9.45-10.38 9.49A.47.47 0 01633.62 222.73z" class="colore0d1c6 svgShape"/><path fill="#440a09" d="M653.31,183.35s-2.91,6.33-.73,10.83c1.46,3,4.22,4.2,6.47,5.4,3.5,1.86,4,5.54,1,7.48,0,0,6.12-.64,6.34-3.78s-3.79-5.36-3.79-5.36,0-6.58-2.43-8.81S653.31,183.35,653.31,183.35Z" class="color440a09 svgShape"/><path fill="#a34828" d="M665.35,189.11s2.6-11.59,1-18.4-13.32-12.52-21.2-9.84a43.33,43.33,0,0,0-15,8.63C628.51,171.08,665.35,189.11,665.35,189.11Z" class="colora34828 svgShape"/><path fill="#440a09" d="M634.83,175.33s-9.87,3.48-11.19,6.89c-1.31-.69.1-7.24,4-9.72C634.59,168.11,634.83,175.33,634.83,175.33Z" class="color440a09 svgShape"/><path fill="#2d0505" d="M660,207.41a.35.35,0,0,1-.2-.63c2.56-1.78,1.17-5.06,1.11-5.2a.34.34,0,0,1,.18-.46.35.35,0,0,1,.45.18s1.33,3.11-.48,5.27c1.57-.29,4.38-1.11,5-3.38a.34.34,0,0,1,.42-.25.35.35,0,0,1,.25.42c-.91,3.67-6.43,4-6.66,4Z" class="color2d0505 svgShape"/><path fill="#b45833" d="M605.67,242.29s1.17-6,.47-8.34-6.11-10.17-6.6-11-.15-9.93.57-11.83,2.27-5.32,2.27-5.32l-2.27-4.36a47.39,47.39,0,0,0,2.94,3.82c.26.07,3.09-3.12,3.09-3.12s-2,2.83-2.71,4a22.35,22.35,0,0,0-2.48,5.77,95.21,95.21,0,0,0-.24,9.94c.12,1,7,12,7.75,11.61s5.09-8.76,4.94-9.47-1.7-11-1.7-11,2.49,8.39,2.61,11-3.55,9.35-4.31,10.77-.93,7.51-.93,7.51Z" class="colorb45833 svgShape"/><path fill="#fce1cd" d="M597.23,249.65c.41-1.65,4.34-4,4.34-4.28s-2.35-5.44-2.35-5.44a25,25,0,0,1,3.16-.8c1.46-.24,3,1.44,4.62,1.2a19.76,19.76,0,0,0,4-1.16c1.3-.46,6.16,1.32,6.16,1.32l-2.13,4.38s5,4.84,5.86,7.41-.65,14.43-5.27,15.18-15-5.13-16-5.72S596.23,253.78,597.23,249.65Z" class="colorfce1cd svgShape"/><path fill="#c9a98f" d="M608.45,249.65h0a.35.35,0,0,1-.34-.36c0-1.58-.25-3.41-.71-3.52a3,3,0,0,0-1.59.15,11.22,11.22,0,0,1-1.28.27,7.43,7.43,0,0,1-3.09-.5.34.34,0,1,1,.25-.64,7.3,7.3,0,0,0,2.75.45,8.17,8.17,0,0,0,1.19-.26,3.74,3.74,0,0,1,1.93-.14c1.23.28,1.26,3.29,1.24,4.21A.35.35,0,0,1,608.45,249.65Z" class="colorc9a98f svgShape"/><path fill="#c9a98f" d="M604.89 249.19h0a.35.35 0 01-.33-.36 6.31 6.31 0 011.66-3.7.35.35 0 01.5.48 5.6 5.6 0 00-1.46 3.24A.35.35 0 01604.89 249.19zM613.4 249.19a.36.36 0 01-.32-.21c-.68-1.51-3.26-3.31-3.28-3.32a.35.35 0 01.39-.58c.11.08 2.76 1.93 3.53 3.62a.35.35 0 01-.32.49zM616.32 248.18A.36.36 0 01616 248c-.3-.81-2.11-2.17-2.79-2.63a.35.35 0 01.39-.58c.27.19 2.62 1.81 3 3a.35.35 0 01-.2.45zM604.48 246.19a.34.34 0 01-.3-.19L602.07 242a.35.35 0 01.15-.47.34.34 0 01.46.15l2.11 4.05a.35.35 0 01-.15.47A.29.29 0 01604.48 246.19z" class="colorc9a98f svgShape"/><path fill="#c9a98f" d="M610.56,245.38a.41.41,0,0,1-.18,0,.36.36,0,0,1-.12-.48l2-3.24a.35.35,0,0,1,.48-.12.36.36,0,0,1,.12.48l-1.95,3.24A.35.35,0,0,1,610.56,245.38Z" class="colorc9a98f svgShape"/><path fill="#ff8f76" d="M610.56,258.16a46.76,46.76,0,0,1-4.42-2.05c-.76-.54-1.54-3.44-2.87-4.72-2.19-2.09-2.92-3.84-3.49-3.52-1.29.73-.16,2.59.65,4s.65,2.49,0,2.49-3.2-4.76-3.2-4.76-1.52.3-1.68,1.23a30.45,30.45,0,0,0,.75,6.45c.32,1.15.65,4.24,1.62,5.94s11.89,5.92,11.89,5.92Z" class="colorff8f76 svgShape"/><path fill="#f76a52" d="M598 256.94a.37.37 0 01-.29-.13 26.74 26.74 0 01-2.51-4.36.42.42 0 01.2-.54.4.4 0 01.53.2 26.35 26.35 0 002.37 4.16.4.4 0 010 .56A.4.4 0 01598 256.94zM598 261a.42.42 0 01-.34-.19l-1.53-2.47a.4.4 0 11.68-.42l1.53 2.47a.4.4 0 01-.34.61z" class="colorf76a52 svgShape"/><path fill="#ffffff" d="M668.68,233.9c0,3.83-1.08,25.12-1.69,27.26s-5.34,3.52-7.26,5.21-11.4,11.33-14.15,12.55-25.44-3.82-27.28-4.28c0,0-2.27,1.83-3,1.53a1.84,1.84,0,0,1-.25-.17c-1.42-1-7.89-3.43-8.31-4.71s-.56-9.82.66-13.5,2.63-4.21,4-3.52,8.88,1.23,9.34,1.84a1.63,1.63,0,0,0,1,.72A8.47,8.47,0,0,0,624,257c2.46,0,9.33-1.37,12.1-1.68s4.77,1.38,4.76,1.08-.92-2,0-3.38,3.25-4,4.77-6.58,10.23-22.05,19-21C667.17,225.81,668.68,230.07,668.68,233.9Z" class="colorfff svgShape"/><path fill="#e0d1c6" d="M618.3 274.64s-2.27 1.83-3 1.53a1.84 1.84 0 01-.25-.17c.13-1.91.64-4.76 1.38-9a25.63 25.63 0 014.29-10.87 1.63 1.63 0 001 .72C614.61 270.57 618.3 274.64 618.3 274.64zM645.58 266.5a.34.34 0 01-.34-.3 16.87 16.87 0 00-4-8.63.35.35 0 010-.49.36.36 0 01.49 0 17.27 17.27 0 014.23 9 .35.35 0 01-.31.38zM647.59 263.61a.34.34 0 01-.34-.28c-1.13-6.31-5.69-7.45-5.88-7.5a.34.34 0 01-.26-.41.34.34 0 01.42-.26c.05 0 5.19 1.28 6.4 8a.35.35 0 01-.28.4zM660.6 266.07a.3.3 0 01-.22-.08.34.34 0 010-.49l4.4-5.18a.36.36 0 01.49 0 .34.34 0 010 .49l-4.4 5.18A.36.36 0 01660.6 266.07z" class="colore0d1c6 svgShape"/><path fill="#ff8f76" d="M598,242.44c.71-.78,5.3,1.81,5,2.93s-2.93,0-2.93,0,2.83,2.17,2.27,2.74-3.65-.78-3.65-.78.41,1.54,0,2-2.51-1.1-2.67-1.47.53-1.24.72-1.4a11.34,11.34,0,0,0,.82-2.21C597.76,243.65,597.19,243.33,598,242.44Z" class="colorff8f76 svgShape"/><path fill="#f76a52" d="M600.11 245.77a.41.41 0 01-.19 0c-.94-.49-2.46-1.13-2.48-1.14a.4.4 0 01.31-.74c.06 0 1.57.66 2.54 1.16a.4.4 0 01.17.54A.39.39 0 01600.11 245.77zM598.73 247.74a.53.53 0 01-.17 0l-1.95-.91a.4.4 0 11.34-.72l1.95.9a.41.41 0 01-.17.77z" class="colorf76a52 svgShape"/><path fill="#e0d1c6" d="M635.44,285.45a.25.25,0,0,1-.12,0l-6.89-2.55a.35.35,0,0,1-.2-.45.34.34,0,0,1,.44-.2l6.89,2.55a.36.36,0,0,1,.21.45A.35.35,0,0,1,635.44,285.45Z" class="colore0d1c6 svgShape"/><path fill="#75321a" d="M636.59,333a.35.35,0,0,1-.34-.29l-4.59-25.28a.35.35,0,1,1,.68-.13l4.59,25.29a.34.34,0,0,1-.28.4Z" class="color75321a svgShape"/><path fill="#c1d353" d="M601.06,203.28c1-.79-3.54-8.61-6-8.07S600.11,204.06,601.06,203.28Z" class="colorc1d353 svgShape"/><path fill="#c1d353" d="M601.94 204.39c.26-1.21-8.12-4.54-9.73-2.58S601.69 205.59 601.94 204.39zM600 222.61c-.59-1.08-9.12 1.86-9.06 4.4S600.63 223.69 600 222.61z" class="colorc1d353 svgShape"/><path fill="#c1d353" d="M599.57 221.7c.21-.86-5.75-3.47-7-2.09S599.36 222.57 599.57 221.7zM605.35 203.28c1.26.11 1.27-1.23 3.11-1.84s5.21-.69 4.94-2.19-5-1.1-6.59 0S604.57 203.2 605.35 203.28zM612 214.88c.4 0-.09-2.1.53-4s3.13-3.67 2.35-4.5-2.93 1.42-3.51 3.2S611.06 215 612 214.88z" class="colorc1d353 svgShape"/><path fill="#c1d353" d="M612,214.88c.18.86,1.53-1.5,2.88-2.39s2.65-1.84,1.94-2.43S611.35,211.93,612,214.88Z" class="colorc1d353 svgShape"/><path fill="#b45833" d="M625.54,176.46c2.57,0,11.59-.06,18.32,3.58,9.14,5,18.69,17.88,18.69,17.88s4.13-7,3.77-10.43-5.35-11.55-16.84-17c-9.42-4.48-16.35-4.26-17.71-3.55C627.72,169,622.37,176.47,625.54,176.46Z" class="colorb45833 svgShape"/><path fill="#ff8f76" d="M660.09,178.16c.95,2.94,6.07-2.23,6.3-1.56s-4.1,4.14-4.5,6.5,1.45,2,1,4.41-1.43,7.79.84,5.73,4.56-6.21,4.69-9.45,2.92-6.55.51-8.65c0,0,1.87-4.54-.42-4.83C667.22,170.15,659.38,175.92,660.09,178.16Z" class="colorff8f76 svgShape"/><path fill="#f76a52" d="M666.39 177a.38.38 0 01-.34-.2.39.39 0 01.14-.54l2.55-1.46a.4.4 0 11.4.69L666.59 177A.35.35 0 01666.39 177zM663.91 186.48a.43.43 0 01-.26-.09.42.42 0 01-.06-.57 2.1 2.1 0 01.5-.37 10.15 10.15 0 003.64-3.73.4.4 0 01.7.38 11 11 0 01-3.91 4l-.31.2A.38.38 0 01663.91 186.48z" class="colorf76a52 svgShape"/><path fill="#ceb99d" d="M191 196.5a.33.33 0 01-.19-.06l-39.93-26.95a.45.45 0 01-.13-.17L149 164.75a.36.36 0 01.2-.45.35.35 0 01.45.2l1.74 4.47 39.83 26.89a.36.36 0 01.1.49A.35.35 0 01191 196.5zM181.59 211.25a.31.31 0 01-.13 0c-1.55-.62-38.19-15.36-46.62-22.77a.36.36 0 010-.49.35.35 0 01.49 0c8.34 7.33 46 22.5 46.42 22.65a.34.34 0 01.19.45A.35.35 0 01181.59 211.25zM211.5 124.29c-3.74 0-9.29-6.43-15.72-13.87l-.17-.2a25.16 25.16 0 01-6.23-15.46.35.35 0 01.35-.34h0a.35.35 0 01.34.35 24.36 24.36 0 006.06 15l.17.2c6.09 7 11.84 13.75 15.26 13.62s12.87-2.51 13-2.53a.34.34 0 01.42.25.34.34 0 01-.25.42c-.39.1-9.51 2.46-13.12 2.55z" class="colorceb99d svgShape"/><path fill="#ceb99d" d="M206.64,109.7a.37.37,0,0,1-.28-.14c-3.49-4.78-6.18-17.93-6.29-18.48a.35.35,0,1,1,.68-.14c0,.13,2.77,13.55,6.17,18.21a.34.34,0,0,1-.07.48A.31.31,0,0,1,206.64,109.7Z" class="colorceb99d svgShape"/><path fill="#b45833" d="M364.35,258.05s6.93-.65,7.91,0c0,0,1.14,19.37,1.32,24.12s3.86,42.42,3.68,59.26-1.4,89.93-1.4,89.93-6.31.64-7.89.76c0,0,1.58-58.25,1.23-72.63s.52-35.83-1.4-55.69S364.35,258.05,364.35,258.05Z" class="colorb45833 svgShape"/><path fill="#561c1c" d="M419,240.05c-10,1.52-19.62,2.58-28.14,8.49a277.71,277.71,0,0,0-24.34,19.06.47.47,0,0,0-.23.12c.16-4.4,1.32-8.87,2.3-13.11,1.07-4.6,2.47-9.2,5.08-13.18a.37.37,0,0,0,.17-.18.49.49,0,0,1,0-.11l.11,0a72.92,72.92,0,0,1,7.42-3.79,67.12,67.12,0,0,0,7.91-4.72,122.25,122.25,0,0,0,13.94-11c.46-.42-.22-1.1-.68-.68a119.76,119.76,0,0,1-14.5,11.37c-4.41,2.91-9.32,4.81-13.8,7.53.35-1.83.1-3.89.26-5.69.34-3.73.83-7.44,1.44-11.13,1.13-6.77,3-13.28,6.61-19.16a.48.48,0,0,0-.83-.49,45.74,45.74,0,0,0-5,11.51,54.51,54.51,0,0,1-7.13-13.18c-.23-.57-1.16-.32-.93.26A55.81,55.81,0,0,0,376.48,216c-.44,1.68-.82,3.39-1.14,5.11-.56,3.07-1,6.16-1.37,9.25-.21,1.71-.38,3.44-.51,5.15s.24,3.55-.39,5.1c-2.8,4.12-4.28,8.94-5.4,13.76s-2.5,10.11-2.34,15.17h0a68.23,68.23,0,0,0-5.57,16.14c-.68,3.09-1.08,6.2-1.55,9.34a31.18,31.18,0,0,1-.95,4.69,8.37,8.37,0,0,0-.7,2.39c-.48,1.65-1,3.28-1.62,4.9-.45.72-.91,1.44-1.37,2.16a42.12,42.12,0,0,0-4.73,10.32c-.11.36-.2.73-.29,1.09-.2-.49-.4-1-.58-1.49-.62-1.74-.8-3.61-1.53-5.31-1.33-3.1-4.26-5.63-6.75-7.78-3-2.58-6.27-4.74-9.39-7.13a40.35,40.35,0,0,1-8.72-9.84c-1.16-1.71-2.28-3.44-3.42-5.15,0,0,0-.08,0-.12-2.65-6.81-1.19-13.75,1.56-20.27,2.2-5.23,3.61-10.87,6.11-16S332.9,238,337,234c4.37-4.25,8.88-8.35,12.84-13,.4-.47-.28-1.15-.68-.68-4.23,5-9.1,9.3-13.74,13.88-3.95,3.89-8,8-10.51,13-.15-5.54-.89-11-.94-16.6a.48.48,0,0,0-1,0c0,6,.92,12,1,18a.41.41,0,0,0,.13.32c-1,2.38-1.79,4.84-2.62,7.29-1,2.93-2.29,5.72-3.4,8.6-2,5.3-3,10.85-1.78,16.31-.65-.95-1.3-1.9-2-2.83-2.5-3.48-5.11-6.86-7.43-10.46a62.19,62.19,0,0,1-5.57-11.42c-.82-2.12-1.71-4.46-3.33-6.12a58,58,0,0,0-7.12-11.56,128.33,128.33,0,0,0-9.21-10.43c-3-3.08-6.32-6.23-10.3-8-.57-.25-1.06.58-.49.83,6,2.65,10.77,8.07,15.07,13.17-3.05-.12-6-.78-9.14-.78-3.46,0-6.92.15-10.39.16a.49.49,0,0,0,0,1c3.47,0,6.93-.16,10.39-.16s6.57.77,9.87.81l.1,0,1.57,1.87a60,60,0,0,1,8,11.82c.2.4.38.81.57,1.21a.4.4,0,0,0,.12.45l.17.18c1.65,3.77,2.76,7.74,4.48,11.49,1.88,4.11,5.12,7.37,7.69,11,3,4.28,5.67,8.77,8.46,13.18,2.41,3.83,4.77,7.94,8.06,11.09,2.83,2.71,6.2,4.76,9.43,6.95,4.11,2.78,7.66,5.62,9.43,10.4a82.28,82.28,0,0,1,2.75,11.32c-.62,5.94,0,12,.26,18,.43,9,1.92,18,2.35,27,.35,7.27-1.35,14.39-2.11,21.6a27,27,0,0,0-.46,4.71c-.05,3.72-.13,7.43-.28,11.15a155.92,155.92,0,0,0,.58,22.87.49.49,0,0,0,.48.48,10.14,10.14,0,0,0,2.34-.19.5.5,0,0,0,.54-.6c-3.57-16.91-.15-34.62.78-51.66a199.32,199.32,0,0,0,0-26l0-.45c.89-3.53,3.19-5.46,5.63-8,1.3-1.34,2.46-3.16,4.3-3.82,1.37-.49,2.73-.38,4-1.13a.48.48,0,0,0-.48-.83c-1.63.92-3.57.64-5.14,1.68s-2.62,2.65-3.91,3.93a20.56,20.56,0,0,0-4.66,5.87c-.77-7.33-2.28-14.64-1.92-22,.37-7.64,3.5-14.47,6.05-21.52l.26-.43a20.65,20.65,0,0,0,3.34-8.91,49.13,49.13,0,0,0,5-3.12c1.7-1.09,3.43-2.14,5.08-3.32a70,70,0,0,0,9.61-8.51c6.14-6.4,11.83-12.8,19.07-18,.5-.36,0-1.19-.49-.83-6.79,4.91-12.39,10.77-18.05,16.89a72,72,0,0,1-10.28,9.39c-1.75,1.28-3.6,2.4-5.43,3.58-1.48.95-2.88,2-4.43,2.85a.42.42,0,0,0-.31-.31c.17-4.57,1.72-9.35,2.81-13.69.62-2.47,1.27-5,2.12-7.36.79-2.24,2-4.28,2.59-6.6l.25-.47a273.17,273.17,0,0,1,24.42-19.15c8.47-5.87,18-6.89,27.92-8.4C419.88,240.89,419.62,240,419,240.05Z" class="color561c1c svgShape"/><path fill="#ffcb7f" d="M376.53,370.45c-4.22.39-8.34,1.79-12.52,2.48s-10.52,1.78-13.33-2.17a.48.48,0,0,0-.78.57c2.62,3.69,8,3.38,12,2.89,4.67-.57,9.19-2.12,13.84-2.7-2,3-6.88,4-10.08,4.59a33.34,33.34,0,0,1-16.3-.83c-.58-.19-1,.69-.4.87a34.54,34.54,0,0,0,17.85.71c3.57-.77,8.63-2,10.25-5.73A.48.48,0,0,0,376.53,370.45Z" class="colorffcb7f svgShape"/><path fill="#ff8f76" d="M410.79,333.47c-.36.13-19.33,4.14-20.91,5.47s-1.82,11.43-1.94,12.77.05,5.1,2.72,5.35,3.72-.49,3.72-.49,1.34,2.31,2.67,1.82,2.1-1.45,3.91-2.91,7.16-3.77,7.76-4.74,4.14-6.2,6-7.54S410.79,333.47,410.79,333.47Z" class="colorff8f76 svgShape"/><path fill="#f76a52" d="M396.69,349a.42.42,0,0,1-.32-.16.4.4,0,0,1,.08-.56c2.11-1.62,7.12-2.61,7.34-2.65a.38.38,0,0,1,.46.31.39.39,0,0,1-.31.47c-.05,0-5,1-7,2.51A.43.43,0,0,1,396.69,349Z" class="colorf76a52 svgShape"/><path fill="#f76a52" d="M394.84,356.36a.39.39,0,0,1-.18,0,.4.4,0,0,1-.17-.54,8.61,8.61,0,0,1,4.16-4,3.2,3.2,0,0,0,.55-.31,10.93,10.93,0,0,0,.74-2.06,12.88,12.88,0,0,1,1.15-3,.41.41,0,0,1,.56-.1.4.4,0,0,1,.09.56,13.89,13.89,0,0,0-1,2.81,7.35,7.35,0,0,1-.93,2.39,2.89,2.89,0,0,1-.76.46,7.8,7.8,0,0,0-3.81,3.7A.41.41,0,0,1,394.84,356.36Z" class="colorf76a52 svgShape"/><path fill="#f76a52" d="M394.84 354.54a.4.4 0 01-.32-.17.39.39 0 01.09-.55c2.42-1.75 5.28-7.05 5.31-7.11a.41.41 0 01.54-.16.4.4 0 01.17.54c-.12.23-3 5.52-5.55 7.37A.37.37 0 01394.84 354.54zM390.73 356.36a.39.39 0 01-.39-.31c-.63-2.89 2.68-10.62 2.82-10.95a.4.4 0 01.53-.21.4.4 0 01.21.52c0 .08-3.35 7.83-2.78 10.47a.39.39 0 01-.3.47zM387.94 352.11h0a.39.39 0 01-.4-.4c0-1.35 2.46-8.34 2.74-9.13a.39.39 0 01.51-.24.4.4 0 01.25.51c-1.09 3.06-2.7 7.94-2.7 8.86A.4.4 0 01387.94 352.11z" class="colorf76a52 svgShape"/><path fill="#ff8f76" d="M394,278.31a30.51,30.51,0,0,1-6.15-1.47c-1.22-.41-3.64-2.42-5.05-3a101.46,101.46,0,0,1-9.29-5.15c-1.92-1.31-2.42.2-1.31,1.82s4.54,4.94,4.34,5.25a39.1,39.1,0,0,1-7.88,1.82c-1.31,0-10.7-2.32-11.41-1.21s4.55,3.12,6.16,3.73,6.67,1.31,6.77,1.61-5.66.38-6.77.49-7.37-2.31-8-1.24,5.35,4.44,6.36,4.77,3.37,4.28,4,5c2,2.08,8.27,1,9.49,1s11.3-3,12.41-2.91,7.17,1.21,7.07.81S394,278.31,394,278.31Z" class="colorff8f76 svgShape"/><path fill="#913d20" d="M515.69,397.6c-2.28-.25,3.75,17.78,4.21,21.24s-.15,8.64,3.57,7.61S520.06,398.09,515.69,397.6Z" class="color913d20 svgShape"/><polygon fill="#6a8ea5" points="498.24 399.2 525.63 403.41 526.44 423.68 484.62 421.08 498.24 399.2" class="color6a8ea5 svgShape"/><path fill="#b45833" d="M581.82,421.1c-2,.81-20.83-1.84-23.27-1.84a99.79,99.79,0,0,0-13.2,1.52c-1.63.3-5.06,1.16-8.74,2.12-1.82.48-3.72,1-5.48,1.46-4.22,1.14-7.66,2.09-7.66,2.09s.48-8.91-1.14-13.94-6.64-14.9-6.64-14.9l7.86,1.19,7,1.06c3.64.56,6.55,1,6.67,1,.32,0,2.1-1.94,3.07-1.93s3.08,1.45,4.71,0a13.3,13.3,0,0,1,8.27-2.61c2.93.17,7.73,4.61,10,5.52,3.66,1.44,6.65,2.52,9.72,3.89a26.66,26.66,0,0,1,8,5.67C584.08,414.45,583.76,420.28,581.82,421.1Z" class="colorb45833 svgShape"/><path fill="#ffcb7f" d="M536.61,422.9c-1.82.48-3.72,1-5.48,1.46a54.79,54.79,0,0,0-7.58-25.56l7,1.06C535.24,408.33,536.39,417.52,536.61,422.9Z" class="colorffcb7f svgShape"/><path fill="#913d20" d="M529.68,415.57c-2.28-.25,3.75,17.78,4.22,21.23s-.15,8.64,3.56,7.62S534.06,416.06,529.68,415.57Z" class="color913d20 svgShape"/><path fill="#6a8ea5" d="M521.9,355.05c0,4.92-2.19,15.38-3.65,21.46s-9.72,21.64-11.42,25.77-1.46,7.54-2.68,8.51a12.6,12.6,0,0,0-2.19,2.43,28,28,0,0,1,5.35,0c3.89.24,29.91,6.08,29.91,6.08l6.32,20.42s-63.46,3.89-67.35,2.19-6.56-6.81-8-15.07c0,0-18,.72-21.15-.25s-9.24-8-9.73-10.7,9.24-28.44,18.72-44.24,16.08-26.4,16.08-26.4Z" class="color6a8ea5 svgShape"/><path fill="#ffcb7f" d="M415.9,329.58s-5.84,2.92-8.51,3.89c0,0,2.43,9.73,5.59,13.38,0,0,7.54-3.89,13.37-5.35S415.9,329.58,415.9,329.58Z" class="colorffcb7f svgShape"/><path fill="#ffffff" d="M472.55 282.17c-.73 1-20.93 22.86-25.42 27S413 329.1 413 329.1s6.08 13.13 8.27 17.75c0 0 36-16.54 42.3-20.18s25.14-19.45 25.14-19.45zM524.45 350.13s-.24 7.54-.6 8.14-8.76-.24-13.38 0-26.38 1.83-30.14 1-13.74-5.84-14-6.33 1.94-8 1.94-8z" class="colorfff svgShape"/><path fill="#ffcb7f" d="M525.67 286.79c.75 10.11-1.58 30.88-1.09 37.69s3.4 17.5 2.67 20.18-1.07 7.53-2.72 8.26-12.84-1-18.31 0-21.53 2.68-25.41 1.95-13.69-4.62-13.69-4.62-2.21-6.08-2-7.54 1.71-9 2-14.1-1.87-29.9-.9-36.95 1.49-21.49 7.06-28.94 32.57-17.75 37-16.16S525.13 279.5 525.67 286.79zM404.47 278.31s-10-1-12.89-2c0 0-.48 11.91 0 15.32l14.35 3.4z" class="colorffcb7f svgShape"/><path fill="#ffffff" d="M481.78,244.3c-4.61,2.62-15.31,10.89-16.53,14.78s4.38,1.94,6.08,5.59-.24,12.88-.24,12.88,12.15-18.47,41.09-26.74c0,0,1-14.1-2.44-15.68S481.78,244.3,481.78,244.3Z" class="colorfff svgShape"/><path fill="#b45833" d="M477.17,193.31s9.84-2.8,12.52-2.67,20.78,7.65,22.73,11.06,7.17,30.52,8,33.43,9.85,20.3,10.46,27.47a40.58,40.58,0,0,1-5.23,24.19s-3.4-7.66-5.71-10.57-15.44-15.44-18.12-29.66c0,0-15.07,8.26-13.37,28.44a13.37,13.37,0,0,1-2.19-6.68s-2.55,8.87,2.19,15.56c0,0-10.21-2.31-12.16-12.28s3-18.24,7.78-24.92,7.3-25.17,5.72-30.52S477.17,193.31,477.17,193.31Z" class="colorb45833 svgShape"/><path fill="#ffffff" d="M497.47 222.49s-5.47-11.8-7.18-15.44-10.73-14.59-11.75-14.83-5.87 2.79-7.82 4.13-2.67 3.65-2.31 4.8 12.4 16.35 15.08 18.42S497.47 222.49 497.47 222.49zM467.12 234l1 3.16s6.48.17 8.43-1.05 1.05-3 .81-2.92S467.12 234 467.12 234z" class="colorfff svgShape"/><path fill="#ff8f76" d="M491.92,220.66s4.05-3.16,6.32-1.62,1.05,6.65,0,9.4-4.95,3.81-4.95,3.81-.84,6.57-1.54,7.62c-2.1,3.16-7.7,6.4-11.42,7.46-2.38.67-8.51,2.83-10.3,1.45s-1.21-5.18-1.29-5.75-1.38-2-1.06-2.76,1.06-.89,2.11-1.37,4.78-2.84,4.78-3.25-6.48.33-7.21.33a2.56,2.56,0,0,1-1.86-1.62c0-.49,1.05-3.08.56-3.57s-4-1.29-4-2.43,3.73-5.35,4.54-6.81-.16-6.48,0-8.26,2-10.68,3.64-12.14c0,0,7.05,5.9,10.54,8.9S491.92,220.66,491.92,220.66Z" class="colorff8f76 svgShape"/><path fill="#75321a" d="M478.54,215.74a.32.32,0,0,1-.16,0c-3.65-1.94-8.54-.87-8.59-.86a.35.35,0,0,1-.42-.26.36.36,0,0,1,.26-.42c.21,0,5.2-1.14,9.08.93a.35.35,0,0,1-.17.65Z" class="color75321a svgShape"/><path fill="#160705" d="M474.73,221.58c0,1.41-.51,2.55-1.15,2.55s-1.15-1.14-1.15-2.55S473,219,473.58,219,474.73,220.18,474.73,221.58Z" class="color160705 svgShape"/><path fill="#ffffff" d="M495.22,229.93a.88.88,0,1,1-.88-.88A.88.88,0,0,1,495.22,229.93Z" class="colorfff svgShape"/><path fill="#75321a" d="M501.84 246.9a.32.32 0 01-.28-.15.34.34 0 01.09-.48s3.77-2.63 4.23-6a.34.34 0 11.68.09c-.5 3.64-4.36 6.33-4.52 6.44A.36.36 0 01501.84 246.9zM486.16 263.07h0a.36.36 0 01-.34-.36 19.34 19.34 0 011.94-6.87c1.67-3.56 5.17-8.65 12.34-12.69a.36.36 0 01.48.14.35.35 0 01-.14.47c-7 3.93-10.41 8.88-12 12.34a18.76 18.76 0 00-1.88 6.63A.35.35 0 01486.16 263.07zM519.47 234.62a.35.35 0 01-.32-.2 89.14 89.14 0 01-2.8-9.5c-2.37-8.89-5.61-21.06-8.65-23.5a.35.35 0 01-.05-.49.36.36 0 01.49-.05c3.21 2.58 6.35 14.38 8.88 23.86a92.05 92.05 0 002.77 9.4.33.33 0 01-.18.45A.32.32 0 01519.47 234.62zM523.24 280.45a.34.34 0 01-.34-.26c-2.26-9-8.56-17.4-12.74-22.93-1.85-2.45-3.19-4.22-3.54-5.24a.35.35 0 01.66-.23 29.2 29.2 0 003.44 5.06c4.2 5.57 10.56 14 12.86 23.17a.35.35 0 01-.26.42z" class="color75321a svgShape"/><path fill="#ffffff" d="M501.84,258.1c4,.92,9.86,16.78,10.46,22s-4.26,22-6.08,23.46-10.21-8.75-11-8.75-39,8.3-42.37,8.89-23.34-1.84-28.69-2.57-23.09-3.89-23.09-3.89-.25-17.75,0-19.7,15.8-.24,21.88,0S437.29,279,437.29,279s2.68-1.94,4.14-1.46,1.7,1.71,3.4,1.46,3.16-2.91,4.62-2.91,15.4-.25,17.67-1S496.86,257,501.84,258.1Z" class="colorfff svgShape"/><path fill="#e0d1c6" d="M443.86,287.14a.35.35,0,0,1-.35-.29c-.76-4.81,3.35-9.51,3.39-9.55a.35.35,0,0,1,.49,0,.35.35,0,0,1,0,.48c-.1.11-3.88,4.49-3.18,8.94a.35.35,0,0,1-.29.4Z" class="colore0d1c6 svgShape"/><path fill="#e0d1c6" d="M442.71,292a.35.35,0,0,1-.28-.14c-3.65-5-.19-13.34,0-13.69a.33.33,0,0,1,.45-.18.34.34,0,0,1,.19.45c0,.08-3.46,8.36,0,13a.36.36,0,0,1-.07.49A.42.42,0,0,1,442.71,292Z" class="colore0d1c6 svgShape"/><path fill="#ffffff" d="M490.29,320s7.66,12.28,15.44,16.41l-5.22,5.11s-10-7.42-15.2-18Z" class="colorfff svgShape"/><path fill="#002b50" d="M468.17,427.08a.26.26,0,0,1-.24-.19c-1.56-7.28.19-38.93,6.57-61.39a.24.24,0,0,1,.3-.17.25.25,0,0,1,.17.3c-6.37,22.4-8.11,53.92-6.56,61.15a.24.24,0,0,1-.19.29Z" class="color002b50 svgShape"/><path fill="#002b50" d="M459.17 413.46a.23.23 0 01-.17-.07.25.25 0 010-.34c3.16-3.16 8.9-5.86 9-5.89a.24.24 0 01.32.11.25.25 0 01-.12.33c-.05 0-5.72 2.7-8.81 5.79A.24.24 0 01459.17 413.46zM459.17 409.09A.27.27 0 01459 409a.25.25 0 010-.35c4.66-4.17 9-3.25 9.22-3.21a.24.24 0 01.18.29.24.24 0 01-.29.18s-4.32-.89-8.78 3.11A.27.27 0 01459.17 409.09zM496.22 420a.23.23 0 01-.11 0 .24.24 0 01-.11-.32c1.23-2.52 4.06-5.14 5.26-6.18-1.77.16-6.58 1.11-10.66 6.43a.24.24 0 11-.39-.29c5.24-6.84 11.7-6.66 11.76-6.66a.25.25 0 01.23.16.25.25 0 01-.08.27s-4.18 3.41-5.68 6.48A.25.25 0 01496.22 420z" class="color002b50 svgShape"/><path fill="#002b50" d="M526.17,417.12h-.06c-14.5-3.83-24-3.65-24.14-3.65a.22.22,0,0,1-.23-.15.25.25,0,0,1,.06-.27,10.79,10.79,0,0,0,3.49-6.45,58,58,0,0,1,2-6,.25.25,0,0,1,.46.17,56.86,56.86,0,0,0-2,6,11.42,11.42,0,0,1-3.21,6.29,101.28,101.28,0,0,1,23.67,3.66.24.24,0,0,1,.17.3A.25.25,0,0,1,526.17,417.12Z" class="color002b50 svgShape"/><path fill="#b45833" d="M595.81,439.07c-1.94.81-20.83-1.84-23.26-1.84a100.09,100.09,0,0,0-13.21,1.52c-1.62.3-5.05,1.16-8.73,2.12l-5.49,1.46c-4.22,1.14-7.66,2.09-7.66,2.09s.49-8.91-1.14-13.94-6.64-14.91-6.64-14.91l7.87,1.2,7,1.06c3.65.55,6.56,1,6.67,1,.32,0,2.1-1.94,3.08-1.93s3.08,1.45,4.7,0a13.27,13.27,0,0,1,8.28-2.61c2.93.17,7.73,4.61,10,5.51,3.66,1.44,6.66,2.52,9.73,3.89a27.3,27.3,0,0,1,8,5.67C598.08,432.42,597.76,438.25,595.81,439.07Z" class="colorb45833 svgShape"/><path fill="#ffcb7f" d="M550.61,440.87l-5.49,1.46a54.77,54.77,0,0,0-7.57-25.56l7,1.06C549.24,426.3,550.39,435.49,550.61,440.87Z" class="colorffcb7f svgShape"/><path fill="#f76a52" d="M367.41 286.21c-2.62 0-5.42-.11-5.6-.11a.4.4 0 01-.38-.42.39.39 0 01.41-.38c.07 0 6.54.24 9 0a.4.4 0 01.08.8C370.08 286.18 368.77 286.21 367.41 286.21zM372.26 289.81h-7.44a.4.4 0 01-.41-.4.4.4 0 01.41-.4h7.44a.4.4 0 01.4.4A.39.39 0 01372.26 289.81z" class="colorf76a52 svgShape"/><path fill="#75321a" d="M581.06,421.57h-.12a34.06,34.06,0,0,1-6.21-2.9l-1-.73c-2-1.46-5.11-3.66-7.33-3.31a17.76,17.76,0,0,0-7.17,2.56,5.14,5.14,0,0,1-4.36.38c-.53-.14-.94-.26-1.15-.11a2.08,2.08,0,0,0-.57.71,1.67,1.67,0,0,1-1.93,1c-1.55-.22-21.36-3.21-21.56-3.24a.35.35,0,0,1-.29-.4.34.34,0,0,1,.39-.29c.2,0,20,3,21.56,3.24.78.1.94-.17,1.23-.67a2.8,2.8,0,0,1,.77-.92c.48-.33,1.06-.18,1.73,0a4.47,4.47,0,0,0,3.83-.31,18.61,18.61,0,0,1,7.41-2.65c2.5-.4,5.59,1.82,7.84,3.44l1,.72a33.29,33.29,0,0,0,6,2.81.34.34,0,0,1,.21.44A.33.33,0,0,1,581.06,421.57Z" class="color75321a svgShape"/><path fill="#ffcb7f" d="M399.07,350a14.17,14.17,0,0,0-4.82,3.93,39,39,0,0,1-7.57,6.09c-5.31,3.46-11.51,8.12-17.95,8.76-.61.06-.62,1,0,1,6-.6,11.23-4.43,16.23-7.5a64.32,64.32,0,0,0,7.62-5.29c2.28-1.91,3.91-4.87,6.75-6C399.9,350.64,399.65,349.71,399.07,350Z" class="colorffcb7f svgShape"/><path fill="#c1d353" d="M372.92 340.11a11.87 11.87 0 00-6.13-.64l.08-.06c1-.82 1.86-1.66 2.87-2.44.55-.42 3.78-3.25 1.32-3.45-1.88-.16-4 1.36-5.2 2.65a5 5 0 00-1.48 3.1 1.28 1.28 0 00.3.85c-.43 1.18 1.48 1.51 2.32 1.71 2 .49 4.85 2.07 7 1.12C375.78 342.15 374 340.61 372.92 340.11zM425.71 235.69a14.27 14.27 0 00-3.93 1.53c-1.43.81-2.37 2.06-3.7 2.9a.44.44 0 00-.21.35.33.33 0 00-.07.16.48.48 0 00-.07.52c.71 1.63 4.2 2.79 5.72 1.82a.5.5 0 00.1-.76 5.1 5.1 0 00-2.64-1.67c1-.35 1.89-.78 2.8-1.17 1.13-.48 3.7-1.26 4.21-2.58S426.56 235.51 425.71 235.69zM405.35 233.72c-1.21-.69-2.51 1.52-2.94 2.33-1 2-2.5 5.47-1.15 7.59l0 0a.38.38 0 00.32.25c1.58.24 2.37-2.18 2.88-3.3a14.46 14.46 0 001.41-4.39C406 235.57 406.1 234.14 405.35 233.72zM386.27 200a7.65 7.65 0 00-3.51 2.18 6.74 6.74 0 00-.1-1.93c-.17-.77-.83-1.17-1.45-.5-.86.92-.91 4.39.46 4.89a.39.39 0 00.28 0 .45.45 0 00.16 0 23 23 0 004.86-2c.68-.34 2.38-1 2.34-2C389.25 199.33 387 199.75 386.27 200zM369.18 197.09c-1.11.58-1.19 2.44-.83 3.88l-.2-.19a1.72 1.72 0 00-1.72-.39.5.5 0 00-.34.59c.37 1.24 2.16 2 3.24 2.41a.49.49 0 00.72-.42c0-.13 0-.27 0-.4a.45.45 0 00.1-.28c0-1.35.32-2.71.32-4C370.49 197.48 370.07 196.62 369.18 197.09zM407.9 219a3.46 3.46 0 00-3.22.48c.44-.62.88-1.24 1.27-1.9s.78-1.83-.25-1.95c-.78-.09-1.48 1-1.87 1.49a10.77 10.77 0 00-1.59 4.22.48.48 0 000 .27.47.47 0 00.46.53c1.13-.11 2.1-1 3.2-1.28.79-.23 1.88-.46 2.2-1.32A.46.46 0 00407.9 219zM356.87 216a11.54 11.54 0 00-5.64 2.5c.93-1.71 1.87-3.41 2.81-5.13.35-.62 1.32-2.11.47-2.72-1.17-.85-2.66 1.35-3.14 2a12.82 12.82 0 00-1.77 3.5c-.4 1.33-.36 2.76-.7 4.08l0 .06c0 .06 0 .11 0 .16s0 .1 0 .15a.51.51 0 000 .21c0 .09 0 .16 0 .26a.48.48 0 00.24.41c.69.37 1.43-.19 2.07-.46 1.81-.77 3.71-1.28 5.58-1.88.93-.29 3.07-.76 3.35-1.88C360.4 215.73 357.68 215.91 356.87 216zM346.06 219.55c-.11-.83-.49-3.92-2.07-2.91s-1 4.53-.74 5.89c.18 1 .46 2.89 1.59 3.28a.42.42 0 00.22 0 .38.38 0 00.44-.24A11.94 11.94 0 00346.06 219.55zM324.29 227.35a.49.49 0 00-.66-.17c-.94.41-1.06 1.84-.91 3-.72-.36-1.56-.55-1.91 0-.6 1 1.74 1.51 2.33 1.66a.44.44 0 00.44-.13.47.47 0 00.39-.5.5.5 0 00.14-.33C324.17 229.64 324.94 228.63 324.29 227.35zM342.47 237a22.57 22.57 0 00-10.89 1.4.51.51 0 00-.28.32.46.46 0 00.07.55 3.23 3.23 0 002.39.61l4.73 0c1 0 5.22.33 6.06-.83S343.38 237.16 342.47 237zM271.88 219.1a.59.59 0 000-.14 6.32 6.32 0 00-2-4.25 1.82 1.82 0 00-.57-.3 1 1 0 00-1-.2c-1.05.43-.44 2.26-.16 3A9.4 9.4 0 00270 220c-1.37-.29-3.07-.45-3.17.59-.2 2 4.25 1.19 5.18 1.16a.48.48 0 00.46-.49.49.49 0 000-.24C272.32 220.37 272.11 219.73 271.88 219.1zM267.45 233.67a.4.4 0 00-.17-.17 7.12 7.12 0 00-1.67-1 12.5 12.5 0 00-1.36-.4c-.67-.13-1.74.08-1.49 1 .19.69 1.16.93 1.76 1.08l.2 0c-.52.27-.9.63-.81 1.11.33 1.73 3-.52 3.62-.82A.46.46 0 00267.45 233.67zM328.29 260.53c-.84-.75-3.16.08-4.05.35a13.05 13.05 0 00-5.4 2.92.45.45 0 00-.15.19s0 .06 0 .09 0 0 0 .06a.68.68 0 000 .14v0a.3.3 0 000 .1.36.36 0 00.07.1l0 0a.5.5 0 00.12.08l.05 0 .09 0a.38.38 0 00.23 0 64.5 64.5 0 007.62-2.08C327.62 262.28 329.3 261.43 328.29 260.53zM406.59 263.12c-.61-1-2.84-.69-3.71-.54a20.39 20.39 0 00-3.81.8 24.53 24.53 0 001.28-4.43.5.5 0 00-.47-.61c-2.36-.2-2.21 4.21-2.36 6a.33.33 0 000 .24c0 .08 0 .16 0 .22a.48.48 0 00.59.59C398.88 265.19 408.09 265.45 406.59 263.12zM389.93 265.81c-1.67.19-.89 4.3-.77 5.34a.51.51 0 00.53.46.46.46 0 00.74-.25C390.65 270.46 391.9 265.59 389.93 265.81zM395.43 251.64c-3.1-.76-6.52.29-9.57.81a.39.39 0 00-.33.46.3.3 0 000 .21c.52 1.32 2.51 1.41 3.72 1.49 1.94.12 5 .1 6.68-1.07C397.08 252.76 396.66 251.94 395.43 251.64z" class="colorc1d353 svgShape"/><path fill="#e0d1c6" d="M452.85,304.06a.34.34,0,0,1-.34-.34.35.35,0,0,1,.34-.36c.23,0,6.09-.21,47.33-10.23a.34.34,0,1,1,.16.67c-41.5,10.09-47.26,10.26-47.48,10.26Z" class="colore0d1c6 svgShape"/><path fill="#e0d1c6" d="M503.55 297c-2.59 0-8.18-1.76-8.44-1.84a.35.35 0 01.21-.67c.07 0 6.57 2.07 8.66 1.79a.34.34 0 11.1.68A2.93 2.93 0 01503.55 297zM469.35 261.35a.35.35 0 01-.26-.1.35.35 0 010-.49c.25-.25 6.22-5.92 10-8a.35.35 0 01.47.13.35.35 0 01-.13.48c-3.67 2.08-9.76 7.88-9.83 7.94A.33.33 0 01469.35 261.35z" class="colore0d1c6 svgShape"/><path fill="#c9a98f" d="M500.51,341.84a.32.32,0,0,1-.19,0c-4.05-2.59-10.46-10.5-10.73-10.83a.35.35,0,1,1,.54-.44c.07.08,6.61,8.15,10.56,10.69a.34.34,0,0,1-.18.63Z" class="colorc9a98f svgShape"/><path fill="#deeffc" d="M394.49 49.84c-5.23 10.42 32.49 23 57 21.8s50.79-10.84 48.69-18.53S402.4 34.07 394.49 49.84zM727 224.34c16.82 2.18 15.84-113 0-115S697.29 220.49 727 224.34zM84.67 262.18c12-3.13 1.43-85.07-14.86-82.46S59.67 268.68 84.67 262.18z" class="colordeeffc svgShape"/><path fill="#dac646" d="M635.69,449.35c.37,6.21,73.74,6.31,79-7S634.94,436.7,635.69,449.35Z" class="colordac646 svgShape"/><path fill="#ffffff" d="M271 107.77c5 2.59 65.55 4.4 68 .29s-1.83-10.22-9.14-10.82-13.57 7.24-13.57 7.24S313.15 93.7 304.76 93s-10.58 14.73-10.58 14.73S287.85 96 279.94 97.24 267.14 105.76 271 107.77zM334.89 130.35c1.32 2.51 45.24 3 46.29 0s-1.45-18.7-11.7-19.35-16.37 14.88-16.37 14.88-1.92-5.33-9.4-4.18S333.06 126.85 334.89 130.35zM630.26 94.41c1.13 2 28 2.14 30.59 0s-3-9-6.4-9.36-6.24 5.81-6.24 5.81S645.49 80.54 637.94 81C632.52 81.39 627.93 90.32 630.26 94.41z" class="colorfff svgShape"/><path fill="#deeffc" d="M68.41,160.16c5.22-1.81,8-30.27,3.34-31.8C63,125.48,60.13,163,68.41,160.16Z" class="colordeeffc svgShape"/><path fill="#ffffff" d="M308,307c-10.45-31-31.54-39.95-36.2-40.5l.12-1c.24,0,24.87,5.08,37,41.17Z" class="colorfff svgShape"/><path fill="#ffffff" d="M300.86,281.23a45.75,45.75,0,0,0-29-18l.1-1a46.79,46.79,0,0,1,29.72,18.4Z" class="colorfff svgShape"/><path fill="#ffffff" d="M336.38 336.28c-21.07-60.09-49.47-72.46-49.75-72.58l.38-.92c.29.12 29.1 12.66 50.32 73.17zM344.92 378.91c-.76-10.9-4.68-24.49-4.72-24.63l1-.28c0 .14 4 13.84 4.76 24.84z" class="colorfff svgShape"/></g></svg>