<svg xmlns="http://www.w3.org/2000/svg" enable-background="new 0 0 360 360" viewBox="0 0 360 360"><path fill="#fbb890" d="M262.5901489,118.218811c0.1503906,1.4691467-1.0150452,3.466011-2.7846375,4.4925537
			c2.0573425-0.9981537,7.1115112-1.8367462,6.956543,0.308876c-0.1273499,1.7395096-4.1868896,3.0583038-5.6810913,3.889122
			c1.3387756-0.2920609,3.7642822-0.4011307,4.2326355,0.8652267c0.9983521,2.7215805-6.5579529,4.4808121-7.1485596,4.7224808
			c0.5722351-0.1922302,7.0922852-0.9778748,5.3441162,2.4542999c-1.8309021,3.6010742-24.6736603,4.3169708-24.6736603,4.3169708
			l-4.6831207-11.9375229c0,0,12.497467-13.0035706,16.5320435-10.3948898
			c2.5052643,1.6225891-2.4781952,4.6856003-2.4781952,4.6856003S262.3352661,115.7288589,262.5901489,118.218811z" class="colorffa49d svgShape"/><path fill="#d17705" d="M204.5639496,21.5869102c0,0,5.4354095-0.1377201,5.1285248,4.0049667
					c-0.3919983,5.2916412-25.1763611,6.7182999-25.1763611,6.7182999l3.147049-8.04245l9.4411316-3.1266003L204.5639496,21.5869102
					z" class="colora1172f svgShape"/><path fill="#ffa30f" d="M239.78508,140.5079651c0,0-33.8498077,18.9458008-44.447113,15.6836853
						c-9.9296417-3.0618286-24.2747345-34.8050079-24.2747345-34.8050079l12.5335388-34.0429916
						c15.5383148,6.7915497,18.2750854,31.4283295,24.8732452,44.6791458l28.4681702-10.2534637
						C239.4287109,121.3916016,242.2756042,140.1302338,239.78508,140.5079651z" class="colorf43f62 svgShape"/><polygon fill="#fbb890" points="157.921 248.759 146.653 340.17 130.138 339.129 129.209 249.919" class="colorffa49d svgShape"/><path fill="#fb600a" d="M166.8770905,347.7241516C166.5211945,352.7798767,164.2281189,355,156.0511017,355
									c-8.1843719,0-18.5579834-0.9728088-19.3130188-0.9728088c-0.7550201,0-7.2112579,1.5132141-8.2660828-0.5570679
									c-0.3184967-0.6236572-0.34375-2.0873413-0.1987-3.9331055c0.2922363-3.617218,1.3261261-9.6090393,1.9417114-12.6687927
									c0.1956329-0.9565735,1.237854-1.3885803,1.8990173-0.8067627c0.7820129,0.6902466,1.8421478,2.1415405,3.3976746,1.8175354
									c1.9465027-0.4076538,1.1685181-6.3030396,5.5310974-4.7812805c0,0-0.4411011-3.6005859,2.7558899-4.2908325
									c3.1975708-0.6983337,7.8240814-0.3491516,6.848053,5.4715271c0,0,4.6591797,6.2112732,6.0809631,7.9993896
									c0.1039886,0.1331787,0.1875,0.2326355,0.2572174,0.3158875c0.9471283,1.1307678,9.4261322,0.1664734,9.8773499,4.4820251
									C166.8860321,347.2750854,166.8934784,347.4914856,166.8770905,347.7241516z" class="colordd2e4c svgShape"/><path fill="#ffa30f" d="M156.9849243,342.593689c-1.0119934,1.6130981-5.3186035,1.7629395-7.309433,1.2972107
									c-1.9981995-0.4656982-8.6326904-10.7931824-8.6326904-10.7931824s-0.4411011-3.6005859,2.7558899-4.2908325
									c3.1975708-0.6983337,7.8240814-0.3491516,6.848053,5.4715271c0,0,4.6591797,6.2112732,6.0809631,7.9993896
									C156.8316956,342.4109802,156.9152069,342.510437,156.9849243,342.593689z" class="colorf43f62 svgShape"/><path fill="#e4dad4" d="M166.8770905,347.7241516C166.5211945,352.7798767,164.2281189,355,156.0511017,355
									c-8.1843719,0-18.5579834-0.9728088-19.3130188-0.9728088c-0.7550201,0-7.2112579,1.5132141-8.2660828-0.5570679
									c-0.3184967-0.6236572-0.34375-2.0873413-0.1987-3.9331055c1.477066-0.2829895,3.4285278-0.5489502,5.6106567-0.5489502
									c4.8623352,0,12.6884918,3.3760681,19.6271515,3.3760681s7.3246918-2.8023682,9.3111877-4.2075806
									c1.3589478-0.9642944,3.0898132-1.0974731,4.039978-1.0808411
									C166.8860321,347.2750854,166.8934784,347.4914856,166.8770905,347.7241516z" class="colord4dbe4 svgShape"/><path fill="#e4dad4" d="M145.7697296,343.7081909c-0.0965881,0-0.1903229-0.0405884-0.2583466-0.1217957
									c-0.1360321-0.1624146-0.1175079-0.4255066,0.0413971-0.5879211
									c3.5390472-3.6168213,9.7670135-2.7487488,10.0301056-2.7101746
									c0.2047119,0.0300293,0.3352661,0.238739,0.2919617,0.4663086c-0.0433044,0.2277832-0.245224,0.3885498-0.4487915,0.3579102
									c-0.0606079-0.0083313-6.1269989-0.8516235-9.3808441,2.473877
									C145.9657745,343.6676025,145.8663177,343.7081909,145.7697296,343.7081909z" class="colord4dbe4 svgShape"/><path fill="#e4dad4" d="M143.9909973,340.8266602c-0.1205597,0-0.234436-0.063324-0.2994995-0.1812744
									c-0.104248-0.1896057-0.0418091-0.4482422,0.1394806-0.5777588
									c4.7956238-3.4253845,9.8425446-2.1092834,10.0549316-2.0520325
									c0.1985931,0.0540161,0.3070221,0.2785339,0.2426605,0.5016479
									c-0.0647278,0.2229004-0.2805328,0.3609314-0.4768982,0.3067322
									c-0.0491943-0.0133972-4.9475708-1.2819824-9.4428558,1.9302368
									C144.1401215,340.8031311,144.0643616,340.8266602,143.9909973,340.8266602z" class="colord4dbe4 svgShape"/><path fill="#e4dad4" d="M141.8914032,338.9210205c-0.105072,0-0.2063904-0.0481262-0.274231-0.1420898
									c-0.1249695-0.1729736-0.0906372-0.4356689,0.0770569-0.5867004
									c4.0887909-3.6858521,9.9492493-2.8183899,10.1964874-2.7798157
									c0.2038422,0.0318604,0.3328247,0.2419739,0.2880554,0.4693604
									c-0.0451202,0.227356-0.2454987,0.3871155-0.4510956,0.3540344
									c-0.0569153-0.0085144-5.7720795-0.8501892-9.5805664,2.582489
									C142.070755,338.8871155,141.9798889,338.9210205,141.8914032,338.9210205z" class="colord4dbe4 svgShape"/><polygon fill="#fbb890" points="196.385 248.879 194.401 340.17 177.151 339.129 169.691 249.919" class="colorffa49d svgShape"/><path fill="#ffa30f" d="M196.994873,180.9001923c0,6.9958038-69.4342117,6.9958038-69.4342117,0
							c0,0,4.1636581-23.5373535,3.3729019-31.3321838c-0.7826691-7.7140656-4.1958618-21.5200958-5.5998688-33.3494492
							c-0.9844971-8.2463531-0.9925766-15.5329208,1.5330429-19.1395645
							c3.2518539-4.6397095,11.5757675-8.4320526,19.9556046-11.5307083
							c7.3474579-2.7169037,18.7195129-2.2762833,26.5062714-1.4209137
							c5.5998688,0.6213303,14.2705536,4.2362518,17.8693237,8.8921051
							c2.1786041,2.8158951,2.827713,11.4176254,1.6254272,20.8743362v0.0165482
							c-1.2588196,9.8924637-0.3713684,22.1502609-0.5327148,28.2583847
							C192.0323944,151.9162292,196.994873,180.9001923,196.994873,180.9001923z" class="colorf43f62 svgShape"/><path fill="#3e3830" d="M198.3488464,250.7316742c0.3597717,5.5941925-29.8483124,8.2648163-30.2000885,2.6609802
							l-3.6850586-33.6738892l-2.6506653,33.6738892c0,5.6226654-36.4793396,3.0156708-36.4793396-2.6070099
							c-0.743454-29.8625031,5.7084503-69.2506714,5.7084503-69.2506714l63.9093933-0.4416656
							C196.0146637,181.5349731,198.3488464,242.7863922,198.3488464,250.7316742z" class="color30323e svgShape"/><g class="color000000 svgShape"><path fill="#f6ad82" d="M169.3403473,77.5168991c-0.4724884-0.3225021-14.6734619-10.1320114-15.6762848-17.9930191
								c0,0,0,0,0.0115356,0.0118179c0.2537079,0.3686523,7.5614471,11.1000748,15.9875336,13.4746399
								C169.3865051,74.531662,169.3057404,76.0648041,169.3403473,77.5168991z" class="colorf68b82 svgShape"/><path fill="#1e1e1d" d="M193.2846985,35.6435432c-1.6828613,3.3083-4.8527069,5.9828529-8.5297241,6.5130348
								c-3.6770172,0.5301857-7.734436-1.3834267-9.2098236-4.7952843c-0.864502-2.0171738-0.8068695-4.3343315-0.1844635-6.4432468
								c0.6339569-2.0982189,1.798172-3.9881916,3.1006927-5.7520924c0.9106445-1.2218971,1.9134674-2.4207191,3.2389984-3.1810989
								c1.3140564-0.7609425,3.0085144-1.0260334,4.3686676-0.346138l8.7141724,3.1124344
								C195.29039,28.4393578,194.9676208,32.3239899,193.2846985,35.6435432z" class="color1e1d1e svgShape"/><path fill="#fbb890" d="M176.8200226,74.4203033c-2.2131042,0.703537-4.4377441,0.6224899-6.6047668,0
								c-8.8871155-2.4893799-16.5753937-13.797142-16.8520355-14.2006874
								c-6.4895325-2.8011932-11.6073914-12.9675369-7.2964172-16.1835327
								c5.9477539-4.4029961,9.5440674,2.0976563,9.5440674,2.0976563s-0.4841003-10.2699051,2.1670227-16.3101635
								c3.1006927-7.0888081,17.6819916-8.1260986,24.5980072-4.5527096
								c1.7405548,0.9106541,3.0084534,4.2532845,3.723114,8.8059921c0.2766266,1.6715965,0.4610901,3.5041618,0.5763245,5.4408493
								C187.4822235,53.17696,184.508316,71.9309235,176.8200226,74.4203033z" class="colorffa49d svgShape"/><path fill="#d17705" d="M178.2966156,62.3363266v0.1497116c-0.0576935,1.821312-1.094986,3.4006042-2.5935059,4.2189484
								c-0.7146454,0.3804779-1.5214691,0.599411-2.3745728,0.599411c-2.1091919,0-3.9189606-1.3254547-4.633606-3.1810989
								c-0.20755-0.5189247-0.3227844-1.0834389-0.3343201-1.6715927v-0.1153793
								c0-0.1035614,0.0346069-0.1958656,0.0346069-0.2881699c3.6194-0.4266205,6.9966431-0.5414391,9.8667908,0
								C178.2735443,62.140461,178.2966156,62.2327652,178.2966156,62.3363266z" class="colora1172f svgShape"/><path fill="#fff" d="M178.2966156,62.3363266v0.1497116c-3.6096954,1.1357841-6.7803802,0.8515587-9.9360046-0.0343323
								v-0.1153793c0-0.1035614,0.0346069-0.1958656,0.0346069-0.2881699c3.6194-0.4266205,6.9966431-0.5414391,9.8667908,0
								C178.2735443,62.140461,178.2966156,62.2327652,178.2966156,62.3363266z" class="colorffffff svgShape"/><path fill="#ffa30f" d="M175.7031097,66.7049866c-0.7146454,0.3804779-1.5214691,0.599411-2.3745728,0.599411
								c-2.1091919,0-3.9189606-1.3254547-4.633606-3.1810989c1.4292908-0.7952728,3.2158508-0.841423,4.7489929,0
								C174.5158234,64.7108917,175.2996979,65.6446228,175.7031097,66.7049866z" class="colorf43f62 svgShape"/><path fill="#f6ad82" d="M177.1740723,57.0021629c-0.0634766,0-0.1269531-0.0036621-0.1904297-0.010498
								c-0.2060547-0.0229492-0.3544922-0.208252-0.331543-0.4140625c0.0224609-0.2058105,0.2133789-0.3540039,0.4135742-0.331543
								c0.340332,0.0366211,0.690918-0.1057129,0.996582-0.4020996c0.4194336-0.4074707,0.6513672-1.0158691,0.6049805-1.5876465
								c-0.0395508-0.4924316-0.2387695-0.951416-0.449707-1.4372559c-0.0771484-0.177002-0.1538086-0.3537598-0.2231445-0.5327148
								c-0.9575195-2.4633789-0.5556641-5.3312988-0.2333984-7.6357422
								c0.0292969-0.2053223,0.2158203-0.3481445,0.4238281-0.3193359c0.2050781,0.0285645,0.3476563,0.2182617,0.3193359,0.4233398
								c-0.3110352,2.2182617-0.6972656,4.9787598,0.1894531,7.2600098c0.065918,0.1699219,0.1386719,0.3378906,0.2119141,0.5056152
								c0.2255859,0.5205078,0.4594727,1.0588379,0.5092773,1.6755371c0.0649414,0.8012695-0.2456055,1.6184082-0.8300781,2.1862793
								C178.1687012,56.7860985,177.673584,57.0021629,177.1740723,57.0021629z" class="colorf68b82 svgShape"/><ellipse cx="182.678" cy="47.739" fill="#1e1e1d" class="color1e1d1e svgShape" rx="1.349" ry="2.344"/><ellipse cx="170.788" cy="47.372" fill="#1e1e1d" class="color1e1d1e svgShape" rx="1.349" ry="2.344"/><path fill="#1e1e1d" d="M180.7453613,43.8239403c-0.0800781,0-0.1601563-0.0253906-0.2280273-0.0773926
								c-0.1640625-0.1259766-0.1953125-0.3605957-0.0698242-0.5246582c0.0390625-0.0512695,0.9731445-1.2543945,2.3666992-1.347168
								c0.8354492-0.0568848,1.6469727,0.2973633,2.3994141,1.0500488c0.1464844,0.1464844,0.1464844,0.3837891,0,0.5302734
								s-0.3837891,0.1464844-0.5302734,0c-0.5913086-0.5915527-1.1914063-0.873291-1.8149414-0.8322754
								c-1.0512695,0.0673828-1.8178711,1.045166-1.8256836,1.0551758
								C180.9689941,43.7736473,180.857666,43.8239403,180.7453613,43.8239403z" class="color1e1d1e svgShape"/><path fill="#1e1e1d" d="M168.317627,43.3488426c-0.0800781,0-0.1601563-0.0253906-0.2280273-0.0773926
								c-0.1640625-0.1259766-0.1953125-0.3605957-0.0698242-0.5246582c0.0390625-0.0512695,0.9731445-1.2543945,2.3666992-1.347168
								c0.8388672-0.0563965,1.6464844,0.2973633,2.3994141,1.0500488c0.1464844,0.1464844,0.1464844,0.3837891,0,0.5302734
								s-0.3837891,0.1464844-0.5302734,0c-0.5913086-0.5915527-1.1923828-0.8713379-1.8149414-0.8322754
								c-1.0512695,0.0673828-1.8178711,1.045166-1.8256836,1.0551758
								C168.5412598,43.2985497,168.4299316,43.3488426,168.317627,43.3488426z" class="color1e1d1e svgShape"/><path fill="#1e1e1d" d="M186.0990143,34.0768623c-1.6814728-0.069397-3.5963287-0.2650948-5.544342-0.6686401
								c-6.5240784-1.3254585-13.4747162-3.9302235-13.4747162-0.8757591c0,5.7633476-6.6278534,1.152668-8.8640289,5.4751816
								c-0.2190094,0.4148026-0.3803406,0.8296051-0.4956512,1.2331543
								c-1.1180573,3.7005882,1.6253052,6.4207306,0.4956512,7.5615807
								c-1.2679138,1.2562294-2.6050568-0.6686401-2.6050568-0.6686401s-3.5963135-6.5006523-9.5440674-2.0976563
								c-4.3109741,3.2159958,0.8069458,13.3822556,7.2964478,16.1837387
								c0.5514526,0.6310883-0.808075,5.339344-1.3486938,8.3005791c0,0-3.8767242-5.6400986-10.2394867-19.4259834
								c-1.6598511-3.5964661-0.6382446-12.5235901-0.4769287-14.5750961
								c0.4495544-6.1668949,1.437439-1.5489807,1.437439-1.5489807s-4.5237579-7.0817585-2.9049225-9.6995335
								c3.1481323-5.0907764,13.4576874-0.8312531,17.6538239-7.9876661
								c9.460968-16.1354065,24.7688141-2.5254822,29.0756226,5.8047876
								c0.7132111,1.3794785,5.2145233,1.829586,7.1894226,2.1830883
								C197.9286804,24.0194759,193.3348846,34.376339,186.0990143,34.0768623z" class="color1e1d1e svgShape"/></g><g class="color000000 svgShape"><path fill="#ffa30f" d="M140.8705444,43.9804573c0,0,4.0319519-8.2329178,13.8968811-12.6152554
							c9.8649139-4.3823376,32.4134521-10.4589024,32.4134521-10.4589024s-4.5485382-13.9069958-17.7415619-15.5787144
							c-16.9480133-2.1475253-28.4150391,6.5330052-31.6932831,18.1495705
							C134.7752075,34.0043488,140.8705444,43.9804573,140.8705444,43.9804573z" class="colorf43f62 svgShape"/></g><g class="color000000 svgShape"><path fill="#fb600a" d="M157.0410156,30.4127445c0,0,13.2551117,2.1305447,21.7637939-0.8999424
							s16.5511322-7.9258919,25.75914-7.9258919c0,0-11.8888245-0.8158989-18.2994843-0.8158989
							C179.8538208,20.7710114,161.1198273,25.3061962,157.0410156,30.4127445z" class="colordd2e4c svgShape"/></g><g class="color000000 svgShape"><path fill="#fff4ed" d="M196.994873,180.9001923c0,6.9958038-69.4342117,6.9958038-69.4342117,0
							c0,0,4.1636581-23.5373535,3.3729019-31.3321838c-0.7826691-7.7140656-4.1958618-21.5200958-5.5998688-33.3494492
							c5.84198-16.2507858,22.1448517-27.1543961,22.1448517-27.1543961
							c17.7519073,7.7625275,28.4078979-1.352066,28.4078979-1.352066s16.9369202,12.0368423,16.9369202,26.1817169v0.0165482
							c-1.2588196,9.8924637-0.3713684,22.1502609-0.5327148,28.2583847
							C192.0323944,151.9162292,196.994873,180.9001923,196.994873,180.9001923z" class="coloredf3ff svgShape"/></g><g class="color000000 svgShape"><path fill="#fb600a" d="M215.9837036,347.7241211c0,5.0557556-2.2219543,7.2758789-10.7249298,7.2758789
									c-8.5106201,0-19.3689575-0.9728394-20.1540833-0.9728394s-7.3879547,1.5132446-8.6363831-0.5570374
									c-0.3768463-0.6236572-0.5102539-2.0873413-0.4945374-3.9331055
									c0.0391083-3.6172485,0.6755981-9.6090393,1.0917358-12.6687927
									c0.1334076-0.9565735,1.1855469-1.3885803,1.9156647-0.8067627c0.8637085,0.6902161,2.0723419,2.14151,3.6661682,1.8175049
									c1.9942474-0.4076233,0.7536926-6.3030396,5.4015656-4.7812805c0,0-0.7222595-3.6005554,2.551651-4.290802
									c3.2739105-0.6983337,8.1104126-0.3491821,7.5215607,5.4715271c0,0,5.2995911,6.2112732,6.9089508,7.9993896
									c0.1178741,0.1331787,0.2119904,0.2326355,0.2905884,0.3158875
									c1.0676575,1.1307373,9.8140564,0.1664429,10.5991821,4.4820251
									C215.9601288,347.2750854,215.9837036,347.4914856,215.9837036,347.7241211z" class="colordd2e4c svgShape"/><path fill="#ffa30f" d="M205.3216553,342.593689c-0.9342499,1.6130981-5.4015656,1.7629089-7.5058441,1.2972107
									c-2.1119385-0.4656982-9.7669067-10.7932129-9.7669067-10.7932129s-0.7222595-3.6005554,2.551651-4.290802
									c3.2739105-0.6983337,8.1104126-0.3491821,7.5215607,5.4715271c0,0,5.2995911,6.2112732,6.9089508,7.9993896
									C205.148941,342.4109802,205.2430573,342.510437,205.3216553,342.593689z" class="colorf43f62 svgShape"/><path fill="#e4dad4" d="M215.9837036,347.7241211c0,5.0557556-2.2219543,7.2758789-10.7249298,7.2758789
									c-8.5106201,0-19.3689575-0.9728394-20.1540833-0.9728394s-7.3879547,1.5132446-8.6363831-0.5570374
									c-0.3768463-0.6236572-0.5102539-2.0873413-0.4945374-3.9331055c1.5152435-0.28302,3.5250092-0.5489502,5.7941284-0.5489502
									c5.0561676,0,13.4414368,3.3760376,20.6566925,3.3760376s7.4115295-2.8023376,9.3743439-4.20755
									c1.3425293-0.9642944,3.1326447-1.0974731,4.1219025-1.0808411
									C215.9601288,347.2750854,215.9837036,347.4914856,215.9837036,347.7241211z" class="colord4dbe4 svgShape"/><path fill="#e4dad4" d="M196.0102386,342.89151c-0.1077118,0-0.2154083-0.0435486-0.2976227-0.1306152
									c-0.164444-0.1741638-0.164444-0.4562683,0-0.6304321c3.662384-3.878418,10.6751404-2.9475403,10.9715271-2.906189
									c0.2306213,0.0322266,0.3925934,0.256012,0.3621674,0.5000305c-0.030426,0.2442627-0.2429504,0.4166565-0.4723358,0.3837891
									c-0.0682373-0.0089111-6.89888-0.913208-10.2661133,2.6528015
									C196.225647,342.8479614,196.1179504,342.89151,196.0102386,342.89151z" class="colord4dbe4 svgShape"/><path fill="#e4dad4" d="M193.8006439,339.8016052c-0.1344299,0-0.2663879-0.0679321-0.3481903-0.1944275
									c-0.1311493-0.2033081-0.0818176-0.4806519,0.1101685-0.6195374
									c5.0785828-3.6731262,10.8095551-2.2618103,11.0508728-2.2004395
									c0.2256775,0.0579224,0.3642273,0.2986755,0.3099518,0.5379333
									c-0.0546722,0.2390137-0.2844696,0.3870544-0.5076904,0.3289185
									c-0.0559082-0.0143738-5.6175232-1.3747253-10.3779144,2.0698242
									C193.9650726,339.7763367,193.8824463,339.8016052,193.8006439,339.8016052z" class="colord4dbe4 svgShape"/><path fill="#e4dad4" d="M189.3576202,338.9210205c-0.1092529,0-0.2181396-0.0481262-0.295578-0.1421204
									c-0.1426086-0.1729431-0.1261139-0.4356384,0.0371857-0.5867004
									c3.9819794-3.6858215,10.1395416-2.8183594,10.3994598-2.7797852
									c0.2142944,0.0318604,0.3638153,0.2419739,0.3339081,0.4693604c-0.0302887,0.227356-0.226944,0.3871155-0.443161,0.3540344
									c-0.0598145-0.0085144-6.0644073-0.8501892-9.7734375,2.582489
									C189.541626,338.8871155,189.4496307,338.9210205,189.3576202,338.9210205z" class="colord4dbe4 svgShape"/></g><g class="color000000 svgShape"><path fill="#fbb890" d="M171.0649872,84.5170135c-0.4952087-1.6329117-1.6609802-4.7166367-1.7245636-7.000206
						c-0.0346985-1.4522018,0.0461121-2.9849854,0.3227692-4.5061188
						c-8.4261017-2.374855-15.7338104-13.1066475-15.9875336-13.4750519
						c-0.0116425-0.0121117-0.0116425-0.0121117-0.0116425-0.0121117l-4.2702789,25.2806435
						C149.3937378,89.1500778,171.0649872,88.8629227,171.0649872,84.5170135z" class="colorffa49d svgShape"/><path fill="#f6ad82" d="M169.3403473,77.5168991c-0.4724884-0.3225021-14.6734619-10.1320114-15.6762848-17.9930191
						c0,0,0,0,0.0115356,0.0118179c0.2537079,0.3686523,7.5614471,11.1000748,15.9875336,13.4746399
						C169.3865051,74.531662,169.3057404,76.0648041,169.3403473,77.5168991z" class="colorf68b82 svgShape"/><path fill="#ffa30f" d="M175.7031097,66.7049866c-0.7146454,0.3804779-1.5214691,0.599411-2.3745728,0.599411
						c-2.1091919,0-3.9189606-1.3254547-4.633606-3.1810989c1.4292908-0.7952728,3.2158508-0.841423,4.7489929,0
						C174.5158234,64.7108917,175.2996979,65.6446228,175.7031097,66.7049866z" class="colorf43f62 svgShape"/><path fill="#f6ad82" d="M177.1740723,57.0021629c-0.0634766,0-0.1269531-0.0036621-0.1904297-0.010498
						c-0.2060547-0.0229492-0.3544922-0.208252-0.331543-0.4140625c0.0224609-0.2058105,0.2133789-0.3540039,0.4135742-0.331543
						c0.340332,0.0366211,0.690918-0.1057129,0.996582-0.4020996c0.4194336-0.4074707,0.6513672-1.0158691,0.6049805-1.5876465
						c-0.0395508-0.4924316-0.2387695-0.951416-0.449707-1.4372559c-0.0771484-0.177002-0.1538086-0.3537598-0.2231445-0.5327148
						c-0.9575195-2.4633789-0.5556641-5.3312988-0.2333984-7.6357422c0.0292969-0.2053223,0.2158203-0.3481445,0.4238281-0.3193359
						c0.2050781,0.0285645,0.3476563,0.2182617,0.3193359,0.4233398c-0.3110352,2.2182617-0.6972656,4.9787598,0.1894531,7.2600098
						c0.065918,0.1699219,0.1386719,0.3378906,0.2119141,0.5056152c0.2255859,0.5205078,0.4594727,1.0588379,0.5092773,1.6755371
						c0.0649414,0.8012695-0.2456055,1.6184082-0.8300781,2.1862793
						C178.1687012,56.7860985,177.673584,57.0021629,177.1740723,57.0021629z" class="colorf68b82 svgShape"/></g><g class="color000000 svgShape"><path fill="#fb600a" d="M157.0410156,30.4127445c0,0,13.2551117,2.1305447,21.7637939-0.8999424
					s16.5511322-7.9258919,25.75914-7.9258919c0,0-11.8888245-0.8158989-18.2994843-0.8158989
					C179.8538208,20.7710114,161.1198273,25.3061962,157.0410156,30.4127445z" class="colordd2e4c svgShape"/></g><g class="color000000 svgShape"><path fill="#ffa30f" d="M146.6014862,157.8343506l-3.5445404,17.1399841c0,0-43.6208038-5.6974792-49.1253357-21.6686554
				c-6.0966492-17.6811371,29.5261383-57.3964462,39.4341583-61.5664825c0,0,8.9864349,5.7854538,9.8204498,15.5931931
				c1.2760468,15.0541-26.0921173,38.7878494-26.0921173,38.7878494L146.6014862,157.8343506z" class="colorf43f62 svgShape"/></g><g class="color000000 svgShape"><path fill="#837058" d="M182.24646,191.39505h-30.4421844c-2.7814026,0-4.8394165-2.2322235-4.2129974-4.5696564
				l11.6764069-42.3856812c0.4533386-1.6916199,2.2000427-2.8896942,4.2129974-2.8896942h30.4421692
				c2.7814178,0,4.8394318,2.2322388,4.2130127,4.5696716l-11.6764069,42.3856812
				C186.0061035,190.196991,184.2593994,191.39505,182.24646,191.39505z" class="color585d83 svgShape"/></g><g class="color000000 svgShape"><path fill="#fbb890" d="M154.4772797,160.7330475c0,0,5.4181061-2.0794983,2.4790649-5.0283813
				c-2.9488831-2.938797-10.6287231,3.4539795-10.6287231,3.4539795" class="colorffa49d svgShape"/></g><g class="color000000 svgShape"><path fill="#73614b" d="M166.4313507,141.5500183c-2.0151215,0-3.7646942,1.1955872-4.2169495,2.8912659l-11.6701965,42.3838196
				c-0.6291046,2.3402405,1.4252472,4.5699463,4.2070923,4.5699463h-2.9488678
				c-2.7818604,0-4.8362122-2.2297058-4.2071075-4.5699463l11.6702118-42.3838196
				c0.45224-1.6956787,2.2018127-2.8912659,4.2169342-2.8912659H166.4313507z" class="color4b5173 svgShape"/></g><g class="color000000 svgShape"><path fill="#fbb890" d="M168.9661102,170.1988373c-0.5013123,1.6808319-4.5609436,1.061676-7.0772705,0.5010834
				c2.2116699,0.6292267,5.2785034,1.7988892,3.8924866,3.1850128c-1.7495728,1.7398682-5.3572083,0.5798035-6.5170288,0.1473541
				c1.3172455,0.5802765,5.7405701,2.7132263,3.6860962,4.7674561c-2.3983612,2.3983612-19.8950958-3.8238525-19.8950958-3.8238525
				l3.2733307-15.8156738l8.1486511,1.5728302c0,0,11.0484619-0.236145,11.0484619,4.1871796
				c0,1.5627594-0.9337616,2.2116547-2.1428986,2.4084473C166.341568,167.9478149,169.359314,168.9111023,168.9661102,170.1988373z" class="colorffa49d svgShape"/></g></svg>