<svg xmlns="http://www.w3.org/2000/svg" enable-background="new 0 0 5000 4300" viewBox="0 0 5000 4300"><path fill="#ffa30f" d="M1718.258,2667.7c-12.8,28.256-105.801,143.865-135.727,158.899     c-64.636,32.472-143.991,8.779-181.004-53.995c-20.727-35.152-46.279-79.479-35.962-115.657     c-0.003-0.001,260.371-818.151,260.371-818.151c8.496-38.564,32.451-81.327,50.113-116.552     c119.646-238.622,313.892-188.792,366.704-92.265c37.383,68.326,34.824,148.154,0.158,211.867L1718.258,2667.7z" class="colorde9681 svgShape"/><path fill="#ee9b6a" d="M2085.736,1797.089c33.951-100.392-53.756-321.254-271.604-236.638      c0,0-111.754,41.589-166.923,193.613c-30.501,84.048-101.058,256.737-131.559,356.61      c35.483,99.024,276.979,202.086,386.504,159.792C1985.644,2082.025,2069.062,1846.393,2085.736,1797.089z" class="coloree776a svgShape"/><path fill="#fb600a" d="M2021.895,1973.892l-223.612-215.602c0,0-13.978,109.83-6.988,201.944      c4.208,55.47,27.984,196.622,45.713,319.86c24.373,0.424,46.665-2.491,65.146-9.628      C1945.124,2173.479,1988.052,2064.042,2021.895,1973.892z" class="colordf6557 svgShape"/><path fill="#ffa30f" d="M3406.952,2804.976c104.292-11.13,154.029-131.54,143.713-167.718     c10.49-37.03-261.983-805.304-261.983-805.304c-8.496-38.564-26.266-74.485-43.927-109.709     c-119.646-238.622-313.892-188.792-366.704-92.265c-37.383,68.326-34.824,148.154-0.158,211.867l345.183,841.88     C3224.348,2687.279,3302.66,2816.106,3406.952,2804.976z" class="colorde9681 svgShape"/><path fill="#ee9b6a" d="M3273.594,1754.064c-55.17-152.024-166.923-193.613-166.923-193.613      c-217.848-84.616-305.555,136.246-271.604,236.638c19.984,59.096,96.427,298.253,191.754,512.263      c102.298,15.313,388.847-107.923,388.847-189.594C3372.4,1976.04,3316.86,1873.291,3273.594,1754.064z" class="coloree776a svgShape"/><path fill="#fb600a" d="M2924.313,2054.71c29.6,80.24,64.547,169.42,102.509,254.642      c14.693,2.201,33.271,1.462,54.171-1.523c15.506-103.892,22.176-250.017,27.739-290.909      c13.978-102.743,13.978-248.001,13.978-248.001L2924.313,2054.71z" class="colordf6557 svgShape"/><g><path fill="#ffa30f" d="M2281.152,3303.661c6.014-2.522,11.991-5.234,17.916-8.185       c149.085-74.274,210.554-257.015,137.294-408.163c-73.26-151.149-253.508-213.468-402.593-139.194       c-8.227,4.098-16.17,8.546-23.855,13.281c-90.865,50.648-263.162,137.419-544.579,301.793       c-329.154,192.256-534.176,301.467-534.176,301.467s-9.313,4.64-14.04,6.994c-97.697,48.672-137.978,168.424-89.97,267.472       c48.008,99.049,166.125,139.887,263.822,91.215c4.726-2.354,14.04-6.994,14.04-6.994S1644.641,3593.715,2281.152,3303.661z" class="colorde9681 svgShape"/><path fill="#9a8273" d="M2254.299,2716.819c0,0,169.733,43.725,215.466,241.843       c45.733,198.118-62.628,318.291-359.825,440.689c-297.197,122.398-986.54,352.402-1101.899,368.2       c-115.359,15.799-200.011-101.546-210.835-184.637c-10.824-83.09,7.579-170.402,201.582-269.256       s935.081-548.829,1035.418-586.644C2134.543,2689.198,2229.014,2706.65,2254.299,2716.819z" class="color959a73 svgShape"/><path fill="#ffa30f" d="M2735.496,3324.692c-5.79-3.013-11.529-6.211-17.195-9.644       c-142.591-86.394-189.103-273.622-103.889-418.185c85.215-144.564,269.887-191.72,412.478-105.326       c7.868,4.767,15.426,9.859,22.703,15.216c86.473,58.017,251.187,158.791,518.393,345.961       c312.532,218.919,508.052,344.773,508.052,344.773s8.908,5.397,13.428,8.136c93.441,56.615,123.921,179.306,68.079,274.04       c-55.842,94.734-176.859,125.635-270.3,69.021c-4.521-2.739-13.428-8.136-13.428-8.136S3346.46,3666.581,2735.496,3324.692z" class="colorde9681 svgShape"/><path fill="#9a8273" d="M2809.625,2742.046c0,0-172.693,29.497-234.263,223.156       c-61.571,193.659,36.727,322.419,323.048,469.063s954.787,433.067,1068.484,458.383       c113.697,25.316,207.537-84.612,225.031-166.526c17.495-81.914,6.2-170.459-179.173-285.077s-887.646-624.566-984.594-670.579       C2931.21,2724.454,2835.647,2734.01,2809.625,2742.046z" class="color959a73 svgShape"/><path fill="#ffa30f" d="M2985.215,2577.324l-534.634-16.083l-534.634,16.083c0,0-76.955,136.282-208.891,306.055      c-113.275,145.761,293.652,163.267,369.872,236.979c110.692,107.05,244.514,285.877,373.378,285.877      c0.092,0,0.183-0.005,0.274-0.005c0.092,0,0.183,0.005,0.275,0.005c128.865,0,262.686-178.827,373.379-285.877      c76.22-73.713,416.684-74.071,329.038-236.979C3046.709,2685.31,2985.215,2577.324,2985.215,2577.324z" class="colorde9681 svgShape"/><path fill="#a38a7b" d="M2981.656,2530.642c0,0,8.943,8.229,12.121,18.01c3.178,9.781,130.162,249.637,146.166,265.977      c16.003,16.339,55.066,26.472,62.601,57.604c0,0,26.527,75.479-32.219,124.416c-20.217,16.841-102.382,42.438-177.827,69.21      c-75.446,26.771-122.599,55.455-169.752,89.875c-47.153,34.42-205.589,276.318-373.455,276.318      c-167.866,0-356.48-280.143-356.48-280.143c-26.406-40.157-139.574-72.665-231.995-97.524      c-92.421-24.859-152.777-63.104-152.777-63.104c-54.698-53.542-24.52-126.208-24.52-126.208      c9.431-30.596,49.04-38.245,66.015-53.543c16.975-15.298,158.436-246.678,162.208-256.24c3.772-9.561,13.203-17.21,13.203-17.21      s218.792,19.123,546.98,19.123S2981.656,2530.642,2981.656,2530.642z" class="color9ea37b svgShape"/><g><path fill="#ffa30f" d="M2966.207,2301.881c40.476-126.676,40.258-405.812,40.258-405.812        c-206.355-55.955-212.73-63.546-555.066-63.546c-0.274,0-0.544,0.002-0.818,0.002c-0.274,0-0.543-0.002-0.817-0.002        c-468.112,0-556.948,63.546-556.948,63.546s7.234,267.702,42.139,405.812c32.6,128.99-12.175,219.592-24.494,305.232        c-12.318,85.64,214.988,169.235,538.794,163.883c0,0,0.452,0,1.325-0.006c0.874,0.006,1.325,0.006,1.325,0.006        c323.807,5.352,551.113-78.242,538.795-163.883C2978.383,2521.473,2925.731,2428.558,2966.207,2301.881z" class="colorde9681 svgShape"/><path fill="#ffa30f" d="M2185.175,1381.178c-104.239,50.37-304.826,153.674-335.14,167.947        c-30.314,14.273-139.782,54.06,58.944,562.549c94.166,251.568,363.472,211.816,480.795,193.895        c43.245-6.605,87.138-6.534,130.379,0.105c292.004,44.837,383.852-8.391,469.889-194        c198.726-508.488,89.258-548.276,58.944-562.549c-30.315-14.273-232.615-113.776-335.141-167.947        c-130.568-68.988-264.407-71.389-264.407-71.389S2306.332,1322.633,2185.175,1381.178z" class="colorde9681 svgShape"/><path fill="#ffa30f" d="M2293.647,1312.273c2.384-31.274,5.845-84.641,6.516-138.139        c1.043-83.17,26.044-117.654,26.044-117.654c21.809-50.239,71.297-85.338,128.897-85.338        c57.601,0,107.089,35.099,128.872,85.338c0.026,0,25.027,34.485,26.07,117.654c0.671,53.498,4.132,106.865,6.516,138.139        c1.514,9.072,2.314,18.39,2.314,27.898c0,91.7-73.323,166.038-163.771,166.038c-90.448,0-163.771-74.338-163.771-166.038        C2291.333,1330.663,2292.134,1321.345,2293.647,1312.273z" class="colorde9681 svgShape"/><path fill="#d59a76" d="M2616.562,1312.273c-2.384-31.274-5.845-84.641-6.516-138.139        c-1.042-83.17-26.044-117.654-26.07-117.654c-21.782-50.239-71.271-85.338-128.872-85.338        c-57.6,0-107.089,35.099-128.897,85.338c0,0-25.001,34.484-26.043,117.654c-0.64,51.012-5.788,119.215-8.149,150.949        c78.297,72.988,120.432,75.082,165.585,72.737c45.025-2.338,125.891-17.978,159.047-85.012        C2616.617,1312.63,2616.592,1312.451,2616.562,1312.273z" class="colord58576 svgShape"/><path fill="#ee9b6a" d="M3292.766,2904.275c-28.366-50.441-91.063-63.151-91.063-63.151        c-9.211-53.621-44.708-82.293-69.167-129.533c-24.46-47.242-130.441-155.616-130.441-155.616        c-2.424-34.577-5.329-189.516-5.329-189.516c8.489-34.421,19.805-103.262,28.292-152.024        c8.488-48.762,29.707-119.037,70.731-276.796c41.022-157.761,32.535-305.479,29.708-342.77        c-2.831-37.288-25.464-44.459-41.024-50.196c-15.561-5.737-158.457-75.436-242.087-118.251        c-83.63-42.814-114.453-45.567-140.167-54.113c-40.746,58.667-116.427,103.766-241.227,105.71        c-124.8,1.945-209.135-66.526-219.733-120.158c-20.11,4.32-81.573,22.616-183.499,76.026        c-101.926,53.409-215.336,105.048-230.896,110.786c-15.561,5.737-38.196,12.908-41.024,50.196        c-2.829,37.291-11.318,185.008,29.706,342.77c41.024,157.759,62.243,228.033,70.73,276.796        c8.488,48.762,21.947,117.132,28.292,152.024c3.224,17.722,2.264,39.617-1.389,62.99c0.459,0.19,0.924,0.374,1.384,0.563        c-13.032,83.808-75.69,208.791-85.796,239.332c-17.099,51.674-102.968,126.467-102.968,126.467        c-53.706,18.085-74.292,114.572-74.292,114.572c-46.102,8.289-89.415,62.195-89.415,62.195        c-80.726,11.159-133.133,96.473-133.133,96.473c74.469,13.031,77.969,39.235,134.732,64.646        c56.764,25.409,290.984,69.781,418.655,109.493c40.09,12.47,247.675,83.191,489.605,69.469        c370.018-20.986,816.509-139.462,836.661-181.988c33.329-70.333,98.342-106.807,98.342-106.807        C3374.207,2951.545,3321.133,2954.716,3292.766,2904.275z" class="coloree776a svgShape"/><path fill="#fbb890" d="M2463.15,1534.243c133.448,0,230.978-53.962,279.287-149.466        c2.103-4.157-0.061-9.292-4.467-10.661c-11.982-3.724-28.384-10.653-36.994-14.406c-3.39-1.478-7.186-0.159-9.166,2.998        c-45.158,72.005-150.137,117.324-234.764,114.381c-84.39-2.934-181.647-31.962-212.479-122.54        c-1.367-4.017-5.51-6.275-9.468-4.877c-10.607,3.748-30.667,11.806-41.565,15.119c-4.107,1.249-6.362,5.786-4.896,9.871        C2229.431,1488.387,2328.767,1534.243,2463.15,1534.243z" class="coloree8f85 svgShape"/><path fill="#fb600a" d="M3292.766,2904.275c-28.366-50.441-91.063-63.151-91.063-63.151        c-0.517-3.012-146.207,69.605-269.315,169.752c-123.107,100.144-210.308,45.781-349.629,168.631        c-6.857,6.515-16.025,17.226-26.135,29.905c-25.223-30.479-46.804-71.646-114.76-101.336        c-67.956-29.69-274.455-9.102-299.507-42.039c-25.052-32.934-82.427-81.116-135.828-94.886        c-53.401-13.77-71.295-37.293-119.443-79.183c-48.126-41.87-129.15-74.506-151.171-105.332        c-6.169,5.715-10.117,9.176-10.117,9.176c-53.706,18.085-74.292,114.572-74.292,114.572        c-46.102,8.289-89.415,62.195-89.415,62.195c-80.726,11.159-133.133,96.473-133.133,96.473        c74.469,13.031,77.969,39.235,134.732,64.646c56.764,25.409,290.984,69.781,418.655,109.493        c36.351,11.304,210.416,70.504,422.927,71.218c-9.695-14.822,83.324-12.484,76.312-2.368        c368.097-22.464,807.048-139.211,827.026-181.368c33.329-70.333,98.342-106.807,98.342-106.807        C3374.207,2951.545,3321.133,2954.716,3292.766,2904.275z" class="colordf6557 svgShape"/><path fill="#d17705" d="M1753.244 2786.635c84.153 4.486 147.203 39.798 194.973 84.104 35.772 35.736 69.427 72.034 113.328 97.944 96.719 60.731 213.009 88.247 323.925 115.579-127.8-20.676-261.124-54.53-366.511-129.864-26.677-18.989-47.946-45.064-70.46-68.244C1900.24 2837.646 1830.205 2811.539 1753.244 2786.635zM3197.925 2842.519c-68.042 39.517-133.1 83.698-193.285 134.487-72.247 52.227-152.087 98.925-239.584 117.928 88.524-31.147 169.282-81.869 244.623-137.622C3066.011 2909.328 3130.597 2872.201 3197.925 2842.519zM3307.008 2940.613c-45.102 21.075-88.693 45.807-123.909 81.329-50.984 64.699-103.271 99.28-183.642 116.631 64.544-24.815 124.689-60.514 166.669-116.881C3203.572 2981.23 3254.82 2954.951 3307.008 2940.613zM1668.93 2911.445c88.328 42.377 176.439 88.853 251.527 153.098 44.412 37.933 83.5 84.277 133.631 114.382-62.895-27.483-109.775-82.61-164.156-123.456C1819.4 3002.673 1743.029 2958.918 1668.93 2911.445zM1569.406 2979.185c53.447 29.803 102.436 71.181 135.802 123.339C1658.695 3062.485 1612.268 3023.272 1569.406 2979.185zM2208.806 3225.53c203.21 31.31 420.162 30.73 611.109-54.499C2637.537 3273.088 2407.354 3274.918 2208.806 3225.53z" class="colord35849 svgShape"/><path fill="#fb600a" d="M2774.647 2898.537c-246.141 106.129-599.792-14.342-599.792-14.342s131.898 84.531 282.927 84.531C2670.679 2968.727 2774.647 2898.537 2774.647 2898.537zM1914.569 2366.458c26.432 35.452 48.767 73.786 62.459 116.427 13.359 42.164 10.689 87.461 33.734 125.949-31.51-31.964-33.005-81.743-45.966-122.251C1954.061 2450.875 1929.722 2401.204 1914.569 2366.458zM2996.767 2366.458c-12.795 43.871-38.421 82.413-69.422 115.198-28.339 34.663-35.928 80.67-59.333 118.573C2908.024 2439.763 2925.001 2492.404 2996.767 2366.458z" class="colordf6557 svgShape"/><g><path fill="#ffa30f" d="M2455.104,457.239c0,0,346.905-0.338,293.366,460.158       c-54.536,469.075-293.366,440.539-293.366,440.539s-261.7-1.784-298.643-449.457       C2119.517,460.806,2382.977,457.239,2455.104,457.239z" class="colorde9681 svgShape"/><path fill="#ffa30f" d="M2756.221,895.452c0,0,30.431-18.157,36.292,12.303         c7.309,37.986-28.298,151.851-75.347,151.113l18.017-151.113L2756.221,895.452z" class="colorde9681 svgShape"/><path fill="#c88a65" d="M2775.775,957.263c-0.316-2.64-2.676-4.509-5.289-4.201c-5.499,0.677-9.92,2.435-13.465,4.693         c2.504-8.953,6.022-17.529,10.98-24.161c1.584-2.12,1.174-5.141-0.917-6.748c-2.091-1.606-5.069-1.191-6.656,0.929         c-20.016,26.774-19.066,78.133-19.016,80.306c0.06,2.621,2.175,4.703,4.747,4.703c2.735-0.063,4.812-2.268,4.751-4.927         c-0.006-0.257-0.241-13.605,1.994-29.769c0.593-2.001,4.649-13.73,18.727-15.463         C2774.236,962.304,2776.09,959.903,2775.775,957.263z" class="colorc87565 svgShape"/><path fill="#ffa30f" d="M2159.247,897.045c0,0-37.611-27.469-43.866,10.71         c-6.255,38.179,20.753,151.851,68.875,151.113L2159.247,897.045z" class="colorde9681 svgShape"/><path fill="#c88a65" d="M2147.573,927.776c-1.587-2.12-4.566-2.536-6.656-0.929c-2.091,1.607-2.501,4.628-0.917,6.748         c4.958,6.632,8.476,15.208,10.98,24.161c-3.546-2.258-7.967-4.016-13.465-4.693c-2.613-0.307-4.972,1.56-5.289,4.201         c-0.316,2.641,1.539,5.041,4.143,5.362c14.06,1.731,18.125,13.433,18.726,15.457c2.237,16.167,2.001,29.519,1.995,29.776         c-0.061,2.658,2.017,4.864,4.64,4.925c2.683,0.002,4.798-2.081,4.858-4.701         C2166.639,1005.908,2167.588,954.55,2147.573,927.776z" class="colorc87565 svgShape"/><g><path fill="#46331c" d="M2125.022,728.494c0,0,0.191,129.629,3.686,159.743c0,0,37.594,2.27,51.062,72.315         l15.143-0.59c0,0-13.978-198.992,20.385-239.144L2125.022,728.494z" class="color1c2546 svgShape"/><path fill="#382a19" d="M2125.022,728.494c0,0,0.026,17.66,0.235,41.451c17.305,4.513,36.195,6.924,49.562,1.654         c7.6-2.997,16.476-8.012,25.862-13.918c3.453-16.284,8.189-29.353,14.616-36.863L2125.022,728.494z" class="color191e38 svgShape"/><path fill="#46331c" d="M2655.025,712.551c0,0,4.077,28.934,15.143,48.419s34.945,124.001,31.451,200.173h13.978         c0,0,15.725-56.096,50.088-69.677c0,0,2.912-131.087-6.989-187.182L2655.025,712.551z" class="color1c2546 svgShape"/><path fill="#382a19" d="M2758.696,704.284l-103.671,8.267c0,0,2.934,20.803,10.572,39.009         c13.167,4.285,24.853,7.685,33.401,8.524c18.23,1.789,44.366-3.653,64.307-13.61         C2762.217,730.443,2760.726,715.786,2758.696,704.284z" class="color191e38 svgShape"/><path fill="#46331c" d="M2502.431,677.581c0,0-6.547,13.135-22.272,31.735c-15.725,18.6-76.879,23.029-98.72,18.6        c-21.841-4.429-71.638-20.372-92.605-18.6c-20.967,1.771-82.564,79.866-114.014,92.266        c-31.451,12.4-93.479-17.714-93.479-17.714s-2.621-22.143,12.231-41.629c0,0-28.83,16.829-43.682,46.943        c0,0-12.231-62.886,3.495-113.372c0,0-12.231,14.171-15.725,25.686c0,0,0.874-50.486,35.819-101.858        c34.945-51.372,114.446-119.572,153.759-135.515c0,0-24.462,3.543-34.945,8.857c0,0,96.1-67.315,211.419-63.772        c115.319,3.543,153.759,48.715,153.759,48.715s0.874-18.6-6.115-26.572c0,0,103.962-3.543,164.243,44.286        c60.281,47.829,81.248,76.172,88.237,138.172c6.989,62-2.621,92.115-2.621,92.115l6.115-3.543c0,0-5.242,36.315-20.967,56.686        c-15.725,20.372-60.281,33.657-87.363,31c-27.083-2.657-77.311-62.151-114.877-63.037c-37.566-0.886-64.649-6.2-67.27-12.4        S2507.672,689.095,2502.431,677.581z" class="color1c2546 svgShape"/><path fill="#382a19" d="M2093.571,742.238c0,0,86.053-120.458,269.515-85.915         C2363.086,656.323,2204.086,642.152,2093.571,742.238z" class="color191e38 svgShape"/><path fill="#382a19" d="M2124.585 631.08c0 0 129.734-63.772 238.501 25.243l-53.728-3.986C2309.358 652.338 2245.146 597.866 2124.585 631.08zM2200.591 573.951c84.307-39.094 196.5-23.359 248.985 59.786C2389.133 557.386 2288.421 544.627 2200.591 573.951zM2319.842 490.251c49.999.959 106.242 22.926 129.734 70.415C2418.846 519.177 2368.405 500.457 2319.842 490.251zM2501.994 462.351c-87.016-37.699-185.496-16.983-274.757 1.771C2313.975 436.418 2418.282 415.938 2501.994 462.351z" class="color191e38 svgShape"/><path fill="#382a19" d="M2378.812 461.022c40.237-6.584 83.803-11.594 123.182 1.329C2461.156 458.3 2419.802 463.332 2378.812 461.022zM2557.469 457.922c11.526 11.968 12.243 31.75 7.426 46.943C2560.728 489.378 2560.801 473.605 2557.469 457.922zM2547.86 488.922c17.315 17.174 28.224 43.071 24.899 67.758C2567.194 533.36 2557.57 510.751 2547.86 488.922zM2520.34 504.865c25.946 23.795 47.382 56.885 49.797 93.001C2559.228 564.49 2539.214 534.094 2520.34 504.865zM2504.615 544.723c33.104 24.354 62.591 62.079 64.212 104.958C2558.23 608.843 2531.594 575.845 2504.615 544.723zM2502.431 677.581c-5.2-20.539-7.956-41.986-13.542-62.443C2502.709 632.073 2506.045 656.388 2502.431 677.581zM2617.313 512.837c15.94 64.028 28.736 135.074 7.863 199.287C2637.229 646.133 2624.564 578.755 2617.313 512.837zM2616.003 480.951c53.007 48.42 105.763 112.137 110.078 187.33C2712.741 594.915 2662.672 535.931 2616.003 480.951zM2712.976 496.894c25.055 50.073 36.062 109.179 26.209 164.744C2740.101 605.644 2729.694 550.134 2712.976 496.894z" class="color191e38 svgShape"/><path fill="#382a19" d="M2698.561 587.237c12.511 38.105 14.884 81.83 0 119.572C2704.693 667.039 2702.338 627.111 2698.561 587.237zM2234.663 694.852c37.231-24.702 83.051-45.518 128.424-38.529C2317.799 658.552 2276.18 678.11 2234.663 694.852z" class="color191e38 svgShape"/><g><path fill="#46331c" d="M2721.712,986.005c-13.105-34.543,5.153-99.201,5.153-99.201h-25.247        c-5.241,151.458-60.3,251.482-76.88,256.859c-21.841,7.084-18.345-76.171-61.155-77.942        c-28.055-1.163-73.385,12.398-110.077,15.056c-36.692,2.658-77.753-21.256-117.067-10.629        c-39.313,10.629-30.577,65.544-37.566,73.516c-6.989,7.971-34.945-0.887-62.028-52.257        c-27.081-51.37-44.685-206.914-44.685-206.914l-19.612,3.763c7.571,66.721-0.352,94.207-0.352,94.207        c-7.863,27.456,11.358,66.429,13.978,77.058c2.62,10.627-3.495,41.628,6.989,62c10.176,19.772,30.087,31.297,33.652,53.822        c2.622,23.914,0.42,62.599,20.513,75.884c20.094,13.287,33.197,39.859,42.808,62.002        c9.611,22.143,44.555,20.372,62.027,30.114c17.473,9.742,41.935,31.885,96.975,32.772        c55.038,0.884,80.374-26.572,101.341-24.801c20.966,1.771,67.269-34.543,75.132-48.715        c7.862-14.172,13.978-20.372,28.831-32.772c14.85-12.398,13.103-43.399,14.85-60.229c1.681-16.18,14.428-34.917,24.57-64.479        c0.556-1.121,1.067-2.03,1.64-3.227c14.853-31.001,15.725-56.686,13.104-73.513c-2.62-16.83,2.621-21.259,9.611-41.63        C2725.206,1006.377,2721.712,986.005,2721.712,986.005z M2339.936,1103.807c9.611-5.316,28.444-10.314,59.021,2.087        c30.578,12.4,57.72,11.85,66.891,10.573c9.171-1.276,54.733-13.645,77.328-17.085c10.795-1.643,20.056-1.017,27.4,4.424        c15.662,11.603,14.85,40.744,10.483,68.2c-4.367,27.456-23.589,43.402-60.28,46.057        c-28.872,2.092-45.302-23.783-50.996-34.911c-1.557-3.046-4.649-4.945-8.033-4.945h-16.473c-3.777,0-7.167,2.36-8.476,5.955        c-3.143,8.613-10.725,24.55-26.099,33.902c-21.841,13.287-62.103-5.556-70.764-22.143        C2324.209,1165.806,2330.325,1109.12,2339.936,1103.807z" class="color1c2546 svgShape"/><path fill="#c88a65" d="M2470.327,1139.538c-9.689,0.643-20.166,0.96-31.21,0.745          c-53.88-1.051-76.581-12.77-77.519-13.269c-3.781-2.004-5.242-6.734-3.264-10.565c1.976-3.829,6.64-5.314,10.419-3.309          c0.163,0.083,21.022,10.52,70.663,11.49c50.939,0.991,90.099-10.086,90.489-10.199c4.092-1.173,8.373,1.235,9.536,5.395          c1.165,4.16-1.217,8.488-5.32,9.669C2532.786,1129.877,2507.322,1137.082,2470.327,1139.538z" class="colorc87565 svgShape"/><path fill="#d59a76" d="M2454.97,1171.379c-19.363,1.957-34.334-3.227-35.154-3.518          c-4.025-1.429-6.145-5.896-4.735-9.977c1.407-4.073,5.797-6.223,9.821-4.807c0.342,0.118,21.876,7.383,44.438-0.891          c4.012-1.467,8.438,0.635,9.887,4.701c1.451,4.066-0.625,8.554-4.636,10.024          C2467.814,1169.396,2461.167,1170.753,2454.97,1171.379z" class="colord58576 svgShape"/><path fill="#c88a65" d="M2459.265,1050.695c-9.856,0.996-27.8,1.979-38.646-2.428         c-14.689-5.968-10.813-19.027-6.325-34.149l0.568-1.916c27.322-92.36,19.336-128.418,19.253-128.772         c-0.998-4.203,1.555-8.431,5.701-9.443c4.133-1.008,8.317,1.577,9.313,5.781c0.383,1.61,9.034,40.562-19.474,136.931         l-0.572,1.93c-1.745,5.88-3.712,12.504-3.472,14.745c0.154,0.089,0.396,0.214,0.754,0.36         c8.166,3.317,27.265,2.158,37.385,0.649c4.294-0.643,8.145,2.328,8.764,6.605c0.622,4.278-2.295,8.255-6.514,8.885         C2465.192,1049.993,2462.726,1050.345,2459.265,1050.695z" class="colorc87565 svgShape"/><path fill="#d59a76" d="M2231.934 997.686c0 0 12.471-28.34 76.469-25.835 52.024 2.036 90.997 11.208 89.778 46.34C2400.659 1063.864 2202.983 1067.503 2231.934 997.686zM2654.286 997.686c0 0-12.471-28.34-76.469-25.835-52.024 2.036-90.997 11.208-89.777 46.34C2485.561 1063.864 2683.237 1067.503 2654.286 997.686z" class="colord58576 svgShape"/><path fill="#533f25" d="M2559.261 943.961c-29.71 0-55.828-9.14-57.469-9.727-2.566-.916-3.913-3.766-3.011-6.367.902-2.602 3.715-3.968 6.281-3.055.572.203 57.744 20.163 96.212.263 2.425-1.255 5.391-.279 6.627 2.179 1.236 2.457.275 5.465-2.149 6.718C2591.257 941.47 2574.769 943.961 2559.261 943.961zM2342.375 943.961c-15.51 0-31.994-2.489-46.491-9.989-2.424-1.253-3.385-4.261-2.149-6.718 1.236-2.458 4.203-3.432 6.626-2.179 38.475 19.9 95.643-.06 96.215-.263 2.568-.912 5.379.454 6.281 3.055.902 2.601-.446 5.451-3.011 6.367C2398.204 934.821 2372.083 943.961 2342.375 943.961z" class="color253853 svgShape"/><g><path fill="#46331c" d="M2492.474 824.898c0 0-7.264 15.107 8.724 22.276 15.988 7.169 90.915-2.352 126.157-3.726 35.242-1.373 29.764-21.599-11.952-25.157C2579.156 815.2 2493.513 812.749 2492.474 824.898zM2421.616 824.898c0 0 7.264 15.107-8.723 22.276-15.988 7.169-90.915-2.352-126.157-3.726-35.242-1.373-29.764-21.599 11.953-25.157C2334.934 815.2 2420.577 812.749 2421.616 824.898z" class="color1c2546 svgShape"/></g></g></g></g></g></g><g><path fill="#ffa30f" d="M951.677,3379.33c-106.509,20.606-181.128,121.189-169.001,232.315       c12.127,111.126,113.285,226.329,221.661,222.831c0,0,377.062,16.129,735.331-47.839       c358.269-63.968,937.315-249.885,937.315-249.885c52.106-5.845,89.673-53.408,83.908-106.235       c-5.765-52.827-52.679-90.913-104.784-85.068c0,0-528.212,14.54-971.209-32.283       C1322.104,3274.819,951.677,3379.33,951.677,3379.33z" class="colorde9681 svgShape"/><path fill="#ffa30f" d="M2617.628,3563.352c0,0,154.989-44.223,215.209-72.081        c60.221-27.858,305.152-122.701,382.699-157.752c77.547-35.051,153.053-87.748,137.667-151.3        c-15.386-63.552-63.525-87.896-118.323-101.63c-54.798-13.734-218.23,40.103-278.451,67.961        c-60.221,27.858-210.803,95.582-245.574,102.283c-34.771,6.701-59.924,47.069-151.245,73.884        C2468.288,3351.531,2443.289,3614.543,2617.628,3563.352z" class="colorde9681 svgShape"/><path fill="#e0e0e0" d="M3358.603,3180.881c-17.147-70.837-74.414-93.733-122.389-105.771         c-57.486-14.417-223.797,41.344-282.093,68.304c-70.199,32.478-211.598,95.573-244.304,101.883         c-15.354,2.952-28.523,11.718-45.192,22.808c-23.844,15.87-53.516,35.617-106.565,51.189         c-30.875,9.064-57.332,44.636-69.047,92.83c-13.736,56.498-3.558,111.564,25.932,140.286         c11.944,11.63,31.321,23.128,61.245,23.128c12.427,0,26.679-1.993,42.968-6.773c6.651-1.894,156.132-44.68,215.987-72.368         c29.542-13.667,103.181-43.304,181.142-74.68c79.677-32.06,162.066-65.22,201.515-83.04         C3291.408,3305.396,3375.585,3251.013,3358.603,3180.881z" class="colore0e0e0 svgShape"/><path fill="#d4d0cd" d="M3236.214,3075.11c-35.935-9.012-114.392,9.4-182.407,31.052         c17.659,64.196,41.494,126.646,71.111,186.148c11.927,23.959,25.692,48.21,43.75,67.467         c19.724-8.224,36.605-15.44,49.133-21.098c73.607-33.282,157.783-87.665,140.802-157.797         C3341.456,3110.044,3284.19,3087.147,3236.214,3075.11z" class="colord4cdcd svgShape"/><path fill="#9c897d" d="M2514.625,3594.09c0,0,50.473-17.418,57.333-23.901c6.86-6.482,43.637-125.66-17.375-223.71       c-6.412-8.093-55.349-7.543-55.349-7.543L2514.625,3594.09z" class="color9b9c7d svgShape"/><path fill="#b19889" d="M803.905,3471.697c0,0-97.582,136.305,29.653,291.803        c127.235,155.499,380.208,136.914,735.087,87.576c354.879-49.338,885.007-207.078,920.711-221.303        c35.704-14.224,25.269-35.683,25.269-35.683s82.06-109.198-15.391-255.154c0,0,7.719-23.568-39.953-28.274        s-506.719-12.897-610.899-13.065C1744.202,3297.43,930.44,3232.955,803.905,3471.697z" class="coloradb189 svgShape"/><path fill="#a38a7b" d="M1843.021 3297.544c-157.484-6.092-323.229-12.312-482.805-3.874 34.413-1.676 61.859 20.266 86.638 39.572 30.83 24.02 64.079 44.757 98.748 62.566 184.839 94.929 395.625 102.846 597.552 128.696 115.607 14.175 233.188 39.127 325.09 112.396 36.706-9.598 53.321-25.366 46.383-42.81 0 0 30.673-40.939 32.19-106.121-.008-.02-.014-.036-.022-.056 1.777-51.657-18.429-105.944-47.56-148.979 4.705-26.105-39.415-29.294-63.576-29.678-44.639-1.926-109.51-3.5-163.149-4.753C2152.512 3301.701 1932.836 3297.834 1843.021 3297.544zM1242.627 3302.186c-199.548 19.443-383.822 65.929-438.723 169.509 0 0-97.581 136.307 29.654 291.804 36.798 44.972 84.177 75.309 141.432 94.627 20.011-29.029 35.463-61.297 45.244-95.299 27.915-97.037 11.513-207.274 61.161-294.928 17.227-30.416 41.431-55.816 66.983-79.144 23.156-21.142 47.698-40.668 70.741-61.941C1226.922 3319.609 1236.589 3310.723 1242.627 3302.186z" class="color9ea37b svgShape"/><g><path fill="#d6a181" d="M4075.792,3487.683c104.123,30.681,169.07,137.939,146.677,247.414       c-22.392,109.476-133.799,214.51-241.369,200.684c0,0-376.885-19.933-727.622-117.812       c-350.738-97.88-909.947-338.241-909.947-338.241c-51.332-10.792-84.315-61.729-73.67-113.772       c10.645-52.042,60.887-85.481,112.219-74.689c0,0,524.515,64.893,969.893,60.561       C3716.716,3348.279,4075.792,3487.683,4075.792,3487.683z" class="colord69181 svgShape"/><path fill="#d6a181" d="M2602.71,3317.473c0,0-66.83-15.194-91.482-33.382c-24.652-18.188-32.697-56.119-80.318-73.02        c-51.304-18.208-165.893-20.88-283.247-26.299c-117.355-5.419-215.5-55.382-305.21-20.271        c-64.379,25.196-145.417,116.738-62.903,184.025c42.399,34.575,69.498,48.923,194.546,67.546s311.683,79.627,390.379,104.635        c78.697,25.008,299.401,73.624,320.46-28.938C2705.996,3389.206,2687.592,3348.573,2602.71,3317.473z" class="colord69181 svgShape"/><path fill="#e0e0e0" d="M2606.49,3306.872l-1.344-0.396c-17.973-4.097-81.208,0.6-89.417-22.291         c-3.19-8.896-11.502-22.918-18.451-32.356c-12.951-17.588-29.069-39.471-62.692-51.41         c-46.417-16.465-141.668-20.595-242.511-24.967c-14.513-0.628-29.186-1.266-43.905-1.949         c-42.235-1.949-81.928-9.78-120.315-17.346c-66.655-13.161-129.616-25.584-189.405-2.17         c-44.44,17.379-95.974,63.833-103.936,115.661c-3.528,22.951,0.212,56.795,38.066,87.665         c43.701,35.639,72.255,50.903,199.904,69.912c116.026,17.28,288.882,72.423,371.953,98.92c0,0,85.031,28.207,196.302,28.207         c37.091,0,92.46,5.967,117.858-9.154c20.208-12.026,32.735-29.229,37.23-51.123         C2718.157,3385.319,2696.448,3339.834,2606.49,3306.872z" class="colore0e0e0 svgShape"/><path fill="#d4d0cd" d="M1972.482 3427.224c1.35.201 2.803.471 4.169.683 18.149-37.456 18.804-81.244 14.955-122.88-5.027-54.372-16.832-107.729-30.514-160.627-42.359-5.672-83.198-5.862-122.645 9.587-44.44 17.379-95.974 63.833-103.936 115.661-3.528 22.951.212 56.795 38.066 87.665C1816.279 3392.951 1844.833 3408.215 1972.482 3427.224zM2363.305 3203.942c21.973 22.638 44.907 45.875 74.132 57.31 20.88 8.169 45.854 8.428 65.556-1.066-1.923-2.985-3.864-5.843-5.717-8.359-12.951-17.588-29.069-39.471-62.692-51.41-21.343-7.572-53.09-12.517-90.879-16.093C2350.394 3190.726 2356.9 3197.345 2363.305 3203.942z" class="colord4cdcd svgShape"/><path fill="#9a8273" d="M2498.409,3566.748c0,0-57.557-1.292-63.785-8.401c-6.228-7.109,16.819-185.192,86.665-276.982       c7.135-7.445,33.732,12.045,33.732,12.045L2498.409,3566.748z" class="color959a73 svgShape"/><path fill="#b19889" d="M4214.33,3593.744c0,0,84.491,145.013-56.619,287.677       c-141.11,142.664-391.233,100.016-739.955,17.024c-348.721-82.992-861.847-290.631-896.071-308.2       c-34.224-17.569-21.843-37.937-21.843-37.937s-71.555-116.546,39.017-252.552c0,0-5.496-24.2,42.401-24.336       c47.896-0.135,505.666,35.525,609.399,45.303C3294.392,3330.501,4110.527,3343.985,4214.33,3593.744z" class="coloradb189 svgShape"/><path fill="#a38a7b" d="M4214.33,3593.744c-44.416-106.865-219.26-170.452-412.894-209.023       c31.81,33.545,58.131,72.453,76.907,114.92c16.919,38.267,27.956,79.161,47.271,116.245       c54.938,105.465,167.45,164.807,277.259,208.501C4277.614,3702.556,4214.33,3593.744,4214.33,3593.744z" class="color9ea37b svgShape"/></g><g><path fill="#ffa30f" d="M3500.499,2538.177c0,0,155.002,125.585,290.824,345.908      c135.823,220.323,297.725,436.712,328.77,487.859c31.045,51.146-42.687,137.702-143.584,82.621      c-100.897-55.081-648.657-554.451-753.435-770.839C3203.671,2608.974,3341.393,2431.95,3500.499,2538.177z" class="colorde9681 svgShape"/><path fill="#ffa30f" d="M3961.382,3448.423c0,0,50.786,80.803,75.577,138.253       c28.9,66.971,85.324,133.942,137.619,153.476c39.507,14.757,214.686,58.6,261.476,41.857       c22.02-11.162,4.128-40.462,4.128-40.462s31.652-6.977,31.652-23.719s-63.304-19.533-63.304-19.533       s44.038-13.952,46.791-33.485c2.752-19.533-68.81-13.953-93.581-16.743c-24.771-2.791-49.543-16.743-66.057-39.067       c0,0,60.552,8.372,93.581,8.372c33.029,0,44.039-27.905,46.791-47.438c2.752-19.533-11.009-58.6-41.286-80.924       c-30.276-22.324-44.138,7.547-30.276,25.114c16.514,20.928,13.762,46.043,13.762,46.043s-63.305-6.976-79.819-20.928       c-16.514-13.952-66.057-50.229-88.077-66.971c-22.019-16.743,16.515-22.324,33.029-22.324s38.534-2.791,66.057,13.952       c27.524,16.743,55.048,11.162,57.8-2.79c2.752-13.952-22.02-44.647-52.295-72.552c-30.276-27.905-60.552-36.276-112.848-33.486       c-52.295,2.791-79.609,0.694-115.39-32.792C4050.93,3288.79,3921.586,3354.817,3961.382,3448.423z" class="colorde9681 svgShape"/><path fill="#c88a65" d="M4125.71 3490.079c-27.583 0-50.029-8.429-51.434-8.968-1.777-.682-2.672-2.693-2.001-4.495.673-1.802 2.655-2.713 4.434-2.03.497.19 50.128 18.777 90.949.083 25.125-11.505 30.611-16.029 30.833-16.216 1.446-1.22 3.609-1.051 4.833.398 1.223 1.45 1.087 3.614-.328 4.875-.57.508-6.335 5.318-32.507 17.302C4155.661 3487.816 4139.994 3490.079 4125.71 3490.079zM4408.533 3701.782c-.224 0-.451-.021-.679-.068-.687-.139-69.125-14.011-99.025-19.521-30.977-5.71-54.502-29.265-55.489-30.266-1.343-1.361-1.343-3.568-.001-4.93 1.343-1.364 3.521-1.364 4.866-.004.226.23 23.038 23.024 51.854 28.335 29.96 5.522 98.458 19.406 99.146 19.545 1.862.378 3.072 2.216 2.699 4.105C4411.576 3700.636 4410.139 3701.782 4408.533 3701.782zM4440.187 3745.035c-.143 0-.286-.01-.431-.027-.551-.07-55.413-7.027-85.362-11.168-14.544-2.01-89.2-13.434-130.781-40.998-1.59-1.053-2.036-3.215-.996-4.828 1.041-1.612 3.172-2.064 4.763-1.01 40.344 26.745 113.656 37.949 127.943 39.924 29.912 4.136 84.736 11.088 85.286 11.157 1.886.239 3.224 1.982 2.988 3.894C4443.379 3743.744 4441.897 3745.035 4440.187 3745.035zM4144.304 3655.741c-1.262 0-2.477-.707-3.079-1.929-2.43-4.929-4.611-15.712-7.628-30.636-2.389-11.816-5.36-26.521-9.139-41.199-8.041-31.253-32.428-74.044-32.674-74.472-.953-1.667-.395-3.802 1.249-4.769 1.641-.967 3.75-.401 4.702 1.266 1.022 1.783 25.102 44.034 33.382 76.213 3.823 14.859 6.817 29.665 9.221 41.561 2.692 13.312 5.017 24.808 7.041 28.916.851 1.724.161 3.818-1.538 4.679C4145.346 3655.621 4144.821 3655.741 4144.304 3655.741z" class="colorc87565 svgShape"/><path fill="#ffa30f" d="M1445.282,2542.593c0,0-157.055,132.69-287.934,344.994      c-130.879,212.304-254.279,401.861-284.194,451.146c-29.915,49.285,41.134,132.69,138.358,79.614      c97.224-53.076,605.783-542.133,706.746-750.646C1736.955,2595.669,1598.597,2440.232,1445.282,2542.593z" class="colorde9681 svgShape"/><path fill="#ffa30f" d="M901.934,3292.795c0,0-34.313,27.724-110.274,56.097       c-58.238,21.753-129.933,85.119-153.921,131.731c-23.988,46.613-43.977,95.252-9.995,95.252s49.974-36.479,69.964-52.692       c19.99-16.213,33.982-24.32,49.974-26.346c0,0,7.996,48.639,0,74.985c-7.996,26.346-29.984,54.719-43.977,60.799       c0,0-21.989-52.692-33.982-58.772c-11.994-6.08-43.977,8.106-39.979,34.453c3.998,26.346,19.99,133.757,41.979,131.731       c21.989-2.027,67.965-46.613,91.952-72.959c0,0-17.991,54.719-47.975,83.092c-29.984,28.373-89.954,79.039-73.962,101.332       c15.992,22.293,85.956-30.399,85.956-30.399s-43.978,56.746-15.992,68.905c27.985,12.16,141.927-117.544,175.909-178.343       c7.996-10.133,15.992-20.266,15.992-20.266s-5.997,60.799-51.973,129.704c-11.994,22.293,0,48.639,15.992,42.559       c15.992-6.08,85.956-109.438,101.947-170.237c15.992-60.799,46.699-267.879,69.326-298.096       C1061.521,3365.105,1001.882,3242.129,901.934,3292.795z" class="colorde9681 svgShape"/><path fill="#c88a65" d="M747.682 3500.214c-1.84 0-3.331-1.512-3.331-3.377-.001-1.865 1.49-3.378 3.331-3.379.823 0 82.687-.506 113.291-41.228 1.114-1.486 3.204-1.773 4.67-.64 1.463 1.131 1.746 3.25.63 4.734C833.664 3499.716 751.178 3500.214 747.682 3500.214zM727.691 3824.475c-.768 0-1.538-.267-2.167-.813-1.397-1.214-1.559-3.347-.361-4.763.6-.709 60.23-71.225 80.024-93.298 18.935-21.117 21.108-54.342 21.127-54.674.111-1.862 1.692-3.306 3.524-3.17 1.836.111 3.236 1.708 3.128 3.568-.084 1.456-2.305 35.907-22.849 58.82-19.729 22.002-79.296 92.442-79.895 93.152C729.563 3824.074 728.63 3824.475 727.691 3824.475zM709.702 3666.398c-1.84 0-3.332-1.512-3.332-3.378 0-9.528-5.798-29.23-5.856-29.429-.529-1.786.471-3.67 2.233-4.205 1.764-.537 3.621.478 4.149 2.265.251.847 6.138 20.86 6.138 31.369C713.034 3664.885 711.542 3666.398 709.702 3666.398zM907.6 3629.919c-1.84 0-3.332-1.513-3.332-3.378 0-1.748.078-3.821.169-6.223.557-14.777 1.594-42.282-11.978-81.839-16.126-47.004-6.508-89.287-6.091-91.064.427-1.813 2.222-2.937 4.01-2.503 1.79.43 2.897 2.251 2.473 4.065-.098.417-9.56 42.212 5.901 87.281 13.984 40.762 12.917 69.096 12.343 84.318-.088 2.332-.163 4.345-.163 5.964C910.932 3628.406 909.44 3629.919 907.6 3629.919z" class="colorc87565 svgShape"/></g></g></svg>