<svg xmlns="http://www.w3.org/2000/svg" enable-background="new 0 0 5000 5000" viewBox="0 0 5000 5000"><path fill="#ffa30f" d="M1624.562,3260.624c-14.385,31.323-39.188,58.229-72.821,74.895     c-72.645,35.998-161.831,9.732-203.43-59.857c-23.295-38.968-27.653-83.678-16.058-123.783     c-0.004-0.001,243.721-751.385,280.767-917.246c9.549-42.751,23.974-84.307,43.824-123.356     c134.47-264.526,352.782-209.286,412.138-102.281c42.015,75.743,39.139,164.237,0.177,234.867L1629.395,3248.75     c-1.431,3.939-2.997,7.828-4.74,11.646L1624.562,3260.624z" class="colorde9681 svgShape"/><path fill="#fb600a" d="M1812.036,1931.919c0,0-125.6,46.106-187.604,214.632      c-62.005,168.526-124.01,381.568-186.015,581.892c-62.005,200.323-170.116,457.882-112.881,562.813      c57.235,104.931,208.273,98.572,267.098,38.157c58.825-60.415,96.982-160.577,96.982-160.577s52.466-15.899,27.028-69.954      c0,0,362.49-793.344,400.647-904.635C2155.448,2082.957,2056.876,1838.117,1812.036,1931.919z" class="color8989e5 svgShape"/><path fill="#d69c7a" d="M1794.225,2151.238c0,0-15.71,121.752-7.855,223.866c7.267,94.467,31.338,360.346,38.013,486.71      c66.953-147.92,151.707-336.318,213.377-477.361L1794.225,2151.238z" class="color7a7ad6 svgShape"/><path fill="#ffa30f" d="M3452.191,3260.624c14.385,31.323,39.188,58.229,72.821,74.895     c72.645,35.998,161.831,9.732,203.43-59.857c23.295-38.968,27.652-83.678,16.058-123.783     c0.004-0.001-243.721-751.385-280.767-917.246c-9.549-42.751-23.974-84.307-43.824-123.356     c-134.47-264.526-352.782-209.286-412.138-102.281c-42.015,75.743-39.139,164.237-0.177,234.867l439.765,1004.887     c1.431,3.939,2.996,7.828,4.74,11.646L3452.191,3260.624z" class="colorde9681 svgShape"/><path fill="#fb600a" d="M3264.717,1931.919c0,0,125.6,46.106,187.604,214.632      c62.005,168.526,124.01,381.568,186.014,581.892c62.005,200.323,170.116,457.882,112.881,562.813      c-57.235,104.931-208.273,98.572-267.098,38.157c-58.825-60.415-96.982-160.577-96.982-160.577s-52.466-15.899-27.028-69.954      c0,0-362.49-793.344-400.647-904.635C2921.305,2082.957,3019.877,1838.117,3264.717,1931.919z" class="color8989e5 svgShape"/><path fill="#d69c7a" d="M3081.448,2480.854c47.043,106.192,100.61,225.378,148.124,330.545      c8.909-101.466,26.208-291.868,37.461-373.455c15.71-113.897,15.71-274.924,15.71-274.924L3081.448,2480.854z" class="color7a7ad6 svgShape"/><g><path fill="#ffa30f" d="M2342.936,4146.578c7.149,1.545,14.385,2.895,21.721,3.992       c184.642,27.608,356.704-99.693,384.312-284.334c27.608-184.642-99.694-356.704-284.335-384.312       c-10.188-1.523-20.335-2.547-30.425-3.144c-115.928-11.922-329.905-42.978-693.683-73.052       c-425.486-35.177-683.862-66.698-683.862-66.698s-11.535-1.725-17.388-2.6c-120.997-18.092-233.75,65.33-251.842,186.326       c-18.092,120.998,65.33,233.75,186.327,251.842c5.853,0.875,17.388,2.6,17.388,2.6S1571.684,4004.044,2342.936,4146.578z" class="colorde9681 svgShape"/><path fill="#e6cfc1" d="M2688.211,3594.392c0,0,129.309,148.388,46.636,358.25       c-82.673,209.863-258.618,250.139-610.509,171.706c-351.891-78.434-1134.106-309.495-1250.697-368.85       c-116.59-59.355-120.83-220.462-78.434-303.135s114.471-150.508,356.13-116.59s1210.42,97.512,1327.01,127.189       S2671.252,3568.954,2688.211,3594.392z" class="colore6c2c1 svgShape"/><path fill="#ffa30f" d="M2665.539,4146.578c-7.149,1.545-14.384,2.895-21.721,3.992       c-184.642,27.608-356.704-99.693-384.312-284.334c-27.608-184.642,99.694-356.704,284.335-384.312       c10.188-1.523,20.335-2.547,30.425-3.144c115.929-11.922,329.905-42.978,693.683-73.052       c425.486-35.177,683.862-66.698,683.862-66.698s11.535-1.725,17.388-2.6c120.997-18.092,233.75,65.33,251.842,186.326       c18.092,120.998-65.33,233.75-186.327,251.842c-5.854,0.875-17.388,2.6-17.388,2.6S3436.791,4004.044,2665.539,4146.578z" class="colorde9681 svgShape"/><path fill="#e6cfc1" d="M2320.264,3594.392c0,0-129.309,148.388-46.636,358.25       c82.673,209.863,258.619,250.139,610.51,171.706c351.891-78.434,1134.106-309.495,1250.696-368.85       c116.59-59.355,120.83-220.462,78.434-303.135s-114.471-150.508-356.13-116.59c-241.66,33.917-1210.42,97.512-1327.01,127.189       S2337.223,3568.954,2320.264,3594.392z" class="colore6c2c1 svgShape"/><path fill="#ffa30f" d="M3128.214,3059.183l-600.874-17.829l-600.873,17.829c0,0-86.49,151.076-234.772,339.28      c-127.31,161.585,330.035,180.991,415.698,262.706c124.406,118.671,274.808,316.911,419.639,316.911      c0.103,0,0.206-0.006,0.308-0.006c0.103,0,0.206,0.006,0.309,0.006c144.831,0,295.232-198.24,419.639-316.911      c85.663-81.715,468.31-82.112,369.804-262.706C3197.326,3178.892,3128.214,3059.183,3128.214,3059.183z" class="colorde9681 svgShape"/><path fill="#e6cfc1" d="M3124.213,3007.434c0,0,10.051,9.123,13.623,19.965      c3.572,10.843,146.289,276.738,164.275,294.851c17.986,18.113,61.888,29.346,70.356,63.857c0,0,29.814,83.673-36.211,137.922      c-22.722,18.669-115.067,47.045-199.86,76.723s-137.789,61.475-190.784,99.632c-52.996,38.157-231.061,306.315-419.725,306.315      c-188.665,0-400.647-310.554-400.647-310.554c-29.677-44.516-156.867-80.553-260.738-108.111      c-103.871-27.558-171.706-69.954-171.706-69.954c-61.475-59.355-27.558-139.908-27.558-139.908      c10.599-33.917,55.115-42.396,74.194-59.355c19.078-16.959,178.065-273.458,182.305-284.057      c4.24-10.599,14.839-19.078,14.839-19.078s245.899,21.198,614.749,21.198S3124.213,3007.434,3124.213,3007.434z" class="colore6c2c1 svgShape"/><g><path fill="#ffa30f" d="M3106.851,2753.839c45.491-140.427,45.246-449.866,45.246-449.866        c-231.921-62.029-239.087-70.445-623.837-70.445c-0.308,0-0.611,0.003-0.919,0.003c-0.308,0-0.61-0.003-0.918-0.003        c-526.11,0-625.952,70.445-625.952,70.445s8.131,296.763,47.36,449.866c36.639,142.993-13.683,243.431-27.528,338.368        c-13.845,94.937,241.624,187.607,605.549,181.674c0,0,0.508,0,1.49-0.007c0.982,0.007,1.49,0.007,1.49,0.007        c363.926,5.933,619.395-86.737,605.55-181.674C3120.535,2997.27,3061.36,2894.267,3106.851,2753.839z" class="colorde9681 svgShape"/><path fill="#ffa30f" d="M2229.051,1733.186c-117.153,55.838-342.593,170.357-376.663,186.179        c-34.07,15.823-157.101,59.929,66.247,623.618c105.832,278.878,408.505,234.81,540.364,214.944        c48.603-7.323,97.934-7.244,146.532,0.116c328.182,49.705,431.411-9.302,528.106-215.06        c223.348-563.689,100.317-607.795,66.247-623.618c-34.07-15.823-261.435-126.127-376.664-186.179        c-146.745-76.477-297.167-79.139-297.167-79.139S2365.218,1668.286,2229.051,1733.186z" class="colorde9681 svgShape"/><path fill="#ffa30f" d="M2350.962,1656.801c2.68-34.669,6.57-93.83,7.323-153.135        c1.172-92.198,29.27-130.427,29.27-130.427c24.511-55.693,80.131-94.602,144.868-94.602        c64.737,0,120.357,38.909,144.838,94.602c0.029,0,28.128,38.228,29.3,130.427c0.754,59.306,4.644,118.466,7.323,153.135        c1.701,10.056,2.601,20.386,2.601,30.927c0,101.655-82.407,184.062-184.062,184.062        c-101.655,0-184.062-82.408-184.062-184.062C2348.362,1677.187,2349.261,1666.857,2350.962,1656.801z" class="colorde9681 svgShape"/><path fill="#d39875" d="M2713.885,1656.801c-2.68-34.669-6.57-93.829-7.323-153.135        c-1.172-92.199-29.271-130.427-29.3-130.427c-24.481-55.693-80.102-94.602-144.839-94.602        c-64.737,0-120.357,38.909-144.867,94.602c0,0-28.099,38.228-29.271,130.427c-0.719,56.55-4.288,112.952-6.942,148.13        c87.998,80.911,181.081,83.957,181.081,83.957s93.985,6.776,181.555-78.358        C2713.947,1657.197,2713.919,1656.998,2713.885,1656.801z" class="colord38475 svgShape"/><path fill="#fb600a" d="M2756.548,1672.791c0,0,7.949-0.265,9.539,5.035s3.18,18.548,3.18,18.548         s77.804,12.964,155.707,62.25c77.904,49.286,297.305,149.448,314.794,155.807s42.927,14.309,46.106,55.645         s12.719,205.093-33.387,379.979s-69.954,252.789-79.493,306.844c-9.539,54.056-22.258,130.369-31.797,168.526         c0,0-1.62,68.364,4.74,109.701c6.359,41.336,63.595,158.987,98.572,206.683s82.673,82.673,101.752,139.908         c0,0,82.673,22.258,108.111,44.516c0,0,190.784,4.593,213.042,30.031c0,0-63.595,46.283-89.033,128.956         c-25.438,82.673-248.019,292.536-419.725,343.411c-171.706,50.876-394.287,216.222-734.519,200.323         s-515.117-203.503-635.947-292.536c-120.83-89.033-352.951-222.582-403.827-270.278         c-50.876-47.696-45.753-76.844-119.947-118.18c0,0,78.61-37.627,272.574-9.009c0,0,65.714-40.277,117.65-31.797         c0,0,57.235-93.272,120.83-92.212c0,0,36.037-78.433,73.134-126.129s90.093-188.664,76.314-263.388         c-7.132-38.679-22.258-114.47-31.797-168.526c-9.539-54.055-33.387-131.959-79.493-306.844s-36.567-338.642-33.387-379.979         c3.18-41.337,28.618-49.286,46.106-55.645c17.489-6.359,236.89-106.521,314.794-155.807         c77.904-49.286,163.704-63.938,163.704-63.938s1.59-13.249,3.18-18.548s9.539-5.035,9.539-5.035         s49.679,118.199,128.625,136.987c12.471,2.968,21.671,13.53,22.726,26.305l68.633,273.641l79.583-275.031         c0.939-11.585,8.582-21.551,19.542-25.422C2669.463,1796,2718.746,1718.338,2756.548,1672.791z" class="color8989e5 svgShape"/><path fill="#d69c7a" d="M3454.37 3326.234c-25.438-22.258-108.111-44.516-108.111-44.516-17.496-52.488-59.053-86.263-92.803-128.289-19.988 24.62-48.313 57.979-71.847 79.832-41.239 38.293-100.151 61.858-129.607 106.042-29.456 44.184-126.661 85.423-167.9 117.824-41.239 32.402-58.912 120.771-58.912 135.498 0 14.728-156.117 100.151-182.628 141.389-26.511 41.239-82.478 191.465-82.478 191.465l-9.316 101.15c270.497-22.762 458.459-153.724 607.887-197.997 171.706-50.877 394.287-260.739 419.725-343.412 25.438-82.673 89.033-128.956 89.033-128.956C3645.155 3330.827 3454.37 3326.234 3454.37 3326.234zM2451.097 3798.818c-26.51-44.184-156.118-144.335-162.009-159.063-5.891-14.728-14.728-41.239-35.347-82.478-20.619-41.238-73.641-106.042-129.607-132.553s-70.695-55.967-114.879-111.933c-44.184-55.967-126.661-108.988-144.335-147.281-10.151-21.992-14.47-53.696-16.309-76.706-37.104 47.705-73.141 126.139-73.141 126.139-63.595-1.061-120.83 92.212-120.83 92.212-51.936-8.479-117.65 31.797-117.65 31.797-193.964-28.617-272.574 9.009-272.574 9.009 74.194 41.336 69.071 70.484 119.947 118.18 50.876 47.696 282.996 181.245 403.826 270.277 120.83 89.033 295.716 276.637 635.947 292.536 4.521.211 9.017.384 13.497.532 57.284-29.324 90.016-51.407 90.016-51.407S2477.608 3843.002 2451.097 3798.818z" class="color7a7ad6 svgShape"/><path fill="#cc9472" d="M1775.469 3214.943c58.271 43.46 113.787 90.765 164.946 142.51 38.168 41.581 73.927 83.666 121.766 114.826 105.191 72.689 219.894 135.417 342.876 171.928-142.304-30.093-275.776-100.798-389.884-190.143-28.889-22.527-51.314-52.595-75.297-79.527C1888.401 3318.111 1832.353 3266.235 1775.469 3214.943zM3346.26 3281.718c-76.472 43.807-149.59 92.785-217.232 149.087-81.198 57.896-170.93 109.664-269.268 130.729 99.491-34.528 190.255-90.757 274.93-152.562C3198.002 3355.78 3270.59 3314.622 3346.26 3281.718zM3454.371 3326.234c-45.47 32.369-88.519 68.406-120.098 114.449-42.987 81.115-93.612 129.695-178.797 165.368 66.171-40.5 125.244-91.938 160.001-162.099C3348.501 3392.063 3399.688 3352.743 3454.371 3326.234zM1654.64 3307.155c92.398 59.365 183.97 123.205 258.491 204.695 44.087 48.126 81.038 104.729 132.616 145.076-66.177-39.312-110.561-106.698-165.342-159.469C1809.327 3429.214 1730.453 3370.064 1654.64 3307.155zM1536.989 3338.953c60.069 33.038 115.127 78.909 152.628 136.729C1637.342 3431.297 1585.162 3387.826 1536.989 3338.953zM2255.61 3777.757c228.387 34.709 472.219 34.067 686.823-60.415C2737.459 3830.477 2478.757 3832.507 2255.61 3777.757z" class="color7272cc svgShape"/><path fill="#d69c7a" d="M2891.557 3415.267c-276.637 117.65-674.104-15.899-674.104-15.899s148.24 93.708 317.981 93.708C2774.708 3493.075 2891.557 3415.267 2891.557 3415.267zM1924.917 2825.425c29.707 39.3 54.809 81.796 70.198 129.066 15.014 46.741 12.014 96.956 37.914 139.622-35.414-35.434-37.094-90.617-51.661-135.522C1969.302 2919.007 1941.948 2863.944 1924.917 2825.425zM3141.196 2825.425c-14.38 48.633-43.182 91.359-78.023 127.703-31.85 38.426-40.38 89.427-66.684 131.446C3041.458 2906.689 3060.539 2965.044 3141.196 2825.425z" class="color7a7ad6 svgShape"/><path fill="#cc9472" d="M3603.781,3337.385c-74.633,64.044-114.599,187.775-181.208,265.486       c-76.313,89.032-282.996,158.987-378.388,187.605c-95.392,28.617-260.739,181.245-581.892,178.065       s-492.859-162.167-642.307-286.176s-349.771-203.503-407.006-267.098c-31.304-34.783-60.706-63.858-80.922-83.064       c-46.769,5.77-67.642,15.76-67.642,15.76c74.194,41.336,69.071,70.484,119.947,118.18s282.996,181.245,403.827,270.278       c120.83,89.032,295.715,276.636,635.947,292.536c340.232,15.898,562.813-149.448,734.519-200.323       c171.706-50.876,394.287-260.739,419.725-343.412c25.438-82.673,89.033-128.956,89.033-128.956       C3660.111,3347.92,3634.672,3341.818,3603.781,3337.385z" class="color7272cc svgShape"/><path fill="#efddd3" d="M2564.058,2453.386V2131.6l87.341-300.453c94.214-62.84,116.153-128.359,117.721-135.946       c-0.428-3.351-1.73-13.032-3.033-17.376c-1.59-5.299-9.54-5.034-9.54-5.034c-37.802,45.547-87.085,123.209-119.877,134.792       c-10.96,3.871-18.602,13.837-19.541,25.422l-79.583,275.031l-68.633-273.64c-1.055-12.776-10.255-23.337-22.726-26.306       c-78.947-18.789-128.625-136.987-128.625-136.987s-7.949-0.265-9.539,5.034c-1.59,5.3-3.18,18.549-3.18,18.549       s18.119,98.169,125.634,136.462l79.532,300.453v321.786c0,8.553,6.934,15.487,15.487,15.487h23.074       C2557.124,2468.873,2564.058,2461.939,2564.058,2453.386z" class="colorefd4d3 svgShape"/><g><path fill="#ffa30f" d="M2532.424,708.946c0,0,389.885-0.375,329.713,510.112       c-61.293,519.997-329.713,488.362-329.713,488.362s-294.124-1.977-335.645-498.249       C2155.258,712.901,2451.36,708.946,2532.424,708.946z" class="colorde9681 svgShape"/><path fill="#ffa30f" d="M2870.847,1194.731c0,0,34.202-20.128,40.789,13.639         c8.214,42.109-31.804,168.335-84.682,167.518l20.249-167.518L2870.847,1194.731z" class="colorde9681 svgShape"/><path fill="#d39875" d="M2892.824,1263.251c-0.356-2.927-3.008-4.998-5.945-4.656c-6.18,0.75-11.148,2.7-15.133,5.203         c2.814-9.925,6.768-19.432,12.341-26.784c1.781-2.35,1.32-5.698-1.03-7.48c-2.35-1.781-5.697-1.32-7.48,1.03         c-22.495,29.681-21.428,86.614-21.372,89.024c0.068,2.905,2.444,5.214,5.335,5.214c3.073-0.069,5.408-2.514,5.34-5.462         c-0.006-0.285-0.271-15.082,2.241-33.001c0.666-2.219,5.225-15.221,21.047-17.142         C2891.094,1268.84,2893.179,1266.179,2892.824,1263.251z" class="colord38475 svgShape"/><path fill="#ffa30f" d="M2199.91,1196.497c0,0-42.271-30.45-49.301,11.873         c-7.03,42.323,23.325,168.335,77.408,167.518L2199.91,1196.497z" class="colorde9681 svgShape"/><path fill="#d39875" d="M2186.791,1230.564c-1.783-2.35-5.131-2.811-7.48-1.03c-2.35,1.782-2.811,5.13-1.031,7.48         c5.573,7.352,9.526,16.859,12.34,26.784c-3.985-2.503-8.954-4.452-15.134-5.203c-2.937-0.341-5.588,1.73-5.945,4.656         c-0.355,2.927,1.73,5.589,4.656,5.944c15.802,1.919,20.371,14.891,21.046,17.135c2.514,17.922,2.249,32.723,2.242,33.009         c-0.068,2.947,2.267,5.392,5.215,5.459c3.016,0.002,5.393-2.307,5.46-5.212         C2208.219,1317.178,2209.285,1260.244,2186.791,1230.564z" class="colord38475 svgShape"/><g><path fill="#473217" d="M2161.445,1009.648c0,0,0.215,143.701,4.142,177.085c0,0,42.251,2.516,57.388,80.166         l17.019-0.655c0,0-15.71-220.594,22.91-265.105L2161.445,1009.648z" class="color172347 svgShape"/><path fill="#382711" d="M2161.445,1009.648c0,0,0.03,19.578,0.264,45.951c19.449,5.003,40.679,7.676,55.703,1.834         c8.541-3.322,18.517-8.882,29.066-15.429c3.881-18.051,9.203-32.539,16.427-40.865L2161.445,1009.648z" class="color111b38 svgShape"/><path fill="#473217" d="M2757.114,991.974c0,0,4.582,32.075,17.019,53.676s39.275,137.462,35.347,221.903h15.71         c0,0,17.674-62.185,56.294-77.241c0,0,3.273-145.317-7.855-207.502L2757.114,991.974z" class="color172347 svgShape"/><path fill="#382711" d="M2873.629,982.81l-116.515,9.164c0,0,3.297,23.061,11.882,43.244         c14.798,4.751,27.932,8.52,37.539,9.45c20.488,1.983,49.863-4.05,72.275-15.088         C2877.586,1011.809,2875.911,995.561,2873.629,982.81z" class="color111b38 svgShape"/><path fill="#473217" d="M2585.614,894.442c0,0-16.692,49.094-34.365,69.713        c-17.674,20.619-86.405,25.529-110.952,20.619c-24.547-4.909-80.513-22.583-104.078-20.619s-83.459,54.003-118.806,67.749        s-105.06-19.637-105.06-19.637s-2.946-24.547,13.746-46.148c0,0-32.402,18.656-49.094,52.039c0,0-13.746-69.713,3.927-125.68        c0,0-13.746,15.71-17.674,28.474c0,0,0.982-55.967,40.257-112.915s128.625-132.553,172.81-150.226        c0,0-27.492,3.927-39.275,9.819c0,0,108.006-74.622,237.613-70.695c129.607,3.927,172.81,54.003,172.81,54.003        s0.982-20.619-6.873-29.456c0,0,116.843-3.927,184.592,49.094c67.749,53.021,91.314,84.441,99.169,153.172        s-2.946,102.115-2.946,102.115l6.873-3.927c0,0-5.891,40.257-23.565,62.84c-17.674,22.583-67.749,37.311-98.187,34.366        s-96.223-34.366-138.444-35.347s-72.659-6.873-75.604-13.746S2591.505,907.206,2585.614,894.442z" class="color172347 svgShape"/><path fill="#382711" d="M2126.097,966.118c0,0,96.714-133.535,302.907-95.242         C2429.005,870.877,2250.304,855.167,2126.097,966.118z" class="color111b38 svgShape"/><path fill="#382711" d="M2160.954 842.893c0 0 145.808-70.695 268.051 27.983l-60.385-4.418C2368.62 866.458 2296.452 806.073 2160.954 842.893zM2246.377 779.563c94.752-43.337 220.846-25.895 279.833 66.276C2458.279 761.199 2345.089 747.055 2246.377 779.563zM2380.402 686.776c56.194 1.063 119.405 25.415 145.808 78.059C2491.673 718.842 2434.982 698.09 2380.402 686.776zM2585.123 655.847c-97.797-41.791-208.479-18.827-308.799 1.964C2373.808 627.099 2491.039 604.396 2585.123 655.847z" class="color111b38 svgShape"/><path fill="#382711" d="M2446.679 654.374c45.222-7.298 94.187-12.853 138.444 1.473C2539.226 651.356 2492.747 656.934 2446.679 654.374zM2647.471 650.938c12.954 13.267 13.76 35.197 8.346 52.039C2651.134 685.808 2651.215 668.323 2647.471 650.938zM2636.671 685.303c19.461 19.038 31.721 47.747 27.983 75.113C2658.4 734.565 2647.584 709.501 2636.671 685.303zM2605.742 702.977c29.161 26.378 53.253 63.06 55.966 103.097C2649.448 769.074 2626.954 735.378 2605.742 702.977zM2588.068 747.161c37.205 26.998 70.346 68.818 72.168 116.352C2648.327 818.242 2618.391 781.661 2588.068 747.161zM2585.614 894.442c-5.844-22.769-8.942-46.544-15.219-69.222C2585.926 843.994 2589.676 870.949 2585.614 894.442zM2714.73 711.814c17.915 70.978 32.296 149.737 8.837 220.921C2737.113 859.58 2722.879 784.888 2714.73 711.814zM2713.257 676.466c59.574 53.677 118.867 124.31 123.716 207.666C2821.981 802.802 2765.708 737.415 2713.257 676.466zM2822.245 694.14c28.159 55.509 40.531 121.031 29.456 182.628C2852.73 814.695 2841.034 753.16 2822.245 694.14z" class="color111b38 svgShape"/><path fill="#382711" d="M2806.044 794.291c14.062 42.241 16.728 90.713 0 132.552C2812.936 882.756 2810.289 838.493 2806.044 794.291zM2284.67 913.588c41.844-27.383 93.34-50.459 144.335-42.711C2378.106 873.347 2331.331 895.028 2284.67 913.588z" class="color111b38 svgShape"/><g><path fill="#473217" d="M2832.063,1377.523c-14.728-38.293-6.873-109.97-6.873-109.97h-15.71        c-5.891,167.9-67.772,278.78-86.405,284.743c-24.547,7.855-20.619-84.441-68.731-86.405        c-31.531-1.287-82.477,13.746-123.716,16.692c-41.239,2.946-87.387-23.565-131.571-11.782        c-44.184,11.782-34.365,72.659-42.22,81.495c-7.855,8.837-39.275-0.982-69.713-57.93        c-30.438-56.949-47.13-228.122-47.13-228.122l-17.019,0.654c8.51,73.968-8.51,106.697-8.51,106.697        c-8.837,30.438,12.765,73.64,15.71,85.423c2.946,11.782-3.927,46.147,7.855,68.731c11.782,22.583,35.347,35.347,38.293,61.858        c2.946,26.51,0,50.075,22.583,64.803c22.583,14.728,37.311,44.184,48.112,68.731c10.801,24.547,50.076,22.583,69.713,33.384        c19.637,10.801,47.13,35.347,108.988,36.329c61.858,0.982,90.332-29.457,113.897-27.493        c23.565,1.964,75.604-38.293,84.441-54.003c8.837-15.71,15.71-22.583,32.402-36.33c16.692-13.746,14.728-48.111,16.692-66.767        c1.964-18.655,12.764-23.565,29.456-57.93c16.692-34.366,17.674-62.84,14.728-81.495        c-2.946-18.655,2.946-23.565,10.801-46.148C2835.991,1400.106,2832.063,1377.523,2832.063,1377.523z M2673.982,1583.716        c-4.909,30.438-26.51,48.112-67.749,51.057c-32.448,2.318-50.915-26.367-57.313-38.701c-1.751-3.376-5.227-5.483-9.031-5.483        h-18.513c-4.246,0-8.055,2.616-9.528,6.599c-3.531,9.552-12.053,27.217-29.332,37.585        c-24.547,14.728-69.797-6.159-79.532-24.547c-17.674-33.384-10.801-96.224,0-102.115c10.801-5.891,33.384-8.837,67.749,4.909        s65.786,8.837,65.786,8.837c54.003,0,100.151-32.402,125.679-13.746C2679.802,1520.974,2678.891,1553.278,2673.982,1583.716z" class="color172347 svgShape"/><ellipse cx="2648.917" cy="1289.626" fill="#3f2b12" rx="28.886" ry="35.512" class="color121d3f svgShape"/><ellipse cx="2416.587" cy="1289.626" fill="#3f2b12" rx="28.886" ry="35.512" class="color121d3f svgShape"/><path fill="#c98a65" d="M2529.198,1458.703c-17.275-0.368-41.388-3.484-49.94-17.178         c-3.23-5.174-5.647-13.852,1.199-25.807c26.911-47.012,42.065-122.54,42.216-123.296c1.031-5.226,6.107-8.628,11.337-7.593         c5.226,1.033,8.628,6.109,7.593,11.335c-0.634,3.218-15.898,79.358-44.4,129.141c-0.595,1.043-2.472,4.556-1.576,5.995         c3.85,6.173,28.215,9.074,47.697,7.813c5.319-0.326,9.909,3.684,10.255,9.001c0.347,5.315-3.679,9.907-8.995,10.257         C2541.212,1458.592,2535.687,1458.842,2529.198,1458.703z" class="colorc97565 svgShape"/><path fill="#473217" d="M2573.51 1194.29c0 0-8.164 16.747 9.805 24.694 17.969 7.947 102.179-2.607 141.788-4.13 39.609-1.522 33.451-23.944-13.433-27.888C2670.932 1183.539 2574.678 1180.823 2573.51 1194.29zM2493.873 1194.29c0 0 8.164 16.747-9.804 24.694-17.969 7.947-102.179-2.607-141.788-4.13-39.608-1.522-33.451-23.944 13.434-27.888C2396.451 1183.539 2492.705 1180.823 2493.873 1194.29z" class="color172347 svgShape"/><path fill="#d39875" d="M2583.012 1389.113c0 0 .336-37.666 70.651-41.349 70.315-3.684 103.626 14.247 101.682 41.349C2753.402 1416.216 2585.37 1442.689 2583.012 1389.113zM2455.855 1399.809c0 0-.336-37.666-70.651-41.35-70.315-3.684-103.626 14.247-101.682 41.35C2285.466 1426.912 2453.498 1453.385 2455.855 1399.809z" class="colord38475 svgShape"/><g><path fill="#c98a65" d="M2530.218,1555.16c-63.667,0-116.712-15.678-118.938-16.344          c-4.131-1.239-6.476-5.589-5.239-9.721c1.237-4.131,5.59-6.473,9.721-5.242c0.525,0.156,53.174,15.686,114.456,15.686          c61.321,0,114.351-15.534,114.879-15.692c2.944-0.928,6.133,0.354,7.616,3.061c2.681,4.896,0.093,11.014-5.283,12.514          c-0.163,0.045-0.321,0.089-0.474,0.131c-1.638,0.45-4.05,1.091-7.147,1.862c-5.609,1.395-14.652,3.5-25.878,5.603          C2594.106,1550.733,2563.491,1555.16,2530.218,1555.16z" class="colorc97565 svgShape"/><path fill="#d39875" d="M2556.475,1598.608c-0.829,0.001-1.671-0.148-2.49-0.464          c-19.925-7.663-44.607,0.052-44.853,0.131c-3.642,1.163-7.555-0.843-8.726-4.491c-1.17-3.647,0.828-7.551,4.474-8.727          c1.191-0.386,29.521-9.321,54.088,0.128c3.579,1.376,5.364,5.393,3.988,8.971          C2561.895,1596.915,2559.264,1598.608,2556.475,1598.608z" class="colord38475 svgShape"/></g></g></g></g></g></g><g><path fill="#db9e7a" d="M3946.913,3349.931c109.669-32.816,227.87,23.792,269.875,132.374       c42.004,108.583,2.565,264.277-100.637,313.809c0,0-345.472,198.48-711.803,313.802       c-366.331,115.322-998.04,225.454-998.04,225.454c-51.618,19.968-109.649-5.689-129.618-57.307       c-19.968-51.618,5.689-109.649,57.307-129.617c0,0,501.791-243.731,894.288-502.673       C3549.723,3433.711,3946.913,3349.931,3946.913,3349.931z" class="colordb8b7a svgShape"/><path fill="#db9e7a" d="M2546.556,4044.854c0,0-60.415,22.258-89.033,20.668s-54.055-27.028-100.162-15.899        c-49.672,11.99-141.498,68.364-236.89,124.01s-198.029,66.799-251.199,139.909c-38.157,52.465-56.085,165.102,42.926,175.415        c50.876,5.3,79.493,2.65,187.605-46.636c108.111-49.286,286.176-96.982,360.9-117.65        c74.724-20.668,273.458-95.392,238.48-186.015C2664.206,4048.034,2629.229,4025.776,2546.556,4044.854z" class="colordb8b7a svgShape"/><path fill="#877257" d="M2355.241,4032.135c0,0-32.857-13.779-63.595-7.419         c-12.627,2.613-134.609,77.374-216.222,113.411c-81.613,36.037-233.181,78.433-278.227,174.355         c-35.672,75.961-56.175,185.484,65.185,198.733c0,0,203.503-262.858,298.895-323.273         C2256.67,4127.528,2355.241,4032.135,2355.241,4032.135z" class="color875757 svgShape"/><path fill="#a38969" d="M2444.274,4062.873c0,0-33.917,12.719-73.134,38.157         c-30.286,19.645-158.987,104.931-175.945,113.411c-16.959,8.479-26.538,21.247-20.138,26.498         c13.779,11.306,93.625-10.599,135.669,26.498c11.659,8.833,23.671,42.75-7.419,64.655         c-18.38,12.95-17.665,22.965-2.826,26.145c14.839,3.18,29.324-2.827,44.163-0.707c0,0-76.314,32.857-131.429,54.055         c-55.115,21.198-225.761,97.512-302.075,104.932c-76.314,7.419-117.65-44.517-84.793-138.849         c32.857-94.332,81.613-119.77,139.908-150.508c58.295-30.737,137.789-56.175,210.923-101.751         c73.134-45.576,138.848-82.673,168.526-92.212C2371.14,4028.956,2406.117,4041.675,2444.274,4062.873z" class="colora36969 svgShape"/><path fill="#fbb890" d="M2585.933,4309.303c0,0-55.645,8.479-65.185,5.83c-9.539-2.65-82.307-129.148-72.238-249.448       c2.12-10.599,34.542-3.72,34.542-3.72L2585.933,4309.303z" class="colord6a8a7 svgShape"/><path fill="#efddd3" d="M4129.696,3363.331c0,0,156.867,78.433,112.351,284.056        c-44.517,205.623-290.416,311.614-646.547,438.804c-356.13,127.189-928.483,239.54-968.76,243.78        c-40.277,4.24-40.807-20.668-40.807-20.668s-129.309-60.945-108.111-243.25c0,0-18.548-18.019,23.848-45.576        c42.396-27.558,468.481-258.619,565.993-309.494S3896.515,3204.344,4129.696,3363.331z" class="colorefd4d3 svgShape"/><path fill="#e6cfc1" d="M3677.96,3404.362c-268.805,102.092-552.167,276.292-610.296,306.62        c-97.512,50.876-523.597,281.937-565.993,309.494c-42.396,27.558-23.848,45.577-23.848,45.577        c-21.198,182.304,108.111,243.25,108.111,243.25s0.53,24.907,40.807,20.668c32.99-3.472,422.954-79.479,758.678-176.761        c-41.729-52.964-95.739-74.16-144.896-89.286c-76.586-23.564-326.963-8.837-338.746-14.728        c-11.782-5.891,8.837-38.293,8.837-38.293c20.619-32.401,41.239-70.695,50.076-106.042        c8.837-35.347,55.967-82.476,55.967-82.476s11.782,2.945,50.075,14.728c38.293,11.783,123.716-5.891,162.009-41.238        c38.293-35.347,103.097-58.912,147.281-108.988c44.184-50.076,76.586-70.695,114.879-97.205s47.13-32.402,88.368-91.314        C3604.264,3462.657,3647.655,3426.952,3677.96,3404.362z" class="colore6c2c1 svgShape"/><g><path fill="#ffa30f" d="M1053.087,3349.931c-109.669-32.816-227.871,23.792-269.875,132.374       c-42.005,108.583-2.565,264.277,100.637,313.809c0,0,345.472,198.48,711.803,313.802       c366.331,115.322,998.04,225.454,998.04,225.454c51.618,19.968,109.649-5.689,129.618-57.307       c19.968-51.618-5.689-109.649-57.307-129.617c0,0-501.791-243.731-894.288-502.673       C1450.277,3433.711,1053.087,3349.931,1053.087,3349.931z" class="colorde9681 svgShape"/><path fill="#ffa30f" d="M2515.288,4321.492c0,0,147.858,30.737,209.863,33.917s306.315,31.268,385.808,36.037         s164.816-5.83,179.125-64.655s-15.369-99.632-55.115-134.609c-39.747-34.977-198.734-61.475-260.739-64.654         s-216.222-12.719-248.02-22.258c-31.797-9.539-69.954,12.719-157.397-4.77         C2481.371,4083.011,2348.352,4288.104,2515.288,4321.492z" class="colorde9681 svgShape"/><path fill="#d39875" d="M2764.17,4235.736c19.131-32.947,35.073-77.586,52.078-98.842         c4.243-5.304,11.133-11.732,19.084-18.394c-48.901-3.917-93.599-8.573-109.121-13.229         c-31.554-9.466-69.396,12.357-155.421-4.396c0.563,36.989-8.862,101.161,8.448,124.765         c23.382,31.885,36.136-8.502,36.136-8.502s-10.097,73.335,47.827,26.571c0,0,14.527,10.863,30.822,11.16         c10.083,0.183,28.696-32.417,28.696-32.417S2757.997,4246.367,2764.17,4235.736z" class="colord38475 svgShape"/><path fill="#877257" d="M2695.738,4094.67c0,0,47.431-12.719,59.09-11.659c11.659,1.06,96.452,7.419,174.885,8.479          c78.434,1.06,342.352,5.299,418.665,111.291c76.314,105.991-0.53,196.614-119.77,199.793          c0,0-293.596-236.89-352.951-257.028C2816.303,4125.408,2721.176,4110.569,2695.738,4094.67z" class="color875757 svgShape"/><path fill="#7d6a51" d="M2822.194,4130.362c12.785-12.781,34.719-29.075,50.752-40.417          c-58.323-2.276-109.272-6.13-118.118-6.933c-11.659-1.06-59.09,11.659-59.09,11.659          C2714.352,4106.304,2770.272,4117.372,2822.194,4130.362z" class="color7d5151 svgShape"/><path fill="#a38969" d="M2637.178,4106.33c0,0,72.074,15.898,115.53,25.438          c43.457,9.54,122.95,33.917,152.627,72.074c0,0-77.374,3.18-82.673,49.816s27.558,67.834,27.558,67.834          s-16.958,6.359-46.636,8.479c-29.677,2.12-170.646,4.24-200.323,8.479c0,0,27.558,15.899,73.134,23.318          c45.576,7.419,290.416,30.738,391.108,43.457c0,0,231.061,19.079,259.678-46.636          c28.618-65.714-29.677-152.627-81.613-185.484c-51.936-32.857-220.462-54.056-274.517-60.415          c-54.056-6.359-178.065-5.3-215.162-11.659s-56.175-8.479-71.014-4.24C2670.035,4101.03,2637.178,4106.33,2637.178,4106.33z          " class="colora36969 svgShape"/><path fill="#d17705" d="M2637.178,4106.33c0,0,72.073,15.898,115.53,25.438c15.456,3.393,35.474,8.672,56.185,15.771          c2.438-3.966,4.885-7.559,7.354-10.646c6.748-8.435,20.192-19.712,33.953-30.251c-39.811-1.258-76.775-2.606-94.313-5.612          c-37.096-6.36-56.175-8.48-71.014-4.24C2670.036,4101.03,2637.178,4106.33,2637.178,4106.33z" class="color996060 svgShape"/><g><path fill="#d9bfb0" d="M2414.067,4309.303c0,0,55.645,8.479,65.185,5.83c9.539-2.65,101.222-94.862,91.152-215.163       c-2.12-10.599-48.226-33.917-48.226-33.917L2414.067,4309.303z" class="colord9b1b0 svgShape"/><path fill="#efddd3" d="M870.304,3363.331c0,0-156.867,78.433-112.351,284.056s290.416,311.614,646.547,438.804        c356.13,127.189,928.483,239.54,968.76,243.78c40.277,4.24,40.807-20.668,40.807-20.668s129.309-60.945,108.111-243.25        c0,0,18.548-18.019-23.848-45.576c-42.396-27.558-468.481-258.619-565.993-309.494        C1834.825,3660.106,1103.485,3204.344,870.304,3363.331z" class="colorefd4d3 svgShape"/><path fill="#e6cfc1" d="M2498.33,4020.476c-42.396-27.557-468.481-258.618-565.993-309.494        c-46.964-24.503-240.952-142.919-455.498-241.346c29.883,25.253,81.62,71.38,103.338,105.315        c31.42,49.094,64.804,74.622,100.151,86.405c35.347,11.783,106.042,49.094,139.426,96.224        c33.384,47.13,127.643,92.296,170.845,108.005c43.203,15.71,100.151,1.964,115.861,13.747        c15.71,11.782,37.311,100.15,70.695,145.316c33.384,45.167,51.057,94.26,72.658,141.389        c21.601,47.13,58.912,76.587,88.369,68.731c0,0,31.42,33.384,54.985,23.565c0,0,31.395,16.323,66.066,16.837        c34.984-35.298,75.543-100.776,62.945-209.119C2522.178,4066.053,2540.726,4048.034,2498.33,4020.476z" class="colore6c2c1 svgShape"/></g></g><g><path fill="#ffa30f" d="M2937.626,3795.69c81.545-55.837,326.455-171.895,489.502-277.705       c187.011-121.362,286.039-223.017,286.039-223.017s73.655-67.24,17.04-160.038c-42.596-69.82-133.783-117.857-212.327-61.589       c-117.823,70.332-247.612,199.125-329.298,284.141c-86.107,89.619-349.615,296.891-349.615,296.891       c-45.125,21.494-64.28,75.499-42.786,120.623c21.495,45.125,83.399,49.72,128.524,28.226       C2929.291,3801.037,2933.592,3798.502,2937.626,3795.69z" class="colorde9681 svgShape"/><path fill="#ffa30f" d="M2897.849,3612.263c0,0-109.969,80.514-157.099,115.861        c-47.13,35.347-115.861,162.991-133.535,204.229c-7.855,35.347-15.71,111.933-21.601,147.281        c-5.891,35.347-3.927,121.752-1.964,127.643c1.964,5.891,37.311-9.819,37.311-9.819s-1.964,41.239,7.855,45.166        c9.819,3.928,39.275-23.565,39.275-23.565s27.492,31.42,53.021-19.637c0,0,19.637,17.674,37.311,3.928        c17.674-13.747,35.347-60.876,43.202-90.333s25.529-76.586,33.384-90.332c7.855-13.746,45.166-76.586,62.84-129.607        c17.674-53.021,45.166-100.151,62.84-111.933c17.674-11.782,94.26-41.239,90.332-96.223        C3047.093,3629.937,2968.543,3559.242,2897.849,3612.263z" class="colorde9681 svgShape"/><path fill="#c98a65" d="M2620.246 4197.402c4.281-75.897-.848-164.118 30.874-231.54 1.897 49.159-12.47 96.327-17.959 144.697-2.404 18.583-8.947 67.802-11.485 86.956C2621.592 4198.352 2620.195 4198.304 2620.246 4197.402zM2668.091 4219.06c6.466-83.597 5.65-180.014 43.897-253.153-2.137 48.497-16.426 94.856-26.132 142.009C2679.122 4142.529 2677.385 4189.021 2668.091 4219.06zM2721.112 4199.422c4.131-73.626 13.15-157.813 49.782-219.748-2.456 37.48-13.277 75.106-26.784 110.044C2732.438 4123.667 2731.146 4168.924 2721.112 4199.422z" class="colorc97565 svgShape"/><path fill="#fb600a" d="M2913.559,3582.807c0,0-15.71-23.565-5.891-51.057c9.819-27.492,82.477-82.477,131.571-102.115        c0,0,84.441-86.405,137.462-123.716c53.021-37.311,233.685-190.483,286.707-223.867        c53.021-33.384,202.266-74.622,269.033,15.71c66.767,90.332,11.782,212.084-47.13,253.323        c-58.912,41.239-219.939,182.628-263.142,219.939c-43.202,37.311-172.809,94.26-184.592,106.042        s-88.368,60.876-115.861,60.876s-60.876-9.819-60.876-9.819S2992.108,3614.227,2913.559,3582.807z" class="color8989e5 svgShape"/><path fill="#efddd3" d="M2888.083,3604.175c1.098,6.88,6.001,12.572,12.639,14.687        c26.19,8.346,97.237,39.047,113.969,129.881c2.946,11.782,46.148-0.982,54.003-2.946c7.855-1.964,7.855-10.801,0-39.275        s-63.822-123.716-152.19-139.426C2888.03,3561.206,2884.592,3582.285,2888.083,3604.175z" class="colorefd4d3 svgShape"/><path fill="#d69c7a" d="M3360.109,3098.883c0,0,154.355-103.235,276.107-79.67c0,0-100.151,21.601-188.519,52.039       c0,0,98.187-8.837,164.954,18.656C3612.651,3089.907,3421.766,3096.076,3360.109,3098.883z" class="color7a7ad6 svgShape"/><g><path fill="#ffa30f" d="M2138.483,3795.69c-81.544-55.837-326.455-171.895-489.501-277.705       c-187.011-121.362-286.039-223.017-286.039-223.017s-73.655-67.24-17.04-160.038c42.596-69.82,133.783-117.857,212.327-61.589       c117.823,70.332,247.612,199.125,329.298,284.141c86.108,89.619,349.615,296.891,349.615,296.891       c49.021,33.742,64.28,75.499,42.786,120.623c-21.495,45.125-83.399,49.72-128.524,28.226       C2146.819,3801.037,2142.518,3798.502,2138.483,3795.69z" class="colorde9681 svgShape"/><path fill="#ffa30f" d="M2178.261,3612.263c0,0,109.97,80.514,157.1,115.861        c47.13,35.347,115.861,162.991,133.534,204.229c7.855,35.347,15.71,111.933,21.601,147.281        c5.891,35.347,3.927,121.752,1.964,127.643c-1.964,5.891-37.311-9.819-37.311-9.819s1.964,41.239-7.855,45.166        c-9.819,3.928-39.275-23.565-39.275-23.565s-27.492,31.42-53.021-19.637c0,0-19.637,17.674-37.311,3.928        c-17.674-13.747-35.347-60.876-43.202-90.333c-7.855-29.456-25.529-76.586-33.384-90.332        c-7.855-13.746-45.166-76.586-62.84-129.607c-17.674-53.021-45.166-100.151-62.84-111.933        c-17.674-11.782-94.26-41.239-90.332-96.223C2029.017,3629.937,2107.567,3559.242,2178.261,3612.263z" class="colorde9681 svgShape"/><path fill="#c98a65" d="M2455.149 4197.458c-4.546-33.579-11.499-82.706-16.099-115.77-7.268-38.207-15.26-76.599-14.063-115.825 21.009 40.051 24.103 96.36 27.462 143.804C2452.381 4136.61 2458.954 4174.597 2455.149 4197.458zM2408.019 4219.06c-5.931-36.04-12.283-74.97-17.766-111.143-9.704-47.153-23.994-93.514-26.131-142.009C2400.831 4037.658 2406.227 4140.679 2408.019 4219.06zM2354.998 4199.422c-6.794-36.486-12.566-74.203-22.999-109.704-13.511-34.958-24.321-72.538-26.786-110.043C2340.334 4040.205 2355.716 4131.006 2354.998 4199.422z" class="colorc97565 svgShape"/><path fill="#fb600a" d="M2162.551,3582.807c0,0,15.71-23.565,5.891-51.057        c-9.819-27.492-82.477-82.477-131.571-102.115c0,0-84.441-86.405-137.462-123.716        c-53.021-37.311-233.685-190.483-286.707-223.867c-53.021-33.384-202.266-74.622-269.033,15.71        c-66.767,90.332-11.782,212.084,47.13,253.323c58.912,41.239,219.939,182.628,263.142,219.939        c43.202,37.311,172.809,94.26,184.592,106.042s88.368,60.876,115.861,60.876s60.876-9.819,60.876-9.819        S2084.002,3614.227,2162.551,3582.807z" class="color8989e5 svgShape"/><path fill="#efddd3" d="M2188.026,3604.175c-1.097,6.88-6.001,12.572-12.639,14.687        c-26.19,8.346-97.237,39.047-113.969,129.881c-2.946,11.782-46.148-0.982-54.003-2.946c-7.855-1.964-7.855-10.801,0-39.275        s63.822-123.716,152.19-139.426C2188.08,3561.206,2191.519,3582.285,2188.026,3604.175z" class="colorefd4d3 svgShape"/><path fill="#d69c7a" d="M1718.621,3098.883c0,0-154.355-103.235-276.107-79.67c0,0,100.151,21.601,188.519,52.039       c0,0-98.187-8.837-164.954,18.656C1466.078,3089.907,1656.964,3096.076,1718.621,3098.883z" class="color7a7ad6 svgShape"/></g></g></g></svg>