<svg xmlns="http://www.w3.org/2000/svg" viewBox="0 0 2800 1900"><g data-name="Layer 1"><path fill="#ffa30f" d="M1690.12,1829.4765l-103.925-23.9247s-31.1851-54.8234-29.0219-69.573c.8505-5.8097,15.5392-14.7468,33.009-23.4161.6-.2927,1.2183-.6313,1.8639-.9052,11.3512-5.578,23.7798-11.0415,34.2237-15.4343,10.2314-4.2648,18.5617-7.5322,22.2518-8.9834.4982-.1732.8856-.3376,1.2085-.4746.5628-.2006.8856-.3376.8856-.3376l17.2108,62.3907.046.0186,2.0725,7.5798Z" class="color991d1d svgShape"/><path fill="#fb600a" d="M1694.4365,1215.3874q-77.59755-.74535-155.198-1.0643c-82.4589,302.5695-29.0511,583.6187-29.0511,583.6187s11.3819,11.2896,40.7796,20.7652c28.054,9.093,72.5111,16.5232,139.1532,10.7696-61.8743-26.0285-85.3109-48.3975-84.6859-63.1807a13.43273,13.43273,0,0,1,3.8459-8.7186c5.8717-6.1876,18.091-9.8093,34.1952-10.2018a152.98378,152.98378,0,0,1,23.7435,1.3575c.2023.0283.4052.0567.6075.0851l.0459.0189a223.16341,223.16341,0,0,1,44.5356,11.2069,251.45213,251.45213,0,0,1,26.2596,11.1507C1651.5652,1576.0081,1658.1239,1378.2703,1694.4365,1215.3874Z" class="colorf15a24 svgShape"/><path fill="#d17705" d="M1649.4086 1219.8081c-8.4793 43.9361-15.6268 88.0012-20.8973 132.3354-5.9195 44.241-8.8543 89.0404-6.6753 133.6899 3.7691 89.2683 18.8262 177.7475 46.2365 262.9251l-.4668.1678a665.19345 665.19345 0 01-36.5673-129.202c-8.07-44.1484-11.6367-89.0442-11.9176-133.8275.0879-44.7857 1.4144-89.5374 5.3054-134.2039a820.593 820.593 0 0124.4991-131.9968zM1596.0484 1220.515q-15.358 67.4508-24.43 135.8639c-6.6347 45.5223-9.9466 91.681-8.1317 137.7173a1147.59632 1147.59632 0 0042.2047 272.1396l-.4728.1499a762.258 762.258 0 01-33.8812-134.1873 848.40985 848.40985 0 01-10.5665-138.062c.4538-46.1531 2.1553-92.2721 6.7682-138.2592a760.85506 760.85506 0 0128.03-135.4899z" class="color932a1f svgShape"/><path d="M1667.2189,1748.733c-1.8686-5.5706-4.3012-12.9214-6.9394-22.0144-.1461-.4331-.2643-.8023-.3641-1.217-3.1205-10.6788-6.6202-23.5973-10.1852-38.7366-17.5898-74.6898-36.738-201.9122-19.6938-364.266,3.5876-34.3102,8.8982-70.261,16.0905-107.5471q-4.7616-.0411-9.5228-.0855c-32.2156,130.6497-57.8039,314.4369-10.3346,481.3566q7.36725,25.85295,17.2059,51.1525c6.1602,15.867,13.0854,31.5613,20.8504,46.9001l-47.5852-21.2687s-2.9286-5.1971-7.4604-15.4296a446.64532,446.64532,0,0,1-17.2343-45.92c-3.6156-11.3071-7.3002-24.0327-10.7947-38.2874a.6797.6797,0,0,1-.0633-.2397c-22.9019-93.0687-39.2151-249.0369,15.9425-458.5494-5.1157-.035-10.232-.0369-15.3477-.0681-49.1781,150.6495-91.3189,372.108-30.8157,604.1943,28.054,9.093,72.5111,16.5232,139.1532,10.7696l-20.1751-73.06C1669.1876,1754.4516,1668.294,1751.897,1667.2189,1748.733Z" style="mix-blend-mode:soft-light" opacity=".5" fill="#000000" class="color000 svgShape"/><path d="M1694.4365,1215.3874q-7.57305-.073-15.1455-.1366c-30.6577,137.1508-62.1438,352.251,33.1169,544.7931a251.45213,251.45213,0,0,1,26.2596,11.1507C1651.5652,1576.0081,1658.1239,1378.2703,1694.4365,1215.3874Z" style="mix-blend-mode:soft-light" opacity=".5" fill="#000000" class="color000 svgShape"/><path fill="#998275" d="M1711.2008,1199.6453c-29.2814,92.4153-144.4714,180.6472-144.4714,180.6472l-35.3238,9.0637s18.1264,23.0068,9.0632,51.2816c-25.2536,153.6126-13.866,367.0277-13.866,367.0277s-30.7537,4.9579-78.5493,8.676c-2.634-34.5494-9.7607-82.5776-28.3519-126.8096-20.1411,63.0563-44.2325,107.8307-58.2536,130.7604-126.3449,1.7815-293.901-14.9506-384.3797-102.7958-33.3873-181.1125,59.1831-328.1403,59.1831-328.1403l-17.4295-172.7461s38.0349-96.289,85.2882-153.1479c14.4088-17.2744,33-30.8308,54.2253-38.19,4.7257-1.6269,9.4509-3.1763,14.3312-4.4931,38.2676-10.8452,77.7744-13.6338,77.7744-13.6338l12.8594-4.5702,10.38-3.7962.5423-.1546,33.7745-12.162.852-.3097c30.7537,27.8096,91.8735,41.0562,147.6481,12.3167,2.6336-.0776,5.4222-.2322,8.2113-.3873,12.1615-.6198,23.7812-.852,34.8591-.852h1.8591a1.148,1.148,0,0,1,.5423.0776c15.6475.077,30.2109.7744,43.8448,2.0137h.0775a350.57161,350.57161,0,0,1,51.1265,8.3663C1720.6517,1037.8214,1734.1305,1127.5257,1711.2008,1199.6453Z" class="color998675 svgShape"/><path d="M1711.2008,1199.6453c-29.2814,92.4153-144.4714,180.6472-144.4714,180.6472l-35.3238,9.0637s18.1264,23.0068,9.0632,51.2816c-25.2536,153.6126-13.866,367.0277-13.866,367.0277s-30.7537,4.9579-78.5493,8.676c-2.634-34.5494-9.7607-82.5776-28.3519-126.8096a646.20127,646.20127,0,0,1-41.2113,100.3168c25.1761-174.8378-230.3028-296.0702-368.1898-348.2038,13.866-33.0776,25.9509-52.2887,25.9509-52.2887l-17.4295-172.7461s5.1124-12.8594,13.866-31.9159a102.83632,102.83632,0,0,0,23.9363,1.5494c84.0495-3.331,94.4295-105.2743,94.1198-158.0277,2.4789-1.0846,5.0354-2.0142,7.5914-2.9437,4.7257-1.6269,9.4509-3.1763,14.3312-4.4931,38.2676-10.8452,77.7744-13.6338,77.7744-13.6338l12.8594-4.5702,10.38-3.7962.5423-.1546,33.7745-12.162.852-.3097c30.7537,27.8096,91.8735,41.0562,147.6481,12.3167,2.6336-.0776,5.4222-.2322,8.2113-.3873,12.1615-.6198,23.7812-.852,34.8591-.852h1.8591a1.148,1.148,0,0,1,.5423.0776c15.6475.077,30.2109.7744,43.8448,2.0137h.3097c-28.1198,30.9088-95.9784,105.8945-97.6054,109.9224-2.0141,5.0354-150.5138,287.9365,51.0495,218.7602,201.5628-69.253,84.1265-323.26,84.1265-323.26,4.5702.852,8.9857,1.8591,13.3237,2.9437C1720.6517,1037.8214,1734.1305,1127.5257,1711.2008,1199.6453Z" style="mix-blend-mode:soft-light" opacity=".5" fill="#000000" class="color000 svgShape"/><path fill="#fbb890" d="M1005.4539,1265.3285s-14.8009,7.6965-23.0647,33.5734c-17.9712,56.2738,11.2344,117.7613,65.5293,141.037,46.0659,19.7479,110.2919,21.8124,181.8462-.3148C1362.1283,1396.1765,1005.4539,1265.3285,1005.4539,1265.3285Z" class="colorf5be9b svgShape"/><path d="M1229.7581,1439.6307c-61.9718,19.2111-118.4438,20.2182-162.3662,7.2042,5.4226-71.035-54.1477-126.0352-84.5138-149.1971,8.2113-24.8658,22.5421-32.3026,22.5421-32.3026S1362.1449,1396.1732,1229.7581,1439.6307Z" style="mix-blend-mode:soft-light" opacity=".5" fill="#000000" class="color000 svgShape"/><path fill="#ffffff" d="M1351.0675,970.9694l-17.352,6.1971C1341.3845,973.9906,1349.1309,971.5892,1351.0675,970.9694Z" class="colorfff svgShape"/><path fill="#fb600a" d="M1597.0179,1007.6876c-31.3731,87.1477-75.0633,157.873-123.4787,206.1334h-.0776c-81.7251,81.4154-177.0841,99.1552-250.3654,24.8663-50.6622-51.3591-59.1831-134.6336-50.4296-217.9082,38.2676-10.8452,77.7744-13.6338,77.7744-13.6338l12.8594-4.5702,10.38-3.7962.5423-.1546,33.7745-12.162.852-.3097c30.7537,27.8096,91.8735,41.0562,147.6481,12.3167,2.6336-.0776,5.4222-.2322,8.2113-.3873,12.1615-.6198,23.7812-.852,34.8591-.852h1.8591a1.148,1.148,0,0,1,.5423.0776c15.6475.077,30.2109.7744,43.8448,2.0137h.0775A350.57161,350.57161,0,0,1,1597.0179,1007.6876Z" class="colorf15a24 svgShape"/><path fill="#d17705" d="M1273.6804 998.7794a140.48921 140.48921 0 0014.2465 16.5445l.2599.6501a.57908.57908 0 00-.1961-.5187l.1233.1192.2463.2383.4925.4756.9846.9513 2.0431 1.8666c1.3476 1.2733 2.7701 2.3991 4.1485 3.6009 2.8264 2.3092 5.6554 4.6085 8.6549 6.6761a118.94442 118.94442 0 0018.836 10.9128 155.98329 155.98329 0 0020.3213 7.6893 151.29055 151.29055 0 0021.2259 4.5621l-.3635-.0251a6.03312 6.03312 0 011.8033.3523l-1.1849-.2799.4632-.0033.1435-.0015.2042.0242a132.8608 132.8608 0 0062.9428-7.904 188.47982 188.47982 0 0028.9721-14.1095 259.10567 259.10567 0 0026.5659-18.7014l-.0637.0582.7839-.6359-.1418.1163.9768-.7494-.0949.0822c5.2407-4.4302 10.1501-9.0835 15.3526-13.5407-4.6271 4.974-9.2485 10.0746-14.0829 14.8102l-.0971.0847-.7251.6425-.1442.1187-.4532.4463-.066.0601c-15.9898 14.8305-34.3572 27.7523-54.9881 35.9427a139.15528 139.15528 0 01-32.1175 8.5777 119.6963 119.6963 0 01-33.312-.0246l.3447.0222-.4632-.0033-1.1881-.2799a.6803.6803 0 00.5669.1977l-.3665-.0256a156.42946 156.42946 0 01-21.9378-5.0685 120.50313 120.50313 0 01-20.7976-8.5601 122.71414 122.71414 0 01-18.8769-12.1445c-2.9675-2.2747-5.7877-4.7328-8.5204-7.2713-1.3073-1.3263-2.687-2.6062-3.9232-3.9678l-1.8965-2.0189-.9305-1.0459-.4647-.5224-.2322-.2615-.1161-.1305a1.46066 1.46066 0 01-.351-.8279l.2582.6478A113.97868 113.97868 0 011273.6804 998.7794zM1514.7506 982.434a3.75632 3.75632 0 00-1.4244-1.9305l.2948-.3635a2.29645 2.29645 0 01.8179-1.113l-.7187.5172c.1142-.3532.5539-.1395 2.967.721 1.742 1.6861 1.5107 2.7263.9538 3.1986l-.7208.5196c.1314-.0407.1412-.2846.0456-.4955l.2925-.3612A2.45635 2.45635 0 011514.7506 982.434z" class="color932a1f svgShape"/><path fill="#d17705" d="M1561.9111,957.7672a418.854,418.854,0,0,1-57.8497,118.45,333.07673,333.07673,0,0,1-43.9595,49.7336c-4.1659,3.6623-8.5584,7.0769-12.83,10.6272l-6.4781,5.2421-6.934,4.6396c-4.6645,3.0255-9.1597,6.3356-13.9701,9.1233l-14.8044,7.7531c-19.8286,10.0481-42.0203,16.2376-64.5437,16.3137-22.3987.0038-45.2529-6.6046-63.1312-20.4026-17.9647-13.6404-31.0062-32.583-39.9694-52.768a215.39234,215.39234,0,0,1-16.4359-63.8772,214.04147,214.04147,0,0,0,18.9451,62.7188c9.3363,19.6541,22.5117,37.7843,40.0346,50.4272,17.4753,12.6296,39.0211,18.9908,60.5447,18.7619,21.5212-.2373,42.878-6.3332,62.1071-16.2551l14.4842-7.4386c4.7133-2.6823,9.1254-5.8898,13.7068-8.8065l6.815-4.4775,6.3796-5.0874c4.2093-3.4468,8.5408-6.7546,12.6561-10.3143,16.1702-14.6433,30.5676-31.1164,43.8877-48.4589a441.00539,441.00539,0,0,0,34.7279-55.6986A418.21466,418.21466,0,0,0,1561.9111,957.7672Z" class="color932a1f svgShape"/><path d="M1499.5677,997.23c-43.9228,38.2676-121.2324,71.1901-191.5705-10.7677l.852-.3097c30.7537,27.8096,91.8735,41.0562,147.6481,12.3167,2.6336-.0776,5.4222-.2322,8.2113-.3873C1476.8701,997.4622,1488.4898,997.23,1499.5677,997.23Z" style="mix-blend-mode:soft-light" opacity=".5" fill="#000000" class="color000 svgShape"/><path d="M1597.0179,1007.6876c-31.3731,87.1477-75.0633,157.873-123.4787,206.1334h-.0776c-156.2461,129.8309-268.7245,24.1689-280.8865-151.4434,41.1337,268.725,257.7247,143.2321,305.3657,18.4367a.60377.60377,0,0,1-.3097.3096c-49.4225,59.8806-155.0845,109.6128-217.7536,29.0493,71.7323,44.7748,140.2889,21.1482,225.7322-84.1265-80.3309,94.2744-198.542,90.4011-242.3093-23.4716l10.38-3.7962.5423-.1546a131.64267,131.64267,0,0,0,13.014,17.3521.27048.27048,0,0,0,.0776.155c.6198.6194,1.0846,1.2393,1.7815,1.8591v.0775c21.0706,22.8518,47.3313,34.7041,75.2184,37.1055h.3872a1.50959,1.50959,0,0,1,.6198.0775h.4648c39.5068,3.0212,82.2675-12.5492,118.1337-41.521.4647-.3877.852-.6973,1.3167-1.0846a3.87921,3.87921,0,0,1,.6199-.5423,8.21668,8.21668,0,0,1,.852-.6974c.1551-.1546.3872-.3872.6198-.6193.6969-.6199,1.3943-1.1622,2.0917-1.8591q6.507-5.46165,12.5493-11.6197c15.6475.077,30.2109.7744,43.8448,2.0137h.0775A350.57161,350.57161,0,0,1,1597.0179,1007.6876Z" style="mix-blend-mode:soft-light" opacity=".5" fill="#000000" class="color000 svgShape"/><path fill="#e5e5e5" d="M1844.4793,445.7525a104.52479,104.52479,0,0,1-26.4787,14.0305c-61.3622,21.5393-123.7998-29.763-176.3187-102.9577-60.1365-83.8112-84.5082-164.5191-14.8957-214.4678a126.34534,126.34534,0,0,1,14.8369-9.2077c69.0788-36.7518,164.1278-7.6064,220.1149,70.4219C1921.8745,287.3829,1914.1351,395.7729,1844.4793,445.7525Z" class="colore5e5e5 svgShape"/><path d="M1818.0006,459.783c-61.3622,21.5393-123.7998-29.763-176.3187-102.9577-60.1365-83.8112-84.5082-164.5191-14.8957-214.4678a126.34534,126.34534,0,0,1,14.8369-9.2077c40.5356,25.2424,86.8306,61.0619,118.1292,100.5814-18.6366-37.8175-88.188-97.9411-88.188-97.9411s62.0209,15.1871,110.6885,60.4183c-25.0208-34.8711-86.426-68.1512-86.426-68.1512a133.48891,133.48891,0,0,1,71.3666,31.0358c40.0056,34.2524,101.792,101.3206,123.0573,201.8433-29.7306-103.2093-115.317-171.3748-149.8077-185.0027,103.3484,86.9976,130.3754,179.3329,120.5551,235.8036-14.3821-84.2797-73.3473-148.5994-73.3473-148.5994s61.8474,109.9762,45.7698,168.3869c0,0-23.9261-132.0211-124.8312-211.4227C1797.5358,337.9613,1819.3771,413.2282,1818.0006,459.783Z" style="mix-blend-mode:soft-light" opacity=".5" fill="#000000" class="color000 svgShape"/><path fill="#ffffff" d="M1730.2467,129.9482s143.863,73.9303,163.5733,223.5125C1893.0655,226.7316,1800.2544,157.1016,1730.2467,129.9482Z" class="colorfff svgShape"/><path fill="#ffffff" d="M1778.6948 211.8616s103.8402 90.2182 88.6134 200.9137C1888.7924 354.3803 1869.4741 287.7043 1778.6948 211.8616zM1811.5114 308.2724s43.3725 75.8973 23.5275 136.1842C1859.9866 406.222 1839.1298 342.6041 1811.5114 308.2724zM1728.753 247.696s78.2638 91.7481 94.2447 208.5014C1822.8069 392.2989 1795.146 314.1754 1728.753 247.696zM1648.407 136.2269s64.1739 40.9828 95.8372 79.4755C1716.5055 172.7447 1679.1483 149.6644 1648.407 136.2269zM1675.3129 132.2705s59.7236 17.9276 97.0413 56.3621C1737.3478 145.6384 1703.5378 139.5192 1675.3129 132.2705z" class="colorfff svgShape"/><path fill="#333333" d="M1091.1717,776.3042c0,1.7573-.044,3.559-.044,5.4483a8.81206,8.81206,0,0,0-.044,1.0985c-.044,3.9546-.1317,8.0849-.2196,12.4348,0,1.8014-.044,3.6031-.088,5.4924-2.021,92.0083-11.424,255.4174-52.9024,265.5673a18.33093,18.33093,0,0,1-4.306.5272c-10.4575,0-20.7833-9.359-30.6696-27.9454-34.7116-64.81-25.3526-201.5918-21.2663-245.9704a52.16255,52.16255,0,0,0,11.1164,5.712c-4.0423,47.718-11.38,175.6683,20.2998,234.854,8.0849,15.247,16.1258,23.112,22.1015,21.7059,14.9831-3.7347,40.6875-63.1403,44.2466-260.2506.044-2.5925.0877-5.2287.1316-7.8652q.066-5.4042.132-10.9408h1.8893Z" class="color333 svgShape"/><path fill="#e5e5e5" d="M1047.5831,734.5756S966.4473,576.1675,978.5843,404.862a83.80984,83.80984,0,0,1,8.8816-32.272c18.4058-35.9785,43.5901-69.9334,73.5164-100.494,112.5412-114.9269,295.7084-193.0922,445.8815-203.4982a42.7515,42.7515,0,0,1,21.2585,4.1028c53.3916,25.2492,245.6328,150.7532,268.0379,350.2275-11.7712,106.4342-44.0402,269.3742-121.0157,355.1344C1522.1904,828.6723,1047.5831,734.5756,1047.5831,734.5756Z" class="colore5e5e5 svgShape"/><path d="M1445.7134,208.9836s-219.309-83.7935-449.8647,232.5207c143.9567-160.5424,272.0393-181.9109,272.0393-181.9109s-184.6521,83.2249-245.778,289.0381c105.3241-208.0625,354.2669-270.3627,446.8553-265.0798-148.0893-16.0857-226.1947,22.5794-226.1947,22.5794s146.2395-65.657,261.1901-42.0391c-51.4993-22.4932-126.685-33.4018-166.2148-25.0359C1373.7351,221.3549,1445.7134,208.9836,1445.7134,208.9836Z" style="mix-blend-mode:soft-light" opacity=".5" fill="#000000" class="color000 svgShape"/><path d="M1486.0113,251.6973s189.0924,89.609,210.176,339.5314c16.3038-96.4108-39.0838-210.9613-39.0838-210.9613s82.8879,93.4791,74.7534,256.1942c32.2144-137.4355-72.6432-311.7135-72.6432-311.7135s92.4793,107.662,99.3882,247.083c17.5965-161.9772-71.3019-407.0551-259.2218-355.4246,98.4056,4.4951,163.5065,53.9025,213.4889,150.8097-86.463-113.9768-139.6358-130.5174-211.643-131.091,111.0057,29.7369,158.7629,130.3171,158.7629,130.3171S1592.6688,275.6004,1486.0113,251.6973Z" style="mix-blend-mode:soft-light" opacity=".5" fill="#000000" class="color000 svgShape"/><path fill="#fbb890" d="M1104.1513,842.1562a88.61343,88.61343,0,0,1-18.4545,10.6774c-1.6697.7469-3.3834,1.4058-5.0091,1.977-1.7137.6592-3.4274,1.2304-5.0968,1.7137a66.46711,66.46711,0,0,1-18.9377,2.9878,53.71208,53.71208,0,0,1-26.4953-6.7225,57.9105,57.9105,0,0,1-11.3364-8.1729,82.15806,82.15806,0,0,1-18.2785-24.6497c-.4395-.8788-.8348-1.7137-1.2744-2.5922a132.26843,132.26843,0,0,1-10.4572-34.7559c-5.0091-30.7133-.8348-65.1616,14.1922-92.2719,5.4044-9.7983,11.2924-16.5211,17.356-20.871,25.0013-17.9709,53.6933,4.7015,71.3129,23.5952a180.38345,180.38345,0,0,1,16.4771,20.3438,182.00151,182.00151,0,0,1,15.5106,34.9755C1132.8873,777.1265,1137.1932,816.9792,1104.1513,842.1562Z" class="colorf5be9b svgShape"/><path fill="#dd966c" d="M1009.1999,746.5719c6.7342-5.2264,14.8178-7.6632,23.1385-8.6575a50.86075,50.86075,0,0,1,25.4212,3.8491,40.539,40.539,0,0,1,19.6608,17.8735c4.4937,7.7176,5.4308,16.6508,4.085,24.7973-5.6682-6.4344-9.613-12.3781-14.8987-16.6163a55.73011,55.73011,0,0,0-15.8519-10.302C1039.0907,752.3179,1025.3853,750.1137,1009.1999,746.5719Z" class="colordd8f6c svgShape"/><path d="M1104.1513,842.1562a88.61343,88.61343,0,0,1-18.4545,10.6774c-1.6697.7469-3.3834,1.4058-5.0091,1.977-1.7137.6592-3.4274,1.2304-5.0968,1.7137a66.46711,66.46711,0,0,1-18.9377,2.9878,53.71208,53.71208,0,0,1-26.4953-6.7225,57.9105,57.9105,0,0,1-11.3364-8.1729,82.15806,82.15806,0,0,1-18.2785-24.6497c-.4395-.8788-.8348-1.7137-1.2744-2.5922a132.26843,132.26843,0,0,1-10.4572-34.7559c-5.0091-30.7133-.8348-65.1616,14.1922-92.2719,5.4044-9.7983,11.2924-16.5211,17.356-20.871,25.0013-17.9709,53.6933,4.7015,71.3129,23.5952a180.38345,180.38345,0,0,1,16.4771,20.3438,182.00151,182.00151,0,0,1,15.5106,34.9755C1132.8873,777.1265,1137.1932,816.9792,1104.1513,842.1562Z" style="mix-blend-mode:soft-light" opacity=".5" fill="#000000" class="color000 svgShape"/><path fill="#fbb890" d="M1680.5423,713.3944s64.6681-96.1586,105.1559-23.0555,2.2493,199.6274-82.6626,162.5136S1680.5423,713.3944,1680.5423,713.3944Z" class="colorf5be9b svgShape"/><path fill="#dd966c" d="M1779.5125,746.5719c-16.1852,3.5418-29.8908,5.746-41.5549,10.9441a55.73149,55.73149,0,0,0-15.8519,10.302c-5.2857,4.2382-9.2305,10.1819-14.8987,16.6163-1.3457-8.1465-.4085-17.0797,4.085-24.7973a40.53986,40.53986,0,0,1,19.6608-17.8735,50.86124,50.86124,0,0,1,25.4212-3.8491C1764.6947,738.9087,1772.7783,741.3455,1779.5125,746.5719Z" class="colordd8f6c svgShape"/><path d="M1751.9878,855.8651c-2.9701,11.6648-3.8098,20.4317-4.4247,17.1363-5.8879,3.3394,7.4829,6.8413.7164,9.2579.3953,2.5045-16.6355-25.8667-16.1962-22.7472-8.9635-.044-18.6301-2.153-29.0436-6.6785-84.9342-37.0845-22.4968-139.4186-22.4968-139.4186s64.6781-96.1825,105.146-23.068C1817.281,747.336,1800.9796,836.7957,1751.9878,855.8651Z" style="mix-blend-mode:soft-light" opacity=".5" fill="#000000" class="color000 svgShape"/><path fill="#fbb890" d="M1732.0548,859.5355c-.5466,26.9578-11.111,56.1016-41.3474,82.8163h-.0607c-12.8717,11.4146-29.3258,22.3434-50.1513,32.4832h-.1212c-23.74,11.5965-53.187,22.1002-89.313,30.9648a651.56286,651.56286,0,0,1-313.4146,0c-11.9612-2.975-23.1934-6.0715-33.6971-9.4108-50.3336-15.604-84.6378-34.7904-107.4062-55.4335-26.0473-23.497-36.976-48.8153-39.4048-72.9805-.2427-2.8534-.4247-5.6465-.4855-8.4395-.0607-2.6715-.0607-5.2823.0608-7.893.0604-.5462.0604-1.0928.1212-1.6391a134.54273,134.54273,0,0,1,2.0037-15.8471c4.1894-21.7967,13.4787-40.8615,21.4329-54.2191,1.1532-1.8214,2.2464-3.582,3.2785-5.1607a60.798,60.798,0,0,0,9.3501-26.897c.1215-1.5787.2431-3.1573.2431-4.7968,0-1.0928,0-2.0641-.0608-3.1569-.4858-9.836-.9717-27.4437-1.3967-46.8728-.3643-14.2072-.6678-29.3862-.9105-43.2295-.3035-16.0899-.5466-30.3579-.6678-39.3437,0,0,17.1823-31.1472,52.1546-74.1341,3.4608-4.2502,7.0432-8.5,10.8076-12.9932.3642-.3643.6677-.7286.9713-1.0929,3.5216-4.1286,7.2859-8.3788,11.111-12.6894a731.83581,731.83581,0,0,1,129.9923-114.5097,648.4648,648.4648,0,0,1,131.7532-69.8231l.1215.1211c5.525,4.0075,11.6574,8.5004,18.3359,13.4791,12.3863,9.4717,26.5936,20.7647,42.0156,34.0615A949.09646,949.09646,0,0,1,1592.1659,477.998c36.1864,42.3795,72.2515,92.4092,103.156,149.9072a29.97853,29.97853,0,0,1,3.8251,15.5432v4.7356c-.3039,12.9325-.7893,28.658-1.3967,44.1405-.5462,14.0861-1.214,27.9898-1.7606,39.526-.1823,2.8534-.3035,5.5249-.3643,8.0753a59.92563,59.92563,0,0,0,9.5932,34.8507c1.0321,1.5787,2.0641,3.3393,3.2177,5.1607C1719.3651,798.2735,1732.7834,827.3562,1732.0548,859.5355Z" class="colorf5be9b svgShape"/><path d="M1732.0548,859.5355c-.5466,26.9578-11.111,56.1016-41.3474,82.8163h-.0607c-12.8717,11.4146-29.3258,22.3434-50.1513,32.4832h-.1212c-23.74,11.5965-53.187,22.1002-89.313,30.9648a651.56286,651.56286,0,0,1-313.4146,0c-11.9612-2.975-23.1934-6.0715-33.6971-9.4108,349.1155,48.6333,459.8001-163.8113,434.7245-328.5328-25.7434-168.79-206.0084-337.2758-211.655-342.4977,5.525,4.0075,11.6574,8.5004,18.3359,13.4791,12.3863,9.4717,26.5936,20.7647,42.0156,34.0615A949.09646,949.09646,0,0,1,1592.1659,477.998c36.1864,42.3795,72.2515,92.4092,103.156,149.9072a29.97853,29.97853,0,0,1,3.8251,15.5432v4.7356c-.3039,12.9325-.7893,28.658-1.3967,44.1405-.5462,14.0861-1.214,27.9898-1.7606,39.526-.1823,2.8534-.3035,5.5249-.3643,8.0753a59.92563,59.92563,0,0,0,9.5932,34.8507c1.0321,1.5787,2.0641,3.3393,3.2177,5.1607C1719.3651,798.2735,1732.7834,827.3562,1732.0548,859.5355Z" style="mix-blend-mode:soft-light" opacity=".5" fill="#000000" class="color000 svgShape"/><path fill="#ffffff" d="M1411.9736 192.1136s-228.5958-39.8904-402.7737 210.6105C1094.8189 190.989 1273.0917 155.1875 1411.9736 192.1136zM1404.4573 313.5771s-278.1479 60.2989-362.4975 336.6198C1058.8297 460.6287 1236.0232 344.0374 1404.4573 313.5771z" class="colorfff svgShape"/><path fill="#ffffff" d="M1167.9219 313.5771s-135.5062 83.225-166.161 240.6777C994.724 423.794 1122.4583 335.3798 1167.9219 313.5771zM1470.0459 280.2804s169.624 84.6753 205.7158 299.3054C1679.1814 437.8326 1551.1072 303.4175 1470.0459 280.2804zM1525.3648 199.1729s218.9005-10.1502 242.2898 294.3878C1773.3663 346.7924 1702.0972 192.5266 1525.3648 199.1729z" class="colorfff svgShape"/><path fill="#ffffff" d="M1444.4413,234.1266s138.0599-34.8777,216.0784,71.5876C1602.552,218.8451,1522.2879,212.7197,1444.4413,234.1266Z" class="colorfff svgShape"/><path fill="#fad1b9" d="M1096.5433 940.9555c-26.0473-23.497-36.976-48.8153-39.4048-72.9805-.2427-2.8534-.4247-5.6465-.4855-8.4395-.0607-2.6715-.0607-5.2823.0608-7.893.0604-.5462.0604-1.0928.1212-1.6391a134.54273 134.54273 0 012.0037-15.8471c4.1894-21.7967 13.4787-40.8615 21.4329-54.2191 1.1532-1.8214 2.2464-3.582 3.2785-5.1607a60.798 60.798 0 009.3501-26.897C1149.123 807.9271 1228.6605 916.4869 1096.5433 940.9555zM1310.0197 575.7502c-20.522 72.0695-140.0105 78.3234-219.2444 74.0733-.3035-16.0899-.5466-30.3579-.6678-39.3437 0 0 17.1823-31.1472 52.1546-74.1341 3.4608-4.2502 7.0432-8.5 10.8076-12.9932.3642-.3643.6677-.7286.9713-1.0929 3.5216-4.1286 7.2859-8.3788 11.111-12.6894a731.83581 731.83581 0 01129.9923-114.5097C1311.7803 440.4757 1328.5987 510.1773 1310.0197 575.7502z" class="colorfad9b9 svgShape"/><ellipse cx="1162.434" cy="705.491" fill="#333333" rx="25.117" ry="42.581" class="color333 svgShape"/><ellipse cx="1167.636" cy="692.292" fill="#ffffff" rx="8.294" ry="13.199" class="colorfff svgShape"/><path fill="#ffffff" d="M1162.4345,713.3944c0,3.5715-2.0771,6.4668-4.6393,6.4668s-4.6392-2.8953-4.6392-6.4668,2.0771-6.4668,4.6392-6.4668S1162.4345,709.8229,1162.4345,713.3944Z" class="colorfff svgShape"/><path fill="#333333" d="M1135.1484,570.3904c6.0138,1.3626,10.815,2.5323,15.6056,4.05a116.66959,116.66959,0,0,1,13.5718,5.3645,88.22707,88.22707,0,0,1,12.8626,7.4699,55.71339,55.71339,0,0,1,12.2536,11.2722,39.98817,39.98817,0,0,1-17.021,1.4217,50.82818,50.82818,0,0,1-15.5532-4.6212,46.59137,46.59137,0,0,1-13.4504-9.5592C1139.6186,581.6815,1135.9663,576.7595,1135.1484,570.3904Z" class="color333 svgShape"/><ellipse cx="1462.42" cy="675.891" rx="54.546" ry="89.022" style="mix-blend-mode:soft-light" opacity=".5" fill="#000000" class="color000 svgShape"/><ellipse cx="1157.795" cy="675.891" rx="54.546" ry="89.022" style="mix-blend-mode:soft-light" opacity=".5" fill="#000000" class="color000 svgShape"/><ellipse cx="1462.42" cy="705.491" fill="#333333" rx="25.117" ry="42.581" class="color333 svgShape"/><ellipse cx="1467.621" cy="692.292" fill="#ffffff" rx="8.294" ry="13.199" class="colorfff svgShape"/><path fill="#ffffff" d="M1462.4199,713.3944c0,3.5715-2.0771,6.4668-4.6393,6.4668s-4.6392-2.8953-4.6392-6.4668,2.0771-6.4668,4.6392-6.4668S1462.4199,709.8229,1462.4199,713.3944Z" class="colorfff svgShape"/><path fill="#333333" d="M1516.966,567.8117c-6.3943,6.7223-13.6254,11.7043-21.0463,16.2418a156.22859,156.22859,0,0,1-23.2858,11.2831,149.61328,149.61328,0,0,1-24.8925,7.2467c-8.5882,1.5645-17.3812,2.5853-26.6074,1.6213a130.25285,130.25285,0,0,1,22.0992-14.4093,206.02326,206.02326,0,0,1,23.2012-10.545,202.48834,202.48834,0,0,1,24.3524-7.6968C1499.1757,569.5923,1507.7028,567.9474,1516.966,567.8117Z" class="color333 svgShape"/><path fill="#fad1b9" d="M1264.6449,795.4046s36.9189,13.9682,60.4127,0C1313.9681,820.5185,1281.1144,820.9006,1264.6449,795.4046Z" class="colorfad9b9 svgShape"/><path fill="#dd966c" d="M1326.2506,793.0148a33.82665,33.82665,0,0,1-9.6301,19.7028,30.08886,30.08886,0,0,1-43.5491.0132,33.72325,33.72325,0,0,1-9.6194-19.716,84.99712,84.99712,0,0,0,15.277,12.754,29.60206,29.60206,0,0,0,32.2554.0132A84.15322,84.15322,0,0,0,1326.2506,793.0148Z" class="colordd8f6c svgShape"/><path fill="#333333" d="M1713.7608,1096.4311c-17.5756,18.5864-35.7224,27.9454-54.1769,27.9454a55.74828,55.74828,0,0,1-7.6013-.5273c-80.2327-11.1167-92.3599-206.5572-93.8976-290.0413l20.2558-.1319c3.8666,212.1815,51.145,275.1899,78.5189,279.0565,10.5455,1.3621,24.6497-6.4589,39.0619-21.7058,54.6161-57.8676,43.4117-181.468,36.1617-231.5146a53.62169,53.62169,0,0,0,19.9045-3.647C1759.5891,905.0328,1772.6829,1034.0379,1713.7608,1096.4311Z" class="color333 svgShape"/><path fill="#ffffff" d="M1707.2871,417.3535s40.2491,85.4796,37.2049,206.0647C1767.7758,533.1315,1707.2871,417.3535,1707.2871,417.3535Z" class="colorfff svgShape"/><g style="mix-blend-mode:soft-light" opacity=".5"><path d="M1487.0354 511.6032c-54.0449 0-102.2458 27.2862-133.179 69.6872 0 .044 0 .088-.044.088a185.38871 185.38871 0 00-31.8995 72.8949c-.9228 4.4376-1.6697 9.0074-2.2409 13.577q-.264 1.8456-.3956 3.6909c-.5273 4.4816-.8349 9.0075-1.0105 13.577-.088 2.3729-.132 4.7455-.132 7.1621a189.36178 189.36178 0 0021.003 87.2191c28.824 55.7146 84.3189 93.502 147.8985 93.502 59.6692 0 112.2204-33.2618 142.2745-83.3961v-.044c.3516-.5712.7032-1.1424 1.0108-1.7137a189.02742 189.02742 0 0025.6162-95.5673C1655.9369 592.6707 1580.1861 511.6032 1487.0354 511.6032zm127.7307 268.6871c0 .0439-.044.0876-.0877.1316-2.0653 3.4274-4.1742 6.7228-6.4592 9.9743-27.6815 39.6767-71.7084 65.3372-121.1838 65.3372-52.9904 0-99.6976-29.4392-126.8078-73.9494a173.47465 173.47465 0 017.8649-190.783c27.8135-37.8314 70.786-62.1738 118.9429-62.1738 83.6161 0 151.6335 73.3342 151.6335 163.4531A171.97744 171.97744 0 011614.7661 780.2903zM1265.5391 685.1182c-.2197-5.8436-.7032-11.5999-1.4061-17.2679-5.4044-42.6209-24.7816-80.584-52.9904-108.3975a167.56069 167.56069 0 00-57.1207-37.1724 158.48238 158.48238 0 00-44.1586-10.1499c-4.3062-.3516-8.7001-.5273-13.094-.5273-2.9439 0-5.8437.088-8.7438.2197a158.25548 158.25548 0 00-52.2433 11.9955c-2.197.8785-4.3502 1.8453-6.4592 2.8559a166.58615 166.58615 0 00-40.7752 27.0225 177.73146 177.73146 0 00-24.9576 27.5936c0 .044 0 .088-.0437.088a189.17778 189.17778 0 00-26.627 97.3249c0 57.0767 24.8693 108.0898 63.6235 141.2637a82.15806 82.15806 0 0018.2785 24.6497 57.9105 57.9105 0 0011.3364 8.1729 53.71208 53.71208 0 0026.4953 6.7225c.0437 2.8122.2197 5.6243.4833 8.4802a159.01193 159.01193 0 00114.8566-13.9286c27.4179-14.6317 50.5735-36.9965 67.0506-64.4584v-.044a179.33553 179.33553 0 0011.0288-21.4422 190.1195 190.1195 0 0015.5983-75.8388C1265.6708 689.8637 1265.6271 687.4911 1265.5391 685.1182zm-33.2179 80.4523c-2.3289 5.0091-4.9211 9.8423-7.6893 14.5438-.044.088-.088.132-.088.176a157.977 157.977 0 01-57.8236 56.9887 142.31 142.31 0 01-69.951 18.4544 142.01948 142.01948 0 01-39.9404-5.756 147.12534 147.12534 0 01-26.4074-10.7211c-3.2514-1.7137-6.4589-3.559-9.5787-5.5803a151.877 151.877 0 01-21.5742-16.3012c-33.0859-30.0104-54.1326-74.9599-54.1326-125.0945A170.87665 170.87665 0 01977.8267 591.001a161.095 161.095 0 0114.8074-17.3999c22.8043-23.2876 52.2432-39.0179 84.8901-43.4555h.0438a138.62127 138.62127 0 0119.2013-1.3184h1.6697a141.53257 141.53257 0 0143.8513 7.5137 150.119 150.119 0 0159.5812 38.183c28.6921 29.7468 46.5753 71.5325 46.5753 117.7564A172.64668 172.64668 0 011232.3212 765.5705z" fill="#000000" class="color000 svgShape"/><rect width="70.397" height="17.245" x="1257.05" y="667.861" fill="#000000" class="color000 svgShape"/></g><path fill="#333333" d="M1496.0431 498.0262c-59.6252 0-112.0884 33.2179-142.1867 83.2642 0 .044 0 .088-.044.088a187.81552 187.81552 0 00-25.089 72.8949c-.6152 4.7452-1.0108 9.5346-1.2744 14.4118-.0437.9228-.0877 1.8894-.1317 2.8561-.088 2.3727-.1319 4.7453-.1319 7.1621 0 2.153.0439 4.306.1319 6.4149a187.68365 187.68365 0 0029.9224 96.3582c30.4937 47.0588 81.3312 77.948 138.8034 77.948 54.0889 0 102.3338-27.3742 133.2668-69.8191v-.044a16.23441 16.23441 0 001.2744-1.7577 187.81705 187.81705 0 0034.3601-109.1003C1664.9444 579.0934 1589.1936 498.0262 1496.0431 498.0262zm118.6353 282.3957c-2.5485 3.5151-5.2727 6.8545-8.0849 10.1059-27.7255 31.7681-67.0509 51.6284-110.5504 51.6284-46.5315 0-88.1856-22.6724-116.043-58.3509-22.1891-28.4286-35.5905-65.1176-35.5905-105.102a172.11018 172.11018 0 0123.6829-87.7023c26.9786-45.5207 74.257-75.7508 127.9506-75.7508 83.6158 0 151.6772 73.3342 151.6772 163.4531 0 38.3587-12.3028 73.6855-32.9542 101.587C1614.7661 780.3342 1614.7221 780.3779 1614.6784 780.4219zM1274.5465 671.5412c-.044-1.2304-.0879-2.4605-.1756-3.6909-.2637-4.5696-.6592-9.0954-1.2305-13.577-5.4044-42.5332-24.6936-80.4086-52.8144-108.1781a166.44975 166.44975 0 00-55.1437-36.5133 157.44722 157.44722 0 00-45.3451-10.9407c-4.6135-.3953-9.315-.615-14.0165-.615-2.9878 0-5.9756.0877-8.9635.2197a157.5819 157.5819 0 00-52.8584 12.3468h-.044c-3.603 1.4938-7.0741 3.1195-10.5015 4.8772h-.044a170.279 170.279 0 00-45.6527 34.1406 182.34974 182.34974 0 00-24.1664 31.6799c0 .044 0 .088-.0437.088a189.17778 189.17778 0 00-26.627 97.3249c0 57.0767 24.8693 108.0898 63.6235 141.2637a180.2373 180.2373 0 0018.4105 13.709h.044c3.6907 2.3728 7.5134 4.6135 11.38 6.6788a160.879 160.879 0 0026.3634 11.2923 152.09419 152.09419 0 0018.85 4.8772 159.54988 159.54988 0 0030.2298 2.9001 157.2789 157.2789 0 0063.4919-13.3136c27.6815-11.9953 51.6723-31.6801 69.7311-56.5055v-.044a174.62519 174.62519 0 0013.3137-21.1346 188.68089 188.68089 0 0022.1891-83.3085c.088-2.1089.132-4.2619.132-6.4149C1274.6785 676.2865 1274.6345 673.9139 1274.5465 671.5412zm-49.9146 108.5731c-.044.088-.088.132-.088.176a154.03533 154.03533 0 01-59.8888 49.0357 141.31651 141.31651 0 01-58.8344 12.8302h-1.6694a141.46088 141.46088 0 01-45.3011-7.9967c-27.6818-9.7546-51.8922-27.8574-70.0388-51.5406-21.6622-28.2528-34.6679-64.4584-34.6679-103.9156a172.10645 172.10645 0 0123.6832-87.7023 167.77733 167.77733 0 0114.1922-20.1681v-.0437a155.90307 155.90307 0 0132.5147-30.0104q1.3182-.9228 2.6365-1.8454h.0439a143.64109 143.64109 0 0157.8236-22.1454 141.12059 141.12059 0 0120.7831-1.5378h1.8016a141.2077 141.2077 0 0145.4768 8.1286 150.49848 150.49848 0 0157.3406 37.1285c26.6707 27.4179 44.1146 65.2493 46.6632 107.343.2196 3.603.3513 7.206.3513 10.853 0 2.153-.044 4.306-.1317 6.4149a171.605 171.605 0 01-23.2439 80.716A157.32386 157.32386 0 011224.6319 780.1143z" class="color333 svgShape"/><rect width="70.394" height="17.245" x="1266.074" y="654.287" fill="#333333" class="color333 svgShape"/><path fill="#dd966c" d="M1254.7561,899.7708a429.94764,429.94764,0,0,1,65.7961-1.1168c22.4508.775,44.2155,7.7233,64.8249,13.6864a143.328,143.328,0,0,0,61.8519,4.1829,153.76709,153.76709,0,0,0,30.6534-7.971c10.1656-3.8752,20.3391-7.807,30.8279-11.2259-9.1586,6.0146-18.6281,11.5247-28.1136,17.0745a127.70555,127.70555,0,0,1-31.3838,12.1762,131.21087,131.21087,0,0,1-67.5206-1.6407c-10.5676-3.3158-20.7361-6.4656-31.1206-9.3786a211.45981,211.45981,0,0,0-31.1147-6.754C1298.1253,905.6076,1276.4351,903.1623,1254.7561,899.7708Z" class="colordd8f6c svgShape"/><path fill="#dd966c" d="M1477.4765,884.6661a31.0723,31.0723,0,0,1,14.5024-1.6903,38.97692,38.97692,0,0,1,13.8652,3.9413,28.796,28.796,0,0,1,11.6282,10.0864c3.0742,4.4108,4.2727,11.0381,1.2685,15.4981-2.7281-4.5886-5.7053-6.5455-8.773-8.52-3.1804-1.8179-6.4393-3.5801-10.0415-5.3455-3.56-1.7901-7.2443-3.6439-10.9792-5.9125A67.176,67.176,0,0,1,1477.4765,884.6661Z" class="colordd8f6c svgShape"/><path fill="#fbb890" d="M1411.2313,1479.6666s25.9198,25.9334,48.654,26.1626,115.1867-32.3564,128.8272-44.4813-15.1562-83.3588-36.3747-94.7259S1411.2313,1479.6666,1411.2313,1479.6666Z" class="colorf5be9b svgShape"/><path d="M1411.2313,1479.6666s25.9198,25.9334,48.654,26.1626,115.1867-32.3564,128.8272-44.4813-15.1562-83.3588-36.3747-94.7259S1411.2313,1479.6666,1411.2313,1479.6666Z" style="mix-blend-mode:soft-light" opacity=".5" fill="#000000" class="color000 svgShape"/><path fill="#fbb890" d="M897.8295,1199.6411s3.5523,55.5833,79.333,58.1094c57.0881-14.651-7.0729-58.1094-7.0729-58.1094Z" class="colorf5be9b svgShape"/><path d="M897.8295,1199.6411s3.5523,55.5833,79.333,58.1094c57.0881-14.651-7.0729-58.1094-7.0729-58.1094Z" style="mix-blend-mode:soft-light" opacity=".5" fill="#000000" class="color000 svgShape"/><path fill="#fbb890" d="M1566.7294,1380.2925c-142.9999,94.9718-195.9855,126.5-218.2179,125.4929-22.2328-1.0071-199.5491-90.9435-312.2601-205.5911-48.9577-12.162-59.8805-27.1902-62.1268-46.0916-2.2468-18.9789-10.6126-31.4506-10.6126-31.4506s-42.1408-4.5702-55.8522-8.1337c-13.6339-3.486-14.8731-28.507,7.1266-39.5844-4.5702-28.8171,6.2746-38.19,17.8943-43.2254-5.0349-24.2465,5.3451-32.6128,34.3943-34.0846h.5424c29.2043-1.4719,90.4787,3.5635,101.479,13.6338,11.1549,10.0703,37.4151,70.183,36.8732,107.5986,78.859-8.5985,186.9219-12.6268,245.5627,58.5633l110.2326-54.3029S1555.3419,1252.4758,1566.7294,1380.2925Z" class="colorf5be9b svgShape"/><path fill="#dd966c" d="M914.7697 1174.8972c14.5924-1.8657 28.9908-1.3707 43.3436-.3216 14.333 1.2913 28.6188 3.1546 42.7094 7.3943-14.5938 1.8817-28.9922 1.3877-43.3436.3215C943.1477 1180.9827 928.8616 1179.1203 914.7697 1174.8972zM932.7045 1131.702c13.9397-2.0789 27.7127-1.7948 41.4466-.9565 13.7167 1.0813 27.3931 2.7342 40.9017 6.7663-13.9409 2.095-27.7138 1.8118-41.4465.9565C959.8907 1137.37 946.2142 1135.7175 932.7045 1131.702zM1351.519 1277.4532c-10.2088 11.3857-22.048 20.6938-34.3412 29.332-12.4342 8.4013-25.4415 16.2064-39.9238 21.1889 11.3144-10.2472 23.2785-19.0163 35.5344-27.5661C1325.1503 1292.0388 1337.6802 1283.9245 1351.519 1277.4532z" class="colordd8f6c svgShape"/><path d="M1566.7294 1380.2925c-141.4506-60.4223-286.9295-1.3168-398.1686-55.8517-111.3167-54.5355-121.1549-208.1476-205.0488-101.7887 39.2746-73.0492 25.5632-108.218 4.1054-125.0281 29.2043-1.4719 90.4787 3.5635 101.479 13.6338 11.1549 10.0703 37.4151 70.183 36.8732 107.5986 78.859-8.5985 186.9219-12.6268 245.5627 58.5633l110.2326-54.3029S1555.3419 1252.4758 1566.7294 1380.2925zM1264.5941 170.745s108.1657-65.3554 214.4647 21.5271c-16.7013-29.9529-43.3294-40.6674-43.3294-40.6674s32.362 6.0409 56.3352 31.757c-17.4908-64.0518-88.2643-101.8426-149.924-69.9413 51.0126-6.9959 90.7175 22.4009 90.7175 22.4009S1344.2214 101.1917 1264.5941 170.745zM1499.1285 174.3101s35.4407-129.8265 244.1989 87.6615c-96.2938-89.7375-152.2346-117.4436-200.3861-89.368 82.9452-10.8936 122.0902 38.6172 150.9951 61.7952-84.3524-46.805-138.6026-58.2752-184.0367-23.1255 19.2904-45.7267 30.5907-50.7698 56.1859-58.8804C1527.6073 151.7047 1506.9221 160.739 1499.1285 174.3101z" style="mix-blend-mode:soft-light" opacity=".5" fill="#000000" class="color000 svgShape"/><path d="M1428.5539,89.9577s55.3249,30.9448,62.9399,76.1733c12.5423-44.2297,44.8264-53.2474,75.3081-46.8841-52.2693-30.6022-70.9026,9.1129-70.9026,9.1129S1476.1686,96.1295,1428.5539,89.9577Z" style="mix-blend-mode:soft-light" opacity=".5" fill="#000000" class="color000 svgShape"/></g></svg>