<svg xmlns="http://www.w3.org/2000/svg" viewBox="0 0 2800 1900"><g data-name="Layer 1"><ellipse cx="1400" cy="1685.146" fill="#fb600a" rx="808.977" ry="144.371" class="colorc1c1bf svgShape"/><path d="M1694.9627,779.5446c-10.3941,14.7286-508.8632,233.6659-508.8632,233.6659s-113.3608,0-162.6771-17.2938c-6.9441-29.3686-6.8113-80.6752-3.4498-135.5642,57.4987,52.2353,130.92,62.0984,189.7897,61.3909,99.2073-1.15,313.2794-225.5717,313.2794-225.5717l-37.507-106.7264s37.8166,21.938,78.6849,16.94c0,.0443.0443.0443.0443.0883,12.1189,2.6097,77.4463,8.6691,77.4463,8.6691S1705.3123,764.8603,1694.9627,779.5446Z" style="mix-blend-mode:soft-light" opacity=".3" fill="#000000" class="color000 svgShape"/><ellipse cx="1167.622" cy="1132.912" fill="#fbb890" rx="79.59" ry="81.921" class="colorddc2ba svgShape"/><ellipse cx="1167.622" cy="1132.912" rx="79.59" ry="81.921" style="mix-blend-mode:soft-light" opacity=".5" fill="#000000" class="color000 svgShape"/><polygon fill="#aa814e" points="1039.428 1072.048 1048.947 1175.891 1104.763 1179.785 1098.705 1084.163 1039.428 1072.048" class="coloraa794e svgShape"/><polygon points="1039.428 1072.048 1048.947 1175.891 1104.763 1179.785 1098.705 1084.163 1039.428 1072.048" style="mix-blend-mode:soft-light" opacity=".5" fill="#000000" class="color000 svgShape"/><path fill="#ffa30f" d="M914.8739,455.7008l7.0236-26.5346c176.239-138.6703,351.7831-209.0835,525.8851-137.8326l76.8549,245.9187-484.5097,303.551Z" class="colore09612 svgShape"/><path fill="#aa814e" d="M1108.2107,1226.0882c0,.6636-2.8747,30.5187-7.1209,74.306-12.0746,124.1086-35.251,360.1185-35.251,360.1185h-64.9292l45.0258-445.6587S1108.2107,1223.4786,1108.2107,1226.0882Z" class="coloraa794e svgShape"/><path d="M1108.2107,1226.0882c0,.6636-2.8747,30.5187-7.1209,74.306-15.8783-2.5212-32.1108-4.7769-32.1108-4.7769l-36.8432,364.8954h-31.2262l45.0258-445.6587S1108.2107,1223.4786,1108.2107,1226.0882Z" style="mix-blend-mode:soft-light" opacity=".5" fill="#000000" class="color000 svgShape"/><path fill="#aa814e" d="M1330.6423,1226.0882c0,1.0172-6.5462,68.158-14.5075,149.4083-12.2514,125.6566-27.9089,285.0162-27.9089,285.0162h-64.9293l45.0259-445.6587S1330.6423,1223.4786,1330.6423,1226.0882Z" class="coloraa794e svgShape"/><path d="M1330.6423,1226.0882c0,1.0172-6.5462,68.158-14.5075,149.4083-16.3208-2.654-33.6145-5.0423-33.6145-5.0423l-29.2801,290.0585h-29.9436l45.0259-445.6587S1330.6423,1223.4786,1330.6423,1226.0882Z" style="mix-blend-mode:soft-light" opacity=".5" fill="#000000" class="color000 svgShape"/><path fill="#aa814e" d="M1598.9398,1614.5139l-31.8012,1.9461-32.9512,1.9904s-41.4872-259.1422-59.9755-375.5549c17.6919-3.2287,34.9859-6.8998,47.6355-10.7478,4.3344-1.3268,9.1113-2.6537,14.1979-3.9365l26.0953,160.3328Z" class="coloraa794e svgShape"/><path d="M1567.1386,1616.46l-32.9512,1.9904s-41.4872-259.1422-59.9755-375.5549c17.6919-3.2287,34.9859-6.8998,47.6355-10.7478,4.3344-1.3268,9.1113-2.6537,14.1979-3.9365l26.0953,160.3328c-15.0822,3.3615-29.9433,7.0327-29.9433,8.3152C1532.2856,1398.1421,1549.8006,1508.0086,1567.1386,1616.46Z" style="mix-blend-mode:soft-light" opacity=".5" fill="#000000" class="color000 svgShape"/><path fill="#aa814e" d="M1017.7159,1176.0006v40.1223a12.04291,12.04291,0,0,0,10.7639,11.9747l235.1687,25.119a12.04283,12.04283,0,0,0,13.3219-11.9747v-45.6171a12.04287,12.04287,0,0,0-11.0414-12.0011l-235.1687-19.6243A12.043,12.043,0,0,0,1017.7159,1176.0006Z" class="coloraa794e svgShape"/><path d="M1276.9916 1195.6139v45.6451a12.04623 12.04623 0 01-13.3575 11.9421l-127.6027-13.6228-2.6979-48.9624-115.6167-9.996v-4.5998a12.0512 12.0512 0 0113.0479-12.0303l235.1695 19.638A12.07228 12.07228 0 011276.9916 1195.6139zM1442.2339 1254.6608c-2.3441 6.2362-22.1149 32.3762-43.2566 59.3562-1.725-36.3127-2.3886-59.3562-2.3886-59.3562s18.9748-2.3001 43.2569-6.0155C1441.836 1251.3875 1442.6763 1253.4665 1442.2339 1254.6608z" style="mix-blend-mode:soft-light" opacity=".5" fill="#000000" class="color000 svgShape"/><polygon fill="#ffb53f" points="880.597 482.57 1029.821 895.673 1032.373 750.779 921.898 429.166 880.597 482.57" class="colorffbf3f svgShape"/><path fill="#db8f62" d="M1820.3982,1711.7751c1.1057,10.7921-37.1971,16.2322-61.6563,8.6691-24.4149-7.6076-45.8662-41.5761-66.8311-51.3067s-74.2176-8.4034-78.9942-25.5203c-4.7769-17.0729-1.5039-51.4393-1.5039-51.4393l.8846-42.6818s77.6674-16.1879,82.8422,17.338c1.7693,11.2345,5.0423,19.5938,9.9517,26.5379,9.7749,13.7996,25.8746,22.1148,48.9181,36.6223,32.1994,20.3456,61.037,64.2657,65.7696,78.9943A19.33677,19.33677,0,0,1,1820.3982,1711.7751Z" class="colordb9a62 svgShape"/><path d="M1820.3982,1711.7751c1.1057,10.7921-37.1971,16.2322-61.6563,8.6691-24.4149-7.6076-45.8662-41.5761-66.8311-51.3067s-74.2176-8.4034-78.9942-25.5203c-4.7769-17.0729-1.5039-51.4393-1.5039-51.4393l.8846-42.6818s77.6674-16.1879,82.8422,17.338c1.7693,11.2345,5.0423,19.5938,9.9517,26.5379-13.6668,17.2054-18.1341,43.8318,28.7936,77.4906,39.9836,28.6608,67.6715,37.1971,85.8941,38.126A19.33677,19.33677,0,0,1,1820.3982,1711.7751Z" style="mix-blend-mode:soft-light" opacity=".5" fill="#000000" class="color000 svgShape"/><path fill="#fbb890" d="M1761.8823,1232.1477l-7.4305,39.9836c-7.7845,41.6646-23.6188,126.8511-56.0393,300.9836a200.59157,200.59157,0,0,0-41.4875,4.5556c-28.2626,5.9269-47.9449,15.6132-47.9449,15.6132l-64.0446-282.6725,54.2254-76.1635Z" class="colorddc2ba svgShape"/><path d="M1754.4518,1272.1313c-43.9201,46.7951-126.7184,157.812-97.5268,305.5392-28.2626,5.9269-47.9449,15.6132-47.9449,15.6132l-64.0446-282.6725,54.2254-76.1635,162.7214-2.3Z" style="mix-blend-mode:soft-light" opacity=".5" fill="#000000" class="color000 svgShape"/><path fill="#ffb53f" d="M1025.1493,972.5307s-22.4995-3.4614-30.7204,6.0576-14.2785,54.0853-7.7883,81.3442,173.0729,53.0985,233.6484,49.6978,0-140.9937,0-140.9937Z" class="colorffbf3f svgShape"/><path d="M1220.289,1109.6313c-41.9297,2.3443-134.5911-9.2882-189.8782-25.7418,58.8255-9.5978,58.6487-48.166-3.5384-66.3446-17.3382-5.0863-30.5186-9.8632-40.5588-14.2861,1.9021-11.5439,4.8211-20.8763,8.0941-24.6803,8.2267-9.5092,30.7397-6.0595,30.7397-6.0595l195.1416-3.8922S1280.8838,1106.2257,1220.289,1109.6313Z" style="mix-blend-mode:soft-light" opacity=".5" fill="#000000" class="color000 svgShape"/><path fill="#8c6534" d="M1694.9627,779.5446c-7.873,11.146-294.7914,139.0141-434.2476,200.7589-44.9819,19.9034-74.6156,32.907-74.6156,32.907s-113.3608,0-162.6771-17.2938c-6.9441-29.3686-6.8113-80.6752-3.4498-135.5642,2.1672-35.4281,5.7498-72.3598,9.5978-105.8418,2.4326-20.6552,4.9537-40.0279,7.342-56.8794,4.9097-34.4108,9.3327-58.4718,11.1903-62.143,6.4576-13.0033,137.9968-89.5652,137.9968-89.5652s176.9633-24.68,208.1452-35.5164c18.3109-6.3691,47.2816-20.213,69.4848-29.0147,15.5689-6.1922,27.8649-9.9074,30.8725-6.8998,7.342,7.3863,34.5877,84.3019,69.6176,131.8931,0,.0443.0443.0443.0443.0883.3979.0886.7961.1771,1.2825.2654h.0443c14.9054,2.7425,76.1195,8.4037,76.1195,8.4037s8.0496,18.9305,17.913,43.9644C1677.5804,704.4869,1701.6414,770.0797,1694.9627,779.5446Z" class="color8c5134 svgShape"/><path d="M1659.6232,659.1071c-3.0519,6.6788-6.1037,11.8978-8.4038,14.419-12.9593,14.2861-128.1777,22.6456-128.1777,22.6456l-15.4361-39.9396-17.4708-48.8738s33.3491,4.644,75.4116-.6193h.0443c14.9054,2.7425,76.1195,8.4037,76.1195,8.4037S1649.7598,634.0732,1659.6232,659.1071Z" style="mix-blend-mode:soft-light" opacity=".3" fill="#000000" class="color000 svgShape"/><path fill="#db8f62" d="M1247.9184,580.8697c-18.8026-28.3691-6.0568-69.9172,28.4688-92.8003s77.7568-18.4356,96.5594,9.9335c16.9772,25.6148,8.1687,61.9284-19.1029,85.5912l8.6459,70.1495L1321.104,601.797C1292.3345,610.5517,1262.6407,603.0823,1247.9184,580.8697Z" class="colordb9a62 svgShape"/><path fill="#604017" d="M1490.1388,603.3085c6.9722,13.4532,12.4399,27.4413,17.5555,41.5552,4.961,14.1685,9.5574,28.4671,12.6403,43.3044-6.9825-13.4495-12.4513-27.4376-17.556-41.5553C1497.8289,632.44,1493.2319,618.1419,1490.1388,603.3085Z" class="color602e17 svgShape"/><path d="M1036.9124,697.6313c4.9097-34.4108,9.3327-58.4718,11.1903-62.143,6.4576-13.0033,137.9968-89.5652,137.9968-89.5652s176.9633-24.68,208.1452-35.5164c18.3109-6.3691,47.2816-20.213,69.4848-29.0147C1441.0839,554.9018,1354.0397,725.9825,1036.9124,697.6313Z" style="mix-blend-mode:soft-light" opacity=".3" fill="#000000" class="color000 svgShape"/><path fill="#db8f62" d="M1388.1698,1352.4258l21.1942,75.1693s-36.3381,50.0201-59.9914,55.5007-38.3645-23.3648-57.1141-46.4412-82.2096-61.1524-94.9016-79.3251,36.0568-27.4032,87.6903-9.8075,73.5559,22.4995,87.1133,16.7304S1388.1698,1352.4258,1388.1698,1352.4258Z" class="colordb9a62 svgShape"/><path d="M1321.8406,1473.4209c-10.0845-9.5092-19.2401-24.0167-29.5897-36.7549-18.7534-23.0878-82.2232-61.1695-94.8728-79.3482-12.694-18.1783,36.047-27.3782,87.6633-9.7746,51.6604,17.5591,73.5541,22.4685,87.1327,16.7187,13.5343-5.7941,16.0111-11.8535,16.0111-11.8535l10.615,37.6838C1348.2457,1385.4039,1268.986,1389.4729,1321.8406,1473.4209Z" style="mix-blend-mode:soft-light" opacity=".5" fill="#000000" class="color000 svgShape"/><path fill="#5d564e" d="M1406.8943,1430.9162c-2.2114,2.919-5.8383,7.5191-10.3056,12.8267Z" class="color5d5b4e svgShape"/><polygon fill="#fbb890" points="1682.249 1263.293 1411.102 1430.02 1361.488 1360.791 1452.063 1254.64 1682.249 1263.293" class="colorddc2ba svgShape"/><polygon points="1682.249 1247.717 1411.102 1430.02 1361.488 1360.791 1452.063 1254.64 1682.249 1247.717" style="mix-blend-mode:soft-light" opacity=".5" fill="#000000" class="color000 svgShape"/><path fill="#efefef" d="M1978.2099,1085.6145s-160.3771,137.8641-306.6446,197.5742c-138.4394,23.3535-453.4435-6.0594-453.4435-6.0594l-22.513-290.7663-67.185-269.9783s296.5164-3.4501,385.9488-24.8128c110.7514-62.8949,355.9609-224.422,389.9736-237.6909-17.2937,103.2766-32.2877,315.5794-5.7498,455.1685C1925.1342,1048.6828,1978.2099,1085.6145,1978.2099,1085.6145Z" class="colorefefef svgShape"/><path d="M1671.5653,1283.1887c-138.4394,23.3535-453.4435-6.0594-453.4435-6.0594l-22.513-290.7663-67.185-269.9783s296.5164-3.4501,385.9488-24.8128C1514.3726,691.5719,1634.9429,1106.9333,1671.5653,1283.1887Z" style="mix-blend-mode:soft-light" opacity=".92" fill="#000000" class="color000 svgShape"/><path d="M1182.2849 769.1702c25.588-2.7846 51.2116-5.0858 76.8401-7.3141 25.6279-2.2379 51.285-4.0794 76.9259-6.1386 25.6668-1.7027 51.3202-3.5949 77.0005-5.1188l38.5264-2.1969c12.8542-.571 25.6971-1.2937 38.561-1.7313-12.791 1.4374-25.6025 2.5896-38.4027 3.8936l-38.4368 3.4281c-25.629 2.226-51.2845 4.0837-76.9264 6.131-25.6679 1.6908-51.3202 3.5993-77.0011 5.1107C1233.6915 766.7562 1208.0058 768.2049 1182.2849 769.1702zM1302.3424 1017.5299c21.1433-3.4183 42.3439-6.3542 63.5526-9.2177 21.2081-2.8737 42.4622-5.3526 63.6909-8.0482 21.2713-2.3395 42.5194-4.8692 63.8113-7.0315l31.9481-3.1552c10.6686-.8908 21.3189-1.9334 32.0032-2.6912-10.5666 1.7539-21.1666 3.2238-31.7482 4.8449l-31.8033 4.3803c-21.2093 2.8619-42.4623 5.3565-63.692 8.0401-21.2724 2.3287-42.519 4.8735-63.8125 7.024C1345.0007 1013.8361 1323.7001 1015.9234 1302.3424 1017.5299zM1237.529 1101.7008c30.7872-4.5754 61.6311-8.6694 92.4837-12.69l92.6221-11.5205 92.7425-10.5039 46.4147-4.8919c15.4903-1.4698 30.9628-3.0909 46.4693-4.4273-15.3882 2.3325-30.8099 4.3809-46.2138 6.5805l-46.2689 6.117-92.6231 11.5124-92.7436 10.4969C1299.4756 1095.6918 1268.5312 1098.9367 1237.529 1101.7008zM1241.2984 1153.6638c30.7872-4.5754 61.6311-8.6689 92.4837-12.69l92.6221-11.52 92.7425-10.5044 46.4147-4.8914c15.4903-1.4698 30.9628-3.0909 46.4693-4.4278-15.3882 2.333-30.8099 4.3814-46.2138 6.581l-46.2689 6.1165-92.6231 11.5129-92.7436 10.4964C1303.245 1147.6553 1272.3006 1150.9002 1241.2984 1153.6638zM1572.9252 712.9214c24.1241-15.4227 48.4961-30.429 72.9059-45.3721 24.4044-14.9523 49.0125-29.5627 73.5087-44.3605l74.0322-43.481 37.2019-21.4285c12.4831-7.0035 24.8884-14.1382 37.4407-21.0272-12.0391 7.7506-24.2246 15.2553-36.3317 22.8903l-36.5704 22.4889L1721.6 626.9847c-24.6859 14.4802-49.2594 29.1483-74.0365 43.4745C1622.7917 684.7941 1597.9827 699.0663 1572.9252 712.9214zM1612.0307 757.9204c13.5997-8.7267 27.4381-17.0315 41.3127-25.272 13.8498-8.2848 27.8703-16.2671 41.8913-24.2477 14.0728-7.8894 28.1506-15.7707 42.3958-23.3543l21.3761-11.3617c7.205-3.6463 14.3354-7.4249 21.6063-10.9544-6.7777 4.403-13.6964 8.5565-20.54 12.8429l-20.7695 12.4361c-13.8514 8.281-27.8708 16.2649-41.895 24.2407-14.0761 7.884-28.1522 15.7669-42.3996 23.3473C1640.7863 743.2214 1626.5276 750.7818 1612.0307 757.9204zM1656.8654 880.8019c8.1444-5.4877 16.521-10.5503 24.9327-15.5481 8.388-5.0421 16.9424-9.7795 25.4973-14.5158 8.6051-4.644 17.2145-9.2799 25.9882-13.6154l13.168-6.4897c4.4674-2.0214 8.8612-4.1762 13.3923-6.0798-4.0503 2.7841-8.2378 5.3165-12.3524 7.9828l-12.5766 7.5723c-8.3895 5.0394-16.9428 9.7784-25.5009 14.5094-8.6079 4.6385-17.2168 9.276-25.9921 13.6083C1674.6704 872.603 1665.8843 876.9153 1656.8654 880.8019z" opacity=".21" fill="#000000" class="color000 svgShape"/><path fill="#c3b5ad" d="M1420.2965,366.1885c16.6344-20.4226,28.4998-38.9071,36.5587-55.6206,28.6272-59.329,9.3712-96.1588-13.4896-117.1668a117.87249,117.87249,0,0,0-38.909-23.5742l-19.8792-13.7494-1.5066-1.0767S1324.1495,342.6609,1420.2965,366.1885Z" class="colorc3c0ad svgShape"/><path d="M1420.2965,366.1885c16.6344-20.4226,28.4998-38.9071,36.5587-55.6206-27.818-39.5557-22.2692-86.2847-13.4896-117.1668a117.87249,117.87249,0,0,0-38.909-23.5742l-19.8792-13.7494-1.5066-1.0767S1324.1495,342.6609,1420.2965,366.1885Z" style="mix-blend-mode:soft-light" opacity=".5" fill="#000000" class="color000 svgShape"/><path fill="#db8f62" d="M1422.739,335.5288s27.9289-46.0993,41.7928.3453-18.7773,72.5184-37.996,46.7212S1422.739,335.5288,1422.739,335.5288Z" class="colordb9a62 svgShape"/><path d="M1426.545,382.5907c12.2908,16.4917,30.0588,11.7745,37.5952-5.917-23.6395-25.1608-22.9994-46.3786-15.9659-61.5006-12.6256-.8452-25.4274,20.333-25.4274,20.333S1407.337,356.806,1426.545,382.5907Z" style="mix-blend-mode:soft-light" opacity=".5" fill="#000000" class="color000 svgShape"/><path fill="#c3b5ad" d="M1077.264,192.8191a288.40018,288.40018,0,0,1,24.344-38.9526,272.403,272.403,0,0,1,29.9342-34.6161c21.8105-21.1719,48.3038-38.9269,78.4482-45.6795,29.9894-6.8306,61.9407-2.0311,89.0498,11.4465,27.457,13.0217,51.398,32.1701,72.6034,53.5279-21.7132-20.8355-46.0874-39.3259-73.5195-51.5149-27.1248-12.6633-58.3453-16.4456-87.0938-9.1605-28.915,7.2201-54.0929,24.9741-74.8068,46.0823a265.23513,265.23513,0,0,0-28.3246,34.4237,281.25409,281.25409,0,0,0-22.6342,38.2164Z" class="colorc3c0ad svgShape"/><path fill="#c3b5ad" d="M1101.4794 180.376a210.61909 210.61909 0 0116.2936-25.1812 222.78116 222.78116 0 0119.3018-22.6942c13.873-14.1895 29.9964-26.4949 48.2508-34.5528a105.77215 105.77215 0 0158.2037-8.2773c19.5995 2.8557 37.9479 10.9893 54.3841 21.4837-16.824-9.8765-35.3669-17.2241-54.6552-19.2889a102.42146 102.42146 0 00-56.0814 10.0995c-17.2799 8.4223-32.371 20.8552-45.2711 35.0831a219.90479 219.90479 0 00-32.498 47.2504zM1142.3673 414.0554c.5102 6.3254-45.0917 129.8122-133.9568 18.3301-93.1791-164.9611 42.3909-213.5181 42.3909-213.5181l32.7126 3.7278z" class="colorc3c0ad svgShape"/><path d="M1008.393,432.385c65.1206,81.7187,107.0126,37.2051,124.5706,5.1269-5.8032-1.5288-12.0387-3.4663-18.7137-5.9007-138.4158-50.2474-88.1327-168.9643-63.7892-212.6392C1043.015,221.8357,917.9595,272.3033,1008.393,432.385Z" style="mix-blend-mode:soft-light" opacity=".5" fill="#000000" class="color000 svgShape"/><path fill="#db8f62" d="M1019.8332,514.7953c28.3273,6.8114,47.1532-8.9954,47.1532-8.9954s5.8119,9.3378,18.1949,21.4733c30.9351,30.341,102.9957,78.1754,228.1604,40.6116,80.6807-26.8311,119.3191-60.5213,135.5425-92.0927l.0403-.0477c20.8642-40.5984,4.6837-77.8095-6.9533-92.8007-10.3741-32.8871-18.6035-82.0989-24.5158-125.6848-3.7073-27.2566-6.4838-52.3256-8.252-69.8437a56.49393,56.49393,0,0,0-26.4408-42.2847,266.43441,266.43441,0,0,0-47.4093-23.3324,233.8192,233.8192,0,0,0-55.2629-13.4245c-64.5386-7.396-146.6879,12.2324-229.2843,110.4817,0,0,55.8254,53.404,44.5899,122.6011-11.1913,69.1935-37.5264,61.7775-16.6079,118.6631,0,0-16.9821-6.4399-32.8899-25.9678-15.9116-19.5718-37.3614-26.9382-46.4717-.1562C990.3162,460.7779,991.506,507.9838,1019.8332,514.7953Z" class="colordb9a62 svgShape"/><path fill="#ffffff" d="M1295.3602,213.5048c14.0119,35.0786,74.2991,43.1279,122.0952,43.7541-3.7073-27.2566-6.4838-52.3256-8.252-69.8437a56.49393,56.49393,0,0,0-26.4408-42.2847,266.43441,266.43441,0,0,0-47.4093-23.3324C1308.5884,146.4545,1282.3005,180.879,1295.3602,213.5048Z" opacity=".2" class="colorfff svgShape"/><path d="M1019.8332,514.7953c28.3273,6.8114,47.1532-8.9954,47.1532-8.9954s5.8119,9.3378,18.1949,21.4733c95.8625,83.8094,300.9963,36.9992,363.7029-51.4811-48.3916,64.6064-294.8415,136.6699-333.1662-90.8915-31.6959-188.2933,113.3263-258.0323,164.3724-276.527-64.5386-7.396-146.6879,12.2324-229.2843,110.4817,0,0,55.8254,53.404,44.5899,122.6011-11.1913,69.1935-37.5264,61.7775-16.6079,118.6631,0,0-16.9821-6.4399-32.8899-25.9678-15.9116-19.5718-37.3614-26.9382-46.4717-.1562C990.3162,460.7779,991.506,507.9838,1019.8332,514.7953Z" style="mix-blend-mode:soft-light" opacity=".5" fill="#000000" class="color000 svgShape"/><path fill="#c3b5ad" d="M1312.449,289.113c16.2164-.5693,35.8081-2.617,43.4641-5.0635,9.7956-3.0706-9.9155-13.4495-32.0216-20.8446-6.272-2.0598-12.7404-3.9121-18.7673-5.2775a8.05244,8.05244,0,0,0-8.9846,4.2421c-4.1485,8.0769-10.9362,22.537-8.2505,25.3203C1289.5112,289.1974,1299.9904,289.5719,1312.449,289.113Z" class="colorc3c0ad svgShape"/><path d="M1312.449 289.113c.4121-11.253 7.2137-20.9365 11.4425-25.9081-6.272-2.0598-12.7404-3.9121-18.7673-5.2775a8.05244 8.05244 0 00-8.9846 4.2421c-4.1485 8.0769-10.9362 22.537-8.2505 25.3203C1289.5112 289.1974 1299.9904 289.5719 1312.449 289.113zM1218.4568 344.5661c14.4203-4.0994 31.534 11.6556 38.2244 35.1902s.424 45.9368-13.9962 50.0362c-14.4204 4.0994-31.5341-11.6563-38.2245-35.1909S1204.0364 348.6655 1218.4568 344.5661z" style="mix-blend-mode:soft-light" opacity=".5" fill="#000000" class="color000 svgShape"/><ellipse cx="1235.773" cy="398.297" fill="#333333" rx="15.945" ry="27.031" transform="rotate(-15.869 1235.773 398.297)" class="color333 svgShape"/><path fill="#ffffff" d="M1231.3327 406.4158c1.2654 4.4512 4.5587 7.4151 7.3559 6.6199s4.0389-5.0483 2.7735-9.4995-4.5588-7.4152-7.3559-6.62S1230.0673 401.9645 1231.3327 406.4158zM1243.2368 416.9589c.6199 2.1809 2.3908 3.5882 3.9553 3.1435s2.3303-2.5733 1.7103-4.7541-2.3909-3.5882-3.9554-3.1435S1242.6168 414.7781 1243.2368 416.9589z" class="colorfff svgShape"/><ellipse cx="1358.058" cy="357.451" rx="24.496" ry="39.979" transform="rotate(-15.87 1358.059 357.452)" style="mix-blend-mode:soft-light" opacity=".5" fill="#000000" class="color000 svgShape"/><ellipse cx="1362.752" cy="367.484" fill="#333333" rx="14.389" ry="24.393" transform="rotate(-15.87 1362.752 367.484)" class="color333 svgShape"/><path fill="#ffffff" d="M1354.4929 374.7516c1.1419 4.0169 4.1139 6.6916 6.6381 5.974s3.6448-4.5557 2.5029-8.5726-4.1139-6.6916-6.6382-5.974S1353.351 370.7347 1354.4929 374.7516zM1366.1521 384.2659c.5594 1.9681 2.1575 3.2381 3.5694 2.8367s2.1028-2.3221 1.5433-4.2901-2.1575-3.2381-3.5694-2.8367S1365.5926 382.2979 1366.1521 384.2659z" class="colorfff svgShape"/><g style="mix-blend-mode:soft-light" opacity=".5"><path d="M1173.1693 413.3534a75.12282 75.12282 0 0020.1779 33.749c.1797.185.3762.3651.5726.5453l.0048.0168c16.9371 15.8989 40.6407 22.9032 63.4506 16.4188 24.3048-6.9094 41.4126-27.3853 46.3766-51.8158a75.25629 75.25629 0 00-1.4495-35.624c-.2626-.9238-.5372-1.826-.8287-2.7235-.5638-1.7278-1.1732-3.4245-1.8618-5.0804q-.25095-.6912-.5523-1.3679c-.7149-1.6848-1.4971-3.3505-2.3321-4.9466a73.6778 73.6778 0 00-20.116-24.3992c-.0168.0048-.0216-.012-.0264-.0289-16.4327-12.8471-37.8239-18.0398-58.4838-12.1666C1182.4921 336.0533 1162.3444 375.2753 1173.1693 413.3534zm6.6011-1.8766c-9.7935-34.45 8.2384-69.8754 40.2025-78.9621 18.4092-5.2334 37.4817-.5978 52.2253 10.8415a68.9427 68.9427 0 0123.7395 72.0766c-5.5265 19.9612-20.1822 36.2908-40.439 42.0494-18.9131 5.3766-38.5321.3518-53.4257-11.8073-1.2268-.9947-2.3912-2.0252-3.5531-3.111-.0215-.0121-.0431-.024-.0479-.0408A68.3465 68.3465 0 011179.7704 411.4768zM1322.3576 370.9422a75.55683 75.55683 0 0014.2044 27.296 71.2749 71.2749 0 006.5462 6.9983l.0048.0168a69.33561 69.33561 0 0032.6365 17.3542 63.1146 63.1146 0 0030.8141-.9354q.20085-.05715.4013-.1155a45.35315 45.35315 0 0025.4437-18.954 41.7056 41.7056 0 005.1763-11.6613 73.73786 73.73786 0 008.9701-60.9155 75.18368 75.18368 0 00-20.7553-34.3111c-.0168.0048-.0215-.0121-.0263-.0289a70.63357 70.63357 0 00-12.5393-7.836 66.20238 66.20238 0 00-18.5239-5.8989c-.916-.1571-1.8442-.2927-2.7795-.3898a62.89637 62.89637 0 00-21.2748 1.0918c-1.123.2649-2.2411.5464-3.3664.8663-1.6797.4775-3.3403 1.0221-4.9482 1.6245a62.98506 62.98506 0 00-15.7776 8.6789 66.59016 66.59016 0 00-17.7961 20.4175 73.43517 73.43517 0 00-8.477 47.196c.3472 2.2431.7879 4.4961 1.339 6.7539C1321.8539 369.1066 1322.095 370.0184 1322.3576 370.9422zm6.5843-1.8718a67.27356 67.27356 0 015.0076-50.0766 59.66015 59.66015 0 0118.6268-21.0712 56.24929 56.24929 0 0115.9467-7.6377l.6383-.1814a55.09386 55.09386 0 017.4834-1.5827l.0167-.0048a58.2439 58.2439 0 0137.1737 7.3867 64.02958 64.02958 0 017.5513 5.0423 67.91022 67.91022 0 0123.5031 35.1639 66.97427 66.97427 0 01-7.0991 53.703 60.35974 60.35974 0 01-6.4758 8.576c-.9729 1.1117-1.9985 2.1657-3.0552 3.1741a58.47636 58.47636 0 01-8.9298 6.9682 56.44066 56.44066 0 01-14.6426 6.5408 56.557 56.557 0 01-28.7459.5471 62.7833 62.7833 0 01-28.2975-15.5014c-.0048-.0168-.0264-.0289-.0528-.0577-1.5691-1.4965-3.0853-3.0623-4.5199-4.7241A68.61378 68.61378 0 011328.9419 369.0704z" fill="#000000" class="color000 svgShape"/><rect width="27.977" height="6.853" x="1296.492" y="364.365" transform="rotate(-15.869 1310.48 367.792)" fill="#000000" class="color000 svgShape"/></g><path fill="#333333" d="M1168.2505 409.1421a74.64234 74.64234 0 0024.9912 37.9722 6.45533 6.45533 0 00.6781.5334l.0048.0168c16.4375 12.864 37.855 18.0855 58.5318 12.2076 21.9701-6.2457 38.0471-23.5785 44.59-44.8816a74.58923 74.58923 0 00.9671-40.0869c-.1956-.8158-.4128-1.6436-.6467-2.4666-.2627-.9239-.5373-1.8261-.8288-2.7235-.1219-.3648-.2437-.7295-.3607-1.0775-.6308-1.8358-1.3025-3.6237-2.0534-5.3708a74.64089 74.64089 0 00-17.5125-25.1393c-.0168.0048-.0216-.012-.0264-.0289-16.9444-15.8605-40.6096-22.8575-63.4027-16.3778C1177.5734 331.8421 1157.4257 371.0639 1168.2505 409.1421zm30.2215 33.381a67.73134 67.73134 0 01-23.6372-35.2527c-9.7935-34.4501 8.2552-69.8802 40.2193-78.967 20.5256-5.835 41.8841.5833 57.1441 15.0528a68.967 68.967 0 0116.4006 74.998c-6.7719 16.6663-20.2313 29.86-38.019 34.9167-16.6287 4.7272-33.82 1.4087-47.8711-7.7224-1.4283-.9373-2.8326-1.9178-4.1888-2.9846C1198.4984 442.5518 1198.4768 442.5399 1198.472 442.5231zM1317.4388 366.7309c.2339.8231.4847 1.6413.7475 2.438a74.98565 74.98565 0 0017.5357 29.4352 69.39648 69.39648 0 007.3862 6.6324l.0048.0168a67.7774 67.7774 0 0032.7969 14.0227 62.50733 62.50733 0 0025.7181-1.8104 63.40248 63.40248 0 0011.2409-4.3938 60.44533 60.44533 0 006.6758-3.9129 63.93832 63.93832 0 008.8509-7.1817c1.2536-1.2097 2.4714-2.4817 3.6244-3.7899l.0169-.0047a71.63148 71.63148 0 005.548-7.2413 73.73786 73.73786 0 008.9701-60.9155 75.18368 75.18368 0 00-20.7553-34.3111c-.0168.0048-.0215-.0121-.0263-.0289a72.476 72.476 0 00-12.6809-9.4841 67.67324 67.67324 0 00-21.162-8.0899l-.0168.0048c-1.5012-.2994-3.0048-.5437-4.5444-.7232l-.0169.0048a62.62677 62.62677 0 00-21.5481 1.0244c-1.1565.2742-2.3082.5654-3.4504.8901-1.7972.5109-3.5706 1.1058-5.2913 1.7583a62.5724 62.5724 0 00-16.1452 9.1101 66.15137 66.15137 0 00-17.112 19.9507 73.36791 73.36791 0 00-8.4336 47.093c.2687 1.7753.6093 3.5484 1.0051 5.3239.1002.4799.2171.9549.334 1.43C1316.9351 364.8953 1317.1761 365.807 1317.4388 366.7309zm24.9889 28.8957a68.19964 68.19964 0 01-17.6571-28.3295c-.2627-.7967-.5135-1.6149-.7475-2.438-.3963-1.3941-.7375-2.7858-1.0451-4.187a66.92644 66.92644 0 016.1729-46.1053 59.8109 59.8109 0 0117.8849-20.4246 56.11866 56.11866 0 0116.5012-8.0494l.6887-.1958a56.076 56.076 0 018.1119-1.6707 57.08591 57.08591 0 0124.511 2.1817l.0169-.0047q.604.20925 1.2084.4189a61.96269 61.96269 0 0115.6908 7.9387l.0047.0167a66.677 66.677 0 017.617 6.1674 68.98889 68.98889 0 0116.6245 74.4442 60.637 60.637 0 01-21.1729 27.3139 56.21935 56.21935 0 01-16.4484 7.9799l-.6382.1814a56.1616 56.1616 0 01-23.8851 1.4891 61.21759 61.21759 0 01-28.2227-12.2368c-.0048-.0168-.0264-.0289-.0528-.0577A62.53691 62.53691 0 011342.4277 395.6266z" class="color333 svgShape"/><rect width="27.976" height="6.853" x="1291.569" y="360.157" fill="#333333" transform="rotate(-15.869 1305.557 363.583)" class="color333 svgShape"/><path fill="#c3b5ad" d="M1160.0832,350.372c3.221-.9617,21.1587-12.2685,37.5054-24.3189,9.9492-7.3805,19.34-15.1081,24.3599-20.9035,3.3221-3.8414,4.7295-6.8164,3.2431-8.3251-5.3696-5.4629-23.5903-9.7094-33.776-11.734a6.79414,6.79414,0,0,0-.9051-.1106,9.20991,9.20991,0,0,0-9.3131,4.119c-4.6642,7.8554-8.5311,14.7945-11.7288,20.8535C1150.7215,345.2623,1154.6737,352.0476,1160.0832,350.372Z" class="colorc3c0ad svgShape"/><path d="M1160.0832,350.372c3.221-.9617,21.1587-12.2685,37.5054-24.3189,9.9492-7.3805,19.34-15.1081,24.3599-20.9035-17.3361,11.3199-42.3259,21.5967-39.5554,3.1979a66.90155,66.90155,0,0,1,8.1174-23.3676,9.20991,9.20991,0,0,0-9.3131,4.119c-4.6642,7.8554-8.5311,14.7945-11.7288,20.8535C1150.7215,345.2623,1154.6737,352.0476,1160.0832,350.372Z" style="mix-blend-mode:soft-light" opacity=".5" fill="#000000" class="color000 svgShape"/><path fill="#c3b5ad" d="M1216.2907,493.7948c13.3919,26.6522,24.228,39.1505,50.8452,39.7481a89.8978,89.8978,0,0,0,35.6215-6.8481c28.6395-11.7477,39.362-29.7432,39.8142-47.0691,17.8181,22.1824,51.5376,28.1535,76.0144,4.7416,24.4766-23.4115,14.6424-51.4131,3.968-59.4659,0,0,4.1949,7.9003,4.4202,15.9821a16.27407,16.27407,0,0,1-2.8294,10.1912c-7.1891,9.6662-27.3411-.3892-39.7868-6.5505-6.6462-3.2827-17.8212-7.9696-28.6605-7.8498-9.5953.0558-18.9285,3.9121-24.5253,15.8304a38.80348,38.80348,0,0,0-28.5775-1.5004c-12.687,4.0547-25.0699,14.2872-35.64,29.7899-7.7879,11.4251-16.1397,17.7963-23.9293,20.3107l-.0835.0294A23.96206,23.96206,0,0,1,1216.2907,493.7948Z" class="colorc3c0ad svgShape"/><path fill="#ffffff" d="M1401.7245 468.8828c30.9381-10.6827 25.2497-27.9993 25.2497-27.9993a16.27407 16.27407 0 01-2.8294 10.1912c-7.1891 9.6662-27.3411-.3892-39.7868-6.5505-6.6462-3.2827-17.8212-7.9696-28.6605-7.8498C1350.1096 459.5177 1373.0383 478.7711 1401.7245 468.8828zM1243.0254 501.105c53.9019-7.8114 59.3528-39.2836 59.5693-50.1006-12.687 4.0547-25.0699 14.2872-35.64 29.7899C1259.1668 492.2194 1250.815 498.5906 1243.0254 501.105z" opacity=".2" class="colorfff svgShape"/><path d="M1322.9271 463.2034s-28.9886 63.9128-90.538 46.1728c21.816 15.0137 51.5537 5.667 66.7229-7.2566-16.0457 21.4919-45.9147 19.4142-56.6669 14.9494 37.5603 19.3228 77.3567-5.4712 91.7236-45.63-14.3678 28.1976-36.9997 40.3135-36.9997 40.3135s27.0573-18.2789 34.3945-51.5967c-7.8494 20.6643-29.2839 38.3224-29.2839 38.3224S1316.0298 483.5317 1322.9271 463.2034zM1356.2019 463.6639s32.2251 36.0596 69.9229-3.3894c0 0-9.6527 18.1546-29.4389 21.8957 13.5394.0107 24.7724-11.0651 24.7724-11.0651s-26.9318 48.269-75.9032 4.5284c13.3441 9.9767 29.5318 14.8201 42.4004 10.5059-21.8322 1.7393-39.0547-15.813-39.0547-15.813a62.15564 62.15564 0 0035.2356 10.737C1367.5999 478.4104 1358.9995 466.3908 1356.2019 463.6639z" style="mix-blend-mode:soft-light" opacity=".5" fill="#000000" class="color000 svgShape"/><path d="M1334.9777,479.366s-9.4977,41.1317-56.9479,48.3934C1319.3514,527.4016,1331.4158,494.8438,1334.9777,479.366Z" style="mix-blend-mode:soft-light" opacity=".5" fill="#000000" class="color000 svgShape"/><path fill="#ffffff" d="M1352.6432,431.892c5.0425-6.988,5.7638-14.9178-.6915-21.3024-5.6868-5.6144-13.7706-5.9586-21.9969-3.9248C1327.4143,415.4319,1331.0127,425.2822,1352.6432,431.892Z" opacity=".2" class="colorfff svgShape"/><path fill="#d17705" d="M1296.6348 423.9324a86.65851 86.65851 0 0128.7394-18.6358c5.4634-2.0505 11.5399-3.4248 17.9957-2.4595a20.20463 20.20463 0 0115.2855 11.7895 17.04711 17.04711 0 01.7563 10.2425 23.57356 23.57356 0 01-4.1411 8.7434 39.9537 39.9537 0 01-13.9826 11.407c-10.5266 5.3835-23.149 6.856-33.9219 2.9386a50.24507 50.24507 0 0031.3846-7.4513 38.1758 38.1758 0 0011.3974-10.5303c2.8716-4.1124 4.1254-8.9098 2.3746-12.8288a13.4947 13.4947 0 00-4.0616-5.3052 14.66494 14.66494 0 00-6.2386-2.8473c-4.718-1.0555-10.0728-.1496-15.2731 1.2122C1316.5173 413.1546 1306.4521 418.335 1296.6348 423.9324zM1368.7801 503.1838c-7.3881 2.3806-14.0529 4.2523-20.735 6.547-3.3259 1.1301-6.648 2.2688-10.009 3.5064-3.3989 1.1867-6.7248 2.5885-10.5455 3.6624a29.68768 29.68768 0 018.1228-8.2373 37.90375 37.90375 0 0110.3315-5.2224 38.45423 38.45423 0 0111.3887-2.0506A27.09155 27.09155 0 011368.7801 503.1838z" class="color9e5b2a svgShape"/><path fill="#db8f62" d="M1861.0284,741.9291c-1.7037,8.87.0271,17.5777,13.7647,16.9287-42.4028,17.3073-58.8448,35.2636-46.297,46.946s41.1048,7.1393,41.1048,7.1393-34.6145,19.4707-29.4224,34.6145,34.3983,22.9322,51.7056,19.9034c-24.4466,14.0622-30.9368,47.5951,6.2739,44.1336s51.2728-57.3304,11.0334-50.6238c30.5041-36.778,22.0668-56.465.8653-57.5468,30.5041-21.6341,39.8068-54.5179,10.1681-53.0035,36.1289-23.1485,54.3016-53.4363,36.778-65.1187-15.1261-10.0841-55.0759,11.1032-79.0817,30.0294C1869.423,722.0312,1863.0697,731.3017,1861.0284,741.9291Z" class="colordb9a62 svgShape"/><path d="M1930.2207,889.3229a40.22746,40.22746,0,0,1-32.0665,22.292c-37.1974,3.4497-30.6955-30.0765-6.2806-44.1415-17.294,3.0076-46.4855-4.7766-51.7046-19.9034-5.175-15.1708,29.4127-34.6317,29.4127-34.6317s-28.5283,4.5555-41.0894-7.1212c-12.5613-11.6764,3.8923-29.6337,46.3084-46.972-13.7553.6636-15.4804-8.0498-13.7553-16.8958,2.0346-10.6592,8.3594-19.9033,16.8957-26.6261a193.54277,193.54277,0,0,1,16.4094-11.6324c-1.8136,18.2669,1.194,49.4488,47.9891,29.678a149.93483,149.93483,0,0,1-22.1148,17.0729,25.095,25.095,0,0,1,9.5978,1.0614c-18.311,11.9861-36.9318,24.4589-35.7375,33.8799.9729,8.0056,12.2072,10.7478,24.3704,11.3228a85.99989,85.99989,0,0,1-8.4035,6.723,28.21119,28.21119,0,0,1,6.3691,1.0172c-11.6325,5.5287-22.7342,14.1536-26.5821,27.4668-4.2462,14.5957,10.4381,18.3554,27.6436,18.0898a134.64887,134.64887,0,0,1-8.271,10.9691,31.5669,31.5669,0,0,1,12.2957.0443c-7.5188,5.7941-13.3129,13.2247-14.1093,22.6014C1906.4694,894.2766,1916.6864,894.0112,1930.2207,889.3229Z" style="mix-blend-mode:soft-light" opacity=".5" fill="#000000" class="color000 svgShape"/><path fill="#d17705" d="M1874.7933 758.8576a108.36028 108.36028 0 0122.3123-6.3915 107.11135 107.11135 0 0123.1193-2.0456 107.09454 107.09454 0 01-22.3122 6.3914A108.30654 108.30654 0 011874.7933 758.8576zM1869.6011 812.9429a87.96408 87.96408 0 0119.7216-6.9105 86.9716 86.9716 0 0120.7338-2.6086 86.96387 86.96387 0 01-19.7215 6.9111A87.974 87.974 0 011869.6011 812.9429zM1891.8842 867.461a18.81678 18.81678 0 017.8775-5.3144 18.61332 18.61332 0 019.4295-1.1759 18.61818 18.61818 0 01-7.8775 5.3148A18.824 18.824 0 011891.8842 867.461zM1063.4505 489.7203c-4.5084-3.7964-8.5787-7.5756-12.6835-11.1435a91.6818 91.6818 0 00-12.5334-9.357c-4.3025-2.4746-8.6327-4.1686-13.2539-4.0087-4.6359.1766-9.5154 2.4351-14.605 5.4564a21.08252 21.08252 0 0113.368-12.2476c6.5799-1.882 13.6709-.0254 18.9739 3.1773a44.81441 44.81441 0 0113.1373 12.3529A45.74317 45.74317 0 011063.4505 489.7203z" class="color9e5b2a svgShape"/><polygon fill="#efefef" points="1353.814 790.484 1398.8 947.724 1524.638 934.166 1482.927 776.958 1353.814 790.484" class="colorefefef svgShape"/><path d="M1226.4908,974.2614c-44.9818,19.9034-40.3913,38.9491-40.3913,38.9491s-113.3608,0-162.6771-17.2938c-6.9441-29.3686-6.8113-80.6752-3.4498-135.5642,2.1672-35.4281,5.7498-72.3598,9.5978-105.8418,29.8993,45.5566,58.4621,86.3335,138.0516,114.3582C1190.0013,987.3861,1229.3216,945.3353,1226.4908,974.2614Z" style="mix-blend-mode:soft-light" opacity=".3" fill="#000000" class="color000 svgShape"/><path fill="#db8f62" d="M1109.3781,927.5318s-51.0565-4.0384-23.6533-36.0569,92.3056-67.7869,89.998-41.5375-32.5954,52.2103-32.5954,52.2103,167.5922-32.3069,99.2284,32.0185c17.8842,12.9805,39.5813,29.0455-24.0545,64.8581,25.7853,14.467,50.8808,42.4471,6.7472,58.6006s-79.6135.8654-88.5556-9.8075-3.5249-28.7653,9.7758-35.584c-11.5065-13.4533-19.2948-31.3375-3.1413-50.9524C1109.3781,963.591,1099.5707,937.9161,1109.3781,927.5318Z" class="colordb9a62 svgShape"/><path d="M1241.0328,1049.1693c-3.7594,3.0518-9.0228,5.8826-15.9669,8.4477-44.1414,16.144-79.6135.8847-88.5923-9.8188-8.9342-10.6593-3.494-28.7494,9.7749-35.5607-11.4999-13.446-19.2841-31.359-3.1404-50.9527-33.7473,2.3-43.5219-23.3535-33.7473-33.7473,0,0-51.0411-4.0248-23.6186-36.0474,13.2247-15.4361,35.1627-31.7569,54.0929-41.5758-12.4728,10.9689-23.6188,23.5745-24.2821,34.057-1.1943,19.1513,16.0997,15.4804,37.1088,8.7131a117.65481,117.65481,0,0,1-9.5537,9.4652s26.7589-5.1308,54.4911-7.2537c-12.2518,6.5459-32.4205,19.2398-33.3935,32.6416-1.0614,13.7996,52.0585,7.1652,82.6212,2.2114-1.3269,1.4154-2.8308,2.8751-4.4673,4.423.929.6636,1.8136,1.3269,2.7423,2.0347-8.846,5.7498-17.4266,14.2861-19.461,26.2282-2.0789,11.9421,11.19,13.8882,26.5379,12.3843-6.5462,6.8998-17.3383,14.9054-33.8802,24.1935a101.41308,101.41308,0,0,1,15.3479,10.5267c-14.9054,4.1133-44.0529,14.021-46.397,29.7668C1185.5688,1050.6289,1214.0968,1051.1154,1241.0328,1049.1693Z" style="mix-blend-mode:soft-light" opacity=".5" fill="#000000" class="color000 svgShape"/><path fill="#d17705" d="M1109.378 927.5315a45.98272 45.98272 0 016.8873-8.4068 72.815 72.815 0 017.9942-6.9354 71.77724 71.77724 0 018.8747-5.7643 45.46114 45.46114 0 019.9934-4.2772 45.47121 45.47121 0 01-6.8814 8.4144 71.74927 71.74927 0 01-8.0002 6.9279 72.76955 72.76955 0 01-8.8806 5.7567A45.94534 45.94534 0 011109.378 927.5315zM1143.1276 961.2811a252.9302 252.9302 0 0124.1273-9.2663c8.1292-2.77 16.361-5.1657 24.6129-7.4891 8.2842-2.2039 16.5907-4.3268 24.9986-6.0776a250.12826 250.12826 0 0125.4897-4.282 250.24206 250.24206 0 01-24.1252 9.276c-8.1298 2.7685-16.3616 5.1642-24.6156 7.4794-8.2864 2.1958-16.5923 4.3193-25.0013 6.0684A253.07085 253.07085 0 011143.1276 961.2811zM1146.2687 1012.2334c12.0677-3.3221 24.0582-5.1658 36.0173-7.1941l17.9282-2.8495 18.0869-3.1655a61.94857 61.94857 0 01-16.8413 8.1903 117.208 117.208 0 01-18.1166 4.3706 142.17758 142.17758 0 01-18.4797 1.7081A96.57463 96.57463 0 011146.2687 1012.2334z" class="color9e5b2a svgShape"/></g></svg>