<svg xmlns="http://www.w3.org/2000/svg" viewBox="0 0 4000 4000"><path fill="#ffa30f" d="M2903.99 1930.71c-46.01-175.82-9.56-397.95-142.56-512.19-84.65-72.71-204.24-67.04-309.33-95.99-149.22-41.1-270.55-153.52-403.06-237.73-132.51-84.21-302.17-140.5-437.7-62-105.82 61.3-161.17 187.2-239.45 285.06-78.7 98.38-182.6 169.89-266.85 262.84-153.96 169.85-235.63 412.11-218.49 648.13 9.09 125.19 47.21 252.26 128.82 342.42 125.45 179.15 408.15 157.26 588.56 150.06 277.6-11.07 559.73 6.26 838.95 15.22 123.53 3.96 250.31 7.42 367.04-36.09 116.72-43.51 222.98-144.95 240.39-276 22.59-170.04-103.04-318.35-146.31-483.73Z" opacity=".8" class="colorc4cfe1 svgShape"/><ellipse cx="1962.92" cy="3677.6" fill="#ddd4ce" rx="840.08" ry="124.6" class="colorced3dd svgShape"/><g><path fill="#fbb890" d="m2329.67 2384.92 39.49 577.89-183.01 12.51-117.88-590.23 261.4-.17z" class="colorf4b683 svgShape"/><ellipse cx="2273.73" cy="2960.7" fill="#fbb890" rx="95.07" ry="97.37" transform="rotate(-3.91 2272.099 2958.796)" class="colorf4b683 svgShape"/><path fill="#fbb890" d="m2178.88 2967.19 185.95 21.79 12.58 521.41c.1 4-.23 7.95-.94 11.8h.24l3.04 102.15-115.16 13.16-5.47-106.24c-3.69-7.26-5.87-15.3-6.22-23.65l-74.03-540.42Z" class="colorf4b683 svgShape"/><path fill="#ea8d59" d="m2184.8 3010.4 180.25-12.32 12.36 512.3c.1 4-.23 7.95-.94 11.8h.24l3.04 102.15-115.16 13.16-5.47-106.24c-3.69-7.26-5.87-15.3-6.22-23.65l-68.11-497.21Z" class="colorea5a59 svgShape"/><path fill="#5b5043" d="M2261.04 3610.32c1.63-7.6 3.55-15.07 5.42-22.94 3.39 5.02 7.2 8.01 11.25 10.44 12.48 7.51 25.55 11.13 39 12.21 11.14.9 21.97-1.08 32.43-6.9 7.01-3.91 13.24-9.75 19.3-16.06 3.88-4.04 7.85-7.93 12.51-9.95 1.68-.72 3.37-.96 4.98-.46 4.98-.46 48.03 41.17 48.03 41.17.56.15 1.12.61 1.68 1.34 8.32 6.6 16.31 13.34 24.59 19.19 21.5 15.2 44.44 23.61 67.97 29.01 10.57 2.43 21.16 4.79 31.71 7.41 5.01 1.25 13.29-4.87 17.75-1.11 4.03 3.41 6.49 8.34 6.69 15.29.15 5.14-4.47 17.68-6.56 21.72-3.64 7.06-8.57 11.82-13.87 15.81-12.06 9.06-25.06 13.78-38.31 17.27-14.74 3.88-29.64 5.6-44.61 6.08-18.44.59-36.83-.66-54.98-5.51-14.27-3.81-28.44-8.42-42.6-12.98-11.24-3.61-22.53-6.63-33.91-8.69-26.19-1.89-50.39-3.63-51.69-3.67-1.48-.05-3.58-.31-5.29-.55-7.65-1.1-15.06-2.63-22.06-6.89-6.93-4.21-11.55-11.3-13.22-22.13-1.49-9.72-2.33-19.54-2.17-29.51.26-16.98 2.5-33.47 5.97-49.63Z" class="color54435b svgShape"/><path fill="#413321" d="M2261.04 3593.44c1.63-7.6 3.55-15.07 5.42-22.94 3.39 5.02 7.2 8.01 11.25 10.45 12.48 7.51 25.55 11.13 39 12.21 11.14.9 21.97-1.08 32.43-6.9 7.01-3.91 13.24-9.75 19.3-16.06 3.88-4.04 7.85-7.93 12.51-9.95 1.68-.72 3.37-.96 4.98-.46 4.98-.46 48.03 41.17 48.03 41.17.56.15 1.12.61 1.68 1.34 8.32 6.6 16.31 13.34 24.59 19.19 21.5 15.2 44.44 23.61 67.97 29.01 10.57 2.43 21.16 4.79 31.71 7.41 5.01 1.24 9.93 3.17 14.39 6.93 4.03 3.41 6.49 8.34 6.69 15.29.15 5.14-1.12 9.64-3.2 13.68-3.64 7.06-8.57 11.82-13.87 15.81-12.06 9.06-25.06 13.78-38.31 17.27-14.74 3.88-29.64 5.6-44.61 6.08-18.44.59-36.83-.66-54.98-5.51-14.27-3.81-28.44-8.42-42.6-12.98-11.24-3.61-22.53-6.63-33.91-8.69-26.19-1.89-50.39-3.63-51.69-3.67-1.48-.05-3.58-.31-5.29-.55-7.65-1.1-15.06-2.63-22.06-6.89-6.93-4.21-11.55-11.3-13.22-22.13-1.49-9.72-2.33-19.54-2.17-29.51.26-16.98 2.5-33.47 5.97-49.63Z" class="color392141 svgShape"/><path fill="#ffffff" d="M2460.23 3621.49c8.7 6.15 17.65 11.18 26.76 15.36-42.47 21.63-66.74 63.54-77.22 85.95-8.8-2.66-17.58-5.48-26.36-8.3 2.33-59.13 76.82-93 76.82-93ZM2365.91 3034.3l-176.19 12.04-4.92-35.94 180.24-12.32.87 36.22z" class="colorfff svgShape"/><ellipse cx="1868.53" cy="1966.97" fill="#fbb890" rx="69.67" ry="66.57" transform="rotate(-48.56 1868.775 1967.072)" class="colorf4b683 svgShape"/><path fill="#fbb890" d="m1731.47 2362.98-50.78 577.01 182.73 16.08 129.4-587.81-261.35-5.28z" class="colorf4b683 svgShape"/><ellipse cx="1776.15" cy="2939.75" fill="#fbb890" rx="97.37" ry="95.07" transform="rotate(-84.97 1776.132 2939.747)" class="colorf4b683 svgShape"/><ellipse cx="1355.23" cy="1561.17" fill="#fbb890" rx="33.74" ry="71.03" transform="rotate(-51.84 1355.233 1561.17)" class="colorf4b683 svgShape"/><path fill="#fbb890" d="M1383.34 1274.54h142.06v320.92h-142.06z" transform="rotate(-141.84 1454.379 1435.002)" class="colorf4b683 svgShape"/><ellipse cx="1682.84" cy="1130.2" fill="#fb600a" rx="69.03" ry="85.54" transform="rotate(-51.84 1682.838 1130.197)" class="colord14a4a svgShape"/><path fill="#fb600a" d="m1615.58 1077.35 134.52 105.71-223.37 292.36-134.52-105.7 223.37-292.37z" class="colord14a4a svgShape"/><path fill="#ebe7e4" d="m1587.74 1395.57-138.43-100.59-57.1 74.74 134.52 105.7 61.01-79.85z" class="colore7e4eb svgShape"/><path fill="#fbb890" d="m2652.35 1600.12-92.21-104.46-214.01 188.9-5.35 120.38 311.57-204.82z" class="colorf4b683 svgShape"/><ellipse cx="2644.77" cy="1561.17" fill="#fbb890" rx="71.03" ry="33.74" transform="rotate(-38.16 2644.758 1561.173)" class="colorf4b683 svgShape"/><path fill="#fbb890" d="M2474.59 1274.54h142.06v320.92h-142.06z" transform="rotate(-38.16 2545.617 1434.999)" class="colorf4b683 svgShape"/><ellipse cx="2317.16" cy="1130.2" fill="#fb600a" rx="85.54" ry="69.03" transform="rotate(-38.16 2317.166 1130.2)" class="colord14a4a svgShape"/><path fill="#fb600a" d="m2384.42 1077.35-134.52 105.71 223.37 292.36 134.52-105.7-223.37-292.37z" class="colord14a4a svgShape"/><path fill="#ebe7e4" d="m2412.26 1395.57 138.43-100.59 57.1 74.74-134.52 105.7-61.01-79.85z" class="colore7e4eb svgShape"/><path fill="#dbd5d2" d="M1891.84 968.46s77.81-67.81 259.38 0 67.47 257.34 67.47 257.34l-375.75 20.07 48.89-277.41Z" class="colord5d2db svgShape"/><path fill="#60503b" d="m2024.75 2111.62 280.1-162.09 47.39 543.03-305.71 21.95-21.78-402.89zM1994.87 2104l-283.78-43.48-16.75 441.47 312.94 25.03-12.41-423.02z" class="color603b3b svgShape"/><path fill="#60503b" d="M1726.4 1932.83h561.76c9.21 0 16.69 7.48 16.69 16.69v83.88c0 143.94-116.86 260.8-260.8 260.8h-73.54c-143.94 0-260.8-116.86-260.8-260.8v-83.88c0-9.21 7.48-16.69 16.69-16.69Z" class="color603b3b svgShape"/><path fill="#fb600a" d="M1897.33 979.45s86.91-67.02 225.43-13.98c138.53 53.04-173.59 212.34-173.59 212.34l-51.85-198.37Z" class="colord14a4a svgShape"/><path fill="#fbb890" d="M1922.97 804.29h174.24v273.47h-174.24z" class="colorf4b683 svgShape"/><path fill="#d17705" d="M2097.22 804.29h-149.18c-6.52 4.34-12.96 9.14-19.32 14.43a248.17 248.17 0 0 0-5.74 4.94v168.86c.97.2 1.93.4 2.9.57 27.28 5.01 55.74 1.84 83.1-2.86 30.43-5.23 61.44-12.92 88.24-25.64V804.3Z" class="colord56734 svgShape"/><path fill="#ea8d59" d="m2383.96 1052.09-230.17-71.14-21.96 53.62-131.83 40.98-102.67-40.98-5.49-66.1-275.8 83.62 100.44 757.45s-41.85 85.79-4.18 154.84c0 0 57.07 30.31 246.9 20.16v.77l10.02-1.34c9.91-.59 20.17-1.29 30.79-2.11 10.62.82 20.88 1.52 30.79 2.11l10.01 1.34v-.77c189.84 10.15 246.91-20.16 246.91-20.16 37.66-69.05-4.18-154.84-4.18-154.84l100.44-757.45Z" class="colorea5a59 svgShape"/><path fill="#c38e4c" d="M1850.02 300.64c-32.22 19.79-57.92 50.4-72.82 85.32-33.46 78.43-16.75 202.34 41.26 266.46 16.64 18.39 40.21 33.94 64.32 29.27 18.07-3.5 32.39-17.69 42.94-33.06 35.29-51.38 39.25-118.23 36.96-180.92-.99-27.07-2.92-54.12-3.32-81.21-.34-23.21 17.15-70.08 5.52-90.81-13.53-24.13-60.41-17.73-81.08-10.86-11.86 3.94-23.18 9.29-33.78 15.8Z" class="colorc36a4c svgShape"/><path fill="#c38e4c" d="M2077.7 256.43c44.61 14.24 80.97 51.98 93.54 97.09 27.92 1.58 46.78 29.05 57.07 55.05 17.15 43.37 23.06 91.14 16.99 137.38-2.82 21.49-8.39 43.1-20.5 61.07-15.27 22.66-40.02 37.8-66.27 45.35-55.75 16.04-118.34-1.28-162.41-39-44.07-37.72-70.32-93.76-77.98-151.26-6.77-50.78-4.84-127.26 22.59-172.85 24.78-41.19 96.35-45.8 136.98-32.83Z" class="colorc36a4c svgShape"/><path fill="#c38e4c" d="M1863.94 261.62c-35.33 12.76-63.68 36.36-85.97 62.56 38.34-25.92 92.85-34.13 139.63-21.03 11.5 3.22 22.65 7.65 34.67 9.01 12.02 1.36 25.61-1.07 32.89-9.16 17.35-19.28-2.21-38.17-23.2-43.82-32.78-8.83-65.97-9.14-98.02 2.44Z" class="colorc36a4c svgShape"/><path fill="#fbb890" d="M2186.09 492.17c-3.36-99.62-85.16-179.35-185.59-179.35s-182.23 79.73-185.59 179.35h-.12V719.2h.64c7.85 95.34 87.7 170.27 185.07 170.27s177.22-74.93 185.07-170.27h.64V492.17h-.12Z" class="colorf4b683 svgShape"/><path fill="#fbb890" d="M2231 614.98c-23.62-41.87-60.11 11.45-60.11 11.45l-11.81 98.19c62.26-13.81 95.54-67.78 71.92-109.64Z" class="colorf4b683 svgShape"/><path fill="#e38d59" d="M2174.11 648.79s18.25-33.28 35.42-23.08c17.18 10.2 13.42 62.8-39.18 73.53l3.76-50.45Z" class="colore38859 svgShape"/><path fill="#fbb890" d="M1763.11 614.98c23.62-41.87 60.11 11.45 60.11 11.45l11.81 98.19c-62.26-13.81-95.54-67.78-71.92-109.64Z" class="colorf4b683 svgShape"/><path fill="#e38d59" d="M1820 648.79s-18.25-33.28-35.42-23.08c-17.18 10.2-13.42 62.8 39.18 73.53l-3.76-50.45Z" class="colore38859 svgShape"/><path fill="#443f39" d="M2058.16 622.31c0 10.08 6.92 18.26 15.45 18.26s15.45-8.17 15.45-18.26-6.92-18.26-15.45-18.26-15.45 8.17-15.45 18.26ZM1927.12 622.2c0 10.04-6.92 18.18-15.45 18.18s-15.45-8.14-15.45-18.18 6.92-18.18 15.45-18.18 15.45 8.14 15.45 18.18Z" class="color3a3944 svgShape"/><path fill="#d17705" d="M1998.97 635.94c.98 10.37.98 20.61.71 30.83-.3 10.21-.97 20.37-1.9 30.49l-.73 7.58-.8 7.55-.22 1.88-.08 1.66c-.03 1.1-.2 2.21-.07 3.3.1 1.09.03 2.22.29 3.3l.27 1.65c.05.28.08.56.14.83l.23.81c2.22 8.74 8.28 16.91 16.04 23.72-2.52-.71-4.92-1.83-7.23-3.13-1.19-.61-2.26-1.39-3.39-2.12-1.06-.81-2.17-1.59-3.18-2.5-4.09-3.54-7.6-8.06-9.83-13.35-1.11-2.64-1.92-5.44-2.3-8.32-.31-1.43-.31-2.88-.35-4.33l-.05-2.17.07-1.93c.09-2.58.27-5.14.41-7.7l.62-7.66a361.74 361.74 0 0 1 4.11-30.39c1.84-10.07 4.02-20.1 7.25-30ZM1945.61 791.66c4.85 3.28 9.84 6.07 14.94 8.52 5.08 2.46 10.29 4.5 15.56 6.13 10.54 3.26 21.41 4.77 32.24 4.29 1.36.02 2.71-.18 4.06-.26l2.03-.16 2.02-.28c1.35-.19 2.71-.3 4.05-.56 1.34-.26 2.68-.53 4.03-.76 5.35-1.17 10.7-2.56 15.94-4.47 10.55-3.64 20.81-8.6 31.26-13.92-7.86 8.71-17.43 15.91-28.11 21.31-5.3 2.79-11.01 4.83-16.83 6.5-5.85 1.61-11.93 2.48-18.03 2.79-12.23.54-24.57-1.98-35.54-7.03-5.48-2.55-10.66-5.65-15.33-9.36a68.124 68.124 0 0 1-6.63-5.95c-2.06-2.12-4.03-4.34-5.65-6.8Z" class="colord56734 svgShape"/><path fill="#a0733a" d="M1861.89 556.29c7.44-16 25.98-26.41 44.74-25.83 9.29.6 18.41 3.06 26.04 7.8 3.95 2.08 7.22 5.22 10.61 7.9 3.02 3.22 5.89 6.51 8.31 10.13-4.35-1.19-8.13-2.87-11.96-4.34-3.96-1.14-7.6-2.77-11.37-3.74-7.47-2.23-14.78-3.51-22.04-3.82-7.29-.43-14.51.81-21.87 2.73-7.36 2.07-14.68 5.18-22.45 9.16ZM2029.33 557.17c7.44-16 25.98-26.41 44.74-25.83 9.29.6 18.41 3.06 26.04 7.8 3.95 2.08 7.22 5.22 10.61 7.9 3.02 3.22 5.89 6.51 8.31 10.13-4.35-1.19-8.13-2.87-11.96-4.34-3.96-1.14-7.6-2.77-11.37-3.74-7.47-2.23-14.78-3.51-22.04-3.82-7.29-.43-14.51.81-21.87 2.73-7.36 2.07-14.68 5.18-22.45 9.16Z" class="colora0503a svgShape"/><path fill="#c38e4c" d="M1912.38 397.82c36.17-2.63 51.34 53.56 87.19 58.99 35.11 5.32 56.55-39.88 90.31-50.88 24.59-8.01 52.27 4.38 69.14 23.98 16.87 19.61 25 45.12 31.45 70.16 8.01-79.7-35.51-162.46-106.21-200.12-70.69-37.65-164.33-27.25-224.35 25.79-60.02 53.04-81.76 145.43-50.75 219.28-9.52-22.67 10.66-88.34 27.81-104.32 13.61-12.69 57.16-41.55 75.39-42.88Z" class="colorc36a4c svgShape"/><path fill="#ebe7e4" d="M1891.84 968.46s13.64 100.6 121.03 92.97c121.67-8.65 138.36-92.97 138.36-92.97l34.99 22.5s-67.18 109.74-173.35 109.71c-128.15-.04-150.98-123.13-150.98-123.13l29.95-9.08Z" class="colore7e4eb svgShape"/><path fill="#fbb890" d="m1870.86 2948.09-186.34 18.15-22.77 521.06c-.17 4 .07 7.96.7 11.82h-.24l-5.04 102.07 114.88 15.41 7.54-106.11a57.617 57.617 0 0 0 6.68-23.52l84.58-538.87Z" class="colorf4b683 svgShape"/><path fill="#ea8d59" d="m1864.1 2991.17-179.97-15.84-22.37 511.96c-.17 4 .07 7.96.7 11.82h-.24l-5.04 102.07 114.88 15.41 7.54-106.11a57.617 57.617 0 0 0 6.68-23.52l77.82-495.78Z" class="colorea5a59 svgShape"/><path fill="#5b5043" d="M1776.14 3589.49c-1.48-7.63-3.25-15.13-4.97-23.04-3.48 4.95-7.36 7.87-11.45 10.22-12.63 7.27-25.76 10.63-39.23 11.45-11.16.68-21.94-1.51-32.29-7.53-6.94-4.04-13.05-10-18.98-16.43-3.8-4.11-7.7-8.08-12.32-10.19-1.66-.76-3.35-1.03-4.97-.56-4.97-.56-48.83 40.22-48.83 40.22-.56.14-1.13.59-1.7 1.31-8.44 6.43-16.57 13.02-24.97 18.71-21.8 14.78-44.9 22.74-68.52 27.68-10.62 2.22-21.25 4.37-31.85 6.79-5.03 1.15-13.19-5.13-17.72-1.45-4.1 3.33-6.65 8.22-6.98 15.15-.25 5.14 4.13 17.77 6.13 21.85 3.51 7.13 8.33 11.99 13.56 16.08 11.88 9.3 24.79 14.27 37.97 18.01 14.67 4.17 29.52 6.18 44.48 6.95 18.43.95 36.83.06 55.08-4.44 14.34-3.53 28.6-7.86 42.85-12.14 11.31-3.39 22.65-6.19 34.07-8.02 26.23-1.38 50.45-2.64 51.75-2.66 1.48-.02 3.58-.24 5.3-.44 7.67-.95 15.1-2.33 22.19-6.45 7.01-4.07 11.77-11.07 13.65-21.86 1.68-9.69 2.71-19.49 2.75-29.46.07-16.98-1.85-33.51-4.99-49.73Z" class="color54435b svgShape"/><path fill="#413321" d="M1776.47 3572.61c-1.48-7.63-3.25-15.13-4.97-23.04-3.48 4.95-7.36 7.87-11.45 10.22-12.63 7.27-25.76 10.63-39.23 11.45-11.16.68-21.94-1.51-32.29-7.53-6.94-4.04-13.05-10-18.98-16.43-3.8-4.11-7.7-8.08-12.32-10.19-1.66-.76-3.35-1.03-4.97-.56-4.97-.56-48.83 40.22-48.83 40.22-.56.14-1.13.59-1.7 1.31-8.44 6.43-16.57 13.02-24.97 18.71-21.8 14.78-44.9 22.74-68.52 27.68-10.62 2.22-21.25 4.37-31.85 6.79-5.03 1.15-9.99 2.97-14.52 6.65-4.1 3.33-6.65 8.22-6.98 15.15-.25 5.14.93 9.66 2.94 13.74 3.51 7.13 8.33 11.99 13.56 16.08 11.88 9.3 24.79 14.27 37.97 18.01 14.67 4.17 29.52 6.18 44.48 6.95 18.43.95 36.83.06 55.08-4.44 14.34-3.53 28.6-7.86 42.85-12.14 11.31-3.39 22.65-6.19 34.07-8.02 26.23-1.38 50.45-2.64 51.75-2.66 1.48-.02 3.58-.24 5.3-.44 7.67-.95 15.1-2.33 22.19-6.45 7.01-4.07 11.77-11.07 13.65-21.86 1.68-9.69 2.71-19.49 2.75-29.46.07-16.98-1.85-33.51-4.99-49.73Z" class="color392141 svgShape"/><path fill="#ffffff" d="M1576.77 3596.76c-8.82 5.98-17.86 10.83-27.06 14.83 42.04 22.46 65.49 64.83 75.53 87.44 8.85-2.49 17.69-5.14 26.52-7.79-1.17-59.16-74.99-94.49-74.99-94.49ZM1682.54 3011.53l175.93 15.48 5.63-35.84-179.97-15.83-1.59 36.19z" class="colorfff svgShape"/><path fill="#c38e4c" d="M1885 453.17c39.58 31.61 88.47 51.4 138.89 56.23-5.84-8.59-11.67-17.17-17.5-25.76 22.96 10.01 45.93 20.02 68.89 30.03-5.88-12.67-11.76-25.34-17.64-38 39.56 13.86 76.72 34.56 109.34 60.89-3.14-18.98-6.28-37.96-9.41-56.93l39.93 28.71c-6.04-32.01-12.14-64.22-23.62-94.71-11.48-30.49-28.75-59.48-53.89-80.21-28.81-23.76-66.2-35.2-103.4-38.51-37.07-3.3-75.46 1.21-108.82 17.72-28.81 14.26-53.51 38.78-68.95 66.97-5.97 10.89-9.83 23.05-8.39 35.58 1.61 13.99 9.21 26.49 17.86 37.28 11.23 14 27.18 27.17 44.35 33.19-1.7-10.87-5.09-21.75-7.63-32.46Z" class="colorc36a4c svgShape"/><path fill="#c38e4c" d="M1706.73 510.66a326.695 326.695 0 0 1 39.92-51.61c.8 43.85 11.5 87.48 31.08 126.72-7.92-59.36 1-120.88 25.45-175.54 10.29-23.02 23.22-44.73 36.65-66.03 3.75-5.95 8.38-11.86 11.46-18.15-5.57-3.24-14.75-7.31-21.43-6.44-7.62.99-14.63 7.24-20.59 11.64-13.8 10.19-26.52 21.83-37.97 34.61a261.92 261.92 0 0 0-30.5 41.71c-8.71 14.79-15.98 30.43-21.6 46.65-5.62 16.21-9.6 32.99-11.74 50.01-.27 2.14-.51 4.28-.72 6.43ZM2167.24 263.64c23.34 2.24 45.86 9.69 67.84 17.86-37.81-8.54-79.62 3.36-107.27 30.53 22.24 10.86 36.61 36.06 34.61 60.73 23.7-1.19 46.91 8.56 66.04 22.59 19.13 14.04 34.78 32.2 50.25 50.19a183.94 183.94 0 0 0-34.37-18.58c20.49 29.94 31.98 65.96 32.62 102.24-6.41-8.22-12.82-16.44-19.22-24.66-8.12 21.66-16.25 43.31-24.37 64.97-13.35-51.94-32.25-106.13-74.36-139.33-19.34-15.25-42.9-25.42-59.21-43.88-17.38-19.67-23.49-47.93-17.99-73.35 2.19-10.13 6.09-21.55 11.98-30.21 4.93-7.25 12.85-10.51 20.87-13.27 16.93-5.84 34.77-7.53 52.57-5.82Z" class="colorc36a4c svgShape"/><path fill="#a0733a" d="M1998.96 889.44c-.26-7.23-1.02-14.45-2.31-21.57-31.66.04-61.93-13.21-88.86-29.87-13.11-8.11-25.89-17.27-35.26-29.5-7.96-10.38-13.16-22.58-17.88-34.79-.96-2.47-1.89-4.95-2.82-7.43a595.42 595.42 0 0 1-18.83-60.4 598.248 598.248 0 0 1-12.35-62.05c-.31-2.13-2.26-12.86-5.85-15.14v90.49h.64c7.81 94.83 86.86 169.46 183.52 170.25Z" class="colora0503a svgShape"/><path fill="#a0733a" d="M2186.06 655.2c-.51-2.12-1.09-4.21-1.58-6.18-1.31-5.25-2.91-10.43-4.79-15.5-5.26 40.39-10.66 81.3-26.04 119.01-8.32 20.42-19.8 39.75-34.71 56.07-7.4 8.1-15.65 15.43-24.71 21.62-4.52 3.09-9.25 5.89-14.14 8.35-5.07 2.55-9.71 5.63-14.74 8.33-22.48 12.04-47.34 20.93-73.11 20.99h-.38a151.7 151.7 0 0 0-2.3 21.26c3.62.21 7.27.33 10.95.33 97.36 0 177.22-74.93 185.07-170.27h.64v-37.07c0-4.49-.51-9.28.23-13.73.25-1.5.75-2.91.79-4.44.07-2.82-.47-5.82-1.17-8.75Z" class="colora0503a svgShape"/><path fill="#a0733a" d="M1972.44 842.12c17.25 2.53 34.67-1.53 51.98-3.62.97-.12 2-.22 2.88.18 1.7.77 2.13 2.94 2.35 4.79.91 7.79 1.82 15.58 2.72 23.38.05.43.09.89-.12 1.26-.24.42-.73.62-1.19.77-10.41 3.57-21.58 2.93-32.41 2.77-5.47-.08-10.97-.06-16.41.66-2.18.29-4.69 1.64-5.52-.82-.91-2.71-.89-6.12-1.31-8.95-1-6.81-1.99-13.61-2.99-20.42Z" class="colora0503a svgShape"/><path fill="#a0733a" d="M1920.49 782.1c.27-2.69.61-5.5 2.18-7.7 1.5-2.1 3.92-3.34 6.28-4.38 17.22-7.59 36.42-9.12 55.22-9.98 27.46-1.26 54.97-1.32 82.43-.19 3.57.15 7.35.38 10.3 2.4 4.32 2.96 5.5 8.72 6.27 13.91 3.51 23.74 5.79 47.65 6.83 71.62 3.06 1.26 6.67-.93 8.14-3.9 1.48-2.97 1.38-6.44 1.24-9.75-.89-21.88-2.12-43.74-3.67-65.58-.41-5.83-.98-12.02-4.5-16.69-2.96-3.93-7.62-6.21-12.29-7.79-20.03-6.76-41.85-2.87-62.85-.43a439.749 439.749 0 0 1-55.73 2.91c-11.96-.14-24.7-.56-34.91 5.65-16.21 9.87-19.3 31.85-19.25 50.82.02 8.91.37 17.82 1.02 26.7.33 4.53.64 9.1 1.27 13.59.34 2.43.83 7.78 3.63 8.76 2.19.76 4.5-1.39 5.69-2.97 2.12-2.83 1.92-5.63 1.7-9-.59-9.06-.82-18.14-.71-27.22.12-10.28.7-20.56 1.71-30.79Z" class="colora0503a svgShape"/><path fill="#fbb890" d="m2370.43 1707.03 8 31.07c10.64 41.34-27.78 78.92-68.7 66.77-33.19-9.85-60.94-34.26-50.64-90.74 0 0-.58-52.98 62.59-48.33 23.38 1.72 42.91 18.52 48.75 41.22Z" class="colorf4b683 svgShape"/><path fill="#fbb890" d="M2336.59 1785.92c11.24 24.53-5.17 23.66-18.82 27.81-25.24 7.67-96.38 21.17-104.95 10.42-18.68-23.42 9.09-25.36 61.34-37.23 34.34-7.8 58.1-16.81 62.38-1.21.02.07.01.14.04.21ZM2305.57 1752.97c11.24 24.53-5.17 23.66-18.82 27.81-25.24 7.67-96.38 21.17-104.95 10.42-18.68-23.42 9.09-25.36 61.34-37.23 34.34-7.8 58.1-16.81 62.38-1.21.02.07.01.14.04.21Z" class="colorf4b683 svgShape"/><path fill="#fbb890" d="M2282.96 1728.04c5.67 25.61-10.51 21.8-25.07 23.3-26.92 2.78-100.97 2.81-107.1-9.07-13.35-25.9 14.81-22.72 69.64-24.62 36.03-1.25 61.78-5.58 62.53 10.18 0 .07-.02.14 0 .21ZM2309.14 1687.82c5.67 25.61-10.51 21.8-25.07 23.3-26.92 2.78-100.97 2.81-107.1-9.07-13.35-25.9 14.81-22.72 69.64-24.62 36.03-1.25 61.78-5.58 62.53 10.18 0 .07-.02.14 0 .21ZM1668.85 1707.03l-8 31.07c-10.64 41.34 27.78 78.92 68.7 66.77 33.19-9.85 60.94-34.26 50.64-90.74 0 0 .58-52.98-62.59-48.33-23.38 1.72-42.91 18.52-48.75 41.22Z" class="colorf4b683 svgShape"/><path fill="#fbb890" d="M1702.69 1785.92c-11.24 24.53 5.17 23.66 18.82 27.81 25.24 7.67 96.38 21.17 104.95 10.42 18.68-23.42-9.09-25.36-61.34-37.23-34.34-7.8-58.1-16.81-62.38-1.21-.02.07-.01.14-.04.21ZM1733.71 1752.97c-11.24 24.53 5.17 23.66 18.82 27.81 25.24 7.67 96.38 21.17 104.95 10.42 18.68-23.42-9.09-25.36-61.34-37.23-34.34-7.8-58.1-16.81-62.38-1.21-.02.07-.01.14-.04.21Z" class="colorf4b683 svgShape"/><path fill="#fbb890" d="M1756.32 1728.04c-5.67 25.61 10.51 21.8 25.07 23.3 26.92 2.78 100.97 2.81 107.1-9.07 13.35-25.9-14.81-22.72-69.64-24.62-36.03-1.25-61.78-5.58-62.53 10.18 0 .07.02.14 0 .21ZM1730.14 1687.82c-5.67 25.61 10.51 21.8 25.07 23.3 26.92 2.78 100.97 2.81 107.1-9.07 13.35-25.9-14.81-22.72-69.64-24.62-36.03-1.25-61.78-5.58-62.53 10.18 0 .07.02.14 0 .21ZM1355.23 1603.63l98.43-102.42 224.45 176.37 12.23 119.88-335.11-193.83z" class="colorf4b683 svgShape"/></g></svg>