<svg xmlns="http://www.w3.org/2000/svg" id="Layer_1" x="0" y="0" enable-background="new 0 0 360 360" version="1.1" viewBox="0 0 360 360" xml:space="preserve"><path fill="#ffa30f" d="M229.5329437,188.881073l-12.4210663-6.302124l-1.0088654-31.7034454l-7.2000732-21.0097656    l2.8599854-0.5400391l1.4699707-13.2602539l2.6600342-23.9199219c0,0,4.1800537,4.6201172,6.9000244,12.6303711    c2.3400879,6.8896484,10.0800781,38.6196289,10.8800049,42.2397461    C234.6729584,151.4555817,229.5329437,188.881073,229.5329437,188.881073z" class="color3b6aeb svgShape"/><path fill="#d66a29" d="M217.2223053,153.6029816c-2.8059692,0.7355499-5.8471375-19.4325104-5.9604187-19.8123322    l1.9691315-17.7278061c0.2662506-0.6971893-0.0400238-1.3347015,0.2262573-2.0314636    C213.4572754,114.0313797,215.8172302,146.7269745,217.2223053,153.6029816z" class="color295bd6 svgShape"/><path fill="#fbb890" d="M229.5329437,188.881073c0,0-6.2974854,18.2914581-10.3933411,19.7944336    s-5.5879669-12.7355652-5.5879669-12.7355652l2.5816345-8.5242004l0.9786072-4.836792L229.5329437,188.881073z" class="colorffa49d svgShape"/><path fill="#3e3830" d="M211.3229828,30.5854607c-0.8601074,1.3603516-1.9000244,2.6401367-3.2299805,3.550293     c-1.3300781,0.8999023-2.9899902,1.3999023-4.5700684,1.1298828c-2.1999512-0.3798828-3.9399414-2.2099609-4.7399902-4.2900391     c-0.7900391-2.0800781-0.7700195-4.3798828-0.5100098-6.5898438c0.3200684-2.7001953,1-5.4101563,2.5-7.6704102     c1.5-2.2597647,3.9100342-4.0297842,6.6101074-4.2597647l6.6298828,3.2001953     C215.0529633,20.7255974,214.0729828,26.1958122,211.3229828,30.5854607z" class="color30323e svgShape"/><path fill="#fbb890" d="M197.101532,86.6785355c0,0-13.9867554,2.3327026-14.2448578,2.0744781     c-0.2671356-0.2582245-8.1106567-20.3165817-8.1106567-20.3165817l0.4985046-16.9157753l2.5106049,0.6855507     l15.0373688,4.1220055l1.7895203,10.2028465v0.0086975l0.7389069,4.1846008L197.101532,86.6785355z" class="colorffa49d svgShape"/><path fill="#f6ad82" d="M194.582016,66.5310593v0.0086975c0,0-11.5205994,1.3089371-16.150238-10.3806496     c-0.6142578-1.5671616-0.8101044-2.8669701-0.676651-3.9528999l15.0373688,4.1220055L194.582016,66.5310593z" class="colorf68b82 svgShape"/><path fill="#fbb890" d="M197.960022,64.3007584c-2.1022644,0.7274323-6.3340302,0.7163315-8.4249115,0.1819992     c-8.1250458-2.0341415-13.3364105-11.693264-14.2910614-12.9661293     c-0.0567322-0.0682487-0.0908661-0.1137466-0.1022339-0.1359444     c-6.2727814-2.5002289-11.4545441-12.0683517-7.4203796-15.2616081c5.5567169-4.3751259,9.1816559,1.7383957,9.1816559,1.7383957     s4.3751221-1.2384644,4.3751221-7.1133919c0-5.8638325-2.2272339-8.5227547,5.2158966-8.5227547     c5.2272644,0,13.6138,2.8065166,19.0569,2.5002289c0.0453644,0.249691,0.1022339,0.4993801,0.1477356,0.7612782     c0.306839,1.5908031,0.5340576,3.3408527,0.7045441,5.1929989     C207.5510254,43.698555,205.2327881,61.7100868,197.960022,64.3007584z" class="colorffa49d svgShape"/><path fill="#1e1e1d" d="M200.8436737 34.9675941c-.0756836 0-.152832-.0231934-.21875-.0710449-.1674805-.1210938-.2060547-.3544922-.0854492-.5224609.0361328-.0500488.8999023-1.2314453 2.2363281-1.3598633.8037109-.0756836 1.5908203.2390137 2.3349609.9411621.1508789.1420898.1577148.3793945.015625.5300293-.1420898.1503906-.3803711.1574707-.5302734.0153809-.578125-.545166-1.1655273-.7939453-1.7441406-.7404785-.9956055.0930176-1.6967773 1.0429688-1.7041016 1.0524902C201.0746307 34.9138832 200.9598846 34.9675941 200.8436737 34.9675941zM188.9540253 34.8604164c-.0756836 0-.1523438-.0229492-.2182617-.0705566-.168457-.1208496-.206543-.3552246-.0859375-.5234375.0361328-.0500488.9003906-1.2316895 2.2368164-1.3598633.8066406-.0761719 1.5908203.2392578 2.3344727.940918.1508789.1420898.1577148.3793945.015625.5300293-.1420898.1503906-.3798828.1574707-.5302734.0153809-.5791016-.5466309-1.1660156-.7954102-1.7485352-.7397461-1.0014648.0959473-1.6918945 1.041748-1.6987305 1.0512695C189.1859589 34.8062172 189.0707245 34.8604164 188.9540253 34.8604164z" class="color1e1d1e svgShape"/><path fill="#fbb890" d="M205.5510101,24.7215538c-5.4431,0.3062878-13.8296356-2.5002289-19.0569-2.5002289     c-7.4431305,0-5.2158966,2.6589222-5.2158966,8.5227547c0,5.8749275-4.3751221,7.1133919-4.3751221,7.1133919     s-0.7498932-9.7956181,1.6138306-15.6477985c2.7612915-6.8631487,16.6704254-8.2614126,23.3750153-5.0337524     C203.4828796,17.9482956,204.7328644,20.7781162,205.5510101,24.7215538z" class="colorffa49d svgShape"/><path fill="#d17705" d="M199.0302887,52.7099609l0.0041656,0.1430664c-0.0043793,1.7420731-0.9516449,3.2801628-2.3608551,4.1039352     c-0.6723328,0.3834915-1.4372253,0.6151886-2.2524719,0.6389542c-2.015564,0.0587578-3.7819366-1.1574478-4.5165558-2.9108124     c-0.2127838-0.4901123-0.3386383-1.0263596-0.3660431-1.588089l-0.0032196-0.1102562     c-0.0028839-0.0989647,0.0276184-0.1881332,0.0250549-0.2763405c3.4468536-0.5085182,6.67099-0.7123222,9.4288177-0.2748718     C199.0027771,52.5234337,199.0274048,52.6109962,199.0302887,52.7099609z" class="colora1172f svgShape"/><path fill="#ffffff" d="M199.0302887,52.7099609l0.0041656,0.1430664c-3.4178162,1.1859283-6.4556885,1.0026474-9.4959259,0.243988     l-0.0032196-0.1102562c-0.0028839-0.0989647,0.0276184-0.1881332,0.0250549-0.2763405     c3.4468536-0.5085182,6.67099-0.7123222,9.4288177-0.2748718     C199.0027771,52.5234337,199.0274048,52.6109962,199.0302887,52.7099609z" class="colorfff svgShape"/><path fill="#fb600a" d="M196.6735992,56.9569626c-0.6723328,0.3834915-1.4372253,0.6151886-2.2524719,0.6389542     c-2.015564,0.0587578-3.7819366-1.1574478-4.5165558-2.9108124c1.3437042-0.7997932,3.0496674-0.8936691,4.538208-0.1323013     C195.4834747,55.0844536,196.2585602,55.9549026,196.6735992,56.9569626z" class="colorf43f62 svgShape"/><path fill="#f6ad82" d="M197.7606659,47.6607094c-0.0449219,0-0.090332-0.001709-0.1352539-0.0053711     c-0.206543-0.0168457-0.3603516-0.1977539-0.3432617-0.4040527c0.0166016-0.206543,0.2006836-0.355957,0.4038086-0.3435059     c0.3291016,0.027832,0.6479492-0.1193848,0.9277344-0.4072266c0.3862305-0.3977051,0.5893555-0.9802246,0.5297852-1.5205078     c-0.0517578-0.4675293-0.2548828-0.8996582-0.4697266-1.3574219c-0.078125-0.1665039-0.15625-0.3327637-0.2275391-0.5012207     c-0.9848633-2.331543-0.6811523-5.0856934-0.4365234-7.2990723c0.0229492-0.2055664,0.2138672-0.3530273,0.4135742-0.331543     c0.2060547,0.0227051,0.3544922,0.2080078,0.331543,0.4140625c-0.234375,2.1264648-0.5268555,4.7731934,0.3818359,6.9243164     c0.0678711,0.1594238,0.1416016,0.3168945,0.2158203,0.4746094c0.2314453,0.4929199,0.4707031,1.0026855,0.5361328,1.59375     c0.0849609,0.7685547-0.1904297,1.5632324-0.7368164,2.1257324     C198.7489471,47.4375648,198.2596893,47.6607094,197.7606659,47.6607094z" class="colorf68b82 svgShape"/><ellipse cx="202.811" cy="38.639" fill="#1e1e1d" rx="1.29" ry="2.241" transform="rotate(-1.67 202.811 38.639)" class="color1e1d1e svgShape"/><ellipse cx="191.439" cy="38.619" fill="#1e1e1d" rx="1.29" ry="2.241" transform="rotate(-1.67 191.439 38.619)" class="color1e1d1e svgShape"/><path fill="#3e3830" d="M213.4329681,11.6157351c3.7952881,5.8486319,0.752655,13.5973196-11.7750244,16.6201172     c-5.2967377,1.2780457-20.0625-6.0145264-20.375,2.5097656c-0.2150574,5.8661766-4.3800049,7.1098633-4.3800049,7.1098633     s-3.6199951-6.1098633-9.1800537-1.7397461c-4.039917,3.199707,1.1501465,12.7597656,7.4200439,15.2700195     c0.0100098,0.0200195,0.0400391,0.0600586,0.0999756,0.1298828l-0.3199463,11.2099609c0,0,0,0-0.0100098-0.0102539     c-0.5699463-0.4794922-23.1199951-21.2797852-16.4899902-30.9296875     c-1.5200195-10.5097656,2.3699951-29.1601563,20.6400146-25.6601563     c4.8100586,0.9199219,10.6099854,1.800293,18.5899658-0.4697266     C205.6429291,3.3755004,209.2829437,7.4458132,213.4329681,11.6157351z" class="color30323e svgShape"/><path fill="#fbb890" d="M203.0491028,326.594696l-0.5531311,14.7764282      c-0.1691284,3.0152588,15.1665497,2.1309814,15.3356781-0.8843079l1.3427582-13.3849792L203.0491028,326.594696z" class="colorffa49d svgShape"/><path fill="#3e3830" d="M234.7852173,355.0003357c1.7331848,0,2.3431854-1.6376343,2.5476074-3.3708191           c0.1991882-1.6887512-1.055481-2.3987122-1.8505707-2.7108459l-2.7898407-1.1264648l-13.9687958-5.700531           l-0.8919525-1.60495c-3.9663544,3.5098572-14.096344,0.2467957-15.3356934,0.8843994l-1.1518402,11.3015137           c-0.128952,1.2923279,0.8032837,2.3276978,2.0958405,2.3276978H234.7852173z" class="color30323e svgShape"/><path fill="#fbb890" d="M157.990799,326.594696l-0.5531158,14.7764282      c-0.1691437,3.0152588,15.1665344,2.1309814,15.3356628-0.8843079l1.3427734-13.3849792L157.990799,326.594696z" class="colorffa49d svgShape"/><path fill="#3e3830" d="M189.7269135,355.0003357c1.7331848,0,2.3431854-1.6376343,2.5476074-3.3708191           c0.1991882-1.6887512-1.0554657-2.3987122-1.8505707-2.7108459l-2.7898407-1.1264648l-13.9687958-5.700531           l-0.8919525-1.60495c-3.9663544,3.5098572-14.096344,0.2467957-15.3356781,0.8843994l-1.1518555,11.3015137           c-0.128952,1.2923279,0.8032837,2.3276978,2.0958405,2.3276978H189.7269135z" class="color30323e svgShape"/><path fill="#73614b" d="M226.4494324,265.7709656l-4.5441742,66.2640991c0,2.176239-21.8101349,2.176239-21.8101349,0     l-2.722641-31.5116882l-1.9748383-28.5785217l-14.96521-66.1400604l5.330368-20.9375763l4.0744171-16.0102692     l25.031311,7.3820801l11.4179993,86.7134552C226.497406,264.5243835,226.5453949,264.189209,226.4494324,265.7709656z" class="color4b5173 svgShape"/><path fill="#60503c" d="M193.6047974,249.1760254c3.0406036,15.0316162,4.7797546,32.2552185,3.7676849,51.3473511     l-1.9748383-28.5785217l-14.96521-66.1400604l5.330368-20.9375763c2.9048462-4.1418304,6.1930847-8.0144958,9.4717102-11.8782806     h-3.8874054c2.3872375,8.0912781,6.9648743,19.8927612,4.6544037,28.0032196     c-2.3199463,8.1104584-5.330246,16.1539764-5.6849518,24.5808716     C189.9809265,233.5397797,192.023056,241.3721771,193.6047974,249.1760254z" class="color3c4660 svgShape"/><path fill="#73614b" d="M194.6225433,174.1657562c-2.9483337-9.827774-38.6479187-3.0120087-38.6479187-3.0120087     s-5.4721832,12.24646-5.4721832,43.8829651c0,14.7825165,3.9325104,83.8716736,4.6542206,116.9978943     c0,2.1738892,21.5704651,2.1738892,21.5704651,0l11.39711-114.9030457     C188.1242371,217.1315613,198.2137146,186.1363373,194.6225433,174.1657562z" class="color4b5173 svgShape"/><path fill="#3e3830" d="M155.9745636,165.5723877l-0.2507782,6.7935028c0,0,17.736496,4.5937042,41.3356171,4.5937042     c12.2012024,0,17.806076-0.7190094,17.806076-0.7190094v-6.7351532     C197.1777496,170.9467468,177.219223,169.1712036,155.9745636,165.5723877z" class="color30323e svgShape"/><path fill="#ffa30f" d="M214.6288605,136.7123718l0.2396698,32.7966461     c-0.0383911,1.3036957-8.1009827,1.7830353-18.2438507,1.6201324c-1.744751-0.0285645-3.5472107-0.076767-5.3878174-0.1437073     c-16.4031219-0.584671-35.3371887-2.6172028-35.2701416-5.4164886l-0.4025726-6.6153259c0,0,0-0.0093536,0-0.0187225     l-1.4668121-24.101532c0,0-1.7927399-8.1488342-3.7293091-17.7740936     c-2.6555939-13.1917801-5.5699158-29.1538315-4.4867096-30.6686325     c4.0936127-5.7039032,23.6029968-10.7276535,23.6029968-10.7276535l5.128952-7.3530579     c4.3715515,7.4106369,9.2609406,12.0180435,15.8757935,16.0540848c0.1246338,0.076767,0.2492676,0.1535416,0.3643036,0.2204742     c1.0353394-0.7667618,1.9078979,0.425705,2.6555786-0.4754105c2.8664703-3.4607239,2.1152344-7.7935867,1.9523315-12.5486374     l3.5470886,7.8707886c0,0,14.5068665,7.7465591,17.1912384,12.7604752     C218.9414368,97.3207855,214.6288605,136.7123718,214.6288605,136.7123718z" class="color3b6aeb svgShape"/><path fill="#d66a29" d="M158.6702881,121.5554657c-3.4992371,10.1715393-3.3650055,29.0864258-3.1061401,37.3794403     l-1.4668121-24.101532c0,0-1.7927399-8.1488342-3.7293091-17.7740936l8.3022614-14.6869202     C158.6702881,102.3723602,163.2528381,108.2775574,158.6702881,121.5554657z" class="color295bd6 svgShape"/><path fill="#d45d16" d="M191.2365265,170.9849091c1.2106781-16.0575714-1.1387634-85.8134384-1.1387634-85.8134384     l0.3897705-0.8106232c0.1232452,0.0821686,0.2462463,0.1538086,0.3694916,0.2254562     c1.0363159-0.7695389,1.9083099,0.4259338,2.6472931-0.4768753c0.5025024,1.0465927,0.9949799,2.4113159,0.9949799,3.7449799     c0,2.4418793,1.8061066,70.9617081,2.1239929,83.2742844     C194.8790588,171.097641,193.0731964,171.0565491,191.2365265,170.9849091z" class="color162ad4 svgShape"/><path fill="#ffa30f" d="M145.8851776,86.3845673c-6.8989716,6.8989639-25.544075,47.9818573-23.0028763,62.6946564     c2.4352188,14.0992432,19.5400009,40.9902954,19.5400009,40.9902954l10.3376465-13.9288025l-9.4481812-30.8177948     c0,0,17.2375031-24.2467957,15.8164673-40.2878113C158.1230774,93.6885529,145.8851776,86.3845673,145.8851776,86.3845673z" class="color3b6aeb svgShape"/><path fill="#fbb890" d="M151.0278168,178.4745789l1.5267181,2.8735199c0,0,6.5410614-1.3466797,9.5550842,0.7054138     s4.8734741,4.0172424,7.9131622,6.1883545c0.840332,0.6002045,2.1803589,3.655304-1.9238434,3.655304     s-5.1556549-1.3787537-5.1556549-1.3787537s-2.9182281,15.9721985-12.1660156,12.6982422l-4.1225128-10.1331177     l-3.3429871-4.1109619L151.0278168,178.4745789z" class="colorffa49d svgShape"/><path fill="#d45d16" d="M190.8570251 84.5863037l-6.2830811 6.8185196c-5.3387909-3.8978729-10.3031769-9.4302826-15.0895691-15.7399673l5.1302185-7.3564758C179.0677338 75.8599625 184.054184 80.5742874 190.8570251 84.5863037zM200.1495209 80.0696259l-2.1570129 12.0809555-7.1354828-7.5642776c5.0480804-3.7555008 4.8049469-7.0535812 4.5997772-13.0250015L200.1495209 80.0696259z" class="color162ad4 svgShape"/><g><path fill="#ffa30f" d="M192.4004059 92.1916504c-.4326172-.0054932-.7822418-.3643494-.7767487-.7964859.0054932-.4330978.3641052-.7824783.7967224-.7769852.4326324.0054932.7822418.3638687.7767487.7969666C193.1916351 91.84729 192.8330231 92.1971436 192.4004059 92.1916504zM192.6317902 101.0755463c-.4425812-.0056229-.7821198-.3638611-.7766266-.7964859.0054932-.4326172.3540192-.782608.7966156-.7769852.4327393.0054932.7723846.3642197.7668915.7968445C193.4131775 100.7315369 193.0645294 101.0810394 192.6317902 101.0755463zM193.9807281 154.3894653c-.4326324-.0054932-.782135-.3638611-.7766266-.7964783.0054932-.4326172.3639679-.7819977.7966003-.7765045.4327393.0054932.7822418.3638611.7767487.7964783C194.7719574 154.0455933 194.4134674 154.3949585 193.9807281 154.3894653zM193.7494507 145.5055695c-.4327393-.0054932-.7822418-.3638611-.7767334-.7969666.0056152-.442215.3639832-.7819977.7967224-.7765045.4424591.0056305.7822418.3542633.7766266.7964935C194.5405579 145.1616974 194.191925 145.5112 193.7494507 145.5055695zM193.0749969 118.8435745c-.4327393-.0055008-.7822418-.3638687-.7767487-.7964935.0054932-.4326172.3639832-.7824783.7967224-.7769775.4326324.0054932.7821198.3643417.7766266.7969589C193.8661041 118.4996872 193.5076141 118.8490677 193.0749969 118.8435745zM192.8533325 109.9598007c-.4326172-.0054932-.7821198-.3638687-.7766266-.7969666.0054932-.4326248.3639832-.7819977.7966003-.7765045.4327393.0054932.7822418.3638611.7767487.7964859C193.6445618 109.6159134 193.2860718 109.9652939 192.8533325 109.9598007zM193.3063812 127.727951c-.4425964-.0056229-.7823639-.3542633-.7767487-.7969666.0054932-.4326248.3541412-.7821274.7967224-.7765045.4327393.0054932.7821198.3638611.7766266.7964783C194.0973663 127.3936691 193.7391205 127.7334442 193.3063812 127.727951zM193.5279236 136.6117249c-.4326324-.0054932-.7823639-.3542633-.7767487-.7964935.0054932-.4326172.3639832-.7723999.7966003-.7669067s.7823639.3542633.7768707.7868958C194.3190308 136.2774353 193.9605408 136.617218 193.5279236 136.6117249zM194.9990997 162.4972229c-.0054779.4321289-.3641052.7819977-.7967224.7765045s-.7822266-.3643494-.7767487-.7964935c.0055084-.4331055.3641052-.7824707.7967377-.7769775C194.6549835 161.7057495 195.0046082 162.0641174 194.9990997 162.4972229z" class="color3b6aeb svgShape"/></g><g><path fill="#fff4ed" d="M199.7464752,177.8783417h-10.567276c-0.655838,0-1.1875-0.531662-1.1875-1.1875v-5.953598     c0-0.655838,0.531662-1.1875,1.1875-1.1875h10.567276c0.655838,0,1.1875,0.531662,1.1875,1.1875v5.953598     C200.9339752,177.3466797,200.4023132,177.8783417,199.7464752,177.8783417z" class="coloredf3ff svgShape"/></g><g><path fill="#73614b" d="M214.6334839,179.9867096c1.1808472,3.3048706,2.3616943,6.6097412,3.5425262,9.9146271    c1.2567596,3.517334,2.5203247,7.0610962,3.0856323,10.7532043c1.2150269,7.9354858-0.8865204,16.0625305-4.219696,23.3658447" class="color4b5173 svgShape"/></g></svg>