<svg xmlns="http://www.w3.org/2000/svg" enable-background="new 0 0 1459.029 1450.427" viewBox="0 0 1459.029 1450.427"><path fill="#ffa30f" d="M1163.116 1275.282c0 25.383-138.197 31.024-417.41 31.024-230.529 0-417.41-2.82-417.41-31.024 0-17.134 178.42-19.742 408.949-19.742s425.871 2.608 425.871 19.742z" class="colora0847d svgShape"/><path fill="#fb600a" d="M467.794 1022.471c41.346 10.527 71.449 23.799 74.827 26.258 3.378 2.459 18.959-9.592 35.901-16.898 16.942-7.305 52.843 3.99 102.458 9.637 49.616 5.647 149.25 17.345 157.721 15.732 8.471-1.613 47.259-9.681 66.388-14.925 19.129-5.244 54.223-17.02 58.257-19.805 4.034-2.785 68.575-16.903 74.625-16.903s12.908 62.12-58.49 109.719-237.591 148.847-250.902 137.149c-13.311-11.698-235.17-82.693-260.785-138.359-25.614-55.665 0-91.605 0-91.605z" class="colorafbfd0 svgShape"/><path fill="#e39a6f" d="M680.174 406.751c.403 45.582 5.244 87.534-27.43 91.164-27.159 3.018 22.992 94.794 56.473 112.946 33.481 18.152 65.751 37.918 91.971-4.034 26.22-41.951 34.779-113.23 34.779-113.23s-24.185-5.472-26.334-24.396c-2.148-18.924 5.173-58.819 5.173-58.819l-134.632-3.631zM1002.071 1011.831c38.337-14.691 64.524-23.282 75.827-25.261 11.303-1.978 42.363 3.266 58.498 28.275 16.135 25.01 17.345 56.473 12.101 77.449-5.244 20.976-39.531 52.439-54.86 63.734-15.328 11.295-72.608 60.104-72.608 60.104s10.891.403 15.732 14.925c4.841 14.522.807 23.799-4.034 29.043s-24.203 4.034-24.203 4.034 5.244 3.227 9.278 13.311c4.034 10.085-3.63 23.799-3.63 23.799s1.008 11.9-1.21 17.95c-2.219 6.051-7.664 9.278-7.664 9.278s2.622 3.227 1.614 7.059c-1.009 3.832-3.429 26.018-17.144 25.816s-22.186-10.69-26.421-13.11c-4.235-2.42-43.565-9.681-55.364-12.404-11.799-2.723-29.043 1.513-39.027-1.815-9.984-3.328-21.782-6.353-26.018-6.656-4.235-.303-15.732 11.496-33.884 6.051-18.152-5.446-44.17-20.875-74.827-29.346-30.657-8.471-49.212-8.168-49.212-8.168s-25.816 23.497-62.121 27.531c-36.304 4.034-56.877 33.077-80.272 28.237-23.396-4.84-26.018-3.227-29.044-7.059-3.025-3.832-2.622-9.681-2.622-9.681s-5.849-2.622-8.874-10.891c-3.026-8.269 1.21-14.118 1.21-14.118s-4.437-8.471.605-16.74c5.042-8.269 11.295-12.101 11.295-12.101s-2.622-14.522-1.412-20.774l1.21-6.252s-24.404-5.446-53.448-24.203c-29.043-18.757-45.582-44.977-57.078-54.053-11.496-9.076-41.649-25.11-64.036-42.052s-27.732-61.213-22.488-88.643 17.345-35.094 30.657-42.758c13.311-7.664 46.858-16.97 56.103-16.149 9.245.821 49.583 23.813 74.592 45.596 25.009 21.782 27.026 37.514 27.026 37.514s31.554 6.006 59.297 23.799c37.637 24.139 59.297 45.985 87.534 66.558 28.237 20.572 70.995 43.161 70.995 43.161s24.203.403 58.087-22.186 69.381-80.272 154.091-119.4c14.357-6.631 30.657-4.034 30.657-4.034s3.63-12.101 8.068-23.799c4.435-11.699 24.356-20.548 27.024-21.571z" class="colore3916f svgShape"/><path fill="#d09e5f" d="M951.645 1060.519a3.318 3.318 0 0 1-.648-6.57c.262-.055 26.317-5.286 46.506-11.225a3.319 3.319 0 0 1 1.872 6.366c-20.478 6.023-46.815 11.312-47.077 11.364a3.221 3.221 0 0 1-.653.065zM855.395 1246.343c-1.204 0-2.082-.029-2.582-.092-2.421-.303-5.787-2.042-11.528-5.093-6.823-3.624-15.311-8.135-21.845-9.143-4.465-.686-11.359-.334-18.656.046-11.498.593-23.387 1.207-31.041-1.74-12.778-4.914-35.29-17.649-51.926-27.466a3.32 3.32 0 0 1-1.171-4.543 3.32 3.32 0 0 1 4.544-1.172c23.209 13.697 41.297 23.281 50.935 26.988 6.342 2.44 18.016 1.841 28.317 1.305 7.646-.389 14.871-.769 20.007.026 7.643 1.175 16.684 5.98 23.947 9.837 3.526 1.872 7.911 4.206 9.24 4.37 4.401.533 58.985-2.673 82.32-8.207 8.695-2.062 15.72-3.995 21.364-5.548 10.119-2.785 16.802-4.626 23.373-4.626 7.475 0 23.575-5.104 29.148-7.072a3.318 3.318 0 0 1 2.207 6.257c-.861.305-21.224 7.452-31.355 7.452-5.672 0-12.015 1.746-21.613 4.387-5.695 1.567-12.781 3.517-21.591 5.608-21.469 5.093-69.518 8.426-82.094 8.426zM699.536 1299.218c-3.971 0-78.29-26.357-91.293-34.379-2.293-1.414-4.606-2.932-7.017-4.517-12.147-7.985-27.266-17.92-55.877-23.644a3.317 3.317 0 0 1-2.603-3.903c.359-1.795 2.088-2.981 3.905-2.601 29.875 5.974 45.592 16.304 58.22 24.603 2.355 1.547 4.615 3.033 6.856 4.416 13.38 8.255 84.358 32.383 88.361 33.434a3.318 3.318 0 0 1-.552 6.591zM792.759 1330.498a3.313 3.313 0 0 1-2.669-1.343c-10.31-13.907-20.422-23.482-20.522-23.577a3.32 3.32 0 0 1-.141-4.692 3.323 3.323 0 0 1 4.69-.141c.429.403 10.625 10.05 21.306 24.459a3.319 3.319 0 0 1-2.664 5.294z" class="colord0755f svgShape"/><path fill="#d09e5f" d="M821.357 1226.621c-17.271 1.953 16.954 9.216 18.233 9.889 1.28.673 28.178 7.165 29.769 6.519 1.591-.646 57.386-5.857 67.365-8.342 9.979-2.483 49.792-10.302 56.297-12.019 6.506-1.717 20.345-4.923 28.009-6.536 0 0 51.295-43.709 69.782-57.963-71.799 28.113-252.184 66.496-269.455 68.452zM581.535 1246.669s-41.434-23.074-58.377-29.428c-16.942-6.353-68.372-10.286-80.172-13.311-4.411-1.131-11.234-3.659-18.048-6.38 9.459 10.439 21.278 22.398 36.604 32.296 29.043 18.758 53.448 24.203 53.448 24.203l-.288 1.489c8.456-21.053 24.794-21.053 31.752-18.936 6.958 2.119 35.081 10.067 35.081 10.067zM670.796 1285.01c-2.421-1.21-42.816-14.734-42.816-14.734 16.701 6.402 23.553 30.297 24.803 45.224 19.765-8.276 32.233-19.599 32.233-19.599s9.443-.136 25.924 2.832l.01-.005c-.001 0-37.735-12.509-40.154-13.718zM1150.67 1057.161c-1.465-14.25-5.793-29.171-14.274-42.315-16.135-25.01-47.195-30.254-58.497-28.275-7.994 1.398-23.464 6.12-45.377 13.953 37.306-5.03 106.165 35.249 118.148 56.637zM452.033 1011.239c-20.425-13.691-41.055-24.49-47.335-25.048-9.245-.82-42.791 8.485-56.102 16.149-10.858 6.252-20.908 12.512-27.09 29.491 24.673-18.799 101.459-30.24 130.527-20.592z" class="colord0755f svgShape"/><path fill="#e39a6f" d="M451.054 772.011c-15.732 54.456-24.606 96.811-33.077 106.492-8.471 9.681-12.505 7.261-27.833 16.942-15.328 9.681-23.799 20.572-23.799 20.572s-9.076-16.135-10.891-18.152c-1.815-2.017-1.614-4.639-1.21-6.454.403-1.815-.807-11.295-2.622-12.303-1.815-1.008-14.925-12.706-20.572-12.908-5.647-.202-20.371 14.723-23.396 20.371-3.025 5.647 1.412 24.808 1.412 24.808s-24.203 22.992-30.253 29.447c-6.051 6.454-6.454 15.933-5.446 20.976 1.009 5.042 15.53 9.479 17.345 12.102 1.815 2.622 3.429 17.95 6.656 21.581 3.227 3.63 20.572.202 22.589 1.815 2.017 1.614 4.236 7.664 12.303 10.286 8.068 2.622 24.001 3.026 26.825 2.824 2.824-.202 11.9 2.219 17.749 4.235 5.849 2.017 16.942-9.076 19.766-14.32 2.824-5.244 6.857-11.295 6.857-11.295l10.41 7.387c11.147 7.911 25.18 10.798 38.451 7.522a105.623 105.623 0 0 0 18.504-6.439c22.993-10.488 42.758-58.087 47.195-70.188 4.437-12.101 47.599-146.83 47.599-146.83s-23.396 7.261-62.927 6.051c-39.534-1.21-51.635-14.522-51.635-14.522z" class="colore3916f svgShape"/><path fill="#fbb890" d="M394.178 968.255c-6.051 0-13.109 17.95-16.942 22.185-3.832 4.236-18.555 2.421-18.152 1.816.404-.605 15.934-26.018 19.363-35.699 3.429-9.681-10.085-18.151-18.152-11.495-8.068 6.656-32.27 45.985-33.683 45.178-1.412-.807-7.059-3.226-4.84-5.848 2.219-2.622 40.466-52.641 41.208-58.692.743-6.051-10.595-18.155-17.409-12.707-2.317 1.852-7.164 6.425-12.534 11.634 9.757-9.85 19.166-19.667 20.199-21.92 2.218-4.84-4.404-14.491-10.471-13.498-2.852.468-18.268 8.079-34.581 17.845.478 2.577.882 4.327.882 4.327s-24.203 22.993-30.253 29.446c-6.051 6.455-6.455 15.934-5.446 20.976 1.008 5.043 15.53 9.479 17.345 12.102 1.815 2.622 3.429 17.951 6.656 21.581 3.228 3.631 20.573.201 22.59 1.815 2.017 1.613 4.236 7.664 12.304 10.286 8.067 2.622 24.001 3.025 26.824 2.823 2.824-.201 11.9 2.218 17.749 4.235 5.849 2.017 16.942-9.076 19.766-14.32 2.823-5.243 6.857-11.295 6.857-11.295 4.233-12.101-3.23-20.775-9.28-20.775z" class="colorf39e7f svgShape"/><path fill="#d09e5f" d="M310.176 913.487a3.314 3.314 0 0 1-2.588-1.242 3.315 3.315 0 0 1 .51-4.663c24.191-19.418 32.249-21.91 36.566-21.91a3.319 3.319 0 0 1 0 6.636c-3.166 0-11.358 3.546-32.412 20.446a3.298 3.298 0 0 1-2.076.733zM304.425 958.565a3.317 3.317 0 0 1-2.437-5.569c14.365-15.561 46.888-50.199 47.215-50.545a3.318 3.318 0 0 1 4.69-.15 3.32 3.32 0 0 1 .147 4.69c-.327.349-32.829 34.964-47.175 50.505a3.31 3.31 0 0 1-2.44 1.069zM467.796 902.898a3.308 3.308 0 0 1-2.505-1.141c-.047-.055-6.045-6.695-23.223-15.567a3.318 3.318 0 0 1-1.426-4.471 3.308 3.308 0 0 1 4.471-1.423c18.505 9.557 24.921 16.802 25.184 17.104a3.316 3.316 0 0 1-.327 4.681 3.288 3.288 0 0 1-2.174.817z" class="colord0755f svgShape"/><path fill="#efe2da" d="M652.744 489.645c-22.993 20.169-91.164 56.473-111.333 67.365-20.169 10.891-34.287 13.715-40.741 17.749-6.454 4.034-16.942 23.799-27.43 59.297-10.488 35.497-18.555 84.306-18.152 93.181.403 8.874-6.857 30.657-8.874 33.884-2.017 3.227-5.775.807 7.802 13.312 13.577 12.505 103.531 13.715 103.531 13.715s-11.863 58.893-3.309 80.676c8.553 21.782 12.184 46.792 5.73 58.893-6.454 12.102 8.874 39.128 9.278 44.775.403 5.647-32.159 31.464-29.593 43.968 2.566 12.505 8.214 15.478 13.054 20.647 4.84 5.169 39.128-8.949 66.558 1.942 27.43 10.891 84.71 6.857 123.838 14.118s139.973 9.602 161.352 3.994c21.379-5.608 54.456-25.023 56.07-35.485 1.613-10.461-13.559-43.135-25.94-52.413-12.381-9.278-22.465-3.227-22.465-23.799s24.606-35.497 25.009-48.809c.403-13.312-2.544-115.593-2.544-115.593s100.566-11.788 112.667-16.067c0 0-7.261-102.3-23.396-141.428s-33.884-62.121-81.483-82.693c-47.599-20.572-100.441-41.145-104.475-46.389 0 0-8.068 42.355-27.833 73.819-19.766 31.464-60.91 53.246-66.961 52.843-6.051-.403-55.263-28.237-71.802-65.348-16.541-37.11-18.558-66.154-18.558-66.154z" class="colorefe4da svgShape"/><path fill="#e39a6f" d="M934.582 781.063c17.749 55.263 45.303 119.828 60.631 155.427 15.328 35.598 40.338 58.188 45.179 60.608 4.84 2.42 21.379-6.858 33.48-10.085 12.101-3.227 35.094 10.88 37.918 10.483 2.824-.398 54.961-13.71 61.364-24.601 6.404-10.891 12.927-57.56 13.261-61.81.334-4.25 1.613-37.018-4.841-46.7-6.454-9.681-22.388-5.244-27.934-2.017-5.547 3.227-20.068 39.128-20.068 39.128s-25.413-12.693-37.111-20.667c-11.698-7.973-16.942-10.393-18.152-13.217-1.21-2.824-35.497-100.442-37.514-102.459-2.017-2.016-106.213 15.91-106.213 15.91z" class="colore3916f svgShape"/><path fill="#d09e5f" d="M1168.159 893.37a3.318 3.318 0 0 1-.596-6.582c1.302-.389 5.076-4.171 7.936-7.956a3.31 3.31 0 0 1 4.646-.648 3.316 3.316 0 0 1 .648 4.646c-2.192 2.904-7.757 9.742-12.064 10.491-.19.031-.383.049-.57.049zM1035.15 897.149a3.308 3.308 0 0 1-2.587-1.239 3.315 3.315 0 0 1 .504-4.663c.614-.496 15.224-12.167 31.009-16.736a3.315 3.315 0 0 1 4.108 2.264 3.315 3.315 0 0 1-2.264 4.108c-14.483 4.194-28.552 15.419-28.693 15.532a3.316 3.316 0 0 1-2.077.734z" class="colord0755f svgShape"/><path fill="#fbb890" d="M1212.837 954.944c4.941-16.034-13.11-34.892-18.152-39.733-5.042-4.841-24.606-27.215-33.48-34.382-8.874-7.167-17.95-3.523-19.766 0-1.815 3.523-1.815 4.935-1.815 4.935s-6.065-5.092-12.505 0c-8.673 6.858 4.437 33.48 4.437 33.48s-5.244-9.479-13.11-11.093c-7.866-1.614-11.9 8.471-8.874 14.723 3.025 6.252 21.177 58.893 20.169 58.087-1.009-.807-11.9-6.252-14.522-9.479-2.622-3.227-1.008-20.169-4.034-27.833-3.026-7.664-14.522-9.076-17.95 8.471-3.429 17.547-3.025 37.716 0 44.17 3.025 6.454 27.027 15.127 32.472 15.53 5.446.404 13.715-10.689 16.539-10.689s13.513 1.21 16.942-.605c3.429-1.815 8.673-8.269 10.488-9.479 1.815-1.21 8.673.605 16.337-4.639s6.454-18.354 9.278-20.169c2.823-1.816 15.427-4.419 17.546-11.295z" class="colorf39e7f svgShape"/><path fill="#d09e5f" d="M1179.358 939.807a3.307 3.307 0 0 1-2.688-1.371c-10.376-14.305-27.616-37.689-30.128-40.106a3.322 3.322 0 0 1-.925-4.327 3.316 3.316 0 0 1 4.525-1.236c.749.426 2.739 1.564 31.896 41.773a3.314 3.314 0 0 1-.737 4.632 3.275 3.275 0 0 1-1.943.635zM1157.576 961.287a3.312 3.312 0 0 1-2.791-1.521c-.15-.23-15.01-23.298-29.511-46.947a3.321 3.321 0 0 1 1.094-4.563 3.316 3.316 0 0 1 4.563 1.094c14.457 23.583 29.284 46.59 29.43 46.821a3.316 3.316 0 0 1-2.785 5.116z" class="colord0755f svgShape"/><path fill="#e3d2c8" d="M557.547 791.464a3.32 3.32 0 0 1-3.156-2.293c-13.158-40.462-16.023-69.591-18.326-92.995-.948-9.631-1.766-17.947-3.162-25.627-4.728-25.998-18.44-60.739-18.577-61.088a3.316 3.316 0 0 1 1.861-4.307 3.313 3.313 0 0 1 4.306 1.861c.573 1.444 14.093 35.706 18.937 62.346 1.446 7.946 2.276 16.389 3.238 26.164 2.271 23.085 5.097 51.817 18.034 91.594a3.319 3.319 0 0 1-3.155 4.345z" class="colore3d4c8 svgShape"/><path fill="#e3d2c8" d="M543.92 723.014a3.32 3.32 0 0 1-3.007-4.718c.121-.262 12.118-26.668 9.674-71.135a3.317 3.317 0 0 1 3.131-3.494c1.789-.101 3.395 1.299 3.494 3.131 2.544 46.269-9.762 73.182-10.286 74.305a3.317 3.317 0 0 1-3.006 1.911zM934.587 792.473a3.315 3.315 0 0 1-3.291-3.768c4.656-34.032 16.783-68.293 25.635-93.31 3.356-9.483 6.254-17.672 8.071-23.943 6.55-22.635 12-46.178 12.055-46.413a3.323 3.323 0 0 1 3.978-2.487 3.317 3.317 0 0 1 2.486 3.979c-.055.237-5.542 23.95-12.147 46.766-1.869 6.458-4.796 14.732-8.186 24.312-8.76 24.747-20.751 58.636-25.319 91.995a3.318 3.318 0 0 1-3.282 2.869z" class="colore3d4c8 svgShape"/><path fill="#e3d2c8" d="M952.864 720.505a3.318 3.318 0 0 1-1.844-6.078c.207-.14 21.146-14.267 39.011-38.282a3.318 3.318 0 1 1 5.323 3.961c-18.585 24.982-39.76 39.246-40.653 39.842a3.302 3.302 0 0 1-1.837.557zM846.807 1054.464c-33.537 0-78.339-5.3-125.563-15.195-11.356-2.379-20.563-4.447-27.96-6.109-34.435-7.74-38.035-8.547-92.712-4.116-1.793.187-3.426-1.213-3.575-3.039a3.318 3.318 0 0 1 3.039-3.575c55.682-4.508 59.377-3.682 94.702 4.254 7.376 1.659 16.556 3.722 27.865 6.093 64.896 13.596 124.919 18.455 156.65 12.689a3.316 3.316 0 0 1 3.857 2.67 3.315 3.315 0 0 1-2.67 3.857c-9.137 1.662-20.526 2.471-33.633 2.471z" class="colore3d4c8 svgShape"/><path fill="#e39a6f" d="M817.987 372.479c-2.286 29.009-8.88 102.616-8.88 102.616s-35.925 42.17-61.329 45.775c-25.404 3.605-57.134-51.134-56.88-53.488.255-2.355.634-77.27.634-77.27l126.455-17.633z" class="colore3916f svgShape"/><path fill="#493f33" d="M657.09 354.748c-13.485-28.891-23.865-76.118-6.571-95.074 3.359-3.683 12.479-11.469 21.548-26.073 7.075-11.393 5.654-13.304 10.499-19.153 12.557-15.158 32.562-19.439 42.767-20.247 9.907-.785 28.874.411 46.131 9.261 10.306 5.285 16.145 9.517 27.2 8.248 7.627-.875 9.592-1.707 15.076-.866 13.817 2.119 8.882 10.126 22.004 24.542 7.158 7.865 8.091 6.629 11.857 11.583 8.364 11.008 9.019 24.037 9.045 34.689.115 45.536.172 68.304-11.788 94.549-9.43 20.693-41.746 56.164-74.847 65.7-49.906 14.378-90.873-39.92-112.921-87.159z" class="color493333 svgShape"/><path fill="#161514" d="M807.485 450.277c-31.718 43.62-60.992 57.076-77.409 54.527-39.179-6.082-48.086-64.232-46.611-66.852 1.474-2.62 124.02 12.325 124.02 12.325z" class="color141516 svgShape"/><path fill="#e39a6f" d="M809.427 256.13c13.161 7.746 11.749 67.578 11.355 82.227-.393 14.648 4.74 25.924 10.044 20.939 5.304-4.985 8.678-14.149 17.004-14.043 8.327.107 6.512 20.557.634 38.185-5.878 17.629-19.01 28.914-22.022 27.397-3.012-1.517-5.587-4.972-5.587-4.972s-5.371 29.198-12.394 42.732c-7.023 13.534-38.082 36.38-60.441 37.535-22.36 1.155-35.75-3.898-38.281-5.828-7.886-6.015-29.177-45.939-32.741-57.044-3.563-11.106-3.669-17.47-3.669-17.47s-8.401 4.253-11.859-.489-13.925-36.447-12.906-45.866c1.019-9.419 16.367-8.156 18.817-5.112 2.45 3.044.905-48.739 3.515-65.53 2.61-16.791 16.984-35.883 31.834-41.026 14.85-5.143 18.398 1.204 46.32 8.584 21.618 5.713 37.233-13.84 60.377-.219z" class="colore3916f svgShape"/><path fill="#d17705" d="M667.405 358.227c.183 14.468 2.604 36.035 1.84 37.59-.764 1.555-7.194-.48-12.285-19.494-5.09-19.014 10.437-18.738 10.445-18.096zM841.573 359.962c4.292-3.454 7.919 8.003 1.156 20.97-6.763 12.967-13.243 16.435-14.412 13.48-1.169-2.956 5.102-27.887 13.256-34.45z" opacity=".57" class="colorcd5d4c svgShape"/><path fill="#d17705" d="M739.031 399.893c-6.032 0-10.523-2.967-10.772-3.135a3.478 3.478 0 1 1 3.891-5.767c.193.128 5.3 3.399 10.898 1.178a3.479 3.479 0 1 1 2.567 6.467 17.743 17.743 0 0 1-6.584 1.257z" class="colorcd5d4c svgShape"/><path fill="#ffffff" d="M767.13 419.111c-26.736 4.851-52.196-2.087-52.196-2.087s1.115 14.384 22.138 18.246c21.023 3.861 30.058-16.159 30.058-16.159z" class="colorfff svgShape"/><path fill="#493f33" d="M798.51 330.801c-.729 0-1.466-.16-2.165-.498-11.221-5.431-25.226-8.709-25.366-8.742a4.977 4.977 0 0 1-3.726-5.97c.622-2.677 3.305-4.335 5.969-3.727.616.143 15.212 3.553 27.459 9.481a4.975 4.975 0 0 1 2.311 6.647 4.974 4.974 0 0 1-4.482 2.809zM683.316 328.403a4.975 4.975 0 0 1-1.884-9.583c.167-.069 16.925-6.916 25.878-10.384a4.977 4.977 0 0 1 3.595 9.281c-8.866 3.435-25.539 10.247-25.707 10.315a4.991 4.991 0 0 1-1.882.371z" class="color493333 svgShape"/><path fill="#1a1a1a" d="M787.497 356.345c3.135 1.565 7.32-1.042 6.831-4.464-.554-3.876-6.254-7.599-9.773-8.674-5.301-1.619-11.196-1.34-13.734.217-4.453 2.731-4.682 8.263-1.726 8.031 12.297-.966 16.134 3.757 18.402 4.89zM697.767 354.227c-3.135 1.565-7.32-1.042-6.831-4.464.554-3.876 6.254-7.599 9.773-8.674 5.301-1.619 11.196-1.34 13.734.217 4.453 2.731 4.682 8.263 1.726 8.031-12.297-.966-16.134 3.758-18.402 4.89z" class="color1a1a1a svgShape"/><path fill="#b9a192" d="M640.846 1111.45a4.03 4.03 0 0 1-3.002-1.337c-.356-.398-36.27-39.855-92.887-55.033a4.03 4.03 0 0 1-2.849-4.934 4.035 4.035 0 0 1 4.934-2.849c59.019 15.823 95.288 55.747 96.804 57.438a4.027 4.027 0 0 1-3 6.715zM842.185 1092.447a4.03 4.03 0 0 1-2.201-7.406c54.305-35.318 123.163-56.548 123.852-56.758a4.028 4.028 0 0 1 5.029 2.679 4.031 4.031 0 0 1-2.679 5.029c-.677.207-68.479 21.12-121.81 55.802a3.995 3.995 0 0 1-2.191.654z" class="color92a8b9 svgShape"/></svg>