<svg xmlns="http://www.w3.org/2000/svg" enable-background="new 0 0 4000 5500" viewBox="0 0 4000 5500"><path fill="#fbb890" d="M2248.01,2328.601c0,0,197.899,16.82,234.217,191.557       c36.318,174.737-260.388,1203.889-305.278,1306.785s-269.031,77.938-288.159-105.851       c-19.128-183.789,19.278-1007.842,45.914-1122.012C1961.341,2484.911,2046.983,2330.279,2248.01,2328.601z" class="colorf6af9a svgShape"/><path fill="#ffa30f" d="M2048.851,2399.7l386.75,268.654c0,0-201.279,150.717-219.863,169.141       c-13.893,13.773-225.384,420.494-331.28,624.969c4.884-314.776,30.726-779.711,50.246-863.382       C1949.937,2533.792,1984.482,2455.282,2048.851,2399.7z" class="colorea9a88 svgShape"/><path fill="#443119" d="M2310.046,2319.223c0,0,226.895,63.581,187.675,318.767       c-39.22,255.185-244.532,1044.492-308.479,1198.659c-63.947,154.167-230.368,43.009-281.039-26.057       c-85.725-116.845-33.447-526.58-35.218-673.004c-1.771-146.424,17.263-470.802,71.579-614.275       C1998.878,2379.84,2170.13,2272.019,2310.046,2319.223z" class="color192244 svgShape"/><g><path fill="#fbb890" d="M2059.815,3916.638c0,0-1111.853,96.811-1177.35,96.661       c-65.497-0.151-134.511-121.044-16.91-164.345c117.602-43.301,329.706-108.872,457.559-148.354       c127.853-39.482,519.428-110.056,673.181-99.475C2150.049,3611.706,2248.124,3869.143,2059.815,3916.638z" class="colorf6af9a svgShape"/><path fill="#fbb890" d="M913.362,4011.815c0,0-65.873,6.609-74.767,77.284        c-8.894,70.675,28.368,308.154-28.777,343.442c-57.145,35.288-100.986-111.058-118.115-170.516        c-17.129-59.458-12.94-134.274-37.052-210.132c-24.111-75.858-48.896-167.799-5.344-194.633        c43.552-26.834,152.009,12.524,256.618-22.767S1042.58,3977.809,913.362,4011.815z" class="colorf6af9a svgShape"/><path fill="#d17705" d="M803.402,4435.771c0,0-38.81,14.006-48.755,11.49s-51.393-39.507-81.837-155.462         c-30.444-115.956-23.877-170.496-52.826-258.749c-28.95-88.253-37.904-152.705-29.185-162.002         c8.719-9.297,74.726-20.333,74.726-20.333L803.402,4435.771z" class="color212851 svgShape"/><path fill="#e2e2e2" d="M796.499,4439.558c0,0,38.454-2.055,48.687-51.225          c10.233-49.17,1.497-287.313,13.112-322.605c11.615-35.292-9.142-60.19-47.289-65.228          c-12.866,3.032-26.347-71.499-9.571-150.377c0,0-117.901-19.689-165.795,6.24c-15.462,7.76-17.282,70.942,5.333,149.878          C663.592,4085.178,680.115,4408.543,796.499,4439.558z" class="colore2e2e2 svgShape"/><path fill="#d3d3d3" d="M812.043,4254.311c0,0-23.142-179.07-7.094-257.961c1.953,3.147,4.014,4.633,6.061,4.151           c38.146,5.038,58.903,29.936,47.289,65.228c-7.977,24.239-6.355,144.163-7.871,232.834           C838.381,4287.222,820.455,4269.087,812.043,4254.311z" class="colord3d3d3 svgShape"/><g><path fill="#443119" d="M2075.539,3927.873c0,0-90.214,22.92-271.005,40.589       c-180.791,17.668-714.514,98.743-815.642,122.575c-28.331,6.676-104.468,23.352-126.044,37.75       c0,0-64.886-42.435-88.251-141.673c-17.668-75.042-17.412-131.493-16.652-158.18c0,0,101.145-28.033,169.684-48.189       c62.018-18.238,872.003-219.741,1065.714-201.659C2195.186,3597.928,2286.778,3880.588,2075.539,3927.873z" class="color192244 svgShape"/></g></g><g><path fill="#fbb890" d="M2503.011,2134.371c0,0-20.228,151.705-30.341,242.728      c-10.114,91.023-32.364,321.362-256.888,433.751c-224.524,112.388-432.866-23.135-470.732-85.488      c-57.976-95.465-56.645-226.733-20.236-358.211c36.409-131.478,106.354-259.3,105.49-480.677      C1829.44,1665.097,2562.977,1733.65,2503.011,2134.371z" class="colorf6af9a svgShape"/><path fill="#ffa30f" d="M2215.782,2810.85c-38.378,19.21-76.282,31.174-112.944,37.501v-206.274l143.439-91.969      c0,0,25.201,120.634,33.348,222.026C2260.397,2786.127,2239.193,2799.132,2215.782,2810.85z" class="colorea9a88 svgShape"/><path fill="#443119" d="M2485.899,2368.368c0,0-588.128-84.843-729.458-126.583c0,0-226.285,529.722,156.012,606.566     c382.297,76.844,513.601-196.134,548.315-316.072C2481.241,2445.527,2485.899,2368.368,2485.899,2368.368z" class="color192244 svgShape"/></g><g><path fill="#fbb890" d="M1829.201,2324.838c0,0,187.852-124.314,347.761,108.884      c159.909,233.198,580.792,1044.556,602.556,1150.903c21.763,106.347-166.089,230.661-316.322,78.584      s-554.726-661.173-694.839-885.185C1619.314,2539.736,1681.922,2417.304,1829.201,2324.838z" class="colorf6af9a svgShape"/><path fill="#d17705" d="M1816.283,2295.965c0,0,194.959-134.999,369.383,127.788s357.791,624.146,430.149,767.923      c72.358,143.776,163.695,336.299,184.111,408.99c18.539,66.008-48.883,218.854-182.395,206.012      c-133.512-12.843-203.028-104.025-284.445-190.547s-396.269-560.846-518.321-734.891      C1692.713,2707.195,1544.793,2461.145,1816.283,2295.965z" class="color212851 svgShape"/><g><path fill="#fbb890" d="M2790.488,3664.055c0,0,98.179,1065.522,91.544,1135.781       c-6.635,70.259-101.176,120.947-151.37,10.075c-50.195-110.872-162.197-493.189-204.933-622.864       c-89.315-271.013-89.31-441.627-70.068-539.154C2479.128,3528.953,2735.997,3390.13,2790.488,3664.055z" class="colorf6af9a svgShape"/><path fill="#fbb890" d="M2880.368,4737.359c0,0,16.443,86.155,93.698,80.541        c77.256-5.615,273.73-16.016,310.063,12.703c36.334,28.72-19.19,81.306-79.612,109.84        c-60.421,28.533-205.545,55.708-301.673,84.365c-96.129,28.657-129.52,20.395-146.063-2.162        c-28.962-39.488,1.015-141.87-26.12-212.736C2686.172,4693.724,2838.427,4608.841,2880.368,4737.359z" class="colorf6af9a svgShape"/><path fill="#d17705" d="M3293.686,4842.57c0,0,18.931,33.548,14.203,43.351s-30.686,43.872-91.734,72.275         c-53.924,25.089-234.608,69.598-297.449,87.688c-62.841,18.091-126.694,33.365-136.398,29.518         c-22.423-8.891-32.004-64.913-32.004-64.913L3293.686,4842.57z" class="color212851 svgShape"/><path fill="#e2e2e2" d="M3293.686,4842.57c0,0,5.606-32.649-82.418-39.255s-224.803,7.946-248.538,4.477          c-32.987-4.821-40.875-12.947-71.417,8.862c-26.758,19.107-20.646,50.418-20.646,50.418s-87.885,17.899-128.092,7.844          c-13.106-2.189-12.573,90.312,1.774,135.645c6.859,19.869,13.153,27.886,13.153,27.886s15.288,19.823,90.564,0.145          c75.276-19.678,138.714-35.891,195.74-50.256C3100.833,4973.971,3279.133,4947.937,3293.686,4842.57z" class="colore2e2e2 svgShape"/><path fill="#d3d3d3" d="M2891.313,4816.654c30.542-21.809,38.43-13.684,71.417-8.862           c18.762,2.742,108.156-5.773,188.272-6.2c-12.266,16.837-24.097,35.983-33.017,44.776           c-13.063,12.875-247.317,20.705-247.317,20.705S2864.555,4835.76,2891.313,4816.654z" class="colord3d3d3 svgShape"/><g><path fill="#d17705" d="M2802.951,3618.969c0,0,66.956,703.316,123.773,932.853       c3.784,15.287,13.662,125.122,55.118,173.276c42.053,48.847,16.969,82.545,16.969,82.545s-34.132,50.432-128.745,66.988       c-102.037,17.855-105.141,54.793-147.264,65.619c-19.993-39.757-50.628-121.737-75.988-212.992       c-25.36-91.255-295.604-835.79-226.313-1120.785C2477.867,3370.525,2761.238,3385.903,2802.951,3618.969z" class="color212851 svgShape"/></g></g></g><g><path fill="#fbb890" d="M2573.807,1313.14c0,0,108.623,45.512,108.452,224.693      c-0.184,192.761-16.964,500.952-25.508,599.066c-8.544,98.115-43.5,211.942-105.699,218.233      c-62.199,6.291-139.569-24.05-156.257-166.653c-16.688-142.603-6.068-637.162,0-691.776      C2400.863,1442.09,2426.653,1281.282,2573.807,1313.14z" class="colorf6af9a svgShape"/><path fill="#ffaa78" d="M2544.561,1279.014c0,0,139.486,55.811,152.403,241.959s-21.332,681.443-69.557,780.348       c-48.226,98.905-163.016,94.629-224.439-25.021c-61.423-119.65-41.15-580.394-39.405-743.112       S2442.611,1272.711,2544.561,1279.014z" class="colorffd178 svgShape"/><path fill="#fbb890" d="M2543.901,2355.901c0,0,125.173-13.526,360.738-123.33       c214.064-99.782,348.425-173.978,359.161-209.875c10.737-35.897-30.732-73.272-115.288-46.503s-251.703,44.833-333.735,65.304       c-82.032,20.472-376.059,64.083-372.103,179.41C2446.63,2336.234,2488.705,2351.101,2543.901,2355.901z" class="colorf6af9a svgShape"/><path fill="#fbb890" d="M3046.731,2148.724c0,0,69.569-28.231,116.384-31.936        c46.816-3.705,154.598-28.101,199.172-47.815c0,0,3.386-121-22.583-154.197c-25.969-33.197-128.666,12.629-128.666,12.629        S3083.542,1995.953,3046.731,2148.724z" class="colorf6af9a svgShape"/><path fill="#e59e73" d="M3339.705,1914.776c-25.969-33.197-128.666,12.629-128.666,12.629        s-36.334,19.542-75.808,60.994c4.348,30.717,14.254,56.302,35.667,51.34c40.268-9.333,58.275-39.127,63.653-50.081        c-3.401,13.984,15.473,35.152,15.473,35.152c-16.653,11.891,7.929,38.979,7.929,38.979        c-5.342,14.59,3.336,26.384,11.496,33.686c36.332-8.75,71.696-19.15,92.838-28.501        C3362.288,2068.973,3365.673,1947.973,3339.705,1914.776z" class="colore57e73 svgShape"/><path fill="#fbb890" d="M3383.998,1934.038c0,0,6.301-23.99-4.832-33.961c-11.133-9.971-26.787-14.388-44.483-5.513         c-17.696,8.876-91.828,41.906-99.321,55.718c-7.492,13.812,17.079,30.665,31.768,25.875c0,0-18.352,9.175-17.872,22.305         s30.611,17.725,30.611,17.725s-32.188,25.561,5.513,41.934c0,0-25.011,23.469,6.401,33.729         c31.413,10.261,101.03-2.117,106.59-12.23c5.56-10.113,4.178-26.048-3.279-30.716c0,0,35.354-22.464,4.973-58.416         C3400.069,1990.489,3423.317,1945.205,3383.998,1934.038z" class="colorf6af9a svgShape"/><path fill="#ffa30f" d="M3349.364,2008.88c20.91-12.433-15.541-77.277-32.85-105.598         c-28.49,13.555-75.28,36.177-81.151,47.001c-3.759,6.929,0.554,14.623,7.639,19.965c0,0,1.135,0.779,3.123,2.09         c6.62,3.947,14.717,5.871,21.006,3.819c0,0-3.475,1.74-7.359,4.783C3284.59,1995.955,3330.234,2020.254,3349.364,2008.88z" class="colorea9a88 svgShape"/><path fill="#e59e73" d="M3395.127 2049.266c-35.828 3.488-74.406 13.97-110.032 8.803C3319.103 2048.209 3361.789 2049.424 3395.127 2049.266zM3400.145 1990.844c-39.224 8.868-80.415 25.06-120.575 25.338C3316.18 2001.185 3362.995 1996.1 3400.145 1990.844zM3384.121 1934.379c-38.075 14.223-77.124 35.973-117.289 41.814C3301.489 1956.245 3347.616 1944.745 3384.121 1934.379z" class="colore57e73 svgShape"/><path fill="#fbb890" d="M3018.053,2024.684c0,0,64.647-30.104,96.164-58.821c31.517-28.716,71.502-68.277,86.614-77.52        s75.118-0.641,90.083,5.307c14.965,5.948,66.757,87.535,63.022,103.033c-3.734,15.499-34.198,5.816-46.188-7.615        c-11.991-13.431-28.437-43.404-35.105-41.962c-6.669,1.443-23.235,2.136-33.385,10.232        c-10.15,8.096-17.458,57.873-74.396,85.149C3107.924,2069.764,3018.053,2024.684,3018.053,2024.684z" class="colorf6af9a svgShape"/><g><path fill="#ffa26b" d="M3062.284,1996.769c0,0,21.06-15.794,36.154-18.225c0,0,42.818,53.677,51.772,139.771         c0,0-13.419,8.117-31.484,8.539L3062.284,1996.769z" class="colorffc26b svgShape"/><path fill="#ffaa78" d="M2419.437,2204.6c0,0,25.435-49.915,141.261-108.897         c71.237-36.276,247.411-75.845,370.316-92.856c76.931-10.648,131.269-6.077,131.269-6.077s42.988,58.207,56.442,130.085         c0,0-22.389,28.654-78.135,60.161c-85.2,48.155-243.802,113.911-484.05,179.977         C2534.048,2371.137,2404.255,2350.575,2419.437,2204.6z" class="colorffd178 svgShape"/><g><path fill="#ffa26b" d="M2586.383,2241.785c-17.958-64.213,28.06-261.023,40.493-371.493        c17.374-154.362,0-353.757,0-353.757s-133.44,25.702-265.886,150.252c-4.062,205.16-6.738,514.612,41.979,609.512        c39.694,77.323,101.672,106.445,153.574,90.69c56.191-15.452,107.857-30.884,155.22-46.081        C2651.333,2319.755,2601.922,2297.348,2586.383,2241.785z" class="colorffc26b svgShape"/></g></g><g><path fill="#fbb890" d="M2004.437,1124.251c124.191-22.503,252.282-5.24,366.903,47.599        c72.928,33.619,165.594,84.829,202.467,141.29c64.728,99.114,46.523,394.434,24.273,503.661        c-22.25,109.228-82.932,258.91-95.069,317.57c-12.136,58.659-295.32,52.591-410.615,20.227        c-115.296-32.364-252.645-90.782-263.872-204.113c-13.243-133.684-29.425-244.935-61.789-362.253        c-32.364-117.319-54.614-362.07,133.5-434.888C1935.507,1139.691,1970.636,1130.375,2004.437,1124.251z" class="colorf6af9a svgShape"/><path fill="#ffa30f" d="M1772.803,1404.163c2.023-117.318,185.332-259.513,246.774-123.387        c0,0,59.524,156.355,123.387,347.911c34.147,102.425,58.213,190.558,69.536,234.04c4.676,17.956,18.502,32.09,36.351,37.16        l300.951,85.489c-20.59,62.092-40.407,118.139-46.791,148.995c0,0-9.575,71.813-18.844,146.267        c-139.369-26.217-474.478-85.115-511.319-117.949C1861.686,2063.62,1770.78,1521.482,1772.803,1404.163z" class="colorea9a88 svgShape"/><g><path fill="#fbb890" d="M2385.838,1029.452c0,0-9.248,119.847,15.025,175.978        c24.273,56.131-68.268,86.472-127.432,83.438c-59.165-3.034-148.671-40.024-156.257-111.794        c-7.585-71.77,34.892-42.946,34.892-237.128C2152.066,788.051,2408.739,880.781,2385.838,1029.452z" class="colorf6af9a svgShape"/><path fill="#ffa30f" d="M2152.066,939.946c0-151.895,256.673-59.165,233.771,89.506c0,0,2.638,95.458,5.229,142.141        c-121.302-13.292-168.412-124.209-217.76-186.135C2172.651,984.634,2152.066,951.521,2152.066,939.946z" class="colorea9a88 svgShape"/></g><g><path fill="#ffaa78" d="M2393.379,1182.28c0,0,42.226,74.656-26.316,73.653        c-138.22-2.023-239.362-141.126-239.362-141.126s-209.18-25.244-315.374,85.501        c-106.194,110.745-80.404,265.484-80.404,348.922c0,83.438,40.846,229.075,27.307,455.116        c-10.62,37.926-119.229,337.122-103.658,573.11c0,0,104.887,41.296,317.275,57.983        c212.387,16.688,470.809-20.096,533.649-24.273c0,0,17.034-302.842,22.848-349.87c5.814-47.029,33.924-256.951,55.163-338.871        c21.239-81.921,68.844-375.189,24.85-548.133C2563.269,1225.172,2393.379,1182.28,2393.379,1182.28z" class="colorffd178 svgShape"/><path fill="#ffa26b" d="M2181.825,2506.688c-21.099-22.259-12.566-33.19-20.539-67.904         c-7.973-34.714-51.436-70.242-110.187-79.72c-58.751-9.478-75.91-30.128-87.791-79.944         c-11.882-49.816-134.661-231.386-143.685-253.402c-9.025-22.016-24.889-242.347,0-285.569         c24.889-43.223,199.99-316.368,199.99-316.368s-181.876-30.59-289.057,79.556c0.686,16.851,1.368,32.321,1.368,45.894         c0,83.438,40.846,229.075,27.307,455.116c-10.619,37.927-119.229,337.122-103.658,573.11c0,0,104.887,41.296,317.275,57.984         c91.902,7.221,192.416,4.427,281.982-1.402C2200.035,2608.184,2201.131,2527.054,2181.825,2506.688z" class="colorffc26b svgShape"/><path fill="#ffa067" d="M2161.286,2095.703c0,0-50.484,76.31-276.827,212.277v51.083         c0,0,207.711-105.639,337.278-263.361H2161.286z" class="colorffbb67 svgShape"/><path fill="#ffa26b" d="M2089.408,1112.488c23.589,0.544,38.293,2.318,38.293,2.318s101.142,139.104,239.362,141.126          c68.542,1.003,26.315-73.653,26.315-73.653s8.792,2.225,22.893,7.399c11.374,21.486,22.684,57.068-11.438,77.716          c-51.255,31.015-171.271-19.553-227.233-65.402C2136.082,1167.979,2103.477,1129.888,2089.408,1112.488z" class="colorffc26b svgShape"/><path fill="#ffa26b" d="M2101.483,1112.895c0,0,27.51-38.81,29.49-52.012c1.98-13.202,15.86-12.072,35.984,14.757          c20.124,26.829,107.258,118.583,143.563,127.825c36.306,9.241,69.971,56.109,69.971,56.109s-8.553-69.026,10.576-87.981          l-0.451-8.591l21.56,29.242c0,0,22.443,59.409-29.044,73.931S2165.727,1213.094,2101.483,1112.895z" class="colorffc26b svgShape"/><path fill="#ffa26b" d="M2391.62,1263.459l-16.976,5.43c0.646,2.017,64.554,204.045,66.21,394.608          c1.46,168.063-24.502,798.652-31.172,957.296c6.174-0.628,12.156-1.245,17.915-1.843          c6.841-162.874,32.534-788.043,31.079-955.61C2456.997,1470.019,2392.273,1265.502,2391.62,1263.459z" class="colorffc26b svgShape"/></g><g><path fill="#fbb890" d="M2401.965,451.497c0,0,188.618,32.766,200.096,205.155        c11.478,172.389-33.196,479.71-136.573,502.494c-103.376,22.783-267.593-108.664-321.071-220.703        c-56.28-117.909-64.756-261.025-12.194-362.53C2178.244,487.04,2253.593,426.491,2401.965,451.497z" class="colorf6af9a svgShape"/><path fill="#ffa30f" d="M2452.021 907.658c-3.039-7.052-8.996-12.412-16.112-15.298-13.609-5.518-41.917-14.896-73.175-12.855-43.737 2.855-24.936 40.561-11.25 45.808 13.687 5.247 72.043 18.72 88.883 9.377C2452.833 927.773 2456.734 918.596 2452.021 907.658zM2551.216 899.617c13.375-2.274 26.366-2.328 37.994-1.357-2.807 18.008-6.021 35.791-9.643 53.109-15.177-1.239-28.927-3.443-34.823-5.029C2530.59 942.531 2508.005 906.963 2551.216 899.617z" class="colorea9a88 svgShape"/><path fill="#d17705" d="M2441.954 835.669c-.486 16.299-9.199 29.265-19.461 28.958s-18.187-13.768-17.701-30.067c.486-16.299 9.199-29.264 19.461-28.958C2434.516 805.908 2442.441 819.369 2441.954 835.669zM2571.697 851.465c-2.224 15.238-11.803 26.456-21.397 25.056-9.594-1.4-15.568-14.888-13.345-30.126 2.224-15.238 11.804-26.456 21.398-25.056S2573.921 836.227 2571.697 851.465z" class="color212851 svgShape"/><path fill="#e59e73" d="M2496.82 953.332c10.65 1.124 25.719 1.092 32.048-6.659 2.39-2.929 4.554-8.075 1.28-15.96-12.872-31.008-16.286-78.63-16.321-79.107-.226-3.294-3.081-5.782-6.377-5.554-3.294.227-5.782 3.082-5.554 6.376.138 2.028 3.573 50.035 17.206 82.871.284.688 1.164 2.995.5 3.809-2.849 3.494-18.057 3.374-29.936 1.076-3.245-.616-6.38 1.49-7.009 4.733-.629 3.241 1.488 6.379 4.729 7.01C2489.442 952.325 2492.82 952.91 2496.82 953.332zM2504.377 1024.11c-23.559 0-57.363-3.523-98.399-17.616-2.328-.8-3.567-3.334-2.768-5.661.799-2.328 3.333-3.57 5.661-2.767 77.878 26.742 129.614 14.025 130.126 13.895 2.38-.608 4.812.826 5.423 3.21.61 2.385-.827 4.811-3.21 5.423C2540.133 1020.87 2526.963 1024.11 2504.377 1024.11z" class="colore57e73 svgShape"/><g><path fill="#d17705" d="M2389.288 788.818c1.303.137 2.663-.151 3.853-.916 37.487-24.067 69.494 1.614 70.836 2.72 2.546 2.095 6.315 1.733 8.413-.805 2.101-2.541 1.757-6.297-.779-8.404-.393-.327-39.963-32.45-84.93-3.575-2.781 1.783-3.588 5.484-1.802 8.263C2385.898 787.689 2387.546 788.633 2389.288 788.818zM2534.469 796.827c1.187.125 2.423-.103 3.544-.73 31.355-17.554 53.087 3.065 53.305 3.277 2.367 2.305 6.154 2.254 8.457-.11 2.305-2.366 2.256-6.153-.111-8.458-.279-.275-28.438-27.017-67.493-5.145-2.884 1.614-3.909 5.258-2.296 8.14C2530.861 795.562 2532.604 796.63 2534.469 796.827z" class="color212851 svgShape"/></g><g><path fill="#ffa30f" d="M2452.021 907.658c-3.039-7.052-8.996-12.412-16.112-15.298-13.609-5.518-41.917-14.896-73.175-12.855-43.737 2.855-24.936 40.561-11.25 45.808 13.687 5.247 72.043 18.72 88.883 9.377C2452.833 927.773 2456.734 918.596 2452.021 907.658zM2551.216 899.617c13.375-2.274 26.366-2.328 37.994-1.357-2.807 18.008-6.021 35.791-9.643 53.109-15.177-1.239-28.927-3.443-34.823-5.029C2530.59 942.531 2508.005 906.963 2551.216 899.617z" class="colorea9a88 svgShape"/><path fill="#d17705" d="M2441.954 835.669c-.486 16.299-9.199 29.265-19.461 28.958s-18.187-13.768-17.701-30.067c.486-16.299 9.199-29.264 19.461-28.958C2434.516 805.908 2442.441 819.369 2441.954 835.669zM2571.697 851.465c-2.224 15.238-11.803 26.456-21.397 25.056-9.594-1.4-15.568-14.888-13.345-30.126 2.224-15.238 11.804-26.456 21.398-25.056S2573.921 836.227 2571.697 851.465z" class="color212851 svgShape"/><path fill="#e59e73" d="M2496.82 953.332c10.65 1.124 25.719 1.092 32.048-6.659 2.39-2.929 4.554-8.075 1.28-15.96-12.872-31.008-16.286-78.63-16.321-79.107-.226-3.294-3.081-5.782-6.377-5.554-3.294.227-5.782 3.082-5.554 6.376.138 2.028 3.573 50.035 17.206 82.871.284.688 1.164 2.995.5 3.809-2.849 3.494-18.057 3.374-29.936 1.076-3.245-.616-6.38 1.49-7.009 4.733-.629 3.241 1.488 6.379 4.729 7.01C2489.442 952.325 2492.82 952.91 2496.82 953.332zM2504.377 1024.11c-23.559 0-57.363-3.523-98.399-17.616-2.328-.8-3.567-3.334-2.768-5.661.799-2.328 3.333-3.57 5.661-2.767 77.878 26.742 129.614 14.025 130.126 13.895 2.38-.608 4.812.826 5.423 3.21.61 2.385-.827 4.811-3.21 5.423C2540.133 1020.87 2526.963 1024.11 2504.377 1024.11z" class="colore57e73 svgShape"/><g><path fill="#d17705" d="M2389.288 788.818c1.303.137 2.663-.151 3.853-.916 37.487-24.067 69.494 1.614 70.836 2.72 2.546 2.095 6.315 1.733 8.413-.805 2.101-2.541 1.757-6.297-.779-8.404-.393-.327-39.963-32.45-84.93-3.575-2.781 1.783-3.588 5.484-1.802 8.263C2385.898 787.689 2387.546 788.633 2389.288 788.818zM2534.469 796.827c1.187.125 2.423-.103 3.544-.73 31.355-17.554 53.087 3.065 53.305 3.277 2.367 2.305 6.154 2.254 8.457-.11 2.305-2.366 2.256-6.153-.111-8.458-.279-.275-28.438-27.017-67.493-5.145-2.884 1.614-3.909 5.258-2.296 8.14C2530.861 795.562 2532.604 796.63 2534.469 796.827z" class="color212851 svgShape"/></g></g><g><path fill="#d17705" d="M2602.982,755.566c0,0-7.938-57.584-3.344-77.429c4.594-19.844-13.91-51.943-30.054-46.72        c-16.143,5.223-105.696,55.214-146.088,36.167s-81.156-49.392-95.148-1.856c-13.992,47.536-49.194,173.793-81.508,223.062        c-32.314,49.269-73.05,138.06-98.622,132.404c-25.572-5.655-68.385-159.302-69.846-282.008s28.008-261.537,147.993-302.456        c119.985-40.92,180.232,32.917,241.854-1.033c61.622-33.95,150.132,22.382,110.809,114.83c0,0,78.72,21.211,66.46,87.069        c-5.438,32.094-22.313,42.623-28.648,57.086C2610.506,709.146,2611.242,743.54,2602.982,755.566z" class="color212851 svgShape"/><path fill="#fbb890" d="M2286.888,850.376c0,0-2.707-89.499-56.105-88.736         c-53.399,0.762-51.201,75.683-15.523,123.415C2235.231,911.772,2289.534,944.682,2286.888,850.376z" class="colorf6af9a svgShape"/><path fill="#e59e73" d="M2252.587,879.563c-2.731-0.949-4.23-3.91-3.358-6.69           c0.156-0.482,14.854-48.415-13.082-65.157c-2.547-1.527-3.373-4.826-1.844-7.372c1.518-2.545,4.787-3.382,7.371-1.848           c35.221,21.107,18.534,75.32,17.808,77.617c-0.899,2.827-3.916,4.393-6.744,3.499           C2252.687,879.598,2252.637,879.581,2252.587,879.563z" class="colore57e73 svgShape"/><path fill="#e59e73" d="M2255.644,853.793c-1.195-0.415-2.249-1.252-2.916-2.436           c-0.105-0.178-10.411-18.021-25.671-18.497c-2.977-0.098-5.297-2.569-5.211-5.534c0.092-2.965,2.565-5.301,5.534-5.211           c21.396,0.644,34.178,23.02,34.715,23.971c1.451,2.588,0.534,5.865-2.055,7.318           C2258.641,854.188,2257.047,854.281,2255.644,853.793z" class="colore57e73 svgShape"/></g><g><path fill="#fb600a" d="M2212.064,765.805c0,0-29.442-282.17,150.489-333.767c0,0,38.106-6.284,80.083,12.14       c0,0-150.966,6.915-193.838,317.457L2212.064,765.805z" class="colorea6363 svgShape"/><ellipse cx="2230.823" cy="835.115" fill="#fb600a" rx="63.835" ry="89.488" class="colorea6363 svgShape"/><ellipse cx="2221.844" cy="835.115" fill="#f4a373" rx="63.835" ry="89.488" class="colorf47373 svgShape"/><ellipse cx="2221.844" cy="835.115" fill="#fb600a" rx="42.218" ry="59.183" class="colorea6363 svgShape"/><ellipse cx="2210.274" cy="835.115" fill="#f7af84" rx="42.218" ry="59.183" class="colorf78484 svgShape"/></g></g></g><g><path fill="#fbb890" d="M1985.86,1179.908c0,0,129.83,94.263,19.316,221.807      c-110.514,127.543-497.168,518.549-555.201,560.341c-57.908,41.702-170.936-45.719-122.222-159.092      c48.713-113.372,379.879-511.334,424.091-556.663C1796.055,1200.972,1885.431,1130.397,1985.86,1179.908z" class="colorf6af9a svgShape"/><path fill="#ffaa78" d="M2004.85,1166.252c0,0-81.808-61.142-194.025,12.789        c-112.217,73.931-331.17,350.33-415.414,467.674s-121.675,202.422-79.545,275.976c42.13,73.554,112.101,53.751,167.549,26.027        c55.448-27.724,375.929-357.332,451.508-429.13C2010.503,1447.79,2146.068,1301.325,2004.85,1166.252z" class="colorffd178 svgShape"/><path fill="#ffa26b" d="M1681.181,1297.211c-58.588,62.34-121.574,137.329-176.04,205.619         c64.599,77.255,145.401,143.688,145.401,143.688l184.574-193.083C1767.031,1399.536,1706.375,1335.576,1681.181,1297.211z" class="colorffc26b svgShape"/><path fill="#ffa067" d="M1670.386,1308.793c-52.484,56.693-107.817,122.426-156.94,183.652         c58.07,67.718,135.1,132.457,135.1,132.457l163.623-170.274C1754.52,1408.99,1696.757,1346.28,1670.386,1308.793z" class="colorffbb67 svgShape"/><g><path fill="#fbb890" d="M1333.404,1921.376c0,0,127.637,158.628,303.428,315.922       c175.791,157.294,281.929,286.617,337.466,244.422c55.537-42.195,1.706-116.149-73.873-208.354       c-75.579-92.204-275.156-376.582-364.505-458.816C1434.016,1720.762,1289.611,1803.089,1333.404,1921.376z" class="colorf6af9a svgShape"/><path fill="#fbb890" d="M1986.452,2364.086c0,0,53.08,17.823,83.536,25.744s48.774,24.754,60.656,36.14        s21.783,92.084,21.783,92.084S2020.983,2451.714,1986.452,2364.086z" class="colorf6af9a svgShape"/><path fill="#f5bb99" d="M1953.489,2340.333c0,0,44.284,34.428,64.57,41.466c20.286,7.037,57.801,20.46,92.616,70.411        c37.401,53.66,84.184,105.852,77.493,119.54c-6.69,13.688-33.342,27.643-44.641,15.43c0,0-14.903,21.353-29.649,25.58        c-14.746,4.228-30.366-8.696-30.366-8.696s-21.401,35.668-50.598,10.896c0,0-26.34,25.243-53.606,6.703        c-27.266-18.539-78.607-79.494-92.821-109.934c-14.215-30.44-33.99-64.795-40.695-76.21        c-34.968-50.144-34.214-100.658-1.798-123.91C1872.353,2291.267,1922.957,2301.219,1953.489,2340.333z" class="colorf5ae99 svgShape"/><path fill="#e59e73" d="M2150.897 2506.688l-45.638-61.921c0 0-13.726-15.825-10.756-26.717s26.59 25.899 32.764 43.28C2133.44 2478.709 2150.897 2506.688 2150.897 2506.688zM2143.858 2586.943c-5.385-10.3-11.938-20.567-17.587-30.723-7.059-11.413-23.898-25.089-10.674-1.01 4.976 7.624 12.339 14.595 18.069 21.708C2136.07 2578.673 2142.128 2588.245 2143.858 2586.943zM2083.843 2603.826c-4.184-8.672-9.538-17.201-14-25.722-12.885-18.374-19.834-13.452-6.537 4.689 3.824 3.838 8.059 9.037 11.781 13.008C2077.216 2597.28 2082.242 2605.185 2083.843 2603.826zM2033.244 2614.722c-4.088-8.54-9.343-16.929-13.71-25.318-12.66-18.063-19.61-13.138-6.537 4.689 3.77 3.763 7.939 8.87 11.607 12.765C2026.689 2608.294 2031.692 2616.113 2033.244 2614.722z" class="colore57e73 svgShape"/><g><path fill="#ffa26b" d="M1820.858,2408.226c0,0,9.26,20.103,26.843,30.558c0,0,78.642-40.021,105.788-98.451        c0,0-6.887-13.702-22.298-28.64L1820.858,2408.226z" class="colorffc26b svgShape"/><path fill="#ffaa78" d="M1338.191,1778.412c0,0-51.913,68.745-22.325,144.279s248.509,271.436,328.728,357.948        c80.219,86.512,176.263,127.587,176.263,127.587s52.473-8.818,110.333-96.532c0,0-3.979-27.515-62.173-132.866        c-58.193-105.351-287.908-394-357.219-425.922C1442.489,1720.984,1384.396,1732.865,1338.191,1778.412z" class="colorffd178 svgShape"/></g></g></g></g></svg>