<svg xmlns="http://www.w3.org/2000/svg" enable-background="new 0 0 5000 4000" viewBox="0 0 5000 4000"><path fill="#ffa30f" d="M571.162 2665.29c182.172 661.948 757.557 1014.912 1788.857 1014.912 1128.44 0 1897.125-207.167 2006.673-1189.112 111.174-996.511-402.363-1463.312-970.244-1457.869-567.881 5.444-738.736-21.199-1313.989-224.244C1445.687 584.218 157.248 1161.279 571.162 2665.29z" class="colorffdcdc svgShape"/><path fill="#fb600a" d="M3793.5 1278.221c-10.071-34.415-41.377-63.021-60.782-63.838-7.563-.309-13.215 3.435-15.92 10.567-1.587 4.184-1.317 8.593.8 13.105 10.233 21.8 63.35 41.228 71.284 44.027 53.97 74.769 75.104 148.157 83.294 197.27 9.196 55.156 4.519 92.458 4.471 92.828a3 3 0 1 0 5.95.779c.05-.377 4.84-38.374-4.46-94.345-8.29-49.89-29.737-124.472-84.637-200.393zm-70.47-42.716c-1.42-3.027-1.623-5.783-.62-8.426 1.711-4.512 4.795-6.713 9.416-6.713.21 0 .424.004.641.014 15.412.648 39.854 22.475 51.529 49.248a2.92 2.92 0 0 0-.412.25 2.99 2.99 0 0 0-1 3.422c-16.957-6.657-52.172-22.068-59.554-37.795z" class="colorfff svgShape"/><path fill="#fb600a" d="M3835.058 1414.835c-2.159-1.788-53.197-43.758-81.355-40.994-5.64.553-10.118 2.821-13.312 6.739-5.119 6.282-3.851 11.675-1.886 15.093 9.403 16.354 57.813 25.113 84.319 25.113 4.236 0 7.919-.224 10.788-.677a3 3 0 0 0 1.446-5.274zm-91.35-22.152c-1.047-1.821-1.842-4.412 1.336-8.312 2.175-2.669 5.198-4.16 9.244-4.557.752-.074 1.525-.11 2.318-.11 20.763 0 54.991 24.559 68.691 35.073-24.708.623-73.748-8.455-81.589-22.094zm116.421 1.148a3.005 3.005 0 0 0 2.905.288c21.344-9.25 40.726-49.244 37.761-69.371-1.107-7.516-5.241-12.067-11.64-12.815-3.609-.424-7.004.682-10.083 3.282-16.803 14.183-20.096 73.477-20.228 75.994a3.008 3.008 0 0 0 1.285 2.622zm22.815-74.031c1.55-1.309 3.114-1.951 4.758-1.951.251 0 .503.015.757.044 1.324.155 5.354.626 6.4 7.729 2.422 16.437-12.507 48.955-29.66 60.472 1.511-19.259 6.612-56.899 17.745-66.294zm-760.219 52.414c.94-45.103 8.4-109.878 37.759-168.461 16.282-14.116 50.913-56.84 46.576-78.64-1.156-5.813-4.973-9.92-11.036-11.877-4.784-1.543-9.357-.891-13.597 1.94-20.547 13.724-26.711 78.778-27.329 85.929-29.839 59.57-37.42 125.263-38.373 170.984-1.09 52.319 6.016 90.553 6.087 90.933a3 3 0 1 0 5.897-1.116c-.071-.373-7.061-37.991-5.984-89.692zm63.035-252.048c1.73-1.156 3.494-1.73 5.335-1.73 1.004 0 2.03.171 3.085.512 4.035 1.302 6.258 3.633 6.995 7.337 3.007 15.123-19.369 46.491-35.784 64.215a2.97 2.97 0 0 0-.882-.743 2.982 2.982 0 0 0-2.108-.288c3.05-23.517 10.408-60.652 23.359-69.303zm-66.148 147.964a3 3 0 0 0 2.896-3.779c-1.038-3.859-2.181-10.025-3.504-17.164-5.767-31.12-11.495-57.185-23.231-60.943-3.972-1.273-8.045.066-12.101 3.981-3.893 3.758-5.851 8.614-5.82 14.431.134 24.984 38.083 61.128 39.698 62.655.573.54 1.314.819 2.062.819zm-35.759-63.509c-.021-4.171 1.282-7.468 3.987-10.079 2.374-2.292 4.027-2.762 5.049-2.762.498 0 .846.112 1.054.178 9.274 2.97 15.706 37.676 19.161 56.322.481 2.597.939 5.067 1.379 7.356-10.947-11.653-30.545-34.774-30.63-51.015z" class="colorfff svgShape"/><path fill="#fb600a" d="M3182.874 1293.608a12.071 12.071 0 0 0-.896-.033c-19.094 0-51.395 42.614-55.067 47.545a3 3 0 0 0 3.134 4.703c5.553-1.388 54.494-14.108 62.879-33.089 1.846-4.178 1.668-8.527-.514-12.578-2.146-3.984-5.443-6.248-9.536-6.548zm4.561 16.701c-5.106 11.562-32.891 22.071-50.191 27.285 13.746-17.056 34.13-38.021 44.646-38.021.184 0 .366.006.545.02 1.276.094 3.151.549 4.691 3.408 1.326 2.461 1.423 4.783.309 7.308zm-1969.441 307.036c6.725-30.536 17.088-52.921 24.16-65.759 20.893-17.176 77.463-70.369 73.495-97.333-.853-5.793-4.454-10.161-10.415-12.63-4.655-1.928-9.506-1.68-14.422.736-27.918 13.724-51.688 98.252-53.834 106.07-7.258 13.08-17.799 35.815-24.77 67.289-6.618 29.88-8.578 61.423-5.825 93.755 3.437 40.355 14.267 82.055 32.19 123.941a3 3 0 0 0 3.939 1.578 3.001 3.001 0 0 0 1.578-3.939c-39.921-93.297-36.226-167.711-26.096-213.708zm75.466-169.601c1.894-.931 3.709-1.396 5.478-1.396 1.355 0 2.684.273 4 .818 4.071 1.686 6.224 4.216 6.775 7.96 2.615 17.77-30.446 55.426-59.341 81.458a2.971 2.971 0 0 0-1.115-1.733 2.978 2.978 0 0 0-1.759-.589c8.419-26.482 26.678-77.04 45.962-86.518zm-118.719 249.315c-21.128-30.486-36.704-45.149-47.656-44.863-3.228.088-7.731 1.533-10.853 7.92-2.687 5.498-2.916 11.577-.682 18.07 11.003 31.974 80.024 65.901 82.957 67.33a2.996 2.996 0 0 0 3.494-.636 2.998 2.998 0 0 0 .44-3.523c-.123-.223-12.555-22.446-27.7-44.298zm-53.517-20.828c-1.72-5.001-1.59-9.41.4-13.481 1.955-4 4.146-4.516 5.624-4.556.065-.002.131-.003.198-.003 14.626 0 44.871 43.313 64.709 77.258-19.167-10.343-62.972-36.087-70.931-59.218z" class="colorfff svgShape"/><path fill="#fb600a" d="M1290.568 1629.413c-28.126 2.899-68.933 69.118-70.657 71.936a3.001 3.001 0 0 0 3.642 4.364c.197-.076 19.875-7.723 39.98-18.315 27.596-14.538 42.876-27.569 45.415-38.732 1.147-5.044-.25-9.842-4.04-13.875-3.897-4.148-8.721-5.956-14.34-5.378zm12.529 17.92c-3.825 16.821-48.116 38.714-73.03 49.254 14.296-21.645 42.741-59.313 61.118-61.206.461-.047.912-.071 1.354-.071 3.108 0 5.735 1.182 7.998 3.589 2.459 2.618 3.273 5.298 2.56 8.434zm-95.772-52.863a3 3 0 0 0 1.032-3.436c-.073-.201-7.43-20.352-16.945-40.505-19.839-42.025-29.707-43.202-32.949-43.588-2.63-.31-6.447.333-9.676 5.195-7.785 11.72-.65 29.304 21.208 52.262 15.636 16.424 33.563 29.928 33.742 30.063a3 3 0 0 0 3.588.009zm-53.54-79.014c1.511-2.275 2.801-2.586 3.542-2.586.173 0 .317.017.426.03 2.948.352 11.601 4.968 28.217 40.157 5.239 11.096 9.819 22.197 12.859 29.884-21.597-17.797-55.829-51.249-45.044-67.485zm2410.878 148.32c15.925-28.026 23.344-51.961 26.727-66.533 3.642-7.225 42.677-85.896 31.16-114.798-2.028-5.088-5.462-8.525-10.208-10.214-6.077-2.163-11.679-1.336-16.195 2.391-21.02 17.349-14.702 94.74-10.713 121.492-3.358 14.267-10.675 37.824-26.155 64.992-23.318 40.922-70.462 98.617-162.627 141.084a3 3 0 1 0 2.512 5.449c41.378-19.065 77.369-42.748 106.972-70.389 23.715-22.146 43.406-46.866 58.527-73.474zm35.302-184.526c1.798-1.484 3.738-2.218 5.933-2.218 1.369 0 2.837.286 4.432.853 3.091 1.101 5.265 3.319 6.645 6.782 7.957 19.964-12.39 69.721-23.895 95.012a2.98 2.98 0 0 0-1.697-.741 2.975 2.975 0 0 0-1.99.539c-3.991-38.688-3.28-88.794 10.572-100.227zm-62.03 270.001c-25.887 6.063-50.01 14.218-50.25 14.3a2.999 2.999 0 0 0 .131 5.723c2.264.654 41.483 11.843 74.245 11.843 12.589 0 24.231-1.654 32.447-6.192 6.011-3.32 9.916-7.985 11.607-13.865 1.965-6.833-.407-10.923-2.744-13.152-7.917-7.553-29.323-7.114-65.436 1.343zm62.413 10.15c-1.252 4.354-4.111 7.714-8.739 10.271-21.411 11.827-71.175 1.565-92.331-3.608 37.646-11.943 89.419-23.862 99.952-13.814 1.069 1.021 2.35 2.873 1.118 7.151z" class="colorfff svgShape"/><path fill="#fb600a" d="M3495.914 1722.949a3.004 3.004 0 0 0 3.1 1.62 2.998 2.998 0 0 0 2.528-2.417c.61-3.246 14.722-79.738-4.206-100.744-3.779-4.195-8.569-6.086-14.245-5.623-5.516.452-9.769 3.076-12.299 7.588-5.6 9.985-2.998 29.897 7.734 59.185 7.817 21.338 17.293 40.203 17.388 40.391zm-19.889-96.641c1.573-2.805 3.975-4.249 7.556-4.542.384-.031.76-.047 1.129-.047 3.246 0 5.927 1.219 8.168 3.707 12.367 13.724 8.222 60.743 4.32 86.387-11.422-24.522-29.611-70.459-21.173-85.505zm201.437-7.218c-2.665-1.886-10.777-7.628-53.67 10.255-20.57 8.577-39.537 18.597-39.727 18.697a3 3 0 0 0 1.132 5.639c.156.014 11.197 1.001 25.58 1.001 6.125 0 12.857-.179 19.611-.688 31.609-2.384 48.691-10.648 50.771-24.563.864-5.772-1.534-8.809-3.697-10.341zm-2.237 9.454c-2.881 19.278-50.707 21.155-78.663 19.88 7.409-3.667 18.249-8.834 29.575-13.555 35.92-14.971 45.435-12.597 47.858-10.881.473.335 1.729 1.223 1.23 4.556zm-2178.05-393.873c-6.89-57.586-24.352-109.431-51.902-154.094-19.479-31.58-43.531-58.964-71.499-81.471-4.293-6.223-55.994-79.545-91.927-55.693-8.871 5.888-9.17 12.214-7.86 16.485 3.838 12.508 26.772 23.612 45.337 30.724 19.231 7.367 41.198 13.134 51.113 13.48 47.732 38.538 106.209 109.495 120.781 231.282a3 3 0 0 0 5.957-.713zm-217.452-276.532c-.669-2.181-.833-5.561 5.442-9.726 3.936-2.612 8.17-3.757 12.577-3.757 25.542 0 56.733 38.516 67.462 52.86-22.848-3.61-80.387-22.775-85.481-39.377zm156.661 101.458a3.001 3.001 0 0 0 2.901-1.785c3.031-6.868 20.812-69.607 8.014-85.432-1.922-2.378-5.458-4.955-11.369-3.724-4.168.867-7.455 3.322-9.769 7.296-11.928 20.491 6.724 79.083 7.523 81.567a3.001 3.001 0 0 0 2.7 2.078zm-5.036-80.626c1.441-2.475 3.339-3.927 5.804-4.439a8.382 8.382 0 0 1 1.698-.189c2.015 0 3.071.931 3.784 1.812 8.207 10.147-.314 51.213-5.912 70.515-5.558-20.081-12.852-54.855-5.374-67.699z" class="colorfff svgShape"/><path fill="#fb600a" d="M1450.184 1134.21c-2.866-1.293-70.465-31.524-94.382-18.878-4.761 2.517-7.646 6.473-8.577 11.759-.904 5.133.478 9.624 3.995 12.985 6.249 5.973 19.105 7.977 33.554 7.977 26.98 0 59.5-6.991 64.83-8.18a3 3 0 0 0 .58-5.663zm-94.818 1.529c-2.085-1.993-2.794-4.411-2.231-7.608.601-3.413 2.391-5.864 5.471-7.494 3.243-1.715 7.653-2.446 12.817-2.446 19.403 0 49.388 10.346 67.521 17.742-25.615 4.863-71.976 10.896-83.578-.194zm629.6-152.21c.031-4.079.125-67.371-22.735-87.584-5.68-5.022-12.316-7.069-19.728-6.081-8.46 1.128-11.738 5.534-12.998 9.032-7.93 22.011 41.118 76.805 49.583 86.033 7.953 68.85-2.823 132.72-13.366 174.4-11.593 45.83-25.399 75.48-25.538 75.774a3 3 0 0 0 5.431 2.552c.14-.298 14.148-30.358 25.886-76.703 10.725-42.347 21.687-107.337 13.465-177.423zm-49.815-82.598c.377-1.048 1.525-4.236 8.146-5.118.946-.126 1.87-.189 2.773-.189 4.526 0 8.534 1.588 12.185 4.815 16.591 14.666 19.899 57.36 20.553 75.192-17.711-20.155-48.954-59.998-43.657-74.7z" class="colorfff svgShape"/><path fill="#fb600a" d="M1957.567 1103.862a3.003 3.003 0 0 0 2.813-4.048c-.901-2.42-22.375-59.379-47.668-68.642-5.785-2.118-11.378-1.7-16.619 1.246-6.176 3.471-7.457 8.098-7.444 11.369.081 21.856 60.572 55.891 67.47 59.7.453.252.952.375 1.448.375zm-62.919-60.097c-.006-1.564.442-3.9 4.384-6.115 2.136-1.2 4.306-1.799 6.554-1.799 1.641 0 3.322.319 5.062.956 17.48 6.4 34.059 41.182 40.863 57.121-20.812-12.321-56.812-36.473-56.863-50.163zm157.31 33.508c-2.3-2.994-5.513-4.573-9.298-4.573h-.119c-20.316.178-56.058 47.634-60.066 53.044a3 3 0 0 0 3.451 4.599c6.371-2.355 62.405-23.566 67.976-42.877 1.051-3.644.379-7.169-1.944-10.193zm-3.823 8.532c-3.346 11.603-34.384 26.689-54.163 34.913 13.35-16.563 36.378-41.91 48.621-42.017h.069c1.927 0 3.37.709 4.537 2.229 1.162 1.512 1.46 3.061.936 4.875zm-967.931 170.878s-64.007-58.68-101.344-6.447 173.263 129.328 173.263 129.328 26.759-208.861-21.246-205.652-50.673 82.771-50.673 82.771zm659.41-93.582s5.334-70.951-42.671-62.68c-48.005 8.271 21.424 125.52 21.424 125.52s121.752-16.808 106.17-51.027-84.923-11.813-84.923-11.813zm2108.87 647.848s5.334-70.951-42.671-62.68c-48.005 8.271 21.424 125.52 21.424 125.52s121.752-16.808 106.17-51.027c-15.582-34.219-84.923-11.813-84.923-11.813zm-2973.635 14.127s-56.006-26.785-66.674 0c-10.668 26.785 125.347 56.462 125.347 56.462s-5.334-141.689-34.67-141.689-24.003 85.227-24.003 85.227zm962.351-214.145s-55.542-41.768-71.566-20.432c-16.024 21.336 34.406 80.009 106.535 112.012 0 0 64.163-115.868 20.141-129.942-44.022-14.074-55.11 38.362-55.11 38.362zm-387.213 482.006s-44.24-72.114-86.152-27.362c-41.912 44.751 86.152 146.477 86.152 146.477s120.926-124.768 86.256-144.392c-34.671-19.624-86.256 25.277-86.256 25.277zm1921.134-758.726s-18.154-66.879-66.417-54.645c-48.263 12.234 66.417 185.4 66.417 185.4s114.679-172.213 80.009-192.692c-34.671-20.479-80.009 61.937-80.009 61.937zm201.494 907.185s-36.198-29.322-58.021-13.464c-21.822 15.858 90.512 125.552 90.512 125.552s75.263-134.937 44.271-151.821c-30.991-16.884-76.762 39.733-76.762 39.733z" class="colorfff svgShape"/><path fill="#ffa30f" d="M592.151 1299.246s-56.006-48.275-80.009-22.527 113.922 102.844 113.922 102.844 62.097-131.338 19.426-141.554-53.339 61.237-53.339 61.237zm1100.541-708.42s-44.24-72.114-86.152-27.362c-41.912 44.752 86.152 146.477 86.152 146.477s120.926-124.768 86.256-144.392c-34.671-19.623-86.256 25.277-86.256 25.277zm-807.176-99.114s-54.532-52.179-77.938-16.755 96.607 115.433 96.607 115.433 77.342-103.505 45.338-127.761c-32.003-24.256-64.007 29.083-64.007 29.083zm1449.651-64.007s-21.493-42.671-62.165-18.669 79.815 136.015 79.815 136.015 95.36-113.327 56.778-143.34c-38.583-30.012-74.428 25.994-74.428 25.994zm735.648 130.681s-36.546-48.005-62.808-24.003 68.011 130.867 68.011 130.867 83.524-130.974 53.299-137.588c-30.225-6.613-58.502 30.724-58.502 30.724zm313.641 157.255s-18.669-42.68-45.338-38.627c-26.67 4.053 22.669 153.108 22.669 153.108s128.867-85.24 109.105-114.48c-19.762-29.242-86.436-.001-86.436-.001zm370.324-25.053s-29.763-33.151-49.36-25.337c-19.597 7.815 49.36 150.352 49.36 150.352s91.06-116.514 64.39-138.86c-26.67-22.346-64.39 13.845-64.39 13.845zm312.417 456.799s-32.003-21.733-64.007 0c-32.004 21.733 114.679 102.848 114.679 102.848s26.67-156.784-13.334-161.621-37.338 58.773-37.338 58.773z" class="colorffdcdc svgShape"/><path fill="#997f6f" d="M3650.201 3354.563s122.252-575.728 257.164-917.412 304.844-495.789 338.291-593.308c0 0 60.055 535.422-89.273 1002.539-149.328 467.116-506.182 508.181-506.182 508.181zm-317.438 75.941s-100.044-534.545 134.026-916.649c0 0 204.339 243.521 32.839 828.147l-166.865 88.502z" class="color74996f svgShape"/><path fill="#ab8e7c" d="M3552.642 3561.749s253.527-616.482 500.782-875.903 438.357-341.383 492.751-418.857c0-.001-80.169 1084.441-993.533 1294.76z" class="color82ab7c svgShape"/><path fill="#997f6f" d="M4546.175 2266.988c-215.802 495.229-555.225 956.95-988.499 1282.711 423.747-342.256 754.608-792.745 988.499-1282.711z" class="color74996f svgShape"/><path fill="#ab8e7c" d="M3213.589 2634.125c-387.579 518.439-84.837 844.525 5.301 984.502 89.874-6.771 158.749-14.118 240.887-32.696 65.681-624.699-246.188-951.806-246.188-951.806z" class="color82ab7c svgShape"/><path fill="#997f6f" d="M3213.589 2634.125c.206 327.559 10.621 660.709 99.05 978.014-55.843-155.345-80.388-320.266-94.894-484.13-13.022-164.051-15.871-329.691-4.156-493.884z" class="color74996f svgShape"/><path fill="#b89986" d="M3783.109 2350.774c-60.539 261.727-409.844 727.959-475.505 944.444-38.392 126.577-35.268 241.977-25.792 318.16 133.314-11.992 250.909-33.19 365.459-77.396 560.589-645.186 135.838-1185.208 135.838-1185.208z" class="color8cb886 svgShape"/><path fill="#ab8e7c" d="M3783.109 2350.774c52.063 187.162.402 416.564-73.326 592.11-40.994 101.545-110.066 187.532-167.682 279.524-71.041 112.126-102.445 239.113-113.554 370.25 4.434-124.213 30.966-249.547 93.624-357.982 47.48-83.894 109.121-159.172 152.006-245.655 89.862-185.972 154.345-433.156 108.932-638.247z" class="color82ab7c svgShape"/><path fill="#997f6f" d="M1349.799 3378.243s-122.252-575.728-257.164-917.412-304.844-495.788-338.291-593.308c0 0-60.055 535.422 89.273 1002.539s506.182 508.181 506.182 508.181zm317.438 75.941s100.044-534.544-134.026-916.648c0 0-204.339 243.521-32.839 828.147l166.865 88.501z" class="color74996f svgShape"/><path fill="#ab8e7c" d="M1447.358 3585.429s-253.527-616.482-500.782-875.903-438.357-341.383-492.751-418.857c0-.001 80.169 1084.441 993.533 1294.76z" class="color82ab7c svgShape"/><path fill="#997f6f" d="M453.825 2290.668c233.889 489.961 564.752 940.457 988.498 1282.711-432.953-325.396-772.948-787.827-988.498-1282.711z" class="color74996f svgShape"/><path fill="#ab8e7c" d="M1786.411 2657.806c384.495 494.759 89.193 838.754-.945 978.732-66.302-2.704-163.105-8.347-245.242-26.925-65.682-624.701 246.187-951.807 246.187-951.807z" class="color82ab7c svgShape"/><path fill="#997f6f" d="M1786.411 2657.806c11.115 147.946 9.903 297.253.288 445.271-12.725 178.417-37.113 358.54-97.646 527.593 88.017-315.618 98.143-647.043 97.358-972.864z" class="color74996f svgShape"/><path fill="#b89986" d="M1216.891 2374.454c60.538 261.727 409.844 727.959 475.505 944.443 38.392 126.578 35.768 237.751 26.292 313.934-136.915-2.11-255.874-30.385-370.424-74.59-560.588-645.186-131.373-1183.787-131.373-1183.787z" class="color8cb886 svgShape"/><path fill="#ab8e7c" d="M1216.891 2374.454c-45.409 205.083 19.048 452.218 108.929 638.248 42.887 86.483 104.529 161.76 152.01 245.654 62.655 108.432 89.191 233.773 93.623 357.983-11.109-131.135-42.521-258.142-113.557-370.249-57.611-91.99-126.687-177.983-167.677-279.526-73.723-175.532-125.393-404.93-73.328-592.11z" class="color82ab7c svgShape"/><path fill="#d17705" d="M2102.998 1226.196s-26.848 104.621-4.703 184.075 41.203 146.182 25.804 209.488c-15.399 63.306-155.17 170.235-138.871 363.6l476.819-.9v-756.264h-359.049z" class="coloraa4949 svgShape"/><path fill="#946c3a" d="M2098.292 1914.98a2.89 2.89 0 0 1-2.808-2.225c-7.684-32.586-6.357-61.313 4.053-87.824 9.182-23.384 24.097-42.209 38.521-60.414 13.808-17.428 26.851-33.89 34.443-53.413 23.018-59.191.584-91.308.354-91.625a2.89 2.89 0 0 1 .642-4.03 2.882 2.882 0 0 1 4.025.629c1.017 1.39 24.607 34.767.36 97.119-7.908 20.334-21.213 37.127-35.299 54.906-28.52 35.996-58.01 73.217-41.479 143.326a2.89 2.89 0 0 1-2.812 3.551zm115.398-30.554a2.886 2.886 0 0 1-2.584-1.597c-16.137-32.273 1.19-70.323 16.477-103.895 2.399-5.268 4.665-10.243 6.78-15.142 14.927-34.566.206-65.465.056-65.773a2.887 2.887 0 0 1 5.189-2.534c.661 1.355 16.024 33.618.056 70.596-2.138 4.951-4.415 9.952-6.825 15.246-14.752 32.395-31.471 69.111-16.568 98.919a2.885 2.885 0 0 1-1.291 3.873 2.857 2.857 0 0 1-1.29.307zm-56.023-20.532a2.888 2.888 0 0 1-2.876-2.664c-2.161-27.876 20.302-71.566 21.259-73.413a2.892 2.892 0 0 1 3.893-1.234 2.889 2.889 0 0 1 1.234 3.893c-.227.438-22.662 44.076-20.628 70.308a2.888 2.888 0 0 1-2.882 3.11z" class="color943a3a svgShape"/><path fill="#fbb890" d="M2999.159 3083.927s6.749 99.972 44.848 278.733c0 0-229.394 122.394-560.219 122.394s-511.734-122.394-511.734-122.394c38.099-178.761 27.174-311.631 27.174-311.631s181.595-113.13 484.56-113.13c302.967 0 515.371 146.028 515.371 146.028z" class="colorf6af9a svgShape"/><path fill="#fbb890" d="M1837.03 3632.263c159.184 23.591 333.37 35.539 522.988 35.539 301.806 0 577.872-14.823 822.482-55.32-60.986-163.58-138.493-249.822-138.493-249.822-221.497-97.564-850.455-97.564-1071.953 0 .001 0-77.016 103.691-135.024 269.603z" class="colorf6af9a svgShape"/><path fill="#755732" d="M2360.019 3680.202c316.867 0 605.366-16.337 858.872-61.574-36.424-96.458-78.027-161.335-104.818-198.843-50.385-70.54-60.462-94.725-60.462-94.725s-6.046-44.339-14.735-84.647-23.982-38.082-23.982-38.082-118.391 34.051-514.43 34.051-504.425-34.051-504.425-34.051-15.293-2.226-23.982 38.082-14.735 84.647-14.735 84.647-10.077 24.185-60.462 94.725c-28.418 39.785-73.502 110.356-111.392 216.752 172.914 28.982 364.25 43.665 574.551 43.665z" class="color323e75 svgShape"/><path fill="#634a2b" d="M3038.874 3254.817c-8.689-40.308-23.982-38.083-23.982-38.083s-118.391 34.051-514.431 34.051c-396.039 0-504.425-34.051-504.425-34.051s-15.293-2.226-23.982 38.083c-8.688 40.307-14.735 70.243-14.735 70.243s470.667 119.046 1096.289 0c.001 0-6.045-29.936-14.734-70.243z" class="color2b3563 svgShape"/><path fill="#6e512c" d="m2588.221 3358.91-175.452.437s5.179 150.25 14.867 320.598c54.022-.415 107.182-1.346 159.449-2.854 1.946-113.948 2.868-229.907 1.136-318.181z" class="color2c386e svgShape"/><circle cx="2508.031" cy="3444.107" r="41.216" fill="#eadcd3" transform="rotate(-37.982 2508.021 3444.194)" class="coloreadad3 svgShape"/><path fill="#573f21" d="M3038.874 3240.413c-8.689-40.308-23.982-38.083-23.982-38.083s-118.391 34.051-514.431 34.051c-396.039 0-504.425-34.051-504.425-34.051s-15.293-2.226-23.982 38.083c-8.688 40.307-14.735 84.647-14.735 84.647s465.371 78.601 1096.29 0c0 0-6.046-44.339-14.735-84.647z" class="color212b57 svgShape"/><path fill="#755732" d="M2078.817 3216.886s-42.165 23.963-59.287 142.024l59.287 7.432s25.038-112.361 67.164-142.445c0 0-32.9-14.23-67.164-7.011zm194.899 15.054-26.343 144.938 79.021 6.614s22.389-101.439 25.023-150.168c0 0-50.041-10.67-77.701-1.384zm693.759-20.463s43.763 46.87 59.568 132.476l-59.568 6.799s-22.092-93.763-56.331-131.936c0 0 28.371-9.431 56.331-7.339zM2807.61 3227.7s35.816 63.783 50.855 138.642h-76.386s-13.241-89.748-38.229-135.089c0 0 40.562-11.811 63.76-3.553z" class="color323e75 svgShape"/><path fill="#fbb890" d="M3117.509 1797.305c-24.517-8.526-43.74-10.655-63.899-14.814-286.103-59.014-364.54-16.658-550.063-16.658h-6.942c-185.522 0-246.418 111.211-532.521 170.225-20.16 4.159-39.383 6.288-63.899 14.814-44.327 15.414-64.444 167.695-22.674 262.189 44.551 100.782 131.346 130.387 111.104 205.94-82.416 307.609-1.561 370.568 4.836 584.13 1.175 39.244 4.07 28.605 4.07 80.795 0 144.518 163.409 166.268 306.186 33.938 78.894-73.121 313.845-73.121 392.739 0 142.777 132.33 306.186 110.58 306.186-33.938 0-52.19 2.895-41.551 4.07-80.795 6.397-213.562 87.252-276.521 4.836-584.13-20.242-75.553 84.095-258.725 128.646-359.508 41.769-94.493 21.651-246.774-22.675-262.188z" class="colorf6af9a svgShape"/><path fill="#fbb890" d="m2700.946 1773.564-20.158-243.448c-3.564-210.472-316.802-210.617-320.376.007-1.463 15.797-22.348 266.682-22.638 273.36 7.414 259.975 398.45 227.812 363.172-29.919z" class="colorf6af9a svgShape"/><path fill="#eaad88" d="m2700.946 1773.564-20.158-243.448c-.75-44.274-15.205-79.238-37.595-104.894 8.584 34.162 5.269 44.198-4.046 81.803-10.548 42.584-7.354 101.613 9.015 152.514 16.368 50.901 29.31 170.14 32.726 221.999.19 2.89 1.474 4.957 3.724 6.276 15.608-30.936 22.51-69.132 16.334-114.25z" class="colorea9a88 svgShape"/><path fill="#eaad88" d="m2681.91 1543.671-1.123-13.554c-3.564-210.472-316.802-210.617-320.376.007-1.052 11.361-13.968 166.547-20.225 242.807 87.907-6.871 255.885-44.106 341.724-229.26z" class="colorea9a88 svgShape"/><path fill="#e3a27b" d="M2680.788 1530.116c-.75-44.274-15.205-79.238-37.595-104.894 8.584 34.162 5.269 44.198-4.046 81.803-7.753 31.301-8.072 71.487-1.201 110.799 16.153-21.621 31-46.19 43.964-74.154l-1.122-13.554z" class="colore38e7b svgShape"/><path fill="#eaad88" d="M2400.262 1945.628c-89.199-38.77-194.953 62.638-303.443 24.338l.285-1.611c50.292-.395 101.916-11.951 151.063-21.828 48.949-11.383 106.068-29.363 152.949-2.293l-.854 1.394zm124.084-14.989c39.85-36.638 99.52-31.542 149.771-31.103 50.132-1.074 103.003-1.047 152.189-11.626l.63 1.51c-97.807 61.092-222.473-14.956-301.451 42.393l-1.139-1.174zm-48.372 36.758c1.036 9.392-5.738 17.847-15.13 18.883-9.393 1.036-17.847-5.738-18.883-15.13s3.613-37.107 13.006-38.143c9.392-1.037 19.971 24.997 21.007 34.39z" class="colorea9a88 svgShape"/><path fill="#fb600a" d="M2090.544 1902.774s156.509 202.902 378.935 160.127c222.427-42.774 312.527-187.924 367.569-310.4 10.556-12.974 254.098 6.444 314.468 44.344 60.37 37.9 37 223.282 4.491 286.16-32.509 62.878-127.277 247.13-131.051 310.541-3.774 63.411 58.762 191.356 51.063 297.145-7.699 105.789-26.948 163.534-16.682 237.961 10.266 74.427 83.646 237.85-44.444 273.678 0 0-627.968 108.724-1018.856 0 0 0-59.811-12.755-70.932-98.484-12.21-94.118 40.636-176.449 30.512-252.815-10.123-76.366-36.786-178.055-30.512-276.707 6.274-98.652 53.183-159.391 11.121-229.113-42.061-69.722-85.691-132.6-89.541-254.507-3.85-121.907 13.837-141.155 30.227-151.421 16.391-10.266 95.62-40.938 213.632-36.509z" class="colorfff svgShape"/><path fill="#f2e6df" d="m3100.773 2193.169-263.726-121.713s-45.906 182.219-63.871 273.755c-17.965 91.537-59.177 210.719-59.177 210.719l-213.046 147.55s-197.438-72.537-201.558-91.358c-4.12-18.821-42.077-127.467-62.382-206.835-20.305-79.367-91.032-241.563-91.032-241.563s-108.307 72.071-220.607 163.622c3.611 5.932 7.237 11.873 10.851 17.864 42.062 69.722-4.848 130.462-11.121 229.113-6.274 98.652 20.389 200.341 30.512 276.707 10.123 76.366-42.722 158.697-30.512 252.815 11.121 85.729 70.932 98.484 70.932 98.484 128.754 35.813 283.23 48.031 432.514 48.315 54.647-45.879 103.378-93.579 103.378-93.579l106.139 86.932c212.682-13.25 376.824-41.668 376.824-41.668 128.09-35.828 54.709-199.251 44.444-273.678-10.266-74.427 8.983-132.172 16.682-237.961 7.699-105.789-54.837-233.734-51.063-297.145 2.349-39.456 39.929-125.699 75.819-200.376z" class="colorf2e4df svgShape"/><path fill="#f2e3da" d="M2837.047 1752.501c-55.042 122.476-145.142 267.626-367.568 310.4-222.427 42.774-378.935-160.127-378.935-160.127-27.984-1.05-53.782-.124-77.083 2.033 40.119 55.899 188.605 233.994 437.198 209.424 281.9-27.862 413.509-218.999 459.976-364.374-40.278-2.415-70.046-1.709-73.588 2.644z" class="colorf2e1da svgShape"/><path fill="#fbb890" d="M2321.943 3103.848c.005-.002-81.72-295.819-107.392-388.639-24.694-89.285-89.742-435.11-109.512-549.419a213.072 213.072 0 0 0-2.115-12.366l-.016-.097c-19.789-97.489-105.975-170.868-209.303-170.868-117.955 0-213.576 95.621-213.576 213.576 0 11.728.96 23.23 2.779 34.445-.015.003.055.409.2 1.209.518 3.08 1.1 6.138 1.748 9.172 13.157 66.647 96.568 448.228 372.022 964.898 20.806 52.593 72.108 89.796 132.102 89.796 78.43 0 142.011-63.58 142.011-142.011-.001-17.484-3.168-34.227-8.948-49.696z" class="colorf6af9a svgShape"/><path fill="#eaad88" d="M2289.745 2987.289c-20.44-73.975-46.204-167.217-63.523-229.866l-316.071 148.292a4559.903 4559.903 0 0 0 56.147 121.429c30.148-5.473 79.928-15.821 102.385-27.914 33.364-17.965 66.052-39.78 77.298-41.063 0 0-55.57 73.728-63.226 101.025l206.99-71.903z" class="colorea9a88 svgShape"/><path fill="#fb600a" d="M1893.604 1931.318s-229.993 43.141-226.571 302.089c-.038 75.874 34.219 218.74 47.907 258.52 13.688 39.78 41.063 97.953 47.907 120.196 6.844 22.243 28.64 45.626 41.125 50.189 0 0 31.306 57.032 45.564 90.967 14.258 33.934 32.508 95.656 32.508 95.656s-4.563 32.612 5.133 47.611c9.696 14.998 7.984 13.857 10.266 32.108 2.281 18.25 4.705 83.636 27.661 82.881 22.956-.755 52.211-9.737 112.011-34.119s101.29-57.745 151.764-69.294 114.196-19.597 119.549-42.521c5.353-22.924-30.665-101.046-46.662-174.909-15.997-73.863-53.211-124.881-58.344-191.123-5.132-66.243-24.218-576.216-309.818-568.251z" class="colorfff svgShape"/><path fill="#f2e6df" d="m2263.342 2891.733 44.997-39.347c-3.94-27.879-25.715-81.34-40.371-136.21-107.478-67.194-254.571-158.654-272.645-167.276-28.869-13.771-122.117-36.962-122.117-36.962s7.414 38.273 24.239 43.992c16.825 5.719 46.196 15.984 54.181 28.817 6.68 10.736-98.805 59.791-141.973 88.059 9.694 18.069 29.399 55.516 39.885 80.472 14.258 33.934 32.509 95.656 32.509 95.656s-.779 5.585-1.008 13.19c5.968-5.71 13.61-14.644 16.407-25.009 4.848-17.965 23.954-19.961 33.649-24.524s31.083-13.973 37.071-11.406c5.988 2.567 155.698 20.817 191.629 14.258l103.547 76.29c-.001 0-.001 0 0 0z" class="colorf2e4df svgShape"/><path fill="#fbb890" d="M3314.737 2017.415c0-117.955-95.621-213.576-213.576-213.576-103.515 0-189.821 73.646-209.403 171.398-.005-.001-10.618 47.666-17.914 109.318-12.83 108.417-28.217 273.415-49.27 393.885-35.144 201.104-84.879 599.045-84.879 599.045a142.746 142.746 0 0 0-2.452 26.362c0 78.43 63.58 142.01 142.01 142.01 69.904 0 128.009-50.508 139.817-117.021.001 0 234.033-719.224 291.144-1067.51a214.813 214.813 0 0 0 4.523-43.911z" class="colorf6af9a svgShape"/><path fill="#eaad88" d="M2796.081 2659.65c-18.476 126.358-36.554 263.37-47.075 344.837l214.103-15.25c-32.066-70.305-136.037-141.427-127.964-157.539 8.073-16.112 56.088-12.119 75.999-10.836 19.91 1.283 90.447 17.965 127.033 20.532 20.259 1.421 48.83 1.268 70.299.849a16034.361 16034.361 0 0 0 34.143-114.486l-346.538-68.107z" class="colorea9a88 svgShape"/><path fill="#fb600a" d="M3131.197 1787.124s143.799 28.969 183.54 170.124c39.741 141.155-21.839 322.09-46.869 340.056l-15.294 60.348-12.302 47.636s1.063 21.144-4.174 34.001-11.225 33.389-11.225 33.389 2.567 29.086-9.41 61.595-35.075 98.381-43.63 136.022-13.688 105.225-15.826 131.745-33.792 4.277-65.017 0c-31.225-4.277-139.016-6.844-202.322-23.954-63.306-17.11-118.057-8.555-139.444-18.821 0-17.965-5.531-127.504 16.254-203.336 60.534-210.719 56.172-385.666 71.57-484.475s73.434-312.015 294.149-284.33z" class="colorfff svgShape"/><path fill="#f2e6df" d="M3100.773 2377.172c-6.789-1.591 195.533-123.925 138.643-155.151l-192.477 123.19s56.673-88.509 18.494-107.988c0 0-140.837 172.125-170.351 234.16-16.947 35.62-85.931 99.863-141.608 148.116-7.285 62.889-4.253 126.458-4.253 139.767 17.935 8.609 59.335 3.99 109.563 12.361 28.787-27.8 94.108-90.57 110.308-103.47 20.949-16.682 142.6-66.728 173.525-96.242 22.649-21.615 62.435-61.706 82.108-81.616.746-10.761.146-17.62.146-17.62s5.988-20.532 11.225-33.389c5.236-12.857 4.173-34.001 4.173-34.001l12.303-47.636 15.294-60.348c.002-.001-160.304 81.458-167.093 79.867z" class="colorf2e4df svgShape"/><path fill="#fbb890" d="M2117.463 2587.197s-48.352-39.236-74.871-52.068c-26.52-12.832-63.306-19.862-93.248-23.191-29.942-3.329-75.283-12.07-76.138 0-.855 12.07 22.243 30.486 44.485 34.538s65.872 24.584 65.872 24.584 81.303 33.13 133.9 16.137z" class="colorf6af9a svgShape"/><path fill="#eaad88" d="M1944.089 2554.44c19.707 7.317 39.473 16.619 39.473 16.619s6.334 2.58 16.604 5.93l26.2-20.925c-21.876-6.493-61.741-3.691-82.277-1.624z" class="colorea9a88 svgShape"/><path fill="#fbb890" d="M2206.193 2638.47s-88.604-52.582-119.972-67.98c-31.368-15.399-70.934-18.821-112.176-9.125s-86.867 23.954-94.852 29.087c-7.985 5.133-60.792 49.048-71.459 63.876-10.667 14.828 3.736 37.939 13.644 36.364 0 0-6.209 34.882 15.822 40.892 0 0-13.304 39.079 19.762 49.35 0 0-2.501 21.5 2.562 32.952 5.169 11.692 17.61 38.191 22.52 37.146 4.91-1.045 5.133-28.173 5.133-32.736 0-4.563 68.294-28.031 72.431-30.512s64.447 5.897 111.213 6.656c46.766.759 100.816 3.546 100.816 3.546s79.508 7.479 94-40.999c14.494-48.479-5.06-93.882-59.444-118.517z" class="colorf6af9a svgShape"/><path fill="#eaad88" d="M1821.206 2690.46c15.981-13.155 32.255-27.053 49.219-38.921 23.119-13.458 24.835-12.005 3.3 4.739-9.71 7.168-24.661 16.156-34.703 23.167.116-.533-18.781 13.312-17.816 11.015zm15.994 41.124c10.533-7.799 22.187-16.248 33.175-23.483 11.154-7.417 23.561-16.238 36.997-17.43-10.671 8.387-22.5 15.197-34.607 21.383-.222-.455-36.286 21.739-35.565 19.53zm19.763 49.35c18.615-16.712 37.925-37.18 62.375-43.956-8.688 9.352-20.086 15.931-31.004 22.449-10.582 6.065-21.877 16.591-31.371 21.507zm40.481-152.806a2.879 2.879 0 0 1-2.042-.846c-10.38-10.381-11.084-27.455-11.109-28.177a2.886 2.886 0 0 1 5.771-.202c.006.154.67 15.544 9.422 24.295a2.89 2.89 0 0 1-2.042 4.93zm17.678 49.048a2.876 2.876 0 0 1-1.834-.659c-10.53-8.672-12.377-32.933-12.45-33.961a2.886 2.886 0 0 1 2.673-3.085c1.588-.132 2.973 1.082 3.087 2.672.456 6.323 3.207 24.024 10.362 29.917a2.888 2.888 0 0 1-1.838 5.116zm15.969 47.907a2.874 2.874 0 0 1-1.781-.617c-8.59-6.748-12.602-26.84-13.031-29.108a2.886 2.886 0 0 1 2.3-3.373c1.56-.307 3.077.731 3.374 2.299 1.058 5.576 5.083 21.053 10.924 25.642a2.885 2.885 0 0 1-1.786 5.157zm15.97 42.204a2.872 2.872 0 0 1-1.89-.706c-9.25-8.017-11.699-23.337-11.799-23.984a2.888 2.888 0 0 1 5.707-.881c.028.183 2.253 13.897 9.873 20.502a2.886 2.886 0 0 1-1.891 5.069zm-59.944 51.29c-3.171.349-7.336.576-9.92-1.503-2.26-4.046-.544-5.236 3.496-4.596 2.137 1.751 4.101 3.933 6.545 5.534.224.149.143.523-.121.565zm72.288-30.59c-2.844-1.718-9.101-4.744-8.638-8.528.077-1.382.47-3.323 2.42-2.467 2.355.406 3.603 2.024 3.994 4.233.087.69 3.601 7.203 2.224 6.762z" class="colorea9a88 svgShape"/><path fill="#fbb890" d="M2953.931 2983.044c-98.989-94.463-401.77-198.753-501.562-245.593-119.97-56.31-210.613-87.405-237.766-96.289a78.592 78.592 0 0 0-8.406-2.692 79.41 79.41 0 0 0-19.787-2.491c-43.757 0-79.229 35.472-79.229 79.229 0 34.443 21.985 63.74 52.682 74.656-.003.009 67.942 46.395 127.628 91.37 59.687 44.975 234.173 187.289 352.23 272.309 86.347 62.184 170.839 82.695 210.003 89.229a142.163 142.163 0 0 0 22.602 2.913l.059.004c2.277.107 4.566.167 6.869.167 78.43 0 142.011-63.58 142.011-142.01-.001-51.031-26.923-95.767-67.334-120.802z" class="colorf6af9a svgShape"/><path fill="#edb28e" d="M2287.491 2881.235c49.621 37.39 178.581 142.052 288.503 225.143 69.421-77.903 170.951-185.818 209.517-226.638-123.26-59.163-269.49-112.413-333.142-142.289a2829.46 2829.46 0 0 0-7.941-3.709c-71.544 41.114-160.309 99.602-192.594 121.112a2729.16 2729.16 0 0 1 35.657 26.381z" class="coloreda48e svgShape"/><path fill="#fbb890" d="M2835.145 2534.828s32.538-57.016 52.44-90.38 56.834-94.104 76.437-112.069c19.604-17.965 64.176-64.129 82.917-89.826s26.512 9.41 23.09 23.954c-3.422 14.543-39.676 70.15-45.075 94.104s-121.661 153.685-189.809 174.217z" class="colorf6af9a svgShape"/><path fill="#eaad88" d="M3010.716 2333.662c-16.54 9.268-73.168 43.072-105.023 114.57l79.014-32.084c22.579-25.395 38.34-47.073 40.248-55.537 2.889-12.817 14.611-34.696 25.412-54.498-10.454 7.948-28.449 21.272-39.651 27.549z" class="colorea9a88 svgShape"/><path fill="#fbb890" d="M2837.047 2533.658s60.643-72.101 79.229-100.332c18.587-28.231 58.879-67.082 79.229-75.71 20.35-8.629 99.333-52.613 126.709-70.578 27.375-17.965 106.936-73.572 117.202-65.017 10.266 8.555 5.133 28.231-23.954 50.474-29.087 22.242-112.257 81.271-114.301 94.103-2.045 12.832 18.487 4.278 33.03-4.277s87.26-57.318 101.803-69.294c14.543-11.977 21.534-17.866 28.305-12.783s4.36 28.22-11.117 45.311c-15.477 17.09-128.401 105.205-125.834 112.049 2.567 6.844 81.271-45.341 93.248-54.751 11.977-9.41 32.669-27.925 32.669-27.925s3.498 2.844 5.209 9.688c1.711 6.844-3.658 30.214-7.936 36.202-4.278 5.989-22.31 21.773-22.31 21.773s7.766 9.025 7.766 13.302 2.229 24.56-11.121 36.786-53.04 46.196-76.138 66.728c-23.098 20.532-110.212 81.114-184.712 101.724-74.501 20.61-170.896-9.708-126.976-107.473z" class="colorf6af9a svgShape"/><path fill="#eaad88" d="M3228.228 2422.591c-25.592 20.687-52.973 48.464-84.758 55.598 27.541-18.661 58.569-37.714 84.758-55.598zm-137.241-62.943a2.887 2.887 0 0 1-2.781-2.12c-3.156-11.44-14.041-21.647-14.15-21.749a2.888 2.888 0 0 1 3.925-4.235c.496.459 12.193 11.401 15.792 24.449a2.888 2.888 0 0 1-2.786 3.655zm30.8 65.831a2.888 2.888 0 0 1-2.888-2.888c0-17.774-15.195-32.361-15.349-32.506a2.889 2.889 0 0 1 3.963-4.201c.7.66 17.161 16.404 17.161 36.707a2.888 2.888 0 0 1-2.887 2.888zm16.679 47.521a2.888 2.888 0 0 1-2.882-2.743c-.385-7.698-6.778-18.117-6.843-18.222a2.888 2.888 0 0 1 4.91-3.041c.296.478 7.241 11.781 7.701 20.974a2.888 2.888 0 0 1-2.739 3.028c-.05.002-.099.004-.147.004zm17.537 47.907a2.887 2.887 0 0 1-2.876-2.665c-1.011-13.064-8.447-24.623-8.521-24.738a2.887 2.887 0 0 1 4.835-3.156c.339.519 8.316 12.873 9.444 27.449a2.888 2.888 0 0 1-2.882 3.11z" class="colorea9a88 svgShape"/><path fill="#fbb890" d="M2995.506 2577.904c0-43.757-35.472-79.229-79.229-79.229-16.235 0-31.323 4.892-43.888 13.269-.003-.005-372.112 228.503-503.857 312.341-127.962 81.431-269.588 218.637-277.616 226.45-27.136 25.865-44.047 62.363-44.047 102.811 0 78.43 63.58 142.011 142.01 142.011 26.331 0 50.982-7.175 72.122-19.663 185.818-74.808 339.16-277.459 436.037-379.347 99.236-104.369 266.984-255.414 266.984-255.414 19.121-14.471 31.484-37.404 31.484-63.229zM2683.269 705.061s428.268 124.805 180.352 605.881c-228.835 444.05-497.757 420.13-569.282 395.663-58.368-20.766-246.311-176.367-136.388-649.893 122.378-527.181 525.318-351.651 525.318-351.651z" class="colorf6af9a svgShape"/><path fill="#eaad88" d="M2863.621 1310.942c32.417-62.904 53.266-119.712 65.03-170.951-166.339-105.066-417.603-237.557-417.603-237.557s-6.285 99.664 9.437 135.595 54.62 100.319 54.62 100.319l38.313 52.323s28.868 36.961 25.447 81.604c-3.422 44.643-13.125 91.052.281 137.997s10.548 54.17 0 96.754c-7.3 29.474-8.013 66.824-2.336 103.906 74.433-61.524 152.722-156.223 226.811-299.99z" class="colorea9a88 svgShape"/><path fill="#d17705" d="M2384.503 1076.262s16.87 2.061 16.198 14.272c-.746 13.546.011 20.262-8.302 22.049-8.314 1.787-84.485-13.711-126.261-19.364-42.263-5.719-61.112-5.776-63.13-10.462-2.018-4.686 37.285-21.321 80.239-17.759 50.05 4.15 48.955 3.736 101.256 11.264zm145.031 42.291s-15.501-6.969-21.247 3.827c-6.374 11.977-10.498 17.33-4.31 23.163 6.189 5.833 79.383 32 118.053 48.787 39.122 16.983 55.278 26.691 59.43 23.727 4.152-2.964-20.865-37.542-59.461-56.729-44.971-22.356-43.819-22.144-92.465-42.775z" class="coloraa4949 svgShape"/><path fill="#946c3a" d="M2622 1161.329c-23.821-11.842-34.702-17.352-46.896-22.981 12.2 14.596 27.638 34.305 38.313 52.323a671.877 671.877 0 0 1 8.613 3.66c39.122 16.983 55.278 26.691 59.43 23.727 4.153-2.965-20.864-37.542-59.46-56.729z" class="color943a3a svgShape"/><path fill="#eaad88" d="M2165.105 1272.256s20.961-28.784 89.773-10.225c55.938 15.086 95.84 34.981 85.313 74.166-9.274 51.941-224.8 7.404-175.086-63.941zm283.666 72.277s20.961-28.784 89.774-10.225c55.938 15.086 95.84 34.981 85.313 74.166-9.274 51.941-224.801 7.405-175.087-63.941z" class="colorea9a88 svgShape"/><path fill="#e59e73" d="M2374.501 1406.121c9.519 2.425 17.172 3.724 18.948 4.012 5.752.935 11.171-2.971 12.107-8.722.935-5.752-2.961-11.178-8.72-12.111-13.815-2.257-39.19-8.667-48.445-16.282.216-2.941 3.639-8.375 6.692-13.222 1.487-2.362 3.109-4.937 4.832-7.766 56.189-92.299 74.622-141.223 75.379-143.259 2.031-5.464-.753-11.54-6.216-13.571-5.465-2.023-11.54.753-13.571 6.217-.302.806-18.844 49.655-73.623 139.636a542.756 542.756 0 0 1-4.663 7.494c-8.692 13.803-17.682 28.075-2.238 40.775 9.667 7.949 26.37 13.449 39.518 16.799z" class="colore57e73 svgShape"/><path fill="#eaad88" d="M2252.695 1448.832s25.341-1.861 32.173-.809c6.832 1.052 29.546-.01 38.64 4.699 9.093 4.709 17.325 17.797 17.325 17.797s16.791-7.856 29.41-5.553 39.138 25.187 76.352 26.257c0 0-55.393 13.902-109.716-1.069-54.324-14.972-84.184-41.322-84.184-41.322z" class="colorea9a88 svgShape"/><path fill="#eaad88" d="M2258.633 1453.861s13.122 29.049 19.876 40.727 23.99 28.879 43.187 31.877 78.175 2.146 114.262-28.703c0 0-104.498 5.936-177.325-43.901z" class="colorea9a88 svgShape"/><path fill="#e59e73" d="M2401.421 1506.142c-44.901 0-79.847-10.794-103.235-21.31-33.509-15.064-50.979-32.534-51.705-33.27a6.256 6.256 0 0 1 8.898-8.796c.324.323 17.07 16.883 48.499 30.906 29.092 12.979 77.13 26.391 140.767 16.576 3.405-.521 6.609 1.815 7.136 5.229a6.255 6.255 0 0 1-5.229 7.136c-15.986 2.466-31.052 3.529-45.131 3.529zm-128.419-21.648c30.854 42.293 73.111 43.528 120.338 35.174-40.415 28.526-107.997 18.068-120.338-35.174z" class="colore57e73 svgShape"/><path fill="#e59e73" d="M2401.536 1478.516c-21.763-16.384-29.423-23.475-58.058-15.379-19.865-26.903-34.844-14.696-62.698-15.971 23.216 11.836 39.522-1.002 54.626 26.445a6.24 6.24 0 0 0 7.528 2.789c39.985-13.909 35.37 4.666 66.661 6.366-2.888-1.218-5.544-2.664-8.059-4.25zm51.334 25.504a2.881 2.881 0 0 1-2.328-1.178c-3.085-4.197-4.42-13.373-4.563-14.405a2.887 2.887 0 0 1 2.466-3.253 2.896 2.896 0 0 1 3.255 2.465c.462 3.343 1.819 9.495 3.494 11.773a2.887 2.887 0 0 1-2.324 4.598zm-210.913-52.301a2.887 2.887 0 0 1-1.6-5.293c2.893-1.922 6.133-7.269 7.138-9.166a2.887 2.887 0 0 1 5.106 2.696c-.438.831-4.416 8.2-9.049 11.279a2.866 2.866 0 0 1-1.595.484z" class="colore57e73 svgShape"/><path fill="#eaad88" d="M2340.2 1558.909a6.23 6.23 0 0 1-3.981-1.434c-18.979-15.684-41.537-9.948-42.487-9.695-3.336.881-6.761-1.094-7.654-4.421a6.246 6.246 0 0 1 4.385-7.656c1.198-.327 29.641-7.777 53.728 12.127a6.256 6.256 0 0 1-3.991 11.079zm21.782-378.773c-17.815-15.193-41.415-24.307-64.851-24.256-11.777-.068-23.426-1.4-35.128-2.925-2.103-.76-7.553-.057-8.3-2.443 26.002-20.304 62.941-9.133 87.926 7.53 3.2 1.541 26.181 21.624 20.353 22.094z" class="colorea9a88 svgShape"/><path fill="#3f2b12" d="M2338.736 1224.551c-68.307 0-100.537-34.532-101.964-36.101a7.862 7.862 0 0 1 11.615-10.599c.199.213 8.519 9.02 25.261 17.104 15.565 7.518 41.845 15.943 78.626 13.396a7.862 7.862 0 1 1 1.086 15.686c-5.044.35-9.923.514-14.624.514z" class="color121d3f svgShape"/><path fill="#3f2b12" d="M2266.329 1201.332s-23.831 7.659-45.686-.59c0 0 8.546-4.573 10.906-8.189 0 0-9.432-.844-16.463-6.219 0 0 15.204-2.02 20.645-6.135l30.598 21.133z" class="color121d3f svgShape"/><path fill="#eaad88" d="M2498.615 1216.373c31.634-7.275 76.618-6.965 99.311 19.777 1.643 2.045 10.417 13.822 6.645 14.626-17.644-6.866-33.177-15.881-50.28-23.575-17.662-6.309-36.617-9.466-55.41-9.278-.896.093-1.184-1.334-.266-1.55z" class="colorea9a88 svgShape"/><path fill="#3f2b12" d="M2582.109 1296.902c-68.307 0-100.537-34.532-101.964-36.101a7.863 7.863 0 0 1 11.615-10.599c.199.213 8.519 9.02 25.261 17.104 15.566 7.518 41.844 15.943 78.626 13.396a7.862 7.862 0 1 1 1.086 15.686c-5.044.351-9.923.514-14.624.514z" class="color121d3f svgShape"/><path fill="#3f2b12" d="M2567.779 1296.415s19.778 15.344 43.136 15.061c0 0-6.468-7.219-7.45-11.424 0 0 9.153 2.431 17.597-.218 0 0-13.597-7.095-17.304-12.822l-35.979 9.403z" class="color121d3f svgShape"/><path fill="#fbb890" d="M2783.178 1321.776s51.095-49.02 92.745-20.962c35.726 24.067-22.115 168.386-110.965 216.439-93.781 50.722-40.273-120.485 18.22-195.477z" class="colorf6af9a svgShape"/><path fill="#e59e73" d="M2849.812 1350.17c-.042-4.048-3.361-7.301-7.402-7.257-45.685.448-81.418 98.665-85.341 109.862a7.33 7.33 0 0 0 4.49 9.34c4.1 1.202 8.047-.8 9.342-4.491 3.312-9.442 7.701-20.248 12.828-31.185 8.839-7.612 25.153-18.755 34.369-18.521a7.332 7.332 0 0 0 7.514-7.141c.101-4.041-3.101-7.412-7.141-7.511-6.402-.162-13.531 2.3-20.216 5.674 13.713-22.891 29.706-41.226 44.302-41.37a7.326 7.326 0 0 0 7.255-7.4z" class="colore57e73 svgShape"/><path fill="#d17705" d="M2485.963 815.602s1.066 22.243 14.961 46.196c13.896 23.954 3.865 107.791 31.551 166.82 27.686 59.029 68.405 107.337 98.691 145.433s12.832 134.311 15.399 178.797c2.566 44.485 27.375 82.127 20.532 127.467-6.844 45.341-26.52 83.838-8.555 155.698 17.965 71.861 21.329 114.738 23.369 183.93 2.041 69.191-19.092 149.419 61.324 197.472 80.416 48.052 118.057.145 175.375 6.134 57.318 5.988 115.491 7.699 157.409-35.93 41.919-43.63 42.661-104.512 50.474-142.866 7.813-38.354 17.76-46.922 31.551-49.553 0 0-9.308-35.995-51.227-54.816-41.919-18.821-73.572-10.266-85.549-29.087s-6.312-41.063 3.688-65.872 7.433-58.173-15.665-87.26c-23.098-29.087-33.364-65.872-17.965-106.936 15.399-41.063 23.098-117.202 27.376-188.207 4.277-71.005 18.821-233.548-23.954-376.414-24.809-93.248-91.537-136.878-121.479-155.698-29.942-18.821-71.005-55.607-105.225-63.306-34.219-7.699-105.225-5.988-105.225-5.988s-104.765-38.925-176.855-31.225c-72.091 7.699-129.872 53.896-159.369 78.277-29.496 24.381-89.808 75.711-109.056 101.375-19.249 25.665-46.592 92.392-59.868 129.606-13.276 37.214-41.507 96.242-44.073 137.305-2.566 41.063-6.416 132.265-14.115 173.282s24.618 108.542 24.618 108.542-2.803-227.928 70.341-285.673c73.144-57.745 74.427-80.843 88.543-118.057s43.737-66.728 79.614-85.976c35.874-19.25 100.495-51.759 123.364-53.47z" class="coloraa4949 svgShape"/><path fill="#946c3a" d="M2485.963 815.602c28.154-73.318 93.869-148.866 176.855-153.987-79.313 20.773-134.459 87.428-176.855 153.987zm139.581 116.668a2.886 2.886 0 0 1-2.879-2.715c-3.785-63.394-71.852-119.278-72.539-119.835a2.888 2.888 0 0 1 3.636-4.487c.722.584 17.87 14.566 35.77 36.847 16.605 20.67 36.834 52.565 38.897 87.132a2.886 2.886 0 0 1-2.885 3.058z" class="color943a3a svgShape"/><path fill="#946c3a" d="M2713.998 1202.81a2.88 2.88 0 0 1-1.959-.767c-27.232-25.18-49.95-56.627-67.523-93.469-14.032-29.418-24.832-62.324-32.101-97.802-12.369-60.37-10.181-108.007-10.157-108.481.079-1.592 1.428-2.799 3.026-2.741a2.887 2.887 0 0 1 2.741 3.027c-.023.468-2.171 47.503 10.077 107.188 11.272 54.928 37.399 132.138 97.856 188.038a2.888 2.888 0 0 1-1.96 5.007z" class="color943a3a svgShape"/><path fill="#946c3a" d="M2788.577 1671.41a2.887 2.887 0 0 1-2.56-1.548c-15.654-29.886-23.153-78.266-19.569-126.259 1.837-24.612 8.137-41.234 14.806-58.832 7.245-19.115 14.736-38.88 16.18-70.396.755-16.466 3.946-37.009 7.643-60.795 10.138-65.25 24.021-154.612 6.313-264.507-10.474-65.001-33.799-124.957-69.327-178.202-33.152-49.686-66.454-77.182-75.871-84.426-33.102-25.463-62.918-53.811-63.216-54.094a2.888 2.888 0 0 1 3.984-4.18c.295.282 29.9 28.426 62.753 53.697 9.594 7.38 43.511 35.378 77.153 85.798 35.99 53.939 59.618 114.665 70.225 180.488 17.853 110.797 3.888 200.682-6.309 266.312-3.67 23.621-6.839 44.02-7.579 60.174-1.487 32.435-9.144 52.639-16.549 72.178-6.517 17.195-12.673 33.437-14.448 57.214-3.507 46.978 3.745 94.166 18.927 123.149a2.887 2.887 0 0 1-1.218 3.897 2.855 2.855 0 0 1-1.338.332z" class="color943a3a svgShape"/><path fill="#946c3a" d="M2810.39 2006.332a2.879 2.879 0 0 1-2.042-.846c-18.318-18.317-20.344-50.216-6.775-106.658 12.68-52.746 17.463-95.561 18.279-163.613.776-64.689-35.578-104.104-35.945-104.494a2.887 2.887 0 0 1 4.202-3.961c1.564 1.659 38.322 41.401 37.517 108.524-.821 68.531-5.646 111.681-18.438 164.893-13.039 54.238-11.471 84.511 5.244 101.225a2.89 2.89 0 0 1-2.042 4.93zm-96.536-383.685a2.888 2.888 0 0 1-2.767-3.719c20.577-68.515 20.619-211.478.078-263.742-21.222-53.995-20.478-89.48-20.436-90.964.044-1.593 1.385-2.833 2.966-2.804a2.888 2.888 0 0 1 2.806 2.965c-.009.353-.711 35.897 20.039 88.69 20.876 53.115 20.918 198.124.078 267.515a2.887 2.887 0 0 1-2.764 2.059zm34.742 374.423a2.882 2.882 0 0 1-2.155-.965c-20.23-22.663-15.434-66.435-11.2-105.053.57-5.202 1.108-10.115 1.582-14.93 4.129-42.051-3.404-88.32-20.152-123.77-18.189-38.499-6.009-91.252-5.481-93.479a2.888 2.888 0 0 1 5.62 1.33c-.124.526-12.231 53.033 5.083 89.682 17.175 36.354 24.905 83.756 20.678 126.801-.476 4.847-1.016 9.775-1.588 14.994-4.102 37.42-8.751 79.833 9.769 100.578a2.888 2.888 0 0 1-2.156 4.812zm198.642-500.608c-.865 0-1.72-.387-2.289-1.125-18.66-24.213-36.082-53.096-37.201-100.075-.681-28.594 7.119-55.601 15.377-84.193 5.614-19.44 11.42-39.542 14.874-61.288 7.985-50.279 12.565-181.727-12.335-272.154-24.346-88.414-96.277-183.458-148.013-195.573-53.481-12.522-109.166-40.589-109.722-40.871a2.889 2.889 0 0 1 2.611-5.151c.55.279 55.636 28.039 108.427 40.399 26.101 6.111 58.078 32.134 87.732 71.396 29.216 38.682 52.736 85.433 64.53 128.265 25.136 91.279 20.525 223.884 12.472 274.594-3.511 22.099-9.366 42.375-15.029 61.984-8.131 28.154-15.812 54.747-15.151 82.453 1.079 45.318 17.941 73.252 36.002 96.687a2.888 2.888 0 0 1-2.285 4.652zm-47.587 255.688a2.888 2.888 0 0 1-2.879-2.713c-1.167-19.313 4.468-34.975 12.267-56.652 3.518-9.775 7.504-20.854 11.513-34.083 13.277-43.817 13.342-102.58.145-130.993-14.072-30.295-13.078-40.734-12.918-41.825a2.887 2.887 0 0 1 5.72.786c-.025.285-.746 10.232 12.434 38.606 13.71 29.515 13.775 90.12.146 135.1-4.052 13.369-8.064 24.522-11.605 34.363-7.565 21.028-13.032 36.222-11.937 54.349a2.886 2.886 0 0 1-2.886 3.062zm-11.934 275.67c-.369 0-.744-.071-1.106-.221-27.738-11.519-37.576-51.088-40.943-82.255-4.318-39.968.338-79.951 6.869-101.846 13.755-46.116 7.791-88.471 7.729-88.894a2.887 2.887 0 0 1 5.713-.838c.261 1.774 6.227 43.991-7.909 91.383-6.365 21.341-10.894 60.406-6.661 99.575 4.523 41.863 17.812 69.401 37.417 77.541a2.888 2.888 0 0 1-1.109 5.555zm120.29-49.696c-.318 0-.643-.053-.96-.165-19.78-6.972-31.954-40.353-37.214-102.052-4.113-48.24-2.67-100.047-1.976-124.945l.05-1.78c1.223-44.145-15.757-60.409-15.929-60.568a2.893 2.893 0 0 1-.17-4.074 2.88 2.88 0 0 1 4.063-.191c.781.709 19.113 17.909 17.808 64.993l-.049 1.781c-.691 24.792-2.129 76.378 1.957 124.293 6.199 72.712 21.573 92.936 33.38 97.097a2.887 2.887 0 0 1-.96 5.611zm-32.081-370.908a2.888 2.888 0 0 1-2.708-1.888c-21.95-59.427 10.432-140.526 11.82-143.95a2.888 2.888 0 0 1 5.352 2.172c-.332.818-32.924 82.466-11.756 139.777a2.887 2.887 0 0 1-2.708 3.889zm-762.235-599.236a2.888 2.888 0 0 1-1.467-5.377c19.732-11.607 27.679-40.561 32.849-67.353.966-5.004 1.718-9.989 2.445-14.811 2.809-18.608 5.461-36.184 19.706-46.045 9.832-6.807 18.133-16.476 29.621-29.859 7.617-8.874 16.25-18.93 27.613-30.878 25.761-29.577 64.175-40.577 91.87-44.597 29.865-4.335 53.343-1.781 54.329-1.669a2.887 2.887 0 0 1-.645 5.738c-.235-.025-23.838-2.584-52.997 1.667-26.695 3.892-63.676 14.459-88.242 42.7l-.087.095c-11.283 11.861-19.877 21.872-27.46 30.705-11.769 13.71-20.272 23.616-30.715 30.846-12.194 8.442-14.553 24.067-17.283 42.159-.736 4.879-1.497 9.923-2.485 15.042-5.415 28.059-13.877 58.464-35.591 71.236-.46.273-.964.401-1.461.401zm121.478-264.398a2.887 2.887 0 0 1-1.86-5.097c43.685-36.74 98.014-47.496 135.897-50.049 40.952-2.761 72.116 3.221 72.426 3.282a2.886 2.886 0 0 1-1.111 5.667c-.304-.06-30.849-5.909-71.087-3.177-36.977 2.512-89.964 12.999-132.409 48.696-.54.455-1.2.678-1.856.678zm244.24-63.68c-.335 0-.674-.059-1.006-.182-.594-.221-59.808-22.097-92.551-23.347a2.886 2.886 0 0 1-2.774-2.996 2.871 2.871 0 0 1 2.995-2.775c33.67 1.286 91.88 22.79 94.342 23.705a2.887 2.887 0 0 1-1.006 5.595zM2124.1 1197.426l-.073-.001a2.887 2.887 0 0 1-2.814-2.958c.038-1.486-.049-4.297-.158-7.855-.595-19.359-1.832-59.643 9.435-75.554 7.02-9.914 10.112-32.458 13.694-58.563 2.624-19.119 5.598-40.788 10.688-60.941 12.057-47.732 54.994-89.448 56.815-91.2a2.888 2.888 0 0 1 4.004 4.162c-.435.418-43.575 42.347-55.22 88.453-5.013 19.842-7.963 41.343-10.565 60.313-3.686 26.855-6.868 50.049-14.703 61.115-10.148 14.332-8.906 54.771-8.375 72.039.116 3.792.2 6.531.159 8.178a2.889 2.889 0 0 1-2.887 2.812z" class="color943a3a svgShape"/><path fill="#d17705" d="M2337.773 1797.609s-12.444 63.116-72.756 90.205-85.222 10.974-125.379 43.412-277.169 9.139-277.169 9.139 1.04-24.818 29.841-50.805c28.801-25.987 92.528-53.062 103.011-85.721 10.483-32.658 69.681-86.123 69.681-86.123s-21.984 73.996 7.53 98.378c29.515 24.381 197.191-58.174 265.241-18.485z" class="coloraa4949 svgShape"/></svg>