<svg xmlns="http://www.w3.org/2000/svg" viewBox="0 0 2800 1900"><g data-name="Layer 1"><path fill="#ffa30f" d="M1363.0378,1241.9741c-62.5409,42.8481-86.0483,124.2228-86.0483,124.2228-29.2257-57.6933-.4573-172.3283.7628-177.1951-33.0192,37.2282-36.2556,114.6119-36.2556,114.6119-81.9851-130.685-1.7169-301.0438,71.7013-382.768,70.9697-78.9349,67.8971-131.6024,67.613-135.0288-.0076-.0633-.0087-.1242-.0167-.1875,0,0,15.2573-30.9539,39.5316-35.4271,20.9287-3.7968,48.6027,12.1354,78.9641,84.6641C1564.8073,991.4559,1425.6443,1199.1255,1363.0378,1241.9741Z" class="color2a323f svgShape"/><path fill="#fb600a" d="M1388.4238 833.5946s5.9191 59.0737-78.303 192.5457c-84.1572 133.3401-83.7383 218.3207-70.5712 269.9975-1.9963-4.5206-51.1686-116.5433 2.4168-232.6346 54.7533-118.5271 150.4641-183.6968 138.8279-277.8738 0 0 15.2573-30.9539 39.5316-35.4271zM1385.4001 948.157s-117.024 208.7744-106.2461 371.258c0 0 22.6445-131.8892 67.7765-207.2621S1385.4001 948.157 1385.4001 948.157z" class="color3d4654 svgShape"/><path fill="#ce8559" d="M1902.48,1792.1125c1.0811,4.1288,1.9654,8.3559,2.7525,12.6802H1251.1926s-15.7266-229.8084,101.9294-347.0721a210.90126,210.90126,0,0,1,19.6586-17.5947,7.88139,7.88139,0,0,0,.7859-1.1783,6.90407,6.90407,0,0,0,.5903-.8855c.492-.6875.9839-1.4734,1.573-2.4573a134.00928,134.00928,0,0,0,7.7643-14.7439c1.3775-2.9493,2.6541-6.0941,3.9332-9.5341.5891-1.6702,1.2766-3.44,1.7686-5.2098a105.90021,105.90021,0,0,0,4.1275-17.2996,80.96749,80.96749,0,0,0,.8855-11.9914,53.07964,53.07964,0,0,0-.9839-11.7947,42.1676,42.1676,0,0,0-1.2766-5.8985,44.3285,44.3285,0,0,0-1.8682-5.7989,179.21282,179.21282,0,0,0-9.5341-20.9364c-.8843-1.867-1.8682-3.6368-2.7525-5.4066-.8843-1.4734-1.6714-2.9481-2.4573-4.4227v-.0984c-13.0725-24.0812-26.343-46.4922-27.718-90.7239l-70.9671-45.0177-50.5237-32.1419,57.8957-135.054,89.3465-28.21,378.1329,13.8584,55.9291,16.2198,40.0046,11.5978s57.7962,108.122,96.4245,200.7129l-87.0859,22.0175-73.0332,18.4803-15.2347-28.4068c-.0984-.0983-.0984-.0983-.0984-.1967,1.0811,4.521,14.3516,59.8599,5.4066,101.1423-3.7352,17.1028-11.2055,31.7496-24.8683,39.4155,0,0-.6875,1.3774-1.8682,3.9331-.3924.8831-.7859,1.867-1.2767,2.9481-.3935.7859-.6887,1.6714-1.0822,2.6541-.2952.7859-.6876,1.573-.9815,2.3589-2.1634,5.1102-4.7191,11.6975-7.2748,19.265-.5891,1.9666-1.2778,3.9319-1.9654,5.9957-.7859,2.1622-1.4746,4.5211-2.1633,6.88a21.65538,21.65538,0,0,0-.6875,2.3601q-1.17885,4.127-2.359,8.5515c-1.1794,4.4226-2.2605,8.9437-3.1448,13.6616l-1.7698,9.1417v.5904c-.4907,3.0464-.9827,6.0941-1.2779,9.1417-.1967,1.5718-.3935,3.242-.4919,4.8163a145.056,145.056,0,0,0-.5891,19.5601c.1968,6.3881,2.7513,13.5632,7.0768,21.4271a100.697,100.697,0,0,0,5.8973,9.9277,8.267,8.267,0,0,1,.7871,1.1795c3.8323,5.7005,8.3546,11.7958,13.466,18.2823,3.3417,4.2259,6.88,8.6498,10.812,13.2704,1.7686,2.2606,3.8336,4.6195,5.8973,7.0768,4.6207,5.5038,9.5353,11.2043,14.5483,17.2012,7.372,8.6486,15.1363,17.7904,22.999,27.4229,2.6541,3.1448,5.3082,6.4876,7.8639,9.7321,2.7525,3.242,5.3082,6.5848,7.9623,10.0248,5.3082,6.7828,10.5168,13.7612,15.7266,20.9364,2.5557,3.4412,5.013,6.9784,7.4703,10.518q.2934.44265.5891.8843c2.4573,3.5384,4.8163,7.0768,7.1752,10.7135,2.5557,3.7352,5.013,7.6672,7.4703,11.5979,2.359,3.8348,4.6195,7.7655,6.9796,11.6975,2.1622,3.9319,4.4227,7.8639,6.5861,11.8942q3.83355,7.0767,7.3719,14.4487c1.6702,3.5384,3.3405,7.1752,5.0131,10.812,1.8669,4.2271,3.7339,8.5514,5.4053,12.9741,1.7698,4.3255,3.44,8.7482,4.9147,13.1721q1.9167,5.4534,3.5384,10.9103c1.1794,3.6368,2.2605,7.2736,3.146,11.0087C1901.3989,1787.3947,1901.9881,1789.7536,1902.48,1792.1125Z" class="color59b3ce svgShape"/><path fill="#ce8559" d="M1905.2325,1804.7927H1251.1926s-15.7266-229.8084,101.9294-347.0721a223.21164,223.21164,0,0,1,19.6586-17.4963v-.0984a51.97833,51.97833,0,0,0,2.9492-4.5211,134.00928,134.00928,0,0,0,7.7643-14.7439,96.06819,96.06819,0,0,0,3.9332-9.5341,46.75155,46.75155,0,0,0,1.7686-5.2098,105.90021,105.90021,0,0,0,4.1275-17.2996,80.96749,80.96749,0,0,0,.8855-11.9914,53.07964,53.07964,0,0,0-.9839-11.7947,42.1676,42.1676,0,0,0-1.2766-5.8985,44.3285,44.3285,0,0,0-1.8682-5.7989,179.21282,179.21282,0,0,0-9.5341-20.9364c-.8843-1.867-1.8682-3.6368-2.7525-5.4066-.8843-1.4734-1.6714-2.9481-2.4573-4.4227v-.0984c-2.2606-17.9871,9.9276-32.8294,9.9276-32.8294-3.8335-19.265.9827-30.8641.9827-30.8641l18.7743.3936,152.9428,3.44,7.6671-28.8987,28.9958,36.6642,22.0175,80.0104,5.013,18.3795,125.4216,21.3311c-.3924.8831-.7859,1.867-1.2767,2.9481-.3935.7859-.6887,1.6714-1.0822,2.6541a23.94056,23.94056,0,0,0-.9815,2.3589c-2.1634,5.1102-4.7191,11.6975-7.2748,19.265-.6875,1.8682-1.2778,3.9319-1.9654,5.9957-.7859,2.1622-1.4746,4.5211-2.1633,6.88a21.65538,21.65538,0,0,0-.6875,2.3601q-1.17885,4.127-2.359,8.5515c-1.1794,4.4226-2.2605,8.9437-3.1448,13.6616-.6887,3.0476-1.1807,6.0953-1.7698,9.1417v.5904c-.4907,3.0464-.9827,6.0941-1.2779,9.1417-.1967,1.6702-.3935,3.242-.4919,4.8163a145.056,145.056,0,0,0-.5891,19.5601c.1968,6.3881,2.7513,13.5632,7.0768,21.4271,1.6714,3.1461,3.7351,6.4877,5.8973,9.9277a8.267,8.267,0,0,1,.7871,1.1795c3.9307,5.7005,8.453,11.7958,13.466,18.2823,3.44,4.2259,6.9784,8.7481,10.812,13.2704,1.9654,2.359,3.8336,4.6195,5.8973,7.0768,4.6207,5.5038,9.5353,11.2043,14.5483,17.2012q11.2056,12.9729,22.999,27.4229c2.6541,3.1448,5.3082,6.4876,7.8639,9.7321,2.7525,3.242,5.3082,6.5848,7.9623,10.0248,5.3082,6.7828,10.5168,13.7612,15.7266,20.9364,2.5557,3.4412,5.013,6.9784,7.4703,10.518q.2934.44265.5891.8843c2.4573,3.5384,4.8163,7.0768,7.1752,10.7135,2.5557,3.7352,5.013,7.6672,7.4703,11.5979,2.359,3.8348,4.6195,7.7655,6.9796,11.6975,2.1622,3.9319,4.4227,7.8639,6.5861,11.8942q3.83355,7.0767,7.3719,14.4487c1.6702,3.5384,3.3405,7.1752,5.0131,10.812,1.8669,4.2271,3.7339,8.5514,5.4053,12.9741,1.7698,4.3255,3.44,8.7482,4.9147,13.1721q1.9167,5.4534,3.5384,10.9103c1.1794,3.6368,2.2605,7.2736,3.146,11.0087.6875,2.2606,1.2767,4.6195,1.7686,6.9784C1903.5611,1796.2413,1904.4454,1800.4684,1905.2325,1804.7927Z" class="color59b3ce svgShape"/><path d="M1276.6512,1186.7282l-50.5237-32.1419,57.8957-135.054,89.3465-28.21,378.1329,13.8584,55.9291,16.2198c-25.4586,44.624-99.5717,148.4205-233.0527,136.8226-169.5549-14.7439-248.8766-82.9584-248.8766-82.9584Z" style="mix-blend-mode:soft-light" opacity=".2" fill="#000000" class="color000 svgShape"/><path d="M1701.2752 1337.2137a275.2005 275.2005 0 0172.54 9.5341c-3.7352 17.1028-11.2055 31.7496-24.8683 39.4155 0 0-.6875 1.3774-1.8682 3.9331-.3924.8831-.7859 1.867-1.2767 2.9481-.3935.7859-.6887 1.6714-1.0822 2.6541-.2952.7859-.6876 1.573-.9815 2.3589-2.1634 5.1102-4.7191 11.6975-7.2748 19.265-.5891 1.9666-1.2778 3.9319-1.9654 5.9957-.7859 2.1622-1.4746 4.5211-2.1633 6.88l-264.0128 4.5223s-59.566 274.9243 245.7317 370.0722H1251.1926s-15.7266-229.8084 101.9294-347.0721a210.90126 210.90126 0 0119.6586-17.5947 7.88139 7.88139 0 00.7859-1.1783 6.90407 6.90407 0 00.5903-.8855c.492-.6875.9839-1.4734 1.573-2.4573a134.00928 134.00928 0 007.7643-14.7439c1.3775-2.9493 2.6541-6.0941 3.9332-9.5341.5891-1.6702 1.2766-3.44 1.7686-5.2098a105.90021 105.90021 0 004.1275-17.2996 80.96749 80.96749 0 00.8855-11.9914 53.07964 53.07964 0 00-.9839-11.7947 42.1676 42.1676 0 00-1.2766-5.8985 44.3285 44.3285 0 00-1.8682-5.7989 179.21282 179.21282 0 00-9.5341-20.9364c-.8843-1.867-1.8682-3.6368-2.7525-5.4066-.8843-1.4734-1.6714-2.9481-2.4573-4.4227v-.0984c-13.0725-24.0812-26.343-46.4922-27.718-90.7239l23.9828-45.4112-26.7353-47.4749 40.9873 34.5992s-.8831 42.6587 19.1678 85.7109c14.1547 30.3721 38.7279 60.941 81.2882 76.6688 53.1767 19.6585 95.1479 19.3633 130.335 14.5471C1649.5731 1345.7663 1676.6036 1337.2137 1701.2752 1337.2137zM1856.7749 1255.7287l-73.0332 18.4803-15.2347-28.4068c-.0984-.0983-.0984-.0983-.0984-.1967a.76856.76856 0 01-.0972-.2952l-26.2457-96.0309 70.4775 24.1796z" style="mix-blend-mode:soft-light" opacity=".2" fill="#000000" class="color000 svgShape"/><path fill="#cc9676" d="M1213.2322,814.36l27.013,5.1453-16.7224,124.7743s-113.1973,75.8937-367.89132,20.5813l-1.2863-86.1843Z" class="colorb176cc svgShape"/><path fill="#e0aa89" d="M828.61848,878.6766l16.7224,63.0303s259.83932,34.731,367.89132-15.436c0,0,5.1453-114.4836,23.154-154.3599,0,0-77.18,0-91.3297,1.2863S828.61848,878.6766,828.61848,878.6766Z" class="colorc889e0 svgShape"/><path fill="#cc9676" d="M904.51218,712.7396l-51.4533-7.718s-29.5857,136.3513-52.7397,180.0867c0,0,230.25372,64.3166,348.59632,43.7353l-3.859-84.898Z" class="colorb176cc svgShape"/><path fill="#efbb9c" d="M1192.6105,897.9443c-223.81262,32.1419-355.03312-45.4112-352.38022-50.1302,24.3776-43.7398,60.4514-167.1948,60.4514-167.1948s91.31309,70.6719,135.05412,70.6719c43.7397,0,151.7633-28.3084,151.7633-28.3084Z" class="colorcc9cef svgShape"/><path fill="#ffa30f" d="M1999.5527,388.7078a371.02345,371.02345,0,0,1-11.0261,81.8943c-7.3851,29.3329-18.8464,57.9667-35.3292,81.3099-2.084,3.0326-4.3659,6.0015-6.6482,8.8381-58.6946,72.3799-62.0457,129.6673-62.0457,129.6673S1700.851,881.7256,1497.5356,849.6532c-91.4368-14.5175-160.6633-61.4749-209.8658-121.2212l-.0661-.0654a416.84523,416.84523,0,0,1-61.3282-101.5121c-20.2337-47.0388-31.2133-95.1821-33.7532-137.5276a140.89563,140.89563,0,0,1,.0934-18.1926l-.0003-.0658c2.9392-48.8785,27.8804-109.1134,67.2839-166.9344a588.7489,588.7489,0,0,1,43.2246-55.7422q12.03945-13.6635,25.0015-26.6747c68.5661-68.8254,155.8107-121.4685,244.5107-126.1119,35.5198-1.8444,71.142,2.8131,105.8056,12.0722,124.2474,32.8512,235.8855,123.3714,285.3721,175.3004,13.5441,14.1745,22.4088,25.4198,25.6638,31.903,4.9813,9.7579,8.4269,26.6164,9.6619,47.4286C1999.6461,370.5159,1999.8278,379.3801,1999.5527,388.7078Z" class="color2a323f svgShape"/><path fill="#82551d" d="M1412.5179,912.7265c-3.3593,9.8046-8.3299,13.4446-13.4093,9.4683-17.6139-13.7577-12.0938-174.4297-12.0938-174.4297l3.4185.6379,1.2493.255C1420.3051,827.1732,1420.9178,888.5756,1412.5179,912.7265Z" class="color1d6a82 svgShape"/><path fill="#b76839" d="M1412.5179,912.7265c-2.8671,3.9567-6.2774,4.8299-9.7736,2.0912-15.2385-11.8656-13.1751-133.7038-12.311-166.4147l1.2493.255C1420.3051,827.1732,1420.9178,888.5756,1412.5179,912.7265Z" class="color3994b7 svgShape"/><path fill="#ce8559" d="M1402.6503,815.0672s-6.5208,71.1507,1.4028,84.0352S1415.8088,855.1667,1402.6503,815.0672Z" class="color59b3ce svgShape"/><path fill="#82551d" d="M1862.5418,910.6898c-4.0197,9.5529-9.2268,12.8457-14.0234,8.5325-16.6354-14.9261-.1783-174.8484-.1783-174.8484l3.3671.8694,1.229.3395C1876.1414,825.8661,1872.5681,887.1675,1862.5418,910.6898Z" class="color1d6a82 svgShape"/><path fill="#b76839" d="M1862.5418,910.6898c-3.1302,3.7521-6.592,4.3909-9.8934,1.4203-14.3945-12.8765-4.0325-134.2909-.9412-166.8668l1.229.3395C1876.1414,825.8661,1872.5681,887.1675,1862.5418,910.6898Z" class="color3994b7 svgShape"/><path fill="#ce8559" d="M1859.3527,812.5851s-11.3547,70.5408-4.3275,83.9354S1869.7477,853.4881,1859.3527,812.5851Z" class="color59b3ce svgShape"/><path fill="#fbb890" d="M1751.4677,1005.1683s-10.4541,43.93-57.3545,77.0349c-29.2383,20.7238-72.6869,37.1931-136.5946,36.1129-166.2392-2.7301-184.1547-127.0158-184.1547-127.0158l111.8201-38.7952-5.7258-140.3146,139.6029,76.7655,3.8537,53.8319,1.5002,21.2701Z" class="colorf5be9b svgShape"/><path d="M1694.1132,1082.2032c-29.2383,20.7238-72.6869,37.1931-136.5946,36.1129-166.2392-2.7301-184.1547-127.0158-184.1547-127.0158l111.8201-38.7952-5.7258-140.3146,139.6029,76.7655,3.8537,53.8319c-19.884,2.7406-70.5274,12.8149-116.5636,47.754C1452.7952,1031.171,1569.8216,1110.6932,1694.1132,1082.2032Z" style="mix-blend-mode:soft-light" opacity=".65" fill="#000000" class="color000 svgShape"/><path fill="#fbb890" d="M1874.1505,637.0178c11.5564,34.0847,20.4904,80.5979,6.4255,124.8114a92.03956,92.03956,0,0,1-8.8874,19.293l-.0658.0004c-46.7061,78.6161-216.5991,160.5626-216.5991,160.5626s-291.2058-104.2071-305.7955-290.1149c0,0,2.3404-38.7617,31.9641-84.0493q.1956-.297.3907-.5939c20.5099-31.1811,53.8746-65.3905,108.232-92.2334,133.6007-65.9109,210.9217-108.1876,239.2205-144.01-2.7981,4.5471-48.881,77.3153-131.0851,103.9883,0,0,167.3251-25.5823,177.1128-151.8651,0,0,25.5421,33.6105,52.7934,79.0339,23.6714,39.5329,48.6416,87.9901,59.1976,130.9465l-7.7012,20.0094-3.7533,9.8069.0003.0657-24.3331,63.2523S1863.7968,606.4721,1874.1505,637.0178Z" class="colorf5be9b svgShape"/><path d="M1880.576 761.8292a92.03956 92.03956 0 01-8.8874 19.293s-.0654.0661-.0658.0004c-38.9937-8.5121-80.786-24.1016-87.2499-51.9766-9.4246-40.4014 56.0444-76.5024 89.7776-92.1282C1885.7069 671.1025 1894.6409 717.6157 1880.576 761.8292zM1887.0542 492.7873l-7.7012 20.0094-3.7533 9.8069.0003.0657c-89.4182 28.4218-220.9787 60.5641-220.4545 2.8334.5036-61.4088 108.4824-128.882 172.7111-163.6619C1851.528 401.3737 1876.4982 449.8309 1887.0542 492.7873z" style="mix-blend-mode:soft-light" fill="#ffffff" opacity=".7" class="colorfff svgShape"/><circle cx="1703.148" cy="502.329" r="14.442" fill="#3a2b17" transform="rotate(-45 1703.148 502.329)" class="color3a1717 svgShape"/><circle cx="1703.148" cy="502.329" r="11.97" fill="#cc9c60" transform="rotate(-77.062 1703.148 502.329)" class="colorcc6060 svgShape"/><path fill="#e2996d" d="M1643.6774,838.098c-60.4289-23.1589-57.0277-88.5735-57.0277-88.5735l8.8413,8.3233s1.1441-.0861,3.202-.199c19.6665-1.1017,122.7777-4.1655,119.578,53.7335,0,0-.0435.1241-.1304.3714C1716.677,816.3208,1700.9064,860.0632,1643.6774,838.098Z" class="colore26d6d svgShape"/><path fill="#d17705" d="M1725.2229,802.7561a12.59812,12.59812,0,0,1,1.9054,6.0639,16.25411,16.25411,0,0,1-.6332,6.1066c-1.2357,3.863-3.8007,7.7227-8.1338,9.2376a42.8062,42.8062,0,0,1,.8312-5.9227,47.37815,47.37815,0,0,1,1.234-5.1473,39.149,39.149,0,0,1,1.9036-5.0268A30.4309,30.4309,0,0,1,1725.2229,802.7561Z" class="colorb75151 svgShape"/><path fill="#cc9c60" d="M1718.271,811.3823s-.0435.1241-.1304.3714c-11.9895-2.3288-33.4163-8.1093-66.5262-22.445-31.5422-13.6462-46.1369-24.615-52.9214-31.6599C1618.3595,756.5471,1721.4707,753.4833,1718.271,811.3823Z" class="colorcc6060 svgShape"/><path fill="#d17705" d="M1722.5708,816.9077c-101.0157-23.7321-154.793-79.096-155.3218-79.6469l4.5833-4.385c.5179.5399,53.1163,54.5816,152.1928,77.862Z" class="colorb75151 svgShape"/><path fill="#d17705" d="M1578.9745,729.565a34.42425,34.42425,0,0,1-2.565,4.8312,40.32072,40.32072,0,0,1-2.5961,3.8583c-.9829,1.1396-1.7945,2.3447-2.9358,3.4795a53.746,53.746,0,0,1-3.7433,3.9037c-1.8613-3.8424-.6518-8.1868,1.6444-11.2353a12.63783,12.63783,0,0,1,4.4229-3.653A10.00692,10.00692,0,0,1,1578.9745,729.565Z" class="colorb75151 svgShape"/><path fill="#edab83" d="M1700.9761 824.7128c-1.7661 7.1818-16.6487 9.696-33.2412 5.6156s-28.6116-13.2103-26.8455-20.3921 15.1491-1.6638 31.7415 2.4166S1702.7423 817.531 1700.9761 824.7128zM1641.1516 802.8631c-.8993 1.969-4.8965 2.0726-8.928.2314s-6.5708-4.93-5.6715-6.899 4.0134.149 8.045 1.9903S1642.0508 800.8941 1641.1516 802.8631z" class="colored8383 svgShape"/><ellipse cx="1598.661" cy="617.144" fill="#ffa30f" rx="25.239" ry="46.463" transform="rotate(-.327 1599.784 617.575)" class="color2a323f svgShape"/><ellipse cx="1598.475" cy="584.513" rx="47.387" ry="87.235" transform="rotate(-.327 1598.494 584.52)" style="mix-blend-mode:soft-light" opacity=".65" fill="#000000" class="color000 svgShape"/><ellipse cx="1598.661" cy="617.144" fill="#2b251d" rx="22.479" ry="41.381" transform="rotate(-.327 1598.672 617.149)" class="color1d232b svgShape"/><ellipse cx="1608.873" cy="594.57" fill="#ffffff" rx="10.602" ry="7.461" transform="rotate(-84.632 1608.873 594.57)" class="colorfff svgShape"/><path fill="#ffffff" d="M1603.4783,610.8326c-.2664,2.8353-2.0998,4.9818-4.095,4.7943s-3.3967-2.6379-3.1303-5.4732,2.0998-4.9818,4.095-4.7944S1603.7447,607.9972,1603.4783,610.8326Z" class="colorfff svgShape"/><ellipse cx="1783.513" cy="628.332" fill="#ffa30f" rx="33.722" ry="18.318" transform="rotate(-87.067 1783.513 628.332)" class="color2a323f svgShape"/><ellipse cx="1784.724" cy="604.679" rx="63.313" ry="34.392" transform="rotate(-87.067 1784.725 604.679)" style="mix-blend-mode:soft-light" opacity=".65" fill="#000000" class="color000 svgShape"/><ellipse cx="1783.513" cy="628.332" fill="#2b251d" rx="30.034" ry="16.315" transform="rotate(-87.067 1783.513 628.332)" class="color1d232b svgShape"/><ellipse cx="1792.404" cy="612.888" fill="#ffffff" rx="7.695" ry="5.415" transform="rotate(-81.372 1792.404 612.888)" class="colorfff svgShape"/><path fill="#ffffff" d="M1787.2639,623.9569c-.31,2.0435-1.7271,3.5232-3.1652,3.305s-2.3524-2.0516-2.0423-4.0951,1.7271-3.5232,3.1651-3.305S1787.574,621.9134,1787.2639,623.9569Z" class="colorfff svgShape"/><path d="M1887.0542,492.7873l-7.7012,20.0094c-10.4365-22.0072-53.9077-113.179-80.8383-159.9174,0,0-157.3139,99.7382-239.4045,123.2583-82.0906,23.5858-126.5756,157.75-115.0188,238.0044,11.5571,80.3209,209.9461,215.8585,209.9461,215.8585s-234.138-81.8085-287.6899-247.7267c-12.7027-39.3983-4.7153-78.3229,14.8447-114.7528q.1956-.297.3907-.5939c20.5099-31.1811,53.8746-65.3905,108.232-92.2334,133.6007-65.9109,210.9217-108.1876,239.2205-144.01-2.7981,4.5471-48.881,77.3153-131.0851,103.9883,0,0,167.3251-25.5823,177.1128-151.8651C1775.0632,282.8069,1864.3956,400.5123,1887.0542,492.7873Z" style="mix-blend-mode:soft-light" opacity=".65" fill="#000000" class="color000 svgShape"/><path fill="#f4be9d" d="M1755.1916,689.3008s-44.3003-48.6956-59.8605,29.8743C1695.3311,719.1751,1752.8886,717.3283,1755.1916,689.3008Z" class="colorf4a39d svgShape"/><path fill="#f4c9b0" d="M1727.3982,674.0668s-17.1741,11.4884-14.0448,20.3982,36.9531,1.9442,40.0175-.5361S1727.3982,674.0668,1727.3982,674.0668Z" class="colorf4b2b0 svgShape"/><path fill="#e8ad89" d="M1714.3092,646.1267a230.32077,230.32077,0,0,1,15.4093,23.9751l-1.5304-1.8902c11.9831,6.7408,23.3275,14.3767,34.5439,22.1924l6.5441,4.5592-5.6094,5.3119a81.424,81.424,0,0,1-14.7282,11.1678,75.13734,75.13734,0,0,1-16.625,7.1698c-11.5155,3.5725-24.2127,3.6042-35.1406-.3512,5.7922-.9675,11.2673-1.5845,16.4973-3.348a84.55163,84.55163,0,0,0,14.9861-5.8153,103.83247,103.83247,0,0,0,13.6224-8.0979,84.06347,84.06347,0,0,0,11.898-9.7851l.9345,9.8684c-11.038-8.065-21.9483-16.3096-32.2195-25.4495l-1.3108-1.1665-.2224-.7265A230.17367,230.17367,0,0,1,1714.3092,646.1267Z" class="colore88b89 svgShape"/><path d="M1613.3955 712.3351c-.4234 15.9762-23.6734 8.9512-54.9436 8.1225s-58.7195 4.8526-58.2961-11.1235 26.1161-28.2555 57.3864-27.4268S1613.8189 696.359 1613.3955 712.3351zM1524.37 670.299c.0289 5.0696-7.9508 9.2249-17.8231 9.2812s-17.899-4.0077-17.9279-9.0773 7.9508-9.2249 17.8232-9.2812S1524.3411 665.2294 1524.37 670.299z" style="mix-blend-mode:soft-light" fill="#ffffff" opacity=".7" class="colorfff svgShape"/><path fill="#ffa30f" d="M1641.9292,435.7858c-.486,18.4578-15.1957,30.232-15.1957,30.232a205.00343,205.00343,0,0,0-22.181,3.0158c-7.151,1.354-14.1029,3.0355-20.5944,4.8459-3.4752.9401-6.8193,1.878-9.9658,2.8812-3.7371,1.1381-7.2773,2.2742-10.4888,3.4093-13.5028,4.609-22.2152,8.5333-22.2152,8.5333,3.3282-15.2552,15.505-22.0237,20.0248-24.0857a86.77246,86.77246,0,0,0-20.1031,10.3603c9.2603-11.5459,21.2974-19.7582,33.7428-25.5437,3.5368-1.662,7.1405-3.1272,10.68-4.3949a124.22941,124.22941,0,0,1,12.1929-3.9449,177.51406,177.51406,0,0,1,26.6354-5.0118c6.8915-.7616,11.16-.8517,11.16-.8517-1.3138,11.5006-9.0655,22.6443-9.0655,22.6443C1632.9656,453.2417,1641.9292,435.7858,1641.9292,435.7858Z" class="color2a323f svgShape"/><path fill="#fb600a" d="M1585.6328 445.0393c-2.5687 10.2596-6.5005 23.2863-11.6405 31.7214-3.7371 1.1381-7.2773 2.2742-10.4888 3.4093a93.28633 93.28633 0 0011.4493-30.7358C1578.4896 447.7722 1582.0933 446.307 1585.6328 445.0393zM1624.4611 436.0826c-4.473 10.2712-11.4229 23.8403-19.9086 32.951-7.151 1.354-14.1029 3.0355-20.5944 4.8459 4.8088-8.9583 10.9106-21.5381 13.8676-32.7851A177.51406 177.51406 0 011624.4611 436.0826z" class="color3d4654 svgShape"/><path fill="#ffa30f" d="M1827.9478,549.2133a33.62447,33.62447,0,0,1,9.7743,21.0922s-3.2295-2.0179-8.8952-5.1379c-1.3841-.8459-2.9651-1.6907-4.744-2.6658-.9879-.5195-2.108-1.1047-3.2277-1.6892-5.5335-2.9243-12.1195-6.1705-19.5593-9.4767-13.3001-5.9008-29.0958-11.7866-45.0748-15.3079,0,0-12.9507-13.7185-10.8882-32.1188,0,0,6.4092,18.2862,12.1549,23.9022-.664-1.3094-6.1144-12.7065-5.7826-23.6106a157.44242,157.44242,0,0,1,26.8365,7.269,148.27829,148.27829,0,0,1,31.3487,15.3196,93.05433,93.05433,0,0,1,8.9032,6.451,86.56538,86.56538,0,0,1,7.3928,6.5253,80.10612,80.10612,0,0,1,13.3622,16.8685,99.01718,99.01718,0,0,0-11.8742-9.2576,46.5624,46.5624,0,0,0-6.1281-3.5775,3.06844,3.06844,0,0,0-.6585-.325,4.42064,4.42064,0,0,1,.725.4561A36.83412,36.83412,0,0,1,1827.9478,549.2133Z" class="color2a323f svgShape"/><path fill="#fb600a" d="M1820.8552 560.8126c-5.5335-2.9243-12.1195-6.1705-19.5593-9.4767-5.2696-14.2217-15.7367-30.0548-22.7542-39.8661a148.27829 148.27829 0 0131.3487 15.3196C1816.7997 540.6081 1819.8198 552.0183 1820.8552 560.8126zM1828.8269 565.1676c-1.3841-.8459-2.9651-1.6907-4.744-2.6658a111.13123 111.13123 0 00-2.4701-18.5716 36.83412 36.83412 0 016.335 5.2831A101.53255 101.53255 0 011828.8269 565.1676zM1827.6744 547.3766a46.5624 46.5624 0 00-6.1281-3.5775 98.67549 98.67549 0 00-2.7527-10.5587 86.56538 86.56538 0 017.3928 6.5253C1826.7922 542.3902 1827.2665 544.9482 1827.6744 547.3766zM1789.0811 264.8636c110.8 47.2446 169.8416 139.3778 199.4455 205.7385-7.3851 29.3329-18.8464 57.9667-35.3292 81.3099-25.6979-153.0728-167.7449-278.359-167.7449-278.359l23.4375 9.9797c-13.0059-11.8783-37.9556-22.2438-37.9556-22.2438l16.6168.2339-7.1227-5.2137c114.2084-.0597 182.6978 55.8328 218.711 106.0004.5066 8.2064.6883 17.0706.4132 26.3983C1938.7104 291.7906 1789.0811 264.8636 1789.0811 264.8636zM1963.8138 282.9779c-122.2582-29.5788-237.2984-129.2734-285.3721-175.3004C1802.6891 140.5287 1914.3272 231.0489 1963.8138 282.9779zM1754.5237 262.6956c-1.8196 3.4256-61.7529 111.9338-198.4424 166.0422-138.8517 54.9736-273.6367 166.6008-266.7633 300.8015l-1.6482-1.1073-.0661-.0654a416.84523 416.84523 0 01-61.3282-101.5121c4.3251-36.2116 18.7665-83.5138 59.2988-127.6154 80.7391-87.8741 267.7451-117.2469 326.682-147.1367s96.9125-73.1887 96.9125-73.1887-84.6577 57.0945-167.0584 72.3413c-73.3473 13.5533-272.2683 3.4575-349.495 119.8135 2.9392-48.8785 27.8804-109.1134 67.2839-166.9344a390.59325 390.59325 0 01120.5163-11.0644c118.9816 7.7938 284.3089-45.6233 315.9301-86.1938-9.3166 13.1223-74.132 94.7318-236.9823 110.3717-177.2251 17.035-213.8808 61.5746-213.8808 61.5746s79.8657-33.6866 202.974-39.3143 258.1604-70.4309 280.1399-108.7787c0 0 1.1334 37.4936-13.4454 60.6945C1716.7884 290.6255 1742.9154 277.0793 1754.5237 262.6956zM1673.7916 179.0269s-146.5334 55.3454-294.2605 62.6239c-29.8735 1.4843-55.0789 3.9265-76.4072 6.7411q12.03945-13.6635 25.0015-26.6747a549.18242 549.18242 0 0157.6891-6.8316C1533.5254 204.7828 1622.0099 173.8058 1673.7916 179.0269z" class="color3d4654 svgShape"/><path fill="#fbb890" d="M1358.3318,1287.7722c-52.0944,117.7557-133.481,246.9124-133.481,246.9124-120.9989-158.2522-142.8195-456.6674-142.8195-456.6674-43.4458-26.4414-116.28112-57.6006-125.22482-61.3358l-.88548-.3923L880.13768,890.2772l52.6859-38.6284s.0972-1.573.294-4.2271c.9827-12.5817,4.9146-49.1463,17.692-52.3896a13.15961,13.15961,0,0,1,4.719-.3935c7.6659.1968,13.6628,5.7989,17.2012,10.3212a44.16975,44.16975,0,0,1,3.8336,5.5038s2.2605-14.9407,12.385-22.0175a17.137,17.137,0,0,1,1.76862-1.0811c11.5978-6.4876,28.3083,17.9871,28.3083,17.9871l.2952-.3923,7.3719-8.651a10.26482,10.26482,0,0,1,10.9104-.8831c30.1765,14.0552,59.8611,155.3017,59.8611,155.3017l74.6026,74.6038-14.1536,56.6167,63.006,164.6402,2.7512-10.6151,1.2791-5.0131,7.4703-29.0954,9.6325-37.1537,105.5663,67.0351C1348.4042,1255.5331,1352.5329,1273.0283,1358.3318,1287.7722Z" class="colorf5be9b svgShape"/><path fill="#cc9676" d="M1429.3362,1114.0756l-54.026,11.577,1.2863,19.295-21.8677,5.1453,31.5287,108.7044s41.7923,21.2153,41.7923,17.3563S1429.3362,1114.0756,1429.3362,1114.0756Z" class="colorb176cc svgShape"/><polygon fill="#e0aa89" points="1474.358 1099.926 1416.473 1093.494 1413.9 1265.863 1456.349 1277.44 1474.358 1099.926" class="colorc889e0 svgShape"/><path fill="#efbb9c" d="M1565.6583,1233.6886c1.3155-3.843,45.0508-123.472,45.0508-123.472l-151.7873-39.8763-25.7266,195.5226,114.4836,15.436,20.5813-15.436Z" class="colorcc9cef svgShape"/><path fill="#fbb890" d="M1978.5584,1569.4806c-107.4332,0-190.4912-23.6901-249.4668-50.0319-73.1304-32.3386-109.3998-68.7065-109.3998-68.7065l-88.7586,25.1635c-101.0452-37.942-129.2539-74.113-137.0195-92.7889-3.44-8.453-2.8508-13.3676-2.8508-13.3676-11.5979-16.4153-12.5818-36.663-12.5818-36.663a36.63346,36.63346,0,0,1-3.1448-10.518c-2.2606-17.9871,9.9276-32.9278,9.9276-32.9278-3.8335-19.265.9827-30.8641.9827-30.8641l86.1045,1.9654,85.6126,1.8682,7.6671-28.8987,28.9958,36.6642,27.0305,98.3899,125.4216,21.3311,79.0277,13.3665-.1968-.8843-33.025-130.6302,137.9037-34.9927c.0984.1967.0984.3935.1968.5903,1.8682,6.0929,3.6368,12.385,5.4054,18.9698C1968.1388,1377.2195,1978.5584,1569.4806,1978.5584,1569.4806Z" class="colorf5be9b svgShape"/><path d="M999.07277 955.0529l-26.343-150.0931a44.16975 44.16975 0 013.8336 5.5038s2.2605-14.9407 12.385-22.0175c.68749 37.8424 23.98282 162.4781 23.98282 162.4781zM1046.0558 950.9242l-26.7353-145.9644 7.3719-8.651a10.26482 10.26482 0 0110.9104-.8831c3.44 46.689 16.8076 148.5189 16.8076 148.5189z" style="mix-blend-mode:soft-light" opacity=".65" fill="#000000" class="color000 svgShape"/><path d="M1358.3318,1287.7722c-52.0944,117.7557-133.481,246.9124-133.481,246.9124-120.9989-158.2522-142.8195-456.6674-142.8195-456.6674l-125.22482-61.3358-.88548-.3923L880.13768,890.2772l36.2694,3.5384,21.2328-23.0986-4.5223-23.2953c.9827-12.5817,4.9146-49.1463,17.692-52.3896a13.15961,13.15961,0,0,1,4.719-.3935,44.445,44.445,0,0,0-6.8812,12.4833c-7.5687,20.0521,28.9971,179.6794,28.9971,179.6794l102.323-27.6209,38.7267,124.4389s63.5951,420.2012,127.0918,368.9899c52.7843-42.3635-1.9654-173.1904-22.1159-216.6362l1.2791-5.0131c26.2434,34.1073,56.3215,115.2972,56.3215,115.2972s44.2317-68.2158,38.7268-79.3217c-4.1276-8.2574-59.7616-46.2967-87.578-65.0709l9.6325-37.1537,105.5663,67.0351C1348.4042,1255.5331,1352.5329,1273.0283,1358.3318,1287.7722Z" style="mix-blend-mode:soft-light" opacity=".65" fill="#000000" class="color000 svgShape"/><path fill="#d89b77" d="M1044.7225 946.8523c-6.9384-23.1061-11.8326-46.5841-16.2256-70.1523-4.1895-23.6061-7.8659-47.3045-9.48-71.3781 6.9546 23.1034 11.8467 46.5814 16.2259 70.1523C1039.4182 899.0824 1043.0926 922.7821 1044.7225 946.8523zM976.55088 810.4671c6.3094 22.9588 10.5657 46.2371 14.31889 69.5939 3.5487 23.3892 6.5824 46.8583 7.5447 70.6503-6.32547-22.9561-10.57969-46.2351-14.31919-69.5939C980.561 857.7261 977.52938 834.2571 976.55088 810.4671zM932.78108 851.6299c7.8484 17.3701 13.7012 35.3186 19.0651 53.4096 5.1649 18.1482 9.8291 36.4417 12.4806 55.3191-7.8642-17.3652-13.7149-35.3144-19.0654-53.4089C940.11028 888.7974 935.44808 870.5032 932.78108 851.6299zM1220.9201 1246.5857c9.5623 12.8363 17.5777 26.742 24.8666 41.0119a306.131 306.131 0 0118.2098 44.5762c4.519 15.4255 8.246 31.3198 8.5638 47.593.4184 16.1147-1.8496 32.8237-9.8043 46.8878 5.284-15.1727 5.975-31.0485 4.5372-46.5621a203.78529 203.78529 0 00-9.8443-45.8976c-4.3596-15.1246-10.2134-29.8256-16.4257-44.382C1234.8068 1275.2489 1228.054 1260.8756 1220.9201 1246.5857z" class="colord89a77 svgShape"/><path d="M1978.5584 1569.4806c-107.4332 0-190.4912-23.6901-249.4668-50.0319-73.1304-32.3386-109.3998-68.7065-109.3998-68.7065l-88.7586 25.1635c-101.0452-37.942-129.2539-74.113-137.0195-92.7889-3.44-8.453-2.8508-13.3676-2.8508-13.3676-11.5979-16.4153-12.5818-36.663-12.5818-36.663a36.63346 36.63346 0 01-3.1448-10.518c-2.2606-17.9871 9.9276-32.9278 9.9276-32.9278-3.8335-19.265.9827-30.8641.9827-30.8641l86.1045 1.9654c6.7816 39.809 25.7527 144.491 40.2026 165.6242 17.9871 26.2433 102.3218-1.3763 102.3218-1.3763l1.3763-31.7483s20.7396 35.877 142.426 80.1087C1880.2658 1517.5817 1920.6651 1516.2043 1978.5584 1569.4806zM1863.6549 1278.5333l48.4576 153.4347s-49.3431-18.971-86.2029-29.3894l-33.025-130.6302 137.9037-34.9927c.0984.1967.0984.3935.1968.5903 1.8682 6.0929 3.6368 12.385 5.4054 18.9698z" style="mix-blend-mode:soft-light" opacity=".65" fill="#000000" class="color000 svgShape"/><path fill="#d89b77" d="M1385.2971 1289.6696c20.58.3864 40.8491 2.8268 61.0421 5.7706 20.162 3.1489 40.2458 6.813 60.0161 12.5498-20.5825-.3698-40.8512-2.8123-61.0422-5.7705C1425.1532 1299.0567 1405.0697 1295.3899 1385.2971 1289.6696zM1378.5053 1333.0965c20.5962.4662 40.8743 2.9851 61.0738 6.0074 20.1682 3.2268 40.2562 6.9694 60.023 12.7826-20.5989-.4497-40.8766-2.9713-61.0741-6.0074C1418.3622 1342.6379 1398.2745 1338.8939 1378.5053 1333.0965zM1391.06 1369.7317c18.0759 1.5576 35.6673 5.1363 53.1404 9.2094 17.4248 4.2749 34.728 9.0566 51.5428 15.8765-18.0797-1.5418-35.6708-5.1218-53.1404-9.2087C1425.1811 1381.3203 1407.8785 1376.5365 1391.06 1369.7317zM1826.1501 1403.4851c18.4085.8291 36.4234 5.2155 53.7253 11.4866 17.0916 6.5418 34.0863 15.3724 46.6286 29.0481C1895.0103 1425.4523 1860.7177 1415.7064 1826.1501 1403.4851z" class="colord89a77 svgShape"/><polygon points="1458.922 1070.34 1557.964 1262.61 1610.709 1110.217 1458.922 1070.34" style="mix-blend-mode:soft-light" fill="#ffffff" opacity=".7" class="colorfff svgShape"/><path d="M1192.6105,897.9443s-75.2925-117.0669-165.1322-122.5707c-89.83842-5.505-126.79662-94.7543-126.79662-94.7543s91.31309,70.6719,135.05412,70.6719c43.7397,0,151.7633-28.3084,151.7633-28.3084Z" style="mix-blend-mode:soft-light" fill="#ffffff" opacity=".7" class="colorfff svgShape"/></g></svg>