<svg width="214" height="47" viewBox="0 0 214 47" fill="none" xmlns="http://www.w3.org/2000/svg">
<path d="M50.0808 43.6498C50.1488 43.6498 50.1488 43.6498 50.1488 43.6984C50.1488 43.7469 50.1488 43.7955 50.0808 43.8441C50.0128 43.8926 50.0128 43.9412 49.9447 43.9897C49.8767 44.0383 49.8086 44.0383 49.7406 44.0383C49.6045 44.0383 49.5364 43.9897 49.4004 43.9412C49.2643 43.8926 49.1282 43.7955 49.0601 43.6498C48.924 43.5042 48.856 43.3585 48.788 43.2129C48.7199 43.0672 48.6519 42.873 48.6519 42.6302C48.6519 42.3389 48.7199 41.9505 48.924 41.5135C49.1282 41.0765 49.4004 40.5424 49.7406 40.0083C50.0808 39.4742 50.421 38.8916 50.8293 38.3089C51.2376 37.7263 51.6458 37.1436 52.0541 36.6095C51.7139 36.9009 51.3736 37.1922 51.0334 37.5321C50.6252 37.8719 50.2849 38.2118 49.8767 38.5517C49.4684 38.8916 49.1282 39.2314 48.7199 39.5713C48.3116 40.0083 47.9714 40.2996 47.6312 40.591C47.291 40.8337 47.0868 41.0765 46.8147 41.2707C46.6105 41.4649 46.4744 41.562 46.4064 41.562C46.3383 41.562 46.2023 41.5135 46.0662 41.4649C45.9301 41.4164 45.794 41.3193 45.6579 41.2221C45.5218 41.125 45.4538 40.9794 45.3177 40.8337C45.2496 40.6881 45.1816 40.5424 45.1816 40.3482C45.1816 40.154 45.1816 39.9598 45.2496 39.717C45.3177 39.4742 45.3857 39.2314 45.4538 38.9401C45.5218 38.6488 45.6579 38.406 45.7259 38.1147C45.794 37.8234 45.9301 37.5321 46.0662 37.2407C45.6579 37.7263 45.2496 38.2604 44.8414 38.7945C44.3651 39.3286 43.8887 39.8626 43.4124 40.3482C42.9361 40.8337 42.3918 41.3193 41.9155 41.7562C41.4391 42.1932 40.8948 42.5817 40.4185 42.9215C39.9422 43.2614 39.4659 43.5042 38.9895 43.6984C38.5132 43.8926 38.105 43.9897 37.7647 43.9897C37.4245 43.9897 37.1523 43.9412 36.8802 43.8926C36.608 43.7955 36.4039 43.7469 36.2678 43.6013C36.1317 43.5042 35.9956 43.3585 35.9275 43.2614C35.8595 43.1157 35.8595 43.0186 35.8595 42.9215C35.8595 42.8244 35.9275 42.7273 35.9956 42.6788C36.0636 42.5817 36.1997 42.5817 36.4039 42.5817C36.4719 42.5817 36.4719 42.6302 36.4719 42.6788C36.4719 42.7273 36.4719 42.8244 36.4719 42.873C36.4719 42.9701 36.4719 43.0186 36.4719 43.0672C36.4719 43.1157 36.5399 43.1643 36.608 43.1643C37.1523 43.1643 37.6967 43.0186 38.3091 42.7273C38.9215 42.436 39.5339 42.0961 40.0783 41.6106C40.6907 41.1736 41.3031 40.6395 41.8474 40.0569C42.4598 39.4742 43.0042 38.8916 43.5485 38.2604C44.0929 37.6292 44.5692 37.0465 45.0455 36.4639C45.5218 35.8812 45.9301 35.3471 46.2703 34.9102C46.6105 34.4732 46.8827 34.0848 47.1549 33.7934C47.359 33.5021 47.4951 33.3564 47.5632 33.3564C47.5632 33.3564 47.5632 33.3564 47.6312 33.3564C47.6312 33.3564 47.6312 33.3564 47.6992 33.3564C47.7673 33.3564 47.9034 33.405 48.0395 33.4536C48.1756 33.5021 48.2436 33.5992 48.3797 33.6478C48.4477 33.7449 48.5838 33.7934 48.6519 33.8905C48.7199 33.9876 48.7199 34.0848 48.7199 34.1333C48.7199 34.1819 48.6519 34.3275 48.5838 34.5703C48.5158 34.8131 48.4477 35.0558 48.3116 35.3957C48.1756 35.7356 48.0395 36.0755 47.9034 36.4639C47.7673 36.8523 47.6312 37.2407 47.4951 37.6777C47.359 38.0662 47.2229 38.5031 47.0868 38.8916C46.9508 39.28 46.8147 39.6684 46.7466 40.0083C46.9508 39.8141 47.291 39.5228 47.6312 39.2314C47.9714 38.9401 48.3797 38.6002 48.788 38.2604C49.1962 37.9205 49.6045 37.5321 50.0808 37.1436C50.5571 36.7552 50.9654 36.4153 51.3736 36.0269C51.7819 35.687 52.1902 35.2986 52.5984 35.0073C53.0067 34.6674 53.3469 34.3761 53.6872 34.1333C54.0274 33.8905 54.2315 33.6963 54.4356 33.5507C54.6398 33.405 54.7759 33.3564 54.7759 33.3564C54.912 33.3564 54.98 33.4536 55.1161 33.5992C55.1841 33.7449 55.2522 33.9391 55.2522 34.1819C55.2522 34.2304 55.1841 34.3761 54.98 34.6188C54.8439 34.8616 54.6398 35.1529 54.3676 35.5414C54.0954 35.9298 53.8232 36.3182 53.483 36.8038C53.1428 37.2893 52.8026 37.7748 52.4624 38.2604C52.1221 38.7459 51.7819 39.28 51.4417 39.7655C51.1015 40.2996 50.8293 40.7852 50.5571 41.2221C50.2849 41.6591 50.0808 42.0961 49.9447 42.4845C49.8086 42.873 49.6725 43.1643 49.6725 43.4071C49.6725 43.4556 49.6725 43.5042 49.7406 43.5042C49.7406 43.5042 49.8086 43.5042 49.8767 43.5042C49.9447 43.5042 49.9447 43.5042 50.0128 43.5042C50.0808 43.6498 50.0808 43.6498 50.0808 43.6498Z" fill="#595857"/>
<path d="M57.2255 39.9597C57.2935 39.9597 57.2935 40.0082 57.2255 40.1539C57.1574 40.2995 57.0894 40.4452 56.8853 40.6394C56.7492 40.8336 56.545 41.0278 56.3409 41.2706C56.1368 41.5134 55.8646 41.7076 55.5924 41.9018C55.3202 42.096 55.0481 42.2417 54.7759 42.3873C54.5037 42.533 54.2315 42.5816 53.9593 42.5816C53.6191 42.5816 53.2789 42.533 53.0748 42.4359C52.8026 42.3388 52.6665 42.2417 52.5304 42.096C52.3943 41.9504 52.2582 41.8047 52.2582 41.6105C52.1902 41.4163 52.1902 41.2706 52.1902 41.0764C52.1902 40.9307 52.2582 40.7365 52.3263 40.4937C52.3943 40.2995 52.5304 40.0568 52.6665 39.814C52.8026 39.5712 52.9387 39.377 53.0748 39.1828C53.2109 38.9886 53.3469 38.7944 53.483 38.6001C53.6191 38.4545 53.7552 38.3088 53.8233 38.2117C53.9593 38.1146 54.0274 38.0661 54.0954 38.0661C54.1635 38.0661 54.2996 38.0661 54.4357 38.1146C54.5717 38.1632 54.6398 38.2117 54.7759 38.2603C54.8439 38.3088 54.98 38.4059 55.0481 38.4545C55.1161 38.503 55.1161 38.6001 55.1161 38.6487C55.1161 38.6973 55.0481 38.7944 54.98 38.8915C54.912 38.9886 54.7759 39.1342 54.6398 39.3285C54.5037 39.5227 54.3676 39.6683 54.2315 39.9111C54.0954 40.1053 53.9593 40.3481 53.8233 40.5423C53.6872 40.7365 53.6191 40.9793 53.483 41.1735C53.415 41.3677 53.3469 41.5619 53.3469 41.7561C53.3469 41.9504 53.483 41.9989 53.7552 41.9989C53.8913 41.9989 54.0954 41.9504 54.3676 41.8532C54.5717 41.7561 54.8439 41.6105 55.0481 41.4648C55.3202 41.3192 55.5244 41.1735 55.7965 40.9793C56.0687 40.7851 56.2729 40.6394 56.477 40.4937C56.6811 40.3481 56.8853 40.2024 57.0213 40.1053C57.0894 40.0082 57.1574 39.9597 57.2255 39.9597ZM55.2522 37.532C55.0481 37.4349 54.98 37.3378 54.98 37.1435C54.98 36.9493 54.98 36.8037 55.1841 36.6094C55.3202 36.4152 55.5244 36.3181 55.7285 36.2696C55.9326 36.221 56.1368 36.221 56.3409 36.2696C56.545 36.3667 56.6131 36.4638 56.6811 36.658C56.6811 36.8522 56.6131 36.9979 56.477 37.1921C56.3409 37.3863 56.1368 37.4834 55.9326 37.532C55.6605 37.6291 55.4563 37.6291 55.2522 37.532Z" fill="#595857"/>
<path d="M60.5596 39.9597C60.6276 39.9597 60.6276 40.0082 60.5596 40.1539C60.4915 40.2995 60.4235 40.4452 60.2194 40.6394C60.0833 40.8336 59.8791 41.0278 59.675 41.2706C59.4709 41.5134 59.1987 41.7076 58.9265 41.9018C58.6543 42.096 58.3822 42.2417 58.11 42.3873C57.8378 42.533 57.5656 42.5816 57.2934 42.5816C57.0213 42.5816 56.8171 42.533 56.613 42.4844C56.4089 42.3873 56.2047 42.2902 56.0687 42.1446C55.9326 41.9989 55.7965 41.8532 55.6604 41.659C55.5923 41.4648 55.5243 41.2706 55.5243 41.0278C55.5243 40.8336 55.5923 40.5909 55.7284 40.2995C55.8645 40.0082 56.0006 39.7169 56.2047 39.3285C56.4089 38.9886 56.681 38.6002 56.9532 38.2603C57.2254 37.8718 57.4976 37.532 57.8378 37.1435C58.11 36.7551 58.4502 36.4152 58.7224 36.0754C59.0626 35.7355 59.3348 35.4442 59.607 35.2014C59.8791 34.9586 60.1513 34.7644 60.3555 34.6187C60.5596 34.4731 60.7637 34.376 60.8998 34.376C61.0359 34.376 61.0359 34.4731 60.9679 34.6673C60.8998 34.8615 60.7637 35.1043 60.6276 35.3956C60.4235 35.6869 60.2194 36.0268 59.9472 36.4638C59.675 36.8522 59.4028 37.2892 59.1307 37.6776C58.8585 38.1146 58.5183 38.5516 58.2461 38.94C57.9739 39.377 57.7017 39.7654 57.4295 40.1539C57.2254 40.5423 57.0213 40.8336 56.8852 41.1249C56.7491 41.4163 56.6811 41.6105 56.6811 41.7561C56.6811 41.9504 56.8171 41.9989 57.0213 41.9989C57.1574 41.9989 57.3615 41.9504 57.6337 41.8532C57.8378 41.7561 58.11 41.6105 58.3141 41.4648C58.5863 41.3192 58.7904 41.1735 59.0626 40.9793C59.3348 40.7851 59.5389 40.6394 59.7431 40.4937C59.9472 40.3481 60.1513 40.2024 60.2874 40.1053C60.3555 40.0082 60.4915 39.9597 60.5596 39.9597Z" fill="#595857"/>
<path d="M66.2754 39.9597C66.3435 39.9597 66.3435 40.0082 66.2754 40.1539C66.2074 40.2996 66.1393 40.4452 66.0032 40.6394C65.8671 40.8336 65.7311 41.0279 65.5269 41.2706C65.3228 41.5134 65.1187 41.7076 64.8465 41.9018C64.5743 42.096 64.3702 42.2417 64.098 42.3874C63.8258 42.533 63.5536 42.5816 63.2815 42.5816C62.7371 42.5816 62.2608 42.4359 61.8525 42.1446C61.4443 41.8533 61.1721 41.4649 61.036 40.9308C60.8318 41.1735 60.6277 41.3677 60.5597 41.562C60.4236 41.7562 60.3555 41.9504 60.3555 42.1446C60.3555 42.2903 60.3555 42.3874 60.3555 42.4359C60.3555 42.533 60.2875 42.5816 60.1514 42.5816C60.0153 42.5816 59.8792 42.533 59.7431 42.4845C59.607 42.4359 59.471 42.3388 59.4029 42.2417C59.3349 42.1446 59.1988 42.0475 59.1988 41.9018C59.1307 41.8047 59.1307 41.6591 59.1307 41.5134C59.1307 41.2706 59.1988 40.9308 59.3349 40.5909C59.471 40.251 59.607 39.8626 59.8792 39.5227C60.0834 39.1343 60.3555 38.7458 60.6277 38.3574C60.8999 37.969 61.2401 37.5806 61.5123 37.1921C61.8525 36.8037 62.1247 36.4638 62.4649 36.1239C62.8051 35.7841 63.0773 35.4927 63.3495 35.25C63.6217 35.0072 63.8939 34.813 64.098 34.6673C64.3021 34.5217 64.5063 34.4246 64.6423 34.4246C64.7104 34.4246 64.7784 34.4731 64.7104 34.6188C64.6423 34.7644 64.5743 34.9101 64.4382 35.1529C64.3021 35.3956 64.098 35.6384 63.8939 35.9297C63.6897 36.221 63.4175 36.5609 63.1454 36.9008C62.8732 37.2407 62.601 37.6291 62.3288 38.0175C62.0566 38.406 61.7845 38.7944 61.5803 39.1828C61.7845 39.0372 61.9886 38.8915 62.1927 38.7458C62.3969 38.6002 62.601 38.5031 62.8051 38.3574C63.0093 38.2603 63.2134 38.1632 63.4175 38.1146C63.6217 38.0661 63.7578 38.0175 63.9619 38.0175C64.166 38.0175 64.3702 38.0661 64.5063 38.1632C64.6423 38.2603 64.7784 38.3574 64.7784 38.5031C64.8465 38.6002 64.8465 38.7458 64.8465 38.8429C64.8465 38.9401 64.7784 38.9886 64.7104 38.9886C64.6423 38.9886 64.6423 38.9886 64.6423 38.9401V38.8915C64.6423 38.8429 64.6423 38.8429 64.5743 38.8429C64.5743 38.8429 64.5063 38.7944 64.4382 38.7944C64.3021 38.7944 64.166 38.8429 63.9619 38.8915C63.7578 38.9401 63.6217 39.0372 63.4175 39.1343C63.2134 39.2314 63.0093 39.377 62.8051 39.5227C62.601 39.6684 62.3969 39.814 62.1247 39.9597C62.1247 40.2025 62.1927 40.4938 62.2608 40.7365C62.3288 40.9793 62.3969 41.2221 62.4649 41.4163C62.533 41.6105 62.669 41.7562 62.7371 41.9018C62.8051 41.9989 62.9412 42.096 63.0093 42.096C63.1454 42.096 63.3495 42.0475 63.5536 41.9504C63.7578 41.8533 63.9619 41.7076 64.2341 41.562C64.4382 41.4163 64.7104 41.2706 64.9145 41.0764C65.1187 40.8822 65.3228 40.7365 65.5269 40.5909C65.7311 40.4452 65.8671 40.2996 66.0032 40.2025C66.1393 40.0082 66.2074 39.9597 66.2754 39.9597Z" fill="#595857"/>
<path d="M73.0798 39.9598C73.1479 39.9598 73.1479 40.0083 73.0798 40.154C73.0118 40.2996 72.9437 40.4453 72.7396 40.6395C72.6035 40.8337 72.3994 41.0279 72.1952 41.2707C71.9911 41.5135 71.7189 41.7077 71.4467 41.9019C71.1746 42.0961 70.9024 42.2418 70.6302 42.3874C70.358 42.5331 70.0858 42.5817 69.8137 42.5817C69.5415 42.5817 69.3374 42.5331 69.1332 42.4845C68.9291 42.436 68.725 42.3389 68.5889 42.2418C68.4528 42.1447 68.3167 42.0476 68.1806 41.9019C68.1126 41.7562 68.0445 41.6591 67.9765 41.5135C67.7723 41.6591 67.6362 41.8048 67.4321 41.9019C67.228 42.0476 67.0919 42.1447 66.8878 42.2418C66.6836 42.3389 66.5475 42.3874 66.4114 42.4845C66.2754 42.5331 66.1393 42.5817 66.0032 42.5817C65.8671 42.5817 65.663 42.5817 65.5269 42.5331C65.3908 42.4845 65.2547 42.436 65.1186 42.3389C64.9825 42.2418 64.9145 42.1447 64.8464 41.9505C64.7784 41.8048 64.7103 41.6106 64.7103 41.4164C64.7103 41.2222 64.7784 41.0279 64.9145 40.7852C65.0506 40.5424 65.1866 40.2996 65.3908 40.0569C65.5949 39.8141 65.799 39.5713 66.0712 39.3286C66.3434 39.0858 66.6156 38.8916 66.8878 38.6974C67.1599 38.5031 67.5002 38.3575 67.8404 38.2604C68.1806 38.1633 68.4528 38.0662 68.793 38.0662C69.2693 38.0662 69.6776 38.1147 70.0178 38.2118C70.29 38.3089 70.5622 38.4546 70.6302 38.6003C70.7663 38.7459 70.8343 38.843 70.7663 38.9887C70.7663 39.0858 70.6982 39.1343 70.5622 39.1343C70.4941 39.1343 70.4941 39.0858 70.4261 39.0372C70.4261 38.9887 70.358 38.9401 70.29 38.8916C70.2219 38.843 70.1539 38.7945 70.0858 38.6974C70.0178 38.6488 69.8817 38.6003 69.7456 38.6003C69.4054 38.6003 69.0652 38.6974 68.725 38.843C68.3847 38.9887 68.0445 39.1829 67.7723 39.4257C67.4321 39.6684 67.1599 39.9112 66.9558 40.2025C66.6836 40.4938 66.4795 40.7366 66.3434 40.9794C66.2073 41.2222 66.0712 41.4164 66.0712 41.562C66.0032 41.7077 66.0712 41.8048 66.2073 41.8048C66.3434 41.8048 66.4795 41.7562 66.6836 41.6106C66.8878 41.4649 67.0919 41.3193 67.3641 41.125C67.5682 40.9308 67.8404 40.7366 68.1126 40.4938C68.3847 40.2511 68.5889 40.0569 68.861 39.8626C69.1332 39.6684 69.3374 39.5228 69.5415 39.3771C69.7456 39.2314 69.9498 39.1829 70.0858 39.1829C70.1539 39.1829 70.29 39.1829 70.358 39.2315C70.4261 39.28 70.4941 39.3286 70.4941 39.4257C70.4941 39.4742 70.4261 39.6199 70.29 39.7655C70.1539 39.9598 70.0178 40.154 69.8817 40.3482C69.7456 40.5424 69.6095 40.7852 69.4734 41.0279C69.3374 41.2707 69.2693 41.4649 69.2693 41.6106C69.2693 41.8048 69.4054 41.8533 69.6095 41.8533C69.7456 41.8533 69.9498 41.8048 70.2219 41.7077C70.4261 41.6106 70.6982 41.4649 70.9024 41.3193C71.1065 41.1736 71.3787 41.0279 71.6509 40.8337C71.923 40.6395 72.1272 40.4938 72.3313 40.3482C72.5354 40.2025 72.7396 40.0569 72.8757 39.9598C72.9437 40.0083 73.0118 39.9598 73.0798 39.9598Z" fill="#595857"/>
<path d="M79.2038 39.9598C79.2718 39.9598 79.2718 40.0083 79.2038 40.154C79.1357 40.2996 79.0677 40.4453 78.8636 40.6395C78.7275 40.8337 78.5233 41.0279 78.3192 41.2707C78.1151 41.5135 77.8429 41.7077 77.5707 41.9019C77.2985 42.0961 77.0264 42.2418 76.7542 42.3874C76.482 42.5331 76.2098 42.5817 75.9376 42.5817C75.7335 42.5817 75.5294 42.5331 75.2572 42.4845C75.0531 42.436 74.8489 42.3389 74.6448 42.2418C74.4407 42.1447 74.3046 41.999 74.2365 41.8533C74.1004 41.7077 74.0324 41.5135 74.0324 41.3193C74.0324 41.125 74.0324 40.9308 74.1004 40.6881C74.1685 40.4938 74.2365 40.2511 74.3726 40.0569C74.4407 39.8626 74.5768 39.6684 74.7128 39.4742C74.8489 39.28 74.985 39.0858 75.1211 38.9401C74.917 38.9401 74.6448 38.9887 74.3726 38.9887C74.1004 38.9887 73.8963 39.0372 73.6922 39.0372C73.6241 39.1343 73.5561 39.28 73.488 39.4257C73.42 39.5713 73.2839 39.7655 73.1478 39.9598C73.0117 40.154 72.8756 40.3482 72.6715 40.5424C72.5354 40.7366 72.3313 40.9308 72.1271 41.125C71.923 41.3193 71.7869 41.4649 71.5828 41.6106C71.4467 41.7562 71.2426 41.8534 71.1065 41.9505C71.0384 41.999 70.9704 41.999 70.9023 41.9505C70.8343 41.9019 70.7663 41.9019 70.6302 41.8048C70.5621 41.7562 70.4941 41.7077 70.426 41.6591C70.358 41.6106 70.358 41.562 70.426 41.562C70.7663 41.3678 71.0384 41.125 71.3106 40.8337C71.5828 40.591 71.855 40.2996 71.9911 40.0569C72.1952 39.8141 72.3313 39.5713 72.4674 39.3771C72.6035 39.1829 72.6715 39.0372 72.7395 38.9401C72.5354 38.8916 72.3993 38.7945 72.3313 38.6974C72.1952 38.6003 72.1271 38.5031 72.0591 38.406C71.9911 38.3089 71.9911 38.2604 71.9911 38.1633C71.9911 38.1147 72.0591 38.0662 72.1271 38.0662C72.1952 38.0662 72.1952 38.0662 72.2632 38.0662C72.3313 38.0662 72.3993 38.1147 72.4674 38.1147C72.5354 38.1147 72.6035 38.1633 72.7395 38.1633C72.8076 38.1633 72.9437 38.1633 73.1478 38.1633C73.42 38.1633 73.6922 38.1633 74.0324 38.1633C74.3046 38.1633 74.5767 38.1147 74.7809 38.1147C74.985 38.1147 75.1892 38.0662 75.3933 38.0662C75.5974 38.0662 75.7335 38.0662 75.8016 38.0662C76.1418 38.0662 76.3459 38.1147 76.482 38.2604C76.6181 38.406 76.6181 38.5517 76.55 38.7945C76.482 38.9887 76.4139 39.2315 76.2779 39.5228C76.1418 39.8141 76.0057 40.0569 75.8016 40.3482C75.6655 40.6395 75.5294 40.8823 75.3933 41.125C75.2572 41.3678 75.1891 41.6106 75.1891 41.7562C75.1891 41.9505 75.3252 42.0476 75.5294 42.0476C75.6655 42.0476 75.8696 41.999 76.1418 41.9019C76.3459 41.8048 76.6181 41.6591 76.8222 41.5135C77.0264 41.3678 77.2985 41.2222 77.5027 41.0279C77.7748 40.8337 77.979 40.6881 78.1831 40.5424C78.3872 40.3967 78.5914 40.2511 78.7275 40.154C78.9996 40.0083 79.1357 39.9598 79.2038 39.9598Z" fill="#595857"/>
<path d="M85.8041 39.9597C85.8721 39.9597 85.8721 40.0082 85.8041 40.1539C85.736 40.2995 85.668 40.4452 85.4639 40.6394C85.3278 40.8336 85.1237 41.0278 84.9195 41.2706C84.7154 41.5134 84.4432 41.7076 84.171 41.9018C83.8988 42.096 83.6267 42.2417 83.3545 42.3873C83.0823 42.533 82.8101 42.5816 82.538 42.5816C82.2658 42.5816 82.0616 42.533 81.8575 42.4844C81.6534 42.3873 81.4492 42.2902 81.3132 42.1446C81.1771 41.9989 81.041 41.8532 80.9049 41.659C80.8368 41.4648 80.7688 41.2706 80.7688 41.0278C80.7688 40.8336 80.8368 40.5909 80.9729 40.2995C81.109 40.0082 81.2451 39.7169 81.4492 39.3285C81.6534 38.9886 81.9256 38.6002 82.1977 38.2603C82.4699 37.8718 82.7421 37.532 83.0823 37.1435C83.3545 36.7551 83.6947 36.4152 83.9669 36.0754C84.3071 35.7355 84.5793 35.4442 84.8515 35.2014C85.1236 34.9586 85.3958 34.7644 85.6 34.6187C85.8041 34.4731 86.0082 34.376 86.1443 34.376C86.2804 34.376 86.2804 34.4731 86.2124 34.6673C86.1443 34.8615 86.0082 35.1043 85.8721 35.3956C85.668 35.6869 85.4639 36.0268 85.1917 36.4638C84.9195 36.8522 84.6473 37.2892 84.3752 37.6776C84.103 38.1146 83.7628 38.5516 83.4906 38.94C83.2184 39.377 82.9462 39.7654 82.674 40.1539C82.4699 40.5423 82.2658 40.8336 82.1297 41.1249C81.9936 41.4163 81.9256 41.6105 81.9256 41.7561C81.9256 41.9504 82.0616 41.9989 82.2658 41.9989C82.4019 41.9989 82.606 41.9504 82.8782 41.8532C83.0823 41.7561 83.3545 41.6105 83.5586 41.4648C83.8308 41.3192 84.0349 41.1735 84.3071 40.9793C84.5793 40.7851 84.7834 40.6394 84.9876 40.4937C85.1917 40.3481 85.3958 40.2024 85.5319 40.1053C85.6 40.0082 85.736 39.9597 85.8041 39.9597Z" fill="#595857"/>
<path d="M89.4105 39.9597C89.4786 39.9597 89.4786 40.0082 89.4105 40.1539C89.3425 40.2995 89.2744 40.4452 89.0703 40.6394C88.9342 40.8336 88.7301 41.0278 88.526 41.2706C88.3218 41.5134 88.0496 41.7076 87.7775 41.9018C87.5053 42.096 87.2331 42.2417 86.9609 42.3873C86.6888 42.533 86.4166 42.5816 86.1444 42.5816C85.8042 42.5816 85.464 42.533 85.2598 42.4359C84.9876 42.3388 84.8516 42.2417 84.7155 42.096C84.5794 41.9504 84.4433 41.8047 84.4433 41.6105C84.3752 41.4163 84.3752 41.2706 84.3752 41.0764C84.3752 40.9307 84.4433 40.7365 84.5113 40.4937C84.5794 40.2995 84.7155 40.0568 84.8516 39.814C84.9876 39.5712 85.1237 39.377 85.2598 39.1828C85.3959 38.9886 85.532 38.7944 85.6681 38.6001C85.8042 38.4545 85.9403 38.3088 86.0083 38.2117C86.1444 38.1146 86.2124 38.0661 86.2805 38.0661C86.3485 38.0661 86.4846 38.0661 86.6207 38.1146C86.7568 38.1632 86.8248 38.2117 86.9609 38.2603C87.029 38.3088 87.1651 38.4059 87.2331 38.4545C87.3012 38.503 87.3012 38.6001 87.3012 38.6487C87.3012 38.6973 87.2331 38.7944 87.1651 38.8915C87.097 38.9886 86.9609 39.1342 86.8248 39.3285C86.6888 39.5227 86.5527 39.6683 86.4166 39.9111C86.2805 40.1053 86.1444 40.3481 86.0083 40.5423C85.8722 40.7365 85.8042 40.9793 85.6681 41.1735C85.6 41.3677 85.532 41.5619 85.532 41.7561C85.532 41.9504 85.6681 41.9989 85.9403 41.9989C86.0764 41.9989 86.2805 41.9504 86.5527 41.8532C86.7568 41.7561 87.029 41.6105 87.2331 41.4648C87.5053 41.3192 87.7094 41.1735 87.9816 40.9793C88.2538 40.7851 88.4579 40.6394 88.6621 40.4937C88.8662 40.3481 89.0703 40.2024 89.2064 40.1053C89.2745 40.0082 89.3425 39.9597 89.4105 39.9597ZM87.4372 37.532C87.2331 37.4349 87.1651 37.3378 87.1651 37.1435C87.1651 36.9493 87.1651 36.8037 87.3692 36.6094C87.5053 36.4152 87.7094 36.3181 87.9136 36.2696C88.1177 36.221 88.3218 36.221 88.526 36.2696C88.7301 36.3667 88.7981 36.4638 88.8662 36.658C88.8662 36.8522 88.7981 36.9979 88.6621 37.1921C88.526 37.3863 88.3218 37.4834 88.1177 37.532C87.8455 37.6291 87.6414 37.6291 87.4372 37.532Z" fill="#595857"/>
<path d="M93.2891 39.9597C93.3571 39.9597 93.3571 40.0082 93.2891 40.1053C93.221 40.2024 93.153 40.3481 93.0169 40.4937C92.8808 40.6394 92.7447 40.8336 92.5406 41.0278C92.3364 41.222 92.1323 41.4163 91.9282 41.5619C91.724 41.7561 91.4518 41.9018 91.1797 42.0475C90.9075 42.1931 90.6353 42.2902 90.4312 42.3388C90.4312 42.4844 90.4992 42.6301 90.4992 42.7758C90.4992 42.9214 90.4992 43.0671 90.4992 43.2128C90.4992 43.6497 90.4312 44.0382 90.2951 44.4266C90.159 44.815 90.0229 45.1549 89.7507 45.4462C89.5466 45.7375 89.2744 45.9803 88.9342 46.126C88.594 46.2716 88.2538 46.3687 87.9135 46.3687C87.7094 46.3687 87.5053 46.3202 87.3011 46.2716C87.097 46.1745 86.9609 46.0774 86.8248 45.9318C86.6887 45.7861 86.5526 45.6404 86.4846 45.3977C86.4166 45.2035 86.3485 44.9607 86.3485 44.7179C86.3485 44.4751 86.4166 44.1838 86.4846 43.844C86.5526 43.5041 86.6887 43.1642 86.8248 42.8243C86.9609 42.4844 87.097 42.096 87.3011 41.7076C87.5053 41.3192 87.7094 40.9307 87.9135 40.4937C87.8455 40.4452 87.7094 40.3966 87.6414 40.3966C87.5053 40.3966 87.4372 40.3966 87.3692 40.3481C87.3692 40.2995 87.3692 40.251 87.4372 40.251C87.5053 40.2024 87.5733 40.1539 87.7094 40.1539C87.8455 40.1053 87.9816 40.1053 88.1177 40.1053H88.1857C88.4579 39.6198 88.7301 39.1828 89.0703 38.6973C89.4105 38.2117 89.6827 37.7747 90.0229 37.3378C90.3631 36.9008 90.7034 36.5123 90.9755 36.1725C91.3158 35.8326 91.5879 35.4927 91.9282 35.2499C92.2003 35.0072 92.4725 34.7644 92.7447 34.6187C93.0169 34.4731 93.221 34.376 93.4251 34.376C93.4932 34.376 93.4932 34.4731 93.4251 34.6187C93.3571 34.813 93.221 35.0072 93.0849 35.2985C92.8808 35.5898 92.6767 35.9297 92.4045 36.3667C92.1323 36.7551 91.8601 37.1921 91.5199 37.6776C91.1797 38.1632 90.9075 38.6487 90.5673 39.1342C90.2271 39.6683 89.8868 40.1539 89.6146 40.688C89.8868 40.9793 90.091 41.2706 90.2951 41.659C90.5673 41.5619 90.8394 41.4163 91.1797 41.222C91.5199 41.0278 91.7921 40.8336 92.0643 40.6394C92.3364 40.4452 92.6086 40.251 92.8127 40.1539C93.0169 40.0082 93.221 39.9597 93.2891 39.9597ZM87.9135 45.689C88.1177 45.689 88.2538 45.6404 88.4579 45.4948C88.662 45.3491 88.7981 45.2035 88.9342 44.9607C89.0703 44.7179 89.2064 44.4751 89.2744 44.1353C89.3425 43.7954 89.4105 43.4555 89.4105 43.0671C89.4105 42.7758 89.3425 42.4844 89.2744 42.2417C89.0703 42.1931 88.9342 42.096 88.7981 42.0475C88.3898 42.7272 88.1177 43.3584 87.8455 43.9411C87.5733 44.5237 87.5053 45.0092 87.5053 45.3977C87.5053 45.5433 87.5733 45.6404 87.6414 45.6404C87.7094 45.689 87.7774 45.689 87.9135 45.689Z" fill="#595857"/>
<path d="M97.5759 39.9598C97.6439 39.9598 97.6439 40.0083 97.5759 40.154C97.5078 40.2996 97.4398 40.4453 97.2357 40.6395C97.0996 40.8337 96.8954 41.0279 96.6913 41.2707C96.4872 41.5135 96.215 41.7077 95.9428 41.9019C95.6706 42.0961 95.3985 42.2418 95.1263 42.3874C94.8541 42.5331 94.5819 42.5817 94.3098 42.5817C93.9695 42.5817 93.6293 42.5331 93.3571 42.436C93.0849 42.3389 92.8128 42.2418 92.6767 42.0961C92.4725 41.9505 92.3365 41.7562 92.2684 41.6106C92.2004 41.4164 92.1323 41.2222 92.1323 41.0279C92.1323 40.8337 92.2004 40.591 92.2684 40.3482C92.3365 40.1054 92.4725 39.9112 92.6767 39.6684C92.8128 39.4742 93.0169 39.2315 93.221 39.0372C93.4252 38.843 93.6974 38.6974 93.9015 38.5517C94.1056 38.406 94.3778 38.3089 94.5819 38.2118C94.7861 38.1147 95.0582 38.0662 95.2624 38.0662C95.3985 38.0662 95.6026 38.0662 95.8067 38.1147C96.0109 38.1633 96.147 38.2118 96.283 38.3089C96.4191 38.406 96.5552 38.5031 96.6233 38.6488C96.6913 38.7945 96.7594 38.9401 96.7594 39.0858C96.7594 39.1829 96.6913 39.28 96.6233 39.4257C96.5552 39.5713 96.4191 39.6684 96.283 39.8141C96.147 39.9598 96.0109 40.0569 95.8067 40.2025C95.6026 40.2996 95.4665 40.4453 95.2624 40.5424C95.0582 40.6395 94.9222 40.7366 94.718 40.7852C94.5139 40.8337 94.3778 40.8823 94.2417 40.8823C94.1056 40.8823 94.0376 40.8823 93.9015 40.8337C93.8334 40.8337 93.6974 40.7852 93.6293 40.7366C93.5613 40.8823 93.4932 41.0279 93.4252 41.1736C93.3571 41.3193 93.3571 41.4649 93.3571 41.6106C93.3571 41.7562 93.4252 41.9019 93.5613 41.9505C93.6974 41.999 93.8334 42.0476 94.0376 42.0476C94.1737 42.0476 94.3778 41.999 94.65 41.9019C94.8541 41.8048 95.1263 41.6591 95.3304 41.5135C95.5346 41.3678 95.8067 41.2222 96.0109 41.0279C96.283 40.8337 96.4872 40.6881 96.6913 40.5424C96.8954 40.3967 97.0996 40.2511 97.2357 40.154C97.3718 40.0083 97.5078 39.9598 97.5759 39.9598ZM96.0109 38.6003C95.8748 38.6003 95.7387 38.6488 95.5345 38.6974C95.3304 38.7945 95.1943 38.8916 94.9902 39.0372C94.7861 39.1829 94.65 39.3286 94.4458 39.5228C94.2417 39.717 94.1056 39.9112 93.9695 40.1054C94.1737 40.0569 94.3097 40.0083 94.5139 39.9112C94.718 39.8141 94.8541 39.717 95.0582 39.6199C95.1943 39.5228 95.3985 39.3771 95.5345 39.28C95.6706 39.1829 95.8067 39.0372 95.8748 38.9401C95.9428 38.843 96.0109 38.7459 96.0789 38.6974C96.0109 38.6488 96.0109 38.6003 96.0109 38.6003Z" fill="#595857"/>
<path d="M108.463 39.9598C108.531 39.9598 108.531 40.0083 108.463 40.154C108.395 40.2996 108.327 40.4453 108.123 40.6395C107.987 40.8337 107.783 41.0279 107.578 41.2707C107.374 41.5135 107.102 41.7077 106.83 41.9019C106.558 42.0961 106.286 42.2418 106.013 42.3874C105.741 42.5331 105.469 42.5817 105.197 42.5817C104.925 42.5817 104.721 42.5331 104.516 42.4845C104.312 42.436 104.108 42.3389 103.972 42.2418C103.836 42.1447 103.7 42.0476 103.564 41.9019C103.496 41.7562 103.428 41.6591 103.36 41.5135C103.156 41.6591 103.019 41.8048 102.815 41.9019C102.611 42.0476 102.475 42.1447 102.271 42.2418C102.067 42.3389 101.931 42.3874 101.795 42.4845C101.659 42.5331 101.522 42.5817 101.386 42.5817C101.25 42.5817 101.046 42.5817 100.91 42.5331C100.774 42.4845 100.638 42.436 100.502 42.3389C100.366 42.2418 100.298 42.1447 100.23 41.9505C100.162 41.8048 100.094 41.6106 100.094 41.4164C100.094 41.2222 100.162 41.0279 100.298 40.7852C100.434 40.5424 100.57 40.2996 100.774 40.0569C100.978 39.8141 101.182 39.5713 101.454 39.3286C101.727 39.0858 101.999 38.8916 102.271 38.6974C102.543 38.5031 102.883 38.3575 103.224 38.2604C103.564 38.1633 103.836 38.0662 104.176 38.0662C104.652 38.0662 105.061 38.1147 105.401 38.2118C105.673 38.3089 105.945 38.4546 106.013 38.6003C106.149 38.7459 106.218 38.843 106.149 38.9887C106.149 39.0858 106.081 39.1343 105.945 39.1343C105.877 39.1343 105.877 39.0858 105.809 39.0372C105.809 38.9887 105.741 38.9401 105.673 38.8916C105.605 38.843 105.537 38.7945 105.469 38.6974C105.401 38.6488 105.265 38.6003 105.129 38.6003C104.789 38.6003 104.448 38.6974 104.108 38.843C103.768 38.9887 103.428 39.1829 103.156 39.4257C102.815 39.6684 102.543 39.9112 102.339 40.2025C102.067 40.4938 101.863 40.7366 101.727 40.9794C101.59 41.2222 101.454 41.4164 101.454 41.562C101.386 41.7077 101.454 41.8048 101.59 41.8048C101.727 41.8048 101.863 41.7562 102.067 41.6106C102.271 41.4649 102.475 41.3193 102.747 41.125C102.951 40.9308 103.224 40.7366 103.496 40.4938C103.768 40.2511 103.972 40.0569 104.244 39.8626C104.516 39.6684 104.721 39.5228 104.925 39.3771C105.129 39.2314 105.333 39.1829 105.469 39.1829C105.537 39.1829 105.673 39.1829 105.741 39.2315C105.809 39.28 105.877 39.3286 105.877 39.4257C105.877 39.4742 105.809 39.6199 105.673 39.7655C105.537 39.9598 105.401 40.154 105.265 40.3482C105.129 40.5424 104.993 40.7852 104.857 41.0279C104.721 41.2707 104.652 41.4649 104.652 41.6106C104.652 41.8048 104.789 41.8533 104.993 41.8533C105.129 41.8533 105.333 41.8048 105.605 41.7077C105.809 41.6106 106.081 41.4649 106.286 41.3193C106.49 41.1736 106.762 41.0279 106.966 40.8337C107.238 40.6395 107.442 40.4938 107.646 40.3482C107.851 40.2025 108.055 40.0569 108.191 39.9598C108.327 40.0083 108.395 39.9598 108.463 39.9598Z" fill="#595857"/>
<path d="M115.063 39.9598C115.131 39.9598 115.131 40.0083 115.063 40.154C114.995 40.2996 114.927 40.4453 114.723 40.6395C114.587 40.8337 114.383 41.0279 114.179 41.2707C113.975 41.5135 113.702 41.7077 113.43 41.9019C113.158 42.0961 112.886 42.2418 112.614 42.3874C112.342 42.5331 112.069 42.5817 111.797 42.5817C111.525 42.5817 111.321 42.5331 111.117 42.4845C110.913 42.436 110.708 42.3389 110.572 42.2418C110.436 42.1447 110.3 42.0476 110.164 41.9019C110.096 41.7562 110.028 41.6591 109.96 41.5135C109.756 41.6591 109.62 41.8048 109.416 41.9019C109.211 42.0476 109.075 42.1447 108.871 42.2418C108.667 42.3389 108.531 42.3874 108.395 42.4845C108.259 42.5331 108.123 42.5817 107.987 42.5817C107.851 42.5817 107.646 42.5817 107.51 42.5331C107.374 42.4845 107.238 42.436 107.102 42.3389C106.966 42.2418 106.898 42.1447 106.83 41.9505C106.762 41.8048 106.694 41.6106 106.694 41.4164C106.694 41.2222 106.762 41.0279 106.898 40.7852C107.034 40.5424 107.17 40.2996 107.374 40.0569C107.578 39.8141 107.783 39.5713 108.055 39.3286C108.327 39.0858 108.599 38.8916 108.871 38.6974C109.143 38.5031 109.484 38.3575 109.824 38.2604C110.164 38.1633 110.436 38.0662 110.777 38.0662C111.253 38.0662 111.661 38.1147 112.001 38.2118C112.274 38.3089 112.546 38.4546 112.614 38.6003C112.75 38.7459 112.818 38.843 112.75 38.9887C112.75 39.0858 112.682 39.1343 112.546 39.1343C112.478 39.1343 112.478 39.0858 112.41 39.0372C112.41 38.9887 112.342 38.9401 112.273 38.8916C112.205 38.843 112.137 38.7945 112.069 38.6974C112.001 38.6488 111.865 38.6003 111.729 38.6003C111.389 38.6003 111.049 38.6974 110.708 38.843C110.368 38.9887 110.028 39.1829 109.756 39.4257C109.416 39.6684 109.143 39.9112 108.939 40.2025C108.667 40.4938 108.463 40.7366 108.327 40.9794C108.191 41.2222 108.055 41.4164 108.055 41.562C107.987 41.7077 108.055 41.8048 108.191 41.8048C108.327 41.8048 108.463 41.7562 108.667 41.6106C108.871 41.4649 109.075 41.3193 109.348 41.125C109.552 40.9308 109.824 40.7366 110.096 40.4938C110.368 40.2511 110.572 40.0569 110.845 39.8626C111.117 39.6684 111.321 39.5228 111.525 39.3771C111.729 39.2314 111.933 39.1829 112.069 39.1829C112.137 39.1829 112.274 39.1829 112.342 39.2315C112.41 39.28 112.478 39.3286 112.478 39.4257C112.478 39.4742 112.41 39.6199 112.273 39.7655C112.137 39.9598 112.001 40.154 111.865 40.3482C111.729 40.5424 111.593 40.7852 111.457 41.0279C111.321 41.2707 111.253 41.4649 111.253 41.6106C111.253 41.8048 111.389 41.8533 111.593 41.8533C111.729 41.8533 111.933 41.8048 112.205 41.7077C112.41 41.6106 112.682 41.4649 112.886 41.3193C113.09 41.1736 113.362 41.0279 113.566 40.8337C113.839 40.6395 114.043 40.4938 114.247 40.3482C114.451 40.2025 114.655 40.0569 114.791 39.9598C114.859 40.0083 114.995 39.9598 115.063 39.9598Z" fill="#595857"/>
<path d="M116.969 43.407C117.309 43.5041 117.581 43.6012 117.853 43.7469C118.125 43.8925 118.329 44.0382 118.466 44.1838C118.602 44.3295 118.738 44.5237 118.874 44.7179C118.942 44.9121 119.01 45.1064 119.01 45.3006C119.01 45.3977 119.01 45.4462 118.942 45.5433C118.874 45.6405 118.874 45.689 118.806 45.7376C118.738 45.7861 118.67 45.7861 118.67 45.7376C118.602 45.689 118.602 45.6405 118.602 45.4948C118.602 45.3006 118.534 45.1549 118.466 45.0093C118.397 44.8636 118.193 44.7179 117.989 44.6208C117.785 44.5237 117.513 44.4266 117.241 44.3295C116.969 44.2809 116.628 44.2324 116.22 44.2324C115.948 44.5237 115.676 44.815 115.335 45.0578C115.063 45.3006 114.723 45.5433 114.451 45.7376C114.179 45.9318 113.907 46.0774 113.634 46.1745C113.362 46.2716 113.09 46.3202 112.886 46.3202C112.478 46.3202 112.205 46.2231 112.001 46.0289C111.797 45.8347 111.729 45.5919 111.729 45.3006C111.729 45.0093 111.865 44.7179 112.069 44.4752C112.273 44.2324 112.546 44.0382 112.954 43.844C113.294 43.6498 113.702 43.5041 114.179 43.407C114.655 43.3099 115.063 43.2613 115.54 43.2128C115.88 42.8243 116.152 42.3874 116.492 41.9989C116.832 41.5619 117.105 41.1735 117.377 40.7365C117.105 40.9793 116.901 41.1735 116.628 41.3677C116.356 41.5619 116.152 41.7562 115.88 41.9018C115.676 42.0475 115.404 42.1931 115.199 42.2902C114.995 42.3874 114.791 42.4359 114.655 42.4359C114.519 42.4359 114.315 42.4359 114.179 42.3874C114.043 42.3388 113.907 42.2902 113.77 42.1931C113.634 42.096 113.566 41.9989 113.498 41.8047C113.43 41.659 113.362 41.4648 113.362 41.2706C113.362 41.0764 113.43 40.8822 113.566 40.6394C113.702 40.3966 113.839 40.1539 114.043 39.9111C114.247 39.6683 114.451 39.4256 114.723 39.1828C114.995 38.94 115.267 38.7458 115.54 38.5516C115.812 38.3574 116.152 38.2117 116.492 38.1146C116.832 38.0175 117.105 37.9204 117.445 37.9204C117.717 37.9204 117.989 37.969 118.193 38.0661C118.397 38.1632 118.534 38.2603 118.67 38.4545C118.806 38.3088 118.942 38.1632 119.078 38.0661C119.214 37.969 119.282 37.9204 119.282 37.9204C119.35 37.9204 119.486 37.969 119.554 38.0175C119.622 38.0661 119.758 38.1146 119.826 38.2117C119.894 38.3088 119.963 38.3574 119.963 38.4545C120.031 38.5516 120.031 38.6487 120.031 38.7458C120.031 38.8429 119.963 38.94 119.894 39.1343C119.826 39.2799 119.69 39.5227 119.622 39.7169C119.486 39.9597 119.35 40.2024 119.146 40.4938C118.942 40.7851 118.738 41.0764 118.534 41.4163C118.329 41.7562 118.057 42.0475 117.853 42.3874C117.513 42.7758 117.241 43.1157 116.969 43.407ZM112.41 45.7376C112.682 45.7376 113.022 45.5919 113.362 45.3491C113.702 45.1064 114.111 44.7665 114.519 44.3295C113.839 44.4266 113.294 44.5723 112.818 44.7665C112.41 44.9607 112.205 45.252 112.205 45.5919C112.205 45.6405 112.205 45.689 112.273 45.689C112.342 45.7376 112.41 45.7376 112.41 45.7376ZM114.655 41.8047C114.791 41.8047 114.995 41.7076 115.267 41.5134C115.54 41.3192 115.812 41.0764 116.152 40.8336C116.492 40.5423 116.764 40.251 117.105 39.9111C117.445 39.5712 117.717 39.2799 118.057 38.9886C118.193 38.8915 118.193 38.7944 118.193 38.6973C118.125 38.6002 118.057 38.5516 117.921 38.5516C117.717 38.5516 117.445 38.6487 117.173 38.7944C116.901 38.94 116.628 39.1343 116.356 39.377C116.084 39.6198 115.812 39.8626 115.54 40.1539C115.267 40.4452 115.063 40.688 114.927 40.9307C114.791 41.1735 114.655 41.3677 114.587 41.5134C114.519 41.7562 114.519 41.8047 114.655 41.8047Z" fill="#595857"/>
<path d="M125.338 39.9598C125.406 39.9598 125.406 40.0083 125.338 40.154C125.27 40.2996 125.202 40.4453 124.998 40.6395C124.862 40.8337 124.658 41.0279 124.453 41.2707C124.249 41.5135 123.977 41.7077 123.705 41.9019C123.433 42.0961 123.161 42.2418 122.888 42.3874C122.616 42.5331 122.344 42.5817 122.072 42.5817C121.732 42.5817 121.391 42.5331 121.119 42.436C120.847 42.3389 120.575 42.2418 120.439 42.0961C120.235 41.9505 120.099 41.7562 120.03 41.6106C119.962 41.4164 119.894 41.2222 119.894 41.0279C119.894 40.8337 119.962 40.591 120.03 40.3482C120.099 40.1054 120.235 39.9112 120.439 39.6684C120.575 39.4742 120.779 39.2315 120.983 39.0372C121.187 38.843 121.391 38.6974 121.664 38.5517C121.868 38.406 122.14 38.3089 122.344 38.2118C122.548 38.1147 122.82 38.0662 123.024 38.0662C123.161 38.0662 123.365 38.0662 123.569 38.1147C123.773 38.1633 123.909 38.2118 124.045 38.3089C124.181 38.406 124.317 38.5031 124.385 38.6488C124.453 38.7945 124.521 38.9401 124.521 39.0858C124.521 39.1829 124.453 39.28 124.385 39.4257C124.317 39.5713 124.181 39.6684 124.045 39.8141C123.909 39.9598 123.773 40.0569 123.569 40.2025C123.365 40.2996 123.229 40.4453 123.024 40.5424C122.82 40.6395 122.684 40.7366 122.48 40.7852C122.276 40.8337 122.14 40.8823 122.004 40.8823C121.868 40.8823 121.8 40.8823 121.664 40.8337C121.596 40.8337 121.459 40.7852 121.391 40.7366C121.323 40.8823 121.255 41.0279 121.187 41.1736C121.119 41.3193 121.119 41.4649 121.119 41.6106C121.119 41.7562 121.187 41.9019 121.323 41.9505C121.459 41.999 121.596 42.0476 121.8 42.0476C121.936 42.0476 122.14 41.999 122.412 41.9019C122.616 41.8048 122.888 41.6591 123.092 41.5135C123.297 41.3678 123.569 41.2222 123.773 41.0279C124.045 40.8337 124.249 40.6881 124.453 40.5424C124.658 40.3967 124.862 40.2511 124.998 40.154C125.202 40.0083 125.27 39.9598 125.338 39.9598ZM123.773 38.6003C123.637 38.6003 123.501 38.6488 123.297 38.6974C123.093 38.7945 122.956 38.8916 122.752 39.0372C122.548 39.1829 122.412 39.3286 122.208 39.5228C122.004 39.717 121.868 39.9112 121.732 40.1054C121.936 40.0569 122.072 40.0083 122.276 39.9112C122.48 39.8141 122.616 39.717 122.82 39.6199C122.956 39.5228 123.161 39.3771 123.297 39.28C123.433 39.1829 123.569 39.0372 123.637 38.9401C123.705 38.843 123.773 38.7459 123.841 38.6974C123.841 38.6488 123.841 38.6003 123.773 38.6003Z" fill="#595857"/>
<path d="M133.231 38.0175C133.571 38.0175 133.776 38.1146 133.98 38.2603C134.116 38.4059 134.252 38.6487 134.252 38.8915C134.252 39.0857 134.184 39.2799 134.116 39.5227C134.048 39.7654 133.912 40.0082 133.776 40.2995C133.639 40.5909 133.503 40.8336 133.299 41.0764C133.095 41.3192 132.959 41.5619 132.755 41.7561C132.551 41.9504 132.347 42.1446 132.142 42.2417C131.938 42.3873 131.802 42.4359 131.598 42.4359C131.326 42.4359 131.054 42.3873 130.85 42.2902C130.645 42.1931 130.509 42.096 130.373 41.9989C130.305 41.9018 130.237 41.8047 130.237 41.7076C130.237 41.6105 130.305 41.5619 130.373 41.5619C130.441 41.5619 130.441 41.5619 130.441 41.6105C130.441 41.6105 130.441 41.659 130.509 41.659L130.577 41.7076L130.645 41.7561C130.85 41.7561 131.054 41.659 131.258 41.5134C131.462 41.3677 131.666 41.1735 131.87 40.9307C132.074 40.688 132.279 40.4452 132.415 40.1539C132.551 39.8625 132.755 39.6198 132.823 39.377C132.959 39.1342 133.027 38.94 133.027 38.7944C133.095 38.6487 133.027 38.5516 132.959 38.5516C132.891 38.5516 132.755 38.6001 132.619 38.6973C132.483 38.7944 132.347 38.94 132.142 39.1342C131.938 39.3285 131.802 39.5227 131.53 39.7169C131.326 39.9597 131.122 40.1539 130.918 40.3966C130.714 40.6394 130.509 40.8822 130.305 41.0764C130.101 41.3192 129.897 41.5134 129.761 41.7076C129.557 41.9018 129.421 42.0475 129.285 42.1446C129.149 42.2417 129.08 42.3388 129.012 42.3388C128.876 42.3388 128.808 42.2902 128.672 42.2417C128.536 42.1931 128.4 42.1446 128.332 42.0475C128.196 41.9504 128.128 41.8532 128.06 41.7561C127.992 41.659 127.924 41.5134 127.924 41.4163C127.924 41.2706 127.992 41.0278 128.128 40.7365C128.264 40.4452 128.4 40.1053 128.672 39.7654C128.876 39.377 129.149 38.9886 129.421 38.6002C129.693 38.1632 130.033 37.7747 130.305 37.3378C130.645 36.9008 130.918 36.5123 131.258 36.1239C131.598 35.7355 131.87 35.3956 132.211 35.1043C132.483 34.813 132.755 34.5702 133.027 34.4245C133.299 34.2303 133.503 34.1818 133.639 34.1818C133.707 34.1818 133.776 34.2303 133.707 34.376C133.639 34.5216 133.571 34.7159 133.435 34.9101C133.299 35.1528 133.163 35.3956 132.959 35.7355C132.755 36.0268 132.551 36.3667 132.279 36.7551C132.006 37.095 131.802 37.4834 131.53 37.8718C131.258 38.2603 130.986 38.6487 130.714 38.9886C130.441 39.377 130.237 39.7169 130.033 40.0568C129.829 40.3966 129.625 40.688 129.489 40.9793C129.625 40.7851 129.829 40.5909 130.033 40.3481C130.237 40.1053 130.441 39.8625 130.645 39.6683C130.85 39.4256 131.122 39.2314 131.326 38.9886C131.53 38.7944 131.802 38.6001 132.006 38.4059C132.211 38.2603 132.415 38.1146 132.619 38.0175C132.823 38.0661 133.027 38.0175 133.231 38.0175Z" fill="#595857"/>
<path d="M142.485 39.9598C142.553 39.9598 142.553 40.0083 142.485 40.154C142.417 40.2996 142.349 40.4453 142.145 40.6395C142.009 40.8337 141.805 41.0279 141.601 41.2707C141.396 41.5135 141.124 41.7077 140.852 41.9019C140.58 42.0961 140.308 42.2418 140.036 42.3874C139.763 42.5331 139.491 42.5817 139.219 42.5817C138.947 42.5817 138.743 42.5331 138.539 42.4845C138.334 42.436 138.13 42.3389 137.994 42.2418C137.858 42.1447 137.722 42.0476 137.586 41.9019C137.518 41.7562 137.45 41.6591 137.382 41.5135C137.178 41.6591 137.042 41.8048 136.838 41.9019C136.633 42.0476 136.497 42.1447 136.293 42.2418C136.089 42.3389 135.953 42.3874 135.817 42.4845C135.681 42.5331 135.545 42.5817 135.409 42.5817C135.272 42.5817 135.068 42.5817 134.932 42.5331C134.796 42.4845 134.66 42.436 134.524 42.3389C134.388 42.2418 134.32 42.1447 134.252 41.9505C134.184 41.8048 134.116 41.6106 134.116 41.4164C134.116 41.2222 134.184 41.0279 134.32 40.7852C134.456 40.5424 134.592 40.2996 134.796 40.0569C135 39.8141 135.204 39.5713 135.477 39.3286C135.749 39.0858 136.021 38.8916 136.293 38.6974C136.565 38.5031 136.906 38.3575 137.246 38.2604C137.586 38.1633 137.858 38.0662 138.198 38.0662C138.675 38.0662 139.083 38.1147 139.423 38.2118C139.695 38.3089 139.968 38.4546 140.036 38.6003C140.172 38.7459 140.24 38.843 140.172 38.9887C140.172 39.0858 140.104 39.1343 139.968 39.1343C139.899 39.1343 139.9 39.0858 139.831 39.0372C139.763 38.9887 139.763 38.9401 139.695 38.8916C139.627 38.843 139.559 38.7945 139.491 38.6974C139.423 38.6488 139.287 38.6003 139.151 38.6003C138.811 38.6003 138.471 38.6974 138.13 38.843C137.79 38.9887 137.45 39.1829 137.178 39.4257C136.838 39.6684 136.565 39.9112 136.361 40.2025C136.089 40.4938 135.885 40.7366 135.749 40.9794C135.613 41.2222 135.477 41.4164 135.477 41.562C135.409 41.7077 135.477 41.8048 135.613 41.8048C135.749 41.8048 135.885 41.7562 136.089 41.6106C136.293 41.4649 136.497 41.3193 136.769 41.125C136.974 40.9308 137.246 40.7366 137.518 40.4938C137.79 40.2511 137.994 40.0569 138.266 39.8626C138.539 39.6684 138.743 39.5228 138.947 39.3771C139.151 39.2314 139.355 39.1829 139.491 39.1829C139.559 39.1829 139.695 39.1829 139.763 39.2315C139.831 39.28 139.9 39.3286 139.9 39.4257C139.9 39.4742 139.831 39.6199 139.695 39.7655C139.559 39.9598 139.423 40.154 139.287 40.3482C139.151 40.5424 139.015 40.7852 138.879 41.0279C138.743 41.2707 138.675 41.4649 138.675 41.6106C138.675 41.8048 138.811 41.8533 139.015 41.8533C139.151 41.8533 139.355 41.8048 139.627 41.7077C139.831 41.6106 140.104 41.4649 140.308 41.3193C140.512 41.1736 140.784 41.0279 140.988 40.8337C141.26 40.6395 141.465 40.4938 141.669 40.3482C141.873 40.2025 142.077 40.0569 142.213 39.9598C142.281 40.0083 142.417 39.9598 142.485 39.9598Z" fill="#595857"/>
<path d="M149.63 39.9597C149.698 39.9597 149.698 40.0083 149.63 40.154C149.562 40.2996 149.494 40.4453 149.29 40.6395C149.154 40.8337 148.95 41.0279 148.745 41.2707C148.541 41.5135 148.269 41.7077 147.997 41.9019C147.725 42.0961 147.453 42.2418 147.18 42.3874C146.908 42.5331 146.636 42.5816 146.364 42.5816C146.092 42.5816 145.888 42.5331 145.683 42.4845C145.479 42.3874 145.275 42.2903 145.139 42.1447C145.003 41.999 144.867 41.8533 144.731 41.6591C144.663 41.4649 144.595 41.2707 144.595 41.0279V40.9794C144.391 41.1736 144.186 41.3678 143.914 41.562C143.71 41.7562 143.438 41.9019 143.234 42.0476C143.03 42.1932 142.757 42.3389 142.553 42.436C142.349 42.5331 142.145 42.5816 141.941 42.5816C141.805 42.5816 141.601 42.5816 141.465 42.5331C141.329 42.4845 141.192 42.436 141.056 42.3389C140.92 42.2418 140.852 42.1447 140.784 41.9505C140.716 41.8048 140.648 41.6106 140.648 41.4164C140.648 41.2221 140.716 41.0279 140.852 40.7852C140.988 40.5424 141.124 40.2996 141.329 40.0569C141.533 39.8141 141.737 39.5713 142.009 39.3285C142.281 39.0858 142.553 38.8916 142.825 38.6973C143.098 38.5031 143.438 38.3575 143.778 38.2604C144.118 38.1633 144.391 38.0662 144.731 38.0662C145.003 38.0662 145.207 38.1147 145.411 38.1633C145.615 38.2604 145.751 38.3575 145.887 38.4546C146.228 37.969 146.568 37.4835 146.976 36.998C147.384 36.5124 147.793 36.0755 148.201 35.687C148.609 35.2986 148.95 34.9587 149.29 34.7159C149.63 34.4732 149.834 34.3275 150.038 34.3275C150.174 34.3275 150.174 34.4246 150.106 34.6188C150.038 34.8131 149.902 35.0558 149.766 35.3471C149.562 35.6385 149.358 35.9783 149.086 36.4153C148.813 36.8038 148.541 37.2407 148.269 37.6292C147.997 38.0662 147.657 38.4546 147.384 38.8916C147.112 39.3285 146.84 39.717 146.568 40.1054C146.364 40.4938 146.16 40.7852 146.024 41.0765C145.888 41.3678 145.819 41.562 145.819 41.7077C145.819 41.9019 145.956 41.999 146.228 41.999C146.364 41.999 146.568 41.9504 146.84 41.8533C147.044 41.7562 147.316 41.6106 147.521 41.4649C147.793 41.3193 147.997 41.1736 148.269 40.9794C148.541 40.7852 148.745 40.6395 148.95 40.4938C149.154 40.3482 149.358 40.2025 149.494 40.1054C149.494 40.0083 149.562 39.9597 149.63 39.9597ZM142.077 41.8533C142.213 41.8533 142.349 41.8048 142.553 41.7077C142.757 41.6106 142.962 41.4649 143.166 41.3193C143.37 41.1736 143.642 40.9794 143.846 40.7852C144.05 40.5909 144.322 40.3967 144.527 40.2025C144.731 40.0083 144.935 39.8141 145.071 39.6199C145.207 39.4257 145.343 39.28 145.479 39.1343C145.547 39.0858 145.547 39.0372 145.547 38.9887C145.615 38.8916 145.615 38.7945 145.547 38.6973C145.479 38.6002 145.411 38.5517 145.275 38.5517C145.071 38.5517 144.799 38.6488 144.527 38.7945C144.254 38.9401 143.982 39.1343 143.71 39.3771C143.438 39.6199 143.166 39.8626 142.894 40.154C142.621 40.4453 142.417 40.6881 142.281 40.9308C142.145 41.1736 142.009 41.3678 141.941 41.5135C141.873 41.7562 141.941 41.8533 142.077 41.8533Z" fill="#595857"/>
<path d="M156.911 39.9597C156.979 39.9597 156.979 40.0083 156.911 40.1539C156.843 40.2996 156.775 40.4453 156.57 40.6395C156.434 40.8337 156.23 41.0279 156.026 41.2707C155.822 41.5134 155.55 41.7076 155.278 41.9019C155.005 42.0961 154.733 42.2417 154.461 42.3874C154.189 42.5331 153.917 42.5816 153.644 42.5816C153.44 42.5816 153.236 42.5331 152.964 42.4845C152.76 42.436 152.556 42.3388 152.352 42.2417C152.147 42.1446 152.011 41.999 151.943 41.8533C151.807 41.7076 151.807 41.5134 151.807 41.3192C151.807 41.1736 151.807 40.9793 151.875 40.7851C151.943 40.5909 152.011 40.3967 152.147 40.2025C151.875 40.4938 151.671 40.7366 151.399 41.0279C151.127 41.3192 150.923 41.562 150.719 41.8048C150.514 42.0475 150.31 42.2417 150.106 42.3874C149.902 42.5331 149.766 42.5816 149.63 42.5816C149.426 42.5816 149.29 42.5331 149.154 42.4845C149.017 42.436 148.881 42.3388 148.813 42.1932C148.745 42.0961 148.609 41.9504 148.609 41.8533C148.541 41.7076 148.541 41.6105 148.541 41.5134C148.541 41.1736 148.677 40.7366 148.881 40.2996C149.085 39.8141 149.358 39.3285 149.766 38.7944C150.106 38.2603 150.514 37.7262 150.923 37.2407C151.331 36.7066 151.739 36.2696 152.147 35.8327C152.556 35.4442 152.896 35.1043 153.236 34.8616C153.576 34.6188 153.849 34.4731 153.985 34.4731C154.121 34.4731 154.121 34.5217 154.121 34.6674C154.121 34.813 153.985 35.0072 153.849 35.25C153.713 35.4928 153.508 35.7841 153.304 36.0754C153.1 36.4153 152.828 36.7552 152.556 37.095C152.284 37.4835 152.011 37.8719 151.739 38.2603C151.467 38.6488 151.195 39.0372 150.923 39.4742C150.651 39.8626 150.446 40.251 150.242 40.5909C150.038 40.9793 149.902 41.2707 149.766 41.6105C149.97 41.4649 150.174 41.2707 150.378 41.0279C150.582 40.7851 150.855 40.5424 151.059 40.2996C151.331 40.0568 151.535 39.7655 151.807 39.5227C152.079 39.28 152.284 39.0372 152.488 38.843C152.692 38.6488 152.896 38.4545 153.1 38.3574C153.304 38.2118 153.44 38.1632 153.576 38.1632C153.917 38.1632 154.189 38.2118 154.325 38.3574C154.461 38.5031 154.461 38.6488 154.393 38.8915C154.325 39.0857 154.257 39.3285 154.053 39.6198C153.917 39.9112 153.713 40.1539 153.576 40.4453C153.372 40.7366 153.236 40.9793 153.1 41.2221C152.964 41.4649 152.896 41.7076 152.896 41.8533C152.896 42.0475 153.032 42.1446 153.236 42.1446C153.372 42.1446 153.576 42.0961 153.849 41.999C154.053 41.9019 154.325 41.7562 154.529 41.6105C154.733 41.4649 155.005 41.3192 155.278 41.125C155.55 40.9308 155.754 40.7851 155.958 40.6395C156.162 40.4938 156.366 40.3481 156.502 40.251C156.706 40.0083 156.843 39.9597 156.911 39.9597Z" fill="#595857"/>
<path d="M163.783 39.9598C163.851 39.9598 163.851 40.0083 163.783 40.154C163.715 40.2996 163.647 40.4453 163.443 40.6395C163.307 40.8337 163.103 41.0279 162.899 41.2707C162.694 41.5135 162.422 41.7077 162.15 41.9019C161.878 42.0961 161.606 42.2418 161.334 42.3874C161.061 42.5331 160.789 42.5817 160.517 42.5817C160.245 42.5817 160.041 42.5331 159.837 42.4845C159.632 42.436 159.428 42.3389 159.292 42.2418C159.156 42.1447 159.02 42.0476 158.884 41.9019C158.816 41.7562 158.748 41.6591 158.68 41.5135C158.476 41.6591 158.34 41.8048 158.135 41.9019C157.931 42.0476 157.795 42.1447 157.591 42.2418C157.387 42.3389 157.251 42.3874 157.115 42.4845C156.979 42.5331 156.843 42.5817 156.707 42.5817C156.57 42.5817 156.366 42.5817 156.23 42.5331C156.094 42.4845 155.958 42.436 155.822 42.3389C155.686 42.2418 155.618 42.1447 155.55 41.9505C155.482 41.8048 155.414 41.6106 155.414 41.4164C155.414 41.2222 155.482 41.0279 155.618 40.7852C155.754 40.5424 155.89 40.2996 156.094 40.0569C156.298 39.8141 156.502 39.5713 156.775 39.3286C157.047 39.0858 157.319 38.8916 157.591 38.6974C157.863 38.5031 158.204 38.3575 158.544 38.2604C158.884 38.1633 159.156 38.0662 159.496 38.0662C159.973 38.0662 160.381 38.1147 160.721 38.2118C160.993 38.3089 161.266 38.4546 161.334 38.6003C161.47 38.7459 161.538 38.843 161.47 38.9887C161.47 39.0858 161.402 39.1343 161.266 39.1343C161.197 39.1343 161.197 39.0858 161.129 39.0372C161.129 38.9887 161.061 38.9401 160.993 38.8916C160.925 38.843 160.857 38.7945 160.789 38.6974C160.721 38.6488 160.585 38.6003 160.449 38.6003C160.109 38.6003 159.769 38.6974 159.428 38.843C159.088 38.9887 158.748 39.1829 158.476 39.4257C158.135 39.6684 157.863 39.9112 157.659 40.2025C157.387 40.4938 157.183 40.7366 157.047 40.9794C156.911 41.2222 156.775 41.4164 156.775 41.562C156.707 41.7077 156.775 41.8048 156.911 41.8048C157.047 41.8048 157.183 41.7562 157.387 41.6106C157.591 41.4649 157.795 41.3193 158.067 41.125C158.272 40.9308 158.544 40.7366 158.816 40.4938C159.088 40.2511 159.292 40.0569 159.564 39.8626C159.837 39.6684 160.041 39.5228 160.245 39.3771C160.449 39.2314 160.653 39.1829 160.789 39.1829C160.857 39.1829 160.993 39.1829 161.061 39.2315C161.129 39.28 161.197 39.3286 161.197 39.4257C161.197 39.4742 161.129 39.6199 160.993 39.7655C160.857 39.9598 160.721 40.154 160.585 40.3482C160.449 40.5424 160.313 40.7852 160.177 41.0279C160.041 41.2707 159.973 41.4649 159.973 41.6106C159.973 41.8048 160.109 41.8533 160.313 41.8533C160.449 41.8533 160.653 41.8048 160.925 41.7077C161.129 41.6106 161.402 41.4649 161.606 41.3193C161.81 41.1736 162.082 41.0279 162.286 40.8337C162.558 40.6395 162.763 40.4938 162.967 40.3482C163.171 40.2025 163.375 40.0569 163.511 39.9598C163.647 40.0083 163.715 39.9598 163.783 39.9598Z" fill="#595857"/>
<path d="M167.526 39.9598C167.594 39.9598 167.594 40.0083 167.526 40.154C167.458 40.2996 167.39 40.4453 167.185 40.6395C167.049 40.8337 166.845 41.0279 166.641 41.2707C166.437 41.5135 166.165 41.7077 165.893 41.9019C165.62 42.0961 165.348 42.2418 165.076 42.3874C164.804 42.5331 164.532 42.5817 164.259 42.5817C163.919 42.5817 163.579 42.5331 163.307 42.436C163.035 42.3389 162.762 42.2418 162.626 42.0961C162.422 41.9505 162.286 41.7562 162.218 41.6106C162.15 41.4164 162.082 41.2222 162.082 41.0279C162.082 40.8337 162.15 40.591 162.218 40.3482C162.286 40.1054 162.422 39.9112 162.626 39.6684C162.762 39.4742 162.967 39.2315 163.171 39.0372C163.375 38.843 163.647 38.6974 163.851 38.5517C164.055 38.406 164.328 38.3089 164.532 38.2118C164.736 38.1147 165.008 38.0662 165.212 38.0662C165.348 38.0662 165.552 38.0662 165.756 38.1147C165.961 38.1633 166.097 38.2118 166.233 38.3089C166.369 38.406 166.505 38.5031 166.573 38.6488C166.641 38.7945 166.709 38.9401 166.709 39.0858C166.709 39.1829 166.641 39.28 166.573 39.4257C166.505 39.5713 166.369 39.6684 166.233 39.8141C166.097 39.9598 165.961 40.0569 165.756 40.2025C165.552 40.2996 165.416 40.4453 165.212 40.5424C165.008 40.6395 164.872 40.7366 164.668 40.7852C164.464 40.8337 164.328 40.8823 164.191 40.8823C164.055 40.8823 163.987 40.8823 163.851 40.8337C163.783 40.8337 163.647 40.7852 163.579 40.7366C163.511 40.8823 163.443 41.0279 163.375 41.1736C163.307 41.3193 163.307 41.4649 163.307 41.6106C163.307 41.7562 163.375 41.9019 163.511 41.9505C163.647 41.999 163.783 42.0476 163.987 42.0476C164.123 42.0476 164.327 41.999 164.6 41.9019C164.804 41.8048 165.076 41.6591 165.28 41.5135C165.484 41.3678 165.756 41.2222 165.961 41.0279C166.233 40.8337 166.437 40.6881 166.641 40.5424C166.845 40.3967 167.049 40.2511 167.185 40.154C167.321 40.0083 167.458 39.9598 167.526 39.9598ZM165.893 38.6003C165.756 38.6003 165.62 38.6488 165.416 38.6974C165.212 38.7945 165.076 38.8916 164.872 39.0372C164.668 39.1829 164.532 39.3286 164.328 39.5228C164.123 39.717 163.987 39.9112 163.851 40.1054C164.055 40.0569 164.191 40.0083 164.396 39.9112C164.6 39.8141 164.736 39.717 164.94 39.6199C165.076 39.5228 165.28 39.3771 165.416 39.28C165.552 39.1829 165.688 39.0372 165.756 38.9401C165.824 38.843 165.893 38.7459 165.961 38.6974C165.961 38.6488 165.961 38.6003 165.893 38.6003Z" fill="#595857"/>
<path d="M171.608 39.9597C171.676 39.9597 171.676 40.0082 171.608 40.1539C171.54 40.2995 171.472 40.4452 171.268 40.6394C171.132 40.8336 170.928 41.0278 170.724 41.2706C170.52 41.5134 170.247 41.7076 169.975 41.9018C169.703 42.096 169.431 42.2417 169.159 42.3873C168.887 42.533 168.614 42.5816 168.342 42.5816C168.002 42.5816 167.662 42.533 167.458 42.4359C167.185 42.3388 167.049 42.2417 166.913 42.096C166.777 41.9504 166.709 41.8047 166.641 41.6105C166.573 41.4163 166.573 41.2706 166.573 41.0764C166.573 40.9307 166.641 40.7365 166.709 40.4937C166.777 40.2995 166.913 40.0568 167.049 39.814C167.185 39.5712 167.321 39.377 167.458 39.1828C167.594 38.9886 167.73 38.7944 167.866 38.6001C168.002 38.4545 168.138 38.3088 168.206 38.2117C168.342 38.1146 168.41 38.0661 168.478 38.0661C168.546 38.0661 168.682 38.0661 168.818 38.1146C168.955 38.1632 169.023 38.2117 169.159 38.2603C169.227 38.3088 169.363 38.4059 169.431 38.4545C169.499 38.503 169.499 38.6001 169.499 38.6487C169.499 38.6973 169.431 38.7944 169.363 38.8915C169.295 38.9886 169.159 39.1342 169.023 39.3285C168.887 39.5227 168.75 39.6683 168.614 39.9111C168.478 40.1053 168.342 40.3481 168.206 40.5423C168.07 40.7365 168.002 40.9793 167.866 41.1735C167.798 41.3677 167.73 41.5619 167.73 41.7561C167.73 41.9504 167.866 41.9989 168.138 41.9989C168.274 41.9989 168.478 41.9504 168.75 41.8532C168.955 41.7561 169.227 41.6105 169.431 41.4648C169.703 41.3192 169.907 41.1735 170.179 40.9793C170.452 40.7851 170.656 40.6394 170.86 40.4937C171.064 40.3481 171.268 40.2024 171.404 40.1053C171.472 40.0082 171.54 39.9597 171.608 39.9597ZM169.635 37.532C169.431 37.4349 169.363 37.3378 169.363 37.1435C169.363 36.9493 169.363 36.8037 169.567 36.6094C169.703 36.4152 169.907 36.3181 170.111 36.2696C170.315 36.221 170.52 36.221 170.724 36.2696C170.928 36.3667 170.996 36.4638 171.064 36.658C171.064 36.8522 170.996 36.9979 170.86 37.1921C170.724 37.3863 170.52 37.4834 170.315 37.532C170.043 37.6291 169.839 37.6291 169.635 37.532Z" fill="#595857"/>
<path d="M178.345 39.9597C178.413 39.9597 178.413 40.0082 178.345 40.1539C178.277 40.2995 178.209 40.4452 178.004 40.6394C177.868 40.8336 177.664 41.0278 177.46 41.2706C177.256 41.5134 176.984 41.7076 176.712 41.9018C176.439 42.096 176.167 42.2417 175.895 42.3874C175.623 42.533 175.351 42.5816 175.079 42.5816C174.874 42.5816 174.67 42.533 174.398 42.4845C174.194 42.4359 173.99 42.3388 173.786 42.2417C173.582 42.1446 173.445 41.9989 173.377 41.8533C173.241 41.7076 173.241 41.5134 173.241 41.3192C173.241 41.1735 173.241 40.9793 173.309 40.7851C173.377 40.5909 173.445 40.3967 173.582 40.2024C173.309 40.4938 173.105 40.7365 172.833 41.0278C172.561 41.3192 172.357 41.5619 172.153 41.8047C171.949 42.0475 171.744 42.2417 171.54 42.3874C171.336 42.533 171.2 42.5816 171.064 42.5816C170.86 42.5816 170.724 42.533 170.588 42.4845C170.452 42.4359 170.315 42.3388 170.247 42.1931C170.179 42.096 170.043 41.9504 170.043 41.8533C169.975 41.7076 169.975 41.6105 169.975 41.5134C169.975 41.3677 170.043 41.2221 170.111 40.9793C170.179 40.7365 170.315 40.4938 170.452 40.251C170.588 40.0082 170.792 39.7169 170.928 39.4741C171.132 39.2314 171.268 38.9886 171.472 38.7944C171.676 38.6002 171.812 38.4059 171.949 38.3088C172.085 38.1632 172.221 38.1146 172.289 38.1146C172.493 38.1146 172.629 38.1632 172.629 38.2603C172.697 38.3574 172.697 38.5031 172.629 38.6973C172.561 38.8915 172.493 39.0857 172.425 39.3285C172.289 39.5712 172.221 39.814 172.085 40.0568C171.949 40.2995 171.812 40.5423 171.676 40.8336C171.54 41.0764 171.404 41.3192 171.336 41.5619C171.472 41.3677 171.676 41.1735 171.88 40.9307C172.085 40.688 172.289 40.4452 172.561 40.2024C172.765 39.9597 173.037 39.7169 173.241 39.4741C173.445 39.2314 173.718 38.9886 173.922 38.7944C174.126 38.6002 174.33 38.4545 174.534 38.3088C174.738 38.2117 174.942 38.1146 175.079 38.1146C175.419 38.1146 175.623 38.1632 175.759 38.3088C175.827 38.4545 175.895 38.6002 175.827 38.8429C175.759 39.0371 175.691 39.2799 175.487 39.5712C175.351 39.8626 175.147 40.1053 175.011 40.3966C174.874 40.688 174.67 40.9307 174.534 41.1735C174.398 41.4163 174.33 41.659 174.33 41.8047C174.33 41.9989 174.466 42.096 174.67 42.096C174.806 42.096 175.011 42.0475 175.283 41.9504C175.487 41.8533 175.759 41.7076 175.963 41.5619C176.167 41.4163 176.439 41.2706 176.644 41.0764C176.916 40.8822 177.12 40.7365 177.324 40.5909C177.528 40.4452 177.732 40.2995 177.868 40.2024C178.209 40.0082 178.277 39.9597 178.345 39.9597Z" fill="#595857"/>
<path d="M178.957 8.44838C177.46 8.44838 176.235 7.57442 176.235 6.50624C176.235 5.43805 177.46 4.56409 178.957 4.56409C180.454 4.56409 181.679 5.3895 181.679 6.50624C181.611 7.57442 180.386 8.44838 178.957 8.44838ZM102.611 20.8781H107.442L107.987 10.5847L112.886 16.7025H115.471L120.099 10.5362L120.711 20.9267H125.746L124.726 5.04962H119.894L114.247 12.4783L108.463 5.04962H103.7L102.611 20.8781ZM141.192 17.5279C140.852 17.7221 140.24 17.9649 139.491 18.2077C138.743 18.4505 137.722 18.5961 136.429 18.5961C135.136 18.5961 134.184 18.3533 133.435 17.9164C132.687 17.4794 132.347 16.9453 132.347 16.3141H143.506V15.7314C143.506 14.8089 143.37 13.935 143.03 13.1581C142.689 12.3812 142.213 11.7015 141.533 11.1188C140.852 10.5362 140.104 10.0992 139.083 9.80789C138.13 9.46801 137.042 9.32235 135.749 9.32235C134.456 9.32235 133.367 9.46801 132.347 9.80789C131.326 10.1478 130.509 10.5847 129.829 11.1188C129.148 11.6529 128.604 12.2841 128.264 13.0124C127.924 13.7407 127.72 14.469 127.72 15.2459C127.72 16.1199 127.924 16.9453 128.332 17.6736C128.74 18.4019 129.285 19.0331 130.033 19.5672C130.782 20.1013 131.666 20.4897 132.755 20.781C133.844 21.0724 135 21.218 136.361 21.218C137.382 21.218 138.266 21.1695 139.015 21.0238C139.763 20.8781 140.444 20.7325 141.056 20.5383C141.601 20.344 142.077 20.1984 142.417 20.0042C142.757 19.81 143.03 19.7128 143.234 19.6157L141.192 17.5279ZM132.415 14.1292C132.415 13.8864 132.483 13.6436 132.619 13.4009C132.755 13.1581 132.959 12.9153 133.231 12.7211C133.503 12.5269 133.844 12.3327 134.252 12.187C134.66 12.0414 135.136 11.9928 135.749 11.9928C136.293 11.9928 136.769 12.0414 137.178 12.187C137.586 12.3327 137.926 12.4783 138.198 12.7211C138.471 12.9153 138.675 13.1581 138.811 13.4009C138.947 13.6436 139.015 13.8864 139.015 14.1292H132.415ZM159.837 20.8781H174.466V17.9649H164.872V5.04962H159.837V20.8781ZM176.507 20.8781H181.339V9.71078H178.957H176.575V20.8781H176.507ZM197.601 5.77793C196.921 5.34095 196.104 5.04962 195.22 4.85541C194.335 4.66119 193.519 4.61264 192.634 4.61264C191.817 4.61264 191.069 4.70975 190.252 4.90396C189.504 5.09818 188.823 5.34095 188.211 5.72938C187.599 6.11781 187.122 6.55479 186.782 7.13743C186.442 7.72008 186.238 8.39983 186.238 9.17669V9.75934H183.72V12.4298H186.238V20.8781H191.001V12.4298H194.675V9.75934H191.001V9.12814C191.001 8.59405 191.205 8.15706 191.613 7.86574C192.022 7.57442 192.566 7.42876 193.246 7.42876C193.655 7.42876 194.063 7.47731 194.471 7.57442C194.879 7.67153 195.22 7.81719 195.56 7.96285L197.601 5.77793ZM156.094 17.9164C155.754 18.062 155.482 18.2077 155.073 18.3533C154.733 18.4505 154.325 18.5476 153.781 18.5476C153.168 18.5476 152.692 18.4019 152.352 18.1106C152.079 17.8193 151.875 17.3823 151.875 16.8482V12.4298H155.89V9.75934H151.875V6.749H147.044V9.75934H144.595V12.4298H147.044V16.654C147.044 17.3337 147.112 17.9649 147.316 18.5476C147.52 19.1302 147.861 19.6157 148.337 20.0042C148.813 20.3926 149.426 20.7325 150.174 20.9752C150.923 21.218 151.875 21.3151 152.964 21.3151C154.733 21.3151 156.366 20.8781 157.931 20.0527L156.094 17.9164ZM209.169 17.5279C208.829 17.7221 208.216 17.9649 207.468 18.2077C206.719 18.4505 205.699 18.5961 204.406 18.5961C203.113 18.5961 202.16 18.3533 201.412 17.9164C200.663 17.4794 200.323 16.9453 200.323 16.3141H211.482V15.7314C211.482 14.8089 211.346 13.935 211.006 13.1581C210.666 12.3812 210.189 11.7015 209.509 11.1188C208.829 10.5362 208.08 10.0992 207.059 9.80789C206.107 9.46801 205.018 9.32235 203.725 9.32235C202.432 9.32235 201.344 9.46801 200.323 9.80789C199.302 10.1478 198.486 10.5847 197.805 11.1188C197.125 11.6529 196.581 12.2841 196.24 13.0124C195.9 13.7407 195.696 14.469 195.696 15.2459C195.696 16.1199 195.9 16.9453 196.308 17.6736C196.717 18.4019 197.261 19.0331 198.009 19.5672C198.758 20.1013 199.643 20.4897 200.731 20.781C201.82 21.0724 202.977 21.218 204.338 21.218C205.358 21.218 206.243 21.1695 206.991 21.0238C207.74 20.8781 208.42 20.7325 209.033 20.5383C209.577 20.344 210.053 20.1984 210.394 20.0042C210.734 19.81 211.006 19.7128 211.21 19.6157L209.169 17.5279ZM200.391 14.1292C200.391 13.8864 200.459 13.6436 200.595 13.4009C200.731 13.1581 200.935 12.9153 201.208 12.7211C201.48 12.5269 201.82 12.3327 202.228 12.187C202.637 12.0414 203.113 11.9928 203.725 11.9928C204.27 11.9928 204.746 12.0414 205.154 12.187C205.562 12.3327 205.903 12.4783 206.175 12.7211C206.447 12.9153 206.651 13.1581 206.787 13.4009C206.923 13.6436 206.991 13.8864 206.991 14.1292H200.391Z" fill="#1D1D1B"/>
<path fill-rule="evenodd" clip-rule="evenodd" d="M5.03528 0.631226V13.3523V13.4494C5.23941 19.7614 12.4521 24.7624 21.366 24.7624H21.434H39.6699V0.631226H5.03528Z" fill="#A51D3A"/>
<path fill-rule="evenodd" clip-rule="evenodd" d="M28.8509 3.44727H35.3151V22.189H28.8509V16.9938C23.1351 18.4989 17.8277 18.6446 12.9285 15.1487C10.8871 13.6435 9.73037 11.5557 10.2067 7.96276C10.2747 7.42867 9.93451 4.95243 9.04993 3.49582H14.7657C17.4194 6.60326 13.9491 10.439 18.0998 12.9638C23.6795 15.5857 28.6467 12.4297 28.8509 9.61359V3.44727ZM22.3186 5.34086C25.3806 5.34086 27.8983 7.13735 27.8983 9.27371C27.8983 11.4586 25.3806 13.2551 22.3186 13.2551C19.2566 13.2551 16.807 11.4586 16.807 9.27371C16.807 7.13735 19.2566 5.34086 22.3186 5.34086Z" fill="#FAC317"/>
<path d="M24.1558 6.94312C24.2919 6.60325 24.1558 6.31192 23.7475 6.21482C23.4073 6.11771 22.999 6.31192 22.8629 6.6518C22.7268 6.99168 22.8629 7.283 23.2712 7.38011C23.6114 7.47721 24.0197 7.283 24.1558 6.94312Z" fill="#A51D3A"/>
<path fill-rule="evenodd" clip-rule="evenodd" d="M22.931 11.4101C22.4547 11.6529 22.1144 11.8471 21.9784 11.8471C21.8423 11.8471 21.8423 11.7985 21.8423 11.75C21.8423 11.6529 21.9103 11.4101 22.0464 11.1188C22.1825 10.8274 23.1351 8.69108 23.2712 8.44831C23.4073 8.15698 23.4073 8.01132 23.4073 7.91422C23.4073 7.81711 23.2712 7.76855 23.1351 7.76855C22.931 7.76855 22.5227 7.86566 22.1144 8.05988C21.7062 8.25409 21.2299 8.59397 20.6855 8.93384L20.8896 9.12806L21.0938 8.9824C21.0938 8.9824 21.2979 8.83674 21.5701 8.73963C21.7742 8.64252 21.9103 8.64252 21.9103 8.64252C21.9103 8.64252 22.0464 8.64252 22.0464 8.73963C22.0464 8.78818 20.6175 11.7014 20.6175 11.7014C20.4814 11.9927 20.4133 12.2355 20.4133 12.3812C20.4133 12.4783 20.4814 12.5754 20.5494 12.6239C20.6175 12.6725 20.6855 12.721 20.8896 12.721C21.0938 12.721 21.502 12.6239 21.9784 12.3326C22.5227 12.1384 22.931 11.7985 23.4073 11.5557L23.1351 11.313C23.2032 11.2644 22.931 11.4101 22.931 11.4101Z" fill="#A51D3A"/>
<path fill-rule="evenodd" clip-rule="evenodd" d="M79.7482 4.95251H84.7154V14.9546C84.7154 14.9546 84.6474 16.7996 86.1444 17.5279C86.6207 17.7707 87.097 17.8678 87.5733 17.9164C88.0496 17.9164 88.5259 17.8678 88.8662 17.7707C89.6827 17.625 90.4312 17.0424 90.7034 16.4597C90.8395 16.2655 91.1797 15.343 90.7714 14.6147C90.4312 13.8864 89.2744 13.3523 88.662 13.2552C87.9816 13.1095 87.029 13.1095 85.8042 13.4009V9.90499C85.8042 9.90499 89.1383 9.17669 91.9282 10.2934C93.9695 11.0217 95.3304 12.5269 95.8067 13.9835C96.0108 14.5661 96.0789 15.1488 96.0108 15.78C95.8067 17.7221 94.65 20.1984 90.5673 21.218C88.2538 21.7521 85.8722 21.4608 83.967 20.8781C81.9937 20.1984 80.8369 19.1788 80.2245 18.2077C79.8843 17.5765 79.7482 16.9453 79.6802 16.0228C79.6121 15.2945 79.5441 14.4205 79.5441 13.8864C79.6802 10.6333 79.7482 4.95251 79.7482 4.95251Z" fill="#A51D3A"/>
<path fill-rule="evenodd" clip-rule="evenodd" d="M46.2022 25.3936H51.5097V15.2944C51.5097 15.2944 51.4416 13.498 53.0066 12.7211C53.4829 12.5269 54.0273 12.3812 54.5036 12.3812C54.9799 12.3327 55.5243 12.3812 55.8645 12.4783C56.7491 12.6725 57.4976 13.2552 57.8378 13.7893C57.9739 14.032 58.3141 14.906 57.9058 15.6343C57.4976 16.4112 56.3408 16.8967 55.5923 17.0424C54.8438 17.1395 53.8912 17.1395 52.5984 16.8967V20.3926C52.5984 20.3926 56.0686 21.1209 59.0626 20.0042C61.24 19.2273 62.6009 17.7707 63.1453 16.3141C63.3494 15.7314 63.4174 15.1002 63.3494 14.5176C63.1453 12.5754 61.9205 10.0992 57.6337 9.07956C55.116 8.49692 52.6664 8.83679 50.6931 9.41944C48.4477 10.0506 47.2909 11.0703 46.7465 12.0413C46.3383 12.6725 46.2022 13.3037 46.0661 14.2263C45.998 15.0031 45.998 15.78 45.998 16.3626V25.3936" fill="#A51D3A"/>
<path fill-rule="evenodd" clip-rule="evenodd" d="M64.7103 20.5383V13.7407C64.7103 13.7407 64.7784 10.0507 69.1332 9.1767C73.4881 8.30273 76.5501 10.0021 77.3666 11.1188C78.1831 12.1385 78.3873 13.6922 78.3873 14.2263C78.3192 14.7118 78.3873 20.5868 78.3873 20.5868H73.2159V14.1777C73.2159 14.1777 73.2839 12.4784 71.5148 12.4784C69.7456 12.4784 69.8817 13.8864 69.8817 13.8864V20.4412L64.7103 20.5383Z" fill="#A51D3A"/>
<path d="M2.85791 21.2665C2.85791 21.2665 5.37556 26.8502 16.6709 27.7241H211.482V30.1518H16.4668C16.3307 30.1518 16.1946 30.1518 16.0585 30.1518C14.2894 30.0061 3.19813 28.8409 2.85791 21.2665Z" fill="#FAC317"/>
</svg>
